<svg xmlns="http://www.w3.org/2000/svg" viewBox="0 0 5455.525 907.527"><path d="M328.678 263.11c-14.316 0-29.357-1.408-45.163-4.22l1.801-10.131c71.232 12.656 126.04-4.492 167.553-52.425l7.78 6.738c-34.81 40.195-78.26 60.038-131.971 60.038zm232.143-98.17c-4.99-2.437-9.631-3.598-14.62-3.598-10.905 0-17.75 10.21-17.75 25.99 0 15.778 6.845 25.988 17.635 25.988 5.453 0 10.79-1.508 15.894-4.409l7.193 13.924c-7.308 4.175-15.198 6.265-24.016 6.265-24.944 0-34.574-17.636-34.574-41.768 0-24.134 9.63-41.767 34.574-41.767 8.123 0 15.2 1.624 22.625 5.22l-6.961 14.155zm13.583 33.413c0-19.954 11.254-30.746 28.425-30.746s28.425 10.792 28.425 30.746c0 19.957-11.254 30.747-28.425 30.747s-28.425-10.79-28.425-30.747zm16.939 0c0 10.79 4.524 16.012 11.486 16.012s11.487-5.222 11.487-16.012-4.525-16.011-11.487-16.011-11.486 5.222-11.486 16.011zm67.533-24.829c3.713-3.248 8.238-5.917 14.502-5.917 16.708 0 25.061 13.11 25.061 30.746s-9.05 30.747-26.685 30.747c-3.944 0-7.657-.814-11.02-1.856v23.9l-16.708 2.319v-84.695h12.065l2.32 4.756h.465zm22.625 24.83c0-9.398-4.293-16.012-11.603-16.012-3.132 0-6.497 1.392-9.165 4.293v25.524c2.9 1.508 6.033 2.206 9.629 2.206 6.381 0 11.139-5.917 11.139-16.012zm22.17-29.586h52.44l-2.319 14.735h-15.895v44.436h-16.591v-44.436h-17.635v-14.735zm61.15 59.17v-59.17h16.708v31.907l21.927-31.907h14.27v59.17H801.02V196.15l-21.928 31.789h-14.27zm84.009-54.414c3.713-3.248 8.237-5.917 14.503-5.917 16.706 0 25.06 13.11 25.06 30.746s-9.05 30.747-26.684 30.747c-3.946 0-7.658-.814-11.023-1.856v23.9l-16.707 2.319v-84.695h12.066l2.322 4.756h.463zm22.623 24.83c0-9.398-4.293-16.012-11.6-16.012-3.134 0-6.498 1.392-9.167 4.293v25.524c2.9 1.508 6.033 2.206 9.63 2.206 6.381 0 11.137-5.917 11.137-16.012zm60.806-29.586h17.636l-22.16 70.542c-3.597 11.368-12.415 14.153-18.796 14.153-4.177 0-8.817-1.392-11.37-2.435l4.873-13.692c1.392.581 3.944 1.392 5.801 1.392 1.624 0 3.829-.81 4.64-3.48l2.205-7.31h-5.57l-17.635-59.17h17.636l10.906 39.216h.349l11.485-39.216zm25.184 59.17v-59.17h16.708v31.907l21.927-31.907h14.27v59.17h-16.706V196.15l-21.929 31.789h-14.27zm46.756-78.314c-4.64 8.354-11.602 12.532-20.304 12.532-8.585 0-15.662-4.293-20.303-12.648l9.745-6.38c2.438 5.22 6.033 8.004 10.558 8.004s8.123-2.784 10.559-8.004l9.745 6.496zm24.955 79.01c-3.482-1.043-6.034-4.175-6.034-8.352 0-5.222 4.06-8.818 8.817-8.818 5.453 0 8.818 4.409 8.818 9.513 0 10.21-4.873 18.333-13.69 23.437l-4.526-5.22c3.714-3.017 6.266-6.499 6.615-10.56zm-501.4 60.927c3.713-3.248 8.238-5.917 14.502-5.917 16.708 0 25.061 13.111 25.061 30.746s-9.05 30.747-26.685 30.747c-3.944 0-7.657-.813-11.02-1.856v23.9l-16.708 2.32v-84.696h12.066l2.32 4.756h.464zm22.625 24.83c0-9.397-4.293-16.012-11.603-16.012-3.132 0-6.497 1.392-9.165 4.293v25.524c2.9 1.508 6.033 2.206 9.629 2.206 6.381 0 11.139-5.917 11.139-16.012zm58.83 25.06c-3.132 2.785-7.656 5.104-13.69 5.104-11.253 0-19.49-5.917-19.49-17.983 0-11.252 8.817-17.867 21.928-17.867h10.093v-3.48c0-4.177-2.668-6.846-8.237-6.846-4.757 0-10.558 1.045-15.547 2.9l-5.105-13.805c7.31-2.67 14.619-3.83 22.044-3.83 18.099 0 23.553 9.515 23.553 21.813v20.188c0 2.901 1.624 4.175 4.176 4.175h1.276v12.3c-1.972 1.277-6.15 2.435-9.398 2.435-6.033 0-9.05-2.087-11.137-5.104h-.465zm-11.834-8.354c3.714 0 7.774-1.508 10.675-4.06v-6.032h-10.093c-3.946 0-6.497 2.203-6.497 5.336 0 3.016 2.436 4.756 5.915 4.756zm59.644 14.04c-6.846 0-16.011-1.393-21-3.598l5.336-13.574c4.525 1.392 10.326 2.437 15.316 2.437 6.497 0 9.398-2.322 9.398-5.338s-2.9-5.22-9.398-5.22h-8.122v-12.416h8.006c4.524 0 6.96-1.971 6.96-4.756 0-2.435-2.551-4.293-7.193-4.293-5.22 0-9.629.813-14.386 2.206l-5.337-13.574c5.454-2.206 15.198-3.367 20.768-3.367 15.663 0 23.088 6.151 23.088 16.127 0 6.847-4.06 11.487-10.093 12.764v.463c8.004 1.74 12.645 6.73 12.645 13.924 0 10.674-9.397 18.215-25.988 18.215zm37.365-15.896c5.568-9.744 6.033-19.26 6.033-38.519v-5.917h43.16v44.436h9.397l-2.321 29.47h-14.386v-14.735H703.2v14.735h-14.385l-2.321-29.47h7.89zm32.485 0V299.54h-11.253v.929c0 11.137-1.277 21.694-4.409 28.772h15.662zm48.16-8.586c1.856 6.267 7.193 9.747 13.923 9.747 4.525 0 9.977-1.624 13.806-3.598l6.033 13.342c-5.686 2.9-13.459 4.99-21 4.99-17.17 0-30.166-10.789-30.166-30.746 0-19.954 10.791-30.746 27.962-30.746 16.126 0 25.408 9.979 25.408 24.366 0 4.293-.348 8.702-1.275 12.645h-34.692zm20.767-12.877c0-5.685-3.48-9.399-9.977-9.399-5.8 0-10.094 3.248-11.138 9.4h21.115zm76.932-22.973v59.171H856.02V299.54h-11.486c-.58 28.89-6.613 45.015-19.259 45.015-3.944 0-7.425-.81-9.63-2.087l3.596-13.922c.93.58 2.09.811 2.9.811 3.946 0 6.847-5.801 6.847-32.255v-12.297h43.739zm39.57 39.68l-10.673 19.491h-18.447l13.342-22.16c-5.917-3.132-9.398-9.165-9.398-17.17 0-12.416 8.354-19.841 21.117-19.841h25.06v59.171h-16.707v-19.491h-4.293zm4.294-13.111V299.54h-6.497c-3.249 0-6.034 2.087-6.034 5.917s2.785 5.917 6.034 5.917h6.497zm32.957 32.602v-59.171h16.708v31.907l21.927-31.907h14.27v59.171h-16.706v-31.789l-21.928 31.789h-14.27zm46.757-78.315c-4.64 8.355-11.603 12.532-20.304 12.532-8.585 0-15.662-4.293-20.304-12.648l9.746-6.38c2.437 5.22 6.033 8.004 10.558 8.004 4.524 0 8.122-2.784 10.558-8.004l9.746 6.496zm-823.847-72.61c-31.321 0-56.708 25.274-56.708 56.44 0 31.171 25.387 56.434 56.708 56.434 31.317 0 56.711-25.263 56.711-56.434 0-31.166-25.394-56.44-56.71-56.44zm264.916 177.805c-27.26 51.403-113.085 29.228-126.894 81.554-10.08 38.212 26.502 96.07 90.095 114.644 61.111-44.289 69.682-124.202 36.799-196.198zm-336.87 193.075C86.496 630.976 65.591 663.266 0 686.692l19.851 52.287c86.037-30.73 118.955-75.04 137.077-163.004l16.489 2.127c-3.935 84.43.501 150.681 2.786 227.85l58.642-.926c-4.605-139.632-16.06-278.94 21.673-420.759 60.129-2.524 118.539-12.874 173.091-39.55l-25.856-51.192c-55.323 27.05-131.24 35.993-210.019 33.753-49.589-1.409-66.698 20.8-71.643 61.043l-21.586 175.61z" fill="#fff"/><path d="M1413.246 803.441l-129.71 1.844c-126.678 1.786-201.436-112.991-134.928-228.19l17.547-30.33-51.752-29.878 173.747-100.31v200.624l-51.746-29.878-17.546 30.458c-34.737 60.16-.787 107.357 63.722 106.442l129.708-1.839.958 81.057zm265.845-366.25l-173.748-100.309 51.752-29.878-17.553-30.33c-34.667-60.05-92.527-54.606-123.994 1.732l-63.26 113.248-70.888-39.42 63.26-113.247c62.075-111.132 198.747-117.99 265.132-2.998l17.553 30.453 51.746-29.874v200.623zm-213.588 326.596l173.742-100.314v59.624h35.386c67.114 0 94.537-50.965 60.426-108.171l-66.443-111.408 69.611-41.641 66.445 111.407c66.555 111.615.063 231.193-130.039 231.193h-35.385v59.625l-173.743-100.315z" fill="#93c01f"/><path d="M2359.793 226.578a226.845 226.845 0 0130.554-113.438v-.16a227.005 227.005 0 0183.21-83.05l40.364 70.25a145.85 145.85 0 00-53.325 53.486l-.07-.037a145.984 145.984 0 00-19.353 72.949h-81.38zm40.69 162.756c-54.899-47.085-135.625-81.375-214.89-18.833 108.192 97.232 123.421 254.89 68.591 388.176a336.188 336.188 0 00146.298 37.539 336.178 336.178 0 00146.298-37.539c-54.823-133.286-39.594-290.944 68.594-388.176-79.266-62.542-159.992-28.252-214.892 18.833zm0 488.262c-103.6 0-172.531-32.729-251.28-91.566 77.675-159.938 81.476-287.526-74.225-396.696 56.774-146.358 231.017-164.86 325.505-97.95 94.488-66.91 268.737-48.408 325.506 97.95-155.702 109.17-151.9 236.758-74.225 396.696-78.75 58.837-147.681 91.566-251.281 91.566z" fill="#ffd400"/><path d="M3078.617 0h189.887v81.38h-189.887V0zm237.79 517.492l-109.049 29.065-20.661-78.51 109.315-29.14-.311-99.798c.007-67.51-54.715-122.244-122.224-122.25-67.51-.008-122.244 54.714-122.25 122.223l.074 207.48 147.266 254.751c19.417 36.194 65.364 24.744 77.59-10.922 40.541 25.302 85.979 1.233 83.4-48.15 36.996 7.246 71.887-27.974 50.253-62.887l-93.404-161.862zm60.409-58.14l104.483 181.39c42.316 73.467 15.756 133.633-54.367 158.121-15.93 58.89-76.457 93.835-135.422 78.186-56.271 48.488-119.723 40.318-162.125-33.132l-159.268-275.843.085-228.971c.05-112.259 91.096-203.22 203.355-203.17 112.178.052 203.107 90.971 203.17 203.15l.088 120.268z" fill-rule="evenodd" clip-rule="evenodd" fill="#05baee"/><path d="M5210.22 256.813l-7.852-46.787-78.791 5.613-114.788-40.547-109.585 63.266 162.42 270.825-69.612 41.641-100.75-167.997-76.815 128.598 50.626 110.797 95.93 9.366 86.351 109.798h88.927V521.983l237.269-36.757.659-112.397-112.503-52.953-117.48 124.65-57.741-57.015 123.735-130.698zm-366.302 47.08l-56.654-94.468 215.927-124.659 133.579 48.467 133.455-9.515 20.126 119.901 165.174 77.75-1.318 243.648-238.156 257.744H5007.96l-89.534-113.842-107.687-10.514-87.75-192.05 120.93-202.462zm497.542 267.96l-124.515 20.082.712 114.384 123.803-134.466z" fill="#68a"/><path d="M4071.637 336.608h81.38v184.274h-81.38V336.608zm0 222.254h81.38v81.38h-81.38v-81.38zm393.051 3.188l-214.375-371.005c-21.045-36.554-72.673-59.201-134.64-59.201-64.444 0-119.786 24.467-140.975 62.478l-215.687 371.952c-21.99 38.01-16.31 96.92 14.346 150.077 31.02 53.74 78.789 87.09 124.591 87.09l431.736-.874c45.947 0 91.458-31.749 121.605-84.905 31.02-54.54 36.409-117.018 13.399-155.612zm-135.004 160.2l-431.299 1.237c-45.73.656-89.128-84.177-70.051-117.09l216.342-373.336c20.971-37.574 114.323-40.123 136.387-1.894l215.03 372.098c18.787 31.457-18.786 118.984-66.41 118.984z" fill="#ff6400"/></svg>