<svg xmlns="http://www.w3.org/2000/svg" viewBox="0 0 124.63 124.63"><path d="M56.731 46.617h11.176v25.306H56.732V46.617zm0 30.522h11.176v11.176H56.732V77.139zm53.978.438l-29.44-50.95c-2.89-5.02-9.98-8.13-18.49-8.13-8.85 0-16.45 3.36-19.36 8.58l-29.62 51.08c-3.02 5.22-2.24 13.31 1.97 20.61 4.26 7.38 10.82 11.96 17.11 11.96l59.29-.12c6.31 0 12.56-4.36 16.7-11.66 4.26-7.49 5-16.07 1.84-21.37zm-18.54 22l-59.23.17c-6.28.09-12.24-11.56-9.62-16.08l29.71-51.27c2.88-5.16 15.7-5.51 18.73-.26l29.53 51.1c2.58 4.32-2.58 16.34-9.12 16.34z" fill="#ff6400"/></svg>