<svg version="1.1" id="Layer_1" xmlns="http://www.w3.org/2000/svg" xmlns:xlink="http://www.w3.org/1999/xlink" x="0" y="0" viewBox="0 0 5394.9 2040.2" xml:space="preserve"><style>.st1,.st4{fill:#fff}.st4{clip-path:url(#SVGID_6_)}.st6{clip-path:url(#SVGID_10_)}.st12,.st6,.st8{fill:#fff}.st8{clip-path:url(#SVGID_14_)}.st12{clip-path:url(#SVGID_20_)}.st14,.st16{clip-path:url(#SVGID_24_);fill:#fff}.st16{clip-path:url(#SVGID_28_)}.st21{clip-path:url(#SVGID_34_)}.st23{clip-path:url(#SVGID_38_)}.st25{clip-path:url(#SVGID_42_)}</style><path d="M1614.5 1903.3H196.7C54.8 1903.3 0 1848.6 0 1706.6v-1373c0-141.9 54.8-196.7 196.7-196.7h1417.8c141.9 0 196.7 54.8 196.7 196.7v1373.1c0 141.9-54.8 196.6-196.7 196.6z" fill="#93c01f"/><path class="st1" d="M772 449.1v-168h126v168h-35.5V313.7h-55v135.4H772zm190.8-48.3c3.8 13 14.9 20.2 28.8 20.2 9.4 0 20.6-3.4 28.6-7.4l12.5 27.6c-11.8 6-27.8 10.3-43.4 10.3-35.5 0-62.4-22.3-62.4-63.6s22.3-63.6 57.8-63.6c33.4 0 52.6 20.6 52.6 50.4 0 8.9-.7 18-2.6 26.2h-71.9v-.1zm43-26.6c0-11.8-7.2-19.4-20.6-19.4-12 0-20.9 6.7-23 19.4h43.6zm88.5-37.7c7.7-6.7 17-12.2 30-12.2 34.6 0 51.8 27.1 51.8 63.6s-18.7 63.6-55.2 63.6c-8.2 0-15.8-1.7-22.8-3.8v49.4l-34.6 4.8V326.7h25l4.8 9.8h1zm46.8 51.4c0-19.4-8.9-33.1-24-33.1-6.5 0-13.4 2.9-19 8.9v52.8c6 3.1 12.5 4.6 19.9 4.6 13.3-.1 23.1-12.4 23.1-33.2zm90.3 12.9c3.8 13 14.9 20.2 28.8 20.2 9.4 0 20.6-3.4 28.6-7.4l12.5 27.6c-11.8 6-27.8 10.3-43.4 10.3-35.5 0-62.4-22.3-62.4-63.6s22.3-63.6 57.8-63.6c33.4 0 52.6 20.6 52.6 50.4 0 8.9-.7 18-2.6 26.2h-71.9v-.1zm42.9-26.6c0-11.8-7.2-19.4-20.6-19.4-12 0-20.9 6.7-23 19.4h43.6zm53.1 21.6v-31.4h70.1l-4.8 31.4h-65.3zM802.5 576.5c7.7-6.7 17-12.2 30-12.2 34.6 0 51.8 27.1 51.8 63.6s-18.7 63.6-55.2 63.6c-8.2 0-15.8-1.7-22.8-3.8v49.4l-34.6 4.8V566.7h25l4.8 9.8h1zm46.8 51.4c0-19.4-8.9-33.1-24-33.1-6.5 0-13.4 2.9-19 8.9v52.8c6 3.1 12.5 4.6 19.9 4.6 13.3-.1 23.1-12.4 23.1-33.2zM971 679.7c-6.5 5.8-15.8 10.6-28.3 10.6-23.3 0-40.3-12.2-40.3-37.2 0-23.3 18.2-37 45.4-37h20.9v-7.2c0-8.6-5.5-14.2-17-14.2-9.8 0-21.8 2.2-32.2 6l-10.6-28.6c15.1-5.5 30.2-7.9 45.6-7.9 37.4 0 48.7 19.7 48.7 45.1v41.8c0 6 3.4 8.6 8.6 8.6h2.6v25.4c-4.1 2.6-12.7 5-19.4 5-12.5 0-18.7-4.3-23-10.6h-1v.2zm-24.5-17.3c7.7 0 16.1-3.1 22.1-8.4v-12.5h-20.9c-8.2 0-13.4 4.6-13.4 11 0 6.3 5 9.9 12.2 9.9zm116.9-79.2c9.8-8.6 20.9-13 35-13 29 0 50.6 19.9 50.6 60.7 0 39.8-26.2 60.5-60.2 60.5-39.6 0-58.8-29.5-58.8-78.5 0-77.3 22.3-91.4 61.9-95 18-1.7 28.1-3.8 40.6-8.9l10.8 28.6c-14.4 7.2-31.7 10.1-48.2 11.8-20.2 2.2-31.4 8.4-32.4 33.6l.7.2zm1.2 31.2c.2 31 9.1 46.6 24.2 46.6 13.4 0 25.2-9.8 25.2-30s-10.3-30.2-22.3-30.2c-9.8-.1-19.9 4.7-27.1 13.6zm104.9 13.5c0-41.3 23.3-63.6 58.8-63.6s58.8 22.3 58.8 63.6-23.3 63.6-58.8 63.6-58.8-22.4-58.8-63.6zm35 0c0 22.3 9.4 33.1 23.8 33.1s23.8-10.8 23.8-33.1-9.4-33.1-23.8-33.1-23.8 10.7-23.8 33.1zm93.4-61.2h108.5l-4.8 30.5h-32.9v91.9h-34.3v-91.9h-36.5v-30.5zm194.6 59l35.8 63.4-35.5 2.4-27.4-51.4h-6.5v49h-34.6V566.7h34.6v45.4h6.5l26.2-45.4h34.3l-33.4 59zm111.6 54c-6.5 5.8-15.8 10.6-28.3 10.6-23.3 0-40.3-12.2-40.3-37.2 0-23.3 18.2-37 45.4-37h20.9v-7.2c0-8.6-5.5-14.2-17-14.2-9.8 0-21.8 2.2-32.2 6l-10.6-28.6c15.1-5.5 30.2-7.9 45.6-7.9 37.4 0 48.7 19.7 48.7 45.1v41.8c0 6 3.4 8.6 8.6 8.6h2.6v25.4c-4.1 2.6-12.7 5-19.4 5-12.5 0-18.7-4.3-23-10.6h-1v.2zm-24.5-17.3c7.7 0 16.1-3.1 22.1-8.4v-12.5h-20.9c-8.2 0-13.4 4.6-13.4 11 0 6.3 5 9.9 12.2 9.9zM800.1 801.1c-3-1.5-5.8-2.2-8.8-2.2-6.6 0-10.7 6.2-10.7 15.7s4.1 15.7 10.6 15.7c3.3 0 6.5-.9 9.6-2.7l4.3 8.4c-4.4 2.5-9.2 3.8-14.5 3.8-15.1 0-20.9-10.6-20.9-25.2s5.8-25.2 20.9-25.2c4.9 0 9.2 1 13.7 3.2l-4.2 8.5zm34.8 38.7c-14.9 0-21-10.6-21-25.2s6.1-25.2 21-25.2 21 10.6 21 25.2-6.1 25.2-21 25.2zm0-40.9c-7.1 0-10.4 6.5-10.4 15.7s3.3 15.7 10.4 15.7c7.1 0 10.4-6.5 10.4-15.7s-3.3-15.7-10.4-15.7zm44.7 23.6V839h-10.4v-49h16.7c9.3 0 16.3 5.7 16.3 16.2s-7 16.2-16.3 16.2l-6.3.1zm5.8-9.5c3.4 0 6.1-2.5 6.1-6.7s-2.7-6.7-6.1-6.7h-5.9V813h5.9zm47.4-13.4v39.5h-10.4v-39.5h-13.9v-9.5h38.2l-1.4 9.5h-12.5zm53.2 8h-.2l-19.2 31.5h-9.5v-49h10.4v31.5h.2l19.2-31.5h9.5v49H986v-31.5zm36.1 14.9V839h-10.4v-49h16.7c9.3 0 16.3 5.7 16.3 16.2s-7 16.2-16.3 16.2l-6.3.1zm5.9-9.5c3.4 0 6.1-2.5 6.1-6.7s-2.7-6.7-6.1-6.7h-5.9V813h5.9zm42.6.3h.2l8.2-23.2h11.4l-14.5 38.5c-2.3 6.1-6 11.2-12.7 11.2-2.9 0-5.9-.6-8.4-2.5l4.7-8c.8.6 1.7.9 2.8.9 1.2 0 2.5-.7 3.6-3.4l1-2.7h-3.1l-14.1-34h11.6l9.3 23.2zm28.9 25.8v-49h29.1l-1.4 9.5h-18.1v9.4h16v9.5h-16v11.1h19.5v9.5h-29.1zm71.3-6.5h-9.6l-7.6-21.4h-.2l-2.6 27.9h-10.4l4.6-49h10.7l10.2 28.8h.2l10.2-28.8h10.7l4.6 49h-10.4l-2.6-27.9h-.2l-7.6 21.4zm48.5-23.8c10.2 0 16.9 5.1 16.9 15.1s-6.7 15.1-16.9 15.1h-14.4v-49h10.4v18.8h4zm-4.1 9.4v11.3h3.6c4.7 0 6.7-2.6 6.7-5.7 0-3.3-2-5.7-6.8-5.7h-3.5v.1zm35.1-28.1v49H1240v-49h10.3zm15.4 49v-49h29.1l-1.4 9.5h-18.1v9.4h16v9.5h-16v11.1h19.5v9.5h-29.1zm84.5.7c-14.9 0-21-10.6-21-25.2s6.1-25.2 21-25.2 21 10.6 21 25.2-6.1 25.2-21 25.2zm0-40.9c-7.1 0-10.4 6.5-10.4 15.7s3.3 15.7 10.4 15.7 10.4-6.5 10.4-15.7-3.4-15.7-10.4-15.7zm51.5.7v39.5h-10.4v-39.5h-13.9v-9.5h38.2l-1.4 9.5h-12.5zm30.2 39.5h-11.8l14.4-25.4-13-23.6h11.8l7.5 15.9h.2l7.6-15.9h11.8l-13 23.6 14.4 25.4-11.4.7-9.3-18.1h-.2l-9 17.4zm56.4.7c-14.9 0-21-10.6-21-25.2s6.1-25.2 21-25.2 21 10.6 21 25.2-6 25.2-21 25.2zm0-40.9c-7.1 0-10.4 6.5-10.4 15.7s3.3 15.7 10.4 15.7 10.4-6.5 10.4-15.7-3.3-15.7-10.4-15.7zm36.7 50.5h-9l-1.4-19.8h5.3c5.3-7.1 6.9-17.9 6.9-34v-5.5h31.4v39.5h6.3l-1.4 19.8h-9v-10.3H1525v10.3zm22.7-19.9v-30h-11v1.5c0 12.2-2 21.5-5.7 28.4l16.7.1zm41.9-20.7c10.2 0 16.9 5.1 16.9 15.1s-6.7 15.1-16.9 15.1h-14.4v-49h10.4v18.8h4zm-4 9.4v11.3h3.6c4.7 0 6.7-2.6 6.7-5.7 0-3.3-2-5.7-6.8-5.7h-3.5v.1zm35.1-28.1v49h-10.4v-49h10.4zm-835.5 222.2h-3.5v16.7h-9.9v-40.8h9.9v15.5h3.6l9.4-15.5h10.1l-11.9 19.7 12.7 21.1-10.2.8-10.2-17.5zm46.5-10c0-3.9-2-6.3-6.9-6.3-3.4 0-7.1.8-10.9 2.2l-3-8c4.9-1.8 9.6-2.7 14.8-2.7 12.5 0 15.8 6.6 15.8 15v15.5c0 2 1.1 2.9 2.9 2.9h.9v7.8c-1.2.5-3.7.8-5.7.8-3.6 0-5.9-1.4-7.2-3.9h-.3c-2.9 2.9-6.1 3.9-10.7 3.9-7.8 0-12.6-3.8-12.6-12.2 0-7.8 6.2-12.2 15.3-12.2h7.6v-2.8zm0 15v-4.6h-7.3c-3.7 0-5.8 1.8-5.8 4.5s2 4.2 4.4 4.2c3.4-.1 6.6-1.6 8.7-4.1zm31.1-25.5c2.6-2.6 6.3-4.3 10.6-4.3 11.5 0 16.7 8.9 16.7 21.2s-5.3 21.2-17.4 21.2c-3.4 0-6.7-.6-9.4-1.4v16.6l-9.9 1.6v-58.4h7.5l1.6 3.5h.3zm17.2 16.9c0-7.4-3-12.6-9-12.6-2.7 0-5.4 1.5-7.7 4v19.1c2.2 1.4 5 2.2 8 2.2 5.4-.1 8.7-4.7 8.7-12.7zm14.5-20.4h35.4l-1.6 8.6h-11.4v32.2h-9.8v-32.2h-12.6v-8.6zm38.6 20.4c0-13.3 7.8-21.2 19.2-21.2s19.2 7.9 19.2 21.2-7.8 21.2-19.2 21.2-19.2-8-19.2-21.2zm10.1 0c0 7.9 3.8 12.6 9.1 12.6s9.1-4.7 9.1-12.6-3.8-12.6-9.1-12.6c-5.3-.1-9.1 4.6-9.1 12.6zm71.4 20.4h-9.9v-16.7H991v16.7h-9.9v-40.8h9.9v15.5h13.7v-15.5h9.9v40.8zm30.9-30.9c3.1 0 5.7 2.6 5.7 5.7s-2.6 5.7-5.7 5.7-5.7-2.6-5.7-5.7 2.6-5.7 5.7-5.7zm38-2.8c3.3-3.4 7.2-5.9 12.5-5.9 10 0 17.3 6.6 17.3 20.2 0 13.3-8.3 20.2-19.7 20.2-13.2 0-19.2-9.8-19.2-26.2 0-25 7.2-30.5 20.4-31.7 6-.6 9.2-1.3 13.4-3l3.2 7.7c-4.6 2.3-10.2 3.6-15.6 4-8.4.6-12.5 4.4-12.5 14.6h.2v.1zm.8 8.5c.1 11.7 3.2 17.4 9.3 17.4 5.4 0 9.6-3.8 9.6-11.6s-3.8-11.7-8.6-11.7c-3.5 0-7.6 1.8-10.3 5.9zm60.8-15.6h10.6l-15.7 48.6c-2.6 8-7.8 9.8-12.2 9.8-2.9 0-5.7-.9-7.4-1.6l2.7-8c1.1.5 2.9 1 4.2 1 1.3 0 3.1-.6 4-3.6l1.6-5.4h-2.8l-13.7-40.8h10.7l9 28.6h.3l8.7-28.6zm49.5 16.5h-.3l-7.1 17.6h-8.6l-7.2-17.6h-.3l-1.9 24.2h-9.8l3.9-40.8h10.5l9 21.8h.3l9-21.8h10.5l3.9 40.8h-9.8l-2.1-24.2zm41.5-2.5c0-3.9-2-6.3-6.9-6.3-3.4 0-7.1.8-10.9 2.2l-3-8c4.9-1.8 9.6-2.7 14.8-2.7 12.5 0 15.8 6.6 15.8 15v15.5c0 2 1.1 2.9 2.9 2.9h.9v7.8c-1.2.5-3.7.8-5.7.8-3.6 0-5.9-1.4-7.2-3.9h-.3c-2.9 2.9-6.1 3.9-10.7 3.9-7.8 0-12.6-3.8-12.6-12.2 0-7.8 6.2-12.2 15.3-12.2h7.6v-2.8zm0 15v-4.6h-7.3c-3.7 0-5.8 1.8-5.8 4.5s2 4.2 4.4 4.2c3.4-.1 6.6-1.6 8.7-4.1zm47.9-29l-1.6 8.6h-14.7v32.2h-9.9v-40.8h26.2zm26.1 14c0-3.9-2-6.3-6.9-6.3-3.4 0-7.1.8-10.9 2.2l-3-8c4.9-1.8 9.6-2.7 14.8-2.7 12.5 0 15.8 6.6 15.8 15v15.5c0 2 1.1 2.9 2.9 2.9h.9v7.8c-1.2.5-3.7.8-5.7.8-3.6 0-5.9-1.4-7.2-3.9h-.3c-2.9 2.9-6.1 3.9-10.7 3.9-7.8 0-12.6-3.8-12.6-12.2 0-7.8 6.2-12.2 15.3-12.2h7.6v-2.8zm0 15v-4.6h-7.3c-3.7 0-5.8 1.8-5.8 4.5s2 4.2 4.4 4.2c3.4-.1 6.6-1.6 8.7-4.1zm40.6-19.1c3.1 0 5.7 2.6 5.7 5.7s-2.6 5.7-5.7 5.7-5.7-2.6-5.7-5.7 2.6-5.7 5.7-5.7zm60.4 29.3c-3.4 1.5-7.4 2.3-11.6 2.3-13.2 0-20.3-9.4-20.3-21.2s6.7-21.2 19.9-21.2c3.8 0 8.2.8 11.6 2.2l-3.2 7.8c-2.5-1-5.3-1.5-7.9-1.5-5.9 0-10.3 5.1-10.3 12.6s4.3 12.6 10.2 12.6c2.6 0 5.9-.6 8.4-1.6l3.2 8zm3.2-39.2h35.4l-1.6 8.6h-11.4v32.2h-9.8v-32.2h-12.6v-8.6zm69.4 30.4l3.4 7.8c-3.9 2-8.9 3.4-14.1 3.4-12 0-20.2-7.8-20.2-21.2s7.2-21.2 18.7-21.2c10.6 0 17.3 6.6 17.3 18.1 0 1.1-.2 3.9-.5 6.2h-25.4c1 6.2 5.4 9.6 10.6 9.6 3.4-.1 7.4-1.3 10.2-2.7zm-3.9-14.6c0-4.6-2.9-8.1-8.1-8.1-4.2 0-7.7 2.8-8.6 8.1h16.7zm32.1 8.2h-3.5v16.7h-9.9v-40.8h9.9v15.5h3.6l9.4-15.5h10.1l-11.9 19.7 12.7 21.1-10.2.8-10.2-17.5zm42.3-15c0 21.3-4.8 32.2-13.9 32.2-2.2 0-4.2-.5-5.6-1.4l2.5-7.9c.6.3 1.2.5 2 .5 3.1 0 5.5-5.3 5.5-27.1v-5.2h28.6v40.8h-9.9V997h-9.1l-.1.3zm28.6 11.4c0-13.3 7.8-21.2 19.2-21.2 11.4 0 19.2 7.9 19.2 21.2s-7.8 21.2-19.2 21.2c-11.3 0-19.2-8-19.2-21.2zm10.1 0c0 7.9 3.8 12.6 9.1 12.6s9.1-4.7 9.1-12.6-3.8-12.6-9.1-12.6c-5.3-.1-9.1 4.6-9.1 12.6zm-788.1 86.1h-.3l-7.1 17.6h-8.6l-7.2-17.6h-.3l-1.9 24.2h-9.8l3.9-40.8H784l9 21.8h.3l9-21.8h10.5l3.9 40.8h-9.8l-2.1-24.2zm49.9 13.9l3.4 7.8c-3.9 2-8.9 3.4-14.1 3.4-12 0-20.2-7.8-20.2-21.2s7.2-21.2 18.7-21.2c10.6 0 17.3 6.6 17.3 18.1 0 1.1-.2 3.9-.5 6.2h-25.4c1 6.2 5.4 9.6 10.6 9.6 3.4-.1 7.4-1.3 10.2-2.7zm-3.9-14.6c0-4.6-2.9-8.1-8.1-8.1-4.2 0-7.7 2.8-8.6 8.1h16.7zm13.8-15.8H900l-1.6 8.6H887v32.2h-9.8v-32.2h-12.6v-8.6zm61.4 14c0-3.9-2-6.3-6.9-6.3-3.4 0-7.1.8-10.9 2.2l-3-8c4.9-1.8 9.6-2.7 14.8-2.7 12.5 0 15.8 6.6 15.8 15v15.5c0 2 1.1 2.9 2.9 2.9h.9v7.8c-1.2.5-3.7.8-5.7.8-3.6 0-5.9-1.4-7.2-3.9h-.3c-2.9 2.9-6.1 3.9-10.7 3.9-7.8 0-12.6-3.8-12.6-12.2 0-7.8 6.2-12.2 15.3-12.2h7.6v-2.8zm0 15v-4.6h-7.3c-3.7 0-5.8 1.8-5.8 4.5s2 4.2 4.4 4.2c3.4-.1 6.6-1.6 8.7-4.1zm36-20c0 21.3-4.8 32.2-13.9 32.2-2.2 0-4.2-.5-5.6-1.4l2.5-7.9c.6.3 1.2.5 2 .5 3.1 0 5.5-5.3 5.5-27.1v-5.2h28.6v40.8h-9.9V1087H962v.3zm45.4 0c0 21.3-4.8 32.2-13.9 32.2-2.2 0-4.2-.5-5.6-1.4l2.5-7.9c.6.3 1.2.5 2 .5 3.1 0 5.5-5.3 5.5-27.1v-5.2h28.6v40.8h-9.9V1087h-9.1l-.1.3zm49.9.9c3.1 0 5.7 2.6 5.7 5.7s-2.6 5.7-5.7 5.7-5.7-2.6-5.7-5.7 2.6-5.7 5.7-5.7zm63.8 30.9h-9.9v-32.2h-13v32.2h-9.9v-40.8h32.9l-.1 40.8zm26.3-31.8c0 21.3-4.8 32.2-13.9 32.2-2.2 0-4.2-.5-5.6-1.4l2.5-7.9c.6.3 1.2.5 2 .5 3.1 0 5.5-5.3 5.5-27.1v-5.2h28.6v40.8h-9.9V1087h-9.1l-.1.3zm51.1 5c0-3.9-2-6.3-6.9-6.3-3.4 0-7.1.8-10.9 2.2l-3-8c4.9-1.8 9.6-2.7 14.8-2.7 12.5 0 15.8 6.6 15.8 15v15.5c0 2 1.1 2.9 2.9 2.9h.9v7.8c-1.2.5-3.7.8-5.7.8-3.6 0-5.9-1.4-7.2-3.9h-.3c-2.9 2.9-6.1 3.9-10.7 3.9-7.8 0-12.6-3.8-12.6-12.2 0-7.8 6.2-12.2 15.3-12.2h7.6v-2.8zm0 15v-4.6h-7.3c-3.7 0-5.8 1.8-5.8 4.5s2 4.2 4.4 4.2c3.3-.1 6.6-1.6 8.7-4.1zm51.2 10.2c-3.4 1.5-7.4 2.3-11.6 2.3-13.2 0-20.3-9.4-20.3-21.2 0-11.8 6.7-21.2 19.9-21.2 3.8 0 8.2.8 11.6 2.2l-3.2 7.8c-2.5-1-5.3-1.5-7.9-1.5-5.9 0-10.3 5.1-10.3 12.6s4.3 12.6 10.2 12.6c2.6 0 5.9-.6 8.4-1.6l3.2 8zm3.2-39.2h35.4l-1.6 8.6h-11.4v32.2h-9.8v-32.2h-12.6v-8.6zm67.9 16.3h-.2l-16.5 24.5h-9v-40.8h9.9v24.5h.2l16.5-24.5h9v40.8h-9.9v-24.5zm35.4 7.7h-3.5v16.7h-9.9v-40.8h9.9v15.5h3.6l9.4-15.5h10.1l-11.9 19.7 12.7 21.1-10.2.8-10.2-17.5zm-551.5 106.8h-9.9v-32.2h-13v32.2h-9.9v-40.8h32.9l-.1 40.8zm9.6-20.4c0-13.3 7.8-21.2 19.2-21.2s19.2 7.9 19.2 21.2-7.8 21.2-19.2 21.2-19.2-8-19.2-21.2zm10.1 0c0 7.9 3.8 12.6 9.1 12.6s9.1-4.7 9.1-12.6-3.8-12.6-9.1-12.6-9.1 4.6-9.1 12.6zm51.4-11.4c0 21.3-4.8 32.2-13.9 32.2-2.2 0-4.2-.5-5.6-1.4l2.5-7.9c.6.3 1.2.5 2 .5 3.1 0 5.5-5.3 5.5-27.1v-5.2h28.6v40.8H885V1177h-9.1l-.1.3zm56.8 7.3h-.2l-16.5 24.5h-9v-40.8h9.9v24.5h.2l16.5-24.5h9v40.8h-9.9v-24.5zm21.9 15.1c2.5 1 5.8 1.6 8.4 1.6 5 0 8.8-3.6 9.9-9.2h-15v-7.6h14.8c-1.4-5.2-5-8.5-9.8-8.5-2.6 0-5.4.5-7.9 1.5l-3.2-7.8c3.4-1.4 7.8-2.2 11.6-2.2 13.2 0 19.9 9.4 19.9 21.2 0 11.8-7.1 21.2-20.3 21.2-4.2 0-8.2-.8-11.6-2.3l3.2-7.9zm33.1-31.4h35.4l-1.6 8.6H1010v32.2h-9.8v-32.2h-12.6v-8.6zm68 16.3h-.2l-16.5 24.5h-9v-40.8h9.9v24.5h.2l16.5-24.5h9v40.8h-9.9v-24.5zm36.2-7.3c0 21.3-4.8 32.2-13.9 32.2-2.2 0-4.2-.5-5.6-1.4l2.5-7.9c.6.3 1.2.5 2 .5 3.1 0 5.5-5.3 5.5-27.1v-5.2h28.6v40.8h-9.9V1177h-9.1l-.1.3zm59.5 21.4l3.4 7.8c-3.9 2-8.9 3.4-14.1 3.4-12 0-20.2-7.8-20.2-21.2 0-13.4 7.2-21.2 18.7-21.2 10.6 0 17.3 6.6 17.3 18.1 0 1.1-.2 3.9-.5 6.2h-25.4c1 6.2 5.4 9.6 10.6 9.6 3.4-.1 7.4-1.3 10.2-2.7zm-3.9-14.6c0-4.6-2.9-8.1-8.1-8.1-4.2 0-7.7 2.8-8.6 8.1h16.7zm52.2 25h-9.9v-16.7H1176v16.7h-9.9v-40.8h9.9v15.5h13.7v-15.5h9.9v40.8zm-913.3 318.3c-5.9 0-12.1-.6-18.7-1.7l.7-4.2c29.4 5.2 52.1-1.9 69.2-21.7l3.2 2.8c-14.2 16.6-32.2 24.8-54.4 24.8z"/><defs><path id="SVGID_1_" d="M1044 1709.9c0 29.8-11.4 41.2-41.2 41.2H813.5c-29.8 0-41.2-11.4-41.2-41.2v-189.3c0-29.8 11.4-41.2 41.2-41.2h189.3c29.8 0 41.2 11.4 41.2 41.2"/></defs><clipPath id="SVGID_2_"><use xlink:href="#SVGID_1_" overflow="visible"/></clipPath><path d="M894.1 1488.7v-9.4h28.1v18.7h-9.4v-9.4h-18.7v.1zm56.2 0v-9.4h-18.7v9.4h18.7zm-65.6 9.4h9.4v-9.4h-9.4v-9.4h-28.1v9.4h18.7v9.4h-18.7v9.4h9.4v18.7h-9.4v9.4h9.4v9.4h9.4v-28.1h9.4v-18.8h-.1zm46.9 9.4v-9.4h-9.4v9.4h9.4zm-75 0h-9.4v18.7h9.4v-18.7zm65.6 0h-9.4v-9.4h-9.4v18.7h-18.7v9.4h9.4v9.4h9.4v9.4h9.4v-18.7h9.4v-18.8h-.1zm18.7 9.3v-9.4h-9.4v9.4h9.4zm28.1 9.4v-28.1h-9.4v18.7h-9.4v9.4H969zm-18.7 0h-28.1v18.7h9.4v-9.4h9.4v9.4h9.4v-18.7h-.1zm-103.1 9.4v9.4h9.4v-9.4h-9.4zm46.9 0h-9.4v28.1h9.4v-9.4h9.4v-9.4h-9.4v-9.3zm-37.5 28.1h9.4v9.4h9.4v-18.7H866v-9.4h-9.4v18.7zm-18.7 0v9.4h9.4v9.4h-9.4v9.4h18.7v-9.4h9.4v-9.4h-9.4v-9.4h-9.4v-9.4h-28.1v9.4h18.8zm-18.8 0h-9.4v9.4h9.4v-9.4zm84.3 9.4h9.4v-9.4h9.4v-9.4h-18.7v18.8h-.1zm131.2 0v-9.4h-18.7v9.4h18.7zm-196.7 0h-9.4v9.4h9.4v-9.4zm28.1 9.3v9.4h-9.4v28.1h9.4v-9.4h9.4v-18.7h9.4v-9.4h9.4v-9.4h-18.7v9.4H866zm149.9 9.4v-9.4h-9.4v-18.7h9.4v-9.4h-18.7v9.4h-9.4v9.4h9.4v9.4h-9.4v9.4h28.1v-.1zm18.7 9.4h-9.4v9.4h18.7v-18.7h-9.4v9.3h.1zm-206.1 9.3v9.4h9.4v9.4h-9.4v9.4h18.7v-37.5h-9.4v9.4h-9.3v-.1zm178 0v-9.4h-18.7v-9.4h-9.4v9.4H969v-9.4h9.4v-9.4H969v-18.7h-9.4v-9.4h9.4v-18.7h-9.4v9.4h-9.4v18.7h-9.4v-9.4h-9.4v18.7h9.4v9.4h9.4v-9.4h9.4v9.4h-9.4v18.7h-9.4v9.4H969v9.4h9.4v-9.4h9.4v9.4h9.4v9.4h9.4v-9.4h9.4v9.4h-9.4v9.4h9.4v9.4h18.7v9.4h9.4v-18.7h-18.7v-28.1h-18.9v-.1zm28.1 18.8h9.4v-9.4h-9.4v9.4zm-168.6 9.4h9.4v-18.8H866v18.8zm-9.4 9.3h9.4v-9.4h-9.4v9.4zm121.8-9.3v9.4h28.1v-9.4h-28.1zm-131.2 18.7h9.4v-9.4h-9.4v9.4zM969 1648h9.4v18.7h28.1v9.4h9.4v9.4h9.4v9.4h-18.7v9.4h9.4v9.4h9.4v9.4h9.4v9.4h-9.4v18.7h-9.4v-9.4h-9.4v9.4H969v-28.1h-9.4v-9.4h-9.4v-28.1h-9.4v9.4h-18.7v18.7h9.4v9.4h9.4v9.4h-9.4v9.4h-9.4v-9.4h-9.4v-37.6h-9.4v18.7h-28.1v9.4h18.7v9.4h-9.4v18.7H847v-18.7h19v-28.1h18.7v-9.4h9.4v-9.4h-9.4v-9.4h18.7v9.4h9.4v-18.7h9.4v-9.4h-9.4v9.4h-9.4v-9.4h-18.7v-9.4h28.1v-9.4h-9.4v-9.4H894v9.4h-9.4v-18.7h9.4v-9.4h-9.4v-9.4h9.4v-9.4h9.4v-9.4h28.1v18.7h-9.4v-9.4h-9.4v18.7h28.1v9.4h-28.1v9.4h9.4v9.4h9.4v-9.4h9.4v9.4h18.7v-9.4h-9.4v-9.4H969v28.3h-9.4v9.4h-9.4v-9.4h-18.7v18.7h9.4v-9.4h9.4v18.7h9.4v-18.7h9.4v-9.3h-.1zm-37.4 37.5v-9.4h-9.4v9.4h9.4zm56.2 56.2v-9.4h-9.4v9.4h9.4zm18.7-28.1h-28.1v9.4h28.1v-9.4zm-37.5-37.5v28.1h28.1v-28.1H969zm37.5-18.7h9.4v-9.4h-9.4v9.4zm-178 0h9.4v-9.4h-9.4v-9.4h-28.1v-18.7h18.7v-9.4h-9.4v-9.4h28.1v-9.4h-9.4v-9.4H819v9.4h-9.4V1573h-9.4v-9.4H791v-9.4h-18.7v18.7H791v9.4h9.4v28.1H791v-18.7h-18.7v37.5h9.4v-9.4h9.4v9.4h-9.4v9.4h9.4v9.4h-9.4v-9.4h-9.4v37.5h9.4v-18.7h9.4v9.4h9.4v-18.7h9.4v18.7h-9.4v9.4H838v-9.4h-9.4v-9.4h-.1zm9.4 9.4h9.4v-9.4h-9.4v9.4zm46.8-9.4h-9.4v18.7h9.4v-18.7zm159.3 18.7v-9.4h-28.1v9.4h28.1zm-56.2 9.4h-9.4v9.4h9.4v-9.4zm-131.2-9.4h-9.4v28.1h9.4v-28.1zm168.7 37.5h9.4v9.4h9.4v-18.7h-9.4v-9.4h-9.4v18.7zm18.7 28.1v-9.4h-9.4v9.4h9.4zm-131.2 9.4h9.4v-9.4h-9.4v9.4zm28.1 0v-9.4h-9.4v9.4h9.4zm9.4 0h9.4v-9.4h-9.4v9.4z" clip-path="url(#SVGID_2_)" fill="#fff"/><defs><path id="SVGID_3_" d="M1044 1709.9c0 29.8-11.4 41.2-41.2 41.2H813.5c-29.8 0-41.2-11.4-41.2-41.2v-189.3c0-29.8 11.4-41.2 41.2-41.2h189.3c29.8 0 41.2 11.4 41.2 41.2"/></defs><clipPath id="SVGID_4_"><use xlink:href="#SVGID_3_" overflow="visible"/></clipPath><path d="M819.1 1498.1v28.1H791v-8.4c0-14.2 5.5-19.7 19.7-19.7h8.4z" clip-path="url(#SVGID_4_)" fill="#fff"/><defs><path id="SVGID_5_" d="M1044 1709.9c0 29.8-11.4 41.2-41.2 41.2H813.5c-29.8 0-41.2-11.4-41.2-41.2v-189.3c0-29.8 11.4-41.2 41.2-41.2h189.3c29.8 0 41.2 11.4 41.2 41.2"/></defs><clipPath id="SVGID_6_"><use xlink:href="#SVGID_5_" overflow="visible"/></clipPath><path class="st4" d="M810.7 1498.1h8.4v28.1H791v-8.4c0-14.2 5.5-19.7 19.7-19.7z"/><path class="st4" d="M813.5 1479.4c-29.8 0-41.2 11.4-41.2 41.2v24.4h65.6v-65.6h-24.4zm15 56.2h-46.9V1519c0-21.9 8.4-30.3 30.3-30.3h16.6v46.9z"/><path class="st4" d="M819.1 1498.1v28.1H791v-8.4c0-14.2 5.5-19.7 19.7-19.7h8.4z"/><defs><path id="SVGID_7_" d="M1044 1709.9c0 29.8-11.4 41.2-41.2 41.2H813.5c-29.8 0-41.2-11.4-41.2-41.2v-189.3c0-29.8 11.4-41.2 41.2-41.2h189.3c29.8 0 41.2 11.4 41.2 41.2"/></defs><clipPath id="SVGID_8_"><use xlink:href="#SVGID_7_" overflow="visible"/></clipPath><path d="M819.1 1732.4v-28.1H791v8.4c0 14.2 5.5 19.7 19.7 19.7h8.4z" clip-path="url(#SVGID_8_)" fill="#fff"/><defs><path id="SVGID_9_" d="M1044 1709.9c0 29.8-11.4 41.2-41.2 41.2H813.5c-29.8 0-41.2-11.4-41.2-41.2v-189.3c0-29.8 11.4-41.2 41.2-41.2h189.3c29.8 0 41.2 11.4 41.2 41.2"/></defs><clipPath id="SVGID_10_"><use xlink:href="#SVGID_9_" overflow="visible"/></clipPath><path class="st6" d="M810.7 1732.4h8.4v-28.1H791v8.4c0 14.2 5.5 19.7 19.7 19.7z"/><path class="st6" d="M837.9 1751.1v-65.6h-65.6v24.4c0 29.8 11.4 41.2 41.2 41.2h24.4zm-9.4-9.4h-16.6c-21.9 0-30.3-8.4-30.3-30.3v-16.5h46.9v46.8z"/><path class="st6" d="M819.1 1732.4v-28.1H791v8.4c0 14.2 5.5 19.7 19.7 19.7h8.4z"/><defs><path id="SVGID_11_" d="M1044 1709.9c0 29.8-11.4 41.2-41.2 41.2H813.5c-29.8 0-41.2-11.4-41.2-41.2v-189.3c0-29.8 11.4-41.2 41.2-41.2h189.3c29.8 0 41.2 11.4 41.2 41.2"/></defs><clipPath id="SVGID_12_"><use xlink:href="#SVGID_11_" overflow="visible"/></clipPath><path d="M997.2 1498.1v28.1h28.1v-8.4c0-14.2-5.5-19.7-19.7-19.7h-8.4z" clip-path="url(#SVGID_12_)" fill="#fff"/><defs><path id="SVGID_13_" d="M1044 1709.9c0 29.8-11.4 41.2-41.2 41.2H813.5c-29.8 0-41.2-11.4-41.2-41.2v-189.3c0-29.8 11.4-41.2 41.2-41.2h189.3c29.8 0 41.2 11.4 41.2 41.2"/></defs><clipPath id="SVGID_14_"><use xlink:href="#SVGID_13_" overflow="visible"/></clipPath><path class="st8" d="M1005.6 1498.1h-8.4v28.1h28.1v-8.4c0-14.2-5.5-19.7-19.7-19.7z"/><path class="st8" d="M978.4 1479.4v65.6h65.6v-24.4c0-29.8-11.4-41.2-41.2-41.2h-24.4zm9.4 9.3h16.6c21.8 0 30.3 8.4 30.3 30.3v16.6h-46.9v-46.9z"/><path class="st8" d="M997.2 1498.1v28.1h28.1v-8.4c0-14.2-5.5-19.7-19.7-19.7h-8.4z"/><path class="st1" d="M382.2 1486.9c-2.1-1-4-1.5-6-1.5-4.5 0-7.3 4.2-7.3 10.7s2.8 10.7 7.3 10.7c2.3 0 4.5-.6 6.6-1.8l3 5.8c-3 1.7-6.3 2.6-9.9 2.6-10.3 0-14.3-7.3-14.3-17.3s4-17.3 14.3-17.3c3.4 0 6.3.7 9.3 2.2l-3 5.9zm5.6 13.8c0-8.2 4.6-12.7 11.7-12.7s11.7 4.5 11.7 12.7-4.6 12.7-11.7 12.7-11.7-4.5-11.7-12.7zm7 0c0 4.5 1.9 6.6 4.7 6.6s4.7-2.2 4.7-6.6-1.9-6.6-4.7-6.6-4.7 2.1-4.7 6.6zm27.9-10.3c1.5-1.3 3.4-2.4 6-2.4 6.9 0 10.4 5.4 10.4 12.7s-3.7 12.7-11 12.7c-1.6 0-3.2-.3-4.6-.8v9.9l-6.9 1v-35h5l1 2 .1-.1zm9.4 10.3c0-3.9-1.8-6.6-4.8-6.6-1.3 0-2.7.6-3.8 1.8v10.5c1.2.6 2.5.9 4 .9 2.6 0 4.6-2.5 4.6-6.6zm9.1-12.3h21.7l-1 6.1h-6.6v18.4h-6.9v-18.4h-7.3l.1-6.1zm25.3 24.5v-24.4h6.9v13.2l9.1-13.2h5.9v24.4h-6.9v-13.1l-9.1 13.1h-5.9zm34.7-22.5c1.5-1.3 3.4-2.4 6-2.4 6.9 0 10.4 5.4 10.4 12.7s-3.7 12.7-11 12.7c-1.6 0-3.2-.3-4.6-.8v9.9l-6.9 1v-35h5l1.1 1.9zm9.3 10.3c0-3.9-1.8-6.6-4.8-6.6-1.3 0-2.7.6-3.8 1.8v10.5c1.2.6 2.5.9 4 .9 2.7 0 4.6-2.5 4.6-6.6zm25.2-12.3h7.3l-9.2 29.1c-1.5 4.7-5.1 5.8-7.8 5.8-1.7 0-3.6-.6-4.7-1l2-5.7c.6.2 1.6.6 2.4.6.7 0 1.6-.3 1.9-1.4l.9-3h-2.3l-7.3-24.4h7.3l4.5 16.2h.1l4.9-16.2zm10.4 24.5v-24.4h6.9v13.2l9.1-13.2h5.9v24.4h-7v-13.1l-9 13.1h-5.9zm19.3-32.4c-1.9 3.5-4.8 5.2-8.4 5.2-3.5 0-6.5-1.8-8.4-5.2l4-2.6c1 2.2 2.5 3.3 4.4 3.3s3.4-1.2 4.4-3.3l4 2.6zm10.3 32.7c-1.4-.4-2.5-1.7-2.5-3.4 0-2.2 1.7-3.6 3.6-3.6 2.3 0 3.6 1.8 3.6 3.9 0 4.2-2 7.6-5.7 9.7l-1.9-2.2c1.7-1.3 2.7-2.7 2.9-4.4zm-207.1 25.1c1.5-1.3 3.4-2.4 6-2.4 6.9 0 10.4 5.4 10.4 12.7s-3.7 12.7-11 12.7c-1.6 0-3.2-.3-4.6-.8v9.9l-6.9 1v-35h5l1 2 .1-.1zm9.3 10.3c0-3.9-1.8-6.6-4.8-6.6-1.3 0-2.7.6-3.8 1.8v10.5c1.2.6 2.5.9 4 .9 2.6 0 4.6-2.4 4.6-6.6zm24.3 10.4c-1.3 1.2-3.2 2.1-5.7 2.1-4.6 0-8.1-2.4-8.1-7.4 0-4.6 3.6-7.4 9.1-7.4h4.2v-1.4c0-1.7-1.1-2.8-3.4-2.8-2 0-4.4.4-6.4 1.2l-2.1-5.7c3-1.1 6-1.6 9.1-1.6 7.5 0 9.7 3.9 9.7 9v8.3c0 1.2.7 1.7 1.7 1.7h.5v5.1c-.8.5-2.5 1-3.9 1-2.5 0-3.7-.9-4.6-2.1h-.1zm-4.9-3.5c1.5 0 3.2-.6 4.4-1.7v-2.5h-4.2c-1.6 0-2.7.9-2.7 2.2.1 1.3 1.1 2 2.5 2zm24.7 5.8c-2.8 0-6.6-.6-8.7-1.5l2.2-5.6c1.9.6 4.3 1 6.3 1 2.7 0 3.9-1 3.9-2.2s-1.2-2.2-3.9-2.2h-3.4v-5.1h3.3c1.9 0 2.9-.8 2.9-2 0-1-1.1-1.8-3-1.8-2.2 0-4 .3-5.9.9l-2.2-5.6c2.3-.9 6.3-1.4 8.6-1.4 6.5 0 9.5 2.5 9.5 6.7 0 2.8-1.7 4.7-4.2 5.3v.2c3.3.7 5.2 2.8 5.2 5.8.1 4.4-3.8 7.5-10.6 7.5zm15.4-6.6c2.3-4 2.5-8 2.5-15.9v-2.4h17.8v18.4h3.9l-1 12.2h-5.9v-6.1H441v6.1h-5.9l-1-12.2 3.3-.1zm13.4 0v-12.3h-4.6v.4c0 4.6-.5 9-1.8 11.9h6.4zm19.9-3.5c.8 2.6 3 4 5.8 4 1.9 0 4.1-.7 5.7-1.5l2.5 5.5c-2.3 1.2-5.6 2.1-8.7 2.1-7.1 0-12.5-4.5-12.5-12.7s4.5-12.7 11.6-12.7c6.7 0 10.5 4.1 10.5 10.1 0 1.8-.1 3.6-.5 5.2h-14.4zm8.6-5.3c0-2.3-1.4-3.9-4.1-3.9-2.4 0-4.2 1.3-4.6 3.9h8.7zm31.8-9.5v24.4h-6.9v-18.4h-4.7c-.2 11.9-2.7 18.6-8 18.6-1.6 0-3.1-.3-4-.9l1.5-5.8c.4.2.9.3 1.2.3 1.6 0 2.8-2.4 2.8-13.3v-5.1h18.1v.2zm16.3 16.4l-4.4 8.1h-7.6l5.5-9.2c-2.4-1.3-3.9-3.8-3.9-7.1 0-5.1 3.5-8.2 8.7-8.2h10.4v24.4h-6.9v-8.1l-1.8.1zm1.8-5.4v-4.9h-2.7c-1.3 0-2.5.9-2.5 2.4s1.2 2.4 2.5 2.4l2.7.1zm13.6 13.4v-24.4h6.9v13.2l9.1-13.2h5.9v24.4h-6.9v-13.1l-9.1 13.1h-5.9zm19.3-32.3c-1.9 3.5-4.8 5.2-8.4 5.2-3.5 0-6.5-1.8-8.4-5.2l4-2.6c1 2.2 2.5 3.3 4.4 3.3s3.4-1.2 4.4-3.3l4 2.6zm559.2-29.7h-2.6v14.1h-6.6v-33.5h6.6v12.9h2.7l7.5-12.9h7.8l-9.8 16.1 10.8 17.4-7.9.5-8.5-14.6zm31.8 12.3c-1.3 1.2-3.2 2.1-5.7 2.1-4.6 0-8.1-2.4-8.1-7.4 0-4.6 3.6-7.4 9.1-7.4h4.2v-1.4c0-1.7-1.1-2.8-3.4-2.8-2 0-4.4.4-6.4 1.2l-2.1-5.7c3-1.1 6-1.6 9.1-1.6 7.5 0 9.7 3.9 9.7 9v8.3c0 1.2.7 1.7 1.7 1.7h.5v5.1c-.8.5-2.5 1-3.9 1-2.5 0-3.7-.9-4.7-2.1zm-4.9-3.5c1.5 0 3.2-.6 4.4-1.7v-2.5h-4.2c-1.6 0-2.7.9-2.7 2.2 0 1.3 1 2 2.5 2zm31.5-7.3l7.1 12.7-7.1.5-5.5-10.3h-1.3v9.8h-6.9v-24.4h6.9v9.1h1.3l5.2-9.1h6.9l-6.6 11.7zm22.9 12.6v-24.4h6.9v13.2l9.1-13.2h5.9v24.4h-6.9v-13.1l-9.1 13.1h-5.9zm47.8.5c-2.8 0-6.6-.6-8.7-1.5l2.2-5.6c1.9.6 4.3 1 6.3 1 2.7 0 3.9-1 3.9-2.2s-1.2-2.2-3.9-2.2h-3.4v-5.1h3.3c1.9 0 2.9-.8 2.9-2 0-1-1.1-1.8-3-1.8-2.2 0-4 .3-5.9.9l-2.2-5.6c2.3-.9 6.3-1.4 8.6-1.4 6.5 0 9.5 2.5 9.5 6.7 0 2.8-1.7 4.7-4.2 5.3v.2c3.3.7 5.2 2.8 5.2 5.8.2 4.4-3.7 7.5-10.6 7.5zm27.8-2.3c-1.3 1.2-3.2 2.1-5.7 2.1-4.6 0-8.1-2.4-8.1-7.4 0-4.6 3.6-7.4 9.1-7.4h4.2v-1.4c0-1.7-1.1-2.8-3.4-2.8-2 0-4.4.4-6.4 1.2l-2.1-5.7c3-1.1 6-1.6 9.1-1.6 7.5 0 9.7 3.9 9.7 9v8.3c0 1.2.7 1.7 1.7 1.7h.5v5.1c-.8.5-2.5 1-3.9 1-2.5 0-3.7-.9-4.7-2.1zm-4.9-3.5c1.5 0 3.2-.6 4.4-1.7v-2.5h-4.2c-1.6 0-2.7.9-2.7 2.2.1 1.3 1.1 2 2.5 2zm29.4 5.3v-8.6c-1.3.3-3 .6-4.2.6-4.8 0-8.7-2.3-8.7-8.5v-7.9h6.9v7.9c0 1.6.9 2.4 2.5 2.4 1.2 0 2.3-.1 3.5-.5v-9.9h6.9v24.4l-6.9.1zm19.3-9.6c.8 2.6 3 4 5.8 4 1.9 0 4.1-.7 5.7-1.5l2.5 5.5c-2.3 1.2-5.6 2.1-8.7 2.1-7.1 0-12.5-4.5-12.5-12.7s4.5-12.7 11.6-12.7c6.7 0 10.5 4.1 10.5 10.1 0 1.8-.1 3.6-.5 5.2H1322zm8.6-5.3c0-2.3-1.4-3.9-4.1-3.9-2.4 0-4.2 1.3-4.6 3.9h8.7zm29.3-9.5h7.2l2.3 24.4h-6.9l-1.1-13.3h-.1l-3.5 9.3h-5.7l-3.5-9.3h-.1l-1.1 13.3h-6.9l2.3-24.4h7.3l4.7 12.5h.1l5-12.5zm-232.4 65.8l2.3 5.6c-2.1.9-4.9 1.5-7.6 1.5-7.1 0-12-4.5-12-12.7s4.9-12.7 12-12.7c2.3 0 5.3.4 7.4 1.3l-2.3 5.6c-1.5-.5-3-.8-4.6-.8-2.9 0-5.5 2.2-5.5 6.6s2.6 6.6 5.5 6.6c1.8 0 3.4-.5 4.8-1zm4.6-5.7c0-8.2 4.6-12.7 11.7-12.7s11.7 4.5 11.7 12.7-4.6 12.7-11.7 12.7c-7 0-11.7-4.4-11.7-12.7zm7 0c0 4.5 1.9 6.6 4.7 6.6 2.9 0 4.7-2.2 4.7-6.6s-1.9-6.6-4.7-6.6-4.7 2.2-4.7 6.6zm27.9-10.2c1.5-1.3 3.4-2.4 6-2.4 6.9 0 10.4 5.4 10.4 12.7s-3.7 12.7-11 12.7c-1.6 0-3.2-.3-4.6-.8v9.9l-6.9 1v-35h5l1.1 1.9zm9.4 10.2c0-3.9-1.8-6.6-4.8-6.6-1.3 0-2.7.6-3.8 1.8v10.5c1.2.6 2.5.9 4 .9 2.6.1 4.6-2.4 4.6-6.6zm9.1-12.2h21.7l-1 6.1h-6.6v18.4h-6.9v-18.4h-7.3v-6.1h.1zm25.3 24.5v-24.4h6.9v13.2l9.1-13.2h5.9v24.4h-6.9v-13.1l-9.1 13.1h-5.9zm34.7-22.5c1.5-1.3 3.4-2.4 6-2.4 6.9 0 10.4 5.4 10.4 12.7s-3.7 12.7-11 12.7c-1.6 0-3.2-.3-4.6-.8v9.9l-6.9 1v-35h5l1.1 1.9zm9.3 10.2c0-3.9-1.8-6.6-4.8-6.6-1.3 0-2.7.6-3.8 1.8v10.5c1.2.6 2.5.9 4 .9 2.7.1 4.6-2.4 4.6-6.6zm10.9 0c0-8.2 4.6-12.7 11.7-12.7s11.7 4.5 11.7 12.7-4.6 12.7-11.7 12.7-11.7-4.4-11.7-12.7zm7 0c0 4.5 1.9 6.6 4.7 6.6 2.9 0 4.7-2.2 4.7-6.6s-1.9-6.6-4.7-6.6c-2.9 0-4.7 2.2-4.7 6.6zm36.5-.5c3.3.7 5.2 2.8 5.2 5.8 0 4.4-2.8 7-8.3 7h-11.6v-24.4h10.8c5.2 0 8.1 2.3 8.1 6.2 0 2.8-1.7 4.7-4.2 5.4zm-4.6-5.7h-3.3v3.5h3.3c1 0 1.7-.7 1.7-1.7.1-1.1-.7-1.8-1.7-1.8zm-3.3 8.4v4h3.9c1.3 0 2.2-.9 2.2-2s-.8-2-2.2-2h-3.9zm30.4 8.2c-1.3 1.2-3.2 2.1-5.7 2.1-4.6 0-8.1-2.4-8.1-7.4 0-4.6 3.6-7.4 9.1-7.4h4.2v-1.4c0-1.7-1.1-2.8-3.4-2.8-2 0-4.4.4-6.4 1.2l-2.1-5.7c3-1.1 6-1.6 9.1-1.6 7.5 0 9.7 3.9 9.7 9v8.3c0 1.2.7 1.7 1.7 1.7h.5v5.1c-.8.5-2.5 1-3.9 1-2.5 0-3.7-.9-4.7-2.1zm-4.9-3.5c1.5 0 3.2-.6 4.4-1.7v-2.5h-4.2c-1.6 0-2.7.9-2.7 2.2 0 1.3 1 2 2.5 2zm15-19.1h21.7l-1 6.1h-6.6v18.4h-6.9v-18.4h-7.3v-6.1h.1zm36 8.7c5.3 0 8.7 2.8 8.7 7.9s-3.5 7.9-8.7 7.9h-10.7v-24.4h6.9v8.7l3.8-.1zm-3.8 5.4v4.3h3.4c1.3 0 2.2-1 2.2-2.2s-.9-2.2-2.2-2.2l-3.4.1zm47-14.1h7.2l2.3 24.4h-6.9l-1.1-13.3h-.1l-3.5 9.3h-5.7l-3.5-9.3h-.1l-1.1 13.3h-6.9l2.3-24.4h7.3l4.7 12.5h.1l5-12.5zm28 0h7.3l-9.2 29.1c-1.5 4.7-5.1 5.8-7.8 5.8-1.7 0-3.6-.6-4.7-1l2-5.7c.6.2 1.6.6 2.4.6.7 0 1.6-.3 1.9-1.4l.9-3h-2.3l-7.3-24.4h7.3l4.5 16.2h.1l4.9-16.2zm25.8 17.9l2.3 5.6c-2.1.9-4.9 1.5-7.6 1.5-7.1 0-12-4.5-12-12.7s4.9-12.7 12-12.7c2.3 0 5.3.4 7.4 1.3l-2.3 5.6c-1.5-.5-3-.8-4.6-.8-2.9 0-5.5 2.2-5.5 6.6s2.6 6.6 5.5 6.6c1.8 0 3.4-.5 4.8-1zm4.7-5.7c0-8.2 4.6-12.7 11.7-12.7s11.7 4.5 11.7 12.7-4.6 12.7-11.7 12.7-11.7-4.4-11.7-12.7zm7 0c0 4.5 1.9 6.6 4.7 6.6 2.9 0 4.7-2.2 4.7-6.6s-1.9-6.6-4.7-6.6c-2.9 0-4.7 2.2-4.7 6.6zm27.9-10.2c1.5-1.3 3.4-2.4 6-2.4 6.9 0 10.4 5.4 10.4 12.7s-3.7 12.7-11 12.7c-1.6 0-3.2-.3-4.6-.8v9.9l-6.9 1v-35h5l1.1 1.9zm9.3 10.2c0-3.9-1.8-6.6-4.8-6.6-1.3 0-2.7.6-3.8 1.8v10.5c1.2.6 2.5.9 4 .9 2.6.1 4.6-2.4 4.6-6.6zm-413.1 67c0-8.5 5-15.8 13.7-15.8 4.7 0 8 2.3 8 6.4 0 5-4.4 8.5-16.6 8.5 0 3.9 1.2 6.3 5.5 6.3 2.1 0 3.8-.6 5.8-1.6l1.4 3.7c-2.6 1.3-5.3 2-8.4 2-6.3.2-9.4-3.6-9.4-9.5zm5.7-5c9.2 0 11-1.9 11-4 0-1.7-1.5-2.6-3.5-2.6-3.6 0-6.4 2.9-7.5 6.6zm36.3-10.3h5.2l-9.9 12c1.1 4.8 3.7 8.8 6.9 12.4l-5.4.5c-2.6-3.3-4.5-6.8-5.6-11h-2.7l-1.9 10.5h-5l6.1-35 5.2-1-3.7 21.3h2.5l8.3-9.7zm27.6 1.4l-4.1 23.1h-3.3l-.5-2.6h-.2c-2 1.9-4.3 3.1-7.3 3.1-5.3 0-7.6-3.8-7.6-9.6 0-8.5 5.1-15.8 13.7-15.8 3.7 0 6.6.8 9.3 1.8zm-17.8 13.5c0 3.6 1.2 5.8 4 5.8 2.3 0 4.3-1.3 6-3.5l2.2-12.7c-1.3-.5-2.7-.9-4.4-.9-4.5.1-7.8 5.1-7.8 11.3zm27.2-20.9l5.1-1-1.2 6.9h7.4l-1.7 4.2h-6.4l-2.3 13.3c0 .3-.1.6-.1.9 0 1.8 1.2 2.4 2.8 2.4 1.2 0 2.2-.2 3.6-.7l.5 4c-1.9.6-3.6.9-5.4.9-3.8 0-6.5-1.5-6.5-5.6 0-.6 0-1.3.2-2.1l2.3-13h-4.2l.7-4.2h4.2l1-6zm11.7 21.3c0-8.5 5-15.8 13.7-15.8 4.7 0 8 2.3 8 6.4 0 5-4.4 8.5-16.6 8.5 0 3.9 1.2 6.3 5.5 6.3 2.1 0 3.8-.6 5.8-1.6l1.4 3.7c-2.6 1.3-5.3 2-8.4 2-6.3.2-9.4-3.6-9.4-9.5zm5.7-5c9.2 0 11-1.9 11-4 0-1.7-1.5-2.6-3.5-2.6-3.6 0-6.4 2.9-7.5 6.6zm33.8-5.6c-.6-.3-1.2-.5-2.4-.5-2.7 0-4.9 2.7-6 6l-2.5 14.3h-5l4.3-24.4h3.5l.3 3.8h.2c1.7-2.5 3.6-4.3 7-4.3 1.2 0 2.1.2 3 .5l-2.4 4.6zm2.2-.5l1.7-4.2h8.5l-4.3 24.4h-5l3.5-20.3-4.4.1zm8.9-14.3c1.7 0 3.1 1.3 3.1 3s-1.4 3-3.1 3-3-1.3-3-3c0-1.6 1.3-3 3-3zm8.8 34.6h-5l4.3-24.4h3.5l.5 2.6h.2c2.4-2.2 4.6-3.1 7.4-3.1 4.5 0 6.6 2.2 6.6 6.6 0 .9-.1 2.1-.3 3.2l-2.7 15.2h-5l2.6-14.9c.1-.8.2-1.6.2-2.2 0-2.5-1.1-3.7-3.4-3.7-1.9 0-4.4 1.6-6 3.4l-2.9 17.3zm30.6.5c-3.4 0-6.3-.6-9.7-1.9l5.9-33.5 5.2-1-2.5 14.1h.2c2.2-2.1 4.5-3.1 6.9-3.1 5.3 0 7.9 3.8 7.9 9.6-.1 8.4-5.2 15.8-13.9 15.8zm4.2-21.3c-2 0-4.5 1.6-6.1 3.4l-2.3 12.7c1.6.6 3.2.9 5 .9 4.6 0 7.9-5 7.9-11.3 0-3.7-1.6-5.7-4.5-5.7zm19.3 11.2c-.1.8-.2 1.6-.2 2.2 0 2.5 1.3 3.7 3.6 3.7 1.9 0 4.8-1.6 6.5-3.4l3-17.3h5l-4.3 24.4h-3.3l-.5-2.6h-.2c-2.4 2.2-5.4 3.1-8.1 3.1-4.5 0-6.9-2.2-6.9-6.6 0-.9.1-2.1.3-3.2l2.6-15.2h5l-2.5 14.9zm36.1-10.2c-.6-.3-1.2-.5-2.4-.5-2.7 0-4.9 2.7-6 6l-2.5 14.3h-5l4.3-24.4h3.5l.3 3.8h.2c1.7-2.5 3.6-4.3 7-4.3 1.2 0 2.1.2 3 .5l-2.4 4.6zm16.8 20.5l.6-3.1h-.2c-2.2 1.9-4.2 2.8-6.9 2.8-5.5 0-8-3.3-8-9.6 0-8.5 5.4-15.8 14-15.8 3.4 0 6.4.6 9.7 1.9l-4.3 24.1c-1.2 6.4-5.6 9.4-12.6 9.4-3.3 0-5.7-.7-8.3-2l2.2-4c2 1 4.1 1.9 6.7 1.9 3.9.1 6.4-1.5 7.1-5.6zm-9.4-10.3c0 3.9 1.5 5.8 4.6 5.8 1.9 0 4.3-1.3 6.1-3.4l2.3-12.8c-1.6-.6-3-.9-4.9-.9-4.6.1-8.1 5.1-8.1 11.3zm24.1 3.7c1.7 0 3.2 1.4 3.2 3.2 0 1.7-1.4 3.2-3.2 3.2s-3.2-1.4-3.2-3.2c.1-1.7 1.5-3.2 3.2-3.2zm22.2-19c2.1 0 3.8.4 5.2 1.1l2-11.1 5.2-1-6.3 35.9h-3.3l-.5-2.6h-.2c-2.2 1.9-4.6 3.1-7.8 3.1-5 0-8-3.3-8-9.6 0-8.6 5.1-15.8 13.7-15.8zm2.3 17.7l2.1-12c-1.3-1-3-1.6-5.1-1.6-4.6 0-7.9 4.9-7.9 11.2 0 3.9 1.8 5.8 4.9 5.8 2.3.1 4.2-1.2 6-3.4zm11.2-2c0-8.5 5-15.8 13.7-15.8 4.7 0 8 2.3 8 6.4 0 5-4.4 8.5-16.6 8.5 0 3.9 1.2 6.3 5.5 6.3 2.1 0 3.8-.6 5.8-1.6l1.4 3.7c-2.6 1.3-5.3 2-8.4 2-6.3.2-9.4-3.6-9.4-9.5zm5.7-5c9.2 0 11-1.9 11-4 0-1.7-1.5-2.6-3.5-2.6-3.6 0-6.4 2.9-7.5 6.6zm35 6.6c0 4.9-4.5 8.1-10.5 8.1-3 0-5.7-.7-7.8-1.7l2.3-3.8c1.7.9 3.7 1.4 6.1 1.4 2.2 0 4.9-1.1 4.9-3.5 0-2.1-2.2-2.8-4.5-3.7-2.4-.9-5.7-2.9-5.7-6.8 0-4.8 4.1-7.2 9.5-7.2 2.7 0 5.5.6 7.8 1.7l-2.3 3.7c-1.8-.7-3.7-1.2-5.8-1.2-2.3 0-4.2 1-4.2 2.9s2.2 2.8 3.8 3.5c3 1 6.4 2.9 6.4 6.6zm4.7-12.7l1.7-4.2h8.5l-4.3 24.4h-5l3.5-20.3-4.4.1zm8.9-14.3c1.7 0 3.1 1.3 3.1 3s-1.4 3-3.1 3-3-1.3-3-3c0-1.6 1.3-3 3-3zm19 35.3l.6-3.1h-.2c-2.2 1.9-4.2 2.8-6.9 2.8-5.5 0-8-3.3-8-9.6 0-8.5 5.4-15.8 14-15.8 3.4 0 6.4.6 9.7 1.9l-4.3 24.1c-1.2 6.4-5.6 9.4-12.6 9.4-3.3 0-5.7-.7-8.3-2l2.2-4c2 1 4.1 1.9 6.7 1.9 4 .1 6.4-1.5 7.1-5.6zm-9.4-10.3c0 3.9 1.5 5.8 4.6 5.8 1.9 0 4.3-1.3 6.1-3.4l2.3-12.8c-1.6-.6-3-.9-4.9-.9-4.6.1-8.1 5.1-8.1 11.3zm26 9.6h-5l4.3-24.4h3.5l.5 2.6h.2c2.4-2.2 4.6-3.1 7.4-3.1 4.5 0 6.6 2.2 6.6 6.6 0 .9-.1 2.1-.3 3.2l-2.7 15.2h-5l2.6-14.9c.1-.8.2-1.6.2-2.2 0-2.5-1.1-3.7-3.4-3.7-1.9 0-4.4 1.6-6 3.4l-2.9 17.3zm40.6-33.6h4.6l-25.5 41.1h-4.6l25.5-41.1zm37.3 9.1l-10.5 24.4h-6.3l-1-17.7h-.1l-6.7 17.7h-6.2l-2.8-24.4h4.5l2.2 19h.2l6.9-19h5.4l1.2 19h.2l8-19h5zm22.7 1.4l-4.1 23.1h-3.3l-.5-2.6h-.2c-2 1.9-4.3 3.1-7.3 3.1-5.3 0-7.6-3.8-7.6-9.6 0-8.5 5.1-15.8 13.7-15.8 3.7 0 6.6.8 9.3 1.8zm-17.8 13.5c0 3.6 1.2 5.8 4 5.8 2.3 0 4.3-1.3 6-3.5l2.2-12.7c-1.3-.5-2.7-.9-4.4-.9-4.5.1-7.8 5.1-7.8 11.3zm37.3 2c0 4.9-4.5 8.1-10.5 8.1-3 0-5.7-.7-7.8-1.7l2.3-3.8c1.7.9 3.7 1.4 6.1 1.4 2.2 0 4.9-1.1 4.9-3.5 0-2.1-2.2-2.8-4.5-3.7-2.4-.9-5.7-2.9-5.7-6.8 0-4.8 4.1-7.2 9.5-7.2 2.7 0 5.5.6 7.8 1.7l-2.3 3.7c-1.8-.7-3.7-1.2-5.8-1.2-2.3 0-4.2 1-4.2 2.9s2.2 2.8 3.8 3.5c3 1 6.4 2.9 6.4 6.6zm10.9-22.9l5.1-1-1.2 6.9h7.4l-1.7 4.2h-6.4l-2.3 13.3c0 .3-.1.6-.1.9 0 1.8 1.2 2.4 2.8 2.4 1.2 0 2.2-.2 3.6-.7l.5 4c-1.9.6-3.6.9-5.4.9-3.8 0-6.5-1.5-6.5-5.6 0-.6 0-1.3.2-2.1l2.3-13h-4.2l.7-4.2h4.2l1-6zm11.8 21.3c0-8.5 5-15.8 13.7-15.8 4.7 0 8 2.3 8 6.4 0 5-4.4 8.5-16.6 8.5 0 3.9 1.2 6.3 5.5 6.3 2.1 0 3.8-.6 5.8-1.6l1.4 3.7c-2.6 1.3-5.3 2-8.4 2-6.4.2-9.4-3.6-9.4-9.5zm5.6-5c9.2 0 11-1.9 11-4 0-1.7-1.5-2.6-3.5-2.6-3.5 0-6.4 2.9-7.5 6.6zM221.8 1498.5c-12.9 0-23.4 10.4-23.4 23.3s10.5 23.3 23.4 23.3 23.4-10.4 23.4-23.3-10.5-23.3-23.4-23.3zm109.4 73.4c-11.3 21.2-46.7 12.1-52.4 33.7-4.2 15.8 10.9 39.7 37.2 47.4 25.3-18.3 28.8-51.3 15.2-81.1zm-139.1 79.8c-5.8 27.7-14.4 41-41.5 50.7l8.2 21.6c35.5-12.7 49.1-31 56.6-67.3l6.8.9c-1.6 34.9.2 62.2 1.2 94.1l24.2-.4c-1.9-57.7-6.6-115.2 9-173.8 24.8-1 49-5.3 71.5-16.3l-10.7-21.1c-22.9 11.2-54.2 14.9-86.8 13.9-20.5-.6-27.6 8.6-29.6 25.2l-8.9 72.5zM359 739.2l-89 1.3c-86.9 1.2-138.2-77.5-92.6-156.5l12-20.8-35.5-20.5 119.2-68.8v137.6l-35.4-20.6-12 20.9c-23.8 41.3-.5 73.6 43.7 73l89-1.3.6 55.7zm182.4-251.3l-119.2-68.8 35.5-20.5-12-20.8c-23.8-41.2-63.5-37.5-85.1 1.2l-43.4 77.7-48.6-27L312 352c42.6-76.2 136.3-80.9 181.9-2.1l12 20.9 35.5-20.5v137.6zM394.9 712l119.2-68.8v40.9h24.3c46 0 64.8-35 41.4-74.2l-45.6-76.4 47.8-28.6 45.6 76.4c45.7 76.6 0 158.6-89.2 158.6h-24.3v40.9L394.9 712z"/><path d="M5198.2 1903.3H3780.4c-141.9 0-196.7-54.8-196.7-196.7v-1373c0-141.9 54.8-196.7 196.7-196.7h1417.8c141.9 0 196.7 54.8 196.7 196.7v1373.1c0 141.9-54.8 196.6-196.7 196.6z" fill="#05baee"/><path class="st1" d="M4356.3 448.8v-168h126v168h-35.5V313.4h-55v135.4h-35.5zm264.5-122.4v122.4h-34.6v-91.9h-23.8c-1.2 59.8-13.7 93.1-39.8 93.1-8.2 0-15.4-1.7-19.9-4.3l7.4-28.8c1.9 1.2 4.3 1.7 6 1.7 8.2 0 14.2-12 14.2-66.7v-25.4l90.5-.1zm93.8 113c-6.5 5.8-15.8 10.6-28.3 10.6-23.3 0-40.3-12.2-40.3-37.2 0-23.3 18.2-37 45.4-37h20.9v-7.2c0-8.6-5.5-14.2-17-14.2-9.8 0-21.8 2.2-32.2 6l-10.6-28.6c15.1-5.5 30.2-7.9 45.6-7.9 37.4 0 48.7 19.7 48.7 45.1v41.9c0 6 3.4 8.6 8.6 8.6h2.6v25.4c-4.1 2.6-12.7 5-19.4 5-12.5 0-18.7-4.3-23-10.6h-1v.1zm-24.5-17.2c7.7 0 16.1-3.1 22.1-8.4v-12.5h-20.9c-8.2 0-13.4 4.6-13.4 11 0 6.3 5 9.9 12.2 9.9zm169.2-6.5l11.3 28.1c-10.3 4.6-24.5 7.4-38.2 7.4-35.5 0-60-22.3-60-63.6s24.5-63.6 60-63.6c11.5 0 26.6 2.2 37 6.5l-11.3 28.1c-7.4-2.6-15.1-4.1-23-4.1-14.4 0-27.6 10.8-27.6 33.1s13.2 33.1 27.6 33.1c9.4 0 17.3-2.1 24.2-5zm18.5-89.3h108.5l-4.8 30.5h-32.9v91.9h-34.3v-91.9h-36.5v-30.5zm126.5 122.4V326.4h34.6v66l45.4-66h29.5v122.4h-34.6V383l-45.4 65.8h-29.5zm211.2-63.4l35.8 63.4-35.5 2.4-27.4-51.4h-6.5v49h-34.6V326.4h34.6v45.4h6.5l26.2-45.4h34.3l-33.4 59zm-852.3 219.7c3.3-3.4 7.2-5.9 12.5-5.9 10 0 17.3 6.6 17.3 20.2 0 13.3-8.3 20.2-19.7 20.2-13.2 0-19.2-9.8-19.2-26.2 0-25 7.2-30.5 20.4-31.7 6-.6 9.2-1.3 13.4-3l3.2 7.7c-4.6 2.3-10.2 3.6-15.6 4-8.4.6-12.5 4.4-12.5 14.6l.2.1zm.8 8.5c.1 11.7 3.2 17.4 9.3 17.4 5.4 0 9.6-3.8 9.6-11.6s-3.8-11.7-8.6-11.7c-3.5.1-7.6 1.8-10.3 5.9zm60.8-15.6h10.6l-15.7 48.6c-2.6 8-7.8 9.8-12.2 9.8-2.9 0-5.7-.9-7.4-1.6l2.7-8c1.1.5 2.9 1 4.2 1 1.3 0 3.1-.6 4-3.6l1.6-5.4h-2.8l-13.7-40.8h10.7l9 28.6h.3l8.7-28.6zm11.8 0h35.4l-1.6 8.6H4459v32.2h-9.8v-32.2h-12.6V598zm58.1 14.6c8.8 0 14.6 5 14.6 13.2s-5.8 13-14.6 13h-16V598h9.9v14.6h6.1zm-6 8.2v9.4h5.3c3.3 0 5.3-2 5.3-4.7s-2-4.7-5.3-4.7h-5.3zm35.3 18h-9.9V598h9.9v40.8zm26.3-31.8c0 21.3-4.8 32.2-13.9 32.2-2.2 0-4.2-.5-5.6-1.4l2.5-7.9c.6.3 1.2.5 2 .5 3.1 0 5.5-5.3 5.5-27.1v-5.2h28.6v40.8h-9.9v-32.2h-9.1v.3h-.1zm44.5 15.1h-3.5v16.7h-9.9V598h9.9v15.5h3.6l9.4-15.5h10.1l-11.9 19.7 12.7 21.1-10.2.8-10.2-17.5zm52.6-7.8h-.2l-16.5 24.5h-9V598h9.9v24.5h.2l16.5-24.5h9v40.8h-9.9v-24.5zm40.8-6.4c3.1 0 5.7 2.6 5.7 5.7s-2.6 5.7-5.7 5.7-5.7-2.6-5.7-5.7 2.6-5.7 5.7-5.7zm44.3 14.2h-3.5v16.7h-9.9V598h9.9v15.5h3.6l9.4-15.5h10.1l-11.9 19.7 12.7 21.1-10.2.8-10.2-17.5zm46.5-10c0-3.9-2-6.3-6.9-6.3-3.4 0-7.1.8-10.9 2.2l-3-8c4.9-1.8 9.6-2.7 14.8-2.7 12.5 0 15.8 6.6 15.8 15v15.5c0 2 1.1 2.9 2.9 2.9h.9v7.8c-1.2.5-3.7.8-5.7.8-3.6 0-5.9-1.4-7.2-3.9h-.3c-2.9 2.9-6.1 3.9-10.7 3.9-7.8 0-12.6-3.8-12.6-12.2 0-7.8 6.2-12.2 15.3-12.2h7.6v-2.8zm0 14.9v-4.6h-7.3c-3.7 0-5.8 1.8-5.8 4.5s2 4.2 4.4 4.2c3.3-.1 6.5-1.6 8.7-4.1zm55.2 11.8h-9.9v-16.7h-13.7v16.7h-9.9V598h9.9v15.5h13.7V598h9.9v40.8zm37.7-24.5h-.2l-16.5 24.5h-9V598h9.9v24.5h.2l16.5-24.5h9v40.8h-9.9v-24.5zm51.5 23c-3.4 1.5-7.4 2.3-11.6 2.3-13.2 0-20.3-9.4-20.3-21.2s6.7-21.2 19.9-21.2c3.8 0 8.2.8 11.6 2.2l-3.2 7.8c-2.5-1-5.3-1.5-7.9-1.5-5.9 0-10.3 5.1-10.3 12.6s4.3 12.6 10.2 12.6c2.6 0 5.9-.6 8.4-1.6l3.2 8zm3.2-39.3h35.4l-1.6 8.6H4949v32.2h-9.8v-32.2h-12.6V598zm51.6 3.5c2.6-2.6 6.3-4.3 10.6-4.3 11.5 0 16.7 8.9 16.7 21.2 0 12.3-5.3 21.2-17.4 21.2-3.4 0-6.7-.6-9.4-1.4v16.6l-9.9 1.6V598h7.5l1.6 3.5h.3zm17.2 16.9c0-7.4-3-12.6-9-12.6-2.7 0-5.4 1.5-7.7 4v19.1c2.2 1.4 5 2.2 8 2.2 5.3-.1 8.7-4.7 8.7-12.7zm35.7-5.8c8.8 0 14.6 5 14.6 13.2s-5.8 13-14.6 13h-16V598h9.9v14.6h6.1zm-6.1 8.2v9.4h5.3c3.3 0 5.3-2 5.3-4.7s-2-4.7-5.3-4.7h-5.3zm35.3 18h-9.9V598h9.9v40.8zm-671.3 90h-9.9v-32.2h-13v32.2h-9.9V688h32.9v40.8h-.1zm32.1-26.7c0-3.9-2-6.3-6.9-6.3-3.4 0-7.1.8-10.9 2.2l-3-8c4.9-1.8 9.6-2.7 14.8-2.7 12.5 0 15.8 6.6 15.8 15v15.5c0 2 1.1 2.9 2.9 2.9h.9v7.8c-1.2.5-3.7.8-5.7.8-3.6 0-5.9-1.4-7.2-3.9h-.3c-2.9 2.9-6.1 3.9-10.7 3.9-7.8 0-12.6-3.8-12.6-12.2 0-7.8 6.2-12.2 15.3-12.2h7.6v-2.8zm0 14.9v-4.6h-7.3c-3.7 0-5.8 1.8-5.8 4.5s2 4.2 4.4 4.2c3.3-.1 6.5-1.6 8.7-4.1zm35.1-4.9h-3.5v16.7h-9.9V688h9.9v15.5h3.6l9.4-15.5h10.1l-11.9 19.7 12.7 21.1-10.2.8-10.2-17.5zm54.5 6.3l3.4 7.8c-3.9 2-8.9 3.4-14.1 3.4-12 0-20.2-7.8-20.2-21.2s7.2-21.2 18.7-21.2c10.6 0 17.3 6.6 17.3 18.1 0 1.1-.2 3.9-.5 6.2h-25.4c1 6.2 5.4 9.6 10.6 9.6 3.4-.1 7.4-1.3 10.2-2.7zm-4-14.6c0-4.6-2.9-8.1-8.1-8.1-4.2 0-7.7 2.8-8.6 8.1h16.7zm13.9-15.8h35.4l-1.6 8.6H4543v32.2h-9.8v-32.2h-12.6V688zm58.1 14.6c8.8 0 14.6 5 14.6 13.2s-5.8 13-14.6 13h-16V688h9.9v14.6h6.1zm-6 8.2v9.4h5.3c3.3 0 5.3-2 5.3-4.7s-2-4.7-5.3-4.7h-5.3zm35.3 18h-9.9V688h9.9v40.8zm30.9-30.9c3.1 0 5.7 2.6 5.7 5.7s-2.6 5.7-5.7 5.7-5.7-2.6-5.7-5.7 2.6-5.7 5.7-5.7zm53.5-9.9h10.6l-15.7 48.6c-2.6 8-7.8 9.8-12.2 9.8-2.9 0-5.7-.9-7.4-1.6l2.7-8c1.1.5 2.9 1 4.2 1 1.3 0 3.1-.6 4-3.6l1.6-5.4h-2.8l-13.7-40.8h10.7l9 28.6h.3l8.7-28.6zm49.5 40.8h-9.9v-32.2h-13v32.2h-9.9V688h32.9v40.8h-.1zm32-26.7c0-3.9-2-6.3-6.9-6.3-3.4 0-7.1.8-10.9 2.2l-3-8c4.9-1.8 9.6-2.7 14.8-2.7 12.5 0 15.8 6.6 15.8 15v15.5c0 2 1.1 2.9 2.9 2.9h.9v7.8c-1.2.5-3.7.8-5.7.8-3.6 0-5.9-1.4-7.2-3.9h-.3c-2.9 2.9-6.1 3.9-10.7 3.9-7.8 0-12.6-3.8-12.6-12.2 0-7.8 6.2-12.2 15.3-12.2h7.6v-2.8zm0 14.9v-4.6h-7.3c-3.7 0-5.8 1.8-5.8 4.5s2 4.2 4.4 4.2c3.4-.1 6.6-1.6 8.7-4.1zm35.2-4.9h-3.5v16.7h-9.9V688h9.9v15.5h3.6l9.4-15.5h10.1l-11.9 19.7 12.7 21.1-10.2.8-10.2-17.5zm23.6-3.7c0-13.3 7.8-21.2 19.2-21.2s19.2 7.9 19.2 21.2-7.8 21.2-19.2 21.2-19.2-7.9-19.2-21.2zm10 0c0 7.9 3.8 12.6 9.1 12.6s9.1-4.7 9.1-12.6-3.8-12.6-9.1-12.6-9.1 4.7-9.1 12.6zm70.4 9c0 7-4.6 11.4-13.9 11.4h-18.6V688h17c7.8 0 13.8 2.7 13.8 10.1 0 4.4-2.4 7.5-7 9v.2c5.4 1.3 8.7 4.7 8.7 10.1zm-22.5-20.8v7.2h5.1c3.6 0 5.7-1 5.7-3.6s-2.5-3.6-5.7-3.6h-5.1zm0 15.1v8.6h6.5c3.8 0 6-1.4 6-4.4s-2.2-4.2-6-4.2h-6.5zm45.6.4h-3.5v16.7h-9.9V688h9.9v15.5h3.6l9.4-15.5h10.1l-11.9 19.7 12.7 21.1-10.2.8-10.2-17.5zm52.5-7.8h-.2l-16.5 24.5h-9V688h9.9v24.5h.2l16.5-24.5h9v40.8h-9.9v-24.5zm-606.8 90h-.2l-16.5 24.5h-9V778h9.9v24.5h.2l16.5-24.5h9v40.8h-9.9v-24.5zm57-7.3c0 21.3-4.8 32.2-13.9 32.2-2.2 0-4.2-.5-5.6-1.4l2.5-7.9c.6.3 1.2.5 2 .5 3.1 0 5.5-5.3 5.5-27.1v-5.2h28.6v40.8h-9.9v-32.2h-9.1v.3h-.1zm47.5 15.1h-6.6v16.7h-9.9V778h9.9v15.5h6.7c1.5-10.3 8-16.3 17.9-16.3 11.4 0 18.2 7.9 18.2 21.2s-6.9 21.2-18.2 21.2c-10.2 0-16.8-6.5-18-17.5zm9.9-3.7c0 7.9 3 12.6 8.2 12.6s8.2-4.7 8.2-12.6-3-12.6-8.2-12.6-8.2 4.7-8.2 12.6zm43.2-13.3c3.3-3.4 7.2-5.9 12.5-5.9 10 0 17.3 6.6 17.3 20.2 0 13.3-8.3 20.2-19.7 20.2-13.2 0-19.2-9.8-19.2-26.2 0-25 7.2-30.5 20.4-31.7 6-.6 9.2-1.3 13.4-3l3.2 7.7c-4.6 2.3-10.2 3.6-15.6 4-8.4.6-12.5 4.4-12.5 14.6h.2v.1zm.8 8.5c.1 11.7 3.2 17.4 9.3 17.4 5.4 0 9.6-3.8 9.6-11.6s-3.8-11.7-8.6-11.7c-3.5.1-7.6 1.8-10.3 5.9zm36.5 4.8c0-13.3 7.8-21.2 19.2-21.2s19.2 7.9 19.2 21.2-7.8 21.2-19.2 21.2-19.2-7.9-19.2-21.2zm10.1 0c0 7.9 3.8 12.6 9.1 12.6s9.1-4.7 9.1-12.6-3.8-12.6-9.1-12.6-9.1 4.7-9.1 12.6zm63.7-4.1h-.2l-16.5 24.5h-9V778h9.9v24.5h.2l16.5-24.5h9v40.8h-9.9v-24.5zm5.7-30.3c-3 5.4-7.8 8.2-13.6 8.2s-10.6-2.9-13.6-8.2l6.1-4c1.7 3.5 4.2 5.4 7.5 5.4s5.8-1.8 7.5-5.4l6.1 4zm36.4 46.2c4-7.1 5.1-14 5.1-27.8v-4.5h28v32.2h6.5l-1.6 18.7h-8.3v-10.2h-25.2v10.2h-8.3l-1.6-18.7 5.4.1zm14.7-23.6c0 9-.8 17.5-4.1 23.7h12.6v-23.7h-8.5zm41.2-5.1c2.6-2.6 6.3-4.3 10.6-4.3 11.5 0 16.7 8.9 16.7 21.2s-5.3 21.2-17.4 21.2c-3.4 0-6.7-.6-9.4-1.4v16.6l-9.9 1.6V778h7.5l1.6 3.5h.3zm17.2 16.9c0-7.4-3-12.6-9-12.6-2.7 0-5.4 1.5-7.7 4v19.1c2.2 1.4 5 2.2 8 2.2 5.3-.1 8.7-4.7 8.7-12.7zm41.9-20.4h10.6l-15.7 48.6c-2.6 8-7.8 9.8-12.2 9.8-2.9 0-5.7-.9-7.4-1.6l2.7-8c1.1.5 2.9 1 4.2 1 1.3 0 3.1-.6 4-3.6l1.6-5.4h-2.8L4779 778h10.7l9 28.6h.3l8.7-28.6zm42.8 0l-1.6 8.6h-14.7v32.2h-9.9V778h26.2zm2.8 20.4c0-13.3 7.8-21.2 19.2-21.2s19.2 7.9 19.2 21.2-7.8 21.2-19.2 21.2-19.2-7.9-19.2-21.2zm10.1 0c0 7.9 3.8 12.6 9.1 12.6s9.1-4.7 9.1-12.6-3.8-12.6-9.1-12.6-9.1 4.7-9.1 12.6zm63.7-4.1h-.2l-16.5 24.5h-9V778h9.9v24.5h.2L4928 778h9v40.8h-9.9v-24.5zm5.6-30.3c-3 5.4-7.8 8.2-13.6 8.2s-10.6-2.9-13.6-8.2l6.1-4c1.7 3.5 4.2 5.4 7.5 5.4s5.8-1.8 7.5-5.4l6.1 4zm70 54.8h-9.9v-32.2h-13v32.2h-9.9V778h32.9v40.8h-.1zM5029 787c0 21.3-4.8 32.2-13.9 32.2-2.2 0-4.2-.5-5.6-1.4l2.5-7.9c.6.3 1.2.5 2 .5 3.1 0 5.5-5.3 5.5-27.1v-5.2h28.6v40.8h-9.9v-32.2h-9.1v.3h-.1zm51.1 5.1c0-3.9-2-6.3-6.9-6.3-3.4 0-7.1.8-10.9 2.2l-3-8c4.9-1.8 9.6-2.7 14.8-2.7 12.5 0 15.8 6.6 15.8 15v15.5c0 2 1.1 2.9 2.9 2.9h.9v7.8c-1.2.5-3.7.8-5.7.8-3.6 0-5.9-1.4-7.2-3.9h-.3c-2.9 2.9-6.1 3.9-10.7 3.9-7.8 0-12.6-3.8-12.6-12.2 0-7.8 6.2-12.2 15.3-12.2h7.6v-2.8zm0 14.9v-4.6h-7.3c-3.7 0-5.8 1.8-5.8 4.5s2 4.2 4.4 4.2c3.3-.1 6.5-1.6 8.7-4.1zm51.2 10.3c-3.4 1.5-7.4 2.3-11.6 2.3-13.2 0-20.3-9.4-20.3-21.2s6.7-21.2 19.9-21.2c3.8 0 8.2.8 11.6 2.2l-3.2 7.8c-2.5-1-5.3-1.5-7.9-1.5-5.9 0-10.3 5.1-10.3 12.6s4.3 12.6 10.2 12.6c2.6 0 5.9-.6 8.4-1.6l3.2 8zm3.2-39.3h35.4l-1.6 8.6h-11.4v32.2h-9.8v-32.2h-12.6V778zm67.9 16.3h-.2l-16.5 24.5h-9V778h9.9v24.5h.2l16.5-24.5h9v40.8h-9.9v-24.5zm35.4 7.8h-3.5v16.7h-9.9V778h9.9v15.5h3.6l9.4-15.5h10.1l-11.9 19.7 12.7 21.1-10.2.8-10.2-17.5zm-1271.5 684.8c-2.1-1-4-1.5-6-1.5-4.5 0-7.3 4.2-7.3 10.7s2.8 10.7 7.3 10.7c2.3 0 4.5-.6 6.6-1.8l3 5.8c-3 1.7-6.3 2.6-9.9 2.6-10.3 0-14.3-7.3-14.3-17.3s4-17.3 14.3-17.3c3.4 0 6.3.7 9.3 2.2l-3 5.9zm5.6 13.8c0-8.2 4.6-12.7 11.7-12.7s11.7 4.5 11.7 12.7-4.6 12.7-11.7 12.7-11.7-4.5-11.7-12.7zm7 0c0 4.5 1.9 6.6 4.7 6.6 2.9 0 4.7-2.2 4.7-6.6s-1.9-6.6-4.7-6.6c-2.9 0-4.7 2.1-4.7 6.6zm27.9-10.3c1.5-1.3 3.4-2.4 6-2.4 6.9 0 10.4 5.4 10.4 12.7s-3.7 12.7-11 12.7c-1.6 0-3.2-.3-4.6-.8v9.9l-6.9 1v-35h5l1 2 .1-.1zm9.3 10.3c0-3.9-1.8-6.6-4.8-6.6-1.3 0-2.7.6-3.8 1.8v10.5c1.2.6 2.5.9 4 .9 2.6 0 4.6-2.5 4.6-6.6zm9.2-12.3h21.7l-1 6.1h-6.6v18.4h-6.9v-18.4h-7.3l.1-6.1zm25.2 24.5v-24.4h6.9v13.2l9.1-13.2h5.9v24.4h-6.9v-13.1l-9.1 13.1h-5.9zm34.7-22.5c1.5-1.3 3.4-2.4 6-2.4 6.9 0 10.4 5.4 10.4 12.7s-3.7 12.7-11 12.7c-1.6 0-3.2-.3-4.6-.8v9.9l-6.9 1v-35h5l1 2 .1-.1zm9.4 10.3c0-3.9-1.8-6.6-4.8-6.6-1.3 0-2.7.6-3.8 1.8v10.5c1.2.6 2.5.9 4 .9 2.6 0 4.6-2.5 4.6-6.6zm25.1-12.3h7.3l-9.2 29.1c-1.5 4.7-5.1 5.8-7.8 5.8-1.7 0-3.6-.6-4.7-1l2-5.7c.6.2 1.6.6 2.4.6.7 0 1.6-.3 1.9-1.4l.9-3h-2.3l-7.3-24.4h7.3l4.5 16.2h.1l4.9-16.2zm10.4 24.5v-24.4h6.9v13.2l9.1-13.2h5.9v24.4h-6.9v-13.1l-9.1 13.1h-5.9zm19.3-32.4c-1.9 3.5-4.8 5.2-8.4 5.2-3.5 0-6.5-1.8-8.4-5.2l4-2.6c1 2.2 2.5 3.3 4.4 3.3s3.4-1.2 4.4-3.3l4 2.6zm10.3 32.7c-1.4-.4-2.5-1.7-2.5-3.4 0-2.2 1.7-3.6 3.6-3.6 2.3 0 3.6 1.8 3.6 3.9 0 4.2-2 7.6-5.7 9.7l-1.9-2.2c1.7-1.3 2.8-2.7 2.9-4.4zm-207.1 25.1c1.5-1.3 3.4-2.4 6-2.4 6.9 0 10.4 5.4 10.4 12.7s-3.7 12.7-11 12.7c-1.6 0-3.2-.3-4.6-.8v9.9l-6.9 1v-35h5l1 2 .1-.1zm9.3 10.3c0-3.9-1.8-6.6-4.8-6.6-1.3 0-2.7.6-3.8 1.8v10.5c1.2.6 2.5.9 4 .9 2.7 0 4.6-2.4 4.6-6.6zm24.3 10.4c-1.3 1.2-3.2 2.1-5.7 2.1-4.6 0-8.1-2.4-8.1-7.4 0-4.6 3.6-7.4 9.1-7.4h4.2v-1.4c0-1.7-1.1-2.8-3.4-2.8-2 0-4.4.4-6.4 1.2l-2.1-5.7c3-1.1 6-1.6 9.1-1.6 7.5 0 9.7 3.9 9.7 9v8.3c0 1.2.7 1.7 1.7 1.7h.5v5.1c-.8.5-2.5 1-3.9 1-2.5 0-3.7-.9-4.6-2.1h-.1zm-4.8-3.5c1.5 0 3.2-.6 4.4-1.7v-2.5h-4.2c-1.6 0-2.7.9-2.7 2.2 0 1.3 1 2 2.5 2zm24.6 5.8c-2.8 0-6.6-.6-8.7-1.5l2.2-5.6c1.9.6 4.3 1 6.3 1 2.7 0 3.9-1 3.9-2.2s-1.2-2.2-3.9-2.2h-3.4v-5.1h3.3c1.9 0 2.9-.8 2.9-2 0-1-1.1-1.8-3-1.8-2.2 0-4 .3-5.9.9l-2.2-5.6c2.3-.9 6.3-1.4 8.6-1.4 6.5 0 9.5 2.5 9.5 6.7 0 2.8-1.7 4.7-4.2 5.3v.2c3.3.7 5.2 2.8 5.2 5.8.1 4.4-3.8 7.5-10.6 7.5zm15.4-6.6c2.3-4 2.5-8 2.5-15.9v-2.4h17.8v18.4h3.9l-1 12.2h-5.9v-6.1H4025v6.1h-5.9l-1-12.2 3.3-.1zm13.4 0v-12.3h-4.6v.4c0 4.6-.5 9-1.8 11.9h6.4zm19.9-3.5c.8 2.6 3 4 5.8 4 1.9 0 4.1-.7 5.7-1.5l2.5 5.5c-2.3 1.2-5.6 2.1-8.7 2.1-7.1 0-12.5-4.5-12.5-12.7s4.5-12.7 11.6-12.7c6.7 0 10.5 4.1 10.5 10.1 0 1.8-.1 3.6-.5 5.2h-14.4zm8.6-5.3c0-2.3-1.4-3.9-4.1-3.9-2.4 0-4.2 1.3-4.6 3.9h8.7zm31.8-9.5v24.4h-6.9v-18.4h-4.7c-.2 11.9-2.7 18.6-8 18.6-1.6 0-3.1-.3-4-.9l1.5-5.8c.4.2.9.3 1.2.3 1.6 0 2.8-2.4 2.8-13.3v-5.1h18.1v.2zm16.3 16.4l-4.4 8.1h-7.6l5.5-9.2c-2.4-1.3-3.9-3.8-3.9-7.1 0-5.1 3.5-8.2 8.7-8.2h10.4v24.4h-6.9v-8.1l-1.8.1zm1.8-5.4v-4.9h-2.7c-1.3 0-2.5.9-2.5 2.4s1.2 2.4 2.5 2.4l2.7.1zm13.6 13.4v-24.4h6.9v13.2l9.1-13.2h5.9v24.4h-6.9v-13.1l-9.1 13.1h-5.9zm19.4-32.3c-1.9 3.5-4.8 5.2-8.4 5.2-3.5 0-6.5-1.8-8.4-5.2l4-2.6c1 2.2 2.5 3.3 4.4 3.3s3.4-1.2 4.4-3.3l4 2.6zm-275.8-1.2c-5.9 0-12.1-.6-18.7-1.7l.7-4.2c29.4 5.2 52.1-1.9 69.2-21.7l3.2 2.8c-14.3 16.6-32.3 24.8-54.4 24.8zm834.9-28.5h-2.6v14.1h-6.6v-33.5h6.6v12.9h2.7l7.5-12.9h7.8l-9.8 16.1 10.8 17.4-7.9.5-8.5-14.6zm31.8 12.3c-1.3 1.2-3.2 2.1-5.7 2.1-4.6 0-8.1-2.4-8.1-7.4 0-4.6 3.6-7.4 9.1-7.4h4.2v-1.4c0-1.7-1.1-2.8-3.4-2.8-2 0-4.4.4-6.4 1.2l-2.1-5.7c3-1.1 6-1.6 9.1-1.6 7.5 0 9.7 3.9 9.7 9v8.3c0 1.2.7 1.7 1.7 1.7h.5v5.1c-.8.5-2.5 1-3.9 1-2.5 0-3.7-.9-4.6-2.1h-.1zm-4.9-3.5c1.5 0 3.2-.6 4.4-1.7v-2.5h-4.2c-1.6 0-2.7.9-2.7 2.2.1 1.3 1.1 2 2.5 2zm31.5-7.3l7.1 12.7-7.1.5-5.5-10.3h-1.3v9.8h-6.9v-24.4h6.9v9.1h1.3l5.2-9.1h6.9l-6.6 11.7zm23 12.6v-24.4h6.9v13.2l9.1-13.2h5.9v24.4h-6.9v-13.1l-9.1 13.1h-5.9zm47.8.5c-2.8 0-6.6-.6-8.7-1.5l2.2-5.6c1.9.6 4.3 1 6.3 1 2.7 0 3.9-1 3.9-2.2s-1.2-2.2-3.9-2.2h-3.4v-5.1h3.3c1.9 0 2.9-.8 2.9-2 0-1-1.1-1.8-3-1.8-2.2 0-4 .3-5.9.9l-2.2-5.6c2.3-.9 6.3-1.4 8.6-1.4 6.5 0 9.5 2.5 9.5 6.7 0 2.8-1.7 4.7-4.2 5.3v.2c3.3.7 5.2 2.8 5.2 5.8.1 4.4-3.8 7.5-10.6 7.5zm27.8-2.3c-1.3 1.2-3.2 2.1-5.7 2.1-4.7 0-8.1-2.4-8.1-7.4 0-4.6 3.6-7.4 9.1-7.4h4.2v-1.4c0-1.7-1.1-2.8-3.4-2.8-2 0-4.4.4-6.4 1.2l-2.1-5.7c3-1.1 6-1.6 9.1-1.6 7.5 0 9.7 3.9 9.7 9v8.3c0 1.2.7 1.7 1.7 1.7h.5v5.1c-.8.5-2.5 1-3.9 1-2.5 0-3.7-.9-4.6-2.1h-.1zm-4.9-3.5c1.5 0 3.2-.6 4.4-1.7v-2.5h-4.2c-1.6 0-2.7.9-2.7 2.2 0 1.3 1 2 2.5 2zm29.3 5.3v-8.6c-1.3.3-3 .6-4.2.6-4.8 0-8.7-2.3-8.7-8.5v-7.9h6.9v7.9c0 1.6.9 2.4 2.5 2.4 1.2 0 2.3-.1 3.5-.5v-9.9h6.9v24.4l-6.9.1zm19.4-9.6c.8 2.6 3 4 5.8 4 1.9 0 4.1-.7 5.7-1.5l2.5 5.5c-2.3 1.2-5.6 2.1-8.7 2.1-7.1 0-12.5-4.5-12.5-12.7s4.5-12.7 11.6-12.7c6.7 0 10.5 4.1 10.5 10.1 0 1.8-.1 3.6-.5 5.2h-14.4zm8.5-5.3c0-2.3-1.4-3.9-4.1-3.9-2.4 0-4.2 1.3-4.6 3.9h8.7zm29.3-9.5h7.2l2.3 24.4h-6.9l-1.1-13.3h-.1l-3.5 9.3h-5.7l-3.5-9.3h-.1l-1.1 13.3h-6.9l2.3-24.4h7.3l4.7 12.5h.1l5-12.5zm-232.4 65.8l2.3 5.6c-2.1.9-4.9 1.5-7.6 1.5-7.1 0-12-4.5-12-12.7s4.9-12.7 12-12.7c2.3 0 5.3.4 7.4 1.3l-2.3 5.6c-1.5-.5-3-.8-4.6-.8-2.9 0-5.5 2.2-5.5 6.6s2.6 6.6 5.5 6.6c1.8 0 3.4-.5 4.8-1zm4.7-5.7c0-8.2 4.6-12.7 11.7-12.7s11.7 4.5 11.7 12.7-4.6 12.7-11.7 12.7-11.7-4.4-11.7-12.7zm7 0c0 4.5 1.9 6.6 4.7 6.6s4.7-2.2 4.7-6.6-1.9-6.6-4.7-6.6-4.7 2.2-4.7 6.6zm27.8-10.2c1.5-1.3 3.4-2.4 6-2.4 6.9 0 10.4 5.4 10.4 12.7s-3.7 12.7-11 12.7c-1.6 0-3.2-.3-4.6-.8v9.9l-6.9 1v-35h5l1 2 .1-.1zm9.4 10.2c0-3.9-1.8-6.6-4.8-6.6-1.3 0-2.7.6-3.8 1.8v10.5c1.2.6 2.5.9 4 .9 2.6.1 4.6-2.4 4.6-6.6zm9.2-12.2h21.7l-1 6.1h-6.6v18.4h-6.9v-18.4h-7.3l.1-6.1zm25.2 24.5v-24.4h6.9v13.2l9.1-13.2h5.9v24.4h-6.9v-13.1l-9.1 13.1h-5.9zm34.7-22.5c1.5-1.3 3.4-2.4 6-2.4 6.9 0 10.4 5.4 10.4 12.7s-3.7 12.7-11 12.7c-1.6 0-3.2-.3-4.6-.8v9.9l-6.9 1v-35h5l1 2 .1-.1zm9.4 10.2c0-3.9-1.8-6.6-4.8-6.6-1.3 0-2.7.6-3.8 1.8v10.5c1.2.6 2.5.9 4 .9 2.6.1 4.6-2.4 4.6-6.6zm10.8 0c0-8.2 4.7-12.7 11.7-12.7 7.1 0 11.7 4.5 11.7 12.7s-4.6 12.7-11.7 12.7-11.7-4.4-11.7-12.7zm7 0c0 4.5 1.9 6.6 4.7 6.6 2.9 0 4.7-2.2 4.7-6.6s-1.9-6.6-4.7-6.6c-2.8 0-4.7 2.2-4.7 6.6zm36.5-.5c3.3.7 5.2 2.8 5.2 5.8 0 4.4-2.8 7-8.3 7h-11.6v-24.4h10.8c5.2 0 8.1 2.3 8.1 6.2 0 2.8-1.7 4.7-4.2 5.4zm-4.5-5.7h-3.3v3.5h3.3c1 0 1.7-.7 1.7-1.7 0-1.1-.7-1.8-1.7-1.8zm-3.3 8.4v4h3.9c1.3 0 2.2-.9 2.2-2s-.8-2-2.2-2h-3.9zm30.3 8.2c-1.3 1.2-3.2 2.1-5.7 2.1-4.7 0-8.1-2.4-8.1-7.4 0-4.6 3.6-7.4 9.1-7.4h4.2v-1.4c0-1.7-1.1-2.8-3.4-2.8-2 0-4.4.4-6.4 1.2l-2.1-5.7c3-1.1 6-1.6 9.1-1.6 7.5 0 9.7 3.9 9.7 9v8.3c0 1.2.7 1.7 1.7 1.7h.5v5.1c-.8.5-2.5 1-3.9 1-2.5 0-3.7-.9-4.6-2.1h-.1zm-4.9-3.5c1.5 0 3.2-.6 4.4-1.7v-2.5h-4.2c-1.6 0-2.7.9-2.7 2.2.1 1.3 1.1 2 2.5 2zm15-19.1h21.7l-1 6.1h-6.6v18.4h-6.9v-18.4h-7.3l.1-6.1zm36 8.7c5.3 0 8.7 2.8 8.7 7.9s-3.4 7.9-8.7 7.9h-10.7v-24.4h6.9v8.7l3.8-.1zm-3.8 5.4v4.3h3.4c1.3 0 2.2-1 2.2-2.2s-.9-2.2-2.2-2.2l-3.4.1zm47.1-14.1h7.2l2.3 24.4h-6.9l-1.1-13.3h-.1l-3.5 9.3h-5.7l-3.5-9.3h-.1l-1.1 13.3h-6.9l2.3-24.4h7.3l4.7 12.5h.1l5-12.5zm27.9 0h7.3l-9.2 29.1c-1.5 4.7-5.1 5.8-7.8 5.8-1.7 0-3.6-.6-4.7-1l2-5.7c.6.2 1.6.6 2.4.6.7 0 1.6-.3 1.9-1.4l.9-3h-2.3l-7.3-24.4h7.3l4.5 16.2h.1l4.9-16.2zm25.8 17.9l2.3 5.6c-2.1.9-4.9 1.5-7.6 1.5-7.1 0-12-4.5-12-12.7s4.9-12.7 12-12.7c2.3 0 5.3.4 7.4 1.3l-2.3 5.6c-1.5-.5-3-.8-4.6-.8-2.9 0-5.5 2.2-5.5 6.6s2.6 6.6 5.5 6.6c1.9 0 3.4-.5 4.8-1zm4.7-5.7c0-8.2 4.6-12.7 11.7-12.7s11.7 4.5 11.7 12.7-4.6 12.7-11.7 12.7-11.7-4.4-11.7-12.7zm7 0c0 4.5 1.9 6.6 4.7 6.6s4.7-2.2 4.7-6.6-1.9-6.6-4.7-6.6-4.7 2.2-4.7 6.6zm27.9-10.2c1.5-1.3 3.4-2.4 6-2.4 6.9 0 10.4 5.4 10.4 12.7s-3.7 12.7-11 12.7c-1.6 0-3.2-.3-4.6-.8v9.9l-6.9 1v-35h5l1 2 .1-.1zm9.3 10.2c0-3.9-1.8-6.6-4.8-6.6-1.3 0-2.7.6-3.8 1.8v10.5c1.2.6 2.5.9 4 .9 2.7.1 4.6-2.4 4.6-6.6zm-413.1 67c0-8.5 5-15.8 13.7-15.8 4.7 0 8 2.3 8 6.4 0 5-4.4 8.5-16.6 8.5 0 3.9 1.2 6.3 5.5 6.3 2.1 0 3.8-.6 5.8-1.6l1.4 3.7c-2.6 1.3-5.3 2-8.4 2-6.3.2-9.4-3.6-9.4-9.5zm5.7-5c9.2 0 11-1.9 11-4 0-1.7-1.5-2.6-3.5-2.6-3.6 0-6.4 2.9-7.5 6.6zm36.3-10.3h5.2l-9.9 12c1.1 4.8 3.7 8.8 6.9 12.4l-5.4.5c-2.6-3.3-4.5-6.8-5.6-11h-2.7l-1.9 10.5h-5l6.1-35 5.2-1-3.7 21.3h2.5l8.3-9.7zm27.7 1.4l-4.1 23.1h-3.3l-.5-2.6h-.2c-2 1.9-4.3 3.1-7.3 3.1-5.3 0-7.6-3.8-7.6-9.6 0-8.5 5.1-15.8 13.7-15.8 3.7 0 6.5.8 9.3 1.8zm-17.9 13.5c0 3.6 1.2 5.8 4 5.8 2.3 0 4.3-1.3 6-3.5l2.2-12.7c-1.3-.5-2.7-.9-4.4-.9-4.5.1-7.8 5.1-7.8 11.3zm27.2-20.9l5.1-1-1.2 6.9h7.4l-1.7 4.2h-6.4l-2.3 13.3c0 .3-.1.6-.1.9 0 1.8 1.2 2.4 2.8 2.4 1.2 0 2.2-.2 3.6-.7l.5 4c-1.9.6-3.6.9-5.4.9-3.8 0-6.5-1.5-6.5-5.6 0-.6 0-1.3.2-2.1l2.3-13h-4.2l.7-4.2h4.2l1-6zm11.8 21.3c0-8.5 5-15.8 13.7-15.8 4.7 0 8 2.3 8 6.4 0 5-4.4 8.5-16.6 8.5 0 3.9 1.2 6.3 5.5 6.3 2.1 0 3.8-.6 5.8-1.6l1.4 3.7c-2.6 1.3-5.3 2-8.4 2-6.4.2-9.4-3.6-9.4-9.5zm5.6-5c9.2 0 11-1.9 11-4 0-1.7-1.5-2.6-3.5-2.6-3.5 0-6.4 2.9-7.5 6.6zm33.8-5.6c-.6-.3-1.2-.5-2.4-.5-2.7 0-4.9 2.7-6 6l-2.5 14.3h-5l4.3-24.4h3.5l.3 3.8h.2c1.7-2.5 3.6-4.3 7-4.3 1.2 0 2.1.2 3 .5l-2.4 4.6zm2.2-.5l1.7-4.2h8.5l-4.3 24.4h-5l3.5-20.3-4.4.1zm8.9-14.3c1.7 0 3.1 1.3 3.1 3s-1.4 3-3.1 3-3-1.3-3-3c0-1.6 1.4-3 3-3zm8.8 34.6h-5l4.3-24.4h3.5l.5 2.6h.2c2.4-2.2 4.6-3.1 7.4-3.1 4.5 0 6.6 2.2 6.6 6.6 0 .9-.1 2.1-.3 3.2l-2.7 15.2h-5l2.6-14.9c.1-.8.2-1.6.2-2.2 0-2.5-1.1-3.7-3.4-3.7-1.9 0-4.4 1.6-6 3.4l-2.9 17.3zm30.6.5c-3.4 0-6.3-.6-9.7-1.9l5.9-33.5 5.2-1-2.5 14.1h.2c2.2-2.1 4.5-3.1 6.9-3.1 5.3 0 7.9 3.8 7.9 9.6-.1 8.4-5.1 15.8-13.9 15.8zm4.2-21.3c-2 0-4.5 1.6-6.1 3.4l-2.3 12.7c1.6.6 3.2.9 5 .9 4.6 0 7.9-5 7.9-11.3 0-3.7-1.6-5.7-4.5-5.7zm19.3 11.2c-.1.8-.2 1.6-.2 2.2 0 2.5 1.3 3.7 3.6 3.7 1.9 0 4.8-1.6 6.5-3.4l3-17.3h5l-4.3 24.4h-3.3l-.5-2.6h-.2c-2.4 2.2-5.4 3.1-8.1 3.1-4.5 0-6.9-2.2-6.9-6.6 0-.9.1-2.1.3-3.2l2.6-15.2h5l-2.5 14.9zm36.2-10.2c-.6-.3-1.2-.5-2.4-.5-2.7 0-4.9 2.7-6 6l-2.5 14.3h-5l4.3-24.4h3.5l.3 3.8h.2c1.7-2.5 3.6-4.3 7-4.3 1.2 0 2.1.2 3 .5l-2.4 4.6zm16.7 20.5l.6-3.1h-.2c-2.2 1.9-4.2 2.8-6.9 2.8-5.5 0-8-3.3-8-9.6 0-8.5 5.4-15.8 14-15.8 3.4 0 6.4.6 9.7 1.9l-4.3 24.1c-1.2 6.4-5.6 9.4-12.6 9.4-3.3 0-5.7-.7-8.3-2l2.2-4c2 1 4.1 1.9 6.7 1.9 3.9.1 6.4-1.5 7.1-5.6zm-9.4-10.3c0 3.9 1.5 5.8 4.6 5.8 1.9 0 4.3-1.3 6.1-3.4l2.3-12.8c-1.6-.6-3-.9-4.9-.9-4.6.1-8.1 5.1-8.1 11.3zm24.2 3.7c1.7 0 3.2 1.4 3.2 3.2 0 1.7-1.4 3.2-3.2 3.2-1.7 0-3.2-1.4-3.2-3.2 0-1.7 1.4-3.2 3.2-3.2zm22.1-19c2.1 0 3.8.4 5.2 1.1l2-11.1 5.2-1-6.3 35.9h-3.3l-.5-2.6h-.2c-2.2 1.9-4.6 3.1-7.8 3.1-5 0-8-3.3-8-9.6 0-8.6 5.1-15.8 13.7-15.8zm2.3 17.7l2.1-12c-1.3-1-3-1.6-5.1-1.6-4.6 0-7.9 4.9-7.9 11.2 0 3.9 1.8 5.8 4.9 5.8 2.4.1 4.2-1.2 6-3.4zm11.3-2c0-8.5 5-15.8 13.7-15.8 4.7 0 8 2.3 8 6.4 0 5-4.4 8.5-16.6 8.5 0 3.9 1.2 6.3 5.5 6.3 2.1 0 3.8-.6 5.8-1.6l1.4 3.7c-2.6 1.3-5.3 2-8.4 2-6.4.2-9.4-3.6-9.4-9.5zm5.6-5c9.2 0 11-1.9 11-4 0-1.7-1.5-2.6-3.5-2.6-3.5 0-6.4 2.9-7.5 6.6zm35.1 6.6c0 4.9-4.5 8.1-10.5 8.1-3 0-5.7-.7-7.8-1.7l2.3-3.8c1.7.9 3.7 1.4 6.1 1.4 2.2 0 4.9-1.1 4.9-3.5 0-2.1-2.2-2.8-4.5-3.7-2.4-.9-5.7-2.9-5.7-6.8 0-4.8 4.1-7.2 9.5-7.2 2.7 0 5.5.6 7.8 1.7l-2.3 3.7c-1.8-.7-3.7-1.2-5.8-1.2-2.3 0-4.2 1-4.2 2.9s2.2 2.8 3.8 3.5c2.9 1 6.4 2.9 6.4 6.6zm4.6-12.7l1.7-4.2h8.5l-4.3 24.4h-5l3.5-20.3-4.4.1zm8.9-14.3c1.7 0 3.1 1.3 3.1 3s-1.4 3-3.1 3-3-1.3-3-3c0-1.6 1.4-3 3-3zm19.1 35.3l.6-3.1h-.2c-2.2 1.9-4.2 2.8-6.9 2.8-5.5 0-8-3.3-8-9.6 0-8.5 5.4-15.8 14-15.8 3.4 0 6.4.6 9.7 1.9l-4.3 24.1c-1.2 6.4-5.6 9.4-12.6 9.4-3.3 0-5.7-.7-8.3-2l2.2-4c2 1 4.1 1.9 6.7 1.9 3.9.1 6.3-1.5 7.1-5.6zm-9.4-10.3c0 3.9 1.5 5.8 4.7 5.8 1.9 0 4.3-1.3 6.1-3.4l2.3-12.8c-1.6-.6-3-.9-4.9-.9-4.7.1-8.2 5.1-8.2 11.3zm26 9.6h-5l4.3-24.4h3.5l.5 2.6h.2c2.4-2.2 4.6-3.1 7.4-3.1 4.5 0 6.6 2.2 6.6 6.6 0 .9-.1 2.1-.3 3.2l-2.7 15.2h-5l2.6-14.9c.1-.8.2-1.6.2-2.2 0-2.5-1.1-3.7-3.4-3.7-1.9 0-4.4 1.6-6 3.4l-2.9 17.3zm40.5-33.6h4.6l-25.5 41.1h-4.6l25.5-41.1zm37.3 9.1l-10.5 24.4h-6.3l-1-17.7h-.1l-6.7 17.7h-6.2l-2.8-24.4h4.5l2.2 19h.2l6.9-19h5.4l1.2 19h.2l8-19h5zm22.8 1.4l-4.1 23.1h-3.3l-.5-2.6h-.2c-2 1.9-4.3 3.1-7.3 3.1-5.3 0-7.6-3.8-7.6-9.6 0-8.5 5.1-15.8 13.7-15.8 3.7 0 6.5.8 9.3 1.8zm-17.9 13.5c0 3.6 1.2 5.8 4 5.8 2.3 0 4.3-1.3 6-3.5l2.2-12.7c-1.3-.5-2.7-.9-4.4-.9-4.5.1-7.8 5.1-7.8 11.3zm37.4 2c0 4.9-4.5 8.1-10.5 8.1-3 0-5.7-.7-7.8-1.7l2.3-3.8c1.7.9 3.7 1.4 6.1 1.4 2.2 0 4.9-1.1 4.9-3.5 0-2.1-2.2-2.8-4.5-3.7-2.4-.9-5.7-2.9-5.7-6.8 0-4.8 4.1-7.2 9.5-7.2 2.7 0 5.5.6 7.8 1.7l-2.3 3.7c-1.8-.7-3.7-1.2-5.8-1.2-2.3 0-4.2 1-4.2 2.9s2.2 2.8 3.8 3.5c2.9 1 6.4 2.9 6.4 6.6zm10.9-22.9l5.1-1-1.2 6.9h7.4l-1.7 4.2h-6.4l-2.3 13.3c0 .3-.1.6-.1.9 0 1.8 1.2 2.4 2.8 2.4 1.2 0 2.2-.2 3.6-.7l.5 4c-1.9.6-3.6.9-5.4.9-3.8 0-6.5-1.5-6.5-5.6 0-.6 0-1.3.2-2.1l2.3-13h-4.2l.7-4.2h4.2l1-6zm11.7 21.3c0-8.5 5-15.8 13.7-15.8 4.7 0 8 2.3 8 6.4 0 5-4.4 8.5-16.6 8.5 0 3.9 1.2 6.3 5.5 6.3 2.1 0 3.8-.6 5.8-1.6l1.4 3.7c-2.6 1.3-5.3 2-8.4 2-6.3.2-9.4-3.6-9.4-9.5zm5.7-5c9.2 0 11-1.9 11-4 0-1.7-1.5-2.6-3.5-2.6-3.6 0-6.4 2.9-7.5 6.6z"/><defs><path id="SVGID_15_" d="M4628 1709.9c0 29.8-11.4 41.2-41.2 41.2h-189.3c-29.8 0-41.2-11.4-41.2-41.2v-189.3c0-29.8 11.4-41.2 41.2-41.2h189.3c29.8 0 41.2 11.4 41.2 41.2"/></defs><clipPath id="SVGID_16_"><use xlink:href="#SVGID_15_" overflow="visible"/></clipPath><path d="M4478.1 1488.7v-9.4h28.1v18.7h-9.4v-9.4h-18.7v.1zm56.2 0v-9.4h-18.7v9.4h18.7zm-65.6 9.4h9.4v-9.4h-9.4v-9.4h-28.1v9.4h18.7v9.4h-18.7v9.4h9.4v18.7h-9.4v9.4h9.4v9.4h9.4v-28.1h9.4l-.1-18.8zm46.9 9.4v-9.4h-9.4v9.4h9.4zm-75 0h-9.4v18.7h9.4v-18.7zm65.6 0h-9.4v-9.4h-9.4v18.7h-18.7v9.4h9.4v9.4h9.4v9.4h9.4v-18.7h9.4l-.1-18.8zm18.8 9.3v-9.4h-9.4v9.4h9.4zm28.1 9.4v-28.1h-9.4v18.7h-9.4v9.4h18.8zm-18.8 0h-28.1v18.7h9.4v-9.4h9.4v9.4h9.4l-.1-18.7zm-103 9.4v9.4h9.4v-9.4h-9.4zm46.8 0h-9.4v28.1h9.4v-9.4h9.4v-9.4h-9.4v-9.3zm-37.5 28.1h9.4v9.4h9.4v-18.7h-9.4v-9.4h-9.4v18.7zm-18.7 0v9.4h9.4v9.4h-9.4v9.4h18.7v-9.4h9.4v-9.4h-9.4v-9.4h-9.4v-9.4h-28.1v9.4h18.8zm-18.8 0h-9.4v9.4h9.4v-9.4zm84.4 9.4h9.4v-9.4h9.4v-9.4h-18.7l-.1 18.8zm131.2 0v-9.4h-18.8v9.4h18.8zm-196.8 0h-9.4v9.4h9.4v-9.4zm28.1 9.3v9.4h-9.4v28.1h9.4v-9.4h9.4v-18.7h9.4v-9.4h9.4v-9.4h-18.7v9.4h-9.5zm149.9 9.4v-9.4h-9.4v-18.7h9.4v-9.4h-18.7v9.4h-9.4v9.4h9.4v9.4h-9.4v9.4h28.1v-.1zm18.8 9.4h-9.4v9.4h18.7v-18.7h-9.4l.1 9.3zm-206.2 9.3v9.4h9.4v9.4h-9.4v9.4h18.7v-37.5h-9.4v9.4h-9.3v-.1zm178.1 0v-9.4h-18.7v-9.4h-9.4v9.4h-9.4v-9.4h9.4v-9.4h-9.4v-18.7h-9.4v-9.4h9.4v-18.7h-9.4v9.4h-9.4v18.7h-9.4v-9.4h-9.4v18.7h9.4v9.4h9.4v-9.4h9.4v9.4h-9.4v18.7h-9.4v9.4h28.1v9.4h9.4v-9.4h9.4v9.4h9.4v9.4h9.4v-9.4h9.4v9.4h-9.4v9.4h9.4v9.4h18.7v9.4h9.4v-18.7h-18.7v-28.1h-18.8v-.1zm28.1 18.8h9.4v-9.4h-9.4v9.4zm-168.7 9.4h9.4v-18.8h-9.4v18.8zm-9.4 9.3h9.4v-9.4h-9.4v9.4zm121.8-9.3v9.4h28.1v-9.4h-28.1zm-131.1 18.7h9.4v-9.4h-9.4v9.4zm121.8-9.4h9.4v18.7h28.1v9.4h9.4v9.4h9.4v9.4h-18.7v9.4h9.4v9.4h9.4v9.4h9.4v9.4h-9.4v18.7h-9.4v-9.4h-9.4v9.4h-37.5v-28.1h-9.4v-9.4h-9.4v-28.1h-9.4v9.4h-18.7v18.7h9.4v9.4h9.4v9.4h-9.4v9.4h-9.4v-9.4h-9.4v-37.6h-9.4v18.7h-28.1v9.4h18.7v9.4h-9.4v18.7h-37.5v-18.7h18.7v-28.1h18.7v-9.4h9.4v-9.4h-9.4v-9.4h18.7v9.4h9.4v-18.7h9.4v-9.4h-9.4v9.4h-9.4v-9.4h-18.7v-9.4h28.1v-9.4h-9.4v-9.4h-9.4v9.4h-9.4v-18.7h9.4v-9.4h-9.4v-9.4h9.4v-9.4h9.4v-9.4h28.1v18.7h-9.4v-9.4h-9.4v18.7h28.1v9.4h-28.1v9.4h9.4v9.4h9.4v-9.4h9.4v9.4h18.7v-9.4h-9.4v-9.4h18.7v28.3h-9.4v9.4h-9.4v-9.4h-18.7v18.7h9.4v-9.4h9.4v18.7h9.4v-18.7h9.4v-9.3h.2zm-37.5 37.5v-9.4h-9.4v9.4h9.4zm56.2 56.2v-9.4h-9.4v9.4h9.4zm18.8-28.1h-28.1v9.4h28.1v-9.4zm-37.5-37.5v28.1h28.1v-28.1h-28.1zm37.5-18.7h9.4v-9.4h-9.4v9.4zm-178.1 0h9.4v-9.4h-9.4v-9.4h-28.1v-18.7h18.7v-9.4h-9.4v-9.4h28.1v-9.4h-9.4v-9.4h-9.4v9.4h-9.4V1573h-9.4v-9.4h-9.4v-9.4h-18.7v18.7h18.7v9.4h9.4v28.1h-9.4v-18.7h-18.7v37.5h9.4v-9.4h9.4v9.4h-9.4v9.4h9.4v9.4h-9.4v-9.4h-9.4v37.5h9.4v-18.7h9.4v9.4h9.4v-18.7h9.4v18.7h-9.4v9.4h37.5v-9.4h-9.4l.1-9.4zm9.4 9.4h9.4v-9.4h-9.4v9.4zm46.8-9.4h-9.4v18.7h9.4v-18.7zm159.3 18.7v-9.4h-28.1v9.4h28.1zm-56.2 9.4h-9.4v9.4h9.4v-9.4zm-131.2-9.4h-9.4v28.1h9.4v-28.1zm168.7 37.5h9.4v9.4h9.4v-18.7h-9.4v-9.4h-9.4v18.7zm18.7 28.1v-9.4h-9.4v9.4h9.4zm-131.2 9.4h9.4v-9.4h-9.4v9.4zm28.2 0v-9.4h-9.4v9.4h9.4zm9.3 0h9.4v-9.4h-9.4v9.4z" clip-path="url(#SVGID_16_)" fill="#fff"/><defs><path id="SVGID_17_" d="M4628 1709.9c0 29.8-11.4 41.2-41.2 41.2h-189.3c-29.8 0-41.2-11.4-41.2-41.2v-189.3c0-29.8 11.4-41.2 41.2-41.2h189.3c29.8 0 41.2 11.4 41.2 41.2"/></defs><clipPath id="SVGID_18_"><use xlink:href="#SVGID_17_" overflow="visible"/></clipPath><path d="M4403.1 1498.1v28.1H4375v-8.4c0-14.2 5.5-19.7 19.7-19.7h8.4z" clip-path="url(#SVGID_18_)" fill="#fff"/><defs><path id="SVGID_19_" d="M4628 1709.9c0 29.8-11.4 41.2-41.2 41.2h-189.3c-29.8 0-41.2-11.4-41.2-41.2v-189.3c0-29.8 11.4-41.2 41.2-41.2h189.3c29.8 0 41.2 11.4 41.2 41.2"/></defs><clipPath id="SVGID_20_"><use xlink:href="#SVGID_19_" overflow="visible"/></clipPath><path class="st12" d="M4394.7 1498.1h8.5v28.1h-28.1v-8.4c-.1-14.2 5.4-19.7 19.6-19.7z"/><path class="st12" d="M4397.5 1479.4c-29.8 0-41.2 11.4-41.2 41.2v24.4h65.6v-65.6h-24.4zm15 56.2h-46.9V1519c0-21.9 8.4-30.3 30.3-30.3h16.6v46.9z"/><path class="st12" d="M4403.1 1498.1v28.1H4375v-8.4c0-14.2 5.5-19.7 19.7-19.7h8.4z"/><defs><path id="SVGID_21_" d="M4628 1709.9c0 29.8-11.4 41.2-41.2 41.2h-189.3c-29.8 0-41.2-11.4-41.2-41.2v-189.3c0-29.8 11.4-41.2 41.2-41.2h189.3c29.8 0 41.2 11.4 41.2 41.2"/></defs><clipPath id="SVGID_22_"><use xlink:href="#SVGID_21_" overflow="visible"/></clipPath><path d="M4403.1 1732.4v-28.1H4375v8.4c0 14.2 5.5 19.7 19.7 19.7h8.4z" clip-path="url(#SVGID_22_)" fill="#fff"/><defs><path id="SVGID_23_" d="M4628 1709.9c0 29.8-11.4 41.2-41.2 41.2h-189.3c-29.8 0-41.2-11.4-41.2-41.2v-189.3c0-29.8 11.4-41.2 41.2-41.2h189.3c29.8 0 41.2 11.4 41.2 41.2"/></defs><clipPath id="SVGID_24_"><use xlink:href="#SVGID_23_" overflow="visible"/></clipPath><path class="st14" d="M4394.7 1732.4h8.5v-28.1h-28.1v8.4c-.1 14.2 5.4 19.7 19.6 19.7z"/><path class="st14" d="M4421.9 1751.1v-65.6h-65.6v24.4c0 29.8 11.4 41.2 41.2 41.2h24.4zm-9.4-9.4h-16.6c-21.9 0-30.3-8.4-30.3-30.3v-16.5h46.9v46.8z"/><path class="st14" d="M4403.1 1732.4v-28.1H4375v8.4c0 14.2 5.5 19.7 19.7 19.7h8.4z"/><defs><path id="SVGID_25_" d="M4628 1709.9c0 29.8-11.4 41.2-41.2 41.2h-189.3c-29.8 0-41.2-11.4-41.2-41.2v-189.3c0-29.8 11.4-41.2 41.2-41.2h189.3c29.8 0 41.2 11.4 41.2 41.2"/></defs><clipPath id="SVGID_26_"><use xlink:href="#SVGID_25_" overflow="visible"/></clipPath><path d="M4581.2 1498.1v28.1h28.1v-8.4c0-14.2-5.5-19.7-19.7-19.7h-8.4z" clip-path="url(#SVGID_26_)" fill="#fff"/><defs><path id="SVGID_27_" d="M4628 1709.9c0 29.8-11.4 41.2-41.2 41.2h-189.3c-29.8 0-41.2-11.4-41.2-41.2v-189.3c0-29.8 11.4-41.2 41.2-41.2h189.3c29.8 0 41.2 11.4 41.2 41.2"/></defs><clipPath id="SVGID_28_"><use xlink:href="#SVGID_27_" overflow="visible"/></clipPath><path class="st16" d="M4589.6 1498.1h-8.4v28.1h28.1v-8.4c0-14.2-5.5-19.7-19.7-19.7z"/><path class="st16" d="M4562.4 1479.4v65.6h65.6v-24.4c0-29.8-11.4-41.2-41.2-41.2h-24.4zm9.4 9.3h16.6c21.9 0 30.3 8.4 30.3 30.3v16.6h-46.9v-46.9z"/><path class="st16" d="M4581.2 1498.1v28.1h28.1v-8.4c0-14.2-5.5-19.7-19.7-19.7h-8.4z"/><path class="st1" d="M3805.8 1498.4c-12.9 0-23.4 10.4-23.4 23.3s10.5 23.3 23.4 23.3 23.4-10.4 23.4-23.3c.1-12.9-10.4-23.3-23.4-23.3zm109.5 73.4c-11.3 21.2-46.7 12.1-52.4 33.7-4.2 15.8 10.9 39.7 37.2 47.4 25.2-18.3 28.7-51.3 15.2-81.1zm-139.2 79.8c-5.8 27.7-14.4 41-41.5 50.7l8.2 21.6c35.5-12.7 49.1-31 56.6-67.3l6.8.9c-1.6 34.9.2 62.2 1.2 94.1l24.2-.4c-1.9-57.7-6.6-115.2 9-173.8 24.8-1 49-5.3 71.5-16.3l-10.7-21.1c-22.9 11.2-54.2 14.9-86.8 13.9-20.5-.6-27.6 8.6-29.6 25.2l-8.9 72.5z"/><path d="M3856.6 283.6h130.3v55.8h-130.2l-.1-55.8zm163.1 355l-74.8 19.9-14.2-53.9 75-20-.2-68.5c-.1-47.1-39.5-84.9-86.2-83.8-44.8 1.1-81.4 38.8-81.4 83.7l.1 142.3L3939 833c13.3 24.8 44.8 17 53.2-7.5 27.8 17.4 59 .8 57.2-33 25.4 5 49.3-19.2 34.5-43.1l-64.2-110.8zm41.4-39.9l71.7 124.4c29 50.4 10.8 91.7-37.3 108.5-11 40.5-52.3 64.3-92.9 53.6-38.6 33.3-82.1 27.7-111.2-22.7l-109.2-189.2.1-157.1c0-76.4 60.9-137.8 136.9-139.4 77.5-1.6 141.9 61.8 141.9 139.4v82.5z" fill-rule="evenodd" clip-rule="evenodd" fill="#fff"/><path d="M3516.3 2040.2H1878.8c-163.9 0-227.2-63.3-227.2-227.2V227.2C1651.6 63.3 1714.9 0 1878.8 0h1637.6c163.9 0 227.2 63.3 227.2 227.2v1585.9c-.1 163.9-63.4 227.1-227.3 227.1z" fill="#ffd400"/><path d="M1982.7 1606c-6.8 0-14-.7-21.6-2l.8-4.9c34 6 60.2-2.2 79.9-25.1l3.7 3.2c-16.5 19.4-37.3 28.8-62.8 28.8z"/><defs><path id="SVGID_29_" d="M2857.9 1816.8c0 34.4-13.2 47.6-47.6 47.6h-218.6c-34.4 0-47.6-13.2-47.6-47.6v-218.6c0-34.4 13.2-47.6 47.6-47.6h218.6c34.4 0 47.6 13.2 47.6 47.6"/></defs><clipPath id="SVGID_30_"><use xlink:href="#SVGID_29_" overflow="visible"/></clipPath><path d="M2684.6 1561.3v-10.9h32.5v21.6h-10.9v-10.9h-21.6v.2zm65 0v-10.9H2728v10.9h21.6zm-75.7 10.9h10.9v-10.9h-10.9v-10.9h-32.5v10.9h21.6v10.9h-21.6v10.9h10.9v21.6h-10.9v10.9h10.9v10.9h10.9V1594h10.9v-21.7h-.2zm54 10.8v-10.9H2717v10.9h10.9zm-86.5 0h-10.9v21.6h10.9V1583zm75.7 0h-10.9v-10.9h-10.9v21.6h-21.6v10.9h10.9v10.9h10.9v10.9h10.9v-21.6h10.9V1583h-.2zm21.7 10.8v-10.9h-10.9v10.9h10.9zm32.4 10.8v-32.5h-10.9v21.6h-10.9v10.9h21.8zm-21.6 0h-32.5v21.6h10.9v-10.9h10.9v10.9h10.9v-21.6h-.2zm-119.1 10.9v10.9h10.9v-10.9h-10.9zm54.1 0h-10.9v32.5h10.9v-10.9h10.9v-10.9h-10.9v-10.7zm-43.2 32.5h10.9v10.9h10.9v-21.6h-10.9v-10.9h-10.9v21.6zm-21.7 0v10.9h10.9v10.9h-10.9v10.9h21.6v-10.9h10.9v-10.9h-10.9V1648h-10.9v-10.9H2598v10.9h21.7zm-21.6 0h-10.9v10.9h10.9V1648zm97.4 10.8h10.9V1648h10.9v-10.9h-21.6v21.7h-.2zm151.5 0V1648h-21.6v10.9h21.6zm-227.3 0h-10.9v10.9h10.9v-10.9zm32.4 10.8v10.9h-10.9v32.5h10.9v-11h10.9v-21.6h10.9v-10.9h10.9v-10.9h-21.6v10.9h-11.1zm173.3 10.8v-10.9h-10.9V1648h10.9v-10.9h-21.6v10.9h-10.9v10.9h10.9v10.9h-10.9v10.9h32.5v-.3zm21.6 10.9h-10.9v10.9h21.6v-21.6h-10.9v10.7h.2zm-238.2 10.7v10.9h10.9v10.9h-10.9v10.9h21.6v-43.3h-10.9v10.9h-10.7v-.3zm205.7 0v-10.9h-21.6v-10.9H2782v10.9h-10.9v-10.9h10.9v-10.9h-10.9v-21.6h-10.9V1637h10.9v-21.6h-10.9v10.9h-10.9v21.6h-10.9V1637h-10.9v21.6h10.9v10.9h10.9v-10.9h10.9v10.9h-10.9v21.6h-10.9v10.9h32.5v10.9h10.9V1702h10.9v10.9h10.9v10.9h10.9v-10.9h10.9v10.9h-10.9v10.9h10.9v10.9h21.6v10.9h10.9v-21.6h-21.7v-32.5h-21.6v-.4zm32.5 21.7h10.9v-10.9H2847v10.9zm-194.9 10.9h10.9v-21.7h-10.9v21.7zm-10.7 10.7h10.9v-10.9h-10.9v10.9zm140.7-10.7v10.9h32.5v-10.9h-32.5zm-151.6 21.6h10.9v-10.9h-10.9v10.9zm140.7-10.9h10.9v21.6h32.5v10.9h10.9v10.9h10.9v10.9h-21.6v10.9h10.9v10.9h10.9v10.9h10.9v10.9h-10.9v21.6h-10.9v-10.9h-10.9v10.9h-43.3v-32.5h-10.9v-10.9h-10.9v-32.5h-10.9v10.9h-21.6v21.6h10.9v10.9h10.9v10.9h-11v10.9h-10.9v-10.9h-10.9v-43.4h-10.9v21.6H2663v10.9h21.6v10.9h-10.9v21.6h-43.2v-21.6h21.6v-32.5h21.6v-10.9h10.9v-10.9h-10.9V1778h21.6v10.9h10.9V1767h10.9v-10.9h-10.9v10.9h-10.9v-10.9h-21.6v-10.9h32.5v-10.9h-10.9v-10.9h-10.9v10.9h-10.9v-21.6h10.9V1702h-10.9v-10.9h10.9v-10.9h10.9v-10.9h32.5v21.6h-10.9V1680H2706v21.6h32.5v10.9H2706v10.9h10.9v10.9h10.9v-10.9h10.9v10.9h21.6v-10.9h-10.9v-10.9h21.6v32.7h-10.9v10.9h-10.9v-10.9h-21.6v21.6h10.9v-10.9h10.9v21.6h10.9v-21.6h10.9v-10.7zm-43.3 43.3v-10.9H2717v10.9h10.9zm64.9 64.9v-10.9H2782v10.9h10.8zm21.7-32.4H2782v10.9h32.5v-10.9zm-43.3-43.3v32.5h32.5v-32.5h-32.5zm43.3-21.6h10.9v-10.9h-10.9v10.9zm-205.7 0h10.9v-10.9h-10.9v-10.9h-32.5v-21.6h21.6V1702H2587v-10.9h32.5v-10.9h-10.9v-10.9h-10.9v10.9H2587v-21.6h-10.9v-10.9h-10.9V1637h-21.4v21.6h21.6v10.9h10.9v32.5h-10.9v-21.6h-21.6v43.3h10.9v-10.9h10.9v10.9h-10.9v10.9h10.9v10.9h-10.9v-10.9h-10.9v43.3h10.9v-21.6h10.9v10.9h10.9v-21.6h10.9v21.6h-10.9v10.9h43.3V1767h-10.9v-10.9h-.1zm10.9 10.8h10.9v-10.9h-10.9v10.9zm54.2-10.8H2663v21.6h10.9v-21.6zm184 21.6v-10.9h-32.5v10.9h32.5zm-65.1 10.8H2782v10.9h10.9v-10.9zm-151.4-10.8h-10.9v32.5h10.9v-32.5zm194.7 43.3h10.9v10.9h10.9v-21.6H2847v-10.9h-10.9v21.6zm21.8 32.4v-10.9H2847v10.9h10.9zm-151.6 10.9h10.9v-10.9h-10.9v10.9zm32.5 0v-10.9h-10.9v10.9h10.9zm10.8 0h10.9v-10.9h-10.9v10.9z" clip-path="url(#SVGID_30_)"/><defs><path id="SVGID_31_" d="M2857.9 1816.8c0 34.4-13.2 47.6-47.6 47.6h-218.6c-34.4 0-47.6-13.2-47.6-47.6v-218.6c0-34.4 13.2-47.6 47.6-47.6h218.6c34.4 0 47.6 13.2 47.6 47.6"/></defs><clipPath id="SVGID_32_"><use xlink:href="#SVGID_31_" overflow="visible"/></clipPath><path d="M2598.1 1572.2v32.5h-32.5v-9.7c0-16.4 6.4-22.8 22.8-22.8h9.7z" clip-path="url(#SVGID_32_)"/><defs><path id="SVGID_33_" d="M2857.9 1816.8c0 34.4-13.2 47.6-47.6 47.6h-218.6c-34.4 0-47.6-13.2-47.6-47.6v-218.6c0-34.4 13.2-47.6 47.6-47.6h218.6c34.4 0 47.6 13.2 47.6 47.6"/></defs><clipPath id="SVGID_34_"><use xlink:href="#SVGID_33_" overflow="visible"/></clipPath><path class="st21" d="M2588.3 1572.2h9.7v32.5h-32.5v-9.7c.1-16.5 6.4-22.8 22.8-22.8z"/><path class="st21" d="M2591.6 1550.6c-34.4 0-47.6 13.2-47.6 47.6v28.2h75.8v-75.8h-28.2zm17.2 64.9h-54.2v-19.2c0-25.3 9.7-35 35-35h19.2v54.2z"/><path class="st21" d="M2598.1 1572.2v32.5h-32.5v-9.7c0-16.4 6.4-22.8 22.8-22.8h9.7z"/><defs><path id="SVGID_35_" d="M2857.9 1816.8c0 34.4-13.2 47.6-47.6 47.6h-218.6c-34.4 0-47.6-13.2-47.6-47.6v-218.6c0-34.4 13.2-47.6 47.6-47.6h218.6c34.4 0 47.6 13.2 47.6 47.6"/></defs><clipPath id="SVGID_36_"><use xlink:href="#SVGID_35_" overflow="visible"/></clipPath><path d="M2598.1 1842.8v-32.5h-32.5v9.7c0 16.4 6.4 22.8 22.8 22.8h9.7z" clip-path="url(#SVGID_36_)"/><defs><path id="SVGID_37_" d="M2857.9 1816.8c0 34.4-13.2 47.6-47.6 47.6h-218.6c-34.4 0-47.6-13.2-47.6-47.6v-218.6c0-34.4 13.2-47.6 47.6-47.6h218.6c34.4 0 47.6 13.2 47.6 47.6"/></defs><clipPath id="SVGID_38_"><use xlink:href="#SVGID_37_" overflow="visible"/></clipPath><path class="st23" d="M2588.3 1842.8h9.7v-32.5h-32.5v9.7c.1 16.4 6.4 22.8 22.8 22.8z"/><path class="st23" d="M2619.7 1864.4v-75.8h-75.8v28.2c0 34.4 13.2 47.6 47.6 47.6h28.2zm-10.9-10.9h-19.2c-25.3 0-35-9.7-35-35v-19.1h54.2v54.1z"/><path class="st23" d="M2598.1 1842.8v-32.5h-32.5v9.7c0 16.4 6.4 22.8 22.8 22.8h9.7z"/><defs><path id="SVGID_39_" d="M2857.9 1816.8c0 34.4-13.2 47.6-47.6 47.6h-218.6c-34.4 0-47.6-13.2-47.6-47.6v-218.6c0-34.4 13.2-47.6 47.6-47.6h218.6c34.4 0 47.6 13.2 47.6 47.6"/></defs><clipPath id="SVGID_40_"><use xlink:href="#SVGID_39_" overflow="visible"/></clipPath><path d="M2803.7 1572.2v32.5h32.5v-9.7c0-16.4-6.4-22.8-22.8-22.8h-9.7z" clip-path="url(#SVGID_40_)"/><defs><path id="SVGID_41_" d="M2857.9 1816.8c0 34.4-13.2 47.6-47.6 47.6h-218.6c-34.4 0-47.6-13.2-47.6-47.6v-218.6c0-34.4 13.2-47.6 47.6-47.6h218.6c34.4 0 47.6 13.2 47.6 47.6"/></defs><clipPath id="SVGID_42_"><use xlink:href="#SVGID_41_" overflow="visible"/></clipPath><path class="st25" d="M2813.5 1572.2h-9.7v32.5h32.5v-9.7c-.2-16.5-6.4-22.8-22.8-22.8z"/><path class="st25" d="M2782.1 1550.6v75.8h75.8v-28.2c0-34.4-13.2-47.6-47.6-47.6h-28.2zm10.7 10.7h19.2c25.2 0 35 9.7 35 35v19.2h-54.2v-54.2z"/><path class="st25" d="M2803.7 1572.2v32.5h32.5v-9.7c0-16.4-6.4-22.8-22.8-22.8h-9.7z"/><path d="M2093.5 1559.2c-2.4-1.2-4.6-1.7-6.9-1.7-5.2 0-8.4 4.9-8.4 12.4s3.2 12.4 8.4 12.4c2.7 0 5.2-.7 7.6-2.1l3.5 6.7c-3.5 2-7.3 3-11.4 3-11.9 0-16.5-8.4-16.5-20s4.6-20 16.5-20c3.9 0 7.3.8 10.7 2.5l-3.5 6.8zm6.4 16c0-9.5 5.3-14.7 13.5-14.7s13.5 5.2 13.5 14.7-5.3 14.7-13.5 14.7c-8.1 0-13.5-5.2-13.5-14.7zm8.1 0c0 5.2 2.2 7.6 5.4 7.6s5.4-2.5 5.4-7.6-2.2-7.6-5.4-7.6-5.4 2.4-5.4 7.6zm32.2-11.9c1.7-1.5 3.9-2.8 6.9-2.8 8 0 12 6.2 12 14.7 0 8.4-4.3 14.7-12.7 14.7-1.8 0-3.7-.3-5.3-.9v11.4l-8 1.2v-40.4h5.8l1.2 2.3h.1v-.2zm10.8 11.9c0-4.5-2.1-7.6-5.5-7.6-1.5 0-3.1.7-4.4 2.1v12.1c1.4.7 2.9 1 4.6 1 3 0 5.3-2.9 5.3-7.6zm10.6-14.2h25.1l-1.2 7h-7.6v21.3h-8V1568h-8.4v-7h.1zm29.1 28.3v-28.2h8v15.2l10.5-15.2h6.8v28.2h-8v-15.1l-10.5 15.1h-6.8zm40.1-26c1.7-1.5 3.9-2.8 6.9-2.8 8 0 12 6.2 12 14.7 0 8.4-4.3 14.7-12.7 14.7-1.8 0-3.7-.3-5.3-.9v11.4l-8 1.2v-40.4h5.8l1.2 2.3h.1v-.2zm10.9 11.9c0-4.5-2.1-7.6-5.5-7.6-1.5 0-3.1.7-4.4 2.1v12.1c1.4.7 2.9 1 4.6 1 2.9 0 5.3-2.9 5.3-7.6zm28.9-14.2h8.4l-10.6 33.6c-1.7 5.4-5.9 6.7-9 6.7-2 0-4.2-.7-5.4-1.2l2.3-6.6c.7.2 1.8.7 2.8.7.8 0 1.8-.3 2.2-1.6l1-3.5h-2.7l-8.4-28.2h8.4l5.2 18.7h.1l5.7-18.6zm12.1 28.3v-28.2h8v15.2l10.5-15.2h6.8v28.2h-8v-15.1l-10.5 15.1h-6.8zm22.3-37.4c-2.2 4-5.5 6-9.7 6-4 0-7.5-2.1-9.7-6l4.6-3c1.2 2.5 2.9 3.8 5.1 3.8s3.9-1.4 5.1-3.8l4.6 3zm11.8 37.7c-1.6-.5-2.9-2-2.9-3.9 0-2.5 2-4.2 4.2-4.2 2.7 0 4.2 2.1 4.2 4.5 0 4.9-2.3 8.8-6.6 11.2l-2.2-2.5c2-1.5 3.2-3.1 3.3-5.1zm-239.2 29c1.7-1.5 3.9-2.8 6.9-2.8 8 0 12 6.2 12 14.7s-4.3 14.7-12.7 14.7c-1.8 0-3.7-.3-5.3-.9v11.4l-8 1.2v-40.4h5.8l1.2 2.3h.1v-.2zm10.8 11.9c0-4.5-2.1-7.6-5.5-7.6-1.5 0-3.1.7-4.4 2.1v12.1c1.4.7 2.9 1 4.6 1 3.1 0 5.3-2.7 5.3-7.6zm28.1 12c-1.5 1.4-3.7 2.4-6.6 2.4-5.3 0-9.4-2.8-9.4-8.5 0-5.3 4.2-8.5 10.5-8.5h4.9v-1.6c0-2-1.3-3.2-3.9-3.2-2.3 0-5.1.5-7.4 1.4l-2.4-6.6c3.5-1.3 6.9-1.8 10.5-1.8 8.7 0 11.2 4.5 11.2 10.4v9.6c0 1.4.8 2 2 2h.6v5.9c-.9.6-2.9 1.2-4.5 1.2-2.9 0-4.3-1-5.3-2.4l-.2-.3zm-5.6-4c1.7 0 3.7-.7 5.1-2v-2.9h-4.9c-1.8 0-3.1 1-3.1 2.5 0 1.6 1.2 2.4 2.9 2.4zm28.4 6.7c-3.2 0-7.6-.7-10-1.7l2.5-6.5c2.2.7 5 1.2 7.3 1.2 3.1 0 4.5-1.2 4.5-2.5 0-1.4-1.4-2.5-4.5-2.5h-3.9v-5.9h3.8c2.2 0 3.3-.9 3.3-2.3 0-1.2-1.3-2.1-3.5-2.1-2.5 0-4.6.3-6.8 1l-2.5-6.5c2.7-1 7.3-1.6 9.9-1.6 7.5 0 11 2.9 11 7.7 0 3.2-2 5.4-4.9 6.1v.2c3.8.8 6 3.2 6 6.7.2 5.1-4.2 8.7-12.2 8.7zm17.8-7.6c2.7-4.6 2.9-9.2 2.9-18.4v-2.8h20.6v21.3h4.5l-1.2 14.1h-6.8v-7h-15.8v7h-6.8l-1.2-14.1h3.8v-.1zm15.6 0v-14.2h-5.3v.5c0 5.3-.6 10.4-2.1 13.7h7.4zm22.9-4.1c.9 3 3.5 4.6 6.7 4.6 2.2 0 4.7-.8 6.6-1.7l2.9 6.4c-2.7 1.4-6.5 2.4-10 2.4-8.2 0-14.4-5.2-14.4-14.7s5.2-14.7 13.4-14.7c7.7 0 12.1 4.7 12.1 11.7 0 2.1-.1 4.2-.6 6h-16.7zm9.9-6.1c0-2.7-1.6-4.5-4.7-4.5-2.8 0-4.9 1.5-5.3 4.5h10zm36.7-11v28.2h-8v-21.3h-5.4c-.2 13.7-3.1 21.5-9.2 21.5-1.8 0-3.6-.3-4.6-1l1.7-6.7c.5.2 1 .3 1.4.3 1.8 0 3.2-2.8 3.2-15.4v-5.9h20.9v.3zm19 19l-5.1 9.4h-8.8l6.4-10.6c-2.8-1.5-4.5-4.4-4.5-8.2 0-5.9 4-9.5 10-9.5h12v28.2h-8v-9.4h-2.1v.1zm1.9-6.3v-5.7h-3.1c-1.5 0-2.9 1-2.9 2.8s1.4 2.8 2.9 2.8h3.1v.1zm15.7 15.5v-28.2h8v15.2l10.5-15.2h6.8v28.2h-8v-15.1l-10.5 15.1h-6.8zm22.5-37.3c-2.2 4-5.5 6-9.7 6-4 0-7.5-2.1-9.7-6l4.6-3c1.2 2.5 2.9 3.8 5.1 3.8s3.9-1.4 5.1-3.8l4.6 3zM2947 1573h-3v16.3h-7.6v-38.7h7.6v14.9h3.1l8.7-14.9h9l-11.3 18.6 12.5 20.1-9.1.6-9.9-16.9zm36.7 14.2c-1.5 1.4-3.7 2.4-6.6 2.4-5.3 0-9.4-2.8-9.4-8.5 0-5.3 4.2-8.5 10.5-8.5h4.9v-1.6c0-2-1.3-3.2-3.9-3.2-2.3 0-5.1.5-7.4 1.4l-2.4-6.6c3.5-1.3 6.9-1.8 10.5-1.8 8.7 0 11.2 4.5 11.2 10.4v9.6c0 1.4.8 2 2 2h.6v5.9c-.9.6-2.9 1.2-4.5 1.2-2.9 0-4.3-1-5.3-2.4l-.2-.3zm-5.6-4c1.7 0 3.7-.7 5.1-2v-2.9h-4.9c-1.8 0-3.1 1-3.1 2.5.1 1.5 1.3 2.4 2.9 2.4zm36.4-8.5l8.2 14.7-8.2.6-6.4-11.9h-1.5v11.3h-8v-28.2h8v10.5h1.5l6-10.5h8l-7.6 13.5zm26.5 14.6v-28.2h8v15.2l10.5-15.2h6.8v28.2h-8v-15.1l-10.5 15.1h-6.8zm55.2.6c-3.2 0-7.6-.7-10-1.7l2.5-6.5c2.2.7 5 1.2 7.3 1.2 3.1 0 4.5-1.2 4.5-2.5 0-1.4-1.4-2.5-4.5-2.5h-3.9v-5.9h3.8c2.2 0 3.3-.9 3.3-2.3 0-1.2-1.3-2.1-3.5-2.1-2.5 0-4.6.3-6.8 1l-2.5-6.5c2.7-1 7.3-1.6 9.9-1.6 7.5 0 11 2.9 11 7.7 0 3.2-2 5.4-4.9 6.1v.2c3.8.8 6 3.2 6 6.7.2 5.1-4.3 8.7-12.2 8.7zm32.2-2.7c-1.5 1.4-3.7 2.4-6.6 2.4-5.4 0-9.4-2.8-9.4-8.5 0-5.3 4.2-8.5 10.5-8.5h4.9v-1.6c0-2-1.3-3.2-3.9-3.2-2.3 0-5.1.5-7.4 1.4l-2.4-6.6c3.5-1.3 6.9-1.8 10.5-1.8 8.7 0 11.2 4.5 11.2 10.4v9.6c0 1.4.8 2 2 2h.6v5.9c-.9.6-2.9 1.2-4.5 1.2-2.9 0-4.3-1-5.3-2.4l-.2-.3zm-5.7-4c1.7 0 3.7-.7 5.1-2v-2.9h-4.9c-1.8 0-3.1 1-3.1 2.5s1.2 2.4 2.9 2.4zm33.8 6.1v-9.9c-1.5.3-3.5.7-4.9.7-5.5 0-10-2.7-10-9.8v-9.1h8v9.1c0 1.8 1 2.8 2.9 2.8 1.4 0 2.7-.1 4-.6V1561h8v28.2h-8v.1zm22.4-11.1c.9 3 3.5 4.6 6.7 4.6 2.2 0 4.7-.8 6.6-1.7l2.9 6.4c-2.7 1.4-6.5 2.4-10 2.4-8.2 0-14.4-5.2-14.4-14.7s5.2-14.7 13.4-14.7c7.7 0 12.1 4.7 12.1 11.7 0 2.1-.1 4.2-.6 6h-16.7zm9.9-6.1c0-2.7-1.6-4.5-4.7-4.5-2.8 0-4.9 1.5-5.3 4.5h10zm33.8-11h8.3l2.7 28.2h-8l-1.3-15.4h-.1l-4 10.7h-6.6l-4-10.7h-.1l-1.3 15.4h-8l2.7-28.2h8.4l5.4 14.4h.1l5.8-14.4zm-268.4 76l2.7 6.5c-2.4 1-5.7 1.7-8.8 1.7-8.2 0-13.9-5.2-13.9-14.7s5.7-14.7 13.9-14.7c2.7 0 6.1.5 8.5 1.5l-2.7 6.5c-1.7-.6-3.5-.9-5.3-.9-3.3 0-6.4 2.5-6.4 7.6s3 7.6 6.4 7.6c2.1.1 4-.5 5.6-1.1zm5.4-6.6c0-9.5 5.3-14.7 13.5-14.7s13.5 5.2 13.5 14.7-5.3 14.7-13.5 14.7-13.5-5.1-13.5-14.7zm8.1 0c0 5.2 2.2 7.6 5.4 7.6s5.4-2.5 5.4-7.6-2.2-7.6-5.4-7.6-5.4 2.5-5.4 7.6zm32.2-11.8c1.7-1.5 3.9-2.8 6.9-2.8 8 0 12 6.2 12 14.7s-4.3 14.7-12.7 14.7c-1.8 0-3.7-.3-5.3-.9v11.4l-8 1.2v-40.4h5.8l1.2 2.3h.1v-.2zm10.8 11.8c0-4.5-2.1-7.6-5.5-7.6-1.5 0-3.1.7-4.4 2.1v12.1c1.4.7 2.9 1 4.6 1 2.9.2 5.3-2.7 5.3-7.6zm10.6-14.1h25.1l-1.2 7h-7.6v21.3h-8v-21.3h-8.4v-7h.1zm29.1 28.3v-28.2h8v15.2l10.5-15.2h6.8v28.2h-8v-15.1l-10.5 15.1h-6.8zm40.1-26c1.7-1.5 3.9-2.8 6.9-2.8 8 0 12 6.2 12 14.7s-4.3 14.7-12.7 14.7c-1.8 0-3.7-.3-5.3-.9v11.4l-8 1.2v-40.4h5.8l1.2 2.3h.1v-.2zm10.8 11.8c0-4.5-2.1-7.6-5.5-7.6-1.5 0-3.1.7-4.4 2.1v12.1c1.4.7 2.9 1 4.6 1 3 .2 5.3-2.7 5.3-7.6zm12.5 0c0-9.5 5.4-14.7 13.5-14.7 8.2 0 13.5 5.2 13.5 14.7s-5.3 14.7-13.5 14.7c-8.1 0-13.5-5.1-13.5-14.7zm8.1 0c0 5.2 2.2 7.6 5.4 7.6 3.3 0 5.4-2.5 5.4-7.6s-2.2-7.6-5.4-7.6-5.4 2.5-5.4 7.6zm42.1-.6c3.8.8 6 3.2 6 6.7 0 5.1-3.2 8.1-9.6 8.1H3147v-28.2h12.5c6 0 9.4 2.7 9.4 7.2 0 3.2-2 5.4-4.9 6.1v.1zm-5.2-6.5h-3.8v4h3.8c1.2 0 2-.8 2-2s-.8-2-2-2zm-3.8 9.7v4.6h4.5c1.5 0 2.5-1 2.5-2.3 0-1.3-.9-2.3-2.5-2.3h-4.5zm35 9.4c-1.5 1.4-3.7 2.4-6.6 2.4-5.4 0-9.4-2.8-9.4-8.5 0-5.3 4.2-8.5 10.5-8.5h4.9v-1.6c0-2-1.3-3.2-3.9-3.2-2.3 0-5.1.5-7.4 1.4l-2.4-6.6c3.5-1.3 6.9-1.8 10.5-1.8 8.7 0 11.2 4.5 11.2 10.4v9.6c0 1.4.8 2 2 2h.6v5.9c-.9.6-2.9 1.2-4.5 1.2-2.9 0-4.3-1-5.3-2.4l-.2-.3zm-5.6-4c1.7 0 3.7-.7 5.1-2v-2.9h-4.9c-1.8 0-3.1 1-3.1 2.5.1 1.6 1.3 2.4 2.9 2.4zm17.3-22.1h25.1l-1.2 7h-7.6v21.3h-8v-21.3h-8.4v-7h.1zm41.6 10.1c6.1 0 10 3.2 10 9.1s-3.9 9.1-10 9.1h-12.4v-28.2h8v10h4.4zm-4.4 6.2v5h3.9c1.5 0 2.5-1.2 2.5-2.5 0-1.4-1-2.5-2.5-2.5h-3.9zm54.4-16.3h8.3l2.7 28.2h-8l-1.3-15.4h-.1l-4 10.7h-6.6l-4-10.7h-.1l-1.3 15.4h-8l2.7-28.2h8.4l5.4 14.4h.1l5.8-14.4zm32.2 0h8.4l-10.6 33.6c-1.7 5.4-5.9 6.7-9 6.7-2 0-4.2-.7-5.4-1.2l2.3-6.6c.7.2 1.8.7 2.8.7.8 0 1.8-.3 2.2-1.6l1-3.5h-2.7l-8.4-28.2h8.4l5.2 18.7h.1l5.7-18.6zm29.8 20.7l2.7 6.5c-2.4 1-5.7 1.7-8.8 1.7-8.2 0-13.9-5.2-13.9-14.7s5.7-14.7 13.9-14.7c2.7 0 6.1.5 8.5 1.5l-2.7 6.5c-1.7-.6-3.5-.9-5.3-.9-3.3 0-6.4 2.5-6.4 7.6s3 7.6 6.4 7.6c2.3.1 4-.5 5.6-1.1zm5.4-6.6c0-9.5 5.3-14.7 13.5-14.7s13.5 5.2 13.5 14.7-5.3 14.7-13.5 14.7c-8.1 0-13.5-5.1-13.5-14.7zm8.1 0c0 5.2 2.2 7.6 5.4 7.6s5.4-2.5 5.4-7.6-2.2-7.6-5.4-7.6-5.4 2.5-5.4 7.6zm32.2-11.8c1.7-1.5 3.9-2.8 6.9-2.8 8 0 12 6.2 12 14.7s-4.3 14.7-12.7 14.7c-1.8 0-3.7-.3-5.3-.9v11.4l-8 1.2v-40.4h5.8l1.2 2.3h.1v-.2zm10.8 11.8c0-4.5-2.1-7.6-5.5-7.6-1.5 0-3.1.7-4.4 2.1v12.1c1.4.7 2.9 1 4.6 1 3.1.2 5.3-2.7 5.3-7.6zm-477.1 77.4c0-9.8 5.8-18.2 15.8-18.2 5.4 0 9.2 2.7 9.2 7.4 0 5.8-5.1 9.8-19.2 9.8 0 4.5 1.4 7.3 6.4 7.3 2.4 0 4.4-.7 6.7-1.8l1.6 4.3c-3 1.5-6.1 2.3-9.7 2.3-7.3.1-10.8-4.3-10.8-11.1zm6.5-5.8c10.6 0 12.7-2.2 12.7-4.6 0-2-1.7-3-4-3-4.2 0-7.4 3.3-8.7 7.6zm42-11.9h6l-11.4 13.9c1.3 5.5 4.3 10.2 8 14.3l-6.2.6c-3-3.8-5.2-7.9-6.5-12.7h-3.1l-2.2 12.1h-5.8l7-40.4 6-1.2-4.3 24.6h2.9l9.6-11.2zm32 1.6l-4.7 26.7h-3.8l-.6-3h-.2c-2.3 2.2-5 3.6-8.4 3.6-6.1 0-8.8-4.4-8.8-11.1 0-9.8 5.9-18.2 15.8-18.2 4.2 0 7.4.9 10.7 2zm-20.7 15.6c0 4.2 1.4 6.7 4.6 6.7 2.7 0 5-1.5 6.9-4l2.5-14.7c-1.5-.6-3.1-1-5.1-1-5.1.1-8.9 5.9-8.9 13zm31.4-24.1l5.9-1.2-1.4 8h8.5l-2 4.9h-7.4l-2.7 15.4c0 .3-.1.7-.1 1 0 2.1 1.4 2.8 3.2 2.8 1.4 0 2.5-.2 4.2-.8l.6 4.6c-2.2.7-4.2 1-6.2 1-4.4 0-7.5-1.7-7.5-6.5 0-.7 0-1.5.2-2.4l2.7-15h-4.9l.8-4.9h4.9l1.2-6.9zm13.6 24.6c0-9.8 5.8-18.2 15.8-18.2 5.4 0 9.2 2.7 9.2 7.4 0 5.8-5.1 9.8-19.2 9.8 0 4.5 1.4 7.3 6.4 7.3 2.4 0 4.4-.7 6.7-1.8l1.6 4.3c-3 1.5-6.1 2.3-9.7 2.3-7.3.1-10.8-4.3-10.8-11.1zm6.5-5.8c10.6 0 12.7-2.2 12.7-4.6 0-2-1.7-3-4-3-4.1 0-7.4 3.3-8.7 7.6zm39-6.4c-.7-.3-1.4-.6-2.8-.6-3.1 0-5.7 3.1-6.9 6.9l-2.9 16.5h-5.8l5-28.2h4l.3 4.4h.2c2-2.9 4.2-5 8.1-5 1.4 0 2.4.2 3.5.6l-2.7 5.4zm2.6-.6l2-4.9h9.8l-5 28.2h-5.8l4-23.4h-5.1v.1zm10.3-16.5c2 0 3.6 1.5 3.6 3.5s-1.6 3.5-3.6 3.5-3.5-1.5-3.5-3.5c0-1.9 1.6-3.5 3.5-3.5zm10.1 39.9h-5.8l5-28.2h4l.6 3h.2c2.8-2.5 5.3-3.6 8.5-3.6 5.2 0 7.6 2.5 7.6 7.6 0 1-.1 2.4-.3 3.7l-3.1 17.6h-5.8l3-17.2c.1-.9.2-1.8.2-2.5 0-2.9-1.3-4.3-3.9-4.3-2.2 0-5.1 1.8-6.9 3.9l-3.3 20zm35.4.6c-3.9 0-7.3-.7-11.2-2.2l6.8-38.7 6-1.2-2.9 16.3h.2c2.5-2.4 5.2-3.6 8-3.6 6.1 0 9.1 4.4 9.1 11.1-.1 9.8-5.9 18.3-16 18.3zm4.8-24.6c-2.3 0-5.2 1.8-7 3.9l-2.7 14.7c1.8.7 3.7 1 5.8 1 5.3 0 9.1-5.8 9.1-13.1 0-4.2-1.8-6.5-5.2-6.5zm22.3 12.9c-.1.9-.2 1.8-.2 2.5 0 2.9 1.5 4.3 4.2 4.3 2.2 0 5.5-1.8 7.5-3.9l3.5-20h5.8l-5 28.2h-3.8l-.6-3h-.2c-2.8 2.5-6.2 3.6-9.4 3.6-5.2 0-8-2.5-8-7.6 0-1 .1-2.4.3-3.7l3-17.6h5.8l-2.9 17.2zm41.8-11.7c-.7-.3-1.4-.6-2.8-.6-3.1 0-5.7 3.1-6.9 6.9l-2.9 16.5h-5.8l5-28.2h4l.3 4.4h.2c2-2.9 4.2-5 8.1-5 1.4 0 2.4.2 3.5.6l-2.7 5.4zm19.3 23.6l.7-3.6h-.2c-2.5 2.2-4.9 3.2-8 3.2-6.4 0-9.2-3.8-9.2-11.1 0-9.8 6.2-18.2 16.2-18.2 3.9 0 7.4.7 11.2 2.2l-5 27.8c-1.4 7.4-6.5 10.9-14.6 10.9-3.8 0-6.6-.8-9.6-2.3l2.5-4.6c2.3 1.2 4.7 2.2 7.7 2.2 4.6.1 7.5-1.7 8.3-6.5zm-10.8-11.9c0 4.5 1.7 6.7 5.3 6.7 2.2 0 5-1.5 7-3.9l2.7-14.8c-1.8-.7-3.5-1-5.7-1-5.3.1-9.3 5.9-9.3 13zm27.9 4.3c2 0 3.7 1.6 3.7 3.7 0 2-1.6 3.7-3.7 3.7-2 0-3.7-1.6-3.7-3.7 0-2 1.6-3.7 3.7-3.7zm25.5-21.9c2.4 0 4.4.5 6 1.3l2.3-12.8 6-1.2-7.3 41.5h-3.8l-.6-3h-.2c-2.5 2.2-5.3 3.6-9 3.6-5.8 0-9.2-3.8-9.2-11.1 0-10 5.9-18.3 15.8-18.3zm2.7 20.4l2.4-13.9c-1.5-1.2-3.5-1.8-5.9-1.8-5.3 0-9.1 5.7-9.1 12.9 0 4.5 2.1 6.7 5.7 6.7 2.7.2 4.8-1.4 6.9-3.9zm13-2.3c0-9.8 5.8-18.2 15.8-18.2 5.4 0 9.2 2.7 9.2 7.4 0 5.8-5.1 9.8-19.2 9.8 0 4.5 1.4 7.3 6.4 7.3 2.4 0 4.4-.7 6.7-1.8l1.6 4.3c-3 1.5-6.1 2.3-9.7 2.3-7.3.1-10.8-4.3-10.8-11.1zm6.5-5.8c10.6 0 12.7-2.2 12.7-4.6 0-2-1.7-3-4-3-4.1 0-7.4 3.3-8.7 7.6zm40.5 7.6c0 5.7-5.2 9.4-12.1 9.4-3.5 0-6.6-.8-9-2l2.7-4.4c2 1 4.3 1.6 7 1.6 2.5 0 5.7-1.3 5.7-4 0-2.4-2.5-3.2-5.2-4.3-2.8-1-6.6-3.3-6.6-7.9 0-5.5 4.7-8.3 11-8.3 3.1 0 6.4.7 9 2l-2.7 4.3c-2.1-.8-4.3-1.4-6.7-1.4-2.7 0-4.9 1.2-4.9 3.3 0 2.2 2.5 3.2 4.4 4 3.4 1.3 7.4 3.5 7.4 7.7zm5.4-14.6l2-4.9h9.8l-5 28.2h-5.8l4-23.4h-5.1v.1zm10.2-16.5c2 0 3.6 1.5 3.6 3.5s-1.6 3.5-3.6 3.5-3.5-1.5-3.5-3.5c.1-1.9 1.7-3.5 3.5-3.5zm22.1 40.7l.7-3.6h-.2c-2.5 2.2-4.9 3.2-8 3.2-6.4 0-9.2-3.8-9.2-11.1 0-9.8 6.2-18.2 16.2-18.2 3.9 0 7.4.7 11.2 2.2l-5 27.8c-1.4 7.4-6.5 10.9-14.6 10.9-3.8 0-6.6-.8-9.6-2.3l2.5-4.6c2.3 1.2 4.7 2.2 7.7 2.2 4.6.1 7.4-1.7 8.3-6.5zm-10.9-11.9c0 4.5 1.7 6.7 5.4 6.7 2.2 0 5-1.5 7-3.9l2.7-14.8c-1.8-.7-3.5-1-5.7-1-5.3.1-9.4 5.9-9.4 13zm30.1 11.1h-5.8l5-28.2h4l.6 3h.2c2.8-2.5 5.3-3.6 8.5-3.6 5.2 0 7.6 2.5 7.6 7.6 0 1-.1 2.4-.3 3.7l-3.1 17.6h-5.8l3-17.2c.1-.9.2-1.8.2-2.5 0-2.9-1.3-4.3-3.9-4.3-2.2 0-5.1 1.8-6.9 3.9l-3.3 20zm46.7-38.8h5.3l-29.5 47.5h-5.3l29.5-47.5zm43.1 10.5l-12.1 28.2h-7.3l-1.2-20.4h-.1l-7.7 20.4h-7.2l-3.2-28.2h5.2l2.5 21.9h.2l8-21.9h6.2l1.4 21.9h.2l9.2-21.9h5.9zm26.4 1.6l-4.7 26.7h-3.8l-.6-3h-.2c-2.3 2.2-5 3.6-8.4 3.6-6.1 0-8.8-4.4-8.8-11.1 0-9.8 5.9-18.2 15.8-18.2 4.2 0 7.4.9 10.7 2zm-20.7 15.6c0 4.2 1.4 6.7 4.6 6.7 2.7 0 5-1.5 6.9-4l2.5-14.7c-1.5-.6-3.1-1-5.1-1-5.1.1-8.9 5.9-8.9 13zm43.2 2.3c0 5.7-5.2 9.4-12.1 9.4-3.5 0-6.6-.8-9-2l2.7-4.4c2 1 4.3 1.6 7 1.6 2.5 0 5.7-1.3 5.7-4 0-2.4-2.5-3.2-5.2-4.3-2.8-1-6.6-3.3-6.6-7.9 0-5.5 4.7-8.3 11-8.3 3.1 0 6.4.7 9 2l-2.7 4.3c-2.1-.8-4.3-1.4-6.7-1.4-2.7 0-4.9 1.2-4.9 3.3 0 2.2 2.5 3.2 4.4 4 3.3 1.3 7.4 3.5 7.4 7.7zm12.6-26.4l5.9-1.2-1.4 8h8.5l-2 4.9h-7.4l-2.7 15.4c0 .3-.1.7-.1 1 0 2.1 1.4 2.8 3.2 2.8 1.4 0 2.5-.2 4.2-.8l.6 4.6c-2.2.7-4.2 1-6.2 1-4.4 0-7.5-1.7-7.5-6.5 0-.7 0-1.5.2-2.4l2.7-15h-4.9l.8-4.9h4.9l1.2-6.9zm13.5 24.6c0-9.8 5.8-18.2 15.8-18.2 5.4 0 9.2 2.7 9.2 7.4 0 5.8-5.1 9.8-19.2 9.8 0 4.5 1.4 7.3 6.4 7.3 2.4 0 4.4-.7 6.7-1.8l1.6 4.3c-3 1.5-6.1 2.3-9.7 2.3-7.2.1-10.8-4.3-10.8-11.1zm6.6-5.8c10.6 0 12.7-2.2 12.7-4.6 0-2-1.7-3-4-3-4.2 0-7.5 3.3-8.7 7.6zm-1657.1-129.5c-14.9 0-27 12-27 26.9s12.1 26.9 27 26.9 27-12 27-26.9c.1-14.8-12-26.9-27-26.9zm126.5 84.8c-13.1 24.5-53.9 14-60.5 38.9-4.9 18.2 12.6 45.9 43 54.7 29-21 33.1-59.2 17.5-93.6zm-160.8 92.2c-6.7 32-16.6 47.4-47.9 58.6l9.5 24.9c41-14.7 56.7-35.8 65.4-77.7l7.9 1c-1.8 40.3.2 71.8 1.4 108.7l28-.5c-2.2-66.6-7.6-133.1 10.4-200.7 28.6-1.2 56.6-6.1 82.6-18.8l-12.4-24.4c-26.4 12.9-62.6 17.2-100.3 16.1-23.7-.7-31.9 9.9-34.2 29.1l-10.4 83.7zm194.4-1460.4c0-32 8.7-62.8 24.3-89.9v-.1c15.5-26.8 38-49.7 66-65.8l32 55.7c-17.8 10.3-32.2 24.9-42.3 42.4-9.9 17.1-15.4 37-15.4 57.8l-64.6-.1zm32.2 128.9c-43.5-37.3-107.4-64.4-170.2-14.9 85.7 77 97.8 201.9 54.3 307.6 29 15.8 75.9 29.7 115.8 29.7 40.1 0 87-13.9 115.8-29.7-43.4-105.6-31.4-230.5 54.4-307.6-62.7-49.5-126.6-22.4-170.1 14.9zm0 386.8c-82.1 0-136.6-25.9-199.1-72.5 61.6-126.7 64.6-227.8-58.8-314.3 44.9-116 183.1-130.6 257.9-77.6 74.8-53 212.9-38.3 257.9 77.6-123.4 86.5-120.4 187.6-58.8 314.3-62.5 46.6-117 72.5-199.1 72.5zM2610 363.4c59 0 83.2-42.2 83.2-99.8s-24.1-99.8-83.2-99.8c-59 0-83.2 42.2-83.2 99.8s24.2 99.8 83.2 99.8zm0-162c28 0 41 25.8 41 62.1 0 36.4-13.1 62.1-41 62.1-28 0-41-25.8-41-62.1s13-62.1 41-62.1zm141.9 159.2h39.7V254.3h38l5.5-35.1h-125.3v35.1h42.1zm130.3 0l25.3-43h.8l27.2 45.8 41-2.8-45.4-72.7 42.6-68.7h-43.5l-21.9 39.9h-.8l-22.2-39.9H2842l43 68.7-45.7 72.7zm170.5 2.8c41 0 67.9-25.8 67.9-73.5s-26.9-73.5-67.9-73.5-67.9 25.8-67.9 73.5c0 47.6 26.9 73.5 67.9 73.5zm0-111.8c16.6 0 27.5 12.5 27.5 38.2 0 25.8-10.9 38.2-27.5 38.2s-27.5-12.5-27.5-38.2 10.9-38.2 27.5-38.2zm114.8 144.2v-35.2h79v35.2h34.4l5.5-70.5H3264V219.2h-103.1v14.1c0 46-1.2 68.7-14.4 92.1h-18.8l5.5 70.5h34.3zm29.7-139.2v-2.2h26.9v70.9h-37.4c7.4-16.9 10.5-42.1 10.5-68.7zm229.7-37.4h40v141.4h-40zm-13 95.9c0-28.5-20-45.5-50.5-45.5H3347v-50.5h-40v141.4h56.2c30.8.1 50.7-16.9 50.7-45.4zm-66.8 10.3v-24.9h12.2c8.3 0 14.1 3.9 14.1 12.5s-5.8 12.5-14.1 12.5l-12.2-.1zm-806.5 151.8v56.6h12V510h18.7v23.8h12v-56.6h-12v21.9h-18.7v-21.9zm92.5 11l1.6-11h-33.6v56.6h33.6v-11h-22.4V510h18.4v-10.9h-18.4v-10.9zm40.2-.8c3.5 0 6.7.8 10.2 2.5l4.9-9.8c-5.2-2.5-10.2-3.7-15.8-3.7-17.4 0-24.1 12.2-24.1 29.1 0 16.9 6.7 29.1 24.1 29.1 6.1 0 11.7-1.5 16.7-4.4l-5-9.7c-3.6 2.1-7.3 3.1-11.1 3.1-7.5 0-12.2-7.2-12.2-18.1-.1-11 4.7-18.1 12.3-18.1zm50.3 47.2c17.2 0 24.3-12.2 24.3-29.1s-7-29.1-24.3-29.1c-17.2 0-24.3 12.2-24.3 29.1s7.1 29.1 24.3 29.1zm0-47.2c8.2 0 12 7.5 12 18.1 0 10.6-3.8 18.1-12 18.1s-12-7.5-12-18.1c0-10.6 4-18.1 12-18.1zm59.1-10.2h-19.3v56.6h12v-19.1h7.4c10.7 0 18.8-6.6 18.8-18.7s-8.2-18.8-18.9-18.8zm-.6 26.5h-6.8v-15.5h6.8c3.9 0 7 2.9 7 7.7 0 4.9-3.1 7.8-7 7.8zm26.7-15.5h15.9v45.6h12v-45.6h14.5l1.6-11h-44zm89.1 9.3h.4v36.3h11.9v-56.6h-10.9l-22.2 36.4h-.2v-36.4h-12v56.6h11zm49.3-20.3H2928v56.6h12v-19.1h7.4c10.7 0 18.8-6.6 18.8-18.7s-8.1-18.8-19-18.8zm-.4 26.5h-6.8v-15.5h6.8c3.9 0 7 2.9 7 7.7-.1 4.9-3.1 7.8-7 7.8zm55.2 18l16.7-44.5h-13.2L2996 504h-.2l-10.6-26.8h-13.4l16.3 39.3h3.6l-1.2 3.1c-1.3 3.1-2.8 3.9-4.2 3.9-1.3 0-2.3-.3-3.2-1l-5.4 9.2c2.9 2.1 6.4 2.9 9.7 2.9 7.7 0 11.9-5.8 14.6-12.9zm59.2-33.5l1.7-11h-33.6v56.6h33.6v-11h-22.4V510h18.3v-10.9h-18.3v-10.9zm56.8-11l-11.7 33.2h-.2l-11.8-33.2h-12.4l-5.3 56.6h12l3-32.2h.3l8.7 24.7h11.1l8.7-24.7h.2l3 32.2h12l-5.3-56.6zm33 0v56.6h16.6c11.8 0 19.5-5.9 19.5-17.4 0-11.6-7.9-17.4-19.5-17.4h-4.7v-21.7H3151zm16 32.5c5.5 0 7.9 2.8 7.9 6.6 0 3.6-2.3 6.6-7.7 6.6h-4.2v-13.1h4v-.1zm24.5-32.5h12v56.6h-12zm61.8 11l1.6-11h-33.6v56.6h33.6v-11h-22.5V510h18.5v-10.9h-18.5v-10.9zm65.5 46.4c17.2 0 24.3-12.2 24.3-29.1s-7-29.1-24.3-29.1c-17.2 0-24.3 12.2-24.3 29.1s7.1 29.1 24.3 29.1zm0-47.2c8.2 0 12 7.5 12 18.1 0 10.6-3.8 18.1-12 18.1s-12-7.5-12-18.1c0-10.6 3.8-18.1 12-18.1zm59.5 46.4v-45.6h14.4l1.6-11h-44v11h16.1v45.6zm38-29.3l-16.6 29.3h13.6l10.2-20.1h.3l10.7 20.9 13.2-.8-16.6-29.3 15-27.3h-13.6l-8.7 18.4h-.3l-8.6-18.4h-13.6zm37.9 1c0 16.9 7 29.1 24.3 29.1 17.2 0 24.3-12.2 24.3-29.1 0-16.9-7-29.1-24.3-29.1s-24.3 12.3-24.3 29.1zm24.2-18.1c8.2 0 12 7.5 12 18.1 0 10.6-3.8 18.1-12 18.1s-12-7.5-12-18.1c0-10.6 3.8-18.1 12-18.1zm42.3 58.3v-11.9h33.6v11.9h10.4l1.6-22.9h-7.3v-45.6h-36.3v6.4c0 18.6-1.7 31.2-8 39.3h-6l1.6 22.9h10.4zm13.5-55.7v-1.7h12.7V523h-19.3c4.3-8.2 6.6-19 6.6-33zm80.8 26.3c0-11.5-7.9-17.4-19.5-17.4h-4.7v-21.7h-12v56.6h16.6c11.8 0 19.6-5.8 19.6-17.5zm-24.3 6.5v-13.1h4.2c5.5 0 7.9 2.8 7.9 6.6 0 3.6-2.3 6.6-7.7 6.6h-4.3v-.1zm28.6-45.6h12v56.6h-12zm-1059.4 277c13.2 0 22.2-9.1 22.2-24.5s-9-24.5-22.2-24.5-22.2 9.1-22.2 24.5 9.1 24.5 22.2 24.5zm0-39.1c6.1 0 10.5 5.4 10.5 14.6s-4.4 14.6-10.5 14.6-10.5-5.4-10.5-14.6 4.5-14.6 10.5-14.6zm30.5 14.6c0 13.6 8.2 24.5 23.4 24.5 4.9 0 9.5-.9 13.4-2.7l-3.7-9c-2.9 1.2-6.7 1.8-9.7 1.8-6.8 0-11.8-5.9-11.8-14.6s5.1-14.6 11.9-14.6c3 0 6.2.6 9.1 1.7l3.7-9c-3.9-1.6-9-2.5-13.4-2.5-15.1-.1-22.9 10.8-22.9 24.4zM2631 716h14.4v37.3h11.5V716h13l1.9-9.8H2631zm50.4 1.6c4.4-1.6 8.5-2.5 12.6-2.5 5.7 0 8 2.8 8 7.3v3.1h-8.8c-10.4 0-17.7 5.1-17.7 14.1 0 9.6 5.7 14.1 14.6 14.1 5.3 0 9-1.2 12.4-4.5h.3c1.5 3 4.2 4.5 8.3 4.5 2.3 0 5.2-.3 6.6-.9v-8.9h-1c-2.1 0-3.3-1-3.3-3.3v-17.9c0-9.8-3.9-17.3-18.2-17.3-6 0-11.4 1-17.1 3.1l3.3 9.1zm20.5 22.1c-2.5 2.9-6.2 4.6-9.9 4.6-2.8 0-5.1-1.6-5.1-4.9 0-3 2.4-5.2 6.7-5.2h8.4v5.4h-.1zm45.4 13.6V716h13.1l1.8-9.8h-40.8v9.8h14.5v37.3zm49.3-47.1l-10.8 17.9h-4.2v-17.9h-11.5v47.1h11.5v-19.4h4.1l11.7 20.3 11.8-.9-14.6-24.5 13.7-22.6zm61.3 47.1v-47.1h-10.6l-19 28.1h-.2v-28.1h-11.5v47.1h10.4l19.1-28.3h.2v28.3zm58.4.9c6 0 11.8-1.6 16.3-3.9l-3.9-9c-3.2 1.6-7.9 3-11.8 3-6.1 0-11.1-3.9-12.2-11.1h29.3c.3-2.5.6-5.8.6-7.2 0-13.2-7.6-20.9-20-20.9-13.3 0-21.6 9-21.6 24.5s9.4 24.6 23.3 24.6zm-1.6-39.1c6 0 9.4 3.9 9.4 9.4h-19.3c1.1-6.2 5-9.4 9.9-9.4zm35.7-8.9v5.2c0 15.9-1.3 23.8-5.9 32.1h-6.2l1.8 21.6h9.6v-11.8h29.1v11.8h9.6l1.8-21.6h-7.5v-37.2h-32.3v-.1zm20.9 37.2h-14.6c3.8-7.2 4.7-16.9 4.7-27.4h9.9v27.4zm38.2-20.5V706h-11.4v47.1h18.5c10.2 0 16.9-5.5 16.9-15s-6.7-15.2-16.9-15.2h-7.1zm12.2 15c0 3.1-2.3 5.4-6.1 5.4h-6.1v-10.9h6.1c3.8.1 6.1 2.4 6.1 5.5zm17.3-31.7h11.4v47.1H3039zm47.1 11.4c-3.6 0-6.6 3-6.6 6.6s3 6.6 6.6 6.6 6.6-3 6.6-6.6-3-6.6-6.6-6.6zm30-1.6h14.6v37.3h11.3V716h13.1l1.9-9.8h-40.9zm86.2 10c0-13.2-7.6-20.9-20-20.9-13.3 0-21.6 9-21.6 24.5s9.5 24.5 23.3 24.5c6 0 11.8-1.6 16.3-3.9l-3.9-9c-3.2 1.6-7.9 3-11.8 3-6.1 0-11.1-3.9-12.2-11.1h29.3c.3-2.4.6-5.7.6-7.1zm-29.8-1.6c1.2-6.1 5.1-9.4 9.9-9.4 6 0 9.4 3.9 9.4 9.4h-19.3zm61.2 28.9V716h13.2l1.8-9.8h-40.9v9.8h14.6v37.3zm33.7-43.1h-.3l-1.8-4h-8.7v67.5l11.4-1.8v-19.2c3 1 6.8 1.6 10.9 1.6 14.1 0 20.1-10.3 20.1-24.5s-6-24.5-19.3-24.5c-5-.1-9.3 1.9-12.3 4.9zm19.9 19.5c0 9.2-3.9 14.6-10 14.6-3.5 0-6.7-.9-9.2-2.5v-22.1c2.5-2.9 5.8-4.6 8.9-4.6 6.8 0 10.3 6 10.3 14.6zm34.1 24.1c5.3 0 9-1.2 12.4-4.5h.3c1.5 3 4.2 4.5 8.3 4.5 2.3 0 5.2-.3 6.6-.9v-9h-1c-2.1 0-3.3-1-3.3-3.3v-17.9c0-9.8-3.9-17.3-18.2-17.3-6 0-11.4 1-17.1 3.1l3.5 9.2c4.4-1.6 8.5-2.5 12.6-2.5 5.7 0 8 2.8 8 7.3v3.1h-8.8c-10.4 0-17.7 5.1-17.7 14.1-.2 9.5 5.5 14.1 14.4 14.1zm3.4-19.5h8.4v5.3c-2.5 2.9-6.2 4.6-9.9 4.6-2.8 0-5.1-1.6-5.1-4.9-.1-2.9 2.3-5 6.6-5zm44.9-18.3h15.1v37.3h11.4v-47.1h-38v47.1h11.5zm54.8 9.6c-10.4 0-17.7 5.1-17.7 14.1 0 9.6 5.7 14.1 14.6 14.1 5.3 0 9-1.2 12.4-4.5h.3c1.5 3 4.2 4.5 8.3 4.5 2.3 0 5.2-.3 6.6-.9v-9h-1c-2.1 0-3.3-1-3.3-3.3v-17.9c0-9.8-3.9-17.3-18.2-17.3-6 0-11.4 1-17.1 3.1l3.5 9.2c4.4-1.6 8.5-2.5 12.6-2.5 5.7 0 8 2.8 8 7.3v3.1h-8.8zm8.8 14.1c-2.5 2.9-6.2 4.6-9.9 4.6-2.8 0-5.1-1.6-5.1-4.9 0-3 2.4-5.2 6.7-5.2h8.4v5.4h-.1zm25-33.5v47.1h11.5v-19.4h4l11.9 20.3 11.7-.9-14.7-24.5 13.8-22.6h-11.7l-10.9 17.9h-4.1v-17.9zm-894.7 103c-4.9 0-9.1 2.1-12.2 5h-.3l-1.8-4h-8.7v67.5l11.4-1.8v-19.2c3 1 6.8 1.6 10.9 1.6 14.1 0 20.1-10.3 20.1-24.5s-6-24.6-19.4-24.6zm-2.4 39c-3.5 0-6.7-.9-9.2-2.5v-22.1c2.5-2.9 5.8-4.6 8.9-4.6 6.9 0 10.4 6 10.4 14.6 0 9.3-3.9 14.6-10.1 14.6zm69.7 5.9l-3.9-9c-3.2 1.6-7.9 3-11.8 3-6.1 0-11.1-3.9-12.2-11.1h29.3c.3-2.5.6-5.8.6-7.2 0-13.2-7.6-20.9-20-20.9-13.3 0-21.6 9-21.6 24.5s9.5 24.5 23.3 24.5c6 .3 11.8-1.5 16.3-3.8zM2613 819c6 0 9.4 3.9 9.4 9.4h-19.3c1.1-6.2 5-9.4 9.9-9.4zm61.7 2.4c0-8.2-6.9-12.2-17.4-12.2-4.4 0-12.2.9-16.5 2.7l3.6 9.1c3.8-1.3 8.5-2 12-2 4.4 0 6.7 1.6 6.7 4.5 0 3.5-3 4.9-7 4.9h-5.8v9.1h5.9c6.1 0 9 2.1 9 5.3 0 3.3-3.7 5.3-8.9 5.3-4 0-9.2-.9-12.4-2.1l-3.6 9.1c3.9 1.7 10.9 2.9 16.3 2.9 13.2 0 20.2-5.7 20.2-14.1 0-6.2-3.8-10-10-11.5v-.2c5.4-1.6 7.9-5.7 7.9-10.8zm12.7-11.3v47.1h10.4l19-28.3h.3v28.3h11.4v-47.1h-10.4l-19.1 28.2h-.2v-28.2zm66.5 27.7h15.7v19.4h11.6v-47.1h-11.6V828h-15.7v-17.9h-11.5v47.1h11.5zm55.4-8.3c-10.4 0-17.7 5.1-17.7 14.1 0 9.6 5.7 14.1 14.6 14.1 5.3 0 9-1.2 12.4-4.5h.3c1.5 3 4.2 4.5 8.3 4.5 2.3 0 5.2-.3 6.6-.9v-9h-1c-2.1 0-3.3-1-3.3-3.3v-17.9c0-9.8-3.9-17.3-18.2-17.3-6 0-11.4 1-17.1 3.1l3.5 9.2c4.4-1.6 8.5-2.5 12.6-2.5 5.7 0 8 2.8 8 7.3v3.1h-8.8zm8.8 14.1c-2.5 2.9-6.2 4.6-9.9 4.6-2.8 0-5.1-1.6-5.1-4.9 0-3 2.4-5.2 6.7-5.2h8.4v5.4h-.1zm46.9-9c3.6 0 6.6-3 6.6-6.6 0-3.6-3-6.6-6.6-6.6s-6.6 3-6.6 6.6c0 3.6 3 6.6 6.6 6.6zm80.7 12.7h-7.5v-37.2h-32.3v5.2c0 15.9-1.3 23.8-5.9 32.1h-6.2l1.8 21.6h9.6v-11.8h29.1V869h9.6l1.8-21.7zm-18.9 0h-14.6c3.8-7.2 4.7-16.9 4.7-27.4h9.9v27.4zm65.1-17.3c0-13.2-7.6-20.9-20-20.9-13.3 0-21.6 9-21.6 24.5s9.5 24.5 23.3 24.5c6 0 11.8-1.6 16.3-3.9l-3.9-9c-3.2 1.6-7.9 3-11.8 3-6.1 0-11.1-3.9-12.2-11.1h29.3c.5-2.5.6-5.7.6-7.1zm-29.6-1.6c1.2-6.1 5.1-9.4 9.9-9.4 6 0 9.4 3.9 9.4 9.4h-19.3zm83.1 5.3c0-14.2-6-24.5-19.3-24.5-4.9 0-9.1 2.1-12.2 5h-.3l-1.8-4h-8.7v67.5l11.4-1.8v-19.2c3 1 6.8 1.6 10.9 1.6 14-.1 20-10.4 20-24.6zm-21.7 14.5c-3.5 0-6.7-.9-9.2-2.5v-22.1c2.5-2.9 5.8-4.6 8.9-4.6 6.9 0 10.4 6 10.4 14.6.1 9.3-3.9 14.6-10.1 14.6zm69.8 5.9l-3.9-9c-3.2 1.6-7.9 3-11.8 3-6.1 0-11.1-3.9-12.2-11.1h29.3c.3-2.5.6-5.8.6-7.2 0-13.2-7.6-20.9-20-20.9-13.3 0-21.6 9-21.6 24.5s9.5 24.5 23.3 24.5c6 .3 11.7-1.5 16.3-3.8zm-17.9-35.1c6 0 9.4 3.9 9.4 9.4h-19.3c1-6.2 5-9.4 9.9-9.4zm68.3 25c0-6.2-3.9-10-9.9-11.5v-.2c5.3-1.7 8.1-5.3 8.1-10.4 0-8.5-6.9-11.7-15.9-11.7h-19.6v47.1h21.5c10.5-.1 15.8-5.1 15.8-13.3zm-25.9-24.1h5.9c3.7 0 6.6 1.2 6.6 4.2s-2.4 4.2-6.6 4.2h-5.9v-8.4zm0 27.4v-9.9h7.5c4.4 0 6.9 1.3 6.9 4.9s-2.5 5.1-6.9 5.1l-7.5-.1zm78.6-13.6c0-15.4-9-24.5-22.2-24.5s-22.2 9.1-22.2 24.5 9 24.5 22.2 24.5 22.2-9.3 22.2-24.5zm-32.7 0c0-9.1 4.4-14.6 10.5-14.6s10.5 5.4 10.5 14.6c0 9.1-4.4 14.6-10.5 14.6-6.1-.1-10.5-5.5-10.5-14.6zm72.2-5.6c0-3.6-3-6.6-6.6-6.6s-6.6 3-6.6 6.6c0 3.6 3 6.6 6.6 6.6s6.6-3 6.6-6.6zm68.2 29.1l-14.7-24.4 13.7-22.7h-11.6l-10.9 17.9h-4.1v-17.9h-11.5v47.1h11.5v-19.4h4l11.9 20.4zm39.3-12c-3.2 1.6-7.9 3-11.8 3-6.1 0-11.1-3.9-12.2-11.1h29.3c.3-2.5.6-5.8.6-7.2 0-13.2-7.6-20.9-20-20.9-13.3 0-21.6 9-21.6 24.5s9.5 24.5 23.3 24.5c6 0 11.8-1.6 16.3-3.9l-3.9-8.9zm-13.8-26.2c6 0 9.4 3.9 9.4 9.4h-19.3c1-6.2 5-9.4 9.9-9.4zm42.3 37.4c3 1 6.8 1.6 10.9 1.6 14.1 0 20.1-10.3 20.1-24.5s-6-24.5-19.3-24.5c-4.9 0-9.1 2.1-12.2 5h-.3l-1.8-4h-8.7v67.5l11.4-1.8-.1-19.3zm0-32.8c2.5-2.9 5.8-4.6 8.9-4.6 6.9 0 10.4 6 10.4 14.6 0 9.2-3.9 14.6-10 14.6-3.5 0-6.7-.9-9.2-2.5v-22.1zm56.4 5.9c-10.4 0-17.7 5.1-17.7 14.1 0 9.6 5.7 14.1 14.6 14.1 5.3 0 9-1.2 12.4-4.5h.3c1.5 3 4.2 4.5 8.3 4.5 2.3 0 5.2-.3 6.6-.9v-9h-1c-2.1 0-3.3-1-3.3-3.3v-17.9c0-9.8-3.9-17.3-18.2-17.3-6 0-11.4 1-17.1 3.1l3.5 9.2c4.4-1.6 8.5-2.5 12.6-2.5 5.7 0 8 2.8 8 7.3v3.1h-8.8zm8.8 14.1c-2.5 2.9-6.2 4.6-9.9 4.6-2.8 0-5.1-1.6-5.1-4.9 0-3 2.4-5.2 6.7-5.2h8.4v5.4h-.1zm62.7-14.4h.5l2.3 28h11.3l-4.5-47.1h-12.1l-10.4 25.1h-.5l-10.4-25.1h-12.1l-4.5 47.1h11.3l2.3-28h.4l8.3 20.3h9.9zm55-.3v28.3h11.4v-47.1h-10.5l-18.9 28.2h-.4v-28.2h-11.4v47.1h10.4l19.1-28.3zm63.4-18.8h-11.6l-10.9 17.9h-4.2v-17.9h-11.4v47.1h11.4v-19.4h4.1l11.9 20.4 11.6-1-14.6-24.4zm45.9 37.7c-2.1 0-3.3-1-3.3-3.3v-17.9c0-9.8-3.9-17.3-18.2-17.3-6 0-11.4 1-17.1 3.1l3.5 9.2c4.4-1.6 8.5-2.5 12.6-2.5 5.7 0 8 2.8 8 7.3v3.1h-8.8c-10.4 0-17.7 5.1-17.7 14.1 0 9.6 5.7 14.1 14.6 14.1 5.3 0 9-1.2 12.4-4.5h.3c1.5 3 4.2 4.5 8.3 4.5 2.3 0 5.2-.3 6.6-.9v-8.9h-1.2zm-14.8-4.2c-2.5 2.9-6.2 4.6-9.9 4.6-2.8 0-5.1-1.6-5.1-4.9 0-3 2.4-5.2 6.7-5.2h8.4v5.4h-.1zm-1051.3 94c0-13.6-5.3-24.5-19.6-24.5-1.7 0-3.2.2-4.9.5v-21.7l-11.4 2.1v19.6c-1.5-.2-2.8-.5-4.9-.5-14.3 0-19.6 10.9-19.6 24.5s5.3 24.5 19.6 24.5c2.2 0 3.6-.2 4.9-.5v19.9l11.4-2.1v-17.8c1.2.2 2.5.5 4.9.5 14.2 0 19.6-11 19.6-24.5zm-35.8 14.2c-.9.2-2.1.3-3.5.3-6.7 0-9.6-5.9-9.6-14.6s3-14.6 9.6-14.6c1.4 0 2.7.2 3.5.3v28.6zm11.1 0v-28.4c.8-.2 2.1-.3 3.5-.3 6.7 0 9.6 5.9 9.6 14.6s-3 14.6-9.6 14.6c-1.4-.1-2.7-.3-3.5-.5zm55.2 10.3c13.2 0 22.2-9.1 22.2-24.5s-9-24.5-22.2-24.5-22.2 9.1-22.2 24.5 9 24.5 22.2 24.5zm0-39.1c6.1 0 10.5 5.4 10.5 14.6s-4.4 14.6-10.5 14.6-10.5-5.4-10.5-14.6 4.4-14.6 10.5-14.6zm48.9.9h10.5v37.2h11.4V914h-33v6c0 25.2-2.8 31.3-6.4 31.3-.9 0-1.6-.2-2.3-.6l-2.9 9.1c1.6 1.2 3.9 1.6 6.5 1.6 10.5 0 16.1-12.6 16.1-37.2v-.3h.1zm72.4 22.2c0-9.5-6.7-15.2-16.9-15.2h-8.3V914h-11.4v47.1h19.8c10.1.1 16.8-5.5 16.8-15zm-25.2 5.2v-10.9h7.4c3.8 0 6.1 2.3 6.1 5.4s-2.3 5.4-6.1 5.4h-7.4zm45.8-27.4h17l1.9-9.8h-30.3v47.1h11.4zm49.9 33.1c1.5 3 4.2 4.5 8.3 4.5 2.3 0 5.2-.3 6.6-.9v-8.9h-1c-2.1 0-3.3-1-3.3-3.3v-17.9c0-9.8-3.9-17.3-18.2-17.3-6 0-11.4 1-17.1 3.1l3.5 9.2c4.4-1.6 8.5-2.5 12.6-2.5 5.7 0 8 2.8 8 7.3v3.1h-8.8c-10.4 0-17.7 5.1-17.7 14.1 0 9.6 5.7 14.1 14.6 14.1 5.3 0 9-1.2 12.4-4.5h.1zm-.9-9.4c-2.5 2.9-6.2 4.6-9.9 4.6-2.8 0-5.1-1.6-5.1-4.9 0-3 2.4-5.2 6.7-5.2h8.4v5.4h-.1zm53.5-15.5c0-3.6-3-6.6-6.6-6.6s-6.6 3-6.6 6.6c0 3.6 3 6.6 6.6 6.6s6.6-3 6.6-6.6zm49.4 29.1v-37.3h13.1l1.8-9.8h-40.7v9.8h14.4v37.3zm60.2-27.3c0-13.2-7.6-20.9-20-20.9-13.3 0-21.6 9-21.6 24.5s9.5 24.5 23.3 24.5c6 0 11.8-1.6 16.3-3.9l-3.9-9c-3.2 1.6-7.9 3-11.8 3-6.1 0-11.1-3.9-12.2-11.1h29.3c.5-2.4.6-5.7.6-7.1zm-29.7-1.6c1.2-6.1 5.1-9.4 9.9-9.4 6 0 9.4 3.9 9.4 9.4H2953zm52.2 9.5h4.2l11.8 20.3 11.7-.9-14.7-24.5 13.8-22.6h-11.6l-11 17.9h-4.2v-17.9h-11.4v47.1h11.4zm54.9 20.3c4.9 0 9.5-.9 13.4-2.7l-3.7-9c-2.9 1.2-6.7 1.8-9.7 1.8-6.8 0-11.8-5.9-11.8-14.6s5.1-14.6 11.9-14.6c3 0 6.2.6 9.1 1.7l3.7-9c-3.9-1.6-9-2.5-13.4-2.5-15.2 0-23 10.9-23 24.5 0 13.4 8.2 24.4 23.5 24.4zm17.1-48v9.8h14.4v37.3h11.5v-37.3h13l1.9-9.8zm78.2 18.8h.2v28.3h11.4v-47.1h-10.4l-19 28.1h-.2v-28.1h-11.6v47.1h10.5zm64.1 28.3v-47.1h-33v6c0 25.2-2.8 31.3-6.4 31.3-.9 0-1.6-.2-2.3-.6l-2.9 9.1c1.6 1.2 3.9 1.6 6.5 1.6 10.5 0 16.1-12.6 16.1-37.2v-.6h10.5V961h11.6v.2zm33.6-30.4h-8.3V914h-11.4v47.1h19.8c10.2 0 16.9-5.5 16.9-15s-6.8-15.3-17-15.3zm-.9 20.5h-7.4v-10.9h7.4c3.8 0 6.1 2.3 6.1 5.4s-2.3 5.5-6.1 5.5zm48.7-12.7c3.6 0 6.6-3 6.6-6.6 0-3.6-3-6.6-6.6-6.6s-6.6 3-6.6 6.6c0 3.5 3 6.6 6.6 6.6zm55.1-25.5c-13.2 0-22.2 9.1-22.2 24.5s9 24.5 22.2 24.5 22.2-9.1 22.2-24.5c0-15.3-9-24.5-22.2-24.5zm0 39.1c-6.1 0-10.5-5.4-10.5-14.6 0-9.1 4.4-14.6 10.5-14.6s10.5 5.4 10.5 14.6-4.4 14.6-10.5 14.6zm55.9-36.7c-6.1 0-10.6 2.9-14.4 6.8h-.2c0-11.8 4.7-16.2 14.4-16.9 6.2-.5 12.7-2 18-4.6l-3.7-8.9c-4.9 2-8.5 2.8-15.5 3.5-15.2 1.4-23.6 7.6-23.6 36.6 0 18.8 6.9 30.3 22.2 30.3 13.2 0 22.8-8 22.8-23.3 0-15.9-8.4-23.5-20-23.5zm-2.8 36.7c-7 0-10.6-6.7-10.7-20.1 3.1-4.7 7.9-6.7 11.8-6.7 5.5 0 9.9 4.4 9.9 13.5s-4.7 13.3-11 13.3zm49.7-5.1h-.3l-10.4-33h-12.5l15.8 47.1h3.2l-1.8 6.2c-1 3.5-3.1 4.2-4.6 4.2-1.6 0-3.6-.7-4.9-1.2l-3.1 9.2c2.1.8 5.3 1.8 8.5 1.8 5.1 0 11.1-2.1 14.1-11.3l18.1-56.1h-12.2l-9.9 33.1zm56.5-10.7v-.2c5.3-1.7 8.1-5.3 8.1-10.4 0-8.5-6.9-11.7-15.9-11.7h-19.6v47.1h21.5c10.7 0 16.1-5.1 16.1-13.2-.2-6.2-4.1-10.1-10.2-11.6zm-16.1-12.5h5.9c3.7 0 6.6 1.2 6.6 4.2s-2.4 4.2-6.6 4.2h-5.9v-8.4zm7.5 27.4h-7.5v-9.9h7.5c4.4 0 6.9 1.3 6.9 4.9.1 3.5-2.5 5-6.9 5zm49.5-20.5h-8.3V914h-11.4v47.1h19.8c10.2 0 16.9-5.5 16.9-15s-6.9-15.3-17-15.3zm-1 20.5h-7.4v-10.9h7.4c3.8 0 6.1 2.3 6.1 5.4s-2.2 5.5-6.1 5.5zm-994 75.6c3 0 6.2.6 9.1 1.7l3.7-9c-3.9-1.6-9-2.5-13.4-2.5-15.2 0-23 10.9-23 24.5s8.2 24.5 23.4 24.5c4.9 0 9.5-.9 13.4-2.7l-3.7-9c-2.9 1.2-6.7 1.8-9.7 1.8-6.8 0-11.8-5.9-11.8-14.6.2-8.6 5.2-14.7 12-14.7zm34.1 37.4c3 1 6.8 1.6 10.9 1.6 14.1 0 20.1-10.3 20.1-24.5s-6-24.5-19.3-24.5c-4.9 0-9.1 2.1-12.2 5h-.3l-1.8-4h-8.7v67.5l11.4-1.8-.1-19.3zm0-32.8c2.5-2.9 5.8-4.6 8.9-4.6 6.9 0 10.4 6 10.4 14.6 0 9.2-3.9 14.6-10 14.6-3.5 0-6.7-.9-9.2-2.5v-22.1zm80.9 6.4c0-13.2-7.6-20.9-20-20.9-13.3 0-21.6 9-21.6 24.5s9.5 24.5 23.3 24.5c6 0 11.8-1.6 16.3-3.9l-3.9-9c-3.2 1.6-7.9 3-11.8 3-6.1 0-11.1-3.9-12.2-11.1h29.3c.3-2.5.6-5.7.6-7.1zm-29.8-1.6c1.2-6.1 5.1-9.4 9.9-9.4 6 0 9.4 3.9 9.4 9.4h-19.3zm83.6 40.5l1.8-21.6h-7.5V1018H2692v5.2c0 15.9-1.3 23.8-5.9 32.1h-6.2l1.8 21.6h9.6v-11.8h29.1v11.8h9.6v-.1zm-17.1-21.6h-14.6c3.8-7.2 4.7-16.9 4.7-27.4h9.9v27.4zm60.4 8.1l-3.7-9c-2.9 1.2-6.7 1.8-9.7 1.8-6.8 0-11.8-5.9-11.8-14.6s5.1-14.6 11.9-14.6c3 0 6.2.6 9.1 1.7l3.7-9c-3.9-1.6-9-2.5-13.4-2.5-15.2 0-23 10.9-23 24.5s8.2 24.5 23.4 24.5c5 0 9.6-1 13.5-2.8zm29.6 1.8v-37.3h13.1l1.9-9.8H2777v9.8h14.6v37.3zm60.4-13.2c0-6.2-3.9-10-9.9-11.6v-.2c5.3-1.7 8.1-5.3 8.1-10.4 0-8.5-6.9-11.7-15.9-11.7H2826v47.1h21.5c10.4 0 15.8-5 15.8-13.2zm-26.1-24.1h5.9c3.7 0 6.6 1.2 6.6 4.2s-2.4 4.2-6.6 4.2h-5.9v-8.4zm0 27.4v-9.9h7.5c4.4 0 6.9 1.3 6.9 4.9 0 3.6-2.5 5.1-6.9 5.1h-7.5v-.1zm71.8-2.9v-17.9c0-9.8-3.9-17.3-18.2-17.3-6 0-11.4 1-17.1 3.1l3.5 9.2c4.4-1.6 8.5-2.5 12.6-2.5 5.7 0 8 2.8 8 7.3v3.1h-8.8c-10.4 0-17.7 5.1-17.7 14.1 0 9.6 5.7 14.1 14.6 14.1 5.3 0 9-1.2 12.4-4.5h.3c1.5 3 4.2 4.5 8.3 4.5 2.3 0 5.2-.3 6.6-.9v-8.9h-1c-2.2 0-3.5-1.1-3.5-3.4zm-11.4-.8c-2.5 2.9-6.2 4.6-9.9 4.6-2.8 0-5.1-1.6-5.1-4.9 0-3 2.4-5.2 6.7-5.2h8.4v5.4h-.1zm49 13.6h11.5v-37.3h17l1.8-9.8h-30.3zm78.5 0V1018h-10.5l-19.1 28.2h-.2V1018h-11.4v47.1h10.4l19-28.3h.2v28.3zm44.1-47.1H3039v47.1h11.4v-37.3h17zm48.2 47.1V1018h-10.5l-19 28.2h-.3V1018h-11.5v47.1h10.4l19.1-28.3h.3v28.3zm52.6-27.2c0-13.2-7.6-20.9-20-20.9-13.3 0-21.6 9-21.6 24.5s9.5 24.5 23.3 24.5c6 0 11.8-1.6 16.3-3.9l-3.9-9c-3.2 1.6-7.9 3-11.8 3-6.1 0-11.1-3.9-12.2-11.1h29.3c.4-2.5.6-5.7.6-7.1zm-29.8-1.6c1.2-6.1 5.1-9.4 9.9-9.4 6 0 9.4 3.9 9.4 9.4h-19.3zm68.2-.4h-15.8V1018h-11.5v47.1h11.5v-19.4h15.8v19.4h11.4V1018h-11.4zm66.2-17.9h11.4v47.1h-11.4zm-40.9 0v47.1h18.5c10.2 0 16.9-5.5 16.9-15s-6.7-15.2-16.9-15.2h-7V1018h-11.5zm17.5 26.4c3.8 0 6.1 2.3 6.1 5.4s-2.3 5.4-6.1 5.4h-6.1v-10.9h6.1zm-691.8 76.6c-13.3 0-21.6 9-21.6 24.5s9.5 24.5 23.3 24.5c6 0 11.8-1.6 16.3-3.9l-3.9-9c-3.2 1.6-7.9 3-11.8 3-6.1 0-11.1-3.9-12.2-11.1h29.3c.3-2.5.6-5.8.6-7.2-.1-13.1-7.8-20.8-20-20.8zm-9.8 19.2c1.2-6.1 5.1-9.4 9.9-9.4 6 0 9.4 3.9 9.4 9.4h-19.3zm75.9-18.2l-10.4 25h-.4l-10.5-25h-12l-4.6 47.1h11.4l2.2-28.1h.4l8.3 20.4h10l8.2-20.4h.4l2.3 28.1h11.3l-4.5-47.1zm65.9 0h-11.7l-10.8 17.9h-4.2V1122h-11.5v47.1h11.5v-19.4h4.1l11.8 20.3 11.7-.9-14.6-24.5zm26.8-1c-13.2 0-22.2 9.1-22.2 24.5s9 24.5 22.2 24.5 22.2-9.1 22.2-24.5c0-15.3-9.1-24.5-22.2-24.5zm0 39.1c-6.1 0-10.5-5.4-10.5-14.6s4.4-14.6 10.5-14.6 10.5 5.4 10.5 14.6-4.4 14.6-10.5 14.6zm53.9 0c-6.8 0-11.8-5.9-11.8-14.6s5.1-14.6 11.9-14.6c3 0 6.2.6 9.1 1.7l3.7-9c-3.9-1.6-9-2.5-13.4-2.5-15.2 0-23 10.9-23 24.5s8.2 24.5 23.4 24.5c4.9 0 9.5-.9 13.4-2.7l-3.7-9c-2.7 1-6.5 1.7-9.6 1.7zm17.1-28.3h14.6v37.3h11.3v-37.3h13.2l1.8-9.8h-40.9zm60.5 18.3h-.3V1122H2838v47.1h10.4l19-28.3h.3v28.3h11.4V1122h-10.4zm79.1 0h-.3V1122H2917v47.1h10.5l19.1-28.3h.2v28.3h11.4V1122h-10.4zm66-5.8v-.2c5.7-1.6 8.1-5.7 8.1-10.7 0-8.2-6.9-12.2-17.4-12.2-4.4 0-12.2.9-16.5 2.7l3.6 9.1c3.8-1.3 8.5-2 12-2 4.4 0 6.7 1.6 6.7 4.5 0 3.5-3 4.9-7 4.9h-5.8v9.1h5.9c6.1 0 9 2.1 9 5.3 0 3.3-3.7 5.3-8.9 5.3-4 0-9.2-.9-12.4-2.1l-3.6 9.1c3.9 1.7 10.9 2.9 16.3 2.9 13.2 0 20.2-5.7 20.2-14.1-.1-6.2-3.9-10.1-10.2-11.6zm18.9 3.3h24.2l1.9-10.3h-26.1zm37.6 21.5h11.4v-37.3h15.1v37.3h11.5V1122h-38zm71.3-48.1c-13.2 0-22.2 9.1-22.2 24.5s9 24.5 22.2 24.5 22.2-9.1 22.2-24.5c0-15.3-9.2-24.5-22.2-24.5zm0 39.1c-6.1 0-10.5-5.4-10.5-14.6s4.4-14.6 10.5-14.6 10.5 5.4 10.5 14.6-4.5 14.6-10.5 14.6zm69.9-38.1h-32.3v5.2c0 15.9-1.3 23.8-5.9 32.1h-6.2l1.8 21.6h9.6v-11.8h29.1v11.8h9.6l1.8-21.6h-7.5V1122zm-11.5 37.2h-14.6c3.8-7.2 4.7-16.9 4.7-27.4h9.9v27.4zm69.7-38.2c-13.3 0-21.6 9-21.6 24.5s9.5 24.5 23.3 24.5c6 0 11.8-1.6 16.3-3.9l-3.9-9c-3.2 1.6-7.9 3-11.8 3-6.1 0-11.1-3.9-12.2-11.1h29.3c.3-2.5.6-5.8.6-7.2-.1-13.1-7.7-20.8-20-20.8zm-9.9 19.2c1.2-6.1 5.1-9.4 9.9-9.4 6 0 9.4 3.9 9.4 9.4h-19.3zm78.1-18.2h-32.3v5.2c0 15.9-1.3 23.8-5.9 32.1h-6.2l1.8 21.6h9.6v-11.8h29.1v11.8h9.6l1.8-21.6h-7.5V1122zm-11.5 37.2h-14.6c3.8-7.2 4.7-16.9 4.7-27.4h9.9v27.4zm45.3-20.5h-7v-16.9h-11.4v47.1h18.5c10.2 0 16.9-5.5 16.9-15-.2-9.4-6.9-15.2-17-15.2zm-1 20.5h-6.1v-10.9h6.1c3.8 0 6.1 2.3 6.1 5.4s-2.3 5.5-6.1 5.5zm23.4-37.2h11.4v47.1h-11.4z"/></svg>