<svg data-name="Layer 1" xmlns="http://www.w3.org/2000/svg" viewBox="0 0 124.63 124.63"><path d="M78.927 44.029l-1.078-6.426-10.82.771-15.765-5.568-15.049 8.688L58.52 78.686l-9.56 5.719-13.835-23.071-10.55 17.66 6.953 15.216 13.174 1.286 11.859 15.079h12.212v-30.13l32.584-5.049.09-15.435-15.45-7.272-16.133 17.118-7.93-7.83L78.927 44.03zm-50.304 6.465l-7.78-12.973L50.496 20.4l18.344 6.656 18.327-1.306 2.764 16.466 22.684 10.677-.182 33.46-32.705 35.396H51.15l-12.295-15.634-14.789-1.444-12.05-26.374 16.607-27.804zM96.95 87.293l-17.1 2.758.098 15.708L96.95 87.293z" fill="#68a"/></svg>