<svg data-name="Layer 1" xmlns="http://www.w3.org/2000/svg" viewBox="0 0 124.63 124.63"><path d="M49.277 0h26.077v11.176H49.277V0zm32.655 71.067l-14.975 3.991-2.838-10.781 15.012-4.002-.042-13.705a16.787 16.787 0 00-33.574-.004l.01 28.493 20.224 34.985c2.667 4.97 8.977 3.398 10.656-1.5 5.567 3.475 11.807.17 11.453-6.612 5.08.995 9.872-3.842 6.901-8.637L81.932 71.067zm8.296-7.985l14.349 24.91c5.81 10.09 2.163 18.352-7.466 21.715a15.221 15.221 0 01-18.598 10.738c-7.728 6.659-16.441 5.537-22.264-4.55L34.376 78.013l.012-31.444a27.914 27.914 0 0155.828-.003l.012 16.516z" fill="#05baee" fill-rule="evenodd"/></svg>