<svg data-name="Layer 1" xmlns="http://www.w3.org/2000/svg" viewBox="0 0 124.63 124.63"><path d="M53.114 110.866l-17.813.253c-17.397.245-27.663-15.517-18.53-31.337l2.41-4.165-7.107-4.103 23.86-13.776V85.29l-7.106-4.103-2.41 4.182c-4.77 8.262-.107 14.744 8.752 14.618l17.813-.253.131 11.132zm36.508-50.297l-23.86-13.775 7.107-4.104-2.41-4.165c-4.762-8.246-12.707-7.499-17.029.238l-8.687 15.552-9.735-5.413 8.687-15.552c8.525-15.262 27.294-16.204 36.41-.412l2.411 4.182 7.106-4.102v27.551zM60.29 105.42l23.86-13.776v8.188h4.86c9.217 0 12.983-6.999 8.298-14.855l-9.124-15.3 9.56-5.718 9.124 15.3c9.14 15.328.009 31.75-17.858 31.75h-4.86v8.187L60.29 105.42z" fill="#93c01f"/></svg>