<svg id="Layer_1" data-name="Layer 1" xmlns="http://www.w3.org/2000/svg" viewBox="0 0 124.63014 124.63014"><defs><style>.cls-1{fill:#93c01f;}</style></defs><path class="cls-1" d="M53.11406,110.86593l-17.81291.25329c-17.39671.2452-27.66322-15.5171-18.52964-31.33716l2.40969-4.16528-7.10709-4.1032L35.93473,57.73817V85.28971l-7.1063-4.10319-2.40953,4.1828c-4.77049,8.26187-.10814,14.74332,8.75085,14.61765l17.81276-.2525.13155,11.13146ZM89.62244,60.569,65.76166,46.79367l7.10708-4.10319-2.41047-4.1652c-4.7609-8.24655-12.70669-7.499-17.02812.23788L44.74264,54.31539l-9.73494-5.4135,8.68751-15.55215C52.21988,18.08813,70.98906,17.1464,80.10566,32.938l2.41048,4.1821,7.1063-4.10249V60.569Zm-29.332,44.85127,23.86-13.77612v8.18815h4.85945c9.21672,0,12.98269-6.999,8.29834-14.85507L88.18364,69.67767l9.55968-5.71858,9.12478,15.29949c9.14,15.32809.00864,31.74959-17.85818,31.74959H84.15047v8.18824l-23.86-13.77613Z"/></svg>