<?xml version="1.0" encoding="utf-8"?>
<!-- Generator: Adobe Illustrator 24.3.0, SVG Export Plug-In . SVG Version: 6.00 Build 0)  -->
<svg version="1.1" xmlns="http://www.w3.org/2000/svg" xmlns:xlink="http://www.w3.org/1999/xlink" x="0px" y="0px"
	 viewBox="0 0 1040.75513 662.82458" enable-background="new 0 0 1040.75513 662.82458" xml:space="preserve">
<g id="Layer_1">
</g>
<g id="text">
	<g>
		<path fill="#FFFFFF" d="M328.67795,119.9827c-14.31641,0-29.35739-1.40895-45.16312-4.21975l1.80136-10.13213
			c71.23221,12.65688,126.03928-4.49161,167.5524-52.42417l7.77994,6.73742
			C425.83856,100.13924,382.38815,119.9827,328.67795,119.9827z"/>
	</g>
	<g>
		<path fill="#FFFFFF" d="M560.82086,21.81267c-4.98926-2.43729-9.63098-3.59801-14.61902-3.59801
			c-10.90631,0-17.75128,10.21014-17.75128,25.98987c0,15.77737,6.84497,25.98751,17.63544,25.98751
			c5.45258,0,10.78931-1.50824,15.89441-4.40887l7.19244,13.92399c-7.30829,4.17484-15.19818,6.26461-24.01587,6.26461
			c-24.94385,0-34.57361-17.63548-34.57361-41.76723c0-24.13412,9.62976-41.76723,34.57361-41.76723
			c8.12268,0,15.19934,1.62407,22.62469,5.21972L560.82086,21.81267z"/>
		<path fill="#FFFFFF" d="M574.40442,55.22551c0-19.95456,11.25385-30.74624,28.4248-30.74624s28.4248,10.79168,28.4248,30.74624
			c0,19.95693-11.25385,30.74624-28.4248,30.74624S574.40442,75.18244,574.40442,55.22551z M591.34253,55.22551
			c0,10.78932,4.52472,16.0114,11.48669,16.0114s11.48669-5.22208,11.48669-16.0114s-4.52472-16.0114-11.48669-16.0114
			S591.34253,44.4362,591.34253,55.22551z"/>
		<path fill="#FFFFFF" d="M658.87622,30.39637c3.71265-3.24814,8.23737-5.9171,14.50201-5.9171
			c16.70758,0,25.06079,13.11077,25.06079,30.74624s-9.04944,30.74624-26.68488,30.74624c-3.94434,0-7.65704-0.81322-11.021-1.85574
			v23.90009l-16.70758,2.31908V25.64h12.06586l2.32025,4.75638H658.87622z M681.50092,55.22551
			c0-9.39692-4.29303-16.0114-11.60254-16.0114c-3.13226,0-6.49744,1.3924-9.16522,4.29303V69.0313
			c2.90063,1.50823,6.03296,2.20561,9.6286,2.20561C676.74335,71.23692,681.50092,65.31982,681.50092,55.22551z"/>
		<path fill="#FFFFFF" d="M703.67059,25.64h52.44067l-2.31909,14.73484h-15.89557v44.4362h-16.59058v-44.4362h-17.63544V25.64z"/>
		<path fill="#FFFFFF" d="M764.82147,84.81104V25.64h16.70758v31.90697L803.45636,25.64h14.27032v59.17104h-16.70642V53.02226
			L779.0918,84.81104H764.82147z"/>
		<path fill="#FFFFFF" d="M848.8299,30.39637c3.71271-3.24814,8.23737-5.9171,14.50317-5.9171
			c16.70642,0,25.05963,13.11077,25.05963,30.74624s-9.04938,30.74624-26.68372,30.74624
			c-3.9455,0-7.65814-0.81322-11.02332-1.85574v23.90009l-16.70642,2.31908V25.64h12.06586l2.32147,4.75638H848.8299z
			 M871.45343,55.22551c0-9.39692-4.29303-16.0114-11.60132-16.0114c-3.13354,0-6.4975,1.3924-9.16644,4.29303V69.0313
			c2.90063,1.50823,6.0329,2.20561,9.63092,2.20561C866.69708,71.23692,871.45343,65.31982,871.45343,55.22551z"/>
		<path fill="#FFFFFF" d="M932.25916,25.64h17.6355l-22.16016,70.5419c-3.59686,11.3685-12.41461,14.1533-18.79504,14.1533
			c-4.17719,0-8.81775-1.3924-11.37085-2.43492l4.87341-13.69231c1.3924,0.58154,3.94434,1.3924,5.80127,1.3924
			c1.62402,0,3.82849-0.81085,4.6405-3.47981l2.20447-7.3095h-5.56964L891.88318,25.64h17.63544l10.90637,39.21647h0.34869
			L932.25916,25.64z"/>
		<path fill="#FFFFFF" d="M957.44293,84.81104V25.64h16.70758v31.90697L996.07788,25.64h14.27026v59.17104h-16.70642V53.02226
			l-21.92847,31.78877H957.44293z M1004.1994,6.49628c-4.64056,8.35439-11.60254,12.53159-20.30444,12.53159
			c-8.5849,0-15.66156-4.29303-20.30328-12.64742L973.33734,0c2.43726,5.21972,6.0329,8.00452,10.55762,8.00452
			S992.0177,5.21972,994.4538,0L1004.1994,6.49628z"/>
		<path fill="#FFFFFF" d="M1029.15381,85.50605c-3.48218-1.04253-6.03412-4.17484-6.03412-8.35203
			c0-5.22208,4.06024-8.81774,8.81781-8.81774c5.45251,0,8.81763,4.40887,8.81763,9.51276
			c0,10.21014-4.87329,18.33286-13.69104,23.43674l-4.52472-5.21972C1026.25317,93.04959,1028.80518,89.56741,1029.15381,85.50605z"
			/>
		<path fill="#FFFFFF" d="M527.75433,146.43355c3.71265-3.24815,8.23737-5.91711,14.50201-5.91711
			c16.70758,0,25.06079,13.11078,25.06079,30.74625s-9.04944,30.74625-26.68488,30.74625c-3.94434,0-7.65704-0.81322-11.021-1.85574
			v23.90009l-16.70758,2.31909v-84.69519h12.06586l2.32025,4.75638H527.75433z M550.37903,171.26268
			c0-9.39691-4.29303-16.0114-11.60254-16.0114c-3.13226,0-6.49744,1.3924-9.16522,4.29303v25.52415
			c2.90063,1.50824,6.03296,2.20563,9.6286,2.20563C545.62146,187.27409,550.37903,181.35698,550.37903,171.26268z"/>
		<path fill="#FFFFFF" d="M609.20966,196.3235c-3.13232,2.78479-7.65698,5.10388-13.68994,5.10388
			c-11.25385,0-19.49121-5.9171-19.49121-17.98299c0-11.25266,8.81775-17.86714,21.92853-17.86714h10.09308v-3.47981
			c0-4.1772-2.66779-6.84616-8.23737-6.84616c-4.75635,0-10.55762,1.04489-15.54688,2.90063l-5.10504-13.80579
			c7.30945-2.66896,14.61896-3.8297,22.04431-3.8297c18.09882,0,23.55261,9.51512,23.55261,21.81268v20.1886
			c0,2.90063,1.62402,4.17484,4.17596,4.17484h1.27661v12.29991c-1.97278,1.27657-6.14996,2.43492-9.39813,2.43492
			c-6.03296,0-9.04938-2.08742-11.13684-5.10388H609.20966z M597.37549,187.9691c3.71381,0,7.77399-1.50822,10.67462-4.05899
			v-6.03294h-10.09308c-3.94556,0-6.4975,2.20326-6.4975,5.33556C591.45953,186.2292,593.89563,187.9691,597.37549,187.9691z"/>
		<path fill="#FFFFFF" d="M657.01929,202.00893c-6.84613,0-16.01141-1.3924-21.00061-3.59801l5.33673-13.57411
			c4.52472,1.3924,10.32599,2.43729,15.31519,2.43729c6.4975,0,9.39813-2.32146,9.39813-5.33792
			c0-3.01648-2.90063-5.21973-9.39813-5.21973h-8.12152v-12.41576h8.00568c4.52472,0,6.96082-1.97157,6.96082-4.75638
			c0-2.43492-2.55194-4.29303-7.19366-4.29303c-5.21973,0-9.6286,0.81322-14.38611,2.20561l-5.33679-13.57411
			c5.4538-2.20561,15.19824-3.36635,20.76782-3.36635c15.66272,0,23.08801,6.15115,23.08801,16.12724
			c0,6.84616-4.06018,11.48671-10.09308,12.76326v0.46335c8.00452,1.73991,12.64502,6.73032,12.64502,13.924
			C683.00677,194.46776,673.60986,202.00893,657.01929,202.00893z"/>
		<path fill="#FFFFFF" d="M694.38354,186.11336c5.56842-9.74442,6.03296-19.25954,6.03296-38.51909v-5.9171h43.15967v44.43619
			h9.39807l-2.32147,29.4697h-14.38611v-14.73485h-33.06653v14.73485h-14.38495l-2.32147-29.4697H694.38354z M726.86853,186.11336
			V156.412h-11.25262v0.92906c0,11.13683-1.27661,21.69447-4.40887,28.77229H726.86853z"/>
		<path fill="#FFFFFF" d="M775.02808,177.5273c1.85687,6.26698,7.19366,9.7468,13.92395,9.7468
			c4.52472,0,9.97729-1.62407,13.80579-3.59802l6.03296,13.34245c-5.68542,2.90062-13.45831,4.9904-20.99945,4.9904
			c-17.17096,0-30.16589-10.78931-30.16589-30.74625c0-19.95456,10.79053-30.74625,27.96143-30.74625
			c16.1261,0,25.40833,9.97847,25.40833,24.3658c0,4.29303-0.34869,8.7019-1.27539,12.64507H775.02808z M795.79584,164.65056
			c0-5.68542-3.4798-9.39928-9.97729-9.39928c-5.80011,0-10.09314,3.24814-11.138,9.39928H795.79584z"/>
		<path fill="#FFFFFF" d="M872.72766,141.67717v59.17104h-16.70642V156.412h-11.48669
			c-0.57922,28.8905-6.61212,45.01538-19.25842,45.01538c-3.94434,0-7.42529-0.81085-9.62976-2.08742l3.59564-13.92162
			c0.92908,0.57918,2.08978,0.81085,2.90063,0.81085c3.94556,0,6.84619-5.80127,6.84619-32.25449v-12.29755H872.72766z"/>
		<path fill="#FFFFFF" d="M912.29871,181.35698l-10.67346,19.49123h-18.44751l13.34241-22.16019
			c-5.91711-3.13229-9.39807-9.16524-9.39807-17.16975c0-12.41576,8.35437-19.84109,21.11646-19.84109h25.05963v59.17104h-16.70642
			v-19.49123H912.29871z M916.59174,168.24622V156.412h-6.49628c-3.24933,0-6.03412,2.08742-6.03412,5.91711
			c0,3.82968,2.78479,5.9171,6.03412,5.9171H916.59174z"/>
		<path fill="#FFFFFF" d="M949.5495,200.84821v-59.17104h16.70764v31.90697l21.92731-31.90697h14.27032v59.17104h-16.70642
			v-31.78877l-21.92853,31.78877H949.5495z M996.30597,122.53345c-4.6405,8.35439-11.60254,12.53159-20.30444,12.53159
			c-8.58484,0-15.6615-4.29303-20.30322-12.64743l9.74561-6.38045c2.43726,5.21973,6.03296,8.00452,10.55762,8.00452
			c4.52472,0,8.12274-2.7848,10.55884-8.00452L996.30597,122.53345z"/>
	</g>
	<g>
		<path fill="#FFFFFF" d="M172.45921,49.92274c-31.32146,0-56.7078,25.27495-56.7078,56.44097
			c0,31.17059,25.38634,56.4339,56.7078,56.4339c31.31647,0,56.71112-25.26331,56.71112-56.4339
			C229.17033,75.19769,203.77568,49.92274,172.45921,49.92274L172.45921,49.92274z M437.37491,227.72855
			c-27.25998,51.40277-113.08475,29.22754-126.89346,81.55383c-10.07974,38.2121,26.50186,96.07034,90.09409,114.64334
			C461.68729,379.63721,470.25827,299.72385,437.37491,227.72855L437.37491,227.72855z M100.50547,420.80273
			C86.49644,487.84836,65.59135,520.13782,0,543.56445l19.85106,52.28723c86.03676-30.73004,118.95503-75.04138,137.0771-163.00458
			l16.48865,2.12759c-3.93513,84.43033,0.50124,150.68088,2.78635,227.84988l58.64212-0.92645
			c-4.60512-139.63232-16.05974-278.94052,21.67316-420.75864c60.12839-2.52451,118.53857-12.87439,173.09094-39.55124
			l-25.85681-51.19122c-55.32294,27.05092-131.24008,35.99268-210.01837,33.75287
			c-49.58899-1.40855-66.69858,20.80118-71.64368,61.04359L100.50547,420.80273L100.50547,420.80273z"/>
	</g>
	<rect fill-rule="evenodd" clip-rule="evenodd" fill="none" width="1040.75513" height="662.82458"/>
</g>
</svg>
