<svg xmlns="http://www.w3.org/2000/svg" viewBox="0 0 1040.755 662.825"><path fill="#FFF" d="M328.678 119.983c-14.316 0-29.357-1.41-45.163-4.22l1.801-10.132c71.232 12.657 126.04-4.492 167.553-52.424l7.78 6.737c-34.81 40.195-78.26 60.039-131.971 60.039zm232.142-98.17c-4.988-2.438-9.63-3.598-14.618-3.598-10.906 0-17.751 10.21-17.751 25.99 0 15.777 6.845 25.987 17.635 25.987 5.453 0 10.79-1.508 15.894-4.409l7.193 13.924c-7.308 4.175-15.198 6.265-24.016 6.265-24.944 0-34.574-17.636-34.574-41.767 0-24.135 9.63-41.768 34.574-41.768 8.123 0 15.2 1.624 22.625 5.22l-6.961 14.156zm13.584 33.413c0-19.955 11.254-30.747 28.425-30.747s28.425 10.792 28.425 30.747c0 19.956-11.254 30.746-28.425 30.746s-28.425-10.79-28.425-30.746zm16.939 0c0 10.789 4.524 16.01 11.486 16.01s11.487-5.221 11.487-16.01-4.525-16.012-11.487-16.012-11.486 5.222-11.486 16.012zm67.533-24.83c3.713-3.248 8.238-5.917 14.502-5.917 16.708 0 25.061 13.111 25.061 30.747s-9.05 30.746-26.685 30.746c-3.944 0-7.657-.813-11.02-1.856v23.9l-16.708 2.32V25.64h12.065l2.32 4.756h.465zm22.625 24.83c0-9.397-4.293-16.012-11.603-16.012-3.132 0-6.497 1.393-9.165 4.293v25.524c2.9 1.509 6.033 2.206 9.629 2.206 6.381 0 11.139-5.917 11.139-16.011zM703.67 25.64h52.441l-2.319 14.735h-15.895V84.81h-16.591V40.375h-17.635V25.64zm61.151 59.171V25.64h16.708v31.907l21.927-31.907h14.27v59.171H801.02V53.022l-21.928 31.789h-14.27zm84.009-54.415c3.713-3.248 8.237-5.917 14.503-5.917 16.706 0 25.06 13.111 25.06 30.747s-9.05 30.746-26.684 30.746c-3.946 0-7.658-.813-11.023-1.856v23.9l-16.707 2.32V25.64h12.066l2.322 4.756h.463zm22.623 24.83c0-9.397-4.293-16.012-11.6-16.012-3.134 0-6.498 1.393-9.167 4.293v25.524c2.9 1.509 6.033 2.206 9.63 2.206 6.381 0 11.137-5.917 11.137-16.011zM932.26 25.64h17.635l-22.16 70.542c-3.597 11.368-12.415 14.153-18.796 14.153-4.177 0-8.817-1.392-11.37-2.435l4.873-13.692c1.392.582 3.944 1.392 5.801 1.392 1.624 0 3.829-.81 4.64-3.48l2.205-7.309h-5.57L891.884 25.64h17.636l10.906 39.216h.349L932.26 25.64zm25.183 59.171V25.64h16.708v31.907l21.927-31.907h14.27v59.171h-16.706V53.022l-21.929 31.789h-14.27zm46.756-78.315c-4.64 8.355-11.602 12.532-20.304 12.532-8.585 0-15.662-4.293-20.303-12.648L973.337 0c2.438 5.22 6.033 8.005 10.558 8.005S992.018 5.22 994.454 0l9.745 6.496zm24.955 79.01c-3.482-1.042-6.034-4.175-6.034-8.352 0-5.222 4.06-8.818 8.817-8.818 5.453 0 8.818 4.41 8.818 9.513 0 10.21-4.873 18.333-13.69 23.437l-4.526-5.22c3.714-3.016 6.266-6.499 6.615-10.56zm-501.4 60.928c3.713-3.249 8.238-5.918 14.502-5.918 16.708 0 25.061 13.111 25.061 30.747s-9.05 30.746-26.685 30.746c-3.944 0-7.657-.813-11.02-1.856v23.9l-16.708 2.32v-84.696h12.066l2.32 4.757h.464zm22.625 24.829c0-9.397-4.293-16.012-11.603-16.012-3.132 0-6.497 1.393-9.165 4.293v25.524c2.9 1.509 6.033 2.206 9.629 2.206 6.381 0 11.139-5.917 11.139-16.011zm58.831 25.06c-3.133 2.785-7.657 5.104-13.69 5.104-11.254 0-19.491-5.917-19.491-17.983 0-11.252 8.817-17.867 21.928-17.867h10.093v-3.48c0-4.177-2.668-6.846-8.237-6.846-4.757 0-10.558 1.045-15.547 2.9l-5.105-13.805c7.31-2.669 14.619-3.83 22.044-3.83 18.099 0 23.553 9.516 23.553 21.813v20.189c0 2.9 1.624 4.175 4.176 4.175h1.276v12.3c-1.972 1.276-6.15 2.434-9.398 2.434-6.033 0-9.05-2.087-11.137-5.104h-.465zm-11.835-8.354c3.714 0 7.774-1.508 10.675-4.059v-6.033h-10.093c-3.946 0-6.497 2.203-6.497 5.336 0 3.016 2.436 4.756 5.915 4.756zm59.645 14.04c-6.847 0-16.012-1.392-21.001-3.598l5.336-13.574c4.525 1.392 10.326 2.437 15.316 2.437 6.497 0 9.398-2.321 9.398-5.338 0-3.016-2.9-5.22-9.398-5.22h-8.122v-12.415h8.006c4.524 0 6.96-1.972 6.96-4.757 0-2.435-2.551-4.293-7.193-4.293-5.22 0-9.629.814-14.386 2.206l-5.337-13.574c5.454-2.206 15.198-3.367 20.768-3.367 15.663 0 23.088 6.152 23.088 16.128 0 6.846-4.06 11.486-10.093 12.763v.463c8.004 1.74 12.645 6.73 12.645 13.924 0 10.674-9.397 18.215-25.988 18.215zm37.364-15.896c5.568-9.744 6.033-19.26 6.033-38.519v-5.917h43.16v44.436h9.397l-2.321 29.47h-14.386v-14.735H703.2v14.735h-14.385l-2.321-29.47h7.89zm32.485 0v-29.701h-11.253v.93c0 11.136-1.277 21.694-4.409 28.771h15.662zm48.159-8.586c1.857 6.267 7.194 9.747 13.924 9.747 4.525 0 9.977-1.624 13.806-3.598l6.033 13.343c-5.686 2.9-13.459 4.99-21 4.99-17.17 0-30.166-10.79-30.166-30.746 0-19.955 10.791-30.747 27.962-30.747 16.126 0 25.408 9.979 25.408 24.366 0 4.293-.348 8.702-1.275 12.645h-34.692zm20.768-12.876c0-5.686-3.48-9.4-9.977-9.4-5.8 0-10.094 3.248-11.138 9.4h21.115zm76.932-22.974v59.171H856.02v-44.436h-11.486c-.58 28.89-6.613 45.015-19.259 45.015-3.944 0-7.425-.81-9.63-2.087l3.596-13.922c.93.58 2.09.811 2.9.811 3.946 0 6.847-5.801 6.847-32.254v-12.298h43.739zm39.571 39.68l-10.674 19.491h-18.447l13.342-22.16c-5.917-3.132-9.398-9.165-9.398-17.17 0-12.415 8.354-19.84 21.117-19.84h25.06v59.17h-16.707v-19.491h-4.293zm4.293-13.11v-11.835h-6.497c-3.249 0-6.034 2.087-6.034 5.917 0 3.83 2.785 5.917 6.034 5.917h6.497zm32.958 32.601v-59.17h16.707v31.906l21.927-31.907h14.27v59.171h-16.706V169.06l-21.928 31.79h-14.27zm46.756-78.315c-4.64 8.355-11.603 12.532-20.304 12.532-8.585 0-15.662-4.293-20.304-12.647l9.746-6.38c2.437 5.219 6.033 8.004 10.558 8.004 4.524 0 8.122-2.785 10.558-8.005l9.746 6.496zM172.46 49.923c-31.322 0-56.709 25.275-56.709 56.44 0 31.171 25.387 56.435 56.708 56.435 31.317 0 56.711-25.264 56.711-56.434 0-31.166-25.394-56.441-56.71-56.441zm264.915 177.806c-27.26 51.402-113.085 29.227-126.894 81.553-10.08 38.212 26.502 96.07 90.095 114.644 61.111-44.289 69.682-124.202 36.799-196.197zm-336.87 193.074C86.496 487.848 65.591 520.138 0 543.564l19.851 52.288c86.037-30.73 118.955-75.042 137.077-163.005l16.489 2.128c-3.935 84.43.501 150.68 2.786 227.85l58.642-.927c-4.605-139.632-16.06-278.94 21.673-420.759 60.129-2.524 118.539-12.874 173.091-39.55l-25.856-51.192c-55.323 27.05-131.24 35.993-210.019 33.753-49.589-1.409-66.698 20.801-71.643 61.043l-21.586 175.61z"/><path clip-rule="evenodd" fill="none" d="M0 0h1040.755v662.825H0z"/></svg>