<svg data-name="Layer 1" xmlns="http://www.w3.org/2000/svg" viewBox="0 0 124.63 124.63"><path d="M56.659 28.196a31.153 31.153 0 014.196-15.578v-.022A31.174 31.174 0 0172.282 1.19l5.543 9.647a20.03 20.03 0 00-7.323 7.345l-.01-.005a20.048 20.048 0 00-2.657 10.018zm5.588 22.351c-7.54-6.466-18.626-11.175-29.511-2.586 14.858 13.353 16.95 35.004 9.42 53.308a46.168 46.168 0 0020.09 5.155 46.167 46.167 0 0020.092-5.155c-7.53-18.304-5.438-39.955 9.42-53.308-10.886-8.589-21.972-3.88-29.511 2.586zm0 67.053c-14.228 0-23.694-4.495-34.508-12.575C38.406 83.061 38.928 65.54 17.545 50.547c7.797-20.099 31.726-22.64 44.702-13.451 12.976-9.189 36.905-6.648 44.701 13.451-21.382 14.993-20.86 32.514-10.193 54.478-10.815 8.08-20.281 12.575-34.508 12.575z" fill="#ffd400"/></svg>