<?xml version="1.0" encoding="utf-8"?>
<!-- Generator: Adobe Illustrator 25.0.1, SVG Export Plug-In . SVG Version: 6.00 Build 0)  -->
<svg version="1.1" id="Layer_1" xmlns="http://www.w3.org/2000/svg" xmlns:xlink="http://www.w3.org/1999/xlink" x="0px" y="0px"
	 viewBox="0 0 5455.52539 907.52673" style="enable-background:new 0 0 5455.52539 907.52673;" xml:space="preserve">
<style type="text/css">
	.st0{fill:#FFFFFF;}
	.st1{fill:#93C01F;}
	.st2{fill:#FFD400;}
	.st3{fill-rule:evenodd;clip-rule:evenodd;fill:#05BAEE;}
	.st4{fill:#6688AA;}
	.st5{fill:#FF6400;}
</style>
<path id="_x3C_Compound_Path_x3E_" class="st0" d="M328.67795,263.1105c-14.31641,0-29.35739-1.40897-45.16312-4.21976
	l1.80136-10.13214c71.23221,12.65689,126.03928-4.49161,167.5524-52.42416l7.77994,6.73741
	C425.83856,243.26703,382.38815,263.1105,328.67795,263.1105z M560.82086,164.94046
	c-4.98926-2.43729-9.63098-3.59801-14.61902-3.59801c-10.90631,0-17.75128,10.21014-17.75128,25.98987
	c0,15.77737,6.84497,25.98752,17.63544,25.98752c5.45258,0,10.78931-1.50824,15.89441-4.40887l7.19244,13.924
	c-7.30829,4.17484-15.19818,6.2646-24.01587,6.2646c-24.94385,0-34.57361-17.63548-34.57361-41.76723
	c0-24.13412,9.62976-41.76723,34.57361-41.76723c8.12268,0,15.19934,1.62407,22.62469,5.21971L560.82086,164.94046z
	 M574.40442,198.3533c0-19.95456,11.25385-30.74625,28.4248-30.74625s28.4248,10.79169,28.4248,30.74625
	c0,19.95694-11.25385,30.74625-28.4248,30.74625S574.40442,218.31024,574.40442,198.3533z M591.34253,198.3533
	c0,10.78932,4.52472,16.0114,11.48669,16.0114s11.48669-5.22208,11.48669-16.0114s-4.52472-16.0114-11.48669-16.0114
	S591.34253,187.564,591.34253,198.3533z M658.87622,173.52417c3.71265-3.24815,8.23737-5.9171,14.50201-5.9171
	c16.70758,0,25.06079,13.11076,25.06079,30.74623s-9.04944,30.74625-26.68488,30.74625c-3.94434,0-7.65704-0.81322-11.021-1.85574
	v23.90009l-16.70758,2.31908v-84.69518h12.06586l2.32025,4.75638C658.41168,173.52417,658.87622,173.52417,658.87622,173.52417z
	 M681.50092,198.3533c0-9.39691-4.29303-16.0114-11.60254-16.0114c-3.13226,0-6.49744,1.3924-9.16522,4.29303v25.52417
	c2.90063,1.50822,6.03296,2.20561,9.6286,2.20561C676.74335,214.36472,681.50092,208.44762,681.50092,198.3533z
	 M703.67059,168.76779h52.44067l-2.31909,14.73485h-15.89557v44.43619h-16.59058v-44.4362h-17.63544V168.76779z
	 M764.82147,227.93884v-59.17105h16.70758v31.90697l21.92731-31.90697h14.27032v59.17104h-16.70642v-31.78877l-21.92847,31.78879
	H764.82147z M848.8299,173.52417c3.71271-3.24815,8.23737-5.9171,14.50317-5.9171c16.70642,0,25.05963,13.11076,25.05963,30.74623
	s-9.04938,30.74625-26.68372,30.74625c-3.9455,0-7.65814-0.81322-11.02332-1.85574v23.90009l-16.70642,2.31908v-84.69518h12.06586
	l2.32147,4.75638C848.36658,173.52417,848.8299,173.52417,848.8299,173.52417z M871.45343,198.3533
	c0-9.39691-4.29303-16.0114-11.60132-16.0114c-3.13354,0-6.4975,1.3924-9.16644,4.29303v25.52417
	c2.90063,1.50822,6.0329,2.20561,9.63092,2.20561C866.69708,214.36472,871.45343,208.44762,871.45343,198.3533z
	 M932.25916,168.76779h17.6355l-22.16016,70.5419c-3.59686,11.3685-12.41461,14.15331-18.79504,14.15331
	c-4.17719,0-8.81775-1.39241-11.37085-2.43492l4.87341-13.69232c1.3924,0.58154,3.94434,1.39241,5.80127,1.39241
	c1.62402,0,3.82849-0.81085,4.6405-3.47981l2.20447-7.30951h-5.56964l-17.63544-59.17105h17.63544l10.90637,39.21648h0.34869
	L932.25916,168.76779z M957.44293,227.93884v-59.17105h16.70758v31.90697l21.92737-31.90697h14.27026v59.17104h-16.70642v-31.78877
	l-21.92847,31.78877h-14.27032V227.93884z M1004.1994,149.62407c-4.64056,8.3544-11.60254,12.5316-20.30444,12.5316
	c-8.5849,0-15.66156-4.29303-20.30328-12.64743l9.74567-6.38045c2.43726,5.21973,6.0329,8.00452,10.55762,8.00452
	s8.12274-2.78479,10.55884-8.00452L1004.1994,149.62407z M1029.15381,228.63385c-3.48218-1.04253-6.03412-4.17485-6.03412-8.35204
	c0-5.22208,4.06024-8.81773,8.81781-8.81773c5.45251,0,8.81763,4.40886,8.81763,9.51276
	c0,10.21014-4.87329,18.33287-13.69104,23.43674l-4.52472-5.21971C1026.25317,236.17738,1028.80518,232.69521,1029.15381,228.63385z
	 M527.75433,289.56134c3.71265-3.24814,8.23737-5.91711,14.50201-5.91711c16.70758,0,25.06079,13.11078,25.06079,30.74625
	s-9.04944,30.74625-26.68488,30.74625c-3.94434,0-7.65704-0.8132-11.021-1.85574v23.90009l-16.70758,2.31909v-84.69519h12.06586
	l2.32025,4.75638H527.75433z M550.37903,314.39047c0-9.39691-4.29303-16.01138-11.60254-16.01138
	c-3.13226,0-6.49744,1.3924-9.16522,4.29303v25.52414c2.90063,1.50824,6.03296,2.20563,9.6286,2.20563
	C545.62146,330.40189,550.37903,324.48477,550.37903,314.39047z M609.20966,339.45129
	c-3.13232,2.78479-7.65698,5.10388-13.68994,5.10388c-11.25385,0-19.49121-5.91708-19.49121-17.98297
	c0-11.25266,8.81775-17.86716,21.92853-17.86716h10.09308v-3.4798c0-4.17722-2.66779-6.84616-8.23737-6.84616
	c-4.75635,0-10.55762,1.04489-15.54688,2.90063l-5.10504-13.80579c7.30945-2.66898,14.61896-3.82971,22.04431-3.82971
	c18.09882,0,23.55261,9.51514,23.55261,21.81268v20.1886c0,2.90063,1.62402,4.17484,4.17596,4.17484h1.27661v12.29993
	c-1.97278,1.27655-6.14996,2.43491-9.39813,2.43491c-6.03296,0-9.04938-2.0874-11.13684-5.10388H609.20966z M597.37549,331.09689
	c3.71381,0,7.77399-1.50821,10.67462-4.05899v-6.03293h-10.09308c-3.94556,0-6.4975,2.20325-6.4975,5.33554
	C591.45953,329.35699,593.89563,331.09689,597.37549,331.09689z M657.01929,345.13672c-6.84613,0-16.01141-1.3924-21.00061-3.59799
	l5.33673-13.57413c4.52472,1.3924,10.32599,2.43729,15.31519,2.43729c6.4975,0,9.39813-2.32144,9.39813-5.33792
	s-2.90063-5.21973-9.39813-5.21973h-8.12152V307.4285h8.00568c4.52472,0,6.96082-1.97159,6.96082-4.75638
	c0-2.43494-2.55194-4.29303-7.19366-4.29303c-5.21973,0-9.6286,0.8132-14.38611,2.2056l-5.33679-13.5741
	c5.4538-2.20563,15.19824-3.36636,20.76782-3.36636c15.66272,0,23.08801,6.15115,23.08801,16.12726
	c0,6.84616-4.06018,11.48669-10.09308,12.76324v0.46335c8.00452,1.73993,12.64502,6.73032,12.64502,13.92401
	C683.00677,337.59555,673.60986,345.13672,657.01929,345.13672z M694.38354,329.24115
	c5.56842-9.74442,6.03296-19.25952,6.03296-38.51907v-5.91711h43.15967v44.43619h9.39807l-2.32147,29.4697h-14.38611v-14.73483
	h-33.06653v14.73483h-14.38495l-2.32147-29.4697H694.38354z M726.86853,329.24115v-29.70135h-11.25262v0.92908
	c0,11.13681-1.27661,21.69446-4.40887,28.77228H726.86853z M775.02808,320.65509c1.85687,6.267,7.19366,9.7468,13.92395,9.7468
	c4.52472,0,9.97729-1.62405,13.80579-3.59802l6.03296,13.34247c-5.68542,2.9006-13.45831,4.99039-20.99945,4.99039
	c-17.17096,0-30.16589-10.78931-30.16589-30.74625c0-19.95456,10.79053-30.74625,27.96143-30.74625
	c16.1261,0,25.40833,9.97849,25.40833,24.36581c0,4.29303-0.34869,8.7019-1.27539,12.64505H775.02808z M795.79584,307.77835
	c0-5.68542-3.4798-9.39926-9.97729-9.39926c-5.80011,0-10.09314,3.24814-11.138,9.39926H795.79584z M872.72766,284.80496v59.17105
	h-16.70642v-44.43622h-11.48669c-0.57922,28.8905-6.61212,45.01538-19.25842,45.01538c-3.94434,0-7.42529-0.81085-9.62976-2.0874
	l3.59564-13.92163c0.92908,0.57919,2.08978,0.81085,2.90063,0.81085c3.94556,0,6.84619-5.80127,6.84619-32.25449v-12.29755
	H872.72766z M912.29871,324.48477l-10.67346,19.49124h-18.44751l13.34241-22.16019
	c-5.91711-3.13229-9.39807-9.16525-9.39807-17.16977c0-12.41574,8.35437-19.84109,21.11646-19.84109h25.05963v59.17105h-16.70642
	v-19.49124H912.29871z M916.59174,311.37402v-11.83423h-6.49628c-3.24933,0-6.03412,2.08743-6.03412,5.91711
	s2.78479,5.91711,6.03412,5.91711H916.59174z M949.5495,343.97601v-59.17105h16.70764v31.90698l21.92731-31.90698h14.27032v59.17105
	h-16.70642v-31.78879l-21.92853,31.78879H949.5495z M996.30597,265.66125c-4.6405,8.35437-11.60254,12.53159-20.30444,12.53159
	c-8.58484,0-15.6615-4.29303-20.30322-12.64743l9.74561-6.38046c2.43726,5.21973,6.03296,8.00452,10.55762,8.00452
	c4.52472,0,8.12274-2.78479,10.55884-8.00452L996.30597,265.66125z M172.45921,193.05054
	c-31.32146,0-56.7078,25.27495-56.7078,56.44096c0,31.17061,25.38634,56.43391,56.7078,56.43391
	c31.31647,0,56.71112-25.26331,56.71112-56.43391C229.17033,218.32549,203.77568,193.05054,172.45921,193.05054L172.45921,193.05054
	z M437.37491,370.85635c-27.25998,51.40277-113.08475,29.22754-126.89346,81.55383
	c-10.07974,38.2121,26.50186,96.07034,90.09409,114.64334C461.68729,522.76501,470.25827,442.85165,437.37491,370.85635
	L437.37491,370.85635z M100.50547,563.93054C86.49644,630.97614,65.59135,663.26562,0,686.69226l19.85106,52.28723
	c86.03676-30.73004,118.95503-75.04138,137.0771-163.00458l16.48865,2.12756c-3.93513,84.43036,0.50124,150.68091,2.78635,227.84991
	l58.64212-0.92645c-4.60512-139.63232-16.05974-278.94055,21.67316-420.75864
	c60.12839-2.52451,118.53857-12.87439,173.09094-39.55124l-25.85681-51.19122
	c-55.32294,27.0509-131.24008,35.99268-210.01837,33.75287c-49.58899-1.40857-66.69858,20.80118-71.64368,61.04358
	L100.50547,563.93054L100.50547,563.93054z"/>
<path class="st1" d="M1413.24597,803.44098l-129.70935,1.84436c-126.67871,1.78552-201.43689-112.99176-134.92834-228.18964
	l17.54675-30.33057l-51.75208-29.87854l173.74731-100.3092v200.62372l-51.74646-29.87842l-17.54553,30.45813
	c-34.73767,60.16095-0.78748,107.3573,63.72156,106.44226l129.70825-1.83868
	C1412.28809,722.3844,1413.24597,803.44104,1413.24597,803.44098z M1679.09119,437.19083l-173.74841-100.30865l51.75208-29.87845
	l-17.55249-30.32999c-34.66772-60.04939-92.5271-54.60591-123.99475,1.73221l-63.26025,113.24759l-70.88757-39.41977
	l63.26038-113.24704c62.07458-111.1314,198.74731-117.98885,265.1322-2.99821l17.55249,30.45305l51.74634-29.87335V437.19083z
	 M1465.50269,763.78705l173.7428-100.31445v59.62415h35.38525c67.11401,0,94.53687-50.96503,60.42651-108.17108l-66.44299-111.40765
	l69.61121-41.64133l66.44446,111.4072c66.5553,111.61548,0.06299,231.19287-130.03894,231.19287h-35.38538v59.62482
	l-173.7428-100.31445L1465.50269,763.78705z"/>
<path class="st2" d="M2359.79346,226.57787c0.04639-39.83963,10.58423-78.96443,30.55322-113.43816v-0.15969
	c19.96265-34.50956,48.66138-63.15321,83.20947-83.04921l40.36523,70.24991c-22.16284,12.83706-40.55444,31.28386-53.32495,53.48495
	l-0.06982-0.03714c-12.73413,22.1996-19.40869,47.3568-19.354,72.94933L2359.79346,226.57787z M2400.48267,389.33371
	c-54.89844-47.08472-135.62427-81.37476-214.88989-18.83261c108.19263,97.23169,123.42139,254.88922,68.59155,388.17609
	c45.2876,23.44702,95.31616,36.28369,146.29785,37.53833c50.98218-1.25433,101.0105-14.09106,146.29785-37.53833
	c-54.82275-133.28656-39.59375-290.94409,68.59424-388.17606c-79.2666-62.54214-159.99243-28.25211-214.89209,18.83261
	L2400.48267,389.33371z M2400.48267,877.5957c-103.59937,0-172.53076-32.72839-251.27905-91.56567
	c77.67456-159.93811,81.47559-287.52609-74.22607-396.69632c56.77441-146.35768,231.01733-164.86064,325.50513-97.94925
	c94.48877-66.91139,268.7373-48.40843,325.50586,97.94925c-155.70142,109.17029-151.89941,236.75821-74.22485,396.69632
	c-78.75024,58.83728-147.68066,91.56592-251.28101,91.56592V877.5957z"/>
<path class="st3" d="M3078.6167,0h189.88696v81.38051H3078.6167V0z M3316.40625,517.492l-109.0481,29.0647l-20.66113-78.5094
	l109.31494-29.14029l-0.31128-99.79828c0.00732-67.50983-54.71436-122.24323-122.22412-122.25049
	c-67.50977-0.00725-122.24316,54.71439-122.25049,122.22421l0.07446,207.47998l147.26636,254.75079
	c19.41675,36.19336,65.36401,24.74414,77.58984-10.92267c40.54126,25.30212,85.97925,1.23322,83.40063-48.14862
	c36.99561,7.24542,71.88647-27.97516,50.25269-62.88782L3316.40625,517.492z M3376.81592,459.3511l104.48267,181.39169
	c42.31665,73.46606,15.75684,133.63214-54.36621,158.12048c-15.93115,58.88983-76.45728,93.83423-135.42285,78.18561
	c-56.27075,48.48853-119.72217,40.3183-162.12451-33.13202l-159.26807-275.84241l0.08472-228.97141
	c0.05127-112.25874,91.09668-203.22076,203.35547-203.16934c112.17798,0.05138,203.10669,90.97073,203.16919,203.14874
	l0.08911,120.26868L3376.81592,459.3511z"/>
<path class="st4" d="M5210.21973,256.81332l-7.85156-46.78778l-78.7915,5.61337l-114.78809-40.54662l-109.58496,63.26549
	l162.4209,270.82501l-69.6123,41.64166L4891.2627,382.82703l-76.81543,128.59799l50.62549,110.79715l95.93018,9.3656
	L5047.354,741.3858h88.92676V521.98267l237.26904-36.75708l0.65918-112.39667l-112.50342-52.95294l-117.479,124.64938
	l-57.7417-57.01465L5210.21973,256.81332z M4843.91797,303.8923l-56.65381-94.46767l215.92676-124.65848l133.5791,48.46674
	l133.45508-9.51507l20.12549,119.90147l165.1748,77.74966l-1.31836,243.64771l-238.15576,257.74396h-208.09229l-89.53418-113.84186
	l-107.68652-10.51361l-87.74951-192.05038l120.9292-202.46207V303.8923z M5341.46045,571.8526l-124.51514,20.08191l0.71143,114.3847
	L5341.46045,571.8526z"/>
<path class="st5" d="M4071.63696,336.60831h81.37915v184.27328h-81.37915V336.60831z M4071.63696,558.86194h81.37915v81.37939
	h-81.37915V558.86194z M4464.68799,562.05048l-214.37549-371.0058c-21.04443-36.55412-72.67285-59.20074-134.63965-59.20074
	c-64.44336,0-119.78564,24.46706-140.97485,62.47763l-215.68652,371.95239c-21.99023,38.01062-16.31104,96.92023,14.3457,150.07697
	c31.02026,53.73944,78.78833,87.09003,124.59082,87.09003l431.7356-0.87378c45.94775,0,91.4585-31.74878,121.60547-84.90558
	C4482.30908,663.12134,4487.69775,600.64368,4464.68799,562.05048z M4329.68359,722.24921l-431.29834,1.23773
	c-45.72949,0.65558-89.12866-84.17712-70.05127-117.09039l216.34155-373.33594
	c20.97168-37.57368,114.32349-40.12256,136.38745-1.89333l215.02979,372.09818
	C4414.87988,634.72229,4377.30664,722.24921,4329.68359,722.24921z"/>
</svg>
