<?xml version="1.0" encoding="utf-8"?>
<!-- Generator: Adobe Illustrator 25.0.1, SVG Export Plug-In . SVG Version: 6.00 Build 0)  -->
<svg version="1.1" id="Layer_1" xmlns="http://www.w3.org/2000/svg" xmlns:xlink="http://www.w3.org/1999/xlink" x="0px" y="0px"
	 viewBox="0 0 124.63014 124.6301" style="enable-background:new 0 0 124.63014 124.6301;" xml:space="preserve">
<style type="text/css">
	.st0{fill:#FF6400;}
</style>
<path class="st0" d="M56.7315,46.61685h11.17578v25.30614H56.7315V46.61685z M56.7315,77.13881h11.17578v11.17578H56.7315V77.13881z
	 M110.70896,77.57668l-29.44006-50.95c-2.89001-5.01996-9.98009-8.13-18.48998-8.13c-8.84997,0-16.45007,3.36004-19.35998,8.58002
	l-29.62011,51.08c-3.0199,5.21997-2.23999,13.31,1.97009,20.60998c4.26001,7.38,10.81994,11.96002,17.10998,11.96002l59.29002-0.12
	c6.30994,0,12.55993-4.36005,16.69994-11.66003C113.12888,91.45669,113.86887,82.87667,110.70896,77.57668z M92.16893,99.57668
	l-59.22997,0.16998c-6.28003,0.09003-12.23998-11.55999-9.62011-16.07995l29.71007-51.27
	c2.88-5.15997,15.69995-5.51001,18.72998-0.26001l29.52989,51.10002C103.86887,87.55666,98.70897,99.57668,92.16893,99.57668z"/>
</svg>
