<svg id="Layer_1" data-name="Layer 1" xmlns="http://www.w3.org/2000/svg" viewBox="0 0 124.63014 124.63014"><defs><style>.cls-1{fill:#05baee;fill-rule:evenodd;}</style></defs><path class="cls-1" d="M49.27654,0H75.3536V11.17594H49.27654V0ZM81.93206,71.06689,66.95652,75.05833,64.11915,64.27667l15.01217-4.00182-.04275-13.70524A16.78678,16.78678,0,0,0,45.515,46.566l.01022,28.49311,20.224,34.98478c2.66651,4.97042,8.9764,3.3981,10.65537-1.5,5.56753,3.47472,11.80748.16936,11.45336-6.61222,5.0806.995,9.87215-3.84181,6.90118-8.63635L81.93206,71.06689Zm8.296-7.98446,14.34857,24.91042c5.81132,10.08906,2.16386,18.35163-7.46608,21.7146A15.22135,15.22135,0,0,1,78.513,120.44463c-7.72762,6.6589-16.44138,5.53689-22.26449-4.55L34.37632,78.01334l.01163-31.44451A27.91392,27.91392,0,0,1,90.21578,46.566L90.228,63.08243Z"/></svg>