<svg id="Layer_1" data-name="Layer 1" xmlns="http://www.w3.org/2000/svg" viewBox="0 0 124.63014 124.63014"><defs><style>.cls-1{fill:#ffd400;}</style></defs><path class="cls-1" d="M56.6588,28.19605a31.15259,31.15259,0,0,1,4.19585-15.5784v-.02193A31.17448,31.17448,0,0,1,72.28176,1.19062L77.82509,10.838A20.02975,20.02975,0,0,0,70.502,18.18306l-.00959-.0051a20.04807,20.04807,0,0,0-2.65787,10.01809Zm5.58781,22.35117c-7.53917-6.46612-18.6252-11.17515-29.51068-2.58627,14.858,13.35277,16.94938,35.00379,9.41964,53.308a46.16844,46.16844,0,0,0,20.091,5.15511,46.16725,46.16725,0,0,0,20.091-5.15511c-7.5288-18.30417-5.43739-39.95519,9.42-53.308-10.88564-8.58888-21.97167-3.87985-29.511,2.58627Zm0,67.05274c-14.22722,0-23.69355-4.49457-34.508-12.57466,10.667-21.96421,11.189-39.48579-10.19342-54.47808C25.342,30.448,49.27067,27.907,62.24661,37.0959,75.2227,27.907,99.15217,30.448,106.94817,50.54722,85.56576,65.53951,86.0879,83.06109,96.7549,105.0253,85.94016,113.10539,76.474,117.6,62.24661,117.6Z"/></svg>