<svg fill="none" height="2403" width="3000" xmlns="http://www.w3.org/2000/svg"><clipPath id="a"><path d="M0 0h3000v2403H0z"/></clipPath><g clip-path="url(#a)"><path d="M0 0h3000v2403H0z" fill="#000"/><path d="M2592.23 280.127c-54.69 71.743-97.94 29.329-24.79-24.314 1.45-1.091 1.45-3.162 0-4.253-73.15-53.643-29.9-96.057 24.79-24.314a2.746 2.746 0 004.34 0c54.69-71.743 97.94-29.329 24.79 24.314-1.45 1.091-1.45 3.162 0 4.253 73.15 53.643 29.9 96.057-24.79 24.314-1-1.418-3.23-1.418-4.34 0zm248.22-15.501c-4.86-.994-11.49-2.872-17.45-4.639-6.63-1.989-6.52-7.07.22-8.948 4.2-1.215 8.62-2.32 13.04-3.203 11.93-2.541 24.85-4.861 37.88-4.198 6.19.331 12.05 1.215 17.02 3.314 6.73 2.872 10.05 6.517 7.95 11.157-1.66 3.756-6.41 6.296-12.81 7.843-7.63 1.988-15.8 2.099-23.98 1.657-7.51-.442-14.8-1.547-21.87-2.983zm-55.01 0c4.86-.994 11.49-2.872 17.45-4.639 6.63-1.989 6.52-7.07-.22-8.948-4.2-1.215-8.61-2.32-13.03-3.203-11.93-2.541-24.86-4.861-37.89-4.198-6.19.331-12.04 1.215-17.01 3.314-6.74 2.872-10.06 6.517-7.96 11.157 1.66 3.756 6.41 6.296 12.82 7.843 7.62 1.988 15.79 2.099 23.97 1.657 7.51-.442 14.8-1.547 21.87-2.983z" fill="#d7e2d3"/><path d="M2787.1 268.714c4.08-2.762 10.16-6.076 15.57-9.058 6.08-3.314 9.61.441 6.19 6.517-2.21 3.866-4.42 7.733-6.96 11.488-6.63 10.274-14.14 20.989-23.86 29.826-4.64 4.198-9.39 7.733-14.36 9.721-6.85 2.762-11.71 2.541-13.59-2.209-1.43-3.867.11-8.948 3.43-14.582 3.97-6.849 9.72-12.703 15.79-18.116 5.86-5.192 11.82-9.61 17.79-13.587zm38.88-38.884c-2.76 4.087-6.07 10.163-9.06 15.576-3.31 6.075.44 9.61 6.52 6.186 3.87-2.21 7.73-4.419 11.49-6.96 10.27-6.628 20.99-14.139 29.82-23.86 4.2-4.64 7.74-9.39 9.72-14.361 2.77-6.848 2.55-11.709-2.2-13.587-3.87-1.436-8.95.111-14.59 3.425-6.84 3.976-12.7 9.72-18.11 15.796-5.19 5.855-9.61 11.82-13.59 17.785z" fill="#d7e2d3"/><path d="M2803.89 283.185c.99-4.861 2.87-11.489 4.64-17.454 1.99-6.628 7.07-6.517 8.95.221 1.21 4.198 2.32 8.616 3.2 13.035 2.54 11.93 4.86 24.854 4.2 37.889-.33 6.186-1.22 12.041-3.32 17.012-2.87 6.738-6.51 10.052-11.15 7.953-3.76-1.656-6.3-6.407-7.85-12.813-1.98-7.623-2.1-15.797-1.65-23.971.55-7.512 1.54-14.803 2.98-21.872zm0-55.012c.99 4.86 2.87 11.488 4.64 17.453 1.99 6.628 7.07 6.518 8.95-.221 1.21-4.197 2.32-8.616 3.2-13.034 2.54-11.931 4.86-24.855 4.2-37.89-.33-6.186-1.22-12.041-3.32-17.012-2.76-6.848-6.4-10.052-11.04-8.064-3.76 1.657-6.3 6.407-7.85 12.814-1.98 7.623-2.09 15.797-1.65 23.971.44 7.622 1.43 14.913 2.87 21.983z" fill="#d7e2d3"/><path d="M2825.98 281.417c-2.76-4.087-6.07-10.163-9.06-15.575-3.31-6.076.44-9.611 6.52-6.186 3.87 2.209 7.73 4.418 11.49 6.959 10.27 6.628 20.99 14.139 29.82 23.86 4.2 4.64 7.74 9.39 9.72 14.361 2.77 6.849 2.55 11.709-2.2 13.587-3.87 1.436-8.95-.11-14.59-3.424-6.84-3.977-12.7-9.721-18.11-15.797-5.19-5.744-9.61-11.709-13.59-17.785zm-38.88-38.773c4.08 2.761 10.16 6.075 15.57 9.058 6.08 3.314 9.61-.442 6.19-6.518-2.21-3.866-4.42-7.732-6.96-11.488-6.63-10.273-14.14-20.989-23.86-29.826-4.64-4.197-9.39-7.732-14.36-9.721-6.85-2.761-11.71-2.54-13.59 2.21-1.43 3.866.11 8.947 3.43 14.581 3.97 6.849 9.72 12.703 15.79 18.116 5.86 5.192 11.82 9.5 17.79 13.588zm-200.28-57.17c0 10.465 4.53 18.948 10.11 18.948s10.1-8.483 10.1-18.948c0-10.464-4.52-18.948-10.1-18.948s-10.11 8.484-10.11 18.948zm0 135.162c0 9.767 4.53 17.684 10.11 17.684s10.1-7.917 10.1-17.684-4.52-17.685-10.1-17.685-10.11 7.918-10.11 17.685zm58.11-66.949c0 4.883 8.48 8.842 18.95 8.842 10.46 0 18.94-3.959 18.94-8.842 0-4.884-8.48-8.843-18.94-8.843-10.47 0-18.95 3.959-18.95 8.843zm-136.43 0c0 4.883 8.49 8.842 18.95 8.842 10.47 0 18.95-3.959 18.95-8.842 0-4.884-8.48-8.843-18.95-8.843-10.46 0-18.95 3.959-18.95 8.843zm-66.62 4.296c-3.51.499-6.45 1.099-8.38 1.998-8.04 3.397-29.1 3.397-37.03 0-1.93-.799-4.87-1.499-8.38-1.998-14.61-1.899-14.61-6.794 0-8.593 3.51-.499 6.45-1.099 8.38-1.998 8.04-3.397 29.1-3.397 37.03 0 1.93.799 4.87 1.499 8.38 1.998 14.72 1.899 14.72 6.794 0 8.593zm-103.14 0c-3.4.499-6.25 1.099-8.11 1.998-7.78 3.397-28.17 3.397-35.84 0-1.86-.799-4.71-1.499-8.11-1.998-14.14-1.899-14.14-6.794 0-8.593 3.4-.499 6.25-1.099 8.11-1.998 7.78-3.397 28.17-3.397 35.84 0 1.86.799 4.71 1.499 8.11 1.998 14.14 1.899 14.14 6.794 0 8.593zm20.2 72.19c-.5-3.394-1.1-6.24-2-8.101-3.39-7.773-3.39-28.135 0-35.798.8-1.861 1.5-4.707 2-8.101 1.9-14.122 6.79-14.122 8.59 0 .5 3.394 1.1 6.24 2 8.101 3.4 7.773 3.4 28.135 0 35.798-.8 1.861-1.5 4.707-2 8.101-1.8 14.232-6.69 14.232-8.59 0zm0-103.511c-.5-3.398-1.1-6.247-2-8.11-3.39-7.782-3.39-28.167 0-35.838.8-1.864 1.5-4.713 2-8.111 1.9-14.137 6.79-14.137 8.59 0 .5 3.398 1.1 6.247 2 8.111 3.4 7.781 3.4 28.166 0 35.838-.8 1.863-1.5 4.712-2 8.11-1.8 14.138-6.69 14.138-8.59 0zm56.77 84.228c-2.88-2.09-5.53-3.52-7.6-4.29-8.53-2.86-23.74-17.269-26.62-25.409-.69-1.98-2.31-4.51-4.5-7.26-8.98-11.549-5.07-15.289 7.03-6.709 2.89 2.09 5.54 3.52 7.61 4.29 8.53 2.859 23.74 17.269 26.62 25.409.69 1.98 2.3 4.51 4.49 7.259 8.99 11.55 5.07 15.29-7.03 6.71zm-72.7-70.712c-2.75-2.091-5.28-3.522-7.26-4.292-8.14-2.862-22.67-17.279-25.42-25.423-.66-1.981-2.2-4.513-4.29-7.264-8.59-11.556-4.85-15.298 6.71-6.713 2.75 2.091 5.28 3.521 7.26 4.292 8.15 2.861 22.67 17.279 25.43 25.423.66 1.981 2.2 4.512 4.29 7.263 8.58 11.446 4.73 15.298-6.72 6.714zm-37 64.002c2.09-2.749 3.52-5.279 4.29-7.259 2.86-8.14 17.28-22.66 25.42-25.409 1.98-.66 4.51-2.2 7.27-4.29 11.55-8.58 15.29-4.84 6.71 6.709-2.09 2.75-3.52 5.28-4.29 7.26-2.86 8.14-17.28 22.659-25.43 25.409-1.98.66-4.51 2.2-7.26 4.29-11.45 8.58-15.3 4.84-6.71-6.71zm71.03-70.716c2.19-2.751 3.69-5.282 4.49-7.263 2.99-8.144 18.08-22.672 26.6-25.423 2.07-.661 4.72-2.201 7.59-4.292 12.09-8.585 16.01-4.843 7.03 6.713-2.19 2.751-3.69 5.283-4.49 7.264-3 8.144-18.08 22.671-26.6 25.423-2.07.66-4.72 2.201-7.6 4.292-12.08 8.584-16.11 4.732-7.02-6.714z" fill="#d7e2d3"/><path d="M1414.66 1725.84l-22.2-22.59h-22.44v22.43h22.36l-.08 45.1-44.87-.07v-22.52h-22.35v22.44l22.35 22.66h67.23z" fill="#e5533d"/><path d="M1414.74 1815.73h22.28v-22.44h-22.36v22.44h-44.87l22.44 22.43-22.44 22.51h44.87l22.36-22.51zm89.5 134.84l22.44 22.43h22.35v-22.43h22.36v-22.52h-22.36v22.52h-22.35v-44.95h44.79v22.43h22.43v-22.43l-22.43-22.51h-67.23v22.51zm-112.01-67.46h-44.8l-22.35 22.43v22.44h22.43v22.59h22.36V1973h22.43l22.44-22.43v-67.38l-22.44-.08zm0 67.46h-22.36v-22.44h-22.44v-22.43h44.72v44.87zm201.67-247.17h-22.43v22.44h22.43z" fill="#e5533d"/><path d="M1437.09 1860.67h-22.43v22.44h22.43z" fill="#e5533d"/><path d="M1481.81 1883.03l-22.36-22.36-22.43 22.44v44.94l22.43-22.43 22.36 22.43v-44.94h22.43v-22.44h-22.43zm89.66-112.25h-44.79v-44.94h22.35v22.51h22.36v-22.51h-22.36v-22.59h-22.35l-22.44 22.59v44.94h-.15v22.51h-22.28v-44.94l-22.36 22.43-22.43-22.43v44.94l22.43 22.44 22.36-22.36v22.36h22.28l-22.28 22.43 22.43 22.51h44.79l-22.35-22.51 22.35-22.43h-44.79v-22.44h67.23l22.43-22.51v-22.43h-22.43zm22.43 179.79h-22.43V1973h22.43zm-246.39 0h-22.43V1973h22.43zm0-247.32h-22.43v22.43h22.43zm-.08 112.48H1325v44.94h22.43zm246.47 0h-22.43v44.94h22.43z" fill="#e5533d"/><path d="M1481.81 1703.4h-44.79v22.44h44.79zm0 247.17h-44.79V1973h44.79zm-111.79-224.89h-22.59v22.44h22.59zm291.72-179.62h-22.43v44.79h22.43zm-44.94 0h-22.43v44.79h22.43zm246.54 0h-22.43v44.79h22.43zm-156.8 0v44.79h44.79v-44.79h-22.44z" fill="#e5533d"/><path d="M1706.46 1523.7h-44.79v22.43h44.79zm-44.79-44.87v-22.36h22.36v-22.43h-44.72v22.43h-22.43v-22.43h-22.44v22.43h22.44v22.36h-22.44v44.87h22.44v-22.44h22.43v22.44h22.36v-22.44zm201.68-22.36v-22.43h-22.44v22.43h-22.36v-22.43h-44.79v22.43h-22.35v22.36h22.35v-22.36h22.36v67.23h22.43v-22.44h22.36v22.44h22.44v-44.87h-22.44v-22.36zm-156.81 0h44.79v-22.43h-44.79v22.36h-22.44v22.43h22.44zm112.01 89.59h-22.43v44.79h22.43zm-22.43-22.36h-44.79v22.43h44.79zm-44.79-22.44v-22.43h-44.79v44.87h44.79zm-112.02 134.46h-22.43v-22.44h-22.44v44.79h22.44v22.44h-22.44v22.43h22.44v-22.43h22.43v22.43h44.72v-22.43h-22.36v-67.23h-22.36zm67.15-44.87h-44.79v22.43h44.79zm89.66 0h-44.79v22.43h44.79zm-89.58 44.87v22.35h-22.44v22.44h22.28v22.43h44.79v-22.43h-44.63v-22.44h44.79v-44.79h-44.79zm89.58 22.35v22.44h-22.36v-22.36h-22.35v22.43h22.35v22.36h44.79v-22.43h22.36v22.43h22.44v-22.43h-22.44v-22.44h22.44v-44.79h-22.44v22.44h-22.36v-22.44h-22.43v22.44z" fill="#e5533d"/><path d="M86.15 2200.14c1.071-7.08 1.5-18.24 1.5-33.27v-26.19c-4.071 1.5-7.928 2.14-11.57 1.29-.643-1.94-.643-4.08 0-6.23 5.785 0 11.784-4.08 14.784-9.66h10.713v41.65c0 15.02.428 25.97 1.071 32.41zm29.996-31.34c0-12.45 3.857-22.97 11.571-31.99 7.713-9.01 18.212-13.74 31.71-14.81 1.071 1.5 2.143 5.58 1.5 8.16-4.928.64-9.428 1.93-13.498 3.86-8.142 3.87-16.07 13.1-17.998 25.33l.428.22c3.857-6.01 9.856-9.02 17.998-9.02 6.214 0 11.142 2.15 14.998 6.66 3.857 4.51 5.785 10.09 5.785 16.96 0 7.73-2.571 14.17-7.499 19.32-4.928 4.94-11.356 7.51-18.426 7.51-16.284.43-26.569-11.81-26.569-32.2zm34.711 21.47c2.999-2.79 4.713-7.3 4.713-13.31 0-11.38-4.928-18.25-13.712-18.25-6.857 0-12.427 6.44-12.427 14.81 0 5.16 1.285 9.66 3.642 13.31 2.357 3.87 5.785 5.58 10.499 5.58 2.999.22 5.571-.64 7.285-2.14zm26.782-54.1c6.857-7.09 15.213-10.74 24.855-10.74 11.784 0 19.926 7.73 19.926 20.4 0 7.51-3 15.46-8.999 23.61-5.999 8.16-12.642 15.03-20.141 20.18v.43l14.142-.43a164 164 0 0016.069-1.5v11.81h-45.852c-.642-2.58-.642-5.58 0-8.8 6.642-3.65 13.284-9.88 19.498-18.25 6.428-8.59 9.642-16.32 9.642-23.19 0-8.37-4.5-13.74-11.356-13.74-4.928 0-9.642 1.94-13.927 6.02-2.357-1.29-3.642-3.22-3.857-5.8zm52.28-9.45h41.352c.857 3.22.857 6.66 0 10.31l-19.712 19.1c14.784 1.08 22.283 7.3 22.283 18.68 0 10.09-6.213 19.11-14.784 24.26-8.356 4.94-18.212 7.94-26.354 8.37-1.5-1.93-2.142-4.72-1.499-8.37 4.07-.43 8.141-1.29 12.212-2.79s7.499-4.08 10.499-7.3 4.5-7.3 4.5-11.59c0-9.23-7.928-14.17-19.712-13.74-.643-1.93-.643-3.87 0-5.37l19.283-20.61v-.64h-10.713c-8.142 0-13.927.21-17.355.64zm2473.561 10.61c6.86-7.08 15.21-10.73 24.86-10.73 11.78 0 19.92 7.73 19.92 20.39 0 7.52-3 15.46-9 23.62s-12.64 15.03-20.14 20.18v.43l14.14-.43c4.72-.22 10.07-.65 16.07-1.51v11.81h-45.85c-.64-2.57-.64-5.58 0-8.8 6.64-3.65 13.29-9.88 19.5-18.25 6.43-8.58 9.64-16.31 9.64-23.18 0-8.38-4.5-13.74-11.35-13.74-4.93 0-9.65 1.93-13.93 6.01-2.36-1.29-3.86-3.22-3.86-5.8zm100.49-.64c4.71 6.65 7.07 15.67 7.07 26.83 0 24.69-9.64 39.07-27 39.07-16.49 0-27.21-13.95-27.21-37.99 0-12.03 2.57-21.26 7.72-27.91 5.14-6.66 11.78-10.09 20.14-10.09 8.35 0 14.57 3.22 19.28 10.09zm-28.07 1.29c-2.36 2.36-5.36 11.37-5.36 24.9 0 19.53 5.58 30.91 14.79 30.91 2.78 0 5.36-.86 7.28-2.57 2.79-3.01 4.29-10.95 4.29-24.26 0-21.04-4.71-31.35-14.14-31.35-2.57 0-4.93.65-6.86 2.37zm44.57-.65c6.85-7.08 15.21-10.73 24.85-10.73 11.79 0 19.93 7.73 19.93 20.39 0 7.52-3 15.46-9 23.62s-12.64 15.03-20.14 20.18v.43l14.14-.43c4.71-.22 10.07-.65 16.07-1.51v11.81h-45.85c-.65-2.57-.65-5.58 0-8.8 6.64-3.65 13.28-9.88 19.5-18.25 6.42-8.58 9.64-16.31 9.64-23.18 0-8.38-4.5-13.74-11.36-13.74-4.93 0-9.64 1.93-13.93 6.01-2.35-1.29-3.64-3.22-3.85-5.8zm53.78 0c6.85-7.08 15.21-10.73 24.85-10.73 11.79 0 19.93 7.73 19.93 20.39 0 7.52-3 15.46-9 23.62s-12.64 15.03-20.14 20.18v.43l14.14-.43c4.71-.22 10.07-.65 16.07-1.51v11.81h-45.85c-.65-2.57-.65-5.58 0-8.8 6.64-3.65 13.28-9.88 19.49-18.25 6.43-8.58 9.65-16.31 9.65-23.18 0-8.38-4.5-13.74-11.36-13.74-4.93 0-9.64 1.93-13.93 6.01-2.35-1.29-3.85-3.22-3.85-5.8zM2668.29 2157H331v6.01h2337.29z" fill="#d7e2d3"/><g fill="#e5533d"><path d="M129.5 519.6l-3.3 10.5 93.3-35.1-4.8-7.5zm78.9 53.4l18.9-19.5c2.4-2.4 3.6-5.1 3.6-8.1 0-2-.5-4.3-1.5-6.9l-49.5-135h1.5l-52.2 133.2c-1.2 3-1.8 5.8-1.8 8.4 0 3.2 1.2 6 3.6 8.4l18.9 19.5H86l22.2-21.9c2.4-2.2 4.5-4.5 6.3-6.9 1.8-2.6 3.4-5.6 4.8-9l49.2-125.4c1.8-4.4 2.7-8.5 2.7-12.3 0-6-3.2-12.2-9.6-18.6L145.4 363h72.3l64.5 171.9c1.4 3.8 2.9 6.8 4.5 9s3.8 4.6 6.6 7.2l22.2 21.9z"/><path d="M389.776 344.7h1.5c5.6 11.2 11.7 18.8 18.3 22.8 6.6 3.8 14.6 5.7 24 5.7 5.8 0 12.2-1 19.2-3 7-2.2 13.7-5.8 20.1-10.8l4.2 4.8c-10.6 10.2-21.7 17.7-33.3 22.5-11.4 4.8-23.4 7.2-36 7.2-6 0-11.9-.6-17.7-1.8-5.6-1.4-11.5-3.2-17.7-5.4zm-7.2 193.8c0 2.8.4 5.1 1.2 6.9s2.3 3.9 4.5 6.3l21.3 21.3h-99.9l21.3-21.3c2.2-2.4 3.7-4.5 4.5-6.3s1.2-4.1 1.2-6.9V450c0-2.8-.4-5.1-1.2-6.9s-2.3-3.9-4.5-6.3l-21.3-21.3h99.9l-21.3 21.3c-2.2 2.4-3.7 4.5-4.5 6.3s-1.2 4.1-1.2 6.9zm111.6 0c0 2.8.4 5.1 1.2 6.9s2.3 3.9 4.5 6.3l21.3 21.3h-99.9l21.3-21.3c2.2-2.4 3.7-4.5 4.5-6.3s1.2-4.1 1.2-6.9V450c0-2.8-.4-5.1-1.2-6.9s-2.3-3.9-4.5-6.3l-21.3-21.3h99.9l-21.3 21.3c-2.2 2.4-3.7 4.5-4.5 6.3s-1.2 4.1-1.2 6.9zm-33.6-93.3l7.5 5.1-99 94.2-.9-11.1zm142.012.6l-41.1 104.7c-1.6 4-1.8 7.4-.6 10.2 1.4 2.6 4.7 3.9 9.9 3.9h75.9zm-24.6 127.2c-3.4 0-6.3.7-8.7 2.1-2.2 1.4-4.3 3.5-6.3 6.3l-32.7 47.1h-1.2l-3.6-63.9h21l45.3-116.1c1.2-3.2 1.7-6.2 1.5-9-.2-3-1.5-5.6-3.9-7.8l-16.8-16.2h67.5l56.1 149.1h27l-26.1 63.9h-1.2l-17.1-46.2c-1.2-3.4-2.9-5.8-5.1-7.2-2-1.4-5.4-2.1-10.2-2.1zM796.66 449.1c8.2 0 13.9-1.5 17.1-4.5 3.4-3 5.1-6.7 5.1-11.1 0-3.4-1.5-6.3-4.5-8.7-3-2.6-7.5-3.9-13.5-3.9-13.2 0-23.3 3.2-30.3 9.6-6.8 6.4-10.2 14.7-10.2 24.9 0 8.2 1.8 17.3 5.4 27.3 3.8 10 9.1 19.4 15.9 28.2 7 8.8 15.3 16.2 24.9 22.2 9.8 6 20.8 9 33 9 6.8 0 13.2-1.1 19.2-3.3s11.1-5.4 15.3-9.6c4.4-4.2 7.8-9.5 10.2-15.9 2.6-6.4 3.9-13.8 3.9-22.2 0-7.6-1.5-15.6-4.5-24h1.2c2.8 5.4 5 11 6.6 16.8 1.6 5.6 2.4 11.1 2.4 16.5 0 11.2-2.3 21.5-6.9 30.9-4.4 9.2-10.5 17.1-18.3 23.7-7.6 6.6-16.4 11.8-26.4 15.6-10 3.6-20.4 5.4-31.2 5.4-12 0-23.3-2-33.9-6-10.4-4.2-19.5-9.9-27.3-17.1-7.8-7.4-14-16-18.6-25.8-4.4-9.8-6.6-20.4-6.6-31.8 0-11.8 2.4-22.7 7.2-32.7 4.8-10.2 11.3-19 19.5-26.4s17.6-13.2 28.2-17.4c10.8-4.2 22.1-6.3 33.9-6.3 7.4 0 14.5.9 21.3 2.7 6.8 1.6 12.8 4.2 18 7.8s9.6 8.3 13.2 14.1c3.6 5.6 6 12.4 7.2 20.4h-114.6v-8.4zm176.248 89.4c0 2.8.4 5.1 1.2 6.9s2.3 3.9 4.5 6.3l21.3 21.3h-99.9l21.3-21.3c2.2-2.4 3.7-4.5 4.5-6.3s1.2-4.1 1.2-6.9V450c0-2.8-.4-5.1-1.2-6.9s-2.3-3.9-4.5-6.3l-21.3-21.3h99.9l-21.3 21.3c-2.2 2.4-3.7 4.5-4.5 6.3s-1.2 4.1-1.2 6.9zm108.602 0c0 2.8.4 5.1 1.2 6.9s2.3 3.9 4.5 6.3l21.3 21.3h-99.9l21.3-21.3c2.2-2.4 3.7-4.5 4.5-6.3s1.2-4.1 1.2-6.9V450c0-2.8-.4-5.1-1.2-6.9s-2.3-3.9-4.5-6.3l-21.3-21.3h99.9l-21.3 21.3c-2.2 2.4-3.7 4.5-4.5 6.3s-1.2 4.1-1.2 6.9zm-31.5-42.9l1.2 9.3-95.102-14.7-1.2-9.3zm177.85 42.9c0 2.8.4 5.1 1.2 6.9s2.3 3.9 4.5 6.3l21.3 21.3h-99.9l21.3-21.3c2.2-2.4 3.7-4.5 4.5-6.3s1.2-4.1 1.2-6.9v-102c0-3.6-.8-6.6-2.4-9-1.4-2.4-3.8-3.6-7.2-3.6h-2.4c-4 0-6.9.9-8.7 2.7-1.8 1.6-3.5 4.1-5.1 7.5l-29.1 63h-1.2l-3.9-87.6c5.6 1.2 11 2.2 16.2 3 4.6.8 9.3 1.5 14.1 2.1 5 .6 9.3.9 12.9.9h81.6c5.4 0 10.8-.3 16.2-.9 5.6-.6 10.7-1.3 15.3-2.1 5.2-.8 10.4-1.8 15.6-3l-27.6 87.6h-1.2l-12.3-63c-.6-3.2-1.7-5.7-3.3-7.5-1.4-1.8-4.1-2.7-8.1-2.7h-1.8c-4.2 0-7.2 1.3-9 3.9-1.8 2.4-2.7 5.3-2.7 8.7zm144.95 0c0 2.8.4 5.1 1.2 6.9s2.3 3.9 4.5 6.3l21.3 21.3h-99.9l21.3-21.3c2.2-2.4 3.7-4.5 4.5-6.3s1.2-4.1 1.2-6.9V450c0-2.8-.4-5.1-1.2-6.9s-2.3-3.9-4.5-6.3l-21.3-21.3h99.9l-21.3 21.3c-2.2 2.4-3.7 4.5-4.5 6.3s-1.2 4.1-1.2 6.9zm111.6 0c0 2.8.4 5.1 1.2 6.9s2.3 3.9 4.5 6.3l21.3 21.3h-99.9l21.3-21.3c2.2-2.4 3.7-4.5 4.5-6.3s1.2-4.1 1.2-6.9V450c0-2.8-.4-5.1-1.2-6.9s-2.3-3.9-4.5-6.3l-21.3-21.3h99.9l-21.3 21.3c-2.2 2.4-3.7 4.5-4.5 6.3s-1.2 4.1-1.2 6.9zm-33.6-93.3l7.5 5.1-99 94.2-.9-11.1zm139.38 37.2c9.4-1.4 17.4-4 24-7.8 6.8-4 12.3-8.9 16.5-14.7 4.4-5.8 7.7-12.4 9.9-19.8 2.4-7.6 3.8-15.8 4.2-24.6h54.9c-1.4 12.4-5.8 23-13.2 31.8-7.4 8.6-16.4 15.9-27 21.9-10.4 5.8-21.8 10.4-34.2 13.8-12.2 3.4-23.9 5.9-35.1 7.5zm63 69.3c2.2-2.4 3.7-4.5 4.5-6.3s1.2-4.1 1.2-6.9c0-7.8-1.8-14-5.4-18.6-3.6-4.8-8.5-8.3-14.7-10.5-6.2-2.4-13.5-3.7-21.9-3.9-8.2-.2-17.1.3-26.7 1.5v-8.1c6.8-.8 14.4-1.5 22.8-2.1 8.6-.8 17.2-1 25.8-.6 8.8.2 17.3 1.1 25.5 2.7 8.4 1.4 15.8 3.9 22.2 7.5s11.5 8.4 15.3 14.4c4 6 6 13.6 6 22.8 0 5.6-.4 10.8-1.2 15.6-.8 4.6-2 9.2-3.6 13.8h-71.1zm-63-13.2c0 2.8.4 5.1 1.2 6.9s2.3 3.9 4.5 6.3l21.3 21.3h-99.9l21.3-21.3c2.2-2.4 3.7-4.5 4.5-6.3s1.2-4.1 1.2-6.9V450c0-2.8-.4-5.1-1.2-6.9s-2.3-3.9-4.5-6.3l-21.3-21.3h99.9l-21.3 21.3c-2.2 2.4-3.7 4.5-4.5 6.3s-1.2 4.1-1.2 6.9zm238.78-64.2v9c-10.2 3.4-18.9 7.2-26.1 11.4-7 4-12.7 8.3-17.1 12.9s-7.6 9.4-9.6 14.4c-2 4.8-3 9.7-3 14.7 0 6.4 2 11.6 6 15.6 4 3.8 9.2 5.7 15.6 5.7 3.6 0 7.2-.8 10.8-2.4 3.8-1.6 7.5-3.7 11.1-6.3s6.9-5.6 9.9-9c3.2-3.6 6-7.3 8.4-11.1l-11.1-73.8c-1.6-9.6-4.8-17.7-9.6-24.3-4.6-6.8-11.4-10.2-20.4-10.2-6.4 0-11.6 1.9-15.6 5.7-3.8 3.6-6.9 8.8-9.3 15.6l-15.3 44.1h-1.2l-12-76.8c2.6 2 5.3 3.7 8.1 5.1 2.2 1.2 4.7 2.3 7.5 3.3s5.3 1.5 7.5 1.5c2.8 0 5.5-.4 8.1-1.2 2.8-1 6.5-2 11.1-3 8-1.8 15.6-2.7 22.8-2.7 8.2 0 15.9.9 23.1 2.7 7.4 1.8 14 4.8 19.8 9 6 4.2 11 9.8 15 16.8 4 6.8 6.8 15.4 8.4 25.8l10.5 67.8c1 5.8 2.7 10.1 5.1 12.9l25.8 25.5h-71.4l-4.8-30.9c-7.8 11.4-17.8 19.9-30 25.5-12 5.6-25.2 8.4-39.6 8.4-6.2 0-11.9-.7-17.1-2.1s-9.8-3.5-13.8-6.3c-3.8-3-6.8-6.6-9-10.8s-3.3-9.2-3.3-15c0-6.6 1.8-12.9 5.4-18.9 3.8-6.2 9.8-12.1 18-17.7 8.4-5.6 19.2-10.9 32.4-15.9 13.4-5.2 29.7-10.2 48.9-15zM205.4 838.5c0 2.8.4 5.1 1.2 6.9s2.3 3.9 4.5 6.3l21.3 21.3h-99.9l21.3-21.3c2.2-2.4 3.7-4.5 4.5-6.3s1.2-4.1 1.2-6.9v-102c0-3.6-.8-6.6-2.4-9-1.4-2.4-3.8-3.6-7.2-3.6h-2.4c-4 0-6.9.9-8.7 2.7-1.8 1.6-3.5 4.1-5.1 7.5l-29.1 63h-1.2l-3.9-87.6c5.6 1.2 11 2.2 16.2 3 4.6.8 9.3 1.5 14.1 2.1 5 .6 9.3.9 12.9.9h81.6c5.4 0 10.8-.3 16.2-.9 5.6-.6 10.7-1.3 15.3-2.1 5.2-.8 10.4-1.8 15.6-3l-27.6 87.6h-1.2l-12.3-63c-.6-3.2-1.7-5.7-3.3-7.5-1.4-1.8-4.1-2.7-8.1-2.7h-1.8c-4.2 0-7.2 1.3-9 3.9-1.8 2.4-2.7 5.3-2.7 8.7zm76.849-123h90.6l-17.4 17.7c-1.6 1.6-2.5 3.5-2.7 5.7s.3 4.3 1.5 6.3l43.2 70.2h-3.6l33.6-70.2c1-1.8 1.6-3.8 1.8-6 .4-2.2-.4-4.2-2.4-6l-18-17.7h57.6l-22.8 20.1c-1.2 1.2-2.3 2.4-3.3 3.6-1 1-2 2.6-3 4.8l-62.4 130.5c-4.6 9.6-9.3 17.8-14.1 24.6s-10 12.4-15.6 16.8c-5.4 4.4-11.4 7.6-18 9.6s-14.1 3-22.5 3c-6.8 0-13.4-1.1-19.8-3.3l-10.5-101.1h1.2l40.2 65.1c2.2 3.4 4.6 6 7.2 7.8 2.6 2 5.8 3 9.6 3 3.4 0 6.6-.4 9.6-1.2s5.8-2.3 8.4-4.5c2.8-2 5.4-4.8 7.8-8.4 2.6-3.4 5.2-7.7 7.8-12.9l9-18.6-1.8 9.9z"/><path d="M539.279 864.6c12-2.4 22.8-6.9 32.4-13.5 9.8-6.6 18.2-14.3 25.2-23.1s12.4-18.2 16.2-28.2c3.8-10.2 5.7-20 5.7-29.4 0-13.2-2.9-23.1-8.7-29.7-5.6-6.8-13.2-10.2-22.8-10.2-5.8 0-11.6 1.6-17.4 4.8-5.6 3.2-10.7 7.6-15.3 13.2-4.6 5.4-8.3 11.9-11.1 19.5s-4.2 15.7-4.2 24.3zm0-114.3c3.6-6.8 7.9-12.6 12.9-17.4s10.2-8.7 15.6-11.7c5.6-3 11.3-5.2 17.1-6.6 6-1.4 11.8-2.1 17.4-2.1 9.8 0 18.7 1.3 26.7 3.9s14.8 6.5 20.4 11.7c5.8 5 10.3 11.4 13.5 19.2 3.2 7.6 4.8 16.5 4.8 26.7 0 11.8-2.7 23.2-8.1 34.2s-13.5 21-24.3 30c-10.8 8.8-24.2 16.3-40.2 22.5s-34.6 10.3-55.8 12.3v18c0 2.8.4 5.1 1.2 6.9s2.3 3.9 4.5 6.3l21.3 21.3h-72.9V750c0-2.8-.4-5.1-1.2-6.9s-2.3-3.9-4.5-6.3l-21.3-21.3h72.9zm207.457 88.2c0 2.8.4 5.1 1.2 6.9s2.3 3.9 4.5 6.3l21.3 21.3h-99.9l21.3-21.3c2.2-2.4 3.7-4.5 4.5-6.3s1.2-4.1 1.2-6.9V750c0-2.8-.4-5.1-1.2-6.9s-2.3-3.9-4.5-6.3l-21.3-21.3h99.9l-21.3 21.3c-2.2 2.4-3.7 4.5-4.5 6.3s-1.2 4.1-1.2 6.9zm111.6 0c0 2.8.4 5.1 1.2 6.9s2.3 3.9 4.5 6.3l21.3 21.3h-99.9l21.3-21.3c2.2-2.4 3.7-4.5 4.5-6.3s1.2-4.1 1.2-6.9V750c0-2.8-.4-5.1-1.2-6.9s-2.3-3.9-4.5-6.3l-21.3-21.3h99.9l-21.3 21.3c-2.2 2.4-3.7 4.5-4.5 6.3s-1.2 4.1-1.2 6.9zm-33.6-93.3l7.5 5.1-99 94.2-.9-11.1zm142.823-24.3c-13.2 0-23.3 3.2-30.3 9.6-6.8 6.4-10.2 14.7-10.2 24.9 0 8.2 1.8 17.3 5.4 27.3 3.8 10 9.1 19.4 15.9 28.2 7 8.8 15.3 16.2 24.9 22.2 9.8 6 20.8 9 33.001 9 6.8 0 13.2-1.1 19.2-3.3 6.2-2.2 11.6-5.4 16.2-9.6s8.2-9.5 10.8-15.9 3.9-13.8 3.9-22.2c0-7.6-1.5-15.6-4.5-24h1.2c5 11.6 7.5 22.7 7.5 33.3 0 11.2-2.3 21.5-6.9 30.9-4.4 9.2-10.5 17.1-18.3 23.7-7.6 6.6-16.4 11.8-26.4 15.6-10.001 3.6-20.401 5.4-31.201 5.4-12 0-23.3-2-33.9-6-10.4-4.2-19.5-9.9-27.3-17.1-7.8-7.4-14-16-18.6-25.8-4.4-9.8-6.6-20.4-6.6-31.8 0-11.8 2.4-22.7 7.2-32.7 4.8-10.2 11.3-19 19.5-26.4s17.6-13.2 28.2-17.4c10.8-4.2 22.1-6.3 33.9-6.3 7 0 13.3.5 18.9 1.5 5.601 1 10.301 1.5 14.101 1.5 3.2 0 6.3-.3 9.3-.9 3.2-.6 6-1.3 8.4-2.1 2.8-.8 5.5-1.8 8.1-3l-20.7 88.2h-1.2l-14.4-50.1c-2.4-8.2-6.101-14.7-11.101-19.5s-13-7.2-24-7.2zm218.411 117.6c0 2.8.4 5.1 1.2 6.9s2.3 3.9 4.5 6.3l21.3 21.3h-99.9l21.3-21.3c2.2-2.4 3.7-4.5 4.5-6.3s1.2-4.1 1.2-6.9v-102c0-3.6-.8-6.6-2.4-9-1.4-2.4-3.8-3.6-7.2-3.6h-2.4c-4 0-6.9.9-8.7 2.7-1.8 1.6-3.5 4.1-5.1 7.5l-29.1 63h-1.2l-3.9-87.6c5.6 1.2 11 2.2 16.2 3 4.6.8 9.3 1.5 14.1 2.1 5 .6 9.3.9 12.9.9h81.6c5.4 0 10.8-.3 16.2-.9 5.6-.6 10.7-1.3 15.3-2.1 5.2-.8 10.4-1.8 15.6-3l-27.6 87.6h-1.2l-12.3-63c-.6-3.2-1.7-5.7-3.3-7.5-1.4-1.8-4.1-2.7-8.1-2.7h-1.8c-4.2 0-7.2 1.3-9 3.9-1.8 2.4-2.7 5.3-2.7 8.7zm144.95 0c0 2.8.4 5.1 1.2 6.9s2.3 3.9 4.5 6.3l21.3 21.3h-99.9l21.3-21.3c2.2-2.4 3.7-4.5 4.5-6.3s1.2-4.1 1.2-6.9V750c0-2.8-.4-5.1-1.2-6.9s-2.3-3.9-4.5-6.3l-21.3-21.3h99.9l-21.3 21.3c-2.2 2.4-3.7 4.5-4.5 6.3s-1.2 4.1-1.2 6.9zm111.6 0c0 2.8.4 5.1 1.2 6.9s2.3 3.9 4.5 6.3l21.3 21.3h-99.9l21.3-21.3c2.2-2.4 3.7-4.5 4.5-6.3s1.2-4.1 1.2-6.9V750c0-2.8-.4-5.1-1.2-6.9s-2.3-3.9-4.5-6.3l-21.3-21.3h99.9l-21.3 21.3c-2.2 2.4-3.7 4.5-4.5 6.3s-1.2 4.1-1.2 6.9zm-33.6-93.3l7.5 5.1-99 94.2-.9-11.1zm141.48-29.7l-21 20.7c-2.4 2.2-3.6 5-3.6 8.4 0 10.8 2.9 19.9 8.7 27.3s15 11.1 27.6 11.1c3.2 0 6.6-.3 10.2-.9v8.7c-6.6 2.2-13.5 4-20.7 5.4-7.2 1.2-14.4 1.7-21.6 1.5-7-.2-13.7-1.2-20.1-3-6.4-2-12.1-5.1-17.1-9.3-4.8-4.4-8.7-9.9-11.7-16.5-2.8-6.8-4.2-15.1-4.2-24.9 0-4 .4-8.5 1.2-13.5 1-5.2 2.4-10.2 4.2-15zm67.8 123c0 2.8.4 5.1 1.2 6.9s2.3 3.9 4.5 6.3l21.3 21.3h-99.9l21.3-21.3c2.2-2.4 3.7-4.5 4.5-6.3s1.2-4.1 1.2-6.9v-123h72.9l-21.3 21.3c-2.2 2.4-3.7 4.5-4.5 6.3s-1.2 4.1-1.2 6.9zm105.12-89.4c8.2 0 13.9-1.5 17.1-4.5 3.4-3 5.1-6.7 5.1-11.1 0-3.4-1.5-6.3-4.5-8.7-3-2.6-7.5-3.9-13.5-3.9-13.2 0-23.3 3.2-30.3 9.6-6.8 6.4-10.2 14.7-10.2 24.9 0 8.2 1.8 17.3 5.4 27.3 3.8 10 9.1 19.4 15.9 28.2 7 8.8 15.3 16.2 24.9 22.2 9.8 6 20.8 9 33 9 6.8 0 13.2-1.1 19.2-3.3s11.1-5.4 15.3-9.6c4.4-4.2 7.8-9.5 10.2-15.9 2.6-6.4 3.9-13.8 3.9-22.2 0-7.6-1.5-15.6-4.5-24h1.2c2.8 5.4 5 11 6.6 16.8 1.6 5.6 2.4 11.1 2.4 16.5 0 11.2-2.3 21.5-6.9 30.9-4.4 9.2-10.5 17.1-18.3 23.7-7.6 6.6-16.4 11.8-26.4 15.6-10 3.6-20.4 5.4-31.2 5.4-12 0-23.3-2-33.9-6-10.4-4.2-19.5-9.9-27.3-17.1-7.8-7.4-14-16-18.6-25.8-4.4-9.8-6.6-20.4-6.6-31.8 0-11.8 2.4-22.7 7.2-32.7 4.8-10.2 11.3-19 19.5-26.4s17.6-13.2 28.2-17.4c10.8-4.2 22.1-6.3 33.9-6.3 7.4 0 14.5.9 21.3 2.7 6.8 1.6 12.8 4.2 18 7.8s9.6 8.3 13.2 14.1c3.6 5.6 6 12.4 7.2 20.4h-114.6v-8.4zm191.41-28.2c-13.2 0-23.3 3.2-30.3 9.6-6.8 6.4-10.2 14.7-10.2 24.9 0 8.2 1.8 17.3 5.4 27.3 3.8 10 9.1 19.4 15.9 28.2 7 8.8 15.3 16.2 24.9 22.2 9.8 6 20.8 9 33 9 6.8 0 13.2-1.1 19.2-3.3 6.2-2.2 11.6-5.4 16.2-9.6s8.2-9.5 10.8-15.9 3.9-13.8 3.9-22.2c0-7.6-1.5-15.6-4.5-24h1.2c5 11.6 7.5 22.7 7.5 33.3 0 11.2-2.3 21.5-6.9 30.9-4.4 9.2-10.5 17.1-18.3 23.7-7.6 6.6-16.4 11.8-26.4 15.6-10 3.6-20.4 5.4-31.2 5.4-12 0-23.3-2-33.9-6-10.4-4.2-19.5-9.9-27.3-17.1-7.8-7.4-14-16-18.6-25.8-4.4-9.8-6.6-20.4-6.6-31.8 0-11.8 2.4-22.7 7.2-32.7 4.8-10.2 11.3-19 19.5-26.4s17.6-13.2 28.2-17.4c10.8-4.2 22.1-6.3 33.9-6.3 7 0 13.3.5 18.9 1.5s10.3 1.5 14.1 1.5c3.2 0 6.3-.3 9.3-.9 3.2-.6 6-1.3 8.4-2.1 2.8-.8 5.5-1.8 8.1-3l-20.7 88.2h-1.2l-14.4-50.1c-2.4-8.2-6.1-14.7-11.1-19.5s-13-7.2-24-7.2zm172.05 61.5c9.4-1.4 17.4-4 24-7.8 6.8-4 12.3-8.9 16.5-14.7 4.4-5.8 7.7-12.4 9.9-19.8 2.4-7.6 3.79-15.8 4.2-24.6h54.89c-1.4 12.4-5.8 23-13.2 31.8-7.4 8.6-16.4 15.9-27 21.9-10.4 5.8-21.79 10.4-34.19 13.8-12.2 3.4-23.9 5.9-35.1 7.5zm62.99 69.3c2.2-2.4 3.7-4.5 4.5-6.3s1.21-4.1 1.21-6.9c0-7.8-1.81-14-5.41-18.6-3.6-4.8-8.5-8.3-14.69-10.5-6.21-2.4-13.51-3.7-21.91-3.9-8.2-.2-17.09.3-26.69 1.5v-8.1c6.8-.8 14.39-1.5 22.79-2.1 8.6-.8 17.2-1 25.81-.6 8.8.2 17.3 1.1 25.5 2.7 8.4 1.4 15.79 3.9 22.19 7.5s11.51 8.4 15.31 14.4c4 6 6 13.6 6 22.8 0 5.6-.4 10.8-1.2 15.6-.8 4.6-2.01 9.2-3.61 13.8h-71.1zm-62.99-13.2c0 2.8.39 5.1 1.19 6.9s2.3 3.9 4.5 6.3l21.31 21.3h-99.9l21.3-21.3c2.2-2.4 3.7-4.5 4.5-6.3s1.2-4.1 1.2-6.9V750c0-2.8-.4-5.1-1.2-6.9s-2.3-3.9-4.5-6.3l-21.3-21.3h99.9l-21.31 21.3c-2.2 2.4-3.7 4.5-4.5 6.3s-1.19 4.1-1.19 6.9zm178.77-114.9c7-3.8 14.2-6.6 21.6-8.4s14.9-2.7 22.5-2.7c15.2 0 29.5 3.5 42.9 10.5 13.6 7 24.4 17.1 32.4 30.3 7.4 12.4 11.1 25.6 11.1 39.6 0 7.2-1 14.3-3 21.3-2 6.8-4.9 13.4-8.7 19.8-3.6 6.2-8.2 12-13.8 17.4-5.6 5.2-12 9.7-19.2 13.5-7 3.8-14.2 6.6-21.6 8.4s-14.9 2.7-22.5 2.7c-15.2 0-29.6-3.5-43.2-10.5-13.4-7-24.1-17.1-32.1-30.3-3.8-6.4-6.6-13-8.4-19.8s-2.7-13.6-2.7-20.4c0-14.4 3.8-28 11.4-40.8 7.8-12.8 18.9-23 33.3-30.6zm3 9.6c-8 4.4-12 11.9-12 22.5 0 6.4 1.7 14.3 5.1 23.7 3.4 9.2 8.9 19.7 16.5 31.5 11 16.8 21.4 28.9 31.2 36.3 9.8 7.2 18.7 10.8 26.7 10.8 2.2 0 4.3-.2 6.3-.6s4-1.1 6-2.1c8-4.4 12-11.9 12-22.5 0-6.4-1.7-14.2-5.1-23.4s-9-19.8-16.8-31.8c-11-16.8-21.4-28.8-31.2-36-9.8-7.4-18.6-11.1-26.4-11.1-2.2 0-4.3.2-6.3.6s-4 1.1-6 2.1zm206.41 105.3c0 2.8.4 5.1 1.2 6.9s2.3 3.9 4.5 6.3l21.3 21.3h-99.9l21.3-21.3c2.2-2.4 3.7-4.5 4.5-6.3s1.2-4.1 1.2-6.9V750c0-2.8-.4-5.1-1.2-6.9s-2.3-3.9-4.5-6.3l-21.3-21.3h98.7c4.8 0 9.8-.3 15-.9s10.1-1.3 14.7-2.1c5.2-.8 10.4-1.8 15.6-3l6 91.8h-1.2l-40.5-67.2c-2.2-3.8-4.5-6.4-6.9-7.8-2.2-1.6-5.4-2.4-9.6-2.4h-1.2c-6.6 0-11.2 1.6-13.8 4.8-2.6 3-3.9 6.9-3.9 11.7zm133.66-114.9c7-3.8 14.2-6.6 21.6-8.4s14.9-2.7 22.5-2.7c15.2 0 29.5 3.5 42.9 10.5 13.6 7 24.4 17.1 32.4 30.3 7.4 12.4 11.1 25.6 11.1 39.6 0 7.2-1 14.3-3 21.3-2 6.8-4.9 13.4-8.7 19.8-3.6 6.2-8.2 12-13.8 17.4-5.6 5.2-12 9.7-19.2 13.5-7 3.8-14.2 6.6-21.6 8.4s-14.9 2.7-22.5 2.7c-15.2 0-29.6-3.5-43.2-10.5-13.4-7-24.1-17.1-32.1-30.3-3.8-6.4-6.6-13-8.4-19.8s-2.7-13.6-2.7-20.4c0-14.4 3.8-28 11.4-40.8 7.8-12.8 18.9-23 33.3-30.6zm3 9.6c-8 4.4-12 11.9-12 22.5 0 6.4 1.7 14.3 5.1 23.7 3.4 9.2 8.9 19.7 16.5 31.5 11 16.8 21.4 28.9 31.2 36.3 9.8 7.2 18.7 10.8 26.7 10.8 2.2 0 4.3-.2 6.3-.6s4-1.1 6-2.1c8-4.4 12-11.9 12-22.5 0-6.4-1.7-14.2-5.1-23.4s-9-19.8-16.8-31.8c-11-16.8-21.4-28.8-31.2-36-9.8-7.4-18.6-11.1-26.4-11.1-2.2 0-4.3.2-6.3.6s-4 1.1-6 2.1zM153.5 1044.6c-7.2 4-10.8 10.8-10.8 20.4 0 6 1.5 13.2 4.5 21.6 3 8.2 8 17.7 15 28.5 10.2 15.4 19.7 26.4 28.5 33s16.8 9.9 24 9.9c4.2 0 7.9-.8 11.1-2.4 3.4-2 6-4.7 7.8-8.1 2-3.4 3-7.5 3-12.3 0-6-1.6-13.1-4.8-21.3-3-8.4-8-18.1-15-29.1-10-15.4-19.5-26.3-28.5-32.7-8.8-6.6-16.7-9.9-23.7-9.9-4.2 0-7.9.8-11.1 2.4zm-21.6 53.4c-2-7.4-3-14.9-3-22.5 0-9.2 1.9-17.4 5.7-24.6 3.8-7.4 10.2-13.5 19.2-18.3 6.2-3.4 12.4-5.6 18.6-6.6 6.4-1.2 12.9-1.8 19.5-1.8 14.2 0 27.5 3.3 39.9 9.9 12.6 6.6 22.6 16 30 28.2 7 11.4 10.5 23.6 10.5 36.6 0 13.4-3.6 26.1-10.8 38.1s-17.5 21.6-30.9 28.8c-12.8 6.8-26.5 10.2-41.1 10.2-15.8 0-29.5-3.5-41.1-10.5-11.4-7.2-20.9-16.8-28.5-28.8-7.4-12-12.9-25.8-16.5-41.4s-5.4-32-5.4-49.2c0-17.6 2.5-31.9 7.5-42.9 5-11.2 11.5-20 19.5-26.4s16.8-10.8 26.4-13.2c9.8-2.4 19.4-3.6 28.8-3.6 2.6 0 5.8.2 9.6.6 4 .2 8.2.5 12.6.9 4.6.4 9.1.8 13.5 1.2 4.6.2 8.8.3 12.6.3 3.6 0 7-.3 10.2-.9s5.9-1.3 8.1-2.1c2.6-.8 5-1.8 7.2-3l-18 49.8-80.7-22.2c-9.2-2.6-16.7-2.4-22.5.6s-8.7 9-8.7 18c0 8.8 1 18 3 27.6s4.7 19.3 8.1 29.1 7.4 19.4 12 28.8 9.6 18.2 15 26.4zm220.758 66.6c12-2.4 22.8-6.9 32.4-13.5 9.8-6.6 18.2-14.3 25.2-23.1s12.4-18.2 16.2-28.2c3.8-10.2 5.7-20 5.7-29.4 0-13.2-2.9-23.1-8.7-29.7-5.6-6.8-13.2-10.2-22.8-10.2-5.8 0-11.6 1.6-17.4 4.8-5.6 3.2-10.7 7.6-15.3 13.2-4.6 5.4-8.3 11.9-11.1 19.5s-4.2 15.7-4.2 24.3zm0-114.3c3.6-6.8 7.9-12.6 12.9-17.4s10.2-8.7 15.6-11.7c5.6-3 11.3-5.2 17.1-6.6 6-1.4 11.8-2.1 17.4-2.1 9.8 0 18.7 1.3 26.7 3.9s14.8 6.5 20.4 11.7c5.8 5 10.3 11.4 13.5 19.2 3.2 7.6 4.8 16.5 4.8 26.7 0 11.8-2.7 23.2-8.1 34.2s-13.5 21-24.3 30c-10.8 8.8-24.2 16.3-40.2 22.5s-34.6 10.3-55.8 12.3v18c0 2.8.4 5.1 1.2 6.9s2.3 3.9 4.5 6.3l21.3 21.3h-72.9V1050c0-2.8-.4-5.1-1.2-6.9s-2.3-3.9-4.5-6.3l-21.3-21.3h72.9zm218.416-1.2c8.2 0 13.9-1.5 17.1-4.5 3.4-3 5.1-6.7 5.1-11.1 0-3.4-1.5-6.3-4.5-8.7-3-2.6-7.5-3.9-13.5-3.9-13.2 0-23.3 3.2-30.3 9.6-6.8 6.4-10.2 14.7-10.2 24.9 0 8.2 1.8 17.3 5.4 27.3 3.8 10 9.1 19.4 15.9 28.2 7 8.8 15.3 16.2 24.9 22.2 9.8 6 20.8 9 33 9 6.8 0 13.2-1.1 19.2-3.3s11.1-5.4 15.3-9.6c4.4-4.2 7.8-9.5 10.2-15.9 2.6-6.4 3.9-13.8 3.9-22.2 0-7.6-1.5-15.6-4.5-24h1.2c2.8 5.4 5 11 6.6 16.8 1.6 5.6 2.4 11.1 2.4 16.5 0 11.2-2.3 21.5-6.9 30.9-4.4 9.2-10.5 17.1-18.3 23.7-7.6 6.6-16.4 11.8-26.4 15.6-10 3.6-20.4 5.4-31.2 5.4-12 0-23.3-2-33.9-6-10.4-4.2-19.5-9.9-27.3-17.1-7.8-7.4-14-16-18.6-25.8-4.4-9.8-6.6-20.4-6.6-31.8 0-11.8 2.4-22.7 7.2-32.7 4.8-10.2 11.3-19 19.5-26.4s17.6-13.2 28.2-17.4c10.8-4.2 22.1-6.3 33.9-6.3 7.4 0 14.5.9 21.3 2.7 6.8 1.6 12.8 4.2 18 7.8s9.6 8.3 13.2 14.1c3.6 5.6 6 12.4 7.2 20.4h-114.6v-8.4zm176.248 89.4c0 2.8.4 5.1 1.2 6.9s2.3 3.9 4.5 6.3l21.3 21.3h-99.9l21.3-21.3c2.2-2.4 3.7-4.5 4.5-6.3s1.2-4.1 1.2-6.9V1050c0-2.8-.4-5.1-1.2-6.9s-2.3-3.9-4.5-6.3l-21.3-21.3h99.9l-21.3 21.3c-2.2 2.4-3.7 4.5-4.5 6.3s-1.2 4.1-1.2 6.9zm108.6 0c0 2.8.4 5.1 1.2 6.9s2.3 3.9 4.5 6.3l21.3 21.3h-99.9l21.3-21.3c2.2-2.4 3.7-4.5 4.5-6.3s1.2-4.1 1.2-6.9V1050c0-2.8-.4-5.1-1.2-6.9s-2.3-3.9-4.5-6.3l-21.3-21.3h99.9l-21.3 21.3c-2.2 2.4-3.7 4.5-4.5 6.3s-1.2 4.1-1.2 6.9zm-31.5-42.9l1.2 9.3-95.1-14.7-1.2-9.3zm139.983-49.8l-41.1 104.7c-1.6 4-1.8 7.4-.6 10.2 1.4 2.6 4.7 3.9 9.9 3.9h75.895zm-24.6 127.2c-3.4 0-6.3.7-8.7 2.1-2.2 1.4-4.3 3.5-6.3 6.3l-32.7 47.1h-1.2l-3.6-63.9h21l45.3-116.1c1.2-3.2 1.7-6.2 1.5-9-.2-3-1.5-5.6-3.9-7.8l-16.8-16.2h67.495l56.1 149.1h27l-26.1 63.9h-1.2l-17.1-46.2c-1.2-3.4-2.9-5.8-5.1-7.2-2-1.4-5.4-2.1-10.2-2.1zm257.525-98.7v9c-10.2 3.4-18.9 7.2-26.1 11.4-7 4-12.7 8.3-17.1 12.9s-7.6 9.4-9.6 14.4c-2 4.8-3 9.7-3 14.7 0 6.4 2 11.6 6 15.6 4 3.8 9.2 5.7 15.6 5.7 3.6 0 7.2-.8 10.8-2.4 3.8-1.6 7.5-3.7 11.1-6.3s6.9-5.6 9.9-9c3.2-3.6 6-7.3 8.4-11.1l-11.1-73.8c-1.6-9.6-4.8-17.7-9.6-24.3-4.6-6.8-11.4-10.2-20.4-10.2-6.4 0-11.6 1.9-15.6 5.7-3.8 3.6-6.9 8.8-9.3 15.6l-15.3 44.1h-1.2l-12-76.8c2.6 2 5.3 3.7 8.1 5.1 2.2 1.2 4.7 2.3 7.5 3.3s5.3 1.5 7.5 1.5c2.8 0 5.5-.4 8.1-1.2 2.8-1 6.5-2 11.1-3 8-1.8 15.6-2.7 22.8-2.7 8.2 0 15.9.9 23.1 2.7 7.4 1.8 14 4.8 19.8 9 6 4.2 11 9.8 15 16.8 4 6.8 6.8 15.4 8.4 25.8l10.5 67.8c1 5.8 2.7 10.1 5.1 12.9l25.8 25.5h-71.4l-4.8-30.9c-7.8 11.4-17.8 19.9-30 25.5-12 5.6-25.2 8.4-39.6 8.4-6.2 0-11.9-.7-17.1-2.1s-9.8-3.5-13.8-6.3c-3.8-3-6.8-6.6-9-10.8s-3.3-9.2-3.3-15c0-6.6 1.8-12.9 5.4-18.9 3.8-6.2 9.8-12.1 18-17.7 8.4-5.6 19.2-10.9 32.4-15.9 13.4-5.2 29.7-10.2 48.9-15zm310.25 64.2c0 2.8.4 5.1 1.2 6.9s2.3 3.9 4.5 6.3l21.3 21.3h-99.9l21.3-21.3c2.2-2.4 3.7-4.5 4.5-6.3s1.2-4.1 1.2-6.9V1050c0-2.8-.4-5.1-1.2-6.9s-2.3-3.9-4.5-6.3l-21.3-21.3h98.7c4.8 0 9.8-.3 15-.9s10.1-1.3 14.7-2.1c5.2-.8 10.4-1.8 15.6-3l6 91.8h-1.2l-40.5-67.2c-2.2-3.8-4.5-6.4-6.9-7.8-2.2-1.6-5.4-2.4-9.6-2.4h-1.2c-6.6 0-11.2 1.6-13.8 4.8-2.6 3-3.9 6.9-3.9 11.7zm133.66-114.9c7-3.8 14.2-6.6 21.6-8.4s14.9-2.7 22.5-2.7c15.2 0 29.5 3.5 42.9 10.5 13.6 7 24.4 17.1 32.4 30.3 7.4 12.4 11.1 25.6 11.1 39.6 0 7.2-1 14.3-3 21.3-2 6.8-4.9 13.4-8.7 19.8-3.6 6.2-8.2 12-13.8 17.4-5.6 5.2-12 9.7-19.2 13.5-7 3.8-14.2 6.6-21.6 8.4s-14.9 2.7-22.5 2.7c-15.2 0-29.6-3.5-43.2-10.5-13.4-7-24.1-17.1-32.1-30.3-3.8-6.4-6.6-13-8.4-19.8s-2.7-13.6-2.7-20.4c0-14.4 3.8-28 11.4-40.8 7.8-12.8 18.9-23 33.3-30.6zm3 9.6c-8 4.4-12 11.9-12 22.5 0 6.4 1.7 14.3 5.1 23.7 3.4 9.2 8.9 19.7 16.5 31.5 11 16.8 21.4 28.9 31.2 36.3 9.8 7.2 18.7 10.8 26.7 10.8 2.2 0 4.3-.2 6.3-.6s4-1.1 6-2.1c8-4.4 12-11.9 12-22.5 0-6.4-1.7-14.2-5.1-23.4s-9-19.8-16.8-31.8c-11-16.8-21.4-28.8-31.2-36-9.8-7.4-18.6-11.1-26.4-11.1-2.2 0-4.3.2-6.3.6s-4 1.1-6 2.1zm207.83 131.4c12-2.4 22.8-6.9 32.4-13.5 9.8-6.6 18.2-14.3 25.2-23.1s12.4-18.2 16.2-28.2c3.8-10.2 5.7-20 5.7-29.4 0-13.2-2.9-23.1-8.7-29.7-5.6-6.8-13.2-10.2-22.8-10.2-5.8 0-11.6 1.6-17.4 4.8-5.6 3.2-10.7 7.6-15.3 13.2-4.6 5.4-8.3 11.9-11.1 19.5s-4.2 15.7-4.2 24.3zm0-114.3c3.6-6.8 7.9-12.6 12.9-17.4s10.2-8.7 15.6-11.7c5.6-3 11.3-5.2 17.1-6.6 6-1.4 11.8-2.1 17.4-2.1 9.8 0 18.7 1.3 26.7 3.9s14.8 6.5 20.4 11.7c5.8 5 10.3 11.4 13.5 19.2 3.2 7.6 4.8 16.5 4.8 26.7 0 11.8-2.7 23.2-8.1 34.2s-13.5 21-24.3 30c-10.8 8.8-24.2 16.3-40.2 22.5s-34.6 10.3-55.8 12.3v18c0 2.8.4 5.1 1.2 6.9s2.3 3.9 4.5 6.3l21.3 21.3h-72.9V1050c0-2.8-.4-5.1-1.2-6.9s-2.3-3.9-4.5-6.3l-21.3-21.3h72.9zm191.12-26.7c7-3.8 14.2-6.6 21.6-8.4s14.9-2.7 22.5-2.7c15.2 0 29.5 3.5 42.9 10.5 13.6 7 24.4 17.1 32.4 30.3 7.4 12.4 11.1 25.6 11.1 39.6 0 7.2-1 14.3-3 21.3-2 6.8-4.9 13.4-8.7 19.8-3.6 6.2-8.2 12-13.8 17.4-5.6 5.2-12 9.7-19.2 13.5-7 3.8-14.2 6.6-21.6 8.4s-14.9 2.7-22.5 2.7c-15.2 0-29.6-3.5-43.2-10.5-13.4-7-24.1-17.1-32.1-30.3-3.8-6.4-6.6-13-8.4-19.8s-2.7-13.6-2.7-20.4c0-14.4 3.8-28 11.4-40.8 7.8-12.8 18.9-23 33.3-30.6zm3 9.6c-8 4.4-12 11.9-12 22.5 0 6.4 1.7 14.3 5.1 23.7 3.4 9.2 8.9 19.7 16.5 31.5 11 16.8 21.4 28.9 31.2 36.3 9.8 7.2 18.7 10.8 26.7 10.8 2.2 0 4.3-.2 6.3-.6s4-1.1 6-2.1c8-4.4 12-11.9 12-22.5 0-6.4-1.7-14.2-5.1-23.4s-9-19.8-16.8-31.8c-11-16.8-21.4-28.8-31.2-36-9.8-7.4-18.6-11.1-26.4-11.1-2.2 0-4.3.2-6.3.6s-4 1.1-6 2.1zm202.88 12.6l-41.1 104.7c-1.6 4-1.8 7.4-.6 10.2 1.4 2.6 4.7 3.9 9.9 3.9h75.9zm-24.6 127.2c-3.4 0-6.3.7-8.7 2.1-2.2 1.4-4.3 3.5-6.3 6.3l-32.7 47.1h-1.2l-3.6-63.9h21l45.3-116.1c1.2-3.2 1.7-6.2 1.5-9-.2-3-1.5-5.6-3.9-7.8l-16.8-16.2h67.5l56.1 149.1h27l-26.1 63.9h-1.2l-17.1-46.2c-1.2-3.4-2.9-5.8-5.1-7.2-2-1.4-5.4-2.1-10.2-2.1zm257.53-98.7v9c-10.2 3.4-18.9 7.2-26.1 11.4-7 4-12.7 8.3-17.1 12.9s-7.6 9.4-9.6 14.4c-2 4.8-3 9.7-3 14.7 0 6.4 2 11.6 6 15.6 4 3.8 9.2 5.7 15.6 5.7 3.6 0 7.2-.8 10.8-2.4 3.8-1.6 7.5-3.7 11.1-6.3s6.9-5.6 9.9-9c3.2-3.6 6-7.3 8.4-11.1l-11.1-73.8c-1.6-9.6-4.8-17.7-9.6-24.3-4.6-6.8-11.4-10.2-20.4-10.2-6.4 0-11.6 1.9-15.6 5.7-3.8 3.6-6.9 8.8-9.3 15.6l-15.3 44.1h-1.2l-12-76.8c2.6 2 5.3 3.7 8.1 5.1 2.2 1.2 4.7 2.3 7.5 3.3s5.3 1.5 7.5 1.5c2.8 0 5.5-.4 8.1-1.2 2.8-1 6.5-2 11.1-3 8-1.8 15.6-2.7 22.8-2.7 8.2 0 15.9.9 23.1 2.7 7.4 1.8 14 4.8 19.8 9 6 4.2 11 9.8 15 16.8 4 6.8 6.8 15.4 8.4 25.8l10.5 67.8c1 5.8 2.7 10.1 5.1 12.9l25.8 25.5h-71.4l-4.8-30.9c-7.8 11.4-17.8 19.9-30 25.5-12 5.6-25.2 8.4-39.6 8.4-6.2 0-11.9-.7-17.1-2.1s-9.8-3.5-13.8-6.3c-3.8-3-6.8-6.6-9-10.8s-3.3-9.2-3.3-15c0-6.6 1.8-12.9 5.4-18.9 3.8-6.2 9.8-12.1 18-17.7 8.4-5.6 19.2-10.9 32.4-15.9 13.4-5.2 29.7-10.2 48.9-15zM255.2 1431c0-11-2.3-20.1-6.9-27.3-4.6-7.4-10.8-13.1-18.6-17.1-7.6-4-16.4-6.4-26.4-7.2-9.8-1-20-.7-30.6.9v50.7c0 5 .5 8.6 1.5 10.8s2.9 4.7 5.7 7.5l23.7 23.7H92l23.7-23.7c2.8-2.8 4.7-5.3 5.7-7.5s1.5-5.8 1.5-10.8v-126c0-5-.5-8.6-1.5-10.8s-2.9-4.7-5.7-7.5L92 1263h111.6l-23.7 23.7c-2.8 2.8-4.7 5.3-5.7 7.5s-1.5 5.8-1.5 10.8v48c10.2-1.6 19-4.9 26.4-9.9s13.5-11.4 18.3-19.2c5-7.8 8.8-16.8 11.4-27 2.6-10.4 4.1-21.7 4.5-33.9h64.8c-2.4 15.4-7.5 28.8-15.3 40.2-7.6 11.2-17.1 20.8-28.5 28.8s-24.1 14.4-38.1 19.2-28.5 8.4-43.5 10.8v9c7.8-1.2 16.5-2.1 26.1-2.7 9.8-.6 19.7-.5 29.7.3 10 .6 19.7 2.1 29.1 4.5 9.6 2.4 18.1 6 25.5 10.8 7.6 4.8 13.6 11.1 18 18.9 4.6 7.6 6.9 17 6.9 28.2 0 7-.5 14.1-1.5 21.3-.8 7.2-2.2 14.1-4.2 20.7h-78l23.7-23.7c2.8-2.8 4.7-5.3 5.7-7.5s1.5-5.8 1.5-10.8zm69.53-115.5h90.6l-17.4 17.7c-1.6 1.6-2.5 3.5-2.7 5.7s.3 4.3 1.5 6.3l43.2 70.2h-3.6l33.6-70.2c1-1.8 1.6-3.8 1.8-6 .4-2.2-.4-4.2-2.4-6l-18-17.7h57.6l-22.8 20.1c-1.2 1.2-2.3 2.4-3.3 3.6-1 1-2 2.6-3 4.8l-62.4 130.5c-4.6 9.6-9.3 17.8-14.1 24.6s-10 12.4-15.6 16.8c-5.4 4.4-11.4 7.6-18 9.6s-14.1 3-22.5 3c-6.8 0-13.4-1.1-19.8-3.3l-10.5-101.1h1.2l40.2 65.1c2.2 3.4 4.6 6 7.2 7.8 2.6 2 5.8 3 9.6 3 3.4 0 6.6-.4 9.6-1.2s5.8-2.3 8.4-4.5c2.8-2 5.4-4.8 7.8-8.4 2.6-3.4 5.2-7.7 7.8-12.9l9-18.6-1.8 9.9zm258.529 123c0 2.8.4 5.1 1.2 6.9s2.3 3.9 4.5 6.3l21.3 21.3h-99.9l21.3-21.3c2.2-2.4 3.7-4.5 4.5-6.3s1.2-4.1 1.2-6.9V1350c0-2.8-.4-5.1-1.2-6.9s-2.3-3.9-4.5-6.3l-21.3-21.3h99.9l-21.3 21.3c-2.2 2.4-3.7 4.5-4.5 6.3s-1.2 4.1-1.2 6.9zm108.6 0c0 2.8.4 5.1 1.2 6.9s2.3 3.9 4.5 6.3l21.3 21.3h-99.9l21.3-21.3c2.2-2.4 3.7-4.5 4.5-6.3s1.2-4.1 1.2-6.9V1350c0-2.8-.4-5.1-1.2-6.9s-2.3-3.9-4.5-6.3l-21.3-21.3h99.9l-21.3 21.3c-2.2 2.4-3.7 4.5-4.5 6.3s-1.2 4.1-1.2 6.9zm-31.5-42.9l1.2 9.3-95.1-14.7-1.2-9.3zm137.354 42.9c0 2.8.399 5.1 1.199 6.9s2.3 3.9 4.5 6.3l21.301 21.3h-99.901l21.3-21.3c2.2-2.4 3.7-4.5 4.5-6.3s1.2-4.1 1.2-6.9V1350c0-2.8-.4-5.1-1.2-6.9s-2.3-3.9-4.5-6.3l-21.3-21.3h98.701c4.8 0 9.8-.3 15-.9s10.1-1.3 14.7-2.1c5.2-.8 10.4-1.8 15.599-3l6 91.8h-1.2l-40.5-67.2c-2.2-3.8-4.499-6.4-6.899-7.8-2.2-1.6-5.401-2.4-9.601-2.4h-1.2c-6.6 0-11.2 1.6-13.8 4.8-2.6 3-3.899 6.9-3.899 11.7zm87.759-123h90.6l-17.4 17.7c-1.6 1.6-2.5 3.5-2.7 5.7s.3 4.3 1.5 6.3l43.198 70.2h-3.598l33.598-70.2c1-1.8 1.6-3.8 1.8-6 .4-2.2-.4-4.2-2.4-6l-18-17.7h57.6l-22.8 20.1c-1.2 1.2-2.3 2.4-3.3 3.6-1 1-2 2.6-3 4.8l-62.398 130.5c-4.6 9.6-9.3 17.8-14.1 24.6s-10 12.4-15.6 16.8c-5.4 4.4-11.4 7.6-18 9.6s-14.1 3-22.5 3c-6.8 0-13.4-1.1-19.8-3.3l-10.5-101.1h1.2l40.2 65.1c2.2 3.4 4.6 6 7.2 7.8 2.6 2 5.8 3 9.6 3 3.4 0 6.6-.4 9.6-1.2s5.8-2.3 8.4-4.5c2.8-2 5.4-4.8 7.8-8.4 2.6-3.4 5.2-7.7 7.8-12.9l9-18.6-1.8 9.9z"/><path d="M1142.5 1464.6c12-2.4 22.8-6.9 32.4-13.5 9.8-6.6 18.2-14.3 25.2-23.1s12.4-18.2 16.2-28.2c3.8-10.2 5.7-20 5.7-29.4 0-13.2-2.9-23.1-8.7-29.7-5.6-6.8-13.2-10.2-22.8-10.2-5.8 0-11.6 1.6-17.4 4.8-5.6 3.2-10.7 7.6-15.3 13.2-4.6 5.4-8.3 11.9-11.1 19.5s-4.2 15.7-4.2 24.3zm0-114.3c3.6-6.8 7.9-12.6 12.9-17.4s10.2-8.7 15.6-11.7c5.6-3 11.3-5.2 17.1-6.6 6-1.4 11.8-2.1 17.4-2.1 9.8 0 18.7 1.3 26.7 3.9s14.8 6.5 20.4 11.7c5.8 5 10.3 11.4 13.5 19.2 3.2 7.6 4.8 16.5 4.8 26.7 0 11.8-2.7 23.2-8.1 34.2s-13.5 21-24.3 30c-10.8 8.8-24.2 16.3-40.2 22.5s-34.6 10.3-55.8 12.3v18c0 2.8.4 5.1 1.2 6.9s2.3 3.9 4.5 6.3l21.3 21.3h-72.9V1350c0-2.8-.4-5.1-1.2-6.9s-2.3-3.9-4.5-6.3l-21.3-21.3h72.9z"/></g><path d="M2433.82 1184.84c5.25-11.8 14.43-22.73 23.61-25.79 8.31-3.06 15.74.43 18.8 8.3 1.32 3.5 1.32 8.31 0 14-1.31 5.68-3.06 10.93-5.68 15.74-2.19 4.81-4.37 9.62-6.12 14.86-1.75 4.81-1.75 8.75-.88 10.93 1.75 4.38 3.94 5.69 7.87 4.38 2.19-.88 4.38-3.06 7.44-6.12 2.62-3.5 4.37-6.56 5.68-10.06 3.06 0 5.69 1.31 8.31 4.37-1.75 5.25-4.81 10.5-9.18 15.74-4.38 5.25-9.19 8.75-14.43 10.5-10.06 3.93-17.49 0-20.99-9.19-1.31-3.49-1.31-7.87 0-13.55s3.5-10.93 5.68-15.74c2.63-4.81 4.38-9.62 6.13-14.43 1.74-4.81 2.18-8.31 1.31-10.49-1.31-3.94-3.94-5.25-7.44-3.94-1.74.88-3.93 2.62-6.55 6.12-2.63 3.5-4.38 7-6.13 10.06-3.06-.44-5.68-2.19-7.43-5.69zm128.99-16.17c2.18 16.17-.44 29.73-6.56 40.22-6.12 10.5-15.3 16.18-27.11 17.49-15.3 1.75-27.55-6.56-29.73-25.36-1.75-14.43.87-27.11 7.43-38.47 6.56-11.37 16.18-17.49 28.42-19.24 16.18-2.19 25.36 7.43 27.55 25.36zm-31.92 45.91c3.5-.44 6.56-2.19 9.62-5.25 4.37-5.68 7.43-20.11 5.68-35.85-1.75-14.43-6.12-19.68-13.55-18.81-3.94.44-7.44 2.19-10.06 4.81-5.25 7.87-8.74 20.99-6.99 37.17 1.74 13.12 6.99 19.24 15.3 17.93zm80.45-68.21c-.44 2.18-1.75 6.56-3.93 13.55-2.19 6.56-3.94 11.81-5.69 16.18h.44c5.25-8.75 11.37-15.74 18.36-20.99 7-5.24 13.56-7.87 19.68-6.99 10.49 1.75 15.3 11.36 13.55 24.04-2.62 18.37-10.49 32.8-22.73 42.42-12.25 9.62-26.24 12.68-41.54 9.18-2.62 7.87-5.68 16.61-8.75 27.11-1.31.87-4.37.87-8.3 0-3.94-.88-6.56-1.31-8.31-2.63 12.68-38.91 23.17-73.45 30.61-104.5zm2.19 66.46c4.81-3.06 9.18-7.87 13.55-15.31 4.37-7.43 7.44-15.3 8.31-23.17 1.31-9.18 0-14.43-3.94-14.87-3.93-.43-9.18 3.07-16.61 11.37-7.43 8.31-12.24 15.74-14.87 22.74-2.62 7-4.81 13.12-6.56 18.8 3.5 1.75 12.25 3.5 20.12.44zm116.74-.88c-6.56 14.87-15.74 25.36-26.23 31.05-10.5 5.68-21.43 5.68-32.36.87-13.99-6.12-20.11-19.67-12.68-37.16 6.12-13.12 14.43-22.74 25.8-29.3 11.37-6.12 22.74-6.99 34.1-1.75 15.74 6.56 18.8 20.12 11.37 36.29zm-51.16 23.18c3.07 1.31 7 1.75 10.94.43 6.99-2.62 17.05-13.55 23.17-27.98 6.12-13.55 5.25-20.11-1.75-23.17-3.5-1.75-7.43-1.75-11.37-.88-8.74 3.94-18.36 13.56-24.92 27.99-5.25 12.24-3.94 20.11 3.93 23.61zm119.37.87c10.49-17.05 7.43-32.79-7.87-45.47.87-1.75 2.62-3.06 4.81-4.81 2.62-1.31 4.37-1.75 5.68-1.31 21.43 17.05 25.36 40.22 2.63 68.21-12.25 15.3-24.93 24.92-38.48 29.29-13.12 4.37-24.49 3.06-34.1-4.81-11.81-9.18-12.25-24.05-.88-38.04 10.06-12.68 20.99-19.67 32.36-22.3 11.36-2.62 21.42-.43 29.29 6.12 3.94 3.5 6.56 8.31 5.25 12.25zm-57.28 34.98c2.19 1.75 4.81 3.06 7.43 3.06 9.62-.87 23.18-8.74 34.11-22.3 7.43-9.18 8.31-16.61 2.19-20.99-2.19-1.74-5.25-2.62-9.19-3.06-4.81.88-10.05 3.06-16.17 7-6.13 3.94-10.94 8.74-14.87 13.99-7.87 10.06-9.18 17.93-3.5 22.3zm123.74 67.77c1.31-5.24.88-9.62-1.75-13.55-1.75-3.06-4.37-5.25-7.43-6.56-8.31-2.19-22.3.87-35.85 9.18-10.5 6.56-13.12 13.56-8.31 21.86 2.62 3.94 6.56 7.44 11.37 10.06 0 2.62-1.75 5.25-5.69 7.87-8.74-3.5-15.3-8.74-19.67-16.18-8.31-13.99-5.69-27.11 10.05-36.72 21.43-13.12 51.6-17.93 67.34 7.87 5.24 8.74 5.68 14.86 1.75 17.49-3.06 1.74-9.19 1.31-11.81-1.32zm20.11 71.27c12.68 5.25 21.87 14.87 24.05 25.36 2.63 12.68-5.68 23.18-21.42 26.24-13.12 2.62-25.36 1.31-36.73-4.37-11.37-5.69-17.93-14-20.55-25.8-3.06-14.43 4.37-27.55 26.67-31.92 15.74-3.06 32.36-3.06 48.1 0 15.74 3.5 28.86 11.81 35.41 23.17 1.75 2.63 3.94 7.44 6.56 14 2.63 6.99 5.25 10.93 7.87 12.68-.87 2.18-3.49 3.93-7.87 4.81-6.56 1.31-12.68-6.13-18.8-21.43-6.12-15.74-20.55-23.61-43.29-24.05zm-26.23 7c-12.68 2.62-18.36 7.43-16.61 14.43.87 3.5 2.62 6.99 6.12 9.62 6.56 3.93 19.24 6.56 32.79 3.93 12.24-2.62 17.93-7.43 16.18-14.86-1.31-5.69-9.62-11.81-17.93-13.56-6.12-1.31-12.68-.87-20.55.44zm28.42 127.24c-16.61-.88-29.29-5.69-38.04-13.56-9.18-8.31-13.12-17.92-12.24-30.17.87-15.3 11.37-25.79 30.61-24.92 14.42.87 26.67 5.68 36.29 13.99 10.05 8.75 14.43 19.24 13.55 31.48-1.31 17.06-12.68 24.49-30.17 23.18zm-39.79-39.79c0 3.5.88 6.99 3.5 10.49 4.81 5.25 18.36 10.93 34.54 12.24 14.87.88 20.55-2.18 20.99-9.61.44-3.94-.87-7.88-3.06-10.94-6.56-6.55-19.24-12.68-34.98-13.55-13.55-.87-20.11 3.06-20.99 11.37zm47.22 63.4c6.56 11.37 9.19 25.36 6.56 34.54-2.62 8.74-9.62 12.24-17.92 10.06-3.5-1.32-7.44-3.94-11.37-8.75-3.5-4.37-7-9.18-9.18-13.99-2.63-4.81-5.25-9.18-8.31-13.55-3.06-4.38-5.69-6.56-8.31-7.44-4.37-1.31-7 0-8.31 3.94-.87 2.18-.43 5.24.44 9.62.87 4.37 2.62 7.43 4.37 10.49-1.75 2.62-4.81 3.94-8.3 3.94-3.07-4.38-5.25-10.06-7-16.62-1.31-6.56-1.31-12.68 0-17.49 3.06-10.49 10.49-13.99 20.11-10.93 3.5.87 7 3.94 10.93 8.31 3.5 4.81 6.56 9.18 9.19 13.99 2.18 4.81 5.24 9.18 7.87 13.55 3.06 4.38 5.24 7 7.43 7.44 3.93 1.31 6.56 0 7.43-3.5.44-1.75.44-4.81-.87-9.18-1.31-3.94-2.63-7.87-4.37-10.93 3.06-3.06 5.68-3.94 9.61-3.5zm-97.06 69.96c2.18 1.31 6.12 3.93 11.8 7.87 5.69 4.37 10.06 7.87 13.12 10.93l.44-.44c-6.13-7.87-10.5-16.18-12.68-24.48-2.19-8.31-1.75-15.31 1.31-20.55 5.24-8.75 16.18-9.62 27.54-3.5 15.74 9.18 25.8 20.55 29.74 34.1 3.93 13.56 2.18 27.11-5.25 40.67-3.06 5.68-7.43 10.49-12.68 14.86-5.25-4.37-14.43-11.37-27.55-21.42-13.11-10.06-24.48-17.93-33.23-24.05zm59.46 32.79c1.75-3.06 2.62-7 2.62-11.37-.87-5.68-3.93-11.8-8.74-18.36s-10.93-11.81-17.93-15.74c-8.31-4.81-13.55-5.25-15.3-1.75s-.88 9.62 3.93 18.8c4.38 9.18 9.19 16.61 14.87 21.42 4.81 4.81 10.06 9.19 15.74 13.56 1.31-1.75 3.06-3.5 4.81-6.56zm-55.97 48.1c3.94 18.36 1.32 33.23-6.55 39.79-5.69 4.81-11.81 3.93-17.49-2.63-.88-1.31-3.5-4.81-7-10.93l-.44.44c3.94 19.67 1.75 32.79-6.56 39.79-5.68 4.81-13.99 3.5-19.67-3.5-3.5-4.37-9.62-13.99-18.37-28.86-8.74-14.86-13.99-23.17-15.74-25.36l13.56-11.37c1.31 1.75 5.68 9.62 13.99 23.61 8.31 14 13.55 22.74 16.18 26.24 3.5 4.37 6.56 5.25 8.74 3.5 2.63-2.19 3.5-8.31 2.63-17.93-.88-9.62-2.63-17.49-5.69-22.74-1.31-3.06-3.93-7.43-7.87-13.99l-8.74-15.3 12.24-10.06c14.87 27.11 24.92 43.73 30.17 50.28 3.5 3.94 6.12 5.25 7.87 3.5 2.62-2.18 3.93-8.31 2.62-18.36-.87-9.62-3.06-17.49-6.12-23.61-1.75-3.94-4.81-9.19-8.74-15.74l-7.44-12.25 13.12-10.93c4.81 8.75 12.24 20.99 22.3 35.86 10.06 14.86 16.62 24.48 19.68 28.42l-13.12 10.93c-5.25-6.12-9.18-12.68-13.12-20.12zm-149.97 84.82c-5.68-15.3-7-28.86-3.06-40.22 3.5-11.37 11.37-19.24 22.3-23.62 14.43-5.68 28.42-.43 34.98 17.49 5.25 13.56 5.68 26.68 2.18 38.92-3.93 12.68-11.36 20.99-22.73 25.36-15.74 6.12-27.11-1.31-33.67-17.93zm20.11-52.47c-3.49 1.31-6.12 3.5-8.3 7.44-3.06 6.55-2.63 21.42 3.06 36.29 5.24 13.99 10.49 17.92 17.49 15.3 3.93-1.31 6.55-3.94 8.74-7.43 3.5-8.75 3.5-22.74-2.19-37.61-4.37-12.24-10.93-17.05-18.8-13.99zm-87.44 40.67c3.06-9.19 7.43-16.62 13.11-23.18 5.25-6.56 10.93-10.05 16.62-10.49 10.05-.88 15.3 4.37 16.61 15.74.44 4.81 0 15.3-.87 31.92-.88 16.18-1.31 26.23-1.31 29.29l-17.49 1.75c-.44-3.06 0-12.24 1.31-27.98.87-15.31 1.31-25.36.87-29.73-.43-5.69-2.62-8.31-5.68-7.87-3.94.43-8.31 4.81-13.12 13.99s-7.43 17.49-8.31 24.92c-.87 7.43-1.31 17.49-1.74 29.3l-17.49 1.74c.87-9.62 1.74-23.17 2.18-40.66s.44-29.29-.44-36.29l16.18-1.31c.88 9.18 0 18.8-1.75 29.29zm10.49 66.89c-5.69.44-12.24 6.13-16.62 13.56-2.18.44-6.12-1.75-7.43-3.5 2.19-4.81 5.68-9.18 10.49-13.12 4.81-3.93 10.06-6.56 16.18-6.99 11.37-.88 19.68 6.56 20.55 15.3.44 3.94-3.5 6.12-11.37 7.43-1.74-9.18-5.24-13.11-11.8-12.68zm-125.05-83.51c6.12-7 13.55-12.68 20.55-16.61 7.43-3.94 13.55-5.25 19.24-3.5 9.62 3.06 12.68 9.62 9.18 20.99-1.31 4.8-5.68 14.42-12.68 29.29s-11.37 23.61-12.24 26.67l-17.06-5.24c.88-3.07 4.81-11.37 11.81-25.36 6.56-14 10.93-22.74 11.81-27.11 1.74-5.25.87-8.75-2.63-9.62-3.93-1.31-9.62 1.31-17.49 7.87s-13.55 13.11-17.05 19.67-7.87 15.74-12.24 26.24l-17.06-5.25c4.38-8.31 10.5-20.55 17.49-36.73 7-16.18 11.37-27.11 13.12-33.67l15.74 4.81c-2.62 8.75-6.99 17.49-12.68 26.68zm-90.51-10.06c1.31 5.25 3.93 8.75 7.87 11.37 3.06 1.75 6.12 2.63 9.62 2.19 8.31-2.19 19.24-11.37 27.54-24.92 6.13-10.5 5.25-18.37-3.06-23.18-3.93-2.18-9.18-3.5-14.86-3.5-1.31-2.18-.88-5.24 1.31-9.62 9.18-.87 17.49.88 24.92 5.25 13.99 8.31 17.49 21.43 8.31 37.17-12.68 21.42-37.17 39.79-62.96 24.48-8.75-5.24-12.25-10.49-10.06-14.43 2.19-3.49 7.87-5.68 11.37-4.81zm-31.92-35.85c-18.36 4.37-33.23 2.19-39.79-5.68-4.81-5.25-4.37-11.81 2.19-17.49.87-.88 4.81-3.5 10.93-7.44l-.88-.43c-19.67 4.37-32.79 2.18-39.78-5.69-4.81-5.68-3.94-13.55 3.06-19.67 4.37-3.5 13.55-10.06 28.42-18.81 14.43-9.18 22.73-14.42 24.92-16.17l11.81 13.11c-1.75 1.32-9.62 6.13-23.18 14.43-13.99 8.31-22.3 13.99-25.8 17.06-4.37 3.49-5.24 6.55-3.49 8.74 2.18 2.62 8.3 3.5 17.92 2.19 9.62-.88 17.06-3.06 22.74-6.12 2.62-1.32 7.43-3.94 13.55-7.88l14.87-8.74 10.49 11.81c-26.67 15.3-43.28 25.79-49.4 31.48-3.94 3.49-5.25 6.12-3.5 7.87 2.62 2.62 8.31 3.5 18.36 2.18 9.62-.87 17.49-3.49 23.18-6.56 3.93-2.18 8.74-5.24 15.3-9.18l11.81-7.87 11.36 12.68c-8.74 4.81-20.55 12.68-35.41 23.18-14.87 10.49-24.05 17.05-27.99 20.55l-11.36-12.68c5.68-5.25 12.24-9.62 19.67-13.56zm-88.32-147.79c15.3-6.12 28.85-7.43 40.22-4.37 11.81 3.5 19.68 10.49 24.05 21.86 5.69 14.43.88 28.42-16.61 35.42-13.56 5.68-26.24 6.56-38.92 3.06s-21.42-10.93-25.8-22.3c-6.12-15.3.88-27.11 17.06-33.67zm52.9 18.37c-1.31-3.06-3.93-5.69-7.43-7.87-7-2.63-21.42-2.19-36.29 3.93-13.56 5.69-17.49 10.93-14.87 17.93 1.31 3.5 3.94 6.56 7.44 8.74 8.74 3.06 22.73 3.06 37.6-3.06 12.24-4.81 17.05-11.37 13.55-19.67zm-87.01-59.47c2.19-.44 6.56 0 13.99 0 7 .44 12.68.88 17.06 1.31v-.43c-9.62-2.63-18.37-6.56-24.93-12.25-6.99-5.24-10.93-10.93-11.36-17.05-1.32-10.49 6.99-17.93 19.67-19.24 18.8-2.18 34.11 1.31 46.79 10.93 12.68 9.19 19.24 21.87 19.67 38.04 8.31.88 17.49 1.32 28.42 1.75 1.31 1.31 1.75 3.94 2.19 7.87.44 3.94.44 6.56-.44 8.75-41.1-2.63-77.39-3.5-108.87-2.63zm63.4-19.24c-3.93-3.93-10.05-6.56-18.36-9.18s-16.62-3.06-24.49-2.19c-9.18.88-13.99 3.5-13.55 7.88.44 3.93 5.68 8.3 15.3 13.11s18.37 7.87 25.8 8.75c7.43.87 13.99 1.31 19.68 1.31 1.31-3.94.87-13.12-4.38-19.68zm-13.12-91.38c7.88 5.25 14.43 11.81 19.24 18.36 4.81 7 7 13.12 5.69 18.81-1.75 9.61-8.31 13.99-19.68 11.8-4.81-.87-14.86-3.93-30.61-8.74-15.74-5.25-24.92-7.87-27.98-8.31l3.06-17.49c3.06.44 11.81 3.06 26.67 7.87 14.43 4.81 24.05 7.87 28.42 8.31 5.69.87 8.75-.44 9.19-3.5.43-3.94-2.63-9.18-10.06-16.18s-14.87-11.8-21.86-14.43c-7-2.62-16.62-5.68-27.99-8.74l3.07-17.49c9.18 3.5 21.86 7.43 38.47 12.68 16.62 4.81 28.42 7.87 34.98 8.74l-2.62 16.18c-9.18-1.75-18.37-4.81-27.99-8.74zm12.25-30.17c-13.99-6.12-24.05-14.87-31.05-26.23-6.55-11.37-7.43-22.74-2.18-34.11 5.25-12.24 15.3-16.18 25.36-11.8 13.99 6.12 16.18 23.61 6.56 52.03 1.75 1.31 3.5 2.18 5.68 3.49 10.5 4.81 17.93 2.63 21.43-5.68 1.31-3.06 2.18-6.56 3.06-10.93.43-4.37.43-7.87 0-10.06 1.75-1.31 6.56-.87 8.74 0 2.63 7.44 2.19 20.12-2.62 31.05-7 14.43-19.24 19.24-34.98 12.24zm-11.81-56.84c-5.24-2.19-10.93-.88-13.11 4.37-1.75 3.5-1.75 7-1.32 10.93 2.63 6.12 9.62 13.99 16.62 17.93 4.37-11.37 8.74-28.42-2.19-33.23zm10.93-87.01c3.5-4.37 3.94-13.12 1.75-21.43 1.31-1.75 5.69-3.5 7.87-3.06 1.75 4.81 2.63 10.5 2.19 16.62 0 6.12-2.19 11.8-6.12 16.61-7 9.18-18.37 10.06-25.36 4.37-3.06-2.18-2.19-6.99 2.62-13.11 7.43 4.81 13.12 4.81 17.05 0zm55.53 38.47c4.38 8.31 7 17.06 7.87 25.36.88 8.31-.43 14.43-3.93 19.24-6.12 7.87-13.99 8.31-22.74.88-3.93-3.06-11.37-10.5-22.3-22.3-10.93-12.24-17.92-19.24-20.55-20.99l10.93-13.99c2.63 2.19 8.75 8.74 19.24 20.11 10.5 11.37 17.49 18.37 20.55 20.99 4.37 3.5 7.87 3.94 10.06 1.31 2.62-3.06 2.18-9.18-.88-19.24-3.06-9.62-7.43-17.49-12.24-23.17-4.81-6.12-11.37-13.12-20.11-21.43l10.93-13.99c6.12 7.44 15.3 17.49 27.55 29.74 12.24 12.24 20.98 20.55 26.23 24.92l-10.06 12.68c-6.99-5.69-13.99-13.12-20.11-21.43zm50.72-44.59c8.21 0 14.87-6.66 14.87-14.87s-6.66-14.87-14.87-14.87-14.86 6.66-14.86 14.87 6.65 14.87 14.86 14.87z" fill="#d7e2d3"/></g></svg>