<svg xmlns="http://www.w3.org/2000/svg" xmlns:xlink="http://www.w3.org/1999/xlink" viewBox="0 0 3000 2403"><defs><style>.a{fill:none;}.b{clip-path:url(#a);}.c{fill:#d7e2d3;}.d{fill:#e5533d;}</style><clipPath id="a"><rect class="a" width="3000" height="2403"/></clipPath></defs><g class="b"><path class="c" d="M2592.23,280.13c-54.69,71.74-97.94,29.33-24.79-24.32a2.62,2.62,0,0,0,0-4.25c-73.15-53.64-29.9-96.06,24.79-24.31a2.76,2.76,0,0,0,4.34,0c54.69-71.75,97.94-29.33,24.79,24.31a2.62,2.62,0,0,0,0,4.25c73.15,53.65,29.9,96.06-24.79,24.32a2.74,2.74,0,0,0-3.843-.5A2.784,2.784,0,0,0,2592.23,280.13Z"/><path class="c" d="M2840.45,264.63c-4.86-1-11.49-2.88-17.45-4.64-6.63-2-6.52-7.07.22-9,4.2-1.22,8.62-2.32,13-3.2,11.93-2.55,24.85-4.86,37.88-4.2,6.19.33,12.05,1.21,17,3.31,6.73,2.87,10.05,6.52,8,11.16-1.66,3.76-6.41,6.29-12.81,7.84-7.63,2-15.8,2.1-24,1.66a156.27,156.27,0,0,1-21.87-3Z"/><path class="c" d="M2785.44,264.63c4.86-1,11.49-2.88,17.45-4.64,6.63-2,6.52-7.07-.22-9-4.2-1.22-8.61-2.32-13-3.2-11.93-2.55-24.86-4.86-37.89-4.2-6.19.33-12,1.21-17,3.31-6.74,2.87-10.06,6.52-8,11.16,1.66,3.76,6.41,6.29,12.82,7.84,7.62,2,15.79,2.1,24,1.66a156.27,156.27,0,0,0,21.87-3Z"/><path class="c" d="M2787.1,268.71c4.08-2.76,10.16-6.07,15.57-9,6.08-3.32,9.61.44,6.19,6.51-2.21,3.87-4.42,7.74-7,11.49-6.63,10.27-14.14,21-23.86,29.83-4.64,4.19-9.39,7.73-14.36,9.72-6.85,2.76-11.71,2.54-13.59-2.21-1.43-3.87.11-8.95,3.43-14.58,4-6.85,9.72-12.71,15.79-18.12a162.5,162.5,0,0,1,17.79-13.59Z"/><path class="c" d="M2826,229.83c-2.76,4.09-6.07,10.16-9.06,15.58-3.31,6.07.44,9.61,6.52,6.18,3.87-2.21,7.73-4.42,11.49-7,10.27-6.63,21-14.14,29.82-23.86,4.2-4.64,7.74-9.39,9.72-14.36,2.77-6.85,2.55-11.71-2.2-13.59-3.87-1.43-8.95.11-14.59,3.43-6.84,4-12.7,9.72-18.11,15.8A162.473,162.473,0,0,0,2826,229.83Z"/><path class="c" d="M2803.89,283.18c1-4.86,2.87-11.48,4.64-17.45,2-6.63,7.07-6.52,8.95.22,1.21,4.2,2.32,8.62,3.2,13,2.54,11.93,4.86,24.85,4.2,37.89-.33,6.18-1.22,12-3.32,17-2.871,6.74-6.51,10.05-11.15,7.95-3.76-1.66-6.3-6.41-7.85-12.81-2-7.62-2.1-15.8-1.65-24a172.631,172.631,0,0,1,3-21.88Z"/><path class="c" d="M2803.89,228.17c1,4.86,2.87,11.49,4.64,17.46,2,6.62,7.07,6.51,8.95-.22,1.21-4.2,2.32-8.62,3.2-13,2.54-11.93,4.86-24.85,4.2-37.89-.33-6.18-1.22-12-3.32-17-2.76-6.85-6.4-10.05-11-8.06-3.76,1.65-6.3,6.4-7.851,12.81-2,7.62-2.09,15.8-1.649,24a154.124,154.124,0,0,0,2.87,22Z"/><path class="c" d="M2826,281.42c-2.76-4.09-6.07-10.17-9.06-15.58-3.31-6.07.44-9.61,6.52-6.18,3.87,2.2,7.73,4.41,11.49,6.95,10.27,6.63,21,14.14,29.82,23.86,4.2,4.64,7.74,9.39,9.72,14.37,2.77,6.84,2.55,11.7-2.2,13.58-3.87,1.44-8.95-.11-14.59-3.42-6.84-4-12.7-9.72-18.11-15.8A143.877,143.877,0,0,1,2826,281.42Z"/><path class="c" d="M2787.1,242.64c4.08,2.76,10.16,6.08,15.57,9.06,6.08,3.32,9.61-.44,6.19-6.52-2.21-3.86-4.42-7.73-7-11.48-6.63-10.28-14.14-21-23.86-29.83-4.64-4.2-9.39-7.73-14.36-9.72-6.85-2.76-11.71-2.54-13.59,2.21-1.43,3.86.11,8.95,3.43,14.58,4,6.85,9.72,12.7,15.79,18.12a176,176,0,0,0,17.79,13.58Z"/><path class="c" d="M2586.82,185.47c0,10.47,4.53,18.95,10.11,18.95s10.1-8.48,10.1-18.95-4.52-18.94-10.1-18.94S2586.82,175,2586.82,185.47Z"/><path class="c" d="M2586.82,320.64c0,9.76,4.53,17.68,10.11,17.68s10.1-7.92,10.1-17.68-4.52-17.69-10.1-17.69S2586.82,310.87,2586.82,320.64Z"/><path class="c" d="M2644.93,253.69c0,4.88,8.48,8.84,19,8.84s18.94-4,18.94-8.84-8.48-8.85-18.94-8.85S2644.93,248.8,2644.93,253.69Z"/><path class="c" d="M2508.5,253.69c0,4.88,8.49,8.84,18.95,8.84s19-4,19-8.84-8.48-8.85-19-8.85S2508.5,248.8,2508.5,253.69Z"/><path class="c" d="M2441.88,258a32.363,32.363,0,0,0-8.38,2c-8,3.4-29.1,3.4-37,0a37.085,37.085,0,0,0-8.38-2c-14.61-1.9-14.61-6.79,0-8.59a32.363,32.363,0,0,0,8.38-2c8-3.4,29.1-3.4,37,0a37.085,37.085,0,0,0,8.38,2C2456.6,251.29,2456.6,256.18,2441.88,258Z"/><path class="c" d="M2338.74,258a30.375,30.375,0,0,0-8.11,2c-7.78,3.4-28.17,3.4-35.84,0a34.806,34.806,0,0,0-8.11-2c-14.14-1.9-14.14-6.79,0-8.59a30.384,30.384,0,0,0,8.11-2c7.78-3.4,28.17-3.4,35.84,0a34.806,34.806,0,0,0,8.11,2C2352.88,251.29,2352.88,256.18,2338.74,258Z"/><path class="c" d="M2358.94,330.17a30.381,30.381,0,0,0-2-8.1c-3.39-7.77-3.39-28.13,0-35.8a34.676,34.676,0,0,0,2-8.1c1.9-14.12,6.79-14.12,8.59,0a30.3,30.3,0,0,0,2,8.1c3.4,7.78,3.4,28.14,0,35.8a34.838,34.838,0,0,0-2,8.1C2365.73,344.4,2360.84,344.4,2358.94,330.17Z"/><path class="c" d="M2358.94,226.66a30.461,30.461,0,0,0-2-8.11c-3.39-7.78-3.39-28.16,0-35.84a34.806,34.806,0,0,0,2-8.11c1.9-14.13,6.79-14.13,8.59,0a30.366,30.366,0,0,0,2,8.11c3.4,7.78,3.4,28.17,0,35.84a34.806,34.806,0,0,0-2,8.11C2365.73,240.8,2360.84,240.8,2358.94,226.66Z"/><path class="c" d="M2415.71,310.89a33.473,33.473,0,0,0-7.6-4.29c-8.53-2.86-23.74-17.27-26.62-25.41a27.724,27.724,0,0,0-4.5-7.26c-9-11.55-5.07-15.29,7-6.71a33.719,33.719,0,0,0,7.61,4.29c8.53,2.86,23.74,17.27,26.62,25.41a27.611,27.611,0,0,0,4.49,7.26C2431.71,315.73,2427.78,319.47,2415.71,310.89Z"/><path class="c" d="M2343,240.18a31.5,31.5,0,0,0-7.26-4.29c-8.14-2.87-22.67-17.28-25.42-25.43a28,28,0,0,0-4.29-7.26c-8.59-11.56-4.85-15.3,6.71-6.71a31.5,31.5,0,0,0,7.26,4.29c8.15,2.86,22.67,17.28,25.43,25.42a28,28,0,0,0,4.29,7.26C2358.31,244.91,2354.46,248.76,2343,240.18Z"/><path class="c" d="M2306,304.18a31.5,31.5,0,0,0,4.29-7.26c2.86-8.14,17.28-22.66,25.42-25.41a28.177,28.177,0,0,0,7.27-4.29c11.55-8.58,15.29-4.84,6.71,6.71a31.5,31.5,0,0,0-4.29,7.26c-2.86,8.14-17.28,22.66-25.43,25.41a27.986,27.986,0,0,0-7.26,4.29C2301.26,319.47,2297.41,315.73,2306,304.18Z"/><path class="c" d="M2377,233.46a30.934,30.934,0,0,0,4.49-7.26c3-8.14,18.08-22.67,26.6-25.42a29.478,29.478,0,0,0,7.59-4.29c12.09-8.59,16-4.85,7,6.71a30.934,30.934,0,0,0-4.49,7.26c-3,8.15-18.08,22.67-26.6,25.43a29.676,29.676,0,0,0-7.6,4.29c-12.08,8.58-16.11,4.73-7-6.72Z"/><path class="d" d="M1414.66,1725.84l-22.2-22.59H1370v22.43h22.36l-.08,45.1-44.87-.07v-22.52h-22.35v22.44l22.35,22.66h67.23Z"/><path class="d" d="M1414.74,1815.73H1437v-22.44h-22.36v22.44h-44.87l22.44,22.43-22.44,22.51h44.87l22.36-22.51Z"/><path class="d" d="M1504.24,1950.57l22.44,22.43H1549v-22.43h22.36v-22.52H1549v22.52h-22.35v-45h44.79V1928h22.43v-22.43l-22.43-22.51h-67.23v67.46Z"/><path class="d" d="M1392.23,1883.11h-44.8l-22.35,22.43V1928h22.43v22.59h22.36V1973h22.43l22.44-22.43v-67.38l-22.44-.08Zm0,67.46h-22.36v-22.44h-22.44V1905.7h44.72v44.87Z"/><path class="d" d="M1593.9,1703.4h-22.43v22.44h22.43Z"/><path class="d" d="M1437.09,1860.67h-22.43v22.44h22.43Z"/><path class="d" d="M1481.81,1883l-22.36-22.36L1437,1883.11v44.94l22.43-22.43,22.36,22.43v-44.94h22.43v-22.44h-22.43Z"/><path class="d" d="M1571.47,1770.78h-44.79v-44.94H1549v22.51h22.36v-22.51H1549v-22.59h-22.35l-22.44,22.59v44.94h-.15v22.51h-22.28v-44.94l-22.36,22.43L1437,1748.35v44.94l22.43,22.44,22.36-22.36v22.36h22.28l-22.28,22.43,22.43,22.51H1549l-22.35-22.51,22.35-22.43h-44.79v-22.44h67.23l22.43-22.51v-22.43h-22.43Z"/><path class="d" d="M1593.9,1950.57h-22.43V1973h22.43Z"/><path class="d" d="M1347.51,1950.57h-22.43V1973h22.43Z"/><path class="d" d="M1347.51,1703.25h-22.43v22.43h22.43Z"/><path class="d" d="M1347.43,1815.73H1325v44.94h22.43Z"/><path class="d" d="M1593.9,1815.73h-22.43v44.94h22.43Z"/><path class="d" d="M1481.81,1703.4H1437v22.44h44.79Z"/><path class="d" d="M1481.81,1950.57H1437V1973h44.79Z"/><path class="d" d="M1370,1725.68h-22.59v22.44H1370Z"/><path class="d" d="M1661.74,1546.06h-22.43v44.79h22.43Z"/><path class="d" d="M1616.8,1546.06h-22.43v44.79h22.43Z"/><path class="d" d="M1863.34,1546.06h-22.43v44.79h22.43Z"/><path class="d" d="M1706.54,1546.06v44.79h44.79v-44.79Z"/><path class="d" d="M1706.46,1523.7h-44.79v22.43h44.79Z"/><path class="d" d="M1661.67,1478.83v-22.36H1684V1434h-44.72v22.43h-22.43V1434h-22.44v22.43h22.44v22.36h-22.44v44.87h22.44v-22.44h22.43v22.44h22.36v-44.87Z"/><path class="d" d="M1863.35,1456.47V1434h-22.44v22.43h-22.36V1434h-44.79v22.43h-22.35v22.36h22.35v-22.36h22.36v67.23h22.43v-22.44h22.36v22.44h22.44v-44.87h-22.44v-22.36Z"/><path class="d" d="M1706.54,1456.47h44.79V1434h-44.79v22.36H1684.1v22.43h22.44Z"/><path class="d" d="M1818.55,1546.06h-22.43v44.79h22.43Z"/><path class="d" d="M1796.12,1523.7h-44.79v22.43h44.79Z"/><path class="d" d="M1751.33,1501.26v-22.43h-44.79v44.87h44.79Z"/><path class="d" d="M1639.31,1635.72h-22.43v-22.44h-22.44v44.79h22.44v22.44h-22.44v22.43h22.44v-22.43h22.43v22.43H1684v-22.43h-22.36v-67.23h-22.36Z"/><path class="d" d="M1706.46,1590.85h-44.79v22.43h44.79Z"/><path class="d" d="M1796.12,1590.85h-44.79v22.43h44.79Z"/><path class="d" d="M1706.54,1635.72v22.35H1684.1v22.44h22.28v22.43h44.79v-22.43h-44.63v-22.44h44.79v-44.79h-44.79Z"/><path class="d" d="M1796.12,1658.07v22.44h-22.36v-22.36h-22.35v22.43h22.35v22.36h44.79v-22.43h22.36v22.43h22.44v-22.43h-22.44v-22.44h22.44v-44.79h-22.44v22.44h-22.36v-22.44h-22.43Z"/><path class="c" d="M86.15,2200.14c1.07-7.08,1.5-18.24,1.5-33.27v-26.19c-4.07,1.5-7.93,2.14-11.57,1.29a10.348,10.348,0,0,1,0-6.23c5.78,0,11.78-4.08,14.78-9.66h10.72v41.65c0,15,.43,26,1.07,32.41Z"/><path class="c" d="M116.15,2168.8c0-12.45,3.85-23,11.57-32s18.21-13.74,31.71-14.81a12.519,12.519,0,0,1,1.5,8.16,44.744,44.744,0,0,0-13.5,3.86c-8.14,3.87-16.07,13.1-18,25.33l.43.22q5.79-9,18-9c6.21,0,11.14,2.15,15,6.66s5.79,10.09,5.79,17a26.922,26.922,0,0,1-7.5,19.32,25.511,25.511,0,0,1-18.42,7.51C126.43,2201.43,116.15,2189.19,116.15,2168.8Zm34.71,21.47c3-2.79,4.71-7.3,4.71-13.31,0-11.38-4.93-18.25-13.71-18.25-6.86,0-12.43,6.44-12.43,14.81a24.268,24.268,0,0,0,3.64,13.31c2.36,3.87,5.79,5.58,10.5,5.58a9.9,9.9,0,0,0,7.29-2.14Z"/><path class="c" d="M177.64,2136.17a33.517,33.517,0,0,1,24.85-10.74c11.79,0,19.93,7.73,19.93,20.4,0,7.51-3,15.46-9,23.61a85.523,85.523,0,0,1-20.14,20.18v.43l14.14-.43c4.71-.21,10.07-.64,16.07-1.5v11.81H177.64a20.345,20.345,0,0,1,0-8.8c6.64-3.65,13.28-9.88,19.5-18.25q9.63-12.89,9.64-23.19c0-8.37-4.5-13.74-11.36-13.74-4.93,0-9.64,1.94-13.92,6a6.931,6.931,0,0,1-3.86-5.8Z"/><path class="c" d="M229.92,2126.72h41.35a20.9,20.9,0,0,1,0,10.31l-19.71,19.1c14.78,1.08,22.28,7.3,22.28,18.68,0,10.09-6.21,19.11-14.78,24.26-8.36,4.94-18.21,7.94-26.36,8.37-1.5-1.93-2.14-4.72-1.5-8.37a50.391,50.391,0,0,0,12.22-2.79,27.314,27.314,0,0,0,10.5-7.3,16.781,16.781,0,0,0,4.5-11.59c0-9.23-7.93-14.17-19.72-13.74a7.716,7.716,0,0,1,0-5.37l19.3-20.61V2137H247.27a159.743,159.743,0,0,0-17.35.64Z"/><path class="c" d="M2703.48,2137.33a33.562,33.562,0,0,1,24.86-10.73c11.78,0,19.92,7.73,19.92,20.39,0,7.52-3,15.46-9,23.62a85.523,85.523,0,0,1-20.14,20.18v.43l14.14-.43c4.72-.22,10.07-.65,16.07-1.51v11.81h-45.85a20.345,20.345,0,0,1,0-8.8c6.64-3.65,13.29-9.88,19.5-18.25q9.639-12.87,9.64-23.18c0-8.38-4.5-13.74-11.35-13.74-4.93,0-9.65,1.93-13.93,6-2.36-1.29-3.86-3.22-3.86-5.8Z"/><path class="c" d="M2804,2136.69c4.71,6.65,7.07,15.67,7.07,26.83,0,24.69-9.64,39.07-27,39.07-16.49,0-27.21-14-27.21-38,0-12,2.57-21.26,7.72-27.91s11.78-10.09,20.14-10.09,14.57,3.22,19.28,10.09Zm-28.1,1.31c-2.36,2.36-5.36,11.37-5.36,24.9,0,19.53,5.58,30.91,14.79,30.91a10.817,10.817,0,0,0,7.28-2.57c2.79-3,4.29-10.95,4.29-24.26,0-21-4.71-31.35-14.14-31.35a9.91,9.91,0,0,0-6.86,2.37Z"/><path class="c" d="M2820.47,2137.33a33.529,33.529,0,0,1,24.85-10.73c11.79,0,19.93,7.73,19.93,20.39,0,7.52-3,15.46-9,23.62a85.523,85.523,0,0,1-20.14,20.18v.43l14.14-.43c4.71-.22,10.07-.65,16.07-1.51v11.81h-45.85a20.01,20.01,0,0,1,0-8.8c6.64-3.65,13.28-9.88,19.5-18.25q9.63-12.87,9.64-23.18c0-8.38-4.5-13.74-11.36-13.74-4.93,0-9.64,1.93-13.93,6a6.936,6.936,0,0,1-3.85-5.8Z"/><path class="c" d="M2874.25,2137.33a33.529,33.529,0,0,1,24.85-10.73c11.79,0,19.93,7.73,19.93,20.39,0,7.52-3,15.46-9,23.62a85.523,85.523,0,0,1-20.14,20.18v.43l14.14-.43c4.71-.22,10.07-.65,16.07-1.51v11.81h-45.85a20.01,20.01,0,0,1,0-8.8c6.64-3.65,13.28-9.88,19.49-18.25q9.649-12.87,9.65-23.18c0-8.38-4.5-13.74-11.36-13.74-4.93,0-9.64,1.93-13.93,6-2.35-1.29-3.85-3.22-3.85-5.8Z"/><path class="c" d="M2668.29,2157H331v6H2668.29Z"/><path class="d" d="M208.4,573H315.5l-22.2-21.9a52.351,52.351,0,0,1-6.6-7.2,37.346,37.346,0,0,1-4.5-9L217.7,363H145.4l16.2,15.9q9.6,9.6,9.6,18.6a32.581,32.581,0,0,1-2.7,12.3L119.3,535.2a47.416,47.416,0,0,1-4.8,9,50.237,50.237,0,0,1-6.3,6.9L86,573h63.9L131,553.5a11.494,11.494,0,0,1-3.6-8.4,22.682,22.682,0,0,1,1.8-8.4l3.55-9.07L214.18,497l15.22,41.5a19.728,19.728,0,0,1,1.5,6.9,11.192,11.192,0,0,1-3.6,8.1Zm-71.39-56.23,43.62-111.29,30.56,83.34Z"/><path class="d" d="M602.59,445.8l-41.1,104.7q-2.4,6-.6,10.2,2.1,3.9,9.9,3.9h75.9ZM578,573a16.989,16.989,0,0,0-8.7,2.1,23.484,23.484,0,0,0-6.3,6.3l-32.7,47.1h-1.2l-3.6-63.9h21l45.3-116.1a21.286,21.286,0,0,0,1.5-9,11.327,11.327,0,0,0-3.9-7.8l-16.8-16.2h67.5l56.1,149.1h27l-26.1,63.9h-1.2l-17.1-46.2q-1.8-5.1-5.1-7.2-3-2.1-10.2-2.1Z"/><path class="d" d="M1227.86,538.5a17.083,17.083,0,0,0,1.2,6.9,25.013,25.013,0,0,0,4.5,6.3l21.3,21.3H1155l21.3-21.3a25.013,25.013,0,0,0,4.5-6.3,17.083,17.083,0,0,0,1.2-6.9v-102a15.876,15.876,0,0,0-2.4-9q-2.1-3.6-7.2-3.6H1170q-6,0-8.7,2.7a23.2,23.2,0,0,0-5.1,7.5l-29.1,63h-1.2l-3.9-87.6q8.4,1.8,16.2,3,6.9,1.2,14.1,2.1a110.642,110.642,0,0,0,12.9.9h81.6a146.615,146.615,0,0,0,16.2-.9q8.4-.9,15.3-2.1,7.8-1.2,15.6-3l-27.6,87.6h-1.2l-12.3-63a15.311,15.311,0,0,0-3.3-7.5q-2.1-2.7-8.1-2.7h-1.8q-6.3,0-9,3.9a14.087,14.087,0,0,0-2.7,8.7Z"/><path class="d" d="M205.4,838.5a17.083,17.083,0,0,0,1.2,6.9,25.013,25.013,0,0,0,4.5,6.3L232.4,873H132.5l21.3-21.3a25.013,25.013,0,0,0,4.5-6.3,17.083,17.083,0,0,0,1.2-6.9v-102a15.876,15.876,0,0,0-2.4-9q-2.1-3.6-7.2-3.6h-2.4q-6,0-8.7,2.7a23.2,23.2,0,0,0-5.1,7.5l-29.1,63h-1.2l-3.9-87.6q8.4,1.8,16.2,3,6.9,1.2,14.1,2.1a110.642,110.642,0,0,0,12.9.9h81.6a146.629,146.629,0,0,0,16.2-.9q8.4-.9,15.3-2.1,7.8-1.2,15.6-3l-27.6,87.6h-1.2l-12.3-63a15.311,15.311,0,0,0-3.3-7.5q-2.1-2.7-8.1-2.7h-1.8q-6.3,0-9,3.9a14.094,14.094,0,0,0-2.7,8.7Z"/><path class="d" d="M539.28,864.6a86.447,86.447,0,0,0,32.4-13.5,111.534,111.534,0,0,0,25.2-23.1,105.153,105.153,0,0,0,16.2-28.2,84.1,84.1,0,0,0,5.7-29.4q0-19.8-8.7-29.7-8.4-10.2-22.8-10.2a35.746,35.746,0,0,0-17.4,4.8,55.516,55.516,0,0,0-15.3,13.2,63.687,63.687,0,0,0-11.1,19.5,69.738,69.738,0,0,0-4.2,24.3Zm0-114.3a67.936,67.936,0,0,1,12.9-17.4,75.7,75.7,0,0,1,15.6-11.7,71.862,71.862,0,0,1,17.1-6.6,76.509,76.509,0,0,1,17.4-2.1,86.057,86.057,0,0,1,26.7,3.9,54.06,54.06,0,0,1,20.4,11.7,49.8,49.8,0,0,1,13.5,19.2q4.8,11.4,4.8,26.7a76.719,76.719,0,0,1-8.1,34.2q-8.1,16.5-24.3,30-16.2,13.2-40.2,22.5T539.28,873v18a17.083,17.083,0,0,0,1.2,6.9,25.013,25.013,0,0,0,4.5,6.3l21.3,21.3h-72.9V750a17.083,17.083,0,0,0-1.2-6.9,25.013,25.013,0,0,0-4.5-6.3l-21.3-21.3h72.9Z"/><path class="d" d="M967.56,720.9q-19.8,0-30.3,9.6-10.2,9.6-10.2,24.9,0,12.3,5.4,27.3a109.674,109.674,0,0,0,15.9,28.2,97.832,97.832,0,0,0,24.9,22.2,61.939,61.939,0,0,0,33,9,55.331,55.331,0,0,0,19.2-3.3,47.053,47.053,0,0,0,16.2-9.6,43.117,43.117,0,0,0,10.8-15.9,58.661,58.661,0,0,0,3.9-22.2,71.356,71.356,0,0,0-4.5-24h1.2q7.5,17.4,7.5,33.3a69.34,69.34,0,0,1-6.9,30.9,70.623,70.623,0,0,1-18.3,23.7,87.007,87.007,0,0,1-26.4,15.6,91.409,91.409,0,0,1-31.2,5.4,95.231,95.231,0,0,1-33.9-6,88.907,88.907,0,0,1-27.3-17.1A85.06,85.06,0,0,1,898,827.1a76.734,76.734,0,0,1-6.6-31.8,74.563,74.563,0,0,1,7.2-32.7,82.452,82.452,0,0,1,19.5-26.4,92.117,92.117,0,0,1,62.1-23.7,108.01,108.01,0,0,1,18.9,1.5,82.632,82.632,0,0,0,14.1,1.5,47.292,47.292,0,0,0,9.3-.9,64.23,64.23,0,0,0,8.4-2.1,56.03,56.03,0,0,0,8.1-3l-20.7,88.2h-1.2l-14.4-50.1q-3.6-12.3-11.1-19.5t-24-7.2Z"/><path class="d" d="M1186,838.5a17.083,17.083,0,0,0,1.2,6.9,25.013,25.013,0,0,0,4.5,6.3L1213,873h-99.9l21.3-21.3a25.013,25.013,0,0,0,4.5-6.3,17.083,17.083,0,0,0,1.2-6.9v-102a15.876,15.876,0,0,0-2.4-9q-2.1-3.6-7.2-3.6h-2.4q-6,0-8.7,2.7a23.2,23.2,0,0,0-5.1,7.5l-29.1,63H1084l-3.9-87.6q8.4,1.8,16.2,3,6.9,1.2,14.1,2.1a110.642,110.642,0,0,0,12.9.9h81.6a146.629,146.629,0,0,0,16.2-.9q8.4-.9,15.3-2.1,7.8-1.2,15.6-3l-27.6,87.6h-1.2l-12.3-63a15.311,15.311,0,0,0-3.3-7.5q-2.1-2.7-8.1-2.7h-1.8q-6.3,0-9,3.9a14.087,14.087,0,0,0-2.7,8.7Z"/><path class="d" d="M1914.73,720.9q-19.8,0-30.3,9.6-10.2,9.6-10.2,24.9,0,12.3,5.4,27.3a109.674,109.674,0,0,0,15.9,28.2,97.832,97.832,0,0,0,24.9,22.2,61.939,61.939,0,0,0,33,9,55.331,55.331,0,0,0,19.2-3.3,47.063,47.063,0,0,0,16.2-9.6,43.129,43.129,0,0,0,10.8-15.9,58.661,58.661,0,0,0,3.9-22.2,71.356,71.356,0,0,0-4.5-24h1.2q7.5,17.4,7.5,33.3a69.34,69.34,0,0,1-6.9,30.9,70.623,70.623,0,0,1-18.3,23.7,87.007,87.007,0,0,1-26.4,15.6,91.409,91.409,0,0,1-31.2,5.4,95.227,95.227,0,0,1-33.9-6,88.9,88.9,0,0,1-27.3-17.1,85.064,85.064,0,0,1-18.6-25.8,76.731,76.731,0,0,1-6.6-31.8,74.563,74.563,0,0,1,7.2-32.7,82.448,82.448,0,0,1,19.5-26.4,92.122,92.122,0,0,1,62.1-23.7,108.01,108.01,0,0,1,18.9,1.5,82.632,82.632,0,0,0,14.1,1.5,47.292,47.292,0,0,0,9.3-.9,64.23,64.23,0,0,0,8.4-2.1,56.03,56.03,0,0,0,8.1-3l-20.7,88.2h-1.2l-14.4-50.1q-3.6-12.3-11.1-19.5t-24-7.2Z"/><path class="d" d="M2265.55,723.6a89.457,89.457,0,0,1,21.6-8.4,94.866,94.866,0,0,1,22.5-2.7,91.321,91.321,0,0,1,42.9,10.5,80.09,80.09,0,0,1,32.4,30.3,76,76,0,0,1,11.1,39.6,77.161,77.161,0,0,1-3,21.3,86.484,86.484,0,0,1-8.7,19.8,80,80,0,0,1-13.8,17.4,96.647,96.647,0,0,1-40.8,21.9,94.866,94.866,0,0,1-22.5,2.7,93.1,93.1,0,0,1-43.2-10.5,80.6,80.6,0,0,1-32.1-30.3,77.568,77.568,0,0,1-8.4-19.8,79.436,79.436,0,0,1-2.7-20.4,78.631,78.631,0,0,1,11.4-40.8Q2244,735,2265.55,723.6Zm3,9.6q-12,6.6-12,22.5,0,9.6,5.1,23.7,5.1,13.8,16.5,31.5,16.5,25.2,31.2,36.3,14.7,10.8,26.7,10.8a32.1,32.1,0,0,0,6.3-.6,23.86,23.86,0,0,0,6-2.1q12-6.6,12-22.5,0-9.6-5.1-23.4t-16.8-31.8q-16.5-25.2-31.2-36-14.7-11.1-26.4-11.1a32.1,32.1,0,0,0-6.3.6,23.874,23.874,0,0,0-6,2.1Z"/><path class="d" d="M2475,838.5a17.083,17.083,0,0,0,1.2,6.9,25.013,25.013,0,0,0,4.5,6.3L2502,873h-99.9l21.3-21.3a25.013,25.013,0,0,0,4.5-6.3,17.083,17.083,0,0,0,1.2-6.9V750a17.083,17.083,0,0,0-1.2-6.9,25.013,25.013,0,0,0-4.5-6.3l-21.3-21.3h98.7a131.011,131.011,0,0,0,15-.9q7.8-.9,14.7-2.1,7.8-1.2,15.6-3l6,91.8h-1.2l-40.5-67.2q-3.3-5.7-6.9-7.8-3.3-2.4-9.6-2.4h-1.2q-9.9,0-13.8,4.8-3.9,4.5-3.9,11.7Z"/><path class="d" d="M2608.62,723.6a89.489,89.489,0,0,1,21.6-8.4,94.866,94.866,0,0,1,22.5-2.7,91.321,91.321,0,0,1,42.9,10.5,80.09,80.09,0,0,1,32.4,30.3,76,76,0,0,1,11.1,39.6,77.161,77.161,0,0,1-3,21.3,86.484,86.484,0,0,1-8.7,19.8,80,80,0,0,1-13.8,17.4,96.647,96.647,0,0,1-40.8,21.9,94.866,94.866,0,0,1-22.5,2.7,93.1,93.1,0,0,1-43.2-10.5,80.6,80.6,0,0,1-32.1-30.3,77.568,77.568,0,0,1-8.4-19.8,79.436,79.436,0,0,1-2.7-20.4,78.631,78.631,0,0,1,11.4-40.8Q2587,735,2608.62,723.6Zm3,9.6q-12,6.6-12,22.5,0,9.6,5.1,23.7,5.1,13.8,16.5,31.5,16.5,25.2,31.2,36.3,14.7,10.8,26.7,10.8a32.1,32.1,0,0,0,6.3-.6,23.86,23.86,0,0,0,6-2.1q12-6.6,12-22.5,0-9.6-5.1-23.4t-16.8-31.8q-16.5-25.2-31.2-36-14.7-11.1-26.4-11.1a32.1,32.1,0,0,0-6.3.6,23.874,23.874,0,0,0-6,2.1Z"/><path class="d" d="M352.66,1164.6a86.447,86.447,0,0,0,32.4-13.5,111.534,111.534,0,0,0,25.2-23.1,105.153,105.153,0,0,0,16.2-28.2,84.1,84.1,0,0,0,5.7-29.4q0-19.8-8.7-29.7-8.4-10.2-22.8-10.2a35.746,35.746,0,0,0-17.4,4.8,55.516,55.516,0,0,0-15.3,13.2,63.687,63.687,0,0,0-11.1,19.5,69.715,69.715,0,0,0-4.2,24.3Zm0-114.3a67.936,67.936,0,0,1,12.9-17.4,75.7,75.7,0,0,1,15.6-11.7,71.862,71.862,0,0,1,17.1-6.6,76.509,76.509,0,0,1,17.4-2.1,86.057,86.057,0,0,1,26.7,3.9,54.06,54.06,0,0,1,20.4,11.7,49.806,49.806,0,0,1,13.5,19.2q4.8,11.4,4.8,26.7a76.719,76.719,0,0,1-8.1,34.2q-8.1,16.5-24.3,30-16.2,13.2-40.2,22.5t-55.8,12.3v18a17.083,17.083,0,0,0,1.2,6.9,25.013,25.013,0,0,0,4.5,6.3l21.3,21.3h-72.9V1050a17.083,17.083,0,0,0-1.2-6.9,25.013,25.013,0,0,0-4.5-6.3l-21.3-21.3h72.9Z"/><path class="d" d="M964.41,1045.8l-41.1,104.7q-2.4,6-.6,10.2,2.1,3.9,9.9,3.9h75.89ZM939.81,1173a16.989,16.989,0,0,0-8.7,2.1,23.484,23.484,0,0,0-6.3,6.3l-32.7,47.1h-1.2l-3.6-63.9h21l45.3-116.1a21.286,21.286,0,0,0,1.5-9,11.329,11.329,0,0,0-3.9-7.8l-16.8-16.2h67.49l56.1,149.1h27l-26.1,63.9h-1.2l-17.1-46.2q-1.8-5.1-5.1-7.2-3-2.1-10.2-2.1Z"/><path class="d" d="M1507.58,1138.5a17.083,17.083,0,0,0,1.2,6.9,25.013,25.013,0,0,0,4.5,6.3l21.3,21.3h-99.9l21.3-21.3a25.013,25.013,0,0,0,4.5-6.3,17.083,17.083,0,0,0,1.2-6.9V1050a17.083,17.083,0,0,0-1.2-6.9,25.013,25.013,0,0,0-4.5-6.3l-21.3-21.3h98.7a131.011,131.011,0,0,0,15-.9q7.8-.9,14.7-2.1,7.8-1.2,15.6-3l6,91.8h-1.2l-40.5-67.2q-3.3-5.7-6.9-7.8-3.3-2.4-9.6-2.4h-1.2q-9.9,0-13.8,4.8-3.9,4.5-3.9,11.7Z"/><path class="d" d="M1641.24,1023.6a89.457,89.457,0,0,1,21.6-8.4,94.866,94.866,0,0,1,22.5-2.7,91.321,91.321,0,0,1,42.9,10.5,80.1,80.1,0,0,1,32.4,30.3,76,76,0,0,1,11.1,39.6,77.2,77.2,0,0,1-3,21.3,86.484,86.484,0,0,1-8.7,19.8,80,80,0,0,1-13.8,17.4,96.636,96.636,0,0,1-40.8,21.9,94.866,94.866,0,0,1-22.5,2.7,93.1,93.1,0,0,1-43.2-10.5,80.6,80.6,0,0,1-32.1-30.3,77.568,77.568,0,0,1-8.4-19.8,79.436,79.436,0,0,1-2.7-20.4,78.631,78.631,0,0,1,11.4-40.8q11.7-19.2,33.3-30.6Zm3,9.6q-12,6.6-12,22.5,0,9.6,5.1,23.7,5.1,13.8,16.5,31.5,16.5,25.2,31.2,36.3,14.7,10.8,26.7,10.8a32.106,32.106,0,0,0,6.3-.6,23.874,23.874,0,0,0,6-2.1q12-6.6,12-22.5,0-9.6-5.1-23.4t-16.8-31.8q-16.5-25.2-31.2-36-14.7-11.1-26.4-11.1a32.1,32.1,0,0,0-6.3.6,23.86,23.86,0,0,0-6,2.1Z"/><path class="d" d="M1852.07,1164.6a86.447,86.447,0,0,0,32.4-13.5,111.534,111.534,0,0,0,25.2-23.1,105.153,105.153,0,0,0,16.2-28.2,84.119,84.119,0,0,0,5.7-29.4q0-19.8-8.7-29.7-8.4-10.2-22.8-10.2a35.746,35.746,0,0,0-17.4,4.8,55.5,55.5,0,0,0-15.3,13.2,63.687,63.687,0,0,0-11.1,19.5,69.715,69.715,0,0,0-4.2,24.3Zm0-114.3a67.913,67.913,0,0,1,12.9-17.4,75.7,75.7,0,0,1,15.6-11.7,71.862,71.862,0,0,1,17.1-6.6,76.509,76.509,0,0,1,17.4-2.1,86.057,86.057,0,0,1,26.7,3.9,54.06,54.06,0,0,1,20.4,11.7,49.806,49.806,0,0,1,13.5,19.2q4.8,11.4,4.8,26.7a76.719,76.719,0,0,1-8.1,34.2q-8.1,16.5-24.3,30-16.2,13.2-40.2,22.5t-55.8,12.3v18a17.083,17.083,0,0,0,1.2,6.9,25.013,25.013,0,0,0,4.5,6.3l21.3,21.3h-72.9V1050a17.083,17.083,0,0,0-1.2-6.9,25.013,25.013,0,0,0-4.5-6.3l-21.3-21.3h72.9Z"/><path class="d" d="M2043.19,1023.6a89.457,89.457,0,0,1,21.6-8.4,94.866,94.866,0,0,1,22.5-2.7,91.321,91.321,0,0,1,42.9,10.5,80.1,80.1,0,0,1,32.4,30.3,76,76,0,0,1,11.1,39.6,77.2,77.2,0,0,1-3,21.3,86.527,86.527,0,0,1-8.7,19.8,80,80,0,0,1-13.8,17.4,96.636,96.636,0,0,1-40.8,21.9,94.866,94.866,0,0,1-22.5,2.7,93.1,93.1,0,0,1-43.2-10.5,80.6,80.6,0,0,1-32.1-30.3,77.568,77.568,0,0,1-8.4-19.8,79.436,79.436,0,0,1-2.7-20.4,78.631,78.631,0,0,1,11.4-40.8q11.7-19.2,33.3-30.6Zm3,9.6q-12,6.6-12,22.5,0,9.6,5.1,23.7,5.1,13.8,16.5,31.5,16.5,25.2,31.2,36.3,14.7,10.8,26.7,10.8a32.1,32.1,0,0,0,6.3-.6,23.86,23.86,0,0,0,6-2.1q12-6.6,12-22.5,0-9.6-5.1-23.4t-16.8-31.8q-16.5-25.2-31.2-36-14.7-11.1-26.4-11.1a32.1,32.1,0,0,0-6.3.6A23.86,23.86,0,0,0,2046.19,1033.2Z"/><path class="d" d="M2249.07,1045.8,2208,1150.5q-2.4,6-.6,10.2,2.1,3.9,9.9,3.9h75.9Zm-24.6,127.2a16.992,16.992,0,0,0-8.7,2.1,23.484,23.484,0,0,0-6.3,6.3l-32.7,47.1h-1.2l-3.6-63.9h21l45.3-116.1a21.286,21.286,0,0,0,1.5-9,11.329,11.329,0,0,0-3.9-7.8l-16.8-16.2h67.5l56.1,149.1h27l-26.1,63.9h-1.2l-17.1-46.2q-1.8-5.1-5.1-7.2-3-2.1-10.2-2.1Z"/><path class="d" d="M2540.5,1147.5q-3.6-4.2-5.1-12.9l-10.5-67.8q-2.4-15.6-8.4-25.8a51,51,0,0,0-15-16.8,55.76,55.76,0,0,0-19.8-9,95.114,95.114,0,0,0-23.1-2.7,104.173,104.173,0,0,0-22.8,2.7,92.289,92.289,0,0,0-11.1,3,27.5,27.5,0,0,1-8.1,1.2,22.658,22.658,0,0,1-7.5-1.5,52.684,52.684,0,0,1-7.5-3.3,49.7,49.7,0,0,1-8.1-5.1l12,76.8h1.2l15.3-44.1q3.6-10.2,9.3-15.6,6-5.7,15.6-5.7,13.5,0,20.4,10.2,7.2,9.9,9.6,24.3l2.92,19.43a414.948,414.948,0,0,0-46.72,14.47q-19.8,7.5-32.4,15.9-12.3,8.4-18,17.7a36.156,36.156,0,0,0-5.4,18.9,31.959,31.959,0,0,0,3.3,15,33.4,33.4,0,0,0,9,10.8,43.725,43.725,0,0,0,13.8,6.3,65.721,65.721,0,0,0,17.1,2.1,92.466,92.466,0,0,0,39.6-8.4,72.428,72.428,0,0,0,30-25.5l4.8,30.9h71.4Zm-60.9-7.2a59.962,59.962,0,0,1-9.9,9,56.307,56.307,0,0,1-11.1,6.3,26.487,26.487,0,0,1-10.8,2.4q-9.6,0-15.6-5.7-6-6-6-15.6a37.883,37.883,0,0,1,3-14.7,45.358,45.358,0,0,1,9.6-14.4,74.772,74.772,0,0,1,17.1-12.9,139.47,139.47,0,0,1,25.24-11.12l6.86,45.62A84.685,84.685,0,0,1,2479.6,1140.3Z"/><path class="d" d="M255.2,1431q0-16.5-6.9-27.3a46.452,46.452,0,0,0-18.6-17.1,67.7,67.7,0,0,0-26.4-7.2,121.747,121.747,0,0,0-30.6.9V1431q0,7.5,1.5,10.8a27.421,27.421,0,0,0,5.7,7.5l23.7,23.7H92l23.7-23.7a27.421,27.421,0,0,0,5.7-7.5q1.5-3.3,1.5-10.8V1305q0-7.5-1.5-10.8a27.421,27.421,0,0,0-5.7-7.5L92,1263H203.6l-23.7,23.7a27.421,27.421,0,0,0-5.7,7.5q-1.5,3.3-1.5,10.8v48a64.289,64.289,0,0,0,26.4-9.9,62.2,62.2,0,0,0,18.3-19.2,91.54,91.54,0,0,0,11.4-27,161.537,161.537,0,0,0,4.5-33.9h64.8q-3.6,23.1-15.3,40.2a111.437,111.437,0,0,1-28.5,28.8,151.352,151.352,0,0,1-38.1,19.2,260.949,260.949,0,0,1-43.5,10.8v9q11.7-1.8,26.1-2.7a210.6,210.6,0,0,1,29.7.3,154.825,154.825,0,0,1,29.1,4.5,83.833,83.833,0,0,1,25.5,10.8,52.6,52.6,0,0,1,18,18.9q6.9,11.4,6.9,28.2a154.726,154.726,0,0,1-1.5,21.3,114.994,114.994,0,0,1-4.2,20.7h-78l23.7-23.7a27.421,27.421,0,0,0,5.7-7.5q1.5-3.3,1.5-10.8Z"/><path class="d" d="M797.71,1438.5a17.083,17.083,0,0,0,1.2,6.9,25.013,25.013,0,0,0,4.5,6.3l21.3,21.3h-99.9l21.3-21.3a25.013,25.013,0,0,0,4.5-6.3,17.083,17.083,0,0,0,1.2-6.9V1350a17.083,17.083,0,0,0-1.2-6.9,25.013,25.013,0,0,0-4.5-6.3l-21.3-21.3h98.7a131.011,131.011,0,0,0,15-.9q7.8-.9,14.7-2.1,7.8-1.2,15.6-3l6,91.8h-1.2l-40.5-67.2q-3.3-5.7-6.9-7.8-3.3-2.4-9.6-2.4h-1.2q-9.9,0-13.8,4.8-3.9,4.5-3.9,11.7Z"/><path class="d" d="M1142.5,1464.6a86.447,86.447,0,0,0,32.4-13.5,111.534,111.534,0,0,0,25.2-23.1,105.153,105.153,0,0,0,16.2-28.2,84.119,84.119,0,0,0,5.7-29.4q0-19.8-8.7-29.7-8.4-10.2-22.8-10.2a35.746,35.746,0,0,0-17.4,4.8,55.5,55.5,0,0,0-15.3,13.2,63.687,63.687,0,0,0-11.1,19.5,69.715,69.715,0,0,0-4.2,24.3Zm0-114.3a67.936,67.936,0,0,1,12.9-17.4,75.7,75.7,0,0,1,15.6-11.7,71.862,71.862,0,0,1,17.1-6.6,76.509,76.509,0,0,1,17.4-2.1,86.057,86.057,0,0,1,26.7,3.9,54.06,54.06,0,0,1,20.4,11.7,49.806,49.806,0,0,1,13.5,19.2q4.8,11.4,4.8,26.7a76.719,76.719,0,0,1-8.1,34.2q-8.1,16.5-24.3,30-16.2,13.2-40.2,22.5t-55.8,12.3v18a17.083,17.083,0,0,0,1.2,6.9,25.013,25.013,0,0,0,4.5,6.3l21.3,21.3h-72.9V1350a17.083,17.083,0,0,0-1.2-6.9,25.013,25.013,0,0,0-4.5-6.3l-21.3-21.3h72.9Z"/><path class="c" d="M2433.82,1184.84c5.25-11.8,14.43-22.73,23.61-25.79,8.31-3.06,15.74.43,18.8,8.3,1.32,3.5,1.32,8.31,0,14a61.39,61.39,0,0,1-5.68,15.74,151.063,151.063,0,0,0-6.12,14.86c-1.75,4.81-1.75,8.75-.88,10.93,1.75,4.38,3.94,5.69,7.87,4.38,2.19-.88,4.38-3.06,7.44-6.12a39.116,39.116,0,0,0,5.68-10.06c3.06,0,5.69,1.31,8.31,4.37a49.061,49.061,0,0,1-9.18,15.74q-6.57,7.88-14.43,10.5c-10.06,3.93-17.49,0-21-9.19-1.31-3.49-1.31-7.87,0-13.55a84.058,84.058,0,0,1,5.68-15.74,101.235,101.235,0,0,0,6.13-14.43q2.61-7.21,1.31-10.49c-1.31-3.94-3.94-5.25-7.44-3.94-1.74.88-3.93,2.62-6.55,6.12a88.563,88.563,0,0,0-6.13,10.06,9.617,9.617,0,0,1-7.429-5.69Z"/><path class="c" d="M2562.81,1168.67c2.18,16.17-.44,29.73-6.56,40.22s-15.3,16.18-27.11,17.49c-15.3,1.75-27.55-6.56-29.73-25.36-1.75-14.43.87-27.11,7.43-38.47s16.18-17.49,28.42-19.24c16.18-2.19,25.36,7.43,27.55,25.36Zm-31.92,45.91c3.5-.44,6.56-2.19,9.62-5.25,4.37-5.68,7.43-20.11,5.68-35.85-1.75-14.43-6.12-19.68-13.55-18.81a16.813,16.813,0,0,0-10.06,4.81c-5.25,7.87-8.74,21-7,37.17,1.74,13.12,7,19.24,15.3,17.93Z"/><path class="c" d="M2611.34,1146.37c-.44,2.18-1.75,6.56-3.93,13.55-2.19,6.56-3.94,11.81-5.69,16.18h.44a72.3,72.3,0,0,1,18.36-21c7-5.24,13.56-7.87,19.68-7,10.49,1.75,15.3,11.36,13.55,24-2.62,18.37-10.49,32.8-22.73,42.42s-26.24,12.68-41.54,9.18c-2.62,7.87-5.68,16.61-8.75,27.11-1.31.87-4.37.87-8.3,0s-6.56-1.31-8.31-2.63c12.68-38.91,23.17-73.45,30.61-104.5Zm2.19,66.46c4.81-3.06,9.18-7.87,13.55-15.31s7.44-15.3,8.31-23.17c1.31-9.18,0-14.43-3.94-14.87s-9.18,3.07-16.61,11.37-12.24,15.74-14.87,22.74-4.81,13.12-6.56,18.8c3.5,1.75,12.25,3.5,20.12.44Z"/><path class="c" d="M2730.27,1212c-6.56,14.87-15.74,25.36-26.23,31s-21.43,5.68-32.36.87c-14-6.12-20.11-19.67-12.68-37.16,6.12-13.12,14.43-22.74,25.8-29.3,11.37-6.12,22.74-7,34.1-1.75,15.74,6.56,18.8,20.12,11.37,36.29Zm-51.16,23.18a15.471,15.471,0,0,0,10.94.43c7-2.62,17-13.55,23.17-28,6.12-13.55,5.25-20.11-1.75-23.17-3.5-1.75-7.43-1.75-11.37-.88-8.74,3.94-18.36,13.56-24.92,28q-7.87,18.36,3.93,23.61Z"/><path class="c" d="M2798.48,1236c10.49-17,7.43-32.79-7.87-45.47.87-1.75,2.62-3.06,4.81-4.81,2.62-1.31,4.37-1.75,5.68-1.31,21.43,17,25.36,40.22,2.63,68.21-12.25,15.3-24.93,24.92-38.48,29.29-13.12,4.37-24.49,3.06-34.1-4.81-11.81-9.18-12.25-24-.88-38,10.06-12.68,21-19.67,32.36-22.3s21.42-.43,29.29,6.12c3.94,3.5,6.56,8.31,5.25,12.25Zm-57.28,35a12.409,12.409,0,0,0,7.43,3.06c9.62-.87,23.18-8.74,34.11-22.3,7.43-9.18,8.31-16.61,2.19-21-2.19-1.74-5.25-2.62-9.19-3.06-4.81.88-10,3.06-16.17,7a56.859,56.859,0,0,0-14.87,14C2736.83,1258.74,2735.52,1266.61,2741.2,1271Z"/><path class="c" d="M2864.94,1338.75c1.31-5.24.88-9.62-1.75-13.55a15.43,15.43,0,0,0-7.43-6.56c-8.31-2.19-22.3.87-35.85,9.18-10.5,6.56-13.12,13.56-8.31,21.86a31.911,31.911,0,0,0,11.37,10.06c0,2.62-1.75,5.25-5.69,7.87-8.74-3.5-15.3-8.74-19.67-16.18-8.31-14-5.69-27.11,10-36.72,21.43-13.12,51.6-17.93,67.34,7.87,5.24,8.74,5.68,14.86,1.75,17.49-3.06,1.74-9.19,1.31-11.81-1.32Z"/><path class="c" d="M2885.05,1410c12.68,5.25,21.87,14.87,24,25.36,2.63,12.68-5.68,23.18-21.42,26.24-13.12,2.62-25.36,1.31-36.73-4.37s-17.93-14-20.55-25.8c-3.06-14.43,4.37-27.55,26.67-31.92a127.161,127.161,0,0,1,48.1,0c15.74,3.5,28.86,11.81,35.41,23.17,1.75,2.63,3.94,7.44,6.56,14,2.63,7,5.25,10.93,7.87,12.68-.87,2.18-3.49,3.93-7.87,4.81-6.56,1.31-12.68-6.13-18.8-21.43-6.12-15.74-20.55-23.61-43.29-24Zm-26.23,7c-12.68,2.62-18.36,7.43-16.61,14.43a16.611,16.611,0,0,0,6.12,9.62c6.56,3.93,19.24,6.56,32.79,3.93,12.24-2.62,17.93-7.43,16.18-14.86-1.31-5.69-9.62-11.81-17.93-13.56C2873.25,1415.27,2866.69,1415.71,2858.82,1417Z"/><path class="c" d="M2887.24,1544.26c-16.61-.88-29.29-5.69-38-13.56-9.18-8.31-13.12-17.92-12.24-30.17.87-15.3,11.37-25.79,30.61-24.92,14.42.87,26.67,5.68,36.29,14,10,8.75,14.43,19.24,13.55,31.48-1.31,17.06-12.68,24.49-30.17,23.18Zm-39.79-39.79A16.818,16.818,0,0,0,2851,1515c4.81,5.25,18.36,10.93,34.54,12.24,14.87.88,20.55-2.18,21-9.61a16,16,0,0,0-3.06-10.94c-6.56-6.55-19.24-12.68-35-13.55C2854.89,1492.23,2848.33,1496.16,2847.45,1504.47Z"/><path class="c" d="M2894.67,1567.87c6.56,11.37,9.19,25.36,6.56,34.54-2.62,8.74-9.62,12.24-17.92,10.06-3.5-1.32-7.44-3.94-11.37-8.75-3.5-4.37-7-9.18-9.18-14a141.18,141.18,0,0,0-8.31-13.55c-3.06-4.38-5.69-6.56-8.31-7.44-4.37-1.31-7,0-8.31,3.94-.87,2.18-.43,5.24.44,9.62a32.843,32.843,0,0,0,4.37,10.49c-1.75,2.62-4.81,3.94-8.3,3.94-3.07-4.38-5.25-10.06-7-16.62-1.31-6.56-1.31-12.68,0-17.49,3.06-10.49,10.49-14,20.11-10.93,3.5.87,7,3.94,10.93,8.31a128.589,128.589,0,0,1,9.19,14c2.18,4.81,5.24,9.18,7.87,13.55,3.06,4.38,5.24,7,7.43,7.44,3.93,1.31,6.56,0,7.43-3.5.44-1.75.44-4.81-.87-9.18a63.636,63.636,0,0,0-4.37-10.93c3.06-3.06,5.68-3.94,9.61-3.5Z"/><path class="c" d="M2797.61,1637.83q3.27,2,11.8,7.87a141.42,141.42,0,0,1,13.12,10.93l.44-.44c-6.13-7.87-10.5-16.18-12.68-24.48s-1.75-15.31,1.31-20.55c5.24-8.75,16.18-9.62,27.54-3.5,15.74,9.18,25.8,20.55,29.74,34.1s2.18,27.11-5.25,40.67a50.986,50.986,0,0,1-12.68,14.86c-5.25-4.37-14.429-11.37-27.55-21.42s-24.48-17.93-33.23-24Zm59.46,32.79a23,23,0,0,0,2.62-11.37c-.87-5.68-3.93-11.8-8.74-18.36a56.092,56.092,0,0,0-17.93-15.74c-8.31-4.81-13.55-5.25-15.3-1.75s-.88,9.62,3.93,18.8c4.38,9.18,9.19,16.61,14.87,21.42a159.809,159.809,0,0,0,15.74,13.56,51.8,51.8,0,0,0,4.81-6.56Z"/><path class="c" d="M2801.1,1718.72c3.94,18.36,1.32,33.23-6.55,39.79-5.69,4.81-11.81,3.93-17.49-2.63-.88-1.31-3.5-4.81-7-10.93l-.44.44c3.94,19.67,1.75,32.79-6.56,39.79-5.68,4.81-14,3.5-19.67-3.5q-5.25-6.56-18.37-28.86c-8.74-14.86-14-23.17-15.74-25.36l13.56-11.37c1.31,1.75,5.68,9.62,14,23.61s13.55,22.74,16.18,26.24c3.5,4.37,6.56,5.25,8.74,3.5,2.63-2.19,3.5-8.31,2.63-17.93s-2.63-17.49-5.69-22.74c-1.31-3.06-3.93-7.43-7.87-14l-8.74-15.3,12.24-10.06c14.87,27.11,24.92,43.73,30.17,50.28,3.5,3.94,6.12,5.25,7.87,3.5,2.62-2.18,3.93-8.31,2.62-18.36-.87-9.62-3.06-17.49-6.12-23.61a166.126,166.126,0,0,0-8.74-15.74l-7.44-12.25,13.12-10.93c4.81,8.75,12.24,21,22.3,35.86s16.62,24.48,19.68,28.42l-13.12,10.93c-5.25-6.12-9.18-12.68-13.12-20.12Z"/><path class="c" d="M2651.13,1803.54c-5.68-15.3-7-28.86-3.06-40.22,3.5-11.37,11.37-19.24,22.3-23.62,14.43-5.68,28.42-.43,35,17.49,5.25,13.56,5.68,26.68,2.18,38.92-3.93,12.68-11.36,21-22.73,25.36C2669.06,1827.59,2657.69,1820.16,2651.13,1803.54Zm20.11-52.47a15.11,15.11,0,0,0-8.3,7.44c-3.06,6.55-2.63,21.42,3.06,36.29,5.24,14,10.49,17.92,17.49,15.3,3.93-1.31,6.55-3.94,8.74-7.43,3.5-8.75,3.5-22.74-2.19-37.61-4.37-12.24-10.93-17.06-18.8-13.99Z"/><path class="c" d="M2583.8,1791.74a66.741,66.741,0,0,1,13.11-23.18c5.25-6.56,10.93-10,16.62-10.49,10-.88,15.3,4.37,16.61,15.74.44,4.81,0,15.3-.87,31.92-.88,16.18-1.31,26.23-1.31,29.29l-17.49,1.75c-.44-3.06,0-12.24,1.31-28,.87-15.31,1.31-25.36.87-29.73-.43-5.69-2.62-8.31-5.68-7.87-3.939.43-8.31,4.81-13.12,14s-7.43,17.49-8.31,24.92-1.31,17.49-1.74,29.3l-17.49,1.74c.87-9.62,1.74-23.17,2.18-40.66s.44-29.29-.44-36.29l16.18-1.31c.88,9.18,0,18.8-1.75,29.29Zm10.49,66.89c-5.69.44-12.24,6.13-16.62,13.56-2.18.44-6.12-1.75-7.43-3.5a36.746,36.746,0,0,1,10.49-13.12c4.81-3.93,10.06-6.56,16.18-7,11.37-.88,19.68,6.56,20.55,15.3.44,3.94-3.5,6.12-11.37,7.43-1.74-9.18-5.24-13.11-11.8-12.68Z"/><path class="c" d="M2469.24,1775.12a79.591,79.591,0,0,1,20.55-16.61c7.43-3.94,13.55-5.25,19.24-3.5,9.62,3.06,12.68,9.62,9.18,21-1.31,4.8-5.68,14.42-12.68,29.29s-11.37,23.61-12.24,26.67l-17.06-5.24c.88-3.07,4.81-11.37,11.81-25.36,6.56-14,10.93-22.74,11.81-27.11,1.74-5.25.87-8.75-2.63-9.62-3.93-1.31-9.62,1.31-17.49,7.87s-13.55,13.11-17.05,19.67-7.87,15.74-12.24,26.24l-17.06-5.25c4.38-8.31,10.5-20.55,17.49-36.73s11.37-27.11,13.12-33.67l15.74,4.81c-2.62,8.75-7,17.49-12.68,26.68Z"/><path class="c" d="M2378.73,1765.06a18.08,18.08,0,0,0,7.87,11.37,15,15,0,0,0,9.62,2.19c8.31-2.19,19.24-11.37,27.54-24.92,6.13-10.5,5.25-18.37-3.06-23.18a31.151,31.151,0,0,0-14.86-3.5c-1.31-2.18-.88-5.24,1.31-9.62a40.41,40.41,0,0,1,24.92,5.25c14,8.31,17.49,21.43,8.31,37.17-12.68,21.42-37.17,39.79-63,24.48-8.75-5.24-12.25-10.49-10.06-14.43,2.19-3.49,7.87-5.68,11.37-4.81Z"/><path class="c" d="M2346.81,1729.21c-18.36,4.37-33.23,2.19-39.79-5.68-4.81-5.25-4.37-11.81,2.19-17.49.87-.88,4.81-3.5,10.93-7.44l-.88-.43c-19.67,4.37-32.79,2.18-39.78-5.69-4.81-5.68-3.94-13.55,3.06-19.67,4.37-3.5,13.55-10.06,28.42-18.81,14.43-9.18,22.73-14.42,24.92-16.17l11.81,13.11c-1.75,1.32-9.62,6.13-23.18,14.43-14,8.31-22.3,14-25.8,17.06-4.37,3.49-5.24,6.55-3.49,8.74,2.18,2.62,8.3,3.5,17.92,2.19,9.62-.88,17.06-3.06,22.74-6.12a155.384,155.384,0,0,0,13.55-7.88l14.87-8.74,10.49,11.81c-26.67,15.3-43.28,25.79-49.4,31.48-3.94,3.49-5.25,6.12-3.5,7.87,2.62,2.62,8.31,3.5,18.36,2.18a60.709,60.709,0,0,0,23.18-6.56c3.93-2.18,8.74-5.24,15.3-9.18l11.81-7.87L2401.9,1713c-8.74,4.81-20.55,12.68-35.41,23.18s-24,17-28,20.55l-11.36-12.68a92.211,92.211,0,0,1,19.67-13.56Z"/><path class="c" d="M2258.49,1581.42c15.3-6.12,28.85-7.43,40.22-4.37,11.81,3.5,19.68,10.49,24.05,21.86,5.69,14.43.88,28.42-16.61,35.42-13.56,5.68-26.24,6.56-38.92,3.06s-21.42-10.93-25.8-22.3C2235.31,1599.79,2242.31,1588,2258.49,1581.42Zm52.9,18.37c-1.31-3.06-3.93-5.69-7.43-7.87-7-2.63-21.42-2.19-36.29,3.93-13.56,5.69-17.49,10.93-14.87,17.93a17.853,17.853,0,0,0,7.44,8.74c8.74,3.06,22.73,3.06,37.6-3.06C2310.08,1614.65,2314.89,1608.09,2311.39,1599.79Z"/><path class="c" d="M2224.38,1540.32c2.19-.44,6.56,0,14,0q10.5.66,17.06,1.31v-.43c-9.62-2.63-18.37-6.56-24.93-12.25-7-5.24-10.93-10.93-11.36-17-1.32-10.49,7-17.93,19.67-19.24,18.8-2.18,34.11,1.31,46.79,10.93q19,13.79,19.67,38c8.31.88,17.49,1.32,28.42,1.75,1.31,1.31,1.75,3.94,2.19,7.87s.44,6.56-.44,8.75q-61.65-3.949-108.87-2.63Zm63.4-19.24c-3.93-3.93-10.05-6.56-18.36-9.18a59.234,59.234,0,0,0-24.49-2.19c-9.18.88-14,3.5-13.55,7.88.44,3.93,5.68,8.3,15.3,13.11s18.37,7.87,25.8,8.75a171.73,171.73,0,0,0,19.68,1.31c1.31-3.94.84-13.12-4.38-19.68Z"/><path class="c" d="M2274.66,1429.7a77.517,77.517,0,0,1,19.24,18.36c4.81,7,7,13.12,5.69,18.81-1.75,9.61-8.31,14-19.68,11.8-4.81-.87-14.86-3.93-30.61-8.74-15.74-5.25-24.92-7.87-28-8.31l3.06-17.49c3.06.44,11.81,3.06,26.67,7.87,14.43,4.81,24,7.87,28.42,8.31,5.69.87,8.75-.44,9.19-3.5.43-3.94-2.63-9.18-10.06-16.18s-14.871-11.8-21.861-14.43-16.62-5.68-28-8.74l3.071-17.49c9.179,3.5,21.86,7.43,38.47,12.68,16.62,4.81,28.419,7.87,35,8.74l-2.621,16.18a147.256,147.256,0,0,1-28-8.74Z"/><path class="c" d="M2286.91,1399.53c-14-6.12-24-14.87-31-26.23-6.55-11.37-7.43-22.74-2.18-34.11,5.25-12.24,15.3-16.18,25.36-11.8,14,6.12,16.18,23.61,6.56,52a65.777,65.777,0,0,0,5.68,3.49c10.5,4.81,17.93,2.63,21.43-5.68a55.8,55.8,0,0,0,3.06-10.93,38.327,38.327,0,0,0,0-10.06c1.75-1.31,6.56-.87,8.74,0,2.63,7.44,2.19,20.12-2.62,31-7,14.43-19.24,19.24-35,12.24Zm-11.81-56.84c-5.24-2.19-10.93-.88-13.11,4.37-1.75,3.5-1.75,7-1.32,10.93,2.63,6.12,9.62,14,16.62,17.93,4.37-11.37,8.74-28.42-2.19-33.23Z"/><path class="c" d="M2286,1255.68c3.5-4.37,3.94-13.12,1.75-21.43,1.31-1.75,5.69-3.5,7.87-3.06a40.335,40.335,0,0,1,2.19,16.62,26,26,0,0,1-6.12,16.61c-7,9.18-18.37,10.06-25.36,4.37-3.06-2.18-2.19-7,2.62-13.11q11.141,7.21,17.05,0Zm55.53,38.47a70.733,70.733,0,0,1,7.87,25.36c.88,8.31-.43,14.43-3.93,19.24-6.12,7.87-14,8.31-22.74.88q-5.9-4.59-22.3-22.3c-10.93-12.24-17.92-19.24-20.55-21l10.93-14c2.63,2.19,8.75,8.74,19.24,20.11s17.49,18.37,20.55,21c4.37,3.5,7.87,3.94,10.06,1.31,2.62-3.06,2.18-9.18-.88-19.24a67.789,67.789,0,0,0-12.24-23.17,208.191,208.191,0,0,0-20.11-21.43l10.93-14c6.12,7.44,15.3,17.49,27.55,29.74s21,20.55,26.23,24.92l-10.06,12.68a118.921,118.921,0,0,1-20.11-21.43Z"/><path class="c" d="M2392.28,1249.56a14.87,14.87,0,1,0-14.86-14.88v.01A14.87,14.87,0,0,0,2392.28,1249.56Z"/></g><path class="d" d="M472.88,359.4a63.584,63.584,0,0,1-20.1,10.8,70.581,70.581,0,0,1-19.2,3q-14.1,0-24-5.7-9.9-6-18.3-22.8h-1.5l-17.4,42q9.3,3.3,17.7,5.4a86.929,86.929,0,0,0,17.7,1.8,91.764,91.764,0,0,0,36-7.2q17.4-7.2,33.3-22.5Z"/><path class="d" d="M499.88,551.7l21.3,21.3h-99.9l21.3-21.3a24.811,24.811,0,0,0,4.5-6.3,17.123,17.123,0,0,0,1.2-6.9V469.14l-65.7,62.51v6.85a17.123,17.123,0,0,0,1.2,6.9,24.811,24.811,0,0,0,4.5,6.3l21.3,21.3h-99.9L331,551.7a24.811,24.811,0,0,0,4.5-6.3,17.123,17.123,0,0,0,1.2-6.9V450a17.123,17.123,0,0,0-1.2-6.9,24.811,24.811,0,0,0-4.5-6.3l-21.3-21.3h99.9l-21.3,21.3a24.811,24.811,0,0,0-4.5,6.3,17.123,17.123,0,0,0-1.2,6.9l-.02,69.65,65.7-62.71V450a17.123,17.123,0,0,0-1.2-6.9,24.811,24.811,0,0,0-4.5-6.3l-21.3-21.3h99.9l-21.3,21.3a24.811,24.811,0,0,0-4.5,6.3,17.123,17.123,0,0,0-1.2,6.9v88.5a17.123,17.123,0,0,0,1.2,6.9A24.811,24.811,0,0,0,499.88,551.7Z"/><path class="d" d="M891.46,483.9a86.37,86.37,0,0,0-6.6-16.8h-1.2a71.292,71.292,0,0,1,4.5,24,58.678,58.678,0,0,1-3.9,22.2,42.328,42.328,0,0,1-25.5,25.5,55.358,55.358,0,0,1-19.2,3.3,61.894,61.894,0,0,1-33-9,97.884,97.884,0,0,1-24.9-22.2,109.724,109.724,0,0,1-15.9-28.2,84.063,84.063,0,0,1-5.36-25.2H873.2a51.477,51.477,0,0,0-7.2-20.4A47.015,47.015,0,0,0,852.76,423a52.264,52.264,0,0,0-18-7.8,82.719,82.719,0,0,0-21.3-2.7,92.149,92.149,0,0,0-62.1,23.7,82.5,82.5,0,0,0-19.5,26.4,74.541,74.541,0,0,0-7.2,32.7,76.864,76.864,0,0,0,6.6,31.8,84.951,84.951,0,0,0,18.6,25.8,88.906,88.906,0,0,0,27.3,17.1,95.2,95.2,0,0,0,33.9,6,91.443,91.443,0,0,0,31.2-5.4,87.213,87.213,0,0,0,26.4-15.6,70.686,70.686,0,0,0,18.3-23.7,69.433,69.433,0,0,0,6.9-30.9A59.808,59.808,0,0,0,891.46,483.9Zm-120.9-53.4q10.5-9.6,30.3-9.6,9,0,13.5,3.9a10.816,10.816,0,0,1,4.5,8.7,14.228,14.228,0,0,1-5.1,11.1q-4.8,4.5-17.1,4.5H760.84A31.419,31.419,0,0,1,770.56,430.5Z"/><path class="d" d="M1087.21,551.7l21.3,21.3h-99.9l21.3-21.3a24.811,24.811,0,0,0,4.5-6.3,17.123,17.123,0,0,0,1.2-6.9V502.49L972.9,492.8l.01,45.7a17.123,17.123,0,0,0,1.2,6.9,24.811,24.811,0,0,0,4.5,6.3l21.3,21.3H900l21.3-21.3a24.811,24.811,0,0,0,4.5-6.3,17.123,17.123,0,0,0,1.2-6.9V450a17.123,17.123,0,0,0-1.2-6.9,24.811,24.811,0,0,0-4.5-6.3L900,415.5h99.9l-21.3,21.3a24.811,24.811,0,0,0-4.5,6.3,17.123,17.123,0,0,0-1.2,6.9v33.68l62.71,9.7V450a17.123,17.123,0,0,0-1.2-6.9,24.811,24.811,0,0,0-4.5-6.3l-21.3-21.3h99.9l-21.3,21.3a24.811,24.811,0,0,0-4.5,6.3,17.123,17.123,0,0,0-1.2,6.9v88.5a17.123,17.123,0,0,0,1.2,6.9A24.811,24.811,0,0,0,1087.21,551.7Z"/><path class="d" d="M1490.11,551.7l21.3,21.3h-99.9l21.3-21.3a24.811,24.811,0,0,0,4.5-6.3,17.123,17.123,0,0,0,1.2-6.9V469.14l-65.7,62.51v6.85a17.123,17.123,0,0,0,1.2,6.9,24.811,24.811,0,0,0,4.5,6.3l21.3,21.3h-99.9l21.3-21.3a24.811,24.811,0,0,0,4.5-6.3,17.123,17.123,0,0,0,1.2-6.9V450a17.123,17.123,0,0,0-1.2-6.9,24.811,24.811,0,0,0-4.5-6.3l-21.3-21.3h99.9l-21.3,21.3a24.811,24.811,0,0,0-4.5,6.3,17.123,17.123,0,0,0-1.2,6.9v69.65l65.7-62.71V450a17.123,17.123,0,0,0-1.2-6.9,24.811,24.811,0,0,0-4.5-6.3l-21.3-21.3h99.9l-21.3,21.3a24.811,24.811,0,0,0-4.5,6.3,17.123,17.123,0,0,0-1.2,6.9v88.5a17.123,17.123,0,0,0,1.2,6.9A24.811,24.811,0,0,0,1490.11,551.7Z"/><path class="d" d="M1707.79,543.6a94.818,94.818,0,0,1-1.2,15.6A87.464,87.464,0,0,1,1703,573h-71.1l21.29-21.3a24.811,24.811,0,0,0,4.5-6.3,17.123,17.123,0,0,0,1.2-6.9q0-11.7-5.4-18.6a30.607,30.607,0,0,0-14.7-10.5,64.913,64.913,0,0,0-21.9-3.9,180.586,180.586,0,0,0-26.7,1.5v31.5a17.123,17.123,0,0,0,1.2,6.9,24.811,24.811,0,0,0,4.5,6.3l21.3,21.3h-99.9l21.3-21.3a24.811,24.811,0,0,0,4.5-6.3,17.123,17.123,0,0,0,1.2-6.9V450a17.123,17.123,0,0,0-1.2-6.9,24.811,24.811,0,0,0-4.5-6.3l-21.3-21.3h99.9l-21.3,21.3a24.811,24.811,0,0,0-4.5,6.3,17.123,17.123,0,0,0-1.2,6.9v32.4q14.1-2.1,24-7.8a53.652,53.652,0,0,0,16.5-14.7,61.38,61.38,0,0,0,9.9-19.8,95.568,95.568,0,0,0,4.2-24.6h54.9q-2.1,18.6-13.2,31.8a100.7,100.7,0,0,1-27,21.9,152.956,152.956,0,0,1-34.2,13.8,276.746,276.746,0,0,1-35.1,7.5v8.4q10.2-1.2,22.8-2.1a185.2,185.2,0,0,1,25.8-.6,150.63,150.63,0,0,1,25.5,2.7,67.733,67.733,0,0,1,22.2,7.5,42.347,42.347,0,0,1,15.3,14.4Q1707.79,529.8,1707.79,543.6Z"/><path class="d" d="M1887.5,547.5q-3.6-4.2-5.1-12.9l-10.5-67.8q-2.4-15.6-8.4-25.8a51,51,0,0,0-15-16.8,55.935,55.935,0,0,0-19.8-9,95.114,95.114,0,0,0-23.1-2.7,104.173,104.173,0,0,0-22.8,2.7,92.289,92.289,0,0,0-11.1,3,27.448,27.448,0,0,1-8.1,1.2,22.658,22.658,0,0,1-7.5-1.5,52.684,52.684,0,0,1-7.5-3.3,49.7,49.7,0,0,1-8.1-5.1l12,76.8h1.2l15.3-44.1q3.6-10.2,9.3-15.6,6-5.7,15.6-5.7,13.5,0,20.4,10.2,7.2,9.9,9.6,24.3l2.92,19.43a414.948,414.948,0,0,0-46.72,14.47q-19.8,7.5-32.4,15.9-12.3,8.4-18,17.7a36.156,36.156,0,0,0-5.4,18.9,31.959,31.959,0,0,0,3.3,15,33.4,33.4,0,0,0,9,10.8,43.725,43.725,0,0,0,13.8,6.3,65.721,65.721,0,0,0,17.1,2.1,92.466,92.466,0,0,0,39.6-8.4,72.428,72.428,0,0,0,30-25.5l4.8,30.9h71.4Zm-60.9-7.2a59.962,59.962,0,0,1-9.9,9,56.307,56.307,0,0,1-11.1,6.3,26.487,26.487,0,0,1-10.8,2.4q-9.6,0-15.6-5.7-6-6-6-15.6a37.883,37.883,0,0,1,3-14.7,45.358,45.358,0,0,1,9.6-14.4,74.772,74.772,0,0,1,17.1-12.9,139.47,139.47,0,0,1,25.24-11.12L1835,529.2A84.685,84.685,0,0,1,1826.6,540.3Z"/><path class="d" d="M466.45,715.5l-22.8,20.1q-1.8,1.8-3.3,3.6a16.638,16.638,0,0,0-3,4.8L375,874.5a171.228,171.228,0,0,1-14.1,24.6,79.027,79.027,0,0,1-15.6,16.8,52.354,52.354,0,0,1-18,9.6,77.427,77.427,0,0,1-22.5,3,60.36,60.36,0,0,1-19.8-3.3L274.5,824.1h1.2l40.2,65.1a27.47,27.47,0,0,0,7.2,7.8,15.315,15.315,0,0,0,9.6,3,36.988,36.988,0,0,0,9.6-1.2,21.479,21.479,0,0,0,8.4-4.5,31.837,31.837,0,0,0,7.8-8.4,80.633,80.633,0,0,0,7.8-12.9l5.53-11.43L282.25,715.5h90.6l-17.4,17.7a8.979,8.979,0,0,0-2.7,5.7,10.185,10.185,0,0,0,1.5,6.3l41.18,66.91,32.02-66.91a14.929,14.929,0,0,0,1.8-6q.6-3.3-2.4-6l-18-17.7Z"/><path class="d" d="M864.04,851.7l21.3,21.3h-99.9l21.3-21.3a24.811,24.811,0,0,0,4.5-6.3,17.123,17.123,0,0,0,1.2-6.9V769.14l-65.7,62.51v6.85a17.123,17.123,0,0,0,1.2,6.9,24.811,24.811,0,0,0,4.5,6.3l21.3,21.3h-99.9l21.3-21.3a24.811,24.811,0,0,0,4.5-6.3,17.123,17.123,0,0,0,1.2-6.9V750a17.123,17.123,0,0,0-1.2-6.9,24.811,24.811,0,0,0-4.5-6.3l-21.3-21.3h99.9l-21.3,21.3a24.811,24.811,0,0,0-4.5,6.3,17.123,17.123,0,0,0-1.2,6.9v69.65l65.7-62.71V750a17.123,17.123,0,0,0-1.2-6.9,24.811,24.811,0,0,0-4.5-6.3l-21.3-21.3h99.9L864,736.8a24.811,24.811,0,0,0-4.5,6.3,17.123,17.123,0,0,0-1.2,6.9l.04,88.5a17.123,17.123,0,0,0,1.2,6.9A24.811,24.811,0,0,0,864.04,851.7Z"/><path class="d" d="M1448.22,851.7l21.3,21.3h-99.9l21.3-21.3a24.811,24.811,0,0,0,4.5-6.3,17.123,17.123,0,0,0,1.2-6.9V769.14l-65.7,62.52v6.84a17.123,17.123,0,0,0,1.2,6.9,24.811,24.811,0,0,0,4.5,6.3l21.3,21.3H1258l21.3-21.3a24.811,24.811,0,0,0,4.5-6.3,17.123,17.123,0,0,0,1.2-6.9V750a17.123,17.123,0,0,0-1.2-6.9,24.811,24.811,0,0,0-4.5-6.3L1258,715.5h99.9l-21.3,21.3a24.811,24.811,0,0,0-4.5,6.3,17.123,17.123,0,0,0-1.2,6.9l.02,69.66,65.7-62.72V750a17.123,17.123,0,0,0-1.2-6.9,24.811,24.811,0,0,0-4.5-6.3l-21.3-21.3h99.9l-21.3,21.3a24.811,24.811,0,0,0-4.5,6.3,17.123,17.123,0,0,0-1.2,6.9v88.5a17.123,17.123,0,0,0,1.2,6.9A24.811,24.811,0,0,0,1448.22,851.7Z"/><path class="d" d="M1623.9,851.7l21.3,21.3h-99.9l21.3-21.3a24.811,24.811,0,0,0,4.5-6.3,17.123,17.123,0,0,0,1.2-6.9V790.8a164.4,164.4,0,0,1-20.7,5.4,111.6,111.6,0,0,1-21.6,1.5,82.808,82.808,0,0,1-20.1-3,49.15,49.15,0,0,1-17.1-9.3,50.163,50.163,0,0,1-11.7-16.5q-4.2-10.2-4.2-24.9a87.284,87.284,0,0,1,1.2-13.5,91.739,91.739,0,0,1,4.2-15h68.1l-21,20.7a10.91,10.91,0,0,0-3.6,8.4q0,16.2,8.7,27.3t27.6,11.1a62.269,62.269,0,0,0,10.2-.9V715.5h72.9l-21.3,21.3a24.811,24.811,0,0,0-4.5,6.3,17.123,17.123,0,0,0-1.2,6.9v88.5a17.123,17.123,0,0,0,1.2,6.9A24.811,24.811,0,0,0,1623.9,851.7Z"/><path class="d" d="M1818.12,783.9a86.37,86.37,0,0,0-6.6-16.8h-1.2a71.292,71.292,0,0,1,4.5,24,58.678,58.678,0,0,1-3.9,22.2,42.328,42.328,0,0,1-25.5,25.5,55.358,55.358,0,0,1-19.2,3.3,61.894,61.894,0,0,1-33-9,97.884,97.884,0,0,1-24.9-22.2,109.724,109.724,0,0,1-15.9-28.2,84.063,84.063,0,0,1-5.36-25.2h112.76a51.477,51.477,0,0,0-7.2-20.4,47.119,47.119,0,0,0-13.2-14.1,52.264,52.264,0,0,0-18-7.8,82.719,82.719,0,0,0-21.3-2.7,92.149,92.149,0,0,0-62.1,23.7,82.5,82.5,0,0,0-19.5,26.4,74.541,74.541,0,0,0-7.2,32.7,76.864,76.864,0,0,0,6.6,31.8,84.951,84.951,0,0,0,18.6,25.8,88.906,88.906,0,0,0,27.3,17.1,95.2,95.2,0,0,0,33.9,6,91.443,91.443,0,0,0,31.2-5.4,87.213,87.213,0,0,0,26.4-15.6,70.686,70.686,0,0,0,18.3-23.7,69.433,69.433,0,0,0,6.9-30.9A59.808,59.808,0,0,0,1818.12,783.9Zm-120.9-53.4q10.5-9.6,30.3-9.6,9,0,13.5,3.9a10.816,10.816,0,0,1,4.5,8.7,14.228,14.228,0,0,1-5.1,11.1q-4.8,4.5-17.1,4.5H1687.5A31.419,31.419,0,0,1,1697.22,730.5Z"/><path class="d" d="M2204.38,843.6a94.818,94.818,0,0,1-1.2,15.6,87.464,87.464,0,0,1-3.59,13.8h-71.1l21.29-21.3a24.811,24.811,0,0,0,4.5-6.3,17.123,17.123,0,0,0,1.2-6.9q0-11.7-5.4-18.6a30.607,30.607,0,0,0-14.7-10.5,64.913,64.913,0,0,0-21.9-3.9,180.586,180.586,0,0,0-26.7,1.5v31.5a17.123,17.123,0,0,0,1.2,6.9,24.811,24.811,0,0,0,4.5,6.3l21.3,21.3h-99.9l21.3-21.3a24.811,24.811,0,0,0,4.5-6.3,17.123,17.123,0,0,0,1.2-6.9V750a17.123,17.123,0,0,0-1.2-6.9,24.811,24.811,0,0,0-4.5-6.3l-21.3-21.3h99.9l-21.3,21.3a24.811,24.811,0,0,0-4.5,6.3,17.123,17.123,0,0,0-1.2,6.9v32.4q14.1-2.1,24-7.8a53.652,53.652,0,0,0,16.5-14.7,61.38,61.38,0,0,0,9.9-19.8,95.568,95.568,0,0,0,4.2-24.6h54.9q-2.1,18.6-13.2,31.8a100.7,100.7,0,0,1-27,21.9,152.956,152.956,0,0,1-34.2,13.8,276.746,276.746,0,0,1-35.1,7.5v8.4q10.2-1.2,22.8-2.1a185.2,185.2,0,0,1,25.8-.6,150.63,150.63,0,0,1,25.5,2.7,67.733,67.733,0,0,1,22.2,7.5,42.347,42.347,0,0,1,15.3,14.4Q2204.38,829.8,2204.38,843.6Z"/><path class="d" d="M261.8,1062.3a75.391,75.391,0,0,0-30-28.2,83.619,83.619,0,0,0-39.9-9.9,105.439,105.439,0,0,0-19.5,1.8,57.921,57.921,0,0,0-18.6,6.6q-13.5,7.2-19.2,18.3c-.5.98-.97,1.98-1.4,2.99a232.734,232.734,0,0,1-6.1-23.09,135.462,135.462,0,0,1-3-27.6q0-13.5,8.7-18t22.5-.6l80.7,22.2L254,957a39.1,39.1,0,0,1-7.2,3,51.549,51.549,0,0,1-8.1,2.1,55.346,55.346,0,0,1-10.2.9q-5.7,0-12.6-.3l-13.5-1.2q-6.6-.6-12.6-.9-4.785-.54-9.6-.6a121.048,121.048,0,0,0-28.8,3.6A68.446,68.446,0,0,0,125,976.8q-12,9.6-19.5,26.4-7.5,16.5-7.5,42.9a218.32,218.32,0,0,0,5.4,49.2,136.994,136.994,0,0,0,16.5,41.4,91.128,91.128,0,0,0,28.5,28.8q17.4,10.5,41.1,10.5a86.275,86.275,0,0,0,41.1-10.2q20.1-10.8,30.9-28.8a72.826,72.826,0,0,0,10.8-38.1A68.668,68.668,0,0,0,261.8,1062.3Zm-28.2,85.2a20.264,20.264,0,0,1-7.8,8.1,24.472,24.472,0,0,1-11.1,2.4q-10.8,0-24-9.9t-28.5-33q-.66-1-1.29-2.01-9.495-14.955-13.71-26.49-4.5-12.6-4.5-21.6,0-14.4,10.8-20.4a24.472,24.472,0,0,1,11.1-2.4q10.5,0,23.7,9.9,13.5,9.6,28.5,32.7,10.5,16.5,15,29.1,4.8,12.3,4.8,21.3A23.79,23.79,0,0,1,233.6,1147.5Z"/><path class="d" d="M1255.83,1147.5q-3.6-4.2-5.1-12.9l-10.5-67.8q-2.4-15.6-8.4-25.8a51,51,0,0,0-15-16.8,55.76,55.76,0,0,0-19.8-9,95.114,95.114,0,0,0-23.1-2.7,104.173,104.173,0,0,0-22.8,2.7,92.289,92.289,0,0,0-11.1,3,27.448,27.448,0,0,1-8.1,1.2,22.658,22.658,0,0,1-7.5-1.5,52.684,52.684,0,0,1-7.5-3.3,49.7,49.7,0,0,1-8.1-5.1l12,76.8h1.2l15.3-44.1q3.6-10.2,9.3-15.6,6-5.7,15.6-5.7,13.5,0,20.4,10.2,7.2,9.9,9.6,24.3l2.92,19.43a414.948,414.948,0,0,0-46.72,14.47q-19.8,7.5-32.4,15.9-12.3,8.4-18,17.7a36.156,36.156,0,0,0-5.4,18.9,31.959,31.959,0,0,0,3.3,15,33.4,33.4,0,0,0,9,10.8,43.725,43.725,0,0,0,13.8,6.3,65.721,65.721,0,0,0,17.1,2.1,92.466,92.466,0,0,0,39.6-8.4,72.428,72.428,0,0,0,30-25.5l4.8,30.9h71.4Zm-60.9-7.2a59.962,59.962,0,0,1-9.9,9,56.307,56.307,0,0,1-11.1,6.3,26.487,26.487,0,0,1-10.8,2.4q-9.6,0-15.6-5.7-6-6-6-15.6a37.883,37.883,0,0,1,3-14.7,45.358,45.358,0,0,1,9.6-14.4,74.772,74.772,0,0,1,17.1-12.9,139.47,139.47,0,0,1,25.24-11.12l6.86,45.62A84.685,84.685,0,0,1,1194.93,1140.3Z"/><path class="d" d="M508.93,1315.5l-22.8,20.1q-1.8,1.8-3.3,3.6a16.638,16.638,0,0,0-3,4.8l-62.4,130.5a171.228,171.228,0,0,1-14.1,24.6,79.027,79.027,0,0,1-15.6,16.8,52.354,52.354,0,0,1-18,9.6,77.427,77.427,0,0,1-22.5,3,60.36,60.36,0,0,1-19.8-3.3l-10.5-101.1h1.2l40.2,65.1a27.47,27.47,0,0,0,7.2,7.8,15.315,15.315,0,0,0,9.6,3,36.988,36.988,0,0,0,9.6-1.2,21.479,21.479,0,0,0,8.4-4.5,31.837,31.837,0,0,0,7.8-8.4,80.633,80.633,0,0,0,7.8-12.9l5.53-11.43L324.73,1315.5h90.6l-17.4,17.7a8.979,8.979,0,0,0-2.7,5.7,10.185,10.185,0,0,0,1.5,6.3l41.18,66.91,32.02-66.91a14.929,14.929,0,0,0,1.8-6q.6-3.3-2.4-6l-18-17.7Z"/><path class="d" d="M697.56,1451.7l21.3,21.3H619l21.3-21.3a24.811,24.811,0,0,0,4.5-6.3,17.123,17.123,0,0,0,1.2-6.9v-36.01l-62.72-9.69-.02,45.7a17.123,17.123,0,0,0,1.2,6.9,24.811,24.811,0,0,0,4.5,6.3l21.3,21.3h-99.9l21.3-21.3a24.811,24.811,0,0,0,4.5-6.3,17.123,17.123,0,0,0,1.2-6.9V1350a17.123,17.123,0,0,0-1.2-6.9,24.811,24.811,0,0,0-4.5-6.3l-21.3-21.3h99.9L589,1336.8a24.811,24.811,0,0,0-4.5,6.3,17.123,17.123,0,0,0-1.2,6.9l-.02,33.69,62.72,9.69V1350a17.123,17.123,0,0,0-1.2-6.9,24.811,24.811,0,0,0-4.5-6.3L619,1315.5h99.9l-21.3,21.3a24.811,24.811,0,0,0-4.5,6.3,17.123,17.123,0,0,0-1.2,6.9l-.04,88.5a17.123,17.123,0,0,0,1.2,6.9A24.811,24.811,0,0,0,697.56,1451.7Z"/><path class="d" d="M1069.67,1315.5l-22.8,20.1q-1.8,1.8-3.3,3.6a16.638,16.638,0,0,0-3,4.8l-62.4,130.5a171.228,171.228,0,0,1-14.1,24.6,79.027,79.027,0,0,1-15.6,16.8,52.354,52.354,0,0,1-18,9.6,77.427,77.427,0,0,1-22.5,3,60.36,60.36,0,0,1-19.8-3.3l-10.5-101.1h1.2l40.2,65.1a27.47,27.47,0,0,0,7.2,7.8,15.315,15.315,0,0,0,9.6,3,36.988,36.988,0,0,0,9.6-1.2,21.479,21.479,0,0,0,8.4-4.5,31.837,31.837,0,0,0,7.8-8.4,80.633,80.633,0,0,0,7.8-12.9l5.53-11.43L885.47,1315.5h90.6l-17.4,17.7a8.979,8.979,0,0,0-2.7,5.7,10.185,10.185,0,0,0,1.5,6.3l41.18,66.91,32.02-66.91a14.929,14.929,0,0,0,1.8-6q.6-3.3-2.4-6l-18-17.7Z"/><path class="d" d="M665.85,1083.9a86.37,86.37,0,0,0-6.6-16.8h-1.2a71.292,71.292,0,0,1,4.5,24,58.678,58.678,0,0,1-3.9,22.2,42.328,42.328,0,0,1-25.5,25.5,55.358,55.358,0,0,1-19.2,3.3,61.894,61.894,0,0,1-33-9,97.884,97.884,0,0,1-24.9-22.2,109.724,109.724,0,0,1-15.9-28.2,84.063,84.063,0,0,1-5.36-25.2h112.8a51.477,51.477,0,0,0-7.2-20.4,47.015,47.015,0,0,0-13.24-14.1,52.264,52.264,0,0,0-18-7.8,82.719,82.719,0,0,0-21.3-2.7,92.149,92.149,0,0,0-62.1,23.7,82.5,82.5,0,0,0-19.5,26.4,74.541,74.541,0,0,0-7.2,32.7,76.864,76.864,0,0,0,6.6,31.8,84.951,84.951,0,0,0,18.6,25.8,88.906,88.906,0,0,0,27.3,17.1,95.2,95.2,0,0,0,33.9,6,91.443,91.443,0,0,0,31.2-5.4,87.213,87.213,0,0,0,26.4-15.6,70.686,70.686,0,0,0,18.3-23.7,69.433,69.433,0,0,0,6.9-30.9A59.808,59.808,0,0,0,665.85,1083.9Zm-120.9-53.4q10.5-9.6,30.3-9.6,9,0,13.5,3.9a10.816,10.816,0,0,1,4.5,8.7,14.228,14.228,0,0,1-5.1,11.1q-4.8,4.5-17.1,4.5H535.23A31.419,31.419,0,0,1,544.95,1030.5Z"/><path class="d" d="M861.6,1151.7l21.3,21.3H783l21.3-21.3a24.811,24.811,0,0,0,4.5-6.3,17.123,17.123,0,0,0,1.2-6.9v-36.01l-62.71-9.69.01,45.7a17.123,17.123,0,0,0,1.2,6.9,24.811,24.811,0,0,0,4.5,6.3l21.3,21.3H674.39l21.3-21.3a24.811,24.811,0,0,0,4.5-6.3,17.123,17.123,0,0,0,1.2-6.9V1050a17.123,17.123,0,0,0-1.2-6.9,24.811,24.811,0,0,0-4.5-6.3l-21.3-21.3h99.9l-21.3,21.3a24.811,24.811,0,0,0-4.5,6.3,17.123,17.123,0,0,0-1.2,6.9v33.68l62.71,9.7V1050a17.123,17.123,0,0,0-1.2-6.9,24.811,24.811,0,0,0-4.5-6.3L783,1015.5h99.9l-21.3,21.3a24.811,24.811,0,0,0-4.5,6.3,17.123,17.123,0,0,0-1.2,6.9v88.5a17.123,17.123,0,0,0,1.2,6.9A24.811,24.811,0,0,0,861.6,1151.7Z"/></svg>