<svg fill="none" height="1609" width="3000" xmlns="http://www.w3.org/2000/svg"><path d="M0 0h3000v1609H0z" fill="#000"/><g fill="#db5342"><path d="M553.056 354.805v-21.528h-21.528v21.528H510v43.056h21.528v-43.056z"/><path d="M553.055 397.859h-21.528v21.528h21.528zm172.391-86.107h-21.528v21.528h21.528zm-172.39-21.529h21.528v-21.695h-21.528V247H510v21.528h21.528v21.695H510v21.527h43.056v21.528h21.528V311.75h-21.528zm86.112 0h21.527V247H617.64v43.223zm64.75-21.695v21.695h21.528v21.527h43.056v-21.527h-21.528v-21.695h21.528V247h-43.056v21.528zm21.528 215.61v21.527h43.056v-21.527h-21.528V462.61h21.528v-21.528h-43.056v-21.528h21.528v-21.695h-21.528v21.528h-21.528v21.695h21.528v21.528h-21.528v21.528z"/><path d="M703.917 354.802v-21.528H682.39v86.112-21.528h-21.528v-43.056h21.528v-43.055h21.527v-21.528h-43.222v21.528h-43.056v-21.528h-43.055v21.528h21.527v21.527h-21.527v21.528h-21.528v43.056h21.528v21.528h21.527v21.528h-21.527v-21.528h-21.528v21.528H510v21.527h21.528v21.528H510v21.528h43.056v-21.528h21.528v-21.528h-21.528v-21.527h21.528v21.527h43.055v43.056h43.056v-43.056h-43.056v-21.527h43.056v21.527h43.056v-21.527H682.39v-21.528h21.527v-21.528h21.528v-43.056h21.528v-21.528h-21.528v21.528zm-86.278-21.528h43.056v21.528h-43.056zm-21.528 86.112v-64.584h21.528v43.056h-21.528zm21.528-21.528h43.056v21.528h-43.056zM768.5 354.809h-21.527v43.055H768.5zM574.584 882.444h-21.528v-21.528h-21.528v21.528H510v43.222h21.528v-21.527h21.528v21.527h21.528zM531.528 667H510v43.223h21.528v21.527h21.528v-21.527h21.528V667h-21.528v21.528h-21.528zm172.39 215.444v43.222h21.528v-21.527h21.528v21.527h21.528v-43.222h-21.528v-21.528h-21.528v21.528zm-43.223-107.635H617.64v43.055h43.055z"/><path d="M596.111 688.531v21.528h21.528v21.528h-21.528v21.527h-21.527v21.695h-21.528v-21.528h-21.528v21.528H510v43.056h21.528v21.528h21.528v-21.528h21.528v21.528h21.527v21.528h21.528v21.527h-21.528v21.528h21.528v21.528h43.056v-21.528h21.695v-21.528h-21.695v-21.527h21.695v-21.528h21.527v-21.528h21.528v21.528h21.528v-21.528h21.528v-43.056h-21.528v-21.528h-21.528v21.528h-21.528v-21.528H682.39v-21.528h-21.695v-21.527h21.695v-21.528h-21.695V667.17h-43.056v21.528h-21.528zm64.584 86.278h21.695v43.056h-21.695v21.528h-43.056v-21.528h-21.528v-43.056h21.528v-21.528h43.056zm43.223-64.586h21.528v21.527h21.528v-21.527h21.528V667h-21.528v21.528h-21.528V667h-21.528zm256.61 629.917H939v21.53h21.528zm0-236.97H939v21.53h21.528zm86.112 107.64h-21.53v43.05h21.53zm43.22-21.53h-43.05v21.53h43.05zm0 64.75h-43.05v21.53h43.05z"/><path d="M1046.47 1103h-21.53v.17h-42.884v43.05h43.054v21.36h-43.054v-21.36H939v21.53h42.889v21.36h.334v.17h-43.056v86.28h42.889v21.52h-42.889v21.53h43.056v-21.36h43.057v-.17 21.53h-43.224v43.06h172.394v-43.06h-42.89v-21.53h42.89v21.53h43.05v-21.53h-43.05v-21.52h43.05v-86.28h-43.05v-21.53h43.05v-21.53h-43.05v21.36h-43.06v-21.36h43.06v-43.05h-43.06v-.17h-21.53v.17h-43.39zm43.39 43.06v43.05h21.53v21.7h64.58v43.05h-64.58v21.53h-21.36v64.58h-43.39v-64.58h-21.53v-21.53h-64.582v-43.05h64.582v-21.7h21.53v-64.42h43.22z"/><path d="M1197.5 1340.14h-21.53v21.53h21.53zm0-236.97h-21.53v21.53h21.53zm-86.11 107.64h-21.53v43.05h21.53zm-20.53-920.587v-21.695h21.53V247h-21.53v21.528h-43.05v21.695zm-129.332 193.92H940v21.527h21.528zm86.282 0h-21.53v21.527h21.53zm-86.282-129.334H940v43.055h21.528zm86.282 21.527v-21.527h-21.53v43.055h21.53zM961.528 247H940v21.528h21.528zm86.282 0h-21.53v21.528h21.53z"/><path d="M961.528 290.223H940v43.055h21.528v21.528h21.528v43.056h-21.528v21.528H940v43.055h21.528v21.528h21.528v21.528h21.524v-21.528h21.53v-21.528h21.53V419.39h-21.53v-21.528h-21.53v-43.056h21.53v-21.528h21.53v-43.055h-21.53v-21.695h-21.53V247h-21.524v21.528h-21.528zm43.222 150.861v21.528h-21.527v-43.055h21.527zm0-150.861v43.055h-21.527v-43.055zm193.75 193.92h-21.53v21.527h21.53zm0-129.334h-21.53v43.055h21.53z"/><path d="M1090.86 290.223v43.055h-43.05v21.528h43.05v43.056h-43.05v21.528h43.05v-21.528h21.53v-43.056h-21.53v-21.528h21.53v21.528h21.53v43.056h-21.53v21.528h-21.53v43.055h-43.05v21.528h43.05v21.528h21.53v-21.528h-21.53v-21.528h21.53v21.528h21.53v21.528h21.53v-21.528h21.52v-21.528h21.53V419.39h-21.53v-21.528h-21.52v-43.056h21.52v-21.528h21.53v-43.055h-21.53v-21.695h-21.52V247h-21.53v21.528h-21.53v21.528h-21.53zm64.59 150.861v21.528h-21.53v-43.055h21.53zm-21.53-150.861h21.53v43.055h-21.53zM1198.5 247h-21.53v21.528h21.53zM961.528 884.447H940v43.056h21.528zm193.922 21.526h-21.53V927.5h21.53zm0-236.973h-21.53v21.528h21.53zm-150.87 236.973h-21.524V927.5h21.524zm0-236.973h-21.524v21.528h21.524zm-43.052 0H940v43.056h21.528z"/><path d="M983.056 712.056v21.528h-21.528v21.527H940v86.279h21.528v21.527h21.528v21.528h21.524v21.528h21.53v21.528h21.53v-21.528h43.22v21.528h21.53v-21.528h21.53v-21.528h21.53v-21.528h21.52V841.39h21.53v-86.279h-21.53v-21.527h-21.52v-21.528h-21.53v-21.528h-21.53V669h-21.53v21.528h-43.05V669h-21.53v21.528h-21.53v21.528zm36.214 21.528h6.84v21.527h21.36v21.528h43.06v-21.528h-42.89v-21.527h43.22v21.527h21.53v-21.527h21.53v21.527h21.53v21.528h-43.06v43.056h43.06v21.528h-21.53v21.528h-21.53v-21.528h-21.53v21.528h-43.05v-21.528h42.88v-21.528h-43.22v21.528h-21.36v21.528h-21.53v-21.528h-21.524v-21.528h43.054v-43.056h-43.054v-21.528h21.524v-21.527zm179.23 150.863h-21.53v43.056h21.53zm0-215.447h-21.53v43.056h21.53zm-666.972 671.14v-21.69H510v43.22h43.056v-21.53zm21.528-215.61V1103H510v43.06h21.528v-21.53zm172.389 215.61v21.53h43.056v-43.22h-21.528v21.69zm-43.055-49.23v-15.52h-21.695v-21.53h-43.056v-43.05h-21.528v-21.53h-21.527v-21.53h-21.528v21.53h-21.528v21.53H510v43.05h21.528v21.53h21.528v21.53h21.528v21.53h21.527v21.52h21.528v21.7h43.056v-21.53h21.695v-21.53h21.527v-21.52H682.39zm-129.334-58.57v-21.53h21.528v43.05h-21.528zm21.528 43.05h21.527v-21.53h21.528v21.53h-21.528v21.53h-21.527zm86.111 43.06h-43.056v-21.53h43.056zm-43.055-193.92h-21.528v21.53h-21.528v21.52h21.528v21.53h21.528v21.53h43.055v-21.53h21.695v21.53h-21.695v43.05h21.695v21.53h21.528v21.53h21.528v-21.53h21.528v-21.53h21.527v-43.05h-21.527v-21.53h-21.528v-21.53h-21.528v-21.52H682.39v-21.53h-21.695V1103H617.64zm107.806 107.8v21.53h-21.528v-43.05h21.528zm-21.528-43.05H682.39v-21.53h21.528zm-43.223-43.22v21.52H617.64v-21.52zm86.278-21.53v21.53h21.528V1103h-43.056v21.53zM1906.97 1255.7h-22.03l-83.94 83.77v21.86h22.03l83.94-83.77zm-83.94-152.7H1801v21.86l83.94 83.78h22.03v-21.87zm118.32 10.85l-11.02-10.85-10.84 10.85h-.17v83.94h.17l10.84 10.85 11.02-10.85zm0 236.64v-83.95l-11.02-10.84-10.84 10.84h-.17v83.95h.17l10.84 10.84zM1801 1232l10.85 10.85h84.11l11.01-10.85-11.01-10.85v-.17h-84.11v.17zm164.05-10.85L1954.2 1232l10.85 10.85.33-.34v.34h84.11l11.01-10.85-11.01-10.85v-.17h-84.11v.51zm-10.85 56.08l-.5.33 84.77 83.78h22.03v-21.87l-84.77-83.77v-.33h-22.03v21.86zm-.5-68.59h22.03l84.77-83.78V1103h-22.03l-84.77 83.61zm3.5-60.25l9.01 9.01 9.02-9.01v-36.55l-9.02-8.84-9.01 8.84zm-72.26-36.55v36.55l9.01 9.01 9.01-9.01v-36.55l-9.01-8.84zm18.02 204.1l-9.01-9.01-9.01 9.01v36.38l9.01 9.01 9.01-9.01zm72.27 0l-9.02-9.01-9.01 9.01v36.38l9.01 9.01 9.02-9.01zm85.27-56.57h-45.56v18.02h45.56zm-213.94 0H1801v18.02h45.56zm213.94-71.92h-45.56v18.02h45.56zm-213.94 0H1801v18.02h45.56zm943.36-442.238l-10.86 10.854 10.86 10.858 10.85-10.854zm.03 107.228l-10.86 10.855 10.85 10.858 10.86-10.855zm53.68-53.767l-10.85 10.854 10.85 10.858 10.86-10.855zm-107.4.13l-10.86 10.853 10.85 10.86 10.86-10.854zm68.01 117.394c13.35-15.353 1-27.702-14.18-14.351-15.36-13.351-27.71-1.002-14.19 14.351-13.35 15.354-1 27.703 14.19 14.186 15.18 13.35 27.53 1.001 14.18-14.186zm.34-213.444c13.35-15.186 1-27.702-14.19-14.185-15.35-13.35-27.7-1.001-14.18 14.185-13.35 15.353-1 27.703 14.18 14.352 15.19 13.351 27.54 1.001 14.19-14.352zm79.1 106.803c-13.35 15.354-1 27.703 14.18 14.352 15.36 13.351 27.71 1.002 14.19-14.352 13.35-15.353 1-27.702-14.19-14.185-15.18-13.517-27.53-1.168-14.18 14.185zm-20.03-86.107c-58.07 38.883-26.53 70.591 12.52 12.516 39.05 58.075 70.59 26.534 12.52-12.516 58.07-39.051 26.53-70.592-12.52-12.517-39.05-58.075-70.76-26.534-12.52 12.517z"/><path d="M2834.11 850.778v-26.701l-14.51-14.519 14.51-14.519v-28.203h-28.2l-14.52 14.519-14.52-14.519h-28.2v28.203l14.52 14.519-14.52 14.519v26.367c-5.67-5.34-23.2 1.335-42.55 30.206-39.05-58.075-70.6-26.535-12.52 12.516-58.08 39.05-26.53 70.591 12.52 12.516 39.05 58.075 70.59 26.534 12.51-12.516 26.54-17.856 34.38-34.044 31.38-40.886h26.86l14.52-14.519 14.52 14.519h26.7c-4.34 6.174 3.01 23.196 30.88 41.887-58.08 39.051-26.54 70.592 12.51 12.516 39.05 58.076 70.59 26.535 12.52-12.516 58.07-39.05 26.53-70.591-12.52-12.516-18.69-28.036-35.54-35.212-41.89-30.873z"/><path d="M2705.45 710.932c-39.05-58.075-70.59-26.534-12.52 12.517-58.07 38.883-26.53 70.591 12.52 12.516 39.05 58.075 70.59 26.534 12.51-12.516 58.08-39.051 26.37-70.592-12.51-12.517zm-9.01 98.624c13.35-15.353 1-27.702-14.19-14.185-15.35-13.517-27.7-1.001-14.18 14.185-13.35 15.354-1 27.703 14.18 14.352 15.19 13.351 27.54.835 14.19-14.352zm155.49-472.917h-24.86v24.865h24.86zm-48.56-24.865V287.91h-24.86v24.866h-24.37v24.865h24.87v-24.865h23.19v23.864h24.87v-24.866zm48.56 73.933h-24.86v24.866h24.86z"/><path d="M2778.51 435.269v24.865h24.86v-24.865h23.7V410.57h-24.87v24.699h-23.19V410.57h-24.87v24.699zm-49.23-73.762h-24.37v24.865h24.37v24.198h24.86v-24.865h-24.36v-23.364h24.36v-24.698h-24.86zm147.85.165h-24.86v24.865h24.86zm-187.24-99.125c0 3.338-.17 6.341-.33 9.012-2.84.166-5.84.333-9.01.333 3.33 0 6.34.167 9.01.334.16 2.837.33 5.841.33 9.012 0-3.338.17-6.342.33-9.012 2.84-.167 5.85-.334 9.02-.334-3.34 0-6.34-.167-9.02-.333-.16-2.837-.33-5.841-.33-9.012z"/><path d="M2690.39 271.558c59.08-5.34 5.34-59.244 0 0zm-.83 0c-5.34-59.244-59.25-5.34 0 0zm.83.833c5.34 59.243 59.08 5.34 0 0zm-.83 0c-59.25 5.34-5.34 59.243 0 0zm202.59-.833c-5.34-59.244-59.07-5.34 0 0z"/><path d="M2892.15 271.726c-2.83.167-5.84.334-9.01.334 3.34 0 6.34.167 9.01.334.17 2.837.34 5.841.34 9.012 0-3.338.16-6.342.33-9.012 2.84-.167 5.84-.334 9.01-.334-3.34 0-6.34-.167-9.01-.334-.17-2.837-.33-5.84-.33-9.011.16 3.004 0 6.008-.34 9.011 0-.166 0-.166 0 0z"/><path d="M2892.15 272.391c-59.07 5.34-5.34 59.243 0 0zm.84-.833c59.24-5.34 5.34-59.244 0 0zm0 .833c5.34 59.243 59.24 5.34 0 0zm-203.43 200.095c-5.34-59.077-59.25-5.341 0 0zm0 .834c-59.25 5.341-5.34 59.244 0 0z"/><path d="M2690.39 473.32c2.84-.167 5.84-.334 9.01-.334-3.33 0-6.34-.167-9.01-.334-.16-2.837-.33-5.841-.33-9.011 0 3.337-.17 6.341-.34 9.011-2.83.167-5.84.334-9.01.334 3.34 0 6.34.167 9.01.334.17 2.837.34 5.841.34 9.011-.17-3.17 0-6.174.33-9.011z"/><path d="M2690.39 473.32c5.34 59.244 59.08 5.341 0 0zm0-.834c59.08-5.341 5.34-59.077 0 0zm201.76.834c-59.07 5.341-5.34 59.244 0 0z"/><path d="M2892.15 472.652c-2.83.167-5.84.334-9.01.334 3.34 0 6.34.167 9.01.334.17 2.837.34 5.841.34 9.011 0-3.337.16-6.341.33-9.011 2.84-.167 5.84-.334 9.01-.334-3.34 0-6.34-.167-9.01-.334-.17-2.837-.33-5.841-.33-9.011.16 3.17 0 6.174-.34 9.011 0-.167 0-.167 0 0z"/><path d="M2892.99 473.32c5.34 59.244 59.24 5.341 0 0zm0-.834c59.24-5.341 5.34-59.077 0 0zm-.84 0c-5.34-59.077-59.07-5.341 0 0zm-40.22-37.216h-24.86v67.253h24.86zm67.43-24.864h-67.43v24.866h67.43zm-67.43-165.885h-24.86v67.254h24.86zm67.43 67.256h-67.43v24.866h67.43zM2754.14 435.27h-24.86v67.253h24.86z"/><path d="M2729.44 410.406h-67.42v24.866h67.42zm24.7-165.885h-24.86v68.255h24.86zm-24.86 68.26h-67.26v24.866h67.26zm-414.51-7.537h-22.02v22.029h22.02zM2252.53 244H2231v21.528h21.53zm62.24 175.396h-22.02v22.029h22.02zm-62.08 61.577H2231V502.5h21.69zM2490.34 244h-21.53v21.528h21.53zm0 236.973h-21.53V502.5h21.53zm-61.75-175.729h-22.03v22.029h22.03zm0 114.152h-22.03v22.029h22.03zm-79.77-46.226c-61.08 0 11.85 72.927 11.85 11.848 0 60.912 72.93-11.848 11.85-11.848 61.08 0-11.85-72.928-11.85-11.849 0-61.079-72.93 11.849-11.85 11.849z"/><path d="M2279.9 285.22c36.54 0-7.18-43.724-7.18-7.176 0-36.548-43.72 7.176-7.18 7.176-36.71 0 7.18 43.723 7.18 7.175.17 36.548 43.89-7.175 7.18-7.175zm-7.01 184.07c0 36.547 43.72-7.176 7.17-7.176 36.55 0-7.17-43.723-7.17-7.176 0-36.547-43.73 7.176-7.18 7.176-36.71 0 7.18 43.723 7.18 7.176zm176.56-191.078c0-36.547-43.72 7.176-7.18 7.176-36.71 0 7.18 43.723 7.18 7.176 0 36.547 43.72-7.176 7.18-7.176 36.54-.167-7.18-43.89-7.18-7.176zm-7.18 183.902c-36.71 0 7.18 43.723 7.18 7.176 0 36.547 43.72-7.176 7.18-7.176 36.54 0-7.18-43.723-7.18-7.176 0-36.547-43.89 7.176-7.18 7.176zM2296.92 261.69l47.73 47.728 17.52 17.523h.17l17.52-17.523 47.73-47.728L2409.9 244l-47.56 47.728L2314.61 244zm130.67 223.287l-47.73-47.729-17.52-17.689h-.17l-17.52 17.689-47.73 47.729 17.69 17.522 47.73-47.728 47.56 47.728zm-2.5-128.833l-17.69 17.689h.16l17.53 17.69 47.72 47.728 17.53-17.69-47.57-47.728 47.73-47.728-17.69-17.523-47.72 47.728zm-128.84 35.379l17.69-17.69-17.69-17.689v.166l-47.73-47.728-17.52 17.523 47.73 47.728-47.73 47.728 17.52 17.69zm58.24 413.975c-38.88-22.362-38.88 29.038 0 6.676-38.88 22.362 5.84 48.229 5.84 3.337 0 44.892 44.56 19.025 5.84-3.337 38.89 22.362 38.89-29.038 0-6.676 38.89-22.362-5.84-48.229-5.84-3.337 0-44.892-44.72-19.192-5.84 3.337zM2253.2 916.305H2231V938.5h22.2zm0-237.305H2231v22.195h22.2zm237.14 0h-22.2v22.195h22.2zm-22.2 22.197h-22.2v22.196h22.2zm22.2 22.198h-22.2v22.195h22.2zM2445.94 679h-22.19v22.195h22.19zm-170.55 22.197h-22.19v22.196h22.19zm22.2-22.197h-22.2v22.195h22.2zm-44.39 44.395H2231v22.195h22.2zm22.19 170.714h-22.19v22.196h22.19zm-22.19-22.191H2231v22.195h22.2zm44.39 44.387h-22.2V938.5h22.2zm192.75 0h-22.2V938.5h22.2zm-22.2-22.196h-22.2v22.196h22.2zm-22.2 22.196h-22.19V938.5h22.19z"/><path d="M2347.32 701.195c-9.01 47.562-46.56 85.11-93.96 94.122V774.29h-22.19v23.197h-.17v22.529h.17v23.196h22.19v-21.027c47.4 9.012 84.95 46.56 93.96 94.122h-21.86v22.195h68.92v-22.195h-20.36c9.01-47.562 46.56-85.11 94.12-94.122v21.027h22.2V774.29h-22.2v21.027c-47.56-9.012-85.11-46.56-94.12-94.122h20.19V679h-68.92v22.195zm87.78 107.64c-33.38 14.351-60.08 41.053-74.43 74.429-14.35-33.376-41.06-60.078-74.43-74.429 33.37-14.185 60.08-41.054 74.43-74.43 14.18 33.376 41.05 60.078 74.43 74.43zm55.24 63.083h-22.2v22.195h22.2zM1369 1103v64.79h22.24v-21.21h20.73v21.38h21.74v21.54h21.4v21.54h-21.4v42.92h21.4v21.54h-21.4v21.54h-21.74v21.38h-20.9v-21.38H1369V1362h22.07v-.17h43.14v-22.04h-21.57v-20.71h21.4v-21.54h21.74V1276h20.9v21.54h43.14v-21.37h21.4v21.37h21.57v21.54h21.57v20.88h-21.4V1362H1628v-64.96h-22.24v21.38h-20.73v-21.38h-21.74v-21.54h-21.57v-21.54h-22.07v21.54h-42.47v-21.54h-21.4v-42.92h21.4v-21.54h42.47v21.54h21.07v42.92h22.07v-42.92h-21.07v-21.54h21.57v-21.54h21.74v-21.38h20.73v21.21H1628V1103h-65.21v22.04h21.57v20.88h-21.57v21.54h-21.57V1189h-21.4v-21.54h-43.14V1189h-20.9v-21.54h-21.74v-21.54h-21.4v-20.88h21.07V1103z"/><path d="M1453 1148.54l15.64 15.46 29.94-29.92 29.95 29.92 15.47-15.46-45.42-45.54zm-52.41 84.04l30.41-30.11-15.88-15.47-46.12 45.42v.16l46.12 45.42 15.88-15.47zm143.41 83.88l-15.47-15.46-29.95 29.92-29.94-29.92-15.64 15.46 45.58 45.54zM1498.5 1211c-11.83 0-21.5 9.67-21.5 21.5s9.67 21.5 21.5 21.5 21.5-9.67 21.5-21.5c0-12-9.67-21.5-21.5-21.5zm97.42 21.58l-29.92 29.95 15.46 15.47 45.54-45.42v-.16l-45.54-45.42-15.46 15.47zm854.12-99.3c-35.21 25.2-14.69 45.56 10.85 10.68 25.36 34.88 46.06 14.52 10.84-10.68 35.22-25.2 14.69-45.56-10.84-10.68-25.54-34.88-46.23-14.52-10.85 10.68zm0 199.09c-35.21 25.2-14.69 45.56 10.85 10.68 25.36 34.88 46.06 14.52 10.84-10.68 35.22-25.2 14.69-45.56-10.84-10.68-25.54-34.88-46.23-14.52-10.85 10.68zm-189.25-209.77c-25.36-34.88-46.05-14.52-10.84 10.68-35.21 25.2-14.69 45.56 10.84 10.68 25.37 34.88 46.06 14.52 10.85-10.68 35.21-25.2 14.52-45.56-10.85-10.68zm10.69 209.77c35.21-25.2 14.68-45.56-10.85-10.68-25.37-34.88-46.06-14.52-10.85 10.68-35.21 25.2-14.69 45.56 10.85 10.68 25.53 34.88 46.22 14.52 10.85-10.68z"/><path d="M2404.98 1170.16l21.53-21.36-13.19-13.02-21.52 21.36-17.53-17.35 22.87-22.7-13.19-13.02-22.86 22.7-22.53-22.36-13.18 13.01 22.53 22.37-18.53 18.52-20.19-20.03-13.18 13.02 20.19 20.03-18.19 18.02-20.19-20.03-13.19 13.02 20.2 20.03-18.36 18.19-21.7-21.53-13.18 13.02 21.69 21.52-21.52 21.36 13.18 13.02 21.53-21.36 17.52 17.36-21.53 21.36 13.19 13.01 21.52-21.36 18.19 18.03-21.52 21.36 13.18 13.01 21.53-21.36 19.52 19.36-21.86 21.53 13.19 13.02 21.86-21.53 21.86 21.53 13.18-13.02-21.86-21.53 18.36-18.19 20.36 20.03 13.18-13.02-20.36-20.03 18.19-18.02 20.36 20.03 13.19-13.02-20.36-20.03 18.69-18.52 21.19 20.86 13.18-13.02-21.19-20.86 21.36-21.19-13.18-13.02-21.36 21.2-19.53-19.36 21.36-21.36-13.18-13.02-21.53 21.36zm-12.35 112.81l-13.18 13.02-18.36 18.19-56.07-55.57-7.85-7.85-17.52-17.35 18.36-18.19.17.16 13.18-13.01-.17-.17 18.19-18.02.17.16 13.18-13.01-.16-.17 18.69-18.52 81.6 80.6z"/><path d="M2307.86 1233.24l53.23 52.57 53.24-52.57-53.24-52.56zm80.77 0l-27.54 27.37-27.53-27.37 27.53-27.2zm-458.46-433.584c0-29.872-33.54-10.68-7.68 4.339-25.86-15.019-25.86 23.698 0 8.845-25.86 15.02 7.68 34.378 7.68 4.339 0 29.872 33.54 10.514 7.68-4.339 25.86 15.02 25.86-23.697 0-8.845 25.86-14.852-7.68-34.211-7.68-4.339zm-43.06-98.961v43.723h21.53v-22.195h43.22v22.195h21.36v-22.195h.17v-21.528h-21.53V679h-43.22v21.695zm86.11 215.609h.17v-21.528h-.17v-21.528h-21.36v21.528h-43.22v-21.528h-21.53v43.056h21.53v21.528h43.22v-21.528zm-64.58-86.275h-21.53v21.528h21.53zm64.75-64.584h-21.53v21.528h21.53zm-64.75 0h-21.53v21.528h21.53zm-21.69-21.531h-21.53v21.528h21.53zm-86.78-25.029v23.53c17.02 0 32.37-6.675 43.89-17.689v18.858h21.52v-21.361h-19.02c10.51-11.348 17.02-26.535 17.02-43.223h-23.53c-.17 22.028-18.02 39.885-39.88 39.885zm86.78 132.838h-21.53v21.527h21.53zm-21.53 43.053v-21.528h-21.53v18.858c-11.35-10.848-26.87-17.69-43.89-17.69v23.531c22.03 0 39.88 17.856 39.88 39.885h23.54c0-16.689-6.51-31.875-17.03-43.223h19.03zm129.5-43.053h-21.53v21.527h21.53zm18.19 43.053c-10.52 11.348-17.02 26.534-17.02 43.056h23.69c0-22.029 17.86-39.885 39.89-39.885v-23.531c-16.69 0-31.88 6.509-43.22 17.022v-18.19h-21.53v21.528zm-18.19-150.862h-21.53v21.528h21.53z"/><path d="M1821.69 916.305h-21.52v21.528h21.52zm0-237.135h-21.52v21.528h21.52zm237.98-.17h-21.53v21.528h21.53zm0 237.305h-21.53v21.528h21.53zm-86.28-86.106h-21.53v21.528h21.53zm-129.5-.003v-43.223h21.53v-21.528h-43.06v21.528h-21.53v43.056h21.53v21.528h43.06v-21.361zm151.03-64.752v21.528h21.53v43.223h-21.53v21.527h29.87v-.166h13.35v-21.528h21.53v-43.056h-21.53v-21.695h-21.69v.167z"/><path d="M1994.92 722.223v21.527h21.53v-18.357c11.34 10.681 26.53 17.022 43.22 17.022v-23.53c-22.03 0-39.89-17.857-39.89-39.885h-23.53c0 16.688 6.51 31.875 17.03 43.223zm-173.06-305.832L1800 437.752v21.527h21.69v-21.527l43.23.166v43.056h-21.7v21.528h21.7l21.69-21.528v-64.583zm86.28-.171v-21.361h-21.53v21.528h21.53v43.056l21.69-21.528 21.53 21.528v-43.056l-21.53-21.528zm129.67-85.942l21.69-21.694v-21.528h-21.69v-21.361h-21.53v21.528h21.53v21.361h-43.22v-43.056h21.69V244h-21.69l-21.53 21.528v64.75zm-64.75 107.64v43.056l21.53 21.528h21.69v-21.528h21.53v-21.528h21.53v-21.528l-21.53-21.527h-64.75zm64.75 0v21.528h-21.53v21.528h-21.69v-43.056zM1821.69 244h-21.52v21.528h21.52zm151.2 150.859h-21.53v21.528h21.53z"/><path d="M1972.89 351.805l-21.53 21.528 21.7 21.528h43.22l-21.7-21.528 21.7-21.528h-43.22v-21.528h-21.7v21.528zm-107.81-86.277v43.056h-43.22v-21.361h21.53v-21.528h-21.53v21.361H1800v21.528l21.86 21.694h64.75v21.528h-43.22l21.69 21.528-21.69 21.528h43.22l21.53-21.528-21.36-21.528h21.36v-21.528l21.69 21.528 21.53-21.528v-43.222l-21.53 21.528-21.69-21.528v43.222h-21.53v-64.75L1865.08 244h-21.69v21.528zM2059.34 244h-21.53v21.528h21.53zm0 236.973h-21.53V502.5h21.53zm-237.81 0H1800V502.5h21.53zm129.83 0h-43.22V502.5h43.22z"/><path d="M1951.36 244h-43.22v21.528h43.22zm-129.67 107.809h-21.52v43.055h21.52zm237.65 0h-21.53v43.055h21.53zm-215.95 107.468h-21.7v21.695h21.7zm-387.28 284.14v-21.528h-42.55v-21.528h21.36V679h-43.39v21.528H1370v42.889h21.53v-21.028h21.69v42.555h21.86v-21.527zm-42.55 172.225v-21.528h42.72v-21.528h-21.53v-21.527h-21.53v42.888h-21.69v-21.361H1370v43.056h21.53v21.361h43.39v-21.361zm1-107.808c23.19-.501 42.05-19.525 42.05-42.889h-21.36c0 11.849-9.68 21.528-21.53 21.528s-21.53-9.679-21.53-21.528h-21.36c0 23.364 18.86 42.388 42.06 42.889-23.2.501-42.06 19.525-42.06 42.889h21.36c0-11.849 9.68-21.528 21.53-21.528s21.53 9.679 21.53 21.528h21.36c0-23.364-18.86-42.388-42.05-42.889zm106.64-85.443c0-11.849 9.68-21.528 21.52-21.528v-21.361c-23.36 0-42.38 18.858-42.88 42.054-.51-23.196-19.53-42.054-42.89-42.054v21.361c11.51 0 21.02 9.178 21.52 20.693v.835c0 11.848-9.68 21.528-21.52 21.528v21.361c23.36 0 42.38-18.858 42.89-42.055.5 23.197 19.52 42.055 42.88 42.055.17 23.196 19.03 42.054 42.06 42.555-23.37.5-42.06 19.525-42.06 42.888h21.36c0-11.848 9.52-21.527 21.37-21.527h.33c11.85.166 21.36 9.679 21.36 21.527h21.36c0-23.363-18.86-42.555-42.05-42.888h1c22.86-1.002 41.05-19.859 41.05-42.889h-21.36c0 11.848-9.68 21.528-21.53 21.528s-21.53-9.68-21.53-21.528h-21.36v-21.027c-11.84 0-21.52-9.68-21.52-21.528zm-64.42 128.668v21.361c11.85 0 21.53 9.679 21.53 21.527v1.335c-.67 11.348-10.02 20.36-21.53 20.36v21.361c23.36 0 42.55-18.858 42.89-42.054.5 23.196 19.52 42.054 42.89 42.054v-21.361c-11.68 0-21.2-9.345-21.53-20.86v-1.836c.5-11.348 10.01-20.526 21.53-20.526v-21.361c-23.37 0-42.39 18.69-42.89 41.887v.835c0-23.531-19.19-42.722-42.89-42.722z"/><path d="M1489.49 808c-51.9 0 10.01 61.913 10.01 10.013 0 51.9 61.91-10.013 10.01-10.013 51.9 0-10.01-61.913-10.01-10.013.17-51.9-61.75 10.013-10.01 10.013zm95.79 101.465v6.175h-21.03v21.361h42.89v-21.528h21.53v-42.889h-21.53v21.361h-21.86zm0-230.465h-21.03v21.361h21.03v21.528h21.86v21.528h21.53v-42.889h-21.03V679z"/><path d="M1542.72 872.586v21.361h42.56v-42.888h-21.53v21.527zm42.56-150.529h-42.89v21.527h21.69v21.361h21.53v-42.888zM338.501 1296.92h-43.056v21.52h43.056zm-43.055 21.53h-21.528v43.05h21.528zm43.055-172.39h-43.056v21.52h43.056zm-64.584 64.75H252.39v43.05h21.527zM338.5 1103h-21.527v21.53H338.5zm0 237.14h-21.527v21.53H338.5zm-64.583-64.75H252.39v21.53h21.527zm0-107.81H252.39v21.53h21.527zm21.529 43.23v43.05h-21.528v21.53h43.056v-21.53h21.527v-43.05h-21.527v-21.53h-43.056v21.53zm0-107.81h-21.528v43.06h21.528zm-172.39 193.92H80v21.52h43.056zm21.528 21.53h-21.528v43.05h21.528zm-21.528-172.39H80v21.52h43.056zm43.222 64.75H144.75v43.05h21.528zM101.528 1103H80v21.53h21.528zm0 237.14H80v21.53h21.528zm64.75-64.75H144.75v21.53h21.528zm21.528-21.53h-21.528v21.53h21.528zm0-64.58h-21.528v21.53h21.528zm-21.528-21.7H144.75v21.53h21.528zM144.584 1103h-21.528v43.06h21.528zm86.278 0h-43.055v21.53h43.055zm0 237.14h-43.055v21.53h43.055zm0-86.28v-43.05h21.528v-21.53h-21.528v-43.22h-43.055v43.22h43.055v21.53h-43.055v43.05h43.055v21.53h-43.055v43.06h43.055v-43.06h21.528v-21.53zm-107.806 0v-43.05h21.694v-21.53h-43.222v21.53H80v43.05h21.528v21.53h43.222v-21.53zM1520.86 438.916h-43.05v21.528h43.05zm0 43.227h-43.05v21.527h43.05zm0-237.143h-43.05v21.528h43.05zm0 107.809h-43.05v43.055h43.05zm-43.05 43.05h-21.53v43.056h21.53zm-64.59 43.057h-21.69v-21.361H1370v42.888h21.53v21.695H1370v21.528h21.53v-21.528h21.53v21.528h43.22v-21.528h-21.53v-21.695h21.53v-21.527zM1391.53 245H1370v21.528h21.53v21.528H1370v43.055h21.53v21.695h21.69v-21.695h-21.69V309.75h64.75v-21.694h-21.53v-21.528h21.53V245h-43.22v21.528h-21.53zm0 150.864v-43.055H1370v43.055h21.53v21.528h21.53v-21.528zm129.33-107.807h-43.05v21.527h43.05zm-43.05 21.695h-21.53v43.056h21.53zm-43.06 43.057h-21.53v43.055h43.06v-43.055zm129.17 107.634v21.695h-21.53v21.528h43.22v-21.528h21.53v21.528h21.53v-21.528h-21.53v-21.695h21.53v-42.888h-21.53v21.361h-64.75v21.527zm-21.53-64.584h-21.53v43.056h21.53zm0-86.107h-21.53v43.056h21.53zm21.53 86.112h21.69v21.528h21.53v-21.361h21.53v-43.056h-21.53v42.889h-21.53v-43.055h-43.22v43.055zm21.69-86.114h21.53v21.361h-21.53v21.695h21.53v-21.695h21.53v-43.055h-21.53v-21.528h21.53V245h-21.53v21.528h-21.53V245h-43.22v21.528h21.53v21.528h-21.53v21.694zM252.389 397.859h-21.528v21.528h21.528v21.528h21.528v43.056h21.528v21.528h43.056v-21.528h-21.528v-21.528h21.528v-21.528h-43.056v-21.528h-21.528v-21.528zm0-43.22h21.528v-21.528h21.528v-21.527h43.056v-21.528h-21.528v-21.528h21.528V247h-43.056v21.528h-21.528v43.056h-21.528v21.527h-21.528v21.528z"/><path d="M295.446 397.864h21.528v21.528h21.527v-86.279h-21.527v21.528h-43.056v43.223zm-107.64 43.054v21.528h-21.528v21.528h21.528v21.528h43.056v-21.528h21.528v-21.528h-21.528v-43.055h-43.056zm-21.528-43.059H144.75v21.528h-21.694v21.528H80v21.528h21.528v21.528H80v21.528h43.223v-21.528h21.527v-43.056h21.528v-21.528h21.528v-21.528zm64.584-86.275v-21.528h21.528v-21.528h-21.528V247h-43.056v21.528h-21.528v21.528h21.528v43.055h43.056z"/><path d="M80 268.528h21.528v21.528H80v21.528h43.056v21.527h21.694v21.528h43.056v43.223h43.056v-43.223h-43.056v-21.528h-21.528v-21.527H144.75v-43.056h-21.527V247H80z"/><path d="M123.056 354.641h-21.528v-21.528H80v86.279h21.528v-21.528h43.222v-43.223zM80 688.528h21.528v21.528h21.695v21.528h21.361v21.527h21.527v21.528h21.695v21.695h21.528v-21.695h43.056v-21.528h21.527v-21.527h21.528v-21.528h21.528v-21.528h21.528V667h-43.056v21.528h-21.528v21.528H252.39v21.528h-21.528v21.527h-43.056v-21.527h-21.528v-21.528h-21.694v-21.528h-21.528V667H80z"/><path d="M252.39 817.862h-21.528v-21.528h-21.528v21.528h-43.223v21.528h-21.527v21.528h-21.528v21.527h-21.528v21.528H80v21.528h43.056v-21.528h21.528v-21.528h21.527v-21.527h21.695V839.39h43.056v21.528h21.528v21.527h21.527v21.528h21.528v21.528h43.056v-21.528h-21.528v-21.528h-21.528v-21.527h-21.528V839.39H252.39zm21.527-43.223H252.39v43.055h21.527zm43.389 0h-21.528v43.055h21.528zm-21.86 43.22h-21.528v21.528h21.528zm43.222 43.057h-21.527v21.528h21.527zm-43.222-107.803h-21.528v21.528h21.528zm43.054-43.056h-21.527v21.527H338.5zM273.917 667H252.39v21.528h21.527z"/><path d="M273.917 903.973H252.39V925.5h21.527zM166.112 774.639h-21.528v43.055h21.528zm-43.057 0h-21.528v43.055h21.528zm21.529 43.22h-21.528v21.528h21.528zm-43.056 43.057H80v21.528h21.528zm0-150.859H80v21.527h21.528zm43.056 43.056h-21.528v21.528h21.528zM166.112 667h-21.528v21.528h21.528zm0 236.973h-21.528V925.5h21.528zm64.75-193.916h-43.055v21.527h43.055zm0-43.057h-43.055v21.528h43.055zm0 193.916h-43.055v21.528h43.055zm0 43.057h-43.055V925.5h43.055zM2660 1124.53h21.53v21.69h21.69v21.53h21.53v21.53h21.53v21.53h21.53v21.52h21.52v-21.52h43.06v-21.53h21.53v-21.53h21.69v-21.53h21.53v-21.69h21.53V1103h-43.06v21.53h-21.69v21.69h-21.53v21.53h-21.53v21.53h-43.05v-21.53h-21.53v-21.53h-21.53v-21.69h-21.53V1103H2660zm172.39 129.33h-21.53v-21.53h-21.53v21.53h-43.05v21.53h-21.53v21.53h-21.53v21.69h-21.69v21.53H2660v21.53h43.22v-21.53h21.53v-21.53h21.53v-21.69h21.53v-21.53h43.05v21.53h21.53v21.69h21.53v21.53h21.69v21.53h43.06v-21.53h-21.53v-21.53h-21.53v-21.69h-21.69v-21.53h-21.53z"/><path d="M2746.28 1210.81h-21.53v43.05h21.53zm-43.22 0h-21.53v43.05h21.53zm150.86 0h-21.53v43.05h21.53zm43.39 0h-21.53v43.05h21.53zm-21.86 43.05h-21.53v21.53h21.53zm43.22 43.06h-21.53v21.52h21.53zm-43.22-107.64h-21.53v21.53h21.53zm43.22-43.06h-21.53v21.53h21.53zm-193.92 107.64h-21.53v21.53h21.53zm-43.22 43.06H2660v21.52h21.53zm0-150.7H2660v21.53h21.53zm43.22 43.06h-21.53v21.53h21.53zm21.53-86.28h-21.53v21.53h21.53zm107.64 0h-21.53v21.53h21.53zm-107.64 237.14h-21.53v21.53h21.53zm107.64 0h-21.53v21.53h21.53zm-43.06-193.92h-43.05v21.53h43.05zm0-43.22h-43.05v21.53h43.05zm0 193.92h-43.05v21.52h43.05zm0 43.22h-43.05v21.53h43.05z"/></g></svg>