<svg fill="none" height="1987" width="3000" xmlns="http://www.w3.org/2000/svg"><path d="M0 0h3000v1987H0z" fill="#000"/><g fill="#d7e2d3"><path d="M1361.52 768c-.23 7.342-1.6 15.632-3.89 25.342-2.28 9.474-4.34 16.105-6.63 19.658h8.23c1.15-2.842 2.52-7.579 3.89-14.447 1.37-6.869 2.29-13.5 2.29-19.421h.46c.45 2.842 1.6 7.342 3.43 14.21 1.83 6.632 3.2 11.605 3.88 14.447 1.15.474 4.12 0 5.95-.947 5.03-9.474 9.61-18.71 13.49-27.71h.46c-.69 6.394-1.6 17.763-2.51 33.868h8.91c0-7.579.92-22.5 2.52-44.763h-9.38c-3.43 7.579-7.77 16.579-13.49 27.237h-.46c-2.97-11.606-5.49-20.606-7.54-27.237zm101.73 21.738c-.25.237-2.19 3.565-6.33 10.221-4.13 6.656-7.78 12.598-11.18 18.303-3.41 5.467-5.35 9.271-6.32 10.935l8.99 3.803c1.7-3.566 5.11-9.746 10.46-18.541s9.73-15.689 13.13-20.918zm-45.23 18.778c.73-1.664 1.7-3.327 2.67-4.754 2.68-2.139 5.35-3.803 8.27-4.992 2.92-1.188 5.35-1.426 7.05-.713 1.95.713 2.19 2.853.73 6.181-1.94 4.516-5.35 7.844-10.21 9.983-2.43.713-4.62.713-7.05-.237-2.19-.951-2.68-2.853-1.46-5.468zm10.7-33.516c-.98 1.664-4.38 6.418-9.97 14.5-5.6 8.082-9 13.787-10.46 16.639-2.67 5.943-1.22 10.222 4.62 12.599 6.32 2.614 12.89 2.614 19.7-.238s11.67-7.607 14.59-13.787c2.43-5.229.97-9.27-3.65-11.41-4.13-1.901-11.92-.951-18.72 3.566l-.25-.238c1.95-2.377 4.62-5.467 7.3-9.27 2.92-3.804 4.86-6.656 5.83-8.558zm97.28 73.503c-4.54-7.833-9.77-14.744-15.44-20.503-8.18 5.759-15.67 9.675-22.49 11.749-6.81 2.073-10.67 2.303-12.03.46-.69-.691-.91-1.612-.69-2.303-2.49 0-4.54.691-5.9 1.843-1.82 1.382-2.04 3.916 0 6.68 2.72 3.456 7.72 4.377 15.22 2.304 7.49-1.843 16.12-5.759 25.43-11.518 2.27 1.843 4.09 4.377 5.45 7.141-2.04 1.613-7.04 4.838-14.76 9.445-7.49 4.607-13.17 8.063-16.81 10.136l6.14 8.063c1.36-.921 7.26-4.838 17.71-11.518 9.99-6.451 16.13-10.597 18.17-11.979zm-11.2 51.337c8.96-2.544 16.5-2.544 22.15 0 1.89 1.388 3.07 3.007 3.77 5.089 1.18 4.164-1.41 6.94-9.9 9.022a50.485 50.485 0 01-12.72 1.619c-4.01-.231-6.83-.694-8.95-1.851-2.13-1.156-3.3-2.776-3.78-4.626-1.17-4.164 1.89-7.171 9.43-9.253zm32.52 5.089c-2.83-10.178-12.72-15.498-24.74-15.267-.95-2.544-1.65-5.089-1.89-7.402a515.976 515.976 0 0117.68-2.313l-2.83-9.947c-13.67 2.776-28.52 4.858-44.54 6.477l2.83 9.715c5.18-.925 12.02-2.082 20.26-3.007.95 1.851 1.65 4.395 2.12 7.171-1.88.463-3.29.694-4 .925-11.55 3.007-16.03 9.947-13.9 18.275 1.64 6.245 5.89 10.872 12.48 13.416 6.6 2.545 14.61 2.776 23.81.231 10.36-3.238 15.31-9.252 12.72-18.274zm-14.65 42.613c4.22 2.467 7.97 6.953 7.5 10.093-.47 4.037-4.46 5.607-11.72 4.935-7.97-.898-14.54-4.486-17.35-7.626-1.41-2.019-1.87-3.813-1.64-5.832.47-3.813 4.45-5.607 11.95-4.71 4.69.673 8.44 1.57 11.26 3.14zm4.92-2.916c12.66 4.038 19.22 10.766 19.69 19.962.7 9.196 2.81 13.906 6.56 14.355 2.58.224 4.22-.224 5.16-1.122-1.17-1.345-1.88-3.813-2.11-7.85-.23-3.813-.7-6.729-1.17-8.523-1.41-7.177-7.5-13.682-15.47-18.167-7.97-4.262-17.35-7.178-26.73-8.075-13.12-1.346-19.45 4.037-20.39 12.112-.7 6.28 1.41 11.887 6.8 16.822 5.39 4.934 11.95 7.626 19.69 8.523 9.38 1.121 15.7-3.14 16.64-10.093.71-5.608-2.58-12.336-8.67-17.271zm-32.91 61.734c-4.53-4.32-9.07-7.626-13.83-10.167l-3.85 9.147c3.4 1.78 9.29 5.59 17.68 11.43 8.39 5.85 14.73 10.67 19.04 14.23l4.08-9.91c-5.67-3.81-10.2-7.37-13.6-10.16-3.4-2.8-6.57-6.86-9.75-12.45-2.94-5.336-4.08-9.146-3.17-11.433.68-1.779 2.72-2.033 5.44-.508 2.27 1.27 6.8 4.573 14.05 9.908 7.26 5.593 11.56 8.643 13.15 9.653l4.08-9.907c-1.59-.762-6.12-4.065-13.83-9.908-7.7-5.59-12.69-9.147-15.18-10.671-5.9-3.049-9.98-1.778-12.24 3.811-1.36 3.303-1.36 7.368.45 12.195 1.59 4.827 4.08 9.65 7.71 14.48zm3.32 45.44c-4.5-5.42-9-12.48-13.72-20.96-4.5-8.48-7.2-14.84-7.87-18.84l-5.85 5.89c.9 2.82 3.15 7.3 6.75 13.19 3.37 5.88 7.2 11.3 11.02 15.77l-.45.47c-2.02-1.64-6.07-4.23-11.7-7.77-5.62-3.53-9.67-6.12-12.14-7.77-1.12.47-3.15 2.83-3.6 4.95 2.48 10.36 5.4 20.25 8.32 29.67l-.22.23c-3.83-5.18-10.57-14.12-20.24-26.37l-6.3 6.36c4.95 5.65 13.94 16.95 27.21 34.38l6.75-6.59c-2.47-7.78-5.17-17.43-8.1-29.21l.45-.47c9.67 6.36 17.32 11.07 22.94 14.37zm-114 12.24c2.75 21.3 4.25 36.21 4.75 44.96l11.25-2.37c-.75-3.55-1.25-9.46-2.25-17.74a64.284 64.284 0 0116.25-3.55c.75 7.81 1.5 13.72 1.75 17.98l11.25-2.36c-2.25-13.96-4-28.87-4.75-44.96l-11 2.37c.75 5.2 1.5 12.06 2.25 20.58a64.284 64.284 0 01-16.25 3.55c-.25-2.84-1-9.46-2-20.58zm-41.16 36.97c.92-4.07 2.08-7.9 3.46-11.74 1.62-4.07 4.15-8.38 8.07-13.18 3.69-4.55 6.69-6.7 9-6.46 2.31.23 3.23 3.35 2.54 8.86-.69 4.79-2.08 9.34-4.39 13.42-2.3 4.31-4.84 7.19-7.61 9.1-2.3.96-4.61 1.44-6.46 1.2-2.07-.24-3.46-.72-4.61-1.2zm-.46-40.01c-1.15 6.47-2.77 14.38-5.07 23.96-2.31 9.58-4.16 16.29-5.31 20.13 3.23 1.91 6.92 3.11 10.38 3.59 8.53 1.2 15.92-.96 22.14-6.47 6.23-5.51 9.92-13.42 11.31-24.2.92-7.67-1.85-13.66-7.62-14.37-3.46-.48-7.15.95-11.07 4.07-3.92 3.11-7.15 7.43-10.15 12.7h-.46c.92-2.4 1.85-5.51 2.77-9.59.92-4.07 1.38-6.71 1.61-8.14zm-57.29-9.24c1.17-1.32 3.05-3.3 5.39-6.17 2.35-2.87 3.76-4.85 4.69-5.96l-8.2-4.63c-1.88 2.87-5.87 7.94-11.73 15.66-6.09 7.72-11.25 13.46-15.24 17.65l8.21 4.63 4.69-5.07c2.11-2.43 3.98-4.41 5.63-5.96 2.81-2.87 7.03-5.73 12.42-8.82 5.4-3.09 8.91-4.19 10.32-3.31.94.66.71 2.21-.94 4.63-2.81 4.41-10.08 12.58-21.57 24.49l7.97 4.41c1.18-1.32 3.05-3.09 5.4-5.74 2.34-2.64 4.22-4.41 5.62-5.73 2.58-2.65 6.57-5.3 12.2-8.16 5.39-2.87 8.91-3.97 10.55-3.09 1.17.66.94 2.42-.7 5.07-1.18 1.99-4.93 6.18-11.02 13.02-6.1 6.61-9.62 10.36-10.32 11.47l8.67 4.85c.94-1.32 4.46-5.29 11.03-12.35 6.33-7.06 10.55-11.91 12.19-14.56 2.81-4.19 1.88-8.6-1.64-10.81-4.93-2.87-14.07-.44-23.45 5.29l-.47-.22c3.05-3.09 4.92-5.29 5.63-6.39 2.58-4.2 2.34-7.5-1.18-9.49-2.34-1.32-5.86-1.54-10.31-.44-4.46 1.1-8.91 3.09-13.14 5.96zm-40.97-26.12c-2.09-.49-4.18-1.46-6.28-2.43-2.32-1.22-3.49-2.2-4.19-3.17-1.16-1.95-.46-3.41 1.4-4.63 1.16-.73 3.26-.73 6.05-.24 3.02.48 5.81.97 8.84 1.95 3.02.73 6.05 1.21 9.54 1.46 3.25.24 6.04-.25 7.67-1.46 4.89-2.93 6.28-7.8 3.26-13.4-1.63-2.68-3.96-5.117-7.45-7.066-3.48-2.192-6.51-3.41-9.77-3.654-1.62 1.705-2.09 3.41-1.86 5.359 2.1.244 3.96.974 6.28 2.191 2.1 1.22 3.49 2.44 4.19 3.66 1.16 1.94.7 3.65-1.63 5.11-1.39.73-3.49.97-6.51.73-3.02-.49-6.05-.97-9.07-1.95-3.03-.97-6.05-1.46-9.54-1.46-3.49-.24-6.05.24-7.91 1.46-4.19 2.68-5.35 7.31-2.79 11.94 2.79 5.11 9.77 9.25 16.98 10.96 2.33-1.71 3.02-3.41 2.79-5.36zm-2.77-44.055c-9.04 2.559-16.93 1.535-21.57-1.024-1.86-1.536-3.02-3.584-3.48-5.888-1.16-4.608 1.62-7.68 9.74-9.984 9.05-2.56 17.4-1.792 21.11.256 2.09 1.536 3.25 3.328 3.71 5.632 1.16 5.12-2.08 8.704-9.51 11.008zm-31.78-7.168c1.86 7.424 6.03 12.799 12.99 15.871s14.38 3.584 22.5 1.28c10.67-3.072 14.62-11.263 12.3-20.735-1.63-7.168-5.8-12.288-12.06-15.36-6.27-3.072-14.15-3.328-23.43-.512-9.75 2.56-14.62 9.216-12.3 19.456zm34.56-40.213c-3.16-.673-6.77-1.569-10.83-2.69-4.06-1.345-8.35-3.587-13.31-7.398-4.97-3.587-7.22-6.502-7-8.519.23-2.242 2.94-3.139 8.13-2.915 4.51.224 9.02 1.57 13.31 3.811 4.28 2.242 7.44 4.484 9.24 6.726 2.26 4.259 1.58 8.967.46 10.985zm-38.13 2.242c17.6 2.914 37.45 7.174 59.78 12.554.45-.897.91-2.466 1.13-4.484.23-2.242 0-3.587-.45-4.483-5.87-1.345-11.05-2.466-15.57-3.812 1.36-8.518-1.12-16.141-6.99-22.418-5.87-6.501-14.21-10.088-24.59-10.761-7.22-.448-12.41 2.691-12.86 8.295-.22 3.363 1.35 6.95 4.51 10.537s7.45 6.501 12.64 9.191v.449c-2.48-.897-5.42-1.57-9.25-2.466-3.84-.897-6.55-1.345-7.67-1.57zm35.5-47.772c-9.09-3.675-14.99-9.189-17.44-14.014-.74-2.067-.49-4.365.49-6.432 1.72-3.906 5.65-4.365 14.01-1.149 9.09 3.676 15.48 9.19 17.44 13.095.74 2.297.74 4.365-.24 6.203-2.21 4.595-6.88 5.284-14.26 2.297zm-22.6-24.352c-2.95 6.433-2.46 12.636 1.47 19.298 3.93 6.433 9.83 11.257 18.19 14.474 10.81 4.365 18.92.918 22.6-7.122 2.71-6.203 2.46-12.176-.98-18.149-3.44-5.974-9.83-11.028-19.17-14.704-10.07-4.135-18.18-2.297-22.11 6.203zm43.53-15.043c-2.95-2.583-5.45-5.637-7.5-9.16-2.04-3.523-3.41-6.576-3.63-9.395.22-2.114.91-3.993 2.04-5.167 2.73-3.289 6.59-2.584 11.81 2.114 7.5 6.811 11.59 14.797 11.82 20.434-.23 1.644-.91 3.053-2.05 4.228-2.5 3.053-6.81 2.114-12.49-3.054zm-6.13-30.769c-2.28-.704-5.23.47-7.05 2.819-3.63 4.228-4.99 9.865-3.86 16.676 1.14 6.812 5 13.153 11.81 19.495 7.73 7.046 15.91 7.281 21.36.94 4.54-5.168 5.45-11.744 3.41-19.495-2.28-7.751-7.5-15.502-15.68-23.018-15.22-13.858-28.17-12.449-38.16-.47-.23.705-.23 1.879.68 3.523.68 1.409 1.59 2.349 2.5 2.819 7.27-8.691 16.13-9.63 25.44-3.054zM1323 798c0 4.364-3.64 8-8 8s-8-3.636-8-8 3.64-8 8-8c4.61 0 8 3.394 8 8zm1380.75-315.368c.46-4.154.69-8.308.23-12.218l-7.83.733c.23 2.443.23 8.308 0 17.594-.23 9.041-.46 16.127-1.15 21.259l7.83-.733.46-7.086c.23-3.91.46-6.843.69-9.042.46-3.421 1.62-7.331 3.92-11.485 2.3-4.398 4.38-6.597 5.99-6.842 1.15 0 1.84 1.222 2.07 3.91.46 4.398-.23 14.173-1.84 29.567l7.37-.733.69-8.797c.23-3.665.46-6.353.69-8.063.46-3.177 1.62-6.842 3.92-10.997 2.3-4.398 4.15-6.597 5.76-6.842 1.38 0 2.07 1.222 2.3 3.91.23 2.199 0 7.331-.69 15.639-.69 8.064-.92 12.707-.92 13.929l8.29-.733c0-1.467.23-6.354.69-15.151.69-8.552.92-14.417.69-17.349-.46-4.643-2.99-7.331-6.68-7.087-5.06.489-9.44 5.376-13.13 14.418h-.46c.23-3.666.23-5.865.23-6.598-.46-4.399-2.53-6.354-5.99-6.109-4.6.489-9.67 5.864-13.13 14.661zm57.52 7.532c1.43-3.678 4.53-7.846 7.39-9.808 1.66-.735 3.33-.735 5.24-.245 2.62.736 3.81 3.433 3.09 6.13-1.42 5.884-10 5.394-15.72 3.923zm-2.14 23.047c5.71 1.471 11.67.736 15.01-.981.23-1.225.23-3.677-.72-4.413-1.19.491-2.62.736-4.76.981-2.15 0-3.82-.245-5.48-.49-4.29-1.226-5.72-4.659-4.29-10.298.24-1.226.71-2.207 1.19-3.188 14.53 2.452 22.63 0 24.54-7.355 1.43-5.394-1.19-10.053-7.39-11.769-5.95-1.716-11.19-.245-16.2 4.168-5 4.168-8.34 10.053-10.24 17.653-2.39 7.846.71 13.486 8.34 15.692zM2802.62 486c-3.44 5.072-7.8 10.628-13.54 16.425s-10.1 9.42-13.08 10.87l5.97 3.864c2.06-1.449 5.05-4.347 8.95-8.695s7.34-8.696 10.1-12.802l.46.241c-.92 2.174-2.07 6.039-3.45 11.836-1.6 5.797-2.75 9.662-3.44 12.319.46.725 2.98 1.932 4.59 1.932 7.57-4.347 14.69-8.937 21.34-13.768l.23.242c-3.21 4.348-8.72 12.077-16.29 23.43l6.43 4.106c3.21-5.556 10.32-15.942 21.11-31.159l-6.66-4.348c-5.5 3.864-12.62 8.212-21.11 13.285l-.46-.242c2.75-9.662 4.82-17.391 6.43-22.947zm50.71 48.916c-2.74 1.911-5.48 3.583-8.44 5.016-3.2 1.673-7.08 2.867-11.87 3.345-4.79.717-7.76.239-8.9-1.194-1.14-1.434-.23-3.823 3.19-6.929 2.97-2.628 6.17-4.539 9.82-5.733 3.65-1.195 6.84-1.672 9.35-1.195 2.06.717 3.43 1.673 4.57 3.106 1.37 1.672 1.82 2.628 2.28 3.584zM2832.11 560c4.1-3.345 9.35-7.167 15.97-11.706s11.18-7.645 13.92-9.317c-.91-3.106-2.51-5.734-4.56-8.123-4.57-5.733-10.27-8.6-16.89-8.839s-13.24 2.389-19.85 8.361c-4.8 4.062-6.17 9.556-2.97 13.379 1.83 2.389 4.79 3.583 8.9 3.822s8.44-.478 13.01-1.911l.22.239c-1.82.955-4.1 2.389-6.84 4.3s-4.57 3.345-5.48 4.061zm34.67 5.713c4.15-.487 8.05-1.461 11.71-2.922l-2.92-7.791c-2.44.974-8.05 2.435-16.84 4.626-8.78 2.191-15.85 3.652-20.73 4.383l2.93 7.791 7.07-1.461c3.66-.73 6.83-1.217 9.03-1.461 3.41-.487 7.31-.243 12.19.974 4.88 1.218 7.56 2.678 8.05 4.383.49 1.217-.49 2.191-3.17 3.165-4.15 1.461-13.66 3.409-29.03 5.843l2.69 7.305 8.78-1.461c3.66-.73 6.34-1.217 7.8-1.217 3.18-.244 7.08 0 11.71 1.217 4.88 1.217 7.56 2.678 8.05 4.139.49 1.218-.49 2.435-3.17 3.409-1.95.73-7.07 1.948-15.12 3.408-8.05 1.461-12.69 2.435-13.66 2.679l2.93 8.278c1.21-.487 6.34-1.461 14.63-3.165 8.54-1.461 14.15-2.922 16.83-3.896 4.15-1.461 6.34-5.113 5.12-8.522-1.95-5.113-7.56-8.278-17.56-9.739l-.24-.487c3.66-.73 5.85-1.217 6.34-1.461 4.15-1.46 5.37-4.382 4.15-7.791-1.71-4.626-8.3-8.522-17.81-9.739zm1.39 74.822c-5.47-1.352-10.69-2.028-15.65-2.028v7.437c3.65 0 10.18.45 19.57 1.352 9.39.901 16.43 2.028 21.65 2.704v-8.113c-6.26-.676-11.48-1.352-15.65-2.028-3.92-.676-8.35-2.253-12.79-4.958-4.69-2.478-6.78-4.732-6.78-6.535 0-1.577 1.57-2.253 4.7-2.253 2.35 0 7.56.676 15.91 1.803 8.35 1.126 13.04 1.802 14.87 1.802v-8.112c-1.57 0-7.04-.676-15.65-1.803-8.87-1.127-14.35-1.803-16.96-1.803-6.26 0-9.39 2.254-9.39 6.761 0 2.704 1.57 5.183 4.7 8.112 3.13 2.704 7.3 5.183 11.73 6.986v.676zm-.05 37.16c-1.76-.938-5.03-2.345-9.56-4.455-4.27-1.877-7.54-3.049-9.3-3.518l-2.26 7.504c2.77.704 8.3 2.814 16.59 6.097 8.3 3.283 15.09 6.332 20.11 8.677l2.52-8.208c-3.52-1.407-6.54-2.579-8.8-3.752-3.02-1.407-5.28-3.752-7.54-6.331-2.27-2.815-3.02-4.925-2.52-6.567.51-1.641 2.27-2.11 5.03-1.172 2.26.469 5.28 1.876 9.05 3.752s6.54 3.049 8.05 3.518l2.51-8.208c-1.51-.469-4.53-1.642-8.8-3.518-4.27-2.11-7.79-3.283-10.05-3.986-5.79-1.407-9.31 0-10.56 4.221-1.51 5.159.25 10.553 6.03 15.712zm-11.44 22.276c3.18 2.32 6.35 6.263 7.33 9.278.25 1.856-.24 3.48-1.22 5.103-1.47 2.32-4.16 2.784-6.85 1.392-5.13-3.015-2.2-10.67.74-15.773zm-21.27-7.886c-2.93 4.871-3.91 10.67-3.18 14.381 1.23.696 3.43.928 4.4.464-.24-1.16 0-2.784.49-4.639.49-1.856 1.22-3.711 1.96-5.103 2.44-3.711 6.11-4.175 11-1.392.98.696 1.95 1.16 2.69 1.856-6.36 12.989-6.36 21.339.24 25.051 4.65 2.551 10.02 1.391 13.45-3.944 3.17-5.103 3.42-10.437.48-16.236-2.68-5.799-7.33-10.438-14.17-14.149-6.85-4.176-13.45-2.784-17.36 3.711zm-2.02 62.254c1.73 1.484 4.68.494 8.12-3.217 10.57-10.886 4.18-25.236-4.92-34.142-6.64-6.68-13.77-6.433-19.18-.495-2.95 2.969-4.67 6.927-5.41 11.628 1.97 1.732 3.44 2.227 4.67 1.979.74-2.969 1.72-5.195 3.45-6.927 3.19-3.464 7.13-2.969 11.8 1.484 5.9 5.691 9.1 12.371 9.1 16.577a7.722 7.722 0 01-2.22 4.453c-1.72 1.732-3.68 2.474-6.39 2.474-.98 1.732-.49 4.454.98 6.186zm-26.09 22.187c-.23-2.488.24-6.719.95-12.193.7-5.474 1.41-8.46 2.12-8.957l.94-.747c1.42 3.235 3.31 8.211 6.14 15.179l7.55-4.728c-5.19-10.949-10.38-22.892-15.34-36.08l-7.31 4.728c4.25 9.455 6.84 15.178 7.78 17.418l-.94.746c-.94.498-2.36-.498-4.95-2.488-1.42-1.244-4.25-3.235-7.08-4.977-4.72-2.737-7.32-3.483-9.68-1.99-1.65.995-3.06 2.488-4.48 4.727 3.78 1.244 10.62 5.226 20.29 11.695L2799.28 782zm-45.28-11.119c0-5.104-.69-9.744-1.62-13.92l-7.4 2.088c.93 3.016 1.85 8.816 3.24 17.168 1.15 8.353 1.85 14.617 2.31 19.257l8.1-2.088c-.93-5.568-1.39-10.208-1.62-13.92-.23-3.713.23-7.657 1.85-12.297 1.39-4.64 3-7.192 4.85-7.656 1.62-.464 2.78.696 3.47 3.248.47 2.088 1.16 6.728 2.09 14.152.69 7.425 1.38 11.833 1.61 13.225l8.1-2.088c-.46-1.392-.93-6.032-1.85-13.921-.93-7.888-1.62-12.992-2.31-15.08-1.39-5.336-4.4-7.424-9.02-6.264-2.55.696-4.86 2.784-6.94 6.264-1.85 3.48-3.47 7.424-4.17 12.064zm-22.93 9.928c-.47 3.671-2.57 8.259-4.68 10.553-1.41.918-3.05 1.606-4.93 1.377-2.57 0-4.45-2.065-4.45-4.818 0-5.506 8.2-6.882 14.06-7.112zM2735.81 754c-5.62 0-11.25 2.065-14.06 4.588 0 1.147.7 3.212 1.64 3.9.94-.688 2.34-1.376 4.45-1.835 1.88-.459 3.75-.688 5.39-.688 4.46 0 6.57 2.753 6.57 8.259 0 1.147 0 2.294-.24 3.211-14.29 1.147-21.56 5.277-21.56 12.618 0 5.047 3.52 8.718 9.84 8.947 5.86 0 10.78-2.524 14.53-7.571s5.63-11.241 5.63-18.353c-.23-8.488-4.45-13.076-12.19-13.076zm-29.95.728c.7-2.232-1.17-4.464-5.82-6.448-6.28-2.481-12.57-1.241-17.22 2.728-4.65 3.968-8.14 9.425-10.47 15.626-3.26 8.929-.47 14.881 6.75 17.858 3.95 1.488 7.68 1.984 11.63.992.47-2.728.47-4.465 0-5.209-2.79.496-5.12.496-6.98-.248-4.19-1.736-5.35-5.208-3.26-10.665.47-1.488.93-2.48 1.17-3.224l10 4.712c1.4-1.24 2.1-2.976 2.33-4.96l-10.47-3.969c2.33-4.464 5.12-7.441 7.91-8.681 1.63-.496 3.26-.496 4.89.248 2.32.992 4.19 2.48 4.88 4.465 2.1 0 3.96-1.24 4.66-3.225zm-69.92 4.032c2.16-1.224 6.01-2.448 11.31-3.916 5.29-1.469 8.17-1.959 8.9-1.469l.96.734c-2.17 2.693-6.02 6.61-11.07 11.75l7.46 5.141c7.46-9.302 16.12-18.849 25.5-28.885l-7.22-5.141c-6.73 7.833-10.58 12.729-12.27 14.443l-.96-.735c-.96-.734-.48-2.448.24-5.63.48-1.958 1.21-5.385 1.45-8.812.72-5.631.24-8.323-2.17-9.792-1.68-1.224-3.61-1.958-6.01-2.448.48 4.161-.24 12.24-1.93 23.99l-22.13 5.385zm-31.01-35.614c-1.79 1.473-1.02 4.664 2.56 8.346 10.23 11.291 25.83 6.136 35.56-2.209 7.41-6.137 7.67-13.01 2.04-19.146-2.81-3.191-6.65-5.155-11.51-6.137-2.05 1.718-2.56 3.191-2.3 4.418 2.81.737 5.37 2.21 6.91 3.928 3.32 3.436 2.55 7.364-2.56 11.536-6.4 5.401-13.56 8.101-17.91 7.855-1.79-.491-3.33-1.227-4.35-2.454-1.53-1.719-2.3-3.928-2.05-6.628-1.53-1.227-4.6-.982-6.39.491zm-19.5-28.395c2.72 0 6.66.711 12.08 1.659 5.42 1.185 8.37 2.133 8.62 2.844l.49.948c-3.2 1.185-8.37 2.844-15.52 4.977l4.19 7.821c11.09-4.503 23.41-8.769 36.71-13.035l-4.19-7.82c-9.61 3.791-15.52 5.924-17.74 6.635l-.49-.948c-.49-.948.74-2.37 2.96-4.74 1.23-1.421 3.69-4.028 5.42-6.872 3.2-4.503 3.94-7.11 2.71-9.48-.99-1.659-2.22-3.318-4.19-4.74-1.48 3.792-5.91 10.428-13.06 19.671L2581 686.22z"/><path d="M2581.63 680c3.66-2.968 9.38-6.621 16.7-10.96 7.31-4.338 13.03-7.078 16.69-8.219 5.72 2.055 9.38 5.48 10.98 9.818 1.37.456 2.97.228 4.34-.457 1.38-.913 1.83-2.055 1.6-3.425-1.14-5.251-9.6-10.959-23.55-13.928-4.57-1.141-10.06-1.826-16.47-2.283-6.4-.456-12.12-.685-16.92-.456l1.6 7.078c4.12-.685 9.38-.914 15.09-.914 5.95 0 10.52.229 13.73.914v.228c-2.98.913-7.09 2.968-12.58 5.708-5.49 2.968-9.84 5.48-13.27 7.763zm23.22-47.124c-2.69-.475-5.61-1.188-8.97-2.139-3.37-.951-6.96-3.091-11.22-5.943-4.26-2.853-6.05-5.468-6.05-7.37 0-1.901 2.24-2.852 6.73-2.852 3.81.237 7.4.951 11.21 2.852 3.59 1.664 6.28 3.566 7.85 5.706 1.79 3.803 1.35 8.082.45 9.746zm-31.4 3.091a739.218 739.218 0 0149.79 9.033c.45-.951.67-2.139.67-4.041.23-1.902 0-3.328-.45-3.804-4.93-.951-9.19-1.902-13-2.852.89-7.608-1.35-14.264-6.51-19.494-5.16-5.467-12.11-8.32-20.63-8.795-6.06-.238-10.1 2.615-10.32 7.845 0 3.09 1.35 5.943 4.04 9.033s6.28 5.705 10.76 7.607v.238c-2.02-.713-4.48-1.189-7.85-1.902-3.36-.713-5.38-.951-6.28-1.189zm12.01-64.854c-2.1-.645-4.19 1.504-5.59 5.802-4.19 12.68 7.45 21.277 18.86 24.286 8.61 2.364 14.2-.645 16.52-7.308 1.17-3.653.94-7.307-.46-11.175-2.33-.645-3.73-.43-4.66.43.7 2.579.7 4.728.24 6.662-1.4 3.869-4.66 5.158-10.48 3.654-7.21-1.935-13.03-5.803-14.9-9.027-.46-1.504-.46-3.009-.23-4.298.7-1.934 2.1-3.439 4.42-4.513 0-1.934-1.63-4.084-3.72-4.513zm35.21-18.446c3.59 3.617 7.42 6.556 11.26 8.817l4.07-6.33c-2.88-1.582-7.67-4.973-14.61-9.947-6.71-4.973-11.98-9.042-15.58-12.207l-4.55 7.008c4.55 3.391 8.39 6.33 11.26 8.816 2.88 2.261 5.27 5.652 7.43 9.947 2.15 4.295 2.87 7.008 1.67 8.59-.95 1.357-2.63 1.357-4.79 0-1.91-1.13-5.75-3.843-11.5-8.59s-9.34-7.46-10.78-8.138l-4.55 7.008c1.2.678 5.03 3.617 11.26 8.59s10.54 7.912 12.46 9.042c4.79 2.713 8.62 2.261 11.02-1.582 1.44-2.261 1.68-5.199.72-9.042s-2.88-7.686-5.51-11.303zm24.82-29.813c2.46 4.675 5.16 8.859 8.36 12.55l6.15-5.414c-2.21-2.461-6.15-7.382-11.32-14.765-5.16-7.136-8.85-13.042-11.31-17.225l-6.64 5.906c3.44 4.921 6.39 8.859 8.36 12.304 1.97 3.199 3.44 7.382 4.18 12.55.74 5.167.49 8.12-.98 9.597-1.23 1.23-2.95.738-4.92-1.477-1.48-1.722-4.43-5.659-8.61-12.304-4.18-6.644-6.89-10.581-8.12-11.811l-6.64 5.906c.98 1.23 3.94 5.167 8.61 12.303 4.67 6.891 7.87 11.32 9.35 13.289 3.93 4.429 7.87 4.921 11.56 1.476 2.21-1.968 3.2-4.921 3.44-9.105.25-4.183-.49-8.859-1.97-13.288zM2676 494.5c0 4.091-3.64 7.5-8 7.5s-8-3.409-8-7.5 3.64-7.5 8-7.5c4.61 0 8 3.409 8 7.5zM769.887 1345.23c4.165 7.08 1.973 16.45-4.823 20.57-6.797 4.34-15.785 2.05-19.951-5.03-4.165-7.08-1.973-16.45 4.823-20.57 7.016-4.34 15.785-2.05 19.951 5.03zm27.134-29.19c1.204-2.52 2.649-5.05 4.576-7.58 1.927-2.75 3.612-4.13 5.057-4.59 2.65-.92 4.576 0 5.781 2.76.722 1.6.24 4.13-.964 7.81-1.204 3.67-2.649 7.35-4.576 10.79-1.686 3.68-3.131 7.58-4.335 11.72-.963 4.13-.963 7.58 0 10.1 2.649 6.89 8.67 9.65 16.377 6.89 3.854-1.37 7.707-4.13 11.079-8.04 3.612-3.9 5.78-7.81 6.984-11.71-1.927-2.3-3.853-3.22-6.503-3.22-.963 2.53-2.408 5.06-4.335 7.58-2.167 2.53-3.853 4.14-5.539 4.83-2.89 1.15-5.058 0-6.262-2.99-.722-1.84-.481-4.59.723-8.27 1.204-3.9 2.649-7.58 4.576-11.02 1.926-3.68 3.131-7.58 4.335-11.72.963-4.36.963-7.81 0-10.56-2.409-5.75-8.189-8.27-14.691-5.98-7.225 2.53-14.451 10.57-18.304 19.53 1.445 2.52 3.613 3.67 6.021 3.67zm58.308 4.47c-1.664-12.04.951-21.99 4.993-28.01 2.14-2.09 4.755-3.48 7.846-3.94 5.706-.69 9.035 3.01 10.699 14.13 1.664 12.04-.476 22.69-3.804 27.09-2.378 2.31-4.755 3.7-7.37 3.93-6.895 1.16-10.937-3.24-12.364-13.2zm14.028-40.28c-9.51 1.15-16.643 6.02-21.636 14.81-4.992 8.34-6.657 18.07-5.23 28.95 2.14 14.35 11.412 20.37 23.3 18.75 9.034-1.15 15.929-5.79 20.922-13.43 4.755-7.87 6.419-17.83 4.517-30.1-1.664-13.43-9.272-20.6-21.873-18.98zm44.935 51.25c.959-4.21 2.637-9.12 4.794-14.27s5.992-11 11.266-17.32c5.513-6.32 9.827-9.12 12.704-8.89 3.116.47 4.314 4.21 3.356 11.47-.719 6.08-2.877 11.93-6.233 17.78-3.355 5.62-6.951 9.6-10.307 11.94-5.992 2.57-12.704 1.17-15.58-.71zm0-51.48c-5.513 23.4-12.944 50.08-22.292 79.8 1.198.7 3.356 1.41 6.472 1.87 3.116.47 5.273.47 6.232-.23a878.576 878.576 0 016.472-20.59c12.225 2.34 23.011-.24 32.359-7.73 9.588-7.49 15.341-18.25 17.259-32.53 1.198-9.59-2.877-16.85-10.787-18.02-4.794-.7-9.828 1.17-15.101 5.39-5.273 4.21-10.067 9.59-13.902 16.38h-.48c1.199-3.04 2.637-7.26 4.315-12.4 1.678-5.15 2.636-8.66 2.636-10.3zm62.92 48.82c4.753-11.03 12.356-18.38 18.772-21.37 2.852-.69 5.936-.69 8.796.46 5.46 2.07 6.17 7.12 1.9 17.23-4.76 11.03-12.359 19.08-17.587 21.37-3.089.92-5.94.92-8.554-.23-6.178-2.52-7.367-8.27-3.327-17.46zm33.028-27.58c-8.79-3.44-17.582-2.98-26.374 1.84-8.555 4.83-15.208 12.18-19.486 22.06-5.703 13.33-.712 23.21 10.218 27.58 8.555 3.45 16.871 2.99 24.951-1.38 8.081-4.37 14.731-12.18 19.721-23.44 5.47-11.95 2.85-21.83-9.03-26.66zm22.25 54.29c2.97-3.86 6.63-7.49 10.97-10.44s7.99-4.77 11.64-5.45c2.74.22 5.03.91 6.85 2.27 4.34 3.4 4.11 8.62-1.37 15.66-7.76 10.22-17.81 16.35-24.89 17.03-2.05-.23-4.11-.91-5.71-2.27-4.34-3.41-3.42-9.08 2.51-16.8zm39.06-10.67c.68-2.95-1.15-6.58-4.34-9.08-5.94-4.54-13.25-5.9-21.7-3.86s-16.44 7.49-23.75 17.03c-8.22 10.67-7.54 21.56 1.37 28.15 7.08 5.44 15.53 6.35 25.35 2.72s19.18-11.12 27.86-22.47c16.22-21.12 13.02-37.92-3.42-50.18-1.15-.45-2.52 0-4.34 1.14-1.6 1.13-2.74 2.27-3.43 3.4 11.88 8.86 14.16 20.44 6.85 33.15zm60.72 78.07c2.74-1.84 2.29-6.44-1.82-12.88-12.1-18.86-34.71-14.49-50-4.37-11.42 7.59-13.25 17.71-6.62 27.59 3.42 5.29 8.44 9.2 14.84 11.73 2.96-2.07 4.33-4.14 4.11-5.98-3.89-1.84-6.85-4.37-8.91-7.13-3.88-5.98-2.05-11.49 5.71-16.32 9.82-6.44 20.32-8.97 26.48-7.59 2.51.92 4.34 2.53 5.71 4.6 1.83 2.99 2.28 6.21 1.6 10.12 1.83 1.61 6.16 1.84 8.9.23zm4.92 56.8c6.7 1.48 13.4 5.93 14.35 10.38 1.44 5.94-2.63 9.9-12.2 12.37-10.29 2.47-20.34.74-25.36-2.23-2.63-1.97-4.31-4.45-5.02-7.42-1.2-5.68 2.87-9.64 12.68-12.11 5.98-1.49 11.24-1.73 15.55-.99zm4.54-6.43c17.95-.25 29.19 5.69 34.22 18.3 5.26 12.36 10.28 18.05 15.07 16.81 3.35-.74 5.26-2.22 5.98-4.2-1.91-1.24-4.07-4.45-6.46-9.89-2.15-5.2-4.07-8.9-5.5-11.13-5.27-9.15-16.03-15.58-28.23-17.81-12.21-2.22-25.13-1.73-37.33 1.24-16.98 4.2-22.49 14.84-19.85 26.46 2.15 9.15 7.65 15.83 16.5 20.03 9.09 4.21 18.66 4.95 28.71 2.48 12.21-2.97 18.19-11.63 16.03-21.77-1.91-8.16-9.09-15.82-19.14-19.53zm-11.39 66.21c12.41.25 22.19 4.66 27.68 9.82 1.9 2.45 2.62 5.39 2.62 8.58-.24 5.89-4.53 8.59-15.98 8.34-12.41-.24-22.9-4.41-26.96-8.58-2.15-2.7-2.86-5.4-2.86-8.34 0-6.63 5.25-10.06 15.5-9.82zm38.65 21.1c.24-9.81-3.58-17.91-11.45-24.53-7.87-6.38-17.18-9.82-28.63-10.06-14.79-.49-22.66 8.34-22.9 20.61-.24 9.32 3.1 17.42 10.26 23.55s17.18 9.57 29.82 9.81c14.07.25 22.66-6.13 22.9-19.38zm-22.57 37.93c1.38 2.38 2.54 5.22 3.69 8.31 1.15 3.32 1.38 5.46.92 6.88-.69 2.85-2.54 3.56-5.53 2.85-1.84-.48-3.69-2.14-5.99-5.46-2.31-3.09-4.38-6.64-6.45-10.2-1.85-3.56-4.38-7.12-7.38-10.44-2.99-3.33-5.76-5.22-8.29-5.94-7.14-1.89-12.67 1.19-14.75 9.02-.92 4.03-.92 8.54.46 13.53 1.39 5.22 3 9.25 5.53 12.81 2.77-.24 4.84-1.19 6.22-3.09-1.61-2.13-2.76-4.74-3.68-8.06-.92-3.09-1.15-5.46-.69-7.36.69-3.08 2.76-4.03 5.99-3.08 2.07.47 4.14 2.37 6.45 5.45 2.3 3.33 4.61 6.65 6.68 10.21 1.84 3.79 4.38 7.12 7.37 10.44 3 3.56 5.76 5.45 8.53 6.17 5.99 1.66 11.29-1.66 12.9-8.31 1.85-7.35-.69-17.79-5.99-26.34-2.76-.23-4.84.72-5.99 2.61zm-24.02 82.06c-4.46-3.03-8.46-6.07-12.22-9.57-4.23-3.73-8.22-9.1-11.98-15.86-3.76-6.77-4.93-11.44-3.52-14 1.41-2.8 5.4-2.57 11.74.93 5.41 2.8 10.11 6.77 14.1 11.43 4 4.9 6.34 9.34 7.28 13.54 0 3.5-.47 6.3-1.64 8.63-1.41 2.33-2.58 3.97-3.76 4.9zm-48.4-17.03c7.05 4.2 15.98 10.03 26.31 17.03 10.34 7.23 17.63 12.37 21.62 15.4 3.76-3.27 6.81-7.23 9.16-11.43 5.41-10.27 6.35-20.54 2.82-30.8-3.52-10.27-11.51-18.44-23.73-24.97-8.69-4.67-17.15-3.5-20.91 3.5-2.11 4.2-2.35 9.33-.47 15.63s5.41 12.37 10.57 18.2l-.23.47c-2.58-2.1-5.87-4.67-10.34-7.7-4.46-3.03-7.28-4.9-9.16-5.83zm12.12 49.83c3 5.92 6.47 11.09 10.63 15.53l9.25-9.12c-2.54-2.96-7.86-10.11-15.95-21.95-8.09-11.59-13.87-20.71-17.8-27.86l-9.25 9.12 6.01 9.37c3.24 4.94 5.55 9.13 7.17 12.09 2.54 4.68 4.39 10.85 5.55 18.49 1.15 7.89.46 12.82-1.39 14.79-1.39 1.24-3.24.5-6.01-2.71-4.39-4.93-12.48-18-24.5-38.96l-8.79 8.63 6.94 11.84c3 4.93 5.08 8.63 6.24 10.85 2.31 4.19 3.93 10.35 4.85 18 1.16 7.89.7 12.57-1.38 14.55-1.39 1.48-3.7.74-6.48-2.72-2.31-2.46-6.47-9.37-13.17-20.22-6.71-10.84-10.41-17.01-11.33-18.24l-9.71 9.61c1.39 1.48 5.55 8.14 12.71 19.73 6.94 11.59 12.03 18.99 14.8 22.19 4.62 5.18 10.63 6.17 14.79 1.98 6.01-5.92 7.17-16.53 3.47-32.06l.46-.49c3.01 4.93 5.09 7.64 5.78 8.38 4.4 4.93 9.25 5.18 13.18 1.23 5.55-5.42 6.93-17.5 3.47-32.05zm-81.97 42.69c5.02 10.95 5.5 20.99 3.11 27.83-1.44 2.51-3.59 4.56-6.46 5.7-5.268 2.28-9.574-.45-14.359-10.49-5.024-10.95-5.981-21.67-3.828-26.69 1.435-2.74 3.589-4.79 5.981-5.71 6.22-2.74 11.486.46 15.556 9.36zm-2.16 41.97c8.85-3.65 14.36-10.26 16.75-19.62 2.39-9.35 1.43-18.93-3.35-28.74-5.98-13.01-16.987-16.43-27.992-11.64-8.374 3.65-13.877 9.59-16.269 18.25-2.393 8.67-.957 18.71 4.067 29.89 5.742 11.86 15.073 16.88 26.794 11.86zm-57.807 40.74c6.625-1.17 9.428-3.27 9.173-6.08-1.019-6.78-8.154-11.92-17.582-10.75-5.096.7-9.428 2.57-12.995 6.08-3.822 3.27-6.37 6.78-7.899 10.52 1.274 1.4 4.586 2.81 6.37 2.34 3.313-6.08 8.409-10.29 12.995-10.99 4.842-.71 8.154 2.34 9.938 8.88zm-22.933-58.93c1.019-7.95 1.019-15.44 0-22.22l-13.25 1.87c.764 5.15 1.529 14.27 2.039 27.37.509 13.33.254 23.38 0 30.87l14.523-1.88c-.509-8.88-.509-16.37 0-22.21.255-5.62 2.294-12.16 5.606-19.18 3.568-7.02 6.88-10.76 10.193-11.23 2.802-.46 4.586 1.64 5.351 5.85.509 3.28.764 10.76.509 22.45-.255 11.7-.255 18.71.255 21.05l14.524-1.87c-.255-2.34-.51-9.82-.51-22.22 0-12.39-.254-20.58-.764-24.09-1.529-8.65-6.115-12.39-14.269-11.22-4.842.7-9.173 3.51-13.25 8.65-4.077 5.15-7.39 11.23-9.683 18.24zm-86.645-8.3c3.822-7.07 6.689-14.14 8.361-20.74l-12.422-2.83c-1.194 4.95-4.061 13.91-8.839 26.4-4.777 12.49-8.6 22.16-11.705 28.76l13.377 3.06a344.878 344.878 0 018.361-20.74c2.389-5.19 6.45-10.61 12.184-16.03 5.733-5.42 10.033-7.54 13.138-6.84 2.628.71 3.344 3.07 2.389 7.31-.717 3.3-3.583 10.37-8.122 21.22-4.539 10.84-7.167 17.44-7.883 19.8l13.377 3.06c.478-2.36 3.345-9.43 8.122-20.98 4.778-11.55 7.645-19.33 8.361-22.86 2.15-8.49-.716-13.67-8.122-15.56-4.3-.94-9.316 0-14.811 3.54-5.494 3.3-10.749 8.01-15.288 13.67zm-78.132 1.07c-1.706 3.15 1.218 7.27 8.529 10.9 21.202 10.65 39.723-5.09 48.74-22.52 6.579-12.83 2.924-22.99-8.53-28.8-6.092-3.15-12.672-3.88-19.983-2.67-1.706 3.63-1.706 6.06-.731 7.51 4.63-.24 8.773.24 11.941 1.93 6.58 3.39 7.798 9.45 3.412 17.92-5.605 11.13-14.135 18.88-20.471 20.82-2.68.48-5.361 0-7.798-1.21-3.168-1.7-5.605-4.6-6.823-8.48-2.681-.24-6.824 1.7-8.286 4.6zm-16.552-29.94a79.062 79.062 0 00-14.837 11.75l9.486 9.55c2.675-2.69 9.729-8.81 20.918-17.87 10.945-9.06 19.945-15.67 26.512-20.07l-9.486-9.55-9 6.85c-4.864 3.68-8.756 6.37-11.675 8.08-4.378 2.94-10.459 5.14-17.999 6.61-7.783 1.47-12.405 1.23-14.594-.98-1.459-1.22-.729-3.42 2.189-6.61 4.622-4.89 17.027-13.95 37.458-27.66l-9-8.81-11.431 7.83c-4.865 3.43-8.27 5.88-10.459 7.1-4.135 2.45-9.973 4.65-17.513 6.12-7.783 1.47-12.405 1.23-14.351-.73-1.459-1.47-.729-3.92 2.189-7.1 2.433-2.45 8.757-7.35 19.459-14.69 10.459-7.34 16.296-11.75 17.513-12.73l-9.973-9.79c-1.459 1.47-7.783 6.36-18.729 14.2-10.945 7.83-18.242 13.46-21.404 16.64-5.108 5.14-5.594 11.51-1.216 15.67 6.081 6.12 16.54 6.85 31.62 2.45l.486.49c-4.621 3.42-7.297 5.63-8.026 6.36-4.622 4.9-4.865 10.04-.73 13.96 5.594 5.63 17.756 6.61 31.863 2.2zm-44.007-83.37c-10.876 5.27-21.057 5.96-27.999 4.12-2.545-1.14-4.628-3.2-6.016-5.95-2.546-5.04 0-9.16 9.95-13.97 10.875-5.27 21.751-6.64 26.842-4.81 3.008 1.37 4.859 3.2 6.016 5.5 3.24 5.72.232 10.76-8.793 15.11zm-42.577-.23c4.165 8.25 10.876 13.29 20.594 15.12 9.488 1.83 19.206.46 28.925-4.35 12.958-6.42 15.966-16.95 10.644-27.26-3.933-8.01-10.413-12.82-19.206-14.89-8.793-1.83-18.974-.22-30.081 5.27-11.802 5.96-16.43 14.89-10.876 26.11zm36.13-59.25c-4.536.23-9.549.46-15.278.23-5.73-.23-12.414-1.84-20.292-5.07-7.878-3-11.936-6-12.414-9-.716-3 2.865-5.3 10.027-6.69 6.206-1.15 12.652-1.15 19.098.23 6.684 1.39 11.458 3.23 14.801 5.77 4.058 4.84 5.013 11.53 4.058 14.53zM639.573 1616c24.589-2.31 52.52-3.69 84.27-4.15.239-1.39.239-3.46-.239-6.46-.477-3-1.193-4.85-2.148-5.77-8.355.23-15.756.46-21.963.46-1.432-11.76-7.4-20.99-17.427-27.22-10.265-6.46-22.44-8.3-36.763-5.76-9.788 1.84-15.517 7.84-14.085 15.45.955 4.62 4.297 8.54 9.788 12.23 5.729 3.69 12.413 6.23 20.053 7.61v.46c-3.342-.23-7.878-.23-13.369 0s-9.071.46-10.743.69zm29.114-99.39c7.939 2.72 15.63 4.31 23.073 4.99l1.24-12.03c-5.458-.45-14.885-1.81-28.779-4.54-13.645-2.72-24.313-4.99-31.755-7.03l-1.241 12.93c9.18 1.59 16.87 3.41 22.825 5 5.706 1.58 11.908 4.53 18.358 9.3 6.451 4.54 9.428 8.39 9.18 11.34-.248 2.5-2.729 3.63-7.195 3.18-3.473-.23-11.164-1.82-23.32-4.54-12.157-2.95-19.352-4.31-21.833-4.54l-1.24 12.94c2.481.22 10.172 1.81 23.073 4.54 12.9 2.72 21.335 4.31 25.057 4.76 9.179.68 14.141-2.5 14.885-9.76.496-4.31-1.488-8.62-5.954-13.38-4.466-4.77-9.924-8.85-16.622-12.48zm-2.488-39.04c-5.939-2.77-12.395-8.54-14.977-13.31-.775-3.01-.775-5.77.258-8.78 1.549-4.27 5.939-6.03 10.588-4.52 9.296 3.01 6.972 17.32 4.131 26.61zm37.444 6.27c3.357-9.29 2.84-19.58.258-25.35-2.066-.76-5.94-.5-7.231.5.517 1.76 1.033 4.52.775 8.03-.258 3.52-.775 6.53-1.808 9.04-2.582 7.28-8.521 9.29-17.559 6.02-1.808-.75-3.615-1.25-5.165-2.26 6.198-23.84 3.099-37.9-8.78-41.92-8.521-2.76-16.785.76-20.4 11.3-3.357 9.54-1.807 18.83 4.39 27.61 6.456 8.79 15.494 15.31 27.631 19.33 13.428 4.77 23.499.25 27.889-12.3zm-49.892-98.41c-3.309 5.03-3.545 8.45-1.181 10.05 5.672 3.66 14.18 2.29 19.144-4.8 2.599-3.88 4.018-8 3.545-12.57-.236-4.57-1.182-8.68-2.836-12.11-1.655 0-4.727 1.14-5.909 2.74 2.364 6.17 2.6 12.57.236 16-2.599 3.66-6.854 3.89-12.999.69zm58.614 23.54a82.465 82.465 0 0016.781 14.63l6.854-10.06c-4.254-2.74-11.581-8.23-21.744-16.69-10.163-8.45-17.726-15.08-22.926-20.11l-7.563 10.97c6.854 5.49 12.527 10.52 16.545 14.63 4.018 3.88 7.799 9.37 10.872 16.23 3.072 6.85 3.781 11.42 2.127 13.94-1.418 2.06-4.018 2.06-7.563-.23-2.837-1.83-8.509-6.63-17.254-14.4s-13.944-12.34-16.071-13.71l-7.563 10.97c1.89 1.14 7.563 6.17 17.017 14.4 9.217 8.23 15.598 13.25 18.671 15.31 7.327 4.8 13.235 4.11 17.49-2.06 2.363-3.65 3.072-8.22 1.89-14.4-1.181-6.17-3.781-12.34-7.563-18.28zM411.151 206.896c1.605-2.288 4.012-4.348 6.419-6.636 2.674-2.288 4.814-3.433 6.418-3.661 3.21-.458 5.082.686 5.617 3.661.535 1.831-.535 4.119-2.675 7.551-2.139 3.433-4.279 6.636-7.221 9.84-2.674 3.204-4.814 6.865-6.953 10.755-1.872 3.89-2.407 7.322-1.872 10.068 1.604 7.094 7.488 10.755 16.581 9.154 4.547-.687 9.093-2.746 13.64-6.179 4.546-3.432 7.755-6.636 9.895-10.297-1.605-2.517-3.477-3.89-6.419-4.119-1.337 2.288-3.476 4.348-6.151 6.636-2.674 2.059-5.081 3.432-6.953 3.661-3.477.687-5.349-.686-6.151-3.89-.535-2.059.267-4.576 2.407-8.009 2.139-3.432 4.546-6.865 6.953-10.068 2.674-3.204 5.081-6.865 6.954-10.755 1.872-4.119 2.674-7.552 1.872-10.298-1.338-5.949-7.221-9.382-14.977-8.009-8.291 1.373-17.651 8.009-23.535 16.247 1.605 2.517 3.744 4.119 6.151 4.348zm57.442 11.51c-.694-12.493 2.542-22.583 6.934-28.349 2.08-1.922 4.853-3.123 7.858-3.363 5.547-.24 8.552 3.844 9.245 15.135.693 12.493-2.311 23.303-5.778 27.628-2.311 2.162-4.854 3.363-7.396 3.603-6.703.481-10.17-4.324-10.863-14.654zm16.641-40.361c-9.245.481-16.41 5.045-21.957 13.454-5.316 8.408-7.858 18.018-7.165 29.309.925 14.895 9.476 21.862 21.033 21.141 8.782-.48 15.947-4.564 21.032-12.252s7.396-17.778 6.703-30.751c-.694-13.694-7.165-21.621-19.646-20.901zm42.089 55.025c.947-4.28 2.369-9.273 4.264-14.742 1.896-5.468 5.45-11.174 10.662-17.832 5.212-6.419 9.24-9.51 12.32-9.272 3.08.237 4.264 4.279 3.553 11.412-.71 6.182-2.606 12.126-5.686 18.07s-6.396 9.986-9.95 12.364c-5.686 2.853-12.32 1.664-15.163 0zM525.901 181c-4.738 23.776-11.372 50.881-19.901 81.076 1.185.714 3.317 1.189 6.397 1.665 3.08.475 5.212.238 6.16-.238 2.132-8.084 4.027-14.979 5.923-20.923 12.083 2.14 22.507-.713 31.51-8.559 9.24-7.846 14.452-18.783 15.874-33.049.947-9.748-3.08-17.119-11.135-17.832-4.739-.476-9.714 1.426-14.689 5.706-5.213 4.28-9.477 9.986-13.268 16.881h-.474c1.185-3.091 2.606-7.37 3.791-12.601 1.421-5.231 2.369-8.797 2.369-10.462zm63.614 45.991c3.222-11.752 9.206-19.979 15.19-23.974 2.762-1.176 5.524-1.411 8.516-.47 5.293 1.41 6.905 6.346 3.913 17.158-3.223 11.752-9.207 20.918-14.04 23.739-2.992 1.41-5.524 1.645-8.055.94-6.445-2.115-8.056-7.756-5.524-17.393zm28.079-31.966c-8.746-2.35-17.032-.705-24.857 5.406-7.595 5.876-12.889 14.103-15.651 24.915-3.682 14.102 2.302 23.504 13.349 26.559 8.516 2.351 16.341.94 23.707-4.465 7.134-5.406 12.428-14.103 15.65-26.09 3.452-13.397-.46-23.034-12.198-26.325zm28.795 51.127c2.176-4.828 5.078-9.174 8.464-13.279 3.627-4.104 7.013-7.001 10.64-8.45 2.902-.483 5.562-.242 7.497.724 5.32 2.415 6.287 7.726 2.418 16.418-5.562 12.313-14.268 21.005-21.281 23.661-2.176.241-4.353 0-6.529-.966-4.837-2.656-5.321-8.692-1.209-18.108zm37.241-20.28c0-3.381-2.902-6.519-6.529-8.209-7.255-3.139-14.994-2.898-23.216 1.207-8.222 4.104-14.993 11.83-20.072 23.178-5.804 12.796-2.418 23.902 8.223 28.731 8.705 3.863 17.411 2.656 26.601-3.38 9.189-6.036 16.928-15.935 22.974-29.697 11.366-25.592 4.111-42.01-15.719-50.702-1.209 0-2.66.724-4.111 2.173s-2.419 3.139-2.66 4.346c14.267 6.277 19.346 17.625 14.993 32.594zm51.76 48.488c4.916-3.84 9.364-8.16 13.109-12.96l-9.832-8.4c-2.341 2.88-8.427 9.36-18.258 19.2-9.598 9.6-17.557 17.04-23.409 22.08l9.832 8.4 7.959-7.44c4.213-3.84 7.724-6.96 10.299-8.88 3.98-3.12 9.364-6 16.62-8.16 7.257-2.16 11.705-2.16 14.046-.48 1.404 1.2.936 3.36-1.639 6.48-3.979 5.04-14.982 15.12-33.006 30.24l9.363 7.68 10.066-8.64c4.214-3.84 7.257-6.48 9.129-7.92 3.746-2.88 9.13-5.52 16.152-7.44 7.257-2.16 11.705-2.4 13.811-.72 1.639 1.44 1.171 3.6-1.638 6.96-2.107 2.64-7.725 7.92-17.089 16.08-9.129 8.16-14.513 12.96-15.683 13.92l10.3 8.64c1.404-1.68 6.788-6.96 16.62-15.6 9.831-8.64 16.152-14.64 18.727-18 4.213-5.28 4.213-11.76-.235-15.36-6.32-5.28-16.386-5.04-30.431.72l-.468-.48c4.214-3.84 6.554-6.24 7.257-6.96 3.979-5.04 3.745-10.08-.468-13.68-5.853-5.04-17.323-4.8-30.432.72zm92.607 77.255c-4.509 2.84-9.019 5.442-13.766 7.572-5.221 2.366-11.629 3.786-19.462 4.732-7.832.71-12.579-.236-14.477-2.366-1.899-2.366-.238-5.915 5.458-10.647 4.985-4.023 10.206-6.626 16.14-8.282 5.933-1.656 11.155-2.129 15.427-1.183 3.322 1.42 5.696 2.839 7.357 4.969a10.728 10.728 0 013.323 5.205zM792.871 389c6.883-4.732 15.427-10.647 26.107-17.273 10.68-6.625 18.275-11.12 23.022-13.723-1.661-4.969-4.035-9.228-7.12-13.014-7.358-9.228-16.614-13.96-27.532-14.906-10.917-.71-21.598 3.076-32.515 11.83-7.832 6.152-10.206 14.434-5.222 20.586 3.086 3.785 7.833 5.915 14.241 6.625 6.645.71 13.528 0 21.123-2.366l.237.473c-2.848 1.419-6.645 3.549-11.155 6.388-4.509 2.84-7.357 4.969-9.019 6.152zM874 411.47c-4.87-10.966-10.436-20.789-17.161-29.47-11.826 5.94-22.262 9.595-31.538 10.966-9.276 1.599-14.61.913-16.001-1.6-.696-1.142-.928-2.056-.696-3.198-3.246-.457-6.029.229-8.116 1.371-2.551 1.37-3.479 4.797-1.16 8.681 3.015 5.026 9.508 6.853 19.712 5.711 10.203-1.142 22.03-4.34 35.712-10.052 2.783 2.97 4.87 6.397 6.03 10.28-3.015 1.828-10.204 4.798-20.871 9.595-10.668 4.569-18.784 7.996-23.886 9.824L822.75 435c2.087-.914 10.436-4.797 25.045-11.651 14.61-6.168 23.422-10.28 26.205-11.879zm13.49 50.687c-5.168 1.194-10.101 2.388-15.269 2.866-5.637.717-12.215 0-19.731-1.672-7.517-1.672-11.745-4.061-12.685-6.927-1.174-3.106 1.644-5.734 8.456-8.361 5.873-2.15 11.745-3.106 17.853-2.867 6.107.239 11.275 1.434 14.799 3.583 2.584 2.389 4.463 4.539 5.402 7.167a16.817 16.817 0 011.175 6.211zM843.094 487c7.986-2.389 17.852-5.255 30.067-8.361 12.215-2.866 20.671-5.016 25.839-5.972 0-5.255-.94-10.033-2.584-14.81-4.228-10.989-11.275-18.633-21.141-22.932-10.101-4.3-21.376-3.823-34.295 1.194-9.162 3.583-13.86 10.749-11.276 17.916 1.645 4.538 5.403 8.122 11.51 10.749 5.873 2.628 12.92 4.061 20.672 4.3l.235.478c-3.289.478-7.517 1.194-12.45 2.628-5.168 1.194-8.457 2.388-10.336 3.105zm12.383 61c27.722-2.374 47.15-3.562 58.523-3.799l-2.843-14.009c-4.502.712-12.321 1.187-23.22 1.899-2.132-6.886-3.554-13.771-4.028-20.657 10.189-.713 17.77-1.187 23.457-1.187L904.523 496c-18.244 2.137-37.673 3.562-58.523 4.037l2.843 14.009c6.871-.95 15.638-1.425 26.774-2.137 2.132 6.648 3.554 13.534 4.028 20.657-3.554.238-12.321.95-26.774 1.662zm43.715 30.676c5.89 1.676 11.78 2.394 17.443 2.634l.227-13.169c-3.625 0-12.007-.958-25.146-2.873-12.913-1.676-23.107-3.592-30.357-5.268l-.226 13.169 10.194 1.676c5.437.958 9.741 1.916 12.913 2.634 4.757 1.197 10.194 3.831 15.858 8.38 5.89 4.549 8.835 8.141 8.835 11.014 0 1.916-1.812 2.873-5.89 2.634-6.117 0-20.162-2.634-42.363-7.901l-.227 12.211 12.46 2.634c5.437 1.197 9.062 1.915 11.327 2.634 4.304 1.197 9.515 3.83 15.178 8.38 5.89 4.549 8.835 7.901 8.835 10.774 0 2.155-2.038 3.113-6.116 3.113-3.172 0-10.421-1.197-22.201-3.831-11.554-2.394-18.124-3.591-19.709-3.831L860 637.338c2.039 0 9.288 1.197 21.521 3.831 12.234 2.634 20.616 3.831 24.693 3.831 6.57 0 11.101-3.831 11.328-9.817.226-8.38-6.117-16.282-18.803-23.944v-.718c5.21.958 8.382 1.437 9.514 1.437 6.117 0 9.742-3.352 9.742-8.859.226-7.902-6.797-17-18.803-23.944zM900.597 708c3.933-11.537 6.478-23.074 7.403-34.139-12.724-3.532-22.903-8.005-30.769-13.185-7.865-5.18-11.567-9.183-10.873-12.243.232-1.413.926-2.119 1.62-2.826-2.082-2.59-4.627-4.002-6.941-4.473-3.007-.706-5.783 1.413-6.709 5.65-1.156 5.887 2.314 11.773 10.642 17.894 8.329 6.357 19.433 11.772 33.082 16.717 0 4.238-.694 8.24-2.545 12.007-3.47-.706-10.873-3.296-21.977-7.063-11.105-3.767-19.202-6.828-24.522-8.711L846 690.813c2.082.706 11.105 3.296 26.373 8.24 15.732 5.18 25.217 8.241 28.224 8.947zm-50.385 38.635c-6.472-4.727-13.185-8.509-19.657-11.109L826 747.108c4.795 1.891 13.185 5.909 24.931 12.291 11.747 6.382 20.857 11.583 27.09 15.601l5.034-12.528c-8.151-4.254-14.623-7.8-19.418-11.109-4.795-3.073-9.589-7.801-14.144-14.183s-6.233-10.873-5.034-13.709c.959-2.364 3.596-2.837 7.671-1.182 3.117 1.182 9.829 4.964 20.137 10.873 10.308 6.146 16.301 9.455 18.699 10.4L896 731.035c-2.158-.946-8.87-4.491-19.658-10.873-11.027-6.146-18.219-10.164-21.575-11.583-8.39-3.309-13.904-1.418-16.781 5.673-1.678 4.019-1.198 8.982 1.439 14.892 2.637 5.909 6.472 11.582 11.506 16.782zm-12.299 36.657c-4.97 13.347-9.488 17.029-16.264 13.117-3.841-2.301-6.1-5.523-6.551-9.665-.226-1.841.451-4.142 2.033-7.133 3.614-5.753 10.391-4.603 20.782 3.681zm4.97 3.912c5.421 4.373 8.81 8.975 9.939 14.038.226 2.301-.226 4.372-1.581 6.673-2.485 4.142-5.196 5.293-8.584 3.452-4.518-2.762-5.874-8.975-4.518-14.498a189.541 189.541 0 014.744-9.665zm-11.069 17.259c-1.13 7.364 1.355 15.418 7.228 18.87 6.1 3.682 12.199 1.38 17.62-8.054 9.262-16.108 4.066-32.907-19.201-46.944-11.746-6.904-19.879-5.753-25.978 4.832-4.066 6.904-5.421 13.577-3.84 20.251 1.355 6.673 4.518 11.505 9.262 14.267 5.873 3.452 10.617 2.301 14.683-3.682zm-29.689 77.474c-.232-.227-3.482-3.852-9.982-11.103-6.5-7.25-12.536-13.594-18.107-19.485-5.572-5.891-9.286-9.517-10.911-11.103l-8.125 9.29c3.714 3.399 9.982 9.516 18.804 18.806 8.821 9.29 15.553 16.767 20.428 22.658zm-5.804-59.817c1.625 1.359 3.25 3.172 4.875 4.758 1.625 3.852 2.554 7.704 3.018 11.329.232 3.852-.232 6.571-1.857 8.383-1.625 2.04-4.411 1.587-7.661-1.359-4.642-3.852-7.428-9.063-8.357-15.407 0-2.946.929-5.665 3.018-7.931 1.625-2.039 3.947-2.039 6.964.227zM833 846.59c-1.625-1.812-6.268-7.25-14.161-16.766-7.66-9.29-13.232-15.408-16.482-18.127-6.268-5.211-11.839-4.985-17.178 1.133-5.572 6.344-7.893 14.048-6.965 23.111 1.161 9.063 4.875 16.314 11.375 21.978 5.572 4.759 10.911 4.305 15.09-.226 3.714-4.305 5.571-13.595 2.785-23.338l.232-.226c2.322 3.172 5.108 7.25 8.59 12.008 3.714 4.758 6.5 7.931 8.357 9.743zm-51 59.547c-6.722-2.577-15.993-7.028-27.583-12.886-1.159-14.994-1.622-27.411-1.622-37.251l-9.967 8.2c.927 6.56 1.622 15.229 2.318 25.303l-.464.234c-3.013-1.64-9.503-5.154-19.702-11.011L712 889.269c11.589 4.685 21.556 9.137 30.132 13.588.696 16.869.928 28.583.696 35.143l9.735-7.966c-.927-8.668-1.623-16.634-1.854-23.663l.463-.234c9.04 4.452 15.298 7.966 18.311 9.84zm-183.624 81.612c-1.388 2.57-3.237 5.139-5.549 7.709-2.313 2.569-4.162 4.111-5.55 4.368-2.774.774-4.393-.771-4.855-3.854-.462-2.056.231-4.626 2.081-8.48 1.618-3.854 3.699-7.452 6.011-11.306 2.313-3.597 4.162-7.708 5.781-12.334 1.618-4.368 2.081-8.222 1.387-11.306-1.618-7.965-6.705-12.076-14.566-10.021-3.931 1.028-7.862 3.341-11.561 6.938-3.931 3.854-6.705 7.709-8.555 11.82 1.387 2.826 3.237 4.368 5.549 4.625 1.156-2.57 3.006-5.139 5.318-7.452 2.312-2.569 4.162-3.854 6.012-4.368 3.005-.771 4.624.771 5.318 4.368.462 2.313-.232 5.139-1.85 8.994-1.85 3.854-3.7 7.965-6.012 11.563-2.312 3.597-4.162 7.708-5.78 12.333-1.619 4.626-2.081 8.48-1.619 11.564 1.388 6.68 6.474 10.28 12.948 8.74 7.168-1.8 15.029-9.51 20.116-18.762-.694-3.083-2.543-4.882-4.624-5.139zm-54.533-14.168c.965 13.013-2.171 23.525-6.752 29.529-2.171 2-5.065 3.51-8.2 3.76-5.787.5-8.923-3.76-9.887-15.771-.965-13.014 1.929-24.276 5.546-28.78 2.412-2.503 5.065-3.754 7.717-3.754 6.994-.501 10.852 4.504 11.576 15.016zm-16.64 42.299c9.646-.76 17.122-5.51 22.669-14.52 5.546-8.759 7.717-19.02 6.993-30.532-1.206-15.517-10.369-22.524-22.427-21.774-9.164.751-16.399 5.006-21.704 13.265-5.306 8.008-7.476 18.769-6.511 32.034 1.205 14.517 8.199 22.777 20.98 21.527zm-42.437-54.218c-.965 4.487-2.171 9.721-4.102 15.454-1.93 5.733-5.308 11.964-10.616 18.944-5.309 6.98-9.411 10.22-12.306 9.97-3.137-.25-4.585-4.24-3.861-11.964.483-6.481 2.413-12.962 5.55-18.944 3.136-6.231 6.273-10.468 9.893-12.961 5.791-3.49 12.547-2.243 15.442-.499zm2.413 54.338c4.585-25.175 10.617-53.341 18.821-85.245-1.206-.748-3.378-1.246-6.515-1.496-3.137-.498-5.308-.249-6.273.499-1.931 8.475-3.861 15.703-5.55 22.184-12.306-1.995-22.923 1.246-31.851 9.471-9.169 8.475-14.477 19.941-15.684 35.145-.965 10.222 3.62 17.702 11.582 18.442 4.826.5 9.893-1.74 14.96-6.23 5.068-4.48 9.411-10.467 13.03-17.945h.483c-1.207 3.49-2.413 7.727-3.62 13.215-1.447 5.48-2.171 9.22-2.171 10.96zm-64.627-48.796c-2.955 12.941-8.867 22.259-14.551 26.659-2.501 1.294-5.456 1.553-8.185.776-5.456-1.553-6.821-6.729-4.092-18.635 2.956-12.941 8.867-23.035 13.414-26.399 2.956-1.553 5.457-1.812 7.958-1.036 5.911 1.812 7.73 8.024 5.456 18.635zm-27.056 35.716c8.868 2.59 16.825.52 24.328-6.21 7.503-6.729 12.505-15.788 15.233-27.694 3.411-15.529-2.728-25.623-13.641-28.988-8.413-2.329-16.143-.776-23.191 5.435-7.048 6.212-12.05 15.788-15.006 29.247-3.41 14.494.227 24.847 12.277 28.21zm-32.375-53.199c-2.129 5.022-4.731 9.794-8.278 14.063-3.548 4.269-6.859 7.282-10.17 9.04-2.839.503-5.44.503-7.332-.502-5.204-2.511-6.15-8.036-2.602-17.077 5.203-13.058 13.481-22.099 20.577-24.861 2.128-.251 4.257 0 6.386.753 4.73 2.512 5.44 8.539 1.419 18.584zm-36.187 21.597c0 3.515 2.838 6.78 6.622 8.538 7.096 3.265 14.664 2.762 22.706-1.758 8.041-4.52 14.427-12.556 19.158-24.359 5.439-13.561 2.128-24.862-8.515-29.633-8.515-3.767-17.266-2.511-26.017 4.018s-16.319 16.825-21.996 31.391c-10.643 26.619-3.311 43.695 16.083 52.485 1.183 0 2.602-.75 4.021-2.51s2.129-3.27 2.602-4.52c-13.955-6.28-19.158-17.832-15.137-33.652zm-53.184-48.259c-4.898 4-9.096 8.235-12.827 12.941l10.028 8c2.333-3.059 8.164-9.412 17.959-19.059 9.329-9.647 17.259-16.941 23.09-21.882l-10.029-8-7.697 7.529c-4.198 4-7.696 7.059-10.028 8.941-3.965 3.295-9.33 6.118-16.327 8.236-7.23 2.117-11.661 2.353-13.993.706-1.4-1.177-.933-3.294 1.399-6.353 3.965-4.941 14.694-15.059 32.419-30.353l-9.329-7.53-9.796 8.706c-4.198 3.765-7.23 6.353-9.096 7.765-3.732 2.823-8.863 5.412-15.86 7.529-7.23 2.118-11.661 2.589-13.76.942-1.633-1.177-1.166-3.53 1.399-6.824 2.099-2.588 7.464-8 16.793-16 9.096-8.235 14.227-12.941 15.16-14.118L252.759 856c-1.166 1.647-6.763 6.824-16.326 15.529-9.562 8.471-15.859 14.589-18.425 18.118-4.198 5.412-3.965 11.53.467 15.059 6.297 4.941 16.326 4.706 30.32-1.177l.466.471c-3.965 3.765-6.297 6.118-6.997 7.059-3.965 4.941-3.498 9.882.7 13.412 6.064 4.705 17.492 4.47 30.32-1.177zm-96.48-74.229c4.519-2.876 9.038-5.513 13.794-7.91 4.995-2.636 11.654-4.075 19.265-5.033 7.849-.959 12.605 0 14.508 2.157 2.141 2.397.238 5.992-5.232 10.786-4.757 4.075-10.227 6.951-16.173 8.869-5.946 1.917-11.178 2.397-15.459 1.438-3.33-1.199-5.708-2.877-7.611-5.034-1.665-1.917-2.616-3.835-3.092-5.273zM211.756 810c-6.659 5.034-15.459 11.026-25.924 17.977-10.702 6.951-18.313 11.745-22.832 14.381 1.665 4.794 4.043 9.348 7.373 12.944 7.611 9.108 16.886 13.902 27.827 14.621 10.94.719 21.642-3.595 32.345-12.704 7.611-6.471 9.751-14.861 4.757-20.853-3.092-3.595-7.849-5.752-14.508-6.472-6.66-.719-13.557.24-21.167 2.877l-.238-.48c2.854-1.438 6.659-3.595 11.178-6.711 4.519-2.876 7.373-5.034 8.8-6.232zM129 789.063c5.428 10.709 11.596 20.507 18.751 28.937 12.337-6.152 23.686-10.025 33.309-11.62 9.869-1.595 15.544-1.367 17.024 1.367.74 1.139.987 2.05.74 3.19 3.454.228 6.415-.228 8.636-1.595 2.714-1.595 3.454-4.785 1.233-8.658-3.207-5.013-10.116-6.836-20.972-5.469-10.856 1.139-23.439 4.785-37.749 10.481-2.961-2.962-5.181-6.38-6.662-10.253 3.208-1.823 10.61-5.013 22.206-9.797 11.349-4.785 19.738-8.203 25.166-10.254L183.28 764c-2.22 1.139-10.856 5.013-26.646 12.076-15.298 7.063-24.673 11.392-27.634 12.987zm-12.638-53.358c5.207-1.539 10.178-2.565 15.385-3.335 5.681-.77 12.309-.257 19.883 1.539 7.575 1.796 11.835 4.105 13.019 7.183 1.183 3.078-1.657 6.156-8.285 9.235-5.681 2.565-11.598 3.591-17.989 3.335-6.154-.257-11.362-1.283-14.912-3.592-2.604-2.308-4.498-4.874-5.444-7.695-1.184-2.822-1.657-4.874-1.657-6.67zm44.5-27.705c-7.811 2.822-17.99 5.9-30.061 9.491-12.072 3.335-20.83 5.644-25.801 6.927 0 5.643 1.184 10.774 2.84 15.648 4.261 11.8 11.599 19.752 21.777 24.113s21.54 3.592 34.558-1.795c9.232-3.848 13.966-11.801 10.889-19.496-1.657-4.874-5.681-8.466-11.599-11.288-5.917-2.821-13.018-4.361-20.829-4.361l-.237-.513c3.314-.513 7.574-1.539 12.545-3.078 5.208-1.539 8.521-2.565 10.415-3.335zm-15.993-55c-26.938 2.744-45.818 4.345-56.869 4.803l2.993 13.493c4.375-.686 11.742-1.372 22.564-2.287a86.277 86.277 0 014.374 19.668c-9.9.915-17.268 1.372-22.563 1.601L98.36 704c17.498-2.516 36.378-4.117 56.639-5.031l-2.993-13.494c-6.677.915-15.196 1.601-25.787 2.516-2.302-6.404-3.684-13.036-4.375-19.668 3.454-.458 11.973-.915 26.018-2.058zm-42.375-32.21c-6.269-1.376-12.537-2.065-18.565-2.065v12.621c3.858 0 12.778.688 26.763 2.294 13.743 1.377 24.593 2.983 32.308 4.36v-12.62l-10.85-1.607c-5.786-.918-10.367-1.606-13.743-2.294-5.063-1.148-10.85-3.442-17.118-7.802-6.27-4.13-9.404-7.572-9.404-10.326 0-1.835 1.93-2.753 6.028-2.753 6.51 0 21.459 2.294 45.087 6.654V595.55l-13.261-2.295c-5.786-.918-9.644-1.606-12.055-2.295-4.581-1.147-10.127-3.442-16.395-7.801-6.27-4.131-9.404-7.573-9.404-10.097 0-2.065 2.17-2.983 6.51-2.983 3.376 0 11.332 1.148 23.629 3.213 12.296 2.065 19.529 3.212 20.976 3.212v-13.079c-2.17 0-9.885-1.147-22.905-3.213-13.02-2.294-21.94-3.212-26.28-3.212-6.993.229-11.815 4.13-11.815 9.637 0 8.032 6.751 15.374 20.253 22.717v.688c-5.545-.917-8.921-1.147-10.127-1.147-6.51 0-10.126 3.442-10.126 8.72 0 7.572 7.715 16.062 20.494 22.716zM96.993 487c-3.73 12.225-6.06 24.451-6.993 36.177 12.82 3.493 23.308 7.984 31.233 13.223s11.654 9.481 11.188 12.724c-.233 1.497-.699 2.246-1.632 2.994 2.098 2.495 4.662 4.242 6.993 4.741 3.03.748 5.827-1.497 6.759-6.238 1.166-6.237-2.33-12.474-10.955-18.712-8.391-6.487-19.812-11.976-33.563-16.966-.234-4.49.699-8.732 2.33-12.724 3.497.749 10.955 3.244 22.143 6.986 11.188 3.992 19.579 6.736 24.707 8.732L152 503.716c-2.331-.499-11.188-3.243-26.805-8.233-15.616-4.99-24.939-7.735-28.203-8.483zm51.36-35.495a83.224 83.224 0 0019.242 10.813L172 450.799c-4.637-1.88-12.751-5.642-24.343-11.754-11.591-6.112-20.401-11.049-26.429-15.045l-4.636 12.459c7.882 3.997 14.142 7.523 19.01 10.814 4.869 3.056 9.505 7.523 13.91 13.87s6.26 10.579 5.1 13.4c-.927 2.351-3.477 2.821-7.186 1.41-3.014-1.175-9.506-4.701-19.474-10.343-9.969-5.877-15.997-9.169-18.315-10.109L105 467.96c2.087.706 8.578 4.232 19.242 10.579 10.665 6.112 17.851 9.874 21.097 11.049 8.114 3.056 13.446 1.175 15.997-5.877 1.622-3.996.927-8.933-1.623-14.81s-6.492-11.284-11.36-16.456zm11.629-35.618c4.877-13.684 9.521-17.395 16.489-13.452 3.948 2.319 6.27 5.566 6.967 9.509.232 1.856-.232 4.175-2.09 7.191-3.252 6.03-10.451 4.87-21.366-3.248zm-5.11-3.943c-5.806-4.174-9.057-8.813-10.451-14.148-.232-2.319.233-4.407 1.626-6.958 2.322-4.175 5.342-5.567 8.593-3.711 4.645 2.551 6.038 8.814 4.877 14.612-1.161 3.711-2.787 6.958-4.645 10.205zm11.148-17.627c1.161-7.422-1.626-15.54-7.664-18.787-6.271-3.479-12.541-1.16-18.115 8.35-9.29 16.467-3.716 33.167 20.669 46.852 12.077 6.958 20.438 5.566 26.708-5.335 3.948-6.958 5.342-13.916 3.716-20.411-1.626-6.726-4.877-11.597-9.754-14.38-6.271-3.479-11.148-2.087-15.096 3.943zm28.706-79.805c.244.237 3.905 4.042 10.738 11.413 7.078 7.372 13.423 14.03 19.524 20.213 5.857 5.944 9.762 9.749 11.714 11.413l8.298-9.749c-3.905-3.329-10.738-9.749-20.012-19.261-9.274-9.511-16.595-17.358-21.964-23.541zm7.322 62.538c-1.953-1.427-3.417-3.091-5.125-4.993-1.709-4.043-2.929-7.847-3.417-11.89-.488-4.042.244-6.896 1.708-8.798 1.709-2.14 4.393-1.665 8.054 1.189 4.881 4.042 8.053 9.274 9.274 15.932.244 3.091-.732 5.944-2.929 8.56-1.952 2.378-4.393 2.378-7.565 0zM163 352.082c1.708 1.903 6.833 7.61 15.131 17.359s14.155 15.932 17.571 18.785c6.59 5.469 12.691 4.994 18.06-1.426 5.857-6.896 8.053-14.981 6.833-24.493-1.22-9.511-5.369-17.121-12.446-22.828-5.857-4.755-11.714-4.518-15.863.476-3.905 4.518-5.613 14.267-2.441 24.492l-.244.238c-2.44-3.329-5.369-7.609-9.274-12.365-3.904-4.993-6.833-8.323-9.029-9.987zm54-58.421c6.977 2.664 16.047 7.023 27.674 12.835 1.396 15.498 2.093 28.333 2.093 38.504l9.768-8.718c-.93-6.781-2.093-15.741-2.791-26.154l.465-.242c3.024 1.695 9.768 5.086 20 11.14L287 309.886c-11.628-4.601-21.86-9.202-30.465-13.561-.93-17.436-1.395-29.544-1.395-36.325l-9.535 8.476c1.162 8.96 1.86 17.194 2.325 24.458l-.465.243c-9.302-4.602-15.349-7.992-18.605-9.929zm130.036-56.83c3.201 9.115-1.83 19.119-11.205 22.231-9.375 3.113-19.437-1.778-22.867-10.893-3.201-9.115 1.83-19.119 11.205-22.231 9.604-3.113 19.665 1.778 22.867 10.893zm340.946 702.014c3.379 9.896-1.931 20.758-11.827 24.137s-20.758-1.931-24.137-11.827 1.931-20.758 11.827-24.137 20.758 1.931 24.137 11.827zM2692.68 1395.65c.74-1.68 1.72-3.6 2.95-5.52 1.24-1.92 2.47-3.12 3.45-3.6 1.73-.72 3.2-.24 3.94 1.92.49 1.2.49 2.88-.49 5.76-.74 2.64-1.72 5.29-2.96 7.93-1.23 2.64-1.97 5.52-2.46 8.4-.49 3.13-.49 5.53.49 7.21 2.22 4.8 6.41 6.48 11.58 4.32 2.71-1.2 5.17-3.12 7.39-6 2.21-2.88 3.69-5.77 4.43-8.65-1.48-1.44-2.71-2.16-4.68-2.16-.49 1.92-1.48 3.6-2.71 5.52s-2.46 3.13-3.69 3.61c-1.97.96-3.45.24-4.44-1.93-.49-1.44-.49-3.36.25-6s1.73-5.52 2.71-8.17c1.23-2.64 1.97-5.52 2.46-8.4.5-3.12.5-5.53-.49-7.45-1.72-4.08-5.91-5.52-10.34-3.6-4.93 2.16-9.61 7.93-12.07 14.41 1.72 1.68 3.2 2.4 4.68 2.4z"/><path d="M2752.55 1368c-8.04.24-15.4 1.42-22.55 3.31.9 9.22.45 17.02-.66 23.4-1.34 6.38-2.91 9.69-4.91 9.93-.9.23-1.57 0-2.24-.48-1.11 2.13-1.34 4.02-1.11 5.68.22 2.12 2.23 3.54 5.13 3.07 3.79-.47 6.7-4.26 8.48-11.35 1.79-6.85 2.68-15.6 2.46-25.76 2.45-.95 5.13-1.42 7.81-1.18.44 2.6.67 7.8.89 16.07s.45 14.18.45 18.2l8.7-1.42c-.22-1.65-.45-8.03-1.12-19.38-.67-11.11-1.11-17.96-1.33-20.09zm41.52 10.06c-.91 3.51-2.03 6.8-3.61 10.08-1.58 3.52-4.07 7.27-7.45 11.02-3.39 3.76-6.1 5.63-8.13 5.16s-2.71-3.05-1.81-7.74c.68-4.22 2.03-7.97 4.29-11.49s4.52-6.1 7-7.5c2.26-.71 4.06-.94 5.87-.71 1.81.24 2.93.71 3.84 1.18zm-.68 34.94c1.13-5.63 2.93-12.43 5.42-20.64 2.48-8.21 4.06-13.83 5.19-17.35-2.93-1.88-5.87-2.82-9.03-3.52-7.68-1.41-14.22.23-19.87 4.69-5.64 4.46-9.25 11.26-10.83 20.64-1.13 6.56 1.35 11.96 6.32 12.66 3.16.47 6.32-.47 9.93-3.05s6.55-6.09 9.26-10.55h.22c-.9 2.11-1.8 4.93-2.71 8.21-.9 3.52-1.58 5.86-1.8 7.03zm22.9-11.22c9.89 2.97 12.79 5.93 10.13 10.72-1.44 2.74-3.62 4.33-6.51 5.02-1.21.23-3.14 0-5.07-1.14-4.59-2.28-4.11-7.07 1.45-14.6zm2.65-3.64c2.9-3.88 6.04-6.39 9.66-7.53 1.69-.23 3.13 0 4.82.91 3.14 1.6 4.11 3.42 2.9 5.7-1.69 3.2-6.03 4.34-10.38 3.65-2.17-.68-4.58-1.59-7-2.73zm12.79 6.84c5.31.45 10.87-1.6 13.28-5.7 2.41-4.34.48-8.44-6.52-11.86-12.07-5.7-23.65-1.6-32.82 15.28-4.59 8.43-3.38 13.91 4.58 17.78 5.07 2.51 10.14 3.2 14.73 1.83 4.82-1.14 7.96-3.65 9.89-6.84 2.17-4.34 1.21-7.53-3.38-10.04zm22.1 47.02c15.01-11.58 25.74-19.45 32.17-23.85l-6.91-6.71c-2.38 2.08-6.43 5.32-12.63 9.72-3.81-3.01-7.39-6.25-10.25-9.95 5.48-4.17 9.77-7.18 12.87-9.26l-7.15-6.95c-9.53 7.87-20.25 15.98-31.93 24.08l6.91 6.71c3.57-3.01 8.34-6.71 14.54-11.11a67.95 67.95 0 0110.24 9.96c-1.9 1.38-6.91 5.09-14.77 10.88zm20.03 8.23c8.05-4.16 15.59-4.68 20.62-3.38 2.02 1.04 3.52 2.6 4.53 4.68 1.76 3.9 0 7.02-7.29 10.92-8.05 4.16-16.1 5.2-19.87 3.9-2.26-1.04-3.77-2.34-4.52-4.16-2.27-4.68-.26-8.58 6.53-11.96zm31.44 0c-3.02-6.24-8.05-10.13-15.34-11.69-7.04-1.3-14.08-.26-21.38 3.38-9.55 4.93-11.56 12.99-7.79 21.05 3.02 5.98 7.79 9.88 14.33 11.44s14.08 0 22.13-4.16c8.8-4.42 12.07-11.44 8.05-20.02zm-7.41 37.86c4.22-.23 9.94 1.12 12.92 2.92 1.49 1.35 2.23 2.92 2.73 4.72.5 2.7-1.49 4.95-4.47 5.4-6.71 1.12-9.94-6.97-11.18-13.04zm-23.6 7.42c1.25 5.84 4.72 11.24 8.2 13.49 1.49-.22 3.48-1.35 3.97-2.47-.99-.9-1.98-2.25-3.22-4.05-1-2.03-1.74-3.6-1.99-5.4-1-4.5 1.74-7.42 7.95-8.32 1.24-.22 2.48-.22 3.72-.22 4.23 14.61 10.68 21.13 18.88 19.79 5.71-.9 9.19-5.18 7.95-11.92-1.24-6.07-4.97-10.57-11.68-13.49-6.45-2.93-13.91-3.6-22.1-2.25-8.94 1.8-13.17 6.97-11.68 14.84zm33.42 74.44c2.37.46 4.51-2.11 5.7-7.26 3.57-15.2-9.74-24.33-22.58-27.13-9.51-2.11-15.45 1.87-17.35 10.06-.96 4.21-.48 8.65 1.42 13.1 2.62.46 4.28.23 4.99-.94-.95-2.81-1.18-5.61-.71-7.95 1.19-4.68 4.76-6.55 11.17-5.15 8.09 1.87 14.5 5.85 16.88 9.59.71 1.64.95 3.51.48 5.15-.48 2.34-1.9 4.21-4.28 5.61 0 2.11 2.14 4.21 4.28 4.92zm-26.47 3.49c7.43 3.93 12.23 9.25 13.91 13.88.24 1.85 0 3.93-.96 5.78-1.92 3.47-5.52 3.7-12.23 0-7.44-3.93-12.71-9.48-13.91-12.95-.48-2.08-.24-3.93.72-5.55 2.16-3.94 6.23-4.4 12.47-1.16zm17.26 23.83c3.12-5.55 3.36-11.34.48-17.58-2.87-6.02-7.43-10.88-14.38-14.35-8.88-4.62-16.31-2.08-20.15 4.86-2.88 5.32-3.35 10.87-.72 16.66 2.4 5.78 7.68 10.64 15.35 14.57 7.91 4.4 15.11 3.24 19.42-4.16zm-33.82 20.13c1.45 4.11 1.21 9.36-.97 11.41-2.9 2.74-6.53 1.6-11.36-2.96-5.08-5.03-7.5-11.19-7.74-14.85.24-2.05 1.21-3.88 2.42-5.02 2.66-2.51 6.53-1.6 11.36 3.2 3.15 2.74 5.32 5.48 6.29 8.22zm5.32.45c6.53 9.82 7.01 18.27 1.45 25.12-5.32 6.85-6.77 11.42-4.35 13.93 1.69 1.6 3.14 2.29 4.35 2.06 0-1.6 1.21-3.66 3.39-6.85 2.17-2.97 3.62-5.03 4.59-6.63 3.39-5.93 3.39-13.93.24-21.46-2.9-7.54-7.74-14.62-13.78-20.55-8.47-8.22-16.45-8-22.01-2.74-4.59 4.11-6.28 9.36-5.8 15.52.73 6.4 3.63 12.11 8.46 16.9 6.05 5.94 13.06 6.63 18.14 2.06 4.11-3.66 5.8-10.28 4.59-17.13zm-60.59 50.54c0-.24-.92-3.61-2.77-10.35s-3.7-12.76-5.31-18.3c-1.62-5.54-2.78-9.15-3.47-10.59l-7.86 3.61c1.39 3.37 3.24 9.39 5.78 18.06a977.4 977.4 0 015.78 21.18zm14.34-40.93c.69 1.45 1.15 3.13 1.61 4.58-.23 2.89-.69 5.78-1.61 8.42-.93 2.65-2.32 4.34-3.7 5.06-1.62.72-3.01-.24-4.39-3.13-1.62-4.09-1.85-8.19-.47-12.76.93-1.93 2.31-3.37 4.16-4.33 1.85-.97 3.24-.24 4.4 2.16zm15.25 27.45c-.46-1.69-1.62-6.74-3.7-15.41-1.85-8.43-3.47-14.2-4.62-16.85-2.31-5.3-5.78-6.98-10.86-4.58-5.32 2.41-9.25 6.75-11.33 13-2.08 6.26-1.85 12.28.46 17.82 2.08 4.81 5.55 6.26 9.48 4.33 3.7-1.68 7.4-7.22 8.78-14.44h.23c.47 2.89.93 6.26 1.62 10.59.69 4.09 1.62 7.22 2.08 8.91zm-66.57 8.9c-1.14 3.99-1.6 7.75-1.83 11.74l8.69.22c0-2.44.68-7.97 2.05-16.84 1.15-8.64 2.52-15.51 3.66-20.38l-8.68-.22-1.15 6.87c-.68 3.76-1.37 6.64-1.82 8.64-.92 3.1-2.52 6.87-5.49 10.63-2.97 3.99-5.25 5.76-7.31 5.76-1.14 0-1.83-1.33-1.83-3.99.23-4.21 1.83-13.51 5.48-28.35l-7.99-.23-1.83 8.42c-.69 3.55-1.37 5.99-1.83 7.54-.91 2.88-2.51 6.2-5.48 10.19s-5.26 5.76-7.09 5.76c-1.37 0-2.05-1.33-2.05-4.21 0-2.22.91-7.09 2.51-14.85 1.6-7.75 2.51-12.18 2.74-13.29l-8.91-.22c0 1.33-.91 6.2-2.51 14.4-1.83 8.2-2.75 13.74-2.75 16.4-.23 4.43 2.52 7.53 6.17 7.53 5.49.22 10.74-3.99 15.77-12.41h.46c-.69 3.55-.92 5.54-.92 6.43-.22 4.21 2.06 6.42 5.72 6.64 5.02.22 11.19-4.43 15.76-12.4zm-74.48-29.47c3.3-4.53 5.95-9.05 7.71-13.57l-7.27-3.77c-1.32 3.52-4.19 9.3-8.59 17.59-4.41 8.29-7.94 14.57-10.8 18.84l7.71 4.02c2.87-5.53 5.51-10.05 7.71-13.57 2.21-3.52 5.29-6.53 9.48-9.54 4.18-3.02 7.05-4.02 8.81-3.02 1.54.75 1.76 2.76.66 5.53-.88 2.26-3.53 6.78-7.49 14.07-4.19 7.03-6.61 11.3-7.27 13.06l7.71 4.02c.66-1.51 3.08-6.28 7.49-13.82 4.41-7.53 7.05-12.56 7.93-15.07 2.42-5.78 1.32-9.8-3.08-12.06-2.65-1.26-5.73-1.26-9.48.5-3.74 1.76-7.49 4.27-11.01 7.54zm-26.52-7.7c-2.87 2.75-7.5 4.81-10.8 5.27-1.77-.23-3.31-.92-4.85-2.29-1.99-1.83-1.99-4.81-.22-6.87 4.19-4.58 11.46 0 15.87 3.89zm11.9-19.46c-4.41-4.12-10.14-6.18-13.88-6.18-.89.92-1.55 3.21-1.33 4.12 1.1 0 2.65.69 4.63 1.6 1.99.92 3.53 2.06 4.63 3.21 3.31 3.2 3.31 6.87-.44 11.22-.88.91-1.54 1.6-2.42 2.29-11.91-9.16-20.28-10.76-25.13-5.04-3.53 4.12-3.31 9.61 1.76 13.96 4.63 4.12 9.92 5.5 16.31 4.12 6.17-1.37 11.91-5.03 16.75-10.76 5.3-6.41 5.08-13.04-.88-18.54zM2607 1578.3c2.67 7.93 6.07 15.17 10.19 21.7 8.73-3.27 16.5-5.13 23.29-5.6 6.55-.47 10.44.23 11.41 2.1.48.93.48 1.63.24 2.33 2.18.47 4.37.24 5.82-.46 1.94-.94 2.67-3.04 1.46-5.84-1.7-3.73-6.31-5.36-13.59-5.36-7.52 0-16.01 1.63-26.2 4.66-1.7-2.1-2.92-4.66-3.64-7.7 2.42-.93 7.52-2.8 15.53-5.36 8-2.57 13.82-4.44 17.71-5.37l-3.89-8.4c-1.45.47-7.76 2.8-18.68 6.53-10.92 3.5-17.47 5.84-19.65 6.77zm15.37-24.12c-4.34.23-9.95-1.36-13.27-3.18-1.27-1.36-2.29-2.95-2.55-4.99-.51-2.72 1.79-4.99 4.85-5.22 6.63-.9 9.69 7.49 10.97 13.39zm24.49-6.81c-1.02-5.9-4.34-11.57-7.91-14.06-1.53.22-3.83 1.36-4.08 2.27 1.02.9 2.04 2.26 3.06 4.31 1.02 2.04 1.53 3.85 1.79 5.44.76 4.54-2.04 7.26-8.68 8.17-1.27.23-2.55.23-3.82.23-3.83-14.75-9.95-21.56-18.37-20.65-6.13.68-9.7 4.99-8.68 11.57 1.02 6.13 4.85 10.89 11.23 13.84 6.63 3.18 14.03 4.08 22.7 3.18 9.19-.91 13.78-6.13 12.76-14.3zm-32.6-39.44c-4.11-1.88-7.98-3.52-12.08-4.46l-2.18 8.45c2.66.7 8.46 2.58 17.4 5.87 8.95 3.28 15.96 6.1 20.79 8.21l2.17-8.45-7-2.81c-3.87-1.41-6.77-2.82-8.71-3.76-3.14-1.64-6.52-4.22-10.15-7.98-3.62-3.75-5.07-6.8-4.59-8.44.24-1.18 1.69-1.65 4.59-.94 4.35 1.17 14.02 4.93 29.01 11.97l1.93-7.98-8.46-3.76c-3.62-1.64-6.28-2.58-7.73-3.52-2.9-1.41-6.05-3.99-9.43-7.98-3.63-3.75-5.08-6.57-4.59-8.44.24-1.41 1.93-1.65 4.83-.94 2.18.47 7.25 2.58 15.23 6.1 7.98 3.28 12.33 5.4 13.53 5.63l2.18-8.92c-1.45-.23-6.28-2.34-14.74-5.86-8.22-3.76-14.02-5.87-16.92-6.57-4.6-1.18-8.46.7-9.67 4.46-1.45 5.39 1.69 11.49 9.67 18.77v.47c-3.63-1.41-5.8-2.35-6.53-2.35-4.35-1.17-7.49.7-8.22 4.22-1.21 5.17 2.18 12.21 9.67 18.78zm29.33-80.11c2.65 2.64 5.07 5.29 7.49 7.93 2.41 3.13 4.59 7.22 6.52 12.26 1.93 5.05 1.93 8.42.73 10.1-1.45 1.68-4.11 1.2-7.98-1.92-3.38-2.65-6.28-5.77-8.45-9.62-2.18-3.84-3.39-7.21-3.39-10.1.24-2.4.97-4.32 2.18-5.77.72-1.44 1.93-2.4 2.9-2.88zm31.41 17.07c-4.35-3.85-9.91-8.66-16.19-14.67s-10.63-10.58-13.29-13.22c-3.14 1.92-5.56 4.33-7.73 6.97-4.84 6.49-6.77 13.47-5.32 20.92 1.21 7.45 5.8 14.18 13.53 19.95 5.56 4.09 11.6 4.33 14.74 0 1.94-2.64 2.66-6.25 1.94-10.82-.73-4.56-2.42-9.13-5.08-13.7l.24-.24c1.45 1.68 3.63 3.85 6.29 6.49 2.65 2.65 4.59 4.09 5.55 5.05zm8.13-31.02c1.8 2.9.68 6.63-2.25 8.29-3.15 1.65-7.21.82-9.01-2.08s-.68-6.62 2.25-8.28c3.15-1.66 7.21-.62 9.01 2.07zm-498.64-568.946c-.74-3.631-1.48-7.988-1.73-12.829-.49-4.84.25-10.649 2.22-17.427 1.73-6.777 3.95-10.65 6.42-11.376 2.71-.726 4.93 1.695 6.91 7.504 1.72 5.083 2.22 10.165 1.97 15.974-.49 5.567-1.48 9.924-3.45 12.829-3.95 4.356-9.63 5.567-12.34 5.325zM2165 805.471c4.69 20.089 8.88 43.083 12.83 69.466 1.23.242 2.96-.242 5.67-.968 2.47-.726 4.2-1.452 4.69-2.421-1.23-7.019-2.22-13.07-2.71-18.153 10.11-2.42 17.51-8.471 21.96-17.669 4.44-9.198 4.68-19.605.98-31.224-2.71-7.987-8.39-12.102-15.05-9.923-3.94 1.21-7.15 4.357-9.62 9.439-2.47 5.083-3.95 10.892-4.44 17.427l-.49.243c-.25-2.905-.74-6.536-1.48-11.134-.74-4.599-1.24-7.504-1.73-8.956zm51-11.893c3.26 5.266 7.22 13.049 11.88 23.121 4.66 10.073 7.46 17.627 8.39 22.664-3.73 7.096-8.86 11.446-14.91 12.59-.93 1.832-.93 3.663 0 5.494.93 1.832 2.33 2.747 4.42 2.518 7.23-.686 16.08-10.759 22.13-28.386 2.1-5.723 4.2-12.59 5.83-20.832 1.63-8.241 2.79-15.566 3.26-21.747l-9.55 1.145c.23 5.494-.23 12.132-1.17 19.687-.93 7.554-2.09 13.506-3.49 17.627h-.47c-.93-3.892-2.79-9.615-5.82-16.94-3.03-7.326-5.82-13.507-8.15-18.314zm75.38 19.577c-.92 2.3-1.83 6.441-3.2 12.192-1.37 5.522-2.06 9.432-2.29 11.733l10.06.92c.23-3.451 1.6-10.352 3.88-20.704 2.29-10.352 4.34-18.864 6.17-25.305l-10.74-.921c-.91 4.371-1.83 8.052-2.74 11.043-1.14 3.68-3.43 7.131-6.17 10.352-2.97 3.22-5.48 4.601-7.54 4.601-2.05-.23-2.97-2.071-2.74-5.521.23-2.761 1.14-6.442 2.51-11.273 1.6-4.831 2.29-8.281 2.52-10.352l-10.74-.92c-.23 1.84-.92 5.751-2.52 11.272-1.59 5.521-2.28 9.662-2.74 12.653-.68 6.901 2.06 10.812 7.77 11.272 6.86.69 13.02-2.99 18.28-10.812zM2343.97 852c9.08-21.689 15.84-37.042 20.03-45.571l-11.18-3.656c-1.4 3.656-3.73 9.748-7.69 18.277-5.82-.974-11.18-2.924-16.3-5.361 3.26-7.798 6.05-13.891 8.15-18.034L2325.8 794c-5.36 14.622-12.11 29.731-19.8 45.571l11.18 3.656c2.1-5.361 5.13-12.429 8.85-20.958 5.59.975 11.18 2.924 16.31 5.361-1.17 2.925-4.2 9.748-9.32 20.715zm60.89-17.852c-2.72 3.647-5.7 7.051-8.67 10.213-3.47 3.404-8.18 6.565-14.13 9.726-5.95 2.918-10.16 3.648-12.39 2.432-2.48-1.459-1.98-4.62 1.24-9.97 2.73-4.62 6.19-8.511 10.41-11.672 4.21-3.161 8.43-5.107 12.14-5.593 2.98 0 5.46.486 7.69 1.702 1.48.973 2.72 2.189 3.71 3.162zM2388.26 875c3.96-5.836 9.17-13.131 15.61-21.885 6.69-8.511 11.4-14.59 14.13-17.995-2.73-3.404-6.2-6.079-9.91-8.268-8.93-5.106-17.85-6.079-26.77-3.404-9.17 2.675-16.61 9.24-22.56 19.454-4.21 7.295-3.71 14.59 2.23 17.994 3.72 1.946 8.18 2.189 13.64.73 5.45-1.459 10.9-4.377 16.35-8.268l.25.243c-1.98 1.945-4.46 4.863-7.19 8.511-2.72 3.648-4.46 6.079-5.2 7.538zm44.37 4.916c-7.28-4.998-8.92-10.71-5.4-14.755 2.12-2.618 5.17-4.046 8.69-4.76 3.06.714 5.4 1.904 6.81 3.094 2.12 1.904 3.29 3.57 3.29 4.522l-3.52 3.331-5.64 4.998zM2422.3 903c1.88-2.142 7.28-7.377 16.68-15.707 9.39-8.329 15.73-14.041 19.02-16.897-1.41-3.331-4.23-6.901-8.22-10.709-5.17-4.76-10.8-7.377-16.68-7.615-5.87-.476-10.56 1.428-14.32 5.473-3.76 4.284-3.76 10.234-.71 14.279l-.47.476c-9.86 2.618-17.85 3.808-23.48 3.094-.47 2.142.47 4.284 2.82 6.425 2.11 1.904 5.87 2.618 11.27 1.904s10.8-2.142 16.44-4.283l4.23 3.807c-7.05 5.95-11.75 10.234-14.09 12.851zm29.72 28.555c3.22-1.476 7.14-3.198 11.51-4.675 4.38-1.476 9.91-1.968 16.59-1.722s10.59 1.722 11.74 3.691c1.38 2.46-.69 5.166-5.53 8.364-4.37 2.707-8.98 4.429-14.5 5.413-5.3.738-9.45.738-12.67-.492-4.61-2.46-6.91-7.627-7.14-10.579zM2484.95 904c-17.73 8.857-38.23 17.96-61.95 27.801.23 1.23.92 2.952 2.07 5.166 1.15 2.215 2.31 3.691 3.23 4.183 6.22-2.706 11.74-4.921 16.35-6.643 4.37 9.349 11.28 15.254 20.73 17.468 9.44 2.46 19.11.492 29.02-5.905 6.9-4.182 9.44-10.825 6.21-16.729-2.07-3.445-5.52-5.905-10.82-7.381s-11.06-1.476-17.27-.492l-.23-.246c2.53-.738 5.98-1.968 9.9-3.691 4.14-1.722 6.68-2.952 7.83-3.69zm30.11 83.241c-4.21 1.088-8.43 1.632-12.64 1.904-4.68.544-10.07-.544-16.15-2.448-6.09-1.903-9.6-4.351-10.3-7.071-.7-2.992 1.64-5.44 7.25-7.616 4.92-1.904 9.84-2.448 14.99-1.904s9.12 1.904 12.17 4.08c2.1 2.176 3.51 4.624 4.21 7.072.24 2.72.47 4.351.47 5.983zM2477.37 1009c6.56-1.9 14.98-4.35 25.05-6.53 10.06-2.17 17.32-3.805 21.54-4.621.23-4.896-.47-9.52-1.64-13.871-3.05-10.608-8.66-18.223-16.62-22.575-8.2-4.352-17.56-4.624-28.33-.272-7.72 2.992-11.94 9.519-9.83 16.591 1.17 4.352 4.21 7.888 9.13 10.607 4.92 2.72 10.53 4.624 16.85 4.896l.24.544c-2.58.272-6.09.816-10.54 1.904-4.44 1.088-7.02 1.904-8.66 2.448zm34.54 16.49c5.26 1.87 10.27 6.07 10.51 9.57.48 4.67-3.34 7.48-11.22 8.18-8.6.93-16.72-1.64-20.54-4.44-1.91-1.87-3.1-3.97-3.34-6.3-.48-4.44 3.34-7.24 11.7-7.94 5.01-.47 9.31-.24 12.89.93zm4.3-4.44c14.57 1.64 23.16 7.48 26.03 17.75 2.86 10.04 6.45 14.95 10.51 14.48 2.86-.24 4.53-1.17 5.25-2.57-1.43-1.17-2.87-3.97-4.06-8.41-1.19-4.2-2.39-7.24-3.34-9.1-3.35-7.71-11.46-13.55-21.02-16.82-9.79-3.03-20.29-3.97-30.56-3.03-14.33 1.4-20.06 9.1-18.87 18.21.72 7.24 4.54 12.84 11.47 17.28 6.92 4.2 14.56 5.84 23.16 4.91 10.27-.94 16.24-7.01 15.28-15.18-.72-6.54-5.73-13.31-13.61-17.05zm-15.68 51.91c10.19 1.17 17.78 5.17 21.81 9.4 1.42 2.12 1.9 4.47 1.66 7.06-.47 4.7-4.27 6.58-13.52 5.64-10.19-1.18-18.49-4.94-21.57-8.47-1.43-2.35-2.14-4.46-1.9-6.58.71-5.88 5.22-7.99 13.52-7.05zm30.35 19.04c.71-7.76-1.66-14.34-7.83-19.98-5.93-5.64-13.51-8.94-22.76-9.88-12.1-1.17-18.97 4.94-20.16 14.82-.71 7.52 1.43 13.87 6.88 19.27 5.45 5.41 13.52 8.7 23.71 9.64 11.62.94 18.97-3.29 20.16-13.87zm-25.18 39.09c4.21 2.99 8.65 5.29 13.33 6.9l3.97-9.66c-2.81-1.16-9.35-4.15-19.41-9.44-9.82-5.06-17.53-9.44-22.91-12.89l-3.97 9.67 7.71 4.37c4.21 2.3 7.25 4.37 9.59 5.75 3.5 2.31 7.01 5.99 10.52 10.82 3.51 5.07 4.67 8.52 3.97 10.82-.46 1.38-2.33 1.61-5.37.46-4.91-1.84-15.44-8.06-31.8-18.18l-3.51 9.2 9.35 5.76c3.98 2.3 6.78 4.14 8.42 5.29 3.04 2.07 6.55 5.76 9.82 10.59 3.51 5.06 4.91 8.51 3.97 10.59-.7 1.61-2.57 1.84-5.84.46-2.57-.92-8.18-4.15-16.83-9.21-8.66-5.06-13.57-8.06-14.74-8.75l-3.97 10.13c1.64.69 7.01 3.68 16.13 9.21 9.12 5.52 15.43 8.97 18.71 10.12 5.14 2.08 10.05.46 11.69-3.91 2.34-6.21-.24-13.81-8.18-23.47l.23-.47c3.97 2.31 6.31 3.46 7.25 3.92 4.91 1.84 8.65.46 10.29-3.69 2.33-5.75-.71-14.73-8.42-23.47zm-39.36 95.51c-3.16-3.28-6.31-6.57-8.98-10.11-3.15-3.79-5.58-9.1-7.76-15.67-2.19-6.58-2.43-10.87-.97-12.9 1.69-2.27 4.85-1.51 9.94 2.53 4.13 3.29 7.53 7.33 10.2 12.14 2.67 4.8 4.12 9.1 4.12 12.89-.48 3.03-1.21 5.56-2.67 7.33-1.45 1.77-2.67 2.78-3.88 3.79zm-38.34-21.99c5.34 4.8 11.89 11.12 19.65 18.71 7.77 7.83 13.11 13.39 16.02 16.68 3.64-2.28 6.79-5.31 9.22-8.85 6.07-8.34 8.25-17.19 6.55-26.79-1.7-9.61-7.03-17.95-16.5-25.28-6.79-5.31-14.07-5.56-17.95 0-2.43 3.28-3.16 7.83-2.43 13.65.73 5.81 2.91 11.63 6.31 17.69l-.24.26c-1.7-2.28-4.37-5.06-7.53-8.35-3.15-3.28-5.58-5.3-6.79-6.32zm-97.02 68.04c.46 3.42.91 7.52.91 12.08 0 4.55-.91 10.02-2.97 16.17-2.06 6.38-4.35 9.8-6.64 10.26-2.52.68-4.35-1.83-5.95-7.52-1.37-4.79-1.6-9.8-.91-15.04.68-5.24 2.06-9.34 3.89-12.07 3.89-3.42 9.15-4.33 11.67-3.88zm16.02 38.28c-3.2-19.14-5.95-41.01-8.24-65.84-1.14-.23-2.75 0-5.26.68-2.29.45-3.89 1.14-4.58 2.05.69 6.61 1.37 12.3 1.6 17.31-9.61 1.83-16.71 7.07-21.28 15.27-4.58 8.43-5.5 18.22-2.52 29.16 2.06 7.52 7.32 11.85 13.27 10.02 3.67-.91 6.87-3.87 9.39-8.42 2.51-4.56 4.35-10.03 5.03-16.18h.46c0 2.73.23 6.15.69 10.48.45 4.33.91 7.06 1.14 8.43zm-51 13.79c-3.01-5.49-6.49-13.48-10.42-23.77-3.94-10.28-6.26-18.05-6.95-23.07 4.17-6.86 9.26-10.74 15.52-11.65.92-1.83 1.16-3.66.23-5.49-.7-1.83-2.09-2.74-4.17-2.74-7.18.46-16.68 9.82-23.63 26.96-2.55 5.48-4.86 12.34-6.95 20.56-2.08 8.23-3.7 15.31-4.63 21.48l9.73-.46c.23-5.48.93-12.11 2.08-19.65 1.16-7.54 2.78-13.25 4.4-17.36h.47c.69 3.88 2.31 9.82 4.63 17.14 2.55 7.54 4.87 13.7 7.18 18.73zm-74.64-25.09c1-2.44 2.51-6.84 4.27-12.7 1.76-5.87 2.77-10.02 3.27-12.46l-10.81-1.47c-.51 3.67-2.27 11-5.54 21.75-3.27 10.99-6.03 19.79-8.55 26.63l11.82 1.71c1.26-4.64 2.52-8.55 3.77-11.48 1.51-3.91 4.03-7.33 7.55-10.51s6.29-4.64 8.55-4.4c2.27.25 3.27 2.44 2.77 6.11-.5 2.69-1.51 6.84-3.52 11.73-2.01 5.13-3.02 8.79-3.27 10.75l11.82 1.71c.25-1.95 1.51-5.86 3.52-11.73 2.01-5.86 3.27-10.26 3.78-13.44 1-7.33-1.51-11.48-7.8-12.46-7.55-.98-14.59 2.44-20.88 10.26zM2173.5 1260c-10.31 20.05-17.81 33.88-22.5 41.94l11.02 4.15c1.4-3.46 4.45-8.99 8.67-16.82 5.62 1.38 11.01 3.22 16.17 5.99-3.75 7.14-6.8 12.67-9.14 16.59l11.01 4.15c6.33-13.37 13.6-27.42 22.27-41.94l-11.02-3.92c-2.34 5.07-5.62 11.29-10.07 19.13-5.63-1.39-11.02-3.23-16.18-5.99 1.41-2.54 4.69-8.99 10.55-19.13zm-61.79 11.06c2.88-3.35 5.76-6.71 9.12-9.59 3.59-3.35 8.39-6.23 14.39-8.62 5.99-2.64 10.07-3.12 11.99-1.68 2.16 1.44 1.68 4.79-1.68 9.83-2.88 4.31-6.48 7.9-10.79 10.78-4.32 2.87-8.4 4.55-12 5.03-2.87-.24-5.27-.96-7.19-2.16-1.68-1.19-2.88-2.39-3.84-3.59zm18.23-39.06c-4.08 5.51-9.59 12.46-16.31 20.61-6.95 8.15-11.75 13.66-14.63 17.01 2.4 3.6 5.52 6.23 9.11 8.63 8.16 5.51 16.79 6.95 25.67 4.79 8.87-2.15 16.55-8.15 23.02-17.97 4.56-6.95 4.32-14.14-1.2-17.73-3.35-2.16-7.67-2.64-13.19-1.68-5.51 1.2-10.79 3.59-16.31 7.43l-.24-.24c1.92-1.92 4.56-4.55 7.44-7.91 2.88-3.35 4.55-5.75 5.51-7.19zm-46.76-7.36c7.35 5.54 8.57 11.32 4.66 15.18-2.45 2.4-5.64 3.85-9.31 4.33-3.18-.96-5.39-2.17-6.86-3.61-2.2-2.17-3.18-3.86-3.18-4.82l3.92-3.13 6.12-4.82zm12-22.64c-1.96 1.93-8.08 6.98-18.36 14.93-10.29 7.95-17.15 13.25-20.82 15.9 1.22 3.37 3.92 7.23 8.08 11.32 5.14 5.06 10.78 7.95 16.9 8.67s11.26-.72 15.18-4.82c4.17-4.09 4.66-10.11 1.47-14.21l.49-.48c10.53-2.17 18.61-2.65 24.74-1.68.49-2.17-.25-4.58-2.7-6.75-2.2-2.17-6.12-3.13-11.51-2.65-5.63.24-11.26 1.45-17.38 3.37l-4.17-4.09c7.84-5.78 12.98-9.63 15.43-12.04zm-27.5-31.5c-3.72 1.16-7.95 2.54-12.67 3.46s-10.94 1.15-18.14.46c-7.21-.69-11.44-2.3-12.43-4.38-1.24-2.3.99-4.83 6.71-7.37 4.97-2.3 10.19-3.68 15.91-3.91 5.71-.46 10.19 0 13.67 1.38 4.72 2.76 6.95 7.83 6.95 10.36zm-37.27 23.5c19.63-7.14 42.49-14.28 68.59-21.65 0-1.15-.75-2.77-1.74-5.07s-2.24-3.69-3.23-4.15c-6.96 2.08-12.92 3.69-18.14 5.07-3.98-8.98-11.19-14.97-21.13-17.74-9.94-2.76-20.63-1.61-31.81 3.46-7.71 3.45-10.94 9.44-7.71 15.2 1.99 3.46 5.72 5.99 11.19 7.6 5.47 1.62 11.68 2.08 18.39 1.62l.25.46c-2.98.69-6.46 1.61-10.94 2.76-4.47 1.38-7.45 2.3-8.7 2.77zm-24.03-80.64c4.21-.7 8.66-.94 12.87-.94 4.68 0 10.07.94 16.15 3.04 6.09 2.11 9.37 4.21 10.07 6.55.7 2.57-1.87 4.44-7.73 6.07-4.91 1.41-9.83 1.64-14.98.94s-9.13-2.11-11.94-4.21c-2.1-2.1-3.27-4.21-3.74-6.31-.7-2.1-.94-3.74-.7-5.14zm38.86-16.36c-6.79 1.4-15.22 2.8-25.29 4.21-10.3 1.4-17.55 2.33-21.77 2.57-.46 4.2 0 8.18.94 12.15 2.58 9.35 7.72 16.13 15.45 20.33 7.96 4.21 17.32 4.91 28.32 1.87 7.96-2.1 12.41-7.48 10.77-13.55-.93-3.74-3.74-7.01-8.42-9.58-4.69-2.81-10.3-4.44-16.62-5.38v-.47c2.57 0 6.32-.46 10.53-.93 4.21-.7 7.26-1.17 8.66-1.64zm-31.33-18.74c-4.9-2.11-9.58-6.57-9.81-10.32-.23-4.69 3.5-7.27 11.45-7.5 8.4-.47 16.11 2.58 19.85 5.62 1.87 1.88 2.8 4.23 2.8 6.34.24 4.45-3.74 7.03-11.91 7.27-4.91.46-9.11-.24-12.38-1.41zm-4.44 4.22c-14.24-2.58-22.19-8.91-24.52-19.23-2.34-10.32-5.37-15.48-9.58-15.24-2.8.23-4.44.94-5.37 2.34 1.4 1.18 2.57 4.22 3.5 8.68.94 4.45 1.87 7.5 2.57 9.38 2.81 7.97 10.28 14.3 19.62 17.82 9.35 3.52 19.62 5.16 29.67 4.69 14.01-.7 20.08-7.97 19.62-17.12-.24-7.27-3.74-13.13-10.05-17.82-6.54-4.69-14.01-6.8-22.42-6.33-10.04.47-16.12 6.1-15.88 14.3.23 6.57 4.9 13.6 12.38 18.06zm17.3-50.42c-9.72-1.61-17.12-5.99-20.83-10.6-1.15-2.07-1.62-4.37-1.15-6.91.69-4.6 4.63-6.22 13.65-4.6 9.72 1.61 17.82 5.99 20.36 9.44 1.39 2.31 1.85 4.61 1.39 6.68-.7 5.53-5.32 7.37-13.42 5.99zm-28.46-20.27c-1.16 7.6.92 14.05 6.48 20.04 5.55 5.76 12.72 9.45 21.52 10.83 11.8 1.84 18.74-3.92 20.36-13.36 1.15-7.14-.7-13.59-5.79-19.12s-12.49-9.22-22.67-10.829c-10.65-1.613-18.05 2.299-19.9 12.439zm25.61-41.138c-4.36-3.482-8.72-6.217-13.32-8.455l-4.6 10.195c2.91 1.492 9.45 5.222 19.38 11.439s17.68 11.19 23.01 15.169l4.6-10.195-7.75-5.223c-4.12-2.735-7.27-4.973-9.45-6.714-3.39-2.735-7.02-6.714-10.17-12.433-3.39-5.72-4.36-9.698-3.39-11.936.72-1.492 2.42-1.492 5.57 0 5.09 2.238 15.5 9.449 31.73 21.634l4.36-9.698-9.2-6.714c-4.12-2.736-6.79-4.725-8.24-6.217-3.15-2.487-6.3-6.466-9.45-12.185-3.39-5.719-4.36-9.449-3.39-11.688.73-1.74 2.67-1.74 6.06-.248 2.66 1.243 7.99 4.973 16.71 11.19 8.72 5.968 13.56 9.45 14.78 10.196l4.84-10.693c-1.7-.746-7.02-4.476-16.23-10.693-9.2-6.466-15.5-10.444-18.65-12.185-5.33-2.487-10.41-.995-12.35 3.481-2.91 6.466-.49 14.921 7.02 25.862l-.24.497c-3.88-2.735-6.3-4.227-7.27-4.476-5.08-2.238-8.96-.994-10.9 3.482-2.66 6.217-.24 15.915 7.27 25.862zm44.95-93.181c3.17 3.295 5.86 6.354 8.55 9.884 2.93 3.765 5.13 8.941 7.08 15.059 1.96 6.119 1.96 10.119.25 12.001-1.71 2.118-5.13.942-9.78-2.823-4.15-3.295-7.33-7.295-9.52-11.766-2.45-4.706-3.67-8.706-3.42-12.236.48-2.824 1.46-5.177 3.17-6.824.98-1.412 2.2-2.589 3.67-3.295zm37.13 22.59c-5.13-4.706-11.48-10.824-18.81-18.589s-12.46-13.178-15.15-16.472c-3.91 2.118-7.08 4.706-9.77 7.765-6.6 7.295-9.04 15.531-8.06 24.473.97 8.941 6.1 16.942 15.14 24.472 6.6 5.177 13.69 5.883 18.08.941 2.69-3.059 3.67-7.059 3.18-12.471-.49-5.413-2.2-11.06-5.38-16.707l.25-.236c1.71 2.118 4.15 4.942 7.08 8.001 3.18 3.294 5.38 5.177 6.6 6.353zm301.54 350.559c3.3 5.1.82 11.54-5.5 14.2-6.31 2.66-14.28.67-17.58-4.44-3.3-5.1-.82-11.54 5.5-14.2 6.31-2.66 14.01-.67 17.58 4.44zm-271.83-401.627c2.91 5.311.73 12.008-4.86 14.779s-12.64.693-15.56-4.618c-2.91-5.311-.73-12.008 4.86-14.779 5.84-3.002 12.64-.923 15.56 4.618zM1669 156.618c1.87 8.6 2.8 19.112 3.03 31.058.24 11.945-.46 20.307-2.1 25.324l10.04-2.867c.47-3.822.7-9.795.24-18.396-.47-8.6-1.4-16.484-3.04-23.652l.7-.239c1.4 3.106 4.2 8.123 8.64 15.529 4.44 7.168 7.47 12.424 9.1 15.768 1.41.239 5.14-1.194 6.78-3.105a511.684 511.684 0 007.93-37.031l.47-.239c1.17 7.884 3.74 21.502 7.47 40.853l10.74-3.106c-2.33-9.078-5.84-26.757-10.74-53.515l-11.44 3.106c-1.87 9.795-4.43 21.979-7.94 36.553l-.7.239a1292.713 1292.713 0 00-17.27-29.386zm105.52-6.659c-.72 4.946-1.45 9.655-2.89 14.365-1.44 5.181-4.09 10.598-8.19 16.485-4.09 5.887-7.7 8.949-10.35 8.949-3.13 0-4.57-3.533-4.33-10.127 0-5.887 1.2-11.303 3.61-16.484 2.41-5.417 5.3-9.184 8.43-11.775 2.89-1.648 5.53-2.355 8.18-2.355 2.17 0 4.09.236 5.54.942zm6.5 47.099c.48-7.771 1.68-17.427 3.13-28.966 1.68-11.539 2.89-19.781 3.85-24.491-4.57-1.649-9.15-2.591-13.72-2.591-11.08-.235-20.22 3.533-27.45 10.833-7.22 7.3-10.83 17.427-10.83 30.379 0 9.184 4.57 15.778 11.8 15.778 4.57 0 8.9-2.119 13.48-6.358 4.57-4.239 8.18-9.891 11.07-16.485h.48c-.72 2.826-1.44 6.829-2.16 11.775-.73 4.945-.97 8.242-.97 9.891zm59.89-36.608c.69-3.006-2.54-5.78-9.45-7.629-20.27-4.855-32.71 12.714-36.63 29.359-3 12.484 2.3 20.344 13.13 23.118 5.76 1.387 11.52.693 17.51-1.85.69-3.467.23-5.548-1.15-6.704-3.92 1.156-7.37 1.618-10.6.925-6.45-1.618-8.52-6.473-6.68-14.795 2.53-10.635 8.06-19.188 12.9-22.193 2.31-.925 4.61-1.156 6.91-.463 3.23.694 5.53 2.774 7.61 6.011 2.53-.231 5.76-3.005 6.45-5.779zm21.74 19.43c4.14-4.311 7.56-9.102 10.48-13.892L1862.4 160c-1.7 3.114-6.58 10.06-14.38 20.359-7.56 10.539-14.14 18.443-19.02 23.952l10.73 5.988 6.34-8.143c3.41-4.312 6.34-7.665 8.53-9.821 3.42-3.592 8.05-6.946 14.63-10.06 6.59-3.113 10.97-4.071 13.41-2.634 1.47.958 1.47 2.874-.48 6.227-3.17 5.27-11.95 16.288-26.83 33.054l10 5.749 8.29-9.581c3.41-4.072 5.85-6.946 7.56-8.623 3.17-3.114 7.8-6.467 14.14-9.341 6.59-3.114 10.73-4.072 13.17-2.875 1.71.959 1.71 3.114-.49 6.707-1.46 2.635-6.09 8.623-13.9 17.485-7.56 8.862-11.7 14.132-12.68 15.329l11.22 6.228c.98-1.677 5.61-7.425 13.41-17.006 8.05-9.341 13.17-16.048 15.12-19.641 3.17-5.509 2.19-11.497-2.68-14.131-6.83-3.833-16.34-1.917-29.02 5.509l-.49-.24c3.42-4.072 5.12-6.707 5.61-7.665 3.17-5.269 1.95-9.82-2.68-12.455-6.34-3.593-17.31-1.676-29.02 5.509zm66.72 56.421c4.67-3.564 11.8-6.11 16.96-6.365 2.71.509 4.92 1.782 6.89 4.074 2.95 3.055 2.45 7.383-.74 10.438-6.39 6.365-16.96-1.782-23.11-8.147zm-20.4 27.497c6.15 6.619 14.5 10.693 20.16 11.202 1.47-1.273 2.95-4.583 2.46-6.11-1.72-.255-4.18-1.273-6.89-2.801-2.7-1.782-4.91-3.564-6.63-5.346-4.67-5.092-3.94-10.694 2.21-16.804 1.23-1.273 2.7-2.291 3.93-3.055 16.72 15.276 29.25 19.095 37.36 11.202 5.9-5.601 6.15-13.748-.73-21.386-6.39-6.874-14.26-9.675-24.09-8.402-9.59 1.273-18.68 6.111-26.79 14.003-8.85 8.402-9.34 18.586-.99 27.497zm34.69 26.23c3.68-1.709 8.05-3.417 12.88-4.882s11.04-1.953 18.63-1.465 11.96 1.953 13.11 4.394c1.38 2.686-.69 5.615-6.44 9.277-4.83 2.93-10.35 4.883-16.33 5.615-5.98.733-10.58.489-14.26-.976-4.83-2.93-7.36-8.789-7.59-11.963zM1980.92 260c-20.01 9.521-43.24 19.287-69.92 29.54.23 1.465.92 3.174 2.07 5.859 1.38 2.686 2.53 4.151 3.45 4.639 6.9-2.93 13.11-5.127 18.4-7.08 4.83 10.498 12.42 17.089 22.77 19.775 10.58 2.929 21.39.732 32.66-6.104 7.59-4.638 10.81-11.962 7.13-18.554-2.07-3.906-6.21-6.591-11.96-8.3s-12.19-1.953-19.32-.977l-.23-.488c2.99-.977 6.67-2.197 11.27-3.906 4.6-1.953 7.59-3.174 8.97-3.906zM2022 378.49c-3.11-1.152-8-3.686-14.22-7.603-6.22-3.916-9.56-6.22-9.78-7.603l-.22-1.612c4.44-.231 11.78-.231 21.33-.231l-2-12.441c-15.78 1.382-32.89 2.074-51.11 2.074l2 12.441c13.56-.922 22-1.613 24.89-1.613l.22 1.613c.22 1.612-2 2.995-5.55 5.299-2.23 1.382-6.23 4.147-9.56 6.911-5.78 4.839-8 7.834-7.33 11.75.44 2.765 1.55 5.53 3.33 8.525 3.56-4.608 11.56-11.52 24.22-21.196l25.78 17.049z"/><path d="M2021.57 448c2.07-11.291 2.75-22.111 2.29-32.461-12.14-1.412-22-3.999-29.79-7.763-7.8-3.528-11.69-6.821-11.46-9.644 0-1.176.45-2.117 1.14-2.823-2.29-1.882-4.58-3.058-6.87-3.293-2.75-.235-5.05 2.117-5.5 6.116-.46 5.645 3.66 10.585 12.14 14.819 8.48 4.47 19.26 7.998 32.55 10.821.69 3.763.46 7.527-.69 11.526-3.21-.235-10.31-1.412-21.08-3.529-10.55-2.117-18.57-3.528-23.38-4.704l-.92 12.702c2.06.235 10.54 1.647 25.21 3.999 14.67 2.587 23.38 3.999 26.36 4.234zm-20.38 51.925c-4.5-2.224-8.77-4.448-12.8-7.167-4.51-2.965-9.02-7.414-13.52-13.345-4.51-5.931-6.4-10.132-5.46-12.851.95-2.965 4.51-3.212 11.15-1.235 5.45 1.977 10.43 4.695 14.7 8.649 4.51 3.954 7.35 7.908 8.78 11.863.71 3.459.71 6.178-.24 8.649-.71 2.471-1.66 4.201-2.61 5.437zm-47.19-8.402c7.35 2.965 16.13 6.919 26.8 12.109s18.02 8.897 22.53 11.368c3.08-3.954 5.21-8.155 6.64-12.604 3.32-10.873 2.6-21.006-2.38-30.15-4.98-9.391-13.51-15.816-25.84-20.017-8.78-2.966-16.37-.495-18.74 6.672-1.42 4.449-.71 9.391 2.14 15.075 2.84 5.684 7.11 10.874 12.56 15.817l-.23.494c-2.61-1.73-6.17-3.46-10.67-5.684-4.51-2.224-7.59-3.46-9.25-3.954zm18.65 67.949c2.68 1.709 6.25-.732 9.6-7.322 10.26-19.038-2.24-37.099-16.73-46.374-10.71-6.834-19.41-4.15-24.99 6.102-2.9 5.369-4.01 11.471-3.34 18.305 2.9 1.709 5.13 1.953 6.47.977 0-4.15.67-8.055 2.23-10.984 3.12-5.858 8.25-6.834 15.39-2.197 9.14 5.858 15.39 14.157 16.73 20.015.22 2.685-.23 4.881-1.56 7.078-1.57 2.929-4.02 4.881-7.59 5.858 0 2.929 1.34 6.834 3.79 8.542zm-31.33 38.635c2.28 2.117 6.38.47 10.94-4.942 13.68-16.001 4.33-35.532-8.43-47.062-9.35-8.706-18.7-7.765-26.22.706-3.87 4.471-6.15 10.119-6.61 16.707 2.51 2.353 4.79 2.824 6.38 2.353.69-4 2.05-7.53 4.33-9.883 4.33-4.941 9.58-4.706 15.96 1.177 8.21 7.53 12.77 16.471 13.22 22.354-.23 2.589-1.14 4.706-2.73 6.353-2.06 2.354-5.02 3.765-8.67 4.001-1.14 2.118-.45 6.353 1.83 8.236zM1856 654.251c-2.13-8.428-3.31-18.495-4.02-30.435-.48-11.706 0-19.9 1.65-24.816l-10.17 3.043c-.48 3.746-.48 9.599.23 18.027s1.9 16.154 3.79 23.178l-.71.234c-1.42-3.044-4.5-7.96-9.23-14.984-4.49-7.023-7.81-11.939-9.7-15.217-1.42-.234-5.21 1.405-6.86 3.278-2.84 12.642-5.21 24.816-7.1 36.521l-.48.234c-1.42-7.725-4.26-21.07-8.51-39.799l-10.89 3.278c2.6 8.662 6.63 26.22 12.31 52.207l11.35-3.278c1.66-9.832 3.79-21.772 7.1-36.053l.71-.234c7.58 12.174 13.73 21.538 18.46 28.562zm-104.01 10.218c.43-4.714 1.09-9.204 2.18-13.694 1.09-4.938 3.48-10.102 7.19-15.938 3.71-5.837 6.76-8.531 9.15-8.755 2.84 0 4.15 3.142 4.15 9.653 0 5.612-.88 10.775-2.84 15.714-1.96 5.163-4.58 8.98-7.19 11.449-2.62 1.571-5.01 2.245-7.41 2.469-2.18 0-3.92-.224-5.23-.898zm-6.98-44.673c-.21 7.408-1.09 16.612-2.18 27.612-1.3 11-2.18 18.857-2.83 23.347 4.14 1.572 8.28 2.245 12.42 2.245 10.03-.224 18.31-3.816 24.41-11 6.33-7.184 9.38-16.837 9.16-29.184-.22-8.755-4.36-14.816-11.12-14.816-4.14 0-8.06 2.245-11.98 6.286-3.93 4.265-7.2 9.428-9.59 15.938h-.44c.65-2.918 1.09-6.51 1.53-11.224.43-4.714.65-7.857.65-9.429zm-59.92 39.238c-.7 3.053 2.8 5.87 9.81 7.279 20.81 4.461 32.96-13.618 36.47-30.759 2.57-12.679-2.81-20.663-14.03-23.011-5.84-1.174-11.68-.469-17.76 2.348-.7 3.522-.23 5.636 1.17 6.81 3.74-1.409 7.48-1.879 10.75-1.174 6.54 1.408 8.88 6.339 7.25 14.792-2.34 11.036-7.72 19.724-12.63 22.776-2.33.939-4.67 1.174-7.01.704-3.27-.704-5.84-2.582-7.71-5.87-2.57.47-5.61 3.053-6.31 6.105zm-21.9-21.284c-4.01 4.407-7.07 8.813-9.9 13.684L1663.9 657c1.65-3.015 6.12-9.741 13.43-20.178a407.21 407.21 0 0117.67-23.656l-10.6-5.567-6.13 7.886c-3.3 4.175-5.89 7.422-8.01 9.741-3.06 3.479-7.78 6.958-13.9 9.973-6.13 3.247-10.37 4.174-12.73 2.783-1.41-.696-1.41-2.783.24-6.03 2.82-5.103 11.07-16.003 25.21-32.702l-9.9-5.334-7.77 9.509c-3.3 4.174-5.66 6.958-7.07 8.581-2.83 3.247-7.31 6.494-13.43 9.509-6.13 3.247-10.37 4.175-12.49 3.015-1.65-.928-1.65-3.015.23-6.494 1.42-2.551 5.66-8.349 12.96-17.163 7.07-8.813 11.08-13.915 11.79-15.075L1632.32 580c-.94 1.623-5.18 7.19-12.49 16.699-7.54 9.277-12.25 15.771-14.14 19.25-3.06 5.566-1.88 11.132 2.83 13.684 6.6 3.478 15.79 1.623 27.81-6.031l.47.232c-3.07 3.943-4.95 6.494-5.42 7.422-2.83 5.102-1.65 9.509 2.83 11.828 6.36 3.247 16.96 1.16 27.8-6.03zm-70.94-53.439c-4.21 3.56-11.23 6.17-15.91 6.17-2.57-.474-4.68-1.661-6.78-3.56-2.81-2.848-2.34-6.882.47-9.73 6.08-6.17 16.14 1.187 22.22 7.12zm18.95-26.343c-5.85-6.171-14.03-9.731-19.42-9.968-1.17 1.187-2.57 4.272-2.34 5.696 1.64.237 3.98 1.186 6.56 2.61 2.57 1.662 4.68 3.086 6.31 4.747 4.68 4.746 3.98 9.968-1.87 15.663-1.17 1.187-2.34 2.136-3.74 3.086-16.15-14.003-28.08-17.088-35.8-9.493-5.38 5.458-5.38 13.053 1.17 19.935 6.08 6.408 13.8 8.781 23.16 7.357 9.13-1.424 17.55-5.933 25.27-13.765 8.43-8.306 8.66-17.562.7-25.868zm-31.59-26.892c-3.65 1.594-7.75 3.416-12.77 4.782-4.79 1.595-10.95 2.05-18.48 1.822-7.52-.227-11.86-1.594-13.22-3.871-1.37-2.506.68-5.466 6.15-8.655 4.79-2.961 10.04-4.783 15.97-5.694s10.49-.683 14.14.456c5.25 2.733 7.98 8.199 8.21 11.16zM1543.35 560c19.61-9.338 42.42-19.131 68.65-29.38-.23-1.366-.91-2.961-2.28-5.466s-2.51-3.872-3.65-4.327c-6.84 2.961-13 5.238-18.25 7.06-5.01-9.793-12.77-15.715-23.03-17.992-10.5-2.278-21.22-.228-32.39 6.377-7.53 4.555-10.49 11.387-6.84 17.537 2.28 3.644 6.15 6.149 12.08 7.515 5.93 1.367 12.09 1.595 19.16.456l.23.455c-2.96.911-6.61 2.278-11.17 3.872-4.57 1.822-7.53 3.189-8.67 3.872zm-46.79-114.538c3.5.923 8.39 3.461 15.15 7.153 6.76 3.693 10.03 6 10.26 7.385l.23 1.615c-4.66.462-12.12.462-22.37.923l2.56 12.462c16.55-1.846 34.5-3 53.61-3.462l-2.33-12.23c-14.22 1.384-22.84 2.077-26.11 2.307l-.23-1.615c-.23-1.615 1.87-3 5.59-5.538 2.34-1.385 6.3-4.385 9.79-7.154 5.83-4.846 8.16-8.077 7.46-12-.46-2.77-1.86-5.539-3.73-8.308-3.49 4.615-11.88 12-24.94 21.923l-27.5-16.385z"/><path d="M1495.69 374c-1.61 11.169-2.07 21.873-1.38 32.111 12.21 1.164 22.35 3.491 30.19 6.748 8.06 3.491 11.98 6.516 11.75 9.308 0 1.163-.46 2.094-1.15 2.792 2.3 1.862 4.84 2.792 7.14 3.025 2.76.233 5.07-2.094 5.3-6.283.23-5.584-3.92-10.238-12.44-14.426-8.53-4.421-19.59-7.446-32.95-9.773-.7-3.723-.47-7.446.46-11.402 3.22.233 10.37 1.163 21.2 2.792 10.59 1.629 18.66 3.025 23.73 3.956l.46-12.565c-2.07-.233-10.6-1.164-25.58-3.258-14.74-1.862-23.73-3.025-26.73-3.025zm21.48-50.182c4.37 1.842 8.75 3.915 12.66 6.448 4.38 2.534 8.99 6.679 13.36 11.976 4.61 5.297 6.45 9.442 5.53 11.975-.92 2.764-4.38 3.224-10.59 1.382-5.53-1.612-10.14-4.145-14.51-7.83-4.38-3.685-7.38-7.139-8.76-10.824-.69-2.994-.69-5.758 0-8.061.46-2.303 1.38-3.915 2.31-5.066zm45.83 6.679c-7.14-2.534-15.89-5.988-26.26-10.594-10.36-4.606-17.73-7.83-22.11-9.903-2.76 3.685-4.83 7.6-5.99 11.976-2.99 10.133-1.84 19.575 3 28.096 5.07 8.521 13.59 14.509 25.56 17.963 8.53 2.533 15.9 0 17.97-6.679 1.15-4.145.46-8.751-2.53-14.048-2.77-5.297-7.14-10.133-12.67-14.508l.23-.461c2.53 1.382 6.22 3.224 10.59 5.066 4.38 1.843 7.37 2.994 9.22 3.455zm-20.42-69.999c-2.84-1.695-6.63.968-9.94 7.505-10.42 19.127 3.31 36.56 18.69 45.518 11.36 6.537 20.83 3.632 26.27-6.779 2.84-5.327 4.03-11.38 3.08-18.159-3.08-1.695-5.44-1.937-6.86-.726.23 4.116-.48 7.99-2.13 10.895-3.32 6.053-8.76 7.021-16.33 2.663-9.94-5.568-16.57-13.558-18.23-19.369-.23-2.663.24-4.842 1.42-7.021 1.66-2.906 4.26-4.843 7.81-5.811.48-3.39-1.18-7.263-3.78-8.716zm30.95-38.614c-2.31-2.203-6.47-.245-11.1 5.387-13.42 16.894-3.7 36.971 9.72 48.723 9.71 8.814 19.2 7.59 26.6-1.469 3.7-4.897 6.02-10.528 6.25-17.384-2.78-2.203-4.86-2.938-6.48-2.203-.69 4.162-2.08 7.835-4.16 10.283-4.17 5.387-9.72 5.142-16.2-.734-8.33-7.591-13.42-16.894-13.88-23.015.23-2.694 1.16-4.897 2.54-6.856 2.09-2.693 4.86-4.162 8.56-4.407 1.39-2.204.47-6.366-1.85-8.325zm63.81-20.643c3.72 6.534.93 14.871-5.82 18.25-6.75 3.38-15.13.901-18.86-5.633-3.72-6.534-.93-14.87 5.82-18.25 6.99-3.605 15.37-.901 18.86 5.633zm267.98 398.661c3.77 6.316 1 14.373-6.28 17.64-7.54 3.266-16.59.871-20.36-5.444-3.77-6.316-1-14.373 6.28-17.64 7.54-3.266 16.59-.871 20.36 5.444zM1567.5 1397.43c-.75 1.49-2.25 3.84-4.75 7.05-2.5 2.99-4 4.7-4.5 4.7h-1c0-2.35.25-5.77.5-10.68l-7.25.64c.25 7.91 0 16.67-.5 25.86l7-.64v-12.61h1c1 0 1.75 1.07 2.75 2.99.75 1.28 2.25 3.21 3.75 4.92 2.5 2.99 4.25 4.27 6.5 4.06 1.5-.22 3.25-.64 5-1.5-2.5-1.92-6.25-6.2-11.25-12.82l10.5-12.4zm17 16.14c.93-5.61 3.49-9.88 6.05-11.91 1.16-.67 2.56-.89 4.18-.67 2.79.45 3.72 2.47 2.79 7.64-.93 5.62-3.48 10.11-5.58 11.69-1.39.67-2.56 1.12-3.95.89-3.02-.44-4.19-2.92-3.49-7.64zm11.86-16.4c-4.42-.67-8.37.67-11.86 3.82s-5.58 7.19-6.28 12.36c-1.16 6.74 2.33 10.79 7.91 11.46 4.19.67 8.14-.45 11.39-3.37 3.26-2.92 5.35-7.19 6.28-13.03.93-6.07-1.39-10.34-7.44-11.24zm28.28 38.83c6.73-11.65 11.44-19.73 14.36-24.25l-6.06-2.85c-.9 1.9-2.91 5.23-5.61 9.74-3.14-1.19-6.05-2.61-8.75-4.28 2.47-4.28 4.49-7.37 5.84-9.51l-6.06-2.85c-4.04 7.85-8.75 15.93-14.36 24.25l6.06 2.85c1.57-2.85 3.59-6.65 6.5-11.17 3.15.95 6.06 2.38 8.75 4.28-.89 1.43-3.14 5.23-6.73 10.94zm38.29-5.43c-1.77.71-5.06 1.41-9.36 1.88-4.3.7-6.58.7-7.09.23l-.76-.47c2.03-1.64 5.32-4.22 9.62-7.75l-5.57-4.46c-6.83 6.11-14.42 12.45-22.77 19.03l5.57 4.46c5.82-5.17 9.36-8.46 10.88-9.4l.75.47c.76.47.26 1.88-.5 4.23-.51 1.41-1.27 3.76-1.77 6.34-1.01 4-.76 6.11 1.01 7.52 1.26.94 2.78 1.65 4.55 2.35 0-3.05 1.02-8.93 3.29-17.38l18.22-2.12zm8.75 9.43c-1.87 3.22-4.93 7.36-8.92 12.65-3.99 5.05-7.27 8.73-9.62 10.8-4.93 0-8.45-1.15-10.8-4.14-1.17 0-2.11.69-2.81 1.61-.71.92-.71 1.84 0 2.99 2.35 3.45 10.33 5.29 21.36 3.22 3.52-.46 7.74-1.38 12.67-2.99s8.92-2.99 12.44-4.37l-3.29-4.6c-2.81 1.61-6.33 3.22-10.79 5.06-4.23 1.61-7.75 2.76-10.33 3.22l-.23-.23c1.87-1.61 4.22-4.14 7.27-7.82 3.05-3.67 5.4-6.66 7.28-9.42zm-4.57 42.42c2.14-.51 4.52-1.02 7.37-1.27s6.18 0 9.99 1.01c3.8 1.02 6.17 2.28 6.65 3.55.48 1.52-.95 3.04-4.28 4.31-2.85 1.01-5.94 1.52-9.03 1.52-3.33-.25-5.7-.76-7.61-1.78-2.37-2.02-3.09-5.57-3.09-7.34zm22.58-12.42c-11.41 3.29-24.72 6.33-39.69 9.12 0 .76.24 1.78.71 3.3.48 1.52.95 2.53 1.43 2.78 4.04-.76 7.37-1.52 10.46-2.02 1.66 6.08 5.23 10.39 10.46 12.92 5.46 2.53 11.41 2.53 18.06 0 4.52-1.77 6.89-5.32 5.47-9.38-.72-2.28-2.62-4.05-5.71-5.57s-6.42-2.28-10.22-2.28v-.25c1.67-.26 3.8-.51 6.42-1.02 2.61-.5 4.28-1.01 4.99-1.27zm9.11 51c1.62-.23 2.54-2.27 2.08-5.91-1.15-10.67-11.77-13.85-20.78-12.94-6.69.68-9.7 4.54-9 10.22.23 2.95 1.61 5.68 3.92 8.18 1.85-.23 2.77-.91 3-1.59a9.82 9.82 0 01-2.3-5c-.47-3.41 1.61-5.23 6.23-5.68 5.77-.68 10.85.68 13.16 2.5.92.91 1.38 2.04 1.38 3.18.24 1.59-.46 3.18-1.61 4.54.46 1.36 2.31 2.5 3.92 2.5zm-8.1 54.23c-1.31-1.4-3.15-3.96-5.25-7.46s-3.14-5.6-2.88-6.07l.26-.93c2.36 1.16 6.3 3.03 11.55 5.83l2.62-6.3c-8.92-3.73-18.11-8.17-27.82-13.3l-2.62 6.3c7.61 3.5 12.07 5.37 13.65 6.3l-.27.93c-.26.7-1.83.94-4.46.94-1.57 0-4.46.23-7.35.46-4.46.47-6.56 1.4-7.34 3.27-.53 1.4-.79 3.03-.79 4.67 3.15-1.17 9.71-2.1 19.42-2.8l8.66 14.93zm-25.51 5.93c5.21 3.59 8.33 7.9 9.11 11.49 0 1.43-.52 2.87-1.3 4.07-1.82 2.39-4.42 2.15-9.37-1.2-5.21-3.59-8.85-8.14-9.37-10.77 0-1.67.26-2.87 1.04-4.07 2.34-2.63 5.72-2.63 9.89.48zm10.94 18.91c2.86-3.83 3.64-7.9 2.08-12.69-1.56-4.54-4.69-8.61-9.37-11.72-6.25-4.31-12.24-3.11-15.89 1.67-2.86 3.59-3.64 7.66-2.34 11.97 1.3 4.3 4.69 8.37 10.15 11.96 5.73 3.83 11.2 3.83 15.37-1.19zm-51.13 5.87c7.5 11.81 12.5 20 15.25 25.06l5.75-4.34c-1.25-1.93-3.5-5.06-6.25-9.88 2.5-2.41 5.5-4.58 8.5-6.5 2.75 4.33 4.75 7.71 6 10.12l5.75-4.34c-5.25-7.47-10.25-15.9-15.5-25.06l-5.75 4.34c2 2.89 4.25 6.5 7.25 11.32-2.5 2.41-5.5 4.58-8.5 6.51-1-1.45-3.25-5.3-7-11.57zm-11.71 37.79c.21-2.01.85-5.03 1.92-9.06 1.08-4.02 1.93-6.29 2.58-6.54l.85-.25c.65 2.51 1.29 6.79 2.57 12.33l5.79-2.77c-2.36-9.06-4.5-18.87-6.43-29.44l-5.57 2.77c1.93 7.8 3 12.58 3.43 14.34l-.86.25c-.64.25-1.71-.75-3.21-2.51-.86-1.26-2.57-3.02-4.29-4.79-2.78-2.76-4.71-3.52-6.43-2.76-1.28.5-2.35 1.51-3.64 3.02 2.57 1.51 6.86 5.28 12.64 11.57l-5.35 17.11z"/><path d="M1604 1647.66c-2.29-3.11-4.84-7.88-7.9-14.09s-5.1-10.75-5.86-13.85c2.29-4.54 5.35-7.17 9.43-7.88.51-1.2.51-2.15 0-3.35-.51-1.19-1.53-1.67-2.81-1.43-4.59.48-10.19 6.69-13.76 17.67-1.28 3.58-2.3 7.88-3.32 12.9A99.64 99.64 0 001578 1651l6.12-.72c-.26-3.34 0-7.4.25-12.18.51-4.77 1.02-8.35 2.04-10.74h.26c.51 2.39 2.04 5.97 4.08 10.27 2.03 4.53 3.82 8.12 5.6 10.98zm-36.39-21.87c-.46 2.12-1.16 4.47-2.08 7.07-.92 2.59-2.77 5.42-5.31 8.48s-4.62 4.48-6.01 4.24c-1.61-.24-2.07-2.12-1.61-5.42.46-3.06 1.38-5.89 3-8.72s3.23-4.71 4.85-5.89c2.77-1.18 6-.47 7.16.24zm.23 25.21c2.54-11.55 6-24.51 10.16-38.88-.69-.47-1.62-.71-3-.94-1.39-.24-2.54-.24-3 0-1.16 3.77-2.08 7.3-3.01 10.13-5.77-1.18-10.62.23-15.01 3.77-4.38 3.77-7.15 8.95-7.85 15.79-.69 4.71 1.39 8.24 5.08 8.72 2.31.23 4.62-.71 7.16-2.6 2.54-2.12 4.62-4.71 6.47-8.01h.23c-.69 1.65-1.16 3.54-2.08 6.13-.69 2.59-1.15 4.24-1.15 4.95zm-52.68-14.75c-.72 1.65.97 3.3 4.58 4.71 10.59 4 18.77-4.24 22.14-12.72 2.65-6.36.48-11.07-5.29-13.19-2.89-1.18-6.26-1.41-9.63-.47-.72 1.65-.48 2.83 0 3.53 2.16-.47 4.09-.23 5.77.47 3.37 1.18 4.1 4.01 2.41 8.25-2.16 5.41-5.77 9.42-8.66 10.83-1.21.24-2.65.24-3.85-.23-1.69-.71-2.89-1.89-3.61-3.77-1.45 0-3.13.94-3.86 2.59zm-41.23-34.06c1.88-.47 4.7-.7 8.7-.7 3.99 0 6.34 0 6.57.47l.71.71c-2.11 1.41-5.4 3.54-9.87 6.37l4.47 4.96c7.04-5.43 14.8-10.62 23.49-16.06l-4.46-4.95c-6.11 4.48-9.87 7.08-11.28 8.02l-.71-.7c-.47-.71 0-1.89 1.18-4.02.7-1.42 1.64-3.78 2.58-5.9 1.41-3.78 1.41-5.9 0-7.56-.94-1.18-2.35-2.12-3.99-2.83-.24 3.07-2.12 8.74-5.4 16.76H1469zm5.78-23.43c-5.07 2.69-9.69 3.18-12.77 2.2-1.32-.73-2.2-1.71-2.86-2.94-1.1-2.69 0-4.89 4.62-7.34 5.06-2.69 9.91-3.42 12.33-2.69 1.32.74 2.2 1.72 2.86 2.94 1.32 2.93 0 5.38-4.18 7.83zm-19.6 0c1.99 4.16 5.07 6.85 9.47 7.83 4.4.97 8.81.24 13.43-2.45 5.94-3.43 7.26-8.81 4.84-14.19-1.76-4.16-4.84-6.6-8.8-7.58-4.19-.98-8.81 0-13.87 2.93-5.51 3.18-7.71 7.83-5.07 13.46zm13.55-45.76c-13.03 1.1-22.17 1.53-27.66 1.53l1.37 6.36c2.06-.22 5.72-.66 10.97-.88.92 3.07 1.6 6.13 1.83 9.2-4.8.22-8.46.44-10.97.44l1.37 6.35c8.46-.88 17.6-1.53 27.43-1.75l-1.37-6.35c-3.2.43-7.32.65-12.57.87-.92-3.07-1.6-6.13-1.83-9.2 1.6-.22 5.94-.44 12.57-.66zm-26.26-28.4c1.64.91 3.74 2.96 6.55 5.69 2.8 2.73 4.2 4.56 4.2 5.01v.91c-2.33-.45-6.31-1.36-11.45-2.73l-.7 6.6c8.65 1.37 17.76 3.42 27.58 5.92l.7-6.37c-7.48-1.37-11.92-2.28-13.56-2.51v-.91c0-.91 1.4-1.36 3.74-1.82 1.4-.46 3.74-1.14 6.08-2.28 3.74-1.59 5.37-2.96 5.37-4.78.24-1.36 0-2.96-.7-4.55-2.57 1.82-7.71 4.33-15.89 7.29l-11.45-12.07zm4.6-13.5c3.56-.48 8.45-.48 14.67-.24 6.23.24 10.9.71 13.79 1.41 2.67 4.01 3.78 7.78 2.89 11.32.67.94 1.56 1.41 2.89 1.41 1.11 0 2-.47 2.45-1.65 1.33-4.01-1.56-11.55-9.12-19.32-2.45-2.6-5.56-5.42-9.34-8.49-3.78-3.06-7.34-5.65-10.23-7.54l-1.77 5.42c2.89 1.41 6.22 3.3 9.78 5.66 3.78 2.35 6.45 4.71 8.22 6.6v.23c-2.22-.47-5.55-.94-10-1.41s-8.45-.47-11.34-.47zm32.85-20.95c-1.54-1.51-3.07-3.27-4.83-5.53s-3.29-5.28-4.83-9.3c-1.53-4.03-1.75-6.54-1.09-7.8.87-1.26 2.63-1.01 5.26 1.26 2.42 1.76 4.39 4.02 5.93 7.04 1.53 2.77 2.63 5.28 2.85 7.54 0 3.27-1.97 6.04-3.29 6.79zm-20.85-12.07c8.34 8.05 17.78 17.6 27.87 28.92.66-.5 1.1-1.26 1.98-2.51.87-1.26 1.31-2.27 1.09-3.02-2.85-3.02-5.04-5.53-7.02-7.8 3.51-5.03 4.61-10.31 3.29-16.34-1.09-6.04-4.39-11.32-9.65-15.34-3.73-2.77-7.46-2.77-9.44.75-1.32 2.01-1.54 4.78-.88 8.05s1.98 6.79 3.73 10.06l-.22.25c-1.09-1.26-2.41-3.02-4.17-4.78-1.75-2.01-3.07-3.27-3.51-3.77zm35.54-37.48c-1.13-1.16-3.15-.69-5.84 1.84-8.08 7.16-4.49 17.77 1.35 24.47 4.26 5.07 9.2 5.3 13.46 1.38 2.25-2.08 3.82-4.62 4.49-8.08-1.12-1.38-2.24-1.84-3.14-1.61-.67 2.07-1.57 3.69-2.69 4.84-2.47 2.31-5.17 1.85-8.08-1.61-3.59-4.39-5.61-9.23-5.39-12.23.23-1.16.9-2.31 1.8-3 1.12-1.16 2.69-1.62 4.71-1.39.45-1.38.22-3.46-.67-4.61zm33.46-3.6c0 3.43-3.16 6-7.37 6s-7.63-2.79-7.63-6c0-3.43 3.42-6 7.63-6s7.37 2.57 7.37 6zm162 123c0 4-3.65 7-8.14 7-4.21 0-7.86-3.25-7.86-7 0-4 3.65-7 7.86-7 4.49 0 8.14 3.25 8.14 7zm-180 77c0 3.43-2.51 6-5.6 6-2.89 0-5.4-2.79-5.4-6 0-3.43 2.51-6 5.4-6 3.09 0 5.6 2.57 5.6 6z"/></g></svg>