<svg fill="none" height="5866" width="3000" xmlns="http://www.w3.org/2000/svg"><clipPath id="a"><path d="M0 0h3000v5866H0z"/></clipPath><g clip-path="url(#a)"><path d="M0 0h3000v5866H0z" fill="#000"/><g clip-rule="evenodd" fill="#e5533d" fill-rule="evenodd"><path d="M1027 277h72.95v945.98H1027zm873.03 0h72.95v945.98h-72.95zm-436.28 0h72.48v290.852h-72.48z"/><path d="M1027 277h945.98v72.951H1027zm436.75 654.654h72.48v291.326h-72.48z"/><path d="M1027 1150.03h945.98v72.95H1027zm654.65-436.276h291.33v72.475h-291.33z"/><path d="M1027 1150.03h72.95v945.99H1027zm873.03 0h72.95v945.99h-72.95zm-436.28 0h72.48v291.33h-72.48z"/><path d="M1027 1150.03h945.98v72.95H1027zm0 873.03h945.98v72.96H1027zm0-436.27h509.23v72.47H1027z"/><path d="M1027 2023.06h72.95v945.99H1027zm873.03 0h72.95v945.99h-72.95zm-436.28 0h72.48v291.33h-72.48z"/><path d="M1027 2023.06h945.98v72.96H1027zm0 873.03h945.98v72.96H1027z"/><path d="M1463.75 2678.19h72.48v290.86h-72.48zM1027 2896.09h72.95v945.99H1027zm873.03 0h72.95v509.71h-72.95z"/><path d="M1463.75 3332.85h509.23v72.95h-509.23zM1027 2896.09h945.98v72.96H1027zm0 873.51h509.23v72.48H1027z"/><path d="M1463.75 3332.85h72.48v509.23h-72.48zM1027 3769.6h72.95v945.51H1027zm873.03 0h72.95v945.51h-72.95z"/><path d="M1463.75 3769.6h72.48v290.85h-72.48z"/><path d="M1027 3769.6h945.98v72.48H1027zm0 873.03h945.98v72.48H1027zm0-436.75h509.23v72.95H1027z"/><path d="M1027 4642.63h72.95v945.51H1027zm873.03 0h72.95v800.09h-72.95zm-436.28 327.09h72.48v145.91h-72.48z"/><path d="M1027 4642.63h945.98v72.48H1027zm0 873.04h509.23v72.47H1027z"/><path d="M1463.75 5370.24h72.48v217.9h-72.48z"/><path d="M1463.75 5370.24h509.23v72.48h-509.23z"/></g></g></svg>