<svg fill="none" height="2001" width="3000" xmlns="http://www.w3.org/2000/svg"><path d="M0 0h3000v2001H0z" fill="#000"/><g fill="#e5533d"><path d="M93.5 1240.2l-1.1 3.5 31.1-11.7-1.6-2.5zm26.3 17.8l6.3-6.5c.8-.8 1.2-1.7 1.2-2.7 0-.67-.167-1.43-.5-2.3l-16.5-45h.5l-17.4 44.4c-.4 1-.6 1.93-.6 2.8 0 1.07.4 2 1.2 2.8l6.3 6.5H79l7.4-7.3c.8-.73 1.5-1.5 2.1-2.3.6-.87 1.133-1.87 1.6-3l16.4-41.8c.6-1.47.9-2.83.9-4.1 0-2-1.067-4.07-3.2-6.2l-5.4-5.3h24.1l21.5 57.3c.467 1.27.967 2.27 1.5 3s1.267 1.53 2.2 2.4l7.4 7.3zm72.612-32.9v3c-3.4 1.13-6.3 2.4-8.7 3.8-2.334 1.33-4.234 2.77-5.7 4.3-1.467 1.53-2.534 3.13-3.2 4.8-.667 1.6-1 3.23-1 4.9 0 2.13.666 3.87 2 5.2 1.333 1.27 3.066 1.9 5.2 1.9 1.2 0 2.4-.27 3.6-.8 1.266-.53 2.5-1.23 3.7-2.1s2.3-1.87 3.3-3c1.066-1.2 2-2.43 2.8-3.7l-3.7-24.6c-.534-3.2-1.6-5.9-3.2-8.1-1.534-2.27-3.8-3.4-6.8-3.4-2.134 0-3.867.63-5.2 1.9-1.267 1.2-2.3 2.93-3.1 5.2l-5.1 14.7h-.4l-4-25.6a16.55 16.55 0 002.7 1.7c.733.4 1.566.77 2.5 1.1.933.33 1.766.5 2.5.5.933 0 1.833-.13 2.7-.4.933-.33 2.166-.67 3.7-1 2.666-.6 5.2-.9 7.6-.9 2.733 0 5.3.3 7.7.9 2.466.6 4.666 1.6 6.6 3 2 1.4 3.666 3.27 5 5.6 1.333 2.27 2.266 5.13 2.8 8.6l3.5 22.6c.333 1.93.9 3.37 1.7 4.3l8.6 8.5h-23.8l-1.6-10.3c-2.6 3.8-5.934 6.63-10 8.5-4 1.87-8.4 2.8-13.2 2.8-2.067 0-3.967-.23-5.7-.7-1.734-.47-3.267-1.17-4.6-2.1a11.11 11.11 0 01-3-3.6c-.734-1.4-1.1-3.07-1.1-5 0-2.2.6-4.3 1.8-6.3 1.266-2.07 3.266-4.03 6-5.9 2.8-1.87 6.4-3.63 10.8-5.3 4.466-1.73 9.9-3.4 16.3-5zm106.015 11.9c1.2-1.67 2.6-3.2 4.2-4.6a30.99 30.99 0 015.3-3.6c1.867-1 3.767-1.77 5.7-2.3 2-.6 3.934-.9 5.8-.9 5.2 0 9.4 1.17 12.6 3.5 3.2 2.27 4.8 5.43 4.8 9.5 0 2.87-.766 5.5-2.3 7.9-1.466 2.4-3.5 4.47-6.1 6.2-2.6 1.67-5.7 2.97-9.3 3.9s-7.5 1.4-11.7 1.4h-35.9l7.9-7.9c.934-.93 1.567-1.77 1.9-2.5.334-.73.5-1.93.5-3.6v-42c0-1.67-.166-2.87-.5-3.6-.333-.73-.966-1.57-1.9-2.5l-7.9-7.9h35.2c2.267 0 4.634-.1 7.1-.3 2.467-.2 4.7-.43 6.7-.7 2.334-.27 4.634-.6 6.9-1l4 33.9h-.5l-16.8-24.4c-1.2-1.73-2.4-2.93-3.6-3.6-1.133-.73-2.466-1.1-4-1.1h-.5c-2.933 0-4.933.8-6 2.4-1.066 1.6-1.6 4.3-1.6 8.1zm5.5 18.2c1.534 0 3.2-.43 5-1.3s3.467-2.03 5-3.5a20.16 20.16 0 003.8-5.3c1-2.07 1.5-4.23 1.5-6.5 0-2.4-.566-4.07-1.7-5-1.066-1-2.566-1.5-4.5-1.5-1.533 0-3.2.43-5 1.3-1.733.87-3.366 2.07-4.9 3.6-1.466 1.47-2.7 3.23-3.7 5.3-1 2-1.5 4.13-1.5 6.4 0 2.4.534 4.1 1.6 5.1 1.067.93 2.534 1.4 4.4 1.4zm57.436-40c-2.4 1.33-3.6 3.6-3.6 6.8 0 2 .5 4.4 1.5 7.2 1 2.73 2.667 5.9 5 9.5 3.4 5.13 6.567 8.8 9.5 11 2.934 2.2 5.6 3.3 8 3.3 1.4 0 2.634-.27 3.7-.8 1.134-.67 2-1.57 2.6-2.7.667-1.13 1-2.5 1-4.1 0-2-.533-4.37-1.6-7.1-1-2.8-2.666-6.03-5-9.7-3.333-5.13-6.5-8.77-9.5-10.9-2.933-2.2-5.566-3.3-7.9-3.3-1.4 0-2.633.27-3.7.8zm-7.2 17.8c-.666-2.47-1-4.97-1-7.5 0-3.07.634-5.8 1.9-8.2 1.267-2.47 3.4-4.5 6.4-6.1 2.067-1.13 4.134-1.87 6.2-2.2 2.134-.4 4.3-.6 6.5-.6 4.734 0 9.167 1.1 13.3 3.3 4.2 2.2 7.534 5.33 10 9.4 2.334 3.8 3.5 7.87 3.5 12.2 0 4.47-1.2 8.7-3.6 12.7s-5.833 7.2-10.3 9.6c-4.266 2.27-8.833 3.4-13.7 3.4-5.266 0-9.833-1.17-13.7-3.5-3.8-2.4-6.966-5.6-9.5-9.6-2.466-4-4.3-8.6-5.5-13.8s-1.8-10.67-1.8-16.4c0-5.87.834-10.63 2.5-14.3 1.667-3.73 3.834-6.67 6.5-8.8 2.667-2.13 5.6-3.6 8.8-4.4 3.267-.8 6.467-1.2 9.6-1.2.867 0 1.934.07 3.2.2 1.334.07 2.734.17 4.2.3 1.534.13 3.034.27 4.5.4 1.534.07 2.934.1 4.2.1 1.2 0 2.334-.1 3.4-.3 1.067-.2 1.967-.43 2.7-.7.867-.27 1.667-.6 2.4-1l-6 16.6-26.9-7.4c-3.066-.87-5.566-.8-7.5.2-1.933 1-2.9 3-2.9 6 0 2.93.334 6 1 9.2.667 3.2 1.567 6.43 2.7 9.7a85.482 85.482 0 004 9.6c1.534 3.13 3.2 6.07 5 8.8zm127.663-8c2.333-1 4.566-2.33 6.7-4 2.2-1.67 4.133-3.57 5.8-5.7 1.733-2.2 3.1-4.57 4.1-7.1s1.5-5.2 1.5-8c0-2.13-.5-3.77-1.5-4.9-.934-1.2-2.3-1.8-4.1-1.8-1.4 0-2.834.5-4.3 1.5-1.467 1-2.8 2.37-4 4.1-1.2 1.67-2.2 3.67-3 6s-1.2 4.83-1.2 7.5zm5.8 30.2c1.6 0 3.333-.43 5.2-1.3 1.866-.87 3.6-2.03 5.2-3.5 1.6-1.53 2.933-3.3 4-5.3 1.066-2.07 1.6-4.23 1.6-6.5 0-2.4-.6-4.07-1.8-5-1.134-1-2.7-1.5-4.7-1.5-1.6 0-3.334.43-5.2 1.3-1.8.87-3.5 2.07-5.1 3.6-1.6 1.47-2.934 3.23-4 5.3-1 2-1.5 4.13-1.5 6.4 0 2.4.566 4.1 1.7 5.1 1.133.93 2.666 1.4 4.6 1.4zm-32.7 2.8l7.9-7.9c.933-.93 1.566-1.77 1.9-2.5.333-.73.5-1.93.5-3.6v-42c0-1.67-.167-2.87-.5-3.6-.334-.73-.967-1.57-1.9-2.5l-7.9-7.9h26.9v11.2c1.933-3.87 4.533-6.87 7.8-9 3.266-2.13 7.1-3.2 11.5-3.2 5.066 0 9.066 1.23 12 3.7 2.933 2.47 4.4 6.07 4.4 10.8 0 4-1.2 7.47-3.6 10.4-2.334 2.93-5.267 5.47-8.8 7.6-3.534 2.07-7.4 3.8-11.6 5.2-4.2 1.33-8.1 2.43-11.7 3.3v9a28.438 28.438 0 014.4-4.6c1.733-1.4 3.566-2.6 5.5-3.6 2-1 4.066-1.77 6.2-2.3 2.2-.6 4.366-.9 6.5-.9 2.466 0 4.733.33 6.8 1 2.066.6 3.833 1.5 5.3 2.7 1.466 1.13 2.6 2.57 3.4 4.3.866 1.73 1.3 3.7 1.3 5.9 0 2.87-.767 5.47-2.3 7.8-1.534 2.27-3.667 4.2-6.4 5.8-2.667 1.6-5.834 2.83-9.5 3.7-3.667.8-7.667 1.2-12 1.2zm94.612-27.3c1.934-.6 3.8-1.47 5.6-2.6s3.4-2.43 4.8-3.9c1.4-1.53 2.5-3.13 3.3-4.8.867-1.73 1.3-3.47 1.3-5.2 0-2.47-1.133-3.7-3.4-3.7-1.2 0-2.5.4-3.9 1.2-1.333.73-2.566 1.83-3.7 3.3-1.133 1.4-2.1 3.17-2.9 5.3-.733 2.13-1.1 4.57-1.1 7.3zm-24.3 27.3l7.1-7.1c.734-.8 1.234-1.5 1.5-2.1.267-.6.4-1.37.4-2.3V1217c0-.93-.133-1.7-.4-2.3-.266-.6-.766-1.3-1.5-2.1l-7.1-7.1h24.3v10c1.067-2 2.367-3.67 3.9-5 1.534-1.4 3.167-2.53 4.9-3.4 1.734-.93 3.5-1.6 5.3-2s3.5-.6 5.1-.6c3.867 0 6.834.8 8.9 2.4 2.067 1.6 3.1 3.8 3.1 6.6 0 2.13-.633 4.1-1.9 5.9-1.2 1.73-2.8 3.3-4.8 4.7-1.933 1.4-4.1 2.63-6.5 3.7-2.4 1-4.766 1.9-7.1 2.7-2.266.73-4.4 1.37-6.4 1.9-1.933.47-3.433.8-4.5 1v7.3c2.267-2.67 5.234-4.87 8.9-6.6 3.667-1.73 7.434-2.6 11.3-2.6 4.534 0 8.234 1 11.1 3 2.867 1.93 4.3 4.7 4.3 8.3 0 2.33-.7 4.47-2.1 6.4-1.4 1.87-3.333 3.47-5.8 4.8-2.4 1.27-5.3 2.27-8.7 3-3.333.67-6.966 1-10.9 1zm29.5-2.8c1.467 0 3.034-.33 4.7-1 1.667-.67 3.2-1.57 4.6-2.7s2.567-2.47 3.5-4c.934-1.6 1.4-3.27 1.4-5 0-1.8-.533-3.07-1.6-3.8-1-.8-2.4-1.2-4.2-1.2-1.4 0-2.933.33-4.6 1-1.666.67-3.2 1.6-4.6 2.8a15.45 15.45 0 00-3.5 4c-.933 1.53-1.4 3.17-1.4 4.9 0 1.87.5 3.17 1.5 3.9s2.4 1.1 4.2 1.1zm111.267-11.2c0 1.67.167 2.87.5 3.6.334.73.967 1.57 1.9 2.5l7.9 7.9h-37.2l7.9-7.9c.934-.93 1.567-1.77 1.9-2.5.334-.73.5-1.93.5-3.6v-42c0-1.67-.166-2.87-.5-3.6-.333-.73-.966-1.57-1.9-2.5l-7.9-7.9h35.5c2.267 0 4.634-.1 7.1-.3 2.467-.2 4.734-.43 6.8-.7 2.4-.27 4.767-.6 7.1-1l4 38.9h-.5l-16.8-29.4c-1.066-1.87-2.2-3.1-3.4-3.7-1.133-.67-2.466-1-4-1h-.5c-3.066 0-5.233.8-6.5 2.4-1.266 1.6-1.9 4.3-1.9 8.1zm60.389 2.5c0 .93.133 1.7.4 2.3.266.6.766 1.3 1.5 2.1l7.1 7.1h-33.3l7.1-7.1c.733-.8 1.233-1.5 1.5-2.1.266-.6.4-1.37.4-2.3V1217c0-.93-.134-1.7-.4-2.3-.267-.6-.767-1.3-1.5-2.1l-7.1-7.1h32.9c1.6 0 3.266-.1 5-.3 1.733-.2 3.366-.43 4.9-.7 1.733-.27 3.466-.6 5.2-1l2 30.6h-.4l-13.5-22.4c-.734-1.27-1.5-2.13-2.3-2.6-.734-.53-1.8-.8-3.2-.8h-.4c-2.2 0-3.734.53-4.6 1.6-.867 1-1.3 2.3-1.3 3.9zm96.653 11.5c-2.133 0-3.733.23-4.8.7-1 .47-1.933 1.4-2.8 2.8l-11 18h-.4l-1.5-24.3h8.2l19.2-51.6c.6-1.47.9-2.83.9-4.1 0-2-1.067-4.07-3.2-6.2l-5.4-5.3h24.1l24.2 67.2h10l-10.3 24.3h-.4l-4.9-18c-.333-1.33-.867-2.27-1.6-2.8-.667-.47-1.933-.7-3.8-.7zm29.4-2.8l-18.7-53.7h.6l-17.5 46.8c-.733 1.93-.8 3.57-.2 4.9.667 1.33 2.233 2 4.7 2zm54.316-39.6l-13.701 34.9c-.533 1.33-.6 2.47-.2 3.4.467.87 1.567 1.3 3.3 1.3h25.301zm-8.201 42.4c-1.133 0-2.1.23-2.9.7-.733.47-1.433 1.17-2.1 2.1l-10.9 15.7h-.399l-1.201-21.3h7l15.1-38.7c.4-1.07.567-2.07.5-3-.066-1-.5-1.87-1.3-2.6l-5.599-5.4h22.5l18.7 49.7h9l-8.7 21.3h-.401l-5.7-15.4c-.4-1.13-.966-1.93-1.699-2.4-.667-.47-1.8-.7-3.401-.7zm108.218-67.2c-2 0-3.57.67-4.7 2s-1.7 3.07-1.7 5.2v23.6l23-6.2v18.1h-.4l-7.2-9.5c-.93-1.13-1.93-1.77-3-1.9-1.07-.2-2.47-.07-4.2.4l-8.2 2.2v20c0 3.8.73 6.5 2.2 8.1s3.53 2.4 6.2 2.4h2.3c1.53 0 2.73-.2 3.6-.6.93-.4 1.8-1.13 2.6-2.2l18.2-24h.5l-4 29.6h-58.5l7.9-7.9c.934-.93 1.567-1.77 1.9-2.5.334-.73.5-1.93.5-3.6v-42c0-1.67-.166-2.87-.5-3.6-.333-.73-.966-1.57-1.9-2.5l-7.9-7.9h39.4c2.6 0 4.93-.1 7-.3s3.8-.43 5.2-.7c1.67-.27 3.13-.6 4.4-1l4.6 31.8h-.4l-18.5-24.3c-.8-1.07-1.67-1.77-2.6-2.1-.87-.4-2.1-.6-3.7-.6zm60.18 25.9c2.73 0 4.63-.5 5.7-1.5 1.13-1 1.7-2.23 1.7-3.7 0-1.13-.5-2.1-1.5-2.9-1-.87-2.5-1.3-4.5-1.3-4.4 0-7.77 1.07-10.1 3.2-2.27 2.13-3.4 4.9-3.4 8.3 0 2.73.6 5.77 1.8 9.1 1.27 3.33 3.03 6.47 5.3 9.4 2.33 2.93 5.1 5.4 8.3 7.4 3.27 2 6.93 3 11 3 2.27 0 4.4-.37 6.4-1.1s3.7-1.8 5.1-3.2c1.47-1.4 2.6-3.17 3.4-5.3.87-2.13 1.3-4.6 1.3-7.4 0-2.53-.5-5.2-1.5-8h.4c.93 1.8 1.67 3.67 2.2 5.6.53 1.87.8 3.7.8 5.5 0 3.73-.77 7.17-2.3 10.3-1.47 3.07-3.5 5.7-6.1 7.9-2.53 2.2-5.47 3.93-8.8 5.2-3.33 1.2-6.8 1.8-10.4 1.8-4 0-7.77-.67-11.3-2-3.47-1.4-6.5-3.3-9.1-5.7-2.6-2.47-4.67-5.33-6.2-8.6-1.47-3.27-2.2-6.8-2.2-10.6 0-3.93.8-7.57 2.4-10.9 1.6-3.4 3.77-6.33 6.5-8.8s5.87-4.4 9.4-5.8c3.6-1.4 7.37-2.1 11.3-2.1 2.47 0 4.83.3 7.1.9 2.27.53 4.27 1.4 6 2.6s3.2 2.77 4.4 4.7c1.2 1.87 2 4.13 2.4 6.8h-38.2v-2.8zm108.1-50.9h.5c1.87 3.73 3.9 6.27 6.1 7.6 2.2 1.27 4.87 1.9 8 1.9 1.94 0 4.07-.33 6.4-1 2.34-.73 4.57-1.93 6.7-3.6l1.4 1.6c-3.53 3.4-7.23 5.9-11.1 7.5-3.8 1.6-7.8 2.4-12 2.4-2 0-3.96-.2-5.9-.6-1.86-.47-3.83-1.07-5.9-1.8zm11.6 25c-2 0-3.56.67-4.7 2-1.13 1.33-1.7 3.07-1.7 5.2v23.6l23-6.2v18.1h-.4l-7.2-9.5c-.93-1.13-1.93-1.77-3-1.9-1.06-.2-2.46-.07-4.2.4l-8.2 2.2v20c0 3.8.74 6.5 2.2 8.1 1.47 1.6 3.54 2.4 6.2 2.4h2.3c1.54 0 2.74-.2 3.6-.6.94-.4 1.8-1.13 2.6-2.2l18.2-24h.5l-4 29.6h-58.5l7.9-7.9c.94-.93 1.57-1.77 1.9-2.5.34-.73.5-1.93.5-3.6v-42c0-1.67-.16-2.87-.5-3.6-.33-.73-.96-1.57-1.9-2.5l-7.9-7.9h39.4c2.6 0 4.94-.1 7-.3 2.07-.2 3.8-.43 5.2-.7 1.67-.27 3.14-.6 4.4-1l4.6 31.8h-.4l-18.5-24.3c-.8-1.07-1.66-1.77-2.6-2.1-.86-.4-2.1-.6-3.7-.6zm52.88-8.9h.5c1.87 3.73 3.9 6.27 6.1 7.6 2.2 1.27 4.87 1.9 8 1.9 1.94 0 4.07-.33 6.4-1 2.34-.73 4.57-1.93 6.7-3.6l1.4 1.6c-3.53 3.4-7.23 5.9-11.1 7.5-3.8 1.6-7.8 2.4-12 2.4-2 0-3.96-.2-5.9-.6-1.86-.47-3.83-1.07-5.9-1.8zm7.3 34.8c2.74 0 4.64-.5 5.7-1.5 1.14-1 1.7-2.23 1.7-3.7 0-1.13-.5-2.1-1.5-2.9-1-.87-2.5-1.3-4.5-1.3-4.4 0-7.76 1.07-10.1 3.2-2.26 2.13-3.4 4.9-3.4 8.3 0 2.73.6 5.77 1.8 9.1 1.27 3.33 3.04 6.47 5.3 9.4 2.34 2.93 5.1 5.4 8.3 7.4 3.27 2 6.94 3 11 3 2.27 0 4.4-.37 6.4-1.1s3.7-1.8 5.1-3.2c1.47-1.4 2.6-3.17 3.4-5.3.87-2.13 1.3-4.6 1.3-7.4 0-2.53-.5-5.2-1.5-8h.4c.94 1.8 1.67 3.67 2.2 5.6.54 1.87.8 3.7.8 5.5 0 3.73-.76 7.17-2.3 10.3-1.46 3.07-3.5 5.7-6.1 7.9-2.53 2.2-5.46 3.93-8.8 5.2-3.33 1.2-6.8 1.8-10.4 1.8-4 0-7.76-.67-11.3-2-3.46-1.4-6.5-3.3-9.1-5.7-2.6-2.47-4.66-5.33-6.2-8.6-1.46-3.27-2.2-6.8-2.2-10.6 0-3.93.8-7.57 2.4-10.9 1.6-3.4 3.77-6.33 6.5-8.8 2.74-2.47 5.87-4.4 9.4-5.8 3.6-1.4 7.37-2.1 11.3-2.1 2.47 0 4.84.3 7.1.9 2.27.53 4.27 1.4 6 2.6 1.74 1.2 3.2 2.77 4.4 4.7 1.2 1.87 2 4.13 2.4 6.8h-38.2v-2.8zM128 1362.4c-7.067 1.13-12.567 4.37-16.5 9.7s-6.233 12.3-6.9 20.9H83c1.467-9.67 5.933-17.13 13.4-22.4 7.533-5.27 18.067-8.97 31.6-11.1v-3.1c-2.4.33-5.133.6-8.2.8-3 .2-6.1.2-9.3 0a63.75 63.75 0 01-9.3-1.5c-3-.8-5.7-1.97-8.1-3.5a19.162 19.162 0 01-5.7-6.1c-1.4-2.47-2.1-5.5-2.1-9.1 0-2.33.233-4.67.7-7s1.167-4.67 2.1-7h25.1l-7.9 7.9c-.933.93-1.567 1.77-1.9 2.5s-.5 1.93-.5 3.6c0 3.67.7 6.67 2.1 9s3.267 4.13 5.6 5.4c2.4 1.27 5.1 2.03 8.1 2.3s6.1.13 9.3-.4V1337c0-1.67-.167-2.87-.5-3.6s-.967-1.57-1.9-2.5l-7.9-7.9h23.9l-7.9 7.9c-.933.93-1.567 1.77-1.9 2.5s-.5 1.93-.5 3.6v15.8c5.733-.93 10.267-3.9 13.6-8.9 3.333-5.07 5.067-12.03 5.2-20.9h21.6c-.6 5.2-2.033 9.7-4.3 13.5-2.267 3.73-5.167 6.9-8.7 9.5s-7.633 4.7-12.3 6.3c-4.6 1.53-9.633 2.73-15.1 3.6v3.1c2.4-.33 5.133-.6 8.2-.8s6.167-.17 9.3.1c3.2.27 6.3.8 9.3 1.6s5.667 2.03 8 3.7c2.4 1.6 4.3 3.67 5.7 6.2 1.467 2.47 2.2 5.53 2.2 9.2 0 2.33-.167 4.7-.5 7.1-.267 2.4-.733 4.7-1.4 6.9h-26l7.9-7.9c.933-.93 1.567-1.77 1.9-2.5s.5-1.93.5-3.6c0-3.47-.733-6.4-2.2-8.8s-3.367-4.3-5.7-5.7-5.033-2.3-8.1-2.7c-3-.4-6.033-.37-9.1.1v17.1c0 1.67.167 2.87.5 3.6s.967 1.57 1.9 2.5l7.9 7.9h-23.9l7.9-7.9c.933-.93 1.567-1.77 1.9-2.5s.5-1.93.5-3.6zm51.473 30.6c.733-4.33 2.433-7.97 5.1-10.9 2.733-2.93 5.933-5.33 9.6-7.2 3.733-1.93 7.733-3.4 12-4.4 4.266-1.07 8.4-1.87 12.4-2.4v-2.7c-2.667.33-5.4.57-8.2.7-2.8.07-5.567-.07-8.3-.4-2.667-.33-5.2-.9-7.6-1.7-2.4-.87-4.5-2.03-6.3-3.5s-3.234-3.3-4.3-5.5c-1.067-2.2-1.6-4.83-1.6-7.9 0-.73.066-1.8.2-3.2.2-1.4.466-2.53.8-3.4h22.8l-6.2 6.2c-.867.87-1.3 1.97-1.3 3.3 0 2 .433 3.87 1.3 5.6.866 1.73 2.133 3.2 3.8 4.4 1.733 1.2 3.833 2.07 6.3 2.6 2.466.53 5.333.6 8.6.2v-9.3c0-1.67-.167-2.87-.5-3.6-.334-.73-.967-1.57-1.9-2.5l-6.9-6.9h22.2l-6.9 6.9c-.934.93-1.567 1.77-1.9 2.5-.334.73-.5 1.93-.5 3.6v8.8a17.153 17.153 0 006.4-2.7 20.53 20.53 0 005-4.9c1.4-2 2.533-4.2 3.4-6.6.866-2.47 1.466-5 1.8-7.6h18.3c-.534 3.93-2 7.33-4.4 10.2-2.334 2.8-5.167 5.2-8.5 7.2-3.334 1.93-6.967 3.47-10.9 4.6-3.867 1.13-7.567 1.93-11.1 2.4v2.7c2.6-.33 5.333-.57 8.2-.7 2.933-.2 5.766-.2 8.5 0 2.8.2 5.466.63 8 1.3 2.533.67 4.766 1.73 6.7 3.2 1.933 1.4 3.466 3.23 4.6 5.5 1.133 2.27 1.7 5.07 1.7 8.4 0 1.13-.1 2.4-.3 3.8s-.467 2.7-.8 3.9h-22.7l6.2-6.2c.866-.87 1.3-1.97 1.3-3.3 0-2.6-.567-4.83-1.7-6.7-1.134-1.87-2.667-3.33-4.6-4.4-1.934-1.13-4.2-1.87-6.8-2.2-2.6-.4-5.367-.4-8.3 0v9.8c0 1.67.166 2.87.5 3.6.333.73.966 1.57 1.9 2.5l6.9 6.9h-22.2l6.9-6.9c.933-.93 1.566-1.77 1.9-2.5.333-.73.5-1.93.5-3.6v-9.3c-3.2.53-6.034 1.5-8.5 2.9-2.467 1.33-4.567 3-6.3 5-1.667 1.93-3 4.17-4 6.7-1 2.47-1.667 5.03-2 7.7zm173.051-41.4h18.7a33.945 33.945 0 013.7 7.5c.934 2.67 1.4 5.57 1.4 8.7 0 3.4-.6 6.7-1.8 9.9-1.2 3.13-3.066 5.93-5.6 8.4-2.466 2.4-5.666 4.33-9.6 5.8-3.866 1.4-8.5 2.1-13.9 2.1-5.266 0-9.766-.63-13.5-1.9-3.733-1.27-6.8-2.93-9.2-5-2.4-2.13-4.166-4.53-5.3-7.2a23.195 23.195 0 01-1.6-8.5c0-1.8.167-3.57.5-5.3.4-1.8.967-3.7 1.7-5.7h27.1l-7.9 7.7c-1.4 1.33-2.4 2.73-3 4.2-.533 1.4-.8 3.17-.8 5.3s.334 4.03 1 5.7c.667 1.67 1.534 3.1 2.6 4.3a13.79 13.79 0 003.8 2.7c1.467.6 3 .9 4.6.9 2.4 0 4.434-.5 6.1-1.5a12.33 12.33 0 004.1-4c1.067-1.73 1.834-3.67 2.3-5.8.534-2.13.8-4.37.8-6.7 0-2.47-.366-4.87-1.1-7.2-.666-2.4-1.733-4.53-3.2-6.4-1.4-1.93-3.2-3.47-5.4-4.6-2.2-1.2-4.766-1.8-7.7-1.8-1.6 0-3.3.2-5.1.6v-.7c4.067-1 7.334-2.27 9.8-3.8 2.467-1.53 4.367-3.17 5.7-4.9 1.334-1.8 2.234-3.53 2.7-5.2.467-1.73.7-3.27.7-4.6 0-3.2-.933-5.63-2.8-7.3-1.866-1.67-4.2-2.5-7-2.5-2.666 0-4.733.57-6.2 1.7-1.466 1.13-2.666 2.83-3.6 5.1l-9.9 23.6h-.4l-2.8-34.2c1.6.4 3.167.73 4.7 1 1.334.27 2.7.5 4.1.7s2.6.3 3.6.3c2.2 0 4.7-.17 7.5-.5s5.9-.5 9.3-.5c2.534 0 5.067.2 7.6.6 2.534.4 4.8 1.13 6.8 2.2s3.6 2.5 4.8 4.3c1.267 1.8 1.9 4.1 1.9 6.9 0 1.8-.366 3.53-1.1 5.2-.666 1.67-1.8 3.2-3.4 4.6-1.6 1.33-3.7 2.5-6.3 3.5-2.533.93-5.666 1.57-9.4 1.9zm54.304 42.4c-3.667 0-7-.4-10-1.2-3-.87-5.6-2.07-7.8-3.6-2.133-1.6-3.8-3.5-5-5.7-1.133-2.2-1.7-4.67-1.7-7.4 0-1.2.1-2.43.3-3.7.267-1.33.667-2.7 1.2-4.1h23.1l-6.9 8.3c-.533.53-.9 1.23-1.1 2.1-.2.8-.3 1.67-.3 2.6 0 1.2.2 2.4.6 3.6.4 1.13.967 2.2 1.7 3.2.8.93 1.733 1.7 2.8 2.3 1.133.53 2.367.8 3.7.8 1.6 0 3.033-.37 4.3-1.1s2.333-1.7 3.2-2.9a13.888 13.888 0 002.1-4.2c.533-1.6.8-3.23.8-4.9 0-1.8-.3-3.6-.9-5.4s-1.467-3.4-2.6-4.8-2.567-2.53-4.3-3.4c-1.667-.87-3.633-1.3-5.9-1.3-1.267 0-2.533.13-3.8.4v-.7c2.8-.8 5.167-1.7 7.1-2.7 1.933-1.07 3.467-2.2 4.6-3.4s1.933-2.43 2.4-3.7c.533-1.33.8-2.7.8-4.1 0-2.33-.767-4.03-2.3-5.1-1.467-1.07-3.267-1.6-5.4-1.6-2.4 0-4.2.6-5.4 1.8-1.133 1.2-2.067 2.67-2.8 4.4l-6.2 14.5h-.4l-3.9-24.5c.867.4 1.767.73 2.7 1 .8.27 1.7.5 2.7.7 1.067.2 2.167.3 3.3.3 1.6 0 3.667-.17 6.2-.5 2.6-.33 5.167-.5 7.7-.5 2.467 0 4.9.17 7.3.5 2.4.27 4.533.8 6.4 1.6 1.933.73 3.467 1.77 4.6 3.1 1.2 1.33 1.8 3.03 1.8 5.1 0 3.67-1.767 6.47-5.3 8.4-3.467 1.87-8.233 2.9-14.3 3.1v.4h18.2a22.374 22.374 0 012.9 6.1c.733 2.2 1.1 4.43 1.1 6.7 0 2.47-.5 4.87-1.5 7.2-.933 2.33-2.5 4.43-4.7 6.3-2.133 1.8-4.933 3.27-8.4 4.4-3.467 1.07-7.7 1.6-12.7 1.6zm108.201-15c0 1.67.167 2.87.5 3.6s.967 1.57 1.9 2.5l7.9 7.9h-37.2l7.9-7.9c.933-.93 1.567-1.77 1.9-2.5s.5-1.93.5-3.6v-42c0-1.67-.167-2.87-.5-3.6s-.967-1.57-1.9-2.5l-7.9-7.9h37.2l-7.9 7.9c-.933.93-1.567 1.77-1.9 2.5s-.5 1.93-.5 3.6zm28.5-42c0-1.67-.167-2.87-.5-3.6s-.967-1.57-1.9-2.5l-7.9-7.9h37.2l-7.9 7.9c-.933.93-1.567 1.77-1.9 2.5s-.5 1.93-.5 3.6v42c0 1.67.167 2.87.5 3.6s.967 1.57 1.9 2.5l7.9 7.9h-37.2l7.9-7.9c.933-.93 1.567-1.77 1.9-2.5s.5-1.93.5-3.6zm1 4.5l2.5 1.7-33 31.3-.3-3.7zm52.177 40c0 .93.134 1.7.4 2.3.267.6.767 1.3 1.5 2.1l7.1 7.1h-33.3l7.1-7.1c.734-.8 1.234-1.5 1.5-2.1.267-.6.4-1.37.4-2.3V1352c0-.93-.133-1.7-.4-2.3-.266-.6-.766-1.3-1.5-2.1l-7.1-7.1h33.3l-7.1 7.1c-.733.8-1.233 1.5-1.5 2.1-.266.6-.4 1.37-.4 2.3zm37.2 0c0 .93.134 1.7.4 2.3.267.6.767 1.3 1.5 2.1l7.1 7.1h-33.3l7.1-7.1c.734-.8 1.234-1.5 1.5-2.1.267-.6.4-1.37.4-2.3V1352c0-.93-.133-1.7-.4-2.3-.266-.6-.766-1.3-1.5-2.1l-7.1-7.1h33.3l-7.1 7.1c-.733.8-1.233 1.5-1.5 2.1-.266.6-.4 1.37-.4 2.3zm-11.2-31.1l2.5 1.7-33 31.4-.3-3.7zm103.861-50.6h.5c1.867 3.73 3.9 6.27 6.1 7.6 2.2 1.27 4.867 1.9 8 1.9 1.934 0 4.067-.33 6.4-1 2.334-.73 4.567-1.93 6.7-3.6l1.4 1.6c-3.533 3.4-7.233 5.9-11.1 7.5-3.8 1.6-7.8 2.4-12 2.4-2 0-3.966-.2-5.9-.6a66.708 66.708 0 01-5.9-1.8zm-4.8 79.2c0 1.67.167 2.87.5 3.6.334.73.967 1.57 1.9 2.5l7.9 7.9h-37.2l7.9-7.9c.934-.93 1.567-1.77 1.9-2.5.334-.73.5-1.93.5-3.6v-42c0-1.67-.166-2.87-.5-3.6-.333-.73-.966-1.57-1.9-2.5l-7.9-7.9h37.2l-7.9 7.9c-.933.93-1.566 1.77-1.9 2.5-.333.73-.5 1.93-.5 3.6zm28.5-42c0-1.67-.166-2.87-.5-3.6-.333-.73-.966-1.57-1.9-2.5l-7.9-7.9h37.2l-7.9 7.9c-.933.93-1.566 1.77-1.9 2.5-.333.73-.5 1.93-.5 3.6v42c0 1.67.167 2.87.5 3.6.334.73.967 1.57 1.9 2.5l7.9 7.9h-37.2l7.9-7.9c.934-.93 1.567-1.77 1.9-2.5.334-.73.5-1.93.5-3.6zm1 4.5l2.5 1.7-33 31.3-.3-3.7zm54.578-24.6h.5c1.866 3.73 3.9 6.27 6.1 7.6 2.2 1.27 4.866 1.9 8 1.9 1.933 0 4.066-.33 6.4-1 2.333-.73 4.566-1.93 6.7-3.6l1.4 1.6c-3.534 3.4-7.234 5.9-11.1 7.5-3.8 1.6-7.8 2.4-12 2.4-2 0-3.967-.2-5.9-.6a66.505 66.505 0 01-5.9-1.8zm-2.4 64.6c0 .93.133 1.7.4 2.3.266.6.766 1.3 1.5 2.1l7.1 7.1h-33.3l7.1-7.1c.733-.8 1.233-1.5 1.5-2.1.266-.6.4-1.37.4-2.3V1352c0-.93-.134-1.7-.4-2.3-.267-.6-.767-1.3-1.5-2.1l-7.1-7.1h33.3l-7.1 7.1c-.734.8-1.234 1.5-1.5 2.1-.267.6-.4 1.37-.4 2.3zm37.2 0c0 .93.133 1.7.4 2.3.266.6.766 1.3 1.5 2.1l7.1 7.1h-33.3l7.1-7.1c.733-.8 1.233-1.5 1.5-2.1.266-.6.4-1.37.4-2.3V1352c0-.93-.134-1.7-.4-2.3-.267-.6-.767-1.3-1.5-2.1l-7.1-7.1h33.3l-7.1 7.1c-.734.8-1.234 1.5-1.5 2.1-.267.6-.4 1.37-.4 2.3zm-11.2-31.1l2.5 1.7-33 31.4-.3-3.7zm126.56 28.6c0-3.67-.766-6.7-2.3-9.1-1.533-2.47-3.6-4.37-6.2-5.7-2.533-1.33-5.466-2.13-8.8-2.4-3.266-.33-6.666-.23-10.2.3v16.9c0 1.67.167 2.87.5 3.6.334.73.967 1.57 1.9 2.5l7.9 7.9h-37.2l7.9-7.9c.934-.93 1.567-1.77 1.9-2.5.334-.73.5-1.93.5-3.6v-42c0-1.67-.166-2.87-.5-3.6-.333-.73-.966-1.57-1.9-2.5l-7.9-7.9h37.2l-7.9 7.9c-.933.93-1.566 1.77-1.9 2.5-.333.73-.5 1.93-.5 3.6v16c3.4-.53 6.334-1.63 8.8-3.3 2.467-1.67 4.5-3.8 6.1-6.4 1.667-2.6 2.934-5.6 3.8-9 .867-3.47 1.367-7.23 1.5-11.3h21.6c-.8 5.13-2.5 9.6-5.1 13.4-2.533 3.73-5.7 6.93-9.5 9.6s-8.033 4.8-12.7 6.4c-4.666 1.6-9.5 2.8-14.5 3.6v3c2.6-.4 5.5-.7 8.7-.9 3.267-.2 6.567-.17 9.9.1 3.334.2 6.567.7 9.7 1.5 3.2.8 6.034 2 8.5 3.6a17.52 17.52 0 016 6.3c1.534 2.53 2.3 5.67 2.3 9.4 0 2.33-.166 4.7-.5 7.1-.266 2.4-.733 4.7-1.4 6.9h-26l7.9-7.9c.934-.93 1.567-1.77 1.9-2.5.334-.73.5-1.93.5-3.6zm45.875-16.2c3.14-.47 5.8-1.33 8-2.6 2.27-1.33 4.1-2.97 5.5-4.9 1.47-1.93 2.57-4.13 3.3-6.6.8-2.53 1.27-5.27 1.4-8.2h18.3c-.46 4.13-1.93 7.67-4.4 10.6-2.46 2.87-5.46 5.3-9 7.3-3.46 1.93-7.26 3.47-11.4 4.6-4.06 1.13-7.96 1.97-11.7 2.5zm21 23.1c.74-.8 1.24-1.5 1.5-2.1.27-.6.4-1.37.4-2.3 0-2.6-.6-4.67-1.8-6.2-1.2-1.6-2.83-2.77-4.9-3.5-2.06-.8-4.5-1.23-7.3-1.3-2.73-.07-5.7.1-8.9.5v-2.7c2.27-.27 4.8-.5 7.6-.7 2.87-.27 5.74-.33 8.6-.2 2.94.07 5.77.37 8.5.9 2.8.47 5.27 1.3 7.4 2.5 2.14 1.2 3.84 2.8 5.1 4.8 1.34 2 2 4.53 2 7.6 0 1.87-.13 3.6-.4 5.2-.26 1.53-.66 3.07-1.2 4.6h-23.7zm-21-4.4c0 .93.14 1.7.4 2.3.27.6.77 1.3 1.5 2.1l7.1 7.1h-33.298l7.1-7.1c.733-.8 1.233-1.5 1.5-2.1s.4-1.37.4-2.3V1352c0-.93-.133-1.7-.4-2.3s-.767-1.3-1.5-2.1l-7.1-7.1h33.298l-7.1 7.1c-.73.8-1.23 1.5-1.5 2.1-.26.6-.4 1.37-.4 2.3zm131.99 11.5l6.3-6.5c.8-.8 1.2-1.7 1.2-2.7 0-.67-.16-1.43-.5-2.3l-16.5-45h.5l-17.4 44.4c-.4 1-.6 1.93-.6 2.8 0 1.07.4 2 1.2 2.8l6.3 6.5h-21.3l7.4-7.3c.8-.73 1.5-1.5 2.1-2.3.6-.87 1.14-1.87 1.6-3l16.4-41.8c.6-1.47.9-2.83.9-4.1 0-2-1.06-4.07-3.2-6.2l-5.4-5.3h24.1l21.5 57.3c.47 1.27.97 2.27 1.5 3 .54.73 1.27 1.53 2.2 2.4l7.4 7.3z"/><path d="M1189.96 1351.5c.4-1.07.57-2.07.5-3-.06-1-.5-1.87-1.3-2.6l-5.6-5.4h22.5l16.1 42.7c.2.6.5 1.17.9 1.7l1.3 1.3 6.8 6.8h-31.6l5.8-5.9c.34-.4.57-.83.7-1.3.2-.53.2-1.07 0-1.6l-12.5-33.6-12.8 32.5c-.26.73-.4 1.47-.4 2.2.07.67.37 1.27.9 1.8l5.7 5.9h-18.4l6.8-6.8c.47-.47.9-.97 1.3-1.5.47-.6.84-1.23 1.1-1.9zm151.32-14l1.6.1-18.4 56.4h-.5l-19-55.9-10.8 41.9c-.33 1.33-.53 2.57-.6 3.7 0 1.13.5 2.2 1.5 3.2l5.9 6.1h-21.3l7.9-7.8c.87-.87 1.54-1.63 2-2.3.54-.67.97-1.67 1.3-3l10.3-40c.54-2.13.8-3.77.8-4.9 0-1.27-.26-2.37-.8-3.3-.53-1-1.36-2.07-2.5-3.2l-5.5-5.5h24.3l13.6 40.2 7.7-23.6c.6-1.8.9-3.33.9-4.6 0-2.13-1.13-4.33-3.4-6.6l-5.7-5.4h24.4l16.8 57.3c.34 1.27.8 2.27 1.4 3s1.37 1.53 2.3 2.4l7.4 7.3h-35.7l6.1-6.3c.74-.73 1.14-1.53 1.2-2.4.14-.87.04-1.8-.3-2.8z"/><path d="M1431.56 1352.9l.3-.4-15.4 41.5h-.4l-14.8-41.7-8 30.8c-.2.87-.34 1.63-.4 2.3 0 .6.26 1.17.8 1.7l5.7 5.9h-18.5l7-6.7c.53-.53 1-1.03 1.4-1.5.46-.53.83-1.3 1.1-2.3l7.5-28.9c.33-1.2.36-2.43.1-3.7-.2-1.27-.74-2.33-1.6-3.2l-6.3-6.2h23.1l10.2 28.6-.9.2 5.9-15.7c1-2.6.5-4.9-1.5-6.9l-6.4-6.2h23.3l11.8 40.6c.4 1.27.8 2.27 1.2 3 .46.73 1.1 1.47 1.9 2.2l6.8 6.7h-31.3l5.8-5.9c.4-.4.63-.87.7-1.4.06-.6.03-1.17-.1-1.7zM135.9 1472c0-1.67-.167-2.87-.5-3.6s-.967-1.57-1.9-2.5l-7.9-7.9h37.2l-7.9 7.9c-.933.93-1.567 1.77-1.9 2.5s-.5 1.93-.5 3.6v42c0 1.67.167 2.87.5 3.6s.967 1.57 1.9 2.5l7.9 7.9h-37.2l7.9-7.9c.933-.93 1.567-1.77 1.9-2.5s.5-1.93.5-3.6zm-28 42c0 1.67.167 2.87.5 3.6s.967 1.57 1.9 2.5l7.9 7.9H81l7.9-7.9c.933-.93 1.567-1.77 1.9-2.5s.5-1.93.5-3.6v-42c0-1.67-.167-2.87-.5-3.6s-.967-1.57-1.9-2.5L81 1458h37.2l-7.9 7.9c-.933.93-1.567 1.77-1.9 2.5s-.5 1.93-.5 3.6zm29.1-20.6l.4 3.1-31.7-4.9-.4-3.1zm52.089 23.1c0 .93.133 1.7.4 2.3s.767 1.3 1.5 2.1l7.1 7.1h-33.3l7.1-7.1c.733-.8 1.233-1.5 1.5-2.1s.4-1.37.4-2.3V1487c0-.93-.133-1.7-.4-2.3s-.767-1.3-1.5-2.1l-7.1-7.1h33.3l-7.1 7.1c-.733.8-1.233 1.5-1.5 2.1s-.4 1.37-.4 2.3zm36.2 0c0 .93.133 1.7.4 2.3s.767 1.3 1.5 2.1l7.1 7.1h-33.3l7.1-7.1c.733-.8 1.233-1.5 1.5-2.1s.4-1.37.4-2.3V1487c0-.93-.133-1.7-.4-2.3s-.767-1.3-1.5-2.1l-7.1-7.1h33.3l-7.1 7.1c-.733.8-1.233 1.5-1.5 2.1s-.4 1.37-.4 2.3zm-10.5-14.3l.4 3.1-31.7-4.9-.4-3.1zm91.784-40.3c3.067-1.67 6.167-2.9 9.3-3.7 3.134-.8 6.267-1.2 9.4-1.2 6.267 0 12.134 1.57 17.6 4.7 5.467 3.07 9.967 7.5 13.5 13.3 3.8 6.33 5.7 12.93 5.7 19.8 0 2.93-.366 5.83-1.1 8.7a30.042 30.042 0 01-3.4 8c-1.466 2.53-3.3 4.87-5.5 7s-4.8 4-7.8 5.6c-3.066 1.67-6.166 2.9-9.3 3.7a37.86 37.86 0 01-9.4 1.2c-6.266 0-12.166-1.53-17.7-4.6-5.466-3.13-9.966-7.6-13.5-13.4-3.733-6.27-5.6-12.83-5.6-19.7 0-5.93 1.467-11.5 4.4-16.7 2.934-5.27 7.4-9.5 13.4-12.7zm.6 3.2c-1.866.93-3.333 2.4-4.4 4.4-1.066 1.93-1.6 4.4-1.6 7.4 0 3.2.7 6.83 2.1 10.9s3.8 8.7 7.2 13.9c4.934 7.53 9.7 12.9 14.3 16.1 4.6 3.13 8.767 4.7 12.5 4.7 2.267 0 4.367-.53 6.3-1.6 1.867-.93 3.334-2.37 4.4-4.3 1.134-2 1.7-4.5 1.7-7.5 0-3.13-.733-6.73-2.2-10.8-1.4-4.13-3.8-8.8-7.2-14-2.533-3.8-5-7-7.4-9.6-2.4-2.67-4.733-4.83-7-6.5-2.266-1.67-4.433-2.87-6.5-3.6-2.066-.73-4.033-1.1-5.9-1.1-2.266 0-4.366.53-6.3 1.6zm76.274 13.1c2.333-1.27 4.733-2.2 7.2-2.8s4.967-.9 7.5-.9c5.067 0 9.833 1.17 14.3 3.5 4.533 2.33 8.133 5.7 10.8 10.1 2.467 4.13 3.7 8.53 3.7 13.2 0 2.4-.333 4.77-1 7.1a28.713 28.713 0 01-2.9 6.6c-1.2 2.07-2.733 4-4.6 5.8-1.867 1.73-4 3.23-6.4 4.5-2.333 1.27-4.733 2.2-7.2 2.8s-4.967.9-7.5.9c-5.067 0-9.867-1.17-14.4-3.5-4.467-2.33-8.033-5.7-10.7-10.1-1.267-2.13-2.2-4.33-2.8-6.6s-.9-4.53-.9-6.8c0-4.8 1.267-9.33 3.8-13.6 2.6-4.27 6.3-7.67 11.1-10.2zm1 3.2c-2.667 1.47-4 3.97-4 7.5 0 2.13.567 4.77 1.7 7.9 1.133 3.07 2.967 6.57 5.5 10.5 3.667 5.6 7.133 9.63 10.4 12.1 3.267 2.4 6.233 3.6 8.9 3.6.733 0 1.433-.07 2.1-.2s1.333-.37 2-.7c2.667-1.47 4-3.97 4-7.5 0-2.13-.567-4.73-1.7-7.8s-3-6.6-5.6-10.6c-3.667-5.6-7.133-9.6-10.4-12-3.267-2.47-6.2-3.7-8.8-3.7-.733 0-1.433.07-2.1.2s-1.333.37-2 .7zm151.355-20.6h-28v53.2c0 1.67.167 2.87.5 3.6.334.73.967 1.57 1.9 2.5l7.9 7.9h-37.2l7.9-7.9c.934-.93 1.567-1.77 1.9-2.5.334-.73.5-1.93.5-3.6v-42c0-1.67-.166-2.87-.5-3.6-.333-.73-.966-1.57-1.9-2.5l-7.9-7.9h81.8l-7.9 7.9c-.933.93-1.566 1.77-1.9 2.5-.333.73-.5 1.93-.5 3.6v42c0 1.67.167 2.87.5 3.6.334.73.967 1.57 1.9 2.5l7.9 7.9h-37.2l7.9-7.9c.934-.93 1.567-1.77 1.9-2.5.334-.73.5-1.93.5-3.6zm98.489 14.7l-7.1 7.1c-.733.8-1.233 1.5-1.5 2.1-.266.6-.4 1.37-.4 2.3v29.5c0 .93.134 1.7.4 2.3.267.6.767 1.3 1.5 2.1l7.1 7.1h-33.3l7.1-7.1c.734-.8 1.234-1.5 1.5-2.1.267-.6.4-1.37.4-2.3v-38.2h-21v38.2c0 .93.134 1.7.4 2.3.267.6.767 1.3 1.5 2.1l7.1 7.1h-33.3l7.1-7.1c.734-.8 1.234-1.5 1.5-2.1.267-.6.4-1.37.4-2.3V1487c0-.93-.133-1.7-.4-2.3-.266-.6-.766-1.3-1.5-2.1l-7.1-7.1zm78.882-4.3c2.134-4.13 4.967-7.53 8.5-10.2 3.6-2.67 7.967-4 13.1-4 5.534 0 9.834 1.47 12.9 4.4 3.134 2.93 4.7 6.87 4.7 11.8 0 3.73-.9 7.3-2.7 10.7-1.8 3.33-4.4 6.37-7.8 9.1s-7.533 5.07-12.4 7c-4.8 1.93-10.233 3.33-16.3 4.2v10.5c0 .93.167 1.83.5 2.7.334.87.734 1.57 1.2 2.1l8.6 8.5h-37.2l8.5-8.5c.534-.53.967-1.23 1.3-2.1.334-.87.5-1.77.5-2.7v-43.4c0-.93-.166-1.83-.5-2.7-.333-.87-.766-1.57-1.3-2.1l-8.5-8.5h26.9zm0 30c3.2-.8 6.1-2.17 8.7-4.1a29.83 29.83 0 006.8-6.8 31.423 31.423 0 004.5-8.5c1.067-3.07 1.6-6.17 1.6-9.3 0-3-.633-5.23-1.9-6.7-1.2-1.53-2.9-2.3-5.1-2.3-1.466 0-3.066.57-4.8 1.7-1.666 1.13-3.233 2.77-4.7 4.9-1.466 2.07-2.7 4.6-3.7 7.6-.933 2.93-1.4 6.23-1.4 9.9zm66.529 24c4-.8 7.6-2.3 10.8-4.5 3.267-2.2 6.067-4.77 8.4-7.7 2.334-2.93 4.134-6.07 5.4-9.4 1.267-3.4 1.9-6.67 1.9-9.8 0-4.4-.966-7.7-2.9-9.9-1.866-2.27-4.4-3.4-7.6-3.4-1.933 0-3.866.53-5.8 1.6-1.866 1.07-3.566 2.53-5.1 4.4-1.533 1.8-2.766 3.97-3.7 6.5-.933 2.53-1.4 5.23-1.4 8.1zm0-38.1c1.2-2.27 2.634-4.2 4.3-5.8 1.667-1.6 3.4-2.9 5.2-3.9 1.867-1 3.767-1.73 5.7-2.2 2-.47 3.934-.7 5.8-.7 3.267 0 6.234.43 8.9 1.3 2.667.87 4.934 2.17 6.8 3.9 1.934 1.67 3.434 3.8 4.5 6.4 1.067 2.53 1.6 5.5 1.6 8.9 0 3.93-.9 7.73-2.7 11.4s-4.5 7-8.1 10c-3.6 2.93-8.066 5.43-13.4 7.5-5.333 2.07-11.533 3.43-18.6 4.1v6c0 .93.134 1.7.4 2.3.267.6.767 1.3 1.5 2.1l7.1 7.1h-24.3V1487c0-.93-.133-1.7-.4-2.3-.266-.6-.766-1.3-1.5-2.1l-7.1-7.1h24.3zm131.706-26.3c-3.267 0-6.034.47-8.3 1.4-2.267.93-4.1 2.2-5.5 3.8-1.4 1.53-2.434 3.33-3.1 5.4-.6 2.07-.9 4.27-.9 6.6 0 4.67.767 9.3 2.3 13.9 1.6 4.6 3.866 8.73 6.8 12.4 2.933 3.6 6.466 6.53 10.6 8.8 4.2 2.27 8.9 3.4 14.1 3.4 2.933 0 5.733-.6 8.4-1.8a21.48 21.48 0 007.1-5c2.067-2.2 3.7-4.8 4.9-7.8 1.2-3.07 1.8-6.47 1.8-10.2 0-3.47-.634-6.97-1.9-10.5h.4c2.133 4.87 3.2 9.73 3.2 14.6 0 4.93-.967 9.47-2.9 13.6-1.933 4.07-4.534 7.57-7.8 10.5-3.267 2.87-7.067 5.1-11.4 6.7-4.267 1.6-8.734 2.4-13.4 2.4-5.2 0-10.067-1.03-14.6-3.1-4.467-2.07-8.367-4.8-11.7-8.2-3.267-3.47-5.834-7.47-7.7-12-1.867-4.6-2.8-9.4-2.8-14.4 0-5.33 1-10.1 3-14.3 2.066-4.27 4.766-7.87 8.1-10.8 3.4-3 7.3-5.27 11.7-6.8 4.4-1.6 8.966-2.4 13.7-2.4 3 0 5.5.17 7.5.5 2.066.33 3.933.5 5.6.5 1.333 0 2.733-.1 4.2-.3 1.466-.2 2.766-.43 3.9-.7a45.04 45.04 0 004-1l-7.8 38.7h-.4l-4.9-21.9c-.867-3.73-2.6-6.67-5.2-8.8-2.533-2.13-6.2-3.2-11-3.2zm71.797 16.5c-4.4 0-7.767 1.07-10.1 3.2-2.267 2.13-3.4 4.9-3.4 8.3 0 2.73.6 5.77 1.8 9.1 1.266 3.33 3.033 6.47 5.3 9.4 2.333 2.93 5.1 5.4 8.3 7.4 3.266 2 6.933 3 11 3 2.266 0 4.395-.37 6.395-1.1 2.07-.73 3.87-1.8 5.4-3.2 1.54-1.4 2.74-3.17 3.6-5.3.87-2.13 1.3-4.6 1.3-7.4 0-2.53-.5-5.2-1.5-8h.4c1.67 3.87 2.5 7.57 2.5 11.1 0 3.73-.76 7.17-2.3 10.3-1.46 3.07-3.5 5.7-6.1 7.9-2.53 2.2-5.46 3.93-8.795 5.2-3.334 1.2-6.8 1.8-10.4 1.8-4 0-7.767-.67-11.3-2-3.467-1.4-6.5-3.3-9.1-5.7a28.35 28.35 0 01-6.2-8.6c-1.467-3.27-2.2-6.8-2.2-10.6 0-3.93.8-7.57 2.4-10.9 1.6-3.4 3.766-6.33 6.5-8.8 2.733-2.47 5.866-4.4 9.4-5.8 3.6-1.4 7.366-2.1 11.3-2.1 2.333 0 4.433.17 6.3.5 1.866.33 3.433.5 4.7.5 1.066 0 2.095-.1 3.095-.3 1.07-.2 2-.43 2.8-.7.94-.27 1.84-.6 2.7-1l-6.9 29.4h-.395l-4.8-16.7c-.8-2.73-2.034-4.9-3.7-6.5-1.667-1.6-4.334-2.4-8-2.4zm134.705-19.3c2.13 0 4.46-.1 7-.3 2.53-.2 4.9-.43 7.1-.7 2.6-.27 5.2-.6 7.8-1l-11.3 35.4h-.4l-4.6-25.4c-.34-1.6-.87-2.87-1.6-3.8-.67-.93-1.84-1.4-3.5-1.4h-2.5c-1.34 0-2.4.47-3.2 1.4-.74.93-1.1 2.17-1.1 3.7v50.2c.06.53.16 1.03.3 1.5.2.4.43.8.7 1.2.26.4.63.83 1.1 1.3l7.9 7.9h-37.2l7.9-7.9c.93-.93 1.6-1.77 2-2.5.46-.73.7-1.93.7-3.6v-48.1c0-1.53-.24-2.77-.7-3.7-.4-.93-1.27-1.4-2.6-1.4h-.9c-1.34 0-2.37.47-3.1 1.4-.74.87-1.47 2.1-2.2 3.7l-11.9 25.5h-.4l-2-35.4c2.4.4 4.76.73 7.1 1 2 .27 4.16.5 6.5.7 2.33.2 4.46.3 6.4.3zm62.71 58.5c0 .93.13 1.7.4 2.3.26.6.76 1.3 1.5 2.1l7.1 7.1h-33.3l7.1-7.1c.73-.8 1.23-1.5 1.5-2.1.26-.6.4-1.37.4-2.3v-34c0-1.2-.27-2.2-.8-3-.47-.8-1.27-1.2-2.4-1.2h-.8c-1.34 0-2.3.3-2.9.9-.6.53-1.17 1.37-1.7 2.5l-9.7 21h-.4l-1.3-29.2c1.86.4 3.66.73 5.4 1 1.53.27 3.1.5 4.7.7 1.66.2 3.1.3 4.3.3h27.2c1.8 0 3.6-.1 5.4-.3 1.86-.2 3.56-.43 5.1-.7 1.73-.27 3.46-.6 5.2-1l-9.2 29.2h-.4l-4.1-21c-.2-1.07-.57-1.9-1.1-2.5-.47-.6-1.37-.9-2.7-.9h-.6c-1.4 0-2.4.43-3 1.3-.6.8-.9 1.77-.9 2.9zm127.91-46.3c.54-1.27.8-2.27.8-3 .07-.8-.26-1.6-1-2.4l-6.7-6.8h23.2l-9.3 7.8c-.86.73-1.53 1.4-2 2-.4.53-.86 1.4-1.4 2.6l-19.9 42.4c-1.13 2.4-2.3 4.6-3.5 6.6s-2.53 3.73-4 5.2c-1.46 1.4-3.1 2.5-4.9 3.3-1.8.73-3.86 1.1-6.2 1.1-1.53 0-3.03-.13-4.5-.4-1.4-.27-2.86-.67-4.4-1.2l-3.5-32.9h.5l11.1 19.7c1.14 1.93 2.2 3.37 3.2 4.3 1.07.93 2.57 1.4 4.5 1.4 1.74 0 3.24-.6 4.5-1.8 1.27-1.27 2.44-3 3.5-5.2zm-10.7 24.6l-8.6 17.7-33.1-54.5h33.9l-6.3 6.5c-1.8 1.87-2 3.9-.6 6.1zm27.64-19.3h30.2l-5.8 5.9c-.53.53-.83 1.17-.9 1.9s.1 1.43.5 2.1l14.4 23.4h-1.2l11.2-23.4c.33-.6.53-1.27.6-2 .13-.73-.13-1.4-.8-2l-6-5.9h19.2l-7.6 6.7c-.4.4-.77.8-1.1 1.2-.33.33-.67.87-1 1.6l-20.8 43.5c-1.53 3.2-3.1 5.93-4.7 8.2s-3.33 4.13-5.2 5.6c-1.8 1.47-3.8 2.53-6 3.2s-4.7 1-7.5 1c-2.27 0-4.47-.37-6.6-1.1l-3.5-33.7h.4l13.4 21.7c.73 1.13 1.53 2 2.4 2.6.87.67 1.93 1 3.2 1 1.13 0 2.2-.13 3.2-.4s1.93-.77 2.8-1.5c.93-.67 1.8-1.6 2.6-2.8.87-1.13 1.73-2.57 2.6-4.3l3-6.2-.6 3.3zM119.1 1604c0-1.67-.167-2.87-.5-3.6s-.967-1.57-1.9-2.5l-7.9-6.9H146l-7.9 6.9c-.933.93-1.567 1.77-1.9 2.5s-.5 1.93-.5 3.6v48c0 1.67.167 2.87.5 3.6s.967 1.57 1.9 2.5l7.9 6.9h-37.2l7.9-6.9c.933-.93 1.567-1.77 1.9-2.5s.5-1.93.5-3.6zm15.9 41.7c1.6.93 3.2 1.67 4.8 2.2 1.6.47 3.167.7 4.7.7 2.667 0 4.933-.83 6.8-2.5 1.867-1.73 2.8-4.3 2.8-7.7 0-2.67-.533-5.37-1.6-8.1s-2.5-5.33-4.3-7.8-3.867-4.73-6.2-6.8c-2.267-2.07-4.6-3.8-7-5.2v-5.8c4.467 0 8.9.53 13.3 1.6s8.333 2.67 11.8 4.8c3.533 2.07 6.367 4.63 8.5 7.7 2.2 3.07 3.3 6.57 3.3 10.5 0 4-1.1 7.4-3.3 10.2-2.133 2.8-4.967 5.1-8.5 6.9-3.467 1.73-7.4 3-11.8 3.8s-8.833 1.2-13.3 1.2zm-15.3 5.7c-4.467 0-8.9-.53-13.3-1.6s-8.333-2.63-11.8-4.7c-3.467-2.13-6.267-4.73-8.4-7.8s-3.2-6.57-3.2-10.5c0-4 1.067-7.4 3.2-10.2s4.933-5.07 8.4-6.8c3.467-1.8 7.4-3.1 11.8-3.9s8.833-1.2 13.3-1.2v6.4c-1.333-1-2.867-1.83-4.6-2.5-1.667-.67-3.267-1-4.8-1-2.733 0-5.033.9-6.9 2.7-1.867 1.73-2.8 4.37-2.8 7.9 0 3.6.5 6.87 1.5 9.8 1.067 2.87 2.467 5.47 4.2 7.8 1.733 2.27 3.767 4.27 6.1 6s4.767 3.23 7.3 4.5zm86.122-45.4c0-1.67-.167-2.87-.5-3.6s-.967-1.57-1.9-2.5l-7.9-6.9h24.2l-7.9 6.9c-.933.93-1.567 1.77-1.9 2.5s-.5 1.93-.5 3.6v61.5c0 1.67.167 2.87.5 3.6s.967 1.57 1.9 2.5l7.9 6.9h-24.2l7.9-6.9c.933-.93 1.567-1.77 1.9-2.5s.5-1.93.5-3.6zm-13 7.3c2.4-1.27 4.867-2.2 7.4-2.8 2.6-.6 5.2-.9 7.8-.9 5.267 0 10.2 1.17 14.8 3.5 4.667 2.33 8.4 5.7 11.2 10.1 1.333 2.13 2.3 4.3 2.9 6.5s.9 4.43.9 6.7c0 2.4-.333 4.77-1 7.1-.667 2.27-1.667 4.43-3 6.5-1.267 2.07-2.867 4-4.8 5.8-1.933 1.73-4.133 3.23-6.6 4.5-2.4 1.27-4.9 2.2-7.5 2.8-2.533.6-5.1.9-7.7.9-5.267 0-10.233-1.17-14.9-3.5-4.6-2.33-8.3-5.7-11.1-10.1-1.333-2.13-2.3-4.3-2.9-6.5-.6-2.27-.9-4.53-.9-6.8 0-4.8 1.3-9.33 3.9-13.6 2.667-4.27 6.5-7.67 11.5-10.2zm.7 3.2c-2.8 1.47-4.2 3.97-4.2 7.5 0 2.13.567 4.73 1.7 7.8 1.2 3.07 3.167 6.57 5.9 10.5 3.867 5.6 7.533 9.63 11 12.1 3.467 2.4 6.6 3.6 9.4 3.6.8 0 1.533-.07 2.2-.2a9.354 9.354 0 002.2-.7c1.333-.73 2.367-1.7 3.1-2.9.733-1.27 1.1-2.8 1.1-4.6 0-2.13-.6-4.73-1.8-7.8-1.133-3.07-3.1-6.6-5.9-10.6-3.867-5.6-7.533-9.6-11-12s-6.567-3.6-9.3-3.6c-.8 0-1.567.07-2.3.2-.667.13-1.367.37-2.1.7zm171.63 46.5h-35.3l6.3-6.8c.6-.67.933-1.4 1-2.2.066-.87-.167-1.67-.7-2.4l-42.1-58.6h35.4l-6.3 6.8c-.6.67-.967 1.43-1.1 2.3-.067.87.166 1.67.7 2.4zm-58.4-11.6c-.667 1-1.034 1.87-1.1 2.6 0 .73.366 1.47 1.1 2.2l6.5 6.8h-22.9l8.3-6.9a13.7 13.7 0 002.3-2.5c.666-1 1.333-2.03 2-3.1l20.2-31.3 2.1 3.5zm22.8-14.4l-2.4-3.1 17.9-29c.733-1.13 1.033-2.07.9-2.8-.067-.8-.434-1.57-1.1-2.3l-6.7-6.8h23l-7.8 6.8c-.734.67-1.467 1.47-2.2 2.4a24.27 24.27 0 00-1.8 2.7zm49.104 15.4c-.466.73-.733 1.5-.8 2.3-.066.8.267 1.57 1 2.3l5.5 6h-19.2l5.6-4.9c.934-.8 1.667-1.53 2.2-2.2.534-.67 1.267-1.73 2.2-3.2l14.5-22.5 1.6 2.6zm19.5-8.9l-1.9-2.3 12.5-20.5c.467-.73.734-1.43.8-2.1.134-.67-.166-1.37-.9-2.1l-5.7-6h19.2l-5.6 4.7c-.8.67-1.533 1.4-2.2 2.2-.6.73-1.266 1.67-2 2.8zm-30-33h31.2l-4.9 5.1c-1.533 1.53-1.733 3.03-.6 4.5l30.8 42.9h-31.2l4.9-5.1c1.467-1.47 1.567-3.1.3-4.9zm161.373 49.7V1607c0-1.67-.167-2.87-.5-3.6s-.967-1.57-1.9-2.5l-7.9-7.9h37.2l-7.9 7.9c-.933.93-1.567 1.77-1.9 2.5s-.5 1.93-.5 3.6v53.2h10.8l-10.3 24.4h-.4l-4.9-18.1c-.333-1.33-.867-2.27-1.6-2.8-.667-.47-1.933-.7-3.8-.7h-60.3l7.9-7.9c.933-.93 1.567-1.77 1.9-2.5s.5-1.93.5-3.6v-42c0-1.67-.167-2.87-.5-3.6s-.967-1.57-1.9-2.5l-7.9-7.9h37.2l-7.9 7.9c-.933.93-1.567 1.77-1.9 2.5s-.5 1.93-.5 3.6v45.5c0 5.13 2.567 7.7 7.7 7.7zm99.989 0l-8.7 21.3h-.4l-5.7-15.4c-.4-1.13-.967-1.93-1.7-2.4-.667-.47-1.8-.7-3.4-.7h-50.2l7.1-7.1c.733-.8 1.233-1.5 1.5-2.1s.4-1.37.4-2.3V1622c0-.93-.133-1.7-.4-2.3s-.767-1.3-1.5-2.1l-7.1-7.1h33.3l-7.1 7.1c-.733.8-1.233 1.5-1.5 2.1s-.4 1.37-.4 2.3v31.5c0 2.53.5 4.3 1.5 5.3 1.067.93 2.6 1.4 4.6 1.4h14.9V1622c0-.93-.133-1.7-.4-2.3s-.767-1.3-1.5-2.1l-7.1-7.1h33.3l-7.1 7.1c-.733.8-1.233 1.5-1.5 2.1s-.4 1.37-.4 2.3v38.2zM749.2 1663H712l8.5-8.6c.533-.47.967-1.13 1.3-2s.5-1.77.5-2.7v-19.6c-2.933 1-5.7 1.73-8.3 2.2-2.533.47-4.933.7-7.2.7-3.8 0-7.233-.57-10.3-1.7-3-1.2-5.533-2.9-7.6-5.1s-3.667-4.83-4.8-7.9c-1.067-3.13-1.6-6.6-1.6-10.4 0-4.73.733-9.7 2.2-14.9h26.2l-8.1 8.1c-1 1-1.7 2-2.1 3s-.6 2.27-.6 3.8c0 6.33 1.4 11.23 4.2 14.7s6.6 5.2 11.4 5.2c2 0 4.2-.4 6.6-1.2V1593h26.9l-7.9 7.9c-.933.93-1.567 1.77-1.9 2.5s-.5 1.93-.5 3.6v42c0 1.67.167 2.87.5 3.6s.967 1.57 1.9 2.5zm25.062-52.5l-7 6.9c-.8.73-1.2 1.67-1.2 2.8 0 3.6.966 6.63 2.9 9.1 1.933 2.47 5 3.7 9.2 3.7 1.066 0 2.2-.1 3.4-.3v2.9c-2.2.73-4.5 1.33-6.9 1.8-2.4.4-4.8.57-7.2.5-2.334-.07-4.567-.4-6.7-1-2.134-.67-4.034-1.7-5.7-3.1-1.6-1.47-2.9-3.3-3.9-5.5-.934-2.27-1.4-5.03-1.4-8.3 0-1.33.133-2.83.4-4.5.333-1.73.8-3.4 1.4-5zm22.6 41c0 .93.133 1.7.4 2.3.266.6.766 1.3 1.5 2.1l7.1 7.1h-33.3l7.1-7.1c.733-.8 1.233-1.5 1.5-2.1.266-.6.4-1.37.4-2.3v-41h24.3l-7.1 7.1c-.734.8-1.234 1.5-1.5 2.1-.267.6-.4 1.37-.4 2.3zm132.293 8.7V1593h26.9l-7.9 7.9c-.933.93-1.566 1.77-1.9 2.5-.333.73-.5 1.93-.5 3.6v42c0 1.67.167 2.87.5 3.6.334.73.967 1.57 1.9 2.5l7.9 7.9h-98.2l7.9-7.9c.934-.93 1.567-1.77 1.9-2.5.334-.73.5-1.93.5-3.6v-42c0-1.67-.166-2.87-.5-3.6-.333-.73-.966-1.57-1.9-2.5l-7.9-7.9h26.9v59.5c0 5.13 2.567 7.7 7.7 7.7h12.9V1607c0-1.67-.166-2.87-.5-3.6-.333-.73-.966-1.57-1.9-2.5l-7.9-7.9h23.9l-7.9 7.9c-.933.93-1.566 1.77-1.9 2.5-.333.73-.5 1.93-.5 3.6v45.5c0 5.13 2.567 7.7 7.7 7.7zm73.295-42.6c-.73.8-1.23 1.5-1.5 2.1s-.4 1.37-.4 2.3v31.5c0 2.53.5 4.3 1.5 5.3 1.07.93 2.6 1.4 4.6 1.4h9.5v-49.7h24.3l-7.1 7.1c-.73.8-1.23 1.5-1.5 2.1s-.4 1.37-.4 2.3v29.5c0 .93.13 1.7.4 2.3s.77 1.3 1.5 2.1l7.1 7.1h-82.399l7.1-7.1c.733-.8 1.233-1.5 1.5-2.1.266-.6.4-1.37.4-2.3V1622c0-.93-.134-1.7-.4-2.3-.267-.6-.767-1.3-1.5-2.1l-7.1-7.1h24.3v43c0 2.53.5 4.3 1.5 5.3 1.066.93 2.6 1.4 4.6 1.4h9.5V1622c0-.93-.134-1.7-.4-2.3-.267-.6-.767-1.3-1.5-2.1l-7.1-7.1h20.599zm137.48 42.6V1607c0-1.67-.17-2.87-.5-3.6-.34-.73-.97-1.57-1.9-2.5l-7.9-7.9h23.9l-7.9 7.9c-.94.93-1.57 1.77-1.9 2.5-.34.73-.5 1.93-.5 3.6v45.5c0 5.13 2.56 7.7 7.7 7.7h12.8V1593h26.9l-7.9 7.9c-.94.93-1.57 1.77-1.9 2.5-.34.73-.5 1.93-.5 3.6v53.2h10.8l-10.3 24.4h-.4l-4.9-18.1c-.34-1.33-.87-2.27-1.6-2.8-.67-.47-1.94-.7-3.8-.7h-77.7l7.9-7.9c.93-.93 1.56-1.77 1.9-2.5.33-.73.5-1.93.5-3.6v-42c0-1.67-.17-2.87-.5-3.6-.34-.73-.97-1.57-1.9-2.5l-7.9-7.9h26.9v59.5c0 5.13 2.56 7.7 7.7 7.7zm53.67 2.8l7.1-7.1c.73-.8 1.23-1.5 1.5-2.1.26-.6.4-1.37.4-2.3V1622c0-.93-.14-1.7-.4-2.3-.27-.6-.77-1.3-1.5-2.1l-7.1-7.1h24.3v43c0 2.53.5 4.3 1.5 5.3 1.06.93 2.6 1.4 4.6 1.4h9.5V1622c0-.93-.14-1.7-.4-2.3-.27-.6-.77-1.3-1.5-2.1l-7.1-7.1h20.6l-7.1 7.1c-.74.8-1.24 1.5-1.5 2.1-.27.6-.4 1.37-.4 2.3v31.5c0 2.53.5 4.3 1.5 5.3 1.06.93 2.6 1.4 4.6 1.4h9.5v-49.7h24.3l-7.1 7.1c-.74.8-1.24 1.5-1.5 2.1-.27.6-.4 1.37-.4 2.3v38.2h9.5l-8.7 21.4h-.4l-5.7-15.5c-.4-1.13-.97-1.93-1.7-2.4-.67-.47-1.8-.7-3.4-.7zM130.2 1795.2c1.6 0 3.333-.43 5.2-1.3s3.6-2.03 5.2-3.5c1.6-1.53 2.933-3.3 4-5.3 1.067-2.07 1.6-4.23 1.6-6.5 0-2.4-.6-4.07-1.8-5-1.133-1-2.7-1.5-4.7-1.5-1.6 0-3.333.43-5.2 1.3-1.8.87-3.5 2.07-5.1 3.6-1.6 1.47-2.933 3.23-4 5.3-1 2-1.5 4.13-1.5 6.4 0 2.4.567 4.1 1.7 5.1 1.133.93 2.667 1.4 4.6 1.4zm-32.7 2.8l7.9-7.9c.933-.93 1.567-1.77 1.9-2.5s.5-1.93.5-3.6v-48.1c0-1.53-.233-2.77-.7-3.7-.4-.93-1.267-1.4-2.6-1.4h-.9c-1.333 0-2.367.43-3.1 1.3-.733.87-1.467 2.13-2.2 3.8l-11.9 28.5H86l-2-38.4c2.4.4 4.767.73 7.1 1 2 .27 4.167.5 6.5.7s4.467.3 6.4.3h30.7l-7.9 7.9c-.933.93-1.567 1.77-1.9 2.5s-.5 1.93-.5 3.6v35a28.48 28.48 0 014.4-4.6c1.733-1.4 3.567-2.6 5.5-3.6 2-1 4.067-1.77 6.2-2.3 2.2-.6 4.367-.9 6.5-.9 2.467 0 4.733.33 6.8 1 2.067.6 3.833 1.5 5.3 2.7 1.467 1.13 2.6 2.57 3.4 4.3.867 1.73 1.3 3.7 1.3 5.9 0 2.87-.767 5.47-2.3 7.8-1.533 2.27-3.667 4.2-6.4 5.8-2.667 1.6-5.833 2.83-9.5 3.7-3.667.8-7.667 1.2-12 1.2zm110.328-2.8c1.467 0 3.033-.33 4.7-1s3.2-1.57 4.6-2.7 2.567-2.47 3.5-4c.933-1.6 1.4-3.27 1.4-5 0-1.8-.533-3.07-1.6-3.8-1-.8-2.4-1.2-4.2-1.2-1.4 0-2.933.33-4.6 1s-3.2 1.6-4.6 2.8c-1.4 1.13-2.567 2.47-3.5 4s-1.4 3.17-1.4 4.9c0 1.87.5 3.17 1.5 3.9s2.4 1.1 4.2 1.1zm3.8-49.7l-7.1 7.1c-.733.8-1.233 1.5-1.5 2.1s-.4 1.37-.4 2.3v23.7c2.267-2.67 5.233-4.87 8.9-6.6s7.433-2.6 11.3-2.6c4.533 0 8.233 1 11.1 3 2.867 1.93 4.3 4.7 4.3 8.3 0 2.33-.7 4.47-2.1 6.4-1.4 1.87-3.333 3.47-5.8 4.8-2.4 1.27-5.3 2.27-8.7 3-3.333.67-6.967 1-10.9 1h-32.4l7.1-7.1c.733-.8 1.233-1.5 1.5-2.1s.4-1.37.4-2.3v-34c0-1.2-.267-2.2-.8-3-.467-.8-1.267-1.2-2.4-1.2h-.8c-1.333 0-2.3.3-2.9.9-.6.53-1.167 1.37-1.7 2.5l-9.7 21h-.4l-1.3-29.2c1.867.4 3.667.73 5.4 1 1.533.27 3.1.5 4.7.7 1.667.2 3.1.3 4.3.3zm106.526 31.5a28.48 28.48 0 014.4-4.6c1.733-1.4 3.567-2.6 5.5-3.6 2-1 4.067-1.77 6.2-2.3 2.2-.6 4.367-.9 6.5-.9 2.467 0 4.733.33 6.8 1 2.067.6 3.833 1.5 5.3 2.7 1.467 1.13 2.6 2.57 3.4 4.3.867 1.73 1.3 3.7 1.3 5.9 0 2.87-.767 5.47-2.3 7.8-1.533 2.27-3.667 4.2-6.4 5.8-2.667 1.6-5.833 2.83-9.5 3.7-3.667.8-7.667 1.2-12 1.2h-36.1l7.9-7.9c.933-.93 1.567-1.77 1.9-2.5s.5-1.93.5-3.6v-42c0-1.67-.167-2.87-.5-3.6s-.967-1.57-1.9-2.5l-7.9-7.9h37.2l-7.9 7.9c-.933.93-1.567 1.77-1.9 2.5s-.5 1.93-.5 3.6zm65.3 7c0 1.67.167 2.87.5 3.6s.967 1.57 1.9 2.5l7.9 7.9h-37.2l7.9-7.9c.933-.93 1.567-1.77 1.9-2.5s.5-1.93.5-3.6v-42c0-1.67-.167-2.87-.5-3.6s-.967-1.57-1.9-2.5l-7.9-7.9h37.2l-7.9 7.9c-.933.93-1.567 1.77-1.9 2.5s-.5 1.93-.5 3.6zm-59.5 11.2c1.6 0 3.333-.43 5.2-1.3s3.6-2.03 5.2-3.5c1.6-1.53 2.933-3.3 4-5.3 1.067-2.07 1.6-4.23 1.6-6.5 0-2.4-.6-4.07-1.8-5-1.133-1-2.7-1.5-4.7-1.5-1.6 0-3.333.43-5.2 1.3-1.8.87-3.5 2.07-5.1 3.6-1.6 1.47-2.933 3.23-4 5.3-1 2-1.5 4.13-1.5 6.4 0 2.4.567 4.1 1.7 5.1 1.133.93 2.667 1.4 4.6 1.4zm101.292 0c1.467 0 3.033-.33 4.7-1s3.2-1.57 4.6-2.7 2.567-2.47 3.5-4c.933-1.6 1.4-3.27 1.4-5 0-1.8-.533-3.07-1.6-3.8-1-.8-2.4-1.2-4.2-1.2-1.4 0-2.933.33-4.6 1s-3.2 1.6-4.6 2.8c-1.4 1.13-2.567 2.47-3.5 4s-1.4 3.17-1.4 4.9c0 1.87.5 3.17 1.5 3.9s2.4 1.1 4.2 1.1zm55.6-42.6c-.733.8-1.233 1.5-1.5 2.1s-.4 1.37-.4 2.3v29.5c0 .93.133 1.7.4 2.3s.767 1.3 1.5 2.1l7.1 7.1h-33.3l7.1-7.1c.733-.8 1.233-1.5 1.5-2.1s.4-1.37.4-2.3V1757c0-.93-.133-1.7-.4-2.3s-.767-1.3-1.5-2.1l-7.1-7.1h33.3zm-60.8 28.1c2.267-2.67 5.233-4.87 8.9-6.6s7.433-2.6 11.3-2.6c4.533 0 8.233 1 11.1 3 2.867 1.93 4.3 4.7 4.3 8.3 0 2.33-.7 4.47-2.1 6.4-1.4 1.87-3.333 3.47-5.8 4.8-2.4 1.27-5.3 2.27-8.7 3-3.333.67-6.967 1-10.9 1h-32.4l7.1-7.1c.733-.8 1.233-1.5 1.5-2.1s.4-1.37.4-2.3V1757c0-.93-.133-1.7-.4-2.3s-.767-1.3-1.5-2.1l-7.1-7.1h33.3l-7.1 7.1c-.733.8-1.233 1.5-1.5 2.1s-.4 1.37-.4 2.3zm152.638 14.5c1.6 0 3.334-.43 5.2-1.3 1.867-.87 3.6-2.03 5.2-3.5a20.85 20.85 0 004-5.3c1.067-2.07 1.6-4.23 1.6-6.5 0-2.4-.6-4.07-1.8-5-1.133-1-2.7-1.5-4.7-1.5-1.6 0-3.333.43-5.2 1.3-1.8.87-3.5 2.07-5.1 3.6-1.6 1.47-2.933 3.23-4 5.3-1 2-1.5 4.13-1.5 6.4 0 2.4.567 4.1 1.7 5.1 1.134.93 2.667 1.4 4.6 1.4zm-32.7 2.8l7.9-7.9c.934-.93 1.567-1.77 1.9-2.5.334-.73.5-1.93.5-3.6v-42c0-1.67-.166-2.87-.5-3.6-.333-.73-.966-1.57-1.9-2.5l-7.9-7.9h37.2l-7.9 7.9c-.933.93-1.566 1.77-1.9 2.5-.333.73-.5 1.93-.5 3.6v35a28.524 28.524 0 014.4-4.6c1.734-1.4 3.567-2.6 5.5-3.6 2-1 4.067-1.77 6.2-2.3 2.2-.6 4.367-.9 6.5-.9 2.467 0 4.734.33 6.8 1 2.067.6 3.834 1.5 5.3 2.7 1.467 1.13 2.6 2.57 3.4 4.3.867 1.73 1.3 3.7 1.3 5.9 0 2.87-.766 5.47-2.3 7.8-1.533 2.27-3.666 4.2-6.4 5.8-2.666 1.6-5.833 2.83-9.5 3.7-3.666.8-7.666 1.2-12 1.2zm99.325-2.8c1.466 0 3.033-.33 4.7-1 1.666-.67 3.2-1.57 4.6-2.7s2.566-2.47 3.5-4c.933-1.6 1.4-3.27 1.4-5 0-1.8-.534-3.07-1.6-3.8-1-.8-2.4-1.2-4.2-1.2-1.4 0-2.934.33-4.6 1-1.667.67-3.2 1.6-4.6 2.8a15.43 15.43 0 00-3.5 4c-.934 1.53-1.4 3.17-1.4 4.9 0 1.87.5 3.17 1.5 3.9s2.4 1.1 4.2 1.1zm-5.2-14.5c2.266-2.67 5.233-4.87 8.9-6.6 3.666-1.73 7.433-2.6 11.3-2.6 4.533 0 8.233 1 11.1 3 2.866 1.93 4.3 4.7 4.3 8.3 0 2.33-.7 4.47-2.1 6.4-1.4 1.87-3.334 3.47-5.8 4.8-2.4 1.27-5.3 2.27-8.7 3-3.334.67-6.967 1-10.9 1h-32.4l7.1-7.1c.733-.8 1.233-1.5 1.5-2.1.266-.6.4-1.37.4-2.3V1757c0-.93-.134-1.7-.4-2.3-.267-.6-.767-1.3-1.5-2.1l-7.1-7.1h33.3l-7.1 7.1c-.734.8-1.234 1.5-1.5 2.1-.267.6-.4 1.37-.4 2.3zm122.19-21.8h25.2v2.8h-25.2zm4.1 36.3c2.6 0 5-.5 7.2-1.5a18.234 18.234 0 005.9-4.4c1.667-1.93 2.967-4.23 3.9-6.9 1-2.67 1.5-5.63 1.5-8.9 0-5.93-.833-11.37-2.5-16.3-1.666-4.93-3.8-9.13-6.4-12.6-2.533-3.53-5.366-6.27-8.5-8.2-3.066-1.93-6-2.9-8.8-2.9-2.466 0-4.4.57-5.8 1.7s-2.566 2.8-3.5 5l-8.4 20h-.4l-2.8-34.2c1.334.67 2.634 1.23 3.9 1.7 1.134.4 2.3.77 3.5 1.1 1.267.33 2.4.5 3.4.5 1.134 0 2.2-.1 3.2-.3 1.067-.27 2.167-.53 3.3-.8 1.134-.33 2.367-.6 3.7-.8 1.4-.27 3-.4 4.8-.4 5.4 0 10.334 1.07 14.8 3.2 4.534 2.07 8.434 4.87 11.7 8.4 3.267 3.47 5.8 7.47 7.6 12s2.7 9.27 2.7 14.2c0 5.33-.966 10.13-2.9 14.4-1.933 4.2-4.5 7.77-7.7 10.7s-6.9 5.2-11.1 6.8a36.867 36.867 0 01-12.9 2.3c-4.466 0-8.8-.37-13-1.1-4.133-.8-7.8-2.07-11-3.8s-5.766-4.03-7.7-6.9c-1.933-2.93-2.9-6.57-2.9-10.9 0-1.67.167-3.4.5-5.2.4-1.87.967-3.77 1.7-5.7h25.3l-7.1 7.2c-.866.93-1.566 1.87-2.1 2.8-.466.87-.7 2.03-.7 3.5 0 5.8 1.467 9.97 4.4 12.5 3 2.53 7.4 3.8 13.2 3.8zm67.396 1c2.133 0 4.1-.37 5.9-1.1 1.866-.8 3.466-1.9 4.8-3.3 1.4-1.4 2.466-3.1 3.2-5.1.8-2.07 1.2-4.4 1.2-7 0-3.93-.534-7.67-1.6-11.2-1.067-3.53-2.5-6.63-4.3-9.3-1.734-2.67-3.767-4.77-6.1-6.3-2.334-1.6-4.767-2.4-7.3-2.4-1.334 0-2.434.4-3.3 1.2-.8.73-1.534 1.8-2.2 3.2l-6.7 14.4h-.4l-4.1-25.8c.866.4 1.766.73 2.7 1 .8.27 1.7.5 2.7.7 1.066.2 2.166.3 3.3.3 1.6 0 3.5-.17 5.7-.5a49.96 49.96 0 017.2-.5c4.133 0 7.933.67 11.4 2 3.533 1.33 6.566 3.2 9.1 5.6 2.6 2.33 4.633 5.17 6.1 8.5 1.466 3.27 2.2 6.87 2.2 10.8s-.8 7.6-2.4 11a27.906 27.906 0 01-6.5 8.7c-2.667 2.47-5.8 4.4-9.4 5.8-3.534 1.4-7.3 2.1-11.3 2.1-9.067 0-15.9-1.47-20.5-4.4-4.534-2.93-6.8-7.27-6.8-13 0-1.2.1-2.53.3-4 .266-1.47.666-2.9 1.2-4.3h23.1l-6.9 8.3c-.534.53-.9 1.23-1.1 2.1-.2.8-.3 1.67-.3 2.6 0 1.2.166 2.4.5 3.6.333 1.13.933 2.2 1.8 3.2.866.93 2 1.7 3.4 2.3 1.4.53 3.2.8 5.4.8zm19.3-27.2v2.8h-17.1v-2.8zm91.078 15c0 1.67.167 2.87.5 3.6.334.73.967 1.57 1.9 2.5l7.9 7.9h-37.2l7.9-7.9c.934-.93 1.567-1.77 1.9-2.5.334-.73.5-1.93.5-3.6v-42c0-1.67-.166-2.87-.5-3.6-.333-.73-.966-1.57-1.9-2.5l-7.9-7.9h37.2l-7.9 7.9c-.933.93-1.566 1.77-1.9 2.5-.333.73-.5 1.93-.5 3.6zm27.1-52.1c3.067-1.67 6.167-2.9 9.3-3.7 3.134-.8 6.267-1.2 9.4-1.2 6.267 0 12.134 1.57 17.597 4.7 5.47 3.07 9.97 7.5 13.5 13.3 3.8 6.33 5.7 12.93 5.7 19.8 0 2.93-.36 5.83-1.1 8.7-.73 2.8-1.86 5.47-3.4 8-1.46 2.53-3.3 4.87-5.5 7s-4.8 4-7.8 5.6c-3.063 1.67-6.163 2.9-9.297 3.7a37.86 37.86 0 01-9.4 1.2c-6.266 0-12.166-1.53-17.7-4.6-5.466-3.13-9.966-7.6-13.5-13.4-3.733-6.27-5.6-12.83-5.6-19.7 0-5.93 1.467-11.5 4.4-16.7 2.934-5.27 7.4-9.5 13.4-12.7zm.6 3.2c-1.866.93-3.333 2.4-4.4 4.4-1.066 1.93-1.6 4.4-1.6 7.4 0 3.2.7 6.83 2.1 10.9s3.8 8.7 7.2 13.9c4.934 7.53 9.7 12.9 14.3 16.1 4.6 3.13 8.767 4.7 12.5 4.7 2.267 0 4.367-.53 6.297-1.6 1.87-.93 3.34-2.37 4.4-4.3 1.14-2 1.7-4.5 1.7-7.5 0-3.13-.73-6.73-2.2-10.8-1.4-4.13-3.8-8.8-7.197-14-2.533-3.8-5-7-7.4-9.6-2.4-2.67-4.733-4.83-7-6.5-2.266-1.67-4.433-2.87-6.5-3.6-2.066-.73-4.033-1.1-5.9-1.1-2.266 0-4.366.53-6.3 1.6zm-33.3 30.8l.4-3.1 21.2-3.7-.4 3.1zm115.987 20.6c0 .93.14 1.7.4 2.3.27.6.77 1.3 1.5 2.1l7.1 7.1h-33.3l7.1-7.1c.74-.8 1.24-1.5 1.5-2.1.27-.6.4-1.37.4-2.3V1757c0-.93-.13-1.7-.4-2.3-.26-.6-.76-1.3-1.5-2.1l-7.1-7.1h33.3l-7.1 7.1c-.73.8-1.23 1.5-1.5 2.1-.26.6-.4 1.37-.4 2.3zm12.9-17.5v2.8h-17.1v-2.8zm10-20.8c2.34-1.27 4.74-2.2 7.2-2.8 2.47-.6 4.97-.9 7.5-.9 5.07 0 9.84 1.17 14.3 3.5 4.54 2.33 8.14 5.7 10.8 10.1 2.47 4.13 3.7 8.53 3.7 13.2 0 2.4-.33 4.77-1 7.1-.67 2.27-1.63 4.47-2.9 6.6-1.2 2.07-2.73 4-4.6 5.8-1.86 1.73-4 3.23-6.4 4.5-2.33 1.27-4.73 2.2-7.2 2.8-2.46.6-4.96.9-7.5.9-5.06 0-9.86-1.17-14.4-3.5-4.46-2.33-8.03-5.7-10.7-10.1-1.26-2.13-2.2-4.33-2.8-6.6s-.9-4.53-.9-6.8c0-4.8 1.27-9.33 3.8-13.6 2.6-4.27 6.3-7.67 11.1-10.2zm1 3.2c-2.66 1.47-4 3.97-4 7.5 0 2.13.57 4.77 1.7 7.9 1.14 3.07 2.97 6.57 5.5 10.5 3.67 5.6 7.14 9.63 10.4 12.1 3.27 2.4 6.24 3.6 8.9 3.6.74 0 1.44-.07 2.1-.2.67-.13 1.34-.37 2-.7 2.67-1.47 4-3.97 4-7.5 0-2.13-.56-4.73-1.7-7.8-1.13-3.07-3-6.6-5.6-10.6-3.66-5.6-7.13-9.6-10.4-12-3.26-2.47-6.2-3.7-8.8-3.7-.73 0-1.43.07-2.1.2-.66.13-1.33.37-2 .7zm141.13-.5a27.165 27.165 0 01-4.5 5.1c-1.67 1.53-3.5 2.87-5.5 4-1.94 1.07-4 1.9-6.2 2.5-2.14.6-4.27.9-6.4.9-2.47 0-4.74-.33-6.8-1-2.07-.67-3.84-1.63-5.3-2.9a14.655 14.655 0 01-3.5-4.8c-.8-1.93-1.2-4.1-1.2-6.5 0-3.13.76-5.93 2.3-8.4 1.53-2.53 3.63-4.67 6.3-6.4 2.73-1.73 5.93-3.07 9.6-4 3.66-.93 7.66-1.4 12-1.4h36.1l-7.9 7.9c-.94.93-1.57 1.77-1.9 2.5-.34.73-.5 1.93-.5 3.6v42c0 1.67.16 2.87.5 3.6.33.73.96 1.57 1.9 2.5l7.9 7.9h-37.2l7.9-7.9c.93-.93 1.56-1.77 1.9-2.5.33-.73.5-1.93.5-3.6v-18.2c-6.2 2.13-11.07 5.8-14.6 11-3.47 5.2-5.6 12.27-6.4 21.2h-21.6c1.06-5.53 2.83-10.33 5.3-14.4 2.46-4.13 5.53-7.63 9.2-10.5 3.66-2.87 7.86-5.13 12.6-6.8 4.73-1.73 9.9-3 15.5-3.8zm-5.8-20.1c-1.6 0-3.34.5-5.2 1.5-1.87.93-3.6 2.27-5.2 4-1.6 1.67-2.94 3.63-4 5.9-1.07 2.27-1.6 4.7-1.6 7.3 0 2.8.56 4.73 1.7 5.8 1.2 1.07 2.8 1.6 4.8 1.6 1.6 0 3.3-.47 5.1-1.4 1.86-1 3.6-2.33 5.2-4 1.6-1.73 2.9-3.73 3.9-6 1.06-2.27 1.6-4.7 1.6-7.3 0-2.8-.57-4.73-1.7-5.8-1.14-1.07-2.67-1.6-4.6-1.6zm73.03 32c-2.13 2.6-4.9 4.77-8.3 6.5s-6.93 2.6-10.6 2.6c-4.26 0-7.73-.97-10.4-2.9-2.66-2-4-4.77-4-8.3 0-2.33.64-4.43 1.9-6.3 1.34-1.87 3.14-3.47 5.4-4.8 2.34-1.33 5.07-2.33 8.2-3 3.14-.73 6.54-1.1 10.2-1.1h31.9l-7.1 7.1c-.73.8-1.23 1.5-1.5 2.1-.26.6-.4 1.37-.4 2.3v29.5c0 .93.14 1.7.4 2.3.27.6.77 1.3 1.5 2.1l7.1 7.1h-33.3l7.1-7.1c.74-.8 1.24-1.5 1.5-2.1.27-.6.4-1.37.4-2.3zm0 11.4c-3.4 1.47-6.26 3.03-8.6 4.7-2.26 1.6-4.13 3.37-5.6 5.3-1.4 1.93-2.5 4.07-3.3 6.4-.73 2.27-1.23 4.73-1.5 7.4h-18.3c.8-4 2.27-7.43 4.4-10.3 2.2-2.93 4.9-5.43 8.1-7.5 3.27-2.13 7-3.87 11.2-5.2s8.74-2.47 13.6-3.4zm-4.8-25.9c-1.4 0-2.9.33-4.5 1-1.53.67-3 1.6-4.4 2.8-1.33 1.13-2.46 2.5-3.4 4.1-.86 1.53-1.3 3.17-1.3 4.9 0 1.8.5 3.1 1.5 3.9 1 .73 2.37 1.1 4.1 1.1 1.4 0 2.87-.33 4.4-1 1.6-.67 3.07-1.57 4.4-2.7 1.4-1.2 2.54-2.57 3.4-4.1.94-1.6 1.4-3.27 1.4-5 0-1.87-.5-3.17-1.5-3.9s-2.36-1.1-4.1-1.1zM299.964 683.16c0 13.695 1.369 23.556 4.107 29.582s7.94 12.873 15.607 20.543l64.893 64.915H79l64.893-64.915c7.666-7.67 12.869-14.517 15.607-20.543s4.107-15.887 4.107-29.582V338.04c0-13.695-1.369-23.556-4.107-29.582s-7.941-12.873-15.607-20.543L79 223h305.571l-64.893 64.915c-7.667 7.67-12.869 14.517-15.607 20.543s-4.107 15.887-4.107 29.582zM534.07 338.04c0-13.695-1.369-23.556-4.107-29.582s-7.94-12.873-15.607-20.543L449.464 223h305.57l-64.892 64.915c-7.667 7.67-12.869 14.517-15.608 20.543-2.738 6.026-4.107 15.887-4.107 29.582v345.12c0 13.695 1.369 23.556 4.107 29.582 2.739 6.026 7.941 12.873 15.608 20.543l64.892 64.915h-305.57l64.892-64.915c7.667-7.67 12.869-14.517 15.607-20.543s4.107-15.887 4.107-29.582zm8.215 36.977l20.535 13.969-271.07 257.197-2.465-30.404zm416.47 400.175c32.857-6.574 62.425-18.899 88.715-36.977 26.83-18.078 49.83-39.168 69-63.272s33.95-49.851 44.36-77.241c10.4-27.939 15.6-54.781 15.6-80.528 0-36.156-7.94-63.272-23.82-81.35-15.33-18.626-36.14-27.938-62.43-27.938-15.88 0-31.76 4.382-47.64 13.147-15.33 8.765-29.3 20.817-41.89 36.156-12.598 14.79-22.729 32.594-30.395 53.411-7.667 20.817-11.5 43.003-11.5 66.559zm0-313.073c9.857-18.626 21.63-34.512 35.321-47.66 13.694-13.147 27.924-23.829 42.714-32.046 15.33-8.218 30.94-14.243 46.82-18.078 16.43-3.835 32.31-5.752 47.64-5.752 26.84 0 51.21 3.561 73.11 10.682 21.91 7.122 40.52 17.804 55.86 32.047 15.88 13.695 28.2 31.225 36.96 52.59 8.76 20.817 13.15 45.194 13.15 73.132 0 32.321-7.4 63.546-22.18 93.676-14.79 30.129-36.97 57.52-66.54 82.171-29.57 24.104-66.26 44.647-110.07 61.629s-94.74 28.212-152.785 33.69v49.303c0 7.669 1.095 13.969 3.285 18.899 2.191 4.931 6.298 10.683 12.322 17.256L1032.68 942H833.076V461.297c0-7.669-1.095-13.969-3.285-18.899-2.191-4.931-6.298-10.683-12.322-17.256L759.148 366.8h199.607zm598.045-3.287c22.45 0 38.06-4.109 46.82-12.326 9.31-8.217 13.96-18.351 13.96-30.403 0-9.313-4.1-17.256-12.32-23.83-8.21-7.121-20.53-10.682-36.96-10.682-36.14 0-63.8 8.765-82.97 26.295-18.61 17.53-27.92 40.264-27.92 68.202 0 22.46 4.92 47.386 14.78 74.776 10.41 27.391 24.92 53.138 43.54 77.241 19.16 24.104 41.89 44.373 68.18 60.807 26.83 16.434 56.95 24.651 90.35 24.651 18.62 0 36.15-3.012 52.57-9.038 16.43-6.026 30.4-14.791 41.9-26.295 12.04-11.504 21.35-26.021 27.92-43.551 7.12-17.53 10.68-37.799 10.68-60.807 0-20.817-4.1-42.729-12.32-65.737h3.29c7.66 14.791 13.69 30.129 18.07 46.016 4.38 15.339 6.57 30.403 6.57 45.194 0 30.677-6.3 58.89-18.89 84.637-12.05 25.199-28.75 46.837-50.11 64.915-20.81 18.078-44.9 32.321-72.28 42.729-27.39 9.861-55.86 14.791-85.43 14.791-32.86 0-63.8-5.478-92.82-16.434-28.48-11.504-53.4-27.117-74.75-46.838-21.36-20.269-38.34-43.825-50.93-70.667-12.05-26.843-18.07-55.877-18.07-87.102 0-32.321 6.57-62.176 19.71-89.567 13.14-27.938 30.94-52.042 53.39-72.311 22.46-20.269 48.19-36.155 77.22-47.659 29.57-11.504 60.51-17.256 92.82-17.256 20.26 0 39.7 2.465 58.32 7.395 18.62 4.383 35.05 11.504 49.29 21.365 14.23 9.86 26.28 22.734 36.14 38.62 9.86 15.339 16.43 33.965 19.71 55.877h-313.78v-23.008zm482.58 244.871c0 7.669 1.1 13.969 3.29 18.899 2.19 4.931 6.29 10.683 12.32 17.256l58.32 58.342h-273.54l58.32-58.342c6.03-6.573 10.14-12.325 12.33-17.256 2.19-4.93 3.28-11.23 3.28-18.899V461.297c0-7.669-1.09-13.969-3.28-18.899-2.19-4.931-6.3-10.683-12.33-17.256l-58.32-58.342h273.54l-58.32 58.342c-6.03 6.573-10.13 12.325-12.32 17.256-2.19 4.93-3.29 11.23-3.29 18.899zm297.36 0c0 7.669 1.09 13.969 3.28 18.899 2.19 4.931 6.3 10.683 12.32 17.256l58.33 58.342h-273.54l58.32-58.342c6.02-6.573 10.13-12.325 12.32-17.256 2.19-4.93 3.29-11.23 3.29-18.899V461.297c0-7.669-1.1-13.969-3.29-18.899-2.19-4.931-6.3-10.683-12.32-17.256l-58.32-58.342h273.54l-58.33 58.342c-6.02 6.573-10.13 12.325-12.32 17.256-2.19 4.93-3.28 11.23-3.28 18.899zm-86.25-117.505l3.28 25.473-260.39-40.264-3.29-25.473zm418.8 188.994c12.04 0 24.91-2.739 38.6-8.217s26.29-12.874 37.79-22.186c11.5-9.313 21.08-20.269 28.75-32.869 7.67-13.147 11.5-26.843 11.5-41.086 0-14.791-4.38-25.199-13.14-31.225-8.22-6.574-19.72-9.86-34.5-9.86-11.5 0-24.1 2.739-37.79 8.217s-26.29 13.147-37.79 23.008c-11.5 9.312-21.08 20.269-28.75 32.868-7.66 12.6-11.5 26.021-11.5 40.264 0 15.339 4.11 26.021 12.33 32.047 8.21 6.026 19.71 9.039 34.5 9.039zm-42.72-119.149c18.62-21.912 42.99-39.99 73.11-54.233s61.06-21.364 92.82-21.364c37.24 0 67.63 8.217 91.18 24.651 23.55 15.887 35.32 38.621 35.32 68.202 0 19.174-5.75 36.704-17.25 52.59-11.5 15.339-27.38 28.486-47.64 39.442-19.72 10.409-43.54 18.626-71.47 24.652-27.38 5.478-57.22 8.217-89.53 8.217h-266.14l58.32-58.342c6.02-6.573 10.13-12.325 12.32-17.256 2.19-4.93 3.28-11.23 3.28-18.899V461.297c0-7.669-1.09-13.969-3.28-18.899-2.19-4.931-6.3-10.683-12.32-17.256l-58.32-58.342h273.53l-58.32 58.342c-6.02 6.573-10.13 12.325-12.32 17.256-2.19 4.93-3.29 11.23-3.29 18.899z"/></g><path d="M1671.5 1240.2l-1.1 3.5 31.1-11.7-1.6-2.5zm26.3 17.8l6.3-6.5c.8-.8 1.2-1.7 1.2-2.7 0-.67-.17-1.43-.5-2.3l-16.5-45h.5l-17.4 44.4c-.4 1-.6 1.93-.6 2.8 0 1.07.4 2 1.2 2.8l6.3 6.5H1657l7.4-7.3c.8-.73 1.5-1.5 2.1-2.3.6-.87 1.13-1.87 1.6-3l16.4-41.8c.6-1.47.9-2.83.9-4.1 0-2-1.07-4.07-3.2-6.2l-5.4-5.3h24.1l21.5 57.3c.47 1.27.97 2.27 1.5 3s1.27 1.53 2.2 2.4l7.4 7.3zm72.61-32.9v3c-3.4 1.13-6.3 2.4-8.7 3.8-2.33 1.33-4.23 2.77-5.7 4.3-1.46 1.53-2.53 3.13-3.2 4.8-.66 1.6-1 3.23-1 4.9 0 2.13.67 3.87 2 5.2 1.34 1.27 3.07 1.9 5.2 1.9 1.2 0 2.4-.27 3.6-.8 1.27-.53 2.5-1.23 3.7-2.1s2.3-1.87 3.3-3c1.07-1.2 2-2.43 2.8-3.7l-3.7-24.6c-.53-3.2-1.6-5.9-3.2-8.1-1.53-2.27-3.8-3.4-6.8-3.4-2.13 0-3.86.63-5.2 1.9-1.26 1.2-2.3 2.93-3.1 5.2l-5.1 14.7h-.4l-4-25.6c.87.67 1.77 1.23 2.7 1.7.74.4 1.57.77 2.5 1.1.94.33 1.77.5 2.5.5.94 0 1.84-.13 2.7-.4.94-.33 2.17-.67 3.7-1 2.67-.6 5.2-.9 7.6-.9 2.74 0 5.3.3 7.7.9 2.47.6 4.67 1.6 6.6 3 2 1.4 3.67 3.27 5 5.6 1.34 2.27 2.27 5.13 2.8 8.6l3.5 22.6c.34 1.93.9 3.37 1.7 4.3l8.6 8.5h-23.8l-1.6-10.3c-2.6 3.8-5.93 6.63-10 8.5-4 1.87-8.4 2.8-13.2 2.8-2.06 0-3.96-.23-5.7-.7-1.73-.47-3.26-1.17-4.6-2.1-1.26-1-2.26-2.2-3-3.6-.73-1.4-1.1-3.07-1.1-5 0-2.2.6-4.3 1.8-6.3 1.27-2.07 3.27-4.03 6-5.9 2.8-1.87 6.4-3.63 10.8-5.3 4.47-1.73 9.9-3.4 16.3-5zm106.02-.1c2.33-1 4.56-2.33 6.7-4a31.64 31.64 0 005.8-5.7c1.73-2.2 3.1-4.57 4.1-7.1s1.5-5.2 1.5-8c0-2.13-.5-3.77-1.5-4.9-.94-1.2-2.3-1.8-4.1-1.8-1.4 0-2.84.5-4.3 1.5-1.47 1-2.8 2.37-4 4.1-1.2 1.67-2.2 3.67-3 6s-1.2 4.83-1.2 7.5zm5.8 30.2c1.6 0 3.33-.43 5.2-1.3 1.86-.87 3.6-2.03 5.2-3.5 1.6-1.53 2.93-3.3 4-5.3 1.06-2.07 1.6-4.23 1.6-6.5 0-2.4-.6-4.07-1.8-5-1.14-1-2.7-1.5-4.7-1.5-1.6 0-3.34.43-5.2 1.3-1.8.87-3.5 2.07-5.1 3.6-1.6 1.47-2.94 3.23-4 5.3-1 2-1.5 4.13-1.5 6.4 0 2.4.56 4.1 1.7 5.1 1.13.93 2.66 1.4 4.6 1.4zm-32.7 2.8l7.9-7.9c.93-.93 1.56-1.77 1.9-2.5.33-.73.5-1.93.5-3.6v-42c0-1.67-.17-2.87-.5-3.6-.34-.73-.97-1.57-1.9-2.5l-7.9-7.9h26.9v11.2c1.93-3.87 4.53-6.87 7.8-9 3.26-2.13 7.1-3.2 11.5-3.2 5.06 0 9.06 1.23 12 3.7 2.93 2.47 4.4 6.07 4.4 10.8 0 4-1.2 7.47-3.6 10.4-2.34 2.93-5.27 5.47-8.8 7.6-3.54 2.07-7.4 3.8-11.6 5.2-4.2 1.33-8.1 2.43-11.7 3.3v9c1.26-1.67 2.73-3.2 4.4-4.6 1.73-1.4 3.56-2.6 5.5-3.6 2-1 4.06-1.77 6.2-2.3 2.2-.6 4.36-.9 6.5-.9 2.46 0 4.73.33 6.8 1 2.06.6 3.83 1.5 5.3 2.7 1.46 1.13 2.6 2.57 3.4 4.3.86 1.73 1.3 3.7 1.3 5.9 0 2.87-.77 5.47-2.3 7.8-1.54 2.27-3.67 4.2-6.4 5.8-2.67 1.6-5.84 2.83-9.5 3.7-3.67.8-7.67 1.2-12 1.2zm76.91-7.1c.73-.8 1.23-1.5 1.5-2.1s.4-1.37.4-2.3v-47c0-.93-.13-1.7-.4-2.3s-.77-1.3-1.5-2.1l-7.1-7.1h24.3v35.3c2.33-5.87 5.47-10.47 9.4-13.8s8.8-5 14.6-5c3.07 0 5.73.6 8 1.8 2.33 1.2 4.27 2.8 5.8 4.8s2.67 4.33 3.4 7c.73 2.6 1.1 5.37 1.1 8.3 0 3.6-.6 7.27-1.8 11-1.13 3.73-2.97 7.13-5.5 10.2s-5.83 5.57-9.9 7.5c-4 1.93-8.9 2.9-14.7 2.9h-34.7zm24.3 4.3c1.8 0 3.5-.57 5.1-1.7 1.67-1.13 3.2-2.63 4.6-4.5s2.67-4 3.8-6.4 2.1-4.9 2.9-7.5 1.4-5.13 1.8-7.6c.47-2.53.7-4.87.7-7 0-3-.63-5.4-1.9-7.2-1.27-1.87-3.17-2.8-5.7-2.8-1.8 0-3.53.57-5.2 1.7-1.6 1.13-3.1 2.63-4.5 4.5s-2.67 4-3.8 6.4-2.1 4.9-2.9 7.5-1.43 5.17-1.9 7.7c-.4 2.53-.6 4.83-.6 6.9 0 3 .6 5.43 1.8 7.3 1.27 1.8 3.2 2.7 5.8 2.7zm124.12-64.4c-3.27 0-6.04.47-8.3 1.4-2.27.93-4.1 2.2-5.5 3.8-1.4 1.53-2.44 3.33-3.1 5.4-.6 2.07-.9 4.27-.9 6.6 0 4.67.76 9.3 2.3 13.9 1.6 4.6 3.86 8.73 6.8 12.4 2.93 3.6 6.46 6.53 10.6 8.8 4.2 2.27 8.9 3.4 14.1 3.4 2.93 0 5.73-.6 8.4-1.8 2.73-1.2 5.1-2.87 7.1-5 2.06-2.2 3.7-4.8 4.9-7.8 1.2-3.07 1.8-6.47 1.8-10.2 0-3.47-.64-6.97-1.9-10.5h.4c2.13 4.87 3.2 9.73 3.2 14.6 0 4.93-.97 9.47-2.9 13.6-1.94 4.07-4.54 7.57-7.8 10.5-3.27 2.87-7.07 5.1-11.4 6.7-4.27 1.6-8.74 2.4-13.4 2.4-5.2 0-10.07-1.03-14.6-3.1-4.47-2.07-8.37-4.8-11.7-8.2-3.27-3.47-5.84-7.47-7.7-12-1.87-4.6-2.8-9.4-2.8-14.4 0-5.33 1-10.1 3-14.3 2.06-4.27 4.76-7.87 8.1-10.8 3.4-3 7.3-5.27 11.7-6.8 4.4-1.6 8.96-2.4 13.7-2.4 3 0 5.5.17 7.5.5 2.06.33 3.93.5 5.6.5 1.33 0 2.73-.1 4.2-.3 1.46-.2 2.76-.43 3.9-.7 1.33-.27 2.66-.6 4-1l-7.8 38.7h-.4l-4.9-21.9c-.87-3.73-2.6-6.67-5.2-8.8-2.54-2.13-6.2-3.2-11-3.2zm71.79 16.5c-4.4 0-7.76 1.07-10.1 3.2-2.26 2.13-3.4 4.9-3.4 8.3 0 2.73.6 5.77 1.8 9.1 1.27 3.33 3.04 6.47 5.3 9.4 2.34 2.93 5.1 5.4 8.3 7.4 3.27 2 6.94 3 11 3 2.27 0 4.4-.37 6.4-1.1 2.07-.73 3.87-1.8 5.4-3.2 1.54-1.4 2.74-3.17 3.6-5.3.87-2.13 1.3-4.6 1.3-7.4 0-2.53-.5-5.2-1.5-8h.4c1.67 3.87 2.5 7.57 2.5 11.1 0 3.73-.76 7.17-2.3 10.3-1.46 3.07-3.5 5.7-6.1 7.9-2.53 2.2-5.46 3.93-8.8 5.2-3.33 1.2-6.8 1.8-10.4 1.8-4 0-7.76-.67-11.3-2-3.46-1.4-6.5-3.3-9.1-5.7-2.6-2.47-4.66-5.33-6.2-8.6-1.46-3.27-2.2-6.8-2.2-10.6 0-3.93.8-7.57 2.4-10.9 1.6-3.4 3.77-6.33 6.5-8.8 2.74-2.47 5.87-4.4 9.4-5.8 3.6-1.4 7.37-2.1 11.3-2.1 2.34 0 4.44.17 6.3.5 1.87.33 3.44.5 4.7.5 1.07 0 2.1-.1 3.1-.3 1.07-.2 2-.43 2.8-.7.94-.27 1.84-.6 2.7-1l-6.9 29.4h-.4l-4.8-16.7c-.8-2.73-2.03-4.9-3.7-6.5-1.66-1.6-4.33-2.4-8-2.4zm111.91-7.4c1.46-2.53 3.06-4.63 4.8-6.3 1.8-1.67 3.66-2.97 5.6-3.9 2-1 4.06-1.7 6.2-2.1 2.13-.4 4.26-.6 6.4-.6 4.26 0 8.06.77 11.4 2.3 3.33 1.47 6.13 3.6 8.4 6.4 2.33 2.8 4.06 6.2 5.2 10.2 1.2 3.93 1.8 8.37 1.8 13.3 0 5.4-.94 10.47-2.8 15.2-1.87 4.67-4.54 8.77-8 12.3-3.4 3.47-7.54 6.23-12.4 8.3-4.8 2-10.14 3-16 3h-37.5l7.9-7.9c.93-.93 1.56-1.77 1.9-2.5.33-.73.5-1.93.5-3.6v-42c0-1.67-.17-2.87-.5-3.6-.34-.73-.97-1.57-1.9-2.5l-7.9-7.9h26.9zm32.2 15.3c0-3-.34-5.83-1-8.5-.67-2.67-1.67-4.97-3-6.9-1.27-1.93-2.84-3.47-4.7-4.6-1.8-1.13-3.9-1.7-6.3-1.7-2.54 0-4.87.6-7 1.8-2.07 1.13-3.87 2.77-5.4 4.9-1.47 2.13-2.64 4.67-3.5 7.6-.87 2.93-1.3 6.17-1.3 9.7v29.7c0 2.8.53 4.83 1.6 6.1 1.13 1.27 2.6 1.9 4.4 1.9 2.8 0 5.73-.97 8.8-2.9 3.13-1.93 5.96-4.63 8.5-8.1 2.6-3.53 4.73-7.77 6.4-12.7 1.66-4.93 2.5-10.37 2.5-16.3zm66.85-6.4c-4 .8-7.63 2.3-10.9 4.5a36.07 36.07 0 00-8.3 7.6c-2.33 2.87-4.13 5.97-5.4 9.3s-1.9 6.57-1.9 9.7c0 4.4.93 7.73 2.8 10 1.93 2.2 4.5 3.3 7.7 3.3 1.93 0 3.83-.53 5.7-1.6 1.93-1.07 3.67-2.5 5.2-4.3 1.53-1.87 2.77-4.03 3.7-6.5.93-2.53 1.4-5.27 1.4-8.2zm0 37.9c-1.2 2.27-2.63 4.2-4.3 5.8-1.67 1.53-3.43 2.8-5.3 3.8-1.8.93-3.7 1.6-5.7 2-1.93.47-3.83.7-5.7.7-3.27 0-6.23-.4-8.9-1.2-2.67-.87-4.97-2.13-6.9-3.8-1.87-1.73-3.33-3.87-4.4-6.4-1.07-2.6-1.6-5.63-1.6-9.1 0-3.93.9-7.73 2.7-11.4s4.5-6.97 8.1-9.9c3.6-3 8.07-5.53 13.4-7.6s11.53-3.43 18.6-4.1v-6c0-.93-.13-1.7-.4-2.3s-.77-1.3-1.5-2.1l-7.1-7.1h24.3v58.5c0 .93.13 1.7.4 2.3s.77 1.3 1.5 2.1l7.1 7.1h-24.3zm109.1-55.9c-2 0-3.56.67-4.7 2-1.13 1.33-1.7 3.07-1.7 5.2v23.6l23-6.2v18.1h-.4l-7.2-9.5c-.93-1.13-1.93-1.77-3-1.9-1.06-.2-2.46-.07-4.2.4l-8.2 2.2v20c0 3.8.74 6.5 2.2 8.1 1.47 1.6 3.54 2.4 6.2 2.4h2.3c1.54 0 2.74-.2 3.6-.6.94-.4 1.8-1.13 2.6-2.2l18.2-24h.5l-4 29.6h-58.5l7.9-7.9c.94-.93 1.57-1.77 1.9-2.5.34-.73.5-1.93.5-3.6v-42c0-1.67-.16-2.87-.5-3.6-.33-.73-.96-1.57-1.9-2.5l-7.9-7.9h39.4c2.6 0 4.94-.1 7-.3 2.07-.2 3.8-.43 5.2-.7 1.67-.27 3.14-.6 4.4-1l4.6 31.8h-.4l-18.5-24.3c-.8-1.07-1.66-1.77-2.6-2.1-.86-.4-2.1-.6-3.7-.6zm60.18 25.9c2.74 0 4.64-.5 5.7-1.5 1.14-1 1.7-2.23 1.7-3.7 0-1.13-.5-2.1-1.5-2.9-1-.87-2.5-1.3-4.5-1.3-4.4 0-7.76 1.07-10.1 3.2-2.26 2.13-3.4 4.9-3.4 8.3 0 2.73.6 5.77 1.8 9.1 1.27 3.33 3.04 6.47 5.3 9.4 2.34 2.93 5.1 5.4 8.3 7.4 3.27 2 6.94 3 11 3 2.27 0 4.4-.37 6.4-1.1s3.7-1.8 5.1-3.2c1.47-1.4 2.6-3.17 3.4-5.3.87-2.13 1.3-4.6 1.3-7.4 0-2.53-.5-5.2-1.5-8h.4c.94 1.8 1.67 3.67 2.2 5.6.54 1.87.8 3.7.8 5.5 0 3.73-.76 7.17-2.3 10.3-1.46 3.07-3.5 5.7-6.1 7.9-2.53 2.2-5.46 3.93-8.8 5.2-3.33 1.2-6.8 1.8-10.4 1.8-4 0-7.76-.67-11.3-2-3.46-1.4-6.5-3.3-9.1-5.7-2.6-2.47-4.66-5.33-6.2-8.6-1.46-3.27-2.2-6.8-2.2-10.6 0-3.93.8-7.57 2.4-10.9 1.6-3.4 3.77-6.33 6.5-8.8 2.74-2.47 5.87-4.4 9.4-5.8 3.6-1.4 7.37-2.1 11.3-2.1 2.47 0 4.84.3 7.1.9 2.27.53 4.27 1.4 6 2.6 1.74 1.2 3.2 2.77 4.4 4.7 1.2 1.87 2 4.13 2.4 6.8h-38.2v-2.8zm124.81-28.7c2.6 0 4.93-.1 7-.3 2.06-.2 3.8-.43 5.2-.7 1.66-.27 3.13-.6 4.4-1l4.6 31.8h-.4l-18.5-24.3c-.8-1.07-1.67-1.77-2.6-2.1-.87-.4-2.1-.6-3.7-.6h-1.8c-1.14 0-2.07.2-2.8.6-.67.4-1.24.9-1.7 1.5-.47.6-.8 1.3-1 2.1-.14.73-.2 1.47-.2 2.2v24.4l22-6.2v17.1h-.4l-7.5-8.7c-.8-.93-1.6-1.5-2.4-1.7-.8-.27-1.97-.17-3.5.3l-8.2 2.3v19.3c0 1.67.16 2.87.5 3.6.33.73.96 1.57 1.9 2.5l7.9 7.9h-37.2l7.9-7.9c.93-.93 1.56-1.77 1.9-2.5.33-.73.5-1.93.5-3.6v-42c0-1.67-.17-2.87-.5-3.6-.34-.73-.97-1.57-1.9-2.5l-7.9-7.9zm59.87 17.5v2.8h-10.9v38.2c0 .93.13 1.7.4 2.3s.77 1.3 1.5 2.1l7.1 7.1h-33.3l7.1-7.1c.73-.8 1.23-1.5 1.5-2.1s.4-1.37.4-2.3v-38.2h-7v-2.8h7v-2.6c0-3.07.4-5.63 1.2-7.7s1.9-3.7 3.3-4.9c1.47-1.2 3.17-2.03 5.1-2.5 1.93-.53 4.07-.8 6.4-.8 1.4 0 2.57.07 3.5.2 1 .07 1.87.17 2.6.3.8.13 1.57.27 2.3.4.73.07 1.6.1 2.6.1.8 0 1.57-.1 2.3-.3s1.37-.43 1.9-.7c.67-.27 1.3-.6 1.9-1l1.2 22.4h-.4l-9.9-15.6c-1.27-2-2.7-3-4.3-3-1.33 0-2.4.57-3.2 1.7-.8 1.07-1.2 2.67-1.2 4.8v9.2zm110.74-2.7c-1.14-3.67-2.94-6.57-5.4-8.7-2.4-2.2-6-3.3-10.8-3.3-3.27 0-6.04.47-8.3 1.4-2.27.93-4.1 2.2-5.5 3.8-1.4 1.53-2.44 3.33-3.1 5.4-.6 2.07-.9 4.27-.9 6.6 0 3.73.6 7.67 1.8 11.8 1.26 4.13 3.03 8.1 5.3 11.9 1.73 2.87 3.66 5.57 5.8 8.1 2.13 2.53 4.36 4.73 6.7 6.6 2.33 1.87 4.7 3.37 7.1 4.5 2.46 1.07 4.86 1.6 7.2 1.6 1.13 0 2.23-.13 3.3-.4 1.06-.33 2.06-.73 3-1.2 2.13-1.13 3.83-2.57 5.1-4.3 1.26-1.73 1.9-3.77 1.9-6.1 0-2.27-.57-4.13-1.7-5.6-1.14-1.47-3.17-2.83-6.1-4.1l-16.8-7.4v-.4h35c0 7.4-1.47 13.73-4.4 19-2.87 5.2-6.97 9.23-12.3 12.1-3.07 1.67-6.17 2.9-9.3 3.7-3.14.8-6.27 1.2-9.4 1.2-6.27 0-12.17-1.53-17.7-4.6-5.47-3.13-9.97-7.6-13.5-13.4-3.74-6.27-5.6-12.83-5.6-19.7 0-5.33 1.06-10.1 3.2-14.3 2.13-4.27 4.9-7.87 8.3-10.8 3.46-3 7.36-5.27 11.7-6.8 4.4-1.6 8.83-2.4 13.3-2.4 1.4 0 2.7.07 3.9.2 1.2.07 2.36.17 3.5.3 1.13.13 2.3.27 3.5.4 1.26.07 2.6.1 4 .1 1.33 0 2.63-.1 3.9-.3 1.26-.2 2.36-.43 3.3-.7 1.13-.27 2.16-.6 3.1-1l-7.8 32.6h-.4zm64.9 5.5c-2.6 0-5.04.83-7.3 2.5-2.2 1.6-4.14 3.77-5.8 6.5-1.67 2.67-3 5.73-4 9.2-.94 3.4-1.4 6.87-1.4 10.4 0 3.07.73 5.4 2.2 7 1.46 1.6 3.36 2.4 5.7 2.4 2.66 0 5.13-.97 7.4-2.9 2.26-2 4.23-4.47 5.9-7.4 1.66-3 2.96-6.2 3.9-9.6.93-3.4 1.4-6.5 1.4-9.3 0-2.6-.64-4.7-1.9-6.3-1.27-1.67-3.3-2.5-6.1-2.5zm-11.7 60.3c0 3 1.73 4.5 5.2 4.5 1.8 0 3.53-.6 5.2-1.8 1.73-1.2 3.23-2.9 4.5-5.1 1.33-2.13 2.36-4.73 3.1-7.8.8-3.07 1.2-6.5 1.2-10.3v-12.2c-1.14 2.4-2.57 4.6-4.3 6.6a30.143 30.143 0 01-5.7 5.1c-2.07 1.4-4.3 2.5-6.7 3.3s-4.84 1.2-7.3 1.2c-3.14 0-5.84-.5-8.1-1.5-2.27-1.07-4.17-2.47-5.7-4.2-1.54-1.73-2.67-3.77-3.4-6.1-.74-2.33-1.1-4.77-1.1-7.3 0-3.13.56-6.33 1.7-9.6 1.2-3.27 3.06-6.2 5.6-8.8 2.53-2.67 5.8-4.83 9.8-6.5 4.06-1.73 9-2.6 14.8-2.6h34.7l-7.1 7.1c-.74.8-1.24 1.5-1.5 2.1-.27.6-.4 1.37-.4 2.3v30c0 4.33-.84 8.3-2.5 11.9-1.67 3.6-3.97 6.7-6.9 9.3-2.87 2.6-6.24 4.63-10.1 6.1-3.87 1.47-8 2.2-12.4 2.2-2.07 0-4.07-.13-6-.4-1.87-.2-3.54-.63-5-1.3-1.4-.67-2.54-1.53-3.4-2.6-.87-1.07-1.3-2.47-1.3-4.2 0-2.87 1.06-5.3 3.2-7.3 2.2-2 4.93-3.63 8.2-4.9 3.26-1.27 6.76-2.23 10.5-2.9 3.8-.67 7.3-1.17 10.5-1.5v2.8c-2.87.53-5.5 1.27-7.9 2.2-2.34.87-4.37 1.9-6.1 3.1-1.67 1.27-2.97 2.63-3.9 4.1-.94 1.53-1.4 3.2-1.4 5zM1685.9 1379c0 1.67.17 2.87.5 3.6s.97 1.57 1.9 2.5l7.9 7.9H1659l7.9-7.9c.93-.93 1.57-1.77 1.9-2.5s.5-1.93.5-3.6v-42c0-1.67-.17-2.87-.5-3.6s-.97-1.57-1.9-2.5l-7.9-7.9h37.2l-7.9 7.9c-.93.93-1.57 1.77-1.9 2.5s-.5 1.93-.5 3.6zm28-42c0-1.67-.17-2.87-.5-3.6s-.97-1.57-1.9-2.5l-7.9-7.9h37.2l-7.9 7.9c-.93.93-1.57 1.77-1.9 2.5s-.5 1.93-.5 3.6v42c0 1.67.17 2.87.5 3.6s.97 1.57 1.9 2.5l7.9 7.9h-37.2l7.9-7.9c.93-.93 1.57-1.77 1.9-2.5s.5-1.93.5-3.6zm1.5 16.5l-.4 3.1-31.7 4.9.4-3.1zm51.19 1.1c.93-2.07 2.1-4.03 3.5-5.9 1.47-1.87 3.1-3.47 4.9-4.8 1.87-1.33 3.9-2.4 6.1-3.2 2.27-.8 4.67-1.2 7.2-1.2 5.87 0 10.33 1.6 13.4 4.8 3.13 3.2 4.7 7.63 4.7 13.3 0 3.73-.27 7.73-.8 12-.53 4.2-1.17 8.2-1.9 12-.2.93-.23 1.7-.1 2.3.2.6.57 1.17 1.1 1.7l7.4 7.4h-27.1c1.13-3.53 2.13-7.3 3-11.3.73-3.4 1.43-7.23 2.1-11.5s1-8.63 1-13.1c0-1.53-.1-3-.3-4.4s-.6-2.63-1.2-3.7c-.53-1.07-1.3-1.9-2.3-2.5-.93-.67-2.2-1-3.8-1-2.2 0-4.33.7-6.4 2.1-2 1.4-3.8 3.23-5.4 5.5-1.53 2.27-2.77 4.83-3.7 7.7s-1.4 5.73-1.4 8.6zm0 26.9c0 .93.13 1.7.4 2.3s.77 1.3 1.5 2.1l7.1 7.1h-33.3l7.1-7.1c.73-.8 1.23-1.5 1.5-2.1s.4-1.37.4-2.3v-47c0-.93-.13-1.7-.4-2.3s-.77-1.3-1.5-2.1l-7.1-7.1h24.3zm124.4-2.5c0 1.67.17 2.87.5 3.6s.97 1.57 1.9 2.5l7.9 7.9h-37.2l7.9-7.9c.93-.93 1.57-1.77 1.9-2.5s.5-1.93.5-3.6v-42c0-1.67-.17-2.87-.5-3.6s-.97-1.57-1.9-2.5l-7.9-7.9h37.2l-7.9 7.9c-.93.93-1.57 1.77-1.9 2.5s-.5 1.93-.5 3.6zm39.13-54.2c-.06 1.4-.46 2.73-1.2 4-.73 1.27-1.7 2.37-2.9 3.3-1.13.87-2.43 1.57-3.9 2.1-1.46.53-2.9.8-4.3.8-1.93 0-3.56-.47-4.9-1.4-1.33-1-2-2.43-2-4.3 0-1.47.37-2.8 1.1-4 .74-1.27 1.7-2.33 2.9-3.2 1.2-.93 2.54-1.67 4-2.2 1.47-.53 2.94-.8 4.4-.8 1.94 0 3.54.5 4.8 1.5 1.34.93 2 2.33 2 4.2zm-2 56.7c0 .93.14 1.7.4 2.3.27.6.77 1.3 1.5 2.1l7.1 7.1h-33.3l7.1-7.1c.74-.8 1.24-1.5 1.5-2.1.27-.6.4-1.37.4-2.3V1352c0-.93-.13-1.7-.4-2.3-.26-.6-.76-1.3-1.5-2.1l-7.1-7.1h24.3zm87.87-1.3c0 5.73-.63 10.6-1.9 14.6s-3.17 7.33-5.7 10-5.7 4.77-9.5 6.3-8.23 2.7-13.3 3.5v-.5c2.13-1.07 4.03-2.4 5.7-4 1.73-1.53 3.2-3.43 4.4-5.7s2.1-4.93 2.7-8c.67-3 1-6.47 1-10.4v-49c0-1.67-.17-2.87-.5-3.6s-.97-1.57-1.9-2.5l-7.9-7.9h37.2l-7.9 7.9c-.93.93-1.57 1.77-1.9 2.5s-.5 1.93-.5 3.6zm36.11-55.4c-.07 1.4-.47 2.73-1.2 4-.74 1.27-1.7 2.37-2.9 3.3-1.14.87-2.44 1.57-3.9 2.1-1.47.53-2.9.8-4.3.8-1.94 0-3.57-.47-4.9-1.4-1.34-1-2-2.43-2-4.3 0-1.47.36-2.8 1.1-4 .73-1.27 1.7-2.33 2.9-3.2 1.2-.93 2.53-1.67 4-2.2 1.46-.53 2.93-.8 4.4-.8 1.93 0 3.53.5 4.8 1.5 1.33.93 2 2.33 2 4.2zm-2 55c0 5.27-.6 9.73-1.8 13.4-1.14 3.73-2.87 6.83-5.2 9.3-2.27 2.47-5.14 4.4-8.6 5.8-3.47 1.47-7.54 2.53-12.2 3.2v-.4c3.86-1.93 6.9-4.93 9.1-9 2.26-4.07 3.4-9.7 3.4-16.9V1352c0-.93-.14-1.7-.4-2.3-.27-.6-.77-1.3-1.5-2.1l-7.1-7.1h24.3zm113.89-.8c0-3.67-.77-6.7-2.3-9.1a15.48 15.48 0 00-6.2-5.7c-2.54-1.33-5.47-2.13-8.8-2.4-3.27-.33-6.67-.23-10.2.3v16.9c0 1.67.16 2.87.5 3.6.33.73.96 1.57 1.9 2.5l7.9 7.9h-37.2l7.9-7.9c.93-.93 1.56-1.77 1.9-2.5.33-.73.5-1.93.5-3.6v-42c0-1.67-.17-2.87-.5-3.6-.34-.73-.97-1.57-1.9-2.5l-7.9-7.9h37.2l-7.9 7.9c-.94.93-1.57 1.77-1.9 2.5-.34.73-.5 1.93-.5 3.6v16c3.4-.53 6.33-1.63 8.8-3.3 2.46-1.67 4.5-3.8 6.1-6.4 1.66-2.6 2.93-5.6 3.8-9 .86-3.47 1.36-7.23 1.5-11.3h21.6c-.8 5.13-2.5 9.6-5.1 13.4-2.54 3.73-5.7 6.93-9.5 9.6s-8.04 4.8-12.7 6.4c-4.67 1.6-9.5 2.8-14.5 3.6v3c2.6-.4 5.5-.7 8.7-.9 3.26-.2 6.56-.17 9.9.1 3.33.2 6.56.7 9.7 1.5 3.2.8 6.03 2 8.5 3.6 2.53 1.6 4.53 3.7 6 6.3 1.53 2.53 2.3 5.67 2.3 9.4 0 2.33-.17 4.7-.5 7.1-.27 2.4-.74 4.7-1.4 6.9h-26l7.9-7.9c.93-.93 1.56-1.77 1.9-2.5.33-.73.5-1.93.5-3.6zm45.37-14.9c2.07-.47 4.04-1.13 5.9-2 1.94-.93 3.64-2.03 5.1-3.3 1.47-1.27 2.64-2.67 3.5-4.2.87-1.53 1.3-3.2 1.3-5 0-1.4-.36-2.43-1.1-3.1-.66-.67-1.6-1-2.8-1s-2.5.4-3.9 1.2c-1.4.73-2.7 1.83-3.9 3.3-1.13 1.47-2.1 3.27-2.9 5.4s-1.2 4.57-1.2 7.3zm19.1 17.4c0-1.87-.56-3.43-1.7-4.7-1.13-1.33-2.6-2.4-4.4-3.2s-3.83-1.3-6.1-1.5c-2.26-.27-4.56-.27-6.9 0v20.9h-24.3l7.1-7.1c.74-.8 1.24-1.5 1.5-2.1.27-.6.4-1.37.4-2.3v-47c0-.93-.13-1.7-.4-2.3-.26-.6-.76-1.3-1.5-2.1l-7.1-7.1h24.3v27.6c1.07-2 2.4-3.7 4-5.1 1.67-1.4 3.4-2.53 5.2-3.4 1.87-.93 3.74-1.6 5.6-2 1.87-.4 3.64-.6 5.3-.6 3.87 0 6.8.83 8.8 2.5 2.07 1.6 3.1 3.8 3.1 6.6 0 2.2-.56 4.17-1.7 5.9-1.06 1.67-2.5 3.13-4.3 4.4-1.73 1.27-3.73 2.37-6 3.3-2.26.93-4.6 1.73-7 2.4-2.33.6-4.66 1.1-7 1.5-2.26.33-4.26.6-6 .8v2.6c2.14-.4 4.5-.67 7.1-.8s5.2-.03 7.8.3 5.14.9 7.6 1.7c2.47.8 4.64 1.93 6.5 3.4 1.94 1.4 3.47 3.2 4.6 5.4 1.2 2.2 1.8 4.8 1.8 7.8 0 1.73-.2 3.63-.6 5.7h-24.7l7.1-7.1c.74-.8 1.24-1.5 1.5-2.1.27-.6.4-1.37.4-2.3zm96.7-1.8c0 3.8.63 6.5 1.9 8.1 1.26 1.6 3.43 2.4 6.5 2.4h.5c1.53 0 2.86-.33 4-1 1.13-.67 2.26-1.9 3.4-3.7l16.8-27.4h.5l-4 34.9h-56.5l7.9-7.9c.93-.93 1.56-1.77 1.9-2.5.33-.73.5-1.93.5-3.6v-42c0-1.67-.17-2.87-.5-3.6-.34-.73-.97-1.57-1.9-2.5l-7.9-7.9h37.2l-7.9 7.9c-.94.93-1.57 1.77-1.9 2.5-.34.73-.5 1.93-.5 3.6zm59.89 1.8c0 .93.13 1.7.4 2.3.26.6.76 1.3 1.5 2.1l7.1 7.1h-33.3l7.1-7.1c.73-.8 1.23-1.5 1.5-2.1.26-.6.4-1.37.4-2.3v-47c0-.93-.14-1.7-.4-2.3-.27-.6-.77-1.3-1.5-2.1l-7.1-7.1h24.3zm120.07-44l1.6.1-18.4 56.4h-.5l-19-55.9-10.8 41.9c-.33 1.33-.53 2.57-.6 3.7 0 1.13.5 2.2 1.5 3.2l5.9 6.1h-21.3l7.9-7.8c.87-.87 1.54-1.63 2-2.3.54-.67.97-1.67 1.3-3l10.3-40c.54-2.13.8-3.77.8-4.9 0-1.27-.26-2.37-.8-3.3-.53-1-1.36-2.07-2.5-3.2l-5.5-5.5h24.3l13.6 40.2 7.7-23.6c.6-1.8.9-3.33.9-4.6 0-2.13-1.13-4.33-3.4-6.6l-5.7-5.4h24.4l16.8 57.3c.34 1.27.8 2.27 1.4 3s1.37 1.53 2.3 2.4l7.4 7.3h-35.7l6.1-6.3c.74-.73 1.14-1.53 1.2-2.4.14-.87.04-1.8-.3-2.8z" fill="#d7e2d3"/><path d="M2571 1381.5c0 .93.13 1.7.4 2.3.26.6.76 1.3 1.5 2.1l7.1 7.1h-33.3l7.1-7.1c.73-.8 1.23-1.5 1.5-2.1.26-.6.4-1.37.4-2.3V1352c0-.93-.14-1.7-.4-2.3-.27-.6-.77-1.3-1.5-2.1l-7.1-7.1h24.3zm52.3-42c5.86 0 10.33 1.6 13.4 4.8 3.13 3.2 4.7 7.63 4.7 13.3 0 3.73-.27 7.73-.8 12-.54 4.2-1.17 8.2-1.9 12-.2.93-.24 1.7-.1 2.3.2.6.56 1.17 1.1 1.7l7.4 7.4H2620c1.13-3.53 2.13-7.3 3-11.3.73-3.4 1.43-7.23 2.1-11.5.66-4.27 1-8.63 1-13.1 0-1.53-.1-3-.3-4.4-.14-1.4-.44-2.63-.9-3.7-.47-1.07-1.14-1.9-2-2.5-.87-.67-1.97-1-3.3-1-1.87 0-3.67.7-5.4 2.1-1.67 1.4-3.17 3.23-4.5 5.5-1.34 2.27-2.4 4.83-3.2 7.7s-1.2 5.73-1.2 8.6v12.1c0 .93.13 1.7.4 2.3.26.6.76 1.3 1.5 2.1l7.1 7.1H2590v-35.9c0-1.53-.07-3-.2-4.4-.14-1.4-.4-2.63-.8-3.7s-.97-1.9-1.7-2.5c-.67-.67-1.54-1-2.6-1-1.8 0-3.54.73-5.2 2.2-1.6 1.47-3.04 3.37-4.3 5.7-1.27 2.27-2.3 4.83-3.1 7.7-.74 2.8-1.1 5.57-1.1 8.3v-14.8c1.93-4.93 4.5-8.67 7.7-11.2 3.26-2.6 7.2-3.9 11.8-3.9 4.8 0 8.43 1.6 10.9 4.8 2.46 3.2 3.7 7.63 3.7 13.3l-.4-3c.8-2.07 1.8-4.03 3-5.9 1.26-1.87 2.7-3.47 4.3-4.8s3.33-2.4 5.2-3.2c1.93-.8 3.96-1.2 6.1-1.2zm138.94 30.2h-.5V1337c0-1.67-.17-2.87-.5-3.6-.34-.73-.97-1.57-1.9-2.5l-7.9-7.9h23.9l-7.9 7.9c-.94.93-1.57 1.77-1.9 2.5-.34.73-.5 1.93-.5 3.6v57h-.5l-52.8-47.7h.5v32.7c0 1.67.16 2.87.5 3.6.33.73.96 1.57 1.9 2.5l7.9 7.9h-23.9l7.9-7.9c.93-.93 1.56-1.77 1.9-2.5.33-.73.5-1.93.5-3.6v-57h.5zm38.93-15.1c.93-2.07 2.1-4.03 3.5-5.9 1.47-1.87 3.1-3.47 4.9-4.8 1.87-1.33 3.9-2.4 6.1-3.2 2.27-.8 4.67-1.2 7.2-1.2 5.87 0 10.33 1.6 13.4 4.8 3.13 3.2 4.7 7.63 4.7 13.3 0 3.73-.27 7.73-.8 12-.53 4.2-1.17 8.2-1.9 12-.2.93-.23 1.7-.1 2.3.2.6.57 1.17 1.1 1.7l7.4 7.4h-27.1c1.13-3.53 2.13-7.3 3-11.3.73-3.4 1.43-7.23 2.1-11.5s1-8.63 1-13.1c0-1.53-.1-3-.3-4.4s-.6-2.63-1.2-3.7c-.53-1.07-1.3-1.9-2.3-2.5-.93-.67-2.2-1-3.8-1-2.2 0-4.33.7-6.4 2.1-2 1.4-3.8 3.23-5.4 5.5-1.53 2.27-2.77 4.83-3.7 7.7s-1.4 5.73-1.4 8.6zm0 26.9c0 .93.13 1.7.4 2.3s.77 1.3 1.5 2.1l7.1 7.1h-33.3l7.1-7.1c.73-.8 1.23-1.5 1.5-2.1s.4-1.37.4-2.3V1352c0-.93-.13-1.7-.4-2.3s-.77-1.3-1.5-2.1l-7.1-7.1h24.3zm-1121.87 80.4c3.07-1.67 6.17-2.9 9.3-3.7s6.27-1.2 9.4-1.2c6.27 0 12.13 1.57 17.6 4.7 5.47 3.07 9.97 7.5 13.5 13.3 3.8 6.33 5.7 12.93 5.7 19.8 0 2.93-.37 5.83-1.1 8.7-.73 2.8-1.87 5.47-3.4 8-1.47 2.53-3.3 4.87-5.5 7s-4.8 4-7.8 5.6c-3.07 1.67-6.17 2.9-9.3 3.7s-6.27 1.2-9.4 1.2c-6.27 0-12.17-1.53-17.7-4.6-5.47-3.13-9.97-7.6-13.5-13.4-3.73-6.27-5.6-12.83-5.6-19.7 0-5.93 1.47-11.5 4.4-16.7 2.93-5.27 7.4-9.5 13.4-12.7zm.6 3.2c-1.87.93-3.33 2.4-4.4 4.4-1.07 1.93-1.6 4.4-1.6 7.4 0 3.2.7 6.83 2.1 10.9s3.8 8.7 7.2 13.9c4.93 7.53 9.7 12.9 14.3 16.1 4.6 3.13 8.77 4.7 12.5 4.7 2.27 0 4.37-.53 6.3-1.6 1.87-.93 3.33-2.37 4.4-4.3 1.13-2 1.7-4.5 1.7-7.5 0-3.13-.73-6.73-2.2-10.8-1.4-4.13-3.8-8.8-7.2-14-2.53-3.8-5-7-7.4-9.6-2.4-2.67-4.73-4.83-7-6.5s-4.43-2.87-6.5-3.6-4.03-1.1-5.9-1.1c-2.27 0-4.37.53-6.3 1.6zm76.27 13.1c2.34-1.27 4.74-2.2 7.2-2.8 2.47-.6 4.97-.9 7.5-.9 5.07 0 9.84 1.17 14.3 3.5 4.54 2.33 8.14 5.7 10.8 10.1 2.47 4.13 3.7 8.53 3.7 13.2 0 2.4-.33 4.77-1 7.1-.66 2.27-1.63 4.47-2.9 6.6-1.2 2.07-2.73 4-4.6 5.8-1.86 1.73-4 3.23-6.4 4.5-2.33 1.27-4.73 2.2-7.2 2.8-2.46.6-4.96.9-7.5.9-5.06 0-9.86-1.17-14.4-3.5-4.46-2.33-8.03-5.7-10.7-10.1-1.26-2.13-2.2-4.33-2.8-6.6s-.9-4.53-.9-6.8c0-4.8 1.27-9.33 3.8-13.6 2.6-4.27 6.3-7.67 11.1-10.2zm1 3.2c-2.66 1.47-4 3.97-4 7.5 0 2.13.57 4.77 1.7 7.9 1.14 3.07 2.97 6.57 5.5 10.5 3.67 5.6 7.14 9.63 10.4 12.1 3.27 2.4 6.24 3.6 8.9 3.6.74 0 1.44-.07 2.1-.2.67-.13 1.34-.37 2-.7 2.67-1.47 4-3.97 4-7.5 0-2.13-.56-4.73-1.7-7.8-1.13-3.07-3-6.6-5.6-10.6-3.66-5.6-7.13-9.6-10.4-12-3.26-2.47-6.2-3.7-8.8-3.7-.73 0-1.43.07-2.1.2-.66.13-1.33.37-2 .7zm123.36-10.2c2.13-4.13 4.97-7.53 8.5-10.2 3.6-2.67 7.97-4 13.1-4 5.53 0 9.83 1.47 12.9 4.4 3.13 2.93 4.7 6.87 4.7 11.8 0 3.73-.9 7.3-2.7 10.7-1.8 3.33-4.4 6.37-7.8 9.1s-7.53 5.07-12.4 7c-4.8 1.93-10.23 3.33-16.3 4.2v10.5c0 .93.17 1.83.5 2.7s.73 1.57 1.2 2.1l8.6 8.5h-37.2l8.5-8.5c.53-.53.97-1.23 1.3-2.1s.5-1.77.5-2.7v-43.4c0-.93-.17-1.83-.5-2.7s-.77-1.57-1.3-2.1l-8.5-8.5h26.9zm0 30c3.2-.8 6.1-2.17 8.7-4.1a29.85 29.85 0 006.8-6.8c1.93-2.6 3.43-5.43 4.5-8.5s1.6-6.17 1.6-9.3c0-3-.63-5.23-1.9-6.7-1.2-1.53-2.9-2.3-5.1-2.3-1.47 0-3.07.57-4.8 1.7-1.67 1.13-3.23 2.77-4.7 4.9-1.47 2.07-2.7 4.6-3.7 7.6-.93 2.93-1.4 6.23-1.4 9.9zm66.53 24c4-.8 7.6-2.3 10.8-4.5 3.26-2.2 6.06-4.77 8.4-7.7 2.33-2.93 4.13-6.07 5.4-9.4 1.26-3.4 1.9-6.67 1.9-9.8 0-4.4-.97-7.7-2.9-9.9-1.87-2.27-4.4-3.4-7.6-3.4-1.94 0-3.87.53-5.8 1.6-1.87 1.07-3.57 2.53-5.1 4.4-1.54 1.8-2.77 3.97-3.7 6.5-.94 2.53-1.4 5.23-1.4 8.1zm0-38.1c1.2-2.27 2.63-4.2 4.3-5.8 1.66-1.6 3.4-2.9 5.2-3.9 1.86-1 3.76-1.73 5.7-2.2 2-.47 3.93-.7 5.8-.7 3.26 0 6.23.43 8.9 1.3 2.66.87 4.93 2.17 6.8 3.9 1.93 1.67 3.43 3.8 4.5 6.4 1.06 2.53 1.6 5.5 1.6 8.9 0 3.93-.9 7.73-2.7 11.4s-4.5 7-8.1 10c-3.6 2.93-8.07 5.43-13.4 7.5-5.34 2.07-11.54 3.43-18.6 4.1v6c0 .93.13 1.7.4 2.3.26.6.76 1.3 1.5 2.1l7.1 7.1h-24.3V1487c0-.93-.14-1.7-.4-2.3-.27-.6-.77-1.3-1.5-2.1l-7.1-7.1h24.3zm152.6 34.7l2.2 2.3-22.2 11.9-13 4.4-.4-.7zm5.6 27.8c-5.06-4.8-10.8-8.1-17.2-9.9s-13.53-1.57-21.4.7l-.4-.7c4.27-2.27 8.44-3.87 12.5-4.8 4.14-.93 8.17-1.37 12.1-1.3 3.94.13 7.77.7 11.5 1.7 3.8 1 7.47 2.33 11 4zm-41.1-87.7c3.07-1.67 6.17-2.9 9.3-3.7 3.14-.8 6.27-1.2 9.4-1.2 6.27 0 12.14 1.57 17.6 4.7 5.47 3.07 9.97 7.5 13.5 13.3 3.8 6.33 5.7 12.93 5.7 19.8 0 2.93-.36 5.83-1.1 8.7-.73 2.8-1.86 5.47-3.4 8-1.46 2.53-3.3 4.87-5.5 7s-4.8 4-7.8 5.6c-3.06 1.67-6.16 2.9-9.3 3.7-3.13.8-6.26 1.2-9.4 1.2-6.26 0-12.16-1.53-17.7-4.6-5.46-3.13-9.96-7.6-13.5-13.4-3.73-6.27-5.6-12.83-5.6-19.7 0-5.93 1.47-11.5 4.4-16.7 2.94-5.27 7.4-9.5 13.4-12.7zm.6 3.2c-1.86.93-3.33 2.4-4.4 4.4-1.06 1.93-1.6 4.4-1.6 7.4 0 3.2.7 6.83 2.1 10.9s3.8 8.7 7.2 13.9c4.94 7.53 9.7 12.9 14.3 16.1 4.6 3.13 8.77 4.7 12.5 4.7 2.27 0 4.37-.53 6.3-1.6 1.87-.93 3.34-2.37 4.4-4.3 1.14-2 1.7-4.5 1.7-7.5 0-3.13-.73-6.73-2.2-10.8-1.4-4.13-3.8-8.8-7.2-14-2.53-3.8-5-7-7.4-9.6-2.4-2.67-4.73-4.83-7-6.5-2.26-1.67-4.43-2.87-6.5-3.6-2.06-.73-4.03-1.1-5.9-1.1-2.26 0-4.36.53-6.3 1.6zm120.88 17.5c-.74.8-1.24 1.5-1.5 2.1-.27.6-.4 1.37-.4 2.3v47c0 .93.13 1.7.4 2.3.26.6.76 1.3 1.5 2.1l7.1 7.1h-24.3v-35.2c-2.34 5.87-5.47 10.47-9.4 13.8-3.94 3.27-8.8 4.9-14.6 4.9-3.14 0-5.84-.6-8.1-1.8-2.27-1.2-4.17-2.8-5.7-4.8-1.54-2-2.67-4.3-3.4-6.9-.74-2.67-1.1-5.47-1.1-8.4 0-3.6.56-7.27 1.7-11 1.2-3.73 3.06-7.13 5.6-10.2 2.53-3.07 5.8-5.57 9.8-7.5 4.06-1.93 9-2.9 14.8-2.9h34.7zm-24.3-4.3c-1.8 0-3.54.57-5.2 1.7-1.6 1.13-3.1 2.67-4.5 4.6-1.4 1.87-2.67 4.03-3.8 6.5-1.14 2.4-2.1 4.9-2.9 7.5-.8 2.53-1.44 5.1-1.9 7.7-.4 2.53-.6 4.83-.6 6.9 0 3 .63 5.43 1.9 7.3 1.26 1.8 3.16 2.7 5.7 2.7 1.8 0 3.5-.57 5.1-1.7 1.66-1.13 3.2-2.63 4.6-4.5 1.4-1.93 2.66-4.1 3.8-6.5 1.13-2.47 2.1-4.97 2.9-7.5.8-2.6 1.4-5.17 1.8-7.7.46-2.53.7-4.87.7-7 0-3-.64-5.4-1.9-7.2-1.2-1.87-3.1-2.8-5.7-2.8zm109.81 13.7c2.14-.53 4.44-1.37 6.9-2.5 2.54-1.2 4.87-2.67 7-4.4 2.2-1.73 4-3.77 5.4-6.1 1.47-2.4 2.2-5.07 2.2-8 0-2.33-.63-4.17-1.9-5.5-1.2-1.33-2.9-2-5.1-2-1.46 0-3.06.43-4.8 1.3-1.66.87-3.23 2.13-4.7 3.8-1.4 1.6-2.6 3.57-3.6 5.9-.93 2.27-1.4 4.83-1.4 7.7zm0 22c0 1.67.17 2.87.5 3.6.34.73.97 1.57 1.9 2.5l7.9 7.9h-37.2l7.9-7.9c.94-.93 1.57-1.77 1.9-2.5.34-.73.5-1.93.5-3.6v-42c0-1.67-.16-2.87-.5-3.6-.33-.73-.96-1.57-1.9-2.5l-7.9-7.9h26.9v11.7c3-4.8 6.54-8.1 10.6-9.9 4.07-1.87 8.34-2.8 12.8-2.8 5.2 0 9.1 1.23 11.7 3.7 2.67 2.4 4 5.47 4 9.2 0 4.33-1.26 7.97-3.8 10.9-2.46 2.87-5.63 5.27-9.5 7.2-3.86 1.87-8.1 3.33-12.7 4.4-4.53 1.07-8.9 1.93-13.1 2.6v3.2c2.67-.87 5.6-1.5 8.8-1.9 3.2-.47 6.4-.6 9.6-.4 3.27.13 6.4.63 9.4 1.5 3 .8 5.67 2.03 8 3.7 2.4 1.67 4.3 3.8 5.7 6.4 1.4 2.53 2.1 5.6 2.1 9.2 0 1.93-.1 3.77-.3 5.5s-.5 3.67-.9 5.8h-26.7l7.9-7.9c.47-.47.84-.87 1.1-1.2.34-.4.6-.8.8-1.2.2-.47.34-.97.4-1.5.07-.6.1-1.33.1-2.2 0-3.6-.8-6.43-2.4-8.5-1.53-2.13-3.56-3.67-6.1-4.6-2.46-1-5.26-1.43-8.4-1.3-3.06.13-6.1.67-9.1 1.6zm71.92 2.5c0 .93.13 1.7.4 2.3.26.6.76 1.3 1.5 2.1l7.1 7.1h-33.3l7.1-7.1c.73-.8 1.23-1.5 1.5-2.1.26-.6.4-1.37.4-2.3V1487c0-.93-.14-1.7-.4-2.3-.27-.6-.77-1.3-1.5-2.1l-7.1-7.1h24.3zm25.8-18.4h-.4l-3.8-12.2c-.54-1.67-1.3-2.8-2.3-3.4-1-.67-2.14-1-3.4-1-2.07 0-4.07.63-6 1.9-1.87 1.27-3.54 2.97-5 5.1-1.47 2.13-2.67 4.63-3.6 7.5-.87 2.87-1.3 5.9-1.3 9.1v-15.5c.93-2.07 2.06-4.03 3.4-5.9 1.33-1.87 2.83-3.47 4.5-4.8 1.73-1.33 3.66-2.4 5.8-3.2 2.13-.8 4.46-1.2 7-1.2 2.33 0 4.4.3 6.2.9 1.86.53 3.66 1.17 5.4 1.9zm111.4-13.1h-.4l-6.7-18.5c-.73-2.13-2-3.77-3.8-4.9-1.73-1.2-4-1.8-6.8-1.8-2.53 0-4.63.4-6.3 1.2-1.6.8-2.9 1.9-3.9 3.3-.93 1.33-1.6 2.87-2 4.6-.33 1.67-.5 3.4-.5 5.2 0 1.73.37 3.43 1.1 5.1s1.73 3.2 3 4.6c1.33 1.33 2.87 2.43 4.6 3.3 1.73.8 3.6 1.2 5.6 1.2h18.8c1.87 2.53 3.37 5.3 4.5 8.3s1.7 6.27 1.7 9.8c0 3-.53 5.87-1.6 8.6-1.07 2.67-2.8 5.07-5.2 7.2-2.4 2.07-5.5 3.73-9.3 5-3.8 1.2-8.43 1.8-13.9 1.8-4.47 0-8.53-.5-12.2-1.5-3.67-1.07-6.8-2.57-9.4-4.5s-4.63-4.3-6.1-7.1c-1.4-2.87-2.1-6.1-2.1-9.7 0-1.8.17-3.53.5-5.2.33-1.73.87-3.6 1.6-5.6h24.3c-3.13 3.07-5.4 5.87-6.8 8.4-1.33 2.53-2 5.37-2 8.5 0 1.6.2 3.23.6 4.9.4 1.6 1.07 3.07 2 4.4 1 1.33 2.27 2.43 3.8 3.3s3.47 1.3 5.8 1.3c2.07 0 3.87-.47 5.4-1.4 1.6-.93 2.9-2.13 3.9-3.6 1.07-1.53 1.83-3.27 2.3-5.2.53-2 .8-4.07.8-6.2 0-2.27-.27-4.5-.8-6.7-.47-2.27-1.23-4.27-2.3-6-1-1.8-2.3-3.23-3.9-4.3-1.53-1.13-3.33-1.7-5.4-1.7-3.47 0-6.83-.3-10.1-.9-3.2-.67-6.07-1.7-8.6-3.1-2.47-1.4-4.47-3.17-6-5.3-1.47-2.13-2.2-4.7-2.2-7.7 0-5.87 2.17-10.17 6.5-12.9 4.4-2.8 10.97-4.2 19.7-4.2 3.07 0 5.63.17 7.7.5s3.97.5 5.7.5c1.4 0 2.83-.1 4.3-.3s2.8-.43 4-.7c1.4-.27 2.77-.6 4.1-1zm39.7 44c-3.2 0-6.27-.27-9.2-.8-2.94-.53-5.54-1.43-7.8-2.7-2.2-1.27-3.97-2.9-5.3-4.9-1.34-2-2-4.5-2-7.5 0-1.13.16-2.47.5-4 .4-1.53 1.03-3 1.9-4.4h20.5c-1.47 1.53-2.64 3-3.5 4.4-.87 1.33-1.54 2.57-2 3.7-.47 1.07-.77 2.07-.9 3-.14.87-.2 1.6-.2 2.2 0 1 .13 2 .4 3 .33.93.86 1.8 1.6 2.6.73.8 1.66 1.43 2.8 1.9 1.13.47 2.56.7 4.3.7 1.66 0 3.1-.33 4.3-1 1.26-.67 2.26-1.53 3-2.6.73-1.07 1.26-2.3 1.6-3.7.4-1.4.6-2.87.6-4.4 0-1.67-.24-3.33-.7-5-.47-1.67-1.17-3.13-2.1-4.4-.87-1.27-1.97-2.3-3.3-3.1-1.34-.8-2.9-1.2-4.7-1.2-2.34 0-4.77-.17-7.3-.5-2.47-.4-4.74-1.1-6.8-2.1-2.07-1-3.77-2.37-5.1-4.1-1.34-1.8-2-4.07-2-6.8 0-4.53 1.83-7.8 5.5-9.8 3.73-2 9.1-3 16.1-3 1 0 2.06.07 3.2.2 1.2.07 2.4.17 3.6.3 1.26.13 2.46.27 3.6.4 1.2.07 2.26.1 3.2.1 1.13 0 2.23-.1 3.3-.3 1.06-.2 2-.43 2.8-.7.93-.27 1.83-.6 2.7-1l-3.2 21.8h-.4l-5.7-13.4c-.67-1.47-1.7-2.6-3.1-3.4s-3-1.2-4.8-1.2c-3.54 0-6.17.97-7.9 2.9-1.74 1.93-2.6 4.27-2.6 7 0 1.33.23 2.67.7 4 .53 1.27 1.26 2.4 2.2 3.4.93 1 2.06 1.83 3.4 2.5 1.4.6 2.96.9 4.7.9h15.4c1.73 1.93 3.1 4.07 4.1 6.4 1 2.27 1.5 4.73 1.5 7.4 0 2.27-.5 4.43-1.5 6.5-.94 2.07-2.5 3.9-4.7 5.5-2.14 1.6-4.9 2.87-8.3 3.8s-7.54 1.4-12.4 1.4zm130.62-71c2.14 0 4.47-.1 7-.3 2.54-.2 4.9-.43 7.1-.7 2.6-.27 5.2-.6 7.8-1l-11.3 35.4h-.4l-4.6-25.4c-.33-1.6-.86-2.87-1.6-3.8-.66-.93-1.83-1.4-3.5-1.4h-2.5c-1.33 0-2.4.47-3.2 1.4-.73.93-1.1 2.17-1.1 3.7v50.2c.07.53.17 1.03.3 1.5.2.4.44.8.7 1.2.27.4.64.83 1.1 1.3l7.9 7.9h-37.2l7.9-7.9c.94-.93 1.6-1.77 2-2.5.47-.73.7-1.93.7-3.6v-48.1c0-1.53-.23-2.77-.7-3.7-.4-.93-1.26-1.4-2.6-1.4h-.9c-1.33 0-2.36.47-3.1 1.4-.73.87-1.46 2.1-2.2 3.7l-11.9 25.5h-.4l-2-35.4c2.4.4 4.77.73 7.1 1 2 .27 4.17.5 6.5.7 2.34.2 4.47.3 6.4.3zm21.39 19.9l21.7-20.9h.4v18.5h14.8v2.8h-14.8v38c0 2.67.6 5 1.8 7 1.2 1.93 2.76 2.9 4.7 2.9.6 0 1.33-.17 2.2-.5.93-.33 1.7-1 2.3-2l9.4-16.4h.4l-1.9 20.3c-1.94.4-4 .73-6.2 1-2.14.27-4.2.4-6.2.4-2.8 0-5.54-.3-8.2-.9-2.6-.53-4.9-1.5-6.9-2.9-2-1.47-3.64-3.43-4.9-5.9-1.2-2.53-1.8-5.77-1.8-9.7v-31.3h-6.8zm164.31 24.1c0 4.87-.84 9.03-2.5 12.5-1.67 3.4-3.87 6.17-6.6 8.3-2.74 2.13-5.87 3.7-9.4 4.7-3.47 1-7 1.5-10.6 1.5-3.67 0-7.24-.5-10.7-1.5-3.47-1-6.57-2.57-9.3-4.7-2.67-2.13-4.84-4.9-6.5-8.3-1.67-3.47-2.5-7.67-2.5-12.6V1472c0-1.67-.17-2.87-.5-3.6-.34-.73-.97-1.57-1.9-2.5l-7.9-7.9h37.2l-7.9 7.9c-.94.93-1.57 1.77-1.9 2.5-.34.73-.5 1.93-.5 3.6v29.9c0 3.67.53 6.8 1.6 9.4 1.13 2.6 2.6 4.73 4.4 6.4s3.83 2.9 6.1 3.7c2.26.73 4.6 1.1 7 1.1s4.73-.37 7-1.1c2.26-.8 4.3-2 6.1-3.6 1.8-1.67 3.23-3.8 4.3-6.4 1.13-2.6 1.7-5.73 1.7-9.4v-30c0-1.67-.17-2.87-.5-3.6-.34-.73-.97-1.57-1.9-2.5l-7.9-7.9h23.9l-7.9 7.9c-.94.93-1.57 1.77-1.9 2.5-.34.73-.5 1.93-.5 3.6zm54.25 10.2a26.37 26.37 0 01-3.8 6.8 23.269 23.269 0 01-5.5 5.3c-2.07 1.47-4.34 2.63-6.8 3.5-2.4.8-4.9 1.2-7.5 1.2-2.94 0-5.44-.47-7.5-1.4-2.07-.93-3.77-2.2-5.1-3.8-1.27-1.67-2.2-3.6-2.8-5.8s-.9-4.57-.9-7.1c0-3.73.26-7.7.8-11.9.6-4.27 1.26-8.3 2-12.1.2-.93.2-1.7 0-2.3-.14-.6-.47-1.17-1-1.7l-7.4-7.4h27.1c-.47 1.6-1.07 3.8-1.8 6.6-.67 2.73-1.34 5.7-2 8.9-.6 3.2-1.14 6.47-1.6 9.8-.47 3.33-.7 6.37-.7 9.1 0 1.53.1 2.93.3 4.2.26 1.2.7 2.27 1.3 3.2.66.87 1.53 1.53 2.6 2 1.06.47 2.43.7 4.1.7 1.66 0 3.43-.47 5.3-1.4 1.93-.93 3.7-2.23 5.3-3.9s2.93-3.63 4-5.9c1.06-2.27 1.6-4.73 1.6-7.4zm0-25.2c0-.93-.14-1.7-.4-2.3-.27-.6-.77-1.3-1.5-2.1l-7.1-7.1h33.3l-7.1 7.1c-.74.8-1.24 1.5-1.5 2.1-.27.6-.4 1.37-.4 2.3v29.5c0 .93.13 1.7.4 2.3.26.6.76 1.3 1.5 2.1l7.1 7.1h-24.3zM1697.8 1641.5h-1.1l16.1-37.5c.47-1.07.63-1.87.5-2.4-.13-.6-.5-1.2-1.1-1.8l-6.7-6.8h22.2l-8.8 7.8c-.73.6-1.27 1.13-1.6 1.6s-.73 1.23-1.2 2.3l-25.5 59.3h-.7l-32.9-71h30.6l-6.6 6.8c-.53.6-.87 1.27-1 2-.13.67.07 1.57.6 2.7zm73.25-21c.8-1.53.67-2.87-.4-4l-5.7-6h19.2l-7.3 6.6c-.73.6-1.27 1.17-1.6 1.7-.33.47-.77 1.23-1.3 2.3l-21.6 42.9h-.6l-30.1-53.5h29.2l-5.7 5.9c-.67.67-1 1.37-1 2.1 0 .6.2 1.23.6 1.9l14.8 26.4h-1.8zm130.45 43.5h-.5l-21.1-46 1.5.1-16.1 45.9h-.5l-32.6-71h32.1l-6.6 6.8c-.6.6-.94 1.33-1 2.2 0 .8.16 1.63.5 2.5l15.8 34.4h-2.4l16.7-46.9h.4l21.5 46.9h-2.4l11.7-32.9c.46-1.27.66-2.47.6-3.6 0-1.2-.5-2.3-1.5-3.3l-5.9-6.1h21.3l-7.9 7.8c-.87.87-1.54 1.67-2 2.4-.4.67-.84 1.63-1.3 2.9zm80.72 0h-.4l-17.8-34.5 2.6-.3-13.6 34.8h-.4l-25.6-53.5h27.9l-5.7 5.9c-1 1-1.13 2.33-.4 4l10.3 21.6-.1 3h-2.3l13.9-35.5h.4l17.6 34.4-2.6 1.1 9.6-24c.33-.93.47-1.73.4-2.4 0-.73-.37-1.43-1.1-2.1l-6.2-6h19.2l-6.8 6.6c-.73.67-1.23 1.23-1.5 1.7-.2.47-.5 1.23-.9 2.3zm149.51-1h-35.3l6.3-6.8c.6-.67.93-1.4 1-2.2.06-.87-.17-1.67-.7-2.4l-42.1-58.6h35.4l-6.3 6.8c-.6.67-.97 1.43-1.1 2.3-.07.87.16 1.67.7 2.4zm-58.4-11.6c-.67 1-1.04 1.87-1.1 2.6 0 .73.36 1.47 1.1 2.2l6.5 6.8h-22.9l8.3-6.9c.86-.73 1.63-1.57 2.3-2.5.66-1 1.33-2.03 2-3.1l20.2-31.3 2.1 3.5zm22.8-14.4l-2.4-3.1 17.9-29c.73-1.13 1.03-2.07.9-2.8-.07-.8-.44-1.57-1.1-2.3l-6.7-6.8h23l-7.8 6.8c-.74.67-1.47 1.47-2.2 2.4-.67.87-1.27 1.77-1.8 2.7zm49.1 15.4c-.47.73-.73 1.5-.8 2.3s.27 1.57 1 2.3l5.5 6h-19.2l5.6-4.9c.93-.8 1.67-1.53 2.2-2.2s1.27-1.73 2.2-3.2l14.5-22.5 1.6 2.6zm19.5-8.9l-1.9-2.3 12.5-20.5c.47-.73.73-1.43.8-2.1.13-.67-.17-1.37-.9-2.1l-5.7-6h19.2l-5.6 4.7c-.8.67-1.53 1.4-2.2 2.2-.6.73-1.27 1.67-2 2.8zm-30-33h31.2l-4.9 5.1c-1.53 1.53-1.73 3.03-.6 4.5l30.8 42.9h-31.2l4.9-5.1c1.47-1.47 1.57-3.1.3-4.9zm146.17 38.5c0 1.67.17 2.87.5 3.6.34.73.97 1.57 1.9 2.5l7.9 7.9H2254l7.9-7.9c.94-.93 1.57-1.77 1.9-2.5.34-.73.5-1.93.5-3.6v-16.5l-23.6-39.5h33.1l-5.9 6.3c-.8.93-1.26 1.8-1.4 2.6-.06.73.24 1.67.9 2.8l12.1 20.3 10-20.7c.4-.8.57-1.6.5-2.4-.06-.8-.4-1.5-1-2.1l-6.6-6.8h22.2l-8.9 7.8c-.73.6-1.36 1.3-1.9 2.1-.46.8-.9 1.63-1.3 2.5l-11.6 24.1z" fill="#d7e2d3"/><path d="M2299.66 1610.5h30.2l-5.8 5.9c-.53.53-.83 1.17-.9 1.9-.06.73.1 1.43.5 2.1l14.4 23.4h-1.2l11.2-23.4c.34-.6.54-1.27.6-2 .14-.73-.13-1.4-.8-2l-6-5.9h19.2l-7.6 6.7c-.4.4-.76.8-1.1 1.2-.33.33-.66.87-1 1.6l-20.8 43.5c-1.53 3.2-3.1 5.93-4.7 8.2s-3.33 4.13-5.2 5.6c-1.8 1.47-3.8 2.53-6 3.2s-4.7 1-7.5 1c-2.26 0-4.46-.37-6.6-1.1l-3.5-33.7h.4l13.4 21.7c.74 1.13 1.54 2 2.4 2.6.87.67 1.94 1 3.2 1 1.14 0 2.2-.13 3.2-.4s1.94-.77 2.8-1.5c.94-.67 1.8-1.6 2.6-2.8.87-1.13 1.74-2.57 2.6-4.3l3-6.2-.6 3.3zm157.78 49.7c1.8 0 3.27-.37 4.4-1.1 1.13-.8 2-2.07 2.6-3.8l9.8-28.3h.4l5.4 36h-66l42.6-67.2h-14.4c-2.6 0-4.63.47-6.1 1.4-1.4.87-2.67 2.43-3.8 4.7l-13.6 27h-.4l-1.4-37.9c1.8.4 3.6.73 5.4 1 1.53.27 3.2.5 5 .7s3.53.3 5.2.3h45.5l-42.6 67.2zm48.96-46.9c-1.6 0-2.8.33-3.6 1-.73.67-1.5 1.83-2.3 3.5l-10 20.8h-.5l-1-29.7c1.2.27 2.57.53 4.1.8 1.27.2 2.77.4 4.5.6 1.73.13 3.6.2 5.6.2h36.4l-33.3 49.7h17.1c2.67 0 4.43-1.23 5.3-3.7l7.2-22.6h.4l4 29.1H2486l33.4-49.7z" fill="#d7e2d3"/></svg>