<svg id="Layer_1" data-name="Layer 1" xmlns="http://www.w3.org/2000/svg" viewBox="0 0 1920 1080"><defs><clipPath id="clip-path"><path fill="none" d="M0 0h1920v1080H0z"/></clipPath><style>.cls-4,.cls-5{fill:#ea533d}.cls-4{fill-rule:evenodd}</style></defs><g clip-path="url(#clip-path)"><path fill="#d6e2d4" d="M0 0h1920v1080H0z"/><path class="cls-4" d="M632.3 977.78c2.3-1.26 5.71.12 9.61 6.16s3.61 9.45 1.32 10.71-5.73-.16-9.62-6.15-3.61-9.5-1.31-10.72m-.2-1c5.58-3 12.64-1.21 15.77 4s1.15 11.82-4.43 14.81-12.64 1.22-15.77-4-1.15-11.77 4.43-14.77zm-64.69-841.91l-3.41 3.38a2.8 2.8 0 00-.7 1.89v4.78c3.19-1.1 5.21-4.08 6.1-10h9.77c-1.2 6.62-9.33 10.21-15.87 11.42v1.23c11.62-1.27 17.69 2.47 17 15.08h-12l3-2.94c.74-.73.74-1.68.66-2.92-.33-5.09-3-9.05-8.58-8.2v8.79a2.82 2.82 0 00.7 1.89l3.38 3.38h-9.28l3.38-3.38a2.82 2.82 0 00.7-1.89v-8.56c-4.71 1.28-6.27 5.74-7.25 13.83h-9.77c1.23-7.83 8.06-13.57 17-14.93v-1.19c-9.29 1.38-16.81-.33-16.21-11.61h11.32l-2.26 2.23a3.25 3.25 0 00-.65 2.37c0 4.72 3.64 6.59 7.8 5.75v-5.08a2.8 2.8 0 00-.7-1.89l-3.38-3.38zm26.24 20.92l8.32-8.31v-1.08a2.44 2.44 0 00-.61-1.63l-2.93-2.93h13.16l-2.92 2.93a2.39 2.39 0 00-.61 1.63V158a2.44 2.44 0 00.61 1.64l2.92 2.92h-13.16l2.93-2.92A2.49 2.49 0 00602 158v-9.38l-8.35 8.38v1a2.49 2.49 0 00.61 1.64l2.93 2.92H584l2.92-2.92a2.44 2.44 0 00.61-1.64v-11.6a2.39 2.39 0 00-.61-1.63l-2.92-2.93h9.62zm29.26-11.45V158a2.44 2.44 0 01-.61 1.64l-2.92 2.92h13.16l-2.92-2.92A2.44 2.44 0 01629 158v-13.7a1.46 1.46 0 011.54-1.66h1.23a1.32 1.32 0 011.48 1.35l1 8.61h.12l3.69-11.49-4.9.59a12 12 0 01-1.32.1h-11.13a9 9 0 01-1.35-.1l-4.34-.59.48 11.49h.12l3.7-8.61a2.07 2.07 0 011.68-1.35h.67c.85 0 1.24.7 1.24 1.66m27.31-2.46h-9.63l2.93 2.93a2.44 2.44 0 01.6 1.63V158a2.49 2.49 0 01-.6 1.64l-2.93 2.92h13.16l-2.92-2.92a2.44 2.44 0 01-.61-1.64v-6.47l8.31 2.23V158a2.44 2.44 0 01-.61 1.64L655 162.6h13.16l-2.93-2.92a2.49 2.49 0 01-.61-1.64V146.4a2.44 2.44 0 01.61-1.63l2.93-2.93H655l2.92 2.93a2.39 2.39 0 01.61 1.63v6.53l-8.31-2.22zm30.98 13.95l8.31-8.31v-1.08a2.39 2.39 0 00-.61-1.63l-2.9-2.93h13.16l-2.93 2.93a2.44 2.44 0 00-.6 1.63V158a2.49 2.49 0 00.6 1.64l2.93 2.92H686l2.92-2.92a2.44 2.44 0 00.61-1.64v-9.38L681.2 157v1a2.44 2.44 0 00.61 1.64l2.92 2.92h-13.16l2.93-2.92a2.49 2.49 0 00.61-1.64v-11.6a2.44 2.44 0 00-.61-1.63l-2.93-2.93h9.63zm38.99 5.98H714c-1.48 0-1.61-.47-1.61-2v-18h-9.63l2.93 2.93a2.44 2.44 0 01.61 1.63V158a2.49 2.49 0 01-.61 1.64l-2.93 2.92h20.37c.9 0 1.76.24 2 1.09l1.5 6.64h.12l3.5-8.56h-3.92V146.4a2.39 2.39 0 01.61-1.63l2.92-2.93h-13.2l2.92 2.93a2.39 2.39 0 01.61 1.63zm27.07-11.29a15.3 15.3 0 00-4.91 3.25c-4 4.26.36 11.45 6.11 4.66zm1.36 8.91a12.3 12.3 0 01-9.34 4.3c-5.7 0-7.26-6-3.17-9 2.7-1.95 7.35-3.58 11-4.93-.39-2.57-.58-7-4-6.83-1.69.09-2.61 1-3.15 2.77l-2.08 6.86h-.11l-1.6-10.52 2.61.62c.92.21 1.54-.19 3-.51 6.27-1.37 10.71 1.26 11.9 8.06l1.4 7.92a3.28 3.28 0 00.7 1.69l3.38 3.37h-10zm23.79-24.52l3.38 3.38a2.8 2.8 0 01.7 1.89v17.19a2.82 2.82 0 01-.7 1.89l-3.38 3.38h14.74l-3.37-3.38a2.82 2.82 0 01-.71-1.89V136h11.11v21.38a2.82 2.82 0 01-.71 1.89l-3.38 3.38h14.75l-3.38-3.38a2.82 2.82 0 01-.7-1.89v-17.24a2.8 2.8 0 01.7-1.89l3.38-3.38zM817 146.34c2.76-.11 2.51-4.53-1.5-3.67a6.64 6.64 0 00-4.64 3.67zm.88-5c4-.1 7.26 1.55 7.89 5.79h-15c-1.52 5.89 2.44 10.89 8.69 10.66 5-.18 9.53-3.78 8-9.09h.12c2.43 7.26-2.68 14.57-11.17 14.32-6.32-.18-10.63-4.85-10.24-10.84a12 12 0 0111.71-10.8zm14.12.5h-3.53l2.92 2.93a2.39 2.39 0 01.61 1.63v23.23h9.63l-2.92-2.93a2.41 2.41 0 01-.61-1.63v-2.47h2.67c10 0 14.54-6.48 14.59-12.29.05-4.82-3.12-8.93-8.17-8.93a9.76 9.76 0 00-9.09 6.75v-6.29zm6.1 10.16v9.77a11.16 11.16 0 0010.53-11.1c.01-8.44-10.58-6.67-10.58 1.33zm34.18-7.69l-2.53-2.47h9l5.4 16.52a4.28 4.28 0 001.06 1.57l2.7 2.67H875.4l2.26-2.33a1.23 1.23 0 00.28-1.24l-3.88-12.49-5.35 16.53h-.12L863 146.43l-3.77 12.24a1.66 1.66 0 00.16 1.6l2.27 2.33h-7.13l2.7-2.67a4.15 4.15 0 001-1.48l3.51-11.45a2.77 2.77 0 00-.59-2.72l-2.47-2.47h8.92l3.55 10.72 1.73-5.54a2.49 2.49 0 00-.6-2.71m27.95-2.9c2.14 0 3.61.44 4.82.3l2.72-.29-2.66 11.61H905l-1.74-8.75c-.31-1.56-2.9-1.78-4.56-1.66-9.45.69-7.36 15.77 3.09 15.26 5-.24 9.55-3.78 8-9.09h.21c2.43 7.26-2.68 14.57-11.18 14.32-6.31-.19-10.63-4.85-10.23-10.84a11.94 11.94 0 0111.67-10.84m22.51 10.89c8.41-2.56 14.79-.2 14.34 10.31h-9.63l2.22-2.2c.54-.55.51-1.26.49-2.19-.11-4.19-3.09-6.59-7.42-5.17v5a2.44 2.44 0 00.61 1.64l2.92 2.92h-13.16l2.93-2.92a2.49 2.49 0 00.61-1.64V146.4a2.44 2.44 0 00-.61-1.63l-2.93-2.93h13.16l-2.92 2.93a2.39 2.39 0 00-.61 1.63v4.27c3.75-1.33 5.51-4.21 5.47-8.83h8c-.91 5-7.67 8.45-13.47 9.55zm23.74-8.5c2.29-1.26 5.7.12 9.61 6.15s3.6 9.46 1.31 10.72-5.73-.16-9.61-6.16-3.61-9.45-1.31-10.71m-.21-1c5.58-3 12.64-1.21 15.77 4s1.15 11.82-4.43 14.81-12.64 1.22-15.77-4-1.15-11.77 4.43-14.77zm18.95-.95l2.92 2.93a2.39 2.39 0 01.61 1.63V158a2.44 2.44 0 01-.61 1.64l-2.92 2.92h13.16l-2.93-2.92a2.49 2.49 0 01-.6-1.64v-13.44c0-.88.43-1.87 2.32-1.88h.8a1.81 1.81 0 011.81.93l5.71 9.59h.09l-1.4-12.51-4 1a6.37 6.37 0 01-1.79.22zm29.21 1.95c2.29-1.26 5.7.12 9.61 6.15s3.6 9.46 1.31 10.72-5.73-.16-9.61-6.16-3.6-9.45-1.31-10.71m-.2-1c5.58-3 12.64-1.21 15.77 4s1.14 11.82-4.43 14.81-12.65 1.22-15.78-4-1.14-11.77 4.44-14.77zm39.97 9.5c8.41-2.56 14.79-.2 14.34 10.31h-9.63l2.22-2.2c.54-.55.51-1.26.49-2.19-.11-4.19-3.09-6.59-7.42-5.17v5a2.44 2.44 0 00.61 1.64l2.92 2.92h-13.16l2.93-2.92a2.49 2.49 0 00.61-1.64V146.4a2.44 2.44 0 00-.61-1.63l-2.93-2.93h13.16l-2.92 2.93a2.39 2.39 0 00-.61 1.63v4.27c3.75-1.33 5.52-4.21 5.47-8.83h8c-.92 5-7.67 8.45-13.48 9.55zm21.23-9.99h-3.53l2.92 2.93a2.43 2.43 0 01.61 1.63v23.23h9.63l-2.92-2.92a2.44 2.44 0 01-.61-1.64v-2.46h2.67c10 0 14.53-6.49 14.59-12.29 0-4.82-3.12-8.94-8.17-8.94a9.77 9.77 0 00-9.09 6.76v-6.3zm6.1 10.16v9.77a11.16 11.16 0 0010.53-11.1c.06-8.44-10.53-6.72-10.53 1.33zm33.44-2.61a15.41 15.41 0 00-4.91 3.25c-4 4.26.37 11.45 6.12 4.66zm1.36 8.91c-2.35 3.06-6.47 4.3-9.33 4.3-5.71 0-7.26-6-3.18-9 2.7-1.95 7.35-3.58 11.05-4.93-.39-2.57-.57-7-4-6.83-1.7.09-2.61 1-3.16 2.77l-2.07 6.86h-.11l-1.6-10.52 2.61.62c.91.21 1.54-.18 3-.51 6.27-1.37 10.71 1.26 11.91 8.06l1.39 7.92a3.37 3.37 0 00.7 1.69l3.38 3.37h-10zm26.04-13.7c.07-3.82-6.29-2.95-6.14 1.42.12 3.66 6 3.74 6.14-1.42m0 7.51c-2.47.5-4.67 3.19-5.26 5.4a2 2 0 00.24 1.71l2.93 2.92h-10.71c1-6 4.75-9.65 12.8-10.86v-3.59c-2.32 3.71-6.15 4.69-8.87 3.8-3.67-1.2-4.09-5.72-1.59-8.1 1.92-1.82 5.22-2 7.5-2H1132l-2.93 2.93a2.39 2.39 0 00-.61 1.63V158a2.44 2.44 0 00.61 1.64l2.93 2.92h-9.63zm-578.85 93.5l3.38 3.37a2.84 2.84 0 01.71 1.89v17.2a2.82 2.82 0 01-.71 1.89l-3.38 3.38h14.75l-3.38-3.38a2.82 2.82 0 01-.7-1.89v-18.84c0-1.17.49-2.53 3-2.54h.55c1.24 0 2 .16 2.49 1.07l7.23 12.48-1.63-15.54-4.46.64a16.7 16.7 0 01-2.61.3zm31.57 8.93c2.29-1.26 5.7.12 9.61 6.15s3.6 9.46 1.31 10.72-5.73-.16-9.61-6.16-3.6-9.45-1.31-10.71m-.2-1c5.58-3 12.64-1.21 15.77 4s1.15 11.82-4.43 14.81-12.64 1.22-15.78-4-1.14-11.81 4.44-14.81zm21.01-1h-3.53l2.93 2.92a2.49 2.49 0 01.6 1.64v23.23h9.63l-2.92-2.93a2.41 2.41 0 01-.61-1.63v-2.43h2.67c10 0 14.54-6.48 14.59-12.29.05-4.82-3.12-8.93-8.17-8.93a9.76 9.76 0 00-9.09 6.75V253zm6.07 10.2v9.8a11.16 11.16 0 0010.53-11.1c.09-8.47-10.53-6.75-10.53 1.3zm26-8.2c2.29-1.26 5.7.12 9.61 6.15s3.61 9.46 1.31 10.72-5.72-.16-9.61-6.16-3.61-9.46-1.31-10.71m-.2-1c5.58-3 12.64-1.21 15.77 4s1.15 11.82-4.43 14.81-12.64 1.22-15.78-4-1.15-11.81 4.43-14.81z"/><path class="cls-4" d="M649.09 273h10.73L654 256.73l-5.94 14.35c-.45 1.1-.37 1.88 1 1.89M650 253h9.12l7.59 20h3.41l-3.5 8.55h-.12l-1.5-6.63c-.2-.86-1.06-1.09-2-1.09h-13a2.07 2.07 0 00-2 1.09l-4 6.63-.47-8.55h2.9l6.28-15.38a2.06 2.06 0 00-.5-2.35zm32.68 0l2.92 3a2.44 2.44 0 01.61 1.64v11.64a2.44 2.44 0 01-.61 1.64l-2.92 2.92h13.16l-2.93-2.92a2.49 2.49 0 01-.61-1.64v-13.53c0-.87.44-1.86 2.33-1.87h.82a1.81 1.81 0 011.81.93l5.74 9.59h.1l-1.4-12.52-4 1a6.39 6.39 0 01-1.8.22zm29.23 2c2.3-1.26 5.71.12 9.62 6.15s3.6 9.46 1.31 10.72-5.73-.16-9.61-6.16-3.61-9.45-1.32-10.71m-.2-1c5.58-3 12.64-1.21 15.77 4s1.15 11.82-4.43 14.81-12.64 1.22-15.77-4-1.15-11.81 4.43-14.81zm28.29-1h-9.63l2.93 2.92a2.49 2.49 0 01.61 1.64v11.64a2.49 2.49 0 01-.61 1.64l-2.93 2.92h13.16l-2.92-2.92a2.44 2.44 0 01-.61-1.64v-6.47l8.31 2.23v4.24a2.44 2.44 0 01-.61 1.64l-2.92 2.92H758l-2.92-2.92a2.44 2.44 0 01-.61-1.64v-11.6a2.44 2.44 0 01.61-1.64L758 253h-13.18l2.92 2.92a2.44 2.44 0 01.61 1.64v6.53l-8.35-2.18zm21.07 0h9.25l-2.84 2.84c-.39.4-.66 1.1-.08 2.33s2.17 2.72 5.79 1.22V253h9.63l-2.93 3a2.49 2.49 0 00-.6 1.64v11.64a2.49 2.49 0 00.6 1.64l2.93 2.92h-13.14l2.92-2.92a2.38 2.38 0 00.59-1.33v-9.26c-8.6 4.2-14.46 1.11-12.12-7.25m38.11 8.6a15.3 15.3 0 00-4.91 3.25c-4 4.26.36 11.45 6.12 4.66zm1.36 8.91c-2.35 3.06-6.47 4.3-9.33 4.3-5.71 0-7.27-6-3.18-9 2.7-1.95 7.35-3.59 11.05-4.93-.39-2.57-.58-7-4-6.84-1.69.1-2.61 1-3.15 2.78l-2.07 6.86h-.11l-1.6-10.52 2.6.62c.92.21 1.54-.19 3-.51 6.27-1.37 10.71 1.25 11.91 8.06l1.39 7.92a3.21 3.21 0 00.7 1.68l3.38 3.38h-10zm12.88-17.09h-3.53l2.92 2.93a2.41 2.41 0 01.61 1.63v23.23h9.63l-2.93-2.93a2.44 2.44 0 01-.6-1.63v-2.47h2.67c10 0 14.53-6.48 14.59-12.29 0-4.81-3.12-8.93-8.17-8.93a9.78 9.78 0 00-9.09 6.75v-6.29zm6.1 10.16v9.77a11.16 11.16 0 0010.53-11.1c.06-8.44-10.53-6.72-10.53 1.33zM848.93 253h-9.62l2.92 2.92a2.44 2.44 0 01.61 1.64v11.64a2.44 2.44 0 01-.61 1.64l-2.92 2.92h13.16l-2.93-2.92a2.49 2.49 0 01-.61-1.64v-6.47l8.32 2.23v4.24a2.49 2.49 0 01-.61 1.64l-2.93 2.92h13.16l-2.87-2.88a2.44 2.44 0 01-.61-1.64V257.6a2.44 2.44 0 01.61-1.6l2.92-2.92h-13.21l2.93 2.92a2.49 2.49 0 01.61 1.64v6.53l-8.32-2.22zm30.57 17.59c0 1.86 1.75 2.55 3.55 2.48 4.59-.18 5.11-7.39 0-6.38-1.77.36-3.59 2.09-3.59 3.9m26.73 3.21l-2.92-2.92a2.44 2.44 0 01-.61-1.64V257.6a2.41 2.41 0 01.61-1.63l2.92-2.93h-13.12L896 256a2.46 2.46 0 01.6 1.63v16.2zm-26.69-16.2v10.94c3.84-6.07 13.8-6.26 14.25-.8.47 5.65-7 6.06-10.43 6.06h-13.45l2.93-2.92a2.49 2.49 0 00.61-1.64V257.6a2.49 2.49 0 00-.61-1.64l-2.93-2.96H883l-2.89 3a2.44 2.44 0 00-.61 1.6zm38.93-.6c1.17 1.62 2.46 3.14 3.69 4.72l3.08-4.88a1.2 1.2 0 00-.08-1.42l-2-2.34H931l-3.44 2.68a6 6 0 00-1.33 1.56l-3.35 5.3q4.41 5.61 8.85 11.22h-11.47l1.9-2.34a1.31 1.31 0 00-.09-1.6c-4.63-6-2.31-2.94-4.45-5.65l-3.71 5.75a1.17 1.17 0 00.08 1.42l2 2.34h-7.85l3.44-2.68a6.23 6.23 0 001.32-1.57l3.94-6.22-8.1-10.29h11.52l-1.9 2.34a1.3 1.3 0 00.07 1.58m46.96-1.41l-2.53-2.51h9l5.4 16.52a4.28 4.28 0 001.06 1.57l2.7 2.67h-12.51l2.26-2.34a1.21 1.21 0 00.28-1.23l-3.88-12.5-5.34 16.53h-.12l-5.65-16.63-3.77 12.23a1.68 1.68 0 00.16 1.6l2.27 2.34h-7.13l2.7-2.67a4 4 0 001-1.48l3.53-11.42a2.8 2.8 0 00-.58-2.72l-2.45-2.47h8.92l3.55 10.72 1.73-5.54a2.47 2.47 0 00-.6-2.71m29.97 5.58a15.34 15.34 0 00-4.92 3.25c-4 4.26.37 11.45 6.12 4.66zm1.35 8.91c-2.35 3.06-6.47 4.3-9.33 4.3-5.7 0-7.26-6-3.18-9 2.7-1.95 7.35-3.58 11-4.93-.39-2.57-.57-7-4-6.83-1.7.09-2.61 1-3.16 2.77l-2.04 6.9h-.11l-1.6-10.52 2.61.62c.91.21 1.54-.18 3-.51 6.27-1.37 10.71 1.26 11.91 8.06l1.39 7.92a3.37 3.37 0 00.7 1.69l3.38 3.37h-10zm22.29-17.38c2.14-.05 3.61.44 4.83.31l2.71-.3-2.66 11.59h-.08l-1.74-8.75c-.31-1.56-2.89-1.78-4.55-1.66-9.46.69-7.37 15.77 3.08 15.26 5-.24 9.55-3.78 8-9.09h.11c2.43 7.26-2.68 14.57-11.17 14.32-6.32-.19-10.64-4.85-10.24-10.84a12 12 0 0111.71-10.84m21.81 2.96v13.7a2.44 2.44 0 01-.61 1.64l-2.92 2.92h13.15l-2.92-2.92a2.44 2.44 0 01-.61-1.64v-13.7a1.46 1.46 0 011.54-1.66h1.24a1.32 1.32 0 011.48 1.35l1 8.61h.12l3.69-11.49-4.9.59c-.54.06-.94.09-1.33.1h-11.18a10.35 10.35 0 01-1.35-.1l-4.34-.59.48 11.49h.11l3.71-8.61a2.07 2.07 0 011.67-1.35h.67c.85 0 1.25.7 1.25 1.66m27.8 2c2.76-.12 2.51-4.53-1.5-3.67a6.64 6.64 0 00-4.64 3.67zm.88-5c4-.1 7.25 1.55 7.89 5.79h-15c-1.52 5.89 2.44 10.89 8.69 10.66 5-.19 9.53-3.78 8-9.09h.12c2.43 7.26-2.68 14.57-11.17 14.32-6.32-.19-10.63-4.85-10.24-10.84a12 12 0 0111.71-10.8zm14.3.46h-3.53l2.92 2.92a2.44 2.44 0 01.61 1.64v23.23h9.63l-2.93-2.93a2.46 2.46 0 01-.6-1.63v-2.43h2.67c10 0 14.53-6.48 14.59-12.29 0-4.82-3.12-8.93-8.17-8.93a9.75 9.75 0 00-9.09 6.75V253zm6.1 10.16V273a11.16 11.16 0 0010.53-11.1c.06-8.47-10.53-6.75-10.53 1.3zm26.55-8.16c2.29-1.26 5.7.12 9.61 6.15s3.6 9.46 1.31 10.72-5.73-.16-9.61-6.16-3.61-9.45-1.31-10.71m-.21-1c5.58-3 12.64-1.21 15.77 4s1.15 11.82-4.43 14.81-12.64 1.22-15.77-4-1.15-11.81 4.43-14.81zm28.88 16.58c0 1.87 1.76 2.56 3.55 2.49 4.6-.18 5.11-7.4.05-6.38-1.78.36-3.6 2.08-3.6 3.89m-9.62 3.22l2.92-2.92a2.44 2.44 0 00.61-1.64V257.6a2.44 2.44 0 00-.61-1.64l-2.92-2.92h12c3.15 0 8.39.24 8.15 4.3-.31 5.27-6.17 6.34-10.54 7.43v3.76c3.85-6.07 13.8-6.25 14.26-.79.46 5.65-7 6.06-10.43 6.06zm9.62-9.86c5.2-1.41 5.9-10.08 2.25-10.12-1.12 0-2.25.88-2.25 2.8zm-601.51 37.72l3.38 3.38a2.84 2.84 0 01.71 1.89v17.2a2.82 2.82 0 01-.71 1.89l-3.38 3.38h14.75l-3.38-3.4a2.82 2.82 0 01-.7-1.89v-18.82c0-1.17.49-2.53 3-2.54h.55c1.24 0 2 .16 2.49 1.07l7.23 12.48-1.63-15.54-4.46.64a15.56 15.56 0 01-2.61.29zm31.57 8.93c2.29-1.26 5.7.12 9.61 6.15s3.6 9.46 1.31 10.72-5.73-.16-9.61-6.16-3.6-9.45-1.31-10.71m-.2-1c5.58-3 12.64-1.22 15.77 4s1.15 11.82-4.43 14.81-12.64 1.22-15.78-4-1.14-11.77 4.44-14.77zm21.01-.95h-3.53l2.93 2.92a2.49 2.49 0 01.6 1.64v23.23h9.63l-2.92-2.93a2.43 2.43 0 01-.61-1.63v-2.47h2.67c10 0 14.54-6.48 14.59-12.29.05-4.82-3.12-8.93-8.17-8.93a9.76 9.76 0 00-9.09 6.75v-6.29zm6.1 10.15v9.78a11.16 11.16 0 0010.53-11.1c.06-8.47-10.56-6.73-10.56 1.32zm27.56 10.61h-8.35c.93-5.87 7.74-10.13 14.69-11.14v-1c-6.66.9-14.28-.05-13.82-8.66h9.64l-1.69 1.67a2.45 2.45 0 00-.49 1.78c0 3.53 3.35 4.81 6.36 4.27v-3.12a2.44 2.44 0 00-.61-1.64l-2.92-2.92h7.9l-2.92 2.92a2.44 2.44 0 00-.61 1.64v3c2.69-.78 4.79-3 5.47-7.52h8.35c-.91 5-8.48 7.66-13.82 8.53v1c.21 0 .43-.05.65-.06 6.42-.5 14.61.42 14 11.3h-10.29l2.22-2.2a2.36 2.36 0 00.49-2.19c-.65-3.92-2.78-6.75-7.07-6.09v5.92a2.44 2.44 0 00.61 1.64l2.92 2.92h-7.9l2.92-2.92a2.44 2.44 0 00.61-1.64v-5.75c-3.66.94-5.6 4.24-6.34 10.31m35.84-16.87l5.2 8.48 4.06-8.49a1.27 1.27 0 00-.17-1.59l-2.27-2.34h7.52l-3 2.68a4 4 0 00-.84 1.09l-7.27 15.21c-1.67 3.48-5.52 10.62-12.41 8.33l-1.36-13.41h.11l5.31 8.63a3 3 0 004.14 1c1.07-.67 2.46-3.34 3.22-4.93l-11.37-18.56h11.53l-2.24 2.32a1.31 1.31 0 00-.16 1.6m25.65-4.42c2.14-.05 3.61.44 4.82.3l2.72-.29-2.62 11.59h-.08l-1.78-8.78c-.31-1.56-2.9-1.78-4.56-1.66-9.45.69-7.36 15.77 3.09 15.26 5-.25 9.54-3.78 8-9.09h.1c2.44 7.26-2.68 14.57-11.17 14.32-6.28-.16-10.6-4.83-10.2-10.83a12 12 0 0111.68-10.84m22.32 18.02c0 1.87 1.75 2.56 3.55 2.49 4.59-.18 5.1-7.39 0-6.38-1.78.36-3.59 2.09-3.59 3.89m0-13v10.93c3.84-6.07 13.8-6.25 14.25-.79.46 5.65-7 6.06-10.43 6.06h-13.41l2.92-2.92a2.44 2.44 0 00.61-1.64V313.2a2.44 2.44 0 00-.61-1.64l-2.92-2.92h13.16l-2.93 2.92a2.44 2.44 0 00-.6 1.64zm43.04-2.07l-2.52-2.47h9l5.4 16.52a4.17 4.17 0 001.06 1.56l2.7 2.68h-12.5l2.27-2.34a1.19 1.19 0 00.27-1.23l-3.87-12.5-5.35 16.53h-.12l-5.64-16.63-3.77 12.23a1.66 1.66 0 00.16 1.6l2.27 2.34h-7.13l2.7-2.68a4 4 0 001-1.47l3.52-11.42a2.75 2.75 0 00-.58-2.72l-2.47-2.47h8.91l3.56 10.72 1.73-5.54a2.47 2.47 0 00-.61-2.71m31.36 5.54a15.3 15.3 0 00-4.91 3.25c-4 4.26.36 11.45 6.11 4.66zm1.36 8.91c-2.35 3.06-6.47 4.3-9.33 4.3-5.71 0-7.27-6-3.18-9 2.7-1.95 7.35-3.58 11-4.93-.39-2.57-.58-7-4-6.84-1.69.1-2.61 1-3.15 2.78l-2.07 6.86h-.11l-1.6-10.52 2.6.62c.92.21 1.54-.19 3-.51 6.27-1.37 10.71 1.25 11.9 8.06l1.4 7.92a3.28 3.28 0 00.7 1.69l3.38 3.37h-10zM809.7 313l-4.83 12.36a4.09 4.09 0 01-1 1.35l-2.7 2.68h7.11l-2.28-2.33a1.4 1.4 0 01-.17-1.56l5-12.87 4.88 13.3a1.08 1.08 0 01-.29 1.13l-2.27 2.34h12.43l-2.7-2.68a3.58 3.58 0 01-.88-1.19l-6.34-16.89h-8.58l2.23 2.14a1.91 1.91 0 01.3 2.23m22.08-2.42c2.29-1.26 5.7.12 9.61 6.15s3.6 9.46 1.31 10.72-5.73-.16-9.61-6.16-3.6-9.45-1.31-10.71m-.21-1c5.58-3 12.65-1.22 15.78 4s1.14 11.82-4.44 14.81-12.64 1.22-15.77-4-1.14-11.77 4.43-14.77zm28.39 13l8.31-8.32v-1.07a2.44 2.44 0 00-.61-1.64l-2.92-2.92h13.16l-2.92 2.92a2.44 2.44 0 00-.61 1.64v11.64a2.44 2.44 0 00.61 1.64l2.92 2.92h-13.16l2.92-2.92a2.44 2.44 0 00.61-1.64v-9.38l-8.31 8.31v1.07a2.44 2.44 0 00.61 1.64l2.93 2.92h-13.16l2.92-2.92a2.44 2.44 0 00.61-1.64V313.2a2.44 2.44 0 00-.61-1.64l-2.92-2.92h9.62zm6.13-23.82c.35 2.72-2.61 6.95-8 5.78l-.17.73c4.94 1.42 8.66.54 12.48-2.93zm58.73 11.82c2.3-1.26 5.71.12 9.62 6.15s3.6 9.46 1.31 10.72-5.73-.16-9.61-6.16-3.61-9.45-1.32-10.71m-.2-1c5.58-3 12.64-1.22 15.77 4s1.15 11.82-4.43 14.81-12.64 1.22-15.77-4-1.1-11.77 4.43-14.77zM905 329.4l-3.41-3.4a2.82 2.82 0 01-.71-1.89v-4h2.67c10 0 13.21-4.22 13.26-10 .05-4.8-2.76-8.91-7.8-8.91a8 8 0 00-8.13 5.52v-5.06h-10.66l3.38 3.34a2.84 2.84 0 01.7 1.89v17.2a2.82 2.82 0 01-.7 1.89l-3.38 3.38zm-4.09-18.81v8.71c5.36-.14 8.66-2.55 8.7-8.82.03-8.42-8.73-7.92-8.73.11zm46.36 17.98H958l-5.79-16.24-5.94 14.35c-.46 1.1-.37 1.88 1 1.89m.87-19.93h9.13l7.63 19.93h3.41l-3.5 8.55h-.12l-1.51-6.63c-.19-.86-1-1.09-1.95-1.09h-13a2.07 2.07 0 00-2 1.09l-4 6.63h-.12l-.47-8.55h2.89l6.28-15.38a2 2 0 00-.49-2.35zm32.33 13.95l8.31-8.32v-1.07a2.44 2.44 0 00-.61-1.64l-2.93-2.92h13.16l-2.92 2.92a2.44 2.44 0 00-.61 1.64v11.64a2.44 2.44 0 00.61 1.64l2.92 2.92h-13.16l2.93-2.92a2.44 2.44 0 00.61-1.64v-9.38l-8.31 8.31v1.07a2.49 2.49 0 00.6 1.64l2.93 2.92h-13.16l2.92-2.92a2.44 2.44 0 00.61-1.64V313.2a2.44 2.44 0 00-.61-1.64l-2.92-2.92h9.63zm31.82-13.95h-9.63l2.93 2.92a2.49 2.49 0 01.61 1.64v11.64a2.49 2.49 0 01-.61 1.64l-2.93 2.92h13.16l-2.92-2.92a2.44 2.44 0 01-.61-1.64v-6.47l8.31 2.23v4.24a2.44 2.44 0 01-.61 1.64l-2.92 2.92h13.16l-2.92-2.92a2.44 2.44 0 01-.61-1.64V313.2a2.44 2.44 0 01.61-1.64l2.92-2.92h-13.16l2.92 2.92a2.44 2.44 0 01.61 1.64v6.53l-8.31-2.22zm25.71 1.95c2.29-1.26 5.7.12 9.61 6.15s3.6 9.46 1.31 10.72-5.73-.16-9.61-6.16-3.6-9.45-1.31-10.71m-.2-1c5.57-3 12.64-1.22 15.77 4s1.14 11.82-4.44 14.81-12.64 1.22-15.77-4-1.17-11.77 4.41-14.77zm28.96 13l8.31-8.32v-1.07a2.44 2.44 0 00-.61-1.64l-2.93-2.92h13.16l-2.92 2.92a2.44 2.44 0 00-.61 1.64v11.64a2.44 2.44 0 00.61 1.64l2.92 2.92h-13.16l2.93-2.92a2.44 2.44 0 00.61-1.64v-9.38l-8.31 8.31v1.07a2.44 2.44 0 00.61 1.64l2.92 2.92h-13.16l2.92-2.92a2.44 2.44 0 00.61-1.64V313.2a2.44 2.44 0 00-.61-1.64l-2.92-2.92h9.63zm6.09-23.82c.36 2.72-2.6 6.95-8 5.78l-.17.73c4.94 1.42 8.66.54 12.48-2.93zm-529.3 58.49l3.38 3.38a2.82 2.82 0 01.71 1.89v17.2a2.82 2.82 0 01-.71 1.89l-3.38 3.38h14.75l-3.38-3.38a2.82 2.82 0 01-.7-1.89v-18.84c0-1.17.49-2.53 3-2.54h.55c1.24 0 2 .16 2.49 1.07l7.23 12.48-1.63-15.55-4.46.65a16.68 16.68 0 01-2.61.29zm31.57 9.53c2.29-1.26 5.7.12 9.61 6.15s3.6 9.46 1.31 10.72-5.73-.16-9.61-6.16-3.6-9.45-1.31-10.71m-.2-1c5.58-3 12.64-1.21 15.77 4s1.15 11.82-4.43 14.81-12.64 1.22-15.78-4-1.14-11.77 4.44-14.77zm21.01-1.04h-3.53l2.93 2.92a2.49 2.49 0 01.6 1.64v23.22h9.63l-2.92-2.92A2.44 2.44 0 01602 388v-2.46h2.67c10 0 14.54-6.49 14.59-12.29.05-4.82-3.12-8.94-8.17-8.94A9.77 9.77 0 00602 371v-6.29zM602 374.9v9.77a11.15 11.15 0 0010.53-11.1c.09-8.44-10.53-6.72-10.53 1.33zm81.86-10.52c2.14-.05 3.6.44 4.82.3l2.72-.29-2.66 11.61h-.09l-1.74-8.75c-.31-1.56-2.89-1.78-4.55-1.66-9.45.69-7.36 15.77 3.09 15.26 5-.25 9.54-3.78 8-9.09h.11c2.43 7.26-2.68 14.57-11.17 14.32-6.32-.19-10.64-4.85-10.24-10.84a12 12 0 0111.68-10.84m49.03 17.99c0 1.87 1.75 2.55 3.55 2.48 4.6-.18 5.11-7.39 0-6.38-1.77.36-3.59 2.09-3.59 3.9m0-13v10.94c3.84-6.07 13.8-6.26 14.25-.8.47 5.65-7 6.06-10.43 6.06h-13.41l2.93-2.92a2.48 2.48 0 00.61-1.63V369.4a2.44 2.44 0 00-.61-1.63l-2.93-2.93h13.16l-2.92 2.93a2.39 2.39 0 00-.61 1.63zm106.37-2.08l-2.53-2.47h9l5.4 16.52a4.28 4.28 0 001.06 1.57l2.7 2.67h-12.51l2.26-2.33a1.23 1.23 0 00.28-1.24L841 369.54l-5.35 16.52h-.12l-5.64-16.63-3.77 12.24a1.66 1.66 0 00.16 1.6l2.27 2.33h-7.13l2.7-2.67a4.15 4.15 0 001-1.48l3.53-11.45a2.77 2.77 0 00-.59-2.72l-2.47-2.47h8.92l3.55 10.72 1.73-5.54a2.49 2.49 0 00-.6-2.71m30.81 5.58a15.22 15.22 0 00-4.91 3.24c-4 4.27.36 11.45 6.12 4.66zm1.36 8.9c-2.35 3.07-6.47 4.3-9.33 4.31-5.71 0-7.26-6-3.18-9 2.7-2 7.35-3.58 11-4.93-.39-2.57-.58-7-4-6.83-1.69.09-2.6 1-3.15 2.77l-2.02 6.92h-.11L859 364.45l2.61.62c.91.21 1.53-.18 3-.5 6.27-1.38 10.71 1.25 11.91 8.05l1.39 7.92a3.28 3.28 0 00.7 1.69l3.38 3.38H872zm21.81-12.55l-4.83 12.36a4.13 4.13 0 01-1 1.36l-2.7 2.67h7.11l-2.26-2.33a1.42 1.42 0 01-.18-1.57l5-12.87 4.89 13.3a1.12 1.12 0 01-.3 1.14l-2.26 2.33h12.43l-2.7-2.67a3.65 3.65 0 01-.89-1.2l-6.33-16.89h-8.59l2.24 2.14a1.89 1.89 0 01.29 2.23m-269.36 15.56h10.74l-5.79-16.24-5.94 14.35c-.45 1.1-.37 1.88 1 1.89m.88-19.93h9.12l7.63 19.93h3.41l-3.5 8.56h-.12l-1.5-6.64c-.2-.85-1.06-1.09-2-1.09h-13a2.07 2.07 0 00-2 1.09l-4 6.64h-.12l-.47-8.56h2.9l6.28-15.38a2.06 2.06 0 00-.5-2.35zm26.82 1.95c2.29-1.26 5.7.12 9.61 6.15s3.61 9.46 1.31 10.72-5.72-.16-9.61-6.16-3.6-9.45-1.31-10.71m-.2-1c5.58-3 12.64-1.21 15.77 4s1.15 11.82-4.43 14.81-12.64 1.22-15.77-4-1.15-11.77 4.43-14.77zm55.16.94v13.71a2.44 2.44 0 01-.61 1.64l-2.92 2.92H716l-2.93-2.92a2.49 2.49 0 01-.61-1.64v-13.71a1.46 1.46 0 011.54-1.66h1.24a1.33 1.33 0 011.48 1.36l1 8.61h.12l3.69-11.5-4.9.6c-.54.06-.93.09-1.32.1H704.2a12.63 12.63 0 01-1.35-.1l-4.34-.6L699 375h.12l3.7-8.61a2.06 2.06 0 011.67-1.36h.67c.86 0 1.25.71 1.25 1.66"/><path class="cls-5" d="M771.91 373.2c4.78-.15 7.06-2.1 7.11-4.26.1-3.61-3.78-4.4-7.08-4.59-2.44-.14-4.87.84-6 .57l-2.77-.67.86 9.59h.08l3.72-7.22c1.18-2.31 5.23-1.75 5.4 1.65.07 1.54-.87 4.3-5.71 5.48v.25c8.32-1.82 8.54 11.39 2.81 11.28-3-.06-4.07-4.48-2.73-6.07l2.73-3.26h-8.82c-2 5.45 1.77 10.12 8.57 10.18 11.5.12 12.25-8.12 9.13-12.77h-7.31z"/><path class="cls-4" d="M797 372.86a15.15 15.15 0 00-4.92 3.24c-4 4.27.37 11.45 6.12 4.66zm1.35 8.9c-2.35 3.07-6.47 4.3-9.33 4.31-5.7 0-7.26-6-3.18-9 2.7-2 7.36-3.58 11-4.93-.39-2.57-.57-7-4-6.83-1.7.09-2.61 1-3.16 2.77L787.7 375h-.11L786 364.45l2.61.62c.92.21 1.54-.18 3-.5 6.27-1.38 10.71 1.25 11.91 8.05l1.39 7.92a3.37 3.37 0 00.7 1.69l3.38 3.38H799zm123.48-12.98l5.2 8.49 4.06-8.5a1.27 1.27 0 00-.17-1.59l-2.27-2.34h7.52l-3 2.68a4 4 0 00-.84 1.09l-7.27 15.21c-1.67 3.48-5.52 10.62-12.41 8.33l-1.36-13.41h.14l5.31 8.64a3 3 0 004.14.95c1.07-.66 2.46-3.34 3.22-4.92l-11.37-18.57h11.53l-2.26 2.34a1.31 1.31 0 00-.16 1.6m34.75-1.99c2.29-1.26 5.7.12 9.61 6.15s3.6 9.46 1.31 10.72-5.73-.16-9.61-6.16-3.61-9.45-1.31-10.71m-8.92 8h2.81a10.93 10.93 0 015.9-9c5.58-3 12.64-1.21 15.77 4s1.15 11.82-4.43 14.81-12.64 1.22-15.77-4a10.13 10.13 0 01-1.48-5h-2.8v5.4a2.44 2.44 0 00.61 1.64l2.92 2.92H938l2.93-2.92a2.49 2.49 0 00.6-1.64v-11.6a2.46 2.46 0 00-.6-1.63l-2.93-2.93h9.63zm193.84-6.01l5.2 8.49 4-8.5a1.28 1.28 0 00-.16-1.59l-2.27-2.34h7.52l-3 2.68a4 4 0 00-.84 1.09l-7.28 15.21c-1.66 3.48-5.51 10.62-12.4 8.33l-1.28-13.41h.13l5.32 8.64a3 3 0 004.13.95c1.08-.66 2.47-3.34 3.22-4.92l-11.36-18.57h11.53l-2.27 2.34a1.31 1.31 0 00-.16 1.6m-373.17 54.28c.07-3.82-6.29-2.95-6.14 1.42.12 3.65 6 3.74 6.14-1.42m0 7.5c-2.47.5-4.66 3.19-5.26 5.41a1.92 1.92 0 00.25 1.71l2.92 2.92h-10.71c.95-6 4.75-9.65 12.8-10.86v-3.59c-2.31 3.71-6.15 4.69-8.86 3.8-3.67-1.21-4.1-5.72-1.59-8.1 1.91-1.82 5.22-2 7.5-2H778l-2.93 2.92a2.49 2.49 0 00-.6 1.64V436a2.49 2.49 0 00.6 1.64l2.93 2.96h-9.63z"/><path class="cls-5" d="M791.34 428.26c4.78-.15 7.06-2.09 7.11-4.26.1-3.61-3.78-4.4-7.08-4.59-2.44-.13-4.87.85-6 .57l-2.77-.67.86 9.59h.08l3.72-7.22c1.19-2.31 5.23-1.75 5.4 1.65.07 1.54-.87 4.3-5.71 5.49v.18c8.32-1.83 8.54 11.38 2.81 11.27-3-.06-4.06-4.48-2.73-6.07l2.73-3.26-8.76.06c-2 5.44 1.77 10.11 8.57 10.18 11.5.11 12.25-8.13 9.13-12.78h-7.31z"/><path class="cls-4" d="M809.78 421.79c2.29-1.26 5.7.11 9.61 6.15s3.6 9.46 1.31 10.72-5.73-.16-9.61-6.16-3.6-9.45-1.31-10.71m-.21-1c5.58-3 12.64-1.22 15.78 4s1.14 11.81-4.44 14.81-12.64 1.22-15.77-4-1.14-11.78 4.43-14.77zm28.99 16.59c0 1.87 1.75 2.56 3.55 2.49 4.6-.18 5.11-7.4 0-6.38-1.78.36-3.6 2.08-3.6 3.89m-9.62 3.22l2.92-2.92a2.44 2.44 0 00.61-1.64V424.4a2.44 2.44 0 00-.61-1.64l-2.92-2.92h12c3.15 0 8.39.24 8.15 4.3-.31 5.27-6.17 6.34-10.54 7.42v3.77c3.85-6.07 13.8-6.25 14.25-.79.47 5.64-7 6.06-10.42 6.06zm9.62-9.86c5.2-1.41 5.9-10.09 2.25-10.12-1.12 0-2.25.88-2.25 2.8zm-103.37 5.56c0 2.31 2.19 3.52 4.54 3.42 5.62-.24 6.52-8.73.8-8.55-2.46.08-5.34 2.11-5.34 5.13m-10.67 4.3l3.38-3.38a2.82 2.82 0 00.7-1.89v-17.2a2.82 2.82 0 00-.7-1.89l-3.38-3.38h13.86c4.21 0 9.42.48 9.15 5.75-.32 6-6.51 8.47-12.34 9.92v5c5-8.06 16.71-8.05 17.53-1.06.89 7.5-7.89 8.1-12.43 8.1zm10.67-13.17c5.63-1.53 7.33-13.58 2.89-13.69-1.41 0-2.89.63-2.89 3.1zm132.79-8.05c2.14-.05 3.61.44 4.82.3l2.72-.3-2.66 11.62h-.08l-1.73-8.78c-.31-1.55-2.9-1.77-4.56-1.65-9.45.69-7.36 15.76 3.09 15.26 5-.25 9.55-3.79 8-9.09h.1c2.44 7.25-2.68 14.56-11.17 14.32-6.32-.19-10.63-4.86-10.24-10.84a12 12 0 0111.68-10.84m22.29 10.91c8.41-2.56 14.79-.2 14.34 10.31h-9.63l2.22-2.2c.55-.55.51-1.26.49-2.19-.11-4.19-3.09-6.59-7.42-5.17v5a2.44 2.44 0 00.61 1.64l2.92 2.92h-13.16l2.93-2.92a2.44 2.44 0 00.61-1.64V424.4a2.44 2.44 0 00-.61-1.64l-2.93-2.92h13.16l-2.92 2.92a2.44 2.44 0 00-.61 1.64v4.27c3.75-1.34 5.52-4.21 5.47-8.83h8c-.91 5-7.67 8.44-13.48 9.55zm27.6 3.49l8.32-8.31v-1.07a2.49 2.49 0 00-.61-1.64l-2.93-2.92h13.16l-2.92 2.92a2.44 2.44 0 00-.61 1.64V436a2.44 2.44 0 00.61 1.64l2.92 2.92h-13.16l2.93-2.92a2.49 2.49 0 00.61-1.64v-9.39l-8.32 8.39v1a2.49 2.49 0 00.61 1.64l2.93 2.92h-13.16l2.92-2.92a2.44 2.44 0 00.61-1.64v-11.6a2.44 2.44 0 00-.61-1.64l-2.92-2.92h9.62zm30.51-10.03c1.16 1.62 2.46 3.14 3.69 4.72l3.08-4.88a1.2 1.2 0 00-.08-1.42l-2-2.34h7.85l-3.44 2.68a6.18 6.18 0 00-1.32 1.56l-3.35 5.3q4.41 5.61 8.85 11.22h-11.47l1.9-2.34a1.31 1.31 0 00-.09-1.6c-4.64-6-2.31-2.93-4.46-5.65l-3.66 5.81a1.2 1.2 0 00.08 1.42l2 2.34H938l3.44-2.68a6.23 6.23 0 001.32-1.57l3.94-6.22-8.12-10.29h11.52l-1.9 2.34a1.3 1.3 0 00.07 1.58m27.61-3.89l2.92 2.92a2.44 2.44 0 01.61 1.64V436a2.44 2.44 0 01-.61 1.64l-2.92 2.92H989l-2.93-2.92a2.49 2.49 0 01-.61-1.64v-15.33h8.32V436a2.49 2.49 0 01-.61 1.64l-2.93 2.92h13.16l-2.92-2.92a2.44 2.44 0 01-.61-1.64v-11.6a2.44 2.44 0 01.61-1.64l2.92-2.92zm34.12 0h-3.54l2.93 2.92a2.49 2.49 0 01.61 1.64v23.22h9.62l-2.92-2.92a2.43 2.43 0 01-.61-1.63v-2.47h2.67c10 0 14.54-6.48 14.59-12.29 0-4.82-3.12-8.93-8.16-8.93a9.77 9.77 0 00-9.1 6.75v-6.29zm6.09 10.15v9.77a11.16 11.16 0 0010.54-11.1c.08-8.44-10.51-6.72-10.51 1.34zm32.81-6.93c.07-3.82-6.29-2.95-6.14 1.42.12 3.65 6 3.74 6.14-1.42m0 7.5c-2.46.5-4.66 3.19-5.25 5.41a1.89 1.89 0 00.24 1.71l2.92 2.92h-10.71c1-6 4.76-9.65 12.8-10.86v-3.59c-2.31 3.71-6.15 4.69-8.86 3.8-3.67-1.21-4.09-5.72-1.59-8.1 1.92-1.82 5.22-2 7.5-2h12.58l-2.92 2.92a2.44 2.44 0 00-.61 1.64V436a2.44 2.44 0 00.61 1.64l2.92 2.92h-9.63zm22.43-10.72h-9.62l2.92 2.92a2.44 2.44 0 01.61 1.64V436a2.44 2.44 0 01-.61 1.64l-2.92 2.92h13.16l-2.93-2.92a2.49 2.49 0 01-.61-1.64v-6.47l8.32 2.23V436a2.49 2.49 0 01-.61 1.64l-2.93 2.92h13.16l-2.92-2.92a2.44 2.44 0 01-.61-1.64v-11.6a2.44 2.44 0 01.61-1.64l2.92-2.92h-13.16l2.93 2.92a2.49 2.49 0 01.61 1.64v6.53l-8.32-2.23zm31.59 13.94l8.32-8.31v-1.07a2.49 2.49 0 00-.61-1.64l-2.93-2.92h13.16l-2.92 2.92a2.44 2.44 0 00-.61 1.64V436a2.44 2.44 0 00.61 1.64l2.92 2.92h-13.16l2.93-2.92a2.49 2.49 0 00.61-1.64v-9.39l-8.32 8.32V436a2.49 2.49 0 00.61 1.64l2.93 2.92h-13.16l2.92-2.92a2.44 2.44 0 00.61-1.64v-11.6a2.44 2.44 0 00-.61-1.64l-2.92-2.92h9.62zm31.67-3.49c8.4-2.56 14.78-.2 14.34 10.31h-9.63l2.21-2.2c.55-.55.52-1.26.5-2.19-.11-4.19-3.1-6.59-7.42-5.17v5a2.49 2.49 0 00.6 1.64l2.93 2.92H1125l2.92-2.92a2.44 2.44 0 00.61-1.64V424.4a2.44 2.44 0 00-.61-1.64l-2.92-2.92h13.16l-2.93 2.92a2.49 2.49 0 00-.6 1.64v4.27c3.74-1.34 5.51-4.21 5.47-8.83h8c-.91 5-7.67 8.44-13.47 9.55zm22.72-8.5c2.29-1.26 5.7.11 9.61 6.15s3.6 9.46 1.31 10.72-5.73-.16-9.61-6.16-3.6-9.45-1.31-10.71m-.21-1c5.58-3 12.64-1.22 15.78 4s1.14 11.81-4.44 14.81-12.64 1.22-15.77-4-1.15-11.78 4.43-14.77zm28.36 16.59c0 1.87 1.75 2.56 3.55 2.49 4.59-.18 5.1-7.4 0-6.38-1.78.36-3.59 2.08-3.59 3.89m-9.63 3.22l2.93-2.92a2.49 2.49 0 00.6-1.64V424.4a2.49 2.49 0 00-.6-1.64l-2.93-2.92h12c3.15 0 8.38.24 8.14 4.3-.31 5.27-6.16 6.34-10.53 7.42v3.77c3.84-6.07 13.8-6.25 14.25-.79.47 5.64-7 6.06-10.43 6.06zm9.63-9.86c5.19-1.41 5.9-10.09 2.25-10.12-1.13 0-2.25.88-2.25 2.8zm-618.87 96.07l-2.75-2.75h10l7.56 23.15c.24.74.56.9 1.15 1.49l3.13 3.1H571.3l2.63-2.71a1.34 1.34 0 00.33-1.36l-5.4-17.4-7.14 21.92h-.16l-7.54-22-5.22 17a1.82 1.82 0 00.28 2l2.53 2.61h-8.44l3.12-3.1a4.62 4.62 0 001.22-1.77l5-16.48a3.65 3.65 0 00-.74-3.88l-2.52-2.51h9.63l5.41 15.81 3-9.31a3.24 3.24 0 00-.78-3.75m28.97 21.71c0 1.87 1.75 2.56 3.55 2.49 4.59-.18 5.11-7.4 0-6.38-1.77.36-3.59 2.08-3.59 3.89m26.73 3.22l-2.92-2.92a2.44 2.44 0 01-.61-1.64V535.6a2.44 2.44 0 01.61-1.64l2.92-2.92h-13.12L612 534a2.49 2.49 0 01.6 1.64v16.2zm-26.73-16.21v10.94c3.84-6.07 13.8-6.25 14.25-.79.47 5.64-7 6.06-10.43 6.06h-13.41l2.93-2.92a2.49 2.49 0 00.61-1.64v-11.65a2.48 2.48 0 00-.61-1.63l-2.93-2.96H599l-2.91 3a2.43 2.43 0 00-.61 1.59zm47.56-.18l-4.83 12.36a4.09 4.09 0 01-1 1.35l-2.7 2.68h7.11l-2.26-2.34a1.42 1.42 0 01-.18-1.57l5-12.86 4.89 13.3a1.11 1.11 0 01-.3 1.13l-2.26 2.34H659l-2.7-2.68a3.61 3.61 0 01-.89-1.19L649.08 531h-8.59l2.24 2.13a1.91 1.91 0 01.29 2.24m36.85-2.37c2.29-1.26 5.7.11 9.61 6.15s3.61 9.45 1.31 10.71-5.72-.15-9.61-6.15-3.6-9.45-1.31-10.71m-8.87 8h2.81a10.93 10.93 0 015.9-9c5.58-3 12.64-1.22 15.77 4s1.15 11.81-4.43 14.81-12.64 1.21-15.77-4a10.06 10.06 0 01-1.48-5H671v5.4a2.49 2.49 0 00.6 1.64l2.93 2.92h-13.2l2.92-2.92a2.44 2.44 0 00.61-1.64V535.6a2.44 2.44 0 00-.61-1.64l-2.92-2.96H671zm37 7.58c0 1.87 1.75 2.56 3.55 2.49 4.59-.18 5.1-7.4 0-6.38-1.78.36-3.59 2.08-3.59 3.89m9.22-18.38l1.49 10h-.1l-5.8-7.39a2 2 0 00-1.81-.93h-1.21c-1.49 0-1.79.91-1.79 1.71v12.95c3.84-6.07 13.8-6.25 14.25-.79.46 5.64-7 6.06-10.43 6.06h-13.41l2.92-2.92a2.44 2.44 0 00.61-1.64V535.6a2.44 2.44 0 00-.61-1.64l-2.92-2.96h12.38a17.32 17.32 0 002.49-.22zM733.3 545l8.31-8.31v-1.09a2.44 2.44 0 00-.61-1.6l-2.92-3h13.15l-2.92 3a2.44 2.44 0 00-.61 1.64v11.64a2.44 2.44 0 00.61 1.64l2.92 2.92h-13.15l2.92-2.92a2.44 2.44 0 00.61-1.64v-9.39l-8.31 8.31v1.08a2.44 2.44 0 00.61 1.64l2.92 2.92h-13.16l2.92-2.92a2.44 2.44 0 00.61-1.64V535.6a2.44 2.44 0 00-.61-1.64l-2.92-2.96h9.63zm37.82-11.49L768.6 531h9l5.4 16.56a4.31 4.31 0 001.07 1.56l2.7 2.68h-12.5l2.27-2.34a1.2 1.2 0 00.27-1.24l-3.88-12.49-5.34 16.53h-.12l-5.64-16.63-3.83 12.23a1.64 1.64 0 00.16 1.6l2.26 2.34h-7.12l2.7-2.68a4 4 0 001-1.47l3.53-11.42a2.75 2.75 0 00-.58-2.72l-2.42-2.51h8.91l3.56 10.76 1.72-5.55a2.43 2.43 0 00-.6-2.7m44.58-9.45l-3.38 3.38a2.82 2.82 0 00-.7 1.89v6.53c5-2.27 7.37-5.83 7.48-11.8h8c-.8 7.11-6.42 10.3-15.52 12.75v1.41c11.18-2.92 17.36.55 16.67 13.58h-11l3-2.94c.74-.73.73-1.69.66-2.92-.3-5.43-3.86-7.8-9.27-6.6v7.19a2.82 2.82 0 00.7 1.89l3.38 3.38H801l3.38-3.38a2.82 2.82 0 00.7-1.89v-17.2a2.82 2.82 0 00-.7-1.89l-3.38-3.38zM841.84 535l5.19 8.49 4.06-8.49a1.29 1.29 0 00-.16-1.6l-2.27-2.4h7.51l-3 2.67a4.36 4.36 0 00-.83 1.1L845.06 550c-1.66 3.48-5.51 10.62-12.4 8.33l-1.36-13.42h.13l5.32 8.64a3 3 0 004.13.95c1.08-.66 2.46-3.34 3.22-4.92L832.74 531h11.52l-2.26 2.37a1.3 1.3 0 00-.16 1.6m24.93-3.97h-9.63l2.93 2.92a2.44 2.44 0 01.61 1.64v11.64a2.44 2.44 0 01-.61 1.64l-2.93 2.92h13.16l-2.92-2.92a2.44 2.44 0 01-.61-1.64v-6.47l8.31 2.22v4.25a2.44 2.44 0 01-.61 1.64l-2.92 2.92h13.16l-2.92-2.92a2.44 2.44 0 01-.61-1.64v-11.6a2.44 2.44 0 01.61-1.64l2.92-2.92h-13.16l2.92 2.92a2.44 2.44 0 01.61 1.64v6.53l-8.31-2.23zm22.49 0l2.92 2.92a2.44 2.44 0 01.61 1.64v11.64a2.44 2.44 0 01-.61 1.64l-2.92 2.92h13.16l-2.93-2.92a2.44 2.44 0 01-.61-1.64v-13.45c0-.87.44-1.87 2.33-1.88h.79a1.82 1.82 0 011.81.93l5.71 9.6h.1l-1.4-12.52-4 1a6.39 6.39 0 01-1.8.22zm32.94 4l5.2 8.49 4.06-8.49a1.28 1.28 0 00-.17-1.6L929 531h7.51l-3 2.67a4.14 4.14 0 00-.83 1.1L925.43 550c-1.66 3.48-5.51 10.62-12.41 8.33l-1.36-13.42h.14l5.32 8.64a3 3 0 004.13.95c1.07-.66 2.46-3.34 3.22-4.92L913.11 531h11.52l-2.26 2.33a1.31 1.31 0 00-.17 1.6m19.17-3.93h-3.53l2.92 2.92a2.44 2.44 0 01.61 1.64v23.22H951l-2.92-2.92a2.44 2.44 0 01-.61-1.64v-2.42h2.67c10 0 14.53-6.49 14.59-12.29 0-4.82-3.12-8.93-8.17-8.93a9.76 9.76 0 00-9.09 6.75V531zm6.1 10.15V551A11.15 11.15 0 00958 539.86c.06-8.44-10.53-6.72-10.53 1.33zM562 579.67a13.18 13.18 0 001.94-.13l5.44-.74-3.94 16.44h-.15L564 582.39c-.13-1.24-.69-1.79-2.57-1.79s-2.51.78-2.51 2.17v19.36a2.82 2.82 0 00.71 1.89l3.37 3.38h-14.75l3.38-3.38a2.82 2.82 0 00.7-1.89v-19.36c0-1.45-.45-2.13-1.72-2.13a2.23 2.23 0 00-2.31 1.75l-4.6 12.85h-.15l.05-16.44 4.75.74a13.86 13.86 0 002.29.13zm18 24.51c0 1.87 1.75 2.56 3.55 2.49 4.59-.18 5.1-7.4 0-6.38-1.77.35-3.59 2.08-3.59 3.89m-9.63 3.22l2.93-2.93a2.46 2.46 0 00.6-1.63V591.2a2.49 2.49 0 00-.6-1.64l-2.93-2.92h12c3.15 0 8.38.23 8.14 4.3-.31 5.27-6.16 6.34-10.53 7.42v3.77c3.84-6.07 13.8-6.25 14.25-.79.47 5.64-7 6.06-10.43 6.06zm9.63-9.86c5.19-1.41 5.9-10.09 2.25-10.12-1.13 0-2.25.87-2.25 2.8zm28.42-6.41c2.76-.11 2.51-4.52-1.5-3.67a6.65 6.65 0 00-4.64 3.67zm.88-5c4-.11 7.25 1.55 7.89 5.79h-15c-1.52 5.88 2.44 10.88 8.69 10.65 5-.18 9.53-3.78 8-9.08h.16c2.43 7.25-2.68 14.56-11.17 14.31-6.32-.18-10.64-4.85-10.24-10.83a12 12 0 0111.67-10.79zm15.74.51h-3.53l2.92 2.92a2.44 2.44 0 01.61 1.64v23.22h9.63l-2.92-2.92a2.44 2.44 0 01-.61-1.64v-2.46h2.67c10 0 14.53-6.49 14.59-12.29 0-4.82-3.12-8.94-8.17-8.94a9.77 9.77 0 00-9.09 6.76v-6.29zm6.1 10.15v9.77a11.16 11.16 0 0010.53-11.1c.05-8.46-10.54-6.72-10.54 1.33zm23.9 9.77h10.73L660 590.33l-6 14.35c-.46 1.09-.37 1.88 1 1.88m.87-19.92H665l7.64 19.92h3.41l-3.5 8.56h-.12l-1.51-6.64c-.19-.85-1-1.08-1.95-1.08H656a2.06 2.06 0 00-2 1.08l-4 6.64h-.12l-.47-8.56h2.89l6.28-15.38a2.06 2.06 0 00-.49-2.35zm32.95 17.54c0 1.87 1.76 2.56 3.55 2.49 4.6-.18 5.11-7.4 0-6.38-1.78.35-3.6 2.08-3.6 3.89m0-13v10.94c3.85-6.07 13.8-6.25 14.26-.79.46 5.64-7 6.06-10.43 6.06h-13.4l2.92-2.93a2.41 2.41 0 00.61-1.63v-11.64a2.43 2.43 0 00-.61-1.63l-2.92-2.92h13.16l-2.93 2.92a2.48 2.48 0 00-.61 1.63zm36.57-2.05v13.71a2.41 2.41 0 01-.61 1.63l-2.92 2.93H735l-3-2.93a2.41 2.41 0 01-.61-1.63v-13.71a1.46 1.46 0 011.54-1.66h1.24a1.33 1.33 0 011.48 1.36l1 8.6h.12l3.69-11.49-4.9.59a12.43 12.43 0 01-1.33.11h-11.09a10.38 10.38 0 01-1.35-.11l-4.34-.59.48 11.49h.07l3.71-8.6a2.06 2.06 0 011.67-1.36h.67c.85 0 1.25.71 1.25 1.66m27.46 15.05c0 1.87 1.75 2.56 3.55 2.49 4.59-.18 5.1-7.4 0-6.38-1.78.35-3.59 2.08-3.59 3.89m-9.63 3.22l2.92-2.93a2.41 2.41 0 00.61-1.63V591.2a2.44 2.44 0 00-.61-1.64l-2.92-2.92h12c3.15 0 8.38.23 8.14 4.3-.31 5.27-6.16 6.34-10.53 7.42v3.77c3.84-6.07 13.8-6.25 14.25-.79.46 5.64-7 6.06-10.43 6.06zm9.63-9.86c5.19-1.41 5.89-10.09 2.25-10.12-1.13 0-2.25.87-2.25 2.8zm45.2-10.9h-3.54l2.93 2.92a2.49 2.49 0 01.61 1.64v23.22h9.62l-2.92-2.92a2.44 2.44 0 01-.61-1.64v-2.46h2.67c10 0 14.54-6.49 14.59-12.29.05-4.82-3.12-8.94-8.17-8.94a9.77 9.77 0 00-9.09 6.76v-6.29zm6.08 10.15v9.77a11.16 11.16 0 0010.53-11.1c.07-8.46-10.53-6.72-10.53 1.33zm23.42 9.77h10.73l-5.79-16.24-5.94 14.35c-.45 1.1-.37 1.89 1 1.89m.87-19.92h9.12l7.59 19.92h3.41l-3.5 8.56h-.12l-1.5-6.64c-.2-.85-1.05-1.08-2-1.08h-13a2.06 2.06 0 00-1.95 1.08l-4 6.64h-.12l-.47-8.56h2.9l6.35-15.38a2.06 2.06 0 00-.5-2.35zm26.71 1.95c2.3-1.26 5.71.11 9.61 6.15s3.61 9.45 1.32 10.71-5.73-.15-9.62-6.15-3.6-9.46-1.31-10.71m-.2-1c5.58-3 12.64-1.22 15.77 4s1.15 11.81-4.43 14.81-12.64 1.21-15.77-4-1.11-11.78 4.47-14.77zm33.28-1.41c2.14-.06 3.6.43 4.82.3l2.72-.3-2.62 11.59h-.09l-1.78-8.77c-.31-1.56-2.89-1.78-4.55-1.65-9.45.69-7.36 15.76 3.09 15.25 5-.24 9.54-3.78 8-9.08h.11c2.43 7.25-2.68 14.56-11.17 14.31-6.29-.16-10.61-4.83-10.21-10.83a11.94 11.94 0 0111.68-10.84m22.28 2.97v13.71a2.41 2.41 0 01-.61 1.63l-2.93 2.93H920l-2.92-2.93a2.41 2.41 0 01-.61-1.63v-13.71a1.46 1.46 0 011.54-1.66h1.24a1.33 1.33 0 011.48 1.36l1 8.6h.12l3.68-11.49-4.89.59a12.43 12.43 0 01-1.33.11h-11.15a10.24 10.24 0 01-1.35-.11l-4.34-.59.48 11.49h.11l3.7-8.6a2.09 2.09 0 011.68-1.36h.67c.85 0 1.25.71 1.25 1.66m27.5 15.05c0 1.87 1.75 2.56 3.55 2.49 4.59-.18 5.1-7.4 0-6.38-1.78.35-3.59 2.08-3.59 3.89m0-13v10.94c3.84-6.07 13.8-6.25 14.25-.79.46 5.64-7 6.06-10.43 6.06h-13.41l2.92-2.93a2.41 2.41 0 00.61-1.63v-11.64a2.43 2.43 0 00-.61-1.63l-2.92-2.92h13.16l-2.92 2.92a2.43 2.43 0 00-.61 1.63z"/><path class="cls-5" d="M719.46 652.07h30.68v1.09h-30.68z"/><path class="cls-4" d="M764.19 642.24h9.25l-2.84 2.84c-.4.39-.67 1.09-.08 2.32s2.17 2.73 5.79 1.23v-6.39h9.63l-2.94 2.92a2.49 2.49 0 00-.61 1.64v11.64a2.46 2.46 0 00.61 1.63l2.93 2.93H772.8l2.92-2.93a2.38 2.38 0 00.59-1.33v-9.25c-8.61 4.19-14.46 1.11-12.12-7.25m38.28 8.01a15.27 15.27 0 00-4.91 3.24c-4 4.27.36 11.45 6.12 4.67zm1.36 8.91c-2.35 3.06-6.47 4.29-9.33 4.3-5.71 0-7.26-6-3.18-9 2.7-2 7.35-3.59 11-4.93-.39-2.57-.58-7-4-6.84-1.69.1-2.61 1-3.15 2.78l-2.07 6.86h-.1l-1.6-10.52 2.61.61c.91.22 1.53-.18 3-.5 6.27-1.37 10.71 1.25 11.91 8l1.39 7.93a3.21 3.21 0 00.7 1.68l3.38 3.38h-10zm23.3-2.98l8.31-8.31v-1.07a2.44 2.44 0 00-.61-1.64l-2.92-2.92h13.16l-2.93 2.92a2.44 2.44 0 00-.61 1.64v11.64a2.41 2.41 0 00.61 1.63l2.93 2.93h-13.16l2.92-2.93a2.41 2.41 0 00.61-1.63v-9.39l-8.31 8.31v1.08a2.41 2.41 0 00.61 1.63l2.92 2.93H817.5l2.92-2.93a2.41 2.41 0 00.61-1.63V646.8a2.44 2.44 0 00-.61-1.64l-2.92-2.92h9.63zm6.09-23.81c.36 2.71-2.6 7-8 5.77l-.17.73c4.94 1.42 8.67.54 12.48-2.92zm25.34 9.87h-9.62l2.92 2.92a2.44 2.44 0 01.61 1.64v11.64a2.41 2.41 0 01-.61 1.63l-2.92 2.93h13.16l-2.93-2.93a2.46 2.46 0 01-.61-1.63V652l8.32 2.22v4.25a2.46 2.46 0 01-.61 1.63l-2.93 2.9h13.16l-2.92-2.93a2.41 2.41 0 01-.61-1.63V646.8a2.44 2.44 0 01.61-1.64l2.92-2.92h-13.16l2.93 2.92a2.49 2.49 0 01.61 1.64v6.53l-8.32-2.23zm34.44 8.01a15.27 15.27 0 00-4.91 3.24c-4 4.27.36 11.45 6.12 4.67zm1.36 8.91c-2.35 3.06-6.47 4.29-9.33 4.3-5.71 0-7.26-6-3.18-9 2.7-2 7.35-3.59 11-4.93-.39-2.57-.58-7-4-6.84-1.69.1-2.61 1-3.15 2.78l-2.07 6.86h-.11l-1.6-10.52 2.6.61c.92.22 1.54-.18 3-.5 6.27-1.37 10.71 1.25 11.91 8l1.39 7.93a3.21 3.21 0 00.7 1.68l3.38 3.38h-10zm25.95-13.71c.07-3.81-6.29-3-6.14 1.43.12 3.65 6 3.74 6.14-1.43m0 7.51c-2.47.5-4.66 3.19-5.26 5.41a1.93 1.93 0 00.24 1.7l2.93 2.93h-10.71c1-6 4.75-9.65 12.8-10.86v-3.6c-2.32 3.71-6.15 4.7-8.86 3.81-3.68-1.21-4.1-5.72-1.6-8.1 1.92-1.83 5.22-2 7.5-2h12.59l-2.94 2.91a2.49 2.49 0 00-.61 1.64v11.64a2.46 2.46 0 00.61 1.63l2.93 2.93h-9.63zm36.86-11.18c2.13-.06 3.6.43 4.82.3l2.72-.3-2.66 11.59H962l-1.74-8.75c-.31-1.56-2.89-1.78-4.55-1.65-9.45.69-7.36 15.76 3.09 15.25 5-.24 9.54-3.78 8-9.08h.11c2.43 7.25-2.68 14.56-11.17 14.31-6.32-.18-10.64-4.85-10.24-10.83a12 12 0 0111.68-10.84m21.57 2.95v13.71a2.41 2.41 0 01-.61 1.63l-2.92 2.93h13.16l-2.92-2.93a2.41 2.41 0 01-.61-1.63v-13.71a1.46 1.46 0 011.54-1.66h1.23a1.33 1.33 0 011.48 1.36l1 8.6h.12l3.78-11.49-4.9.59a12.27 12.27 0 01-1.32.11h-11.23a10.52 10.52 0 01-1.35-.11l-4.34-.59.48 11.49h.12l3.7-8.6a2.06 2.06 0 011.68-1.36h.67c.85 0 1.24.71 1.24 1.66m23.39-.54c2.3-1.26 5.71.11 9.61 6.15s3.61 9.45 1.32 10.71-5.73-.15-9.62-6.15-3.6-9.45-1.31-10.71m-.2-1c5.58-3 12.64-1.22 15.77 4s1.15 11.81-4.43 14.81-12.64 1.21-15.77-4-1.15-11.78 4.43-14.77zm25.69 3.42L1022.8 659a4.2 4.2 0 01-1 1.35l-2.7 2.68h7.1l-2.26-2.34a1.42 1.42 0 01-.18-1.57l5-12.87 4.89 13.31a1.09 1.09 0 01-.3 1.13l-2.26 2.34h12.43l-2.7-2.68a3.61 3.61 0 01-.89-1.19l-6.33-16.89h-8.59l2.24 2.13a1.91 1.91 0 01.29 2.24m27.83 9.54l8.31-8.31v-1.07a2.44 2.44 0 00-.61-1.64l-2.92-2.92h13.16l-2.92 2.92a2.44 2.44 0 00-.61 1.64v11.64a2.41 2.41 0 00.61 1.63l2.92 2.93h-13.16l2.92-2.93a2.41 2.41 0 00.61-1.63v-9.39l-8.31 8.31v1.08a2.41 2.41 0 00.61 1.63l2.92 2.93h-13.16l2.93-2.93a2.41 2.41 0 00.61-1.63V646.8a2.44 2.44 0 00-.61-1.64l-2.93-2.92h9.63zm38.91 5.98h-6.18c-1.48 0-1.61-.46-1.61-1.94v-18h-9.63l2.93 2.92a2.49 2.49 0 01.61 1.64v11.64a2.46 2.46 0 01-.61 1.63l-2.93 2.93h20.36c.91 0 1.77.23 2 1.08l1.5 6.64h.12l3.5-8.56h-3.92V646.8a2.49 2.49 0 01.6-1.64l2.93-2.92h-13.16l2.92 2.92a2.44 2.44 0 01.61 1.64zm26.2-11.91a15.27 15.27 0 00-4.91 3.24c-4 4.27.36 11.45 6.12 4.67zm1.36 8.91c-2.35 3.06-6.47 4.29-9.33 4.3-5.71 0-7.26-6-3.18-9 2.7-2 7.35-3.59 11.05-4.93-.39-2.57-.58-7-4-6.84-1.69.1-2.61 1-3.15 2.78l-2.07 6.86h-.16l-1.6-10.52 2.6.61c.92.22 1.54-.18 3-.5 6.27-1.37 10.71 1.25 11.91 8l1.39 7.93a3.21 3.21 0 00.7 1.68l3.38 3.38h-10zm40.04 3.84l-3.38-3.38a2.87 2.87 0 01-.7-1.89v-4h2.67c10 0 13.21-4.22 13.26-10 0-4.81-2.77-8.92-7.81-8.92a8 8 0 00-8.12 5.53v-5.06h-10.66l3.38 3.38a2.82 2.82 0 01.7 1.89v17.2a2.82 2.82 0 01-.7 1.89l-3.38 3.38zm-4.08-18.81v8.71c5.36-.15 8.65-2.56 8.69-8.83.06-8.42-8.69-7.91-8.69.12zm23.32 0c2.3-1.26 5.71.11 9.61 6.15s3.61 9.45 1.32 10.71-5.73-.15-9.61-6.15-3.61-9.45-1.32-10.71m-.2-1c5.58-3 12.64-1.22 15.77 4s1.15 11.81-4.43 14.81-12.64 1.21-15.77-4-1.15-11.78 4.43-14.77zm32.81-1.41c2.14-.06 3.6.43 4.82.3l2.72-.3-2.66 11.59h-.08l-1.75-8.75c-.31-1.56-2.89-1.78-4.55-1.65-9.45.69-7.36 15.76 3.09 15.25 5-.24 9.54-3.78 8-9.08h.1c2.43 7.25-2.68 14.56-11.17 14.31-6.32-.18-10.63-4.85-10.24-10.83a12 12 0 0111.68-10.84m24.96 0c2.14-.06 3.6.43 4.82.3l2.72-.3-2.66 11.59h-.08l-1.75-8.75c-.31-1.56-2.89-1.78-4.55-1.65-9.45.69-7.36 15.76 3.09 15.25 5-.24 9.54-3.78 8-9.08h.1c2.43 7.25-2.68 14.56-11.17 14.31-6.32-.18-10.63-4.85-10.24-10.83a12 12 0 0111.68-10.84m21.96 14.4l8.31-8.31v-1.07a2.44 2.44 0 00-.61-1.64l-2.92-2.92h13.16l-2.93 2.92a2.49 2.49 0 00-.61 1.64v11.64a2.46 2.46 0 00.61 1.63l2.93 2.93h-13.16l2.92-2.93a2.41 2.41 0 00.61-1.63v-9.39l-8.31 8.31v1.08a2.41 2.41 0 00.61 1.63l2.92 2.93h-13.16l2.93-2.93a2.46 2.46 0 00.6-1.63V646.8a2.49 2.49 0 00-.6-1.64l-2.93-2.92h9.63zm31.84 0l8.31-8.31v-1.07a2.44 2.44 0 00-.61-1.64l-2.92-2.92h13.16l-2.93 2.92a2.49 2.49 0 00-.61 1.64v11.64a2.46 2.46 0 00.61 1.63l2.93 2.93h-13.16l2.92-2.93a2.41 2.41 0 00.61-1.63v-9.39l-8.31 8.31v1.08a2.41 2.41 0 00.61 1.63l2.92 2.93h-13.16l2.93-2.93a2.46 2.46 0 00.61-1.63V646.8a2.49 2.49 0 00-.61-1.64l-2.93-2.92h9.63zm-748.86 34.68l3.38 3.38a2.82 2.82 0 01.71 1.89v17.2a2.82 2.82 0 01-.71 1.89l-3.38 3.38h14.75l-3.38-3.38a2.82 2.82 0 01-.7-1.89V692h11.1v21.38a2.82 2.82 0 01-.7 1.89l-3.38 3.38H576l-3.38-3.38a2.82 2.82 0 01-.71-1.89v-17.2a2.82 2.82 0 01.71-1.89l3.38-3.38zm45.57 10.91l5.2 8.49 4.06-8.49a1.28 1.28 0 00-.17-1.6l-2.21-2.33h7.51l-3 2.67a4.17 4.17 0 00-.84 1.1l-7.27 15.2c-1.67 3.49-5.52 10.63-12.41 8.34l-1.36-13.42h.14l5.31 8.64a3 3 0 004.14 1c1.07-.66 2.46-3.34 3.22-4.92L580 697.84h11.53l-2.27 2.33a1.31 1.31 0 00-.16 1.6m17.83-3.93l2.92 2.92a2.43 2.43 0 01.61 1.63V714a2.41 2.41 0 01-.61 1.63l-2.92 2.93h13.16l-2.92-2.93a2.41 2.41 0 01-.61-1.63v-15.33h8.31V714a2.41 2.41 0 01-.61 1.63l-2.92 2.93h13.15l-2.92-2.93A2.41 2.41 0 01631 714v-11.61a2.43 2.43 0 01.61-1.63l2.92-2.92z"/><path class="cls-5" d="M661.76 702.05c5.94-.52 8-2.76 8.08-5.62.08-4-2.78-5.54-6-5.87-4.17-.43-6 1-8.52.54l-3.9-.64 1.16 13.14h.1l4.52-10.6c.92-2.11 6.09-2.17 6.32 2.51.1 2-1.15 5.68-7.57 7.25v.29c11-2.41 11.52 14.81 3.21 14.9-3.66 0-5-6.59-2.95-8.68l3.65-3.65h-9.8c-2.66 7.19.82 13.45 9.29 13.45 13 0 13.9-11.26 10.1-16.89h-7.69z"/><path class="cls-4" d="M686.16 702.33c2.77-.11 2.51-4.53-1.5-3.67a6.67 6.67 0 00-4.64 3.67zm.88-5c4-.11 7.26 1.55 7.89 5.79h-15c-1.52 5.88 2.44 10.88 8.69 10.65 5-.18 9.53-3.78 8-9.08h.12c2.44 7.25-2.68 14.56-11.17 14.31-6.32-.18-10.63-4.85-10.24-10.83A12 12 0 01687 697.38zm28.54 2.98l-2.53-2.47h9l5.4 16.51a4.11 4.11 0 001.07 1.57l2.7 2.68H718.7l2.26-2.34a1.21 1.21 0 00.28-1.24l-3.88-12.49-5.36 16.53h-.12l-5.64-16.63-3.78 12.23a1.66 1.66 0 00.17 1.6l2.26 2.34h-7.12l2.7-2.68a4 4 0 001-1.47L705 703a2.75 2.75 0 00-.58-2.71l-2.42-2.45h8.92l3.55 10.71 1.73-5.54a2.45 2.45 0 00-.6-2.7m25.33 1.9l-4.83 12.36a4.09 4.09 0 01-1 1.35l-2.7 2.68h7.11l-2.27-2.34a1.43 1.43 0 01-.17-1.57l5-12.87 4.88 13.3a1.09 1.09 0 01-.29 1.14l-2.27 2.34h12.44l-2.7-2.68a3.42 3.42 0 01-.89-1.2L747 697.84h-8.6l2.23 2.13a1.91 1.91 0 01.3 2.24m27.74 9.57l8.31-8.31v-1.08a2.43 2.43 0 00-.61-1.63l-2.92-2.92h13.16l-2.93 2.92a2.43 2.43 0 00-.61 1.63V714a2.41 2.41 0 00.61 1.63l2.93 2.93h-13.16l2.92-2.93A2.41 2.41 0 00777 714v-9.39l-8.33 8.39v1a2.41 2.41 0 00.61 1.63l2.92 2.93H759l2.92-2.93a2.41 2.41 0 00.61-1.63v-11.61a2.43 2.43 0 00-.61-1.63l-2.92-2.92h9.63zM723.23 753c2.14-.06 3.6.43 4.82.3l2.72-.3-2.66 11.59H728l-1.75-8.75c-.31-1.56-2.89-1.78-4.55-1.65-9.45.69-7.36 15.76 3.09 15.25 5-.24 9.54-3.78 8-9.08h.1c2.43 7.25-2.68 14.56-11.17 14.31-6.32-.18-10.63-4.85-10.24-10.84A11.94 11.94 0 01723.23 753m22.18 10.88c8.4-2.55 14.78-.19 14.34 10.32h-9.63l2.21-2.21c.55-.54.52-1.26.5-2.18-.11-4.2-3.1-6.6-7.42-5.17v5a2.41 2.41 0 00.61 1.63l2.92 2.93h-13.16l2.92-2.93a2.41 2.41 0 00.61-1.63V758a2.43 2.43 0 00-.61-1.63l-2.92-2.92h13.16l-2.94 2.91a2.43 2.43 0 00-.61 1.63v4.28c3.75-1.34 5.51-4.21 5.47-8.83h8c-.91 5-7.67 8.44-13.47 9.54zm31.89-2.43a15.22 15.22 0 00-4.91 3.24c-4 4.27.36 11.45 6.12 4.67zm1.36 8.91c-2.35 3.06-6.47 4.29-9.33 4.3-5.71 0-7.26-6-3.18-9 2.7-2 7.35-3.59 11.05-4.93-.39-2.57-.57-7-4-6.84-1.69.1-2.6 1-3.15 2.78l-2.05 6.9h-.11L766.26 753l2.61.62c.91.22 1.53-.18 3-.5 6.27-1.37 10.71 1.25 11.91 8.05l1.39 7.92a3.25 3.25 0 00.7 1.69l3.38 3.38h-10zM805 756.65c.07-3.81-6.29-2.95-6.15 1.42.13 3.66 6 3.75 6.15-1.42m0 7.51c-2.47.5-4.67 3.19-5.26 5.41a1.91 1.91 0 00.24 1.7l2.93 2.93h-10.72c.94-6 4.75-9.65 12.8-10.86v-3.6c-2.32 3.71-6.16 4.7-8.87 3.81-3.67-1.21-4.09-5.72-1.59-8.1 1.92-1.83 5.22-2 7.5-2h12.58l-2.92 2.92a2.43 2.43 0 00-.61 1.63v11.65a2.41 2.41 0 00.61 1.63l2.92 2.93H805zm31.19-6.35l-4.83 12.36a4.09 4.09 0 01-1 1.35l-2.7 2.68h7.11l-2.26-2.34a1.42 1.42 0 01-.18-1.57l5-12.87 4.89 13.3a1.12 1.12 0 01-.3 1.14l-2.26 2.34h12.43l-2.7-2.68a3.55 3.55 0 01-.89-1.2l-6.33-16.88h-8.59l2.24 2.13a1.91 1.91 0 01.29 2.24m27.4.12c2.77-.11 2.51-4.53-1.5-3.67a6.67 6.67 0 00-4.64 3.67zm.88-4.95c4-.11 7.26 1.55 7.89 5.79h-15c-1.53 5.88 2.43 10.88 8.68 10.65 5-.18 9.53-3.78 8-9.08h.13c2.43 7.25-2.68 14.56-11.18 14.31-6.31-.18-10.63-4.85-10.23-10.83A11.92 11.92 0 01864.39 753zm16.26 20.38h10.73l-5.79-16.24-5.94 14.35c-.45 1.1-.37 1.89 1 1.89m.87-19.92h9.12l7.63 19.92h3.41l-3.5 8.56h-.12l-1.5-6.64c-.2-.85-1-1.08-2-1.08h-13a2.06 2.06 0 00-2 1.08l-4 6.64h-.12l-.47-8.56H878l6.27-15.36a2.06 2.06 0 00-.5-2.35zm35.15 3.21c.07-3.81-6.29-2.95-6.14 1.42.12 3.66 6 3.75 6.14-1.42m0 7.51c-2.47.5-4.66 3.19-5.26 5.41a1.94 1.94 0 00.24 1.7l2.93 2.93h-10.71c1-6 4.75-9.65 12.8-10.86v-3.6c-2.32 3.71-6.15 4.7-8.86 3.81-3.68-1.21-4.1-5.72-1.6-8.1 1.92-1.83 5.22-2 7.5-2h12.59l-2.93 2.92a2.43 2.43 0 00-.61 1.63v11.65a2.41 2.41 0 00.61 1.63l2.93 2.93h-9.63zm22.95-10.72H930l2.93 2.92a2.48 2.48 0 01.61 1.63v11.65a2.46 2.46 0 01-.61 1.63L930 774.2h13.16l-2.92-2.93a2.41 2.41 0 01-.61-1.63v-6.47l8.31 2.22v4.25a2.41 2.41 0 01-.61 1.63l-2.92 2.93h13.16l-2.93-2.93a2.46 2.46 0 01-.61-1.63V758a2.48 2.48 0 01.61-1.63l2.93-2.92H944.4l2.92 2.92a2.43 2.43 0 01.61 1.63v6.54l-8.31-2.23zM974 761a15.15 15.15 0 00-4.92 3.24c-4 4.27.37 11.45 6.12 4.66zm1.35 8.9c-2.35 3.07-6.47 4.3-9.33 4.31-5.7 0-7.26-6-3.17-9 2.69-2 7.35-3.58 11-4.93-.39-2.57-.57-7-4-6.83-1.7.1-2.61 1-3.15 2.77l-2.08 6.87h-.11L963 752.58l2.61.62c.92.21 1.54-.18 3-.5 6.28-1.38 10.72 1.25 11.91 8l1.39 7.92a3.37 3.37 0 00.7 1.69l3.38 3.38H976zm26.35-13.25c.08-3.81-6.29-2.95-6.14 1.42.13 3.66 6.05 3.75 6.14-1.42m0 7.51c-2.46.5-4.66 3.19-5.25 5.41a1.88 1.88 0 00.24 1.7l2.92 2.93h-10.7c.94-6 4.75-9.65 12.79-10.86v-3.6c-2.31 3.71-6.15 4.7-8.86 3.81-3.67-1.21-4.09-5.72-1.59-8.1 1.92-1.83 5.22-2 7.5-2h12.58l-2.92 2.92a2.43 2.43 0 00-.61 1.63v11.65a2.41 2.41 0 00.61 1.63l2.92 2.93h-9.63zm25.3-10.72l2.93 2.92a2.43 2.43 0 01.61 1.63v11.65a2.41 2.41 0 01-.61 1.63l-2.93 2.93h13.16l-2.92-2.93a2.41 2.41 0 01-.61-1.63v-15.37h8.31v15.37a2.41 2.41 0 01-.61 1.63l-2.92 2.93h13.16l-2.92-2.93a2.41 2.41 0 01-.61-1.63V758a2.43 2.43 0 01.61-1.63l2.92-2.92zm41.37 4.49c2.77-.11 2.51-4.53-1.5-3.67a6.67 6.67 0 00-4.64 3.67zm.88-4.95c4-.11 7.26 1.55 7.89 5.79h-15c-1.52 5.88 2.44 10.88 8.69 10.65 5-.18 9.53-3.78 8-9.08h.12c2.44 7.25-2.68 14.56-11.17 14.31-6.32-.18-10.63-4.85-10.24-10.83a11.94 11.94 0 0111.71-10.82zm75.24.46H1141l2.92 2.92a2.43 2.43 0 01.61 1.63v23.23h9.63l-2.93-2.92a2.49 2.49 0 01-.6-1.64v-2.46h2.67c10 0 14.53-6.49 14.59-12.29 0-4.82-3.12-8.94-8.17-8.94a9.76 9.76 0 00-9.09 6.76v-6.29zm6.1 10.15v9.77a11.16 11.16 0 0010.53-11.1c.06-8.44-10.53-6.72-10.53 1.33zM781.56 591.13c2.76-.11 2.51-4.52-1.5-3.67a6.65 6.65 0 00-4.64 3.67zm1.44-14.36c.36 2.71-2.6 7-8 5.77l-.17.73c4.94 1.42 8.67.54 12.48-2.92zm-.56 9.41c4-.11 7.25 1.55 7.89 5.79h-15c-1.52 5.88 2.44 10.88 8.69 10.65 5-.18 9.53-3.78 8-9.08h.12c2.43 7.25-2.68 14.56-11.17 14.31-6.32-.18-10.64-4.85-10.24-10.83a12 12 0 0111.71-10.84zm317.64 187.18c-1.29 0-1.68-.56-1.68-1.69V758a2.43 2.43 0 01.61-1.63l2.92-2.92H1094l2.93 2.92a2.48 2.48 0 01.6 1.63v15.37h-4.49c-1.29 0-1.68-.56-1.68-1.69v-18.24h-9.63l2.93 2.92a2.43 2.43 0 01.61 1.63v11.65a2.41 2.41 0 01-.61 1.63l-2.93 2.93h25.78c.89 0 1.74.24 1.93 1.08l1.51 6.64h.11l3.5-8.56h-3.92V758a2.43 2.43 0 01.61-1.63l2.92-2.92h-9.63v19.92zm28.07-15.43c2.77-.11 2.51-4.53-1.5-3.67a6.67 6.67 0 00-4.64 3.67zm.85-4.93c4-.11 7.26 1.55 7.89 5.79h-15c-1.53 5.88 2.44 10.88 8.68 10.65 5-.18 9.53-3.78 8-9.08h.13c2.43 7.25-2.68 14.56-11.17 14.31-6.32-.18-10.64-4.85-10.24-10.83A11.92 11.92 0 011129 753zm55.24 8.45a15.15 15.15 0 00-4.92 3.24c-4 4.27.37 11.45 6.12 4.67zm1.35 8.91c-2.35 3.06-6.47 4.29-9.33 4.3-5.7 0-7.26-6-3.17-9 2.69-2 7.35-3.59 11-4.93-.39-2.57-.57-7-4-6.84-1.7.1-2.61 1-3.15 2.78l-2.08 6.86h-.11l-1.6-10.52 2.61.61c.92.22 1.54-.18 3-.5 6.28-1.37 10.72 1.25 11.91 8.05l1.39 7.92a3.33 3.33 0 00.7 1.69l3.38 3.38h-10zm-629.12 32.79a2.23 2.23 0 00-2.25 2.53V816l8.71-3.4v7.81h-.09l-3.05-4a1.76 1.76 0 00-2.23-.61l-3.34 1.3v9c0 1.17.58 2.53 3.1 2.54h.73a2.63 2.63 0 002.49-1.07L568 818l-1.69 11.79h-22.8l3.38-3.38a2.84 2.84 0 00.71-1.89v-17.2a2.82 2.82 0 00-.71-1.89l-3.38-3.38h14.72a16.68 16.68 0 002.61-.29l4.46-.65 1.85 12.73h-.05l-7.45-9.65a2.64 2.64 0 00-2.49-1.07zm18.61 5.85h-3.54l2.93 2.93a2.43 2.43 0 01.61 1.63v23.23h9.62l-2.92-2.92a2.44 2.44 0 01-.61-1.64v-2.43h2.67c10 0 14.54-6.49 14.59-12.29.05-4.82-3.12-8.94-8.16-8.94a9.79 9.79 0 00-9.1 6.75V809zm6.09 10.16V829a11.17 11.17 0 0010.54-11.1c.06-8.48-10.54-6.76-10.54 1.29zm35.96-7.65L614.6 809h9l5.4 16.52a4.2 4.2 0 001.06 1.57l2.7 2.68h-12.51l2.26-2.34a1.23 1.23 0 00.28-1.24l-3.88-12.49-5.35 16.53h-.12l-5.64-16.63-3.8 12.26a1.66 1.66 0 00.16 1.6l2.27 2.34h-7.13l2.7-2.68a4 4 0 001-1.47l3.53-11.43a2.75 2.75 0 00-.59-2.71l-2.41-2.51h8.92l3.55 10.75 1.73-5.54a2.45 2.45 0 00-.6-2.7m30.32 5.62a15.31 15.31 0 00-4.92 3.24c-4 4.27.37 11.45 6.12 4.67zm1.35 8.87c-2.35 3.06-6.47 4.29-9.33 4.3-5.7 0-7.26-6-3.17-9 2.69-2 7.35-3.59 11-4.93-.39-2.57-.57-7-4-6.84-1.7.1-2.61 1-3.15 2.78l-2.08 6.86H638l-1.6-10.52 2.61.61c.92.22 1.54-.18 3-.5 6.27-1.37 10.72 1.25 11.91 8.06l1.39 7.92a3.29 3.29 0 00.7 1.68l3.38 3.38h-10zm23.05-6.52c8.41-2.55 14.79-.19 14.34 10.32h-9.62l2.21-2.21c.55-.54.52-1.26.49-2.18-.11-4.2-3.09-6.6-7.42-5.17v5a2.43 2.43 0 00.61 1.63l2.92 2.93h-13.15l2.92-2.93a2.43 2.43 0 00.61-1.63v-11.65a2.43 2.43 0 00-.61-1.63l-2.92-2.96h13.15l-2.92 3a2.43 2.43 0 00-.61 1.63v4.28c3.75-1.34 5.52-4.21 5.47-8.84h8c-.91 5-7.67 8.45-13.48 9.55zM558.3 857.66l-3.38 3.34a2.82 2.82 0 00-.7 1.89v12.86l10.06-10.06v-2.8a2.82 2.82 0 00-.7-1.89l-3.38-3.38H575l-3.43 3.38a2.82 2.82 0 00-.71 1.89v17.2a2.84 2.84 0 00.71 1.89l3.38 3.37H560.2l3.38-3.37a2.84 2.84 0 00.7-1.89v-12.83l-10.06 10.07v2.8a2.84 2.84 0 00.7 1.89l3.38 3.37h-14.75l3.38-3.37a2.84 2.84 0 00.71-1.89v-17.2a2.82 2.82 0 00-.71-1.89l-3.38-3.38z"/><path class="cls-4" d="M578.37 864.63h-3.53l2.92 2.93a2.43 2.43 0 01.61 1.63v23.23H588l-2.93-2.92a2.49 2.49 0 01-.61-1.64v-2.47h2.68c10 0 14.53-6.48 14.59-12.28 0-4.82-3.12-8.94-8.17-8.94a9.79 9.79 0 00-9.1 6.75v-6.29zm6.09 10.16v9.77a11.16 11.16 0 0010.54-11.1c.06-8.46-10.54-6.72-10.54 1.33zm32.06-5.66c2.77-.11 2.52-4.53-1.49-3.67a6.64 6.64 0 00-4.65 3.67zm.89-5c4-.11 7.25 1.55 7.88 5.79h-15c-1.53 5.88 2.44 10.88 8.68 10.65 5-.18 9.53-3.78 8-9.08h.12c2.43 7.25-2.68 14.56-11.17 14.31-6.32-.18-10.64-4.85-10.24-10.84a11.94 11.94 0 0111.73-10.78zm20.9.5h-9.63l2.92 2.93a2.43 2.43 0 01.61 1.63v11.65a2.43 2.43 0 01-.61 1.63l-2.92 2.92h13.16l-2.93-2.92a2.48 2.48 0 01-.6-1.63v-6.48l8.31 2.23v4.25a2.43 2.43 0 01-.61 1.63l-2.93 2.92h13.16l-2.92-2.92a2.43 2.43 0 01-.61-1.63v-11.65a2.43 2.43 0 01.61-1.63l2.92-2.93h-13.16l2.93 2.93a2.43 2.43 0 01.61 1.63v6.54l-8.31-2.23zm30.54 17.55c0 1.87 1.75 2.55 3.55 2.48 4.59-.18 5.1-7.39 0-6.38-1.77.36-3.59 2.09-3.59 3.9m0-13v10.94c3.84-6.07 13.8-6.26 14.25-.8.47 5.65-7 6.06-10.43 6.06h-13.41l2.93-2.92a2.48 2.48 0 00.6-1.63v-11.64a2.46 2.46 0 00-.6-1.63l-2.93-2.93h13.16l-2.92 2.93a2.41 2.41 0 00-.61 1.63zm48.5-11.98c2.36 0 4.45.73 6.1.5l3.3-.45-3.06 15.27h-.11l-2.64-11.43c-.5-2.16-3.26-2.54-5.58-2.32-12.92 1.22-10.36 22.4 3.82 21.9 6.65-.24 12.88-6.73 10.89-13.74h.14c3.21 9.58-3.54 19.24-14.77 18.91-8.35-.24-14-6.41-13.53-14.32s7.63-14.27 15.44-14.32m25.41 24.98c0 1.87 1.75 2.55 3.55 2.48 4.6-.18 5.11-7.39 0-6.38-1.77.36-3.59 2.09-3.59 3.9m26.73 3.21l-2.92-2.92a2.43 2.43 0 01-.61-1.63v-11.65a2.43 2.43 0 01.61-1.63l2.92-2.93h-13.12l2.93 2.93a2.48 2.48 0 01.61 1.63v16.2zm-26.73-16.2v10.94c3.84-6.07 13.8-6.26 14.25-.8.47 5.65-7 6.06-10.43 6.06h-13.41l2.93-2.92a2.43 2.43 0 00.61-1.63v-11.65a2.41 2.41 0 00-.61-1.63l-2.93-2.93h13.16l-2.92 2.93a2.41 2.41 0 00-.61 1.63zm37.63-.19l-4.83 12.36a4.09 4.09 0 01-1 1.35l-2.7 2.67h7.11l-2.27-2.33a1.42 1.42 0 01-.17-1.57l5-12.87 4.88 13.3a1.09 1.09 0 01-.29 1.14l-2.27 2.33h12.43l-2.7-2.67a3.62 3.62 0 01-.88-1.2l-6.34-16.89h-8.58l2.23 2.14a1.92 1.92 0 01.3 2.24m27.91 13.18c0 1.87 1.75 2.55 3.54 2.48 4.6-.18 5.11-7.39.05-6.38-1.78.36-3.59 2.09-3.59 3.9m-9.63 3.21l2.92-2.92a2.43 2.43 0 00.61-1.63v-11.65a2.43 2.43 0 00-.61-1.63l-2.92-2.93h12c3.15 0 8.38.24 8.14 4.31-.31 5.27-6.16 6.33-10.53 7.42v3.77c3.84-6.07 13.8-6.26 14.25-.8.46 5.65-7 6.06-10.43 6.06zm9.63-9.85c5.19-1.42 5.89-10.09 2.24-10.13-1.12 0-2.24.88-2.24 2.8zm30.23-2.81a15.16 15.16 0 00-4.91 3.24c-4 4.27.36 11.45 6.11 4.67zm1.35 8.91c-2.35 3.06-6.47 4.29-9.33 4.3-5.7 0-7.26-6-3.17-9 2.69-2 7.35-3.59 11-4.93-.39-2.57-.57-7-4-6.84-1.7.1-2.61 1-3.15 2.78l-2.07 6.9h-.11l-1.6-10.52 2.61.61c.92.22 1.54-.18 3-.5 6.28-1.37 10.72 1.25 11.91 8.06l1.39 7.92a3.22 3.22 0 00.71 1.68l3.37 3.38h-10zm-278.48 31.62l3.38 3.38a2.82 2.82 0 01.7 1.89v9.59l-11.1-3v-6.62a2.82 2.82 0 01.7-1.89l3.38-3.38h-14.75l3.38 3.38a2.82 2.82 0 01.71 1.89v17.2a2.84 2.84 0 01-.71 1.89l-3.38 3.41h14.75l-3.38-3.37a2.84 2.84 0 01-.7-1.89v-9.46l11.1 3v6.48a2.84 2.84 0 01-.7 1.89l-3.38 3.35H576l-3.38-3.37a2.84 2.84 0 01-.71-1.89v-17.2a2.82 2.82 0 01.71-1.89l3.38-3.38zm26.13 11.47c2.76-.11 2.51-4.53-1.5-3.67a6.64 6.64 0 00-4.64 3.67zm.88-5c4-.11 7.25 1.55 7.89 5.78h-15c-1.52 5.89 2.44 10.89 8.69 10.66 5-.18 9.53-3.78 8-9.09h.17c2.43 7.26-2.68 14.57-11.17 14.32-6.32-.18-10.64-4.85-10.24-10.84a11.94 11.94 0 0111.66-10.78zm20.83 18.05c0 1.87 1.75 2.55 3.55 2.48 4.6-.18 5.11-7.39 0-6.38-1.78.36-3.6 2.09-3.6 3.9m9.22-18.39l1.49 10h-.09L613.9 922a2 2 0 00-1.82-.93h-1.2c-1.49 0-1.8.91-1.8 1.7v13c3.84-6.07 13.8-6.26 14.25-.8.47 5.65-7 6.06-10.43 6.06h-13.44l2.92-2.92a2.43 2.43 0 00.61-1.63v-11.69a2.41 2.41 0 00-.61-1.63l-2.92-2.93h12.37a15.89 15.89 0 002.49-.22zm18.25 5.34c2.77-.11 2.51-4.53-1.5-3.67a6.64 6.64 0 00-4.64 3.67zm.88-5c4-.11 7.26 1.55 7.89 5.78h-15c-1.52 5.89 2.44 10.89 8.69 10.66 5-.18 9.53-3.78 8-9.09h.12c2.44 7.26-2.68 14.57-11.17 14.32-6.32-.18-10.63-4.85-10.24-10.84a11.94 11.94 0 0111.71-10.78zm25.21.05c2.13-.06 3.6.43 4.82.3l2.72-.3-2.67 11.59h-.08l-1.74-8.75c-.31-1.56-2.89-1.78-4.55-1.66-9.45.69-7.37 15.77 3.09 15.26 5-.24 9.54-3.78 8-9.09h.11c2.43 7.26-2.68 14.57-11.17 14.32-6.32-.19-10.64-4.85-10.24-10.84a11.94 11.94 0 0111.68-10.83m21.93.45h-9.63l2.93 2.93a2.46 2.46 0 01.61 1.63v11.65a2.48 2.48 0 01-.61 1.63l-2.93 2.93H688l-2.92-2.92a2.43 2.43 0 01-.61-1.63V930l8.31 2.23v4.25a2.43 2.43 0 01-.61 1.63l-2.9 2.89h13.16l-2.92-2.92a2.43 2.43 0 01-.61-1.63v-11.66a2.41 2.41 0 01.61-1.63l2.92-2.93h-13.16l2.92 2.93a2.41 2.41 0 01.61 1.63v6.54l-8.31-2.23zm34.85 8.1a15.15 15.15 0 00-4.92 3.24c-4 4.27.37 11.45 6.12 4.67zm1.35 8.91c-2.35 3.06-6.47 4.29-9.33 4.3-5.7 0-7.26-6-3.18-9 2.7-2 7.36-3.59 11.05-4.93-.39-2.57-.57-7-4-6.84-1.7.1-2.61 1-3.16 2.78l-2.07 6.9h-.11l-1.6-10.52 2.61.61c.92.22 1.54-.18 3-.5 6.27-1.37 10.71 1.25 11.91 8.05l1.39 7.91a3.29 3.29 0 00.7 1.68l3.38 3.38h-10zm25.98-13.79c.08-3.81-6.29-3-6.14 1.42.13 3.66 6.05 3.75 6.14-1.42m0 7.51c-2.46.5-4.66 3.19-5.25 5.41a1.88 1.88 0 00.24 1.7l2.92 2.92h-10.71c1-6 4.76-9.65 12.8-10.85v-3.6c-2.31 3.71-6.15 4.7-8.86 3.8-3.67-1.2-4.09-5.71-1.59-8.09 1.92-1.83 5.22-2 7.5-2h12.58l-2.92 2.93a2.41 2.41 0 00-.61 1.63v11.65a2.43 2.43 0 00.61 1.63l2.92 2.91h-9.63zm37.63-7.51c.07-3.81-6.29-3-6.14 1.42.12 3.66 6.05 3.75 6.14-1.42m0 7.51c-2.46.5-4.66 3.19-5.25 5.41a1.88 1.88 0 00.24 1.7l2.92 2.92H771.5c1-6 4.76-9.65 12.8-10.85v-3.6c-2.31 3.71-6.15 4.7-8.86 3.8-3.67-1.2-4.09-5.71-1.59-8.09 1.92-1.83 5.22-2 7.5-2h12.58l-2.93 2.91a2.41 2.41 0 00-.61 1.63v11.65a2.43 2.43 0 00.61 1.63l2.92 2.92h-9.62zm15.63-10.73h-3.54l2.93 2.93a2.46 2.46 0 01.61 1.63V948h9.62l-2.92-2.92a2.44 2.44 0 01-.61-1.64V941h2.67c10 0 14.54-6.48 14.59-12.29.05-4.81-3.12-8.93-8.17-8.93a9.78 9.78 0 00-9.09 6.75v-6.29zm6.07 10.16v9.77a11.16 11.16 0 0010.53-11.1c.08-8.44-10.53-6.72-10.53 1.33zm35.36-7.68l-2.52-2.48h9l5.4 16.52a4.2 4.2 0 001.06 1.57L857 941h-12.5l2.27-2.33a1.21 1.21 0 00.27-1.24l-3.87-12.49-5.35 16.53h-.12l-5.7-16.65-3.77 12.24a1.66 1.66 0 00.16 1.6l2.31 2.34h-7.13l2.7-2.67a4 4 0 001-1.48l3.53-11.42a2.75 2.75 0 00-.59-2.71l-2.47-2.48h8.91l3.59 10.76 1.73-5.54a2.45 2.45 0 00-.61-2.7m45.64-2.53h-3.53l2.92 2.93a2.41 2.41 0 01.61 1.63V948h9.63l-2.93-2.92a2.49 2.49 0 01-.61-1.64V941h2.68c10 0 14.53-6.48 14.59-12.29 0-4.81-3.12-8.93-8.17-8.93a9.79 9.79 0 00-9.1 6.75v-6.29zm6 10.16v9.77a11.16 11.16 0 0010.54-11.1c.1-8.44-10.54-6.72-10.54 1.33zm29.06.29c8.41-2.56 14.78-.19 14.34 10.31h-9.63l2.21-2.2c.55-.54.52-1.26.5-2.18-.11-4.2-3.09-6.6-7.42-5.17v5a2.43 2.43 0 00.61 1.63l2.92 2.92h-13.16l2.92-2.92a2.43 2.43 0 00.61-1.63v-11.65a2.41 2.41 0 00-.61-1.63l-2.92-2.93h13.16l-2.92 2.93a2.41 2.41 0 00-.61 1.63v4.28c3.75-1.34 5.51-4.22 5.47-8.84h8c-.91 5-7.67 8.45-13.47 9.55zm31.46-2.27a15.41 15.41 0 00-4.91 3.25c-4 4.26.37 11.44 6.12 4.66zm1.36 8.91c-2.35 3.06-6.47 4.3-9.33 4.3-5.7 0-7.26-6-3.18-9 2.7-1.95 7.35-3.59 11-4.93-.39-2.57-.57-7-4-6.84-1.7.1-2.61 1-3.16 2.78l-2.07 6.86h-.11L942.48 920l2.61.62c.91.21 1.54-.19 3-.51 6.27-1.37 10.71 1.25 11.91 8.06l1.39 7.92a3.29 3.29 0 00.7 1.68l3.38 3.38h-10zm-83.04-8.91a15.41 15.41 0 00-4.91 3.25c-4 4.26.37 11.44 6.12 4.66zm1.36 8.91c-2.35 3.06-6.47 4.3-9.33 4.3-5.71 0-7.26-6-3.18-9 2.7-1.95 7.35-3.59 11-4.93-.39-2.57-.57-7-4-6.84-1.7.1-2.61 1-3.16 2.78l-2.07 6.86h-.11L860.8 920l2.61.62c.91.21 1.54-.19 3-.51 6.27-1.37 10.71 1.25 11.91 8.06l1.39 7.92a3.29 3.29 0 00.7 1.68l3.38 3.38h-10zm-314.9 31.54l-3.38 3.38a2.82 2.82 0 00-.7 1.89V987l10.06-10.07v-2.79a2.82 2.82 0 00-.7-1.89l-3.38-3.38H575l-3.38 3.38a2.82 2.82 0 00-.71 1.89v17.19a2.82 2.82 0 00.71 1.89l3.38 3.38h-14.8l3.38-3.38a2.82 2.82 0 00.7-1.89v-12.87l-10.06 10.07v2.79a2.82 2.82 0 00.7 1.89l3.38 3.38h-14.75l3.38-3.38a2.82 2.82 0 00.71-1.89v-17.19a2.82 2.82 0 00-.71-1.89l-3.38-3.38zm29.95 6.52c2.14-.06 3.6.43 4.82.3l2.72-.3-2.66 11.62H593l-1.74-8.75c-.31-1.56-2.89-1.78-4.55-1.66-9.45.7-7.36 15.77 3.09 15.26 5-.24 9.54-3.78 8-9.09h.2c2.43 7.26-2.68 14.57-11.17 14.32-6.32-.19-10.64-4.85-10.24-10.84a11.94 11.94 0 0111.68-10.83m21.6 2.92V992a2.44 2.44 0 01-.61 1.64l-2.92 2.92h13.16l-2.93-2.92A2.49 2.49 0 01616 992v-13.7a1.46 1.46 0 011.54-1.66h1.24a1.32 1.32 0 011.48 1.35l1 8.61h.12l3.69-11.49-4.9.59a12 12 0 01-1.32.1h-11.18a8.86 8.86 0 01-1.35-.1l-4.34-.59.48 11.49h.12l3.7-8.61a2.07 2.07 0 011.67-1.35h.67c.86 0 1.25.7 1.25 1.66m44.88-2.47h-3.53l2.92 2.93a2.41 2.41 0 01.61 1.63v23.23h9.63l-2.92-2.92a2.44 2.44 0 01-.61-1.64v-2.47h2.67c10 0 14.53-6.48 14.59-12.28 0-4.82-3.12-8.94-8.17-8.94a9.78 9.78 0 00-9.09 6.75v-6.29zm6.1 10.16v9.77a11.16 11.16 0 0010.53-11.1c.06-8.44-10.53-6.72-10.53 1.34zm29.96 3.79l8.31-8.31v-1.08a2.41 2.41 0 00-.61-1.63l-2.92-2.93h13.16l-2.93 2.93a2.46 2.46 0 00-.61 1.63V992a2.49 2.49 0 00.61 1.64l2.93 2.92h-13.16l2.92-2.92a2.44 2.44 0 00.61-1.64v-9.38l-8.31 8.38v1a2.44 2.44 0 00.61 1.64l2.92 2.92h-13.16l2.93-2.92a2.49 2.49 0 00.6-1.64v-11.61a2.46 2.46 0 00-.6-1.63l-2.93-2.93h9.63zm34.56-10.73c.07-3.82-6.29-2.95-6.14 1.42.12 3.66 6 3.75 6.14-1.42m0 7.51c-2.47.5-4.66 3.19-5.25 5.41a1.88 1.88 0 00.24 1.7l2.92 2.92h-10.71c.95-6 4.76-9.65 12.8-10.85v-3.6c-2.31 3.71-6.15 4.69-8.86 3.8-3.67-1.2-4.09-5.72-1.59-8.09 1.92-1.83 5.22-2 7.5-2H735l-2.92 2.93a2.41 2.41 0 00-.61 1.63V992a2.44 2.44 0 00.61 1.64l2.92 2.92h-9.63zm203.23-2.71a15.11 15.11 0 00-4.91 3.24c-4 4.27.36 11.45 6.12 4.67zm1.36 8.9c-2.35 3.07-6.47 4.3-9.33 4.31-5.71 0-7.26-6-3.18-9 2.7-2 7.35-3.59 11-4.94-.39-2.57-.58-7-4-6.83-1.69.1-2.61 1-3.15 2.78l-2.03 6.93h-.11l-1.6-10.53 2.6.62c.92.21 1.54-.18 3-.5 6.27-1.38 10.71 1.25 11.91 8.05l1.39 7.92a3.28 3.28 0 00.7 1.69l3.38 3.38h-10zM567.54 82l-2.75-2.74h10l7.56 23.14c.24.75.56.91 1.15 1.49l3.13 3.1h-14.34l2.62-2.7a1.34 1.34 0 00.34-1.36l-5.4-17.4-7.14 21.92h-.16L555 85.4l-5.22 17a1.8 1.8 0 00.28 2l2.54 2.6h-8.45l3.13-3.1a4.62 4.62 0 001.22-1.77l5-16.47a3.66 3.66 0 00-.74-3.88l-2.52-2.51h9.63l5.41 15.8 3-9.31a3.25 3.25 0 00-.78-3.75m29.67 8.73c2.76-.11 2.51-4.53-1.5-3.67a6.64 6.64 0 00-4.67 3.67zm.88-5c4-.1 7.26 1.56 7.89 5.79H591c-1.52 5.89 2.44 10.89 8.69 10.66 5-.18 9.53-3.78 8-9.09h.12c2.44 7.26-2.68 14.57-11.17 14.32-6.32-.18-10.63-4.85-10.24-10.84a12 12 0 0111.65-10.8zm25.23.05c2.14-.06 3.61.43 4.82.3l2.72-.3-2.66 11.59h-.08l-1.74-8.75c-.31-1.56-2.9-1.78-4.56-1.66-9.45.7-7.36 15.77 3.09 15.26 5-.24 9.55-3.78 8-9.08h.13c2.43 7.25-2.68 14.56-11.18 14.31-6.32-.18-10.63-4.85-10.23-10.84a11.92 11.92 0 0111.67-10.83M645 88.75v13.7a2.44 2.44 0 01-.61 1.64l-2.92 2.91h13.15l-2.92-2.92a2.44 2.44 0 01-.61-1.64V88.75a1.46 1.46 0 011.54-1.66h1.24a1.32 1.32 0 011.48 1.35l1 8.61h.12l3.69-11.49-4.9.59c-.54.06-.94.09-1.33.1H642.8a10.35 10.35 0 01-1.35-.1l-4.34-.59.48 11.49h.11l3.71-8.61a2.07 2.07 0 011.67-1.35h.67c.85 0 1.25.7 1.25 1.66m57.62 17.41h10.73l-5.78-16.24-5.94 14.35c-.46 1.1-.37 1.89 1 1.89m.87-19.93h9.12l7.64 19.93h3.4l-3.49 8.56H720l-1.51-6.64c-.19-.85-1-1.08-1.95-1.08h-13a2.06 2.06 0 00-2 1.08l-4 6.64h-.12l-.47-8.56H700l6.28-15.38a2 2 0 00-.5-2.35zm32.55 3.94l5.2 8.49 4.06-8.49a1.28 1.28 0 00-.17-1.6l-2.26-2.34h7.51l-3 2.68a4 4 0 00-.83 1.1l-7.28 15.2c-1.66 3.48-5.51 10.63-12.41 8.34l-1.36-13.42h.14l5.32 8.64a3 3 0 004.13 1c1.07-.66 2.46-3.34 3.22-4.92L727 86.23h11.52l-2.26 2.34a1.31 1.31 0 00-.17 1.6m24.91-.02c1.17 1.63 2.46 3.15 3.69 4.72l3.03-4.87a1.2 1.2 0 00-.08-1.42l-2-2.34h7.85L770 88.91a6.07 6.07 0 00-1.33 1.57l-3.35 5.29q4.41 5.61 8.85 11.23h-11.44l1.9-2.34a1.3 1.3 0 00-.09-1.59c-4.63-6-2.31-2.94-4.45-5.65l-3.66 5.8a1.17 1.17 0 00.08 1.42l2 2.34h-7.85l3.44-2.68a6.18 6.18 0 001.32-1.56l3.94-6.22-8.12-10.3h11.52l-1.9 2.34a1.3 1.3 0 00.07 1.58m19.63-1.95c2.29-1.26 5.7.12 9.61 6.16s3.6 9.45 1.31 10.71-5.73-.16-9.61-6.15-3.61-9.46-1.31-10.72m-.21-1c5.58-3 12.64-1.21 15.77 4s1.15 11.81-4.43 14.81-12.64 1.22-15.77-4-1.15-11.77 4.43-14.77zm28.53 16.6c0 1.87 1.75 2.56 3.55 2.49 4.6-.18 5.11-7.4 0-6.38-1.77.36-3.59 2.08-3.59 3.89m-9.59 3.21l2.93-2.92a2.49 2.49 0 00.61-1.64V90.81a2.49 2.49 0 00-.61-1.64l-2.93-2.92h12c3.15 0 8.38.24 8.15 4.3-.31 5.27-6.17 6.34-10.54 7.43v3.76c3.84-6.07 13.8-6.25 14.25-.79.47 5.65-7 6.06-10.43 6.06zm9.63-9.86c5.19-1.41 5.9-10.08 2.25-10.12-1.12 0-2.25.88-2.25 2.8zM835 86.25h-9.63l2.92 2.92a2.44 2.44 0 01.61 1.64v11.64a2.44 2.44 0 01-.61 1.64l-2.9 2.91h13.16l-2.92-2.92a2.44 2.44 0 01-.61-1.64V96l8.31 2.23v4.24a2.44 2.44 0 01-.61 1.64L839.8 107H853l-3-2.91a2.44 2.44 0 01-.61-1.64V90.81a2.44 2.44 0 01.61-1.64l3-2.92h-13.2l2.92 2.92a2.44 2.44 0 01.61 1.64v6.53L835 95.12zm26.15 1.94c2.3-1.26 5.7.12 9.61 6.16s3.61 9.45 1.32 10.71-5.73-.16-9.62-6.15-3.6-9.46-1.31-10.72m-.2-1c5.58-3 12.64-1.21 15.77 4s1.15 11.81-4.43 14.81-12.64 1.22-15.77-4-1.15-11.77 4.48-14.77zm29.35 13.01l8.31-8.32v-1.07a2.44 2.44 0 00-.61-1.64l-2.92-2.92h13.16l-2.92 2.92a2.44 2.44 0 00-.61 1.64v11.64a2.44 2.44 0 00.61 1.64l2.92 2.92h-13.16l2.92-2.92a2.44 2.44 0 00.61-1.64v-9.38l-8.31 8.31v1.07a2.44 2.44 0 00.61 1.64l2.92 2.92h-13.16l2.93-2.92a2.44 2.44 0 00.61-1.64V90.81a2.44 2.44 0 00-.61-1.64l-2.93-2.92h9.63zm6.09-23.82c.35 2.72-2.61 6.95-8 5.78l-.16.73c4.94 1.42 8.66.54 12.48-2.93zm36.75 9.41c2.13-.06 3.6.43 4.82.3l2.72-.3L938 97.38h-.08l-1.74-8.75c-.31-1.56-2.89-1.78-4.55-1.66-9.45.7-7.36 15.77 3.09 15.26 5-.24 9.54-3.78 8-9.08h.11c2.43 7.25-2.68 14.56-11.17 14.31-6.32-.18-10.64-4.85-10.24-10.84a11.94 11.94 0 0111.68-10.83m22.75 14.41l8.31-8.32v-1.07a2.44 2.44 0 00-.61-1.64l-2.92-2.92h13.16l-2.93 2.92a2.44 2.44 0 00-.61 1.64v11.64a2.44 2.44 0 00.61 1.64l2.93 2.92h-13.16l2.92-2.92a2.44 2.44 0 00.61-1.64v-9.38l-8.31 8.31v1.07a2.44 2.44 0 00.61 1.64l2.92 2.92h-13.16l2.92-2.92a2.44 2.44 0 00.61-1.64V90.81a2.44 2.44 0 00-.61-1.64l-2.92-2.92h9.63zm28.67-9.58L979.69 103a4.1 4.1 0 01-1 1.35L976 107h7.11l-2.26-2.34a1.4 1.4 0 01-.18-1.56l5-12.87 4.89 13.3a1.08 1.08 0 01-.3 1.13l-2.19 2.34h12.43l-2.7-2.68a3.51 3.51 0 01-.89-1.19l-6.33-16.89H982l2.24 2.14a1.89 1.89 0 01.29 2.23m27.22 13.18c0 1.87 1.75 2.56 3.55 2.49 4.59-.18 5.1-7.4 0-6.38-1.78.36-3.59 2.08-3.59 3.89m26.73 3.22l-2.93-2.92a2.49 2.49 0 01-.61-1.64V90.81a2.49 2.49 0 01.61-1.64l2.93-2.92h-13.16l2.92 2.92a2.44 2.44 0 01.61 1.64V107zm-26.73-16.2v10.93c3.84-6.07 13.8-6.25 14.25-.79.46 5.65-7 6.06-10.43 6.06h-13.45l2.92-2.92a2.44 2.44 0 00.61-1.64V90.81a2.44 2.44 0 00-.61-1.64l-2.92-2.92h13.16l-2.92 2.92a2.44 2.44 0 00-.57 1.64zm-343.29-2.62c2.29-1.26 5.7.12 9.61 6.16s3.6 9.45 1.31 10.71-5.73-.16-9.61-6.15-3.61-9.46-1.31-10.72m-.21-1c5.58-3 12.64-1.21 15.77 4s1.15 11.81-4.43 14.81-12.64 1.22-15.77-4-1.15-11.77 4.43-14.77zM545.19 190.47l3.38 3.37a2.84 2.84 0 01.7 1.89v17.2a2.82 2.82 0 01-.7 1.89l-3.38 3.38h14.75l-3.38-3.38a2.82 2.82 0 01-.71-1.89v-21.38H567v21.38a2.82 2.82 0 01-.71 1.89l-3.37 3.38h14.74l-3.38-3.38a2.82 2.82 0 01-.7-1.89v-17.2a2.84 2.84 0 01.7-1.89l3.38-3.37zm44.59 11.47c2.77-.11 2.51-4.53-1.5-3.67a6.64 6.64 0 00-4.64 3.67zm.88-5c4-.1 7.26 1.55 7.89 5.79h-15c-1.52 5.89 2.44 10.89 8.69 10.66 5-.19 9.53-3.78 8-9.09h.13c2.43 7.26-2.69 14.57-11.18 14.32-6.32-.19-10.63-4.85-10.24-10.84A12 12 0 01590.66 197zm14.08.5h-3.54l2.93 2.92a2.49 2.49 0 01.61 1.64v23.23h9.62l-2.92-2.93a2.41 2.41 0 01-.61-1.63v-2.47h2.67c10 0 14.54-6.48 14.59-12.29 0-4.82-3.12-8.93-8.17-8.93a9.76 9.76 0 00-9.09 6.75v-6.29zm6.09 10.16v9.77a11.16 11.16 0 0010.53-11.1c.06-8.44-10.53-6.72-10.53 1.33zm34.23-7.69l-2.53-2.47h9l5.4 16.52a4.28 4.28 0 001.06 1.57l2.71 2.67h-12.5l2.26-2.33a1.23 1.23 0 00.28-1.24l-3.88-12.5-5.34 16.53h-.12L635.73 202 632 214.26a1.68 1.68 0 00.17 1.61l2.26 2.33h-7.13l2.7-2.67a4 4 0 001-1.48l3.53-11.42a2.8 2.8 0 00-.58-2.72l-2.48-2.47h8.92l3.55 10.72 1.73-5.54a2.47 2.47 0 00-.6-2.71M673 197c2.14 0 3.61.44 4.83.3l2.71-.29-2.66 11.59h-.08l-1.74-8.75c-.31-1.56-2.89-1.78-4.55-1.66-9.46.69-7.37 15.77 3.08 15.26 5-.25 9.55-3.78 8-9.09h.11c2.43 7.26-2.68 14.57-11.17 14.32-6.32-.19-10.64-4.85-10.24-10.84A12 12 0 01673 197m22.55 10.89c8.41-2.56 14.79-.2 14.34 10.31h-9.63l2.22-2.2c.55-.55.51-1.26.49-2.19-.11-4.19-3.09-6.59-7.42-5.17v5a2.44 2.44 0 00.61 1.64l2.92 2.92h-13.16l2.93-2.92a2.44 2.44 0 00.61-1.64V202a2.44 2.44 0 00-.61-1.64l-2.93-2.92h13.16l-2.92 2.92a2.44 2.44 0 00-.61 1.64v4.27c3.75-1.34 5.52-4.21 5.47-8.83h8c-.91 5-7.67 8.45-13.48 9.55zm99.67 0c8.41-2.56 14.79-.2 14.35 10.31h-9.63l2.21-2.2c.55-.55.52-1.26.49-2.19-.11-4.19-3.09-6.59-7.42-5.17v5a2.49 2.49 0 00.61 1.64l2.93 2.92H785.6l2.92-2.92a2.44 2.44 0 00.61-1.64V202a2.44 2.44 0 00-.61-1.64l-2.92-2.92h13.16l-2.93 2.92a2.49 2.49 0 00-.61 1.64v4.27c3.75-1.34 5.52-4.21 5.48-8.83h8c-.91 5-7.67 8.45-13.48 9.55zm20.72-9.99h-3.54l2.93 2.93a2.48 2.48 0 01.61 1.63v23.23h9.62l-2.92-2.92a2.44 2.44 0 01-.61-1.64v-2.47h2.67c10 0 14.54-6.48 14.59-12.28.05-4.82-3.12-8.94-8.17-8.94a9.78 9.78 0 00-9.09 6.75v-6.29zm6.06 10.16v9.77a11.16 11.16 0 0010.53-11.1c.09-8.44-10.53-6.73-10.53 1.33zm34.33-2.61a15.41 15.41 0 00-4.91 3.25c-4 4.26.37 11.45 6.12 4.66zm1.36 8.91c-2.35 3.06-6.47 4.3-9.33 4.3-5.71 0-7.26-6-3.18-9 2.7-1.95 7.35-3.58 11.05-4.93-.39-2.57-.57-7-4-6.84-1.7.1-2.61 1-3.16 2.78l-2.07 6.9h-.11l-1.6-10.52 2.61.62c.91.21 1.54-.19 3-.51 6.27-1.37 10.71 1.25 11.91 8.06l1.39 7.92a3.37 3.37 0 00.7 1.69l3.38 3.37h-10zm-104.85-2.97l8.32-8.31V202a2.49 2.49 0 00-.61-1.64l-2.93-2.92h13.16l-2.92 2.92a2.44 2.44 0 00-.61 1.64v11.64a2.44 2.44 0 00.61 1.64l2.92 2.92h-13.16l2.93-2.92a2.49 2.49 0 00.61-1.64v-9.38l-8.32 8.31v1.07a2.49 2.49 0 00.61 1.64l2.93 2.92h-13.16l2.92-2.92a2.44 2.44 0 00.61-1.64V202a2.44 2.44 0 00-.61-1.64l-2.92-2.92h9.62zm6.09-23.82c.35 2.72-2.61 6.95-8 5.78l-.17.73c4.94 1.42 8.66.54 12.48-2.93zm-36.51 23.82l8.32-8.31V202a2.49 2.49 0 00-.61-1.64l-2.93-2.92h13.16l-2.92 2.92a2.44 2.44 0 00-.61 1.64v11.64a2.44 2.44 0 00.61 1.64l2.92 2.92H727.2l2.93-2.92a2.49 2.49 0 00.61-1.64v-9.38l-8.32 8.31v1.07a2.49 2.49 0 00.61 1.64l2.97 2.92h-13.2l2.92-2.92a2.44 2.44 0 00.61-1.64V202a2.44 2.44 0 00-.61-1.64l-2.92-2.92h9.62zm157.41 0l8.31-8.31V202a2.44 2.44 0 00-.61-1.64l-2.92-2.92h13.16l-2.92 2.92a2.44 2.44 0 00-.61 1.64v11.64a2.44 2.44 0 00.61 1.64l2.92 2.92h-13.16l2.92-2.92a2.44 2.44 0 00.61-1.64v-9.38l-8.31 8.31v1.07a2.44 2.44 0 00.61 1.64l2.92 2.92H870.2l2.93-2.92a2.44 2.44 0 00.61-1.64V202a2.44 2.44 0 00-.61-1.64l-2.93-2.92h9.63zm6.09-23.82c.35 2.72-2.61 6.95-8 5.78l-.16.73c4.94 1.42 8.66.54 12.48-2.93zm136.3 179.22c2.29-1.26 5.7.12 9.61 6.15s3.61 9.46 1.31 10.72-5.72-.16-9.61-6.16-3.6-9.45-1.31-10.71m-.2-1c5.58-3 12.64-1.21 15.77 4s1.15 11.82-4.43 14.81-12.64 1.22-15.77-4-1.15-11.77 4.41-14.77zm-19.57 19.81l-3.37-3.38a2.82 2.82 0 01-.71-1.89v-4h2.63c10 0 13.21-4.22 13.26-10 .05-4.81-2.77-8.92-7.8-8.92a8 8 0 00-8.13 5.53v-5.07h-10.62l3.38 3.37a2.84 2.84 0 01.7 1.9v17.19a2.82 2.82 0 01-.7 1.89l-3.38 3.38zm-4.08-18.81v8.72c5.36-.15 8.65-2.56 8.7-8.83.05-8.42-8.7-7.92-8.7.11zm46.39 17.98h10.73l-5.78-16.24-5.94 14.35c-.46 1.1-.37 1.88 1 1.89m.87-19.93h9.12l7.64 19.93h3.4l-3.5 8.56h-.11l-1.51-6.64c-.19-.85-1.05-1.09-2-1.09h-13a2.07 2.07 0 00-2 1.09l-4 6.64h-.12l-.47-8.56h2.89l6.28-15.38a2 2 0 00-.5-2.35zm32.36 13.95l8.31-8.31v-1.08a2.44 2.44 0 00-.6-1.63l-2.93-2.93h13.16l-2.92 2.93a2.39 2.39 0 00-.61 1.63V381a2.44 2.44 0 00.61 1.64l2.92 2.92h-13.16l2.93-2.92a2.49 2.49 0 00.6-1.64v-9.38L1078 380v1a2.44 2.44 0 00.61 1.64l2.93 2.92h-13.16l2.92-2.92a2.44 2.44 0 00.61-1.64v-11.6a2.39 2.39 0 00-.61-1.63l-2.92-2.93h9.62zm31.78-13.95h-9.63l2.92 2.93a2.39 2.39 0 01.61 1.63V381a2.44 2.44 0 01-.61 1.64l-2.92 2.92h13.16l-2.92-2.92a2.44 2.44 0 01-.61-1.64v-6.47l8.31 2.23V381a2.44 2.44 0 01-.61 1.64l-2.92 2.92h13.16l-2.93-2.92a2.49 2.49 0 01-.61-1.64v-11.6a2.44 2.44 0 01.61-1.63l2.93-2.93h-13.16l2.92 2.93a2.39 2.39 0 01.61 1.63v6.53l-8.31-2.22zm-531.71 56.95c2.29-1.26 5.7.11 9.61 6.15s3.6 9.46 1.31 10.72-5.73-.16-9.61-6.16-3.6-9.45-1.31-10.71m-.21-1c5.58-3 12.64-1.22 15.78 4s1.14 11.81-4.44 14.81-12.64 1.22-15.77-4-1.15-11.78 4.43-14.77zM558.3 440.6l-3.38-3.38a2.82 2.82 0 01-.7-1.89v-4h2.67c10 0 13.2-4.22 13.26-10 0-4.81-2.77-8.91-7.81-8.91a8 8 0 00-8.12 5.52v-5.06h-10.67l3.38 3.38a2.82 2.82 0 01.71 1.89v17.2a2.82 2.82 0 01-.71 1.89l-3.38 3.38zm-4.08-18.81v8.71c5.35-.15 8.65-2.55 8.69-8.82.09-8.43-8.69-7.92-8.69.11zm46.39 17.97h10.73l-5.79-16.23-5.94 14.35c-.45 1.1-.37 1.88 1 1.88m.87-19.92h9.12l7.63 19.92h3.41l-3.5 8.56H618l-1.5-6.63c-.2-.86-1-1.09-2-1.09h-13a2.07 2.07 0 00-2 1.09l-4 6.63h-.12l-.47-8.56H598l6.28-15.37a2.07 2.07 0 00-.5-2.36zm32.32 13.94l8.31-8.31v-1.07a2.44 2.44 0 00-.61-1.64l-2.92-2.92h13.16l-2.93 2.92a2.49 2.49 0 00-.6 1.64V436a2.49 2.49 0 00.6 1.64l2.93 2.92h-13.16l2.92-2.92a2.44 2.44 0 00.61-1.64v-9.39L633.8 435v1a2.44 2.44 0 00.61 1.64l2.92 2.92h-13.16l2.93-2.92a2.49 2.49 0 00.61-1.64v-11.6a2.49 2.49 0 00-.61-1.64l-2.93-2.92h9.63zm31.82-13.94H656l2.92 2.92a2.44 2.44 0 01.61 1.64V436a2.44 2.44 0 01-.61 1.64L656 440.6h13.16l-2.93-2.92a2.49 2.49 0 01-.61-1.64v-6.47l8.32 2.23v4.2a2.49 2.49 0 01-.61 1.64l-2.93 2.92h13.16l-2.92-2.92A2.44 2.44 0 01680 436v-11.6a2.44 2.44 0 01.61-1.64l2.92-2.92H670.4l2.93 2.92a2.49 2.49 0 01.61 1.64v6.53l-8.32-2.23zm34.38 8.01a15.3 15.3 0 00-4.91 3.25c-4 4.26.36 11.44 6.12 4.66zm1.36 8.91c-2.35 3.06-6.47 4.3-9.33 4.3-5.71 0-7.26-6-3.18-9 2.7-2 7.35-3.59 11-4.93-.39-2.57-.58-7-4-6.84-1.69.1-2.61 1-3.15 2.78l-2.05 6.93h-.11l-1.6-10.52 2.6.61c.92.22 1.54-.18 3-.5 6.27-1.37 10.71 1.25 11.91 8.06l1.39 7.92a3.21 3.21 0 00.7 1.68l3.38 3.38h-10zm-143.06 31.7l-3.38 3.38a2.82 2.82 0 00-.7 1.89v6.53c5-2.26 7.37-5.83 7.48-11.8h8c-.8 7.11-6.42 10.31-15.52 12.76v1.4c11.18-2.92 17.36.55 16.68 13.58h-11l3-2.94c.73-.73.72-1.69.65-2.92-.3-5.43-3.86-7.8-9.27-6.6v7.19a2.82 2.82 0 00.7 1.89l3.38 3.38h-14.77l3.38-3.38a2.82 2.82 0 00.71-1.89v-17.2a2.82 2.82 0 00-.71-1.89l-3.38-3.38zm21.57 8.93c2.29-1.26 5.7.11 9.61 6.15s3.6 9.46 1.31 10.71-5.73-.15-9.61-6.15-3.6-9.45-1.31-10.71m-.2-1c5.57-3 12.64-1.22 15.77 4s1.14 11.81-4.43 14.81-12.65 1.21-15.78-4-1.14-11.78 4.44-14.77zm25.61 3.42l-4.83 12.36a4.09 4.09 0 01-1 1.35l-2.7 2.68h7.11l-2.27-2.34a1.42 1.42 0 01-.17-1.57l5-12.86 4.88 13.3a1.08 1.08 0 01-.29 1.13l-2.27 2.34h12.43l-2.7-2.68a3.58 3.58 0 01-.88-1.19l-6.34-16.89h-8.58l2.23 2.13a1.92 1.92 0 01.3 2.24m22.08-2.42c2.29-1.26 5.7.11 9.61 6.15s3.6 9.46 1.31 10.71-5.73-.15-9.61-6.15-3.61-9.45-1.31-10.71m-.21-1c5.58-3 12.64-1.22 15.77 4s1.15 11.81-4.43 14.81-12.64 1.21-15.77-4-1.15-11.78 4.43-14.77zm29.56 9.5c8.4-2.56 14.78-.2 14.34 10.31h-9.63l2.21-2.2c.55-.55.52-1.26.49-2.19-.1-4.19-3.09-6.59-7.41-5.17v5a2.49 2.49 0 00.6 1.64l2.93 2.92H647l2.92-2.92a2.44 2.44 0 00.61-1.64V480a2.44 2.44 0 00-.61-1.64l-2.92-2.92h13.16l-2.93 2.92a2.49 2.49 0 00-.6 1.64v4.27c3.74-1.34 5.51-4.21 5.47-8.83h8c-.91 5-7.67 8.44-13.47 9.55zm23.16-8.5c2.29-1.26 5.7.11 9.61 6.15s3.61 9.46 1.31 10.71-5.72-.15-9.61-6.15-3.6-9.45-1.31-10.71m-.2-1c5.58-3 12.64-1.22 15.77 4s1.15 11.81-4.43 14.81-12.64 1.21-15.77-4-1.16-11.78 4.43-14.77zm26.03 3.42l-4.83 12.36a4.2 4.2 0 01-1 1.35l-2.71 2.68h7.11l-2.19-2.34a1.42 1.42 0 01-.18-1.57l5.05-12.86 4.89 13.3a1.11 1.11 0 01-.3 1.13l-2.26 2.34h12.4l-2.7-2.68a3.61 3.61 0 01-.89-1.19l-6.33-16.89h-8.59l2.24 2.13a1.91 1.91 0 01.29 2.24M734.31 493c0 1.87 1.75 2.56 3.55 2.49 4.59-.18 5.1-7.4 0-6.38-1.77.36-3.59 2.08-3.59 3.89m0-13v10.93c3.84-6.07 13.8-6.25 14.25-.79.47 5.64-7 6.06-10.43 6.06h-13.41l2.93-2.92a2.49 2.49 0 00.61-1.64V480a2.49 2.49 0 00-.61-1.64l-2.93-2.92h13.16l-2.92 2.92a2.44 2.44 0 00-.61 1.64zm25.73-4.56h-9.63l2.93 2.92a2.49 2.49 0 01.6 1.64v11.64a2.49 2.49 0 01-.6 1.64l-2.93 2.92h13.16l-2.92-2.92a2.44 2.44 0 01-.61-1.64v-6.47l8.31 2.23v4.24a2.44 2.44 0 01-.61 1.64l-2.92 2.92H778l-3-2.92a2.49 2.49 0 01-.61-1.64V480a2.49 2.49 0 01.61-1.64l2.93-2.92H764.8l2.92 2.92a2.44 2.44 0 01.61 1.64v6.53L760 484.3zm34.08 3.22c.07-3.82-6.29-3-6.14 1.42.12 3.65 6 3.74 6.14-1.42m0 7.5c-2.47.5-4.67 3.19-5.26 5.41a1.93 1.93 0 00.24 1.71l2.94 2.92h-10.72c.94-6 4.75-9.65 12.8-10.86v-3.59c-2.32 3.71-6.16 4.69-8.87 3.8-3.67-1.21-4.09-5.72-1.59-8.1 1.92-1.83 5.22-2 7.5-2h12.58l-2.92 2.92a2.44 2.44 0 00-.61 1.64v11.64a2.44 2.44 0 00.61 1.64l2.92 2.92h-9.62zm35.23-6.82c1.16 1.62 2.46 3.15 3.69 4.72l3.07-4.88a1.17 1.17 0 00-.08-1.42l-2-2.34h7.85l-3.44 2.68a6.18 6.18 0 00-1.32 1.56l-3.35 5.3q4.39 5.61 8.85 11.22H831.1l1.9-2.34a1.3 1.3 0 00-.08-1.6c-4.64-6-2.32-2.93-4.46-5.65l-3.66 5.81a1.2 1.2 0 00.08 1.42l2 2.34H819l3.44-2.68a6 6 0 001.33-1.56l3.93-6.23-8.12-10.29h11.52l-1.9 2.34a1.31 1.31 0 00.08 1.58m18.85-3.88h-3.54l2.93 2.92a2.44 2.44 0 01.61 1.64v23.22h9.62l-2.92-2.92a2.44 2.44 0 01-.61-1.64v-2.46h2.68c10 0 14.53-6.49 14.58-12.29 0-4.82-3.12-8.93-8.16-8.93a9.78 9.78 0 00-9.1 6.75v-6.29zm6.09 10.15v9.77a11.16 11.16 0 0010.54-11.1c.06-8.44-10.54-6.72-10.54 1.33zm33.04-2.14a15.38 15.38 0 00-4.91 3.24c-4 4.27.36 11.45 6.12 4.67zm1.36 8.91c-2.35 3.06-6.47 4.3-9.33 4.3-5.71 0-7.26-6-3.18-9 2.7-1.95 7.35-3.59 11-4.93-.39-2.57-.57-7-4-6.84-1.7.1-2.61 1-3.16 2.78l-2.07 6.86h-.11l-1.6-10.52 2.61.61c.91.22 1.54-.18 3-.5 6.27-1.37 10.71 1.25 11.91 8.06l1.39 7.92a3.21 3.21 0 00.7 1.68l3.38 3.38h-10zm29.67-14.47l-2.52-2.47h9l5.4 16.52a4.28 4.28 0 001.06 1.57l2.7 2.67h-12.5l2.27-2.33a1.21 1.21 0 00.27-1.24l-3.87-12.49-5.35 16.52h-.12L909 480l-3.77 12.24a1.64 1.64 0 00.16 1.6l2.27 2.33h-7.16l2.7-2.67a4.12 4.12 0 001-1.48l3.53-11.42a2.75 2.75 0 00-.58-2.72l-2.47-2.47h8.91l3.56 10.72 1.72-5.54a2.45 2.45 0 00-.6-2.71m30.94 5.57a15.27 15.27 0 00-4.91 3.24c-4 4.27.36 11.45 6.11 4.67zm1.36 8.91a12.3 12.3 0 01-9.34 4.3c-5.7 0-7.26-6-3.17-9 2.7-1.95 7.35-3.59 11.05-4.93-.39-2.57-.58-7-4-6.84-1.69.1-2.61 1-3.15 2.78l-2.08 6.86h-.1l-1.61-10.52 2.61.61c.92.22 1.54-.18 3-.5 6.27-1.37 10.71 1.25 11.9 8.06l1.4 7.92a3.21 3.21 0 00.7 1.68l3.38 3.38h-10z"/><path class="cls-5" d="M967.87 485.28h30.68v1.09h-30.68z"/><path class="cls-4" d="M1035.5 477.39c2.29-1.26 5.7.11 9.61 6.15s3.6 9.46 1.31 10.71-5.73-.15-9.61-6.15-3.6-9.45-1.31-10.71m-.21-1c5.58-3 12.64-1.22 15.78 4s1.14 11.81-4.44 14.81-12.64 1.21-15.77-4-1.15-11.78 4.43-14.77zm22.31-.95h-3.53l2.92 2.92a2.44 2.44 0 01.61 1.64v23.22h9.63l-2.93-2.92a2.49 2.49 0 01-.61-1.64v-2.46h2.68c10 0 14.53-6.49 14.59-12.29 0-4.82-3.12-8.93-8.17-8.93a9.78 9.78 0 00-9.1 6.75v-6.29zm6.09 10.15v9.77a11.15 11.15 0 0010.54-11.1c.06-8.44-10.54-6.72-10.54 1.33zM1146 475c2.13-.05 3.6.44 4.82.3l2.72-.29-2.67 11.59h-.08l-1.74-8.76c-.31-1.55-2.89-1.77-4.55-1.65-9.45.69-7.36 15.76 3.09 15.26 5-.25 9.54-3.79 8-9.09h.11c2.43 7.25-2.68 14.56-11.17 14.32-6.32-.19-10.64-4.86-10.24-10.84A12 12 0 011146 475m47.82 18c0 1.87 1.75 2.56 3.54 2.49 4.6-.18 5.11-7.4.05-6.38-1.78.36-3.59 2.08-3.59 3.89m0-13v10.93c3.84-6.07 13.8-6.25 14.25-.79.46 5.64-7 6.06-10.43 6.06h-13.45l2.92-2.92a2.44 2.44 0 00.61-1.64V480a2.44 2.44 0 00-.61-1.64l-2.92-2.92h13.16l-2.93 2.92a2.49 2.49 0 00-.6 1.64zm-107.4 15.36h10.73l-5.79-16.23-5.94 14.35c-.45 1.1-.37 1.88 1 1.88m.87-19.92h9.12l7.63 19.92h3.41l-3.5 8.56h-.12l-1.5-6.63c-.2-.86-1-1.09-2-1.09h-13a2.07 2.07 0 00-2 1.09l-4 6.63h-.12l-.47-8.56h2.9L1090 480a2.07 2.07 0 00-.5-2.36zm26.41 1.95c2.29-1.26 5.7.11 9.61 6.15s3.6 9.46 1.31 10.71-5.73-.15-9.61-6.15-3.61-9.45-1.31-10.71m-.21-1c5.58-3 12.64-1.22 15.77 4s1.15 11.81-4.43 14.81-12.64 1.21-15.77-4-1.15-11.78 4.43-14.77zm53.17 1.54v13.71a2.44 2.44 0 01-.61 1.64l-2.92 2.92h13.16l-2.92-2.92a2.44 2.44 0 01-.61-1.64v-13.71a1.46 1.46 0 011.54-1.66h1.23a1.33 1.33 0 011.48 1.36l1 8.61h.12l3.69-11.5-4.9.59a12.27 12.27 0 01-1.32.11h-11.19a10.52 10.52 0 01-1.35-.11l-4.34-.59.48 11.5h.12l3.7-8.61a2.06 2.06 0 011.68-1.36h.67c.85 0 1.24.71 1.24 1.66m-161.29-2.49l2.92 2.92a2.44 2.44 0 01.61 1.64v11.64a2.44 2.44 0 01-.61 1.64l-2.92 2.92h13.16l-2.93-2.92a2.49 2.49 0 01-.61-1.64v-13.49c0-.87.44-1.87 2.33-1.88h.82a1.85 1.85 0 011.82.93l5.71 9.6h.09l-1.4-12.52-4 1a6.37 6.37 0 01-1.79.22zm246.01 1.95c2.29-1.26 5.7.11 9.61 6.15s3.6 9.46 1.31 10.71-5.73-.15-9.61-6.15-3.6-9.45-1.31-10.71m-.21-1c5.58-3 12.64-1.22 15.78 4s1.14 11.81-4.44 14.81-12.64 1.21-15.77-4-1.15-11.78 4.43-14.77zm22.22-.95h-3.53l2.92 2.92a2.44 2.44 0 01.61 1.64v23.22h9.66l-3-2.92a2.49 2.49 0 01-.61-1.64v-2.46h2.68c10 0 14.53-6.49 14.59-12.29 0-4.82-3.12-8.93-8.17-8.93a9.78 9.78 0 00-9.1 6.75v-6.29zm6.09 10.15v9.77a11.15 11.15 0 0010.54-11.1c.03-8.44-10.54-6.72-10.54 1.33zm26.83-8.2c2.3-1.26 5.71.11 9.62 6.15s3.6 9.46 1.31 10.71-5.73-.15-9.61-6.15-3.61-9.45-1.32-10.71m-.2-1c5.58-3 12.64-1.22 15.77 4s1.15 11.81-4.43 14.81-12.64 1.21-15.77-4-1.15-11.78 4.43-14.77zm-84.57-.95l2.93 2.92a2.44 2.44 0 01.58 1.64v11.64a2.44 2.44 0 01-.61 1.64l-2.93 2.92h13.16l-2.92-2.92a2.44 2.44 0 01-.61-1.64v-13.49c0-.87.44-1.87 2.33-1.88h.82a1.82 1.82 0 011.81.93l5.71 9.6h.1l-1.4-12.52-4 1a6.44 6.44 0 01-1.8.22zm107.83 19.92h10.73l-5.79-16.23-5.94 14.35c-.45 1.09-.37 1.88 1 1.88m.87-19.92h9.12l7.63 19.92h3.41l-3.5 8.56h-.12l-1.5-6.64c-.2-.85-1.06-1.08-2-1.08h-13a2.06 2.06 0 00-2 1.08l-4 6.64h-.12l-.47-8.56h2.9l6.28-15.38a2.06 2.06 0 00-.5-2.35zm34.7 8.01a15.27 15.27 0 00-4.91 3.24c-4 4.27.36 11.45 6.11 4.67zm1.35 8.91c-2.35 3.06-6.47 4.3-9.33 4.3-5.7 0-7.26-6-3.17-9 2.69-1.95 7.35-3.59 11-4.93-.39-2.57-.57-7-4-6.84-1.7.1-2.61 1-3.15 2.78l-2.08 6.86h-.11l-1.6-10.52 2.61.61c.92.22 1.54-.18 3-.5 6.28-1.37 10.72 1.25 11.91 8.06l1.39 7.92a3.22 3.22 0 00.71 1.68l3.37 3.38h-10zM558.3 635.26l-3.38 3.38a2.82 2.82 0 00-.7 1.89v6.53c5-2.27 7.37-5.84 7.48-11.8h8c-.8 7.11-6.42 10.3-15.52 12.75v1.41c11.18-2.92 17.36.55 16.68 13.58h-11l3-3c.73-.72.72-1.68.65-2.92-.3-5.43-3.86-7.79-9.27-6.59v7.19a2.82 2.82 0 00.7 1.89l3.36 3.43h-14.75l3.38-3.38a2.82 2.82 0 00.71-1.89v-17.2a2.82 2.82 0 00-.71-1.89l-3.38-3.38zm26.14 10.91l5.2 8.49 4.05-8.49a1.29 1.29 0 00-.16-1.6l-2.27-2.33h7.52l-3 2.67a4.17 4.17 0 00-.84 1.1l-7.28 15.2c-1.66 3.49-5.51 10.63-12.4 8.34l-1.36-13.42h.1l5.32 8.64a3 3 0 004.13 1c1.08-.66 2.47-3.34 3.22-4.92l-11.36-18.56h11.53l-2.27 2.33a1.31 1.31 0 00-.16 1.6m24.96-3.98h-9.62l2.92 2.92a2.44 2.44 0 01.61 1.64v11.64a2.41 2.41 0 01-.61 1.63l-2.92 2.93h13.16l-2.91-2.93a2.46 2.46 0 01-.61-1.63V652l8.31 2.22v4.25a2.46 2.46 0 01-.6 1.63l-2.95 2.9h13.16l-2.92-2.93a2.41 2.41 0 01-.61-1.63V646.8a2.44 2.44 0 01.61-1.64l2.92-2.92h-13.16l2.93 2.92a2.49 2.49 0 01.6 1.64v6.53l-8.31-2.23zm22.49 0l2.92 2.92a2.44 2.44 0 01.61 1.64v11.64a2.41 2.41 0 01-.61 1.63l-2.92 2.93H645l-2.93-2.93a2.46 2.46 0 01-.61-1.63V645c0-.87.44-1.87 2.33-1.88h.82a1.84 1.84 0 011.82.93l5.71 9.59h.09l-1.4-12.51-4 1a6.75 6.75 0 01-1.79.22zm32.95 3.93l5.2 8.49 4-8.49a1.29 1.29 0 00-.16-1.6l-2.27-2.33h7.51l-3 2.67a4.36 4.36 0 00-.83 1.1l-7.26 15.2c-1.66 3.49-5.51 10.63-12.4 8.34l-1.36-13.42h.13l5.32 8.64a3 3 0 004.13 1c1.08-.66 2.47-3.34 3.22-4.92l-11.36-18.56h11.53l-2.21 2.28a1.31 1.31 0 00-.16 1.6m19.16-3.93h-3.53l2.93 2.92a2.49 2.49 0 01.6 1.64V670h9.63l-2.92-2.92a2.44 2.44 0 01-.61-1.64V663h2.67c10 0 14.54-6.49 14.59-12.29 0-4.82-3.12-8.94-8.17-8.94a9.77 9.77 0 00-9.09 6.76v-6.29zm6.1 10.15v9.77a11.16 11.16 0 0010.53-11.1c.03-8.44-10.56-6.72-10.56 1.33zm-131.8 94.07l-3.38 3.38a2.82 2.82 0 00-.7 1.89v6.53c5-2.27 7.37-5.84 7.48-11.8h8c-.8 7.11-6.42 10.3-15.52 12.75v1.41c11.18-2.92 17.36.55 16.68 13.58h-11l3-3c.73-.73.72-1.68.65-2.92-.3-5.43-3.86-7.79-9.27-6.59v7.19a2.82 2.82 0 00.7 1.89l3.38 3.38h-14.77l3.38-3.38a2.82 2.82 0 00.71-1.89v-17.2a2.82 2.82 0 00-.71-1.89l-3.38-3.38zm26.14 10.91l5.2 8.49 4.05-8.49a1.29 1.29 0 00-.16-1.6l-2.27-2.33h7.52l-3 2.67a4.17 4.17 0 00-.84 1.1l-7.28 15.2c-1.66 3.49-5.51 10.63-12.4 8.34l-1.36-13.42h.1l5.32 8.64a3 3 0 004.13.95c1.08-.66 2.47-3.34 3.22-4.92l-11.36-18.56h11.53l-2.27 2.33a1.31 1.31 0 00-.16 1.6m24.96-3.93h-9.62l2.92 2.92a2.43 2.43 0 01.61 1.63v11.65a2.43 2.43 0 01-.61 1.63l-2.92 2.93h13.16l-2.91-2.93a2.48 2.48 0 01-.61-1.63v-6.48l8.31 2.23v4.25a2.48 2.48 0 01-.6 1.63l-2.93 2.93h13.16l-2.92-2.93a2.43 2.43 0 01-.61-1.63V758a2.43 2.43 0 01.61-1.63l2.92-2.92h-13.18l2.93 2.92a2.48 2.48 0 01.6 1.63v6.54l-8.31-2.23zm22.49 0l2.92 2.92a2.43 2.43 0 01.61 1.63v11.65a2.43 2.43 0 01-.61 1.63l-2.92 2.93H645l-2.93-2.93a2.48 2.48 0 01-.61-1.63v-13.49c0-.87.44-1.87 2.33-1.88h.82a1.82 1.82 0 011.82.93l5.71 9.59h.09l-1.4-12.51-4 1a6.75 6.75 0 01-1.79.22zm32.95 3.93l5.2 8.49 4-8.49a1.29 1.29 0 00-.16-1.6l-2.27-2.33h7.51l-3 2.67a4.36 4.36 0 00-.83 1.1l-7.26 15.2c-1.66 3.49-5.51 10.63-12.4 8.34l-1.36-13.42h.13l5.32 8.64a3 3 0 004.13.95c1.08-.66 2.47-3.34 3.22-4.92l-11.36-18.56h11.53l-2.21 2.33a1.31 1.31 0 00-.16 1.6m19.16-3.93h-3.53l2.93 2.92a2.48 2.48 0 01.6 1.64v23.23h9.63l-2.92-2.92a2.44 2.44 0 01-.61-1.64v-2.47h2.67c10 0 14.54-6.49 14.59-12.29 0-4.82-3.12-8.94-8.17-8.94a9.77 9.77 0 00-9.09 6.76v-6.29zm6.1 10.15v9.77a11.16 11.16 0 0010.53-11.1c.03-8.44-10.56-6.72-10.56 1.33zm74.28 205.27l-3.38 3.38a2.82 2.82 0 00-.7 1.89v6.53c5-2.27 7.37-5.84 7.48-11.8h8c-.8 7.11-6.42 10.3-15.52 12.75V983c11.18-2.91 17.36.56 16.68 13.58H766l3-2.94c.73-.73.72-1.68.65-2.92-.3-5.43-3.86-7.79-9.27-6.59v7.18a2.82 2.82 0 00.7 1.89l3.38 3.38h-14.83l3.38-3.38a2.82 2.82 0 00.71-1.89v-17.18a2.82 2.82 0 00-.71-1.89l-3.38-3.38zm26.14 10.91l5.2 8.49 4-8.49a1.29 1.29 0 00-.16-1.6l-2.27-2.34h7.52l-3 2.68a4 4 0 00-.84 1.09l-7.28 15.21c-1.66 3.48-5.51 10.62-12.4 8.33L780 989.73h.13l5.32 8.64a3 3 0 004.13 1c1.08-.66 2.47-3.34 3.22-4.92l-11.36-18.57H793l-2.27 2.34a1.31 1.31 0 00-.16 1.6m24.88-3.99h-9.62l2.92 2.93a2.41 2.41 0 01.61 1.63V992a2.44 2.44 0 01-.61 1.64l-2.92 2.92H819l-2.93-2.92a2.44 2.44 0 01-.61-1.64v-6.47l8.31 2.23V992a2.49 2.49 0 01-.6 1.64l-2.93 2.92h13.16l-2.92-2.92a2.44 2.44 0 01-.61-1.64v-11.61a2.41 2.41 0 01.61-1.63l2.92-2.93h-13.17l2.93 2.93a2.46 2.46 0 01.6 1.63v6.54l-8.31-2.23zm22.49 0l2.92 2.93a2.41 2.41 0 01.61 1.63V992a2.44 2.44 0 01-.61 1.64l-2.92 2.92h13.16l-2.93-2.92a2.49 2.49 0 01-.61-1.64v-13.45c0-.88.44-1.87 2.33-1.88h.82a1.83 1.83 0 011.82.93l5.71 9.59h.09l-1.4-12.51-4 1a6.75 6.75 0 01-1.79.21zm32.95 3.94l5.19 8.49 4.06-8.49a1.29 1.29 0 00-.16-1.6l-2.27-2.34h7.51l-3 2.68a4.14 4.14 0 00-.83 1.09l-7.28 15.21c-1.66 3.48-5.51 10.62-12.4 8.33l-1.36-13.41h.13l5.32 8.64a3 3 0 004.13 1c1.08-.66 2.47-3.34 3.22-4.92l-11.36-18.57h11.52l-2.26 2.34a1.31 1.31 0 00-.16 1.6m19.16-3.99h-3.53l2.93 2.93a2.46 2.46 0 01.6 1.63v23.23h9.63l-2.92-2.93a2.41 2.41 0 01-.61-1.63v-2.47h2.67c10 0 14.54-6.48 14.59-12.29.05-4.81-3.12-8.93-8.17-8.93a9.76 9.76 0 00-9.09 6.75v-6.29zm6.1 10.16v9.77a11.16 11.16 0 0010.53-11.1c.06-8.44-10.53-6.72-10.53 1.34z"/></g></svg>