<svg data-name="Layer 1" xmlns="http://www.w3.org/2000/svg" viewBox="0 0 1920 1080"><defs><clipPath id="a"><path fill="none" d="M0 0h1920v1080H0z"/></clipPath></defs><g clip-path="url(#a)"><path fill="#d6e2d4" d="M0 0h1920v1080H0z"/><path d="M878.7 189.08c.16.76 1.22 1 3 .68 5.1-1.08 6.07-6.33 5.18-10.54-.66-3.12-2.68-4.37-5.43-3.79a6.77 6.77 0 00-3.77 2.27c.2.84.52 1.28.94 1.39a5 5 0 012.31-1.31c1.6-.34 2.63.52 3.07 2.62.57 2.68.22 5.17-.58 6.39a2.75 2.75 0 01-1.49.85 2.9 2.9 0 01-2.32-.53 2 2 0 00-.87 2m-5.48-6.43a9.58 9.58 0 01-.43 6.51 3 3 0 01-1.65 1.07c-1.27.31-2.09-.49-2.7-3-.67-2.69-.43-5.21.21-6.31a2.77 2.77 0 011.56-1.1q2.19-.54 3 2.8m-2.16 9.57a6.38 6.38 0 004.48-3.88 10.32 10.32 0 00.45-6.74c-.8-3.24-3.06-4.42-5.68-3.78a6.19 6.19 0 00-4.32 3.58 10.6 10.6 0 00-.3 7c.75 3.04 2.58 4.54 5.38 3.85zm-15.33-2.8c0-.72-.14-1.9-.34-3.51a30.88 30.88 0 00-.55-3.34l-2.72.78a52.54 52.54 0 011 5.85c.41 3 .71 5.43.87 7.31l2.94-.84a22.87 22.87 0 01-.36-3.18 7.79 7.79 0 01.63-3.36c.45-1.14 1-1.78 1.55-1.94s1 .23 1.29 1.19a15.84 15.84 0 01.46 3.21 15.83 15.83 0 00.38 2.95l2.93-.83a22.77 22.77 0 01-.45-3.2 19.76 19.76 0 00-.57-3.61c-.54-1.9-1.61-2.63-3.19-2.18-1.89.54-3.16 2.09-3.78 4.66zM841.67 192a21 21 0 00-.93-5l-2.68.92a60.92 60.92 0 011.54 6.08c.63 2.95 1 5.24 1.26 6.9l2.89-1c-.45-2-.76-3.65-.92-5a11.76 11.76 0 01.38-4.51c.44-1.71 1-2.65 1.63-2.88s1 .19 1.32 1.11a47.06 47.06 0 011.05 5 44.43 44.43 0 00.92 4.73l2.89-1c-.17-.5-.52-2.17-1-5a48.27 48.27 0 00-1.18-5.38q-1-2.84-3.41-2a4.4 4.4 0 00-2.37 2.43 13.15 13.15 0 00-1.22 4.45zm-10.16 11.19a5.43 5.43 0 01-2.9 2.9 2.25 2.25 0 01-3.11-1.44c-.63-1.64-.21-4.09.84-6.31a22.69 22.69 0 013.62-5.59 3.77 3.77 0 00-.44-1.91l-10.08 3.88.61 2.6a15.67 15.67 0 013.49-1.77l3.22-1.36.07.1a28.18 28.18 0 00-3.62 6 8.83 8.83 0 00-.58 6.59c.79 2.05 2.74 2.93 5 2.05a8.62 8.62 0 005-4.72 1.46 1.46 0 00-1.13-1m-17.57 7.69l-2-7.44 4.61-2zm.91 3.2l3.94-13.79a2.73 2.73 0 00-.47-1.79l-6.66 2.85-1.21-4.46-2.91 1.24 1.22 4.46-1.66.71a2.43 2.43 0 00.51 2l1.66-.71 2.9 10.65zM803 217.57c-1.63.78-3 0-4.15-2.45a18.32 18.32 0 01-1.59-4.87 6.7 6.7 0 010-3.18 2.91 2.91 0 011.45-1.4c1.68-.8 3.37.48 4.47 2.79a15.53 15.53 0 011.16 3.53 14.31 14.31 0 01.32 2.87 4.29 4.29 0 01-.2 1.38 3.13 3.13 0 01-1.43 1.33m.23 2a7.08 7.08 0 003.74-4.77 10.87 10.87 0 00-1-7.53 7.62 7.62 0 00-3.26-3.61 4.64 4.64 0 00-4.33 0 6.58 6.58 0 00-3.61 4.89 11.87 11.87 0 001.24 7.68 7 7 0 003.08 3.39 4.33 4.33 0 004.06-.01zm-13.55 4.7c-1.59.84-3 .08-4.25-2.27a18.51 18.51 0 01-1.78-4.81 6.75 6.75 0 01-.17-3.17 3 3 0 011.39-1.46c1.65-.87 3.39.34 4.58 2.6a14.88 14.88 0 011.31 3.49 14.33 14.33 0 01.44 2.84 4 4 0 01-.15 1.4 3 3 0 01-1.37 1.38m.32 2a7 7 0 003.56-5 10.84 10.84 0 00-1.34-7.48 7.71 7.71 0 00-3.41-3.48 4.63 4.63 0 00-4.33.19 6.54 6.54 0 00-3.4 5 11.87 11.87 0 001.55 7.63 7.05 7.05 0 003.23 3.25 4.31 4.31 0 004.11-.08zM770 234.33a21.14 21.14 0 01.4-4.13c.3-1.86.57-2.87.83-3l.35-.21c.49 1.07 1.17 2.8 2.1 5.15l2.71-1.63c-1.83-3.69-3.59-7.75-5.32-12.18l-2.69 1.61c1.51 3.21 2.42 5.16 2.73 5.88l-.36.21c-.33.2-.89-.18-1.77-.84a26 26 0 00-2.54-1.68c-1.64-1-2.59-1.19-3.43-.69a5.88 5.88 0 00-1.64 1.57 37.82 37.82 0 017.23 3.94l-1.53 7.79zm-5.12 3.21a40.7 40.7 0 01-3.09-6.88 19.26 19.26 0 01-1.41-5.95l-2.15 1.42a25.77 25.77 0 001.34 4.24 32 32 0 002.53 5.18l-.14.09q-.84-.88-3.2-2.87t-3.33-2.92a2.68 2.68 0 00-1.36 1.26c.21 3.19.56 6.22 1 9.11l-.09.06c-.88-1.72-2.48-4.65-4.85-8.77l-2.34 1.49q1.83 2.84 6.58 11.45l2.43-1.61c-.33-2.41-.64-5.39-.92-9l.14-.09c2.64 2.32 4.76 4.12 6.31 5.41zm-40.73 24.96a18.61 18.61 0 002.35 3.44l2.22-1.94c-.57-.64-1.76-2.26-3.54-4.83s-3.09-4.6-4-6.13L719 255l1.34 2.07c.71 1.11 1.24 2 1.59 2.67a11 11 0 011.15 4c.2 1.7 0 2.75-.43 3.17-.31.28-.77.09-1.38-.6a70 70 0 01-5.42-8.6l-2.07 1.81 1.54 2.6c.67 1.1 1.13 1.88 1.37 2.37a11.14 11.14 0 011 3.93c.2 1.7.07 2.73-.39 3.14s-.85.12-1.49-.61a42.41 42.41 0 01-2.91-4.47c-1.45-2.38-2.29-3.75-2.5-4l-2.3 2c.31.36 1.25 1.82 2.8 4.34a40.53 40.53 0 003.27 4.92 2.35 2.35 0 003.41.52c1.4-1.22 1.73-3.5 1-6.9l.1-.09c.68 1.07 1.11 1.69 1.27 1.88a2 2 0 003 .38c1.31-1.16 1.72-3.76 1-6.92zm-17.73 19.58a23.77 23.77 0 01-2-3 13.33 13.33 0 01-1.44-4.28c-.33-1.73-.23-2.83.25-3.29s1.36-.16 2.5 1a10.16 10.16 0 012.21 3.49 7.34 7.34 0 01.59 3.45 4 4 0 01-1 1.77 3.94 3.94 0 01-1.15.8m-9.2-7.12q1.85 2.15 4.44 5.55t3.56 4.89a9.32 9.32 0 002.8-1.86 8.51 8.51 0 002.8-6.49 10.37 10.37 0 00-3.35-7.1c-1.56-1.62-3.46-2-4.74-.75a4.53 4.53 0 00-1.19 3.36 12 12 0 001 4.7l-.08.08a29.2 29.2 0 00-1.67-2.4 22.7 22.7 0 00-1.56-1.89zM688 291.46c-.31-.44-.82-1.08-1.55-2s-1.25-1.43-1.55-1.76l-2 2.09c.75.7 2.11 2.21 4.08 4.49s3.45 4.19 4.48 5.65l2-2.12-1.28-1.73c-.59-.75-1.08-1.44-1.49-2a17.26 17.26 0 01-1.88-4.24c-.56-1.79-.68-2.88-.31-3.27s.72-.08 1.39.55a62.76 62.76 0 016.15 8l1.92-2c-.31-.45-.76-1.1-1.41-2s-1.11-1.54-1.44-2a15.93 15.93 0 01-1.74-4.11c-.54-1.77-.62-2.87-.23-3.27s.8-.12 1.5.54a45.37 45.37 0 013.29 4.08c1.66 2.25 2.6 3.52 2.85 3.78l2.07-2.2c-.33-.34-1.37-1.67-3.13-4.05a43.13 43.13 0 00-3.71-4.52c-1.15-1.08-2.55-1.14-3.44-.19-1.2 1.28-1.09 4.12.06 7.23l-.11.12a16.56 16.56 0 00-1.64-2.07c-1.11-1.05-2.19-1.15-3-.28a4 4 0 00-.79 3 12.15 12.15 0 001 4.23zm-3.58 16.87a22.14 22.14 0 01-.92-4c-.3-1.87-.36-2.91-.17-3.14l.27-.32c.8.87 2 2.29 3.62 4.23l2.06-2.4c-2.91-2.93-5.86-6.22-8.9-9.88l-2 2.38c2.44 2.57 3.92 4.12 4.44 4.71l-.27.32c-.25.3-.9.11-2-.24a24 24 0 00-2.93-.8c-1.86-.39-2.84-.31-3.47.43a5.8 5.8 0 00-1.07 2 37.29 37.29 0 018.11 1.46l1 7.87zm-9.01 1.67a7.68 7.68 0 012 3.71 3.05 3.05 0 01-.69 1.76 1.61 1.61 0 01-2.37.17c-1.61-1.28-.17-4 1.08-5.64m-6.87-3.84a8.13 8.13 0 00-1.84 5.07 2 2 0 001.47.38 5.14 5.14 0 01.42-1.68 7.55 7.55 0 011-1.71c1-1.26 2.29-1.27 3.85 0a5 5 0 01.84.81c-2.88 4.38-3.29 7.38-1.23 9 1.46 1.16 3.31 1 4.76-.86a6.16 6.16 0 001.08-5.85 11.24 11.24 0 00-4-5.76c-2.36-1.81-4.62-1.56-6.37.6zm-11.32 15.67c4.64 4.28 7.82 7.36 9.59 9.21l1.93-2.61c-.8-.66-2.09-1.85-3.88-3.59a19.56 19.56 0 012.82-3.84q2.49 2.37 3.77 3.72l1.95-2.63q-4.73-4-9.63-9.17l-1.91 2.59c1.19 1 2.65 2.4 4.42 4.16a19.49 19.49 0 01-2.81 3.82c-.6-.55-2-2-4.36-4.25zm2.76 11.84a18.1 18.1 0 003.17 2.7l1.63-2.45c-.72-.48-2.29-1.72-4.69-3.74s-4.19-3.61-5.43-4.86l-1.68 2.45 1.83 1.65c1 .88 1.73 1.61 2.24 2.15a10.92 10.92 0 012.17 3.6c.65 1.6.78 2.65.43 3.18-.23.35-.72.29-1.49-.22a70.37 70.37 0 01-7.5-6.86l-1.52 2.29 2.17 2.1c.94.89 1.59 1.52 1.95 1.93a11.07 11.07 0 012 3.51c.64 1.59.79 2.62.45 3.13s-.79.34-1.6-.2a41.11 41.11 0 01-4-3.53c-2-1.91-3.2-3-3.48-3.24l-1.69 2.54c.4.26 1.69 1.42 3.85 3.45a39.15 39.15 0 004.45 3.88 2.35 2.35 0 003.42-.39c1-1.55.75-3.84-.84-6.92l.08-.12a22.26 22.26 0 001.72 1.48 2 2 0 003-.44c1-1.45.68-4.08-.86-6.93zm-9.38 22.84a20.81 20.81 0 01-1.83 3.78l-1.19 2.07-.1-.09-1.21-6.59a1.63 1.63 0 00-1.11-.73c-1.11 2.59-3 3.35-4.57 2.43a4.36 4.36 0 01-2-2.71 7.77 7.77 0 01-.15-3.58 8.09 8.09 0 011.12-2.94 1.33 1.33 0 00-.92-.75.93.93 0 00-1.11.54 13.46 13.46 0 00-1.38 6.35 7.28 7.28 0 003.34 6.38c1.95 1.12 4 .42 5.53-2l.91 6.48a6.11 6.11 0 001.8 1.39l4.86-8.44zm-19.76 7.89c1.06.6 3.06 2 6 4.13l7.19 5.28 1.11-2.08a4.9 4.9 0 01-.14-4.36 1.94 1.94 0 00-1.12-.79 4.31 4.31 0 00-1 2.61l-4.44-3.19a59.06 59.06 0 01-5.9-4.74zm7.33 16.96c-.8 1.62-2.38 1.83-4.77.65a18.4 18.4 0 01-4.26-2.85 6.81 6.81 0 01-2-2.48 3 3 0 01.28-2c.82-1.66 2.94-1.7 5.23-.57a15.19 15.19 0 013.1 2.06 14.4 14.4 0 012 2.05 4.18 4.18 0 01.71 1.22 3.1 3.1 0 01-.31 1.92m1.45 1.46a7.07 7.07 0 000-6.11 10.87 10.87 0 00-5.47-5.27 7.61 7.61 0 00-4.79-.82 4.6 4.6 0 00-3.4 2.68 6.54 6.54 0 00.18 6.07 11.9 11.9 0 005.73 5.28 7.05 7.05 0 004.52.74 4.31 4.31 0 003.25-2.57zm-7.68 12.01c-.73 1.65-2.31 1.92-4.74.84a18.65 18.65 0 01-4.38-2.67 7 7 0 01-2.1-2.39 3 3 0 01.2-2c.75-1.7 2.87-1.82 5.2-.79a15.15 15.15 0 013.19 1.93 13.46 13.46 0 012.1 2 3.72 3.72 0 01.75 1.18 3.12 3.12 0 01-.22 1.94m1.51 1.39a7.06 7.06 0 00-.27-6.1 10.79 10.79 0 00-5.69-5 7.58 7.58 0 00-4.83-.62 4.6 4.6 0 00-3.28 2.82 6.5 6.5 0 00.44 6.05 11.84 11.84 0 005.93 5 7 7 0 004.55.56 4.34 4.34 0 003.15-2.75zm-10.75 18.61a22.84 22.84 0 01-2.24-3.49c-.91-1.65-1.32-2.61-1.22-2.9l.15-.39c1 .55 2.65 1.48 4.84 2.76l1.12-3c-3.73-1.77-7.62-3.87-11.72-6.29l-1.11 2.94c3.17 1.58 5.09 2.55 5.77 2.93l-.14.39c-.14.36-.81.4-1.92.43a26.52 26.52 0 00-3 .24c-1.88.27-2.78.67-3.12 1.58a5.63 5.63 0 00-.32 2.25 37.77 37.77 0 018.12-1.37l3.61 7.07zm-2.07 5.72a40.47 40.47 0 01-6.68-3.51 18.64 18.64 0 01-4.78-3.81l-.82 2.45a25.44 25.44 0 003.67 2.51 31.8 31.8 0 005.19 2.51l-.05.16c-.81-.12-2.24-.22-4.29-.29s-3.52-.14-4.42-.24a2.7 2.7 0 00-.29 1.84c2.13 2.37 4.28 4.55 6.39 6.57v.1c-1.75-.81-4.82-2.13-9.23-3.91l-.87 2.63c2.12.74 6.2 2.38 12.25 4.95l.92-2.77q-2.62-2.53-6.27-6.5l.05-.15c3.51.19 6.28.3 8.31.36zM605 477.33c.76.14 1.43-.72 1.76-2.47 1-5.13-3.52-8-7.74-8.82-3.14-.59-5.07.79-5.59 3.55a6.87 6.87 0 00.65 4.36c.85.13 1.39 0 1.65-.34a5 5 0 01-.33-2.63c.31-1.61 1.5-2.24 3.6-1.84 2.7.51 4.86 1.79 5.68 3a2.71 2.71 0 01.21 1.7 3 3 0 01-1.38 1.95 2 2 0 001.49 1.55m-8.61 8.31a20.56 20.56 0 00-4.86-1.49l-.42 2.8a58.63 58.63 0 016.09 1.46c2.91.8 5.13 1.51 6.7 2.08l.46-3a50 50 0 01-4.82-1.49 11.79 11.79 0 01-3.82-2.43c-1.31-1.18-1.9-2.09-1.79-2.77s.62-.81 1.58-.66a46.57 46.57 0 014.93 1.39 43.55 43.55 0 004.62 1.38l.46-3c-.52-.08-2.16-.55-4.87-1.41a50 50 0 00-5.31-1.45c-2-.31-3.09.4-3.35 2.1a4.36 4.36 0 001 3.22 13.27 13.27 0 003.37 3.15zm-1.25 8.58a11.76 11.76 0 013.41.92 7 7 0 012.52 1.68 2.88 2.88 0 01.37 1.63c-.14 1.3-1.24 1.85-3.31 1.61-3-.34-5.43-1.59-6.43-2.94a2.74 2.74 0 01-.23-1.42c.15-1.24 1.38-1.74 3.67-1.48m6.8 6.52a2.26 2.26 0 001.31-1.94 5.83 5.83 0 00-1.83-4.82 10 10 0 00-6.26-2.69c-3.12-.36-5.23 1.08-5.53 3.64a5.89 5.89 0 002.49 5.43 15.07 15.07 0 007.86 2.87c6.18.7 9.19-2 9.7-6.72 0-.26-.3-.51-.75-.73a2.36 2.36 0 00-1.12-.26c-.36 3.42-2.41 5.28-5.89 5.36zm-13.66 14.46c6.2 1.16 10.53 2.06 13 2.69l.24-3.24q-1.53-.2-5.19-1a19.14 19.14 0 01.35-4.74c2.25.45 4 .82 5.18 1.14l.24-3.27q-6.15-.91-13-2.63l-.24 3.21c1.55.22 3.52.62 6 1.16a19.24 19.24 0 01-.35 4.73c-.8-.14-2.77-.56-6-1.27zm6.92 7.4a7.75 7.75 0 013.8 1.8 3.15 3.15 0 01.49 1.83 1.61 1.61 0 01-1.81 1.54c-2-.07-2.5-3.09-2.48-5.17m-7.81 1a8.07 8.07 0 001.53 5.16 1.91 1.91 0 001.41-.56 5.41 5.41 0 01-.66-1.6 7.58 7.58 0 01-.24-2c.06-1.61 1.09-2.37 3.09-2.3a4.78 4.78 0 011.16.15q.42 7.85 4.38 8c1.85.07 3.23-1.19 3.32-3.52a6.21 6.21 0 00-2.62-5.34 11.22 11.22 0 00-6.66-2.24c-2.92-.08-4.61 1.45-4.71 4.25zm19.3 14.06c-.06-1.39-.42-2.08-1.09-2.08a3.09 3.09 0 00-3 3.31 4.73 4.73 0 00.94 2.91 7 7 0 002.11 2 1.85 1.85 0 00.75-1.25 4.4 4.4 0 01-2.08-3.08c0-1.08.77-1.67 2.33-1.81m-14 2.73a21 21 0 00-5-.74v2.83a60.26 60.26 0 016.25.52c3 .36 5.3.72 6.94 1v-3a50.3 50.3 0 01-5-.75 11.78 11.78 0 01-4.14-1.83c-1.47-1-2.19-1.77-2.19-2.46s.5-.89 1.47-.89a46.17 46.17 0 015.08.63 45.71 45.71 0 004.77.66v-3c-.53 0-2.22-.22-5-.66a49.67 49.67 0 00-5.46-.64c-2 0-3 .87-3 2.59a4.33 4.33 0 001.53 3 13.39 13.39 0 003.8 2.61zm-4.49 17.15c1.23 0 3.65.12 7.28.44l8.88.81-.12-2.35a5 5 0 01-2.38-3.67 2 2 0 00-1.36-.09 4.27 4.27 0 00.49 2.75l-5.47-.48a60.33 60.33 0 01-7.5-1zm2.36 10.45c-.16-2 1.22-3.11 3.46-3.3a4.13 4.13 0 012.94.82 3.39 3.39 0 011.37 2.44c.16 1.88-1.06 3-3.08 3.13a4.94 4.94 0 01-3.89-1.21 3.36 3.36 0 01-.8-1.88m-2-.26a6.8 6.8 0 003.63 5.47 6.56 6.56 0 003.82.76 4.26 4.26 0 004.15-4.8 5.47 5.47 0 00-2.37-4.31v-.14a10.55 10.55 0 015.43 3 11 11 0 012.81 5 1.35 1.35 0 001 0 .66.66 0 00.52-.8 12.63 12.63 0 00-4.84-7.59 12 12 0 00-8.66-2.59c-3.68.26-5.75 2.43-5.46 5.97zm14.38 8c.38.6.77 2.46 1.14 5.57l.22 1.87h-.14a32 32 0 00-7.83-3.82 25.63 25.63 0 00-7.56-1.56h-.39l.41 3.44a8 8 0 012.56-.33 24.38 24.38 0 016.8 1.48 23.19 23.19 0 016.44 3.18 3.65 3.65 0 002.2.13l-1.19-10zm3.34 17.26q.42 2.67-3.53 3.27a18.16 18.16 0 01-5.12.13 6.78 6.78 0 01-3.06-.88 3 3 0 01-.93-1.79c-.28-1.84 1.43-3.09 4-3.48a16.11 16.11 0 016.55.41 4.19 4.19 0 011.27.59 3 3 0 01.86 1.75m2 .36a7.07 7.07 0 00-3.53-5 10.88 10.88 0 00-7.51-1.16 7.72 7.72 0 00-4.4 2.09 4.63 4.63 0 00-1.24 4.15 6.55 6.55 0 003.65 4.86 12 12 0 007.72 1 7.1 7.1 0 004.13-2 4.36 4.36 0 001.17-3.9zm.6 14.29c.35 1.77-.78 2.9-3.4 3.42a18.16 18.16 0 01-5.11.34 6.77 6.77 0 01-3.09-.75 3 3 0 01-1-1.75c-.36-1.83 1.3-3.15 3.81-3.64a15.78 15.78 0 016.56.14 4.15 4.15 0 011.3.53 3.13 3.13 0 01.93 1.71m2 .28a7.07 7.07 0 00-3.73-4.84 10.92 10.92 0 00-7.55-.85 7.75 7.75 0 00-4.31 2.27 4.64 4.64 0 00-1.06 4.2 6.53 6.53 0 003.85 4.7 11.87 11.87 0 007.75.7 7 7 0 004-2.16 4.3 4.3 0 001.08-4.02zm1.99 21.43a22.61 22.61 0 01-3.87-1.56c-1.7-.83-2.58-1.38-2.66-1.67l-.1-.41c1.16-.15 3-.31 5.53-.53l-.78-3.06c-4.06.7-8.46 1.22-13.2 1.61l.78 3c3.5-.52 5.63-.84 6.41-.92l.1.4c.1.38-.42.8-1.32 1.46a26.82 26.82 0 00-2.33 1.94c-1.39 1.3-1.89 2.15-1.65 3.09a5.86 5.86 0 001 2 37.17 37.17 0 015.85-5.8l7 3.7zm1.6 5.88a40.62 40.62 0 01-7.48 1 18.82 18.82 0 01-6.1-.36l.74 2.47a24.9 24.9 0 004.44-.06 31.57 31.57 0 005.7-.93v.16c-.73.36-1.95 1.11-3.67 2.23s-3 1.91-3.76 2.35a2.75 2.75 0 00.82 1.67c3.12.71 6.12 1.26 9 1.69v.11c-1.9.34-5.17 1-9.8 2.11l.8 2.66q3.24-.93 12.86-3l-.84-2.79c-2.4-.38-5.35-.94-8.86-1.71v-.16c3-1.85 5.31-3.36 7-4.48zm11.95 46.22c.48-.09 1.21-.29 2.2-.58a20.36 20.36 0 002-.63l-1.23-2.8a57.4 57.4 0 01-5.95 2c-2.89.88-5.14 1.48-6.79 1.81l1.27 2.87c.46-.11 1.29-.36 2.53-.72s2.23-.59 2.89-.73a10 10 0 014.16.2c1.71.37 2.71.87 3 1.51s-.1 1-1 1.4a42.3 42.3 0 01-4.94 1.45q-3.87 1-4.68 1.36l1.24 2.82c.49-.21 2.13-.69 4.89-1.45a53.16 53.16 0 005.33-1.65c1.81-.8 2.38-2 1.68-3.56a4.56 4.56 0 00-2.45-2.2 10.59 10.59 0 00-4.09-1zm4.24 13.1a7.57 7.57 0 014.2-.18 3 3 0 011.28 1.38 1.61 1.61 0 01-.87 2.21c-1.84.9-3.65-1.56-4.61-3.41m-6.44 4.55A8.14 8.14 0 00628 703a1.91 1.91 0 001-1.16 5.39 5.39 0 01-1.34-1.1 7.77 7.77 0 01-1.12-1.62q-1-2.18 1.64-3.48a5.31 5.31 0 011.1-.41q4.05 6.74 7.61 5c1.68-.81 2.31-2.56 1.29-4.66a6.17 6.17 0 00-4.82-3.49 11.26 11.26 0 00-6.94 1.14c-2.64 1.23-3.42 3.37-2.2 5.89zm20.03 9.1a22.81 22.81 0 01-4.1-.62c-1.85-.41-2.84-.73-3-1l-.2-.37c1.1-.42 2.86-1 5.26-1.81l-1.48-2.8c-3.79 1.63-7.93 3.17-12.46 4.66l1.47 2.77c3.29-1.33 5.28-2.14 6-2.41l.19.37c.18.35-.23.88-.94 1.73a25.85 25.85 0 00-1.81 2.44c-1.05 1.58-1.33 2.52-.88 3.38a5.82 5.82 0 001.48 1.73 37.12 37.12 0 014.33-7l7.69 2zm-.9 14.96a20.75 20.75 0 00-4.72 1.87l1.42 2.45a61.58 61.58 0 015.67-2.67c2.77-1.2 4.95-2 6.53-2.57l-1.53-2.65a49.64 49.64 0 01-4.7 1.86 11.54 11.54 0 01-4.5.49c-1.76-.1-2.79-.43-3.13-1s0-1 .82-1.51a46.22 46.22 0 014.72-2 42.76 42.76 0 004.46-1.82l-1.53-2.62a50.49 50.49 0 01-4.68 1.95 49 49 0 00-5 2.19q-2.6 1.5-1.3 3.74a4.37 4.37 0 002.84 1.85 13.28 13.28 0 004.6.35zm4.65 17.02c5.67-2.78 9.68-4.64 12-5.62l-1.74-2.75c-.9.51-2.48 1.28-4.74 2.33a19.39 19.39 0 01-2.55-4c2.07-1 3.68-1.71 4.83-2.18l-1.76-2.76q-5.48 2.94-12 5.66l1.73 2.72c1.37-.74 3.19-1.6 5.47-2.62a19.67 19.67 0 012.55 4c-.73.37-2.56 1.2-5.53 2.53zm16.8 1.22c.62.35 1.85 1.79 3.66 4.34l1.1 1.54-.12.08a32.74 32.74 0 00-8.7.4 26.31 26.31 0 00-7.39 2.26l-.33.2 2 2.83a7.69 7.69 0 012.09-1.52 24.69 24.69 0 016.68-2 23.47 23.47 0 017.17-.3 3.57 3.57 0 002-.94l-5.82-8.18zm6.71 9.05a21.36 21.36 0 012.78 3.15l1.44 1.9-.12.06-6.54-1.44a1.63 1.63 0 00-1.11.74c2 2 1.95 4 .47 5.16a4.38 4.38 0 01-3.28.82 7.81 7.81 0 01-3.36-1.25 8.07 8.07 0 01-2.28-2.17 1.3 1.3 0 00-1 .55.93.93 0 00.07 1.24 13.26 13.26 0 005.31 3.73 7.25 7.25 0 007.18-.61c1.79-1.36 1.91-3.49.26-5.89l6.33 1.67a6 6 0 002-1.12l-5.9-7.75zm12.25 14.21c1.15 1.39.69 2.92-1.37 4.62a18.21 18.21 0 01-4.34 2.72 6.78 6.78 0 01-3.08.8 3 3 0 01-1.71-1.07c-1.18-1.43-.34-3.38 1.63-5a14.77 14.77 0 013.15-2 13.34 13.34 0 012.7-1 4 4 0 011.39-.15 3.08 3.08 0 011.63 1.07m1.93-.72a7.06 7.06 0 00-5.58-2.49 10.85 10.85 0 00-7.06 2.83 7.67 7.67 0 00-2.71 4 4.61 4.61 0 001 4.21 6.53 6.53 0 005.61 2.31 11.85 11.85 0 007.16-3.05 7.14 7.14 0 002.59-3.75 4.33 4.33 0 00-1.01-4zm7.79 11.95c1.21 1.34.81 2.89-1.18 4.67a18.21 18.21 0 01-4.22 2.9 6.69 6.69 0 01-3 .93 3 3 0 01-1.75-1c-1.25-1.38-.49-3.36 1.41-5.07a15.16 15.16 0 013.06-2.11 14.44 14.44 0 012.66-1.12 4.14 4.14 0 011.38-.2 3 3 0 011.68 1m1.89-.81a7 7 0 00-5.68-2.25 10.84 10.84 0 00-6.93 3.13 7.71 7.71 0 00-2.54 4.14 4.63 4.63 0 001.23 4.16 6.53 6.53 0 005.71 2.07 11.81 11.81 0 007-3.35 7 7 0 002.37-3.92 4.3 4.3 0 00-1.2-3.98zM708 792.52a23.07 23.07 0 01-4.1.61c-1.89.16-2.93.14-3.14-.07l-.3-.29c.92-.73 2.43-1.81 4.49-3.29l-2.24-2.23q-4.71 4-10.53 8.12l2.22 2.21c2.75-2.24 4.42-3.6 5-4.07l.3.3c.27.27 0 .9-.39 1.92a23.68 23.68 0 00-1 2.87c-.52 1.82-.52 2.81.17 3.49a5.92 5.92 0 001.92 1.22 37.54 37.54 0 012.07-8l7.93-.4zm-.82 10.82a9.54 9.54 0 015.66-3.23 3 3 0 011.8.79c1 .89.75 2-1 3.89-1.89 2-4.12 3.23-5.4 3.3a2.81 2.81 0 01-1.77-.7c-1.1-1-.88-2.36.69-4m9.17-3.47a6.37 6.37 0 00-5.7-1.6 10.32 10.32 0 00-5.88 3.33c-2.26 2.45-2 5 0 6.82a6.21 6.21 0 005.37 1.64 10.61 10.61 0 006-3.62c2.11-2.31 2.35-4.65.23-6.62zm5.91 5.8a40.35 40.35 0 01-5.75 4.88 18.65 18.65 0 01-5.32 3l2 1.67a25.53 25.53 0 003.7-2.46 32.11 32.11 0 004.28-3.88l.12.11c-.41.71-1 2-1.87 3.88s-1.45 3.21-1.88 4a2.75 2.75 0 001.6.95c3-1.09 5.82-2.26 8.48-3.47l.08.08q-2.11 2-7.08 7.09l2.12 1.8q2.21-2.55 9.17-9.51l-2.27-1.86c-2.22 1-5 2.12-8.36 3.38l-.13-.11c1.49-3.17 2.62-5.7 3.44-7.56zm30.52 28.95a18.17 18.17 0 002.71-3.16l-2.47-1.63c-.48.71-1.73 2.28-3.75 4.67s-3.62 4.19-4.87 5.43l2.45 1.63 1.65-1.84c.88-1 1.61-1.72 2.15-2.23a10.87 10.87 0 013.61-2.17c1.59-.64 2.65-.77 3.18-.42.35.23.29.73-.22 1.49a71.77 71.77 0 01-6.88 7.49l2.28 1.52 2.11-2.17c.89-.94 1.52-1.58 1.93-1.94a11.06 11.06 0 013.52-2c1.59-.64 2.62-.79 3.13-.45s.34.79-.2 1.6a40.91 40.91 0 01-3.54 4c-1.92 2-3 3.19-3.25 3.48l2.54 1.69c.26-.39 1.43-1.69 3.46-3.84a41 41 0 003.89-4.44 2.36 2.36 0 00-.39-3.43c-1.55-1-3.84-.75-6.92.83l-.12-.07a21.85 21.85 0 001.48-1.72 2 2 0 00-.43-3c-1.45-1-4.08-.68-6.93.85zm14.74 14.57a9.57 9.57 0 014.89-4.32 3 3 0 011.92.4c1.12.67 1.15 1.82-.16 4-1.43 2.38-3.37 4-4.6 4.34a2.82 2.82 0 01-1.88-.32c-1.29-.77-1.35-2.13-.17-4.11m8.27-5.27a6.35 6.35 0 00-5.91-.4 10.34 10.34 0 00-5.07 4.47c-1.71 2.86-.93 5.3 1.38 6.68a6.2 6.2 0 005.59.5 10.56 10.56 0 005.15-4.78c1.58-2.64 1.34-4.98-1.14-6.43zm13.17 7.89a22.41 22.41 0 01-3.77 1.73c-1.76.68-2.77.95-3 .8l-.37-.2c.68-.95 1.83-2.41 3.4-4.4l-2.77-1.52c-2.27 3.44-4.89 7-7.86 10.73l2.75 1.51c2-2.92 3.24-4.69 3.71-5.31l.37.2c.34.18.29.85.16 2a24.06 24.06 0 00-.18 3c0 1.9.27 2.84 1.13 3.31a5.89 5.89 0 002.18.63 37.3 37.3 0 01-.23-8.23l7.5-2.6zm7.49 13.01a20.21 20.21 0 00-2.92 4.16l2.53 1.26a59.52 59.52 0 013.27-5.35c1.66-2.52 3-4.41 4.05-5.73l-2.73-1.37c-1.11 1.72-2.08 3.09-2.91 4.14a11.78 11.78 0 01-3.49 2.87c-1.53.88-2.57 1.17-3.19.86s-.57-.84-.14-1.71a47 47 0 012.85-4.26 46.06 46.06 0 002.73-4l-2.73-1.37c-.24.47-1.19 1.89-2.84 4.2a50.18 50.18 0 00-3 4.6c-.9 1.79-.57 3.07 1 3.84a4.43 4.43 0 003.39 0 13.21 13.21 0 004-2.24zm7.57 3.87a9.6 9.6 0 014.36-4.85 3 3 0 012 .19c1.19.54 1.34 1.68.29 4-1.15 2.53-2.89 4.36-4.08 4.82a2.71 2.71 0 01-1.9-.1c-1.37-.62-1.58-2-.63-4.06m7.62-6.18a6.38 6.38 0 00-5.92.28 10.27 10.27 0 00-4.53 5c-1.37 3-.33 5.37 2.12 6.48a6.14 6.14 0 005.61-.14 10.5 10.5 0 004.58-5.32c1.26-2.8.75-5.1-1.88-6.3zm17.98 6.79c2 .76 2.21 2.59 1.43 4.58a4.42 4.42 0 01-2.14 2.38 3.42 3.42 0 01-2.84.24c-1.86-.73-2.29-2.3-1.5-4.34a5.49 5.49 0 012.83-3 3.71 3.71 0 012.22.18m1.22-1.61a7.17 7.17 0 00-5.33 0 6.32 6.32 0 00-3.81 3.82c-1.06 2.71-.24 5.06 2.45 6.1a5.36 5.36 0 005.07-.41l.09.07a8.89 8.89 0 01-5.05 3.63 8.06 8.06 0 01-5.35-.17c-.67.72-.63 1.63.27 2a11.71 11.71 0 007.87-.54 12.44 12.44 0 006.65-7.06c1.42-3.7.48-6.21-2.86-7.48zm12.42 6.51c2 .69 2.31 2.5 1.62 4.52a4.43 4.43 0 01-2 2.47 3.38 3.38 0 01-2.82.35c-1.89-.65-2.39-2.2-1.67-4.27a5.48 5.48 0 012.69-3.16 3.79 3.79 0 012.23.09m1.16-1.65a7.19 7.19 0 00-5.33.22 6.34 6.34 0 00-3.65 4c-1 2.76 0 5.07 2.69 6a5.38 5.38 0 005.05-.61l.1.06a8.88 8.88 0 01-4.9 3.84 8 8 0 01-5.35 0c-.64.75-.57 1.65.35 2a11.73 11.73 0 007.84-.86 12.43 12.43 0 006.35-7.33c1.22-3.72.18-6.16-3.2-7.32zm12.91 6.13c1.73.52 2.2 2 1.44 4.6a18.27 18.27 0 01-2.08 4.68 6.76 6.76 0 01-2.11 2.38 3 3 0 01-2 .07c-1.79-.53-2.18-2.62-1.45-5.06a14.88 14.88 0 011.5-3.43 14.25 14.25 0 011.68-2.34 4 4 0 011.07-.89 3.09 3.09 0 011.95 0m1.2-1.67a7 7 0 00-6 1 10.85 10.85 0 00-4.28 6.28 7.71 7.71 0 000 4.87 4.66 4.66 0 003.22 2.9 6.53 6.53 0 006-1.22 11.82 11.82 0 004.24-6.53 7 7 0 000-4.58 4.31 4.31 0 00-3.18-2.73zm13.12 5.54c1.75.45 2.28 2 1.63 4.54a18.48 18.48 0 01-1.89 4.76 6.88 6.88 0 01-2 2.47 3 3 0 01-2 .15c-1.8-.45-2.28-2.52-1.65-5a14.57 14.57 0 011.36-3.46 15 15 0 011.58-2.41 4.41 4.41 0 011-.94 3.15 3.15 0 012-.11m1.12-1.72a7.06 7.06 0 00-6 1.3 10.88 10.88 0 00-4 6.46 7.73 7.73 0 00.2 4.86 4.64 4.64 0 003.34 2.76 6.53 6.53 0 005.9-1.46 11.84 11.84 0 004-6.7 7 7 0 00-.21-4.57 4.34 4.34 0 00-3.26-2.65zm20.2 7.44a23.32 23.32 0 01-3.06 2.8c-1.48 1.18-2.35 1.74-2.65 1.69l-.41-.08c.36-1.12 1-2.86 1.89-5.23l-3.1-.61c-1.11 4-2.52 8.16-4.21 12.61l3.08.6c1-3.39 1.65-5.44 1.91-6.19l.41.08c.38.08.54.73.75 1.82a25.55 25.55 0 00.75 2.95c.58 1.8 1.13 2.62 2.09 2.8a5.67 5.67 0 002.27-.06 37.5 37.5 0 01-2.73-7.77l6.36-4.76zm5.93 1.08a41.06 41.06 0 01-2.32 7.17 18.76 18.76 0 01-2.94 5.36l2.55.39a26.69 26.69 0 001.85-4 31.63 31.63 0 001.59-5.55h.17a40.93 40.93 0 00.44 4.28c.29 2 .46 3.49.52 4.4a2.7 2.7 0 001.86 0c2-2.51 3.75-5 5.38-7.41h.11c-.5 1.86-1.28 5.11-2.29 9.76l2.75.41c.36-2.22 1.29-6.51 2.79-12.91l-2.88-.44c-1.37 2-3.14 4.44-5.34 7.28h-.16c-.4-3.49-.77-6.24-1.06-8.25zm47.09 8.94c.12-.47.25-1.22.42-2.24s.26-1.72.27-2.08l-3-.07a56.06 56.06 0 01-.74 6.22q-.65 4.49-1.25 6.91l3.13.08c.1-.47.23-1.32.43-2.6s.42-2.26.57-2.92a9.87 9.87 0 012-3.68c1.07-1.39 1.94-2.09 2.64-2.07s.87.52.85 1.49a42.14 42.14 0 01-.8 5.09 47.22 47.22 0 00-.75 4.82l3.08.07c0-.52.27-2.21.76-5a51.07 51.07 0 00.78-5.54c0-2-.79-3-2.51-3a4.6 4.6 0 00-3 1.29 10.37 10.37 0 00-2.61 3.29zm13.65 1.74a7.79 7.79 0 011.62-3.88 3.07 3.07 0 011.8-.58 1.61 1.61 0 011.63 1.73c0 2.06-3 2.65-5 2.73m1.38 7.76a8.16 8.16 0 005.09-1.79 2 2 0 00-.63-1.38 5.44 5.44 0 01-1.58.74 7.36 7.36 0 01-1.93.33c-1.61 0-2.43-1-2.46-3a5.43 5.43 0 01.1-1.17q7.81-.81 7.77-4.76c0-1.86-1.35-3.18-3.68-3.15a6.19 6.19 0 00-5.21 2.87 11.22 11.22 0 00-1.91 6.77c-.02 2.95 1.59 4.57 4.39 4.54zm11.37-2.35a27.06 27.06 0 01.44-3.41 14.42 14.42 0 011.78-4.34c1-1.63 1.77-2.45 2.43-2.49s1.13.78 1.21 2.42a10.71 10.71 0 01-.65 4.22A7.89 7.89 0 01976 905a3.94 3.94 0 01-3.42.5M970.4 894c-.25 5.49-.8 11.74-1.64 18.79a4.51 4.51 0 001.48.15 2.47 2.47 0 001.37-.29c.19-1.88.39-3.5.59-4.9a8.24 8.24 0 006.77-3 10.86 10.86 0 002.44-8c-.11-2.22-1.3-3.69-3.1-3.6a4.5 4.5 0 00-3.1 1.8 12.4 12.4 0 00-2.38 4.2h-.11c.16-.75.3-1.73.44-2.93a21.15 21.15 0 00.18-2.4zm14.76-.85a40.45 40.45 0 01-.52 7.52 19 19 0 01-1.56 5.91l2.57-.24a25.54 25.54 0 00.81-4.37 30.85 30.85 0 00.21-5.76h.17a40.91 40.91 0 001.47 4q1.14 2.85 1.56 4.14a2.67 2.67 0 001.79-.47c1.32-2.92 2.45-5.75 3.44-8.5h.11c0 1.93 0 5.27.14 10l2.76-.26q-.27-3.36-.41-13.21l-2.9.28c-.84 2.28-2 5.06-3.42 8.35h-.17c-1.23-3.28-2.25-5.86-3-7.74zm19.07 8.27a7.06 7.06 0 01-.05-1.59 7.37 7.37 0 011.34-2.46 2.93 2.93 0 011.71-1.24c.61-.08 1 .4 1.12 1.42a6 6 0 01-1 4 2.87 2.87 0 01-1.77 1c-.8.11-1.27-.27-1.38-1.12m-2.62-10c0 .56-.06 2.27-.2 5.12a35.62 35.62 0 000 5.74q.38 2.85 3.27 2.44a7.29 7.29 0 005-3.08 7.49 7.49 0 001.58-5.62 2.32 2.32 0 00-2.77-2.26c-1.35.18-3.19 1.64-4.28 3.72h-.09c.16-.89.29-2 .41-3.42a21.79 21.79 0 00.09-3zm23.08 1.42c2.63.86 3.33 1.88 3.62 3.38a2.75 2.75 0 01-.52 2.33 4 4 0 01-2 1 2.62 2.62 0 01-2.15-.41 2.81 2.81 0 01-1.11-1.82q-.42-2.25 2.2-4.46m.86-2c-2-.7-3.07-1.73-3.34-3.12a2.68 2.68 0 01.51-2.24 3.3 3.3 0 011.92-.91 2 2 0 012.61 1.88 3.83 3.83 0 01-.33 2.41 5.54 5.54 0 01-1.41 1.93zm-.83-8.06a6.85 6.85 0 00-3.91 2.16 4.24 4.24 0 00-1.14 3.83 5.29 5.29 0 003.2 3.71v.12c-2 1.4-3.4 3.51-2.95 5.82s2.35 3.6 5.73 3a7 7 0 004.11-2.28 4.67 4.67 0 001.13-4.15 5.05 5.05 0 00-3.57-3.75v-.11a8.24 8.24 0 002.09-2.55 4.59 4.59 0 00.5-3.12c-.46-1.98-2.21-3.31-5.23-2.73zm14.06.8c1.76-.41 2.93.69 3.53 3.28a18.54 18.54 0 01.51 5.1 6.72 6.72 0 01-.65 3.12 3 3 0 01-1.72 1c-1.81.43-3.18-1.19-3.76-3.68a16 16 0 01-.08-6.57 4.2 4.2 0 01.49-1.31 3.13 3.13 0 011.68-1m.21-2a7.06 7.06 0 00-4.71 3.89 10.87 10.87 0 00-.6 7.58 7.72 7.72 0 002.41 4.23 4.63 4.63 0 004.24.92 6.52 6.52 0 004.56-4 11.86 11.86 0 00.44-7.77 7 7 0 00-2.29-4 4.32 4.32 0 00-4.05-.83zm21.39-2.64a23.88 23.88 0 01-1.44 3.89c-.77 1.72-1.29 2.63-1.58 2.71l-.4.12c-.2-1.16-.42-3-.71-5.52l-3 .89c.83 4 1.5 8.41 2 13.14l3-.88c-.64-3.49-1-5.6-1.14-6.38l.4-.12c.37-.1.81.4 1.5 1.27a25.58 25.58 0 002 2.28c1.35 1.34 2.21 1.81 3.14 1.54a5.92 5.92 0 002-1.1 38 38 0 01-6-5.66l3.47-7.14zm5.74-1.74a40.49 40.49 0 011.26 7.43 18.75 18.75 0 01-.12 6.12l2.44-.84a25.69 25.69 0 00-.24-4.44 31.15 31.15 0 00-1.15-5.65h.16c.39.71 1.19 1.91 2.38 3.58s2 2.89 2.49 3.67a2.71 2.71 0 001.63-.89c.6-3.14 1-6.16 1.35-9.06h.1q.61 2.82 2.49 9.71l2.63-.9c-.71-2.14-1.87-6.38-3.51-12.74l-2.75.95c-.29 2.41-.73 5.39-1.36 8.92l-.16.06c-2-2.91-3.57-5.17-4.76-6.82zm42.26-16.57a41 41 0 012.14 7.23 18.88 18.88 0 01.61 6.09l2.32-1.13a25.16 25.16 0 00-.76-4.38 32.47 32.47 0 00-1.82-5.47l.15-.07q.72 1 2.79 3.27t2.91 3.34a2.7 2.7 0 001.52-1.07c.21-3.19.27-6.24.25-9.16h.1q.95 2.73 3.63 9.34l2.5-1.21q-1.44-3-5-12.22l-2.62 1.27c0 2.43-.08 5.43-.29 9l-.15.07c-2.3-2.65-4.16-4.71-5.53-6.2zm19.61-.41a9.63 9.63 0 01-1.21-6.41 3 3 0 011.34-1.44c1.15-.62 2.15-.05 3.36 2.19 1.31 2.45 1.71 5 1.36 6.17a2.8 2.8 0 01-1.24 1.46c-1.32.71-2.52.06-3.61-2m-.29-9.8a6.37 6.37 0 00-3.37 4.87 10.33 10.33 0 001.24 6.64c1.58 2.93 4.07 3.52 6.44 2.24a6.14 6.14 0 003.29-4.54 10.49 10.49 0 00-1.46-6.88c-1.46-2.69-3.6-3.69-6.14-2.3zm14.55-6.79c-.39-.68-1.48-.62-3 .28-4.51 2.62-3.77 7.91-1.6 11.63 1.6 2.76 3.91 3.31 6.34 1.89a6.82 6.82 0 002.87-3.34c-.46-.73-.9-1-1.34-1a4.9 4.9 0 01-1.77 2c-1.42.82-2.67.33-3.75-1.52-1.38-2.37-1.82-4.84-1.45-6.25a2.76 2.76 0 011.15-1.28 2.92 2.92 0 012.37-.22 2 2 0 00.2-2.14m8.13-6.21a21.94 21.94 0 01-.32 4.13c-.26 1.88-.51 2.89-.77 3.05l-.35.22c-.51-1.06-1.22-2.77-2.2-5.11l-2.68 1.68q2.85 5.49 5.56 12.08l2.66-1.67c-1.57-3.17-2.52-5.1-2.84-5.82l.35-.22c.33-.21.89.16 1.79.81a24.55 24.55 0 002.56 1.63c1.67.92 2.62 1.14 3.45.62a5.94 5.94 0 001.61-1.6 37.17 37.17 0 01-7.31-3.8l1.38-7.82zm9.79 2.05c2.41-2.35 3.74-2.65 4.79-1.11a3.08 3.08 0 01.47 2.7 2.6 2.6 0 01-1.15 1.28c-1.33.91-2.68-.05-4.11-2.87m-.66-1.33a6 6 0 01-.74-4 2.52 2.52 0 011-1.26c.94-.64 1.67-.6 2.17.13a3.11 3.11 0 01-.47 3.55 15.08 15.08 0 01-1.96 1.58zm4.09-2.52a4.29 4.29 0 00.33-4.69c-.94-1.38-2.51-1.52-4.6-.09-3.6 2.45-4.15 6.52-.52 11.84 1.81 2.66 3.68 3.24 6.09 1.6a6.46 6.46 0 002.85-3.9 4.74 4.74 0 00-.55-4c-.92-1.35-2.07-1.57-3.52-.68zm8.83-11.52a22.39 22.39 0 011.56 3.19 13.36 13.36 0 01.86 4.44c.1 1.76-.15 2.83-.68 3.23s-1.37 0-2.34-1.35a10.21 10.21 0 01-1.74-3.75 7.54 7.54 0 01-.12-3.5 3.79 3.79 0 012.46-2.26m8.18 8.28q-1.55-2.39-3.66-6.09c-1.39-2.5-2.36-4.27-2.89-5.32a9.13 9.13 0 00-3 1.47 8.52 8.52 0 00-3.64 6.06 10.43 10.43 0 002.38 7.48c1.34 1.81 3.17 2.43 4.6 1.37a4.55 4.55 0 001.63-3.17 12.07 12.07 0 00-.33-4.79l.09-.06a29 29 0 001.34 2.6 24.27 24.27 0 001.29 2.08zm11.58-9.19c-.75-1-2.06-3-4-6.12l-4.61-7.63-1.83 1.49a4.9 4.9 0 01-1.54 4.08 2 2 0 00.73 1.16 4.28 4.28 0 001.92-2l2.86 4.69a59.85 59.85 0 013.63 6.64zm-4.9-13.13c.29-.65 1.61-2 4-4.06l1.43-1.23.09.11a32.27 32.27 0 001.21 8.63 26.39 26.39 0 002.94 7.14l.23.31 2.63-2.26a7.9 7.9 0 01-1.71-1.94 24.62 24.62 0 01-2.57-6.47 22.87 22.87 0 01-1-7.11 3.65 3.65 0 00-1.12-1.9l-7.61 6.57zM1200 798.3c1.78-1.63 2.42-2.78 2-3.45a4.81 4.81 0 00-1-1.16 10.89 10.89 0 01-2.72 3.14l-3.44 3.16 4.13 6c2.33-2.44 4.56-2.83 6.14-1.12a4.29 4.29 0 011.09 3 7.4 7.4 0 01-.73 3.35 8.85 8.85 0 01-1.76 2.56c.26 1 1.1 1.4 1.92.65a12.91 12.91 0 003.19-6.62 6.83 6.83 0 00-1.53-5.72c-1.88-2.05-4.6-1.77-7.61 1.15l-1.93-2.79zm8.1-8.71c1.28-1.27 2.85-1 4.73.95a18.06 18.06 0 013.1 4.08 6.71 6.71 0 011.08 3 3 3 0 01-.91 1.81c-1.32 1.3-3.34.65-5.14-1.17a14.92 14.92 0 01-2.26-3 14.34 14.34 0 01-1.24-2.6 4.17 4.17 0 01-.27-1.38 3.12 3.12 0 01.91-1.72m-.89-1.85a7 7 0 00-2 5.78 10.81 10.81 0 003.46 6.77 7.63 7.63 0 004.26 2.34 4.63 4.63 0 004.09-1.43 6.55 6.55 0 001.8-5.8 11.85 11.85 0 00-3.7-6.85 7 7 0 00-4-2.18 4.32 4.32 0 00-3.91 1.4zm16.79-13.44a23 23 0 01.81 4.07c.25 1.87.29 2.91.08 3.14l-.28.31c-.77-.89-1.92-2.34-3.5-4.32l-2.12 2.34q4.23 4.52 8.63 10.12l2.1-2.33c-2.37-2.63-3.81-4.23-4.31-4.83l.28-.31c.26-.29.9-.08 1.94.3a26.32 26.32 0 002.91.87c1.85.44 2.83.39 3.48-.33a5.67 5.67 0 001.12-2 37 37 0 01-8.06-1.67l-.8-7.9zm4-4.59a40.18 40.18 0 015 5.69 18.92 18.92 0 013.07 5.29l1.65-2a25.42 25.42 0 00-2.51-3.67 31.71 31.71 0 00-3.92-4.23l.11-.12c.71.4 2 1 3.89 1.82s3.23 1.42 4 1.83a2.65 2.65 0 00.93-1.6c-1.12-3-2.33-5.8-3.56-8.44l.07-.09q2 2.1 7.17 7l1.78-2.13c-1.72-1.46-4.91-4.47-9.62-9.06l-1.86 2.24c1 2.21 2.18 5 3.48 8.33l-.11.13c-3.19-1.46-5.74-2.56-7.61-3.35zm32-35.68c-.34-.35-.91-.85-1.7-1.52s-1.34-1.11-1.64-1.31l-1.64 2.57a58.43 58.43 0 014.94 3.86c2.34 1.92 4.08 3.46 5.27 4.65l1.69-2.64c-.35-.33-1-.88-2-1.71s-1.72-1.53-2.21-2a9.86 9.86 0 01-2.13-3.57c-.64-1.63-.78-2.74-.41-3.32s.9-.48 1.72 0a41.54 41.54 0 013.94 3.31c2 1.77 3.24 2.83 3.73 3.14l1.66-2.6c-.45-.28-1.75-1.38-3.91-3.25a49.31 49.31 0 00-4.34-3.53c-1.66-1.06-3-.88-3.89.57a4.58 4.58 0 00-.47 3.26 10.44 10.44 0 001.47 3.94zm8-18.12a24 24 0 012.7 2.31 13.69 13.69 0 012.54 3.74c.78 1.58 1 2.66.65 3.24s-1.27.51-2.68-.31a10.09 10.09 0 01-3.08-2.77 7.38 7.38 0 01-1.5-3.16 4 4 0 01.48-2 3.76 3.76 0 01.89-1.08m10.78 4.37q-2.36-1.57-5.77-4.15c-2.26-1.74-3.85-3-4.76-3.74a9.13 9.13 0 00-2.19 2.54 8.55 8.55 0 00-.94 7 10.38 10.38 0 005.14 5.93c2 1.14 3.87 1 4.77-.56a4.57 4.57 0 00.24-3.55 12.19 12.19 0 00-2.19-4.28v-.09a26.91 26.91 0 002.26 1.86 20.43 20.43 0 002 1.4zm1.95-6.81a26.72 26.72 0 01-2.7-2.13 14.28 14.28 0 01-2.81-3.76c-.91-1.65-1.2-2.78-.88-3.36s1.24-.57 2.69.2a10.68 10.68 0 013.29 2.73 7.88 7.88 0 011.73 3.13 3.91 3.91 0 01-1.32 3.19m-11-4.1q6.87 4.56 15.28 11.07a4.54 4.54 0 00.88-1.2 2.42 2.42 0 00.46-1.33c-1.51-1.12-2.8-2.12-3.89-3a8.24 8.24 0 00.89-7.35 10.86 10.86 0 00-5.57-6.18c-2-1-3.83-.78-4.68.81a4.54 4.54 0 00-.06 3.59 12.61 12.61 0 002.39 4.2v.09c-.57-.52-1.34-1.15-2.3-1.88a20.82 20.82 0 00-2-1.39zm16.99-15.31a20.53 20.53 0 004.19 2.86l1.24-2.54a61.29 61.29 0 01-5.4-3.2c-2.54-1.63-4.46-3-5.79-4l-1.33 2.74q2.59 1.64 4.18 2.85a11.81 11.81 0 012.92 3.45c.91 1.52 1.21 2.55.9 3.18s-.83.58-1.71.16a45.35 45.35 0 01-4.29-2.79 47.39 47.39 0 00-4-2.67l-1.33 2.75c.47.23 1.9 1.16 4.23 2.78a52.56 52.56 0 004.65 3q2.7 1.31 3.82-1a4.33 4.33 0 00-.06-3.39 13.26 13.26 0 00-2.29-4zm-2.25-8.55a2.17 2.17 0 01-.09-1.42c.38-.9 1.38-1 3-.3a12.11 12.11 0 013.68 2.34 5.36 5.36 0 011.68 2.37 1.44 1.44 0 01-.84 1.54 1.75 1.75 0 00.6.95 2.74 2.74 0 001 .64 2.4 2.4 0 001.07-1.38 4.2 4.2 0 00.08-2.41 7.59 7.59 0 00-1.34-2.95 67.57 67.57 0 00-4.11-6.08v-.13l7.47 5.42 1-2.42c-1.43-1.12-3.21-3.38-5.38-6.74l.07-.09a11.43 11.43 0 003.49 2.29c2.25.95 4 .65 4.59-.86a5.09 5.09 0 00.26-3.18 2.19 2.19 0 00-1.53-.1 1.67 1.67 0 01-.12 1.27c-.33.8-1.41.91-2.81.32a13.55 13.55 0 01-3.89-2.43 5.26 5.26 0 01-1.79-2.45 2.11 2.11 0 01.66-1.65c-.06-.48-1-1.15-1.58-1.3a2.83 2.83 0 00-.78 1.12c-.65 1.53-.29 3.25 1.06 5.18l.81 1.37 1 1.65c.45.71 1.45 2.19 2.33 3.31l-.07.09c-3.11-2.1-5.63-3.86-7.49-5.22l-1 2.32a20.86 20.86 0 012.88 3.12 33.7 33.7 0 012.47 3.55l-.08.06a10.77 10.77 0 00-3.39-2.19c-2.25-.95-3.82-.59-4.43.86a4.93 4.93 0 00-.07 3.65 2.25 2.25 0 001.5-.12m9.74-32.21c.8-2.28.82-3.59.1-4a4.83 4.83 0 00-1.46-.55 11 11 0 01-.93 4.06l-1.55 4.4 6.45 3.33c.91-3.24 2.7-4.64 4.9-3.87a4.26 4.26 0 012.38 2.17 7.43 7.43 0 01.93 3.29 9 9 0 01-.35 3.09c.68.74 1.63.72 2-.33a13 13 0 00-.3-7.34 6.83 6.83 0 00-4-4.34c-2.62-.92-4.9.61-6.18 4.6l-3-1.56zm4.72-11.96l7 3.32-1.5 4.79zm-3-1.38l7.92 12a2.78 2.78 0 001.67.81l2.16-6.91 4.18 2 .94-3-4.18-2 .47-1.8a2.4 2.4 0 00-1.84-.89l-.54 1.72-10-4.72zm5.65-10.84c.63-2.33.56-3.64-.18-4a4.64 4.64 0 00-1.5-.44 10.78 10.78 0 01-.63 4.11l-1.24 4.5 6.67 2.87c.68-3.3 2.36-4.83 4.61-4.21a4.25 4.25 0 012.53 2 7.38 7.38 0 011.16 3.23 9 9 0 01-.13 3.1c.73.69 1.68.6 2-.47a12.92 12.92 0 00-.82-7.31 6.81 6.81 0 00-4.33-4c-2.68-.74-4.84.94-5.84 5l-3.11-1.35zm2.2-11.68c.42-1.76 1.92-2.32 4.51-1.71a18.29 18.29 0 014.79 1.81 6.75 6.75 0 012.51 2 3 3 0 01.18 2c-.42 1.81-2.48 2.32-5 1.74a15.17 15.17 0 01-3.48-1.3 14.66 14.66 0 01-2.44-1.54 3.93 3.93 0 01-1-1 3.12 3.12 0 01-.15-1.94m-1.74-1.09a7.08 7.08 0 001.4 5.94 10.84 10.84 0 006.53 3.9 7.7 7.7 0 004.86-.29 4.61 4.61 0 002.7-3.38 6.55 6.55 0 00-1.56-5.87 11.86 11.86 0 00-6.77-3.84 7.09 7.09 0 00-4.57.29 4.35 4.35 0 00-2.46 3.19zM1309 596a21.14 21.14 0 012.85 3c1.21 1.46 1.79 2.32 1.74 2.62l-.07.41c-1.13-.34-2.88-1-5.26-1.8l-.56 3.11c4 1.05 8.21 2.38 12.69 4l.54-3.09q-5.1-1.44-6.22-1.8l.08-.41c.06-.38.71-.55 1.8-.78a24.93 24.93 0 002.93-.81c1.8-.61 2.6-1.17 2.77-2.13a5.73 5.73 0 00-.1-2.27 37.27 37.27 0 01-7.72 2.86l-4.87-6.27zm1-6.06a40 40 0 017.21 2.2 19.06 19.06 0 015.42 2.85l.34-2.56a25.66 25.66 0 00-4.08-1.78 31.3 31.3 0 00-5.56-1.5v-.16c.81 0 2.24-.21 4.27-.52s3.48-.52 4.39-.59a2.73 2.73 0 00.01-1.88c-2.54-1.94-5-3.67-7.5-5.26v-.11c1.87.47 5.14 1.19 9.8 2.12l.37-2.75c-2.23-.32-6.54-1.18-13-2.57l-.39 2.89q3.06 2 7.37 5.21v.17c-3.48.46-6.22.87-8.23 1.19zm15.43-46.25a26.23 26.23 0 01-3.38-.64 14.09 14.09 0 01-4.23-2c-1.57-1-2.34-1.91-2.34-2.57s.84-1.08 2.48-1.07a10.88 10.88 0 014.18.9 7.82 7.82 0 013 2 3.93 3.93 0 01.3 3.44m-11.64 1.46q8.19.86 18.66 2.73a4.18 4.18 0 00.23-1.46 2.28 2.28 0 00-.21-1.39c-1.86-.3-3.46-.59-4.85-.88a8.24 8.24 0 00-2.61-6.93 10.8 10.8 0 00-7.8-2.89c-2.22 0-3.76 1.08-3.77 2.88a4.5 4.5 0 001.61 3.2 12.43 12.43 0 004.06 2.62v.11c-.75-.2-1.72-.4-2.91-.61a21.34 21.34 0 00-2.39-.32zm7.94-21.53a21.19 21.19 0 005 .59l-.09-2.83c-1.16 0-3.25-.07-6.26-.33s-5.32-.55-7-.83l.1 3.05c2 .16 3.7.35 5 .59a11.7 11.7 0 014.19 1.7c1.5.92 2.25 1.7 2.27 2.39s-.47.91-1.44.94a44.68 44.68 0 01-5.1-.48 44.31 44.31 0 00-4.79-.51l.1 3c.52 0 2.22.15 5 .51a51 51 0 005.48.46c2-.06 3-1 2.92-2.68a4.38 4.38 0 00-1.62-3 13.39 13.39 0 00-3.89-2.49zm-8.51-7.28a40.67 40.67 0 017.51.66 18.94 18.94 0 015.89 1.67l-.19-2.57a25.2 25.2 0 00-4.36-.9 31.27 31.27 0 00-5.76-.31v-.17c.79-.2 2.15-.66 4.07-1.39s3.3-1.23 4.18-1.49a2.74 2.74 0 00-.45-1.8c-2.88-1.37-5.7-2.55-8.43-3.6v-.11c1.92.08 5.27.11 10 .05l-.21-2.77q-3.36.22-13.21.17l.22 2.9c2.27.89 5 2.07 8.29 3.58v.17c-3.31 1.17-5.9 2.14-7.8 2.87zm-2.56-28.96l7.71.05.68 5zm-3.33 0l12.25 7.48a2.8 2.8 0 001.85 0l-1-7.18h4.62l-.42-3.13h-4.63l-.24-1.79a2.45 2.45 0 00-2 0l.24 1.79h-11zm-.12-12.07c-.36-2.08 1.07-3.23 3.17-3.6a4.42 4.42 0 013.15.6 3.41 3.41 0 011.68 2.3c.34 2-.77 3.15-2.93 3.53a5.46 5.46 0 01-4.07-.84 3.74 3.74 0 01-1-2m-2-.21a7.24 7.24 0 002.78 4.56 6.35 6.35 0 005.24 1.27c2.87-.5 4.45-2.42 4-5.26a5.41 5.41 0 00-3-4.13v-.11a8.88 8.88 0 015.73 2.43 8 8 0 012.63 4.67c1 .19 1.72-.31 1.55-1.26a11.67 11.67 0 00-4.54-6.45 12.49 12.49 0 00-9.49-2q-5.83 1.01-4.91 6.29zm-.91-14.28c-.39-1.77.73-2.92 3.33-3.49a18.32 18.32 0 015.1-.44 6.81 6.81 0 013.11.69 3 3 0 011 1.73c.4 1.82-1.24 3.17-3.73 3.72a16 16 0 01-6.57 0 4.14 4.14 0 01-1.3-.51 3.13 3.13 0 01-1-1.69m-2-.24a7 7 0 003.83 4.76 10.81 10.81 0 007.57.7 7.68 7.68 0 004.25-2.35 4.61 4.61 0 001-4.22 6.53 6.53 0 00-3.94-4.63 11.91 11.91 0 00-7.76-.54 7 7 0 00-4 2.24 4.33 4.33 0 00-.93 4.03zm-1.46-14.2c-.46-1.74.6-2.94 3.18-3.62a18.31 18.31 0 015.08-.65 6.85 6.85 0 013.13.56 3 3 0 011.11 1.69c.47 1.8-1.11 3.22-3.58 3.87a15.44 15.44 0 01-3.69.48 14.1 14.1 0 01-2.87-.22 3.87 3.87 0 01-1.32-.46 3.05 3.05 0 01-1-1.65m-2-.15a7.06 7.06 0 004 4.6 10.83 10.83 0 007.59.38 7.66 7.66 0 004.16-2.52 4.6 4.6 0 00.8-4.26 6.55 6.55 0 00-4.12-4.46 11.94 11.94 0 00-7.78-.22 7 7 0 00-3.9 2.41 4.29 4.29 0 00-.84 4.07zm-3.34-21.41a22.68 22.68 0 013.91 1.38c1.74.74 2.65 1.24 2.74 1.54l.12.39c-1.15.21-3 .46-5.51.8l.94 3c4-.9 8.38-1.63 13.1-2.25l-.92-3c-3.48.69-5.58 1.11-6.36 1.23l-.12-.4c-.12-.37.39-.81 1.24-1.51a27.35 27.35 0 002.25-2.06c1.32-1.37 1.78-2.23 1.49-3.16a5.9 5.9 0 00-1.13-2 37.27 37.27 0 01-5.57 6.08l-7.19-3.36zm-1.94-5.58a40.51 40.51 0 017.4-1.43 18.54 18.54 0 016.12 0l-.89-2.43a25.18 25.18 0 00-4.43.34 31.34 31.34 0 00-5.63 1.27v-.16c.7-.41 1.88-1.23 3.53-2.45s2.84-2.08 3.61-2.57a2.77 2.77 0 00-.92-1.62c-3.15-.52-6.19-.89-9.09-1.15v-.1c1.87-.45 5.09-1.34 9.65-2.7l-1-2.6q-3.18 1.13-12.66 3.77l1 2.74c2.42.23 5.4.61 9 1.17l.06.15c-2.86 2-5.09 3.68-6.72 4.9zm-12.05-44.58a34.7 34.7 0 003.39-1 32 32 0 003.18-1.14l-1.25-2.54a52 52 0 01-5.57 2.07c-2.85.94-5.21 1.68-7 2.17l1.35 2.74a22.61 22.61 0 013.07-.92 7.89 7.89 0 013.42 0c1.2.25 1.93.66 2.19 1.18s0 1-.94 1.49a16.2 16.2 0 01-3.09 1 16.41 16.41 0 00-2.83.91l1.35 2.73a21.83 21.83 0 013.06-1 20.83 20.83 0 003.46-1.21c1.76-.87 2.29-2.06 1.57-3.53q-1.3-2.66-5.26-2.88zm-5-13.38a20.86 20.86 0 004.78-1.73l-1.35-2.49c-1 .55-2.94 1.4-5.74 2.51s-5 1.89-6.61 2.38l1.46 2.68q2.84-1.15 4.75-1.72a11.81 11.81 0 014.51-.36c1.75.16 2.77.52 3.1 1.13s0 1-.87 1.48a44.24 44.24 0 01-4.77 1.86 46.47 46.47 0 00-4.51 1.69l1.45 2.68c.47-.25 2.06-.86 4.74-1.8a49.37 49.37 0 005.11-2q2.63-1.43 1.4-3.7a4.39 4.39 0 00-2.78-1.93 13.37 13.37 0 00-4.59-.48zm-14.5-8.77a21.78 21.78 0 014.13.43c1.86.31 2.86.59 3 .85l.21.36c-1.07.47-2.8 1.14-5.17 2.06l1.62 2.72c3.7-1.81 7.77-3.54 12.22-5.24l-1.6-2.7c-3.22 1.49-5.17 2.39-5.9 2.69l-.21-.36c-.2-.33.19-.88.86-1.77a25.56 25.56 0 001.7-2.52c1-1.64 1.21-2.59.71-3.42A5.62 5.62 0 001272 344a37.53 37.53 0 01-4 7.21l-7.78-1.59zm-5.52-11.86a23.18 23.18 0 013.28-1.36 13.23 13.23 0 014.49-.58c1.76 0 2.82.32 3.18.88s-.11 1.36-1.49 2.25a10.13 10.13 0 01-3.86 1.5 7.4 7.4 0 01-3.49-.09 4 4 0 01-1.54-1.32 3.83 3.83 0 01-.57-1.28m8.78-7.65q-2.48 1.4-6.31 3.28t-5.49 2.55a9 9 0 001.28 3.11 8.52 8.52 0 005.82 4 10.38 10.38 0 007.62-1.91c1.89-1.22 2.61-3 1.65-4.5a4.59 4.59 0 00-3.06-1.83 12.13 12.13 0 00-4.8 0l-.06-.09a28 28 0 002.68-1.17c1.08-.53 1.78-.92 2.16-1.16zm-10.78 1.22a10.28 10.28 0 01-2-.57 3 3 0 01-1.33-.83c-.36-.53-.24-1 .33-1.38a2.88 2.88 0 011.83-.23 17.35 17.35 0 012.71.39 14.69 14.69 0 002.88.26 4.22 4.22 0 002.3-.58 2.56 2.56 0 00.66-3.91 5.93 5.93 0 00-2.38-1.93 7.83 7.83 0 00-3-.88 1.68 1.68 0 00-.41 1.56 6 6 0 011.92.53 3.18 3.18 0 011.37.94c.4.57.27 1.07-.37 1.51a3.07 3.07 0 01-1.91.32 22.72 22.72 0 01-2.75-.36 11.88 11.88 0 00-2.89-.26 4.19 4.19 0 00-2.36.59 2.36 2.36 0 00-.54 3.49 8.36 8.36 0 005.39 2.85 1.66 1.66 0 00.51-1.51m-2.87-12.4a9.52 9.52 0 01-6.16 2.13 2.93 2.93 0 01-1.62-1.1c-.78-1.05-.37-2.12 1.68-3.65 2.22-1.66 4.64-2.42 5.9-2.25a2.76 2.76 0 011.62 1c.9 1.2.43 2.48-1.42 3.86m-9.65 1.72a6.33 6.33 0 005.31 2.62 10.24 10.24 0 006.39-2.2c2.67-2 2.88-4.54 1.28-6.7a6.2 6.2 0 00-5-2.59 10.59 10.59 0 00-6.59 2.46c-2.45 1.82-3.12 4.11-1.39 6.42zm-.11-22.01c-1 .76-3 2.08-6.11 4l-7.61 4.64 1.5 1.82a4.92 4.92 0 014.09 1.52 2 2 0 001.16-.73 4.35 4.35 0 00-2-1.92l4.68-2.87a58.88 58.88 0 016.62-3.66zm-18-1.35l6.45-4.23 3.32 3.78zm-2.76 1.86l14.34-.54a2.8 2.8 0 001.56-1l-4.78-5.45 3.86-2.54-2.09-2.38-3.86 2.55-1.19-1.36a2.41 2.41 0 00-1.72 1.11l1.19 1.35-9.23 6.07zm-5.44-17.35c-.74-2.66-.27-3.81.82-4.88a2.72 2.72 0 012.22-.86 3.88 3.88 0 011.95 1.16 2.64 2.64 0 01.85 2 2.82 2.82 0 01-.9 1.93c-1.09 1.07-2.75 1.29-4.94.64m-2.16.41c.51 2 .26 3.52-.75 4.51a2.66 2.66 0 01-2.15.82 3.28 3.28 0 01-1.81-1.1 2 2 0 01.11-3.21 3.84 3.84 0 012.19-1.06 5.55 5.55 0 012.41.05zm-6.25 5.16a6.85 6.85 0 004 2.06 4.23 4.23 0 003.82-1.18 5.3 5.3 0 001.32-4.72h.12c2.27.88 4.8.89 6.49-.77s1.68-3.94-.73-6.4a7 7 0 00-4.18-2.16 4.67 4.67 0 00-4.07 1.35 5.07 5.07 0 00-1.15 5.06l-.08.07a8.39 8.39 0 00-3.28-.32 4.66 4.66 0 00-2.87 1.3c-1.41 1.33-1.59 3.52.61 5.72zm-7.1-12.21c-1.32-1.24-1-2.81.77-4.76a18.24 18.24 0 014-3.24 6.67 6.67 0 012.94-1.19 3.05 3.05 0 011.84.84c1.35 1.28.77 3.32-1 5.18a15.08 15.08 0 01-2.87 2.37 13.82 13.82 0 01-2.56 1.33 4 4 0 01-1.36.32 3 3 0 01-1.75-.85m-1.82 1a7 7 0 005.85 1.76 10.87 10.87 0 006.64-3.7 7.69 7.69 0 002.18-4.35 4.62 4.62 0 00-1.58-4 6.52 6.52 0 00-5.86-1.59 11.93 11.93 0 00-6.71 3.94 7 7 0 00-2 4.11 4.32 4.32 0 001.47 3.79zm-9.29-10.91c-1.37-1.18-1.17-2.77.57-4.78a17.93 17.93 0 013.83-3.41 6.58 6.58 0 012.89-1.31 3 3 0 011.87.76c1.41 1.22.91 3.28-.76 5.22a15.14 15.14 0 01-2.77 2.48 14.21 14.21 0 01-2.49 1.44 4.24 4.24 0 01-1.35.38 3.09 3.09 0 01-1.79-.78m-1.78 1a7.06 7.06 0 005.92 1.51 10.82 10.82 0 006.48-4 7.76 7.76 0 002-4.44 4.61 4.61 0 00-1.75-4A6.52 6.52 0 001194 257a11.8 11.8 0 00-6.54 4.21 7.09 7.09 0 00-1.86 4.19 4.32 4.32 0 001.65 3.82zm-14.7-15.66a22.94 22.94 0 014-1.13c1.85-.4 2.89-.51 3.13-.32l.33.25c-.82.84-2.19 2.1-4 3.83l2.5 1.93c2.78-3 5.92-6.16 9.42-9.39l-2.48-1.91c-2.44 2.57-3.92 4.12-4.48 4.67l-.33-.25c-.31-.24-.16-.89.14-2a27.61 27.61 0 00.65-3c.29-1.88.16-2.85-.61-3.45a5.88 5.88 0 00-2.06-1 36.88 36.88 0 01-1 8.17l-7.81 1.4zm-4.86-3.65a40.53 40.53 0 015.29-5.37 18.72 18.72 0 015-3.47l-2.11-1.49a26.13 26.13 0 00-3.47 2.78 31.55 31.55 0 00-3.91 4.24l-.13-.1c.35-.73.85-2.07 1.52-4s1.16-3.33 1.51-4.16a2.67 2.67 0 00-1.67-.81 118.4 118.4 0 00-8.14 4.2l-.09-.06q1.93-2.16 6.42-7.7l-2.26-1.6q-2 2.73-8.29 10.29l2.38 1.68c2.12-1.18 4.8-2.56 8-4.11l.14.1c-1.21 3.29-2.11 5.92-2.76 7.84zM1133 212.46q-5.48 7.71-7.91 10.68l2.84 1.58q.83-1.31 3.06-4.3a19.28 19.28 0 014.15 2.31q-2 2.78-3.21 4.22l2.86 1.59q3.42-5.21 7.87-10.71l-2.82-1.57c-.85 1.31-2 2.93-3.55 4.91a19.34 19.34 0 01-4.15-2.3c.46-.67 1.67-2.28 3.65-4.86zm-7.81-.75a8.24 8.24 0 01-.86 1.34 7.48 7.48 0 01-2.51 1.25 2.89 2.89 0 01-2.11 0c-.54-.28-.57-.89-.11-1.8a6 6 0 013.07-2.74 2.82 2.82 0 012 .19 1.12 1.12 0 01.5 1.71m-3.52 9.7c.33-.46 1.34-1.84 3.08-4.1a38.09 38.09 0 003.27-4.72c.86-1.71.42-3-1.31-3.87a7.29 7.29 0 00-5.83-.29 7.54 7.54 0 00-4.51 3.73 2.33 2.33 0 001 3.43c1.22.61 3.56.47 5.64-.63l.06.07c-.63.64-1.38 1.5-2.27 2.58a20.38 20.38 0 00-1.8 2.44zm-14.09-16.13c-1.14 2.53-2.54 4.21-4.23 5a2.88 2.88 0 01-1.9-.16c-1.19-.54-1.35-1.68-.29-4a12.31 12.31 0 012-3.19 6.54 6.54 0 012.13-1.68 2.53 2.53 0 011.83.07c1.22.55 1.35 1.86.41 3.93m-7.42 6.42c2.94 1.33 6.12.15 8.35-2.62a11.32 11.32 0 012.12 1.05q-1.8 2.94-2.85 4.47l2.88 1.31q3-5.46 7-11.32l-2.83-1.29c-.75 1.37-1.8 3.09-3.15 5.19a11.22 11.22 0 01-2.09-.89c.25-.49.45-.86.56-1.11 1.46-3.21.68-5.6-1.67-6.67a6.1 6.1 0 00-5.54.2 10.77 10.77 0 00-4.6 5.38c-1.27 2.84-.76 5.14 1.87 6.33zM1090 199.67a4.07 4.07 0 00-.87 2.13l6 2.42a3.6 3.6 0 00.87-2.14zm-12.4 8.75c1.32.43 2.1.33 2.32-.3a3.08 3.08 0 00-2.08-3.92 4.79 4.79 0 00-3.06-.12 6.83 6.83 0 00-2.6 1.3 1.83 1.83 0 00.91 1.13 4.42 4.42 0 013.61-.9c1 .37 1.3 1.3.9 2.81m2.26-14.12a21.13 21.13 0 002.43-4.46l-2.66-1a59.24 59.24 0 01-2.64 5.69c-1.37 2.69-2.5 4.73-3.37 6.16l2.87 1q1.35-2.73 2.42-4.43a11.64 11.64 0 013.14-3.26c1.41-1.05 2.42-1.45 3.07-1.21s.66.77.33 1.68a46.87 46.87 0 01-2.34 4.56 43.79 43.79 0 00-2.27 4.25l2.87 1c.18-.5 1-2 2.35-4.49a49.48 49.48 0 002.47-4.92c.69-1.87.22-3.11-1.39-3.7a4.39 4.39 0 00-3.37.4 13.09 13.09 0 00-3.75 2.67zm-8.13-3.04a9.58 9.58 0 01-3.78 5.31 3 3 0 01-2 0c-1.24-.4-1.53-1.52-.74-4 .85-2.64 2.37-4.66 3.5-5.25a2.75 2.75 0 011.9-.12c1.43.46 1.8 1.77 1.09 4m-6.87 7a6.37 6.37 0 005.85-.95 10.27 10.27 0 003.93-5.49c1-3.17-.28-5.37-2.84-6.2a6.19 6.19 0 00-5.56.77 10.56 10.56 0 00-4 5.82c-.86 2.99-.09 5.22 2.65 6.11zm-5.74-14.26a25.34 25.34 0 01-1.5 3.1 14.29 14.29 0 01-3.07 3.55c-1.41 1.25-2.45 1.76-3.09 1.58s-.82-1.09-.38-2.67a10.77 10.77 0 012-3.8 7.86 7.86 0 012.68-2.36 3.89 3.89 0 013.4.6m-1.63 11.62q3-7.68 7.52-17.29a4.18 4.18 0 00-1.36-.61 2.33 2.33 0 00-1.39-.16c-.77 1.71-1.47 3.19-2.12 4.45a8.26 8.26 0 00-7.37.7 10.87 10.87 0 00-4.84 6.78c-.6 2.14.06 3.91 1.8 4.39a4.56 4.56 0 003.51-.71 12.49 12.49 0 003.59-3.24h.11c-.39.67-.84 1.55-1.35 2.65a21.7 21.7 0 00-.94 2.22zm-21.2-5.5a21.61 21.61 0 013.18-2.66c1.52-1.12 2.41-1.65 2.71-1.58l.41.1c-.41 1.1-1.13 2.81-2.12 5.14l3.08.74c1.28-3.92 2.86-8.05 4.74-12.43l-3-.73c-1.17 3.35-1.89 5.38-2.17 6.11l-.41-.1c-.38-.09-.51-.75-.67-1.84a25.77 25.77 0 00-.63-3c-.51-1.83-1-2.67-2-2.9a6 6 0 00-2.28 0 37.71 37.71 0 012.4 7.88l-6.55 4.49zm-12.18-15.96c-.26 1.2-1 3.52-2.14 7l-2.87 8.44 2.32.44a4.89 4.89 0 014.11-1.45 2 2 0 00.42-1.31 4.29 4.29 0 00-2.79-.16l1.74-5.21a60.85 60.85 0 012.75-7zm-7.58 12.26a21.13 21.13 0 01-4.19-.36l-2.36-.37v-.13l5.72-3.48a1.58 1.58 0 00.29-1.3c-2.82-.11-4.19-1.57-3.9-3.4a4.36 4.36 0 011.8-2.87 7.86 7.86 0 013.29-1.41 7.77 7.77 0 013.15 0 1.31 1.31 0 00.37-1.12.93.93 0 00-.9-.85 13.46 13.46 0 00-6.42 1 7.22 7.22 0 00-4.76 5.4c-.36 2.22 1 3.84 3.87 4.44l-5.72 3.17a5.92 5.92 0 00-.66 2.17l9.63 1.52zm-25.11-3.97l1.86-7.48 5 .52zm-.76 3.24l10.15-10.13a2.74 2.74 0 00.47-1.79l-7.2-.76 1.11-4.49-3.15-.32-1.11 4.48-1.8-.18a2.4 2.4 0 00-.51 2l1.79.19-2.65 10.72zm-11.76-3.41c-2.4-.17-3.68.16-3.84 1a4.74 4.74 0 00-.14 1.55 10.87 10.87 0 014.16-.19l4.65.31 1.49-7.1c-3.37 0-5.19-1.36-5-3.68a4.24 4.24 0 011.44-2.88 7.6 7.6 0 012.94-1.78 9 9 0 013.06-.48c.53-.86.26-1.76-.85-1.84a13 13 0 00-7 2.25 6.8 6.8 0 00-3.09 5c-.19 2.77 1.88 4.56 6.07 4.73l-.7 3.32zm-11.91.14c-1.8-.06-2.65-1.41-2.57-4.08a17.85 17.85 0 01.83-5.05 6.7 6.7 0 011.42-2.85 3 3 0 011.93-.58c1.86.06 2.77 2 2.69 4.53a15 15 0 01-.58 3.67 14.12 14.12 0 01-1 2.69 4 4 0 01-.81 1.14 3.07 3.07 0 01-1.88.53m-.72 1.92a7 7 0 005.54-2.55 10.77 10.77 0 002.53-7.17 7.68 7.68 0 00-1.24-4.7 4.62 4.62 0 00-3.86-2 6.51 6.51 0 00-5.44 2.69 11.86 11.86 0 00-2.42 7.4 7 7 0 001.19 4.42 4.34 4.34 0 003.71 1.91zm-21.31-2.9a22.62 22.62 0 012.39-3.39c1.18-1.48 1.92-2.22 2.22-2.23h.39c-.11 1.17-.37 3-.73 5.52l3.17-.08q.35-6.16 1.39-13.22l-3.14.08c-.27 3.53-.44 5.67-.53 6.45h-.42c-.38 0-.68-.59-1.12-1.61a23.79 23.79 0 00-1.37-2.71c-1-1.65-1.67-2.32-2.64-2.3a5.76 5.76 0 00-2.21.56 37.1 37.1 0 014.34 7l-5.18 6zm-6.1.24a40.2 40.2 0 01.71-7.5 19 19 0 011.72-5.87l-2.57.17a24.37 24.37 0 00-.93 4.35 31.52 31.52 0 00-.37 5.75h-.16c-.19-.79-.65-2.15-1.36-4.08s-1.2-3.31-1.45-4.18a2.71 2.71 0 00-1.81.42c-1.39 2.88-2.59 5.69-3.66 8.4h-.11c.09-1.93.14-5.27.13-10l-2.77.18c.12 2.25.14 6.64.05 13.21l2.91-.19c.91-2.26 2.11-5 3.65-8.26h.12c1.14 3.31 2.1 5.92 2.81 7.82zm-29.9-5.3a4 4 0 11-4-4 4 4 0 014 4m245.41 52.3a4 4 0 11-4-4 4 4 0 014 4m140.7 163.94a4 4 0 11-4-4 4 4 0 014 4M1324 563.22a4 4 0 11-4-4 4 4 0 014 4m-68.23 187.68a4 4 0 11-4-4 4 4 0 014 4m-156.38 122.87a4 4 0 11-4-4 4 4 0 014 4M930.68 899.4a4 4 0 11-4-4 4 4 0 014 4M742 827.35a4 4 0 11-4-4 4 4 0 014 4M620.61 664.13a4 4 0 11-4-4 4 4 0 014 4m-13.15-217.89a4 4 0 11-4-4 4 4 0 014 4m133.94-200.6a4 4 0 11-4-4 4 4 0 014 4" fill="#1d1b19"/><path d="M201.73 120.21c-.11-1.76-.18-5.11-.18-10v-1.19c0-5.15.07-8.71.18-10.62H184.3c.18 1.91.29 5.44.29 10.59v1.65c0 4.65-.11 7.85-.29 9.54h4.79c-.18-2.45-.25-6-.25-10.83v-8a39.15 39.15 0 014.21-.14 39.67 39.67 0 014.25.14v8c0 4.78-.11 8.42-.29 10.83zm9.61 0h1.19c-1.37 2.77-2.63 4.68-3.82 5.65a3.28 3.28 0 002.81 2.09c.86-1 2.81-4.82 5-11l1.19-3.49c2.38-6.84 3.56-10.3 3.6-10.33h-3.71c-.36 1.72-.93 4.06-1.73 7s-1.4 5.15-1.9 6.52h-.18c-2.6-7.67-4-12.21-4.29-13.57h-5zm27.36 0c-.15-2-.22-4.79-.22-8.24v-1.33q0-1.78.22-7.56h-15.09c.18 2.66.26 5.18.26 7.52v1.55c0 2.41-.08 5.07-.26 8.06H228c-.18-2.12-.25-5.36-.25-9.79v-4.75a25.27 25.27 0 013.38-.15 26.16 26.16 0 013.42.15v4.64c0 4.5-.1 7.78-.32 9.9zm11.99-13.86a7.79 7.79 0 014.21-1.22c2.16 0 3.27 1 3.27 2.7a2.74 2.74 0 01-3 2.59 11.14 11.14 0 01-2.59-.29 2.82 2.82 0 000 2.56 11.13 11.13 0 012.56-.29c2.19 0 3.74 1.08 3.74 2.81a3 3 0 01-1.15 2.52 5.23 5.23 0 01-2.45.47 7.66 7.66 0 01-4.53-1.41 4 4 0 00-1.19 2.38 5.84 5.84 0 002.3 1.08 12.09 12.09 0 003.31.5 10.62 10.62 0 005.73-1.4 4.7 4.7 0 002.23-4.18c0-2.16-1.55-3.63-3.89-3.92v-.18a4.34 4.34 0 003.1-4.14c0-2.56-1.95-4.39-5.65-4.39a14.61 14.61 0 00-6.63 1.33 5.14 5.14 0 00.69 2.48m19.3 3.85a8.17 8.17 0 01.44-2.48 6.2 6.2 0 011-2 4.31 4.31 0 012.6-.76 3.29 3.29 0 013.45 3.39 2.52 2.52 0 01-.29 1.26 17.5 17.5 0 01-3.25.39c-1.73.11-3 .18-3.93.18m4.61-7.66a8 8 0 00-6.33 2.66 9.56 9.56 0 00-2.27 6.48c0 5.47 3.09 8.86 8.31 8.86a12 12 0 004-.65 7.65 7.65 0 002.7-1.51 3.29 3.29 0 00-.61-1.91 8.39 8.39 0 01-4.75 1.29c-3.17 0-5.4-1.76-5.58-5.5l2.66-.18a56.93 56.93 0 008.46-1.16 6.87 6.87 0 00.44-2.26 5.79 5.79 0 00-1.84-4.32 7 7 0 00-5.21-1.78zm13.41 17.69q-.06-1.35-.07-12.74h.25c.25.72.76 1.87 1.44 3.45l1.22 2.74 1.52 3.38h2.3l1.26-2.7c1.3-2.88 2.27-5.14 2.88-6.8h.29v5.87c0 3.03 0 5.25-.15 6.8h4.18a124.52 124.52 0 01-.83-13.21l-.07-3.92h-3.85c-.33 1-1.69 4.06-4.11 9.25h-.14c-1.12-2.27-2.56-5.33-4.32-9.25h-4.07l-.29 6.19c-.32 5.4-.61 9-.86 10.94zm34.09 0q-.18-2.47-.18-8.21v-1.33c0-3.49.07-6 .21-7.59h-12.66a15.22 15.22 0 01.32 3.56v1.19c0 6.73-1.08 9.5-3.64 9.11a5.73 5.73 0 00.08 3.6c2.77.43 4.71-.58 5.72-2.88s1.44-5.3 1.44-9.51v-2.48c.44 0 1.19-.07 2.27-.07s1.87 0 2.34.07v7.2a64.62 64.62 0 01-.29 7.34zm19.69 0c-.14-1.91-.21-4.35-.21-7.34v-2.41c0-2.78.07-5.26.21-7.38h-3.6c-.46.9-1.76 2.91-3.92 6s-3.46 5.08-3.92 6h-.22a47.33 47.33 0 00.25-5.51v-2.12a33.66 33.66 0 01.18-4.39h-4.35c.18 2 .25 4.5.25 7.34v1.6c0 3.64-.07 6.34-.25 8.17h3.63c.58-1 1.91-3.06 4-6.12s3.39-5.07 3.89-6h.14c-.1 1.44-.18 3.42-.18 6v1.69a28.72 28.72 0 01-.28 4.43zm9.4-1.21a2.94 2.94 0 002.2 1.33L366 98a3.28 3.28 0 00-2.16-1.3zm28.26-11.46a4 4 0 012.56-2 3.73 3.73 0 011.26-.11c2.34.18 3.7 2.27 3.7 5.91 0 2.77-.61 4.78-1.87 6a5.34 5.34 0 01-3.31.9 4.93 4.93 0 01-2.34-.47zm-4.25-4.28c.22 2 .33 5.61.33 10.72v1.77q0 9-.33 11.45h4.5a49.72 49.72 0 01-.25-5.87v-1a10.63 10.63 0 002.27.25 9.64 9.64 0 006.73-2.56 9.34 9.34 0 002.81-7.2c0-4.75-2.2-7.52-5.65-7.95a6 6 0 00-3.1.82 4.13 4.13 0 00-3.24 1.8l.07-.5v-2.23zm24.63 16.95h1.18c-1.36 2.77-2.62 4.68-3.81 5.65a3.28 3.28 0 002.81 2.09c.86-1 2.8-4.82 5-11l1.19-3.49c2.37-6.84 3.56-10.3 3.6-10.33h-3.71c-.36 1.72-.94 4.06-1.73 7a66.2 66.2 0 01-1.91 6.52h-.18c-2.59-7.67-4-12.21-4.28-13.57h-5zm15.58-8.78a9.66 9.66 0 01.62-4.11 4.18 4.18 0 013.56-1.69c2.45 0 3.74 2.41 3.74 6.59a8.66 8.66 0 01-1.29 5.15 3.48 3.48 0 01-2.38.86c-2.59 0-4.25-2.52-4.25-6.8m5.3-8.14a7.88 7.88 0 00-6.84 4h-.15a12.06 12.06 0 01.79-4.18 6.4 6.4 0 011.19-1.94A8 8 0 01421 99c2.84-.18 4.57-.57 5.22-1.22a5.5 5.5 0 000-3.71c-.54.61-2.12 1-4.79 1.3a9.39 9.39 0 00-7.66 4.24 17.22 17.22 0 00-2.52 9.65c0 7.31 3.09 11.38 8.28 11.38a7.36 7.36 0 006-2.59 10.44 10.44 0 002.16-6.81c-.03-5.03-2.69-7.95-6.9-7.95zm14.72 4.25a4 4 0 012.56-2 3.73 3.73 0 011.26-.11c2.34.18 3.7 2.27 3.7 5.91 0 2.77-.61 4.78-1.87 6a5.34 5.34 0 01-3.31.9 4.93 4.93 0 01-2.34-.47zm-4.25-4.28c.22 2 .33 5.61.33 10.72v1.77q0 9-.33 11.45h4.5a49.72 49.72 0 01-.25-5.87v-1a10.63 10.63 0 002.27.25 9.64 9.64 0 006.73-2.56 9.34 9.34 0 002.81-7.2c0-4.75-2.2-7.52-5.65-7.95a6 6 0 00-3.1.82 4.13 4.13 0 00-3.24 1.8l.07-.5v-2.23zm35.28 16.95c-.14-1.91-.21-4.35-.21-7.34v-2.41c0-2.78.07-5.26.21-7.38h-3.6c-.47.9-1.76 2.91-3.92 6s-3.46 5.08-3.93 6h-.21a47.33 47.33 0 00.25-5.51v-2.12a33.66 33.66 0 01.18-4.39H451c.18 2 .26 4.5.26 7.34v1.6c0 3.64-.08 6.34-.26 8.17h3.64c.58-1 1.91-3.06 4-6.12s3.38-5.07 3.89-6h.14c-.11 1.44-.18 3.42-.18 6v1.69a28.52 28.52 0 01-.29 4.43zm15.12-17.13c-.72 1.18-1.76 2.7-3.09 4.46s-2.2 2.66-2.6 2.66h-.64v-1.65a41.62 41.62 0 01.25-5.47h-4.43c.18 2.19.25 4.78.25 7.84v1.26c0 3.21-.07 5.91-.25 8h4.43a68.54 68.54 0 01-.25-6.87v-1.48h.75c.4 0 1 .83 1.73 2.23.47.87 1.37 2.38 2.2 3.67.28.44.82 1.16 1 1.44l.36.51a5 5 0 00.86.9 11 11 0 004.14-.58 21 21 0 01-1.65-2c-.69-.94-1.26-1.8-1.77-2.56l-1.83-2.88-1.26-2c.43-.5 2.55-3 6.33-7.48zm10.62 12.02a3.34 3.34 0 01.72-2.1 6.8 6.8 0 013.71-.69 6.66 6.66 0 012 .25v3.28A4.43 4.43 0 01495 118a2.62 2.62 0 01-2.7-2.88m10.51-5.87c0-4.75-1.9-6.66-6-6.66a17.24 17.24 0 00-7.67 2 3 3 0 00.76 2.16 11.54 11.54 0 015.25-1.48c2.77 0 3.57 1.4 3.53 4.82-7.31.26-10.51 1.73-10.51 5.8a4.59 4.59 0 004.89 4.75 7 7 0 005.73-2.84h.14a22.22 22.22 0 00.25 2.81l3.89-.33a52.91 52.91 0 01-.29-7.38zm2.58-3.11a25 25 0 014.17-.29h1.3v3.71a91.79 91.79 0 01-.4 10.65h4.72a94.56 94.56 0 01-.4-10.55v-3.81h1.33a21.36 21.36 0 014.14.29v-3.06h-14.86zm24.84-1.08c3.06 0 4.5 3 4.5 7.16a7.4 7.4 0 01-1.48 5 4.72 4.72 0 01-2.34.72c-3 0-4.82-2.63-4.82-7.34a7.05 7.05 0 011.29-4.68 4 4 0 012.85-.9m.57-2.6a8.51 8.51 0 00-6.33 2.56 9.17 9.17 0 00-2.49 6.73c0 5.37 3.24 8.86 8.46 8.86a7.85 7.85 0 006-2.49 9.39 9.39 0 002.34-6.62c.01-5.54-2.94-9-7.98-9zm15.84 5.12a4 4 0 012.56-2 3.76 3.76 0 011.26-.11c2.34.18 3.71 2.27 3.71 5.91 0 2.77-.62 4.78-1.88 6a5.32 5.32 0 01-3.31.9 5 5 0 01-2.34-.47zm-4.25-4.28c.22 2 .33 5.61.33 10.72v1.77q0 9-.33 11.45h4.5a49.72 49.72 0 01-.25-5.87v-1a10.7 10.7 0 002.27.25 9.62 9.62 0 006.73-2.56 9.34 9.34 0 002.81-7.2c0-4.75-2.2-7.52-5.65-7.95a6 6 0 00-3.1.82 4.13 4.13 0 00-3.24 1.8l.07-.5v-2.23z" fill="#ea533d"/><path d="M194.44 971c-.07-1.46-.12-3.69-.12-6.64v-.8c0-3.12.05-5.47.12-7.08h-11.06c.12 1.28.16 3.63.16 7.06v1.1c0 3.1 0 5.24-.16 6.36h2.45c-.1-1.63-.14-4-.14-7.22V958c.5 0 1.58-.07 3.24-.07s2.75 0 3.25.07v5.74c0 3.19-.05 5.62-.17 7.22zm6.69 0h.6a15 15 0 01-2.47 4 1.84 1.84 0 001.54 1.1c.79-1 1.83-3.45 3.15-7.25l.89-2.56 1-3.15c.56-1.61.94-2.76 1.21-3.43h-2q-.4 1.88-1.28 4.94a44.65 44.65 0 01-1.39 4.44h-.12q-2.75-7.34-3.2-9.38h-2.58zm17.18 0c-.09-1.36-.14-3.19-.14-5.49v-.89c0-.72.05-2.35.14-4.92h-9.43c.12 1.78.17 3.41.17 4.9v1c0 1.61-.05 3.38-.17 5.37h2.31c-.09-1.41-.14-3.57-.14-6.52v-3.34a20.82 20.82 0 012.55-.1 22.26 22.26 0 012.6.1v3.26c0 3-.08 5.19-.2 6.6zm8.26-12.4a6.53 6.53 0 013.1-.86c1.66 0 2.89.91 2.89 2.52a2.64 2.64 0 01-2 2.56 9.68 9.68 0 01-2.55-.14 1.28 1.28 0 00-.17.79 1.8 1.8 0 00.14.82 11 11 0 011.83-.19c2 0 3.18 1 3.18 2.76a2.89 2.89 0 01-1 2.37 4 4 0 01-2.09.48 4.91 4.91 0 01-3.2-1.05 2.26 2.26 0 00-.92 1.39 5.7 5.7 0 004.14 1.25 6.1 6.1 0 003.78-1.2 3.94 3.94 0 001.56-3.27 3.1 3.1 0 00-1-2.42 3.86 3.86 0 00-2.21-1.06v-.09a3.58 3.58 0 002.72-3.48c0-2.21-1.76-3.6-4.29-3.6a8.92 8.92 0 00-4.38 1 3.68 3.68 0 00.44 1.39m12.97 5.81a5 5 0 01.36-1.72 4.18 4.18 0 01.77-1.4 3.66 3.66 0 012-.55 2.64 2.64 0 011.85.7 2.3 2.3 0 01.74 1.8 1.24 1.24 0 01-.16.72 13.34 13.34 0 01-2.53.31c-1.37.1-2.38.14-3 .14m3.44-5a4.91 4.91 0 00-4 1.75 6.45 6.45 0 00-1.44 4.22c0 3.63 1.95 5.86 5.24 5.86a6.65 6.65 0 004.19-1.37 1.43 1.43 0 00-.39-1 5.19 5.19 0 01-3.12.87c-2.29 0-3.81-1.3-3.9-4.11l1.75-.14a35 35 0 005.8-.77 4.22 4.22 0 00.24-1.41 3.78 3.78 0 00-1.13-2.72 4.2 4.2 0 00-3.22-1.19zm8.54 11.62c-.07-2.64-.05-5.56.1-8.78h.12a25 25 0 001 2.33l.89 1.87 1.1 2.47h1.13l.94-1.89c.89-1.9 1.61-3.46 2.12-4.73h.14c0 .36 0 1.7.05 4s.05 3.89 0 4.68h2.19c-.26-2-.43-4.87-.55-8.64l-.05-2.66h-1.95c-.34.89-1.35 3.07-3 6.58h-.1c-.72-1.37-1.78-3.58-3.15-6.58h-2l-.2 4c-.19 3.34-.38 5.76-.55 7.27zm21.99 0c-.07-1.1-.12-2.92-.12-5.47v-.89c0-2.32.05-4 .12-4.94h-7.65a12.46 12.46 0 01.19 2.38v.64c0 4.83-.82 6.84-2.52 6.58a3 3 0 000 1.92c3.08.46 4.29-2.45 4.29-8.33v-1.75h3.56v5a43.25 43.25 0 01-.19 4.89zm12.85 0c-.07-1.29-.12-2.88-.12-4.75v-1.61c0-1.75.05-3.4.12-4.94h-1.78c-.31.6-1.3 2-2.91 4.32s-2.55 3.67-2.86 4.2h-.12c.09-.84.14-2.14.14-3.94v-1.65a23.24 23.24 0 01.12-2.93h-2.29c.12 1.42.17 3.07.17 4.92v1c0 2.37-.05 4.17-.17 5.37h1.86c.43-.74 1.42-2.23 3-4.41s2.47-3.58 2.79-4.13h.07c-.07.82-.1 2.23-.1 4.25v1.3a19.61 19.61 0 01-.16 3zm12.95-11.63a5.27 5.27 0 00-3.9 1.65 6 6 0 00-1.59 4.3 6.26 6.26 0 001.44 4.32 5 5 0 003.85 1.61 6.42 6.42 0 003.64-1.08 1.53 1.53 0 00-.29-1 5.33 5.33 0 01-2.41.62c-2.5 0-4.11-2-4.11-5a4.49 4.49 0 011.2-3.31 2.76 2.76 0 011.88-.57 4.2 4.2 0 012.79.93 2.51 2.51 0 00.84-1.46 4.76 4.76 0 00-3.34-1m4.57 1.96a18.76 18.76 0 012.79-.15h1v2.69a70.8 70.8 0 01-.21 7.1h2.43c-.12-1.17-.2-3.52-.2-7v-2.76h1a16.23 16.23 0 012.76.15v-1.66h-9.5zm12.99 6.38a2.17 2.17 0 01.58-1.51 5.11 5.11 0 012.91-.58 7.87 7.87 0 011.37.19v2.36a3.43 3.43 0 01-2.86 1.58 1.93 1.93 0 01-2-2m6.91-4c0-3.15-1.18-4.35-3.66-4.35a11 11 0 00-4.72 1.25 1.52 1.52 0 00.44 1.2 7.24 7.24 0 013.44-1c1.92 0 2.45 1 2.43 3.58-4.91.07-6.93 1.08-6.93 3.74a3 3 0 003.15 3.05 4.75 4.75 0 003.83-1.9h.07a13 13 0 00.17 1.88l2-.21a35.68 35.68 0 01-.17-4.82zm12.39 7.24c-.07-1.1-.12-2.92-.12-5.47v-.89c0-2.32.05-4 .12-4.94h-7.65a12.46 12.46 0 01.19 2.38v.64c0 4.83-.82 6.84-2.53 6.58a3 3 0 00.05 1.92c3.08.46 4.28-2.45 4.28-8.33v-1.75h3.56v5a43.25 43.25 0 01-.19 4.89zm12.34-10.29c2.29 0 3.4 2 3.4 4.85a4.94 4.94 0 01-1.21 3.7 3.12 3.12 0 01-1.71.55c-2.21 0-3.61-1.83-3.61-5a4.91 4.91 0 011.06-3.44 2.82 2.82 0 012.07-.67m.39-1.44a5.21 5.21 0 00-4 1.71 7.06 7.06 0 00-.15 8.66 5.39 5.39 0 007.73 0 6.39 6.39 0 001.49-4.34c.03-3.69-1.87-6.02-5.07-6.02zm6.47 2.08a18.76 18.76 0 012.79-.15h1v2.69a70.8 70.8 0 01-.21 7.1h2.43c-.12-1.17-.2-3.52-.2-7v-2.76h1a16.23 16.23 0 012.76.15v-1.66h-9.5zm21.01 9.66q-.15-2-.15-5.49v-.89c0-.72 0-2.35.15-4.92h-9.44c.12 1.78.17 3.41.17 4.9v1c0 1.61-.05 3.38-.17 5.37h2.31c-.09-1.41-.14-3.57-.14-6.52v-3.34a20.82 20.82 0 012.55-.1 22.15 22.15 0 012.6.1v3.26c0 3-.07 5.19-.19 6.6zm5.62-8.39a3.34 3.34 0 011.88-1.54 3 3 0 01.91-.09c1.76.07 2.79 1.48 2.79 4.1a5.39 5.39 0 01-1.39 4.13 4.18 4.18 0 01-2.53.69 4.34 4.34 0 01-1.66-.28zm-2.19-2.81c.12 1.37.19 3.7.19 7v1.2c0 4-.07 6.53-.19 7.63h2.33c-.09-.94-.14-2.23-.14-3.91v-.67a7.27 7.27 0 001.54.19 6.28 6.28 0 004.4-1.71 6.17 6.17 0 001.83-4.75c0-3-1.32-4.8-3.51-5.18a4.13 4.13 0 00-1.66.29 3.43 3.43 0 00-2.67 1.51v-1.87zm14.06 7.92a2.17 2.17 0 01.58-1.51 5.11 5.11 0 012.91-.58 7.87 7.87 0 011.37.19v2.36a3.43 3.43 0 01-2.86 1.58 1.93 1.93 0 01-2-2m6.9-4c0-3.15-1.17-4.35-3.65-4.35a10.92 10.92 0 00-4.72 1.25 1.55 1.55 0 00.43 1.2 7.31 7.31 0 013.45-1c1.92 0 2.45 1 2.43 3.58-4.91.07-6.93 1.08-6.93 3.74a3 3 0 003.15 3.05 4.73 4.73 0 003.82-1.9h.08a13.55 13.55 0 00.16 1.88l1.95-.2a35.68 35.68 0 01-.17-4.82zm5.51 1.97a13.76 13.76 0 012-.1c1.54 0 2.74.58 2.74 2a2.19 2.19 0 01-.94 2 5.5 5.5 0 01-2.16.28 4.75 4.75 0 01-1.62-.19zm0-4.85a6.45 6.45 0 011.69-.19c1.73 0 2.6.62 2.6 1.87a2 2 0 01-1.76 1.9 12.17 12.17 0 01-2.53 0zm1.83-1.49a30.11 30.11 0 00-4 .29c.12 1.32.17 2.93.17 4.8v.94c0 2.23-.05 4.1-.17 5.56a19.07 19.07 0 003.51.27c3.3 0 5.42-1.27 5.42-3.55a2.61 2.61 0 00-2.53-2.76v-.12a2.81 2.81 0 002.07-2.62q.01-2.8-4.47-2.81zM425.56 971c-.1-1.6-.15-3.36-.15-5.23V965c0-2.42 0-4.2.15-5.3h-2.29a27.15 27.15 0 01.17 3.6v1a38.91 38.91 0 01-5.29 0v-.87a35.1 35.1 0 01.14-3.74H416c.12 1.1.17 2.88.17 5.33v.69c0 2.14 0 3.92-.17 5.28h2.31c-.09-.88-.14-2.35-.14-4.34v-.94a38.91 38.91 0 015.29 0v.94a40.58 40.58 0 01-.17 4.34zm7.96-10.29c2.29 0 3.4 2 3.4 4.85a4.94 4.94 0 01-1.21 3.7 3.12 3.12 0 01-1.71.55c-2.21 0-3.61-1.83-3.61-5a4.91 4.91 0 011.06-3.44 2.82 2.82 0 012.07-.67m.39-1.44a5.21 5.21 0 00-4 1.71 6.29 6.29 0 00-1.56 4.44 6.17 6.17 0 001.42 4.22 5.37 5.37 0 007.72 0 6.34 6.34 0 001.49-4.34c.02-3.69-1.87-6.02-5.07-6.02zm10.85-4.81a2 2 0 00-1.44.67 3 3 0 003.27 2.57 3.29 3.29 0 003.46-2.76c-.14-.22-.45-.31-.91-.29a2.1 2.1 0 01-2.17 1.8 2.16 2.16 0 01-2.21-2m6.67 16.56c-.08-1.29-.12-2.88-.12-4.75v-1.61c0-1.75 0-3.4.12-4.94h-1.79c-.31.6-1.29 2-2.91 4.32s-2.55 3.67-2.86 4.2h-.12a37.41 37.41 0 00.14-3.94v-1.65a23.24 23.24 0 01.12-2.93h-2.28c.12 1.42.17 3.07.17 4.92v1c0 2.37 0 4.17-.17 5.37h1.85c.43-.74 1.42-2.23 3-4.41s2.48-3.58 2.79-4.13h.07c-.07.82-.09 2.23-.09 4.25v1.3a19.4 19.4 0 01-.17 3zm6.76-9.66a18.76 18.76 0 012.79-.15h1v2.69a66.63 66.63 0 01-.22 7.1h2.43c-.12-1.17-.19-3.52-.19-7v-2.76h1a16.3 16.3 0 012.77.15v-1.66h-9.5zm16.09-.63c2.29 0 3.4 2 3.4 4.85a4.94 4.94 0 01-1.21 3.7 3.11 3.11 0 01-1.7.55c-2.22 0-3.61-1.83-3.61-5a4.91 4.91 0 011-3.44 2.83 2.83 0 012.07-.67m.39-1.44a5.23 5.23 0 00-4 1.71 6.29 6.29 0 00-1.56 4.44 6.17 6.17 0 001.42 4.22 5.37 5.37 0 007.72 0 6.34 6.34 0 001.49-4.34c.03-3.69-1.82-6.02-5.02-6.02zm7.17.42a19.52 19.52 0 01.15 2.88v1.06c0 2.52 1.25 3.52 3.46 3.52a6.7 6.7 0 003.18-.86v1.32a17 17 0 01-.22 3.38h2.38c-.12-1.12-.17-2.85-.17-5.18v-1.06c0-2.13.05-3.81.17-5.06h-2.33a29.87 29.87 0 01.17 3.48v2a5 5 0 01-2.43.53c-1.62 0-2.22-.77-2.22-2.62 0-1.05.05-2.21.17-3.43zm19.21 0c-.51.67-1.16 1.54-2.12 2.71s-1.81 2-2.07 2h-.51v-1.1a33.26 33.26 0 01.15-3.65h-2.31c.12 1.46.17 3.17.17 5.14v.84c0 2.13-.05 3.91-.17 5.32h2.31c-.1-.93-.15-2.47-.15-4.58v-1h.51c.26 0 .67.48 1.2 1.39.36.56 1 1.59 1.66 2.45l.32.41a9.62 9.62 0 001.39 1.61 5.15 5.15 0 002.17-.34 32.42 32.42 0 01-3.54-4.46l-1.25-1.78c.38-.38 1.18-1.22 2.36-2.54s1.95-2.14 2.26-2.45zm9.18 1.03c2.29 0 3.4 2 3.4 4.85a4.94 4.94 0 01-1.21 3.7 3.11 3.11 0 01-1.7.55c-2.22 0-3.61-1.83-3.61-5a4.91 4.91 0 011.05-3.44 2.83 2.83 0 012.07-.67m.39-1.44a5.23 5.23 0 00-4 1.71 6.29 6.29 0 00-1.56 4.44 6.17 6.17 0 001.42 4.22 5.37 5.37 0 007.72 0 6.34 6.34 0 001.49-4.34c-.02-3.69-1.87-6.02-5.07-6.02zm10.85-4.81a2 2 0 00-1.44.67 3.05 3.05 0 003.27 2.57 3.29 3.29 0 003.46-2.76c-.14-.22-.45-.31-.91-.29a2.09 2.09 0 01-2.16 1.8 2.17 2.17 0 01-2.22-2m6.67 16.56c-.08-1.29-.12-2.88-.12-4.75v-1.61c0-1.75 0-3.4.12-4.94h-1.78c-.32.6-1.3 2-2.92 4.32s-2.55 3.67-2.86 4.2h-.12a37.41 37.41 0 00.14-3.94v-1.65a20.77 20.77 0 01.13-2.93h-2.29c.12 1.42.17 3.07.17 4.92v1c0 2.37 0 4.17-.17 5.37h1.85c.44-.74 1.42-2.23 3-4.41s2.48-3.58 2.79-4.13h.08c-.08.82-.1 2.23-.1 4.25v1.3a19.4 19.4 0 01-.17 3zm11.09-9.88a8.23 8.23 0 011.66-.1 8.48 8.48 0 011.68.1v8.42h-5.1c1-1 1.73-4.17 1.76-8.42m-3 12.72V971h8.25v2.86h1.74v-4.3h-1.52c-.07-.76-.12-2.23-.12-4.39v-.77c0-1.94.05-3.52.14-4.7h-7.38a19.89 19.89 0 01.14 2.4 18.52 18.52 0 01-.67 5c-.43 1.63-1 2.44-1.57 2.44h-.74v4.3zm21.29-2.84c-.08-1.1-.12-2.92-.12-5.47v-.89c0-2.32 0-4 .12-4.94h-7.66a12.34 12.34 0 01.2 2.38v.64c0 4.83-.82 6.84-2.53 6.58a3 3 0 000 1.92c3.08.46 4.28-2.45 4.28-8.33v-1.75h3.56v5a43.25 43.25 0 01-.19 4.89zm9.53-5.92a5.17 5.17 0 01-1 .1c-2.17 0-3.25-.75-3.25-2.26a2.23 2.23 0 01.82-1.7 3.65 3.65 0 011.95-.39 6.65 6.65 0 011.48.17zm2.15 5.9c-.12-1.53-.17-3.24-.17-5.08v-1.13a48.92 48.92 0 01.17-5 20.69 20.69 0 00-3.56-.29 6.3 6.3 0 00-3.47.89 2.9 2.9 0 00-1.4 2.62 3 3 0 002.63 2.88c-.17.24-.48.74-1 1.54s-.92 1.46-1.32 2.06-.75 1.08-1 1.42a5.27 5.27 0 002 .28 4.62 4.62 0 001.13-1.51c.36-.57.94-1.61 1.2-2.09.15-.24.29-.48.46-.72.36-.5.58-.72.77-.72H567V971zm12.91-11.61a5.27 5.27 0 00-3.9 1.65 6 6 0 00-1.59 4.3 6.26 6.26 0 001.44 4.32 5 5 0 003.85 1.61 6.42 6.42 0 003.64-1.08 1.48 1.48 0 00-.29-1 5.3 5.3 0 01-2.41.62c-2.5 0-4.11-2-4.11-5a4.49 4.49 0 011.2-3.31 2.76 2.76 0 011.88-.57 4.2 4.2 0 012.79.93 2.51 2.51 0 00.84-1.46 4.76 4.76 0 00-3.34-1m4.57 1.96a18.76 18.76 0 012.79-.15h1v2.69a70.8 70.8 0 01-.21 7.1h2.43c-.12-1.17-.2-3.52-.2-7v-2.76h1a16.23 16.23 0 012.76.15v-1.66h-9.5zM607.9 971c-.07-1.29-.12-2.88-.12-4.75v-1.61c0-1.75.05-3.4.12-4.94h-1.78c-.31.6-1.3 2-2.91 4.32s-2.55 3.67-2.87 4.2h-.12a36.75 36.75 0 00.15-3.94v-1.65a23.24 23.24 0 01.12-2.93h-2.29c.12 1.42.17 3.07.17 4.92v1c0 2.37 0 4.17-.17 5.37h1.86c.43-.74 1.41-2.23 3-4.41s2.47-3.58 2.79-4.13h.07c-.07.82-.1 2.23-.1 4.25v1.3a19.4 19.4 0 01-.17 3zm12.49 0c-.07-1.1-.12-2.92-.12-5.47v-.89c0-2.32.05-4 .12-4.94h-7.65a12.46 12.46 0 01.19 2.38v.64c0 4.83-.82 6.84-2.53 6.58a3 3 0 00.05 1.92c3.08.46 4.28-2.45 4.28-8.33v-1.75h3.56v5a43.25 43.25 0 01-.19 4.89zm12.85 0c-.08-1.29-.12-2.88-.12-4.75v-1.61c0-1.75 0-3.4.12-4.94h-1.78c-.32.6-1.3 2-2.92 4.32s-2.55 3.67-2.86 4.2h-.12a36.75 36.75 0 00.15-3.94v-1.65a21.37 21.37 0 01.12-2.93h-2.29c.12 1.42.17 3.07.17 4.92v1c0 2.37-.05 4.17-.17 5.37h1.85c.44-.74 1.42-2.23 3-4.41s2.48-3.58 2.79-4.13h.08c-.08.82-.1 2.23-.1 4.25v1.3a19.4 19.4 0 01-.17 3zm3.44-9.47a5.64 5.64 0 012.84-.75c1.51 0 2.33.75 2.33 1.92a2.08 2.08 0 01-2.29 1.92 5.25 5.25 0 01-1.53-.16 1.51 1.51 0 000 1.46 5.88 5.88 0 011.66-.17c1.54 0 2.67.75 2.67 2a2 2 0 01-.92 1.77 3.89 3.89 0 01-1.8.36 5.31 5.31 0 01-3.06-.88 2.27 2.27 0 00-.65 1.32 4.08 4.08 0 001.45.64 7.16 7.16 0 002.11.32c2.91 0 5-1.25 5-3.68a2.6 2.6 0 00-2.52-2.54V965a2.91 2.91 0 002-2.74c0-1.63-1.25-2.85-3.63-2.85a8.41 8.41 0 00-4 .86 2.73 2.73 0 00.36 1.3m15.3-.86c2.28 0 3.39 2 3.39 4.85a5 5 0 01-1.2 3.7 3.14 3.14 0 01-1.71.55c-2.22 0-3.61-1.83-3.61-5a4.87 4.87 0 011.06-3.44 2.8 2.8 0 012.07-.67m.38-1.44a5.24 5.24 0 00-4 1.71 6.29 6.29 0 00-1.56 4.44 6.17 6.17 0 001.42 4.22 5.37 5.37 0 007.72 0 6.34 6.34 0 001.49-4.34c-.06-3.69-1.91-6.02-5.11-6.02zm9.95 6.47a13.51 13.51 0 012-.1c1.54 0 2.74.58 2.74 2a2.2 2.2 0 01-.93 2 5.6 5.6 0 01-2.17.28 4.72 4.72 0 01-1.61-.19zm0-4.85a6.32 6.32 0 011.68-.19c1.73 0 2.6.62 2.6 1.87a2 2 0 01-1.76 1.9 12.07 12.07 0 01-2.52 0zm1.83-1.49a30.25 30.25 0 00-4 .29c.12 1.32.17 2.93.17 4.8v.94c0 2.23-.05 4.1-.17 5.56a19.19 19.19 0 003.52.27c3.29 0 5.41-1.27 5.41-3.55a2.61 2.61 0 00-2.53-2.76v-.12a2.79 2.79 0 002.07-2.62q0-2.8-4.47-2.81zm9.28 8.33a2.21 2.21 0 01.58-1.51 5.13 5.13 0 012.91-.58 7.75 7.75 0 011.37.19v2.36a3.42 3.42 0 01-2.86 1.58 1.93 1.93 0 01-2-2m6.91-4c0-3.15-1.18-4.35-3.66-4.35a10.88 10.88 0 00-4.71 1.25 1.52 1.52 0 00.43 1.2 7.28 7.28 0 013.44-1c1.93 0 2.45 1 2.43 3.58-4.91.07-6.93 1.08-6.93 3.74a3 3 0 003.15 3.05 4.75 4.75 0 003.83-1.9h.07a14.76 14.76 0 00.17 1.88l1.95-.2a35.68 35.68 0 01-.17-4.82zm12.92 7.24c-.1-1.6-.14-3.36-.14-5.23V965c0-2.42 0-4.2.14-5.3H691a27.51 27.51 0 01.16 3.6v1a38.91 38.91 0 01-5.29 0v-.87a35.1 35.1 0 01.14-3.74h-2.31c.12 1.1.17 2.88.17 5.33v.69c0 2.14-.05 3.92-.17 5.28h2.3c-.09-.88-.14-2.35-.14-4.34v-.94a38.91 38.91 0 015.29 0v.94A41.08 41.08 0 01691 971zm13.02 0c-.1-1.6-.15-3.36-.15-5.23V965c0-2.42.05-4.2.15-5.3H704a27.15 27.15 0 01.17 3.6v1a38.91 38.91 0 01-5.29 0v-.87a35.1 35.1 0 01.14-3.74h-2.31c.12 1.1.17 2.88.17 5.33v.69c0 2.14 0 3.92-.17 5.28H699c-.09-.88-.14-2.35-.14-4.34v-.94a38.91 38.91 0 015.29 0v.94A40.58 40.58 0 01704 971zm13.33-5.44c0 2.09 0 3.89-.17 5.42h2.24q-.15-1.5-.15-5.64v-1c0-2.23.05-3.77.15-4.63h-2.19c.07 1.44.12 3 .12 4.73zm-3.71 1.66a2.64 2.64 0 01-.86 2.13 3.48 3.48 0 01-1.59.41 4.09 4.09 0 01-1.64-.22 30.05 30.05 0 010-4.65c2.48-.6 4.09.31 4.09 2.33zm-6.18-7.54a44 44 0 01.17 4.8v.94c0 2.61 0 4.44-.17 5.44a18 18 0 003.27.27c3.25 0 4.84-1.63 4.84-3.91a3.33 3.33 0 00-1.66-3.17 5.82 5.82 0 00-4.28-.39v-1.29a16 16 0 01.14-2.69zm14.51 0c1.27 1.75 2.5 3.58 3.66 5.42-1 1.54-2.34 3.51-4 5.88h2.1c.77-1.48 1.66-3 2.7-4.63h.1l1.29 2.09c.77 1.22 1.3 2.06 1.57 2.54h2.6q-1.63-2.22-4-5.92a63.68 63.68 0 013.92-5.38H732c-.56 1-1.4 2.4-2.58 4.15h-.12a37.51 37.51 0 01-2.41-4.15zm-536.1 27.77a5.27 5.27 0 00-3.9 1.65 6 6 0 00-1.59 4.3 6.27 6.27 0 001.45 4.32 4.94 4.94 0 003.85 1.61 6.36 6.36 0 003.63-1.08 1.48 1.48 0 00-.29-1 5.29 5.29 0 01-2.4.62c-2.51 0-4.12-2-4.12-5a4.49 4.49 0 011.2-3.31 2.78 2.78 0 011.88-.57 4.18 4.18 0 012.79.93 2.51 2.51 0 00.84-1.46 4.74 4.74 0 00-3.34-1m4.57 1.96a18.76 18.76 0 012.79-.15h1V992a69.62 69.62 0 01-.22 7.1h2.43c-.12-1.17-.19-3.52-.19-7v-2.76h1a16.46 16.46 0 012.77.15v-1.66h-9.51zm21.29 9.64c-.07-1.29-.12-2.88-.12-4.75v-1.61c0-1.75 0-3.4.12-4.94h-1.8c-.31.6-1.3 2-2.91 4.32s-2.55 3.67-2.86 4.2h-.12c.09-.84.14-2.14.14-3.94v-1.65a23.24 23.24 0 01.12-2.93h-2.28c.12 1.42.16 3.07.16 4.92v1c0 2.37 0 4.17-.16 5.37h1.85c.43-.74 1.42-2.23 3-4.41s2.48-3.58 2.79-4.13h.07c-.07.82-.1 2.23-.1 4.25v1.34a19.61 19.61 0 01-.16 2.95zm12.47 0c-.07-1.1-.12-2.92-.12-5.47v-.89c0-2.32.05-4 .12-4.94h-7.65a12.46 12.46 0 01.19 2.38v.64c0 4.83-.82 6.84-2.53 6.58a3.09 3.09 0 00.05 1.92c3.08.46 4.29-2.45 4.29-8.33v-1.75c.29 0 .87-.05 1.76-.05s1.49 0 1.8.05v5a43.25 43.25 0 01-.19 4.89zm4.53-6.6a5 5 0 01.36-1.72 4 4 0 01.77-1.4 3.65 3.65 0 012-.55 2.61 2.61 0 011.85.7 2.27 2.27 0 01.75 1.8 1.24 1.24 0 01-.17.72 13 13 0 01-2.52.31c-1.38.1-2.39.14-3 .14m3.44-5a4.91 4.91 0 00-4 1.75 6.4 6.4 0 00-1.45 4.22c0 3.63 1.95 5.86 5.25 5.86a6.65 6.65 0 004.19-1.37 1.47 1.47 0 00-.39-1 5.2 5.2 0 01-3.13.87c-2.28 0-3.8-1.3-3.9-4.11l1.76-.14a35 35 0 005.8-.77 4.22 4.22 0 00.24-1.41 3.78 3.78 0 00-1.13-2.72 4.21 4.21 0 00-3.26-1.19zm11.52 1.33c2.28 0 3.39 2 3.39 4.85a5 5 0 01-1.2 3.7 3.14 3.14 0 01-1.71.55c-2.21 0-3.61-1.83-3.61-5a4.87 4.87 0 011.06-3.44 2.82 2.82 0 012.07-.67m.38-1.44a5.21 5.21 0 00-4 1.71 6.25 6.25 0 00-1.57 4.44 6.17 6.17 0 001.42 4.22 5.37 5.37 0 007.72-.05 6.34 6.34 0 001.5-4.34c0-3.64-1.86-5.97-5.06-5.97zm9.3 5.8a5.85 5.85 0 01.46-2.72 3.29 3.29 0 012.81-1.36c1.76 0 2.82 1.72 2.82 4.6a5.39 5.39 0 01-1 3.65 2.45 2.45 0 01-1.82.67c-1.93 0-3.23-1.84-3.23-4.84m3.76-5.4a4.85 4.85 0 00-4.43 2.68h-.07a8.33 8.33 0 01.6-3.09 4.13 4.13 0 01.84-1.37 5.46 5.46 0 013.56-1.56c1.73-.17 2.77-.46 3.13-.86a3.15 3.15 0 00-.07-1.92c-.34.4-1.35.72-3 .91a6 6 0 00-4.91 2.85 12.62 12.62 0 00-1.52 6.51c0 4.77 1.93 7.44 5.2 7.44a4.57 4.57 0 003.78-1.73 7.26 7.26 0 001.37-4.58c-.05-3.34-1.81-5.28-4.52-5.28zm9.34 2.95a3.34 3.34 0 011.88-1.54 3 3 0 01.91-.09c1.76.07 2.79 1.48 2.79 4.1a5.39 5.39 0 01-1.39 4.13 4.18 4.18 0 01-2.53.69 4.34 4.34 0 01-1.66-.28zm-2.19-2.81c.12 1.37.19 3.7.19 7v1.18c0 4-.07 6.53-.19 7.63H269c-.09-.94-.14-2.23-.14-3.91v-.67a7.27 7.27 0 001.54.19 6.27 6.27 0 004.4-1.71 6.17 6.17 0 001.83-4.75c0-3-1.32-4.8-3.51-5.18a4.13 4.13 0 00-1.66.29 3.43 3.43 0 00-2.67 1.51v-1.87zm14.1 7.92a2.17 2.17 0 01.58-1.51 5.11 5.11 0 012.91-.58 7.87 7.87 0 011.37.19v2.36a3.43 3.43 0 01-2.86 1.58 1.93 1.93 0 01-2-2m6.91-4c0-3.15-1.18-4.35-3.66-4.35a10.92 10.92 0 00-4.72 1.25 1.52 1.52 0 00.44 1.2 7.24 7.24 0 013.44-1c1.92 0 2.45 1 2.43 3.58-4.91.07-6.93 1.08-6.93 3.74a3 3 0 003.15 3 4.72 4.72 0 003.82-1.9h.08a13 13 0 00.17 1.88l1.94-.2a36.49 36.49 0 01-.16-4.82zm3.36-2.23a5.64 5.64 0 012.84-.75c1.52 0 2.33.75 2.33 1.92a2.07 2.07 0 01-2.28 1.92 5.28 5.28 0 01-1.54-.16 1.57 1.57 0 000 1.46 5.93 5.93 0 011.66-.17c1.54 0 2.67.75 2.67 2a2 2 0 01-.92 1.77 3.84 3.84 0 01-1.8.36 5.33 5.33 0 01-3.06-.88 2.27 2.27 0 00-.65 1.32 4.27 4.27 0 001.45.64 7.18 7.18 0 002.12.32c2.91 0 5-1.25 5-3.68a2.6 2.6 0 00-2.53-2.54V993a2.91 2.91 0 002-2.74c0-1.63-1.25-2.85-3.63-2.85a8.44 8.44 0 00-4 .86 2.85 2.85 0 00.36 1.3m13.98 9.49h.6a14.74 14.74 0 01-2.48 4 1.84 1.84 0 001.54 1.1c.8-1 1.83-3.45 3.16-7.25l.89-2.56 1-3.15c.55-1.61.94-2.76 1.2-3.43H309c-.26 1.25-.69 2.9-1.27 4.94a44.06 44.06 0 01-1.4 4.44h-.12c-1.83-4.89-2.88-8-3.2-9.38h-2.57zm21.69-5.97c0-3.58-1.88-5.74-4.74-5.74a4.75 4.75 0 00-3.54 1.44 5.75 5.75 0 00-1.56 3.67 8.35 8.35 0 01-1 0 6.37 6.37 0 01-.94 0v-1.05a31 31 0 01.15-3.65h-2.31a49.05 49.05 0 01.17 5.14v.57c0 1.78-.05 3.65-.17 5.59H315a35.52 35.52 0 01-.15-4.12v-1.18a3.6 3.6 0 011-.07 3.7 3.7 0 011 .07 6.52 6.52 0 001.4 4 4.37 4.37 0 003.49 1.54 4.41 4.41 0 003.61-1.68 7 7 0 001.37-4.56m-5.34-4.39c2.19 0 3.22 1.92 3.22 4.8 0 2-.38 3.38-1.13 4a2.74 2.74 0 01-1.56.45c-1.95 0-3.18-1.82-3.18-4.87a5.85 5.85 0 011-3.79 2.34 2.34 0 011.62-.56zm21.77 13.25h1.73v-4.3h-1.54v-5a43.72 43.72 0 01.17-4.9h-2.19c.09 1.18.14 2.66.14 4.46v5.4a15.78 15.78 0 01-2 .08 17.9 17.9 0 01-2.07-.08v-5.4c0-1.8 0-3.28.16-4.46h-2.19a38.83 38.83 0 01.17 4.44v5.42l-2 .08a17.34 17.34 0 01-2-.08v-5.49c0-1.83.05-3.29.14-4.37h-2.18a49 49 0 01.16 4.94v.89c0 2.5 0 4.32-.16 5.47h13.69zm13.52-2.86c-.07-1.29-.12-2.88-.12-4.75v-1.61c0-1.75.05-3.4.12-4.94h-1.78c-.31.6-1.3 2-2.91 4.32s-2.55 3.67-2.87 4.2H349a36.75 36.75 0 00.15-3.94v-1.65a23.24 23.24 0 01.12-2.93H347c.12 1.42.17 3.07.17 4.92v1c0 2.37-.05 4.17-.17 5.37h1.86c.43-.74 1.42-2.23 3-4.41s2.47-3.58 2.79-4.13h.07c-.07.82-.1 2.23-.1 4.25v1.34a19.4 19.4 0 01-.17 2.95zm2.57-11.3c1.28 1.75 2.51 3.58 3.66 5.42-1 1.54-2.33 3.51-4 5.88h2.14c.77-1.48 1.66-3 2.69-4.63h.1l1.3 2.09c.77 1.22 1.3 2.06 1.56 2.54h2.6c-1.08-1.48-2.43-3.45-4-5.92a62 62 0 013.93-5.38H367c-.55 1-1.4 2.4-2.57 4.15h-.12a36 36 0 01-2.41-4.15zM379 999.33a5.19 5.19 0 004.05-1.71 6.42 6.42 0 001.54-4.44 5.81 5.81 0 00-1.45-4.2 4.77 4.77 0 00-3.54-1.48 8.43 8.43 0 00-3.87.88 1.61 1.61 0 00.41 1.2 6.12 6.12 0 012.77-.64 3.23 3.23 0 012.48 1.08 3.63 3.63 0 011 2.61h-1.69a22.84 22.84 0 01-3.44-.17 1.66 1.66 0 000 1.56 21.29 21.29 0 013.42-.16h1.83a4.24 4.24 0 01-1.38 3.48 3.31 3.31 0 01-2 .55 4.35 4.35 0 01-3-.94 1.8 1.8 0 00-.8 1.2c.68.79 1.88 1.18 3.61 1.18m17.48-.27c-.07-1.1-.12-2.92-.12-5.47v-.89c0-2.32.05-4 .12-4.94h-7.65a12.46 12.46 0 01.19 2.38v.64c0 4.83-.82 6.84-2.53 6.58a3.09 3.09 0 00.05 1.92c3.08.46 4.29-2.45 4.29-8.33v-1.75c.29 0 .87-.05 1.76-.05s1.49 0 1.8.05v5a43.25 43.25 0 01-.19 4.89zm4.58-6.6a5 5 0 01.36-1.72 4 4 0 01.77-1.4 3.65 3.65 0 012-.55 2.61 2.61 0 011.85.7 2.27 2.27 0 01.75 1.8 1.24 1.24 0 01-.17.72 13 13 0 01-2.52.31c-1.38.1-2.39.14-3 .14m3.44-5a4.91 4.91 0 00-4 1.75 6.4 6.4 0 00-1.45 4.22c0 3.63 1.95 5.86 5.25 5.86a6.6 6.6 0 004.18-1.37 1.46 1.46 0 00-.38-1 5.2 5.2 0 01-3.13.87c-2.28 0-3.8-1.3-3.9-4.11l1.76-.14a35 35 0 005.8-.77 4.22 4.22 0 00.24-1.41 3.82 3.82 0 00-1.13-2.72 4.21 4.21 0 00-3.31-1.19zm8.52 11.6c-.07-2.64 0-5.56.1-8.78h.12c.17.48.51 1.25 1 2.33l.89 1.87 1.09 2.52h1.13l.94-1.89c.89-1.9 1.61-3.46 2.12-4.73h.14c0 .36 0 1.7.05 4s.05 3.89 0 4.68h2.19c-.27-2-.44-4.87-.56-8.64v-2.66h-1.95c-.34.89-1.35 3.07-3 6.58h-.1c-.72-1.37-1.78-3.58-3.15-6.58h-2.05l-.19 4c-.19 3.34-.39 5.76-.55 7.27zm14.32-6.6a5 5 0 01.36-1.72 4 4 0 01.77-1.4 3.6 3.6 0 012-.55 2.61 2.61 0 011.85.7 2.27 2.27 0 01.75 1.8 1.24 1.24 0 01-.17.72 13.2 13.2 0 01-2.53.31c-1.37.1-2.38.14-3 .14m3.44-5a4.93 4.93 0 00-4.05 1.75 6.45 6.45 0 00-1.44 4.22c0 3.63 2 5.86 5.25 5.86a6.62 6.62 0 004.18-1.37 1.46 1.46 0 00-.38-1 5.24 5.24 0 01-3.13.87c-2.29 0-3.8-1.3-3.9-4.11l1.76-.14a35.09 35.09 0 005.8-.77 4.22 4.22 0 00.24-1.41 3.82 3.82 0 00-1.13-2.72 4.21 4.21 0 00-3.23-1.19zm16.57 11.6c-.1-1.6-.15-3.36-.15-5.23v-.77c0-2.42.05-4.2.15-5.3h-2.29a27.15 27.15 0 01.17 3.6v1a38.91 38.91 0 01-5.29 0v-.87a35.1 35.1 0 01.14-3.74h-2.31c.12 1.1.17 2.88.17 5.33v.69c0 2.14-.05 3.92-.17 5.28h2.31c-.09-.88-.14-2.35-.14-4.34v-.94a38.91 38.91 0 015.29 0v.94a40.58 40.58 0 01-.17 4.34zm2.09-9.64a18.76 18.76 0 012.79-.15h1V992a69.62 69.62 0 01-.22 7.1h2.43c-.12-1.17-.19-3.52-.19-7v-2.76h1a16.38 16.38 0 012.77.15v-1.66h-9.51zm16.1-.63c2.29 0 3.39 2 3.39 4.85a5 5 0 01-1.2 3.7 3.12 3.12 0 01-1.71.55c-2.21 0-3.61-1.83-3.61-5a4.87 4.87 0 011.06-3.44 2.82 2.82 0 012.07-.67m.38-1.44a5.21 5.21 0 00-4 1.71 6.25 6.25 0 00-1.57 4.44 6.17 6.17 0 001.42 4.22 5.39 5.39 0 007.73-.05 6.39 6.39 0 001.49-4.34c0-3.64-1.86-5.97-5.07-5.97zm9.99 6.47a13.51 13.51 0 012-.1c1.54 0 2.75.58 2.75 2a2.21 2.21 0 01-.94 2 5.6 5.6 0 01-2.17.28 4.72 4.72 0 01-1.61-.19zm0-4.85a6.4 6.4 0 011.69-.19c1.73 0 2.59.62 2.59 1.87a2 2 0 01-1.75 1.9 12.17 12.17 0 01-2.53 0zm1.83-1.49a30.11 30.11 0 00-4 .29c.12 1.32.16 2.93.16 4.8v.94c0 2.23 0 4.1-.16 5.56a19.07 19.07 0 003.51.27c3.29 0 5.41-1.27 5.41-3.55a2.6 2.6 0 00-2.52-2.76v-.12a2.8 2.8 0 002.06-2.62q.01-2.81-4.46-2.81zm27.17 5.71a2.73 2.73 0 000-1.6h-13.53a3.58 3.58 0 000 1.6zm17.08-8.64c-.6.92-1.61 2.24-3 4s-2.17 2.57-2.39 2.57h-.5c0-3.09 0-5.25.14-6.53h-2.45c.12 1.47.17 3.77.17 6.94v.79c0 3.07 0 5.33-.17 6.79h2.45q-.13-2.12-.14-7h.53c.26 0 1 1 2.36 2.9.69 1 1.2 1.66 1.51 2.06a12.09 12.09 0 002.19 2.31 4.79 4.79 0 002.26-.39 40.79 40.79 0 01-3.08-3.52c-1.32-1.66-2.38-3.08-3.17-4.23l5.68-6.65zm7 6.15a3.32 3.32 0 011.87-1.54 3.08 3.08 0 01.92-.09c1.75.07 2.79 1.48 2.79 4.1a5.36 5.36 0 01-1.4 4.13 4.13 4.13 0 01-2.52.69 4.3 4.3 0 01-1.66-.28zm-2.19-2.81c.12 1.37.19 3.7.19 7v1.18c0 4-.07 6.53-.19 7.63h2.33c-.1-.94-.14-2.23-.14-3.91v-.67a7.19 7.19 0 001.54.19 6.3 6.3 0 004.4-1.71 6.17 6.17 0 001.83-4.75c0-3-1.33-4.8-3.52-5.18a4.19 4.19 0 00-1.66.29 3.46 3.46 0 00-2.67 1.51v-1.87zm15.93 11.18h.6a14.74 14.74 0 01-2.48 4 1.84 1.84 0 001.54 1.1c.8-1 1.83-3.45 3.16-7.25l.89-2.56 1-3.15c.55-1.61.94-2.76 1.2-3.43h-1.94q-.4 1.88-1.28 4.94a41.57 41.57 0 01-1.4 4.44h-.12q-2.73-7.33-3.2-9.38h-2.57zm10.11 0c-.12-1.17-.2-3.45-.2-6.81v-3h1.54a27.56 27.56 0 013.32.15v-1.66h-7c.12 1.27.17 2.71.17 4.32v1.08c0 2.38 0 4.32-.17 5.88zm16.38 0c-.07-1.29-.12-2.88-.12-4.75v-1.61c0-1.75 0-3.4.12-4.94h-1.78c-.31.6-1.3 2-2.91 4.32s-2.55 3.67-2.86 4.2h-.12c.09-.84.14-2.14.14-3.94v-1.65a23.24 23.24 0 01.12-2.93h-2.28c.12 1.42.16 3.07.16 4.92v1c0 2.37 0 4.17-.16 5.37h1.85c.43-.74 1.42-2.23 3-4.41s2.48-3.58 2.79-4.13h.07c-.07.82-.09 2.23-.09 4.25v1.34a19.4 19.4 0 01-.17 2.95zm8.93-5.78a3.72 3.72 0 000-1.63h-5.29a2.66 2.66 0 000 1.63zm5.22-2.59a3.34 3.34 0 011.88-1.54 3 3 0 01.91-.09c1.76.07 2.79 1.48 2.79 4.1a5.35 5.35 0 01-1.39 4.13 4.16 4.16 0 01-2.57.71 4.34 4.34 0 01-1.66-.28zm-2.19-2.81c.12 1.37.19 3.7.19 7v1.18c0 4-.07 6.53-.19 7.63h2.34a39 39 0 01-.15-3.91v-.67a7.27 7.27 0 001.54.19 6.27 6.27 0 004.4-1.71 6.17 6.17 0 001.83-4.75c0-3-1.32-4.8-3.51-5.18a4.16 4.16 0 00-1.64.34 3.45 3.45 0 00-2.67 1.51v-1.87zm15.91 11.18h.6a14.74 14.74 0 01-2.48 4 1.84 1.84 0 001.54 1.1c.79-1 1.83-3.45 3.15-7.25l.89-2.56 1-3.15c.55-1.61.94-2.76 1.2-3.43h-1.95c-.26 1.25-.7 2.9-1.27 4.94s-1 3.53-1.4 4.44h-.12q-2.74-7.33-3.2-9.38h-2.57zm9.21-5.92a5.85 5.85 0 01.46-2.72 3.3 3.3 0 012.82-1.36c1.75 0 2.81 1.72 2.81 4.6a5.45 5.45 0 01-1 3.65 2.49 2.49 0 01-1.83.67c-1.93 0-3.23-1.84-3.23-4.84m3.76-5.4a4.86 4.86 0 00-4.43 2.68h-.07a8.33 8.33 0 01.6-3.09 4.13 4.13 0 01.8-1.33 5.49 5.49 0 013.56-1.56c1.73-.17 2.77-.46 3.13-.86a3.15 3.15 0 00-.07-1.92c-.34.4-1.35.72-3 .91a6 6 0 00-4.91 2.85 12.62 12.62 0 00-1.51 6.51c0 4.77 1.92 7.44 5.19 7.44a4.56 4.56 0 003.78-1.73 7.26 7.26 0 001.37-4.58c0-3.38-1.75-5.32-4.47-5.32zm9.35 2.95a3.34 3.34 0 011.88-1.54 3 3 0 01.91-.09c1.76.07 2.79 1.48 2.79 4.1a5.35 5.35 0 01-1.39 4.13 4.16 4.16 0 01-2.53.69 4.34 4.34 0 01-1.66-.28zm-2.19-2.81c.12 1.37.19 3.7.19 7v1.18c0 4-.07 6.53-.19 7.63h2.33c-.09-.94-.14-2.23-.14-3.91v-.67a7.27 7.27 0 001.54.19 6.27 6.27 0 004.4-1.71 6.17 6.17 0 001.83-4.75c0-3-1.32-4.8-3.51-5.18a4.13 4.13 0 00-1.66.29 3.45 3.45 0 00-2.67 1.51v-1.87zm22.38 11.18c-.07-1.29-.12-2.88-.12-4.75v-1.61c0-1.75.05-3.4.12-4.94h-1.78c-.32.6-1.3 2-2.91 4.32s-2.55 3.67-2.87 4.2H632a36.75 36.75 0 00.15-3.94v-1.65a23.24 23.24 0 01.12-2.93h-2.29c.12 1.42.17 3.07.17 4.92v1c0 2.37-.05 4.17-.17 5.37h1.85c.44-.74 1.42-2.23 3-4.41s2.48-3.58 2.79-4.13h.08c-.08.82-.1 2.23-.1 4.25v1.34a19.4 19.4 0 01-.17 2.95zm10.3-11.3c-.51.67-1.16 1.54-2.12 2.71s-1.81 2-2.07 2h-.51v-1.1a33.26 33.26 0 01.15-3.65h-2.31c.12 1.46.17 3.17.17 5.14v.84c0 2.13 0 3.91-.17 5.32h2.31c-.1-.93-.15-2.47-.15-4.58v-1h.51c.26 0 .67.48 1.2 1.39.36.56 1 1.59 1.66 2.45l.32.41a9.62 9.62 0 001.39 1.61 5.15 5.15 0 002.17-.34 32.42 32.42 0 01-3.54-4.46l-1.25-1.78c.38-.38 1.18-1.22 2.36-2.54s2-2.14 2.26-2.45zm6.06 8.04a2.17 2.17 0 01.58-1.51 5.11 5.11 0 012.91-.58 7.87 7.87 0 011.37.19v2.36a3.43 3.43 0 01-2.86 1.58 1.93 1.93 0 01-2-2m6.91-4c0-3.15-1.18-4.35-3.66-4.35a11 11 0 00-4.72 1.25 1.52 1.52 0 00.44 1.2 7.24 7.24 0 013.44-1c1.92 0 2.45 1 2.43 3.58-4.91.07-6.93 1.08-6.93 3.74a3 3 0 003.15 3 4.75 4.75 0 003.83-1.9h.11a13 13 0 00.17 1.88l1.94-.2a36.49 36.49 0 01-.16-4.82zm1.99-2.42a18.85 18.85 0 012.79-.15h1V992a69.62 69.62 0 01-.22 7.1h2.43c-.12-1.17-.19-3.52-.19-7v-2.76h1a16.38 16.38 0 012.77.15v-1.66h-9.58zm16.1-.63c2.29 0 3.39 2 3.39 4.85a5 5 0 01-1.2 3.7 3.12 3.12 0 01-1.71.55c-2.21 0-3.61-1.83-3.61-5a4.87 4.87 0 011.06-3.44 2.82 2.82 0 012.07-.67m.39-1.44a5.21 5.21 0 00-4 1.71 6.25 6.25 0 00-1.57 4.44 6.17 6.17 0 001.42 4.22 5.39 5.39 0 007.73-.05 6.39 6.39 0 001.49-4.34c-.02-3.64-1.87-5.97-5.07-5.97zm9.98 3.35a3.34 3.34 0 011.88-1.54 3 3 0 01.91-.09c1.76.07 2.79 1.48 2.79 4.1a5.35 5.35 0 01-1.39 4.13 4.16 4.16 0 01-2.56.71 4.34 4.34 0 01-1.66-.28zm-2.19-2.81c.12 1.37.19 3.7.19 7v1.18c0 4-.07 6.53-.19 7.63h2.34a39 39 0 01-.15-3.91v-.67a7.35 7.35 0 001.54.19 6.27 6.27 0 004.4-1.71 6.17 6.17 0 001.83-4.75c0-3-1.32-4.8-3.51-5.18a4.16 4.16 0 00-1.63.34 3.45 3.45 0 00-2.67 1.51v-1.87zm22.57 5.76c0 2.09 0 3.89-.17 5.42h2.24c-.09-1-.14-2.88-.14-5.64v-1c0-2.23.05-3.77.14-4.63h-2.19c.07 1.44.12 3 .12 4.73zm-3.7 1.66a2.62 2.62 0 01-.87 2.13 3.48 3.48 0 01-1.59.41 4 4 0 01-1.63-.22 30.05 30.05 0 010-4.65c2.47-.6 4.09.31 4.09 2.33zm-6.19-7.54a44 44 0 01.17 4.8v.94c0 2.61 0 4.44-.17 5.44a18.07 18.07 0 003.28.27c3.24 0 4.83-1.63 4.83-3.91a3.33 3.33 0 00-1.66-3.17 5.82 5.82 0 00-4.28-.39v-1.29a17.16 17.16 0 01.14-2.69z"/></g></svg>