<svg data-name="Layer 1" xmlns="http://www.w3.org/2000/svg" viewBox="0 0 1920 1080"><defs><clipPath id="a"><path fill="none" d="M0 0h1920v1080H0z"/></clipPath></defs><g clip-path="url(#a)"><path fill="#d6e2d4" d="M0 0h1920v1080H0z"/><path d="M1139.83 527.81h6.1V540h-6.1zm36.58 33.53v-54.87h-67.06v67.06h30.48v-12.19zm-182.88 12.19V537h36.57v-30.53h-67v67.06zm-73.15-18.29h6.09v18.29H957v-67.06h-30.53v18.29h-6.09v-18.29h-30.49v67.06h30.49zM816.74 537h36.58v6.1h-36.58v30.48h67.06v-67.11h-30.48v18.29h-6.1v-18.29h-30.48V537zm-24.38 0h18.29v-30.53h-30.48v18.29h-6.1v-18.29h-30.48v67.06h30.48v-18.29h6.1v18.29h30.48v-30.48h-18.29zm243.84 36.58h67.06v-67.11h-30.48v18.29h-6.1v-18.29h-30.48V537h36.58v6.1h-36.58zm146.31-73.15v67h-36.58v12.19H1030.1v-36.57h-30.48v36.57H737.49v-79.24h445z" fill="#ea533d" fill-rule="evenodd"/><path d="M189.15 970.42c-.14-1.18-.21-3.46-.21-6.82v-6.14h1.18c2.07 0 3.56 0 4.45.12v-1.68h-7.94c.12 1.34.17 3.46.17 6.34v1c0 3.5-.05 5.9-.17 7.22zm11.51-10.27c2.28 0 3.39 2 3.39 4.85a5 5 0 01-1.2 3.69 3.17 3.17 0 01-1.71.55c-2.22 0-3.61-1.82-3.61-5a4.82 4.82 0 011.06-3.43 2.76 2.76 0 012.07-.67m.38-1.44a5.22 5.22 0 00-4 1.7 6.31 6.31 0 00-1.56 4.44 6.2 6.2 0 001.42 4.23 5.4 5.4 0 007.72-.05 6.35 6.35 0 001.49-4.35c-.02-3.67-1.87-5.96-5.11-5.96zM211 962a3.3 3.3 0 011.87-1.53 3.49 3.49 0 01.92-.1c1.75.07 2.79 1.49 2.79 4.11a5.33 5.33 0 01-1.4 4.12 4.06 4.06 0 01-2.52.7 4.29 4.29 0 01-1.66-.29zm-2.19-2.8c.12 1.36.19 3.69.19 7v1.17c0 4-.07 6.53-.19 7.64h2.33c-.09-.94-.14-2.24-.14-3.92v-.67a7.27 7.27 0 001.54.19A6.27 6.27 0 00217 969a6.19 6.19 0 001.83-4.75c0-3-1.32-4.8-3.51-5.19a4.51 4.51 0 00-1.66.29 3.5 3.5 0 00-2.68 1.51v-1.87zm22.4 11.22c-.07-1.3-.12-2.88-.12-4.75v-1.61c0-1.75 0-3.41.12-4.94h-1.78c-.31.6-1.29 2-2.91 4.32s-2.55 3.67-2.86 4.2h-.12a37.41 37.41 0 00.14-3.94V962a23 23 0 01.12-2.92h-2.28c.12 1.41.17 3.07.17 4.92v1c0 2.38-.05 4.18-.17 5.38h1.85c.43-.74 1.42-2.23 3-4.42s2.48-3.57 2.79-4.12h.07c-.07.81-.09 2.23-.09 4.24v1.35a19.49 19.49 0 01-.17 2.95zm3.45-9.42a5.74 5.74 0 012.84-.74c1.51 0 2.33.74 2.33 1.92a2.08 2.08 0 01-2.29 1.92 5.23 5.23 0 01-1.54-.17 1.59 1.59 0 000 1.47 6 6 0 011.66-.17c1.54 0 2.67.74 2.67 2a2 2 0 01-.91 1.78 3.89 3.89 0 01-1.8.36 5.32 5.32 0 01-3.06-.89 2.33 2.33 0 00-.65 1.32 4.07 4.07 0 001.44.65 7.21 7.21 0 002.12.31c2.91 0 5-1.25 5-3.67a2.6 2.6 0 00-2.52-2.54v-.12a2.91 2.91 0 002-2.74c0-1.63-1.25-2.86-3.64-2.86a8.35 8.35 0 00-4 .87 2.67 2.67 0 00.37 1.29m15.26-.84c2.28 0 3.39 2 3.39 4.85a4.92 4.92 0 01-1.21 3.69 3.11 3.11 0 01-1.7.55c-2.22 0-3.61-1.82-3.61-5a4.82 4.82 0 011.06-3.43 2.76 2.76 0 012.07-.67m.38-1.44a5.22 5.22 0 00-4 1.7 6.31 6.31 0 00-1.56 4.44 6.2 6.2 0 001.42 4.23 5.4 5.4 0 007.72-.05 6.35 6.35 0 001.49-4.35c-.02-3.67-1.87-5.96-5.07-5.96zm17.4 11.72c-.1-1.61-.15-3.36-.15-5.23v-.77c0-2.42.05-4.2.15-5.3h-2.29a27 27 0 01.17 3.6v1a35 35 0 01-5.29 0v-.86a32.56 32.56 0 01.14-3.74h-2.31c.12 1.1.17 2.88.17 5.32v.7c0 2.14-.05 3.91-.17 5.28h2.31c-.1-.89-.14-2.35-.14-4.34v-.94a35 35 0 015.29 0v.94a40.7 40.7 0 01-.17 4.34zm2.09-9.65a20.63 20.63 0 012.79-.14h1v2.69a70.94 70.94 0 01-.21 7.1h2.43c-.12-1.18-.19-3.53-.19-7v-2.76h1a17.8 17.8 0 012.76.14v-1.65h-9.5zm12.99 6.39a2.25 2.25 0 01.58-1.52 5.23 5.23 0 012.91-.57 7.75 7.75 0 011.37.19v2.35a3.4 3.4 0 01-2.86 1.59 1.93 1.93 0 01-2-2m6.91-4c0-3.14-1.18-4.34-3.66-4.34a10.88 10.88 0 00-4.71 1.25 1.53 1.53 0 00.43 1.2 7.16 7.16 0 013.44-1c1.92 0 2.45 1 2.43 3.57-4.91.08-6.93 1.08-6.93 3.75a3 3 0 003.15 3 4.78 4.78 0 003.83-1.9h.07a14.33 14.33 0 00.17 1.87l1.95-.19a35.68 35.68 0 01-.17-4.82zm12.39 7.22c-.07-1.1-.12-2.93-.12-5.47v-.89c0-2.33 0-4 .12-4.94h-7.65a12.42 12.42 0 01.19 2.37v.65c0 4.82-.82 6.84-2.52 6.58a3 3 0 000 1.92c3.08.45 4.29-2.45 4.29-8.33v-1.75h3.56v5a43.33 43.33 0 01-.19 4.9zm9.75-3.77a2.42 2.42 0 01-1 2.14 3.52 3.52 0 01-1.85.38 4.42 4.42 0 01-1.59-.19 30.18 30.18 0 010-4.66c2.79-.64 4.43.32 4.43 2.33m-6.6-7.53a37.49 37.49 0 01.17 4.6v.89c0 2.71-.05 4.61-.14 5.69a18.09 18.09 0 003.34.26c3.47 0 5.22-1.53 5.22-3.91a3.44 3.44 0 00-1.73-3.26 6.46 6.46 0 00-4.69-.29v-1.27a16.94 16.94 0 01.14-2.71zm20.66 11.3c-.1-1.61-.15-3.36-.15-5.23v-.77c0-2.42.05-4.2.15-5.3h-2.29a27 27 0 01.17 3.6v1a35 35 0 01-5.29 0v-.86a35.1 35.1 0 01.14-3.74h-2.31c.12 1.1.17 2.88.17 5.32v.7c0 2.14-.05 3.91-.17 5.28h2.31c-.09-.89-.14-2.35-.14-4.34v-.94a35 35 0 015.29 0v.94a40.7 40.7 0 01-.17 4.34zm7.96-10.27c2.29 0 3.4 2 3.4 4.85a4.92 4.92 0 01-1.21 3.69 3.12 3.12 0 01-1.71.55c-2.21 0-3.6-1.82-3.6-5a4.87 4.87 0 011.05-3.43 2.78 2.78 0 012.07-.67m.39-1.44a5.21 5.21 0 00-4 1.7 6.31 6.31 0 00-1.56 4.44 6.2 6.2 0 001.42 4.23 4.85 4.85 0 003.89 1.6 4.91 4.91 0 003.83-1.65 6.35 6.35 0 001.49-4.35c-.02-3.67-1.87-5.96-5.07-5.96zm9.21 5.12a5.1 5.1 0 01.36-1.73 4.19 4.19 0 01.77-1.39 3.66 3.66 0 012-.55 2.66 2.66 0 011.85.69 2.3 2.3 0 01.75 1.8 1.2 1.2 0 01-.17.72 12.87 12.87 0 01-2.53.32c-1.37.09-2.38.14-3 .14m3.44-5a4.91 4.91 0 00-4 1.76 6.41 6.41 0 00-1.44 4.22c0 3.62 1.95 5.86 5.24 5.86a6.69 6.69 0 004.19-1.37 1.45 1.45 0 00-.38-1 5.24 5.24 0 01-3.13.86c-2.29 0-3.8-1.29-3.9-4.1l1.76-.14a35.23 35.23 0 005.8-.77 4.5 4.5 0 00.24-1.42 3.79 3.79 0 00-1.21-2.72 4.19 4.19 0 00-3.2-1.2zm18.53.3c-.51.67-1.16 1.53-2.12 2.71s-1.81 2-2.07 2h-.51v-1.11a33.18 33.18 0 01.15-3.64h-2.31c.12 1.46.17 3.16.17 5.13v.84c0 2.14 0 3.91-.17 5.33h2.31c-.1-.94-.15-2.47-.15-4.58v-1h.51c.26 0 .67.48 1.2 1.39.36.55 1 1.58 1.66 2.45l.32.41a9 9 0 001.39 1.6 5.35 5.35 0 002.17-.33 32.67 32.67 0 01-3.54-4.47l-1.25-1.77c.38-.39 1.18-1.23 2.36-2.55s1.95-2.13 2.26-2.44zm14.34 11.3c-.07-1.3-.12-2.88-.12-4.75v-1.61c0-1.75.05-3.41.12-4.94H378c-.32.6-1.3 2-2.91 4.32s-2.56 3.67-2.87 4.2h-.12a36.75 36.75 0 00.15-3.94V962a21.19 21.19 0 01.12-2.92h-2.27c.12 1.41.17 3.07.17 4.92v1c0 2.38 0 4.18-.17 5.38h1.9c.44-.74 1.42-2.23 3-4.42s2.48-3.57 2.79-4.12h.08c-.08.81-.1 2.23-.1 4.24v1.35a19.49 19.49 0 01-.17 2.95zm5.6-8.42a3.35 3.35 0 011.88-1.53 3.49 3.49 0 01.92-.1c1.75.07 2.79 1.49 2.79 4.11a5.33 5.33 0 01-1.4 4.12 4.07 4.07 0 01-2.53.7 4.33 4.33 0 01-1.66-.29zm-2.19-2.8c.12 1.36.2 3.69.2 7v1.17c0 4-.08 6.53-.2 7.64h2.34c-.1-.94-.15-2.24-.15-3.92v-.67a7.35 7.35 0 001.54.19 6.3 6.3 0 004.41-1.7 6.22 6.22 0 001.83-4.75c0-3-1.33-4.8-3.52-5.19a4.54 4.54 0 00-1.66.29 3.49 3.49 0 00-2.67 1.51v-1.87zm22.38 11.22c-.07-1.3-.12-2.88-.12-4.75v-1.61c0-1.75 0-3.41.12-4.94h-1.78c-.31.6-1.3 2-2.91 4.32s-2.55 3.67-2.86 4.2h-.12c.09-.84.14-2.14.14-3.94V962a23 23 0 01.12-2.92h-2.29c.13 1.41.17 3.07.17 4.92v1c0 2.38 0 4.18-.17 5.38h1.86c.43-.74 1.42-2.23 3-4.42s2.48-3.57 2.79-4.12h.07c-.07.81-.1 2.23-.1 4.24v1.35a19.69 19.69 0 01-.16 2.95zm12.49 0c-.07-1.1-.12-2.93-.12-5.47v-.89c0-2.33.05-4 .12-4.94h-7.65a12.42 12.42 0 01.19 2.37v.65c0 4.82-.82 6.84-2.53 6.58a3.09 3.09 0 00.05 1.92c3.08.45 4.29-2.45 4.29-8.33v-1.75h3.56v5a43.33 43.33 0 01-.19 4.9zm12.2 0c-.07-1.1-.12-2.93-.12-5.47v-.89c0-2.33 0-4 .12-4.94h-7.65a12.42 12.42 0 01.19 2.37v.65c0 4.82-.82 6.84-2.53 6.58a3.09 3.09 0 000 1.92c3.08.45 4.28-2.45 4.28-8.33v-1.75h3.56v5a43.33 43.33 0 01-.19 4.9zm12.85 0c-.07-1.3-.12-2.88-.12-4.75v-1.61c0-1.75.05-3.41.12-4.94h-1.78c-.32.6-1.3 2-2.91 4.32s-2.55 3.67-2.87 4.2h-.12a36.75 36.75 0 00.15-3.94V962a23 23 0 01.12-2.92h-2.29c.12 1.41.17 3.07.17 4.92v1c0 2.38-.05 4.18-.17 5.38h1.85c.44-.74 1.42-2.23 3-4.42s2.48-3.57 2.79-4.12h.08c-.08.81-.1 2.23-.1 4.24v1.35a19.49 19.49 0 01-.17 2.95zm2.74-11.3A19.52 19.52 0 01446 962v1c0 2.52 1.25 3.53 3.46 3.53a6.82 6.82 0 003.18-.86V967a17.1 17.1 0 01-.22 3.38h2.38c-.12-1.13-.17-2.86-.17-5.18v-1.06c0-2.14.05-3.82.17-5.06h-2.33a29.76 29.76 0 01.17 3.48v2a5 5 0 01-2.43.52c-1.62 0-2.22-.76-2.22-2.61 0-1.06.05-2.21.17-3.43zm13.76 4.7a4.9 4.9 0 01.37-1.73 3.86 3.86 0 01.77-1.39 3.6 3.6 0 012-.55 2.66 2.66 0 011.85.69 2.3 2.3 0 01.75 1.8 1.2 1.2 0 01-.17.72 12.87 12.87 0 01-2.53.32c-1.37.09-2.38.14-3 .14m3.45-5a4.93 4.93 0 00-4.05 1.76 6.41 6.41 0 00-1.44 4.22c0 3.62 2 5.86 5.24 5.86a6.69 6.69 0 004.19-1.37 1.45 1.45 0 00-.38-1 5.24 5.24 0 01-3.13.86c-2.29 0-3.8-1.29-3.9-4.1l1.76-.14a35.23 35.23 0 005.8-.77 4.5 4.5 0 00.24-1.42 3.82 3.82 0 00-1.13-2.71 4.22 4.22 0 00-3.24-1.21zm11.82-.02a5.28 5.28 0 00-3.9 1.66 6 6 0 00-1.59 4.3 6.22 6.22 0 001.45 4.32 4.93 4.93 0 003.85 1.6 6.28 6.28 0 003.63-1.08 1.51 1.51 0 00-.29-1 5.19 5.19 0 01-2.41.63c-2.5 0-4.11-2-4.11-5a4.48 4.48 0 011.2-3.31 2.73 2.73 0 011.88-.58 4.15 4.15 0 012.79.94 2.53 2.53 0 00.84-1.47 4.76 4.76 0 00-3.34-1m12.77.31c-.5.67-1.15 1.53-2.11 2.71s-1.81 2-2.07 2H483v-1.11a33.18 33.18 0 01.15-3.64h-2.31c.12 1.46.17 3.16.17 5.13v.84c0 2.14 0 3.91-.17 5.33h2.31c-.1-.94-.15-2.47-.15-4.58v-1h.51c.26 0 .67.48 1.2 1.39.36.55 1 1.58 1.66 2.45l.31.41a9.28 9.28 0 001.4 1.6 5.35 5.35 0 002.17-.33 32.67 32.67 0 01-3.54-4.47l-1.25-1.77c.38-.39 1.18-1.23 2.36-2.55s1.94-2.13 2.26-2.44zm9.17 1.03c2.29 0 3.4 2 3.4 4.85a4.92 4.92 0 01-1.21 3.69 3.12 3.12 0 01-1.71.55c-2.21 0-3.61-1.82-3.61-5a4.87 4.87 0 011.06-3.43 2.78 2.78 0 012.07-.67m.39-1.44a5.21 5.21 0 00-4 1.7 6.26 6.26 0 00-1.56 4.44 6.2 6.2 0 001.42 4.23 4.85 4.85 0 003.89 1.6 4.91 4.91 0 003.83-1.65 6.35 6.35 0 001.49-4.35c-.02-3.67-1.87-5.96-5.07-5.96zm9.21 5.12a5.1 5.1 0 01.36-1.73 4 4 0 01.77-1.39 3.66 3.66 0 012-.55 2.68 2.68 0 011.85.69 2.3 2.3 0 01.75 1.8 1.2 1.2 0 01-.17.72 13 13 0 01-2.53.32c-1.37.09-2.38.14-3 .14m3.44-5a4.91 4.91 0 00-4 1.76 6.41 6.41 0 00-1.44 4.22c0 3.62 1.95 5.86 5.24 5.86a6.69 6.69 0 004.19-1.37 1.45 1.45 0 00-.38-1 5.24 5.24 0 01-3.13.86c-2.29 0-3.8-1.29-3.9-4.1l1.76-.14a35 35 0 005.79-.77 4.25 4.25 0 00.25-1.42 3.79 3.79 0 00-1.14-2.71 4.19 4.19 0 00-3.27-1.21zM196.13 998.5c-.09-1.61-.14-3.36-.14-5.23v-.77c0-2.42 0-4.2.14-5.3h-2.28a27 27 0 01.17 3.6v1a35.16 35.16 0 01-5.3 0v-.86a31.94 31.94 0 01.15-3.74h-2.31c.12 1.1.16 2.88.16 5.32v.7c0 2.14 0 3.91-.16 5.28h2.31c-.1-.89-.15-2.35-.15-4.34v-.94a35.16 35.16 0 015.3 0v.94a40.7 40.7 0 01-.17 4.34zm4.87-3.26a2.25 2.25 0 01.58-1.52 5.23 5.23 0 012.91-.57 7.87 7.87 0 011.37.19v2.35a3.4 3.4 0 01-2.86 1.59 1.93 1.93 0 01-2-2m6.91-4c0-3.14-1.18-4.34-3.66-4.34a10.88 10.88 0 00-4.71 1.25 1.53 1.53 0 00.43 1.2 7.16 7.16 0 013.44-1c1.92 0 2.45 1 2.43 3.57-4.91.08-6.93 1.08-6.93 3.75a3 3 0 003.15 3.05 4.78 4.78 0 003.83-1.9h.11a14.33 14.33 0 00.17 1.87l1.95-.19a35.68 35.68 0 01-.17-4.82zm2.64-4.08a21.45 21.45 0 01.14 2.88v1c0 2.52 1.25 3.53 3.46 3.53a6.79 6.79 0 003.18-.86v1.32a16.34 16.34 0 01-.22 3.38h2.39c-.12-1.13-.17-2.86-.17-5.18v-1.06c0-2.14 0-3.82.17-5.06h-2.34a29.76 29.76 0 01.17 3.48v2a5 5 0 01-2.43.52c-1.61 0-2.21-.76-2.21-2.61 0-1.06.05-2.21.17-3.43zm13.76 4.7a5.1 5.1 0 01.36-1.73 4 4 0 01.77-1.39 3.65 3.65 0 012-.55 2.69 2.69 0 011.86.69 2.32 2.32 0 01.74 1.8 1.2 1.2 0 01-.17.72 12.71 12.71 0 01-2.52.32c-1.37.09-2.39.14-3 .14m3.44-5a4.91 4.91 0 00-4 1.76 6.36 6.36 0 00-1.45 4.22c0 3.62 2 5.86 5.25 5.86a6.71 6.71 0 004.19-1.37 1.41 1.41 0 00-.39-1 5.2 5.2 0 01-3.13.86c-2.28 0-3.8-1.29-3.9-4.1L226 993a35 35 0 005.8-.77 4.24 4.24 0 00.24-1.42 3.78 3.78 0 00-1.13-2.71 4.22 4.22 0 00-3.16-1.22zm9.15 3.22a3.32 3.32 0 011.88-1.53 3.46 3.46 0 01.91-.1c1.76.07 2.79 1.49 2.79 4.11a5.33 5.33 0 01-1.39 4.12 4.09 4.09 0 01-2.53.7 4.33 4.33 0 01-1.66-.29zm-2.19-2.8c.12 1.36.19 3.69.19 7v1.17c0 4-.07 6.53-.19 7.64h2.34c-.1-.94-.15-2.24-.15-3.92v-.67a7.35 7.35 0 001.54.19 6.26 6.26 0 004.4-1.7 6.19 6.19 0 001.83-4.75c0-3-1.32-4.8-3.51-5.19a4.54 4.54 0 00-1.66.29 3.48 3.48 0 00-2.67 1.51v-1.87zm11.34 1.53a20.63 20.63 0 012.79-.14h1v2.69a66.77 66.77 0 01-.22 7.1h2.43c-.12-1.18-.19-3.53-.19-7v-2.76h1a18 18 0 012.77.14v-1.68h-9.5zm12.99 6.39a2.21 2.21 0 01.58-1.52 5.21 5.21 0 012.91-.57 7.87 7.87 0 011.37.19v2.35a3.43 3.43 0 01-2.86 1.59 1.93 1.93 0 01-2-2m6.9-4c0-3.14-1.17-4.34-3.65-4.34a10.92 10.92 0 00-4.72 1.25 1.57 1.57 0 00.43 1.2 7.19 7.19 0 013.44-1c1.93 0 2.46 1 2.44 3.57C259 992 257 993 257 995.67a3 3 0 003.15 3.05 4.76 4.76 0 003.82-1.9h.03a13.19 13.19 0 00.16 1.87l1.95-.19a35.68 35.68 0 01-.17-4.82zm12.93 7.22c-.1-1.61-.15-3.36-.15-5.23v-.77c0-2.42.05-4.2.15-5.3h-2.29a27 27 0 01.17 3.6v1a35.16 35.16 0 01-5.3 0v-.86a31.94 31.94 0 01.15-3.74h-2.31c.12 1.1.17 2.88.17 5.32v.7c0 2.14-.05 3.91-.17 5.28h2.31c-.1-.89-.15-2.35-.15-4.34v-.94a35.16 35.16 0 015.3 0v.94a40.7 40.7 0 01-.17 4.34zm13.09 0c-.07-1.3-.12-2.88-.12-4.75v-1.61c0-1.75.05-3.41.12-4.94h-1.78c-.31.6-1.3 2-2.91 4.32s-2.55 3.67-2.86 4.2h-.12c.09-.84.14-2.14.14-3.94v-1.66a23 23 0 01.12-2.92h-2.28c.12 1.41.16 3.07.16 4.92v1c0 2.38 0 4.18-.16 5.38h1.85c.43-.74 1.42-2.23 3-4.42s2.48-3.57 2.79-4.12h.05c-.07.81-.09 2.23-.09 4.24v1.35a19.49 19.49 0 01-.17 3zm4.88-6.6a5.1 5.1 0 01.36-1.73 4 4 0 01.77-1.39 3.65 3.65 0 012-.55 2.69 2.69 0 011.86.69 2.32 2.32 0 01.74 1.8 1.2 1.2 0 01-.17.72 12.71 12.71 0 01-2.52.32c-1.37.09-2.38.14-3 .14m3.44-5a4.91 4.91 0 00-4 1.76 6.42 6.42 0 00-1.45 4.22c0 3.62 1.95 5.86 5.25 5.86a6.71 6.71 0 004.19-1.37 1.41 1.41 0 00-.39-1 5.2 5.2 0 01-3.13.86c-2.28 0-3.8-1.29-3.89-4.1l1.75-.14a35 35 0 005.8-.77 4.24 4.24 0 00.24-1.42 3.78 3.78 0 00-1.13-2.71 4.22 4.22 0 00-3.28-1.21zm20.7 11.6c-.07-1.1-.12-2.93-.12-5.47v-.89c0-2.33.05-4 .12-4.94h-7.65a12.42 12.42 0 01.19 2.37v.65c0 4.82-.82 6.84-2.52 6.58a3 3 0 000 1.92c3.08.45 4.29-2.45 4.29-8.33v-1.75h3.56v5a43.33 43.33 0 01-.19 4.9zm7.68-10.27c2.28 0 3.39 2 3.39 4.85a5 5 0 01-1.2 3.69 3.14 3.14 0 01-1.71.55c-2.21 0-3.61-1.82-3.61-5a4.82 4.82 0 011.06-3.43 2.78 2.78 0 012.07-.67m.38-1.44a5.23 5.23 0 00-4 1.7 6.31 6.31 0 00-1.56 4.44 6.2 6.2 0 001.42 4.23 5.4 5.4 0 007.72 0 6.35 6.35 0 001.5-4.35c-.02-3.68-1.88-6.01-5.08-6.01zm10.18 11.72c-.12-1.18-.19-3.46-.19-6.82v-3h1.54a30.47 30.47 0 013.32.14v-1.62h-7c.12 1.27.17 2.71.17 4.32v1.08c0 2.37-.05 4.32-.17 5.88zm11.21-10.27c2.29 0 3.4 2 3.4 4.85a4.92 4.92 0 01-1.21 3.69 3.12 3.12 0 01-1.71.55c-2.21 0-3.6-1.82-3.6-5a4.87 4.87 0 011.05-3.43 2.79 2.79 0 012.07-.67m.39-1.44a5.22 5.22 0 00-4 1.7 6.31 6.31 0 00-1.56 4.44 6.2 6.2 0 001.42 4.23 4.85 4.85 0 003.89 1.6 4.91 4.91 0 003.83-1.65 6.35 6.35 0 001.49-4.35c.03-3.63-1.87-5.96-5.07-5.96zm6.47 2.07a20.63 20.63 0 012.79-.14h1v2.69a69.76 69.76 0 01-.22 7.1h2.43c-.12-1.18-.19-3.53-.19-7v-2.76h1a18.05 18.05 0 012.77.14v-1.68h-9.51zm21.27 9.65c-.07-1.3-.12-2.88-.12-4.75v-1.61c0-1.75.05-3.41.12-4.94h-1.78c-.31.6-1.3 2-2.91 4.32s-2.55 3.67-2.86 4.2H371c.09-.84.14-2.14.14-3.94v-1.66a23 23 0 01.12-2.92H369c.12 1.41.16 3.07.16 4.92v1c0 2.38 0 4.18-.16 5.38h1.85c.43-.74 1.42-2.23 3-4.42s2.48-3.57 2.79-4.12h.07c-.07.81-.1 2.23-.1 4.24v1.35a19.69 19.69 0 01-.16 3zm12.88 0c-.1-1.37-.15-3.19-.15-5.5v-.88q0-1.08.15-4.92h-9.44c.12 1.77.17 3.4.17 4.89v1c0 1.61-.05 3.39-.17 5.38h2.31c-.09-1.42-.14-3.58-.14-6.53v-3.33a18.92 18.92 0 012.55-.1 20.1 20.1 0 012.6.1v3.26c0 3-.07 5.18-.19 6.6zm4.83-3.26a2.21 2.21 0 01.58-1.52 5.21 5.21 0 012.91-.57 7.87 7.87 0 011.37.19v2.35a3.41 3.41 0 01-2.86 1.59 1.93 1.93 0 01-2-2m6.91-4c0-3.14-1.18-4.34-3.66-4.34a11 11 0 00-4.72 1.25 1.53 1.53 0 00.44 1.2 7.13 7.13 0 013.44-1c1.92 0 2.45 1 2.43 3.57-4.91.08-6.93 1.08-6.93 3.75a3 3 0 003.15 3.05 4.78 4.78 0 003.83-1.9h.07a12.7 12.7 0 00.17 1.87l1.95-.19a35.68 35.68 0 01-.17-4.82z"/></g></svg>