<svg data-name="Layer 1" xmlns="http://www.w3.org/2000/svg" viewBox="0 0 1920 1080"><defs><clipPath id="a"><path fill="none" d="M0 0h1920v1080H0z"/></clipPath></defs><g clip-path="url(#a)"><path fill="#d6e2d4" d="M0 0h1920v1080H0z"/><path d="M956.86 712.53h6.28v12.55h-6.28zm18.82 18.83h18.83v-37.65h-69v69h31.37V743.9h6.28v18.83h31.37v-25.1h-18.85zm-12.54-150.58h12.54v6.28h-18.82v-18.83h37.65v-25.09h-69v69h69v-37.63h-31.37zm-6.28-81.56h-6.27v37.64h-25.1v-69h37.65v37.64h6.27v-37.65h25.1v69h-37.65zm37.65-106.66h-31.37v37.65h-6.28v-37.65h-31.37v69h69zm-69-81.56h75.29v458h-81.58V311zm50.19 37.64h18.83v-31.37h-31.39v18.83h-6.28v-18.83h-31.37v69h31.37v-18.8h6.28v18.82h31.37v-31.37h-18.83zm-50.19 338.8h69v-69h-31.37v37.65h-6.28v-37.67h-31.37z" fill="#ea533d" fill-rule="evenodd"/><path d="M197 942.7q-.15-2-.15-6.89v-1.51q0-4.54.15-6.12h-8.72a11.23 11.23 0 01.15 2.08v1.66a27.86 27.86 0 01-.58 6.55c-.41 1.66-1.2 2.47-2.35 2.31a3.68 3.68 0 00.07 2 3.52 3.52 0 002.43-.6 5.33 5.33 0 001.55-2.93 26.64 26.64 0 00.8-6.26v-3.26a29.5 29.5 0 014.35 0v5.52c0 3.93-.07 6.4-.19 7.44zm7.9-10.28c2.27 0 3.38 2 3.38 4.85a5 5 0 01-1.2 3.7 3.12 3.12 0 01-1.71.55c-2.2 0-3.6-1.82-3.6-5a4.82 4.82 0 011.06-3.43 2.78 2.78 0 012.07-.68m.38-1.44a5.21 5.21 0 00-4 1.71 6.31 6.31 0 00-1.56 4.44 6.17 6.17 0 001.42 4.22 5.35 5.35 0 007.7-.05 6.35 6.35 0 001.49-4.34c-.01-3.64-1.86-5.95-5.05-5.95zm10.15 11.73c-.12-1.18-.19-3.46-.19-6.82v-3h1.53a27.68 27.68 0 013.32.15v-1.66h-7c.12 1.27.17 2.71.17 4.32v1.08c0 2.38-.05 4.32-.17 5.88zm11.19-10.28c2.28 0 3.38 2 3.38 4.85a5 5 0 01-1.2 3.7 3.11 3.11 0 01-1.7.55c-2.21 0-3.6-1.82-3.6-5a4.87 4.87 0 011.05-3.43 2.78 2.78 0 012.07-.68M227 931a5.21 5.21 0 00-4 1.71 6.31 6.31 0 00-1.56 4.44 6.17 6.17 0 001.42 4.22 5.35 5.35 0 007.7-.05A6.3 6.3 0 00232 937c0-3.69-1.81-6-5-6zm6.46 2.05a18.61 18.61 0 012.78-.15h1v2.69a67 67 0 01-.22 7.11h2.43c-.12-1.18-.19-3.53-.19-7v-2.8h1a16.32 16.32 0 012.76.15v-1.66h-9.48zm21.21 9.65c-.07-1.3-.12-2.88-.12-4.76v-1.6c0-1.76 0-3.41.12-5h-1.77c-.32.6-1.3 2-2.91 4.32s-2.54 3.67-2.85 4.2H247a36.53 36.53 0 00.15-3.93v-1.66a23.24 23.24 0 01.12-2.93H245c.12 1.42.17 3.07.17 4.92v1c0 2.38 0 4.18-.17 5.38h1.85c.43-.75 1.41-2.24 3-4.42s2.47-3.58 2.78-4.13h.08c-.08.82-.1 2.23-.1 4.25v1.34a19.63 19.63 0 01-.17 3zm12.84 0c-.09-1.37-.14-3.2-.14-5.5v-.89c0-.72.05-2.35.14-4.92h-9.41c.12 1.78.17 3.41.17 4.9v1c0 1.61 0 3.38-.17 5.38h2.31c-.1-1.42-.15-3.58-.15-6.53v-3.34a21.44 21.44 0 012.55-.09 22.58 22.58 0 012.59.09v3.27c0 3-.07 5.18-.19 6.6zm10.22-5.26a13.6 13.6 0 012-.1c1.54 0 2.74.58 2.74 2a2.18 2.18 0 01-.94 2 5.45 5.45 0 01-2.16.29 4.65 4.65 0 01-1.61-.2zm0-4.85a6.45 6.45 0 011.69-.19c1.72 0 2.59.62 2.59 1.87a2 2 0 01-1.76 1.9 12.7 12.7 0 01-2.52.05zm1.83-1.49a30.11 30.11 0 00-4 .29c.13 1.32.17 2.93.17 4.8v.94c0 2.23 0 4.1-.17 5.57a20.14 20.14 0 003.51.26c3.29 0 5.4-1.27 5.4-3.55a2.6 2.6 0 00-2.52-2.76v-.12a2.8 2.8 0 002.06-2.62c-.01-1.91-1.47-2.81-4.45-2.81zm11.16 1.95a18.7 18.7 0 012.78-.15h1v2.69q0 5.55-.21 7.11h2.42c-.12-1.18-.19-3.53-.19-7v-2.8h1a16.23 16.23 0 012.76.15v-1.66h-9.48zm12.96 6.38a2.18 2.18 0 01.58-1.51 5.15 5.15 0 012.9-.58 8.1 8.1 0 011.37.2v2.35a3.43 3.43 0 01-2.86 1.58 1.92 1.92 0 01-2-2m6.89-4c0-3.15-1.18-4.35-3.65-4.35a10.88 10.88 0 00-4.71 1.25 1.52 1.52 0 00.44 1.2 7.21 7.21 0 013.43-1c1.92 0 2.45 1 2.42 3.58-4.89.07-6.91 1.08-6.91 3.74a3 3 0 003.14 3 4.75 4.75 0 003.82-1.89h.07a14.54 14.54 0 00.17 1.87l1.94-.19a36.68 36.68 0 01-.16-4.83zm10.18-4.08c-.5.67-1.15 1.54-2.11 2.71s-1.8 2-2.06 2h-.51V935a33.39 33.39 0 01.15-3.65h-2.31c.12 1.47.17 3.17.17 5.14v.84c0 2.13-.05 3.91-.17 5.33h2.31c-.1-.94-.15-2.48-.15-4.59v-1h.51c.26 0 .67.48 1.2 1.4.36.55 1 1.58 1.65 2.44l.31.41a10 10 0 001.4 1.61 5.13 5.13 0 002.16-.34 31.78 31.78 0 01-3.53-4.46l-1.25-1.78c.38-.38 1.18-1.22 2.35-2.54s1.95-2.14 2.26-2.45zm9.15 1.03c2.28 0 3.38 2 3.38 4.85a5 5 0 01-1.2 3.7 3.11 3.11 0 01-1.7.55c-2.21 0-3.6-1.82-3.6-5a4.87 4.87 0 011.05-3.43 2.78 2.78 0 012.07-.68m.38-1.44a5.22 5.22 0 00-4 1.71 6.31 6.31 0 00-1.56 4.44 6.17 6.17 0 001.42 4.22 5.35 5.35 0 007.7-.05 6.3 6.3 0 001.49-4.34c-.01-3.64-1.86-5.95-5.05-5.95zm10.82-4.81a2 2 0 00-1.44.67 3.06 3.06 0 003.27 2.57 3.3 3.3 0 003.46-2.76c-.15-.22-.46-.31-.92-.29a2.09 2.09 0 01-2.16 1.8 2.17 2.17 0 01-2.21-2m6.65 16.54c-.07-1.3-.12-2.88-.12-4.76v-1.6c0-1.76.05-3.41.12-5H346c-.32.6-1.3 2-2.91 4.32s-2.54 3.67-2.85 4.2h-.12c.09-.84.14-2.13.14-3.93v-1.66a23.24 23.24 0 01.12-2.93h-2.28c.12 1.42.17 3.07.17 4.92v1c0 2.38-.05 4.18-.17 5.38h1.85c.43-.75 1.41-2.24 2.95-4.42s2.47-3.58 2.78-4.13h.08c-.08.82-.1 2.23-.1 4.25v1.34a19.63 19.63 0 01-.17 3zm14.93-11.3c-.5.67-1.15 1.54-2.11 2.71s-1.8 2-2.07 2H358V935c0-1.58.05-2.81.14-3.65h-2.3c.12 1.47.17 3.17.17 5.14v.84c0 2.13-.05 3.91-.17 5.33h2.3c-.09-.94-.14-2.48-.14-4.59v-1h.5c.27 0 .68.48 1.21 1.4.35.55 1 1.58 1.65 2.44l.31.41a10.14 10.14 0 001.39 1.61 5.07 5.07 0 002.16-.34 32.67 32.67 0 01-3.52-4.46l-1.25-1.78c.38-.38 1.17-1.22 2.35-2.54s1.94-2.14 2.26-2.45zm9.15 1.03c2.28 0 3.38 2 3.38 4.85A5 5 0 01374 941a3.11 3.11 0 01-1.7.55c-2.21 0-3.6-1.82-3.6-5a4.82 4.82 0 011.05-3.43 2.78 2.78 0 012.07-.68m.38-1.44a5.21 5.21 0 00-4 1.71 6.31 6.31 0 00-1.56 4.44 6.17 6.17 0 001.42 4.22 5.35 5.35 0 007.7-.05 6.35 6.35 0 001.49-4.34c-.01-3.67-1.86-5.98-5.05-5.98zm17.35 11.7a94.13 94.13 0 01-.14-5.24v-.76c0-2.43 0-4.2.14-5.31h-2.28a27.15 27.15 0 01.17 3.6v1a34.9 34.9 0 01-5.28 0v-.86a35.32 35.32 0 01.14-3.75H380c.12 1.11.17 2.88.17 5.33v.7c0 2.13-.05 3.91-.17 5.28h2.3c-.09-.89-.14-2.36-.14-4.35v-.93a34.9 34.9 0 015.28 0v.93a40.91 40.91 0 01-.17 4.35zm8.26-11.62a5.23 5.23 0 00-3.89 1.66 5.93 5.93 0 00-1.58 4.29 6.26 6.26 0 001.44 4.32 4.92 4.92 0 003.84 1.61 6.27 6.27 0 003.62-1.08 1.5 1.5 0 00-.29-1 5.14 5.14 0 01-2.4.62c-2.49 0-4.1-2-4.1-5a4.52 4.52 0 011.2-3.32 2.73 2.73 0 011.87-.57 4.15 4.15 0 012.78.93 2.51 2.51 0 00.84-1.46 4.7 4.7 0 00-3.33-1m4.56 1.97a18.61 18.61 0 012.78-.15h1v2.69q0 5.55-.21 7.11h2.42c-.12-1.18-.19-3.53-.19-7v-2.8h1a16.23 16.23 0 012.76.15v-1.66h-9.48zm13.7 1.27a3.35 3.35 0 011.87-1.54 3.08 3.08 0 01.92-.09c1.75.07 2.78 1.49 2.78 4.1a5.38 5.38 0 01-1.39 4.13 4.06 4.06 0 01-2.52.7 4.33 4.33 0 01-1.66-.29zm-2.18-2.81c.12 1.37.19 3.7.19 7v1.18c0 4-.07 6.53-.19 7.63h2.32c-.09-.93-.14-2.23-.14-3.91v-.67a7.27 7.27 0 001.54.19 6 6 0 006.21-6.46c0-3-1.32-4.8-3.5-5.18a4.34 4.34 0 00-1.66.29 3.48 3.48 0 00-2.66 1.51v-1.87zm15.86 11.19h.6a14.93 14.93 0 01-2.47 4 1.82 1.82 0 001.54 1.1c.79-1 1.82-3.45 3.14-7.24l.89-2.57 1-3.15c.55-1.6.94-2.76 1.2-3.43h-1.94c-.27 1.25-.7 2.91-1.28 5a45.55 45.55 0 01-1.39 4.44H431c-1.82-4.9-2.88-8-3.19-9.39h-2.57zm14.57-11.31c-.5.67-1.15 1.54-2.11 2.71s-1.8 2-2.07 2h-.5V935c0-1.58.05-2.81.14-3.65h-2.3c.12 1.47.17 3.17.17 5.14v.84c0 2.13 0 3.91-.17 5.33h2.3c-.09-.94-.14-2.48-.14-4.59v-1h.5c.27 0 .68.48 1.2 1.4.36.55 1 1.58 1.66 2.44l.31.41a10.14 10.14 0 001.39 1.68 5.07 5.07 0 002.16-.34 32.67 32.67 0 01-3.52-4.46l-1.25-1.78c.38-.38 1.17-1.22 2.35-2.54s1.94-2.14 2.26-2.45zm13.8 5.19c0-2.16.05-3.89.14-5.19H456c.12 1.23.17 2.88.17 5v4.9a21.82 21.82 0 01-2.52.09 21.31 21.31 0 01-2.5-.09v-4.9c0-2.11.05-3.77.15-5H449c.12 1.3.17 2.93.17 4.9v.71c0 2.21-.05 4.11-.17 5.72h9v2.85h1.73v-4.29h-1.54zm13.25 6.12c-.07-1.3-.12-2.88-.12-4.76v-1.6c0-1.76.05-3.41.12-5h-1.78c-.31.6-1.29 2-2.9 4.32s-2.55 3.67-2.86 4.2h-.12a36.53 36.53 0 00.15-3.93v-1.66a21.37 21.37 0 01.12-2.93h-2.28c.12 1.42.16 3.07.16 4.92v1c0 2.38 0 4.18-.16 5.38h1.84c.44-.75 1.42-2.24 3-4.42s2.47-3.58 2.78-4.13h.07c-.07.82-.09 2.23-.09 4.25v1.34a19.63 19.63 0 01-.17 3zm13.1 0c-.07-1.3-.12-2.88-.12-4.76v-1.6c0-1.76 0-3.41.12-5h-1.77c-.32.6-1.3 2-2.91 4.32s-2.54 3.67-2.85 4.2h-.12c.09-.84.14-2.13.14-3.93v-1.66a23.24 23.24 0 01.12-2.93h-2.28c.12 1.42.17 3.07.17 4.92v1c0 2.38-.05 4.18-.17 5.38h1.85c.43-.75 1.41-2.24 3-4.42s2.47-3.58 2.78-4.13h.08c-.08.82-.1 2.23-.1 4.25v1.34a19.63 19.63 0 01-.17 3zm17.11 0c-.07-1.11-.12-2.93-.12-5.48v-.88c0-2.33.05-4 .12-5H494a12.46 12.46 0 01.19 2.38v.65c0 4.82-.81 6.84-2.52 6.57a3.09 3.09 0 00.05 1.92c3.07.46 4.27-2.45 4.27-8.33v-1.75c.29 0 .86-.05 1.75-.05s1.49 0 1.8.05v5a43.59 43.59 0 01-.19 4.9zm4.54-6.6a5 5 0 01.36-1.73 3.86 3.86 0 01.77-1.39 3.61 3.61 0 012-.56 2.6 2.6 0 011.84.7 2.3 2.3 0 01.75 1.8 1.24 1.24 0 01-.17.72 12.24 12.24 0 01-2.52.31c-1.37.1-2.38.15-3 .15m3.43-5a4.91 4.91 0 00-4 1.75 6.45 6.45 0 00-1.44 4.23c0 3.62 1.94 5.85 5.23 5.85a6.62 6.62 0 004.18-1.37 1.39 1.39 0 00-.39-1 5.24 5.24 0 01-3.12.86c-2.28 0-3.79-1.3-3.88-4.1l1.75-.15a33.82 33.82 0 005.78-.77 4.22 4.22 0 00.24-1.41 3.76 3.76 0 00-1.13-2.71 4.14 4.14 0 00-3.25-1.2zm9.33 11.6c-.12-1.18-.19-3.46-.19-6.82v-3h1.54a27.49 27.49 0 013.31.15v-1.66h-7c.12 1.27.17 2.71.17 4.32v1.08c0 2.38-.05 4.32-.17 5.88zm13.51-11.31c-.5.67-1.15 1.54-2.11 2.71s-1.8 2-2.06 2h-.51V935a33.39 33.39 0 01.15-3.65h-2.31c.12 1.47.17 3.17.17 5.14v.84c0 2.13 0 3.91-.17 5.33h2.31c-.1-.94-.15-2.48-.15-4.59v-1h.51c.26 0 .67.48 1.2 1.4.36.55 1 1.58 1.65 2.44l.32.41a9.62 9.62 0 001.39 1.61 5.07 5.07 0 002.16-.34 33.35 33.35 0 01-3.53-4.46l-1.25-1.78c.39-.38 1.18-1.22 2.35-2.54s2-2.14 2.26-2.45zm9.15 1.03c2.28 0 3.38 2 3.38 4.85a5 5 0 01-1.2 3.7 3.11 3.11 0 01-1.7.55c-2.21 0-3.6-1.82-3.6-5a4.87 4.87 0 011-3.43 2.78 2.78 0 012.07-.68M542 931a5.22 5.22 0 00-4 1.71 6.31 6.31 0 00-1.56 4.44 6.17 6.17 0 001.42 4.22 5.35 5.35 0 007.7-.05A6.3 6.3 0 00547 937c0-3.69-1.86-6-5-6zm-354 36.51a2.22 2.22 0 01.57-1.51 5.18 5.18 0 012.9-.58 8 8 0 011.37.2V968a3.41 3.41 0 01-2.85 1.58 1.92 1.92 0 01-2-2m6.88-4c0-3.15-1.17-4.35-3.65-4.35a10.87 10.87 0 00-4.7 1.25 1.52 1.52 0 00.43 1.2 7.27 7.27 0 013.43-1c1.92 0 2.45 1 2.43 3.58-4.9.07-6.91 1.08-6.91 3.74a3 3 0 003.14 3 4.77 4.77 0 003.82-1.89h.07a12.86 12.86 0 00.17 1.87l1.94-.19a35.87 35.87 0 01-.17-4.83zm6.3-2.67a8.57 8.57 0 011.66-.09 8.75 8.75 0 011.68.09v8.43h-5.09c1-1.06 1.73-4.18 1.75-8.43m-3 12.72v-2.85h8.24v2.85h1.72v-4.29h-1.51c-.07-.77-.12-2.24-.12-4.4v-.76c0-1.95.05-3.53.15-4.71h-7.37a20 20 0 01.14 2.4 18.41 18.41 0 01-.67 5c-.43 1.63-1 2.45-1.56 2.45h-.74v4.29zm13.64-6.12a2.22 2.22 0 01.57-1.51 5.22 5.22 0 012.91-.58 8 8 0 011.36.2V968a3.4 3.4 0 01-2.85 1.58 1.92 1.92 0 01-2-2m6.88-4c0-3.15-1.17-4.35-3.64-4.35a10.88 10.88 0 00-4.71 1.25 1.55 1.55 0 00.43 1.2 7.28 7.28 0 013.44-1c1.92 0 2.44 1 2.42 3.58-4.89.07-6.91 1.08-6.91 3.74a3 3 0 003.14 3 4.75 4.75 0 003.82-1.89h.07a14.54 14.54 0 00.17 1.87l1.94-.19a35.87 35.87 0 01-.17-4.83zm12.76 7.2c-.1-1.37-.15-3.2-.15-5.5v-.89c0-.72.05-2.35.15-4.92H222c.12 1.78.17 3.41.17 4.9v1c0 1.61 0 3.38-.17 5.38h2.3c-.09-1.42-.14-3.58-.14-6.53v-3.34a21.35 21.35 0 012.54-.09 22.78 22.78 0 012.6.09v3.27c0 3-.08 5.18-.2 6.6zm2.06-9.65a18.76 18.76 0 012.79-.15h1v2.69a70 70 0 01-.22 7.11h2.42c-.12-1.18-.19-3.53-.19-7V961h1a16.23 16.23 0 012.76.15v-1.66h-9.56zm21.22 9.65c-.07-1.3-.12-2.88-.12-4.76v-1.6c0-1.76.05-3.41.12-4.95h-1.78c-.31.6-1.29 2-2.9 4.32s-2.55 3.67-2.86 4.2h-.12a36.53 36.53 0 00.15-3.93v-1.66a21.37 21.37 0 01.12-2.93h-2.28c.12 1.42.16 3.07.16 4.92v1c0 2.38 0 4.18-.16 5.38h1.84c.44-.75 1.42-2.24 3-4.42s2.47-3.58 2.78-4.13h.07c-.07.82-.09 2.23-.09 4.25v1.34a19.63 19.63 0 01-.17 3zm5.59-8.38a3.32 3.32 0 011.87-1.54 3 3 0 01.91-.09c1.76.07 2.79 1.49 2.79 4.1a5.38 5.38 0 01-1.39 4.13 4.06 4.06 0 01-2.52.7 4.33 4.33 0 01-1.66-.29zm-2.18-2.81c.12 1.37.19 3.7.19 7v1.18c0 4-.07 6.53-.19 7.63h2.32c-.09-.93-.14-2.23-.14-3.91v-.67a7.27 7.27 0 001.54.19 6.31 6.31 0 004.39-1.7 6.24 6.24 0 001.82-4.76c0-3-1.32-4.8-3.5-5.18a4.31 4.31 0 00-1.66.29 3.46 3.46 0 00-2.66 1.51v-1.87zM274 970.78h.6a14.93 14.93 0 01-2.47 4 1.81 1.81 0 001.53 1.1c.8-1 1.83-3.45 3.15-7.24l.89-2.57 1-3.15c.55-1.6.93-2.76 1.2-3.43H278c-.26 1.25-.69 2.91-1.27 4.95a45.55 45.55 0 01-1.39 4.44h-.12c-1.82-4.9-2.88-8-3.19-9.39h-2.57zm9.11-6.6a5 5 0 01.36-1.73 3.86 3.86 0 01.77-1.39 3.61 3.61 0 012-.56 2.6 2.6 0 011.84.7 2.3 2.3 0 01.75 1.8 1.24 1.24 0 01-.17.72 12.24 12.24 0 01-2.52.31c-1.37.1-2.38.15-3 .15m3.43-5a4.91 4.91 0 00-4 1.75 6.45 6.45 0 00-1.44 4.23c0 3.62 1.94 5.85 5.23 5.85a6.62 6.62 0 004.18-1.37 1.39 1.39 0 00-.39-1 5.24 5.24 0 01-3.12.86c-2.28 0-3.79-1.3-3.88-4.1l1.75-.15a33.82 33.82 0 005.78-.77 4.22 4.22 0 00.24-1.41 3.76 3.76 0 00-1.13-2.71 4.14 4.14 0 00-3.25-1.2zm5.64 1.95A18.61 18.61 0 01295 961h1v2.69a67 67 0 01-.22 7.11h2.43c-.12-1.18-.19-3.53-.19-7V961h1a16.23 16.23 0 012.76.15v-1.66h-9.48zm16.36-1.97a5.21 5.21 0 00-3.88 1.66 5.94 5.94 0 00-1.59 4.29 6.26 6.26 0 001.44 4.32 5 5 0 003.84 1.61A6.31 6.31 0 00312 970a1.55 1.55 0 00-.29-1 5.17 5.17 0 01-2.4.62c-2.5 0-4.11-2-4.11-5a4.52 4.52 0 011.2-3.32 2.78 2.78 0 011.88-.57 4.17 4.17 0 012.78.93 2.51 2.51 0 00.84-1.46 4.76 4.76 0 00-3.34-1m12.28 5.67a5.27 5.27 0 01-1 .1c-2.16 0-3.24-.75-3.24-2.26a2.27 2.27 0 01.82-1.7 3.64 3.64 0 011.94-.39 6.76 6.76 0 011.47.12zm2.13 5.91c-.12-1.54-.16-3.24-.16-5.09v-1.13a49.68 49.68 0 01.16-5 20.4 20.4 0 00-3.55-.29 6.23 6.23 0 00-3.45.89 2.91 2.91 0 00-1.4 2.62 2.94 2.94 0 002.62 2.88c-.16.24-.48.75-1 1.54s-.91 1.46-1.32 2.06a15.91 15.91 0 01-1 1.42 5.49 5.49 0 002 .29 4.54 4.54 0 001.13-1.47c.36-.57.94-1.6 1.2-2.08.15-.24.29-.48.46-.72.36-.51.57-.72.77-.72h1.39v4.8zm17.62 0c-.1-1.61-.14-3.36-.14-5.24v-.76c0-2.43 0-4.2.14-5.31h-2.28a27.15 27.15 0 01.17 3.6v1a34.9 34.9 0 01-5.28 0v-.86a35.32 35.32 0 01.14-3.75H331c.12 1.11.17 2.88.17 5.33v.7c0 2.13 0 3.91-.17 5.28h2.3c-.09-.89-.14-2.36-.14-4.35v-.93a34.9 34.9 0 015.28 0v.93a40.91 40.91 0 01-.17 4.35zm4.85-3.27A2.18 2.18 0 01346 966a5.15 5.15 0 012.9-.58 8.1 8.1 0 011.37.2V968a3.43 3.43 0 01-2.86 1.58 1.93 1.93 0 01-2-2m6.89-4c0-3.15-1.18-4.35-3.65-4.35a10.88 10.88 0 00-4.71 1.25 1.52 1.52 0 00.44 1.2 7.21 7.21 0 013.43-1c1.92 0 2.45 1 2.42 3.58-4.89.07-6.91 1.08-6.91 3.74a3 3 0 003.14 3 4.75 4.75 0 003.82-1.89h.07a14.54 14.54 0 00.17 1.87l1.94-.19a36.68 36.68 0 01-.16-4.83zm17.04 7.2c-.07-1.11-.12-2.93-.12-5.48v-.88c0-2.33 0-4 .12-4.95h-7.63a12.46 12.46 0 01.19 2.38v.65c0 4.82-.81 6.84-2.52 6.57a3 3 0 00.05 1.92c3.07.46 4.27-2.45 4.27-8.33v-1.75h3.55v5a43.59 43.59 0 01-.19 4.9zm4.56-3.27a2.18 2.18 0 01.58-1.51 5.18 5.18 0 012.9-.58 8.1 8.1 0 011.37.2V968a3.43 3.43 0 01-2.86 1.58 1.93 1.93 0 01-2-2m6.89-4c0-3.15-1.18-4.35-3.65-4.35a10.87 10.87 0 00-4.7 1.25 1.52 1.52 0 00.43 1.2 7.24 7.24 0 013.43-1c1.92 0 2.45 1 2.43 3.58-4.9.07-6.92 1.08-6.92 3.74a3 3 0 003.15 3 4.73 4.73 0 003.81-1.89h.08A13.35 13.35 0 00379 971l1.95-.19a35.87 35.87 0 01-.17-4.83zm2-2.45a18.76 18.76 0 012.79-.15h1v2.69a70 70 0 01-.22 7.11h2.42c-.12-1.18-.19-3.53-.19-7V961h1a16.23 16.23 0 012.76.15v-1.66h-9.48zm21.22 9.65c-.07-1.3-.12-2.88-.12-4.76v-1.6c0-1.76.05-3.41.12-4.95h-1.78c-.31.6-1.29 2-2.9 4.32s-2.55 3.67-2.86 4.2h-.12a36.53 36.53 0 00.15-3.93v-1.66a21.37 21.37 0 01.12-2.93h-2.28c.12 1.42.16 3.07.16 4.92v1c0 2.38 0 4.18-.16 5.38h1.84c.44-.75 1.42-2.24 3-4.42s2.47-3.58 2.78-4.13h.05c-.07.82-.09 2.23-.09 4.25v1.34a19.63 19.63 0 01-.17 3zm13 0a94.13 94.13 0 01-.14-5.24v-.76c0-2.43.05-4.2.14-5.31h-2.3a27.15 27.15 0 01.17 3.6v1a34.9 34.9 0 01-5.28 0v-.86a35.32 35.32 0 01.14-3.75h-2.3c.12 1.11.17 2.88.17 5.33v.7c0 2.13-.05 3.91-.17 5.28h2.3c-.09-.89-.14-2.36-.14-4.35v-.93a34.9 34.9 0 015.28 0v.93a40.91 40.91 0 01-.17 4.35zm13.09 0c-.08-1.3-.12-2.88-.12-4.76v-1.6q0-2.64.12-4.95h-1.78c-.31.6-1.3 2-2.9 4.32s-2.55 3.67-2.86 4.2h-.12a37.19 37.19 0 00.14-3.93v-1.66a23.24 23.24 0 01.12-2.93h-2.28c.12 1.42.17 3.07.17 4.92v1c0 2.38-.05 4.18-.17 5.38h1.85c.43-.75 1.42-2.24 2.95-4.42s2.48-3.58 2.79-4.13h.07c-.07.82-.1 2.23-.1 4.25v1.34a19.84 19.84 0 01-.16 3zm12.6-6.12c0-2.16 0-3.89.14-5.19h-2.3c.12 1.23.16 2.88.16 5v4.9a21.6 21.6 0 01-2.52.09 21.11 21.11 0 01-2.49-.09v-4.9c0-2.11.05-3.77.14-5h-2.3c.12 1.3.17 2.93.17 4.9v.69c0 2.21-.05 4.11-.17 5.72h9v2.85h1.73v-4.29h-1.53zm6.79 6.12h.6a14.93 14.93 0 01-2.47 4 1.8 1.8 0 001.53 1.1c.79-1 1.83-3.45 3.15-7.24l.88-2.57 1-3.15c.55-1.6.93-2.76 1.2-3.43h-2c-.26 1.25-.69 2.91-1.27 4.95a45.55 45.55 0 01-1.39 4.44h-.12a98.94 98.94 0 01-3.19-9.39h-2.57zm7.87-1.23a1.12 1.12 0 001.56 1.13 1.91 1.91 0 01-.43 1.49 1.42 1.42 0 01-1.15.65 1.68 1.68 0 000 .93 2.66 2.66 0 002-1 3.46 3.46 0 00.87-2.47c0-1.27-.58-2-1.47-2a1.33 1.33 0 00-1.39 1.27m19.04 1.23a94.13 94.13 0 01-.14-5.24v-.76c0-2.43.05-4.2.14-5.31h-2.28a27.15 27.15 0 01.17 3.6v1a34.9 34.9 0 01-5.28 0v-.86a35.32 35.32 0 01.14-3.75h-2.3c.12 1.11.17 2.88.17 5.33v.7c0 2.13-.05 3.91-.17 5.28h2.3c-.09-.89-.14-2.36-.14-4.35v-.93a34.9 34.9 0 015.28 0v.93a40.91 40.91 0 01-.17 4.35zm4.83-6.6a5 5 0 01.36-1.73 4 4 0 01.76-1.39 3.66 3.66 0 012-.56 2.61 2.61 0 011.85.7 2.32 2.32 0 01.74 1.8 1.24 1.24 0 01-.16.72 12.48 12.48 0 01-2.52.31c-1.37.1-2.38.15-3 .15m3.43-5a4.91 4.91 0 00-4 1.75 6.45 6.45 0 00-1.44 4.23c0 3.62 1.94 5.85 5.23 5.85a6.57 6.57 0 004.17-1.37 1.42 1.42 0 00-.38-1 5.26 5.26 0 01-3.12.86c-2.28 0-3.79-1.3-3.89-4.1l1.75-.15a33.8 33.8 0 005.79-.77 4.22 4.22 0 00.24-1.41 3.8 3.8 0 00-1.13-2.71 4.14 4.14 0 00-3.25-1.2zm10.33 1.95a18.61 18.61 0 012.78-.15h1v2.69q0 5.55-.21 7.11h2.42c-.12-1.18-.19-3.53-.19-7V961h1a16.23 16.23 0 012.76.15v-1.66H495zm12.89 3.05a5 5 0 01.36-1.73 4 4 0 01.77-1.39 3.66 3.66 0 012-.56 2.64 2.64 0 011.85.7 2.32 2.32 0 01.74 1.8 1.24 1.24 0 01-.17.72 12.24 12.24 0 01-2.52.31c-1.36.1-2.37.15-3 .15m3.44-5a4.93 4.93 0 00-4 1.75 6.45 6.45 0 00-1.44 4.23c0 3.62 1.95 5.85 5.24 5.85a6.59 6.59 0 004.17-1.37 1.42 1.42 0 00-.38-1 5.26 5.26 0 01-3.12.86c-2.28 0-3.79-1.3-3.89-4.1l1.75-.15a33.94 33.94 0 005.79-.77 4.49 4.49 0 00.24-1.41 3.8 3.8 0 00-1.13-2.71 4.17 4.17 0 00-3.26-1.2zm9.13 3.22a3.34 3.34 0 011.88-1.54 3 3 0 01.91-.09c1.75.07 2.78 1.49 2.78 4.1a5.34 5.34 0 01-1.39 4.13 4.06 4.06 0 01-2.52.7 4.33 4.33 0 01-1.66-.29zm-2.18-2.81c.12 1.37.19 3.7.19 7v1.18c0 4-.07 6.53-.19 7.63h2.33a38.88 38.88 0 01-.15-3.91v-.67a7.35 7.35 0 001.51.18 6.29 6.29 0 004.39-1.7 6.21 6.21 0 001.83-4.76c0-3-1.32-4.8-3.51-5.18a4.3 4.3 0 00-1.65.29 3.48 3.48 0 00-2.67 1.51v-1.87zm19.01 5.28a5.27 5.27 0 01-1 .1c-2.16 0-3.24-.75-3.24-2.26a2.27 2.27 0 01.82-1.7 3.64 3.64 0 011.94-.39 6.76 6.76 0 011.47.12zm2.13 5.91c-.12-1.54-.16-3.24-.16-5.09v-1.13a49.68 49.68 0 01.16-5 20.4 20.4 0 00-3.55-.29 6.23 6.23 0 00-3.45.89 2.91 2.91 0 00-1.4 2.62 2.94 2.94 0 002.62 2.88c-.16.24-.48.75-1 1.54s-.91 1.46-1.32 2.06a15.91 15.91 0 01-1 1.42 5.49 5.49 0 002 .29 4.54 4.54 0 001.13-1.52c.36-.57.94-1.6 1.2-2.08.15-.24.29-.48.46-.72.36-.51.57-.72.77-.72h1.39v4.8zm9.77-5.91a5.17 5.17 0 01-1 .1c-2.16 0-3.24-.75-3.24-2.26a2.25 2.25 0 01.81-1.7 3.65 3.65 0 012-.39 6.72 6.72 0 011.46.12zm2.14 5.91c-.12-1.54-.17-3.24-.17-5.09v-1.13a48.92 48.92 0 01.17-5 20.49 20.49 0 00-3.55-.29 6.29 6.29 0 00-3.46.89 2.9 2.9 0 00-1.39 2.62 2.93 2.93 0 002.61 2.88c-.17.24-.48.75-1 1.54s-.91 1.46-1.32 2.06-.75 1.08-1 1.42a5.46 5.46 0 002 .29 4.84 4.84 0 001.13-1.52c.36-.57.93-1.6 1.2-2.08.14-.24.28-.48.45-.72.36-.51.58-.72.77-.72h1.39v4.8zm-355.25 28.08c-.1-1.61-.14-3.36-.14-5.24v-.76c0-2.43 0-4.2.14-5.31h-2.28a27.15 27.15 0 01.17 3.6v1a34.9 34.9 0 01-5.28 0v-.86a35.32 35.32 0 01.14-3.75h-2.3c.12 1.11.17 2.88.17 5.33v.7c0 2.13 0 3.91-.17 5.28h2.3c-.09-.89-.14-2.36-.14-4.35v-.93a34.9 34.9 0 015.28 0v.93a40.91 40.91 0 01-.17 4.35zm13.1 0c-.07-1.3-.11-2.88-.11-4.76v-1.6c0-1.76 0-3.41.11-5h-1.77c-.31.6-1.3 2-2.9 4.32s-2.55 3.67-2.86 4.2h-.12c.09-.84.14-2.13.14-3.93v-1.66a23.24 23.24 0 01.12-2.93h-2.28c.12 1.42.17 3.07.17 4.92v1c0 2.38-.05 4.18-.17 5.38h1.85c.43-.75 1.42-2.24 3-4.42s2.47-3.58 2.79-4.13h.07c-.07.82-.1 2.23-.1 4.25v1.34a21.29 21.29 0 01-.16 3zm12.87-1.08a2.94 2.94 0 01-2.4-1.3 5.59 5.59 0 01-1-3.43c0-2 .7-3.46 1.66-4.11a3.05 3.05 0 011.39-.36 3.26 3.26 0 011.16 0c.07 4.25.09 7.27 0 9.07a3.15 3.15 0 01-.84.08m3.84-9.2c1.63 0 3 1.71 3 4.52 0 2-.51 3.36-1.49 4.17a4.93 4.93 0 01-2.74.51c-.07-3.1-.07-6.12 0-9.1a4.84 4.84 0 011.26-.05zm-1 14.93a27.78 27.78 0 01-.19-3.89V999a5.48 5.48 0 004.58-1.56 6.67 6.67 0 001.61-4.75c0-2.88-1.37-4.92-3.55-5.38a4.52 4.52 0 00-1.08-.07 6.18 6.18 0 00-1.56.24v-1.06c.05-2.71.07-4.2.1-4.46a3.69 3.69 0 00-1.13-.07 4.21 4.21 0 00-1.08.12c.07.67.09 2.08.09 4.24v1a5.46 5.46 0 00-4.36 1.39 5.7 5.7 0 00-1.76 4.44c0 3.34 1.71 5.5 4.13 5.91a5.6 5.6 0 001 .05 3.46 3.46 0 001-.15v.51c0 1.84 0 3.19-.14 4zm13.32-14.88c2.28 0 3.38 2 3.38 4.85a5 5 0 01-1.2 3.7 3.11 3.11 0 01-1.7.55c-2.21 0-3.6-1.82-3.6-5a4.87 4.87 0 011-3.43 2.78 2.78 0 012.07-.68m.38-1.44a5.22 5.22 0 00-4 1.71 6.31 6.31 0 00-1.56 4.44 6.17 6.17 0 001.42 4.22 5.35 5.35 0 007.7 0 6.3 6.3 0 001.49-4.34c.04-3.69-1.81-6.02-5-6.02zm10.01 3.35a3.35 3.35 0 011.87-1.54 3.08 3.08 0 01.92-.09c1.75.07 2.78 1.49 2.78 4.1a5.38 5.38 0 01-1.39 4.13 4.06 4.06 0 01-2.52.7 4.33 4.33 0 01-1.66-.29zm-2.18-2.81c.12 1.37.19 3.7.19 7v1.18c0 4-.07 6.53-.19 7.63h2.33a38.88 38.88 0 01-.15-3.91v-.67a7.27 7.27 0 001.54.19 6 6 0 006.21-6.46c0-3-1.32-4.8-3.5-5.18a4.34 4.34 0 00-1.66.29 3.48 3.48 0 00-2.66 1.51v-1.87zm14.18 11.19c-.07-2.64-.05-5.57.1-8.79h.12c.17.48.5 1.25 1 2.33l.88 1.87 1.11 2.47h1.13l.93-1.89c.89-1.9 1.61-3.46 2.11-4.73h.15c0 .36 0 1.7.05 4.06s0 3.88 0 4.68h2.18c-.26-2-.43-4.88-.55-8.64v-2.67h-1.94c-.34.89-1.35 3.07-3 6.58h-.09c-.72-1.37-1.78-3.58-3.15-6.58h-2l-.19 4c-.19 3.34-.38 5.76-.55 7.28zm16.13 0h.6a14.93 14.93 0 01-2.47 4 1.81 1.81 0 001.53 1.1c.8-1 1.83-3.45 3.15-7.24l.89-2.57 1-3.15c.55-1.6.93-2.76 1.2-3.43h-1.95c-.26 1.25-.69 2.91-1.27 5a45.55 45.55 0 01-1.39 4.44h-.12c-1.82-4.9-2.88-8-3.19-9.39h-2.57zm7.87-1.23a1.12 1.12 0 001.56 1.13 1.91 1.91 0 01-.43 1.49 1.41 1.41 0 01-1.15.65 1.68 1.68 0 00.05.93 2.66 2.66 0 002-1 3.46 3.46 0 00.87-2.47c0-1.27-.58-2-1.47-2a1.33 1.33 0 00-1.39 1.27m18.99 1.23a94.13 94.13 0 01-.14-5.24v-.76c0-2.43.05-4.2.14-5.31h-2.28a27.15 27.15 0 01.17 3.6v1a34.9 34.9 0 01-5.28 0v-.86a32.14 32.14 0 01.15-3.75H294c.12 1.11.17 2.88.17 5.33v.7c0 2.13-.05 3.91-.17 5.28h2.31c-.1-.89-.15-2.36-.15-4.35v-.93a34.9 34.9 0 015.28 0v.93a40.91 40.91 0 01-.17 4.35zm13.11 0c-.07-1.3-.12-2.88-.12-4.76v-1.6c0-1.76.05-3.41.12-5h-1.78c-.31.6-1.29 2-2.9 4.32s-2.55 3.67-2.86 4.2H309a36.53 36.53 0 00.15-3.93v-1.66a21.37 21.37 0 01.12-2.93H307c.12 1.42.16 3.07.16 4.92v1c0 2.38 0 4.18-.16 5.38h1.84c.44-.75 1.42-2.24 3-4.42s2.47-3.58 2.78-4.13h.07c-.07.82-.09 2.23-.09 4.25v1.34a19.63 19.63 0 01-.17 3zm11.31 0h.6a14.93 14.93 0 01-2.47 4 1.82 1.82 0 001.54 1.1c.79-1 1.82-3.45 3.14-7.24l.89-2.57 1-3.15c.55-1.6.94-2.76 1.2-3.43H332c-.27 1.25-.7 2.91-1.28 5a45.55 45.55 0 01-1.39 4.44h-.12c-1.82-4.9-2.88-8-3.19-9.39h-2.57zm7.72-9.46a5.73 5.73 0 012.83-.74c1.51 0 2.33.74 2.33 1.92a2.07 2.07 0 01-2.28 1.92 5.23 5.23 0 01-1.54-.17 1.57 1.57 0 000 1.46 6 6 0 011.66-.17c1.54 0 2.66.75 2.66 2a2 2 0 01-.91 1.78 3.84 3.84 0 01-1.8.36 5.31 5.31 0 01-3.05-.89 2.28 2.28 0 00-.64 1.32 4.26 4.26 0 001.44.65 7.44 7.44 0 002.11.31c2.9 0 5-1.25 5-3.67A2.6 2.6 0 00341 993v-.12a2.91 2.91 0 002-2.73c0-1.64-1.24-2.86-3.62-2.86a8.4 8.4 0 00-4 .86 2.85 2.85 0 00.36 1.3m20.26 9.41c-.1-1.61-.14-3.36-.14-5.24v-.76c0-2.43 0-4.2.14-5.31h-2.28a27.15 27.15 0 01.17 3.6v1a34.9 34.9 0 01-5.28 0v-.86a35.32 35.32 0 01.14-3.75h-2.3c.12 1.11.17 2.88.17 5.33v.7c0 2.13-.05 3.91-.17 5.28h2.3c-.09-.89-.14-2.36-.14-4.35v-.93a34.9 34.9 0 015.28 0v.93a40.91 40.91 0 01-.17 4.35zm4.85-3.27a2.22 2.22 0 01.57-1.51 5.22 5.22 0 012.91-.58 8.1 8.1 0 011.37.2v2.35a3.43 3.43 0 01-2.86 1.58 1.92 1.92 0 01-2-2m6.89-4c0-3.15-1.18-4.35-3.65-4.35a10.88 10.88 0 00-4.71 1.25 1.52 1.52 0 00.44 1.2 7.21 7.21 0 013.43-1c1.92 0 2.45 1 2.42 3.58-4.89.07-6.91 1.08-6.91 3.74a3 3 0 003.14 3.05 4.75 4.75 0 003.82-1.89h.07a14.54 14.54 0 00.17 1.87l1.94-.19a36.68 36.68 0 01-.16-4.83zm5.5 1.97a13.51 13.51 0 012-.1c1.54 0 2.74.58 2.74 2a2.2 2.2 0 01-.94 2 5.45 5.45 0 01-2.16.29 4.65 4.65 0 01-1.61-.2zm0-4.85a6.37 6.37 0 011.68-.19c1.73 0 2.59.62 2.59 1.87a2 2 0 01-1.75 1.9 12.7 12.7 0 01-2.52 0zm1.83-1.49a30.11 30.11 0 00-4 .29c.12 1.32.17 2.93.17 4.8v.94c0 2.23-.05 4.1-.17 5.57a20.14 20.14 0 003.51.26c3.28 0 5.4-1.27 5.4-3.55a2.61 2.61 0 00-2.52-2.76v-.12a2.8 2.8 0 002.06-2.62q.01-2.8-4.45-2.81zm9.26 8.33a2.18 2.18 0 01.58-1.51 5.15 5.15 0 012.9-.58 8.1 8.1 0 011.37.2v2.35a3.43 3.43 0 01-2.86 1.58 1.93 1.93 0 01-2-2m6.89-4c0-3.15-1.18-4.35-3.65-4.35a10.81 10.81 0 00-4.7 1.25 1.52 1.52 0 00.43 1.2 7.21 7.21 0 013.43-1c1.92 0 2.45 1 2.42 3.58-4.89.07-6.91 1.08-6.91 3.74a3 3 0 003.15 3.05 4.75 4.75 0 003.81-1.89h.07a14.54 14.54 0 00.17 1.87l1.95-.19a35.87 35.87 0 01-.17-4.83zm4.74.63a5 5 0 01.36-1.73 4 4 0 01.76-1.39 3.66 3.66 0 012-.56 2.61 2.61 0 011.85.7 2.32 2.32 0 01.74 1.8 1.24 1.24 0 01-.16.72 12.48 12.48 0 01-2.52.31c-1.37.1-2.38.15-3 .15m3.43-5a4.91 4.91 0 00-4 1.75 6.45 6.45 0 00-1.44 4.23c0 3.62 1.94 5.85 5.23 5.85a6.57 6.57 0 004.17-1.37 1.42 1.42 0 00-.38-1 5.26 5.26 0 01-3.12.86c-2.28 0-3.79-1.3-3.89-4.1l1.75-.15a33.8 33.8 0 005.79-.77 4.22 4.22 0 00.24-1.41 3.8 3.8 0 00-1.13-2.71 4.14 4.14 0 00-3.25-1.2zm8.51 11.6c-.07-2.64-.05-5.57.1-8.79h.12c.17.48.5 1.25 1 2.33l.88 1.87 1.11 2.47h1.13l.93-1.89c.89-1.9 1.61-3.46 2.11-4.73h.15c0 .36 0 1.7.05 4.06s0 3.88 0 4.68h2.18c-.26-2-.43-4.88-.55-8.64l-.05-2.67h-1.94c-.34.89-1.35 3.07-3 6.58H412c-.72-1.37-1.78-3.58-3.15-6.58h-2l-.19 4c-.19 3.34-.38 5.76-.55 7.28zm17.43-10.28c2.28 0 3.38 2 3.38 4.85a5 5 0 01-1.2 3.7 3.11 3.11 0 01-1.7.55c-2.21 0-3.6-1.82-3.6-5a4.87 4.87 0 011-3.43 2.78 2.78 0 012.07-.68m.38-1.44a5.21 5.21 0 00-4 1.71 6.31 6.31 0 00-1.56 4.44 6.17 6.17 0 001.42 4.22 5.35 5.35 0 007.7 0 6.3 6.3 0 001.49-4.34c.04-3.69-1.81-6.02-5-6.02zm12.67.11a5.21 5.21 0 00-3.88 1.66 5.94 5.94 0 00-1.59 4.29 6.26 6.26 0 001.44 4.32 5 5 0 003.84 1.61 6.31 6.31 0 003.63-1.08 1.55 1.55 0 00-.29-1 5.17 5.17 0 01-2.4.62c-2.5 0-4.11-2-4.11-5a4.52 4.52 0 011.2-3.32 2.78 2.78 0 011.88-.57 4.17 4.17 0 012.78.93 2.51 2.51 0 00.84-1.46 4.76 4.76 0 00-3.34-1m4.56 1.97a18.76 18.76 0 012.79-.15h1v2.69a67 67 0 01-.22 7.11h2.43c-.12-1.18-.2-3.53-.2-7v-2.76h1a16.23 16.23 0 012.76.15v-1.66h-9.56zm18.1 5.88a2.4 2.4 0 01-1 2.13 3.42 3.42 0 01-1.85.39 4.4 4.4 0 01-1.58-.19 30.19 30.19 0 010-4.66c2.78-.65 4.41.31 4.41 2.33m-6.57-7.54a37.8 37.8 0 01.17 4.61v.89c0 2.71-.05 4.61-.15 5.69a19 19 0 003.34.26c3.45 0 5.21-1.54 5.21-3.91a3.48 3.48 0 00-1.73-3.27 6.49 6.49 0 00-4.68-.28v-1.28a17.11 17.11 0 01.14-2.71z"/></g></svg>