<svg id="Layer_1" data-name="Layer 1" xmlns="http://www.w3.org/2000/svg" viewBox="0 0 1920 1080"><defs><clipPath id="clip-path"><path fill="none" d="M0 0h1920v1080H0z"/></clipPath><style>.cls-5{fill:none}.cls-4{fill:#ea533d}.cls-5{stroke:#e7e6e6;stroke-miterlimit:22.93;stroke-width:2px}</style></defs><g clip-path="url(#clip-path)"><path fill="#d6e2d4" d="M0 0h1920v1080H0z"/><path class="cls-4" d="M949.37 401.81h21.26v276.38h-21.26zm255.12 0h21.26v148.82h-21.26z"/><path class="cls-4" d="M1076.93 529.37h148.82v21.26h-148.82zM949.37 401.81h276.38v21.26H949.37zm0 255.12h148.82v21.26H949.37z"/><path class="cls-4" d="M1076.93 529.37h21.26v148.82h-21.26zm127.56-127.56h21.26v276.38h-21.26zm255.12 0h21.26v276.38h-21.26zm-127.56 0h21.26v85.04h-21.26z"/><path class="cls-4" d="M1204.49 401.81h276.38v21.26h-276.38zm0 255.12h276.38v21.26h-276.38zm0-127.56h148.82v21.26h-148.82z"/><path class="cls-5" d="M1204.49 401.81h21.26v21.26h-21.26zm21.26 0h21.26v21.26h-21.26zm21.26 0h21.26v21.26h-21.26zm21.26 0h21.26v21.26h-21.26zm21.26 0h21.26v21.26h-21.26zm21.26 0h21.26v21.26h-21.26zm21.26 0h21.26v21.26h-21.26zm21.26 0h21.26v21.26h-21.26zm21.26 0h21.26v21.26h-21.26zm21.26 0h21.26v21.26h-21.26zm42.52 0h21.26v21.26h-21.26zm-233.86 21.26h21.26v21.26h-21.26zm21.26 0h21.26v21.26h-21.26zm21.26 0h21.26v21.26h-21.26zm21.26 0h21.26v21.26h-21.26zm21.26 0h21.26v21.26h-21.26zm21.26 0h21.26v21.26h-21.26zm21.26 0h21.26v21.26h-21.26zm21.26 0h21.26v21.26h-21.26zm21.26 0h21.26v21.26h-21.26zm21.26 0h21.26v21.26h-21.26zm42.52 0h21.26v21.26h-21.26zm-233.86 21.26h21.26v21.26h-21.26zm21.26 0h21.26v21.26h-21.26zm21.26 0h21.26v21.26h-21.26zm21.26 0h21.26v21.26h-21.26zm21.26 0h21.26v21.26h-21.26zm21.26 0h21.26v21.26h-21.26zm21.26 0h21.26v21.26h-21.26zm21.26 0h21.26v21.26h-21.26zm21.26 0h21.26v21.26h-21.26zm21.26 0h21.26v21.26h-21.26zm42.52 0h21.26v21.26h-21.26zm-233.86 21.26h21.26v21.26h-21.26zm21.26 0h21.26v21.26h-21.26zm21.26 0h21.26v21.26h-21.26zm21.26 0h21.26v21.26h-21.26zm21.26 0h21.26v21.26h-21.26zm21.26 0h21.26v21.26h-21.26zm21.26 0h21.26v21.26h-21.26zm21.26 0h21.26v21.26h-21.26zm21.26 0h21.26v21.26h-21.26zm21.26 0h21.26v21.26h-21.26zm42.52 0h21.26v21.26h-21.26zm-233.86 21.26h21.26v21.26h-21.26zm21.26 0h21.26v21.26h-21.26zm21.26 0h21.26v21.26h-21.26zm21.26 0h21.26v21.26h-21.26zm21.26 0h21.26v21.26h-21.26zm21.26 0h21.26v21.26h-21.26zm21.26 0h21.26v21.26h-21.26zm21.26 0h21.26v21.26h-21.26zm21.26 0h21.26v21.26h-21.26zm21.26 0h21.26v21.26h-21.26zm42.52 0h21.26v21.26h-21.26zm-233.86 21.26h21.26v21.26h-21.26zm21.26 0h21.26v21.26h-21.26zm21.26 0h21.26v21.26h-21.26zm21.26 0h21.26v21.26h-21.26zm21.26 0h21.26v21.26h-21.26zm21.26 0h21.26v21.26h-21.26zm21.26 0h21.26v21.26h-21.26zm21.26 0h21.26v21.26h-21.26zm21.26 0h21.26v21.26h-21.26zm21.26 0h21.26v21.26h-21.26zm42.52 0h21.26v21.26h-21.26zm-233.86 21.26h21.26v21.26h-21.26zm21.26 0h21.26v21.26h-21.26zm21.26 0h21.26v21.26h-21.26zm21.26 0h21.26v21.26h-21.26zm21.26 0h21.26v21.26h-21.26zm21.26 0h21.26v21.26h-21.26zm21.26 0h21.26v21.26h-21.26zm21.26 0h21.26v21.26h-21.26zm21.26 0h21.26v21.26h-21.26zm21.26 0h21.26v21.26h-21.26zm42.52 0h21.26v21.26h-21.26zm-233.86 21.26h21.26v21.26h-21.26zm21.26 0h21.26v21.26h-21.26zm21.26 0h21.26v21.26h-21.26zm21.26 0h21.26v21.26h-21.26zm21.26 0h21.26v21.26h-21.26zm21.26 0h21.26v21.26h-21.26zm21.26 0h21.26v21.26h-21.26zm21.26 0h21.26v21.26h-21.26zm21.26 0h21.26v21.26h-21.26zm21.26 0h21.26v21.26h-21.26zm42.52 0h21.26v21.26h-21.26zm-233.86 21.26h21.26v21.26h-21.26zm21.26 0h21.26v21.26h-21.26zm21.26 0h21.26v21.26h-21.26zm21.26 0h21.26v21.26h-21.26zm21.26 0h21.26v21.26h-21.26zm21.26 0h21.26v21.26h-21.26zm21.26 0h21.26v21.26h-21.26zm21.26 0h21.26v21.26h-21.26zm21.26 0h21.26v21.26h-21.26zm21.26 0h21.26v21.26h-21.26zm42.52 0h21.26v21.26h-21.26zm-233.86 21.26h21.26v21.26h-21.26zm21.26 0h21.26v21.26h-21.26zm21.26 0h21.26v21.26h-21.26zm21.26 0h21.26v21.26h-21.26zm21.26 0h21.26v21.26h-21.26zm21.26 0h21.26v21.26h-21.26zm21.26 0h21.26v21.26h-21.26zm21.26 0h21.26v21.26h-21.26zm21.26 0h21.26v21.26h-21.26zm21.26 0h21.26v21.26h-21.26zm42.52 0h21.26v21.26h-21.26zm-233.86 21.26h21.26v21.26h-21.26zm21.26 0h21.26v21.26h-21.26zm21.26 0h21.26v21.26h-21.26zm21.26 0h21.26v21.26h-21.26zm21.26 0h21.26v21.26h-21.26zm21.26 0h21.26v21.26h-21.26zm21.26 0h21.26v21.26h-21.26zm21.26 0h21.26v21.26h-21.26zm21.26 0h21.26v21.26h-21.26zm21.26 0h21.26v21.26h-21.26zm42.52 0h21.26v21.26h-21.26zm-21.26-212.6h21.26v21.26h-21.26zm0 21.26h21.26v21.26h-21.26zm0 21.26h21.26v21.26h-21.26zm0 21.26h21.26v21.26h-21.26zm0 21.26h21.26v21.26h-21.26zm0 21.26h21.26v21.26h-21.26zm0 21.26h21.26v21.26h-21.26zm0 21.26h21.26v21.26h-21.26zm0 21.26h21.26v21.26h-21.26zm0 21.26h21.26v21.26h-21.26zm0 21.26h21.26v21.26h-21.26zm42.52-212.6h21.26v21.26h-21.26zm0 21.26h21.26v21.26h-21.26zm0 21.26h21.26v21.26h-21.26zm0 21.26h21.26v21.26h-21.26zm0 21.26h21.26v21.26h-21.26zm0 21.26h21.26v21.26h-21.26zm0 21.26h21.26v21.26h-21.26zm0 21.26h21.26v21.26h-21.26zm0 21.26h21.26v21.26h-21.26zm0 21.26h21.26v21.26h-21.26zm0 21.26h21.26v21.26h-21.26zm-255.12 21.26h21.26v21.26h-21.26zm21.26 0h21.26v21.26h-21.26zm21.26 0h21.26v21.26h-21.26zm21.26 0h21.26v21.26h-21.26zm21.26 0h21.26v21.26h-21.26zm21.26 0h21.26v21.26h-21.26zm21.26 0h21.26v21.26h-21.26zm21.26 0h21.26v21.26h-21.26zm21.26 0h21.26v21.26h-21.26zm21.26 0h21.26v21.26h-21.26zm42.52 0h21.26v21.26h-21.26zm-21.26 0h21.26v21.26h-21.26zm42.52 0h21.26v21.26h-21.26zm-255.12 21.26h21.26v21.26h-21.26zm21.26 0h21.26v21.26h-21.26zm21.26 0h21.26v21.26h-21.26zm21.26 0h21.26v21.26h-21.26zm21.26 0h21.26v21.26h-21.26zm21.26 0h21.26v21.26h-21.26zm21.26 0h21.26v21.26h-21.26zm21.26 0h21.26v21.26h-21.26zm21.26 0h21.26v21.26h-21.26zm21.26 0h21.26v21.26h-21.26zm42.52 0h21.26v21.26h-21.26zm-21.26 0h21.26v21.26h-21.26zm42.52 0h21.26v21.26h-21.26zM949.37 401.81h21.26v21.26h-21.26zm21.26 0h21.26v21.26h-21.26zm21.26 0h21.26v21.26h-21.26zm21.26 0h21.26v21.26h-21.26zm21.26 0h21.26v21.26h-21.26zm21.26 0h21.26v21.26h-21.26zm21.26 0h21.26v21.26h-21.26zm21.26 0h21.26v21.26h-21.26zm21.26 0h21.26v21.26h-21.26zm21.26 0h21.26v21.26h-21.26zm42.52 0h21.26v21.26h-21.26zm-233.86 21.26h21.26v21.26h-21.26zm21.26 0h21.26v21.26h-21.26zm21.26 0h21.26v21.26h-21.26zm21.26 0h21.26v21.26h-21.26zm21.26 0h21.26v21.26h-21.26zm21.26 0h21.26v21.26h-21.26zm21.26 0h21.26v21.26h-21.26zm21.26 0h21.26v21.26h-21.26zm21.26 0h21.26v21.26h-21.26zm21.26 0h21.26v21.26h-21.26zm42.52 0h21.26v21.26h-21.26zm-233.86 21.26h21.26v21.26h-21.26zm21.26 0h21.26v21.26h-21.26zm21.26 0h21.26v21.26h-21.26zm21.26 0h21.26v21.26h-21.26zm21.26 0h21.26v21.26h-21.26zm21.26 0h21.26v21.26h-21.26zm21.26 0h21.26v21.26h-21.26zm21.26 0h21.26v21.26h-21.26zm21.26 0h21.26v21.26h-21.26zm21.26 0h21.26v21.26h-21.26zm42.52 0h21.26v21.26h-21.26zm-233.86 21.26h21.26v21.26h-21.26zm21.26 0h21.26v21.26h-21.26zm21.26 0h21.26v21.26h-21.26zm21.26 0h21.26v21.26h-21.26zm21.26 0h21.26v21.26h-21.26zm21.26 0h21.26v21.26h-21.26zm21.26 0h21.26v21.26h-21.26zm21.26 0h21.26v21.26h-21.26zm21.26 0h21.26v21.26h-21.26zm21.26 0h21.26v21.26h-21.26zm42.52 0h21.26v21.26h-21.26zm-233.86 21.26h21.26v21.26h-21.26zm21.26 0h21.26v21.26h-21.26zm21.26 0h21.26v21.26h-21.26zm21.26 0h21.26v21.26h-21.26zm21.26 0h21.26v21.26h-21.26zm21.26 0h21.26v21.26h-21.26zm21.26 0h21.26v21.26h-21.26zm21.26 0h21.26v21.26h-21.26zm21.26 0h21.26v21.26h-21.26zm21.26 0h21.26v21.26h-21.26zm42.52 0h21.26v21.26h-21.26zm-233.86 21.26h21.26v21.26h-21.26zm21.26 0h21.26v21.26h-21.26zm21.26 0h21.26v21.26h-21.26zm21.26 0h21.26v21.26h-21.26zm21.26 0h21.26v21.26h-21.26zm21.26 0h21.26v21.26h-21.26zm21.26 0h21.26v21.26h-21.26zm21.26 0h21.26v21.26h-21.26zm21.26 0h21.26v21.26h-21.26zm21.26 0h21.26v21.26h-21.26zm42.52 0h21.26v21.26h-21.26zm-233.86 21.26h21.26v21.26h-21.26zm21.26 0h21.26v21.26h-21.26zm21.26 0h21.26v21.26h-21.26zm21.26 0h21.26v21.26h-21.26zm21.26 0h21.26v21.26h-21.26zm21.26 0h21.26v21.26h-21.26zm21.26 0h21.26v21.26h-21.26zm21.26 0h21.26v21.26h-21.26zm21.26 0h21.26v21.26h-21.26zm21.26 0h21.26v21.26h-21.26zm42.52 0h21.26v21.26h-21.26zm-233.86 21.26h21.26v21.26h-21.26zm21.26 0h21.26v21.26h-21.26zm21.26 0h21.26v21.26h-21.26zm21.26 0h21.26v21.26h-21.26zm21.26 0h21.26v21.26h-21.26zm21.26 0h21.26v21.26h-21.26zm21.26 0h21.26v21.26h-21.26zm21.26 0h21.26v21.26h-21.26zm21.26 0h21.26v21.26h-21.26zm21.26 0h21.26v21.26h-21.26zm42.52 0h21.26v21.26h-21.26zm-233.86 21.26h21.26v21.26h-21.26zm21.26 0h21.26v21.26h-21.26zm21.26 0h21.26v21.26h-21.26zm21.26 0h21.26v21.26h-21.26zm21.26 0h21.26v21.26h-21.26zm21.26 0h21.26v21.26h-21.26zm21.26 0h21.26v21.26h-21.26zm21.26 0h21.26v21.26h-21.26zm21.26 0h21.26v21.26h-21.26zm21.26 0h21.26v21.26h-21.26zm42.52 0h21.26v21.26h-21.26zm-233.86 21.26h21.26v21.26h-21.26zm21.26 0h21.26v21.26h-21.26zm21.26 0h21.26v21.26h-21.26zm21.26 0h21.26v21.26h-21.26zm21.26 0h21.26v21.26h-21.26zm21.26 0h21.26v21.26h-21.26zm21.26 0h21.26v21.26h-21.26zm21.26 0h21.26v21.26h-21.26zm21.26 0h21.26v21.26h-21.26zm21.26 0h21.26v21.26h-21.26zm42.52 0h21.26v21.26h-21.26zm-233.86 21.26h21.26v21.26h-21.26zm21.26 0h21.26v21.26h-21.26zm21.26 0h21.26v21.26h-21.26zm21.26 0h21.26v21.26h-21.26zm21.26 0h21.26v21.26h-21.26zm21.26 0h21.26v21.26h-21.26zm21.26 0h21.26v21.26h-21.26zm21.26 0h21.26v21.26h-21.26zm21.26 0h21.26v21.26h-21.26zm21.26 0h21.26v21.26h-21.26zm42.52 0h21.26v21.26h-21.26zm-21.26-212.6h21.26v21.26h-21.26zm0 21.26h21.26v21.26h-21.26zm0 21.26h21.26v21.26h-21.26zm0 21.26h21.26v21.26h-21.26zm0 21.26h21.26v21.26h-21.26zm0 21.26h21.26v21.26h-21.26zm0 21.26h21.26v21.26h-21.26zm0 21.26h21.26v21.26h-21.26zm0 21.26h21.26v21.26h-21.26zm0 21.26h21.26v21.26h-21.26zm0 21.26h21.26v21.26h-21.26z"/><path class="cls-5" d="M1204.49 401.81h21.26v21.26h-21.26zm0 21.26h21.26v21.26h-21.26zm0 21.26h21.26v21.26h-21.26zm0 21.26h21.26v21.26h-21.26zm0 21.26h21.26v21.26h-21.26zm0 21.26h21.26v21.26h-21.26zm0 21.26h21.26v21.26h-21.26zm0 21.26h21.26v21.26h-21.26zm0 21.26h21.26v21.26h-21.26zm0 21.26h21.26v21.26h-21.26zm0 21.26h21.26v21.26h-21.26zm-255.12 21.26h21.26v21.26h-21.26zm21.26 0h21.26v21.26h-21.26zm21.26 0h21.26v21.26h-21.26zm21.26 0h21.26v21.26h-21.26zm21.26 0h21.26v21.26h-21.26zm21.26 0h21.26v21.26h-21.26zm21.26 0h21.26v21.26h-21.26zm21.26 0h21.26v21.26h-21.26zm21.26 0h21.26v21.26h-21.26zm21.26 0h21.26v21.26h-21.26zm42.52 0h21.26v21.26h-21.26zm-21.26 0h21.26v21.26h-21.26zm42.52 0h21.26v21.26h-21.26zm-255.12 21.26h21.26v21.26h-21.26zm21.26 0h21.26v21.26h-21.26zm21.26 0h21.26v21.26h-21.26zm21.26 0h21.26v21.26h-21.26zm21.26 0h21.26v21.26h-21.26zm21.26 0h21.26v21.26h-21.26zm21.26 0h21.26v21.26h-21.26zm21.26 0h21.26v21.26h-21.26zm21.26 0h21.26v21.26h-21.26zm21.26 0h21.26v21.26h-21.26zm42.52 0h21.26v21.26h-21.26zm-21.26 0h21.26v21.26h-21.26zm42.52 0h21.26v21.26h-21.26z"/><path class="cls-4" d="M184 401.81h21.26v276.38H184zm255.12 0h21.26v276.38h-21.26zm-127.56 0h21.26v85.04h-21.26z"/><path class="cls-4" d="M184 401.81h276.38v21.26H184zm127.56 191.34h21.26v85.04h-21.26z"/><path class="cls-4" d="M184 656.93h276.38v21.26H184zm191.34-127.56h85.04v21.26h-85.04z"/><path class="cls-4" d="M439.12 401.81h21.26v276.38h-21.26zm255.13 0h21.26v276.38h-21.26zm-127.56 0h21.26v85.04h-21.26z"/><path class="cls-4" d="M439.12 401.81H715.5v21.26H439.12zm0 255.12H715.5v21.26H439.12zm0-127.56h148.82v21.26H439.12z"/><path class="cls-4" d="M694.25 401.81h21.26v276.38h-21.26zm255.12 0h21.26v276.38h-21.26zm-127.56 0h21.26v85.04h-21.26z"/><path class="cls-4" d="M694.25 401.81h276.38v21.26H694.25zm0 255.12h276.38v21.26H694.25z"/><path class="cls-4" d="M821.81 593.15h21.26v85.04h-21.26zm637.8-191.34h21.26v276.38h-21.26zm255.13 0H1736v233.86h-21.26zm-127.56 95.67h21.26V540h-21.26z"/><path class="cls-4" d="M1459.61 401.81h276.38v21.26h-276.38zm0 255.12h148.82v21.26h-148.82z"/><path class="cls-4" d="M1587.18 614.41h21.26v63.78h-21.26z"/><path class="cls-4" d="M1587.18 614.41H1736v21.26h-148.82z"/><path class="cls-5" d="M1459.61 401.81h21.26v21.26h-21.26zm21.26 0h21.26v21.26h-21.26zm21.26 0h21.26v21.26h-21.26zm21.26 0h21.26v21.26h-21.26zm21.26 0h21.26v21.26h-21.26zm21.27 0h21.26v21.26h-21.26zm21.26 0h21.26v21.26h-21.26zm21.26 0h21.26v21.26h-21.26zm21.26 0h21.26v21.26h-21.26zm21.26 0h21.26v21.26h-21.26zm42.52 0h21.26v21.26h-21.26zm-233.87 21.26h21.26v21.26h-21.26zm21.26 0h21.26v21.26h-21.26zm21.26 0h21.26v21.26h-21.26zm21.26 0h21.26v21.26h-21.26zm21.26 0h21.26v21.26h-21.26zm21.27 0h21.26v21.26h-21.26zm21.26 0h21.26v21.26h-21.26zm21.26 0h21.26v21.26h-21.26zm21.26 0h21.26v21.26h-21.26zm21.26 0h21.26v21.26h-21.26zm42.52 0h21.26v21.26h-21.26zm-233.87 21.26h21.26v21.26h-21.26zm21.26 0h21.26v21.26h-21.26zm21.26 0h21.26v21.26h-21.26zm21.26 0h21.26v21.26h-21.26zm21.26 0h21.26v21.26h-21.26zm21.27 0h21.26v21.26h-21.26zm21.26 0h21.26v21.26h-21.26zm21.26 0h21.26v21.26h-21.26zm21.26 0h21.26v21.26h-21.26zm21.26 0h21.26v21.26h-21.26zm42.52 0h21.26v21.26h-21.26zm-233.87 21.26h21.26v21.26h-21.26zm21.26 0h21.26v21.26h-21.26zm21.26 0h21.26v21.26h-21.26zm21.26 0h21.26v21.26h-21.26zm21.26 0h21.26v21.26h-21.26zm21.27 0h21.26v21.26h-21.26zm21.26 0h21.26v21.26h-21.26zm21.26 0h21.26v21.26h-21.26zm21.26 0h21.26v21.26h-21.26zm21.26 0h21.26v21.26h-21.26zm42.52 0h21.26v21.26h-21.26zm-233.87 21.26h21.26v21.26h-21.26zm21.26 0h21.26v21.26h-21.26zm21.26 0h21.26v21.26h-21.26zm21.26 0h21.26v21.26h-21.26zm21.26 0h21.26v21.26h-21.26zm21.27 0h21.26v21.26h-21.26zm21.26 0h21.26v21.26h-21.26zm21.26 0h21.26v21.26h-21.26zm21.26 0h21.26v21.26h-21.26zm21.26 0h21.26v21.26h-21.26zm42.52 0h21.26v21.26h-21.26zm-233.87 21.26h21.26v21.26h-21.26zm21.26 0h21.26v21.26h-21.26zm21.26 0h21.26v21.26h-21.26zm21.26 0h21.26v21.26h-21.26zm21.26 0h21.26v21.26h-21.26zm21.27 0h21.26v21.26h-21.26zm21.26 0h21.26v21.26h-21.26zm21.26 0h21.26v21.26h-21.26zm21.26 0h21.26v21.26h-21.26zm21.26 0h21.26v21.26h-21.26zm42.52 0h21.26v21.26h-21.26zm-233.87 21.26h21.26v21.26h-21.26zm21.26 0h21.26v21.26h-21.26zm21.26 0h21.26v21.26h-21.26zm21.26 0h21.26v21.26h-21.26zm21.26 0h21.26v21.26h-21.26zm21.27 0h21.26v21.26h-21.26zm21.26 0h21.26v21.26h-21.26zm21.26 0h21.26v21.26h-21.26zm21.26 0h21.26v21.26h-21.26zm21.26 0h21.26v21.26h-21.26zm42.52 0h21.26v21.26h-21.26zm-233.87 21.26h21.26v21.26h-21.26zm21.26 0h21.26v21.26h-21.26zm21.26 0h21.26v21.26h-21.26zm21.26 0h21.26v21.26h-21.26zm21.26 0h21.26v21.26h-21.26zm21.27 0h21.26v21.26h-21.26zm21.26 0h21.26v21.26h-21.26zm21.26 0h21.26v21.26h-21.26zm21.26 0h21.26v21.26h-21.26zm21.26 0h21.26v21.26h-21.26zm42.52 0h21.26v21.26h-21.26zm-233.87 21.26h21.26v21.26h-21.26zm21.26 0h21.26v21.26h-21.26zm21.26 0h21.26v21.26h-21.26zm21.26 0h21.26v21.26h-21.26zm21.26 0h21.26v21.26h-21.26zm21.27 0h21.26v21.26h-21.26zm21.26 0h21.26v21.26h-21.26zm21.26 0h21.26v21.26h-21.26zm21.26 0h21.26v21.26h-21.26zm21.26 0h21.26v21.26h-21.26zm42.52 0h21.26v21.26h-21.26zm-233.87 21.26h21.26v21.26h-21.26zm21.26 0h21.26v21.26h-21.26zm21.26 0h21.26v21.26h-21.26zm21.26 0h21.26v21.26h-21.26zm21.26 0h21.26v21.26h-21.26zm21.27 0h21.26v21.26h-21.26zm21.26 0h21.26v21.26h-21.26zm21.26 0h21.26v21.26h-21.26zm21.26 0h21.26v21.26h-21.26zm21.26 0h21.26v21.26h-21.26zm42.52 0h21.26v21.26h-21.26zm-233.87 21.26h21.26v21.26h-21.26zm21.26 0h21.26v21.26h-21.26zm21.26 0h21.26v21.26h-21.26zm21.26 0h21.26v21.26h-21.26zm21.26 0h21.26v21.26h-21.26zm21.27 0h21.26v21.26h-21.26zm21.26 0h21.26v21.26h-21.26zm21.26 0h21.26v21.26h-21.26zm21.26 0h21.26v21.26h-21.26zm21.26 0h21.26v21.26h-21.26zm42.52 0h21.26v21.26h-21.26zm-21.26-212.6h21.26v21.26h-21.26zm0 21.26h21.26v21.26h-21.26zm0 21.26h21.26v21.26h-21.26zm0 21.26h21.26v21.26h-21.26zm0 21.26h21.26v21.26h-21.26zm0 21.26h21.26v21.26h-21.26zm0 21.26h21.26v21.26h-21.26zm0 21.26h21.26v21.26h-21.26zm0 21.26h21.26v21.26h-21.26zm0 21.26h21.26v21.26h-21.26zm0 21.26h21.26v21.26h-21.26zm42.52-212.6H1736v21.26h-21.26zm0 21.26H1736v21.26h-21.26zm0 21.26H1736v21.26h-21.26zm0 21.26H1736v21.26h-21.26zm0 21.26H1736v21.26h-21.26zm0 21.26H1736v21.26h-21.26zm0 21.26H1736v21.26h-21.26zm0 21.26H1736v21.26h-21.26zm0 21.26H1736v21.26h-21.26zm0 21.26H1736v21.26h-21.26zm0 21.26H1736v21.26h-21.26zm-255.13 21.26h21.26v21.26h-21.26zm21.26 0h21.26v21.26h-21.26zm21.26 0h21.26v21.26h-21.26zm21.26 0h21.26v21.26h-21.26zm21.26 0h21.26v21.26h-21.26zm21.27 0h21.26v21.26h-21.26zm21.26 0h21.26v21.26h-21.26zm21.26 0h21.26v21.26h-21.26zm21.26 0h21.26v21.26h-21.26zm21.26 0h21.26v21.26h-21.26zm42.52 0h21.26v21.26h-21.26zm-21.26 0h21.26v21.26h-21.26zm42.52 0H1736v21.26h-21.26zm-255.13 21.26h21.26v21.26h-21.26zm21.26 0h21.26v21.26h-21.26zm21.26 0h21.26v21.26h-21.26zm21.26 0h21.26v21.26h-21.26zm21.26 0h21.26v21.26h-21.26zm21.27 0h21.26v21.26h-21.26zm21.26 0h21.26v21.26h-21.26zm21.26 0h21.26v21.26h-21.26zm21.26 0h21.26v21.26h-21.26zm21.26 0h21.26v21.26h-21.26zm42.52 0h21.26v21.26h-21.26zm-21.26 0h21.26v21.26h-21.26zm42.52 0H1736v21.26h-21.26zM439.12 401.81h21.26v21.26h-21.26zm21.27 0h21.26v21.26h-21.26zm21.26 0h21.26v21.26h-21.26zm21.26 0h21.26v21.26h-21.26zm21.26 0h21.26v21.26h-21.26zm21.26 0h21.26v21.26h-21.26zm21.26 0h21.26v21.26h-21.26zm21.26 0h21.26v21.26h-21.26zm21.26 0h21.26v21.26h-21.26zm21.26 0h21.26v21.26h-21.26zm42.52 0h21.26v21.26h-21.26zm-233.87 21.26h21.26v21.26h-21.26zm21.27 0h21.26v21.26h-21.26zm21.26 0h21.26v21.26h-21.26zm21.26 0h21.26v21.26h-21.26zm21.26 0h21.26v21.26h-21.26zm21.26 0h21.26v21.26h-21.26zm21.26 0h21.26v21.26h-21.26zm21.26 0h21.26v21.26h-21.26zm21.26 0h21.26v21.26h-21.26zm21.26 0h21.26v21.26h-21.26zm42.52 0h21.26v21.26h-21.26zm-233.87 21.26h21.26v21.26h-21.26zm21.27 0h21.26v21.26h-21.26zm21.26 0h21.26v21.26h-21.26zm21.26 0h21.26v21.26h-21.26zm21.26 0h21.26v21.26h-21.26zm21.26 0h21.26v21.26h-21.26zm21.26 0h21.26v21.26h-21.26zm21.26 0h21.26v21.26h-21.26zm21.26 0h21.26v21.26h-21.26zm21.26 0h21.26v21.26h-21.26zm42.52 0h21.26v21.26h-21.26zm-233.87 21.26h21.26v21.26h-21.26zm21.27 0h21.26v21.26h-21.26zm21.26 0h21.26v21.26h-21.26zm21.26 0h21.26v21.26h-21.26zm21.26 0h21.26v21.26h-21.26zm21.26 0h21.26v21.26h-21.26zm21.26 0h21.26v21.26h-21.26zm21.26 0h21.26v21.26h-21.26zm21.26 0h21.26v21.26h-21.26zm21.26 0h21.26v21.26h-21.26zm42.52 0h21.26v21.26h-21.26zm-233.87 21.26h21.26v21.26h-21.26zm21.27 0h21.26v21.26h-21.26zm21.26 0h21.26v21.26h-21.26zm21.26 0h21.26v21.26h-21.26zm21.26 0h21.26v21.26h-21.26zm21.26 0h21.26v21.26h-21.26zm21.26 0h21.26v21.26h-21.26zm21.26 0h21.26v21.26h-21.26zm21.26 0h21.26v21.26h-21.26zm21.26 0h21.26v21.26h-21.26zm42.52 0h21.26v21.26h-21.26zm-233.87 21.26h21.26v21.26h-21.26zm21.27 0h21.26v21.26h-21.26zm21.26 0h21.26v21.26h-21.26zm21.26 0h21.26v21.26h-21.26zm21.26 0h21.26v21.26h-21.26zm21.26 0h21.26v21.26h-21.26zm21.26 0h21.26v21.26h-21.26zm21.26 0h21.26v21.26h-21.26zm21.26 0h21.26v21.26h-21.26zm21.26 0h21.26v21.26h-21.26zm42.52 0h21.26v21.26h-21.26zm-233.87 21.26h21.26v21.26h-21.26zm21.27 0h21.26v21.26h-21.26zm21.26 0h21.26v21.26h-21.26zm21.26 0h21.26v21.26h-21.26zm21.26 0h21.26v21.26h-21.26zm21.26 0h21.26v21.26h-21.26zm21.26 0h21.26v21.26h-21.26zm21.26 0h21.26v21.26h-21.26zm21.26 0h21.26v21.26h-21.26zm21.26 0h21.26v21.26h-21.26zm42.52 0h21.26v21.26h-21.26zm-233.87 21.26h21.26v21.26h-21.26zm21.27 0h21.26v21.26h-21.26zm21.26 0h21.26v21.26h-21.26zm21.26 0h21.26v21.26h-21.26zm21.26 0h21.26v21.26h-21.26zm21.26 0h21.26v21.26h-21.26zm21.26 0h21.26v21.26h-21.26zm21.26 0h21.26v21.26h-21.26zm21.26 0h21.26v21.26h-21.26zm21.26 0h21.26v21.26h-21.26zm42.52 0h21.26v21.26h-21.26zm-233.87 21.26h21.26v21.26h-21.26zm21.27 0h21.26v21.26h-21.26zm21.26 0h21.26v21.26h-21.26zm21.26 0h21.26v21.26h-21.26zm21.26 0h21.26v21.26h-21.26zm21.26 0h21.26v21.26h-21.26zm21.26 0h21.26v21.26h-21.26zm21.26 0h21.26v21.26h-21.26zm21.26 0h21.26v21.26h-21.26zm21.26 0h21.26v21.26h-21.26zm42.52 0h21.26v21.26h-21.26zm-233.87 21.26h21.26v21.26h-21.26zm21.27 0h21.26v21.26h-21.26zm21.26 0h21.26v21.26h-21.26zm21.26 0h21.26v21.26h-21.26zm21.26 0h21.26v21.26h-21.26zm21.26 0h21.26v21.26h-21.26zm21.26 0h21.26v21.26h-21.26zm21.26 0h21.26v21.26h-21.26zm21.26 0h21.26v21.26h-21.26zm21.26 0h21.26v21.26h-21.26zm42.52 0h21.26v21.26h-21.26zm-233.87 21.26h21.26v21.26h-21.26zm21.27 0h21.26v21.26h-21.26zm21.26 0h21.26v21.26h-21.26zm21.26 0h21.26v21.26h-21.26z"/><path class="cls-5" d="M524.17 614.41h21.26v21.26h-21.26zm21.26 0h21.26v21.26h-21.26zm21.26 0h21.26v21.26h-21.26zm21.26 0h21.26v21.26h-21.26zm21.26 0h21.26v21.26h-21.26zm21.26 0h21.26v21.26h-21.26zm42.52 0h21.26v21.26h-21.26zm-21.26-212.6h21.26v21.26h-21.26zm0 21.26h21.26v21.26h-21.26zm0 21.26h21.26v21.26h-21.26zm0 21.26h21.26v21.26h-21.26zm0 21.26h21.26v21.26h-21.26zm0 21.26h21.26v21.26h-21.26zm0 21.26h21.26v21.26h-21.26zm0 21.26h21.26v21.26h-21.26zm0 21.26h21.26v21.26h-21.26zm0 21.26h21.26v21.26h-21.26zm0 21.26h21.26v21.26h-21.26zm42.52-212.6h21.26v21.26h-21.26zm0 21.26h21.26v21.26h-21.26zm0 21.26h21.26v21.26h-21.26zm0 21.26h21.26v21.26h-21.26zm0 21.26h21.26v21.26h-21.26zm0 21.26h21.26v21.26h-21.26zm0 21.26h21.26v21.26h-21.26zm0 21.26h21.26v21.26h-21.26zm0 21.26h21.26v21.26h-21.26zm0 21.26h21.26v21.26h-21.26zm0 21.26h21.26v21.26h-21.26zm-255.13 21.26h21.26v21.26h-21.26zm21.27 0h21.26v21.26h-21.26zm21.26 0h21.26v21.26h-21.26zm21.26 0h21.26v21.26h-21.26zm21.26 0h21.26v21.26h-21.26zm21.26 0h21.26v21.26h-21.26zm21.26 0h21.26v21.26h-21.26zm21.26 0h21.26v21.26h-21.26zm21.26 0h21.26v21.26h-21.26zm21.26 0h21.26v21.26h-21.26zm42.52 0h21.26v21.26h-21.26zm-21.26 0h21.26v21.26h-21.26zm42.52 0h21.26v21.26h-21.26zm-255.13 21.26h21.26v21.26h-21.26zm21.27 0h21.26v21.26h-21.26zm21.26 0h21.26v21.26h-21.26zm21.26 0h21.26v21.26h-21.26z"/><path class="cls-5" d="M524.17 656.93h21.26v21.26h-21.26zm21.26 0h21.26v21.26h-21.26zm21.26 0h21.26v21.26h-21.26zm21.26 0h21.26v21.26h-21.26zm21.26 0h21.26v21.26h-21.26zm21.26 0h21.26v21.26h-21.26zm42.52 0h21.26v21.26h-21.26zm-21.26 0h21.26v21.26h-21.26zm42.52 0h21.26v21.26h-21.26zm0-255.12h21.26v21.26h-21.26zm21.26 0h21.26v21.26h-21.26zm21.26 0h21.26v21.26h-21.26zm21.26 0h21.26v21.26h-21.26zm21.26 0h21.26v21.26h-21.26zm21.26 0h21.26v21.26h-21.26zm21.26 0h21.26v21.26h-21.26zm21.26 0h21.26v21.26h-21.26zm21.26 0h21.26v21.26h-21.26zm21.26 0h21.26v21.26h-21.26zm42.52 0h21.26v21.26h-21.26zm-233.86 21.26h21.26v21.26h-21.26zm21.26 0h21.26v21.26h-21.26zm21.26 0h21.26v21.26h-21.26zm21.26 0h21.26v21.26h-21.26zm21.26 0h21.26v21.26h-21.26zm21.26 0h21.26v21.26h-21.26zm21.26 0h21.26v21.26h-21.26zm21.26 0h21.26v21.26h-21.26zm21.26 0h21.26v21.26h-21.26zm21.26 0h21.26v21.26h-21.26zm42.52 0h21.26v21.26h-21.26zm-233.86 21.26h21.26v21.26h-21.26zm21.26 0h21.26v21.26h-21.26zm21.26 0h21.26v21.26h-21.26zm21.26 0h21.26v21.26h-21.26zm21.26 0h21.26v21.26h-21.26zm21.26 0h21.26v21.26h-21.26zm21.26 0h21.26v21.26h-21.26zm21.26 0h21.26v21.26h-21.26zm21.26 0h21.26v21.26h-21.26zm21.26 0h21.26v21.26h-21.26zm42.52 0h21.26v21.26h-21.26zm-233.86 21.26h21.26v21.26h-21.26zm21.26 0h21.26v21.26h-21.26zm21.26 0h21.26v21.26h-21.26zm21.26 0h21.26v21.26h-21.26zm21.26 0h21.26v21.26h-21.26zm21.26 0h21.26v21.26h-21.26zm21.26 0h21.26v21.26h-21.26zm21.26 0h21.26v21.26h-21.26zm21.26 0h21.26v21.26h-21.26zm21.26 0h21.26v21.26h-21.26zm42.52 0h21.26v21.26h-21.26zm-233.86 21.26h21.26v21.26h-21.26zm21.26 0h21.26v21.26h-21.26zm21.26 0h21.26v21.26h-21.26zm21.26 0h21.26v21.26h-21.26zm21.26 0h21.26v21.26h-21.26zm21.26 0h21.26v21.26h-21.26zm21.26 0h21.26v21.26h-21.26zm21.26 0h21.26v21.26h-21.26zm21.26 0h21.26v21.26h-21.26zm21.26 0h21.26v21.26h-21.26zm42.52 0h21.26v21.26h-21.26zm-233.86 21.26h21.26v21.26h-21.26zm21.26 0h21.26v21.26h-21.26zm21.26 0h21.26v21.26h-21.26zm21.26 0h21.26v21.26h-21.26zm21.26 0h21.26v21.26h-21.26zm21.26 0h21.26v21.26h-21.26zm21.26 0h21.26v21.26h-21.26zm21.26 0h21.26v21.26h-21.26zm21.26 0h21.26v21.26h-21.26zm21.26 0h21.26v21.26h-21.26zm42.52 0h21.26v21.26h-21.26zm-233.86 21.26h21.26v21.26h-21.26zm21.26 0h21.26v21.26h-21.26zm21.26 0h21.26v21.26h-21.26zm21.26 0h21.26v21.26h-21.26zm21.26 0h21.26v21.26h-21.26zm21.26 0h21.26v21.26h-21.26zm21.26 0h21.26v21.26h-21.26zm21.26 0h21.26v21.26h-21.26zm21.26 0h21.26v21.26h-21.26zm21.26 0h21.26v21.26h-21.26zm42.52 0h21.26v21.26h-21.26zm-233.86 21.26h21.26v21.26h-21.26zm21.26 0h21.26v21.26h-21.26zm21.26 0h21.26v21.26h-21.26zm21.26 0h21.26v21.26h-21.26zm21.26 0h21.26v21.26h-21.26zm21.26 0h21.26v21.26h-21.26zm21.26 0h21.26v21.26h-21.26zm21.26 0h21.26v21.26h-21.26zm21.26 0h21.26v21.26h-21.26zm21.26 0h21.26v21.26h-21.26zm42.52 0h21.26v21.26h-21.26zm-233.86 21.26h21.26v21.26h-21.26zm21.26 0h21.26v21.26h-21.26zm21.26 0h21.26v21.26h-21.26zm21.26 0h21.26v21.26h-21.26zm21.26 0h21.26v21.26h-21.26zm21.26 0h21.26v21.26h-21.26zm21.26 0h21.26v21.26h-21.26zm21.26 0h21.26v21.26h-21.26zm21.26 0h21.26v21.26h-21.26zm21.26 0h21.26v21.26h-21.26zm42.52 0h21.26v21.26h-21.26zm-233.86 21.26h21.26v21.26h-21.26zm21.26 0h21.26v21.26h-21.26zm21.26 0h21.26v21.26h-21.26zm21.26 0h21.26v21.26h-21.26zm21.26 0h21.26v21.26h-21.26zm21.26 0h21.26v21.26h-21.26zm21.26 0h21.26v21.26h-21.26zm21.26 0h21.26v21.26h-21.26zm21.26 0h21.26v21.26h-21.26zm21.26 0h21.26v21.26h-21.26zm42.52 0h21.26v21.26h-21.26zm-233.86 21.26h21.26v21.26h-21.26zm21.26 0h21.26v21.26h-21.26zm21.26 0h21.26v21.26h-21.26zm21.26 0h21.26v21.26h-21.26zm21.26 0h21.26v21.26h-21.26zm21.26 0h21.26v21.26h-21.26zm21.26 0h21.26v21.26h-21.26zm21.26 0h21.26v21.26h-21.26zm21.26 0h21.26v21.26h-21.26zm21.26 0h21.26v21.26h-21.26zm42.52 0h21.26v21.26h-21.26zm-21.26-212.6h21.26v21.26h-21.26zm0 21.26h21.26v21.26h-21.26zm0 21.26h21.26v21.26h-21.26zm0 21.26h21.26v21.26h-21.26zm0 21.26h21.26v21.26h-21.26zm0 21.26h21.26v21.26h-21.26zm0 21.26h21.26v21.26h-21.26zm0 21.26h21.26v21.26h-21.26zm0 21.26h21.26v21.26h-21.26zm0 21.26h21.26v21.26h-21.26zm0 21.26h21.26v21.26h-21.26zm42.52-212.6h21.26v21.26h-21.26zm0 21.26h21.26v21.26h-21.26zm0 21.26h21.26v21.26h-21.26zm0 21.26h21.26v21.26h-21.26zm0 21.26h21.26v21.26h-21.26zm0 21.26h21.26v21.26h-21.26zm0 21.26h21.26v21.26h-21.26zm0 21.26h21.26v21.26h-21.26zm0 21.26h21.26v21.26h-21.26zm0 21.26h21.26v21.26h-21.26zm0 21.26h21.26v21.26h-21.26zm-255.12 21.26h21.26v21.26h-21.26zm21.26 0h21.26v21.26h-21.26zm21.26 0h21.26v21.26h-21.26zm21.26 0h21.26v21.26h-21.26zm21.26 0h21.26v21.26h-21.26zm21.26 0h21.26v21.26h-21.26zm21.26 0h21.26v21.26h-21.26zm21.26 0h21.26v21.26h-21.26zm21.26 0h21.26v21.26h-21.26zm21.26 0h21.26v21.26h-21.26zm42.52 0h21.26v21.26h-21.26zm-21.26 0h21.26v21.26h-21.26zm42.52 0h21.26v21.26h-21.26z"/><path class="cls-5" d="M694.25 656.93h21.26v21.26h-21.26zm21.26 0h21.26v21.26h-21.26zm21.26 0h21.26v21.26h-21.26zm21.26 0h21.26v21.26h-21.26zm21.26 0h21.26v21.26h-21.26zm21.26 0h21.26v21.26h-21.26zm21.26 0h21.26v21.26h-21.26zm21.26 0h21.26v21.26h-21.26zm21.26 0h21.26v21.26h-21.26zm21.26 0h21.26v21.26h-21.26zm42.52 0h21.26v21.26h-21.26zm-21.26 0h21.26v21.26h-21.26zm42.52 0h21.26v21.26h-21.26zM184 401.81h21.26v21.26H184zm21.26 0h21.26v21.26h-21.26zm21.26 0h21.26v21.26h-21.26zm21.26 0h21.26v21.26h-21.26zm21.26 0h21.26v21.26h-21.26zm21.26 0h21.26v21.26H290.3zm21.26 0h21.26v21.26h-21.26zm21.26 0h21.26v21.26h-21.26zm21.26 0h21.26v21.26h-21.26zm21.26 0h21.26v21.26h-21.26zm42.52 0h21.26v21.26h-21.26zM184 423.07h21.26v21.26H184zm21.26 0h21.26v21.26h-21.26zm21.26 0h21.26v21.26h-21.26zm21.26 0h21.26v21.26h-21.26zm21.26 0h21.26v21.26h-21.26zm21.26 0h21.26v21.26H290.3zm21.26 0h21.26v21.26h-21.26zm21.26 0h21.26v21.26h-21.26zm21.26 0h21.26v21.26h-21.26zm21.26 0h21.26v21.26h-21.26zm42.52 0h21.26v21.26h-21.26zM184 444.33h21.26v21.26H184zm21.26 0h21.26v21.26h-21.26zm21.26 0h21.26v21.26h-21.26zm21.26 0h21.26v21.26h-21.26zm21.26 0h21.26v21.26h-21.26zm21.26 0h21.26v21.26H290.3zm21.26 0h21.26v21.26h-21.26zm21.26 0h21.26v21.26h-21.26zm21.26 0h21.26v21.26h-21.26zm21.26 0h21.26v21.26h-21.26zm42.52 0h21.26v21.26h-21.26zM184 465.59h21.26v21.26H184zm21.26 0h21.26v21.26h-21.26zm21.26 0h21.26v21.26h-21.26zm21.26 0h21.26v21.26h-21.26zm21.26 0h21.26v21.26h-21.26zm21.26 0h21.26v21.26H290.3zm21.26 0h21.26v21.26h-21.26zm21.26 0h21.26v21.26h-21.26zm21.26 0h21.26v21.26h-21.26zm21.26 0h21.26v21.26h-21.26zm42.52 0h21.26v21.26h-21.26zM184 486.85h21.26v21.26H184zm21.26 0h21.26v21.26h-21.26zm21.26 0h21.26v21.26h-21.26zm21.26 0h21.26v21.26h-21.26zm21.26 0h21.26v21.26h-21.26zm21.26 0h21.26v21.26H290.3zm21.26 0h21.26v21.26h-21.26zm21.26 0h21.26v21.26h-21.26zm21.26 0h21.26v21.26h-21.26zm21.26 0h21.26v21.26h-21.26zm42.52 0h21.26v21.26h-21.26zM184 508.11h21.26v21.26H184zm21.26 0h21.26v21.26h-21.26zm21.26 0h21.26v21.26h-21.26zm21.26 0h21.26v21.26h-21.26zm21.26 0h21.26v21.26h-21.26zm21.26 0h21.26v21.26H290.3zm21.26 0h21.26v21.26h-21.26zm21.26 0h21.26v21.26h-21.26zm21.26 0h21.26v21.26h-21.26zm21.26 0h21.26v21.26h-21.26zm42.52 0h21.26v21.26h-21.26zM184 529.37h21.26v21.26H184zm21.26 0h21.26v21.26h-21.26zm21.26 0h21.26v21.26h-21.26zm21.26 0h21.26v21.26h-21.26zm21.26 0h21.26v21.26h-21.26zm21.26 0h21.26v21.26H290.3zm21.26 0h21.26v21.26h-21.26zm21.26 0h21.26v21.26h-21.26zm21.26 0h21.26v21.26h-21.26zm21.26 0h21.26v21.26h-21.26zm42.52 0h21.26v21.26h-21.26zM184 550.63h21.26v21.26H184zm21.26 0h21.26v21.26h-21.26zm21.26 0h21.26v21.26h-21.26zm21.26 0h21.26v21.26h-21.26zm21.26 0h21.26v21.26h-21.26zm21.26 0h21.26v21.26H290.3zm21.26 0h21.26v21.26h-21.26zm21.26 0h21.26v21.26h-21.26zm21.26 0h21.26v21.26h-21.26zm21.26 0h21.26v21.26h-21.26zm42.52 0h21.26v21.26h-21.26zM184 571.89h21.26v21.26H184zm21.26 0h21.26v21.26h-21.26zm21.26 0h21.26v21.26h-21.26zm21.26 0h21.26v21.26h-21.26zm21.26 0h21.26v21.26h-21.26zm21.26 0h21.26v21.26H290.3zm21.26 0h21.26v21.26h-21.26zm21.26 0h21.26v21.26h-21.26zm21.26 0h21.26v21.26h-21.26zm21.26 0h21.26v21.26h-21.26zm42.52 0h21.26v21.26h-21.26zM184 593.15h21.26v21.26H184zm21.26 0h21.26v21.26h-21.26zm21.26 0h21.26v21.26h-21.26zm21.26 0h21.26v21.26h-21.26zm21.26 0h21.26v21.26h-21.26zm21.26 0h21.26v21.26H290.3zm21.26 0h21.26v21.26h-21.26zm21.26 0h21.26v21.26h-21.26zm21.26 0h21.26v21.26h-21.26zm21.26 0h21.26v21.26h-21.26zm42.52 0h21.26v21.26h-21.26zM184 614.41h21.26v21.26H184zm21.26 0h21.26v21.26h-21.26zm21.26 0h21.26v21.26h-21.26zm21.26 0h21.26v21.26h-21.26zm21.26 0h21.26v21.26h-21.26zm21.26 0h21.26v21.26H290.3zm21.26 0h21.26v21.26h-21.26zm21.26 0h21.26v21.26h-21.26zm21.26 0h21.26v21.26h-21.26zm21.26 0h21.26v21.26h-21.26zm42.52 0h21.26v21.26h-21.26zm-21.26-212.6h21.26v21.26H396.6zm0 21.26h21.26v21.26H396.6zm0 21.26h21.26v21.26H396.6zm0 21.26h21.26v21.26H396.6zm0 21.26h21.26v21.26H396.6zm0 21.26h21.26v21.26H396.6zm0 21.26h21.26v21.26H396.6zm0 21.26h21.26v21.26H396.6zm0 21.26h21.26v21.26H396.6zm0 21.26h21.26v21.26H396.6zm0 21.26h21.26v21.26H396.6zm42.52-212.6h21.26v21.26h-21.26zm0 21.26h21.26v21.26h-21.26zm0 21.26h21.26v21.26h-21.26zm0 21.26h21.26v21.26h-21.26zm0 21.26h21.26v21.26h-21.26zm0 21.26h21.26v21.26h-21.26zm0 21.26h21.26v21.26h-21.26zm0 21.26h21.26v21.26h-21.26zm0 21.26h21.26v21.26h-21.26zm0 21.26h21.26v21.26h-21.26zm0 21.26h21.26v21.26h-21.26zM184 635.67h21.26v21.26H184zm21.26 0h21.26v21.26h-21.26zm21.26 0h21.26v21.26h-21.26zm21.26 0h21.26v21.26h-21.26zm21.26 0h21.26v21.26h-21.26zm21.26 0h21.26v21.26H290.3zm21.26 0h21.26v21.26h-21.26zm21.26 0h21.26v21.26h-21.26zm21.26 0h21.26v21.26h-21.26zm21.26 0h21.26v21.26h-21.26zm42.52 0h21.26v21.26h-21.26zm-21.26 0h21.26v21.26H396.6zm42.52 0h21.26v21.26h-21.26zM184 656.93h21.26v21.26H184zm21.26 0h21.26v21.26h-21.26zm21.26 0h21.26v21.26h-21.26zm21.26 0h21.26v21.26h-21.26zm21.26 0h21.26v21.26h-21.26zm21.26 0h21.26v21.26H290.3zm21.26 0h21.26v21.26h-21.26zm21.26 0h21.26v21.26h-21.26zm21.26 0h21.26v21.26h-21.26zm21.26 0h21.26v21.26h-21.26zm42.52 0h21.26v21.26h-21.26zm-21.26 0h21.26v21.26H396.6zm42.52 0h21.26v21.26h-21.26z"/><path d="M188.84 963.72c3.49-.5 5.22.34 5.22 2.48a3 3 0 01-1.1 2.66 5.33 5.33 0 01-2.36.48 6.25 6.25 0 01-1.76-.19zm0-6.62a5.27 5.27 0 011.59-.14c1.9 0 3.22.86 3.22 2.66a2.65 2.65 0 01-1.92 2.64 8.16 8.16 0 01-2.89.07zm1.66-1.46c-.43 0-1.15 0-2.14.14s-1.56.12-1.73.12c.12 2.35.17 4.56.17 6.6v1.32c0 3-.05 5.21-.17 6.55a24.25 24.25 0 003.73.31c3.49 0 5.84-1.44 5.84-4.41a3.27 3.27 0 00-3-3.34v-.12a3.33 3.33 0 002.52-3.33c0-2.6-1.66-3.84-5.22-3.84zm13.5 3.16a5.31 5.31 0 00-3.9 1.66 6 6 0 00-1.58 4.3 6.26 6.26 0 001.44 4.32 5 5 0 003.85 1.6 6.28 6.28 0 003.63-1.08 1.46 1.46 0 00-.29-1 5.15 5.15 0 01-2.4.63c-2.5 0-4.12-2-4.12-5a4.44 4.44 0 011.21-3.31 2.7 2.7 0 011.87-.58 4.18 4.18 0 012.8.94 2.64 2.64 0 00.84-1.47 4.79 4.79 0 00-3.35-1m7.27 5.01a5.1 5.1 0 01.36-1.73 3.86 3.86 0 01.77-1.39 3.65 3.65 0 012-.55 2.65 2.65 0 011.85.69 2.3 2.3 0 01.75 1.8 1.2 1.2 0 01-.17.72 12.71 12.71 0 01-2.52.32c-1.38.09-2.39.14-3 .14m3.44-5a4.91 4.91 0 00-4 1.76 6.36 6.36 0 00-1.45 4.22c0 3.62 1.95 5.86 5.25 5.86a6.66 6.66 0 004.18-1.37 1.45 1.45 0 00-.38-1 5.2 5.2 0 01-3.13.86c-2.28 0-3.8-1.29-3.9-4.1l1.76-.14a35 35 0 005.8-.77 4.24 4.24 0 00.24-1.42 3.82 3.82 0 00-1.13-2.71 4.22 4.22 0 00-3.28-1.21zm14.42 11.86a5.16 5.16 0 004-1.7 6.37 6.37 0 001.54-4.44 5.79 5.79 0 00-1.44-4.2 4.78 4.78 0 00-3.54-1.49 8.44 8.44 0 00-3.87.89 1.61 1.61 0 00.41 1.2 6.09 6.09 0 012.76-.65 3.21 3.21 0 012.48 1.08 3.63 3.63 0 011 2.62h-1.68a22.84 22.84 0 01-3.44-.17 1.6 1.6 0 000 1.56 20.76 20.76 0 013.41-.17h1.83a4.22 4.22 0 01-1.37 3.48 3.32 3.32 0 01-2 .55 4.41 4.41 0 01-3-.93 1.76 1.76 0 00-.79 1.2c.67.79 1.88 1.17 3.61 1.17m17.49-.26c-.08-1.1-.12-2.93-.12-5.47v-.89c0-2.33 0-4 .12-4.94h-7.66a12.31 12.31 0 01.2 2.37v.65c0 4.82-.82 6.84-2.53 6.58a3 3 0 000 1.92c3.08.45 4.28-2.45 4.28-8.33v-1.75h3.56v5a43.33 43.33 0 01-.19 4.9zm4.54-6.6a4.9 4.9 0 01.37-1.73 4 4 0 01.76-1.39 3.66 3.66 0 012-.55 2.66 2.66 0 011.85.69 2.3 2.3 0 01.75 1.8 1.2 1.2 0 01-.17.72 12.87 12.87 0 01-2.53.32c-1.37.09-2.38.14-3 .14m3.44-5a4.93 4.93 0 00-4 1.76 6.41 6.41 0 00-1.44 4.22c0 3.62 2 5.86 5.24 5.86a6.69 6.69 0 004.19-1.37 1.45 1.45 0 00-.38-1 5.24 5.24 0 01-3.13.86c-2.29 0-3.8-1.29-3.9-4.1l1.76-.14a35.23 35.23 0 005.8-.77 4.5 4.5 0 00.24-1.42 3.82 3.82 0 00-1.13-2.71 4.23 4.23 0 00-3.28-1.21zm8.54 11.6c-.07-2.64-.05-5.57.1-8.78h.12c.17.48.5 1.24 1 2.32l.89 1.88 1.11 2.47h1.13l.93-1.9c.89-1.89 1.62-3.45 2.12-4.73h.15v8.74h2.19c-.26-2-.43-4.87-.55-8.64l-.05-2.66h-1.95q-.5 1.32-3 6.57h-.09c-.73-1.37-1.79-3.57-3.16-6.57h-2l-.19 4c-.2 3.33-.39 5.76-.56 7.27zm14.34-6.6a5.1 5.1 0 01.36-1.73 4 4 0 01.77-1.39 3.66 3.66 0 012-.55 2.68 2.68 0 011.85.69 2.32 2.32 0 01.74 1.8 1.2 1.2 0 01-.16.72 13 13 0 01-2.53.32c-1.37.09-2.38.14-3 .14m3.44-5a4.91 4.91 0 00-4 1.76 6.41 6.41 0 00-1.44 4.22c0 3.62 1.95 5.86 5.24 5.86a6.71 6.71 0 004.19-1.37 1.41 1.41 0 00-.39-1 5.19 5.19 0 01-3.12.86c-2.29 0-3.81-1.29-3.9-4.1l1.75-.14a35 35 0 005.8-.77 4.24 4.24 0 00.24-1.42 3.78 3.78 0 00-1.2-2.72 4.2 4.2 0 00-3.2-1.2zm16.58 11.6c-.1-1.61-.15-3.36-.15-5.23v-.77c0-2.42.05-4.2.15-5.3h-2.29a27 27 0 01.17 3.6v1a35.16 35.16 0 01-5.3 0v-.86a31.94 31.94 0 01.15-3.74h-2.31c.12 1.1.17 2.88.17 5.32v.7c0 2.14-.05 3.91-.17 5.28h2.31c-.1-.89-.15-2.35-.15-4.34v-.94a35.16 35.16 0 015.3 0v.94a40.7 40.7 0 01-.17 4.34zm2.09-9.65a20.63 20.63 0 012.79-.14h1v2.69a70.94 70.94 0 01-.21 7.1h2.43c-.12-1.18-.2-3.53-.2-7v-2.76h1a17.8 17.8 0 012.76.14v-1.65h-9.5zm21.46 4.23c0 2.08-.05 3.88-.17 5.42h2.24c-.09-1-.14-2.88-.14-5.64v-1c0-2.23.05-3.77.14-4.63h-2.19c.07 1.44.12 3 .12 4.72zm-3.7 1.65a2.63 2.63 0 01-.87 2.14 3.61 3.61 0 01-1.59.41 4.19 4.19 0 01-1.63-.22 30.18 30.18 0 010-4.66c2.47-.6 4.09.32 4.09 2.33zm-6.19-7.53a43.86 43.86 0 01.17 4.8v.93c0 2.62 0 4.44-.17 5.45a18.16 18.16 0 003.28.26c3.24 0 4.83-1.63 4.83-3.91a3.34 3.34 0 00-1.66-3.17 5.86 5.86 0 00-4.28-.38v-1.3a17 17 0 01.14-2.68zm29.09 11.3c-.07-1.1-.12-2.93-.12-5.47v-.89c0-2.33.05-4 .12-4.94h-7.65a12.42 12.42 0 01.19 2.37v.65c0 4.82-.81 6.84-2.52 6.58a3 3 0 00.05 1.92c3.08.45 4.28-2.45 4.28-8.33v-1.75h3.56v5a42.63 42.63 0 01-.2 4.9zm7.68-10.27c2.29 0 3.39 2 3.39 4.85a5 5 0 01-1.2 3.69 3.12 3.12 0 01-1.71.55c-2.21 0-3.61-1.82-3.61-5a4.82 4.82 0 011.06-3.43 2.78 2.78 0 012.07-.67m.38-1.44a5.2 5.2 0 00-4 1.7 6.27 6.27 0 00-1.57 4.44 6.2 6.2 0 001.42 4.23 5.41 5.41 0 007.73-.05 6.39 6.39 0 001.49-4.35c-.01-3.67-1.87-5.96-5.07-5.96zm10.18 11.72c-.12-1.18-.19-3.46-.19-6.82v-3h1.54a30.47 30.47 0 013.32.14v-1.65h-7c.12 1.27.17 2.71.17 4.32v1.08c0 2.37-.05 4.32-.17 5.88zm11.22-10.27c2.28 0 3.39 2 3.39 4.85a4.92 4.92 0 01-1.21 3.69 3.11 3.11 0 01-1.7.55c-2.22 0-3.61-1.82-3.61-5a4.82 4.82 0 011.06-3.43 2.76 2.76 0 012.07-.67m.38-1.44a5.22 5.22 0 00-4 1.7 6.31 6.31 0 00-1.56 4.44 6.2 6.2 0 001.42 4.23 5.4 5.4 0 007.72-.05 6.35 6.35 0 001.49-4.35c-.02-3.67-1.87-5.96-5.07-5.96zm6.47 2.07a20.63 20.63 0 012.79-.14h1v2.69a69.76 69.76 0 01-.22 7.1h2.43c-.12-1.18-.19-3.53-.19-7v-2.76h1a18 18 0 012.77.14v-1.65h-9.51zm21.27 9.65c-.07-1.3-.12-2.88-.12-4.75v-1.61c0-1.75 0-3.41.12-4.94h-1.78c-.31.6-1.3 2-2.91 4.32s-2.55 3.67-2.86 4.2h-.12c.09-.84.14-2.14.14-3.94V962a23 23 0 01.12-2.92h-2.28c.12 1.41.17 3.07.17 4.92v1c0 2.38-.05 4.18-.17 5.38H390c.43-.74 1.42-2.23 3-4.42s2.48-3.57 2.79-4.12h.07c-.07.81-.09 2.23-.09 4.24v1.35a19.49 19.49 0 01-.17 2.95zm12.88 0c-.1-1.37-.15-3.19-.15-5.5V964q0-1.08.15-4.92h-9.44c.13 1.77.17 3.4.17 4.89v1c0 1.61 0 3.39-.17 5.38h2.31c-.09-1.42-.14-3.58-.14-6.53v-3.33a18.92 18.92 0 012.55-.1 20.1 20.1 0 012.6.1v3.26c0 3-.07 5.18-.19 6.6zm4.83-3.26a2.25 2.25 0 01.58-1.52 5.23 5.23 0 012.91-.57 7.75 7.75 0 011.37.19v2.35a3.4 3.4 0 01-2.86 1.59 1.93 1.93 0 01-2-2m6.91-4c0-3.14-1.18-4.34-3.66-4.34a10.88 10.88 0 00-4.71 1.25 1.53 1.53 0 00.43 1.2 7.16 7.16 0 013.44-1c1.92 0 2.45 1 2.43 3.57-4.91.08-6.93 1.08-6.93 3.75a3 3 0 003.15 3 4.78 4.78 0 003.83-1.9h.07a14.33 14.33 0 00.17 1.87l1.95-.19a35.68 35.68 0 01-.17-4.82zm17.59 7.22c-.1-1.61-.15-3.36-.15-5.23v-.77c0-2.42.05-4.2.15-5.3h-2.29a27 27 0 01.17 3.6v1a35 35 0 01-5.29 0v-.86a35.1 35.1 0 01.14-3.74h-2.31c.12 1.1.17 2.88.17 5.32v.7c0 2.14-.05 3.91-.17 5.28h2.31c-.09-.89-.14-2.35-.14-4.34v-.94a35 35 0 015.29 0v.94a40.7 40.7 0 01-.17 4.34zm4.83-6.6a4.9 4.9 0 01.37-1.73 3.86 3.86 0 01.77-1.39 3.6 3.6 0 012-.55 2.66 2.66 0 011.85.69 2.3 2.3 0 01.75 1.8 1.2 1.2 0 01-.17.72 12.87 12.87 0 01-2.53.32c-1.37.09-2.38.14-3 .14m3.45-5a4.93 4.93 0 00-4.05 1.76 6.41 6.41 0 00-1.44 4.22c0 3.62 2 5.86 5.24 5.86a6.69 6.69 0 004.19-1.37 1.45 1.45 0 00-.38-1 5.24 5.24 0 01-3.13.86c-2.29 0-3.8-1.29-3.9-4.1l1.76-.14a35.23 35.23 0 005.8-.77 4.5 4.5 0 00.24-1.42 3.82 3.82 0 00-1.13-2.71 4.22 4.22 0 00-3.24-1.21zm16.49-.02a5.28 5.28 0 00-3.9 1.66 6 6 0 00-1.59 4.3 6.26 6.26 0 001.44 4.32 5 5 0 003.85 1.6 6.34 6.34 0 003.64-1.08 1.57 1.57 0 00-.29-1 5.22 5.22 0 01-2.41.63c-2.5 0-4.11-2-4.11-5a4.48 4.48 0 011.2-3.31 2.71 2.71 0 011.88-.58 4.15 4.15 0 012.79.94 2.53 2.53 0 00.84-1.47 4.76 4.76 0 00-3.34-1m14.96 11.61c-.07-1.1-.12-2.93-.12-5.47v-.89c0-2.33.05-4 .12-4.94h-7.65a12.42 12.42 0 01.19 2.37v.65c0 4.82-.81 6.84-2.52 6.58a3 3 0 00.05 1.92c3.07.45 4.28-2.45 4.28-8.33v-1.75h3.56v5a43.33 43.33 0 01-.19 4.9zm6.38 0h.6a14.49 14.49 0 01-2.48 4 1.85 1.85 0 001.54 1.11c.8-1 1.83-3.46 3.15-7.25l.89-2.57 1-3.14c.55-1.61.94-2.76 1.2-3.43h-1.95c-.26 1.24-.69 2.9-1.27 4.94s-1 3.53-1.4 4.44h-.12q-2.75-7.35-3.2-9.38h-2.57zm7.05-11.3a19.87 19.87 0 01.14 2.88v1c0 2.52 1.25 3.53 3.47 3.53a6.78 6.78 0 003.17-.86V967a17.36 17.36 0 01-.21 3.38h2.38c-.12-1.13-.17-2.86-.17-5.18v-1.06c0-2.14.05-3.82.17-5.06h-2.33a30 30 0 01.16 3.48v2a5 5 0 01-2.43.52c-1.61 0-2.21-.76-2.21-2.61 0-1.06.05-2.21.17-3.43zm13.75 8.04a2.25 2.25 0 01.57-1.52 5.27 5.27 0 012.92-.57 7.87 7.87 0 011.37.19v2.35a3.43 3.43 0 01-2.86 1.59 1.93 1.93 0 01-2-2m6.9-4c0-3.14-1.18-4.34-3.65-4.34a10.92 10.92 0 00-4.72 1.25 1.53 1.53 0 00.43 1.2 7.16 7.16 0 013.44-1c1.93 0 2.46 1 2.43 3.57-4.91.08-6.93 1.08-6.93 3.75a3 3 0 003.16 3 4.77 4.77 0 003.82-1.9h.12a14.33 14.33 0 00.17 1.87l2-.19a35.68 35.68 0 01-.17-4.82zm6.42-9.32a2.12 2.12 0 00-1.45.68 3.05 3.05 0 003.28 2.56 3.29 3.29 0 003.46-2.76 1 1 0 00-.91-.28 2.11 2.11 0 01-2.17 1.8 2.17 2.17 0 01-2.21-2m6.68 16.54c-.07-1.3-.12-2.88-.12-4.75v-1.61c0-1.75 0-3.41.12-4.94h-1.8c-.31.6-1.3 2-2.91 4.32s-2.55 3.67-2.86 4.2h-.12c.09-.84.14-2.14.14-3.94V962a23 23 0 01.12-2.92h-2.28c.12 1.41.17 3.07.17 4.92v1c0 2.38-.05 4.18-.17 5.38h1.85c.43-.74 1.42-2.23 3-4.42s2.48-3.57 2.79-4.12h.07c-.07.81-.09 2.23-.09 4.24v1.35a19.49 19.49 0 01-.17 2.95zm13 0c-.1-1.61-.14-3.36-.14-5.23v-.77c0-2.42 0-4.2.14-5.3h-2.28a27.32 27.32 0 01.16 3.6v1a35 35 0 01-5.29 0v-.86a35.1 35.1 0 01.14-3.74h-2.31c.12 1.1.17 2.88.17 5.32v.7c0 2.14-.05 3.91-.17 5.28h2.31c-.09-.89-.14-2.35-.14-4.34v-.94a35 35 0 015.29 0v.94a41.2 41.2 0 01-.16 4.34zm13.33-5.42c0 2.08-.05 3.88-.17 5.42h2.24c-.1-1-.14-2.88-.14-5.64v-1c0-2.23 0-3.77.14-4.63h-2.19c.07 1.44.12 3 .12 4.72zm-3.7 1.65a2.63 2.63 0 01-.87 2.14 3.61 3.61 0 01-1.59.41 4.19 4.19 0 01-1.63-.22 27.87 27.87 0 010-4.66c2.46-.6 4.09.32 4.09 2.33zm-6.19-7.53a43.86 43.86 0 01.17 4.8v.93c0 2.62-.05 4.44-.17 5.45a18.12 18.12 0 003.27.26c3.25 0 4.84-1.63 4.84-3.91a3.34 3.34 0 00-1.66-3.17 5.87 5.87 0 00-4.28-.38v-1.3a17 17 0 01.14-2.68zM196.25 998.5c-.07-1.3-.12-2.88-.12-4.75v-1.61c0-1.75.05-3.41.12-4.94h-1.78c-.31.6-1.3 2-2.91 4.32s-2.55 3.67-2.86 4.2h-.12c.09-.84.14-2.14.14-3.94v-1.66a23 23 0 01.12-2.92h-2.28c.12 1.41.16 3.07.16 4.92v1c0 2.38 0 4.18-.16 5.38h1.85c.43-.74 1.42-2.23 3-4.42s2.48-3.57 2.79-4.12h.07c-.07.81-.09 2.23-.09 4.24v1.35a19.49 19.49 0 01-.17 3zm17.54 0c-.09-1.37-.14-3.19-.14-5.5v-.88c0-.72 0-2.36.14-4.92h-9.43c.12 1.77.17 3.4.17 4.89v1c0 1.61-.05 3.39-.17 5.38h2.31c-.09-1.42-.14-3.58-.14-6.53v-3.33a18.92 18.92 0 012.55-.1 20.19 20.19 0 012.6.1v3.26c0 3-.08 5.18-.2 6.6zm5.59-8.38a3.3 3.3 0 011.87-1.53 3.49 3.49 0 01.92-.1c1.75.07 2.79 1.49 2.79 4.11a5.33 5.33 0 01-1.4 4.12 4.06 4.06 0 01-2.52.7 4.29 4.29 0 01-1.66-.29zm-2.19-2.8c.12 1.36.19 3.69.19 7v1.17c0 4-.07 6.53-.19 7.64h2.33c-.1-.94-.14-2.24-.14-3.92v-.67a7.27 7.27 0 001.54.19 6.29 6.29 0 004.4-1.7 6.19 6.19 0 001.83-4.75c0-3-1.33-4.8-3.51-5.19a4.59 4.59 0 00-1.67.29 3.49 3.49 0 00-2.67 1.51v-1.87zm17.2.91c2.29 0 3.39 2 3.39 4.85a5 5 0 01-1.2 3.69 3.12 3.12 0 01-1.71.55c-2.21 0-3.61-1.82-3.61-5a4.82 4.82 0 011.06-3.43 2.78 2.78 0 012.07-.67m.39-1.44a5.21 5.21 0 00-4 1.7 6.27 6.27 0 00-1.57 4.44 6.2 6.2 0 001.42 4.23 5.41 5.41 0 007.73 0 6.39 6.39 0 001.49-4.35c-.02-3.68-1.85-6.01-5.07-6.01zm12.65.1a5.31 5.31 0 00-3.9 1.66 6 6 0 00-1.58 4.3 6.26 6.26 0 001.44 4.32 5 5 0 003.85 1.6 6.28 6.28 0 003.63-1.08 1.46 1.46 0 00-.29-1 5.15 5.15 0 01-2.4.63c-2.5 0-4.12-2-4.12-5a4.44 4.44 0 011.21-3.31 2.7 2.7 0 011.87-.58 4.18 4.18 0 012.8.94 2.64 2.64 0 00.84-1.47 4.77 4.77 0 00-3.35-1m4.57 1.96a20.8 20.8 0 012.8-.14h1v2.69a66.77 66.77 0 01-.22 7.1H258c-.12-1.18-.19-3.53-.19-7v-2.76h1a18 18 0 012.77.14v-1.68H252zm13.74 1.27a3.32 3.32 0 011.88-1.53 3.46 3.46 0 01.91-.1c1.76.07 2.8 1.49 2.8 4.11a5.33 5.33 0 01-1.4 4.12 4.07 4.07 0 01-2.53.7 4.33 4.33 0 01-1.66-.29zm-2.19-2.8c.12 1.36.2 3.69.2 7v1.17c0 4-.08 6.53-.2 7.64h2.34c-.1-.94-.15-2.24-.15-3.92v-.67a7.35 7.35 0 001.54.19 6.3 6.3 0 004.41-1.7 6.22 6.22 0 001.83-4.75c0-3-1.33-4.8-3.52-5.19a4.54 4.54 0 00-1.66.29 3.49 3.49 0 00-2.67 1.51v-1.87zm17.21.91c2.28 0 3.39 2 3.39 4.85a5 5 0 01-1.2 3.69 3.14 3.14 0 01-1.71.55c-2.21 0-3.61-1.82-3.61-5a4.82 4.82 0 011.06-3.43 2.78 2.78 0 012.07-.67m.38-1.44a5.23 5.23 0 00-4 1.7 6.31 6.31 0 00-1.56 4.44 6.2 6.2 0 001.42 4.23 5.4 5.4 0 007.72 0 6.35 6.35 0 001.5-4.35c-.02-3.68-1.88-6.01-5.08-6.01zm9.22 5.12a5.1 5.1 0 01.36-1.73 4 4 0 01.77-1.39 3.65 3.65 0 012-.55 2.69 2.69 0 011.86.69 2.32 2.32 0 01.74 1.8 1.2 1.2 0 01-.17.72 12.71 12.71 0 01-2.52.32c-1.37.09-2.39.14-3 .14m3.44-5a4.91 4.91 0 00-4 1.76 6.42 6.42 0 00-1.45 4.22c0 3.62 1.95 5.86 5.25 5.86a6.71 6.71 0 004.19-1.37 1.41 1.41 0 00-.39-1 5.2 5.2 0 01-3.13.86c-2.28 0-3.8-1.29-3.9-4.1l1.76-.14a35 35 0 005.8-.77 4.24 4.24 0 00.24-1.42 3.78 3.78 0 00-1.13-2.71 4.22 4.22 0 00-3.28-1.21zm16.56 11.6c-.09-1.61-.14-3.36-.14-5.23v-.77c0-2.42.05-4.2.14-5.3h-2.28a27 27 0 01.17 3.6v1a35.16 35.16 0 01-5.3 0v-.86a31.94 31.94 0 01.15-3.74h-2.31c.12 1.1.16 2.88.16 5.32v.7c0 2.14 0 3.91-.16 5.28h2.31c-.1-.89-.15-2.35-.15-4.34v-.94a35.16 35.16 0 015.3 0v.94a40.7 40.7 0 01-.17 4.34zm13.33-5.42c0 2.08 0 3.88-.17 5.42h2.24c-.09-1-.14-2.88-.14-5.64v-1c0-2.23 0-3.77.14-4.63h-2.19c.08 1.44.12 3 .12 4.72zm-3.7 1.65a2.63 2.63 0 01-.87 2.14 3.61 3.61 0 01-1.59.41 4.22 4.22 0 01-1.63-.22 30.18 30.18 0 010-4.66c2.48-.6 4.06.32 4.06 2.33zm-6.19-7.53a43.86 43.86 0 01.16 4.8v.93c0 2.62-.05 4.44-.17 5.45a18.16 18.16 0 003.28.26c3.24 0 4.83-1.63 4.83-3.91a3.34 3.34 0 00-1.66-3.17 5.86 5.86 0 00-4.28-.38v-1.3a17 17 0 01.14-2.68zm29.48 11.3c-.1-1.37-.14-3.19-.14-5.5v-.88c0-.72 0-2.36.14-4.92h-9.43c.12 1.77.17 3.4.17 4.89v1c0 1.61-.05 3.39-.17 5.38h2.31c-.1-1.42-.15-3.58-.15-6.53v-3.33a19 19 0 012.55-.1 20 20 0 012.6.1v3.26c0 3-.07 5.18-.19 6.6zm7.94-10.27c2.29 0 3.39 2 3.39 4.85a5 5 0 01-1.2 3.69 3.12 3.12 0 01-1.71.55c-2.21 0-3.61-1.82-3.61-5a4.82 4.82 0 011.06-3.43 2.78 2.78 0 012.07-.67m.38-1.44a5.2 5.2 0 00-4 1.7 6.27 6.27 0 00-1.57 4.44 6.2 6.2 0 001.42 4.23 5.41 5.41 0 007.73 0 6.39 6.39 0 001.49-4.35c-.01-3.68-1.87-6.01-5.07-6.01zm14.85 11.72c-.12-1.18-.19-3.46-.19-6.82v-3h1.54a30.47 30.47 0 013.32.14v-1.62h-7c.12 1.27.17 2.71.17 4.32v1.08c0 2.37-.05 4.32-.17 5.88zm8.09-6.6a5.1 5.1 0 01.36-1.73 3.86 3.86 0 01.77-1.39 3.6 3.6 0 012-.55 2.65 2.65 0 011.85.69 2.3 2.3 0 01.75 1.8 1.2 1.2 0 01-.17.72 12.87 12.87 0 01-2.53.32c-1.37.09-2.38.14-3 .14m3.44-5a4.93 4.93 0 00-4 1.76 6.41 6.41 0 00-1.44 4.22c0 3.62 2 5.86 5.25 5.86a6.68 6.68 0 004.18-1.37 1.45 1.45 0 00-.38-1 5.22 5.22 0 01-3.13.86c-2.29 0-3.8-1.29-3.9-4.1l1.76-.14a35.09 35.09 0 005.8-.77 4.24 4.24 0 00.24-1.42 3.82 3.82 0 00-1.13-2.71 4.22 4.22 0 00-3.3-1.21zm11.52 1.33c2.28 0 3.39 2 3.39 4.85a5 5 0 01-1.2 3.69 3.14 3.14 0 01-1.71.55c-2.22 0-3.61-1.82-3.61-5a4.82 4.82 0 011.06-3.43 2.76 2.76 0 012.07-.67m.38-1.44a5.23 5.23 0 00-4 1.7 6.31 6.31 0 00-1.56 4.44 6.2 6.2 0 001.42 4.23 5.4 5.4 0 007.72 0 6.35 6.35 0 001.49-4.35c-.02-3.68-1.87-6.01-5.02-6.01zm9.36 11.72c-.07-2.64-.05-5.57.1-8.78h.12c.17.48.5 1.24 1 2.32l.89 1.88 1.11 2.47h1.13l.94-1.9c.89-1.89 1.61-3.45 2.11-4.73h.15c0 .36 0 1.71.05 4.06s0 3.89 0 4.68h2.19c-.27-2-.44-4.87-.56-8.64l-.05-2.66h-1.95q-.49 1.32-3 6.57h-.09c-.73-1.37-1.78-3.57-3.16-6.57h-2l-.19 4c-.2 3.33-.39 5.76-.56 7.27zm14.34-6.6a5.1 5.1 0 01.36-1.73 4 4 0 01.77-1.39 3.66 3.66 0 012-.55 2.68 2.68 0 011.85.69 2.33 2.33 0 01.75 1.8 1.2 1.2 0 01-.17.72 13 13 0 01-2.53.32c-1.37.09-2.38.14-3 .14m3.44-5a4.91 4.91 0 00-4 1.76 6.41 6.41 0 00-1.44 4.22c0 3.62 1.95 5.86 5.24 5.86a6.69 6.69 0 004.19-1.37 1.41 1.41 0 00-.39-1 5.19 5.19 0 01-3.12.86c-2.29 0-3.8-1.29-3.9-4.1l1.76-.14a35 35 0 005.79-.77 4.24 4.24 0 00.24-1.42 3.78 3.78 0 00-1.13-2.71 4.19 4.19 0 00-3.27-1.21zm5.65 1.95a20.63 20.63 0 012.79-.14h1v2.69a69.76 69.76 0 01-.22 7.1h2.43c-.12-1.18-.19-3.53-.19-7v-2.76h1a18 18 0 012.77.14v-1.68h-9.51zm13.74 1.27a3.32 3.32 0 011.88-1.53 3.46 3.46 0 01.91-.1c1.76.07 2.79 1.49 2.79 4.11a5.33 5.33 0 01-1.39 4.12 4.09 4.09 0 01-2.53.7 4.33 4.33 0 01-1.66-.29zm-2.19-2.8c.12 1.36.19 3.69.19 7v1.17c0 4-.07 6.53-.19 7.64h2.34c-.1-.94-.15-2.24-.15-3.92v-.67a7.27 7.27 0 001.54.19 6.26 6.26 0 004.4-1.7 6.19 6.19 0 001.83-4.75c0-3-1.32-4.8-3.51-5.19a4.54 4.54 0 00-1.66.29 3.48 3.48 0 00-2.67 1.51v-1.87zm22.38 11.18c-.07-1.3-.12-2.88-.12-4.75v-1.61c0-1.75.05-3.41.12-4.94h-1.78c-.31.6-1.3 2-2.91 4.32s-2.55 3.67-2.87 4.2H449a36.75 36.75 0 00.15-3.94v-1.66a23 23 0 01.12-2.92H447c.12 1.41.17 3.07.17 4.92v1c0 2.38-.05 4.18-.17 5.38h1.86c.43-.74 1.41-2.23 3-4.42s2.47-3.57 2.79-4.12h.07c-.07.81-.1 2.23-.1 4.24v1.35a19.49 19.49 0 01-.17 3zm2.74-11.3a19.52 19.52 0 01.15 2.88v1c0 2.52 1.25 3.53 3.46 3.53a6.79 6.79 0 003.18-.86v1.32a16.34 16.34 0 01-.22 3.38h2.38c-.12-1.13-.16-2.86-.16-5.18v-1.06c0-2.14 0-3.82.16-5.06h-2.33a29.76 29.76 0 01.17 3.48v2a5 5 0 01-2.43.52c-1.61 0-2.22-.76-2.22-2.61 0-1.06.05-2.21.17-3.43zm13.77 4.7a5.1 5.1 0 01.36-1.73 3.86 3.86 0 01.77-1.39 3.6 3.6 0 012-.55 2.65 2.65 0 011.85.69 2.3 2.3 0 01.75 1.8 1.2 1.2 0 01-.17.72 12.74 12.74 0 01-2.53.32c-1.37.09-2.38.14-3 .14m3.44-5a4.93 4.93 0 00-4 1.76 6.41 6.41 0 00-1.44 4.22c0 3.62 1.95 5.86 5.25 5.86a6.68 6.68 0 004.18-1.37 1.45 1.45 0 00-.38-1 5.22 5.22 0 01-3.13.86c-2.29 0-3.8-1.29-3.9-4.1l1.76-.14a35.09 35.09 0 005.8-.77 4.24 4.24 0 00.24-1.42 3.82 3.82 0 00-1.13-2.71 4.22 4.22 0 00-3.28-1.21zm11.83-.02a5.28 5.28 0 00-3.9 1.66 6 6 0 00-1.59 4.3 6.22 6.22 0 001.45 4.32 4.93 4.93 0 003.85 1.6 6.28 6.28 0 003.63-1.08 1.51 1.51 0 00-.29-1 5.18 5.18 0 01-2.4.63c-2.51 0-4.12-2-4.12-5a4.48 4.48 0 011.2-3.31 2.73 2.73 0 011.88-.58 4.13 4.13 0 012.79.94 2.53 2.53 0 00.84-1.47 4.74 4.74 0 00-3.34-1m12.78.31c-.51.67-1.16 1.53-2.12 2.71s-1.81 2-2.07 2h-.51v-1.11a33.18 33.18 0 01.15-3.64h-2.31c.12 1.46.17 3.16.17 5.13v.84c0 2.14-.05 3.91-.17 5.33h2.31c-.1-.94-.15-2.47-.15-4.58v-1h.51c.26 0 .67.48 1.2 1.39.36.55 1 1.58 1.66 2.45l.32.41a9 9 0 001.39 1.6 5.35 5.35 0 002.17-.33 32.67 32.67 0 01-3.54-4.4l-1.25-1.77c.38-.39 1.18-1.23 2.36-2.55s1.95-2.13 2.26-2.44zm9.16 1.03c2.29 0 3.4 2 3.4 4.85a4.92 4.92 0 01-1.21 3.69 3.12 3.12 0 01-1.71.55c-2.21 0-3.6-1.82-3.6-5a4.87 4.87 0 011.05-3.43 2.79 2.79 0 012.07-.67m.39-1.44a5.22 5.22 0 00-4 1.7 6.31 6.31 0 00-1.56 4.44 6.2 6.2 0 001.42 4.23 4.85 4.85 0 003.89 1.6 4.91 4.91 0 003.83-1.65 6.35 6.35 0 001.49-4.35c-.02-3.63-1.91-5.96-5.07-5.96zm10.85-4.78a2.08 2.08 0 00-1.44.68 3 3 0 003.27 2.56 3.28 3.28 0 003.46-2.76c-.14-.21-.45-.31-.91-.28a2.09 2.09 0 01-2.17 1.8 2.18 2.18 0 01-2.21-2m6.67 16.54c-.08-1.3-.12-2.88-.12-4.75v-1.61c0-1.75 0-3.41.12-4.94h-1.78c-.32.6-1.3 2-2.92 4.32s-2.55 3.67-2.86 4.2h-.12a37.41 37.41 0 00.14-3.94v-1.66a23 23 0 01.12-2.92h-2.28c.12 1.41.17 3.07.17 4.92v1c0 2.38-.05 4.18-.17 5.38h1.85c.43-.74 1.42-2.23 3-4.42s2.48-3.57 2.79-4.12h.07c-.07.81-.09 2.23-.09 4.24v1.35a19.49 19.49 0 01-.17 3zm12.94-11.66a5.31 5.31 0 00-3.9 1.66 6 6 0 00-1.59 4.3 6.27 6.27 0 001.45 4.32 5 5 0 003.85 1.6 6.28 6.28 0 003.63-1.08 1.46 1.46 0 00-.29-1 5.15 5.15 0 01-2.4.63c-2.51 0-4.12-2-4.12-5a4.44 4.44 0 011.21-3.31 2.69 2.69 0 011.87-.58 4.13 4.13 0 012.79.94 2.6 2.6 0 00.85-1.47 4.79 4.79 0 00-3.35-1m7.32 5.01a5.1 5.1 0 01.36-1.73 3.86 3.86 0 01.77-1.39 3.6 3.6 0 012-.55 2.65 2.65 0 011.85.69 2.3 2.3 0 01.75 1.8 1.2 1.2 0 01-.17.72 12.74 12.74 0 01-2.53.32c-1.37.09-2.38.14-3 .14m3.44-5a4.93 4.93 0 00-4 1.76 6.41 6.41 0 00-1.44 4.22c0 3.62 1.95 5.86 5.25 5.86a6.66 6.66 0 004.18-1.37 1.45 1.45 0 00-.38-1 5.22 5.22 0 01-3.13.86c-2.29 0-3.8-1.29-3.9-4.1l1.76-.14a35.09 35.09 0 005.8-.77 4.24 4.24 0 00.24-1.42 3.82 3.82 0 00-1.13-2.71 4.22 4.22 0 00-3.28-1.21zm5.65 1.95a20.63 20.63 0 012.79-.14h1v2.69a66.77 66.77 0 01-.22 7.1h2.43c-.12-1.18-.19-3.53-.19-7v-2.76h1a18 18 0 012.77.14v-1.68h-9.5zm18.43-1.65c-.51.67-1.16 1.53-2.12 2.71s-1.81 2-2.07 2h-.51v-1.11a33.18 33.18 0 01.15-3.64h-2.31c.12 1.46.17 3.16.17 5.13v.84c0 2.14-.05 3.91-.17 5.33h2.31c-.1-.94-.15-2.47-.15-4.58v-1h.53c.26 0 .67.48 1.2 1.39.36.55 1 1.58 1.66 2.45l.32.41a9 9 0 001.39 1.6 5.35 5.35 0 002.17-.33 32.67 32.67 0 01-3.54-4.47l-1.25-1.77c.38-.39 1.18-1.23 2.36-2.55s2-2.13 2.26-2.44zm6.04 4.7a5.1 5.1 0 01.36-1.73 3.86 3.86 0 01.77-1.39 3.6 3.6 0 012-.55 2.65 2.65 0 011.85.69 2.3 2.3 0 01.75 1.8 1.2 1.2 0 01-.17.72 12.74 12.74 0 01-2.53.32c-1.37.09-2.38.14-3 .14m3.44-5a4.93 4.93 0 00-4 1.76 6.41 6.41 0 00-1.44 4.22c0 3.62 2 5.86 5.25 5.86a6.66 6.66 0 004.18-1.37 1.45 1.45 0 00-.38-1 5.22 5.22 0 01-3.13.86c-2.29 0-3.8-1.29-3.9-4.1l1.76-.14a35.09 35.09 0 005.8-.77 4.24 4.24 0 00.24-1.42 3.82 3.82 0 00-1.13-2.71 4.22 4.22 0 00-3.28-1.21z"/></g></svg>