<svg id="Layer_1" data-name="Layer 1" xmlns="http://www.w3.org/2000/svg" viewBox="0 0 1920 1080"><defs><style>.cls-2{fill:#ea533d}</style></defs><path fill="#d6e2d4" d="M0 0h1920v1080H0z"/><path class="cls-2" d="M1151.31 341.39v10.46q0 1.14.06 2.28L1192 370v12.41l-37.43-14.67a40.64 40.64 0 0037.43 24.79v11.14a51.83 51.83 0 01-40.67-19.75v20.19h-11.14v-20.06a50.16 50.16 0 01-4 4.49 51.38 51.38 0 01-36.46 15.13v-11.14a40.38 40.38 0 0037.27-24.78l-37.5 14.7V370l.13-.05 40.45-15.86c0-.67.05-1.35.05-2v-10.57a50.16 50.16 0 01-4 4.49 51.38 51.38 0 01-36.46 15.13V350a40.39 40.39 0 0040.42-40.43v-.26h11.14A40.63 40.63 0 001192 350v11.14a51.83 51.83 0 01-40.67-19.75M736 404.11c0-15.85 13.78-27.58 29.18-27.58s29.18 11.73 29.18 27.58h-11.15c0-9.71-8.78-16.45-18.05-16.45s-18 6.74-18 16.45zm45.62-75.65l-3.33-16.94 10.92-2.13 3.14 16a17.29 17.29 0 008.21-18.23l10.9-2.16A28.42 28.42 0 01789 338.36l-15.94 3.17c-16.25 2.69-28.41 13.65-35.34 28.15a47.9 47.9 0 0159.66 3.86 41.67 41.67 0 0113.56 30.57H799.8c0-18.7-16.69-31.91-34.64-31.91s-34.63 13.21-34.63 31.91h-11.14c0-20.14 5.63-40.91 19.54-55.94l-17.25 3.38-2.14-10.93 26.91-5.27-3.34-17.14 10.89-2.09 3.33 17.09 7.15-1.4-3.32-16.89 10.92-2.13 3.32 16.88zM1151 553.61a46 46 0 00-52.86-1.25l.06 13.72c12.28-11.35 31.94-14 46.18-3.51a46.27 46.27 0 0048.93 3.59v-13.24a34.93 34.93 0 01-42.31.69m0 19.66a46 46 0 00-52.86-1.25v14.41l.06.05a34.88 34.88 0 0146.18-4.25 46.27 46.27 0 0048.93 3.59v-12.5c-12.31 9.19-29.84 8.4-42.31-.05zm-13-46.39L1126.19 513a24 24 0 00-7.26 13.93zm27.3-13.94l-11.8 13.94h19a24 24 0 00-7.19-13.94zm-29.56-5.94l10 11.81 10-11.82a29.48 29.48 0 00-20 .01zm-28 19.85c1.82-19.28 19.15-32.74 38-32.74s36.19 13.46 38 32.74h9.57V538h-95.17v-11.12zM741.3 696.52a5.27 5.27 0 10-5.27 5.27 5.26 5.26 0 005.27-5.27m33 78.48h-12.37a46.15 46.15 0 00-42.42-27.56v-11.56a57.82 57.82 0 0154.73 38.84zm-18.38 0h-13.7l-.06-.08a29.17 29.17 0 00-22.65-10.54v-11.55a40.77 40.77 0 0135.83 21 11 11 0 01.6 1.17zm-.85-47.49a74.88 74.88 0 0156.6-28.51l.21 11.57a63.3 63.3 0 00-47 23.19c1.56 1.18 3.08 2.43 4.54 3.73a57.48 57.48 0 0142.25-21l.21 11.55a45.82 45.82 0 00-34.37 17.86c1.41 1.71 2.75 3.49 4 5.32a39.51 39.51 0 0130.13-16.77l.22 11.57A28 28 0 00788.12 763a74.16 74.16 0 014.12 11.71 21.68 21.68 0 0119.41-22.26l.23 11.64c-5.43 1.18-8.07 5.52-8.07 10.91h-23.49a63.46 63.46 0 00-60.81-44.82v-11.55a74.49 74.49 0 0135.58 8.88zm-2.66-31a16.4 16.4 0 11-16.4-16.4 16.38 16.38 0 0116.42 16.41zM546.68 573v-.76l-18.74-.24.12-11.13 18.85.21c.16-1.73.37-3.45.65-5.14l-19.62-.23.12-11.13 22.24.25a71.33 71.33 0 0167.54-48.64h5.57v5.57a71.34 71.34 0 01-49 67.66l-.24 21.74-11.11-.16.22-18.92c-1.8.28-3.62.5-5.45.64l-.21 18.41-11.14-.13zm17.14-31.89a59.47 59.47 0 00-5.77 20.47 59.56 59.56 0 0020.58-5.84 33.26 33.26 0 01-14.81-14.65zm13.5-18c-.66.61-1.3 1.23-1.94 1.86a62.449 62.449 0 00-3.81 4.18 22 22 0 0019.14 18.74 59.7 59.7 0 006.26-6.06 30.43 30.43 0 01-19.65-18.76zm34.68-15.5a59.51 59.51 0 00-25.07 8.27 19.17 19.17 0 0017.24 16 59.62 59.62 0 007.83-24.27zm-6.56 10.94a4.77 4.77 0 11-4.76-4.77 4.76 4.76 0 014.75 4.77zM575.75 680.8c-6.19 15.56-12.17 30.85-18.07 46.51a13.15 13.15 0 00-.86 4.68c0 9.81 9.95 15.64 18.87 15.64s18.85-5.83 18.85-15.62a13.23 13.23 0 00-.87-4.7c-5.88-15.59-11.84-31-17.92-46.51m-21.13 10.32L542 724.66a26 26 0 00-1.71 9.2c0 18.47 18.31 30 35.44 30s35.41-11.45 35.41-30a25.94 25.94 0 00-1.7-9.2l-12.64-33.54h-5c4.21 10.75 8.26 21.47 12.34 32.28a24.33 24.33 0 011.6 8.61c0 16-15 26.76-30 26.76s-30-10.74-30-26.78a24.26 24.26 0 011.6-8.59c4.09-10.85 8.15-21.51 12.43-32.28zm54 0l11.16 29.62a37.13 37.13 0 012.45 13.12c0 24.77-23.43 41.14-46.55 41.14-23.3 0-46.57-16.53-46.57-41.14a37.11 37.11 0 012.44-13.12l11.19-29.62h-13.13V680h92v11.13zm333.82 72.74h26.22V775h-26.22zm.8-15.41a82.91 82.91 0 01-3-10.93 99.65 99.65 0 01-2-19.78 84.41 84.41 0 011.9-17.51 91.51 91.51 0 012.41-9.1 27 27 0 00-10.46 8.16 21 21 0 00-4.38 12.71 20.19 20.19 0 001.22 6.88l13.79 29.62zM968.46 691a95.57 95.57 0 012.45 9.27 85.36 85.36 0 011.89 17.52 100.19 100.19 0 01-2 19.84 82.09 82.09 0 01-3 10.87h.51l14.14-29.5a20.38 20.38 0 001.28-7.07 21 21 0 00-4.41-12.66 27.15 27.15 0 00-10.86-8.27zm-12.55 57.5a63.67 63.67 0 004-13.09 88.8 88.8 0 001.73-17.62 74.45 74.45 0 00-1.64-15.31 82.94 82.94 0 00-4.32-14.08h-.34a83.41 83.41 0 00-4.34 14.14 73.32 73.32 0 00-1.63 15.2 89 89 0 001.72 17.56 64.38 64.38 0 004.06 13.15zm-20.28 11.16l-16.83-36.22-.15-.39a31.27 31.27 0 01-2.07-11.1 32 32 0 016.71-19.36 38.58 38.58 0 0117.1-12.59 44 44 0 0130.66 0 38.58 38.58 0 0117.1 12.57 32 32 0 016.71 19.43 31.48 31.48 0 01-2.06 11.1l-.2.44-17.33 36.16-.21-.1H936v-.16zM557.89 353.93a6.64 6.64 0 006.66 6.68v11.13a17.84 17.84 0 01-17.79-17.81zm21.84-16.69h-8.14a35.51 35.51 0 014.07 5.22 36.19 36.19 0 014.07-5.22zM540.44 324v2.11h6.72V324a3.36 3.36 0 10-6.72 0zm63.72 0v2.11h6.76V324a3.38 3.38 0 00-6.76 0zM591 381a34 34 0 0119.91-10.5v-33.24h-5.45A24.24 24.24 0 00591 381zm-25 9.55c.35.82.68 1.65 1 2.5h16.73q.5-1.42 1.11-2.79a35.41 35.41 0 01-9.2-9.7 35.59 35.59 0 01-9.59 9.94zm-25.61-20A33.93 33.93 0 01560 381.19a24.24 24.24 0 00-14.13-43.93h-5.42zm17.31 33.57c0-14.64-14.07-26.06-28.45-22.21V324a14.5 14.5 0 1129 0v2.11H593V324a14.51 14.51 0 0129 0v58.05c-14.26-4.42-29 7.3-29 22.06zM540.44 385a20.09 20.09 0 00-11.14-.09v19.25h11.14zm14.18 19.16V402a20.14 20.14 0 00-11.14-15.85v18zm53.23-18a19.53 19.53 0 00-11.14 18h11.14zm14.15-1.3a20.09 20.09 0 00-11.14.09v19.16H622zm-17.49-30.93a17.84 17.84 0 01-17.79 17.81v-11.13a6.64 6.64 0 006.66-6.68zM1125.4 741h40.6c12.9 0 19.58-15.67 10.34-24.92a14.62 14.62 0 00-10.37-4.28 25.79 25.79 0 01-20.21-9.9 25.83 25.83 0 01-20.31 9.9 14.6 14.6 0 10-.06 29.2m40.61 11.12h-40.6l-.09 22.88h-11.14v-25.47a25.74 25.74 0 0111.29-48.87 14.65 14.65 0 0014.68-14.66v-4.05h-5.45v-11.16h5.45v-4.38h11.13v4.38h5.7v11.14h-5.7V686c.09 7.68 6.91 14.68 14.8 14.68a25.73 25.73 0 0111.93 48.49V775h-11.13zM1129.8 775v-5.09a16.26 16.26 0 1132.52 0V775h-11.13v-5.09a5.13 5.13 0 10-10.25 0V775zm48.2-50.56a13.88 13.88 0 01-13.68 14v-11.16a2.71 2.71 0 002.55-2.84zM998.92 315v43h-11.13v-23.29L959 364.45v39.33h-11.14V376l-5.86 6.07v21.79h-11.19v-10.29l-10.22 10.54h-8.07v-8.3l.06-.06 9.24-9.54H913v-11.13h19.6l5.65-5.83H913v-11.14h36l31-32h-24.34V315h43.26zM765.87 589.73l-1.94 1.44h-19.4l21.34-15.83q10.7 7.9 21.37 15.83h-19.4zm-5.72-30.54v-8.56h-2.41l-.32-.05h-1.24l-.37-.06-.38-.06h-.78l-.35-.06-.34-.07h-.12l-.3-.06-.39-.07-.36-.07h-.08l-.28-.06h-.08l-.72-.16h-.06l-.33-.07h-.07l-.28-.07h-.11l-.34-.08-.35-.09-.32-.08h-.06l-.35-.09-.36-.1-.35-.09-.3-.09h-.08l-.34-.1-.29-.09h-.07l-.35-.1-.3-.1h-.13l-.29-.09-.33-.11-.19-.07-.18-.06-.35-.12-.65-.23h-.11l-.25-.09h-.14l-.29-.1-.3-.12h-.07l-.25-.09h-.11l-.28-.1-.28-.11h-.05l-.29-.12h-.07l-.28-.12h-.06l-.34-.14-.32-.14h-.06l-.31-.14h-.05l-.16-.07-.16-.07-1.1-.51-.31-.15-.1-.05-.25-.12h-.05l-.31-.15-.28-.14-.15-.07-.28-.15-.27-.14-.26-.14h-.15l-.15-.08-.15-.08-.16-.08-.15-.09-.3-.16-.14-.08-.15-.08-.11-.06-.25-.13h-.06l-.15-.08-.15-.09-.13-.08-.14-.08-.12-.07-.15-.09-.22-.13-.15-.08-.14-.09-.15-.09-.15-.09-.15-.09-.21-.13-.15-.09-.14-.09-.15-.09-.1-.07-.15-.09-.28-.19v19.57H720v-30.63l-.16-.16-.06-.06v-19.48l.4.71a52.51 52.51 0 0019.24 19.76l.32.19.13.08.23.12.11.07.26.15h.07l.35.2.33.18.12.06.27.15h.05l.29.15h.1l.3.15h.07l.27.14.12.06.25.12.11.06.24.11h.11l.33.16h.09l.25.12.14.06.23.1.12.06.27.12h.09l.35.15h.08l.25.11.17.06.21.09h.13l.31.13.36.14.36.14h.08l.32.12.36.13.37.13.32.11h.09l.28.09.12.05.24.08h.15l.33.1h.06l.35.11h.1l.28.08h.12l1.15.32h.14l.23.06h.15l.74.18h.07l.29.07h.15l.28.06h.08l.35.08h.54l.37.08h.11l.29.06h.53l.28.06h.1l.34.06h.98l.38.06.39.05h1.36v-5.3a47.52 47.52 0 01-41-38v-.26h11.81v.16A36.1 36.1 0 00743.81 515a35.68 35.68 0 0016.34 7v-5.29a10.08 10.08 0 00-2.94-7.13 10 10 0 00-1.59-1.29v5h-11.13v-17.8h5.56a21.27 21.27 0 0121.23 21.22V522a35.94 35.94 0 0029.14-26.42v-.16h11.88v.26a47.52 47.52 0 01-41 38v5.35h1.67l.38-.05h.54l.3-.05h.54l.35-.07h.05l.34-.06h.54l.3-.06h.09l.33-.07h.27l.31-.07h.56l.23-.05h.13l.29-.07h.09l.34-.09h.12l.23-.06h.16l.26-.08h.13l.24-.07h.17l.33-.09h.08l.3-.09h.14l.2-.07.2-.06.17-.05.19-.06.33-.11.33-.11.12-.05.26-.09h.13l.22-.08.18-.06.3-.1.36-.14h.07l.27-.1.16-.06.23-.09.12-.05.72-.29.35-.14.12-.05.25-.11.12-.06.21-.09.18-.08.31-.14h.06l.32-.15.32-.15.12-.06.21-.1.15-.07.66-.32h.11l.21-.11.15-.07.23-.12h.09l.25-.14.12-.06.3-.16.29-.16.09-.05.29-.17h.05l.27-.16.1-.06.34-.19a52.75 52.75 0 0019.22-19.65l.39-.7v19.46l-.25.26v28.58h-10.83v-20.72l-.13.08-.14.09-.2.14-.14.1-.11.07-.15.09-.14.09h-.05l-.22.13h-.14l-.26.16-.29.17-.11.06-.15.09-.14.08-.15.09h-.06l-.22.13-.15.08-.14.08-.15.08-.11.06-.14.09-.15.08h-.06l-.22.12h-.07l-.29.16h-.06l-.15.08-.15.08-.1.05-.15.08h-.15l-.23.11h-.07l-.25.13h-.05l-.31.15-.28.13-.15.07-.15.08h-.15l-.25.12-.3.14-.7.32-.63.27h-.15l-.16.07-.16.07-.35.15-.29.12h-.2l-.22.09h-.07l-.29.12-.36.14-.28.1-.13.06-.17.06-.17.06L788 547l-.36.13h-.06l-.25.09h-.13l-.24.09h-.13l-.29.1h-.07l-.28.1h-.08l-.25.09h-.13l-.26.08h-.05l-.3.09-.27.08h-.19l-.26.08-.71.2-.35.1-.28.07h-.14l-.67.18h-.05l-.35.09h-.07l-.27.07h-.1l-.3.08h-.08l-.72.16h-.08l-.29.07h-.07l-.37.08c-.51.11-1 .21-1.54.3l-.76.13-.35.06-.39.06-.39.06-.35.06h-.47l-.37.06-.8.1-.4.05-2 .2v8.52L814.1 591h-19.39l-29-21.51-29 21.51h-19.4q21.42-15.91 42.84-31.81zm563.24-62.81h18.13l-34.81 27.11 16.32 14 5.8-16.11 10.5 3.78-7.26 20.1h.08v45.86H1321v-40.24h-31.59v-11.14h19.11l-19.12-16.45V508.6l6 5.2v-17.43h11.13v13.1zm29 94.79h-11.13v-45.86h.14l9.58-8.25v-.35l.52-.06v-.07l-19.22-25.64 8.88-6.68 10.27 13.74v-21.62h11.14v30.67l19.56-16.84v14.69l-11.05 9.52 11.05-1.26v11.21l-26 3-3.74 3.22zm10.79 137.6l-10.6 31.77 24.26-19.12-3.08-12.74zm-68.85-6.77l9.86-2.89-2.38-6.61.63-.22-.45-.4 4.19-4.63-10.57-.08zm13.62 7.57l-11.21 3.28 21.64 25.73zm9.87 44.82l-.36.31-35.23-41.87 3.17-36.83 30.76.25 17.52-19.35 36.81 28.79-.49.62.6.2-3.71 11.11 15.59-.13 6.82 28.24-36.8 29-.33-.41v.5l-34.36.15zM1340 696l.18 13.92 10.87-5.28zm-10.89 15.47l-.17-12.8-9.66 10.67zm11.75 49l15.36-46-15.87 7.71zm-24.6-40.45l13.46 37.42-.46-34.61zm3.89-356.19a64 64 0 01-1.41-9.22 62.83 62.83 0 01.55-14.42h-3.76a8.13 8.13 0 00-5.43 2.55 8.84 8.84 0 00-1.7 2.69 8.64 8.64 0 00-.65 3.13 8.14 8.14 0 002.7 6.16zm10.39-23.64a52.42 52.42 0 00-.7 13.59 51.7 51.7 0 004 16.41 15.33 15.33 0 011.79 2.57 15.64 15.64 0 011.95-2.76 52.1 52.1 0 003.23-29.81zm10.55-15.07v3.94h16.22v.12a18.93 18.93 0 0112 5.93 19.71 19.71 0 013.94 6.14c.25.61.46 1.23.65 1.86a22.8 22.8 0 0118.15-9v11.14a11.68 11.68 0 00-11.72 11.75h-7.49a19.59 19.59 0 01-4.3 5.82l-9.24 8.65V376h-11.06a4.15 4.15 0 00-3.33 4.09h-3.8v3.57h8.76a9.2 9.2 0 009.25 9.27v11.14a20.31 20.31 0 01-14.42-6 19.78 19.78 0 01-1.37-1.52h-15.58a19.78 19.78 0 01-1.37 1.52 20.31 20.31 0 01-14.42 6V393a9.22 9.22 0 009.25-9.27h8.79v-3.57h-3.53a4.13 4.13 0 00-3.32-4.09h-11v-4.58l-9.23-8.65a19.33 19.33 0 01-4.31-5.82h-7.33a11.68 11.68 0 00-11.73-11.72v-11.17a22.81 22.81 0 0116.15 6.7 23.85 23.85 0 011.88 2.13c.17-.58.37-1.15.59-1.7a19.9 19.9 0 013.92-6.13 19 19 0 0112.06-5.95v-.12H1330v-3.94h-8.64a13.67 13.67 0 01-13.61-13.64h11.13a2.51 2.51 0 00.73 1.79 2.43 2.43 0 001.75.71h29.78a2.53 2.53 0 001.79-.73 2.5 2.5 0 00.72-1.77h11.13a13.69 13.69 0 01-13.64 13.64zm10.15 38.69l9.7-9.08a8.17 8.17 0 002.68-6.15 9 9 0 00-2.38-5.85 8.06 8.06 0 00-5.39-2.53h-3.74a62.79 62.79 0 01.56 14.42 61.07 61.07 0 01-1.43 9.19zM202.37 120.21c-.1-2-.18-5.72-.18-11.16v-1.44c0-4.5.08-7.56.18-9.18h-3.81a78.47 78.47 0 01-5.11 8.28 87.33 87.33 0 00-4.79 7.6h-.22a28.27 28.27 0 00.22-4.18v-11.7h-4.36c.18 1.59.29 4.61.29 9V109c0 5.4-.11 9.14-.29 11.19h3.93a66.1 66.1 0 015.14-8.49c2.78-4.14 4.36-6.59 4.76-7.38h.14c-.11 1.22-.18 4.32-.18 9.32v6.55zm15.16-17.13c-.72 1.18-1.76 2.7-3.1 4.46s-2.19 2.66-2.59 2.66h-.65v-1.65a41.25 41.25 0 01.26-5.47H207c.18 2.19.25 4.78.25 7.84v1.26c0 3.21-.07 5.91-.25 8h4.43a68 68 0 01-.26-6.87v-1.48h.83c.4 0 1 .83 1.73 2.23.47.87 1.37 2.38 2.19 3.67.29.44.83 1.16 1 1.44l.36.51a5 5 0 00.86.9 11 11 0 004.14-.58 22.41 22.41 0 01-1.66-2c-.68-.94-1.26-1.8-1.76-2.56l-1.86-2.86-1.26-2c.44-.5 2.56-3 6.34-7.48zm14.76 1.98c3.06 0 4.5 3 4.5 7.16a7.35 7.35 0 01-1.48 5 4.69 4.69 0 01-2.31.78c-3 0-4.82-2.63-4.82-7.34a7 7 0 011.3-4.68 3.91 3.91 0 012.84-.9m.58-2.6a8.54 8.54 0 00-6.34 2.56 9.16 9.16 0 00-2.48 6.73c0 5.37 3.24 8.86 8.46 8.86a7.87 7.87 0 006-2.49 9.39 9.39 0 002.34-6.62c-.02-5.6-2.97-9.06-8.01-9.06zm26.97 17.73q-.22-3.61-.22-8v-1.15c0-3.67.07-6.34.22-8h-4.4a42 42 0 01.29 5.25v1.51a41.49 41.49 0 01-7 0v-1.33a43.16 43.16 0 01.25-5.43h-4.43c.18 1.65.25 4.32.25 8v1.05c0 3.31-.07 6-.25 8.06H249a59.17 59.17 0 01-.25-6.37v-1.4a41.49 41.49 0 017 0v1.4c0 2.45-.11 4.57-.29 6.37zM275 103.08c-.72 1.18-1.77 2.7-3.1 4.46s-2.2 2.66-2.59 2.66h-.65v-1.65a41.62 41.62 0 01.25-5.47h-4.43c.18 2.19.26 4.78.26 7.84v1.26c0 3.21-.08 5.91-.26 8h4.43a68.54 68.54 0 01-.25-6.87v-1.48h.76c.39 0 1 .83 1.72 2.23.47.87 1.37 2.38 2.2 3.67.29.44.83 1.16 1 1.44l.36.51a5 5 0 00.87.9 11.07 11.07 0 004.14-.58 19.42 19.42 0 01-1.66-2c-.68-.94-1.26-1.8-1.76-2.56l-1.84-2.88-1.26-2c.43-.5 2.56-3 6.34-7.48zm23.06 17.13c-.14-1.91-.21-4.35-.21-7.34v-2.41c0-2.78.07-5.26.21-7.38h-3.6c-.47.9-1.76 2.91-3.92 6s-3.46 5.08-3.93 6h-.21a47.33 47.33 0 00.25-5.51v-2.12a33.66 33.66 0 01.18-4.39h-4.36c.18 2 .26 4.5.26 7.34v1.6c0 3.64-.08 6.34-.26 8.17h3.64c.58-1 1.91-3.06 4-6.12s3.38-5.07 3.89-6h.14c-.11 1.44-.18 3.42-.18 6v1.69a28.52 28.52 0 01-.29 4.43zm16.27 0a92.22 92.22 0 01-.39-10.22v-4.14h2a43 43 0 014.93.21v-3h-11.11c.18 1.9.25 4.1.25 6.66v1.62c0 3.56-.07 6.51-.25 8.82zm16.46-15.15c3.06 0 4.5 3 4.5 7.16a7.4 7.4 0 01-1.48 5 4.72 4.72 0 01-2.34.72c-3 0-4.82-2.63-4.82-7.34a7.05 7.05 0 011.29-4.68 4 4 0 012.85-.9m.57-2.6A8.51 8.51 0 00325 105a9.17 9.17 0 00-2.49 6.73c0 5.37 3.24 8.86 8.46 8.86a7.85 7.85 0 006-2.49 9.39 9.39 0 002.34-6.62c.04-5.56-2.91-9.02-7.95-9.02zm15.84 5.12a4 4 0 012.56-2 3.76 3.76 0 011.26-.11c2.34.18 3.71 2.27 3.71 5.91 0 2.77-.62 4.78-1.88 6a5.32 5.32 0 01-3.31.9 5 5 0 01-2.34-.47zm-4.2-4.28c.22 2 .33 5.61.33 10.72v1.77q0 9-.33 11.45h4.5a49.72 49.72 0 01-.25-5.87v-1a10.7 10.7 0 002.27.25 9.62 9.62 0 006.73-2.56 9.34 9.34 0 002.81-7.2c0-4.75-2.2-7.52-5.65-7.95a6 6 0 00-3.1.82 4.13 4.13 0 00-3.24 1.8l.07-.5v-2.23zm26.92 1.8c3.06 0 4.5 3 4.5 7.16a7.4 7.4 0 01-1.48 5 4.72 4.72 0 01-2.34.72c-3 0-4.82-2.63-4.82-7.34a7.05 7.05 0 011.29-4.68 4 4 0 012.85-.9m.57-2.6a8.51 8.51 0 00-6.33 2.56 9.17 9.17 0 00-2.49 6.73c0 5.37 3.24 8.86 8.46 8.86a7.88 7.88 0 006-2.49 9.44 9.44 0 002.34-6.62c.02-5.54-2.94-9-7.98-9zm16.92 3.25a9.69 9.69 0 012.16-.15 9.57 9.57 0 012.16.15v11.91h-6.94c1.54-1.47 2.59-5.83 2.62-11.91M383 124.5v-4.29h11.74v4.29h3.42v-6.92h-2.27c-.11-1.15-.18-3.2-.18-6.12v-1.15q0-4.59.21-7.23h-12.2a21.72 21.72 0 01.25 3.78 25.19 25.19 0 01-1 7.27c-.64 2.3-1.44 3.45-2.34 3.45h-1v6.92zm25.8-21.96a8.41 8.41 0 00-6.19 2.55 8.84 8.84 0 00-2.52 6.55 9.07 9.07 0 002.3 6.52 7.93 7.93 0 006 2.45 10.5 10.5 0 005.87-1.84 2.81 2.81 0 00-.58-1.91 6.8 6.8 0 01-3.52 1c-3.57 0-5.84-2.88-5.84-7.24a6.37 6.37 0 011.59-4.54 3.53 3.53 0 012.41-.75 6.33 6.33 0 014.28 1.51 5.5 5.5 0 001.52-2.74c-.9-1-2.7-1.54-5.33-1.54m19.21.52c-.72 1.18-1.76 2.7-3.09 4.46s-2.2 2.66-2.6 2.66h-.64v-1.65a41.62 41.62 0 01.25-5.47h-4.43c.18 2.19.25 4.78.25 7.84v1.26c0 3.21-.07 5.91-.25 8h4.43a68.54 68.54 0 01-.25-6.87v-1.48h.75c.4 0 1 .83 1.73 2.23.47.87 1.37 2.38 2.2 3.67.28.44.82 1.16 1 1.44l.36.51a5 5 0 00.86.9 11 11 0 004.14-.58 21 21 0 01-1.65-2c-.69-.94-1.26-1.8-1.77-2.56l-1.83-2.88-1.26-2c.43-.5 2.55-3 6.33-7.48zm23.1 17.13c-.15-1.91-.22-4.35-.22-7.34v-2.41c0-2.78.07-5.26.22-7.38h-3.6c-.47.9-1.77 2.91-3.93 6s-3.45 5.08-3.92 6h-.22a47.05 47.05 0 00.26-5.51v-2.12a33.66 33.66 0 01.18-4.39h-4.36c.18 2 .25 4.5.25 7.34v1.6c0 3.64-.07 6.34-.25 8.17h3.64c.57-1 1.9-3.06 4-6.12s3.38-5.07 3.88-6h.15c-.11 1.44-.18 3.42-.18 6v1.69a28.52 28.52 0 01-.29 4.43zm3.35-17.13q4.16 6 5.47 8.2c-1.41 2.2-3.42 5.19-6.05 8.93h4.07c1.22-2.41 2.41-4.64 3.6-6.62h.14l4 6.62h5.08c-2.12-2.95-4.18-6-6.12-9.07 1.19-1.91 3.17-4.61 5.87-8.06h-4q-.85 1.67-3.49 5.86h-.18a49.28 49.28 0 01-3.28-5.86zm33.55 1.98c3.06 0 4.5 3 4.5 7.16a7.4 7.4 0 01-1.47 5 4.75 4.75 0 01-2.34.72c-3 0-4.83-2.63-4.83-7.34a7 7 0 011.3-4.68 3.93 3.93 0 012.84-.9m.58-2.6a8.54 8.54 0 00-6.38 2.58 9.2 9.2 0 00-2.48 6.73c0 5.37 3.24 8.86 8.46 8.86a7.86 7.86 0 006-2.49 9.39 9.39 0 002.34-6.62c.01-5.56-2.94-9.02-7.98-9.02zm14.93 9.01a9.66 9.66 0 01.62-4.11 4.18 4.18 0 013.56-1.69c2.45 0 3.74 2.41 3.74 6.59a8.66 8.66 0 01-1.29 5.15 3.48 3.48 0 01-2.38.86c-2.59 0-4.25-2.52-4.25-6.8m5.3-8.14a7.88 7.88 0 00-6.84 4h-.15a12.06 12.06 0 01.79-4.18 6.4 6.4 0 011.19-1.94 8 8 0 015.26-2.2c2.84-.18 4.57-.57 5.22-1.22a5.5 5.5 0 000-3.71c-.54.61-2.12 1-4.79 1.3a9.39 9.39 0 00-7.66 4.24 17.22 17.22 0 00-2.52 9.65c0 7.31 3.09 11.38 8.28 11.38a7.36 7.36 0 006-2.59 10.44 10.44 0 002.16-6.81c-.07-5-2.75-7.92-6.94-7.92zm14.72 4.25a4 4 0 012.56-2 3.73 3.73 0 011.26-.11c2.34.18 3.7 2.27 3.7 5.91 0 2.77-.61 4.78-1.87 6a5.34 5.34 0 01-3.31.9 4.93 4.93 0 01-2.34-.47zm-4.25-4.28c.22 2 .33 5.61.33 10.72v1.77q0 9-.33 11.45h4.5a49.72 49.72 0 01-.25-5.87v-1a10.63 10.63 0 002.27.25 9.64 9.64 0 006.73-2.56 9.34 9.34 0 002.81-7.2c0-4.75-2.2-7.52-5.65-7.95a6 6 0 00-3.1.82 4.13 4.13 0 00-3.24 1.8l.07-.5v-2.23zm22.83 11.84a3.39 3.39 0 01.75-2.12 6.8 6.8 0 013.71-.69 6.62 6.62 0 012 .25v3.28a4.42 4.42 0 01-3.74 2.16 2.62 2.62 0 01-2.7-2.88m10.51-5.87c0-4.75-1.91-6.66-6-6.66a17.27 17.27 0 00-7.67 2 3.06 3.06 0 00.76 2.16 11.61 11.61 0 015.27-1.53c2.77 0 3.56 1.4 3.52 4.82-7.3.26-10.51 1.73-10.51 5.8a4.6 4.6 0 004.9 4.75 7 7 0 005.72-2.84h.15a20.42 20.42 0 00.25 2.81l3.89-.33a52.91 52.91 0 01-.29-7.38zm4.73-2.88a7.81 7.81 0 014.21-1.22c2.16 0 3.28 1 3.28 2.7a2.74 2.74 0 01-3 2.59 11.2 11.2 0 01-2.59-.29 2.79 2.79 0 000 2.56 11 11 0 012.55-.29c2.2 0 3.75 1.08 3.75 2.81a3 3 0 01-1.16 2.52 5.22 5.22 0 01-2.44.47 7.67 7.67 0 01-4.54-1.41 4 4 0 00-1.19 2.38 5.9 5.9 0 002.31 1.08 12 12 0 003.31.5 10.56 10.56 0 005.72-1.4 4.68 4.68 0 002.23-4.18c0-2.16-1.54-3.63-3.88-3.92v-.18a4.34 4.34 0 003.09-4.14c0-2.56-1.94-4.39-5.65-4.39a14.54 14.54 0 00-6.62 1.33 5.14 5.14 0 00.68 2.48m23.57-1.29c3.06 0 4.5 3 4.5 7.16a7.35 7.35 0 01-1.48 5 4.69 4.69 0 01-2.34.72c-3 0-4.82-2.63-4.82-7.34a7 7 0 011.3-4.68 3.91 3.91 0 012.84-.9m.58-2.6a8.54 8.54 0 00-6.34 2.56 9.16 9.16 0 00-2.48 6.73c0 5.37 3.24 8.86 8.46 8.86a7.87 7.87 0 006-2.49 9.39 9.39 0 002.34-6.62c-.04-5.54-2.99-9-8.03-9zm15.79 10.02a14.73 14.73 0 012.59-.15c2 0 3.6.79 3.6 2.77a3.14 3.14 0 01-1.19 2.78 7 7 0 01-2.81.39 6.1 6.1 0 01-2.19-.29zm0-7.17a8 8 0 012.19-.29c2.27 0 3.42.87 3.42 2.6a2.66 2.66 0 01-2.16 2.66 12.17 12.17 0 01-3.45 0zm2.37-2.63a62.08 62.08 0 00-6.55.44c.18 2 .25 4.42.25 7.3v1.37c0 3.42-.07 6.23-.25 8.46a38.27 38.27 0 006 .4c5.07 0 8.46-1.87 8.46-5.29a4 4 0 00-3.93-4.22v-.18a4.16 4.16 0 003.24-4c-.02-2.84-2.43-4.28-7.22-4.28z"/><path d="M189.42 928.28a6.36 6.36 0 00-4.91 2.09 9.23 9.23 0 00-.08 11.06 6.13 6.13 0 004.72 2 7.05 7.05 0 004.07-1.23 2.21 2.21 0 00-.44-1.29 5.23 5.23 0 01-2.93.81 4.31 4.31 0 01-3.64-1.75 7.37 7.37 0 01-1.29-4.49 6.12 6.12 0 012-4.94 4 4 0 012.38-.55 8.09 8.09 0 013.13.57 3.09 3.09 0 00.41-1.7 8.65 8.65 0 00-3.39-.53m15.89 14.78c-.07-1.29-.12-2.88-.12-4.75v-1.61c0-1.75.05-3.4.12-4.94h-1.78c-.31.6-1.3 2-2.91 4.32s-2.55 3.67-2.86 4.2h-.12c.09-.84.14-2.14.14-3.94v-1.65a23.24 23.24 0 01.12-2.93h-2.28c.12 1.42.17 3.07.17 4.92v1c0 2.37 0 4.17-.17 5.37h1.85c.43-.74 1.42-2.23 3-4.41s2.48-3.58 2.79-4.13h.07c-.07.82-.09 2.23-.09 4.25v1.34a19.4 19.4 0 01-.17 3zm12.49 0c-.07-1.1-.12-2.92-.12-5.47v-.89c0-2.32 0-4 .12-4.94h-7.65a12.46 12.46 0 01.19 2.38v.64c0 4.83-.81 6.84-2.52 6.58a3 3 0 000 1.92c3.08.46 4.29-2.45 4.29-8.33v-1.75h3.56v5a43.25 43.25 0 01-.19 4.89zm12.85 0c-.07-1.29-.12-2.88-.12-4.75v-1.61c0-1.75.05-3.4.12-4.94h-1.78c-.31.6-1.3 2-2.91 4.32s-2.55 3.67-2.86 4.2H223c.09-.84.14-2.14.14-3.94v-1.65a23.24 23.24 0 01.12-2.93H221c.12 1.42.17 3.07.17 4.92v1c0 2.37-.05 4.17-.17 5.37h1.86c.43-.74 1.42-2.23 3-4.41s2.48-3.58 2.79-4.13h.07c-.07.82-.1 2.23-.1 4.25v1.34a19.61 19.61 0 01-.16 3zm3.44-9.45a5.67 5.67 0 012.84-.75c1.52 0 2.34.75 2.34 1.92a2.08 2.08 0 01-2.29 1.92 5.28 5.28 0 01-1.54-.16 1.57 1.57 0 000 1.46 5.93 5.93 0 011.66-.17c1.54 0 2.67.75 2.67 2a2 2 0 01-.91 1.77 3.91 3.91 0 01-1.81.36 5.3 5.3 0 01-3.05-.88 2.21 2.21 0 00-.65 1.32 4.1 4.1 0 001.44.64 7.18 7.18 0 002.12.32c2.91 0 5-1.25 5-3.68a2.6 2.6 0 00-2.53-2.54v-.12a2.91 2.91 0 002-2.74c0-1.63-1.25-2.85-3.63-2.85a8.44 8.44 0 00-4 .86 2.85 2.85 0 00.36 1.3m15.26-.8c2.29 0 3.39 2 3.39 4.85a5 5 0 01-1.2 3.7 3.12 3.12 0 01-1.71.55c-2.21 0-3.61-1.83-3.61-5a4.87 4.87 0 011.06-3.44 2.82 2.82 0 012.07-.67m.39-1.44a5.21 5.21 0 00-4 1.71 7 7 0 00-.15 8.66 5.39 5.39 0 007.73 0 6.39 6.39 0 001.49-4.34c-.02-3.69-1.86-6.02-5.07-6.02zm9.98 6.47a13.67 13.67 0 012-.1c1.54 0 2.74.58 2.74 2a2.19 2.19 0 01-.94 2 5.6 5.6 0 01-2.17.28 4.72 4.72 0 01-1.61-.19zm0-4.85a6.45 6.45 0 011.69-.19c1.73 0 2.6.62 2.6 1.87a2 2 0 01-1.76 1.9 12.17 12.17 0 01-2.53 0zm1.83-1.49a30.11 30.11 0 00-4 .29c.12 1.32.16 2.93.16 4.8v.94c0 2.23 0 4.1-.16 5.56a19.07 19.07 0 003.51.27c3.3 0 5.41-1.27 5.41-3.55a2.6 2.6 0 00-2.52-2.76V937a2.81 2.81 0 002.07-2.62c.01-1.92-1.49-2.86-4.47-2.86zm9.29 8.33a2.17 2.17 0 01.58-1.51 5.11 5.11 0 012.91-.58 7.87 7.87 0 011.37.19v2.36a3.43 3.43 0 01-2.86 1.58 1.93 1.93 0 01-2-2m6.9-4c0-3.15-1.17-4.35-3.65-4.35a10.92 10.92 0 00-4.72 1.25 1.55 1.55 0 00.43 1.2 7.31 7.31 0 013.45-1c1.92 0 2.45 1 2.43 3.58-4.91.07-6.93 1.08-6.93 3.74a3 3 0 003.15 3.05 4.73 4.73 0 003.82-1.9h.08a13.55 13.55 0 00.16 1.88l1.95-.2a35.68 35.68 0 01-.17-4.82zm12.93 7.22c-.1-1.6-.15-3.36-.15-5.23v-.77c0-2.42.05-4.2.15-5.3h-2.29a27.15 27.15 0 01.17 3.6v1a39.06 39.06 0 01-5.3 0v-.87a31.94 31.94 0 01.15-3.74h-2.31c.12 1.1.17 2.88.17 5.33v.69c0 2.14-.05 3.92-.17 5.28h2.31c-.1-.88-.15-2.35-.15-4.34v-.94a39.06 39.06 0 015.3 0v.94a40.58 40.58 0 01-.17 4.34zm13.01 0c-.09-1.6-.14-3.36-.14-5.23v-.77c0-2.42.05-4.2.14-5.3h-2.28a27.15 27.15 0 01.17 3.6v1a39.06 39.06 0 01-5.3 0v-.87a31.94 31.94 0 01.15-3.74h-2.31c.12 1.1.17 2.88.17 5.33v.69c0 2.14-.05 3.92-.17 5.28h2.31c-.1-.88-.15-2.35-.15-4.34v-.94a39.06 39.06 0 015.3 0v.94a40.58 40.58 0 01-.17 4.34zm13.33-5.42c0 2.09 0 3.89-.16 5.42h2.23c-.09-1-.14-2.88-.14-5.64v-1c0-2.23.05-3.77.14-4.63h-2.19c.08 1.44.12 3 .12 4.73zm-3.7 1.66a2.62 2.62 0 01-.87 2.13 3.48 3.48 0 01-1.59.41 4 4 0 01-1.63-.22 30.05 30.05 0 010-4.65c2.48-.6 4.09.31 4.09 2.33zm-6.19-7.54a44 44 0 01.17 4.8v.94c0 2.61 0 4.44-.17 5.44a18.07 18.07 0 003.28.27c3.25 0 4.83-1.63 4.83-3.91a3.33 3.33 0 00-1.66-3.17 5.81 5.81 0 00-4.28-.39v-1.29a17.16 17.16 0 01.14-2.69zm16.83 4.7a5 5 0 01.36-1.72 4 4 0 01.77-1.4 3.6 3.6 0 012-.55 2.61 2.61 0 011.85.7 2.27 2.27 0 01.75 1.8 1.24 1.24 0 01-.17.72 13.2 13.2 0 01-2.53.31c-1.37.1-2.38.14-3 .14m3.44-5a4.93 4.93 0 00-4.05 1.75 6.45 6.45 0 00-1.44 4.22c0 3.63 2 5.86 5.25 5.86a6.62 6.62 0 004.18-1.37 1.46 1.46 0 00-.38-1 5.24 5.24 0 01-3.13.87c-2.29 0-3.8-1.3-3.9-4.11l1.76-.14a35.23 35.23 0 005.8-.77 4.49 4.49 0 00.24-1.41 3.82 3.82 0 00-1.13-2.72 4.21 4.21 0 00-3.28-1.19zm21.31 11.6c-.07-1.29-.12-2.88-.12-4.75v-1.61c0-1.75 0-3.4.12-4.94H347c-.32.6-1.3 2-2.91 4.32s-2.56 3.67-2.87 4.2h-.12a36.75 36.75 0 00.15-3.94v-1.65a21.37 21.37 0 01.12-2.93h-2.29c.12 1.42.17 3.07.17 4.92v1c0 2.37-.05 4.17-.17 5.37h1.85c.44-.74 1.42-2.23 3-4.41s2.48-3.58 2.79-4.13h.08c-.08.82-.1 2.23-.1 4.25v1.34a19.4 19.4 0 01-.17 3zm3.44-9.45a5.64 5.64 0 012.84-.75c1.51 0 2.33.75 2.33 1.92a2.07 2.07 0 01-2.28 1.92 5.28 5.28 0 01-1.54-.16 1.57 1.57 0 000 1.46 5.88 5.88 0 011.66-.17c1.54 0 2.67.75 2.67 2a2 2 0 01-.92 1.77 3.86 3.86 0 01-1.8.36 5.31 5.31 0 01-3.06-.88 2.27 2.27 0 00-.65 1.32 4.08 4.08 0 001.45.64 7.16 7.16 0 002.11.32c2.91 0 5-1.25 5-3.68a2.6 2.6 0 00-2.52-2.54v-.12a2.91 2.91 0 002-2.74c0-1.63-1.25-2.85-3.63-2.85a8.41 8.41 0 00-4 .86 2.85 2.85 0 00.36 1.3m15.26-.8c2.28 0 3.39 2 3.39 4.85a5 5 0 01-1.2 3.7 3.14 3.14 0 01-1.71.55c-2.21 0-3.61-1.83-3.61-5a4.87 4.87 0 011.06-3.44 2.82 2.82 0 012.07-.67m.38-1.44a5.24 5.24 0 00-4 1.71 6.29 6.29 0 00-1.56 4.44 6.17 6.17 0 001.42 4.22 5.37 5.37 0 007.72 0 6.34 6.34 0 001.5-4.34c-.02-3.69-1.88-6.02-5.08-6.02zm9.29 5.8a5.73 5.73 0 01.46-2.72 3.29 3.29 0 012.81-1.36c1.76 0 2.82 1.72 2.82 4.6a5.39 5.39 0 01-1 3.65 2.46 2.46 0 01-1.83.67c-1.92 0-3.22-1.84-3.22-4.84m3.75-5.4a4.85 4.85 0 00-4.42 2.68h-.08a8.55 8.55 0 01.61-3.09 4.13 4.13 0 01.84-1.37 5.46 5.46 0 013.56-1.56c1.73-.17 2.77-.46 3.13-.86a3.15 3.15 0 00-.07-1.92c-.34.4-1.35.72-3 .91a6 6 0 00-4.91 2.85 12.62 12.62 0 00-1.52 6.51c0 4.77 1.93 7.44 5.2 7.44a4.57 4.57 0 003.78-1.73 7.26 7.26 0 001.37-4.58c-.05-3.34-1.81-5.28-4.53-5.28zm9.35 2.95a3.34 3.34 0 011.88-1.54 3 3 0 01.91-.09c1.76.07 2.79 1.48 2.79 4.1a5.39 5.39 0 01-1.39 4.13 4.18 4.18 0 01-2.5.66 4.34 4.34 0 01-1.66-.28zm-2.19-2.81c.12 1.37.19 3.7.19 7v1.18c0 4-.07 6.53-.19 7.63h2.33c-.09-.94-.14-2.23-.14-3.91v-.67a7.27 7.27 0 001.54.19 6.28 6.28 0 004.4-1.71 6.17 6.17 0 001.83-4.75c0-3-1.32-4.8-3.51-5.18a4.13 4.13 0 00-1.66.29 3.43 3.43 0 00-2.67 1.51v-1.87zm14.1 7.92a2.17 2.17 0 01.58-1.51 5.11 5.11 0 012.91-.58 7.87 7.87 0 011.37.19v2.36a3.43 3.43 0 01-2.86 1.58 1.93 1.93 0 01-2-2m6.9-4c0-3.15-1.17-4.35-3.65-4.35a10.92 10.92 0 00-4.72 1.25 1.55 1.55 0 00.43 1.2 7.31 7.31 0 013.45-1c1.92 0 2.45 1 2.43 3.58-4.91.07-6.93 1.08-6.93 3.74a3 3 0 003.15 3.05 4.73 4.73 0 003.82-1.9h.08a13.55 13.55 0 00.16 1.88l2-.2a35.68 35.68 0 01-.17-4.82zm14.97-4.08c-2 3.26-3.25 4.9-3.7 4.9h-.58v-1.2a32.19 32.19 0 01.17-3.7h-2.05a34.31 34.31 0 01.15 3.7v1.2h-.49c-.43 0-1.68-1.64-3.75-4.9h-2.14c.26.38.89 1.18 1.83 2.35s1.61 2 2 2.59l-1.3 1.92c-.63.94-1.2 1.78-1.73 2.52s-1 1.3-1.28 1.68a2.35 2.35 0 00.92.29 7.08 7.08 0 001 .12 9.89 9.89 0 001.37-1.92l.48-.74c.22-.36.36-.63.48-.79a15.81 15.81 0 01.9-1.35c.38-.55.74-.93.91-.93h.75v1.24q0 2.82-.15 4.32H420a41 41 0 01-.17-4.39v-1.17h.86c.2 0 .65.62 1.18 1.51.36.5.94 1.51 1.4 2.21a15 15 0 001.39 2 4.28 4.28 0 001.93-.33c-.67-.87-1.73-2.43-3-4.35l-1.18-1.82c.36-.5 1-1.37 2-2.59l1.81-2.33zm6.04 4.7a5 5 0 01.36-1.72 4.18 4.18 0 01.77-1.4 3.65 3.65 0 012-.55 2.65 2.65 0 011.86.7 2.3 2.3 0 01.74 1.8 1.17 1.17 0 01-.17.72 13 13 0 01-2.52.31c-1.37.1-2.38.14-3 .14m3.44-5a4.91 4.91 0 00-4 1.75 6.45 6.45 0 00-1.44 4.22c0 3.63 1.94 5.86 5.24 5.86a6.65 6.65 0 004.19-1.37 1.43 1.43 0 00-.39-1 5.2 5.2 0 01-3.13.87c-2.28 0-3.8-1.3-3.89-4.11l1.75-.14a35 35 0 005.8-.77 4.22 4.22 0 00.24-1.41 3.78 3.78 0 00-1.13-2.72 4.2 4.2 0 00-3.28-1.19zm16.56 11.6c-.09-1.6-.14-3.36-.14-5.23v-.77c0-2.42.05-4.2.14-5.3h-2.28a27.15 27.15 0 01.17 3.6v1a39.06 39.06 0 01-5.3 0v-.87a31.94 31.94 0 01.15-3.74h-2.31c.12 1.1.17 2.88.17 5.33v.69c0 2.14 0 3.92-.17 5.28h2.31c-.1-.88-.15-2.35-.15-4.34v-.94a39.06 39.06 0 015.3 0v.94a40.58 40.58 0 01-.17 4.34zm13.14 0c-.07-1.29-.12-2.88-.12-4.75v-1.61c0-1.75.05-3.4.12-4.94h-1.78c-.31.6-1.3 2-2.91 4.32s-2.55 3.67-2.86 4.2h-.12c.09-.84.14-2.14.14-3.94v-1.65a23.24 23.24 0 01.12-2.93h-2.28c.12 1.42.16 3.07.16 4.92v1c0 2.37 0 4.17-.16 5.37h1.85c.43-.74 1.42-2.23 3-4.41s2.48-3.58 2.79-4.13h.07c-.07.82-.1 2.23-.1 4.25v1.34a19.61 19.61 0 01-.16 3zm9.82-5.9a5.27 5.27 0 01-1 .1c-2.16 0-3.25-.75-3.25-2.26a2.27 2.27 0 01.82-1.7 3.65 3.65 0 012-.39 6.76 6.76 0 011.47.12zm2.14 5.9c-.12-1.53-.17-3.24-.17-5.08v-1.13a48.92 48.92 0 01.17-5 20.52 20.52 0 00-3.56-.29 6.27 6.27 0 00-3.46.89 2.9 2.9 0 00-1.4 2.62 3 3 0 002.62 2.88c-.17.24-.48.74-1 1.54s-.91 1.46-1.32 2.06-.75 1.08-1 1.42a5.25 5.25 0 002 .28 4.35 4.35 0 001.13-1.51c.36-.57.94-1.61 1.21-2.09q.21-.36.45-.72c.37-.5.58-.72.77-.72h1.4v4.8zm11.31 0h.6a14.74 14.74 0 01-2.48 4 1.84 1.84 0 001.54 1.1c.8-1 1.83-3.45 3.16-7.25l.89-2.56 1-3.15c.55-1.61.94-2.76 1.2-3.43h-1.95c-.26 1.25-.69 2.9-1.27 4.94a44.06 44.06 0 01-1.4 4.44h-.12c-1.83-4.89-2.88-8-3.2-9.38H482zm7.75-9.45a5.64 5.64 0 012.84-.75c1.51 0 2.33.75 2.33 1.92a2.07 2.07 0 01-2.28 1.92 5.28 5.28 0 01-1.54-.16 1.51 1.51 0 000 1.46 5.88 5.88 0 011.66-.17c1.54 0 2.67.75 2.67 2a2 2 0 01-.92 1.77 3.86 3.86 0 01-1.8.36 5.31 5.31 0 01-3.06-.88 2.27 2.27 0 00-.65 1.32 4.08 4.08 0 001.45.64 7.16 7.16 0 002.11.32c2.91 0 5-1.25 5-3.68a2.6 2.6 0 00-2.52-2.54v-.12a2.91 2.91 0 002-2.74c0-1.63-1.25-2.85-3.63-2.85a8.41 8.41 0 00-4 .86 2.85 2.85 0 00.36 1.3m20.31 9.47c-.1-1.6-.14-3.36-.14-5.23v-.77c0-2.42 0-4.2.14-5.3h-2.29a27.15 27.15 0 01.17 3.6v1a38.91 38.91 0 01-5.29 0v-.87a35.1 35.1 0 01.14-3.74h-2.31c.12 1.1.17 2.88.17 5.33v.69c0 2.14-.05 3.92-.17 5.28h2.31c-.09-.88-.14-2.35-.14-4.34v-.94a38.91 38.91 0 015.29 0v.94a40.58 40.58 0 01-.17 4.34zm4.86-3.26a2.17 2.17 0 01.58-1.51 5.11 5.11 0 012.91-.58 7.87 7.87 0 011.37.19v2.36a3.43 3.43 0 01-2.86 1.58 1.93 1.93 0 01-2-2m6.91-4c0-3.15-1.18-4.35-3.66-4.35a11 11 0 00-4.72 1.25 1.52 1.52 0 00.44 1.2 7.24 7.24 0 013.44-1c1.92 0 2.45 1 2.43 3.58-4.91.07-6.93 1.08-6.93 3.74a3 3 0 003.15 3.05 4.75 4.75 0 003.83-1.9h.07a13 13 0 00.17 1.88l2-.2a33.94 33.94 0 01-.17-4.82zm5.51 1.97a13.51 13.51 0 012-.1c1.54 0 2.74.58 2.74 2a2.19 2.19 0 01-.94 2 5.5 5.5 0 01-2.16.28 4.68 4.68 0 01-1.61-.19zm0-4.85a6.32 6.32 0 011.68-.19c1.73 0 2.6.62 2.6 1.87a2 2 0 01-1.76 1.9 12.07 12.07 0 01-2.52 0zm1.83-1.49a30.13 30.13 0 00-4 .29c.12 1.32.17 2.93.17 4.8v.94c0 2.23-.05 4.1-.17 5.56a19.14 19.14 0 003.51.27c3.3 0 5.42-1.27 5.42-3.55a2.61 2.61 0 00-2.53-2.76V937a2.81 2.81 0 002.07-2.62q0-2.85-4.47-2.86zm9.28 8.33a2.21 2.21 0 01.58-1.51 5.13 5.13 0 012.91-.58 7.75 7.75 0 011.37.19v2.36a3.42 3.42 0 01-2.86 1.58 1.93 1.93 0 01-2-2m6.91-4c0-3.15-1.18-4.35-3.66-4.35a10.88 10.88 0 00-4.71 1.25A1.52 1.52 0 00542 934a7.28 7.28 0 013.44-1c1.92 0 2.45 1 2.43 3.58-4.91.07-6.93 1.08-6.93 3.74a3 3 0 003.15 3.05 4.75 4.75 0 003.83-1.9h.08a14.76 14.76 0 00.17 1.88l2-.2a35.68 35.68 0 01-.17-4.82zm4.74.62a5 5 0 01.36-1.72 4.18 4.18 0 01.77-1.4 3.65 3.65 0 012-.55 2.65 2.65 0 011.86.7 2.3 2.3 0 01.74 1.8 1.24 1.24 0 01-.17.72 13 13 0 01-2.52.31c-1.37.1-2.39.14-3 .14m3.44-5a4.91 4.91 0 00-4 1.75 6.45 6.45 0 00-1.45 4.22c0 3.63 2 5.86 5.25 5.86a6.65 6.65 0 004.19-1.37 1.43 1.43 0 00-.39-1 5.2 5.2 0 01-3.13.87c-2.28 0-3.8-1.3-3.89-4.11l1.75-.14a35 35 0 005.8-.77 4.22 4.22 0 00.24-1.41 3.78 3.78 0 00-1.13-2.72 4.21 4.21 0 00-3.28-1.19zm8.53 11.6c-.08-2.64-.05-5.56.09-8.78h.12c.17.48.51 1.25 1 2.33l.89 1.87 1.11 2.47h1.13l.94-1.89c.89-1.9 1.61-3.46 2.12-4.73h.14v4c0 2.3.05 3.89 0 4.68h2.19c-.27-2-.43-4.87-.55-8.64l-.05-2.66H574c-.34.89-1.35 3.07-3 6.58h-.1c-.72-1.37-1.78-3.58-3.15-6.58h-2l-.19 4c-.19 3.34-.38 5.76-.55 7.27zm22.83-5.42c0 2.09 0 3.89-.17 5.42h2.24c-.1-1-.14-2.88-.14-5.64v-1c0-2.23 0-3.77.14-4.63h-2.19c.07 1.44.12 3 .12 4.73zm-3.7 1.66a2.62 2.62 0 01-.87 2.13 3.48 3.48 0 01-1.59.41 4.09 4.09 0 01-1.64-.22 30.05 30.05 0 010-4.65c2.48-.6 4.1.31 4.1 2.33zm-6.19-7.54a44 44 0 01.17 4.8v.94c0 2.61-.05 4.44-.17 5.44a18 18 0 003.27.27c3.25 0 4.84-1.63 4.84-3.91a3.33 3.33 0 00-1.66-3.17 5.82 5.82 0 00-4.28-.39v-1.29a17.16 17.16 0 01.14-2.69zm14.51 0c1.28 1.75 2.5 3.58 3.66 5.42-1 1.54-2.34 3.51-4 5.88H596c.77-1.48 1.66-3 2.69-4.63h.1l1.3 2.09c.77 1.22 1.3 2.06 1.56 2.54h2.6c-1.08-1.48-2.43-3.45-4-5.92a63.68 63.68 0 013.92-5.38H602c-.56 1-1.4 2.4-2.58 4.15h-.12a35.86 35.86 0 01-2.4-4.15zm19.37 11.3c-.12-1.17-.19-3.45-.19-6.81v-3h1.54a27.68 27.68 0 013.32.15v-1.66h-7c.12 1.27.17 2.71.17 4.32v1.08c0 2.38-.05 4.32-.17 5.88zm11.21-10.27c2.29 0 3.4 2 3.4 4.85a4.94 4.94 0 01-1.21 3.7 3.12 3.12 0 01-1.71.55c-2.21 0-3.6-1.83-3.6-5a4.91 4.91 0 011-3.44 2.83 2.83 0 012.07-.67m.39-1.44a5.23 5.23 0 00-4 1.71 6.29 6.29 0 00-1.56 4.44 6.17 6.17 0 001.42 4.22 5.37 5.37 0 007.72 0 6.34 6.34 0 001.49-4.34c.03-3.69-1.82-6.02-5.02-6.02zm10.03 3.35a3.37 3.37 0 011.89-1.54 3.08 3.08 0 01.92-.09c1.75.07 2.79 1.48 2.79 4.1a5.36 5.36 0 01-1.4 4.13 4.14 4.14 0 01-2.53.69 4.37 4.37 0 01-1.66-.28zm-2.18-2.81c.12 1.37.19 3.7.19 7v1.18c0 4-.07 6.53-.19 7.63h2.33a39 39 0 01-.15-3.91v-.67a7.35 7.35 0 001.54.19 6.31 6.31 0 004.41-1.71 6.21 6.21 0 001.83-4.75c0-3-1.33-4.8-3.52-5.18a4.16 4.16 0 00-1.66.29 3.46 3.46 0 00-2.67 1.51v-1.87zm17.2.91c2.28 0 3.39 2 3.39 4.85a5 5 0 01-1.2 3.7 3.12 3.12 0 01-1.71.55c-2.21 0-3.61-1.83-3.61-5a4.87 4.87 0 011.06-3.44 2.82 2.82 0 012.07-.67m.38-1.44a5.21 5.21 0 00-4 1.71 6.25 6.25 0 00-1.57 4.44 6.17 6.17 0 001.42 4.22 5.39 5.39 0 007.73 0 6.39 6.39 0 001.49-4.34c-.01-3.69-1.87-6.02-5.07-6.02zm10.81 1.86a8.23 8.23 0 011.66-.1 8.48 8.48 0 011.68.1v8.42h-5.1c1-1 1.73-4.17 1.76-8.42m-3 12.72v-2.86h8.25V946h1.74v-4.3h-1.52c-.07-.76-.12-2.23-.12-4.39v-.77c0-1.94.05-3.52.14-4.7h-7.38a19.89 19.89 0 01.14 2.4 18.92 18.92 0 01-.67 5c-.44 1.63-1 2.44-1.57 2.44h-.74V946zm17.07-14.47a5.26 5.26 0 00-3.89 1.65 6 6 0 00-1.59 4.3 6.26 6.26 0 001.44 4.32 5 5 0 003.85 1.61 6.42 6.42 0 003.64-1.08 1.53 1.53 0 00-.29-1 5.33 5.33 0 01-2.41.62c-2.5 0-4.11-2-4.11-5a4.45 4.45 0 011.2-3.31 2.76 2.76 0 011.88-.57 4.2 4.2 0 012.79.93 2.56 2.56 0 00.84-1.46 4.77 4.77 0 00-3.35-1m12.78.3c-.5.67-1.15 1.54-2.12 2.71s-1.8 2-2.07 2h-.5v-1.1c0-1.59 0-2.81.14-3.65h-2.31c.12 1.46.17 3.17.17 5.14v.84c0 2.13-.05 3.91-.17 5.32h2.31c-.09-.93-.14-2.47-.14-4.58v-1h.5c.27 0 .68.48 1.21 1.39.36.56 1 1.59 1.66 2.45l.31.41a10 10 0 001.4 1.61 5.07 5.07 0 002.16-.34 33.22 33.22 0 01-3.54-4.46l-1.25-1.78c.39-.38 1.18-1.22 2.36-2.54s2-2.14 2.26-2.45zm14.34 11.3c-.07-1.29-.12-2.88-.12-4.75v-1.61c0-1.75.05-3.4.12-4.94h-1.78c-.31.6-1.3 2-2.91 4.32s-2.55 3.67-2.86 4.2h-.12c.09-.84.14-2.14.14-3.94v-1.65a23.24 23.24 0 01.12-2.93h-2.28c.12 1.42.16 3.07.16 4.92v1c0 2.37 0 4.17-.16 5.37h1.85c.43-.74 1.42-2.23 3-4.41s2.48-3.58 2.79-4.13h.07c-.07.82-.1 2.23-.1 4.25v1.34a19.61 19.61 0 01-.16 3zm2.58-11.3c1.27 1.75 2.5 3.58 3.65 5.42-1 1.54-2.33 3.51-4 5.88h2.14c.77-1.48 1.66-3 2.7-4.63h.09l1.3 2.09c.77 1.22 1.3 2.06 1.57 2.54h2.59c-1.08-1.48-2.43-3.45-4-5.92a59.42 59.42 0 013.92-5.38h-2.17c-.55 1-1.39 2.4-2.57 4.15h-.12a37.51 37.51 0 01-2.41-4.15zm-517.26 29.11c2.28 0 3.39 2 3.39 4.85a5 5 0 01-1.2 3.7 3.14 3.14 0 01-1.71.55c-2.22 0-3.61-1.83-3.61-5a4.87 4.87 0 011.06-3.44 2.8 2.8 0 012.07-.67m.38-1.44a5.24 5.24 0 00-4 1.71 6.29 6.29 0 00-1.56 4.44 6.17 6.17 0 001.42 4.22 5.37 5.37 0 007.72-.05 6.34 6.34 0 001.49-4.34c-.02-3.64-1.87-5.97-5.07-5.97zm9.29 5.8a5.73 5.73 0 01.46-2.72 3.29 3.29 0 012.81-1.36c1.76 0 2.82 1.72 2.82 4.6a5.39 5.39 0 01-1 3.65 2.46 2.46 0 01-1.83.67c-1.92 0-3.22-1.84-3.22-4.84m3.75-5.4a4.85 4.85 0 00-4.42 2.68h-.08a8.55 8.55 0 01.61-3.09 4.13 4.13 0 01.84-1.37 5.46 5.46 0 013.56-1.56c1.73-.17 2.77-.46 3.13-.86a3.15 3.15 0 00-.07-1.92c-.34.4-1.35.72-3 .91a6 6 0 00-4.91 2.85 12.62 12.62 0 00-1.52 6.51c0 4.77 1.93 7.44 5.2 7.44a4.57 4.57 0 003.78-1.73 7.26 7.26 0 001.37-4.58c-.05-3.34-1.78-5.28-4.53-5.28zm9.35 2.95a3.32 3.32 0 011.87-1.54 3.08 3.08 0 01.92-.09c1.76.07 2.79 1.48 2.79 4.1a5.36 5.36 0 01-1.4 4.13 4.13 4.13 0 01-2.52.69 4.34 4.34 0 01-1.66-.28zm-2.19-2.82c.12 1.37.19 3.7.19 7v1.18c0 4-.07 6.53-.19 7.63h2.33c-.09-.94-.14-2.23-.14-3.91v-.67a7.27 7.27 0 001.54.19 6.28 6.28 0 004.4-1.71 6.17 6.17 0 001.83-4.75c0-3-1.32-4.8-3.51-5.18a4.13 4.13 0 00-1.66.29 3.43 3.43 0 00-2.67 1.51v-1.87zm14.1 7.93a2.17 2.17 0 01.58-1.51 5.11 5.11 0 012.91-.58 7.87 7.87 0 011.37.19v2.36a3.43 3.43 0 01-2.86 1.58 1.93 1.93 0 01-2-2m6.9-4c0-3.15-1.17-4.35-3.65-4.35a10.92 10.92 0 00-4.72 1.25 1.55 1.55 0 00.43 1.2 7.31 7.31 0 013.44-1c1.93 0 2.46 1 2.44 3.58-4.91.07-6.93 1.08-6.93 3.74a3 3 0 003.15 3 4.73 4.73 0 003.82-1.9h.08a13.55 13.55 0 00.16 1.88l2-.2a35.68 35.68 0 01-.17-4.82zm3.35-2.23a5.64 5.64 0 012.84-.75c1.51 0 2.33.75 2.33 1.92a2.07 2.07 0 01-2.28 1.92 5.28 5.28 0 01-1.54-.16 1.57 1.57 0 000 1.46 5.88 5.88 0 011.66-.17c1.54 0 2.67.75 2.67 2a2 2 0 01-.92 1.77 3.86 3.86 0 01-1.8.36 5.31 5.31 0 01-3.06-.88 2.27 2.27 0 00-.65 1.32 4.17 4.17 0 001.45.64 7.16 7.16 0 002.11.32c2.92 0 5-1.25 5-3.68a2.6 2.6 0 00-2.52-2.54v-.12a2.91 2.91 0 002-2.74c0-1.63-1.25-2.85-3.63-2.85a8.41 8.41 0 00-4 .86 2.85 2.85 0 00.36 1.3m15.26-.8c2.28 0 3.39 2 3.39 4.85a5 5 0 01-1.2 3.7 3.14 3.14 0 01-1.71.55c-2.21 0-3.61-1.83-3.61-5a4.87 4.87 0 011.06-3.44 2.82 2.82 0 012.07-.67m.38-1.44a5.24 5.24 0 00-4 1.71 6.29 6.29 0 00-1.56 4.44 6.17 6.17 0 001.42 4.22 5.37 5.37 0 007.72-.05 6.34 6.34 0 001.5-4.34c-.02-3.64-1.88-5.97-5.08-5.97zm9.99 6.47a13.51 13.51 0 012-.1c1.54 0 2.75.58 2.75 2a2.21 2.21 0 01-.94 2 5.6 5.6 0 01-2.17.28 4.72 4.72 0 01-1.61-.19zm0-4.85a6.37 6.37 0 011.68-.19c1.74 0 2.6.62 2.6 1.87a2 2 0 01-1.75 1.9 12.17 12.17 0 01-2.53 0zm1.83-1.49a30.25 30.25 0 00-4 .29c.12 1.32.17 2.93.17 4.8v.94c0 2.23-.05 4.1-.17 5.56a19.19 19.19 0 003.52.27c3.29 0 5.41-1.27 5.41-3.55a2.6 2.6 0 00-2.53-2.76V965a2.79 2.79 0 002.07-2.62q0-2.77-4.47-2.78zm14.72 6.34a13.51 13.51 0 012-.1c1.54 0 2.75.58 2.75 2a2.21 2.21 0 01-.94 2 5.6 5.6 0 01-2.17.28 4.72 4.72 0 01-1.61-.19zm0-4.85a6.37 6.37 0 011.68-.19c1.74 0 2.6.62 2.6 1.87a2 2 0 01-1.75 1.9 12.17 12.17 0 01-2.53 0zm1.83-1.49a30.25 30.25 0 00-4 .29c.12 1.32.17 2.93.17 4.8v.94c0 2.23-.05 4.1-.17 5.56a19.19 19.19 0 003.52.27c3.29 0 5.41-1.27 5.41-3.55a2.6 2.6 0 00-2.53-2.76V965a2.79 2.79 0 002.07-2.62q-.02-2.77-4.49-2.78zm14.68 6.34a13.51 13.51 0 012-.1c1.54 0 2.75.58 2.75 2a2.21 2.21 0 01-.94 2 5.6 5.6 0 01-2.17.28 4.72 4.72 0 01-1.61-.19zm0-4.85a6.37 6.37 0 011.68-.19c1.74 0 2.6.62 2.6 1.87a2 2 0 01-1.75 1.9 12.17 12.17 0 01-2.53 0zm1.83-1.49a30.25 30.25 0 00-4 .29c.12 1.32.17 2.93.17 4.8v.94c0 2.23-.05 4.1-.17 5.56a19.19 19.19 0 003.52.27c3.29 0 5.41-1.27 5.41-3.55a2.6 2.6 0 00-2.52-2.76V965a2.8 2.8 0 002.06-2.62q0-2.77-4.47-2.78zm17.56 11.59c-.07-1.29-.12-2.88-.12-4.75v-1.61c0-1.75.05-3.4.12-4.94h-1.78c-.31.6-1.3 2-2.91 4.32s-2.55 3.67-2.86 4.2h-.12c.09-.84.14-2.14.14-3.94v-1.65a23.24 23.24 0 01.12-2.93h-2.28c.12 1.42.17 3.07.17 4.92v1c0 2.37-.05 4.17-.17 5.37h1.85c.43-.74 1.42-2.23 3-4.41s2.48-3.58 2.79-4.13h.07c-.07.82-.09 2.23-.09 4.25v1.34a19.4 19.4 0 01-.17 3zm6.43-9.86a8.23 8.23 0 011.66-.1 8.48 8.48 0 011.68.1v8.42h-5.1c1-1 1.73-4.17 1.76-8.42m-3 12.72v-2.86h8.25v2.86h1.74v-4.3h-1.52c-.07-.76-.12-2.23-.12-4.39v-.77c0-1.94.05-3.52.14-4.7h-7.38a19.89 19.89 0 01.14 2.4 18.52 18.52 0 01-.67 5c-.43 1.63-1 2.44-1.57 2.44h-.74v4.3zm13.67-9.46a5 5 0 01.36-1.72 4.37 4.37 0 01.77-1.4 3.66 3.66 0 012-.55 2.63 2.63 0 011.85.7 2.27 2.27 0 01.75 1.8 1.24 1.24 0 01-.17.72 13.2 13.2 0 01-2.53.31c-1.37.1-2.38.14-3 .14m3.44-5a4.91 4.91 0 00-4 1.75 6.45 6.45 0 00-1.44 4.22c0 3.63 1.95 5.86 5.24 5.86a6.63 6.63 0 004.19-1.37 1.46 1.46 0 00-.38-1 5.24 5.24 0 01-3.13.87c-2.29 0-3.8-1.3-3.9-4.11l1.76-.14a35.23 35.23 0 005.8-.77 4.49 4.49 0 00.24-1.41 3.82 3.82 0 00-1.13-2.72 4.22 4.22 0 00-3.32-1.19zm21.33 11.6c-.08-1.29-.12-2.88-.12-4.75v-1.61c0-1.75 0-3.4.12-4.94H351c-.32.6-1.3 2-2.92 4.32s-2.55 3.67-2.86 4.2h-.12a37.41 37.41 0 00.14-3.94v-1.65a23.24 23.24 0 01.12-2.93h-2.26c.12 1.42.17 3.07.17 4.92v1c0 2.37 0 4.17-.17 5.37h1.9c.43-.74 1.42-2.23 3-4.41s2.48-3.58 2.79-4.13h.07c-.07.82-.09 2.23-.09 4.25v1.34a19.4 19.4 0 01-.17 3zm10.29-11.3c-.5.67-1.15 1.54-2.11 2.71s-1.81 2-2.07 2h-.51v-1.1a33.26 33.26 0 01.15-3.65h-2.31c.12 1.46.17 3.17.17 5.14v.84c0 2.13-.05 3.91-.17 5.32h2.31c-.1-.93-.15-2.47-.15-4.58v-1h.51c.26 0 .67.48 1.2 1.39.36.56 1 1.59 1.66 2.45l.31.41a10 10 0 001.4 1.61 5.07 5.07 0 002.16-.34 33.35 33.35 0 01-3.53-4.46l-1.25-1.78c.38-.38 1.18-1.22 2.35-2.54s2-2.14 2.27-2.45zm9.17 1.03c2.29 0 3.39 2 3.39 4.85a4.94 4.94 0 01-1.2 3.7 3.12 3.12 0 01-1.71.55c-2.21 0-3.61-1.83-3.61-5a4.87 4.87 0 011.06-3.44 2.82 2.82 0 012.07-.67m.39-1.44a5.21 5.21 0 00-4 1.71 7 7 0 00-.15 8.66 5.39 5.39 0 007.73-.05 6.39 6.39 0 001.49-4.34c-.02-3.64-1.87-5.97-5.07-5.97zM390 971.19c-.09-1.6-.14-3.36-.14-5.23v-.77c0-2.42.05-4.2.14-5.3h-2.28a27.15 27.15 0 01.17 3.6v1a39.06 39.06 0 01-5.3 0v-.87a31.94 31.94 0 01.15-3.74h-2.31c.12 1.1.17 2.88.17 5.33v.69c0 2.14-.05 3.92-.17 5.28h2.31c-.1-.88-.15-2.35-.15-4.34v-.94a39.06 39.06 0 015.3 0v.94a40.58 40.58 0 01-.17 4.34zm8-10.27c2.28 0 3.39 2 3.39 4.85a5 5 0 01-1.2 3.7 3.14 3.14 0 01-1.71.55c-2.21 0-3.61-1.83-3.61-5a4.87 4.87 0 011.06-3.44 2.82 2.82 0 012.07-.67m.38-1.44a5.21 5.21 0 00-4 1.71 6.25 6.25 0 00-1.57 4.44 6.17 6.17 0 001.42 4.22 5.37 5.37 0 007.72-.05 6.34 6.34 0 001.5-4.34c0-3.64-1.86-5.97-5.06-5.97zm14.69.42c-.5.67-1.15 1.54-2.12 2.71s-1.8 2-2.07 2h-.5v-1.1c0-1.59.05-2.81.14-3.65h-2.31c.12 1.46.17 3.17.17 5.14v.84c0 2.13-.05 3.91-.17 5.32h2.31c-.09-.93-.14-2.47-.14-4.58v-1h.5c.27 0 .68.48 1.21 1.39.36.56 1 1.59 1.66 2.45l.31.41a10 10 0 001.4 1.61 5.07 5.07 0 002.16-.34 33.22 33.22 0 01-3.54-4.46l-1.25-1.78c.39-.38 1.18-1.22 2.36-2.54s1.95-2.14 2.26-2.45zm4.24 10.11a1.29 1.29 0 001.34 1.32 1.34 1.34 0 001.45-1.32 1.4 1.4 0 00-1.45-1.34 1.34 1.34 0 00-1.34 1.34m12.15-5.5c3.49-.51 5.22.33 5.22 2.47a3 3 0 01-1.11 2.66 5.16 5.16 0 01-2.36.48 6.17 6.17 0 01-1.75-.19zm0-6.63a5.64 5.64 0 011.59-.14c1.9 0 3.22.86 3.22 2.66a2.66 2.66 0 01-1.92 2.64 8.17 8.17 0 01-2.89.08zm1.66-1.46c-.44 0-1.16.05-2.14.14s-1.57.12-1.74.12c.12 2.36.17 4.56.17 6.6v1.32c0 3-.05 5.21-.17 6.56a25.69 25.69 0 003.73.31c3.49 0 5.85-1.44 5.85-4.42a3.26 3.26 0 00-3-3.33v-.12a3.36 3.36 0 002.53-3.34c-.01-2.59-1.67-3.84-5.23-3.84zm13.45 3.17a5.27 5.27 0 00-3.9 1.65 6 6 0 00-1.59 4.3 6.22 6.22 0 001.45 4.32 4.94 4.94 0 003.85 1.61 6.36 6.36 0 003.63-1.08 1.48 1.48 0 00-.29-1 5.3 5.3 0 01-2.41.62c-2.5 0-4.11-2-4.11-5a4.49 4.49 0 011.2-3.31 2.78 2.78 0 011.88-.57 4.2 4.2 0 012.79.93 2.51 2.51 0 00.84-1.46 4.76 4.76 0 00-3.34-1m7.31 5a5 5 0 01.36-1.72 4.18 4.18 0 01.77-1.4 3.66 3.66 0 012-.55 2.64 2.64 0 011.85.7 2.27 2.27 0 01.75 1.8 1.24 1.24 0 01-.17.72 13.34 13.34 0 01-2.53.31c-1.37.1-2.38.14-3 .14m3.44-5a4.91 4.91 0 00-4 1.75 6.45 6.45 0 00-1.44 4.22c0 3.63 2 5.86 5.24 5.86a6.63 6.63 0 004.19-1.37 1.46 1.46 0 00-.38-1 5.24 5.24 0 01-3.13.87c-2.29 0-3.8-1.3-3.9-4.11l1.76-.14a35 35 0 005.79-.77 4.24 4.24 0 00.25-1.41 3.79 3.79 0 00-1.14-2.72 4.18 4.18 0 00-3.27-1.19zm21.36 11.6c-.07-1.29-.12-2.88-.12-4.75v-1.61c0-1.75.05-3.4.12-4.94h-1.78c-.31.6-1.29 2-2.91 4.32s-2.55 3.67-2.86 4.2H469a37.41 37.41 0 00.14-3.94v-1.65a23.24 23.24 0 01.12-2.93H467c.12 1.42.17 3.07.17 4.92v1c0 2.37-.05 4.17-.17 5.37h1.85c.43-.74 1.42-2.23 3-4.41s2.48-3.58 2.79-4.13h.07c-.07.82-.09 2.23-.09 4.25v1.34a19.4 19.4 0 01-.17 3zm10.29-11.3c-.5.67-1.15 1.54-2.11 2.71s-1.81 2-2.07 2h-.51v-1.1a33.26 33.26 0 01.15-3.65h-2.31c.12 1.46.16 3.17.16 5.14v.84c0 2.13 0 3.91-.16 5.32h2.31c-.1-.93-.15-2.47-.15-4.58v-1h.51c.26 0 .67.48 1.2 1.39.36.56 1 1.59 1.66 2.45l.31.41a10 10 0 001.4 1.61 5.07 5.07 0 002.16-.34 33.35 33.35 0 01-3.53-4.46l-1.25-1.78c.38-.38 1.17-1.22 2.35-2.54s1.95-2.14 2.27-2.45zm9.18 1.03c2.29 0 3.39 2 3.39 4.85a5 5 0 01-1.2 3.7 3.12 3.12 0 01-1.71.55c-2.21 0-3.61-1.83-3.61-5a4.87 4.87 0 011.06-3.44 2.82 2.82 0 012.07-.67m.39-1.44a5.21 5.21 0 00-4 1.71 6.25 6.25 0 00-1.57 4.44 6.17 6.17 0 001.42 4.22 5.39 5.39 0 007.73-.05 6.39 6.39 0 001.49-4.34c-.02-3.64-1.87-5.97-5.07-5.97zM514 971.19c-.09-1.6-.14-3.36-.14-5.23v-.77c0-2.42 0-4.2.14-5.3h-2.28a27.15 27.15 0 01.17 3.6v1a39.06 39.06 0 01-5.3 0v-.87a31.94 31.94 0 01.15-3.74h-2.31c.12 1.1.16 2.88.16 5.33v.69c0 2.14 0 3.92-.16 5.28h2.31c-.1-.88-.15-2.35-.15-4.34v-.94a39.06 39.06 0 015.3 0v.94a40.58 40.58 0 01-.17 4.34zm10.26-11.3c-.5.67-1.15 1.54-2.12 2.71s-1.8 2-2.07 2h-.5v-1.1c0-1.59 0-2.81.14-3.65h-2.31c.12 1.46.17 3.17.17 5.14v.84c0 2.13-.05 3.91-.17 5.32h2.31c-.09-.93-.14-2.47-.14-4.58v-1h.5c.27 0 .68.48 1.21 1.39.36.56 1 1.59 1.66 2.45l.31.41a10 10 0 001.4 1.61 5.07 5.07 0 002.16-.34 32.54 32.54 0 01-3.53-4.46l-1.28-1.75c.39-.38 1.18-1.22 2.36-2.54s2-2.14 2.26-2.45zm14.34 11.3c-.07-1.29-.12-2.88-.12-4.75v-1.61c0-1.75 0-3.4.12-4.94h-1.78c-.31.6-1.3 2-2.91 4.32s-2.55 3.67-2.86 4.2h-.12c.09-.84.14-2.14.14-3.94v-1.65a23.24 23.24 0 01.12-2.93h-2.28c.12 1.42.16 3.07.16 4.92v1c0 2.37 0 4.17-.16 5.37h1.85c.43-.74 1.42-2.23 3-4.41s2.48-3.58 2.79-4.13h.07c-.07.82-.1 2.23-.1 4.25v1.34a19.61 19.61 0 01-.16 3zm8.11-9.45a5.64 5.64 0 012.84-.75c1.52 0 2.33.75 2.33 1.92a2.07 2.07 0 01-2.28 1.92 5.28 5.28 0 01-1.54-.16 1.57 1.57 0 000 1.46 5.93 5.93 0 011.66-.17c1.54 0 2.67.75 2.67 2a2 2 0 01-.91 1.77 3.91 3.91 0 01-1.81.36 5.3 5.3 0 01-3-.88 2.21 2.21 0 00-.65 1.32 4.1 4.1 0 001.44.64 7.18 7.18 0 002.12.32c2.91 0 5-1.25 5-3.68a2.6 2.6 0 00-2.53-2.54v-.12a2.91 2.91 0 002-2.74c0-1.63-1.25-2.85-3.63-2.85a8.44 8.44 0 00-4 .86 2.85 2.85 0 00.36 1.3m12.11 6.21a2.2 2.2 0 01.57-1.51 5.17 5.17 0 012.92-.58 7.87 7.87 0 011.37.19v2.36a3.45 3.45 0 01-2.87 1.58 1.92 1.92 0 01-2-2m6.9-4c0-3.15-1.18-4.35-3.66-4.35a10.91 10.91 0 00-4.71 1.25 1.52 1.52 0 00.43 1.2 7.28 7.28 0 013.44-1c1.93 0 2.46 1 2.43 3.58-4.91.07-6.93 1.08-6.93 3.74a3 3 0 003.16 3 4.75 4.75 0 003.82-1.9h.07a14.76 14.76 0 00.17 1.88l2-.2a35.68 35.68 0 01-.17-4.82zm10.22-4.08c-.5.67-1.15 1.54-2.11 2.71s-1.81 2-2.07 2h-.51v-1.1a33.26 33.26 0 01.15-3.65h-2.31c.12 1.46.17 3.17.17 5.14v.84c0 2.13 0 3.91-.17 5.32h2.31c-.1-.93-.15-2.47-.15-4.58v-1h.51c.26 0 .67.48 1.2 1.39.36.56 1 1.59 1.66 2.45l.31.41a10 10 0 001.4 1.61 5.07 5.07 0 002.16-.34 33.35 33.35 0 01-3.53-4.46l-1.25-1.78c.38-.38 1.18-1.22 2.35-2.54s1.95-2.14 2.27-2.45zm9.16 1.03c2.29 0 3.39 2 3.39 4.85a4.94 4.94 0 01-1.2 3.7 3.12 3.12 0 01-1.71.55c-2.21 0-3.61-1.83-3.61-5a4.91 4.91 0 011.06-3.44 2.82 2.82 0 012.07-.67m.39-1.44a5.21 5.21 0 00-4 1.71 7 7 0 00-.15 8.66 5.39 5.39 0 007.73-.05 6.39 6.39 0 001.49-4.34c-.02-3.64-1.87-5.97-5.07-5.97zm9.36 11.72c-.07-2.64 0-5.56.09-8.78h.12c.17.48.51 1.25 1 2.33l.89 1.87 1.11 2.47h1.13l.94-1.89c.89-1.9 1.61-3.46 2.12-4.73h.14v8.68h2.19c-.26-2-.43-4.87-.55-8.64v-2.66h-2c-.34.89-1.35 3.07-3 6.58H599c-.72-1.37-1.78-3.58-3.15-6.58h-2l-.19 4c-.19 3.34-.38 5.76-.55 7.27zm22.38 0q-.15-2-.15-5.49v-.89c0-.72.05-2.35.15-4.92h-9.44c.12 1.78.17 3.41.17 4.9v1c0 1.61 0 3.38-.17 5.37h2.31c-.09-1.41-.14-3.57-.14-6.52v-3.34a20.82 20.82 0 012.55-.1 22.15 22.15 0 012.6.1v3.26c0 3-.07 5.19-.19 6.6zm4.83-3.26a2.17 2.17 0 01.58-1.51 5.11 5.11 0 012.91-.58 7.87 7.87 0 011.39.16v2.36a3.43 3.43 0 01-2.86 1.58 1.93 1.93 0 01-2-2m6.91-4c0-3.15-1.18-4.35-3.66-4.35a11 11 0 00-4.72 1.25 1.52 1.52 0 00.44 1.2 7.24 7.24 0 013.44-1c1.92 0 2.45 1 2.43 3.58-4.91.07-6.93 1.08-6.93 3.74a3 3 0 003.15 3 4.75 4.75 0 003.83-1.9h.07a13 13 0 00.17 1.88l2-.2a35.68 35.68 0 01-.17-4.82zm12.95 7.25c-.1-1.6-.15-3.36-.15-5.23v-.77c0-2.42.05-4.2.15-5.3h-2.29a27.15 27.15 0 01.17 3.6v1a38.91 38.91 0 01-5.29 0v-.87a35.1 35.1 0 01.14-3.74h-2.31c.12 1.1.17 2.88.17 5.33v.69c0 2.14 0 3.92-.17 5.28h2.31c-.09-.88-.14-2.35-.14-4.34v-.94a38.91 38.91 0 015.29 0v.94a40.58 40.58 0 01-.17 4.34zm7.91-10.27c2.29 0 3.4 2 3.4 4.85a4.94 4.94 0 01-1.21 3.7 3.12 3.12 0 01-1.71.55c-2.21 0-3.61-1.83-3.61-5a4.91 4.91 0 011.06-3.44 2.82 2.82 0 012.07-.67m.39-1.44a5.21 5.21 0 00-4 1.71 6.25 6.25 0 00-1.56 4.44 6.17 6.17 0 001.42 4.22 5.37 5.37 0 007.72-.05 6.34 6.34 0 001.49-4.34c-.02-3.64-1.87-5.97-5.07-5.97zm9.98 6.47a13.76 13.76 0 012-.1c1.54 0 2.74.58 2.74 2a2.19 2.19 0 01-.94 2 5.54 5.54 0 01-2.16.28 4.75 4.75 0 01-1.62-.19zm0-4.85a6.45 6.45 0 011.69-.19c1.73 0 2.6.62 2.6 1.87a2 2 0 01-1.76 1.9 12.17 12.17 0 01-2.53 0zm1.83-1.49a30.11 30.11 0 00-4 .29c.12 1.32.17 2.93.17 4.8v.94c0 2.23 0 4.1-.17 5.56a19.07 19.07 0 003.51.27c3.3 0 5.42-1.27 5.42-3.55a2.61 2.61 0 00-2.53-2.76V965a2.81 2.81 0 002.07-2.62q.01-2.77-4.47-2.78zm17.76 6.17c0 2.09 0 3.89-.17 5.42h2.24c-.1-1-.14-2.88-.14-5.64v-1c0-2.23 0-3.77.14-4.63h-2.19c.07 1.44.12 3 .12 4.73zm-3.71 1.66a2.61 2.61 0 01-.86 2.13 3.48 3.48 0 01-1.59.41 4.09 4.09 0 01-1.64-.22 30.05 30.05 0 010-4.65c2.48-.6 4.09.31 4.09 2.33zm-6.16-7.54a44 44 0 01.17 4.8v.94c0 2.61 0 4.44-.17 5.44a18 18 0 003.27.27c3.25 0 4.84-1.63 4.84-3.91a3.33 3.33 0 00-1.66-3.17 5.82 5.82 0 00-4.28-.39v-1.29a16 16 0 01.14-2.69zm17.52 6.05a13.51 13.51 0 012-.1c1.54 0 2.75.58 2.75 2a2.19 2.19 0 01-.94 2 5.6 5.6 0 01-2.17.28 4.72 4.72 0 01-1.61-.19zm0-4.85a6.4 6.4 0 011.69-.19c1.73 0 2.59.62 2.59 1.87a2 2 0 01-1.75 1.9 12.17 12.17 0 01-2.53 0zm1.83-1.49a30.11 30.11 0 00-4 .29c.12 1.32.16 2.93.16 4.8v.94c0 2.23 0 4.1-.16 5.56a19.07 19.07 0 003.51.27c3.3 0 5.41-1.27 5.41-3.55a2.6 2.6 0 00-2.52-2.76V965a2.81 2.81 0 002.07-2.62c.01-1.84-1.49-2.78-4.47-2.78zm9.29 8.33a2.17 2.17 0 01.58-1.51 5.11 5.11 0 012.91-.58 7.87 7.87 0 011.37.19v2.36a3.44 3.44 0 01-2.86 1.58 1.93 1.93 0 01-2-2m6.9-4c0-3.15-1.17-4.35-3.65-4.35a10.92 10.92 0 00-4.72 1.25 1.55 1.55 0 00.43 1.2 7.31 7.31 0 013.44-1c1.93 0 2.46 1 2.44 3.58-4.91.07-6.93 1.08-6.93 3.74a3 3 0 003.15 3 4.73 4.73 0 003.82-1.9h.08a13.55 13.55 0 00.16 1.88l2-.2a35.68 35.68 0 01-.17-4.82zm17.33 1.25c0-3.58-1.88-5.74-4.74-5.74a4.75 4.75 0 00-3.54 1.44 5.75 5.75 0 00-1.56 3.67 8.35 8.35 0 01-1 0 6.37 6.37 0 01-.94 0v-1.05a31 31 0 01.15-3.65h-2.31a49.05 49.05 0 01.17 5.14v.57c0 1.78 0 3.65-.17 5.59h2.31a35.52 35.52 0 01-.15-4.12v-1.18a3.6 3.6 0 011-.07 3.7 3.7 0 011 .07 6.52 6.52 0 001.4 4 4.37 4.37 0 003.49 1.54 4.41 4.41 0 003.61-1.68 7 7 0 001.37-4.56m-5.34-4.39c2.19 0 3.22 1.92 3.22 4.8 0 2-.38 3.38-1.13 4a2.74 2.74 0 01-1.56.45c-1.95 0-3.18-1.82-3.18-4.87a5.85 5.85 0 011-3.79 2.34 2.34 0 011.56-.56zm6.67.75a18.76 18.76 0 012.79-.15h1v2.69a70.8 70.8 0 01-.21 7.1h2.43c-.12-1.17-.2-3.52-.2-7v-2.79h1a16.23 16.23 0 012.76.15v-1.66h-9.5zm16.41-1.97a5.27 5.27 0 00-3.9 1.65 6 6 0 00-1.59 4.3 6.22 6.22 0 001.45 4.32 4.94 4.94 0 003.85 1.61 6.36 6.36 0 003.63-1.08 1.48 1.48 0 00-.29-1 5.3 5.3 0 01-2.41.62c-2.5 0-4.11-2-4.11-5a4.49 4.49 0 011.2-3.31 2.78 2.78 0 011.88-.57 4.2 4.2 0 012.79.93 2.51 2.51 0 00.84-1.46 4.76 4.76 0 00-3.34-1m12.3 5.7a5.17 5.17 0 01-1 .1c-2.17 0-3.25-.75-3.25-2.26a2.23 2.23 0 01.82-1.7 3.65 3.65 0 011.95-.39 6.65 6.65 0 011.46.12zm2.15 5.9c-.12-1.53-.17-3.24-.17-5.08V965a48.92 48.92 0 01.17-5 20.73 20.73 0 00-3.57-.29 6.29 6.29 0 00-3.46.89 2.9 2.9 0 00-1.4 2.62 3 3 0 002.63 2.88c-.17.24-.48.74-1 1.54s-.92 1.46-1.33 2.06a15.91 15.91 0 01-1 1.42 5.27 5.27 0 002 .28 4.62 4.62 0 001.13-1.51c.36-.57.94-1.61 1.2-2.09.15-.24.29-.48.46-.72.36-.5.58-.72.77-.72H753v4.8zM185.47 994a13.51 13.51 0 012-.1c1.54 0 2.75.58 2.75 2a2.21 2.21 0 01-.94 2 5.6 5.6 0 01-2.17.28 4.72 4.72 0 01-1.61-.19zm0-4.85a6.37 6.37 0 011.68-.19c1.74 0 2.6.62 2.6 1.87a2 2 0 01-1.75 1.9 12.17 12.17 0 01-2.53 0zm1.83-1.49a30.25 30.25 0 00-4 .29c.12 1.32.17 2.93.17 4.8v.94c0 2.23-.05 4.1-.17 5.56a19.19 19.19 0 003.52.27c3.29 0 5.41-1.27 5.41-3.55a2.6 2.6 0 00-2.53-2.76v-.12a2.79 2.79 0 002.07-2.62q0-2.78-4.47-2.79zm19.39.34c-.5.67-1.15 1.54-2.12 2.71s-1.8 2-2.07 2h-.5v-1.1c0-1.59.05-2.81.14-3.65h-2.31c.12 1.46.17 3.17.17 5.14v.9c0 2.13-.05 3.91-.17 5.32h2.31c-.09-.93-.14-2.47-.14-4.58v-1h.5c.27 0 .68.48 1.21 1.39.36.56 1 1.59 1.66 2.45l.31.41a10 10 0 001.4 1.61 5.07 5.07 0 002.16-.34 32.54 32.54 0 01-3.53-4.46l-1.26-1.8c.39-.38 1.18-1.22 2.36-2.54s1.95-2.14 2.26-2.45zm6.81 6a13.51 13.51 0 012-.1c1.54 0 2.75.58 2.75 2a2.21 2.21 0 01-.94 2 5.6 5.6 0 01-2.17.28 4.72 4.72 0 01-1.61-.19zm0-4.85a6.4 6.4 0 011.69-.19c1.73 0 2.59.62 2.59 1.87a2 2 0 01-1.75 1.9 12.17 12.17 0 01-2.53 0zm1.83-1.49a30.11 30.11 0 00-4 .29c.12 1.32.16 2.93.16 4.8v.94c0 2.23 0 4.1-.16 5.56a19.07 19.07 0 003.51.27c3.3 0 5.41-1.27 5.41-3.55a2.6 2.6 0 00-2.52-2.76v-.12a2.81 2.81 0 002.07-2.62c.01-1.85-1.49-2.79-4.47-2.79zm9.29 8.34a2.17 2.17 0 01.58-1.51 5.11 5.11 0 012.91-.58 7.87 7.87 0 011.37.19v2.36a3.44 3.44 0 01-2.86 1.58 1.93 1.93 0 01-2-2m6.9-4c0-3.15-1.18-4.35-3.65-4.35a10.92 10.92 0 00-4.72 1.25 1.52 1.52 0 00.43 1.2 7.31 7.31 0 013.44-1c1.93 0 2.46 1 2.43 3.58-4.9.07-6.93 1.08-6.93 3.74a3 3 0 003.16 3 4.73 4.73 0 003.82-1.9h.07a14.76 14.76 0 00.17 1.88l1.95-.2a35.68 35.68 0 01-.17-4.82zm6.33-2.63a8.3 8.3 0 011.66-.1 8.67 8.67 0 011.69.1v8.42h-5.1c1-1.05 1.73-4.17 1.75-8.42m-3 12.72v-2.86h8.26v2.86h1.73v-4.3h-1.52c-.07-.76-.12-2.23-.12-4.39v-.77c0-1.94.05-3.52.15-4.7H236a18 18 0 01.15 2.4 18.53 18.53 0 01-.68 5c-.43 1.63-1 2.44-1.56 2.44h-.75v4.3zm14.41-11.23a3.32 3.32 0 011.87-1.54 3.08 3.08 0 01.92-.09c1.75.07 2.79 1.48 2.79 4.1a5.36 5.36 0 01-1.4 4.13 4.13 4.13 0 01-2.52.69 4.3 4.3 0 01-1.66-.28zm-2.19-2.81c.12 1.37.19 3.7.19 7v1.18c0 4-.07 6.53-.19 7.63h2.33c-.09-.94-.14-2.23-.14-3.91v-.67a7.27 7.27 0 001.54.19 6.28 6.28 0 004.4-1.71 6.17 6.17 0 001.83-4.75c0-3-1.32-4.8-3.51-5.18a4.13 4.13 0 00-1.66.29 3.47 3.47 0 00-2.68 1.51v-1.87zm14.1 7.91a2.17 2.17 0 01.58-1.51 5.11 5.11 0 012.91-.58 7.87 7.87 0 011.37.19v2.36a3.44 3.44 0 01-2.86 1.58 1.93 1.93 0 01-2-2m6.9-4c0-3.15-1.18-4.35-3.65-4.35a10.92 10.92 0 00-4.72 1.25 1.52 1.52 0 00.43 1.2 7.31 7.31 0 013.44-1c1.93 0 2.46 1 2.43 3.58-4.9.07-6.93 1.08-6.93 3.74a3 3 0 003.16 3 4.75 4.75 0 003.82-1.9h.07a14.76 14.76 0 00.17 1.88l1.95-.2a35.68 35.68 0 01-.17-4.82zm2-2.41a18.76 18.76 0 012.79-.15h1v2.69a70.8 70.8 0 01-.21 7.1H276c-.12-1.17-.19-3.52-.19-7v-2.76h1a16.46 16.46 0 012.77.15V988h-9.51zm25.93 9.64c-.07-1.29-.12-2.88-.12-4.75v-1.61c0-1.75.05-3.4.12-4.94h-1.78c-.31.6-1.3 2-2.91 4.32s-2.55 3.67-2.87 4.2h-.12a36.75 36.75 0 00.15-3.94v-1.65a23.24 23.24 0 01.12-2.93h-2.29c.12 1.42.17 3.07.17 4.92v1c0 2.37-.05 4.17-.17 5.37h1.86c.43-.74 1.41-2.23 2.95-4.41s2.48-3.58 2.8-4.13h.09c-.07.82-.1 2.23-.1 4.25v1.34a19.4 19.4 0 01-.17 2.95zm10.28-5.27a13.76 13.76 0 012-.1c1.54 0 2.74.58 2.74 2a2.19 2.19 0 01-.94 2 5.54 5.54 0 01-2.16.28 4.75 4.75 0 01-1.62-.19zm0-4.85A6.45 6.45 0 01308 989c1.73 0 2.6.62 2.6 1.87a2 2 0 01-1.76 1.9 12.17 12.17 0 01-2.53 0zm1.83-1.49a30.11 30.11 0 00-4 .29c.12 1.32.17 2.93.17 4.8v.94c0 2.23-.05 4.1-.17 5.56a19.07 19.07 0 003.51.27c3.3 0 5.42-1.27 5.42-3.55a2.61 2.61 0 00-2.53-2.76v-.12a2.81 2.81 0 002.07-2.62q.01-2.78-4.47-2.79zm17.76 6.19c0 2.09-.05 3.89-.17 5.42h2.24c-.1-1-.14-2.88-.14-5.64v-1c0-2.23 0-3.77.14-4.63h-2.19c.07 1.44.12 3 .12 4.73zm-3.71 1.66a2.61 2.61 0 01-.86 2.13 3.48 3.48 0 01-1.59.41 4.09 4.09 0 01-1.64-.22 30.05 30.05 0 010-4.65c2.48-.6 4.09.31 4.09 2.33zM316 988a44 44 0 01.17 4.8v.94c0 2.61 0 4.44-.17 5.44a18 18 0 003.27.27c3.25 0 4.84-1.63 4.84-3.91a3.33 3.33 0 00-1.66-3.17 5.82 5.82 0 00-4.28-.39v-1.29a16 16 0 01.14-2.69zm24.79 11.27q-.15-2-.15-5.49v-.89c0-.72.05-2.35.15-4.92h-9.43c.12 1.78.16 3.41.16 4.9v1c0 1.61 0 3.38-.16 5.37h2.31c-.1-1.41-.15-3.57-.15-6.52v-3.34a20.93 20.93 0 012.55-.1 22 22 0 012.6.1v3.26c0 3-.07 5.19-.19 6.6zm7.94-10.27c2.28 0 3.39 2 3.39 4.85a5 5 0 01-1.2 3.7 3.14 3.14 0 01-1.71.55c-2.21 0-3.61-1.83-3.61-5a4.87 4.87 0 011.06-3.44 2.82 2.82 0 012.07-.67m.38-1.44a5.21 5.21 0 00-4 1.71 6.25 6.25 0 00-1.57 4.44 6.17 6.17 0 001.42 4.22 5.37 5.37 0 007.72 0 6.34 6.34 0 001.5-4.34c-.01-3.69-1.87-6.02-5.07-6.02zM366 999.27c-.07-1.1-.12-2.92-.12-5.47v-.89c0-2.32.05-4 .12-4.94h-7.65a12.46 12.46 0 01.19 2.38v.65c0 4.83-.82 6.84-2.52 6.58a3 3 0 000 1.92c3.08.46 4.29-2.45 4.29-8.33v-1.75h3.56v5a43.25 43.25 0 01-.19 4.89zm12.71 0c-.1-1.6-.14-3.36-.14-5.23v-.77c0-2.42 0-4.2.14-5.3h-2.29a27.15 27.15 0 01.17 3.6v1a38.91 38.91 0 01-5.29 0v-.87a35.1 35.1 0 01.14-3.74h-2.31c.12 1.1.17 2.88.17 5.33v.71c0 2.14-.05 3.92-.17 5.28h2.31c-.09-.88-.14-2.35-.14-4.34V994a38.91 38.91 0 015.29 0v.94a40.58 40.58 0 01-.17 4.34zm4.84-6.6a5 5 0 01.36-1.72 4 4 0 01.77-1.4 3.62 3.62 0 012-.55 2.61 2.61 0 011.85.7 2.27 2.27 0 01.75 1.8 1.24 1.24 0 01-.17.72 13.07 13.07 0 01-2.53.31c-1.37.1-2.38.14-3 .14m3.44-5a4.91 4.91 0 00-4 1.75 6.4 6.4 0 00-1.45 4.22c0 3.63 1.95 5.86 5.25 5.86a6.6 6.6 0 004.18-1.37 1.46 1.46 0 00-.38-1 5.22 5.22 0 01-3.13.87c-2.29 0-3.8-1.3-3.9-4.11l1.76-.14a35 35 0 005.8-.77 4.22 4.22 0 00.24-1.41 3.82 3.82 0 00-1.13-2.72 4.21 4.21 0 00-3.26-1.19zm16.57 11.6c-.1-1.6-.14-3.36-.14-5.23v-.77c0-2.42 0-4.2.14-5.3h-2.29a27.15 27.15 0 01.17 3.6v1a38.91 38.91 0 01-5.29 0v-.87a35.1 35.1 0 01.14-3.74H394c.12 1.1.17 2.88.17 5.33v.71c0 2.14-.05 3.92-.17 5.28h2.31c-.09-.88-.14-2.35-.14-4.34V994a38.91 38.91 0 015.29 0v.94a40.58 40.58 0 01-.17 4.34zm13.33-5.42c0 2.09-.05 3.89-.17 5.42H419c-.1-1-.14-2.88-.14-5.64v-1c0-2.23 0-3.77.14-4.63h-2.2c.07 1.44.12 3 .12 4.73zm-3.7 1.66a2.62 2.62 0 01-.87 2.13 3.48 3.48 0 01-1.59.41 4.09 4.09 0 01-1.64-.22 30.05 30.05 0 010-4.65c2.48-.6 4.1.31 4.1 2.33zM407 988a44 44 0 01.17 4.8v.94c0 2.61-.05 4.44-.17 5.44a18 18 0 003.27.27c3.25 0 4.84-1.63 4.84-3.91a3.33 3.33 0 00-1.66-3.17 5.82 5.82 0 00-4.28-.39v-1.29a16 16 0 01.14-2.69zm22.24 6a13.51 13.51 0 012-.1c1.54 0 2.75.58 2.75 2a2.21 2.21 0 01-.94 2 5.6 5.6 0 01-2.17.28 4.72 4.72 0 01-1.61-.19zm0-4.85a6.37 6.37 0 011.68-.19c1.74 0 2.6.62 2.6 1.87a2 2 0 01-1.75 1.9 12.17 12.17 0 01-2.53 0zm1.83-1.49a30.25 30.25 0 00-4 .29c.13 1.32.17 2.93.17 4.8v.94c0 2.23 0 4.1-.17 5.56a19.19 19.19 0 003.52.27c3.29 0 5.41-1.27 5.41-3.55a2.6 2.6 0 00-2.52-2.76v-.12a2.8 2.8 0 002.06-2.62q0-2.78-4.47-2.79zm17.37 0a5.3 5.3 0 00-3.9 1.65 6 6 0 00-1.58 4.3 6.26 6.26 0 001.44 4.32 5 5 0 003.85 1.61 6.36 6.36 0 003.63-1.08 1.43 1.43 0 00-.29-1 5.26 5.26 0 01-2.4.62c-2.5 0-4.12-2-4.12-5a4.46 4.46 0 011.21-3.31 2.73 2.73 0 011.87-.57 4.18 4.18 0 012.79.93 2.58 2.58 0 00.85-1.46 4.79 4.79 0 00-3.35-1m4.56 1.96a18.76 18.76 0 012.79-.15h1v2.69a69.62 69.62 0 01-.22 7.1H459c-.12-1.17-.19-3.52-.19-7v-2.76h1a16.38 16.38 0 012.77.15V988H453zm21.28 9.64c-.07-1.29-.12-2.88-.12-4.75v-1.61c0-1.75 0-3.4.12-4.94h-1.78c-.31.6-1.3 2-2.91 4.32s-2.55 3.67-2.86 4.2h-.12c.09-.84.14-2.14.14-3.94v-1.65a23.24 23.24 0 01.12-2.93h-2.28c.12 1.42.17 3.07.17 4.92v1c0 2.37-.05 4.17-.17 5.37h1.85c.43-.74 1.42-2.23 3-4.41s2.48-3.58 2.79-4.13h.07c-.07.82-.09 2.23-.09 4.25v1.34a19.4 19.4 0 01-.17 2.95zm12.49 0c-.07-1.1-.12-2.92-.12-5.47v-.89c0-2.32.05-4 .12-4.94h-7.65a12.46 12.46 0 01.19 2.38v.65c0 4.83-.82 6.84-2.52 6.58a3 3 0 000 1.92c3.08.46 4.29-2.45 4.29-8.33v-1.75h3.56v5a43.25 43.25 0 01-.19 4.89zm4.55-6.6a5 5 0 01.36-1.72 4.18 4.18 0 01.77-1.4 3.65 3.65 0 012-.55 2.65 2.65 0 011.86.7 2.3 2.3 0 01.74 1.8 1.24 1.24 0 01-.17.72 13 13 0 01-2.52.31c-1.37.1-2.38.14-3 .14m3.44-5a4.91 4.91 0 00-4 1.75 6.45 6.45 0 00-1.45 4.22c0 3.63 2 5.86 5.25 5.86a6.65 6.65 0 004.19-1.37 1.43 1.43 0 00-.39-1 5.2 5.2 0 01-3.13.87c-2.28 0-3.8-1.3-3.89-4.11l1.75-.14a35 35 0 005.8-.77 4.22 4.22 0 00.24-1.41 3.78 3.78 0 00-1.13-2.72 4.21 4.21 0 00-3.28-1.19zm13.2 11.6c-.07-2.64 0-5.56.1-8.78h.12c.17.48.51 1.25 1 2.33l.89 1.87 1.11 2.47h1.13l.94-1.89c.89-1.9 1.61-3.46 2.12-4.73h.14c0 .36 0 1.7.05 4.05s0 3.89 0 4.68h2.19c-.27-2-.44-4.87-.56-8.64v-2.66h-2c-.34.89-1.35 3.07-3 6.58h-.1c-.72-1.37-1.78-3.58-3.15-6.58h-2l-.19 4c-.19 3.34-.39 5.76-.55 7.27zM525.46 989c2.29 0 3.4 2 3.4 4.85a4.94 4.94 0 01-1.21 3.7 3.11 3.11 0 01-1.7.55c-2.22 0-3.61-1.83-3.61-5a4.91 4.91 0 011-3.44 2.83 2.83 0 012.07-.67m.39-1.44a5.23 5.23 0 00-4 1.71 6.29 6.29 0 00-1.56 4.44 6.17 6.17 0 001.42 4.22 5.37 5.37 0 007.72 0 6.34 6.34 0 001.49-4.34c.03-3.69-1.82-6.02-5.02-6.02zm17.45 11.72c-.1-1.6-.15-3.36-.15-5.23v-.77c0-2.42 0-4.2.15-5.3H541a27.15 27.15 0 01.17 3.6v1a39.06 39.06 0 01-5.3 0v-.87a31.94 31.94 0 01.13-3.7h-2.31c.12 1.1.17 2.88.17 5.33v.67c0 2.14-.05 3.92-.17 5.28H536c-.1-.88-.15-2.35-.15-4.34V994a39.06 39.06 0 015.3 0v.94a40.58 40.58 0 01-.17 4.34zm7.96-10.27c2.29 0 3.39 2 3.39 4.85a5 5 0 01-1.2 3.7 3.12 3.12 0 01-1.71.55c-2.21 0-3.61-1.83-3.61-5a4.87 4.87 0 011.06-3.44 2.82 2.82 0 012.07-.67m.39-1.44a5.21 5.21 0 00-4 1.71 6.25 6.25 0 00-1.57 4.44 6.17 6.17 0 001.42 4.22 5.39 5.39 0 007.73 0 6.39 6.39 0 001.49-4.34c-.02-3.69-1.87-6.02-5.07-6.02zm21.46 11.72c-.1-1-.15-2.76-.15-5.37v-1c0-1.85.05-3.51.15-5h-2.17c.1 1.1.15 2.52.15 4.22v5.64l-1.93.08a15.78 15.78 0 01-1.92-.08v-5.71a39.38 39.38 0 01.17-4.15h-2.19c.07 1 .12 2.42.12 4.22v5.64l-1.93.08a15.74 15.74 0 01-1.9-.08v-5.68c0-1.68 0-3.08.15-4.18h-2.19a49 49 0 01.16 4.94v1c0 2 0 3.82-.16 5.35zm13.14 0c-.08-1.29-.12-2.88-.12-4.75v-1.61c0-1.75 0-3.4.12-4.94h-1.78c-.32.6-1.3 2-2.92 4.32s-2.55 3.67-2.86 4.2h-.12a37.41 37.41 0 00.14-3.94v-1.65a20.77 20.77 0 01.13-2.93h-2.29c.12 1.42.17 3.07.17 4.92v1c0 2.37 0 4.17-.17 5.37h1.85c.44-.74 1.42-2.23 3-4.41s2.48-3.58 2.79-4.13h.08c-.08.82-.1 2.23-.1 4.25v1.34a19.4 19.4 0 01-.17 2.95zm5.6-8.37a3.34 3.34 0 011.88-1.54 3 3 0 01.91-.09c1.76.07 2.8 1.48 2.8 4.1a5.36 5.36 0 01-1.4 4.13 4.14 4.14 0 01-2.53.69 4.34 4.34 0 01-1.66-.28zm-2.19-2.81c.12 1.37.2 3.7.2 7v1.18c0 4-.08 6.53-.2 7.63H592a39 39 0 01-.15-3.91v-.67a7.35 7.35 0 001.54.19 6.31 6.31 0 004.41-1.71 6.2 6.2 0 001.82-4.75c0-3-1.32-4.8-3.51-5.18a4.16 4.16 0 00-1.66.29 3.45 3.45 0 00-2.67 1.51v-1.87zm22.26 11.18c-.1-1.6-.14-3.36-.14-5.23v-.77c0-2.42 0-4.2.14-5.3h-2.29a25.52 25.52 0 01.17 3.6v1a38.91 38.91 0 01-5.29 0v-.87a35.1 35.1 0 01.14-3.74h-2.31c.12 1.1.17 2.88.17 5.33v.71c0 2.14-.05 3.92-.17 5.28h2.31c-.09-.88-.14-2.35-.14-4.34V994a38.91 38.91 0 015.29 0v.94a38.08 38.08 0 01-.17 4.34zm7.97-10.27c2.28 0 3.39 2 3.39 4.85a4.94 4.94 0 01-1.21 3.7 3.11 3.11 0 01-1.7.55c-2.22 0-3.61-1.83-3.61-5a4.87 4.87 0 011.06-3.44 2.8 2.8 0 012.07-.67m.38-1.44a5.23 5.23 0 00-4 1.71 6.29 6.29 0 00-1.56 4.44 6.17 6.17 0 001.42 4.22 5.37 5.37 0 007.72 0 6.34 6.34 0 001.49-4.34c-.02-3.69-1.87-6.02-5.07-6.02zm10.85-4.81a2 2 0 00-1.44.67 3.05 3.05 0 003.27 2.59 3.3 3.3 0 003.47-2.76c-.15-.22-.46-.31-.92-.29a2.09 2.09 0 01-2.16 1.8 2.17 2.17 0 01-2.22-2m6.67 16.53c-.07-1.29-.12-2.88-.12-4.75v-1.61c0-1.75 0-3.4.12-4.94H636c-.32.6-1.3 2-2.91 4.32s-2.56 3.67-2.87 4.2h-.12a36.75 36.75 0 00.15-3.94v-1.66a21.37 21.37 0 01.12-2.93H628c.12 1.42.17 3.07.17 4.92v1c0 2.37-.05 4.17-.17 5.37h1.85c.44-.74 1.42-2.23 3-4.41s2.48-3.58 2.79-4.13h.08c-.08.82-.1 2.23-.1 4.25v1.34a19.4 19.4 0 01-.17 2.95zm17.15-.01c-.07-1.1-.12-2.92-.12-5.47v-.89c0-2.32.05-4 .12-4.94h-7.65a12.46 12.46 0 01.19 2.38v.65c0 4.83-.81 6.84-2.52 6.58a3 3 0 00.05 1.92c3.08.46 4.28-2.45 4.28-8.33v-1.75h3.57v5a42.55 42.55 0 01-.2 4.89zm12.85 0c-.07-1.29-.12-2.88-.12-4.75v-1.61c0-1.75 0-3.4.12-4.94H666c-.31.6-1.3 2-2.91 4.32s-2.55 3.67-2.86 4.2h-.12c.09-.84.14-2.14.14-3.94v-1.65a23.24 23.24 0 01.12-2.93h-2.28c.12 1.42.16 3.07.16 4.92v1c0 2.37 0 4.17-.16 5.37h1.85c.43-.74 1.42-2.23 3-4.41s2.48-3.58 2.79-4.13h.07c-.07.82-.1 2.23-.1 4.25v1.34a19.61 19.61 0 01-.16 2.95zm13.02 0c-.1-1.6-.14-3.36-.14-5.23v-.77c0-2.42 0-4.2.14-5.3h-2.29a27.15 27.15 0 01.17 3.6v1a38.91 38.91 0 01-5.29 0v-.87a35.1 35.1 0 01.14-3.74h-2.31c.12 1.1.17 2.88.17 5.33v.71c0 2.14-.05 3.92-.17 5.28h2.31c-.09-.88-.14-2.35-.14-4.34V994a38.91 38.91 0 015.29 0v.94a40.58 40.58 0 01-.17 4.34zm13.14 0c-.07-1.29-.12-2.88-.12-4.75v-1.61c0-1.75.05-3.4.12-4.94h-1.78c-.32.6-1.3 2-2.91 4.32s-2.56 3.67-2.87 4.2h-.12a36.75 36.75 0 00.15-3.94v-1.65a21.37 21.37 0 01.12-2.93h-2.29c.12 1.42.17 3.07.17 4.92v1c0 2.37 0 4.17-.17 5.37h1.85c.44-.74 1.42-2.23 3-4.41s2.48-3.58 2.79-4.13h.08c-.08.82-.1 2.23-.1 4.25v1.34a19.4 19.4 0 01-.17 2.95zm13.1 0c-.08-1.29-.12-2.88-.12-4.75v-1.61c0-1.75 0-3.4.12-4.94h-1.78c-.32.6-1.3 2-2.92 4.32s-2.55 3.67-2.86 4.2h-.12a37.41 37.41 0 00.14-3.94v-1.65a23.24 23.24 0 01.12-2.93h-2.28c.12 1.42.17 3.07.17 4.92v1c0 2.37 0 4.17-.17 5.37h1.85c.43-.74 1.42-2.23 3-4.41s2.48-3.58 2.79-4.13h.06c-.07.82-.09 2.23-.09 4.25v1.34a19.4 19.4 0 01-.17 2.95z"/><path class="cls-2" d="M955.72 602c.34-.4.7-.79 1.07-1.16a19.23 19.23 0 0113.6-5.65H996a10.12 10.12 0 0010-10.08v-90.53H905.41v90.53a10.12 10.12 0 0010.09 10.08h25.56a19.2 19.2 0 0113.59 5.65c.38.37.73.76 1.07 1.16m-14.66 2.36H915.5a19.3 19.3 0 01-19.25-19.25v-99.69h118.94v99.69A19.29 19.29 0 01996 604.36h-25.61a10.12 10.12 0 00-10.09 10.08h-9.16a10.12 10.12 0 00-10.08-10.08z"/><path class="cls-2" d="M941.27 561.36a29 29 0 006.52-10.14 28.43 28.43 0 001.51-12.68l-6 .56a22.51 22.51 0 01-1.17 10 22.8 22.8 0 01-5.18 8z"/><path class="cls-2" d="M976.1 541.91c3.3 1.11 5.36 2.39 5.4 3.56s-1.93 2.59-5.14 3.92a54.72 54.72 0 01-32.82 1.12c-3.3-1.12-5.36-2.39-5.4-3.56s1.93-2.59 5.15-3.93a54.59 54.59 0 0132.81-1.11m11.47 3.36c-.14-4-3.77-7.15-9.53-9.1a60.35 60.35 0 00-37.04 1.26c-5.61 2.34-9 5.76-8.88 9.72s3.76 7.15 9.52 9.09a60.16 60.16 0 0037.04-1.24c5.62-2.35 9.02-5.77 8.89-9.73z"/><path class="cls-2" d="M980.83 544.35a3 3 0 003.17-5.16c-3.52-2.16-5.93-6.48-7.12-11.35a29.15 29.15 0 01-.5-11.55 15.63 15.63 0 013.88-8.53 8 8 0 015.55-2.36l-.2-6.07c-17.38.59-30.2 5.62-39 13.35-10 8.87-14.64 21.17-14.57 34.39a3 3 0 006 0c-.06-11.52 3.89-22.19 12.51-29.81 5.56-4.91 13.1-8.59 22.79-10.48a24.66 24.66 0 00-3 8.57 35.43 35.43 0 00.57 14c1.55 6.31 4.87 12 9.84 15.08"/><path class="cls-2" d="M974.15 523.17a55.91 55.91 0 00-6.22-1.44 65.64 65.64 0 00-6.65-.83 62.07 62.07 0 00-13.06.37 30.72 30.72 0 00-10.31 3.08l2.91 5.3a24.86 24.86 0 018.24-2.38 56.65 56.65 0 0111.78-.32c2.12.16 4.16.41 6.06.74a52.12 52.12 0 015.54 1.29zm1.64-10.08a56.7 56.7 0 00-6-2.14 65.71 65.71 0 00-6.51-1.6c-1.73-.33-3.49-.59-5.24-.79s-3.41-.31-5.12-.35l-.17 6.05c1.46 0 3 .15 4.62.33s3.15.41 4.77.72c2.09.4 4.09.89 5.94 1.44a51.15 51.15 0 015.35 1.92zm-17.36 55.63a31.42 31.42 0 003.16-12.4 30.87 30.87 0 00-1.93-12.64l-5.66 2.21a24.63 24.63 0 011.53 10.11 25.1 25.1 0 01-2.53 10zm18.7-7.94a51 51 0 00-4.47-14.69 33.27 33.27 0 00-9.36-11.39l-3.73 4.75a27.39 27.39 0 017.68 9.36 44.62 44.62 0 013.91 13z"/><path class="cls-2" transform="rotate(-89.9 939.973 563.913)" d="M937.06 561.02h5.78v5.78h-5.78z"/><path class="cls-2" transform="rotate(-89.9 934.208 558.118)" d="M931.29 555.23h5.78v5.78h-5.78z"/><path class="cls-2" transform="rotate(-90 932.87 570)" d="M931.27 566.8h5.78v5.78h-5.78z"/><path class="cls-2" transform="rotate(-89.9 928.393 563.893)" d="M925.49 561h5.78v5.78h-5.78z"/><path class="cls-2" transform="rotate(-44.9 928.192 575.723)" d="M923.69 572.81h8.87v5.78h-8.87z"/><path class="cls-2" transform="rotate(-44.9 922.287 570.025)" d="M917.81 567.12h8.87v5.78h-8.87z"/><path class="cls-2" transform="rotate(-16.06 957.53 572.035)" d="M954.82 569.2h5.78v5.78h-5.78z"/><path class="cls-2" transform="rotate(-16.06 950.457 568.11)" d="M947.66 565.24h5.78v5.78h-5.78z"/><path class="cls-2" transform="rotate(-16.06 953.56 579.174)" d="M950.86 576.36h5.78v5.78h-5.78z"/><path class="cls-2" transform="rotate(-16.06 946.486 575.249)" d="M943.7 572.4h5.78v5.78h-5.78z"/><path class="cls-2" transform="rotate(-61.06 949.59 586.715)" d="M945.19 583.82h8.87v5.78h-8.87z"/><path class="cls-2" transform="rotate(-61.06 942.369 582.879)" d="M937.97 579.99h8.87v5.78h-8.87z"/><path class="cls-2" transform="rotate(-48.58 978.167 564.087)" d="M975.3 561.19h5.78v5.78h-5.78z"/><path class="cls-2" transform="rotate(-48.58 969.94 564.588)" d="M967.14 561.7h5.78v5.78h-5.78z"/><path class="cls-2" transform="rotate(-48.58 978.71 572.253)" d="M975.81 569.36h5.78v5.78h-5.78z"/><path class="cls-2" transform="rotate(-48.58 970.444 572.75)" d="M967.65 569.87h5.78v5.78h-5.78z"/><path class="cls-2" transform="rotate(-3.58 978.465 580.368)" d="M976.34 576.32h5.78v8.87h-5.78z"/><path class="cls-2" transform="rotate(-3.58 970.91 581.252)" d="M968.19 576.98h5.78v8.87h-5.78z"/><path d="M951.25 467.54h8.94v8.94h-8.94zm17.88 0h8.94v8.94h-8.94zm-35.75 0h8.94v8.94h-8.94z" fill-rule="evenodd" fill="#ea533d"/></svg>