<svg data-name="Layer 1" xmlns="http://www.w3.org/2000/svg" viewBox="0 0 1920 1080"><defs><clipPath id="a"><path fill="none" d="M0 0h1920v1080H0z"/></clipPath></defs><g clip-path="url(#a)"><path fill="#ea533d" d="M0 0h1920v1080H0z"/><path d="M275.45 363.79h-9l7.43 7.43a6.2 6.2 0 011.54 4.15v59h24.48l-7.43-7.42a6.24 6.24 0 01-1.54-4.15v-6.26h6.78c25.35 0 36.91-16.47 37.05-31.21.11-12.23-7.93-22.68-20.74-22.68a24.81 24.81 0 00-23.09 17.15v-16zm15.48 25.79v24.81c13.62-.38 26.63-12.23 26.74-28.19.15-21.43-26.74-17.06-26.74 3.38zm73.38 9.62l21.1-21.1v-2.73a6.24 6.24 0 00-1.54-4.15l-7.43-7.43h33.42l-7.43 7.43a6.24 6.24 0 00-1.54 4.15v29.56a6.2 6.2 0 001.54 4.15l7.43 7.43h-33.42l7.43-7.43a6.2 6.2 0 001.54-4.15V381.1l-21.1 21.1v2.73a6.16 6.16 0 001.55 4.15l7.42 7.43h-33.41l7.42-7.43a6.16 6.16 0 001.55-4.15v-29.56a6.2 6.2 0 00-1.55-4.15l-7.42-7.43h24.44zM459 370.07l-6.41-6.28h22.8l13.7 41.95a10.79 10.79 0 002.7 4l6.86 6.8H467l5.75-5.94a3.08 3.08 0 00.7-3.14l-9.85-31.72-13.57 42h-.3l-14.32-42.23-9.58 31.06c-.43 1.37-.54 3.08.41 4.06l5.75 5.94h-18.13l6.86-6.8a10.3 10.3 0 002.6-3.74l9-29a7 7 0 00-1.48-6.9l-6.28-6.28h22.64l9 27.22 4.39-14.07a6.26 6.26 0 00-1.59-6.93zm64.81 5.14c7-.28 6.37-11.49-3.81-9.32-4.75 1-10 4.68-11.79 9.32zm2.23-12.58c10.08-.26 18.42 3.94 20 14.7h-37.98c-3.87 14.94 6.19 27.64 22.05 27.06 12.77-.47 24.2-9.61 20.37-23.07h.31c6.18 18.42-6.8 37-28.36 36.35-16-.47-27-12.32-26-27.52s14.29-27.15 29.65-27.52zm36.31 1.16h-9l7.43 7.43a6.2 6.2 0 011.54 4.15v59h24.44l-7.42-7.42a6.2 6.2 0 01-1.55-4.15v-6.26h6.79c25.35 0 36.9-16.47 37.05-31.21.11-12.23-7.93-22.68-20.74-22.68a24.83 24.83 0 00-23.1 17.15v-16zm15.47 25.79v24.81c13.63-.38 26.64-12.23 26.75-28.19.19-21.43-26.71-17.06-26.71 3.38zm73 18.76c0 4.74 4.45 6.49 9 6.31 11.67-.46 13-18.78.12-16.2-4.51.91-9.12 5.29-9.12 9.89zm67.87 8.17l-7.42-7.43a6.16 6.16 0 01-1.55-4.15v-29.56a6.2 6.2 0 011.55-4.15l7.42-7.43h-33.41l7.42 7.43a6.2 6.2 0 011.55 4.15v41.14zm-67.87-41.14v27.76c9.76-15.41 35-15.87 36.19-2 1.18 14.33-17.85 15.39-26.48 15.39h-34.15l7.42-7.43a6.16 6.16 0 001.55-4.15v-29.57a6.2 6.2 0 00-1.55-4.16l-7.42-7.42h33.41l-7.42 7.42a6.2 6.2 0 00-1.55 4.16zM205 504.62l21.1-21.11v-2.73a6.2 6.2 0 00-1.55-4.15l-7.42-7.42h33.41l-7.42 7.42a6.2 6.2 0 00-1.55 4.15v29.56a6.2 6.2 0 001.55 4.16l7.42 7.42H217.1l7.42-7.42a6.2 6.2 0 001.55-4.16v-23.83L205 507.61v2.73a6.25 6.25 0 001.54 4.16l7.43 7.42h-33.45l7.48-7.42a6.25 6.25 0 001.54-4.16v-29.56a6.24 6.24 0 00-1.54-4.15l-7.43-7.42H205zm80.57-36.57c5.43-.14 9.16 1.1 12.25.76l6.89-.76-6.76 29.43h-.2l-4.42-22.22c-.79-3.95-7.35-4.51-11.56-4.2-24 1.76-18.7 40 7.83 38.74 12.77-.62 24.24-9.6 20.41-23.07h.28c6.17 18.42-6.81 37-28.37 36.35-16-.47-27-12.32-26-27.52s14.26-27.12 29.62-27.51zm30.92 1.16l7.42 7.42a6.2 6.2 0 011.55 4.15v29.56a6.2 6.2 0 01-1.55 4.16l-7.42 7.42h33.41l-7.42-7.42a6.2 6.2 0 01-1.55-4.16v-39H362v39a6.25 6.25 0 01-1.54 4.16l-7.46 7.42h33.42L379 514.5a6.25 6.25 0 01-1.54-4.16v-29.56a6.24 6.24 0 011.54-4.15l7.43-7.42zm91.84 5c5.82-3.2 14.48.29 24.4 15.62s9.15 24 3.33 27.2-14.54-.4-24.4-15.62-9.18-24.06-3.36-27.25zm-.52-2.43c14.17-7.61 32.1-3.09 40.05 10.07s2.91 30-11.26 37.6-32.09 3.09-40-10.07-2.98-30.05 11.18-37.65zm65.09 8.58l-12.3 31.33a10.43 10.43 0 01-2.46 3.43l-6.85 6.8h18l-5.71-5.92a3.63 3.63 0 01-.44-4L476 479.33l12.39 33.78a2.79 2.79 0 01-.74 2.88l-5.76 5.93h31.57l-6.85-6.8a9.05 9.05 0 01-2.26-3l-16.09-42.88h-21.82l5.67 5.42c1.58 1.49 1.61 3.47.76 5.65zm68.61 33.44c0 4.74 4.44 6.49 9 6.31 11.67-.46 13-18.78.11-16.19-4.53.85-9.14 5.24-9.14 9.83zm0-33v27.76c9.75-15.41 35-15.87 36.18-2 1.19 14.33-17.85 15.39-26.48 15.39H517l7.42-7.42a6.2 6.2 0 001.55-4.16v-29.59a6.16 6.16 0 00-1.55-4.15L517 469.2h33.41l-7.41 7.43a6.2 6.2 0 00-1.52 4.15zm70.49 9.79c12.12-.39 17.91-5.32 18.06-10.81.24-9.17-9.61-11.18-18-11.65-6.18-.35-12.35 2.14-15.21 1.44l-7-1.7 2.15 24.35h.21l9.42-18.34c3-5.86 13.29-4.44 13.72 4.18.19 3.92-2.21 10.93-14.5 13.94v.56c21.12-4.64 21.69 28.91 7.14 28.62-7.54-.15-10.33-11.36-6.94-15.4l6.95-8.29-22.4-.08c-5.09 13.82 4.47 25.67 21.76 25.85 29.2.29 31.1-20.64 23.18-32.44H612zm45.74-16.43c5.82-3.2 14.47.29 24.4 15.62s9.15 24 3.33 27.2-14.55-.4-24.4-15.62-9.13-24.01-3.31-27.2zm-.52-2.43c14.16-7.61 32.09-3.09 40 10.07s2.91 30-11.25 37.6-32.1 3.09-40-10.07-2.9-30 11.27-37.6zm73.5 42c0 4.74 4.45 6.49 9 6.31 11.67-.46 13-18.78.11-16.19-4.48.92-9.09 5.31-9.09 9.9zm-24.44 8.17l7.42-7.42a6.2 6.2 0 001.55-4.16v-29.54a6.2 6.2 0 00-1.55-4.15l-7.42-7.42h30.51c8 0 21.29.6 20.68 10.92-.79 13.39-15.65 16.09-26.75 18.85v9.56c9.76-15.41 35-15.87 36.19-2 1.18 14.33-17.85 15.39-26.48 15.39zm24.44-25c13.18-3.59 15-25.61 5.71-25.7-2.85 0-5.71 2.22-5.71 7.11zm75.78-7.13c-4.57 2.1-9.07 4.58-12.48 8.24-10.08 10.83.93 29.07 15.53 11.85zm3.5 22.61c-6 7.78-16.43 10.91-23.69 10.93-14.48 0-18.44-15.25-8.07-22.76 6.85-4.95 18.67-9.1 28.06-12.52-1-6.52-1.46-17.86-10.17-17.36-4.31.25-6.63 2.48-8 7.06l-5.26 17.42h-.28l-4.07-26.72 6.58 1.57c2.32.55 3.9-.46 7.62-1.27 15.93-3.49 27.2 3.17 30.24 20.45l3.53 20.11a8.4 8.4 0 001.78 4.28l8.58 8.58h-25.41zm55.42-43.17h-24.48l7.42 7.42a6.2 6.2 0 011.55 4.15v29.56a6.2 6.2 0 01-1.55 4.16l-7.42 7.42h33.41l-7.42-7.42a6.2 6.2 0 01-1.55-4.16v-16.43l21.11 5.66v10.77a6.2 6.2 0 01-1.55 4.16l-7.42 7.42h33.41l-7.42-7.42a6.2 6.2 0 01-1.55-4.16v-29.56a6.2 6.2 0 011.55-4.15l7.42-7.42h-33.41l7.42 7.42a6.2 6.2 0 011.55 4.15v16.59l-21.11-5.65zm78.27 35.41l21.1-21.11v-2.73a6.24 6.24 0 00-1.54-4.15l-7.43-7.42h33.38l-7.43 7.42a6.24 6.24 0 00-1.54 4.15v29.56a6.25 6.25 0 001.54 4.16l7.43 7.42h-33.42l7.43-7.42a6.25 6.25 0 001.54-4.16v-23.83l-21.1 21.1v2.73a6.2 6.2 0 001.55 4.16l7.42 7.42h-33.41l7.42-7.42a6.2 6.2 0 001.55-4.16v-29.56a6.2 6.2 0 00-1.55-4.15l-7.42-7.42h24.44zm86.31-27.24c.19-9.69-16-7.49-15.59 3.61.29 9.28 15.33 9.5 15.59-3.61zm0 19.06c-6.26 1.27-11.84 8.1-13.34 13.73-.42 1.56-.27 3.44.61 4.33l7.42 7.42h-27.2c2.4-15.14 12.06-24.5 32.49-27.57v-9.13c-5.88 9.42-15.62 11.92-22.5 9.66-9.33-3.06-10.39-14.52-4-20.56 4.87-4.64 13.25-5.11 19-5.11h32l-7.43 7.42a6.24 6.24 0 00-1.54 4.15v29.56a6.25 6.25 0 001.54 4.16l7.43 7.42H1030zM204.18 586h20.38c-2.11-5.13-6.69-9-14-9.57-4.22-.31-10.78.25-11.57 4.21l-4.42 22.21h-.2l-6.76-29.42 6.89.75c3.09.34 6.82-.9 12.25-.76 15.36.4 28.64 12.32 29.65 27.51s-10 27-26 27.52c-21.56.63-34.54-17.93-28.36-36.35h.27c-3.83 13.47 7.64 22.45 20.41 23.07 17.4.85 25.67-15.33 22.53-27.05h-21.1zm54.13-.32l-12.26 31.42a10.57 10.57 0 01-2.46 3.44l-6.86 6.79h18.05L249 621.4a3.61 3.61 0 01-.45-4l12.83-32.67 12.4 33.77a2.76 2.76 0 01-.75 2.88l-5.75 5.93h31.57l-6.85-6.77a9.06 9.06 0 01-2.25-3l-16.09-42.88h-21.77l5.67 5.42c1.58 1.48 1.6 3.46.75 5.64zm68.81.32c7-.29 6.37-11.5-3.81-9.32-4.75 1-10 4.68-11.78 9.32zm2.24-12.58c10.07-.27 18.42 3.94 20 14.7h-38c-3.88 14.93 6.19 27.63 22.05 27.05 12.77-.46 24.2-9.6 20.36-23.07h.32c6.17 18.42-6.81 37-28.37 36.35-16-.47-27-12.32-26-27.52s14.28-27.07 29.64-27.47zm74.91 7.44l-6.41-6.28h22.8l13.7 41.94a10.91 10.91 0 002.7 4l6.86 6.79h-31.73l5.75-5.93a3.09 3.09 0 00.7-3.15l-9.85-31.71-13.57 42h-.3l-14.32-42.24-9.6 31.06c-.42 1.37-.54 3.08.41 4.06l5.75 5.93h-18.07l6.86-6.79a10.3 10.3 0 002.6-3.74l9-29a7 7 0 00-1.55-6.9l-6.28-6.28h22.64l9 27.22 4.39-14.08a6.25 6.25 0 00-1.48-6.86zm70 5.14c7-.29 6.37-11.5-3.81-9.32-4.75 1-10 4.68-11.79 9.32zm2.23-12.58c10.08-.27 18.42 3.94 20 14.7h-38.01c-3.87 14.93 6.19 27.63 22.05 27.05 12.77-.46 24.2-9.6 20.37-23.07h.31c6.18 18.42-6.8 37-28.36 36.35-16-.47-27-12.32-26-27.52s14.29-27.07 29.65-27.47zm55.56 1.16h-24.43l7.42 7.42a6.2 6.2 0 011.55 4.16v29.56a6.2 6.2 0 01-1.55 4.15l-7.42 7.42H541l-7.43-7.42a6.24 6.24 0 01-1.54-4.15v-16.4l21.1 5.66v10.78a6.24 6.24 0 01-1.54 4.15l-7.43 7.42h33.41l-7.42-7.42a6.2 6.2 0 01-1.55-4.15V586.2a6.2 6.2 0 011.55-4.16l7.42-7.42H544.2l7.43 7.42a6.25 6.25 0 011.54 4.16v16.59l-21.1-5.66zM607.6 581v34.81a6.24 6.24 0 01-1.54 4.15l-7.43 7.42H632l-7.42-7.42a6.24 6.24 0 01-1.54-4.15V581c0-2.24 1-4.21 3.91-4.21h3.13c2.55 0 3.5 1.34 3.76 3.45l2.71 21.76h.3l9.36-29.18-12.43 1.5a31.46 31.46 0 01-3.36.26H602a25.35 25.35 0 01-3.43-.26l-11-1.5 1.22 29.18h.29l9.4-21.85c.79-1.85 2.49-3.45 4.26-3.45h1.7c2.16.04 3.16 1.83 3.16 4.3zm58.33-1.38c5.82-3.2 14.48.29 24.4 15.62s9.15 24 3.33 27.21-14.54-.4-24.4-15.63-9.15-24.05-3.33-27.25zm-.52-2.43c14.17-7.6 32.1-3.09 40.05 10.07s2.91 30-11.26 37.61-32.09 3.09-40-10.08-2.95-30.05 11.21-37.65zm72.09 42c0 4.75 4.44 6.49 9 6.31 11.67-.45 13-18.77.11-16.19-4.5.88-9.11 5.26-9.11 9.85zm-24.44 8.17l7.42-7.42a6.25 6.25 0 001.55-4.15V586.2a6.25 6.25 0 00-1.55-4.16l-7.42-7.42h30.51c8 0 21.28.6 20.68 10.92-.79 13.39-15.66 16.09-26.75 18.85V614c9.75-15.42 35-15.88 36.18-2 1.19 14.34-17.85 15.39-26.48 15.39zm24.44-25c13.18-3.59 15-25.61 5.71-25.7-2.86 0-5.71 2.23-5.71 7.11zm-527.26 76.51c5.42-.14 9.15 1.1 12.24.76l6.9-.75-6.76 29.43h-.21L218 686.09c-.78-4-7.34-4.51-11.56-4.2-24 1.75-18.69 40 7.84 38.73 12.76-.62 24.24-9.6 20.41-23.06h.31c6.17 18.41-6.81 37-28.37 36.34-16-.47-27-12.32-26-27.51s14.25-27.12 29.61-27.52zm52 7.5v34.8a6.18 6.18 0 01-1.55 4.15l-7.42 7.43h33.43l-7.42-7.43a6.18 6.18 0 01-1.55-4.15v-34.8c0-2.25 1-4.22 3.91-4.22h3.14c2.54 0 3.5 1.34 3.76 3.45l2.67 21.85h.29l9.37-29.18-12.44 1.5a28.88 28.88 0 01-3.36.26h-28.4a25.23 25.23 0 01-3.43-.26l-11-1.5 1.22 29.18h.3l9.4-21.85c.79-1.85 2.49-3.45 4.25-3.45h1.7c2.15 0 3.15 1.79 3.15 4.22zm66.08 29.07l21.1-21.1v-2.73a6.2 6.2 0 00-1.54-4.15l-7.41-7.46h33.42l-7.43 7.43a6.2 6.2 0 00-1.54 4.15v29.56a6.22 6.22 0 001.54 4.15l7.43 7.43h-33.42l7.43-7.43a6.22 6.22 0 001.54-4.15v-23.8l-21.1 21.1v2.73a6.18 6.18 0 001.55 4.15l7.42 7.43H303.9l7.42-7.43a6.18 6.18 0 001.55-4.15v-29.56a6.16 6.16 0 00-1.55-4.15L303.9 680h24.44zm69.77-24.31l-12.26 31.39a10.68 10.68 0 01-2.46 3.43l-6.86 6.8h18.05l-5.75-5.94a3.6 3.6 0 01-.45-4l12.83-32.67 12.4 33.77a2.76 2.76 0 01-.75 2.88l-5.75 5.94h31.57l-6.86-6.8a9.06 9.06 0 01-2.25-3L413.48 680h-21.79l5.66 5.42c1.59 1.58 1.65 3.58.76 5.71zm76.08-2.93c.18-9.68-16-7.49-15.6 3.61.34 9.28 15.37 9.51 15.62-3.61zm0 19.06c-6.27 1.27-11.84 8.11-13.35 13.73-.42 1.56-.27 3.45.61 4.33l7.43 7.43h-27.17c2.4-15.15 12.07-24.51 32.5-27.58v-9.12c-5.88 9.42-15.63 11.92-22.51 9.65-9.32-3.06-10.39-14.52-4-20.56 4.87-4.63 13.26-5.11 19-5.11h31.95l-7.42 7.43a6.16 6.16 0 00-1.55 4.15v29.56a6.18 6.18 0 001.55 4.15l7.42 7.43h-24.44zM180.52 346.08l8.58 8.58a7.18 7.18 0 011.79 4.8v43.67a7.18 7.18 0 01-1.79 4.8l-8.58 8.58H218l-8.58-8.58a7.18 7.18 0 01-1.79-4.8v-54.29h28.2v54.29a7.18 7.18 0 01-1.79 4.8l-8.58 8.58h37.44l-8.58-8.58a7.23 7.23 0 01-1.78-4.8v-43.67a7.23 7.23 0 011.78-4.8l8.58-8.58z" fill="#d6e2d4" fill-rule="evenodd"/></g></svg>