<svg id="Layer_1" data-name="Layer 1" xmlns="http://www.w3.org/2000/svg" viewBox="0 0 1920 1080"><defs><clipPath id="clip-path"><path fill="none" d="M0 0h1920v1080H0z"/></clipPath><style>.cls-4{fill:#1d1b19}</style></defs><g clip-path="url(#clip-path)"><path fill="#d6e2d4" d="M0 0h1920v1080H0z"/><path class="cls-4" d="M901.32 445.8a59.38 59.38 0 01-1.68 10.69c-1 4-1.93 6.78-2.94 8.25h3.64a38.23 38.23 0 001.7-6.14 46.44 46.44 0 001-8.21h.23q.3 1.72 1.55 6c.84 2.82 1.39 4.85 1.67 6.12a3.73 3.73 0 002.58-.44c2.21-4 4.15-7.91 5.9-11.7h.15c-.3 2.75-.67 7.53-1.07 14.34H918c0-3.23.39-9.52 1.1-18.93h-4.11c-1.47 3.15-3.41 7-5.86 11.5h-.23c-1.31-4.86-2.43-8.68-3.26-11.46zm42.68 8.83c-.09.1-.92 1.51-2.62 4.29s-3.2 5.34-4.57 7.69-2.21 3.86-2.57 4.58l3.72 1.63c.71-1.51 2.11-4.12 4.29-7.81s4-6.61 5.4-8.77zm-18.63 7.87a16.19 16.19 0 011.09-2 13.13 13.13 0 013.39-2.08 3.88 3.88 0 012.89-.25c.79.35.88 1.21.29 2.56a8.38 8.38 0 01-4.16 4.22 3.88 3.88 0 01-2.86-.12c-1.01-.41-1.19-1.2-.69-2.33zm4.45-14.1c-.43.68-1.77 2.75-4.07 6.13a55.71 55.71 0 00-4.28 7c-1.11 2.52-.47 4.27 1.93 5.33a9.66 9.66 0 008.09-.14 11.19 11.19 0 006-5.82c1-2.22.4-3.91-1.5-4.75-1.72-.75-4.88-.36-7.74 1.47l-.09-.08c.84-1 1.87-2.31 3-3.92a29.51 29.51 0 002.36-3.62zm40.4 31.6a47.46 47.46 0 00-6.83-8.91 37.45 37.45 0 01-9.86 5.13c-2.95.93-4.74 1-5.33.25a1.49 1.49 0 01-.34-1 4.49 4.49 0 00-2.62.83c-.79.61-.93 1.74 0 2.89 1.17 1.52 3.38 1.85 6.68 1a43 43 0 0011.25-5 8.28 8.28 0 012.4 3.14c-.94.73-3.11 2.09-6.47 4.12s-5.8 3.51-7.42 4.4l2.66 3.48c.63-.43 3.21-2.11 7.76-5s7.32-4.67 8.17-5.32M966.19 502c3.84-1.05 7-1.06 9.42 0a4 4 0 011.56 2.21c.49 1.77-.63 3-4.16 3.94a17.92 17.92 0 01-5.4.67 9 9 0 01-3.8-.78 3.51 3.51 0 01-1.6-2c-.49-1.81.83-3.15 4-4m13.87 2.2c-1.21-4.38-5.41-6.75-10.51-6.65a15.08 15.08 0 01-.76-3.24c3.25-.48 5.76-.81 7.54-1l-1.18-4.3q-8.76 1.74-18.87 2.75l1.16 4.22c2.19-.44 5-.86 8.6-1.31a16 16 0 01.93 3.07c-.78.18-1.36.3-1.75.4-4.88 1.35-6.82 4.35-5.85 7.86a8.54 8.54 0 005.27 5.81c2.79 1.14 6.19 1.18 10.15.09 4.24-1.17 6.32-3.81 5.25-7.73zm-6.91 18.01c1.84 1.11 3.37 3.14 3.22 4.54-.21 1.82-1.85 2.54-5 2.19a12.44 12.44 0 01-7.44-3.36 3.83 3.83 0 01-.7-2.64c.19-1.75 1.88-2.46 5.09-2.1a12.82 12.82 0 014.81 1.37m2-1.34c5.4 1.83 8.2 4.78 8.41 8.9s1.18 6.23 2.81 6.42a2.47 2.47 0 002.22-.54 6.68 6.68 0 01-.88-3.52 21.17 21.17 0 00-.46-3.76c-.64-3.22-3.2-6.14-6.62-8.1a30.6 30.6 0 00-11.38-3.65c-5.58-.63-8.34 1.81-8.74 5.39a8.68 8.68 0 002.88 7.49 14 14 0 008.39 3.82c4 .45 6.72-1.37 7.08-4.52.29-2.52-1.1-5.51-3.74-7.66zm-13.7 25.7a30.43 30.43 0 00-6.07-4l-1.7 3.61c1.51.72 4.12 2.2 7.79 4.49s6.45 4.16 8.38 5.59l1.83-3.89c-2.49-1.53-4.51-2.86-6-4a17.11 17.11 0 01-4.28-4.87c-1.32-2.13-1.78-3.6-1.36-4.48s1.18-.83 2.44-.24a65.86 65.86 0 016.21 3.92 66.77 66.77 0 005.8 3.77l1.84-3.89c-.69-.33-2.75-1.65-6.13-3.92a73.52 73.52 0 00-6.71-4.16c-2.6-1.22-4.41-.74-5.45 1.46a6.09 6.09 0 00.17 4.79 19 19 0 003.37 5.65zm2.13 17.95a59.77 59.77 0 01-6.07-8.95c-2-3.6-3.22-6.27-3.49-8l-2.65 2.5a38 38 0 003 5.64 45.84 45.84 0 004.86 6.69l-.17.16c-.94-.7-2.67-1.8-5.21-3.3s-4.33-2.59-5.41-3.33a3.73 3.73 0 00-1.57 2.09c1.11 4.42 2.36 8.61 3.68 12.57l-.11.1c-1.66-2.21-4.66-6-9-11.21l-2.84 2.69q3.27 3.55 12.12 14.57l3-2.82c-1.08-3.31-2.28-7.43-3.57-12.4l.17-.16c4.27 2.65 7.69 4.68 10.2 6.15zm-48.4 5.44c1.06 9 1.67 15.31 1.87 19l4.46-1c-.25-1.46-.55-4-.88-7.52a26.81 26.81 0 016.51-1.5q.52 4.91.66 7.57l4.5-1c-.91-5.88-1.56-12.19-1.95-19l-4.42 1c.34 2.21.64 5.08.94 8.65a27 27 0 01-6.52 1.5c-.14-1.15-.4-4-.79-8.69zm-17.84 15.2a34.78 34.78 0 011.54-4.86 19.16 19.16 0 013.46-5.45c1.63-1.92 2.93-2.8 3.86-2.68s1.36 1.38 1.06 3.71a15.12 15.12 0 01-1.91 5.62 10.61 10.61 0 01-3.29 3.75 5.52 5.52 0 01-2.82.48 5 5 0 01-1.9-.57m-.21-16.69q-.75 4-2.23 10c-1 4-1.78 6.76-2.27 8.38a12.66 12.66 0 004.5 1.47 12 12 0 009.62-2.69c2.7-2.26 4.32-5.63 4.9-10.13.41-3.2-.85-5.66-3.33-6a6.42 6.42 0 00-4.75 1.68 17.34 17.34 0 00-4.35 5.3h-.16a38.09 38.09 0 001.19-4A32.58 32.58 0 00901 569zm-23.56-4.17c.52-.57 1.25-1.48 2.26-2.78s1.62-2.18 2-2.71l-3.45-2.07c-.76 1.27-2.45 3.64-5 7.11s-4.81 6.13-6.53 8l3.52 2.11 2-2.32c.86-1.06 1.68-2 2.35-2.72a24.77 24.77 0 015.34-4c2.31-1.35 3.8-1.86 4.44-1.47.43.26.32 1-.36 2.11-1.18 2-4.26 5.66-9.24 11.08l3.39 2c.52-.57 1.3-1.4 2.33-2.59s1.81-2 2.41-2.65a23.08 23.08 0 015.19-3.71c2.29-1.32 3.79-1.77 4.46-1.37.51.3.41 1.08-.31 2.27a65.14 65.14 0 01-4.7 5.87c-2.63 3-4.12 4.73-4.42 5.16l3.66 2.19c.38-.56 1.91-2.43 4.7-5.64a64.38 64.38 0 005.19-6.59c1.16-2 .83-3.91-.74-4.86-2.12-1.26-6-.22-10 2.37l-.21-.12a25.51 25.51 0 002.4-2.93c1.13-1.88.95-3.42-.49-4.28-1-.63-2.48-.66-4.37-.16a17.26 17.26 0 00-5.58 2.69zm-18.23-10.27a14.73 14.73 0 01-2.71-1 4.11 4.11 0 01-1.79-1.31c-.46-.77-.23-1.41.63-1.91a4.21 4.21 0 012.64-.15 26.84 26.84 0 013.8.8 20.72 20.72 0 004.08.64 6.1 6.1 0 003.34-.6 3.64 3.64 0 001.41-5.46 8.51 8.51 0 00-3.17-3 11.23 11.23 0 00-4.19-1.53 2.41 2.41 0 00-.75 2.17 8.53 8.53 0 012.67.93 4.38 4.38 0 011.83 1.46c.5.84.25 1.53-.71 2.1a4.44 4.44 0 01-2.75.26 31.15 31.15 0 01-3.87-.76 16.89 16.89 0 00-4.08-.64 5.94 5.94 0 00-3.43.61 3.36 3.36 0 00-1.2 4.88c1.22 2 4.2 3.83 7.34 4.53a2.35 2.35 0 00.91-2.08M854 535.79a13.88 13.88 0 01-9.33-.43 4.13 4.13 0 01-1.55-2.31c-.46-1.77.67-3 4.21-3.88 3.86-1 7.47-.74 9.06.14a3.83 3.83 0 011.59 2.17c.54 2-.78 3.48-4 4.31M840.23 533a8.94 8.94 0 005.62 6.22 14.89 14.89 0 009.67.46c4.63-1.21 6.3-4.43 5.34-8.1a8.61 8.61 0 00-5.19-6c-2.74-1.19-6.1-1.28-10.07-.24-4.28 1.1-6.39 3.72-5.37 7.66zm15.26-16.25a39.27 39.27 0 01-4.79-1.22 20.78 20.78 0 01-5.87-3.25c-2.15-1.62-3.18-2.91-3.11-3.84s1.31-1.44 3.65-1.26a15.47 15.47 0 015.91 1.65 11.34 11.34 0 014.09 3.05 5.46 5.46 0 01.12 4.87m-16.81 1q11.66 2 26.47 5.61a5.93 5.93 0 00.47-2 3.38 3.38 0 00-.17-2c-2.64-.59-4.91-1.15-6.87-1.68a11.54 11.54 0 00-3.1-10q-3.93-4.29-10.9-4.8c-3.18-.24-5.48 1.16-5.67 3.69a6.34 6.34 0 002 4.66 18 18 0 005.57 4.06v.16c-1.05-.35-2.42-.73-4.11-1.13a32.63 32.63 0 00-3.38-.68zm15.53-20.89a13.93 13.93 0 01-7.11-6.07 4.2 4.2 0 01.19-2.77c.73-1.69 2.35-1.93 5.72-.49 3.66 1.57 6.34 4 7.06 5.67a3.87 3.87 0 01-.08 2.7c-.83 1.94-2.75 2.26-5.78 1m-9.13-10.65a8.92 8.92 0 00.62 8.36 14.92 14.92 0 007.35 6.3c4.39 1.89 7.69.37 9.18-3.12a8.61 8.61 0 00-.41-7.92c-1.44-2.62-4-4.75-7.8-6.37-4.02-1.79-7.34-1.02-8.94 2.71zm18.2-6.31a17.35 17.35 0 01-3.27-3.88 10.11 10.11 0 01-1.59-4 4.06 4.06 0 01.88-2.19c1.21-1.38 2.94-1.11 5.18.87 3.25 2.88 5.09 6.34 5.17 8.71a3.72 3.72 0 01-.88 1.83c-1.17 1.32-3 .88-5.49-1.31m-2.72-13.16a3.15 3.15 0 00-3.1 1.17 8 8 0 00-1.74 7.07c.48 2.89 2.18 5.65 5.17 8.29 3.37 3 7 3.07 9.42.35 2-2.23 2.45-5 1.46-8.32s-3.29-6.62-6.9-9.82c-6.68-5.91-12.38-5.31-16.81-.24a1.77 1.77 0 00.3 1.46 3.65 3.65 0 001.1 1.23c3.18-3.66 7.09-4.11 11.23-1.34zm23.91-8.42a3.29 3.29 0 11-3.29-3.3 3.3 3.3 0 013.29 3.3m584.17-133.08a22 22 0 00.15-5l-3.44.3c.09 1 .1 3.43 0 7.17s-.24 6.63-.48 8.71l3.45-.3.16-2.95c.09-1.57.21-2.82.33-3.7a13 13 0 011.71-4.71c1-1.79 1.86-2.7 2.61-2.77.48 0 .79.46.89 1.56.15 1.75-.12 5.78-.8 12.14l3.22-.29.33-3.59c.13-1.55.23-2.62.34-3.27a13.52 13.52 0 011.73-4.52c1-1.79 1.82-2.69 2.54-2.76.55-.05.89.49 1 1.65a50.41 50.41 0 01-.32 6.36c-.26 3.33-.42 5.24-.42 5.68l3.58-.32c0-.56.06-2.64.34-6.16a50.06 50.06 0 00.29-7.07c-.16-1.85-1.35-3.05-2.87-2.91-2.18.19-4.07 2.16-5.73 5.94h-.17a24.12 24.12 0 00.09-2.7c-.15-1.76-1.15-2.64-2.61-2.51-2 .18-4.24 2.41-5.72 6zm24.99 2.69a9.25 9.25 0 013.08-4 3.64 3.64 0 012.22-.09 1.92 1.92 0 011.29 2.51c-.64 2.37-4.21 2.11-6.59 1.54m-.94 9.38a9.42 9.42 0 006.31-.34 2.4 2.4 0 00-.27-1.79 6.2 6.2 0 01-2 .36 8.83 8.83 0 01-2.3-.24c-1.83-.48-2.43-1.88-1.82-4.19a6 6 0 01.49-1.32q9.11 1.55 10.32-3c.57-2.15-.5-4.08-3.15-4.79a7.24 7.24 0 00-6.82 1.66 13.7 13.7 0 00-4.34 7.2c-.9 3.29.39 5.66 3.58 6.51zm18.17-10.87a49.29 49.29 0 01-5.91 6.8c-2.46 2.42-4.36 3.94-5.73 4.54l2.58 1.6a31.57 31.57 0 003.91-3.59 39.13 39.13 0 004.36-5.35l.17.1c-.37.91-.89 2.54-1.55 4.91s-1.17 4-1.54 5.07a3.2 3.2 0 002 .82c3.33-1.84 6.43-3.75 9.34-5.66l.11.07c-1.43 1.81-3.81 5-7.11 9.66l2.77 1.72q2.18-3.39 9.15-12.89l-2.91-1.8q-3.65 2.37-9.22 5.53l-.17-.1c1.22-4 2.13-7.2 2.77-9.54zm22.24 21.2a30.32 30.32 0 01-3.68 2.14 16.11 16.11 0 01-5.2 1.42c-2.08.27-3.37.08-3.88-.51s-.06-1.62 1.43-2.89a12.43 12.43 0 014.33-2.39 8.89 8.89 0 014.13-.47 4.52 4.52 0 012 1.29 4.34 4.34 0 01.86 1.41m-9.25 10.42c1.81-1.37 4.13-3 7-4.89s4.89-3.17 6.1-3.89a10.6 10.6 0 00-2-3.44 10 10 0 00-7.45-3.73c-2.93-.12-5.82 1.05-8.7 3.5-2 1.74-2.65 4-1.3 5.55a5.31 5.31 0 003.87 1.63 14.51 14.51 0 005.66-.82l.08.09a33.59 33.59 0 00-3 1.82 27.78 27.78 0 00-2.38 1.72zm13.71 2a21.48 21.48 0 004.85-1.15l-1.19-3.25c-1 .36-3.28 1-6.92 1.88s-6.45 1.51-8.53 1.82l1.19 3.25 2.89-.61c1.54-.33 2.78-.54 3.65-.65a13 13 0 015 .42c2 .48 3.09 1.08 3.35 1.79.16.46-.24.89-1.27 1.26-1.66.61-5.61 1.4-11.93 2.41l1.11 3 3.56-.62c1.53-.28 2.59-.46 3.24-.53a13.51 13.51 0 014.82.49c2 .49 3.08 1.06 3.32 1.73.19.52-.23 1-1.32 1.39a51 51 0 01-6.23 1.36c-3.28.61-5.17 1-5.59 1.08l1.24 3.36c.53-.19 2.57-.63 6-1.28a50.05 50.05 0 006.9-1.56c1.74-.64 2.59-2.1 2.06-3.54-.76-2.05-3.15-3.36-7.23-4l-.06-.15c1.48-.3 2.36-.52 2.64-.62 1.65-.61 2.24-1.8 1.73-3.18-.71-1.92-3.43-3.46-7.26-4zm1.45 31.42a25.43 25.43 0 00-6-.89V394a73 73 0 017.48.63c3.58.43 6.34.85 8.3 1.25v-3.59q-3.65-.39-6-.89a14 14 0 01-5-2.16c-1.76-1.14-2.62-2.09-2.62-2.9s.6-1 1.76-1a53.42 53.42 0 016.08.76q4.73.78 5.71.79v-3.59c-.64 0-2.66-.27-6-.79a59.4 59.4 0 00-6.54-.76q-3.59 0-3.59 3a5.13 5.13 0 001.82 3.56 16.08 16.08 0 004.55 3.07zm-.91 16.18c-.74-.45-2-1.05-3.79-1.86a40.21 40.21 0 00-3.74-1.54l-.91 3.2a65.22 65.22 0 016.61 2.62c3.28 1.45 6 2.69 8 3.7l1-3.45a28.2 28.2 0 01-3.47-1.63 9.59 9.59 0 01-3-2.72c-.88-1.17-1.2-2.11-1-2.77s.87-.87 2-.54a20 20 0 013.56 1.56 19.55 19.55 0 003.24 1.46l1-3.45a23.87 23.87 0 01-3.53-1.55 25.08 25.08 0 00-4-1.69c-2.26-.64-3.68 0-4.21 1.82-.63 2.23.15 4.45 2.38 6.68zm-3.73 9.97a9.21 9.21 0 013 4 3.57 3.57 0 01-.51 2.16 1.91 1.91 0 01-2.76.57c-2.12-1.25-.9-4.62.29-6.76m-8.77-3.45a9.4 9.4 0 00-1.28 6.22 2.4 2.4 0 001.79.23 6.26 6.26 0 01.21-2 8.46 8.46 0 01.84-2.15q1.45-2.45 4.54-.62a6.56 6.56 0 011.13.82q-3.94 8.35.12 10.76c1.92 1.13 4.07.62 5.47-1.73a7.25 7.25 0 00.24-7 13.62 13.62 0 00-5.75-6.13c-3.02-1.8-5.65-1.2-7.33 1.63zm-1.23 25.61c.67.65 1.89.25 3.34-1.25 4.27-4.4 1.69-10.23-2-13.81-2.74-2.66-5.56-2.58-7.85-.21a8 8 0 00-2.17 4.71c.77.7 1.38.93 1.86.76a5.65 5.65 0 011.38-2.8c1.34-1.38 2.92-1.21 4.76.57 2.36 2.29 3.68 5 3.72 6.71a3.16 3.16 0 01-.88 1.82 3.41 3.41 0 01-2.63 1 2.35 2.35 0 00.48 2.51m-11.51 8.83a27.72 27.72 0 01.4-4.92c.33-2.22.63-3.42.94-3.6l.42-.26c.58 1.28 1.42 3.34 2.56 6.14l3.17-1.93c-2.22-4.4-4.37-9.24-6.49-14.53l-3.14 1.92c1.83 3.83 2.94 6.15 3.31 7l-.41.25c-.39.24-1.05-.21-2.11-1a30.15 30.15 0 00-3-2c-2-1.14-3.09-1.42-4.06-.83a6.76 6.76 0 00-1.92 1.87c1.65.51 4.53 2.1 8.61 4.71l-1.68 9.28zm-19.2-3.39a24.94 24.94 0 00-.72-6l-3.21.87a70.36 70.36 0 011.35 7.38c.53 3.57.84 6.34 1 8.34l3.47-.94a59.74 59.74 0 01-.71-6 14.18 14.18 0 01.78-5.34c.65-2 1.33-3.08 2.12-3.29s1.16.31 1.47 1.43a56.32 56.32 0 01.86 6.06 56.73 56.73 0 00.73 5.72l3.47-.93c-.17-.61-.45-2.64-.82-6a60.7 60.7 0 00-1-6.51q-.93-3.47-3.86-2.68a5.1 5.1 0 00-3 2.69 16 16 0 00-1.77 5.2zm-10.08 3.9a9.26 9.26 0 01-2 4.6 3.55 3.55 0 01-2.13.64 1.91 1.91 0 01-1.87-2.11c0-2.45 3.55-3.08 6-3.13m-1.41-9.31a9.35 9.35 0 00-6 2 2.36 2.36 0 00.7 1.67 6.11 6.11 0 011.87-.85 8.75 8.75 0 012.28-.34c1.9 0 2.83 1.22 2.81 3.61a6.83 6.83 0 01-.15 1.4q-9.2.75-9.25 5.49c0 2.22 1.5 3.83 4.24 3.86a7.23 7.23 0 006.19-3.3 13.63 13.63 0 002.43-8c.01-3.53-1.83-5.51-5.12-5.54zm-12.97.53c.33-.87-.52-1.84-2.5-2.59a7.52 7.52 0 00-7.41 1.05 14.57 14.57 0 00-4.46 6.3c-1.36 3.57-.2 6 2.88 7.18a8.16 8.16 0 005 .36c.22-1.13.21-1.84 0-2.1a5.66 5.66 0 01-3-.1c-1.79-.68-2.25-2.14-1.41-4.34.22-.59.39-1 .51-1.26l4.34 1.9a3.18 3.18 0 001-2l-4.5-1.57a7.71 7.71 0 013.39-3.51 3.16 3.16 0 012.09.12 3.64 3.64 0 012.13 1.81 2 2 0 001.9-1.23m-29.38 1.3a26.74 26.74 0 014.66-1.62c2.16-.6 3.37-.81 3.67-.61l.4.28c-.93 1.06-2.47 2.65-4.58 4.83l3.06 2.12c3.12-3.82 6.67-7.74 10.65-11.82l-3-2.1c-2.75 3.23-4.42 5.18-5.06 5.87l-.4-.28c-.38-.26-.23-1 .07-2.33a30.31 30.31 0 00.61-3.58c.25-2.25.06-3.39-.88-4a6.57 6.57 0 00-2.49-1c.2 1.72-.08 5-.82 9.78l-9.16 2.22zm-12.38-14.17c-.7.61-.39 1.87 1 3.43 4 4.61 10.06 2.49 13.92-.91 2.87-2.52 3-5.33.83-7.81a7.89 7.89 0 00-4.52-2.53c-.76.7-1 1.29-.91 1.79a5.67 5.67 0 012.69 1.59c1.27 1.45 1 3-1 4.71-2.46 2.17-5.25 3.27-7 3.18a3.25 3.25 0 01-1.75-1 3.45 3.45 0 01-.78-2.7 2.37 2.37 0 00-2.54.28m-7.88-12.03a26 26 0 014.88.74c2.19.48 3.36.86 3.53 1.18l.22.43c-1.31.5-3.42 1.19-6.3 2.14l1.71 3.3c4.55-1.92 9.52-3.73 14.94-5.48l-1.7-3.27c-3.94 1.57-6.33 2.52-7.21 2.83l-.23-.44c-.21-.4.29-1 1.15-2a28.53 28.53 0 002.22-2.87c1.27-1.88 1.63-3 1.11-4a6.87 6.87 0 00-1.74-2c-.62 1.61-2.4 4.38-5.29 8.26l-9.14-2.31zm-2.69-6.63a70.65 70.65 0 017.32-4.76 43.48 43.48 0 017.3-3.64c2.54.95 4.14 2.38 4.8 4.34a2.07 2.07 0 001.85-.23 1.31 1.31 0 00.67-1.53c-.53-2.29-4.19-4.82-10.35-6.06a46.87 46.87 0 00-7.23-1c-2.85-.2-5.32-.26-7.42-.21l.72 3.08a52.89 52.89 0 016.65-.44 28.46 28.46 0 016 .43v.13a39 39 0 00-5.47 2.55c-2.37 1.25-4.32 2.41-5.83 3.4zm10.63-20.13a32.28 32.28 0 01-4-.86 17.65 17.65 0 01-5-2.53c-1.84-1.28-2.74-2.32-2.71-3.11s1-1.23 3-1.16a13.06 13.06 0 015 1.19 9.47 9.47 0 013.5 2.42 4.5 4.5 0 01.25 4.05m-14 1.32q9.77 1.29 22.23 3.85a5.22 5.22 0 00.32-1.72 2.72 2.72 0 00-.2-1.64c-2.21-.41-4.13-.8-5.78-1.19a9.59 9.59 0 00-2.89-8.23 13.1 13.1 0 00-9.24-3.67c-2.65-.09-4.52 1.14-4.6 3.26a5.29 5.29 0 001.82 3.82 14.91 14.91 0 004.77 3.21v.13c-.88-.26-2-.53-3.46-.81a24.7 24.7 0 00-2.84-.46zm5.9-28.36c-.89-.27-1.79.65-2.39 2.65-1.77 5.87 3.21 9.86 8.14 11.34 3.66 1.1 6.12-.27 7.07-3.43a8 8 0 00-.25-5.18c-1-.26-1.64-.19-2 .18a5.64 5.64 0 01.07 3.12c-.55 1.85-2 2.42-4.49 1.68-3.15-.94-5.57-2.73-6.39-4.23a3.14 3.14 0 010-2 3.41 3.41 0 011.87-2.09 2.36 2.36 0 00-1.58-2m13.99-7.46a25.28 25.28 0 004.68 3.87l1.73-2.84c-1.19-.73-3.22-2.19-6.07-4.41s-5-4-6.46-5.37l-1.86 3.07q2.91 2.22 4.66 3.86a14.14 14.14 0 013.11 4.4c.92 1.89 1.16 3.15.74 3.84s-1 .59-2 0a55.52 55.52 0 01-4.8-3.79 54.6 54.6 0 00-4.48-3.63l-1.86 3.07c.54.32 2.13 1.6 4.73 3.78a63.46 63.46 0 005.21 4q3.06 1.86 4.64-.74a5.08 5.08 0 00.28-4 15.82 15.82 0 00-2.3-5zm11.25-12.29a25.69 25.69 0 003.38 5.05l2.47-2.23a74.69 74.69 0 01-4.55-6c-2.09-2.95-3.63-5.28-4.65-7l-2.66 2.41q2.14 3 3.35 5a14.07 14.07 0 011.72 5.11c.34 2.07.22 3.35-.39 3.89s-1.17.26-2-.6a55.89 55.89 0 01-3.52-5 56.33 56.33 0 00-3.25-4.76l-2.66 2.41c.42.46 1.58 2.14 3.45 5a59.62 59.62 0 003.83 5.36q2.4 2.65 4.65.63a5.09 5.09 0 001.41-3.74 15.48 15.48 0 00-.77-5.43zm12.51-11.27a3.31 3.31 0 11-3.33-3.3 3.3 3.3 0 013.33 3.3M650.11 689.87a6.55 6.55 0 01-2.19 9 6.58 6.58 0 112.19-9M662 677a20.35 20.35 0 011.91-3.3 5.57 5.57 0 012.12-2c1.11-.43 1.89 0 2.36 1.21a5.38 5.38 0 01-.41 3.44 33.13 33.13 0 01-1.9 4.75 27.72 27.72 0 00-1.76 5.14 7.83 7.83 0 000 4.44c1.14 3 3.57 4.2 6.82 3a11.12 11.12 0 004.57-3.48 14.55 14.55 0 002.95-5.09 3.16 3.16 0 00-2.66-1.51 10.89 10.89 0 01-1.81 3.26 6 6 0 01-2.33 2.07c-1.21.46-2 0-2.58-1.35a5.85 5.85 0 01.28-3.62 43 43 0 011.87-4.85 22.33 22.33 0 001.77-5.11 7.9 7.9 0 000-4.56 4.44 4.44 0 00-6.12-2.56c-3 1.14-6 4.64-7.58 8.55A3.08 3.08 0 00662 677m24.13 1.77c-.71-5.15.36-9.5 2.06-12a5.54 5.54 0 013.29-1.66c2.42-.34 3.8 1.31 4.46 6.05.71 5.15-.22 9.8-1.63 11.73a5.19 5.19 0 01-3.12 1.74c-2.78.39-4.47-1.53-5.06-5.81m5.87-17.46a11.93 11.93 0 00-9.1 6.35 19.26 19.26 0 00-2.16 12.49c.86 6.18 4.85 8.83 9.85 8.14a11.56 11.56 0 008.75-5.84c2-3.37 2.66-7.72 1.92-13-.77-5.74-3.89-8.88-9.26-8.14zm19.45 21.89a50.8 50.8 0 012-6.15 27 27 0 014.75-7.4c2.29-2.69 4.08-3.93 5.32-3.77s1.81 1.82 1.41 4.86a20 20 0 01-2.62 7.58 14.74 14.74 0 01-4.34 5.1 7.36 7.36 0 01-6.48-.22m-.05-22q-3.48 15-9.35 34.08a7.9 7.9 0 002.68.77 4.45 4.45 0 002.63-.07c1-3.39 1.88-6.31 2.73-8.82a15.49 15.49 0 0013.5-3.27q6-4.82 7.16-13.86c.55-4.13-1.15-7.24-4.5-7.67-2-.27-4.11.51-6.33 2.26a23.56 23.56 0 00-5.79 7h-.21c.55-1.35 1.14-3.1 1.8-5.28a39.33 39.33 0 001.14-4.36zM738 682.66c2-4.8 5.15-8 7.91-9.32a5.53 5.53 0 013.67.24c2.26.95 2.61 3.07.76 7.48-2 4.8-5.17 8.33-7.37 9.27a5.25 5.25 0 01-3.58-.09c-2.59-1.09-3.06-3.6-1.39-7.58m13.93-12a11.91 11.91 0 00-11.07.84 19.32 19.32 0 00-8.21 9.64c-2.41 5.76-.33 10.08 4.33 12a11.57 11.57 0 0010.5-.57c3.44-1.89 6.22-5.29 8.29-10.23 2.23-5.29 1.17-9.58-3.77-11.67zm8.94 23.45a21.51 21.51 0 014.76-4.61 13.05 13.05 0 015.13-2.44 5.47 5.47 0 013 1c2 1.48 1.77 3.77-.59 6.87-3.44 4.51-7.79 7.21-10.9 7.52a5 5 0 01-2.51-1c-1.87-1.42-1.49-3.88 1.13-7.31m17-4.67a4.23 4.23 0 00-1.88-4c-2.6-2-5.76-2.57-9.5-1.69s-7.2 3.34-10.36 7.48c-3.56 4.68-3.29 9.46.56 12.4 3.15 2.4 6.84 2.79 11.11 1.21S776.21 700 780 695c7.06-9.27 5.65-16.69-1.49-22.07a2.32 2.32 0 00-1.9.51 4.69 4.69 0 00-1.5 1.54c5.16 3.87 6.18 9 3 14.64zm26.65 32.93c1.22-.79 1-2.83-.81-5.62-5.35-8.19-15.18-6.3-21.93-1.9-5 3.28-5.82 7.66-2.95 12a12.84 12.84 0 006.54 5.06c1.32-.93 1.88-1.79 1.78-2.59a9.24 9.24 0 01-3.85-3.14c-1.68-2.57-.88-5 2.48-7.15 4.31-2.82 8.9-3.89 11.56-3.33a5.21 5.21 0 012.51 2 5.54 5.54 0 01.65 4.43 3.71 3.71 0 004 .16m1.35 24.9c2.76.57 5.56 2.42 6 4.24.57 2.37-1.12 4-5.12 5-4.3 1-8.48.32-10.64-.88a5.12 5.12 0 01-2.05-3c-.55-2.28 1.2-3.93 5.3-4.91a16.57 16.57 0 016.52-.44m1.9-2.59c7.46-.13 12.21 2.31 14.34 7.37s4.25 7.27 6.33 6.77a3.24 3.24 0 002.49-1.66c-.82-.5-1.73-1.84-2.68-4a27.62 27.62 0 00-2.25-4.48c-2.23-3.75-6.69-6.27-11.78-7.19a39.45 39.45 0 00-15.6.53c-7.13 1.71-9.42 6-8.31 10.66a11.62 11.62 0 006.91 8.08 18.09 18.09 0 0012 1c5.11-1.22 7.64-4.72 6.66-8.81-.79-3.29-3.84-6.41-8-7.92zm-4.45 27.5c5.2.13 9.32 1.89 11.56 4a5.45 5.45 0 011.11 3.51c0 2.44-1.9 3.54-6.69 3.43-5.2-.13-9.63-1.8-11.31-3.5a5.17 5.17 0 01-1.22-3.36c.07-2.81 2.24-4.16 6.55-4.06m16.24 8.62a11.92 11.92 0 00-4.81-10 19.26 19.26 0 00-12-4.14c-6.24-.15-9.5 3.36-9.62 8.41a11.51 11.51 0 004.35 9.57c3 2.52 7.19 3.87 12.54 4 5.81.11 9.41-2.45 9.54-7.86zm-9.49 16.33a20.33 20.33 0 011.58 3.47 5.68 5.68 0 01.44 2.9c-.3 1.16-1.1 1.55-2.36 1.23a5.52 5.52 0 01-2.57-2.33 33.78 33.78 0 01-2.76-4.31 27.92 27.92 0 00-3.16-4.41 7.85 7.85 0 00-3.64-2.55c-3.08-.79-5.5.47-6.36 3.85a11.2 11.2 0 00.19 5.74 14.48 14.48 0 002.43 5.35 3.15 3.15 0 002.71-1.34 11.34 11.34 0 01-1.6-3.37 6 6 0 01-.34-3.09c.33-1.26 1.19-1.68 2.6-1.32a5.71 5.71 0 012.79 2.33 41.53 41.53 0 012.86 4.33 22.65 22.65 0 003.16 4.41 7.8 7.8 0 003.73 2.62 4.43 4.43 0 005.63-3.49c.79-3.08-.32-7.55-2.57-11.14a3.07 3.07 0 00-2.76 1.12M800.4 832a46 46 0 01-5.24-4.1 25.33 25.33 0 01-5.08-6.79c-1.59-2.89-2.06-4.9-1.48-6s2.32-1.07 5 .36a19.15 19.15 0 016 4.92 13.86 13.86 0 013.07 5.78 7.48 7.48 0 01-.73 3.73 7 7 0 01-1.54 2.1m-20.56-7.28q4.54 2.75 11.16 7.28t9.22 6.61a17.12 17.12 0 003.9-4.95 16 16 0 001.17-13.19c-1.52-4.39-4.89-7.92-10.14-10.68-3.73-2-7.32-1.5-8.87 1.45-.95 1.8-1 4-.16 6.68a22.72 22.72 0 004.47 7.81l-.09.19a51 51 0 00-4.38-3.3 44.5 44.5 0 00-3.88-2.45zm5.09 21.28a34 34 0 004.58 6.33l4-3.75c-1.1-1.18-3.41-4.15-6.88-8.88s-6-8.44-7.74-11.27l-4 3.75 2.61 3.82c1.4 2 2.44 3.7 3.13 4.9a20.5 20.5 0 012.36 7.53c.47 3.18.24 5.16-.64 6-.57.53-1.44.2-2.61-1.06-1.87-2-5.39-7.28-10.62-15.83l-3.77 3.5 3 4.79c1.32 2 2.23 3.47 2.71 4.37a21.1 21.1 0 012.15 7.3c.46 3.18.28 5.13-.56 5.91-.65.6-1.59.27-2.83-1.07a76 76 0 01-5.69-8.21c-2.85-4.38-4.48-6.91-4.9-7.44l-4.2 3.89c.6.65 2.45 3.33 5.47 8a77.07 77.07 0 006.39 9c2 2.14 4.62 2.46 6.41.8 2.56-2.37 3.06-6.66 1.53-13l.19-.18a41.5 41.5 0 002.49 3.45c1.87 2 4 2.14 5.68.55 2.4-2.23 3-7.14 1.49-13zm-35.37 17c2.1 4.76 2.26 9.24 1.32 12.15a5.48 5.48 0 01-2.7 2.5c-2.24 1-4-.21-5.95-4.59-2.1-4.76-2.48-9.48-1.65-11.73a5.16 5.16 0 012.52-2.53c2.57-1.14 4.71.25 6.46 4.2m-.88 18.36a11.94 11.94 0 007-8.61 19.25 19.25 0 00-1.35-12.6c-2.52-5.71-7.09-7.16-11.7-5.12a11.56 11.56 0 00-6.82 8c-1 3.79-.43 8.15 1.73 13 2.33 5.31 6.19 7.47 11.14 5.29zm-24.56 17.4c2.56-.49 3.74-1.35 3.56-2.58-.43-2.88-3.25-5.15-6.95-4.59a8.92 8.92 0 00-5.14 2.56 12.73 12.73 0 00-3.12 4.47 3.48 3.48 0 002.53 1c1.3-2.56 3.33-4.45 5.13-4.72 2-.3 3.3 1 4 3.82m-9-25.27a38.81 38.81 0 000-9.52l-5.25.79a110.41 110.41 0 01.76 11.72c.17 5.65.14 10 0 13.15l5.66-.85q-.22-5.71 0-9.47a22.14 22.14 0 012.24-8.17c1.39-3 2.69-4.56 4-4.75 1.08-.17 1.79.67 2.06 2.48a83.9 83.9 0 01.23 9.59 86.66 86.66 0 00.09 9l5.66-.85c-.15-1-.21-4.17-.16-9.49a95.67 95.67 0 00-.34-10.32q-.84-5.55-5.62-4.84c-1.85.28-3.57 1.49-5.18 3.68a24.67 24.67 0 00-3.78 7.77zm-37.39-3.31a39.18 39.18 0 003.53-8.84l-5.16-1.23a110.31 110.31 0 01-3.66 11.17c-2 5.31-3.6 9.36-4.92 12.2l5.57 1.32q1.92-5.4 3.53-8.79a22 22 0 015.12-6.75c2.41-2.27 4.19-3.24 5.46-2.94 1.06.25 1.4 1.3 1 3.07a83.52 83.52 0 01-3.36 9 84.42 84.42 0 00-3.27 8.42l5.57 1.32c.22-1 1.36-4 3.38-8.88a93.88 93.88 0 003.52-9.7q1.31-5.46-3.41-6.58c-1.82-.43-3.86.05-6.18 1.48a24.82 24.82 0 00-6.4 5.81zm-32.74.52c-.66 1.3.53 3 3.5 4.47 8.72 4.44 16.3-2.1 20-9.28 2.71-5.34 1.23-9.53-3.45-11.92a12.79 12.79 0 00-8.19-1.12c-.68 1.46-.74 2.48-.25 3.14a9.11 9.11 0 014.9.8c2.74 1.39 3.23 3.86 1.42 7.43-2.34 4.59-5.78 7.8-8.37 8.64a5.08 5.08 0 01-3.18-.51 5.46 5.46 0 01-2.77-3.51 3.73 3.73 0 00-3.57 1.86m-7.22-12.55a34 34 0 00-6.12 4.89l3.92 3.88c1.13-1.14 4-3.59 8.57-7.25s8.18-6.4 10.93-8.22l-3.92-3.88-3.7 2.78c-2 1.48-3.6 2.59-4.77 3.33a20.07 20.07 0 01-7.42 2.68c-3.16.61-5.15.47-6-.37-.55-.55-.26-1.44 1-2.65 1.94-2 7-5.7 15.36-11.3l-3.67-3.66-4.66 3.22c-2 1.41-3.37 2.37-4.25 2.89a20.86 20.86 0 01-7.2 2.46c-3.16.6-5.11.5-5.92-.3-.63-.62-.34-1.58.94-2.88a80.14 80.14 0 018-6c4.26-3 6.71-4.78 7.23-5.22l-4.07-4c-.62.63-3.22 2.59-7.73 5.81a75.63 75.63 0 00-8.76 6.78c-2 2.07-2.26 4.72-.53 6.44 2.48 2.45 6.79 2.76 13 1l.19.18a39.1 39.1 0 00-3.34 2.63c-1.94 2-2 4-.3 5.7 2.32 2.31 7.26 2.73 13.06.93zm-18.47-34.61c-4.66 2.3-9.13 2.65-12.08 1.84a5.55 5.55 0 01-2.62-2.6c-1.08-2.19.05-4 4.34-6.14 4.66-2.3 9.37-2.88 11.64-2.15a5.19 5.19 0 012.64 2.41q1.88 3.78-3.92 6.64m-18.35-.1a11.94 11.94 0 008.9 6.63 19.25 19.25 0 0012.53-1.89c5.6-2.76 6.85-7.38 4.62-11.91a11.54 11.54 0 00-8.29-6.46c-3.84-.84-8.17-.09-13 2.28-5.18 2.55-7.18 6.5-4.76 11.35zm14.63-25.34a50.19 50.19 0 01-6.45.07 26.93 26.93 0 01-8.53-2.18c-3.27-1.34-5-2.65-5.24-3.87s1.15-2.29 4.17-2.87a20.28 20.28 0 018 .11 14.75 14.75 0 016.2 2.52 7.39 7.39 0 011.83 6.22m-20.87 7c10.26-1 22-1.56 35.3-1.83a7.83 7.83 0 00-.11-2.79 4.46 4.46 0 00-.9-2.48c-3.52.15-6.58.21-9.23.18a15.49 15.49 0 00-7.34-11.78q-6.45-4.17-15.41-2.45c-4.09.78-6.51 3.36-5.87 6.68.38 2 1.77 3.74 4.14 5.3a23.46 23.46 0 008.42 3.32v.2c-1.45-.09-3.31-.11-5.57 0a43.82 43.82 0 00-4.5.28zm12.46-42.83a38.75 38.75 0 009.26 2.2l.46-5.28a113.16 113.16 0 01-11.58-2c-5.54-1.15-9.79-2.19-12.79-3.07l-.49 5.7q5.63 1.11 9.21 2.2a22 22 0 017.43 4.08c2.59 2 3.81 3.67 3.7 5-.09 1.09-1.07 1.58-2.89 1.43a85.35 85.35 0 01-9.38-2 85.65 85.65 0 00-8.81-2l-.49 5.71c1 .08 4.11.77 9.28 2a93 93 0 0010.11 2.07q5.6.48 6-4.34c.16-1.87-.62-3.81-2.37-5.9a24.87 24.87 0 00-6.68-5.48zm-.5-17.11a14.21 14.21 0 01-5.81-5.32 5.78 5.78 0 01.13-3.53 3 3 0 014.08-1.78c3.64 1.27 2.78 6.91 1.6 10.63m14.54 2.53c1.28-3.69 1.1-7.77.1-10.1a3.67 3.67 0 00-2.84.22 9.94 9.94 0 01.31 3.25 14.18 14.18 0 01-.66 3.63q-1.49 4.27-6.79 2.43a10 10 0 01-2-.92q3.57-14.29-3.43-16.72c-3.3-1.15-6.46.34-7.89 4.47a11.57 11.57 0 001.73 11 21.12 21.12 0 0010.71 7.69c5.16 1.8 9.04.01 10.76-4.95zm-20.5-41.15q-2 3.35-.47 4.38c2.43 1.61 6 1 8.07-2.08a9 9 0 001.55-5.53 12.86 12.86 0 00-1.22-5.31 3.48 3.48 0 00-2.47 1.18c1 2.68 1.06 5.45.06 7-1.13 1.69-3 1.79-5.52.39m24.75 10.33a39.24 39.24 0 007.07 6.38l2.93-4.42a115.3 115.3 0 01-9.2-7.3c-4.3-3.68-7.53-6.63-9.74-8.85l-3.16 4.77q4.4 3.68 7 6.35a22.24 22.24 0 014.55 7.15c1.29 3 1.58 5.05.86 6.13-.6.91-1.7.87-3.21-.14a85.06 85.06 0 01-7.27-6.26 89 89 0 00-6.76-6l-3.17 4.77c.82.55 3.24 2.65 7.15 6.25a94.32 94.32 0 007.88 6.67q4.68 3.1 7.35-.92c1-1.56 1.3-3.64.76-6.31a24.71 24.71 0 00-3.23-8zm-126.65-508.6a20.59 20.59 0 012.42-2.91 5.62 5.62 0 012.41-1.65c1.17-.23 1.86.32 2.11 1.58a5.42 5.42 0 01-1 3.31 31.54 31.54 0 01-2.66 4.33 27.27 27.27 0 00-2.57 4.73 7.83 7.83 0 00-.71 4.36c.63 3.09 2.8 4.71 6.19 4a11.12 11.12 0 005.05-2.65 14.5 14.5 0 003.74-4.49 3.17 3.17 0 00-2.38-1.84 10.91 10.91 0 01-2.31 2.89 6 6 0 01-2.63 1.63c-1.26.26-2-.33-2.3-1.75a5.72 5.72 0 01.88-3.49 41.07 41.07 0 012.64-4.43 22.45 22.45 0 002.57-4.74 7.79 7.79 0 00.74-4.47 4.4 4.4 0 00-5.56-3.52c-3.09.62-6.61 3.55-8.85 7.11a3 3 0 002.19 2m23.24 5.25c-.3-5.16 1.1-9.38 3-11.77a5.51 5.51 0 013.39-1.39c2.42-.15 3.67 1.59 4 6.33.31 5.16-1 9.69-2.52 11.49a5.19 5.19 0 01-3.22 1.49c-2.79.16-4.31-1.87-4.57-6.15m7.18-16.79a11.87 11.87 0 00-9.5 5.59 19.14 19.14 0 00-3.1 12.2c.37 6.19 4.12 9.12 9.12 8.82a11.46 11.46 0 009.11-5.1c2.24-3.19 3.23-7.44 2.91-12.75-.42-5.73-3.26-9.08-8.62-8.76zm18.04 22.48a49.37 49.37 0 011.79-6.15 26.35 26.35 0 014.52-7.48c2.2-2.73 3.94-4 5.18-3.88s1.84 1.75 1.53 4.79a20.14 20.14 0 01-2.4 7.59 14.82 14.82 0 01-4.18 5.18 7.32 7.32 0 01-6.44-.05m-.63-21.83q-3 15-8.38 34.09a8 8 0 002.68.69 4.46 4.46 0 002.61-.14c.88-3.39 1.7-6.32 2.48-8.84a15.36 15.36 0 0013.31-3.6q5.8-4.92 6.75-13.94c.43-4.12-1.34-7.16-4.68-7.5-2-.21-4.06.61-6.22 2.41a23.41 23.41 0 00-5.57 7.06h-.2q.75-2 1.64-5.28a41.56 41.56 0 001-4.36zm27.1 19.75c1.36-5 4-8.53 6.58-10.2a5.53 5.53 0 013.66-.23c2.34.64 3 2.68 1.71 7.27-1.36 5-4 8.86-6.07 10.07a5.16 5.16 0 01-3.53.37c-2.69-.73-3.48-3.14-2.35-7.28m12.18-13.6a11.84 11.84 0 00-10.79 2.25 19.16 19.16 0 00-6.84 10.56c-1.63 6 1 10 5.81 11.28a11.5 11.5 0 0010.27-1.91c3.15-2.31 5.44-6 6.84-11.15 1.5-5.55-.11-9.62-5.29-11.03zm12 21.18a21.74 21.74 0 013.55-5.54 12.82 12.82 0 014.4-3.52 5.52 5.52 0 013.11.25c2.22 1 2.57 3.24 1 6.78-2.3 5.15-5.89 8.75-8.83 9.76a5 5 0 01-2.65-.4c-2.12-.94-2.32-3.41-.57-7.33m15.4-8.4a4.18 4.18 0 00-2.72-3.41c-3-1.33-6.15-1.17-9.57.53s-6.19 4.87-8.3 9.59c-2.38 5.33-1 9.9 3.36 11.86 3.59 1.6 7.25 1.14 11-1.36s7-6.62 9.52-12.33c4.72-10.57 1.67-17.42-6.47-21a2.31 2.31 0 00-1.71.94 4.4 4.4 0 00-1.1 1.82c5.87 2.57 8 7.26 6.21 13.47zm22.22 20.28a32.79 32.79 0 005.59-5.36l-4.22-3.47c-1 1.24-3.62 3.92-7.8 8s-7.48 7.1-10 9.15l4.24 3.47 3.4-3.09c1.82-1.65 3.31-2.9 4.4-3.74a20 20 0 017.08-3.35c3.07-.9 5.05-.95 6-.19.6.49.39 1.39-.69 2.71-1.73 2.12-6.42 6.29-14.12 12.6l3.95 3.24 4.3-3.62c1.83-1.58 3.12-2.66 3.94-3.26a21.12 21.12 0 016.89-3.11c3.06-.89 5-1 5.88-.25.68.55.48 1.53-.66 2.93a78.47 78.47 0 01-7.3 6.71c-3.92 3.4-6.18 5.35-6.65 5.84l4.4 3.6c.55-.68 2.94-2.86 7.1-6.47a76.13 76.13 0 008-7.52c1.84-2.24 1.79-4.88-.09-6.42-2.67-2.19-7-2.09-13 .27l-.2-.17a37.7 37.7 0 003.05-2.91c1.74-2.12 1.57-4.19-.23-5.66-2.52-2.07-7.43-2-13 .3zm39.49 32.61a45.5 45.5 0 01-5.81 3.16 25 25 0 01-8.18 1.95c-3.27.31-5.29-.05-6.07-1s0-2.55 2.32-4.46a19 19 0 016.84-3.53 13.86 13.86 0 016.49-.52 7.35 7.35 0 013.11 2.14 7 7 0 011.3 2.27m-14.74 15.87q4.3-3.06 11-7.31t9.66-5.8a16.86 16.86 0 00-3-5.49 15.91 15.91 0 00-11.57-6.28c-4.59-.34-9.14 1.34-13.73 5-3.25 2.63-4.25 6.08-2.17 8.66 1.26 1.57 3.26 2.48 6 2.77a22.42 22.42 0 008.89-1l.13.16a48.64 48.64 0 00-4.73 2.69 42.07 42.07 0 00-3.77 2.57zm34.46 9.79a64.84 64.84 0 00-7.35-12.86 47.89 47.89 0 01-13.6 4.85c-4 .66-6.29.44-6.93-.68a2 2 0 01-.26-1.4 5.76 5.76 0 00-3.53.59c-1.12.64-1.48 2.09-.54 3.75 1.26 2.2 4.06 3 8.48 2.54a55.39 55.39 0 0015.35-4.37 11.08 11.08 0 012.59 4.53c-1.35.77-4.37 2.14-9 4.16s-8.07 3.48-10.31 4.35l2.87 5c.88-.44 4.49-2.14 10.85-5.07s10.22-4.71 11.43-5.4m5.79 22.65a46.17 46.17 0 01-6.51 1.19 25.2 25.2 0 01-8.39-.7c-3.2-.73-5-1.7-5.44-2.86s.74-2.44 3.59-3.51a19.16 19.16 0 017.61-1.22 13.75 13.75 0 016.32 1.54 7.42 7.42 0 012.29 3 7.25 7.25 0 01.53 2.56m-19 10.47q5-1.56 12.77-3.49c5.16-1.23 8.83-2.06 11-2.49a16.85 16.85 0 00-1.1-6.15 15.91 15.91 0 00-9-9.57c-4.25-1.77-9.1-1.59-14.61.49-3.92 1.48-5.94 4.45-4.78 7.54.72 1.89 2.33 3.38 4.86 4.52a22.51 22.51 0 008.75 1.83l.07.2a50.22 50.22 0 00-5.33 1.07 43.82 43.82 0 00-4.38 1.27zm5.58 24.68c11.71-1 19.93-1.51 24.7-1.61l-1.17-5.93q-2.85.39-9.79.83a36.11 36.11 0 01-1.72-8.67c4.26-.32 7.54-.49 9.85-.53l-1.18-6c-7.66.94-15.87 1.51-24.68 1.72l1.17 5.88c2.88-.36 6.61-.62 11.26-.86a36.6 36.6 0 011.71 8.67c-1.5.14-5.25.35-11.3.65zm18.18 13.03a33.37 33.37 0 007.68 1.05l.09-5.47c-1.6 0-5.32-.4-11.09-1.17s-10.21-1.45-13.4-2.18l-.09 5.48 4.53.74c2.43.4 4.33.8 5.67 1.13a20.15 20.15 0 017 3.47c2.61 1.86 3.87 3.37 3.85 4.56 0 .78-.84 1.18-2.55 1.15-2.74-.05-8.92-1.13-18.65-3.25l-.08 5.11 5.51 1.13c2.37.45 4 .79 5 1.06a20.9 20.9 0 016.71 3.47c2.61 1.85 3.88 3.32 3.86 4.45 0 .88-.9 1.33-2.71 1.3a76.62 76.62 0 01-9.79-1.55c-5.1-1-8-1.53-8.71-1.59l-.09 5.68c.88 0 4.07.53 9.48 1.55a76.36 76.36 0 0010.88 1.63c2.89 0 4.93-1.63 5-4.06.06-3.46-2.68-6.76-8.26-10v-.26a41.74 41.74 0 004.17.59c2.74 0 4.26-1.38 4.3-3.71 0-3.25-3-7.07-8.31-10zm1.12 55.81a64.61 64.61 0 003.21-14.49 47.53 47.53 0 01-13.32-5.55c-3.38-2.18-5-3.91-4.67-5.17a1.94 1.94 0 01.74-1.21 5.82 5.82 0 00-3-1.94c-1.27-.28-2.51.56-2.92 2.42-.55 2.47.95 5 4.56 7.58a55.45 55.45 0 0014.3 7.09 11.26 11.26 0 01-1.13 5.1c-1.52-.34-4.68-1.36-9.5-3s-8.31-2.85-10.55-3.72l-1.28 5.65c.94.26 4.76 1.43 11.43 3.54s10.73 3.39 12.1 3.7m-21.8 15.42a39 39 0 00-8.18-4.74l-1.95 4.9a110.44 110.44 0 0110.45 5.2c4.94 2.68 8.68 4.88 11.28 6.58l2.1-5.28q-5-2.67-8.13-4.73a21.75 21.75 0 01-5.9-6c-1.88-2.69-2.58-4.58-2.1-5.78.4-1 1.47-1.2 3.15-.53a82.16 82.16 0 018.35 4.59 83.93 83.93 0 007.81 4.43l2.09-5.28c-.91-.37-3.69-1.91-8.23-4.6a93.21 93.21 0 00-9-4.86q-5.18-2.06-7 2.41c-.69 1.73-.51 3.8.56 6.28a24.32 24.32 0 004.79 7.12zm-5.36 15.35c-2.19 5.85-4.2 7.43-7.18 5.67a5.71 5.71 0 01-2.93-4.19 4.86 4.86 0 01.9-3.06c1.53-2.58 4.57-2.05 9.21 1.58m2.17 1.71a11 11 0 014.41 6.14 4.69 4.69 0 01-.71 2.94c-1.08 1.82-2.34 2.34-3.76 1.5-2-1.16-2.58-3.86-2-6.35a27.55 27.55 0 012.06-4.2zm-4.9 7.49c-.52 3.23.63 6.66 3.16 8.16 2.68 1.58 5.43.56 7.82-3.49 4.12-7 1.83-14.28-8.5-20.37-5.16-3-8.76-2.53-11.52 2.14a11.94 11.94 0 00-1.72 8.82 8.85 8.85 0 004.06 6.24c2.62 1.55 4.75 1 6.48-1.63zm-12.31 33.73c-.08-.14-1.52-1.71-4.33-4.87s-5.41-6-7.81-8.59-4-4.21-4.7-4.92l-3.49 4.08c1.61 1.45 4.31 4.18 8.07 8.28s6.69 7.44 8.83 10zm-2.53-26.33a19.56 19.56 0 012.06 2.11 16.9 16.9 0 011.27 5 5.07 5.07 0 01-.81 3.72c-.74.87-1.86.66-3.31-.59a10.74 10.74 0 01-3.64-6.79 5.2 5.2 0 011.27-3.54c.88-.98 1.94-.95 3.16.09zm15.85 10.8c-.69-.79-2.74-3.23-6.06-7.37a71 71 0 00-7.1-8c-2.71-2.32-5.15-2.17-7.41.46a12.82 12.82 0 00-3 10.23 14.38 14.38 0 004.91 9.67c2.4 2.05 4.73 1.94 6.52-.14 1.61-1.88 2.36-6 1.19-10.27l.14-.09c.95 1.43 2.15 3.21 3.7 5.29a35.93 35.93 0 003.59 4.3zM655.24 504a129.3 129.3 0 01-11.85-5.53c-.46-6.36-.66-11.67-.67-15.93l-4.28 3.5c.37 2.83.74 6.46 1 10.82l-.16.14c-1.29-.69-4.15-2.22-8.52-4.72l-5.57 4.54a131.33 131.33 0 0113 5.83c.3 7.22.38 12.23.32 15l4.21-3.43c-.4-3.75-.68-7.12-.82-10.07l.23-.12c3.92 1.93 6.56 3.38 7.91 4.21zm-77.3 33.7a20.34 20.34 0 01-2.37 3 5.63 5.63 0 01-2.38 1.68c-1.16.26-1.86-.28-2.14-1.54a5.47 5.47 0 01.91-3.32 33.06 33.06 0 012.59-4.38 28.17 28.17 0 002.49-4.77 7.81 7.81 0 00.63-4.37c-.68-3.08-2.88-4.66-6.26-3.92a11.2 11.2 0 00-5 2.74 14.33 14.33 0 00-3.66 4.56 3.19 3.19 0 002.41 1.8 11 11 0 012.26-2.93 5.83 5.83 0 012.6-1.68c1.26-.28 2 .29 2.33 1.7a5.69 5.69 0 01-.82 3.52 39.44 39.44 0 01-2.56 4.47 22.77 22.77 0 00-2.49 4.78 7.79 7.79 0 00-.66 4.48 4.4 4.4 0 005.62 3.43c3.08-.68 6.55-3.66 8.72-7.26a3 3 0 00-2.22-1.95m-23.3-4.88c.4 5.15-.93 9.4-2.76 11.82a5.51 5.51 0 01-3.36 1.46c-2.42.18-3.69-1.53-4.06-6.27-.4-5.15.8-9.7 2.32-11.53a5.15 5.15 0 013.22-1.54c2.78-.22 4.34 1.79 4.67 6.06m-6.88 16.91a11.85 11.85 0 009.4-5.75 19.15 19.15 0 002.89-12.25c-.48-6.18-4.28-9-9.27-8.66a11.46 11.46 0 00-9 5.26c-2.18 3.23-3.1 7.49-2.68 12.8.38 5.72 3.28 9.02 8.63 8.6zm-18.54-22.15a50.39 50.39 0 01-1.68 6.18 26.72 26.72 0 01-4.39 7.56c-2.15 2.76-3.87 4.07-5.11 4s-1.87-1.72-1.61-4.75a19.84 19.84 0 012.27-7.64 14.62 14.62 0 014.08-5.25 7.29 7.29 0 016.44-.06m1 21.81Q533 534.36 538 515.2a8.06 8.06 0 00-2.69-.64 4.35 4.35 0 00-2.61.19c-.81 3.4-1.58 6.34-2.32 8.87a15.35 15.35 0 00-13.24 3.84q-5.73 5-6.51 14.06c-.35 4.12 1.46 7.13 4.81 7.42 2 .17 4-.69 6.18-2.53a23.35 23.35 0 005.44-7.15h.21q-.72 2-1.55 5.32a39.27 39.27 0 00-1 4.37zm-27.43-19.31c-1.27 5-3.89 8.6-6.4 10.31a5.51 5.51 0 01-3.65.3c-2.35-.6-3-2.63-1.84-7.24 1.27-5 3.87-8.93 5.89-10.18a5.17 5.17 0 013.52-.43c2.71.68 3.54 3.08 2.48 7.24M490.89 544a11.84 11.84 0 0010.75-2.44 19.12 19.12 0 006.66-10.68c1.52-6-1.16-9.94-6-11.17a11.49 11.49 0 00-10.24 2.09c-3.1 2.36-5.33 6.11-6.64 11.26-1.42 5.53.26 9.59 5.47 10.94zm-12.36-21a22.17 22.17 0 01-3.45 5.61 13.14 13.14 0 01-4.34 3.6 5.49 5.49 0 01-3.12-.21c-2.23-1-2.62-3.19-1.11-6.76 2.21-5.18 5.74-8.85 8.66-9.9a5 5 0 012.66.34c2.14.91 2.38 3.38.7 7.32m-15.26 8.67a4.21 4.21 0 002.78 3.37c3 1.27 6.17 1.06 9.56-.7s6.11-5 8.13-9.74c2.29-5.37.86-9.91-3.56-11.79-3.62-1.54-7.27-1-11 1.55s-6.85 6.74-9.3 12.49c-4.54 10.65-1.37 17.45 6.83 20.88a2.28 2.28 0 001.7-1 4.73 4.73 0 001.07-1.85c-5.92-2.46-8.15-7.12-6.45-13.35zm-22.57-19.89a33.52 33.52 0 00-5.51 5.46l4.3 3.4c1-1.26 3.54-4 7.66-8.11s7.35-7.23 9.86-9.33l-4.29-3.39-3.35 3.19c-1.79 1.68-3.26 3-4.33 3.82a19.94 19.94 0 01-7 3.47c-3.05.95-5 1-6 .3-.6-.48-.42-1.39.64-2.72 1.7-2.15 6.31-6.41 13.9-12.86l-4-3.17-4.24 3.7c-1.79 1.61-3.06 2.72-3.87 3.33a21 21 0 01-6.83 3.23c-3.06.94-5 1.06-5.88.36-.69-.55-.51-1.53.61-2.94a73.48 73.48 0 017.18-6.84c3.86-3.47 6.09-5.46 6.54-6l-4.46-3.52c-.54.69-2.89 2.91-7 6.59a75.44 75.44 0 00-7.9 7.66c-1.79 2.27-1.7 4.91.21 6.42 2.71 2.14 7 2 13-.5l.2.16a40 40 0 00-3 3c-1.7 2.15-1.49 4.22.34 5.66 2.55 2 7.46 1.88 13-.53zm-40.06-31.89a45.55 45.55 0 015.75-3.26 25 25 0 018.15-2.1c3.26-.37 5.28 0 6.08.91s.1 2.54-2.24 4.49a19 19 0 01-6.78 3.66 13.84 13.84 0 01-6.47.63 7.48 7.48 0 01-3.15-2.08 7 7 0 01-1.34-2.25m14.46-16.13q-4.25 3.14-10.91 7.5t-9.55 6a17.28 17.28 0 003.07 5.45 15.91 15.91 0 0011.67 6.06c4.6.27 9.12-1.5 13.64-5.27 3.21-2.69 4.15-6.16 2-8.7-1.29-1.55-3.3-2.42-6.07-2.67a22.57 22.57 0 00-8.87 1.15l-.13-.15a51.51 51.51 0 004.69-2.78 44.06 44.06 0 003.72-2.64zm-34.64-9.21A64.69 64.69 0 00388 467.3a47.49 47.49 0 0113.51-5.09c3.95-.73 6.28-.55 6.94.56a1.93 1.93 0 01.29 1.39 5.78 5.78 0 003.52-.65c1.11-.66 1.44-2.12.46-3.77-1.29-2.17-4.1-3-8.51-2.39A56 56 0 00389 462a11.13 11.13 0 01-2.66-4.48c1.33-.79 4.33-2.22 9-4.32s8-3.62 10.23-4.52l-2.95-5c-.87.46-4.45 2.23-10.76 5.26s-10.14 4.89-11.34 5.6m-6.3-22.54a44.65 44.65 0 016.49-1.3 25.27 25.27 0 018.39.55c3.22.67 5 1.62 5.5 2.77s-.7 2.45-3.53 3.57a19.11 19.11 0 01-7.59 1.35 13.82 13.82 0 01-6.34-1.43 7.38 7.38 0 01-2.35-3 7.15 7.15 0 01-.57-2.55M393 421.2q-5 1.65-12.7 3.71t-10.94 2.68a17.09 17.09 0 001.21 6.14 15.94 15.94 0 009.19 9.41c4.29 1.69 9.13 1.43 14.6-.74 3.89-1.55 5.87-4.56 4.65-7.63-.75-1.87-2.38-3.33-4.93-4.43a22.43 22.43 0 00-8.79-1.68l-.07-.2a48.45 48.45 0 005.31-1.16 42.93 42.93 0 004.36-1.35zm-6-24.56q-17.52 1.8-24.66 2.05l1.28 5.91c1.89-.3 5.14-.64 9.77-1a35.53 35.53 0 011.86 8.63c-4.25.39-7.53.63-9.83.7l1.28 6c7.65-1.07 15.84-1.78 24.65-2.15l-1.27-5.86c-2.87.41-6.61.74-11.24 1.06a36 36 0 01-1.84-8.68c1.5-.16 5.24-.45 11.29-.85zm-18.37-12.72a32.77 32.77 0 00-7.7-.92v5.47c1.6 0 5.32.31 11.11 1s10.23 1.28 13.43 1.95v-5.48l-4.55-.66c-2.43-.36-4.34-.72-5.68-1a20.11 20.11 0 01-7.09-3.35c-2.63-1.8-3.93-3.3-3.93-4.49 0-.78.83-1.19 2.53-1.19 2.74 0 8.94 1 18.71 2.92V373l-5.53-1c-2.37-.41-4-.72-5-1a20.72 20.72 0 01-6.77-3.35c-2.64-1.8-3.93-3.25-3.93-4.38 0-.88.87-1.35 2.68-1.35a77.68 77.68 0 019.82 1.38c5.12.88 8.06 1.39 8.73 1.44v-5.68c-.88 0-4.08-.46-9.51-1.39a77.07 77.07 0 00-10.9-1.43c-2.9 0-4.91 1.71-4.91 4.14 0 3.46 2.8 6.71 8.44 9.86v.25c-2.33-.35-3.72-.51-4.19-.51-2.74 0-4.23 1.45-4.23 3.78 0 3.25 3.16 7 8.48 9.86zm-2.1-55.79a64.49 64.49 0 00-3 14.53A47.74 47.74 0 01377 348c3.41 2.12 5 3.82 4.76 5.09a1.93 1.93 0 01-.73 1.22 5.76 5.76 0 003.05 1.89c1.26.26 2.49-.6 2.87-2.47.51-2.48-1-5-4.69-7.5a55.63 55.63 0 00-14.42-6.84 11 11 0 011-5.12c1.52.31 4.7 1.28 9.55 2.85s8.35 2.7 10.61 3.53l1.16-5.67c-.95-.24-4.79-1.34-11.5-3.34s-10.79-3.21-12.16-3.49m21.6-15.82a38.67 38.67 0 008.26 4.61l1.85-4.94a113.22 113.22 0 01-10.53-5c-5-2.6-8.76-4.74-11.39-6.39l-2 5.32a94 94 0 018.21 4.58 22 22 0 016 5.9c1.92 2.66 2.65 4.54 2.2 5.75-.39 1-1.46 1.21-3.15.58a82.81 82.81 0 01-8.43-4.45 86 86 0 00-7.88-4.29l-2 5.32c.92.35 3.72 1.84 8.31 4.46a96.15 96.15 0 009.11 4.7q5.22 2 6.91-2.53c.66-1.75.45-3.81-.67-6.28a24.88 24.88 0 00-4.91-7zm5.07-15.42c2.09-5.88 4.07-7.49 7.08-5.79a5.71 5.71 0 013 4.14 4.91 4.91 0 01-.85 3.08c-1.48 2.61-4.53 2.12-9.23-1.43m-2.17-1.66a11.11 11.11 0 01-4.52-6.07 4.71 4.71 0 01.67-2.95c1-1.84 2.29-2.38 3.73-1.56 2 1.12 2.65 3.81 2.13 6.31a27.83 27.83 0 01-2.01 4.27zm4.77-7.58c.47-3.23-.74-6.65-3.3-8.1s-5.44-.47-7.76 3.62c-4 7.06-1.57 14.31 8.86 20.22 5.21 2.95 8.8 2.38 11.48-2.34a12 12 0 001.57-8.85 8.9 8.9 0 00-4.17-6.17c-2.65-1.5-4.77-.91-6.46 1.75zm11.7-33.95c.08.14 1.55 1.69 4.41 4.8s5.51 5.9 8 8.46 4 4.13 4.78 4.83l3.43-4.14c-1.64-1.42-4.39-4.1-8.22-8.14s-6.82-7.32-9-9.87zm3 26.29a19.63 19.63 0 01-2.1-2.08 16.54 16.54 0 01-1.35-5 5.07 5.07 0 01.74-3.74c.73-.87 1.85-.69 3.32.53a10.72 10.72 0 013.75 6.73 5.15 5.15 0 01-1.2 3.56c-.87.99-1.93.99-3.17-.01zm-16-10.52c.7.78 2.8 3.18 6.19 7.27a70.66 70.66 0 007.24 7.86c2.75 2.28 5.19 2.08 7.4-.59a12.84 12.84 0 002.81-10.28 14.42 14.42 0 00-5.09-9.57c-2.43-2-4.76-1.87-6.51.24-1.58 1.91-2.25 6.05-1 10.3l-.14.09c-1-1.41-2.21-3.17-3.79-5.22a36.42 36.42 0 00-3.67-4.24zm21.94-24.76c2.95 1.09 6.95 2.85 11.95 5.32.57 6.36.86 11.66.94 15.92l4.22-3.57c-.42-2.82-.85-6.45-1.22-10.81l.16-.13c1.3.66 4.18 2.14 8.6 4.56l5.48-4.64a131.34 131.34 0 01-13.06-5.59c-.43-7.22-.6-12.22-.58-15l-4.15 3.5c.46 3.75.81 7.11 1 10.06l-.23.13c-3.95-1.87-6.62-3.27-8-4.08zm56.16-23.51a7.85 7.85 0 11-10-4.87 7.83 7.83 0 0110 4.87m142.98 298.17a7.85 7.85 0 11-10-4.87 7.86 7.86 0 0110 4.87m848.99 191.69a14.07 14.07 0 011.19-2.3 3.9 3.9 0 011.38-1.45c.74-.33 1.29-.06 1.64.75a3.71 3.71 0 01-.17 2.36 21.75 21.75 0 01-1.15 3.28 19.61 19.61 0 00-1 3.55 5.41 5.41 0 00.16 3 3.27 3.27 0 004.73 1.8 7.63 7.63 0 003-2.51 9.87 9.87 0 001.85-3.55 2.14 2.14 0 00-1.86-.89 7.4 7.4 0 01-1.13 2.27 4.15 4.15 0 01-1.52 1.48c-.81.35-1.4.07-1.79-.84a3.87 3.87 0 01.07-2.47 29.29 29.29 0 011.13-3.35 16.06 16.06 0 001-3.55 5.34 5.34 0 00-.16-3.1 3 3 0 00-4.24-1.55c-2 .87-3.91 3.34-4.89 6a2.06 2.06 0 001.76 1"/><path class="cls-4" d="M1490.19 699.59a43.51 43.51 0 00-10.06 1.44 32.83 32.83 0 01-.34 9.88c-.59 2.7-1.31 4.13-2.19 4.25a1.33 1.33 0 01-1-.18 3.89 3.89 0 00-.51 2.39c.12.88 1 1.48 2.26 1.29 1.71-.24 3-1.82 3.75-4.76a37.8 37.8 0 001.1-10.89 7.71 7.71 0 013.54-.5c.15 1 .26 3.33.36 6.82s.18 6 .17 7.67l3.92-.56c-.06-.67-.23-3.4-.48-8.2s-.42-7.7-.56-8.65m17.21 4.04a30.41 30.41 0 01-1.55 4.26 17.17 17.17 0 01-3.31 4.72c-1.54 1.65-2.74 2.37-3.58 2.23s-1.18-1.28-.83-3.34a13 13 0 011.91-4.92 9.47 9.47 0 013.1-3.21 5 5 0 012.57-.31 4.76 4.76 0 011.69.57m-.36 14.85q.81-3.53 2.35-8.76c1.06-3.49 1.83-5.94 2.33-7.37a11.81 11.81 0 00-4-1.47 10.91 10.91 0 00-8.78 2c-2.52 1.91-4.1 4.84-4.77 8.82-.48 2.83.57 5.06 2.81 5.44a5.83 5.83 0 004.35-1.31 15.57 15.57 0 004.12-4.54h.14a33.24 33.24 0 00-1.21 3.53 29.27 29.27 0 00-.77 3zm9.36-4.48c4.1 1.25 5.26 2.56 4.18 4.67a3.91 3.91 0 01-2.74 2.18 3.31 3.31 0 01-2.14-.49c-1.83-.93-1.59-3 .7-6.36m1.08-1.56a7.57 7.57 0 014-3.28 3.27 3.27 0 012 .37c1.29.66 1.7 1.5 1.18 2.51-.71 1.39-2.53 1.93-4.26 1.64a19.65 19.65 0 01-2.92-1.26zm5.33 3a5.48 5.48 0 005.45-2.51c1-1.89.16-3.74-2.71-5.2-5-2.53-9.85-.65-13.58 6.67-1.87 3.66-1.37 6.1 1.94 7.79a8.18 8.18 0 006.11.81 6.1 6.1 0 004.1-3c1-1.86.48-3.29-1.39-4.37zm9.69 20.29q9.43-7.53 13.47-10.32l-2.93-2.94c-1 .88-2.73 2.28-5.27 4.2a24.76 24.76 0 01-4.27-4.29c2.31-1.8 4.11-3.15 5.42-4l-3-3c-4 3.45-8.48 6.9-13.42 10.37l2.9 2.91c1.5-1.3 3.53-2.87 6.09-4.77a25.18 25.18 0 014.28 4.29c-.8.65-2.86 2.2-6.2 4.67zm9.03 2.86a12.25 12.25 0 018.23-1.3 3.8 3.8 0 011.78 1.76c.75 1.49 0 2.74-2.93 4.2-3.17 1.58-6.37 2-7.92 1.5a3.54 3.54 0 01-1.8-1.63c-.86-1.72 0-3.22 2.64-4.53m12.52 0a8.14 8.14 0 00-6.08-4.49 13.09 13.09 0 00-8.52 1.32c-3.81 1.9-4.65 5.05-3.12 8.13a7.89 7.89 0 005.67 4.37c2.62.56 5.56 0 8.83-1.59 3.51-1.75 4.86-4.44 3.21-7.73zm-3.11 15.68a9.79 9.79 0 015.22 1.26 3.89 3.89 0 011.09 2.14 2.07 2.07 0 01-1.85 2.41c-2.58.45-3.93-3.2-4.46-5.81m-9.49 3.3a10.36 10.36 0 003.28 6 2.51 2.51 0 001.61-1.07 6.8 6.8 0 01-1.25-1.83 10 10 0 01-.81-2.38q-.52-3 3.24-3.69a6.47 6.47 0 011.49-.11q2.6 9.68 7.57 8.82c2.34-.4 3.73-2.33 3.22-5.27a7.89 7.89 0 00-4.66-6 14.37 14.37 0 00-8.92-1c-3.67.66-5.38 3.01-4.77 6.53zm14.12 30.61c1 .22 1.86-.85 2.36-3.07 1.45-6.49-4.14-10.39-9.5-11.59-4-.89-6.49.8-7.27 4.29a8.71 8.71 0 00.64 5.59c1.08.2 1.76.06 2.11-.37a6.25 6.25 0 01-.3-3.37c.46-2 2-2.78 4.66-2.18 3.43.76 6.13 2.49 7.12 4a3.54 3.54 0 01.2 2.19 3.73 3.73 0 01-1.85 2.42 2.54 2.54 0 001.83 2m-11.53 2.58a12.21 12.21 0 015.79 6 3.76 3.76 0 01-.42 2.47c-.79 1.47-2.25 1.56-5.12 0-3.11-1.69-5.28-4.07-5.77-5.62a3.54 3.54 0 01.3-2.42c.91-1.68 2.64-1.83 5.22-.43m7.19 10.25a8.16 8.16 0 00.18-7.56 13.13 13.13 0 00-6-6.21c-3.74-2-6.81-.9-8.44 2.12a7.87 7.87 0 00-.33 7.15q1.57 3.69 6.38 6.31c3.49 1.87 6.46 1.43 8.22-1.81zm-14.44 8.08c.62 1.81.5 4.09-.42 5-1.2 1.15-2.74.72-4.69-1.29a11 11 0 01-3.16-6.55 3.49 3.49 0 011-2.23c1.15-1.11 2.72-.65 4.71 1.41a11.37 11.37 0 012.52 3.68m2.17.21c2.65 4.34 2.86 8 .63 11s-2.8 5-1.79 6.06a2.2 2.2 0 001.84.88 6.2 6.2 0 011.43-2.95 19.11 19.11 0 001.86-2.88c1.42-2.6 1.36-6.08.14-9.39a26.76 26.76 0 00-5.7-9c-3.46-3.59-6.77-3.45-9.12-1.19a7.88 7.88 0 00-2.35 6.85 12.26 12.26 0 003.55 7.4c2.48 2.58 5.4 2.85 7.47.86a8.26 8.26 0 001.86-7.45zm-25.07 21.83c0-.11-.44-1.51-1.24-4.29s-1.57-5.31-2.29-7.63-1.2-3.76-1.45-4.43l-3.37 1.49c.57 1.38 1.43 3.86 2.54 7.51s1.94 6.58 2.51 8.81zm6.22-17a14 14 0 01.65 1.92 11.71 11.71 0 01-.71 3.49 3.43 3.43 0 01-1.6 2.06c-.71.32-1.34-.14-1.87-1.34a7.33 7.33 0 01-.24-5.27 3.5 3.5 0 011.83-1.82c.84-.41 1.49-.1 1.91.9zm6.61 11.37c-.19-.69-.74-2.81-1.57-6.36a48.41 48.41 0 00-2-7c-1-2.23-2.55-2.86-4.72-1.9a8.8 8.8 0 00-4.87 5.44 9.89 9.89 0 00.19 7.44c.87 2 2.35 2.6 4.07 1.84 1.55-.69 3.23-3 3.77-6h.11c.17 1.17.38 2.62.73 4.36a25.86 25.86 0 001 3.73zm-28.51 3.57a22.8 22.8 0 00-.79 5.26l3.76.11c0-1.1.31-3.65.88-7.6s1.08-7 1.6-9.17l-3.75-.1-.55 3.1c-.3 1.66-.58 3-.82 3.88a13.87 13.87 0 01-2.43 4.79c-1.29 1.77-2.34 2.62-3.16 2.6-.53 0-.8-.59-.76-1.76.05-1.87.84-6.1 2.37-12.76l-3.51-.09-.81 3.76c-.33 1.62-.57 2.75-.77 3.42a14.14 14.14 0 01-2.43 4.57c-1.29 1.78-2.3 2.63-3.08 2.61-.6 0-.9-.63-.87-1.86a54.45 54.45 0 011.14-6.71c.7-3.48 1.11-5.49 1.16-6l-3.9-.11c0 .6-.39 2.79-1.13 6.49a50.87 50.87 0 00-1.2 7.44c0 2 1.08 3.4 2.74 3.44 2.37.07 4.66-1.78 6.92-5.58h.18a24.9 24.9 0 00-.43 2.85c-.06 1.88.91 2.93 2.5 3 2.23.06 4.87-2 6.92-5.62zm-31.99-11.74a26.41 26.41 0 003.54-5.44l-3.29-1.5a76.41 76.41 0 01-3.92 7c-2 3.29-3.65 5.77-4.9 7.5l3.54 1.62a64 64 0 013.52-5.41 15 15 0 014.32-3.83c1.9-1.19 3.22-1.6 4-1.23s.76 1 .25 2.18a58.54 58.54 0 01-3.43 5.55 59.78 59.78 0 00-3.31 5.19l3.55 1.62c.28-.61 1.43-2.46 3.43-5.48a63.13 63.13 0 003.64-6c1.06-2.32.59-3.93-1.41-4.85a5.59 5.59 0 00-4.32.17 16.79 16.79 0 00-5 3zm-11.09-3.94a9.85 9.85 0 01-4.86 2.27 4 4 0 01-2.19-1 2.06 2.06 0 010-3c1.74-2 5.07.06 7.1 1.77m5.37-8.5a10.45 10.45 0 00-6.33-2.69 2.48 2.48 0 00-.59 1.85 6.68 6.68 0 012.12.65 9.72 9.72 0 012.11 1.35c1.53 1.37 1.45 3-.24 4.91a6.45 6.45 0 01-1.09 1q-8.07-6-11.42-2.19c-1.58 1.77-1.46 4.15.76 6.13a7.88 7.88 0 007.38 1.77 14.29 14.29 0 007.62-4.74c2.42-2.8 2.3-5.7-.37-8.08zm-31.89-16.62a44.53 44.53 0 004.2 9.26 32.68 32.68 0 019.58-2.45c2.75-.19 4.33.1 4.69.91a1.33 1.33 0 01.09 1 4 4 0 002.45-.18c.81-.36 1.15-1.33.6-2.53-.71-1.58-2.57-2.33-5.62-2.27a38.53 38.53 0 00-10.76 2 7.57 7.57 0 01-1.47-3.26c1-.43 3.12-1.18 6.44-2.26s5.73-1.86 7.31-2.3l-1.63-3.62c-.63.25-3.2 1.18-7.73 2.77s-7.28 2.56-8.15 3m5.42-10.6a9.77 9.77 0 01-5.16-1.44 3.94 3.94 0 01-1-2.19 2 2 0 011.93-2.33c2.6-.36 3.82 3.34 4.24 6m9.61-3a10.34 10.34 0 00-3.06-6.16 2.5 2.5 0 00-1.64 1 6.88 6.88 0 011.18 1.88 9.65 9.65 0 01.72 2.41c.28 2-.85 3.22-3.37 3.57a7 7 0 01-1.5.06q-2.24-9.78-7.24-9.1c-2.35.32-3.81 2.2-3.41 5.15a7.87 7.87 0 004.45 6.15 14.37 14.37 0 008.87 1.36c3.66-.49 5.45-2.77 4.97-6.32zM1430.94 759a22.91 22.91 0 00-5-1.89l-.91 3.64c1.07.27 3.49 1.09 7.23 2.5s6.59 2.55 8.61 3.53l.91-3.64-2.92-1.2a53.1 53.1 0 01-3.61-1.63 13.9 13.9 0 01-4.15-3.41c-1.45-1.64-2.06-2.85-1.86-3.64.13-.52.74-.65 1.88-.37 1.82.45 5.78 2.13 11.95 5.06l.85-3.4-3.51-1.61c-1.51-.67-2.56-1.15-3.17-1.48a14.52 14.52 0 01-3.94-3.36c-1.45-1.64-2.07-2.81-1.88-3.57.14-.58.8-.75 2-.45a52.45 52.45 0 016.29 2.56c3.26 1.43 5.13 2.26 5.57 2.41l.94-3.78c-.58-.15-2.63-1-6.09-2.51a52.31 52.31 0 00-7-2.77c-1.92-.48-3.55.32-4 1.94-.57 2.3.74 4.93 4 8v.17a26.76 26.76 0 00-2.7-1c-1.82-.45-3 .26-3.44 1.81-.54 2.16.93 5.2 4 8zm12.16-34.2a32.24 32.24 0 013.08 3.34 17 17 0 012.66 5.11c.76 2.12.85 3.53.34 4.21s-1.68.46-3.35-.8a12.87 12.87 0 01-3.49-4 9.55 9.55 0 01-1.43-4.22 5.09 5.09 0 01.9-2.43 5 5 0 011.29-1.25m13 7.15q-2.76-2.34-6.7-6.11t-5.47-5.45a11.52 11.52 0 00-3.16 2.89 10.9 10.9 0 00-2.24 8.74c.54 3.11 2.42 5.86 5.64 8.29 2.3 1.72 4.76 1.81 6.13 0a5.82 5.82 0 00.83-4.47 15.38 15.38 0 00-2.14-5.74l.08-.12a34.37 34.37 0 002.58 2.7 30.19 30.19 0 002.34 2.07zm3.64-13.35a2.91 2.91 0 11-4-1 3 3 0 014 1m-211.55-239.75a42.33 42.33 0 01-.74-5.27 22.38 22.38 0 01.88-7.2c.74-2.82 1.63-4.38 2.61-4.7s2 .7 2.78 3.1a16.51 16.51 0 01.77 6.57 12.28 12.28 0 01-1.4 5.34 6.09 6.09 0 01-4.9 2.16m-7.9-16.32q2.81 12.42 5.25 28.66a6.58 6.58 0 002.26-.38 3.74 3.74 0 001.93-1 167 167 0 01-1.13-7.53 12.77 12.77 0 008.86-7.26q2.73-5.7.37-12.85c-1.08-3.26-3.45-5-6.09-4.09-1.59.52-2.87 1.85-3.9 3.94a19.38 19.38 0 00-1.81 7.24l-.16.06c-.08-1.2-.27-2.72-.56-4.56a30.4 30.4 0 00-.71-3.66zm21.29-6.24a88.88 88.88 0 015.07 10.09 55.22 55.22 0 013.62 9.91c-1.63 3.12-3.76 4.95-6.41 5.51a2.65 2.65 0 000 2.42 1.71 1.71 0 001.89 1.08c3.07-.35 6.94-4.67 9.53-12.38a58.25 58.25 0 002.46-9.13c.72-3.62 1.18-6.78 1.44-9.49l-4.14.47a66.11 66.11 0 01-.45 8.6 36.64 36.64 0 01-1.51 7.68h-.17a50.52 50.52 0 00-2.48-7.41c-1.27-3.22-2.47-5.89-3.53-8zm32.7 8.86a53.9 53.9 0 00-1.43 5.26 48.06 48.06 0 00-1 5.12l4.36.37a80.82 80.82 0 011.7-9c1-4.52 1.94-8.23 2.74-11.05l-4.71-.39a34.22 34.22 0 01-1.22 4.8 12.13 12.13 0 01-2.74 4.51c-1.28 1.4-2.41 2-3.31 2s-1.35-.89-1.22-2.43a25 25 0 011.1-4.9 24.48 24.48 0 001.07-4.47l-4.7-.4a32.84 32.84 0 01-1.1 4.86 30.82 30.82 0 00-1.15 5.54c-.26 3 .89 4.69 3.42 4.9 3 .25 5.7-1.29 8-4.67zm22.39 16.21c3.89-8.95 6.76-15.15 8.57-18.68l-4.8-1.48q-.82 2.23-3.25 7.47a29.77 29.77 0 01-7-2.17q2.17-4.84 3.5-7.4l-4.83-1.49q-3.51 8.94-8.49 18.7l4.76 1.47c.87-2.24 2.15-5.08 3.81-8.56a29.67 29.67 0 017 2.17c-.49 1.15-1.81 4-4 8.51zm25.02-6.96a36.71 36.71 0 01-3.55 4.19 20.73 20.73 0 01-5.74 4c-2.44 1.23-4.11 1.55-5 1s-.81-1.95.45-4.15a15.77 15.77 0 014.24-4.78 11.47 11.47 0 014.86-2.35 6.09 6.09 0 013 .71 5.78 5.78 0 011.69 1.37m-6.64 16.72q2.4-3.68 6.34-9t5.74-7.39a14.1 14.1 0 00-4-3.37 13.21 13.21 0 00-10.83-1.38c-3.66 1.11-6.68 3.78-9.11 8-1.74 3-1.47 6 .91 7.36a7.08 7.08 0 005.5.34 18.81 18.81 0 006.58-3.44l.15.08a41.85 41.85 0 00-2.86 3.51 36.65 36.65 0 00-2.14 3.12zm18.48 2.26c-3.11-2.11-3.79-4.51-2.27-6.2a6.55 6.55 0 013.72-2 6.62 6.62 0 012.87 1.31c.92.83 1.38 1.47 1.4 1.9l-1.5 1.35-2.41 2.11zm-4.34 9.71c.77-.87 3.15-3.06 7.09-6.61s6.68-5.88 8.13-7.05a13.56 13.56 0 00-3.51-4.49 11.51 11.51 0 00-7.1-3.21 7.09 7.09 0 00-6.07 2.33 4.61 4.61 0 00-.3 6l-.17.19a29.11 29.11 0 01-10 1.29 2.92 2.92 0 001.23 2.73c.93.83 2.52 1.11 4.75.81a28.26 28.26 0 007-1.83l1.78 1.61c-3 2.53-5 4.3-6 5.36zm12.86 12.42a43.13 43.13 0 015-1.85 22.36 22.36 0 017.22-.68c2.92.12 4.63.65 5.15 1.54s-.25 2.1-2.43 3.38a16.53 16.53 0 01-6.26 2.16 12.23 12.23 0 01-5.51-.23 6 6 0 01-3.15-4.32m14.25-11.21q-11.54 5.4-26.88 11.26a6.45 6.45 0 00.86 2.13 3.68 3.68 0 001.38 1.67c2.7-1.09 5.06-2 7.12-2.71a12.77 12.77 0 009 7.1q6.16 1.44 12.64-2.4c3-1.74 4.11-4.42 2.69-6.82-.85-1.44-2.42-2.41-4.69-3a19.39 19.39 0 00-7.45-.22l-.09-.15c1.15-.33 2.59-.84 4.33-1.52a31.3 31.3 0 003.42-1.47zm12.84 33.92a37.6 37.6 0 01-5.44.74 20.87 20.87 0 01-6.93-.89c-2.63-.72-4.09-1.6-4.41-2.58s.71-2 3.11-2.77a15.74 15.74 0 016.36-.73 11.39 11.39 0 015.18 1.51 6.06 6.06 0 011.79 2.58 5.85 5.85 0 01.34 2.14m-16.12 8q4.24-1.11 10.72-2.42t9.21-1.66a14.22 14.22 0 00-.69-5.14 13.21 13.21 0 00-7.13-8.28c-3.47-1.62-7.5-1.65-12.14-.13-3.31 1.08-5.1 3.47-4.24 6.08a7 7 0 003.85 3.92 18.58 18.58 0 007.2 1.85v.16a41.68 41.68 0 00-4.47.7c-1.82.37-3 .67-3.68.88zm14.13 7.83c2.19.76 4.28 2.58 4.44 4.11.2 2-1.36 3.16-4.73 3.51a13.25 13.25 0 01-8.6-1.87 4.27 4.27 0 01-1.36-2.67c-.19-1.92 1.41-3.08 4.87-3.43a13.65 13.65 0 015.38.35m1.83-1.92c6.11.71 9.73 3.23 10.92 7.59s2.68 6.41 4.43 6.23a2.65 2.65 0 002.22-1.1 7.49 7.49 0 01-1.75-3.57 22.79 22.79 0 00-1.35-3.91c-1.42-3.3-4.79-5.85-8.85-7.15a32.34 32.34 0 00-12.8-1.27c-6 .62-8.36 3.88-8 7.81a9.52 9.52 0 004.77 7.35 14.82 14.82 0 009.7 2.15c4.31-.44 6.77-3 6.41-6.48-.29-2.78-2.44-5.66-5.72-7.35zm-6.32 22c4.27.45 7.54 2.18 9.24 4a4.56 4.56 0 01.67 3c-.21 2-1.8 2.79-5.73 2.37-4.26-.45-7.79-2.12-9.06-3.64a4.26 4.26 0 01-.75-2.81c.24-2.3 2.11-3.27 5.65-2.89m12.77 8.17a9.83 9.83 0 00-3.28-8.55 15.86 15.86 0 00-9.56-4.2c-5.12-.55-8 2.12-8.47 6.26a9.49 9.49 0 002.93 8.16c2.3 2.27 5.65 3.66 10 4.13 4.75.47 7.89-1.4 8.36-5.83zM1385 599a28.41 28.41 0 005.67 3l1.66-4.24c-1.24-.48-4-1.85-8.29-4.12s-7.52-4.09-9.79-5.58l-1.66 4.23 3.31 1.9c1.77 1 3.14 1.87 4.09 2.52a16.84 16.84 0 014.45 4.74c1.49 2.19 2 3.74 1.68 4.66-.24.6-1 .67-2.32.15-2.12-.83-6.61-3.46-13.57-7.93l-1.55 4 4 2.47c1.72 1 2.9 1.78 3.58 2.28a17.16 17.16 0 014.22 4.64c1.49 2.2 2 3.71 1.71 4.58-.27.68-1.09.78-2.49.23a63.72 63.72 0 01-7.16-4c-3.69-2.22-5.81-3.52-6.32-3.76l-1.72 4.39c.68.27 3 1.6 6.93 4a63.73 63.73 0 008 4.42c2.24.87 4.31.16 5-1.71 1-2.68-.13-6-3.53-10.18l.08-.2c1.69 1 2.72 1.52 3.08 1.67 2.12.82 3.71.16 4.42-1.64 1-2.52-.32-6.39-3.57-10.19zm-17 39.48a38.11 38.11 0 01-3.72-4 21 21 0 01-3.24-6.19c-.91-2.57-1-4.27-.41-5.09s2-.57 4.06 1a15.67 15.67 0 014.23 4.79 11.54 11.54 0 011.73 5.12 6.23 6.23 0 01-1.08 2.94 5.83 5.83 0 01-1.57 1.5m-15.77-8.64q3.35 2.83 8.12 7.4t6.63 6.6a14.12 14.12 0 003.82-3.51 13.23 13.23 0 002.71-10.59c-.66-3.76-2.93-7.09-6.84-10-2.78-2.09-5.76-2.19-7.41 0a7 7 0 00-1 5.41 18.68 18.68 0 002.6 7l-.1.14a41.08 41.08 0 00-3.13-3.27c-1.34-1.28-2.29-2.09-2.83-2.51zm-40.97 29.14a41.34 41.34 0 01.44 5.3 22.25 22.25 0 01-1.29 7.13c-.9 2.78-1.87 4.28-2.87 4.55s-2-.81-2.6-3.26a16.36 16.36 0 01-.39-6.6 12.25 12.25 0 011.7-5.25 6.07 6.07 0 015-1.87m7 16.74q-2.09-12.56-3.6-28.92a6.63 6.63 0 00-2.28.26 3.68 3.68 0 00-2 .88c.33 2.89.56 5.4.7 7.59a12.75 12.75 0 00-9.26 6.73q-3 5.55-1.1 12.82c.89 3.31 3.15 5.15 5.85 4.43 1.61-.43 3-1.68 4.11-3.72a19.4 19.4 0 002.22-7.12h.17c0 1.19.11 2.72.29 4.58a34 34 0 00.5 3.68zm-21.67 5.01a91.69 91.69 0 01-4.48-10.37 55.09 55.09 0 01-3-10.1c1.81-3 4-4.73 6.72-5.14a2.65 2.65 0 00.13-2.41 1.71 1.71 0 00-1.83-1.19c-3.08.17-7.2 4.26-10.22 11.82a58.67 58.67 0 00-3 9 93.33 93.33 0 00-2 9.39l4.15-.23a68.48 68.48 0 011-8.56 36.8 36.8 0 012-7.58h.17a49.57 49.57 0 002.05 7.53c1.08 3.3 2.13 6 3.07 8.17zm-32.12-10.72a54.35 54.35 0 001.73-5.17 50.74 50.74 0 001.32-5.06l-4.33-.61a82 82 0 01-2.22 8.92c-1.28 4.45-2.4 8.1-3.36 10.87l4.68.66a35.28 35.28 0 011.49-4.73 12.18 12.18 0 013-4.34c1.35-1.32 2.52-1.89 3.41-1.77s1.29 1 1.08 2.5a25.37 25.37 0 01-1.38 4.83 24.5 24.5 0 00-1.32 4.4l4.67.66a32.7 32.7 0 011.37-4.78 32 32 0 001.47-5.47c.43-3-.63-4.73-3.14-5.08-3-.43-5.76 1-8.26 4.2zM1243 652.63q-6.58 13.07-9.61 18.16l4.7 1.76c.64-1.46 1.86-3.89 3.68-7.28a29.45 29.45 0 016.87 2.56q-2.45 4.71-3.91 7.19l4.74 1.77c2.67-5.83 5.84-11.88 9.53-18.2l-4.66-1.73c-1 2.19-2.44 4.95-4.3 8.33a29.9 29.9 0 01-6.87-2.56c.55-1.12 2-3.87 4.45-8.28zm-25.34 5.53a36.65 36.65 0 013.78-4 20.91 20.91 0 016-3.63c2.5-1.08 4.19-1.31 5-.75s.7 2-.69 4.11a15.7 15.7 0 01-4.5 4.54 11.46 11.46 0 01-5 2.07 6.29 6.29 0 01-3-.89 6 6 0 01-1.6-1.46m7.58-16.31q-2.61 3.52-6.85 8.59t-6.14 7a14.08 14.08 0 003.76 3.59 13.2 13.2 0 0010.73 2c3.72-.9 6.88-3.39 9.56-7.49 1.9-2.9 1.8-5.89-.5-7.39a7 7 0 00-5.46-.65 18.6 18.6 0 00-6.77 3.06l-.14-.1a43.92 43.92 0 003-3.33 34.5 34.5 0 002.31-3zm-18.23-3.32c3 2.29 3.52 4.72 1.91 6.32a6.43 6.43 0 01-3.83 1.8 6.8 6.8 0 01-2.79-1.46c-.87-.89-1.29-1.56-1.29-2l1.58-1.27 2.53-2zm4.89-9.44c-.82.82-3.32 2.87-7.46 6.19s-7 5.48-8.52 6.57a13.5 13.5 0 003.25 4.69 11.56 11.56 0 006.9 3.61 7.1 7.1 0 006.2-2 4.61 4.61 0 00.63-5.95l.19-.18a29.09 29.09 0 0110.1-.71 2.89 2.89 0 00-1.08-2.79c-.87-.89-2.45-1.26-4.69-1.09a28.72 28.72 0 00-7.11 1.42l-1.69-1.7c3.17-2.35 5.27-4 6.33-5zm-12.27-13.14a41.71 41.71 0 01-5.1 1.51 22 22 0 01-7.25.19c-2.89-.32-4.57-1-5-1.88s.4-2.08 2.66-3.21a16.39 16.39 0 016.38-1.73 12.2 12.2 0 015.49.6 6 6 0 012.85 4.52m-15 10.23q11.86-4.6 27.58-9.42a6.51 6.51 0 00-.72-2.19 3.66 3.66 0 00-1.27-1.76c-2.76.91-5.17 1.65-7.28 2.23a12.76 12.76 0 00-8.48-7.69q-6.06-1.86-12.78 1.53c-3.06 1.54-4.4 4.14-3.14 6.63.75 1.49 2.25 2.56 4.48 3.27a19.37 19.37 0 007.42.72l.08.16c-1.17.25-2.65.66-4.43 1.22a33.29 33.29 0 00-3.51 1.24zm-10.71-34.42a36.34 36.34 0 015.48-.43 20.66 20.66 0 016.86 1.28c2.59.87 4 1.83 4.26 2.83s-.82 1.94-3.26 2.59a15.83 15.83 0 01-6.39.36 11.38 11.38 0 01-5.09-1.8 6.09 6.09 0 01-1.64-2.67 6 6 0 01-.22-2.16m16.55-7q-4.29.87-10.84 1.81t-9.28 1.12a14 14 0 00.39 5.18 13.23 13.23 0 006.65 8.67c3.36 1.81 7.38 2.08 12.11.83 3.36-.89 5.28-3.18 4.58-5.83a7 7 0 00-3.63-4.14 18.69 18.69 0 00-7.07-2.26l-.05-.16a41.34 41.34 0 004.5-.44 37.74 37.74 0 003.73-.67zm-13.66-8.75c-2.14-.89-4.12-2.82-4.19-4.36-.09-2 1.54-3.08 4.92-3.23a13.2 13.2 0 018.48 2.36 4.18 4.18 0 011.2 2.74c.09 1.92-1.58 3-5 3.15a13.93 13.93 0 01-5.36-.66m-1.93 1.8c-6.06-1.05-9.53-3.77-10.46-8.2s-2.32-6.55-4.08-6.47a2.67 2.67 0 00-2.27 1 7.53 7.53 0 011.54 3.66 23 23 0 001.12 4c1.23 3.38 4.45 6.11 8.42 7.64a32.32 32.32 0 0012.72 2c6-.27 8.56-3.39 8.38-7.33a9.54 9.54 0 00-4.34-7.62 14.82 14.82 0 00-9.57-2.7c-4.32.19-6.92 2.63-6.76 6.1.13 2.79 2.11 5.79 5.29 7.66zm7.51-21.53c-4.23-.7-7.4-2.61-9-4.56a4.63 4.63 0 01-.51-3c.33-2 2-2.68 5.86-2 4.23.69 7.66 2.56 8.84 4.14a4.34 4.34 0 01.61 2.89c-.37 2.28-2.3 3.14-5.81 2.57m-12.28-8.89a9.84 9.84 0 002.79 8.72 15.84 15.84 0 009.3 4.74c5.08.84 8.15-1.66 8.82-5.77a9.54 9.54 0 00-2.46-8.31c-2.17-2.4-5.44-4-9.8-4.69-4.69-.82-7.92.89-8.64 5.27zm11.3-16.19a27.72 27.72 0 00-5.48-3.37l-1.9 4.13c1.21.56 3.91 2.08 8 4.59s7.28 4.51 9.46 6.13l1.9-4.13-3.2-2.08c-1.71-1.12-3-2-3.93-2.75a16.76 16.76 0 01-4.18-5c-1.37-2.27-1.82-3.85-1.41-4.75.27-.58 1-.61 2.32 0 2.07 1 6.41 3.84 13.1 8.7l1.77-3.86-3.82-2.7c-1.65-1.13-2.79-1.94-3.44-2.47a17.47 17.47 0 01-4-4.88c-1.36-2.27-1.83-3.81-1.44-4.67.31-.66 1.13-.71 2.49-.08a62.8 62.8 0 016.93 4.45c3.56 2.43 5.6 3.84 6.09 4.11l2-4.29c-.66-.3-2.91-1.76-6.69-4.34a63.8 63.8 0 00-7.72-4.87c-2.19-1-4.3-.41-5.14 1.42-1.2 2.62-.22 6 2.94 10.37l-.09.19a32.88 32.88 0 00-3-1.84c-2.06-1-3.69-.37-4.5 1.38-1.13 2.46 0 6.4 3 10.38zm19.33-38.46a37.76 37.76 0 013.49 4.24 20.65 20.65 0 012.87 6.37c.77 2.61.78 4.32.12 5.1s-2.06.45-4-1.19a15.73 15.73 0 01-3.94-5 11.37 11.37 0 01-1.44-5.21 6.23 6.23 0 011.26-2.87 5.72 5.72 0 011.64-1.41m15.25 9.54q-3.16-3-7.68-7.86t-6.24-7a14.18 14.18 0 00-4 3.29 13.23 13.23 0 00-3.31 10.41c.44 3.79 2.52 7.24 6.25 10.4 2.65 2.25 5.63 2.52 7.4.43a7.07 7.07 0 001.33-5.35 18.77 18.77 0 00-2.2-7.09l.11-.13a41 41 0 002.93 3.44 36.42 36.42 0 002.69 2.67zM1342.8 649a4.74 4.74 0 11-6.39-2 4.76 4.76 0 016.39 2M1228 480.58a4.74 4.74 0 01-8.39 4.41 4.76 4.76 0 012-6.41 4.71 4.71 0 016.39 2m-196.67-293.12a70.65 70.65 0 011.35 13c.11 5-.18 8.53-.92 10.57l4.32-1.17a43.75 43.75 0 00.1-7.71 54.28 54.28 0 00-1.35-9.91l.28-.08a73.46 73.46 0 003.71 6.48c1.87 3 3.16 5.22 3.89 6.62a4.73 4.73 0 002.93-1.34 212.24 212.24 0 003.36-15.53l.19-.06c.5 3.31 1.55 9 3.2 17.09l4.64-1.26q-1.47-5.65-4.61-22.44l-4.87 1.32c-.77 4.15-1.88 9.24-3.38 15.29l-.28.07c-3.07-5.25-5.59-9.35-7.45-12.34zm44.73-3.38a41.87 41.87 0 01-1.17 6.06 23.68 23.68 0 01-3.45 7c-1.72 2.53-3.17 3.76-4.33 3.75s-1.86-1.47-1.83-4.31a17.85 17.85 0 011.52-7 13 13 0 013.48-5 6.92 6.92 0 013.38-1 6.74 6.74 0 012.4.41m2.67 20q.35-4.91 1.29-12.26t1.56-10.38a15.9 15.9 0 00-5.72-1.12 14.76 14.76 0 00-11.36 4.59c-3 3.09-4.47 7.36-4.53 12.85 0 3.9 1.85 6.66 4.93 6.7 1.88 0 3.72-.88 5.57-2.68a21 21 0 004.56-7h.19a49.37 49.37 0 00-.88 5c-.26 2.06-.37 3.46-.38 4.23zm25.46-16.18c.31-1.31-1.13-2.54-4.13-3.25-8.8-2.08-14.19 5.45-15.91 12.71-1.27 5.39 1 8.84 5.71 10a11.88 11.88 0 007.6-.78c.3-1.46.13-2.4-.45-2.88a8.5 8.5 0 01-4.59.35c-2.76-.65-3.75-2.76-2.89-6.37 1.09-4.64 3.48-8.28 5.63-9.6a4.76 4.76 0 013-.24 5.08 5.08 0 013.26 2.55 3.44 3.44 0 002.8-2.45m9.04 9.48a31.2 31.2 0 004.31-5.81l-4.44-2.52c-.74 1.29-2.7 4.16-5.91 8.54s-5.77 7.68-7.79 10l4.44 2.52 2.64-3.37c1.41-1.8 2.58-3.18 3.45-4.12a18.75 18.75 0 016-4.18c2.68-1.3 4.48-1.66 5.45-1.11.62.36.58 1.22-.21 2.6-1.26 2.21-4.91 6.78-11 13.78l4.14 2.36 3.39-4c1.43-1.73 2.44-2.93 3.11-3.6a19.24 19.24 0 015.84-3.94c2.67-1.3 4.44-1.67 5.36-1.15.71.41.68 1.33-.15 2.8a71.46 71.46 0 01-5.66 7.3c-3.07 3.74-4.84 5.88-5.19 6.4l4.6 2.62c.4-.71 2.26-3.09 5.51-7a70.33 70.33 0 006.2-8.16c1.33-2.34.88-4.76-1.08-5.88-2.81-1.6-6.73-.84-11.88 2.27l-.21-.12a35.54 35.54 0 002.35-3.15c1.27-2.22.78-4.1-1.1-5.17-2.63-1.5-7.14-.69-11.89 2.31zm28.24 23.58a13.24 13.24 0 016.85-2.48 5.33 5.33 0 012.84 1.62 2.79 2.79 0 01-.29 4.11c-2.6 2.44-6.86-.69-9.4-3.25m-8.31 10.84a14 14 0 008.24 4.41 3.42 3.42 0 001-2.42 9 9 0 01-2.79-1.14 13.38 13.38 0 01-2.7-2.09q-2.87-3.06.92-6.62a9 9 0 011.61-1.24q10.18 9 15.19 4.35c2.35-2.2 2.49-5.43-.28-8.38a10.71 10.71 0 00-9.78-3.3 19.56 19.56 0 00-10.9 5.48c-3.65 3.46-3.84 7.41-.51 10.95zm13.87 11.57a45.81 45.81 0 015.63-2 24.87 24.87 0 018.11-.63c3.27.19 5.18.82 5.75 1.82s-.33 2.35-2.79 3.75a18.48 18.48 0 01-7.06 2.3 13.6 13.6 0 01-6.18-.35 6.78 6.78 0 01-3.46-4.9m16.19-12.31q-13 5.85-30.37 12.15a7.71 7.71 0 00.93 2.41 4.19 4.19 0 001.53 1.9c3-1.18 5.7-2.14 8-2.92a14.34 14.34 0 0010 8.13q6.89 1.72 14.23-2.45c3.35-1.91 4.69-4.89 3.14-7.61-.92-1.63-2.67-2.75-5.2-3.41a21.61 21.61 0 00-8.37-.38l-.09-.17q1.93-.52 4.89-1.62a38.43 38.43 0 003.86-1.59zm18.1 49.72a38.76 38.76 0 01-6.41-3.26c-2.83-1.66-4.28-2.74-4.37-3.26l-.12-.71c2-.1 5.25-.11 9.65-.13l-.92-5.41c-7.12.63-14.79.91-23 .9l.92 5.36c6.13-.41 9.85-.65 11.21-.69l.12.71c.11.67-.85 1.32-2.49 2.33a43.42 43.42 0 00-4.31 3c-2.58 2.05-3.57 3.44-3.29 5.1a10.21 10.21 0 001.5 3.65c1.57-2 5.25-5 10.94-9.18l11.61 7.39z"/><path class="cls-4" d="M1181 310.7a60.64 60.64 0 001-13.78 44.55 44.55 0 01-13.05-3.27c-3.42-1.54-5.11-2.91-5-4.11a1.74 1.74 0 01.52-1.22 5.41 5.41 0 00-3-1.37c-1.2-.08-2.23.86-2.35 2.64-.16 2.35 1.57 4.45 5.26 6.34a51.46 51.46 0 0014.16 4.55 10.38 10.38 0 01-.34 4.85c-1.44-.1-4.49-.6-9.16-1.45s-8.06-1.47-10.24-2l-.37 5.38c.91.11 4.58.65 11 1.68s10.36 1.63 11.65 1.72m-8.96 21.26a42.84 42.84 0 01-5.44-2.91 23.28 23.28 0 01-5.7-5.38c-1.92-2.38-2.67-4.14-2.31-5.24s1.95-1.35 4.65-.48a17.78 17.78 0 016.25 3.53 12.8 12.8 0 013.72 4.79 7 7 0 01-.07 3.51 6.69 6.69 0 01-1.1 2.18m-19.91-3.37q4.59 1.79 11.34 4.86T1173 338a16 16 0 002.76-5.13 14.85 14.85 0 00-1-12.22c-2.08-3.75-5.72-6.44-11-8.12-3.71-1.19-6.91-.2-7.85 2.74-.58 1.79-.27 3.81.92 6.11a21 21 0 005.32 6.41l-.06.19a48.82 48.82 0 00-4.52-2.32 40.8 40.8 0 00-3.93-1.61zm8.06 29.14c1.16.69 2.76-.33 4.33-3 4.58-7.81-1-15.18-7.46-19-4.77-2.8-8.73-1.67-11.2 2.52a11.92 11.92 0 00-1.5 7.5c1.31.71 2.25.82 2.89.41a8.53 8.53 0 011-4.49c1.44-2.44 3.75-2.76 7-.89 4.11 2.42 6.88 5.78 7.51 8.22a4.77 4.77 0 01-.65 2.91 5.11 5.11 0 01-3.4 2.36 3.44 3.44 0 001.52 3.4M1146.2 374c1 .89 2.77.21 4.82-2.1 6-6.77 1.93-15.09-3.66-20-4.14-3.67-8.24-3.32-11.47.31a11.89 11.89 0 00-2.92 7.07c1.15.95 2 1.24 2.75 1a8.52 8.52 0 011.87-4.21c1.88-2.12 4.21-2 7 .47 3.57 3.17 5.64 7 5.79 9.51a4.74 4.74 0 01-1.2 2.73 5.07 5.07 0 01-3.79 1.66 3.47 3.47 0 00.83 3.64m-35.7 24.28a70.1 70.1 0 01-1.67-13c-.24-5 0-8.54.65-10.6l-4.29 1.28a45 45 0 00.1 7.71 53.86 53.86 0 001.59 9.88l-.28.08q-.94-1.9-3.86-6.38c-2-3-3.3-5.15-4.06-6.53a4.75 4.75 0 00-2.9 1.42c-1.25 5.4-2.2 10.61-3 15.61l-.18.06q-.87-4.95-3.63-17l-4.61 1.38q1.6 5.63 5.17 22.32l4.84-1.44c.66-4.17 1.64-9.29 3-15.37l.28-.08c3.2 5.17 5.82 9.21 7.75 12.15zm-44.62 4.5a41.93 41.93 0 011-6.08 23.41 23.41 0 013.28-7.13c1.65-2.57 3.07-3.84 4.23-3.86s1.9 1.42 1.93 4.26a17.62 17.62 0 01-1.34 7.05 13 13 0 01-3.35 5 7 7 0 01-3.36 1.06 6.75 6.75 0 01-2.41-.35m-3.16-19.94q-.23 4.92-1 12.29t-1.3 10.42a16.16 16.16 0 005.74 1 14.85 14.85 0 0011.25-4.88c2.89-3.17 4.28-7.47 4.2-13-.05-3.9-2-6.61-5.1-6.57-1.87 0-3.69 1-5.49 2.82a20.73 20.73 0 00-4.38 7.09h-.2a44.15 44.15 0 00.75-5 39.63 39.63 0 00.28-4.24zm-25.06 16.95c-.28 1.32 1.19 2.52 4.21 3.15 8.86 1.87 14.06-5.8 15.6-13.1 1.14-5.42-1.2-8.81-6-9.81a11.83 11.83 0 00-7.58 1c-.26 1.47-.06 2.4.53 2.87a8.54 8.54 0 014.57-.47c2.78.59 3.82 2.68 3 6.3-1 4.67-3.28 8.36-5.39 9.74a4.78 4.78 0 01-3 .31 5.08 5.08 0 01-3.31-2.47 3.44 3.44 0 00-2.75 2.52m-9.16-9.31a31.24 31.24 0 00-4.16 5.91l4.5 2.41c.7-1.31 2.6-4.23 5.7-8.69s5.58-7.82 7.58-10.18l-4.49-2.41-2.56 3.44c-1.37 1.83-2.51 3.24-3.35 4.21a19.08 19.08 0 01-5.88 4.33c-2.64 1.36-4.44 1.76-5.42 1.24-.64-.34-.61-1.2.14-2.6 1.21-2.25 4.75-6.91 10.66-14.06l-4.2-2.25-3.28 4.08c-1.39 1.77-2.37 3-3 3.68a19.53 19.53 0 01-5.74 4.08c-2.64 1.36-4.4 1.78-5.33 1.28-.72-.38-.72-1.31.08-2.79a70 70 0 015.47-7.45c3-3.81 4.7-6 5-6.53l-4.67-2.5c-.39.72-2.18 3.14-5.33 7.19a70.62 70.62 0 00-6 8.31c-1.27 2.37-.76 4.78 1.23 5.85 2.84 1.53 6.75.67 11.82-2.56l.21.11a37 37 0 00-2.27 3.21c-1.21 2.24-.68 4.11 1.23 5.14 2.67 1.43 7.16.51 11.83-2.61zm-28.81-22.87a13.31 13.31 0 01-6.79 2.64 5.34 5.34 0 01-2.88-1.54 2.8 2.8 0 01.19-4.12c2.53-2.51 6.87.52 9.48 3m8-11.05a14.12 14.12 0 00-8.35-4.21 3.43 3.43 0 00-1 2.45 9 9 0 012.82 1.07 13 13 0 012.75 2q2.94 3-.76 6.63a8.32 8.32 0 01-1.57 1.28q-10.41-8.79-15.29-4c-2.3 2.27-2.35 5.5.49 8.38a10.7 10.7 0 009.85 3 19.54 19.54 0 0010.76-5.75c3.66-3.46 3.73-7.38.33-10.83zm-14.14-11.22a47.7 47.7 0 01-5.58 2.13 25 25 0 01-8.1.83c-3.27-.11-5.19-.69-5.79-1.68s.27-2.35 2.7-3.82a18.34 18.34 0 017-2.47 13.54 13.54 0 016.19.2 6.85 6.85 0 013.58 4.81m-15.89 12.73q12.9-6.18 30.06-12.89a7.55 7.55 0 00-1-2.39 4.14 4.14 0 00-1.6-1.84c-3 1.25-5.65 2.28-8 3.11a14.33 14.33 0 00-10.15-7.88q-6.91-1.56-14.16 2.8c-3.3 2-4.57 5-2.95 7.69 1 1.6 2.73 2.67 5.29 3.27a21.6 21.6 0 008.37.18l.1.17q-1.94.57-4.85 1.74a38.56 38.56 0 00-3.82 1.68zm-19.31-49.24a39 39 0 016.49 3.09c2.87 1.6 4.35 2.64 4.45 3.15l.14.71c-2 .16-5.25.25-9.64.38l1.06 5.38c7.1-.81 14.76-1.28 23-1.48l-1-5.33c-6.12.56-9.83.9-11.19 1l-.14-.71c-.13-.66.82-1.34 2.43-2.39a44.75 44.75 0 004.24-3.14c2.52-2.11 3.47-3.53 3.15-5.18a10.1 10.1 0 00-1.59-3.61c-1.52 2-5.12 5.17-10.7 9.46l-11.8-7.11z"/><path class="cls-4" d="M957.87 278.89a60.62 60.62 0 00-.61 13.8 44.66 44.66 0 0113.12 2.94c3.46 1.46 5.18 2.78 5.13 4a1.81 1.81 0 01-.49 1.23 5.4 5.4 0 003.08 1.29c1.2.05 2.21-.91 2.28-2.69.11-2.36-1.68-4.41-5.41-6.22A51.52 51.52 0 00960.7 289a10.41 10.41 0 01.22-4.86c1.44.06 4.5.49 9.19 1.22s8.09 1.28 10.29 1.71l.24-5.39q-1.38-.12-11.07-1.4c-6.52-.91-10.4-1.37-11.7-1.43m8.32-21.41a42.35 42.35 0 015.51 2.77 23.41 23.41 0 015.83 5.23c2 2.34 2.77 4.08 2.44 5.19s-1.91 1.39-4.64.59a17.69 17.69 0 01-6.33-3.37 12.89 12.89 0 01-3.84-4.69 6.87 6.87 0 010-3.52 6.63 6.63 0 011.05-2.2m20 2.87q-4.62-1.67-11.45-4.58t-9.56-4.32a15.89 15.89 0 00-2.64 5.2 14.84 14.84 0 001.33 12.18c2.17 3.7 5.88 6.3 11.14 7.85 3.74 1.1 6.92 0 7.79-2.93.53-1.8.17-3.81-1.07-6.08a21 21 0 00-5.48-6.28l.06-.19a45.78 45.78 0 004.57 2.2 41.2 41.2 0 004 1.52zm-8.82-28.92c-1.18-.65-2.75.4-4.25 3.1-4.39 7.91 1.4 15.14 7.93 18.76 4.84 2.69 8.77 1.45 11.13-2.8a11.81 11.81 0 001.31-7.53c-1.33-.68-2.27-.76-2.89-.34a8.53 8.53 0 01-.91 4.51c-1.38 2.49-3.68 2.86-6.92 1.06-4.16-2.31-7-5.6-7.71-8a4.75 4.75 0 01.57-2.93 5.1 5.1 0 013.34-2.44 3.45 3.45 0 00-1.6-3.37m13.67-16.62c-1-.87-2.78-.14-4.77 2.22-5.83 6.91-1.55 15.13 4.16 19.94 4.23 3.57 8.32 3.12 11.46-.6a11.88 11.88 0 002.74-7.14c-1.17-.92-2.08-1.19-2.78-.89a8.48 8.48 0 01-1.75 4.25c-1.83 2.17-4.16 2.1-7-.29-3.64-3.08-5.81-6.85-6-9.36a4.8 4.8 0 011.13-2.77 5.11 5.11 0 013.75-1.75 3.44 3.44 0 00-.92-3.61m26.46-8.86a6 6 0 11-8.06-2.53 5.95 5.95 0 018.06 2.53m114.22 168.52a6 6 0 11-8.11-2.53 6 6 0 018.11 2.53M988.27 710.94a20.74 20.74 0 01-1.89 3.25c-1 1.43-1.56 2.16-1.84 2.19h-.38c0-1.07.1-2.75.23-5l-2.86.32c.12 3.74 0 7.76-.22 12.07l2.83-.31v-5.88l.38-.05c.35 0 .66.49 1.14 1.37a22.2 22.2 0 001.46 2.35c1 1.41 1.69 2 2.56 1.87a5.17 5.17 0 002-.68 33.48 33.48 0 01-4.48-6l4.22-5.85zm7.14 7.78a8.75 8.75 0 012.63-5.31 2.68 2.68 0 011.76-.31c1.17.18 1.58 1.13 1.23 3.43-.39 2.49-1.46 4.51-2.39 5.21a2.56 2.56 0 01-1.69.38c-1.34-.21-1.86-1.34-1.54-3.4m5.15-7.26a5.75 5.75 0 00-5.1 1.68 9.33 9.33 0 00-2.74 5.49c-.46 3 1 4.78 3.44 5.15a5.58 5.58 0 004.87-1.49 9.52 9.52 0 002.7-5.78c.43-2.76-.58-4.65-3.17-5.05zm11.8 17.12c3-4.91 5.11-8.3 6.44-10.22l-2.68-1.23c-.44.82-1.26 2.19-2.48 4.1a17.61 17.61 0 01-3.91-1.8q1.63-2.65 2.61-4l-2.7-1.25q-2.73 4.93-6.38 10.24l2.65 1.22c.68-1.24 1.65-2.79 2.88-4.69a17.21 17.21 0 013.92 1.81c-.38.63-1.36 2.17-3 4.65zm16.21-2.47a19.75 19.75 0 01-3.67.83q-2.54.42-2.85.15l-.28-.24c.78-.73 2.07-1.81 3.84-3.28l-2.18-1.87c-2.66 2.63-5.65 5.31-9 8.07l2.16 1.85c2.33-2.22 3.75-3.56 4.28-4l.29.25c.27.23.1.81-.22 1.77a20.51 20.51 0 00-.72 2.66c-.36 1.69-.29 2.58.38 3.15a5.2 5.2 0 001.83 1 33.7 33.7 0 011.33-7.36l7.15-.9zm3.84 3.96a55.31 55.31 0 01-3.78 5.45 33 33 0 01-4.09 4.66 5.65 5.65 0 01-4.65-1.76 1.56 1.56 0 00-1.25.69 1 1 0 000 1.28c1 1.48 4.36 2.26 9.07 1.43a34.79 34.79 0 005.4-1.3 55.25 55.25 0 005.29-1.93l-1.4-2a39.45 39.45 0 01-4.56 2.19 22.48 22.48 0 01-4.39 1.38l-.06-.08a31.14 31.14 0 003.13-3.36c1.3-1.57 2.34-2.94 3.12-4.07zm-1.64 17.4a22.07 22.07 0 013.07-.53 12.81 12.81 0 014.25.38c1.67.38 2.6.87 2.81 1.44s-.38 1.18-1.77 1.69a9.66 9.66 0 01-3.85.57 7.05 7.05 0 01-3.16-.72 3.54 3.54 0 01-1.35-2.83m9.43-5q-7.25 1.88-16.73 3.62a3.72 3.72 0 00.26 1.32 2.2 2.2 0 00.63 1.12c1.67-.35 3.13-.61 4.4-.81a7.48 7.48 0 004.42 5.07 9.88 9.88 0 007.56 0c1.9-.7 2.85-2.12 2.29-3.66a4.13 4.13 0 00-2.39-2.21 11.46 11.46 0 00-4.29-.93v-.1a26.54 26.54 0 002.67-.41 19.35 19.35 0 002.13-.48zm4.11 22.01c.7-.07 1.07-1 .9-2.6-.48-4.71-5.12-6.09-9-5.7-2.88.29-4.21 2-4 4.53a6.23 6.23 0 001.69 3.63c.77-.1 1.2-.35 1.34-.72a4.56 4.56 0 01-1-2.21c-.15-1.48.73-2.32 2.66-2.52a8.46 8.46 0 015.71 1.14 2.44 2.44 0 01.63 1.43 2.69 2.69 0 01-.7 2 1.79 1.79 0 001.69 1m-4.07 22.73a19.78 19.78 0 01-2-3.17c-.83-1.51-1.2-2.38-1.1-2.64l.13-.35c.95.5 2.4 1.35 4.39 2.51l1-2.68c-3.37-1.61-6.9-3.53-10.62-5.74l-1 2.66c2.87 1.45 4.62 2.33 5.24 2.68l-.14.35c-.12.33-.73.37-1.74.39a23.11 23.11 0 00-2.75.21c-1.71.24-2.52.6-2.84 1.43a5.35 5.35 0 00-.3 2 34.28 34.28 0 017.38-1.22l3.26 6.43zM1030 790a8.71 8.71 0 013.52 4.76 2.66 2.66 0 01-.52 1.71c-.7 1-1.74.89-3.61-.47-2-1.48-3.35-3.37-3.55-4.51a2.51 2.51 0 01.43-1.67c.8-1.1 2-1 3.73.18m4.11 7.9a5.76 5.76 0 00.83-5.31 9.33 9.33 0 00-3.64-5c-2.44-1.77-4.71-1.27-6.14.71a5.59 5.59 0 00-.9 5 9.53 9.53 0 003.91 5c2.24 1.7 4.38 1.7 5.92-.42zm-20.65 2.66q4.51 7.32 6.14 10.4l2.33-1.82q-.81-1.14-2.52-4.08a17.51 17.51 0 013.4-2.65q1.61 2.67 2.39 4.17l2.35-1.83c-2.1-3.13-4.15-6.58-6.18-10.36l-2.31 1.8c.79 1.17 1.73 2.74 2.85 4.71a17.4 17.4 0 01-3.39 2.65q-.59-.93-2.77-4.77zm-5.22 15.51a19.24 19.24 0 01.94-3.65c.53-1.63.92-2.49 1.18-2.6l.35-.14c.28 1 .65 2.68 1.15 4.92l2.66-1.08q-1.68-5.35-3-11.68l-2.64 1.07c.9 3.09 1.44 5 1.61 5.66l-.35.14c-.32.13-.77-.29-1.47-1a21.41 21.41 0 00-2-1.87c-1.34-1.09-2.16-1.44-3-1.1a5.3 5.3 0 00-1.7 1.17 34.11 34.11 0 015.93 4.56l-2.48 6.77zm-5.24 1.59a53.94 53.94 0 01-3.13-5.85 32.72 32.72 0 01-2.28-5.76 5.66 5.66 0 013.69-3.34 1.58 1.58 0 000-1.42 1 1 0 00-1.13-.61c-1.8.25-4 2.85-5.41 7.42a33.71 33.71 0 00-1.31 5.4 55.49 55.49 0 00-.7 5.59l2.42-.33a39.47 39.47 0 01.14-5.06 21.31 21.31 0 01.77-4.54h.1a29.55 29.55 0 001.56 4.31c.8 1.88 1.55 3.43 2.2 4.63zm-14.75-9.4a24.86 24.86 0 01-.94 3 13.21 13.21 0 01-2.28 3.6c-1.11 1.31-2 1.91-2.57 1.84s-.88-.88-.69-2.35a9.53 9.53 0 011.25-3.68 7.17 7.17 0 012.09-2.48 3.58 3.58 0 013.14.09m.08 10.65q1.63-7.29 4.44-16.53a3.8 3.8 0 00-1.3-.37 2.23 2.23 0 00-1.27 0c-.47 1.65-.9 3.07-1.31 4.29a7.5 7.5 0 00-6.53 1.61 9.87 9.87 0 00-3.43 6.73c-.26 2 .57 3.5 2.2 3.71a4.15 4.15 0 003.06-1.11 11.57 11.57 0 002.79-3.39h.1c-.26.65-.55 1.5-.86 2.55a19.93 19.93 0 00-.54 2.12zm-21.39-6.42c-.26.65.4 1.4 1.9 2 4.4 1.74 7.76-1.76 9.19-5.4 1.06-2.69.16-4.65-2.21-5.58a6.19 6.19 0 00-4-.17c-.26.74-.24 1.23 0 1.53a4.42 4.42 0 012.4.16c1.39.54 1.74 1.71 1 3.52a8.47 8.47 0 01-3.64 4.55 2.52 2.52 0 01-1.56-.1 2.64 2.64 0 01-1.49-1.56 1.78 1.78 0 00-1.64 1.06m-18.26-14.07a20.19 20.19 0 013.75-.35c1.71-.05 2.66 0 2.84.22l.25.29c-.87.61-2.29 1.51-4.23 2.74l1.91 2.14c3-2.26 6.3-4.52 10-6.82l-1.9-2.12c-2.6 1.89-4.18 3-4.77 3.43l-.26-.28c-.23-.26 0-.82.45-1.73a22.41 22.41 0 001.07-2.54c.57-1.63.62-2.52 0-3.18a5.21 5.21 0 00-1.68-1.2 33.82 33.82 0 01-2.28 7.12h-7.21zm2.19-10.34a8.65 8.65 0 01-5.85.94 2.72 2.72 0 01-1.28-1.25c-.53-1 0-1.95 2.08-3 2.25-1.13 4.53-1.43 5.63-1.08a2.54 2.54 0 011.29 1.15c.61 1.22 0 2.29-1.87 3.23m-8.91 0a5.77 5.77 0 004.34 3.17 9.31 9.31 0 006.06-1c2.7-1.36 3.29-3.6 2.2-5.79a5.63 5.63 0 00-4-3.1 9.55 9.55 0 00-6.27 1.16c-2.55 1.34-3.5 3.25-2.33 5.6zm7.09-19.5c-5.71.46-9.73.69-12.05.72l.55 2.9c.93-.13 2.52-.25 4.78-.38a17.37 17.37 0 01.81 4.23c-2.07.15-3.68.22-4.8.23l.56 2.92c3.74-.43 7.74-.69 12-.77l-.55-2.87c-1.41.17-3.23.29-5.5.39a18 18 0 01-.81-4.23c.73-.07 2.56-.16 5.51-.29zm-11.44-11.74a20.4 20.4 0 012.81 2.5c1.21 1.22 1.8 2 1.77 2.23v.38c-1-.22-2.68-.64-4.9-1.22l-.26 2.86c3.69.63 7.61 1.52 11.79 2.62l.25-2.83c-3.16-.62-5.07-1-5.77-1.15v-.38c0-.35.6-.55 1.57-.85a22.63 22.63 0 002.59-.95c1.58-.7 2.26-1.27 2.34-2.15a5.32 5.32 0 00-.27-2 33 33 0 01-6.77 3.19l-4.89-5.29zm.99-5.43a53.86 53.86 0 016.63-.09 32.15 32.15 0 016.17.63 5.63 5.63 0 011.27 4.8 1.52 1.52 0 001.28.61 1 1 0 001.06-.72c.6-1.71-.69-4.87-4.11-8.21a33.55 33.55 0 00-4.19-3.64c-1.74-1.31-3.29-2.36-4.65-3.19l-.82 2.3a39.57 39.57 0 014.43 2.45 21.67 21.67 0 013.68 2.76v.1a30.25 30.25 0 00-4.55-.59c-2-.15-3.76-.2-5.13-.18zm15.12-8.79a25 25 0 01-2.23-2.19 13 13 0 01-2.16-3.67c-.66-1.58-.8-2.63-.46-3.13s1.18-.38 2.41.46a9.6 9.6 0 012.7 2.79 7.09 7.09 0 011.25 3 3.53 3.53 0 01-1.51 2.75m-9.52-4.79q5.75 4.8 12.69 11.5a3.76 3.76 0 00.92-1 2 2 0 00.54-1.15 93.111 93.111 0 01-3.21-3.11 7.5 7.5 0 001.54-6.55 9.86 9.86 0 00-4.42-6.13c-1.67-1.14-3.38-1.09-4.3.27a4.1 4.1 0 00-.41 3.23 11.25 11.25 0 001.74 4l-.06.09a27.02 27.02 0 00-1.89-1.93 17.94 17.94 0 00-1.63-1.45zm15.48-16.13c-.47-.53-1.43-.29-2.64.78-3.56 3.12-2 7.71.6 10.64 1.91 2.18 4.07 2.26 6 .58a6.15 6.15 0 002-3.48c-.53-.57-1-.77-1.36-.67a4.52 4.52 0 01-1.24 2.06c-1.12 1-2.32.76-3.6-.7-1.65-1.87-2.48-4-2.39-5.31a2.43 2.43 0 01.8-1.34 2.64 2.64 0 012.07-.62 1.8 1.8 0 00-.19-1.94m13.93-1.63a2.81 2.81 0 01-2.81 2.84 2.84 2.84 0 110-5.67 2.81 2.81 0 012.81 2.83m67.68 51.64a2.84 2.84 0 11-2.87-2.84 2.86 2.86 0 012.87 2.84m-74.88 33.48a2.84 2.84 0 11-2.86-2.84 2.85 2.85 0 012.86 2.84"/><path d="M194.44 971c-.07-1.46-.12-3.69-.12-6.64v-.8c0-3.12.05-5.47.12-7.08h-11.06c.12 1.28.16 3.63.16 7.06v1.1c0 3.1 0 5.24-.16 6.36h2.45c-.1-1.63-.14-4-.14-7.22V958c.5 0 1.58-.07 3.24-.07s2.75 0 3.25.07v5.74c0 3.19-.05 5.62-.17 7.22zm5.63-8.39a3.37 3.37 0 011.88-1.54 3.08 3.08 0 01.92-.09c1.75.07 2.79 1.48 2.79 4.1a5.36 5.36 0 01-1.4 4.13 4.14 4.14 0 01-2.53.69 4.37 4.37 0 01-1.66-.28zm-2.18-2.81c.12 1.37.19 3.7.19 7v1.2c0 4-.07 6.53-.19 7.63h2.33a39 39 0 01-.15-3.91v-.67a7.35 7.35 0 001.54.19 6.31 6.31 0 004.41-1.71 6.17 6.17 0 001.83-4.75c0-3-1.33-4.8-3.52-5.18a4.16 4.16 0 00-1.66.29 3.46 3.46 0 00-2.67 1.51v-1.87zm22.37 11.2c-.07-1.29-.12-2.88-.12-4.75v-1.61c0-1.75.05-3.4.12-4.94h-1.78c-.31.6-1.3 2-2.91 4.32s-2.55 3.67-2.86 4.2h-.12c.09-.84.14-2.14.14-3.94v-1.65a23.24 23.24 0 01.12-2.93h-2.28c.12 1.42.16 3.07.16 4.92v1c0 2.37 0 4.17-.16 5.37h1.85c.43-.74 1.42-2.23 3-4.41s2.48-3.58 2.79-4.13h.07c-.07.82-.09 2.23-.09 4.25v1.3a19.4 19.4 0 01-.17 3zm17.54 0c-.09-1.36-.14-3.19-.14-5.49v-.89c0-.72.05-2.35.14-4.92h-9.43c.12 1.78.17 3.41.17 4.9v1c0 1.61 0 3.38-.17 5.37h2.31c-.09-1.41-.14-3.57-.14-6.52v-3.34a20.82 20.82 0 012.55-.1 22.26 22.26 0 012.6.1v3.26c0 3-.08 5.19-.2 6.6zm7.94-10.29c2.29 0 3.4 2 3.4 4.85a4.94 4.94 0 01-1.21 3.7 3.11 3.11 0 01-1.7.55c-2.22 0-3.61-1.83-3.61-5a4.91 4.91 0 011-3.44 2.83 2.83 0 012.07-.67m.39-1.44a5.23 5.23 0 00-4 1.71 6.29 6.29 0 00-1.56 4.44 6.17 6.17 0 001.42 4.22 5.37 5.37 0 007.72 0 6.34 6.34 0 001.49-4.34c.03-3.69-1.82-6.02-5.02-6.02zm9.41 11.74c-.07-2.64-.05-5.56.1-8.78h.12a25 25 0 001 2.33l.89 1.87 1.1 2.47h1.13l.94-1.89c.89-1.9 1.61-3.46 2.12-4.73h.11v4c0 2.3.05 3.89 0 4.68h2.19c-.26-2-.43-4.87-.55-8.64l-.05-2.66h-1.95c-.34.89-1.35 3.07-3 6.58h-.1c-.72-1.37-1.78-3.58-3.15-6.58h-2l-.2 4c-.19 3.34-.38 5.76-.55 7.27zM273 960.71c2.28 0 3.39 2 3.39 4.85a5 5 0 01-1.2 3.7 3.14 3.14 0 01-1.71.55c-2.21 0-3.61-1.83-3.61-5a4.87 4.87 0 011.06-3.44 2.82 2.82 0 012.07-.67m.38-1.44a5.21 5.21 0 00-4 1.71 6.25 6.25 0 00-1.57 4.44 6.17 6.17 0 001.42 4.22 5.37 5.37 0 007.72 0 6.34 6.34 0 001.5-4.34c-.05-3.69-1.91-6.02-5.11-6.02zm21.48 14.58h1.73v-4.3h-1.54v-5a43.72 43.72 0 01.17-4.9H293c.09 1.18.14 2.66.14 4.46v5.4a16 16 0 01-2 .08 18 18 0 01-2.07-.08v-5.4c0-1.8 0-3.28.17-4.46h-2.19a41.32 41.32 0 01.17 4.44v5.42l-2 .08a17.22 17.22 0 01-2-.08v-5.49c0-1.83.05-3.29.14-4.37h-2.19a48.24 48.24 0 01.17 4.94v.89c0 2.5-.05 4.32-.17 5.47h13.7zm13.52-2.84c-.07-1.29-.12-2.88-.12-4.75v-1.61c0-1.75.05-3.4.12-4.94h-1.78c-.32.6-1.3 2-2.91 4.32s-2.55 3.67-2.87 4.2h-.12a36.75 36.75 0 00.15-3.94v-1.65a21.37 21.37 0 01.12-2.93h-2.29c.12 1.42.17 3.07.17 4.92v1c0 2.37-.05 4.17-.17 5.37h1.85c.44-.74 1.42-2.23 3-4.41s2.48-3.58 2.79-4.13h.08c-.08.82-.1 2.23-.1 4.25v1.3a19.4 19.4 0 01-.17 3zm14.96-11.32c-.5.67-1.15 1.54-2.11 2.71s-1.81 2-2.07 2h-.51v-1.1a33.26 33.26 0 01.15-3.65h-2.31c.12 1.46.16 3.17.16 5.14v.84c0 2.13 0 3.91-.16 5.32h2.31c-.1-.93-.15-2.47-.15-4.58v-1h.51c.26 0 .67.48 1.2 1.39.36.56 1 1.59 1.66 2.45l.31.41a10 10 0 001.4 1.61 5.07 5.07 0 002.16-.34 33.35 33.35 0 01-3.53-4.46l-1.25-1.78c.38-.38 1.18-1.22 2.35-2.54s2-2.14 2.27-2.45zm6.81 2.93a3.37 3.37 0 011.88-1.54 3.08 3.08 0 01.97-.07c1.75.07 2.79 1.48 2.79 4.1a5.36 5.36 0 01-1.4 4.13 4.14 4.14 0 01-2.53.69 4.34 4.34 0 01-1.66-.28zM328 959.8c.12 1.37.2 3.7.2 7v1.2c0 4-.08 6.53-.2 7.63h2.34a39 39 0 01-.15-3.91v-.67a7.35 7.35 0 001.54.19 6.31 6.31 0 004.41-1.71 6.21 6.21 0 001.83-4.75c0-3-1.33-4.8-3.52-5.18a4.16 4.16 0 00-1.66.29 3.46 3.46 0 00-2.67 1.51v-1.87zm15.87 11.2h.6a14.74 14.74 0 01-2.48 4 1.84 1.84 0 001.54 1.1c.8-1 1.83-3.45 3.15-7.25l.89-2.56 1-3.15c.55-1.61.94-2.76 1.2-3.43h-1.95c-.26 1.25-.69 2.9-1.27 4.94s-1 3.53-1.4 4.44h-.12q-2.74-7.34-3.2-9.38h-2.53zm10.13 0c-.13-1.17-.2-3.45-.2-6.81v-3h1.54a27.56 27.56 0 013.32.15v-1.66h-7c.12 1.27.17 2.71.17 4.32v1.08c0 2.38-.05 4.32-.17 5.88zm11.19-10.29c2.28 0 3.39 2 3.39 4.85a5 5 0 01-1.2 3.7 3.14 3.14 0 01-1.71.55c-2.21 0-3.61-1.83-3.61-5a4.87 4.87 0 011.06-3.44 2.82 2.82 0 012.07-.67m.38-1.44a5.24 5.24 0 00-4 1.71 6.29 6.29 0 00-1.56 4.44 6.17 6.17 0 001.42 4.22 5.37 5.37 0 007.72 0 6.34 6.34 0 001.5-4.34c-.02-3.69-1.88-6.02-5.08-6.02zm9.99 6.47a13.51 13.51 0 012-.1c1.54 0 2.75.58 2.75 2a2.21 2.21 0 01-.94 2 5.6 5.6 0 01-2.17.28 4.72 4.72 0 01-1.61-.19zm0-4.85a6.37 6.37 0 011.68-.19c1.74 0 2.6.62 2.6 1.87a2 2 0 01-1.75 1.9 12.17 12.17 0 01-2.53 0zm1.83-1.49a30.25 30.25 0 00-4 .29c.12 1.32.17 2.93.17 4.8v.94c0 2.23-.05 4.1-.17 5.56a19.19 19.19 0 003.52.27c3.29 0 5.41-1.27 5.41-3.55a2.6 2.6 0 00-2.53-2.76v-.12a2.79 2.79 0 002.07-2.62q0-2.8-4.47-2.81zm13.35 5.81a3.72 3.72 0 000-1.63h-5.29a2.66 2.66 0 000 1.63zm5.26-2.59a3.34 3.34 0 011.88-1.54 3 3 0 01.91-.09c1.76.07 2.8 1.48 2.8 4.1a5.36 5.36 0 01-1.4 4.13 4.14 4.14 0 01-2.53.69 4.34 4.34 0 01-1.66-.28zm-2.19-2.81c.12 1.37.2 3.7.2 7v1.2c0 4-.08 6.53-.2 7.63h2.34a39 39 0 01-.15-3.91v-.67a7.35 7.35 0 001.54.19 6.31 6.31 0 004.41-1.71 6.21 6.21 0 001.83-4.75c0-3-1.33-4.8-3.52-5.18a4.16 4.16 0 00-1.66.29 3.46 3.46 0 00-2.67 1.51v-1.87zm15.87 11.2h.6a14.74 14.74 0 01-2.48 4 1.84 1.84 0 001.54 1.1c.8-1 1.83-3.45 3.15-7.25l.89-2.56 1-3.15c.55-1.61.94-2.76 1.2-3.43h-1.95c-.26 1.25-.69 2.9-1.27 4.94s-1 3.53-1.4 4.44h-.12q-2.75-7.34-3.2-9.38h-2.57zm9.21-5.94a5.85 5.85 0 01.46-2.72 3.31 3.31 0 012.82-1.36c1.75 0 2.81 1.72 2.81 4.6a5.39 5.39 0 01-1 3.65 2.49 2.49 0 01-1.83.67c-1.93 0-3.23-1.84-3.23-4.84m3.76-5.4a4.87 4.87 0 00-4.43 2.68h-.07a8.33 8.33 0 01.6-3.09 4.48 4.48 0 01.84-1.37 5.51 5.51 0 013.56-1.56c1.74-.17 2.77-.46 3.13-.86a3.08 3.08 0 00-.07-1.92c-.34.4-1.35.72-3 .91a6 6 0 00-4.91 2.85 12.62 12.62 0 00-1.51 6.51c0 4.77 1.92 7.44 5.19 7.44a4.54 4.54 0 003.78-1.73 7.2 7.2 0 001.37-4.58c-.04-3.34-1.79-5.28-4.51-5.28zm9.32 2.95a3.34 3.34 0 011.88-1.54 3 3 0 01.91-.09c1.76.07 2.79 1.48 2.79 4.1a5.35 5.35 0 01-1.39 4.13 4.14 4.14 0 01-2.53.69 4.34 4.34 0 01-1.66-.28zm-2.19-2.81c.12 1.37.2 3.7.2 7v1.2c0 4-.08 6.53-.2 7.63h2.34a39 39 0 01-.15-3.91v-.67a7.35 7.35 0 001.54.19 6.31 6.31 0 004.41-1.71 6.2 6.2 0 001.82-4.75c0-3-1.32-4.8-3.51-5.18a4.16 4.16 0 00-1.66.29 3.45 3.45 0 00-2.67 1.51v-1.87zm22.41 11.2c-.07-1.29-.12-2.88-.12-4.75v-1.61c0-1.75 0-3.4.12-4.94h-1.78c-.31.6-1.3 2-2.91 4.32s-2.55 3.67-2.86 4.2h-.13a36.75 36.75 0 00.15-3.94v-1.65a23.24 23.24 0 01.12-2.93h-2.29c.12 1.42.17 3.07.17 4.92v1c0 2.37-.05 4.17-.17 5.37h1.86c.43-.74 1.42-2.23 3-4.41s2.47-3.58 2.79-4.13h.07c-.07.82-.1 2.23-.1 4.25v1.3a19.4 19.4 0 01-.17 3zm10.3-11.32c-.51.67-1.16 1.54-2.12 2.71s-1.8 2-2.07 2h-.5v-1.1c0-1.59.05-2.81.14-3.65h-2.31c.12 1.46.17 3.17.17 5.14v.84c0 2.13-.05 3.91-.17 5.32H458c-.09-.93-.14-2.47-.14-4.58v-1h.5c.27 0 .68.48 1.21 1.39.36.56 1 1.59 1.66 2.45l.31.41a10.14 10.14 0 001.39 1.61 5.12 5.12 0 002.17-.34 33.22 33.22 0 01-3.54-4.46l-1.25-1.78c.39-.38 1.18-1.22 2.36-2.54s1.95-2.14 2.26-2.45zm6.06 8.04a2.17 2.17 0 01.58-1.51 5.13 5.13 0 012.91-.58 7.87 7.87 0 011.37.19v2.36a3.42 3.42 0 01-2.86 1.58 1.93 1.93 0 01-2-2m6.91-4c0-3.15-1.18-4.35-3.66-4.35a11 11 0 00-4.72 1.25 1.52 1.52 0 00.44 1.2 7.24 7.24 0 013.44-1c1.92 0 2.45 1 2.43 3.58-4.91.07-6.93 1.08-6.93 3.74a3 3 0 003.15 3.05 4.75 4.75 0 003.83-1.9h.07a14.76 14.76 0 00.17 1.88l2-.2a35.68 35.68 0 01-.17-4.82zm2-2.42a18.76 18.76 0 012.79-.15h1v2.69A66.63 66.63 0 01481 971h2.43c-.12-1.17-.19-3.52-.19-7v-2.76h1a16.38 16.38 0 012.77.15v-1.66h-9.5zm16.09-.63c2.29 0 3.4 2 3.4 4.85a4.94 4.94 0 01-1.21 3.7 3.12 3.12 0 01-1.71.55c-2.21 0-3.61-1.83-3.61-5a4.91 4.91 0 011.06-3.44 2.82 2.82 0 012.07-.67m.39-1.44a5.21 5.21 0 00-4 1.71 7.06 7.06 0 00-.15 8.66 5.39 5.39 0 007.73 0 6.34 6.34 0 001.49-4.34c-.04-3.69-1.87-6.02-5.04-6.02zm10.03 3.35a3.34 3.34 0 011.88-1.54 3 3 0 01.91-.09c1.76.07 2.8 1.48 2.8 4.1a5.36 5.36 0 01-1.4 4.13 4.14 4.14 0 01-2.53.69 4.34 4.34 0 01-1.66-.28zm-2.19-2.81c.12 1.37.2 3.7.2 7v1.2c0 4-.08 6.53-.2 7.63h2.34a39 39 0 01-.15-3.91v-.67a7.35 7.35 0 001.54.19 6.31 6.31 0 004.41-1.71 6.21 6.21 0 001.83-4.75c0-3-1.33-4.8-3.52-5.18a4.16 4.16 0 00-1.66.29 3.46 3.46 0 00-2.67 1.51v-1.87zm17.19.91c2.28 0 3.39 2 3.39 4.85a5 5 0 01-1.2 3.7 3.14 3.14 0 01-1.71.55c-2.21 0-3.61-1.83-3.61-5a4.87 4.87 0 011.06-3.44 2.82 2.82 0 012.07-.67m.38-1.44a5.24 5.24 0 00-4 1.71 6.29 6.29 0 00-1.56 4.44 6.17 6.17 0 001.42 4.22 5.37 5.37 0 007.72 0 6.34 6.34 0 001.5-4.34c-.05-3.69-1.91-6.02-5.11-6.02zm9.96 6.47a13.51 13.51 0 012-.1c1.54 0 2.75.58 2.75 2a2.21 2.21 0 01-.94 2 5.6 5.6 0 01-2.17.28 4.72 4.72 0 01-1.61-.19zm0-4.85a6.37 6.37 0 011.68-.19c1.74 0 2.6.62 2.6 1.87a2 2 0 01-1.75 1.9 12.17 12.17 0 01-2.53 0zm1.83-1.49a30.25 30.25 0 00-4 .29c.12 1.32.17 2.93.17 4.8v.94c0 2.23-.05 4.1-.17 5.56a19.19 19.19 0 003.52.27c3.29 0 5.41-1.27 5.41-3.55a2.6 2.6 0 00-2.53-2.76v-.12a2.79 2.79 0 002.07-2.62q0-2.8-4.47-2.81zM545.24 971c-.07-2.64 0-5.56.1-8.78h.12c.17.48.51 1.25 1 2.33l.89 1.87 1.11 2.47h1.13l.94-1.89c.89-1.9 1.61-3.46 2.11-4.73h.15c0 .36 0 1.7.05 4s0 3.89 0 4.68H555c-.27-2-.44-4.87-.56-8.64v-2.66h-2c-.34.89-1.35 3.07-3 6.58h-.09c-.72-1.37-1.78-3.58-3.15-6.58h-2.05l-.19 4c-.19 3.34-.39 5.76-.55 7.27zm17.47-10.29c2.29 0 3.4 2 3.4 4.85a4.94 4.94 0 01-1.21 3.7 3.12 3.12 0 01-1.71.55c-2.21 0-3.61-1.83-3.61-5a4.91 4.91 0 011.06-3.44 2.82 2.82 0 012.07-.67m.39-1.44a5.21 5.21 0 00-4 1.71 6.25 6.25 0 00-1.56 4.44 6.17 6.17 0 001.42 4.22 5.37 5.37 0 007.72 0 6.34 6.34 0 001.49-4.34c-.02-3.69-1.87-6.02-5.07-6.02zm19.44.42c-2 3.26-3.25 4.9-3.71 4.9h-.57v-1.2a32.19 32.19 0 01.17-3.7h-2a34.83 34.83 0 01.14 3.7v1.2H576c-.43 0-1.68-1.64-3.75-4.9h-2.14c.26.38.89 1.18 1.83 2.35s1.61 2 2 2.59l-1.3 1.92c-.63.94-1.2 1.78-1.73 2.52s-1 1.3-1.28 1.68a2.35 2.35 0 00.92.29 7.08 7.08 0 001 .12 9.89 9.89 0 001.37-1.92l.48-.74c.22-.36.36-.63.48-.79.22-.39.68-1.06.89-1.35.39-.55.75-.93.92-.93h.74v1.24c0 1.88 0 3.32-.14 4.32h2a41 41 0 01-.17-4.39v-1.17h.86c.2 0 .65.62 1.18 1.51.36.5.94 1.51 1.4 2.21a15 15 0 001.39 2 4.31 4.31 0 001.93-.33c-.68-.87-1.73-2.43-3-4.35l-1.17-1.82c.36-.5 1-1.37 2-2.59l1.81-2.33zM596.76 971c-.1-1.6-.14-3.36-.14-5.23V965c0-2.42 0-4.2.14-5.3h-2.29a25.52 25.52 0 01.17 3.6v1a38.91 38.91 0 01-5.29 0v-.87a35.1 35.1 0 01.14-3.74h-2.31c.12 1.1.17 2.88.17 5.33v.69c0 2.14-.05 3.92-.17 5.28h2.31c-.09-.88-.14-2.35-.14-4.34v-.94a38.91 38.91 0 015.29 0v.94a38.08 38.08 0 01-.17 4.34zm7.97-10.29c2.28 0 3.39 2 3.39 4.85a4.94 4.94 0 01-1.21 3.7 3.11 3.11 0 01-1.7.55c-2.22 0-3.61-1.83-3.61-5a4.87 4.87 0 011.06-3.44 2.8 2.8 0 012.07-.67m.38-1.44a5.23 5.23 0 00-4 1.71 6.29 6.29 0 00-1.56 4.44 6.17 6.17 0 001.42 4.22 5.37 5.37 0 007.72 0 6.34 6.34 0 001.49-4.34c-.02-3.69-1.87-6.02-5.07-6.02zM186.29 989.2a8.23 8.23 0 011.66-.1 8.48 8.48 0 011.68.1v8.42h-5.1c1-1 1.73-4.17 1.76-8.42m-3 12.72v-2.86h8.25v2.86h1.73v-4.3h-1.51c-.07-.76-.12-2.23-.12-4.39v-.77c0-1.94.05-3.52.14-4.7h-7.38a19.89 19.89 0 01.14 2.4 18.92 18.92 0 01-.67 5c-.44 1.63-1 2.44-1.57 2.44h-.74v4.3zm16.76-13.13c2.29 0 3.39 2 3.39 4.85a5 5 0 01-1.2 3.7 3.12 3.12 0 01-1.71.55c-2.21 0-3.61-1.83-3.61-5a4.87 4.87 0 011.06-3.44 2.82 2.82 0 012.07-.67m.39-1.44a5.21 5.21 0 00-4 1.71 6.25 6.25 0 00-1.57 4.44 6.17 6.17 0 001.42 4.22 5.39 5.39 0 007.73-.05 6.39 6.39 0 001.49-4.34c-.02-3.64-1.87-5.97-5.07-5.97zm9.28 5.8a5.85 5.85 0 01.46-2.72 3.3 3.3 0 012.82-1.36c1.75 0 2.81 1.72 2.81 4.6a5.45 5.45 0 01-1 3.65 2.49 2.49 0 01-1.81.69c-1.93 0-3.23-1.84-3.23-4.84m3.76-5.4a4.86 4.86 0 00-4.43 2.68h-.1a8.33 8.33 0 01.6-3.09 4.3 4.3 0 01.84-1.37 5.51 5.51 0 013.56-1.58c1.74-.17 2.77-.46 3.13-.86a3.08 3.08 0 00-.07-1.92c-.34.4-1.35.72-3 .91a6 6 0 00-4.91 2.85 12.62 12.62 0 00-1.51 6.51c0 4.77 1.92 7.44 5.19 7.44a4.54 4.54 0 003.78-1.73A7.2 7.2 0 00218 993c0-3.32-1.8-5.26-4.52-5.26zm8.59 8.04a2.2 2.2 0 01.57-1.51 5.13 5.13 0 012.91-.58 8 8 0 011.38.19v2.36a3.45 3.45 0 01-2.87 1.58 1.92 1.92 0 01-2-2m6.9-4c0-3.15-1.18-4.35-3.66-4.35a10.88 10.88 0 00-4.71 1.25 1.52 1.52 0 00.43 1.2 7.28 7.28 0 013.44-1c1.93 0 2.46 1 2.43 3.58-4.91.07-6.93 1.08-6.93 3.74a3 3 0 003.15 3 4.75 4.75 0 003.83-1.9h.07a14.76 14.76 0 00.17 1.88l1.95-.2a35.68 35.68 0 01-.17-4.82zm5.52 1.97a13.51 13.51 0 012-.1c1.54 0 2.75.58 2.75 2a2.21 2.21 0 01-.94 2 5.6 5.6 0 01-2.17.28 4.72 4.72 0 01-1.61-.19zm0-4.85a6.4 6.4 0 011.69-.19c1.73 0 2.59.62 2.59 1.87a2 2 0 01-1.75 1.9 12.17 12.17 0 01-2.53 0zm1.83-1.49a30.11 30.11 0 00-4 .29c.12 1.32.16 2.93.16 4.8v.94c0 2.23 0 4.1-.16 5.56a19.07 19.07 0 003.51.27c3.3 0 5.41-1.27 5.41-3.55a2.6 2.6 0 00-2.52-2.76v-.12a2.81 2.81 0 002.07-2.62c.01-1.87-1.49-2.81-4.47-2.81zm16.92 11.59c-.08-1.1-.12-2.92-.12-5.47v-.89c0-2.32 0-4 .12-4.94h-7.66a12.34 12.34 0 01.2 2.38v.64c0 4.83-.82 6.84-2.53 6.58a3 3 0 00.05 1.92c3.08.46 4.28-2.45 4.28-8.33v-1.75c.29 0 .86-.05 1.75-.05s1.5 0 1.81.05v5a43.25 43.25 0 01-.19 4.89zm9.52-5.9a5.17 5.17 0 01-1 .1c-2.17 0-3.25-.75-3.25-2.26a2.23 2.23 0 01.82-1.7 3.65 3.65 0 011.95-.39 6.65 6.65 0 011.46.12zm2.15 5.9c-.12-1.53-.17-3.24-.17-5.08v-1.13a48.92 48.92 0 01.17-5 20.73 20.73 0 00-3.57-.29 6.29 6.29 0 00-3.46.89 2.9 2.9 0 00-1.4 2.62 3 3 0 002.63 2.88c-.17.24-.48.74-1 1.54s-.92 1.46-1.33 2.06a15.91 15.91 0 01-1 1.42 5.27 5.27 0 002 .28 4.62 4.62 0 001.13-1.51c.36-.57.94-1.61 1.2-2.09.15-.24.29-.48.46-.72.36-.5.58-.72.77-.72h1.39v4.8zm2.05-9.64a18.76 18.76 0 012.79-.15h1V992a66.63 66.63 0 01-.22 7.1H273c-.12-1.17-.19-3.52-.19-7v-2.76h1a16.38 16.38 0 012.77.15v-1.66H267zm18.18 5.88a2.4 2.4 0 01-1 2.13 3.46 3.46 0 01-1.86.39 4.44 4.44 0 01-1.59-.2 30.05 30.05 0 010-4.65c2.8-.65 4.43.31 4.43 2.33m-6.59-7.54a37.69 37.69 0 01.17 4.61v.89c0 2.71-.05 4.6-.15 5.68a18.1 18.1 0 003.35.27c3.46 0 5.22-1.54 5.22-3.91a3.47 3.47 0 00-1.73-3.27 6.54 6.54 0 00-4.7-.29v-1.27a15.61 15.61 0 01.15-2.71zm20.59-.31a5.3 5.3 0 00-3.9 1.65 6 6 0 00-1.58 4.3 6.26 6.26 0 001.44 4.32 5 5 0 003.85 1.61 6.36 6.36 0 003.63-1.08 1.43 1.43 0 00-.29-1 5.26 5.26 0 01-2.4.62c-2.5 0-4.12-2-4.12-5a4.46 4.46 0 011.21-3.31 2.75 2.75 0 011.87-.57 4.18 4.18 0 012.79.93 2.58 2.58 0 00.85-1.46 4.79 4.79 0 00-3.35-1m10.44 1.33c2.29 0 3.4 2 3.4 4.85a4.94 4.94 0 01-1.21 3.7 3.11 3.11 0 01-1.7.55c-2.22 0-3.61-1.83-3.61-5a4.87 4.87 0 011.06-3.44 2.79 2.79 0 012.06-.67m.39-1.44a5.23 5.23 0 00-4 1.71 6.29 6.29 0 00-1.56 4.44 6.17 6.17 0 001.42 4.22 5.37 5.37 0 007.72-.05 6.34 6.34 0 001.49-4.34c-.06-3.64-1.87-5.97-5.06-5.97zm12.34 1.45c2.29 0 3.4 2 3.4 4.85a4.94 4.94 0 01-1.21 3.7 3.12 3.12 0 01-1.71.55c-2.21 0-3.6-1.83-3.6-5a4.91 4.91 0 011.05-3.44 2.82 2.82 0 012.07-.67m.39-1.44a5.21 5.21 0 00-4 1.71 6.29 6.29 0 00-1.56 4.44 6.17 6.17 0 001.42 4.22 5.37 5.37 0 007.72-.05 6.34 6.34 0 001.49-4.34c-.02-3.64-1.87-5.97-5.07-5.97zm9.28 5.8a5.88 5.88 0 01.45-2.72 3.32 3.32 0 012.82-1.36c1.76 0 2.81 1.72 2.81 4.6a5.39 5.39 0 01-1 3.65 2.48 2.48 0 01-1.83.67c-1.92 0-3.22-1.84-3.22-4.84m3.75-5.4a4.87 4.87 0 00-4.43 2.68h-.07a8.33 8.33 0 01.6-3.09 4.48 4.48 0 01.84-1.37 5.51 5.51 0 013.57-1.56c1.73-.17 2.76-.46 3.12-.86a3 3 0 00-.07-1.92c-.34.4-1.35.72-3 .91a6 6 0 00-4.91 2.85 12.62 12.62 0 00-1.51 6.51c0 4.77 1.92 7.44 5.2 7.44a4.54 4.54 0 003.77-1.73 7.2 7.2 0 001.38-4.58c-.03-3.34-1.79-5.28-4.51-5.28zm20.89 14.18h1.73v-4.3h-1.54v-5a43.72 43.72 0 01.17-4.9h-2.19c.1 1.18.15 2.66.15 4.46v5.4a16.1 16.1 0 01-2 .08 18 18 0 01-2.07-.08v-5.4c0-1.8.05-3.28.17-4.46h-2.19a41.32 41.32 0 01.17 4.44v5.42l-2 .08a17.43 17.43 0 01-2-.08v-5.49c0-1.83.05-3.29.15-4.37H343a48.24 48.24 0 01.17 4.94v.89c0 2.5 0 4.32-.17 5.47h13.69zm5.22-9.46a5 5 0 01.36-1.72 4.18 4.18 0 01.77-1.4 3.66 3.66 0 012-.55 2.64 2.64 0 011.85.7 2.3 2.3 0 01.74 1.8 1.24 1.24 0 01-.16.72 13.34 13.34 0 01-2.53.31c-1.37.1-2.38.14-3 .14m3.44-5a4.91 4.91 0 00-4 1.75 6.45 6.45 0 00-1.44 4.22c0 3.63 1.95 5.86 5.24 5.86a6.65 6.65 0 004.19-1.37 1.43 1.43 0 00-.39-1 5.19 5.19 0 01-3.12.87c-2.29 0-3.81-1.3-3.9-4.11l1.75-.14a35 35 0 005.8-.77 4.22 4.22 0 00.24-1.41 3.78 3.78 0 00-1.13-2.72 4.2 4.2 0 00-3.27-1.19zm16.58 11.6c-.1-1.6-.15-3.36-.15-5.23v-.77c0-2.42 0-4.2.15-5.3h-2.29a27.15 27.15 0 01.17 3.6v1a39.06 39.06 0 01-5.3 0v-.87a31.94 31.94 0 01.15-3.74h-2.31c.12 1.1.17 2.88.17 5.33v.69c0 2.14 0 3.92-.17 5.28h2.31c-.1-.88-.15-2.35-.15-4.34v-.94a39.06 39.06 0 015.3 0v.94a40.58 40.58 0 01-.17 4.34zm13.13 0c-.07-1.29-.12-2.88-.12-4.75v-1.61c0-1.75.05-3.4.12-4.94h-1.78c-.31.6-1.3 2-2.91 4.32s-2.55 3.67-2.86 4.2h-.12c.09-.84.14-2.14.14-3.94v-1.65a23.24 23.24 0 01.12-2.93h-2.28c.12 1.42.16 3.07.16 4.92v1c0 2.37 0 4.17-.16 5.37h1.85c.43-.74 1.42-2.23 3-4.41s2.48-3.58 2.79-4.13h.07c-.07.82-.09 2.23-.09 4.25v1.34a19.4 19.4 0 01-.17 2.95zm9.82-5.9a5.27 5.27 0 01-1 .1c-2.16 0-3.24-.75-3.24-2.26a2.25 2.25 0 01.81-1.7 3.65 3.65 0 011.95-.39 6.76 6.76 0 011.47.12zm2.14 5.9c-.12-1.53-.17-3.24-.17-5.08v-1.13a48.92 48.92 0 01.17-5 20.52 20.52 0 00-3.56-.29 6.27 6.27 0 00-3.46.89 2.9 2.9 0 00-1.4 2.62 3 3 0 002.62 2.88c-.17.24-.48.74-1 1.54s-.91 1.46-1.32 2.06-.75 1.08-1 1.42a5.25 5.25 0 002 .28 4.35 4.35 0 001.13-1.51c.37-.57.94-1.61 1.21-2.09q.21-.36.45-.72c.37-.5.58-.72.77-.72h1.4v4.8zm12.61-10.27c2.29 0 3.39 2 3.39 4.85a5 5 0 01-1.2 3.7 3.12 3.12 0 01-1.71.55c-2.21 0-3.61-1.83-3.61-5a4.87 4.87 0 011.06-3.44 2.82 2.82 0 012.07-.67m.38-1.44a5.21 5.21 0 00-4 1.71 6.25 6.25 0 00-1.57 4.44 6.17 6.17 0 001.42 4.22 5.39 5.39 0 007.73-.05 6.39 6.39 0 001.49-4.34c-.01-3.64-1.86-5.97-5.09-5.97zm11.15 2.08a18.76 18.76 0 012.79-.15h1V992a66.63 66.63 0 01-.22 7.1h2.43c-.12-1.17-.19-3.52-.19-7v-2.76h1a16.38 16.38 0 012.77.15v-1.66h-9.5zm12.97 3.04a5 5 0 01.36-1.72 4 4 0 01.77-1.4 3.6 3.6 0 012-.55 2.61 2.61 0 011.85.7 2.27 2.27 0 01.75 1.8 1.24 1.24 0 01-.17.72 13.2 13.2 0 01-2.53.31c-1.37.1-2.38.14-3 .14m3.44-5a4.93 4.93 0 00-4.05 1.75 6.45 6.45 0 00-1.44 4.22c0 3.63 2 5.86 5.25 5.86a6.62 6.62 0 004.18-1.37 1.46 1.46 0 00-.38-1 5.24 5.24 0 01-3.13.87c-2.29 0-3.8-1.3-3.9-4.11l1.76-.14a35.23 35.23 0 005.8-.77 4.49 4.49 0 00.24-1.41 3.82 3.82 0 00-1.13-2.72 4.21 4.21 0 00-3.23-1.19zm8.53 11.6c-.07-2.64-.05-5.56.1-8.78h.12c.17.48.5 1.25 1 2.33l.89 1.87 1.11 2.47h1.13l.94-1.89c.89-1.9 1.61-3.46 2.11-4.73h.15c0 .36 0 1.7.05 4s0 3.89 0 4.68h2.19c-.27-2-.44-4.87-.56-8.64l-.05-2.66h-1.95c-.33.89-1.34 3.07-3 6.58h-.09c-.73-1.37-1.78-3.58-3.16-6.58h-2l-.19 4q-.3 5-.56 7.27zm14.37-3.26a2.2 2.2 0 01.57-1.51 5.17 5.17 0 012.92-.58 7.87 7.87 0 011.37.19v2.36a3.45 3.45 0 01-2.87 1.58 1.93 1.93 0 01-2-2m6.9-4c0-3.15-1.18-4.35-3.65-4.35a10.92 10.92 0 00-4.72 1.25 1.52 1.52 0 00.43 1.2 7.28 7.28 0 013.44-1c1.93 0 2.46 1 2.43 3.58-4.9.07-6.93 1.08-6.93 3.74a3 3 0 003.16 3 4.75 4.75 0 003.82-1.9h.07a14.76 14.76 0 00.17 1.88l1.95-.2a35.68 35.68 0 01-.17-4.82zm2.01-2.42a18.76 18.76 0 012.79-.15h1V992a70.8 70.8 0 01-.21 7.1h2.43c-.12-1.17-.2-3.52-.2-7v-2.76h1a16.23 16.23 0 012.76.15v-1.66h-9.5zm21.27 9.64c-.07-1.29-.12-2.88-.12-4.75v-1.61c0-1.75.05-3.4.12-4.94h-1.78c-.31.6-1.3 2-2.91 4.32s-2.55 3.67-2.86 4.2H493a36.75 36.75 0 00.15-3.94v-1.65a23.24 23.24 0 01.12-2.93H491c.12 1.42.17 3.07.17 4.92v1c0 2.37 0 4.17-.17 5.37h1.86c.43-.74 1.42-2.23 3-4.41s2.47-3.58 2.79-4.13h.07c-.07.82-.1 2.23-.1 4.25v1.34a18.18 18.18 0 01-.17 2.95zm10.32-11.3c-.51.67-1.16 1.54-2.12 2.71s-1.8 2-2.07 2h-.5v-1.1c0-1.59 0-2.81.14-3.65h-2.31c.12 1.46.17 3.17.17 5.14v.84c0 2.13-.05 3.91-.17 5.32h2.31c-.09-.93-.14-2.47-.14-4.58v-1h.5c.27 0 .68.48 1.21 1.39.36.56 1 1.59 1.66 2.45l.31.41a10.14 10.14 0 001.39 1.61 5.12 5.12 0 002.17-.34 33.22 33.22 0 01-3.54-4.46l-1.25-1.78c.39-.38 1.18-1.22 2.36-2.54s1.95-2.14 2.26-2.45zm6 4.7a5 5 0 01.36-1.72 4 4 0 01.77-1.4 3.65 3.65 0 012-.55 2.65 2.65 0 011.86.7 2.3 2.3 0 01.74 1.8 1.24 1.24 0 01-.17.72 13 13 0 01-2.52.31c-1.38.1-2.39.14-3 .14m3.44-5a4.91 4.91 0 00-4 1.75 6.4 6.4 0 00-1.45 4.22c0 3.63 1.95 5.86 5.25 5.86a6.65 6.65 0 004.19-1.37 1.43 1.43 0 00-.39-1 5.2 5.2 0 01-3.13.87c-2.28 0-3.8-1.3-3.9-4.11l1.76-.14a35 35 0 005.8-.77 4.22 4.22 0 00.24-1.41 3.78 3.78 0 00-1.13-2.72 4.21 4.21 0 00-3.26-1.19zm16.52-.01a5.27 5.27 0 00-3.9 1.65 6 6 0 00-1.59 4.3 6.27 6.27 0 001.45 4.32 4.94 4.94 0 003.85 1.61 6.36 6.36 0 003.63-1.08 1.43 1.43 0 00-.29-1 5.29 5.29 0 01-2.4.62c-2.51 0-4.12-2-4.12-5a4.49 4.49 0 011.2-3.31 2.78 2.78 0 011.88-.57 4.18 4.18 0 012.79.93 2.51 2.51 0 00.84-1.46 4.74 4.74 0 00-3.34-1m10.43 1.33c2.29 0 3.4 2 3.4 4.85a4.94 4.94 0 01-1.21 3.7 3.12 3.12 0 01-1.71.55c-2.21 0-3.61-1.83-3.61-5a4.91 4.91 0 011.06-3.44 2.82 2.82 0 012.07-.67m.39-1.44a5.21 5.21 0 00-4 1.71 6.25 6.25 0 00-1.56 4.44 6.17 6.17 0 001.42 4.22 5.37 5.37 0 007.72-.05 6.34 6.34 0 001.49-4.34c-.02-3.64-1.89-5.97-5.07-5.97zm9.29 5.8a5.88 5.88 0 01.45-2.72 3.32 3.32 0 012.82-1.36c1.75 0 2.81 1.72 2.81 4.6a5.39 5.39 0 01-1 3.65 2.48 2.48 0 01-1.83.67c-1.92 0-3.22-1.84-3.22-4.84m3.75-5.4a4.87 4.87 0 00-4.43 2.68h-.07a8.33 8.33 0 01.6-3.09 4.48 4.48 0 01.84-1.37 5.51 5.51 0 013.56-1.56c1.74-.17 2.77-.46 3.13-.86a3 3 0 00-.07-1.92c-.34.4-1.35.72-3 .91a6 6 0 00-4.91 2.85 12.62 12.62 0 00-1.51 6.51c0 4.77 1.92 7.44 5.2 7.44a4.54 4.54 0 003.77-1.73 7.2 7.2 0 001.37-4.58c-.04-3.34-1.79-5.28-4.51-5.28zm17.11 5.9c0 2.09-.05 3.89-.17 5.42H580q-.15-1.5-.15-5.64v-1c0-2.23.05-3.77.15-4.63h-2.19c.07 1.44.12 3 .12 4.73zm-3.71 1.66a2.64 2.64 0 01-.86 2.13 3.48 3.48 0 01-1.59.41 4.06 4.06 0 01-1.64-.22 30.05 30.05 0 010-4.65c2.45-.6 4.06.31 4.06 2.33zm-6.18-7.54a44 44 0 01.17 4.8v.94c0 2.61 0 4.44-.17 5.44a18 18 0 003.27.27c3.25 0 4.84-1.63 4.84-3.91a3.35 3.35 0 00-1.66-3.17 5.84 5.84 0 00-4.29-.39v-1.29a15.65 15.65 0 01.15-2.69zm14 1.66a18.76 18.76 0 012.79-.15h1V992a66.63 66.63 0 01-.22 7.1h2.43c-.12-1.17-.19-3.52-.19-7v-2.76h1a16.3 16.3 0 012.77.15v-1.66h-9.5zm21.27 9.64c-.08-1.29-.12-2.88-.12-4.75v-1.61c0-1.75 0-3.4.12-4.94h-1.78c-.32.6-1.3 2-2.92 4.32s-2.55 3.67-2.86 4.2h-.12a36.75 36.75 0 00.15-3.94v-1.65a21.37 21.37 0 01.12-2.93h-2.29c.12 1.42.17 3.07.17 4.92v1c0 2.37-.05 4.17-.17 5.37h1.85c.44-.74 1.42-2.23 3-4.41s2.48-3.58 2.79-4.13h.08c-.08.82-.1 2.23-.1 4.25v1.34a19.4 19.4 0 01-.17 2.95zm9.81-5.9a5.17 5.17 0 01-1 .1c-2.17 0-3.25-.75-3.25-2.26a2.23 2.23 0 01.82-1.7 3.65 3.65 0 012-.39 6.65 6.65 0 011.46.12zm2.15 5.9c-.12-1.53-.17-3.24-.17-5.08v-1.13a48.92 48.92 0 01.17-5 20.73 20.73 0 00-3.57-.29 6.29 6.29 0 00-3.46.89 2.9 2.9 0 00-1.4 2.62 3 3 0 002.63 2.88c-.17.24-.48.74-1 1.54s-.92 1.46-1.33 2.06a15.91 15.91 0 01-1 1.42 5.27 5.27 0 002 .28 4.62 4.62 0 001.13-1.51c.36-.57.94-1.61 1.2-2.09.15-.24.29-.48.46-.72.36-.5.58-.72.77-.72h1.39v4.8z"/></g></svg>