<svg data-name="Layer 1" xmlns="http://www.w3.org/2000/svg" viewBox="0 0 1920 1080"><path fill="#ea533d" d="M0 0h1920v1080H0z"/><path d="M216.06 324.52l-8.45 8.48a7 7 0 00-1.76 4.73V354c12.55-5.66 18.42-14.59 18.71-29.5h20.09c-2 17.78-16 25.76-38.8 31.89v3.51c28-7.29 43.41 1.38 41.7 33.95H220l7.39-7.36c1.83-1.82 1.82-4.21 1.65-7.3-.76-13.57-9.66-19.48-23.19-16.49v18a7 7 0 001.76 4.72l8.45 8.45h-36.87l8.44-8.45a7 7 0 001.76-4.72v-43a7 7 0 00-1.76-4.73l-8.44-8.45zm55.02 23.29c5.73-3.15 14.26.29 24 15.39s9 23.63 3.28 26.78-14.32-.39-24-15.38-9-23.64-3.28-26.79m-.51-2.39c13.95-7.49 31.6-3 39.43 9.92s2.87 29.54-11.08 37-31.6 3.05-39.43-9.92-2.87-29.52 11.08-37zm71.09-3.42H317.6l7.31 7.31a6.14 6.14 0 011.52 4.09v29.11a6.12 6.12 0 01-1.52 4.09l-7.31 7.31h32.9l-7.31-7.31a6.07 6.07 0 01-1.53-4.09v-16.22l20.78 5.57v10.61a6.12 6.12 0 01-1.52 4.09l-7.31 7.31h32.9l-7.31-7.31a6.12 6.12 0 01-1.52-4.09v-29.11a6.14 6.14 0 011.52-4.09l7.31-7.31h-32.9l7.31 7.31a6.14 6.14 0 011.52 4.09v16.34l-20.78-5.57zm94.21 49.78h-15.46c-3.69 0-4-1.16-4-4.86V342h-24.08l7.31 7.31a6.14 6.14 0 011.52 4.09v29.11a6.12 6.12 0 01-1.52 4.09l-7.31 7.31h50.9c2.26 0 4.41.58 4.89 2.71l3.76 16.6h.3l8.75-21.4h-9.82v-38.46a6.14 6.14 0 011.52-4.09l7.31-7.31H427l7.31 7.31a6.14 6.14 0 011.52 4.09zm57.62-38.57c6.91-.29 6.27-11.32-3.75-9.18-4.68 1-9.88 4.61-11.61 9.18zm2.2-12.39c9.92-.26 18.14 3.88 19.72 14.47H478c-3.82 14.71 6.09 27.22 21.71 26.64 12.57-.46 23.83-9.45 20.05-22.71h.24c6.08 18.13-6.7 36.41-27.93 35.79-15.79-.46-26.59-12.13-25.59-27.1s14.08-26.7 29.21-27.09zm30.69 1.18l7.31 7.31a6.14 6.14 0 011.52 4.09v29.11a6.12 6.12 0 01-1.52 4.09l-7.31 7.31h32.9l-7.28-7.35a6.12 6.12 0 01-1.52-4.09v-38.42h20.78v38.42a6.12 6.12 0 01-1.52 4.09l-7.31 7.31h32.9l-7.33-7.31a6.07 6.07 0 01-1.53-4.09v-29.11a6.09 6.09 0 011.53-4.09l7.3-7.27zm97.22 6.2v34.27a6.07 6.07 0 01-1.53 4.09l-7.3 7.31h32.9l-7.31-7.31a6.07 6.07 0 01-1.53-4.09V348.2c0-2.21 1-4.15 3.85-4.15h3.09c2.51 0 3.45 1.32 3.7 3.39L652.1 369h.29l9.23-28.73-12.25 1.48a30 30 0 01-3.31.25h-28a26 26 0 01-3.37-.25l-10.85-1.48 1.2 28.73h.29l9.26-21.52c.78-1.81 2.45-3.39 4.19-3.39h1.67c2.13 0 3.12 1.76 3.12 4.15M213.14 478.05c-4.49 2.07-8.93 4.51-12.28 8.11-9.93 10.67.91 28.63 15.29 11.67zm3.39 22.28c-5.88 7.65-16.17 10.73-23.33 10.75-14.26 0-18.15-15-7.94-22.4 6.75-4.88 18.38-9 27.62-12.33-1-6.43-1.43-17.59-10-17.09-4.24.24-6.52 2.44-7.89 6.94l-5.18 17.15h-.27l-4-26.3 6.52 1.53c2.29.54 3.84-.45 7.5-1.25 15.68-3.43 26.78 3.13 29.78 20.14l3.48 19.8a8.2 8.2 0 001.75 4.22l8.45 8.44H218zm54.39-63.87h.08c2.31 6.59 13.92 12.84 24.83 4l1.22 1.47c-9.63 8.91-19.13 11.18-31.81 7.67zm-.17 56.43l20.79-20.78v-2.69a6.12 6.12 0 00-1.53-4.09L282.7 458h32.9l-7.31 7.31a6.12 6.12 0 00-1.52 4.09v29.11a6.09 6.09 0 001.52 4.08l7.31 7.31h-32.9l7.31-7.31a6.1 6.1 0 001.53-4.08v-23.45l-20.79 20.78v2.69a6 6 0 001.53 4.08l7.31 7.31h-32.9l7.31-7.31a6.09 6.09 0 001.52-4.08v-29.11a6.12 6.12 0 00-1.52-4.09l-7.31-7.33h24.06zm64.18 14.95h26.84l-14.47-40.6-14.85 35.88c-1.14 2.75-.93 4.71 2.48 4.72m2.18-49.84h22.81L379 507.84h8.52l-8.75 21.39h-.29l-3.77-16.59c-.48-2.13-2.63-2.72-4.88-2.72H337.4a5.19 5.19 0 00-4.89 2.72l-10 16.59h-.29l-1.18-21.39h7.24L344 469.39a5.13 5.13 0 00-1.25-5.88zm76.58 11.26c6.92-.28 6.28-11.32-3.74-9.18-4.68 1-9.89 4.61-11.61 9.18zm2.21-12.39c9.92-.25 18.13 3.88 19.72 14.48h-37.47c-3.81 14.71 6.1 27.21 21.72 26.64 12.57-.46 23.82-9.46 20.05-22.72h.31c6.08 18.14-6.7 36.41-27.93 35.8-15.8-.47-26.59-12.14-25.6-27.1s14.07-26.7 29.2-27.1zm56.4 1.13h-24.06l7.31 7.31a6.12 6.12 0 011.52 4.09v29.11a6.09 6.09 0 01-1.52 4.08l-7.31 7.31h32.9l-7.31-7.31a6 6 0 01-1.53-4.08v-16.16l20.78 5.56v10.62a6.09 6.09 0 01-1.52 4.08l-7.31 7.31h32.9l-7.31-7.31a6.09 6.09 0 01-1.52-4.08v-29.11a6.12 6.12 0 011.52-4.09l7.31-7.31h-32.9l7.31 7.31a6.12 6.12 0 011.52 4.09v16.33l-20.78-5.57zm75.39 6.26v34.27a6.09 6.09 0 01-1.52 4.08l-7.31 7.31h32.9l-7.31-7.31a6 6 0 01-1.53-4.08v-34.27c0-2.21 1-4.15 3.85-4.15h3.09c2.51 0 3.45 1.31 3.7 3.39l2.63 21.5h.29l9.23-28.74-12.25 1.48a28 28 0 01-3.31.26h-28a24.37 24.37 0 01-3.37-.26L528 456.28l1.2 28.74h.29l9.26-21.52c.78-1.82 2.45-3.39 4.19-3.39h1.67c2.13 0 3.12 1.76 3.12 4.15m69.34 28.63l20.78-20.78v-2.69a6.12 6.12 0 00-1.52-4.09L629 458h32.9l-7.31 7.31a6.12 6.12 0 00-1.52 4.09v29.11a6.09 6.09 0 001.52 4.08l7.31 7.31H629l7.31-7.31a6.09 6.09 0 001.52-4.08v-23.45l-20.78 20.78v2.69a6.09 6.09 0 001.52 4.08l7.31 7.31H593l7.31-7.31a6 6 0 001.53-4.08v-29.11a6.07 6.07 0 00-1.53-4.09L593 458h24.07zm76.93-8.75c21-6.39 37-.49 35.86 25.78h-24.12l5.54-5.5c1.37-1.37 1.29-3.15 1.23-5.47-.27-10.48-7.73-16.48-18.55-12.92v12.5a6.09 6.09 0 001.52 4.08l7.31 7.31h-32.9l7.31-7.31a6 6 0 001.53-4.08v-29.11a6.07 6.07 0 00-1.53-4.09l-7.31-7.33h32.9l-7.31 7.31a6.12 6.12 0 00-1.52 4.09v10.7c9.38-3.34 13.79-10.53 13.68-22.08h20c-2.28 12.55-19.17 21.12-33.69 23.87zm70 8.75l20.78-20.78v-2.69a6.12 6.12 0 00-1.52-4.09L776 458h32.9l-7.31 7.31a6.07 6.07 0 00-1.53 4.09v29.11a6 6 0 001.53 4.08l7.31 7.31H776l7.31-7.31a6.09 6.09 0 001.52-4.08v-23.45L764 495.84v2.69a6.09 6.09 0 001.52 4.08l7.31 7.31H740l7.31-7.31a6.09 6.09 0 001.52-4.08v-29.11a6.12 6.12 0 00-1.52-4.09L740 458h24zM839.92 458l7.31 7.31a6.12 6.12 0 011.52 4.09v29.11a6.09 6.09 0 01-1.52 4.08l-7.31 7.31h32.9l-7.31-7.31a6.09 6.09 0 01-1.52-4.08V464.8c0-2.18 1.1-4.67 5.81-4.69h2.06c1.86 0 3.35.33 4.53 2.32l14.28 24 .24-.08-3.5-31.29-9.95 2.43a16.58 16.58 0 01-4.46.51zm76.37 4.89c5.73-3.14 14.25.29 24 15.39s9 23.63 3.28 26.78-14.32-.39-24-15.38-9-23.64-3.28-26.79m-.51-2.39c14-7.49 31.6-3 39.43 9.92s2.87 29.54-11.08 37-31.6 3-39.43-9.93-2.87-29.49 11.08-36.99zm55.86-2.5h-8.84l7.31 7.31a6.07 6.07 0 011.53 4.09v58.07h24.06l-7.31-7.31a6.14 6.14 0 01-1.52-4.09v-6.17h6.68c25 0 36.34-16.21 36.48-30.72.11-12.05-7.8-22.34-20.42-22.34a24.42 24.42 0 00-22.74 16.89V458zm15.23 25.39v24.43c13.41-.37 26.23-12 26.34-27.76.15-21.06-26.34-16.78-26.34 3.35zm68.47-20.5c5.73-3.14 14.26.29 24 15.39s9 23.63 3.28 26.78-14.32-.39-24-15.38-9-23.64-3.28-26.79m-.51-2.39c14-7.49 31.6-3 39.43 9.92s2.87 29.54-11.08 37-31.6 3-39.43-9.93-2.87-29.49 11.08-36.99zm56.4 47.34h26.83l-14.46-40.6-14.85 35.88c-1.14 2.75-.93 4.71 2.48 4.72m2.18-49.82h22.8l19.09 49.82h8.52l-8.75 21.39h-.3l-3.77-16.59c-.48-2.13-2.63-2.72-4.89-2.72h-32.41a5.19 5.19 0 00-4.89 2.72l-10 16.59h-.3l-1.17-21.39h7.23l15.71-38.45a5.15 5.15 0 00-1.25-5.88zm89.73 20.45c-4.5 2.06-8.94 4.51-12.29 8.11-9.92 10.66.92 28.62 15.3 11.66zm3.39 22.27c-5.88 7.65-16.18 10.74-23.33 10.75-14.26 0-18.16-15-7.94-22.4 6.74-4.88 18.38-9 27.62-12.33-1-6.42-1.44-17.59-10-17.09-4.24.25-6.53 2.44-7.89 6.95l-5.18 17.15h-.28l-4-26.31L1182 459c2.29.54 3.85-.46 7.51-1.26 15.68-3.43 26.78 3.13 29.77 20.14l3.48 19.8a8.2 8.2 0 001.76 4.22l8.44 8.45h-25zm94-60.16l-8.44 8.45a7 7 0 00-1.77 4.72v16.33c12.56-5.67 18.43-14.59 18.72-29.5h20.09c-2 17.78-16.05 25.76-38.81 31.88V476c28-7.29 43.42 1.39 41.7 33.95h-27.54l7.39-7.35c1.83-1.83 1.82-4.22 1.65-7.3-.76-13.58-9.67-19.49-23.2-16.49v18a7 7 0 001.77 4.73l8.44 8.44h-36.87l8.45-8.44a7.09 7.09 0 001.76-4.73v-43a7.07 7.07 0 00-1.76-4.72l-8.45-8.45zm65.36 27.28l13 21.22 10.11-21.23a3.18 3.18 0 00-.41-4L1383 458h18.78l-7.5 6.69a10.37 10.37 0 00-2.09 2.74l-18.19 38c-4.16 8.7-13.78 26.56-31 20.83l-3.4-33.54h.34l13.29 21.6a7.41 7.41 0 0010.34 2.38c2.68-1.66 6.16-8.35 8-12.31L1343.14 458H1372l-5.67 5.84a3.27 3.27 0 00-.4 4m63-9.84h-24.06l7.31 7.31a6.12 6.12 0 011.52 4.09v29.11a6.09 6.09 0 01-1.52 4.08l-7.31 7.31h32.9l-7.31-7.31a6 6 0 01-1.53-4.08v-16.16l20.78 5.56v10.62a6.09 6.09 0 01-1.52 4.08l-7.31 7.31h32.9l-7.31-7.31a6.09 6.09 0 01-1.52-4.08v-29.11a6.12 6.12 0 011.52-4.09l7.31-7.31h-32.9l7.31 7.31a6.12 6.12 0 011.52 4.09v16.33l-20.78-5.57zm52.93 0l7.31 7.31a6.12 6.12 0 011.52 4.09v29.11a6.09 6.09 0 01-1.52 4.08l-7.31 7.31h32.9l-7.31-7.31a6.09 6.09 0 01-1.52-4.08V464.8c0-2.18 1.09-4.67 5.81-4.69h2.06c1.85 0 3.35.33 4.53 2.32l14.28 24 .23-.08-3.49-31.29-9.95 2.43a16.63 16.63 0 01-4.49.54zm83.14 9.86l13 21.22 10.14-21.23a3.21 3.21 0 00-.41-4l-5.67-5.84h18.79l-7.5 6.69a10.61 10.61 0 00-2.1 2.74l-18.18 38c-4.17 8.7-13.79 26.56-31 20.83l-3.4-33.54h.34l13.29 21.6a7.41 7.41 0 0010.34 2.38c2.68-1.66 6.15-8.35 8-12.31l-28.39-46.4h28.81l-5.66 5.84a3.27 3.27 0 00-.41 4m48.51-9.84h-8.83l7.31 7.31a6.12 6.12 0 011.52 4.09v58.07h24.07l-7.31-7.31a6.14 6.14 0 01-1.52-4.09v-6.17h6.68c25 0 36.34-16.21 36.47-30.72.12-12.05-7.8-22.34-20.42-22.34a24.42 24.42 0 00-22.73 16.89V458zm15.24 25.39v24.43c13.41-.37 26.22-12 26.33-27.76.15-21.06-26.33-16.78-26.33 3.35zm82.73-4.92c-4.5 2.06-8.94 4.51-12.29 8.11-9.92 10.66.91 28.62 15.29 11.66zm3.38 22.27c-5.87 7.65-16.17 10.74-23.32 10.75-14.26 0-18.16-15-7.94-22.4 6.74-4.88 18.37-9 27.62-12.33-1-6.42-1.44-17.59-10-17.09-4.24.25-6.52 2.44-7.88 6.95l-5.18 17.15h-.28l-4-26.31 6.52 1.54c2.29.54 3.85-.46 7.51-1.26 15.68-3.43 26.78 3.13 29.77 20.14l3.48 19.8a8.2 8.2 0 001.75 4.22l8.45 8.45h-25zM1077.6 593c-4.49 2.07-8.93 4.51-12.28 8.11-9.93 10.67.91 28.63 15.29 11.67zm3.39 22.28c-5.88 7.65-16.17 10.73-23.33 10.75-14.26 0-18.15-15-7.94-22.4 6.75-4.88 18.38-9 27.62-12.33-1-6.43-1.43-17.59-10-17.09-4.24.24-6.52 2.43-7.89 6.94l-5.18 17.15h-.27l-4-26.3 6.52 1.53c2.29.54 3.84-.45 7.5-1.25 15.68-3.43 26.78 3.13 29.78 20.14l3.48 19.8a8.13 8.13 0 001.75 4.21l8.45 8.45h-25zm41.79 8.61h26.83l-14.47-40.59-14.85 35.88c-1.14 2.74-.93 4.7 2.49 4.71m2.17-49.81h22.81l19.09 49.81h8.51l-8.75 21.4h-.29l-3.77-16.59c-.48-2.14-2.62-2.72-4.88-2.72h-32.43a5.17 5.17 0 00-4.89 2.72l-10 16.59h-.29l-1.18-21.4h7.24l15.7-38.44a5.13 5.13 0 00-1.25-5.88zm96.5 6.18l-6.31-6.18h22.45l13.49 41.29a10.61 10.61 0 002.67 3.92l6.75 6.69h-31.25l5.67-5.84a3.07 3.07 0 00.68-3.1l-9.69-31.23-13.36 41.33h-.3l-14.11-41.58-9.43 30.58c-.42 1.35-.53 3 .41 4l5.66 5.84H1177l6.75-6.69a10 10 0 002.56-3.69l8.82-28.55a6.88 6.88 0 00-1.45-6.79l-6.19-6.18h22.29l8.89 26.79L1223 587a6.15 6.15 0 00-1.51-6.76m66.64 28.7l20.78-20.78v-2.69a6.09 6.09 0 00-1.52-4.08l-7.31-7.31H1333l-7.31 7.31a6 6 0 00-1.52 4.08v29.11a6.07 6.07 0 001.52 4.09L1333 626h-32.9l7.31-7.31a6.12 6.12 0 001.52-4.09v-23.49l-20.78 20.78v2.69a6.12 6.12 0 001.52 4.09L1297 626h-32.9l7.31-7.31a6.12 6.12 0 001.52-4.09v-29.13a6.09 6.09 0 00-1.52-4.08l-7.31-7.31h24.07zm74.87-34.86h-24.07l7.31 7.31a6.09 6.09 0 011.52 4.08v29.11a6.12 6.12 0 01-1.52 4.09l-7.31 7.31h32.9l-7.31-7.31a6.12 6.12 0 01-1.52-4.09V598.4l20.78 5.57v10.61a6.12 6.12 0 01-1.52 4.09L1375 626h32.9l-7.31-7.31a6.07 6.07 0 01-1.52-4.09v-29.13a6 6 0 011.52-4.08l7.31-7.31H1375l7.31 7.31a6.09 6.09 0 011.52 4.08v16.34l-20.83-5.57zm75.21 34.86l20.79-20.78v-2.69a6 6 0 00-1.53-4.08l-7.31-7.31h32.9l-7.31 7.31a6.09 6.09 0 00-1.52 4.08v29.11a6.12 6.12 0 001.52 4.09l7.31 7.31h-32.9l7.31-7.31a6.07 6.07 0 001.53-4.09v-23.47l-20.78 20.78v2.69a6.12 6.12 0 001.52 4.09L1447 626h-32.9l7.31-7.31a6.12 6.12 0 001.52-4.09v-29.13a6.09 6.09 0 00-1.52-4.08l-7.31-7.31h24.07zm76.65-36.01c5.35-.13 9 1.09 12.06.75l6.79-.74-6.65 29h-.21L1522.5 580c-.77-3.89-7.23-4.44-11.38-4.14-23.63 1.73-18.41 39.41 7.71 38.15 12.57-.61 23.87-9.46 20.1-22.72h.27c6.08 18.14-6.7 36.41-27.93 35.79-15.8-.46-26.59-12.13-25.6-27.09s14.07-26.71 29.19-27.1M200.81 696.37v34.27a6.09 6.09 0 01-1.53 4.09L192 742h32.9l-7.31-7.31a6.14 6.14 0 01-1.52-4.09v-34.23c0-2.21 1-4.15 3.85-4.15H223c2.51 0 3.45 1.31 3.7 3.39l2.63 21.52h.29l9.23-28.73-12.25 1.47a28.12 28.12 0 01-3.31.26h-28a24.37 24.37 0 01-3.37-.26l-10.85-1.47 1.2 28.73h.29l9.25-21.52c.79-1.82 2.46-3.39 4.2-3.39h1.67c2.13 0 3.12 1.76 3.12 4.15m52.82-6.23h-8.83l7.31 7.31a6.09 6.09 0 011.52 4.08v58.07h24.07l-7.31-7.31a6.07 6.07 0 01-1.53-4.09V742h6.69c25 0 36.33-16.21 36.47-30.73.12-12-7.8-22.33-20.42-22.33a24.44 24.44 0 00-22.74 16.88v-15.68zm15.23 25.38V740c13.42-.37 26.23-12 26.34-27.75.15-21.15-26.34-16.85-26.34 3.27zm81.59-4.94c-4.5 2.07-8.94 4.51-12.29 8.11-9.92 10.67.92 28.63 15.3 11.67zm3.39 22.28c-5.88 7.65-16.18 10.73-23.33 10.75-14.26 0-18.16-15-7.94-22.4 6.74-4.88 18.38-9 27.62-12.33-1-6.43-1.44-17.59-10-17.09-4.24.24-6.53 2.43-7.89 6.94l-5.18 17.15h-.28l-4-26.3 6.52 1.53c2.29.54 3.85-.45 7.51-1.25 15.68-3.43 26.78 3.13 29.77 20.14l3.48 19.8a8.13 8.13 0 001.76 4.21l8.44 8.45h-25zm48.56-36.49v34.27a6.14 6.14 0 01-1.52 4.09l-7.31 7.27h32.9l-7.31-7.31a6.14 6.14 0 01-1.52-4.09v-34.23c0-2.21 1-4.15 3.85-4.15h3.08c2.51 0 3.46 1.31 3.71 3.39l2.63 21.52h.29l9.22-28.73-12.24 1.47a28.28 28.28 0 01-3.31.26h-28a24.51 24.51 0 01-3.38-.26l-10.85-1.47 1.2 28.73h.3l9.25-21.52c.78-1.82 2.46-3.39 4.19-3.39h1.67c2.14 0 3.12 1.76 3.12 4.15M468.85 725l20.78-20.78v-2.69a6.14 6.14 0 00-1.52-4.09l-7.31-7.31h32.9l-7.31 7.31a6.14 6.14 0 00-1.52 4.09v29.11a6.14 6.14 0 001.52 4.09l7.31 7.27h-32.9l7.31-7.31a6.14 6.14 0 001.52-4.09v-23.43L468.85 728v2.69a6.14 6.14 0 001.52 4.09l7.31 7.31h-32.9l7.31-7.31a6.14 6.14 0 001.52-4.09v-29.16a6.14 6.14 0 00-1.52-4.09l-7.31-7.31h24.07zm76.21 9c0 4.67 4.38 6.39 8.88 6.22 11.49-.45 12.76-18.49.11-16-4.44.89-9 5.21-9 9.73M521 742l7.31-7.31a6.14 6.14 0 001.52-4.09v-29.07a6.14 6.14 0 00-1.52-4.09l-7.31-7.31h30c7.87 0 21 .6 20.36 10.76-.77 13.18-15.41 15.84-26.34 18.56v9.42c9.61-15.18 34.51-15.64 35.63-2C581.86 741 563.12 742 554.62 742zm24.06-24.65c13-3.54 14.75-25.22 5.63-25.31-2.81 0-5.63 2.19-5.63 7zm63.8-27.22H584.8l7.31 7.31a6.14 6.14 0 011.52 4.09v29.11a6.14 6.14 0 01-1.52 4.09L584.8 742h32.9l-7.31-7.31a6.09 6.09 0 01-1.53-4.09v-16.14l20.78 5.54v10.61a6.14 6.14 0 01-1.52 4.09l-7.31 7.3h32.9l-7.31-7.31a6.14 6.14 0 01-1.52-4.09v-29.07a6.14 6.14 0 011.52-4.09l7.31-7.31h-32.9l7.31 7.31a6.14 6.14 0 011.52 4.09v16.34l-20.78-5.57zm62.65 4.87c5.73-3.15 14.26.29 24 15.38s9 23.64 3.28 26.79-14.32-.4-24-15.39-9-23.64-3.28-26.78m-.51-2.4c14-7.48 31.6-3 39.43 9.92s2.87 29.54-11.08 37-31.6 3-39.43-9.92-2.87-29.5 11.08-36.99zm47.25-2.47l7.31 7.31a6.14 6.14 0 011.52 4.09v29.11a6.14 6.14 0 01-1.52 4.09l-7.31 7.27h32.9l-7.31-7.31a6.14 6.14 0 01-1.52-4.09v-33.68c0-2.18 1.09-4.67 5.81-4.7h2.06c1.85 0 3.35.34 4.53 2.33l14.28 24 .23-.08-3.5-31.28-10 2.42a16.54 16.54 0 01-4.49.54zM790.5 695c5.73-3.15 14.26.29 24 15.38s9 23.64 3.28 26.79-14.32-.4-24-15.39-9-23.64-3.28-26.78m-.51-2.4c14-7.48 31.6-3 39.43 9.92s2.87 29.54-11.08 37-31.6 3-39.43-9.92S776 700.1 790 692.61zm97.34 2.4c5.73-3.15 14.26.29 24 15.38s9 23.64 3.28 26.79-14.32-.4-24-15.39-9-23.64-3.28-26.78m-.51-2.4c13.95-7.48 31.6-3 39.43 9.92s2.87 29.54-11.08 37-31.6 3-39.43-9.92-2.87-29.5 11.08-36.99zm76.25 23.65c21-6.39 37-.48 35.86 25.79h-24.08l5.54-5.51c1.36-1.36 1.29-3.15 1.23-5.47-.27-10.48-7.73-16.48-18.55-12.92v12.5a6.14 6.14 0 001.52 4.09l7.31 7.27H939l7.31-7.31a6.14 6.14 0 001.52-4.09v-29.07a6.14 6.14 0 00-1.52-4.09l-7.31-7.31h32.9l-7.31 7.31a6.14 6.14 0 00-1.52 4.09v10.69c9.37-3.35 13.79-10.53 13.68-22.09h20c-2.28 12.56-19.18 21.12-33.69 23.88zm50.53-26.12h-8.83l7.31 7.31a6.12 6.12 0 011.52 4.09v58.07h24.07l-7.31-7.31a6.12 6.12 0 01-1.52-4.09V742h6.68c25 0 36.34-16.22 36.47-30.73.12-12-7.8-22.33-20.42-22.33a24.43 24.43 0 00-22.73 16.88v-15.69zm15.24 25.39V740c13.41-.37 26.22-12 26.33-27.75.15-21.15-26.33-16.86-26.33 3.27zm74.91-15.52l13 21.22 10.13-21.22a3.18 3.18 0 00-.41-4l-5.66-5.84h18.78l-7.5 6.69a10.37 10.37 0 00-2.09 2.74l-18.19 38c-4.16 8.7-13.78 26.56-31 20.83l-3.4-33.54h.34l13.29 21.6a7.41 7.41 0 0010.34 2.38c2.68-1.66 6.16-8.35 8.05-12.31L1081 690.13h28.82l-5.67 5.84a3.27 3.27 0 00-.4 4m40.91-9.84l7.31 7.31a6.14 6.14 0 011.52 4.09v29.11a6.14 6.14 0 01-1.52 4.09l-7.31 7.31h32.9l-7.31-7.31a6.14 6.14 0 01-1.52-4.09v-33.72c0-2.18 1.09-4.67 5.81-4.7h2.06c1.85 0 3.35.34 4.53 2.33l14.28 24 .23-.08-3.5-31.28-10 2.42a16.54 16.54 0 01-4.49.54zm91.84 20.45c-4.5 2.06-8.94 4.51-12.29 8.11-9.92 10.67.91 28.62 15.29 11.66zm3.38 22.27c-5.87 7.66-16.17 10.74-23.33 10.76-14.25 0-18.15-15-7.94-22.41 6.75-4.88 18.38-9 27.63-12.32-1-6.43-1.44-17.59-10-17.1-4.24.25-6.52 2.44-7.88 7l-5.18 17.15h-.28l-4-26.31 6.52 1.54c2.29.54 3.85-.45 7.51-1.25 15.68-3.43 26.78 3.12 29.77 20.13l3.48 19.81a8.2 8.2 0 001.75 4.21l8.45 8.45h-25zM713.33 348.2v34.27a6.07 6.07 0 01-1.53 4.09l-7.31 7.31h32.9l-7.31-7.31a6.12 6.12 0 01-1.52-4.09V348.2c0-2.21 1-4.15 3.85-4.15h3.09c2.51 0 3.45 1.32 3.7 3.39l2.63 21.56h.29l9.23-28.73-12.25 1.48a30 30 0 01-3.31.25h-28a26 26 0 01-3.37-.25l-10.85-1.48L694.8 369h.29l9.25-21.52c.79-1.81 2.46-3.39 4.2-3.39h1.67c2.13 0 3.12 1.76 3.12 4.15m69.32 3.56l13 21.23 10.15-21.23a3.2 3.2 0 00-.42-4l-5.67-5.8h18.78l-7.5 6.7a10.36 10.36 0 00-2.09 2.73l-18.19 38c-4.16 8.71-13.78 26.56-31 20.84l-3.4-33.55h.34l13.29 21.6a7.4 7.4 0 0010.33 2.38c2.69-1.65 6.16-8.35 8-12.3L759.9 342h28.82l-5.66 5.85a3.26 3.26 0 00-.41 4m46.89-9.85h-8.83l7.31 7.31a6.14 6.14 0 011.52 4.09v58.07h24.07l-7.31-7.31a6.12 6.12 0 01-1.52-4.09v-6.16h6.68c25 0 36.34-16.21 36.48-30.73.11-12-7.81-22.33-20.42-22.33a24.43 24.43 0 00-22.74 16.88V342zm15.24 25.39v24.43c13.41-.37 26.23-12 26.34-27.75.14-21.14-26.34-16.84-26.34 3.28zm72.13 9.44l20.78-20.78v-2.69a6.09 6.09 0 00-1.53-4.09l-7.3-7.31h32.9l-7.31 7.31a6.09 6.09 0 00-1.53 4.09v29.11a6.07 6.07 0 001.53 4.09l7.31 7.31h-32.9l7.3-7.31a6.07 6.07 0 001.53-4.09V359l-20.78 20.78v2.69a6.12 6.12 0 001.52 4.09l7.31 7.31h-32.9l7.31-7.31a6.12 6.12 0 001.52-4.09v-29.11a6.14 6.14 0 00-1.52-4.09l-7.31-7.27h24.07zm78.31-36.01c5.34-.14 9 1.08 12.06.75l6.79-.74-6.65 29h-.21l-4.35-21.88c-.77-3.89-7.23-4.44-11.39-4.13-23.63 1.73-18.4 39.41 7.72 38.14 12.57-.61 23.87-9.46 20.1-22.71h.27c6.08 18.13-6.7 36.4-27.93 35.78-15.8-.46-26.59-12.13-25.6-27.09s14.07-26.7 29.19-27.09m51.13 7.35v34.27a6.12 6.12 0 01-1.52 4.09l-7.31 7.31h32.9l-7.31-7.31a6.12 6.12 0 01-1.52-4.09V348.2c0-2.21 1-4.15 3.85-4.15h3.08c2.51 0 3.45 1.32 3.71 3.39l2.62 21.52h.3l9.22-28.73-12.24 1.48a30.33 30.33 0 01-3.31.25h-28a26.14 26.14 0 01-3.38-.25l-10.85-1.48 1.2 28.73h.3l9.25-21.52c.78-1.81 2.46-3.39 4.19-3.39h1.67c2.14 0 3.12 1.76 3.12 4.15m70.6 28.63l20.78-20.78v-2.69a6.14 6.14 0 00-1.52-4.09l-7.31-7.31h32.9l-7.31 7.31a6.14 6.14 0 00-1.52 4.09v29.11a6.12 6.12 0 001.52 4.09l7.31 7.31h-32.9l7.31-7.31a6.12 6.12 0 001.52-4.09V359l-20.78 20.78v2.69a6.07 6.07 0 001.53 4.09l7.31 7.31h-32.9l7.3-7.31a6.07 6.07 0 001.53-4.09v-29.11a6.09 6.09 0 00-1.53-4.09l-7.3-7.31h24.06zm52.61-34.83h23.13l-7.1 7.11c-1 1-1.66 2.73-.19 5.81s5.41 6.81 14.47 3.06V342h24.07l-7.31 7.31a6.09 6.09 0 00-1.53 4.09v29.11a6.07 6.07 0 001.53 4.09l7.31 7.31h-32.86l7.31-7.31a6 6 0 001.48-3.33V360.1c-21.52 10.48-36.15 2.77-30.31-18.14m86.98 11.25c6.92-.29 6.28-11.32-3.74-9.18-4.68 1-9.89 4.61-11.61 9.18zm2.21-12.39c9.92-.26 18.14 3.88 19.72 14.47H1241c-3.81 14.71 6.1 27.22 21.72 26.64 12.57-.46 23.82-9.45 20-22.71h.31c6.08 18.13-6.7 36.41-27.93 35.79-15.8-.46-26.59-12.13-25.6-27.1s14.09-26.7 29.22-27.09zm64.43 0c5.34-.14 9 1.08 12 .75l6.8-.74-6.66 29h-.2l-4.36-21.88c-.77-3.89-7.23-4.44-11.38-4.13-23.63 1.73-18.41 39.41 7.72 38.14 12.56-.61 23.86-9.46 20.09-22.71h.27c6.08 18.13-6.7 36.4-27.93 35.78-15.8-.46-26.59-12.13-25.6-27.09s14.07-26.7 29.2-27.09m57.9 27.24c21-6.4 37-.49 35.86 25.78h-24.06l5.53-5.51c1.37-1.36 1.29-3.15 1.23-5.46-.27-10.49-7.73-16.49-18.55-12.93v12.5a6.07 6.07 0 001.53 4.09l7.31 7.31H1357l7.3-7.31a6.07 6.07 0 001.53-4.09v-29.11a6.09 6.09 0 00-1.53-4.09L1357 342h32.9l-7.31 7.31a6.09 6.09 0 00-1.53 4.09v10.69c9.38-3.35 13.79-10.53 13.68-22.09h20c-2.28 12.56-19.17 21.12-33.69 23.88zm56.22-21.25c5.73-3.15 14.25.29 24 15.38s9 23.64 3.27 26.79-14.32-.4-24-15.39-9-23.63-3.28-26.78m-.51-2.4c14-7.48 31.6-3 39.43 9.92s2.87 29.54-11.08 37-31.61 3-39.43-9.92-2.86-29.51 11.09-37zm71.88-24.04h.08c2.31 6.59 13.92 12.84 24.83 4l1.22 1.47c-9.62 8.91-19.12 11.18-31.81 7.67zm-.16 56.43l20.78-20.78v-2.69a6.09 6.09 0 00-1.53-4.09l-7.31-7.31h32.9l-7.3 7.31a6.09 6.09 0 00-1.53 4.09v29.11a6.07 6.07 0 001.53 4.09l7.3 7.31h-32.9l7.31-7.31a6.07 6.07 0 001.53-4.09V359l-20.78 20.78v2.69a6.12 6.12 0 001.52 4.09l7.31 7.31h-32.9l7.31-7.31a6.12 6.12 0 001.52-4.09v-29.11a6.14 6.14 0 00-1.52-4.09l-7.31-7.31h24.07zM202.74 608.94l20.78-20.78v-2.69a6 6 0 00-1.53-4.08l-7.31-7.31h32.9l-7.3 7.31a6 6 0 00-1.53 4.08v29.11a6.07 6.07 0 001.53 4.09l7.3 7.31h-32.9l7.31-7.31a6.07 6.07 0 001.53-4.09v-23.47l-20.78 20.78v2.69a6.12 6.12 0 001.52 4.09l7.31 7.31h-32.9l7.31-7.31a6.12 6.12 0 001.52-4.09v-29.11a6.09 6.09 0 00-1.52-4.08l-7.31-7.31h24.07zM726 572.93c5.34-.13 9 1.09 12.06.75l6.79-.74-6.66 29H738L733.64 580c-.78-3.89-7.23-4.44-11.39-4.14-23.63 1.73-18.41 39.41 7.72 38.15 12.57-.61 23.87-9.46 20.1-22.72h.26c6.08 18.14-6.7 36.41-27.93 35.79-15.79-.46-26.59-12.13-25.59-27.09s14.07-26.71 29.19-27.1m55.61 27.31c21-6.4 37-.49 35.86 25.78H793.4l5.53-5.51c1.37-1.36 1.29-3.15 1.23-5.46-.27-10.49-7.73-16.49-18.55-12.93v12.5a6.07 6.07 0 001.53 4.09l7.31 7.31h-32.9l7.31-7.31a6.12 6.12 0 001.52-4.09v-29.11a6.09 6.09 0 00-1.52-4.08l-7.31-7.31h32.9l-7.31 7.31a6 6 0 00-1.53 4.08v10.69c9.38-3.35 13.79-10.53 13.68-22.08h20c-2.29 12.55-19.16 21.11-33.68 23.92zM840 579c5.73-3.15 14.25.29 24 15.38s9 23.64 3.28 26.79-14.32-.39-24-15.39S834.3 582.1 840 579m-.51-2.39c14-7.49 31.6-3 39.43 9.92s2.87 29.54-11.08 37-31.6 3-39.43-9.92-2.84-29.61 11.11-37.05zm47.27-2.53l7.31 7.31a6 6 0 011.53 4.08v29.11a6.07 6.07 0 01-1.53 4.09l-7.31 7.33h32.9l-7.31-7.31a6.12 6.12 0 01-1.52-4.09v-33.74c0-2.18 1.1-4.67 5.82-4.69h2.06c1.85 0 3.34.33 4.53 2.32l14.27 24 .24-.07-3.5-31.29-10 2.42a16.21 16.21 0 01-4.49.55zm73.92 4.92c5.73-3.15 14.25.29 24 15.38s9 23.64 3.28 26.79-14.32-.39-24-15.39-9-23.63-3.27-26.78m-.51-2.39c13.94-7.49 31.6-3 39.43 9.92s2.86 29.54-11.08 37-31.61 3-39.44-9.92-2.87-29.61 11.08-37.05zm-643.32-19.97l-8.45 8.44a7.09 7.09 0 00-1.76 4.73v16.32c12.56-5.66 18.42-14.58 18.71-29.49h20.09c-2 17.78-16 25.75-38.8 31.88V592c28-7.29 43.41 1.39 41.7 34H320.8l7.4-7.36c1.82-1.82 1.81-4.21 1.64-7.3-.76-13.57-9.66-19.48-23.19-16.48v18a7.07 7.07 0 001.76 4.72l8.45 8.45H280l8.45-8.45a7.07 7.07 0 001.76-4.72v-43a7.09 7.09 0 00-1.76-4.73l-8.45-8.49zm65.35 27.28l13 21.22 10.14-21.23a3.21 3.21 0 00-.41-4l-5.67-5.84h18.79l-7.5 6.69a10.19 10.19 0 00-2.1 2.73l-18.18 38c-4.17 8.71-13.79 26.56-31 20.84l-3.4-33.54h.34l13.29 21.59a7.4 7.4 0 0010.34 2.38c2.68-1.65 6.15-8.35 8-12.3l-28.4-46.41h28.81l-5.66 5.84a3.27 3.27 0 00-.41 4m63.07-9.81h-24.07l7.31 7.31a6.09 6.09 0 011.52 4.08v29.11a6.12 6.12 0 01-1.52 4.09l-7.31 7.33h32.9l-7.31-7.31a6.12 6.12 0 01-1.52-4.09v-16.2L466 604v10.61a6.12 6.12 0 01-1.52 4.09l-7.27 7.3h32.9l-7.31-7.31a6.07 6.07 0 01-1.53-4.09v-29.13a6 6 0 011.53-4.08l7.31-7.31h-32.9l7.31 7.31a6.09 6.09 0 011.52 4.08v16.34l-20.78-5.57zm52.93 0l7.3 7.31a6 6 0 011.53 4.08v29.11a6.07 6.07 0 01-1.53 4.09l-7.3 7.31h32.9l-7.31-7.31a6.07 6.07 0 01-1.53-4.09v-33.72c0-2.18 1.1-4.67 5.82-4.69h2.06c1.85 0 3.34.33 4.53 2.32l14.27 24 .24-.07-3.5-31.29-9.95 2.42a16.21 16.21 0 01-4.49.55zm83.13 9.84l13 21.22 10.15-21.23a3.2 3.2 0 00-.42-4l-5.66-5.84h18.78l-7.5 6.69a10.36 10.36 0 00-2.09 2.73l-18.19 38c-4.16 8.71-13.78 26.56-31 20.84L555 608.82h.34l13.28 21.59a7.4 7.4 0 0010.34 2.38c2.68-1.65 6.16-8.35 8.05-12.3l-28.41-46.41h28.82l-5.66 5.84a3.25 3.25 0 00-.41 4m48.48-9.84H621l7.31 7.31a6 6 0 011.53 4.08v58.07h24.06l-7.31-7.31a6.12 6.12 0 01-1.52-4.09V626h6.68c25 0 36.34-16.21 36.48-30.73.11-12-7.8-22.33-20.42-22.33a24.44 24.44 0 00-22.74 16.88v-15.74zm15.23 25.38v24.43c13.41-.37 26.23-12 26.34-27.75.15-21.14-26.34-16.8-26.34 3.32z" fill="#d6e2d4" fill-rule="evenodd"/><path fill="#d6e2d4" d="M1558.18 598.98h45.5v2.09h-45.5z"/></svg>