<svg data-name="Layer 1" xmlns="http://www.w3.org/2000/svg" viewBox="0 0 1920 1080"><path fill="#d6e2d4" d="M0 0h1920v1080H0z"/><path d="M917.45 317.5h37.39v24.84h10.32V317.5h37.39v26.99l-14.87 7.67 14.87 7.67v27h-37.39v-24.85h-10.32v24.85h-37.39V317.5zm47.73 124.82H917.5V462h85.11v-69.37h-37.43v22.5h-10.25v-22.5H917.5v42.15h47.68zm-47.79 25.45h37.39v20.86h10.33v-20.86h37.39v69.33h-37.39v-20.87h-10.33v20.87h-37.39v-69.33zm84.94 75.13v23.18h-47.78v46.15H917.5V542.9h84.83zm-36.78 124.83h-48v19.64h85.11V618h-37.11v22.5h-11V618H917.5v42.14h48zm-10.66 45.09v18.48h10.33v-18.48zm-37.39-19.65h85.11V751h-47.72v11.5H917.5z" fill="#706d4c" fill-rule="evenodd"/><path d="M186.73 929.69a6.52 6.52 0 013.09-.86c1.66 0 2.88.91 2.88 2.52a2.63 2.63 0 01-2 2.56 9.68 9.68 0 01-2.55-.14 1.29 1.29 0 00-.16.79 1.67 1.67 0 00.14.82 10.83 10.83 0 011.82-.19c1.95 0 3.17 1 3.17 2.76a2.91 2.91 0 01-1 2.37 4 4 0 01-2.09.48 4.9 4.9 0 01-3.19-1 2.26 2.26 0 00-.92 1.39 5.67 5.67 0 004.13 1.25 6 6 0 003.77-1.2 3.94 3.94 0 001.56-3.27 3.1 3.1 0 00-1-2.42 3.86 3.86 0 00-2.21-1.06v-.09a3.57 3.57 0 002.71-3.48c0-2.21-1.75-3.6-4.27-3.6a8.9 8.9 0 00-4.37 1 3.68 3.68 0 00.44 1.39m12.98 9.1a2.17 2.17 0 01.58-1.51 5.09 5.09 0 012.9-.58 7.75 7.75 0 011.37.19v2.36a3.43 3.43 0 01-2.86 1.58 1.93 1.93 0 01-2-2m6.89-4c0-3.15-1.18-4.35-3.65-4.35a10.87 10.87 0 00-4.7 1.25 1.52 1.52 0 00.43 1.2 7.24 7.24 0 013.43-1c1.92 0 2.45 1 2.43 3.58-4.9.07-6.91 1.08-6.91 3.74a3 3 0 003.14 3 4.75 4.75 0 003.82-1.9h.07a11.56 11.56 0 00.17 1.88l1.94-.2a35.68 35.68 0 01-.17-4.82zm2.65-4.08a19.87 19.87 0 01.14 2.88v1.06c0 2.52 1.25 3.52 3.46 3.52a6.67 6.67 0 003.17-.86v1.32a16.27 16.27 0 01-.22 3.38h2.38c-.12-1.12-.17-2.85-.17-5.18v-1c0-2.14.05-3.82.17-5.07h-2.33a29.87 29.87 0 01.17 3.48v2a5 5 0 01-2.42.53c-1.61 0-2.21-.77-2.21-2.62 0-1.05 0-2.21.16-3.43zm13.73 4.71a5 5 0 01.36-1.73 4 4 0 01.77-1.4 3.59 3.59 0 012-.55 2.61 2.61 0 011.85.7 2.28 2.28 0 01.75 1.8 1.24 1.24 0 01-.17.72 13 13 0 01-2.52.31c-1.37.1-2.38.15-3 .15m3.43-5a4.89 4.89 0 00-4 1.75 6.45 6.45 0 00-1.44 4.22c0 3.63 1.94 5.86 5.23 5.86a6.62 6.62 0 004.18-1.37 1.43 1.43 0 00-.39-1 5.19 5.19 0 01-3.12.87c-2.28 0-3.79-1.3-3.89-4.11l1.76-.14a34.85 34.85 0 005.78-.77 4.22 4.22 0 00.24-1.41 3.8 3.8 0 00-1.13-2.72 4.18 4.18 0 00-3.26-1.2zm8.5 11.59c-.07-2.64 0-5.56.1-8.78h.12c.17.48.5 1.25 1 2.33l.89 1.87 1.1 2.47h1.13l.94-1.89c.88-1.9 1.6-3.46 2.11-4.73h.14v4c0 2.3.05 3.89 0 4.68h2.18c-.26-2-.43-4.87-.55-8.64l-.05-2.66h-1.94c-.34.89-1.35 3.07-3 6.58H239c-.72-1.37-1.78-3.58-3.15-6.58h-2l-.19 4c-.19 3.34-.38 5.76-.55 7.27zm27.25 0c-.08-1.29-.12-2.88-.12-4.75v-1.61c0-1.75 0-3.4.12-4.94h-1.78c-.31.6-1.3 2-2.91 4.32s-2.54 3.67-2.85 4.2h-.12c.09-.84.14-2.14.14-3.94v-1.65a23.24 23.24 0 01.12-2.93h-2.28c.12 1.42.17 3.07.17 4.92v1c0 2.37 0 4.18-.17 5.37h1.85c.43-.74 1.42-2.23 2.95-4.41s2.47-3.58 2.79-4.13h.07c-.07.82-.1 2.23-.1 4.25v1.34a19.61 19.61 0 01-.16 3zm3.43-9.45a5.6 5.6 0 012.83-.74c1.51 0 2.33.74 2.33 1.91a2.07 2.07 0 01-2.28 1.92 5.28 5.28 0 01-1.54-.16 1.57 1.57 0 000 1.46 5.93 5.93 0 011.66-.17c1.53 0 2.66.75 2.66 2a2 2 0 01-.91 1.77 3.77 3.77 0 01-1.8.36 5.3 5.3 0 01-3-.88 2.27 2.27 0 00-.65 1.32 4.1 4.1 0 001.44.64 7.16 7.16 0 002.11.32c2.91 0 5-1.25 5-3.68a2.6 2.6 0 00-2.52-2.54v-.12a2.91 2.91 0 002-2.73c0-1.64-1.25-2.86-3.62-2.86a8.4 8.4 0 00-4 .86 2.85 2.85 0 00.36 1.3m15.17-.8c2.28 0 3.38 2 3.38 4.85a5 5 0 01-1.2 3.7 3.11 3.11 0 01-1.7.55c-2.21 0-3.6-1.83-3.6-5a4.91 4.91 0 011.05-3.44 2.82 2.82 0 012.07-.67m.38-1.44a5.22 5.22 0 00-4 1.71 6.29 6.29 0 00-1.56 4.44 6.17 6.17 0 001.42 4.22 5.35 5.35 0 007.7-.05 6.34 6.34 0 001.49-4.34c-.01-3.64-1.86-5.97-5.05-5.97zm9.27 5.8a5.88 5.88 0 01.45-2.72 3.29 3.29 0 012.81-1.36c1.75 0 2.81 1.72 2.81 4.6a5.45 5.45 0 01-1 3.65 2.48 2.48 0 01-1.83.67c-1.92 0-3.21-1.84-3.21-4.84m3.74-5.4a4.86 4.86 0 00-4.42 2.68h-.07a8.54 8.54 0 01.6-3.09 4.48 4.48 0 01.84-1.37 5.46 5.46 0 013.55-1.56c1.73-.17 2.76-.46 3.12-.86a3 3 0 00-.07-1.92c-.33.4-1.34.72-3 .91a6 6 0 00-4.89 2.85 12.62 12.62 0 00-1.52 6.51c0 4.77 1.92 7.44 5.19 7.44a4.55 4.55 0 003.77-1.73 7.25 7.25 0 001.36-4.58c-.03-3.34-1.78-5.28-4.49-5.28zm9.33 2.95a3.32 3.32 0 011.87-1.54 3 3 0 01.91-.09c1.76.07 2.79 1.48 2.79 4.1a5.39 5.39 0 01-1.39 4.13 4.13 4.13 0 01-2.52.69 4.34 4.34 0 01-1.66-.28zm-2.18-2.81c.12 1.37.19 3.7.19 7v1.18c0 4-.07 6.53-.19 7.63h2.32c-.09-.94-.14-2.23-.14-3.91v-.67a7.27 7.27 0 001.54.19 6.28 6.28 0 004.39-1.71 6.2 6.2 0 001.82-4.75c0-3-1.32-4.8-3.5-5.18a4.13 4.13 0 00-1.66.29 3.43 3.43 0 00-2.66 1.51v-1.87zm14.04 4.59a5 5 0 01.36-1.73 4.19 4.19 0 01.76-1.4 3.65 3.65 0 012-.55 2.61 2.61 0 011.85.7 2.31 2.31 0 01.74 1.8 1.24 1.24 0 01-.16.72 13.31 13.31 0 01-2.52.31c-1.37.1-2.38.15-3 .15m3.43-5a4.89 4.89 0 00-4 1.75 6.45 6.45 0 00-1.44 4.22c0 3.63 1.94 5.86 5.23 5.86a6.57 6.57 0 004.17-1.37 1.46 1.46 0 00-.38-1 5.19 5.19 0 01-3.12.87c-2.28 0-3.79-1.3-3.89-4.11l1.75-.14a34.83 34.83 0 005.79-.77 4.22 4.22 0 00.24-1.41 3.84 3.84 0 00-1.13-2.72 4.18 4.18 0 00-3.25-1.2zm5.63 1.95a18.76 18.76 0 012.79-.15h1V935a69.62 69.62 0 01-.22 7.1h2.42c-.12-1.17-.19-3.52-.19-7v-2.76h1a16.23 16.23 0 012.76.15v-1.66h-9.48zm12.96 6.38a2.17 2.17 0 01.58-1.51 5.09 5.09 0 012.9-.58 7.87 7.87 0 011.37.19v2.36a3.43 3.43 0 01-2.86 1.58 1.93 1.93 0 01-2-2m6.89-4c0-3.15-1.18-4.35-3.65-4.35a10.87 10.87 0 00-4.7 1.25 1.52 1.52 0 00.43 1.2 7.24 7.24 0 013.43-1c1.92 0 2.45 1 2.43 3.58-4.9.07-6.92 1.08-6.92 3.74a3 3 0 003.15 3 4.71 4.71 0 003.81-1.9h.08a13.38 13.38 0 00.16 1.88l1.95-.2a35.68 35.68 0 01-.17-4.82zm2-2.42a18.76 18.76 0 012.79-.15h1V935a69.62 69.62 0 01-.22 7.1h2.42c-.12-1.17-.19-3.52-.19-7v-2.76h1a16.23 16.23 0 012.76.15v-1.66h-9.48zm18.12 5.88a2.4 2.4 0 01-1 2.13 3.42 3.42 0 01-1.85.39 4.44 4.44 0 01-1.59-.2 32.78 32.78 0 010-4.65c2.79-.65 4.42.31 4.42 2.33m-6.58-7.54a35.68 35.68 0 01.17 4.61v.89c0 2.71 0 4.61-.14 5.69a19 19 0 003.34.26c3.45 0 5.2-1.54 5.2-3.91a3.45 3.45 0 00-1.73-3.27 6.48 6.48 0 00-4.68-.28v-1.28a15.61 15.61 0 01.15-2.71zm25.39 11.3c-.07-1.29-.12-2.88-.12-4.75v-1.61c0-1.75.05-3.4.12-4.94h-1.77c-.31.6-1.3 2-2.91 4.32s-2.54 3.67-2.85 4.2h-.12c.09-.84.14-2.14.14-3.94v-1.65a23.24 23.24 0 01.12-2.93h-2.28c.12 1.42.17 3.07.17 4.92v1c0 2.37-.05 4.18-.17 5.37h1.85c.43-.74 1.42-2.23 2.95-4.41s2.47-3.58 2.79-4.13h.07c-.07.82-.1 2.23-.1 4.25v1.34a19.4 19.4 0 01-.17 3zm17.5 0c-.1-1.36-.14-3.19-.14-5.49v-.89c0-.72 0-2.35.14-4.92h-9.41c.12 1.78.17 3.41.17 4.9v1c0 1.61 0 3.38-.17 5.37h2.3c-.09-1.41-.14-3.57-.14-6.52v-3.34a20.74 20.74 0 012.54-.1 22.15 22.15 0 012.6.1v3.27c0 3-.07 5.18-.19 6.59zm12.43 0c-.07-1.1-.12-2.92-.12-5.47v-.89c0-2.32.05-4 .12-4.94h-7.63a12.46 12.46 0 01.19 2.38v.64c0 4.83-.81 6.84-2.52 6.58a3 3 0 000 1.92c3.07.46 4.27-2.45 4.27-8.33v-1.75c.29 0 .86-.05 1.75-.05s1.49 0 1.8.05v5a43.25 43.25 0 01-.19 4.89zm7.66-10.27c2.28 0 3.38 2 3.38 4.85a5 5 0 01-1.2 3.7 3.11 3.11 0 01-1.7.55c-2.21 0-3.6-1.83-3.6-5a4.91 4.91 0 011-3.44 2.82 2.82 0 012.07-.67m.38-1.44a5.22 5.22 0 00-4 1.71 6.29 6.29 0 00-1.56 4.44 6.17 6.17 0 001.42 4.22 5.35 5.35 0 007.7-.05 6.34 6.34 0 001.49-4.34c.04-3.64-1.81-5.97-5-5.97zm10.82 1.86a8.11 8.11 0 011.65-.1 8.48 8.48 0 011.68.1v8.42h-5.08c1-1 1.72-4.17 1.75-8.42m-3 12.72v-2.86h8.23v2.86H439v-4.3h-1.52c-.07-.76-.11-2.23-.11-4.39v-.76c0-2 0-3.53.14-4.71h-7.37a18 18 0 01.15 2.4 18.53 18.53 0 01-.68 5c-.43 1.63-1 2.44-1.56 2.44h-.74v4.3zm21.9-2.86c-.08-1.29-.12-2.88-.12-4.75v-1.61c0-1.75 0-3.4.12-4.94h-1.78c-.31.6-1.3 2-2.9 4.32s-2.55 3.67-2.86 4.2h-.12a37.41 37.41 0 00.14-3.94v-1.65a23.24 23.24 0 01.12-2.93h-2.28c.12 1.42.17 3.07.17 4.92v1c0 2.37-.05 4.18-.17 5.37h1.85c.43-.74 1.42-2.23 2.95-4.41s2.48-3.58 2.79-4.13h.07c-.07.82-.1 2.23-.1 4.25v1.34a19.61 19.61 0 01-.16 3zm2.1-9.64a18.76 18.76 0 012.79-.15h1V935a66.63 66.63 0 01-.22 7.1H459c-.12-1.17-.2-3.52-.2-7v-2.76h1a16.23 16.23 0 012.76.15v-1.66H453zm18.1 5.88a2.4 2.4 0 01-1 2.13 3.42 3.42 0 01-1.85.39 4.33 4.33 0 01-1.58-.2 30.05 30.05 0 010-4.65c2.78-.65 4.41.31 4.41 2.33m-6.57-7.54a37.69 37.69 0 01.17 4.61v.89c0 2.71-.05 4.61-.15 5.69a19 19 0 003.34.26c3.45 0 5.21-1.54 5.21-3.91a3.47 3.47 0 00-1.73-3.27 6.49 6.49 0 00-4.68-.28v-1.28a17.11 17.11 0 01.14-2.71zm25.27 11.3c-.1-1.6-.15-3.36-.15-5.23v-.77c0-2.42.05-4.19.15-5.3h-2.29a25.52 25.52 0 01.17 3.6v1a22.27 22.27 0 01-2.64.1 22.5 22.5 0 01-2.64-.1v-.87a31.94 31.94 0 01.15-3.74h-2.31c.12 1.11.17 2.88.17 5.33v.69c0 2.14-.05 3.92-.17 5.28h2.31c-.1-.88-.15-2.35-.15-4.34v-.94a38.76 38.76 0 015.28 0v.94a38.08 38.08 0 01-.17 4.34zm7.94-10.27c2.28 0 3.38 2 3.38 4.85a4.94 4.94 0 01-1.2 3.7 3.09 3.09 0 01-1.7.55c-2.21 0-3.6-1.83-3.6-5a4.87 4.87 0 011.06-3.44 2.78 2.78 0 012.06-.67m.38-1.44a5.19 5.19 0 00-4 1.71 7.06 7.06 0 00-.15 8.66 5.36 5.36 0 007.71-.05 6.38 6.38 0 001.48-4.34c0-3.64-1.84-5.97-5.04-5.97zm9.96 6.47a13.6 13.6 0 012-.1c1.54 0 2.74.58 2.74 2a2.19 2.19 0 01-.94 2 5.5 5.5 0 01-2.16.28 4.72 4.72 0 01-1.61-.19zm0-4.85a6.43 6.43 0 011.68-.19c1.73 0 2.6.62 2.6 1.87a2 2 0 01-1.76 1.9 12.06 12.06 0 01-2.52 0zm1.83-1.49a30.11 30.11 0 00-4 .29c.12 1.32.17 2.93.17 4.8v.94c0 2.23-.05 4.1-.17 5.56a19.07 19.07 0 003.51.27c3.29 0 5.4-1.27 5.4-3.55a2.6 2.6 0 00-2.52-2.76v-.12a2.8 2.8 0 002.06-2.62q.01-2.81-4.45-2.81zm17.71 6.17c0 2.09-.05 3.89-.17 5.42h2.23c-.09-1-.14-2.88-.14-5.64v-1c0-2.23.05-3.77.14-4.63h-2.18c.07 1.44.12 3 .12 4.73zm-3.7 1.66a2.61 2.61 0 01-.86 2.13 3.48 3.48 0 01-1.58.41 4.06 4.06 0 01-1.64-.22 30.05 30.05 0 010-4.65c2.48-.6 4.08.31 4.08 2.33zm-6.16-7.54a44.72 44.72 0 01.16 4.8v.94c0 2.61 0 4.44-.16 5.45a18.87 18.87 0 003.26.26c3.24 0 4.82-1.63 4.82-3.91a3.34 3.34 0 00-1.65-3.17 5.75 5.75 0 00-4.27-.38v-1.3a16 16 0 01.14-2.69zm16.72 4.71a5 5 0 01.36-1.73 4.18 4.18 0 01.77-1.4 3.65 3.65 0 012-.55 2.64 2.64 0 011.85.7 2.31 2.31 0 01.74 1.8 1.24 1.24 0 01-.17.72 13 13 0 01-2.52.31c-1.36.1-2.37.15-3 .15m3.44-5a4.91 4.91 0 00-4 1.75 6.45 6.45 0 00-1.44 4.22c0 3.63 2 5.86 5.24 5.86a6.59 6.59 0 004.17-1.37 1.46 1.46 0 00-.38-1 5.19 5.19 0 01-3.12.87c-2.28 0-3.79-1.3-3.89-4.11l1.75-.14a35 35 0 005.79-.77 4.49 4.49 0 00.24-1.41 3.84 3.84 0 00-1.13-2.72 4.21 4.21 0 00-3.26-1.2zM188.72 964.9a13.51 13.51 0 012-.1c1.53 0 2.73.58 2.73 2a2.19 2.19 0 01-.93 2 5.52 5.52 0 01-2.16.29 4.61 4.61 0 01-1.61-.2zm0-4.85a6.32 6.32 0 011.68-.19c1.73 0 2.59.62 2.59 1.87a2 2 0 01-1.75 1.9 12.74 12.74 0 01-2.52 0zm1.82-1.49a30 30 0 00-4 .29c.12 1.32.17 2.93.17 4.8v.94c0 2.23 0 4.1-.17 5.57a20.1 20.1 0 003.5.26c3.29 0 5.4-1.27 5.4-3.55a2.6 2.6 0 00-2.52-2.76V964a2.81 2.81 0 002.07-2.62q.01-2.81-4.45-2.82zm17.52 11.6c-.07-1.3-.12-2.88-.12-4.76v-1.6c0-1.76.05-3.41.12-4.95h-1.77c-.31.6-1.3 2-2.91 4.32s-2.54 3.67-2.85 4.2h-.12c.09-.84.14-2.13.14-3.93v-1.66a23.24 23.24 0 01.12-2.93h-2.28c.12 1.42.17 3.07.17 4.92v1c0 2.38-.05 4.18-.17 5.38h1.85c.43-.75 1.41-2.24 2.95-4.42s2.47-3.58 2.79-4.13h.07c-.07.82-.1 2.23-.1 4.25v1.34a19.63 19.63 0 01-.17 3zm3.43-9.46a5.74 5.74 0 012.84-.74c1.51 0 2.33.74 2.33 1.92a2.08 2.08 0 01-2.29 1.92 5.2 5.2 0 01-1.53-.17 1.57 1.57 0 000 1.46 5.93 5.93 0 011.66-.17c1.53 0 2.66.75 2.66 2a2 2 0 01-.91 1.78 3.89 3.89 0 01-1.8.36 5.28 5.28 0 01-3-.89 2.3 2.3 0 00-.65 1.32 4.26 4.26 0 001.44.65 7.49 7.49 0 002.11.31c2.91 0 5-1.25 5-3.67a2.6 2.6 0 00-2.52-2.55v-.12a2.91 2.91 0 002-2.73c0-1.64-1.25-2.86-3.63-2.86a8.43 8.43 0 00-4 .86 2.85 2.85 0 00.36 1.3m13.88 9.48h.6a14.93 14.93 0 01-2.47 4 1.8 1.8 0 001.53 1.1c.79-1 1.83-3.45 3.15-7.24l.88-2.57 1-3.15c.55-1.6.93-2.76 1.2-3.43h-2c-.26 1.25-.69 2.91-1.27 4.95a45.55 45.55 0 01-1.39 4.44h-.12a98.94 98.94 0 01-3.19-9.39h-2.57zm9.14-3.27a2.18 2.18 0 01.58-1.51 5.18 5.18 0 012.9-.58 8 8 0 011.37.2v2.35a3.43 3.43 0 01-2.86 1.58 1.93 1.93 0 01-2-2m6.89-4c0-3.15-1.18-4.35-3.65-4.35a10.87 10.87 0 00-4.7 1.25 1.52 1.52 0 00.43 1.2 7.24 7.24 0 013.43-1c1.92 0 2.45 1 2.43 3.58-4.9.07-6.91 1.08-6.91 3.74a3 3 0 003.14 3 4.77 4.77 0 003.82-1.89h.07a11.53 11.53 0 00.17 1.87l1.94-.19a35.87 35.87 0 01-.17-4.83zm12.37 7.23c-.07-1.11-.12-2.93-.12-5.48v-.88c0-2.33 0-4 .12-4.95h-7.63a12.46 12.46 0 01.19 2.38v.65c0 4.82-.82 6.84-2.52 6.57a3 3 0 000 1.92c3.07.46 4.27-2.45 4.27-8.33v-1.75h3.55v5a43.59 43.59 0 01-.19 4.9zm9.72-3.77a2.42 2.42 0 01-1 2.13 3.44 3.44 0 01-1.85.39 4.5 4.5 0 01-1.59-.19 30.19 30.19 0 010-4.66c2.79-.65 4.42.31 4.42 2.33m-6.53-7.54a35.78 35.78 0 01.17 4.61v.89c0 2.71 0 4.61-.14 5.69a19 19 0 003.33.26c3.46 0 5.21-1.54 5.21-3.91a3.46 3.46 0 00-1.73-3.27 6.48 6.48 0 00-4.68-.28v-1.28a15.61 15.61 0 01.15-2.71zm20.57 11.31c-.1-1.61-.15-3.36-.15-5.24v-.76q0-3.64.15-5.31h-2.28a27.51 27.51 0 01.16 3.6v1a22.18 22.18 0 01-2.63.1 22.59 22.59 0 01-2.65-.1v-.86a32.14 32.14 0 01.15-3.75H268a53 53 0 01.17 5.33v.7c0 2.13 0 3.91-.17 5.28h2.31c-.1-.89-.15-2.36-.15-4.35v-.93a20.52 20.52 0 012.65-.1 20.16 20.16 0 012.63.1v.93a41.41 41.41 0 01-.16 4.35zm13.29-5.43c0 2.09 0 3.89-.16 5.43h2.23c-.1-1-.15-2.88-.15-5.64v-1c0-2.23.05-3.76.15-4.63h-2.19c.08 1.44.12 3 .12 4.73zm-3.69 1.66a2.62 2.62 0 01-.87 2.13 3.41 3.41 0 01-1.58.41 4.27 4.27 0 01-1.63-.21 30.19 30.19 0 010-4.66c2.47-.6 4.08.31 4.08 2.33zm-6.17-7.54a44 44 0 01.17 4.8v.94c0 2.61-.05 4.44-.17 5.45a18.87 18.87 0 003.26.26c3.24 0 4.83-1.63 4.83-3.91a3.33 3.33 0 00-1.66-3.17 5.75 5.75 0 00-4.27-.38v-1.3a17.16 17.16 0 01.14-2.69zm16.73 4.71a5 5 0 01.36-1.73 3.86 3.86 0 01.77-1.39 3.6 3.6 0 012-.56 2.61 2.61 0 011.85.7 2.33 2.33 0 01.75 1.8 1.24 1.24 0 01-.17.72 12.24 12.24 0 01-2.52.31c-1.37.1-2.38.15-3 .15m3.43-5a4.91 4.91 0 00-4 1.75 6.45 6.45 0 00-1.44 4.23c0 3.62 1.94 5.85 5.23 5.85a6.62 6.62 0 004.11-1.39 1.39 1.39 0 00-.39-1 5.26 5.26 0 01-3.12.86c-2.28 0-3.79-1.3-3.89-4.1l1.76-.15a33.82 33.82 0 005.78-.77 4.22 4.22 0 00.24-1.41 3.76 3.76 0 00-1.13-2.71 4.14 4.14 0 00-3.19-1.18zm13.8 3.22a3.34 3.34 0 011.88-1.54 3 3 0 01.91-.09c1.75.07 2.78 1.49 2.78 4.1a5.34 5.34 0 01-1.39 4.13 4.06 4.06 0 01-2.52.7 4.33 4.33 0 01-1.66-.29zm-2.2-2.78c.12 1.37.19 3.7.19 7v1.18c0 4-.07 6.53-.19 7.63h2.33a38.88 38.88 0 01-.15-3.91v-.67a7.35 7.35 0 001.54.19 6.29 6.29 0 004.39-1.7 6.21 6.21 0 001.83-4.76c0-3-1.32-4.8-3.51-5.18a4.3 4.3 0 00-1.65.29 3.48 3.48 0 00-2.67 1.51v-1.87zm14.04 4.56a5 5 0 01.36-1.73 3.86 3.86 0 01.77-1.39 3.61 3.61 0 012-.56 2.6 2.6 0 011.84.7 2.3 2.3 0 01.75 1.8 1.24 1.24 0 01-.17.72 12.24 12.24 0 01-2.52.31c-1.37.1-2.38.15-3 .15m3.43-5a4.91 4.91 0 00-4 1.75 6.45 6.45 0 00-1.44 4.23c0 3.62 1.94 5.85 5.23 5.85a6.62 6.62 0 004.18-1.37 1.39 1.39 0 00-.39-1 5.24 5.24 0 01-3.12.86c-2.28 0-3.79-1.3-3.88-4.1l1.75-.15a33.82 33.82 0 005.78-.77 4.22 4.22 0 00.24-1.41 3.76 3.76 0 00-1.13-2.71 4.14 4.14 0 00-3.25-1.2zm20.59 11.6c-.1-1-.15-2.76-.15-5.38v-1c0-1.85.05-3.5.15-5h-2.16c.09 1.11.14 2.52.14 4.23v5.64l-1.92.07c-.93 0-1.56 0-1.92-.07V963a39.38 39.38 0 01.17-4.15H343c.07 1 .12 2.43.12 4.23v5.64l-1.92.07a18.94 18.94 0 01-1.9-.07V963c0-1.68.05-3.07.14-4.18h-2.18a48.47 48.47 0 01.17 4.95v1c0 2-.05 3.82-.17 5.36zm4.82-6.6a5 5 0 01.36-1.73 4 4 0 01.77-1.39 3.63 3.63 0 012-.56 2.64 2.64 0 011.85.7 2.32 2.32 0 01.74 1.8 1.24 1.24 0 01-.17.72 12.24 12.24 0 01-2.52.31q-2.06.15-3 .15m3.43-5a4.93 4.93 0 00-4 1.75 6.45 6.45 0 00-1.44 4.23c0 3.62 1.95 5.85 5.23 5.85a6.62 6.62 0 004.18-1.37 1.42 1.42 0 00-.38-1 5.28 5.28 0 01-3.12.86c-2.28 0-3.8-1.3-3.89-4.1l1.75-.15a33.69 33.69 0 005.78-.77 4.22 4.22 0 00.24-1.41 3.79 3.79 0 00-1.12-2.71 4.18 4.18 0 00-3.26-1.2zm16.53 11.6a94.13 94.13 0 01-.14-5.24v-.76c0-2.43.05-4.2.14-5.31h-2.28a27.15 27.15 0 01.17 3.6v1a34.9 34.9 0 01-5.28 0v-.86a32.14 32.14 0 01.15-3.75h-2.31c.12 1.11.17 2.88.17 5.33v.7c0 2.13-.05 3.91-.17 5.28h2.31c-.1-.89-.15-2.36-.15-4.35v-.93a34.9 34.9 0 015.28 0v.93a40.91 40.91 0 01-.17 4.35zm13.11 0c-.07-1.3-.12-2.88-.12-4.76v-1.6c0-1.76.05-3.41.12-4.95H387c-.31.6-1.29 2-2.9 4.32s-2.55 3.67-2.86 4.2h-.12a36.53 36.53 0 00.15-3.93v-1.66a21.37 21.37 0 01.12-2.93h-2.28c.12 1.42.16 3.07.16 4.92v1c0 2.38 0 4.18-.16 5.38H381c.44-.75 1.42-2.24 3-4.42s2.47-3.58 2.78-4.13h.07c-.07.82-.09 2.23-.09 4.25v1.34a19.63 19.63 0 01-.17 3zm9.79-5.91a5.25 5.25 0 01-1 .1c-2.16 0-3.24-.75-3.24-2.26a2.25 2.25 0 01.81-1.7 3.65 3.65 0 011.95-.39 6.72 6.72 0 011.46.12zm2.14 5.91c-.12-1.54-.17-3.24-.17-5.09v-1.13a48.92 48.92 0 01.17-5 20.52 20.52 0 00-3.56-.29 6.26 6.26 0 00-3.45.89 2.9 2.9 0 00-1.39 2.62 2.93 2.93 0 002.61 2.88c-.17.24-.48.75-1 1.54s-.92 1.46-1.32 2.06-.75 1.08-1 1.42a5.51 5.51 0 002 .29 4.71 4.71 0 001.12-1.52c.36-.57.94-1.6 1.2-2.08.15-.24.29-.48.46-.72.36-.51.58-.72.77-.72h1.39v4.8zm3.55-1.23a1.12 1.12 0 001.56 1.13 1.91 1.91 0 01-.43 1.49 1.42 1.42 0 01-1.16.65 1.77 1.77 0 00.05.93 2.67 2.67 0 002-1 3.46 3.46 0 00.86-2.47c0-1.27-.57-2-1.46-2a1.33 1.33 0 00-1.39 1.27m16.29-10.08c-.51.67-1.15 1.54-2.11 2.71s-1.8 2-2.07 2h-.5v-1.1c0-1.58.05-2.81.14-3.65h-2.3c.12 1.47.17 3.17.17 5.14v.84c0 2.13-.05 3.91-.17 5.33h2.3c-.09-.94-.14-2.48-.14-4.59v-1h.5c.27 0 .67.48 1.2 1.4.36.55 1 1.58 1.66 2.44l.31.41a10.14 10.14 0 001.39 1.61 5.07 5.07 0 002.16-.34 33.35 33.35 0 01-3.53-4.46l-1.24-1.78c.38-.38 1.17-1.22 2.35-2.54s1.94-2.14 2.25-2.45zm9.14 1.03c2.28 0 3.39 2 3.39 4.85a5 5 0 01-1.2 3.7 3.14 3.14 0 01-1.71.55c-2.21 0-3.6-1.82-3.6-5a4.82 4.82 0 011.06-3.43 2.75 2.75 0 012.06-.68m.39-1.44a5.19 5.19 0 00-4 1.71 6.31 6.31 0 00-1.56 4.44 6.22 6.22 0 001.41 4.22 5.36 5.36 0 007.71 0 6.35 6.35 0 001.49-4.34c-.01-3.69-1.86-6.02-5.05-6.02zm10.15 11.73c-.12-1.18-.19-3.46-.19-6.82v-3h1.53a27.38 27.38 0 013.31.15v-1.66h-7c.12 1.27.16 2.71.16 4.32v1.08c0 2.38 0 4.32-.16 5.88zm9.65-9.87a8.38 8.38 0 011.65-.09 8.75 8.75 0 011.68.09v8.43h-5.09c1-1.06 1.73-4.18 1.76-8.43m-3 12.72v-2.85h8.23V973h1.73v-4.29h-1.52c-.07-.77-.12-2.24-.12-4.4v-.76c0-1.95.05-3.53.15-4.71H448a18.14 18.14 0 01.14 2.4 18.41 18.41 0 01-.67 5c-.43 1.63-1 2.45-1.56 2.45h-.74V973zm13.63-6.12a2.22 2.22 0 01.57-1.51 5.22 5.22 0 012.91-.58 8.1 8.1 0 011.37.2v2.35a3.43 3.43 0 01-2.86 1.58 1.92 1.92 0 01-2-2m6.89-4c0-3.15-1.18-4.35-3.65-4.35a10.88 10.88 0 00-4.71 1.25 1.52 1.52 0 00.44 1.2 7.21 7.21 0 013.43-1c1.92 0 2.45 1 2.42 3.58-4.89.07-6.91 1.08-6.91 3.74a3 3 0 003.14 3 4.75 4.75 0 003.82-1.89h.07a14.54 14.54 0 00.17 1.87l1.94-.19a36.68 36.68 0 01-.16-4.83zm11.21 7.23h.6a14.43 14.43 0 01-2.47 4 1.82 1.82 0 001.54 1.1c.79-1 1.82-3.45 3.14-7.24l.89-2.57 1-3.15c.55-1.6.94-2.76 1.2-3.43h-1.94c-.27 1.25-.7 2.91-1.27 4.95s-1 3.52-1.4 4.44h-.12c-1.82-4.9-2.88-8-3.19-9.39h-2.54zm14.74 0c-.12-1.18-.19-3.46-.19-6.82v-3h1.53a27.68 27.68 0 013.32.15v-1.66h-7c.12 1.27.17 2.71.17 4.32v1.08c0 2.38-.05 4.32-.17 5.88zm11.18-10.28c2.28 0 3.39 2 3.39 4.85a5 5 0 01-1.2 3.7 3.12 3.12 0 01-1.71.55c-2.2 0-3.6-1.82-3.6-5a4.82 4.82 0 011.06-3.43 2.77 2.77 0 012.06-.68m.39-1.44a5.21 5.21 0 00-4 1.71 6.31 6.31 0 00-1.56 4.44 6.17 6.17 0 001.42 4.22 5.35 5.35 0 007.7 0 6.35 6.35 0 001.49-4.34c-.02-3.69-1.86-6.02-5.02-6.02zm9.96 3.35a3.32 3.32 0 011.87-1.54 3 3 0 01.91-.09c1.75.07 2.79 1.49 2.79 4.1a5.34 5.34 0 01-1.4 4.13 4.06 4.06 0 01-2.52.7 4.27 4.27 0 01-1.65-.29zm-2.19-2.78c.12 1.37.2 3.7.2 7v1.18c0 4-.08 6.53-.2 7.63h2.33c-.09-.93-.14-2.23-.14-3.91v-.67a7.18 7.18 0 001.53.19 6.32 6.32 0 004.4-1.7 6.24 6.24 0 001.82-4.76c0-3-1.32-4.8-3.5-5.18a4.31 4.31 0 00-1.66.29 3.46 3.46 0 00-2.66 1.51v-1.87zm17.16.88c2.28 0 3.39 2 3.39 4.85a5 5 0 01-1.2 3.7 3.12 3.12 0 01-1.71.55c-2.2 0-3.6-1.82-3.6-5a4.82 4.82 0 011.06-3.43 2.77 2.77 0 012.06-.68m.39-1.44a5.21 5.21 0 00-4 1.71 6.31 6.31 0 00-1.56 4.44 6.17 6.17 0 001.42 4.22 5.35 5.35 0 007.7 0 6.35 6.35 0 001.49-4.34c-.01-3.69-1.86-6.02-5.05-6.02zm10.77 1.86a8.57 8.57 0 011.66-.09 8.75 8.75 0 011.68.09v8.43h-5.09c1-1.06 1.73-4.18 1.75-8.43m-3 12.72v-2.85h8.24V973h1.7v-4.29h-1.51c-.07-.77-.12-2.24-.12-4.4v-.76c0-1.95.05-3.53.15-4.71h-7.37a20 20 0 01.14 2.4 18.41 18.41 0 01-.67 5c-.43 1.63-1 2.45-1.56 2.45h-.74V973zm13.64-6.12a2.22 2.22 0 01.57-1.51 5.22 5.22 0 012.91-.58 8 8 0 011.36.2v2.35a3.41 3.41 0 01-2.85 1.58 1.92 1.92 0 01-2-2m6.88-4c0-3.15-1.17-4.35-3.64-4.35a10.88 10.88 0 00-4.71 1.25 1.55 1.55 0 00.43 1.2 7.28 7.28 0 013.44-1c1.92 0 2.44 1 2.42 3.58-4.9.07-6.91 1.08-6.91 3.74a3 3 0 003.14 3 4.75 4.75 0 003.82-1.89h.07a14.54 14.54 0 00.17 1.87l1.94-.19a35.87 35.87 0 01-.17-4.83zm11.22 7.23h.6a14.93 14.93 0 01-2.47 4 1.82 1.82 0 001.54 1.1c.79-1 1.82-3.45 3.14-7.24l.89-2.57 1-3.15c.55-1.6.94-2.76 1.2-3.43h-1.94c-.27 1.25-.7 2.91-1.28 4.95a45.55 45.55 0 01-1.39 4.44H571c-1.82-4.9-2.88-8-3.19-9.39h-2.57zm19.32-11.31q-3 4.9-3.69 4.9h-.58v-1.2a32.19 32.19 0 01.17-3.7h-2c.09.87.14 2.09.14 3.7v1.2h-.48q-.64 0-3.74-4.9h-2.14c.27.39.89 1.18 1.83 2.35s1.6 2 2 2.6l-1.29 1.92c-.63.93-1.2 1.77-1.73 2.52s-1 1.29-1.27 1.68a2.31 2.31 0 00.91.28 5.91 5.91 0 001 .12 9.54 9.54 0 001.37-1.92l.48-.74c.21-.36.36-.62.48-.79a13.74 13.74 0 01.89-1.35c.38-.55.74-.93.91-.93h.74v1.25c0 1.87-.05 3.31-.14 4.32h2a41.35 41.35 0 01-.17-4.4v-1.17h.86c.2 0 .65.62 1.18 1.51.36.5.94 1.51 1.39 2.21a16.51 16.51 0 001.39 2 4.08 4.08 0 001.92-.34c-.67-.86-1.72-2.42-3-4.34l-1.18-1.83c.36-.5 1-1.37 2-2.59l1.8-2.33zm6.03 4.71a5 5 0 01.36-1.73 4 4 0 01.76-1.39 3.66 3.66 0 012-.56 2.61 2.61 0 011.85.7 2.32 2.32 0 01.74 1.8 1.24 1.24 0 01-.16.72 12.48 12.48 0 01-2.52.31c-1.37.1-2.38.15-3 .15m3.43-5a4.91 4.91 0 00-4 1.75 6.45 6.45 0 00-1.44 4.23c0 3.62 1.94 5.85 5.23 5.85a6.57 6.57 0 004.11-1.39 1.42 1.42 0 00-.38-1 5.26 5.26 0 01-3.12.86c-2.28 0-3.79-1.3-3.89-4.1l1.75-.15a33.8 33.8 0 005.79-.77 4.22 4.22 0 00.24-1.41 3.8 3.8 0 00-1.13-2.71 4.14 4.14 0 00-3.19-1.18zM188 991.64a5 5 0 01.36-1.73 3.86 3.86 0 01.77-1.39 3.61 3.61 0 012-.56 2.6 2.6 0 011.84.7 2.3 2.3 0 01.75 1.8 1.24 1.24 0 01-.17.72 12.24 12.24 0 01-2.52.31c-1.37.1-2.38.15-3 .15m3.43-5a4.91 4.91 0 00-4 1.75 6.45 6.45 0 00-1.44 4.23c0 3.62 1.94 5.85 5.23 5.85a6.62 6.62 0 004.18-1.37 1.39 1.39 0 00-.39-1 5.24 5.24 0 01-3.12.86c-2.28 0-3.79-1.3-3.88-4.1l1.75-.15a33.82 33.82 0 005.78-.77 4.22 4.22 0 00.24-1.41 3.76 3.76 0 00-1.13-2.71 4.14 4.14 0 00-3.3-1.2zm11.75-.02a5.21 5.21 0 00-3.88 1.66 5.94 5.94 0 00-1.59 4.29 6.26 6.26 0 001.44 4.32 5 5 0 003.82 1.61 6.28 6.28 0 003.63-1.08 1.5 1.5 0 00-.29-1 5.14 5.14 0 01-2.4.62c-2.5 0-4.11-2-4.11-5a4.52 4.52 0 011.2-3.32 2.78 2.78 0 011.88-.57 4.15 4.15 0 012.78.93 2.51 2.51 0 00.84-1.46 4.76 4.76 0 00-3.34-1m4.58 1.97a18.85 18.85 0 012.79-.15h1v2.69a67 67 0 01-.22 7.11h2.43c-.12-1.18-.19-3.53-.19-7v-2.76h1a16.17 16.17 0 012.75.15v-1.66h-9.48zm18.12 5.88a2.4 2.4 0 01-1 2.13 3.42 3.42 0 01-1.85.39 4.4 4.4 0 01-1.58-.19 30.19 30.19 0 010-4.66c2.78-.65 4.41.31 4.41 2.33m-6.57-7.54a37.8 37.8 0 01.17 4.61v.89c0 2.71-.05 4.61-.15 5.69a19 19 0 003.34.26c3.45 0 5.21-1.54 5.21-3.91a3.48 3.48 0 00-1.73-3.27 6.49 6.49 0 00-4.68-.28v-1.28a17.11 17.11 0 01.14-2.71zm18.93 11.31h.6a14.93 14.93 0 01-2.47 4 1.81 1.81 0 001.53 1.1c.8-1 1.83-3.45 3.15-7.24l.89-2.57 1-3.15c.55-1.6.93-2.76 1.2-3.43h-1.95c-.26 1.25-.69 2.91-1.27 5a45.55 45.55 0 01-1.39 4.44h-.12c-1.82-4.9-2.88-8-3.19-9.39h-2.57zm12.55-11.62a5.23 5.23 0 00-3.89 1.66 6 6 0 00-1.58 4.29 6.26 6.26 0 001.44 4.32 5 5 0 003.84 1.61 6.25 6.25 0 003.62-1.08 1.49 1.49 0 00-.28-1 5.2 5.2 0 01-2.4.62c-2.5 0-4.11-2-4.11-5a4.52 4.52 0 011.2-3.32 2.75 2.75 0 011.87-.57 4.2 4.2 0 012.79.93 2.56 2.56 0 00.84-1.46 4.76 4.76 0 00-3.34-1m4.56 1.97a18.76 18.76 0 012.79-.15h1v2.69a70 70 0 01-.22 7.11h2.42c-.12-1.18-.19-3.53-.19-7v-2.76h1a16.23 16.23 0 012.76.15v-1.66h-9.48zm16.06-.59c2.28 0 3.38 2 3.38 4.85a5 5 0 01-1.2 3.7 3.11 3.11 0 01-1.7.55c-2.21 0-3.6-1.82-3.6-5a4.87 4.87 0 011.05-3.43 2.78 2.78 0 012.07-.68m.38-1.44a5.22 5.22 0 00-4 1.71 6.31 6.31 0 00-1.56 4.44 6.17 6.17 0 001.42 4.22 5.35 5.35 0 007.7 0 6.3 6.3 0 001.49-4.34c-.01-3.73-1.83-6.06-5.05-6.06zm14.16 5.78a5.17 5.17 0 01-1 .1c-2.16 0-3.24-.75-3.24-2.26a2.25 2.25 0 01.81-1.7 3.65 3.65 0 012-.39 6.72 6.72 0 011.46.12zm2.14 5.91c-.12-1.54-.17-3.24-.17-5.09V992a48.92 48.92 0 01.17-5 20.49 20.49 0 00-3.55-.29 6.29 6.29 0 00-3.46.89 3 3 0 001.23 5.5c-.17.24-.48.75-1 1.54s-.91 1.46-1.32 2.06-.75 1.08-1 1.42a5.46 5.46 0 002 .29 4.84 4.84 0 001.13-1.52c.36-.57.93-1.6 1.2-2.08.14-.24.28-.48.45-.72.36-.51.58-.72.77-.72h1.39v4.8zm5.57-5.24a13.45 13.45 0 012-.1c1.54 0 2.74.58 2.74 2a2.19 2.19 0 01-.93 2 5.52 5.52 0 01-2.16.29 4.57 4.57 0 01-1.61-.2zm0-4.85a6.32 6.32 0 011.68-.19c1.72 0 2.59.62 2.59 1.87a2 2 0 01-1.75 1.9 12.74 12.74 0 01-2.52 0zm1.82-1.49a29.84 29.84 0 00-4 .29c.12 1.32.16 2.93.16 4.8v.94c0 2.23 0 4.1-.16 5.57a20.1 20.1 0 003.5.26c3.29 0 5.4-1.27 5.4-3.55a2.6 2.6 0 00-2.52-2.76v-.12a2.8 2.8 0 002.06-2.62c.02-1.89-1.46-2.83-4.44-2.83zm21.46 11.58c-.1-1-.15-2.76-.15-5.38v-1c0-1.85.05-3.5.15-5h-2.16c.09 1.11.14 2.52.14 4.23v5.64l-1.92.07c-.93 0-1.56 0-1.92-.07v-5.72a39.38 39.38 0 01.17-4.15h-2.18c.07 1 .12 2.43.12 4.23v5.64l-1.92.07a18.94 18.94 0 01-1.9-.07v-5.69c0-1.68.05-3.07.14-4.18h-2.18a48.47 48.47 0 01.17 5v1c0 2-.05 3.82-.17 5.36zm13.07 0c-.07-1.3-.12-2.88-.12-4.76v-1.6c0-1.76 0-3.41.12-5h-1.77c-.32.6-1.3 2-2.91 4.32s-2.54 3.67-2.85 4.2h-.12c.09-.84.14-2.13.14-3.93v-1.66a23.24 23.24 0 01.12-2.93h-2.28c.12 1.42.17 3.07.17 4.92v1c0 2.38 0 4.18-.17 5.38h1.85c.43-.75 1.41-2.24 3-4.42s2.47-3.58 2.78-4.13h.04c-.08.82-.1 2.23-.1 4.25v1.34a19.63 19.63 0 01-.17 3zm4.86-6.6a5 5 0 01.36-1.73 4 4 0 01.76-1.39 3.66 3.66 0 012-.56 2.61 2.61 0 011.85.7 2.32 2.32 0 01.74 1.8 1.24 1.24 0 01-.16.72 12.48 12.48 0 01-2.52.31c-1.37.1-2.38.15-3 .15m3.43-5a4.91 4.91 0 00-4 1.75 6.45 6.45 0 00-1.44 4.23c0 3.62 1.94 5.85 5.23 5.85a6.57 6.57 0 004.17-1.37 1.42 1.42 0 00-.38-1 5.26 5.26 0 01-3.12.86c-2.28 0-3.79-1.3-3.89-4.1l1.75-.15a33.8 33.8 0 005.79-.77 4.22 4.22 0 00.24-1.41 3.8 3.8 0 00-1.13-2.71 4.14 4.14 0 00-3.25-1.2zm11.8-.02a5.23 5.23 0 00-3.89 1.66 6 6 0 00-1.58 4.29 6.26 6.26 0 001.44 4.32 4.92 4.92 0 003.84 1.61 6.27 6.27 0 003.62-1.08 1.45 1.45 0 00-.29-1 5.14 5.14 0 01-2.4.62c-2.49 0-4.1-2-4.1-5a4.52 4.52 0 011.2-3.32 2.75 2.75 0 011.87-.57 4.2 4.2 0 012.79.93 2.62 2.62 0 00.84-1.46 4.76 4.76 0 00-3.34-1m12.26 5.71a5.17 5.17 0 01-1 .1c-2.16 0-3.24-.75-3.24-2.26a2.23 2.23 0 01.82-1.7 3.59 3.59 0 011.94-.39 6.58 6.58 0 011.46.12zm2.14 5.91c-.12-1.54-.17-3.24-.17-5.09V992a48.92 48.92 0 01.17-5 20.49 20.49 0 00-3.55-.29 6.29 6.29 0 00-3.46.89 3 3 0 001.23 5.5c-.17.24-.48.75-1 1.54s-.91 1.46-1.32 2.06-.74 1.08-1 1.42a5.49 5.49 0 002 .29 4.84 4.84 0 001.13-1.52c.36-.57.93-1.6 1.2-2.08q.21-.36.45-.72c.36-.51.58-.72.77-.72h1.39v4.8zm17.74 0c-.08-1.3-.12-2.88-.12-4.76v-1.6q0-2.64.12-5h-1.78c-.31.6-1.3 2-2.9 4.32s-2.55 3.67-2.86 4.2h-.12a37.19 37.19 0 00.14-3.93v-1.66a23.24 23.24 0 01.12-2.93h-2.28c.12 1.42.17 3.07.17 4.92v1c0 2.38-.05 4.18-.17 5.38h1.85c.43-.75 1.42-2.24 2.95-4.42s2.48-3.58 2.79-4.13h.07c-.07.82-.1 2.23-.1 4.25v1.34a19.84 19.84 0 01-.16 3zm11.3 0h.6a14.93 14.93 0 01-2.47 4 1.81 1.81 0 001.53 1.1c.8-1 1.83-3.45 3.15-7.24l.89-2.57 1-3.15c.55-1.6.93-2.76 1.2-3.43h-1.95c-.26 1.25-.69 2.91-1.27 5a45.55 45.55 0 01-1.39 4.44h-.12c-1.82-4.9-2.88-8-3.19-9.39H389zm7.73-9.46a5.73 5.73 0 012.83-.74c1.51 0 2.33.74 2.33 1.92a2.07 2.07 0 01-2.28 1.92 5.23 5.23 0 01-1.54-.17 1.57 1.57 0 000 1.46 6 6 0 011.66-.17c1.53 0 2.66.75 2.66 2a2 2 0 01-.91 1.78 3.89 3.89 0 01-1.8.36 5.31 5.31 0 01-3.05-.89 2.3 2.3 0 00-.65 1.32 4.26 4.26 0 001.44.65 7.5 7.5 0 002.12.31c2.9 0 5-1.25 5-3.67a2.6 2.6 0 00-2.52-2.55v-.12a2.91 2.91 0 002-2.73c0-1.64-1.25-2.86-3.62-2.86a8.4 8.4 0 00-4 .86 2.85 2.85 0 00.36 1.3m20.25 9.48c-.1-1.61-.15-3.36-.15-5.24v-.76q0-3.65.15-5.31h-2.28a27.15 27.15 0 01.17 3.6v1a22.5 22.5 0 01-2.64.1 22.27 22.27 0 01-2.64-.1v-.86a32.76 32.76 0 01.14-3.75H412c.12 1.11.16 2.88.16 5.33v.7c0 2.13 0 3.91-.16 5.28h2.3c-.1-.89-.14-2.36-.14-4.35V993a34.9 34.9 0 015.28 0v.93a40.91 40.91 0 01-.17 4.35zm4.85-3.24a2.22 2.22 0 01.57-1.51 5.22 5.22 0 012.91-.58 8 8 0 011.36.2v2.35a3.41 3.41 0 01-2.85 1.58 1.92 1.92 0 01-2-2m6.88-4c0-3.15-1.17-4.35-3.64-4.35a10.88 10.88 0 00-4.71 1.25 1.55 1.55 0 00.43 1.2 7.28 7.28 0 013.44-1c1.92 0 2.44 1 2.42 3.58-4.9.07-6.91 1.08-6.91 3.74a3 3 0 003.14 3.05 4.75 4.75 0 003.82-1.89h.07a14.54 14.54 0 00.17 1.87l1.94-.19a35.87 35.87 0 01-.17-4.83zm5.51 1.96a13.51 13.51 0 012-.1c1.53 0 2.73.58 2.73 2a2.19 2.19 0 01-.93 2 5.52 5.52 0 01-2.16.29 4.65 4.65 0 01-1.61-.2zm0-4.85a6.32 6.32 0 011.68-.19c1.73 0 2.59.62 2.59 1.87a2 2 0 01-1.75 1.9 12.74 12.74 0 01-2.52 0zm1.82-1.49a30.08 30.08 0 00-4 .29c.12 1.32.17 2.93.17 4.8v.94c0 2.23-.05 4.1-.17 5.57a20.1 20.1 0 003.5.26c3.29 0 5.4-1.27 5.4-3.55a2.6 2.6 0 00-2.52-2.76v-.12a2.81 2.81 0 002.07-2.62q.02-2.82-4.45-2.83zm9.27 8.34a2.22 2.22 0 01.57-1.51 5.22 5.22 0 012.91-.58 8.1 8.1 0 011.37.2v2.35a3.43 3.43 0 01-2.86 1.58 1.92 1.92 0 01-2-2m6.89-4c0-3.15-1.18-4.35-3.65-4.35a10.88 10.88 0 00-4.71 1.25 1.52 1.52 0 00.44 1.2 7.21 7.21 0 013.43-1c1.92 0 2.45 1 2.42 3.58-4.89.07-6.91 1.08-6.91 3.74a3 3 0 003.14 3.05 4.75 4.75 0 003.82-1.89h.07a14.54 14.54 0 00.17 1.87l1.94-.19a36.68 36.68 0 01-.16-4.83zm4.73.6a5 5 0 01.36-1.73 4 4 0 01.77-1.39 3.66 3.66 0 012-.56 2.64 2.64 0 011.85.7 2.32 2.32 0 01.74 1.8 1.24 1.24 0 01-.17.72 12.24 12.24 0 01-2.52.31c-1.36.1-2.37.15-3 .15m3.44-5a4.93 4.93 0 00-4 1.75 6.45 6.45 0 00-1.44 4.23c0 3.62 2 5.85 5.24 5.85a6.59 6.59 0 004.17-1.37 1.42 1.42 0 00-.38-1 5.26 5.26 0 01-3.12.86c-2.28 0-3.79-1.3-3.89-4.1l1.75-.15a33.94 33.94 0 005.79-.77 4.49 4.49 0 00.24-1.41 3.8 3.8 0 00-1.13-2.71 4.17 4.17 0 00-3.26-1.2zm8.51 11.6c-.07-2.64-.05-5.57.1-8.79h.12c.16.48.5 1.25 1 2.33l.89 1.87 1.11 2.47h1.12l.94-1.89c.89-1.9 1.61-3.46 2.11-4.73h.13v4.06c0 2.36.05 3.88 0 4.68h2.19c-.27-2-.43-4.88-.55-8.64l-.05-2.67h-1.89c-.33.89-1.34 3.07-3 6.58h-.1c-.72-1.37-1.77-3.58-3.14-6.58h-2l-.19 4c-.19 3.34-.39 5.76-.55 7.28zm22.78-5.43c0 2.09-.05 3.89-.17 5.43h2.23c-.1-1-.14-2.88-.14-5.64v-1c0-2.23 0-3.76.14-4.63h-2.18c.07 1.44.12 3 .12 4.73zm-3.7 1.66a2.64 2.64 0 01-.86 2.13 3.48 3.48 0 01-1.59.41 4.27 4.27 0 01-1.63-.21 30.19 30.19 0 010-4.66c2.52-.6 4.08.31 4.08 2.33zm-6.17-7.54a44 44 0 01.17 4.8v.94c0 2.61-.05 4.44-.17 5.45a18.91 18.91 0 003.27.26c3.24 0 4.82-1.63 4.82-3.91a3.33 3.33 0 00-1.66-3.17 5.75 5.75 0 00-4.27-.38v-1.3a15.65 15.65 0 01.15-2.69zm16.73 4.71a5 5 0 01.36-1.73 3.86 3.86 0 01.77-1.39 3.61 3.61 0 012-.56 2.6 2.6 0 011.84.7 2.3 2.3 0 01.75 1.8 1.24 1.24 0 01-.17.72 12.24 12.24 0 01-2.52.31c-1.37.1-2.38.15-3 .15m3.43-5a4.91 4.91 0 00-4 1.75 6.45 6.45 0 00-1.44 4.23c0 3.62 1.94 5.85 5.23 5.85a6.62 6.62 0 004.18-1.37 1.39 1.39 0 00-.39-1 5.24 5.24 0 01-3.12.86c-2.28 0-3.79-1.3-3.88-4.1l1.75-.15a33.82 33.82 0 005.78-.77 4.22 4.22 0 00.24-1.41 3.76 3.76 0 00-1.13-2.71 4.14 4.14 0 00-3.25-1.2zm16.15 1.36c2.28 0 3.38 2 3.38 4.85a5 5 0 01-1.2 3.7 3.11 3.11 0 01-1.7.55c-2.21 0-3.6-1.82-3.6-5a4.87 4.87 0 011-3.43 2.78 2.78 0 012.07-.68m.38-1.44a5.22 5.22 0 00-4 1.71 6.31 6.31 0 00-1.56 4.44 6.17 6.17 0 001.42 4.22 5.35 5.35 0 007.7 0 6.3 6.3 0 001.49-4.34c.04-3.73-1.81-6.06-5-6.06zm9.32 5.76a5.83 5.83 0 01.45-2.71 3.27 3.27 0 012.81-1.37c1.75 0 2.81 1.73 2.81 4.61a5.44 5.44 0 01-1 3.64 2.48 2.48 0 01-1.83.68c-1.92 0-3.21-1.85-3.21-4.85m3.74-5.4a4.87 4.87 0 00-4.42 2.69h-.07a8.55 8.55 0 01.6-3.1 4.48 4.48 0 01.84-1.37 5.46 5.46 0 013.55-1.56c1.73-.17 2.76-.45 3.12-.86a3 3 0 00-.07-1.92c-.33.41-1.34.72-3 .91a6 6 0 00-4.89 2.86 12.56 12.56 0 00-1.52 6.5c0 4.78 1.92 7.44 5.19 7.44a4.55 4.55 0 003.77-1.73 7.23 7.23 0 001.36-4.58c-.03-3.34-1.78-5.28-4.49-5.28zm9.33 2.95a3.32 3.32 0 011.87-1.54 3 3 0 01.91-.09c1.76.07 2.79 1.49 2.79 4.1a5.38 5.38 0 01-1.39 4.13 4.06 4.06 0 01-2.52.7 4.33 4.33 0 01-1.66-.29zm-2.18-2.81c.12 1.37.19 3.7.19 7v1.18c0 4-.07 6.53-.19 7.63h2.32c-.09-.93-.14-2.23-.14-3.91v-.67a7.27 7.27 0 001.54.19 6.31 6.31 0 004.39-1.7 6.24 6.24 0 001.82-4.76c0-3-1.32-4.8-3.5-5.18a4.31 4.31 0 00-1.66.29 3.46 3.46 0 00-2.66 1.51v-1.87zm14.06 7.95a2.18 2.18 0 01.58-1.51 5.15 5.15 0 012.9-.58 8.1 8.1 0 011.37.2v2.35a3.43 3.43 0 01-2.86 1.58 1.93 1.93 0 01-2-2m6.89-4c0-3.15-1.18-4.35-3.65-4.35a10.81 10.81 0 00-4.7 1.25 1.52 1.52 0 00.43 1.2 7.21 7.21 0 013.43-1c1.92 0 2.45 1 2.42 3.58-4.89.07-6.91 1.08-6.91 3.74a3 3 0 003.15 3.05 4.75 4.75 0 003.81-1.89h.07a14.54 14.54 0 00.17 1.87l1.95-.19a35.87 35.87 0 01-.17-4.83zm3.34-2.26a5.74 5.74 0 012.84-.74c1.51 0 2.32.74 2.32 1.92a2.07 2.07 0 01-2.28 1.92 5.2 5.2 0 01-1.53-.17 1.57 1.57 0 000 1.46 5.85 5.85 0 011.65-.17c1.54 0 2.67.75 2.67 2a2 2 0 01-.91 1.78 3.89 3.89 0 01-1.8.36 5.28 5.28 0 01-3-.89 2.3 2.3 0 00-.65 1.32 4.26 4.26 0 001.44.65 7.49 7.49 0 002.11.31c2.91 0 5-1.25 5-3.67a2.6 2.6 0 00-2.52-2.55v-.12a2.91 2.91 0 002-2.73c0-1.64-1.25-2.86-3.63-2.86a8.4 8.4 0 00-4 .86 2.85 2.85 0 00.36 1.3m20.53 4.05c0 2.09 0 3.89-.17 5.43h2.23c-.1-1-.14-2.88-.14-5.64v-1c0-2.23 0-3.76.14-4.63h-2.18c.07 1.44.12 3 .12 4.73zm-3.7 1.66a2.64 2.64 0 01-.86 2.13 3.48 3.48 0 01-1.62.4 4.27 4.27 0 01-1.63-.21 30.19 30.19 0 010-4.66c2.5-.59 4.11.32 4.11 2.34zm-6.17-7.54a44 44 0 01.17 4.8v.94c0 2.61-.05 4.44-.17 5.45a18.91 18.91 0 003.27.26c3.24 0 4.82-1.63 4.82-3.91a3.33 3.33 0 00-1.66-3.17 5.75 5.75 0 00-4.27-.38v-1.3a15.65 15.65 0 01.15-2.69zm16.9 10.15a1.28 1.28 0 001.37 1.32 1.33 1.33 0 001.41-1.32 1.39 1.39 0 00-1.41-1.34 1.32 1.32 0 00-1.37 1.34m1.41-11.73a2.24 2.24 0 012.52 2.4c0 1.25-.69 1.89-2 2.59a2.22 2.22 0 00-1.11 1.2 8.48 8.48 0 00-.26 2.52 1.9 1.9 0 001.46.05 11.89 11.89 0 010-1.25 6 6 0 01.15-1.34 6.28 6.28 0 002.54-1.44 3.68 3.68 0 001.08-2.79 3.62 3.62 0 00-3.93-3.84 6.17 6.17 0 00-3.15.91 5.21 5.21 0 00-.69.6 1.83 1.83 0 00.81 1.44 3.55 3.55 0 012.58-1.05z"/></svg>