<svg data-name="Layer 1" xmlns="http://www.w3.org/2000/svg" viewBox="0 0 1920 1080"><defs><clipPath id="a"><path fill="none" d="M0 0h1920v1080H0z"/></clipPath></defs><g clip-path="url(#a)"><path fill="#d6e2d4" d="M0 0h1920v1080H0z"/><path d="M1030.1 561.34h6.1v12.19h-6.1zm18.29 18.28h18.29v-36.57h-67.06v67.05h30.48v-18.29h6.1v18.29h30.48v-24.38h-18.29zm-54.86 30.48v-67.05h-30.48v36.57H957v-36.57h-30.53v67.05zM889.9 579.62h12.19v6.1H883.8v-18.29h36.58v-24.38h-67.06v67.05h67.06v-36.57H889.9zM993.53 469.9h-30.48v36.57H957V469.9h-30.53V537h67.06zm-140.21-6.1h219.45v152.4H847.23V463.8zm48.77 36.58h18.29V469.9H889.9v18.29h-6.1V469.9h-30.48V537h30.48v-18.34h6.1V537h30.48v-30.53h-18.29zM999.62 537H1024v-36.62h6.09V537h36.58v-67.1h-24.39v36.57h-6.09V469.9h-36.57z" fill="#ea533d" fill-rule="evenodd"/><path d="M198.13 998.1c-.07-1.34-.12-3.82-.12-7.44v-1c0-3 .05-5 .12-6.12h-1.95a58.9 58.9 0 01-3.8 6q-3.13 4.57-3.54 5.4h-.12a22.7 22.7 0 00.12-2.76v-8.64h-2.21c.12 1.06.17 3.07.17 6v1c0 3.6-.05 6.09-.17 7.46h2a47.5 47.5 0 013.75-6.05c2.09-3 3.27-4.82 3.56-5.37h.1c-.08.93-.12 3.31-.12 7.12v4.3zm12.49 0c-.07-1.1-.12-2.93-.12-5.47v-.89c0-2.33.05-4 .12-4.94H203a12.42 12.42 0 01.19 2.37v.65c0 4.82-.82 6.84-2.53 6.58a3 3 0 00.05 1.92c3.08.45 4.28-2.45 4.28-8.33v-1.75h3.56v5a43.33 43.33 0 01-.19 4.9zm12.85 0c-.08-1.3-.12-2.88-.12-4.75v-1.61c0-1.75 0-3.41.12-4.94h-1.78c-.32.6-1.3 2-2.92 4.32s-2.55 3.67-2.86 4.2h-.12a36.75 36.75 0 00.15-3.94v-1.66a21.19 21.19 0 01.12-2.92h-2.29c.12 1.41.17 3.07.17 4.92v1c0 2.38-.05 4.18-.17 5.38h1.85c.44-.74 1.42-2.23 3-4.42s2.48-3.57 2.79-4.12h.08c-.08.81-.1 2.23-.1 4.24v1.35a19.49 19.49 0 01-.17 3zm9.53-5.93a5.81 5.81 0 01.46-2.71 3.3 3.3 0 012.82-1.37c1.75 0 2.81 1.73 2.81 4.61a5.46 5.46 0 01-1 3.65 2.53 2.53 0 01-1.83.67c-1.93 0-3.23-1.85-3.23-4.85m3.76-5.4a4.87 4.87 0 00-4.43 2.69h-.07a8.34 8.34 0 01.6-3.1 4.25 4.25 0 01.84-1.36 5.44 5.44 0 013.56-1.56c1.73-.17 2.77-.46 3.13-.87a3.16 3.16 0 00-.07-1.92c-.34.41-1.35.72-3 .91a6.06 6.06 0 00-4.91 2.86 12.56 12.56 0 00-1.51 6.5c0 4.78 1.92 7.44 5.19 7.44a4.54 4.54 0 003.78-1.72 7.21 7.21 0 001.37-4.59c0-3.33-1.75-5.28-4.47-5.28zm11.75 1.06c2.29 0 3.39 2 3.39 4.85a5 5 0 01-1.2 3.69 3.12 3.12 0 01-1.71.55c-2.21 0-3.61-1.82-3.61-5a4.82 4.82 0 011.06-3.43 2.78 2.78 0 012.07-.67m.38-1.44a5.2 5.2 0 00-4 1.7 6.27 6.27 0 00-1.57 4.44 6.2 6.2 0 001.42 4.23 5.41 5.41 0 007.73 0 6.39 6.39 0 001.49-4.35c.01-3.68-1.87-6.01-5.07-6.01zm16.87 11.72c-.07-1.1-.12-2.93-.12-5.47v-.89c0-2.33.05-4 .12-4.94h-7.65a12.42 12.42 0 01.19 2.37v.65c0 4.82-.82 6.84-2.52 6.58a3 3 0 000 1.92c3.08.45 4.29-2.45 4.29-8.33v-1.75h3.56v5a43.33 43.33 0 01-.19 4.9zm4.55-6.6a5.1 5.1 0 01.36-1.73 4 4 0 01.77-1.39 3.65 3.65 0 012-.55 2.69 2.69 0 011.86.69 2.32 2.32 0 01.74 1.8 1.2 1.2 0 01-.17.72 12.71 12.71 0 01-2.52.32c-1.37.09-2.39.14-3 .14m3.44-5a4.91 4.91 0 00-4 1.76 6.42 6.42 0 00-1.45 4.22c0 3.62 1.95 5.86 5.25 5.86a6.71 6.71 0 004.19-1.37 1.41 1.41 0 00-.39-1 5.2 5.2 0 01-3.13.86c-2.28 0-3.8-1.29-3.89-4.1l1.75-.14a35 35 0 005.8-.77 4.24 4.24 0 00.24-1.42 3.78 3.78 0 00-1.13-2.71 4.22 4.22 0 00-3.28-1.21zm8.38 5a5.1 5.1 0 01.36-1.73 4 4 0 01.77-1.39 3.66 3.66 0 012-.55 2.68 2.68 0 011.85.69 2.32 2.32 0 01.74 1.8 1.2 1.2 0 01-.16.72 13 13 0 01-2.53.32c-1.37.09-2.38.14-3 .14m3.44-5a4.91 4.91 0 00-4 1.76 6.41 6.41 0 00-1.44 4.22c0 3.62 1.95 5.86 5.24 5.86a6.71 6.71 0 004.19-1.37 1.41 1.41 0 00-.39-1 5.19 5.19 0 01-3.12.86c-2.29 0-3.81-1.29-3.9-4.1l1.75-.14a35 35 0 005.8-.77 4.24 4.24 0 00.24-1.42 3.78 3.78 0 00-1.13-2.71 4.2 4.2 0 00-3.27-1.21zm18.52.3c-.5.67-1.15 1.53-2.11 2.71s-1.81 2-2.07 2h-.51v-1.11a33.18 33.18 0 01.15-3.64h-2.31c.12 1.46.17 3.16.17 5.13v.84c0 2.14-.05 3.91-.17 5.33h2.31c-.1-.94-.15-2.47-.15-4.58v-1h.5c.26 0 .67.48 1.2 1.39.36.55 1 1.58 1.66 2.45l.31.41a9.28 9.28 0 001.4 1.6 5.35 5.35 0 002.17-.33 32.67 32.67 0 01-3.54-4.47l-1.2-1.74c.38-.39 1.18-1.23 2.36-2.55s1.94-2.13 2.26-2.44zm9.17 1.03c2.29 0 3.4 2 3.4 4.85a4.92 4.92 0 01-1.21 3.69 3.12 3.12 0 01-1.71.55c-2.21 0-3.61-1.82-3.61-5a4.87 4.87 0 011.06-3.43 2.78 2.78 0 012.07-.67m.39-1.44a5.21 5.21 0 00-4 1.7 7.07 7.07 0 00-.15 8.67 5.41 5.41 0 007.73 0 6.35 6.35 0 001.49-4.35c-.02-3.68-1.82-6.01-5.07-6.01zm9.36 11.72c-.07-2.64-.05-5.57.09-8.78h.12c.17.48.51 1.24 1 2.32l.9 1.88 1.1 2.47h1.13l.94-1.9c.89-1.89 1.61-3.45 2.12-4.73h.14v4.06c0 2.35.05 3.89 0 4.68h2.19c-.26-2-.43-4.87-.55-8.64l-.05-2.66h-1.95q-.51 1.32-3 6.57h-.1c-.72-1.37-1.78-3.57-3.15-6.57H322l-.19 4c-.19 3.33-.38 5.76-.55 7.27zm22.38 0c-.1-1.37-.15-3.19-.15-5.5v-.88q0-1.08.15-4.92h-9.44c.12 1.77.17 3.4.17 4.89v1c0 1.61-.05 3.39-.17 5.38h2.31c-.09-1.42-.14-3.58-.14-6.53v-3.33a18.92 18.92 0 012.55-.1 20.1 20.1 0 012.6.1v3.26c0 3-.07 5.18-.19 6.6zm4.83-3.26a2.21 2.21 0 01.58-1.52 5.21 5.21 0 012.91-.57 7.87 7.87 0 011.37.19v2.35a3.41 3.41 0 01-2.86 1.59 1.93 1.93 0 01-2-2m6.91-4c0-3.14-1.18-4.34-3.66-4.34a11 11 0 00-4.72 1.25 1.53 1.53 0 00.44 1.2 7.13 7.13 0 013.44-1c1.92 0 2.45 1 2.43 3.57-4.91.08-6.93 1.08-6.93 3.75a3 3 0 003.15 3.05 4.78 4.78 0 003.83-1.9h.07a12.7 12.7 0 00.17 1.87l1.95-.19a35.68 35.68 0 01-.17-4.82zm10.2-4.08c-.51.67-1.16 1.53-2.12 2.71s-1.8 2-2.07 2h-.5v-1.11c0-1.58.05-2.8.14-3.64h-2.31c.12 1.46.17 3.16.17 5.13v.84c0 2.14-.05 3.91-.17 5.33h2.31c-.09-.94-.14-2.47-.14-4.58v-1h.5c.27 0 .68.48 1.21 1.39.36.55 1 1.58 1.66 2.45l.31.41a9.41 9.41 0 001.39 1.6A5.29 5.29 0 00370 998a33.47 33.47 0 01-3.54-4.47l-1.25-1.77c.39-.39 1.18-1.23 2.36-2.55s1.95-2.13 2.26-2.44zm3.3 1.65a20.63 20.63 0 012.79-.14h1V991a66.77 66.77 0 01-.22 7.1h2.43c-.12-1.18-.19-3.53-.19-7v-2.76h1a17.87 17.87 0 012.77.14v-1.68h-9.5zm21.15 9.65c-.1-1.61-.15-3.36-.15-5.23v-.77c0-2.42 0-4.2.15-5.3h-2.29a27 27 0 01.17 3.6v1a35 35 0 01-5.29 0v-.86a32.56 32.56 0 01.14-3.74h-2.31c.12 1.1.17 2.88.17 5.32v.7c0 2.14-.05 3.91-.17 5.28h2.31c-.1-.89-.14-2.35-.14-4.34v-.94a35 35 0 015.29 0v.94a40.7 40.7 0 01-.17 4.34zm13.33-5.42c0 2.08 0 3.88-.17 5.42h2.24c-.1-1-.15-2.88-.15-5.64v-1c0-2.23.05-3.77.15-4.63h-2.19c.07 1.44.12 3 .12 4.72zm-3.71 1.65a2.65 2.65 0 01-.86 2.14 3.61 3.61 0 01-1.59.41 4.25 4.25 0 01-1.64-.22 30.18 30.18 0 010-4.66c2.48-.6 4.09.32 4.09 2.33zm-6.18-7.53a43.86 43.86 0 01.17 4.8v.93c0 2.62-.05 4.44-.17 5.45a18 18 0 003.27.26c3.25 0 4.84-1.63 4.84-3.91a3.36 3.36 0 00-1.66-3.17 5.9 5.9 0 00-4.29-.38v-1.3a15.51 15.51 0 01.15-2.68zm18.4-5.24a2.08 2.08 0 00-1.44.68 3.05 3.05 0 003.27 2.56A3.29 3.29 0 00419 982a1 1 0 00-.92-.28 2.09 2.09 0 01-2.16 1.8 2.18 2.18 0 01-2.22-2m6.67 16.54c-.07-1.3-.12-2.88-.12-4.75v-1.61c0-1.75.05-3.41.12-4.94h-1.78c-.31.6-1.3 2-2.91 4.32s-2.55 3.67-2.87 4.2h-.12a36.75 36.75 0 00.15-3.94v-1.66a23 23 0 01.12-2.92h-2.29c.12 1.41.17 3.07.17 4.92v1c0 2.38-.05 4.18-.17 5.38h1.86c.43-.74 1.42-2.23 3-4.42s2.47-3.57 2.79-4.12h.07c-.07.81-.1 2.23-.1 4.24v1.35a19.49 19.49 0 01-.17 3zm10.29-5.22a14.1 14.1 0 012-.09c1.54 0 2.74.57 2.74 2a2.17 2.17 0 01-.94 2 5.49 5.49 0 01-2.16.29 4.75 4.75 0 01-1.62-.19zm0-4.84a6.4 6.4 0 011.69-.2c1.73 0 2.6.63 2.6 1.88a2 2 0 01-1.76 1.89 12.09 12.09 0 01-2.53 0zm1.83-1.49a28.51 28.51 0 00-4 .29c.12 1.32.17 2.92.17 4.8v.93c0 2.23-.05 4.11-.17 5.57a19.2 19.2 0 003.51.26c3.3 0 5.42-1.27 5.42-3.55a2.61 2.61 0 00-2.53-2.76v-.12a2.78 2.78 0 002.07-2.61c.04-1.88-1.48-2.81-4.47-2.81zm15.51 1.73a7.58 7.58 0 011.66-.1 7.85 7.85 0 011.69.1v8.42h-5.1c1-1.06 1.73-4.18 1.75-8.42m-3 12.76v-2.9h8.25v2.9H455v-4.3h-1.52c-.07-.77-.12-2.23-.12-4.39v-.77c0-1.94 0-3.53.15-4.7h-7.39a17.86 17.86 0 01.15 2.4 18.4 18.4 0 01-.68 5c-.43 1.63-1 2.45-1.56 2.45h-.75v4.3zm14.42-8.16a13.85 13.85 0 012-.09c1.54 0 2.74.57 2.74 2a2.18 2.18 0 01-.93 2 5.55 5.55 0 01-2.23.25 4.72 4.72 0 01-1.61-.19zm0-4.84a6.26 6.26 0 011.68-.2c1.73 0 2.6.63 2.6 1.88a2 2 0 01-1.76 1.89 12 12 0 01-2.52 0zm1.83-1.49a28.64 28.64 0 00-4 .29c.12 1.32.17 2.92.17 4.8v.93c0 2.23-.05 4.11-.17 5.57a19.32 19.32 0 003.52.26c3.29 0 5.41-1.27 5.41-3.55a2.6 2.6 0 00-2.53-2.76v-.12a2.77 2.77 0 002.07-2.61c0-1.88-1.49-2.81-4.47-2.81zm9.26 4.99a5.1 5.1 0 01.36-1.73 4 4 0 01.77-1.39 3.65 3.65 0 012-.55 2.69 2.69 0 011.86.69 2.32 2.32 0 01.74 1.8 1.2 1.2 0 01-.16.72 13 13 0 01-2.53.32c-1.37.09-2.38.14-3 .14m3.44-5a4.91 4.91 0 00-4 1.76 6.41 6.41 0 00-1.44 4.22c0 3.62 1.94 5.86 5.24 5.86a6.71 6.71 0 004.11-1.34 1.41 1.41 0 00-.39-1 5.2 5.2 0 01-3.13.86c-2.28 0-3.8-1.29-3.89-4.1l1.75-.14a35 35 0 005.8-.77 4.24 4.24 0 00.24-1.42 3.78 3.78 0 00-1.13-2.71 4.2 4.2 0 00-3.15-1.24zm16.49-.02a5.31 5.31 0 00-3.9 1.66 6 6 0 00-1.58 4.3 6.26 6.26 0 001.44 4.32 5 5 0 003.85 1.6 6.28 6.28 0 003.63-1.08 1.46 1.46 0 00-.29-1 5.15 5.15 0 01-2.4.63c-2.5 0-4.12-2-4.12-5a4.44 4.44 0 011.21-3.31 2.7 2.7 0 011.87-.58 4.13 4.13 0 012.79.94 2.6 2.6 0 00.85-1.47 4.79 4.79 0 00-3.35-1m4.57 1.96a20.8 20.8 0 012.8-.14h1V991a66.77 66.77 0 01-.22 7.1H501c-.12-1.18-.19-3.53-.19-7v-2.76h1a18 18 0 012.77.14v-1.68h-9.51zm13.74 1.27a3.32 3.32 0 011.88-1.53 3.46 3.46 0 01.91-.1c1.76.07 2.8 1.49 2.8 4.11a5.33 5.33 0 01-1.4 4.12 4.07 4.07 0 01-2.53.7 4.33 4.33 0 01-1.66-.29zm-2.19-2.8c.12 1.36.2 3.69.2 7v1.17c0 4-.08 6.53-.2 7.64h2.34c-.1-.94-.15-2.24-.15-3.92v-.67a7.35 7.35 0 001.54.19 6.3 6.3 0 004.41-1.7 6.22 6.22 0 001.83-4.75c0-3-1.33-4.8-3.52-5.19a4.54 4.54 0 00-1.66.29 3.49 3.49 0 00-2.67 1.51v-1.87zm17.21.91c2.28 0 3.39 2 3.39 4.85a5 5 0 01-1.2 3.69 3.14 3.14 0 01-1.71.55c-2.21 0-3.61-1.82-3.61-5a4.82 4.82 0 011.06-3.43 2.78 2.78 0 012.07-.67m.38-1.44a5.23 5.23 0 00-4 1.7 6.31 6.31 0 00-1.56 4.44 6.2 6.2 0 001.42 4.23 5.4 5.4 0 007.72 0 6.35 6.35 0 001.5-4.35c-.02-3.68-1.88-6.01-5.08-6.01zm14.68.42c-.5.67-1.15 1.53-2.12 2.71s-1.8 2-2.07 2h-.5v-1.11c0-1.58.05-2.8.14-3.64H532c.12 1.46.17 3.16.17 5.13v.84c0 2.14 0 3.91-.17 5.33h2.31c-.09-.94-.14-2.47-.14-4.58v-1h.5c.27 0 .68.48 1.21 1.39.36.55 1 1.58 1.66 2.45l.31.41a9.28 9.28 0 001.4 1.6 5.26 5.26 0 002.16-.33 33.47 33.47 0 01-3.54-4.47l-1.25-1.77c.39-.39 1.18-1.23 2.36-2.55s2-2.13 2.26-2.44zm14.34 11.3c-.07-1.3-.12-2.88-.12-4.75v-1.61c0-1.75 0-3.41.12-4.94h-1.78c-.31.6-1.3 2-2.91 4.32s-2.55 3.67-2.86 4.2h-.12c.09-.84.14-2.14.14-3.94v-1.66a23 23 0 01.12-2.92h-2.29c.13 1.41.17 3.07.17 4.92v1c0 2.38 0 4.18-.17 5.38h1.86c.43-.74 1.42-2.23 3-4.42s2.48-3.57 2.79-4.12h.07c-.07.81-.1 2.23-.1 4.24v1.35a19.69 19.69 0 01-.16 3z"/></g></svg>