<svg data-name="Layer 1" xmlns="http://www.w3.org/2000/svg" viewBox="0 0 1920 1080"><defs><clipPath id="a"><path fill="none" d="M0 0h1920v1080H0z"/></clipPath></defs><g clip-path="url(#a)"><path fill="#ea533d" d="M0 0h1920v1080H0z"/><path fill="#d6e2d4" d="M906.42 444.04h104.02v4.56H906.42z"/><path d="M1043.33 402.72h38.86l-11.94 11.94c-1.65 1.65-2.79 4.59-.32 9.77 2.34 4.92 9.1 11.44 24.32 5.13v-26.84h40.43L1122.4 415a10.31 10.31 0 00-2.56 6.87v48.91a10.29 10.29 0 002.56 6.87l12.28 12.28h-55.19l12.28-12.28a10 10 0 002.48-5.59v-38.87c-36.15 17.61-60.75 4.66-50.92-30.47m160.82 33.66c-7.55 3.47-15 7.58-20.64 13.63-16.68 17.92 1.53 48.09 25.69 19.6zm5.69 37.43c-9.87 12.86-27.17 18-39.2 18.07-24 .05-30.5-25.23-13.34-37.65 11.34-8.2 30.88-15.07 46.41-20.71-1.64-10.8-2.41-29.55-16.82-28.72-7.12.41-11 4.1-13.25 11.67l-8.71 28.82h-.46l-6.72-44.2 11 2.58c3.84.91 6.46-.76 12.61-2.11 26.35-5.76 45 5.26 50 33.84l5.85 33.27c.51 2.87 1.45 5.59 3 7.08l14.19 14.2h-42zm97.88-12.51l34.91-34.91v-4.52a10.26 10.26 0 00-2.56-6.87l-12.28-12.28h55.28L1370.79 415a10.26 10.26 0 00-2.56 6.87v48.91a10.24 10.24 0 002.56 6.87l12.28 12.28h-55.28l12.28-12.28a10.24 10.24 0 002.56-6.87v-39.43l-34.91 34.91v4.52a10.29 10.29 0 002.55 6.87l12.29 12.28h-55.28l12.28-12.28a10.29 10.29 0 002.56-6.87v-48.91a10.31 10.31 0 00-2.56-6.87l-12.28-12.28h40.44zm25.58-100l-.1.09c1.48 11.4-11 29.19-33.54 24.26l-.71 3.07c20.76 6 36.4 2.26 52.44-12.3zm106.47 41.42h-40.44l12.28 12.28a10.26 10.26 0 012.56 6.87v48.91a10.24 10.24 0 01-2.56 6.87l-12.28 12.28h55.28l-12.28-12.28a10.24 10.24 0 01-2.56-6.87v-27.19l34.92 9.36v17.83a10.24 10.24 0 01-2.56 6.87l-12.28 12.28h55.28l-12.28-12.28a10.24 10.24 0 01-2.56-6.87v-48.91a10.26 10.26 0 012.56-6.87l12.28-12.28h-55.28l12.28 12.28a10.26 10.26 0 012.56 6.87v27.45l-34.92-9.32zm144.55 33.66c-7.56 3.47-15 7.58-20.64 13.63-16.68 17.92 1.53 48.09 25.69 19.6zm5.69 37.43c-9.88 12.86-27.18 18-39.2 18.07-24 .05-30.5-25.23-13.34-37.65 11.33-8.2 30.88-15.07 46.41-20.71-1.64-10.8-2.41-29.55-16.82-28.72-7.13.41-11 4.1-13.25 11.67l-8.71 28.82h-.46l-6.73-44.2 11 2.58c3.85.91 6.47-.76 12.62-2.11 26.34-5.76 45 5.26 50 33.84l5.85 33.27c.5 2.87 1.45 5.59 2.94 7.08l14.2 14.2h-42zm109.14-57.57c.3-16-26.42-12.39-25.8 6 .52 15.35 25.4 15.72 25.8-6m0 31.53c-10.37 2.1-19.59 13.41-22.08 22.72-.69 2.58-.45 5.7 1 7.16l12.28 12.28h-45c4-25.05 20-40.54 53.77-45.61v-15.1c-9.73 15.58-25.85 19.72-37.23 16-15.43-5.07-17.2-24-6.69-34 8.06-7.66 21.93-8.45 31.51-8.45h52.85L1727.31 415a10.26 10.26 0 00-2.56 6.87v48.91a10.24 10.24 0 002.56 6.87l12.28 12.28h-40.44zM229.57 597.17c9-.24 15.14 1.82 20.25 1.26l11.42-1.25-11.19 48.68h-.34l-7.31-36.75c-1.3-6.55-12.15-7.47-19.13-7-39.7 2.91-30.93 66.23 13 64.09 21.11-1 40.1-15.88 33.76-38.16h.45c10.22 30.47-11.25 61.17-46.93 60.13-26.54-.77-44.67-20.38-43-45.52s23.64-44.87 49-45.52m92.15 12.43v57.59a10.31 10.31 0 01-2.56 6.87l-12.28 12.28h55.28L349.85 674a10.31 10.31 0 01-2.56-6.87v-57.57c0-3.71 1.72-7 6.48-7H359c4.21 0 5.8 2.21 6.22 5.7l4.42 36.15h.49l15.5-48.27-20.63 2.51a51.61 51.61 0 01-5.56.44h-47a42.39 42.39 0 01-5.67-.44l-18.24-2.48 2 48.27h.49l15.54-36.15c1.32-3 4.13-5.7 7-5.7h2.81c3.58 0 5.24 3 5.24 7m99.8-2.32c9.63-5.29 23.95.49 40.37 25.85s15.14 39.72 5.51 45-24.06-.66-40.37-25.85-15.14-39.72-5.51-45m-.86-4c23.44-12.57 53.1-5.11 66.25 16.67s4.82 49.64-18.61 62.21-53.11 5.12-66.26-16.67-4.82-49.65 18.62-62.23zM530 617.45l-20.3 51.93a17.33 17.33 0 01-4.06 5.67l-11.4 11.25h29.86l-9.52-9.82c-1.71-1.76-1.64-4.26-.73-6.59l21.22-54 20.51 55.87a4.57 4.57 0 01-1.23 4.77l-9.52 9.82h52.23l-11.34-11.25a14.85 14.85 0 01-3.73-5l-26.62-70.94h-36.06l9.38 9c2.62 2.5 2.66 5.79 1.26 9.39m117.97 40.12l34.92-34.92v-4.51a10.27 10.27 0 00-2.56-6.87L668 599.09h55.28L711 611.37a10.27 10.27 0 00-2.56 6.87v48.91A10.31 10.31 0 00711 674l12.28 12.28H668L680.28 674a10.31 10.31 0 002.56-6.87v-39.42l-34.92 34.92v4.52a10.26 10.26 0 002.56 6.87l12.28 12.28h-55.28l12.28-12.3a10.26 10.26 0 002.56-6.87v-48.89a10.22 10.22 0 00-2.56-6.87l-12.28-12.28h40.44zm164.91 25.12h-26c-6.2 0-6.76-1.95-6.76-8.17v-75.53h-40.42l12.29 12.28a10.27 10.27 0 012.56 6.87v48.91a10.31 10.31 0 01-2.56 6.87l-12.29 12.28h85.54c3.79 0 7.4 1 8.21 4.56l6.32 27.88h.5l14.7-36h-16.5v-64.5a10.27 10.27 0 012.56-6.87l12.28-12.28H798l12.29 12.28a10.27 10.27 0 012.56 6.87zm111.52-50.04c-7.56 3.46-15 7.57-20.64 13.62-16.71 17.93 1.53 48.1 25.69 19.63zm5.65 37.42c-9.88 12.86-27.18 18-39.2 18.07-24 .06-30.5-25.22-13.34-37.64 11.33-8.2 30.88-15.07 46.41-20.72-1.64-10.79-2.41-29.55-16.83-28.72-7.12.42-11 4.1-13.24 11.67l-8.71 28.82h-.46l-6.73-44.2 11 2.59c3.85.9 6.47-.77 12.61-2.11 26.35-5.77 45 5.25 50 33.83l5.88 33.24c.5 2.86 1.45 5.58 2.94 7.08l14.19 14.19h-42zm177 16.13l-14.19-14.2a11.82 11.82 0 01-3-7.94v-16.78h11.21c41.85 0 55.48-17.73 55.7-42.06.19-20.2-11.63-37.46-32.79-37.46-15 0-27.24 5.9-34.12 23.22V569.8h-44.8l14.19 14.2a11.82 11.82 0 013 7.94v72.24a11.82 11.82 0 01-3 7.94l-14.19 14.2zm-17.15-79v36.6c22.49-.62 36.34-10.74 36.52-37.08.24-35.39-36.52-33.27-36.52.46zm99.43-.03c9.63-5.29 24 .49 40.37 25.85s15.14 39.72 5.51 45-24.06-.66-40.37-25.85-15.14-39.72-5.51-45m-.86-4c23.44-12.57 53.1-5.11 66.26 16.67s4.81 49.64-18.62 62.21-53.11 5.12-66.26-16.67-4.8-49.65 18.62-62.23zm139.28-6.1c9-.24 15.15 1.82 20.26 1.26l11.41-1.25-11.18 48.68h-.34l-7.31-36.75c-1.31-6.55-12.16-7.47-19.14-7-39.7 2.91-30.93 66.23 13 64.09 21.12-1 40.11-15.88 33.77-38.16h.45c10.22 30.47-11.26 61.17-46.93 60.13-26.54-.77-44.68-20.38-43-45.52s23.64-44.87 49-45.52m106.15.04c9-.24 15.15 1.82 20.26 1.26l11.41-1.25-11.18 48.68h-.33l-7.32-36.75c-1.3-6.55-12.15-7.47-19.13-7-39.7 2.91-30.93 66.23 13 64.09 21.12-1 40.11-15.88 33.77-38.16h.45c10.21 30.47-11.26 61.17-46.93 60.13-26.54-.77-44.68-20.38-43-45.52s23.64-44.87 49-45.52m93.54 60.54l34.91-34.92v-4.51a10.22 10.22 0 00-2.56-6.87l-12.28-12.28h55.28l-12.28 12.28a10.22 10.22 0 00-2.56 6.87v48.91a10.26 10.26 0 002.56 6.87l12.28 12.28h-55.28l12.28-12.3a10.26 10.26 0 002.56-6.87v-39.42l-34.91 34.92v4.52a10.31 10.31 0 002.55 6.87l12.29 12.28h-55.28l12.28-12.3a10.31 10.31 0 002.56-6.87v-48.89a10.27 10.27 0 00-2.56-6.87l-12.28-12.28h40.44zm136.86 0l34.91-34.92v-4.51a10.22 10.22 0 00-2.56-6.87l-12.28-12.28h55.28l-12.28 12.28a10.22 10.22 0 00-2.56 6.87v48.91a10.26 10.26 0 002.56 6.87l12.28 12.28h-55.28l12.28-12.3a10.26 10.26 0 002.56-6.87v-39.42l-34.91 34.92v4.52a10.31 10.31 0 002.55 6.87l12.29 12.28h-55.28l12.28-12.3a10.31 10.31 0 002.56-6.87v-48.89a10.27 10.27 0 00-2.56-6.87l-12.28-12.28h40.44zM242.54 373.42l-14.2 14.19a11.91 11.91 0 00-3 7.94V423c21.1-9.52 31-24.51 31.44-49.56h33.76c-3.36 29.87-27 43.28-65.2 53.57v5.9c47-12.25 72.95 2.33 70.07 57h-46.25l12.43-12.36c3.07-3.06 3.05-7.08 2.76-12.27-1.27-22.81-16.23-32.74-39-27.7v30.2a11.91 11.91 0 003 7.94l14.2 14.19h-61.96l14.19-14.19a11.86 11.86 0 003-7.94v-72.23a11.86 11.86 0 00-3-7.94l-14.19-14.19zm109.79 45.83l21.84 35.66 17-35.67c.68-1.42 1.85-4.07-.7-6.7l-9.47-9.82h31.56L400 414a17.35 17.35 0 00-3.52 4.6l-30.56 63.88c-7 14.63-23.16 44.63-52.11 35l-5.72-56.36h.57L331 497.38a12.46 12.46 0 0017.38 4c4.5-2.78 10.34-14 13.51-20.68l-47.73-78h48.42l-9.58 9.84a5.48 5.48 0 00-.69 6.71m104.77-16.53h-40.44L428.92 415a10.26 10.26 0 012.56 6.87v48.91a10.26 10.26 0 01-2.56 6.87l-12.28 12.28h55.28l-12.28-12.28a10.26 10.26 0 01-2.56-6.87v-27.19L492 453v17.83a10.26 10.26 0 01-2.56 6.87l-12.28 12.28h55.28l-12.28-12.28a10.26 10.26 0 01-2.56-6.87v-48.96a10.26 10.26 0 012.56-6.87l12.28-12.28h-55.29L489.43 415a10.26 10.26 0 012.56 6.87v27.45L457.08 440zm94.45 0L563.81 415a10.26 10.26 0 012.56 6.87v48.91a10.26 10.26 0 01-2.56 6.87l-12.28 12.28h55.28l-12.28-12.28a10.26 10.26 0 01-2.56-6.87v-56.66c0-3.67 1.84-7.85 9.77-7.88h3.46c3.11 0 5.62.55 7.61 3.9l24 40.29.39-.12-5.87-52.58-16.72 4.08a27.81 27.81 0 01-7.54.91zm138.41 16.53l21.84 35.66 17-35.67c.68-1.42 1.85-4.07-.7-6.7l-9.51-9.82h31.56L737.57 414a17.35 17.35 0 00-3.52 4.6l-30.56 63.88c-7 14.63-23.16 44.63-52.11 35l-5.72-56.36h.57l22.33 36.29a12.45 12.45 0 0017.37 4c4.51-2.78 10.35-14 13.52-20.68l-47.73-78h48.42l-9.51 9.82a5.47 5.47 0 00-.69 6.71m80.52-16.54h-14.84L767.9 415a10.26 10.26 0 012.56 6.87v97.57h40.44l-12.28-12.28a10.26 10.26 0 01-2.56-6.87v-10.36h11.23c41.93 0 61.05-27.24 61.28-51.63.2-20.24-13.11-37.52-34.31-37.52-15.06 0-32.56 10.18-38.2 28.36v-26.42zm25.6 42.66v41c22.53-.62 44.07-20.23 44.25-46.63.25-35.41-44.25-28.19-44.25 5.63z" fill="#d6e2d4" fill-rule="evenodd"/></g></svg>