<svg id="Layer_1" data-name="Layer 1" xmlns="http://www.w3.org/2000/svg" viewBox="0 0 1920 1080"><defs><clipPath id="clip-path"><path fill="none" d="M0 0h1920v1080H0z"/></clipPath><style>.cls-4{fill:#1e1d1a}.cls-5{fill:#1d1b19}</style></defs><g clip-path="url(#clip-path)"><path fill="#d6e2d4" d="M0 0h1920v1080H0z"/><path class="cls-4" d="M510.4 547.85c-3.67-.66-8.73-1.92-13.29-3.12-5.06-1.35-4.95-4.8.18-6.09 3.23-.79 6.53-1.55 9.92-2.18 9.08-1.76 18.91-3.28 28.87-2.85a42 42 0 0112.92 2.22c5.14 1.95 7.65 4.44 6.07 7.58-1.28 2.55-4.88 4.24-9.74 5.33a68.21 68.21 0 01-18.26 1.13 129.7 129.7 0 01-16.69-2m7.62-41.64a47 47 0 00-1.52 6.65c-.46 2.65 2.42 5.47 5 4.94a39.21 39.21 0 004.85-1.26c4.23-1.36 8.5-3.11 11.21-6.52a9.2 9.2 0 002.14-5.83 9.39 9.39 0 00-4.34-8.08 8.8 8.8 0 00-7.37-1.36 11.66 11.66 0 00-6.53 4.7 24.34 24.34 0 00-3.49 6.76m.05 71.12a47.2 47.2 0 01-1.52-6.66 4.58 4.58 0 015-4.93 39.21 39.21 0 014.85 1.26c4.23 1.36 8.5 3.11 11.21 6.52a9.37 9.37 0 01-2.2 13.87 8.65 8.65 0 01-7.37 1.39 11.57 11.57 0 01-6.53-4.7 24.14 24.14 0 01-3.49-6.75"/><path class="cls-4" d="M499.34 524.6c-.66 3.68-1.92 8.75-3.12 13.31-1.36 5.07-4.82 4.94-6.1-.19q-1.2-4.83-2.2-9.94c-1.75-9.07-3.28-18.9-2.85-28.84a42.71 42.71 0 012.24-12.94c1.93-5.17 4.43-7.65 7.57-6.09 2.55 1.29 4.24 4.9 5.35 9.76a67.63 67.63 0 011.11 18.25 130.92 130.92 0 01-2 16.68"/><path class="cls-4" d="M499.34 558.91c-.66-3.65-1.92-8.71-3.12-13.28-1.36-5.07-4.82-4.93-6.1.2-.8 3.21-1.54 6.52-2.2 9.9-1.75 9.1-3.28 18.9-2.85 28.87a43 43 0 002.24 12.95c1.93 5.13 4.43 7.64 7.57 6.05 2.55-1.29 4.24-4.86 5.35-9.73a67.93 67.93 0 001.11-18.28 132.68 132.68 0 00-2-16.68"/><path class="cls-4" d="M476.08 547.85c3.67-.66 8.75-1.92 13.29-3.12 5.07-1.35 5-4.8-.17-6.09-3.23-.79-6.53-1.55-9.93-2.18-9.08-1.76-18.9-3.28-28.85-2.85a42 42 0 00-12.95 2.22c-5.15 1.95-7.66 4.44-6.08 7.58 1.29 2.55 4.88 4.24 9.75 5.33a68.23 68.23 0 0018.27 1.13 129.39 129.39 0 0016.67-2m-7.63-41.64a45.59 45.59 0 011.53 6.65c.45 2.65-2.42 5.47-5.05 4.94a39.36 39.36 0 01-4.86-1.26c-4.22-1.36-8.5-3.11-11.19-6.52a9.16 9.16 0 01-2.16-5.83 9.4 9.4 0 014.35-8.08 8.8 8.8 0 017.37-1.36 11.64 11.64 0 016.52 4.7 23.56 23.56 0 013.49 6.76m0 71.12a45.75 45.75 0 001.53-6.66c.45-2.65-2.42-5.46-5.05-4.93a39.36 39.36 0 00-4.86 1.26c-4.22 1.36-8.5 3.11-11.19 6.52a9.14 9.14 0 00-2.16 5.83 9.26 9.26 0 004.35 8 8.64 8.64 0 007.37 1.39 11.55 11.55 0 006.52-4.7 23.38 23.38 0 003.49-6.75m409.9-48.8c-2.92 2.44-6.82 6.1-10.27 9.46-3.84 3.74-2 6.78 3.22 5.34 3.31-.9 6.62-1.9 10-3 9-3 18.48-6.58 27.15-12a44.55 44.55 0 0010.4-8.5c3.61-4.31 4.6-7.79 1.62-9.8-2.45-1.63-6.49-1.32-11.39.14a68.94 68.94 0 00-16.82 8.18 133.9 133.9 0 00-13.87 10.17"/><path class="cls-4" d="M854.41 528.51c3 2.44 6.82 6.1 10.26 9.46 3.84 3.74 2 6.78-3.21 5.34-3.28-.9-6.59-1.9-9.93-3-9-3-18.51-6.58-27.15-12a43.92 43.92 0 01-10.43-8.5c-3.58-4.31-4.57-7.79-1.59-9.8 2.42-1.63 6.46-1.32 11.36.14a69.13 69.13 0 0116.85 8.18 132.41 132.41 0 0113.84 10.17"/><path class="cls-4" d="M878.35 555.38c-2.92-2.44-6.82-6.1-10.27-9.46-3.84-3.75-2-6.78 3.22-5.34 3.31.9 6.62 1.9 10 3 9 3 18.48 6.59 27.15 12a44.55 44.55 0 0110.4 8.5c3.61 4.31 4.6 7.79 1.62 9.8-2.45 1.63-6.49 1.32-11.39-.13a69.71 69.71 0 01-16.82-8.19 133.9 133.9 0 01-13.87-10.17"/><path class="cls-4" d="M854.41 555.38c3-2.44 6.82-6.1 10.26-9.46 3.84-3.75 2-6.78-3.21-5.34q-4.92 1.35-9.93 3c-9 3-18.51 6.59-27.15 12a43.92 43.92 0 00-10.43 8.5c-3.58 4.31-4.57 7.79-1.59 9.8 2.42 1.63 6.46 1.32 11.36-.13a69.91 69.91 0 0016.85-8.19 132.41 132.41 0 0013.84-10.17m63.8-26.69c-4.43 1.79-7.41 4.73-6.69 6.6s5 1.93 9.41.16 7.41-4.73 6.65-6.59-4.93-1.94-9.37-.17m0 25.85c-4.43-1.78-7.41-4.73-6.69-6.59s5-1.93 9.41-.16 7.41 4.72 6.65 6.59-4.93 1.93-9.37.16m-103.1-25.85c4.4 1.79 7.42 4.73 6.65 6.6s-4.93 1.93-9.37.16-7.41-4.73-6.68-6.59 4.93-1.94 9.4-.17m0 25.85c4.4-1.78 7.42-4.73 6.65-6.59s-4.93-1.93-9.37-.16-7.41 4.72-6.68 6.59 4.93 1.93 9.4.16m45.76-53.99c.33 10.51 2.88 18.08 5.76 16.92s4.9-10.63 4.6-21.14-2.91-18.07-5.76-16.91-4.93 10.62-4.6 21.13m.89 86.62c.33 10.51 2.88 18.07 5.76 16.92s4.9-10.63 4.57-21.14-2.88-18.07-5.73-16.91-4.9 10.62-4.6 21.13"/><path class="cls-5" d="M496 305.2c39.09-52.24 69.93-21.39 17.69 17.68a2 2 0 000 3.12c52.24 39.07 21.4 69.92-17.69 17.68a2 2 0 00-3.11 0C453.8 395.92 423 365.07 475.19 326a2 2 0 000-3.12C423 283.81 453.8 253 492.88 305.2a2 2 0 003.11 0"/><path class="cls-4" d="M542.2 318c-7.45 0-13.48 3.15-13.48 7s6 7 13.48 7 13.49-3.11 13.49-7-6-7-13.49-7m-55.97 56c0 7.45 3.14 13.48 7 13.48s7-6 7-13.48-3.12-13.51-7-13.51-7 6.06-7 13.51m0-98c0 7.45 3.14 13.51 7 13.51s7-6.06 7-13.51-3.12-13.47-7-13.47-7 6-7 13.47m-41.94 42c-7.46 0-13.5 3.15-13.5 7s6 7 13.5 7 13.48-3.11 13.48-7-6-7-13.48-7M654.3 548.93a105 105 0 0010.7-3.68c4.09-1.58 4-5.66-.15-7.18-2.59-.93-5.25-1.82-8-2.58-7.32-2.06-15.24-3.88-23.26-3.35a24.91 24.91 0 00-10.43 2.62C619 537 617 540 618.28 543.7c1 3 3.94 5 7.85 6.29 4.7 1.56 9.69 1.69 14.73 1.32a71.86 71.86 0 0013.44-2.38m51.28 0a106.55 106.55 0 01-10.7-3.68c-4.09-1.58-4-5.66.14-7.18 2.61-.93 5.26-1.82 8-2.58 7.32-2.06 15.24-3.88 23.26-3.35a24.91 24.91 0 0110.43 2.62c4.15 2.28 6.17 5.23 4.9 8.94-1 3-3.93 5-7.86 6.29-4.69 1.56-9.68 1.69-14.72 1.32a72.11 72.11 0 01-13.45-2.38m-45.71-24.67a109.76 109.76 0 009 7c3.57 2.51 6.94.19 5.93-4.08-.63-2.71-1.35-5.39-2.22-8.11-2.29-7.25-5.13-14.86-10-21.29a24.93 24.93 0 00-7.93-7.28c-4.18-2.22-7.74-2.29-10.15.83-1.94 2.51-2 6-1 10 1.26 4.81 3.91 9 7 13.05a74.23 74.23 0 009.36 9.93M688 567.14c-1-2.91-2-7.12-2.8-11-.91-4.3 2.55-6.46 6.08-3.84q3.35 2.49 6.56 5.26c5.74 5 11.6 10.63 15.57 17.62a24.92 24.92 0 013.52 10.16c.37 4.71-1 8-4.78 9-3.08.76-6.32-.56-9.56-3.15-3.89-3-6.72-7.15-9.19-11.55a74.1 74.1 0 01-5.4-12.55m-.77-50.94a109.11 109.11 0 00-2.45 11.06c-.79 4.3 2.74 6.36 6.2 3.61 2.17-1.69 4.3-3.51 6.39-5.43 5.58-5.17 11.25-11 15-18.08a25 25 0 003.21-10.3c.21-4.7-1.23-8-5.06-8.84-3.1-.69-6.31.77-9.47 3.41-3.79 3.18-6.49 7.39-8.81 11.86a73.44 73.44 0 00-5 12.71m-26.82 43.71c2.21-2.09 5.61-4.8 8.74-7.19 3.49-2.65 6.92-.43 6.05 3.88-.55 2.71-1.19 5.43-2 8.17-2.07 7.32-4.68 15-9.3 21.59a24.33 24.33 0 01-7.7 7.48c-4.11 2.35-7.67 2.55-10.17-.46-2-2.45-2.2-6-1.26-10 1.11-4.8 3.62-9.14 6.57-13.24a74 74 0 019-10.23m13.97-67.05c0 7.45 2.27 13.47 5.07 13.47s5.07-6 5.07-13.47-2.27-13.51-5.07-13.51-5.07 6.06-5.07 13.51m0 97.9c0 7.45 2.27 13.51 5.07 13.51s5.07-6.06 5.07-13.51-2.27-13.47-5.07-13.47-5.07 6-5.07 13.47m5.07-57.37a8.43 8.43 0 11-8.42 8.44 8.43 8.43 0 018.42-8.44m-54.96-211.78a20.07 20.07 0 005.88-1.56c5.63-2.68 20.38-2.68 26 0a20.06 20.06 0 005.89 1.56c10.27 1.49 10.27 5.4 0 6.85a21.39 21.39 0 00-5.89 1.56c-5.62 2.71-20.37 2.71-26 0a21.41 21.41 0 00-5.88-1.56c-10.28-1.45-10.28-5.36 0-6.85m73.27 0a20 20 0 005.88-1.56c5.62-2.68 20.38-2.68 26 0a20.06 20.06 0 005.89 1.56c10.27 1.49 10.27 5.4 0 6.85a21.39 21.39 0 00-5.89 1.56c-5.62 2.71-20.38 2.71-26 0a21.31 21.31 0 00-5.88-1.56c-10.28-1.45-10.28-5.36 0-6.85m-14.33-52.08a21.64 21.64 0 001.55 5.89c2.71 5.63 2.71 20.36 0 26a21.62 21.62 0 00-1.55 5.9c-1.48 10.26-5.37 10.26-6.84 0a21.22 21.22 0 00-1.56-5.9c-2.7-5.63-2.7-20.36 0-26a21.24 21.24 0 001.56-5.89c1.47-10.27 5.36-10.27 6.84 0m0 73.27a21.54 21.54 0 001.55 5.89c2.71 5.63 2.71 20.37 0 26a21.62 21.62 0 00-1.55 5.9c-1.48 10.26-5.37 10.26-6.84 0a21.22 21.22 0 00-1.56-5.9c-2.7-5.62-2.7-20.36 0-26a21.14 21.14 0 001.56-5.89c1.47-10.26 5.36-10.26 6.84 0m-40.26-59.43a21.65 21.65 0 005.26 3.08c5.89 2.05 16.32 12.48 18.38 18.37a21.55 21.55 0 003.06 5.27c6.22 8.31 3.48 11.06-4.83 4.83a21.08 21.08 0 00-5.27-3.08c-5.88-2.05-16.32-12.48-18.37-18.37a21.63 21.63 0 00-3.07-5.27c-6.22-8.31-3.47-11.06 4.84-4.83m51.81 51.81a23.11 23.11 0 005.26 3.08c5.89 2.06 16.32 12.49 18.38 18.38a20.53 20.53 0 003.07 5.23c6.22 8.34 3.47 11.06-4.85 4.87a20.71 20.71 0 00-5.25-3.08c-5.89-2.05-16.32-12.48-18.39-18.38a21.14 21.14 0 00-3.07-5.26c-6.21-8.31-3.47-11.06 4.85-4.84m26.71-46.98a21 21 0 00-3.07 5.27c-2.06 5.89-12.49 16.32-18.38 18.37a21.05 21.05 0 00-5.26 3.08c-8.32 6.23-11.06 3.48-4.85-4.83a21 21 0 003.07-5.27c2.07-5.89 12.5-16.32 18.39-18.37a22 22 0 005.25-3.08c8.32-6.23 11.07-3.48 4.85 4.83M669.81 340a21.7 21.7 0 00-3.06 5.26c-2.06 5.9-12.49 16.33-18.38 18.38a20.41 20.41 0 00-5.26 3.08c-8.31 6.19-11.06 3.47-4.84-4.87a21.15 21.15 0 003.07-5.23c2-5.89 12.49-16.32 18.37-18.38a23.14 23.14 0 005.27-3.08c8.31-6.22 11-3.47 4.83 4.84m748.35 201.55a2.51 2.51 0 01-2 2.45l-39.35 7.61a10 10 0 11-.11-19.73l39.43 7.18a2.52 2.52 0 012.06 2.49m17.17 0a2.51 2.51 0 002 2.45l39.36 7.61a10 10 0 10.1-19.73l-39.43 7.18a2.52 2.52 0 00-2.05 2.49m-8.34-8.38a2.51 2.51 0 01-2.46-2l-7.62-39.34a10 10 0 1119.74-.1l-7.19 39.44a2.51 2.51 0 01-2.47 2m0 17.18a2.52 2.52 0 00-2.46 2l-7.62 39.37a10 10 0 1019.74.1l-7.19-39.43a2.51 2.51 0 00-2.47-2.06m-6.16-14.81a2.48 2.48 0 01-3.18.3l-33.22-22.42a10 10 0 1113.89-14l22.79 32.95a2.52 2.52 0 01-.28 3.21m12.16 12.11a2.52 2.52 0 00-.3 3.18l22.43 33.21a10 10 0 1014-13.87l-33-22.82a2.54 2.54 0 00-3.2.3m.07-11.82a2.51 2.51 0 01-.3-3.18l22.43-33.24a10.05 10.05 0 1114 13.91l-33 22.78a2.5 2.5 0 01-3.2-.27M1420.84 548a2.48 2.48 0 00-3.18-.3l-33.22 22.42a10 10 0 1013.89 14l22.79-33a2.48 2.48 0 00-.28-3.18M891 348.31c-2.72 4.56-6.76 10.69-10.43 16.15-4.11 6.08-6.82 4.3-4.77-3.13 1.26-4.66 2.65-9.38 4.14-14.2 4-12.88 8.67-26.64 15-39.64a93.73 93.73 0 019.54-16.12c4.63-5.9 8.11-8.06 9.7-4.47 1.29 2.91.5 8.48-1.52 15.46a156.73 156.73 0 01-10 24.76c-3.67 7.5-7.54 14.48-11.58 21.19m-51.15-1.64c2.71 4.56 6.75 10.69 10.46 16.15 4.11 6.09 6.79 4.3 4.77-3.12-1.29-4.66-2.65-9.39-4.17-14.21-4-12.88-8.68-26.64-15-39.64a91.73 91.73 0 00-9.53-16.11c-4.61-5.91-8.12-8.06-9.71-4.47-1.25 2.9-.46 8.46 1.56 15.44a157.17 157.17 0 0010 24.77c3.67 7.5 7.58 14.49 11.59 21.19m38.44 25.96c-2.85 2.38-6.66 6-10 9.25-3.74 3.66-1.95 6.62 3.15 5.22q4.81-1.32 9.73-3c8.78-2.94 18.08-6.43 26.52-11.69a42.71 42.71 0 0010.2-8.31c3.51-4.22 4.47-7.62 1.56-9.58-2.35-1.6-6.33-1.29-11.09.14a67 67 0 00-16.46 8 130.19 130.19 0 00-13.57 9.94"/><path class="cls-4" d="M855 372.63c2.85 2.38 6.65 6 10 9.25 3.74 3.66 2 6.62-3.14 5.22q-4.83-1.32-9.74-3c-8.77-2.94-18.08-6.43-26.52-11.69a42.47 42.47 0 01-10.16-8.31c-3.55-4.22-4.51-7.62-1.59-9.58 2.38-1.6 6.32-1.29 11.12.14a67.56 67.56 0 0116.46 8 131.92 131.92 0 0113.57 9.97m2.21-28.02c.9 6.67 2.62 15.88 4.24 24.15 1.82 9.2 6.55 9 8.28-.33q1.68-8.79 3-18c2.38-16.5 4.44-34.35 3.84-52.43-.26-8.59-1.09-16.7-3-23.53-2.65-9.35-6-13.91-10.3-11-3.48 2.34-5.76 8.87-7.25 17.71-1.82 10.57-1.95 21.83-1.52 33.18.36 10.45 1.39 20.51 2.71 30.32m-13.54-56.4c-3.54-10.33-7.55-18.31-9-17.83s.33 9.25 3.87 19.58 7.55 18.29 9 17.81-.33-9.24-3.87-19.56m43.21-.21c3.54-10.32 7.55-18.3 8.94-17.81s-.3 9.24-3.84 19.56-7.59 18.3-9 17.82.33-9.24 3.88-19.57m505.04 28.59c15.23 0 27.59 3.81 27.59 8.51s-12.36 8.54-27.59 8.54-27.59-3.84-27.59-8.54 12.35-8.51 27.59-8.51m.04-16.95c9 6.12 15.65 12.11 14.81 13.34s-8.83-2.75-17.85-8.91-15.65-12.11-14.81-13.34 8.83 2.75 17.85 8.91m0 49.86c9-6.13 15.65-12.12 14.81-13.34s-8.83 2.74-17.85 8.9-15.65 12.12-14.81 13.35 8.83-2.75 17.85-8.91m69.56-49.86c-9 6.12-15.65 12.11-14.81 13.34s8.83-2.75 17.84-8.91 15.66-12.11 14.82-13.34-8.83 2.75-17.85 8.91m-37.44-17.55c0 10.92 1.21 19.76 2.7 19.76s2.7-8.84 2.7-19.76-1.21-19.77-2.7-19.77-2.7 8.84-2.7 19.77m0 85.69c0 10.92 1.21 19.76 2.7 19.76s2.7-8.84 2.7-19.76-1.21-19.74-2.7-19.74-2.7 8.84-2.7 19.74m37.44-18.28c-9-6.13-15.65-12.12-14.81-13.34s8.83 2.74 17.84 8.9 15.66 12.12 14.82 13.35-8.83-2.75-17.85-8.91m.12-32.91c15.24 0 27.59 3.81 27.59 8.51s-12.35 8.54-27.59 8.54-27.59-3.84-27.59-8.54 12.36-8.51 27.59-8.51M1415.94 291c7.92 13 11.07 25.52 7 28s-13.7-6.12-21.62-19.13-11.07-25.56-7-28 13.71 6.13 21.63 19.18m36.21 59.48c7.92 13 11.07 25.56 7 28s-13.71-6.12-21.63-19.14-11.07-25.56-7-28 13.7 6.13 21.62 19.14m.69-50.03c-8.27 12.81-18.17 21.13-22.14 18.54s-.47-15 7.8-27.78 18.17-21.12 22.13-18.57.46 15-7.79 27.81M1415 359.07c-8.26 12.82-18.17 21.13-22.13 18.58s-.47-15 7.79-27.82 18.17-21.12 22.14-18.54.46 15-7.8 27.78M1236.15 542a2.5 2.5 0 00-2-2.45l-39.36-7.62a10 10 0 10-.11 19.73l39.44-7.18a2.53 2.53 0 002.06-2.48"/><path class="cls-4" d="M1236.66 541.27a2.52 2.52 0 00-3.22-.27l-34.14 23.34a10.12 10.12 0 1013.88 14.08l23.72-33.91a2.51 2.51 0 00-.24-3.24"/><path class="cls-4" d="M1236.66 543.09a2.51 2.51 0 01-3.22.26L1199.3 520a10.12 10.12 0 1113.88-14.07l23.72 33.9a2.53 2.53 0 01-.24 3.25m34.39-2.47c-.85-.83-2.47-.67-3.88.39l-47 35.46c-7.39 5.57-10.12 14.84-5.66 19.21s13.78 1.75 19.5-5.43l36.57-45.79c1.1-1.36 1.28-3 .42-3.84"/><path class="cls-4" d="M1271.05 543.29c-.85.83-2.47.66-3.88-.4l-47-35.43c-7.39-5.59-10.12-14.83-5.66-19.2s13.78-1.76 19.5 5.4l36.57 45.79c1.1 1.39 1.28 3 .42 3.84m25.57-2.78c-1-.67-2.6-.24-3.9 1l-43.54 41.92c-6.86 6.59-8.55 16-3.51 19.5s14.17-.56 19.15-8.41l31.81-50.23c1-1.52 1-3.11 0-3.8"/><path class="cls-4" d="M1296.57 543c-1 .66-2.6.23-3.9-1l-43.54-41.92c-6.86-6.62-8.55-16-3.51-19.5s14.17.53 19.15 8.37l31.81 50.26c1 1.53 1 3.12 0 3.78"/><path class="cls-4" d="M1226.62 541.76a3.11 3.11 0 002.92 3.12l22.56 1.42a218.12 218.12 0 0043-1.59.15.15 0 00.14-.16V539a.2.2 0 00-.14-.16 220.42 220.42 0 00-43-1.56l-22.56 1.42a3.1 3.1 0 00-2.92 3.08m-173.27-225.51a8.83 8.83 0 11-8.82 8.81 8.82 8.82 0 018.82-8.81"/><path class="cls-5" d="M1014.46 354.21c-1.68 1.79-4.08 3.45-6 5.8s-3.3 5.1-2.11 6.09c1 1.19 3.9-.2 6.11-2.09s4-4.33 5.79-6 4.09-3.45 6-5.8c1.89-2.18 3.31-5.06 2.11-6.09-1-1.19-3.89.2-6.1 2.12s-4 4.34-5.8 6m-2.68-56.98c-1.67-1.75-4.09-3.44-6-5.79-1.89-2.18-3.29-5.07-2.1-6.09 1-1.19 3.9.2 6.11 2.12s4 4.3 5.79 6 4.09 3.44 6 5.79 3.29 5.07 2.09 6.1c-1 1.19-3.89-.2-6.1-2.09s-4-4.34-5.79-6m81.94 55.62c1.68 1.79 4.08 3.45 6 5.8s3.3 5.06 2.11 6.09c-1 1.19-3.9-.2-6.11-2.09s-4-4.33-5.79-6-4.08-3.45-6-5.8c-1.89-2.18-3.3-5.06-2.11-6.09 1-1.19 3.9.2 6.11 2.09s4 4.33 5.79 6m-1.67-57.31c1.68-1.79 4.09-3.44 6-5.79s3.31-5.07 2.11-6.1c-1-1.19-3.89.2-6.1 2.09s-4 4.34-5.8 6-4.08 3.45-6 5.8c-1.89 2.18-3.3 5.06-2.11 6.09 1 1.19 3.91-.2 6.11-2.08s4-4.34 5.79-6"/><path class="cls-4" d="M1041.18 281.67c6.61 12.48 11.38 30.69 6.68 33.18s-17.1-11.66-23.71-24.14-4.92-18.51-.22-21 10.65-.5 17.25 11.95m41.15 77.65c-6.61-12.48-19-26.65-23.71-24.17s.06 20.73 6.67 33.18 12.55 14.47 17.26 12 6.39-8.54-.22-21m-2.15-70.32c-5.84 12.84-17.35 27.74-22.19 25.56s-1.21-20.66 4.63-33.51 11.64-15.23 16.49-13 6.9 8.11 1.07 21M1043.86 369c5.83-12.85 9.48-31.32 4.63-33.51s-16.35 12.68-22.19 25.53-3.78 18.77 1.06 21 10.67-.16 16.5-13m-28.99-60.9c13.41 0 24.28 7.59 24.28 17S1028.28 342 1014.87 342s-24.27-7.58-24.27-16.95 10.87-17 24.27-17m76.96.07c13.4 0 24.28 7.59 24.28 17S1105.23 342 1091.83 342s-24.28-7.58-24.28-16.95 10.87-17 24.28-17"/><path class="cls-5" d="M1058.57 571.73c-.14-4.28.82-9.36.29-14.65-.43-5.09-2.35-10.4-5.26-10.2-2.88-.2-4.8 5.11-5.23 10.2-.53 5.29.43 10.37.3 14.65.13 4.28-.83 9.34-.3 14.65.43 5.08 2.35 10.39 5.23 10.18 2.91.21 4.83-5.1 5.26-10.18.53-5.31-.43-10.37-.29-14.65"/><path class="cls-4" d="M1081.91 516.09c13.77-10.39 29.5-6 30.69-2.59s-8.24 16.7-25.49 17.29-29 7.34-30.66 2.58 11.69-6.9 25.46-17.28m1.09 38.56c14.46 9.37 29.83 3.82 30.79.39s-9.41-16.07-26.66-15.43-29.46-5.26-30.79-.39 12.15 6.06 26.66 15.43m-58.24-38.56c-13.77-10.39-29.47-6-30.66-2.59s8.25 16.7 25.46 17.29 29 7.34 30.7 2.58-11.69-6.9-25.5-17.28m-1.09 38.56c-14.5 9.37-29.87 3.82-30.79.39s9.4-16.07 26.65-15.43 29.43-5.26 30.79-.39-12.18 6.06-26.65 15.43"/><path d="M1088.93 487a35.32 35.32 0 00-35.33 35.3m-35.29-35.3a35.29 35.29 0 0135.29 35.3" stroke="#1e1d1a" stroke-linecap="round" stroke-miterlimit="10" stroke-width="8.74" fill="none"/><path class="cls-4" d="M1206 366.69c3.45-3.3 4.57-7.73 2.52-9.9s-6.56-1.26-10 2-4.57 7.72-2.49 9.89 6.53 1.25 10-2m-19.79-34.03c4.76 0 8.64-2.43 8.64-5.43s-3.88-5.42-8.64-5.42-8.65 2.43-8.65 5.42 3.88 5.43 8.65 5.43m87.9 34.04c-3.47-3.3-4.6-7.73-2.51-9.9s6.52-1.26 10 2 4.57 7.72 2.52 9.89-6.55 1.25-10-2m19.73-34.03c-4.77 0-8.65-2.43-8.65-5.43s3.88-5.42 8.65-5.42 8.64 2.43 8.64 5.42-3.84 5.43-8.64 5.43m-29.47 1.42c-3.08 16-7.55 29.88-12.65 39.35s-10.6 14.57-12.35 14c-2.09-.67 0-6.87 2.48-17.2s5.47-24.7 8.55-40.68 7.51-29.89 12.64-39.36c5-9.51 10.57-14.56 12.35-14 2.09.68-.06 6.86-2.48 17.19-2.58 10.29-5.46 24.72-8.54 40.69"/><path class="cls-4" d="M1215.24 334.07c3.08 16 7.52 29.88 12.61 39.35s10.6 14.57 12.39 14c2-.67-.07-6.87-2.49-17.2-2.58-10.29-5.46-24.7-8.57-40.68s-7.52-29.89-12.65-39.36c-4.93-9.51-10.56-14.56-12.35-14-2.09.68.07 6.86 2.48 17.19 2.59 10.29 5.47 24.72 8.58 40.69"/><path class="cls-4" d="M1247.49 322.51c0 33.13-3.31 60-7.42 60s-7.41-26.85-7.41-60 3.31-60 7.41-60 7.42 26.85 7.42 60"/><path class="cls-5" d="M1058.41 755.34c-122.57 0-46.61-41.55-3.27 1.79-43.34-43.34-1.79-119.29-1.79 3.28 0-122.57 41.55-46.62-1.79-3.28 43.34-43.34 119.31-1.79-3.27-1.79 122.58 0 46.61 41.56 3.27-1.78 43.34 43.34 1.79 119.29 1.79-3.28 0 122.57-41.55 46.62 1.79 3.28-43.34 43.34-119.3 1.78 3.27 1.78"/><path class="cls-4" d="M512.9 743.2a112.23 112.23 0 00-12.56 6.22 6.91 6.91 0 00.17 12.15c3.05 1.59 6.17 3.08 9.38 4.37 8.58 3.48 17.87 6.53 27.27 5.67a22.19 22.19 0 0012.23-4.47c4.87-3.84 7.23-8.81 5.74-15.07-1.21-5.06-4.6-8.41-9.2-10.63-5.51-2.65-11.36-2.84-17.27-2.21a63.29 63.29 0 00-15.76 4m9.97 51.22c5.32 5.3 11.54 7.72 13.92 5.33s0-8.61-5.34-13.9-11.55-7.72-13.92-5.37 0 8.61 5.34 13.94m0-77.01c-5.32 5.3-7.71 11.52-5.34 13.9s8.61 0 13.92-5.33 7.7-11.55 5.34-13.93-8.6 0-13.92 5.36m-49.28 25.76a111.32 111.32 0 0112.55 6.22 6.91 6.91 0 01-.16 12.15c-3.05 1.59-6.18 3.08-9.38 4.37-8.58 3.48-17.87 6.53-27.28 5.67a22.13 22.13 0 01-12.22-4.47c-4.88-3.84-7.24-8.81-5.75-15.07 1.22-5.06 4.61-8.41 9.2-10.63 5.51-2.65 11.36-2.84 17.27-2.21a63.25 63.25 0 0115.77 4"/><path class="cls-4" d="M505.38 775a110.61 110.61 0 00-6.23-12.55 6.91 6.91 0 00-12.13.17c-1.6 3.08-3.08 6.19-4.38 9.4-3.48 8.58-6.52 17.85-5.66 27.25a22.57 22.57 0 004.45 12.25c3.85 4.87 8.81 7.22 15.08 5.73 5.07-1.19 8.42-4.6 10.63-9.2 2.64-5.5 2.84-11.36 2.22-17.25a63.5 63.5 0 00-4-15.8m.02-39.32a104.38 104.38 0 01-6.23 12.55 6.89 6.89 0 01-12.13-.16c-1.6-3.05-3.08-6.16-4.38-9.37-3.48-8.58-6.52-17.85-5.66-27.29a22.47 22.47 0 014.45-12.21c3.85-4.87 8.81-7.26 15.08-5.73 5.07 1.19 8.42 4.6 10.63 9.17 2.64 5.53 2.84 11.39 2.22 17.28a63.2 63.2 0 01-4 15.76M454.43 726c5.32 5.3 11.55 7.72 13.92 5.33s0-8.6-5.33-13.9-11.55-7.72-13.93-5.36 0 8.6 5.34 13.93m0 59.88c-5.31 5.29-7.7 11.52-5.34 13.9s8.61 0 13.93-5.33 7.7-11.55 5.33-13.94-8.6 0-13.92 5.37m211.14-42.04c2.38 2.88 6 6.69 9.25 10.06 3.66 3.74 6.63 2 5.22-3.14-.89-3.21-1.86-6.46-3-9.74-2.94-8.77-6.44-18.07-11.7-26.55a42.6 42.6 0 00-8.31-10.17c-4.21-3.54-7.61-4.5-9.57-1.55-1.59 2.35-1.29 6.32.13 11.09a67.43 67.43 0 008 16.46 128.72 128.72 0 009.94 13.54"/><path class="cls-4" d="M667.78 741.65c2.87 2.35 6.67 6 10 9.24 3.75 3.68 1.95 6.62-3.15 5.23-3.2-.89-6.45-1.89-9.72-3-8.77-2.91-18.08-6.42-26.54-11.69a42.88 42.88 0 01-10.17-8.31c-3.53-4.2-4.49-7.61-1.58-9.57 2.38-1.58 6.34-1.29 11.12.14 5.72 1.69 11.16 4.67 16.45 8a129 129 0 0113.55 10"/><path class="cls-4" d="M691.19 769.46c-2.88-2.38-6.68-6-10.05-9.23-3.75-3.68-1.95-6.62 3.15-5.23 3.21.89 6.45 1.85 9.73 2.94 8.77 2.95 18.07 6.46 26.52 11.72a42.33 42.33 0 0110.19 8.34c3.52 4.21 4.49 7.62 1.57 9.57-2.38 1.59-6.33 1.29-11.11-.13a68 68 0 01-16.46-8 128.72 128.72 0 01-13.54-9.94"/><path class="cls-4" d="M693.39 767.25c-2.37-2.88-6-6.66-9.24-10-3.66-3.74-6.64-2-5.23 3.15.88 3.21 1.86 6.46 3 9.73 2.93 8.78 6.43 18.08 11.69 26.52a42.83 42.83 0 008.31 10.2c4.22 3.51 7.62 4.47 9.58 1.56 1.59-2.39 1.28-6.33-.14-11.09a67.27 67.27 0 00-8-16.46 127.09 127.09 0 00-9.94-13.57"/><path class="cls-4" d="M691.19 741.65c-2.88 2.35-6.68 6-10.05 9.24-3.75 3.68-1.95 6.62 3.15 5.23q4.82-1.33 9.73-3c8.77-2.91 18.07-6.42 26.52-11.69a42.81 42.81 0 0010.19-8.31c3.52-4.2 4.49-7.61 1.57-9.57-2.38-1.58-6.33-1.29-11.11.14-5.73 1.69-11.17 4.67-16.46 8a128.86 128.86 0 00-13.54 10"/><path class="cls-4" d="M693.39 743.84c-2.37 2.88-6 6.69-9.24 10.06-3.66 3.74-6.64 2-5.23-3.14.88-3.21 1.86-6.46 3-9.74 2.93-8.77 6.43-18.07 11.69-26.55a42.84 42.84 0 018.31-10.17c4.22-3.54 7.62-4.5 9.58-1.55 1.59 2.35 1.28 6.32-.14 11.09a67.8 67.8 0 01-8 16.46 128.72 128.72 0 01-9.94 13.54"/><path class="cls-4" d="M665.57 767.25c2.38-2.88 6-6.66 9.25-10 3.66-3.74 6.63-2 5.22 3.15-.89 3.21-1.86 6.46-3 9.73-2.94 8.78-6.44 18.08-11.7 26.52a42.59 42.59 0 01-8.31 10.2c-4.21 3.51-7.61 4.47-9.57 1.56-1.59-2.39-1.29-6.33.13-11.09a66.91 66.91 0 018-16.46 127.09 127.09 0 019.94-13.57"/><path class="cls-4" d="M667.78 769.46c2.87-2.38 6.67-6 10-9.23 3.75-3.68 1.95-6.62-3.15-5.23-3.2.89-6.45 1.85-9.72 2.94-8.77 2.95-18.08 6.46-26.54 11.72a42.41 42.41 0 00-10.13 8.34c-3.53 4.21-4.49 7.62-1.58 9.57 2.38 1.59 6.34 1.29 11.12-.13a68.14 68.14 0 0016.45-8 128.86 128.86 0 0013.55-9.94m-31.35-10.8c-10.35 0-18.75-1.68-18.75-3.74s8.4-3.74 18.75-3.74 18.73 1.69 18.73 3.74-8.39 3.74-18.73 3.74m46.89-46.88c0-10.36-1.68-18.74-3.75-18.74s-3.74 8.38-3.74 18.74 1.68 18.74 3.74 18.74 3.75-8.41 3.75-18.74m-6.73 87.05c0 10.36 1.66 18.74 3.74 18.74s3.74-8.38 3.74-18.74-1.68-18.74-3.74-18.74-3.74 8.37-3.74 18.74M723.47 752c10.35 0 18.74 1.66 18.74 3.74s-8.39 3.75-18.74 3.75-18.73-1.69-18.73-3.75 8.39-3.74 18.73-3.74"/><path class="cls-5" d="M831.89 746.73c4.77.24 10.43-1.35 16.34-.46 5.67.7 11.6 3.84 11.37 8.68.23 4.8-5.7 7.94-11.37 8.64-5.91.89-11.57-.7-16.34-.5-4.77-.2-10.44 1.39-16.35.5-5.67-.7-11.6-3.84-11.37-8.64-.23-4.84 5.7-8 11.37-8.68 5.91-.89 11.58.7 16.35.46m69.53 0c4.77.24 10.43-1.35 16.34-.46 5.67.7 11.6 3.84 11.37 8.68.23 4.8-5.7 7.94-11.37 8.64-5.91.89-11.57-.7-16.34-.5-4.77-.2-10.44 1.39-16.35.5-5.67-.7-11.6-3.84-11.37-8.64-.23-4.84 5.7-8 11.37-8.68 5.91-.89 11.58.7 16.35.46"/><path class="cls-5" d="M856.76 720.64c2.17 4.28 6.32 8.45 8.45 14 2.18 5.3 2.33 12-2 14.17-4.07 2.55-9.74-1.06-13.12-5.66-3.68-4.7-5.08-10.43-7.61-14.47-2.16-4.27-6.31-8.44-8.43-14-2.19-5.26-2.34-12 2-14.14 4.07-2.55 9.74 1.06 13.12 5.67 3.69 4.7 5.08 10.42 7.6 14.46m7.07-14.03c.06 2.42-.46 5.33-.16 8.34s1.25 5.93 2.83 5.8c1.57.13 2.6-2.92 2.82-5.8s-.22-5.92-.16-8.34.46-5.33.16-8.35-1.25-5.92-2.82-5.82c-1.58-.1-2.61 2.91-2.83 5.82s.22 5.9.16 8.35m0 97.41c.06 2.45-.46 5.33-.16 8.34s1.25 5.93 2.83 5.83c1.57.1 2.6-2.92 2.82-5.83s-.22-5.89-.16-8.34.46-5.33.16-8.35-1.25-5.92-2.82-5.79c-1.58-.13-2.61 2.91-2.83 5.79s.22 5.93.16 8.35m-41.09-70.29c2.16 1.15 4.42 3 7.2 4.23 2.63 1.23 5.77 1.82 6.44.4.87-1.32-1.26-3.71-3.67-5.33s-5.25-2.68-7.34-3.94-4.43-3-7.2-4.24-5.78-1.82-6.45-.4c-.87 1.33 1.25 3.71 3.67 5.34s5.26 2.68 7.35 3.94m84.89 47.81c2.16 1.15 4.42 3 7.2 4.23 2.63 1.23 5.77 1.82 6.44.4.87-1.32-1.26-3.71-3.67-5.33s-5.26-2.71-7.35-4-4.42-3-7.2-4.21c-2.63-1.22-5.77-1.82-6.44-.39-.87 1.32 1.26 3.7 3.67 5.33s5.26 2.68 7.35 3.94m-.47-53.15c-2.07 1.29-4.82 2.32-7.28 4.07s-4.47 4.11-3.57 5.4c.69 1.39 3.82.76 6.43-.5s5-3.17 7.13-4.37 4.82-2.31 7.28-4.07 4.47-4.1 3.57-5.4c-.7-1.39-3.82-.76-6.44.5s-5 3.18-7.12 4.37m-84.03 49.3c-2.07 1.29-4.83 2.32-7.29 4.07s-4.47 4.11-3.57 5.4c.69 1.39 3.83.76 6.44-.5s5-3.21 7.12-4.37 4.82-2.31 7.28-4.07 4.47-4.1 3.57-5.39c-.69-1.43-3.82-.77-6.43.49s-5 3.18-7.12 4.37m67.71 3.48c2.17 4.27 6.32 8.44 8.44 14 2.18 5.3 2.34 12-2 14.18-4.07 2.54-9.74-1.06-13.11-5.67-3.69-4.7-5.09-10.43-7.61-14.47-2.16-4.27-6.32-8.41-8.44-14-2.19-5.3-2.33-12 2-14.17 4.07-2.55 9.73 1.06 13.12 5.66 3.68 4.7 5.08 10.43 7.6 14.47"/><path class="cls-5" d="M891.24 729.05c-2.58 4-4.07 9.71-7.82 14.34-3.44 4.57-9.17 8.08-13.2 5.46-4.27-2.21-4-8.94-1.75-14.17 2.2-5.56 6.41-9.67 8.65-13.87 2.58-4 4.06-9.7 7.81-14.37 3.45-4.57 9.17-8.08 13.21-5.46 4.26 2.22 4 8.94 1.75 14.17-2.2 5.56-6.42 9.67-8.65 13.9m-34.99 60c-2.58 4-4.06 9.7-7.81 14.37-3.46 4.57-9.17 8.08-13.21 5.46-4.26-2.22-4-8.94-1.75-14.17 2.2-5.56 6.42-9.67 8.64-13.91 2.59-4 4.07-9.7 7.83-14.33 3.44-4.57 9.16-8.08 13.2-5.47 4.27 2.22 4 8.91 1.75 14.18-2.2 5.56-6.42 9.63-8.65 13.87"/><path class="cls-4" d="M1230.39 755.14a2.51 2.51 0 00-2-2.45l-39.39-7.61a10 10 0 10-.11 19.73l39.44-7.18a2.53 2.53 0 002.06-2.49"/><path class="cls-4" d="M1230.9 754.42a2.56 2.56 0 00-3.22-.27l-34.14 23.38a10.11 10.11 0 1013.88 14l23.72-33.91a2.51 2.51 0 00-.24-3.24"/><path class="cls-4" d="M1230.9 756.27a2.51 2.51 0 01-3.22.23l-34.14-23.34a10.11 10.11 0 1113.88-14l23.72 33.84a2.57 2.57 0 01-.24 3.28m18.82-1.14a2.51 2.51 0 012-2.45l39.36-7.61a10 10 0 11.1 19.73l-39.43-7.18a2.53 2.53 0 01-2.06-2.49"/><path class="cls-4" d="M1249.21 754.42a2.56 2.56 0 013.22-.27l34.15 23.38a10.11 10.11 0 11-13.89 14L1249 757.66a2.51 2.51 0 01.24-3.24"/><path class="cls-4" d="M1249.21 756.27a2.51 2.51 0 003.22.23l34.15-23.34a10.12 10.12 0 10-13.89-14L1249 753a2.57 2.57 0 00.24 3.28"/><path class="cls-4" d="M1251.23 756.67c-1 .63-2.41.26-3.47-.9l-35.08-38c-5.52-6-6-14.67-.9-18s13 .27 16.64 7.45l23.27 46c.71 1.39.51 2.85-.46 3.51"/><path class="cls-4" d="M1251.23 754c-1-.63-2.41-.27-3.47.86L1212.68 793c-5.52 6-6 14.63-.9 18s13-.26 16.64-7.45l23.27-46c.71-1.36.51-2.85-.46-3.48m-23.79 2.6c1 .63 2.42.26 3.46-.9l35.09-38c5.53-6 6-14.67.9-18s-13 .27-16.64 7.45l-23.27 46c-.71 1.39-.52 2.85.46 3.51"/><path class="cls-4" d="M1227.44 754a2.8 2.8 0 013.46.86L1266 793c5.53 6 6 14.63.9 18s-13-.26-16.64-7.45l-23.27-46c-.71-1.36-.52-2.85.46-3.48m175.63-46.85c1.78 4.43 4.73 7.41 6.59 6.69s1.94-5 .16-9.37-4.72-7.45-6.58-6.69-1.94 4.93-.17 9.37m0 96.88c1.78-4.44 4.73-7.45 6.59-6.69s1.94 4.93.16 9.37-4.72 7.45-6.58 6.69-1.94-4.94-.17-9.37m47.36-96.88c-1.78 4.43-4.73 7.41-6.59 6.69s-1.93-5-.16-9.37 4.72-7.45 6.58-6.69 1.94 4.93.17 9.37m0 96.88c-1.78-4.44-4.73-7.45-6.59-6.69s-1.93 4.93-.16 9.37 4.72 7.45 6.58 6.69 1.94-4.94.17-9.37m-16.63-48.74a4.28 4.28 0 003.84 4.24l20 2a88.77 88.77 0 0028.06-1.63 4.5 4.5 0 003.52-4.4v-.5a4.5 4.5 0 00-3.52-4.4 88.76 88.76 0 00-28.06-1.62l-20 2a4.28 4.28 0 00-3.84 4.27m-14.1.04a4.28 4.28 0 01-3.84 4.24l-20.24 2a86.47 86.47 0 01-27.55-1.62 4.76 4.76 0 01-3.77-4.67 4.81 4.81 0 013.77-4.7 86.47 86.47 0 0127.55-1.62l20.24 2.05a4.28 4.28 0 013.84 4.27m7.05 7.1a4.27 4.27 0 00-4.25 3.84l-2 20a88.38 88.38 0 001.65 28 4.47 4.47 0 004.38 3.54h.52a4.47 4.47 0 004.38-3.54 88.38 88.38 0 001.65-28l-2-20a4.27 4.27 0 00-4.25-3.84m-.08-14.1a4.27 4.27 0 01-4.25-3.84l-2.06-20.27a86.71 86.71 0 011.61-27.54 4.81 4.81 0 019.4 0 86.71 86.71 0 011.61 27.54l-2.07 20.27a4.27 4.27 0 01-4.25 3.84"/><path class="cls-4" d="M1431.74 760.33a4.27 4.27 0 00-.28 5.72l12.69 15.57a88.21 88.21 0 0021 18.67 4.45 4.45 0 005.59-.6l.36-.36a4.51 4.51 0 00.61-5.6 88.37 88.37 0 00-18.68-21L1437.47 760a4.3 4.3 0 00-5.73.3m-9.97-9.94a4.26 4.26 0 01-5.72.3l-15.77-12.85a87.49 87.49 0 01-18.28-20.63 4.81 4.81 0 016.64-6.65 86.68 86.68 0 0120.62 18.34l12.85 15.76a4.28 4.28 0 01-.29 5.73m-.05 9.97a4.29 4.29 0 00-5.72-.3l-15.57 12.71a88.81 88.81 0 00-18.68 21 4.52 4.52 0 00.62 5.6l.36.36a4.45 4.45 0 005.59.6 88.4 88.4 0 0021-18.67l12.69-15.57a4.27 4.27 0 00-.29-5.72m9.97-9.98a4.28 4.28 0 01-.28-5.73l12.85-15.76a86.49 86.49 0 0120.62-18.34 4.81 4.81 0 016.64 6.65 87.53 87.53 0 01-18.34 20.63l-15.76 12.85a4.27 4.27 0 01-5.73-.3"/><path d="M184.55 102.25a9.43 9.43 0 014.58-1.33c2.34 0 4 1.22 4 3.49a3.52 3.52 0 01-2.52 3.42 13.67 13.67 0 01-4.07-.33 2.87 2.87 0 00-.32 1.52 3.59 3.59 0 00.29 1.44 15.65 15.65 0 012.81-.33c2.73 0 4.39 1.3 4.39 3.75a3.88 3.88 0 01-1.3 3.24 5.19 5.19 0 01-2.77.64 7.14 7.14 0 01-4.82-1.72 4.26 4.26 0 00-1.66 2.62c1.58 1.41 3.85 2.09 6.84 2.09a9.67 9.67 0 005.87-1.76 5.86 5.86 0 002.45-5 4.54 4.54 0 00-1.52-3.63 5.55 5.55 0 00-3.42-1.51v-.18c2.31-.69 4.22-2.42 4.22-5.15 0-3.42-2.74-5.55-6.66-5.55a16.28 16.28 0 00-7.1 1.48 8 8 0 00.72 2.81m21.59 10.18a14.86 14.86 0 012.6-.15c2 0 3.6.79 3.6 2.77a3.14 3.14 0 01-1.19 2.78 7.07 7.07 0 01-2.81.39 6.2 6.2 0 01-2.2-.29zm0-7.17a8.14 8.14 0 012.2-.29c2.27 0 3.42.87 3.42 2.6a2.66 2.66 0 01-2.16 2.66 12.24 12.24 0 01-3.46 0zm2.38-2.63a62.08 62.08 0 00-6.55.44c.18 2 .25 4.42.25 7.3v1.37c0 3.42-.07 6.23-.25 8.46a38.23 38.23 0 006 .4c5.08 0 8.46-1.87 8.46-5.29a4 4 0 00-3.92-4.22v-.18a4.16 4.16 0 003.24-4c-.03-2.84-2.44-4.28-7.23-4.28zm22.54-5.83a1.94 1.94 0 00-1.91 1.87 1.93 1.93 0 003.85 0 1.88 1.88 0 00-1.94-1.87m-8.82 1.87a1.79 1.79 0 001.87 1.77 1.82 1.82 0 001.94-1.77 1.88 1.88 0 00-1.94-1.87 1.85 1.85 0 00-1.87 1.87zm1.26 11.52a8.14 8.14 0 01.43-2.48 6.19 6.19 0 011-2 4.25 4.25 0 012.59-.76 3.29 3.29 0 013.45 3.39 2.53 2.53 0 01-.28 1.26 17.79 17.79 0 01-3.28.39c-1.72.13-3.01.2-3.91.2zm4.6-7.66a8 8 0 00-6.33 2.66 9.61 9.61 0 00-2.27 6.48c0 5.47 3.1 8.86 8.32 8.86a12.09 12.09 0 004-.65 7.65 7.65 0 002.7-1.51 3.3 3.3 0 00-.62-1.91 8.39 8.39 0 01-4.75 1.29c-3.17 0-5.4-1.76-5.58-5.5l2.67-.18a57.31 57.31 0 008.46-1.16 7.11 7.11 0 00.43-2.26 5.75 5.75 0 00-1.84-4.32 7 7 0 00-5.19-1.8zm10.89 3.81a7.81 7.81 0 014.21-1.22c2.16 0 3.28 1 3.28 2.7a2.74 2.74 0 01-3 2.59 11.2 11.2 0 01-2.59-.29 2.79 2.79 0 000 2.56 11 11 0 012.55-.29c2.2 0 3.75 1.08 3.75 2.81a3 3 0 01-1.16 2.52 5.22 5.22 0 01-2.44.47 7.67 7.67 0 01-4.54-1.41 4 4 0 00-1.19 2.38 5.9 5.9 0 002.31 1.08 12 12 0 003.31.5 10.56 10.56 0 005.72-1.4 4.68 4.68 0 002.23-4.18c0-2.16-1.54-3.63-3.88-3.92v-.18a4.34 4.34 0 003.09-4.14c0-2.56-1.94-4.39-5.65-4.39a14.54 14.54 0 00-6.62 1.33 5.14 5.14 0 00.68 2.48m21.45-.68a9.69 9.69 0 012.16-.15 9.57 9.57 0 012.16.15v11.91h-6.94c1.54-1.47 2.59-5.83 2.62-11.91m-4.46 18.83v-4.29h11.74v4.29h3.42v-6.92h-2.27c-.11-1.15-.18-3.2-.18-6.12v-1.15q0-4.59.21-7.23h-12.2a21.72 21.72 0 01.25 3.78 25.19 25.19 0 01-1 7.27c-.64 2.3-1.44 3.45-2.34 3.45h-1v6.92zm25.34-19.44c3.06 0 4.5 3 4.5 7.16a7.4 7.4 0 01-1.47 5 4.75 4.75 0 01-2.34.72c-3 0-4.83-2.63-4.83-7.34a7.05 7.05 0 011.3-4.68 3.93 3.93 0 012.84-.9m.58-2.6a8.54 8.54 0 00-6.34 2.56 9.2 9.2 0 00-2.48 6.73c0 5.37 3.24 8.86 8.46 8.86a7.86 7.86 0 006-2.49 9.39 9.39 0 002.39-6.58c0-5.58-3-9.04-8-9.04zm10.66.66a26.6 26.6 0 01.25 4.28v1.73c0 3.78 1.76 5.65 5.33 5.65a9 9 0 004.78-1.51v2a21.27 21.27 0 01-.39 4.93h4.57c-.18-1.69-.25-4.28-.25-7.77v-1.59c0-3.31.07-5.9.25-7.77h-4.46a51.84 51.84 0 01.28 5.4v2.91a6.87 6.87 0 01-3.2.72c-2.16 0-3-1.08-3-3.67 0-1.48.1-3.24.28-5.36zm29.66 0c-.72 1.18-1.76 2.7-3.1 4.46s-2.19 2.66-2.59 2.66h-.6v-1.65a41.25 41.25 0 01.26-5.47h-4.43c.18 2.19.25 4.78.25 7.84v1.26c0 3.21-.07 5.91-.25 8h4.43a68 68 0 01-.26-6.87v-1.48h.76c.4 0 1 .83 1.73 2.23.47.87 1.37 2.38 2.19 3.67.29.44.83 1.16 1 1.44l.36.51a5 5 0 00.86.9 11 11 0 004.1-.58 22.41 22.41 0 01-1.66-2c-.68-.94-1.26-1.8-1.76-2.56l-1.84-2.88-1.26-2c.44-.5 2.56-3 6.34-7.48zm23.08 17.13c-.15-1.91-.22-4.35-.22-7.34v-2.41c0-2.78.07-5.26.22-7.38h-3.6c-.47.9-1.77 2.91-3.93 6s-3.45 5.08-3.92 6h-.22a47.33 47.33 0 00.25-5.51v-2.12a35.67 35.67 0 01.18-4.39h-4.35c.18 2 .25 4.5.25 7.34v1.6c0 3.64-.07 6.34-.25 8.17h3.63c.58-1 1.91-3.06 4-6.12s3.39-5.07 3.89-6h.15c-.11 1.44-.18 3.42-.18 6v1.69a28.52 28.52 0 01-.29 4.43z" fill="#ea533d"/><path d="M187.35 958h4.21v11.45h-6.33q2.13-2.37 2.12-11.45m-3.9 16.35v-3.39h10.49v3.39h1.76v-4.9h-1.91c-.07-.89-.12-2.66-.12-5.35v-1.61c0-2.4.05-4.41.15-6.05h-8.57a28.32 28.32 0 01.17 3c0 4.22-.91 10-3 10h-.77v4.9zm19.22-13.68c2.29 0 3.4 2 3.4 4.85a4.94 4.94 0 01-1.21 3.7 3.12 3.12 0 01-1.71.55c-2.21 0-3.6-1.83-3.6-5a4.91 4.91 0 011-3.44 2.83 2.83 0 012.07-.67m.39-1.44a5.21 5.21 0 00-4 1.71 6.29 6.29 0 00-1.56 4.44 6.17 6.17 0 001.42 4.22 5.37 5.37 0 007.72-.05 6.34 6.34 0 001.49-4.34c.03-3.64-1.82-5.97-5.02-5.97zm17.3 11.72c-.1-1.36-.14-3.19-.14-5.49v-.89c0-.72 0-2.35.14-4.92h-9.43c.12 1.78.17 3.41.17 4.9v1c0 1.61-.05 3.38-.17 5.37h2.31c-.1-1.41-.15-3.57-.15-6.52v-3.34a21 21 0 012.55-.1 22 22 0 012.6.1v3.26c0 3-.07 5.19-.19 6.6zm7.94-10.27c2.29 0 3.39 2 3.39 4.85a4.94 4.94 0 01-1.2 3.7 3.12 3.12 0 01-1.71.55c-2.21 0-3.61-1.83-3.61-5a4.87 4.87 0 011.06-3.44 2.82 2.82 0 012.07-.67m.39-1.44a5.21 5.21 0 00-4 1.71 7 7 0 00-.15 8.66 5.39 5.39 0 007.73-.05 6.39 6.39 0 001.49-4.34c-.02-3.64-1.87-5.97-5.07-5.97zm16.86 11.72c-.07-1.1-.12-2.92-.12-5.47v-.89c0-2.32.05-4 .12-4.94h-7.65A12.46 12.46 0 01238 962v.64c0 4.83-.81 6.84-2.52 6.58a3 3 0 000 1.92c3.08.46 4.28-2.45 4.28-8.33v-1.75c.28 0 .86-.05 1.75-.05s1.49 0 1.81.05v5a42.55 42.55 0 01-.2 4.89zm12.73 0c-.09-1.6-.14-3.36-.14-5.23v-.77c0-2.42.05-4.2.14-5.3H256a27.15 27.15 0 01.17 3.6v1a39.06 39.06 0 01-5.3 0v-.87a31.94 31.94 0 01.15-3.74h-2.31c.12 1.1.16 2.88.16 5.33v.69c0 2.14 0 3.92-.16 5.28H251c-.1-.88-.15-2.35-.15-4.34v-.94a39.06 39.06 0 015.3 0v.94a40.58 40.58 0 01-.17 4.34zm13.14 0c-.07-1.29-.12-2.88-.12-4.75v-1.61c0-1.75.05-3.4.12-4.94h-1.78c-.31.6-1.3 2-2.91 4.32s-2.55 3.67-2.86 4.2h-.13a36.75 36.75 0 00.15-3.94v-1.65a23.24 23.24 0 01.12-2.93h-2.29c.12 1.42.17 3.07.17 4.92v1c0 2.37 0 4.17-.17 5.37h1.86c.43-.74 1.42-2.23 3-4.41s2.47-3.58 2.79-4.13h.07c-.07.82-.1 2.23-.1 4.25V968a19.4 19.4 0 01-.17 3zm2.09-9.64a18.85 18.85 0 012.79-.15h1v2.69a66.63 66.63 0 01-.22 7.1h2.43c-.12-1.17-.19-3.52-.19-7v-2.76h1a16.38 16.38 0 012.77.15v-1.66h-9.51zm12.97 3.04a5 5 0 01.36-1.72 4.18 4.18 0 01.77-1.4 3.66 3.66 0 012-.55 2.64 2.64 0 011.85.7 2.27 2.27 0 01.75 1.8 1.24 1.24 0 01-.17.72 13.34 13.34 0 01-2.53.31c-1.37.1-2.38.14-3 .14m3.44-5a4.91 4.91 0 00-4 1.75 6.45 6.45 0 00-1.44 4.22c0 3.63 1.95 5.86 5.24 5.86a6.63 6.63 0 004.19-1.37 1.46 1.46 0 00-.38-1 5.24 5.24 0 01-3.13.87c-2.29 0-3.8-1.3-3.9-4.11l1.76-.14a35 35 0 005.79-.77 4.22 4.22 0 00.24-1.41 3.78 3.78 0 00-1.13-2.72 4.18 4.18 0 00-3.27-1.19zm16.1 11.6c-.07-1.1-.12-2.92-.12-5.47v-.89c0-2.32.05-4 .12-4.94h-7.7a12.46 12.46 0 01.19 2.38v.64c0 4.83-.82 6.84-2.53 6.58a3 3 0 00.05 1.92c3.08.46 4.28-2.45 4.28-8.33v-1.75c.29 0 .87-.05 1.76-.05s1.49 0 1.8.05v5a43.25 43.25 0 01-.19 4.89zm9.69-3.76a2.4 2.4 0 01-1 2.13 3.46 3.46 0 01-1.86.39 4.33 4.33 0 01-1.58-.2 27.75 27.75 0 010-4.65c2.79-.65 4.42.31 4.42 2.33m-6.59-7.54a37.69 37.69 0 01.17 4.61v.89c0 2.71 0 4.6-.15 5.68a18.1 18.1 0 003.35.27c3.46 0 5.22-1.54 5.22-3.91a3.47 3.47 0 00-1.73-3.27 6.52 6.52 0 00-4.69-.29v-1.27a15.94 15.94 0 01.14-2.71zm20.66 11.3c-.09-1.6-.14-3.36-.14-5.23v-.77c0-2.42 0-4.2.14-5.3h-2.28a27.15 27.15 0 01.17 3.6v1a39.06 39.06 0 01-5.3 0v-.87a31.94 31.94 0 01.15-3.74h-2.31c.12 1.1.17 2.88.17 5.33v.69c0 2.14 0 3.92-.17 5.28h2.31c-.1-.88-.15-2.35-.15-4.34v-.94a39.06 39.06 0 015.3 0v.94a40.58 40.58 0 01-.17 4.34zm13.33-5.42c0 2.09 0 3.89-.16 5.42h2.23c-.09-1-.14-2.88-.14-5.64v-1c0-2.23.05-3.77.14-4.63H343c.08 1.44.12 3 .12 4.73zm-3.7 1.66a2.62 2.62 0 01-.87 2.13 3.48 3.48 0 01-1.58.41 4.06 4.06 0 01-1.64-.22 30.05 30.05 0 010-4.65c2.48-.6 4.09.31 4.09 2.33zm-6.18-7.54a44.72 44.72 0 01.16 4.8v.94c0 2.61 0 4.44-.16 5.44a17.87 17.87 0 003.27.27c3.25 0 4.83-1.63 4.83-3.91a3.33 3.33 0 00-1.66-3.17 5.81 5.81 0 00-4.28-.39v-1.29a15.65 15.65 0 01.15-2.69zm18.4-5.23a2 2 0 00-1.44.67 3.05 3.05 0 003.27 2.57 3.3 3.3 0 003.47-2.76c-.15-.22-.46-.31-.92-.29a2.09 2.09 0 01-2.16 1.8 2.17 2.17 0 01-2.22-2m6.67 16.53c-.07-1.29-.12-2.88-.12-4.75v-1.61c0-1.75.05-3.4.12-4.94h-1.78c-.32.6-1.3 2-2.91 4.32s-2.55 3.67-2.87 4.2h-.12a36.75 36.75 0 00.15-3.94v-1.65a21.37 21.37 0 01.12-2.93h-2.29c.12 1.42.17 3.07.17 4.92v1c0 2.37-.05 4.17-.17 5.37h1.85c.44-.74 1.42-2.23 3-4.41s2.48-3.58 2.79-4.13h.08c-.08.82-.1 2.23-.1 4.25V968a19.4 19.4 0 01-.17 3zm11.33.01h.6a14.74 14.74 0 01-2.48 4 1.84 1.84 0 001.54 1.1c.8-1 1.83-3.45 3.16-7.25l.89-2.56 1-3.15c.55-1.61.94-2.76 1.2-3.43h-1.94q-.4 1.88-1.28 4.94a41.57 41.57 0 01-1.4 4.44h-.12q-2.73-7.34-3.2-9.38H365zm14.61-11.3c-.51.67-1.16 1.54-2.12 2.71s-1.81 2-2.07 2h-.51v-1.1a33.26 33.26 0 01.15-3.65h-2.31c.12 1.46.17 3.17.17 5.14v.84c0 2.13-.05 3.91-.17 5.32h2.31c-.1-.93-.15-2.47-.15-4.58v-1h.5c.26 0 .67.48 1.2 1.39.36.56 1 1.59 1.66 2.45l.32.41a9.62 9.62 0 001.39 1.61 5.15 5.15 0 002.17-.34 32.42 32.42 0 01-3.54-4.46l-1.2-1.75c.38-.38 1.18-1.22 2.36-2.54s1.95-2.14 2.26-2.45zm6.8 2.93a3.32 3.32 0 011.87-1.54 3.08 3.08 0 01.92-.09c1.75.07 2.79 1.48 2.79 4.1a5.36 5.36 0 01-1.4 4.13 4.13 4.13 0 01-2.52.69 4.3 4.3 0 01-1.66-.28zm-2.19-2.81c.12 1.37.19 3.7.19 7V968c0 4-.07 6.53-.19 7.63h2.33c-.1-.94-.14-2.23-.14-3.91V971a7.27 7.27 0 001.54.19 6.3 6.3 0 004.4-1.71 6.17 6.17 0 001.83-4.75c0-3-1.33-4.8-3.51-5.18a4.13 4.13 0 00-1.66.29 3.47 3.47 0 00-2.68 1.51v-1.87zm14.11 7.92a2.2 2.2 0 01.57-1.51 5.17 5.17 0 012.92-.58 7.87 7.87 0 011.37.19v2.36a3.45 3.45 0 01-2.87 1.58 1.93 1.93 0 01-2-2m6.9-4c0-3.15-1.18-4.35-3.65-4.35a10.92 10.92 0 00-4.72 1.25 1.52 1.52 0 00.43 1.2 7.28 7.28 0 013.44-1c1.93 0 2.46 1 2.43 3.58-4.91.07-6.93 1.08-6.93 3.74a3 3 0 003.16 3 4.75 4.75 0 003.82-1.9h.07a14.76 14.76 0 00.17 1.88l1.95-.2a35.68 35.68 0 01-.17-4.82zm17 7.22c-.1-1-.14-2.76-.14-5.37v-1c0-1.85 0-3.51.14-5h-2.17c.1 1.1.15 2.52.15 4.22v5.64l-1.93.08a15.9 15.9 0 01-1.92-.08v-5.71a39.38 39.38 0 01.17-4.15h-2.19c.07 1 .12 2.42.12 4.22v5.64l-1.93.08a15.74 15.74 0 01-1.9-.08v-5.68c0-1.68.05-3.08.15-4.18h-2.19a48.24 48.24 0 01.17 4.94v1c0 2 0 3.82-.17 5.35zm4.86-3.26a2.17 2.17 0 01.58-1.51 5.11 5.11 0 012.91-.58 7.87 7.87 0 011.37.19v2.36a3.43 3.43 0 01-2.86 1.58 1.93 1.93 0 01-2-2m6.91-4c0-3.15-1.18-4.35-3.66-4.35a11 11 0 00-4.72 1.25 1.52 1.52 0 00.44 1.2 7.24 7.24 0 013.44-1c1.92 0 2.45 1 2.43 3.58-4.91.07-6.93 1.08-6.93 3.74a3 3 0 003.15 3 4.75 4.75 0 003.83-1.9h.07a13 13 0 00.17 1.88l1.95-.2a33.94 33.94 0 01-.17-4.82zm1.99-2.42a18.85 18.85 0 012.79-.15h1v2.69a66.63 66.63 0 01-.22 7.1h2.43c-.12-1.17-.19-3.52-.19-7v-2.76h1a16.38 16.38 0 012.77.15v-1.66h-9.51zm12.97 3.04a5 5 0 01.36-1.72 4.18 4.18 0 01.77-1.4 3.66 3.66 0 012-.55 2.64 2.64 0 011.85.7 2.27 2.27 0 01.75 1.8 1.24 1.24 0 01-.17.72 13.34 13.34 0 01-2.53.31c-1.37.1-2.38.14-3 .14m3.44-5a4.91 4.91 0 00-4 1.75 6.45 6.45 0 00-1.44 4.22c0 3.63 1.95 5.86 5.24 5.86a6.63 6.63 0 004.19-1.37 1.46 1.46 0 00-.38-1 5.24 5.24 0 01-3.13.87c-2.29 0-3.8-1.3-3.9-4.11l1.76-.14a35 35 0 005.79-.77 4.24 4.24 0 00.25-1.41 3.79 3.79 0 00-1.14-2.72 4.18 4.18 0 00-3.25-1.19zm16.05 11.6c-.07-1.1-.12-2.92-.12-5.47v-.89c0-2.32.05-4 .12-4.94h-7.65a12.46 12.46 0 01.19 2.38v.64c0 4.83-.82 6.84-2.53 6.58a3 3 0 00.05 1.92c3.08.46 4.28-2.45 4.28-8.33v-1.75c.29 0 .87-.05 1.76-.05s1.49 0 1.8.05v5a43.25 43.25 0 01-.19 4.89zm9.74-3.76a2.4 2.4 0 01-1 2.13 3.46 3.46 0 01-1.86.39 4.33 4.33 0 01-1.58-.2 27.75 27.75 0 010-4.65c2.79-.65 4.42.31 4.42 2.33m-6.59-7.54a37.69 37.69 0 01.17 4.61v.89c0 2.71-.05 4.6-.15 5.68a18.1 18.1 0 003.35.27c3.46 0 5.22-1.54 5.22-3.91a3.47 3.47 0 00-1.73-3.27 6.52 6.52 0 00-4.69-.29v-1.27a15.94 15.94 0 01.14-2.71zm15.92-.31a5.26 5.26 0 00-3.89 1.65 6 6 0 00-1.59 4.3 6.26 6.26 0 001.44 4.32 5 5 0 003.85 1.61 6.42 6.42 0 003.64-1.08 1.53 1.53 0 00-.29-1 5.33 5.33 0 01-2.41.62c-2.5 0-4.11-2-4.11-5a4.45 4.45 0 011.2-3.31 2.76 2.76 0 011.88-.57 4.2 4.2 0 012.79.93 2.56 2.56 0 00.84-1.46 4.77 4.77 0 00-3.35-1m12.78.3c-.5.67-1.15 1.54-2.12 2.71s-1.8 2-2.07 2h-.5v-1.1c0-1.59.05-2.81.14-3.65H498c.12 1.46.17 3.17.17 5.14v.84c0 2.13-.05 3.91-.17 5.32h2.31c-.09-.93-.14-2.47-.14-4.58v-1h.5c.27 0 .68.48 1.21 1.39.36.56 1 1.59 1.66 2.45l.31.41a10 10 0 001.4 1.61 5.07 5.07 0 002.16-.34 33.22 33.22 0 01-3.54-4.46l-1.25-1.78c.39-.38 1.18-1.22 2.36-2.54s1.95-2.14 2.26-2.45zm14.34 11.3c-.07-1.29-.12-2.88-.12-4.75v-1.61c0-1.75 0-3.4.12-4.94h-1.78c-.31.6-1.3 2-2.91 4.32s-2.55 3.67-2.86 4.2h-.12c.09-.84.14-2.14.14-3.94v-1.65a23.24 23.24 0 01.12-2.93h-2.28c.12 1.42.16 3.07.16 4.92v1c0 2.37 0 4.17-.16 5.37h1.85c.43-.74 1.42-2.23 3-4.41s2.48-3.58 2.79-4.13h.07c-.07.82-.1 2.23-.1 4.25V968a19.61 19.61 0 01-.16 3zm6.47-16.53a2 2 0 00-1.44.67 3.06 3.06 0 003.27 2.57 3.3 3.3 0 003.47-2.76c-.15-.22-.46-.31-.92-.29a2.09 2.09 0 01-2.16 1.8 2.17 2.17 0 01-2.22-2m6.67 16.53c-.07-1.29-.12-2.88-.12-4.75v-1.61c0-1.75 0-3.4.12-4.94h-1.78c-.31.6-1.3 2-2.91 4.32s-2.55 3.67-2.87 4.2h-.12a36.75 36.75 0 00.15-3.94v-1.65a23.24 23.24 0 01.12-2.93h-2.29c.12 1.42.17 3.07.17 4.92v1c0 2.37-.05 4.17-.17 5.37h1.86c.43-.74 1.42-2.23 3-4.41s2.47-3.58 2.79-4.13h.07c-.07.82-.1 2.23-.1 4.25V968a19.4 19.4 0 01-.17 3zm10.88.28a5.17 5.17 0 004-1.71 6.42 6.42 0 001.54-4.44 5.76 5.76 0 00-1.45-4.2 4.76 4.76 0 00-3.53-1.48 8.44 8.44 0 00-3.88.88 1.66 1.66 0 00.41 1.2 6.12 6.12 0 012.77-.64 3.21 3.21 0 012.48 1.08 3.63 3.63 0 011 2.61H545a22.93 22.93 0 01-3.44-.17 1.66 1.66 0 000 1.56 21.29 21.29 0 013.42-.16h1.83a4.27 4.27 0 01-1.37 3.48 3.36 3.36 0 01-2 .55 4.35 4.35 0 01-3-.94 1.79 1.79 0 00-.79 1.2c.67.79 1.87 1.18 3.61 1.18m17.38-.27c-.07-1.1-.12-2.92-.12-5.47v-.89c0-2.32.05-4 .12-4.94H553a12.46 12.46 0 01.19 2.38v.64c0 4.83-.81 6.84-2.52 6.58a3 3 0 00.05 1.92c3.08.46 4.28-2.45 4.28-8.33v-1.75c.29 0 .87-.05 1.76-.05s1.49 0 1.81.05v5a42.55 42.55 0 01-.2 4.89zm4.55-6.6a5 5 0 01.36-1.72 4.18 4.18 0 01.77-1.4 3.65 3.65 0 012-.55 2.65 2.65 0 011.86.7 2.3 2.3 0 01.74 1.8 1.24 1.24 0 01-.17.72 13 13 0 01-2.52.31c-1.37.1-2.38.14-3 .14m3.44-5a4.91 4.91 0 00-4 1.75 6.45 6.45 0 00-1.44 4.22c0 3.63 1.94 5.86 5.24 5.86a6.65 6.65 0 004.19-1.37 1.43 1.43 0 00-.39-1 5.2 5.2 0 01-3.13.87c-2.28 0-3.8-1.3-3.89-4.11l1.75-.14a35 35 0 005.8-.77 4.22 4.22 0 00.24-1.41 3.78 3.78 0 00-1.13-2.72 4.2 4.2 0 00-3.28-1.19zm8.53 11.6c-.07-2.64-.05-5.56.09-8.78h.12c.17.48.51 1.25 1 2.33l.89 1.87 1.11 2.47h1.13l.94-1.89c.89-1.9 1.61-3.46 2.12-4.73h.14v4c0 2.3.05 3.89 0 4.68H587c-.26-2-.43-4.87-.55-8.64l-.05-2.66h-1.95c-.34.89-1.35 3.07-3 6.58h-.1c-.72-1.37-1.78-3.58-3.15-6.58h-2l-.19 4c-.19 3.34-.38 5.76-.55 7.27zm14.34-6.6a5 5 0 01.36-1.72 4 4 0 01.77-1.4 3.65 3.65 0 012-.55 2.65 2.65 0 011.86.7 2.3 2.3 0 01.74 1.8 1.24 1.24 0 01-.17.72 13 13 0 01-2.52.31c-1.38.1-2.39.14-3 .14m3.44-5a4.91 4.91 0 00-4 1.75 6.4 6.4 0 00-1.45 4.22c0 3.63 2 5.86 5.25 5.86a6.65 6.65 0 004.19-1.37 1.47 1.47 0 00-.39-1 5.2 5.2 0 01-3.13.87c-2.28 0-3.8-1.3-3.9-4.11l1.76-.14a35 35 0 005.8-.77 4.22 4.22 0 00.24-1.41 3.78 3.78 0 00-1.13-2.72 4.21 4.21 0 00-3.26-1.19zm16.56 11.6c-.09-1.6-.14-3.36-.14-5.23v-.77c0-2.42 0-4.2.14-5.3h-2.28a27.51 27.51 0 01.16 3.6v1a38.91 38.91 0 01-5.29 0v-.87a31.94 31.94 0 01.15-3.74H602c.12 1.1.16 2.88.16 5.33v.69c0 2.14 0 3.92-.16 5.28h2.31c-.1-.88-.15-2.35-.15-4.34v-.94a38.91 38.91 0 015.29 0v.94a41.08 41.08 0 01-.16 4.34zm2.1-9.64a18.76 18.76 0 012.79-.15h1v2.69a66.63 66.63 0 01-.22 7.1h2.43c-.12-1.17-.19-3.52-.19-7v-2.76h1a16.38 16.38 0 012.77.15v-1.66h-9.5zm18.4 4.39a13.76 13.76 0 012-.1c1.54 0 2.74.58 2.74 2a2.19 2.19 0 01-.94 2 5.54 5.54 0 01-2.16.28 4.75 4.75 0 01-1.62-.19zm0-4.85a6.45 6.45 0 011.69-.19c1.73 0 2.6.62 2.6 1.87a2 2 0 01-1.76 1.9 12.17 12.17 0 01-2.53 0zm1.83-1.49a30.11 30.11 0 00-4 .29c.12 1.32.17 2.93.17 4.8v.94c0 2.23-.05 4.1-.17 5.56a19.07 19.07 0 003.51.27c3.3 0 5.41-1.27 5.41-3.55a2.6 2.6 0 00-2.52-2.76v-.12a2.81 2.81 0 002.07-2.62q.01-2.8-4.47-2.81zm14.7 6.34a13.76 13.76 0 012-.1c1.54 0 2.74.58 2.74 2a2.19 2.19 0 01-.94 2 5.54 5.54 0 01-2.16.28 4.75 4.75 0 01-1.62-.19zm0-4.85a6.45 6.45 0 011.69-.19c1.73 0 2.6.62 2.6 1.87a2 2 0 01-1.76 1.9 12.17 12.17 0 01-2.53 0zm1.83-1.49a30.11 30.11 0 00-4 .29c.12 1.32.17 2.93.17 4.8v.94c0 2.23 0 4.1-.17 5.56a19.07 19.07 0 003.51.27c3.3 0 5.41-1.27 5.41-3.55a2.6 2.6 0 00-2.52-2.76v-.12a2.81 2.81 0 002.07-2.62q.01-2.8-4.47-2.81zM668 970.94c-.08-1.29-.12-2.88-.12-4.75v-1.61c0-1.75 0-3.4.12-4.94h-1.78c-.32.6-1.3 2-2.91 4.32s-2.56 3.67-2.87 4.2h-.12a36.75 36.75 0 00.15-3.94v-1.65a21.37 21.37 0 01.12-2.93h-2.29c.12 1.42.17 3.07.17 4.92v1c0 2.37-.05 4.17-.17 5.37h1.85c.44-.74 1.42-2.23 3-4.41s2.48-3.58 2.79-4.13h.06c-.08.82-.1 2.23-.1 4.25V968a19.4 19.4 0 01-.17 3zm6.43-9.86a8.3 8.3 0 011.66-.1 8.67 8.67 0 011.69.1v8.42h-5.11c1-1 1.74-4.17 1.76-8.42m-3 12.72v-2.86h8.26v2.86h1.73v-4.3h-1.52c-.07-.76-.12-2.23-.12-4.39v-.77c0-1.94.05-3.52.15-4.7h-7.39a18 18 0 01.14 2.4 18.52 18.52 0 01-.67 5c-.43 1.63-1 2.44-1.56 2.44h-.75v4.3zm13.64-9.46a5 5 0 01.36-1.72 4 4 0 01.77-1.4 3.65 3.65 0 012-.55 2.61 2.61 0 011.85.7 2.27 2.27 0 01.75 1.8 1.24 1.24 0 01-.17.72 13.07 13.07 0 01-2.53.31c-1.37.1-2.38.14-3 .14m3.44-5a4.91 4.91 0 00-4 1.75 6.4 6.4 0 00-1.54 4.21c0 3.63 2 5.86 5.25 5.86a6.6 6.6 0 004.18-1.37 1.46 1.46 0 00-.38-1 5.2 5.2 0 01-3.13.87c-2.28 0-3.8-1.3-3.9-4.11l1.76-.14a35 35 0 005.8-.77 4.22 4.22 0 00.24-1.41 3.82 3.82 0 00-1.13-2.72 4.21 4.21 0 00-3.18-1.18zM183.3 989.57a5.67 5.67 0 012.84-.75c1.52 0 2.34.75 2.34 1.92a2.08 2.08 0 01-2.29 1.92 5.28 5.28 0 01-1.54-.16 1.57 1.57 0 000 1.46 6 6 0 011.66-.17c1.54 0 2.67.75 2.67 2a2 2 0 01-.91 1.77 3.91 3.91 0 01-1.81.36 5.3 5.3 0 01-3-.88 2.21 2.21 0 00-.65 1.32 4.1 4.1 0 001.39.64 7.18 7.18 0 002.12.32c2.91 0 5-1.25 5-3.68a2.6 2.6 0 00-2.53-2.54v-.1a2.92 2.92 0 002-2.74c0-1.63-1.26-2.85-3.64-2.85a8.47 8.47 0 00-4 .86 2.85 2.85 0 00.36 1.3m12.91 4.2a13.76 13.76 0 012-.1c1.54 0 2.74.58 2.74 2a2.19 2.19 0 01-.94 2 5.5 5.5 0 01-2.16.28 4.75 4.75 0 01-1.62-.19zm0-4.85a6.45 6.45 0 011.69-.19c1.73 0 2.6.62 2.6 1.87a2 2 0 01-1.76 1.9 12.17 12.17 0 01-2.53 0zm1.83-1.49a30.11 30.11 0 00-4 .29c.12 1.32.17 2.93.17 4.8v.94c0 2.23 0 4.1-.17 5.56a19.07 19.07 0 003.51.27c3.3 0 5.42-1.27 5.42-3.55a2.61 2.61 0 00-2.53-2.76v-.12a2.81 2.81 0 002.07-2.62q.01-2.8-4.47-2.81zm14.83-3.67a1.09 1.09 0 00-1.09 1.06 1.07 1.07 0 001.09 1 1 1 0 100-2.09m-4.6 0a1 1 0 100 2.09 1 1 0 100-2.09zm-.79 8.66a5 5 0 01.36-1.72 4 4 0 01.77-1.4 3.6 3.6 0 012-.55 2.61 2.61 0 011.85.7 2.27 2.27 0 01.75 1.8 1.24 1.24 0 01-.17.72 13.07 13.07 0 01-2.53.31c-1.4.13-2.41.17-3.03.17zm3.44-5a4.93 4.93 0 00-4.05 1.75 6.45 6.45 0 00-1.44 4.22c0 3.63 1.95 5.86 5.25 5.86a6.6 6.6 0 004.18-1.37 1.46 1.46 0 00-.38-1 5.24 5.24 0 01-3.13.87c-2.29 0-3.8-1.3-3.9-4.11l1.76-.14a35.09 35.09 0 005.8-.77 4.22 4.22 0 00.24-1.41 3.82 3.82 0 00-1.13-2.72 4.21 4.21 0 00-3.2-1.16zm7.07 2.18a5.64 5.64 0 012.84-.75c1.51 0 2.33.75 2.33 1.92a2.08 2.08 0 01-2.29 1.92 5.33 5.33 0 01-1.54-.16 1.57 1.57 0 000 1.46 6 6 0 011.66-.17c1.54 0 2.68.75 2.68 2a2 2 0 01-.92 1.77 3.89 3.89 0 01-1.8.36 5.31 5.31 0 01-3.06-.88 2.27 2.27 0 00-.65 1.32 4.1 4.1 0 001.44.64 7.23 7.23 0 002.12.32c2.91 0 5-1.25 5-3.68a2.6 2.6 0 00-2.52-2.54v-.1a2.91 2.91 0 002-2.74c0-1.63-1.25-2.85-3.63-2.85a8.41 8.41 0 00-4 .86 2.62 2.62 0 00.36 1.3m13.7-.41a8.16 8.16 0 011.66-.1 8.48 8.48 0 011.68.1v8.42H230c1-1.05 1.73-4.17 1.76-8.42m-3 12.72V999H237v2.86h1.73v-4.3h-1.51c-.07-.76-.12-2.23-.12-4.39v-.77c0-1.94.05-3.52.14-4.7h-7.38a19.89 19.89 0 01.14 2.4 18.92 18.92 0 01-.67 5c-.44 1.63-1 2.44-1.57 2.44H227v4.3zm16.72-13.13c2.29 0 3.39 2 3.39 4.85a5 5 0 01-1.2 3.7 3.12 3.12 0 01-1.71.55c-2.21 0-3.61-1.83-3.61-5a4.87 4.87 0 011.06-3.44 2.82 2.82 0 012.07-.67m.38-1.44a5.21 5.21 0 00-4 1.71 6.25 6.25 0 00-1.57 4.44 6.17 6.17 0 001.42 4.22 5.39 5.39 0 007.73 0 6.39 6.39 0 001.49-4.34c-.01-3.69-1.87-6.02-5.07-6.02zm7.14.42a21.45 21.45 0 01.14 2.88v1.06c0 2.52 1.25 3.52 3.47 3.52a6.67 6.67 0 003.17-.86v1.32a17.29 17.29 0 01-.21 3.38h2.38c-.12-1.12-.17-2.85-.17-5.18v-1.06c0-2.13.05-3.81.17-5.06h-2.35a29.87 29.87 0 01.17 3.48v2a5 5 0 01-2.43.53c-1.61 0-2.21-.77-2.21-2.62 0-1 .05-2.21.17-3.43zm13.75 4.7a5 5 0 01.36-1.72 4.18 4.18 0 01.77-1.4 3.65 3.65 0 012-.55 2.65 2.65 0 011.86.7 2.3 2.3 0 01.74 1.8 1.24 1.24 0 01-.17.72 13 13 0 01-2.52.31c-1.37.1-2.38.14-3 .14m3.44-5a4.91 4.91 0 00-4 1.75 6.45 6.45 0 00-1.45 4.22c0 3.63 1.95 5.86 5.25 5.86a6.65 6.65 0 004.19-1.37 1.43 1.43 0 00-.39-1 5.2 5.2 0 01-3.13.87c-2.28 0-3.8-1.3-3.89-4.11l1.75-.14a35 35 0 005.8-.77 4.22 4.22 0 00.24-1.41 3.78 3.78 0 00-1.13-2.72 4.2 4.2 0 00-3.28-1.19zm13.84.3c-.5.67-1.15 1.54-2.11 2.71s-1.81 2-2.07 2h-.51v-1.1a33.26 33.26 0 01.15-3.65h-2.31c.12 1.46.17 3.17.17 5.14v.84c0 2.13-.05 3.91-.17 5.32h2.31c-.1-.93-.15-2.47-.15-4.58v-1h.51c.26 0 .67.48 1.2 1.39.36.56 1 1.59 1.66 2.45l.31.41a10 10 0 001.4 1.61 5.15 5.15 0 002.17-.34 32.42 32.42 0 01-3.54-4.46l-1.25-1.78c.38-.38 1.18-1.22 2.36-2.54s1.94-2.14 2.26-2.45zm11.48 6.05a13.76 13.76 0 012-.1c1.54 0 2.74.58 2.74 2a2.19 2.19 0 01-.94 2 5.56 5.56 0 01-2.17.28 4.72 4.72 0 01-1.61-.19zm0-4.85a6.45 6.45 0 011.69-.19c1.73 0 2.6.62 2.6 1.87a2 2 0 01-1.76 1.9 12.17 12.17 0 01-2.53 0zm1.83-1.49a30.11 30.11 0 00-4 .29c.12 1.32.17 2.93.17 4.8v.94c0 2.23-.05 4.1-.17 5.56a19.07 19.07 0 003.51.27c3.3 0 5.41-1.27 5.41-3.55a2.6 2.6 0 00-2.52-2.76v-.12a2.81 2.81 0 002.07-2.62c.01-1.87-1.49-2.81-4.47-2.81zm7.87 2.14a5.64 5.64 0 012.84-.75c1.51 0 2.33.75 2.33 1.92a2.07 2.07 0 01-2.28 1.92 5.28 5.28 0 01-1.54-.16 1.57 1.57 0 000 1.46 5.93 5.93 0 011.66-.17c1.54 0 2.67.75 2.67 2a2 2 0 01-.92 1.77 3.84 3.84 0 01-1.8.36 5.31 5.31 0 01-3.06-.88 2.27 2.27 0 00-.65 1.32 4.17 4.17 0 001.5.64 7.16 7.16 0 002.11.32c2.92 0 5-1.25 5-3.68a2.6 2.6 0 00-2.53-2.54v-.1a2.91 2.91 0 002-2.74c0-1.63-1.25-2.85-3.63-2.85a8.41 8.41 0 00-4 .86 2.85 2.85 0 00.36 1.3m17.07 3.55a5.27 5.27 0 01-1 .1c-2.16 0-3.24-.75-3.24-2.26a2.25 2.25 0 01.81-1.7 3.65 3.65 0 012-.39 6.76 6.76 0 011.47.12zm2.14 5.9c-.12-1.53-.17-3.24-.17-5.08v-1.13a48.92 48.92 0 01.17-5 20.52 20.52 0 00-3.56-.29 6.29 6.29 0 00-3.46.89 2.9 2.9 0 00-1.4 2.62 3 3 0 002.62 2.88c-.17.24-.48.74-1 1.54s-.92 1.46-1.33 2.06-.74 1.08-1 1.42a5.25 5.25 0 002 .28 4.46 4.46 0 001.14-1.51c.36-.57.93-1.61 1.2-2.09.14-.24.29-.48.46-.72.36-.5.57-.72.77-.72h1.39V999zm2.07-9.64a18.76 18.76 0 012.79-.15h1v2.69a69.62 69.62 0 01-.22 7.1h2.43c-.12-1.17-.19-3.52-.19-7v-2.76h1a16.38 16.38 0 012.77.15v-1.66h-9.51zm21.47 4.22c0 2.09-.05 3.89-.17 5.42h2.23c-.09-1-.14-2.88-.14-5.64v-1c0-2.23 0-3.77.14-4.63h-2.18c.07 1.44.12 3 .12 4.73zm-3.71 1.66a2.62 2.62 0 01-.87 2.13 3.48 3.48 0 01-1.58.41 4.06 4.06 0 01-1.64-.22 30.05 30.05 0 010-4.65c2.48-.6 4.09.31 4.09 2.33zm-6.18-7.54a44.72 44.72 0 01.16 4.8v.94c0 2.61 0 4.44-.16 5.44a17.87 17.87 0 003.27.27c3.25 0 4.83-1.63 4.83-3.91a3.33 3.33 0 00-1.66-3.17 5.81 5.81 0 00-4.28-.39v-1.29a15.65 15.65 0 01.15-2.69zm18.4-5.23a2 2 0 00-1.44.67 3.05 3.05 0 003.27 2.57 3.3 3.3 0 003.47-2.76c-.15-.22-.46-.31-.92-.29a2.09 2.09 0 01-2.16 1.8 2.17 2.17 0 01-2.22-2m6.67 16.52c-.07-1.29-.12-2.88-.12-4.75v-1.61c0-1.75.05-3.4.12-4.94h-1.78c-.31.6-1.3 2-2.91 4.32s-2.55 3.67-2.87 4.2h-.12a36.75 36.75 0 00.15-3.94v-1.65a23.24 23.24 0 01.12-2.93h-2.29c.12 1.42.17 3.07.17 4.92v1c0 2.37 0 4.17-.17 5.37h1.85c.44-.74 1.42-2.23 3-4.41s2.48-3.58 2.8-4.13h.07c-.07.82-.1 2.23-.1 4.25v1.34A19.4 19.4 0 01361 999zm17.76 0c-.07-1.29-.12-2.88-.12-4.75v-1.61c0-1.75.05-3.4.12-4.94h-1.78c-.31.6-1.3 2-2.91 4.32s-2.55 3.67-2.86 4.2h-.12c.09-.84.14-2.14.14-3.94v-1.65a23.24 23.24 0 01.12-2.93h-2.28c.12 1.42.17 3.07.17 4.92v1c0 2.37 0 4.17-.17 5.37h1.85c.43-.74 1.42-2.23 3-4.41s2.48-3.58 2.79-4.13h.05c-.07.82-.09 2.23-.09 4.25v1.34a19.4 19.4 0 01-.17 2.95zm3.49-9.43a5.63 5.63 0 012.83-.75c1.52 0 2.34.75 2.34 1.92a2.08 2.08 0 01-2.29 1.92 5.28 5.28 0 01-1.54-.16 1.57 1.57 0 000 1.46 6 6 0 011.66-.17c1.54 0 2.67.75 2.67 2a2 2 0 01-.91 1.77 3.91 3.91 0 01-1.81.36 5.3 5.3 0 01-3.05-.88 2.27 2.27 0 00-.65 1.32 4.1 4.1 0 001.44.64 7.18 7.18 0 002.12.32c2.91 0 5-1.25 5-3.68a2.6 2.6 0 00-2.53-2.54v-.1a2.91 2.91 0 002-2.74c0-1.63-1.25-2.85-3.64-2.85a8.47 8.47 0 00-4 .86 2.72 2.72 0 00.37 1.3m17.77 9.43c-.12-1.17-.2-3.45-.2-6.81v-3h1.54a27.56 27.56 0 013.32.15v-1.66h-7c.12 1.27.17 2.71.17 4.32v1.08c0 2.38-.05 4.32-.17 5.88zm11.21-10.25c2.29 0 3.39 2 3.39 4.85a5 5 0 01-1.2 3.7 3.12 3.12 0 01-1.71.55c-2.21 0-3.61-1.83-3.61-5a4.87 4.87 0 011.06-3.44 2.82 2.82 0 012.07-.67m.38-1.44a5.21 5.21 0 00-4 1.71 6.25 6.25 0 00-1.57 4.44 6.17 6.17 0 001.42 4.22 5.39 5.39 0 007.73 0 6.39 6.39 0 001.49-4.34c-.01-3.69-1.87-6.02-5.07-6.02zm17.4 11.7c-.09-1.6-.14-3.36-.14-5.23V993c0-2.42.05-4.2.14-5.3H429a27.51 27.51 0 01.16 3.6v1a38.91 38.91 0 01-5.29 0v-.87a35.1 35.1 0 01.14-3.74h-2.31a52.88 52.88 0 01.17 5.33v.69c0 2.14 0 3.92-.17 5.28h2.3c-.09-.88-.14-2.35-.14-4.34v-.94a38.91 38.91 0 015.29 0v.94A41.08 41.08 0 01429 999zm2.74-11.28a19.52 19.52 0 01.15 2.88v1.06c0 2.52 1.25 3.52 3.46 3.52a6.67 6.67 0 003.18-.86v1.32a16.27 16.27 0 01-.22 3.38H443c-.12-1.12-.17-2.85-.17-5.18v-1.06c0-2.13 0-3.81.17-5.06h-2.34a29.87 29.87 0 01.17 3.48v2a5 5 0 01-2.43.53c-1.61 0-2.21-.77-2.21-2.62 0-1 0-2.21.16-3.43zm13.79 8.04a2.17 2.17 0 01.58-1.51 5.11 5.11 0 012.91-.58 7.87 7.87 0 011.37.19v2.36a3.42 3.42 0 01-2.86 1.58 1.93 1.93 0 01-2-2m6.91-4c0-3.15-1.18-4.35-3.66-4.35a11 11 0 00-4.72 1.25 1.52 1.52 0 00.44 1.2 7.24 7.24 0 013.44-1c1.92 0 2.45 1 2.43 3.58-4.91.07-6.93 1.08-6.93 3.74a3 3 0 003.15 3 4.75 4.75 0 003.83-1.9h.07a14.76 14.76 0 00.17 1.88l1.95-.2a35.68 35.68 0 01-.17-4.82zm5.51-1.15a3.32 3.32 0 011.87-1.54 3.08 3.08 0 01.92-.11c1.76.07 2.79 1.48 2.79 4.1a5.36 5.36 0 01-1.4 4.13 4.13 4.13 0 01-2.52.69 4.34 4.34 0 01-1.66-.28zm-2.21-2.81c.12 1.37.19 3.7.19 7v1.18c0 4-.07 6.53-.19 7.63h2.33c-.09-.94-.14-2.23-.14-3.91v-.67a7.27 7.27 0 001.54.19 6.28 6.28 0 004.4-1.71 6.17 6.17 0 001.83-4.75c0-3-1.32-4.8-3.51-5.18a4.13 4.13 0 00-1.66.29 3.43 3.43 0 00-2.67 1.51v-1.87zM480.28 999c-.1-1.6-.15-3.36-.15-5.23V993c0-2.42.05-4.2.15-5.3H478a27.15 27.15 0 01.17 3.6v1a39.06 39.06 0 01-5.3 0v-.87a31.94 31.94 0 01.15-3.74h-2.32c.12 1.1.17 2.88.17 5.33v.69c0 2.14-.05 3.92-.17 5.28h2.3c-.1-.88-.15-2.35-.15-4.34v-.94a39.06 39.06 0 015.3 0v.94A40.58 40.58 0 01478 999zm7.96-10.25c2.29 0 3.39 2 3.39 4.85a5 5 0 01-1.2 3.7 3.12 3.12 0 01-1.71.55c-2.21 0-3.61-1.83-3.61-5a4.87 4.87 0 011.06-3.44 2.82 2.82 0 012.07-.67m.39-1.44a5.21 5.21 0 00-4 1.71 6.25 6.25 0 00-1.57 4.44 6.17 6.17 0 001.42 4.22 5.39 5.39 0 007.73 0 6.39 6.39 0 001.49-4.34c-.02-3.69-1.87-6.02-5.07-6.02zm10.85-4.81a2.07 2.07 0 00-1.45.67 3.06 3.06 0 003.28 2.57 3.29 3.29 0 003.46-2.76c-.14-.22-.46-.31-.91-.29a2.11 2.11 0 01-2.17 1.8 2.16 2.16 0 01-2.21-2m6.66 16.52c-.07-1.29-.12-2.88-.12-4.75v-1.61c0-1.75.05-3.4.12-4.94h-1.78c-.31.6-1.3 2-2.91 4.32s-2.55 3.67-2.86 4.2h-.12c.09-.84.14-2.14.14-3.94v-1.65a23.24 23.24 0 01.12-2.93h-2.28c.12 1.42.16 3.07.16 4.92v1c0 2.37 0 4.17-.16 5.37h1.85c.43-.74 1.42-2.23 3-4.41s2.48-3.58 2.79-4.13h.07c-.07.82-.1 2.23-.1 4.25v1.34a19.61 19.61 0 01-.16 2.95zm12.63-10.25c2.29 0 3.4 2 3.4 4.85a4.94 4.94 0 01-1.21 3.7 3.11 3.11 0 01-1.7.55c-2.22 0-3.61-1.83-3.61-5a4.87 4.87 0 011.06-3.44 2.79 2.79 0 012.06-.67m.39-1.44a5.23 5.23 0 00-4 1.71 6.29 6.29 0 00-1.56 4.44 6.17 6.17 0 001.42 4.22 5.37 5.37 0 007.72 0 6.34 6.34 0 001.49-4.34c-.02-3.69-1.87-6.02-5.07-6.02zm9.99 3.35a3.32 3.32 0 011.87-1.54 3.08 3.08 0 01.92-.09c1.75.07 2.79 1.48 2.79 4.1a5.36 5.36 0 01-1.4 4.13 4.13 4.13 0 01-2.52.69 4.3 4.3 0 01-1.66-.28zm-2.15-2.81c.12 1.37.19 3.7.19 7v1.18c0 4-.07 6.53-.19 7.63h2.33c-.1-.94-.14-2.23-.14-3.91v-.67a7.19 7.19 0 001.54.19 6.3 6.3 0 004.4-1.71 6.17 6.17 0 001.83-4.75c0-3-1.33-4.8-3.52-5.18a4.19 4.19 0 00-1.66.29 3.46 3.46 0 00-2.67 1.51v-1.87zM549.21 999c-.09-1.6-.14-3.36-.14-5.23V993c0-2.42 0-4.2.14-5.3h-2.28a27.15 27.15 0 01.17 3.6v1a39.06 39.06 0 01-5.3 0v-.87a31.94 31.94 0 01.15-3.74h-2.31c.12 1.1.16 2.88.16 5.33v.69c0 2.14 0 3.92-.16 5.28H542c-.1-.88-.15-2.35-.15-4.34v-.94a39.06 39.06 0 015.3 0v.94a40.58 40.58 0 01-.17 4.34zm4.86-3.24a2.21 2.21 0 01.58-1.51 5.13 5.13 0 012.91-.58 7.75 7.75 0 011.37.19v2.36a3.42 3.42 0 01-2.86 1.58 1.93 1.93 0 01-2-2m6.91-4c0-3.15-1.18-4.35-3.66-4.35a10.88 10.88 0 00-4.71 1.25 1.52 1.52 0 00.43 1.2 7.28 7.28 0 013.44-1c1.93 0 2.45 1 2.43 3.58-4.91.07-6.93 1.08-6.93 3.74a3 3 0 003.15 3 4.75 4.75 0 003.83-1.9h.04a14.76 14.76 0 00.17 1.88l1.95-.2a35.68 35.68 0 01-.17-4.82zm4.88 7.2c-.07-2.64 0-5.56.1-8.78h.12c.17.48.51 1.25 1 2.33l.89 1.87 1.11 2.47h1.13l.94-1.89c.89-1.9 1.61-3.46 2.11-4.73h.15c0 .36 0 1.7.05 4.05s0 3.89 0 4.68h2.19c-.27-2-.44-4.87-.56-8.64v-2.66h-1.95c-.34.89-1.35 3.07-3 6.58H570c-.72-1.37-1.78-3.58-3.15-6.58h-2.05l-.19 4c-.19 3.34-.39 5.76-.55 7.27zm14.34-6.58a5 5 0 01.37-1.72 4 4 0 01.77-1.4 3.6 3.6 0 012-.55 2.63 2.63 0 011.85.7 2.27 2.27 0 01.75 1.8 1.24 1.24 0 01-.17.72 13.2 13.2 0 01-2.53.31c-1.37.1-2.38.14-3 .14m3.45-5a4.93 4.93 0 00-4 1.75 6.45 6.45 0 00-1.44 4.22c0 3.63 2 5.86 5.25 5.86a6.62 6.62 0 004.18-1.37 1.46 1.46 0 00-.38-1 5.24 5.24 0 01-3.13.87c-2.29 0-3.8-1.3-3.9-4.11l1.76-.14a35.23 35.23 0 005.8-.77 4.49 4.49 0 00.24-1.41 3.82 3.82 0 00-1.13-2.72 4.21 4.21 0 00-3.29-1.19zM600.25 999c-.1-1.6-.15-3.36-.15-5.23V993c0-2.42 0-4.2.15-5.3H598a27.15 27.15 0 01.17 3.6v1a38.91 38.91 0 01-5.29 0v-.87a35.1 35.1 0 01.14-3.74h-2.31c.12 1.1.17 2.88.17 5.33v.69c0 2.14-.05 3.92-.17 5.28H593c-.09-.88-.14-2.35-.14-4.34v-.94a38.91 38.91 0 015.29 0v.94A40.58 40.58 0 01598 999zm2.09-9.62a18.76 18.76 0 012.79-.15h1v2.69a69.62 69.62 0 01-.22 7.1h2.43c-.12-1.17-.19-3.52-.19-7v-2.76h1a16.38 16.38 0 012.77.15v-1.66h-9.51zm13 6.38a2.2 2.2 0 01.57-1.51 5.13 5.13 0 012.91-.58 8 8 0 011.38.19v2.36a3.45 3.45 0 01-2.87 1.58 1.92 1.92 0 01-2-2m6.9-4c0-3.15-1.18-4.35-3.66-4.35a10.88 10.88 0 00-4.71 1.25 1.52 1.52 0 00.43 1.2 7.28 7.28 0 013.44-1c1.93 0 2.46 1 2.43 3.58-4.91.07-6.93 1.08-6.93 3.74a3 3 0 003.15 3 4.75 4.75 0 003.83-1.9h.07a14.76 14.76 0 00.17 1.88l1.95-.2a35.68 35.68 0 01-.17-4.82zm12.4 7.2c-.07-1.1-.12-2.92-.12-5.47v-.89c0-2.32 0-4 .12-4.94H627a12.46 12.46 0 01.19 2.38v.64c0 4.83-.81 6.84-2.52 6.58a3 3 0 00.05 1.92c3.08.46 4.28-2.45 4.28-8.33v-1.75h3.57v5a42.55 42.55 0 01-.2 4.89zm12.85 0c-.07-1.29-.12-2.88-.12-4.75v-1.61c0-1.75 0-3.4.12-4.94h-1.78c-.31.6-1.3 2-2.91 4.32s-2.55 3.67-2.86 4.2h-.12c.09-.84.14-2.14.14-3.94v-1.65a23.24 23.24 0 01.12-2.93h-2.28c.12 1.42.16 3.07.16 4.92v1c0 2.37 0 4.17-.16 5.37h1.85c.43-.74 1.42-2.23 3-4.41s2.48-3.58 2.79-4.13h.07c-.07.82-.1 2.23-.1 4.25v1.34a19.61 19.61 0 01-.16 2.95zm8.28-11.59a5.27 5.27 0 00-3.9 1.65 6 6 0 00-1.59 4.3 6.22 6.22 0 001.45 4.32 4.94 4.94 0 003.85 1.61 6.36 6.36 0 003.63-1.08 1.48 1.48 0 00-.29-1 5.29 5.29 0 01-2.4.62c-2.51 0-4.12-2-4.12-5a4.49 4.49 0 011.2-3.31 2.78 2.78 0 011.88-.57 4.18 4.18 0 012.79.93 2.51 2.51 0 00.84-1.46 4.76 4.76 0 00-3.34-1m4.57 1.96a18.76 18.76 0 012.79-.15h1v2.69a70.8 70.8 0 01-.21 7.1h2.43c-.12-1.17-.19-3.52-.19-7v-2.76h1a16.46 16.46 0 012.77.15v-1.66h-9.51zM681.6 999c-.07-1.29-.12-2.88-.12-4.75v-1.61c0-1.75 0-3.4.12-4.94h-1.78c-.31.6-1.3 2-2.91 4.32s-2.55 3.67-2.86 4.2h-.12c.09-.84.14-2.14.14-3.94v-1.65a23.24 23.24 0 01.12-2.93h-2.29c.13 1.42.17 3.07.17 4.92v1c0 2.37 0 4.17-.17 5.37h1.86c.43-.74 1.42-2.23 3-4.41s2.48-3.58 2.79-4.13h.07c-.07.82-.1 2.23-.1 4.25v1.34a19.61 19.61 0 01-.16 2.95zm10.3-11.28c-.51.67-1.16 1.54-2.12 2.71s-1.8 2-2.07 2h-.5v-1.1c0-1.59 0-2.81.14-3.65H685c.12 1.46.17 3.17.17 5.14v.84c0 2.13-.05 3.91-.17 5.32h2.31c-.09-.93-.14-2.47-.14-4.58v-1h.5c.27 0 .68.48 1.21 1.39.36.56 1 1.59 1.66 2.45l.31.41a9.49 9.49 0 001.4 1.61 5.07 5.07 0 002.16-.34 33.22 33.22 0 01-3.54-4.46l-1.25-1.78c.39-.38 1.18-1.22 2.36-2.54s2-2.14 2.26-2.45zM706.24 999c-.07-1.29-.12-2.88-.12-4.75v-1.61c0-1.75 0-3.4.12-4.94h-1.78c-.31.6-1.3 2-2.91 4.32s-2.55 3.67-2.86 4.2h-.12c.09-.84.14-2.14.14-3.94v-1.65a23.24 23.24 0 01.12-2.93h-2.29c.12 1.42.17 3.07.17 4.92v1c0 2.37-.05 4.17-.17 5.37h1.86c.43-.74 1.42-2.23 3-4.41s2.47-3.58 2.79-4.13h.07c-.07.82-.1 2.23-.1 4.25v1.34A19.61 19.61 0 01704 999z"/></g></svg>