<svg data-name="Layer 1" xmlns="http://www.w3.org/2000/svg" viewBox="0 0 1920 1080"><path fill="#d6e2d4" d="M0 0h1920v1080H0z"/><path d="M925.53 317.5v68.94h31.34v-18.8h6.26v18.8h31.34V355.1h-18.8v-6.27h18.8V317.5h-31.34v18.8h-6.26v-18.8zm0 144.15h68.94v-68.94h-31.34v18.8h-6.26v-18.8h-31.34v31.34h37.6v6.26h-37.6zm0 75.22h31.34v-18.81h6.26v18.81h31.34v-68.95h-31.34v18.8h-6.26v-18.8h-31.34zm0 75.21h31.34v-37.61h37.6v-31.34h-68.94zm0 75.21h68.94v-68.94h-31.34v18.8h-6.26v-18.8h-31.34v31.34h37.6V656h-37.6zm31.34 28.21h6.26V728h-6.26zm-31.34 47h31.34V750h37.6v-56.44h-68.94z" fill="#706d4c" fill-rule="evenodd"/><path d="M190.59 929.47c.31 0 1-.05 2.09-.05s1.8 0 2.11.05v11.45h-6.31q2.11-2.38 2.11-11.45m-3.89 16.34v-3.38h10.47v3.38h1.75v-4.89H197c-.07-.89-.12-2.67-.12-5.36V934q0-3.6.15-6.05h-8.53a28.15 28.15 0 01.17 3c0 4.23-.91 10-3 10h-.76v4.89zm19.18-13.65c2.28 0 3.38 2 3.38 4.84a5 5 0 01-1.2 3.7 3.09 3.09 0 01-1.7.55c-2.21 0-3.6-1.82-3.6-5a4.82 4.82 0 011.06-3.43 2.74 2.74 0 012.06-.67m.38-1.44a5.18 5.18 0 00-4 1.7 7.06 7.06 0 00-.15 8.66 5.37 5.37 0 007.71 0 6.39 6.39 0 001.48-4.35c0-3.72-1.84-6-5.04-6zm12.63.1a5.23 5.23 0 00-3.89 1.66 5.93 5.93 0 00-1.58 4.29 6.26 6.26 0 001.44 4.32 4.92 4.92 0 003.84 1.61 6.27 6.27 0 003.62-1.08 1.5 1.5 0 00-.29-1 5.14 5.14 0 01-2.4.62c-2.49 0-4.1-2-4.1-5a4.48 4.48 0 011.2-3.31 2.69 2.69 0 011.87-.58 4.11 4.11 0 012.78.94 2.56 2.56 0 00.84-1.47 4.7 4.7 0 00-3.33-1m4.56 1.97a18.92 18.92 0 012.78-.14h1v2.68a71.06 71.06 0 01-.21 7.11h2.42c-.12-1.18-.19-3.53-.19-7v-2.76h1a16.58 16.58 0 012.76.14v-1.66h-9.48zm12.96 6.38a2.22 2.22 0 01.57-1.51 5.23 5.23 0 012.91-.57 7.87 7.87 0 011.37.19v2.35a3.41 3.41 0 01-2.86 1.58 1.92 1.92 0 01-2-2m6.89-4c0-3.14-1.18-4.34-3.65-4.34a10.85 10.85 0 00-4.71 1.24 1.51 1.51 0 00.44 1.2 7.19 7.19 0 013.43-1c1.92 0 2.45 1 2.42 3.57-4.89.07-6.91 1.08-6.91 3.75a3 3 0 003.14 3 4.75 4.75 0 003.82-1.89h.07a14.54 14.54 0 00.17 1.87l1.94-.19a36.58 36.58 0 01-.16-4.83zm2-2.42a18.92 18.92 0 012.78-.14h1v2.68a71.06 71.06 0 01-.21 7.11h2.42c-.12-1.18-.19-3.53-.19-7v-2.76h1a16.58 16.58 0 012.76.14v-1.66h-9.48zm16.05-.62c2.28 0 3.39 2 3.39 4.84a5 5 0 01-1.2 3.7 3.14 3.14 0 01-1.71.55c-2.21 0-3.6-1.82-3.6-5a4.82 4.82 0 011.06-3.43 2.75 2.75 0 012.06-.67m.39-1.44a5.18 5.18 0 00-4 1.7 6.31 6.31 0 00-1.56 4.44 6.22 6.22 0 001.41 4.22 5.37 5.37 0 007.71 0 6.39 6.39 0 001.49-4.35c-.01-3.72-1.86-6-5.05-6zm7.1.41A19.52 19.52 0 01269 934v1.06c0 2.52 1.24 3.53 3.45 3.53a6.68 6.68 0 003.17-.87V939a16.45 16.45 0 01-.22 3.39h2.38c-.12-1.13-.17-2.86-.17-5.19v-1c0-2.14.05-3.82.17-5.07h-2.33a29.87 29.87 0 01.17 3.48v2a5 5 0 01-2.42.53c-1.61 0-2.21-.77-2.21-2.61 0-1.06 0-2.21.17-3.44zm21.89 11.31c-.1-1.61-.14-3.36-.14-5.23v-.77c0-2.43 0-4.2.14-5.31h-2.28a27.15 27.15 0 01.17 3.6v1a22.5 22.5 0 01-2.64.1 22.27 22.27 0 01-2.64-.1v-.86a35.45 35.45 0 01.14-3.75h-2.3c.12 1.11.16 2.88.16 5.33v.7c0 2.13 0 3.91-.16 5.28h2.3c-.09-.89-.14-2.35-.14-4.35v-.93a22.27 22.27 0 012.64-.1 22.5 22.5 0 012.64.1v.93a40.79 40.79 0 01-.17 4.35zm7.94-10.27c2.28 0 3.39 2 3.39 4.84a5 5 0 01-1.2 3.7 3.12 3.12 0 01-1.71.55c-2.2 0-3.6-1.82-3.6-5a4.82 4.82 0 011.06-3.43 2.75 2.75 0 012.06-.67m.39-1.44a5.2 5.2 0 00-4 1.7 6.31 6.31 0 00-1.56 4.44 6.22 6.22 0 001.41 4.22 5.37 5.37 0 007.71 0 6.39 6.39 0 001.49-4.35c-.01-3.72-1.86-6-5.05-6zm14.61 6.46a13.85 13.85 0 012-.09c1.54 0 2.74.57 2.74 2a2.2 2.2 0 01-.94 2 5.45 5.45 0 01-2.16.29 4.72 4.72 0 01-1.61-.19zm0-4.85a6.37 6.37 0 011.68-.19c1.73 0 2.59.63 2.59 1.87a2 2 0 01-1.75 1.9 12 12 0 01-2.52.05zm1.83-1.48a30 30 0 00-4 .28c.12 1.32.17 2.93.17 4.8v.94c0 2.23-.05 4.1-.17 5.57a19.2 19.2 0 003.51.26c3.29 0 5.4-1.27 5.4-3.55a2.61 2.61 0 00-2.52-2.76v-.12a2.78 2.78 0 002.06-2.62q.06-2.8-4.45-2.8zm7.84 2.16a5.74 5.74 0 012.84-.74c1.51 0 2.33.74 2.33 1.92a2.08 2.08 0 01-2.29 1.92 5.2 5.2 0 01-1.53-.17 1.57 1.57 0 000 1.46 6 6 0 011.66-.16c1.53 0 2.66.74 2.66 2a2 2 0 01-.91 1.78 3.89 3.89 0 01-1.8.36 5.31 5.31 0 01-3.05-.89 2.33 2.33 0 00-.65 1.32 4.07 4.07 0 001.44.65 7.49 7.49 0 002.11.31c2.91 0 5-1.25 5-3.67a2.61 2.61 0 00-2.52-2.55v-.12a2.9 2.9 0 002-2.73c0-1.63-1.25-2.86-3.63-2.86a8.24 8.24 0 00-3.95.87 2.73 2.73 0 00.35 1.29m17.03 3.53a4.46 4.46 0 01-1 .1c-2.16 0-3.24-.74-3.24-2.26a2.23 2.23 0 01.82-1.7 3.7 3.7 0 011.94-.38 6 6 0 011.46.12zm2.14 5.91c-.12-1.54-.17-3.24-.17-5.09v-1.13a49.05 49.05 0 01.17-5A20.53 20.53 0 00339 931a6.29 6.29 0 00-3.46.88 3 3 0 001.23 5.5c-.17.24-.48.75-1 1.54s-.91 1.46-1.32 2.06-.75 1.08-1 1.42a5.28 5.28 0 002 .29 4.88 4.88 0 001.13-1.51c.36-.58.93-1.61 1.2-2.09q.21-.36.45-.72c.36-.51.58-.72.77-.72h1.39v4.8zm2.06-9.65a19.08 19.08 0 012.79-.14h1v2.68a66.87 66.87 0 01-.22 7.11h2.43c-.12-1.18-.2-3.53-.2-7v-2.76h1a16.58 16.58 0 012.76.14v-1.66h-9.48zm18.12 5.88a2.43 2.43 0 01-1 2.14 3.52 3.52 0 01-1.85.38 4.4 4.4 0 01-1.58-.19 30.19 30.19 0 010-4.66c2.78-.65 4.41.31 4.41 2.33m-6.57-7.54a37.8 37.8 0 01.17 4.61v.89c0 2.71 0 4.61-.15 5.69a18.09 18.09 0 003.34.26c3.45 0 5.2-1.53 5.2-3.91a3.44 3.44 0 00-1.71-3.26 6.44 6.44 0 00-4.68-.29v-1.27a17.18 17.18 0 01.14-2.72zm20.54-.31a5.22 5.22 0 00-3.89 1.66 5.94 5.94 0 00-1.59 4.29 6.31 6.31 0 001.44 4.32 5 5 0 003.85 1.61 6.27 6.27 0 003.62-1.08 1.5 1.5 0 00-.29-1 5.14 5.14 0 01-2.4.62c-2.49 0-4.1-2-4.1-5a4.44 4.44 0 011.2-3.31 2.69 2.69 0 011.87-.58 4.11 4.11 0 012.78.94 2.56 2.56 0 00.84-1.47 4.7 4.7 0 00-3.33-1m9.12 11.62h.6a14.93 14.93 0 01-2.47 4 1.82 1.82 0 001.53 1.11c.79-1 1.83-3.46 3.15-7.25l.88-2.57 1-3.14c.55-1.61.93-2.76 1.19-3.44h-1.94c-.26 1.25-.69 2.91-1.27 5a44.65 44.65 0 01-1.39 4.44H387a98.94 98.94 0 01-3.19-9.39h-2.57zm21.38 2.85h1.73V941h-1.54v-5a43.84 43.84 0 01.17-4.9h-2.18c.09 1.18.14 2.67.14 4.47V941a16.51 16.51 0 01-2 .07 18.92 18.92 0 01-2.07-.07v-5.4c0-1.8.05-3.29.17-4.47h-2.18a41.32 41.32 0 01.17 4.44V941l-2 .07a17.86 17.86 0 01-2-.07v-5.5c0-1.82 0-3.29.14-4.37h-2.18a49.34 49.34 0 01.16 5v.87c0 2.49 0 4.32-.16 5.47h13.65zm5.21-9.45a5 5 0 01.36-1.73 3.86 3.86 0 01.77-1.39 3.6 3.6 0 012-.55 2.64 2.64 0 011.84.69 2.3 2.3 0 01.75 1.8 1.24 1.24 0 01-.17.72 12.24 12.24 0 01-2.52.31c-1.37.1-2.38.15-3 .15m3.43-5a4.91 4.91 0 00-4 1.75 6.45 6.45 0 00-1.44 4.23c0 3.62 1.94 5.85 5.23 5.85a6.68 6.68 0 004.18-1.36 1.41 1.41 0 00-.39-1 5.24 5.24 0 01-3.12.86c-2.28 0-3.79-1.29-3.88-4.1l1.75-.15a34.85 34.85 0 005.78-.76 4.24 4.24 0 00.24-1.42A3.78 3.78 0 00419 932a4.18 4.18 0 00-3.17-1.19zm11.8-.02a5.21 5.21 0 00-3.88 1.66 5.94 5.94 0 00-1.59 4.29 6.26 6.26 0 001.44 4.32 5 5 0 003.84 1.61 6.31 6.31 0 003.63-1.08 1.55 1.55 0 00-.29-1 5.17 5.17 0 01-2.4.62c-2.5 0-4.11-2-4.11-5a4.48 4.48 0 011.2-3.31 2.73 2.73 0 011.88-.58 4.12 4.12 0 012.78.94 2.56 2.56 0 00.84-1.47 4.76 4.76 0 00-3.34-1m4.56 1.97a19.08 19.08 0 012.79-.14h1v2.68a66.87 66.87 0 01-.22 7.11h2.43c-.12-1.18-.2-3.53-.2-7v-2.76h1a16.58 16.58 0 012.76.14v-1.66h-9.48zm13.71 4.39a13.85 13.85 0 012-.09c1.53 0 2.73.57 2.73 2a2.19 2.19 0 01-.93 2 5.52 5.52 0 01-2.16.29 4.68 4.68 0 01-1.61-.19zm0-4.85a6.32 6.32 0 011.68-.19c1.73 0 2.59.63 2.59 1.87a2 2 0 01-1.75 1.9 12 12 0 01-2.52.05zm1.82-1.48a29.76 29.76 0 00-4 .28c.12 1.32.17 2.93.17 4.8v.94c0 2.23-.05 4.1-.17 5.57a19.16 19.16 0 003.5.26c3.29 0 5.4-1.27 5.4-3.55a2.6 2.6 0 00-2.52-2.76v-.12a2.79 2.79 0 002.07-2.62q.02-2.8-4.45-2.8zm11.07 11.59h.6a14.65 14.65 0 01-2.48 4 1.85 1.85 0 001.54 1.11c.79-1 1.82-3.46 3.14-7.25l.89-2.57 1-3.14c.56-1.61.94-2.76 1.2-3.44h-1.91c-.26 1.25-.7 2.91-1.27 5a44.65 44.65 0 01-1.39 4.44H460c-1.83-4.9-2.88-8-3.2-9.39h-2.56zm21.67-5.98c0-3.57-1.87-5.73-4.73-5.73a4.73 4.73 0 00-3.53 1.44 5.73 5.73 0 00-1.56 3.67h-1.94v-1.06a31.08 31.08 0 01.15-3.65h-2.31a49.18 49.18 0 01.17 5.14v.58c0 1.77 0 3.64-.17 5.59h2.31a35.86 35.86 0 01-.15-4.13v-1.18a4.07 4.07 0 011-.07 4.34 4.34 0 011 .07 6.57 6.57 0 001.39 4 4.71 4.71 0 007.08-.15 7 7 0 001.37-4.56m-5.33-4.39c2.18 0 3.22 1.92 3.22 4.8 0 2-.39 3.38-1.13 4a2.75 2.75 0 01-1.56.46c-1.95 0-3.17-1.83-3.17-4.87a5.86 5.86 0 011-3.8 2.38 2.38 0 011.56-.55zm21.66 13.26h1.73V941h-1.53v-5a44.63 44.63 0 01.16-4.9h-2.18c.1 1.18.14 2.67.14 4.47V941a16.51 16.51 0 01-2 .07 18.58 18.58 0 01-2.06-.07v-5.4c0-1.8.05-3.29.17-4.47h-2.19a41.32 41.32 0 01.17 4.44V941l-2 .07a17.86 17.86 0 01-2-.07v-5.5c0-1.82 0-3.29.14-4.37h-2.18a48.6 48.6 0 01.17 5v.87c0 2.49-.05 4.32-.17 5.47h13.63zm5.21-9.45a5 5 0 01.36-1.73 4 4 0 01.77-1.39 3.62 3.62 0 012-.55 2.68 2.68 0 011.85.69 2.32 2.32 0 01.74 1.8 1.24 1.24 0 01-.17.72 12.24 12.24 0 01-2.52.31q-2.06.15-3 .15m3.43-5a4.93 4.93 0 00-4 1.75 6.45 6.45 0 00-1.44 4.23c0 3.62 1.95 5.85 5.23 5.85a6.68 6.68 0 004.18-1.36 1.45 1.45 0 00-.38-1 5.28 5.28 0 01-3.12.86c-2.28 0-3.8-1.29-3.89-4.1l1.75-.15a34.71 34.71 0 005.78-.76 4.24 4.24 0 00.24-1.42 3.81 3.81 0 00-1.12-2.71 4.22 4.22 0 00-3.26-1.21zm8.37 5a5 5 0 01.36-1.73 4 4 0 01.77-1.39 3.65 3.65 0 012-.55 2.68 2.68 0 011.85.69 2.32 2.32 0 01.74 1.8 1.24 1.24 0 01-.17.72 12.24 12.24 0 01-2.52.31c-1.36.1-2.37.15-3 .15m3.44-5a4.93 4.93 0 00-4 1.75 6.45 6.45 0 00-1.44 4.23c0 3.62 2 5.85 5.24 5.85a6.65 6.65 0 004.17-1.36 1.45 1.45 0 00-.38-1 5.26 5.26 0 01-3.12.86c-2.28 0-3.79-1.29-3.89-4.1l1.75-.15a35 35 0 005.79-.76 4.5 4.5 0 00.24-1.42 3.82 3.82 0 00-1.13-2.71 4.21 4.21 0 00-3.26-1.21zm7.12 10.37a1.12 1.12 0 001.56 1.13 1.91 1.91 0 01-.43 1.49 1.4 1.4 0 01-1.16.65 1.77 1.77 0 000 .93 2.7 2.7 0 002-1 3.48 3.48 0 00.86-2.48c0-1.27-.57-2-1.46-2a1.33 1.33 0 00-1.39 1.27m14.01-9.03c2.28 0 3.38 2 3.38 4.84a4.93 4.93 0 01-1.2 3.7 3.09 3.09 0 01-1.7.55c-2.21 0-3.6-1.82-3.6-5a4.82 4.82 0 011.06-3.43 2.74 2.74 0 012.06-.67m.38-1.44a5.18 5.18 0 00-4 1.7 7.06 7.06 0 00-.15 8.66 5.37 5.37 0 007.71 0 6.39 6.39 0 001.48-4.35c0-3.72-1.84-6-5.04-6zm12.63.1a5.23 5.23 0 00-3.89 1.66 5.93 5.93 0 00-1.58 4.29 6.26 6.26 0 001.44 4.32 4.92 4.92 0 003.84 1.61 6.27 6.27 0 003.62-1.08 1.5 1.5 0 00-.29-1 5.14 5.14 0 01-2.4.62c-2.49 0-4.1-2-4.1-5a4.48 4.48 0 011.2-3.31 2.69 2.69 0 011.87-.58 4.11 4.11 0 012.78.94 2.56 2.56 0 00.84-1.47 4.7 4.7 0 00-3.33-1m7.47 11.62c-.07-2.64-.05-5.57.09-8.79h.12c.17.48.51 1.25 1 2.33l.89 1.87 1.1 2.48h1.13l.94-1.9c.89-1.9 1.61-3.46 2.11-4.73h.14v4.06c0 2.35.05 3.89 0 4.68h2.19c-.27-2-.44-4.87-.56-8.64v-2.67h-1.95q-.5 1.33-3 6.58h-.1c-.72-1.37-1.77-3.58-3.14-6.58h-2l-.19 4c-.2 3.33-.39 5.76-.56 7.27zm22.74-5.43c0 2.09 0 3.89-.16 5.43h2.23c-.1-1-.15-2.88-.15-5.64v-1c0-2.24.05-3.77.15-4.64h-2.19c.08 1.44.12 3 .12 4.73zm-3.69 1.66a2.63 2.63 0 01-.87 2.14 3.52 3.52 0 01-1.58.4 4.27 4.27 0 01-1.6-.2 30.19 30.19 0 010-4.66c2.44-.61 4.05.3 4.05 2.32zm-6.17-7.54a44 44 0 01.17 4.8v.94c0 2.62 0 4.44-.17 5.45a17.92 17.92 0 003.26.26c3.24 0 4.83-1.63 4.83-3.91a3.34 3.34 0 00-1.66-3.17 5.75 5.75 0 00-4.27-.38v-1.3a17.16 17.16 0 01.14-2.69zm20.12-.31a5.23 5.23 0 00-3.89 1.66 6 6 0 00-1.58 4.29 6.26 6.26 0 001.44 4.32 4.92 4.92 0 003.84 1.61 6.27 6.27 0 003.62-1.08 1.45 1.45 0 00-.29-1 5.14 5.14 0 01-2.4.62c-2.49 0-4.1-2-4.1-5a4.48 4.48 0 011.2-3.31 2.7 2.7 0 011.87-.58 4.15 4.15 0 012.79.94 2.67 2.67 0 00.84-1.47 4.76 4.76 0 00-3.34-1m15 11.62c-.07-1.11-.12-2.93-.12-5.47v-.89c0-2.33 0-4 .12-5h-7.63a12.54 12.54 0 01.19 2.38v.65c0 4.82-.82 6.84-2.52 6.57a3 3 0 000 1.92c3.07.46 4.27-2.44 4.27-8.32v-1.76h3.56v5a42.76 42.76 0 01-.2 4.9zm12.78 0c-.07-1.3-.12-2.88-.12-4.75v-1.61c0-1.75.05-3.41.12-5H618c-.31.6-1.3 2-2.91 4.32s-2.54 3.68-2.85 4.2h-.12c.09-.84.14-2.13.14-3.93V934a23.35 23.35 0 01.12-2.93h-2.28c.12 1.42.17 3.08.17 4.92v1c0 2.38 0 4.18-.17 5.38h1.9c.43-.75 1.42-2.23 2.95-4.42s2.47-3.57 2.79-4.13h.07c-.07.82-.1 2.24-.1 4.25v1.35a19.58 19.58 0 01-.17 2.95zm2.09-9.65a19.08 19.08 0 012.79-.14h1v2.68a69.87 69.87 0 01-.22 7.11h2.42c-.12-1.18-.19-3.53-.19-7v-2.76h1a16.58 16.58 0 012.76.14v-1.66h-9.48zm18.13 5.88a2.43 2.43 0 01-1 2.14 3.52 3.52 0 01-1.85.38 4.4 4.4 0 01-1.58-.19 30.19 30.19 0 010-4.66c2.78-.65 4.41.31 4.41 2.33m-6.57-7.54a38.51 38.51 0 01.16 4.61v.89c0 2.71 0 4.61-.14 5.69a18.09 18.09 0 003.34.26c3.45 0 5.2-1.53 5.2-3.91a3.44 3.44 0 00-1.72-3.26 6.44 6.44 0 00-4.68-.29v-1.27a16 16 0 01.14-2.72zm-442.34 29.12c2.28 0 3.39 2 3.39 4.84a4.93 4.93 0 01-1.21 3.7 3.09 3.09 0 01-1.7.55c-2.21 0-3.6-1.82-3.6-5a4.82 4.82 0 011.06-3.43 2.74 2.74 0 012.06-.67m.38-1.44a5.18 5.18 0 00-4 1.7 7.06 7.06 0 00-.15 8.66 5.37 5.37 0 007.71 0 6.39 6.39 0 001.48-4.35c0-3.68-1.84-6-5.04-6zm9.27 5.79a5.68 5.68 0 01.46-2.71 3.28 3.28 0 012.8-1.37c1.75 0 2.81 1.73 2.81 4.61a5.48 5.48 0 01-1 3.65 2.52 2.52 0 01-1.83.67c-1.92 0-3.21-1.85-3.21-4.85m3.74-5.4a4.85 4.85 0 00-4.41 2.69H200a8.77 8.77 0 01.6-3.1 4.48 4.48 0 01.84-1.37 5.56 5.56 0 013.56-1.56c1.73-.16 2.76-.45 3.12-.86a3.15 3.15 0 00-.07-1.92c-.34.41-1.35.72-3 .91a6 6 0 00-4.89 2.86 12.56 12.56 0 00-1.51 6.5c0 4.78 1.92 7.44 5.18 7.44a4.51 4.51 0 003.77-1.73 7.22 7.22 0 001.37-4.58c-.04-3.34-1.8-5.28-4.51-5.28zm16.73 11.33c-.1-1.61-.15-3.36-.15-5.23v-.77q0-3.64.15-5.31h-2.29a25.52 25.52 0 01.17 3.6v1a22.27 22.27 0 01-2.64.1 22.5 22.5 0 01-2.64-.1v-.8a32.26 32.26 0 01.15-3.75h-2.31c.12 1.11.17 2.88.17 5.33v.7c0 2.13-.05 3.91-.17 5.28H214c-.1-.89-.15-2.35-.15-4.35v-.93a22.5 22.5 0 012.64-.1 22.27 22.27 0 012.64.1v.93a38.28 38.28 0 01-.17 4.35zm7.94-10.27c2.28 0 3.38 2 3.38 4.84a4.93 4.93 0 01-1.2 3.7 3.09 3.09 0 01-1.7.55c-2.21 0-3.6-1.82-3.6-5a4.82 4.82 0 011.06-3.43 2.74 2.74 0 012.06-.67m.38-1.44a5.18 5.18 0 00-4 1.7 7.06 7.06 0 00-.15 8.66 5.37 5.37 0 007.71 0 6.39 6.39 0 001.48-4.35c0-3.68-1.84-6-5.04-6zm9.96 6.46a13.93 13.93 0 012-.09c1.54 0 2.74.57 2.74 2a2.18 2.18 0 01-.94 2 5.45 5.45 0 01-2.16.29 4.72 4.72 0 01-1.61-.19zm0-4.85a6.43 6.43 0 011.68-.19c1.73 0 2.6.63 2.6 1.87A2 2 0 01242 964a12 12 0 01-2.52 0zm1.83-1.48a30 30 0 00-4 .28c.12 1.32.17 2.93.17 4.8v.94c0 2.23 0 4.1-.17 5.57a19.2 19.2 0 003.51.26c3.29 0 5.4-1.27 5.4-3.55a2.6 2.6 0 00-2.52-2.76v-.12a2.78 2.78 0 002.06-2.62q.01-2.8-4.45-2.8zm17.52 11.59c-.07-1.3-.12-2.88-.12-4.75v-1.61c0-1.75 0-3.41.12-4.95h-1.78c-.31.6-1.29 2-2.9 4.32s-2.55 3.68-2.86 4.2h-.12a36.53 36.53 0 00.15-3.93v-1.66a21.47 21.47 0 01.12-2.93h-2.28c.12 1.42.16 3.08.16 4.92v1c0 2.38 0 4.18-.16 5.38H251c.44-.75 1.42-2.23 3-4.42s2.47-3.57 2.78-4.13h.07c-.07.82-.09 2.24-.09 4.25v1.35a19.58 19.58 0 01-.17 3zm2.09-9.65a18.92 18.92 0 012.78-.14h1v2.68a66.87 66.87 0 01-.22 7.11h2.43c-.12-1.18-.19-3.53-.19-7v-2.76h1a16.66 16.66 0 012.76.14v-1.69h-9.48zm18.12 5.88a2.44 2.44 0 01-1 2.14 3.52 3.52 0 01-1.85.38 4.4 4.4 0 01-1.58-.19 30.19 30.19 0 010-4.66c2.78-.65 4.42.31 4.42 2.33m-6.58-7.54a37.8 37.8 0 01.17 4.61v.89c0 2.71 0 4.61-.15 5.69a18.17 18.17 0 003.34.26c3.46 0 5.21-1.53 5.21-3.91a3.45 3.45 0 00-1.73-3.26 6.44 6.44 0 00-4.68-.29v-1.27a17.18 17.18 0 01.14-2.72zm25.38 11.31c-.07-1.3-.12-2.88-.12-4.75v-1.61c0-1.75 0-3.41.12-4.95h-1.78c-.31.6-1.29 2-2.9 4.32s-2.55 3.68-2.86 4.2h-.12a36.53 36.53 0 00.15-3.93v-1.66a21.47 21.47 0 01.12-2.93h-2.28c.12 1.42.16 3.08.16 4.92v1c0 2.38 0 4.18-.16 5.38H290c.44-.75 1.42-2.23 3-4.42s2.47-3.57 2.78-4.13h.07c-.07.82-.09 2.24-.09 4.25v1.35a19.58 19.58 0 01-.17 3zm9.5-3.27a2.18 2.18 0 01.58-1.51 5.19 5.19 0 012.9-.57 7.87 7.87 0 011.37.19v2.35a3.41 3.41 0 01-2.86 1.58 1.93 1.93 0 01-2-2m6.89-4c0-3.14-1.18-4.34-3.65-4.34a10.85 10.85 0 00-4.7 1.24 1.5 1.5 0 00.43 1.2 7.22 7.22 0 013.43-1c1.92 0 2.45 1 2.43 3.57-4.9.07-6.92 1.08-6.92 3.75a3 3 0 003.15 3 4.73 4.73 0 003.81-1.89h.08a13.35 13.35 0 00.16 1.87l2-.19a35.77 35.77 0 01-.17-4.83zm6.32-2.64a8.57 8.57 0 011.66-.09 8.82 8.82 0 011.68.09v8.43h-5.09c1-1.06 1.73-4.18 1.75-8.43m-3 12.72v-2.85h8.23v2.85h1.73v-4.29H326c-.07-.77-.12-2.23-.12-4.39v-.77c0-1.95.05-3.53.14-4.71h-7.37a18.07 18.07 0 01.15 2.4 18.81 18.81 0 01-.67 5c-.43 1.63-1 2.45-1.56 2.45h-.75v4.29zm13.63-6.12a2.23 2.23 0 01.58-1.51 5.19 5.19 0 012.9-.57 7.75 7.75 0 011.37.19v2.35a3.39 3.39 0 01-2.85 1.58 1.93 1.93 0 01-2-2m6.89-4c0-3.14-1.17-4.34-3.65-4.34a10.85 10.85 0 00-4.7 1.24 1.5 1.5 0 00.43 1.2 7.25 7.25 0 013.43-1c1.92 0 2.45 1 2.43 3.57-4.9.07-6.91 1.08-6.91 3.75a3 3 0 003.14 3 4.77 4.77 0 003.82-1.89h.07a12.86 12.86 0 00.17 1.87l1.94-.19a35.77 35.77 0 01-.17-4.83zm12.75 7.23c-.1-1.37-.15-3.19-.15-5.5v-.89c0-.72.05-2.35.15-4.92h-9.41c.12 1.78.17 3.41.17 4.9v1c0 1.61-.05 3.39-.17 5.38h2.3c-.09-1.42-.14-3.58-.14-6.53v-3.34a21.35 21.35 0 012.54-.09 22.47 22.47 0 012.59.09v3.27c0 3-.07 5.18-.19 6.6zm2.06-9.65a19 19 0 012.78-.14h1v2.68a71.06 71.06 0 01-.21 7.11h2.42c-.12-1.18-.19-3.53-.19-7v-2.76h1a16.58 16.58 0 012.76.14v-1.69h-9.48zm21.22 9.65c-.08-1.3-.12-2.88-.12-4.75v-1.61c0-1.75 0-3.41.12-4.95h-1.78c-.31.6-1.3 2-2.9 4.32s-2.55 3.68-2.86 4.2h-.12a37.19 37.19 0 00.14-3.93v-1.66a23.35 23.35 0 01.12-2.93h-2.28c.12 1.42.17 3.08.17 4.92v1c0 2.38 0 4.18-.17 5.38h1.85c.43-.75 1.42-2.23 3-4.42s2.47-3.57 2.79-4.13h.07c-.07.82-.1 2.24-.1 4.25v1.35a21.23 21.23 0 01-.16 3zm5.59-8.38a3.3 3.3 0 011.87-1.53 3.08 3.08 0 01.91-.1c1.75.07 2.79 1.49 2.79 4.1a5.34 5.34 0 01-1.4 4.13 4.06 4.06 0 01-2.52.7 4.24 4.24 0 01-1.65-.29zm-2.19-2.81c.12 1.37.2 3.7.2 7v1.17c0 4-.08 6.53-.2 7.63h2.33c-.09-.93-.14-2.23-.14-3.91v-.67a7.18 7.18 0 001.53.19 6.05 6.05 0 006.22-6.45c0-3-1.32-4.8-3.51-5.19a4.3 4.3 0 00-1.65.29 3.49 3.49 0 00-2.67 1.51v-1.87zm17.16.92c2.28 0 3.39 2 3.39 4.84a5 5 0 01-1.2 3.7 3.12 3.12 0 01-1.71.55c-2.2 0-3.6-1.82-3.6-5a4.82 4.82 0 011.06-3.43 2.77 2.77 0 012.06-.67m.39-1.44a5.2 5.2 0 00-4 1.7 6.31 6.31 0 00-1.56 4.44 6.17 6.17 0 001.42 4.22 5.36 5.36 0 007.7 0 6.39 6.39 0 001.49-4.35c-.01-3.68-1.86-6-5.05-6zm9.95 6.46a13.85 13.85 0 012-.09c1.53 0 2.73.57 2.73 2a2.19 2.19 0 01-.93 2 5.52 5.52 0 01-2.16.29 4.68 4.68 0 01-1.61-.19zm0-4.85a6.32 6.32 0 011.68-.19c1.73 0 2.59.63 2.59 1.87a2 2 0 01-1.75 1.9 12 12 0 01-2.52 0zm1.82-1.48a29.76 29.76 0 00-4 .28c.12 1.32.17 2.93.17 4.8v.94c0 2.23 0 4.1-.17 5.57a19.16 19.16 0 003.5.26c3.29 0 5.4-1.27 5.4-3.55a2.6 2.6 0 00-2.52-2.76v-.12a2.79 2.79 0 002.07-2.62q.03-2.8-4.44-2.8zm9.28 8.32a2.22 2.22 0 01.57-1.51 5.23 5.23 0 012.91-.57 7.78 7.78 0 011.36.19v2.35a3.39 3.39 0 01-2.85 1.58 1.92 1.92 0 01-2-2m6.88-4c0-3.14-1.17-4.34-3.64-4.34a10.85 10.85 0 00-4.71 1.24 1.54 1.54 0 00.43 1.2 7.25 7.25 0 013.44-1c1.92 0 2.44 1 2.42 3.57C416 964 414 965 414 967.68a3 3 0 003.14 3 4.75 4.75 0 003.82-1.89h.04a14.54 14.54 0 00.17 1.87l1.94-.19a35.77 35.77 0 01-.17-4.83zm2.03-2.42a18.92 18.92 0 012.78-.14h1v2.68a66.87 66.87 0 01-.22 7.11h2.43c-.12-1.18-.19-3.53-.19-7v-2.76h1a16.66 16.66 0 012.76.14v-1.69H425zm18.1 5.88a2.44 2.44 0 01-1 2.14 3.52 3.52 0 01-1.85.38 4.4 4.4 0 01-1.58-.19 30.19 30.19 0 010-4.66c2.78-.65 4.42.31 4.42 2.33m-6.58-7.54a37.8 37.8 0 01.17 4.61v.89c0 2.71-.05 4.61-.15 5.69a18.17 18.17 0 003.34.26c3.46 0 5.21-1.53 5.21-3.91a3.45 3.45 0 00-1.73-3.26 6.44 6.44 0 00-4.68-.29v-1.27a17.18 17.18 0 01.14-2.72zm25.11 11.31c-.09-1.37-.14-3.19-.14-5.5v-.89c0-.72 0-2.35.14-4.92h-9.41c.13 1.78.17 3.41.17 4.9v1c0 1.61 0 3.39-.17 5.38h2.31c-.1-1.42-.14-3.58-.14-6.53v-3.34a21.35 21.35 0 012.54-.09 22.58 22.58 0 012.59.09v3.27c0 3-.07 5.18-.19 6.6zm7.92-10.27c2.28 0 3.39 2 3.39 4.84a5 5 0 01-1.2 3.7 3.12 3.12 0 01-1.71.55c-2.2 0-3.6-1.82-3.6-5a4.82 4.82 0 011.06-3.43 2.77 2.77 0 012.06-.67m.39-1.44a5.2 5.2 0 00-4 1.7 6.31 6.31 0 00-1.56 4.44 6.17 6.17 0 001.42 4.22 5.36 5.36 0 007.7 0 6.39 6.39 0 001.49-4.35c.02-3.68-1.86-6-5.05-6zm10.77 1.85a8.57 8.57 0 011.66-.09 8.75 8.75 0 011.68.09v8.43H479c1-1.06 1.73-4.18 1.75-8.43m-3 12.72v-2.85h8.24v2.85h1.72v-4.29h-1.51c-.07-.77-.12-2.23-.12-4.39v-.77c0-1.95.05-3.53.15-4.71h-7.37a20 20 0 01.14 2.4 18.41 18.41 0 01-.67 5c-.43 1.63-1 2.45-1.56 2.45H476v4.29zm21.65-14.47a5.23 5.23 0 00-3.89 1.66 6 6 0 00-1.58 4.29 6.26 6.26 0 001.44 4.32 4.92 4.92 0 003.84 1.61 6.27 6.27 0 003.62-1.08 1.45 1.45 0 00-.29-1 5.14 5.14 0 01-2.4.62c-2.49 0-4.1-2-4.1-5a4.48 4.48 0 011.2-3.31 2.7 2.7 0 011.87-.58 4.15 4.15 0 012.79.94 2.67 2.67 0 00.84-1.47 4.76 4.76 0 00-3.34-1m7.3 5.02a5 5 0 01.36-1.73 4 4 0 01.76-1.39 3.65 3.65 0 012-.55 2.65 2.65 0 011.85.69 2.32 2.32 0 01.74 1.8 1.24 1.24 0 01-.16.72 12.48 12.48 0 01-2.52.31c-1.37.1-2.38.15-3 .15m3.43-5a4.91 4.91 0 00-4 1.75 6.45 6.45 0 00-1.44 4.23c0 3.62 1.94 5.85 5.23 5.85a6.63 6.63 0 004.17-1.36 1.45 1.45 0 00-.38-1 5.26 5.26 0 01-3.12.86c-2.28 0-3.79-1.29-3.89-4.1l1.75-.15a34.83 34.83 0 005.79-.76 4.24 4.24 0 00.24-1.42 3.82 3.82 0 00-1.13-2.71 4.18 4.18 0 00-3.25-1.21zm9.33 11.6c-.12-1.18-.19-3.46-.19-6.82v-3h1.53a27.8 27.8 0 013.31.14v-1.63h-7c.12 1.28.16 2.72.16 4.32v1.08c0 2.38 0 4.32-.16 5.88zm11.18-10.27c2.28 0 3.39 2 3.39 4.84a5 5 0 01-1.2 3.7 3.14 3.14 0 01-1.71.55c-2.21 0-3.6-1.82-3.6-5a4.82 4.82 0 011.06-3.43 2.75 2.75 0 012.06-.67m.39-1.44a5.18 5.18 0 00-4 1.7 6.31 6.31 0 00-1.56 4.44 6.22 6.22 0 001.41 4.22 5.37 5.37 0 007.71 0 6.39 6.39 0 001.49-4.35c-.01-3.68-1.86-6-5.05-6zm10.77 1.85a8.57 8.57 0 011.66-.09 8.82 8.82 0 011.68.09v8.43h-5.09c1-1.06 1.73-4.18 1.75-8.43m-3 12.72v-2.85h8.23v2.85h1.73v-4.29h-1.51c-.07-.77-.12-2.23-.12-4.39v-.77c0-1.95.05-3.53.14-4.71h-7.36a20 20 0 01.14 2.4 18.81 18.81 0 01-.67 5c-.43 1.63-1 2.45-1.56 2.45h-.75v4.29zm21.77-2.85c-.1-1.61-.14-3.36-.14-5.23v-.77c0-2.43 0-4.2.14-5.31h-2.28a27.15 27.15 0 01.17 3.6v1a34.9 34.9 0 01-5.28 0v-.8a35.45 35.45 0 01.14-3.75h-2.3c.12 1.11.17 2.88.17 5.33v.7c0 2.13-.05 3.91-.17 5.28h2.3c-.09-.89-.14-2.35-.14-4.35v-.93a34.9 34.9 0 015.28 0v.93a40.79 40.79 0 01-.17 4.35zm9.79-5.91a4.46 4.46 0 01-1 .1c-2.16 0-3.24-.74-3.24-2.26a2.25 2.25 0 01.81-1.7 3.76 3.76 0 011.95-.38 6.13 6.13 0 011.46.12zm2.14 5.91c-.12-1.54-.17-3.24-.17-5.09v-1.13a49.05 49.05 0 01.17-5A20.53 20.53 0 00569 959a6.29 6.29 0 00-3.46.88 3 3 0 001.22 5.5c-.17.24-.48.75-1 1.54s-.91 1.46-1.32 2.06-.75 1.08-1 1.42a5.26 5.26 0 002 .29 4.88 4.88 0 001.13-1.51c.36-.58.93-1.61 1.2-2.09.14-.24.28-.48.45-.72.36-.51.58-.72.77-.72h1.39v4.8zm17.01 0c-.09-1-.14-2.76-.14-5.38v-1c0-1.85.05-3.5.14-5h-2.16q.15 1.66.15 4.23V969l-1.92.07a16.44 16.44 0 01-1.92-.07v-5.71a39.58 39.58 0 01.17-4.16h-2.19c.07 1 .12 2.43.12 4.23V969l-1.92.07a16.17 16.17 0 01-1.89-.07v-5.69c0-1.68 0-3.07.14-4.18h-2.18a49.34 49.34 0 01.16 4.95v1c0 2 0 3.81-.16 5.35zm12.99 0c-.1-1.61-.15-3.36-.15-5.23v-.77q0-3.64.15-5.31h-2.28a27.15 27.15 0 01.17 3.6v1a22.5 22.5 0 01-2.64.1 22.27 22.27 0 01-2.64-.1v-.8a32.88 32.88 0 01.14-3.75H593c.12 1.11.16 2.88.16 5.33v.7c0 2.13 0 3.91-.16 5.28h2.3c-.1-.89-.14-2.35-.14-4.35v-.93a22.27 22.27 0 012.64-.1 22.5 22.5 0 012.64.1v.93a40.79 40.79 0 01-.17 4.35zm13.1 0c-.07-1.3-.12-2.88-.12-4.75v-1.61c0-1.75 0-3.41.12-4.95h-1.77c-.32.6-1.3 2-2.91 4.32s-2.54 3.68-2.85 4.2h-.1c.09-.84.14-2.13.14-3.93v-1.66a23.35 23.35 0 01.12-2.93H606c.12 1.42.17 3.08.17 4.92v1c0 2.38 0 4.18-.17 5.38h1.85c.43-.75 1.41-2.23 3-4.42s2.47-3.57 2.78-4.13h.08c-.08.82-.1 2.24-.1 4.25v1.35a19.58 19.58 0 01-.17 3zm4.83-6.6a5 5 0 01.36-1.73 4 4 0 01.76-1.39 3.65 3.65 0 012-.55 2.65 2.65 0 011.85.69 2.32 2.32 0 01.74 1.8 1.24 1.24 0 01-.16.72 12.48 12.48 0 01-2.52.31c-1.37.1-2.38.15-3 .15m3.43-5a4.91 4.91 0 00-4 1.75 6.45 6.45 0 00-1.44 4.23c0 3.62 1.94 5.85 5.23 5.85a6.63 6.63 0 004.17-1.36 1.45 1.45 0 00-.38-1 5.26 5.26 0 01-3.12.86c-2.28 0-3.79-1.29-3.89-4.1l1.75-.15a34.83 34.83 0 005.79-.76 4.24 4.24 0 00.24-1.42 3.82 3.82 0 00-1.13-2.71 4.18 4.18 0 00-3.25-1.21zm-437.36 30.22a5.73 5.73 0 012.83-.74c1.51 0 2.33.74 2.33 1.92a2.07 2.07 0 01-2.28 1.92 5.23 5.23 0 01-1.54-.17 1.57 1.57 0 000 1.46 6 6 0 011.66-.16c1.53 0 2.66.74 2.66 2a2 2 0 01-.91 1.78 3.89 3.89 0 01-1.8.36 5.31 5.31 0 01-3-.89 2.31 2.31 0 00-.64 1.32 4 4 0 001.44.65 7.44 7.44 0 002.11.31c2.9 0 5-1.25 5-3.67a2.6 2.6 0 00-2.52-2.55v-.12a2.9 2.9 0 002-2.73c0-1.63-1.25-2.86-3.62-2.86a8.28 8.28 0 00-4 .87 2.84 2.84 0 00.36 1.29m12.06 6.2a2.18 2.18 0 01.58-1.51 5.19 5.19 0 012.9-.57 7.87 7.87 0 011.37.19v2.35a3.41 3.41 0 01-2.86 1.58 1.93 1.93 0 01-2-2m6.89-4c0-3.14-1.18-4.34-3.65-4.34a10.85 10.85 0 00-4.7 1.24 1.5 1.5 0 00.43 1.2 7.22 7.22 0 013.43-1c1.92 0 2.45 1 2.43 3.57-4.9.07-6.91 1.08-6.91 3.75a3 3 0 003.14 3 4.73 4.73 0 003.81-1.89h.08a11.53 11.53 0 00.17 1.87l1.94-.19a35.77 35.77 0 01-.17-4.83zm6.32-2.64a8.57 8.57 0 011.66-.09 8.82 8.82 0 011.68.09v8.43h-5.09c1-1.06 1.73-4.18 1.75-8.43m-3 12.72v-2.85h8.23v2.85h1.73v-4.29h-1.51c-.07-.77-.12-2.23-.12-4.39V992c0-2 .05-3.53.14-4.71H210a20 20 0 01.14 2.4 18.81 18.81 0 01-.67 5c-.43 1.63-1 2.45-1.56 2.45h-.75v4.29zm13.64-6.12a2.22 2.22 0 01.57-1.51 5.21 5.21 0 012.9-.57 7.75 7.75 0 011.37.19v2.35a3.39 3.39 0 01-2.85 1.58 1.92 1.92 0 01-2-2m6.88-4c0-3.14-1.17-4.34-3.65-4.34a10.85 10.85 0 00-4.7 1.24 1.5 1.5 0 00.43 1.2 7.25 7.25 0 013.43-1c1.92 0 2.45 1 2.43 3.57-4.9.07-6.91 1.08-6.91 3.75a3 3 0 003.14 3 4.77 4.77 0 003.82-1.89h.07a12.86 12.86 0 00.17 1.87l1.94-.19a35.77 35.77 0 01-.17-4.83zm2.65-4.08a19.52 19.52 0 01.15 2.88v1.06c0 2.52 1.24 3.53 3.45 3.53a6.68 6.68 0 003.17-.87v1.32a16.45 16.45 0 01-.22 3.39H241c-.12-1.13-.17-2.86-.17-5.19v-1c0-2.14.05-3.82.17-5.07h-2.33a29.87 29.87 0 01.17 3.48v2a5 5 0 01-2.42.53c-1.61 0-2.21-.77-2.21-2.61 0-1.06.05-2.21.17-3.44zm22.01 11.31c-.07-1.3-.12-2.88-.12-4.75v-1.61c0-1.75.05-3.41.12-5h-1.78c-.31.6-1.29 2-2.9 4.32s-2.54 3.68-2.86 4.2h-.12a36.53 36.53 0 00.15-3.93v-1.66a23.35 23.35 0 01.12-2.93h-2.28c.12 1.42.17 3.08.17 4.92v1c0 2.38 0 4.18-.17 5.38h1.85c.43-.75 1.41-2.23 2.95-4.42s2.47-3.57 2.78-4.13h.07c-.07.82-.09 2.24-.09 4.25v1.35a19.58 19.58 0 01-.17 3zM1095 329.13c-.08-1-.11-2.56-.11-4.53v-.53q0-3.49.09-4.62h-1.61c.06.8.09 2.21.09 4.22h-4.48c0-2 0-3.37.1-4.22h-1.63c.08.85.11 2.41.11 4.7v.5c0 2 0 3.53-.11 4.48h1.63c-.06-.95-.1-2.43-.1-4.5h4.48c0 2.07 0 3.55-.09 4.5zm3.17-4.4a3.33 3.33 0 01.24-1.15 2.66 2.66 0 01.51-.93 2.44 2.44 0 011.31-.37 1.79 1.79 0 011.24.46 1.57 1.57 0 01.49 1.2.81.81 0 01-.11.48 8.14 8.14 0 01-1.68.21c-.91.07-1.58.1-2 .1m2.29-3.35a3.29 3.29 0 00-2.69 1.17 4.3 4.3 0 00-1 2.82c0 2.41 1.3 3.9 3.49 3.9a4.43 4.43 0 002.78-.91 1 1 0 00-.25-.67 3.53 3.53 0 01-2.08.57c-1.52 0-2.53-.86-2.6-2.73l1.17-.1a22.87 22.87 0 003.86-.51 2.9 2.9 0 00.16-.94 2.55 2.55 0 00-.75-1.81 2.8 2.8 0 00-2.09-.79zm5.65 3.8a3.86 3.86 0 01.3-1.81 2.19 2.19 0 011.87-.91c1.17 0 1.87 1.15 1.87 3.07a3.63 3.63 0 01-.68 2.43 1.69 1.69 0 01-1.22.45c-1.28 0-2.14-1.23-2.14-3.23m2.49-3.6a3.23 3.23 0 00-2.94 1.79h-.05a5.77 5.77 0 01.4-2.07 2.92 2.92 0 01.56-.91 3.65 3.65 0 012.37-1 3.68 3.68 0 002.08-.57 2.08 2.08 0 000-1.28 3.45 3.45 0 01-2 .6 4 4 0 00-3.26 1.91 8.29 8.29 0 00-1 4.33c0 3.19 1.28 5 3.45 5a3 3 0 002.52-1.15 4.85 4.85 0 00.91-3c-.06-2.36-1.23-3.65-3.04-3.65zm7.81.7c1.52 0 2.26 1.36 2.26 3.23a3.36 3.36 0 01-.8 2.47 2.1 2.1 0 01-1.14.36c-1.47 0-2.4-1.21-2.4-3.32a3.25 3.25 0 01.7-2.29 1.85 1.85 0 011.38-.45m.26-1a3.46 3.46 0 00-2.68 1.14 4.22 4.22 0 00-1 3 4.1 4.1 0 001 2.81 3.57 3.57 0 005.13 0 4.22 4.22 0 001-2.9c-.12-2.46-1.33-4.01-3.45-4.01zm11.21 7.85c-.05-.74-.08-1.95-.08-3.65v-.59c0-1.55 0-2.64.08-3.3h-5.09a8.31 8.31 0 01.13 1.59v.43c0 3.21-.54 4.56-1.68 4.38a2 2 0 000 1.28c2 .31 2.85-1.63 2.85-5.55v-1.17h2.36v3.31a29.53 29.53 0 01-.12 3.27zm6.48-2.51a1.61 1.61 0 01-.65 1.42 2.31 2.31 0 01-1.24.26 2.9 2.9 0 01-1-.13 20.17 20.17 0 010-3.11c1.85-.43 2.94.21 2.94 1.56m-4.38-5a25.37 25.37 0 01.11 3.07v.6c0 1.8 0 3.07-.1 3.79a12.49 12.49 0 002.23.17c2.3 0 3.47-1 3.47-2.6a2.3 2.3 0 00-1.15-2.18 4.29 4.29 0 00-3.12-.19v-.85a11.57 11.57 0 01.09-1.81zm16.38 7.51c-.06-.64-.1-1.84-.1-3.59v-.64c0-1.23 0-2.33.1-3.31H1145c.06.74.1 1.68.1 2.82v3.76l-1.28.05a11.48 11.48 0 01-1.28-.05v-3.81a26.45 26.45 0 01.11-2.77h-1.46c0 .69.08 1.62.08 2.82v3.76l-1.28.05a11.31 11.31 0 01-1.26-.05v-3.79q0-1.68.09-2.79h-1.45a32.6 32.6 0 01.11 3.3v.67c0 1.36 0 2.54-.11 3.57zm5.3-6.85c1.52 0 2.25 1.36 2.25 3.23a3.32 3.32 0 01-.8 2.47 2.06 2.06 0 01-1.13.36c-1.48 0-2.4-1.21-2.4-3.32a3.25 3.25 0 01.7-2.29 1.82 1.82 0 011.38-.45m.25-1a3.44 3.44 0 00-2.67 1.14 4.7 4.7 0 00-.1 5.77 3.59 3.59 0 005.14 0 4.22 4.22 0 001-2.9c-.01-2.42-1.24-3.97-3.33-3.97zm6.13 3.45a3.33 3.33 0 01.24-1.15 2.66 2.66 0 01.51-.93 2.44 2.44 0 011.31-.37 1.79 1.79 0 011.24.46 1.57 1.57 0 01.49 1.2.81.81 0 01-.11.48 8.14 8.14 0 01-1.68.21c-.91.07-1.58.1-2 .1m2.29-3.35a3.29 3.29 0 00-2.69 1.17 4.3 4.3 0 00-1 2.82c0 2.41 1.3 3.9 3.49 3.9a4.43 4.43 0 002.78-.91 1 1 0 00-.25-.67 3.53 3.53 0 01-2.08.57c-1.52 0-2.53-.86-2.6-2.73l1.17-.1a22.87 22.87 0 003.86-.51 2.9 2.9 0 00.16-.94 2.55 2.55 0 00-.75-1.81 2.8 2.8 0 00-2.09-.79zm14.22 7.75c0-.87-.08-1.92-.08-3.17v-1.07c0-1.17 0-2.27.08-3.3h-1.18c-.21.4-.87 1.36-1.94 2.88s-1.69 2.45-1.9 2.8h-.08c.06-.56.09-1.42.09-2.62v-1.11a17 17 0 01.08-2h-1.52c.08 1 .12 2.05.12 3.28v.67c0 1.59 0 2.79-.12 3.59h1.24c.28-.5.94-1.49 2-2.95s1.65-2.38 1.86-2.75c0 .55-.07 1.49-.07 2.83v.9a13.11 13.11 0 01-.11 2zm2.29-6.31a3.83 3.83 0 011.89-.49c1 0 1.55.49 1.55 1.28a1.38 1.38 0 01-1.52 1.28 3.47 3.47 0 01-1-.11 1 1 0 000 1 3.91 3.91 0 011.1-.11c1 0 1.78.5 1.78 1.34a1.34 1.34 0 01-.61 1.19 2.61 2.61 0 01-1.2.24 3.51 3.51 0 01-2-.59 1.51 1.51 0 00-.44.88 2.92 2.92 0 001 .43 5 5 0 001.41.21c1.94 0 3.31-.84 3.31-2.45a1.74 1.74 0 00-1.68-1.7v-.08a1.93 1.93 0 001.32-1.82c0-1.09-.84-1.91-2.42-1.91a5.6 5.6 0 00-2.64.58 1.8 1.8 0 00.24.86m8.09 6.28c0-1.76 0-3.71.06-5.86h.08c.11.32.34.83.67 1.55l.59 1.25.74 1.65h.75l.63-1.26c.59-1.27 1.07-2.31 1.4-3.16h.1v5.83h1.46c-.18-1.33-.29-3.25-.37-5.76v-1.78h-1.3q-.33.89-2 4.39h-.07c-.48-.92-1.18-2.39-2.09-4.39h-1.36l-.13 2.69c-.13 2.22-.26 3.84-.37 4.85zm9.53-4.4a3.33 3.33 0 01.24-1.15 2.66 2.66 0 01.51-.93 2.45 2.45 0 011.32-.37 1.79 1.79 0 011.23.46 1.57 1.57 0 01.49 1.2.81.81 0 01-.11.48 8.14 8.14 0 01-1.68.21c-.91.07-1.58.1-2 .1m2.29-3.35a3.29 3.29 0 00-2.69 1.17 4.3 4.3 0 00-1 2.82c0 2.41 1.3 3.9 3.49 3.9a4.43 4.43 0 002.78-.91 1 1 0 00-.25-.67 3.5 3.5 0 01-2.08.57c-1.52 0-2.53-.86-2.59-2.73l1.16-.1a22.87 22.87 0 003.86-.51 2.9 2.9 0 00.16-.94 2.55 2.55 0 00-.75-1.81 2.8 2.8 0 00-2.09-.79zm11.04 7.75c-.06-1.07-.1-2.24-.1-3.49v-.51c0-1.62 0-2.8.1-3.54h-1.52a18.29 18.29 0 01.11 2.4v.67a22.16 22.16 0 01-3.52 0v-.57a20.73 20.73 0 01.1-2.5h-1.54c.08.74.11 1.92.11 3.55v.47c0 1.42 0 2.61-.11 3.52h1.54a28.35 28.35 0 01-.1-2.9v-.62a22.16 22.16 0 013.52 0v.62a27.44 27.44 0 01-.11 2.9zm3.22-4.4a3.33 3.33 0 01.24-1.15 2.51 2.51 0 01.51-.93 2.39 2.39 0 011.31-.37 1.75 1.75 0 011.23.46 1.54 1.54 0 01.5 1.2.81.81 0 01-.11.48 8.14 8.14 0 01-1.68.21c-.92.07-1.59.1-2 .1m2.28-3.35a3.27 3.27 0 00-2.68 1.17 4.3 4.3 0 00-1 2.82c0 2.41 1.29 3.9 3.48 3.9a4.46 4.46 0 002.79-.91.93.93 0 00-.26-.67 3.5 3.5 0 01-2.08.57c-1.52 0-2.53-.86-2.59-2.73l1.17-.1a22.75 22.75 0 003.85-.51 2.66 2.66 0 00.16-.94 2.51 2.51 0 00-.75-1.81 2.77 2.77 0 00-2.09-.79zm11.04 7.75a62.79 62.79 0 01-.09-3.49v-.51q0-2.43.09-3.54H1223a17.94 17.94 0 01.12 2.4v.67a14.16 14.16 0 01-1.76.07 14 14 0 01-1.76-.07v-.57a23.84 23.84 0 01.09-2.5h-1.53c.08.74.11 1.92.11 3.55v.47c0 1.42 0 2.61-.11 3.52h1.53c-.06-.59-.09-1.57-.09-2.9v-.62a14 14 0 011.76-.07 14.16 14.16 0 011.76.07v.62a27 27 0 01-.12 2.9zm8.74 0c0-.87-.08-1.92-.08-3.17v-1.07c0-1.17 0-2.27.08-3.3H1232c-.21.4-.87 1.36-1.94 2.88s-1.7 2.45-1.9 2.8h-.08c.06-.56.09-1.42.09-2.62v-1.11a14.89 14.89 0 01.08-2h-1.52c.08 1 .11 2.05.11 3.28v.67c0 1.59 0 2.79-.11 3.59h1.27c.29-.5 1-1.49 2-2.95s1.65-2.38 1.86-2.75c0 .55-.06 1.49-.06 2.83v.9a13.11 13.11 0 01-.11 2zm3.21-4.4a3.33 3.33 0 01.24-1.15 2.5 2.5 0 01.52-.93 2.39 2.39 0 011.31-.37 1.79 1.79 0 011.23.46 1.54 1.54 0 01.5 1.2.74.74 0 01-.12.48 7.91 7.91 0 01-1.68.21c-.91.07-1.58.1-2 .1m2.29-3.35a3.29 3.29 0 00-2.69 1.17 4.3 4.3 0 00-1 2.82c0 2.41 1.3 3.9 3.49 3.9a4.48 4.48 0 002.79-.91.93.93 0 00-.26-.67 3.5 3.5 0 01-2.08.57c-1.52 0-2.53-.86-2.59-2.73l1.17-.1a22.89 22.89 0 003.85-.51 2.9 2.9 0 00.16-.94 2.51 2.51 0 00-.75-1.81 2.8 2.8 0 00-2.09-.79zm14.05 7.75c-.06-.91-.1-2.13-.1-3.67v-.59c0-.48 0-1.57.1-3.28h-6.27c.08 1.19.11 2.27.11 3.27v.68c0 1.08 0 2.26-.11 3.59h1.51c-.06-.95-.09-2.39-.09-4.35v-2.23a13.5 13.5 0 011.69-.06 14.27 14.27 0 011.73.06v2.18c0 2 0 3.45-.13 4.4zm3.71-5.59a2.25 2.25 0 011.25-1 1.91 1.91 0 01.61-.06c1.17 0 1.85 1 1.85 2.73a3.57 3.57 0 01-.92 2.75 2.69 2.69 0 01-1.68.47 3 3 0 01-1.11-.19zm-1.45-1.87c.08.91.12 2.47.12 4.69v.78c0 2.66 0 4.36-.12 5.09h1.55a25 25 0 01-.1-2.61v-.44a4.87 4.87 0 001 .12 4 4 0 004.14-4.3c0-2-.88-3.2-2.34-3.46a2.89 2.89 0 00-1.1.2 2.33 2.33 0 00-1.78 1v-1.24zm11.44.61c1.52 0 2.25 1.36 2.25 3.23a3.32 3.32 0 01-.8 2.47 2.06 2.06 0 01-1.13.36c-1.48 0-2.4-1.21-2.4-3.32a3.25 3.25 0 01.7-2.29 1.82 1.82 0 011.38-.45m.25-1a3.44 3.44 0 00-2.67 1.14 4.7 4.7 0 00-.1 5.77 3.59 3.59 0 005.14 0 4.22 4.22 0 001-2.9c-.01-2.42-1.24-3.97-3.37-3.97zm11.47 7.85c-.06-.91-.09-2.13-.09-3.67v-.59c0-.48 0-1.57.09-3.28h-6.27c.08 1.19.11 2.27.11 3.27v.68c0 1.08 0 2.26-.11 3.59h1.54c-.07-.95-.1-2.39-.1-4.35v-2.23a13.59 13.59 0 011.7-.06 14.47 14.47 0 011.73.06v2.18c0 2 0 3.45-.13 4.4zm5.28-6.85c1.52 0 2.26 1.36 2.26 3.23a3.32 3.32 0 01-.8 2.47 2.07 2.07 0 01-1.14.36c-1.47 0-2.4-1.21-2.4-3.32a3.2 3.2 0 01.71-2.29 1.81 1.81 0 011.37-.45m.26-1a3.44 3.44 0 00-2.67 1.14 4.7 4.7 0 00-.1 5.77 3.59 3.59 0 005.14 0 4.27 4.27 0 001-2.9c-.01-2.42-1.24-3.97-3.37-3.97zm6.64 2.26a2.25 2.25 0 011.25-1 1.91 1.91 0 01.61-.06c1.16 0 1.85 1 1.85 2.73a3.53 3.53 0 01-.93 2.75 2.69 2.69 0 01-1.68.47 3 3 0 01-1.1-.19zm-1.46-1.87c.08.91.13 2.47.13 4.69v.78c0 2.66 0 4.36-.13 5.09h1.56a25 25 0 01-.1-2.61v-.44a4.78 4.78 0 001 .12 4 4 0 004.15-4.3c0-2-.88-3.2-2.34-3.46a2.89 2.89 0 00-1.1.2 2.33 2.33 0 00-1.78 1v-1.24zm14.55 3.38c0-1.44 0-2.59.09-3.46H1302c.08.82.11 1.92.11 3.31v3.27a13.81 13.81 0 01-1.68.06 13.33 13.33 0 01-1.66-.06v-3.27c0-1.4 0-2.51.09-3.31h-1.53c.08.87.11 2 .11 3.27v.46c0 1.47 0 2.74-.11 3.81h6V331h1.15v-2.86h-1zm8.83 4.08c0-.87-.08-1.92-.08-3.17v-1.07c0-1.17 0-2.27.08-3.3h-1.18c-.21.4-.87 1.36-1.94 2.88s-1.7 2.45-1.9 2.8h-.08c.06-.56.09-1.42.09-2.62v-1.11a14.89 14.89 0 01.08-2h-1.52c.08 1 .11 2.05.11 3.28v.67c0 1.59 0 2.79-.11 3.59h1.23c.29-.5 1-1.49 2-2.95s1.65-2.38 1.86-2.75c0 .55-.07 1.49-.07 2.83v.9a13.11 13.11 0 01-.11 2zm4.3-11.03a1.39 1.39 0 00-1 .45 2 2 0 002.18 1.71 2.18 2.18 0 002.3-1.84c-.09-.14-.3-.2-.6-.19a1.4 1.4 0 01-1.44 1.2 1.45 1.45 0 01-1.48-1.33m4.44 11c0-.87-.08-1.92-.08-3.17v-1.07c0-1.17 0-2.27.08-3.3h-1.19c-.21.4-.86 1.36-1.93 2.88s-1.7 2.45-1.91 2.8h-.08a23.5 23.5 0 00.1-2.62v-1.11a14.89 14.89 0 01.08-2h-1.52c.08 1 .11 2.05.11 3.28v.67c0 1.59 0 2.79-.11 3.59h1.23c.29-.5.94-1.49 2-2.95s1.65-2.38 1.85-2.75h.05c-.05.55-.06 1.49-.06 2.83v.9a13.11 13.11 0 01-.11 2zm6.4-3.92a3.84 3.84 0 01.31-1.81 2.19 2.19 0 011.87-.91c1.17 0 1.87 1.15 1.87 3.07a3.58 3.58 0 01-.69 2.43 1.66 1.66 0 01-1.21.45c-1.28 0-2.15-1.23-2.15-3.23m2.5-3.6a3.22 3.22 0 00-2.94 1.79 5.57 5.57 0 01.4-2.07 2.75 2.75 0 01.56-.91 3.65 3.65 0 012.37-1 3.68 3.68 0 002.08-.57 2.15 2.15 0 000-1.28 3.48 3.48 0 01-2 .6A4 4 0 001327 320a8.39 8.39 0 00-1 4.33c0 3.19 1.28 5 3.45 5a3 3 0 002.51-1.15 4.8 4.8 0 00.92-3c-.02-2.31-1.19-3.6-3-3.6zm6.94 7.55h.4a9.88 9.88 0 01-1.64 2.65 1.21 1.21 0 001 .74 21 21 0 002.1-4.83l.59-1.71.69-2.1c.36-1.07.62-1.84.8-2.29h-1.3c-.18.83-.46 1.94-.85 3.3a30.8 30.8 0 01-.93 3h-.08c-1.21-3.27-1.92-5.35-2.12-6.26h-1.72zm9.72-7.54c-.34.45-.77 1-1.41 1.81s-1.2 1.36-1.38 1.36h-.33V324c0-1 0-1.87.09-2.43H1342c.08 1 .11 2.11.11 3.43v.56c0 1.42 0 2.6-.11 3.55h1.53q-.09-.94-.09-3.06v-.67h.33c.18 0 .45.32.8.93.24.37.67 1.05 1.11 1.63l.2.27a6.47 6.47 0 00.93 1.07 3.53 3.53 0 001.44-.22 21.43 21.43 0 01-2.35-3l-.83-1.18c.25-.26.78-.82 1.57-1.7s1.29-1.42 1.5-1.63zm4.52 4.03a10.45 10.45 0 011.32-.06c1 0 1.82.38 1.82 1.33a1.48 1.48 0 01-.62 1.33 3.83 3.83 0 01-1.44.19 3.18 3.18 0 01-1.08-.13zm0-3.23a4.25 4.25 0 011.12-.13c1.16 0 1.73.42 1.73 1.25a1.34 1.34 0 01-1.17 1.27 8.24 8.24 0 01-1.68 0zm1.22-1a19.57 19.57 0 00-2.66.19c.08.88.12 2 .12 3.2v.63c0 1.48 0 2.73-.12 3.71a13.21 13.21 0 002.34.17c2.19 0 3.6-.84 3.6-2.36a1.73 1.73 0 00-1.68-1.84V325a1.87 1.87 0 001.38-1.75c0-1.25-1-1.85-2.98-1.85zm-258.46 26.46c0-.87-.08-1.92-.08-3.17v-1.07c0-1.17 0-2.27.08-3.3h-1.19c-.2.4-.86 1.36-1.93 2.88s-1.7 2.45-1.91 2.8h-.08a23.5 23.5 0 00.1-2.62v-1.11a14.89 14.89 0 01.08-1.95h-1.52c.08.95.11 2.05.11 3.28v.67c0 1.59 0 2.79-.11 3.59h1.23c.29-.5 1-1.49 2-3s1.65-2.38 1.86-2.75c0 .55-.06 1.49-.06 2.83v.9a13.11 13.11 0 01-.11 2zm7.37-6.58a5.48 5.48 0 011.11-.06 5.6 5.6 0 011.12.06v5.62H1100c.68-.71 1.15-2.79 1.16-5.62m-2 8.48v-1.9h5.49v1.9h1.15v-2.86h-1c0-.51-.08-1.49-.08-2.93v-.51c0-1.3 0-2.35.09-3.14h-4.91a13.33 13.33 0 01.1 1.6 12.58 12.58 0 01-.45 3.35c-.29 1.08-.64 1.63-1 1.63h-.5v2.86zm11.19-8.75c1.52 0 2.25 1.36 2.25 3.23a3.32 3.32 0 01-.8 2.47 2.06 2.06 0 01-1.13.36c-1.48 0-2.4-1.21-2.4-3.32a3.25 3.25 0 01.7-2.29 1.82 1.82 0 011.38-.45m.25-1a3.44 3.44 0 00-2.67 1.14 4.7 4.7 0 00-.1 5.77 3.59 3.59 0 005.14 0 4.22 4.22 0 001-2.9c.03-2.42-1.24-4.01-3.37-4.01zm6.64 4.34a10.38 10.38 0 011.31-.06c1 0 1.83.38 1.83 1.33a1.47 1.47 0 01-.63 1.33 3.76 3.76 0 01-1.44.19 3.11 3.11 0 01-1.07-.13zm0-3.23a4.25 4.25 0 011.12-.13c1.15 0 1.73.42 1.73 1.25a1.34 1.34 0 01-1.17 1.27 8.24 8.24 0 01-1.68 0zm1.22-1a19.57 19.57 0 00-2.66.19c.08.88.11 1.95.11 3.2v.63c0 1.48 0 2.73-.11 3.71a13.13 13.13 0 002.34.17c2.19 0 3.6-.84 3.6-2.36a1.73 1.73 0 00-1.68-1.84v-.08a1.86 1.86 0 001.37-1.75c0-1.24-.99-1.86-2.97-1.86zm6.16 3.34a3.33 3.33 0 01.24-1.15 2.51 2.51 0 01.51-.93 2.42 2.42 0 011.31-.37 1.75 1.75 0 011.23.46 1.54 1.54 0 01.5 1.2.81.81 0 01-.11.48 8.14 8.14 0 01-1.68.21c-.91.07-1.59.1-2 .1m2.29-3.35a3.28 3.28 0 00-2.69 1.17 4.3 4.3 0 00-1 2.82c0 2.41 1.29 3.9 3.49 3.9a4.43 4.43 0 002.78-.91.93.93 0 00-.26-.67 3.48 3.48 0 01-2.08.57c-1.52 0-2.52-.86-2.59-2.73l1.17-.1a23 23 0 003.86-.51 2.9 2.9 0 00.16-.94 2.52 2.52 0 00-.76-1.81 2.76 2.76 0 00-2.08-.79zm6.65 1.17a5.48 5.48 0 011.11-.06 5.6 5.6 0 011.12.06v5.62h-3.4c.69-.71 1.16-2.79 1.17-5.62m-2 8.48v-1.9h5.49v1.9h1.15v-2.86h-1c0-.51-.08-1.49-.08-2.93v-.51c0-1.3 0-2.35.1-3.14h-4.91a13.41 13.41 0 01.09 1.6 12.58 12.58 0 01-.44 3.35c-.29 1.08-.64 1.63-1 1.63h-.5v2.86zm9.07-6.3a3.33 3.33 0 01.24-1.15 2.5 2.5 0 01.52-.93 2.39 2.39 0 011.31-.37 1.79 1.79 0 011.23.46 1.54 1.54 0 01.5 1.2.81.81 0 01-.12.48 7.91 7.91 0 01-1.68.21c-.91.07-1.58.1-2 .1m2.29-3.35a3.29 3.29 0 00-2.69 1.17 4.3 4.3 0 00-1 2.82c0 2.41 1.3 3.9 3.49 3.9a4.48 4.48 0 002.79-.91.93.93 0 00-.26-.67 3.5 3.5 0 01-2.08.57c-1.52 0-2.53-.86-2.59-2.73l1.17-.1a22.89 22.89 0 003.85-.51 2.9 2.9 0 00.16-.94 2.51 2.51 0 00-.75-1.81 2.8 2.8 0 00-2.09-.79zm11.08 7.75a62.79 62.79 0 01-.09-3.49v-.51q0-2.43.09-3.54h-1.52a18.29 18.29 0 01.11 2.4v.67a14 14 0 01-1.76.07 14.16 14.16 0 01-1.76-.07v-.57a23.11 23.11 0 01.1-2.5h-1.54c.08.74.12 1.92.12 3.55v.47c0 1.42 0 2.61-.12 3.52h1.54c-.06-.59-.1-1.57-.1-2.9v-.62a14.16 14.16 0 011.76-.07 14 14 0 011.76.07v.67a27.44 27.44 0 01-.11 2.9zm8.7 0c0-.87-.08-1.92-.08-3.17v-1.07c0-1.17 0-2.27.08-3.3h-1.19c-.2.4-.86 1.36-1.93 2.88s-1.7 2.45-1.91 2.8h-.08a23.5 23.5 0 00.1-2.62v-1.11a14.89 14.89 0 01.08-1.95h-1.52c.08.95.11 2.05.11 3.28v.67c0 1.59 0 2.79-.11 3.59h1.23c.29-.5 1-1.49 2-3s1.65-2.38 1.86-2.75c0 .55-.06 1.49-.06 2.83v.9a13.11 13.11 0 01-.11 2zm3.21-4.4a3.33 3.33 0 01.24-1.15 2.5 2.5 0 01.52-.93 2.39 2.39 0 011.33-.37 1.79 1.79 0 011.23.46 1.54 1.54 0 01.5 1.2.81.81 0 01-.12.48 7.91 7.91 0 01-1.68.21c-.91.07-1.58.1-2 .1m2.29-3.35a3.29 3.29 0 00-2.69 1.17 4.3 4.3 0 00-1 2.82c0 2.41 1.3 3.9 3.49 3.9a4.48 4.48 0 002.79-.91.93.93 0 00-.26-.67 3.5 3.5 0 01-2.08.57c-1.52 0-2.53-.86-2.59-2.73l1.17-.1a22.89 22.89 0 003.85-.51 2.9 2.9 0 00.16-.94 2.51 2.51 0 00-.75-1.81 2.8 2.8 0 00-2.11-.79zm14.21 7.75c0-.87-.08-1.92-.08-3.17v-1.07c0-1.17 0-2.27.08-3.3h-1.19c-.21.4-.86 1.36-1.93 2.88s-1.7 2.45-1.91 2.8h-.08a23.5 23.5 0 00.1-2.62v-1.11a14.89 14.89 0 01.08-1.95h-1.5c.08.95.11 2.05.11 3.28v.67c0 1.59 0 2.79-.11 3.59h1.23c.29-.5.94-1.49 2-3s1.65-2.38 1.85-2.75c0 .55-.06 1.49-.06 2.83v.9a13.11 13.11 0 01-.11 2zm1.71-7.54a63.47 63.47 0 012.43 3.62q-1 1.53-2.66 3.92h1.43c.51-1 1.1-2 1.79-3.09h.06l.87 1.39c.51.82.86 1.38 1 1.7h1.73c-.72-1-1.62-2.31-2.68-4a43 43 0 012.61-3.59h-1.44c-.37.69-.93 1.6-1.71 2.77h-.08a25.81 25.81 0 01-1.6-2.77zm13.29.96a5.48 5.48 0 011.11-.06 5.6 5.6 0 011.12.06v5.62h-3.39c.68-.71 1.15-2.79 1.16-5.62m-2 8.48v-1.9h5.49v1.9h1.15v-2.86h-1c0-.51-.08-1.49-.08-2.93v-.51c0-1.3 0-2.35.09-3.14h-4.91a13.33 13.33 0 01.1 1.6 12.58 12.58 0 01-.45 3.35c-.29 1.08-.64 1.63-1 1.63h-.5v2.86zm11.16-8.75c1.52 0 2.25 1.36 2.25 3.23a3.32 3.32 0 01-.8 2.47 2.06 2.06 0 01-1.13.36c-1.48 0-2.4-1.21-2.4-3.32a3.25 3.25 0 01.7-2.29 1.82 1.82 0 011.38-.45m.25-1a3.44 3.44 0 00-2.67 1.14 4.7 4.7 0 00-.1 5.77 3.59 3.59 0 005.14 0 4.22 4.22 0 001-2.9c-.01-2.42-1.21-4.01-3.37-4.01zm12.87.31c-.34.45-.77 1-1.41 1.81s-1.2 1.36-1.38 1.36h-.33v-.74c0-1.05 0-1.87.09-2.43h-1.53c.08 1 .11 2.11.11 3.43v.56c0 1.42 0 2.6-.11 3.55h1.53q-.09-.94-.09-3.06v-.67h.33c.18 0 .45.32.8.93.24.37.67 1.05 1.11 1.63l.2.27a6.47 6.47 0 00.97 1.05 3.53 3.53 0 001.44-.22 21.43 21.43 0 01-2.35-3l-.83-1.18c.25-.26.78-.82 1.57-1.7s1.29-1.42 1.5-1.63zm4.52 4.03a10.45 10.45 0 011.32-.06c1 0 1.82.38 1.82 1.33a1.48 1.48 0 01-.62 1.33 3.83 3.83 0 01-1.44.19 3.18 3.18 0 01-1.08-.13zm0-3.23a4.25 4.25 0 011.12-.13c1.16 0 1.73.42 1.73 1.25a1.34 1.34 0 01-1.17 1.27 8.24 8.24 0 01-1.68 0zm1.22-1a19.57 19.57 0 00-2.66.19c.08.88.12 1.95.12 3.2v.63c0 1.48 0 2.73-.12 3.71a13.21 13.21 0 002.34.17c2.19 0 3.6-.84 3.6-2.36a1.73 1.73 0 00-1.68-1.84v-.08a1.87 1.87 0 001.38-1.75c0-1.24-1-1.86-2.98-1.86zm6.18 5.56a1.46 1.46 0 01.38-1 3.51 3.51 0 011.94-.38 5.38 5.38 0 01.91.13V346a2.29 2.29 0 01-1.91 1 1.28 1.28 0 01-1.32-1.36m4.59-2.65c0-2.1-.79-2.9-2.43-2.9a7.22 7.22 0 00-3.14.83 1 1 0 00.29.8 4.75 4.75 0 012.29-.67c1.28 0 1.63.67 1.61 2.38-3.26.05-4.61.72-4.61 2.5a2 2 0 002.1 2 3.14 3.14 0 002.54-1.26h.05a10.77 10.77 0 00.08 1.33l1.3-.13a24.15 24.15 0 01-.11-3.22zm4.21-1.72a5.31 5.31 0 011.1-.06 5.6 5.6 0 011.12.06v5.62h-3.39c.69-.71 1.15-2.79 1.17-5.62m-2 8.48v-1.9h5.48v1.9h1.16v-2.86h-1c0-.51-.08-1.49-.08-2.93v-.51c0-1.3 0-2.35.09-3.14h-4.91a11.54 11.54 0 01.1 1.6 12.58 12.58 0 01-.45 3.35c-.29 1.08-.64 1.63-1 1.63h-.5v2.86zm9.57-7.49a2.25 2.25 0 011.25-1 1.91 1.91 0 01.61-.06c1.16 0 1.85 1 1.85 2.73a3.53 3.53 0 01-.93 2.75 2.69 2.69 0 01-1.68.47 3 3 0 01-1.1-.19zm-1.46-1.87c.08.91.13 2.47.13 4.69v.78c0 2.66 0 4.36-.13 5.09h1.56a25 25 0 01-.1-2.61v-.44a4.78 4.78 0 001 .12 4 4 0 004.15-4.3c0-2-.88-3.2-2.34-3.46a2.89 2.89 0 00-1.1.2 2.33 2.33 0 00-1.78 1v-1.24zm9.39 5.28a1.51 1.51 0 01.38-1 3.53 3.53 0 011.94-.38 5.25 5.25 0 01.91.13V346a2.27 2.27 0 01-1.9 1 1.28 1.28 0 01-1.33-1.36m4.59-2.65c0-2.1-.78-2.9-2.43-2.9a7.29 7.29 0 00-3.14.83 1 1 0 00.29.8 4.81 4.81 0 012.29-.67c1.28 0 1.63.67 1.62 2.38-3.27.05-4.61.72-4.61 2.5a2 2 0 002.09 2 3.16 3.16 0 002.55-1.26 8.85 8.85 0 00.11 1.25l1.29-.13a24.15 24.15 0 01-.11-3.22zm1.33-1.57a12 12 0 011.86-.1h.64v1.79a44.23 44.23 0 01-.15 4.74h1.62c-.08-.79-.13-2.35-.13-4.69v-1.84h.64a10.5 10.5 0 011.84.1v-1.11h-6.32zm14.06 6.43a62.79 62.79 0 01-.09-3.49v-.51q0-2.43.09-3.54h-1.52a17.94 17.94 0 01.12 2.4v.67a14.16 14.16 0 01-1.76.07 14 14 0 01-1.76-.07v-.57a23.84 23.84 0 01.09-2.5h-1.53c.08.74.11 1.92.11 3.55v.47c0 1.42 0 2.61-.11 3.52h1.53c-.06-.59-.09-1.57-.09-2.9v-.62a14 14 0 011.76-.07 14.16 14.16 0 011.76.07v.67a27 27 0 01-.12 2.9zm5.3-6.85c1.52 0 2.26 1.36 2.26 3.23a3.36 3.36 0 01-.8 2.47 2.1 2.1 0 01-1.14.36c-1.47 0-2.4-1.21-2.4-3.32a3.25 3.25 0 01.7-2.29 1.85 1.85 0 011.38-.45m.26-1a3.46 3.46 0 00-2.68 1.14 4.22 4.22 0 00-1 3 4.1 4.1 0 001 2.81 3.57 3.57 0 005.13 0 4.22 4.22 0 001-2.9c-.1-2.46-1.33-4.05-3.45-4.05zm7.21-3.18a1.39 1.39 0 00-1 .45 2 2 0 002.18 1.71 2.19 2.19 0 002.3-1.84c-.1-.14-.3-.2-.61-.19a1.39 1.39 0 01-1.44 1.2 1.44 1.44 0 01-1.47-1.33m4.43 11c0-.87-.08-1.92-.08-3.17v-1.07c0-1.17 0-2.27.08-3.3h-1.18c-.21.4-.86 1.36-1.94 2.88s-1.69 2.45-1.9 2.8h-.05c.06-.56.09-1.42.09-2.62v-1.11a14.25 14.25 0 01.09-1.95h-1.52c.08.95.11 2.05.11 3.28v.67c0 1.59 0 2.79-.11 3.59h1.23c.29-.5.94-1.49 2-3s1.65-2.38 1.86-2.75c0 .55-.07 1.49-.07 2.83v.9a13.11 13.11 0 01-.11 2zm8.62-.69a1.94 1.94 0 01-1.6-.87 3.72 3.72 0 01-.66-2.28 3.21 3.21 0 011.11-2.74 2.94 2.94 0 011.69-.21c0 2.83.07 4.85 0 6.05a2.29 2.29 0 01-.56.05m2.56-6.13c1.09 0 2 1.14 2 3a3.41 3.41 0 01-1 2.78 3.23 3.23 0 01-1.82.34c-.05-2.07-.05-4.08 0-6.07a3.62 3.62 0 01.84-.05zm-.64 9.95a18.32 18.32 0 01-.13-2.59V348a3.68 3.68 0 003.06-1 4.46 4.46 0 001.07-3.17c0-1.92-.91-3.28-2.37-3.59a3.31 3.31 0 00-.72 0 3.87 3.87 0 00-1 .16v-.71c0-1.81 0-2.8.06-3a2.33 2.33 0 00-.75-.05 2.73 2.73 0 00-.72.08c.05.45.06 1.39.06 2.83v.67a3.66 3.66 0 00-2.91.93 3.82 3.82 0 00-1.17 3c0 2.22 1.14 3.66 2.75 3.94a4.37 4.37 0 00.69 0 2.18 2.18 0 00.67-.1v.34q0 1.85-.09 2.7zm8.85-9.95c1.52 0 2.26 1.36 2.26 3.23a3.36 3.36 0 01-.8 2.47 2.1 2.1 0 01-1.14.36c-1.47 0-2.4-1.21-2.4-3.32a3.25 3.25 0 01.7-2.29 1.85 1.85 0 011.38-.45m.26-1a3.46 3.46 0 00-2.68 1.14 4.22 4.22 0 00-1 3 4.1 4.1 0 001 2.81 3.57 3.57 0 005.13 0 4.22 4.22 0 001-2.9c-.09-2.46-1.33-4.05-3.45-4.05zm6.64 2.26a2.23 2.23 0 011.24-1 2 2 0 01.61-.06c1.17 0 1.86 1 1.86 2.73a3.57 3.57 0 01-.93 2.75 2.69 2.69 0 01-1.68.47 3 3 0 01-1.1-.19zm-1.46-1.87c.08.91.13 2.47.13 4.69v.78c0 2.66 0 4.36-.13 5.09h1.55q-.09-.93-.09-2.61v-.44a4.71 4.71 0 001 .12 4 4 0 004.14-4.3c0-2-.88-3.2-2.33-3.46a2.91 2.91 0 00-1.11.2 2.31 2.31 0 00-1.77 1v-1.24zm9.46 7.46c0-1.76 0-3.71.06-5.86h.08c.11.32.34.83.67 1.55l.59 1.25.74 1.65h.75l.63-1.26c.59-1.27 1.07-2.31 1.4-3.16h.1v5.83h1.46c-.18-1.33-.29-3.25-.37-5.76v-1.78h-1.3q-.33.88-2 4.39h-.07c-.48-.92-1.18-2.39-2.09-4.39h-1.36l-.13 2.69c-.13 2.22-.26 3.84-.37 4.85zm15.18-3.62c0 1.39 0 2.59-.11 3.62h1.49c-.07-.67-.1-1.92-.1-3.76v-.69a30.52 30.52 0 01.1-3.09h-1.46c0 1 .08 2 .08 3.15zm-2.46 1.11a1.77 1.77 0 01-.58 1.42 2.29 2.29 0 01-1.06.27 2.89 2.89 0 01-1.08-.14 20.17 20.17 0 010-3.11c1.66-.4 2.72.22 2.72 1.56zm-4.12-5a28.89 28.89 0 01.12 3.2v.63a36.31 36.31 0 01-.12 3.63 12.37 12.37 0 002.18.17c2.16 0 3.22-1.08 3.22-2.6a2.23 2.23 0 00-1.11-2.12 3.85 3.85 0 00-2.85-.25v-.87a11.14 11.14 0 01.1-1.79zm-249.48 35.27c.37.75 1.09 2.46 2.19 5.15l1.12 2.69h.66a3.58 3.58 0 01-1.56 1.79 1.32 1.32 0 00.77 1 1.72 1.72 0 00.63-.51 8 8 0 00.94-1.54 19.19 19.19 0 001.15-2.73l.39-1.14.75-2.26c.4-1.16.69-2 .86-2.41h-1.49a21.07 21.07 0 01-.68 2.86c-.44 1.55-.87 2.93-1.3 4.11l-1.14-2.89-1.13-2.9a8.85 8.85 0 01-.39-1.18zm15.54 9.68a62.79 62.79 0 01-.09-3.49v-.51q0-2.43.09-3.54h-1.52a18.29 18.29 0 01.11 2.4v.67a14 14 0 01-1.76.07 14.16 14.16 0 01-1.76-.07v-.57a23.11 23.11 0 01.1-2.5h-1.54c.08.74.12 1.92.12 3.55v.47c0 1.42 0 2.61-.12 3.52h1.54c-.06-.59-.1-1.57-.1-2.9v-.62a14.16 14.16 0 011.76-.07 14 14 0 011.76.07v.62a27.44 27.44 0 01-.11 2.9zm8.7 0c0-.87-.08-1.92-.08-3.17v-1.07c0-1.17 0-2.27.08-3.3h-1.19c-.2.4-.86 1.36-1.93 2.88s-1.7 2.45-1.91 2.8h-.08a23.5 23.5 0 00.1-2.62v-1.11a14.89 14.89 0 01.08-1.95h-1.52c.08.95.11 2.05.11 3.28v.67c0 1.59 0 2.79-.11 3.59h1.23c.29-.5 1-1.49 2-3s1.65-2.38 1.86-2.75c0 .55-.06 1.49-.06 2.83v.9a13.11 13.11 0 01-.11 2zm5.47-.72a2 2 0 01-1.6-.87 3.72 3.72 0 01-.66-2.28 3.21 3.21 0 011.11-2.74 2 2 0 01.93-.24 2 2 0 01.76 0c0 2.83.07 4.85 0 6a2.29 2.29 0 01-.56.05m2.56-6.13c1.09 0 2 1.14 2 3a3.41 3.41 0 01-1 2.78 3.22 3.22 0 01-1.82.34c-.05-2.07-.05-4.08 0-6.07a3.62 3.62 0 01.84.03zm-.64 9.95a18.32 18.32 0 01-.13-2.59v-.38a3.68 3.68 0 003.06-1 4.46 4.46 0 001.07-3.17c0-1.92-.91-3.28-2.37-3.59a3.31 3.31 0 00-.72 0 3.87 3.87 0 00-1 .16v-.71q0-2.71.06-3a2.27 2.27 0 00-.75-.05 2.73 2.73 0 00-.72.08c0 .45.06 1.39.06 2.83v.67a3.68 3.68 0 00-2.91.93 3.82 3.82 0 00-1.17 3c0 2.22 1.14 3.66 2.76 3.94a4.21 4.21 0 00.68 0 2.29 2.29 0 00.68-.1v.34c0 1.23 0 2.13-.1 2.7zm12.29-3.02c0-.87-.08-1.92-.08-3.17v-1.07c0-1.17 0-2.27.08-3.3h-1.18c-.21.4-.87 1.36-1.94 2.88s-1.69 2.45-1.9 2.8h-.08c.06-.56.09-1.42.09-2.62v-1.11a17 17 0 01.08-1.95h-1.52c.08.95.12 2.05.12 3.28v.67c0 1.59 0 2.79-.12 3.59h1.24c.28-.5.94-1.49 2-3s1.65-2.38 1.86-2.75c0 .55-.07 1.49-.07 2.83v.9a13.11 13.11 0 01-.11 2zm8.4-4.08c0-1.44 0-2.59.1-3.46h-1.54c.08.82.11 1.92.11 3.31v3.27a13.61 13.61 0 01-1.68.06 13.43 13.43 0 01-1.66-.06v-3.27c0-1.4 0-2.51.1-3.31h-1.54c.08.87.11 1.95.11 3.27v.46c0 1.47 0 2.74-.11 3.81h6v1.9h1.16v-2.86h-1zm8.83 4.08c0-.87-.08-1.92-.08-3.17v-1.07c0-1.17 0-2.27.08-3.3h-1.18c-.21.4-.86 1.36-1.94 2.88s-1.69 2.45-1.9 2.8h-.08c.06-.56.1-1.42.1-2.62v-1.11a14.89 14.89 0 01.08-1.95h-1.52c.08.95.11 2.05.11 3.28v.67c0 1.59 0 2.79-.11 3.59h1.23c.29-.5.94-1.49 2-3s1.64-2.38 1.85-2.75c0 .55-.06 1.49-.06 2.83v.9a12.91 12.91 0 01-.12 2zm3.73-5.59a2.25 2.25 0 011.25-1 1.91 1.91 0 01.61-.06c1.17 0 1.85 1 1.85 2.73a3.57 3.57 0 01-.92 2.75 2.69 2.69 0 01-1.68.47 3 3 0 01-1.11-.19zm-1.45-1.87c.08.91.12 2.47.12 4.69v.78c0 2.66 0 4.36-.12 5.09h1.55a25 25 0 01-.1-2.61v-.44a4.87 4.87 0 001 .12 4 4 0 004.14-4.3c0-2-.88-3.2-2.34-3.46a2.89 2.89 0 00-1.1.2 2.33 2.33 0 00-1.78 1v-1.24zm11.44.61c1.52 0 2.25 1.36 2.25 3.23a3.32 3.32 0 01-.8 2.47 2.06 2.06 0 01-1.13.36c-1.48 0-2.4-1.21-2.4-3.32a3.25 3.25 0 01.7-2.29 1.82 1.82 0 011.38-.45m.25-1a3.44 3.44 0 00-2.67 1.14 4.7 4.7 0 00-.1 5.77 3.59 3.59 0 005.14 0 4.22 4.22 0 001-2.9c-.01-2.45-1.24-3.97-3.37-3.97zm6.64 4.34a10.38 10.38 0 011.31-.06c1 0 1.83.38 1.83 1.33a1.47 1.47 0 01-.63 1.33 3.76 3.76 0 01-1.44.19 3.11 3.11 0 01-1.07-.13zm0-3.23a4.25 4.25 0 011.12-.13c1.15 0 1.73.42 1.73 1.25a1.34 1.34 0 01-1.17 1.27 8.24 8.24 0 01-1.68 0zm1.22-1a19.57 19.57 0 00-2.66.19c.08.88.11 1.95.11 3.2v.63c0 1.48 0 2.73-.11 3.71a13.13 13.13 0 002.34.17c2.19 0 3.6-.84 3.6-2.36a1.73 1.73 0 00-1.68-1.84v-.08a1.86 1.86 0 001.37-1.75c0-1.24-.99-1.86-2.97-1.86zm6.17 5.56a1.47 1.47 0 01.39-1 3.47 3.47 0 011.93-.38 5.34 5.34 0 01.92.13v1.57a2.29 2.29 0 01-1.91 1.05 1.29 1.29 0 01-1.33-1.36m4.6-2.65c0-2.1-.79-2.9-2.44-2.9a7.22 7.22 0 00-3.13.83 1 1 0 00.29.8 4.75 4.75 0 012.28-.67c1.28 0 1.64.67 1.62 2.38-3.26.05-4.61.72-4.61 2.5a2 2 0 002.1 2 3.15 3.15 0 002.54-1.26h.05a8.85 8.85 0 00.11 1.25l1.3-.13a24.15 24.15 0 01-.11-3.22zm8.59 4.82c-.07-1.07-.1-2.24-.1-3.49v-.51c0-1.62 0-2.8.1-3.54h-1.52a18.29 18.29 0 01.11 2.4v.67a22.16 22.16 0 01-3.52 0v-.57a20.73 20.73 0 01.1-2.5h-1.54c.08.74.11 1.92.11 3.55v.47c0 1.42 0 2.61-.11 3.52h1.59a28.35 28.35 0 01-.1-2.9v-.62a22.16 22.16 0 013.52 0v.62a27.44 27.44 0 01-.11 2.9zm8.73 0c0-.87-.08-1.92-.08-3.17v-1.07c0-1.17 0-2.27.08-3.3h-1.18c-.21.4-.86 1.36-1.94 2.88s-1.69 2.45-1.9 2.8h-.08c.06-.56.1-1.42.1-2.62v-1.11a14.89 14.89 0 01.08-1.95h-1.52c.08.95.11 2.05.11 3.28v.67c0 1.59 0 2.79-.11 3.59h1.23c.29-.5.94-1.49 2-3s1.64-2.38 1.85-2.75h.05c-.05.55-.06 1.49-.06 2.83v.9a12.91 12.91 0 01-.12 2zm3.22-4.4a3.33 3.33 0 01.24-1.15 2.66 2.66 0 01.51-.93 2.44 2.44 0 011.31-.37 1.79 1.79 0 011.24.46 1.57 1.57 0 01.49 1.2.81.81 0 01-.11.48 8.14 8.14 0 01-1.68.21c-.91.07-1.58.1-2 .1m2.29-3.35a3.29 3.29 0 00-2.69 1.17 4.3 4.3 0 00-1 2.82c0 2.41 1.3 3.9 3.49 3.9a4.43 4.43 0 002.78-.91.93.93 0 00-.26-.67 3.47 3.47 0 01-2.07.57c-1.52 0-2.53-.86-2.6-2.73l1.17-.1a22.87 22.87 0 003.86-.51 2.9 2.9 0 00.16-.94 2.55 2.55 0 00-.75-1.81 2.8 2.8 0 00-2.11-.79zm6.88 1.32a11.94 11.94 0 011.85-.1h.64v1.79a45.3 45.3 0 01-.14 4.74h1.61c-.07-.79-.12-2.35-.12-4.69v-1.84h.64a10.5 10.5 0 011.84.1v-1.11h-6.32zm10.7-.42c1.52 0 2.26 1.36 2.26 3.23a3.36 3.36 0 01-.8 2.47 2.07 2.07 0 01-1.14.36c-1.47 0-2.4-1.21-2.4-3.32a3.25 3.25 0 01.7-2.29 1.85 1.85 0 011.38-.45m.26-1a3.43 3.43 0 00-2.67 1.14 4.17 4.17 0 00-1 3 4.1 4.1 0 00.94 2.81 3.57 3.57 0 005.13 0 4.22 4.22 0 001-2.9c-.04-2.49-1.26-4.01-3.4-4.01zm11.21 7.85c0-.74-.08-2-.08-3.65v-.59c0-1.55 0-2.64.08-3.3H1227a8.31 8.31 0 01.13 1.59v.43c0 3.21-.54 4.56-1.68 4.38a2.11 2.11 0 000 1.28c2 .31 2.85-1.63 2.85-5.55v-1.17h2.36V382a29.53 29.53 0 01-.12 3.27zm11.2 1.9h1.15v-2.86h-1V381a29.56 29.56 0 01.11-3.27h-1.45c.06.79.09 1.78.09 3v3.6a11.54 11.54 0 01-1.33.05 13 13 0 01-1.37-.05v-3.6c0-1.2 0-2.19.11-3h-1.46a27.19 27.19 0 01.12 3v3.62l-1.35.05a12.56 12.56 0 01-1.34-.05v-3.67c0-1.21 0-2.19.09-2.91h-1.45a32.6 32.6 0 01.11 3.3v.59c0 1.66 0 2.88-.11 3.65h9.1zm8.99-1.9c0-.87-.08-1.92-.08-3.17v-1.07c0-1.17 0-2.27.08-3.3h-1.18c-.21.4-.86 1.36-1.94 2.88s-1.69 2.45-1.9 2.8h-.08c.06-.56.1-1.42.1-2.62v-1.11a14.89 14.89 0 01.08-1.95h-1.52c.08.95.11 2.05.11 3.28v.67c0 1.59 0 2.79-.11 3.59h1.23c.29-.5.94-1.49 2-3s1.64-2.38 1.85-2.75h.05c-.05.55-.06 1.49-.06 2.83v.9a12.91 12.91 0 01-.12 2zm8.66 0c-.06-1.07-.1-2.24-.1-3.49v-.51c0-1.62 0-2.8.1-3.54h-1.52a18.29 18.29 0 01.11 2.4v.67a22.16 22.16 0 01-3.52 0v-.57a20.73 20.73 0 01.1-2.5h-1.54c.08.74.11 1.92.11 3.55v.47c0 1.42 0 2.61-.11 3.52h1.54a28.35 28.35 0 01-.1-2.9v-.62a22.16 22.16 0 013.52 0v.62a27.44 27.44 0 01-.11 2.9zm7.23.17a3.44 3.44 0 002.69-1.13 4.26 4.26 0 001-3 3.85 3.85 0 00-1-2.8 3.14 3.14 0 00-2.35-1 5.55 5.55 0 00-2.57.59 1.09 1.09 0 00.27.8 4 4 0 011.84-.43 2.16 2.16 0 011.65.72 2.44 2.44 0 01.67 1.74h-1.12a15.35 15.35 0 01-2.29-.11 1.07 1.07 0 000 1 13.94 13.94 0 012.27-.11h1.22a2.86 2.86 0 01-.91 2.32 2.23 2.23 0 01-1.33.36 2.89 2.89 0 01-2-.62 1.19 1.19 0 00-.53.8 3 3 0 002.4.78m11.66-.08c0-.74-.08-2-.08-3.65v-.59c0-1.55 0-2.64.08-3.3h-5.09a8.31 8.31 0 01.13 1.59v.43c0 3.21-.54 4.56-1.68 4.38a2 2 0 000 1.28c2.05.31 2.85-1.63 2.85-5.55v-1.17h2.37V382a28.81 28.81 0 01-.13 3.27zm3.02-4.4a3.33 3.33 0 01.24-1.15 2.5 2.5 0 01.52-.93 2.39 2.39 0 011.31-.37 1.79 1.79 0 011.23.46 1.54 1.54 0 01.5 1.2.81.81 0 01-.12.48 7.91 7.91 0 01-1.68.21c-.91.07-1.58.1-2 .1m2.29-3.35a3.29 3.29 0 00-2.69 1.17 4.3 4.3 0 00-1 2.82c0 2.41 1.3 3.9 3.49 3.9a4.48 4.48 0 002.79-.91.93.93 0 00-.26-.67 3.5 3.5 0 01-2.08.57c-1.52 0-2.53-.86-2.59-2.73l1.17-.1a22.89 22.89 0 003.85-.51 2.9 2.9 0 00.16-.94 2.51 2.51 0 00-.75-1.81 2.8 2.8 0 00-2.12-.79zm5.7 7.75q-.07-2.64.06-5.86h.08c.11.32.34.83.67 1.55l.6 1.25.73 1.65h.75l.63-1.26c.59-1.27 1.07-2.31 1.41-3.16h.09v5.83h1.46c-.18-1.33-.29-3.25-.37-5.76v-1.78h-1.3q-.33.88-2 4.39h-.07c-.48-.92-1.18-2.39-2.09-4.39H1290l-.13 2.69c-.13 2.22-.26 3.84-.37 4.85zm9.53-4.4a3.33 3.33 0 01.24-1.15 2.5 2.5 0 01.52-.93 2.39 2.39 0 011.31-.37 1.79 1.79 0 011.23.46 1.54 1.54 0 01.5 1.2.81.81 0 01-.12.48 7.91 7.91 0 01-1.68.21c-.91.07-1.58.1-2 .1m2.29-3.35a3.29 3.29 0 00-2.69 1.17 4.3 4.3 0 00-1 2.82c0 2.41 1.3 3.9 3.49 3.9a4.48 4.48 0 002.79-.91.93.93 0 00-.26-.67 3.5 3.5 0 01-2.08.57c-1.52 0-2.53-.86-2.59-2.73l1.17-.1a22.89 22.89 0 003.85-.51 2.9 2.9 0 00.16-.94 2.51 2.51 0 00-.75-1.81 2.8 2.8 0 00-2.09-.79zm11.04 7.75a62.79 62.79 0 01-.09-3.49v-.51q0-2.43.09-3.54h-1.52a18.29 18.29 0 01.11 2.4v.67a14 14 0 01-1.76.07 14.16 14.16 0 01-1.76-.07v-.57a23.11 23.11 0 01.1-2.5h-1.54c.08.74.12 1.92.12 3.55v.47c0 1.42 0 2.61-.12 3.52h1.54c-.06-.59-.1-1.57-.1-2.9v-.62a14.16 14.16 0 011.76-.07 14 14 0 011.76.07v.62a27.44 27.44 0 01-.11 2.9zm1.41-6.43a12.09 12.09 0 011.86-.1h.64v1.79c0 2.47 0 4.05-.14 4.74h1.64c-.08-.79-.13-2.35-.13-4.69v-1.84h.64a10.42 10.42 0 011.84.1v-1.11H1315zm10.69-.42c1.52 0 2.25 1.36 2.25 3.23a3.32 3.32 0 01-.8 2.47 2 2 0 01-1.13.36c-1.47 0-2.4-1.21-2.4-3.32a3.25 3.25 0 01.7-2.29 1.84 1.84 0 011.38-.45m.25-1a3.46 3.46 0 00-2.67 1.14 4.17 4.17 0 00-1 3 4.1 4.1 0 001 2.81 3.57 3.57 0 005.13 0 4.22 4.22 0 001-2.9c-.1-2.49-1.33-4.01-3.46-4.01zm6.64 4.34a10.45 10.45 0 011.32-.06c1 0 1.82.38 1.82 1.33a1.48 1.48 0 01-.62 1.33 3.83 3.83 0 01-1.44.19 3.18 3.18 0 01-1.08-.13zm0-3.23a4.25 4.25 0 011.12-.13c1.16 0 1.73.42 1.73 1.25a1.34 1.34 0 01-1.17 1.27 8.24 8.24 0 01-1.68 0zm1.22-1a19.57 19.57 0 00-2.66.19c.08.88.12 1.95.12 3.2v.63c0 1.48 0 2.73-.12 3.71a13.21 13.21 0 002.34.17c2.19 0 3.6-.84 3.6-2.36a1.73 1.73 0 00-1.68-1.84v-.08a1.87 1.87 0 001.38-1.75c0-1.24-1-1.86-2.98-1.86zm9.31 3.79a3.84 3.84 0 01.31-1.81 2.17 2.17 0 011.87-.91c1.17 0 1.87 1.15 1.87 3.07a3.58 3.58 0 01-.69 2.43 1.66 1.66 0 01-1.21.45c-1.28 0-2.15-1.23-2.15-3.23m2.5-3.6a3.24 3.24 0 00-2.95 1.79 5.37 5.37 0 01.4-2.07 2.75 2.75 0 01.56-.91 3.62 3.62 0 012.36-1 3.65 3.65 0 002.08-.57 2.07 2.07 0 000-1.28 3.48 3.48 0 01-2 .6 4 4 0 00-3.27 1.91 8.38 8.38 0 00-1 4.33c0 3.19 1.28 5 3.46 5a3 3 0 002.51-1.15 4.79 4.79 0 00.91-3.05c-.09-2.34-1.25-3.6-3.06-3.6zm6.94 7.55h.4a9.61 9.61 0 01-1.65 2.65 1.24 1.24 0 001 .74 21.1 21.1 0 002.09-4.83l.6-1.71.68-2.1c.37-1.07.63-1.84.8-2.29h-1.29c-.18.83-.47 1.94-.85 3.3a30.8 30.8 0 01-.93 3h-.08c-1.21-3.27-1.92-5.35-2.13-6.26h-1.71zm9.71-7.54c-.33.45-.76 1-1.4 1.81s-1.2 1.36-1.38 1.36h-.34v-.74a24.08 24.08 0 01.1-2.43h-1.54c.08 1 .12 2.11.12 3.43v.56c0 1.42 0 2.6-.12 3.55h1.54c-.06-.63-.1-1.65-.1-3.06v-.67h.34c.18 0 .45.32.8.93.24.37.67 1.05 1.1 1.63l.21.27a6.47 6.47 0 00.93 1.07 3.53 3.53 0 001.44-.22 21.43 21.43 0 01-2.35-3l-.83-1.18c.25-.26.78-.82 1.56-1.7s1.3-1.42 1.51-1.63zm4.53 4.03a10.38 10.38 0 011.31-.06c1 0 1.83.38 1.83 1.33a1.47 1.47 0 01-.63 1.33 3.76 3.76 0 01-1.44.19 3.11 3.11 0 01-1.07-.13zm0-3.23a4.25 4.25 0 011.12-.13c1.15 0 1.73.42 1.73 1.25a1.34 1.34 0 01-1.17 1.27 8.24 8.24 0 01-1.68 0zm1.22-1a19.57 19.57 0 00-2.66.19c.08.88.11 1.95.11 3.2v.63c0 1.48 0 2.73-.11 3.71a13.13 13.13 0 002.34.17c2.19 0 3.6-.84 3.6-2.36a1.73 1.73 0 00-1.68-1.84v-.08a1.86 1.86 0 001.37-1.75c.02-1.24-.98-1.86-2.98-1.86zM1093 421.62c-.5.05-1.84.07-4 .07v-3.46c1.72 0 2.87 0 3.46.07v-1.08c-.61 0-1.76.07-3.46.07v-3.23c2.12 0 3.41 0 3.91.06v-1.07h-5.44c.08.77.11 2.27.11 4.53v.67c0 2.32 0 3.81-.11 4.48h5.53zm3.68-5.47a5.48 5.48 0 011.11-.06 5.6 5.6 0 011.12.06v5.62h-3.4c.69-.71 1.16-2.79 1.17-5.62m-2 8.48v-1.9h5.49v1.9h1.15v-2.86h-1c0-.51-.08-1.49-.08-2.93v-.51c0-1.3 0-2.35.1-3.14h-4.91a13.41 13.41 0 01.09 1.6 12.58 12.58 0 01-.44 3.35c-.29 1.08-.64 1.63-1 1.63h-.5v2.86zm14.59-1.9c0-.87-.08-1.92-.08-3.17v-1.07c0-1.17 0-2.27.08-3.3h-1.18c-.21.4-.86 1.36-1.94 2.88s-1.69 2.45-1.9 2.8h-.08c.06-.56.1-1.42.1-2.62v-1.11a14.89 14.89 0 01.08-1.95h-1.52c.08.95.11 2.05.11 3.28v.67c0 1.59 0 2.79-.11 3.59h1.23c.29-.5.94-1.49 2-3s1.64-2.38 1.85-2.75c0 .55-.06 1.49-.06 2.83v.9a12.91 12.91 0 01-.12 2zm8.66 0c-.06-1.07-.1-2.24-.1-3.49v-.51c0-1.62 0-2.8.1-3.54h-1.52a18.29 18.29 0 01.11 2.4v.67a22.16 22.16 0 01-3.52 0v-.57a20.73 20.73 0 01.1-2.5h-1.54c.08.74.11 1.92.11 3.55v.47c0 1.42 0 2.61-.11 3.52h1.54a28.35 28.35 0 01-.1-2.9v-.62a22.16 22.16 0 013.52 0v.62a27.44 27.44 0 01-.11 2.9zm3.23-2.18a1.47 1.47 0 01.39-1 3.47 3.47 0 011.93-.38 5.25 5.25 0 01.91.13v1.57a2.27 2.27 0 01-1.9 1.05 1.29 1.29 0 01-1.33-1.36m4.59-2.65c0-2.1-.78-2.9-2.43-2.9a7.22 7.22 0 00-3.13.83 1 1 0 00.28.8 4.81 4.81 0 012.29-.67c1.28 0 1.63.67 1.62 2.38-3.27.05-4.61.72-4.61 2.5a2 2 0 002.1 2 3.15 3.15 0 002.54-1.26 8.85 8.85 0 00.11 1.25l1.3-.13a23.36 23.36 0 01-.12-3.22zm6.47.88a3.3 3.3 0 01-.66.07c-1.44 0-2.16-.5-2.16-1.51a1.5 1.5 0 01.55-1.13 2.4 2.4 0 011.29-.26 4.26 4.26 0 011 .08zm1.42 3.94c-.08-1-.11-2.16-.11-3.39v-.76a32.83 32.83 0 01.11-3.31 13.31 13.31 0 00-2.37-.19 4.16 4.16 0 00-2.3.59 2 2 0 00.82 3.67c-.11.16-.32.5-.64 1s-.61 1-.88 1.37a10.49 10.49 0 01-.69.95 3.6 3.6 0 001.33.19 3 3 0 00.75-1c.24-.38.63-1.07.8-1.39.1-.16.2-.32.31-.48.24-.34.38-.48.51-.48h.93v3.2zm4.48-6.43a12.09 12.09 0 011.86-.1h.64v1.8a44.23 44.23 0 01-.15 4.74h1.62c-.08-.79-.13-2.35-.13-4.69v-1.85h.64a10.5 10.5 0 011.84.1v-1.11h-6.32zm10.71-.42c1.52 0 2.25 1.36 2.25 3.23a3.32 3.32 0 01-.8 2.47 2.06 2.06 0 01-1.13.36c-1.48 0-2.4-1.21-2.4-3.32a3.25 3.25 0 01.7-2.29 1.82 1.82 0 011.38-.45m.25-1a3.44 3.44 0 00-2.67 1.14 4.7 4.7 0 00-.1 5.77 3.59 3.59 0 005.14 0 4.22 4.22 0 001-2.9c-.01-2.42-1.24-3.97-3.37-3.97zm11.22 7.85c0-.74-.08-2-.08-3.65v-.59c0-1.55 0-2.64.08-3.3h-5.09a8.31 8.31 0 01.13 1.59v.43c0 3.21-.55 4.56-1.68 4.38a2 2 0 000 1.28c2 .31 2.85-1.63 2.85-5.55v-1.17h2.37v3.31a28.81 28.81 0 01-.13 3.27zm11.2 1.9h1.15v-2.86h-1v-3.31a29.56 29.56 0 01.11-3.27h-1.46c.07.79.1 1.78.1 3v3.6a11.67 11.67 0 01-1.33.05 13.21 13.21 0 01-1.38-.05v-3.6c0-1.2 0-2.19.12-3h-1.46a27.73 27.73 0 01.11 3v3.62l-1.34.05a12.65 12.65 0 01-1.35-.05v-3.71c0-1.21 0-2.19.1-2.91h-1.46a31.87 31.87 0 01.12 3.3v.59c0 1.66 0 2.88-.12 3.65h9.11zm8.99-1.9c0-.87-.08-1.92-.08-3.17v-1.07c0-1.17 0-2.27.08-3.3h-1.18c-.21.4-.87 1.36-1.94 2.88s-1.7 2.45-1.9 2.8h-.08c.06-.56.09-1.42.09-2.62v-1.11a14.89 14.89 0 01.08-1.95H1174c.08.95.11 2.05.11 3.28v.67c0 1.59 0 2.79-.11 3.59h1.23c.29-.5 1-1.49 2-3s1.65-2.38 1.86-2.75h.05c-.05.55-.07 1.49-.07 2.83v.9a13.11 13.11 0 01-.11 2zm8.66 0c-.07-1.07-.1-2.24-.1-3.49v-.51c0-1.62 0-2.8.1-3.54h-1.52a18.29 18.29 0 01.11 2.4v.67a22.16 22.16 0 01-3.52 0v-.57a23.84 23.84 0 01.09-2.5h-1.53c.08.74.11 1.92.11 3.55v.47c0 1.42 0 2.61-.11 3.52h1.53c-.06-.59-.09-1.57-.09-2.9v-.62a22.16 22.16 0 013.52 0v.62a27.44 27.44 0 01-.11 2.9zm3.23-2.18a1.51 1.51 0 01.38-1 3.51 3.51 0 011.94-.38 5.25 5.25 0 01.91.13v1.57a2.27 2.27 0 01-1.9 1.05 1.28 1.28 0 01-1.33-1.36m4.59-2.65c0-2.1-.78-2.9-2.43-2.9a7.22 7.22 0 00-3.14.83 1 1 0 00.29.8 4.78 4.78 0 012.31-.64c1.28 0 1.63.67 1.61 2.38-3.26.05-4.6.72-4.6 2.5a2 2 0 002.09 2 3.17 3.17 0 002.55-1.26 10.08 10.08 0 00.12 1.25l1.29-.13a24.15 24.15 0 01-.11-3.22zm6.77 1.31a10.27 10.27 0 011.31-.06c1 0 1.82.38 1.82 1.33a1.46 1.46 0 01-.62 1.33 3.83 3.83 0 01-1.44.19 3.07 3.07 0 01-1.07-.13zm0-3.23a4.14 4.14 0 011.12-.13c1.15 0 1.73.42 1.73 1.25a1.35 1.35 0 01-1.17 1.27 8.28 8.28 0 01-1.68 0zm1.21-1a19.32 19.32 0 00-2.65.19c.08.88.11 1.95.11 3.2v.62c0 1.48 0 2.73-.11 3.71a13.08 13.08 0 002.33.17c2.19 0 3.6-.84 3.6-2.36a1.73 1.73 0 00-1.68-1.84v-.08a1.87 1.87 0 001.38-1.75c0-1.23-.99-1.85-2.93-1.85zm8.45.01a3.48 3.48 0 00-2.59 1.11 3.94 3.94 0 00-1.06 2.86 4.18 4.18 0 001 2.88 3.3 3.3 0 002.56 1.07 4.16 4.16 0 002.42-.72 1 1 0 00-.19-.68 3.49 3.49 0 01-1.6.41c-1.67 0-2.74-1.36-2.74-3.34a3 3 0 01.8-2.21 1.8 1.8 0 011.25-.38 2.72 2.72 0 011.85.62 1.62 1.62 0 00.56-1 3.15 3.15 0 00-2.22-.64m4.82 3.35a3.33 3.33 0 01.24-1.15 2.5 2.5 0 01.52-.93 2.39 2.39 0 011.31-.37 1.79 1.79 0 011.23.46 1.54 1.54 0 01.5 1.2.81.81 0 01-.12.48 7.91 7.91 0 01-1.68.21c-.91.07-1.58.1-2 .1m2.29-3.35a3.29 3.29 0 00-2.69 1.17 4.3 4.3 0 00-1 2.82c0 2.41 1.3 3.9 3.49 3.9a4.48 4.48 0 002.79-.91.93.93 0 00-.26-.67 3.5 3.5 0 01-2.08.57c-1.52 0-2.53-.86-2.59-2.73l1.17-.1a22.89 22.89 0 003.85-.51 2.9 2.9 0 00.16-.94 2.51 2.51 0 00-.75-1.81 2.8 2.8 0 00-2.09-.77zm4.1.21a63.47 63.47 0 012.43 3.62q-1 1.53-2.66 3.92h1.43c.51-1 1.1-2 1.79-3.09h.06l.87 1.39c.51.82.86 1.38 1 1.7h1.73c-.72-1-1.62-2.31-2.68-4a43 43 0 012.61-3.59h-1.44c-.37.69-.93 1.6-1.71 2.77h-.08a25.81 25.81 0 01-1.6-2.77zm17.58 7.54c-.06-.91-.09-2.13-.09-3.67v-.59c0-.48 0-1.57.09-3.28H1236c.08 1.19.11 2.27.11 3.27v.68c0 1.08 0 2.26-.11 3.59h1.54c-.07-1-.1-2.39-.1-4.35v-2.23a13.59 13.59 0 011.7-.06 14.17 14.17 0 011.72.06v2.18c0 2 0 3.45-.12 4.4zm3.2-4.4a3.33 3.33 0 01.24-1.15 2.66 2.66 0 01.51-.93 2.45 2.45 0 011.32-.37 1.79 1.79 0 011.23.46 1.57 1.57 0 01.49 1.2.81.81 0 01-.11.48 8.14 8.14 0 01-1.68.21c-.91.07-1.58.1-2 .1m2.29-3.35a3.29 3.29 0 00-2.69 1.17 4.3 4.3 0 00-1 2.82c0 2.41 1.3 3.9 3.49 3.9a4.43 4.43 0 002.78-.91 1 1 0 00-.25-.67 3.5 3.5 0 01-2.08.57c-1.52 0-2.53-.86-2.59-2.73l1.16-.1a22.87 22.87 0 003.86-.51 2.9 2.9 0 00.16-.94 2.55 2.55 0 00-.75-1.81 2.8 2.8 0 00-2.09-.77zm6.11 2.16a2.25 2.25 0 011.25-1 1.91 1.91 0 01.61-.06c1.17 0 1.85 1 1.85 2.73a3.57 3.57 0 01-.92 2.75 2.69 2.69 0 01-1.68.47 3 3 0 01-1.11-.19zm-1.45-1.87c.08.91.12 2.47.12 4.69v.78c0 2.66 0 4.36-.12 5.09h1.55a25 25 0 01-.1-2.61v-.44a4.87 4.87 0 001 .12 4 4 0 004.14-4.3c0-2-.88-3.2-2.34-3.46a2.89 2.89 0 00-1.1.2 2.33 2.33 0 00-1.78 1v-1.24zm9.36 3.06a3.33 3.33 0 01.24-1.15 2.51 2.51 0 01.51-.93 2.39 2.39 0 011.31-.37 1.75 1.75 0 011.23.46 1.54 1.54 0 01.5 1.2.81.81 0 01-.11.48 8.14 8.14 0 01-1.68.21c-.92.07-1.59.1-2 .1M1264 415a3.27 3.27 0 00-2.68 1.17 4.3 4.3 0 00-1 2.82c0 2.41 1.29 3.9 3.48 3.9a4.46 4.46 0 002.79-.91.93.93 0 00-.26-.67 3.5 3.5 0 01-2.08.57c-1.52 0-2.53-.86-2.59-2.73l1.17-.1a22.75 22.75 0 003.85-.51 2.66 2.66 0 00.16-.94 2.51 2.51 0 00-.75-1.81 2.77 2.77 0 00-2.09-.79zm5.72 7.73q-.08-2.64.06-5.86h.08c.12.32.34.83.68 1.55l.59 1.25.73 1.65h.76l.62-1.26c.59-1.27 1.07-2.31 1.41-3.16h.09v5.83h1.45q-.26-2-.37-5.76v-1.78h-1.29q-.35.88-2 4.39h-.06c-.48-.92-1.19-2.39-2.1-4.39H1269l-.13 2.69c-.13 2.22-.25 3.84-.37 4.85zm15.18-3.62c0 1.39 0 2.59-.11 3.62h1.49c-.06-.67-.1-1.92-.1-3.76v-.69c0-1.49 0-2.51.1-3.09h-1.46c0 1 .08 2 .08 3.15zm-2.46 1.11a1.74 1.74 0 01-.58 1.42 2.28 2.28 0 01-1 .27 2.91 2.91 0 01-1.09-.14 20.17 20.17 0 010-3.11c1.6-.4 2.67.21 2.67 1.56zm-4.11-5a29.61 29.61 0 01.11 3.2v.58c0 1.74 0 3-.11 3.63a12.33 12.33 0 002.17.17c2.16 0 3.22-1.08 3.22-2.6a2.24 2.24 0 00-1.1-2.12 3.85 3.85 0 00-2.85-.25V417a11.52 11.52 0 01.09-1.79zm9.76-.03a14.44 14.44 0 01.09 1.92v.71a2 2 0 002.31 2.35 4.4 4.4 0 002.11-.58v.88a12 12 0 01-.14 2.26h1.54c-.08-.75-.11-1.91-.11-3.46v-.7c0-1.43 0-2.55.11-3.38h-1.55a19.94 19.94 0 01.11 2.32v1.36a3.32 3.32 0 01-1.62.35c-1.07 0-1.47-.51-1.47-1.74 0-.7 0-1.47.11-2.29zm9.15 3.14a3.33 3.33 0 01.24-1.15 2.66 2.66 0 01.51-.93 2.44 2.44 0 011.31-.37 1.79 1.79 0 011.24.46 1.57 1.57 0 01.49 1.2.81.81 0 01-.11.48 8.14 8.14 0 01-1.68.21c-.91.07-1.58.1-2 .1m2.29-3.35a3.29 3.29 0 00-2.69 1.17 4.3 4.3 0 00-1 2.82c0 2.41 1.3 3.9 3.49 3.9a4.43 4.43 0 002.78-.91 1 1 0 00-.25-.67 3.53 3.53 0 01-2.08.57c-1.52 0-2.53-.86-2.6-2.73l1.17-.1a22.87 22.87 0 003.86-.51 2.9 2.9 0 00.16-.94 2.55 2.55 0 00-.75-1.81 2.8 2.8 0 00-2.09-.77zm9.23.21c-.34.45-.77 1-1.41 1.81s-1.2 1.36-1.37 1.36h-.34v-.74a21.41 21.41 0 01.1-2.43h-1.54c.08 1 .11 2.11.11 3.43v.56c0 1.42 0 2.6-.11 3.55h1.54c-.07-.63-.1-1.65-.1-3.06V419h.34c.17 0 .44.32.8.93.24.37.67 1.05 1.1 1.63l.21.27a6 6 0 00.93 1.07 3.53 3.53 0 001.44-.22 22.09 22.09 0 01-2.36-3l-.83-1.18c.26-.26.79-.82 1.57-1.7s1.3-1.42 1.5-1.63zm12.64 7.54c-.05-.87-.08-1.92-.08-3.17v-1.07c0-1.17 0-2.27.08-3.3h-1.18c-.21.4-.87 1.36-1.94 2.88s-1.7 2.45-1.9 2.8h-.08c.06-.56.09-1.42.09-2.62v-1.11a14.89 14.89 0 01.08-1.95H1315c.08.95.11 2.05.11 3.28v.67c0 1.59 0 2.79-.11 3.59h1.23c.29-.5 1-1.49 2-3s1.65-2.38 1.86-2.75c0 .55-.07 1.49-.07 2.83v.9a13.11 13.11 0 01-.11 2zm5.39-6.31a3.83 3.83 0 011.89-.49c1 0 1.55.49 1.55 1.28a1.38 1.38 0 01-1.52 1.28 3.47 3.47 0 01-1-.11 1 1 0 000 1 3.91 3.91 0 011.1-.11c1 0 1.78.5 1.78 1.34a1.34 1.34 0 01-.61 1.19 2.56 2.56 0 01-1.2.24 3.51 3.51 0 01-2-.59 1.5 1.5 0 00-.43.88 2.92 2.92 0 001 .43 5 5 0 001.4.21c1.94 0 3.32-.84 3.32-2.45a1.75 1.75 0 00-1.68-1.7v-.08a1.94 1.94 0 001.31-1.82c0-1.09-.83-1.91-2.42-1.91a5.6 5.6 0 00-2.64.58 1.8 1.8 0 00.24.86m8.01 4.1a1.51 1.51 0 01.38-1 3.51 3.51 0 011.94-.38 5.25 5.25 0 01.91.13v1.57a2.27 2.27 0 01-1.9 1.05 1.28 1.28 0 01-1.33-1.36m4.59-2.65c0-2.1-.78-2.9-2.43-2.9a7.22 7.22 0 00-3.14.83 1 1 0 00.29.8 4.78 4.78 0 012.29-.67c1.28 0 1.63.67 1.61 2.38-3.26.05-4.6.72-4.6 2.5a2 2 0 002.09 2 3.17 3.17 0 002.55-1.26 10.08 10.08 0 00.12 1.25l1.29-.13a24.15 24.15 0 01-.11-3.22zm3.25 4.82q-.07-2.64.06-5.86h.08c.11.32.34.83.67 1.55l.6 1.25.73 1.65h.75l.63-1.26c.59-1.27 1.07-2.31 1.41-3.16h.09v5.83h1.46c-.18-1.33-.29-3.25-.37-5.76v-1.78h-1.3q-.33.88-2 4.39h-.07c-.48-.92-1.18-2.39-2.09-4.39H1342l-.13 2.69c-.13 2.22-.26 3.84-.37 4.85zm9.53-4.4a3.33 3.33 0 01.24-1.15 2.5 2.5 0 01.52-.93 2.39 2.39 0 011.31-.37 1.79 1.79 0 011.23.46 1.54 1.54 0 01.5 1.2.81.81 0 01-.12.48 7.91 7.91 0 01-1.68.21c-.91.07-1.58.1-2 .1m2.29-3.35a3.29 3.29 0 00-2.69 1.17 4.3 4.3 0 00-1 2.82c0 2.41 1.3 3.9 3.49 3.9a4.48 4.48 0 002.79-.91.93.93 0 00-.26-.67 3.5 3.5 0 01-2.08.57c-1.52 0-2.53-.86-2.59-2.73l1.17-.1a22.89 22.89 0 003.85-.51 2.9 2.9 0 00.16-.94 2.51 2.51 0 00-.75-1.81 2.8 2.8 0 00-2.09-.77zm11.04 7.75a62.79 62.79 0 01-.09-3.49v-.51q0-2.43.09-3.54h-1.52a18.29 18.29 0 01.11 2.4v.67a14 14 0 01-1.76.07 14.16 14.16 0 01-1.76-.07v-.57a23.11 23.11 0 01.1-2.5h-1.54c.08.74.12 1.92.12 3.55v.47c0 1.42 0 2.61-.12 3.52h1.54c-.06-.59-.1-1.57-.1-2.9v-.62a14.16 14.16 0 011.76-.07 14 14 0 011.76.07v.62a27.44 27.44 0 01-.11 2.9zm3.23-2.18a1.47 1.47 0 01.39-1 3.47 3.47 0 011.93-.38 5.34 5.34 0 01.92.13v1.57a2.29 2.29 0 01-1.91 1.05 1.29 1.29 0 01-1.33-1.36m4.6-2.65c0-2.1-.79-2.9-2.44-2.9a7.22 7.22 0 00-3.13.83 1 1 0 00.29.8 4.75 4.75 0 012.28-.67c1.28 0 1.64.67 1.62 2.38-3.26.05-4.61.72-4.61 2.5a2 2 0 002.1 2 3.15 3.15 0 002.54-1.26 8.85 8.85 0 00.11 1.25l1.3-.13a24.15 24.15 0 01-.11-3.22zM1086.47 435a12.09 12.09 0 011.86-.1h.64v1.79c0 2.47 0 4.05-.14 4.74h1.61c-.08-.79-.13-2.35-.13-4.69v-1.84h.64a10.42 10.42 0 011.84.1v-1.11h-6.32zm9.14.86a2.25 2.25 0 011.25-1 1.91 1.91 0 01.61-.06c1.16 0 1.85 1 1.85 2.73a3.53 3.53 0 01-.93 2.75 2.69 2.69 0 01-1.68.47 3 3 0 01-1.1-.19zm-1.46-1.87c.08.91.13 2.47.13 4.69v.78c0 2.66 0 4.36-.13 5.09h1.56a25 25 0 01-.1-2.61v-.44a4.78 4.78 0 001 .12 4 4 0 004.15-4.3c0-2-.88-3.2-2.34-3.46a2.89 2.89 0 00-1.1.2 2.33 2.33 0 00-1.78 1v-1.24zm9.36 3.06a3.33 3.33 0 01.24-1.15 2.5 2.5 0 01.52-.93 2.39 2.39 0 011.31-.37 1.79 1.79 0 011.23.46 1.54 1.54 0 01.5 1.2.81.81 0 01-.12.48 7.91 7.91 0 01-1.68.21c-.91.07-1.58.1-2 .1m2.29-3.35a3.29 3.29 0 00-2.69 1.17 4.3 4.3 0 00-1 2.82c0 2.41 1.3 3.9 3.49 3.9a4.48 4.48 0 002.79-.91.93.93 0 00-.26-.67 3.5 3.5 0 01-2.08.57c-1.52 0-2.53-.86-2.59-2.73l1.17-.1a22.89 22.89 0 003.85-.51 2.9 2.9 0 00.16-.94 2.51 2.51 0 00-.75-1.81 2.8 2.8 0 00-2.09-.79zm6.82 7.75h.4a9.61 9.61 0 01-1.65 2.65 1.21 1.21 0 001 .74 21 21 0 002.1-4.83l.59-1.71.69-2.1c.37-1.07.62-1.84.8-2.29h-1.3c-.17.83-.46 1.94-.84 3.3a30.8 30.8 0 01-.93 3h-.08c-1.22-3.27-1.92-5.35-2.13-6.26h-1.71zm6.72 0c-.08-.79-.13-2.31-.13-4.55v-2h1a17.68 17.68 0 012.21.1v-1.11h-4.67c.08.85.11 1.81.11 2.88v.72c0 1.59 0 2.88-.11 3.92zm7.45-6.85c1.52 0 2.26 1.36 2.26 3.23a3.32 3.32 0 01-.8 2.47 2.07 2.07 0 01-1.14.36c-1.47 0-2.4-1.21-2.4-3.32a3.2 3.2 0 01.71-2.29 1.81 1.81 0 011.37-.45m.26-1a3.44 3.44 0 00-2.67 1.14 4.7 4.7 0 00-.1 5.77 3.59 3.59 0 005.14 0 4.27 4.27 0 001-2.9c-.01-2.42-1.24-3.97-3.37-3.97zm11.22 7.85c0-.74-.08-1.95-.08-3.65v-.59c0-1.55 0-2.64.08-3.3h-5.09a8.31 8.31 0 01.13 1.59v.43c0 3.21-.55 4.56-1.68 4.38a2 2 0 000 1.28c2 .31 2.85-1.63 2.85-5.55v-1.17h2.37v3.31a28.81 28.81 0 01-.13 3.27zm6.48-2.51a1.62 1.62 0 01-.66 1.42 2.27 2.27 0 01-1.23.26 3 3 0 01-1.06-.13 20.17 20.17 0 010-3.11c1.86-.43 3 .21 3 1.56m-4.39-5a25.37 25.37 0 01.11 3.07v.6c0 1.8 0 3.07-.09 3.79a12.37 12.37 0 002.22.17c2.31 0 3.47-1 3.47-2.6a2.3 2.3 0 00-1.15-2.18 4.29 4.29 0 00-3.12-.19v-.85a10.09 10.09 0 01.1-1.81zm13.68 7.51c-.06-1.07-.1-2.24-.1-3.49v-.51c0-1.62 0-2.8.1-3.54h-1.52a18.29 18.29 0 01.11 2.4v.69a22.16 22.16 0 01-3.52 0v-.57a20.73 20.73 0 01.1-2.5h-1.54c.08.74.11 1.92.11 3.55v.47c0 1.42 0 2.61-.11 3.52h1.54a28.35 28.35 0 01-.1-2.9v-.62a22.16 22.16 0 013.52 0v.62a27.44 27.44 0 01-.11 2.9zm5.3-6.85c1.52 0 2.25 1.36 2.25 3.23a3.32 3.32 0 01-.8 2.47 2.06 2.06 0 01-1.13.36c-1.48 0-2.4-1.21-2.4-3.32a3.25 3.25 0 01.7-2.29 1.82 1.82 0 011.38-.45m.25-1a3.44 3.44 0 00-2.67 1.14 4.7 4.7 0 00-.1 5.77 3.59 3.59 0 005.14 0 4.22 4.22 0 001-2.9c-.01-2.42-1.24-3.97-3.37-3.97zm7.22-3.18a1.39 1.39 0 00-1 .45 2 2 0 002.17 1.71 2.19 2.19 0 002.31-1.84.69.69 0 00-.61-.19 1.4 1.4 0 01-1.44 1.2 1.44 1.44 0 01-1.47-1.33m4.43 11c0-.87-.08-1.92-.08-3.17v-1.07c0-1.17 0-2.27.08-3.3h-1.18c-.21.4-.87 1.36-1.94 2.88s-1.7 2.45-1.9 2.8h-.08c.06-.56.09-1.42.09-2.62v-1.11a14.89 14.89 0 01.08-1.95h-1.52c.08.95.11 2 .11 3.28v.67c0 1.59 0 2.79-.11 3.59h1.23c.29-.5 1-1.49 2-2.95s1.65-2.38 1.86-2.75c0 .55-.07 1.49-.07 2.83v.9a13.11 13.11 0 01-.11 2zm6.87-3.48a10.38 10.38 0 011.31-.06c1 0 1.83.38 1.83 1.33a1.47 1.47 0 01-.63 1.33 3.76 3.76 0 01-1.44.19 3.11 3.11 0 01-1.07-.13zm0-3.23a4.25 4.25 0 011.12-.13c1.15 0 1.73.42 1.73 1.25a1.34 1.34 0 01-1.17 1.27 8.24 8.24 0 01-1.68 0zm1.22-1a19.57 19.57 0 00-2.66.19c.08.88.11 1.95.11 3.2v.63c0 1.48 0 2.73-.11 3.71a13.13 13.13 0 002.34.17c2.19 0 3.6-.84 3.6-2.36a1.73 1.73 0 00-1.68-1.84v-.08a1.86 1.86 0 001.37-1.75c0-1.24-.99-1.86-2.97-1.86zm11.81 4.12c0 1.39 0 2.59-.12 3.62h1.49c-.06-.67-.09-1.92-.09-3.76V437c0-1.49 0-2.51.09-3.09h-1.45c0 1 .08 2 .08 3.15zm-2.47 1.11a1.76 1.76 0 01-.57 1.42 2.35 2.35 0 01-1.06.27 2.91 2.91 0 01-1.09-.14 20.17 20.17 0 010-3.11c1.65-.38 2.72.21 2.72 1.56zm-4.11-5a29.61 29.61 0 01.11 3.2v.63c0 1.74 0 3-.11 3.63a12.37 12.37 0 002.18.17c2.16 0 3.21-1.08 3.21-2.6a2.24 2.24 0 00-1.1-2.12 3.85 3.85 0 00-2.85-.25v-.87a10 10 0 01.1-1.79zm13.43-.24a3.48 3.48 0 00-2.59 1.11 3.94 3.94 0 00-1.06 2.86 4.18 4.18 0 001 2.88 3.3 3.3 0 002.56 1.07 4.16 4.16 0 002.42-.72 1 1 0 00-.19-.68 3.49 3.49 0 01-1.6.41c-1.67 0-2.74-1.36-2.74-3.34a3 3 0 01.8-2.21 1.8 1.8 0 011.25-.38 2.72 2.72 0 011.85.62 1.62 1.62 0 00.56-1 3.15 3.15 0 00-2.22-.64m4.83 3.37a3.33 3.33 0 01.24-1.15 2.5 2.5 0 01.52-.93 2.39 2.39 0 011.31-.37 1.79 1.79 0 011.23.46 1.54 1.54 0 01.5 1.2.81.81 0 01-.12.48 7.91 7.91 0 01-1.68.21c-.91.07-1.58.1-2 .1m2.29-3.35a3.29 3.29 0 00-2.69 1.17 4.3 4.3 0 00-1 2.82c0 2.41 1.3 3.9 3.49 3.9a4.48 4.48 0 002.79-.91.93.93 0 00-.26-.67 3.5 3.5 0 01-2.08.57c-1.52 0-2.53-.86-2.59-2.73l1.17-.1a22.89 22.89 0 003.85-.51 2.9 2.9 0 00.16-.94 2.51 2.51 0 00-.75-1.81 2.8 2.8 0 00-2.09-.79zm4.21.21a14 14 0 01.1 1.92v.71c0 1.68.83 2.35 2.3 2.35a4.4 4.4 0 002.11-.58v.88a12 12 0 01-.14 2.26h1.58c-.08-.75-.11-1.91-.11-3.46v-.7c0-1.43 0-2.55.11-3.38h-1.55a19.94 19.94 0 01.11 2.32v1.36a3.28 3.28 0 01-1.61.35c-1.08 0-1.48-.51-1.48-1.74 0-.7 0-1.47.12-2.29zm12.78 0c-.33.45-.76 1-1.4 1.81s-1.2 1.36-1.38 1.36h-.37v-.74a24.08 24.08 0 01.1-2.43h-1.54c.08 1 .12 2.11.12 3.43v.56c0 1.42 0 2.6-.12 3.55h1.54c-.06-.63-.1-1.65-.1-3.06v-.67h.34c.18 0 .45.32.8.93.24.37.67 1.05 1.1 1.63l.21.27a6.47 6.47 0 00.93 1.07 3.53 3.53 0 001.44-.22 21.43 21.43 0 01-2.35-3l-.83-1.18c.25-.26.78-.82 1.56-1.7s1.3-1.42 1.51-1.63zm9.54 7.54c0-.87-.08-1.92-.08-3.17v-1.07c0-1.17 0-2.27.08-3.3h-1.18c-.21.4-.87 1.36-1.94 2.88s-1.7 2.45-1.9 2.8h-.08c.06-.56.09-1.42.09-2.62v-1.11a14.89 14.89 0 01.08-1.95h-1.52c.08.95.11 2 .11 3.28v.67c0 1.59 0 2.79-.11 3.59h1.23c.29-.5 1-1.49 2-2.95s1.65-2.38 1.86-2.75c0 .55-.07 1.49-.07 2.83v.9a13.11 13.11 0 01-.11 2zm6.83-3.51a10.38 10.38 0 011.31-.06c1 0 1.83.38 1.83 1.33a1.47 1.47 0 01-.63 1.33 3.76 3.76 0 01-1.44.19 3.07 3.07 0 01-1.07-.13zm0-3.23a4.25 4.25 0 011.12-.13c1.15 0 1.73.42 1.73 1.25a1.34 1.34 0 01-1.17 1.27 8.24 8.24 0 01-1.68 0zm1.22-1a19.46 19.46 0 00-2.66.19c.08.88.11 1.95.11 3.2v.63c0 1.48 0 2.73-.11 3.71a13.13 13.13 0 002.34.17c2.19 0 3.6-.84 3.6-2.36a1.73 1.73 0 00-1.68-1.84v-.08a1.86 1.86 0 001.37-1.75c0-1.24-.99-1.86-2.97-1.86zm12.84.6a1 1 0 00-1-.13l-1.86 3.33 1.78 3.15a1 1 0 00.61 0 1.23 1.23 0 00.53-.27l-1.76-3zm-2.49-.05a1.21 1.21 0 00-1.11-.08l-1.71 3.12 1.73 3.35a.85.85 0 00.93-.29l-1.54-2.93zm10.25-2.49c-.4.61-1.07 1.49-2 2.64s-1.44 1.71-1.58 1.71h-.34c0-2.06 0-3.5.1-4.35h-1.64q.12 1.46.12 4.62v.53c0 2.05 0 3.55-.12 4.53h1.64c-.07-.95-.1-2.5-.1-4.67h.35c.18 0 .66.64 1.57 1.93.46.66.8 1.11 1 1.38a8.07 8.07 0 001.45 1.53 3.37 3.37 0 001.51-.25 27.88 27.88 0 01-2-2.35c-.88-1.11-1.58-2-2.11-2.82l3.77-4.43zm3.24 8.69a1 1 0 001 .12l1.86-3.32-1.78-3.16a1.11 1.11 0 00-.61 0 1.23 1.23 0 00-.53.27l1.76 3zm2.49 0a1.16 1.16 0 001.11.08l1.71-3.12-1.73-3.34a.85.85 0 00-.93.29l1.54 2.93zm13.76.99a62.79 62.79 0 01-.09-3.49v-.51q0-2.43.09-3.54h-1.52a18.29 18.29 0 01.11 2.4v.69a14 14 0 01-1.76.07 14.16 14.16 0 01-1.76-.07v-.57a23.11 23.11 0 01.1-2.5h-1.54c.08.74.12 1.92.12 3.55v.47c0 1.42 0 2.61-.12 3.52h1.54c-.06-.59-.1-1.57-.1-2.9v-.62a14.16 14.16 0 011.76-.07 14 14 0 011.76.07v.62a27.44 27.44 0 01-.11 2.9zm3.23-2.18a1.47 1.47 0 01.39-1 3.47 3.47 0 011.93-.38 5.34 5.34 0 01.92.13v1.57a2.29 2.29 0 01-1.91 1.05 1.29 1.29 0 01-1.33-1.36m4.6-2.65c0-2.1-.79-2.9-2.44-2.9a7.22 7.22 0 00-3.13.83 1 1 0 00.29.8 4.75 4.75 0 012.28-.67c1.28 0 1.64.67 1.62 2.38-3.26.05-4.61.72-4.61 2.5a2 2 0 002.1 2 3.15 3.15 0 002.54-1.26 8.85 8.85 0 00.11 1.25l1.3-.13a24.15 24.15 0 01-.11-3.22zm11.6 4.82c-.07-.91-.1-2.13-.1-3.67v-.59c0-.48 0-1.57.1-3.28H1293c.08 1.19.12 2.27.12 3.27v.68c0 1.08 0 2.26-.12 3.59h1.54c-.06-.95-.1-2.39-.1-4.35v-2.23a13.59 13.59 0 011.7-.06 14.37 14.37 0 011.73.06v2.18c0 2 0 3.45-.13 4.4zm3.74-5.59a2.21 2.21 0 011.25-1 1.88 1.88 0 01.6-.06c1.17 0 1.86 1 1.86 2.73a3.53 3.53 0 01-.93 2.75 2.69 2.69 0 01-1.68.47 3 3 0 01-1.1-.19zm-1.46-1.87c.08.91.13 2.47.13 4.69v.78c0 2.66-.05 4.36-.13 5.09h1.55q-.09-.93-.09-2.61v-.44a4.78 4.78 0 001 .12 4.19 4.19 0 002.93-1.13 4.14 4.14 0 001.22-3.17c0-2-.88-3.2-2.34-3.46a2.86 2.86 0 00-1.1.2 2.31 2.31 0 00-1.78 1v-1.24zm12.64 3.52a3.21 3.21 0 01-.65.07c-1.44 0-2.16-.5-2.16-1.51a1.48 1.48 0 01.54-1.13 2.43 2.43 0 011.3-.26 4.22 4.22 0 011 .08zm1.43 3.94c-.08-1-.11-2.16-.11-3.39v-.76a32.83 32.83 0 01.11-3.31 13.39 13.39 0 00-2.37-.19 4.16 4.16 0 00-2.3.59 1.93 1.93 0 00-.93 1.75 2 2 0 001.74 1.92c-.11.16-.32.5-.64 1s-.61 1-.88 1.37-.5.72-.69.95a3.58 3.58 0 001.33.19 3.26 3.26 0 00.75-1c.24-.38.62-1.07.8-1.39.1-.16.19-.32.3-.48.24-.34.39-.48.52-.48h.92v3.2zm3.29 0c0-1.76 0-3.71.07-5.86h.08c.11.32.33.83.67 1.55l.59 1.25.74 1.65h.75l.62-1.26c.6-1.27 1.08-2.31 1.41-3.16h.1v5.83h1.46c-.18-1.33-.29-3.25-.37-5.76v-1.78h-1.3c-.22.59-.9 2-2 4.39h-.06c-.48-.92-1.18-2.39-2.1-4.39h-1.36l-.12 2.69c-.13 2.22-.26 3.84-.37 4.85zm11.62-6.85c1.52 0 2.26 1.36 2.26 3.23a3.36 3.36 0 01-.8 2.47 2.1 2.1 0 01-1.14.36c-1.47 0-2.4-1.21-2.4-3.32a3.25 3.25 0 01.7-2.29 1.85 1.85 0 011.38-.45m.26-1a3.46 3.46 0 00-2.68 1.14 4.22 4.22 0 00-1 3 4.1 4.1 0 001 2.81 3.57 3.57 0 005.13 0 4.22 4.22 0 001-2.9c-.09-2.46-1.33-4.01-3.45-4.01zm7.34 7.85h.4a9.61 9.61 0 01-1.65 2.65 1.23 1.23 0 001 .74A21.58 21.58 0 001340 440l.59-1.71.69-2.1c.37-1.07.63-1.84.8-2.29h-1.29c-.18.83-.47 1.94-.85 3.3a30.8 30.8 0 01-.93 3h-.08c-1.22-3.27-1.92-5.35-2.13-6.26h-1.71zm6.72 0c-.08-.79-.13-2.31-.13-4.55v-2h1a17.5 17.5 0 012.2.1v-1.11h-4.67c.08.85.11 1.81.11 2.88v.72c0 1.59 0 2.88-.11 3.92zm7.46-6.85c1.52 0 2.25 1.36 2.25 3.23a3.32 3.32 0 01-.8 2.47 2.06 2.06 0 01-1.13.36c-1.48 0-2.4-1.21-2.4-3.32a3.25 3.25 0 01.7-2.29 1.82 1.82 0 011.38-.45m.25-1a3.44 3.44 0 00-2.67 1.14 4.7 4.7 0 00-.1 5.77 3.59 3.59 0 005.14 0 4.22 4.22 0 001-2.9c-.01-2.42-1.24-3.97-3.37-3.97zm11.22 7.85c0-.74-.08-1.95-.08-3.65v-.59c0-1.55 0-2.64.08-3.3h-5.09a8.31 8.31 0 01.13 1.59v.43c0 3.21-.55 4.56-1.68 4.38a2 2 0 000 1.28c2 .31 2.85-1.63 2.85-5.55v-1.17h2.37v3.31a28.81 28.81 0 01-.13 3.27zm6.48-2.51a1.62 1.62 0 01-.66 1.42 2.27 2.27 0 01-1.23.26 3 3 0 01-1.06-.13 20.17 20.17 0 010-3.11c1.86-.43 3 .21 3 1.56m-4.39-5a24.68 24.68 0 01.09 3.06v.6c0 1.8 0 3.07-.1 3.79a12.37 12.37 0 002.22.17c2.31 0 3.48-1 3.48-2.6a2.31 2.31 0 00-1.16-2.18 4.29 4.29 0 00-3.12-.19v-.85a11.17 11.17 0 01.1-1.81zm13.68 7.51a62.79 62.79 0 01-.09-3.49v-.51q0-2.43.09-3.54h-1.52a18.29 18.29 0 01.11 2.4v.69a14 14 0 01-1.76.07 14.16 14.16 0 01-1.76-.07v-.57a23.11 23.11 0 01.1-2.5h-1.54c.08.74.12 1.92.12 3.55v.47c0 1.42 0 2.61-.12 3.52h1.54c-.06-.59-.1-1.57-.1-2.9v-.62a14.16 14.16 0 011.76-.07 14 14 0 011.76.07v.62a27.44 27.44 0 01-.11 2.9zm4.41 0h.4a9.88 9.88 0 01-1.64 2.65 1.21 1.21 0 001 .74 21 21 0 002.1-4.83l.59-1.71.69-2.1c.36-1.07.62-1.84.8-2.29h-1.3c-.18.83-.46 1.94-.85 3.3a30.8 30.8 0 01-.93 3h-.08c-1.21-3.27-1.92-5.35-2.12-6.26H1381zm14.47-3.99c0-2.38-1.25-3.82-3.15-3.82a3.14 3.14 0 00-2.35 1 3.8 3.8 0 00-1 2.45h-1.32v-.71a22.26 22.26 0 01.1-2.43h-1.53a33.15 33.15 0 01.11 3.43v.38c0 1.18 0 2.43-.11 3.73h1.53a25.63 25.63 0 01-.1-2.75v-.79a2.45 2.45 0 01.64-.05 2.59 2.59 0 01.66.05 4.34 4.34 0 00.93 2.69 3.14 3.14 0 004.72-.1 4.67 4.67 0 00.91-3m-3.55-2.92c1.45 0 2.14 1.28 2.14 3.2a3.53 3.53 0 01-.75 2.68 1.79 1.79 0 01-1 .31c-1.3 0-2.11-1.22-2.11-3.25a3.84 3.84 0 01.69-2.53 1.54 1.54 0 01.99-.49z"/></svg>