<svg data-name="Layer 1" xmlns="http://www.w3.org/2000/svg" viewBox="0 0 1920 1080"><defs><clipPath id="a"><path fill="none" d="M0 0h1920v1080H0z"/></clipPath></defs><g clip-path="url(#a)"><path fill="#d6e2d4" d="M0 0h1920v1080H0z"/><path d="M630.48 437.87l-19.85 19.85c-2.29 2.29-4.14 6.65-4.14 11.11v75.59l59.14-59.14v-16.45c0-4.46-1.85-8.82-4.14-11.11l-19.85-19.85h86.66l-19.86 19.85c-2.29 2.29-4.14 6.65-4.14 11.11v101.06c0 4.46 1.85 8.82 4.14 11.11l19.86 19.85h-86.66L661.49 581c2.29-2.29 4.14-6.65 4.14-11.11V494.3l-59.14 59.15v16.44c0 4.46 1.85 8.82 4.14 11.11l19.85 19.85h-86.66L563.68 581c2.29-2.29 4.13-6.65 4.13-11.11V468.83c0-4.46-1.84-8.82-4.13-11.11l-19.86-19.85zm125.07 40.99h-20.76L752 496a14.35 14.35 0 013.58 9.61v136.52h56.57L794.94 625a14.35 14.35 0 01-3.58-9.61v-14.54h15.71c58.66 0 85.4-38.1 85.73-72.21.27-28.32-18.34-52.5-48-52.5-21.07 0-45.54 14.24-53.44 39.68v-37zm35.81 59.67V596c31.52-.87 61.65-28.31 61.91-65.23.34-49.64-61.91-39.54-61.91 7.76zm186.35-33.25c16.25-.66 14.76-26.6-8.81-21.57-11 2.35-23.22 10.84-27.27 21.57zm5.18-29.11c23.32-.61 42.63 9.11 46.35 34h-88c-9 34.57 14.33 64 51 62.62 29.55-1.09 56-22.23 47.14-53.4h.72c14.3 42.63-15.75 85.58-65.65 84.13-37.12-1.09-62.49-28.52-60.16-63.69s33.05-62.74 68.6-63.66zm128.92 2.69h-56.56l17.18 17.14a14.35 14.35 0 013.58 9.61v68.41a14.35 14.35 0 01-3.58 9.61l-17.18 17.18h77.32l-17.18-17.18a14.35 14.35 0 01-3.58-9.61V536l48.85 13.09v24.94a14.35 14.35 0 01-3.58 9.61l-17.18 17.18h77.33l-17.18-17.18a14.3 14.3 0 01-3.58-9.61v-68.38a14.3 14.3 0 013.58-9.61l17.18-17.18h-77.33l17.18 17.14a14.35 14.35 0 013.58 9.61V544l-48.85-13zm180.5 103.08c0 11 10.29 15 20.85 14.61 27-1.06 30-43.45.27-37.48-10.44 2.1-21.12 12.24-21.12 22.87m0-76.3v64.26c22.58-35.67 81.1-36.74 83.75-4.67 2.74 33.18-41.31 35.62-61.29 35.62h-79l17.18-17.18a14.3 14.3 0 003.58-9.61v-68.42a14.3 14.3 0 00-3.58-9.61l-17.18-17.18h77.33L1295.89 496a14.35 14.35 0 00-3.58 9.64z" fill-rule="evenodd" fill="#ea533d"/><path d="M185 942.42v-5.5c0-.07 0-.46.05-1.15l.1-1.85v-1.78a13 13 0 00-.07-1.58h.09l4.05 9h1.37l3.82-8.93h.15c-.07.89 0 3 .12 6.36v.93c.1 1.61.12 3.12.1 4.52h2.43c-.12-.7-.29-2.84-.51-6.44s-.36-6.31-.4-8.08h-2.22c-.26.67-.87 2.11-1.85 4.34s-1.59 3.65-1.85 4.3h-.1l-1.28-2.88-1.69-3.46c-.48-1-.81-1.82-1-2.32H184c-.1 2.28-.27 5-.49 8.28s-.4 5.3-.53 6.24zm25.23-5.42c0 2.09 0 3.89-.17 5.43h2.24c-.1-1-.15-2.88-.15-5.64v-1c0-2.23 0-3.76.15-4.63h-2.19c.07 1.44.12 3 .12 4.73zm-3.71 1.66a2.64 2.64 0 01-.86 2.13 3.48 3.48 0 01-1.59.41 4.3 4.3 0 01-1.64-.21 30.19 30.19 0 010-4.66c2.48-.61 4.09.3 4.09 2.32zm-6.18-7.54a44 44 0 01.17 4.8v.94c0 2.61 0 4.44-.17 5.45a19 19 0 003.27.26c3.25 0 4.84-1.63 4.84-3.91a3.35 3.35 0 00-1.66-3.17 5.79 5.79 0 00-4.29-.38v-1.3a15.65 15.65 0 01.15-2.69zm22.21 2.88a3.34 3.34 0 011.88-1.54 3 3 0 01.91-.09c1.76.07 2.79 1.49 2.79 4.1a5.38 5.38 0 01-1.39 4.13 4.11 4.11 0 01-2.53.7 4.33 4.33 0 01-1.66-.29zm-2.19-2.81c.12 1.37.19 3.7.19 7v1.18c0 4-.07 6.53-.19 7.63h2.33c-.09-.93-.14-2.23-.14-3.91v-.67a7.27 7.27 0 001.54.19 6.32 6.32 0 004.4-1.7 6.21 6.21 0 001.83-4.76c0-3-1.32-4.8-3.51-5.18a4.31 4.31 0 00-1.66.29 3.46 3.46 0 00-2.67 1.51v-1.87zm14.1 7.96a2.18 2.18 0 01.58-1.51 5.19 5.19 0 012.91-.58 8.1 8.1 0 011.37.2v2.35a3.43 3.43 0 01-2.86 1.58 1.93 1.93 0 01-2-2m6.9-4c0-3.15-1.17-4.35-3.65-4.35a10.92 10.92 0 00-4.72 1.25 1.55 1.55 0 00.43 1.2 7.31 7.31 0 013.45-1c1.92 0 2.45 1 2.43 3.58-4.91.07-6.93 1.08-6.93 3.74a3 3 0 003.15 3 4.75 4.75 0 003.82-1.89h.08a13.35 13.35 0 00.16 1.87l1.95-.19a35.87 35.87 0 01-.17-4.83zm3.35-2.19a5.74 5.74 0 012.84-.74c1.51 0 2.33.74 2.33 1.92a2.07 2.07 0 01-2.28 1.92 5.23 5.23 0 01-1.54-.17 1.57 1.57 0 000 1.46 5.93 5.93 0 011.66-.17c1.54 0 2.67.75 2.67 2a2 2 0 01-.92 1.78 3.86 3.86 0 01-1.8.36 5.32 5.32 0 01-3.06-.89 2.3 2.3 0 00-.65 1.32 4.34 4.34 0 001.45.65 7.49 7.49 0 002.11.31c2.92 0 5-1.25 5-3.67a2.61 2.61 0 00-2.53-2.55v-.12a2.91 2.91 0 002-2.73c0-1.64-1.25-2.86-3.63-2.86a8.41 8.41 0 00-4 .86 2.85 2.85 0 00.36 1.3m12.91 1.02a3.34 3.34 0 011.88-1.54 3 3 0 01.91-.09c1.76.07 2.79 1.49 2.79 4.1a5.34 5.34 0 01-1.39 4.13 4.09 4.09 0 01-2.53.7 4.33 4.33 0 01-1.66-.29zm-2.19-2.81c.12 1.37.19 3.7.19 7v1.18c0 4-.07 6.53-.19 7.63h2.33c-.09-.93-.14-2.23-.14-3.91v-.67a7.27 7.27 0 001.54.19 6.3 6.3 0 004.4-1.7 6.21 6.21 0 001.83-4.76c0-3-1.32-4.8-3.51-5.18a4.31 4.31 0 00-1.66.29 3.48 3.48 0 00-2.67 1.51v-1.87zm14.1 7.96a2.18 2.18 0 01.58-1.51 5.19 5.19 0 012.91-.58 8.1 8.1 0 011.37.2v2.35a3.43 3.43 0 01-2.86 1.58 1.93 1.93 0 01-2-2m6.91-4c0-3.15-1.18-4.35-3.66-4.35a11 11 0 00-4.72 1.25 1.52 1.52 0 00.44 1.2 7.24 7.24 0 013.44-1c1.92 0 2.45 1 2.43 3.58-4.91.07-6.93 1.08-6.93 3.74a3 3 0 003.15 3 4.77 4.77 0 003.83-1.89h.07a12.86 12.86 0 00.17 1.87l1.95-.19a34.12 34.12 0 01-.17-4.83zm4.81 1.3a5.68 5.68 0 01.46-2.71 3.27 3.27 0 012.81-1.37c1.76 0 2.82 1.73 2.82 4.61a5.38 5.38 0 01-1 3.64 2.47 2.47 0 01-1.83.68c-1.92 0-3.22-1.85-3.22-4.85m3.75-5.4a4.85 4.85 0 00-4.42 2.69h-.08a8.77 8.77 0 01.6-3.1 4.32 4.32 0 01.85-1.37 5.46 5.46 0 013.56-1.56c1.73-.17 2.77-.45 3.13-.86a3.08 3.08 0 00-.08-1.92c-.33.41-1.34.72-3 .91a6 6 0 00-4.91 2.86 12.56 12.56 0 00-1.52 6.5c0 4.78 1.93 7.44 5.2 7.44a4.57 4.57 0 003.78-1.73 7.24 7.24 0 001.37-4.58c-.04-3.37-1.8-5.28-4.53-5.28zm11.71 1.05c2.28 0 3.39 2 3.39 4.85a4.93 4.93 0 01-1.21 3.7 3.11 3.11 0 01-1.7.55c-2.22 0-3.61-1.82-3.61-5a4.82 4.82 0 011.06-3.43 2.76 2.76 0 012.07-.68m.38-1.44a5.23 5.23 0 00-4 1.71 6.31 6.31 0 00-1.56 4.44 6.17 6.17 0 001.42 4.22 5.37 5.37 0 007.72-.05 6.3 6.3 0 001.49-4.34c-.02-3.67-1.87-5.97-5.07-5.97zm6.47 2.08a18.76 18.76 0 012.79-.15h1v2.69a70 70 0 01-.22 7.11h2.43c-.12-1.18-.19-3.53-.19-7v-2.76h1a16.38 16.38 0 012.77.15v-1.66h-9.51zm13 6.38a2.22 2.22 0 01.57-1.51 5.26 5.26 0 012.92-.58 8.1 8.1 0 011.37.2v2.35a3.45 3.45 0 01-2.87 1.58 1.92 1.92 0 01-2-2m6.9-4c0-3.15-1.18-4.35-3.66-4.35a10.88 10.88 0 00-4.71 1.25 1.52 1.52 0 00.43 1.2 7.28 7.28 0 013.44-1c1.93 0 2.46 1 2.43 3.58-4.91.07-6.93 1.08-6.93 3.74a3 3 0 003.16 3 4.77 4.77 0 003.82-1.89h.07a14.54 14.54 0 00.17 1.87l1.95-.19a35.87 35.87 0 01-.17-4.83zm12.4 7.23c-.07-1.11-.12-2.93-.12-5.48v-.88c0-2.33.05-4 .12-4.95h-7.65a12.46 12.46 0 01.19 2.38v.65c0 4.82-.81 6.84-2.52 6.57a3 3 0 00.05 1.92c3.08.46 4.28-2.45 4.28-8.33v-1.75h3.56v5a42.89 42.89 0 01-.2 4.9zm12.85 0c-.07-1.3-.12-2.88-.12-4.76v-1.6c0-1.76.05-3.41.12-4.95H347c-.31.6-1.3 2-2.91 4.32s-2.55 3.67-2.86 4.2h-.12c.09-.84.14-2.13.14-3.93V934a23.24 23.24 0 01.12-2.93h-2.28c.12 1.42.16 3.07.16 4.92v1c0 2.38 0 4.18-.16 5.38h1.85c.43-.75 1.42-2.24 3-4.42s2.48-3.58 2.79-4.13h.07c-.07.82-.09 2.23-.09 4.25v1.34a19.63 19.63 0 01-.17 3zm17.81 0c-.07-1.3-.12-2.88-.12-4.76v-1.6c0-1.76.05-3.41.12-4.95h-1.78c-.31.6-1.3 2-2.91 4.32s-2.55 3.67-2.87 4.2h-.12a36.53 36.53 0 00.15-3.93V934a23.24 23.24 0 01.12-2.93h-2.29c.12 1.42.17 3.07.17 4.92v1c0 2.38 0 4.18-.17 5.38h1.85c.44-.75 1.42-2.24 3-4.42s2.48-3.58 2.8-4.13h.07c-.07.82-.1 2.23-.1 4.25v1.34a19.63 19.63 0 01-.17 3zm13.02 0c-.1-1.61-.15-3.36-.15-5.24v-.76q0-3.64.15-5.31h-2.29a27.15 27.15 0 01.17 3.6v1a35.16 35.16 0 01-5.3 0v-.86a32.14 32.14 0 01.15-3.75H370c.12 1.11.17 2.88.17 5.33v.7c0 2.13-.05 3.91-.17 5.28h2.31c-.1-.89-.15-2.36-.15-4.35v-.93a35.16 35.16 0 015.3 0v.93a40.91 40.91 0 01-.17 4.35zm6.42-9.87a8.57 8.57 0 011.66-.09 9 9 0 011.69.09V941h-5.11c1-1.06 1.74-4.18 1.76-8.43m-3 12.72v-2.85h8.26v2.85H393V941h-1.52c-.07-.77-.12-2.24-.12-4.4v-.76c0-2 .05-3.53.15-4.71h-7.41a18.14 18.14 0 01.14 2.4 18.41 18.41 0 01-.67 5c-.43 1.63-1 2.45-1.56 2.45h-.75v4.29zm21.94-2.87c-.07-1.3-.12-2.88-.12-4.76v-1.6c0-1.76.05-3.41.12-4.95h-1.78c-.32.6-1.3 2-2.91 4.32s-2.56 3.67-2.87 4.2h-.12a36.53 36.53 0 00.15-3.93V934a21.37 21.37 0 01.12-2.93h-2.29c.12 1.42.17 3.07.17 4.92v1c0 2.38-.05 4.18-.17 5.38h1.85c.44-.75 1.42-2.24 3-4.42s2.48-3.58 2.79-4.13h.08c-.08.82-.1 2.23-.1 4.25v1.34a19.63 19.63 0 01-.17 3zm5.6-5.26a13.76 13.76 0 012-.1c1.54 0 2.74.58 2.74 2a2.18 2.18 0 01-.94 2 5.49 5.49 0 01-2.16.29 4.68 4.68 0 01-1.62-.2zm0-4.85a6.45 6.45 0 011.69-.19c1.73 0 2.6.62 2.6 1.87a2 2 0 01-1.76 1.9 12.82 12.82 0 01-2.53.05zm1.83-1.49a30.11 30.11 0 00-4 .29c.12 1.32.17 2.93.17 4.8v.94c0 2.23-.05 4.1-.17 5.57a20.14 20.14 0 003.51.26c3.3 0 5.42-1.27 5.42-3.55a2.61 2.61 0 00-2.53-2.76v-.12a2.81 2.81 0 002.07-2.62q.01-2.8-4.47-2.81zm17.57 11.6c-.07-1.3-.12-2.88-.12-4.76v-1.6c0-1.76.05-3.41.12-4.95h-1.78c-.32.6-1.3 2-2.91 4.32s-2.55 3.67-2.87 4.2h-.12a36.53 36.53 0 00.15-3.93V934a21.37 21.37 0 01.12-2.93h-2.29c.12 1.42.17 3.07.17 4.92v1c0 2.38-.05 4.18-.17 5.38h1.85c.44-.75 1.42-2.24 3-4.42s2.48-3.58 2.79-4.13h.08c-.08.82-.1 2.23-.1 4.25v1.34a19.63 19.63 0 01-.17 3zm6.42-9.87a8.57 8.57 0 011.66-.09 9 9 0 011.69.09V941h-5.1c1-1.06 1.73-4.18 1.75-8.43m-3 12.72v-2.85h8.26v2.85h1.73V941h-1.52c-.07-.77-.12-2.24-.12-4.4v-.76c0-2 .05-3.53.15-4.71h-7.39a18.07 18.07 0 01.15 2.4 18.42 18.42 0 01-.68 5c-.43 1.63-1 2.45-1.56 2.45h-.75v4.29zm15.47-2.87h.6a14.65 14.65 0 01-2.48 4 1.82 1.82 0 001.54 1.1c.79-1 1.83-3.45 3.15-7.24l.89-2.57 1-3.15c.55-1.6.94-2.76 1.2-3.43h-1.95c-.26 1.25-.7 2.91-1.27 4.95s-1 3.52-1.4 4.44H450c-1.83-4.9-2.89-8-3.2-9.39h-2.58zm9.17-3.27a2.23 2.23 0 01.58-1.51 5.22 5.22 0 012.91-.58 8 8 0 011.37.2v2.35a3.42 3.42 0 01-2.86 1.58 1.93 1.93 0 01-2-2m6.91-4c0-3.15-1.18-4.35-3.66-4.35a10.88 10.88 0 00-4.71 1.25 1.52 1.52 0 00.43 1.2 7.28 7.28 0 013.44-1c1.93 0 2.45 1 2.43 3.58-4.91.07-6.93 1.08-6.93 3.74a3 3 0 003.15 3 4.77 4.77 0 003.83-1.89h.11a14.54 14.54 0 00.17 1.87l1.95-.19a35.87 35.87 0 01-.17-4.83zm12.38 7.23c-.07-1.11-.12-2.93-.12-5.48v-.88c0-2.33.05-4 .12-4.95h-7.65a12.46 12.46 0 01.19 2.38v.65c0 4.82-.82 6.84-2.52 6.57a3 3 0 000 1.92c3.08.46 4.29-2.45 4.29-8.33v-1.75h3.56v5a43.59 43.59 0 01-.19 4.9zm9.71-3.77a2.41 2.41 0 01-1 2.13 3.42 3.42 0 01-1.85.39 4.42 4.42 0 01-1.59-.19 30.19 30.19 0 010-4.66c2.79-.65 4.43.31 4.43 2.33m-6.6-7.54a37.8 37.8 0 01.17 4.61v.89c0 2.71-.05 4.61-.14 5.69a19 19 0 003.34.26c3.47 0 5.22-1.54 5.22-3.91a3.46 3.46 0 00-1.73-3.27 6.52 6.52 0 00-4.69-.28v-1.28a17.11 17.11 0 01.14-2.71zm20.7 11.31c-.1-1.61-.15-3.36-.15-5.24v-.76q0-3.64.15-5.31h-2.29a27.15 27.15 0 01.17 3.6v1a35 35 0 01-5.29 0v-.86a35.32 35.32 0 01.14-3.75h-2.31c.12 1.11.17 2.88.17 5.33v.7c0 2.13-.05 3.91-.17 5.28h2.31c-.09-.89-.14-2.36-.14-4.35v-.93a35 35 0 015.29 0v.93a40.91 40.91 0 01-.17 4.35zm13.33-5.42c0 2.09 0 3.89-.17 5.43h2.24c-.1-1-.15-2.88-.15-5.64v-1c0-2.23 0-3.76.15-4.63h-2.19c.07 1.44.12 3 .12 4.73zm-3.71 1.66a2.64 2.64 0 01-.86 2.13 3.48 3.48 0 01-1.59.41 4.33 4.33 0 01-1.64-.21 30.19 30.19 0 010-4.66c2.48-.61 4.09.3 4.09 2.32zm-6.18-7.54a44 44 0 01.17 4.8v.94c0 2.61-.05 4.44-.17 5.45a19 19 0 003.27.26c3.25 0 4.84-1.63 4.84-3.91a3.33 3.33 0 00-1.66-3.17 5.77 5.77 0 00-4.28-.38v-1.3a16 16 0 01.14-2.69zm18.41-5.24a2.07 2.07 0 00-1.45.67 3.06 3.06 0 003.28 2.57 3.29 3.29 0 003.46-2.76c-.14-.22-.46-.31-.91-.29a2.11 2.11 0 01-2.17 1.8 2.16 2.16 0 01-2.21-2m6.66 16.54c-.07-1.3-.12-2.88-.12-4.76v-1.6c0-1.76 0-3.41.12-4.95h-1.78c-.31.6-1.3 2-2.91 4.32s-2.55 3.67-2.86 4.2h-.12c.09-.84.14-2.13.14-3.93V934a23.24 23.24 0 01.12-2.93h-2.28c.12 1.42.16 3.07.16 4.92v1c0 2.38 0 4.18-.16 5.38h1.85c.43-.75 1.42-2.24 3-4.42s2.48-3.58 2.79-4.13h.07c-.07.82-.1 2.23-.1 4.25v1.34a19.84 19.84 0 01-.16 3zm-344.88 24.82a2.23 2.23 0 01.58-1.51 5.22 5.22 0 012.91-.58 8.1 8.1 0 011.37.2v2.35a3.42 3.42 0 01-2.86 1.58 1.93 1.93 0 01-2-2m6.91-4c0-3.15-1.18-4.35-3.66-4.35a10.88 10.88 0 00-4.71 1.25 1.52 1.52 0 00.43 1.2 7.28 7.28 0 013.44-1c1.92 0 2.45 1 2.43 3.58-4.91.07-6.93 1.08-6.93 3.74a3 3 0 003.15 3.05 4.77 4.77 0 003.83-1.89h.07a14.54 14.54 0 00.17 1.87l2-.19a35.87 35.87 0 01-.17-4.83zm10.2-4.08c-.5.67-1.15 1.54-2.12 2.71s-1.8 2-2.07 2h-.5v-1.1c0-1.58.05-2.81.14-3.65H195c.12 1.47.17 3.17.17 5.14v.84c0 2.13 0 3.91-.17 5.33h2.31c-.09-.94-.14-2.48-.14-4.59v-1h.5c.27 0 .68.48 1.21 1.4.36.55 1 1.58 1.66 2.44l.31.41a10 10 0 001.4 1.61 5.07 5.07 0 002.16-.34 33.22 33.22 0 01-3.54-4.46l-1.25-1.78c.39-.38 1.18-1.22 2.36-2.54s2-2.14 2.26-2.45zm13.84 5.19c0-2.16 0-3.89.14-5.19h-2.31c.12 1.23.17 2.88.17 5v4.9a21.91 21.91 0 01-2.53.09 21.31 21.31 0 01-2.5-.09v-4.9c0-2.11.05-3.77.15-5h-2.31c.12 1.3.16 2.93.16 4.9v.69c0 2.21 0 4.11-.16 5.72h9v2.85h1.74v-4.29h-1.54zM229 970.5c-.07-1.3-.12-2.88-.12-4.76v-1.6c0-1.76 0-3.41.12-4.95h-1.78c-.31.6-1.3 2-2.91 4.32s-2.55 3.67-2.87 4.2h-.12a36.53 36.53 0 00.15-3.93v-1.66a23.24 23.24 0 01.12-2.93h-2.29c.12 1.42.17 3.07.17 4.92v1c0 2.38 0 4.18-.17 5.38h1.85c.44-.75 1.42-2.24 3-4.42s2.48-3.58 2.8-4.13h.07c-.07.82-.1 2.23-.1 4.25v1.34a19.63 19.63 0 01-.17 3zm6.37-9.87a8.57 8.57 0 011.66-.09 8.88 8.88 0 011.69.09v8.43h-5.1c1-1.06 1.73-4.18 1.75-8.43m-3 12.72v-2.85h8.25v2.85h1.73v-4.29h-1.51c-.08-.77-.12-2.24-.12-4.4v-.76c0-1.95 0-3.53.14-4.71h-7.39a18.07 18.07 0 01.15 2.4 18.42 18.42 0 01-.68 5c-.43 1.63-1 2.45-1.56 2.45h-.75v4.29zM246 963.9a5 5 0 01.36-1.73 4 4 0 01.77-1.39 3.66 3.66 0 012-.56 2.65 2.65 0 011.86.7 2.32 2.32 0 01.74 1.8 1.24 1.24 0 01-.17.72 12.24 12.24 0 01-2.52.31c-1.38.1-2.39.15-3 .15m3.44-5a4.93 4.93 0 00-4 1.75 6.41 6.41 0 00-1.45 4.23c0 3.62 1.95 5.85 5.25 5.85a6.65 6.65 0 004.19-1.37 1.39 1.39 0 00-.39-1 5.27 5.27 0 01-3.13.86c-2.28 0-3.8-1.3-3.9-4.1l1.76-.15a33.92 33.92 0 005.8-.77 4.22 4.22 0 00.24-1.41 3.76 3.76 0 00-1.13-2.71 4.18 4.18 0 00-3.27-1.2zm16.57 11.6a94.13 94.13 0 01-.14-5.24v-.76c0-2.43 0-4.2.14-5.31h-2.28a27.51 27.51 0 01.16 3.6v1a35 35 0 01-5.29 0v-.86a32.14 32.14 0 01.15-3.75h-2.31c.12 1.11.16 2.88.16 5.33v.7c0 2.13 0 3.91-.16 5.28h2.31c-.1-.89-.15-2.36-.15-4.35v-.93a35 35 0 015.29 0v.93a41.41 41.41 0 01-.16 4.35zm2.1-9.65a18.76 18.76 0 012.79-.15h1v2.69a67 67 0 01-.22 7.11h2.43c-.12-1.18-.19-3.53-.19-7v-2.8h1a16.38 16.38 0 012.77.15v-1.66h-9.5zm21.15 9.65c-.1-1.61-.15-3.36-.15-5.24v-.76q0-3.64.15-5.31H287a27.15 27.15 0 01.17 3.6v1a35 35 0 01-5.29 0v-.86a32.76 32.76 0 01.14-3.75h-2.31c.12 1.11.17 2.88.17 5.33v.7c0 2.13-.05 3.91-.17 5.28H282c-.1-.89-.14-2.36-.14-4.35v-.93a35 35 0 015.29 0v.93a40.91 40.91 0 01-.17 4.35zm13.33-5.43c0 2.09-.05 3.89-.17 5.43h2.24c-.1-1-.15-2.88-.15-5.64v-1c0-2.23.05-3.76.15-4.63h-2.19c.07 1.44.12 3 .12 4.73zm-3.71 1.66a2.64 2.64 0 01-.86 2.13 3.48 3.48 0 01-1.59.41 4.3 4.3 0 01-1.64-.21 30.19 30.19 0 010-4.66c2.48-.6 4.09.31 4.09 2.33zm-6.18-7.54a44 44 0 01.17 4.8v.94c0 2.61-.05 4.44-.17 5.45a18.91 18.91 0 003.27.26c3.25 0 4.84-1.63 4.84-3.91a3.35 3.35 0 00-1.66-3.17 5.8 5.8 0 00-4.29-.38v-1.3a15.65 15.65 0 01.15-2.69zm18.4-5.19a2 2 0 00-1.44.67 3.06 3.06 0 003.3 2.53 3.3 3.3 0 003.47-2.76c-.15-.22-.46-.31-.92-.29a2.09 2.09 0 01-2.16 1.8 2.17 2.17 0 01-2.22-2m6.67 16.54c-.07-1.3-.12-2.88-.12-4.76v-1.6c0-1.76.05-3.41.12-4.95H316c-.31.6-1.3 2-2.91 4.32s-2.55 3.67-2.87 4.2h-.12a36.53 36.53 0 00.15-3.93v-1.66a23.24 23.24 0 01.12-2.93h-2.29c.12 1.42.17 3.07.17 4.92v1c0 2.38 0 4.18-.17 5.38H310c.43-.75 1.42-2.24 3-4.42s2.47-3.58 2.79-4.13h.07c-.07.82-.1 2.23-.1 4.25v1.34a19.63 19.63 0 01-.17 3zm21.72.01c-.09-1-.14-2.76-.14-5.38v-1c0-1.85.05-3.5.14-5h-2.16c.09 1.11.14 2.52.14 4.23v5.64l-1.92.07c-.94 0-1.57 0-1.93-.07v-5.72a39.38 39.38 0 01.17-4.15h-2.19c.07 1 .12 2.43.12 4.23v5.64l-1.93.07c-.91 0-1.54 0-1.9-.07v-5.69c0-1.68.05-3.07.15-4.18h-2.19a48.47 48.47 0 01.17 4.95v1c0 2 0 3.82-.17 5.36zm5.61-8.38a3.32 3.32 0 011.87-1.54 3.08 3.08 0 01.92-.09c1.76.07 2.79 1.49 2.79 4.1a5.34 5.34 0 01-1.4 4.13 4.06 4.06 0 01-2.52.7 4.33 4.33 0 01-1.66-.29zm-2.17-2.81c.12 1.37.19 3.7.19 7v1.18c0 4-.07 6.53-.19 7.63h2.33c-.09-.93-.14-2.23-.14-3.91v-.67a7.27 7.27 0 001.54.19 6.32 6.32 0 004.4-1.7 6.21 6.21 0 001.83-4.76c0-3-1.32-4.8-3.51-5.18a4.31 4.31 0 00-1.66.29 3.46 3.46 0 00-2.67 1.51v-1.87zm22.36 11.19c-.08-1.3-.12-2.88-.12-4.76v-1.6q0-2.64.12-4.95h-1.78c-.32.6-1.3 2-2.92 4.32s-2.55 3.67-2.86 4.2h-.12a37.19 37.19 0 00.14-3.93v-1.66a20.77 20.77 0 01.13-2.93h-2.29c.12 1.42.17 3.07.17 4.92v1c0 2.38-.05 4.18-.17 5.38h1.85c.44-.75 1.42-2.24 3-4.42s2.48-3.58 2.79-4.13h.07c-.07.82-.09 2.23-.09 4.25v1.34a19.63 19.63 0 01-.17 3zm8.23-1.08a3 3 0 01-2.41-1.3 5.59 5.59 0 01-1-3.43c0-2 .7-3.46 1.66-4.11a3.06 3.06 0 011.4-.36 3.2 3.2 0 011.15 0c.08 4.25.1 7.27 0 9.07a3.2 3.2 0 01-.84.08m3.85-9.2c1.63 0 3 1.71 3 4.52 0 2-.51 3.36-1.49 4.17a5 5 0 01-2.75.51c-.07-3.1-.07-6.12 0-9.1a4.93 4.93 0 011.28-.05zm-1 14.93a27.78 27.78 0 01-.19-3.89v-.57a5.52 5.52 0 004.6-1.56 6.67 6.67 0 001.61-4.75c0-2.88-1.37-4.92-3.56-5.38a4.59 4.59 0 00-1.09-.07 6.31 6.31 0 00-1.56.24v-1.06c.05-2.71.08-4.2.1-4.46a3.63 3.63 0 00-1.13-.07 4.09 4.09 0 00-1.08.12c.07.67.09 2.08.09 4.24v1a5.52 5.52 0 00-4.38 1.39 5.69 5.69 0 00-1.75 4.44c0 3.34 1.71 5.5 4.14 5.91a5.5 5.5 0 001 0 3.53 3.53 0 001-.15v.51c0 1.84-.05 3.19-.14 4zm7.48-14.25a18.92 18.92 0 012.8-.15h1v2.69a67 67 0 01-.22 7.11h2.43c-.12-1.18-.19-3.53-.19-7v-2.8h1a16.38 16.38 0 012.77.15v-1.66h-9.51zm21.12-1.97a5.27 5.27 0 00-3.9 1.66 6 6 0 00-1.58 4.29 6.26 6.26 0 001.44 4.32 5 5 0 003.85 1.61 6.28 6.28 0 003.63-1.08 1.45 1.45 0 00-.29-1 5.14 5.14 0 01-2.4.62c-2.5 0-4.12-2-4.12-5a4.48 4.48 0 011.21-3.32 2.75 2.75 0 011.87-.57 4.18 4.18 0 012.79.93 2.58 2.58 0 00.85-1.46 4.79 4.79 0 00-3.35-1m15.31 11.62c-.09-1.37-.14-3.2-.14-5.5v-.89c0-.72.05-2.35.14-4.92h-9.43c.12 1.78.17 3.41.17 4.9v1c0 1.61-.05 3.38-.17 5.38h2.31c-.1-1.42-.14-3.58-.14-6.53v-3.34a21.44 21.44 0 012.55-.09 22.9 22.9 0 012.6.09v3.27c0 3-.08 5.18-.2 6.6zm4.82-6.6a5 5 0 01.36-1.73 3.86 3.86 0 01.77-1.39 3.61 3.61 0 012-.56 2.61 2.61 0 011.85.7 2.3 2.3 0 01.75 1.8 1.24 1.24 0 01-.17.72 12.38 12.38 0 01-2.53.31c-1.37.1-2.38.15-3 .15m3.44-5a5 5 0 00-4.05 1.75 6.45 6.45 0 00-1.44 4.23c0 3.62 1.95 5.85 5.25 5.85a6.62 6.62 0 004.18-1.37 1.42 1.42 0 00-.38-1 5.29 5.29 0 01-3.13.86c-2.29 0-3.8-1.3-3.9-4.1l1.76-.15a34.06 34.06 0 005.8-.77 4.22 4.22 0 00.24-1.41 3.8 3.8 0 00-1.13-2.71 4.18 4.18 0 00-3.23-1.2zm16.18 5.48q0-3.24.15-5.19h-2.31c.12 1.23.17 2.88.17 5v4.9a21.91 21.91 0 01-2.53.09 21.2 21.2 0 01-2.5-.09v-4.9c0-2.11.05-3.77.14-5h-2.31c.12 1.3.17 2.93.17 4.9v.69c0 2.21-.05 4.11-.17 5.72h9v2.85h1.73v-4.29h-1.54zm13.29 6.12c-.08-1.3-.12-2.88-.12-4.76v-1.6q0-2.64.12-4.95h-1.78c-.32.6-1.3 2-2.92 4.32s-2.55 3.67-2.86 4.2h-.12a36.53 36.53 0 00.15-3.93v-1.66a21.37 21.37 0 01.12-2.93h-2.29c.12 1.42.17 3.07.17 4.92v1c0 2.38-.05 4.18-.17 5.38h1.85c.44-.75 1.42-2.24 3-4.42s2.48-3.58 2.79-4.13h.08c-.08.82-.1 2.23-.1 4.25v1.34a19.63 19.63 0 01-.17 3zm4.86-3.27a2.22 2.22 0 01.57-1.51 5.26 5.26 0 012.92-.58 8.1 8.1 0 011.37.2v2.35a3.45 3.45 0 01-2.87 1.58 1.93 1.93 0 01-2-2m6.9-4c0-3.15-1.18-4.35-3.65-4.35a10.92 10.92 0 00-4.72 1.25 1.52 1.52 0 00.43 1.2 7.28 7.28 0 013.44-1c1.93 0 2.46 1 2.43 3.58-4.9.07-6.93 1.08-6.93 3.74a3 3 0 003.16 3.05 4.77 4.77 0 003.82-1.89h.07a14.54 14.54 0 00.17 1.87l1.95-.19a35.87 35.87 0 01-.17-4.83zm12.4 7.23c-.07-1.11-.12-2.93-.12-5.48v-.88c0-2.33 0-4 .12-4.95h-7.65a12.34 12.34 0 01.2 2.38v.65c0 4.82-.82 6.84-2.53 6.57a3 3 0 00.05 1.92c3.08.46 4.28-2.45 4.28-8.33v-1.75h3.56v5a40.61 40.61 0 01-.2 4.9zm9.78-3.77a2.41 2.41 0 01-1 2.13 3.42 3.42 0 01-1.85.39 4.5 4.5 0 01-1.59-.19 30.19 30.19 0 010-4.66c2.79-.65 4.43.31 4.43 2.33m-6.59-7.54a37.8 37.8 0 01.17 4.61v.89c0 2.71-.05 4.61-.15 5.69a19.13 19.13 0 003.35.26c3.46 0 5.22-1.54 5.22-3.91a3.47 3.47 0 00-1.74-3.27 6.52 6.52 0 00-4.69-.28v-1.28a15.61 15.61 0 01.15-2.71zM506 970.5a94.13 94.13 0 01-.14-5.24v-.76c0-2.43.05-4.2.14-5.31h-2.28a27.51 27.51 0 01.16 3.6v1a35 35 0 01-5.29 0v-.86a32.14 32.14 0 01.15-3.75h-2.31c.12 1.11.16 2.88.16 5.33v.7c0 2.13 0 3.91-.16 5.28h2.31c-.1-.89-.15-2.36-.15-4.35v-.93a35 35 0 015.29 0v.93a41.41 41.41 0 01-.16 4.35zm8-10.28c2.28 0 3.39 2 3.39 4.85a5 5 0 01-1.2 3.7 3.14 3.14 0 01-1.71.55c-2.22 0-3.61-1.82-3.61-5a4.82 4.82 0 011.06-3.43 2.76 2.76 0 012.07-.68m.38-1.44a5.24 5.24 0 00-4 1.71 6.31 6.31 0 00-1.56 4.44 6.17 6.17 0 001.42 4.22 5.37 5.37 0 007.72 0 6.3 6.3 0 001.49-4.34c-.03-3.69-1.88-6.02-5.08-6.02zm15.46 1.86a8.57 8.57 0 011.66-.09 8.88 8.88 0 011.69.09v8.43h-5.1c1-1.06 1.73-4.18 1.75-8.43m-3 12.72v-2.85h8.25v2.85h1.73v-4.29h-1.51c-.08-.77-.12-2.24-.12-4.4v-.76c0-1.95 0-3.53.14-4.71h-7.39a18.07 18.07 0 01.15 2.4 18.42 18.42 0 01-.68 5c-.43 1.63-1 2.45-1.56 2.45h-.75v4.29zm21.29-2.85c-.07-1.11-.12-2.93-.12-5.48v-.88c0-2.33 0-4 .12-4.95h-7.65a12.46 12.46 0 01.19 2.38v.65c0 4.82-.82 6.84-2.53 6.57a3.09 3.09 0 00.05 1.92c3.08.46 4.29-2.45 4.29-8.33v-1.75h3.56v5a43.59 43.59 0 01-.19 4.9zm9.53-5.91a5.27 5.27 0 01-1 .1c-2.16 0-3.25-.75-3.25-2.26a2.27 2.27 0 01.82-1.7 3.65 3.65 0 012-.39 6.76 6.76 0 011.47.12zm2.14 5.91c-.12-1.54-.17-3.24-.17-5.09v-1.13a48.92 48.92 0 01.17-5 20.52 20.52 0 00-3.56-.29 6.33 6.33 0 00-3.47.89 3 3 0 001.23 5.5c-.17.24-.49.75-1 1.54s-.91 1.46-1.32 2.06-.75 1.08-1 1.42a5.49 5.49 0 002 .29 4.54 4.54 0 001.13-1.52c.36-.57.94-1.6 1.21-2.08.14-.24.28-.48.45-.72.36-.51.58-.72.77-.72h1.4v4.8zm-374.14 28.08c-.12-1.18-.19-3.46-.19-6.82v-3H187a28.1 28.1 0 013.32.14v-1.66h-7c.12 1.27.17 2.72.17 4.32v1.08c0 2.38-.05 4.32-.17 5.88zm11.21-10.27c2.29 0 3.4 2 3.4 4.84a4.93 4.93 0 01-1.21 3.7 3.11 3.11 0 01-1.7.55c-2.22 0-3.61-1.82-3.61-5a4.82 4.82 0 011.06-3.43 2.75 2.75 0 012.06-.67m.39-1.44a5.22 5.22 0 00-4 1.7 6.31 6.31 0 00-1.56 4.44 6.17 6.17 0 001.42 4.22 5.37 5.37 0 007.72-.05 6.3 6.3 0 001.49-4.34c-.02-3.64-1.87-5.96-5.07-5.96zm9.99 3.34a3.26 3.26 0 011.87-1.53 2.81 2.81 0 01.92-.1c1.75.07 2.79 1.49 2.79 4.1a5.34 5.34 0 01-1.4 4.13 4.06 4.06 0 01-2.52.7 4.29 4.29 0 01-1.66-.29zm-2.19-2.81c.12 1.37.19 3.7.19 7v1.17c0 4-.07 6.53-.19 7.63h2.33c-.1-.93-.14-2.23-.14-3.91v-.67a7.19 7.19 0 001.54.19 6.34 6.34 0 004.4-1.7 6.19 6.19 0 001.83-4.75c0-3-1.33-4.8-3.52-5.19a4.37 4.37 0 00-1.66.29 3.49 3.49 0 00-2.67 1.51v-1.87zm17.2.92c2.29 0 3.39 2 3.39 4.84a5 5 0 01-1.2 3.7 3.12 3.12 0 01-1.71.55c-2.21 0-3.61-1.82-3.61-5a4.82 4.82 0 011.06-3.43 2.78 2.78 0 012.07-.67m.39-1.44a5.21 5.21 0 00-4 1.7 6.27 6.27 0 00-1.57 4.44 6.17 6.17 0 001.42 4.22 5.39 5.39 0 007.73-.05 6.35 6.35 0 001.49-4.34c-.02-3.64-1.87-5.96-5.07-5.96zm10.8 1.85a8.5 8.5 0 011.66-.09 8.75 8.75 0 011.68.09v8.43h-5.1c1-1.06 1.73-4.18 1.76-8.43m-3 12.72v-2.85h8.25v2.85h1.74v-4.29h-1.52c-.07-.77-.12-2.23-.12-4.39V992c0-2 .05-3.53.14-4.71h-7.38a20 20 0 01.14 2.4 18.41 18.41 0 01-.67 5c-.43 1.63-1 2.45-1.57 2.45h-.74v4.29zm13.66-6.12a2.18 2.18 0 01.58-1.51 5.19 5.19 0 012.91-.58 8.1 8.1 0 011.37.2v2.35a3.42 3.42 0 01-2.86 1.58 1.93 1.93 0 01-2-2m6.9-4c0-3.15-1.18-4.34-3.65-4.34a10.89 10.89 0 00-4.72 1.24 1.5 1.5 0 00.43 1.2 7.28 7.28 0 013.44-1c1.93 0 2.46 1 2.43 3.57-4.9.07-6.93 1.08-6.93 3.75a3 3 0 003.16 3 4.75 4.75 0 003.83-1.87h.08a13.35 13.35 0 00.16 1.87l2-.19a35.77 35.77 0 01-.17-4.83zm16.27-7.29c-.6.91-1.61 2.23-3 4s-2.17 2.57-2.39 2.57h-.5c0-3.1 0-5.26.14-6.53h-2.43c.12 1.46.17 3.76.17 6.93v.8c0 3.07 0 5.32-.17 6.79h2.45c-.09-1.42-.14-3.75-.14-7h.53c.26 0 1 1 2.36 2.9.69 1 1.2 1.66 1.51 2.07a12.25 12.25 0 002.19 2.3 4.94 4.94 0 002.26-.38 41.31 41.31 0 01-3.08-3.53q-2-2.49-3.17-4.22l5.68-6.65zm8.08 14.52h.64a14.9 14.9 0 01-2.48 4 1.85 1.85 0 001.54 1.11c.79-1 1.83-3.46 3.15-7.25l.89-2.57 1-3.14c.56-1.61.94-2.76 1.21-3.44h-1.95c-.27 1.25-.7 2.91-1.28 5a44.65 44.65 0 01-1.39 4.44h-.12c-1.83-4.9-2.89-8-3.2-9.39h-2.58zm17.33 0c-.1-1.61-.14-3.36-.14-5.23v-.77c0-2.43 0-4.2.14-5.31h-2.29a27.15 27.15 0 01.17 3.6v1a35 35 0 01-5.29 0V991a35.32 35.32 0 01.14-3.75h-2.31c.12 1.11.17 2.88.17 5.33v.7c0 2.13 0 3.91-.17 5.28h2.31c-.09-.89-.14-2.35-.14-4.35v-.93a35 35 0 015.29 0v.93a40.91 40.91 0 01-.17 4.35zm5.8 0c-.12-1.18-.19-3.46-.19-6.82v-3h1.54a28.1 28.1 0 013.32.14v-1.66h-7c.12 1.27.17 2.72.17 4.32v1.08c0 2.38-.05 4.32-.17 5.88zm9.91 0h.6a14.93 14.93 0 01-2.47 4 1.83 1.83 0 001.54 1.11c.79-1 1.82-3.46 3.15-7.25l.89-2.57 1-3.14c.56-1.61.94-2.76 1.21-3.44h-2c-.27 1.25-.7 2.91-1.28 5a44.65 44.65 0 01-1.39 4.44h-.12c-1.83-4.9-2.89-8-3.21-9.39h-2.57zm9.92-8.38a3.26 3.26 0 011.87-1.53 2.81 2.81 0 01.92-.1c1.75.07 2.79 1.49 2.79 4.1a5.34 5.34 0 01-1.4 4.13 4.06 4.06 0 01-2.52.7 4.29 4.29 0 01-1.66-.29zm-2.19-2.81c.12 1.37.19 3.7.19 7v1.17c0 4-.07 6.53-.19 7.63h2.33c-.1-.93-.14-2.23-.14-3.91v-.67a7.19 7.19 0 001.54.19 6.34 6.34 0 004.4-1.7 6.19 6.19 0 001.83-4.75c0-3-1.33-4.8-3.52-5.19a4.37 4.37 0 00-1.66.29 3.49 3.49 0 00-2.67 1.51v-1.87zm14.1 7.92a2.22 2.22 0 01.57-1.51 5.24 5.24 0 012.91-.58 8.05 8.05 0 011.38.2v2.35a3.42 3.42 0 01-2.87 1.58 1.92 1.92 0 01-2-2m6.9-4c0-3.15-1.18-4.34-3.66-4.34a10.85 10.85 0 00-4.71 1.24 1.5 1.5 0 00.43 1.2 7.25 7.25 0 013.44-1c1.93 0 2.46 1 2.43 3.57-4.91.07-6.93 1.08-6.93 3.75a3 3 0 003.15 3 4.77 4.77 0 003.83-1.89h.07a14.54 14.54 0 00.17 1.87l1.95-.19a35.77 35.77 0 01-.17-4.83zm17.72 7.23c-.07-1.3-.12-2.88-.12-4.75v-1.61c0-1.75 0-3.41.12-5h-1.78c-.31.6-1.3 2-2.91 4.32s-2.55 3.68-2.86 4.2h-.12c.09-.84.14-2.13.14-3.93v-1.61a23.35 23.35 0 01.12-2.93h-2.29c.12 1.42.17 3.08.17 4.92v1c0 2.38-.05 4.18-.17 5.38H347c.43-.75 1.42-2.23 3-4.42s2.47-3.57 2.79-4.13h.07c-.07.82-.1 2.24-.1 4.25v1.35a19.78 19.78 0 01-.16 3zm17.69 0c-.1-1.61-.15-3.36-.15-5.23v-.77q0-3.65.15-5.31h-2.29a27.15 27.15 0 01.17 3.6v1a35 35 0 01-5.29 0V991a32.76 32.76 0 01.14-3.75H363c.12 1.11.17 2.88.17 5.33v.7c0 2.13-.05 3.91-.17 5.28h2.31c-.1-.89-.14-2.35-.14-4.35v-.93a35 35 0 015.29 0v.93a40.91 40.91 0 01-.17 4.35zm4.86-3.27a2.22 2.22 0 01.57-1.51 5.26 5.26 0 012.92-.58 8.1 8.1 0 011.37.2v2.35a3.42 3.42 0 01-2.87 1.58 1.93 1.93 0 01-2-2m6.9-4c0-3.15-1.18-4.34-3.65-4.34a10.89 10.89 0 00-4.72 1.24 1.5 1.5 0 00.43 1.2 7.25 7.25 0 013.44-1c1.93 0 2.46 1 2.43 3.57-4.9.07-6.93 1.08-6.93 3.75a3 3 0 003.16 3 4.77 4.77 0 003.82-1.89h.07a14.54 14.54 0 00.17 1.87l1.95-.19a35.77 35.77 0 01-.17-4.83zm3.36-2.23a5.74 5.74 0 012.84-.74c1.51 0 2.33.74 2.33 1.92a2.08 2.08 0 01-2.29 1.92 5.2 5.2 0 01-1.53-.17 1.51 1.51 0 000 1.46 6 6 0 011.66-.16c1.54 0 2.67.74 2.67 2a2 2 0 01-.92 1.78 3.89 3.89 0 01-1.8.36 5.32 5.32 0 01-3.06-.89 2.3 2.3 0 00-.65 1.32 4.05 4.05 0 001.45.65 7.49 7.49 0 002.11.31c2.91 0 5-1.25 5-3.67a2.6 2.6 0 00-2.52-2.55v-.12a2.9 2.9 0 002-2.73c0-1.64-1.25-2.86-3.63-2.86a8.41 8.41 0 00-4 .86 2.73 2.73 0 00.36 1.3m12.9 4.21a13.51 13.51 0 012-.1c1.54 0 2.74.58 2.74 2a2.19 2.19 0 01-.93 2 5.55 5.55 0 01-2.17.29 4.72 4.72 0 01-1.61-.19zm0-4.85a6.37 6.37 0 011.68-.19c1.74 0 2.6.62 2.6 1.87a2 2 0 01-1.75 1.9 12.82 12.82 0 01-2.53.05zm1.83-1.48a30.16 30.16 0 00-4 .28c.12 1.32.17 2.93.17 4.8v.93c0 2.23-.05 4.1-.17 5.57a19.32 19.32 0 003.52.26c3.29 0 5.41-1.27 5.41-3.55a2.6 2.6 0 00-2.53-2.76v-.12a2.79 2.79 0 002.07-2.62q0-2.78-4.47-2.78zm9.29 8.32a2.22 2.22 0 01.57-1.51 5.22 5.22 0 012.91-.58 8.19 8.19 0 011.38.2v2.35a3.42 3.42 0 01-2.87 1.58 1.92 1.92 0 01-2-2m6.9-4c0-3.15-1.18-4.34-3.66-4.34a10.85 10.85 0 00-4.71 1.24 1.5 1.5 0 00.43 1.2 7.25 7.25 0 013.44-1c1.93 0 2.46 1 2.43 3.57-4.91.07-6.93 1.08-6.93 3.75a3 3 0 003.15 3 4.77 4.77 0 003.83-1.89h.07a14.54 14.54 0 00.17 1.87l1.95-.19a35.77 35.77 0 01-.17-4.83zm12.43 7.23c-.07-1.11-.12-2.93-.12-5.47v-.89c0-2.33 0-4 .12-5h-7.65a12.54 12.54 0 01.19 2.38v.65c0 4.82-.81 6.84-2.52 6.57a3 3 0 00.05 1.92c3.08.46 4.28-2.44 4.28-8.32v-1.76h3.57v5a42.76 42.76 0 01-.2 4.9zm12.82 0c-.07-1.3-.12-2.88-.12-4.75v-1.61c0-1.75.05-3.41.12-5H442c-.31.6-1.3 2-2.91 4.32s-2.55 3.68-2.86 4.2h-.12c.09-.84.14-2.13.14-3.93v-1.61a23.35 23.35 0 01.12-2.93h-2.29c.13 1.42.17 3.08.17 4.92v1c0 2.38 0 4.18-.17 5.38H436c.43-.75 1.42-2.23 3-4.42s2.48-3.57 2.79-4.13h.07c-.07.82-.1 2.24-.1 4.25v1.35a19.78 19.78 0 01-.16 3zm9.51-6.58a5 5 0 01.36-1.73 3.86 3.86 0 01.77-1.39 3.6 3.6 0 012-.55 2.6 2.6 0 011.85.69 2.3 2.3 0 01.75 1.8 1.24 1.24 0 01-.17.72 12.27 12.27 0 01-2.53.31c-1.37.1-2.38.15-3 .15m3.44-5a5 5 0 00-4 1.75 6.45 6.45 0 00-1.44 4.23c0 3.62 2 5.85 5.25 5.85a6.66 6.66 0 004.18-1.36 1.45 1.45 0 00-.38-1 5.29 5.29 0 01-3.13.86c-2.29 0-3.8-1.29-3.9-4.1l1.76-.15a35.09 35.09 0 005.8-.76 4.24 4.24 0 00.24-1.42 3.8 3.8 0 00-1.13-2.71 4.22 4.22 0 00-3.28-1.19zm9.35 11.58c-.12-1.18-.19-3.46-.19-6.82v-3h1.54a28.1 28.1 0 013.32.14v-1.66h-7c.12 1.27.17 2.72.17 4.32v1.08c0 2.38 0 4.32-.17 5.88zm11.21-10.27c2.29 0 3.4 2 3.4 4.84a4.93 4.93 0 01-1.21 3.7 3.11 3.11 0 01-1.7.55c-2.22 0-3.61-1.82-3.61-5a4.82 4.82 0 011.06-3.4 2.75 2.75 0 012.06-.67m.39-1.44a5.22 5.22 0 00-4 1.7 6.31 6.31 0 00-1.56 4.44 6.17 6.17 0 001.42 4.22 5.37 5.37 0 007.72-.05 6.3 6.3 0 001.49-4.34c-.02-3.67-1.82-5.99-5.07-5.99zm23.94.98a1.54 1.54 0 00-1.54-.19l-2.79 5 2.64 4.72a1.54 1.54 0 00.91 0 1.84 1.84 0 00.8-.4l-2.65-4.54zm-3.75-.07a1.78 1.78 0 00-1.66-.12l-2.58 4.68 2.6 5a1.29 1.29 0 001.4-.43l-2.31-4.4zm18.74 10.78c-.07-1.35-.12-3.82-.12-7.44v-1c0-3 .05-5 .12-6.12h-1.95a60.08 60.08 0 01-3.8 6q-3.14 4.58-3.54 5.4h-.12a20.86 20.86 0 00.12-2.76v-8.64h-2.21c.12 1.05.17 3.07.17 6v1c0 3.6-.05 6.1-.17 7.47h2a46.78 46.78 0 013.75-6.05c2.09-3 3.27-4.82 3.56-5.38h.1c-.07.94-.12 3.32-.12 7.13v4.3zm5.61-8.38a3.26 3.26 0 011.87-1.53 2.81 2.81 0 01.92-.1c1.76.07 2.79 1.49 2.79 4.1a5.34 5.34 0 01-1.4 4.13 4.06 4.06 0 01-2.52.7 4.29 4.29 0 01-1.66-.29zm-2.19-2.81c.12 1.37.19 3.7.19 7v1.17c0 4-.07 6.53-.19 7.63h2.33c-.09-.93-.14-2.23-.14-3.91v-.67a7.27 7.27 0 001.54.19 6.32 6.32 0 004.4-1.7 6.19 6.19 0 001.83-4.75c0-3-1.32-4.8-3.51-5.19a4.31 4.31 0 00-1.66.29 3.46 3.46 0 00-2.67 1.51v-1.87zm14.07 4.61a4.86 4.86 0 01.37-1.73 3.86 3.86 0 01.77-1.39 3.6 3.6 0 012-.55 2.62 2.62 0 011.85.69 2.3 2.3 0 01.75 1.8 1.24 1.24 0 01-.17.72 12.38 12.38 0 01-2.53.31c-1.37.1-2.38.15-3 .15m3.45-5a5 5 0 00-4 1.75 6.45 6.45 0 00-1.44 4.23c0 3.62 2 5.85 5.24 5.85a6.69 6.69 0 004.19-1.36 1.45 1.45 0 00-.38-1 5.31 5.31 0 01-3.13.86c-2.29 0-3.8-1.29-3.9-4.1l1.76-.15a35.23 35.23 0 005.8-.76 4.5 4.5 0 00.24-1.42 3.8 3.8 0 00-1.13-2.71 4.22 4.22 0 00-3.29-1.19zm16.56 11.58c-.1-1.61-.15-3.36-.15-5.23v-.77q0-3.65.15-5.31h-2.29a27.15 27.15 0 01.17 3.6v1a35 35 0 01-5.29 0V991a35.32 35.32 0 01.14-3.75h-2.31c.12 1.11.17 2.88.17 5.33v.7c0 2.13 0 3.91-.17 5.28H547c-.09-.89-.14-2.35-.14-4.35v-.93a35 35 0 015.29 0v.93a40.91 40.91 0 01-.17 4.35zm10.03-3.77a2.43 2.43 0 01-1 2.14 3.56 3.56 0 01-1.86.38 4.5 4.5 0 01-1.59-.19 30.19 30.19 0 010-4.66c2.8-.65 4.43.31 4.43 2.33m-6.59-7.54a37.8 37.8 0 01.17 4.61v.89c0 2.71-.05 4.61-.15 5.69a19.13 19.13 0 003.35.26c3.46 0 5.22-1.54 5.22-3.91a3.45 3.45 0 00-1.73-3.26 6.49 6.49 0 00-4.7-.29V990a15.67 15.67 0 01.15-2.72zm11.09 9.82a1.54 1.54 0 001.54.19l2.79-5-2.67-4.73a1.57 1.57 0 00-.92.05 1.69 1.69 0 00-.79.41l2.65 4.53zm3.75.07a1.78 1.78 0 001.66.12l2.58-4.68-2.6-5a1.26 1.26 0 00-1.4.43l2.31 4.39z"/><path d="M193.12 115.28c-3.42 0-5.47-2.59-5.47-6.66 0-2.77.61-4.72 1.8-5.83a6.55 6.55 0 014.28-.58q.27 5.57 0 13.07zm5.11-13.21c3.06 0 5.22 2.09 5.22 6.51 0 2.78-.72 4.76-2.12 6a7.07 7.07 0 01-2.12.54 5.26 5.26 0 01-1.84-.08q-.27-6.48 0-13a5.78 5.78 0 01.86.03zm-.5 18.65a18.17 18.17 0 01-.22-3.17c5.66 0 10.19-2.34 10.19-9.22 0-5.51-3.24-8.53-8.42-8.53a9.07 9.07 0 00-1.77.18 13.9 13.9 0 01.22-2.63h-4.36a10 10 0 01.22 2.45c-6.37 0-10.19 3-10.19 9.29 0 5.43 3.21 8.46 8.35 8.46a10.94 10.94 0 001.84-.15 18.27 18.27 0 01-.22 3.32zm29.05-.51c-.14-1.91-.21-4.35-.21-7.34v-2.41c0-2.78.07-5.26.21-7.38h-3.6c-.47.9-1.76 2.91-3.92 6s-3.46 5.08-3.93 6h-.21a47.33 47.33 0 00.25-5.51v-2.12a33.66 33.66 0 01.18-4.39h-4.36c.18 2 .26 4.5.26 7.34v1.6c0 3.64-.08 6.34-.26 8.17h3.64c.58-1 1.91-3.06 4-6.12s3.38-5.07 3.89-6h.14c-.11 1.44-.18 3.42-.18 6v1.69a28.52 28.52 0 01-.29 4.43zm8.79-12.67a4 4 0 012.55-2 3.78 3.78 0 011.26-.11c2.34.18 3.71 2.27 3.71 5.91 0 2.77-.61 4.78-1.87 6a5.34 5.34 0 01-3.31.9 4.93 4.93 0 01-2.34-.47zm-4.25-4.28c.21 2 .32 5.61.32 10.72v1.77q0 9-.32 11.45h4.5a49.72 49.72 0 01-.25-5.87v-1a10.54 10.54 0 002.26.25 9.66 9.66 0 006.74-2.56 9.33 9.33 0 002.8-7.2c0-4.75-2.19-7.52-5.65-7.95a6 6 0 00-3.09.82 4.13 4.13 0 00-3.24 1.8l.07-.5v-2.23zm22.57 16.95q-.06-1.35-.07-12.74h.25c.25.72.76 1.87 1.44 3.45l1.22 2.74 1.52 3.38h2.3l1.26-2.7c1.3-2.88 2.27-5.14 2.88-6.8h.31v5.87c0 3.03 0 5.25-.15 6.8H269a124.52 124.52 0 01-.83-13.21l-.07-3.92h-3.85c-.33 1-1.69 4.06-4.11 9.25H260c-1.12-2.27-2.56-5.33-4.32-9.25h-4.07l-.29 6.19c-.32 5.4-.61 9-.86 10.94zm22.36-10.01a8.14 8.14 0 01.43-2.48 6.19 6.19 0 011-2 4.25 4.25 0 012.59-.76 3.29 3.29 0 013.45 3.39 2.53 2.53 0 01-.28 1.26 17.79 17.79 0 01-3.28.39c-1.73.11-3 .18-3.92.18m4.6-7.66a8 8 0 00-6.33 2.66 9.61 9.61 0 00-2.27 6.48c0 5.47 3.1 8.86 8.32 8.86a12.09 12.09 0 004-.65 7.65 7.65 0 002.7-1.51 3.3 3.3 0 00-.62-1.91 8.39 8.39 0 01-4.75 1.29c-3.17 0-5.4-1.76-5.58-5.5l2.67-.18a57.31 57.31 0 008.46-1.16 7.11 7.11 0 00.43-2.26 5.75 5.75 0 00-1.84-4.32 7 7 0 00-5.18-1.78zm25.9 17.69q-.23-3.61-.22-8v-1.15c0-3.67.07-6.34.22-8h-4.39a42.2 42.2 0 01.28 5.25v1.51a41.49 41.49 0 01-7.05 0v-1.33a43.16 43.16 0 01.25-5.43h-4.43c.18 1.65.25 4.32.25 8v1.05c0 3.31-.07 6-.25 8.06h4.43a59.17 59.17 0 01-.25-6.37v-1.4a41.49 41.49 0 017.05 0v1.4c0 2.45-.1 4.57-.28 6.37zm19.94 0q-.21-3.61-.21-8v-1.15c0-3.67.07-6.34.21-8h-4.39a42 42 0 01.29 5.25v1.51a41.61 41.61 0 01-7.06 0v-1.33a43.16 43.16 0 01.25-5.43h-4.42c.18 1.65.25 4.32.25 8v1.05c0 3.31-.07 6-.25 8.06h4.42a59.17 59.17 0 01-.25-6.37v-1.4a41.61 41.61 0 017.06 0v1.4c0 2.45-.11 4.57-.29 6.37zm20.32-8.13c0 2.8-.11 5.5-.29 8.13H351a84.22 84.22 0 01-.26-8.46v-1.55a59.54 59.54 0 01.26-7.12h-4.22c.15 2.59.22 5 .22 7.27zm-6.12 2.41a3.83 3.83 0 01-1.15 3 5.1 5.1 0 01-2.16.5 6.44 6.44 0 01-2.2-.29 33.38 33.38 0 010-6.48c3.41-.87 5.46.5 5.46 3.27zm-9.54-11.41c.18 1.69.25 4.24.25 7.59v1.41a79.78 79.78 0 01-.25 8 33.76 33.76 0 005.54.39c5.3 0 7.74-2.41 7.74-6a5.16 5.16 0 00-2.55-4.86c-1.69-1-3.85-1.16-6.55-.58v-1.8a22 22 0 01.25-4.1zm29.36-7.89a3.8 3.8 0 00-2.7 1.26c.39 2.45 2.44 4.07 5.32 4.07a5.48 5.48 0 003.86-1.33 4.87 4.87 0 001.59-3.19c-.18-.4-1.08-.61-1.66-.5a3.23 3.23 0 01-3.17 2.7q-2.54 0-3.24-3m10.41 25c-.15-1.91-.22-4.35-.22-7.34v-2.41c0-2.78.07-5.26.22-7.38h-3.6c-.47.9-1.77 2.91-3.93 6s-3.45 5.08-3.92 6h-.22a47.33 47.33 0 00.25-5.51v-2.12a35.67 35.67 0 01.18-4.39h-4.35c.18 2 .25 4.5.25 7.34V112c0 3.64-.07 6.34-.25 8.17h3.63c.58-1 1.91-3.06 4-6.12s3.39-5.07 3.89-6h.15c-.11 1.44-.18 3.42-.18 6v1.69a28.52 28.52 0 01-.29 4.43zm33.22.01a78.55 78.55 0 01-.25-8.06v-1.44c0-2.52.07-5.08.25-7.63h-4.1a63.38 63.38 0 01.25 6.51v8l-2.55.11a19.9 19.9 0 01-2.56-.11v-8.1a60 60 0 01.29-6.4h-4.14c.14 1.51.21 3.67.21 6.51v8l-2.52.11a19.82 19.82 0 01-2.55-.11v-8.06a61.12 61.12 0 01.29-6.44h-4.14a75.38 75.38 0 01.25 7.59v1.51c0 3.06-.07 5.73-.25 8zm8.82-12.67a4 4 0 012.56-2 3.78 3.78 0 011.26-.11c2.34.18 3.71 2.27 3.71 5.91 0 2.77-.61 4.78-1.87 6a5.37 5.37 0 01-3.32.9 5 5 0 01-2.34-.47zm-4.24-4.28c.21 2 .32 5.61.32 10.72v1.77q0 9-.32 11.45h4.5a49.32 49.32 0 01-.26-5.87v-1a10.7 10.7 0 002.27.25 9.62 9.62 0 006.73-2.56 9.31 9.31 0 002.81-7.2c0-4.75-2.19-7.52-5.65-7.95a6 6 0 00-3.1.82 4.13 4.13 0 00-3.24 1.8l.08-.5v-2.23zm35.28 16.95c-.15-1.91-.22-4.35-.22-7.34v-2.41c0-2.78.07-5.26.22-7.38h-3.6c-.47.9-1.77 2.91-3.93 6s-3.45 5.08-3.92 6h-.22a47.33 47.33 0 00.25-5.51v-2.12a35.67 35.67 0 01.18-4.39h-4.35c.18 2 .25 4.5.25 7.34v1.6c0 3.64-.07 6.34-.25 8.17h3.63c.58-1 1.91-3.06 4-6.12s3.39-5.07 3.89-6h.15c-.11 1.44-.18 3.42-.18 6v1.69a28.52 28.52 0 01-.29 4.43zm12.13-1.98c-2.56 0-4.36-2.7-4.36-6.84 0-2.77.69-4.71 2.09-5.9a4.46 4.46 0 013.42-.36c.18 5 .22 9.32 0 13a3.08 3.08 0 01-1.19.14m6.41-13.17c2.19 0 3.85 2.44 3.85 6.48 0 2.88-.65 4.93-1.95 6.12a6.62 6.62 0 01-3.63.57c-.11-4.43-.11-8.75 0-13a6.38 6.38 0 011.77-.21zm-1.26 22.14a40.24 40.24 0 01-.26-5.84v-.82c6.09.18 9.47-3.46 9.47-9.54 0-4.61-2.19-7.64-5.69-8.18-.75 0-1.29-.07-1.62-.07a9.62 9.62 0 00-2.16.4v-1.48c0-.54 0-1.33.08-2.37s0-2 0-2.74 0-1.33.07-1.62a9.1 9.1 0 00-2.23-.14 9.88 9.88 0 00-2.05.21c.11 1 .18 3.13.18 6.41v1.37a8.84 8.84 0 00-6.8 2.09 8.6 8.6 0 00-2.63 6.76 10 10 0 001.8 6.23 6.9 6.9 0 004.61 2.67 12.91 12.91 0 001.58 0 6.27 6.27 0 001.48-.25v.76c0 2.77-.08 4.82-.22 6.12zm11.05-21.1a25.15 25.15 0 014.18-.29H478v3.71a92.6 92.6 0 01-.39 10.65h4.71a95.33 95.33 0 01-.39-10.55v-3.81h1.33a21.51 21.51 0 014.14.29v-3.06h-14.92z" fill="#ea533d"/></g></svg>