<svg id="Layer_1" data-name="Layer 1" xmlns="http://www.w3.org/2000/svg" viewBox="0 0 1920 1080"><defs><clipPath id="clip-path"><path fill="none" d="M0 0h1920v1080H0z"/></clipPath><style>.cls-4{fill:#ea533d}</style></defs><g clip-path="url(#clip-path)"><path fill="#d6e2d4" d="M0 0h1920v1080H0z"/><path class="cls-4" d="M882.98 650.19v13.2h.04v25.6h13.22v-12.72h12.44v12.83h12.96v12.87h12.87v12.88h-12.87v25.74h12.87v12.87h-12.87v12.87h-12.96v12.83h-12.49V766.4h-13.21v38.85h13.21v-.05h25.75v-13.21h-12.88v-12.45h12.83v-12.87h12.96V753.8h12.53v12.89h25.75v-12.87h12.83v12.87h12.96v12.88h12.83v12.5h-12.8v13.21l38.88-.01v-38.95h-13.28v12.86h-12.42v-12.83h-12.96v-12.87H986.3v-12.87h-13.22v12.87h-25.36v-12.89h-12.87v-25.74h12.87v-12.88h25.36v12.88h12.58v25.74h13.22v-25.74H986.3v-12.88h12.87V689.1h12.96v-12.83h12.49v12.72h13.21v-38.8h-38.95v13.2h12.87v12.51h-12.83v12.87h-12.96v12.87h-12.83v-12.87h-25.75v12.87h-12.53v-12.87h-12.96V675.9h-12.83v-12.51h12.58v-13.2h-38.66z"/><path class="cls-4" d="M932.9 677.82l9.34 9.34 18.02-18.01 18.01 18.01 9.34-9.34-27.34-27.34-.01.02-.02-.02-27.34 27.34zm-31.26 49.9l18.02-18.02-9.34-9.34-27.34 27.34.02.02-.02.01 27.34 27.34 9.34-9.34-18.02-18.01zm85.98 49.79l-9.34-9.34-18.02 18.02-18.03-18.02-9.34 9.34 27.34 27.34.03-.03.02.03 27.34-27.34zm-27.36-62.66a12.87 12.87 0 1012.87 12.86 12.87 12.87 0 00-12.87-12.86m-25.75-212.76V489.2h-25.52v-12.89h12.82v-12.9H895.8v12.93h-12.89v25.71h12.89v-12.63h13v25.52h13.08v-12.85h12.63zm-25.52 103.13v-12.89h25.54v-12.9h-12.86v-12.85h-12.89v25.71h.04v.02h-7.94v-.02h-5.08v-12.78h-12.89v25.71h12.89v12.89h26.01v-12.89h-12.82z"/><path class="cls-4" d="M909.54 540.67a25.77 25.77 0 0025.2-25.73h-12.82a12.93 12.93 0 11-25.85 0h-12.83a25.77 25.77 0 0025.21 25.73 25.78 25.78 0 00-25.21 25.74h12.83A12.93 12.93 0 01909 553.49a12.93 12.93 0 0112.92 12.92h12.82a25.77 25.77 0 00-25.2-25.74m63.89-51.25a12.94 12.94 0 0112.92-12.93v-12.82a25.77 25.77 0 00-25.73 25.21 25.78 25.78 0 00-25.74-25.21v12.82a12.93 12.93 0 0112.91 12.39v.54a12.94 12.94 0 01-12.93 12.93v12.81A25.78 25.78 0 00960.6 490a25.77 25.77 0 0025.69 25.2 25.76 25.76 0 0025.24 25.51 25.77 25.77 0 00-25.24 25.74h12.82a12.93 12.93 0 0112.89-12.96h.2a12.93 12.93 0 0112.8 12.92h12.82a25.77 25.77 0 00-25.24-25.74h.63a25.76 25.76 0 0024.61-25.71H1025a12.92 12.92 0 11-25.84 0h-12.81v-12.61a12.94 12.94 0 01-12.92-12.93m-38.57 77.12v12.82a12.94 12.94 0 0112.93 12.93v.76a12.94 12.94 0 01-12.91 12.2v12.82a25.78 25.78 0 0025.74-25.23 25.77 25.77 0 0025.73 25.23v-12.82a12.94 12.94 0 01-12.91-12.5v-1.07a12.93 12.93 0 0112.9-12.32v-12.82a25.78 25.78 0 00-25.73 25.12v.54a25.78 25.78 0 00-25.75-25.66m25.75 25.75h-.08z"/><path class="cls-4" d="M954.49 540.76c-31.06 0 6 37.1 6 6 0 31.06 37.09-6 6-6 31 0-6-37.1-6-6 0-31.06-37.1 6-6 6M559.86 340.48v-12.91h-12.91v12.9h-12.91v25.82h12.91v-25.81h12.91zm-12.91 25.82h12.91v12.91h-12.91zm103.3-51.65h12.91v12.91h-12.91zm-90.39-12.91h12.91v-12.93h-12.91V275.9h-25.82v12.91h12.91v12.93h-12.91v12.91h25.82v12.91h12.91v-12.91h-12.91v-12.91zm51.65 0h12.91V275.9H598.6v25.84h12.91zm38.74-12.93v12.93h12.91v12.91h25.83v-12.91h-12.92v-12.93h12.92V275.9h-25.83v12.91h-12.91zm12.91 129.13v12.91h25.83v-12.91h-12.92v-12.91h12.92v-12.91h-25.83v-12.91h12.91V366.3h-12.91v12.89h-12.91v12.93h12.91v12.91h-12.91v12.91h12.91z"/><path class="cls-4" d="M650.25 340.47v-12.91h-12.91v51.63-12.9h-12.9v-25.81h12.9v-25.83h12.91v-12.91h-25.83v12.91h-25.81v-12.91h-25.84v12.91h12.92v12.91h-12.92v12.9h-12.91v25.82h12.91v12.9h12.92v12.93h-12.92v-12.92h-12.91v12.93H534V405h13v12.91h-13v12.91h25.82v-12.88h12.91V405h-12.87v-12.88h12.91V405h25.83v25.82h25.82V405h-25.81v-12.88h25.81V405h25.83v-12.88h-12.91v-12.93h12.91v-12.9h12.91v-25.81h12.91v-12.91h-12.91v12.9zm-51.64-12.91h25.81v12.9h-25.81zm-12.92 51.63v-38.71h12.91v25.81h-12.91v12.9zm12.92-12.89h25.81v12.89h-25.81zm77.46-25.84h12.91v25.83h-12.91zm-182.5 426.03h25.82v12.91h-25.82zm-12.92 12.91h12.91v25.83h-12.91zm12.92-103.31h25.82V689h-25.82zm-25.83 38.75h12.91v25.83h-12.91zm38.74-64.57h12.91v12.92h-12.91zm0 142.04h12.91v12.91h-12.91zm-38.74-38.74h12.91v12.91h-12.91zm0-64.56h12.91v12.91h-12.91z"/><path class="cls-4" d="M493.56 714.84v25.82h-12.91v12.91h25.83v-12.91h12.91v-25.82h-12.91v-12.92h-25.83v12.92h12.91zm-12.91-64.57h12.91v25.83h-12.91zm92.12-64.46h-12.91v-12.93h-12.91v12.93h-12.91v25.82h12.91v-12.91h12.91v12.91h12.91v-25.82zm-25.82-129.14h-12.91v25.84h12.91v12.91h12.91v-12.91h12.91v-25.84h-12.91v12.91h-12.91v-12.91zm103.3 129.14v25.82h12.91v-12.91h12.91v12.91h12.92v-25.82h-12.92v-12.93h-12.91v12.93h-12.91zm-51.65-64.57h25.83v25.82H598.6z"/><path class="cls-4" d="M585.69 469.58v12.93h12.91v12.91h-12.91v12.91h-12.92v12.91h-12.91v-12.91H547v12.91h-13v25.82h13V560h12.91v-12.94h12.91V560h12.92v12.91h12.86v12.93h-12.91v12.91h12.91v12.91h25.82v-12.94h12.92v-12.91h-12.92v-12.93h12.92V560h12.91v-12.94h12.91V560h12.91v-12.94H689v-25.82h-12.93v-12.91h-12.91v12.91h-12.91v-12.91h-12.91v-12.91h-12.92v-12.91h12.92v-12.93h-12.92v-12.91H598.6v12.91zm38.73 51.66h12.92v25.82h-12.92V560H598.6v-12.94h-12.91v-25.82h12.91v-12.91h25.82z"/><path class="cls-4" d="M650.25 482.51h12.91v12.91h12.91v-12.91h12.92v-25.84h-12.92v12.91h-12.91v-12.91h-12.91v25.84zm297.22-91.72h25.82v12.91h-25.82zm0 25.91h25.82v12.91h-25.82zm0-142.12h25.82v12.92h-25.82zm0 64.57h25.82v25.82h-25.82zm-12.91 25.81h12.91v25.83h-12.91zm-25.83 25.83h-12.91v-12.87h-12.91v25.78h12.91v12.93h-12.91v12.91h12.91v-12.91h12.88v12.91h25.86v-12.91h-12.91V403.7h12.91v-12.91h-25.83zm-12.91-116.21h-12.91v12.91h12.91v12.91h-12.91v25.8h12.91v12.91h12.91V326.2h-12.91v-12.89h38.74V300.4h-12.91v-12.91h12.91v-12.91H908.7v12.91h-12.88v-12.91zm0 90.37v-25.8h-12.91v25.82h12.88v12.89h12.91v-12.91h-12.88zm51.65-64.55h25.82v12.91h-25.82zm-12.91 12.93h12.91v25.83h-12.91zm-12.91 25.82h-12.92v25.82h25.83v-25.82h-12.91zM711.97 792.37h12.91v12.91h-12.91zm0-142.03h12.91v12.91h-12.91zm51.64 64.55h12.91v25.82h-12.91zm12.92-12.91h25.82v12.92h-25.82zm0 38.74h25.82v12.91h-25.82z"/><path class="cls-4" d="M776.37 650.22h-12.91v.12h-25.67v25.82h25.83V689h-25.83v-12.84H712v12.9h25.67v12.8h.15v.14H712v51.66h25.67v12.91H712v12.91h25.82v-12.79h25.83v12.76h-25.86v25.83h103.3v-25.83h-25.68v-12.91h25.68v12.91h25.82v-12.91h-25.82v-12.91h25.82V702h-25.82v-12.94h25.82v-12.9h-25.82V689h-25.83v-12.84h25.83v-25.82h-25.83v-.12h-12.91v.12h-26zm26 25.82v25.82h12.91v13H854v25.82h-38.74v12.92H802.5v38.73h-26v-38.7h-12.88v-12.92h-38.74v-25.82h38.74v-13h12.91v-38.64h25.82zM854 792.37h12.91v12.91H854z"/><path class="cls-4" d="M854 650.34h12.91v12.91H854zm-51.65 64.55h12.91v25.82h-12.91zm.03-413.15v-12.93h12.88V275.9h-12.91v12.91h-25.8v12.93h25.83zm-90.39 116.2h12.91v12.91h-12.91zm51.65 0h12.91v12.91h-12.91zm-51.65-77.47h12.91v25.82h-12.91zm64.56 12.91v-12.91h-12.91v25.82h12.91v-12.91zm-64.56-77.49h12.91v12.91h-12.91zm51.65 0h12.91v12.91h-12.91z"/><path class="cls-4" d="M724.91 301.74H712v25.82h12.92v12.91h12.91v25.82h-12.92v12.9H712V405h12.92v12.91h12.91v12.91h12.91v-12.88h12.91V405h12.91v-25.81h-12.92v-12.9h-12.91v-25.82h12.91v-12.91h12.91v-25.82h-12.91v-12.93h-12.91V275.9h-12.91v12.91h-12.91zm25.82 90.38V405h-12.91v-25.81h12.91zm0-90.38v25.82h-12.91v-25.82zM854 417.94h12.91v12.91H854zm0-77.47h12.92v25.82H854z"/><path class="cls-4" d="M802.35 301.74v25.82h-25.8v12.91h25.8v25.82h-25.8v12.9h25.83v-12.9h12.88v-25.82h-12.88v-12.91h12.88v12.91h12.92v25.82h-12.92v12.9h-12.91V405h-25.8v12.91h25.8v12.91h12.91v-12.88h-12.88V405h12.88v12.91h12.92v12.91h12.91v-12.88H854V405h12.91v-25.81H854v-12.9h-12.91v-25.82H854v-12.91h12.91v-25.82H854v-12.93h-12.91V275.9h-12.91v12.91h-12.92v12.93zm38.74 90.38V405h-12.91v-25.81h12.91zm-12.91-90.38h12.91v25.82h-12.91zM854 275.89h12.91v12.91H854zM711.97 586.87h12.91v25.82h-12.91zm116.21 12.92h12.91v12.91h-12.91zm0-142.03h12.91v12.91h-12.91zm-90.39 142.03h12.91v12.91h-12.91zm0-142.03h12.91v12.91h-12.91zm-25.82 0h12.91v25.83h-12.91z"/><path class="cls-4" d="M737.79 483.58v12.91h-12.91v12.91H712v51.66h12.91V574h12.91v12.91h12.88v12.91h12.92v12.88h12.91v-12.91h25.82v12.91h12.91v-12.91h12.92v-12.91h12.91V574H854v-12.94h12.91V509.4H854v-12.91h-12.91v-12.91h-12.91v-12.91h-12.92v-12.91h-12.91v12.91h-25.82v-12.91h-12.91v12.91H750.7v12.91zm21.7 12.91h4.13v12.91h12.78v12.91h25.83V509.4h-25.7v-12.91h25.82v12.91h12.91v-12.91h12.92v12.91h12.91v12.91h-25.83v25.84h25.83v12.91h-12.91V574h-12.92v-12.94h-12.91V574h-25.82v-12.94h25.7v-12.91H776.4v12.91h-12.78V574H750.7v-12.94h-12.91v-12.91h25.83v-25.84h-25.83V509.4h12.91v-12.91zM854 586.87h12.91v25.82H854zm0-129.11h12.91v25.83H854zm-386.36-91.53H454.8v12.91h12.84v12.91h12.91v25.82h12.91v12.91h25.83v-12.91h-12.91v-12.91h12.91v-12.91H493.5v-12.91h-12.95v-12.91h-12.91zm0-25.84h12.91v-12.91h12.91v-12.91h25.83v-12.91h-12.91v-12.91h12.91v-12.91h-25.83v12.91h-12.91v25.82h-12.91v12.91H454.8v12.91h12.84z"/><path class="cls-4" d="M493.5 366.23h12.91v12.91h12.91v-51.66h-12.91v12.91h-25.86v25.84h12.95zm53.45 426.08V779.4h-12.91v25.82h25.82v-12.91h-12.91zm12.91-129.12v-12.91h-25.82v25.82h12.91v-12.91h12.91zm103.3 129.12v12.91h25.83V779.4h-12.92v12.91h-12.91zm-25.82-29.44v-9.29h-12.92v-12.92H598.6v-25.82h-12.91v-12.92h-12.92V689h-12.91v12.91H547v12.92h-13v25.82h13v12.91h12.91v12.91h12.91v12.93h12.92v12.91h12.86v12.91h25.82v-12.91h12.92V779.4h12.91v-12.91h-12.91zm-77.48-35.12v-12.91h12.91v25.82h-12.91zm12.91 25.83h12.92v-12.92h12.91v12.92h-12.91v12.91h-12.92zm51.65 25.82H598.6v-12.91h25.82z"/><path class="cls-4" d="M598.6 663.19h-12.91v12.91h-12.92V689h12.92v12.91h12.91v12.92h25.82v-12.91h12.92v12.92h-12.92v25.82h12.92v12.92h12.91v12.91h12.91v-12.91h12.91v-12.92H689v-25.82h-12.93v-12.92h-12.91V689h-12.91v-12.9h-12.91v-12.91h-12.92v-12.91H598.6zm64.56 64.56v12.91h-12.91v-25.82h12.91zm-12.91-25.83h-12.91V689h12.91zm-25.83-25.82V689H598.6v-12.9zm51.65-12.91v12.91h12.92v-25.82h-25.83v12.91h12.91zM364.38 469.54h12.91v12.93h12.94v12.91h12.88v12.91h12.91v12.91h12.92v12.91h12.91V521.2h25.82v-12.91h12.91v-12.91h12.92v-12.91h12.91v-12.93h12.91v-12.91H493.5v12.91h-12.92v12.93h-12.91v12.91h-12.91v12.91h-25.82v-12.91h-12.88v-12.91h-12.95v-12.93H390.2v-12.91h-25.82v12.91zm103.29 77.48h-12.91v-12.91h-12.91v12.91h-25.83v12.91h-12.91v12.91H390.2v12.93h-12.91v12.91h-12.91v12.91h25.82v-12.91h12.91v-12.91h12.91v-12.93h12.92v-12.91h25.82v12.91h12.91v12.93h12.91v12.91h12.92v12.91h25.82v-12.91h-12.91v-12.91H493.5v-12.93h-12.92v-12.91h-12.91v-12.91z"/><path class="cls-4" d="M467.67 521.2h12.91v25.83h-12.91zm25.96 0h12.91v25.83h-12.91z"/><path class="cls-4" d="M480.58 547.02h12.91v12.91h-12.91zm25.9 25.83h12.91v12.91h-12.91zm-25.9-64.56h12.91v12.92h-12.91zm25.83-25.82h12.91v12.91h-12.91zm-38.74-25.84h12.91v12.91h-12.91zm0 142.05h12.91v12.91h-12.91zm650.61 143.25h-13.18l-50.35 50.2v13.15h13.19l50.34-50.21v-13.14zm-50.34-91.52h-13.19v13.15l50.35 50.2h13.18v-13.14l-50.34-50.21zm70.95 6.58h-.01l-6.55-6.54-6.56 6.54h-.06v50.23h.06l6.56 6.54 6.55-6.54h.01v-50.23zm0 141.75V748.5h-.01l-6.55-6.54-6.56 6.54h-.06v50.24h.06l6.56 6.54 6.55-6.54h.01zm-84.12-70.98l6.56 6.53v.01h50.38v-.01l6.55-6.53-6.55-6.54v-.06h-50.38v.06l-6.56 6.54zm98.32-6.54l-6.55 6.54 6.55 6.53.23-.22v.23h50.38v-.01l6.55-6.53-6.55-6.54v-.06h-50.38v.28l-.23-.22zm-6.55 33.64l-.22.21 50.75 50.21h13.18v-13.15l-50.76-50.2v-.22h-13.17v13.15h.22zm-.22-41.1h13.17l50.76-50.22v-13.13h-13.18l-50.75 50.19v13.16zm2.06-36.11l5.4 5.39 5.4-5.39v-21.87l-5.4-5.37-5.4 5.37v21.87zm-43.26-21.87v21.87l5.4 5.39 5.39-5.39v-21.87l-5.39-5.37-5.4 5.37zm10.79 122.24l-5.39-5.38-5.4 5.38v21.88l5.4 5.38 5.39-5.38v-21.88zm43.27 0l-5.4-5.38-5.4 5.38v21.88l5.4 5.38 5.4-5.38v-21.88zm23.75-33.86h27.33v10.76h-27.33zm-128.17 0h27.33v10.76h-27.33zm128.17-43.14h27.33v10.76h-27.33zm-128.17 0h27.33v10.76h-27.33z"/><path class="cls-4" transform="rotate(-44.99 1477.405 509.545)" d="M1472.72 504.95h9.19v9.19h-9.19z"/><path class="cls-4" transform="rotate(-45 1477.154 573.773)" d="M1472.72 569.17h9.19v9.19h-9.19z"/><path class="cls-4" transform="rotate(-44.99 1509.523 541.629)" d="M1504.85 537.03h9.19v9.19h-9.19z"/><path class="cls-4" transform="rotate(-44.99 1444.967 541.629)" d="M1440.52 537.03h9.19v9.19h-9.19z"/><path class="cls-4" d="M1485.84 605.51c8.05-9.17.62-16.59-8.54-8.55-9.17-8-16.59-.62-8.55 8.55-8 9.17-.62 16.6 8.55 8.54 9.16 8.06 16.59.63 8.54-8.54m.22-127.82c8-9.15.62-16.57-8.55-8.53-9.16-8-16.59-.62-8.54 8.53-8 9.17-.62 16.6 8.54 8.56 9.17 8 16.6.61 8.55-8.56m47.46 63.94c-8 9.17-.62 16.6 8.54 8.56 9.17 8 16.59.61 8.55-8.56 8-9.17.62-16.59-8.55-8.54-9.16-8.05-16.59-.63-8.54 8.54M1521.43 490c-34.82 23.34-15.89 42.27 7.46 7.47 23.35 34.8 42.28 15.87 7.47-7.47 34.81-23.35 15.88-42.28-7.47-7.46-23.35-34.82-42.28-15.89-7.46 7.46"/><path class="cls-4" d="M1503.8 566.34v-16l-8.69-8.69 8.69-8.7v-16.9H1487l-8.7 8.71-8.7-8.71h-16.9v16.86l8.7 8.7-8.7 8.69v15.78c-3.36-3.19-13.87.83-25.48 18.13-23.35-34.8-42.28-15.87-7.47 7.47-34.81 23.35-15.88 42.28 7.47 7.46 23.35 34.82 42.28 15.89 7.46-7.46 15.9-10.67 20.59-20.4 18.77-24.53h16.1l8.7-8.68 8.7 8.68h16c-2.57 3.75 1.77 13.91 18.45 25.1-34.82 23.36-15.89 42.29 7.46 7.47 23.35 34.82 42.28 15.89 7.47-7.47 34.81-23.35 15.88-42.28-7.47-7.46-11.19-16.69-21.36-21-25.09-18.45"/><path class="cls-4" d="M1426.65 482.55c-23.35-34.82-42.28-15.89-7.46 7.46-34.82 23.34-15.89 42.27 7.46 7.47 23.35 34.8 42.28 15.87 7.46-7.47 34.82-23.35 15.89-42.28-7.46-7.46m-5.37 59.08c8-9.17.61-16.59-8.55-8.54-9.16-8.05-16.59-.63-8.55 8.54-8 9.17-.61 16.6 8.55 8.56 9.16 8 16.59.61 8.55-8.56m78.18-211.87h14.89v14.89h-14.89zm-14.16-14.89v-14.34h-14.89v14.89h-14.63v14.9h14.89v-14.9h13.9v14.34h14.89v-14.89h-14.16zm14.16 44.25h14.89v14.89h-14.89zm-29.05 29.76v14.89h14.89v-14.89h14.16v-14.87h-14.89v14.87h-13.9v-14.87h-14.89v14.87h14.63zm-29.51-44.17h-14.66v14.89h14.66v14.41h14.88v-14.89h-14.65v-13.91h14.65v-14.89h-14.88v14.39zm73.69 0h14.89v14.89h-14.89zm-97.28-59.38c0 2-.08 3.77-.21 5.44-1.66.13-3.47.2-5.44.2 2 0 3.78.1 5.44.22.13 1.67.21 3.47.21 5.43 0-2 .08-3.76.21-5.43 1.67-.12 3.47-.22 5.44-.22-2 0-3.77-.07-5.44-.2a69.94 69.94 0 01-.21-5.44m121.19 5.48a70 70 0 01-5.44.2c2 0 3.77.1 5.44.22.14 1.67.22 3.47.22 5.43 0-2 .08-3.76.21-5.43 1.67-.12 3.46-.22 5.44-.22-2 0-3.77-.07-5.44-.2a69.94 69.94 0 01-.21-5.44c0 2-.08 3.77-.22 5.44m-120.94 120.84c1.67-.13 3.47-.21 5.44-.21-2 0-3.77-.07-5.44-.22a69.21 69.21 0 01-.21-5.42c0 2-.08 3.76-.21 5.42-1.66.15-3.47.22-5.44.22 2 0 3.78.08 5.44.21.13 1.67.21 3.47.21 5.45 0-2 .08-3.78.21-5.45m120.94-.43c-1.67.15-3.47.22-5.44.22 2 0 3.77.08 5.44.21.14 1.67.22 3.47.22 5.45 0-2 .08-3.78.21-5.45 1.67-.13 3.46-.21 5.44-.21-2 0-3.77-.07-5.44-.22a69.21 69.21 0 01-.21-5.42c0 2-.08 3.76-.22 5.42"/><path class="cls-4" d="M1499.46 388.88h14.89v40.32h-14.89zm14.89-14.89h40.37v14.89h-40.37zm-14.89-99.44h14.89v40.32h-14.89zm14.89 40.32h40.37v14.89h-40.37zm-73.45 74.01h14.89v40.32h-14.89zm-40.37-14.89h40.37v14.89h-40.37zm40.37-99.44h14.89v40.88h-14.89zm-40.37 40.88h40.35v14.89h-40.35zm-140.03-4.47h13.17v13.17h-13.17zm-37.06-36.7h12.92v12.92h-12.92zm37.06 105.07h13.17v13.18h-13.17zm-37.07 36.93h12.95v12.95h-12.95zm142.56-142h12.92v12.92h-12.92zm0 142h12.95v12.95h-12.95zm-37.29-105.3h13.17v13.17h-13.17zm0 68.37h13.17v13.18h-13.17zm-34.62-27.68c-36.56 0 7.11 43.66 7.11 7.12 0 36.54 43.66-7.12 7.11-7.12 36.55 0-7.11-43.65-7.11-7.11 0-36.54-43.67 7.11-7.11 7.11"/><path class="cls-4" d="M1252.8 299c21.94 0-4.27-26.21-4.27-4.26 0-21.95-26.22 4.26-4.27 4.26-22 0 4.27 26.2 4.27 4.26 0 21.94 26.21-4.26 4.27-4.26m-4.27 110.24c0 21.95 26.21-4.26 4.27-4.26 21.94 0-4.27-26.21-4.27-4.28 0-21.93-26.22 4.28-4.27 4.28-22 0 4.27 26.21 4.27 4.26m105.8-114.5c0-21.95-26.22 4.26-4.27 4.26-22 0 4.27 26.2 4.27 4.26 0 21.94 26.21-4.26 4.27-4.26 21.94 0-4.27-26.21-4.27-4.26M1350.06 405c-22 0 4.27 26.21 4.27 4.26 0 21.95 26.21-4.26 4.27-4.26 21.94 0-4.27-26.21-4.27-4.28 0-21.93-26.22 4.28-4.27 4.28m-87.07-120.17l28.61 28.59-.03.04 10.55 10.54.03-.02 10.55-10.56 28.57-28.57-10.55-10.54-28.57 28.56-28.61-28.6-10.55 10.56zm78.28 133.78l-28.57-28.58-10.55-10.54-.03-.04-10.55 10.56.03.02-28.61 28.62 10.55 10.55 28.61-28.61 28.57 28.58 10.55-10.56zm-1.53-77.11l-10.55 10.56.04.04 10.55 10.54 28.57 28.57 10.55-10.55-28.57-28.56 28.6-28.62-10.55-10.56-28.6 28.62-.04-.04zm-77.15 21.14l10.55-10.54.03-.04-10.55-10.56-.03.04-28.6-28.62-10.55 10.56 28.6 28.62-28.57 28.56 10.55 10.55 28.57-28.57zm34.89 176.49c-23.28-13.43-23.28 17.45 0 4-23.28 13.43 3.47 28.88 3.47 2 0 26.88 26.75 11.43 3.48-2 23.27 13.43 23.27-17.45 0-4 23.27-13.43-3.48-28.87-3.48-2 0-26.87-26.75-11.43-3.47 2m-74.03 66.46h13.3v13.29h-13.3zm.06-142.19h13.3v13.3h-13.3zm142.09 0h13.3v13.3h-13.3zm-13.29 13.3h13.3V490h-13.3z"/><path class="cls-4" d="M1365.6 489.99h13.3v13.3h-13.3zm-26.59-26.59h13.3v13.3h-13.3zm-102.21 13.3h13.3V490h-13.3zm13.3-13.3h13.3v13.3h-13.3z"/><path class="cls-4" d="M1223.51 489.99h13.3v13.3h-13.3zm13.29 102.3h13.3v13.3h-13.3zm-13.29-13.3h13.3v13.3h-13.3zm26.59 26.6h13.3v13.29h-13.3zm115.5 0h13.3v13.29h-13.3zm-13.29-13.3h13.3v13.3h-13.3zm-13.3 13.3h13.3v13.29h-13.3zm-45.88-128.9a71.14 71.14 0 01-56.33 56.42V520.5h-13.29v13.87h-.07v13.54h.07v13.87h13.29v-12.61a71.16 71.16 0 0156.33 56.42H1280v13.3h41.3v-13.3h-12.15a71.13 71.13 0 0156.44-56.44v12.63h13.29V520.5h-13.29v12.63a71.16 71.16 0 01-56.44-56.44h12.15V463.4H1280v13.29zm52.62 64.44a85.07 85.07 0 00-44.6 44.6 85 85 0 00-44.6-44.6 84.93 84.93 0 0044.6-44.6 84.9 84.9 0 0044.6 44.6zm19.85 37.86h13.3v13.3h-13.3zm-346.82 148.73l-18.01 18.01 9.34 9.34 27.33-27.34-.01-.01.01-.02-27.33-27.34-9.34 9.34 18.01 18.02zm335.85-59.36c-21.12 15.07-8.77 27.28 6.47 6.41 15.24 20.87 27.6 8.66 6.47-6.41 21.13-15.08 8.77-27.3-6.47-6.41-15.24-20.89-27.59-8.67-6.47 6.41m0 119.31c-21.12 15.07-8.77 27.29 6.47 6.4 15.24 20.89 27.6 8.67 6.47-6.4 21.13-15.08 8.77-27.3-6.47-6.41-15.24-20.89-27.59-8.67-6.47 6.41M1241.24 662c-15.25-20.89-27.6-8.67-6.48 6.41-21.12 15.07-8.77 27.28 6.48 6.41 15.24 20.87 27.59 8.66 6.47-6.41 21.12-15.08 8.77-27.3-6.47-6.41m6.47 125.67c21.12-15.08 8.77-27.3-6.47-6.41-15.25-20.89-27.6-8.67-6.48 6.41-21.12 15.07-8.77 27.29 6.48 6.4 15.24 20.89 27.59 8.67 6.47-6.4"/><path class="cls-4" d="M1327.68 690.45l12.92-12.76-7.89-7.8-12.91 12.77-10.49-10.38 13.69-13.55-7.88-7.8-13.71 13.56-13.55-13.39-7.88 7.79 13.54 13.39-11.21 11.1-12.12-12-7.88 7.79 12.12 12-10.88 10.83-12.13-12-7.88 7.8 12.12 12-11 10.88-13-12.88-7.89 7.8 13 12.88-12.9 12.75 7.89 7.8 12.9-12.76 10.49 10.38-12.91 12.76 7.89 7.8 12.9-12.77 10.9 10.79-12.93 12.71 7.88 7.8 12.95-12.74 11.71 11.59-13 12.91 7.88 7.8 13.06-12.91 13 12.92 7.89-7.8-13.06-12.92 11-10.87 12.18 12 7.88-7.8-12.18-12.05 10.9-10.78 12.18 12 7.89-7.8-12.16-11.98 11.21-11.09 12.67 12.53 7.88-7.79-12.67-12.53 12.83-12.7-7.88-7.79-12.83 12.69-11.74-11.63 12.91-12.77-7.88-7.8-12.91 12.76zm-7.37 67.64l-7.89 7.8-11 10.88-33.65-33.28-4.77-4.69-10.49-10.37 11-10.88v.05l7.89-7.79-.06-.06 10.9-10.78.06.06 7.88-7.8v-.05l11.21-11.1 48.87 48.35z"/><path class="cls-4" d="M1269.5 728.29l31.87 31.51 31.87-31.51-31.87-31.52zm48.4 0l-16.53 16.35-16.52-16.35 16.52-16.29zm-250.07-350.73l-13.03 12.79v12.9h12.94v-12.89l25.96.08-.04 25.82h-12.96v12.91h12.94l13.03-12.88v-38.73h-38.84z"/><path class="cls-4" d="M1119.62 377.49v-12.84h-12.95v12.91h12.95v25.82l12.95-12.9 12.95 12.9v-25.82l-12.95-12.91-12.95 12.84zm77.69-51.56l12.94-12.93v-12.91h-12.94v-12.87h-12.95v12.91h12.95V313h-25.9v-25.82h12.95v-12.91h-12.95l-12.95 12.91v38.75h38.85zm-38.84 64.54v25.82l12.94 12.88h12.95v-12.91h13v-12.88h12.94v-12.91l-12.94-12.91h-38.84l-.06 12.91zm38.84 0v12.88h-13v12.91h-12.95v-25.79zm-142.43-116.2h12.95v12.91h-12.95zm90.64 90.38h12.95v12.91h-12.95z"/><path class="cls-4" d="M1158.39 338.84l-12.87 12.91 12.94 12.9h25.9l-12.95-12.9 12.95-12.91h-25.9v-12.91h-12.94v12.91h12.87zm-64.66-51.66V313h-25.9v-12.87h12.95v-12.91h-12.95v12.87h-13.03V313l13.03 12.93h25.9v.05h12.94v12.86h-25.89l12.95 12.91-12.95 12.9h25.89l12.95-12.9-12.87-12.91h12.87v-12.86l12.95 12.86 12.95-12.91v-25.84L1132.57 313l-12.95-12.91v25.84h-12.95v-38.75l-12.94-12.91h-12.95v12.91h12.95zm103.58-12.91h12.95v12.91h-12.95zm0 141.99h12.95v12.91h-12.95zm-142.51-.01h12.95v12.92h-12.95zm64.82.04h25.9v12.91h-25.9z"/><path class="cls-4" d="M1119.62 274.27h25.9v12.91h-25.9zm-64.74 64.56h12.95v25.82h-12.95zm142.43 0h12.95v25.82h-12.95zm-129.56 64.41h12.95v13.01h-12.95zm64.96 132.46c0-17.94-20.11-6.35-4.56 2.63-15.55-9-15.55 14.25 0 5.26-15.55 9 4.56 20.6 4.56 2.65 0 18 20.11 6.34 4.56-2.65 15.55 9 15.55-14.24 0-5.26 15.55-9-4.56-20.57-4.56-2.63m-25.85-59.38v26.19h12.88v-13.26h25.89v13.26h12.88v-13.26h.05v-12.93h-12.93v-12.93h-25.84v12.93h-12.93zm51.65 129.25h.05v-12.93h-.05v-12.87h-12.88v12.87h-25.89v-12.87h-12.88v25.8h12.93v12.93h25.84v-12.93h12.88zm-51.62-51.69h12.88v12.88h-12.88zm38.75-38.72h12.88v12.88h-12.88zm-38.78-.02h12.88v12.88h-12.88zm-12.97-12.93h12.88v12.88h-12.88zm-39.14-14.94v14.13a37.9 37.9 0 0026.25-10.56v11.34h12.87v-12.89h-11.35a37.79 37.79 0 0010.22-25.89h-14.14a23.9 23.9 0 01-23.87 23.87m39.16 79.56h12.88v12.88h-12.88zm0 25.81v-12.87H1081v11.28a37.9 37.9 0 00-26.27-10.56v14.13a23.9 23.9 0 0123.87 23.88h14.14a37.84 37.84 0 00-10.18-25.86zm64.67-25.75h12.88v12.88h-12.88zm23.85 25.75a37.82 37.82 0 00-10.16 25.84h14.14a23.89 23.89 0 0123.86-23.88v-14.13a37.82 37.82 0 00-25.89 10.21v-10.91h-12.88v12.87zm-23.85-90.37h12.88v12.88h-12.88z"/><path class="cls-4" d="M1054.75 605.59h12.88v12.88h-12.88zm0-142.16h12.88v12.88h-12.88zm142.62-.02h12.88v12.88h-12.88zm0 142.18h12.88v12.88h-12.88zm-51.73-51.63h12.88v12.88h-12.88zm-64.62-.05v-25.89h12.87v-12.88h-25.8v12.88h-12.92v25.85h12.92v12.91h25.8v-12.87h-12.87zm90.46-38.77v12.88h12.92v25.93h-12.92v12.89h17.93v-.06h7.92v-12.91h12.92v-25.85h-12.92v-12.93h-12.93v.05h-12.92z"/><path class="cls-4" d="M1171.48 489.29v12.89h12.88v-11a37.79 37.79 0 0025.89 10.22v-14.13a23.89 23.89 0 01-23.86-23.87h-14.14a37.84 37.84 0 0010.22 25.89zm-159.62 112.32v3.61h-12.63v12.89h25.71v-12.93h12.89v-25.71h-12.89v12.84h-13.08v9.3zm0-138.2h-12.63v12.9h12.63v12.89h13.08v12.85h12.89v-25.71h-8.01v-.02h-4.58v-12.91h-13.38zm-25.52 116.01v12.89h25.52v-25.75h-12.89v12.86h-12.63z"/><path class="cls-4" d="M1011.84 489.23h-25.71v12.89h13.04v12.82h12.9v-25.71h-.23zM364.49 766.49h25.82v12.91h-25.82zm25.83 12.91h12.91v25.83h-12.91zm-25.83-103.31h25.82V689h-25.82zm38.74 38.75h12.91v25.83h-12.91zm-38.74-64.57h12.91v12.92h-12.91zm0 142.04h12.91v12.91h-12.91zm38.74-38.74h12.91v12.91h-12.91z"/><path class="cls-4" d="M416.14 740.66h12.91v12.91h-12.91zm0-38.73h12.91v12.91h-12.91zm-12.91-12.92h12.91v12.91h-12.91zm-12.91-38.74h12.91v25.83h-12.91zm38.73 0h25.82v12.92h-25.82zm0 142.04h25.82v12.91h-25.82zm25.83-51.65v-25.82h12.86v-12.92h-12.86V676.1h-25.83v25.82h25.78v12.92h-25.78v25.82h25.78v12.91h-25.78v25.83h25.83v-25.83h12.86v-12.91h-12.86zm-64.56 0v-25.82h12.91v-12.92h-25.82v12.92h-12.92v25.82h12.92v12.91h25.82v-12.91h-12.91zm608.8-336.96v12.93h-12.91v12.91h25.82v-12.91h12.91v12.91h12.92v-12.91h-12.92V403.7h12.92v-12.87h.01v-12.91h-12.91v12.87h-38.75v12.91h12.91zm-25.83-38.74h12.91v25.83h-12.91zm0-51.63h12.91v25.83h-12.91zm25.83 51.64h12.91v12.89h12.91v-12.82h12.92v-25.81h-12.92v25.72h-12.91v-25.8h-25.82v25.82h12.91zm12.91-51.66h12.93v12.89h-12.89v12.91h12.9V326.2h12.9v-12.91h-.01V300.4h-12.92v-12.91h12.92v-12.91h-12.92v12.91h-12.91v-12.91h-25.82v12.91h12.91v12.91h-12.91v12.91h25.82zm-583.06 78.74v12.91h-12.91v12.91h12.91v12.91h25.83v-12.91h12.91v-12.91H454.8v-25.82h-25.83v12.91z"/><path class="cls-4" d="M416.06 366.23h-12.91v12.91H390.2v12.91h-25.79v12.91h12.91v12.91h-12.91v12.91h25.83v-12.91h12.91v-25.82h12.91v-12.91h12.91v-12.91h-12.91zm38.74-51.66v-12.91h12.91v-12.91H454.8v-12.91h-25.83v12.91h-12.91v12.91h12.91v25.82h25.83v-12.91z"/><path class="cls-4" d="M364.41 288.75h12.91v12.91h-12.91v12.91h25.79v12.91h12.95v12.91h25.82v12.91h-.01v12.91h.01v.02h25.83v-25.84h-25.83v-12.91h-12.91v-12.91h-12.91v-25.82h-12.91v-12.91h-25.83v12.91z"/><path class="cls-4" d="M390.2 340.39h-12.91v-12.91h-12.91v51.66h12.91v-12.91h25.86v-25.84H390.2zm12.91 180.81h12.91v25.83h-12.91zm-25.82 0h12.91v25.83h-12.91z"/><path class="cls-4" d="M390.2 547.02h12.91v12.91H390.2zm-25.82 25.83h12.91v12.91h-12.91zm0-90.38h12.91v12.91h-12.91zm25.82 25.82h12.91v12.92H390.2zm12.91-51.66h12.91v12.91h-12.91zm0 142.05h12.91v12.91h-12.91zm25.83-116.21h25.82v12.91h-25.82zm0-25.84h25.82v12.91h-25.82zm0 116.22h25.82v12.91h-25.82zm0 25.83h25.82v12.91h-25.82zm971.67 65.03h12.92v12.91h12.94v12.91h12.88v12.91h12.91v12.92h12.91v12.91h12.92v-12.91h25.82v-12.92h12.91v-12.91h12.91v-12.91h12.92v-12.91h12.91V650.8h-25.83v12.91h-12.91v12.91h-12.91v12.91H1491v12.91h-25.83v-12.91h-12.87v-12.91h-12.95v-12.91h-12.92V650.8h-25.82v12.91zm103.3 77.47H1491v-12.91h-12.91v12.91h-25.83v12.91h-12.91V767h-12.92v12.92h-12.9v12.91h-12.92v12.91h25.82v-12.91h12.92v-12.91h12.91V767h12.91v-12.91H1491V767h12.91v12.92h12.91v12.91h12.91v12.91h25.83v-12.91h-12.91v-12.91h-12.92V767h-12.91v-12.91h-12.91v-12.91z"/><path class="cls-4" d="M1439.35 715.36h12.91v25.83h-12.91zm-25.83 0h12.91v25.83h-12.91zm90.39 0h12.91v25.83h-12.91zm25.96 0h12.91v25.83h-12.91z"/><path class="cls-4" d="M1516.82 741.18h12.91v12.91h-12.91zm25.89 25.82h12.91v12.92h-12.91zm-25.89-64.56h12.91v12.91h-12.91zm25.83-25.82h12.91v12.91h-12.91zm-116.22 64.56h12.91v12.91h-12.91zM1400.61 767h12.92v12.92h-12.92zm0-90.38h12.92v12.91h-12.92zm25.82 25.82h12.91v12.91h-12.91zm12.92-51.64h12.91v12.91h-12.91zm64.56 0h12.91v12.91h-12.91zm-64.56 142.03h12.91v12.91h-12.91zm64.56 0h12.91v12.91h-12.91zm-38.74-116.21H1491v12.91h-25.83zm0-25.82H1491v12.91h-25.83zm0 116.2H1491v12.92h-25.83zm0 25.83H1491v12.91h-25.83zM201.73 120.21c-.11-1.76-.18-5.11-.18-10v-1.19c0-5.15.07-8.71.18-10.62H184.3c.18 1.91.29 5.44.29 10.59v1.65c0 4.65-.11 7.85-.29 9.54h4.79c-.18-2.45-.25-6-.25-10.83v-8a39.15 39.15 0 014.21-.14 39.67 39.67 0 014.25.14v8c0 4.78-.11 8.42-.29 10.83zm20.27 0c-.14-1.91-.21-4.35-.21-7.34v-2.41c0-2.78.07-5.26.21-7.38h-3.6c-.46.9-1.76 2.91-3.92 6s-3.46 5.08-3.92 6h-.22a47.33 47.33 0 00.25-5.51v-2.12a33.66 33.66 0 01.18-4.39h-4.35c.18 2 .25 4.5.25 7.34v1.6c0 3.64-.07 6.34-.25 8.17H210c.58-1 1.91-3.06 4-6.12s3.39-5.07 3.89-6h.11c-.1 1.44-.18 3.42-.18 6v1.69a28.72 28.72 0 01-.28 4.43zm15.11-17.13c-.72 1.18-1.76 2.7-3.09 4.46s-2.2 2.66-2.59 2.66h-.65v-1.65a41.62 41.62 0 01.25-5.47h-4.43c.18 2.19.25 4.78.25 7.84v1.26c0 3.21-.07 5.91-.25 8h4.4a68.54 68.54 0 01-.25-6.87v-1.48h.75c.4 0 1 .83 1.73 2.23.47.87 1.37 2.38 2.2 3.67.29.44.83 1.16 1 1.44l.36.51a5 5 0 00.86.9 11 11 0 004.14-.58 21 21 0 01-1.65-2c-.69-.94-1.26-1.8-1.77-2.56l-1.83-2.88-1.26-2c.43-.5 2.55-3 6.33-7.48zm15.27-.54a8.41 8.41 0 00-6.19 2.55 8.84 8.84 0 00-2.52 6.55 9.07 9.07 0 002.3 6.52 7.93 7.93 0 006 2.45 10.5 10.5 0 005.87-1.84 2.81 2.81 0 00-.58-1.91 6.8 6.8 0 01-3.52 1c-3.57 0-5.84-2.88-5.84-7.24a6.37 6.37 0 011.59-4.54 3.53 3.53 0 012.41-.75 6.33 6.33 0 014.28 1.51 5.5 5.5 0 001.52-2.74c-.9-1-2.7-1.54-5.33-1.54m11.78 7.64a8.14 8.14 0 01.43-2.48 6.4 6.4 0 011-2 4.28 4.28 0 012.59-.76 3.3 3.3 0 013.46 3.39 2.52 2.52 0 01-.29 1.26 17.79 17.79 0 01-3.28.39c-1.72.11-3 .18-3.92.18m4.61-7.66a8 8 0 00-6.34 2.66 9.61 9.61 0 00-2.27 6.48c0 5.47 3.1 8.86 8.32 8.86a12.09 12.09 0 004-.65 7.65 7.65 0 002.7-1.51 3.36 3.36 0 00-.61-1.91 8.41 8.41 0 01-4.75 1.29c-3.17 0-5.4-1.76-5.58-5.5l2.66-.18a57.12 57.12 0 008.46-1.16 6.84 6.84 0 00.43-2.26 5.78 5.78 0 00-1.83-4.32 7 7 0 00-5.18-1.78zm25.35 17.69q-.21-2.47-.21-8.21v-1.33c0-3.49.07-6 .21-7.59h-12.63a15.22 15.22 0 01.32 3.56v1.19c0 6.73-1.08 9.5-3.64 9.11a5.73 5.73 0 00.08 3.6c2.77.43 4.71-.58 5.72-2.88s1.44-5.3 1.44-9.51v-2.48c.44 0 1.19-.07 2.27-.07s1.87 0 2.34.07v7.2a64.62 64.62 0 01-.29 7.34zm19.69 0c-.14-1.91-.21-4.35-.21-7.34v-2.41c0-2.78.07-5.26.21-7.38h-3.6c-.46.9-1.76 2.91-3.92 6s-3.46 5.08-3.92 6h-.22a47.33 47.33 0 00.25-5.51v-2.12a33.66 33.66 0 01.18-4.39h-4.35c.18 2 .25 4.5.25 7.34v1.6c0 3.64-.07 6.34-.25 8.17h3.63c.58-1 1.91-3.06 4-6.12s3.39-5.07 3.89-6h.14c-.1 1.44-.18 3.42-.18 6v1.69a28.72 28.72 0 01-.28 4.43zm4.9-13.86a7.81 7.81 0 014.21-1.22c2.16 0 3.28 1 3.28 2.7a2.74 2.74 0 01-3 2.59 11.2 11.2 0 01-2.59-.29 2.79 2.79 0 000 2.56 11 11 0 012.55-.29c2.2 0 3.75 1.08 3.75 2.81a3 3 0 01-1.16 2.52 5.22 5.22 0 01-2.44.47 7.67 7.67 0 01-4.54-1.41 4 4 0 00-1.19 2.38 5.9 5.9 0 002.31 1.08 12 12 0 003.31.5 10.56 10.56 0 005.72-1.4 4.68 4.68 0 002.23-4.18c0-2.16-1.54-3.63-3.88-3.92v-.18a4.34 4.34 0 003.09-4.14c0-2.56-1.94-4.39-5.65-4.39a14.54 14.54 0 00-6.62 1.33 5.14 5.14 0 00.68 2.48m23.52-1.29c3.06 0 4.5 3 4.5 7.16a7.35 7.35 0 01-1.48 5 4.69 4.69 0 01-2.29.78c-3 0-4.82-2.63-4.82-7.34a7 7 0 011.3-4.68 3.91 3.91 0 012.84-.9m.58-2.6a8.54 8.54 0 00-6.34 2.56 9.16 9.16 0 00-2.48 6.73c0 5.37 3.24 8.86 8.46 8.86a7.87 7.87 0 006-2.49 9.39 9.39 0 002.34-6.62c-.04-5.6-2.99-9.06-8.03-9.06zm15.79 9.96a14.73 14.73 0 012.59-.15c2 0 3.6.79 3.6 2.77a3.14 3.14 0 01-1.19 2.78 7 7 0 01-2.81.39 6.1 6.1 0 01-2.19-.29zm0-7.17a8 8 0 012.19-.29c2.27 0 3.42.87 3.42 2.6a2.66 2.66 0 01-2.16 2.66 12.17 12.17 0 01-3.45 0zm2.37-2.63a62.08 62.08 0 00-6.55.44c.18 2 .25 4.42.25 7.3v1.37c0 3.42-.07 6.23-.25 8.46a38.27 38.27 0 006 .4c5.07 0 8.46-1.87 8.46-5.29a4 4 0 00-3.97-4.22v-.18a4.16 4.16 0 003.24-4c.02-2.84-2.39-4.28-7.18-4.28zm14.83 12.46a3.4 3.4 0 01.76-2.12 6.8 6.8 0 013.71-.69 6.66 6.66 0 012 .25v3.28a4.43 4.43 0 01-3.75 2.16 2.62 2.62 0 01-2.7-2.88m10.52-5.87c0-4.75-1.91-6.66-6-6.66a17.27 17.27 0 00-7.67 2 3 3 0 00.76 2.16 11.57 11.57 0 015.25-1.48c2.78 0 3.57 1.4 3.53 4.82-7.31.26-10.51 1.73-10.51 5.8a4.6 4.6 0 004.9 4.75 7 7 0 005.72-2.84h.14a21.61 21.61 0 00.26 2.81l3.88-.33a53.67 53.67 0 01-.28-7.38zm19.78 10.98q-.22-3.61-.22-8v-1.15c0-3.67.07-6.34.22-8h-4.4a42 42 0 01.29 5.25v1.51a41.49 41.49 0 01-7.05 0v-1.33a43.16 43.16 0 01.25-5.43h-4.43c.18 1.65.25 4.32.25 8v1.05c0 3.31-.07 6-.25 8.06h4.43a59.17 59.17 0 01-.25-6.37v-1.4a41.49 41.49 0 017.05 0v1.4c0 2.45-.11 4.57-.29 6.37zm19.94 0c-.14-2.41-.22-5.07-.22-8v-1.15c0-3.67.08-6.34.22-8h-4.39a42 42 0 01.29 5.25v1.51a41.61 41.61 0 01-7.06 0v-1.33a43.16 43.16 0 01.25-5.43h-4.43c.18 1.65.26 4.32.26 8v1.05c0 3.31-.08 6-.26 8.06h4.43a59.17 59.17 0 01-.25-6.37v-1.4a41.61 41.61 0 017.06 0v1.4c0 2.45-.11 4.57-.29 6.37zm20.27-8.13c0 2.8-.11 5.5-.29 8.13h4.28c-.18-1.4-.25-4.25-.25-8.46v-1.55a60.28 60.28 0 01.25-7.12h-4.21c.15 2.59.22 5 .22 7.27zm-6.12 2.41a3.83 3.83 0 01-1.15 3 5.1 5.1 0 01-2.16.5 6.44 6.44 0 01-2.2-.29 31.87 31.87 0 010-6.48c3.46-.87 5.51.5 5.51 3.27zm-9.54-11.41c.18 1.69.25 4.24.25 7.59v1.41a79.78 79.78 0 01-.25 8 33.68 33.68 0 005.54.39c5.29 0 7.74-2.41 7.74-6a5.16 5.16 0 00-2.55-4.86c-1.7-1-3.86-1.16-6.56-.58v-1.8a21.8 21.8 0 01.26-4.1zm27.29 7.12a8.14 8.14 0 01.43-2.48 6.19 6.19 0 011-2 4.25 4.25 0 012.59-.76 3.29 3.29 0 013.45 3.39 2.53 2.53 0 01-.28 1.26 17.79 17.79 0 01-3.24.39c-1.73.11-3 .18-3.92.18m4.6-7.66a8 8 0 00-6.33 2.66 9.61 9.61 0 00-2.27 6.48c0 5.47 3.1 8.86 8.32 8.86a12.09 12.09 0 004-.65 7.65 7.65 0 002.7-1.51 3.3 3.3 0 00-.62-1.91 8.39 8.39 0 01-4.75 1.29c-3.17 0-5.4-1.76-5.58-5.5l2.67-.18a57.31 57.31 0 008.46-1.16 7.11 7.11 0 00.43-2.26 5.75 5.75 0 00-1.84-4.32 7 7 0 00-5.22-1.78zm-271.25 45.27c3.06 0 4.5 3 4.5 7.16a7.35 7.35 0 01-1.48 5 4.69 4.69 0 01-2.34.72c-3 0-4.82-2.63-4.82-7.34a7 7 0 011.3-4.68 4 4 0 012.84-.9m.58-2.59a8.53 8.53 0 00-6.34 2.55 9.18 9.18 0 00-2.48 6.73c0 5.37 3.24 8.86 8.46 8.86a7.9 7.9 0 006-2.48 9.43 9.43 0 002.34-6.63c.01-5.54-2.94-8.99-7.99-8.99zm15.84 5.11a4 4 0 012.55-2 3.78 3.78 0 011.26-.11c2.34.18 3.71 2.27 3.71 5.91 0 2.77-.61 4.79-1.87 6a5.27 5.27 0 01-3.31.9 5.06 5.06 0 01-2.34-.46zM203.6 146c.21 2 .32 5.61.32 10.73v1.76c0 6-.11 9.79-.32 11.45h4.5a49.72 49.72 0 01-.25-5.87v-1a10.54 10.54 0 002.26.25 9.62 9.62 0 006.74-2.56 9.32 9.32 0 002.8-7.2c0-4.75-2.19-7.52-5.65-8a5.87 5.87 0 00-3.09.83 4.1 4.1 0 00-3.24 1.8l.07-.51v-2.23zm35.03 16.94q-.23-3.62-.22-8v-1.14c0-3.67.07-6.34.22-8h-4.4a42.08 42.08 0 01.29 5.25v1.52a44.45 44.45 0 01-7.05 0v-1.34a43.16 43.16 0 01.25-5.43h-4.43c.18 1.65.25 4.32.25 8v1c0 3.31-.07 6-.25 8.06h4.43a59.05 59.05 0 01-.25-6.37v-1.4a41.49 41.49 0 017.05 0v1.4c0 2.45-.11 4.57-.29 6.37zm7.74-5.11a3.43 3.43 0 01.75-2.12 6.8 6.8 0 013.71-.69 6.6 6.6 0 012 .26v3.27a4.42 4.42 0 01-3.74 2.16 2.62 2.62 0 01-2.7-2.88m10.49-5.83c0-4.75-1.91-6.66-6-6.66a17.27 17.27 0 00-7.67 1.95 3.06 3.06 0 00.76 2.16 11.74 11.74 0 015.26-1.48c2.77 0 3.56 1.41 3.52 4.83-7.3.25-10.51 1.72-10.51 5.79a4.59 4.59 0 004.9 4.75 7 7 0 005.72-2.84h.14a20.42 20.42 0 00.25 2.81l3.89-.33a52.8 52.8 0 01-.29-7.38zm7.34 10.94c0-.9-.07-5.14-.07-12.74h.25c.25.72.76 1.87 1.44 3.46l1.23 2.73 1.51 3.39h2.3l1.26-2.7c1.3-2.88 2.27-5.15 2.88-6.81h.29v5.87c0 3.02 0 5.26-.14 6.8h4.17a124.33 124.33 0 01-.83-13.21l-.07-3.92h-3.85c-.32 1-1.69 4.07-4.1 9.25h-.15c-1.11-2.27-2.55-5.33-4.32-9.25H262l-.28 6.19c-.33 5.4-.62 9-.87 10.94zm22.36-10a8.15 8.15 0 01.43-2.49 6.19 6.19 0 011-2 4.27 4.27 0 012.59-.75 3.29 3.29 0 013.46 3.38 2.5 2.5 0 01-.29 1.26 18.4 18.4 0 01-3.28.4c-1.73.1-3 .18-3.92.18m4.61-7.67a8 8 0 00-6.34 2.66 9.65 9.65 0 00-2.27 6.48c0 5.47 3.1 8.86 8.32 8.86a12.09 12.09 0 004-.65 7.65 7.65 0 002.7-1.51 3.38 3.38 0 00-.61-1.91 8.43 8.43 0 01-4.76 1.3c-3.16 0-5.4-1.77-5.58-5.51l2.67-.18a57.21 57.21 0 008.46-1.15 6.94 6.94 0 00.43-2.27 5.78 5.78 0 00-1.84-4.32 7 7 0 00-5.17-1.78zm25.89 17.69c-.14-2.41-.22-5.07-.22-8v-1.14c0-3.67.08-6.34.22-8h-4.39a42.08 42.08 0 01.29 5.25v1.52a44.57 44.57 0 01-7.06 0v-1.34a43.16 43.16 0 01.25-5.43h-4.43c.18 1.65.26 4.32.26 8v1c0 3.31-.08 6-.26 8.06h4.43a59.05 59.05 0 01-.25-6.37v-1.4a41.61 41.61 0 017.06 0v1.4c0 2.45-.11 4.57-.29 6.37zm2.74-14.07a25 25 0 014.17-.29h1.3v3.71a91.67 91.67 0 01-.4 10.65h4.72a94.34 94.34 0 01-.4-10.54v-3.82h1.33a21.36 21.36 0 014.14.29v-3.06h-14.86zm20.7 8.96a3.43 3.43 0 01.75-2.12A6.8 6.8 0 01345 155a6.6 6.6 0 012 .26v3.27a4.42 4.42 0 01-3.74 2.16 2.62 2.62 0 01-2.7-2.88M351 152c0-4.75-1.91-6.66-6-6.66a17.27 17.27 0 00-7.67 1.95 3.06 3.06 0 00.76 2.16 11.74 11.74 0 015.26-1.48c2.77 0 3.56 1.41 3.52 4.83-7.3.25-10.51 1.72-10.51 5.79a4.59 4.59 0 004.9 4.75 7 7 0 005.72-2.84h.15a20.42 20.42 0 00.25 2.81l3.89-.33a52.8 52.8 0 01-.29-7.38zm19.28 10.94c-.15-1.65-.22-4.39-.22-8.2v-1.34c0-3.49.07-6 .22-7.59h-12.64a14.66 14.66 0 01.33 3.56v1.19c0 6.73-1.08 9.5-3.64 9.11a5.8 5.8 0 00.07 3.6c2.77.43 4.72-.58 5.73-2.88s1.44-5.29 1.44-9.51v-2.48c.43 0 1.19-.07 2.27-.07s1.87 0 2.34.07v7.2a64.5 64.5 0 01-.29 7.34zm14.18-5.72a3.35 3.35 0 01-1.29 2.95 5.13 5.13 0 01-2.52.51 5.84 5.84 0 01-2.09-.26 31.87 31.87 0 010-6.48c3.78-.86 5.9.44 5.9 3.28m-10.08-11.41a59.32 59.32 0 01.25 7.09v1.33c0 4.11-.07 7-.21 8.57a35 35 0 005.72.4c5.58 0 8.25-2.31 8.25-6a5.12 5.12 0 00-2.7-4.93c-1.8-1-4.18-1.16-7.13-.51V150a22.48 22.48 0 01.25-4.17zm32.55 17.13q-.23-3.62-.22-8v-1.14c0-3.67.07-6.34.22-8h-4.4a42.08 42.08 0 01.29 5.25v1.52a44.45 44.45 0 01-7.05 0v-1.34a43.16 43.16 0 01.25-5.43h-4.43c.18 1.65.25 4.32.25 8v1c0 3.31-.07 6-.25 8.06H396a59.05 59.05 0 01-.25-6.37v-1.4a41.49 41.49 0 017.05 0v1.4c0 2.45-.11 4.57-.29 6.37zm20.26-8.13c0 2.81-.1 5.51-.28 8.13h4.28c-.18-1.4-.25-4.24-.25-8.46v-1.54a60.49 60.49 0 01.25-7.13H427c.14 2.59.21 5 .21 7.27zm-6.12 2.41a3.8 3.8 0 01-1.15 3 5 5 0 01-2.16.5 6.34 6.34 0 01-2.19-.29 31.87 31.87 0 010-6.48c3.43-.87 5.5.5 5.5 3.27zm-9.54-11.41c.18 1.69.26 4.25.26 7.59v1.41a78.87 78.87 0 01-.26 8 33.76 33.76 0 005.55.4c5.29 0 7.74-2.42 7.74-6a5.17 5.17 0 00-2.56-4.86c-1.69-1-3.85-1.15-6.55-.58v-1.8a22.1 22.1 0 01.25-4.1zm27.29 7.13a8.46 8.46 0 01.43-2.49 6.4 6.4 0 011-2 4.29 4.29 0 012.59-.75 3.29 3.29 0 013.46 3.38 2.5 2.5 0 01-.29 1.26 18.39 18.39 0 01-3.27.4c-1.73.1-3 .18-3.93.18m4.61-7.67a8 8 0 00-6.34 2.66 9.64 9.64 0 00-2.26 6.48c0 5.47 3.09 8.86 8.31 8.86a12 12 0 004-.65 7.65 7.65 0 002.7-1.51 3.31 3.31 0 00-.61-1.91 8.41 8.41 0 01-4.75 1.3c-3.17 0-5.4-1.77-5.58-5.51l2.66-.18a57 57 0 008.46-1.15 6.94 6.94 0 00.43-2.27 5.81 5.81 0 00-1.83-4.32 7 7 0 00-5.18-1.78zM468.59 161c-2.55 0-4.35-2.7-4.35-6.84 0-2.77.68-4.71 2.09-5.9a4.5 4.5 0 013.42-.36c.18 5 .21 9.32 0 13a3 3 0 01-1.19.14m6.44-13.25c2.2 0 3.85 2.45 3.85 6.48 0 2.88-.64 4.93-1.94 6.12a6.57 6.57 0 01-3.64.57c-.1-4.42-.1-8.74 0-13a6.43 6.43 0 011.73-.17zm-1.26 22.14a40.56 40.56 0 01-.25-5.83v-.83c6.08.18 9.47-3.46 9.47-9.54 0-4.61-2.2-7.63-5.69-8.17-.76 0-1.3-.08-1.62-.08a9.62 9.62 0 00-2.16.4v-1.48c0-.54 0-1.33.07-2.37s0-1.95 0-2.74 0-1.33.07-1.62a9.1 9.1 0 00-2.23-.14 10.55 10.55 0 00-2.05.21c.1 1 .18 3.14.18 6.41v1.37a8.86 8.86 0 00-6.81 2.09 8.64 8.64 0 00-2.63 6.77 10 10 0 001.8 6.22 6.9 6.9 0 004.61 2.67 13.07 13.07 0 001.59 0 5.72 5.72 0 001.47-.25v.76c0 2.77-.07 4.82-.21 6.12zm17.07-19.66a4 4 0 012.55-2 3.78 3.78 0 011.26-.11c2.34.18 3.71 2.27 3.71 5.91 0 2.77-.61 4.79-1.87 6a5.27 5.27 0 01-3.31.9 5.06 5.06 0 01-2.34-.46zm-4.25-4.27c.21 2 .32 5.61.32 10.73v1.76c0 6-.11 9.79-.32 11.45h4.5a49.72 49.72 0 01-.25-5.87v-1a10.54 10.54 0 002.26.25 9.62 9.62 0 006.74-2.56 9.32 9.32 0 002.8-7.2c0-4.75-2.19-7.52-5.65-8a5.87 5.87 0 00-3.09.83 4.1 4.1 0 00-3.24 1.8l.07-.51v-2.23zm22.82 11.83a3.38 3.38 0 01.76-2.12 6.8 6.8 0 013.71-.69 6.64 6.64 0 012 .26v3.27a4.43 4.43 0 01-3.75 2.16 2.62 2.62 0 01-2.7-2.88m10.49-5.83c0-4.75-1.9-6.66-6-6.66a17.24 17.24 0 00-7.67 1.95 3 3 0 00.76 2.16 11.66 11.66 0 015.25-1.48c2.77 0 3.57 1.41 3.53 4.83-7.31.25-10.51 1.72-10.51 5.79a4.58 4.58 0 004.89 4.75 7 7 0 005.73-2.84h.13a22.22 22.22 0 00.25 2.81l3.89-.33a52.8 52.8 0 01-.29-7.38zm9.04 10.94a91.51 91.51 0 01-.4-10.22v-4.14h2a40.58 40.58 0 014.94.22v-3h-11.11c.18 1.91.25 4.1.25 6.66v1.62c0 3.56-.07 6.51-.25 8.82zm12.07 0q-.06-1.35-.07-12.74h.25c.25.72.76 1.87 1.44 3.46l1.22 2.73 1.52 3.39h2.3l1.26-2.7c1.3-2.88 2.27-5.15 2.88-6.81h.29v5.87c0 3.02 0 5.26-.15 6.8h4.18a124.33 124.33 0 01-.83-13.21l-.07-3.92h-3.85c-.33 1-1.69 4.07-4.11 9.25h-.14c-1.12-2.27-2.56-5.33-4.32-9.25h-4.07l-.29 6.19c-.32 5.4-.61 9-.86 10.94zm22.35-10a8.15 8.15 0 01.43-2.49 6.19 6.19 0 011-2 4.25 4.25 0 012.59-.75 3.28 3.28 0 013.45 3.38 2.5 2.5 0 01-.28 1.26 18.4 18.4 0 01-3.28.4c-1.73.1-3 .18-3.92.18m4.6-7.67a8 8 0 00-6.33 2.66 9.65 9.65 0 00-2.27 6.48c0 5.47 3.1 8.86 8.32 8.86a12.09 12.09 0 004-.65 7.65 7.65 0 002.7-1.51 3.32 3.32 0 00-.62-1.91 8.39 8.39 0 01-4.75 1.3c-3.17 0-5.4-1.77-5.58-5.51l2.67-.18a57.4 57.4 0 008.46-1.15 7.21 7.21 0 00.43-2.27 5.78 5.78 0 00-1.84-4.32 7 7 0 00-5.13-1.78zm25.9 17.69q-.23-3.62-.22-8v-1.14c0-3.67.07-6.34.22-8h-4.39a42.32 42.32 0 01.28 5.25v1.52a44.45 44.45 0 01-7.05 0v-1.34a43.16 43.16 0 01.25-5.43h-4.43c.18 1.65.25 4.32.25 8v1c0 3.31-.07 6-.25 8.06h4.43a59.05 59.05 0 01-.25-6.37v-1.4a41.49 41.49 0 017.05 0v1.4c0 2.45-.1 4.57-.28 6.37zm2.73-14.07a25.24 25.24 0 014.18-.29h1.3v3.71a91.67 91.67 0 01-.4 10.65h4.72a91.88 91.88 0 01-.4-10.54v-3.82h1.33a21.43 21.43 0 014.14.29v-3.06h-14.87zm33.23 5.94c0 2.81-.11 5.51-.29 8.13h4.29c-.18-1.4-.25-4.24-.25-8.46v-1.54a60.49 60.49 0 01.25-7.13h-4.21c.14 2.59.21 5 .21 7.27zm-6.12 2.41a3.8 3.8 0 01-1.15 3 5 5 0 01-2.16.5 6.44 6.44 0 01-2.2-.29 33.38 33.38 0 010-6.48c3.46-.87 5.51.5 5.51 3.27zm-9.54-11.41c.18 1.69.25 4.25.25 7.59v1.41a79.78 79.78 0 01-.25 8 33.67 33.67 0 005.55.4c5.29 0 7.74-2.42 7.74-6a5.17 5.17 0 00-2.56-4.86c-1.69-1-3.85-1.15-6.55-.58v-1.8a22.1 22.1 0 01.25-4.1z"/><path d="M188.91 957.43c2.67 0 4.26 2.35 4.26 6.67a6.83 6.83 0 01-1.61 4.85 3.45 3.45 0 01-2.31.77 3.64 3.64 0 01-3.06-1.73 8.61 8.61 0 01-1.2-4.92 7 7 0 011.9-5.09 3.63 3.63 0 012-.55m.36-1.51a6.16 6.16 0 00-4.64 2 8.12 8.12 0 00-1.93 5.81 7.91 7.91 0 001.78 5.47 5.72 5.72 0 004.45 2 6 6 0 004.67-2 9.9 9.9 0 00.15-11.31 5.68 5.68 0 00-4.46-1.97zm7.6 5.38a18.76 18.76 0 012.79-.15h1v2.69a70.8 70.8 0 01-.21 7.1h2.43c-.12-1.17-.19-3.52-.19-7v-2.76h1a16.23 16.23 0 012.76.15v-1.66h-9.5zm16.41-1.97a5.28 5.28 0 00-3.9 1.65 6 6 0 00-1.59 4.3 6.27 6.27 0 001.45 4.32 4.94 4.94 0 003.85 1.61 6.36 6.36 0 003.63-1.08 1.43 1.43 0 00-.29-1 5.29 5.29 0 01-2.4.62c-2.51 0-4.12-2-4.12-5a4.49 4.49 0 011.2-3.31 2.78 2.78 0 011.88-.57 4.18 4.18 0 012.79.93 2.58 2.58 0 00.85-1.46 4.79 4.79 0 00-3.35-1m15.81 6.18c0 2.09 0 3.89-.17 5.42h2.24q-.15-1.5-.15-5.64v-1c0-2.23 0-3.77.15-4.63H229c.07 1.44.12 3 .12 4.73zm-3.71 1.66a2.61 2.61 0 01-.86 2.13 3.48 3.48 0 01-1.59.41 4.09 4.09 0 01-1.64-.22 30.05 30.05 0 010-4.65c2.48-.6 4.09.31 4.09 2.33zm-6.18-7.54a44 44 0 01.17 4.8v.94c0 2.61 0 4.44-.17 5.44a18 18 0 003.27.27c3.25 0 4.84-1.63 4.84-3.91a3.33 3.33 0 00-1.66-3.17 5.82 5.82 0 00-4.28-.39v-1.29a16 16 0 01.14-2.69zm24.42 11.3c-.07-1.1-.12-2.92-.12-5.47v-.89c0-2.32.05-4 .12-4.94H236a12.46 12.46 0 01.19 2.38v.64c0 4.83-.81 6.84-2.52 6.58a3 3 0 000 1.92c3.08.46 4.28-2.45 4.28-8.33v-1.75c.29 0 .87-.05 1.76-.05s1.49 0 1.81.05v5a42.55 42.55 0 01-.2 4.89zm4.57-3.26a2.21 2.21 0 01.58-1.51 5.13 5.13 0 012.91-.58 7.75 7.75 0 011.37.19v2.36a3.42 3.42 0 01-2.86 1.58 1.93 1.93 0 01-2-2m6.91-4c0-3.15-1.18-4.35-3.66-4.35a10.88 10.88 0 00-4.71 1.25 1.52 1.52 0 00.43 1.2 7.28 7.28 0 013.44-1c1.93 0 2.45 1 2.43 3.58-4.91.07-6.93 1.08-6.93 3.74a3 3 0 003.15 3 4.75 4.75 0 003.83-1.9h.07a14.76 14.76 0 00.17 1.88l1.95-.2a35.68 35.68 0 01-.17-4.82zM272.4 965c0-3.58-1.87-5.74-4.74-5.74a4.73 4.73 0 00-3.53 1.44 5.71 5.71 0 00-1.57 3.67 8.16 8.16 0 01-1 0 6.29 6.29 0 01-.94 0v-1.05a34 34 0 01.14-3.65h-2.31a49.05 49.05 0 01.17 5.14v.57c0 1.78 0 3.65-.17 5.59h2.31a39 39 0 01-.14-4.12v-1.18a3.51 3.51 0 011-.07 3.79 3.79 0 011 .07 6.52 6.52 0 001.39 4 4.72 4.72 0 007.1-.14 7 7 0 001.29-4.53m-5.34-4.39c2.19 0 3.23 1.92 3.23 4.8 0 2-.39 3.38-1.13 4a2.75 2.75 0 01-1.57.45c-1.95 0-3.17-1.82-3.17-4.87a5.79 5.79 0 011-3.79 2.34 2.34 0 011.64-.62zm6.76.69a18.92 18.92 0 012.8-.15h1v2.69a66.63 66.63 0 01-.22 7.1h2.43c-.12-1.17-.19-3.52-.19-7v-2.76h1a16.38 16.38 0 012.77.15v-1.66h-9.51zm25.82 9.64c-.09-1.6-.14-3.36-.14-5.23v-.77c0-2.42.05-4.2.14-5.3h-2.28a27.51 27.51 0 01.16 3.6v1a38.91 38.91 0 01-5.29 0v-.87a31.94 31.94 0 01.15-3.74h-2.31c.12 1.1.16 2.88.16 5.33v.69c0 2.14 0 3.92-.16 5.28h2.31c-.1-.88-.15-2.35-.15-4.34v-.94a38.91 38.91 0 015.29 0v.94a41.08 41.08 0 01-.16 4.34zm4.86-3.26a2.21 2.21 0 01.58-1.51 5.13 5.13 0 012.91-.58 7.87 7.87 0 011.37.19v2.36a3.42 3.42 0 01-2.86 1.58 1.93 1.93 0 01-2-2m6.91-4c0-3.15-1.18-4.35-3.66-4.35a10.88 10.88 0 00-4.75 1.23 1.52 1.52 0 00.43 1.2 7.28 7.28 0 013.44-1c1.92 0 2.45 1 2.43 3.58-4.91.07-6.93 1.08-6.93 3.74a3 3 0 003.15 3 4.75 4.75 0 003.83-1.9h.07a14.76 14.76 0 00.17 1.88l1.95-.2a35.68 35.68 0 01-.17-4.82zm8.18-4.39a5.27 5.27 0 00-3.9 1.65 6 6 0 00-1.59 4.3 6.22 6.22 0 001.45 4.32 4.94 4.94 0 003.85 1.61 6.36 6.36 0 003.63-1.08 1.48 1.48 0 00-.29-1 5.29 5.29 0 01-2.4.62c-2.51 0-4.12-2-4.12-5a4.49 4.49 0 011.2-3.31 2.78 2.78 0 011.88-.57 4.18 4.18 0 012.79.93 2.51 2.51 0 00.84-1.46 4.74 4.74 0 00-3.34-1m17.41.3c-.5.67-1.15 1.54-2.11 2.71s-1.81 2-2.07 2h-.51v-1.1a33.26 33.26 0 01.15-3.65h-2.31c.12 1.46.17 3.17.17 5.14v.84c0 2.13-.05 3.91-.17 5.32h2.31c-.1-.93-.15-2.47-.15-4.58v-1h.51c.26 0 .67.48 1.2 1.39.36.56 1 1.59 1.66 2.45l.31.41a10 10 0 001.4 1.61 5.07 5.07 0 002.16-.34 33.35 33.35 0 01-3.53-4.46l-1.25-1.78c.38-.38 1.18-1.22 2.35-2.54s2-2.14 2.27-2.45zm12.57 11.3h.6a14.74 14.74 0 01-2.48 4 1.84 1.84 0 001.54 1.1c.8-1 1.83-3.45 3.16-7.25l.89-2.56 1-3.15c.55-1.61.94-2.76 1.2-3.43h-1.95c-.26 1.25-.69 2.9-1.27 4.94a44.06 44.06 0 01-1.4 4.44h-.12c-1.83-4.89-2.88-8-3.2-9.38H345zm7.75-9.45a5.64 5.64 0 012.84-.75c1.51 0 2.33.75 2.33 1.92a2.07 2.07 0 01-2.28 1.92 5.28 5.28 0 01-1.54-.16 1.57 1.57 0 000 1.46 5.88 5.88 0 011.66-.17c1.54 0 2.67.75 2.67 2a2 2 0 01-.92 1.77 3.86 3.86 0 01-1.8.36 5.31 5.31 0 01-3.06-.88 2.27 2.27 0 00-.65 1.32 4.08 4.08 0 001.45.64 7.16 7.16 0 002.11.32c2.92 0 5-1.25 5-3.68a2.6 2.6 0 00-2.52-2.54v-.12a2.91 2.91 0 002-2.74c0-1.63-1.25-2.85-3.63-2.85a8.41 8.41 0 00-4 .86 2.85 2.85 0 00.36 1.3m15.26-.8c2.28 0 3.39 2 3.39 4.85a5 5 0 01-1.2 3.7 3.14 3.14 0 01-1.71.55c-2.21 0-3.61-1.83-3.61-5a4.87 4.87 0 011.06-3.44 2.82 2.82 0 012.07-.67m.38-1.44a5.24 5.24 0 00-4 1.71 6.29 6.29 0 00-1.56 4.44 6.17 6.17 0 001.42 4.22 5.37 5.37 0 007.72-.05 6.34 6.34 0 001.5-4.34c-.06-3.64-1.88-5.97-5.06-5.97zm10.02 3.35a3.34 3.34 0 011.88-1.54 3 3 0 01.91-.09c1.76.07 2.79 1.48 2.79 4.1a5.39 5.39 0 01-1.39 4.13 4.18 4.18 0 01-2.53.69 4.34 4.34 0 01-1.66-.28zm-2.19-2.81c.12 1.37.19 3.7.19 7V968c0 4-.07 6.53-.19 7.63h2.33c-.09-.94-.14-2.23-.14-3.91V971a7.27 7.27 0 001.54.19 6.28 6.28 0 004.4-1.71 6.17 6.17 0 001.83-4.75c0-3-1.32-4.8-3.51-5.18a4.13 4.13 0 00-1.66.29 3.43 3.43 0 00-2.67 1.51v-1.87zm11.95-.12a19.52 19.52 0 01.15 2.88v1.06c0 2.52 1.25 3.52 3.46 3.52a6.7 6.7 0 003.18-.86v1.32a16.27 16.27 0 01-.22 3.38h2.38c-.12-1.12-.17-2.85-.17-5.18v-1.06c0-2.13 0-3.81.17-5.06h-2.33a29.87 29.87 0 01.17 3.48v2a5 5 0 01-2.43.53c-1.61 0-2.22-.77-2.22-2.62 0-1.05.05-2.21.17-3.43zm13.79 8.04a2.17 2.17 0 01.58-1.51 5.11 5.11 0 012.91-.58 7.87 7.87 0 011.37.19v2.36a3.43 3.43 0 01-2.86 1.58 1.93 1.93 0 01-2-2m6.91-4c0-3.15-1.18-4.35-3.66-4.35a10.92 10.92 0 00-4.72 1.25 1.55 1.55 0 00.43 1.2 7.31 7.31 0 013.45-1c1.92 0 2.45 1 2.43 3.58-4.91.07-6.93 1.08-6.93 3.74a3 3 0 003.15 3 4.73 4.73 0 003.82-1.9h.08a13.55 13.55 0 00.16 1.88l1.95-.2a36.49 36.49 0 01-.16-4.82zm1.99-2.42a18.76 18.76 0 012.79-.15h1v2.69a69.62 69.62 0 01-.22 7.1h2.43c-.12-1.17-.19-3.52-.19-7v-2.76h1a16.38 16.38 0 012.77.15v-1.66h-9.51zm16.1-.63c2.29 0 3.39 2 3.39 4.85a5 5 0 01-1.2 3.7 3.12 3.12 0 01-1.71.55c-2.21 0-3.61-1.83-3.61-5a4.87 4.87 0 011.06-3.44 2.82 2.82 0 012.07-.67m.38-1.44a5.21 5.21 0 00-4 1.71 6.25 6.25 0 00-1.57 4.44 6.17 6.17 0 001.42 4.22 5.39 5.39 0 007.73-.05 6.39 6.39 0 001.49-4.34c0-3.64-1.87-5.97-5.07-5.97zm10.86-4.81a2.07 2.07 0 00-1.45.67 3.06 3.06 0 003.27 2.57 3.3 3.3 0 003.47-2.76c-.14-.22-.46-.31-.91-.29a2.11 2.11 0 01-2.17 1.8 2.16 2.16 0 01-2.21-2m6.66 16.53c-.07-1.29-.12-2.88-.12-4.75v-1.61c0-1.75.05-3.4.12-4.94h-1.78c-.31.6-1.3 2-2.91 4.32s-2.55 3.67-2.86 4.2h-.12c.09-.84.14-2.14.14-3.94v-1.65a23.24 23.24 0 01.12-2.93h-2.29c.12 1.42.17 3.07.17 4.92v1c0 2.37-.05 4.17-.17 5.37h1.86c.43-.74 1.42-2.23 3-4.41s2.48-3.58 2.79-4.13h.07c-.07.82-.1 2.23-.1 4.25V968a19.61 19.61 0 01-.16 3zm14.97-11.29c-.51.67-1.16 1.54-2.12 2.71s-1.8 2-2.07 2h-.5v-1.1a33.78 33.78 0 01.14-3.65h-2.31c.12 1.46.17 3.17.17 5.14v.84c0 2.13-.05 3.91-.17 5.32h2.31c-.1-.93-.14-2.47-.14-4.58v-1h.5c.27 0 .67.48 1.2 1.39.37.56 1 1.59 1.66 2.45l.32.41a10.14 10.14 0 001.39 1.61 5.12 5.12 0 002.17-.34 32.42 32.42 0 01-3.54-4.46l-1.25-1.78c.39-.38 1.18-1.22 2.36-2.54s1.95-2.14 2.26-2.45zm14.34 11.3c-.07-1.29-.12-2.88-.12-4.75v-1.61c0-1.75.05-3.4.12-4.94H477c-.31.6-1.3 2-2.91 4.32s-2.55 3.67-2.87 4.2h-.12a36.75 36.75 0 00.15-3.94v-1.65a23.24 23.24 0 01.12-2.93h-2.29c.12 1.42.17 3.07.17 4.92v1c0 2.37-.05 4.17-.17 5.37h1.85c.44-.74 1.42-2.23 3-4.41s2.48-3.58 2.8-4.13h.07c-.07.82-.1 2.23-.1 4.25V968a19.4 19.4 0 01-.17 3zm5.61-8.37a3.32 3.32 0 011.87-1.54 3.08 3.08 0 01.92-.09c1.75.07 2.79 1.48 2.79 4.1a5.36 5.36 0 01-1.4 4.13 4.13 4.13 0 01-2.52.69 4.3 4.3 0 01-1.66-.28zm-2.19-2.81c.12 1.37.19 3.7.19 7V968c0 4-.07 6.53-.19 7.63h2.33c-.1-.94-.14-2.23-.14-3.91V971a7.19 7.19 0 001.54.19 6.3 6.3 0 004.4-1.71 6.17 6.17 0 001.83-4.75c0-3-1.33-4.8-3.52-5.18a4.19 4.19 0 00-1.66.29 3.46 3.46 0 00-2.67 1.51v-1.87zm22.11 11.18q-.15-2-.15-5.49v-.89c0-.72.05-2.35.15-4.92h-9.43c.12 1.78.16 3.41.16 4.9v1c0 1.61 0 3.38-.16 5.37h2.31c-.1-1.41-.15-3.57-.15-6.52v-3.34a20.93 20.93 0 012.55-.1 22 22 0 012.6.1v3.26c0 3-.07 5.19-.19 6.6zm13.11 0c-.07-1.29-.12-2.88-.12-4.75v-1.61c0-1.75.05-3.4.12-4.94h-1.78c-.31.6-1.3 2-2.91 4.32s-2.55 3.67-2.86 4.2h-.12c.09-.84.14-2.14.14-3.94v-1.65a23.24 23.24 0 01.12-2.93h-2.28c.12 1.42.16 3.07.16 4.92v1c0 2.37 0 4.17-.16 5.37h1.85c.43-.74 1.42-2.23 3-4.41s2.48-3.58 2.79-4.13h.07c-.07.82-.1 2.23-.1 4.25V968a19.61 19.61 0 01-.16 3zm2.75-11.3a21.45 21.45 0 01.14 2.88v1.06c0 2.52 1.25 3.52 3.46 3.52a6.67 6.67 0 003.18-.86v1.32a16.27 16.27 0 01-.22 3.38h2.39c-.12-1.12-.17-2.85-.17-5.18v-1.06c0-2.13.05-3.81.17-5.06h-2.34a29.87 29.87 0 01.17 3.48v2a5 5 0 01-2.43.53c-1.61 0-2.21-.77-2.21-2.62 0-1.05.05-2.21.17-3.43zm21.94 11.3c-.1-1.6-.14-3.36-.14-5.23v-.77c0-2.42 0-4.2.14-5.3h-2.29a27.15 27.15 0 01.17 3.6v1a38.91 38.91 0 01-5.29 0v-.87a35.1 35.1 0 01.14-3.74h-2.31c.12 1.1.17 2.88.17 5.33v.69c0 2.14 0 3.92-.17 5.28h2.31c-.09-.88-.14-2.35-.14-4.34v-.94a38.91 38.91 0 015.29 0v.94a40.58 40.58 0 01-.17 4.34zm7.96-10.27c2.29 0 3.4 2 3.4 4.85a4.94 4.94 0 01-1.21 3.7 3.11 3.11 0 01-1.7.55c-2.22 0-3.61-1.83-3.61-5a4.91 4.91 0 011.05-3.44 2.83 2.83 0 012.07-.67m.39-1.44a5.23 5.23 0 00-4 1.71 6.29 6.29 0 00-1.56 4.44 6.17 6.17 0 001.42 4.22 5.37 5.37 0 007.72-.05 6.34 6.34 0 001.49-4.34c-.02-3.64-1.87-5.97-5.07-5.97zm10.85-4.81a2 2 0 00-1.44.67 3.05 3.05 0 003.27 2.57 3.3 3.3 0 003.47-2.76c-.15-.22-.46-.31-.92-.29a2.09 2.09 0 01-2.16 1.8 2.17 2.17 0 01-2.22-2m6.71 16.54c-.08-1.29-.12-2.88-.12-4.75v-1.61c0-1.75 0-3.4.12-4.94h-1.78c-.32.6-1.3 2-2.92 4.32s-2.55 3.67-2.86 4.2h-.12a37.41 37.41 0 00.14-3.94v-1.65a20.77 20.77 0 01.13-2.93h-2.29c.12 1.42.17 3.07.17 4.92v1c0 2.37 0 4.17-.17 5.37h1.85c.44-.74 1.42-2.23 3-4.41s2.48-3.58 2.79-4.13h.08c-.08.82-.1 2.23-.1 4.25V968a19.4 19.4 0 01-.17 3zm14.92-11.3c-.5.67-1.15 1.54-2.11 2.71s-1.81 2-2.07 2h-.51v-1.1a33.26 33.26 0 01.15-3.65h-2.31c.12 1.46.16 3.17.16 5.14v.84c0 2.13 0 3.91-.16 5.32h2.31c-.1-.93-.15-2.47-.15-4.58v-1h.51c.26 0 .67.48 1.2 1.39.36.56 1 1.59 1.66 2.45l.31.41a10 10 0 001.4 1.61 5.07 5.07 0 002.16-.34 33.35 33.35 0 01-3.53-4.46l-1.25-1.78c.38-.38 1.17-1.22 2.35-2.54s2-2.14 2.26-2.45zm13.69 11.3c-.07-1.1-.12-2.92-.12-5.47v-.89c0-2.32 0-4 .12-4.94H589a12.34 12.34 0 01.2 2.38v.64c0 4.83-.82 6.84-2.53 6.58a3 3 0 000 1.92c3.08.46 4.28-2.45 4.28-8.33v-1.75c.28 0 .86-.05 1.75-.05s1.49 0 1.81.05v5a42.55 42.55 0 01-.2 4.89zm4.58-3.26a2.2 2.2 0 01.57-1.51 5.15 5.15 0 012.91-.58 8 8 0 011.38.19v2.36a3.45 3.45 0 01-2.87 1.58 1.92 1.92 0 01-2-2m6.9-4c0-3.15-1.18-4.35-3.66-4.35a10.88 10.88 0 00-4.71 1.25 1.52 1.52 0 00.43 1.2 7.28 7.28 0 013.44-1c1.93 0 2.46 1 2.43 3.58-4.91.07-6.93 1.08-6.93 3.74a3 3 0 003.15 3 4.75 4.75 0 003.83-1.9h.07a14.76 14.76 0 00.17 1.88l2-.2a35.68 35.68 0 01-.17-4.82zm6.34-2.64a8.23 8.23 0 011.66-.1 8.48 8.48 0 011.68.1v8.42h-5.1c1-1 1.74-4.17 1.76-8.42m-3 12.72v-2.86h8.26v2.86h1.73v-4.3h-1.52c-.07-.76-.12-2.23-.12-4.39v-.77c0-1.94 0-3.52.15-4.7h-7.39a18 18 0 01.14 2.4 18.52 18.52 0 01-.67 5c-.43 1.63-1 2.44-1.56 2.44h-.75v4.3zm19.1-14.16c-.51.67-1.16 1.54-2.12 2.71s-1.8 2-2.07 2h-.5v-1.1a33.78 33.78 0 01.14-3.65h-2.31c.12 1.46.17 3.17.17 5.14v.84c0 2.13-.05 3.91-.17 5.32H626c-.1-.93-.14-2.47-.14-4.58v-1h.5c.27 0 .67.48 1.2 1.39.36.56 1 1.59 1.66 2.45l.32.41a9.62 9.62 0 001.39 1.61 5.15 5.15 0 002.17-.34 32.42 32.42 0 01-3.54-4.46l-1.25-1.78c.38-.38 1.18-1.22 2.36-2.54s2-2.14 2.26-2.45zm6.04 4.7a5 5 0 01.36-1.72 4 4 0 01.77-1.4 3.62 3.62 0 012-.55 2.61 2.61 0 011.85.7 2.27 2.27 0 01.75 1.8 1.24 1.24 0 01-.17.72 13.07 13.07 0 01-2.53.31c-1.37.1-2.38.14-3 .14m3.44-5a4.91 4.91 0 00-4 1.75 6.4 6.4 0 00-1.45 4.22c0 3.63 2 5.86 5.25 5.86a6.6 6.6 0 004.18-1.37 1.46 1.46 0 00-.38-1 5.2 5.2 0 01-3.13.87c-2.28 0-3.8-1.3-3.9-4.11l1.76-.14a35 35 0 005.8-.77 4.22 4.22 0 00.24-1.41 3.82 3.82 0 00-1.13-2.72 4.21 4.21 0 00-3.27-1.19zm-451.94 38.6a2.93 2.93 0 01-2.4-1.29 5.61 5.61 0 01-1-3.43c0-2 .7-3.46 1.66-4.11a3.06 3.06 0 011.4-.36 3 3 0 011.15 0c.07 4.25.1 7.27 0 9.07a3.21 3.21 0 01-.84.07m3.85-9.19c1.64 0 3 1.71 3 4.51 0 2-.51 3.36-1.5 4.18a4.92 4.92 0 01-2.74.5q-.1-4.63 0-9.09a4.89 4.89 0 011.27-.05zm-1 14.93a27.78 27.78 0 01-.19-3.89v-.57a5.5 5.5 0 004.59-1.56 6.65 6.65 0 001.69-4.71c0-2.88-1.37-4.92-3.56-5.37a4.52 4.52 0 00-1.08-.07 6.24 6.24 0 00-1.56.24v-1.06c.05-2.71.07-4.2.1-4.46a3.63 3.63 0 00-1.13-.08 5.41 5.41 0 00-1.09.12c.08.68.1 2.09.1 4.25v1a5.51 5.51 0 00-4.38 1.39 5.7 5.7 0 00-1.76 4.44c0 3.34 1.71 5.5 4.14 5.91a5.5 5.5 0 001 0 3.57 3.57 0 001-.14v.5a39 39 0 01-.15 4.06zm10.25-7.87a2.17 2.17 0 01.58-1.51 5.11 5.11 0 012.91-.58 7.87 7.87 0 011.37.19v2.36a3.45 3.45 0 01-2.87 1.58 1.93 1.93 0 01-2-2m6.9-4c0-3.15-1.18-4.35-3.65-4.35a10.92 10.92 0 00-4.72 1.25 1.52 1.52 0 00.43 1.2 7.31 7.31 0 013.44-1c1.93 0 2.46 1 2.43 3.58-4.9.07-6.93 1.08-6.93 3.74a3 3 0 003.16 3 4.75 4.75 0 003.82-1.9h.07a14.76 14.76 0 00.17 1.88l1.95-.2a35.68 35.68 0 01-.17-4.82zm8.19-4.39a5.26 5.26 0 00-3.89 1.65 6 6 0 00-1.59 4.3 6.26 6.26 0 001.44 4.32 5 5 0 003.85 1.61 6.42 6.42 0 003.64-1.08 1.53 1.53 0 00-.29-1 5.33 5.33 0 01-2.41.62c-2.5 0-4.11-2-4.11-5a4.45 4.45 0 011.2-3.31 2.76 2.76 0 011.88-.57 4.2 4.2 0 012.79.93 2.56 2.56 0 00.84-1.46 4.77 4.77 0 00-3.35-1m7.34 8.34a2.21 2.21 0 01.58-1.51 5.13 5.13 0 012.91-.58 7.75 7.75 0 011.37.19v2.36a3.42 3.42 0 01-2.86 1.58 1.93 1.93 0 01-2-2m6.91-4c0-3.15-1.18-4.35-3.66-4.35a10.88 10.88 0 00-4.71 1.25 1.52 1.52 0 00.43 1.2 7.28 7.28 0 013.44-1c1.92 0 2.45 1 2.43 3.58-4.91.07-6.93 1.08-6.93 3.74a3 3 0 003.15 3 4.75 4.75 0 003.83-1.9h.07a14.76 14.76 0 00.17 1.88l1.95-.2a35.68 35.68 0 01-.17-4.82zm6.33-2.64a8.23 8.23 0 011.66-.1 8.48 8.48 0 011.68.1v8.42h-5.1c1-1.05 1.73-4.17 1.76-8.42m-3 12.72V999h8.25v2.86h1.74v-4.3h-1.52c-.07-.76-.12-2.23-.12-4.39v-.77c0-1.94.05-3.52.14-4.7h-7.38a19.89 19.89 0 01.14 2.4 18.92 18.92 0 01-.67 5c-.44 1.63-1 2.44-1.57 2.44h-.74v4.3zm16.76-13.13c2.29 0 3.39 2 3.39 4.85a5 5 0 01-1.2 3.7 3.12 3.12 0 01-1.71.55c-2.21 0-3.61-1.83-3.61-5a4.87 4.87 0 011.06-3.44 2.82 2.82 0 012.07-.67m.39-1.44a5.21 5.21 0 00-4 1.71 6.25 6.25 0 00-1.57 4.44 6.17 6.17 0 001.42 4.22 5.39 5.39 0 007.73 0 6.39 6.39 0 001.49-4.34c-.04-3.69-1.87-6.02-5.04-6.02zm10.03 6.47a13.51 13.51 0 012-.1c1.54 0 2.75.58 2.75 2a2.21 2.21 0 01-.94 2 5.6 5.6 0 01-2.17.28 4.72 4.72 0 01-1.61-.19zm0-4.85a6.4 6.4 0 011.69-.19c1.73 0 2.59.62 2.59 1.87a2 2 0 01-1.75 1.9 12.17 12.17 0 01-2.53 0zm1.83-1.49a30.11 30.11 0 00-4 .29c.12 1.32.16 2.93.16 4.8v.94c0 2.23 0 4.1-.16 5.56a19.07 19.07 0 003.51.27c3.3 0 5.41-1.27 5.41-3.55a2.6 2.6 0 00-2.52-2.76v-.12a2.81 2.81 0 002.07-2.62c-.04-1.87-1.54-2.81-4.52-2.81zm19.34.29c-.5.67-1.15 1.54-2.11 2.71s-1.81 2-2.07 2h-.51v-1.1a33.26 33.26 0 01.15-3.65h-2.31c.12 1.46.16 3.17.16 5.14v.84c0 2.13 0 3.91-.16 5.32h2.31c-.1-.93-.15-2.47-.15-4.58v-1h.52c.26 0 .67.48 1.2 1.39.36.56 1 1.59 1.66 2.45l.31.41a10 10 0 001.4 1.61 5.07 5.07 0 002.16-.34 33.35 33.35 0 01-3.53-4.46l-1.25-1.78c.38-.38 1.18-1.22 2.35-2.54s1.95-2.14 2.27-2.45zM290 999h.6a15 15 0 01-2.47 4 1.82 1.82 0 001.54 1.1c.79-1 1.82-3.45 3.15-7.25l.89-2.56 1-3.15c.56-1.61.94-2.76 1.21-3.43H294q-.41 1.88-1.28 4.94a44.65 44.65 0 01-1.39 4.44h-.12q-2.75-7.33-3.2-9.38h-2.58zm17.22 0c-.09-1.36-.14-3.19-.14-5.49v-.89c0-.72.05-2.35.14-4.92h-9.43c.12 1.78.17 3.41.17 4.9v1c0 1.61 0 3.38-.17 5.37h2.31c-.1-1.41-.14-3.57-.14-6.52v-3.34a20.82 20.82 0 012.55-.1 22.26 22.26 0 012.6.1v3.26c0 3-.08 5.19-.2 6.6zm4.78-6.58a5 5 0 01.36-1.72 4 4 0 01.77-1.4 3.6 3.6 0 012-.55 2.63 2.63 0 011.85.7 2.27 2.27 0 01.75 1.8 1.24 1.24 0 01-.17.72 13.2 13.2 0 01-2.53.31c-1.37.1-2.38.14-3 .14m3.44-5a4.93 4.93 0 00-4.05 1.75 6.45 6.45 0 00-1.44 4.22c0 3.63 1.95 5.86 5.25 5.86a6.62 6.62 0 004.18-1.37 1.46 1.46 0 00-.38-1 5.24 5.24 0 01-3.13.87c-2.29 0-3.8-1.3-3.9-4.11l1.76-.14a35.23 35.23 0 005.8-.77 4.49 4.49 0 00.24-1.41 3.82 3.82 0 00-1.13-2.72 4.21 4.21 0 00-3.19-1.19zm6.33.3a19.52 19.52 0 01.15 2.88v1.06c0 2.52 1.25 3.52 3.46 3.52a6.67 6.67 0 003.18-.86v1.32a16.27 16.27 0 01-.22 3.38h2.39a51.22 51.22 0 01-.17-5.18v-1.06c0-2.13 0-3.81.17-5.06h-2.34a29.87 29.87 0 01.17 3.48v2a5 5 0 01-2.43.53c-1.61 0-2.21-.77-2.21-2.62 0-1 0-2.21.16-3.43zm13.77 4.7a5 5 0 01.36-1.72 4 4 0 01.77-1.4 3.65 3.65 0 012-.55 2.61 2.61 0 011.85.7 2.27 2.27 0 01.75 1.8 1.24 1.24 0 01-.17.72 13.07 13.07 0 01-2.53.31c-1.37.1-2.38.14-3 .14m3.44-5a4.91 4.91 0 00-4 1.75 6.4 6.4 0 00-1.45 4.22c0 3.63 2 5.86 5.25 5.86a6.6 6.6 0 004.18-1.37 1.46 1.46 0 00-.38-1 5.2 5.2 0 01-3.13.87c-2.28 0-3.8-1.3-3.9-4.11l1.76-.14a35 35 0 005.8-.77 4.22 4.22 0 00.24-1.41 3.82 3.82 0 00-1.13-2.72 4.21 4.21 0 00-3.28-1.19zm11.83-.01a5.28 5.28 0 00-3.9 1.65 6 6 0 00-1.59 4.3 6.27 6.27 0 001.45 4.32 5 5 0 003.85 1.61 6.36 6.36 0 003.63-1.08 1.43 1.43 0 00-.29-1 5.29 5.29 0 01-2.4.62c-2.51 0-4.12-2-4.12-5a4.46 4.46 0 011.21-3.31 2.73 2.73 0 011.87-.57 4.18 4.18 0 012.79.93 2.58 2.58 0 00.85-1.46 4.79 4.79 0 00-3.35-1m12.78.3c-.51.67-1.16 1.54-2.12 2.71s-1.8 2-2.07 2H359v-1.1a33.78 33.78 0 01.14-3.65h-2.31c.12 1.46.17 3.17.17 5.14v.84c0 2.13 0 3.91-.17 5.32h2.31c-.1-.93-.14-2.47-.14-4.58v-1h.5c.27 0 .67.48 1.2 1.39.36.56 1 1.59 1.66 2.45l.32.41a9.62 9.62 0 001.39 1.61 5.12 5.12 0 002.17-.34 32.42 32.42 0 01-3.54-4.46l-1.25-1.78c.38-.38 1.18-1.22 2.36-2.54s2-2.14 2.26-2.45zm9.17 1.03c2.28 0 3.39 2 3.39 4.85a4.94 4.94 0 01-1.21 3.7 3.11 3.11 0 01-1.7.55c-2.22 0-3.61-1.83-3.61-5a4.87 4.87 0 011.06-3.44 2.8 2.8 0 012.07-.67m.38-1.44a5.23 5.23 0 00-4 1.71 6.29 6.29 0 00-1.56 4.44 6.17 6.17 0 001.42 4.22 5.37 5.37 0 007.72 0 6.34 6.34 0 001.49-4.34c-.02-3.69-1.87-6.02-5.07-6.02zm10.85-4.81a2 2 0 00-1.44.67 3.05 3.05 0 003.27 2.57 3.3 3.3 0 003.47-2.76c-.15-.22-.46-.31-.92-.29a2.09 2.09 0 01-2.16 1.8 2.17 2.17 0 01-2.22-2m6.67 16.52c-.07-1.29-.12-2.88-.12-4.75v-1.61c0-1.75 0-3.4.12-4.94h-1.78c-.32.6-1.3 2-2.91 4.32s-2.56 3.67-2.87 4.2H383a36.75 36.75 0 00.15-3.94v-1.65a21.37 21.37 0 01.12-2.93H381c.12 1.42.17 3.07.17 4.92v1c0 2.37-.05 4.17-.17 5.37h1.85c.44-.74 1.42-2.23 3-4.41s2.48-3.58 2.79-4.13h.08c-.08.82-.1 2.23-.1 4.25v1.34a19.4 19.4 0 01-.17 2.95zm8.11-9.43a5.64 5.64 0 012.84-.75c1.51 0 2.33.75 2.33 1.92a2.08 2.08 0 01-2.29 1.92 5.28 5.28 0 01-1.54-.16 1.57 1.57 0 000 1.46 6 6 0 011.66-.17c1.54 0 2.67.75 2.67 2a2 2 0 01-.91 1.77 3.89 3.89 0 01-1.8.36 5.31 5.31 0 01-3.06-.88 2.27 2.27 0 00-.65 1.32 4.1 4.1 0 001.44.64 7.23 7.23 0 002.12.32c2.91 0 5-1.25 5-3.68a2.6 2.6 0 00-2.52-2.54v-.1a2.91 2.91 0 002-2.74c0-1.63-1.25-2.85-3.63-2.85a8.41 8.41 0 00-4 .86 2.62 2.62 0 00.36 1.3m12.15 6.19a2.17 2.17 0 01.58-1.51 5.11 5.11 0 012.91-.58 7.87 7.87 0 011.37.19v2.36a3.43 3.43 0 01-2.86 1.58 1.93 1.93 0 01-2-2m6.91-4c0-3.15-1.18-4.35-3.66-4.35a11 11 0 00-4.72 1.25 1.52 1.52 0 00.44 1.2 7.24 7.24 0 013.44-1c1.92 0 2.45 1 2.43 3.58-4.91.07-6.93 1.08-6.93 3.74a3 3 0 003.15 3 4.75 4.75 0 003.83-1.9h.11a13 13 0 00.17 1.88l1.95-.2a35.68 35.68 0 01-.17-4.82zm8.18-4.39a5.27 5.27 0 00-3.9 1.65 6 6 0 00-1.59 4.3 6.22 6.22 0 001.45 4.32 4.94 4.94 0 003.85 1.61 6.36 6.36 0 003.63-1.08 1.48 1.48 0 00-.29-1 5.3 5.3 0 01-2.41.62c-2.5 0-4.11-2-4.11-5a4.49 4.49 0 011.2-3.31 2.78 2.78 0 011.88-.57 4.2 4.2 0 012.79.93 2.51 2.51 0 00.84-1.46 4.76 4.76 0 00-3.34-1m4.57 1.96a18.76 18.76 0 012.79-.15h1v2.69a70.8 70.8 0 01-.21 7.1h2.43c-.12-1.17-.2-3.52-.2-7v-2.76h1a16.23 16.23 0 012.76.15v-1.66h-9.5zm13.74 1.27a3.34 3.34 0 011.88-1.54 3 3 0 01.91-.09c1.76.07 2.79 1.48 2.79 4.1a5.39 5.39 0 01-1.39 4.13 4.18 4.18 0 01-2.53.69 4.34 4.34 0 01-1.66-.28zm-2.19-2.81c.12 1.37.19 3.7.19 7v1.18c0 4-.07 6.53-.19 7.63h2.33c-.09-.94-.14-2.23-.14-3.91v-.67a7.27 7.27 0 001.54.19 6.27 6.27 0 004.4-1.71 6.17 6.17 0 001.83-4.75c0-3-1.32-4.8-3.51-5.18a4.13 4.13 0 00-1.66.29 3.43 3.43 0 00-2.67 1.51v-1.87zm17.2.91c2.29 0 3.4 2 3.4 4.85a4.94 4.94 0 01-1.21 3.7 3.11 3.11 0 01-1.7.55c-2.22 0-3.61-1.83-3.61-5a4.91 4.91 0 011-3.44 2.83 2.83 0 012.07-.67m.39-1.44a5.23 5.23 0 00-4 1.71 6.29 6.29 0 00-1.56 4.44 6.17 6.17 0 001.42 4.22 5.37 5.37 0 007.72 0 6.34 6.34 0 001.49-4.34c.03-3.69-1.82-6.02-5.02-6.02zm10.9-4.81a2 2 0 00-1.44.67 3.05 3.05 0 003.27 2.57 3.29 3.29 0 003.46-2.76c-.14-.22-.45-.31-.91-.29a2.09 2.09 0 01-2.17 1.8 2.17 2.17 0 01-2.21-2m6.67 16.52c-.08-1.29-.12-2.88-.12-4.75v-1.61c0-1.75 0-3.4.12-4.94h-1.78c-.32.6-1.3 2-2.92 4.32s-2.55 3.67-2.86 4.2h-.12a37.41 37.41 0 00.14-3.94v-1.65a20.77 20.77 0 01.13-2.93h-2.29c.12 1.42.17 3.07.17 4.92v1c0 2.37-.05 4.17-.17 5.37h1.85c.44-.74 1.42-2.23 3-4.41s2.48-3.58 2.79-4.13h.08c-.08.82-.1 2.23-.1 4.25v1.34A19.4 19.4 0 01475 999zm10.29-11.28c-.5.67-1.15 1.54-2.11 2.71s-1.81 2-2.07 2h-.51v-1.1a33.26 33.26 0 01.15-3.65h-2.31c.12 1.46.17 3.17.17 5.14v.84c0 2.13-.05 3.91-.17 5.32h2.31c-.1-.93-.15-2.47-.15-4.58v-1h.51c.26 0 .67.48 1.2 1.39.36.56 1 1.59 1.66 2.45l.31.41a10 10 0 001.4 1.61 5.15 5.15 0 002.17-.34 32.42 32.42 0 01-3.54-4.46l-1.25-1.78c.38-.38 1.18-1.22 2.35-2.54s1.95-2.14 2.27-2.45zM502 999c-.08-1.29-.12-2.88-.12-4.75v-1.61c0-1.75 0-3.4.12-4.94h-1.79c-.31.6-1.29 2-2.91 4.32s-2.55 3.67-2.86 4.2h-.12a37.41 37.41 0 00.14-3.94v-1.65a23.24 23.24 0 01.12-2.93h-2.28c.12 1.42.17 3.07.17 4.92v1c0 2.37-.05 4.17-.17 5.37h1.85c.43-.74 1.42-2.23 3-4.41s2.48-3.58 2.79-4.13h.07c-.07.82-.09 2.23-.09 4.25v1.34a19.4 19.4 0 01-.17 2.95zm10.42 0c-.12-1.17-.19-3.45-.19-6.81v-3h1.54a27.68 27.68 0 013.32.15v-1.66h-7c.12 1.27.17 2.71.17 4.32v1.08c0 2.38-.05 4.32-.17 5.88zm11.22-10.25c2.28 0 3.39 2 3.39 4.85a4.94 4.94 0 01-1.21 3.7 3.11 3.11 0 01-1.7.55c-2.22 0-3.61-1.83-3.61-5a4.87 4.87 0 011.06-3.44 2.8 2.8 0 012.07-.67m.38-1.44a5.23 5.23 0 00-4 1.71 6.29 6.29 0 00-1.56 4.44 6.17 6.17 0 001.42 4.22 5.37 5.37 0 007.72 0 6.34 6.34 0 001.49-4.34c-.02-3.69-1.87-6.02-5.09-6.02zm9.98 3.35a3.32 3.32 0 011.87-1.54 3.08 3.08 0 01.92-.09c1.75.07 2.79 1.48 2.79 4.1a5.36 5.36 0 01-1.4 4.13 4.13 4.13 0 01-2.52.69 4.3 4.3 0 01-1.66-.28zm-2.19-2.81c.12 1.37.19 3.7.19 7v1.18c0 4-.07 6.53-.19 7.63h2.33c-.1-.94-.14-2.23-.14-3.91v-.67a7.19 7.19 0 001.54.19 6.3 6.3 0 004.4-1.71 6.17 6.17 0 001.83-4.75c0-3-1.33-4.8-3.52-5.18a4.19 4.19 0 00-1.66.29 3.46 3.46 0 00-2.67 1.51v-1.87zm17.19.91c2.29 0 3.39 2 3.39 4.85a5 5 0 01-1.2 3.7 3.12 3.12 0 01-1.71.55c-2.21 0-3.61-1.83-3.61-5a4.87 4.87 0 011.06-3.44 2.82 2.82 0 012.07-.67m.39-1.44a5.21 5.21 0 00-4 1.71 6.25 6.25 0 00-1.57 4.44 6.17 6.17 0 001.42 4.22 5.39 5.39 0 007.73 0 6.39 6.39 0 001.49-4.34c0-3.69-1.85-6.02-5.05-6.02zm10.82 1.86a8.23 8.23 0 011.66-.1 8.48 8.48 0 011.68.1v8.42h-5.1c1-1.05 1.74-4.17 1.76-8.42m-3 12.72V999h8.26v2.86h1.73v-4.3h-1.52c-.07-.76-.12-2.23-.12-4.39v-.77c0-1.94.05-3.52.15-4.7h-7.39a18 18 0 01.14 2.4 18.52 18.52 0 01-.67 5c-.43 1.63-1 2.44-1.56 2.44h-.75v4.3zm13.66-6.12a2.17 2.17 0 01.58-1.51 5.11 5.11 0 012.91-.58 7.87 7.87 0 011.37.19v2.36a3.43 3.43 0 01-2.86 1.58 1.93 1.93 0 01-2-2m6.9-4c0-3.15-1.17-4.35-3.65-4.35a10.92 10.92 0 00-4.72 1.25 1.55 1.55 0 00.43 1.2 7.31 7.31 0 013.45-1c1.92 0 2.45 1 2.43 3.58-4.91.07-6.93 1.08-6.93 3.74a3 3 0 003.15 3 4.73 4.73 0 003.82-1.9h.08a13.55 13.55 0 00.16 1.88l2-.2a35.68 35.68 0 01-.17-4.82zm2.94 6.07a1.3 1.3 0 001.35 1.32 1.33 1.33 0 001.44-1.32 1.4 1.4 0 00-1.44-1.34 1.34 1.34 0 00-1.35 1.34"/></g></svg>