<svg data-name="Layer 1" xmlns="http://www.w3.org/2000/svg" viewBox="0 0 1920 1080"><defs><clipPath id="a"><path fill="none" d="M0 0h1920v1080H0z"/></clipPath></defs><g clip-path="url(#a)"><path fill="#d6e2d4" d="M0 0h1920v1080H0z"/><path d="M545.05 276.93l27.76 101c-7.15 1.26-16.82 1.68-29.86 1.68s-23.14-.42-30.29-1.68l30.71-101zm131.25 199c-13.88-34.07-29.87-79.08-48.8-135-18.5-56.01-31.13-95.55-37.86-119.53h-75.3c-3.37 16-16 54.68-37.86 116.52s-39.12 107.7-52.16 138h59.31c1.26-3.78 2.95-10.09 5.05-19.35 2.52-9.67 4.63-16.4 6.31-21l6.73-21c24.82-2.95 51.74-2.95 81.19 0l7.57 23.43c1.26 4.63 3.37 11.78 5.47 21l4.21 16.82zm156.91-79.11q0 29-13.88 41.64c-8.84 4.21-19.35 6.31-31.13 6.31-10.52 0-18.09-.84-21.88-2.52v-85.4c45-10.09 66.89 5 66.89 40M699 221.4c2.1 24.82 3.36 65.2 3.36 122v34.08q0 77.61-3.79 98.43c23.14 3 51.33 4.63 84.56 4.63 75.72 0 113.58-32 113.58-87.5 0-71.51-66.46-81.19-130.41-68.57v-63.1h21c45.85 0 75.3 1.26 89.18 3.37V221.4zm300 141.76c43.75-8.83 69.41 2.95 69.41 36.6 0 18.93-4.63 32.81-13.46 41.23-7.16 4.63-17.25 6.73-30.29 6.73-10.94 0-19.35-1.26-25.66-3.37zm0-111.47q5.67-2.53 22.71-2.53c23.56 0 41.65 13.88 41.65 38.7 0 19.77-7.57 33.24-22.3 40.81-10.51 2.52-24.82 2.94-42.06 1.68zm26-34.92c-10.94 0-41.23 1.68-90.45 5 2.11 47.11 3.37 85.39 3.37 115.26v23.14c0 50.06-1.26 88.34-3.37 115.26a712 712 0 0087.92 5c67.31 0 110.22-24.4 110.22-76.56 0-36.6-24.4-56-54.27-58.9v-2.94c25.66-5.47 45.44-26.5 45.44-57.21.04-46.6-30.25-68.05-98.86-68.05zm220.05 259.13c-3.79-22.29-5.89-62.26-5.89-119.47v-92.55h17.25c27.76 0 50.48.85 68.15 2.95V221.4h-152.71c2.11 23.13 3.37 60.15 3.37 111v16.83c0 61.42-1.26 103.49-3.37 126.62zm189.72-212.02c5.47-.42 13.89-.84 25.67-.84 11.77-.42 20.19 0 25.66.84v172.06h-84.56c22.3-22.3 33.23-79.51 33.23-172.06m-67.3 271.34V475.9h167.42v59.32h51.33v-99.28h-34.08c-1.26-11.36-2.1-38.28-2.1-80.35v-28.18c0-46.7.84-82 2.94-106h-179.2a395.86 395.86 0 013.78 52.16c0 42.49-4.2 80.35-13 113.16-8.41 32.81-21 49.22-37.44 49.22h-11.36v99.28zM439.9 637.44c0-5.32 1.52-11.4 4.31-18.5 2.79-7.35 6.08-12.41 9.38-15.46 6.33-4.3 13.94-6.33 22.81-6.33 17 0 30.15 11.91 30.15 28.38a18.6 18.6 0 01-1.52 6.85c-3.29 1.26-13.17 2.28-29.9 3.54-16.73 1-28.39 1.52-35.23 1.52m39.79-52c-17.74 0-31.43 6.08-41.06 18.5-9.63 12.17-14.44 26.61-14.44 43.59 0 37.51 19.51 61.08 52.21 61.08 17.23 0 34.72-6.08 41.81-13.18 0-2-2.28-7.1-3.55-8.36q-13.3 9.12-32.69 9.12c-25.34 0-42.32-15-42.58-47.64l18-1.27a446 446 0 0062.6-8.11 63.69 63.69 0 002.28-14.17c0-10.39-3.8-19.52-11.15-27.37-7.35-8.08-18-12.14-31.43-12.14zm134.57-27.32c0 5.07 4.82 9.12 10.14 9.12 12.92 1.27 12.92-19.51 0-18.75-5.32 0-10.14 4.31-10.14 9.63m-45.36 6.59a11.43 11.43 0 0014.19 0c4.06-3.29 4.06-9.63 0-13.43a10.26 10.26 0 00-14.19 0c-3.8 3.8-3.8 10.14 0 13.43zm-4.31 72.73c0-5.32 1.52-11.4 4.31-18.5 2.79-7.35 6.08-12.41 9.37-15.46 6.34-4.3 13.94-6.33 22.81-6.33 17 0 30.16 11.91 30.16 28.38a18.8 18.8 0 01-1.52 6.85c-3.29 1.26-13.18 2.28-29.9 3.54-16.73 1.02-28.39 1.52-35.23 1.52zm39.79-52c-17.74 0-31.43 6.08-41.06 18.5-9.63 12.17-14.44 26.61-14.44 43.59 0 37.51 19.51 61.08 52.2 61.08 17.24 0 34.72-6.08 41.82-13.18 0-2-2.28-7.1-3.55-8.36q-13.3 9.12-32.69 9.12c-25.34 0-42.32-15-42.58-47.64l18-1.27a445.69 445.69 0 0062.59-8.11A63.69 63.69 0 00647 625c0-10.39-3.8-19.52-11.15-27.37-7.4-8.08-18.04-12.14-31.47-12.14zm193.11 3.09c-23.57 34.47-37.51 51.7-41.56 51.7h-6.84v-13.18c0-14.69.5-27.62 1.52-38.52h-16.73c.76 9.13 1.27 22.05 1.27 38.52v13.18h-5.58c-2.28 1.27-16.22-16.22-25.34-28.38-3-4.06-6.59-8.62-10.39-13.94s-5.83-8.62-6.59-9.38h-17c3.3 4.31 10.14 12.93 20.53 25.6 10.64 12.67 18 21.54 22.05 26.86q-6.09 7.6-23.57 31.94c-11.41 16-19.52 26.61-23.82 31.67 2.28 2 10.89 3.81 14.19 3.81 2.28-1.53 7.6-8.37 15.71-20.53 2.28-3.8 8.11-12.17 10.9-16.22l10.13-14.19c4.57-5.58 8.37-9.89 10.4-9.89h8.36v13.94c0 19.52-.51 34.47-1.27 45.11h16.73c-1-10.9-1.52-26.1-1.52-45.87v-13.18H759c2 0 6.84 6.34 13.18 16 3.8 5.32 10.9 16 16 23.31 8.36 12.42 13.68 19.52 15.71 21 6.33 0 11.15-1.27 14.19-3.55-4.81-5.83-12.92-17-24.58-33.45q-17.12-25.1-21.29-30.41c3.8-4.82 10.9-13.69 21.54-26.61 10.9-12.93 17.74-21.55 20.78-25.35zm44.86 16.22c10.39-4.81 20.53-7.35 29.9-7.35 16.48 0 26.11 8.37 26.11 21.29s-11.15 22.56-26.61 22.56a45.37 45.37 0 01-13.94-1.78 13.55 13.55 0 000 13.18q4.94-1.51 16.73-1.52c16.47 0 29.65 8.11 29.65 22.56 0 8.87-3.55 15.45-10.39 19.51-5.33 2.79-12.17 4.31-20.78 4.31-10.4 0-24.84-3.8-32.19-8.87-3 2.79-5.83 8.36-5.83 11.4 2.28 2.28 7.1 4.56 14.19 6.59a77.08 77.08 0 0021.29 3c28.64 0 49.42-13.18 49.42-38.27 0-14.19-10.39-24.32-25.85-26.61v-1c11.15-3.8 20-16.22 20-28.64 0-17-12.92-29.65-37-29.65-14.19 0-26.61 3-37.51 8.87.51 4.82 1.52 8.11 2.79 10.39m207.83 101.91c-.76-13.43-1.26-29.65-1.26-48.91V641c0-18.24.5-35.73 1.26-52.46h-13.43c-3.29 6.34-14.44 22.3-33.2 48.41-18.5 25.85-29.4 41.31-32.44 46.12h-1c.76-10.9 1.27-25.59 1.27-43.84v-19.78c0-16 .5-26.36 1.26-30.92h-18.25c1.26 13.18 1.77 30.67 1.77 52.21v9.63c0 24.84-.51 43.59-1.77 56.26h14.19C973.37 698 985 681 1003 656s28.38-39.79 30.91-43.85h.51c-.76 6.34-1 22-1 46.89v16.47a260.87 260.87 0 01-1.52 31.17zm109.74-118.1c-1 1-3.55 3.8-7.35 8.37l-11.4 13.43c-3.55 4.31-7.35 8.61-11.66 13.18-8.37 9.12-15.21 15.2-17.24 15.2h-5.82v-11.66c0-18.24.5-31.17 1.52-38.52h-18.5c1.26 13.18 1.77 30.92 1.77 53.22v8.87c0 22.31-.51 41.06-1.77 56H1108c-1-9.88-1.52-26.1-1.52-48.4v-10.64h5.06c3.3 0 7.35 4.82 13.69 13.94 3.8 5.07 11.91 16.47 19 25.6 10.13 12.92 17 20.27 20.52 22.3 8.11 0 13.69-1 17-3-5.82-4.56-16.22-16.47-31.17-35.48S1128 642 1127.21 641.25c4.3-4.06 12.92-12.93 26.35-26.61 13.43-13.94 21.8-22.56 25.6-26.11zm133.56 118.1q-1.53-17.49-1.52-57.78v-9.38q0-36.87 1.52-50.94h-73.75c1.27 5.32 2 13.69 2 24.84v5.83c0 54-9.13 76.79-27.37 74a24.63 24.63 0 00.25 15.46c28.13 3.8 40.8-25.09 40.8-88.7 0-8.37 0-14.7-.25-19 3-.51 9.88-.76 20.78-.51 10.9 0 17.74.26 20.78.51v54c0 24.84-.51 42.07-1.77 51.7zm49.67 0c-.76-37 0-68.68 2-95.29h1.26c3 7.86 8.37 18.76 14.7 31.93 3.3 6.34 5.33 10.9 6.34 13.18l12.67 27.88h8.36l10.39-21c11.92-24.83 20-42.06 24.08-51.44h1.27c0 3.8.25 17.74.76 42.32q1.14 36.5.76 52.46h17.48c-2.28-18.75-4-48.66-5.57-89.71l-.76-28.39h-14.7c-5.83 14.7-17.23 39-34.72 73h-.76q-13.31-25.1-35.73-73h-15.46l-2 41.57c-1.77 32.94-3.55 58.54-5.58 76.53zm231.64 0c-1-17-1.53-35.23-1.53-54.49V644q0-38 1.53-55.5h-18.25q1.51 11 1.52 38.78V638c-5.07.76-15.21 1-30.41 1s-25.35-.26-30.67-1v-9.12q0-28.51 1.52-40.3H1480c1.27 11.66 1.78 30.16 1.78 55.76v7.35c0 22.05-.51 40.55-1.78 55h18.5c-1-9.38-1.52-25.09-1.52-46.88v-9.63c5.32-.76 15.46-1 30.67-1s25.34.26 30.41 1v9.63c0 21.79-.51 37.5-1.52 46.88zM437.86 820.65c0-13.32 5.12-25.1 10.88-30.35a14.3 14.3 0 0110-3.58c7 0 10.5 5.12 10.5 17.92 0 13.83-4.49 25.49-9.22 30a14.29 14.29 0 01-9.86 4c-7.3 0-12.29-5.51-12.29-17.93m23.3-39.95c-9.09 0-16.52 4.22-22.28 12.55s-8.71 18.44-8.71 30.34c0 13.45 7.17 21.13 17.29 21.13 8.45 0 15.49-3.84 21-11.39s8.45-18.31 8.45-32.14c-.01-12.25-5.39-20.55-15.76-20.55zm39.94 25.93c.51-2.17 1.15-6.27 1.92-12.55s1.15-10.24 1.15-11.78h-7.68c0 6.28-.9 15.88-2.56 28.94a264 264 0 01-5.38 30.61h8.2c.64-3.59 1.4-7.69 2.05-12.43l1.66-9.85c1.15-5.64 4.61-12.55 10.63-20.75s10.88-12.29 14.6-12.29q4.6 0 4.6 8.07c0 3.71-1 11.9-3.2 24.58s-3.1 20.1-3.1 22.67h7.68c0-2 1-9.74 3.2-23s3.21-22 3.21-26q0-12.68-10.38-12.67c-4.22 0-8.83 2.56-13.83 7.81a61.25 61.25 0 00-12.16 18.69zM561.16 837a134.33 134.33 0 012.84-15.58c1.54-6 5.12-13.45 10.76-22s10.24-13.06 13.7-13.06c4 0 5.89 4.1 5.89 12.3a52.4 52.4 0 01-4.74 22.28q-4.8 10.37-10.76 14.21a17 17 0 01-10 3.07q-5.39 0-7.69-1.15m-.64-54.68c-1.4 13.7-3.07 26.77-4.86 39.19s-3.33 22.92-4.74 31.75l-2.3 14c1.66.64 5.63 1 7 0 1.15-7.43 2.56-15.11 4.35-22.92 11.53 1.28 21.39-2.69 29.71-11.91s12.42-21.26 12.42-36c0-9.6-4.48-16.39-11.14-16.39-4.74 0-9.73 3.07-15 9.09A70.26 70.26 0 00564 810h-.38c.89-3.71 1.92-8.71 2.94-15.11a106.75 106.75 0 001.54-12.55zm92.71 2.28q0-3.84-10.76-3.84a25.69 25.69 0 00-23.56 14.34 62.6 62.6 0 00-6.27 28c0 13.83 7 20.87 18.31 20.87 5.76 0 11.27-2.05 16.65-6-.13-2.43-.77-3.84-1.67-4.22-4.86 2.69-9.09 4-12.55 4-8.58 0-12.93-5.64-12.93-16.78 0-15.23 4.87-26.63 10-30.86a14.19 14.19 0 019.47-3.45 17 17 0 0110.37 3.33 5.88 5.88 0 003-5.38m19.79 19.45c.51-2.43 1-6.27 1.66-11.52s1-8.71 1-10.25h-7.69c0 3.84-.77 12.68-2.43 26.51s-3.33 24.71-5.12 33h7.68c1.92-12.81 3.33-21.26 4.23-25.23 1.15-5.12 4.35-11.4 9.86-18.82s10-11.27 13.7-11.27c2.17 0 3.2 2.3 3.2 6.91 0 9-2.43 25.1-7.43 48.41h7.3c.77-3.46 1.54-7.82 2.43-13.32s1.67-9.35 2.31-11.78c1.41-4.87 4.86-11.14 10.11-18.7s9.74-11.52 12.94-11.52c2.94 0 4.22 1.79 4.22 7.3 0 3.46-1.15 12.16-3.58 26.25l-3.72 21.77h7.94c0-2.44 1.15-10.38 3.46-23.95s3.59-22.41 3.59-26.51c0-6.65-3.33-11.26-9-11.26-8.07 0-17.16 9.47-24.33 23.81l-.64.13c1.15-6.91 1.8-11.27 1.8-13.06 0-7.3-2.69-10.88-8.2-10.88-7.3 0-17.29 8.83-24.58 23.81zm78.49-21.77c3.46 6.79 7.3 17 11.65 30.73s6.92 23.69 7.43 30.22c-6.53 11.14-13.83 17.16-21.77 17.8-1.66 2.69-.64 7.17 2.82 7.17 8.7 0 20.74-11.39 30.86-35.47a235.75 235.75 0 008.58-24.71 216.75 216.75 0 006.27-25.74h-7.68c-.64 7.81-2.44 16.91-5.12 27.41s-5.38 18.56-8.2 24.32H776c-.64-5.12-2.56-13.18-6-24.2s-6.4-20.23-9.22-27.53zm80.93 84.9a220.12 220.12 0 013.2-23c11.9 1 21-4.1 26-12.93 5-9.09 7.17-19.59 7.17-31.76 0-11.39-5-19.46-13.83-19.33a16.26 16.26 0 00-11.91 5.89c1.54-10.89 3.46-22.41 5.64-34.32a15.11 15.11 0 00-7.56 0c-1.15 9.86-2.43 19.46-4.1 28.55-24.84-2.68-33.16 22-33.16 42 0 13.71 6.4 21.9 15.62 21.9 3.2 0 7.94-2.18 9.61-4.23-2 14.73-3.46 23.82-4.36 27.28a11.4 11.4 0 007.69 0m10-76.19c2-2.43 5.89-4.74 8.84-4.74 6.78-.13 9.86 5.64 9.86 16.27 0 14.46-3.33 25.09-10.12 32a15.35 15.35 0 01-14.6 3.45zm-12.42 43.41c-2.43 2.69-4.86 4-7.55 4-6.79.13-10.89-7.43-10.89-17.67 0-13.45 3.2-23.95 9.61-31.25a17.46 17.46 0 0115-3.07zm53.24-52.17c3.07 5.25 7.81 14.73 14.34 28.56-12.68 16.52-20.61 26.76-24.07 31h8.45c6.79-9.86 12.8-18.32 18.18-25.36h.64c1.54 3.2 5.12 11.65 10.89 25.36h9.86a288.12 288.12 0 01-15.11-30.86l5-6.53 5.89-7.82c3-3.71 7.94-10.11 11.91-14.34h-8.45l-17.29 23-.51-.13c-4.61-9.86-7.94-17.41-10.12-22.92zM973 815c-2.17 11.65-3.2 19.33-2.81 23.17.25 3.33 2.43 7.43 11 2.18h.77c-4.23 10-6.41 17.16-6.66 21.38h6.78c0-1.92.9-5.89 2.57-11.91s3.58-11.52 5.5-16.26l-2.69-.77c-9.73 7.05-10.88 3.21-10.88-.76 0-2.69 1-10.5 3.07-23.31s3.71-21.64 4.87-26.38h-7.72c-.38 3.08-1.28 7-2.43 12.17l-1.28 6.14c-1.41 7.17-4.86 15-10.24 23.57s-10 12.67-13.7 12.67q-4.62 0-4.61-8.07c0-3.71 1.15-11.78 3.45-24.07s3.46-19.85 3.46-22.41h-7.55c0 1.92-1.16 9.48-3.59 22.67s-3.46 21.64-3.46 25.61c0 8.45 3.46 12.67 10.25 12.67 4.09 0 8.58-2.81 13.31-8.32a76.62 76.62 0 0012-20zm60.27-7.16c-1.15 4.23-2.3 10.12-3.58 17.68a138.46 138.46 0 00-2 16.39h7.55c0-8.84 2.82-28.69 8.58-59.55h-7.68a112.36 112.36 0 01-2.18 13.45 37.79 37.79 0 01-9 15.88c-4.48 5-8.32 7.55-11.52 7.55s-4.61-2.69-4.61-8.19a75.09 75.09 0 012-15.24c1.41-6.4 2-10.89 2-13.45h-7.55c0 1.92-.77 6.53-2.18 13.83a93.75 93.75 0 00-2 16.65c0 8.45 3.2 12.68 9.48 12.68 8.19 0 16.52-6.54 22.15-17.68zm85.28 7.82a128 128 0 00-2.3 13.7 124.12 124.12 0 00-1.28 12.55h7.55c0-5.13.77-14.22 2.18-27.28a319.22 319.22 0 014.86-32.27h-7.68q-2.12 14.79-3.46 20.36c-1.28 5.25-4.61 12.17-9.86 21s-9.22 13.19-11.9 13.19-3.21-1.79-3.21-6.91c0-8.58 2.44-24.46 7.43-47.64h-7.3c-.38 1.92-1.15 5.38-2 10.25s-1.66 8.45-2.43 11.14c-1.28 5.12-4.61 11.91-9.86 20.49s-9.35 12.67-12.29 12.67c-2.43 0-3.59-2.43-3.59-7.3a105.69 105.69 0 011.54-13.44c1-6.53 2.18-13.32 3.46-20.62l2.3-13.19h-7.94c0 2.44-1.15 10.25-3.58 23.69s-3.46 22-3.46 26.12c0 6.66 3.33 11.14 8.84 11.14 3.71 0 7.68-2.56 12-7.81a75.12 75.12 0 0011.4-18.82h.64c-1.67 7.17-2.43 12.42-2.43 15.75 0 7.3 2.69 10.88 7.94 10.88 3.45 0 7.55-2.69 12-8.06a82 82 0 0011.78-19.47zm82.59 22.53c.26 3.33 2.44 7 10.89 2.18h.89c-4 9.47-6 16.64-6.14 21.38h6.91c0-1.92.77-5.89 2.43-12s3.33-11.4 5-16.14l-2.69-.77c-9.86 7.17-10.76 3.21-10.76-.76 0-2.82 1-10.63 2.95-23.56s3.46-21.64 4.35-26.13h-7.43q-2.1 14.79-3.45 20.36c-1.28 5.25-4.61 12.17-9.86 21s-9.22 13.19-11.91 13.19-3.2-1.79-3.2-6.91q0-12.3 7.3-47.64h-7.3c-1.41 6.92-2.82 16-4.36 21.39-1.28 5.12-4.6 11.91-9.85 20.49s-9.35 12.67-12.3 12.67c-2.43 0-3.58-2.43-3.58-7.3q0-5 3.45-25.73l3.72-21.52h-7.94c0 2.44-1.15 10.25-3.46 23.69s-3.46 22-3.46 26.12c0 6.66 3.33 11.14 8.84 11.14 3.71 0 7.68-2.56 12-7.81a75.1 75.1 0 0011.39-18.82h.64c-1.66 7.17-2.43 12.42-2.43 15.75 0 7.3 2.69 10.88 7.94 10.88 3.46 0 7.55-2.69 12-8.06a80.08 80.08 0 0011.65-19.47h.38c-2.18 10.89-3.07 18.31-2.69 22.41m39.01-7.22a45.27 45.27 0 01.64-7.81 50.19 50.19 0 019.22-12.55c3.84-4 7.17-5.89 10-5.89q4.61 0 4.61 8.07c0 7.3-3.72 15.36-8.2 20.36-3.46 3.2-6.66 4.86-9.86 4.86-4 0-6.4-2.81-6.4-7m5.89-42.89a126.54 126.54 0 00-9.73 23.17c-2.44 8.07-3.72 15-3.72 20.75q0 12.29 10.76 12.29c7.43 0 14.08-3.59 20.1-10.89s9-15.23 9-24.07c0-7-3.46-10.75-9.48-10.75s-14.34 5.63-20.87 15.49l-.51-.26c.64-2.81 2.43-7.68 5.63-14.59s5.76-12 7.68-15.24a3.19 3.19 0 00-2.3-2.69 45.27 45.27 0 01-21.64 0q-1.72 4-.77 5.76c2.56 1.41 8.45 2 15.62.51zm86.42 22.13c-2.43 18.05-3.71 28.55-3.84 31.75h7.55c.13-4.48 1.16-13.83 3.08-28.3s3.45-24.84 4.61-31.37h-7.69zm-41.61 20.61a44.79 44.79 0 01.51-7.68 51.36 51.36 0 019.09-12.68c3.84-3.84 7.17-5.76 10.11-5.76s4.61 2.69 4.61 8.07a30.22 30.22 0 01-8.19 20.36 14.49 14.49 0 01-10.63 4.1c-3.2 0-5.5-2.3-5.5-6.41zm.38-48.53c-.26 1.92-1.67 9.48-4.1 22.8s-3.71 22.15-3.71 26.76c0 7.68 3.33 11.52 10.11 11.52q11.54 0 20.36-10.37a35.3 35.3 0 009-23.69c0-7-3.59-10.75-9.35-10.75-6.15 0-14.21 5.63-20.87 15.49l-.39-.26c4.23-18.82 6.28-29.32 6.41-31.5zm71.96 48.53a45.82 45.82 0 01.51-7.68 50.43 50.43 0 019.22-12.55c3.84-4 7.17-5.89 10.12-5.89s4.61 2.69 4.61 8.07c0 7.3-3.71 15.24-8.2 20.23a14.46 14.46 0 01-9.86 4.23c-4.22 0-6.4-2.18-6.4-6.41m.26-48.53c-.26 1.92-1.67 9.48-4.1 22.8s-3.71 22.15-3.71 26.76c0 7.68 3.45 11.52 10.24 11.52 7.68 0 14.47-3.46 20.49-10.37s9.09-14.85 9.09-23.69c0-7-3.46-10.75-9.48-10.75s-14.34 5.63-21 15.49l-.38-.26c4.23-18.82 6.27-29.32 6.4-31.5zm36.88 57.24q0 3.84 10.75 3.84a25.91 25.91 0 0023.56-14.34c4.48-8.71 6.4-18.18 6.4-28.3 0-13.83-6.78-20.49-18-20.49a26.84 26.84 0 00-15.88 4.87c.26 3.07.9 4.87 1.79 5.25 4.49-2.69 8.33-4 11.53-4 7.55 0 12.8 5.25 12.8 16.14a61.61 61.61 0 01-.25 6.4l-20.62-.77a8.1 8.1 0 00-.51 6l20.62-.39c-1.54 9.86-4.61 16.78-9.22 20.49-2.18 2.18-5.25 3.2-9.48 3.2s-7.94-1-10.63-3.2a6 6 0 00-2.81 5.25m83.3-18.64c0-14.35 4.36-25.87 9.61-31.12a13.43 13.43 0 019.86-3.71c7 0 10.5 5 10.5 17.92a52.49 52.49 0 01-3.08 18.44c-1.92 5.38-4.22 9.22-6.65 11.65-3.21 2.69-6.28 4-9.22 4-7.05 0-11-6.27-11-17.15m21.9-40.85c-14 0-24.2 11.14-27.91 27.53a81.16 81.16 0 01-12.42-.26q1.53-14.79 3.45-25h-8.32q-2.5 29.77-7.68 59.55h8.06c.39-4.36 1.67-14 3.72-28.69a80.05 80.05 0 0112.29-.25 54.15 54.15 0 00-.51 8.32c0 14.21 6 22.92 15.75 22.92q12.09 0 20.74-11.52c5.76-7.69 8.58-18.44 8.58-32.27-.02-11.91-5.4-20.36-15.77-20.36zm59.78 31.85c-13.45 1.41-21.39-3.07-21.39-11.27a14.89 14.89 0 014.87-11 18.82 18.82 0 0111.14-4c4.35 0 7.17.51 8.45 1.67zm4 30c.13-3.72 1-13.32 2.81-29.07s3.08-26.12 3.85-31.12c-3.08-1.41-7.43-2.17-13.06-2.17a29 29 0 00-18.83 6.53c-5.25 4.35-7.94 9.6-7.94 15.75a13.62 13.62 0 0012.3 13.83l.12.64c-7.29 11.26-14.34 19.33-21 24.2.64 1.92 2.18 2.94 4.49 2.94 4.73 0 12.8-9 24.07-26.76h8.58c-1.54 13.32-2.31 21.77-2.31 25.23zM193.12 115.28c-3.42 0-5.47-2.59-5.47-6.66 0-2.77.61-4.72 1.8-5.83a6.55 6.55 0 014.28-.58q.27 5.57 0 13.07zm5.11-13.21c3.06 0 5.22 2.09 5.22 6.51 0 2.78-.72 4.76-2.12 6a7.07 7.07 0 01-2.12.54 5.26 5.26 0 01-1.84-.08q-.27-6.48 0-13a5.78 5.78 0 01.86.03zm-.5 18.65a18.17 18.17 0 01-.22-3.17c5.66 0 10.19-2.34 10.19-9.22 0-5.51-3.24-8.53-8.42-8.53a9.07 9.07 0 00-1.77.18 13.9 13.9 0 01.22-2.63h-4.36a10 10 0 01.22 2.45c-6.37 0-10.19 3-10.19 9.29 0 5.43 3.21 8.46 8.35 8.46a10.94 10.94 0 001.84-.15 18.27 18.27 0 01-.22 3.32zm29.05-.51c-.14-1.91-.21-4.35-.21-7.34v-2.41c0-2.78.07-5.26.21-7.38h-3.6c-.47.9-1.76 2.91-3.92 6s-3.46 5.08-3.93 6h-.21a47.33 47.33 0 00.25-5.51v-2.12a33.66 33.66 0 01.18-4.39h-4.36c.18 2 .26 4.5.26 7.34v1.6c0 3.64-.08 6.34-.26 8.17h3.64c.58-1 1.91-3.06 4-6.12s3.38-5.07 3.89-6h.14c-.11 1.44-.18 3.42-.18 6v1.69a28.52 28.52 0 01-.29 4.43zm8.79-12.67a4 4 0 012.55-2 3.78 3.78 0 011.26-.11c2.34.18 3.71 2.27 3.71 5.91 0 2.77-.61 4.78-1.87 6a5.34 5.34 0 01-3.31.9 4.93 4.93 0 01-2.34-.47zm-4.25-4.28c.21 2 .32 5.61.32 10.72v1.77q0 9-.32 11.45h4.5a49.72 49.72 0 01-.25-5.87v-1a10.54 10.54 0 002.26.25 9.66 9.66 0 006.74-2.56 9.33 9.33 0 002.8-7.2c0-4.75-2.19-7.52-5.65-7.95a6 6 0 00-3.09.82 4.13 4.13 0 00-3.24 1.8l.07-.5v-2.23zm22.57 16.95q-.06-1.35-.07-12.74h.25c.25.72.76 1.87 1.44 3.45l1.22 2.74 1.52 3.38h2.3l1.26-2.7c1.3-2.88 2.27-5.14 2.88-6.8h.31v5.87c0 3.03 0 5.25-.15 6.8H269a124.52 124.52 0 01-.83-13.21l-.07-3.92h-3.85c-.33 1-1.69 4.06-4.11 9.25H260c-1.12-2.27-2.56-5.33-4.32-9.25h-4.07l-.29 6.19c-.32 5.4-.61 9-.86 10.94zm22.36-10.01a8.14 8.14 0 01.43-2.48 6.19 6.19 0 011-2 4.25 4.25 0 012.59-.76 3.29 3.29 0 013.45 3.39 2.53 2.53 0 01-.28 1.26 17.79 17.79 0 01-3.28.39c-1.73.11-3 .18-3.92.18m4.6-7.66a8 8 0 00-6.33 2.66 9.61 9.61 0 00-2.27 6.48c0 5.47 3.1 8.86 8.32 8.86a12.09 12.09 0 004-.65 7.65 7.65 0 002.7-1.51 3.3 3.3 0 00-.62-1.91 8.39 8.39 0 01-4.75 1.29c-3.17 0-5.4-1.76-5.58-5.5l2.67-.18a57.31 57.31 0 008.46-1.16 7.11 7.11 0 00.43-2.26 5.75 5.75 0 00-1.84-4.32 7 7 0 00-5.18-1.78zm25.9 17.69q-.23-3.61-.22-8v-1.15c0-3.67.07-6.34.22-8h-4.39a42.2 42.2 0 01.28 5.25v1.51a41.49 41.49 0 01-7.05 0v-1.33a43.16 43.16 0 01.25-5.43h-4.43c.18 1.65.25 4.32.25 8v1.05c0 3.31-.07 6-.25 8.06h4.43a59.17 59.17 0 01-.25-6.37v-1.4a41.49 41.49 0 017.05 0v1.4c0 2.45-.1 4.57-.28 6.37zm19.94 0q-.21-3.61-.21-8v-1.15c0-3.67.07-6.34.21-8h-4.39a42 42 0 01.29 5.25v1.51a41.61 41.61 0 01-7.06 0v-1.33a43.16 43.16 0 01.25-5.43h-4.42c.18 1.65.25 4.32.25 8v1.05c0 3.31-.07 6-.25 8.06h4.42a59.17 59.17 0 01-.25-6.37v-1.4a41.61 41.61 0 017.06 0v1.4c0 2.45-.11 4.57-.29 6.37zm20.32-8.13c0 2.8-.11 5.5-.29 8.13H351a84.22 84.22 0 01-.26-8.46v-1.55a59.54 59.54 0 01.26-7.12h-4.22c.15 2.59.22 5 .22 7.27zm-6.12 2.41a3.83 3.83 0 01-1.15 3 5.1 5.1 0 01-2.16.5 6.44 6.44 0 01-2.2-.29 33.38 33.38 0 010-6.48c3.41-.87 5.46.5 5.46 3.27zm-9.54-11.41c.18 1.69.25 4.24.25 7.59v1.41a79.78 79.78 0 01-.25 8 33.76 33.76 0 005.54.39c5.3 0 7.74-2.41 7.74-6a5.16 5.16 0 00-2.55-4.86c-1.69-1-3.85-1.16-6.55-.58v-1.8a22 22 0 01.25-4.1zm29.36-7.89a3.8 3.8 0 00-2.7 1.26c.39 2.45 2.44 4.07 5.32 4.07a5.48 5.48 0 003.86-1.33 4.87 4.87 0 001.59-3.19c-.18-.4-1.08-.61-1.66-.5a3.23 3.23 0 01-3.17 2.7q-2.54 0-3.24-3m10.41 25c-.15-1.91-.22-4.35-.22-7.34v-2.41c0-2.78.07-5.26.22-7.38h-3.6c-.47.9-1.77 2.91-3.93 6s-3.45 5.08-3.92 6h-.22a47.33 47.33 0 00.25-5.51v-2.12a35.67 35.67 0 01.18-4.39h-4.35c.18 2 .25 4.5.25 7.34V112c0 3.64-.07 6.34-.25 8.17h3.63c.58-1 1.91-3.06 4-6.12s3.39-5.07 3.89-6h.15c-.11 1.44-.18 3.42-.18 6v1.69a28.52 28.52 0 01-.29 4.43zm-171.62 42.74q-.21-3.62-.21-8v-1.14c0-3.67.07-6.34.21-8h-4.39a42.08 42.08 0 01.29 5.25v1.52a44.57 44.57 0 01-7.06 0v-1.34a42.83 42.83 0 01.26-5.43h-4.43c.18 1.65.25 4.32.25 8v1c0 3.31-.07 6-.25 8.06h4.43a58.59 58.59 0 01-.26-6.37v-1.4a41.61 41.61 0 017.06 0v1.4c0 2.45-.11 4.57-.29 6.37zm7.74-5.11a3.44 3.44 0 01.76-2.12 6.8 6.8 0 013.71-.69 6.64 6.64 0 012 .26v3.27a4.43 4.43 0 01-3.75 2.16 2.62 2.62 0 01-2.7-2.88m10.5-5.83c0-4.75-1.91-6.66-6-6.66a17.27 17.27 0 00-7.67 1.95 3 3 0 00.76 2.16 11.7 11.7 0 015.25-1.48c2.78 0 3.57 1.41 3.53 4.83-7.31.25-10.51 1.72-10.51 5.79a4.59 4.59 0 004.9 4.75 7 7 0 005.72-2.84h.14a21.61 21.61 0 00.26 2.81l3.88-.33a53.56 53.56 0 01-.28-7.38zm7.77 2.16a9.78 9.78 0 01.61-4.1 4.19 4.19 0 013.57-1.7c2.45 0 3.74 2.42 3.74 6.59a8.66 8.66 0 01-1.29 5.15 3.43 3.43 0 01-2.38.86c-2.59 0-4.25-2.52-4.25-6.8m5.29-8.14a7.91 7.91 0 00-6.84 4h-.14a12.06 12.06 0 01.79-4.18 6.4 6.4 0 011.19-1.94 8.06 8.06 0 015.26-2.2c2.84-.18 4.57-.57 5.22-1.22a5.5 5.5 0 000-3.71c-.54.61-2.12 1-4.79 1.3a9.41 9.41 0 00-7.67 4.25 17.25 17.25 0 00-2.52 9.64c0 7.31 3.1 11.38 8.28 11.38a7.34 7.34 0 006-2.59 10.42 10.42 0 002.16-6.81c-.06-5-2.75-7.94-6.94-7.94zm17.82 1.77c3.06 0 4.5 3 4.5 7.16a7.4 7.4 0 01-1.47 5 4.75 4.75 0 01-2.34.72c-3 0-4.83-2.63-4.83-7.34a7.07 7.07 0 011.3-4.68 4 4 0 012.84-.9m.58-2.59a8.53 8.53 0 00-6.34 2.55 9.22 9.22 0 00-2.48 6.73c0 5.37 3.24 8.86 8.46 8.86a7.89 7.89 0 006-2.48 9.43 9.43 0 002.34-6.63c.01-5.54-2.94-8.99-7.98-8.99zm15.84 5.11a4 4 0 012.56-2 3.73 3.73 0 011.26-.11c2.34.18 3.7 2.27 3.7 5.91 0 2.77-.61 4.79-1.87 6a5.27 5.27 0 01-3.31.9 5.06 5.06 0 01-2.34-.46zM260.8 146c.22 2 .33 5.61.33 10.73v1.76c0 6-.11 9.79-.33 11.45h4.5a49.72 49.72 0 01-.25-5.87v-1a10.63 10.63 0 002.27.25 9.59 9.59 0 006.73-2.56 9.33 9.33 0 002.81-7.2c0-4.75-2.2-7.52-5.65-8a5.91 5.91 0 00-3.1.83 4.1 4.1 0 00-3.24 1.8l.07-.51v-2.23zm35.03 16.94c-.14-2.41-.22-5.07-.22-8v-1.14c0-3.67.08-6.34.22-8h-4.39a42.08 42.08 0 01.29 5.25v1.52a44.57 44.57 0 01-7.06 0v-1.34a43.16 43.16 0 01.25-5.43h-4.43c.18 1.65.26 4.32.26 8v1c0 3.31-.08 6-.26 8.06h4.43a59.05 59.05 0 01-.25-6.37v-1.4a41.61 41.61 0 017.06 0v1.4c0 2.45-.11 4.57-.29 6.37zm20.27-8.13c0 2.81-.11 5.51-.29 8.13h4.28c-.18-1.4-.25-4.24-.25-8.46v-1.54a60.49 60.49 0 01.25-7.13h-4.21c.15 2.59.22 5 .22 7.27zm-6.1 2.41a3.83 3.83 0 01-1.15 3 5.1 5.1 0 01-2.16.5 6.44 6.44 0 01-2.2-.29 31.87 31.87 0 010-6.48c3.44-.87 5.51.5 5.51 3.27zm-9.54-11.41c.18 1.69.25 4.25.25 7.59v1.41a79.78 79.78 0 01-.25 8 33.54 33.54 0 005.54.4c5.29 0 7.74-2.42 7.74-6a5.16 5.16 0 00-2.55-4.86c-1.7-1-3.86-1.15-6.56-.58v-1.8a21.88 21.88 0 01.26-4.1zm29.39-7.89a3.84 3.84 0 00-2.74 1.26c.4 2.45 2.45 4.07 5.33 4.07a5.43 5.43 0 003.85-1.33 4.78 4.78 0 001.62-3.17c-.18-.39-1.08-.61-1.65-.5a3.23 3.23 0 01-3.17 2.7q-2.54 0-3.24-3m10.4 25q-.21-2.85-.21-7.34v-2.41c0-2.77.07-5.26.21-7.38h-3.6c-.46.9-1.76 2.91-3.92 6.05a71.14 71.14 0 00-3.92 6h-.22a47.21 47.21 0 00.25-5.51v-2.16a33.77 33.77 0 01.18-4.39h-4.35c.18 2.05.25 4.5.25 7.34v1.62c0 3.64-.07 6.34-.25 8.17h3.63c.58-1 1.91-3.06 4-6.12s3.39-5.07 3.89-6h.14c-.1 1.44-.18 3.42-.18 6v1.7a28.67 28.67 0 01-.28 4.42zm33.23-.01a78.42 78.42 0 01-.25-8.06v-1.44c0-2.52.07-5.08.25-7.63h-4.1a63.38 63.38 0 01.25 6.51v8l-2.56.1a22.41 22.41 0 01-2.55-.1v-8.1a60.08 60.08 0 01.29-6.41h-4.14c.14 1.51.21 3.67.21 6.51v8l-2.52.1a22.41 22.41 0 01-2.55-.1v-8.07a61.53 61.53 0 01.28-6.44H352a74.86 74.86 0 01.26 7.59v1.52c0 3.06-.08 5.72-.26 8zm8.82-12.67a4 4 0 012.56-2 3.76 3.76 0 011.26-.11c2.34.18 3.71 2.27 3.71 5.91 0 2.77-.62 4.79-1.88 6a5.25 5.25 0 01-3.31.9 5.09 5.09 0 01-2.34-.46zm-4.25-4.27c.22 2 .33 5.61.33 10.73v1.76c0 6-.11 9.79-.33 11.45h4.5a49.72 49.72 0 01-.25-5.87v-1a10.7 10.7 0 002.27.25 9.57 9.57 0 006.73-2.56 9.33 9.33 0 002.81-7.2c0-4.75-2.2-7.52-5.65-8a5.93 5.93 0 00-3.1.83 4.1 4.1 0 00-3.24 1.8l.07-.51v-2.23zm35.28 16.94q-.21-2.85-.21-7.34v-2.41c0-2.77.07-5.26.21-7.38h-3.6c-.46.9-1.76 2.91-3.92 6.05a71.14 71.14 0 00-3.92 6h-.22a47.21 47.21 0 00.25-5.51v-2.15a33.77 33.77 0 01.18-4.39h-4.35c.18 2.05.25 4.5.25 7.34v1.62c0 3.64-.07 6.34-.25 8.17h3.63c.58-1 1.91-3.06 4-6.12s3.39-5.07 3.89-6h.14c-.1 1.44-.18 3.42-.18 6v1.7a28.67 28.67 0 01-.28 4.42zm12.14-1.94c-2.56 0-4.36-2.7-4.36-6.84 0-2.77.68-4.71 2.09-5.9a4.5 4.5 0 013.42-.36c.18 5 .21 9.32 0 13a3 3 0 01-1.18.14m6.4-13.17c2.2 0 3.86 2.45 3.86 6.48 0 2.88-.65 4.93-2 6.12a6.55 6.55 0 01-3.63.57c-.11-4.42-.11-8.74 0-13a6.34 6.34 0 011.8-.25zm-1.26 22.14a40.56 40.56 0 01-.25-5.83v-.83c6.09.18 9.47-3.46 9.47-9.54 0-4.61-2.2-7.63-5.69-8.17-.75 0-1.29-.08-1.62-.08a9.62 9.62 0 00-2.16.4v-1.56c0-.54 0-1.33.07-2.37s0-1.95 0-2.74 0-1.33.07-1.62a9.1 9.1 0 00-2.23-.14 10.55 10.55 0 00-2.05.21c.11 1 .18 3.14.18 6.41v1.37a8.87 8.87 0 00-6.81 2.09 8.63 8.63 0 00-2.62 6.77 10 10 0 001.8 6.22 6.86 6.86 0 004.6 2.67 13.07 13.07 0 001.59 0 5.65 5.65 0 001.47-.25v.76c0 2.77-.07 4.82-.21 6.12zm11.05-21.14a25.06 25.06 0 014.18-.29h1.29v3.71a92.47 92.47 0 01-.39 10.65h4.71a95.11 95.11 0 01-.42-10.54v-3.82h1.33a21.51 21.51 0 014.14.29v-3.06h-14.84z" fill="#ea533d"/><path d="M185.59 964.57c3.49-.5 5.22.34 5.22 2.48a3 3 0 01-1.11 2.66 5.28 5.28 0 01-2.35.48 6.2 6.2 0 01-1.76-.19zm0-6.62a5.27 5.27 0 011.59-.14c1.9 0 3.22.86 3.22 2.66a2.65 2.65 0 01-1.92 2.64 8.17 8.17 0 01-2.89.07zm1.66-1.46c-.43 0-1.16 0-2.14.14s-1.57.12-1.73.12c.12 2.35.16 4.56.16 6.6v1.32c0 3 0 5.21-.16 6.55a24.25 24.25 0 003.73.31c3.48 0 5.84-1.44 5.84-4.41a3.27 3.27 0 00-3-3.34v-.12a3.34 3.34 0 002.53-3.33c-.01-2.6-1.67-3.84-5.23-3.84zm20.14 3.51c-.51.67-1.16 1.53-2.12 2.71s-1.8 2-2.07 2h-.5v-1.11c0-1.58.05-2.8.14-3.64h-2.31c.12 1.46.17 3.16.17 5.13v.84c0 2.14 0 3.91-.17 5.33h2.31c-.09-.94-.14-2.47-.14-4.58v-1h.5c.27 0 .68.48 1.21 1.39.36.55 1 1.58 1.66 2.45l.31.41a9.41 9.41 0 001.39 1.6 5.29 5.29 0 002.17-.33 33.47 33.47 0 01-3.54-4.47l-1.25-1.73c.39-.39 1.18-1.23 2.36-2.55s2-2.13 2.26-2.44zm6.06 8a2.25 2.25 0 01.58-1.52 5.23 5.23 0 012.91-.57 7.87 7.87 0 011.37.19v2.35a3.4 3.4 0 01-2.86 1.59 1.93 1.93 0 01-2-2m6.91-4c0-3.14-1.18-4.34-3.66-4.34a10.88 10.88 0 00-4.71 1.25 1.53 1.53 0 00.43 1.2 7.16 7.16 0 013.44-1c1.92 0 2.45 1 2.43 3.57-4.91.08-6.93 1.08-6.93 3.75a3 3 0 003.15 3 4.78 4.78 0 003.83-1.9h.07a14.33 14.33 0 00.17 1.87l1.95-.19a35.68 35.68 0 01-.17-4.82zM223 960a21.45 21.45 0 01.14 2.88v1c0 2.52 1.25 3.53 3.46 3.53a6.79 6.79 0 003.18-.86v1.32a16.34 16.34 0 01-.22 3.38H232c-.12-1.13-.17-2.86-.17-5.18V965c0-2.14.05-3.82.17-5.06h-2.34a29.76 29.76 0 01.17 3.48v2a5 5 0 01-2.43.52c-1.61 0-2.21-.76-2.21-2.61 0-1.06 0-2.21.17-3.43zm13.77 4.67a5.1 5.1 0 01.36-1.73 4 4 0 01.77-1.39 3.65 3.65 0 012-.55 2.69 2.69 0 011.86.69 2.32 2.32 0 01.74 1.8 1.2 1.2 0 01-.17.72 12.71 12.71 0 01-2.52.32c-1.38.09-2.39.14-3 .14m3.44-5a4.91 4.91 0 00-4 1.76 6.42 6.42 0 00-1.45 4.22c0 3.62 1.95 5.86 5.25 5.86a6.71 6.71 0 004.19-1.37 1.41 1.41 0 00-.39-1 5.2 5.2 0 01-3.13.86c-2.28 0-3.8-1.29-3.9-4.1l1.76-.14a35 35 0 005.8-.77 4.24 4.24 0 00.24-1.42 3.78 3.78 0 00-1.13-2.71 4.22 4.22 0 00-3.28-1.21zm11.82-.02a5.31 5.31 0 00-3.9 1.66 6 6 0 00-1.58 4.3 6.26 6.26 0 001.44 4.32 5 5 0 003.85 1.6 6.28 6.28 0 003.63-1.08 1.46 1.46 0 00-.29-1 5.15 5.15 0 01-2.4.63c-2.5 0-4.12-2-4.12-5a4.44 4.44 0 011.21-3.31 2.7 2.7 0 011.87-.58 4.13 4.13 0 012.79.94 2.6 2.6 0 00.85-1.47 4.79 4.79 0 00-3.35-1m4.57 1.96a20.73 20.73 0 012.79-.14h1v2.69a66.77 66.77 0 01-.22 7.1h2.43c-.12-1.18-.19-3.53-.19-7v-2.76h1a18 18 0 012.77.14V960h-9.51zm13.74 4.38a14.1 14.1 0 012-.09c1.54 0 2.74.57 2.74 2a2.17 2.17 0 01-.94 2 5.49 5.49 0 01-2.16.29 4.75 4.75 0 01-1.62-.19zm0-4.84a6.4 6.4 0 011.69-.2c1.73 0 2.6.63 2.6 1.88a2 2 0 01-1.76 1.89 12.09 12.09 0 01-2.53 0zm1.83-1.49a28.51 28.51 0 00-4 .29c.12 1.32.17 2.92.17 4.8v.93c0 2.23-.05 4.11-.17 5.57a19.2 19.2 0 003.51.26c3.3 0 5.41-1.27 5.41-3.55a2.6 2.6 0 00-2.52-2.76v-.12a2.78 2.78 0 002.07-2.61c.01-1.87-1.48-2.8-4.47-2.8zm9.27 5a5.1 5.1 0 01.36-1.73 3.86 3.86 0 01.77-1.39 3.6 3.6 0 012-.55 2.65 2.65 0 011.85.69 2.3 2.3 0 01.75 1.8 1.2 1.2 0 01-.17.72 12.74 12.74 0 01-2.53.32c-1.37.09-2.38.14-3 .14m3.44-5a4.93 4.93 0 00-4.05 1.76 6.41 6.41 0 00-1.44 4.22c0 3.62 1.95 5.86 5.25 5.86a6.66 6.66 0 004.18-1.37 1.45 1.45 0 00-.38-1 5.22 5.22 0 01-3.13.86c-2.29 0-3.8-1.29-3.9-4.1l1.76-.14A35.09 35.09 0 00289 965a4.24 4.24 0 00.24-1.42 3.82 3.82 0 00-1.13-2.71 4.22 4.22 0 00-3.19-1.22zm21.24 11.6c-.1-1.61-.15-3.36-.15-5.23v-.77c0-2.42 0-4.2.15-5.3h-2.29a27 27 0 01.17 3.6v1a35 35 0 01-5.29 0v-.86a32.56 32.56 0 01.14-3.74h-2.31c.12 1.1.17 2.88.17 5.32v.7c0 2.14 0 3.91-.17 5.28h2.31c-.1-.89-.14-2.35-.14-4.34V966a35 35 0 015.29 0v.94a40.7 40.7 0 01-.17 4.34zm4.86-3.27a2.21 2.21 0 01.58-1.52 5.21 5.21 0 012.91-.57 7.87 7.87 0 011.37.19v2.35a3.43 3.43 0 01-2.86 1.59 1.93 1.93 0 01-2-2m6.9-4c0-3.14-1.18-4.34-3.65-4.34a10.92 10.92 0 00-4.72 1.25 1.53 1.53 0 00.43 1.2 7.19 7.19 0 013.44-1c1.93 0 2.46 1 2.43 3.57-4.9.08-6.93 1.08-6.93 3.75a3 3 0 003.16 3 4.76 4.76 0 003.82-1.9h.07a14.33 14.33 0 00.17 1.87l1.95-.19a35.68 35.68 0 01-.17-4.82zm4.82 1.3a5.83 5.83 0 01.45-2.71 3.33 3.33 0 012.82-1.37c1.76 0 2.81 1.73 2.81 4.61a5.41 5.41 0 01-1 3.65 2.52 2.52 0 01-1.83.67c-1.92 0-3.22-1.85-3.22-4.85m3.75-5.4a4.88 4.88 0 00-4.43 2.69H322a8.34 8.34 0 01.6-3.1 4.43 4.43 0 01.84-1.36 5.47 5.47 0 013.57-1.56c1.73-.17 2.76-.46 3.12-.87a3 3 0 00-.07-1.92c-.34.41-1.35.72-3 .91a6.08 6.08 0 00-4.91 2.86 12.56 12.56 0 00-1.51 6.5c0 4.78 1.92 7.44 5.2 7.44a4.53 4.53 0 003.77-1.72 7.21 7.21 0 001.38-4.59c.01-3.33-1.75-5.28-4.47-5.28zm11.71 1.06c2.29 0 3.39 2 3.39 4.85a4.92 4.92 0 01-1.2 3.69 3.12 3.12 0 01-1.71.55c-2.21 0-3.61-1.82-3.61-5a4.82 4.82 0 011.06-3.43 2.78 2.78 0 012.07-.67m.39-1.44a5.21 5.21 0 00-4 1.7 7 7 0 00-.15 8.67 5.41 5.41 0 007.73 0 6.39 6.39 0 001.49-4.35c-.02-3.68-1.87-6.01-5.07-6.01zm9.98 3.34a3.32 3.32 0 011.88-1.53 3.46 3.46 0 01.91-.1c1.76.07 2.8 1.49 2.8 4.11a5.33 5.33 0 01-1.4 4.12 4.07 4.07 0 01-2.53.7 4.33 4.33 0 01-1.66-.29zm-2.19-2.8c.12 1.36.2 3.69.2 7v1.17c0 4-.08 6.53-.2 7.64h2.34c-.1-.94-.15-2.24-.15-3.92v-.67a7.35 7.35 0 001.54.19 6.3 6.3 0 004.41-1.7 6.22 6.22 0 001.82-4.75c0-3-1.32-4.8-3.51-5.19a4.54 4.54 0 00-1.66.29 3.48 3.48 0 00-2.67 1.51v-1.87zm22.26 11.18c-.1-1.61-.14-3.36-.14-5.23v-.77c0-2.42 0-4.2.14-5.3h-2.29a25.34 25.34 0 01.17 3.6v1a35 35 0 01-5.29 0v-.86a35.1 35.1 0 01.14-3.74h-2.31c.12 1.1.17 2.88.17 5.32v.7c0 2.14-.05 3.91-.17 5.28h2.31c-.09-.89-.14-2.35-.14-4.34V966a35 35 0 015.29 0v.94a38.19 38.19 0 01-.17 4.34zm7.97-10.27c2.28 0 3.39 2 3.39 4.85a4.92 4.92 0 01-1.21 3.69 3.11 3.11 0 01-1.7.55c-2.22 0-3.61-1.82-3.61-5a4.82 4.82 0 011.06-3.43 2.76 2.76 0 012.07-.67m.38-1.44a5.22 5.22 0 00-4 1.7 6.31 6.31 0 00-1.56 4.44 6.2 6.2 0 001.42 4.23 5.4 5.4 0 007.72 0 6.35 6.35 0 001.49-4.35c-.02-3.68-1.87-6.01-5.07-6.01zm10.18 11.72c-.12-1.18-.19-3.46-.19-6.82v-3h1.54a30.47 30.47 0 013.32.14V960h-7c.12 1.27.17 2.71.17 4.32v1.08c0 2.37-.05 4.32-.17 5.88zM398.44 961c2.29 0 3.39 2 3.39 4.85a5 5 0 01-1.2 3.69 3.12 3.12 0 01-1.71.55c-2.21 0-3.61-1.82-3.61-5a4.82 4.82 0 011.06-3.43 2.78 2.78 0 012.07-.67m.39-1.44a5.21 5.21 0 00-4 1.7 7 7 0 00-.15 8.67 5.41 5.41 0 007.73 0 6.39 6.39 0 001.49-4.35c-.02-3.68-1.9-6.01-5.07-6.01zM425 971.27c-.1-1-.15-2.76-.15-5.38v-1c0-1.84.05-3.5.15-5h-2.17c.1 1.1.15 2.52.15 4.22v5.64l-1.93.07a16.44 16.44 0 01-1.92-.07v-5.71a39.76 39.76 0 01.16-4.15h-2.18c.07 1 .12 2.42.12 4.22v5.64l-1.93.07a16.37 16.37 0 01-1.9-.07v-5.69c0-1.68.05-3.07.14-4.17h-2.19a48.24 48.24 0 01.17 4.94v1c0 2-.05 3.81-.17 5.35zm5.56-8.38a3.35 3.35 0 011.88-1.53 3.49 3.49 0 01.92-.1c1.75.07 2.79 1.49 2.79 4.11a5.33 5.33 0 01-1.4 4.12 4.07 4.07 0 01-2.53.7 4.33 4.33 0 01-1.66-.29zm-2.19-2.8c.12 1.36.2 3.69.2 7v1.17c0 4-.08 6.53-.2 7.64h2.34c-.1-.94-.15-2.24-.15-3.92v-.67a7.35 7.35 0 001.54.19 6.3 6.3 0 004.41-1.7 6.22 6.22 0 001.83-4.75c0-3-1.33-4.8-3.52-5.19a4.54 4.54 0 00-1.66.29 3.49 3.49 0 00-2.67 1.51v-1.87zm22.38 11.18c-.07-1.3-.12-2.88-.12-4.75v-1.61c0-1.75.05-3.41.12-4.94H449c-.31.6-1.3 2-2.91 4.32s-2.55 3.67-2.86 4.2h-.12c.09-.84.14-2.14.14-3.94v-1.66a23 23 0 01.12-2.92h-2.29c.13 1.41.17 3.07.17 4.92v1c0 2.38 0 4.18-.17 5.38h1.86c.43-.74 1.42-2.23 3-4.42s2.48-3.57 2.79-4.12h.07c-.07.81-.1 2.23-.1 4.24v1.35a19.69 19.69 0 01-.16 2.95zm8.25-1.08a2.9 2.9 0 01-2.4-1.3 5.57 5.57 0 01-1-3.43 4.82 4.82 0 011.66-4.1 4.4 4.4 0 012.55-.31c.07 4.24.1 7.27 0 9.07a3.21 3.21 0 01-.84.07m3.85-9.19c1.64 0 3 1.7 3 4.51 0 2-.51 3.36-1.5 4.18a4.92 4.92 0 01-2.74.5c-.07-3.1-.07-6.12 0-9.1a5 5 0 011.25-.09zm-1 14.93a27.88 27.88 0 01-.19-3.89v-.58a5.5 5.5 0 004.59-1.56 6.65 6.65 0 001.61-4.75c0-2.88-1.37-4.92-3.56-5.38a5.12 5.12 0 00-1.08-.07 6.24 6.24 0 00-1.56.24v-1.05c.05-2.72.07-4.2.1-4.47a4 4 0 00-1.13-.07 4.75 4.75 0 00-1.09.12c.08.67.1 2.09.1 4.25v1a5.47 5.47 0 00-4.38 1.39 5.68 5.68 0 00-1.76 4.44c0 3.33 1.71 5.49 4.14 5.9a5.6 5.6 0 001 0 4 4 0 001-.14v.5a39.14 39.14 0 01-.15 4.06zm7.46-14.31a20.63 20.63 0 012.79-.14h1v2.69a70.94 70.94 0 01-.21 7.1h2.43c-.12-1.18-.2-3.53-.2-7v-2.76h1a17.8 17.8 0 012.76.14V960h-9.5zm12.99 6.38a2.25 2.25 0 01.58-1.52 5.23 5.23 0 012.91-.57 7.87 7.87 0 011.37.19v2.35a3.4 3.4 0 01-2.86 1.59 1.93 1.93 0 01-2-2m6.91-4c0-3.14-1.18-4.34-3.66-4.34a10.88 10.88 0 00-4.71 1.25 1.53 1.53 0 00.43 1.2 7.16 7.16 0 013.44-1c1.92 0 2.45 1 2.43 3.57-4.91.08-6.93 1.08-6.93 3.75a3 3 0 003.15 3 4.78 4.78 0 003.83-1.9h.07a14.33 14.33 0 00.17 1.87l2-.19a35.68 35.68 0 01-.17-4.82zm9.55 7.23c-.07-2.64-.05-5.57.1-8.78h.17c.17.48.5 1.24 1 2.32l.89 1.88 1.11 2.47h1.13l.93-1.9c.9-1.89 1.62-3.45 2.12-4.73h.15v4.06c0 2.35.05 3.89 0 4.68h2.19c-.26-2-.43-4.87-.55-8.64l-.05-2.66H506q-.5 1.32-3 6.57h-.09c-.73-1.37-1.78-3.57-3.16-6.57h-2l-.19 4c-.2 3.33-.39 5.76-.56 7.27zm22.84-5.42c0 2.08-.05 3.88-.17 5.42h2.24c-.1-1-.15-2.88-.15-5.64v-1c0-2.23 0-3.77.15-4.63h-2.19c.07 1.44.12 3 .12 4.72zm-3.71 1.65a2.63 2.63 0 01-.87 2.14 3.54 3.54 0 01-1.58.41 4.25 4.25 0 01-1.64-.22 30.18 30.18 0 010-4.66c2.48-.6 4.09.32 4.09 2.33zm-6.18-7.5a43.86 43.86 0 01.17 4.8v.93c0 2.62-.05 4.44-.17 5.45a18 18 0 003.27.26c3.25 0 4.84-1.63 4.84-3.91a3.36 3.36 0 00-1.66-3.17 5.9 5.9 0 00-4.29-.38v-1.3A15.51 15.51 0 01514 960zm29.47 11.27c-.09-1.37-.14-3.19-.14-5.5v-.88c0-.72 0-2.36.14-4.92h-9.43c.12 1.77.17 3.4.17 4.89v1c0 1.61 0 3.39-.17 5.38H534c-.1-1.42-.14-3.58-.14-6.53v-3.33a18.92 18.92 0 012.55-.1 20.19 20.19 0 012.6.1v3.26c0 3-.08 5.18-.2 6.6zm7.94-10.27c2.29 0 3.4 2 3.4 4.85a4.92 4.92 0 01-1.21 3.69 3.12 3.12 0 01-1.71.55c-2.21 0-3.61-1.82-3.61-5a4.87 4.87 0 011.06-3.43 2.78 2.78 0 012.07-.67m.39-1.44a5.21 5.21 0 00-4 1.7 6.26 6.26 0 00-1.56 4.44 6.2 6.2 0 001.42 4.23 4.85 4.85 0 003.89 1.6 4.91 4.91 0 003.83-1.65 6.35 6.35 0 001.49-4.35c-.02-3.63-1.87-5.96-5.07-5.96zm10.8 1.86a7.58 7.58 0 011.66-.1 7.91 7.91 0 011.69.1v8.42h-5.1c1-1.06 1.73-4.18 1.75-8.42m-3 12.72v-2.86h8.26v2.86h1.73v-4.3h-1.52c-.07-.77-.12-2.23-.12-4.39v-.77c0-1.94 0-3.53.15-4.7h-7.39a17.86 17.86 0 01.15 2.4 18.4 18.4 0 01-.68 5c-.43 1.63-1 2.45-1.56 2.45h-.75v4.3zM574.05 961c2.28 0 3.39 2 3.39 4.85a4.92 4.92 0 01-1.21 3.69 3.11 3.11 0 01-1.7.55c-2.22 0-3.61-1.82-3.61-5a4.82 4.82 0 011.06-3.43 2.76 2.76 0 012.07-.67m.38-1.44a5.22 5.22 0 00-4 1.7 6.31 6.31 0 00-1.56 4.44 6.2 6.2 0 001.42 4.23 5.4 5.4 0 007.72 0 6.35 6.35 0 001.49-4.35c-.02-3.68-1.87-6.01-5.07-6.01zm9.29 5.79a5.68 5.68 0 01.46-2.71 3.3 3.3 0 012.81-1.37c1.76 0 2.82 1.73 2.82 4.61a5.41 5.41 0 01-1 3.65 2.52 2.52 0 01-1.83.67c-1.92 0-3.22-1.85-3.22-4.85m3.75-5.4a4.88 4.88 0 00-4.43 2.69H583a8.55 8.55 0 01.6-3.1 4.26 4.26 0 01.85-1.36 5.41 5.41 0 013.56-1.56c1.73-.17 2.76-.46 3.13-.87a3.08 3.08 0 00-.08-1.92c-.33.41-1.34.72-3 .91a6 6 0 00-4.91 2.86 12.56 12.56 0 00-1.52 6.5c0 4.78 1.93 7.44 5.2 7.44a4.56 4.56 0 003.78-1.72 7.27 7.27 0 001.37-4.59c.02-3.33-1.79-5.28-4.51-5.28zm9.35 2.95a3.3 3.3 0 011.87-1.53 3.49 3.49 0 01.92-.1c1.75.07 2.79 1.49 2.79 4.11a5.33 5.33 0 01-1.4 4.12 4.06 4.06 0 01-2.52.7 4.29 4.29 0 01-1.66-.29zm-2.19-2.8c.12 1.36.19 3.69.19 7v1.17c0 4-.07 6.53-.19 7.64H597c-.1-.94-.14-2.24-.14-3.92v-.67a7.19 7.19 0 001.54.19 6.29 6.29 0 004.4-1.7 6.19 6.19 0 001.83-4.75c0-3-1.33-4.8-3.52-5.19a4.58 4.58 0 00-1.66.29 3.49 3.49 0 00-2.67 1.51v-1.87zm14.1 7.91a2.25 2.25 0 01.57-1.52 5.27 5.27 0 012.92-.57 7.87 7.87 0 011.37.19v2.35a3.43 3.43 0 01-2.87 1.59 1.93 1.93 0 01-2-2m6.9-4c0-3.14-1.18-4.34-3.65-4.34a10.92 10.92 0 00-4.72 1.25 1.53 1.53 0 00.43 1.2 7.16 7.16 0 013.44-1c1.93 0 2.46 1 2.43 3.57-4.91.08-6.93 1.08-6.93 3.75a3 3 0 003.16 3 4.77 4.77 0 003.82-1.9h.07a14.33 14.33 0 00.17 1.87l2-.19a35.68 35.68 0 01-.17-4.82zm12.4 7.23c-.07-1.1-.12-2.93-.12-5.47v-.89c0-2.33 0-4 .12-4.94h-7.65a12.31 12.31 0 01.2 2.37v.66c0 4.82-.82 6.84-2.53 6.58a3 3 0 000 1.92c3.08.45 4.28-2.45 4.28-8.33v-1.75h3.56v5a42.63 42.63 0 01-.2 4.9zm12.85 0c-.07-1.3-.12-2.88-.12-4.75v-1.61c0-1.75.05-3.41.12-4.94h-1.78c-.31.6-1.3 2-2.91 4.32s-2.55 3.67-2.86 4.2h-.12c.09-.84.14-2.14.14-3.94v-1.66a23 23 0 01.12-2.92h-2.28c.12 1.41.17 3.07.17 4.92v1c0 2.38 0 4.18-.17 5.38h1.85c.43-.74 1.42-2.23 3-4.42s2.48-3.57 2.79-4.12h.07c-.07.81-.09 2.23-.09 4.24v1.35a19.49 19.49 0 01-.17 2.95zM197 999.35c-.1-1-.15-2.76-.15-5.38v-1c0-1.84 0-3.5.15-5h-2.17c.1 1.1.15 2.52.15 4.22v5.64L193 998a16.44 16.44 0 01-1.92-.07v-5.73a39.76 39.76 0 01.16-4.15h-2.19c.08 1 .12 2.42.12 4.22v5.64l-1.92.07a16.37 16.37 0 01-1.9-.07v-5.69c0-1.68.05-3.07.14-4.17h-2.19a48.24 48.24 0 01.17 4.94v1c0 2-.05 3.81-.17 5.35zm5.55-8.35a3.32 3.32 0 011.88-1.53 3.46 3.46 0 01.91-.1c1.76.07 2.8 1.49 2.8 4.11a5.33 5.33 0 01-1.4 4.12 4.07 4.07 0 01-2.53.7 4.33 4.33 0 01-1.66-.29zm-2.19-2.8c.12 1.36.2 3.69.2 7v1.17c0 4-.08 6.53-.2 7.64h2.34c-.1-.94-.15-2.24-.15-3.92v-.67a7.35 7.35 0 001.54.19 6.3 6.3 0 004.41-1.7 6.22 6.22 0 001.83-4.75c0-3-1.33-4.8-3.52-5.19a4.54 4.54 0 00-1.66.29 3.49 3.49 0 00-2.67 1.51v-1.87zm22.38 11.15c-.07-1.3-.12-2.88-.12-4.75V993c0-1.75 0-3.41.12-4.94H221c-.31.6-1.3 2-2.91 4.32s-2.55 3.67-2.86 4.2h-.12c.09-.84.14-2.14.14-3.94V991a23 23 0 01.12-2.92H213c.12 1.41.17 3.07.17 4.92v1c0 2.38-.05 4.18-.17 5.38h1.86c.43-.74 1.42-2.23 3-4.42s2.48-3.57 2.79-4.12h.07c-.07.81-.1 2.23-.1 4.24v1.35a19.69 19.69 0 01-.16 3zm8.26-1.08a2.93 2.93 0 01-2.41-1.3 5.56 5.56 0 01-1-3.43 4.82 4.82 0 011.66-4.1 4.4 4.4 0 012.55-.31c.07 4.24.09 7.27 0 9.07a3.26 3.26 0 01-.84.07m3.85-9.19c1.64 0 3 1.7 3 4.51 0 2-.5 3.36-1.49 4.18a4.92 4.92 0 01-2.74.5c-.07-3.1-.07-6.12 0-9.1a5 5 0 011.24-.09zm-1 14.93a27.88 27.88 0 01-.19-3.89v-.58a5.5 5.5 0 004.59-1.56 6.65 6.65 0 001.61-4.75c0-2.88-1.37-4.92-3.56-5.38a5.12 5.12 0 00-1.08-.07 6.24 6.24 0 00-1.56.24v-1c.05-2.72.07-4.2.1-4.47a4.08 4.08 0 00-1.14-.07 4.73 4.73 0 00-1.08.12c.07.67.1 2.09.1 4.25v1a5.47 5.47 0 00-4.38 1.39 5.68 5.68 0 00-1.76 4.44c0 3.33 1.71 5.49 4.14 5.9a5.6 5.6 0 001 .05 4 4 0 001-.14v.5a39.14 39.14 0 01-.15 4.06zm7.46-14.31a20.63 20.63 0 012.79-.14h1v2.69a70.94 70.94 0 01-.21 7.1h2.43c-.12-1.18-.2-3.53-.2-7v-2.76h1a17.8 17.8 0 012.76.14v-1.65h-9.5zm25.07 7.85a46.47 46.47 0 01-4.93.17H260v-6.48c0-3 0-5.09.17-6.41h-2.63c.12 1 .17 3.1.17 6.26v.8c0 4-.05 6.48-.17 7.46h8.76zm2.89-4.8a5.1 5.1 0 01.36-1.73 4 4 0 01.77-1.39 3.65 3.65 0 012-.55 2.69 2.69 0 011.86.69 2.32 2.32 0 01.74 1.8 1.2 1.2 0 01-.17.72 12.71 12.71 0 01-2.52.32c-1.38.09-2.39.14-3 .14m3.44-5a4.91 4.91 0 00-4 1.76 6.36 6.36 0 00-1.45 4.22c0 3.62 1.95 5.86 5.25 5.86a6.71 6.71 0 004.19-1.37 1.41 1.41 0 00-.39-1 5.2 5.2 0 01-3.13.86c-2.28 0-3.8-1.29-3.9-4.1l1.76-.14a35 35 0 005.8-.77 4.24 4.24 0 00.24-1.42 3.78 3.78 0 00-1.13-2.71 4.22 4.22 0 00-3.28-1.21zm9.13 3.44c0-2.76.05-5.66.12-8.71a4.35 4.35 0 00-2.22.07c.12 2.52.17 5.33.17 8.4v1.2c0 2.93 0 5.33-.09 7.2H282c-.09-.89-.14-2.33-.14-4.32v-1.46h.57c.37 0 .82.72 2 2.61.6.94 1.18 1.78 1.73 2.52.41.58.8.87 1.16.89l.77-.05a3.77 3.77 0 001.11-.29 10.14 10.14 0 01-1.13-1.24l-1.21-1.64-1.35-1.94-1.08-1.58c1.61-1.76 3-3.34 4.09-4.8a4.81 4.81 0 00-2.21 0 15.59 15.59 0 01-1.93 2.68c-1 1.25-1.63 1.88-1.85 1.88h-.67zm16.22-2.62c0-.38-1.38-.84-3.11-.84-2.38 0-3.8 1.23-3.8 2.88 0 3.22 5.17 3.39 5.17 5.93 0 1.08-.62 1.63-1.87 1.63a3.28 3.28 0 01-2.82-1.34 1.67 1.67 0 00-.72 1.37 4.56 4.56 0 003.44 1.41 4.48 4.48 0 002.89-.91 2.83 2.83 0 001.15-2.33c0-2-1.87-3-3.37-3.84-1-.57-1.8-1.22-1.8-2 0-.93.65-1.39 1.92-1.39a3.55 3.55 0 012.31.67 2.17 2.17 0 00.61-1.25m4.66 7.53a2.25 2.25 0 01.58-1.52 5.23 5.23 0 012.91-.57 7.87 7.87 0 011.37.19v2.35a3.4 3.4 0 01-2.86 1.59 1.93 1.93 0 01-2-2m6.91-4c0-3.14-1.18-4.34-3.66-4.34a10.88 10.88 0 00-4.71 1.25 1.53 1.53 0 00.43 1.2 7.16 7.16 0 013.44-1c1.92 0 2.45 1 2.43 3.57-4.91.08-6.93 1.08-6.93 3.75a3 3 0 003.15 3.05 4.78 4.78 0 003.83-1.9h.07a14.33 14.33 0 00.17 1.87l1.95-.19a35.68 35.68 0 01-.17-4.82zm15.81-6.89a9 9 0 00-3.64-.67 5 5 0 00-3 .88 3.14 3.14 0 00-1.37 2.45 3.22 3.22 0 00.12 1.23c.5 1.8 2.65 3 4.16 4.08a3.68 3.68 0 011.88 2.8c0 1.47-1 2.12-2.55 2.12a4.44 4.44 0 01-3-1.37 1.76 1.76 0 00-.92 1.39 5.71 5.71 0 004.07 1.46 5.11 5.11 0 003.32-1.08 3.56 3.56 0 001.32-2.88c0-4.24-6.21-4.77-6.21-7.72 0-1.23.68-1.85 2.41-1.85a5.22 5.22 0 012.91.79 3.72 3.72 0 00.51-1.63m4.68 10.85a2.21 2.21 0 01.58-1.52 5.21 5.21 0 012.91-.57 7.87 7.87 0 011.37.19v2.35a3.41 3.41 0 01-2.86 1.59 1.93 1.93 0 01-2-2m6.9-4c0-3.14-1.17-4.34-3.65-4.34a10.92 10.92 0 00-4.72 1.25 1.57 1.57 0 00.43 1.2 7.2 7.2 0 013.45-1c1.92 0 2.45 1 2.43 3.57-4.91.08-6.93 1.08-6.93 3.75a3 3 0 003.15 3.05 4.76 4.76 0 003.82-1.9h.08a13.19 13.19 0 00.16 1.87l1.95-.19a35.68 35.68 0 01-.17-4.82zm13.21 7.22c-.09-.65-.14-2.47-.14-5.42v-1.61c0-3.17-1-4.68-3.37-4.68a5.36 5.36 0 00-4 1.94h-.1c0-.74.05-1.32.05-1.75l-2.19.26a45.26 45.26 0 01.22 5v.52c0 2.57-.05 4.49-.17 5.74h2.33c-.12-2.18-.16-4.39-.16-6.62V991a4.07 4.07 0 013.17-1.8c1.73 0 2.26 1.1 2.26 4.2v1.06a35.69 35.69 0 01-.19 4.94zm10.04-10.78c0-.38-1.37-.84-3.11-.84-2.38 0-3.8 1.23-3.8 2.88 0 3.22 5.18 3.39 5.18 5.93 0 1.08-.63 1.63-1.88 1.63a3.28 3.28 0 01-2.82-1.34 1.73 1.73 0 00-.72 1.37 4.59 4.59 0 003.44 1.41 4.48 4.48 0 002.89-.91 2.84 2.84 0 001.16-2.33c0-2-1.88-3-3.37-3.84-1-.57-1.81-1.22-1.81-2 0-.93.65-1.39 1.93-1.39a3.59 3.59 0 012.31.67 2.16 2.16 0 00.6-1.25m2.86 9.64a1.3 1.3 0 001.35 1.32 1.33 1.33 0 001.44-1.32 1.4 1.4 0 00-1.44-1.35 1.34 1.34 0 00-1.35 1.35"/></g></svg>