<svg data-name="Layer 1" xmlns="http://www.w3.org/2000/svg" viewBox="0 0 1920 1080"><defs><clipPath id="a"><path fill="none" d="M0 0h1920v1080H0z"/></clipPath></defs><g clip-path="url(#a)"><path fill="#d6e2d4" d="M0 0h1920v1080H0z"/><path d="M1139.83 524.76h6.09V537h-6.09zm18.29 18.29h18.28v-36.58h-67.05v67.06h30.48v-18.29h6.09v18.29h30.48v-24.39h-18.28zm-54.87 30.48v-67.06h-30.48v36.58h-6.09v-36.58h-30.48v67.06zm-103.63-30.48h12.19v6.09h-18.28v-18.28h36.57v-24.39h-67v67.06h67V537h-30.48zM920.38 537h-6.1v36.58H889.9v-67.11h36.57v36.58h6.1v-36.58H957v67.06h-36.62zm-36.58 36.53v-67.06h-30.48v36.58h-6.09v-36.58h-30.48v67.06zM792.36 537h18.29v-30.53h-30.48v18.29h-6.09v-18.29H743.6v67.06h30.48v-18.29h6.09v18.29h30.48v-30.48h-18.29zm310.89-36.57h79.25v79.24h-445v-79.29h365.75z" fill="#ea533d" fill-rule="evenodd"/><path d="M198 941.37c-.12-1.56-.17-3.84-.17-6.79v-.8c0-3.5.05-5.8.15-6.93h-2.43c.1 1.2.14 3.31.14 6.33-.47 0-1.6.05-3.36.05s-2.88 0-3.36-.05q0-4.42.15-6.33h-2.45c.12 1.27.17 3.62.17 7v.75c0 3.05-.05 5.3-.17 6.72h2.45c-.1-1.42-.15-3.65-.15-6.75h6.72c0 3.1 0 5.33-.14 6.75zm4.78-3.27a2.23 2.23 0 01.58-1.51 5.19 5.19 0 012.9-.57 7.75 7.75 0 011.37.19v2.35a3.4 3.4 0 01-2.85 1.58 1.93 1.93 0 01-2-2m6.89-4c0-3.14-1.18-4.34-3.65-4.34a10.85 10.85 0 00-4.7 1.24 1.5 1.5 0 00.43 1.2 7.25 7.25 0 013.43-1c1.92 0 2.45 1 2.43 3.57-4.9.07-6.91 1.08-6.91 3.75a3 3 0 003.14 3 4.77 4.77 0 003.82-1.89h.07a11.53 11.53 0 00.17 1.87l1.94-.19a35.77 35.77 0 01-.17-4.83zm4.8 1.3a5.81 5.81 0 01.46-2.71 3.29 3.29 0 012.81-1.37c1.75 0 2.8 1.73 2.8 4.61a5.43 5.43 0 01-1 3.65 2.51 2.51 0 01-1.82.67c-1.92 0-3.22-1.85-3.22-4.85m3.74-5.4a4.85 4.85 0 00-4.41 2.69h-.07a8.34 8.34 0 01.6-3.1 4.13 4.13 0 01.84-1.37 5.51 5.51 0 013.55-1.56c1.73-.16 2.76-.45 3.12-.86a3.15 3.15 0 00-.07-1.92c-.34.41-1.35.72-3 .91a6 6 0 00-4.9 2.86 12.56 12.56 0 00-1.51 6.5c0 4.78 1.92 7.44 5.18 7.44a4.51 4.51 0 003.77-1.73 7.22 7.22 0 001.37-4.58c-.03-3.32-1.78-5.32-4.5-5.32zm11.69 1.06c2.28 0 3.38 2 3.38 4.84a5 5 0 01-1.2 3.7 3.11 3.11 0 01-1.7.55c-2.21 0-3.6-1.82-3.6-5a4.87 4.87 0 011.05-3.43 2.78 2.78 0 012.07-.67m.38-1.44a5.21 5.21 0 00-4 1.7 6.31 6.31 0 00-1.56 4.44 6.17 6.17 0 001.42 4.22 5.36 5.36 0 007.7 0 6.35 6.35 0 001.49-4.35c-.01-3.66-1.86-6-5.05-6zm9.96 3.35a3.34 3.34 0 011.87-1.53 3.11 3.11 0 01.92-.1c1.75.07 2.78 1.49 2.78 4.1a5.38 5.38 0 01-1.39 4.13 4.06 4.06 0 01-2.52.7 4.33 4.33 0 01-1.66-.29zm-2.18-2.81c.12 1.37.19 3.7.19 7v1.17c0 4-.07 6.53-.19 7.63h2.33a38.88 38.88 0 01-.15-3.91v-.67a7.27 7.27 0 001.54.19 6 6 0 006.21-6.45c0-3-1.32-4.8-3.5-5.19a4.34 4.34 0 00-1.66.29 3.48 3.48 0 00-2.66 1.51v-1.87zm22.2 11.18c-.1-1.61-.15-3.36-.15-5.23v-.77q0-3.64.15-5.31H258a27.15 27.15 0 01.17 3.6v1a22.5 22.5 0 01-2.64.1 22.27 22.27 0 01-2.64-.1v-.86a32.88 32.88 0 01.14-3.75h-2.3c.12 1.11.16 2.88.16 5.33v.7c0 2.13 0 3.91-.16 5.28H253c-.1-.89-.14-2.35-.14-4.35v-.93a22.27 22.27 0 012.64-.1 22.5 22.5 0 012.64.1v.92a40.79 40.79 0 01-.17 4.35zm4.85-3.27a2.22 2.22 0 01.57-1.51 5.23 5.23 0 012.91-.57 7.78 7.78 0 011.36.19v2.35a3.39 3.39 0 01-2.85 1.58 1.92 1.92 0 01-2-2m6.88-4c0-3.14-1.17-4.34-3.64-4.34a10.85 10.85 0 00-4.71 1.24 1.54 1.54 0 00.43 1.2 7.25 7.25 0 013.44-1c1.92 0 2.44 1 2.42 3.57-4.9.07-6.91 1.08-6.91 3.75a3 3 0 003.14 3 4.75 4.75 0 003.82-1.89h.07a14.54 14.54 0 00.17 1.87l1.94-.19a35.77 35.77 0 01-.17-4.83zm9.71 1.32a4.52 4.52 0 01-1 .1c-2.16 0-3.24-.74-3.24-2.26a2.25 2.25 0 01.81-1.7 3.76 3.76 0 011.95-.38 6.13 6.13 0 011.46.12zm2.14 5.91c-.12-1.54-.17-3.24-.17-5.09v-1.13a49.05 49.05 0 01.17-5 20.57 20.57 0 00-3.56-.28 6.26 6.26 0 00-3.45.88 3 3 0 001.22 5.5c-.17.24-.48.75-1 1.54s-.92 1.46-1.32 2.06-.75 1.08-1 1.42a5.3 5.3 0 002 .29 4.75 4.75 0 001.12-1.51c.36-.58.94-1.61 1.2-2.09.15-.24.29-.48.46-.72.36-.51.58-.72.77-.72h1.39v4.8zm14.9-11.31c-.5.68-1.15 1.54-2.11 2.72s-1.8 2-2.07 2h-.5v-1.11c0-1.58.05-2.81.14-3.65h-2.3c.12 1.47.17 3.17.17 5.14v.84c0 2.14 0 3.91-.17 5.33h2.3c-.09-.94-.14-2.47-.14-4.59v-1h.5c.27 0 .68.48 1.2 1.39.36.55 1 1.58 1.66 2.45l.31.4a9.66 9.66 0 001.39 1.61 5.26 5.26 0 002.16-.33 33.58 33.58 0 01-3.52-4.47l-1.25-1.77c.38-.39 1.17-1.23 2.35-2.55s1.94-2.13 2.26-2.45zm9.14 1.04c2.28 0 3.39 2 3.39 4.84a5 5 0 01-1.2 3.7 3.12 3.12 0 01-1.71.55c-2.2 0-3.6-1.82-3.6-5a4.82 4.82 0 011.06-3.43 2.77 2.77 0 012.06-.67m.39-1.44a5.2 5.2 0 00-4 1.7 6.31 6.31 0 00-1.56 4.44 6.17 6.17 0 001.42 4.22 5.36 5.36 0 007.7 0 6.39 6.39 0 001.49-4.35c-.01-3.66-1.86-6-5.05-6zm17.35 11.72c-.1-1.61-.14-3.36-.14-5.23v-.77c0-2.43 0-4.2.14-5.31h-2.28a27.15 27.15 0 01.17 3.6v1a34.9 34.9 0 01-5.28 0v-.86a35.45 35.45 0 01.14-3.75h-2.3c.12 1.11.17 2.88.17 5.33v.7c0 2.13-.05 3.91-.17 5.28h2.3c-.09-.89-.14-2.35-.14-4.35v-.93a34.9 34.9 0 015.28 0v.92a40.79 40.79 0 01-.17 4.35zm8.26-11.62a5.22 5.22 0 00-3.89 1.66 5.94 5.94 0 00-1.59 4.29 6.26 6.26 0 001.44 4.32 5 5 0 003.84 1.61 6.28 6.28 0 003.63-1.08 1.5 1.5 0 00-.29-1 5.14 5.14 0 01-2.4.62c-2.5 0-4.1-2-4.1-5a4.44 4.44 0 011.2-3.31 2.69 2.69 0 011.87-.58 4.11 4.11 0 012.78.94 2.56 2.56 0 00.84-1.47 4.74 4.74 0 00-3.33-1m4.56 1.97a18.92 18.92 0 012.78-.14h1v2.68a66.87 66.87 0 01-.22 7.11h2.43c-.12-1.18-.19-3.53-.19-7v-2.76h1a16.66 16.66 0 012.76.14v-1.66h-9.48zm13.7 1.28a3.3 3.3 0 011.87-1.53 3.08 3.08 0 01.91-.1c1.76.07 2.79 1.49 2.79 4.1a5.38 5.38 0 01-1.39 4.13 4.06 4.06 0 01-2.52.7 4.33 4.33 0 01-1.66-.29zm-2.16-2.82c.12 1.37.19 3.7.19 7v1.17c0 4-.07 6.53-.19 7.63h2.32c-.09-.93-.14-2.23-.14-3.91v-.67a7.27 7.27 0 001.54.19 6 6 0 006.21-6.45c0-3-1.32-4.8-3.5-5.19a4.31 4.31 0 00-1.66.29 3.46 3.46 0 00-2.66 1.51v-1.87zm15.84 11.19h.6a14.93 14.93 0 01-2.47 4 1.84 1.84 0 001.53 1.11c.8-1 1.83-3.46 3.15-7.25l.89-2.57 1-3.14c.55-1.61.93-2.76 1.2-3.44h-1.95c-.26 1.25-.69 2.91-1.27 5a44.65 44.65 0 01-1.39 4.44H367c-1.82-4.9-2.88-8-3.19-9.39h-2.57zm14.57-11.31c-.51.68-1.15 1.54-2.11 2.72s-1.8 2-2.07 2h-.5v-1.11c0-1.58 0-2.81.14-3.65h-2.3c.12 1.47.17 3.17.17 5.14v.84c0 2.14-.05 3.91-.17 5.33h2.3c-.09-.94-.14-2.47-.14-4.59v-1h.5c.27 0 .67.48 1.2 1.39.36.55 1 1.58 1.66 2.45l.31.4a9.66 9.66 0 001.39 1.61 5.26 5.26 0 002.16-.33 34.3 34.3 0 01-3.53-4.47l-1.24-1.77c.38-.39 1.17-1.23 2.35-2.55s1.94-2.13 2.25-2.45zm13.8 5.19c0-2.16.05-3.89.14-5.19h-2.3c.12 1.23.17 2.88.17 5v4.9a21.82 21.82 0 01-2.52.09 21.2 21.2 0 01-2.5-.09V935c0-2.11.05-3.77.14-5H385c.12 1.3.17 2.93.17 4.9v.7c0 2.2 0 4.1-.17 5.71h9v2.85h1.72v-4.29h-1.53zm13.25 6.12c-.08-1.3-.12-2.88-.12-4.75V935c0-1.75 0-3.41.12-5h-1.78c-.31.6-1.3 2-2.9 4.32s-2.55 3.68-2.86 4.2h-.12a37.19 37.19 0 00.14-3.93V933a23.35 23.35 0 01.12-2.93h-2.28c.12 1.42.17 3.08.17 4.92v1c0 2.38-.05 4.18-.17 5.38h1.85c.43-.75 1.42-2.23 2.95-4.42s2.48-3.57 2.79-4.13h.07c-.07.82-.1 2.24-.1 4.25v1.35a19.78 19.78 0 01-.16 3zm9.79-5.91a4.55 4.55 0 01-1 .1c-2.16 0-3.24-.74-3.24-2.26a2.27 2.27 0 01.82-1.7 3.75 3.75 0 011.94-.38 6.17 6.17 0 011.47.12zm2.13 5.91c-.12-1.54-.16-3.24-.16-5.09v-1.13c0-2.28 0-3.93.16-5a20.45 20.45 0 00-3.55-.28 6.23 6.23 0 00-3.45.88 3 3 0 001.22 5.5c-.16.24-.48.75-1 1.54s-.91 1.46-1.32 2.06a15.91 15.91 0 01-1 1.42 5.28 5.28 0 002 .29 4.58 4.58 0 001.13-1.51c.36-.58.94-1.61 1.2-2.09.15-.24.29-.48.46-.72.36-.51.57-.72.77-.72h1.39v4.8zm17.74 0c-.07-1.3-.12-2.88-.12-4.75V935c0-1.75.05-3.41.12-5h-1.78c-.31.6-1.29 2-2.9 4.32s-2.54 3.68-2.86 4.2h-.12a36.53 36.53 0 00.15-3.93V933a23.35 23.35 0 01.12-2.93h-2.28c.12 1.42.17 3.08.17 4.92v1c0 2.38-.05 4.18-.17 5.38h1.85c.43-.75 1.41-2.23 2.95-4.42s2.47-3.57 2.78-4.13h.07c-.07.82-.09 2.24-.09 4.25v1.35a19.58 19.58 0 01-.17 3zm3.43-9.46a5.73 5.73 0 012.83-.74c1.52 0 2.33.74 2.33 1.92a2.07 2.07 0 01-2.28 1.92 5.16 5.16 0 01-1.53-.17 1.57 1.57 0 000 1.46 5.91 5.91 0 011.65-.16c1.54 0 2.67.74 2.67 2a2 2 0 01-.92 1.78 3.84 3.84 0 01-1.8.36 5.25 5.25 0 01-3-.89 2.27 2.27 0 00-.65 1.32 4.07 4.07 0 001.44.65 7.44 7.44 0 002.11.31c2.9 0 5-1.25 5-3.67a2.61 2.61 0 00-2.52-2.55v-.12a2.9 2.9 0 002-2.73c0-1.63-1.25-2.86-3.63-2.86a8.28 8.28 0 00-4 .87 2.84 2.84 0 00.36 1.29m22.17-1.84c-.51.68-1.16 1.54-2.12 2.72s-1.8 2-2.06 2h-.5v-1.11a33.9 33.9 0 01.14-3.65h-2.3c.12 1.47.16 3.17.16 5.14v.84c0 2.14 0 3.91-.16 5.33h2.3c-.1-.94-.14-2.47-.14-4.59v-1h.5c.26 0 .67.48 1.2 1.39.36.55 1 1.58 1.66 2.45l.31.4a9.19 9.19 0 001.39 1.61 5.26 5.26 0 002.16-.33 34.3 34.3 0 01-3.53-4.47l-1.25-1.77c.39-.39 1.18-1.23 2.36-2.55s1.94-2.13 2.25-2.45zm6.79 6.05a13.85 13.85 0 012-.09c1.53 0 2.73.57 2.73 2a2.19 2.19 0 01-.93 2 5.52 5.52 0 01-2.16.29 4.68 4.68 0 01-1.61-.19zm0-4.85a6.32 6.32 0 011.68-.19c1.73 0 2.59.63 2.59 1.87a2 2 0 01-1.75 1.9 12 12 0 01-2.52 0zm1.82-1.48a29.76 29.76 0 00-4 .28c.12 1.32.17 2.93.17 4.8v.94c0 2.23-.05 4.1-.17 5.57a19.16 19.16 0 003.5.26c3.29 0 5.4-1.27 5.4-3.55a2.6 2.6 0 00-2.52-2.76v-.12a2.79 2.79 0 002.07-2.62q.02-2.8-4.45-2.8zm9.27 8.32a2.22 2.22 0 01.57-1.51 5.23 5.23 0 012.91-.57 7.78 7.78 0 011.36.19v2.35a3.39 3.39 0 01-2.85 1.58 1.92 1.92 0 01-2-2m6.88-4c0-3.14-1.17-4.34-3.64-4.34a10.85 10.85 0 00-4.71 1.24 1.54 1.54 0 00.43 1.2 7.25 7.25 0 013.44-1c1.92 0 2.44 1 2.42 3.57-4.9.07-6.91 1.08-6.91 3.75a3 3 0 003.14 3 4.75 4.75 0 003.82-1.89h.07a14.54 14.54 0 00.17 1.87l1.94-.19a35.77 35.77 0 01-.17-4.83zm6.33-2.64a8.38 8.38 0 011.65-.09 8.75 8.75 0 011.68.09v8.43h-5.09c1-1.06 1.73-4.18 1.76-8.43m-3 12.72v-2.85h8.23v2.85h1.73v-4.29h-1.52c-.07-.77-.12-2.23-.12-4.39v-.77c0-1.95.05-3.53.15-4.71H492a18.14 18.14 0 01.14 2.4 18.41 18.41 0 01-.67 5c-.43 1.63-1 2.45-1.56 2.45h-.74v4.29zM505.23 933a3.34 3.34 0 011.87-1.53 3.11 3.11 0 01.92-.1c1.75.07 2.78 1.49 2.78 4.1a5.38 5.38 0 01-1.39 4.13 4.06 4.06 0 01-2.52.7 4.33 4.33 0 01-1.66-.29zm-2.18-2.81c.12 1.37.19 3.7.19 7v1.17c0 4-.07 6.53-.19 7.63h2.33a38.88 38.88 0 01-.15-3.91v-.67a7.27 7.27 0 001.54.19 6 6 0 006.21-6.45c0-3-1.32-4.8-3.5-5.19a4.34 4.34 0 00-1.66.29 3.48 3.48 0 00-2.66 1.51v-1.87zm14.06 7.91a2.18 2.18 0 01.58-1.51 5.19 5.19 0 012.9-.57 7.87 7.87 0 011.37.19v2.35a3.41 3.41 0 01-2.86 1.58 1.93 1.93 0 01-2-2m6.89-4c0-3.14-1.18-4.34-3.65-4.34a10.85 10.85 0 00-4.7 1.24 1.5 1.5 0 00.43 1.2 7.22 7.22 0 013.43-1c1.92 0 2.45 1 2.43 3.57-4.9.07-6.92 1.08-6.92 3.75a3 3 0 003.15 3 4.73 4.73 0 003.81-1.89h.08a13.35 13.35 0 00.16 1.87l1.95-.19a35.77 35.77 0 01-.17-4.83zm2.01-2.42a19.08 19.08 0 012.79-.14h1v2.68a69.87 69.87 0 01-.22 7.11h2.42c-.12-1.18-.19-3.53-.19-7v-2.76h1a16.58 16.58 0 012.76.14v-1.66H526zm21.09 9.65c-.1-1.61-.15-3.36-.15-5.23v-.77q0-3.64.15-5.31h-2.28a27.15 27.15 0 01.17 3.6v1a22.5 22.5 0 01-2.64.1 22.27 22.27 0 01-2.64-.1v-.86a32.88 32.88 0 01.14-3.75h-2.3c.12 1.11.16 2.88.16 5.33v.7c0 2.13 0 3.91-.16 5.28h2.3c-.1-.89-.14-2.35-.14-4.35v-.93a22.27 22.27 0 012.64-.1 22.5 22.5 0 012.64.1v.92a40.79 40.79 0 01-.17 4.35zm13.29-5.43c0 2.09 0 3.89-.16 5.43h2.23c-.1-1-.15-2.88-.15-5.64v-1c0-2.24.05-3.77.15-4.64h-2.19c.08 1.44.12 3 .12 4.73zm-3.69 1.66a2.63 2.63 0 01-.87 2.14 3.52 3.52 0 01-1.58.4 4.27 4.27 0 01-1.63-.21 30.19 30.19 0 010-4.66c2.47-.6 4.08.31 4.08 2.33zm-6.17-7.54a44 44 0 01.17 4.8v.94c0 2.62-.05 4.44-.17 5.45a17.92 17.92 0 003.26.26c3.24 0 4.83-1.63 4.83-3.91a3.34 3.34 0 00-1.66-3.17 5.75 5.75 0 00-4.27-.38v-1.3a17.16 17.16 0 01.14-2.69zm14.48 0c1.27 1.76 2.5 3.58 3.65 5.43-1 1.53-2.33 3.5-4 5.88h2.13c.77-1.49 1.66-3 2.69-4.63h.1l1.29 2.08c.77 1.23 1.3 2.07 1.56 2.55H575c-1.08-1.49-2.42-3.46-4-5.93a60.94 60.94 0 013.91-5.38h-2.16c-.55 1-1.39 2.4-2.57 4.16h-.12a36.82 36.82 0 01-2.4-4.16zm18.42 5.38a5.81 5.81 0 01.46-2.71 3.3 3.3 0 012.81-1.37c1.75 0 2.81 1.73 2.81 4.61a5.43 5.43 0 01-1 3.65 2.49 2.49 0 01-1.82.67c-1.92 0-3.22-1.85-3.22-4.85m3.75-5.4a4.85 4.85 0 00-4.42 2.69h-.07a8.34 8.34 0 01.6-3.1 4.3 4.3 0 01.84-1.37 5.51 5.51 0 013.55-1.56c1.73-.16 2.76-.45 3.12-.86a3.08 3.08 0 00-.07-1.92c-.34.41-1.34.72-3 .91a6 6 0 00-4.9 2.86 12.66 12.66 0 00-1.51 6.5c0 4.78 1.92 7.44 5.19 7.44a4.5 4.5 0 003.76-1.73 7.16 7.16 0 001.37-4.58c-.04-3.32-1.79-5.32-4.5-5.32zm10.37 11.33h.6a14.43 14.43 0 01-2.47 4 1.85 1.85 0 001.54 1.11c.79-1 1.82-3.46 3.14-7.25l.89-2.57 1-3.14c.55-1.61.94-2.76 1.2-3.44h-1.94c-.27 1.25-.7 2.91-1.27 5s-1 3.53-1.4 4.44h-.12c-1.82-4.9-2.88-8-3.19-9.39H593zm14.57-11.31c-.5.68-1.15 1.54-2.11 2.72s-1.8 2-2.06 2h-.51v-1.11a33.39 33.39 0 01.15-3.65h-2.31c.12 1.47.17 3.17.17 5.14v.84c0 2.14-.05 3.91-.17 5.33h2.31q-.15-1.41-.15-4.59v-1h.53c.26 0 .67.48 1.2 1.39.36.55 1 1.58 1.65 2.45l.31.4a9.52 9.52 0 001.4 1.61 5.33 5.33 0 002.16-.33 32.65 32.65 0 01-3.53-4.47l-1.25-1.77c.38-.39 1.18-1.23 2.35-2.55s2-2.13 2.26-2.45zm6.79 6.05a13.93 13.93 0 012-.09c1.54 0 2.74.57 2.74 2a2.18 2.18 0 01-.94 2 5.45 5.45 0 01-2.16.29 4.72 4.72 0 01-1.61-.19zm0-4.85a6.43 6.43 0 011.68-.19c1.73 0 2.6.63 2.6 1.87a2 2 0 01-1.76 1.9 12 12 0 01-2.52 0zm1.83-1.48a30 30 0 00-4 .28c.12 1.32.17 2.93.17 4.8v.94c0 2.23-.05 4.1-.17 5.57a19.2 19.2 0 003.51.26c3.29 0 5.4-1.27 5.4-3.55a2.6 2.6 0 00-2.52-2.76v-.12a2.78 2.78 0 002.06-2.62q.01-2.8-4.45-2.8zm-425.19 39.67c-.07-1.11-.12-2.93-.12-5.47v-.89c0-2.33 0-4 .12-5H188a12.54 12.54 0 01.19 2.38v.65c0 4.82-.81 6.84-2.52 6.57a3.08 3.08 0 000 1.92c3.07.46 4.27-2.44 4.27-8.32v-1.76h3.55v5a43.46 43.46 0 01-.19 4.9zm4.54-6.6a5 5 0 01.36-1.73 3.86 3.86 0 01.77-1.39 3.59 3.59 0 012-.55 2.65 2.65 0 011.85.69 2.3 2.3 0 01.75 1.8 1.24 1.24 0 01-.17.72 12.24 12.24 0 01-2.52.31c-1.37.1-2.38.15-3 .15m3.43-5a4.91 4.91 0 00-4 1.75 6.45 6.45 0 00-1.44 4.23c0 3.62 1.94 5.85 5.23 5.85a6.68 6.68 0 004.18-1.36 1.41 1.41 0 00-.39-1 5.24 5.24 0 01-3.12.86c-2.28 0-3.79-1.29-3.89-4.1l1.76-.15a34.85 34.85 0 005.78-.76 4.24 4.24 0 00.24-1.42 3.78 3.78 0 00-1.13-2.71 4.18 4.18 0 00-3.26-1.21zm9.32 11.6c-.12-1.18-.19-3.46-.19-6.82v-3h1.54a27.91 27.91 0 013.31.14v-1.66h-7c.12 1.28.17 2.72.17 4.32v1.08c0 2.38 0 4.32-.17 5.88zm13.51-11.31c-.5.68-1.15 1.54-2.11 2.72s-1.8 2-2.06 2h-.51v-1.11a33.39 33.39 0 01.15-3.65h-2.31c.12 1.47.17 3.17.17 5.14v.84c0 2.14-.05 3.91-.17 5.33h2.31q-.15-1.41-.15-4.59v-1h.51c.26 0 .67.48 1.2 1.39.36.55 1 1.58 1.65 2.45l.31.4a9.52 9.52 0 001.4 1.61 5.26 5.26 0 002.16-.33 33.45 33.45 0 01-3.53-4.47l-1.25-1.77c.39-.39 1.18-1.23 2.35-2.55s2-2.13 2.26-2.45zm9.15 1.04c2.28 0 3.38 2 3.38 4.84a5 5 0 01-1.2 3.7 3.11 3.11 0 01-1.7.55c-2.21 0-3.6-1.82-3.6-5a4.87 4.87 0 011.05-3.43 2.78 2.78 0 012.07-.67m.38-1.44a5.21 5.21 0 00-4 1.7 6.31 6.31 0 00-1.56 4.44 6.17 6.17 0 001.42 4.22 5.36 5.36 0 007.7 0 6.35 6.35 0 001.49-4.35c0-3.68-1.86-6-5-6zm11.11 2.07a19.08 19.08 0 012.79-.14h1v2.68a66.87 66.87 0 01-.22 7.11H253c-.12-1.18-.2-3.53-.2-7v-2.76h1a16.58 16.58 0 012.76.14v-1.66h-9.48zm13.71 1.27a3.3 3.3 0 011.87-1.53 3.08 3.08 0 01.91-.1c1.75.07 2.79 1.49 2.79 4.1a5.34 5.34 0 01-1.4 4.13 4.06 4.06 0 01-2.52.7 4.24 4.24 0 01-1.65-.29zm-2.19-2.81c.12 1.37.2 3.7.2 7v1.17c0 4-.08 6.53-.2 7.63h2.33c-.09-.93-.14-2.23-.14-3.91v-.67a7.18 7.18 0 001.53.19 6 6 0 006.22-6.45c0-3-1.32-4.8-3.5-5.19a4.31 4.31 0 00-1.66.29 3.46 3.46 0 00-2.66 1.51v-1.87zm14.07 7.92a2.22 2.22 0 01.57-1.51 5.23 5.23 0 012.91-.57 7.87 7.87 0 011.37.19v2.35a3.41 3.41 0 01-2.86 1.58 1.92 1.92 0 01-2-2m6.89-4c0-3.14-1.18-4.34-3.65-4.34a10.85 10.85 0 00-4.71 1.24 1.51 1.51 0 00.44 1.2 7.19 7.19 0 013.43-1c1.92 0 2.45 1 2.42 3.57-4.89.07-6.91 1.08-6.91 3.75a3 3 0 003.14 3 4.75 4.75 0 003.82-1.89h.07a14.54 14.54 0 00.17 1.87l1.94-.19a36.58 36.58 0 01-.16-4.83zm12.89 7.23c-.09-1.61-.14-3.36-.14-5.23v-.77c0-2.43.05-4.2.14-5.31h-2.28a27.15 27.15 0 01.17 3.6v1a34.9 34.9 0 01-5.28 0v-.86a35.45 35.45 0 01.14-3.75h-2.3c.12 1.11.17 2.88.17 5.33v.7c0 2.13-.05 3.91-.17 5.28h2.3c-.09-.89-.14-2.35-.14-4.35v-.93a34.9 34.9 0 015.28 0v.93a40.79 40.79 0 01-.17 4.35zm8.26-11.62a5.23 5.23 0 00-3.89 1.66 6 6 0 00-1.58 4.29 6.26 6.26 0 001.44 4.32 4.92 4.92 0 003.84 1.61 6.27 6.27 0 003.62-1.08 1.45 1.45 0 00-.29-1 5.14 5.14 0 01-2.4.62c-2.49 0-4.1-2-4.1-5a4.48 4.48 0 011.2-3.31 2.7 2.7 0 011.87-.58 4.15 4.15 0 012.79.94 2.67 2.67 0 00.84-1.47 4.76 4.76 0 00-3.34-1m10.68 10.54a2.91 2.91 0 01-2.4-1.3 5.56 5.56 0 01-1-3.43c0-2 .69-3.46 1.65-4.1a2.82 2.82 0 011.39-.36 3.11 3.11 0 011.16 0c.07 4.25.09 7.28 0 9.08a3.8 3.8 0 01-.84.07m3.84-9.19c1.63 0 3 1.7 3 4.51 0 2-.51 3.36-1.49 4.17a4.85 4.85 0 01-2.74.51c-.07-3.1-.07-6.12 0-9.1a5 5 0 011.27-.05zm-1 14.92a27.71 27.71 0 01-.19-3.88v-.58a5.48 5.48 0 004.58-1.56 6.67 6.67 0 001.61-4.75c0-2.88-1.37-4.92-3.55-5.38a5.12 5.12 0 00-1.08-.07 6.24 6.24 0 00-1.56.24v-1.06c.05-2.71.07-4.2.1-4.46a3.69 3.69 0 00-1.13-.07 4.73 4.73 0 00-1.08.12c.07.67.1 2.09.1 4.25v1a5.48 5.48 0 00-4.37 1.4 5.68 5.68 0 00-1.75 4.44c0 3.33 1.7 5.49 4.12 5.9a5.6 5.6 0 001 .05 3.46 3.46 0 001-.15v.51a39.48 39.48 0 01-.14 4.05zm13.33-14.88c2.28 0 3.38 2 3.38 4.84a5 5 0 01-1.2 3.7 3.11 3.11 0 01-1.7.55c-2.21 0-3.6-1.82-3.6-5a4.87 4.87 0 011.05-3.43 2.78 2.78 0 012.07-.67m.38-1.44a5.21 5.21 0 00-4 1.7 6.31 6.31 0 00-1.56 4.44 6.17 6.17 0 001.42 4.22 5.36 5.36 0 007.7 0 6.35 6.35 0 001.49-4.35c-.01-3.68-1.86-6-5.05-6zm9.96 3.34a3.34 3.34 0 011.87-1.53 3.11 3.11 0 01.92-.1c1.75.07 2.78 1.49 2.78 4.1a5.38 5.38 0 01-1.39 4.13 4.06 4.06 0 01-2.52.7 4.33 4.33 0 01-1.66-.29zm-2.18-2.81c.12 1.37.19 3.7.19 7v1.17c0 4-.07 6.53-.19 7.63H338a38.88 38.88 0 01-.15-3.91v-.67a7.27 7.27 0 001.54.19 6 6 0 006.21-6.45c0-3-1.32-4.8-3.5-5.19a4.34 4.34 0 00-1.66.29 3.48 3.48 0 00-2.66 1.51v-1.87zm14.18 11.19c-.07-2.64-.05-5.57.1-8.79h.12c.17.48.5 1.25 1 2.33l.88 1.87 1.11 2.48h1.13l.93-1.9c.89-1.9 1.61-3.46 2.11-4.73h.15c0 .36 0 1.71.05 4.06s0 3.89 0 4.68h2.18c-.26-2-.43-4.87-.55-8.64l-.05-2.67h-1.94q-.51 1.33-3 6.58h-.09c-.72-1.37-1.78-3.58-3.15-6.58h-2l-.19 4c-.19 3.33-.38 5.76-.55 7.27zm22.59 0c-.08-1.3-.12-2.88-.12-4.75v-1.61c0-1.75 0-3.41.12-5h-1.78c-.31.6-1.3 2-2.9 4.32s-2.55 3.68-2.86 4.2h-.12a37.19 37.19 0 00.14-3.93v-1.66a23.35 23.35 0 01.12-2.93h-2.28c.12 1.42.17 3.08.17 4.92v1c0 2.38-.05 4.18-.17 5.38h1.85c.43-.75 1.42-2.23 3-4.42s2.48-3.57 2.79-4.13h.07c-.07.82-.1 2.24-.1 4.25v1.35a19.78 19.78 0 01-.16 3zm5.58-8.38a3.3 3.3 0 011.87-1.53 3.08 3.08 0 01.91-.1c1.75.07 2.79 1.49 2.79 4.1a5.34 5.34 0 01-1.4 4.13 4.06 4.06 0 01-2.52.7 4.27 4.27 0 01-1.65-.29zm-2.19-2.81c.12 1.37.2 3.7.2 7v1.17c0 4-.08 6.53-.2 7.63h2.33c-.09-.93-.14-2.23-.14-3.91v-.67a7.18 7.18 0 001.53.19 6 6 0 006.22-6.45c0-3-1.32-4.8-3.5-5.19a4.31 4.31 0 00-1.66.29 3.46 3.46 0 00-2.66 1.51v-1.87zm15.88 11.19h.6a14.93 14.93 0 01-2.47 4 1.82 1.82 0 001.53 1.11c.79-1 1.83-3.46 3.15-7.25l.88-2.57 1-3.14c.55-1.61.93-2.76 1.2-3.44h-1.95c-.26 1.25-.69 2.91-1.27 5a44.65 44.65 0 01-1.39 4.44h-.12a98.94 98.94 0 01-3.19-9.39h-2.57zm9.12-6.6a5 5 0 01.36-1.73 3.86 3.86 0 01.77-1.39 3.59 3.59 0 012-.55 2.65 2.65 0 011.85.69 2.3 2.3 0 01.75 1.8 1.24 1.24 0 01-.17.72 12.24 12.24 0 01-2.52.31c-1.37.1-2.38.15-3 .15m3.43-5a4.91 4.91 0 00-4 1.75 6.45 6.45 0 00-1.44 4.23c0 3.62 1.94 5.85 5.23 5.85a6.68 6.68 0 004.18-1.36 1.41 1.41 0 00-.39-1 5.26 5.26 0 01-3.12.86c-2.28 0-3.79-1.29-3.89-4.1l1.76-.15a34.85 34.85 0 005.78-.76 4.24 4.24 0 00.24-1.42 3.78 3.78 0 00-1.13-2.71 4.18 4.18 0 00-3.26-1.21zm5.62 1.95a19.08 19.08 0 012.79-.14h1v2.68a66.87 66.87 0 01-.22 7.11h2.43c-.12-1.18-.2-3.53-.2-7v-2.76h1a16.58 16.58 0 012.76.14v-1.66h-9.56zm16.37-1.97a5.23 5.23 0 00-3.89 1.66 6 6 0 00-1.58 4.29 6.26 6.26 0 001.44 4.32 4.93 4.93 0 003.84 1.61 6.25 6.25 0 003.62-1.08 1.49 1.49 0 00-.28-1 5.2 5.2 0 01-2.4.62c-2.5 0-4.11-2-4.11-5a4.48 4.48 0 011.2-3.31 2.7 2.7 0 011.87-.58 4.15 4.15 0 012.79.94 2.62 2.62 0 00.84-1.47 4.76 4.76 0 00-3.34-1m12.27 5.71a4.55 4.55 0 01-1 .1c-2.16 0-3.24-.74-3.24-2.26a2.27 2.27 0 01.82-1.7 3.72 3.72 0 011.94-.38 6.17 6.17 0 011.47.12zm2.13 5.91c-.12-1.54-.17-3.24-.17-5.09v-1.13a49.05 49.05 0 01.17-5 20.45 20.45 0 00-3.55-.28 6.29 6.29 0 00-3.46.88 3 3 0 001.23 5.5c-.17.24-.48.75-1 1.54s-.91 1.46-1.32 2.06-.74 1.08-1 1.42a5.28 5.28 0 002 .29 4.58 4.58 0 001.13-1.51c.36-.58.94-1.61 1.2-2.09.14-.24.29-.48.46-.72.36-.51.57-.72.76-.72h1.4v4.8zm17.74 0c-.07-1.3-.12-2.88-.12-4.75v-1.61c0-1.75 0-3.41.12-5h-1.78c-.31.6-1.29 2-2.9 4.32s-2.55 3.68-2.86 4.2h-.12a36.53 36.53 0 00.15-3.93v-1.66a21.47 21.47 0 01.12-2.93h-2.28c.12 1.42.16 3.08.16 4.92v1c0 2.38 0 4.18-.16 5.38h1.84c.44-.75 1.42-2.23 3-4.42s2.47-3.57 2.78-4.13h.07c-.07.82-.09 2.24-.09 4.25v1.35a19.58 19.58 0 01-.17 3zm3.43-9.45a5.73 5.73 0 012.83-.74c1.51 0 2.33.74 2.33 1.92a2.07 2.07 0 01-2.28 1.92 5.23 5.23 0 01-1.54-.17 1.57 1.57 0 000 1.46 6 6 0 011.66-.16c1.54 0 2.66.74 2.66 2a2 2 0 01-.91 1.78 3.84 3.84 0 01-1.8.36 5.31 5.31 0 01-3.05-.89 2.31 2.31 0 00-.64 1.32 4.07 4.07 0 001.44.65 7.44 7.44 0 002.11.31c2.9 0 5-1.25 5-3.67a2.61 2.61 0 00-2.52-2.55v-.12a2.9 2.9 0 002-2.73c0-1.63-1.24-2.86-3.62-2.86a8.28 8.28 0 00-4 .87 2.84 2.84 0 00.36 1.29m17.51 4.2a13.93 13.93 0 012-.09c1.54 0 2.74.57 2.74 2a2.18 2.18 0 01-.94 2 5.45 5.45 0 01-2.16.29 4.72 4.72 0 01-1.61-.19zm0-4.85a6.43 6.43 0 011.68-.19c1.73 0 2.6.63 2.6 1.87a2 2 0 01-1.76 1.9 12 12 0 01-2.52.05zm1.83-1.48a30 30 0 00-4 .28c.12 1.32.17 2.93.17 4.8v.94c0 2.23-.05 4.1-.17 5.57a19.2 19.2 0 003.51.26c3.29 0 5.4-1.27 5.4-3.55a2.6 2.6 0 00-2.52-2.76v-.12a2.78 2.78 0 002.06-2.62q.01-2.8-4.45-2.8zm9.24 4.99a5 5 0 01.36-1.73 3.86 3.86 0 01.77-1.39 3.59 3.59 0 012-.55 2.65 2.65 0 011.85.69 2.3 2.3 0 01.75 1.8 1.24 1.24 0 01-.17.72 12.24 12.24 0 01-2.52.31c-1.37.1-2.38.15-3 .15m3.43-5a4.91 4.91 0 00-4 1.75 6.45 6.45 0 00-1.44 4.23c0 3.62 1.94 5.85 5.23 5.85a6.68 6.68 0 004.18-1.36 1.41 1.41 0 00-.39-1 5.26 5.26 0 01-3.12.86c-2.28 0-3.79-1.29-3.89-4.1l1.76-.15a34.85 34.85 0 005.78-.76 4.24 4.24 0 00.24-1.42 3.78 3.78 0 00-1.13-2.71 4.18 4.18 0 00-3.26-1.21zm9.13 3.22a3.3 3.3 0 011.87-1.53 3.08 3.08 0 01.91-.1c1.75.07 2.79 1.49 2.79 4.1a5.34 5.34 0 01-1.4 4.13 4.06 4.06 0 01-2.52.7 4.27 4.27 0 01-1.65-.29zm-2.19-2.81c.12 1.37.2 3.7.2 7v1.17c0 4-.08 6.53-.2 7.63h2.33c-.09-.93-.14-2.23-.14-3.91v-.67a7.18 7.18 0 001.53.19 6 6 0 006.22-6.45c0-3-1.32-4.8-3.5-5.19a4.31 4.31 0 00-1.66.29 3.46 3.46 0 00-2.66 1.51v-1.87zm11.31 1.54a18.92 18.92 0 012.78-.14h1v2.68a71.06 71.06 0 01-.21 7.11h2.42c-.12-1.18-.19-3.53-.19-7v-2.76h1a16.58 16.58 0 012.76.14v-1.66h-9.48zm21.21 9.65c-.07-1.3-.12-2.88-.12-4.75v-1.61c0-1.75 0-3.41.12-5h-1.77c-.31.6-1.3 2-2.91 4.32s-2.54 3.68-2.85 4.2h-.12c.09-.84.14-2.13.14-3.93v-1.66a23.35 23.35 0 01.12-2.93h-2.28c.12 1.42.17 3.08.17 4.92v1c0 2.38 0 4.18-.17 5.38h1.85c.43-.75 1.42-2.23 3-4.42s2.47-3.57 2.79-4.13h.07c-.07.82-.1 2.24-.1 4.25v1.35a19.58 19.58 0 01-.17 3zm10.28-11.31c-.51.68-1.16 1.54-2.12 2.72s-1.8 2-2.06 2H539v-1.11a33.9 33.9 0 01.14-3.65h-2.3c.12 1.47.16 3.17.16 5.14v.84c0 2.14 0 3.91-.16 5.33h2.3c-.1-.94-.14-2.47-.14-4.59v-1h.5c.26 0 .67.48 1.2 1.39.36.55 1 1.58 1.66 2.45l.31.4a9.19 9.19 0 001.39 1.61 5.26 5.26 0 002.16-.33 34.3 34.3 0 01-3.53-4.47l-1.25-1.77c.39-.39 1.18-1.23 2.36-2.55s1.94-2.13 2.25-2.45zm6.04 8.04a2.23 2.23 0 01.58-1.51 5.19 5.19 0 012.9-.57 7.75 7.75 0 011.37.19v2.35a3.39 3.39 0 01-2.85 1.58 1.93 1.93 0 01-2-2m6.89-4c0-3.14-1.17-4.34-3.65-4.34a10.85 10.85 0 00-4.7 1.24 1.5 1.5 0 00.43 1.2 7.25 7.25 0 013.43-1c1.92 0 2.45 1 2.43 3.57-4.9.07-6.91 1.08-6.91 3.75a3 3 0 003.14 3 4.77 4.77 0 003.82-1.89h.07a12.86 12.86 0 00.17 1.87l1.94-.19a35.77 35.77 0 01-.17-4.83zm12.41 7.23c-.07-1.11-.12-2.93-.12-5.47v-.89c0-2.33 0-4 .12-5h-7.63a12.54 12.54 0 01.19 2.38v.65c0 4.82-.81 6.84-2.52 6.57a3 3 0 000 1.92c3.07.46 4.27-2.44 4.27-8.32v-1.76h3.55v5a43.46 43.46 0 01-.19 4.9zm9.67-3.77a2.43 2.43 0 01-1 2.14 3.52 3.52 0 01-1.85.38 4.4 4.4 0 01-1.58-.19 30.19 30.19 0 010-4.66c2.78-.65 4.41.31 4.41 2.33m-6.57-7.54a38.51 38.51 0 01.16 4.61v.89c0 2.71 0 4.61-.14 5.69a18.09 18.09 0 003.34.26c3.45 0 5.2-1.53 5.2-3.91a3.44 3.44 0 00-1.72-3.26 6.44 6.44 0 00-4.68-.29v-1.27a16 16 0 01.14-2.72zm20.61 11.31c-.1-1.61-.15-3.36-.15-5.23v-.77q0-3.65.15-5.31h-2.28a27.15 27.15 0 01.17 3.6v1a22.5 22.5 0 01-2.64.1 22.27 22.27 0 01-2.64-.1v-.86a32.88 32.88 0 01.14-3.75h-2.3c.12 1.11.16 2.88.16 5.33v.7c0 2.13 0 3.91-.16 5.28h2.3c-.1-.89-.14-2.35-.14-4.35v-.93a22.27 22.27 0 012.64-.1 22.5 22.5 0 012.64.1v.93a40.79 40.79 0 01-.17 4.35zm7.94-10.27c2.28 0 3.39 2 3.39 4.84a5 5 0 01-1.2 3.7 3.14 3.14 0 01-1.71.55c-2.21 0-3.6-1.82-3.6-5a4.82 4.82 0 011.06-3.43 2.75 2.75 0 012.06-.67m.39-1.44a5.18 5.18 0 00-4 1.7 6.31 6.31 0 00-1.56 4.44 6.22 6.22 0 001.41 4.22 5.37 5.37 0 007.71 0 6.39 6.39 0 001.49-4.35c-.01-3.68-1.86-6-5.07-6zm10.15 11.72c-.12-1.18-.19-3.46-.19-6.82v-3h1.53a27.8 27.8 0 013.31.14v-1.66h-7c.12 1.28.16 2.72.16 4.32v1.08c0 2.38 0 4.32-.16 5.88zm11.18-10.27c2.28 0 3.39 2 3.39 4.84a5 5 0 01-1.2 3.7 3.14 3.14 0 01-1.71.55c-2.21 0-3.6-1.82-3.6-5a4.82 4.82 0 011.06-3.43 2.75 2.75 0 012.06-.67m.39-1.44a5.18 5.18 0 00-4 1.7 6.31 6.31 0 00-1.56 4.44 6.22 6.22 0 001.41 4.22 5.37 5.37 0 007.71 0 6.39 6.39 0 001.49-4.35c-.01-3.68-1.86-6-5.05-6zm-434.02 34.54a13.85 13.85 0 012-.09c1.53 0 2.73.57 2.73 2a2.19 2.19 0 01-.93 2 5.52 5.52 0 01-2.16.29 4.68 4.68 0 01-1.61-.19zm0-4.85a6.32 6.32 0 011.68-.19c1.73 0 2.59.63 2.59 1.87a2 2 0 01-1.75 1.9 12 12 0 01-2.52 0zm1.82-1.48a29.88 29.88 0 00-4 .28c.12 1.32.17 2.93.17 4.8v.98c0 2.23 0 4.1-.17 5.57a19.16 19.16 0 003.5.26c3.29 0 5.4-1.27 5.4-3.55a2.6 2.6 0 00-2.52-2.76v-.12a2.79 2.79 0 002.07-2.62q.01-2.84-4.45-2.84zm14.86 11.59c-.12-1.18-.19-3.46-.19-6.82v-3h1.53a27.8 27.8 0 013.31.14v-1.66h-7c.12 1.28.16 2.72.16 4.32v1.08c0 2.38 0 4.32-.16 5.88zm11.18-10.27c2.28 0 3.39 2 3.39 4.84a5 5 0 01-1.2 3.7 3.14 3.14 0 01-1.71.55c-2.2 0-3.6-1.82-3.6-5a4.82 4.82 0 011.06-3.43 2.77 2.77 0 012.06-.67m.39-1.44a5.2 5.2 0 00-4 1.7 6.31 6.31 0 00-1.57 4.49 6.17 6.17 0 001.42 4.22 5.36 5.36 0 007.7 0 6.39 6.39 0 001.49-4.35c-.01-3.73-1.85-6.05-5.01-6.05zm9.96 3.34a3.3 3.3 0 011.87-1.53 3.08 3.08 0 01.91-.1c1.75.07 2.79 1.49 2.79 4.1a5.34 5.34 0 01-1.4 4.13 4.06 4.06 0 01-2.52.7 4.24 4.24 0 01-1.65-.29zm-2.19-2.81c.12 1.37.2 3.7.2 7v1.17c0 4-.08 6.53-.2 7.63h2.33c-.09-.93-.14-2.23-.14-3.91v-.67a7.18 7.18 0 001.53.19 6 6 0 006.22-6.45c0-3-1.32-4.8-3.5-5.19a4.31 4.31 0 00-1.66.29 3.49 3.49 0 00-2.67 1.51v-1.87zm22.32 11.19c-.07-1.3-.12-2.88-.12-4.75v-1.61c0-1.75.05-3.41.12-4.95h-1.77c-.31.6-1.3 2-2.91 4.32s-2.54 3.68-2.85 4.2h-.12c.09-.84.14-2.13.14-3.93v-1.66a23.35 23.35 0 01.12-2.93h-2.28c.12 1.42.17 3.08.17 4.92v1c0 2.38-.05 4.18-.17 5.38h1.85c.43-.75 1.42-2.23 2.95-4.42s2.47-3.57 2.79-4.13h.07c-.07.82-.1 2.24-.1 4.25v1.35a19.58 19.58 0 01-.17 2.95zm3.44-9.46a5.67 5.67 0 012.83-.74c1.51 0 2.33.74 2.33 1.92a2.07 2.07 0 01-2.28 1.92 5.23 5.23 0 01-1.54-.17 1.57 1.57 0 000 1.46 6 6 0 011.66-.16c1.53 0 2.66.74 2.66 2a2 2 0 01-.91 1.78 3.89 3.89 0 01-1.8.36 5.31 5.31 0 01-3-.89 2.33 2.33 0 00-.65 1.32 4.07 4.07 0 001.44.65 7.49 7.49 0 002.11.31c2.91 0 5-1.25 5-3.67a2.61 2.61 0 00-2.52-2.55v-.12a2.9 2.9 0 002-2.73c0-1.63-1.25-2.86-3.62-2.86a8.28 8.28 0 00-4 .87 2.61 2.61 0 00.36 1.29m15.17-.8c2.28 0 3.38 2 3.38 4.84a5 5 0 01-1.2 3.7 3.11 3.11 0 01-1.7.55c-2.21 0-3.6-1.82-3.6-5a4.87 4.87 0 011.05-3.43 2.78 2.78 0 012.07-.67m.38-1.44a5.2 5.2 0 00-4 1.7 6.31 6.31 0 00-1.56 4.44 6.17 6.17 0 001.42 4.22 5.36 5.36 0 007.7 0 6.35 6.35 0 001.49-4.35c-.01-3.68-1.86-6-5.05-6zm17.35 11.72c-.09-1.61-.14-3.36-.14-5.23v-.77c0-2.43.05-4.2.14-5.31h-2.28a27.15 27.15 0 01.17 3.6v1a34.9 34.9 0 01-5.28 0V990a35.45 35.45 0 01.14-3.75h-2.3c.12 1.11.17 2.88.17 5.33v.7c0 2.13 0 3.91-.17 5.28h2.3c-.09-.89-.14-2.35-.14-4.35v-.93a34.9 34.9 0 015.28 0v.93a40.79 40.79 0 01-.17 4.35zm2.09-9.65a19 19 0 012.78-.14h1v2.68a71.06 71.06 0 01-.21 7.11h2.42c-.12-1.18-.19-3.53-.19-7v-2.76h1a16.58 16.58 0 012.76.14v-1.66h-9.48zm12.96 6.38a2.18 2.18 0 01.58-1.51 5.17 5.17 0 012.9-.57 7.87 7.87 0 011.37.19v2.35a3.41 3.41 0 01-2.86 1.58 1.93 1.93 0 01-2-2m6.89-4c0-3.14-1.18-4.34-3.65-4.34a10.78 10.78 0 00-4.7 1.24 1.5 1.5 0 00.43 1.2 7.19 7.19 0 013.43-1c1.92 0 2.45 1 2.42 3.57-4.89.07-6.91 1.08-6.91 3.75a3 3 0 003.15 3 4.75 4.75 0 003.81-1.89h.07a14.54 14.54 0 00.17 1.87l1.95-.19a35.77 35.77 0 01-.17-4.83zm12.37 7.23c-.07-1.11-.12-2.93-.12-5.47v-.89c0-2.33.05-4 .12-4.95h-7.63a12.54 12.54 0 01.19 2.38v.65c0 4.82-.82 6.84-2.52 6.57a3 3 0 00.05 1.92c3.07.46 4.27-2.44 4.27-8.32v-1.76h3.56v5a42.76 42.76 0 01-.2 4.9zm9.72-3.77a2.44 2.44 0 01-1 2.14 3.48 3.48 0 01-1.84.38 4.46 4.46 0 01-1.59-.19 30.19 30.19 0 010-4.66c2.79-.65 4.42.31 4.42 2.33m-6.58-7.54a37.8 37.8 0 01.17 4.61v.89c0 2.71-.05 4.61-.14 5.69a18 18 0 003.33.26c3.46 0 5.21-1.53 5.21-3.91a3.45 3.45 0 00-1.73-3.26 6.44 6.44 0 00-4.68-.29v-1.27a15.67 15.67 0 01.15-2.72zm20.6 11.31c-.09-1.61-.14-3.36-.14-5.23v-.77c0-2.43.05-4.2.14-5.31h-2.28a27.15 27.15 0 01.17 3.6v1a34.9 34.9 0 01-5.28 0V990a32.26 32.26 0 01.15-3.75H332c.12 1.11.17 2.88.17 5.33v.7c0 2.13-.05 3.91-.17 5.28h2.31c-.1-.89-.15-2.35-.15-4.35v-.93a34.9 34.9 0 015.28 0v.93a40.79 40.79 0 01-.17 4.35zm13.3-5.43c0 2.09-.05 3.89-.17 5.43h2.23c-.09-1-.14-2.88-.14-5.64v-1c0-2.24 0-3.77.14-4.64h-2.18c.07 1.44.12 3 .12 4.73zm-3.7 1.66a2.62 2.62 0 01-.86 2.14 3.59 3.59 0 01-1.58.4 4.3 4.3 0 01-1.64-.21 30.19 30.19 0 010-4.66c2.48-.6 4.08.31 4.08 2.33zm-6.16-7.54a44.72 44.72 0 01.16 4.8v.98c0 2.62 0 4.44-.16 5.45a17.92 17.92 0 003.26.26c3.24 0 4.82-1.63 4.82-3.91a3.35 3.35 0 00-1.65-3.17 5.75 5.75 0 00-4.27-.38v-1.3a16 16 0 01.14-2.69zM363.3 981a2.07 2.07 0 00-1.44.67 3 3 0 003.26 2.57 3.29 3.29 0 003.46-2.76 1 1 0 00-.92-.29 2.09 2.09 0 01-2.16 1.8 2.15 2.15 0 01-2.2-2m6.64 16.54c-.07-1.3-.12-2.88-.12-4.75v-1.61c0-1.75.05-3.41.12-4.95h-1.77c-.31.6-1.3 2-2.91 4.32s-2.54 3.68-2.85 4.2h-.12c.09-.84.14-2.13.14-3.93v-1.66a23.35 23.35 0 01.12-2.93h-2.28c.12 1.42.17 3.08.17 4.92v1c0 2.38-.05 4.18-.17 5.38h1.85c.43-.75 1.42-2.23 2.95-4.42s2.47-3.57 2.79-4.13h.07c-.07.82-.1 2.24-.1 4.25v1.35a19.58 19.58 0 01-.17 2.95zm9.56-5.93a5.83 5.83 0 01.45-2.71 3.3 3.3 0 012.81-1.37c1.75 0 2.81 1.73 2.81 4.61a5.48 5.48 0 01-1 3.65 2.52 2.52 0 01-1.83.67c-1.92 0-3.21-1.85-3.21-4.85m3.74-5.4a4.87 4.87 0 00-4.42 2.69h-.07a8.55 8.55 0 01.6-3.1 4.48 4.48 0 01.84-1.37 5.51 5.51 0 013.55-1.56c1.73-.16 2.76-.45 3.12-.86a3 3 0 00-.07-1.92c-.33.41-1.34.72-3 .91a6 6 0 00-4.89 2.86 12.56 12.56 0 00-1.52 6.5c0 4.78 1.92 7.44 5.19 7.44a4.52 4.52 0 003.77-1.73 7.21 7.21 0 001.36-4.58c-.03-3.34-1.73-5.28-4.49-5.28zm16.19 11.33c-.07-1.11-.12-2.93-.12-5.47v-.89c0-2.33.05-4 .12-4.95h-7.63a12.54 12.54 0 01.19 2.38v.65c0 4.82-.81 6.84-2.52 6.57a3.08 3.08 0 00.05 1.92c3.07.46 4.27-2.44 4.27-8.32v-1.76h3.55v5a43.46 43.46 0 01-.19 4.9zm7.66-10.27c2.28 0 3.38 2 3.38 4.84a4.93 4.93 0 01-1.2 3.7 3.09 3.09 0 01-1.7.55c-2.21 0-3.6-1.82-3.6-5a4.82 4.82 0 011.06-3.43 2.74 2.74 0 012.06-.67m.38-1.44a5.18 5.18 0 00-4 1.7 7.06 7.06 0 00-.15 8.66 5.37 5.37 0 007.71 0 6.39 6.39 0 001.48-4.35c0-3.68-1.84-6-5.04-6zm14.64.41c-.5.68-1.15 1.54-2.11 2.72s-1.8 2-2.06 2h-.51v-1.11a33.39 33.39 0 01.15-3.65h-2.31c.12 1.47.17 3.17.17 5.14v.84c0 2.14-.05 3.91-.17 5.33h2.31q-.15-1.41-.15-4.59v-1h.54c.26 0 .67.48 1.2 1.39.36.55 1 1.58 1.65 2.45l.32.4a9.19 9.19 0 001.39 1.61 5.26 5.26 0 002.16-.33 34.3 34.3 0 01-3.53-4.47l-1.25-1.77c.39-.39 1.18-1.23 2.35-2.55s1.95-2.13 2.26-2.45z"/></g></svg>