<svg data-name="Layer 1" xmlns="http://www.w3.org/2000/svg" viewBox="0 0 1920 1080"><defs><clipPath id="a"><path fill="none" d="M0 0h1920v1080H0z"/></clipPath></defs><g clip-path="url(#a)"><path fill="#d6e2d4" d="M0 0h1920v1080H0z"/><path d="M925.53 317.51v68.94h31.34v-18.8h6.26v18.8h31.34v-31.33h-18.8v-6.27h18.8v-31.34h-31.34v18.81h-6.26v-18.81zm0 144.15h68.94v-68.94h-31.34v18.8h-6.26v-18.8h-31.34v31.34h37.6v6.26h-37.6zm0 75.21h31.34v-18.81h6.26v18.81h31.34v-68.94h-31.34v18.8h-6.26v-18.8h-31.34zm0 75.2h31.34v-37.6h37.6v-31.34h-68.94zm0 75.21h68.94v-68.94h-31.34v18.8h-6.26v-18.8h-31.34v31.34h37.6v6.26h-37.6zm31.34 28.2h6.26V728h-6.26zm-31.34 47h31.34V750h37.6v-56.4h-68.94zm-6.27-451.24h81.48v269.5h-37.61v31.33h37.61v144.2h-37.61v12.53h-43.87V311.25z" fill="#ea533d" fill-rule="evenodd"/><path d="M192.65 899.42a6.33 6.33 0 00-4.89 2.09 9.25 9.25 0 00-.07 11.06 6.09 6.09 0 004.7 1.95 7 7 0 004.06-1.23A2.21 2.21 0 00196 912a5.19 5.19 0 01-2.92.81 4.28 4.28 0 01-3.63-1.75 7.37 7.37 0 01-1.29-4.49 6.11 6.11 0 012-4.94 4 4 0 012.38-.55 8 8 0 013.12.57A3.09 3.09 0 00196 900a8.62 8.62 0 00-3.39-.53m9.24 4.92a8.11 8.11 0 011.65-.1 8.48 8.48 0 011.68.1v8.42h-5.09c1-1 1.73-4.17 1.76-8.42m-3 12.72v-2.86h8.23v2.86h1.73v-4.3h-1.52c-.07-.76-.12-2.23-.12-4.39v-.77c0-1.94.05-3.52.15-4.7H200a18.14 18.14 0 01.14 2.4 18.47 18.47 0 01-.67 5c-.43 1.63-1 2.44-1.56 2.44h-.74v4.3zm13.61-9.46a4.78 4.78 0 01.36-1.72 4.19 4.19 0 01.76-1.4 3.65 3.65 0 012-.55 2.63 2.63 0 011.85.7 2.3 2.3 0 01.74 1.8 1.17 1.17 0 01-.17.72 13 13 0 01-2.52.31c-1.36.1-2.37.14-3 .14m3.43-5a4.92 4.92 0 00-4 1.75 6.5 6.5 0 00-1.44 4.22c0 3.63 2 5.86 5.24 5.86a6.57 6.57 0 004.17-1.37 1.46 1.46 0 00-.38-1 5.19 5.19 0 01-3.12.87c-2.28 0-3.79-1.3-3.89-4.11l1.75-.14a35 35 0 005.79-.77 4.49 4.49 0 00.24-1.41 3.82 3.82 0 00-1.13-2.72 4.21 4.21 0 00-3.25-1.19zm16.01 11.6c-.07-1.1-.12-2.92-.12-5.47v-.89c0-2.32 0-4 .12-4.94h-7.63a12.46 12.46 0 01.19 2.38v.67c0 4.83-.82 6.84-2.52 6.58a3 3 0 000 1.92c3.07.46 4.27-2.45 4.27-8.33v-1.75h3.55v5a43.25 43.25 0 01-.19 4.89zm4.56-3.25a2.17 2.17 0 01.58-1.51 5.15 5.15 0 012.9-.58 7.18 7.18 0 011.37.2v2.35a3.43 3.43 0 01-2.86 1.58 1.93 1.93 0 01-2-2m6.89-4c0-3.15-1.18-4.35-3.65-4.35a10.81 10.81 0 00-4.7 1.25 1.52 1.52 0 00.43 1.2 7.21 7.21 0 013.43-1c1.92 0 2.45 1 2.42 3.58-4.89.07-6.91 1.08-6.91 3.74a3 3 0 003.15 3.05 4.73 4.73 0 003.81-1.9h.07a14.76 14.76 0 00.17 1.88l1.95-.2a33.94 33.94 0 01-.17-4.82zm4.74.61a4.78 4.78 0 01.36-1.72 4.19 4.19 0 01.76-1.4 3.65 3.65 0 012-.55 2.63 2.63 0 011.85.7 2.3 2.3 0 01.74 1.8 1.17 1.17 0 01-.17.72 13 13 0 01-2.52.31c-1.36.1-2.37.14-3 .14m3.43-5a4.92 4.92 0 00-4 1.75 6.5 6.5 0 00-1.44 4.22c0 3.63 1.95 5.86 5.24 5.86a6.57 6.57 0 004.17-1.37 1.46 1.46 0 00-.38-1 5.19 5.19 0 01-3.14.89c-2.28 0-3.79-1.3-3.89-4.11l1.75-.14a35 35 0 005.79-.77 4.49 4.49 0 00.24-1.41 3.82 3.82 0 00-1.13-2.72 4.21 4.21 0 00-3.23-1.21zm8.52 11.6c-.07-2.63-.05-5.56.1-8.78h.12c.17.48.5 1.25 1 2.33l.88 1.87 1.11 2.47h1.13l.93-1.89c.89-1.9 1.61-3.46 2.11-4.73h.15c0 .36 0 1.7.05 4.05s0 3.89 0 4.68h2.18c-.26-2-.43-4.87-.55-8.64l-.05-2.66h-1.93c-.34.89-1.35 3.07-3 6.58h-.09c-.72-1.37-1.78-3.58-3.15-6.58h-2l-.19 4c-.19 3.34-.38 5.76-.55 7.27zm27.24 0c-.07-1.29-.12-2.88-.12-4.75v-1.61c0-1.75.05-3.4.12-4.94h-1.77c-.32.6-1.3 2-2.91 4.32s-2.54 3.67-2.85 4.2h-.12c.09-.84.14-2.14.14-3.94v-1.65a23.24 23.24 0 01.12-2.93h-2.28c.12 1.42.17 3.07.17 4.92v1c0 2.38-.05 4.17-.17 5.37h1.85c.43-.74 1.41-2.23 2.95-4.41s2.47-3.58 2.78-4.13h.08c-.08.82-.1 2.23-.1 4.25v1.34a19.4 19.4 0 01-.17 3zm3.43-9.45a5.64 5.64 0 012.84-.75c1.51 0 2.32.75 2.32 1.92a2.07 2.07 0 01-2.28 1.92 5.25 5.25 0 01-1.53-.16 1.57 1.57 0 000 1.46 5.85 5.85 0 011.65-.17c1.54 0 2.67.75 2.67 2a2 2 0 01-.91 1.77 3.89 3.89 0 01-1.8.36 5.28 5.28 0 01-3.05-.88 2.27 2.27 0 00-.65 1.32 4.1 4.1 0 001.44.64 7.16 7.16 0 002.11.32c2.91 0 5-1.25 5-3.67a2.6 2.6 0 00-2.52-2.55v-.12a2.91 2.91 0 002-2.74c0-1.63-1.25-2.85-3.63-2.85a8.4 8.4 0 00-4 .86 2.85 2.85 0 00.36 1.3m22.13-1.23a1.52 1.52 0 00-1.53-.19l-2.78 5 2.66 4.73a1.54 1.54 0 00.91-.05 1.64 1.64 0 00.79-.41l-2.64-4.53zm-3.74-.07a1.75 1.75 0 00-1.66-.12l-2.56 4.64 2.59 5a1.24 1.24 0 001.39-.43l-2.3-4.39zm16.56 10.77c-.09-1.36-.14-3.19-.14-5.49v-.89c0-.72.05-2.35.14-4.92h-9.41c.12 1.78.17 3.41.17 4.9v1c0 1.61-.05 3.38-.17 5.37h2.31c-.1-1.41-.15-3.57-.15-6.52v-3.34a20.82 20.82 0 012.55-.1 22 22 0 012.59.1v3.26c0 3-.07 5.19-.19 6.6zm5.57-8.37a3.32 3.32 0 011.87-1.54 3 3 0 01.91-.09c1.76.07 2.79 1.48 2.79 4.1a5.38 5.38 0 01-1.39 4.13 4.13 4.13 0 01-2.52.69 4.34 4.34 0 01-1.66-.28zm-2.18-2.81c.12 1.37.19 3.7.19 7v1.18c0 4-.07 6.53-.19 7.63h2.32c-.09-.94-.14-2.23-.14-3.91v-.67a7.27 7.27 0 001.54.19 6.28 6.28 0 004.39-1.71 6.2 6.2 0 001.82-4.75c0-3-1.32-4.8-3.5-5.18a4.13 4.13 0 00-1.66.29 3.43 3.43 0 00-2.66 1.51v-1.87zm17.16.93c2.28 0 3.38 2 3.38 4.85a5 5 0 01-1.2 3.7 3.11 3.11 0 01-1.7.55c-2.21 0-3.6-1.82-3.6-5a4.91 4.91 0 011.05-3.44 2.82 2.82 0 012.07-.67m.38-1.44a5.21 5.21 0 00-4 1.71 6.29 6.29 0 00-1.56 4.44 6.17 6.17 0 001.42 4.22 5.35 5.35 0 007.7 0 6.34 6.34 0 001.49-4.34c-.01-3.71-1.86-6.04-5.05-6.04zm12.62.09a5.24 5.24 0 00-3.88 1.65 6 6 0 00-1.59 4.3 6.26 6.26 0 001.44 4.32 5 5 0 003.84 1.61 6.38 6.38 0 003.63-1.08 1.55 1.55 0 00-.29-1 5.29 5.29 0 01-2.4.62c-2.5 0-4.11-2-4.11-5a4.49 4.49 0 011.2-3.31 2.78 2.78 0 011.88-.57 4.17 4.17 0 012.78.93 2.51 2.51 0 00.84-1.46 4.76 4.76 0 00-3.34-1m4.56 1.96a18.76 18.76 0 012.79-.15h1v2.69a66.63 66.63 0 01-.22 7.1h2.43c-.12-1.17-.2-3.52-.2-7v-2.76h1a16.23 16.23 0 012.76.15V903h-9.48zm16.06-.61c2.28 0 3.38 2 3.38 4.85a4.93 4.93 0 01-1.2 3.7 3.09 3.09 0 01-1.7.55c-2.21 0-3.6-1.82-3.6-5a4.87 4.87 0 011.06-3.44 2.78 2.78 0 012.06-.67m.38-1.44a5.19 5.19 0 00-4 1.71 7.06 7.06 0 00-.15 8.66 5.36 5.36 0 007.71 0 6.38 6.38 0 001.48-4.34c0-3.71-1.84-6.04-5.04-6.04zm13.92 5.78a5.85 5.85 0 01.46-2.72 3.29 3.29 0 012.81-1.36c1.75 0 2.81 1.72 2.81 4.6a5.39 5.39 0 01-1 3.65 2.45 2.45 0 01-1.82.67c-1.92 0-3.22-1.84-3.22-4.84m3.75-5.4a4.85 4.85 0 00-4.42 2.68h-.07a8.33 8.33 0 01.6-3.09 4.3 4.3 0 01.84-1.37 5.46 5.46 0 013.55-1.56c1.73-.17 2.76-.46 3.12-.86a3.08 3.08 0 00-.07-1.92c-.34.4-1.34.72-3 .91a6 6 0 00-4.9 2.85 12.72 12.72 0 00-1.51 6.51c0 4.77 1.92 7.44 5.19 7.44a4.53 4.53 0 003.76-1.73 7.18 7.18 0 001.37-4.58c-.04-3.34-1.79-5.28-4.5-5.28zm10.37 11.32h.6a14.52 14.52 0 01-2.47 4 1.82 1.82 0 001.54 1.1c.79-1 1.82-3.45 3.14-7.25l.89-2.56 1-3.15c.55-1.61.94-2.76 1.2-3.43h-1.94c-.27 1.25-.7 2.9-1.27 4.94s-1 3.53-1.4 4.45h-.12c-1.82-4.9-2.88-8-3.19-9.39h-2.57zM422.91 903c-.5.67-1.15 1.54-2.11 2.71s-1.8 2-2.06 2h-.51v-1.1a33.26 33.26 0 01.15-3.65h-2.31c.12 1.46.17 3.17.17 5.14v.84c0 2.13-.05 3.91-.17 5.32h2.31c-.1-.93-.15-2.47-.15-4.58v-1h.51c.26 0 .67.48 1.2 1.39.36.56 1 1.59 1.65 2.45l.31.41a10 10 0 001.4 1.61 5.13 5.13 0 002.16-.34 31.78 31.78 0 01-3.53-4.46l-1.25-1.78c.38-.38 1.18-1.22 2.35-2.54s2-2.14 2.26-2.45zm6.79 6a13.6 13.6 0 012-.1c1.54 0 2.74.58 2.74 2a2.18 2.18 0 01-.94 2 5.5 5.5 0 01-2.16.28 4.72 4.72 0 01-1.61-.19zm0-4.85a6.43 6.43 0 011.68-.19c1.73 0 2.6.62 2.6 1.87a2 2 0 01-1.76 1.9 12.06 12.06 0 01-2.52 0zm1.83-1.49a30.11 30.11 0 00-4 .29c.12 1.32.17 2.93.17 4.8v.94c0 2.23 0 4.1-.17 5.56a19.07 19.07 0 003.51.27c3.29 0 5.4-1.27 5.4-3.55a2.6 2.6 0 00-2.52-2.76v-.12a2.8 2.8 0 002.06-2.62q.02-2.8-4.45-2.81zm17.71 6.17c0 2.09-.05 3.89-.17 5.42h2.23c-.09-1-.14-2.88-.14-5.64v-1c0-2.23 0-3.77.14-4.63h-2.18c.07 1.44.12 3 .12 4.73zm-3.7 1.66a2.61 2.61 0 01-.86 2.13 3.48 3.48 0 01-1.58.41 4.06 4.06 0 01-1.64-.22 30.05 30.05 0 010-4.65c2.48-.6 4.08.31 4.08 2.33zm-6.16-7.49a44.72 44.72 0 01.16 4.8v.94c0 2.61 0 4.44-.16 5.44a17.84 17.84 0 003.26.27c3.24 0 4.82-1.63 4.82-3.91a3.34 3.34 0 00-1.65-3.17 5.79 5.79 0 00-4.27-.39v-1.29a16 16 0 01.14-2.69zm15.33 9.77a1.56 1.56 0 001.54.19l2.78-5-2.66-4.73a1.54 1.54 0 00-.91 0 1.74 1.74 0 00-.8.41l2.64 4.53zm3.75.07a1.76 1.76 0 001.65.12l2.57-4.68-2.59-5a1.26 1.26 0 00-1.39.44l2.3 4.39zm15.6-8.84c2.28 0 3.38 2 3.38 4.85a5 5 0 01-1.2 3.7 3.11 3.11 0 01-1.7.55c-2.21 0-3.6-1.82-3.6-5a4.91 4.91 0 011.05-3.44 2.82 2.82 0 012.07-.67m.38-1.44a5.21 5.21 0 00-4 1.71 6.29 6.29 0 00-1.56 4.44 6.17 6.17 0 001.42 4.22 5.35 5.35 0 007.7 0 6.34 6.34 0 001.49-4.34c-.01-3.71-1.86-6.04-5.05-6.04zm9.96 3.33a3.32 3.32 0 011.87-1.54 3 3 0 01.91-.09c1.76.07 2.79 1.48 2.79 4.1a5.38 5.38 0 01-1.39 4.13 4.13 4.13 0 01-2.52.69 4.34 4.34 0 01-1.66-.28zm-2.18-2.81c.12 1.37.19 3.7.19 7v1.18c0 4-.07 6.53-.19 7.63h2.32c-.09-.94-.14-2.23-.14-3.91v-.67a7.27 7.27 0 001.54.19 6.28 6.28 0 004.39-1.71 6.2 6.2 0 001.82-4.75c0-3-1.32-4.8-3.5-5.18a4.13 4.13 0 00-1.66.29 3.43 3.43 0 00-2.66 1.51v-1.87zm22.32 11.18c-.08-1.29-.12-2.88-.12-4.75v-1.61c0-1.75 0-3.4.12-4.94h-1.78c-.31.6-1.3 2-2.9 4.32s-2.55 3.67-2.86 4.2h-.12a37.41 37.41 0 00.14-3.94v-1.65a23.24 23.24 0 01.12-2.93h-2.28c.12 1.42.17 3.07.17 4.92v1c0 2.38 0 4.17-.17 5.37h1.85c.43-.74 1.42-2.23 3-4.41s2.48-3.58 2.79-4.13h.07c-.07.82-.1 2.23-.1 4.25v1.34a19.61 19.61 0 01-.16 3zm5.78 0c-.12-1.17-.19-3.45-.19-6.81v-3h1.53a27.68 27.68 0 013.32.15V903h-7c.12 1.27.17 2.71.17 4.32v1.08c0 2.38-.05 4.32-.17 5.88zm16.34 0c-.07-1.29-.12-2.88-.12-4.75v-1.61c0-1.75.05-3.4.12-4.94h-1.77c-.31.6-1.3 2-2.91 4.32s-2.54 3.67-2.85 4.2H519c.09-.84.14-2.14.14-3.94v-1.65a23.24 23.24 0 01.12-2.93H517c.12 1.42.17 3.07.17 4.92v1c0 2.38 0 4.17-.17 5.37h1.85c.43-.74 1.42-2.23 2.95-4.41s2.47-3.58 2.79-4.13h.07c-.07.82-.1 2.23-.1 4.25v1.34a19.4 19.4 0 01-.17 3zm12.99 0c-.1-1.6-.15-3.35-.15-5.23v-.77c0-2.42 0-4.2.15-5.3h-2.28a27.15 27.15 0 01.17 3.6v1a38.76 38.76 0 01-5.28 0v-.87a32.67 32.67 0 01.14-3.74h-2.3c.12 1.1.16 2.88.16 5.33v.73c0 2.14 0 3.92-.16 5.28h2.3c-.1-.88-.14-2.35-.14-4.34V909a38.77 38.77 0 015.28 0v.94a40.58 40.58 0 01-.17 4.34zm4.85-3.25a2.2 2.2 0 01.57-1.51 5.22 5.22 0 012.91-.58 7.1 7.1 0 011.36.2v2.35a3.41 3.41 0 01-2.85 1.58 1.92 1.92 0 01-2-2m6.88-4c0-3.15-1.17-4.35-3.64-4.35a10.88 10.88 0 00-4.71 1.25 1.55 1.55 0 00.43 1.2 7.28 7.28 0 013.44-1c1.92 0 2.44 1 2.42 3.58-4.9.07-6.91 1.08-6.91 3.74a3 3 0 003.14 3.05 4.73 4.73 0 003.82-1.9h.07a14.76 14.76 0 00.17 1.88l1.94-.2a35.68 35.68 0 01-.17-4.82zm12.37 7.21c-.07-1.1-.12-2.92-.12-5.47v-.89c0-2.32 0-4 .12-4.94h-7.63a12.46 12.46 0 01.19 2.38v.67c0 4.83-.81 6.84-2.52 6.58a3.09 3.09 0 00.05 1.92c3.07.46 4.27-2.45 4.27-8.33v-1.75h3.55v5a43.25 43.25 0 01-.19 4.89zm9.72-3.76a2.4 2.4 0 01-1 2.13 3.42 3.42 0 01-1.85.39 4.33 4.33 0 01-1.58-.2 30.05 30.05 0 010-4.65c2.78-.65 4.41.31 4.41 2.33m-6.55-7.49a37.69 37.69 0 01.17 4.61v.89c0 2.71 0 4.6-.15 5.68a18 18 0 003.34.27c3.45 0 5.21-1.54 5.21-3.91a3.47 3.47 0 00-1.73-3.27 6.49 6.49 0 00-4.68-.29v-1.27a17.11 17.11 0 01.14-2.71zm20.59 11.25c-.1-1.6-.14-3.35-.14-5.23v-.77c0-2.42 0-4.2.14-5.3h-2.28a27.15 27.15 0 01.17 3.6v1a38.76 38.76 0 01-5.28 0v-.87a35.23 35.23 0 01.14-3.74h-2.3c.12 1.1.17 2.88.17 5.33v.73c0 2.14-.05 3.92-.17 5.28h2.3c-.09-.88-.14-2.35-.14-4.34V909a38.77 38.77 0 015.28 0v.94a40.58 40.58 0 01-.17 4.34zm6.65 0h.6a15 15 0 01-2.47 4 1.8 1.8 0 001.53 1.1c.79-1 1.83-3.45 3.15-7.25l.88-2.56 1-3.15c.55-1.61.93-2.76 1.2-3.43h-1.95c-.26 1.25-.69 2.9-1.27 4.94a46 46 0 01-1.39 4.45h-.12a98.94 98.94 0 01-3.19-9.39h-2.57zm21.67-5.97c0-3.58-1.87-5.74-4.73-5.74a4.74 4.74 0 00-3.53 1.44 5.75 5.75 0 00-1.56 3.67 8.07 8.07 0 01-1 0 6.21 6.21 0 01-.93 0v-1a31.65 31.65 0 01.14-3.65h-2.3a49.92 49.92 0 01.16 5.14v.57c0 1.78 0 3.65-.16 5.59h2.3a36.32 36.32 0 01-.14-4.12V909a3.51 3.51 0 011-.07 3.75 3.75 0 011 .07 6.52 6.52 0 001.39 4 4.7 4.7 0 007.08-.14 7 7 0 001.37-4.56m-5.33-4.39c2.19 0 3.22 1.92 3.22 4.8 0 2-.39 3.38-1.13 4a2.72 2.72 0 01-1.56.45c-1.94 0-3.17-1.82-3.17-4.87a5.85 5.85 0 011-3.79 2.34 2.34 0 011.55-.61zm-421.65 38.43c-.12-1.18-.19-3.46-.19-6.82v-3h1.53a27.68 27.68 0 013.32.15V931h-7c.12 1.27.17 2.71.17 4.32v1.08c0 2.38 0 4.32-.17 5.88zm8.83-8.34a3.35 3.35 0 011.87-1.54 3.08 3.08 0 01.92-.09c1.75.07 2.78 1.49 2.78 4.1a5.38 5.38 0 01-1.39 4.13 4.06 4.06 0 01-2.52.7 4.33 4.33 0 01-1.66-.29zm-2.18-2.81c.12 1.37.19 3.7.19 7v1.18c0 4-.07 6.53-.19 7.63h2.33a38.88 38.88 0 01-.15-3.91v-.67a7.35 7.35 0 001.54.19 6.29 6.29 0 004.39-1.7 6.21 6.21 0 001.83-4.76c0-3-1.32-4.8-3.51-5.18a4.34 4.34 0 00-1.66.29 3.48 3.48 0 00-2.66 1.51v-1.87zm14.06 7.88a2.23 2.23 0 01.58-1.51 5.18 5.18 0 012.9-.58 8 8 0 011.37.2v2.35a3.41 3.41 0 01-2.85 1.58 1.93 1.93 0 01-2-2m6.89-4c0-3.15-1.17-4.35-3.65-4.35a10.87 10.87 0 00-4.7 1.25 1.52 1.52 0 00.43 1.2 7.27 7.27 0 013.43-1c1.92 0 2.45 1 2.43 3.58-4.9.07-6.91 1.08-6.91 3.74a3 3 0 003.14 3 4.77 4.77 0 003.82-1.89h.07a12.86 12.86 0 00.17 1.87l1.94-.19a35.87 35.87 0 01-.17-4.83zm8.11 6.15a3 3 0 01-2.4-1.3 5.58 5.58 0 01-1-3.43c0-2 .69-3.46 1.66-4.11a3 3 0 011.39-.36 3.2 3.2 0 011.15.05c.07 4.25.09 7.27 0 9.07a3.09 3.09 0 01-.84.08m3.84-9.2c1.64 0 3 1.71 3 4.52 0 2-.5 3.36-1.49 4.17a4.91 4.91 0 01-2.74.51c-.07-3.1-.07-6.12 0-9.1a4.89 4.89 0 011.27-.1zm-1 14.93a27.78 27.78 0 01-.19-3.89v-.57a5.5 5.5 0 004.67-1.53 6.67 6.67 0 001.6-4.75c0-2.88-1.36-4.92-3.55-5.38a4.52 4.52 0 00-1.08-.07 6.24 6.24 0 00-1.56.24v-1.06c0-2.71.08-4.2.1-4.46a3.63 3.63 0 00-1.13-.07 4.21 4.21 0 00-1.08.12c.08.67.1 2.08.1 4.24v1a5.5 5.5 0 00-4.37 1.39 5.69 5.69 0 00-1.75 4.44c0 3.34 1.7 5.5 4.13 5.91a5.46 5.46 0 001 .05 3.53 3.53 0 001-.15v.51a38.91 38.91 0 01-.15 4zm18.49-4.65c-.07-1.3-.12-2.88-.12-4.76V936c0-1.76.05-3.41.12-5h-1.77c-.32.6-1.3 2-2.91 4.32s-2.54 3.67-2.85 4.2h-.12c.09-.84.14-2.13.14-3.93V934a23.24 23.24 0 01.12-2.93h-2.28c.12 1.42.17 3.07.17 4.92v1c0 2.38 0 4.18-.17 5.38h1.85c.43-.75 1.41-2.24 2.95-4.42s2.47-3.58 2.78-4.13h.08c-.08.82-.1 2.23-.1 4.25v1.34a19.63 19.63 0 01-.17 3zM256.18 931c-.5.67-1.15 1.54-2.11 2.71s-1.8 2-2.06 2h-.51v-1.1a33.39 33.39 0 01.15-3.65h-2.31c.12 1.47.17 3.17.17 5.14v.9c0 2.13 0 3.91-.17 5.33h2.31c-.1-.94-.15-2.48-.15-4.59v-1h.5c.26 0 .67.48 1.2 1.4.36.55 1 1.58 1.65 2.44l.32.41a9.62 9.62 0 001.39 1.61 5.07 5.07 0 002.16-.34 33.35 33.35 0 01-3.53-4.46L254 936c.39-.38 1.18-1.22 2.35-2.54s1.95-2.14 2.26-2.45zm7.82 11.34h.6a14.93 14.93 0 01-2.47 4 1.82 1.82 0 001.54 1.1c.79-1 1.82-3.45 3.14-7.24l.89-2.57 1-3.15c.55-1.6.94-2.76 1.2-3.43H268c-.27 1.25-.7 2.91-1.28 5a45.55 45.55 0 01-1.39 4.44h-.12c-1.82-4.9-2.88-8-3.19-9.39h-2.57zm12.42-9.46a5.67 5.67 0 012.83-.74c1.51 0 2.33.74 2.33 1.92a2.07 2.07 0 01-2.28 1.94 5.23 5.23 0 01-1.54-.17 1.57 1.57 0 000 1.46 5.93 5.93 0 011.66-.17c1.53 0 2.66.75 2.66 2a2 2 0 01-.91 1.78 3.89 3.89 0 01-1.8.36 5.31 5.31 0 01-3.05-.89 2.3 2.3 0 00-.65 1.32 4.26 4.26 0 001.44.65 7.49 7.49 0 002.11.31c2.91 0 5-1.25 5-3.67a2.6 2.6 0 00-2.52-2.55v-.12a2.91 2.91 0 002-2.73c0-1.64-1.25-2.86-3.62-2.86a8.4 8.4 0 00-4 .86 2.62 2.62 0 00.36 1.3m12.12 6.19a2.18 2.18 0 01.58-1.51A5.15 5.15 0 01292 937a8.1 8.1 0 011.37.2v2.35a3.43 3.43 0 01-2.86 1.58 1.93 1.93 0 01-2-2m6.89-4c0-3.15-1.18-4.35-3.65-4.35a10.81 10.81 0 00-4.7 1.25 1.52 1.52 0 00.43 1.2 7.21 7.21 0 013.43-1c1.92 0 2.45 1 2.42 3.58-4.89.07-6.91 1.08-6.91 3.74a3 3 0 003.15 3 4.75 4.75 0 003.81-1.89h.07a14.54 14.54 0 00.17 1.87l1.95-.19a35.87 35.87 0 01-.17-4.83zm12.86-4.41a5.23 5.23 0 00-3.89 1.66 6 6 0 00-1.58 4.29 6.26 6.26 0 001.44 4.32 5 5 0 003.84 1.61 6.31 6.31 0 003.63-1.08 1.55 1.55 0 00-.29-1 5.17 5.17 0 01-2.4.62c-2.5 0-4.11-2-4.11-5a4.52 4.52 0 011.2-3.32 2.75 2.75 0 011.87-.57 4.18 4.18 0 012.79.93 2.56 2.56 0 00.84-1.46 4.76 4.76 0 00-3.34-1m5.21.28a19.87 19.87 0 01.14 2.88V935c0 2.52 1.25 3.53 3.46 3.53a6.68 6.68 0 003.17-.87V939a16.45 16.45 0 01-.22 3.39h2.38c-.12-1.13-.17-2.86-.17-5.19v-1c0-2.14 0-3.82.17-5.07h-2.33a29.87 29.87 0 01.17 3.48v2a5 5 0 01-2.42.53c-1.61 0-2.21-.77-2.21-2.62 0-1.05.05-2.2.16-3.43zm19.27-3.93a1.09 1.09 0 00-1.08 1.06 1.07 1.07 0 001.08 1 1 1 0 100-2.09m-4.58 0a1 1 0 100 2.09 1 1 0 100-2.09zm-.79 8.67a5 5 0 01.36-1.73 4 4 0 01.76-1.39 3.66 3.66 0 012-.56 2.61 2.61 0 011.85.7 2.32 2.32 0 01.74 1.8 1.24 1.24 0 01-.16.72 12.48 12.48 0 01-2.52.31c-1.4.13-2.4.18-3.03.18zm3.43-5a4.91 4.91 0 00-4 1.75 6.45 6.45 0 00-1.44 4.23c0 3.62 1.94 5.85 5.23 5.85a6.57 6.57 0 004.17-1.37 1.42 1.42 0 00-.38-1 5.26 5.26 0 01-3.12.86c-2.28 0-3.79-1.3-3.89-4.1l1.76-.15a33.82 33.82 0 005.78-.77 4.22 4.22 0 00.24-1.41 3.8 3.8 0 00-1.15-2.7 4.14 4.14 0 00-3.2-1.18zm5.69 1.98a18.61 18.61 0 012.78-.15h1v2.69a67 67 0 01-.22 7.11h2.43c-.12-1.18-.19-3.53-.19-7v-2.76h1a16.23 16.23 0 012.76.15V931h-9.48zm23.04-1.69c-.51.67-1.16 1.54-2.12 2.71s-1.8 2-2.06 2h-.5v-1.1A33.9 33.9 0 01355 931h-2.3c.12 1.47.16 3.17.16 5.14v.86c0 2.13 0 3.91-.16 5.33h2.3c-.1-.94-.14-2.48-.14-4.59v-1h.5c.26 0 .67.48 1.2 1.4.36.55 1 1.58 1.66 2.44l.31.41a9.62 9.62 0 001.39 1.61 5.07 5.07 0 002.16-.34 33.35 33.35 0 01-3.53-4.46l-1.26-1.8c.39-.38 1.18-1.22 2.36-2.54s1.94-2.14 2.25-2.45zm9.14 1.06c2.28 0 3.38 2 3.38 4.85a4.93 4.93 0 01-1.2 3.7 3.09 3.09 0 01-1.7.55c-2.21 0-3.6-1.82-3.6-5a4.82 4.82 0 011.06-3.43 2.74 2.74 0 012.06-.68m.38-1.44a5.19 5.19 0 00-4 1.71 7.06 7.06 0 00-.15 8.66 5.36 5.36 0 007.71 0 6.34 6.34 0 001.48-4.34c0-3.64-1.84-6.02-5.04-6.02zm17.36 11.73c-.1-1.61-.15-3.36-.15-5.24v-.76q0-3.65.15-5.31h-2.28a27.51 27.51 0 01.16 3.6v1a22.27 22.27 0 01-2.64.1 22.5 22.5 0 01-2.64-.1v-.86a32.14 32.14 0 01.15-3.75h-2.31a53 53 0 01.17 5.33v.7c0 2.13 0 3.91-.17 5.28h2.31c-.1-.89-.15-2.36-.15-4.35v-.93a34.9 34.9 0 015.28 0v.95a41.41 41.41 0 01-.16 4.35zm2.08-9.65a18.85 18.85 0 012.79-.15h1v2.69a67 67 0 01-.22 7.11h2.43c-.12-1.18-.19-3.53-.19-7v-2.76h1a16.17 16.17 0 012.75.15V931h-9.48zm14.77 9.65h.59a14.43 14.43 0 01-2.47 4 1.82 1.82 0 001.54 1.1c.79-1 1.82-3.45 3.14-7.24l.89-2.57 1-3.15c.55-1.6.94-2.76 1.2-3.43h-1.94c-.27 1.25-.7 2.91-1.27 5a44.94 44.94 0 01-1.4 4.44h-.12c-1.82-4.9-2.88-8-3.19-9.39h-2.57zm9.88-8.34a3.35 3.35 0 011.87-1.54 3.08 3.08 0 01.92-.09c1.75.07 2.78 1.49 2.78 4.1a5.38 5.38 0 01-1.39 4.13 4.06 4.06 0 01-2.52.7 4.33 4.33 0 01-1.66-.29zm-2.14-2.85c.12 1.37.19 3.7.19 7v1.18c0 4-.07 6.53-.19 7.63h2.33a38.88 38.88 0 01-.15-3.91v-.67a7.35 7.35 0 001.54.19 6 6 0 006.21-6.46c0-3-1.32-4.8-3.5-5.18a4.34 4.34 0 00-1.66.29 3.48 3.48 0 00-2.66 1.51v-1.87zm22.16 11.19c-.1-1.61-.14-3.36-.14-5.24v-.76c0-2.43 0-4.2.14-5.31h-2.28a27.15 27.15 0 01.17 3.6v1a22.5 22.5 0 01-2.64.1 22.27 22.27 0 01-2.64-.1v-.86a35.32 35.32 0 01.14-3.75h-2.3c.12 1.11.16 2.88.16 5.33v.7c0 2.13 0 3.91-.16 5.28h2.3c-.09-.89-.14-2.36-.14-4.35v-.93a34.9 34.9 0 015.28 0v.95a40.91 40.91 0 01-.17 4.35zm7.94-10.28c2.28 0 3.39 2 3.39 4.85a5 5 0 01-1.2 3.7 3.12 3.12 0 01-1.71.55c-2.2 0-3.6-1.82-3.6-5a4.82 4.82 0 011.06-3.43 2.77 2.77 0 012.06-.68m.39-1.44a5.21 5.21 0 00-4 1.71 6.31 6.31 0 00-1.56 4.44 6.17 6.17 0 001.42 4.22 5.35 5.35 0 007.7 0 6.35 6.35 0 001.49-4.34c-.01-3.64-1.86-6.02-5.05-6.02zm10.82-4.81a2 2 0 00-1.44.67 3.06 3.06 0 003.27 2.57 3.28 3.28 0 003.45-2.76c-.14-.22-.45-.31-.91-.29a2.09 2.09 0 01-2.16 1.8 2.16 2.16 0 01-2.21-2m6.69 16.55c-.07-1.3-.12-2.88-.12-4.76V936c0-1.76.05-3.41.12-5h-1.78c-.31.6-1.29 2-2.9 4.32s-2.54 3.67-2.86 4.2h-.12a36.53 36.53 0 00.15-3.93V934a23.24 23.24 0 01.12-2.93h-2.28c.12 1.42.17 3.07.17 4.92v1c0 2.38 0 4.18-.17 5.38h1.85c.43-.75 1.41-2.24 2.95-4.42s2.47-3.58 2.78-4.13h.07c-.07.82-.09 2.23-.09 4.25v1.34a19.63 19.63 0 01-.17 3zm12.87-11.62a5.23 5.23 0 00-3.89 1.66 6 6 0 00-1.58 4.29 6.26 6.26 0 001.44 4.32 4.93 4.93 0 003.84 1.61 6.25 6.25 0 003.62-1.08 1.49 1.49 0 00-.28-1 5.2 5.2 0 01-2.4.62c-2.5 0-4.11-2-4.11-5a4.52 4.52 0 011.2-3.32 2.75 2.75 0 011.87-.57 4.2 4.2 0 012.79.93 2.56 2.56 0 00.84-1.46 4.76 4.76 0 00-3.34-1m4.56 1.97a18.7 18.7 0 012.78-.15h1v2.69a70 70 0 01-.22 7.11h2.42c-.12-1.18-.19-3.53-.19-7v-2.76h1a16.23 16.23 0 012.76.15V931h-9.48zm21.22 9.65c-.07-1.3-.12-2.88-.12-4.76V936c0-1.76.05-3.41.12-5h-1.78c-.31.6-1.29 2-2.9 4.32s-2.55 3.67-2.86 4.2H490a37.19 37.19 0 00.14-3.93V934a20.77 20.77 0 01.13-2.93H488c.13 1.42.17 3.07.17 4.92v1c0 2.38 0 4.18-.17 5.38h1.85c.44-.75 1.42-2.24 3-4.42s2.47-3.58 2.78-4.13h.07c-.07.82-.1 2.23-.1 4.25v1.34a19.84 19.84 0 01-.16 3zm12.45 0c-.07-1.11-.12-2.93-.12-5.48V936c0-2.33 0-4 .12-5h-7.63a12.46 12.46 0 01.19 2.38v.65c0 4.82-.81 6.84-2.52 6.57a3.09 3.09 0 00.05 1.92c3.07.46 4.27-2.45 4.27-8.33v-1.75c.29 0 .86-.05 1.75-.05s1.49 0 1.8.05v5a43.59 43.59 0 01-.19 4.9zm12.82 0c-.07-1.3-.12-2.88-.12-4.76V936c0-1.76.05-3.41.12-5h-1.78c-.31.6-1.29 2-2.9 4.32s-2.55 3.67-2.86 4.2h-.12a36.53 36.53 0 00.15-3.93V934a23.24 23.24 0 01.12-2.93h-2.28c.12 1.42.16 3.07.16 4.92v1c0 2.38 0 4.18-.16 5.38h1.85c.43-.75 1.41-2.24 2.95-4.42s2.47-3.58 2.78-4.13h.07c-.07.82-.09 2.23-.09 4.25v1.34a19.63 19.63 0 01-.17 3zm8.25-11.62a5.21 5.21 0 00-3.88 1.66 5.94 5.94 0 00-1.59 4.29 6.26 6.26 0 001.44 4.32 5 5 0 003.86 1.61 6.31 6.31 0 003.63-1.08 1.5 1.5 0 00-.29-1 5.14 5.14 0 01-2.4.62c-2.5 0-4.1-2-4.1-5a4.51 4.51 0 011.19-3.32 2.78 2.78 0 011.88-.57 4.15 4.15 0 012.78.93 2.51 2.51 0 00.84-1.46 4.76 4.76 0 00-3.34-1m4.54 1.97a18.85 18.85 0 012.79-.15h1v2.69a67 67 0 01-.22 7.11h2.43c-.12-1.18-.2-3.53-.2-7v-2.76h1a16.17 16.17 0 012.75.15V931h-9.48zm21.27 9.65c-.07-1.3-.12-2.88-.12-4.76V936c0-1.76 0-3.41.12-5h-1.78c-.31.6-1.29 2-2.9 4.32s-2.54 3.67-2.86 4.2h-.12a36.53 36.53 0 00.15-3.93V934a23.24 23.24 0 01.12-2.93h-2.28c.12 1.42.17 3.07.17 4.92v1c0 2.38-.05 4.18-.17 5.38h1.85c.43-.75 1.41-2.24 3-4.42s2.47-3.58 2.78-4.13h.07c-.07.82-.09 2.23-.09 4.25v1.34a19.63 19.63 0 01-.17 3zM567.22 931c-.5.67-1.15 1.54-2.11 2.71s-1.8 2-2.06 2h-.51v-1.1a33.39 33.39 0 01.15-3.65h-2.31c.12 1.47.17 3.17.17 5.14v.9c0 2.13 0 3.91-.17 5.33h2.31c-.1-.94-.15-2.48-.15-4.59v-1h.51c.26 0 .67.48 1.2 1.4.36.55 1 1.58 1.65 2.44l.31.41a10 10 0 001.4 1.61 5.13 5.13 0 002.16-.34 31.78 31.78 0 01-3.53-4.46L565 936c.38-.38 1.18-1.22 2.35-2.54s1.95-2.14 2.26-2.45zm14.31 11.34c-.07-1.3-.12-2.88-.12-4.76V936c0-1.76.05-3.41.12-5h-1.78c-.31.6-1.29 2-2.9 4.32s-2.55 3.67-2.86 4.2h-.12a37.19 37.19 0 00.14-3.93V934a20.77 20.77 0 01.13-2.93h-2.29c.13 1.42.17 3.07.17 4.92v1c0 2.38 0 4.18-.17 5.38h1.85c.44-.75 1.42-2.24 3-4.42s2.47-3.58 2.78-4.13h.07c-.07.82-.1 2.23-.1 4.25v1.34a19.84 19.84 0 01-.16 3zm-385.3 28.08c-.07-1.3-.12-2.88-.12-4.76v-1.6c0-1.76 0-3.41.12-4.95h-1.77c-.32.6-1.3 2-2.91 4.32s-2.54 3.67-2.85 4.2h-.13a36.53 36.53 0 00.15-3.93V962a23.24 23.24 0 01.12-2.93h-2.28c.12 1.42.17 3.07.17 4.92v1c0 2.38 0 4.18-.17 5.38h1.85c.43-.75 1.41-2.24 3-4.42s2.47-3.58 2.78-4.13h.07c-.07.82-.09 2.23-.09 4.25v1.34a19.63 19.63 0 01-.17 3zm17.5 0c-.1-1.37-.15-3.2-.15-5.5V964c0-.72 0-2.35.15-4.92h-9.41c.12 1.78.17 3.41.17 4.9v1c0 1.61-.05 3.38-.17 5.38h2.3c-.09-1.42-.14-3.58-.14-6.53v-3.34a21.35 21.35 0 012.54-.09 22.47 22.47 0 012.59.09v3.27c0 3-.07 5.18-.19 6.6zm7.92-10.28c2.28 0 3.38 2 3.38 4.85a5 5 0 01-1.2 3.7 3.11 3.11 0 01-1.7.55c-2.21 0-3.6-1.82-3.6-5a4.87 4.87 0 011.05-3.43 2.78 2.78 0 012.07-.68m.38-1.44a5.21 5.21 0 00-4 1.71 6.31 6.31 0 00-1.56 4.44 6.17 6.17 0 001.42 4.22 5.35 5.35 0 007.7-.05 6.3 6.3 0 001.49-4.34c-.01-3.67-1.86-5.97-5.08-5.97zm16.82 11.73c-.07-1.11-.11-2.93-.11-5.48v-.88c0-2.33 0-4 .11-4.95h-7.63a12.46 12.46 0 01.19 2.38v.65c0 4.82-.81 6.84-2.52 6.57a3.09 3.09 0 00.05 1.92c3.07.46 4.27-2.45 4.27-8.33v-1.75h3.55v5a43.59 43.59 0 01-.19 4.9zm6.36 0h.6a14.43 14.43 0 01-2.47 4 1.82 1.82 0 001.54 1.1c.79-1 1.82-3.45 3.14-7.24l.89-2.57 1-3.15c.55-1.6.94-2.76 1.2-3.43h-1.91c-.27 1.25-.7 2.91-1.27 4.95a44.94 44.94 0 01-1.4 4.44h-.12c-1.82-4.9-2.88-8-3.19-9.39h-2.57zm7.04-11.31a21.45 21.45 0 01.14 2.88v1.06c0 2.52 1.25 3.53 3.46 3.53a6.65 6.65 0 003.16-.87V967a17.48 17.48 0 01-.21 3.39h2.37c-.12-1.13-.16-2.86-.16-5.19v-1.05c0-2.14 0-3.82.16-5.07h-2.32a30.06 30.06 0 01.16 3.48v2a4.92 4.92 0 01-2.42.53c-1.61 0-2.21-.77-2.21-2.62 0-1 .05-2.2.17-3.43zm22 11.31c-.07-1.3-.12-2.88-.12-4.76v-1.6c0-1.76.05-3.41.12-4.95h-1.77c-.31.6-1.3 2-2.91 4.32s-2.54 3.67-2.85 4.2h-.12c.09-.84.14-2.13.14-3.93V962a23.24 23.24 0 01.12-2.93h-2.28c.12 1.42.17 3.07.17 4.92v1c0 2.38-.05 4.18-.17 5.38h1.85c.43-.75 1.42-2.24 2.95-4.42s2.47-3.58 2.79-4.13h.07c-.07.82-.1 2.23-.1 4.25v1.34a19.63 19.63 0 01-.17 3zm4.97 0c-.07-2.64-.05-5.57.1-8.79h.12c.17.48.5 1.25 1 2.33l.88 1.87 1.11 2.47h1.13l.93-1.89c.89-1.9 1.61-3.46 2.11-4.73h.15c0 .36 0 1.7.05 4.06s0 3.88 0 4.68h2.2c-.26-2-.43-4.88-.55-8.64l-.05-2.67h-1.94c-.34.89-1.35 3.07-3 6.58h-.09c-.72-1.37-1.78-3.58-3.15-6.58h-2l-.19 4c-.19 3.34-.38 5.76-.55 7.28zm18.96-6.6a5 5 0 01.36-1.73 4 4 0 01.77-1.39 3.63 3.63 0 012-.56 2.64 2.64 0 011.85.7 2.32 2.32 0 01.74 1.8 1.24 1.24 0 01-.17.72 12.24 12.24 0 01-2.52.31q-2.06.15-3 .15m3.43-5a4.93 4.93 0 00-4 1.75 6.45 6.45 0 00-1.44 4.23c0 3.62 1.95 5.85 5.24 5.85a6.61 6.61 0 004.17-1.37 1.42 1.42 0 00-.38-1 5.28 5.28 0 01-3.12.86c-2.28 0-3.8-1.3-3.89-4.1l1.75-.15a33.94 33.94 0 005.79-.77 4.47 4.47 0 00.23-1.41 3.79 3.79 0 00-1.12-2.71 4.18 4.18 0 00-3.26-1.2zm9.96 1.73a8.5 8.5 0 011.66-.09 8.89 8.89 0 011.68.09V969h-5.09c1-1.06 1.72-4.18 1.75-8.43m-3 12.72v-2.85h8.23v2.85h1.73V969h-1.51c-.08-.77-.12-2.24-.12-4.4v-.76c0-2 0-3.53.14-4.71h-7.37a18.07 18.07 0 01.15 2.4 18.81 18.81 0 01-.67 5c-.44 1.63-1 2.45-1.57 2.45h-.74v4.29zm21.89-2.87c-.07-1.3-.12-2.88-.12-4.76v-1.6c0-1.76.05-3.41.12-4.95h-1.78c-.31.6-1.29 2-2.9 4.32s-2.55 3.67-2.86 4.2h-.12a36.53 36.53 0 00.15-3.93V962a21.37 21.37 0 01.12-2.93h-2.28c.12 1.42.16 3.07.16 4.92v1c0 2.38 0 4.18-.16 5.38h1.84c.44-.75 1.42-2.24 3-4.42s2.47-3.58 2.78-4.13h.07c-.07.82-.09 2.23-.09 4.25v1.34a19.63 19.63 0 01-.17 3zm12.98 0a94.13 94.13 0 01-.14-5.24v-.76c0-2.43.05-4.2.14-5.31h-2.28a27.15 27.15 0 01.17 3.6v1a34.9 34.9 0 01-5.28 0v-.86a35.32 35.32 0 01.14-3.75h-2.3c.12 1.11.17 2.88.17 5.33v.7c0 2.13 0 3.91-.17 5.28h2.3c-.09-.89-.14-2.36-.14-4.35v-.93a34.9 34.9 0 015.28 0v.93a40.91 40.91 0 01-.17 4.35zm13.3-5.42c0 2.09 0 3.89-.17 5.43h2.23c-.09-1-.14-2.88-.14-5.64v-1c0-2.23.05-3.76.14-4.63h-2.18c.07 1.44.12 3 .12 4.73zm-3.7 1.66a2.64 2.64 0 01-.86 2.13 3.48 3.48 0 01-1.59.41 4.27 4.27 0 01-1.62-.2 30.19 30.19 0 010-4.66c2.46-.62 4.07.29 4.07 2.31zm-6.17-7.54a44 44 0 01.17 4.8v.94c0 2.61-.05 4.44-.17 5.45a19.08 19.08 0 003.27.26c3.24 0 4.82-1.63 4.82-3.91a3.34 3.34 0 00-1.65-3.17 5.77 5.77 0 00-4.28-.38v-1.3a15.65 15.65 0 01.15-2.69zm18.36-5.24a2 2 0 00-1.44.67 3.06 3.06 0 003.27 2.57 3.28 3.28 0 003.45-2.76c-.14-.22-.45-.31-.91-.29a2.09 2.09 0 01-2.16 1.8 2.17 2.17 0 01-2.21-2m6.65 16.54c-.07-1.3-.12-2.88-.12-4.76v-1.6c0-1.76 0-3.41.12-4.95h-1.77c-.32.6-1.3 2-2.91 4.32s-2.54 3.67-2.85 4.2h-.12c.09-.84.14-2.13.14-3.93V962a23.24 23.24 0 01.12-2.93h-2.28c.12 1.42.17 3.07.17 4.92v1c0 2.38-.05 4.18-.17 5.38h1.85c.43-.75 1.41-2.24 3-4.42s2.47-3.58 2.78-4.13h.08c-.08.82-.1 2.23-.1 4.25v1.34a19.63 19.63 0 01-.17 3zm10.25-5.25a13.51 13.51 0 012-.1c1.53 0 2.73.58 2.73 2a2.19 2.19 0 01-.93 2 5.52 5.52 0 01-2.16.29 4.65 4.65 0 01-1.61-.2zm0-4.85a6.32 6.32 0 011.68-.19c1.73 0 2.59.62 2.59 1.87a2 2 0 01-1.75 1.9 12.74 12.74 0 01-2.52.05zm1.82-1.49a30 30 0 00-4 .29c.12 1.32.17 2.93.17 4.8v.94c0 2.23-.05 4.1-.17 5.57a20.1 20.1 0 003.5.26c3.29 0 5.4-1.27 5.4-3.55a2.6 2.6 0 00-2.52-2.76v-.12a2.81 2.81 0 002.07-2.62q.02-2.8-4.43-2.81zm17.52 11.6c-.07-1.3-.12-2.88-.12-4.76v-1.6c0-1.76.05-3.41.12-4.95h-1.77c-.31.6-1.3 2-2.91 4.32s-2.54 3.67-2.85 4.2h-.12c.09-.84.14-2.13.14-3.93V962a23.24 23.24 0 01.12-2.93h-2.28c.12 1.42.17 3.07.17 4.92v1c0 2.38-.05 4.18-.17 5.38h1.85c.43-.75 1.42-2.24 2.95-4.42s2.47-3.58 2.79-4.13h.07c-.07.82-.1 2.23-.1 4.25v1.34a19.63 19.63 0 01-.17 3zm3.44-9.42a5.67 5.67 0 012.83-.74c1.51 0 2.33.74 2.33 1.92a2.07 2.07 0 01-2.28 1.92 5.23 5.23 0 01-1.54-.17 1.57 1.57 0 000 1.46 5.93 5.93 0 011.66-.17c1.53 0 2.66.75 2.66 2a2 2 0 01-.91 1.78 3.89 3.89 0 01-1.8.36 5.31 5.31 0 01-3.05-.89 2.3 2.3 0 00-.65 1.32 4.26 4.26 0 001.44.65 7.49 7.49 0 002.11.31c2.91 0 5-1.25 5-3.67a2.6 2.6 0 00-2.52-2.55v-.12a2.91 2.91 0 002-2.73c0-1.64-1.25-2.86-3.62-2.86a8.4 8.4 0 00-4 .86 2.62 2.62 0 00.36 1.3m13.92 9.44h.6a14.93 14.93 0 01-2.47 4 1.81 1.81 0 001.53 1.1c.8-1 1.83-3.45 3.15-7.24l.89-2.57 1-3.15c.55-1.6.93-2.76 1.2-3.43h-1.95c-.26 1.25-.69 2.91-1.27 4.95a45.55 45.55 0 01-1.39 4.44h-.12c-1.82-4.9-2.88-8-3.19-9.39h-2.57zm9.12-3.27a2.23 2.23 0 01.58-1.51 5.18 5.18 0 012.9-.58 8 8 0 011.37.2v2.35a3.41 3.41 0 01-2.85 1.58 1.93 1.93 0 01-2-2m6.89-4c0-3.15-1.17-4.35-3.65-4.35a10.87 10.87 0 00-4.7 1.25 1.52 1.52 0 00.43 1.2 7.27 7.27 0 013.43-1c1.92 0 2.45 1 2.43 3.58-4.9.07-6.91 1.08-6.91 3.74a3 3 0 003.14 3 4.77 4.77 0 003.82-1.89h.12a12.86 12.86 0 00.17 1.87l1.94-.19a35.87 35.87 0 01-.17-4.83zm12.38 7.23c-.07-1.11-.12-2.93-.12-5.48v-.88c0-2.33.05-4 .12-4.95h-7.63a12.46 12.46 0 01.19 2.38v.65c0 4.82-.81 6.84-2.52 6.57a3 3 0 00.05 1.92c3.07.46 4.27-2.45 4.27-8.33v-1.75h3.55v5a43.59 43.59 0 01-.19 4.9zm9.73-3.77a2.4 2.4 0 01-1 2.13 3.42 3.42 0 01-1.85.39 4.4 4.4 0 01-1.58-.19 30.19 30.19 0 010-4.66c2.78-.65 4.41.31 4.41 2.33m-6.57-7.54a38.51 38.51 0 01.16 4.61v.89c0 2.71 0 4.61-.14 5.69a19 19 0 003.34.26c3.45 0 5.2-1.54 5.2-3.91a3.47 3.47 0 00-1.72-3.27 6.49 6.49 0 00-4.68-.28v-1.28a15.94 15.94 0 01.14-2.71zM471 970.42c-.1-1.61-.15-3.36-.15-5.24v-.76q0-3.64.15-5.31h-2.28a27.15 27.15 0 01.17 3.6v1a22.5 22.5 0 01-2.64.1 22.27 22.27 0 01-2.64-.1v-.86a32.76 32.76 0 01.14-3.75h-2.3c.12 1.11.16 2.88.16 5.33v.7c0 2.13 0 3.91-.16 5.28h2.3c-.1-.89-.14-2.36-.14-4.35v-.93a34.9 34.9 0 015.28 0v.93a40.91 40.91 0 01-.17 4.35zm13.3-5.42c0 2.09 0 3.89-.16 5.43h2.23c-.1-1-.15-2.88-.15-5.64v-1c0-2.23 0-3.76.15-4.63h-2.19c.08 1.44.12 3 .12 4.73zm-3.69 1.66a2.62 2.62 0 01-.87 2.13 3.41 3.41 0 01-1.58.41 4.27 4.27 0 01-1.63-.21 30.19 30.19 0 010-4.66c2.47-.61 4.08.3 4.08 2.32zm-6.17-7.54a44 44 0 01.17 4.8v.94c0 2.61-.05 4.44-.17 5.45a18.87 18.87 0 003.26.26c3.24 0 4.83-1.63 4.83-3.91a3.33 3.33 0 00-1.66-3.17 5.75 5.75 0 00-4.27-.38v-1.3a17.16 17.16 0 01.14-2.69zm18.36-5.24a2 2 0 00-1.44.67 3 3 0 003.26 2.57 3.29 3.29 0 003.46-2.76c-.14-.22-.46-.31-.91-.29a2.09 2.09 0 01-2.16 1.8 2.16 2.16 0 01-2.21-2m6.65 16.54c-.07-1.3-.12-2.88-.12-4.76v-1.6c0-1.76.05-3.41.12-4.95h-1.78c-.31.6-1.29 2-2.9 4.32s-2.55 3.67-2.86 4.2h-.12a36.53 36.53 0 00.15-3.93V962a21.37 21.37 0 01.12-2.93h-2.28c.12 1.42.16 3.07.16 4.92v1c0 2.38 0 4.18-.16 5.38h1.84c.44-.75 1.42-2.24 3-4.42s2.47-3.58 2.78-4.13h.07c-.07.82-.09 2.23-.09 4.25v1.34a19.63 19.63 0 01-.17 3zm9.55-5.92a5.68 5.68 0 01.46-2.71 3.26 3.26 0 012.8-1.37c1.76 0 2.81 1.73 2.81 4.61a5.38 5.38 0 01-1 3.64 2.47 2.47 0 01-1.82.68c-1.92 0-3.22-1.85-3.22-4.85m3.74-5.4a4.85 4.85 0 00-4.41 2.69h-.07a8.34 8.34 0 01.6-3.1 4.13 4.13 0 01.84-1.37 5.46 5.46 0 013.55-1.56c1.73-.17 2.76-.45 3.12-.86a3.15 3.15 0 00-.07-1.92c-.34.41-1.35.72-3 .91a6 6 0 00-4.9 2.86 12.56 12.56 0 00-1.51 6.5c0 4.78 1.92 7.44 5.18 7.44a4.54 4.54 0 003.77-1.73 7.24 7.24 0 001.37-4.58c-.03-3.37-1.78-5.28-4.5-5.28zM529 970.42c-.07-1.11-.12-2.93-.12-5.48v-.88c0-2.33 0-4 .12-4.95h-7.63a12.46 12.46 0 01.19 2.38v.65c0 4.82-.82 6.84-2.52 6.57a3 3 0 000 1.92c3.07.46 4.27-2.45 4.27-8.33v-1.75h3.56v5a42.89 42.89 0 01-.2 4.9zm7.62-10.28c2.28 0 3.39 2 3.39 4.85a5 5 0 01-1.2 3.7 3.12 3.12 0 01-1.71.55c-2.2 0-3.6-1.82-3.6-5a4.82 4.82 0 011.06-3.43 2.77 2.77 0 012.06-.68m.39-1.44a5.21 5.21 0 00-4 1.71 6.31 6.31 0 00-1.56 4.44 6.17 6.17 0 001.42 4.22 5.35 5.35 0 007.7-.05 6.35 6.35 0 001.49-4.34c-.01-3.67-1.86-5.97-5.06-5.97zm14.64.42c-.51.67-1.15 1.54-2.11 2.71s-1.8 2-2.07 2H547v-1.1c0-1.58 0-2.81.14-3.65h-2.3c.12 1.47.17 3.17.17 5.14v.84c0 2.13-.05 3.91-.17 5.33h2.3c-.09-.94-.14-2.48-.14-4.59v-1h.5c.27 0 .67.48 1.2 1.4.36.55 1 1.58 1.66 2.44l.31.41a10.14 10.14 0 001.39 1.61 5.07 5.07 0 002.16-.34 33.35 33.35 0 01-3.53-4.46l-1.24-1.78c.38-.38 1.17-1.22 2.35-2.54s1.94-2.14 2.25-2.45zm4.22 10.15a1.3 1.3 0 001.35 1.32 1.33 1.33 0 001.44-1.32 1.4 1.4 0 00-1.44-1.34 1.34 1.34 0 00-1.35 1.34m-358.2 29.24c-.07-1.47-.12-3.7-.12-6.65v-.79c0-3.12 0-5.48.12-7.08h-11c.12 1.27.17 3.62.17 7v1.11c0 3.09-.05 5.23-.17 6.36h2.45c-.1-1.64-.15-4-.15-7.23v-5.73c.51 0 1.59-.08 3.24-.08s2.74 0 3.24.08v5.73c0 3.19 0 5.62-.16 7.23zm7.97-10.28c2.28 0 3.38 2 3.38 4.85a5 5 0 01-1.2 3.7 3.09 3.09 0 01-1.7.55c-2.21 0-3.6-1.82-3.6-5a4.87 4.87 0 011-3.43 2.78 2.78 0 012.07-.68m.38-1.44a5.22 5.22 0 00-4 1.71 6.3 6.3 0 00-1.55 4.44 6.17 6.17 0 001.41 4.22 5.35 5.35 0 007.7 0 6.3 6.3 0 001.49-4.34c.04-3.69-1.81-6.02-5.02-6.02zm10.83 1.86a8.5 8.5 0 011.66-.09 8.89 8.89 0 011.68.09v8.43h-5.09c1-1.06 1.72-4.18 1.75-8.43m-3 12.72v-2.85h8.2v2.85h1.73v-4.29h-1.51c-.07-.77-.12-2.24-.12-4.4v-.76c0-1.95.05-3.53.14-4.71h-7.34a18.07 18.07 0 01.15 2.4 18.81 18.81 0 01-.67 5c-.44 1.63-1 2.45-1.56 2.45h-.75v4.29zm13.68-8.78a5.68 5.68 0 01.46-2.71 3.26 3.26 0 012.8-1.37c1.76 0 2.81 1.73 2.81 4.61a5.38 5.38 0 01-1 3.64 2.47 2.47 0 01-1.82.68c-1.92 0-3.22-1.85-3.22-4.85m3.74-5.4a4.85 4.85 0 00-4.41 2.69h-.07a8.34 8.34 0 01.6-3.1 4.13 4.13 0 01.84-1.37 5.46 5.46 0 013.55-1.56c1.73-.17 2.76-.45 3.12-.86a3.15 3.15 0 00-.07-1.92c-.34.41-1.35.72-3 .91a6 6 0 00-4.9 2.86 12.56 12.56 0 00-1.51 6.5c0 4.78 1.92 7.44 5.18 7.44a4.54 4.54 0 003.77-1.73 7.24 7.24 0 001.37-4.58c-.03-3.34-1.78-5.28-4.5-5.28zm8.57 4.73a5 5 0 01.36-1.73 4 4 0 01.76-1.39 3.66 3.66 0 012-.56 2.61 2.61 0 011.85.7 2.32 2.32 0 01.74 1.8 1.24 1.24 0 01-.16.72 12.48 12.48 0 01-2.52.31c-1.37.1-2.38.15-3 .15m3.43-5a4.91 4.91 0 00-4 1.75 6.45 6.45 0 00-1.44 4.23c0 3.62 1.94 5.85 5.23 5.85a6.57 6.57 0 004.17-1.37 1.42 1.42 0 00-.38-1 5.26 5.26 0 01-3.12.86c-2.28 0-3.79-1.3-3.89-4.1l1.75-.15a33.8 33.8 0 005.79-.77 4.22 4.22 0 00.24-1.41 3.8 3.8 0 00-1.13-2.71 4.14 4.14 0 00-3.25-1.2zm9.14 3.22a3.32 3.32 0 011.87-1.54 3 3 0 01.91-.09c1.75.07 2.78 1.49 2.78 4.1a5.34 5.34 0 01-1.39 4.13 4.06 4.06 0 01-2.52.7 4.24 4.24 0 01-1.65-.29zm-2.19-2.81c.12 1.37.19 3.7.19 7v1.18c0 4-.07 6.53-.19 7.63h2.33c-.1-.93-.14-2.23-.14-3.91v-.67a7.18 7.18 0 001.53.19 6.28 6.28 0 004.39-1.7 6.21 6.21 0 001.83-4.76c0-3-1.32-4.8-3.51-5.18a4.3 4.3 0 00-1.65.29 3.48 3.48 0 00-2.67 1.51v-1.87zm19.59-4.08a1.08 1.08 0 00-1.08 1.06 1.07 1.07 0 001.08 1 1 1 0 100-2.09m-4.59 0a1 1 0 100 2.09 1 1 0 100-2.09zm-.79 8.67a5 5 0 01.36-1.73 3.86 3.86 0 01.77-1.39 3.61 3.61 0 012-.56 2.6 2.6 0 011.84.7 2.3 2.3 0 01.75 1.8 1.24 1.24 0 01-.17.72 12.24 12.24 0 01-2.52.31c-1.4.13-2.41.18-3.03.18zm3.43-5a4.91 4.91 0 00-4 1.75 6.45 6.45 0 00-1.44 4.23c0 3.62 1.94 5.85 5.23 5.85a6.62 6.62 0 004.18-1.37 1.39 1.39 0 00-.39-1 5.24 5.24 0 01-3.12.86c-2.28 0-3.79-1.3-3.88-4.1l1.75-.15a33.82 33.82 0 005.78-.77 4.22 4.22 0 00.24-1.41 3.76 3.76 0 00-1.13-2.71 4.14 4.14 0 00-3.22-1.17zm8.57 11.63c-.07-2.64-.05-5.57.1-8.79h.12c.16.48.5 1.25 1 2.33l.89 1.87 1.11 2.47h1.12l.94-1.89c.89-1.9 1.61-3.46 2.11-4.73h.17v4.06c0 2.36.05 3.88 0 4.68h2.19c-.27-2-.43-4.88-.55-8.64l-.05-2.67h-1.95c-.33.89-1.34 3.07-3 6.58h-.1c-.72-1.37-1.77-3.58-3.14-6.58h-2l-.19 4c-.19 3.34-.39 5.76-.55 7.28zm23.93-5.91a5.27 5.27 0 01-1 .1c-2.16 0-3.24-.75-3.24-2.26a2.27 2.27 0 01.82-1.7 3.64 3.64 0 011.94-.39 6.76 6.76 0 011.47.12zm2.13 5.91c-.12-1.54-.16-3.24-.16-5.09v-1.13a49.68 49.68 0 01.16-5 20.4 20.4 0 00-3.5-.28 6.23 6.23 0 00-3.45.89 2.91 2.91 0 00-1.4 2.62 2.94 2.94 0 002.62 2.88c-.16.24-.48.75-1 1.54s-.91 1.46-1.32 2.06a15.91 15.91 0 01-1 1.42 5.49 5.49 0 002 .29 4.54 4.54 0 001.13-1.52c.36-.57.94-1.6 1.2-2.08.15-.24.29-.48.46-.72.36-.51.57-.72.77-.72h1.39v4.8zm5.57-8.38a3.35 3.35 0 011.87-1.54 3.08 3.08 0 01.92-.09c1.75.07 2.78 1.49 2.78 4.1a5.38 5.38 0 01-1.39 4.13 4.06 4.06 0 01-2.52.7 4.33 4.33 0 01-1.66-.29zm-2.18-2.81c.12 1.37.19 3.7.19 7v1.18c0 4-.07 6.53-.19 7.63h2.33a38.88 38.88 0 01-.15-3.91v-.67a7.27 7.27 0 001.54.19 6 6 0 006.21-6.46c0-3-1.32-4.8-3.5-5.18a4.34 4.34 0 00-1.66.29 3.48 3.48 0 00-2.66 1.51v-1.87zm19.49-.12c-.51.67-1.16 1.54-2.12 2.71s-1.8 2-2.06 2h-.5v-1.1a33.9 33.9 0 01.14-3.65h-2.3c.12 1.47.16 3.17.16 5.14v.84c0 2.13 0 3.91-.16 5.33h2.3c-.1-.94-.14-2.48-.14-4.59v-1h.5c.26 0 .67.48 1.2 1.4.36.55 1 1.58 1.66 2.44l.31.41a9.62 9.62 0 001.39 1.61 5.07 5.07 0 002.16-.34 33.35 33.35 0 01-3.53-4.46l-1.25-1.78c.39-.38 1.18-1.22 2.36-2.54s1.94-2.14 2.25-2.45zm14.3 11.31c-.07-1.3-.12-2.88-.12-4.76v-1.6c0-1.76.05-3.41.12-4.95h-1.78c-.31.6-1.29 2-2.9 4.32s-2.54 3.67-2.86 4.2H332a36.53 36.53 0 00.15-3.93v-1.66a23.24 23.24 0 01.12-2.93H330c.12 1.42.17 3.07.17 4.92v1c0 2.38-.05 4.18-.17 5.38h1.85c.43-.75 1.41-2.24 2.95-4.42s2.47-3.58 2.78-4.13h.07c-.07.82-.09 2.23-.09 4.25v1.34a19.63 19.63 0 01-.17 3zm6.46-16.5a2 2 0 00-1.44.67 3 3 0 003.3 2.53 3.3 3.3 0 003.46-2.76c-.15-.22-.46-.31-.92-.29a2.09 2.09 0 01-2.16 1.8 2.15 2.15 0 01-2.2-2m6.64 16.54c-.07-1.3-.12-2.88-.12-4.76v-1.6c0-1.76 0-3.41.12-4.95H351c-.31.6-1.3 2-2.91 4.32s-2.54 3.67-2.85 4.2h-.12c.09-.84.14-2.13.14-3.93v-1.66a23.24 23.24 0 01.12-2.93h-2.28c.12 1.42.17 3.07.17 4.92v1c0 2.38 0 4.18-.17 5.38h1.9c.43-.75 1.42-2.24 3-4.42s2.47-3.58 2.79-4.13h.07c-.07.82-.1 2.23-.1 4.25v1.34a19.63 19.63 0 01-.17 3zm12.56-10.27c2.28 0 3.39 2 3.39 4.85a5 5 0 01-1.2 3.7 3.12 3.12 0 01-1.71.55c-2.2 0-3.6-1.82-3.6-5a4.82 4.82 0 011.06-3.43 2.77 2.77 0 012.06-.68m.39-1.44a5.21 5.21 0 00-4 1.71 6.31 6.31 0 00-1.56 4.44 6.17 6.17 0 001.42 4.22 5.35 5.35 0 007.7 0 6.35 6.35 0 001.49-4.34c-.01-3.69-1.82-6.02-5.05-6.02zm9.96 3.35a3.32 3.32 0 011.87-1.54 3 3 0 01.91-.09c1.75.07 2.79 1.49 2.79 4.1a5.34 5.34 0 01-1.4 4.13 4.06 4.06 0 01-2.52.7 4.27 4.27 0 01-1.65-.29zm-2.19-2.81c.12 1.37.2 3.7.2 7v1.18c0 4-.08 6.53-.2 7.63h2.33c-.09-.93-.14-2.23-.14-3.91v-.67a7.18 7.18 0 001.53.19 6.32 6.32 0 004.4-1.7 6.24 6.24 0 001.82-4.76c0-3-1.32-4.8-3.5-5.18a4.31 4.31 0 00-1.66.29 3.46 3.46 0 00-2.66 1.51v-1.87zm14.07 7.92a2.22 2.22 0 01.57-1.51 5.22 5.22 0 012.91-.58 8.1 8.1 0 011.37.2v2.35a3.43 3.43 0 01-2.86 1.58 1.92 1.92 0 01-2-2m6.89-4c0-3.15-1.18-4.35-3.65-4.35a10.88 10.88 0 00-4.71 1.25 1.52 1.52 0 00.44 1.2 7.21 7.21 0 013.43-1c1.92 0 2.45 1 2.42 3.58-4.89.07-6.91 1.08-6.91 3.74a3 3 0 003.14 3.05 4.75 4.75 0 003.82-1.89h.07a14.54 14.54 0 00.17 1.87l1.94-.19a36.68 36.68 0 01-.16-4.83zm12.89 7.23a94.13 94.13 0 01-.14-5.24v-.76c0-2.43.05-4.2.14-5.31h-2.28a27.15 27.15 0 01.17 3.6v1a34.9 34.9 0 01-5.28 0v-.86a32.14 32.14 0 01.15-3.75h-2.31c.12 1.11.17 2.88.17 5.33v.7c0 2.13-.05 3.91-.17 5.28h2.31c-.1-.89-.15-2.36-.15-4.35v-.93a34.9 34.9 0 015.28 0v.93a40.91 40.91 0 01-.17 4.35zm15.03-11.31c-2 3.27-3.24 4.9-3.7 4.9h-.57v-1.2a32.46 32.46 0 01.16-3.7h-2a34.43 34.43 0 01.15 3.7v1.2h-.48q-.65 0-3.75-4.9h-2.13c.26.39.89 1.18 1.82 2.35s1.61 2 2 2.6l-1.3 1.92c-.62.93-1.2 1.77-1.73 2.52s-1 1.29-1.27 1.68a2.37 2.37 0 00.91.28 6 6 0 001 .12 9.69 9.69 0 001.36-1.92l.48-.74c.22-.36.36-.62.48-.79.22-.39.68-1.06.89-1.35.39-.55.75-.93.91-.93h.75v1.25q0 2.8-.15 4.32h2a41.87 41.87 0 01-.16-4.4v-1.17h.92c.19 0 .65.62 1.18 1.51.36.5.93 1.51 1.39 2.21a16.51 16.51 0 001.39 2 4.08 4.08 0 001.92-.34c-.67-.86-1.73-2.42-3-4.34l-1.17-1.83c.36-.5 1-1.37 2-2.59l1.8-2.33zm6.02 4.71a5 5 0 01.36-1.73 4 4 0 01.77-1.39 3.63 3.63 0 012-.56 2.64 2.64 0 011.85.7 2.32 2.32 0 01.74 1.8 1.24 1.24 0 01-.17.72 12.24 12.24 0 01-2.52.31q-2.06.15-3 .15m3.43-5a4.93 4.93 0 00-4 1.75 6.45 6.45 0 00-1.44 4.23c0 3.62 1.95 5.85 5.23 5.85a6.62 6.62 0 004.18-1.37 1.42 1.42 0 00-.38-1 5.28 5.28 0 01-3.12.86c-2.28 0-3.8-1.3-3.89-4.1l1.75-.15a33.69 33.69 0 005.78-.77 4.22 4.22 0 00.24-1.41 3.79 3.79 0 00-1.12-2.71 4.18 4.18 0 00-3.26-1.2zm9.11 6.34a13.51 13.51 0 012-.1c1.54 0 2.74.58 2.74 2a2.2 2.2 0 01-.94 2 5.45 5.45 0 01-2.16.29 4.65 4.65 0 01-1.61-.2zm0-4.85a6.37 6.37 0 011.68-.19c1.73 0 2.59.62 2.59 1.87a2 2 0 01-1.75 1.9 12.7 12.7 0 01-2.52 0zm1.83-1.49a30.11 30.11 0 00-4 .29c.12 1.32.17 2.93.17 4.8v.94c0 2.23-.05 4.1-.17 5.57a20.14 20.14 0 003.51.26c3.28 0 5.4-1.27 5.4-3.55a2.61 2.61 0 00-2.52-2.76v-.12a2.8 2.8 0 002.06-2.62q.04-2.8-4.42-2.81zm12.39 1.32c2.28 0 3.38 2 3.38 4.85a5 5 0 01-1.2 3.7 3.11 3.11 0 01-1.7.55c-2.21 0-3.6-1.82-3.6-5a4.87 4.87 0 011-3.43 2.78 2.78 0 012.07-.68m.38-1.44a5.21 5.21 0 00-4 1.71 6.31 6.31 0 00-1.56 4.44 6.17 6.17 0 001.42 4.22 5.35 5.35 0 007.7 0 6.3 6.3 0 001.49-4.34c.04-3.69-1.81-6.02-5-6.02zm13.32 5.94a3.72 3.72 0 000-1.63h-5.28a2.66 2.66 0 000 1.63zm9.89-5.52c-.5.67-1.15 1.54-2.11 2.71s-1.8 2-2.07 2h-.5v-1.1c0-1.58.05-2.81.14-3.65h-2.3c.12 1.47.17 3.17.17 5.14v.84c0 2.13 0 3.91-.17 5.33h2.3c-.09-.94-.14-2.48-.14-4.59v-1h.5c.27 0 .68.48 1.2 1.4.36.55 1 1.58 1.66 2.44l.31.41a10.14 10.14 0 001.39 1.61 5.07 5.07 0 002.16-.34 32.67 32.67 0 01-3.52-4.46l-1.25-1.78c.38-.38 1.17-1.22 2.35-2.54s1.94-2.14 2.26-2.45zm6.79 2.93a3.35 3.35 0 011.87-1.54 3.08 3.08 0 01.92-.09c1.75.07 2.78 1.49 2.78 4.1a5.38 5.38 0 01-1.39 4.13 4.06 4.06 0 01-2.52.7 4.33 4.33 0 01-1.66-.29zm-2.18-2.81c.12 1.37.19 3.7.19 7v1.18c0 4-.07 6.53-.19 7.63h2.33a38.88 38.88 0 01-.15-3.91v-.67a7.27 7.27 0 001.54.19 6 6 0 006.21-6.46c0-3-1.32-4.8-3.5-5.18a4.34 4.34 0 00-1.66.29 3.48 3.48 0 00-2.66 1.51v-1.87zm14.06 7.92a2.18 2.18 0 01.58-1.51 5.18 5.18 0 012.9-.58 8.1 8.1 0 011.37.2v2.35a3.43 3.43 0 01-2.86 1.58 1.93 1.93 0 01-2-2m6.89-4c0-3.15-1.18-4.35-3.65-4.35a10.87 10.87 0 00-4.7 1.25 1.52 1.52 0 00.43 1.2 7.24 7.24 0 013.43-1c1.92 0 2.45 1 2.43 3.58-4.9.07-6.92 1.08-6.92 3.74a3 3 0 003.15 3.05 4.73 4.73 0 003.81-1.89h.08a13.35 13.35 0 00.16 1.87l1.95-.19a35.87 35.87 0 01-.17-4.83zm8.17-4.39a5.23 5.23 0 00-3.89 1.66 6 6 0 00-1.58 4.29 6.26 6.26 0 001.44 4.32 4.92 4.92 0 003.84 1.61 6.27 6.27 0 003.62-1.08 1.45 1.45 0 00-.29-1 5.14 5.14 0 01-2.4.62c-2.49 0-4.1-2-4.1-5a4.52 4.52 0 011.2-3.32 2.75 2.75 0 011.87-.57 4.2 4.2 0 012.79.93 2.62 2.62 0 00.84-1.46 4.76 4.76 0 00-3.34-1m15.46 11.62c-.1-1.61-.15-3.36-.15-5.24v-.76q0-3.64.15-5.31h-2.28a27.51 27.51 0 01.16 3.6v1a22.27 22.27 0 01-2.64.1 22.5 22.5 0 01-2.64-.1v-.86a32.14 32.14 0 01.15-3.75h-2.31c.12 1.11.17 2.88.17 5.33v.7c0 2.13 0 3.91-.17 5.28h2.31c-.1-.89-.15-2.36-.15-4.35v-.93a34.9 34.9 0 015.28 0v.93a41.41 41.41 0 01-.16 4.35zm13.29-5.43c0 2.09-.05 3.89-.17 5.43h2.24c-.1-1-.15-2.88-.15-5.64v-1c0-2.23.05-3.76.15-4.63h-2.19c.07 1.44.12 3 .12 4.73zm-3.69 1.66a2.62 2.62 0 01-.87 2.13 3.44 3.44 0 01-1.58.41 4.24 4.24 0 01-1.63-.21 30.19 30.19 0 010-4.66c2.47-.6 4.08.31 4.08 2.33zm-6.17-7.54a44 44 0 01.17 4.8v.94c0 2.61 0 4.44-.17 5.45a18.87 18.87 0 003.26.26c3.24 0 4.83-1.63 4.83-3.91a3.35 3.35 0 00-1.66-3.17 5.75 5.75 0 00-4.27-.38v-1.3a17.16 17.16 0 01.14-2.69zm18.36-5.19a2 2 0 00-1.44.67 3 3 0 003.26 2.57 3.29 3.29 0 003.46-2.76c-.15-.22-.46-.31-.91-.29a2.1 2.1 0 01-2.16 1.8 2.16 2.16 0 01-2.21-2m6.65 16.54c-.08-1.3-.12-2.88-.12-4.76v-1.6q0-2.64.12-4.95h-1.78c-.31.6-1.3 2-2.9 4.32s-2.55 3.67-2.86 4.2h-.12a37.19 37.19 0 00.14-3.93v-1.66a23.24 23.24 0 01.12-2.93h-2.28c.12 1.42.17 3.07.17 4.92v1c0 2.38 0 4.18-.17 5.38h1.85c.43-.75 1.42-2.24 3-4.42s2.48-3.58 2.79-4.13h.07c-.07.82-.1 2.23-.1 4.25v1.34a19.84 19.84 0 01-.16 3zm17.25-6.15q0-3.24.15-5.19h-2.31c.12 1.23.17 2.88.17 5v4.9a21.6 21.6 0 01-2.52.09 21.31 21.31 0 01-2.5-.09v-4.9c0-2.11 0-3.77.15-5h-2.31c.12 1.3.17 2.93.17 4.9v.69c0 2.21 0 4.11-.17 5.72h9v2.85h1.73v-4.29h-1.54zm5.74.86a13.51 13.51 0 012-.1c1.53 0 2.73.58 2.73 2a2.19 2.19 0 01-.93 2 5.52 5.52 0 01-2.16.29 4.61 4.61 0 01-1.61-.2zm0-4.85a6.32 6.32 0 011.68-.19c1.73 0 2.59.62 2.59 1.87a2 2 0 01-1.75 1.9 12.74 12.74 0 01-2.52 0zm1.82-1.49a29.84 29.84 0 00-4 .29c.12 1.32.17 2.93.17 4.8v.94c0 2.23 0 4.1-.17 5.57a20.1 20.1 0 003.5.26c3.29 0 5.4-1.27 5.4-3.55a2.6 2.6 0 00-2.52-2.76v-.12a2.81 2.81 0 002.07-2.62q.02-2.8-4.45-2.81zm9.24 5a5 5 0 01.36-1.73 4 4 0 01.77-1.39 3.63 3.63 0 012-.56 2.64 2.64 0 011.85.7 2.32 2.32 0 01.74 1.8 1.24 1.24 0 01-.17.72 12.24 12.24 0 01-2.52.31q-2.05.15-3 .15m3.43-5a4.93 4.93 0 00-4 1.75 6.45 6.45 0 00-1.44 4.23c0 3.62 2 5.85 5.23 5.85a6.62 6.62 0 004.18-1.37 1.42 1.42 0 00-.38-1 5.28 5.28 0 01-3.12.86c-2.28 0-3.8-1.3-3.89-4.1l1.75-.15a33.69 33.69 0 005.78-.77 4.22 4.22 0 00.24-1.41 3.79 3.79 0 00-1.12-2.71 4.18 4.18 0 00-3.26-1.2zm5.64 1.95a18.61 18.61 0 012.78-.15h1v2.69q0 5.55-.21 7.11h2.42c-.12-1.18-.19-3.53-.19-7v-2.8h1a16.23 16.23 0 012.76.15v-1.66h-9.48z"/></g></svg>