<svg data-name="Layer 1" xmlns="http://www.w3.org/2000/svg" viewBox="0 0 1920 1080"><defs><clipPath id="a"><path fill="none" d="M0 0h1920v1080H0z"/></clipPath></defs><g clip-path="url(#a)"><path fill="#d6e2d4" d="M0 0h1920v1080H0z"/><path d="M196.12 115.28c-3.42 0-5.47-2.59-5.47-6.66 0-2.77.61-4.72 1.8-5.83a6.55 6.55 0 014.28-.58q.27 5.57 0 13.07zm5.11-13.21c3.06 0 5.22 2.09 5.22 6.51 0 2.78-.72 4.76-2.12 6a7.07 7.07 0 01-2.12.54 5.26 5.26 0 01-1.84-.08q-.27-6.48 0-13a5.78 5.78 0 01.86.03zm-.5 18.65a18.17 18.17 0 01-.22-3.17c5.66 0 10.19-2.34 10.19-9.22 0-5.51-3.24-8.53-8.42-8.53a9.07 9.07 0 00-1.77.18 13.9 13.9 0 01.22-2.63h-4.36a10 10 0 01.22 2.45c-6.37 0-10.19 3-10.19 9.29 0 5.43 3.21 8.46 8.35 8.46a10.94 10.94 0 001.84-.15 18.27 18.27 0 01-.22 3.32zm29.05-.51c-.14-1.91-.21-4.35-.21-7.34v-2.41c0-2.78.07-5.26.21-7.38h-3.6c-.47.9-1.76 2.91-3.92 6s-3.46 5.08-3.93 6h-.21a47.33 47.33 0 00.25-5.51v-2.12a33.66 33.66 0 01.18-4.39h-4.36c.18 2 .26 4.5.26 7.34v1.6c0 3.64-.08 6.34-.26 8.17h3.64c.58-1 1.91-3.06 4-6.12s3.38-5.07 3.89-6h.14c-.11 1.44-.18 3.42-.18 6v1.69a28.52 28.52 0 01-.29 4.43zm8.79-12.67a4 4 0 012.55-2 3.78 3.78 0 011.26-.11c2.34.18 3.71 2.27 3.71 5.91 0 2.77-.61 4.78-1.87 6a5.34 5.34 0 01-3.31.9 4.93 4.93 0 01-2.34-.47zm-4.25-4.28c.21 2 .32 5.61.32 10.72v1.77q0 9-.32 11.45h4.5a49.72 49.72 0 01-.25-5.87v-1a10.54 10.54 0 002.26.25 9.66 9.66 0 006.74-2.56 9.33 9.33 0 002.8-7.2c0-4.75-2.19-7.52-5.65-7.95a6 6 0 00-3.09.82 4.13 4.13 0 00-3.24 1.8l.07-.5v-2.23zm22.57 16.95q-.06-1.35-.07-12.74h.25c.25.72.76 1.87 1.44 3.45l1.22 2.74 1.52 3.38h2.3l1.26-2.7c1.3-2.88 2.27-5.14 2.88-6.8h.31v5.87c0 3.03 0 5.25-.15 6.8H272a124.52 124.52 0 01-.83-13.21l-.07-3.92h-3.85c-.33 1-1.69 4.06-4.11 9.25H263c-1.12-2.27-2.56-5.33-4.32-9.25h-4.07l-.29 6.19c-.32 5.4-.61 9-.86 10.94zm22.36-10.01a8.14 8.14 0 01.43-2.48 6.19 6.19 0 011-2 4.25 4.25 0 012.59-.76 3.29 3.29 0 013.45 3.39 2.53 2.53 0 01-.28 1.26 17.79 17.79 0 01-3.28.39c-1.73.11-3 .18-3.92.18m4.6-7.66a8 8 0 00-6.33 2.66 9.61 9.61 0 00-2.27 6.48c0 5.47 3.1 8.86 8.32 8.86a12.09 12.09 0 004-.65 7.65 7.65 0 002.7-1.51 3.3 3.3 0 00-.62-1.91 8.39 8.39 0 01-4.75 1.29c-3.17 0-5.4-1.76-5.58-5.5l2.67-.18a57.31 57.31 0 008.46-1.16 7.11 7.11 0 00.43-2.26 5.75 5.75 0 00-1.84-4.32 7 7 0 00-5.18-1.78zm25.9 17.69q-.23-3.61-.22-8v-1.15c0-3.67.07-6.34.22-8h-4.39a42.2 42.2 0 01.28 5.25v1.51a41.49 41.49 0 01-7.05 0v-1.33a43.16 43.16 0 01.25-5.43h-4.43c.18 1.65.25 4.32.25 8v1.05c0 3.31-.07 6-.25 8.06h4.43a59.17 59.17 0 01-.25-6.37v-1.4a41.49 41.49 0 017.05 0v1.4c0 2.45-.1 4.57-.28 6.37zm19.94 0q-.21-3.61-.21-8v-1.15c0-3.67.07-6.34.21-8h-4.39a42 42 0 01.29 5.25v1.51a41.61 41.61 0 01-7.06 0v-1.33a43.16 43.16 0 01.25-5.43h-4.42c.18 1.65.25 4.32.25 8v1.05c0 3.31-.07 6-.25 8.06h4.42a59.17 59.17 0 01-.25-6.37v-1.4a41.61 41.61 0 017.06 0v1.4c0 2.45-.11 4.57-.29 6.37zm20.32-8.13c0 2.8-.11 5.5-.29 8.13H354a84.22 84.22 0 01-.26-8.46v-1.55a59.54 59.54 0 01.26-7.12h-4.22c.15 2.59.22 5 .22 7.27zm-6.12 2.41a3.83 3.83 0 01-1.15 3 5.1 5.1 0 01-2.16.5 6.44 6.44 0 01-2.2-.29 33.38 33.38 0 010-6.48c3.41-.87 5.46.5 5.46 3.27zm-9.54-11.41c.18 1.69.25 4.24.25 7.59v1.41a79.78 79.78 0 01-.25 8 33.76 33.76 0 005.54.39c5.3 0 7.74-2.41 7.74-6a5.16 5.16 0 00-2.55-4.86c-1.69-1-3.85-1.16-6.55-.58v-1.8a22 22 0 01.25-4.1zm27.24 7.12a8.14 8.14 0 01.43-2.48 6.19 6.19 0 011-2 4.28 4.28 0 012.59-.76 3.3 3.3 0 013.46 3.39 2.52 2.52 0 01-.29 1.26 17.79 17.79 0 01-3.28.39c-1.73.11-3 .18-3.92.18m4.61-7.66a8 8 0 00-6.34 2.66 9.61 9.61 0 00-2.27 6.48c0 5.47 3.1 8.86 8.32 8.86a12.09 12.09 0 004-.65 7.65 7.65 0 002.7-1.51 3.36 3.36 0 00-.61-1.91 8.42 8.42 0 01-4.76 1.29c-3.16 0-5.4-1.76-5.58-5.5l2.67-.18a57.12 57.12 0 008.46-1.16 6.84 6.84 0 00.43-2.26 5.75 5.75 0 00-1.84-4.32 7 7 0 00-5.17-1.78zm32.33 8.48c0-3.35.08-6 .26-8h-4.47c.18 1.83.29 4.35.29 7.63v6.87a36.26 36.26 0 01-6.59 0v-6.87c0-3.31.07-5.87.25-7.63h-4.42c.18 1.9.25 4.42.25 7.52v1c0 3.32-.07 6.16-.25 8.57h13.57v4.29h3.42v-6.92h-2.31zm9.15 1.44a14.73 14.73 0 012.59-.15c2 0 3.6.79 3.6 2.77a3.14 3.14 0 01-1.19 2.78 7 7 0 01-2.81.39 6.1 6.1 0 01-2.19-.29zm0-7.17a8.12 8.12 0 012.19-.29c2.27 0 3.42.87 3.42 2.6a2.66 2.66 0 01-2.16 2.66 12.16 12.16 0 01-3.45 0zm2.37-2.63a62.25 62.25 0 00-6.55.44c.18 2 .25 4.42.25 7.3v1.37c0 3.42-.07 6.23-.25 8.46a38.27 38.27 0 006 .4c5.07 0 8.46-1.87 8.46-5.29a4 4 0 00-3.94-4.22v-.18a4.16 4.16 0 003.24-4c-.01-2.84-2.42-4.28-7.24-4.28zm14.76 7.56a8.17 8.17 0 01.44-2.48 6.2 6.2 0 011-2 4.31 4.31 0 012.6-.76 3.29 3.29 0 013.45 3.39 2.52 2.52 0 01-.29 1.26 17.5 17.5 0 01-3.27.39c-1.73.11-3 .18-3.93.18m4.61-7.66a8 8 0 00-6.33 2.66 9.56 9.56 0 00-2.27 6.48c0 5.47 3.09 8.86 8.31 8.86a12 12 0 004-.65 7.65 7.65 0 002.7-1.51 3.29 3.29 0 00-.61-1.91 8.39 8.39 0 01-4.75 1.29c-3.17 0-5.4-1.76-5.58-5.5l2.66-.18a56.93 56.93 0 008.46-1.16 6.87 6.87 0 00.44-2.26 5.79 5.79 0 00-1.84-4.32 7 7 0 00-5.19-1.78zm8.68 3.62a25 25 0 014.17-.29h1.3v3.71a89.48 89.48 0 01-.4 10.65h4.72a94.56 94.56 0 01-.4-10.55v-3.81h1.34a21.51 21.51 0 014.14.29v-3.06h-14.87zm20.7 8.96a3.39 3.39 0 01.75-2.12 6.82 6.82 0 013.71-.69 6.57 6.57 0 012 .25v3.28a4.41 4.41 0 01-3.74 2.16 2.62 2.62 0 01-2.7-2.88m10.51-5.87c0-4.75-1.91-6.66-6-6.66a17.2 17.2 0 00-7.66 2 3.05 3.05 0 00.75 2.16 11.61 11.61 0 015.26-1.48c2.77 0 3.56 1.4 3.53 4.82-7.31.26-10.52 1.73-10.52 5.8a4.6 4.6 0 004.9 4.75 7 7 0 005.72-2.84h.15a20.42 20.42 0 00.25 2.81l3.89-.33a52.91 52.91 0 01-.29-7.38zm490.67 182.13h388.08v388.08H959.98z" fill="#ea533d"/><path d="M1348.06 679.44h388.08v117.43h-388.08z"/><path stroke="#fff" stroke-miterlimit="22.93" stroke-width=".57" fill="none" d="M571.91 291.36h388.08v388.08H571.91z"/><path fill="#a72b16" d="M959.98 679.44h388.08v117.43H959.98z"/><path fill="#86ba34" d="M571.91 679.44h388.08v117.43H571.91z"/><path d="M192.15 475c2.67 0 4.25 2.35 4.25 6.67a6.85 6.85 0 01-1.61 4.85 3.48 3.48 0 01-2.3.76 3.6 3.6 0 01-3.05-1.72 8.66 8.66 0 01-1.2-4.92 7.05 7.05 0 011.89-5.09 3.65 3.65 0 012-.55m.36-1.52a6.16 6.16 0 00-4.63 2 8.17 8.17 0 00-1.92 5.81 8 8 0 001.77 5.47 5.71 5.71 0 004.44 2 6 6 0 004.66-2 8.34 8.34 0 001.85-5.73 8.24 8.24 0 00-1.7-5.57 5.63 5.63 0 00-4.45-1.98zm13.75 3.41a5.23 5.23 0 00-3.89 1.66 5.93 5.93 0 00-1.58 4.29 6.26 6.26 0 001.44 4.32 4.92 4.92 0 003.84 1.61 6.27 6.27 0 003.62-1.08 1.5 1.5 0 00-.29-1 5.14 5.14 0 01-2.4.62c-2.49 0-4.1-2-4.1-5a4.48 4.48 0 011.2-3.31 2.7 2.7 0 011.87-.58 4.15 4.15 0 012.79.94 2.6 2.6 0 00.83-1.47 4.7 4.7 0 00-3.33-1m15.46 11.62c-.1-1.61-.15-3.36-.15-5.23v-.77q0-3.64.15-5.31h-2.29a25.52 25.52 0 01.17 3.6v1a34.9 34.9 0 01-5.28 0v-.8a32.26 32.26 0 01.15-3.75h-2.31c.12 1.11.17 2.88.17 5.33v.7c0 2.13-.05 3.91-.17 5.28h2.31c-.1-.89-.15-2.35-.15-4.35v-.93a34.9 34.9 0 015.28 0v.93a38.28 38.28 0 01-.17 4.35zm7.94-10.27c2.28 0 3.38 2 3.38 4.84a4.93 4.93 0 01-1.2 3.7 3.09 3.09 0 01-1.7.55c-2.21 0-3.6-1.82-3.6-5a4.87 4.87 0 011-3.43 2.78 2.78 0 012.07-.67m.38-1.44a5.18 5.18 0 00-4 1.7 7.06 7.06 0 00-.15 8.66 5.37 5.37 0 007.71 0 6.39 6.39 0 001.48-4.35c.05-3.68-1.79-6-5.01-6zm10.03 6.46a13.93 13.93 0 012-.09c1.54 0 2.74.57 2.74 2a2.18 2.18 0 01-.94 2 5.45 5.45 0 01-2.16.29 4.72 4.72 0 01-1.61-.19zm0-4.85a6.43 6.43 0 011.68-.19c1.73 0 2.6.63 2.6 1.87a2 2 0 01-1.76 1.9 12 12 0 01-2.52 0zm1.83-1.48a30 30 0 00-4 .28c.12 1.32.17 2.93.17 4.8v.94c0 2.23-.05 4.1-.17 5.57a19.2 19.2 0 003.51.26c3.29 0 5.4-1.27 5.4-3.55a2.6 2.6 0 00-2.52-2.76v-.12a2.78 2.78 0 002.06-2.62q-.01-2.8-4.47-2.8zm17.38 11.59c-.1-1.61-.15-3.36-.15-5.23v-.77q0-3.64.15-5.31h-2.28a27.15 27.15 0 01.17 3.6v1a22.5 22.5 0 01-2.64.1 22.27 22.27 0 01-2.64-.1v-.8a32.88 32.88 0 01.14-3.75h-2.3c.12 1.11.16 2.88.16 5.33v.7c0 2.13 0 3.91-.16 5.28H252c-.1-.89-.14-2.35-.14-4.35v-.93a22.27 22.27 0 012.64-.1 22.5 22.5 0 012.64.1v.93a40.79 40.79 0 01-.17 4.35zm13.29-5.43c0 2.09 0 3.89-.16 5.43h2.23c-.1-1-.15-2.88-.15-5.64v-1c0-2.24.05-3.77.15-4.64h-2.19c.08 1.44.12 3 .12 4.73zm-3.69 1.66a2.63 2.63 0 01-.87 2.14 3.52 3.52 0 01-1.58.4 4.27 4.27 0 01-1.63-.21 30.19 30.19 0 010-4.66c2.47-.6 4.08.31 4.08 2.33zm-6.17-7.54a44 44 0 01.17 4.8v.94c0 2.62-.05 4.44-.17 5.45a17.92 17.92 0 003.26.26c3.24 0 4.83-1.63 4.83-3.91a3.34 3.34 0 00-1.66-3.17 5.75 5.75 0 00-4.27-.38v-1.3a17.16 17.16 0 01.14-2.69zm16.73 4.71a5 5 0 01.36-1.73 3.86 3.86 0 01.77-1.39 3.59 3.59 0 012-.55 2.65 2.65 0 011.85.69 2.3 2.3 0 01.75 1.8 1.24 1.24 0 01-.17.72 12.24 12.24 0 01-2.52.31c-1.37.1-2.38.15-3 .15m3.43-5a4.91 4.91 0 00-4 1.75 6.45 6.45 0 00-1.44 4.23c0 3.62 1.94 5.85 5.23 5.85a6.68 6.68 0 004.18-1.36 1.41 1.41 0 00-.39-1 5.26 5.26 0 01-3.12.86c-2.28 0-3.79-1.29-3.89-4.1l1.76-.15a34.85 34.85 0 005.78-.76 4.24 4.24 0 00.24-1.42 3.78 3.78 0 00-1.13-2.71 4.18 4.18 0 00-3.26-1.21zm-92.25 309.82c.31 0 1-.05 2.09-.05s1.8 0 2.11.05v11.45h-6.31q2.11-2.38 2.11-11.45m-3.89 16.34v-3.38h10.47v3.38h1.75v-4.89H197c-.07-.89-.12-2.67-.12-5.36v-1.6q0-3.6.15-6.05h-8.53a28.15 28.15 0 01.17 3c0 4.23-.91 10-3 10h-.76v4.89zm19.18-13.65c2.28 0 3.38 2 3.38 4.84a5 5 0 01-1.2 3.7 3.09 3.09 0 01-1.7.55c-2.21 0-3.6-1.82-3.6-5a4.82 4.82 0 011.06-3.43 2.74 2.74 0 012.06-.67m.38-1.44a5.18 5.18 0 00-4 1.7 7.06 7.06 0 00-.15 8.66 5.37 5.37 0 007.71 0 6.39 6.39 0 001.48-4.33c0-3.7-1.84-6-5.04-6zm17.21 11.72c-.09-1.37-.14-3.19-.14-5.5v-.89c0-.72 0-2.35.14-4.92h-9.41c.12 1.78.17 3.41.17 4.9v1c0 1.61 0 3.39-.17 5.38h2.31c-.1-1.42-.15-3.58-.15-6.53v-3.34a21.44 21.44 0 012.55-.09 22.58 22.58 0 012.59.09v3.27c0 3-.07 5.18-.19 6.6zm7.92-10.27c2.28 0 3.39 2 3.39 4.84a5 5 0 01-1.2 3.7 3.14 3.14 0 01-1.71.55c-2.21 0-3.6-1.82-3.6-5a4.82 4.82 0 011.06-3.43 2.75 2.75 0 012.06-.67m.39-1.44a5.18 5.18 0 00-4 1.7 6.31 6.31 0 00-1.56 4.44 6.22 6.22 0 001.41 4.22 5.37 5.37 0 007.71 0 6.39 6.39 0 001.49-4.35c-.01-3.68-1.83-5.98-5.05-5.98zm16.82 11.72c-.07-1.11-.12-2.93-.12-5.47v-.89c0-2.33.05-4 .12-5H241a12.54 12.54 0 01.19 2.38v.65c0 4.82-.82 6.84-2.52 6.57a3 3 0 00.05 1.92c3.07.46 4.27-2.44 4.27-8.32v-1.76h3.55v5a43.46 43.46 0 01-.19 4.9zm12.7 0c-.1-1.61-.15-3.36-.15-5.23v-.77q0-3.65.15-5.31H259a27.51 27.51 0 01.16 3.6v1a22.27 22.27 0 01-2.64.1 22.5 22.5 0 01-2.64-.1v-.86a32.26 32.26 0 01.15-3.75h-2.31c.12 1.11.17 2.88.17 5.33v.7c0 2.13 0 3.91-.17 5.28h2.31c-.1-.89-.15-2.35-.15-4.35v-.93a22.5 22.5 0 012.64-.1 22.27 22.27 0 012.64.1v.93a41.29 41.29 0 01-.16 4.35zm13.1 0c-.07-1.3-.12-2.88-.12-4.75v-1.61c0-1.75.05-3.41.12-5h-1.78c-.31.6-1.29 2-2.9 4.32s-2.54 3.68-2.86 4.2h-.12a36.53 36.53 0 00.15-3.93v-1.66a23.35 23.35 0 01.12-2.93h-2.28c.12 1.42.17 3.08.17 4.92v1c0 2.38 0 4.18-.17 5.38h1.85c.43-.75 1.41-2.23 2.95-4.42s2.47-3.57 2.78-4.13h.07c-.07.82-.09 2.24-.09 4.25v1.35a19.58 19.58 0 01-.17 3zm2.09-9.69a18.92 18.92 0 012.78-.14h1v2.68a71.06 71.06 0 01-.21 7.11h2.42c-.12-1.18-.19-3.53-.19-7v-2.75h1a16.58 16.58 0 012.71.1v-1.66h-9.48zm12.93 3.09a5 5 0 01.36-1.73 4 4 0 01.77-1.39 3.65 3.65 0 012-.55 2.68 2.68 0 011.85.69 2.32 2.32 0 01.74 1.8 1.24 1.24 0 01-.17.72 12.24 12.24 0 01-2.52.31c-1.36.1-2.37.15-3 .15m3.44-5a4.93 4.93 0 00-4 1.75 6.45 6.45 0 00-1.44 4.23c0 3.62 1.95 5.85 5.24 5.85a6.65 6.65 0 004.17-1.36 1.45 1.45 0 00-.38-1 5.26 5.26 0 01-3.12.86c-2.28 0-3.79-1.29-3.89-4.1l1.75-.15a35 35 0 005.79-.76 4.5 4.5 0 00.24-1.42 3.82 3.82 0 00-1.13-2.71 4.21 4.21 0 00-3.26-1.21zm16 11.6c-.07-1.11-.12-2.93-.12-5.47v-.89c0-2.33.05-4 .12-5h-7.63a12.54 12.54 0 01.19 2.38v.65c0 4.82-.82 6.84-2.52 6.57a3 3 0 00.05 1.92c3.07.46 4.27-2.44 4.27-8.32v-1.76h3.56v5a42.76 42.76 0 01-.2 4.9zm9.72-3.77a2.44 2.44 0 01-1 2.14 3.48 3.48 0 01-1.84.38 4.46 4.46 0 01-1.59-.19 30.19 30.19 0 010-4.66c2.79-.65 4.42.31 4.42 2.33m-6.6-7.54a37.8 37.8 0 01.17 4.61v.89c0 2.71-.05 4.61-.14 5.69a18 18 0 003.33.26c3.46 0 5.21-1.53 5.21-3.91a3.45 3.45 0 00-1.73-3.26 6.44 6.44 0 00-4.68-.29v-1.27a15.67 15.67 0 01.15-2.72zm20.62 11.31c-.09-1.61-.14-3.36-.14-5.23v-.77c0-2.43 0-4.2.14-5.31h-2.28a27.15 27.15 0 01.17 3.6v1a34.9 34.9 0 01-5.28 0v-.86a32.26 32.26 0 01.15-3.75h-2.31c.12 1.11.17 2.88.17 5.33v.7c0 2.13-.05 3.91-.17 5.28h2.31c-.1-.89-.15-2.35-.15-4.35v-.93a34.9 34.9 0 015.28 0v.93a40.79 40.79 0 01-.17 4.35zm13.3-5.43c0 2.09-.05 3.89-.17 5.43H348c-.09-1-.14-2.88-.14-5.64v-1c0-2.24.05-3.77.14-4.64h-2.2c.07 1.44.12 3 .12 4.73zm-3.7 1.66a2.62 2.62 0 01-.86 2.14 3.59 3.59 0 01-1.58.4 4.3 4.3 0 01-1.64-.21 30.19 30.19 0 010-4.66c2.48-.59 4.08.31 4.08 2.33zm-6.16-7.54a44.72 44.72 0 01.16 4.8v.94c0 2.62 0 4.44-.16 5.45a17.92 17.92 0 003.26.26c3.24 0 4.82-1.63 4.82-3.91a3.35 3.35 0 00-1.65-3.17 5.75 5.75 0 00-4.27-.38v-1.3a16 16 0 01.14-2.69zm16.72 4.71a5 5 0 01.36-1.73 4 4 0 01.77-1.39 3.65 3.65 0 012-.55 2.68 2.68 0 011.85.69 2.32 2.32 0 01.74 1.8 1.24 1.24 0 01-.17.72 12.24 12.24 0 01-2.52.31c-1.36.1-2.37.15-3 .15m3.44-5a4.93 4.93 0 00-4 1.75 6.45 6.45 0 00-1.44 4.23c0 3.62 1.95 5.85 5.24 5.85a6.65 6.65 0 004.17-1.36 1.45 1.45 0 00-.38-1 5.26 5.26 0 01-3.12.86c-2.28 0-3.79-1.29-3.89-4.1l1.75-.15a35 35 0 005.79-.76 4.5 4.5 0 00.24-1.42 3.82 3.82 0 00-1.13-2.71 4.21 4.21 0 00-3.26-1.21z"/><path fill="#0b9fdb" d="M571.91 796.87h776.15v58.72H571.91z"/><path fill="#706d4c" d="M1348.06 796.87h388.08v58.72h-388.08z"/><path fill="#6e150e" d="M1348.06 291.36h388.08v388.08h-388.08z"/></g></svg>