<svg id="Layer_1" data-name="Layer 1" xmlns="http://www.w3.org/2000/svg" viewBox="0 0 1920 1080"><defs><clipPath id="clip-path"><path fill="none" d="M0 0h1920v1080H0z"/></clipPath><style>.cls-4{fill:#ea533d;fill-rule:evenodd}</style></defs><g clip-path="url(#clip-path)"><path fill="#d6e2d4" d="M0 0h1920v1080H0z"/><path class="cls-4" d="M886.26 798.41h-14c-3.35 0-3.65-1.06-3.65-4.42v-40.83H846.7l6.64 6.64a5.5 5.5 0 011.38 3.71V790a5.5 5.5 0 01-1.38 3.71l-6.64 6.64h46.24c2 0 4 .53 4.44 2.47l3.42 15.07h.27l7.93-19.48h-8.92v-34.9a5.51 5.51 0 011.39-3.71l6.64-6.64h-29.88l6.64 6.64a5.51 5.51 0 011.39 3.71zm32.32-45.25h21l-6.45 6.45c-.89.89-1.51 2.48-.17 5.28s4.92 6.19 13.14 2.78v-14.51H968l-6.64 6.64a5.55 5.55 0 00-1.38 3.71V790a5.55 5.55 0 001.38 3.71l6.64 6.59h-29.88l6.64-6.64a5.3 5.3 0 001.34-3v-21c-19.54 9.52-32.83 2.52-27.52-16.47m461.25 10.18h18.23c-1.89-4.59-6-8.07-12.5-8.55-3.77-.28-9.64.22-10.34 3.76l-4 19.87h-.18l-6-26.32 6.17.67c2.76.31 6.09-.8 11-.68 13.73.36 25.61 11 26.51 24.61s-8.9 24.19-23.25 24.61c-19.28.56-30.89-16-25.37-32.51h.25c-3.43 12 6.84 20.08 18.25 20.63 15.56.76 23-13.7 20.15-24.19h-18.87zm-569.69-1.32c2.64 3.69 5.58 7.15 8.38 10.72l7-11.08a2.71 2.71 0 00-.18-3.23l-4.6-5.3h17.83l-7.81 6.08a13.81 13.81 0 00-3 3.55l-7.61 12q10 12.75 20.09 25.49h-26.06l4.32-5.31a3 3 0 00-.2-3.63c-10.52-13.72-5.25-6.67-10.11-12.83l-8.31 13.19a2.69 2.69 0 00.12 3.3l4.59 5.3h-17.78l7.81-6.08a14 14 0 003-3.55l8.94-14.13-18.44-23.37h26.16l-4.31 5.3a3 3 0 00.17 3.59m645.22-4.48c5.21-2.85 13 .27 21.83 14s8.18 21.47 3 24.33-13-.36-21.82-14-8.18-21.47-3-24.33m-20.25 18.2h6.39a24.81 24.81 0 0113.4-20.37c12.67-6.8 28.7-2.76 35.81 9s2.61 26.83-10.06 33.63-28.71 2.77-35.82-9a23.14 23.14 0 01-3.36-11.36h-6.36V790a5.55 5.55 0 001.38 3.71l6.64 6.64h-29.88l6.64-6.64a5.5 5.5 0 001.38-3.71v-26.49a5.5 5.5 0 00-1.38-3.71l-6.64-6.64h21.86zm-677.57 16.53v-32.65c-4.67-3.37-8.73-3.75-11.88-2.08-5.38 2.86-6 10.72 3.08 24.33a51.3 51.3 0 008.8 10.4m1.89-31.15v32.65c4.66 3.34 8.72 3.75 11.86 2.08 5.38-2.86 6.1-10.62-3.08-24.33a51.61 51.61 0 00-8.78-10.4zm-14.25-5.75a29.3 29.3 0 0112.36-3.27v-4.57a5.55 5.55 0 00-1.39-3.72l-6.63-6.63h17.94l-6.64 6.63a5.55 5.55 0 00-1.39 3.72v4.55c9.17.19 17.95 4.58 22.76 12.3 7.35 11.78 2.7 26.83-10.4 33.63a29.46 29.46 0 01-12.36 3.28v4.56a5.55 5.55 0 001.39 3.72l6.64 6.64h-17.94l6.63-6.64a5.55 5.55 0 001.39-3.72v-4.54c-9.17-.2-17.95-4.59-22.76-12.31-7.35-11.77-2.69-26.83 10.4-33.63zm272.45 43c-2.92 0-3.81-1.29-3.81-3.85v-31a5.51 5.51 0 011.39-3.71l6.64-6.64h-17.94l6.63 6.64a5.51 5.51 0 011.39 3.71v34.9h-10.22c-2.92 0-3.8-1.29-3.8-3.85v-41.4h-21.86l6.64 6.64a5.55 5.55 0 011.38 3.71V790a5.55 5.55 0 01-1.38 3.71l-6.64 6.64h73.65l-6.64-6.64a5.55 5.55 0 01-1.38-3.71v-26.49a5.55 5.55 0 011.38-3.71l6.64-6.64h-21.86v45.25zm510.89-37.94c.16-8.67-14.29-6.7-14 3.22.28 8.3 13.73 8.5 14-3.22m0 17c-5.61 1.14-10.6 7.25-11.94 12.28-.38 1.4-.24 3.08.55 3.87l6.64 6.64h-24.32c2.15-13.54 10.79-21.91 29.07-24.66v-8.16c-5.26 8.43-14 10.66-20.13 8.64-8.34-2.74-9.3-13-3.62-18.39 4.36-4.15 11.86-4.57 17-4.57h28.58l-6.64 6.64a5.51 5.51 0 00-1.39 3.71V790a5.51 5.51 0 001.39 3.71l6.64 6.64h-21.86zm-827.9-15.37l11.8 19.27 9.21-19.28a2.9 2.9 0 00-.37-3.63l-5.15-5.3h17.07l-6.82 6.08a9.44 9.44 0 00-1.9 2.48L708 796.26c-3.78 7.9-12.52 24.12-28.17 18.92l-3.09-30.47h.26l12.07 19.62a6.73 6.73 0 009.39 2.16c2.44-1.5 5.59-7.58 7.31-11.18L680 753.16h26.17l-5.14 5.3a3 3 0 00-.37 3.64m-280.9-8.94l6.64 6.64a5.5 5.5 0 011.38 3.71V790a5.5 5.5 0 01-1.38 3.71l-6.64 6.64h29.88l-6.64-6.69a5.55 5.55 0 01-1.38-3.71v-34.9h18.88V790a5.51 5.51 0 01-1.39 3.71l-6.64 6.64h29.89l-6.64-6.64a5.51 5.51 0 01-1.39-3.71v-26.49a5.51 5.51 0 011.39-3.71l6.64-6.64zm168.12-1.04c4.85-.12 8.18 1 11 .68l6.17-.67-6 26.32h-.18l-4-19.87c-.7-3.54-6.57-4-10.34-3.76-21.46 1.57-16.72 35.8 7 34.64 11.42-.55 21.68-8.58 18.25-20.63h.22c5.52 16.48-6.09 33.07-25.37 32.51-14.35-.42-24.15-11-23.25-24.61s12.78-24.25 26.52-24.61m49.52 6.7V790a5.51 5.51 0 01-1.39 3.71l-6.64 6.64h29.89l-6.64-6.64a5.51 5.51 0 01-1.39-3.71v-31.18c0-2 .93-3.77 3.5-3.77h2.8c2.28 0 3.14 1.2 3.37 3.09l2.38 19.54h.27l8.38-26.1-11.12 1.34a27 27 0 01-3 .24h-25.42a21.47 21.47 0 01-3.06-.24l-9.86-1.34 1.1 26.1h.26l8.41-19.54c.71-1.66 2.23-3.09 3.8-3.09h1.52c1.94 0 2.84 1.61 2.84 3.77m462.65 39.59c-2.92 0-3.81-1.29-3.81-3.85v-31a5.55 5.55 0 011.38-3.71l6.64-6.64h-17.94l6.64 6.64a5.51 5.51 0 011.39 3.71v34.9h-10.22c-2.92 0-3.8-1.29-3.8-3.85v-41.4h-21.86l6.63 6.64a5.51 5.51 0 011.39 3.71V790a5.51 5.51 0 01-1.39 3.71l-6.63 6.64H1117c2 0 4 .55 4.39 2.47l3.42 15.07h.27l7.94-19.43h-8.91v-34.9a5.55 5.55 0 011.38-3.71l6.64-6.64h-21.86v45.25zm73.73-5.41c0 4.25 4 5.81 8.06 5.65 10.44-.41 11.6-16.79.1-14.48-4 .81-8.16 4.73-8.16 8.83m0-39.84v35.19c8.73-13.78 31.34-14.2 32.37-1.8 1.06 12.82-16 13.76-23.69 13.76h-30.54l6.64-6.64A5.51 5.51 0 001160 790v-31.18c0-5.2-5.27-4.65-7-.68l-8.4 19.54h-.27l-1.09-26.1 9.85 1.34a21.61 21.61 0 003.07.24zm59.07 39.84c0 4.25 4 5.81 8.06 5.65 10.43-.41 11.59-16.79.1-14.48-4 .81-8.16 4.73-8.16 8.83m60.7 7.31l-6.64-6.64a5.55 5.55 0 01-1.38-3.71v-26.45a5.55 5.55 0 011.38-3.71l6.64-6.64h-29.88l6.64 6.64a5.55 5.55 0 011.38 3.71v36.79zm-60.7-36.79v24.83c8.72-13.78 31.34-14.2 32.36-1.8 1.06 12.82-16 13.76-23.68 13.76H1211l6.64-6.64A5.55 5.55 0 001219 790v-26.49a5.6 5.6 0 00-1.38-3.72l-6.64-6.64h29.88l-6.64 6.64a5.6 5.6 0 00-1.35 3.72zm89.26 29.48c0 4.25 4 5.81 8.06 5.65 10.43-.41 11.59-16.79.1-14.48-4 .81-8.16 4.73-8.16 8.83m0-29.48v24.83c8.72-13.78 31.33-14.2 32.36-1.8 1.06 12.82-16 13.76-23.68 13.76h-30.54l6.64-6.64a5.55 5.55 0 001.38-3.71v-26.45a5.6 5.6 0 00-1.38-3.72l-6.64-6.64h29.88l-6.64 6.64a5.55 5.55 0 00-1.38 3.72zm-822.59-10.36h-8l6.64 6.64a5.55 5.55 0 011.38 3.71v52.74h21.84l-6.64-6.63a5.6 5.6 0 01-1.38-3.72v-5.6h6.07c22.67 0 33-14.72 33.13-27.9.1-10.95-7.09-20.29-18.55-20.29a22.18 22.18 0 00-20.65 15.33v-14.28zm13.84 23.06v22.19c12.18-.34 23.82-10.94 23.92-25.21.14-19.2-23.92-15.26-23.92 3.02zm-137.73-18.64c5.2-2.86 12.94.27 21.82 14s8.18 21.46 3 24.32-13-.35-21.83-14-8.18-21.47-3-24.33m-.47-2.17c12.67-6.8 28.71-2.77 35.82 9s2.6 26.83-10.07 33.63-28.7 2.76-35.81-9-2.6-26.82 10.07-33.62zM418 433.19l48.17-121.76 33.43 91zm37.27-117.41L402.53 449.9a41 41 0 01-9.31 13.37l-24.58 24.37h64.21l-20.63-21.28c-5.39-5.55-1.77-14-1.69-14.19l3.27-8.25 88.79-33.43L519 455.11a10.65 10.65 0 01-2.5 11.25l-20.63 21.28H607.1l-24.58-24.37c-3.42-3.38-7-7.58-8.78-12.25l-68.38-181.48h-74.89l19.36 19.15c7.68 7.6 9.56 16.72 5.48 27.09zm258.89 138.05c0 18.2 17.22 27.65 35.73 26.87 44.16-1.85 51.24-68.66 6.28-67.18-19.31.64-42 16.59-42 40.31m92.78-191.67l14.58 100.08-.4.2-58.63-75.93c-5-6.54-9.81-8.42-19.56-8.42h-8.16c-16.82 0-20.61 8.84-20.61 20V432.3c39.56-63.4 131.41-63.3 137.9-8.3 7 59-62.08 63.68-97.75 63.68h-124l26.57-26.57c3.06-3.06 5.53-8.9 5.53-14.86V311c0-6-2.47-11.79-5.53-14.86l-26.57-26.57h121.06c8.17-.07 12.27-1.1 20.5-2.3zm157.14 191.67c0 18.2 17.22 27.65 35.73 26.87 44.16-1.85 51.23-68.66 6.27-67.18-19.3.64-42 16.59-42 40.31m-83.86 33.81l26.57-26.57c3.07-3.06 5.54-8.9 5.54-14.86V311c0-6-2.48-11.79-5.54-14.86l-26.57-26.57h109c33.08 0 74.07 3.75 71.92 45.19-2.46 47.32-51.12 66.58-97 78v39.54c39.51-63.4 131.35-63.3 137.85-8.3 7 59-62.08 63.68-97.75 63.68zm83.86-103.56c44.27-12.06 57.68-106.81 22.72-107.62-11-.25-22.72 4.93-22.72 24.32zm166.05-114.54l26.57 26.57c3.07 3.07 5.54 8.9 5.54 14.86v135.24c0 6-2.47 11.8-5.54 14.86l-26.57 26.57h116l-26.56-26.57c-3.07-3.06-5.54-8.9-5.54-14.86V298.05c0-9.17 3.89-19.88 23.7-20h4.3c9.75 0 15.41 1.28 19.56 8.42l56.89 98.09.41-.2-12.9-122.2-35 5.08c-8.24 1.2-12.34 2.23-20.51 2.3zm217.93 209.56h127.36l-61.26-167.67zm28.65 8.54c-9.13 0-15.23 3.34-19.79 10.91l-40.44 67.19h-1.21l-4.75-86.64h28.65l62.9-160.27c4.7-12 2.1-18.79-5-26.09l-22.5-23.2h78.73l78.39 209.56h31.3l-35.42 86.64h-1.21l-15.23-67.19c-2-8.62-10.66-10.91-19.79-10.91zm102.72 105.48h-39.93l12.13 12.13a10.12 10.12 0 012.53 6.78v48.29a10.15 10.15 0 01-2.53 6.79l-12.13 12.12h54.58L1482 667.11a10.15 10.15 0 01-2.53-6.79v-26.84l34.48 9.24v17.6a10.15 10.15 0 01-2.53 6.79l-12.13 12.12h54.58l-12.12-12.12a10.15 10.15 0 01-2.53-6.79V612a10.12 10.12 0 012.53-6.78l12.12-12.13h-54.58l12.13 12.13a10.12 10.12 0 012.53 6.78v27.1l-34.48-9.23zm-116.57 10.26l-10.48-10.26h37.25l22.36 68.52a17.58 17.58 0 004.42 6.49l11.2 11.1h-51.83l9.39-9.69a5 5 0 001.14-5.14l-16.08-51.81-22.17 68.56h-.5l-23.39-69-15.65 50.73c-.69 2.24-.88 5 .68 6.64l9.39 9.69h-29.56l11.21-11.1c1.51-1.5 3.53-3.78 4.24-6.11l14.64-47.38a11.43 11.43 0 00-2.41-11.26l-10.27-10.26h37l14.74 44.46 7.16-23c1.33-4.28.78-8-2.49-11.21m-142.07 7.91l-20 51.27a17.26 17.26 0 01-4 5.6l-11.2 11.1H1215l-9.4-9.69c-1.69-1.74-1.63-4.21-.72-6.5l20.95-53.38 20.25 55.17a4.51 4.51 0 01-1.22 4.71l-9.39 9.69h51.57l-11.2-11.1a14.78 14.78 0 01-3.69-5l-26.28-70h-35.6l9.26 8.86c2.59 2.48 2.63 5.72 1.24 9.28m-818.9.51c11.47-.47 10.42-18.78-6.21-15.23-7.76 1.66-16.4 7.65-19.26 15.23zm3.66-20.55c16.46-.43 30.09 6.43 32.71 24h-62.15c-6.32 24.4 10.12 45.15 36 44.2 20.85-.76 39.52-15.69 33.26-37.69h.52c10.08 30.09-11.12 60.41-46.34 59.38-26.21-.76-44.11-20.13-42.46-45s23.37-44.24 48.46-44.89z"/><path d="M758.26 627.77c19.8-.63 29.25-8.68 29.49-17.66.41-15-15.69-18.25-29.38-19-10.11-.56-20.18 3.5-24.85 2.37L722 590.66l3.6 39.78h.4l15.39-30c4.93-9.57 21.72-7.26 22.41 6.84.31 6.39-3.61 17.84-23.69 22.77v.9c34.52-7.57 35.44 47.23 11.67 46.76-12.32-.25-16.87-18.56-11.33-25.17l11.34-13.53-36.59-.13c-8.31 22.57 7.31 41.94 35.55 42.22 47.7.48 50.8-33.7 37.87-53h-30.36z" fill="#ea533d"/><path class="cls-4" d="M512.41 611.78c11.47-.47 10.41-18.78-6.22-15.23-7.76 1.66-16.39 7.65-19.25 15.23zm-14.81-55.23h.12c3.08 10.92 21.28 22.24 39.87 9l1.84 2.5c-16.52 13.48-32.16 16.21-52.38 9.23zm18.46 34.68c16.47-.43 30.1 6.43 32.72 24h-62.15c-6.33 24.4 10.11 45.15 36 44.2 20.86-.77 39.53-15.69 33.27-37.69h.51c10.09 30.09-11.11 60.41-46.34 59.38-26.2-.76-44.11-20.13-42.46-45s23.39-44.24 48.45-44.89zm86.11 88h-34.63c3.83-24.34 32.09-42 60.92-46.2v-4c-27.61 3.73-59.22-.19-57.33-35.92h40l-7 7c-1.87 1.86-2 4.61-2 7.35-.16 14.66 13.91 20 26.38 17.72V612a10.12 10.12 0 00-2.52-6.78l-12.13-12.13h32.77l-12.13 12.13a10.12 10.12 0 00-2.52 6.78v12.3c11.16-3.24 19.9-12.39 22.69-31.21h34.64c-3.77 20.74-35.15 31.77-57.33 35.4v4.07c.9-.09 1.79-.18 2.69-.25 26.66-2.07 60.61 1.75 58.23 46.89H650l9.18-9.14c2.27-2.26 2.67-5.26 2-9.06-2.71-16.26-11.53-28-29.33-25.28v24.57a10.14 10.14 0 002.52 6.79l12.13 12.12h-32.69l12.13-12.12a10.14 10.14 0 002.52-6.79v-23.83c-15.18 3.91-23.25 17.61-26.29 42.77M846.72 651l34.48-34.48V612a10.12 10.12 0 00-2.53-6.78l-12.12-12.13h54.58L909 605.25a10.12 10.12 0 00-2.53 6.78v48.29a10.15 10.15 0 002.53 6.79l12.13 12.12h-54.58l12.12-12.12a10.15 10.15 0 002.53-6.79v-38.93l-34.48 34.47v4.46a10.15 10.15 0 002.53 6.79l12.13 12.12H806.8l12.12-12.12a10.15 10.15 0 002.53-6.79V612a10.12 10.12 0 00-2.53-6.78l-12.12-12.1h39.92zm132.81-93.65h.13c3.83 10.93 23.09 21.3 41.19 6.61l2 2.44c-16 14.78-31.73 18.55-52.77 12.73zm-.28 93.65l34.48-34.48V612a10.12 10.12 0 00-2.53-6.78l-12.13-12.13h54.59l-12.13 12.13A10.12 10.12 0 001039 612v48.29a10.15 10.15 0 002.53 6.79l12.13 12.12h-54.59l12.13-12.12a10.15 10.15 0 002.53-6.79v-38.9l-34.48 34.47v4.46a10.15 10.15 0 002.53 6.79l12.13 12.12h-54.59l12.13-12.12a10.15 10.15 0 002.53-6.79V612a10.12 10.12 0 00-2.53-6.78l-12.13-12.13h39.93zm132.45-14.54c34.87-10.61 61.33-.81 59.48 42.77h-39.94l9.19-9.14c2.27-2.26 2.14-5.22 2-9.06-.45-17.4-12.82-27.35-30.77-21.45v20.74a10.14 10.14 0 002.52 6.79l12.13 12.12h-54.58l12.13-12.12a10.19 10.19 0 002.52-6.79V612a10.17 10.17 0 00-2.52-6.78l-12.13-12.13h54.58l-12.13 12.13a10.12 10.12 0 00-2.52 6.78v17.73c15.55-5.55 22.87-17.47 22.69-36.64h33.2c-3.78 20.83-31.81 35-55.89 39.61z"/><path d="M189.42 927.58a6.36 6.36 0 00-4.91 2.09 9.24 9.24 0 00-.08 11.07 6.16 6.16 0 004.72 1.94 7.12 7.12 0 004.07-1.22 2.21 2.21 0 00-.44-1.3 5.23 5.23 0 01-2.93.82 4.31 4.31 0 01-3.64-1.76 7.36 7.36 0 01-1.29-4.48 6.12 6.12 0 012-5 4 4 0 012.38-.55 7.91 7.91 0 013.13.58 3.15 3.15 0 00.41-1.71 8.65 8.65 0 00-3.39-.53m10.72 4.61c2.29 0 3.39 2 3.39 4.85a5 5 0 01-1.2 3.7 3.12 3.12 0 01-1.71.55c-2.21 0-3.61-1.82-3.61-5a4.82 4.82 0 011.06-3.43 2.78 2.78 0 012.07-.68m.39-1.44a5.21 5.21 0 00-4 1.71 6.27 6.27 0 00-1.57 4.44 6.17 6.17 0 001.42 4.22 5.39 5.39 0 007.73-.05 6.35 6.35 0 001.49-4.34c-.02-3.67-1.87-5.97-5.07-5.97zm9.98 6.47a13.51 13.51 0 012-.1c1.54 0 2.75.58 2.75 2a2.2 2.2 0 01-.94 2 5.55 5.55 0 01-2.17.29 4.65 4.65 0 01-1.61-.2zm0-4.85a6.4 6.4 0 011.69-.19c1.73 0 2.59.62 2.59 1.87a2 2 0 01-1.75 1.9 12.82 12.82 0 01-2.53.05zm1.83-1.49a30.11 30.11 0 00-4 .29c.12 1.32.16 2.93.16 4.8v.94c0 2.23 0 4.1-.16 5.57a20.14 20.14 0 003.51.26c3.3 0 5.41-1.27 5.41-3.55a2.6 2.6 0 00-2.52-2.76v-.12a2.81 2.81 0 002.07-2.62c.01-1.87-1.49-2.81-4.47-2.81zM222.4 934a3.37 3.37 0 011.88-1.54 3.08 3.08 0 01.92-.09c1.75.07 2.79 1.49 2.79 4.1a5.34 5.34 0 01-1.4 4.13 4.07 4.07 0 01-2.53.7 4.33 4.33 0 01-1.66-.29zm-2.19-2.81c.13 1.37.2 3.7.2 7v1.18c0 4-.07 6.53-.2 7.63h2.34a38.88 38.88 0 01-.15-3.91v-.67a7.35 7.35 0 001.54.19 6.34 6.34 0 004.41-1.7 6.25 6.25 0 001.83-4.76c0-3-1.33-4.8-3.52-5.18a4.34 4.34 0 00-1.66.29 3.49 3.49 0 00-2.67 1.51v-1.87zm14.08 4.63a5 5 0 01.36-1.73 4 4 0 01.77-1.39 3.66 3.66 0 012-.56 2.65 2.65 0 011.86.7 2.32 2.32 0 01.74 1.8 1.17 1.17 0 01-.17.72 12.24 12.24 0 01-2.52.31c-1.37.1-2.38.15-3 .15m3.44-5a4.93 4.93 0 00-4 1.75 6.45 6.45 0 00-1.44 4.23c0 3.62 1.94 5.85 5.24 5.85a6.65 6.65 0 004.19-1.37 1.39 1.39 0 00-.39-1 5.27 5.27 0 01-3.13.86c-2.28 0-3.8-1.3-3.89-4.1l1.75-.15a33.92 33.92 0 005.8-.77 4.22 4.22 0 00.24-1.41 3.76 3.76 0 00-1.13-2.71 4.17 4.17 0 00-3.28-1.2zm8.53 11.6c-.07-2.64-.05-5.57.09-8.79h.12c.17.48.51 1.25 1 2.33l.9 1.87 1.1 2.47h1.13l.94-1.89c.89-1.9 1.61-3.46 2.12-4.73h.14c0 .36 0 1.7.05 4.06s0 3.88 0 4.68h2.19c-.26-2-.43-4.88-.55-8.64v-2.67h-2c-.34.89-1.35 3.07-3 6.58h-.1c-.72-1.37-1.78-3.58-3.15-6.58h-2l-.19 4c-.19 3.34-.38 5.76-.55 7.28zm14.34-6.6a5 5 0 01.36-1.73 4 4 0 01.77-1.39 3.66 3.66 0 012-.56 2.65 2.65 0 011.86.7 2.32 2.32 0 01.74 1.8 1.24 1.24 0 01-.17.72 12.24 12.24 0 01-2.52.31c-1.38.1-2.39.15-3 .15m3.44-5a4.93 4.93 0 00-4 1.75 6.46 6.46 0 00-1.45 4.23c0 3.62 2 5.85 5.25 5.85a6.65 6.65 0 004.19-1.37 1.39 1.39 0 00-.39-1 5.27 5.27 0 01-3.13.86c-2.28 0-3.8-1.3-3.9-4.1l1.76-.15a33.92 33.92 0 005.8-.77 4.22 4.22 0 00.24-1.41 3.76 3.76 0 00-1.13-2.71 4.18 4.18 0 00-3.28-1.2zm16.56 11.6a94.13 94.13 0 01-.14-5.24v-.76c0-2.43 0-4.2.14-5.31h-2.28a27.15 27.15 0 01.17 3.6v1a35.16 35.16 0 01-5.3 0v-.86a32.14 32.14 0 01.15-3.75h-2.31c.12 1.11.16 2.88.16 5.33v.7c0 2.13 0 3.91-.16 5.28h2.31c-.1-.89-.15-2.36-.15-4.35v-.93a35.16 35.16 0 015.3 0v.93a40.91 40.91 0 01-.17 4.35zm13.02 0c-.1-1.61-.14-3.36-.14-5.24v-.76c0-2.43 0-4.2.14-5.31h-2.29a27.15 27.15 0 01.17 3.6v1a35 35 0 01-5.29 0v-.86a35.32 35.32 0 01.14-3.75h-2.31c.12 1.11.17 2.88.17 5.33v.7c0 2.13-.05 3.91-.17 5.28h2.31c-.09-.89-.14-2.36-.14-4.35v-.93a35 35 0 015.29 0v.93a40.91 40.91 0 01-.17 4.35zm4.86-3.27a2.18 2.18 0 01.58-1.51 5.19 5.19 0 012.91-.58 8.1 8.1 0 011.37.2v2.35a3.43 3.43 0 01-2.86 1.58 1.93 1.93 0 01-2-2m6.91-4c0-3.15-1.18-4.35-3.66-4.35a11 11 0 00-4.72 1.25 1.52 1.52 0 00.44 1.2 7.24 7.24 0 013.44-1c1.92 0 2.45 1 2.43 3.58-4.91.07-6.93 1.08-6.93 3.74a3 3 0 003.15 3 4.77 4.77 0 003.83-1.89h.07a12.86 12.86 0 00.17 1.87l1.94-.19a36.68 36.68 0 01-.16-4.83zm9.72 1.32a5.27 5.27 0 01-1 .1c-2.16 0-3.25-.75-3.25-2.26a2.27 2.27 0 01.82-1.7 3.65 3.65 0 012-.39 6.76 6.76 0 011.47.12zm2.14 5.91c-.12-1.54-.17-3.24-.17-5.09v-1.13a48.92 48.92 0 01.17-5 20.52 20.52 0 00-3.56-.29 6.33 6.33 0 00-3.47.89 2.9 2.9 0 00-1.39 2.62 2.94 2.94 0 002.62 2.88c-.16.24-.48.75-1 1.54s-.91 1.46-1.32 2.06-.75 1.08-1 1.42a5.54 5.54 0 002 .29 4.54 4.54 0 001.13-1.52c.36-.57.94-1.6 1.2-2.08.15-.24.29-.48.46-.72.36-.51.58-.72.77-.72h1.4v4.8zm10.85.26a5.18 5.18 0 004-1.7 6.39 6.39 0 001.54-4.44 5.79 5.79 0 00-1.44-4.2 4.74 4.74 0 00-3.54-1.49 8.44 8.44 0 00-3.87.89 1.65 1.65 0 00.41 1.2 6 6 0 012.76-.65 3.21 3.21 0 012.48 1.08 3.59 3.59 0 011 2.61h-1.68a23.21 23.21 0 01-3.44-.16 1.6 1.6 0 000 1.56 20.91 20.91 0 013.42-.17h1.82a4.24 4.24 0 01-1.37 3.48 3.31 3.31 0 01-2 .55 4.33 4.33 0 01-3-.94 1.79 1.79 0 00-.8 1.2c.68.8 1.88 1.18 3.61 1.18m15.31-11.57c-.51.67-1.16 1.54-2.12 2.71s-1.8 2-2.07 2h-.5v-1.1a33.9 33.9 0 01.14-3.65h-2.31c.12 1.47.17 3.17.17 5.14v.84c0 2.13-.05 3.91-.17 5.33h2.31c-.1-.94-.14-2.48-.14-4.59v-1h.5c.27 0 .67.48 1.2 1.4.37.55 1 1.58 1.66 2.44l.32.41a10.14 10.14 0 001.39 1.61 5.12 5.12 0 002.17-.34 32.42 32.42 0 01-3.54-4.46l-1.25-1.78c.39-.38 1.18-1.22 2.36-2.54s1.95-2.14 2.26-2.45zm14.07 11.31c-.09-1.37-.14-3.2-.14-5.5V936c0-.72.05-2.35.14-4.92H348c.12 1.78.17 3.41.17 4.9v1c0 1.61-.05 3.38-.17 5.38h2.31c-.09-1.42-.14-3.58-.14-6.53v-3.34a21.44 21.44 0 012.55-.09 22.78 22.78 0 012.6.09v3.27c0 3-.08 5.18-.2 6.6zm4.82-6.6a5 5 0 01.36-1.73 3.86 3.86 0 01.77-1.39 3.61 3.61 0 012-.56 2.61 2.61 0 011.85.7 2.3 2.3 0 01.75 1.8 1.24 1.24 0 01-.17.72 12.27 12.27 0 01-2.53.31c-1.37.1-2.38.15-3 .15m3.44-5a5 5 0 00-4.05 1.75 6.45 6.45 0 00-1.44 4.23c0 3.62 1.95 5.85 5.25 5.85a6.6 6.6 0 004.18-1.37 1.42 1.42 0 00-.38-1 5.29 5.29 0 01-3.13.86c-2.29 0-3.8-1.3-3.9-4.1l1.76-.15a33.92 33.92 0 005.8-.77 4.22 4.22 0 00.24-1.41 3.8 3.8 0 00-1.13-2.71 4.18 4.18 0 00-3.23-1.2zm9.16 3.18a3.34 3.34 0 011.88-1.54 3 3 0 01.91-.09c1.76.07 2.79 1.49 2.79 4.1a5.38 5.38 0 01-1.39 4.13 4.11 4.11 0 01-2.53.7 4.33 4.33 0 01-1.66-.29zm-2.19-2.81c.12 1.37.19 3.7.19 7v1.18c0 4-.07 6.53-.19 7.63h2.33c-.09-.93-.14-2.23-.14-3.91v-.67a7.27 7.27 0 001.54.19 6.3 6.3 0 004.4-1.7 6.21 6.21 0 001.83-4.76c0-3-1.32-4.8-3.51-5.18a4.31 4.31 0 00-1.66.29 3.46 3.46 0 00-2.67 1.51v-1.87zm22.38 11.23c-.08-1.3-.12-2.88-.12-4.76v-1.6q0-2.64.12-4.95h-1.78c-.32.6-1.3 2-2.91 4.32s-2.56 3.67-2.87 4.2h-.12a36.53 36.53 0 00.15-3.93V934a21.37 21.37 0 01.12-2.93h-2.29c.12 1.42.17 3.07.17 4.92v1c0 2.38-.05 4.18-.17 5.38h1.85c.44-.75 1.42-2.24 3-4.42s2.48-3.58 2.79-4.13h.08c-.08.82-.1 2.23-.1 4.25v1.34a19.63 19.63 0 01-.17 3zm4.98 0c-.07-2.64-.05-5.57.09-8.79h.12c.17.48.51 1.25 1 2.33l.9 1.87 1.1 2.47h1.13l.94-1.89c.89-1.9 1.61-3.46 2.12-4.73h.14c0 .36 0 1.7.05 4.06s.05 3.88 0 4.68h2.19c-.26-2-.43-4.88-.55-8.64l-.05-2.67h-1.95c-.34.89-1.35 3.07-3 6.58h-.1c-.72-1.37-1.78-3.58-3.15-6.58h-2l-.2 4c-.19 3.34-.38 5.76-.55 7.28zm14.34-6.6a5 5 0 01.36-1.73 4 4 0 01.77-1.39 3.66 3.66 0 012-.56 2.65 2.65 0 011.86.7 2.32 2.32 0 01.74 1.8 1.24 1.24 0 01-.17.72 12.24 12.24 0 01-2.52.31c-1.37.1-2.39.15-3 .15m3.44-5a4.93 4.93 0 00-4 1.75 6.46 6.46 0 00-1.45 4.23c0 3.62 1.95 5.85 5.25 5.85a6.65 6.65 0 004.19-1.37 1.39 1.39 0 00-.39-1 5.27 5.27 0 01-3.13.86c-2.28 0-3.8-1.3-3.9-4.1l1.76-.15a33.92 33.92 0 005.8-.77 4.22 4.22 0 00.24-1.41 3.76 3.76 0 00-1.13-2.71 4.18 4.18 0 00-3.28-1.2zm16.56 11.6a94.13 94.13 0 01-.14-5.24v-.76c0-2.43.05-4.2.14-5.31h-2.28a27.15 27.15 0 01.17 3.6v1a35.16 35.16 0 01-5.3 0v-.86a32.14 32.14 0 01.15-3.75h-2.31c.12 1.11.16 2.88.16 5.33v.7c0 2.13 0 3.91-.16 5.28h2.31c-.1-.89-.15-2.36-.15-4.35v-.93a35.16 35.16 0 015.3 0v.93a40.91 40.91 0 01-.17 4.35zm2.1-9.65a18.76 18.76 0 012.79-.15h1v2.69a67 67 0 01-.22 7.11h2.43c-.12-1.18-.19-3.53-.19-7v-2.76h1a16.3 16.3 0 012.77.15v-1.66h-9.5zm12.99 6.38a2.18 2.18 0 01.58-1.51 5.19 5.19 0 012.91-.58 8.1 8.1 0 011.37.2v2.35a3.43 3.43 0 01-2.86 1.58 1.93 1.93 0 01-2-2m6.91-4c0-3.15-1.18-4.35-3.66-4.35a10.92 10.92 0 00-4.72 1.25 1.55 1.55 0 00.43 1.2 7.31 7.31 0 013.45-1c1.92 0 2.45 1 2.43 3.58-4.91.07-6.93 1.08-6.93 3.74a3 3 0 003.15 3 4.75 4.75 0 003.82-1.89h.08a13.35 13.35 0 00.16 1.87l1.95-.19a36.68 36.68 0 01-.16-4.83zm12.39 7.23c-.08-1.11-.12-2.93-.12-5.48v-.88c0-2.33 0-4 .12-4.95h-7.65a12.46 12.46 0 01.19 2.38v.65c0 4.82-.82 6.84-2.53 6.57a3 3 0 00.05 1.92c3.08.46 4.28-2.45 4.28-8.33v-1.75h3.56v5a43.59 43.59 0 01-.19 4.9zm9.74-3.77a2.4 2.4 0 01-1 2.13 3.46 3.46 0 01-1.86.39 4.5 4.5 0 01-1.59-.19 30.19 30.19 0 010-4.66c2.8-.65 4.43.31 4.43 2.33m-6.57-7.54a37.8 37.8 0 01.17 4.61v.89c0 2.71-.05 4.61-.15 5.69a19.13 19.13 0 003.35.26c3.46 0 5.22-1.54 5.22-3.91a3.48 3.48 0 00-1.73-3.27 6.54 6.54 0 00-4.7-.28v-1.28a15.61 15.61 0 01.15-2.71zm20.64 11.31a94.13 94.13 0 01-.14-5.24v-.76c0-2.43.05-4.2.14-5.31h-2.28a27.15 27.15 0 01.17 3.6v1a35.16 35.16 0 01-5.3 0v-.86a32.14 32.14 0 01.15-3.75h-2.31c.12 1.11.17 2.88.17 5.33v.7c0 2.13-.05 3.91-.17 5.28h2.31c-.1-.89-.15-2.36-.15-4.35v-.93a35.16 35.16 0 015.3 0v.93a40.91 40.91 0 01-.17 4.35zm4.87-3.27a2.22 2.22 0 01.57-1.51 5.22 5.22 0 012.91-.58 8.19 8.19 0 011.38.2v2.35a3.45 3.45 0 01-2.87 1.58 1.92 1.92 0 01-2-2m6.9-4c0-3.15-1.18-4.35-3.66-4.35a10.88 10.88 0 00-4.71 1.25 1.52 1.52 0 00.43 1.2 7.28 7.28 0 013.44-1c1.93 0 2.46 1 2.43 3.58-4.91.07-6.93 1.08-6.93 3.74a3 3 0 003.15 3 4.77 4.77 0 003.83-1.89h.07a14.54 14.54 0 00.17 1.87l1.95-.19a35.87 35.87 0 01-.17-4.83zm9.73 1.32a5.25 5.25 0 01-1 .1c-2.17 0-3.25-.75-3.25-2.26a2.25 2.25 0 01.81-1.7 3.65 3.65 0 011.95-.39 6.76 6.76 0 011.47.12zm2.14 5.91c-.12-1.54-.17-3.24-.17-5.09v-1.13a48.92 48.92 0 01.17-5 20.52 20.52 0 00-3.56-.29 6.29 6.29 0 00-3.46.89 2.91 2.91 0 00-1.4 2.62 2.94 2.94 0 002.62 2.88c-.17.24-.48.75-1 1.54s-.92 1.46-1.33 2.06-.74 1.08-1 1.42a5.49 5.49 0 002 .29 4.66 4.66 0 001.14-1.52c.36-.57.93-1.6 1.2-2.08.14-.24.29-.48.46-.72.36-.51.57-.72.77-.72h1.39v4.8zm9.51-3.27a2.18 2.18 0 01.58-1.51 5.19 5.19 0 012.91-.58 8.1 8.1 0 011.37.2v2.35a3.45 3.45 0 01-2.87 1.58 1.93 1.93 0 01-2-2m6.9-4c0-3.15-1.18-4.35-3.65-4.35a10.92 10.92 0 00-4.72 1.25 1.52 1.52 0 00.43 1.2 7.28 7.28 0 013.44-1c1.93 0 2.46 1 2.43 3.58-4.9.07-6.93 1.08-6.93 3.74a3 3 0 003.16 3 4.77 4.77 0 003.82-1.89h.07a14.54 14.54 0 00.17 1.87l2-.19a35.87 35.87 0 01-.17-4.83zm12.93 7.23a94.13 94.13 0 01-.14-5.24v-.76c0-2.43 0-4.2.14-5.31h-2.28a27.15 27.15 0 01.17 3.6v1a35.16 35.16 0 01-5.3 0v-.86a32.14 32.14 0 01.15-3.75H536c.12 1.11.17 2.88.17 5.33v.7c0 2.13-.05 3.91-.17 5.28h2.31c-.1-.89-.15-2.36-.15-4.35v-.93a35.16 35.16 0 015.3 0v.93a40.91 40.91 0 01-.17 4.35zm2.1-9.65a18.76 18.76 0 012.79-.15h1v2.69q0 5.55-.21 7.11h2.43q-.2-1.77-.2-7v-2.76h1a16.23 16.23 0 012.76.15v-1.66h-9.5zm21.3 9.65c-.07-1.3-.12-2.88-.12-4.76v-1.6c0-1.76 0-3.41.12-4.95h-1.78c-.31.6-1.3 2-2.91 4.32s-2.55 3.67-2.87 4.2h-.12a36.53 36.53 0 00.15-3.93V934a23.24 23.24 0 01.12-2.93h-2.29c.12 1.42.17 3.07.17 4.92v1c0 2.38-.05 4.18-.17 5.38h1.85c.44-.75 1.42-2.24 3-4.42s2.48-3.58 2.8-4.13h.05c-.07.82-.1 2.23-.1 4.25v1.34a19.63 19.63 0 01-.17 3zm10.27-11.31c-.51.67-1.16 1.54-2.12 2.71s-1.81 2-2.07 2h-.51v-1.1a33.39 33.39 0 01.15-3.65h-2.31c.12 1.47.17 3.17.17 5.14v.84c0 2.13-.05 3.91-.17 5.33h2.31c-.1-.94-.15-2.48-.15-4.59v-1h.51c.26 0 .67.48 1.2 1.4.36.55 1 1.58 1.66 2.44l.32.41a9.62 9.62 0 001.39 1.61 5.15 5.15 0 002.17-.34 32.42 32.42 0 01-3.54-4.46L577 936.1c.38-.38 1.18-1.22 2.36-2.54s2-2.14 2.26-2.45zm6.81 6.05a13.51 13.51 0 012-.1c1.54 0 2.74.58 2.74 2a2.18 2.18 0 01-.94 2 5.45 5.45 0 01-2.16.29 4.61 4.61 0 01-1.61-.2zm0-4.85a6.32 6.32 0 011.68-.19c1.73 0 2.6.62 2.6 1.87a2 2 0 01-1.76 1.9 12.72 12.72 0 01-2.52.05zm1.83-1.49a30.13 30.13 0 00-4 .29c.12 1.32.17 2.93.17 4.8v.94c0 2.23-.05 4.1-.17 5.57a20.23 20.23 0 003.51.26c3.3 0 5.42-1.27 5.42-3.55a2.61 2.61 0 00-2.53-2.76v-.12a2.81 2.81 0 002.07-2.62q0-2.8-4.47-2.81zm9.28 8.33a2.23 2.23 0 01.58-1.51 5.22 5.22 0 012.91-.58 8 8 0 011.37.2v2.35a3.42 3.42 0 01-2.86 1.58 1.93 1.93 0 01-2-2m6.91-4c0-3.15-1.18-4.35-3.66-4.35a10.88 10.88 0 00-4.71 1.25 1.52 1.52 0 00.43 1.2 7.28 7.28 0 013.44-1c1.92 0 2.45 1 2.43 3.58-4.91.07-6.93 1.08-6.93 3.74a3 3 0 003.15 3 4.77 4.77 0 003.83-1.89h.07a14.54 14.54 0 00.17 1.87l1.95-.19a35.87 35.87 0 01-.17-4.83zm-415.96 23.69a5.24 5.24 0 00-3.9 1.66 5.94 5.94 0 00-1.59 4.29 6.27 6.27 0 001.45 4.32 4.94 4.94 0 003.85 1.61 6.28 6.28 0 003.63-1.08 1.5 1.5 0 00-.29-1 5.17 5.17 0 01-2.4.62c-2.51 0-4.12-2-4.12-5a4.52 4.52 0 011.2-3.32 2.78 2.78 0 011.88-.57 4.18 4.18 0 012.79.93 2.51 2.51 0 00.84-1.46 4.74 4.74 0 00-3.34-1m17.44.31c-.5.67-1.15 1.54-2.11 2.71s-1.81 2-2.07 2h-.51v-1.1a33.39 33.39 0 01.15-3.65h-2.31c.12 1.47.17 3.17.17 5.14v.84c0 2.13-.05 3.91-.17 5.33H201c-.1-.94-.15-2.48-.15-4.59v-1h.51c.26 0 .67.48 1.2 1.4.36.55 1 1.58 1.66 2.44l.31.41a10 10 0 001.4 1.61 5.15 5.15 0 002.17-.34 32.42 32.42 0 01-3.5-4.39l-1.25-1.78c.38-.38 1.18-1.22 2.36-2.54s1.94-2.14 2.26-2.45zm9.17 1.03c2.29 0 3.4 2 3.4 4.85a4.93 4.93 0 01-1.21 3.7 3.12 3.12 0 01-1.71.55c-2.21 0-3.61-1.82-3.61-5a4.87 4.87 0 011.06-3.43 2.78 2.78 0 012.07-.68m.39-1.44a5.21 5.21 0 00-4 1.71 7.06 7.06 0 00-.15 8.66 5.39 5.39 0 007.73 0 6.35 6.35 0 001.49-4.34c-.02-3.69-1.87-6.02-5.07-6.02zm17.39 11.73a94.13 94.13 0 01-.14-5.24v-.76c0-2.43.05-4.2.14-5.31h-2.28a27.15 27.15 0 01.17 3.6v1a35.16 35.16 0 01-5.3 0v-.86a32.14 32.14 0 01.15-3.75H223c.12 1.11.17 2.88.17 5.33v.7c0 2.13 0 3.91-.17 5.28h2.31c-.1-.89-.15-2.36-.15-4.35v-.93a35.16 35.16 0 015.3 0v.93a40.91 40.91 0 01-.17 4.35zm2.1-9.65a18.76 18.76 0 012.79-.15h1v2.69a67 67 0 01-.22 7.11h2.43c-.12-1.18-.19-3.53-.19-7v-2.8h1a16.23 16.23 0 012.76.15v-1.66h-9.5zm13.74 1.27a3.32 3.32 0 011.87-1.54 3.08 3.08 0 01.92-.09c1.75.07 2.79 1.49 2.79 4.1a5.34 5.34 0 01-1.4 4.13 4.06 4.06 0 01-2.52.7 4.29 4.29 0 01-1.66-.29zm-2.19-2.81c.12 1.37.19 3.7.19 7v1.18c0 4-.07 6.53-.19 7.63h2.33c-.1-.93-.14-2.23-.14-3.91v-.67a7.27 7.27 0 001.54.19 6.32 6.32 0 004.4-1.7 6.21 6.21 0 001.83-4.76c0-3-1.32-4.8-3.51-5.18a4.31 4.31 0 00-1.66.29 3.5 3.5 0 00-2.68 1.51v-1.87zm14.1 7.92a2.18 2.18 0 01.58-1.51 5.19 5.19 0 012.91-.58 8.1 8.1 0 011.37.2v2.35a3.45 3.45 0 01-2.87 1.58 1.93 1.93 0 01-2-2m6.9-4c0-3.15-1.18-4.35-3.65-4.35a10.92 10.92 0 00-4.72 1.25 1.52 1.52 0 00.43 1.2 7.28 7.28 0 013.44-1c1.93 0 2.46 1 2.43 3.58-4.9.07-6.93 1.08-6.93 3.74a3 3 0 003.16 3.05 4.77 4.77 0 003.82-1.89h.07a14.54 14.54 0 00.17 1.87l2-.19a35.87 35.87 0 01-.17-4.83zm8.19-4.39a5.23 5.23 0 00-3.89 1.66 5.94 5.94 0 00-1.59 4.29 6.26 6.26 0 001.44 4.32 5 5 0 003.85 1.61 6.34 6.34 0 003.64-1.08 1.55 1.55 0 00-.29-1 5.21 5.21 0 01-2.41.62c-2.5 0-4.11-2-4.11-5a4.48 4.48 0 011.2-3.32 2.76 2.76 0 011.88-.57 4.2 4.2 0 012.79.93 2.56 2.56 0 00.84-1.46 4.77 4.77 0 00-3.35-1m4.58 1.97a18.76 18.76 0 012.79-.15h1v2.69a67 67 0 01-.22 7.11h2.43c-.12-1.18-.19-3.53-.19-7v-2.8h1a16.3 16.3 0 012.77.15v-1.66h-9.5zm21.15 9.65c-.1-1.61-.15-3.36-.15-5.24v-.76q0-3.64.15-5.31h-2.29a27.15 27.15 0 01.17 3.6v1a35 35 0 01-5.29 0v-.86a32.76 32.76 0 01.14-3.75h-2.31c.12 1.11.17 2.88.17 5.33v.7c0 2.13-.05 3.91-.17 5.28h2.31c-.1-.89-.14-2.36-.14-4.35v-.93a35 35 0 015.29 0v.93a40.91 40.91 0 01-.17 4.35zm13.33-5.43c0 2.09-.05 3.89-.17 5.43h2.24c-.1-1-.15-2.88-.15-5.64v-1c0-2.23.05-3.76.15-4.63h-2.19c.07 1.44.12 3 .12 4.73zm-3.71 1.66a2.64 2.64 0 01-.86 2.13 3.48 3.48 0 01-1.59.41 4.3 4.3 0 01-1.64-.21 30.19 30.19 0 010-4.66c2.48-.6 4.09.31 4.09 2.33zm-6.18-7.54a44 44 0 01.17 4.8v.94c0 2.61-.05 4.44-.17 5.45a18.91 18.91 0 003.27.26c3.25 0 4.84-1.63 4.84-3.91a3.35 3.35 0 00-1.66-3.17 5.8 5.8 0 00-4.29-.38v-1.3a15.65 15.65 0 01.15-2.69zm16.91 11.31c-.07-2.64-.05-5.57.1-8.79h.12c.17.48.5 1.25 1 2.33l.89 1.87 1.11 2.47h1.13l.94-1.89c.89-1.9 1.61-3.46 2.11-4.73h.16c0 .36 0 1.7.05 4.06s0 3.88 0 4.68h2.19c-.27-2-.44-4.88-.56-8.64l-.05-2.67h-1.94c-.34.89-1.35 3.07-3 6.58h-.09c-.72-1.37-1.78-3.58-3.15-6.58h-2.05l-.19 4c-.19 3.34-.39 5.76-.56 7.28zm22.65 0c-.08-1.3-.13-2.88-.13-4.76v-1.6c0-1.76.05-3.41.13-4.95h-1.79c-.31.6-1.29 2-2.91 4.32s-2.55 3.67-2.86 4.2h-.12a37.19 37.19 0 00.14-3.93v-1.66a23.24 23.24 0 01.12-2.93h-2.28c.12 1.42.17 3.07.17 4.92v1c0 2.38-.05 4.18-.17 5.38h1.85c.43-.75 1.42-2.24 3-4.42s2.48-3.58 2.79-4.13h.07c-.07.82-.09 2.23-.09 4.25v1.34a19.63 19.63 0 01-.17 3zm21.75 0c-.1-1-.15-2.76-.15-5.38v-1c0-1.85.05-3.5.15-5h-2.17q.15 1.66.15 4.23v5.64l-1.93.07a19.12 19.12 0 01-1.92-.07v-5.72a39.76 39.76 0 01.16-4.15h-2.19c.08 1 .13 2.43.13 4.23v5.64l-1.93.07c-.91 0-1.54 0-1.9-.07v-5.69c0-1.68.05-3.07.14-4.18h-2.19a48.47 48.47 0 01.17 4.95v1c0 2-.05 3.82-.17 5.36zm2.09-9.65a18.76 18.76 0 012.79-.15h1v2.69q0 5.55-.21 7.11h2.43c-.12-1.18-.19-3.53-.19-7v-2.8h1a16.46 16.46 0 012.77.15v-1.66h-9.51zm13.74 1.27a3.34 3.34 0 011.88-1.54 3 3 0 01.91-.09c1.76.07 2.79 1.49 2.79 4.1a5.34 5.34 0 01-1.39 4.13 4.09 4.09 0 01-2.53.7 4.33 4.33 0 01-1.66-.29zm-2.19-2.81c.12 1.37.19 3.7.19 7v1.18c0 4-.07 6.53-.19 7.63h2.33c-.09-.93-.14-2.23-.14-3.91v-.67a7.27 7.27 0 001.54.19 6.3 6.3 0 004.4-1.7 6.21 6.21 0 001.83-4.76c0-3-1.32-4.8-3.51-5.18a4.31 4.31 0 00-1.66.29 3.48 3.48 0 00-2.67 1.51v-1.87zm22.38 11.19c-.07-1.3-.12-2.88-.12-4.76v-1.6c0-1.76.05-3.41.12-4.95h-1.78c-.32.6-1.3 2-2.91 4.32s-2.55 3.67-2.87 4.2h-.12a36.53 36.53 0 00.15-3.93v-1.66a21.37 21.37 0 01.12-2.93h-2.29c.12 1.42.17 3.07.17 4.92v1c0 2.38-.05 4.18-.17 5.38H394c.44-.75 1.42-2.24 3-4.42s2.48-3.58 2.79-4.13h.08c-.08.82-.1 2.23-.1 4.25v1.34a19.63 19.63 0 01-.17 3zm2.57-11.31c1.28 1.75 2.5 3.58 3.66 5.43-1 1.53-2.33 3.5-4 5.88h2.14c.77-1.49 1.66-3 2.69-4.64h.1l1.3 2.09c.77 1.23 1.3 2.07 1.56 2.55h2.6a118.74 118.74 0 01-4-5.93 63.68 63.68 0 013.92-5.38h-2.16c-.56 1-1.4 2.4-2.58 4.15h-.12a37.37 37.37 0 01-2.4-4.15zm13.77 8.04a2.22 2.22 0 01.57-1.51 5.24 5.24 0 012.91-.58 8.19 8.19 0 011.38.2v2.35a3.45 3.45 0 01-2.87 1.58 1.92 1.92 0 01-2-2m6.9-4c0-3.15-1.18-4.35-3.66-4.35a10.88 10.88 0 00-4.71 1.25 1.52 1.52 0 00.43 1.2 7.28 7.28 0 013.44-1c1.93 0 2.46 1 2.43 3.58-4.91.07-6.93 1.08-6.93 3.74a3 3 0 003.15 3.05 4.77 4.77 0 003.83-1.89h.07a14.54 14.54 0 00.17 1.87l1.95-.19a35.87 35.87 0 01-.17-4.83zm4.91 7.23q-.12-4 .09-8.79h.12c.17.48.51 1.25 1 2.33l.89 1.87 1.11 2.47h1.13l.94-1.89c.89-1.9 1.61-3.46 2.12-4.73h.14v4.06c0 2.36.05 3.88 0 4.68h2.19c-.27-2-.43-4.88-.55-8.64l-.05-2.67h-1.95c-.34.89-1.35 3.07-3 6.58h-.1c-.72-1.37-1.78-3.58-3.15-6.58h-2.03l-.19 4c-.19 3.34-.38 5.76-.55 7.28zm22.63 0c-.07-1.3-.12-2.88-.12-4.76v-1.6c0-1.76.05-3.41.12-4.95h-1.78c-.31.6-1.3 2-2.91 4.32s-2.55 3.67-2.87 4.2H445a36.53 36.53 0 00.15-3.93v-1.66a23.24 23.24 0 01.12-2.93h-2.29c.12 1.42.17 3.07.17 4.92v1c0 2.38-.05 4.18-.17 5.38h1.85c.44-.75 1.42-2.24 3-4.42s2.48-3.58 2.8-4.13h.07c-.07.82-.1 2.23-.1 4.25v1.34a19.63 19.63 0 01-.17 3zm17.8 0c-.07-1.3-.12-2.88-.12-4.76v-1.6c0-1.76.05-3.41.12-4.95h-1.78c-.31.6-1.3 2-2.91 4.32s-2.55 3.67-2.86 4.2h-.12c.09-.84.14-2.13.14-3.93v-1.66a23.24 23.24 0 01.12-2.93h-2.28c.12 1.42.17 3.07.17 4.92v1c0 2.38-.05 4.18-.17 5.38h1.85c.43-.75 1.42-2.24 3-4.42s2.48-3.58 2.79-4.13h.07c-.07.82-.09 2.23-.09 4.25v1.34a19.63 19.63 0 01-.17 3zm14.49-5.91a5.27 5.27 0 01-1 .1c-2.16 0-3.25-.75-3.25-2.26a2.27 2.27 0 01.82-1.7 3.65 3.65 0 011.95-.39 6.76 6.76 0 011.47.12zm2.14 5.91c-.12-1.54-.17-3.24-.17-5.09v-1.13a48.92 48.92 0 01.17-5 20.52 20.52 0 00-3.56-.29 6.27 6.27 0 00-3.46.89 2.91 2.91 0 00-1.4 2.62 2.94 2.94 0 002.62 2.88c-.17.24-.49.75-1 1.54s-.91 1.46-1.32 2.06-.75 1.08-1 1.42a5.49 5.49 0 002 .29 4.54 4.54 0 001.13-1.52c.36-.57.94-1.6 1.21-2.08q.21-.36.45-.72c.36-.51.58-.72.77-.72h1.4v4.8zm5.58-8.38a3.34 3.34 0 011.88-1.54 3 3 0 01.91-.09c1.76.07 2.8 1.49 2.8 4.1a5.34 5.34 0 01-1.4 4.13 4.07 4.07 0 01-2.53.7 4.33 4.33 0 01-1.66-.29zm-2.19-2.81c.12 1.37.2 3.7.2 7v1.18c0 4-.08 6.53-.2 7.63h2.34a38.88 38.88 0 01-.15-3.91v-.67a7.35 7.35 0 001.54.19 6.34 6.34 0 004.41-1.7 6.25 6.25 0 001.83-4.76c0-3-1.33-4.8-3.52-5.18a4.34 4.34 0 00-1.66.29 3.49 3.49 0 00-2.67 1.51v-1.87zm19.55-.12c-.5.67-1.15 1.54-2.12 2.71s-1.8 2-2.06 2h-.51v-1.1c0-1.58.05-2.81.14-3.65h-2.31c.12 1.47.17 3.17.17 5.14v.84c0 2.13-.05 3.91-.17 5.33h2.31c-.09-.94-.14-2.48-.14-4.59v-1h.51c.26 0 .67.48 1.2 1.4.36.55 1 1.58 1.66 2.44l.31.41a10 10 0 001.4 1.61 5.07 5.07 0 002.16-.34A32.54 32.54 0 01509 966l-1.26-1.78c.39-.38 1.18-1.22 2.36-2.54s1.95-2.14 2.26-2.45zm9.16 1.03c2.29 0 3.39 2 3.39 4.85a5 5 0 01-1.2 3.7 3.12 3.12 0 01-1.71.55c-2.21 0-3.61-1.82-3.61-5a4.82 4.82 0 011.06-3.43 2.78 2.78 0 012.07-.68m.38-1.44a5.21 5.21 0 00-4 1.71 6.27 6.27 0 00-1.57 4.44 6.17 6.17 0 001.42 4.22 5.39 5.39 0 007.73 0 6.35 6.35 0 001.49-4.34c-.01-3.69-1.87-6.02-5.07-6.02zm14.66 6.47a13.51 13.51 0 012-.1c1.54 0 2.74.58 2.74 2a2.19 2.19 0 01-.93 2 5.55 5.55 0 01-2.17.29 4.65 4.65 0 01-1.61-.2zm0-4.85a6.37 6.37 0 011.68-.19c1.74 0 2.6.62 2.6 1.87a2 2 0 01-1.76 1.9 12.7 12.7 0 01-2.52 0zm1.8-1.49a30.25 30.25 0 00-4 .29c.12 1.32.17 2.93.17 4.8v.94c0 2.23-.05 4.1-.17 5.57a20.27 20.27 0 003.52.26c3.29 0 5.41-1.27 5.41-3.55a2.6 2.6 0 00-2.53-2.76v-.12a2.79 2.79 0 002.07-2.62q.03-2.8-4.47-2.81zm17.78 6.17c0 2.09 0 3.89-.16 5.43h2.23c-.09-1-.14-2.88-.14-5.64v-1c0-2.23 0-3.76.14-4.63h-2.19c.08 1.44.12 3 .12 4.73zm-3.7 1.66a2.62 2.62 0 01-.87 2.13 3.48 3.48 0 01-1.58.41 4.3 4.3 0 01-1.64-.21 30.19 30.19 0 010-4.66c2.48-.6 4.09.31 4.09 2.33zm-6.18-7.54a44.72 44.72 0 01.16 4.8v.94c0 2.61 0 4.44-.16 5.45a18.91 18.91 0 003.27.26c3.25 0 4.83-1.63 4.83-3.91a3.33 3.33 0 00-1.66-3.17 5.77 5.77 0 00-4.28-.38v-1.3a15.65 15.65 0 01.15-2.69zm17.54 2.93a3.32 3.32 0 011.87-1.54 3.08 3.08 0 01.92-.09c1.75.07 2.79 1.49 2.79 4.1a5.34 5.34 0 01-1.4 4.13 4.06 4.06 0 01-2.52.7 4.29 4.29 0 01-1.66-.29zm-2.19-2.81c.12 1.37.19 3.7.19 7v1.18c0 4-.07 6.53-.19 7.63h2.33c-.1-.93-.14-2.23-.14-3.91v-.67a7.27 7.27 0 001.54.19 6.34 6.34 0 004.4-1.7 6.21 6.21 0 001.83-4.76c0-3-1.32-4.8-3.51-5.18a4.31 4.31 0 00-1.66.29 3.5 3.5 0 00-2.68 1.51v-1.87zm14.1 7.92a2.22 2.22 0 01.57-1.51 5.26 5.26 0 012.92-.58 8.1 8.1 0 011.37.2v2.35a3.45 3.45 0 01-2.87 1.58 1.93 1.93 0 01-2-2m6.9-4c0-3.15-1.18-4.35-3.65-4.35a10.92 10.92 0 00-4.72 1.25 1.52 1.52 0 00.43 1.2 7.28 7.28 0 013.44-1c1.93 0 2.46 1 2.43 3.58-4.9.07-6.93 1.08-6.93 3.74a3 3 0 003.16 3.05 4.77 4.77 0 003.82-1.89h.07a14.54 14.54 0 00.17 1.87l1.95-.19a35.87 35.87 0 01-.17-4.83zm14.98-4.08c-2 3.27-3.25 4.9-3.71 4.9h-.57v-1.2a32.46 32.46 0 01.16-3.7h-2a35 35 0 01.14 3.7v1.2h-.48q-.65 0-3.75-4.9h-2.14c.26.39.89 1.18 1.83 2.35s1.61 2 2 2.6l-1.3 1.92c-.63.93-1.21 1.77-1.73 2.52s-1 1.29-1.28 1.68a2.37 2.37 0 00.91.28 6 6 0 001 .12 9.54 9.54 0 001.37-1.92l.48-.74c.22-.36.36-.62.48-.79.22-.39.68-1.06.89-1.35.39-.55.75-.93.92-.93h.74v1.25c0 1.87 0 3.31-.14 4.32h2a41.87 41.87 0 01-.16-4.4v-1.17h.86c.2 0 .65.62 1.18 1.51.36.5.94 1.51 1.4 2.21a16.51 16.51 0 001.39 2 4.15 4.15 0 001.93-.34c-.68-.86-1.73-2.42-3-4.34l-1.17-1.83c.36-.5 1-1.37 2-2.59l1.81-2.33zm6.04 4.71a5 5 0 01.36-1.73 4 4 0 01.77-1.39 3.66 3.66 0 012-.56 2.65 2.65 0 011.86.7 2.32 2.32 0 01.74 1.8 1.24 1.24 0 01-.17.72 12.24 12.24 0 01-2.52.31c-1.37.1-2.39.15-3 .15m3.44-5a4.93 4.93 0 00-4 1.75 6.46 6.46 0 00-1.45 4.23c0 3.62 1.95 5.85 5.25 5.85a6.65 6.65 0 004.19-1.37 1.39 1.39 0 00-.39-1 5.27 5.27 0 01-3.13.86c-2.28 0-3.8-1.3-3.9-4.1L603 965a33.92 33.92 0 005.8-.77 4.22 4.22 0 00.24-1.41 3.76 3.76 0 00-1.13-2.71 4.18 4.18 0 00-3.21-1.23zm16.56 11.6a94.13 94.13 0 01-.14-5.24v-.76c0-2.43.05-4.2.14-5.31H619a27.15 27.15 0 01.17 3.6v1a35.16 35.16 0 01-5.3 0v-.86a32.14 32.14 0 01.15-3.75h-2.31c.12 1.11.16 2.88.16 5.33v.7c0 2.13 0 3.91-.16 5.28H614c-.1-.89-.15-2.36-.15-4.35v-.93a35.16 35.16 0 015.3 0v.93a40.91 40.91 0 01-.17 4.35zm13.02 0c-.1-1.61-.14-3.36-.14-5.24v-.76c0-2.43 0-4.2.14-5.31H632a27.15 27.15 0 01.17 3.6v1a35 35 0 01-5.29 0v-.86a35.32 35.32 0 01.14-3.75h-2.31c.12 1.11.17 2.88.17 5.33v.7c0 2.13 0 3.91-.17 5.28h2.31c-.09-.89-.14-2.36-.14-4.35v-.93a35 35 0 015.29 0v.93a40.91 40.91 0 01-.17 4.35zm13.33-5.43c0 2.09 0 3.89-.17 5.43h2.24c-.1-1-.14-2.88-.14-5.64v-1c0-2.23 0-3.76.14-4.63h-2.19c.07 1.44.12 3 .12 4.73zm-3.7 1.66a2.62 2.62 0 01-.87 2.13 3.48 3.48 0 01-1.59.41 4.33 4.33 0 01-1.64-.21 30.19 30.19 0 010-4.66c2.48-.6 4.15.31 4.15 2.33zm-6.19-7.54a44 44 0 01.17 4.8v.94c0 2.61 0 4.44-.17 5.45a19.08 19.08 0 003.27.26c3.25 0 4.84-1.63 4.84-3.91a3.33 3.33 0 00-1.66-3.17 5.77 5.77 0 00-4.28-.38v-1.3a17.16 17.16 0 01.14-2.69zm16.92 11.31q-.12-4 .09-8.79h.12c.17.48.51 1.25 1 2.33l.89 1.87 1.11 2.47H659l.94-1.89c.89-1.9 1.61-3.46 2.12-4.73h.14v4.06c0 2.36.05 3.88 0 4.68h2.19c-.26-2-.43-4.88-.55-8.64v-2.67h-2c-.34.89-1.35 3.07-3 6.58h-.1c-.72-1.37-1.78-3.58-3.15-6.58h-2l-.19 4c-.19 3.34-.38 5.76-.55 7.28zm-472.24 16.77c1.27 1.76 2.5 3.58 3.65 5.43-1 1.53-2.33 3.5-4 5.88h2.14c.77-1.49 1.66-3 2.7-4.64h.07l1.3 2.09c.77 1.23 1.3 2.07 1.57 2.55h2.6c-1.09-1.49-2.43-3.46-4-5.93a59.42 59.42 0 013.92-5.38h-2.17c-.55 1-1.39 2.4-2.57 4.16h-.12a38.55 38.55 0 01-2.41-4.16zm13.76 8.04a2.18 2.18 0 01.58-1.51 5.19 5.19 0 012.91-.58 8.1 8.1 0 011.37.2v2.35a3.41 3.41 0 01-2.86 1.58 1.93 1.93 0 01-2-2m6.91-4c0-3.15-1.18-4.34-3.66-4.34a10.93 10.93 0 00-4.72 1.24 1.51 1.51 0 00.44 1.2 7.22 7.22 0 013.44-1c1.92 0 2.45 1 2.43 3.57-4.91.07-6.93 1.08-6.93 3.75a3 3 0 003.15 3 4.77 4.77 0 003.83-1.89h.07a12.86 12.86 0 00.17 1.87l1.94-.19a36.58 36.58 0 01-.16-4.83zm5.51-1.15a3.26 3.26 0 011.87-1.53 2.81 2.81 0 01.92-.1c1.75.07 2.79 1.49 2.79 4.1a5.34 5.34 0 01-1.4 4.13 4.06 4.06 0 01-2.52.7 4.29 4.29 0 01-1.66-.29zm-2.19-2.81c.12 1.37.19 3.7.19 7v1.17c0 4-.07 6.53-.19 7.63h2.33c-.1-.93-.14-2.23-.14-3.91v-.67a7.27 7.27 0 001.54.19 6.34 6.34 0 004.4-1.7 6.19 6.19 0 001.83-4.75c0-3-1.32-4.8-3.51-5.19a4.31 4.31 0 00-1.66.29 3.5 3.5 0 00-2.68 1.51v-1.87zm14.1 7.92a2.22 2.22 0 01.57-1.51 5.26 5.26 0 012.92-.58 8.1 8.1 0 011.37.2v2.35a3.42 3.42 0 01-2.87 1.58 1.93 1.93 0 01-2-2m6.9-4c0-3.15-1.18-4.34-3.65-4.34a10.89 10.89 0 00-4.72 1.24 1.5 1.5 0 00.43 1.2 7.25 7.25 0 013.44-1c1.93 0 2.46 1 2.43 3.57-4.9.07-6.93 1.08-6.93 3.75a3 3 0 003.16 3 4.77 4.77 0 003.82-1.89h.07a14.54 14.54 0 00.17 1.87l1.95-.19a35.77 35.77 0 01-.17-4.83zm10.22-4.08c-.51.68-1.16 1.54-2.12 2.72s-1.81 2-2.07 2h-.51v-1.11a33.39 33.39 0 01.15-3.65h-2.31c.12 1.47.17 3.17.17 5.14v.84c0 2.14 0 3.91-.17 5.33h2.31q-.15-1.41-.15-4.59v-1h.51c.26 0 .67.48 1.2 1.39.36.55 1 1.58 1.66 2.44l.31.41a9.52 9.52 0 001.4 1.61 5.35 5.35 0 002.17-.33 33.32 33.32 0 01-3.54-4.47l-1.25-1.77c.38-.39 1.18-1.23 2.36-2.55s1.94-2.13 2.26-2.45zm3.29 1.66a19.08 19.08 0 012.79-.14h1v2.68a70 70 0 01-.22 7.11h2.43c-.12-1.18-.19-3.53-.19-7v-2.76h1a16.81 16.81 0 012.77.14v-1.66H241zM253.9 992a5 5 0 01.36-1.73 4 4 0 01.77-1.39 3.65 3.65 0 012-.55 2.64 2.64 0 011.86.69 2.32 2.32 0 01.74 1.8 1.17 1.17 0 01-.17.72 12.24 12.24 0 01-2.52.31c-1.37.1-2.38.15-3 .15m3.44-5a4.93 4.93 0 00-4 1.75 6.45 6.45 0 00-1.44 4.23c0 3.62 1.94 5.85 5.24 5.85a6.72 6.72 0 004.19-1.36 1.41 1.41 0 00-.39-1 5.27 5.27 0 01-3.13.86c-2.28 0-3.8-1.29-3.89-4.1l1.75-.15a35 35 0 005.8-.76 4.24 4.24 0 00.24-1.42 3.76 3.76 0 00-1.13-2.71 4.2 4.2 0 00-3.28-1.19zm9.15 3.2a3.28 3.28 0 011.88-1.53 2.78 2.78 0 01.91-.1c1.76.07 2.8 1.49 2.8 4.1a5.34 5.34 0 01-1.4 4.13 4.07 4.07 0 01-2.53.7 4.33 4.33 0 01-1.66-.29zm-2.19-2.81c.12 1.37.2 3.7.2 7v1.17c0 4-.08 6.53-.2 7.63h2.34a38.88 38.88 0 01-.15-3.91v-.67a7.35 7.35 0 001.54.19 6.34 6.34 0 004.41-1.7 6.22 6.22 0 001.83-4.75c0-3-1.33-4.8-3.52-5.19a4.34 4.34 0 00-1.66.29 3.49 3.49 0 00-2.67 1.51v-1.87zm17.21.92c2.28 0 3.39 2 3.39 4.84a5 5 0 01-1.2 3.7 3.14 3.14 0 01-1.71.55c-2.21 0-3.61-1.82-3.61-5a4.82 4.82 0 011.06-3.43 2.78 2.78 0 012.07-.67m.38-1.44a5.23 5.23 0 00-4 1.7 6.31 6.31 0 00-1.56 4.44 6.17 6.17 0 001.42 4.22 5.37 5.37 0 007.72-.05 6.31 6.31 0 001.5-4.34c-.01-3.64-1.88-5.96-5.08-5.96zm9.36 11.72q-.1-4 .1-8.79h.12c.17.48.51 1.25 1 2.33l.89 1.87 1.11 2.47h1.13l.94-1.89c.89-1.9 1.61-3.46 2.11-4.73h.15v4.06c0 2.35.05 3.89 0 4.68h2.19c-.27-2-.44-4.87-.56-8.64v-2.67h-1.95q-.51 1.34-3 6.58h-.09c-.72-1.37-1.78-3.58-3.15-6.58h-2.05l-.19 4c-.19 3.33-.39 5.76-.56 7.27zM313.74 987a5.23 5.23 0 00-3.89 1.66 5.94 5.94 0 00-1.59 4.29 6.26 6.26 0 001.44 4.32 5 5 0 003.85 1.61 6.28 6.28 0 003.63-1.08 1.49 1.49 0 00-.28-1 5.21 5.21 0 01-2.41.62c-2.5 0-4.12-2-4.12-5a4.44 4.44 0 011.21-3.31 2.7 2.7 0 011.87-.58 4.16 4.16 0 012.8.94 2.67 2.67 0 00.84-1.47 4.77 4.77 0 00-3.35-1m4.58 1.93a19 19 0 012.79-.14h1v2.68a67 67 0 01-.22 7.11h2.43c-.12-1.18-.19-3.53-.19-7v-2.76h1a16.73 16.73 0 012.77.14v-1.66h-9.5zm12.99 6.38a2.18 2.18 0 01.58-1.51 5.19 5.19 0 012.91-.58 8.1 8.1 0 011.37.2v2.35a3.42 3.42 0 01-2.86 1.58 1.93 1.93 0 01-2-2m6.9-4c0-3.15-1.18-4.34-3.65-4.34a10.89 10.89 0 00-4.72 1.24 1.5 1.5 0 00.43 1.2 7.28 7.28 0 013.44-1c1.93 0 2.46 1 2.43 3.57-4.9.07-6.93 1.08-6.93 3.75a3 3 0 003.16 3 4.75 4.75 0 003.82-1.89h.07a14.54 14.54 0 00.17 1.87l1.95-.19a35.77 35.77 0 01-.17-4.83zm5.51-1.15a3.31 3.31 0 011.88-1.53 2.81 2.81 0 01.92-.1c1.75.07 2.79 1.49 2.79 4.1a5.34 5.34 0 01-1.4 4.13 4.07 4.07 0 01-2.53.7 4.33 4.33 0 01-1.66-.29zm-2.19-2.81c.12 1.37.2 3.7.2 7v1.17c0 4-.08 6.53-.2 7.63h2.34a38.88 38.88 0 01-.15-3.91v-.67a7.35 7.35 0 001.54.19 6.34 6.34 0 004.41-1.7 6.22 6.22 0 001.83-4.75c0-3-1.33-4.8-3.52-5.19a4.34 4.34 0 00-1.66.29 3.49 3.49 0 00-2.67 1.51v-1.87zm17.21.92c2.28 0 3.39 2 3.39 4.84a5 5 0 01-1.2 3.7 3.12 3.12 0 01-1.71.55c-2.21 0-3.61-1.82-3.61-5a4.82 4.82 0 011.06-3.43 2.78 2.78 0 012.07-.67m.38-1.44a5.2 5.2 0 00-4 1.7 6.27 6.27 0 00-1.57 4.44 6.17 6.17 0 001.42 4.22 5.37 5.37 0 007.72-.05 6.31 6.31 0 001.5-4.34c-.01-3.64-1.87-5.96-5.07-5.96zm12.66.14a5.26 5.26 0 00-3.9 1.66 5.94 5.94 0 00-1.59 4.29 6.27 6.27 0 001.45 4.32 4.94 4.94 0 003.85 1.61 6.28 6.28 0 003.63-1.08 1.45 1.45 0 00-.29-1 5.17 5.17 0 01-2.4.62c-2.51 0-4.12-2-4.12-5a4.48 4.48 0 011.2-3.31 2.73 2.73 0 011.88-.58 4.13 4.13 0 012.79.94 2.63 2.63 0 00.85-1.47 4.79 4.79 0 00-3.35-1m14.97 11.58c-.08-1.11-.12-2.93-.12-5.47v-.89c0-2.33 0-4 .12-5h-7.65a12.54 12.54 0 01.19 2.38v.65c0 4.82-.82 6.84-2.53 6.57a3 3 0 00.05 1.92c3.08.46 4.28-2.44 4.28-8.32v-1.76h3.56v5a43.46 43.46 0 01-.19 4.9zm4.57-3.27a2.18 2.18 0 01.58-1.51 5.19 5.19 0 012.91-.58 8.1 8.1 0 011.37.2v2.35a3.41 3.41 0 01-2.86 1.58 1.93 1.93 0 01-2-2m6.9-4c0-3.15-1.17-4.34-3.65-4.34a10.89 10.89 0 00-4.72 1.24 1.54 1.54 0 00.43 1.2 7.28 7.28 0 013.44-1c1.93 0 2.46 1 2.44 3.57-4.91.07-6.93 1.08-6.93 3.75a3 3 0 003.15 3 4.75 4.75 0 003.82-1.89h.08a13.35 13.35 0 00.16 1.87l1.95-.19a35.77 35.77 0 01-.17-4.83zm5.51 1.97a13.76 13.76 0 012-.1c1.54 0 2.74.58 2.74 2a2.18 2.18 0 01-.94 2 5.45 5.45 0 01-2.16.29 4.75 4.75 0 01-1.62-.19zm0-4.85a6.45 6.45 0 011.69-.19c1.73 0 2.6.62 2.6 1.87a2 2 0 01-1.76 1.9 12.82 12.82 0 01-2.53.05zm1.83-1.48a30 30 0 00-4 .28c.12 1.32.17 2.93.17 4.8v.93c0 2.23-.05 4.1-.17 5.57a19.2 19.2 0 003.51.26c3.3 0 5.42-1.27 5.42-3.55a2.61 2.61 0 00-2.53-2.76v-.12a2.8 2.8 0 002.07-2.62Q410 987 405.56 987zm14.25 5.68a4.55 4.55 0 01-1 .1c-2.16 0-3.25-.74-3.25-2.26a2.27 2.27 0 01.82-1.7 3.66 3.66 0 011.95-.38 6.93 6.93 0 011.47.11zm2.14 5.91c-.12-1.54-.17-3.24-.17-5.09v-1.13a49.05 49.05 0 01.17-5 20.57 20.57 0 00-3.56-.28 6.33 6.33 0 00-3.47.88 2.9 2.9 0 00-1.39 2.62 2.93 2.93 0 002.62 2.88c-.16.24-.48.75-1 1.54s-.91 1.46-1.32 2.06-.75 1.08-1 1.42a5.33 5.33 0 002 .29 4.58 4.58 0 001.13-1.51c.36-.58.94-1.61 1.2-2.09.15-.24.29-.48.46-.72.36-.51.58-.72.77-.72h1.4v4.8zm12.99 0c-.09-1.61-.14-3.36-.14-5.23v-.77c0-2.43.05-4.2.14-5.31h-2.28a27.15 27.15 0 01.17 3.6v1a35.16 35.16 0 01-5.3 0V991a32.14 32.14 0 01.15-3.75h-2.31c.12 1.11.16 2.88.16 5.33v.7c0 2.13 0 3.91-.16 5.28h2.31c-.1-.89-.15-2.35-.15-4.35v-.93a35.16 35.16 0 015.3 0v.93a40.91 40.91 0 01-.17 4.35zm8.28-11.58a5.24 5.24 0 00-3.9 1.66 5.94 5.94 0 00-1.59 4.29 6.27 6.27 0 001.45 4.32 4.94 4.94 0 003.85 1.61 6.28 6.28 0 003.63-1.08 1.45 1.45 0 00-.29-1 5.17 5.17 0 01-2.4.62c-2.51 0-4.12-2-4.12-5a4.48 4.48 0 011.2-3.31 2.73 2.73 0 011.88-.58 4.13 4.13 0 012.79.94 2.63 2.63 0 00.85-1.47 4.79 4.79 0 00-3.35-1m12.78.27c-.51.68-1.16 1.54-2.12 2.72s-1.8 2-2.07 2h-.5v-1.11a33.9 33.9 0 01.14-3.65h-2.31c.12 1.47.17 3.17.17 5.14v.84c0 2.14-.05 3.91-.17 5.33h2.31c-.1-.94-.14-2.47-.14-4.59v-1h.5c.27 0 .67.48 1.2 1.39.36.55 1 1.58 1.66 2.44l.32.41a9.19 9.19 0 001.39 1.61 5.35 5.35 0 002.17-.33A33.32 33.32 0 01455 994l-1.25-1.77c.38-.39 1.18-1.23 2.36-2.55s1.95-2.13 2.26-2.45zm9.17 1.04c2.28 0 3.39 2 3.39 4.84a4.93 4.93 0 01-1.21 3.7 3.11 3.11 0 01-1.7.55c-2.22 0-3.61-1.82-3.61-5a4.82 4.82 0 011.06-3.4 2.76 2.76 0 012.07-.67m.38-1.44a5.22 5.22 0 00-4 1.7A6.31 6.31 0 00460 993a6.17 6.17 0 001.42 4.22 5.37 5.37 0 007.72-.05 6.3 6.3 0 001.49-4.34c-.03-3.64-1.88-5.96-5.08-5.96zm10.18 11.69c-.12-1.18-.19-3.46-.19-6.82v-3h1.54a28.1 28.1 0 013.32.14v-1.66h-7c.12 1.27.17 2.72.17 4.32v1.08c0 2.38-.05 4.32-.17 5.88zm11.21-10.27c2.29 0 3.39 2 3.39 4.84a5 5 0 01-1.2 3.7 3.12 3.12 0 01-1.71.55c-2.21 0-3.61-1.82-3.61-5a4.82 4.82 0 011.06-3.43 2.78 2.78 0 012.07-.67m.39-1.44a5.21 5.21 0 00-4 1.7 6.27 6.27 0 00-1.57 4.44 6.17 6.17 0 001.42 4.22 5.39 5.39 0 007.73-.05 6.35 6.35 0 001.49-4.34c-.02-3.64-1.87-5.96-5.07-5.96zm17.32.14a5.26 5.26 0 00-3.9 1.66 5.94 5.94 0 00-1.59 4.29 6.27 6.27 0 001.45 4.32 4.94 4.94 0 003.85 1.61 6.28 6.28 0 003.63-1.08 1.45 1.45 0 00-.29-1 5.17 5.17 0 01-2.4.62c-2.51 0-4.12-2-4.12-5a4.48 4.48 0 011.2-3.31 2.73 2.73 0 011.88-.58 4.13 4.13 0 012.79.94A2.63 2.63 0 00508 988a4.79 4.79 0 00-3.35-1m4.57 1.93a19.08 19.08 0 012.79-.14h1v2.68a70 70 0 01-.22 7.11h2.43c-.12-1.18-.19-3.53-.19-7v-2.76h1a16.73 16.73 0 012.77.14v-1.66h-9.51zm21.27 9.65c-.07-1.3-.12-2.88-.12-4.75v-1.61c0-1.75 0-3.41.12-5h-1.78c-.31.6-1.3 2-2.91 4.32s-2.55 3.68-2.86 4.2h-.12c.09-.84.14-2.13.14-3.93v-1.61a23.35 23.35 0 01.12-2.93h-2.28c.12 1.42.16 3.08.16 4.92v1c0 2.38 0 4.18-.16 5.38h1.85c.43-.75 1.42-2.23 3-4.42s2.48-3.57 2.79-4.13h.07c-.07.82-.09 2.24-.09 4.25v1.35a19.58 19.58 0 01-.17 3zm12.51 0c-.07-1.11-.12-2.93-.12-5.47v-.89c0-2.33 0-4 .12-5h-7.65a12.54 12.54 0 01.19 2.38v.65c0 4.82-.82 6.84-2.52 6.57a3 3 0 000 1.92c3.08.46 4.29-2.44 4.29-8.32v-1.76h3.56v5a43.46 43.46 0 01-.19 4.9zm9.51-5.91a4.55 4.55 0 01-1 .1c-2.16 0-3.25-.74-3.25-2.26a2.27 2.27 0 01.82-1.7 3.66 3.66 0 011.95-.38 6.93 6.93 0 011.47.11zm2.14 5.91c-.12-1.54-.17-3.24-.17-5.09v-1.13a49.05 49.05 0 01.17-5 20.57 20.57 0 00-3.56-.28 6.27 6.27 0 00-3.46.88 3 3 0 001.22 5.5c-.17.24-.48.75-1 1.54s-.91 1.46-1.32 2.06-.75 1.08-1 1.42a5.28 5.28 0 002 .29 4.58 4.58 0 001.13-1.51c.36-.58.94-1.61 1.21-2.09q.21-.36.45-.72c.37-.51.58-.72.77-.72h1.4v4.8z"/></g></svg>