<svg data-name="Layer 1" xmlns="http://www.w3.org/2000/svg" viewBox="0 0 1920 1080"><defs><clipPath id="a"><path fill="none" d="M0 0h1920v1080H0z"/></clipPath></defs><g clip-path="url(#a)"><path fill="#ea533d" d="M0 0h1920v1080H0z"/><path d="M210.57 519.93l-16.74 41.92a13.77 13.77 0 01-3.05 4.47l-7.78 7.74h20.38l-6.55-6.76c-1.2-1.24-1.12-3-.47-4.63L214 518.09 230.54 563a3.84 3.84 0 01-.63 4.35l-6.55 6.76h35.34l-7.81-7.74a11 11 0 01-2.65-3.62l-21.84-57.97h-23.88l6.37 6.35c2.47 2.46 3.1 5.24 1.68 8.8m62.91 7.15c5.72-3.15 14.24.29 24 15.36s9 23.62 3.28 26.76-14.31-.39-24-15.37-9-23.61-3.27-26.75m-.51-2.4c13.93-7.47 31.57-3 39.39 9.91s2.87 29.52-11.07 37-31.57 3-39.39-9.91-2.91-29.52 11.09-37zm47.58-2.47l7.3 7.3a6.07 6.07 0 011.53 4.08v29.08a6.07 6.07 0 01-1.53 4.09l-7.3 7.3h32.87l-7.3-7.3a6.12 6.12 0 01-1.52-4.09V529c0-2.18 1.09-4.66 5.8-4.68h2.06c1.85 0 3.35.33 4.53 2.32l14.26 24 .24-.08-3.5-31.32-9.94 2.42a16.14 16.14 0 01-4.48.55zm74.52 4.87c5.72-3.15 14.24.29 24 15.36s9 23.62 3.28 26.76-14.31-.39-24-15.37-9-23.61-3.27-26.75m-.51-2.4c13.93-7.47 31.57-3 39.39 9.91s2.86 29.52-11.07 37-31.57 3-39.39-9.91-2.88-29.52 11.06-37zm69.72 3.76v34.23a6.12 6.12 0 01-1.52 4.09l-7.31 7.3h32.87l-7.3-7.3a6.12 6.12 0 01-1.52-4.09v-34.23c0-2.21 1-4.15 3.84-4.15h3.09c2.5 0 3.45 1.32 3.7 3.39l2.62 21.5h.3l9.21-28.71-12.23 1.53c-1.35.16-2.34.24-3.31.26H458.8a26 26 0 01-3.37-.26l-10.84-1.48 1.2 28.71h.29l9.24-21.5c.78-1.82 2.46-3.39 4.19-3.39h1.67c2.13 0 3.12 1.76 3.12 4.15M535.37 557l20.76-20.76v-2.69a6.11 6.11 0 00-1.52-4.08l-7.3-7.3h32.87l-7.31 7.3a6.11 6.11 0 00-1.52 4.08v29.08a6.12 6.12 0 001.52 4.09l7.31 7.3h-32.87l7.3-7.3a6.12 6.12 0 001.52-4.09v-23.4L535.37 560v2.68a6.12 6.12 0 001.52 4.09l7.31 7.3h-32.87l7.3-7.3a6.12 6.12 0 001.52-4.09v-29.09a6.11 6.11 0 00-1.52-4.08l-7.3-7.3h24zm53.38-34.79l7.3 7.3a6.11 6.11 0 011.52 4.08v29.08a6.12 6.12 0 01-1.52 4.09l-7.3 7.3h32.86l-7.3-7.3a6.12 6.12 0 01-1.52-4.09v-38.38h20.76v38.38a6.12 6.12 0 01-1.52 4.09l-7.3 7.3h32.86l-7.3-7.3a6.12 6.12 0 01-1.52-4.09v-29.08a6.11 6.11 0 011.52-4.08l7.3-7.3z" fill="#d6e2d4" fill-rule="evenodd"/></g></svg>