<svg id="Layer_1" data-name="Layer 1" xmlns="http://www.w3.org/2000/svg" viewBox="0 0 1920 1080"><defs><clipPath id="clip-path"><path fill="none" d="M0 0h1920v1080H0z"/></clipPath><style>.cls-4{fill:#d6e2d4;fill-rule:evenodd}</style></defs><g clip-path="url(#clip-path)"><path fill="#ea533d" d="M0 0h1920v1080H0z"/><path class="cls-4" d="M196.69 467h40.8l-19.62-53.71zm9.18 2.74a6.7 6.7 0 00-6.34 3.49l-13 21.53h-.38L184.66 467h9.18L214 415.69c1.51-3.84.68-6-1.59-8.36l-7.22-7.43h25.23l25.1 67.1h10l-11.32 27.79h-.39l-4.88-21.53c-.62-2.76-3.41-3.49-6.34-3.49zm75.68-47.36c5.77-3.17 14.36.29 24.21 15.5s9.08 23.82 3.3 27-14.42-.4-24.21-15.5-9.07-23.82-3.3-27M281 420c14-7.55 31.84-3.07 39.73 10s2.89 29.77-11.17 37.31-31.84 3.07-39.73-10S267 427.51 281 420zm46.44-2.53l7.36 7.36a6.16 6.16 0 011.53 4.12v29.33a6.16 6.16 0 01-1.53 4.12l-7.36 7.37h33.15l-7.37-7.37a6.16 6.16 0 01-1.53-4.12v-38.71h20.93v38.71a6.16 6.16 0 01-1.53 4.12l-7.36 7.37h33.15l-7.37-7.37a6.16 6.16 0 01-1.53-4.12V429a6.16 6.16 0 011.53-4.12l7.37-7.36zm88.86 4.91c5.77-3.17 14.36.29 24.21 15.5s9.07 23.82 3.3 27-14.43-.4-24.21-15.5-9.08-23.82-3.3-27m-.52-2.41c14.06-7.55 31.85-3.07 39.73 10s2.89 29.77-11.16 37.31-31.84 3.07-39.73-10-2.89-29.77 11.16-37.28zm64.61 8.51l-12.17 31.14a10.5 10.5 0 01-2.44 3.4l-6.8 6.75h17.9l-5.7-5.89a3.6 3.6 0 01-.45-3.95l12.73-32.42 12.3 33.49a2.75 2.75 0 01-.74 2.86l-5.71 5.89h31.33l-6.81-6.75a8.89 8.89 0 01-2.23-3l-16-42.54H474l5.63 5.38c1.57 1.5 1.59 3.47.75 5.63m68.62-11h-24.27l7.36 7.36a6.16 6.16 0 011.54 4.12v29.33a6.16 6.16 0 01-1.54 4.12l-7.36 7.37h33.15l-7.37-7.37a6.16 6.16 0 01-1.53-4.12V442l20.94 5.61v10.69a6.16 6.16 0 01-1.54 4.12l-7.38 7.35h33.15l-7.37-7.37a6.16 6.16 0 01-1.53-4.12V429a6.16 6.16 0 011.53-4.12l7.37-7.36H561l7.36 7.36a6.16 6.16 0 011.54 4.12v16.46L549 439.8zm77.19 35.13l20.94-20.94V429a6.16 6.16 0 00-1.54-4.12l-7.36-7.36h33.15l-7.38 7.31a6.16 6.16 0 00-1.53 4.12v29.33a6.16 6.16 0 001.53 4.12l7.37 7.37h-33.14l7.36-7.37a6.16 6.16 0 001.54-4.12v-23.64l-20.94 20.93v2.71a6.16 6.16 0 001.53 4.12l7.37 7.37h-33.15l7.36-7.37a6.16 6.16 0 001.54-4.12V429a6.16 6.16 0 00-1.54-4.12l-7.36-7.36h24.25zm75.06-28.85v34.53a6.16 6.16 0 01-1.53 4.12l-7.37 7.37h33.16l-7.37-7.37a6.16 6.16 0 01-1.53-4.12v-34.53c0-2.22 1-4.18 3.88-4.18h3.1c2.53 0 3.48 1.33 3.74 3.42l2.67 21.68h.3l9.29-28.95-12.34 1.49c-1.36.16-2.35.24-3.33.26h-28.21a24.79 24.79 0 01-3.4-.26l-10.94-1.49 1.22 28.95h.29L692.2 423c.79-1.83 2.48-3.42 4.23-3.42h1.68c2.15 0 3.14 1.78 3.14 4.18m71 5.04c7-.29 6.33-11.41-3.77-9.25-4.72 1-10 4.64-11.7 9.25zm2.22-12.49c10-.26 18.28 3.91 19.87 14.59h-37.75c-3.84 14.82 6.15 27.42 21.88 26.84 12.67-.46 24-9.52 20.21-22.89h.32c6.13 18.28-6.75 36.69-28.14 36.07-15.92-.47-26.8-12.23-25.79-27.3s14.16-26.91 29.4-27.31zm46.99 12.17l-12.17 31.14a10.5 10.5 0 01-2.44 3.4l-6.8 6.75H818l-5.7-5.89a3.58 3.58 0 01-.44-3.95l12.72-32.42L836.83 461a2.75 2.75 0 01-.74 2.86l-5.71 5.89h31.33L854.9 463a9 9 0 01-2.23-3l-16-42.54h-21.59l5.63 5.38c1.57 1.5 1.59 3.47.75 5.63m68.12 33.19c0 4.71 4.41 6.44 8.94 6.26 11.58-.45 12.86-18.63.11-16.06-4.47.89-9 5.24-9 9.8m0-32.71v27.55c9.68-15.3 34.76-15.75 35.9-2 1.17 14.22-17.71 15.27-26.27 15.27h-33.93l7.36-7.37a6.16 6.16 0 001.54-4.12V429a6.16 6.16 0 00-1.54-4.12l-7.36-7.37h33.15l-7.37 7.37a6.16 6.16 0 00-1.53 4.12zm64.47-11.48h-24.25l7.37 7.36a6.16 6.16 0 011.53 4.12v29.33a6.16 6.16 0 01-1.53 4.12l-7.37 7.37H963l-7.36-7.37a6.16 6.16 0 01-1.54-4.12V442l20.9 5.59v10.69a6.16 6.16 0 01-1.53 4.12l-7.37 7.37h33.15l-7.36-7.37a6.16 6.16 0 01-1.54-4.12V429a6.16 6.16 0 011.54-4.12l7.36-7.36h-33.11l7.37 7.36A6.16 6.16 0 01975 429v16.46l-20.9-5.66zm78.04 44.19c0 4.71 4.42 6.44 8.94 6.26 11.58-.45 12.87-18.63.12-16.06-4.48.89-9.06 5.24-9.06 9.8m67.34 8.11l-7.36-7.37a6.16 6.16 0 01-1.54-4.12V429a6.16 6.16 0 011.54-4.12l7.36-7.36h-33.15l7.37 7.36a6.16 6.16 0 011.53 4.12v40.82zM1032.14 429v27.5c9.68-15.3 34.77-15.75 35.9-2 1.18 14.22-17.71 15.27-26.27 15.27h-33.88l7.37-7.37a6.16 6.16 0 001.53-4.12V429a6.16 6.16 0 00-1.53-4.12l-7.37-7.37H1041l-7.36 7.37a6.16 6.16 0 00-1.5 4.12zm99.54-.2c7-.29 6.33-11.41-3.77-9.25-4.71 1-10 4.64-11.69 9.25zm2.22-12.49c10-.26 18.28 3.91 19.87 14.59H1116c-3.85 14.82 6.14 27.42 21.87 26.84 12.67-.46 24-9.52 20.21-22.89h.31c6.13 18.28-6.75 36.69-28.14 36.07-15.92-.47-26.79-12.23-25.79-27.3s14.2-26.91 29.44-27.31zM210 520.9c5.38-.14 9.08 1.09 12.15.76l6.84-.75-6.71 29.2h-.2l-4.39-22.05c-.78-3.92-7.28-4.47-11.47-4.17-23.81 1.75-18.55 39.72 7.78 38.44 12.66-.62 24.05-9.53 20.25-22.89h.27c6.12 18.27-6.75 36.68-28.15 36.06-15.91-.46-26.79-12.22-25.79-27.3s14.18-26.9 29.42-27.3m53 7.44v34.53a6.16 6.16 0 01-1.5 4.13l-7.36 7.36h33.15l-7.37-7.36a6.16 6.16 0 01-1.53-4.12v-34.54c0-2.23 1-4.18 3.88-4.18h3.11c2.52 0 3.47 1.32 3.73 3.42l2.65 21.67h.29l9.29-29-12.34 1.54a28.74 28.74 0 01-3.34.26h-28.17a24.79 24.79 0 01-3.4-.26l-10.94-1.49 1.22 29h.29l9.34-21.72c.79-1.84 2.48-3.42 4.23-3.42h1.68c2.15 0 3.15 1.77 3.15 4.18m71.78 28.85l20.94-20.94v-2.71a6.16 6.16 0 00-1.54-4.12l-7.36-7.37H380l-7.37 7.37a6.16 6.16 0 00-1.53 4.12v29.33a6.16 6.16 0 001.53 4.12l7.37 7.36h-33.12l7.36-7.36a6.16 6.16 0 001.54-4.12v-23.65l-20.94 20.94v2.71a6.16 6.16 0 001.53 4.12l7.37 7.36h-33.15L318 567a6.16 6.16 0 001.54-4.12v-29.34a6.16 6.16 0 00-1.54-4.12l-7.36-7.37h24.25zm69.69-24.12l-12.17 31.14a10.47 10.47 0 01-2.43 3.4l-6.81 6.74H401l-5.71-5.88a3.59 3.59 0 01-.44-4l12.73-32.42 12.3 33.51a2.75 2.75 0 01-.74 2.86l-5.71 5.88h31.32l-6.8-6.74a9 9 0 01-2.24-3l-16-42.55h-21.55l5.62 5.38c1.57 1.51 1.6 3.48.75 5.64m68.58.35c7-.28 6.33-11.4-3.77-9.25-4.72 1-10 4.65-11.7 9.25zm2.22-12.48c10-.26 18.28 3.91 19.87 14.58h-37.75c-3.84 14.82 6.15 27.42 21.88 26.85 12.67-.47 24-9.53 20.21-22.89h.31c6.13 18.27-6.75 36.69-28.14 36.06-15.92-.46-26.8-12.22-25.79-27.3s14.17-26.9 29.41-27.3zm48.88 6.1c5.77-3.17 14.36.3 24.21 15.51s9.08 23.81 3.3 27-14.43-.39-24.21-15.5-9.07-23.81-3.3-27m-.52-2.41c14.06-7.54 31.85-3.06 39.74 10s2.88 29.76-11.17 37.31-31.84 3.06-39.73-10-2.89-29.82 11.16-37.36zm72.87 41.65c0 4.7 4.41 6.43 8.94 6.26 11.58-.45 12.87-18.63.11-16.07-4.47.9-9.05 5.25-9.05 9.81m23.23-46.32l3.75 25.07-.24.08-14.61-18.58a5.11 5.11 0 00-4.56-2.34h-3c-3.76 0-4.53 2.29-4.53 4.29v32.63c9.68-15.29 34.77-15.75 35.9-2 1.18 14.23-17.71 15.27-26.27 15.27h-33.92l7.37-7.36a6.16 6.16 0 001.53-4.12v-29.33a6.16 6.16 0 00-1.53-4.12l-7.37-7.37h31.18a42.47 42.47 0 006.28-.55zm23.12 2.12H634l7.37 7.37a6.16 6.16 0 011.53 4.12v58.51h24.25l-7.36-7.37a6.14 6.14 0 01-1.54-4.12v-6.21H665c25.14 0 36.61-16.33 36.75-31 .12-12.13-7.86-22.5-20.58-22.5a24.61 24.61 0 00-22.91 17v-15.8zm15.35 25.58v24.62c13.52-.37 26.43-12.14 26.54-28 .2-21.25-26.54-16.89-26.54 3.38zm82.96-4.97c-4.53 2.08-9 4.54-12.37 8.17-10 10.75.91 28.84 15.41 11.75zm3.42 22.44c-5.92 7.71-16.3 10.82-23.51 10.84-14.37 0-18.29-15.13-8-22.58 6.8-4.92 18.52-9 27.83-12.42-1-6.47-1.44-17.72-10.09-17.22-4.27.24-6.57 2.45-7.94 7L717.71 548h-.28l-4-26.51L720 523c2.31.54 3.88-.46 7.56-1.26 15.8-3.46 27 3.15 30 20.29L761 562a8.23 8.23 0 001.77 4.25l8.51 8.51h-25.17z"/><path d="M802.36 543.43c12-.38 17.77-5.27 17.92-10.73.25-9.09-9.53-11.08-17.85-11.55-6.14-.35-12.25 2.12-15.09 1.43l-7-1.69 2.18 24.16h.21l9.35-18.19c3-5.82 13.19-4.41 13.61 4.15.19 3.88-2.2 10.83-14.39 13.82v.56c21-4.6 21.52 28.68 7.09 28.39-7.49-.15-10.25-11.27-6.89-15.28l6.89-8.22-22.22-.08c-5.05 13.71 4.44 25.47 21.59 25.64 29 .3 30.86-20.47 23-32.18h-18.4z" fill="#d6e2d4"/><path class="cls-4" d="M858 532l13.1 21.38L881.3 532a3.22 3.22 0 00-.42-4l-5.7-5.89h18.92l-7.55 6.75a10.32 10.32 0 00-2.11 2.75l-18.33 38.31c-4.2 8.77-13.89 26.77-31.25 21l-3.43-33.8h.35l13.39 21.76a7.45 7.45 0 0010.41 2.4c2.7-1.67 6.21-8.41 8.11-12.4l-28.62-46.77h29l-5.7 5.89a3.3 3.3 0 00-.42 4m87.98-5c5.77-3.17 14.36.3 24.21 15.51s9.07 23.81 3.3 27-14.44-.45-24.21-15.51-9.08-23.81-3.3-27m-22.47 20.19h7.09a27.51 27.51 0 0114.86-22.6c14.06-7.54 31.84-3.06 39.73 10S988 564.31 974 571.86s-31.85 3.06-39.74-10a25.61 25.61 0 01-3.72-12.6h-7.06v13.61A6.16 6.16 0 00925 567l7.36 7.36h-33.15l7.37-7.36a6.16 6.16 0 001.53-4.12v-29.34a6.16 6.16 0 00-1.53-4.12l-7.37-7.37h24.25zm118.39 25.06c-3.24 0-4.22-1.43-4.22-4.27v-34.44a6.16 6.16 0 011.54-4.12l7.36-7.37h-19.9l7.36 7.37a6.16 6.16 0 011.54 4.12v38.71h-11.33c-3.24 0-4.22-1.43-4.22-4.27v-45.93h-24.25l7.36 7.37a6.16 6.16 0 011.53 4.12v29.33a6.16 6.16 0 01-1.53 4.12l-7.36 7.36h64.92c2.26 0 4.39.61 4.87 2.74l3.79 16.72h.3l8.82-21.56h-9.89v-38.71a6.16 6.16 0 011.53-4.12l7.36-7.37h-24.25v50.2zm69.15-15.06l20.94-20.94v-2.71a6.16 6.16 0 00-1.53-4.12l-7.37-7.37h33.15l-7.36 7.37a6.16 6.16 0 00-1.54 4.12v29.33a6.16 6.16 0 001.54 4.12l7.36 7.36H1123l7.37-7.36a6.16 6.16 0 001.53-4.12v-23.65l-20.9 20.94v2.71a6.16 6.16 0 001.54 4.12l7.36 7.36h-33.15l7.37-7.36a6.16 6.16 0 001.53-4.12v-29.33a6.16 6.16 0 00-1.53-4.12l-7.37-7.37H1111zm77.49-23.81c7-.28 6.32-11.4-3.78-9.25-4.71 1-10 4.65-11.69 9.25zm2.22-12.48c10-.26 18.27 3.91 19.87 14.58h-37.75c-3.85 14.82 6.14 27.42 21.88 26.85 12.66-.47 24-9.53 20.2-22.89h.31c6.13 18.27-6.75 36.69-28.14 36.06-15.92-.46-26.79-12.22-25.79-27.3s14.18-26.9 29.42-27.3zM204 638h20.23c-2.1-5.09-6.64-9-13.87-9.49-4.18-.31-10.69.24-11.47 4.17l-4.39 22h-.2l-6.71-29.19 6.85.74c3.06.34 6.76-.89 12.15-.75 15.23.39 28.41 12.22 29.41 27.3s-9.87 26.83-25.79 27.3c-21.39.62-34.27-17.79-28.14-36.06h.27c-3.8 13.36 7.58 22.27 20.24 22.88 17.27.84 25.48-15.21 22.36-26.84H204zm54.15-.35L246 668.79a10.39 10.39 0 01-2.44 3.41l-6.8 6.74h17.91l-5.71-5.89a3.57 3.57 0 01-.44-3.95l12.73-32.41 12.3 33.5a2.77 2.77 0 01-.74 2.86l-5.71 5.89h31.3l-6.8-6.74a9 9 0 01-2.24-3l-16-42.54h-21.58l5.62 5.34c1.57 1.5 1.6 3.47.75 5.63m67.53.37c7-.29 6.32-11.41-3.78-9.25-4.71 1-10 4.64-11.69 9.25zm2.21-12.48c10-.26 18.28 3.9 19.87 14.58H310c-3.85 14.82 6.14 27.42 21.88 26.84 12.66-.46 24-9.52 20.2-22.88h.31c6.13 18.27-6.75 36.68-28.14 36.06-15.92-.47-26.79-12.22-25.79-27.3s14.19-26.94 29.43-27.33zm70.77 7.35l-6.36-6.23h22.62l13.6 41.61a10.75 10.75 0 002.68 4l6.8 6.74h-31.48l5.71-5.89a3.06 3.06 0 00.69-3.12l-9.77-31.47-13.46 41.59h-.3l-14.21-41.89-9.51 30.79c-.42 1.36-.53 3.06.41 4l5.71 5.89h-18l6.8-6.74a10 10 0 002.58-3.72l8.89-28.77a6.93 6.93 0 00-1.47-6.84l-6.23-6.23h22.47l8.95 27 4.35-14a6.18 6.18 0 00-1.52-6.81m66.62 5.22c7-.29 6.32-11.41-3.78-9.25-4.71 1-10 4.64-11.69 9.25zm2.22-12.48c10-.26 18.28 3.9 19.87 14.58h-37.75c-3.84 14.82 6.14 27.42 21.88 26.84 12.67-.46 24-9.52 20.2-22.88h.35c6.12 18.27-6.75 36.68-28.15 36.06-15.91-.47-26.79-12.22-25.79-27.3s14.15-26.94 29.39-27.33zm53.55 1.12h-24.21l7.37 7.37a6.12 6.12 0 011.53 4.12v29.32a6.14 6.14 0 01-1.53 4.12l-7.37 7.37h33.15l-7.36-7.37a6.14 6.14 0 01-1.54-4.12v-16.3l20.96 5.61v10.69a6.19 6.19 0 01-1.53 4.12l-7.37 7.37h33.15l-7.36-7.37a6.14 6.14 0 01-1.54-4.12v-29.32a6.12 6.12 0 011.54-4.12l7.36-7.37h-33.17l7.37 7.37a6.16 6.16 0 011.53 4.12v16.45L521 649zm75.26 6.28v34.53a6.14 6.14 0 01-1.53 4.12l-7.36 7.37h33.15l-7.37-7.37a6.14 6.14 0 01-1.53-4.12v-34.53c0-2.22 1-4.18 3.88-4.18h3.11c2.52 0 3.47 1.33 3.73 3.42l2.66 21.68h.3l9.29-29-12.33 1.49a31.13 31.13 0 01-3.34.26h-28.2a24.79 24.79 0 01-3.4-.26l-10.94-1.49 1.22 29h.29l9.32-21.68c.79-1.83 2.48-3.42 4.23-3.42h1.68c2.15 0 3.14 1.78 3.14 4.18m70.14 37.91c0 4.71 4.41 6.44 8.94 6.26 11.58-.45 12.87-18.62.11-16.06-4.47.9-9.05 5.24-9.05 9.8m67.34 8.11l-7.37-7.37a6.19 6.19 0 01-1.53-4.12v-29.32a6.16 6.16 0 011.53-4.12l7.37-7.37h-33.15L708 634a6.12 6.12 0 011.54 4.12v40.81zm-67.34-40.82v27.55c9.68-15.29 34.77-15.75 35.9-2 1.18 14.22-17.71 15.27-26.27 15.27h-33.88l7.37-7.37a6.14 6.14 0 001.53-4.12v-29.33a6.16 6.16 0 00-1.53-4.12l-7.37-7.36h33.15l-7.36 7.36a6.16 6.16 0 00-1.54 4.12z"/></g></svg>