<svg data-name="Layer 1" xmlns="http://www.w3.org/2000/svg" viewBox="0 0 1920 1080"><defs><clipPath id="a"><path fill="none" d="M0 0h1920v1080H0z"/></clipPath></defs><g clip-path="url(#a)"><path fill="#ea533d" d="M0 0h1920v1080H0z"/><path d="M197.92 407.68c7.64-4.2 20.11-.7 33.15 19.43s10.92 32.63 3.28 36.83-20.2.57-33.15-19.43-10.92-32.63-3.28-36.83m-.68-3.19c18.61-10 39.54-4.06 50 13.23s6.45 39.41-12.16 49.4-39.53 4.06-50-13.24-6.45-39.41 12.16-49.39zm93.05 12.76c5.39-.14 9.1 1.1 12.17.76l6.86-.75-6.72 29.25h-.21L298 424.43c-.78-3.93-7.3-4.49-11.49-4.18-23.86 1.75-18.59 39.75 7.79 38.51 12.68-.62 24.09-9.55 20.28-22.93h.28c6.13 18.3-6.77 36.75-28.2 36.12-16-.46-26.84-12.24-25.84-27.35s14.21-27 29.47-27.35m56.06 1.16h-24.3l7.38 7.38a6.17 6.17 0 011.54 4.13v29.38a6.19 6.19 0 01-1.54 4.13l-7.38 7.37h33.21l-7.38-7.37a6.18 6.18 0 01-1.53-4.13V443l21 5.62v10.68a6.18 6.18 0 01-1.53 4.13l-7.38 7.37h33.21l-7.38-7.37a6.19 6.19 0 01-1.54-4.13v-29.38a6.17 6.17 0 011.54-4.13l7.38-7.38h-33.24l7.38 7.38a6.16 6.16 0 011.53 4.13v16.49l-21-5.63zm65.35 4.92c5.78-3.18 14.39.29 24.25 15.53s9.1 23.86 3.31 27-14.45-.4-24.25-15.53-9.1-23.86-3.31-27m-.52-2.42c14.08-7.55 31.9-3.07 39.81 10s2.89 29.82-11.19 37.37-31.9 3.07-39.81-10-2.89-29.81 11.19-37.37zM484 462.68c0 4.72 4.42 6.45 8.95 6.28 11.6-.46 12.89-18.67.12-16.1-4.49.9-9.07 5.26-9.07 9.82m-24.3 8.12l7.38-7.37a6.19 6.19 0 001.54-4.13v-29.38a6.17 6.17 0 00-1.54-4.13l-7.38-7.38H490c8 0 21.16.6 20.56 10.86-.79 13.3-15.56 16-26.59 18.73v9.51c9.7-15.32 34.83-15.78 36-2 1.18 14.24-17.74 15.29-26.32 15.29zm24.3-24.87c13.1-3.57 14.88-25.46 5.67-25.55-2.83 0-5.67 2.21-5.67 7.07zm64.6-27.52h-24.29l7.38 7.38a6.16 6.16 0 011.53 4.13v29.38a6.18 6.18 0 01-1.53 4.13l-7.38 7.37h33.21l-7.38-7.37a6.19 6.19 0 01-1.54-4.13V443l21 5.62v10.68a6.19 6.19 0 01-1.54 4.13l-7.38 7.37h33.21l-7.37-7.37a6.14 6.14 0 01-1.52-4.13v-29.38a6.12 6.12 0 011.54-4.13l7.37-7.38h-33.25l7.38 7.38a6.17 6.17 0 011.54 4.13v16.49l-21-5.63zm77.18 44.27c0 4.72 4.42 6.45 9 6.28 11.6-.46 12.89-18.67.11-16.1-4.48.9-9.07 5.26-9.07 9.82m67.47 8.12l-7.38-7.37a6.19 6.19 0 01-1.54-4.13v-29.38a6.17 6.17 0 011.54-4.13l7.38-7.38H660l7.37 7.38a6.12 6.12 0 011.54 4.13v40.88zm-67.47-40.89v27.6c9.7-15.32 34.83-15.78 36-2 1.18 14.24-17.74 15.29-26.32 15.29h-34.01l7.38-7.37a6.19 6.19 0 001.54-4.13v-29.39a6.19 6.19 0 00-1.54-4.13l-7.38-7.37h33.21l-7.38 7.37a6.19 6.19 0 00-1.54 4.13zm100.65-.15c7-.29 6.33-11.43-3.79-9.27-4.72 1-10 4.66-11.71 9.27zm2.22-12.51c10-.26 18.31 3.92 19.91 14.61h-37.82c-3.85 14.85 6.15 27.47 21.92 26.9 12.69-.47 24-9.55 20.24-22.93h.31c6.14 18.3-6.76 36.75-28.19 36.12-15.95-.46-26.84-12.24-25.84-27.35s14.2-26.95 29.47-27.35zM207.76 549.56c21.22-6.46 37.32-.5 36.19 26h-24.3l5.59-5.56c1.38-1.37 1.3-3.18 1.24-5.51-.27-10.59-7.8-16.64-18.72-13v12.62a6.16 6.16 0 001.53 4.12l7.38 7.38h-33.21l7.38-7.38a6.16 6.16 0 001.54-4.12v-29.42a6.16 6.16 0 00-1.54-4.12l-7.38-7.38h33.21l-7.38 7.38a6.16 6.16 0 00-1.53 4.12v10.79c9.46-3.38 13.91-10.63 13.81-22.29h20.2c-2.31 12.67-19.36 21.31-34 24.1zm57.83-21.45c5.78-3.18 14.39.29 24.26 15.53s9.09 23.86 3.3 27-14.45-.4-24.25-15.53-9.09-23.86-3.31-27m-.52-2.42c14.09-7.55 31.91-3.07 39.81 10s2.89 29.82-11.19 37.37-31.9 3.07-39.8-10-2.89-29.81 11.18-37.37zm72.21-2.5H313l7.38 7.38a6.16 6.16 0 011.54 4.12v29.39a6.16 6.16 0 01-1.54 4.12l-7.38 7.38h33.21l-7.38-7.38a6.16 6.16 0 01-1.53-4.12v-16.34l21 5.62v10.72a6.16 6.16 0 01-1.53 4.12l-7.38 7.38h33.21l-7.38-7.38a6.16 6.16 0 01-1.54-4.12v-29.39a6.16 6.16 0 011.54-4.12l7.38-7.38h-33.26l7.38 7.38a6.16 6.16 0 011.53 4.12v16.49l-21-5.62zM417 522c5.39-.13 9.1 1.1 12.17.76l6.86-.75-6.72 29.25h-.21l-4.39-22.08c-.78-3.93-7.3-4.49-11.49-4.18-23.86 1.75-18.59 39.79 7.79 38.51 12.68-.62 24.09-9.55 20.28-22.93h.27c6.14 18.3-6.76 36.75-28.19 36.12-16-.46-26.84-12.24-25.84-27.35s14.2-27 29.47-27.35m53.17 7.48v34.6a6.16 6.16 0 01-1.53 4.12l-7.38 7.38h33.21l-7.38-7.38a6.16 6.16 0 01-1.54-4.12v-34.6c0-2.23 1-4.18 3.89-4.18h3.12c2.53 0 3.48 1.32 3.74 3.42l2.7 21.72h.29l9.31-29-12.36 1.5c-1.36.16-2.36.24-3.34.26h-28.28a26.49 26.49 0 01-3.41-.26l-10.95-1.5 1.21 29h.3l9.34-21.72c.79-1.84 2.48-3.42 4.23-3.42H467c2.15 0 3.14 1.77 3.14 4.18M545 543.41c-4.54 2.08-9 4.55-12.4 8.18-10 10.77.92 28.9 15.43 11.78zm3.42 22.48c-5.94 7.73-16.33 10.84-23.55 10.86-14.4 0-18.33-15.16-8-22.62 6.81-4.92 18.55-9 27.88-12.44-1-6.49-1.45-17.76-10.1-17.26-4.28.25-6.59 2.47-8 7l-5.24 17.32h-.27l-4-26.56 6.58 1.56c2.31.54 3.89-.46 7.58-1.27 15.83-3.46 27 3.15 30 20.33l3.52 20a8.23 8.23 0 001.77 4.25l8.52 8.53h-25.24zm54-42.7h-24.3l7.38 7.38a6.16 6.16 0 011.54 4.12v29.39a6.16 6.16 0 01-1.54 4.12l-7.38 7.38h33.22L604 568.2a6.16 6.16 0 01-1.54-4.12v-16.34l21 5.62v10.72a6.16 6.16 0 01-1.54 4.12l-7.38 7.38h33.21l-7.38-7.38a6.16 6.16 0 01-1.53-4.12v-29.39a6.16 6.16 0 011.53-4.12l7.38-7.38h-33.27l7.38 7.38a6.16 6.16 0 011.54 4.12v16.49l-21-5.62zm73.37 6.29v34.6a6.16 6.16 0 01-1.53 4.12l-7.38 7.38h33.21l-7.38-7.38a6.16 6.16 0 01-1.54-4.12v-34.6c0-2.23 1-4.18 3.89-4.18h3.11c2.54 0 3.49 1.32 3.74 3.42l2.66 21.72h.29l9.31-29-12.36 1.5c-1.36.16-2.36.24-3.34.26h-28.23a26.49 26.49 0 01-3.41-.26l-11-1.5 1.21 29h.3l9.34-21.72c.79-1.84 2.48-3.42 4.23-3.42h1.69c2.15 0 3.14 1.77 3.14 4.18m72.38 37.98c0 4.72 4.42 6.45 9 6.27 11.6-.45 12.89-18.66.11-16.09-4.48.9-9.07 5.26-9.07 9.82m67.46 8.12l-7.37-7.38a6.11 6.11 0 01-1.54-4.12v-29.39a6.11 6.11 0 011.54-4.12l7.37-7.38h-33.25l7.38 7.38a6.16 6.16 0 011.54 4.12v40.89zm-67.46-40.89v27.6c9.7-15.32 34.83-15.78 36-2 1.18 14.25-17.74 15.3-26.32 15.3h-34.01l7.38-7.38a6.16 6.16 0 001.53-4.12v-29.4a6.16 6.16 0 00-1.53-4.13l-7.38-7.38H757l-7.38 7.38a6.17 6.17 0 00-1.5 4.13zm-538.43 90.96c5.39-.14 9.1 1.09 12.17.75l6.86-.75L222 654.9h-.21l-4.39-22.08c-.78-3.93-7.3-4.48-11.49-4.18-23.86 1.75-18.58 39.79 7.79 38.51 12.68-.62 24.09-9.55 20.28-22.93h.28c6.13 18.31-6.77 36.75-28.2 36.13-15.95-.47-26.84-12.25-25.84-27.35s14.21-27 29.47-27.35m54.31 8.61v34.6a6.16 6.16 0 01-1.54 4.12l-7.46 7.38h33.21l-7.34-7.36a6.16 6.16 0 01-1.53-4.12v-34.6c0-2.23 1-4.19 3.88-4.19h3.12c2.53 0 3.48 1.33 3.74 3.43l2.65 21.72h.3l9.31-29-12.34 1.47c-1.37.16-2.36.24-3.34.26H258.4a26.77 26.77 0 01-3.41-.26l-11-1.5 1.21 29h.3l9.34-21.72c.79-1.84 2.48-3.43 4.23-3.43h1.69c2.15 0 3.15 1.78 3.15 4.19m70.36 28.91l21-21v-2.72a6.16 6.16 0 00-1.53-4.12l-7.41-7.32h33.21l-7.38 7.38a6.16 6.16 0 00-1.54 4.12v29.39a6.16 6.16 0 001.54 4.12l7.38 7.38h-33.21l7.38-7.38a6.16 6.16 0 001.53-4.12v-23.72l-21 21v2.72a6.16 6.16 0 001.56 4.11l7.38 7.38H310l7.38-7.38a6.16 6.16 0 001.54-4.12v-29.41a6.16 6.16 0 00-1.54-4.12L310 628h24.3zm71.3-24.16l-12.19 31.2a10.65 10.65 0 01-2.44 3.41l-6.82 6.75h17.94l-5.72-5.9a3.59 3.59 0 01-.44-4L408.65 638 421 671.6a2.77 2.77 0 01-.75 2.86l-5.71 5.9h31.37l-6.81-6.75a9.06 9.06 0 01-2.24-3l-16-42.62h-21.68l5.64 5.39c1.57 1.5 1.6 3.47.75 5.64m78.07-2.93c.18-9.63-15.88-7.45-15.5 3.58.31 9.23 15.26 9.45 15.5-3.58m0 18.94c-6.23 1.27-11.77 8.06-13.27 13.65-.41 1.55-.26 3.43.61 4.3l7.38 7.38h-27c2.39-15.05 12-24.35 32.3-27.4v-9.07c-5.84 9.36-15.53 11.84-22.37 9.59-9.27-3-10.33-14.43-4-20.43 4.85-4.61 13.18-5.08 18.93-5.08h31.76l-7.38 7.38a6.16 6.16 0 00-1.54 4.12v29.39a6.16 6.16 0 001.54 4.12l7.38 7.38h-24.3z" fill="#d6e2d4" fill-rule="evenodd"/></g></svg>