<svg id="Layer_1" data-name="Layer 1" xmlns="http://www.w3.org/2000/svg" viewBox="0 0 1920 940"><defs><style>.cls-1{fill:#fff}</style></defs><path d="M0 0h1920v940H0z"/><path class="cls-1" d="M778.185 545.303v35.446h19.636c36.975 0 61.71 17.595 61.71 54.061 0 36.465-24.48 54.316-61.71 54.316h-57.376V510.623h107.101l-5.1 34.68zm0 68.851v40.291h18.105c17.086 0 24.48-8.925 24.48-20.145 0-11.73-7.139-20.146-24.734-20.146zm169.803 65.026a44.347 44.347 0 01-30.091 11.22c-24.736 0-42.841-13.004-42.841-39.525 0-24.735 19.38-39.27 48.196-39.27h22.186v-7.65c0-9.18-5.865-15.046-18.106-15.046a103.48 103.48 0 00-34.17 6.375l-11.22-30.346a139.52 139.52 0 0148.45-8.415c39.781 0 51.767 20.91 51.767 47.941v44.371c0 6.375 3.57 9.18 9.18 9.18h2.805v27.03c-4.335 2.806-13.516 5.356-20.655 5.356-13.261 0-19.891-4.59-24.48-11.22zm-26.011-18.36a36.83 36.83 0 0023.46-8.924v-13.261h-22.185c-8.67 0-14.28 4.845-14.28 11.73 0 6.63 5.356 10.455 13.005 10.455zm126.197-91.291c8.16-7.14 18.106-13.006 31.875-13.006 36.72 0 55.081 28.816 55.081 67.577s-19.89 67.576-58.65 67.576a81.673 81.673 0 01-24.226-4.08v52.531l-36.72 5.1V559.073h26.52l5.1 10.456zm49.726 54.57c0-20.655-9.436-35.19-25.5-35.19-6.886 0-14.28 3.06-20.146 9.435v56.101a44.624 44.624 0 0021.165 4.846c14.026 0 24.48-13.006 24.48-35.191zm65.124 32.641c12.24-21.42 13.26-42.33 13.26-84.661v-13.006h94.862v97.667h20.655l-5.1 64.772h-31.62v-32.386h-72.677v32.386h-31.62l-5.101-64.772zm71.401 0v-65.28h-24.735v2.04c0 24.48-2.806 47.686-9.69 63.241zm75.045 32.386V559.073h36.72V629.2l48.196-70.127h31.366v130.053h-36.72v-69.871l-48.197 69.871zm256.861 0h-36.72V638.38h-35.955v50.746h-36.721V559.073h36.72v46.921h35.956v-46.92h36.72zm96.054-9.946a44.347 44.347 0 01-30.09 11.22c-24.736 0-42.842-13.004-42.842-39.525 0-24.735 19.381-39.27 48.197-39.27h22.185v-7.65c0-9.18-5.865-15.046-18.105-15.046a103.48 103.48 0 00-34.171 6.375l-11.22-30.346a139.525 139.525 0 0148.451-8.415c39.78 0 51.766 20.91 51.766 47.941v44.371c0 6.375 3.57 9.18 9.18 9.18h2.805v27.03c-4.335 2.806-13.515 5.356-20.655 5.356-13.26 0-19.89-4.59-24.48-11.22zm-26.01-18.36a36.83 36.83 0 0023.46-8.924v-13.261h-22.185c-8.67 0-14.28 4.845-14.28 11.73 0 6.63 5.355 10.455 13.004 10.455zM766.71 138.02v51.51h27.285c36.976 0 61.711 17.342 61.711 53.807 0 36.466-24.48 53.806-61.71 53.806H744.27V118.64h99.452l-5.1 19.38zm0 70.892v68.85h25.756c27.795 0 39.78-14.28 39.78-34.425 0-21.166-11.73-34.425-40.036-34.425zm191.453 3.059c0-18.615-6.376-30.345-29.58-30.345-12.75 0-23.46 2.55-35.7 7.14l-5.866-15.81c15.045-5.61 28.305-8.415 44.625-8.415 39.781 0 47.941 20.4 47.941 47.43v60.182c0 6.375 3.57 9.18 9.18 9.18h2.806v14.535a33.415 33.415 0 01-12.75 2.55c-10.2 0-16.831-6.375-18.106-17.595h-1.02c-9.69 11.475-22.44 17.595-39.27 17.595-24.226 0-40.292-11.73-40.292-38.25 0-24.736 19.126-38.506 47.942-38.506h30.09zm-31.11 26.01c-15.811 0-26.267 7.651-26.267 22.441 0 14.28 8.671 21.676 22.186 21.676 13.516 0 26.266-6.12 35.191-18.36v-25.756zm114.669 52.532v57.631l-21.42 5.1V167.09h13.77l5.1 16.32h1.02c10.2-12.24 24.225-18.87 40.8-18.87 33.407 0 51.257 27.541 51.257 67.577 0 38.76-16.065 67.576-54.826 67.576-14.025 0-25.756-3.315-35.701-9.18zm68.597-58.396c0-29.836-12.495-50.491-35.956-50.491-11.986 0-23.715 7.905-32.641 19.38v69.871c10.455 7.396 19.89 11.73 32.64 11.73 23.462 0 35.957-18.36 35.957-50.49zm55.383 47.941c14.025-23.716 17.594-53.296 17.594-98.687v-14.28h82.877v112.967h20.656l-5.1 49.47h-16.32v-32.385h-95.627v32.386h-16.32l-5.101-49.471zm37.995-86.957c0 32.13-4.335 66.812-15.555 86.957h56.611v-95.882h-41.056zm109.573 104.042V167.09h21.42v93.587h1.02l67.576-93.587h18.616v130.053h-21.421v-94.097h-1.02l-67.576 94.097zm250.46 0h-21.42v-58.396h-58.906v58.396h-21.42V167.09h21.42v54.572h58.906V167.09h21.42zm109.035-85.172c0-18.615-6.376-30.345-29.581-30.345-12.75 0-23.46 2.55-35.7 7.14l-5.865-15.81c15.044-5.61 28.304-8.415 44.625-8.415 39.78 0 47.94 20.4 47.94 47.43v60.182c0 6.375 3.571 9.18 9.18 9.18h2.806v14.535a33.415 33.415 0 01-12.75 2.55c-10.2 0-16.83-6.375-18.105-17.595h-1.02c-9.69 11.475-22.441 17.595-39.271 17.595-24.226 0-40.291-11.73-40.291-38.25 0-24.736 19.126-38.506 47.941-38.506h30.091zm-31.111 26.01c-15.81 0-26.266 7.651-26.266 22.441 0 14.28 8.671 21.676 22.186 21.676s26.265-6.12 35.191-18.36v-25.756zM61.65 297.143v-20.999h2.64v18.72h9.81l-.6 2.279zm13.674-13.289l.6-2.01h5.01v15.3h-2.52v-13.29zm4.32-8.13a1.665 1.665 0 11-1.65 1.68 1.677 1.677 0 011.65-1.68zm16.731 7.83a5.074 5.074 0 011.08 3.3c0 3.45-2.49 5.31-6.09 5.31a8.19 8.19 0 01-2.82-.45 1.446 1.446 0 00-.63 1.139c0 .93.69 1.08 1.65 1.26l4.11.69c1.95.33 4.41 1.41 4.41 4.11 0 3.03-2.85 4.83-6.78 4.83s-6.66-1.59-6.66-4.38a4.678 4.678 0 012.16-3.87 2.509 2.509 0 01-1.29-2.31 2.906 2.906 0 011.41-2.4 4.862 4.862 0 01-1.65-3.93c0-3.48 2.49-5.31 6.09-5.31a8.494 8.494 0 013 .54l4.619-1.14-.6 2.61zm-7.74 12.63a3.325 3.325 0 00-1.56 2.879c0 1.5 1.44 2.67 4.23 2.67 2.79 0 4.2-1.17 4.2-2.67 0-1.23-.93-1.89-2.91-2.22l-3.45-.57zm-.93-9.33c0 1.95 1.26 3.36 3.66 3.36 2.4 0 3.66-1.41 3.66-3.36s-1.26-3.36-3.66-3.36c-2.4 0-3.66 1.41-3.66 3.36zm17.075 10.289h-2.52v-21.899l2.52-.6v9.12h.12a6.016 6.016 0 014.53-2.22c3.33 0 4.83 2.01 4.83 6.03v9.57h-2.52v-9.57c0-2.67-.93-4.02-2.97-4.02a5.656 5.656 0 00-3.99 2.43zm17.715-4.53c0 1.98.69 2.82 2.22 2.82a7.987 7.987 0 002.52-.45l.36 1.92a9.968 9.968 0 01-3.18.54c-2.76 0-4.44-1.41-4.44-4.83v-8.76h-2.76v-2.01h2.76v-4.14l2.52-.599v4.74h4.77l-.6 2.01h-4.17z"/><path d="M71.91 462.793H72l6-6 1.649 1.65-9 9-8.999-9 1.65-1.65 6 6h.09v-16.649h2.52z" fill="#ff0"/><path class="cls-1" d="M511.768 278.124a9.23 9.23 0 00-4.59 1.5l-1.11-2.01a11.855 11.855 0 016.27-1.77c3.69 0 5.67 2.1 5.67 5.76 0 5.04-4.95 10.26-8.55 13.14v.12h9.15l-.6 2.28h-12.3v-1.98c4.23-3.3 9.63-8.67 9.63-13.32 0-2.37-1.02-3.72-3.57-3.72zm23.625 12.329c0 4.62-2.94 6.99-6.87 6.99a10.188 10.188 0 01-6.03-1.77l1.2-2.01a7.67 7.67 0 004.62 1.5c2.52 0 4.41-1.56 4.41-4.71a4.37 4.37 0 00-4.74-4.71 14.455 14.455 0 00-4.29.78v-10.379h10.92l-.6 2.28h-7.77v5.4a11.214 11.214 0 012.4-.24c3.93 0 6.75 2.37 6.75 6.87zm16.119 0c0 4.62-2.94 6.99-6.87 6.99a10.188 10.188 0 01-6.03-1.77l1.2-2.01a7.67 7.67 0 004.62 1.5c2.52 0 4.41-1.56 4.41-4.71a4.37 4.37 0 00-4.74-4.71 14.455 14.455 0 00-4.29.78v-10.379h10.92l-.6 2.28h-7.77v5.4a11.214 11.214 0 012.4-.24c3.93 0 6.75 2.37 6.75 6.87zm15.299 5.91v6.78l-2.52.6v-21.9h1.62l.6 1.92h.12a6.052 6.052 0 014.8-2.22c3.93 0 6.03 3.24 6.03 7.95 0 4.56-1.89 7.95-6.45 7.95a8.088 8.088 0 01-4.2-1.08zm8.07-6.87c0-3.51-1.47-5.94-4.23-5.94a5.18 5.18 0 00-3.84 2.28v8.22a6.27 6.27 0 003.84 1.38c2.76 0 4.23-2.16 4.23-5.94zm10.167 3.12c0 1.98.69 2.82 2.221 2.82a7.987 7.987 0 002.52-.45l.36 1.92a9.968 9.968 0 01-3.18.54c-2.76 0-4.44-1.41-4.44-4.83v-8.76h-2.76v-2.01h2.76v-4.14l2.52-.599v4.74h4.77l-.6 2.01h-4.17zM63 685.406a7.796 7.796 0 005.13 1.74c2.58 0 4.409-1.23 4.409-3.45 0-2.25-2.25-3.45-4.65-4.38-2.7-1.05-5.76-2.49-5.76-6.15 0-3.6 2.61-5.34 6.66-5.34a10.98 10.98 0 015.85 1.62l-1.23 2.04a8.164 8.164 0 00-4.62-1.38c-2.64 0-3.9 1.14-3.9 2.88 0 2.07 2.31 3.42 4.23 4.17 3.3 1.29 6.18 2.55 6.18 6.21 0 3.54-2.46 6.06-7.17 6.06a10.964 10.964 0 01-6.479-1.86zm18.395-3.21c.24 3.33 1.8 5.22 4.83 5.22a8.096 8.096 0 003.93-1.08l.87 1.8a10.38 10.38 0 01-5.1 1.29c-4.26 0-7.17-2.94-7.17-7.95 0-4.74 2.43-7.95 6.75-7.95 4.11 0 6.15 2.4 6.15 6.15a12.917 12.917 0 01-.27 2.52zm0-1.83h7.89a5.257 5.257 0 00.03-.69c0-2.4-1.26-4.14-3.75-4.14-2.52 0-4.02 1.98-4.17 4.83zm16.715-4.619a6.2 6.2 0 014.441-2.22 3.957 3.957 0 013.9 2.22 5.788 5.788 0 014.53-2.22c3.27 0 4.83 2.01 4.83 6.03v9.569h-2.52v-9.57c0-2.67-.96-4.02-2.97-4.02a4.846 4.846 0 00-3.3 2.04v11.55h-2.52v-9.36c0-2.91-.84-4.23-2.64-4.23a4.965 4.965 0 00-3.57 2.43v11.16h-2.52v-15.3h1.62l.6 1.92zm20.905.089l.6-2.01h5.01v15.3h-2.52v-13.29zm4.32-8.129a1.665 1.665 0 11-1.65 1.68 1.677 1.677 0 011.65-1.68zm15.392 10.379c2.64.63 4.32 2.31 4.32 5.22 0 4.29-3.21 5.82-7.32 5.82h-5.97v-20.999h5.97c3.75 0 6.57 1.38 6.57 5.04a4.656 4.656 0 01-3.57 4.8zm-3.21-.84c2.37 0 4.02-1.29 4.02-3.42 0-2.31-1.44-3.42-4.14-3.42h-2.999v6.84zm-3.119 2.16v7.44h3.15c2.939 0 4.74-1.35 4.74-3.72 0-2.52-1.681-3.72-4.77-3.72zm14.265 2.07c0-4.98 2.64-7.95 6.9-7.95s6.899 2.97 6.899 7.95-2.64 7.95-6.9 7.95-6.9-2.97-6.9-7.95zm2.579 0c0 3.75 1.59 5.94 4.32 5.94 2.73 0 4.32-2.19 4.32-5.94 0-3.75-1.59-5.94-4.32-5.94-2.73 0-4.32 2.19-4.32 5.94zm17.93 3.69c0 1.56.33 2.25 1.62 2.25a3.811 3.811 0 001.53-.33l.48 1.89a6.552 6.552 0 01-2.49.45c-2.55 0-3.66-1.32-3.66-4.26v-17.939l2.52-.6zm16.183-10.56v-7.379l2.52-.6v22.499h-1.62l-.6-1.92h-.12a6.051 6.051 0 01-4.8 2.22c-3.93 0-6.03-3.24-6.03-7.95 0-4.56 1.89-7.95 6.45-7.95a8.085 8.085 0 014.2 1.08zm-8.07 6.87c0 3.51 1.47 5.94 4.23 5.94a5.178 5.178 0 003.84-2.28v-8.22a6.269 6.269 0 00-3.84-1.38c-2.76 0-4.23 2.16-4.23 5.94zm336.483-11.369a9.23 9.23 0 00-4.59 1.5l-1.11-2.01a11.855 11.855 0 016.27-1.77c3.69 0 5.67 2.1 5.67 5.76 0 5.04-4.95 10.26-8.55 13.14v.12h9.15l-.6 2.279h-12.3v-1.98c4.23-3.3 9.63-8.67 9.63-13.32 0-2.37-1.02-3.72-3.57-3.72zm23.625 12.329c0 4.62-2.94 6.99-6.87 6.99a10.188 10.188 0 01-6.03-1.77l1.2-2.01a7.67 7.67 0 004.62 1.5c2.52 0 4.41-1.56 4.41-4.71a4.37 4.37 0 00-4.74-4.71 14.455 14.455 0 00-4.29.78v-10.379h10.92l-.6 2.28h-7.77v5.4a11.214 11.214 0 012.4-.24c3.93 0 6.75 2.37 6.75 6.869zm16.119 0c0 4.62-2.94 6.99-6.87 6.99a10.188 10.188 0 01-6.03-1.77l1.2-2.01a7.67 7.67 0 004.62 1.5c2.52 0 4.41-1.56 4.41-4.71a4.37 4.37 0 00-4.74-4.71 14.455 14.455 0 00-4.29.78v-10.379h10.92l-.6 2.28h-7.77v5.4a11.214 11.214 0 012.4-.24c3.93 0 6.75 2.37 6.75 6.869zm15.299 5.91v6.78l-2.52.6v-21.9h1.62l.6 1.92h.12a6.052 6.052 0 014.8-2.22c3.93 0 6.03 3.24 6.03 7.95 0 4.56-1.89 7.95-6.45 7.95a8.088 8.088 0 01-4.2-1.08zm8.07-6.87c0-3.51-1.47-5.94-4.23-5.94a5.18 5.18 0 00-3.84 2.28v8.22a6.27 6.27 0 003.84 1.38c2.76 0 4.23-2.16 4.23-5.94zm10.167 3.12c0 1.98.69 2.82 2.221 2.82a7.987 7.987 0 002.52-.45l.36 1.92a9.968 9.968 0 01-3.18.54c-2.76 0-4.44-1.41-4.44-4.83v-8.76h-2.76v-2.01h2.76v-4.14l2.52-.6v4.74h4.77l-.6 2.01h-4.17z"/><path d="M769.072 839.516h.12l3.93-18.389h2.88l-4.98 20.999h-3.69l-3.72-17.999h-.09l-3.72 17.999h-3.69l-4.98-20.999h2.88l3.93 18.39h.12l3.78-18.39h3.45zm10.971-12.99a1.83 1.83 0 11-1.829 1.83 1.857 1.857 0 011.83-1.83zm0 12.24a1.83 1.83 0 11-1.829 1.83 1.857 1.857 0 011.83-1.83zm26.61-3.33c0 4.62-2.94 6.99-6.87 6.99a10.188 10.188 0 01-6.03-1.77l1.2-2.01a7.67 7.67 0 004.62 1.5c2.52 0 4.41-1.56 4.41-4.71a4.37 4.37 0 00-4.74-4.71 14.455 14.455 0 00-4.29.78v-10.379h10.92l-.6 2.28h-7.77v5.4a11.214 11.214 0 012.4-.24c3.93 0 6.75 2.37 6.75 6.869zm13.92-12.029h-10.77l.6-2.28h12.749v1.98l-7.35 19.019h-2.58zm12.297-.3a9.23 9.23 0 00-4.59 1.5l-1.11-2.01a11.855 11.855 0 016.27-1.77c3.69 0 5.669 2.1 5.669 5.76 0 5.04-4.95 10.26-8.55 13.14v.12h9.15l-.6 2.279h-12.3v-1.98c4.23-3.3 9.63-8.67 9.63-13.32 0-2.37-1.02-3.72-3.57-3.72zm74.25 16.409h.12l3.93-18.389h2.88l-4.98 20.999h-3.69l-3.72-17.999h-.09l-3.72 17.999h-3.69l-4.979-20.999h2.88l3.93 18.39h.12l3.78-18.39h3.45zm10.972-12.99a1.83 1.83 0 11-1.829 1.83 1.857 1.857 0 011.83-1.83zm0 12.24a1.83 1.83 0 11-1.829 1.83 1.857 1.857 0 011.83-1.83zm26.61-3.33c0 4.62-2.94 6.99-6.87 6.99a10.188 10.188 0 01-6.03-1.77l1.2-2.01a7.67 7.67 0 004.62 1.5c2.52 0 4.41-1.56 4.41-4.71a4.37 4.37 0 00-4.74-4.71 14.455 14.455 0 00-4.29.78v-10.379h10.92l-.6 2.28h-7.77v5.4a11.214 11.214 0 012.4-.24c3.93 0 6.75 2.37 6.75 6.869zm9.402-12.329a9.23 9.23 0 00-4.59 1.5l-1.11-2.01a11.855 11.855 0 016.27-1.77c3.69 0 5.67 2.1 5.67 5.76 0 5.04-4.95 10.26-8.55 13.14v.12h9.15l-.6 2.279h-12.3v-1.98c4.23-3.3 9.63-8.67 9.63-13.32 0-2.37-1.02-3.72-3.57-3.72zm16.814 0a9.23 9.23 0 00-4.59 1.5l-1.11-2.01a11.855 11.855 0 016.27-1.77c3.69 0 5.67 2.1 5.67 5.76 0 5.04-4.95 10.26-8.55 13.14v.12h9.15l-.6 2.279h-12.3v-1.98c4.23-3.3 9.63-8.67 9.63-13.32 0-2.37-1.02-3.72-3.57-3.72zm75.294 16.409h.12l3.93-18.389h2.88l-4.98 20.999h-3.69l-3.72-17.999h-.09l-3.72 17.999h-3.69l-4.98-20.999h2.88l3.93 18.39h.12l3.78-18.39h3.45zm10.972-12.99a1.83 1.83 0 11-1.83 1.83 1.857 1.857 0 011.83-1.83zm0 12.24a1.83 1.83 0 11-1.83 1.83 1.857 1.857 0 011.83-1.83zm26.609-3.33c0 4.62-2.94 6.99-6.87 6.99a10.188 10.188 0 01-6.03-1.77l1.2-2.01a7.67 7.67 0 004.62 1.5c2.52 0 4.41-1.56 4.41-4.71a4.37 4.37 0 00-4.74-4.71 14.455 14.455 0 00-4.29.78v-10.379h10.92l-.6 2.28h-7.77v5.4a11.214 11.214 0 012.4-.24c3.93 0 6.75 2.37 6.75 6.869zm13.92-12.029h-10.77l.6-2.28h12.75v1.98l-7.35 19.019h-2.58zm15.759 9.09a5.525 5.525 0 01-4.05 1.68c-3.39 0-5.879-2.43-5.879-6.66s2.79-6.69 6.69-6.69c4.23 0 6.659 3.18 6.659 7.89a14.42 14.42 0 01-10.62 13.709l-.929-1.83c3.54-1.41 7.05-3.99 8.22-8.04zm-3.24-9.39c-2.4 0-4.019 1.53-4.019 4.41s1.62 4.38 4.02 4.38a4.611 4.611 0 004.08-3.18c0-3.36-1.381-5.61-4.08-5.61zm80.195 16.409h.12l3.93-18.389h2.88l-4.98 20.999h-3.69l-3.72-17.999h-.09l-3.72 17.999h-3.69l-4.98-20.999h2.88l3.93 18.39h.12l3.78-18.39h3.45zm10.972-12.99a1.83 1.83 0 11-1.83 1.83 1.857 1.857 0 011.83-1.83zm0 12.24a1.83 1.83 0 11-1.83 1.83 1.857 1.857 0 011.83-1.83zm26.609-3.33c0 4.62-2.94 6.99-6.87 6.99a10.188 10.188 0 01-6.03-1.77l1.2-2.01a7.67 7.67 0 004.62 1.5c2.52 0 4.41-1.56 4.41-4.71a4.37 4.37 0 00-4.74-4.71 14.455 14.455 0 00-4.29.78v-10.379h10.92l-.6 2.28h-7.77v5.4a11.214 11.214 0 012.4-.24c3.93 0 6.75 2.37 6.75 6.869zm13.92-12.029h-10.77l.6-2.28h12.75v1.98l-7.35 19.019h-2.58zm11.862 19.019a10.045 10.045 0 01-5.94-1.77l1.23-2.01a7.239 7.239 0 004.5 1.5c2.67 0 4.5-1.38 4.5-4.47 0-3.21-1.89-4.5-4.62-4.5h-.9v-1.05l4.47-6.6v-.12h-8.49l.6-2.28h10.68v1.98l-4.23 6.27v.12c2.88.39 5.16 2.34 5.16 6.18 0 4.62-3.15 6.75-6.96 6.75zm86.73-2.91h.121l3.93-18.389h2.88l-4.98 20.999h-3.69l-3.72-17.999h-.09l-3.72 17.999h-3.69l-4.98-20.999h2.88l3.93 18.39h.12l3.78-18.39h3.45zm10.973-12.99a1.83 1.83 0 11-1.83 1.83 1.857 1.857 0 011.83-1.83zm0 12.24a1.83 1.83 0 11-1.83 1.83 1.857 1.857 0 011.83-1.83zm26.609-3.33c0 4.62-2.94 6.99-6.87 6.99a10.188 10.188 0 01-6.03-1.77l1.2-2.01a7.67 7.67 0 004.62 1.5c2.52 0 4.41-1.56 4.41-4.71a4.37 4.37 0 00-4.74-4.71 14.455 14.455 0 00-4.29.78v-10.379h10.92l-.6 2.28h-7.77v5.4a11.214 11.214 0 012.4-.24c3.93 0 6.75 2.37 6.75 6.869zm12.863-2.939a5.525 5.525 0 01-4.05 1.68c-3.39 0-5.879-2.43-5.879-6.66s2.79-6.69 6.69-6.69c4.23 0 6.66 3.18 6.66 7.89a14.42 14.42 0 01-10.62 13.709l-.93-1.83c3.54-1.41 7.05-3.99 8.22-8.04zm-3.24-9.39c-2.4 0-4.02 1.53-4.02 4.41s1.62 4.38 4.02 4.38a4.611 4.611 0 004.081-3.18c0-3.36-1.38-5.61-4.08-5.61zm13.585 7.649a5.527 5.527 0 014.05-1.68c3.39 0 5.88 2.43 5.88 6.66s-2.79 6.69-6.69 6.69c-4.23 0-6.66-3.18-6.66-7.89a14.477 14.477 0 0110.68-13.71l.87 1.83c-3.6 1.29-7.05 3.99-8.22 8.04zm3.24 9.39c2.4 0 4.02-1.53 4.02-4.41s-1.62-4.38-4.02-4.38a4.611 4.611 0 00-4.08 3.18c0 3.36 1.38 5.61 4.08 5.61zm79.885-.63h.12l3.93-18.389h2.88l-4.98 20.999h-3.69l-3.72-17.999h-.09l-3.72 17.999h-3.69l-4.98-20.999h2.88l3.93 18.39h.12l3.78-18.39h3.45zm10.972-12.99a1.83 1.83 0 11-1.83 1.83 1.857 1.857 0 011.83-1.83zm0 12.24a1.83 1.83 0 11-1.83 1.83 1.857 1.857 0 011.83-1.83zm26.609-3.33c0 4.62-2.94 6.99-6.87 6.99a10.188 10.188 0 01-6.03-1.77l1.2-2.01a7.67 7.67 0 004.62 1.5c2.52 0 4.41-1.56 4.41-4.71a4.37 4.37 0 00-4.74-4.71 14.455 14.455 0 00-4.29.78v-10.379h10.92l-.6 2.28h-7.77v5.4a11.214 11.214 0 012.4-.24c3.93 0 6.75 2.37 6.75 6.869zm7.263-4.68a5.527 5.527 0 014.05-1.68c3.39 0 5.88 2.43 5.88 6.66s-2.79 6.69-6.69 6.69c-4.23 0-6.66-3.18-6.66-7.89a14.477 14.477 0 0110.68-13.71l.87 1.83c-3.6 1.29-7.05 3.99-8.22 8.04zm3.24 9.39c2.4 0 4.02-1.53 4.02-4.41s-1.62-4.38-4.02-4.38a4.611 4.611 0 00-4.08 3.18c0 3.36 1.38 5.61 4.08 5.61zm19.331-7.649a5.525 5.525 0 01-4.05 1.68c-3.39 0-5.879-2.43-5.879-6.66s2.79-6.69 6.69-6.69c4.23 0 6.659 3.18 6.659 7.89a14.42 14.42 0 01-10.62 13.709l-.929-1.83c3.54-1.41 7.05-3.99 8.22-8.04zm-3.24-9.39c-2.4 0-4.02 1.53-4.02 4.41s1.62 4.38 4.02 4.38a4.611 4.611 0 004.08-3.18c0-3.36-1.38-5.61-4.08-5.61zm73.213 16.409h.12l3.93-18.389h2.88l-4.98 20.999h-3.69l-3.72-17.999h-.09l-3.72 17.999h-3.69l-4.98-20.999h2.88l3.93 18.39h.12l3.78-18.39h3.45zm10.971-12.99a1.83 1.83 0 11-1.829 1.83 1.857 1.857 0 011.83-1.83zm0 12.24a1.83 1.83 0 11-1.829 1.83 1.857 1.857 0 011.83-1.83zm26.61-3.33c0 4.62-2.94 6.99-6.87 6.99a10.188 10.188 0 01-6.03-1.77l1.2-2.01a7.67 7.67 0 004.62 1.5c2.52 0 4.41-1.56 4.41-4.71a4.37 4.37 0 00-4.74-4.71 14.455 14.455 0 00-4.29.78v-10.379h10.92l-.6 2.28h-7.77v5.4a11.214 11.214 0 012.4-.24c3.93 0 6.75 2.37 6.75 6.869zm9.402-12.329a9.23 9.23 0 00-4.59 1.5l-1.11-2.01a11.855 11.855 0 016.27-1.77c3.69 0 5.67 2.1 5.67 5.76 0 5.04-4.95 10.26-8.55 13.14v.12h9.15l-.6 2.279h-12.3v-1.98c4.23-3.3 9.63-8.67 9.63-13.32 0-2.37-1.02-3.72-3.57-3.72zm16.814 0a9.23 9.23 0 00-4.59 1.5l-1.11-2.01a11.855 11.855 0 016.27-1.77c3.69 0 5.67 2.1 5.67 5.76 0 5.04-4.95 10.26-8.55 13.14v.12h9.15l-.6 2.279h-12.3v-1.98c4.23-3.3 9.63-8.67 9.63-13.32 0-2.37-1.02-3.72-3.57-3.72z" fill="gray"/><path d="M730.795 93.218V853.68m136-760.462V853.68m135-760.462V853.68m140-760.462V853.68m155-760.462V853.68m142-760.462V853.68m143-760.462V853.68m135-760.462V853.68" fill="none" stroke="#ff0" stroke-miterlimit="10"/></svg>