<svg id="Layer_1" data-name="Layer 1" xmlns="http://www.w3.org/2000/svg" viewBox="0 0 1920 940"><defs><clipPath id="clip-path"><path fill="none" d="M0-140h1920V940H0z"/></clipPath><style>.cls-2{clip-path:url(#clip-path)}.cls-4{opacity:.5}.cls-5{fill:#ffdc00}</style></defs><g class="cls-2"><path d="M0-140h1920V940H0z"/><g class="cls-2"><path d="M1845.407 151.8l7.3-35.033h-191.595V151.8h75.908v220.424h39.413V151.8zm-407.296 189.04c-24.816 0-43.063-7.298-59.85-19.706l-20.802 32.114c23.722 14.598 45.618 22.627 80.652 22.627 57.296 0 89.046-26.641 89.046-71.893 0-47.443-35.4-64.96-75.543-80.652-22.26-8.76-47.442-22.262-47.442-43.063 0-20.802 14.232-32.115 41.968-32.115 23.356 0 38.32 6.204 54.376 15.692l18.612-31.02c-21.53-11.678-43.428-19.706-72.988-19.706-51.822 0-82.842 25.546-82.842 69.338 0 42.334 37.59 60.945 70.434 73.718 28.1 10.949 52.551 24.816 52.551 49.997 0 23.72-19.706 34.67-48.172 34.67m-287.597-157.655h1.46l17.516 189.039h39.414l-23.72-255.458h-48.538L1080.08 284.64h-1.095l-56.566-167.873h-48.537l-23.72 255.458h39.413l17.517-189.04h1.46l51.821 155.466h38.32zM797.957 372.225V337.19H755.99V151.8h36.494l7.3-35.034H674.606V151.8h41.968v185.39h-41.968v35.034zM441.753 340.84c-14.233 0-26.276-4.015-38.319-9.854l-14.232 31.385c18.976 9.488 35.034 13.503 57.295 13.503 40.874 0 68.61-26.641 68.61-72.988v-186.12h-96.71l-7.299 35.034h64.594v151.086c0 24.086-13.867 37.954-33.939 37.954M187.73 148.15a111.882 111.882 0 0151.457 12.409l15.327-31.02c-24.45-12.773-43.428-16.422-66.784-16.422-75.908 0-105.833 57.66-105.833 131.378 0 73.718 29.925 131.379 105.833 131.379 28.83 0 48.172-6.57 71.163-19.707l-15.327-31.02c-17.882 10.218-36.129 15.693-55.836 15.693-46.712 0-64.959-42.334-64.959-96.345 0-54.011 18.247-96.344 64.96-96.344M1727.162 566.85c42.334 0 63.865 33.208 68.244 78.096h-93.06v35.034h93.06c-4.014 45.983-25.545 79.557-68.244 79.557-19.706 0-35.034-5.474-52.916-15.692l-15.327 31.02c22.991 13.137 43.062 19.706 70.798 19.706 72.258 0 108.387-56.93 108.387-131.378s-35.399-131.379-107.657-131.379c-23.356 0-43.793 3.65-68.244 16.423l15.328 31.02c17.882-9.124 33.21-12.408 49.631-12.408m-297.888 192.688c-19.707 0-40.143-6.569-58.39-17.882l-17.882 31.02c22.991 14.598 48.537 21.896 76.272 21.896 52.552 0 93.425-23.72 93.425-75.907 0-35.399-20.437-55.106-52.551-62.04v-1.095c23.356-6.204 43.427-26.276 43.427-59.85 0-44.523-37.953-63.865-83.57-63.865-25.182 0-45.983 4.015-71.164 16.423l15.692 31.02c18.977-9.124 35.399-12.408 53.646-12.408 28.101 0 44.888 13.137 44.888 36.494 0 21.531-16.787 38.683-43.063 38.683h-31.385v33.575h31.75c33.21 0 51.822 13.868 51.822 39.778 0 27.371-21.532 44.158-52.917 44.158m-200.083-224.073h-47.077l-59.121 105.832h-16.422V535.464h-39.414v105.832h-16.422l-59.85-105.832h-46.348l73.353 122.985-81.016 132.473h47.442l66.784-114.59h16.057v114.59h39.414v-114.59h15.692l68.609 118.24 45.983-3.65-81.017-132.473zM809.777 790.922v-35.034H704.674v-79.557h86.856v-35.035h-86.856v-70.798h97.804l7.299-35.034H665.26v255.458zm-275.26-220.424l7.299-35.034H399.489v255.458h39.414V570.498zM165.103 671.951c35.399 0 49.997 16.058 49.997 41.97 0 24.45-14.963 41.967-49.632 41.967h-33.21v-83.937zm66.419-101.453l7.299-35.034H92.845v255.458h74.812c53.282 0 88.316-24.816 88.316-77.002 0-52.187-35.399-77.003-88.316-77.003h-35.399v-66.419z" fill="#fff"/><g class="cls-4"><path class="cls-5" d="M243.905 194.33A47.905 47.905 0 10196 146.423a47.904 47.904 0 0047.905 47.905"/></g><g class="cls-4"><path class="cls-5" d="M388 392.116a47.905 47.905 0 10-47.905-47.905A47.904 47.904 0 00388 392.116"/></g><g class="cls-4"><path class="cls-5" d="M787.904 184.174A47.905 47.905 0 10740 136.269a47.904 47.904 0 0047.905 47.905"/></g><g class="cls-4"><path class="cls-5" d="M1380.678 392.116a47.905 47.905 0 10-47.905-47.905 47.904 47.904 0 0047.905 47.905"/></g><g class="cls-4"><path class="cls-5" d="M1840.991 184.174a47.905 47.905 0 10-47.905-47.905 47.904 47.904 0 0047.905 47.905"/></g><g class="cls-4"><path class="cls-5" d="M1669.905 813.982A47.905 47.905 0 101622 766.077a47.904 47.904 0 0047.905 47.905"/></g><g class="cls-4"><path class="cls-5" d="M1375.905 613.026A47.905 47.905 0 101328 565.121a47.904 47.904 0 0047.905 47.905"/></g><g class="cls-4"><path class="cls-5" d="M1085.905 708.835A47.905 47.905 0 101038 660.93a47.904 47.904 0 0047.905 47.905"/></g><g class="cls-4"><path class="cls-5" d="M796 597.982a47.905 47.905 0 10-47.905-47.905A47.904 47.904 0 00796 597.982"/></g><g class="cls-4"><path class="cls-5" d="M525.904 597.982A47.905 47.905 0 10478 550.077a47.904 47.904 0 0047.905 47.905"/></g><g class="cls-4"><path class="cls-5" d="M224 597.982a47.905 47.905 0 10-47.905-47.905A47.904 47.904 0 00224 597.982"/></g><g class="cls-4"><path class="cls-5" d="M1078.93 371.517a47.905 47.905 0 10-47.905-47.905 47.904 47.904 0 0047.905 47.905"/></g></g></g></svg>