<svg id="Layer_1" data-name="Layer 1" xmlns="http://www.w3.org/2000/svg" viewBox="0 0 1920 940"><defs><clipPath id="clip-path"><path fill="none" d="M0-140h1920V940H0z"/></clipPath><style>.cls-2{fill:#fff}.cls-3{clip-path:url(#clip-path)}.cls-4{fill:#9c9b9b}</style></defs><path d="M0-140h1920V940H0z"/><path class="cls-2" d="M1151.62 838.4h-6.825v37.7h6.825v-15.6h68.965v.195l-11.765 11.57 4.485 4.485 19.5-19.5-19.5-19.5-4.485 4.485 11.765 11.57V854h-68.965zM1042.615 854v-.195l11.765-11.57-4.485-4.485-19.5 19.5 19.5 19.5 4.485-4.485-11.765-11.57v-.195h63.57v.195l-11.765 11.57 4.485 4.485 19.5-19.5-19.5-19.5-4.485 4.485 11.765 11.57V854zm-45.435 0h-68.965v-.195l11.765-11.57-4.485-4.485-19.5 19.5 19.5 19.5 4.485-4.485-11.765-11.57v-.195h68.965v15.6h6.825v-37.7h-6.825zm-171.6-11.765l-4.484-4.485-19.5 19.5 19.5 19.5 4.485-4.485-11.765-11.57v-.195h75.79V854h-75.79v-.195zm-62.594 11.57V854h-75.79v6.5h75.79v.195l-11.765 11.57 4.485 4.485 19.5-19.5-19.5-19.5-4.485 4.485z"/><g class="cls-3"><path class="cls-2" d="M1843.945 753.756l-24.31 24.31-.195-.195v-16.185h-6.435v27.625h27.625v-6.435h-16.25l-.195-.195 24.31-24.375zm-119.771 4.55l24.31 24.375-.195.195h-16.25v6.435h27.625v-27.625h-6.435v16.185l-.195.195-24.31-24.31zm-84.282 31.005l24.31-24.31.195.195v16.185h6.435v-27.625h-27.625v6.435h16.25l.195.195-24.31 24.375zm-57.891-4.55l-24.31-24.375.195-.195h16.25v-6.435h-27.625v27.625h6.435v-16.185l.195-.195 24.31 24.31zm-103.002-2.795h-.195v-33.605h-6.76v33.605h-.195l-11.44-11.44-4.485 4.485 19.5 19.5 19.5-19.5-4.485-4.485zm-80.121-14.3v.195h-36.79v6.5h36.79v.195l-11.765 11.57 4.485 4.485 19.5-19.5-19.5-19.5-4.485 4.485zm-86.101 4.03l4.484-4.485-19.5-19.5-19.5 19.5 4.485 4.485 11.44-11.44h.195v33.605h6.76v-33.605h.195zm-104.367-15.6l-4.485-4.485-19.5 19.5 19.5 19.5 4.485-4.485-11.765-11.57v-.195h36.79v-6.5h-36.79v-.195zm-75.961-1.495c4.745 0 8.19 1.43 8.19 6.565s-3.445 6.565-8.19 6.565h-4.615v-13.13zm-17.875 19.37h6.24v5.005h-6.24v4.94h6.24v9.945h7.02v-9.945h11.505l1.3-4.94h-12.805v-5.005h4.745c8.645 0 15.145-3.315 15.145-12.805s-6.5-12.805-15.145-12.805h-11.765v20.67h-6.24zm-68.682-5.395h5.915c-.065.845-.065 1.69-.065 2.535v2.405h-4.55l-1.3 4.94h6.37c1.625 8.71 6.045 16.055 16.445 16.055a23.483 23.483 0 0012.61-3.51l-2.73-5.525a17.873 17.873 0 01-9.425 2.795c-5.525 0-8.385-3.9-9.555-9.815h11.895l1.3-4.94h-13.78v-2.405c0-.845 0-1.69.065-2.535h14.755l1.3-4.94h-15.405c1.235-6.63 4.81-9.685 9.685-9.685a18.044 18.044 0 018.71 2.21l2.73-5.525a23.948 23.948 0 00-12.025-2.925c-9.36 0-14.82 5.98-16.51 15.925h-5.135zm-49.767 19.695c-4.42 0-6.825-1.365-10.14-3.445l-3.575 5.525a23.395 23.395 0 0012.675 4.16l-1.17 6.5h7.8l-1.235-6.825c7.345-1.17 11.18-5.655 11.18-12.48 0-8.45-5.98-11.245-13.13-14.365-3.9-1.69-7.605-4.095-7.605-7.8s2.34-5.59 7.02-5.59a15.75 15.75 0 018.97 2.795l3.315-5.525a22.639 22.639 0 00-10.01-3.38l1.235-5.98h-7.8l1.17 5.98c-7.41.845-11.18 5.265-11.18 12.22 0 7.15 5.655 10.53 11.44 13.065 4.94 2.145 9.295 4.225 9.295 8.71 0 4.225-3.185 6.435-8.255 6.435m-102.806-39.91h-7.54v45.5h7.02v-33.8h.26l19.305 33.8h7.54v-45.5h-7.02v33.865h-.26zm36.92 41.86a4.29 4.29 0 104.29-4.29 4.328 4.328 0 00-4.29 4.29m13.065-15.86h-17.55v5.2h17.55zm-8.775-4.68c5.85 0 10.075-4.095 10.075-10.985s-4.225-10.985-10.075-10.985c-5.915 0-10.075 4.095-10.075 10.985s4.16 10.985 10.075 10.985m0-17.485c2.925 0 4.875 2.21 4.875 6.5s-1.95 6.5-4.875 6.5-4.875-2.21-4.875-6.5 1.95-6.5 4.875-6.5m-109.632 9.88l-4.745 2.86 7.085 11.57-7.085 11.57 4.745 2.86 8.905-14.43zm13.195 0l-4.745 2.86 7.085 11.57-7.085 11.57 4.745 2.86 8.905-14.43zm-85.256-1.17c0 7.54 4.615 12.545 11.31 12.545v34.06h5.85v-53.95h5.85v53.95h5.85v-59.15h-17.55c-6.695 0-11.31 5.005-11.31 12.545m-49.442-3.835a4.879 4.879 0 114.875 5.07 4.834 4.834 0 01-4.875-5.07m-4.485 0c0 5.85 4.16 9.36 9.36 9.36s9.36-3.51 9.36-9.36-4.16-9.36-9.36-9.36a9.123 9.123 0 00-9.36 9.36m-70.566 9.36a14.755 14.755 0 1114.755 14.755 14.786 14.786 0 01-14.755-14.755m-3.965 0a18.72 18.72 0 1018.72-18.72 18.725 18.725 0 00-18.72 18.72m19.11-6.565c1.495 0 2.665.65 2.665 2.275 0 1.755-1.17 2.405-2.665 2.405h-2.795v-4.68zm.13-3.77h-7.085v19.825h4.16v-7.54h1.885l4.355 7.8 4.485-.325-4.68-8.06a5.63 5.63 0 003.575-5.655c0-4.16-2.925-6.045-6.695-6.045m-87.532 11.05v5.265h25.675v12.74h5.525v-18.005zm-49.181 9.36l8.905 14.43 4.745-2.86-7.085-11.57 7.085-11.57-4.745-2.86zm-13.195 0l8.905 14.43 4.745-2.86-7.085-11.57 7.085-11.57-4.745-2.86zm-42.162-.39c0 11.44-7.41 18.785-17.485 18.785s-17.615-7.345-17.615-18.785 7.54-18.785 17.615-18.785 17.485 7.345 17.485 18.785m5.33 0c0-14.755-9.1-23.4-22.815-23.4s-22.945 8.645-22.945 23.4 9.23 23.4 22.945 23.4 22.815-8.645 22.815-23.4m-22.36 12.35a14.253 14.253 0 007.54-2.21l-2.015-4.095a10.318 10.318 0 01-5.33 1.755c-3.575 0-5.98-3.055-5.98-7.8 0-4.68 2.34-7.735 5.98-7.735a10.975 10.975 0 015.005 1.365l1.95-4.095a15.16 15.16 0 00-7.28-1.885c-7.15 0-10.79 5.005-10.79 12.35 0 7.41 3.64 12.35 10.92 12.35m-69.461-14.755a4.29 4.29 0 104.29-4.29 4.328 4.328 0 00-4.29 4.29m-45.931-3.51h5.85v-21.84h-5.85zm5.85 9.62h-5.85v24.31h5.85zm-67.187-8.515a5.98 5.98 0 115.98 5.98 5.964 5.964 0 01-5.98-5.98m-5.265 0a11.654 11.654 0 001.69 5.98l-7.02 7.02 3.705 3.705 7.085-7.085a10.912 10.912 0 005.785 1.625 11.081 11.081 0 005.785-1.625l7.085 7.085 3.705-3.705-7.085-7.02a11.115 11.115 0 001.755-5.98 10.895 10.895 0 00-1.755-5.915l7.085-7.085-3.705-3.705-7.085 7.085a11.081 11.081 0 00-5.785-1.625 10.912 10.912 0 00-5.785 1.625l-7.085-7.085-3.705 3.705 7.02 7.085a11.42 11.42 0 00-1.69 5.915m-49.116-9.23l-4.745 2.86 7.085 11.57-7.085 11.57 4.745 2.86 8.905-14.43zm-47.102-6.955h.26l1.495 16.64h5.07l-2.405-23.4h-6.435l-5.2 14.235h-.195l-5.265-14.235h-6.435l-2.34 23.4h5.07l1.43-16.64h.26l5.07 13.585h4.55zm-23.53-2.34l.65-4.42h-21.97v4.42h8.45v18.98h5.07v-18.98zM62.6 776.506l8.905 14.43 4.745-2.86-7.085-11.57 7.085-11.57-4.745-2.86zm1789.275-84.514l1.3-5.915h-39.78v5.915zm-73.013 0l1.3-5.915h-30.03v5.915zm-60.013 0l1.3-5.915h-17.68v5.915zm-59.752-3.77a7.182 7.182 0 107.15-7.215 7.213 7.213 0 00-7.15 7.215m-32.258-26.65a3.582 3.582 0 00-3.835 3.705 3.351 3.351 0 003.185 3.64 7.656 7.656 0 01-3.315 5.46l1.56 2.08a11.006 11.006 0 006.305-10.335c0-2.99-1.69-4.55-3.9-4.55m-10.79 0a3.582 3.582 0 00-3.835 3.705 3.351 3.351 0 003.185 3.64 7.656 7.656 0 01-3.315 5.46l1.56 2.08a11.006 11.006 0 006.305-10.335c0-2.99-1.69-4.55-3.9-4.55m-33.038 14.885a3.582 3.582 0 003.835-3.705 3.352 3.352 0 00-3.185-3.64 7.656 7.656 0 013.315-5.46l-1.56-2.08a11.006 11.006 0 00-6.305 10.335c0 2.99 1.69 4.55 3.9 4.55m-10.79 0a3.582 3.582 0 003.835-3.705 3.351 3.351 0 00-3.185-3.64 7.655 7.655 0 013.315-5.46l-1.56-2.08a11.006 11.006 0 00-6.305 10.335c0 2.99 1.69 4.55 3.9 4.55m-33.558-14.885a3.582 3.582 0 00-3.835 3.705 3.351 3.351 0 003.185 3.64 7.656 7.656 0 01-3.315 5.46l1.56 2.08a11.006 11.006 0 006.305-10.335c0-2.99-1.69-4.55-3.9-4.55m-33.038 14.885a3.582 3.582 0 003.835-3.705 3.352 3.352 0 00-3.185-3.64 7.656 7.656 0 013.315-5.46l-1.56-2.08a11.006 11.006 0 00-6.305 10.335c0 2.99 1.69 4.55 3.9 4.55m-55.333 25.87v5.395h9.88v13.65h6.5v-13.65h9.945v-5.395h-9.945v-22.36h9.945v-5.395h-9.945v-13l-6.5 1.3v11.7h-9.88v5.395h9.88v22.36zm-34.402 19.045v-41.405h9.945v-5.395h-9.945v-13l-6.5 1.3v11.7h-9.88v5.395h9.88v41.405zm-50.07-17.29a4.29 4.29 0 104.29-4.29 4.328 4.328 0 00-4.29 4.29m-15.21 0a4.29 4.29 0 104.29-4.29 4.328 4.328 0 00-4.29 4.29m-15.21 0a4.29 4.29 0 104.29-4.29 4.328 4.328 0 00-4.29 4.29m-29.657-3.12a3.582 3.582 0 00-3.835 3.705 3.351 3.351 0 003.185 3.64 7.655 7.655 0 01-3.315 5.46l1.56 2.08a11.006 11.006 0 006.305-10.335c0-2.99-1.69-4.55-3.9-4.55m-10.79 0a3.582 3.582 0 00-3.835 3.705 3.352 3.352 0 003.185 3.64 7.656 7.656 0 01-3.315 5.46l1.56 2.08a11.006 11.006 0 006.305-10.335c0-2.99-1.69-4.55-3.9-4.55m-33.297 0a3.582 3.582 0 00-3.835 3.705 3.352 3.352 0 003.185 3.64 7.656 7.656 0 01-3.315 5.46l1.56 2.08a11.006 11.006 0 006.305-10.335c0-2.99-1.69-4.55-3.9-4.55m-48.12 17.03v5.33h3.706c5.85 0 9.165-3.445 9.165-9.1v-15.73a3.418 3.418 0 013.64-3.77h1.56v-5.265h-1.56a3.418 3.418 0 01-3.64-3.77v-14.365c0-5.655-3.315-9.1-9.165-9.1h-3.705v5.33h3.185c2.275 0 3.445 1.43 3.445 3.77v14.3c0 3.835 2.145 5.72 4.55 6.24v.26c-2.34.39-4.55 2.86-4.55 6.5v15.6c0 2.34-1.17 3.77-3.445 3.77zm-33.557 0h5.85v-55.77h-5.85zm-30.894-1.95c-2.275 0-3.445-1.43-3.445-3.77v-14.625c0-3.64-2.21-6.11-4.55-6.5v-.26c2.405-.52 4.55-2.405 4.55-6.24v-13.325c0-2.34 1.17-3.77 3.445-3.77h3.185v-5.33h-3.705c-5.85 0-9.165 3.445-9.165 9.1v13.39a3.418 3.418 0 01-3.64 3.77h-1.56v5.265h1.56a3.418 3.418 0 013.64 3.77v14.755c0 5.655 3.315 9.1 9.165 9.1h3.705v-5.33zm-36.743-.585h-25.35v5.915h25.35zm-48.508-53.235h-13.455v5.33h7.215v50.505h-7.215v5.265h13.455zm-58.453 0h-6.24l24.765 55.77h6.24zm-39.928 61.1h13.455v-5.265h-7.215v-50.505h7.215v-5.33h-13.455zm-44.09-13.65a19.764 19.764 0 01-9.294 2.08c-10.985 0-18.85-7.605-18.85-20.67s7.865-20.67 18.85-20.67c13.78 0 18.85 10.66 18.85 20.67 0 7.54-3.25 10.335-5.915 10.335-2.08 0-3.12-1.3-3.12-3.705v-17.745a25.293 25.293 0 00-9.945-1.95c-8.385 0-11.635 5.59-11.635 13.065s2.795 13.065 10.075 13.065a9.454 9.454 0 007.085-2.925h.26c.845 2.145 2.795 4.615 7.15 4.615 5.265 0 11.245-3.705 11.245-14.755 0-16.12-10.335-24.96-24.05-24.96s-24.05 8.84-24.05 24.96 10.335 24.96 24.05 24.96a23.739 23.739 0 0011.115-2.535zm-4.614-12.74a6.774 6.774 0 01-5.525 2.925c-4.29 0-5.72-3.575-5.72-8.775s1.885-8.775 6.435-8.775a10.104 10.104 0 014.81 1.04zm-67.813-29.315c3.445 0 5.59 1.82 5.59 5.395 0 7.28-8.905 13.195-8.905 21.06v1.3h5.59v-1.3c0-6.24 10.075-12.35 10.075-20.865 0-7.28-4.16-11.635-12.35-11.635a21.573 21.573 0 00-11.83 3.51l3.055 5.2a15.973 15.973 0 018.775-2.665m-4.81 36.465a4.29 4.29 0 104.29-4.29 4.328 4.328 0 00-4.29 4.29m-40.71 0a4.15 4.15 0 014.226-4.29c2.535 0 4.355 1.885 4.355 5.265a12.744 12.744 0 01-7.085 11.895l-1.82-2.405a8.158 8.158 0 003.77-6.305 4.253 4.253 0 01-3.445-4.16m0-25.87a4.29 4.29 0 104.29-4.29 4.328 4.328 0 00-4.29 4.29m-34.338 25.87a4.29 4.29 0 104.29-4.29 4.328 4.328 0 00-4.29 4.29m0-25.87a4.29 4.29 0 104.29-4.29 4.328 4.328 0 00-4.29 4.29m-51.888 39.78h6.24l24.765-55.77h-6.24zm-29.463-13.91a4.29 4.29 0 104.29-4.29 4.328 4.328 0 00-4.29 4.29m-34.338 0a4.253 4.253 0 003.445 4.16 8.158 8.158 0 01-3.77 6.305l1.82 2.405a12.744 12.744 0 007.085-11.895c0-3.38-1.82-5.265-4.355-5.265a4.15 4.15 0 00-4.225 4.29m-38.044-28.08l-.78 8.45h5.2l-.91-8.45 6.435 5.33 2.99-4.225-7.8-4.03 7.8-4.16-2.99-4.225-6.435 5.2.91-8.32h-5.2l.78 8.32-6.305-5.2-2.99 4.225 7.475 4.16-7.475 4.095 2.99 4.225zm-41.163 16.77c0 10.27-2.73 20.605-9.165 28.795l3.185 2.405a46.303 46.303 0 000-62.4l-3.185 2.405c6.435 8.19 9.165 18.525 9.165 28.795m-38.237 0c0-10.27 2.73-20.605 9.164-28.795l-3.184-2.405a46.303 46.303 0 000 62.4l3.184-2.405c-6.434-8.19-9.164-18.525-9.164-28.795m-38.044-13h3.575l2.6-17.55h-6.175zm-50.653 22.555c-4.29 0-7.8-2.47-7.8-7.54 0-3.445 1.69-6.24 4.615-8.385l10.79 12.22a9.989 9.989 0 01-7.605 3.705m2.34-34.71a14.805 14.805 0 018.125 2.73l3.51-5.33a19.336 19.336 0 00-11.44-3.445c-7.345 0-12.545 3.575-12.545 10.66a17.312 17.312 0 003.315 9.88c-4.485 3.055-7.67 7.15-7.67 13.065 0 9.36 5.98 13.195 14.04 13.195a15.252 15.252 0 0011.83-5.265l4.68 5.265 8.06-.65-8.84-10.01a33.87 33.87 0 002.86-14.04h-6.11a27.832 27.832 0 01-1.3 8.84l-9.49-10.855c-2.795-3.185-4.615-5.98-4.615-8.905 0-3.38 2.21-5.135 5.59-5.135m-67.618 13.195h8.125l-1.95 8.125h-8.125zm9.295-5.135h-8.125l2.34-9.685h-5.46l-2.34 9.685h-6.955l-1.235 5.135h7.02l-1.95 8.125h-6.825l-1.235 5.135h6.89l-2.34 9.88h5.46l2.34-9.88h8.125l-2.34 9.88h5.46l2.34-9.88h6.89l1.235-5.135h-6.955l1.95-8.125h6.76l1.235-5.135h-6.825l2.34-9.685h-5.46zm-55.723 4.095h3.575l2.6-17.55h-6.175zm-9.1 0h3.575l2.6-17.55h-6.175zm-30.113-5.2v-12.35h-7.02v12.35l1.365 20.8h4.29zm-7.8 29.51a4.29 4.29 0 104.29-4.29 4.328 4.328 0 00-4.29 4.29m-29.01-6.76c0-7.02-4.16-11.05-10.334-11.05s-10.335 4.03-10.335 11.05 4.16 11.05 10.335 11.05 10.335-4.03 10.335-11.05m-10.335-6.76c3.25 0 4.94 2.405 4.94 6.76s-1.69 6.76-4.94 6.76-4.94-2.405-4.94-6.76 1.69-6.76 4.94-6.76m-14.365 6.76c0-7.02-4.16-11.05-10.335-11.05s-10.335 4.03-10.335 11.05 4.16 11.05 10.335 11.05 10.335-4.03 10.335-11.05m-10.335-6.76c3.25 0 4.94 2.405 4.94 6.76s-1.69 6.76-4.94 6.76-4.94-2.405-4.94-6.76 1.69-6.76 4.94-6.76m-13.52-17.94c0-7.02-4.16-11.05-10.335-11.05s-10.335 4.03-10.335 11.05 4.16 11.05 10.335 11.05 10.335-4.03 10.335-11.05m-10.335-6.76c3.25 0 4.94 2.405 4.94 6.76s-1.69 6.76-4.94 6.76-4.94-2.405-4.94-6.76 1.69-6.76 4.94-6.76m-7.93 41.86h5.85l33.8-45.5h-5.72zm-28.488-10.4c0-7.02-4.16-11.05-10.335-11.05s-10.335 4.03-10.335 11.05 4.16 11.05 10.335 11.05 10.335-4.03 10.335-11.05m-10.335-6.76c3.25 0 4.94 2.405 4.94 6.76s-1.69 6.76-4.94 6.76-4.94-2.405-4.94-6.76 1.69-6.76 4.94-6.76m-13.52-17.94c0-7.02-4.16-11.05-10.335-11.05s-10.335 4.03-10.335 11.05 4.16 11.05 10.335 11.05 10.335-4.03 10.335-11.05m-10.335-6.76c3.25 0 4.94 2.405 4.94 6.76s-1.69 6.76-4.94 6.76-4.94-2.405-4.94-6.76 1.69-6.76 4.94-6.76m-7.93 41.86h5.85l33.8-45.5h-5.72zm-26.538-.325v-5.005h-.715a2.094 2.094 0 01-2.34-2.34v-25.48h-6.76v19.5c0 5.525-2.73 8.645-6.89 8.645s-6.89-3.12-6.89-8.645v-19.5H65.2v47.45l6.76-1.3v-16.51h.26a7.487 7.487 0 006.955 4.16 7.852 7.852 0 006.955-4.16h.26a5.294 5.294 0 005.395 3.835 11.154 11.154 0 003.77-.65M1848.04 597.793c-3.51 0-5.72-3.445-10.66-3.445-4.16 0-6.89 2.34-9.75 5.655l3.51 3.445c1.95-2.275 3.64-3.445 6.5-3.445 4.55 0 5.785 3.445 10.66 3.445 4.16 0 6.89-2.34 9.75-5.655l-3.51-3.445c-1.95 2.275-3.64 3.445-6.5 3.445m-50.443-2.08h6.305l-12.935-20.28-12.935 20.28h6.37l6.5-10.985h.195zm-75.143 20.67h31.2v-5.265h-31.2zm18.395-36.205h-5.59v10.79h-12.805v5.265h12.805v10.79h5.59v-10.79h12.805v-5.265h-12.805zm-74.297 32.305l3.315 5.395 27.885-17.745-27.885-17.745-3.315 5.395 19.825 12.22v.26zm-44.853-12.22v-.26l19.825-12.22-3.315-5.395-27.885 17.745 27.885 17.745 3.315-5.395zm-67.278 7.8h31.2v-5.2h-31.2zm0-10.725h31.2v-5.2h-31.2zm-37.182-12.61h-5.59v12.74h-12.805v5.265h12.805v12.74h5.59v-12.74h12.805v-5.265h-12.805zm-50.897 29.25c-2.34 8.32-9.62 13.39-17.225 15.99l2.145 4.615c13.455-3.9 23.205-12.935 23.205-29.38 0-10.79-5.59-17.42-14.755-17.42-8.645 0-14.82 5.46-14.82 14.82 0 8.71 5.395 14.365 12.935 14.365a11.651 11.651 0 008.32-3.055zm1.495-8.58a9.144 9.144 0 01-8.125 5.915c-4.615 0-7.93-2.925-7.93-8.71s3.315-9.165 7.93-9.165c4.875 0 8.125 4.745 8.125 11.96m-61.817 16.835c9.425 0 14.495-4.615 14.495-12.805 0-4.615-2.795-8.84-7.41-11.7v-.26c3.315-2.275 5.915-5.46 5.915-10.53 0-7.28-4.745-11.505-13-11.505s-13 4.225-13 11.505c0 5.07 2.599 8.255 5.915 10.53v.26c-4.615 2.86-7.41 7.085-7.41 11.7 0 8.19 5.07 12.805 14.495 12.805m-6.435-35.295c0-3.835 2.73-5.85 6.435-5.85s6.435 2.015 6.435 5.85a10.182 10.182 0 01-4.745 8.45l-2.99-1.3c-2.925-1.3-5.135-3.64-5.135-7.15m7.735 14.69c3.77 1.56 6.63 3.9 6.63 7.8 0 4.745-2.925 7.15-7.93 7.15s-7.93-2.405-7.93-7.15c0-3.705 2.404-6.89 6.11-9.1zm-62.793 32.305h7.345l16.575-40.495v-5.005h-27.95l-1.3 5.655h22.23zm-49.207-37.895c2.34-8.32 9.62-13.39 17.225-15.99l-2.145-4.615c-13.455 3.9-23.205 12.935-23.205 29.38 0 10.79 5.59 17.42 14.755 17.42 8.645 0 14.82-5.46 14.82-14.82 0-8.71-5.395-14.365-12.935-14.365a11.652 11.652 0 00-8.32 3.055zm-1.495 8.58a9.144 9.144 0 018.125-5.915c4.615 0 7.93 2.925 7.93 8.71s-3.315 9.165-7.93 9.165c-4.875 0-8.125-4.745-8.125-11.96m-46.868 24.31a16.002 16.002 0 01-9.685-3.38l-3.055 5.2a22.825 22.825 0 0013.195 3.835c8.255 0 15.405-5.135 15.405-15.145 0-10.335-6.5-15.145-15.145-15.145a23.617 23.617 0 00-4.16.39v-10.595h16.315l1.3-5.655h-24.31v23.465a24.014 24.014 0 019.555-1.95c5.33 0 9.555 2.99 9.555 9.49 0 6.11-4.03 9.49-8.97 9.49m-50.573-40.495l-17.42 28.145v5.005h18.785v12.35h6.695v-12.35h6.045l1.3-5.655h-7.345v-6.825h-6.695v6.825h-10.14v-.26l16.38-27.235zm-42.123 31.72c0-8.125-5.07-12.545-11.96-13.52v-.26l9.945-12.935v-5.005h-24.44l-1.3 5.655h18.005v.26l-10.4 13.52v3.445h3.446c5.459 0 9.814 2.535 9.814 8.84 0 6.045-4.03 8.775-8.97 8.775a16.002 16.002 0 01-9.685-3.38l-3.055 5.2a22.825 22.825 0 0013.195 3.835c8.255 0 15.405-4.42 15.405-14.43m-67.472-26.715c4.095 0 6.305 1.69 6.305 5.2 0 7.28-10.92 14.105-20.41 17.94v5.005h27.3l1.3-5.655h-15.6v-.26c7.28-3.055 14.3-9.75 14.3-17.03 0-6.63-4.095-10.855-13.195-10.855a31.097 31.097 0 00-13.325 3.12l2.535 5.395a25.264 25.264 0 0110.79-2.86m-56.943-5.005l-1.3 5.655h9.165v27.495h6.695v-33.15zm-24.377 16.575c0-11.57-6.175-17.225-15.925-17.225s-15.925 5.655-15.925 17.225 6.24 17.225 15.925 17.225 15.925-5.655 15.925-17.225m-24.96 0c0-7.605 3.77-11.57 8.97-11.57 5.33 0 9.1 3.965 9.1 11.57s-3.77 11.57-9.1 11.57c-5.2 0-8.97-3.965-8.97-11.57m4.745 0a4.29 4.29 0 104.29-4.29 4.328 4.328 0 00-4.29 4.29m-34.712 0c0-11.57-6.175-17.225-15.925-17.225s-15.925 5.655-15.925 17.225 6.24 17.225 15.925 17.225 15.925-5.655 15.925-17.225m-24.96 0c0-7.605 3.77-11.57 8.97-11.57 5.33 0 9.1 3.965 9.1 11.57s-3.77 11.57-9.1 11.57c-5.2 0-8.97-3.965-8.97-11.57m-53.822 17.225c13.455-3.9 22.554-13.845 22.554-30.095 0-10.53-5.524-16.705-14.69-16.705-8.514 0-14.884 5.72-14.884 14.625 0 9.165 5.395 14.3 13.13 14.3a11.236 11.236 0 008.06-2.86l.194.065c-2.144 7.865-9.1 12.415-16.834 15.34zm15.665-29.445a8.695 8.695 0 01-7.801 5.655c-4.42 0-7.864-2.99-7.864-8.385s3.445-8.385 7.864-8.385c5.006 0 7.8 4.615 7.8 11.115m-61.362 29.445c8.905 0 14.625-4.81 14.625-13 0-5.135-3.12-9.1-7.54-11.375v-.195a11.599 11.599 0 006.11-10.4c0-7.28-4.94-11.83-13.195-11.83s-13.195 4.55-13.195 11.83a11.494 11.494 0 006.11 10.335v.195c-4.42 2.275-7.54 6.305-7.54 11.44 0 8.19 5.72 13 14.625 13m-6.435-34.97c0-3.51 2.73-5.59 6.435-5.59s6.435 2.08 6.435 5.59c0 3.315-1.69 5.98-4.68 8.06l-2.08-.845c-3.315-1.365-6.11-3.315-6.11-7.215m7.02 14.17c3.835 1.625 7.28 3.9 7.28 7.8 0 4.485-3.315 6.76-7.865 6.76s-7.865-2.015-7.865-6.76c0-3.705 1.95-6.76 5.72-8.97zm-61.428 20.15h7.28l15.86-39.91v-5.59h-27.95l-1.3 6.24h22.295zm-49.728-25.285c2.405-8.255 10.14-13 17.615-15.665l-2.47-5.2c-13.455 3.9-23.205 13.975-23.205 29.705 0 10.205 5.59 17.095 14.755 17.095 8.45 0 14.82-5.33 14.82-14.625 0-9.555-5.72-14.3-13.065-14.3a11.89 11.89 0 00-8.255 3.12zm-1.17 8.84a8.712 8.712 0 017.865-5.59c4.42 0 7.735 2.665 7.735 8.06s-3.315 8.385-7.735 8.385c-5.005 0-7.865-4.355-7.865-10.855m-47.777 10.855a15.704 15.704 0 01-9.425-3.055l-3.315 5.46a22.82 22.82 0 0013.194 3.835c8.255 0 15.405-5.135 15.405-15.145 0-10.335-6.5-15.145-15.145-15.145a22.2 22.2 0 00-4.03.39v-10.01h16.185l1.3-6.24h-24.31v23.66a27.156 27.156 0 019.75-1.82c4.875 0 9.165 2.925 9.165 9.165 0 6.175-4.03 8.905-8.774 8.905m-51.548-39.91l-16.77 29.315v5.525h18.525v10.66h6.825v-10.66h6.175l1.3-6.175h-7.475v-8.255h-6.825v8.255h-10.335v-.26l16.12-28.405zm-52.458 18.135v-.195l9.295-12.35v-5.59h-23.79l-1.3 6.24h17.355v.26l-9.75 13.065v3.51h3.38c5.135 0 9.035 2.405 9.035 8.45 0 5.785-3.77 8.385-8.775 8.385a15.708 15.708 0 01-9.425-3.055l-3.315 5.46a22.825 22.825 0 0013.195 3.835c8.255 0 15.405-4.68 15.405-14.69 0-8.775-5.2-12.285-11.31-13.325m-60.192 20.865c7.93-6.305 17.225-17.16 17.225-27.17 0-7.93-4.615-12.48-12.61-12.48-5.33 0-8.71 1.04-13.91 3.835l3.12 5.46a17.705 17.705 0 019.555-3.055c4.615 0 6.76 2.73 6.76 7.085 0 8.71-11.31 20.54-20.215 27.235v5.59h27.3l1.3-6.24h-18.525zm-51.678-39l-1.3 6.24h9.1v39.26h6.825v-45.5zm-24.052 22.75c0-15.405-5.915-23.4-15.925-23.4s-15.925 7.995-15.925 23.4 5.915 23.4 15.925 23.4 15.925-7.995 15.925-23.4m-24.765 0c0-12.09 3.64-17.16 8.84-17.16s8.84 5.07 8.84 17.16-3.64 17.16-8.84 17.16-8.84-5.07-8.84-17.16m4.55 0a4.29 4.29 0 104.29-4.29 4.328 4.328 0 00-4.29 4.29m-34.712 0c0-15.405-5.915-23.4-15.925-23.4s-15.925 7.995-15.925 23.4 5.915 23.4 15.925 23.4 15.925-7.995 15.925-23.4m-24.765 0c0-12.09 3.64-17.16 8.84-17.16s8.84 5.07 8.84 17.16-3.64 17.16-8.84 17.16-8.84-5.07-8.84-17.16m-39.913 15.145c-2.34 8.32-9.62 13.39-17.225 15.99l2.145 4.615c13.455-3.9 23.205-12.935 23.205-29.38 0-10.79-5.59-17.42-14.755-17.42-8.645 0-14.82 5.46-14.82 14.82 0 8.71 5.395 14.365 12.935 14.365a11.652 11.652 0 008.32-3.055zm1.495-8.58a9.144 9.144 0 01-8.125 5.915c-4.615 0-7.93-2.925-7.93-8.71s3.315-9.165 7.93-9.165c4.875 0 8.125 4.745 8.125 11.96m-63.573 16.835c9.425 0 14.625-4.615 14.625-12.805 0-4.615-2.925-8.84-7.54-11.7v-.26c3.315-2.275 6.045-5.46 6.045-10.53 0-7.28-4.875-11.505-13.13-11.505s-13.13 4.225-13.13 11.505c0 5.07 2.73 8.255 6.045 10.53v.26c-4.615 2.86-7.54 7.085-7.54 11.7 0 8.19 5.2 12.805 14.625 12.805m-6.565-35.295c0-3.835 2.86-5.85 6.565-5.85s6.565 2.015 6.565 5.85c0 3.38-1.82 6.305-4.875 8.45l-2.99-1.3c-2.925-1.3-5.265-3.64-5.265-7.15m7.865 14.69c3.77 1.56 6.76 3.9 6.76 7.8 0 4.745-3.055 7.15-8.06 7.15s-8.06-2.405-8.06-7.15c0-3.705 2.535-6.89 6.24-9.1zm-66.497 32.305h7.345l16.9-40.495v-5.005h-28.275l-1.3 5.655h22.555zm-52.458-37.895c2.34-8.32 9.62-13.39 17.225-15.99l-2.145-4.615c-13.455 3.9-23.205 12.935-23.205 29.38 0 10.79 5.59 17.42 14.755 17.42 8.645 0 14.82-5.46 14.82-14.82 0-8.71-5.395-14.365-12.935-14.365a11.652 11.652 0 00-8.32 3.055zm-1.495 8.58a9.144 9.144 0 018.125-5.915c4.615 0 7.93 2.925 7.93 8.71s-3.315 9.165-7.93 9.165c-4.875 0-8.125-4.745-8.125-11.96m-49.143 24.31a16.002 16.002 0 01-9.685-3.38l-3.055 5.2a22.825 22.825 0 0013.195 3.835c8.255 0 15.405-5.135 15.405-15.145 0-10.335-6.5-15.145-15.145-15.145a23.616 23.616 0 00-4.16.39v-10.595H89.51l1.3-5.655H66.5v23.465a24.013 24.013 0 019.555-1.95c5.33 0 9.555 2.99 9.555 9.49 0 6.11-4.03 9.49-8.97 9.49m1766.33-126.634l-17.42 28.145v5.005h18.785v12.35h6.695v-12.35h6.045l1.3-5.655h-7.345v-8.125h-6.695v8.125h-10.79v-.26l17.03-27.235zm-44.568 31.72c0-8.125-5.07-12.545-11.96-13.52v-.26l9.945-12.935v-5.005h-24.44l-1.3 5.655h18.005v.26l-10.4 13.52v3.445h3.445c5.46 0 9.815 2.535 9.815 8.84 0 6.045-4.03 8.775-8.97 8.775a16.002 16.002 0 01-9.685-3.38l-3.055 5.2a22.824 22.824 0 0013.194 3.835c8.256 0 15.406-4.42 15.406-14.43m-70.894-26.715c4.095 0 6.305 1.69 6.305 5.2 0 7.28-10.92 14.105-20.41 17.94v5.005h27.3l1.3-5.655h-15.6v-.26c7.28-3.055 14.3-9.75 14.3-17.03 0-6.63-4.095-10.855-13.195-10.855a31.096 31.096 0 00-13.325 3.12l2.535 5.395a25.263 25.263 0 0110.79-2.86m-68.553-5.005l-1.301 5.655h10.986v21.84h-11.961v5.655h29.25v-5.655h-10.594v-27.495zm-29.424 16.575c0-11.57-6.175-17.225-15.925-17.225s-15.925 5.655-15.925 17.225 6.24 17.225 15.925 17.225 15.925-5.655 15.925-17.225m-24.96 0c0-7.605 3.77-11.57 8.97-11.57 5.33 0 9.1 3.965 9.1 11.57s-3.77 11.57-9.1 11.57c-5.2 0-8.97-3.965-8.97-11.57m4.745 0a4.29 4.29 0 104.29-4.29 4.328 4.328 0 00-4.29 4.29m-36.833 0c0-11.57-6.175-17.225-15.925-17.225s-15.925 5.655-15.925 17.225 6.24 17.225 15.925 17.225 15.925-5.655 15.925-17.225m-24.96 0c0-7.605 3.77-11.57 8.97-11.57 5.33 0 9.1 3.965 9.1 11.57s-3.77 11.57-9.1 11.57c-5.2 0-8.97-3.965-8.97-11.57m-41.45-3.315c-2.144 7.865-9.23 12.285-16.964 15.21l2.47 5.33c13.455-3.9 22.555-13.845 22.555-30.095 0-10.53-5.59-16.705-14.755-16.705-8.515 0-14.82 5.72-14.82 14.625 0 9.165 5.33 14.3 13.065 14.3 3.315 0 6.175-.845 8.255-2.795zm1.17-8.905a8.778 8.778 0 01-7.864 5.655c-4.42 0-7.8-2.99-7.8-8.385s3.38-8.385 7.8-8.385c5.005 0 7.865 4.615 7.865 11.115m-64.783 29.445c8.905 0 14.625-4.81 14.625-13 0-5.135-3.12-9.1-7.54-11.375v-.195a11.599 11.599 0 006.11-10.4c0-7.28-4.94-11.83-13.195-11.83s-13.195 4.55-13.195 11.83a11.494 11.494 0 006.11 10.335v.195c-4.42 2.275-7.54 6.305-7.54 11.44 0 8.19 5.72 13 14.625 13m-6.435-34.97c0-3.51 2.73-5.59 6.435-5.59 3.705 0 6.435 2.08 6.435 5.59 0 3.315-1.69 5.98-4.68 8.06l-2.08-.845c-3.315-1.365-6.11-3.315-6.11-7.215m7.02 14.17c3.835 1.625 7.28 3.9 7.28 7.8 0 4.485-3.315 6.76-7.865 6.76-4.55 0-7.865-2.015-7.865-6.76 0-3.705 1.95-6.76 5.72-8.97zm-66.28 20.15h7.41l15.86-39.91v-5.59h-28.274l-1.3 6.24h22.36zM1321.8 510.16c2.405-8.255 10.14-13 17.615-15.665l-2.405-5.2c-13.455 3.9-23.27 13.975-23.27 29.705 0 10.205 5.59 17.095 14.755 17.095 8.45 0 14.82-5.33 14.82-14.625 0-9.555-5.72-14.3-13.065-14.3a11.89 11.89 0 00-8.255 3.12zm-1.17 8.84a8.712 8.712 0 017.865-5.59c4.42 0 7.735 2.665 7.735 8.06s-3.315 8.385-7.735 8.385c-5.005 0-7.865-4.355-7.865-10.855m-50.874 10.855a15.708 15.708 0 01-9.425-3.055l-3.315 5.46a22.825 22.825 0 0013.195 3.835c8.255 0 15.405-5.265 15.405-15.275 0-10.335-6.825-15.275-15.145-15.275a22.216 22.216 0 00-4.03.39v-9.75h16.185l1.3-6.24h-24.31v23.53a22.98 22.98 0 019.425-1.95c5.135 0 9.49 3.185 9.49 9.295s-4.03 9.035-8.775 9.035m-54.968-39.91l-16.77 29.315v5.525h18.525v10.66h6.825v-10.66h6.175l1.3-6.175h-7.475v-8.255h-6.825v8.255h-10.335v-.26l16.25-28.405zm-55.229 18.135v-.195l9.295-12.35v-5.59h-23.79l-1.3 6.24h17.355v.26l-9.75 13.065v3.51h3.38c5.135 0 9.035 2.405 9.035 8.45 0 5.785-3.77 8.385-8.775 8.385a15.708 15.708 0 01-9.425-3.055l-3.315 5.46a22.825 22.825 0 0013.195 3.835c8.255 0 15.405-4.68 15.405-14.69 0-8.775-5.2-12.285-11.31-13.325m-63.613 20.865c7.93-6.305 17.225-17.16 17.225-27.17 0-7.93-4.615-12.48-12.61-12.48-5.33 0-8.71 1.04-13.91 3.835l3.12 5.46a17.705 17.705 0 019.555-3.055c4.615 0 6.76 2.73 6.76 7.085 0 8.71-11.31 20.54-20.215 27.235v5.59h27.3l1.3-6.24h-18.525zm-64.524-39l-1.3 6.24h10.92v33.02h-11.895v6.24h29.25v-6.24h-10.53v-39.26zm-29.423 22.75c0-15.405-5.915-23.4-15.925-23.4-10.01 0-15.925 7.995-15.925 23.4s5.915 23.4 15.925 23.4c10.01 0 15.925-7.995 15.925-23.4m-24.765 0c0-12.09 3.64-17.16 8.84-17.16 5.2 0 8.84 5.07 8.84 17.16s-3.64 17.16-8.84 17.16c-5.2 0-8.84-5.07-8.84-17.16m4.55 0a4.29 4.29 0 104.29-4.29 4.328 4.328 0 00-4.29 4.29m-36.833 0c0-15.405-5.915-23.4-15.925-23.4s-15.925 7.995-15.925 23.4 5.915 23.4 15.925 23.4 15.925-7.995 15.925-23.4m-24.766 0c0-12.09 3.641-17.16 8.841-17.16s8.84 5.07 8.84 17.16-3.64 17.16-8.84 17.16-8.84-5.07-8.84-17.16m-35.208-10.4h-6.76v27.495h-12.545v-27.495h-6.76v33.15h9.62l1.3 8.58h4.16l1.3-8.58h9.685zm-63.224 33.15h6.76v-15.99c0-8.71-3.38-13.065-10.79-13.065a11.887 11.887 0 00-8.84 4.16h-.26v-10.79h10.79l1.17-5.2h-11.96v-7.865l-6.76 1.3v6.565h-5.2v5.2h5.2v35.685h6.76v-18.85c1.755-2.405 4.745-4.55 7.345-4.55 3.9 0 5.785 2.665 5.785 8.125zm-60.168-15.405c3.445 0 5.59 1.82 5.59 4.875s-2.145 4.875-5.59 4.875h-5.85v-9.75zm-5.85-5.655v-12.09h-6.76v13.26H735.91v-13.26h-6.76v33.15h6.76V521.21h13.065v14.235h13.26c7.15 0 11.83-3.77 11.83-10.465s-4.68-10.595-11.83-10.595zm-66.863 5.655c3.445 0 5.59 1.82 5.59 4.875s-2.145 4.875-5.59 4.875h-5.85v-9.75zm-21.58-12.09h8.97v27.495h13.26c7.15 0 11.83-3.77 11.83-10.465s-4.68-10.595-11.83-10.595h-6.5v-12.09h-22.165v5.525c0 15.73-1.69 22.035-4.745 22.035a4.127 4.127 0 01-2.21-.65l-1.56 5.395a7.275 7.275 0 004.29 1.17c7.475 0 10.66-8.71 10.66-26.39zm-48.728-15.275a4.023 4.023 0 004.095 4.03 4.08 4.08 0 004.16-4.03 4.134 4.134 0 00-4.16-4.095 4.078 4.078 0 00-4.095 4.095m.78 47.645c0 2.405-1.17 3.77-3.12 3.77a9.884 9.884 0 01-4.16-1.105l-1.82 5.005a14.46 14.46 0 006.89 1.755c4.81 0 8.97-2.145 8.97-9.425v-38.025H614.47l-1.3 5.655h6.175zm-37.679-47.645a3.76 3.76 0 003.77 4.03 3.81 3.81 0 003.835-4.03 3.865 3.865 0 00-3.835-4.095 3.815 3.815 0 00-3.77 4.095m-9.62 0a3.76 3.76 0 003.77 4.03 3.81 3.81 0 003.835-4.03 3.865 3.865 0 00-3.835-4.095 3.815 3.815 0 00-3.77 4.095m6.565 15.275v27.495h6.76v-33.15h-11.375l-1.3 5.655zm-37.418-15.275a3.76 3.76 0 003.77 4.03 3.81 3.81 0 003.835-4.03 3.865 3.865 0 00-3.835-4.095 3.815 3.815 0 00-3.77 4.095m-9.62 0a3.76 3.76 0 003.77 4.03 3.81 3.81 0 003.835-4.03 3.865 3.865 0 00-3.835-4.095 3.815 3.815 0 00-3.77 4.095m6.565 15.275v27.495h6.76v-33.15h-11.375l-1.3 5.655zm-40.993-15.275a4.023 4.023 0 004.095 4.03 4.08 4.08 0 004.16-4.03 4.134 4.134 0 00-4.16-4.095 4.078 4.078 0 00-4.095 4.095m.78 15.275v27.495h6.76v-33.15H493.05l-1.3 5.655zm-41.253-15.275a4.023 4.023 0 004.095 4.03 4.08 4.08 0 004.16-4.03 4.134 4.134 0 00-4.16-4.095 4.078 4.078 0 00-4.095 4.095m.78 15.275v27.495h6.76v-33.15h-11.635l-1.3 5.655zm-47.623 2.99c0-2.275 1.69-3.64 5.265-3.64a21.16 21.16 0 017.67 1.69l2.21-5.07a24.468 24.468 0 00-10.335-2.275c-6.955 0-11.57 3.12-11.57 8.97 0 6.435 4.94 8.97 8.905 10.14 3.705 1.105 7.02 2.275 7.02 5.655 0 2.47-1.82 4.03-5.655 4.03a21.46 21.46 0 01-8.71-1.95l-2.275 5.33a27.668 27.668 0 0011.18 2.275c7.475 0 12.22-3.965 12.22-10.01 0-6.11-5.46-8.97-10.27-10.335-3.575-1.04-5.655-2.015-5.655-4.81m-43.268 25.155a22.853 22.853 0 009.62-1.95l-2.08-5.2a19.481 19.481 0 01-7.54 1.495c-4.94 0-7.93-3.575-8.645-9.1h12.935v-5.525h-12.87c.845-5.2 3.835-8.515 8.58-8.515a18.934 18.934 0 017.215 1.365l2.08-5.2a24.646 24.646 0 00-9.295-1.82c-10.725 0-15.665 7.67-15.665 17.225s4.94 17.225 15.665 17.225m-64.003-25.545v-10.79h10.79l1.17-5.2h-11.96v-7.865l-6.76 1.3v6.565h-5.2v5.2h5.2v35.685h6.76v-18.85c1.755-2.405 4.745-4.55 7.345-4.55 3.9 0 5.785 2.665 5.785 8.125v20.15c0 2.405-1.17 3.77-3.12 3.77a9.312 9.312 0 01-4.03-1.105l-1.82 5.005a13.952 13.952 0 006.76 1.755c4.81 0 8.97-2.925 8.97-10.66v-19.63c0-8.71-3.38-13.065-10.79-13.065a11.887 11.887 0 00-8.84 4.16zm-55.488 2.405c0-2.925 2.015-5.005 5.265-5.005h5.655v9.88h-5.655c-3.25 0-5.265-1.95-5.265-4.875m-9.1 22.49h7.735l7.15-12.025h5.135v12.025h6.76v-33.15h-13.065c-7.15 0-11.505 4.095-11.505 10.53 0 4.745 2.21 8.125 6.11 9.685zM197.301 507.3c5.07 0 7.93 4.29 7.93 11.57s-2.86 11.57-7.93 11.57-7.93-4.29-7.93-11.57 2.86-11.57 7.93-11.57m0 28.795c9.23 0 14.82-6.435 14.82-17.225s-5.59-17.225-14.82-17.225c-8.255 0-13.585 5.135-14.625 13.91h-6.045v-13.26h-6.76v33.15h6.76V521.21h5.915c.78 9.36 6.175 14.885 14.755 14.885m-76.483-14.755h12.87c-.65 5.525-3.705 9.1-8.58 9.1a19.48 19.48 0 01-7.54-1.495l-2.08 5.2a22.853 22.853 0 009.62 1.95c10.725 0 15.665-7.67 15.665-17.225s-4.94-17.225-15.665-17.225a24.646 24.646 0 00-9.295 1.82l2.08 5.2a18.934 18.934 0 017.215-1.365c4.68 0 7.735 3.315 8.515 8.515h-12.805zm-43.008-1.3c3.445 0 5.59 1.82 5.59 4.875s-2.145 4.875-5.59 4.875h-5.85v-9.75zm-5.85-5.655v-12.09H65.2v33.15h13.26c7.15 0 11.83-3.77 11.83-10.465s-4.68-10.595-11.83-10.595zM1830.686 433.9c3.445 0 5.59 1.82 5.59 4.876s-2.145 4.875-5.59 4.875h-5.265v-9.75zm24.115-17.744h-6.76v33.15h6.76zm-29.38 0h-6.76v33.15h12.675c7.15 0 11.83-3.77 11.83-10.465s-4.68-10.595-11.83-10.595h-5.915zm-46.504 17.745c3.445 0 5.59 1.82 5.59 4.875s-2.145 4.875-5.59 4.875h-5.98v-9.75zm-12.74 15.405h13.39c7.15 0 11.83-3.77 11.83-10.465s-4.68-10.595-11.83-10.595h-6.63v-12.09h-13.78l-1.3 5.655h8.32zm-52.157-33.15h-6.695v27.495h-10.14v-27.495h-6.76v33.15h38.935v8.255h5.46l1.3-13.91h-5.265v-27.495h-6.76v27.495h-10.075zm-54.108 0h-6.761v27.495h-10.074v-27.495h-6.696v27.495h-10.14v-27.495h-6.76v33.15h40.43zm-85.05 20.995a21.448 21.448 0 007.347-1.365v13.52h6.76v-33.15h-6.76v14.17a17.885 17.885 0 01-6.306 1.17c-3.25 0-5.72-1.69-5.72-5.655v-9.685h-6.76v10.27c0 7.28 4.875 10.725 11.44 10.725m-35.777 6.5h-5.265v-27.495h-6.76v27.495h-12.48v-27.495h-6.76v33.15h24.505v8.255h5.46zm-64.898 6.305l7.02-.65-11.441-17.03 10.79-16.12h-7.604l-7.086 11.505h-.195l-7.15-11.505h-7.54l10.856 16.12-11.505 17.03h7.475l7.864-12.09h.195zm-66.198-28.47a12.537 12.537 0 012.925-.325c5.59 0 7.93 4.68 7.93 11.57 0 6.89-2.34 11.57-7.93 11.57a12.537 12.537 0 01-2.925-.325zm.13 28.145a25.557 25.557 0 003.835.325c10.075 0 13.715-7.67 13.715-17.225s-3.64-17.225-13.715-17.225a25.55 25.55 0 00-3.835.325v-15.275l-6.76 1.3v13.975a25.55 25.55 0 00-3.835-.325c-10.075 0-13.715 7.67-13.715 17.225s3.64 17.225 13.715 17.225a25.557 25.557 0 003.835-.325v13.975l6.76-1.3zm-6.63-5.655a12.97 12.97 0 01-2.925.325c-5.59 0-7.93-4.68-7.93-11.57 0-6.89 2.34-11.57 7.93-11.57a12.539 12.539 0 012.925.325z"/><path class="cls-4" d="M1346.081 462.956l15.015-46.8h-7.28l-7.67 25.415h-.26l-8.58-25.415h-7.41l11.506 33.15h2.21l-4.29 13.65zm6.11-60.775c-1.43 2.795-3.64 4.225-6.37 4.225a7.147 7.147 0 01-6.435-4.225l-4.29 2.86a12.468 12.468 0 0021.45 0z"/><path class="cls-2" d="M1301.984 402.18c-1.43 2.796-3.64 4.226-6.37 4.226a7.147 7.147 0 01-6.435-4.225l-4.29 2.86a12.468 12.468 0 0021.45 0zm-19.24 60.19a14.944 14.944 0 005.72 1.236c3.575 0 7.475-1.56 9.555-7.93l12.74-39.52h-7.28l-7.67 25.415h-.26l-8.58-25.415h-7.41l11.635 33.15h2.405l-1.43 4.81c-.91 3.12-2.6 3.835-4.095 3.835a9.642 9.642 0 01-3.575-.845z"/></g><path class="cls-4" d="M1243.781 462.956l15.015-46.8h-7.28l-7.67 25.415h-.26l-8.58-25.415h-7.41l11.505 33.15h2.21l-4.29 13.65h6.76z"/><g class="cls-3"><path class="cls-2" d="M1178.818 462.37a14.944 14.944 0 005.72 1.236c3.575 0 7.475-1.56 9.555-7.93l12.74-39.52h-7.28l-7.67 25.415h-.26l-8.58-25.415h-7.41l11.635 33.15h2.405l-1.43 4.81c-.91 3.12-2.6 3.835-4.095 3.835a9.642 9.642 0 01-3.575-.845zm-52.678-40.56h10.53v27.496h6.695V421.81h9.555l1.3-5.655h-28.08zm-32.463 22.49c-5.59 0-9.295-4.68-9.295-11.57 0-6.89 3.77-11.57 9.36-11.57a16.97 16.97 0 016.63 1.3l2.08-5.2a23.88 23.88 0 00-9.1-1.754c-10.725 0-15.86 7.67-15.86 17.225s5.46 17.225 16.185 17.225a21.913 21.913 0 009.1-1.885l-2.08-5.2a19.078 19.078 0 01-7.02 1.43m-57.878 0a12.086 12.086 0 01-7.345-2.34v-16.705c2.015-2.47 4.355-4.095 7.085-4.095 5.72 0 8.45 4.745 8.45 11.57 0 7.345-3.055 11.57-8.19 11.57m-7.345 3.9a19.557 19.557 0 008.45 1.755c9.88 0 13.975-7.345 13.975-17.225s-4.03-17.225-13.39-17.225a11.75 11.75 0 00-9.425 4.16h-.26l-1.3-3.51h-4.81v47.45l6.76-1.3zm-37.273-32.045h-26.065v33.15h6.76V421.81h12.545v27.495h6.76zm-69.902 33.8c9.23 0 15.274-6.435 15.274-17.225s-6.044-17.225-15.274-17.225-15.276 6.435-15.276 17.225 6.045 17.225 15.276 17.225m0-28.795c5.07 0 8.384 4.29 8.384 11.57s-3.314 11.57-8.384 11.57-8.385-4.29-8.385-11.57 3.315-11.57 8.385-11.57m-43.838-5.005h-6.76v13.26h-13.065v-13.26h-6.76v33.15h6.76V435.07h13.065v14.235h6.76z"/></g><path class="cls-4" d="M813.323 426.361h.26v22.945h6.76v-33.15h-8.125l-8.515 19.37h-.195l-8.58-19.37h-8.125v33.15h6.76v-22.945h.26l7.085 16.25h5.395l7.02-16.25z"/><g class="cls-3"><path class="cls-2" d="M749.4 425.84h.26l1.885 23.466h6.695l-3.185-33.15h-7.735l-7.8 21.19h-.26l-7.8-21.19h-7.735l-3.185 33.15h6.695l1.885-23.465h.26l6.5 18.07h7.02zm-88.102 22.62a7.275 7.275 0 004.29 1.17c7.475 0 10.66-8.71 10.66-26.39v-1.43h8.97v27.496h6.76v-33.15h-22.165v5.525c0 15.73-1.69 22.035-4.745 22.035a4.127 4.127 0 01-2.21-.65zm-39.808-37.05h4.42l7.28-7.604-6.435-2.275zm17.42 4.746h-7.02l-8.71 13.39h-3.705v-13.39h-6.76v33.15h6.76V434.94h3.64l9.555 15.015 6.89-.65-10.985-17.16zm-52.808 0h-7.02l-8.71 13.39h-3.705v-13.39h-6.76v33.15h6.76V434.94h3.64l9.555 15.015 6.89-.65-10.985-17.16zm-64.508-13.975c-1.43 2.795-3.64 4.225-6.37 4.225a7.147 7.147 0 01-6.435-4.225l-4.29 2.86a12.468 12.468 0 0021.45 0zM507.1 449.306l15.275-22.1h.26v22.1h6.76v-33.15h-6.045l-15.275 22.1h-.26v-22.1h-6.76v33.15zm-58.853 0l15.275-22.1h.26v22.1h6.76v-33.15h-6.045l-15.275 22.1h-.26v-22.1h-6.76v33.15zm-35.712-24.7c0-5.85-4.355-9.1-12.285-9.1a33.94 33.94 0 00-10.985 1.885l2.08 5.2a27.167 27.167 0 018.71-1.43c3.12 0 5.59 1.43 5.59 4.29 0 2.925-2.6 4.16-5.72 4.16h-3.965v5.395h4.485c4.875 0 6.63 1.755 6.63 4.615 0 2.73-2.99 4.68-7.215 4.68a26.764 26.764 0 01-8.84-1.56l-2.08 5.2a30.544 30.544 0 0011.115 2.015c9.295 0 13.91-3.965 13.91-10.205 0-4.81-3.9-7.15-7.085-7.865v-.195a7.415 7.415 0 005.655-7.085m-47.933-8.45h-6.955l-8.775 13.39h-2.275v-13.39h-6.565v13.39h-2.275l-8.775-13.39h-6.955l10.66 15.99-11.31 17.16h7.735l8.905-14.365h2.015v14.365h6.565V434.94h2.015l9.36 15.015 7.28-.65-11.31-17.16zm-78.678-9.62a4.023 4.023 0 004.095 4.03 4.08 4.08 0 004.16-4.03 4.134 4.134 0 00-4.16-4.095 4.078 4.078 0 00-4.095 4.095m-13.845 0a4.023 4.023 0 004.095 4.03 4.08 4.08 0 004.16-4.03 4.134 4.134 0 00-4.16-4.095 4.078 4.078 0 00-4.095 4.095m11.44 14.625c5.005 0 7.475 3.315 7.475 7.865h-15.34c.585-4.68 3.38-7.865 7.865-7.865m13.52 7.67c0-8.125-4.745-13.325-13.65-13.325-8.97 0-14.95 6.305-14.95 17.225 0 10.855 6.37 17.225 16.12 17.225a24.238 24.238 0 0011.115-2.795l-2.21-5.135a18.402 18.402 0 01-8.255 2.275c-5.98 0-9.36-3.575-9.815-10.01h21.06a27.935 27.935 0 00.585-5.46m-68.733-7.67c5.005 0 7.475 3.315 7.475 7.865h-15.34c.585-4.68 3.38-7.865 7.865-7.865m13.52 7.67c0-8.125-4.745-13.325-13.65-13.325-8.97 0-14.95 6.305-14.95 17.225 0 10.855 6.37 17.225 16.12 17.225a24.238 24.238 0 0011.115-2.795l-2.21-5.135a18.402 18.402 0 01-8.255 2.275c-5.98 0-9.36-3.575-9.815-10.01h21.06a27.935 27.935 0 00.585-5.46m-88.883 14.82l1.3 13.91h5.46v-8.255h22.425v8.255h5.46l1.3-13.91h-5.265v-27.495h-21.775v3.64c0 11.57-.91 17.81-4.485 23.855zm15.665-21.84h8.255v21.84h-12.285c2.6-4.745 4.03-13.195 4.03-20.865zm-57.099-5.655v33.15h6.76V421.81h13.91v-14.235h-4.81l-1.3 8.58zm-40.133-4.745h4.42l7.28-7.605-6.435-2.275zm-6.175 4.745v33.15h6.76V421.81h12.61l1.3-5.655zm1773.804-86.139v33.15h6.76v-27.495h12.61l1.3-5.655zm-42.61 5.655c2.86 0 4.94.845 4.94 3.77 0 2.795-2.34 3.77-5.395 3.77h-5.33v-7.54zm.13 13.195c3.9 0 6.175 1.43 6.175 4.355s-2.08 4.29-5.525 4.29h-6.565v-8.645zm6.045-3.12v-.195a7.415 7.415 0 005.655-7.085c0-5.98-4.355-8.45-10.985-8.45h-13.39v33.15h14.43c7.54 0 11.31-3.575 11.31-9.555 0-4.81-3.835-7.15-7.02-7.865m-50.021-25.935l-2.015-5.395a33.557 33.557 0 01-10.79 2.405c-10.725.975-16.575 4.81-16.575 25.74 0 13.26 4.55 21.255 15.275 21.255 9.23 0 15.665-5.59 15.665-16.38 0-11.05-5.59-16.445-13.715-16.445a13.644 13.644 0 00-10.53 4.29h-.195c0-9.49 3.51-12.025 10.725-12.545a34.058 34.058 0 0012.155-2.925m-22.62 22.49c2.47-3.965 5.98-5.655 9.295-5.655 4.615 0 7.995 3.575 7.995 10.79 0 7.215-3.705 10.725-8.775 10.725-5.85 0-8.515-5.265-8.515-15.86"/><path class="cls-4" d="M1687.838 359.657a5.134 5.134 0 005.265 3.835 11.95 11.95 0 003.9-.65v-5.005h-.715a2.094 2.094 0 01-2.34-2.34v-23.53a33.5 33.5 0 00-13.13-2.6c-11.05 0-15.34 7.345-15.34 17.225s3.64 17.225 13 17.225a11.08 11.08 0 009.1-4.16zm-8.19-1.495c-5.46 0-7.28-4.745-7.28-11.57s2.47-11.57 8.45-11.57a13.945 13.945 0 016.37 1.365v17.03c-1.885 2.99-4.355 4.745-7.54 4.745"/><path class="cls-2" d="M1622.802 343.667c-7.345 0-12.545 3.64-12.545 9.945 0 6.76 3.965 9.88 10.27 9.88a12.111 12.111 0 009.36-3.835h.26a5.134 5.134 0 005.265 3.835 11.949 11.949 0 003.9-.65v-5.005h-.715a2.094 2.094 0 01-2.34-2.34v-13.91c0-6.89-2.405-12.22-12.545-12.22a32.463 32.463 0 00-11.7 2.145l1.95 5.265a26.167 26.167 0 018.97-1.755c4.875 0 6.565 2.47 6.565 6.435v2.21zm6.695 5.265v5.135a9.646 9.646 0 01-7.67 4.095c-2.664 0-4.875-1.43-4.875-4.42s2.34-4.81 5.59-4.81zm-81.804-31.265v45.5h12.87l1.3 10.27h4.419l1.3-10.27h12.936v-45.5h-7.02v39.26h-18.785v-39.26zm-45.536 22.88c4.485 0 7.15 2.665 7.15 8.125v14.495h7.02v-15.795c0-8.71-4.81-13.065-12.545-13.065a18.5 18.5 0 00-10.27 3.25v-13.65h12.284l1.3-6.24h-34.124v6.24h13.52v39.26h7.02v-18.72c2.47-2.21 5.655-3.9 8.645-3.9m-69.586 1.04c6.305 0 8.905 3.055 8.905 7.67 0 4.355-2.665 7.67-8.84 7.67h-7.02v-15.34zm-32.955-23.92h-7.02v45.5h7.02v-20.41h18.98v20.41h14.43c9.49 0 15.73-4.615 15.73-13.91s-6.305-13.91-15.73-13.91h-7.41v-17.68h-7.02v18.85h-18.98zm-58.926 39.26v-15.34h6.955c6.305 0 8.905 3.055 8.905 7.67 0 4.355-2.664 7.67-8.84 7.67zm-25.74-39.26c0 28.015-1.885 39.455-7.085 39.455a4.111 4.111 0 01-1.95-.455l-1.3 5.915a9.814 9.814 0 004.29.91c9.88 0 13.065-12.74 13.065-39.585h11.7v39.26h14.43c9.49 0 15.73-4.615 15.73-13.91s-6.305-13.91-15.73-13.91h-7.41v-17.68zm-49.565 39.91a15.194 15.194 0 01-6.825-1.755l-2.535 5.59a20.926 20.926 0 0010.205 2.405c7.28 0 12.22-4.745 12.22-13v-33.15h-17.225l-1.3 6.24h11.505v26.91c0 4.29-2.47 6.76-6.044 6.76"/><path class="cls-4" d="M1227.585 317.667h-7.02v45.5h7.02zm-1.17-6.76a3.832 3.832 0 003.965 3.835 3.887 3.887 0 004.03-3.835 3.94 3.94 0 00-4.03-3.9 3.885 3.885 0 00-3.965 3.9m-12.675 0a3.831 3.831 0 003.965 3.835 3.887 3.887 0 004.03-3.835 3.94 3.94 0 00-4.03-3.9 3.885 3.885 0 00-3.965 3.9"/><path class="cls-2" d="M1181.074 310.907a3.831 3.831 0 003.965 3.835 3.887 3.887 0 004.03-3.835 3.94 3.94 0 00-4.03-3.9 3.885 3.885 0 00-3.965 3.9m-13.845 0a3.832 3.832 0 003.965 3.835 3.887 3.887 0 004.03-3.835 3.94 3.94 0 00-4.03-3.9 3.885 3.885 0 00-3.965 3.9m21.97 52.26v-6.24h-7.475v-33.02h6.5l1.3-6.24h-22.295v6.24h7.475v33.02h-7.475v6.24z"/></g><path class="cls-4" d="M1128.843 317.667h7.02v45.5h-7.02z"/><g class="cls-3"><path class="cls-2" d="M1097.478 363.167v-6.24h-7.475v-33.02h6.5l1.3-6.24h-22.295v6.24h7.475v33.02h-7.475v6.24zm-65.946-5.59a16.934 16.934 0 01-10.659-3.51l-3.706 5.72a24.827 24.827 0 0014.365 4.03c10.206 0 15.86-4.745 15.86-12.805 0-8.45-6.305-11.57-13.454-14.365-3.966-1.56-8.45-3.965-8.45-7.67s2.534-5.72 7.474-5.72a17.385 17.385 0 019.685 2.795l3.315-5.525a25.776 25.776 0 00-13-3.51c-9.23 0-14.755 4.55-14.755 12.35 0 7.54 6.695 10.855 12.545 13.13 5.006 1.95 9.361 4.42 9.361 8.905 0 4.225-3.51 6.175-8.581 6.175m-53.985 0c-7.345 0-11.7-6.5-12.415-14.69h16.835v-6.24h-16.64c1.04-7.54 5.265-13.39 12.22-13.39a18.52 18.52 0 018.84 2.21l2.73-5.525a24.413 24.413 0 00-12.155-2.925c-12.87 0-19.175 10.14-19.175 23.4s6.435 23.4 19.305 23.4a23.483 23.483 0 0012.61-3.51l-2.73-5.525a17.874 17.874 0 01-9.425 2.795m-68.871 5.59a36.4 36.4 0 005.265.65c10.985 0 15.08-6.24 15.08-14.69 0-10.01-6.305-14.69-14.04-14.69a27.646 27.646 0 00-9.36 1.495v-12.025h12.285l1.3-6.24h-34.125v6.24h13.52v39.26h7.02v-20.735a21.215 21.215 0 017.995-1.755c4.94 0 8.125 2.535 8.125 8.45 0 5.59-2.015 8.45-7.735 8.45a21.53 21.53 0 01-4.03-.585zm-65.296-23.4c-4.16 0-7.215-3.12-7.215-7.93s3.055-7.93 7.215-7.93h6.565v15.86zm-16.315 23.4h7.995l9.75-17.16h5.135v17.16h7.02v-45.5h-13.91c-7.865 0-14.17 5.07-14.17 14.17 0 6.89 3.575 11.505 8.775 13.325zm-56.585-22.75c0-9.295 3.835-17.16 11.44-17.16s11.375 7.865 11.375 17.16-3.77 17.16-11.375 17.16-11.44-7.865-11.44-17.16m30.095 0c0-13.26-5.785-23.4-18.655-23.4-11.635 0-17.55 8.255-18.59 19.63h-8.06v-18.98h-7.02v45.5h7.02v-20.28h7.995c.65 12.025 6.565 20.93 18.655 20.93 12.87 0 18.655-10.14 18.655-23.4m-102.801-17.16c7.54 0 11.375 5.915 12.155 13.91h-16.575v6.24h16.575c-.715 8.19-4.55 14.17-12.155 14.17a17.874 17.874 0 01-9.425-2.795l-2.73 5.525a23.483 23.483 0 0012.61 3.51c12.87 0 19.305-10.14 19.305-23.4s-6.305-23.4-19.175-23.4a24.413 24.413 0 00-12.155 2.925l2.73 5.525a18.521 18.521 0 018.84-2.21m-54.506 18.33c6.305 0 8.905 3.055 8.905 7.67 0 4.355-2.665 7.67-8.84 7.67h-7.02v-15.34zm-13.975-23.92v45.5h14.43c9.49 0 15.73-4.615 15.73-13.91s-6.305-13.91-15.73-13.91h-7.41v-17.68zm-60.681 23.92c6.305 0 8.905 3.055 8.905 7.67 0 4.355-2.665 7.67-8.84 7.67h-5.98v-15.34zm20.995 21.58h7.02v-45.5h-7.02zm-33.93-45.5v45.5h13.39c9.49 0 15.73-4.615 15.73-13.91s-6.305-13.91-15.73-13.91h-6.37v-17.68zm-44.95 23.92c6.305 0 8.905 3.055 8.905 7.67 0 4.355-2.665 7.67-8.84 7.67h-7.02v-15.34zm-6.955-23.92h-17.095l-1.3 6.24h11.375v39.26h14.43c9.49 0 15.73-4.615 15.73-13.91s-6.305-13.91-15.73-13.91h-7.41zm-46.706 45.5v9.555h5.72l1.3-15.795h-6.5v-39.26h-7.02v39.26h-13.195v-39.26h-7.02v39.26h-13.195v-39.26h-7.02v45.5zm-120.025-45.5h-7.02v45.5h47.45v-45.5h-7.02v39.26h-13.195v-39.26h-7.02v39.26h-13.195zm-69.715 15.47c0 9.23 4.42 12.675 14.04 12.675a25.262 25.262 0 008.97-1.95v19.305h7.02v-45.5h-7.02v20.02a20.465 20.465 0 01-8.32 1.885c-4.745 0-7.67-1.885-7.67-7.41v-14.495h-7.02zm-34.161 30.03v9.555h5.72l1.3-15.795h-6.5v-39.26h-7.02v39.26H208.01v-39.26h-7.02v45.5zm-78.75-28.795l-8.905-16.705h-8.32l12.74 21.905-14.04 23.595h8.32l10.205-18.07h.26l10.53 18.72 7.995-.65-14.04-23.595 12.74-21.905h-8.32l-8.905 16.705zm-59.64 18.395a14.276 14.276 0 01-4.355-.52v-24.31a14.276 14.276 0 014.355-.52c6.435 0 9.36 5.59 9.36 12.675 0 7.085-2.925 12.675-9.36 12.675m-15.6 0c-6.435 0-9.36-5.59-9.36-12.675 0-7.085 2.925-12.675 9.36-12.675a14.276 14.276 0 014.355.52v24.31a14.276 14.276 0 01-4.355.52m11.245 11.7v-6.24a21.345 21.345 0 005.33.65c10.79 0 15.6-8.125 15.6-18.72 0-10.725-4.81-18.85-15.6-18.85a21.345 21.345 0 00-5.33.65v-6.24h-6.89v6.24a21.746 21.746 0 00-5.33-.65c-10.79 0-15.6 8.125-15.6 18.85 0 10.595 4.81 18.72 15.6 18.72a21.746 21.746 0 005.33-.65v6.24z"/><path class="cls-4" d="M1838.68 263.443h1.885l-5.135 13.585h7.41l17.16-45.5h-7.735l-8.97 24.765h-.26l-11.31-24.765h-8.19zm10.66-43.225a7.116 7.116 0 01-6.76 4.485 7.339 7.339 0 01-6.76-4.485l-4.615 3.25c2.47 4.095 6.435 6.11 11.375 6.11s8.775-1.885 11.375-6.11z"/><path class="cls-2" d="M1790.394 220.218a7.116 7.116 0 01-6.76 4.485 7.339 7.339 0 01-6.76-4.485l-4.615 3.25c2.47 4.095 6.435 6.11 11.375 6.11s8.775-1.885 11.375-6.11zm-20.8 55.185a11.297 11.297 0 007.15 2.275c6.24 0 9.49-5.07 11.505-10.4l13.455-35.75h-7.8l-8.905 25.09h-.26l-11.31-25.09h-8.19l15.145 32.24h1.95l-.845 2.145c-1.43 3.64-2.73 5.525-4.81 5.525a5.91 5.91 0 01-3.9-1.43z"/></g><path class="cls-4" d="M1722.087 263.443h1.885l-5.135 13.585h7.41l17.16-45.5h-7.735l-8.97 24.765h-.26l-11.31-24.765h-8.19l15.145 31.915z"/><g class="cls-3"><path class="cls-2" d="M1653 275.403a11.301 11.301 0 007.151 2.275c6.24 0 9.49-5.07 11.505-10.4l13.455-35.75h-7.8l-8.905 25.09h-.26l-11.31-25.09h-8.19l15.145 32.24h1.95l-.845 2.145c-1.43 3.64-2.73 5.525-4.81 5.525a5.91 5.91 0 01-3.9-1.43zm-28.786-37.635l1.3-6.24h-34.125v6.24h13.52v39.26h7.02v-39.26zm-71.231-.65a19.928 19.928 0 019.165 2.21l2.73-5.525a23.487 23.487 0 00-11.895-2.925c-13.52 0-18.85 10.27-18.85 23.4 0 13.13 5.33 23.4 18.85 23.4a23.23 23.23 0 0012.675-3.51l-2.73-5.525a19.674 19.674 0 01-9.945 2.795c-8.32 0-11.57-7.54-11.57-17.16 0-9.62 3.25-17.16 11.57-17.16m-62.457.65c4.745 0 7.93 3.12 7.93 8.515 0 5.395-3.185 8.515-7.93 8.515h-7.084v-17.03zm.13 23.27c8.646 0 15.146-5.005 15.146-14.755s-6.5-14.755-15.146-14.755h-14.234v45.5h7.02v-15.99zm-73.246 15.99v-39.26h18.785v39.26h7.02v-45.5h-32.825v45.5zm-45.557-22.75c0 9.62-3.25 17.16-11.57 17.16s-11.57-7.54-11.57-17.16c0-9.62 3.25-17.16 11.57-17.16s11.57 7.54 11.57 17.16m7.28 0c0-13.13-5.33-23.4-18.85-23.4s-18.85 10.27-18.85 23.4c0 13.13 5.33 23.4 18.85 23.4s18.85-10.27 18.85-23.4m-94.956-22.75h-7.02v45.5h7.02v-20.41h18.98v20.41h7.02v-45.5h-7.02v18.85h-18.98z"/></g><path class="cls-4" d="M1236.67 243.878h.26v33.15h7.02v-45.5h-8.385l-12.48 26h-.195l-12.48-26h-8.385v45.5h7.02v-33.15h.26l11.44 23.92h4.485l11.44-23.92z"/><g class="cls-3"><path class="cls-2" d="M1160.369 243.358h.26l3.12 33.67h7.02l-4.225-45.5h-8.645l-10.075 29.9h-.195l-10.075-29.9h-8.645l-4.225 45.5h7.02l3.12-33.67h.26l9.23 27.69h6.825zm-92.682-11.83c0 28.015-1.885 39.455-7.084 39.455a4.11 4.11 0 01-1.95-.455l-1.3 5.915a9.81 9.81 0 004.29.91c9.879 0 13.065-12.74 13.065-39.585h11.7v39.26h7.019v-45.5zm-55.891-3.25h4.875l11.245-7.02-9.165-1.3zm22.035 3.25h-7.995l-13.52 18.98h-3.575v-18.98h-7.02v45.5h7.02v-20.54h3.38l15.015 21.19 8.06-.65-16.9-23.985zm-61.481 0h-7.995l-13.52 18.98h-3.575v-18.98h-7.02v45.5h7.02v-20.54h3.38l15.015 21.19 8.06-.65-16.9-23.985zm-76.106-11.31a7.116 7.116 0 01-6.76 4.485 7.339 7.339 0 01-6.76-4.485l-4.615 3.25c2.47 4.095 6.435 6.11 11.375 6.11s8.775-1.885 11.375-6.11zm3.51 24.115h.26v32.695h7.02v-45.5h-6.175l-21.645 32.695h-.26v-32.695h-7.02v45.5h6.175zm-68.306 0h.26v32.695h7.02v-45.5h-6.175l-21.645 32.695h-.26v-32.695h-7.02v45.5h6.175zm-75.392 27.105a20.055 20.055 0 01-10.4-3.185l-3.185 5.525a24.883 24.883 0 0013.585 3.9c9.36 0 16.64-4.225 16.64-13.52 0-6.305-3.64-9.815-9.36-11.05v-.195c4.16-1.105 7.735-4.68 7.735-10.66 0-7.93-6.76-11.375-14.885-11.375a26.576 26.576 0 00-12.675 2.925l2.795 5.525a20.895 20.895 0 019.555-2.21c5.005 0 7.995 2.34 7.995 6.5 0 3.835-2.99 6.89-7.67 6.89h-5.59v5.98h5.655c5.915 0 9.23 2.47 9.23 7.085 0 4.875-3.835 7.865-9.425 7.865m-39.706-39.91h-8.385l-10.53 18.85h-2.925v-18.85h-7.02v18.85h-2.925l-10.66-18.85h-8.255l13.065 21.905-14.43 23.595h8.45l11.895-20.41h2.86v20.41h7.02v-20.41h2.795l12.22 21.06 8.19-.65-14.43-23.595zm-88.652-6.76a3.832 3.832 0 003.965 3.835 3.887 3.887 0 004.03-3.835 3.94 3.94 0 00-4.03-3.9 3.885 3.885 0 00-3.965 3.9m-13.845 0a3.832 3.832 0 003.965 3.835 3.887 3.887 0 004.03-3.835 3.94 3.94 0 00-4.03-3.9 3.885 3.885 0 00-3.965 3.9m23.725 52.26v-6.24h-18.72v-14.17h15.47v-6.24h-15.47v-12.61h17.42l1.3-6.24h-25.74v45.5zm-57.647 0v-6.24h-18.72v-14.17h15.47v-6.24h-15.47v-12.61h17.42l1.3-6.24h-25.74v45.5zm-92.616 0h30.875v9.555h5.72l1.3-15.795h-6.5v-39.26h-26.585v5.07c0 14.95-1.69 27.625-6.63 34.19h-5.2l1.3 15.795h5.72zm6.045-6.24c3.38-6.435 5.59-17.68 5.59-28.99v-4.03h12.74v33.02zm-51.927-33.02h18.33v-16.51h-5.07l-1.3 10.27h-18.98v45.5h7.02zm-50.691-9.49h4.875l11.245-7.02-9.165-1.3zm16.315 9.49l1.3-6.24h-25.35v45.5h7.02v-39.26zm-51.081 0l1.3-6.24h-25.35v45.5h7.02v-39.26zm-71.882 0c5.005 0 7.67 2.145 7.67 6.305 0 3.835-3.055 6.565-7.41 6.565h-6.11v-12.87zm.26 18.85c5.85 0 9.035 2.34 9.035 6.955 0 4.355-3.38 7.215-8.97 7.215h-6.175v-14.17zm6.955-3.77c4.16-1.105 7.735-4.42 7.735-10.4 0-7.93-6.11-10.92-14.235-10.92h-13.585v45.5h13.585c8.905 0 15.86-3.315 15.86-12.61 0-6.305-3.64-9.945-9.36-11.31zm-65.901 2.99c6.305 0 8.905 2.86 8.905 7.475 0 4.355-2.665 7.475-8.84 7.475h-5.915v-14.95zm11.83-18.07l1.3-6.24h-26v45.5h13.325c9.49 0 15.73-4.42 15.73-13.715s-6.305-13.715-15.73-13.715h-6.305v-11.83zm-65.901 22.62h-12.35l6.045-19.565h.325zm-17.355 16.64l3.185-10.595h15.99l3.25 10.595h7.475l-15.21-45.5h-6.955l-15.21 45.5zm-31.842-5.655a9.02 9.02 0 01-3.38.65c-1.82 0-2.795-1.105-2.795-3.575v-37.57a31.925 31.925 0 00-12.935-2.6c-10.27 0-14.43 4.81-14.43 13.52v2.08H73.65v-4.355c0-3.77 1.885-5.59 4.81-5.59a11.899 11.899 0 015.07 1.17l2.21-5.005a18.648 18.648 0 00-8.255-1.82c-6.5 0-10.595 3.705-10.595 12.22v3.38H61.3v5.655h5.59v27.495h6.76v-27.495H88.6v27.495h6.76v-27.495h6.89l1.3-5.655h-8.19v-2.275c0-5.395 2.21-7.67 8.515-7.67a25.404 25.404 0 015.33.65v33.865c0 6.37 2.925 9.23 8.45 9.23a14.194 14.194 0 005.395-.975zm1704.45-113.634h-14.95v-4.355c0-3.77 1.885-5.59 4.81-5.59a11.899 11.899 0 015.07 1.17l2.21-5.005a18.649 18.649 0 00-8.254-1.82c-6.5 0-10.595 3.705-10.595 12.22v3.38h-5.59v5.655h5.59v27.495h6.76v-27.495h14.95v27.495h6.76v-27.495h14.82v27.495h6.76v-33.15h-21.58v-2.275c0-5.33 2.534-7.67 8.71-7.67a29.406 29.406 0 0110.205 2.015l2.21-5.07a33.023 33.023 0 00-13.26-2.6c-10.27 0-14.625 4.745-14.625 13.52zm-50.682 27.495a9.021 9.021 0 01-3.38.65c-1.82 0-2.795-1.105-2.795-3.575v-37.57a31.925 31.925 0 00-12.935-2.6c-10.27 0-14.43 4.81-14.43 13.52v2.08h-5.59v5.655h5.59v27.495h6.76v-27.495h6.89l1.3-5.655h-8.19v-2.275c0-5.395 2.21-7.67 8.515-7.67a25.404 25.404 0 015.33.65v33.865c0 6.37 2.925 9.23 8.45 9.23a14.195 14.195 0 005.395-.975zm-99.952-21.84h5.59v27.495h6.76v-27.495h14.82v27.495h6.76v-33.15h-21.58v-2.275c0-4.94 2.015-7.67 7.67-7.67a37.493 37.493 0 0111.44 2.08l2.014-5.135a38.12 38.12 0 00-13.455-2.6c-10.595 0-14.43 4.68-14.43 13.325v2.275h-5.59zm-53.673-10.01c0-3.77 1.884-5.59 4.81-5.59a11.9 11.9 0 015.07 1.17l2.21-5.005a18.649 18.649 0 00-8.255-1.82c-6.5 0-10.595 3.705-10.595 12.22v3.38h-5.59v5.655h5.59v27.495h6.76v-27.495h14.95v27.495h6.76v-27.495h7.54l1.3-5.655h-8.84v-4.355c0-3.77 1.884-5.59 4.81-5.59a11.9 11.9 0 015.07 1.17l2.21-5.005a18.648 18.648 0 00-8.256-1.82c-6.5 0-10.595 3.705-10.595 12.22v3.38h-14.95zm-61.797 10.01h16.445v.26l-17.42 21.97v5.265h24.7l1.3-5.655h-18.005v-.26l17.355-21.97v-5.265h-24.375z"/></g><path class="cls-4" d="M1520.723 204.539l15.015-46.8h-7.28l-7.67 25.415h-.26l-8.58-25.415h-7.41l11.505 33.15h2.21l-4.29 13.65h6.76z"/><g class="cls-3"><path class="cls-2" d="M1455.351 203.954a14.945 14.945 0 005.72 1.235c3.575 0 7.475-1.56 9.555-7.93l12.74-39.52h-7.28l-7.67 25.415h-.26l-8.58-25.415h-7.41l11.635 33.15h2.405l-1.43 4.81c-.91 3.12-2.6 3.835-4.095 3.835a9.642 9.642 0 01-3.575-.845zm-32.353-12.415l7.02-.65-11.44-17.03 10.79-16.12h-7.605l-7.085 11.505h-.195l-7.15-11.505h-7.54l10.855 16.12-11.505 17.03h7.475l7.865-12.09h.195zm-73.562-33.8l-5.59 25.09h-.26l-6.37-25.09h-7.345l9.62 33.15h7.8l5.915-23.985h.195l5.915 23.985h7.8l9.555-33.15h-7.345l-6.305 25.09h-.26l-5.59-25.09zm-60.172 33.15h7.605l11.18-33.15h-7.475l-7.41 25.74h-.195l-7.41-25.74h-7.475z"/><path class="cls-4" d="M1238.777 185.884c-4.225 0-6.955-2.795-6.955-8.125v-20.02h-6.76v20.41c0 8.45 5.395 13.39 13.715 13.39s13.585-4.94 13.585-13.39v-20.41h-6.76v20.02c0 5.33-2.6 8.125-6.825 8.125"/><path class="cls-2" d="M1188.68 181.269c-1.755 2.47-5.2 4.615-7.8 4.615-3.9 0-6.305-2.405-6.305-7.865v-20.28h-6.76v20.28c0 9.36 4.355 13.52 11.44 13.52a12.897 12.897 0 009.815-4.16h.26l1.3 3.51h4.81v-33.15h-6.76z"/></g><path class="cls-4" d="M1119.342 163.394h7.15v27.495h6.76v-27.495h7.215l1.3-5.655h-8.515v-10.27l-6.76 1.3v8.97h-7.15v5.655z"/><g class="cls-3"><path class="cls-2" d="M1095.57 184.974a18.345 18.345 0 01-5.33.91c-2.535 0-4.42-1.17-4.42-4.485v-18.005h8.71l1.3-5.655h-10.01v-10.27l-6.76 1.3v8.97h-5.655v5.655h5.655v17.68c0 7.735 4.42 10.465 10.4 10.465a22.779 22.779 0 007.085-1.17zm-62.512-18.59c0-2.275 1.69-3.64 5.265-3.64a21.16 21.16 0 017.67 1.69l2.21-5.07a24.467 24.467 0 00-10.335-2.275c-6.955 0-11.57 3.12-11.57 8.97 0 6.435 4.94 8.97 8.905 10.14 3.705 1.105 7.02 2.275 7.02 5.655 0 2.47-1.82 4.03-5.655 4.03a21.46 21.46 0 01-8.71-1.95l-2.275 5.33a27.668 27.668 0 0011.18 2.275c7.475 0 12.22-3.965 12.22-10.01 0-6.11-5.46-8.97-10.27-10.335-3.575-1.04-5.655-2.015-5.655-4.81m-31.573-8.645a14.742 14.742 0 00-4.225-.65c-4.615 0-6.825 2.405-8.45 5.785h-.26l-1.3-5.135h-4.81v33.15h6.76v-19.825c.585-4.095 3.12-7.67 6.63-7.67a7.898 7.898 0 013.445.65zm-65.762 33.8a11.573 11.573 0 008.775-3.835h.26v17.485l6.76-1.3v-44.2a37.544 37.544 0 00-13.65-2.6c-9.23 0-15.535 6.435-15.535 17.225 0 10.79 5.07 17.225 13.39 17.225m1.43-5.655c-5.33 0-7.93-4.355-7.93-11.57 0-7.28 3.575-11.57 8.58-11.57a19.878 19.878 0 016.955 1.235v17.355c-2.015 2.73-5.005 4.55-7.605 4.55m-56.923 0a12.086 12.086 0 01-7.345-2.34v-16.705c2.015-2.47 4.355-4.095 7.085-4.095 5.72 0 8.45 4.745 8.45 11.57 0 7.345-3.055 11.57-8.19 11.57m-7.345 3.9a19.558 19.558 0 008.45 1.755c9.88 0 13.975-7.345 13.975-17.225s-4.03-17.225-13.39-17.225a11.75 11.75 0 00-9.425 4.16h-.26l-1.3-3.51h-4.81v47.45l6.76-1.3zm-51.007 1.755c9.23 0 15.275-6.435 15.275-17.225 0-10.79-6.045-17.225-15.275-17.225s-15.275 6.435-15.275 17.225c0 10.79 6.045 17.225 15.275 17.225m0-28.795c5.07 0 8.385 4.29 8.385 11.57s-3.315 11.57-8.385 11.57-8.385-4.29-8.385-11.57 3.315-11.57 8.385-11.57m-63.488 4.615c1.755-2.47 4.745-4.615 7.345-4.615 3.9 0 5.785 2.405 5.785 7.865v20.28h6.76v-20.735c0-8.71-3.51-13.065-10.92-13.065a11.966 11.966 0 00-9.36 4.16h-.26l-1.3-3.51h-4.81v33.15h6.76zm-47.952-10.27a13.681 13.681 0 00-9.62 4.16c-1.56-2.925-4.29-4.16-8.32-4.16a11.046 11.046 0 00-8.84 4.16h-.26l-1.3-3.51h-4.81v33.15h6.76v-23.53c1.56-2.47 4.29-4.615 6.63-4.615 3.575 0 5.265 2.405 5.265 7.865v20.28h6.76v-24.895c1.755-1.755 4.03-3.25 6.11-3.25 3.9 0 5.785 2.405 5.785 7.865v20.28h6.76v-20.735c0-8.71-3.51-13.065-10.92-13.065m-60.562 28.145a9.022 9.022 0 01-3.38.65c-1.82 0-2.795-1.105-2.795-3.575v-40.17l-6.76 1.3v38.87c0 6.37 2.925 9.23 8.45 9.23a14.823 14.823 0 005.525-.975zm-40.283-27.495h-7.02l-8.71 13.39h-3.705v-28.99l-6.76 1.3v47.45h6.76v-14.365h3.64l9.555 15.015 6.89-.65-10.985-17.16zm-64.072-9.62a4.023 4.023 0 004.095 4.03 4.08 4.08 0 004.16-4.03 4.134 4.134 0 00-4.16-4.095 4.078 4.078 0 00-4.095 4.095m.78 47.645c0 2.405-1.17 3.77-3.12 3.77a9.886 9.886 0 01-4.16-1.105l-1.82 5.005a14.46 14.46 0 006.89 1.755c4.81 0 8.97-2.145 8.97-9.425v-38.025h-11.635l-1.3 5.655h6.175zm-41.127-47.645a4.023 4.023 0 004.095 4.03 4.08 4.08 0 004.16-4.03 4.134 4.134 0 00-4.16-4.095 4.078 4.078 0 00-4.095 4.095m.78 15.275v27.495h6.76v-33.15h-11.635l-1.3 5.655zm-46.068-.65c3.965 0 5.785 2.47 5.785 7.41v20.735h6.76v-20.735c0-8.71-3.38-13.065-10.79-13.065a11.887 11.887 0 00-8.84 4.16h-.26v-19.11l-6.76 1.3v47.45h6.76v-23.53c1.755-2.47 4.745-4.615 7.345-4.615"/><path class="cls-4" d="M414.859 159.689a37.544 37.544 0 00-13.65-2.6c-9.23 0-15.535 6.435-15.535 17.225 0 10.79 5.07 17.225 13.39 17.225a11.573 11.573 0 008.775-3.835h.26v4.225c0 5.46-3.12 7.605-8.45 7.605a18.846 18.846 0 01-9.23-2.47l-2.34 5.59a26.964 26.964 0 0011.895 2.535c10.01 0 14.885-5.395 14.885-12.805zm-14.365 26.195c-5.33 0-7.93-4.355-7.93-11.57 0-7.28 3.575-11.57 8.58-11.57a19.878 19.878 0 016.955 1.235v17.355c-2.015 2.73-5.005 4.55-7.605 4.55"/><path class="cls-2" d="M338.437 189.914l8.385 1.3c3.509.585 5.264 1.69 5.264 3.835 0 2.535-1.949 4.485-8.125 4.485-5.98 0-8.579-1.82-8.579-4.745a5.58 5.58 0 013.055-4.875m5.654-27.3c4.68 0 6.955 2.6 6.955 6.11 0 3.51-2.275 6.11-6.955 6.11s-6.954-2.6-6.954-6.11c0-3.51 2.274-6.11 6.954-6.11m13.52 6.11a11.574 11.574 0 00-1.95-6.63h3.966l1.299-6.305-10.335 2.47a18.112 18.112 0 00-6.5-1.17c-8.125 0-13.519 4.355-13.519 11.635a10.888 10.888 0 003.899 8.775 7.368 7.368 0 00-3.38 5.72 5.695 5.695 0 002.536 5.07 9.046 9.046 0 00-4.421 7.67c0 5.85 5.2 9.23 14.755 9.23 8.515 0 15.015-3.185 15.015-10.27 0-6.175-5.395-8.385-9.62-9.1l-9.294-1.495c-1.821-.325-2.601-1.3-2.601-2.73a2.688 2.688 0 011.041-2.015 18.435 18.435 0 005.589.78c8.125 0 13.52-4.355 13.52-11.635m-74.342-5.33h5.59v27.495h6.76v-27.495h7.54l1.3-5.655h-8.84v-4.355c0-3.77 1.885-5.59 4.81-5.59a11.898 11.898 0 015.07 1.17l2.21-5.005a18.648 18.648 0 00-8.255-1.82c-6.5 0-10.595 3.705-10.595 12.22v3.38h-5.59zm-38.593-.65c5.005 0 7.475 3.315 7.475 7.865h-15.34c.585-4.68 3.38-7.865 7.865-7.865m13.52 7.67c0-8.125-4.745-13.325-13.65-13.325-8.97 0-14.95 6.305-14.95 17.225 0 10.855 6.37 17.225 16.12 17.225a24.238 24.238 0 0011.115-2.795l-2.21-5.135a18.401 18.401 0 01-8.255 2.275c-5.98 0-9.36-3.575-9.815-10.01h21.06a27.935 27.935 0 00.585-5.46m-71.026-7.67a12.086 12.086 0 017.345 2.34v16.705c-2.015 2.47-4.355 4.095-7.085 4.095-5.72 0-8.45-4.745-8.45-11.57 0-7.345 3.055-11.57 8.19-11.57m7.345-3.9a19.557 19.557 0 00-8.45-1.755c-9.88 0-13.975 7.345-13.975 17.225s4.03 17.225 13.39 17.225a11.648 11.648 0 009.425-4.16h.26l1.3 3.51h4.81v-48.75l-6.76 1.3zm-57.248 27.04c-5.59 0-9.295-4.68-9.295-11.57s3.77-11.57 9.36-11.57a16.97 16.97 0 016.63 1.3l2.08-5.2a23.879 23.879 0 00-9.1-1.755c-10.725 0-15.86 7.67-15.86 17.225s5.46 17.225 16.185 17.225a21.913 21.913 0 009.1-1.885l-2.08-5.2a19.079 19.079 0 01-7.02 1.43M80.865 157.09a11.788 11.788 0 00-8.645 4.16h-.26v-19.11l-6.76 1.3v45.5a37.214 37.214 0 0013.585 2.6c9.23 0 15.275-6.435 15.275-17.225 0-10.79-4.875-17.225-13.195-17.225m-8.905 10.27c1.755-2.47 4.81-4.615 7.475-4.615 5.33 0 7.735 4.355 7.735 11.57 0 7.28-3.315 11.57-8.32 11.57a19.526 19.526 0 01-6.89-1.235z"/><path class="cls-4" d="M1849.21 101.24a5.134 5.134 0 005.265 3.835 11.95 11.95 0 003.9-.65V99.42h-.715a2.094 2.094 0 01-2.34-2.34V73.55a33.5 33.5 0 00-13.13-2.6c-11.05 0-15.34 7.345-15.34 17.225s3.64 17.225 13 17.225a11.08 11.08 0 009.1-4.16zm-8.19-1.495c-5.46 0-7.28-4.745-7.28-11.57s2.47-11.57 8.45-11.57a13.945 13.945 0 016.37 1.365V95c-1.885 2.99-4.355 4.745-7.54 4.745"/><path class="cls-2" d="M1786.053 85.25c-7.345 0-12.545 3.64-12.545 9.945 0 6.76 3.965 9.88 10.27 9.88a12.111 12.111 0 009.36-3.835h.26a5.134 5.134 0 005.265 3.835 11.949 11.949 0 003.9-.65V99.42h-.715a2.094 2.094 0 01-2.34-2.34V83.17c0-6.89-2.405-12.22-12.545-12.22a32.465 32.465 0 00-11.7 2.145l1.95 5.265a26.164 26.164 0 018.97-1.755c4.875 0 6.565 2.47 6.565 6.435v2.21zm6.695 5.265v5.135a9.645 9.645 0 01-7.67 4.095c-2.665 0-4.875-1.43-4.875-4.42s2.34-4.81 5.59-4.81zm-75.05 8.515v5.72h30.55l1.3-6.24h-23.27v-.26l23.27-33.28v-5.72h-30.55v6.24h21.97l-.066.26zm-39.433-20.8h-.26l-9.75-18.98h-8.19l14.625 26.52v18.98h7.02V85.77l14.625-26.52h-8.19zm-57.37-2.275l-8.906-16.705h-8.32l12.74 21.905-14.04 23.595h8.32l10.205-18.07h.26l10.53 18.72 7.995-.65-14.04-23.595 12.74-21.905h-8.32l-8.905 16.705zm-66.084-6.695l7.28 35.49h8.45l11.44-45.5h-7.865l-7.735 35.815h-.26l-7.15-35.815h-8.515l-7.15 35.815h-.26l-7.735-35.815h-7.865l11.44 45.5h8.45l7.215-35.49zm-65.237 25.805h-.26l-10.4-35.815h-7.67l14.17 45.5h8.125l14.17-45.5h-7.67zm-43.267-35.815h-7.02v31.2c0 5.135-3.51 8.71-9.23 8.71-5.72 0-9.23-3.575-9.23-8.71v-31.2h-7.02v31.525c0 8.645 6.5 14.625 16.25 14.625s16.25-5.98 16.25-14.625zm-59.712 6.24l1.301-6.24h-34.125v6.24h13.52v39.26h7.02V65.49zm-72.32 33.67a16.935 16.935 0 01-10.66-3.51l-3.706 5.72a24.828 24.828 0 0014.365 4.03c10.205 0 15.86-4.745 15.86-12.805 0-8.45-6.305-11.57-13.455-14.365-3.965-1.56-8.45-3.965-8.45-7.67s2.535-5.72 7.475-5.72a17.387 17.387 0 019.685 2.795l3.315-5.525a25.78 25.78 0 00-13-3.51c-9.23 0-14.755 4.55-14.755 12.35 0 7.54 6.695 10.855 12.545 13.13 5.005 1.95 9.36 4.42 9.36 8.905 0 4.225-3.51 6.175-8.58 6.175m-55.682-33.67a6.89 6.89 0 017.28 7.28c0 4.55-3.12 7.15-7.28 7.15h-6.5V65.49zm.325-6.24h-13.845v45.5h7.02V86.16h4.03l11.895 19.24 7.605-.65-11.895-19.24c5.525-1.495 9.425-5.72 9.425-12.74 0-8.905-6.37-13.52-14.235-13.52"/><path class="cls-4" d="M1208.955 82c0 9.62-3.25 17.16-11.57 17.16s-11.57-7.54-11.57-17.16c0-9.62 3.25-17.16 11.57-17.16s11.57 7.54 11.57 17.16m7.28 0c0-13.13-5.33-23.4-18.85-23.4s-18.85 10.27-18.85 23.4c0 12.155 4.55 21.84 15.925 23.205.455 6.825 5.2 10.465 10.985 10.465a15.724 15.724 0 009.945-3.055l-2.6-5.525a10.327 10.327 0 01-6.565 2.47c-2.405 0-4.225-1.495-4.615-4.55 10.4-1.95 14.625-11.375 14.625-23.01"/><path class="cls-2" d="M1144.368 82c0 5.525-1.105 10.4-3.575 13.52l-6.24-8.19-5.07 3.835 5.915 7.735a11.385 11.385 0 01-2.6.26c-8.32 0-11.57-7.54-11.57-17.16 0-9.62 3.25-17.16 11.57-17.16s11.57 7.54 11.57 17.16m7.28 0c0-13.13-5.33-23.4-18.85-23.4s-18.85 10.27-18.85 23.4c0 13.13 5.33 23.4 18.85 23.4a21.4 21.4 0 006.76-1.04l6.89 8.97 5.005-3.9-6.37-8.32c4.55-4.16 6.565-10.92 6.565-19.11m-78.887-16.51c4.745 0 7.93 3.12 7.93 8.515 0 5.395-3.185 8.515-7.93 8.515h-7.085V65.49zm.13 23.27c8.645 0 15.145-5.005 15.145-14.755s-6.5-14.755-15.145-14.755h-14.235v45.5h7.02V88.76zM1022.539 82c0 9.62-3.25 17.16-11.57 17.16S999.4 91.62 999.4 82c0-9.62 3.25-17.16 11.57-17.16s11.57 7.54 11.57 17.16m7.28 0c0-13.13-5.33-23.4-18.85-23.4-13.52 0-18.85 10.27-18.85 23.4 0 13.13 5.33 23.4 18.85 23.4 13.52 0 18.85-10.27 18.85-23.4M936.7 59.25h-7.54v45.5h7.02v-33.8h.26l19.304 33.8h7.54v-45.5h-7.02v33.865h-.26z"/></g><path class="cls-4" d="M891.091 71.6h.26v33.15h7.02v-45.5h-8.385l-12.48 26h-.195l-12.48-26h-8.385v45.5h7.02V71.6h.26l11.44 23.92h4.485l11.44-23.92z"/><g class="cls-3"><path class="cls-2" d="M817.21 71.08h.26l3.12 33.67h7.02l-4.226-45.5h-8.645l-10.074 29.9h-.195l-10.075-29.9h-8.645l-4.226 45.5h7.02l3.12-33.67h.26l9.23 27.69h6.826zm-61.273 33.67l1.3-6.24h-20.605V59.25h-7.02v45.5zm-53.277-45.5h-7.995l-13.52 18.98h-3.575V59.25h-7.02v45.5h7.02V84.21h3.38l15.015 21.19 8.06-.65-16.9-23.985zm-75.31 39.91a15.194 15.194 0 01-6.826-1.755l-2.535 5.59a20.926 20.926 0 0010.205 2.405c7.28 0 12.22-4.745 12.22-13V59.25H623.19l-1.3 6.24h11.505V92.4c0 4.29-2.47 6.76-6.045 6.76"/></g><path class="cls-4" d="M584.407 59.25h7.02v45.5h-7.02z"/><g class="cls-3"><path class="cls-2" d="M554.921 104.75v-6.24h-7.475V65.49h6.5l1.3-6.24h-22.295v6.24h7.475v33.02h-7.475v6.24zm-76.807-45.5h-7.02v45.5h7.02V84.34h18.98v20.41h7.02v-45.5h-7.02V78.1h-18.98zm-49.572 5.59a19.988 19.988 0 019.555 2.34l2.795-5.655a24.646 24.646 0 00-12.35-2.925c-13.52 0-19.11 10.27-19.11 23.4 0 13.13 5.59 23.4 19.11 23.4a21.037 21.037 0 0013.39-4.16V80.245h-14.56v6.11h7.995v11.57a15.96 15.96 0 01-6.565 1.235c-8.58 0-12.09-7.54-12.09-17.16 0-9.62 3.51-17.16 11.83-17.16m-45.997 20.865v-6.24H364.8V65.49h17.745l1.3-6.24H357.78v45.5h7.02V85.705zm-54.252 19.045v-6.24h-18.72V84.34h15.47V78.1h-15.47V65.49h17.42l1.3-6.24h-25.74v45.5zm-73.167-39.26c7.605 0 11.31 7.215 11.31 16.51 0 9.295-3.705 16.51-11.31 16.51h-7.475V65.49zm0 39.26c12.87 0 18.59-9.49 18.59-22.75s-5.72-22.75-18.59-22.75h-14.495v45.5zm-55.032-39.91a19.928 19.928 0 019.165 2.21l2.73-5.525a23.488 23.488 0 00-11.895-2.925c-13.52 0-18.85 10.27-18.85 23.4 0 13.13 5.33 23.4 18.85 23.4a23.23 23.23 0 0012.675-3.51l-2.73-5.525a19.674 19.674 0 01-9.945 2.795c-8.32 0-11.57-7.54-11.57-17.16 0-9.62 3.25-17.16 11.57-17.16m-62.312.65c5.005 0 7.67 2.145 7.67 6.305 0 3.835-3.055 6.565-7.41 6.565h-6.11V65.49zm.26 18.85c5.85 0 9.035 2.34 9.035 6.955 0 4.355-3.38 7.215-8.97 7.215h-6.175V84.34zm6.955-3.77c4.16-1.105 7.735-4.42 7.735-10.4 0-7.93-6.11-10.92-14.235-10.92h-13.585v45.5h13.585c8.905 0 15.86-3.315 15.86-12.61 0-6.305-3.64-9.945-9.36-11.31zM86.13 88.11H73.78l6.045-19.565h.325zm-17.355 16.64l3.185-10.595h15.99l3.25 10.595h7.475l-15.21-45.5H76.51l-15.21 45.5z"/></g></svg>