<svg id="Layer_1" data-name="Layer 1" xmlns="http://www.w3.org/2000/svg" viewBox="0 0 1920 850"><defs><clipPath id="clip-path"><path fill="none" d="M0-230h1920V850H0z"/></clipPath><style>.cls-2{clip-path:url(#clip-path)}.cls-3{fill:#fff}.cls-4{fill:#bcbcbb}</style></defs><path d="M0-230h1920V850H0z"/><g class="cls-2"><path class="cls-3" d="M122.068 450.154l-.6 2.88h5.04v15.24h-5.49v2.88h13.5v-2.88h-4.86v-18.12zm-3.396 10.5c0-7.11-2.73-10.8-7.35-10.8s-7.35 3.69-7.35 10.8 2.73 10.8 7.35 10.8 7.35-3.69 7.35-10.8m-11.43 0c0-5.58 1.68-7.92 4.08-7.92s4.08 2.34 4.08 7.92-1.68 7.92-4.08 7.92-4.08-2.34-4.08-7.92m-20.94 7.92a7.816 7.816 0 01-4.92-1.62l-1.71 2.64a11.459 11.459 0 006.63 1.86c4.71 0 7.32-2.19 7.32-5.91 0-3.9-2.91-5.34-6.21-6.63-1.83-.72-3.9-1.83-3.9-3.54s1.17-2.64 3.45-2.64a8.025 8.025 0 014.47 1.29l1.53-2.55a11.898 11.898 0 00-6-1.62c-4.26 0-6.81 2.1-6.81 5.7 0 3.48 3.09 5.01 5.79 6.06 2.31.9 4.32 2.04 4.32 4.11 0 1.95-1.62 2.85-3.96 2.85m-16.511 0a7.816 7.816 0 01-4.92-1.62l-1.71 2.64a11.459 11.459 0 006.63 1.86c4.71 0 7.32-2.19 7.32-5.91 0-3.9-2.91-5.34-6.21-6.63-1.83-.72-3.9-1.83-3.9-3.54s1.17-2.64 3.45-2.64a8.025 8.025 0 014.47 1.29l1.53-2.55a11.898 11.898 0 00-6-1.62c-4.26 0-6.81 2.1-6.81 5.7 0 3.48 3.09 5.01 5.79 6.06 2.31.9 4.32 2.04 4.32 4.11 0 1.95-1.62 2.85-3.96 2.85m52.277-386.728l-.6 2.88h5.04v15.24h-5.49v2.88h13.5v-2.88h-4.86v-18.12zm-3.396 10.5c0-7.11-2.73-10.8-7.35-10.8s-7.35 3.69-7.35 10.8 2.73 10.8 7.35 10.8 7.35-3.69 7.35-10.8m-11.43 0c0-5.58 1.68-7.92 4.08-7.92s4.08 2.34 4.08 7.92-1.68 7.92-4.08 7.92-4.08-2.34-4.08-7.92m-20.94 7.92a7.816 7.816 0 01-4.92-1.62l-1.71 2.64a11.459 11.459 0 006.63 1.86c4.71 0 7.32-2.19 7.32-5.91 0-3.9-2.91-5.34-6.21-6.63-1.83-.72-3.9-1.83-3.9-3.54s1.17-2.64 3.45-2.64a8.025 8.025 0 014.47 1.29l1.53-2.55a11.898 11.898 0 00-6-1.62c-4.26 0-6.81 2.1-6.81 5.7 0 3.48 3.09 5.01 5.79 6.06 2.31.9 4.32 2.04 4.32 4.11 0 1.95-1.62 2.85-3.96 2.85m-16.511 0a7.816 7.816 0 01-4.92-1.62l-1.71 2.64a11.459 11.459 0 006.63 1.86c4.71 0 7.32-2.19 7.32-5.91 0-3.9-2.91-5.34-6.21-6.63-1.83-.72-3.9-1.83-3.9-3.54s1.17-2.64 3.45-2.64a8.025 8.025 0 014.47 1.29l1.53-2.55a11.898 11.898 0 00-6-1.62c-4.26 0-6.81 2.1-6.81 5.7 0 3.48 3.09 5.01 5.79 6.06 2.31.9 4.32 2.04 4.32 4.11 0 1.95-1.62 2.85-3.96 2.85M1352.2 468.154c3.66-2.91 7.95-7.92 7.95-12.54 0-3.66-2.13-5.76-5.82-5.76a11.962 11.962 0 00-6.42 1.77l1.44 2.52a8.17 8.17 0 014.41-1.41c2.13 0 3.12 1.26 3.12 3.27 0 4.02-5.22 9.48-9.33 12.57v2.58h12.6l.6-2.88h-8.55zm-6.862-7.5c0-7.11-2.73-10.8-7.35-10.8-4.62 0-7.35 3.69-7.35 10.8s2.73 10.8 7.35 10.8c4.62 0 7.35-3.69 7.35-10.8m-11.43 0c0-5.58 1.68-7.92 4.08-7.92 2.4 0 4.08 2.34 4.08 7.92s-1.68 7.92-4.08 7.92c-2.4 0-4.08-2.34-4.08-7.92m-20.939 7.92a7.816 7.816 0 01-4.92-1.62l-1.71 2.64a11.459 11.459 0 006.63 1.86c4.71 0 7.32-2.19 7.32-5.91 0-3.9-2.91-5.34-6.21-6.63-1.83-.72-3.9-1.83-3.9-3.54s1.17-2.64 3.45-2.64a8.025 8.025 0 014.47 1.29l1.53-2.55a11.898 11.898 0 00-6-1.62c-4.26 0-6.81 2.1-6.81 5.7 0 3.48 3.09 5.01 5.79 6.06 2.31.9 4.32 2.04 4.32 4.11 0 1.95-1.62 2.85-3.96 2.85m-16.512 0a7.816 7.816 0 01-4.92-1.62l-1.71 2.64a11.459 11.459 0 006.63 1.86c4.71 0 7.32-2.19 7.32-5.91 0-3.9-2.91-5.34-6.21-6.63-1.83-.72-3.9-1.83-3.9-3.54s1.17-2.64 3.45-2.64a8.024 8.024 0 014.47 1.29l1.53-2.55a11.898 11.898 0 00-6-1.62c-4.26 0-6.81 2.1-6.81 5.7 0 3.48 3.09 5.01 5.79 6.06 2.31.9 4.32 2.04 4.32 4.11 0 1.95-1.62 2.85-3.96 2.85m-561.056-18.42l-.6 2.88h5.04v15.24h-5.49v2.88h13.5v-2.88h-4.86v-18.12zm-3.396 10.5c0-7.11-2.73-10.8-7.35-10.8-4.62 0-7.35 3.69-7.35 10.8s2.73 10.8 7.35 10.8c4.62 0 7.35-3.69 7.35-10.8m-11.43 0c0-5.58 1.68-7.92 4.08-7.92 2.4 0 4.08 2.34 4.08 7.92s-1.68 7.92-4.08 7.92c-2.4 0-4.08-2.34-4.08-7.92m-20.939 7.92a7.816 7.816 0 01-4.92-1.62l-1.71 2.64a11.46 11.46 0 006.63 1.86c4.71 0 7.32-2.19 7.32-5.91 0-3.9-2.91-5.34-6.21-6.63-1.83-.72-3.9-1.83-3.9-3.54s1.17-2.64 3.45-2.64a8.025 8.025 0 014.47 1.29l1.53-2.55a11.898 11.898 0 00-6-1.62c-4.26 0-6.81 2.1-6.81 5.7 0 3.48 3.09 5.01 5.79 6.06 2.31.9 4.32 2.04 4.32 4.11 0 1.95-1.62 2.85-3.96 2.85m-16.512 0a7.816 7.816 0 01-4.92-1.62l-1.71 2.64a11.459 11.459 0 006.63 1.86c4.71 0 7.32-2.19 7.32-5.91 0-3.9-2.91-5.34-6.21-6.63-1.83-.72-3.9-1.83-3.9-3.54s1.17-2.64 3.45-2.64a8.025 8.025 0 014.47 1.29l1.53-2.55a11.898 11.898 0 00-6-1.62c-4.26 0-6.81 2.1-6.81 5.7 0 3.48 3.09 5.01 5.79 6.06 2.31.9 4.32 2.04 4.32 4.11 0 1.95-1.62 2.85-3.96 2.85M1352.2 99.846c3.66-2.91 7.95-7.92 7.95-12.54 0-3.66-2.13-5.76-5.82-5.76a11.961 11.961 0 00-6.42 1.77l1.44 2.52a8.17 8.17 0 014.41-1.41c2.13 0 3.12 1.26 3.12 3.27 0 4.02-5.22 9.48-9.33 12.57v2.58h12.6l.6-2.88h-8.55zm-6.862-7.5c0-7.11-2.73-10.8-7.35-10.8-4.62 0-7.35 3.69-7.35 10.8s2.73 10.8 7.35 10.8c4.62 0 7.35-3.69 7.35-10.8m-11.43 0c0-5.58 1.68-7.92 4.08-7.92 2.4 0 4.08 2.34 4.08 7.92s-1.68 7.92-4.08 7.92c-2.4 0-4.08-2.34-4.08-7.92m-20.939 7.92a7.816 7.816 0 01-4.92-1.62l-1.71 2.64a11.459 11.459 0 006.63 1.86c4.71 0 7.32-2.19 7.32-5.91 0-3.9-2.91-5.34-6.21-6.63-1.83-.72-3.9-1.83-3.9-3.54s1.17-2.64 3.45-2.64a8.025 8.025 0 014.47 1.29l1.53-2.55a11.898 11.898 0 00-6-1.62c-4.26 0-6.81 2.1-6.81 5.7 0 3.48 3.09 5.01 5.79 6.06 2.31.9 4.32 2.04 4.32 4.11 0 1.95-1.62 2.85-3.96 2.85m-16.512 0a7.816 7.816 0 01-4.92-1.62l-1.71 2.64a11.459 11.459 0 006.63 1.86c4.71 0 7.32-2.19 7.32-5.91 0-3.9-2.91-5.34-6.21-6.63-1.83-.72-3.9-1.83-3.9-3.54s1.17-2.64 3.45-2.64a8.025 8.025 0 014.47 1.29l1.53-2.55a11.898 11.898 0 00-6-1.62c-4.26 0-6.81 2.1-6.81 5.7 0 3.48 3.09 5.01 5.79 6.06 2.31.9 4.32 2.04 4.32 4.11 0 1.95-1.62 2.85-3.96 2.85m-561.056-18.42l-.6 2.88h5.04v15.24h-5.49v2.88h13.5v-2.88h-4.86v-18.12zm-3.396 10.5c0-7.11-2.73-10.8-7.35-10.8-4.62 0-7.35 3.69-7.35 10.8s2.73 10.8 7.35 10.8c4.62 0 7.35-3.69 7.35-10.8m-11.43 0c0-5.58 1.68-7.92 4.08-7.92 2.4 0 4.08 2.34 4.08 7.92s-1.68 7.92-4.08 7.92c-2.4 0-4.08-2.34-4.08-7.92m-20.939 7.92a7.816 7.816 0 01-4.92-1.62l-1.71 2.64a11.459 11.459 0 006.63 1.86c4.71 0 7.32-2.19 7.32-5.91 0-3.9-2.91-5.34-6.21-6.63-1.83-.72-3.9-1.83-3.9-3.54s1.17-2.64 3.45-2.64a8.025 8.025 0 014.47 1.29l1.53-2.55a11.898 11.898 0 00-6-1.62c-4.26 0-6.81 2.1-6.81 5.7 0 3.48 3.09 5.01 5.79 6.06 2.31.9 4.32 2.04 4.32 4.11 0 1.95-1.62 2.85-3.96 2.85m-16.512 0a7.816 7.816 0 01-4.92-1.62l-1.71 2.64a11.459 11.459 0 006.63 1.86c4.71 0 7.32-2.19 7.32-5.91 0-3.9-2.91-5.34-6.21-6.63-1.83-.72-3.9-1.83-3.9-3.54s1.17-2.64 3.45-2.64a8.025 8.025 0 014.47 1.29l1.53-2.55a11.898 11.898 0 00-6-1.62c-4.26 0-6.81 2.1-6.81 5.7 0 3.48 3.09 5.01 5.79 6.06 2.31.9 4.32 2.04 4.32 4.11 0 1.95-1.62 2.85-3.96 2.85M186.435 606.154c-33.9 0-57.9 16.8-57.9 45.9 0 31.2 18.3 45.6 47.4 45.6 19.8 0 32.1-6.6 43.2-17.7h1.2c2.7 9.3 10.2 17.7 24.3 17.7 6 0 13.5-1.2 18-3v-23.1h-3.3c-6.6 0-10.8-3.3-10.8-10.8v-64.2c0-31.8-11.1-56.4-57.9-56.4a149.835 149.835 0 00-54 9.9l9 24.3c14.1-5.1 27.6-8.1 41.4-8.1 22.5 0 30.3 11.4 30.3 29.7v10.2zm30.9 24.3v23.7c-9 11.4-20.7 18.9-35.4 18.9-12.3 0-22.5-6.6-22.5-20.4s10.8-22.2 25.8-22.2z"/></g><path class="cls-3" d="M244.035 327.846v-28.8h-34.5v-152.4h30l6-28.8H142.634v28.8h34.5v152.4h-34.5v28.8h101.401zm620.983-155.4h1.199l14.4 155.4h32.401l-19.5-210h-39.901l-46.5 138h-.9l-46.5-138h-39.899l-19.5 210h32.399l14.4-155.4h1.201l42.599 127.8h31.5l42.601-127.8z"/><g class="cls-2"><path class="cls-3" d="M1469.651 668.854a84.666 84.666 0 01-24.6 4.2c-11.7 0-20.4-5.4-20.4-20.7v-83.1h40.2l6-26.1h-46.2v-47.4l-31.2 6v41.4h-26.1v26.1h26.1v81.6c0 35.7 20.4 48.3 48 48.3a105.14 105.14 0 0032.7-5.4zm-689.083 22.8l38.7 6c16.2 2.7 24.3 7.8 24.3 17.7 0 11.7-9 20.7-37.5 20.7-27.6 0-39.6-8.4-39.6-21.9 0-10.2 5.7-17.4 14.1-22.5m26.1-126c21.6 0 32.1 12 32.1 28.2s-10.5 28.2-32.1 28.2-32.1-12-32.1-28.2 10.5-28.2 32.1-28.2m62.4 28.2c0-12-3.3-22.2-9-30.6h18.3l6-29.1-47.7 11.4a83.608 83.608 0 00-30-5.4c-37.5 0-62.4 20.1-62.4 53.7 0 17.4 6.6 31.2 18 40.5-9 6.3-15.6 16.2-15.6 26.4 0 8.4 2.4 17.1 11.7 23.4-11.4 7.5-20.4 19.2-20.4 35.4 0 27 24 42.6 68.1 42.6 39.3 0 69.3-14.7 69.3-47.4 0-28.5-24.9-38.7-44.4-42l-42.9-6.9c-8.4-1.5-12-6-12-12.6a12.418 12.418 0 014.8-9.3 85.096 85.096 0 0025.8 3.6c37.5 0 62.4-20.1 62.4-53.7M1356.7 320.346c10.8 7.8 20.7 10.5 33 10.5 28.8 0 43.8-23.4 53.1-48l62.1-165h-36l-41.1 115.8h-1.2l-52.2-115.8h-37.8l69.9 148.8h9l-3.9 9.9c-6.6 16.8-12.6 25.5-22.2 25.5-6.9 0-12.3-2.1-18-6.6z"/><path class="cls-4" d="M534.2 679.954c2.7 9.3 10.2 17.7 24.3 17.7 6 0 13.5-1.2 18-3v-23.1h-3.3c-6.6 0-10.8-3.3-10.8-10.8v-108.6c-22.2-8.7-39.6-12-60.6-12-51 0-70.8 33.9-70.8 79.5s16.8 79.5 60 79.5c18.9 0 32.1-7.2 42-19.2zm-37.8-6.9c-25.2 0-33.6-21.9-33.6-53.4s11.4-53.4 39-53.4c12.3 0 20.1 2.1 29.4 6.3v78.6c-8.7 13.8-20.1 21.9-34.8 21.9"/></g><path class="cls-4" d="M483.8 117.846h32.4v210h-32.4zm692.684 57h1.2v153h32.4v-210h-38.7l-57.6 120h-.9l-57.6-120h-38.7v210h32.4v-153h1.2l52.8 110.4h20.7l52.8-110.4zm499.184 394.408h33v126.9h31.2v-126.9h33.3l6-26.1h-39.3v-47.4l-31.2 6v41.4h-33v26.1z"/><g class="cls-2"><path class="cls-4" d="M1176.184 552.154c-22.5-8.4-42-12-63-12-42.6 0-71.7 29.7-71.7 79.5s23.4 79.5 61.8 79.5c16.8 0 28.8-6 40.5-17.7h1.2v19.5c0 25.2-14.4 35.1-39 35.1-16.2 0-28.8-4.2-42.6-11.4l-10.8 25.8c17.7 8.1 34.2 11.7 54.9 11.7 46.2 0 68.7-24.9 68.7-59.1zm-66.3 120.9c-24.6 0-36.6-20.1-36.6-53.4 0-33.6 16.5-53.4 39.6-53.4a91.747 91.747 0 0132.1 5.7v80.1c-9.3 12.6-23.1 21-35.1 21"/></g><path class="cls-4" d="M1713.167 265.146h8.7l-23.7 62.7h34.2l79.2-210h-35.7l-41.4 114.3h-1.2l-52.2-114.3h-37.8l69.9 147.3z"/><path d="M358 600.848v.167h-31.445v5.555H358v.167l-10.056 9.889 3.834 3.833 16.667-16.667-16.667-16.666-3.834 3.833L358 600.848zm-1.666-368.307v.167h-31.445v5.555h31.445v.167l-10.056 9.889 3.834 3.833 16.667-16.667-16.667-16.666-3.834 3.833 10.056 9.889zm614.166 0v.167h-31.445v5.555H970.5v.167l-10.056 9.889 3.834 3.833 16.667-16.667-16.667-16.666-3.834 3.833 10.056 9.889zm613.333 368.307v.167h-31.445v5.555h31.445v.167l-10.056 9.889 3.834 3.833 16.666-16.667-16.666-16.666-3.834 3.833 10.056 9.889zm-613.333 0v.167h-31.445v5.555H970.5v.167l-10.056 9.889 3.834 3.833 16.667-16.667-16.667-16.666-3.834 3.833 10.056 9.889zm613.333-368.307v.167h-31.445v5.555h31.445v.167l-10.056 9.889 3.834 3.833 16.666-16.667-16.666-16.666-3.834 3.833 10.056 9.889z" fill="#ff0"/></svg>