<svg width="1280" height="757" fill="none" xmlns="http://www.w3.org/2000/svg"><path fill="#25AEEC" d="M-1 0h1281v757H-1z"/><path fill-rule="evenodd" clip-rule="evenodd" d="M454.745 357.108h-206.98c-13.143 0-18.162-5.085-18.162-18.162V131.963c0-13.143 5.085-18.162 18.162-18.162h206.98c13.142 0 18.162 5.085 18.162 18.162v206.983c.066 13.143-5.02 18.162-18.162 18.162z" fill="#fff"/><path d="M258.2 278.845l-2.444 7.133h-2.576l-2.377-7.133h-.066l-.793 8.983h-2.509l1.255-13.738h2.773l2.972 8.85h.066l2.972-8.85h2.774l1.255 13.738h-2.51l-.792-8.983zm12.878 6.406l.859 1.916c-.991.462-2.18.858-3.435.858-2.972 0-4.953-1.915-4.953-5.217 0-3.303 1.783-5.218 4.623-5.218 2.642 0 4.227 1.651 4.227 4.425 0 .264-.066.991-.132 1.519h-6.274c.264 1.519 1.321 2.378 2.641 2.378.793 0 1.784-.33 2.444-.661zm-.991-3.566c0-1.123-.726-1.982-1.981-1.982-1.056 0-1.915.661-2.113 1.982h4.094zm11.822 5.746c-.858.396-1.849.594-2.84.594-3.236 0-5.019-2.311-5.019-5.217 0-2.906 1.651-5.218 4.887-5.218.925 0 1.982.198 2.84.528l-.792 1.916a4.965 4.965 0 00-1.916-.397c-1.453 0-2.509 1.255-2.509 3.105 0 1.849 1.056 3.104 2.509 3.104.661 0 1.453-.132 2.048-.397l.792 1.982zm.793-9.642h8.651l-.396 2.113h-2.774v7.924h-2.443v-7.924h-3.104v-2.113h.066zm15.124 3.433c0-.991-.463-1.519-1.717-1.519-.859 0-1.717.198-2.642.528l-.727-1.981c1.189-.462 2.378-.66 3.633-.66 3.038 0 3.896 1.585 3.896 3.698v3.831c0 .462.265.726.727.726h.198v1.915c-.264.132-.925.198-1.387.198-.858 0-1.453-.33-1.783-.99h-.066c-.727.726-1.519.99-2.642.99-1.915 0-3.104-.924-3.104-2.972 0-1.915 1.519-2.971 3.765-2.971h1.849v-.793zm0 3.698v-1.122h-1.783c-.925 0-1.387.462-1.387 1.122 0 .661.462.991 1.056.991.793 0 1.585-.396 2.114-.991zm10.236.794c.991-1.717 1.255-3.434 1.255-6.802v-1.123h6.869v7.925h1.585l-.397 4.623h-2.047v-2.509h-6.208v2.509h-2.047l-.397-4.623h1.387zm3.633-5.812c0 2.246-.198 4.293-.991 5.812h3.104v-5.812h-2.113zm11.689.131c0 5.217-1.188 7.859-3.434 7.859-.528 0-.991-.132-1.387-.33l.595-1.916c.132.066.264.132.462.132.793 0 1.387-1.32 1.387-6.67v-1.254h7v10.038h-2.443v-7.925h-2.246v.066h.066zm9.181 3.897c-1.189-.462-1.85-1.519-1.85-2.971 0-1.915 1.321-3.17 3.501-3.17h4.16v10.037h-2.443v-3.566h-.991l-2.179 3.566h-2.708l2.51-3.896zm1.783-1.783h1.519v-2.245h-1.519c-.727 0-1.189.462-1.189 1.123 0 .66.462 1.122 1.189 1.122zm20.077 5.679h-2.444v-7.924h-3.17v7.924h-2.443v-10.037h8.057v10.037zm7.859-6.604c0-.991-.462-1.519-1.717-1.519-.859 0-1.717.198-2.642.528l-.726-1.981c1.188-.462 2.377-.66 3.632-.66 3.038 0 3.897 1.585 3.897 3.698v3.831c0 .462.264.726.726.726h.198v1.915c-.264.132-.924.198-1.387.198-.858 0-1.453-.33-1.783-.99h-.066c-.726.726-1.519.99-2.642.99-1.915 0-3.104-.924-3.104-2.972 0-1.915 1.519-2.971 3.765-2.971h1.849v-.793zm0 3.698v-1.122h-1.783c-.925 0-1.387.462-1.387 1.122 0 .661.462.991 1.057.991.792 0 1.585-.396 2.113-.991zm12.548 2.511c-.858.396-1.849.594-2.84.594-3.236 0-5.019-2.311-5.019-5.217 0-2.906 1.651-5.218 4.887-5.218.925 0 1.982.198 2.84.528l-.792 1.916a4.965 4.965 0 00-1.916-.397c-1.453 0-2.509 1.255-2.509 3.105 0 1.849 1.056 3.104 2.509 3.104.661 0 1.453-.132 2.048-.397l.792 1.982zm9.048 0c-.858.396-1.849.594-2.84.594-3.236 0-5.019-2.311-5.019-5.217 0-2.906 1.651-5.218 4.887-5.218.925 0 1.982.198 2.84.528l-.792 1.916a4.965 4.965 0 00-1.916-.397c-1.453 0-2.509 1.255-2.509 3.105 0 1.849 1.056 3.104 2.509 3.104.661 0 1.453-.132 2.048-.397l.792 1.982zm6.869-6.209c0-.991-.463-1.519-1.717-1.519-.859 0-1.718.198-2.642.528l-.727-1.981c1.189-.462 2.378-.66 3.633-.66 3.038 0 3.896 1.585 3.896 3.698v3.831c0 .462.264.726.727.726h.198v1.915c-.264.132-.925.198-1.387.198-.859 0-1.453-.33-1.783-.99h-.066c-.727.726-1.519.99-2.642.99-1.915 0-3.104-.924-3.104-2.972 0-1.915 1.519-2.971 3.764-2.971h1.85v-.793zm0 3.698v-1.122h-1.783c-.925 0-1.387.462-1.387 1.122 0 .661.462.991 1.056.991.793 0 1.585-.396 2.114-.991zm12.416-1.254h-.462v4.16h-2.378v-4.16h-.462l-2.378 4.16h-2.708l3.236-5.151-3.037-4.821h2.509l2.312 3.83h.528v-3.83h2.378v3.83h.528l2.311-3.83h2.51l-3.038 4.821 3.236 5.151-2.576.199-2.509-4.359zm13.076-1.849l-4.094 6.009h-2.246v-10.037h2.444v6.009h.066l4.029-6.009h2.245v10.037h-2.444v-6.009zm7.728-3.17c.66-.661 1.518-1.057 2.575-1.057 2.84 0 4.095 2.179 4.095 5.217s-1.321 5.218-4.293 5.218a8.091 8.091 0 01-2.311-.331v4.095l-2.444.396v-14.331h1.849l.396.859h.133v-.066zm4.226 4.16c0-1.849-.726-3.104-2.245-3.104-.661 0-1.321.396-1.915.991v4.689c.528.33 1.254.528 1.981.528 1.321 0 2.179-1.122 2.179-3.104zm4.227.001c0-3.237 1.915-5.218 4.689-5.218s4.689 1.915 4.689 5.218c0 3.302-1.915 5.217-4.689 5.217s-4.689-1.981-4.689-5.217zm2.444 0c0 1.915.924 3.104 2.245 3.104 1.321 0 2.245-1.189 2.245-3.104 0-1.916-.924-3.105-2.245-3.105-1.255 0-2.245 1.189-2.245 3.105zm17.303 2.179c0 1.718-1.123 2.775-3.434 2.775h-4.557v-10.041h4.16c1.916 0 3.369.66 3.369 2.444 0 1.057-.595 1.85-1.718 2.246v.066c1.321.396 2.18 1.189 2.18 2.51zm-5.548-5.086v1.783h1.255c.859 0 1.387-.264 1.387-.859 0-.66-.594-.858-1.387-.858h-1.255v-.066zm0 3.699v2.114h1.585c.925 0 1.453-.33 1.453-1.057 0-.727-.528-.991-1.453-.991h-1.585v-.066zm-190.733 23.841h-2.443v-7.924h-3.17v7.924h-2.444v-10.037h8.057v10.037zm2.378-5.018c0-3.236 1.915-5.218 4.689-5.218s4.689 1.915 4.689 5.218c0 3.302-1.915 5.218-4.689 5.218s-4.689-1.916-4.689-5.218zm2.443 0c0 1.915.925 3.104 2.246 3.104s2.245-1.189 2.245-3.104c0-1.916-.924-3.104-2.245-3.104-1.321 0-2.246 1.188-2.246 3.104zm16.049.858h-.463v4.161h-2.377v-4.161h-.462l-2.378 4.161h-2.708l3.236-5.152-3.038-4.821h2.51l2.312 3.83h.528v-3.83h2.377v3.83h.529l2.311-3.83h2.51l-3.038 4.821 3.236 5.152-2.576.198-2.509-4.359zm13.143-1.849l-4.095 6.009h-2.246v-10.037h2.444v6.009h.066l4.029-6.009h2.245v10.037h-2.443v-6.009zm8.849-1.784c0 5.218-1.188 7.86-3.434 7.86-.528 0-.991-.132-1.387-.33l.595-1.915c.132.066.264.132.462.132.792 0 1.387-1.321 1.387-6.671v-1.255h7v10.039h-2.443v-7.926h-2.246v.066h.066zm7.067 2.775c0-3.236 1.915-5.218 4.689-5.218s4.689 1.915 4.689 5.218c0 3.302-1.915 5.218-4.689 5.218s-4.689-1.916-4.689-5.218zm2.444 0c0 1.915.924 3.104 2.245 3.104 1.321 0 2.246-1.189 2.246-3.104 0-1.916-.925-3.104-2.246-3.104s-2.245 1.188-2.245 3.104zm15.784-5.019l-.396 2.113h-3.633v7.924h-2.443v-10.037h6.472zm.66 5.019c0-3.236 1.916-5.218 4.689-5.218 2.774 0 4.689 1.915 4.689 5.218 0 3.302-1.915 5.218-4.689 5.218-2.773 0-4.689-1.916-4.689-5.218zm2.51 0c0 1.915.925 3.104 2.245 3.104 1.321 0 2.246-1.189 2.246-3.104 0-1.916-.925-3.104-2.246-3.104-1.32 0-2.245 1.188-2.245 3.104zm22.389 2.245c0 1.717-1.123 2.773-3.435 2.773h-4.557v-10.037h4.161c1.915 0 3.368.661 3.368 2.444 0 1.056-.594 1.848-1.717 2.245v.066c1.321.33 2.18 1.188 2.18 2.509zm-5.548-5.151v1.783h1.255c.858 0 1.387-.264 1.387-.858 0-.66-.595-.859-1.387-.859h-1.255v-.066zm0 3.698v2.113h1.585c.925 0 1.453-.33 1.453-1.056 0-.727-.528-.991-1.453-.991h-1.585v-.066zm7.265-.792c0-3.236 1.915-5.218 4.689-5.218s4.689 1.915 4.689 5.218c0 3.302-1.915 5.218-4.689 5.218s-4.689-1.916-4.689-5.218zm2.509 0c0 1.915.925 3.104 2.246 3.104s2.245-1.189 2.245-3.104c0-1.916-.924-3.104-2.245-3.104-1.321 0-2.246 1.188-2.246 3.104zm14.134-.264c1.321.396 2.113 1.188 2.113 2.509 0 1.783-1.519 2.972-4.293 2.972-1.188 0-2.641-.264-3.434-.594l.793-1.916c.66.265 1.783.463 2.641.463 1.123 0 1.916-.397 1.916-1.123 0-.66-.595-1.123-1.916-1.123h-1.254v-1.915h1.254c.859 0 1.519-.264 1.519-1.057 0-.594-.462-.99-1.453-.99-.726 0-1.717.132-2.575.396l-.793-1.915c.925-.396 2.576-.595 3.5-.595 2.246 0 3.699.859 3.699 2.642 0 .991-.528 1.849-1.717 2.246zm6.736-3.831c.66-.66 1.519-1.057 2.576-1.057 2.84 0 4.094 2.18 4.094 5.218s-1.32 5.217-4.292 5.217a8.135 8.135 0 01-2.312-.33v4.095l-2.443.396v-14.331h1.849l.396.858h.132v-.066zm4.161 4.095c0-1.849-.727-3.104-2.246-3.104-.66 0-1.321.396-1.915.99v4.69c.528.33 1.255.528 1.981.528 1.387 0 2.18-1.123 2.18-3.104zm9.774-1.519c0-.991-.462-1.519-1.717-1.519-.858 0-1.717.198-2.642.528l-.726-1.981c1.189-.462 2.377-.661 3.632-.661 3.038 0 3.897 1.585 3.897 3.699v3.83c0 .462.264.727.726.727h.198v1.915c-.264.132-.924.198-1.386.198-.859 0-1.453-.33-1.784-.991h-.066c-.726.727-1.519.991-2.641.991-1.916 0-3.104-.925-3.104-2.972 0-1.915 1.519-2.972 3.764-2.972h1.849v-.792zm0 3.632v-1.123h-1.783c-.925 0-1.387.463-1.387 1.123 0 .66.462.991 1.057.991.792 0 1.585-.331 2.113-.991zm12.549 2.51c-.859.396-1.85.595-2.84.595-3.236 0-5.02-2.312-5.02-5.218s1.652-5.218 4.888-5.218c.924 0 1.981.198 2.84.528l-.793 1.916a4.977 4.977 0 00-1.915-.396c-1.453 0-2.51 1.254-2.51 3.104 0 1.849 1.057 3.104 2.51 3.104.66 0 1.453-.132 2.047-.396l.793 1.981zm.792-9.642h8.652l-.397 2.113h-2.773v7.924h-2.444v-7.924h-3.104v-2.113h.066zm15.124 3.5c0-.991-.462-1.519-1.717-1.519-.859 0-1.717.198-2.642.528l-.726-1.981c1.188-.462 2.377-.661 3.632-.661 3.038 0 3.896 1.585 3.896 3.699v3.83c0 .462.265.727.727.727h.198v1.915c-.264.132-.925.198-1.387.198-.858 0-1.453-.33-1.783-.991h-.066c-.727.727-1.519.991-2.642.991-1.915 0-3.104-.925-3.104-2.972 0-1.915 1.519-2.972 3.765-2.972h1.849v-.792zm0 3.632v-1.123h-1.783c-.925 0-1.387.463-1.387 1.123 0 .66.462.991 1.056.991.793 0 1.586-.331 2.114-.991zM249.68 321.84l-.66 3.633h-1.585l1.783-10.303h3.236c1.849 0 2.906.991 2.906 2.84 0 2.245-1.717 3.83-4.095 3.83h-1.585zm.925-5.283l-.661 3.83h1.651c1.255 0 2.18-.99 2.18-2.443 0-.925-.528-1.453-1.453-1.453h-1.717v.066zm9.906 2.841a2.013 2.013 0 00-.726-.133c-.859 0-1.519.859-1.849 1.85l-.793 4.358h-1.519l1.321-7.528h1.057l.066 1.188h.066c.528-.792 1.122-1.321 2.179-1.321.33 0 .661.067.925.133l-.727 1.453zm.661-.199l.528-1.255h2.576l-1.321 7.529h-1.519l1.056-6.208h-1.32v-.066zm2.707-4.359c.529 0 .925.396.925.924a.903.903 0 01-.925.925.903.903 0 01-.924-.925c0-.528.462-.924.924-.924zm5.614 2.972c1.915 0 2.84 1.189 2.84 2.972 0 2.576-1.585 4.821-4.227 4.821-1.849 0-2.84-.991-2.84-2.972 0-2.575 1.585-4.821 4.227-4.821zm-1.123 6.472c1.387 0 2.444-1.519 2.444-3.434 0-1.188-.528-1.783-1.519-1.783-1.387 0-2.444 1.519-2.444 3.434 0 1.189.529 1.783 1.519 1.783zm9.775-4.886a2.015 2.015 0 00-.727-.133c-.858 0-1.519.859-1.849 1.85l-.792 4.358h-1.519l1.32-7.528h1.123l.066 1.188h.066c.529-.792 1.123-1.321 2.18-1.321.33 0 .66.067.924.133l-.792 1.453zm.726-.199l.529-1.255h2.575l-1.321 7.529h-1.519l1.123-6.208h-1.387v-.066zm2.708-4.359c.528 0 .925.396.925.924a.903.903 0 01-.925.925.903.903 0 01-.925-.925c0-.528.397-.924.925-.924zm3.302 1.254l1.585-.264-.396 2.113h2.245l-.528 1.255h-1.981l-.727 4.095v.264c0 .528.331.726.859.726.396 0 .66-.066 1.123-.198l.132 1.189a5.064 5.064 0 01-1.651.264c-1.189 0-1.982-.462-1.982-1.717 0-.198 0-.396.066-.66l.727-4.029h-1.255l.198-1.255h1.255l.33-1.783zm3.17 11.096c.198.132.463.198.793.198s.726-.198 1.057-.858l.528-1.057h-.528l-1.321-7.53h1.519l.99 5.945h.066l2.906-5.945h1.651l-4.491 8.983c-.726 1.453-1.651 1.783-2.443 1.783-.529 0-.925-.132-1.255-.264l.528-1.255zm16.445-4.095c0 1.52-1.387 2.444-3.236 2.444-.925 0-1.783-.198-2.378-.528l.727-1.189c.528.264 1.123.396 1.849.396.66 0 1.519-.33 1.519-1.056 0-.661-.66-.859-1.387-1.123-.726-.264-1.783-.925-1.783-2.114 0-1.519 1.255-2.245 2.906-2.245.858 0 1.717.198 2.377.528l-.66 1.123c-.528-.198-1.123-.396-1.783-.396-.661 0-1.321.264-1.321.924 0 .595.66.859 1.189 1.057.924.462 1.981 1.057 1.981 2.179zm1.453-.462c0-2.575 1.519-4.821 4.227-4.821 1.453 0 2.443.661 2.443 1.982 0 1.518-1.32 2.641-5.085 2.641 0 1.189.396 1.915 1.717 1.915.661 0 1.189-.198 1.783-.462l.463 1.123a5.683 5.683 0 01-2.576.594c-2.047 0-2.972-1.189-2.972-2.972zm1.717-1.519c2.84 0 3.368-.594 3.368-1.254 0-.529-.462-.793-1.056-.793-1.057 0-1.982.859-2.312 2.047zm12.813-2.774l-1.255 7.066h-.991l-.132-.792h-.066c-.594.594-1.321.925-2.245.925-1.652 0-2.312-1.189-2.312-2.972 0-2.576 1.585-4.821 4.227-4.821a8.998 8.998 0 012.774.594zm-5.482 4.161c0 1.122.396 1.783 1.255 1.783.726 0 1.321-.396 1.849-1.057l.66-3.896c-.396-.132-.792-.264-1.386-.264-1.387 0-2.378 1.519-2.378 3.434zm8.321-6.407l1.585-.264-.396 2.113h2.246l-.529 1.255h-1.981l-.727 4.095v.264c0 .528.331.726.859.726.396 0 .66-.066 1.123-.198l.132 1.189a5.064 5.064 0 01-1.651.264c-1.189 0-1.981-.462-1.981-1.717 0-.198-.001-.396.066-.66l.726-4.029h-1.255l.198-1.255h1.255l.33-1.783zm8.652 7.001c0 1.52-1.387 2.444-3.236 2.444-.925 0-1.783-.198-2.378-.528l.727-1.189c.528.264 1.123.396 1.849.396.661 0 1.519-.33 1.519-1.056 0-.661-.66-.859-1.387-1.123-.726-.264-1.783-.925-1.783-2.114 0-1.519 1.255-2.245 2.906-2.245.859 0 1.717.198 2.378.528l-.661 1.123c-.528-.198-1.123-.396-1.783-.396-.661 0-1.321.264-1.321.924 0 .595.66.859 1.189 1.057.924.462 1.981 1.057 1.981 2.179zm10.369-5.151l-.528 1.255h-1.52l-1.254 7.133c-.331 1.717-1.321 2.312-2.576 2.312-.594 0-1.189-.199-1.651-.463l.594-1.123c.397.199.661.331 1.123.331.528 0 .859-.265.991-1.057l1.255-7.133h-1.255l.198-1.255h1.255l.198-.991c.33-1.783 1.387-2.576 2.84-2.576.726 0 1.188.132 1.717.396l-.727 1.123a2.25 2.25 0 00-1.056-.264c-.661 0-1.123.396-1.255 1.255l-.198.991h1.849v.066zm4.029-.132c1.915 0 2.839 1.189 2.839 2.972 0 2.576-1.585 4.821-4.226 4.821-1.85 0-2.84-.991-2.84-2.972.066-2.575 1.585-4.821 4.227-4.821zm-1.123 6.472c1.387 0 2.443-1.519 2.443-3.434 0-1.188-.528-1.783-1.519-1.783-1.387 0-2.443 1.519-2.443 3.434 0 1.189.528 1.783 1.519 1.783zm9.84-4.886a2.013 2.013 0 00-.726-.133c-.859 0-1.519.859-1.849 1.85l-.793 4.358h-1.519l1.321-7.528h1.123l.066 1.188h.066c.528-.792 1.122-1.321 2.179-1.321.33 0 .661.067.925.133l-.793 1.453zm9.511 3.697c0 1.52-1.387 2.444-3.237 2.444-.924 0-1.783-.198-2.377-.528l.726-1.189c.529.264 1.123.396 1.85.396.66 0 1.519-.33 1.519-1.056 0-.661-.661-.859-1.387-1.123-.727-.264-1.783-.925-1.783-2.114 0-1.519 1.254-2.245 2.905-2.245.859 0 1.718.198 2.378.528l-.66 1.123c-.529-.198-1.123-.396-1.784-.396-.66 0-1.32.264-1.32.924 0 .595.66.859 1.188 1.057.925.462 1.982 1.057 1.982 2.179zm1.452-.462c0-2.575 1.519-4.821 4.227-4.821 1.453 0 2.444.661 2.444 1.982 0 1.518-1.321 2.641-5.085 2.641 0 1.189.396 1.915 1.717 1.915.66 0 1.188-.198 1.783-.462l.462 1.123a5.68 5.68 0 01-2.576.594c-2.047 0-2.972-1.189-2.972-2.972zm1.718-1.519c2.839 0 3.368-.594 3.368-1.254 0-.529-.463-.793-1.057-.793-1.123 0-1.981.859-2.311 2.047zm7.066 4.359h-1.519l1.321-7.528h1.057l.132.792h.066c.726-.66 1.453-.925 2.245-.925 1.387 0 2.048.661 2.048 2.048 0 .264 0 .66-.066.99l-.793 4.689h-1.519l.793-4.557c.066-.264.066-.462.066-.66 0-.792-.33-1.123-1.057-1.123-.594 0-1.321.463-1.849 1.057l-.925 5.217zm6.539-6.274l.528-1.255h2.576l-1.321 7.529h-1.519l1.123-6.208h-1.387v-.066zm2.773-4.359c.529 0 .925.396.925.924a.903.903 0 01-.925.925.903.903 0 01-.924-.925c0-.528.396-.924.924-.924zm5.548 2.972c1.915 0 2.84 1.189 2.84 2.972 0 2.576-1.585 4.821-4.227 4.821-1.849 0-2.84-.991-2.84-2.972.066-2.575 1.585-4.821 4.227-4.821zm-1.123 6.472c1.387 0 2.444-1.519 2.444-3.434 0-1.188-.529-1.783-1.519-1.783-1.387 0-2.444 1.519-2.444 3.434 0 1.189.528 1.783 1.519 1.783zm9.841-4.886a2.019 2.019 0 00-.727-.133c-.858 0-1.519.859-1.849 1.85l-.793 4.358h-1.519l1.321-7.528h1.123l.066 1.188h.066c.529-.792 1.123-1.321 2.18-1.321.33 0 .66.067.924.133l-.792 1.453zm4.491 3.235c0-2.707 1.717-4.821 4.359-4.821.792 0 1.453.133 2.047.397l-.661 1.188a3.989 3.989 0 00-1.585-.33c-1.386 0-2.509 1.453-2.509 3.434 0 1.189.66 1.783 1.651 1.783.528 0 1.189-.132 1.717-.33l.33 1.189c-.66.264-1.519.462-2.311.462-1.982 0-3.038-1.189-3.038-2.972zm6.868-3.434l.529-1.255h2.575l-1.321 7.529h-1.519l1.057-6.208h-1.321v-.066zm2.708-4.359c.528 0 .925.396.925.924a.903.903 0 01-.925.925.903.903 0 01-.925-.925c0-.528.463-.924.925-.924zm3.302 1.254l1.585-.264-.396 2.113h2.245l-.528 1.255h-1.981l-.727 4.095v.264c0 .528.33.726.859.726.396 0 .66-.066 1.123-.198l.132 1.189a5.064 5.064 0 01-1.651.264c-1.189 0-1.982-.462-1.982-1.717 0-.198 0-.396.066-.66l.727-4.029h-1.255l.198-1.255h1.255l.33-1.783zm3.632 3.105l.529-1.255h2.576l-1.321 7.529h-1.519l1.122-6.208h-1.387v-.066zm2.774-4.359c.529 0 .925.396.925.924a.903.903 0 01-.925.925.903.903 0 01-.924-.925c0-.528.396-.924.924-.924zm2.18 3.103h5.547l-.198 1.189-4.755 4.954v.066h4.029l-.529 1.255h-5.613l.198-1.189 4.755-4.954v-.066h-3.632l.198-1.255zm5.944 4.69c0-2.575 1.519-4.821 4.226-4.821 1.453 0 2.444.661 2.444 1.982 0 1.518-1.321 2.641-5.085 2.641 0 1.189.396 1.915 1.717 1.915.66 0 1.189-.198 1.783-.462l.462 1.123a5.68 5.68 0 01-2.575.594c-2.048 0-2.972-1.189-2.972-2.972zm1.717-1.519c2.84 0 3.368-.594 3.368-1.254 0-.529-.462-.793-1.123-.793-1.056 0-1.915.859-2.245 2.047zm7.066 4.359h-1.519l1.321-7.528h1.123l.132.792h.066c.727-.66 1.453-.925 2.246-.925 1.387 0 2.047.661 2.047 2.048 0 .264 0 .66-.066.99l-.793 4.689h-1.519l.793-4.557c.066-.264.066-.462.066-.66 0-.792-.33-1.123-1.057-1.123-.594 0-1.321.463-1.849 1.057l-.991 5.217zm11.558-2.378c0 1.52-1.387 2.444-3.236 2.444-.925 0-1.783-.198-2.378-.528l.727-1.189c.528.264 1.122.396 1.849.396.66 0 1.519-.33 1.519-1.056 0-.661-.66-.859-1.387-1.123-.726-.264-1.783-.925-1.783-2.114 0-1.519 1.255-2.245 2.906-2.245.858 0 1.717.198 2.377.528l-.66 1.123c-.528-.198-1.123-.396-1.783-.396-.661 0-1.321.264-1.321.924 0 .595.66.859 1.189 1.057.924.462 1.981 1.057 1.981 2.179zm-133.738-73.111l-.066-31.239c-6.736-.33-14.926 1.255-24.04 4.293-2.641.858-5.613.132-7.528-2.114-11.228-13.34-13.341-29.983-11.624-46.759.396-6.406 8.718-8.982 12.614-3.698 11.294 12.68 29.059 12.548 44.051 12.35l.595 24.899c16.841 7.264 20.605 25.625 20.407 42.268h-13.935c.132-12.351-2.18-20.606-6.406-25.427l-.066 25.427h-14.002zm-3.698-13.011l-44.777 13.011-22.323-77.602 13.473-3.83 18.426 64.128 31.304-9.114 3.897 13.407zm-31.767-99.528c7.133-1.981 14.596 2.179 16.577 9.246 1.981 7.133-2.179 14.53-9.378 16.511-7.133 1.981-14.596-2.179-16.577-9.246-1.981-7.133 2.245-14.53 9.378-16.511zm35.399 67.365v-7.992c-13.935-1.056-20.407-2.047-29.455-6.802.66 6.472 2.378 12.746 5.878 18.228 8.519-2.378 16.445-3.698 23.577-3.434z" fill="#25AEEC"/><path fill-rule="evenodd" clip-rule="evenodd" d="M743.29 356.304H536.31c-13.143 0-18.162-5.084-18.162-18.157v-206.99c0-13.139 5.085-18.157 18.162-18.157h206.98c13.142 0 18.161 5.084 18.161 18.157v206.924c.067 13.139-5.019 18.223-18.161 18.223z" fill="#fff"/><path d="M546.745 278.064l-2.444 7.13h-2.576l-2.377-7.13h-.066l-.793 8.979h-2.51l1.255-13.732h2.84l2.972 8.846h.066l2.972-8.846h2.774l1.255 13.732h-2.51l-.858-8.979zm12.878 6.405l.859 1.915c-.991.462-2.18.858-3.435.858-2.972 0-4.953-1.915-4.953-5.217 0-3.301 1.783-5.216 4.623-5.216 2.642 0 4.227 1.65 4.227 4.424 0 .264-.066.991-.132 1.519h-6.274c.264 1.519 1.321 2.377 2.641 2.377.793 0 1.784-.33 2.444-.66zm-.991-3.566c0-1.123-.726-1.981-1.981-1.981-1.057 0-1.915.66-2.113 1.981h4.094zm11.822 5.745c-.858.396-1.849.594-2.84.594-3.236 0-4.953-2.311-4.953-5.217 0-2.905 1.651-5.216 4.887-5.216.925 0 1.982.198 2.84.528l-.792 1.915a4.982 4.982 0 00-1.916-.396c-1.453 0-2.509 1.254-2.509 3.103 0 1.849 1.056 3.104 2.509 3.104.661 0 1.453-.132 2.048-.396l.726 1.981zm.793-9.64h8.651l-.396 2.113h-2.774v7.922h-2.443v-7.922h-3.104v-2.113h.066zm9.51 5.017c0-3.235 1.915-5.216 4.689-5.216s4.689 1.915 4.689 5.216c0 3.236-1.915 5.217-4.689 5.217-2.774-.066-4.689-1.981-4.689-5.217zm2.443 0c0 1.915.925 3.104 2.246 3.104s2.245-1.189 2.245-3.104-.924-3.103-2.245-3.103c-1.321 0-2.246 1.122-2.246 3.103zm14.266 2.906c.991-1.717 1.255-3.433 1.255-6.801v-1.122h6.868v7.923h1.585l-.396 4.622h-2.047v-2.509h-6.209v2.509h-2.047l-.396-4.622h1.387zm3.632-5.81c0 2.245-.198 4.291-.99 5.81h3.104v-5.81h-2.114zm11.69.066c0 5.215-1.189 7.856-3.434 7.856-.529 0-.991-.132-1.387-.33l.594-1.915c.132.066.264.132.462.132.793 0 1.387-1.32 1.387-6.668v-1.254h7.001v10.035h-2.444v-7.922h-2.245v.066h.066zm9.114 3.961c-1.189-.462-1.849-1.519-1.849-2.971 0-1.915 1.32-3.169 3.5-3.169h4.161v10.035h-2.444v-3.565h-.991l-2.179 3.565h-2.708l2.51-3.895zm1.849-1.783h1.519v-2.244h-1.519c-.726 0-1.189.462-1.189 1.122 0 .66.463 1.122 1.189 1.122zm-80.176 24.89c-.859.396-1.85.594-2.84.594-3.237 0-4.954-2.311-4.954-5.215 0-2.905 1.652-5.216 4.888-5.216.924 0 1.981.198 2.84.528l-.793 1.915a4.977 4.977 0 00-1.915-.396c-1.453 0-2.51 1.254-2.51 3.103 0 1.848 1.057 3.103 2.51 3.103.66 0 1.453-.133 2.047-.397l.727 1.981zm1.188-4.621c0-3.235 1.916-5.216 4.689-5.216 2.774 0 4.689 1.915 4.689 5.216 0 3.235-1.915 5.215-4.689 5.215-2.773 0-4.689-1.98-4.689-5.215zm2.51 0c0 1.914.925 3.103 2.245 3.103 1.321 0 2.246-1.189 2.246-3.103 0-1.915-.925-3.103-2.246-3.103-1.32 0-2.245 1.188-2.245 3.103zm11.029-3.235c.793-.858 1.783-1.452 3.038-1.452 2.444 0 4.227 1.65 4.227 4.951 0 3.235-2.047 4.952-4.821 4.952-3.236 0-4.689-2.443-4.689-6.404 0-6.14 1.783-7.46 5.019-7.79 1.453-.132 2.245-.33 3.302-.726l.793 1.914c-1.123.594-2.51.858-3.831.99-2.113.132-3.104 1.057-3.038 3.565zm.198 2.047c0 2.839.793 4.291 2.246 4.291 1.321 0 2.377-.924 2.377-2.839 0-1.914-.924-2.838-2.113-2.838-.859-.066-1.849.396-2.51 1.386zm14.464-.397c0-.99-.462-1.518-1.717-1.518-.859 0-1.717.198-2.642.528l-.727-1.981c1.189-.462 2.378-.66 3.633-.66 3.038 0 3.896 1.585 3.896 3.697v3.83c0 .462.265.726.727.726h.198v1.914c-.264.132-.925.198-1.387.198-.858 0-1.453-.33-1.783-.99h-.066c-.727.726-1.519.99-2.642.99-1.915 0-3.104-.924-3.104-2.971 0-1.914 1.519-2.971 3.765-2.971h1.849v-.792zm0 3.697v-1.122h-1.783c-.925 0-1.387.462-1.387 1.122 0 .661.462.991 1.056.991.859 0 1.585-.396 2.114-.991zm8.652-1.186h-.859v4.093h-2.444v-10.036h2.444v3.83h.859l2.311-3.83h2.444l-2.906 4.82 3.104 5.15-2.51.198-2.443-4.225zm12.878-1.916l-4.095 6.008h-2.245v-10.035h2.443v6.008h.066l4.029-6.008h2.246v10.035h-2.444v-6.008zm5.019 1.452v-2.178h5.548l-.396 2.178h-5.152zm16.049 4.556h-2.444v-7.922h-3.17v7.922h-2.444v-10.035h8.058v10.035zm2.377-5.018c0-3.235 1.915-5.216 4.689-5.216s4.689 1.915 4.689 5.216c0 3.235-1.915 5.215-4.689 5.215s-4.689-1.98-4.689-5.215zm2.444 0c0 1.914.924 3.103 2.245 3.103 1.321 0 2.246-1.189 2.246-3.103 0-1.915-.925-3.103-2.246-3.103s-2.245 1.188-2.245 3.103zm17.303 2.179c0 1.717-1.123 2.773-3.434 2.773h-4.557v-10.035h4.161c1.915 0 3.368.66 3.368 2.443 0 1.056-.595 1.848-1.717 2.244v.066c1.321.397 2.179 1.189 2.179 2.509zm-5.547-5.083v1.782h1.254c.859 0 1.387-.264 1.387-.858 0-.66-.594-.858-1.387-.858h-1.254v-.066zm0 3.697v2.112h1.585c.924 0 1.452-.33 1.452-1.056s-.528-.99-1.452-.99h-1.585v-.066zm7.33-.793c0-3.235 1.916-5.216 4.689-5.216 2.774 0 4.69 1.915 4.69 5.216 0 3.235-1.916 5.215-4.69 5.215-2.773 0-4.689-1.98-4.689-5.215zm2.444 0c0 1.914.925 3.103 2.245 3.103 1.321 0 2.246-1.189 2.246-3.103 0-1.915-.925-3.103-2.246-3.103-1.32 0-2.245 1.188-2.245 3.103zm8.982 2.906c.99-1.716 1.255-3.433 1.255-6.8v-1.123h6.868v7.923h1.585l-.396 4.622h-2.047v-2.509h-6.208v2.509h-2.048l-.396-4.622h1.387zm3.566-5.81c0 2.245-.198 4.292-.99 5.81h3.104v-5.81h-2.114zm11.756 1.452c2.179 0 3.566 1.189 3.566 3.236s-1.387 3.169-3.566 3.169h-3.897v-10.036h2.444v3.565h1.453v.066zm-1.519 2.047v2.311h1.321c.792 0 1.321-.462 1.321-1.188 0-.661-.463-1.189-1.321-1.189h-1.321v.066zm8.718 4.424h-2.444v-10.036h2.444v10.036zm5.217-9.179c.66-.66 1.519-1.056 2.576-1.056 2.84 0 4.094 2.179 4.094 5.216 0 3.037-1.32 5.216-4.292 5.216a8.135 8.135 0 01-2.312-.33v4.093l-2.443.396v-14.327h1.849l.396.858h.132v-.066zm4.227 4.16c0-1.849-.727-3.103-2.246-3.103-.66 0-1.32.396-1.915.99v4.688c.528.33 1.255.528 1.981.528 1.387 0 2.18-1.122 2.18-3.103zm6.34 1.123c-1.189-.462-1.849-1.518-1.849-2.971 0-1.914 1.321-3.169 3.5-3.169h4.161v10.035h-2.444v-3.565h-.99l-2.18 3.565h-2.708l2.51-3.895zm1.849-1.782h1.519v-2.245h-1.519c-.726 0-1.189.462-1.189 1.122 0 .66.463 1.123 1.189 1.123zm-150.711 17.694c1.123.528 2.51 1.386 2.51 2.905 0 2.047-1.585 3.169-4.029 3.169-1.32 0-2.245-.33-3.17-.924l.793-1.321c.726.529 1.519.793 2.642.793 1.32 0 2.179-.529 2.179-1.651 0-.924-.793-1.32-1.849-1.783-1.123-.528-2.312-1.32-2.312-2.773 0-1.914 1.321-2.971 3.633-2.971 1.188 0 2.179.264 2.906.793l-.925 1.188c-.661-.396-1.387-.594-2.312-.594-1.056 0-1.783.528-1.783 1.386.066.991.991 1.453 1.717 1.783zm3.633 3.17c0-2.576 1.519-4.821 4.226-4.821 1.453 0 2.444.66 2.444 1.981 0 1.519-1.321 2.642-5.085 2.642 0 1.188.396 1.915 1.717 1.915.66 0 1.189-.198 1.783-.463l.462 1.123a5.68 5.68 0 01-2.575.595c-2.048 0-2.972-1.189-2.972-2.972zm1.717-1.519c2.84 0 3.368-.595 3.368-1.255 0-.528-.462-.793-1.123-.793-.99 0-1.915.859-2.245 2.048zm12.812-2.773l-1.255 7.063h-.99l-.132-.792h-.066c-.595.594-1.321.924-2.246.924-1.651 0-2.311-1.188-2.311-2.97 0-2.575 1.585-4.819 4.227-4.819 1.056 0 1.915.264 2.773.594zm-5.481 4.159c0 1.122.396 1.782 1.254 1.782.727 0 1.321-.396 1.85-1.056l.66-3.895c-.396-.132-.792-.264-1.387-.264-1.387 0-2.377 1.519-2.377 3.433zm8.321-6.405l1.585-.264-.396 2.113h2.245l-.528 1.254h-1.981l-.727 4.094v.264c0 .528.33.726.859.726.396 0 .66-.066 1.122-.198l.133 1.188a5.064 5.064 0 01-1.651.264c-1.189 0-1.982-.462-1.982-1.716 0-.198 0-.396.066-.66l.727-4.028h-1.255l.198-1.254h1.255l.33-1.783zm12.548 1.85l-.528 1.254h-1.519l-1.255 7.13c-.33 1.717-1.321 2.311-2.575 2.311-.595 0-1.255-.198-1.652-.462l.595-1.123c.396.198.66.33 1.123.33.528 0 .858-.264.99-1.056l1.255-7.13h-1.255l.198-1.254h1.255l.198-.99c.331-1.783 1.387-2.575 2.84-2.575.727 0 1.189.132 1.717.396l-.726 1.122a2.254 2.254 0 00-1.057-.264c-.66 0-1.123.396-1.255 1.255l-.198.99h1.849v.066zm4.029-.198c1.915 0 2.84 1.188 2.84 2.971 0 2.574-1.585 4.818-4.227 4.818-1.849 0-2.84-.99-2.84-2.97.066-2.575 1.585-4.819 4.227-4.819zm-1.123 6.535c1.387 0 2.444-1.518 2.444-3.432 0-1.189-.529-1.783-1.519-1.783-1.387 0-2.444 1.519-2.444 3.433 0 1.188.529 1.782 1.519 1.782zm9.841-4.95c-.199-.066-.397-.132-.727-.132-.858 0-1.519.858-1.849 1.848l-.793 4.358h-1.519l1.321-7.527h1.057l.066 1.189h.066c.528-.793 1.123-1.321 2.18-1.321.33 0 .66.066.924.132l-.726 1.453zm8.915 6.337l.199-.925h-.066c-.661.594-1.321.859-2.114.859-1.651 0-2.443-.991-2.443-2.972 0-2.575 1.651-4.819 4.292-4.819 1.057 0 1.982.198 2.972.594l-1.32 7.395c-.331 1.98-1.718 2.905-3.831 2.905-.991 0-1.783-.198-2.576-.594l.661-1.255c.594.33 1.255.594 2.047.594 1.255-.066 1.981-.528 2.179-1.782zm-2.839-3.17c0 1.189.462 1.783 1.453 1.783.594 0 1.32-.396 1.915-1.056l.66-3.962c-.462-.198-.924-.264-1.519-.264-1.453.066-2.509 1.585-2.509 3.499zm8.453 0c-.066.264-.066.462-.066.66 0 .793.396 1.123 1.123 1.123.594 0 1.519-.462 1.981-1.057l.925-5.347h1.519l-1.321 7.526h-.991l-.132-.792h-.066c-.726.66-1.651.924-2.509.924-1.387 0-2.114-.66-2.114-2.047 0-.264 0-.66.066-.99l.793-4.687h1.519l-.727 4.687zm6.472-3.301l.529-1.254h2.575l-1.32 7.527h-1.519l1.122-6.207h-1.387v-.066zm2.708-4.357c.529 0 .925.396.925.924a.903.903 0 01-.925.925.903.903 0 01-.924-.925c0-.528.396-.924.924-.924zm5.614 2.906c.66 0 1.189.132 1.585.33l.594-3.433 1.585-.264-1.915 11.024h-.99l-.133-.792h-.066c-.66.594-1.387.924-2.377.924-1.519 0-2.444-.99-2.444-2.97-.066-2.575 1.519-4.819 4.161-4.819zm.726 5.479l.661-3.697c-.396-.33-.925-.528-1.585-.528-1.387 0-2.444 1.518-2.444 3.433 0 1.188.529 1.782 1.519 1.782.727.066 1.255-.33 1.849-.99zm3.435-.593c0-2.576 1.519-4.821 4.226-4.821 1.453 0 2.444.66 2.444 1.981 0 1.519-1.321 2.642-5.085 2.642 0 1.188.396 1.915 1.717 1.915.66 0 1.189-.198 1.783-.463l.462 1.123a5.68 5.68 0 01-2.575.595c-2.048 0-2.972-1.189-2.972-2.972zm1.717-1.519c2.84 0 3.368-.595 3.368-1.255 0-.528-.462-.793-1.057-.793-1.056 0-1.981.859-2.311 2.048zm5.944.727l.264-1.322h3.962l-.528 1.322h-3.698zm9.642-4.094c.661 0 1.189.132 1.585.33l.595-3.433 1.585-.264-1.916 11.024h-.99l-.132-.792h-.066c-.661.594-1.387.924-2.378.924-1.519 0-2.444-.99-2.444-2.97-.066-2.575 1.519-4.819 4.161-4.819zm.727 5.479l.66-3.697c-.396-.33-.925-.528-1.585-.528-1.387 0-2.444 1.518-2.444 3.433 0 1.188.529 1.782 1.519 1.782.727.066 1.321-.33 1.85-.99zm7.661-5.479c1.915 0 2.839 1.188 2.839 2.971 0 2.574-1.585 4.818-4.226 4.818-1.85 0-2.84-.99-2.84-2.97 0-2.575 1.585-4.819 4.227-4.819zm-1.123 6.535c1.387 0 2.443-1.518 2.443-3.432 0-1.189-.528-1.783-1.519-1.783-1.387 0-2.443 1.519-2.443 3.433 0 1.188.528 1.782 1.519 1.782zm9.576 1.387l.198-.925h-.066c-.66.594-1.321.859-2.113.859-1.651 0-2.444-.991-2.444-2.972 0-2.575 1.651-4.819 4.293-4.819 1.057 0 1.981.198 2.972.594l-1.321 7.395c-.33 1.98-1.717 2.905-3.83 2.905-.991 0-1.784-.198-2.576-.594l.66-1.255c.595.33 1.255.594 2.048.594 1.254-.066 1.981-.528 2.179-1.782zm-2.84-3.17c0 1.189.462 1.783 1.453 1.783.594 0 1.321-.396 1.915-1.056l.661-3.962c-.462-.198-.925-.264-1.519-.264-1.453.066-2.51 1.585-2.51 3.499z" fill="#25AEEC"/><path d="M600.809 233.912l-10.866 8.721 21.746 27.082 10.867-8.721-21.747-27.082z" fill="#fff"/><path d="M562.595 191.637c-21.993-9.574-31.833-26.477-31.833-54.867h13.935c0 22.976 6.538 34.795 23.445 42.058l-5.547 12.809zm54.882 65.099c-14.86 0-23.776-8.913-23.776-23.769v-28.325l-19.416-8.121 5.415-12.875 28.003 11.753v37.568c0 7.263 2.575 9.838 9.84 9.838v13.931h-.066zm-48.542-62.325l27.606-65.763 7.463 18.356" fill="#25AEEC"/><path d="M590.003 256.739h-53.958v-21.393c0-21.524 8.388-34.069 26.418-39.483 4.821-1.452 7.529-3.961 9.642-8.847l19.152-45.293 47.486 19.873-2.378 6.273c-5.944 15.648-19.945 21.656-36.654 15.714l-.264-.066-3.5-1.387 5.217-12.941 3.368 1.387c3.17 1.122 10.171 3.565 15.322-1.717l-21.134-8.847-13.737 32.55c-3.698 8.781-9.576 14.064-18.426 16.771-12.02 3.631-16.511 10.762-16.511 26.212v7.46h25.361c-2.51-10.432-10.765-10.432-13.803-10.432v-13.931c17.568 0 28.465 12.017 28.465 31.296v6.801h-.066z" fill="#25AEEC"/><path fill-rule="evenodd" clip-rule="evenodd" d="M743.29 644.852H536.31c-13.143 0-18.162-5.085-18.162-18.162V419.707c0-13.143 5.085-18.162 18.162-18.162h206.98c13.143 0 18.162 5.085 18.162 18.162V626.69c0 13.143-5.019 18.162-18.162 18.162z" fill="#fff"/><path d="M652.81 513.819l.133 31.437H536.442l.132-31.437-.132-13.275c12.152 0 23.775-4.227 33.55-11.161 7.199 6.472 24.766 26.616 24.766 26.616s17.502-20.144 24.7-26.616c9.775 6.934 21.332 11.161 33.55 11.161l-.198 13.275z" fill="#25AEEC"/><path d="M560.746 557.08c-.066-.264-7.595-26.417-13.671-65.119l6.868-1.057c6.076 38.24 13.407 64.063 13.473 64.261l-6.67 1.915z" fill="#fff"/><path d="M546.678 566.589l-2.443 7.132h-2.576l-2.378-7.132h-.065l-.793 8.981h-2.51l1.255-13.736h2.84l2.972 8.849h.066l2.972-8.849h2.774l1.255 13.736h-2.51l-.859-8.981zm12.945 6.406l.858 1.916c-.99.462-2.179.858-3.434.858-2.972 0-4.953-1.915-4.953-5.217 0-3.303 1.783-5.218 4.623-5.218 2.642 0 4.227 1.651 4.227 4.425 0 .264-.066.991-.132 1.519h-6.274c.264 1.519 1.32 2.378 2.641 2.378.727 0 1.717-.264 2.444-.661zm-.991-3.566c0-1.123-.726-1.981-1.981-1.981-1.057 0-1.915.66-2.113 1.981h4.094zm11.822 5.746c-.859.396-1.849.594-2.84.594-3.236 0-4.953-2.311-4.953-5.217 0-2.906 1.651-5.218 4.887-5.218.925 0 1.981.198 2.84.528l-.793 1.916a4.978 4.978 0 00-1.915-.397c-1.453 0-2.51 1.255-2.51 3.105 0 1.849 1.057 3.104 2.51 3.104.661 0 1.453-.132 2.048-.396l.726 1.981zm.793-9.642h8.651l-.396 2.113h-2.774v7.924h-2.444v-7.924h-3.104v-2.113h.067zm9.444 5.019c0-3.237 1.915-5.218 4.689-5.218s4.689 1.915 4.689 5.218c0 3.302-1.915 5.217-4.689 5.217s-4.689-1.981-4.689-5.217zm2.509 0c0 1.915.925 3.104 2.246 3.104s2.245-1.189 2.245-3.104c0-1.916-.924-3.104-2.245-3.104-1.321 0-2.246 1.188-2.246 3.104zm17.7.924h-.859v4.093h-2.443v-10.036h2.443v3.83h.859l2.312-3.83h2.443l-2.906 4.82 3.104 5.15-2.509.198-2.444-4.225zm5.746-.924c0-3.237 1.915-5.218 4.689-5.218s4.689 1.915 4.689 5.218c0 3.302-1.915 5.217-4.689 5.217s-4.689-1.981-4.689-5.217zm2.509 0c0 1.915.925 3.104 2.246 3.104s2.245-1.189 2.245-3.104c0-1.916-.924-3.104-2.245-3.104-1.321 0-2.246 1.188-2.246 3.104zm17.502 5.018h-2.444v-4.094h-3.368v4.094h-2.443v-10.037h2.443v3.83h3.368v-3.83h2.444v10.037zm2.84-2.112c.99-1.717 1.255-3.434 1.255-6.802v-1.123h6.868v7.925h1.585l-.396 4.622h-2.047v-2.509h-6.209v2.509h-2.047l-.396-4.622h1.387zm3.566-5.812c0 2.246-.198 4.293-.991 5.812h3.104v-5.812h-2.113zm13.341-2.113h2.576l-3.831 11.953c-.66 1.981-1.915 2.377-2.972 2.377a4.8 4.8 0 01-1.849-.396l.66-1.981c.265.132.727.264 1.057.264.33 0 .793-.132.991-.858l.396-1.321h-.66l-3.369-10.038h2.642l2.246 7h.066l2.047-7zm7.397 5.943h-.859v4.093h-2.443v-10.036h2.443v3.83h.859l2.311-3.83h2.444l-2.906 4.82 3.104 5.15-2.51.198-2.443-4.225zm5.415-5.943h8.652l-.396 2.113h-2.774v7.924h-2.444v-7.924h-3.104v-2.113h.066zm9.445 5.019c0-3.237 1.915-5.218 4.689-5.218 2.773 0 4.689 1.915 4.689 5.218 0 3.302-1.916 5.217-4.689 5.217-2.774 0-4.689-1.981-4.689-5.217zm2.443 0c0 1.915.925 3.104 2.246 3.104s2.245-1.189 2.245-3.104c0-1.916-.924-3.104-2.245-3.104-1.255 0-2.246 1.188-2.246 3.104zm11.624-4.161c.66-.661 1.519-1.057 2.576-1.057 2.839 0 4.094 2.179 4.094 5.217s-1.321 5.218-4.293 5.218a8.128 8.128 0 01-2.311-.33v4.094l-2.444.397v-14.332h1.85l.396.859h.132v-.066zm4.227 4.16c0-1.849-.727-3.104-2.246-3.104-.66 0-1.321.397-1.915.991v4.689c.528.33 1.255.528 1.981.528 1.387 0 2.18-1.122 2.18-3.104zm9.774-1.519c0-.991-.462-1.52-1.717-1.52-.859 0-1.717.198-2.642.529l-.726-1.982c1.188-.462 2.377-.661 3.632-.661 3.038 0 3.897 1.586 3.897 3.7v3.831c0 .462.264.727.726.727h.198v1.915c-.264.132-.924.199-1.387.199-.858 0-1.453-.331-1.783-.991h-.066c-.726.726-1.519.991-2.642.991-1.915 0-3.104-.925-3.104-2.973 0-1.916 1.519-2.973 3.765-2.973h1.849v-.792zm0 3.633v-1.123h-1.783c-.925 0-1.387.462-1.387 1.123 0 .66.462.991 1.057.991.792 0 1.585-.397 2.113-.991zm-158.372 16.577l-.727 4.293h-1.585l1.784-10.303h5.877l-.528 1.387h-4.029l-.528 3.17h4.029l-.265 1.387h-4.028v.066zm12.284-2.774l-1.255 7.068h-.991l-.132-.793h-.066c-.594.595-1.321.925-2.245.925-1.651 0-2.312-1.189-2.312-2.973 0-2.576 1.585-4.822 4.227-4.822.991 0 1.915.264 2.774.595zm-5.482 4.161c0 1.123.397 1.784 1.255 1.784.727 0 1.321-.396 1.849-1.057l.661-3.898c-.396-.132-.793-.264-1.387-.264-1.387 0-2.378 1.52-2.378 3.435zm11.03-3.171a2.043 2.043 0 00-.727-.132c-.858 0-1.519.859-1.849 1.85l-.793 4.359h-1.519l1.321-7.53h1.057l.066 1.189h.066c.528-.793 1.123-1.321 2.179-1.321.331 0 .661.066.925.132l-.726 1.453zm.726 3.303c0-2.576 1.519-4.822 4.227-4.822 1.453 0 2.443.661 2.443 1.982 0 1.519-1.32 2.642-5.085 2.642 0 1.189.396 1.915 1.717 1.915.661 0 1.189-.198 1.783-.462l.463 1.123a5.686 5.686 0 01-2.576.594c-2.047 0-2.972-1.189-2.972-2.972zm1.717-1.519c2.84 0 3.368-.595 3.368-1.255 0-.528-.462-.793-1.056-.793-1.123 0-1.982.859-2.312 2.048zm9.577 1.519c0-2.708 1.717-4.822 4.358-4.822.793 0 1.453.133 2.048.397l-.661 1.189a3.972 3.972 0 00-1.585-.331c-1.387 0-2.509 1.453-2.509 3.435 0 1.189.66 1.783 1.651 1.783.528 0 1.189-.132 1.717-.33l.33 1.189c-.66.264-1.519.462-2.311.462-1.982 0-3.038-1.189-3.038-2.972zm10.765-4.888c1.915 0 2.839 1.189 2.839 2.973 0 2.576-1.585 4.822-4.226 4.822-1.85 0-2.84-.991-2.84-2.973 0-2.576 1.585-4.822 4.227-4.822zm-1.123 6.54c1.387 0 2.443-1.519 2.443-3.435 0-1.189-.528-1.784-1.519-1.784-1.386 0-2.443 1.52-2.443 3.435 0 1.189.528 1.784 1.519 1.784zm8.057 1.054c-.528.199-.858.199-1.255.199-1.056 0-1.585-.463-1.585-1.453 0-.199 0-.397.066-.661l1.519-8.784 1.585-.264-1.585 9.114v.264c0 .397.198.529.529.529.264 0 .396-.066.66-.132l.066 1.188zm4.095 0c-.528.199-.859.199-1.255.199-1.057 0-1.585-.463-1.585-1.453 0-.199 0-.397.066-.661l1.519-8.784 1.585-.264-1.585 9.114v.264c0 .397.198.529.528.529.265 0 .397-.066.661-.132l.066 1.188zm1.189-2.706c0-2.576 1.519-4.822 4.226-4.822 1.453 0 2.444.661 2.444 1.982 0 1.519-1.321 2.642-5.085 2.642 0 1.189.396 1.915 1.717 1.915.66 0 1.189-.198 1.783-.462l.462 1.123a5.68 5.68 0 01-2.575.594c-2.048 0-2.972-1.189-2.972-2.972zm1.717-1.519c2.839 0 3.368-.595 3.368-1.255 0-.528-.462-.793-1.057-.793-1.123 0-1.981.859-2.311 2.048zm5.746 1.519c0-2.708 1.717-4.822 4.358-4.822.793 0 1.453.133 2.048.397l-.661 1.189a3.972 3.972 0 00-1.585-.331c-1.387 0-2.509 1.453-2.509 3.435 0 1.189.66 1.783 1.651 1.783.528 0 1.188-.132 1.717-.33l.33 1.189c-.66.264-1.519.462-2.311.462-1.982 0-3.038-1.189-3.038-2.972zm8.783-6.54l1.585-.264-.396 2.114h2.246l-.529 1.254h-1.981l-.727 4.095v.265c0 .528.331.726.859.726.396 0 .66-.066 1.123-.198l.132 1.255a5.064 5.064 0 01-1.651.264c-1.189 0-1.982-.462-1.982-1.717 0-.198 0-.396.066-.661l.727-4.029h-1.255l.198-1.254h1.255l.33-1.85zm7.793 1.652c1.916 0 2.84 1.189 2.84 2.973 0 2.576-1.585 4.822-4.226 4.822-1.85 0-2.84-.991-2.84-2.973 0-2.576 1.585-4.822 4.226-4.822zm-1.122 6.54c1.387 0 2.443-1.519 2.443-3.435 0-1.189-.528-1.784-1.519-1.784-1.387 0-2.443 1.52-2.443 3.435 0 1.189.528 1.784 1.519 1.784zm9.774-4.955c-.198-.066-.396-.132-.726-.132-.859 0-1.519.859-1.85 1.85l-.792 4.359h-1.519l1.321-7.53h1.123l.066 1.189h.066c.528-.793 1.122-1.321 2.179-1.321.33 0 .66.066.925.132l-.793 1.453zm1.849-.988l-.264-.463c.528-.264.991-.66 1.123-1.254-.396-.066-.727-.331-.727-.793 0-.528.397-.858.859-.858.528 0 .858.396.858.99.067 1.123-.792 1.981-1.849 2.378zm6.935 4.754c0 1.519-1.387 2.444-3.236 2.444-.925 0-1.783-.198-2.378-.528l.727-1.189c.528.264 1.122.396 1.849.396.66 0 1.519-.33 1.519-1.057 0-.66-.66-.858-1.387-1.122-.726-.265-1.783-.925-1.783-2.114 0-1.519 1.255-2.245 2.906-2.245.858 0 1.717.198 2.377.528l-.66 1.123c-.528-.198-1.123-.397-1.783-.397-.661 0-1.321.265-1.321.925 0 .595.66.859 1.189 1.057.924.462 1.981 1.057 1.981 2.179zm10.303 0c0 1.519-1.387 2.444-3.236 2.444-.925 0-1.784-.198-2.378-.528l.726-1.189c.529.264 1.123.396 1.85.396.66 0 1.519-.33 1.519-1.057 0-.66-.661-.858-1.387-1.122-.727-.265-1.783-.925-1.783-2.114 0-1.519 1.254-2.245 2.905-2.245.859 0 1.718.198 2.378.528l-.66 1.123c-.529-.198-1.123-.397-1.784-.397-.66 0-1.321.265-1.321.925 0 .595.661.859 1.189 1.057.925.462 1.982 1.057 1.982 2.179zm1.387-.463c0-2.576 1.519-4.822 4.226-4.822 1.453 0 2.444.661 2.444 1.982 0 1.519-1.321 2.642-5.085 2.642 0 1.189.396 1.915 1.717 1.915.66 0 1.189-.198 1.783-.462l.462 1.123a5.68 5.68 0 01-2.575.594c-1.982 0-2.972-1.189-2.972-2.972zm1.783-1.519c2.84 0 3.368-.595 3.368-1.255 0-.528-.462-.793-1.123-.793-1.056 0-1.915.859-2.245 2.048zm12.746-2.774l-1.255 7.068h-.99l-.132-.793h-.066c-.595.595-1.321.925-2.246.925-1.651 0-2.311-1.189-2.311-2.973 0-2.576 1.585-4.822 4.226-4.822 1.057 0 1.982.264 2.774.595zm-5.481 4.161c0 1.123.396 1.784 1.254 1.784.727 0 1.321-.396 1.85-1.057l.66-3.898c-.396-.132-.792-.264-1.387-.264-1.321 0-2.377 1.52-2.377 3.435zm8.387-6.408l1.585-.264-.396 2.114h2.245l-.528 1.254h-1.981l-.727 4.095v.265c0 .528.33.726.859.726.396 0 .66-.066 1.122-.198l.133 1.255a5.065 5.065 0 01-1.652.264c-1.188 0-1.981-.462-1.981-1.717 0-.198 0-.396.066-.661l.727-4.029h-1.255l.198-1.254h1.255l.33-1.85zm-41.475-132.877c-1.057 19.681-11.492 35.663-25.691 35.663-14.199 0-24.436-15.982-25.691-35.663-1.651-25.89 8.454-35.664 25.691-35.664s27.276 7.661 25.691 35.664z" fill="#25AEEC"/><path fill-rule="evenodd" clip-rule="evenodd" d="M1031.84 356.307H824.855c-13.143 0-18.162-5.085-18.162-18.162V131.162c0-13.143 5.085-18.162 18.162-18.162h206.985c13.14 0 18.16 5.085 18.16 18.162v206.983c0 13.143-5.02 18.162-18.16 18.162z" fill="#fff"/><path d="M835.224 278.044l-2.444 7.133h-2.576l-2.377-7.133h-.066l-.793 8.983h-2.509l1.254-13.738h2.84l2.972 8.85h.066l2.972-8.85h2.84l1.255 13.738h-2.51l-.924-8.983zm12.944 6.409l.859 1.915c-.991.462-2.179.859-3.434.859-2.972 0-4.954-1.916-4.954-5.218 0-3.303 1.784-5.218 4.624-5.218 2.641 0 4.226 1.651 4.226 4.425 0 .264-.066.991-.132 1.519h-6.274c.264 1.519 1.321 2.378 2.642 2.378.792 0 1.717-.264 2.443-.66zm-.99-3.567c0-1.123-.727-1.981-1.982-1.981-1.056 0-1.915.66-2.113 1.981h4.095zM859 286.632c-.859.396-1.85.595-2.84.595-3.236 0-4.954-2.312-4.954-5.218s1.652-5.218 4.888-5.218c.924 0 1.981.198 2.84.528l-.793 1.916a4.978 4.978 0 00-1.915-.397c-1.453 0-2.51 1.255-2.51 3.105 0 1.849 1.057 3.104 2.51 3.104.66 0 1.453-.132 2.047-.396l.727 1.981zm.792-9.644h8.652l-.396 2.114h-2.774v7.924h-2.444v-7.924h-3.104v-2.114h.066zm15.058 3.501c0-.991-.462-1.52-1.717-1.52-.858 0-1.717.198-2.642.529l-.726-1.982c1.189-.462 2.378-.661 3.632-.661 3.038 0 3.897 1.586 3.897 3.7v3.831c0 .462.264.727.726.727h.199v1.915c-.265.132-.925.199-1.387.199-.859 0-1.453-.331-1.784-.991h-.066c-.726.726-1.519.991-2.641.991-1.916 0-3.104-.925-3.104-2.973 0-1.916 1.519-2.973 3.764-2.973h1.849v-.792zm0 3.633v-1.123h-1.783c-.924 0-1.387.462-1.387 1.123 0 .66.463.991 1.057.991.859 0 1.585-.397 2.113-.991zm10.303.792c.991-1.718 1.255-3.435 1.255-6.803v-1.123h6.869v7.926h1.585l-.396 4.623h-2.048v-2.51h-6.208v2.51h-2.047l-.397-4.623h1.387zm3.633-5.812c0 2.245-.198 4.293-.991 5.812h3.104v-5.812h-2.113zm11.69.132c0 5.216-1.189 7.858-3.435 7.858-.528 0-.99-.132-1.387-.33l.595-1.915c.132.066.264.132.462.132.793 0 1.387-1.321 1.387-6.67v-1.254h7.001v10.037h-2.444v-7.924h-2.245v.066h.066zm9.114 3.896c-1.189-.462-1.849-1.519-1.849-2.972 0-1.915 1.32-3.17 3.5-3.17h4.161v10.038h-2.444v-3.566h-.991l-2.179 3.566h-2.708l2.51-3.896zm1.849-1.783h1.519v-2.245h-1.519c-.726 0-1.189.462-1.189 1.122 0 .661.463 1.123 1.189 1.123zm-78.461 25.295h-2.443v-7.925h-3.17v7.925h-2.444v-10.038h8.057v10.038zm7.86-6.538c0-.99-.463-1.518-1.718-1.518-.858 0-1.717.198-2.641.528l-.727-1.981c1.189-.462 2.378-.66 3.633-.66 3.038 0 3.896 1.584 3.896 3.698V304c0 .463.264.727.727.727h.198v1.915c-.264.132-.925.198-1.387.198-.859 0-1.453-.33-1.783-.991h-.066c-.727.727-1.519.991-2.642.991-1.915 0-3.104-.925-3.104-2.972 0-1.915 1.519-2.971 3.764-2.971h1.85v-.793zm0 3.698v-1.122h-1.784c-.924 0-1.386.462-1.386 1.122 0 .661.462.991 1.056.991.793-.066 1.585-.396 2.114-.991zm12.548 2.511c-.859.396-1.849.594-2.84.594-3.236 0-5.019-2.311-5.019-5.217 0-2.906 1.651-5.217 4.887-5.217.925 0 1.981.198 2.84.528l-.793 1.915a4.977 4.977 0 00-1.915-.396c-1.453 0-2.51 1.255-2.51 3.104 0 1.849 1.057 3.104 2.51 3.104.66 0 1.453-.132 2.047-.397l.793 1.982zm9.048 0c-.858.396-1.849.594-2.84.594-3.236 0-5.019-2.311-5.019-5.217 0-2.906 1.651-5.217 4.887-5.217.925 0 1.981.198 2.84.528l-.793 1.915a4.973 4.973 0 00-1.915-.396c-1.453 0-2.51 1.255-2.51 3.104 0 1.849 1.057 3.104 2.51 3.104.661 0 1.453-.132 2.048-.397l.792 1.982zm6.869-6.209c0-.99-.463-1.518-1.717-1.518-.859 0-1.718.198-2.642.528l-.727-1.981c1.189-.462 2.378-.66 3.633-.66 3.038 0 3.896 1.584 3.896 3.698V304c0 .463.265.727.727.727h.198v1.915c-.264.132-.925.198-1.387.198-.859 0-1.453-.33-1.783-.991h-.066c-.727.727-1.519.991-2.642.991-1.915 0-3.104-.925-3.104-2.972 0-1.915 1.519-2.971 3.765-2.971h1.849v-.793zm0 3.698v-1.122h-1.783c-.925 0-1.387.462-1.387 1.122 0 .661.462.991 1.056.991.793-.066 1.585-.396 2.114-.991zm12.416-1.254h-.462v4.16h-2.378v-4.16h-.462l-2.378 4.16h-2.708l3.237-5.151-3.038-4.821h2.509l2.312 3.831h.528v-3.831h2.378v3.831h.528l2.312-3.831h2.509l-3.038 4.821 3.236 5.151-2.575.198-2.51-4.358zm13.077-1.916l-4.095 6.01h-2.245v-10.038h2.443v6.009h.066l4.029-6.009h2.246v10.038h-2.444v-6.01zm7.661-3.103c.66-.66 1.519-1.056 2.576-1.056 2.84 0 4.094 2.179 4.094 5.217s-1.321 5.217-4.292 5.217a8.13 8.13 0 01-2.312-.33v4.095l-2.444.396v-14.331h1.85l.396.858h.132v-.066zm4.227 4.095c0-1.849-.727-3.104-2.246-3.104-.66 0-1.321.396-1.915.991v4.689c.528.33 1.255.528 1.981.528 1.387 0 2.18-1.123 2.18-3.104zm4.293-.002c0-3.236 1.915-5.218 4.689-5.218s4.689 1.916 4.689 5.218c0 3.236-1.915 5.218-4.689 5.218s-4.689-1.916-4.689-5.218zm2.443 0c0 1.915.925 3.104 2.246 3.104s2.245-1.189 2.245-3.104-.924-3.104-2.245-3.104c-1.321 0-2.246 1.189-2.246 3.104zm17.304 2.247c0 1.718-1.123 2.84-3.434 2.84h-4.557V296.67h4.16c1.916 0 3.369.66 3.369 2.444 0 1.057-.595 1.849-1.717 2.245v.066c1.32.265 2.179 1.123 2.179 2.444zm-5.548-5.152v1.784h1.255c.859 0 1.387-.264 1.387-.859 0-.66-.594-.858-1.387-.858h-1.255v-.067zm0 3.765v2.114h1.585c.925 0 1.453-.33 1.453-1.057 0-.726-.528-.991-1.453-.991h-1.585v-.066zm20.21 3.831c-.859.396-1.849.594-2.84.594-3.236 0-5.02-2.311-5.02-5.217 0-2.906 1.652-5.217 4.888-5.217.924 0 1.981.198 2.84.528l-.793 1.915a4.977 4.977 0 00-1.915-.396c-1.453 0-2.51 1.255-2.51 3.104 0 1.849 1.057 3.104 2.51 3.104.66 0 1.453-.132 2.047-.397l.793 1.982zm6.934-1.784c.991-1.717 1.255-3.434 1.255-6.803v-1.122h6.869v7.925h1.585l-.396 4.623h-2.048v-2.51h-6.208v2.51h-2.047l-.396-4.623h1.386zm3.633-5.812c0 2.245-.198 4.293-.991 5.812h3.104v-5.812h-2.113zm14.662 5.416l.858 1.915c-.99.463-2.179.859-3.434.859-2.972 0-4.953-1.915-4.953-5.217 0-3.302 1.783-5.217 4.623-5.217 2.642 0 4.227 1.651 4.227 4.424 0 .264-.066.991-.132 1.519h-6.275c.265 1.519 1.321 2.378 2.642 2.378.793-.066 1.783-.331 2.444-.661zm-.925-3.632c0-1.123-.726-1.981-1.981-1.981-1.057 0-1.915.66-2.114 1.981h4.095zm3.368-3.831h8.652l-.396 2.114h-2.774v7.925h-2.443v-7.925h-3.105v-2.114h.066zm14.53 3.566c2.18 0 3.566 1.189 3.566 3.236s-1.386 3.17-3.566 3.17h-4.227v-10.038h2.444v3.566h1.783v.066zm-1.717 1.981v2.311h1.585c.793 0 1.321-.462 1.321-1.188 0-.727-.462-1.189-1.321-1.189h-1.585v.066zm15.389-1.519h-.07l-1.714 4.293h-2.113l-1.783-4.293h-.066l-.463 5.944h-2.443l.99-10.038h2.576l2.245 5.349h.067l2.244-5.349h2.58l.99 10.038h-2.45l-.59-5.944zm11.56-.066l-4.1 6.01h-2.24v-10.038h2.44v6.009h.07l4.03-6.009h2.24v10.038h-2.44v-6.01zm-186.05 20.407l-.66 3.633h-1.585l1.783-10.303h3.236c1.849 0 2.906.991 2.906 2.84 0 2.245-1.717 3.83-4.095 3.83h-1.585zm.925-5.283l-.661 3.831h1.651c1.255 0 2.18-.991 2.18-2.444 0-.925-.528-1.453-1.453-1.453h-1.717v.066zm9.906 2.841c-.198-.066-.396-.132-.726-.132-.859 0-1.519.859-1.849 1.849l-.793 4.36h-1.519l1.321-7.53h1.123l.066 1.189h.066c.528-.793 1.123-1.321 2.179-1.321.331 0 .661.066.925.132l-.793 1.453zm.661-.199l.528-1.255h2.576l-1.321 7.529h-1.519l1.123-6.208h-1.387v-.066zm2.708-4.359c.528 0 .924.396.924.925a.902.902 0 01-.924.924.903.903 0 01-.925-.924c0-.529.396-.925.925-.925zm5.613 2.973c1.916 0 2.84 1.188 2.84 2.971 0 2.576-1.585 4.821-4.227 4.821-1.849 0-2.839-.99-2.839-2.972 0-2.575 1.585-4.82 4.226-4.82zm-1.122 6.537c1.387 0 2.443-1.518 2.443-3.434 0-1.188-.528-1.783-1.519-1.783-1.387 0-2.443 1.519-2.443 3.434 0 1.123.528 1.783 1.519 1.783zm9.774-4.952c-.198-.066-.396-.132-.726-.132-.859 0-1.519.859-1.85 1.849l-.792 4.36h-1.519l1.321-7.53h1.056l.067 1.189h.066c.528-.793 1.122-1.321 2.179-1.321.33 0 .66.066.925.132l-.727 1.453zm.727-.199l.528-1.255h2.576l-1.321 7.529h-1.519l1.057-6.208h-1.321v-.066zm2.708-4.359c.528 0 .924.396.924.925a.902.902 0 01-.924.924.903.903 0 01-.925-.924c0-.529.396-.925.925-.925zm3.302 1.254l1.585-.264-.396 2.114h2.245l-.528 1.254h-1.982l-.726 4.095v.264c0 .528.33.726.858.726.397 0 .661-.066 1.123-.198l.132 1.255a5.06 5.06 0 01-1.651.264c-1.189 0-1.981-.462-1.981-1.717 0-.198 0-.396.066-.66l.726-4.029h-1.254l.198-1.254h1.254l.331-1.85zm3.17 11.098c.198.132.462.198.792.198.331 0 .727-.198 1.057-.859l.528-1.122h-.528l-1.321-7.53h1.519l.991 5.944h.066l2.906-5.944h1.651l-4.491 8.983c-.727 1.453-1.651 1.783-2.444 1.783-.528 0-.924-.132-1.254-.264l.528-1.189zm16.445-4.029c0 1.519-1.387 2.444-3.236 2.444-.925 0-1.783-.199-2.378-.529l.727-1.188c.528.264 1.122.396 1.849.396.66 0 1.519-.33 1.519-1.057 0-.66-.66-.858-1.387-1.122-.726-.265-1.783-.925-1.783-2.114 0-1.518 1.255-2.245 2.906-2.245.858 0 1.717.198 2.377.529l-.66 1.122c-.528-.198-1.123-.396-1.783-.396-.661 0-1.321.264-1.321.924 0 .595.66.859 1.189 1.057.924.396 1.981.991 1.981 2.179zm1.453-.53c0-2.575 1.519-4.82 4.227-4.82 1.453 0 2.443.66 2.443 1.981 0 1.519-1.32 2.641-5.085 2.641 0 1.189.396 1.915 1.717 1.915.661 0 1.189-.198 1.783-.462l.463 1.123a5.683 5.683 0 01-2.576.594c-2.047 0-2.972-1.189-2.972-2.972zm1.717-1.518c2.84 0 3.368-.595 3.368-1.255 0-.528-.462-.793-1.122-.793-1.057 0-1.916.925-2.246 2.048zm12.813-2.773l-1.255 7.065h-.991l-.132-.792h-.066c-.594.594-1.321.924-2.245.924-1.652 0-2.312-1.188-2.312-2.971 0-2.575 1.585-4.82 4.227-4.82 1.057.066 1.915.33 2.774.594zm-5.482 4.16c0 1.123.396 1.783 1.255 1.783.726 0 1.321-.396 1.849-1.057l.661-3.895c-.397-.132-.793-.264-1.387-.264-1.387 0-2.378 1.518-2.378 3.433zm8.322-6.408l1.585-.264-.397 2.114h2.246l-.528 1.254h-1.982l-.726 4.095v.264c0 .528.33.726.858.726.397 0 .661-.066 1.123-.198l.132 1.255a5.06 5.06 0 01-1.651.264c-1.189 0-1.981-.462-1.981-1.717 0-.198 0-.396.066-.66l.726-4.029h-1.255l.199-1.254h1.254l.331-1.85zm8.651 7.069c0 1.519-1.387 2.444-3.236 2.444-.924 0-1.783-.199-2.377-.529l.726-1.188c.528.264 1.123.396 1.849.396.661 0 1.519-.33 1.519-1.057 0-.66-.66-.858-1.387-1.122-.726-.265-1.783-.925-1.783-2.114 0-1.518 1.255-2.245 2.906-2.245.859 0 1.717.198 2.378.529l-.661 1.122c-.528-.198-1.122-.396-1.783-.396-.66 0-1.321.264-1.321.924 0 .595.661.859 1.189 1.057.925.396 1.981.991 1.981 2.179zm10.369-5.219l-.528 1.255h-1.519l-1.255 7.133c-.33 1.717-1.321 2.312-2.576 2.312-.594 0-1.254-.198-1.651-.463l.595-1.122c.396.198.66.33 1.122.33.529 0 .859-.264.991-1.057l1.255-7.133h-1.255l.198-1.255h1.255l.198-.991c.33-1.783 1.387-2.576 2.84-2.576.727 0 1.189.132 1.717.396l-.726 1.123a2.254 2.254 0 00-1.057-.264c-.66 0-1.123.396-1.255 1.255l-.198.991h1.849v.066zm4.029-.131c1.915 0 2.84 1.188 2.84 2.971 0 2.576-1.585 4.821-4.227 4.821-1.849 0-2.84-.99-2.84-2.972 0-2.575 1.585-4.82 4.227-4.82zm-1.123 6.537c1.387 0 2.444-1.518 2.444-3.434 0-1.188-.528-1.783-1.519-1.783-1.387 0-2.444 1.519-2.444 3.434 0 1.123.529 1.783 1.519 1.783zm9.775-4.952a2.039 2.039 0 00-.727-.132c-.858 0-1.519.859-1.849 1.849l-.792 4.36h-1.519l1.321-7.53h1.056l.066 1.189h.066c.529-.793 1.123-1.321 2.18-1.321.33 0 .66.066.924.132l-.726 1.453zm-100.255 16.576c0 2.642-1.586 4.822-4.227 4.822-.595 0-1.057-.132-1.585-.396l-.529 3.17-1.585.264 1.915-10.766h1.057l.132.792h.066c.529-.528 1.123-.924 2.114-.924 1.717.066 2.642 1.057 2.642 3.038zm-1.586.066c0-1.189-.528-1.783-1.519-1.783-.594 0-1.254.396-1.783.925l-.66 3.764c.396.331.924.529 1.585.529 1.453.066 2.377-1.519 2.377-3.435zm9.775-2.51l-1.255 7.066h-.99l-.133-.792h-.066c-.594.594-1.32.924-2.245.924-1.651 0-2.312-1.188-2.312-2.971 0-2.576 1.585-4.821 4.227-4.821 1.057.066 1.982.33 2.774.594zm-5.482 4.16c0 1.123.397 1.784 1.255 1.784.727 0 1.321-.397 1.849-1.057l.661-3.896c-.396-.132-.793-.264-1.387-.264-1.321 0-2.378 1.518-2.378 3.433zm11.492.661c0 1.519-1.387 2.444-3.236 2.444-.925 0-1.783-.198-2.378-.528l.727-1.189c.528.264 1.123.396 1.849.396.66 0 1.519-.33 1.519-1.056 0-.661-.66-.859-1.387-1.123-.726-.264-1.783-.925-1.783-2.114 0-1.519 1.255-2.245 2.906-2.245.858 0 1.717.198 2.377.528l-.66 1.123c-.528-.198-1.123-.396-1.783-.396-.661 0-1.321.264-1.321.924 0 .595.66.859 1.189 1.057.924.396 1.981.991 1.981 2.179zm6.472 0c0 1.519-1.386 2.444-3.236 2.444-.924 0-1.783-.198-2.377-.528l.726-1.189c.529.264 1.123.396 1.849.396.661 0 1.519-.33 1.519-1.056 0-.661-.66-.859-1.386-1.123-.727-.264-1.784-.925-1.784-2.114 0-1.519 1.255-2.245 2.906-2.245.859 0 1.717.198 2.378.528l-.661 1.123c-.528-.198-1.122-.396-1.783-.396-.66 0-1.321.264-1.321.924 0 .595.661.859 1.189 1.057.925.396 1.981.991 1.981 2.179zm1.453-.528c0-2.576 1.52-4.821 4.227-4.821 1.453 0 2.444.661 2.444 1.981 0 1.519-1.321 2.642-5.085 2.642 0 1.188.396 1.915 1.717 1.915.66 0 1.188-.198 1.783-.462l.462 1.122a5.668 5.668 0 01-2.576.595c-2.047 0-2.972-1.189-2.972-2.972zm1.718-1.519c2.84 0 3.368-.594 3.368-1.255 0-.528-.462-.792-1.123-.792-1.057 0-1.915.924-2.245 2.047zm7.066 4.359h-1.519l1.321-7.529h1.123l.132.793h.066c.727-.661 1.453-.925 2.246-.925 1.387 0 2.047.661 2.047 2.047 0 .265 0 .661-.066.991l-.793 4.689h-1.519l.793-4.557c.066-.264.066-.462.066-.66 0-.793-.33-1.123-1.057-1.123-.594 0-1.321.462-1.849 1.057l-.991 5.217zm11.03.199l.198-.924h-.066c-.661.594-1.321.858-2.114.858-1.651 0-2.443-.991-2.443-2.972 0-2.576 1.651-4.822 4.293-4.822 1.056 0 1.981.198 2.972.595l-1.321 7.397c-.33 1.982-1.717 2.907-3.831 2.907-.99 0-1.783-.199-2.576-.595l.661-1.255c.594.33 1.255.595 2.047.595 1.189-.066 1.916-.529 2.18-1.784zm-2.906-3.17c0 1.189.462 1.783 1.453 1.783.594 0 1.321-.396 1.915-1.057l.661-3.963c-.463-.198-.925-.264-1.519-.264-1.453.066-2.51 1.585-2.51 3.501zm6.67.131c0-2.576 1.519-4.821 4.227-4.821 1.453 0 2.444.661 2.444 1.981 0 1.519-1.321 2.642-5.086 2.642 0 1.188.397 1.915 1.717 1.915.661 0 1.189-.198 1.784-.462l.462 1.122a5.671 5.671 0 01-2.576.595c-2.047 0-2.972-1.189-2.972-2.972zm1.717-1.519c2.84 0 3.369-.594 3.369-1.255 0-.528-.463-.792-1.057-.792-1.123 0-1.981.924-2.312 2.047zm10.369-1.717c-.198-.066-.396-.132-.726-.132-.859 0-1.519.859-1.849 1.85l-.793 4.359h-1.519l1.321-7.53h1.057l.066 1.189h.066c.528-.792 1.122-1.321 2.179-1.321.33 0 .661.066.925.132l-.727 1.453zm5.746 3.764c0 1.519-1.387 2.444-3.236 2.444-.925 0-1.783-.198-2.378-.528l.727-1.189c.528.264 1.123.396 1.849.396.661 0 1.519-.33 1.519-1.056 0-.661-.66-.859-1.387-1.123-.726-.264-1.783-.925-1.783-2.114 0-1.519 1.255-2.245 2.906-2.245.859 0 1.717.198 2.378.528l-.661 1.123c-.528-.198-1.123-.396-1.783-.396-.66 0-1.321.264-1.321.924 0 .595.661.859 1.189 1.057.924.396 1.981.991 1.981 2.179zm15.719-5.216l-3.236 7.529h-1.916l-.264-5.416h-.066l-2.047 5.416h-1.916l-.858-7.529h1.387l.66 5.812h.066l2.114-5.812h1.651l.33 5.812h.066l2.444-5.812h1.585zm0 1.253l.528-1.254h2.576l-1.321 7.528h-1.519l1.057-6.208h-1.321v-.066zm2.708-4.358c.528 0 .924.396.924.924a.903.903 0 01-.924.925.903.903 0 01-.925-.925c0-.528.462-.924.925-.924zm3.302 1.256l1.585-.264-.396 2.113h2.245l-.528 1.255h-1.981l-.727 4.094v.264c0 .529.33.727.859.727.396 0 .66-.066 1.122-.198l.132 1.254a5.056 5.056 0 01-1.651.264c-1.188 0-1.981-.462-1.981-1.717 0-.198 0-.396.066-.66l.727-4.028h-1.255l.198-1.255h1.255l.33-1.849zm5.878 4.028l-.925 5.35h-1.519l1.915-10.765 1.585-.264-.792 4.359h.066c.66-.595 1.387-.925 2.179-.925 1.387 0 2.048.66 2.048 1.981 0 .264 0 .595-.066.991l-.793 4.689h-1.519l.793-4.557c.066-.264.066-.462.066-.66 0-.793-.33-1.189-1.057-1.189-.726-.066-1.519.462-1.981.99zm9.51 2.509c0-2.708 1.717-4.821 4.359-4.821.793 0 1.453.132 2.047.396l-.66 1.189a3.993 3.993 0 00-1.585-.33c-1.387 0-2.51 1.453-2.51 3.434 0 1.189.661 1.783 1.651 1.783.529 0 1.189-.132 1.717-.33l.331 1.188c-.661.265-1.519.463-2.312.463-1.981 0-3.038-1.189-3.038-2.972zm9.114-2.509l-.924 5.35h-1.519l1.915-10.765 1.585-.264-.793 4.359h.066c.661-.595 1.387-.925 2.18-.925 1.387 0 2.047.66 2.047 1.981 0 .264 0 .595-.066.991l-.792 4.689h-1.519l.792-4.557c.066-.264.066-.462.066-.66 0-.793-.33-1.189-1.056-1.189-.727-.066-1.519.462-1.982.99zm5.614-.926l.528-1.254h2.576l-1.321 7.528h-1.519l1.057-6.208h-1.321v-.066zm2.774-4.358c.528 0 .925.396.925.924a.904.904 0 01-.925.925.904.904 0 01-.925-.925c0-.528.397-.924.925-.924zm4.293 10.567c-.529.198-.859.198-1.255.198-1.057 0-1.585-.462-1.585-1.452 0-.199 0-.397.066-.661l1.519-8.783 1.585-.264-1.585 9.113v.264c0 .397.198.529.528.529.265 0 .397-.066.661-.132l.066 1.188zm5.349-7.594c.661 0 1.189.132 1.585.33l.595-3.434 1.585-.264-1.915 11.028h-.991l-.132-.792h-.066c-.661.594-1.387.924-2.378.924-1.519 0-2.443-.99-2.443-2.971 0-2.576 1.519-4.821 4.16-4.821zm.727 5.481l.66-3.698c-.396-.33-.924-.528-1.585-.528-1.387 0-2.443 1.519-2.443 3.434 0 1.188.528 1.783 1.519 1.783.726.066 1.32-.331 1.849-.991zm8.123-3.897c-.198-.066-.396-.132-.726-.132-.859 0-1.519.859-1.849 1.85l-.793 4.359h-1.519l1.321-7.53h1.057l.066 1.189h.066c.528-.792 1.122-1.321 2.179-1.321.33 0 .661.066.925.132l-.727 1.453zm.661 3.236c0-2.576 1.519-4.821 4.227-4.821 1.453 0 2.443.661 2.443 1.981 0 1.519-1.321 2.642-5.085 2.642 0 1.188.396 1.915 1.717 1.915.66 0 1.189-.198 1.783-.462l.462 1.122a5.667 5.667 0 01-2.575.595c-1.982 0-2.972-1.189-2.972-2.972zm1.783-1.519c2.84 0 3.368-.594 3.368-1.255 0-.528-.462-.792-1.123-.792-1.056 0-1.915.924-2.245 2.047zm7.001 4.359h-1.519l1.321-7.529h1.122l.132.793h.066c.727-.661 1.453-.925 2.246-.925 1.387 0 2.047.661 2.047 2.047 0 .265 0 .661-.066.991l-.792 4.689h-1.519l.792-4.557c.066-.264.066-.462.066-.66 0-.793-.33-1.123-1.056-1.123-.595 0-1.321.462-1.85 1.057l-.99 5.217zm-50.392-119.804c-5.878-14.2-16.908-21.861-32.296-22.455v-13.936c21.068.595 37.183 11.624 45.241 31.041l-12.945 5.35zm-39.495 16.114l-44.778 13.011-22.323-77.602 13.473-3.83 18.427 64.128 31.305-9.114 3.896 13.407zm7.133-69.676c12.416.132 23.512-2.311 32.626-11.227l9.775 9.972c-11.756 11.558-26.286 15.388-42.401 15.256v-14.001zm2.312-29.852c7.132-1.981 14.595 2.18 16.577 9.246 1.981 7.133-2.18 14.53-9.378 16.511-7.133 1.982-14.596-2.179-16.578-9.246-1.981-7.133 2.246-14.529 9.379-16.511zm-41.146 0c7.133-1.981 14.596 2.18 16.577 9.246 1.981 7.133-2.179 14.53-9.378 16.511-7.133 1.982-14.596-2.179-16.577-9.246-1.982-7.133 2.179-14.529 9.378-16.511zm33.551 60.893c-9.775-.265-19.219-1.784-27.475-7.265.727 6.076 2.444 12.02 5.746 17.237 15.454-4.491 28.795-5.019 39.032.264 11.756 6.076 18.757 19.153 18.955 41.41h-14.002c-.198-16.313-4.292-25.361-11.359-28.993-7.529-3.897-19.087-2.576-33.088 2.047-2.642.859-5.614.132-7.529-2.113-11.228-13.341-13.341-29.984-11.624-46.759.396-6.407 8.718-8.982 12.614-3.699 8.058 10.897 15.587 13.473 28.796 13.869v14.002h-.066z" fill="#25AEEC"/><path fill-rule="evenodd" clip-rule="evenodd" d="M453.145 645.3H246.162c-13.143 0-18.162-5.086-18.162-18.163V420.154c0-13.142 5.085-18.162 18.162-18.162h206.983c13.142 0 18.162 5.086 18.162 18.162v206.983c.066 13.143-5.02 18.163-18.162 18.163z" fill="#fff"/><path d="M256.597 567.037l-2.444 7.133h-2.575l-2.378-7.133h-.066l-.793 8.982h-2.509l1.254-13.738h2.774l2.972 8.851h.066l2.972-8.851h2.774l1.255 13.738h-2.51l-.792-8.982zm12.879 6.408l.858 1.915c-.991.462-2.179.859-3.434.859-2.972 0-4.953-1.916-4.953-5.218s1.783-5.218 4.623-5.218c2.641 0 4.226 1.651 4.226 4.425 0 .265-.066.991-.132 1.519h-6.274c.264 1.52 1.321 2.378 2.642 2.378.792 0 1.783-.33 2.444-.66zm-.991-3.567c0-1.123-.727-1.981-1.981-1.981-1.057 0-1.916.66-2.114 1.981h4.095zm11.822 5.746c-.859.397-1.849.595-2.84.595-3.236 0-5.019-2.312-5.019-5.218s1.651-5.218 4.887-5.218a8.31 8.31 0 012.84.529l-.793 1.915a4.977 4.977 0 00-1.915-.396c-1.453 0-2.51 1.255-2.51 3.104 0 1.849 1.057 3.104 2.51 3.104.66 0 1.453-.132 2.047-.396l.793 1.981zm.792-9.644h8.652l-.396 2.114h-2.774v7.925h-2.444v-7.925h-3.104v-2.114h.066zm15.124 3.435c0-.99-.462-1.519-1.717-1.519-.858 0-1.717.198-2.641.529l-.727-1.981c1.189-.463 2.378-.661 3.633-.661 3.038 0 3.896 1.585 3.896 3.698v3.83c0 .462.264.726.727.726h.198v1.915c-.264.132-.925.198-1.387.198-.859 0-1.453-.33-1.783-.99h-.066c-.727.726-1.519.99-2.642.99-1.915 0-3.104-.924-3.104-2.971 0-1.915 1.519-2.972 3.764-2.972h1.849v-.792zm0 3.698v-1.123h-1.783c-.924 0-1.387.463-1.387 1.123 0 .66.463.99 1.057.99.793 0 1.585-.396 2.113-.99zm10.237.793c.991-1.717 1.255-3.435 1.255-6.803v-1.123h6.869v7.926h1.585l-.396 4.623h-2.048v-2.51h-6.208v2.51h-2.047l-.397-4.623h1.387zm3.633-5.812c0 2.245-.198 4.293-.991 5.812h3.104v-5.812h-2.113zm11.69.132c0 5.217-1.189 7.859-3.435 7.859-.528 0-.99-.132-1.387-.33l.595-1.915c.132.066.264.132.462.132.793 0 1.387-1.321 1.387-6.67v-1.255h7.001v10.038h-2.444v-7.925h-2.246v.066h.067zm9.18 3.896c-1.189-.462-1.85-1.519-1.85-2.972 0-1.915 1.321-3.17 3.501-3.17h4.161v10.039h-2.444v-3.567h-.991l-2.179 3.567h-2.708l2.51-3.897zm1.783-1.783h1.519v-2.245h-1.519c-.727 0-1.189.462-1.189 1.122 0 .661.462 1.123 1.189 1.123zm-84.801 17.039c.793-.858 1.783-1.452 3.038-1.452 2.444 0 4.227 1.651 4.227 4.953 0 3.236-2.047 4.953-4.821 4.953-3.236 0-4.689-2.444-4.689-6.406 0-6.142 1.783-7.463 5.019-7.793 1.453-.132 2.245-.33 3.302-.727l.793 1.916c-1.123.594-2.51.858-3.831.99-2.113.132-3.104 1.057-3.038 3.566zm.198 2.048c0 2.84.793 4.293 2.246 4.293 1.321 0 2.377-.925 2.377-2.84 0-1.915-.924-2.84-2.113-2.84-.859 0-1.849.396-2.51 1.387zm16.577 3.632l.859 1.915c-.991.463-2.179.859-3.434.859-2.972 0-4.954-1.915-4.954-5.218 0-3.302 1.784-5.218 4.624-5.218 2.641 0 4.226 1.652 4.226 4.426 0 .264-.066.99-.132 1.519h-6.34c.264 1.519 1.321 2.377 2.642 2.377.792 0 1.783-.264 2.509-.66zm-.99-3.567c0-1.122-.727-1.981-1.982-1.981-1.056 0-1.915.66-2.113 1.981h4.095zm6.868-2.97c.661-.66 1.519-1.056 2.576-1.056 2.84 0 4.095 2.179 4.095 5.217 0 3.037-1.321 5.216-4.293 5.216a8.135 8.135 0 01-2.312-.33v4.094l-2.443.397v-14.33h1.849l.396.858h.132v-.066zm4.227 4.095c0-1.849-.726-3.104-2.245-3.104-.661 0-1.321.396-1.916.99v4.689c.529.33 1.255.528 1.982.528 1.387 0 2.179-1.122 2.179-3.103zm11.822 2.442l.859 1.915c-.991.463-2.18.859-3.435.859-2.972 0-4.953-1.915-4.953-5.218 0-3.302 1.783-5.218 4.623-5.218 2.642 0 4.227 1.652 4.227 4.426 0 .264-.066.99-.132 1.519h-6.274c.264 1.519 1.32 2.377 2.641 2.377.793 0 1.784-.264 2.444-.66zm-.925-3.567c0-1.122-.726-1.981-1.981-1.981-1.057 0-1.915.66-2.113 1.981h4.094zm12.681.199h-.066l-1.717 4.293h-2.114l-1.783-4.293h-.132l-.462 5.944h-2.444l.991-10.038h2.575l2.246 5.349h.066l2.246-5.349h2.575l.991 10.038h-2.444l-.528-5.944zm12.218 3.368l.859 1.915c-.991.463-2.18.859-3.435.859-2.972 0-4.953-1.915-4.953-5.218 0-3.302 1.783-5.218 4.623-5.218 2.642 0 4.227 1.652 4.227 4.426 0 .264-.066.99-.132 1.519h-6.274c.264 1.519 1.32 2.377 2.641 2.377.793 0 1.783-.264 2.444-.66zm-.925-3.567c0-1.122-.726-1.981-1.981-1.981-1.057 0-1.915.66-2.113 1.981h4.094zm12.747 6.143h-2.444v-4.095h-3.368v4.095h-2.443v-10.038h2.443v3.83h3.368v-3.83h2.444v10.038zm11.227 0h-2.443v-4.095h-3.368v4.095h-2.444v-10.038h2.444v3.83h3.368v-3.83h2.443v10.038zm6.869-6.406c2.18 0 3.567 1.189 3.567 3.236s-1.387 3.17-3.567 3.17h-3.896v-10.038h2.443v3.566h1.453v.066zm-1.519 1.981v2.312h1.321c.793 0 1.321-.463 1.321-1.189 0-.727-.462-1.189-1.321-1.189h-1.321v.066zm8.652 4.425h-2.444v-10.038h2.444v10.038zm6.604-3.368l-2.113 3.368h-2.642l3.368-5.151-3.17-4.887h2.642l1.849 3.17h.066l1.85-3.17h2.707l-3.17 4.887 3.368 5.151-2.509.199-2.246-3.567zm-106.199 17.766l-.66 3.632h-1.585l1.783-10.303h3.236c1.849 0 2.906.991 2.906 2.84 0 2.246-1.717 3.831-4.095 3.831h-1.585zm.925-5.284l-.661 3.831h1.651c1.255 0 2.18-.991 2.18-2.444 0-.924-.528-1.453-1.453-1.453h-1.717v.066zm9.907 2.841a2.043 2.043 0 00-.727-.132c-.858 0-1.519.858-1.849 1.849l-.793 4.359h-1.519l1.321-7.529h1.057l.066 1.189h.066c.528-.793 1.123-1.321 2.18-1.321.33 0 .66.066.924.132l-.726 1.453zm.66-.199l.528-1.255h2.576l-1.321 7.529h-1.519l1.057-6.208h-1.321v-.066zm2.708-4.359c.528 0 .924.397.924.925a.902.902 0 01-.924.924.903.903 0 01-.925-.924c0-.528.462-.925.925-.925zm5.613 2.973c1.916 0 2.84 1.188 2.84 2.971 0 2.575-1.585 4.82-4.227 4.82-1.849 0-2.839-.99-2.839-2.971 0-2.575 1.585-4.82 4.226-4.82zm-1.122 6.47c1.387 0 2.443-1.518 2.443-3.433 0-1.188-.528-1.783-1.519-1.783-1.387 0-2.443 1.519-2.443 3.434 0 1.188.528 1.782 1.519 1.782zm9.774-4.885c-.198-.066-.396-.132-.726-.132-.859 0-1.519.858-1.85 1.849l-.792 4.359h-1.519l1.321-7.529h1.123l.066 1.189h.066c.528-.793 1.122-1.321 2.179-1.321.33 0 .661.066.925.132l-.793 1.453zm.727-.199l.528-1.255h2.576l-1.321 7.529h-1.519l1.123-6.208h-1.387v-.066zm2.708-4.359c.528 0 .924.397.924.925a.902.902 0 01-.924.924.903.903 0 01-.925-.924c0-.528.396-.925.925-.925zm3.302 1.255l1.585-.265-.396 2.114h2.245l-.528 1.254h-1.982l-.726 4.095v.264c0 .528.33.726.859.726.396 0 .66-.066 1.122-.198l.132 1.255a5.056 5.056 0 01-1.651.264c-1.189 0-1.981-.462-1.981-1.717 0-.198 0-.396.066-.66l.726-4.029h-1.254l.198-1.254h1.255l.33-1.849zm3.17 11.095c.198.132.462.198.792.198.331 0 .727-.198 1.057-.858l.528-1.123h-.528l-1.321-7.53h1.519l.991 5.945h.066l2.906-5.945h1.651l-4.491 8.983c-.726 1.453-1.651 1.783-2.444 1.783-.528 0-.924-.132-1.254-.264l.528-1.189zm16.445-4.094c0 1.519-1.387 2.444-3.236 2.444-.925 0-1.783-.199-2.378-.529l.727-1.189c.528.265 1.123.397 1.849.397.66 0 1.519-.331 1.519-1.057 0-.661-.66-.859-1.387-1.123-.726-.264-1.783-.924-1.783-2.113 0-1.519 1.255-2.246 2.906-2.246.858 0 1.717.198 2.377.528l-.66 1.123c-.528-.198-1.123-.396-1.783-.396-.661 0-1.321.264-1.321.925 0 .594.66.858 1.189 1.056.924.463 1.981 1.057 1.981 2.18zm1.453-.463c0-2.575 1.519-4.82 4.227-4.82 1.453 0 2.443.66 2.443 1.981 0 1.518-1.321 2.641-5.085 2.641 0 1.188.396 1.914 1.717 1.914.66 0 1.189-.198 1.783-.462l.463 1.123a5.686 5.686 0 01-2.576.594c-2.048 0-2.972-1.189-2.972-2.971zm1.717-1.519c2.84 0 3.368-.594 3.368-1.254 0-.529-.462-.793-1.056-.793-1.057 0-1.982.859-2.312 2.047zm12.813-2.773l-1.255 7.066h-.991l-.132-.793h-.132c-.595.595-1.321.925-2.246.925-1.651 0-2.311-1.189-2.311-2.972 0-2.575 1.585-4.82 4.227-4.82 1.122.066 1.981.264 2.84.594zm-5.482 4.16c0 1.123.396 1.783 1.255 1.783.726 0 1.321-.396 1.849-1.056l.66-3.897c-.396-.132-.792-.264-1.387-.264-1.386 0-2.377 1.519-2.377 3.434zm8.321-6.406l1.585-.265-.396 2.114h2.246l-.529 1.254h-1.981l-.726 4.095v.264c0 .528.33.726.858.726.396 0 .661-.066 1.123-.198l.132 1.255a5.06 5.06 0 01-1.651.264c-1.189 0-1.981-.462-1.981-1.717 0-.198 0-.396.066-.66l.726-4.029h-1.255l.198-1.254h1.255l.33-1.849zm8.652 7.001c0 1.519-1.387 2.444-3.236 2.444-.925 0-1.783-.199-2.377-.529l.726-1.189c.528.265 1.123.397 1.849.397.661 0 1.519-.331 1.519-1.057 0-.661-.66-.859-1.387-1.123-.726-.264-1.783-.924-1.783-2.113 0-1.519 1.255-2.246 2.906-2.246.859 0 1.717.198 2.378.528l-.661 1.123c-.528-.198-1.122-.396-1.783-.396-.66 0-1.321.264-1.321.925 0 .594.661.858 1.189 1.056.925.463 1.981 1.057 1.981 2.18zm10.369-5.152l-.528 1.255h-1.519l-1.255 7.133c-.33 1.718-1.321 2.312-2.576 2.312-.594 0-1.188-.198-1.651-.462l.595-1.123c.396.198.66.33 1.122.33.529 0 .859-.264.991-1.057l1.255-7.133h-1.255l.198-1.255h1.255l.198-.991c.33-1.783 1.387-2.576 2.84-2.576.727 0 1.189.132 1.717.397l-.726 1.122a2.254 2.254 0 00-1.057-.264c-.66 0-1.123.397-1.255 1.255l-.198.991h1.849v.066zm4.029-.131c1.915 0 2.84 1.188 2.84 2.971 0 2.575-1.585 4.82-4.227 4.82-1.849 0-2.84-.99-2.84-2.971 0-2.575 1.585-4.82 4.227-4.82zm-1.123 6.47c1.387 0 2.444-1.518 2.444-3.433 0-1.188-.529-1.783-1.519-1.783-1.387 0-2.444 1.519-2.444 3.434 0 1.188.528 1.782 1.519 1.782zm9.841-4.885a2.043 2.043 0 00-.727-.132c-.858 0-1.519.858-1.849 1.849l-.793 4.359h-1.519l1.321-7.529h1.123l.066 1.189h.066c.529-.793 1.123-1.321 2.18-1.321.33 0 .66.066.924.132l-.792 1.453zm-100.321 16.51c0 2.641-1.585 4.821-4.227 4.821-.595 0-1.057-.132-1.585-.396l-.529 3.17-1.585.264 1.916-10.765h1.056l.132.792h.066c.529-.528 1.123-.924 2.114-.924 1.717.132 2.642 1.122 2.642 3.038zm-1.585.132c0-1.189-.529-1.784-1.519-1.784-.595 0-1.255.397-1.784.925l-.66 3.765c.396.33.925.528 1.585.528 1.453 0 2.378-1.519 2.378-3.434zm7.397-1.452c-.199-.066-.397-.132-.727-.132-.859 0-1.519.858-1.849 1.849l-.793 4.359h-1.519l1.321-7.53h1.057l.066 1.189h.066c.528-.792 1.123-1.321 2.179-1.321.331 0 .661.066.925.132l-.726 1.454zm.66 3.235c0-2.575 1.519-4.821 4.227-4.821 1.453 0 2.444.661 2.444 1.981 0 1.519-1.321 2.642-5.086 2.642 0 1.189.396 1.915 1.717 1.915.661 0 1.189-.198 1.783-.462l.463 1.122a5.671 5.671 0 01-2.576.595c-1.981 0-2.972-1.189-2.972-2.972zm1.783-1.519c2.84 0 3.368-.594 3.368-1.254 0-.529-.462-.793-1.122-.793-1.057 0-1.916.859-2.246 2.047zm10.171 4.558l.198-.924h-.066c-.66.594-1.321.858-2.113.858-1.651 0-2.444-.99-2.444-2.972 0-2.576 1.651-4.822 4.293-4.822 1.057 0 1.981.199 2.972.595l-1.321 7.398c-.33 1.981-1.717 2.906-3.831 2.906-.99 0-1.783-.198-2.575-.595l.66-1.255c.594.331 1.255.595 2.047.595 1.189-.066 1.982-.529 2.18-1.784zm-2.906-3.17c0 1.189.462 1.783 1.453 1.783.594 0 1.321-.396 1.915-1.056l.661-3.964c-.463-.198-.925-.264-1.519-.264-1.387.066-2.51 1.586-2.51 3.501zm7.991 2.971h-1.519l1.321-7.529h1.123l.132.793h.066c.727-.66 1.453-.925 2.246-.925 1.386 0 2.047.661 2.047 2.048 0 .264 0 .66-.066.99l-.793 4.689h-1.519l.793-4.557c.066-.264.066-.462.066-.66 0-.793-.33-1.123-1.057-1.123-.594 0-1.321.462-1.849 1.057l-.991 5.217zm13.605-7.131l-1.254 7.065h-.991l-.132-.792h-.066c-.595.594-1.321.924-2.246.924-1.651 0-2.311-1.189-2.311-2.971 0-2.575 1.585-4.82 4.227-4.82 1.056.066 1.981.264 2.773.594zm-5.415 4.16c0 1.122.396 1.782 1.255 1.782.726 0 1.321-.396 1.849-1.056l.66-3.895c-.396-.133-.792-.265-1.387-.265-1.386 0-2.377 1.519-2.377 3.434zm7.727 2.971h-1.519l1.321-7.529h1.057l.132.793h.066c.726-.66 1.453-.925 2.245-.925 1.387 0 2.048.661 2.048 2.048 0 .264 0 .66-.066.99l-.793 4.689h-1.519l.793-4.557c.066-.264.066-.462.066-.66 0-.793-.331-1.123-1.057-1.123-.594 0-1.321.462-1.849 1.057l-.925 5.217zm8.454-9.377l1.585-.264-.397 2.113h2.246l-.528 1.255h-1.982l-.726 4.094v.264c0 .529.33.727.858.727.397 0 .661-.066 1.123-.198l.132 1.255a5.06 5.06 0 01-1.651.264c-1.189 0-1.981-.463-1.981-1.717 0-.198 0-.397.066-.661l.726-4.028h-1.321l.199-1.255h1.254l.397-1.849zm17.898 1.847l-3.236 7.53h-1.916l-.264-5.416h-.066l-2.047 5.416h-1.916l-.858-7.53h1.387l.66 5.812h.066l2.114-5.812h1.651l.33 5.812h.066l2.444-5.812h1.585zm4.16-.131c1.916 0 2.84 1.189 2.84 2.972 0 2.576-1.585 4.821-4.227 4.821-1.849 0-2.839-.991-2.839-2.972 0-2.575 1.585-4.821 4.226-4.821zm-1.188 6.472c1.387 0 2.443-1.519 2.443-3.434 0-1.189-.528-1.783-1.519-1.783-1.387 0-2.443 1.519-2.443 3.434.066 1.189.594 1.783 1.519 1.783zm15.784-4.489c0 .264 0 .595-.066.925l-.793 4.689h-1.519l.793-4.623c.066-.264.066-.462.066-.661 0-.792-.33-1.122-1.057-1.122-.462 0-1.056.33-1.519.726l-.99 5.614h-1.519l.792-4.623c.066-.264.066-.462.066-.661 0-.726-.33-1.056-.924-1.056-.529 0-1.189.462-1.652 1.056l-.924 5.35h-1.519l1.321-7.529h1.122l.133.792h.066c.726-.66 1.321-.924 2.113-.924.925 0 1.519.264 1.717.924.727-.594 1.519-.924 2.312-.924 1.321.066 1.981.726 1.981 2.047zm1.189 2.838c0-2.575 1.519-4.821 4.227-4.821 1.453 0 2.444.661 2.444 1.981 0 1.519-1.321 2.642-5.086 2.642 0 1.189.396 1.915 1.717 1.915.661 0 1.189-.198 1.783-.462l.463 1.122a5.671 5.671 0 01-2.576.595c-1.981 0-2.972-1.189-2.972-2.972zm1.783-1.519c2.84 0 3.369-.594 3.369-1.254 0-.529-.463-.793-1.123-.793-1.057 0-1.916.859-2.246 2.047zm7.001 4.359h-1.519l1.321-7.529h1.123l.132.793h.066c.726-.66 1.453-.925 2.245-.925 1.387 0 2.048.661 2.048 2.048 0 .264 0 .66-.066.99l-.793 4.689h-1.519l.793-4.557c.066-.264.066-.462.066-.66 0-.793-.331-1.123-1.057-1.123-.595 0-1.321.462-1.849 1.057l-.991 5.217zm-62.808-165.707c-.066 2.84-.726 4.887-.264 8.256 13.341-2.84 27.21.858 31.767 21.464 25.229 1.519 33.352 22.389 33.617 45.307H335.85c-.33-32.296-16.379-36.721-44.183-27.012a6.934 6.934 0 01-7.331-1.585c-12.086-11.955-16.049-31.24-13.275-47.619 1.321-8.057 14.001-6.67 13.803 1.189zm26.946 62.016l-44.778 13.011-22.323-77.603 13.473-3.83 18.427 64.129 31.305-9.114 3.896 13.407zm-31.767-97.152c7.133-1.981 14.596 2.18 16.577 9.247 1.981 7.133-2.179 14.53-9.378 16.511-7.133 1.981-14.596-2.18-16.577-9.246-1.982-7.133 2.245-14.53 9.378-16.512z" fill="#25AEEC"/><path fill-rule="evenodd" clip-rule="evenodd" d="M1031.84 645.655H824.85c-13.073 0-18.157-5.084-18.157-18.157V420.505c0-13.073 5.084-18.157 18.157-18.157h206.99c13.14 0 18.16 5.084 18.16 18.157v206.993c0 13.073-5.08 18.157-18.16 18.157z" fill="#fff"/><path d="M835.282 567.414l-2.443 7.13h-2.575l-2.311-7.13h-.066l-.792 8.979h-2.575l1.254-13.733h2.839l2.971 8.847h.066l2.972-8.847h2.773l1.254 13.733h-2.509l-.858-8.979zm12.875 6.403l.859 1.915c-.991.462-2.179.858-3.434.858-2.971 0-4.952-1.915-4.952-5.216s1.783-5.216 4.622-5.216c2.641 0 4.226 1.651 4.226 4.424 0 .264-.066.99-.132 1.518h-6.273c.264 1.519 1.321 2.377 2.641 2.377.793 0 1.783-.33 2.443-.66zm-.924-3.565c0-1.123-.726-1.981-1.981-1.981-1.056 0-1.915.66-2.113 1.981h4.094zm11.818 5.744c-.858.396-1.848.594-2.839.594-3.235 0-5.018-2.311-5.018-5.216 0-2.905 1.651-5.216 4.886-5.216.925 0 1.981.198 2.839.528l-.792 1.915a4.977 4.977 0 00-1.915-.396c-1.452 0-2.509 1.254-2.509 3.103 0 1.849 1.057 3.103 2.509 3.103.661 0 1.453-.132 2.047-.396l.792 1.981zm.793-9.641h8.649l-.396 2.114h-2.773v7.924h-2.443v-7.924h-3.103v-2.114h.066zm9.442 5.019c0-3.235 1.914-5.216 4.688-5.216 2.773 0 4.687 1.915 4.687 5.216 0 3.235-1.914 5.216-4.687 5.216-2.774 0-4.688-1.981-4.688-5.216zm2.443 0c0 1.915.924 3.103 2.245 3.103 1.32 0 2.244-1.188 2.244-3.103 0-1.915-.924-3.103-2.244-3.103-1.321 0-2.245 1.122-2.245 3.103zm14.327 2.905c.991-1.717 1.255-3.434 1.255-6.801v-1.123h6.866v7.924h1.585l-.396 4.621h-2.047v-2.509h-6.206v2.509h-2.047l-.396-4.621h1.386zm3.566-5.811c0 2.245-.198 4.292-.991 5.811h3.104v-5.811h-2.113zm11.686.067c0 5.216-1.188 7.858-3.433 7.858-.528 0-.99-.132-1.387-.331l.595-1.915c.132.066.264.132.462.132.792 0 1.386-1.32 1.386-6.669v-1.255h6.999v10.038h-2.443v-7.924h-2.245v.066h.066zm9.178 3.962c-1.188-.463-1.849-1.519-1.849-2.972 0-1.915 1.321-3.17 3.5-3.17h4.16v10.038h-2.443v-3.566h-.991l-2.179 3.566h-2.707l2.509-3.896zm1.783-1.783h1.519v-2.245h-1.519c-.726 0-1.189.462-1.189 1.122 0 .66.463 1.123 1.189 1.123zm15.318 1.518h-.859v4.093h-2.442v-10.034h2.442v3.829h.859l2.311-3.829h2.443l-2.905 4.819 3.103 5.149-2.509.198-2.443-4.225zm5.81-.858c0-3.235 1.915-5.216 4.688-5.216 2.773 0 4.688 1.915 4.688 5.216 0 3.235-1.915 5.216-4.688 5.216-2.773-.066-4.688-1.981-4.688-5.216zm2.443 0c0 1.915.925 3.103 2.245 3.103 1.321 0 2.245-1.188 2.245-3.103 0-1.915-.924-3.103-2.245-3.103-1.32 0-2.245 1.122-2.245 3.103zm12.611-2.839c0 5.216-1.188 7.858-3.433 7.858-.528 0-.99-.132-1.387-.331l.595-1.915c.132.066.264.132.462.132.792 0 1.386-1.32 1.386-6.669v-1.255h6.999v10.038h-2.443v-7.924h-2.245v.066h.066zm9.178 3.962c-1.188-.463-1.849-1.519-1.849-2.972 0-1.915 1.321-3.17 3.5-3.17h4.159v10.038h-2.443v-3.566h-.99l-2.179 3.566h-2.707l2.509-3.896zm1.783-1.783h1.518v-2.245h-1.518c-.727 0-1.189.462-1.189 1.122 0 .66.462 1.123 1.189 1.123zm14.195 5.282c-.858.396-1.848.594-2.839.594-3.235 0-5.018-2.311-5.018-5.216 0-2.905 1.651-5.216 4.886-5.216.924 0 1.981.198 2.839.528l-.792 1.915a4.977 4.977 0 00-1.915-.396c-1.452 0-2.509 1.254-2.509 3.103 0 1.849 1.057 3.103 2.509 3.103.66 0 1.453-.132 2.047-.396l.792 1.981zm5.216-3.764h-.858v4.093h-2.443v-10.034h2.443v3.829h.858l2.311-3.829h2.443l-2.905 4.819 3.103 5.149-2.509.198-2.443-4.225zm12.942-1.848l-4.094 6.009h-2.245v-10.038h2.443v6.01h.066l4.028-6.01h2.245v10.038h-2.443v-6.009zM826.831 590.72l-.661 3.632h-1.584l1.782-10.301h3.236c1.848 0 2.905.99 2.905 2.839 0 2.245-1.717 3.83-4.094 3.83h-1.584zm.924-5.283l-.66 3.83h1.65c1.255 0 2.179-.99 2.179-2.443 0-.924-.528-1.453-1.452-1.453h-1.717v.066zm8.055 8.848c-.528.198-.858.198-1.254.198-1.057 0-1.585-.462-1.585-1.453 0-.198 0-.396.066-.66l1.519-8.782 1.584-.264-1.584 9.112v.264c0 .396.198.528.528.528.264 0 .396-.066.66-.132l.066 1.189zm8.253-6.999l-1.254 7.065h-.99l-.133-.792h-.066c-.594.594-1.32.924-2.244.924-1.651 0-2.311-1.189-2.311-2.971 0-2.576 1.584-4.821 4.225-4.821 1.057 0 1.915.265 2.773.595zm-5.48 4.16c0 1.122.396 1.782 1.255 1.782.726 0 1.32-.396 1.848-1.056l.661-3.896c-.396-.132-.793-.264-1.387-.264-1.386 0-2.377 1.453-2.377 3.434zm6.471.066c0-2.708 1.717-4.821 4.358-4.821.792 0 1.452.132 2.046.397l-.66 1.188a3.988 3.988 0 00-1.584-.33c-1.387 0-2.51 1.453-2.51 3.434 0 1.188.661 1.782 1.651 1.782.528 0 1.189-.132 1.717-.33l.33 1.189c-.66.264-1.519.462-2.311.462-1.981 0-3.037-1.122-3.037-2.971zm6.536 0c0-2.576 1.519-4.821 4.226-4.821 1.453 0 2.443.661 2.443 1.981 0 1.519-1.32 2.642-5.084 2.642 0 1.188.396 1.914 1.717 1.914.66 0 1.188-.198 1.782-.462l.463 1.123a5.682 5.682 0 01-2.575.594c-1.981 0-2.972-1.122-2.972-2.971zm1.783-1.519c2.839 0 3.368-.594 3.368-1.255 0-.528-.463-.792-1.057-.792-1.122.066-1.981.924-2.311 2.047zm14.658-3.17l-.528 1.255h-1.519l-1.254 7.13c-.33 1.717-1.321 2.311-2.575 2.311-.594 0-1.255-.198-1.651-.462l.594-1.122c.396.198.661.33 1.123.33.528 0 .858-.264.99-1.057l1.255-7.13h-1.255l.198-1.255h1.255l.198-.99c.33-1.783 1.386-2.575 2.839-2.575.726 0 1.188.132 1.717.396l-.727 1.122a2.25 2.25 0 00-1.056-.264c-.66 0-1.123.396-1.255 1.255l-.198.99h1.849v.066zm4.028-.132c1.914 0 2.839 1.189 2.839 2.972 0 2.575-1.585 4.82-4.226 4.82-1.849 0-2.839-.99-2.839-2.971 0-2.576 1.585-4.821 4.226-4.821zm-1.189 6.537c1.387 0 2.443-1.518 2.443-3.433 0-1.189-.528-1.783-1.519-1.783-1.386 0-2.443 1.519-2.443 3.434.067 1.188.595 1.782 1.519 1.782zm9.838-4.952c-.198-.066-.396-.132-.726-.132-.859 0-1.519.859-1.849 1.849l-.792 4.359h-1.519l1.321-7.529h1.056l.066 1.189h.066c.528-.792 1.123-1.321 2.179-1.321.33 0 .66.066.924.132l-.726 1.453zm9.574 3.763c0 1.519-1.387 2.443-3.235 2.443-.925 0-1.783-.198-2.377-.528l.726-1.188c.528.264 1.122.396 1.849.396.66 0 1.518-.33 1.518-1.057 0-.66-.66-.858-1.386-1.122-.727-.264-1.783-.925-1.783-2.113 0-1.519 1.255-2.245 2.905-2.245.859 0 1.717.198 2.377.528l-.66 1.123c-.528-.198-1.123-.396-1.783-.396-.66 0-1.32.264-1.32.924 0 .594.66.858 1.188 1.056.925.463 1.981.991 1.981 2.179zm3.301-7.064l1.585-.264-.396 2.113h2.245l-.529 1.255h-1.98l-.727 4.094v.264c0 .529.33.727.859.727.396 0 .66-.066 1.122-.198l.132 1.254a5.054 5.054 0 01-1.65.264c-1.189 0-1.981-.462-1.981-1.717 0-.198 0-.396.066-.66l.726-4.028h-1.254l.198-1.255h1.254l.33-1.849zm8.254 3.301a2.043 2.043 0 00-.727-.132c-.858 0-1.518.859-1.848 1.849l-.793 4.359h-1.518l1.32-7.529h1.123l.066 1.189h.066c.528-.792 1.122-1.321 2.179-1.321.33 0 .66.066.924.132l-.792 1.453zm4.885-1.585c1.915 0 2.84 1.189 2.84 2.972 0 2.575-1.585 4.82-4.226 4.82-1.849 0-2.839-.99-2.839-2.971.066-2.576 1.584-4.821 4.225-4.821zm-1.122 6.537c1.386 0 2.443-1.518 2.443-3.433 0-1.189-.528-1.783-1.519-1.783-1.386 0-2.443 1.519-2.443 3.434 0 1.188.529 1.782 1.519 1.782zm8.055 1.057c-.528.198-.858.198-1.254.198-1.057 0-1.585-.462-1.585-1.453 0-.198 0-.396.066-.66l1.519-8.782 1.584-.264-1.584 9.112v.264c0 .396.198.528.528.528.264 0 .396-.066.66-.132l.066 1.189zm4.094 0c-.528.198-.858.198-1.255.198-1.056 0-1.584-.462-1.584-1.453 0-.198 0-.396.066-.66l1.518-8.782 1.585-.264-1.585 9.112v.264c0 .396.199.528.529.528.264 0 .396-.066.66-.132l.066 1.189zm1.189-2.773c0-2.576 1.518-4.821 4.225-4.821 1.453 0 2.443.661 2.443 1.981 0 1.519-1.32 2.642-5.084 2.642 0 1.188.396 1.914 1.717 1.914.66 0 1.188-.198 1.783-.462l.462 1.123a5.682 5.682 0 01-2.575.594c-2.047 0-2.971-1.122-2.971-2.971zm1.716-1.519c2.839 0 3.368-.594 3.368-1.255 0-.528-.463-.792-1.123-.792-1.056.066-1.915.924-2.245 2.047zm10.366-1.717c-.198-.066-.396-.132-.726-.132-.858 0-1.519.859-1.849 1.849l-.792 4.359H926.2l1.321-7.529h1.122l.066 1.189h.066c.528-.792 1.123-1.321 2.179-1.321.33 0 .66.066.925.132l-.859 1.453zm5.745 3.763c0 1.519-1.387 2.443-3.236 2.443-.924 0-1.782-.198-2.377-.528l.727-1.188c.528.264 1.122.396 1.848.396.661 0 1.519-.33 1.519-1.057 0-.66-.66-.858-1.387-1.122-.726-.264-1.782-.925-1.782-2.113 0-1.519 1.254-2.245 2.905-2.245.858 0 1.716.198 2.377.528l-.661 1.123c-.528-.198-1.122-.396-1.782-.396-.66 0-1.321.264-1.321.924 0 .594.661.858 1.189 1.056.924.463 1.981.991 1.981 2.179zm-63.584-100.094c-12.017-3.434-19.676-11.687-23.241-24.43-17.959 21.723-12.017 53.679-4.754 78.439h-13.8c-9.772-34.994-13.337-72.562 18.818-97.652 3.763-3.301 11.026-.462 11.29 6.14 1.651 17.959 7.329 23.902 25.421 27.335-.529 7.593 1.782 14.393 7.196 19.873 4.556 4.556 10.829 7.329 17.762 7.329 13.865 0 25.156-11.224 25.156-25.155 0-13.866-11.225-25.156-25.156-25.156-4.886 0-9.508 1.32-13.602 3.961l-7.395-11.422c6.207-4.027 13.602-6.206 20.997-6.206 21.458 0 38.889 17.43 38.889 38.889 0 21.458-17.431 38.889-38.889 38.889-10.763 0-20.469-4.358-27.533-11.423-5.018-5.018-9.442-12.214-11.159-19.411zm-4.886-72.892c7.395 0 13.403 5.942 13.403 13.337s-6.008 13.337-13.403 13.337c-7.395 0-13.403-5.942-13.403-13.337s6.008-13.337 13.403-13.337zm-26.939 85.899l10.565-8.848c12.941 15.516 19.081 29.778 21.128 49.85h-13.866c-1.914-16.705-6.998-28.061-17.827-41.002zm91.183 22.712a9.159 9.159 0 019.178 9.178 9.159 9.159 0 01-9.178 9.178 9.159 9.159 0 01-9.178-9.178 9.159 9.159 0 019.178-9.178zm-41.333 0a9.159 9.159 0 019.178 9.178 9.159 9.159 0 01-9.178 9.178 9.158 9.158 0 01-9.177-9.178 9.158 9.158 0 019.177-9.178z" fill="#25AEEC"/></svg>