<svg viewBox="0 0 750.01 238.56" xmlns="http://www.w3.org/2000/svg"><g fill="#fff"><path d="m119.26 0a117.63 117.63 0 0 0 -103.34 58.67h160.78v25.92h-171.82a124.35 124.35 0 0 0 -4.88 34.67 117.64 117.64 0 0 0 119.26 119.29 117.68 117.68 0 0 0 119.29-119.29 117.63 117.63 0 0 0 -119.29-119.26zm57.44 132.24h-87.81s0 2.78 0 6.17c.22 12.75 4 15.52 16.55 15.52h71.26v26h-70.7c-32.46 0-46.47-10.73-46.47-43.92v-29.73h117.17z"/><path d="m286.59 66.91v41.65h-9.2v-41.65h-14.48v-8.27h38.15l-1.42 8.27z"/><path d="m308 75.33a13.45 13.45 0 0 1 9.42-3.85c10.27 0 14.9 7.91 14.9 18.9s-4.7 18.9-15.54 18.9a26.87 26.87 0 0 1 -8.35-1.29v14.84l-8.84 1.42v-52.06h6.7l1.43 3.14zm15.34 15c0-6.64-2.71-11.27-8.06-11.27a9.58 9.58 0 0 0 -6.85 3.56v17a13.87 13.87 0 0 0 7.13 1.92c4.78 0 7.78-4.13 7.78-11.26z"/><path d="m358.81 84.74c0-3.49-1.78-5.63-6.13-5.63a29 29 0 0 0 -9.68 1.89l-2.64-7.13a36.32 36.32 0 0 1 13.2-2.42c11.12 0 14.12 5.85 14.12 13.4v13.87a2.24 2.24 0 0 0 .1 1 2.3 2.3 0 0 0 .55.88 2.26 2.26 0 0 0 .88.55 2.29 2.29 0 0 0 1 .11h.79v6.92a16.68 16.68 0 0 1 -5.06.71 6.49 6.49 0 0 1 -6.42-3.5h-.29a12.25 12.25 0 0 1 -9.55 3.5c-6.92 0-11.27-3.42-11.27-10.84 0-7 5.56-10.91 13.62-10.91h6.77zm0 13.34v-4.14h-6.49c-3.28 0-5.13 1.64-5.13 4a3.74 3.74 0 0 0 .27 1.48 3.58 3.58 0 0 0 3.65 2.22 10.33 10.33 0 0 0 4.24-1 10.45 10.45 0 0 0 3.46-2.61z"/><path d="m408 108.56h-8.85v-14.9h-12.15v14.9h-8.84v-36.37h8.84v13.81h12.2v-13.81h8.8z"/><path d="m444.64 107.21a25.88 25.88 0 0 1 -10.34 2.07c-11.77 0-18.12-8.42-18.12-18.9s6-18.9 17.76-18.9a28 28 0 0 1 10.34 2l-2.85 7a18.36 18.36 0 0 0 -7.06-1.35c-5.28 0-9.2 4.56-9.2 11.27s3.85 11.26 9.13 11.26a20.88 20.88 0 0 0 7.49-1.42z"/><path d="m481.08 108.56h-8.85v-28.74h-11.62v28.74h-8.85v-36.37h29.32z"/><path d="m489.24 90.38c0-11.84 7-18.9 17.12-18.9s17.12 7.06 17.12 18.9-7 18.9-17.12 18.9-17.12-7.06-17.12-18.9zm9 0c0 7.06 3.43 11.26 8.13 11.26s8.13-4.2 8.13-11.26-3.42-11.27-8.13-11.27-8.14 4.21-8.14 11.27z"/><path d="m540.06 75.33a13.45 13.45 0 0 1 9.42-3.85c10.27 0 14.9 7.91 14.9 18.9s-4.7 18.9-15.55 18.9a26.85 26.85 0 0 1 -8.34-1.29v14.84l-8.84 1.42v-52.06h6.7l1.43 3.14zm15.34 15c0-6.64-2.71-11.27-8.06-11.27a9.58 9.58 0 0 0 -6.85 3.56v17a13.85 13.85 0 0 0 7.13 1.92c4.78.1 7.78-4.03 7.78-11.16z"/><path d="m568.3 72.19h31.52l-1.43 7.63h-10.13v28.74h-8.77v-28.74h-11.19z"/><path d="m267.9 179.87v-49.93h29l-1.43 8.28h-18.47v11.69h16.26v8.28h-16.26v13.4h19.83v8.28z"/><path d="m317.29 165h-3.14v14.91h-8.84v-36.42h8.84v13.84h3.21l8.42-13.84h9l-10.64 17.51 11.34 18.83-9.06.71z"/><path d="m359.48 156.05c0-3.5-1.78-5.64-6.13-5.64a28.78 28.78 0 0 0 -9.7 1.93l-2.65-7.13a36.28 36.28 0 0 1 13.19-2.43c11.13 0 14.12 5.85 14.12 13.41v13.81a2.41 2.41 0 0 0 .11 1 2.26 2.26 0 0 0 .55.88 2.38 2.38 0 0 0 .88.55 2.24 2.24 0 0 0 1 .1h.79v6.92a16.71 16.71 0 0 1 -5.07.72 6.49 6.49 0 0 1 -6.42-3.5h-.28a12.13 12.13 0 0 1 -4.4 2.79 12.41 12.41 0 0 1 -5.16.71c-6.92 0-11.26-3.43-11.26-10.85 0-7 5.56-10.91 13.61-10.91h6.78zm0 13.33v-4.13h-6.48c-3.28 0-5.13 1.64-5.13 4a3.6 3.6 0 0 0 2.42 3.52 3.63 3.63 0 0 0 1.5.19 10.33 10.33 0 0 0 4.23-1 10.22 10.22 0 0 0 3.47-2.61z"/><path d="m374.52 143.49h31.48l-1.42 7.63h-10.09v28.75h-8.77v-28.74h-11.2z"/><path d="m436.42 170.6 3.07 6.91a28 28 0 0 1 -12.56 3.07c-10.69 0-18-7-18-18.9s6.42-18.9 16.69-18.9c9.48 0 15.4 5.92 15.4 16.12a50.33 50.33 0 0 1 -.42 5.49h-22.73a9.41 9.41 0 0 0 9.49 8.56 21.64 21.64 0 0 0 9.06-2.35zm-3.5-13a6.83 6.83 0 0 0 -.4-2.84 6.75 6.75 0 0 0 -1.55-2.41 6.92 6.92 0 0 0 -2.41-1.55 6.72 6.72 0 0 0 -2.84-.41 7.82 7.82 0 0 0 -7.7 7.21z"/><path d="m458 146.63a13.5 13.5 0 0 1 9.41-3.85c10.27 0 14.91 7.92 14.91 18.9s-4.71 18.9-15.55 18.9a27.21 27.21 0 0 1 -8.35-1.28v14.83l-8.84 1.43v-52.07h6.71l1.42 3.14zm15.33 15.05c0-6.63-2.71-11.27-8.06-11.27a9.58 9.58 0 0 0 -3.8 1.07 9.42 9.42 0 0 0 -3 2.5v17a13.74 13.74 0 0 0 7.13 1.93c4.78 0 7.77-4.14 7.77-11.27z"/><path d="m513.78 158h-.21l-14.69 21.83h-8.06v-36.34h8.84v21.83h.22l14.69-21.83h8.06v36.38h-8.85z"/><path d="m563.2 179.87h-8.85v-14.87h-12.19v14.91h-8.85v-36.42h8.85v13.84h12.19v-13.84h8.85z"/><path d="m580.23 149.84a15.15 15.15 0 0 1 5-3.84 15 15 0 0 1 6.13-1.44c8.91 0 15.4 5.92 15.4 18.05 0 11.84-7.41 18-17.54 18-11.77 0-17.12-8.77-17.12-23.32 0-22.32 6.42-27.17 18.19-28.24a37.22 37.22 0 0 0 11.91-2.64l2.85 6.84a38.18 38.18 0 0 1 -13.91 3.57c-7.48.57-11.12 3.92-11.12 13.05zm.72 7.56c.05 10.41 2.85 15.6 8.27 15.6 4.78 0 8.56-3.35 8.56-10.34s-3.43-10.41-7.7-10.41a11.15 11.15 0 0 0 -9.13 5.2z"/><path d="m635.52 143.49h9.41l-14 43.37a10.78 10.78 0 0 1 -10.84 8.7 18.21 18.21 0 0 1 -6.63-1.43l2.43-7.13a10.94 10.94 0 0 0 3.77.93c1.15 0 2.79-.57 3.57-3.21l1.43-4.85h-2.5l-12.16-36.38h9.55l8.05 25.51h.29z"/><path d="m658.69 146.63a13.5 13.5 0 0 1 9.41-3.85c10.28 0 14.91 7.92 14.91 18.9s-4.71 18.9-15.55 18.9a27.1 27.1 0 0 1 -8.34-1.28v14.83l-8.85 1.43v-52.07h6.73l1.42 3.14zm15.31 15.05c0-6.63-2.72-11.27-8.07-11.27a9.65 9.65 0 0 0 -6.84 3.57v17a13.76 13.76 0 0 0 7.13 1.93c4.78 0 7.78-4.14 7.78-11.27z"/><path d="m714.57 143.49-1.42 7.63h-13.15v28.75h-8.84v-36.38z"/><path d="m737.82 156.05c0-3.5-1.79-5.64-6.14-5.64a28.78 28.78 0 0 0 -9.7 1.93l-2.63-7.13a36.24 36.24 0 0 1 13.19-2.43c11.13 0 14.12 5.85 14.12 13.41v13.81a2.26 2.26 0 0 0 .11 1 2.25 2.25 0 0 0 1.43 1.43 2.24 2.24 0 0 0 1 .1h.8v6.92a16.69 16.69 0 0 1 -5.06.72 6.51 6.51 0 0 1 -3.75-.76 6.42 6.42 0 0 1 -2.67-2.74h-.29a12.09 12.09 0 0 1 -4.39 2.79 12.41 12.41 0 0 1 -5.16.71c-6.92 0-11.27-3.43-11.27-10.85 0-7 5.56-10.91 13.62-10.91h6.78zm0 13.33v-4.13h-6.49c-3.29 0-5.14 1.64-5.14 4a3.79 3.79 0 0 0 .27 1.49 3.73 3.73 0 0 0 .86 1.25 3.49 3.49 0 0 0 1.29.78 3.65 3.65 0 0 0 1.5.19 10.34 10.34 0 0 0 4.24-1 10.22 10.22 0 0 0 3.47-2.61z"/></g></svg>