<svg viewBox="0 0 1970.45 626.6" xmlns="http://www.w3.org/2000/svg"><g fill="#fff"><path d="m313.3 0c-117.9 0-218 61-271.5 154.1h422.4v68.1h-451.4a327.65 327.65 0 0 0 -12.8 91.1c0 176.5 136.8 313.3 313.3 313.3s313.3-136.8 313.3-313.3-136.8-313.3-313.3-313.3zm150.9 347.4h-230.7s-.1 7.3.1 16.2c.6 33.5 10.6 40.8 43.5 40.8h187.1v68.1h-185.8c-85.3 0-122-28.1-122-115.3v-78h307.8z"/><path d="m752.9 175.75v109.43h-24.17v-109.43h-38v-21.75h100.2l-3.75 21.74z"/><path d="m809.27 197.86a35.49 35.49 0 0 1 24.73-10.12c27 0 39.16 20.8 39.16 49.66s-12.36 49.66-40.85 49.66a70.85 70.85 0 0 1 -21.92-3.38v39l-23.24 3.75v-136.81h17.62l3.74 8.24zm40.3 39.54c0-17.43-7.13-29.61-21.19-29.61-6.36 0-12.73 3.56-18 9.37v44.78a36.31 36.31 0 0 0 18.76 5.06c12.56 0 20.43-10.86 20.43-29.6z"/><path d="m942.66 222.6c0-9.18-4.69-14.81-16.11-14.81-8.06 0-16.68 1.88-25.48 5.06l-6.93-18.73a95.21 95.21 0 0 1 34.66-6.38c29.22 0 37.09 15.37 37.09 35.23v36.35c0 4.68 2.63 6.75 6.75 6.75h2.06v18.17c-2.81 1.13-8.61 1.88-13.3 1.88-8.44 0-13.86-3.19-16.86-9.19h-.75c-6.74 6.75-14.24 9.19-25.11 9.19-18.18 0-29.6-9-29.6-28.48 0-18.37 14.61-28.68 35.78-28.68h17.8zm0 35v-10.83h-17c-8.62 0-13.48 4.31-13.48 10.49 0 6.37 4.67 9.74 10.3 9.74a27.18 27.18 0 0 0 20.18-9.36z"/><path d="m1071.93 285.18h-23.24v-39.18h-32v39.16h-23.28v-95.54h23.24v36.38h32v-36.38h23.24z"/><path d="m1168.15 281.62a67.66 67.66 0 0 1 -27.17 5.44c-30.92 0-47.6-22.12-47.6-49.66s15.74-49.66 46.66-49.66a73.85 73.85 0 0 1 27.17 5.25l-7.49 18.36a48.89 48.89 0 0 0 -18.56-3.56c-13.86 0-24.17 12-24.17 29.61s10.12 29.6 24 29.6a54.92 54.92 0 0 0 19.68-3.74z"/><path d="m1263.88 285.18h-23.23v-75.51h-30.55v75.51h-23.23v-95.56h77z"/><path d="m1285.34 237.4c0-31.11 18.37-49.66 45-49.66s45 18.55 45 49.66-18.36 49.66-45 49.66-45-18.55-45-49.66zm23.61 0c0 18.55 9 29.6 21.36 29.6s21.37-11.05 21.37-29.6-9-29.61-21.37-29.61-21.31 11.06-21.31 29.61z"/><path d="m1418.85 197.86a35.47 35.47 0 0 1 24.74-10.12c27 0 39.16 20.8 39.16 49.66s-12.37 49.66-40.85 49.66a71 71 0 0 1 -21.93-3.38v39l-23.23 3.75v-136.81h17.62l3.74 8.24zm40.29 39.54c0-17.43-7.12-29.61-21.18-29.61-6.36 0-12.73 3.56-18 9.37v44.78a36.36 36.36 0 0 0 18.74 5.06c12.57 0 20.44-10.86 20.44-29.6z"/><path d="m1493 189.62h82.82l-3.75 20h-26.61v75.51h-23v-75.46h-29.46z"/><path d="m703.8 472.52v-131.17h76.08l-3.75 21.74h-48.34v30.73h42.72v21.74h-42.72v35.22h52.09v21.74z"/><path d="m833.57 433.35h-8.25v39.17h-23.23v-95.52h23.23v36.36h8.44l22.11-36.36h23.6l-27.91 46.1 29.79 49.47-23.79 1.87z"/><path d="m944.41 409.93c0-9.18-4.69-14.8-16.11-14.8-8.06 0-16.68 1.87-25.48 5.06l-6.93-18.74a95.41 95.41 0 0 1 34.66-6.37c29.22 0 37.09 15.36 37.09 35.23v36.35c0 4.68 2.63 6.74 6.75 6.74h2.06v18.18c-2.81 1.12-8.61 1.88-13.3 1.88-8.44 0-13.86-3.19-16.86-9.19h-.75c-6.74 6.75-14.24 9.19-25.11 9.19-18.18 0-29.6-9-29.6-28.49 0-18.36 14.61-28.67 35.78-28.67h17.8zm0 35v-10.83h-17c-8.62 0-13.48 4.31-13.48 10.5 0 6.37 4.67 9.74 10.3 9.74a27.19 27.19 0 0 0 20.18-9.34z"/><path d="m983.92 377h82.83l-3.75 20h-26.62v75.52h-23v-75.52h-29.46z"/><path d="m1146.55 448.16 8.06 18.17a73.81 73.81 0 0 1 -33 8.06c-28.11 0-47.41-18.36-47.41-49.65 0-31.48 16.86-49.66 43.84-49.66 24.93 0 40.48 15.55 40.48 42.35a128.28 128.28 0 0 1 -1.12 14.43h-59.59c2.43 14.61 12.56 22.48 24.92 22.48 7.89 0 17.27-2.81 23.82-6.18zm-9.18-34.11c0-10.86-6.75-18.92-18.92-18.92-9.94 0-18 6.56-20.25 18.92z"/><path d="m1203.11 385.2a35.44 35.44 0 0 1 24.74-10.12c27 0 39.16 20.8 39.16 49.66s-12.36 49.65-40.85 49.65a70.86 70.86 0 0 1 -21.92-3.37v39l-23.24 3.72v-136.74h17.62l3.74 8.25zm40.3 39.54c0-17.43-7.13-29.61-21.19-29.61-6.36 0-12.73 3.56-18 9.37v44.78a36.31 36.31 0 0 0 18.74 5.06c12.58 0 20.45-10.86 20.45-29.6z"/><path d="m1349.8 415.18h-.55l-38.61 57.34h-21.17v-95.52h23.23v57.34h.57l38.59-57.34h21.19v95.57h-23.25z"/><path d="m1479.64 472.52h-23.25v-39.17h-32v39.17h-23.23v-95.52h23.23v36.36h32v-36.36h23.25z"/><path d="m1524.39 393.63c7.68-8.05 16.87-13.86 29.23-13.86 23.42 0 40.47 15.55 40.47 47.4 0 31.11-19.48 47.22-46.09 47.22-30.92 0-45-23.05-45-61.27 0-58.65 16.86-71.39 47.78-74.2 14-1.31 21.55-3 31.29-6.94l7.5 18c-10.87 5.44-24 8.43-36.55 9.37-19.66 1.5-29.22 10.31-29.22 34.29zm1.88 19.87c.18 27.35 7.49 40.84 21.73 40.84 12.55 0 22.49-8.8 22.49-27.17s-9-27.36-20.24-27.36c-8.05 0-17.62 4.13-23.98 13.69z"/><path d="m1669.64 377h24.74l-36.73 113.93c-6 18.74-18.18 22.86-28.48 22.86a48 48 0 0 1 -17.43-3.75l6.38-18.74a28.42 28.42 0 0 0 9.92 2.44c3 0 7.31-1.5 9.37-8.43l3.75-12.74h-6.56l-32-95.57h25.11l21.13 67h.75z"/><path d="m1730.52 385.2a35.41 35.41 0 0 1 24.74-10.12c27 0 39.16 20.8 39.16 49.66s-12.37 49.65-40.85 49.65a70.92 70.92 0 0 1 -21.93-3.37v39l-23.23 3.75v-136.77h17.59l3.74 8.25zm40.29 39.54c0-17.43-7.13-29.61-21.18-29.61-6.37 0-12.73 3.56-18 9.37v44.78a36.36 36.36 0 0 0 18.74 5.06c12.57 0 20.44-10.86 20.44-29.6z"/><path d="m1877.34 377-3.75 20h-34.48v75.52h-23.23v-95.52z"/><path d="m1938.41 409.93c0-9.18-4.69-14.8-16.12-14.8-8 0-16.68 1.87-25.49 5.06l-6.92-18.74a95.45 95.45 0 0 1 34.66-6.37c29.24 0 37.1 15.36 37.1 35.23v36.35c0 4.68 2.63 6.74 6.75 6.74h2.06v18.18c-2.82 1.12-8.62 1.88-13.3 1.88-8.44 0-13.87-3.19-16.87-9.19h-.75c-6.75 6.75-14.24 9.19-25.11 9.19-18.17 0-29.61-9-29.61-28.49 0-18.36 14.62-28.67 35.79-28.67h17.81zm0 35v-10.83h-17.05c-8.63 0-13.49 4.31-13.49 10.5 0 6.37 4.68 9.74 10.3 9.74a27.2 27.2 0 0 0 20.24-9.34z"/></g></svg>