<svg viewBox="0 0 81.11 91.16" xmlns="http://www.w3.org/2000/svg"><path d="m40.56 0a30.93 30.93 0 0 0 -27.16 15.41h42.25v6.81h-45.15a32.76 32.76 0 0 0 -1.28 9.11 30.91 30.91 0 0 0 31.34 31.34 30.9 30.9 0 0 0 31.33-31.34 30.9 30.9 0 0 0 -31.33-31.33zm15.09 34.74h-23.07s0 .73 0 1.62c.07 3.35 1.07 4.08 4.36 4.08h18.71v6.82h-18.58c-8.53 0-12.21-2.82-12.21-11.54v-7.8h30.79zm-39.45 34.78v7h-1.55v-7h-2.44v-1.39h6.42l-.24 1.39zm3.61 1.42a2.22 2.22 0 0 1 1.58-.65c1.73 0 2.51 1.33 2.51 3.18s-.79 3.18-2.62 3.18a4.57 4.57 0 0 1 -1.4-.22v2.5l-1.49.24v-8.76h1.13l.24.53zm2.58 2.53c0-1.12-.46-1.9-1.36-1.9a1.62 1.62 0 0 0 -1.15.6v2.83a2.36 2.36 0 0 0 1.2.32c.8.04 1.31-.65 1.31-1.85zm6-1c0-.59-.3-1-1-1a4.79 4.79 0 0 0 -1.64.33l-.44-1.2a6 6 0 0 1 2.22-.41c1.87 0 2.38 1 2.38 2.25v2.33a.38.38 0 0 0 .43.43h.13v1.17a2.84 2.84 0 0 1 -.85.12 1.1 1.1 0 0 1 -1.15-.49 2.06 2.06 0 0 1 -1.61.59 1.67 1.67 0 0 1 -1.89-1.83c0-1.17.93-1.83 2.29-1.83h1.14zm0 2.24v-.69h-1.13c-.56 0-.87.27-.87.67a.6.6 0 0 0 .66.62 1.74 1.74 0 0 0 1.3-.55zm8.28 1.77h-1.53v-2.48h-2v2.51h-1.54v-6.1h1.49v2.33h2v-2.33h1.49zm6.16-.23a4.33 4.33 0 0 1 -1.74.35 2.94 2.94 0 0 1 -3-3.18 2.89 2.89 0 0 1 3-3.18 4.89 4.89 0 0 1 1.74.33l-.48 1.18a3.11 3.11 0 0 0 -1.19-.23c-.89 0-1.55.77-1.55 1.9s.65 1.89 1.54 1.89a3.48 3.48 0 0 0 1.26-.24zm6.13.23h-1.53v-4.79h-2v4.84h-1.43v-6.12h4.94zm1.37-3.06c0-2 1.18-3.18 2.88-3.18s2.88 1.19 2.88 3.18-1.18 3.18-2.88 3.18-2.92-1.14-2.92-3.13zm1.51 0c0 1.19.58 1.89 1.37 1.89s1.37-.7 1.37-1.89-.58-1.9-1.37-1.9-1.41.76-1.41 1.95zm7-2.53a2.25 2.25 0 0 1 1.58-.65c1.73 0 2.51 1.33 2.51 3.18s-.79 3.18-2.61 3.18a4.63 4.63 0 0 1 -1.41-.22v2.5l-1.49.24v-8.71h1.13l.24.53zm2.58 2.53c0-1.12-.46-1.9-1.36-1.9a1.64 1.64 0 0 0 -1.15.6v2.88a2.39 2.39 0 0 0 1.2.32c.81.04 1.31-.65 1.31-1.85zm2.17-3.06h5.3l-.24 1.28h-1.65v4.84h-1.53v-4.79h-1.88zm-63.59 18.16v-8.4h4.87l-.24 1.4h-3.09v2h2.73v1.4h-2.73v2.25h3.33v1.39zm8.31-2.52h-.53v2.5h-1.49v-6.1h1.49v2.33h.54l1.42-2.33h1.51l-1.79 3 1.91 3.16-1.52.12zm7.1-1.5c0-.59-.3-1-1-1a5 5 0 0 0 -1.63.32l-.44-1.2a6.24 6.24 0 0 1 2.22-.41c1.87 0 2.37 1 2.37 2.26v2.33a.39.39 0 0 0 .44.43h.13v1.16a2.55 2.55 0 0 1 -.85.12 1.09 1.09 0 0 1 -1.12-.51 2.06 2.06 0 0 1 -1.61.58 1.67 1.67 0 0 1 -1.92-1.82c0-1.18.93-1.84 2.29-1.84h1.14zm0 2.24v-.7h-1.1c-.55 0-.86.28-.86.68a.61.61 0 0 0 .66.62 1.77 1.77 0 0 0 1.3-.58zm2.53-4.36h5.3l-.24 1.31h-1.7v4.83h-1.48v-4.83h-1.88zm10.41 4.62.52 1.17a4.77 4.77 0 0 1 -2.12.51 2.89 2.89 0 0 1 -3-3.18c0-2 1.08-3.18 2.81-3.18a2.45 2.45 0 0 1 2.56 2.68c0 .16 0 .58-.07.92h-3.82a1.58 1.58 0 0 0 1.6 1.44 3.58 3.58 0 0 0 1.52-.36zm-.59-2.18a1.13 1.13 0 0 0 -1.21-1.21 1.32 1.32 0 0 0 -1.3 1.21zm4.24-1.89a2.3 2.3 0 0 1 1.59-.65c1.72 0 2.5 1.34 2.5 3.18s-.79 3.18-2.61 3.18a4.65 4.65 0 0 1 -1.48-.21v2.49l-1.48.24v-8.76h1.12l.24.53zm2.58 2.53c0-1.11-.45-1.89-1.35-1.89a1.64 1.64 0 0 0 -1.16.6v2.83a2.39 2.39 0 0 0 1.2.32c.78.04 1.28-.66 1.28-1.86zm6.81-.61-2.47 3.67h-1.42v-6.12h1.5v3.68l2.5-3.68h1.35v6.12h-1.49zm8.32 3.67h-1.52v-2.52h-2v2.5h-1.54v-6.1h1.49v2.33h2v-2.33h1.49zm2.86-5a2.56 2.56 0 0 1 1.88-.89c1.5 0 2.59 1 2.59 3a2.77 2.77 0 0 1 -2.95 3c-2 0-2.88-1.47-2.88-3.92 0-3.76 1.08-4.57 3.06-4.75a5.91 5.91 0 0 0 2-.45l.48 1.16a6.63 6.63 0 0 1 -2.34.6c-1.26.09-1.87.66-1.87 2.19zm.12 1.27c0 1.76.48 2.62 1.4 2.62s1.44-.56 1.44-1.74-.58-1.75-1.3-1.75a1.88 1.88 0 0 0 -1.57.82zm9.18-2.34h1.59l-2.35 7.3a1.82 1.82 0 0 1 -1.83 1.46 3 3 0 0 1 -1.11-.24l.41-1.2a1.63 1.63 0 0 0 .63.16c.19 0 .47-.1.6-.54l.24-.82h-.45l-2.05-6.17h1.61l1.35 4.3h.05zm3.9.53a2.3 2.3 0 0 1 1.59-.65c1.72 0 2.5 1.34 2.5 3.18s-.79 3.18-2.61 3.18a4.53 4.53 0 0 1 -1.4-.21v2.49l-1.49.24v-8.81h1.13l.23.53zm2.58 2.53c0-1.11-.45-1.89-1.35-1.89a1.6 1.6 0 0 0 -1.15.6v2.78a2.33 2.33 0 0 0 1.2.32c.77.04 1.27-.66 1.27-1.86zm6.82-3.06-.24 1.29h-2.23v4.83h-1.49v-6.17zm3.91 2.12c0-.59-.3-1-1-1a5 5 0 0 0 -1.63.32l-.45-1.2a6.24 6.24 0 0 1 2.22-.41c1.87 0 2.37 1 2.37 2.26v2.33a.39.39 0 0 0 .43.43h.14v1.16a2.62 2.62 0 0 1 -.86.12 1.1 1.1 0 0 1 -1.13-.58 2.08 2.08 0 0 1 -1.61.58 1.67 1.67 0 0 1 -1.9-1.82c0-1.18.94-1.84 2.29-1.84h1.14zm0 2.24v-.7h-1.08c-.55 0-.86.28-.86.68a.61.61 0 0 0 .66.62 1.73 1.73 0 0 0 1.25-.65z" fill="#fff"/></svg>