{"asset":{"generator":"Khronos glTF Spline I/O v0.0.1","version":"2.0"},"scenes":[{"nodes":[0]}],"nodes":[{"name":"","children":[1,2]},{"name":"Shape 0","matrix":[1,0,0,0,0,1,0,0,0,0,1.4,0,-111.26801187109378,111.26788933593751,0,1],"mesh":0},{"name":"Personal Camera","camera":0,"translation":[1057.0920544567584,917.3602402336721,935.4505636140797],"rotation":[-0.2798481423331211,0.36470519963100106,0.1159168959592951,0.8804762392171493]}],"cameras":[{"type":"orthographic","orthographic":{"xmag":2048,"ymag":1183,"zfar":100000,"znear":-100000}}],"meshes":[{"primitives":[{"attributes":{"POSITION":1,"NORMAL":2,"TEXCOORD_0":3},"indices":0}]}],"buffers":[{"uri":"data:application/octet-stream;base64,","byteLength":98976}],"bufferViews":[{"buffer":0,"byteOffset":0,"byteLength":10848,"target":34963},{"buffer":0,"byteOffset":10848,"byteLength":29376,"target":34962},{"buffer":0,"byteOffset":40224,"byteLength":29376,"target":34962},{"buffer":0,"byteOffset":69600,"byteLength":29376,"target":34962}],"accessors":[{"bufferView":0,"byteOffset":0,"componentType":5125,"count":2712,"type":"SCALAR","min":[0],"max":[917]},{"bufferView":1,"byteOffset":0,"componentType":5126,"count":918,"type":"VEC3","min":[0,-238.535888671875,0],"max":[238.5360107421875,0,12]},{"bufferView":2,"byteOffset":0,"componentType":5126,"count":918,"type":"VEC3","min":[-1,-1,-1],"max":[1,1,1]},{"bufferView":3,"byteOffset":0,"componentType":5126,"count":918,"type":"VEC2","min":[0,0],"max":[1,1]}],"extensions":{"KHR_lights_punctual":{"lights":[]}},"extensionsUsed":["KHR_lights_punctual"]}