<svg fill="none" height="250" width="1280" xmlns="http://www.w3.org/2000/svg"><path d="M0 0h1280v250H0z" fill="#000"/><g clip-rule="evenodd" fill-rule="evenodd"><path d="M582.174 48.89h114.72c10.589 0 18.973 8.773 18.973 18.861 0 50.445.441 103.959.441 152.21h-26.033V207.24H589.234v12.721h-26.033c0-48.251-.441-101.327-.441-152.21.441-10.088 8.824-18.861 19.414-18.861zm143.4 57.023h18.532v44.304h-18.532zm-189.729 0h18.531v44.304h-18.531zm52.947 63.604c7.06 0 12.796 5.702 12.796 12.721 0 7.018-5.736 12.72-12.796 12.72-7.059 0-12.795-5.702-12.795-12.72 0-7.019 5.736-12.721 12.795-12.721zm-6.618-102.643h114.72V87.93h-114.72zm0 39.039h114.72v50.883h-114.72zm108.543 63.604c7.059 0 12.795 5.702 12.795 12.721 0 7.018-5.736 12.72-12.795 12.72-7.06 0-12.796-5.702-12.796-12.72 0-7.019 5.736-12.721 12.796-12.721zM601.298 30.893l26.769-26.63 13.604 13.533-27.208 26.63zm47.394 0l26.769-26.63 13.604 13.533-26.769 26.63z" fill="#00a0e3"/><path d="M204.231 48.89h114.478c10.567 0 18.932 8.773 18.932 18.861.441 50.883.881 104.398.881 152.21h-25.977V207.24H211.276v12.721h-25.537c0-48.251-.441-101.327-.441-152.21 0-10.088 8.806-18.861 18.933-18.861zm143.537 57.023h18.493v44.304h-18.493zm-189.768 0h18.493v44.304H158zm52.836 63.604c7.045 0 12.768 5.702 12.768 12.721 0 7.018-5.723 12.72-12.768 12.72s-12.769-5.702-12.769-12.72c0-7.019 5.724-12.721 12.769-12.721zm-6.605-102.643h114.478V87.93H204.231zm0 39.039h114.478v50.883H204.231zm108.314 63.604c7.044 0 12.768 5.702 12.768 12.721 0 7.018-5.724 12.72-12.768 12.72-7.045 0-12.769-5.702-12.769-12.72 0-7.019 5.724-12.721 12.769-12.721z" fill="#21a73f"/><path d="M954.411 48.628h114.479c10.57 0 18.93 8.786 18.93 18.889v82.582l-6.16 31.627c-2.2 10.103-8.81 18.888-18.94 18.888H961.015c-10.567 0-17.171-8.785-18.933-18.888l-6.164-31.627V67.956c-.44-10.542 8.366-19.328 18.493-19.328zm143.099 57.105H1116v44.366h-18.49zm-189.771 0h18.493v44.366h-18.493zm98.631 127.387l26.85-26.795 13.65 13.617-26.85 26.795zm-47.556 0l26.858-26.795 13.649 13.617-26.858 26.795zm2.201-228.858h101.705v18.01h-33.9l-22.89 22.842-13.654-13.617 9.244-9.225h-40.945V4.262zm82.775 158.575c7.05 0 12.77 5.711 12.77 12.739s-5.72 12.739-12.77 12.739c-7.04 0-12.77-5.711-12.77-12.739s5.73-12.739 12.77-12.739zm-63.842 0c7.045 0 12.769 5.711 12.769 12.739s-5.724 12.739-12.769 12.739-12.769-5.711-12.769-12.739 5.724-12.739 12.769-12.739zm-25.537-95.76h114.479v20.646H954.411zm0 39.534h114.479v43.927H954.411z" fill="#ef7f1a"/></g></svg>