<svg width="343" height="2555" fill="none" xmlns="http://www.w3.org/2000/svg"><path fill-rule="evenodd" clip-rule="evenodd" d="M17.5 2287.3c.9-6 3.4-11.8 7.5-16.5l2.1-2.4c16-18.3 16-46 0-64.3l-1.8-2.1c-10.8-12.4-10.8-31.1 0-43.5l1.8-2.1c16-18.3 16-46 0-64.3l-1.8-2.1c-10.8-12.4-10.8-31.1 0-43.5l1.8-2.1c16-18.3 16-46 0-64.3l-1.8-2.1c-10.8-12.4-10.8-31.1 0-43.5l1.8-2.1c16-18.3 16-46 0-64.3l-1.8-2.1c-10.8-12.4-10.8-31.1 0-43.5l1.8-2.1c16-18.3 16-46 0-64.3l-1.8-2.1c-10.8-12.4-10.8-31.1 0-43.5l1.8-2.1c8-9.2 12-20.7 12-32.2 0-11.5-4-23-12-32.2l-2.1-2.4c-2.5-2.8-4.4-6-5.7-9.4H3c1.8 7.2 5.2 14.1 10.3 19.9l2.1 2.4c10.8 12.4 10.8 31.1 0 43.5l-1.8 2.1c-16 18.3-16 46 0 64.3l1.8 2.1c10.8 12.4 10.8 31.1 0 43.5l-1.8 2.1c-16 18.3-16 46 0 64.3l1.8 2.1c10.8 12.4 10.8 31.1 0 43.5l-1.8 2.1c-16 18.3-16 46 0 64.3l1.8 2.1c10.8 12.4 10.8 31.1 0 43.5l-1.8 2.1c-16 18.3-16 46 0 64.3l1.8 2.1c10.8 12.4 10.8 31.1 0 43.5l-1.8 2.1c-16 18.3-16 46 0 64.3l1.8 2.1c10.8 12.4 10.8 31.1 0 43.5l-2.1 2.4c-6.7 7.6-10.5 17.1-11.5 26.9h15.7zm87.6-655.1c1.8 7.2 5.2 14 10.2 19.7l2.1 2.4c10.8 12.4 10.8 31.1 0 43.5l-1.8 2.1c-16 18.3-16 46 0 64.3l1.8 2.1c10.8 12.4 10.8 31.1 0 43.5l-1.8 2.1c-16 18.3-16 46 0 64.3l1.8 2.1c10.8 12.4 10.8 31.1 0 43.5l-1.8 2.1c-16 18.3-16 46 0 64.3l1.8 2.1c10.8 12.4 10.8 31.1 0 43.5l-1.8 2.1c-16 18.3-16 46 0 64.3l1.8 2.1c10.8 12.4 10.8 31.1 0 43.5l-1.8 2.1c-16 18.3-16 46 0 64.3l1.8 2.1c10.8 12.4 10.8 31.1 0 43.5l-2.1 2.4c-6.6 7.6-10.5 17-11.5 26.8h15.6c.9-5.9 3.4-11.7 7.5-16.3l2.1-2.4c16-18.3 16-46 0-64.3l-1.8-2.1c-10.8-12.4-10.8-31.1 0-43.5l1.8-2.1c16-18.3 16-46 0-64.3l-1.8-2.1c-10.8-12.4-10.8-31.1 0-43.5l1.8-2.1c16-18.3 16-46 0-64.3l-1.8-2.1c-10.8-12.4-10.8-31.1 0-43.5l1.8-2.1c16-18.3 16-46 0-64.3l-1.8-2.1c-10.8-12.4-10.8-31.1 0-43.5l1.8-2.1c16-18.3 16-46 0-64.3l-1.8-2.1c-10.8-12.4-10.8-31.1 0-43.5l1.8-2.1c8-9.2 12-20.7 12-32.2 0-11.5-4-23-12-32.2l-2.1-2.4c-2.4-2.8-4.3-6-5.6-9.3h-16.2z" fill="#FCC100"/><path fill-rule="evenodd" clip-rule="evenodd" d="M82.9 1654.3c10.8 12.4 10.8 31.1 0 43.5l-1.8 2.1c-16 18.3-16 46 0 64.3l1.8 2.1c10.8 12.4 10.8 31.1 0 43.5l-1.8 2.1c-16 18.3-16 46 0 64.3l1.8 2.1c10.8 12.4 10.8 31.1 0 43.5l-1.8 2.1c-16 18.3-16 46 0 64.3l1.8 2.1c10.8 12.4 10.8 31.1 0 43.5l-1.8 2.1c-16 18.3-16 46 0 64.3l1.8 2.1c10.8 12.4 10.8 31.1 0 43.5l-1.8 2.1c-16 18.3-16 46 0 64.3l1.8 2.1c10.8 12.4 10.8 31.1 0 43.5l-2.1 2.4c-6.7 7.6-10.5 17.1-11.5 26.8h15.6c.9-6 3.4-11.7 7.5-16.4l2.1-2.4c16-18.3 16-46 0-64.3l-1.8-2.1c-10.8-12.4-10.8-31.1 0-43.5l1.8-2.1c16-18.3 16-46 0-64.3l-1.8-2.1c-10.8-12.4-10.8-31.1 0-43.5l1.8-2.1c16-18.3 16-46 0-64.3l-1.8-2.1c-10.8-12.4-10.8-31.1 0-43.5l1.8-2.1c16-18.3 16-46 0-64.3l-1.8-2.1c-10.8-12.4-10.8-31.1 0-43.5l1.8-2.1c16-18.3 16-46 0-64.3l-1.8-2.1c-10.8-12.4-10.8-31.1 0-43.5l1.8-2.1c8-9.2 12-20.7 12-32.2 0-11.5-4-23-12-32.2l-2.1-2.4c-2.5-2.8-4.3-6-5.6-9.4H70.5c1.8 7.2 5.2 14 10.2 19.8l2.2 2.5z" fill="#FCC100"/><path fill-rule="evenodd" clip-rule="evenodd" d="M48.3 1654.3c10.8 12.4 10.8 31.1 0 43.5l-1.8 2.1c-16 18.3-16 46 0 64.3l1.8 2.1c10.8 12.4 10.8 31.1 0 43.5l-1.8 2.1c-16 18.3-16 46 0 64.3l1.8 2.1c10.8 12.4 10.8 31.1 0 43.5l-1.8 2.1c-16 18.3-16 46 0 64.3l1.8 2.1c10.8 12.4 10.8 31.1 0 43.5l-1.8 2.1c-16 18.3-16 46 0 64.3l1.8 2.1c10.8 12.4 10.8 31.1 0 43.5l-1.8 2.1c-16 18.3-16 46 0 64.3l1.8 2.1c10.8 12.4 10.8 31.1 0 43.5l-2.1 2.4c-6.7 7.6-10.5 17.1-11.5 26.9h15.6c.9-6 3.4-11.7 7.5-16.4l2.1-2.4c16-18.3 16-46 0-64.3l-1.8-2.1c-10.8-12.4-10.8-31.1 0-43.5l1.8-2.1c16-18.3 16-46 0-64.3l-1.8-2.1c-10.8-12.4-10.8-31.1 0-43.5l1.8-2.1c16-18.3 16-46 0-64.3l-1.8-2.1c-10.8-12.4-10.8-31.1 0-43.5l1.8-2.1c16-18.3 16-46 0-64.3l-1.8-2.1c-10.8-12.4-10.8-31.1 0-43.5l1.8-2.1c16-18.3 16-46 0-64.3l-1.8-2.1c-10.8-12.4-10.8-31.1 0-43.5l1.8-2.1c8-9.2 12-20.7 12-32.2 0-11.5-4-23-12-32.2l-2.1-2.4c-2.5-2.8-4.3-6-5.7-9.4H35.8c1.8 7.2 5.2 14 10.2 19.8l2.3 2.4zm291.6 533.5l-99.3-101h99.3v101zm-199.5-101v101l99.8-101h-99.8zm100.2-252.5v101l99.3-101h-99.3zm-100.2 252.5l100.2-101H140.4v101zm150.3-100.6l49.2 50.1v-50.1h-49.2zm0 0h-50.1l50.1 50.1v-50.1zm0-50.9l49.2 50.9v-50.9h-49.2zm-50.1 0l50.1 50.9v-50.9h-50.1zm50.1 101l49.2 50.5v-50.5h-49.2zm-50.1 0l50.1 50.5v-50.5h-50.1zm-99.3-151.5v50.5l49.7-50.5h-49.7zm49.6 0v50.5l49.7-50.5h-49.7zm-49.6 0l50.1-50.1h-50.1v50.1zm49.6-50.5v50.5l49.7-50.5h-49.7zm49.7 151.5v-50.5l-49.7 50.5h49.7zm-99.3-50.5l49.7 50.5v-50.5h-49.7zm0-202l99.3 101v-101h-99.3zm149 0l49.7 50.5v-50.5h-49.7zm-49.7 0l49.7 50.5v-50.5h-49.7zm49.6-50.5l49.7 50.5v-50.5h-49.7zm-49.6 0l49.7 50.5v-50.5h-49.7zm49.6 101l49.7 50.5v-50.5h-49.7zm-49.6 0l49.7 50.5v-50.5h-49.7zm-99.3-151.5v50.5l49.7-50.5h-49.7zm49.6 0v50.5l49.7-50.5h-49.7zm49.7 0l49.6 50.5v-50.5h-49.6zm-49.7 50.5l49.7 50.5v-50.5h-49.7zm-49.6 0v50.5l49.7-50.5h-49.7zM241.7 2188l-101.2 99.3h101.2V2188zm49.1 49.7l49.2 49.6v-49.7h-49.2v.1zm-49.1 0l49.1 49.7v-49.7h-49.1zm49.1-49.7l49.2 49.7V2188h-49.2zm-49.1 0l49.1 49.7V2188h-49.1zm-51.2-50.5l51.2 50.5v-50.5h-51.2zM67.1 2554.9h38.2l35.8-35.8v-38.3l-74 74.1zM0 2311.4v39.9l63.9-64H24.1L0 2311.4zM0 2545v9.9h29.2l111.9-112v-39.2L0 2545zm0-79v41.1l141.1-141.3v-41.1L0 2466z" fill="#FCC100"/><path fill-rule="evenodd" clip-rule="evenodd" d="M0 2389.2v38.9l140.6-140.8h-38.9L0 2389.2zm141.1 43.6v26.7l90.4 90.5h26.7l-117.1-117.2zm20.2-145.5L340 2465.4v-26.6l-152-151.5h-26.7zm-20.2 219.5l43.4 43.2h26.8l-70.2-69.9v26.7zm22.5 43.2l-22.5-22.4v22.4h22.5zm72.4-262.7h-26.7L340 2417.6V2391l-104-103.7zm43.6 262.7h26.8l-165.3-164.8v26.7L279.6 2550zm60.4 0v-15l-198.9-197.9v26.6L328.3 2550H340zm-82.8-262.7l82.8 82.6v-26.7l-56.1-55.9h-26.7zM340 2514v-26.7l-198.9-198.2v26.6L340 2514zm-7.6-226.7h-26.7l34.3 34.3v-26.7l-7.6-7.6zM1.9 1605.7l122.1-11.5 134.6-12.7 43.3 12.7 38.2 11.2v3l-38.2 11.2-43.3 12.7-134.6-12.7-122.1-11.5v-2.4zm0-50.8l122.1-11.5 134.6-12.7 43.4 12.7 38.2 11.2v3l-38.2 11.2-43.3 12.7-134.6-12.7L2 1557.3v-2.4h-.1zm0-50.8l122.1-11.5 134.6-12.7 43.3 12.7 38.2 11.2v3l-38.2 11.2-43.3 12.7L124 1518 1.9 1506.4v-2.3zm0-50.9l122.1-11.5 134.6-12.7 43.3 12.7 38.2 11.2v3l-38.2 11.2-43.3 12.7-134.6-12.7-122.1-11.5v-2.4zm0-50.8l122.1-11.5 134.6-12.7 43.3 12.7 38.2 11.2v3l-38.2 11.2-43.3 12.7-134.6-12.7-122.1-11.5v-2.4z" fill="#FCC100"/><path d="M102.4 1287.5v90.6H80.3v-11H23.4v11H1.3v-90.6H35v22.7H23.4v27.9h16.8V1312h22.1v26.1h18v-27.9H68.7v-22.7h33.7zm0-58.3v50H80.3V1267H23.4v12.2H1.3v-51.1h22.1v9.9h17.4v-10.5c0-13.4-6.4-21.5-17.4-21.5v8.7H1.3v-48.2h22.1v12.2c15.1 0 27.9 10.5 33.7 20.9 15.7-2.9 23.2-11.9 22.1-31.6l-55.8-22.1v7.6H1.3v-56.9l79-30.2v-10.5h22.1v51.1H80.3v-8.1l-7.6 2.3v33.7l7.6 2.3v-9.3h22.1v20.1c0 34.9 0 39.4-5.2 52.2-5.2 12.2-18 21.5-34.3 26.1v11.6h17.4v-8.7h22.1zm-51.7-101.9v-18l-24.4 9.3 24.4 8.7zm170.6 101.6v50.2H199v-11.9h-57.1v11.9h-21.5v-61.8c0-27 14.7-40.6 33.5-40.6 11 0 23.1 5.9 30 18.3 11-1.8 15.1-11.3 15.1-23.1V1153h-57.1v16h-21.5v-60.7h21.5v16H199v-16h22.4v64.8c0 29.4-11.4 43.3-32.9 50.2v14.3H199v-8.7h22.3zm-54.7 8.7V1224c0-9.1-3.2-16.6-12.3-16.6-9.6 0-12.3 7.5-12.3 16.6v13.6h24.6zm21.2 49.9v22.7h11.6v27.9h-18V1312h-22.1v26.1h-16.8v-27.9h11.6v-22.7h-33.7v90.6h22.1v-11h56.9v11h22.1v-90.6h-33.7zM1.3 1072.6h33.1v-21.5h-11v-12.2h56.9v10.5h22.1v-51.1H80.3v11H23.4v-12.2h11V975H1.3v97.6zm140.6-44.6v-12.3h36.5l-57.9 40.7v43.4H142v-11.9h57v11.9h22.4v-52.5H199v11.8h-35.1l57.5-39.8v-32.4H142v-11h-21.5v52h21.4v.1zm168 257c15.1 0 30.1 11 30.1 32.4v60.8h-21.9v-10.5H261v10.5h-22.4v-53.6c0-20.7 13.2-30.8 27.4-30.8 6.4 0 12.8 2.3 18.7 7.8 5.6-12 15.2-16.6 25.2-16.6zm-31.5 53v-7.8c0-6.4-4.1-9.6-8.7-9.6s-8.7 3.2-8.7 9.6v7.8h17.4zm30.1-24.2c-5 0-10 4.1-10 10.5v13.7h19.6v-13.2c0-6.9-5-11-9.6-11zm-27.2-288.6v-48.7h37.8c12.8 6.8 22.7 22.4 22.7 45.6 0 13.7-3.7 24.6-8.2 30.6 13.4 22 10.6 60.4-26.5 74v13.1h11v-9H340v50.2h-21.9v-12.5H261v18h37.9c28.3 0 43.8 20.1 43.8 46.1 0 22.8-13.7 46.1-43.8 46.1H261v9.6h-22.4v-51.1H261v11h39.3c11.4 0 17.8-8.7 17.8-16.9s-5.9-16-17.8-16H261v13.1h-22.4v-107.7c0-27 14.7-40.6 33.5-40.6 11 0 23.2 6 30 18.4 15.2-5.2 18.2-20.9 10.9-28.5-7.3 3.6-15.5 5-23.7 5-27.1 0-52.5-16.8-52.5-51.6 0-20.1 5.7-32.2 13.8-41.8h23.7v25.6l-10.6.1c-2.4 3.9-3.6 8.5-3.6 14.3 0 15.1 10.8 24.2 28.7 24.2 16.4 0 28.7-9.6 29.1-24.2 0-7.8-1.7-13.7-6.8-19.6h-8.5v23.2h-21.3zm-7.9 84.6c-9.6 0-12.3 7.5-12.3 16.6v13.3h24.7v-13.3c-.1-9.1-3.3-16.6-12.4-16.6z" fill="#FCC100"/><path fill-rule="evenodd" clip-rule="evenodd" d="M1.4 928l47.1-47v94.1L1.4 928zm94.2 47.2v-94.1l-47.1 47 47.1 47.1zm47.1 0v-94.1l-47.1 47 47.1 47.1zM48.5 881v-94.1l-47.1 47L48.5 881zm47.1 0v-94.1l-47.1 47L95.6 881zm47.1 0v-94.1l-47.1 47 47.1 47.1zm-94.2-94.1v-94.1l-47.1 47 47.1 47.1zm47.1 0v-94.1l-47.1 47 47.1 47.1zm47.1 0v-94.1l-47.1 47 47.1 47.1zm-94.2-94.1v-94.1l-47.1 47 47.1 47.1zm47.1 0v-94.1l-47.1 47 47.1 47.1zm47.1 0v-94.1l-47.1 47 47.1 47.1zm-94.2-94.2v-94.1l-47.1 47 47.1 47.1zm47.1 0v-94.1l-47.1 47 47.1 47.1zm47.1 0v-94.1l-47.1 47 47.1 47.1zm-94.2-94.1v-94.1l-47.1 47 47.1 47.1zm47.1 0v-94.1l-47.1 47 47.1 47.1zm47.1 0v-94.1l-47.1 47 47.1 47.1zm-94.2-94.2v-94.1l-47.1 47 47.1 47.1zm47.1 0v-94.1l-47.1 47 47.1 47.1zm47.1 0v-94.1l-47.1 47 47.1 47.1zm174.5 564.8h22.4l.1-92.7c-20 27.2-27.5 60.8-22.5 92.7z" fill="#FCC100"/><path fill-rule="evenodd" clip-rule="evenodd" d="M184.9 975.1c-6.1-25.7.1-53.7 18.6-74.7l4.7-5.3c41.1-46.6 41.1-116.9 0-163.5l-4.7-5.3c-27.8-31.5-27.8-79.1 0-110.7l4.7-5.3c41.1-46.6 41.1-116.9 0-163.5l-4.7-5.3c-27.8-31.5-27.8-79.1 0-110.7l4.7-5.3c2.6-3 5.1-6.1 7.4-9.3h-51.3c-31.6 46.1-28.6 108.9 9.2 151.7l4.7 5.3c27.8 31.5 27.8 79.1 0 110.7l-4.7 5.3c-41.1 46.6-41.1 116.9 0 163.5l4.7 5.3c27.8 31.5 27.8 79.1 0 110.7l-4.7 5.3c-25.1 28.5-34.9 65.8-29.3 101.1h40.7z" fill="#FCC100"/><path fill-rule="evenodd" clip-rule="evenodd" d="M257.9 467.9l4.7 5.3c27.8 31.5 27.8 79.1 0 110.7l-4.7 5.3c-41.1 46.6-41.1 116.9 0 163.5l4.7 5.3c27.8 31.5 27.8 79.1 0 110.7l-4.7 5.3c-25.1 28.5-34.9 65.8-29.3 101.1h40.7c-6.1-25.7.1-53.7 18.6-74.7l4.7-5.3c41.1-46.6 41.1-116.9 0-163.5l-4.7-5.3c-27.8-31.5-27.8-79.1 0-110.7l4.7-5.3c41.1-46.6 41.1-116.9 0-163.5l-4.7-5.3c-27.8-31.5-27.8-79.1 0-110.7l4.7-5.3c2.6-3 5.1-6.1 7.4-9.3h-51.3c-31.6 46.1-28.6 108.9 9.2 151.7z" fill="#FCC100"/><path fill-rule="evenodd" clip-rule="evenodd" d="M340.1 459.9l.1-143.7h-2.8c-29.8 43.3-28.9 101.3 2.7 143.7zm-.3 284.5l.1-147.1c-32.2 43.6-32.3 103.5-.1 147.1zM6.5 178.7l1.4-1.6c12.5-14.1 12.5-35.4 0-49.6l-1.4-1.6c-2.4-2.7-4.1-5.8-5.1-9V139c5 8.1 5 18.5 0 26.6v22.1c1.1-3.2 2.8-6.3 5.1-9zm0-86.4l1.4-1.6c12.5-14.1 12.5-35.4 0-49.6l-1.4-1.6c-2.4-2.7-4.1-5.8-5.1-9v22.1c5 8.1 5 18.5 0 26.6v22.1c1.1-3.2 2.8-6.3 5.1-9zM6.5 6l1.4-1.6c1-1.1 1.8-2.2 2.6-3.4l-9.1.1V15c1.1-3.3 2.8-6.3 5.1-9zM128.7.2c-10.4 14.1-9.7 33.7 2.1 47l1.4 1.6c8.4 9.6 8.4 24 0 33.6l-1.4 1.6c-12.5 14.1-12.5 35.4 0 49.6l1.4 1.6c8.4 9.6 8.4 24 0 33.6l-1.4 1.6c-12.5 14.1-12.5 35.4 0 49.6l1.4 1.6c8.4 9.6 8.4 24 0 33.6l-1.4 1.6c-12.5 14.1-12.5 35.4 0 49.6l1.4 1.6c2.2 2.5 3.8 5.3 4.8 8.2h5.6v-14.5c-.4-.6-.9-1.1-1.4-1.7l-1.4-1.6c-8.4-9.6-8.4-24 0-33.6l1.4-1.6c.5-.5.9-1.1 1.4-1.7v-46.2c-.4-.6-.9-1.1-1.4-1.7l-1.4-1.6c-8.4-9.6-8.4-24 0-33.6l1.4-1.6c.5-.5.9-1.1 1.4-1.7v-46.2c-.4-.6-.9-1.1-1.4-1.7l-1.4-1.6c-8.4-9.6-8.4-24 0-33.6l1.4-1.6c.5-.5.9-1.1 1.4-1.7V42.5c-.4-.6-.9-1.1-1.4-1.7l-1.4-1.6c-8.4-9.6-8.4-24 0-33.6l1.4-1.6c.5-.5.9-1.1 1.4-1.7V.1l-13.9.1zM6.5 265l1.4-1.6c12.5-14.1 12.5-35.4 0-49.6l-1.4-1.6c-2.4-2.7-4.1-5.8-5.1-9v22.1c5 8.1 5 18.5 0 26.6V274c1.1-3.2 2.8-6.3 5.1-9zm79.6 33.3c-8.4-9.6-8.4-24 0-33.6l1.4-1.6c12.5-14.1 12.5-35.4 0-49.6l-1.4-1.6c-8.4-9.6-8.4-24 0-33.6l1.4-1.6c12.5-14.1 12.5-35.4 0-49.6l-1.4-1.6c-8.4-9.6-8.4-24 0-33.6l1.4-1.6c12.5-14.1 12.5-35.4 0-49.6l-1.4-1.6c-8.4-9.6-8.4-24 0-33.6l1.4-1.6c1.1-1.2 2.1-2.5 3-3.9H74.9c-10.4 14.1-9.7 33.7 2 47.1l1.4 1.6c8.4 9.6 8.4 24 0 33.6L77 84c-12.5 14.1-12.5 35.4 0 49.6l1.4 1.6c8.4 9.6 8.4 24 0 33.6l-1.4 1.6c-12.5 14.1-12.5 35.4 0 49.6l1.4 1.6c8.4 9.6 8.4 24 0 33.6l-1.4 1.6c-12.5 14.1-12.5 35.4 0 49.6l1.4 1.6c2.2 2.5 3.8 5.2 4.8 8.2h12.6c-1.4-5.8-4.1-11.4-8.4-16.2l-1.3-1.7z" fill="#FCC100"/><path fill-rule="evenodd" clip-rule="evenodd" d="M113 298.3c-8.4-9.6-8.4-24 0-33.6l1.4-1.6c12.5-14.1 12.5-35.4 0-49.6l-1.4-1.6c-8.4-9.6-8.4-24 0-33.6l1.4-1.6c12.5-14.1 12.5-35.4 0-49.6l-1.4-1.6c-8.4-9.6-8.4-24 0-33.6l1.4-1.6c12.5-14.1 12.5-35.4 0-49.6l-1.4-1.6c-8.4-9.6-8.4-24 0-33.6l1.4-1.6c1.1-1.2 2.1-2.5 3-3.9h-15.5c-10.4 14.1-9.7 33.7 2 47.1l1.4 1.6c8.4 9.6 8.4 24 0 33.6l-1.4 1.6c-12.5 14.1-12.5 35.4 0 49.6l1.4 1.6c8.4 9.6 8.4 24 0 33.6l-1.4 1.6c-12.5 14.1-12.5 35.4 0 49.6l1.4 1.6c8.4 9.6 8.4 24 0 33.6l-1.4 1.6c-12.5 14.1-12.5 35.4 0 49.6l1.4 1.6c2.2 2.5 3.8 5.2 4.8 8.2h12.6c-1.4-5.9-4.1-11.4-8.4-16.2l-1.3-1.6zM25.8 49.1c8.4 9.6 8.4 24 0 33.6l-1.4 1.6c-12.5 14.1-12.5 35.4 0 49.6l1.4 1.6c8.4 9.6 8.4 24 0 33.6l-1.4 1.6c-12.5 14.1-12.5 35.4 0 49.6l1.4 1.6c8.4 9.6 8.4 24 0 33.6l-1.4 1.6c-12.5 14.1-12.5 35.4 0 49.6l1.4 1.6c2.1 2.4 3.7 5.1 4.7 7.9h12.6c-1.4-5.7-4.1-11.2-8.3-15.9l-1.4-1.6c-8.4-9.6-8.4-24 0-33.6l1.4-1.6c12.5-14.1 12.5-35.4 0-49.6l-1.4-1.6c-8.4-9.6-8.4-24 0-33.6l1.4-1.6c12.5-14.1 12.5-35.4 0-49.6l-1.4-1.6c-8.4-9.6-8.4-24 0-33.6l1.4-1.6c12.5-14.1 12.5-35.4 0-49.6l-1.4-1.6c-8.4-9.6-8.4-24 0-33.6l1.4-1.6c1-1.2 2-2.4 2.9-3.7L22 .8c-10.1 14-9.3 33.5 2.3 46.7l1.5 1.6z" fill="#FCC100"/><path fill-rule="evenodd" clip-rule="evenodd" d="M60.5 298.3c-8.4-9.6-8.4-24 0-33.6l1.4-1.6c12.5-14.1 12.5-35.4 0-49.6l-1.4-1.6c-8.4-9.6-8.4-24 0-33.6l1.4-1.6c12.5-14.1 12.5-35.4 0-49.6l-1.4-1.6c-8.4-9.6-8.4-24 0-33.6l1.4-1.6c12.5-14.1 12.5-35.4 0-49.6l-1.4-1.6c-8.4-9.6-8.4-24 0-33.6l1.4-1.6c1.1-1.2 2-2.5 2.9-3.8L49.1.3C39 14.3 39.7 33.8 51.4 47l1.4 1.6c8.4 9.6 8.4 24 0 33.6l-1.4 1.6c-12.5 14.1-12.5 35.4 0 49.6l1.4 1.6c8.4 9.6 8.4 24 0 33.6l-1.4 1.6c-12.5 14.1-12.5 35.4 0 49.6l1.4 1.6c8.4 9.6 8.4 24 0 33.6l-1.4 1.6c-12.5 14.1-12.5 35.4 0 49.6l1.4 1.6c2.2 2.5 3.8 5.2 4.8 8.2h12.6c-1.4-5.8-4.1-11.4-8.4-16.2l-1.3-1.5zm-44.3 17.8c-1.4-5.7-4.1-11.2-8.3-15.9l-1.4-1.6c-2.4-2.7-4.1-5.8-5.1-9v22.1c.9 1.4 1.6 2.9 2.2 4.4h12.6zm324-225.6l-98.8 90.3V90.5h98.8zM142.5 225.9v90.3l98.8-90.3h-98.8zm148.3 0l49.4 45.1v-45.1h-49.4zm-49.4 0l49.4 45.1v-45.1h-49.4zm49.4-45.1l49.4 45.1v-45.1h-49.4zm-49.4 0l49.4 45.1v-45.1h-49.4zm49.4 90.3l49.4 45.1v-45.1h-49.4zm-49.4 0l49.4 45.1v-45.1h-49.4zm-98.9-135.5v45.1l49.4-45.1h-49.4zm49.5 0v45.1l49.4-45.1H192zm-49.5-45.1v45.1l49.4-45.1h-49.4zm49.5 0v45.1l49.4-45.1H192zm0 90.3l49.4 45.1v-45.1H192zm-49.5 0l49.4 45.1v-45.1h-49.4zm0-180.6v90.3L241.3.2h-98.8zm148.3 0v45.1L340.2.2h-49.4zm-49.4 0v45.1L290.8.2h-49.4zm49.4 45.2v45.1l49.4-45.1h-49.4zm-49.4 0v45.1l49.4-45.1h-49.4z" fill="#FCC100"/></svg>