<svg fill="none" height="343" width="5621" xmlns="http://www.w3.org/2000/svg"><clipPath id="a"><path d="M0 0h5620.8v342.8H0z"/></clipPath><g clip-path="url(#a)" fill="#fcc100"><path clip-rule="evenodd" d="M1211.9 72.1l143.4 70.6h-143.4zm-289.1 0L1211.9 0H922.8zm579.6-70.7V72h290.5zm290.5 70.7l-290.5 70.6h290.5zm-870.3-1.3v70.6h145.3zM1212 .1v72h145.9zm290.4 72L1359 142.7h143.4zM1358.1.1v72H1504zM1212 142.7V72.1h-145.3zm92 182.3l-9-6.3-30.6 21.2h29.5l1.1-.8 1.1.8h29.4zm74-6.3l-9 6.3-21.5 14.9h29.4l1.1-.8 1.2.8h29.4zm-166.1 0l-30.5 21.2h29.4l1.1-.8 1.1.8h29.4zm415.4 0l-30.6 21.2h29.4l1.2-.8 1.1.8h29.4zm-498.5 0l-30.5 21.2h29.4l1.1-.8 1.2.8h29.4zm415.4 0l-30.5 21.2h29.4l1.1-.8 1.1.8h29.4zm-83.1 0l-30.5 21.2h29.4l1.1-.8 1.1.8h29.5zm249.2 0l-30.5 21.2h29.4l1.1-.8 1.2.8h29.4z" fill-rule="evenodd"/><path clip-rule="evenodd" d="M1004.2 324l41.6-28.8 41.5 28.8 41.5-28.8 41.6 28.8 41.5-28.8 41.5 28.8 41.6-28.8 41.5 28.8 41.5-28.8 41.6 28.8 41.5-28.8 41.6 28.8 41.5-28.8 41.5 28.8 41.6-28.8 41.5 28.8 41.5-28.8 41.6 28.8 41-28.5v-20.4l-32.2 22.3-8.8 6.2-41.6-28.8-41.5 28.8-41.5-28.8-41.6 28.8-41.5-28.8-41.5 28.8-41.6-28.8-41.5 28.8-41.6-28.8-9 6.3-32.5 22.5-32.5-22.5-9-6.3-41.6 28.8-41.5-28.8-41.5 28.8-41.6-28.8-41.5 28.8-41.5-28.8-41.6 28.8-41.5-28.8-40.1 27.8V323l40.1-27.8zm756.5-114.4l-8.8 6.1-41.6-28.8-41.5 28.8-41.5-28.8-41.6 28.8-41.5-28.8-41.5 28.8-41.6-28.8-41.5 28.8-41.6-28.8-9 6.3-32.5 22.5-32.5-22.5-9-6.3-41.6 28.8-41.5-28.8-41.5 28.8-41.6-28.8-41.5 28.8-41.5-28.8-41.6 28.8-41.5-28.8-40.1 27.8v20.4l40.1-27.8 41.5 28.8 41.6-28.8 41.5 28.8 41.5-28.8 41.6 28.8 41.5-28.8 41.5 28.8 41.6-28.8 41.5 28.8 41.5-28.8 41.6 28.8 41.5-28.8 41.6 28.8 41.5-28.8 41.5 28.8 41.6-28.8 41.5 28.8 41.5-28.8 41.6 28.8 8.8-6.1 32.2-22.4v-20.4l-32.2 22.3zm32.2 109.4l-30 20.9h29.4l.6-.4z" fill-rule="evenodd"/><path clip-rule="evenodd" d="M922.6 191.2l40.1-27.9 41.5 28.9 41.6-28.9 41.5 28.9 41.5-28.9 41.6 28.9 41.5-28.9 41.5 28.9 41.6-28.9 41.5 28.9 41.5-28.9 41.6 28.9 41.5-28.9 41.6 28.9 41.5-28.9 41.5 28.9 41.6-28.9 41.5 28.9 41.5-28.9 41.6 28.9 41-28.5v-20.4l-41 28.5-41.6-28.9-41.5 28.9-41.5-28.9-41.6 28.9-41.5-28.9-41.5 28.9-41.6-28.9-41.5 28.9-41.6-28.9-9 6.3-32.5 22.6-32.5-22.6-9-6.3-41.6 28.9-41.5-28.9-41.5 28.9-41.6-28.9-41.5 28.9-41.5-28.9-41.6 28.9-41.5-28.9-40.1 27.8zm40.099 127.5l-30.5 21.2h29.4l1.1-.8 1.1.8h29.4zm798.001-65.2l-8.8 6.2-41.6-28.9-41.5 28.9-41.5-28.9-41.6 28.9-41.5-28.9-41.5 28.9-41.6-28.9-41.5 28.9-41.6-28.9-9 6.3-32.5 22.6-32.5-22.6-9-6.3-41.6 28.9-41.5-28.9-41.5 28.9-41.6-28.9-41.5 28.9-41.5-28.9-41.6 28.9-41.5-28.9-40.1 27.8v20.5l40.1-27.9 41.5 28.9 41.6-28.9 41.5 28.9 41.5-28.9 41.6 28.9 41.5-28.9 41.5 28.9 41.6-28.9 41.5 28.9 41.5-28.9 41.6 28.9 41.5-28.9 41.6 28.9 41.5-28.9 41.5 28.9 41.6-28.9 41.5 28.9 41.5-28.9 41.6 28.9 8.8-6.2 32.2-22.3v-20.4zm-714.9 65.2l-30.6 21.2h29.4l1.2-.8 1.1.8h29.4zM267.6 17.5c6 .9 11.8 3.4 16.5 7.5l2.4 2.1c18.3 16 46 16 64.3 0l2.1-1.8c12.4-10.8 31.1-10.8 43.5 0l2.1 1.8c18.3 16 46 16 64.3 0l2.1-1.8c12.4-10.8 31.1-10.8 43.5 0l2.1 1.8c18.3 16 46 16 64.3 0l2.1-1.8c12.4-10.8 31.1-10.8 43.5 0l2.1 1.8c18.3 16 46 16 64.3 0l2.1-1.8c12.4-10.8 31.1-10.8 43.5 0l2.1 1.8c18.3 16 46 16 64.3 0l2.1-1.8c12.4-10.8 31.1-10.8 43.5 0l2.1 1.8c9.2 8 20.7 12 32.2 12s23-4 32.2-12l2.4-2.1c2.8-2.5 6-4.4 9.4-5.7V3c-7.2 1.8-14.1 5.2-19.9 10.3l-2.4 2.1c-12.4 10.8-31.1 10.8-43.5 0l-2.1-1.8c-18.3-16-46-16-64.3 0l-2.1 1.8c-12.4 10.8-31.1 10.8-43.5 0l-2.1-1.8c-18.3-16-46-16-64.3 0l-2.1 1.8c-12.4 10.8-31.1 10.8-43.5 0l-2.1-1.8c-18.3-16-46-16-64.3 0l-2.1 1.8c-12.4 10.8-31.1 10.8-43.5 0l-2.1-1.8c-18.3-16-46-16-64.3 0l-2.1 1.8c-12.4 10.8-31.1 10.8-43.5 0l-2.1-1.8c-18.3-16-46-16-64.3 0l-2.1 1.8c-12.4 10.8-31.1 10.8-43.5 0l-2.4-2.1c-7.6-6.7-17.1-10.5-26.9-11.5zm655.099 87.6c-7.2 1.8-14 5.2-19.7 10.2l-2.4 2.1c-12.4 10.8-31.1 10.8-43.5 0l-2.1-1.8c-18.3-16-46-16-64.3 0l-2.1 1.8c-12.4 10.8-31.1 10.8-43.5 0l-2.1-1.8c-18.3-16-46-16-64.3 0l-2.1 1.8c-12.4 10.8-31.1 10.8-43.5 0l-2.1-1.8c-18.3-16-46-16-64.3 0l-2.1 1.8c-12.4 10.8-31.1 10.8-43.5 0l-2.1-1.8c-18.3-16-46-16-64.3 0l-2.1 1.8c-12.4 10.8-31.1 10.8-43.5 0l-2.1-1.8c-18.3-16-46-16-64.3 0l-2.1 1.8c-12.4 10.8-31.1 10.8-43.5 0l-2.4-2.1c-7.6-6.6-17-10.5-26.8-11.5v15.6c5.9.9 11.7 3.4 16.3 7.5l2.4 2.1c18.3 16 46 16 64.3 0l2.1-1.8c12.4-10.8 31.1-10.8 43.5 0l2.1 1.8c18.3 16 46 16 64.3 0l2.1-1.8c12.4-10.8 31.1-10.8 43.5 0l2.1 1.8c18.3 16 46 16 64.3 0l2.1-1.8c12.4-10.8 31.1-10.8 43.5 0l2.1 1.8c18.3 16 46 16 64.3 0l2.1-1.8c12.4-10.8 31.1-10.8 43.5 0l2.1 1.8c18.3 16 46 16 64.3 0l2.1-1.8c12.4-10.8 31.1-10.8 43.5 0l2.1 1.8c9.2 8 20.7 12 32.2 12s23-4 32.2-12l2.4-2.1c2.8-2.4 6-4.3 9.3-5.6z" fill-rule="evenodd"/><path clip-rule="evenodd" d="M900.599 82.9c-12.4 10.8-31.1 10.8-43.5 0l-2.1-1.8c-18.3-16-46-16-64.3 0l-2.1 1.8c-12.4 10.8-31.1 10.8-43.5 0l-2.1-1.8c-18.3-16-46-16-64.3 0l-2.1 1.8c-12.4 10.8-31.1 10.8-43.5 0l-2.1-1.8c-18.3-16-46-16-64.3 0l-2.1 1.8c-12.4 10.8-31.1 10.8-43.5 0l-2.1-1.8c-18.3-16-46-16-64.3 0l-2.1 1.8c-12.4 10.8-31.1 10.8-43.5 0l-2.1-1.8c-18.3-16-46-16-64.3 0l-2.1 1.8c-12.4 10.8-31.1 10.8-43.5 0l-2.4-2.1c-7.6-6.7-17.1-10.5-26.8-11.5v15.6c6 .9 11.7 3.4 16.4 7.5l2.4 2.1c18.3 16 46 16 64.3 0l2.1-1.8c12.4-10.8 31.1-10.8 43.5 0l2.1 1.8c18.3 16 46 16 64.3 0l2.1-1.8c12.4-10.8 31.1-10.8 43.5 0l2.1 1.8c18.3 16 46 16 64.3 0l2.1-1.8c12.4-10.8 31.1-10.8 43.5 0l2.1 1.8c18.3 16 46 16 64.3 0l2.1-1.8c12.4-10.8 31.1-10.8 43.5 0l2.1 1.8c18.3 16 46 16 64.3 0l2.1-1.8c12.4-10.8 31.1-10.8 43.5 0l2.1 1.8c9.2 8 20.7 12 32.2 12s23-4 32.2-12l2.4-2.1c2.8-2.5 6-4.3 9.4-5.6V70.5c-7.2 1.8-14 5.2-19.8 10.2z" fill-rule="evenodd"/><path clip-rule="evenodd" d="M900.6 48.3c-12.4 10.8-31.1 10.8-43.5 0l-2.1-1.8c-18.3-16-46-16-64.3 0l-2.1 1.8c-12.4 10.8-31.1 10.8-43.5 0l-2.1-1.8c-18.3-16-46-16-64.3 0l-2.1 1.8c-12.4 10.8-31.1 10.8-43.5 0l-2.1-1.8c-18.3-16-46-16-64.3 0l-2.1 1.8c-12.4 10.8-31.1 10.8-43.5 0l-2.1-1.8c-18.3-16-46-16-64.3 0l-2.1 1.8c-12.4 10.8-31.1 10.8-43.5 0l-2.1-1.8c-18.3-16-46-16-64.3 0l-2.1 1.8c-12.4 10.8-31.1 10.8-43.5 0l-2.4-2.1c-7.6-6.7-17.1-10.5-26.9-11.5v15.6c6 .9 11.7 3.4 16.4 7.5l2.4 2.1c18.3 16 46 16 64.3 0l2.1-1.8c12.4-10.8 31.1-10.8 43.5 0l2.1 1.8c18.3 16 46 16 64.3 0l2.1-1.8c12.4-10.8 31.1-10.8 43.5 0l2.1 1.8c18.3 16 46 16 64.3 0l2.1-1.8c12.4-10.8 31.1-10.8 43.5 0l2.1 1.8c18.3 16 46 16 64.3 0l2.1-1.8c12.4-10.8 31.1-10.8 43.5 0l2.1 1.8c18.3 16 46 16 64.3 0l2.1-1.8c12.4-10.8 31.1-10.8 43.5 0l2.1 1.8c9.2 8 20.7 12 32.2 12s23-4 32.2-12l2.4-2.1c2.8-2.5 6-4.3 9.4-5.7V35.8c-7.2 1.8-14 5.2-19.8 10.2zM367.1 339.9l101-99.3v99.3zm101-199.5h-101l101 99.8zm252.5 100.2h-101l101 99.3zM468.1 140.4l101 100.2V140.4zm100.6 150.3l-50.1 49.2h50.1zm0 0v-50.1l-50.1 50.1zm50.9 0l-50.9 49.2h50.9zm0-50.1l-50.9 50.1h50.9zm-101 50.1l-50.5 49.2h50.5zm0-50.1l-50.5 50.1h50.5zm151.5-99.3h-50.5l50.5 49.7zm0 49.6h-50.5l50.5 49.7zm0-49.6l50.1 50.1v-50.1zm50.5 49.6h-50.5l50.5 49.7zm-151.5 49.7h50.5l-50.5-49.7zm50.5-99.3L569.1 191h50.5zm202 0l-101 99.3h101zm0 149L771.1 340h50.5zm0-49.7l-50.5 49.7h50.5zm50.5 49.6l-50.5 49.7h50.5zm0-49.6l-50.5 49.7h50.5zm-101 49.6l-50.5 49.7h50.5zm0-49.6l-50.5 49.7h50.5zm151.5-99.3h-50.5l50.5 49.7zm0 49.6h-50.5l50.5 49.7zm0 49.7l-50.5 49.6h50.5zm-50.5-49.7l-50.5 49.7h50.5zm0-49.6h-50.5l50.5 49.7zM366.9 241.7l-99.3-101.2v101.2zm-49.7 49.1L267.6 340h49.7v-49.2zm0-49.1l-49.7 49.1h49.7zm49.7 49.1L317.2 340h49.7zm0-49.1l-49.7 49.1h49.7zm50.5-51.2l-50.5 51.2h50.5zM0 67.1v38.2l35.8 35.8h38.3zM243.5 0h-39.9l64 63.9V24.1zM9.9 0H0v29.2l112 111.9h39.2zm79 0H47.8l141.3 141.1h41.1z" fill-rule="evenodd"/><path clip-rule="evenodd" d="M165.7 0h-38.9l140.8 140.6v-38.9zm-43.6 141.1H95.4L4.9 231.5v26.7zm145.5 20.2L89.5 340h26.6l151.5-152zM48.1 141.1L4.9 184.5v26.8l69.9-70.2zM4.9 163.6l22.4-22.5H4.9zM267.601 236v-26.7L137.301 340h26.6zM4.9 279.6v26.8l164.8-165.3H143zm0 60.4h15l197.9-198.9h-26.6L4.9 328.3zm262.7-82.8L185 340h26.7l55.9-56.1zM40.9 340h26.7l198.2-198.9h-26.6zm226.701-7.6v-26.7l-34.3 34.3h26.7zm1546.199-225l-20.9 35.2h41.9zm42 0l-20.9 35.2h41.9zm41.9.4l-20.9 34.8h41.9zm42 .1l-20.9 34.8h41.9z" fill-rule="evenodd"/><path clip-rule="evenodd" d="M1981.6 107.9l-20.9 34.8h41.8zm41.8 0l-20.9 34.8h41.9zm42 0l-20.9 34.8h41.9zm41.9 0l-20.9 34.8h41.9zm41.9 0l-20.9 34.8h41.9zm41.9 0l-20.9 34.8h41.9zm-377.3-35.8l-20.9 35.2h41.9zm42 0l-20.9 35.2h41.9zm41.9.4l-20.9 34.8h41.9zm42 .1l-20.9 34.8h41.9z" fill-rule="evenodd"/><path clip-rule="evenodd" d="M1981.6 72.6l-20.9 34.8h41.8zm41.8 0l-20.9 34.8h41.9zm42 0l-20.9 34.8h41.9zm41.9 0l-20.9 34.8h41.9zm41.9 0l-20.9 34.8h41.9zm41.9 0l-20.9 34.8h41.9zm-377.3-35.8L1792.9 72h41.9zm42 0L1834.9 72h41.9z" fill-rule="evenodd"/><path clip-rule="evenodd" d="M1897.7 37.2L1876.8 72h41.9zm42 .1l-20.9 34.8h41.9z" fill-rule="evenodd"/><path clip-rule="evenodd" d="M1981.6 37.3l-20.9 34.8h41.8zm41.8 0l-20.9 34.8h41.9zm42 0l-20.9 34.8h41.9zm41.9 0l-20.9 34.8h41.9zm41.9 0l-20.9 34.8h41.9zm41.9 0l-20.9 34.8h41.9zM1813.8 1.4l-20.9 35.3h41.9zm42 0l-20.9 35.3h41.9zm41.9.5l-20.9 34.8h41.9zm42 0l-20.9 34.8h41.9z" fill-rule="evenodd"/><path clip-rule="evenodd" d="M1981.6 1.9l-20.9 34.8h41.8zm41.8 0l-20.9 34.8h41.9zm42 0l-20.9 34.8h41.9zm41.9 0l-20.9 34.8h41.9zm41.9 0l-20.9 34.8h41.9zm41.9 0l-20.9 34.8h41.9zM2132 329.2l-3.4 3c-3.6 3.2-7.6 5.8-11.8 7.9h44.5c14.4-6.8 31.2-6.8 45.7 0h5v-25.5c-26.6-10-57.6-5.1-80 14.6zm-74 3l-3.4-3c-29.7-26.2-74.6-26.2-104.3 0l-3.4 3c-3.6 3.1-7.5 5.7-11.6 7.8h44.5c14.3-6.6 30.9-6.6 45.2 0h44.6c-4-2-8-4.6-11.6-7.8zm-181.6 0l-3.4-3c-22.4-19.8-53.4-24.6-80-14.6v25.3h5.6c14.1-6.5 30.6-6.5 44.7 0h44.7c-4.2-2-8.1-4.5-11.6-7.7zm255.6-116l-3.4 3c-20.1 17.8-50.5 17.7-70.6 0l-3.4-3c-29.7-26.2-74.6-26.2-104.3 0l-3.4 3c-20.1 17.8-50.5 17.7-70.6 0l-3.4-3c-22.4-19.8-53.4-24.6-80.1-14.6v28.2c19.6-12 45.4-10.2 63.2 5.5l3.4 3c29.7 26.2 74.6 26.2 104.3 0l3.4-3c20.1-17.7 50.5-17.7 70.6 0l3.4 3c29.7 26.2 74.6 26.2 104.3 0l3.4-3c17.8-15.7 43.6-17.5 63.2-5.4v-28.2c-26.6-10.1-57.6-5.3-80 14.5z" fill-rule="evenodd"/><path clip-rule="evenodd" d="M1792.9 176c19.6-12 45.4-10.2 63.2 5.4l3.4 3c29.7 26.2 74.6 26.2 104.3 0l3.4-3c20.1-17.7 50.5-17.7 70.6 0l3.4 3c29.7 26.2 74.6 26.2 104.3 0l3.4-3c17.8-15.7 43.6-17.5 63.2-5.4v-28.2c-26.6-10-57.6-5.2-80.1 14.6l-3.4 3c-20.1 17.8-50.5 17.7-70.6 0l-3.4-3c-29.7-26.2-74.6-26.2-104.3 0l-3.4 3c-20.1 17.8-50.5 17.7-70.6 0l-3.4-3c-22.4-19.8-53.4-24.6-80.1-14.6zm63.2 115.8l3.4 3c29.7 26.2 74.6 26.2 104.3 0l3.4-3c20.1-17.8 50.5-17.7 70.6 0l3.4 3c29.7 26.2 74.6 26.2 104.3 0l3.4-3c17.8-15.7 43.6-17.5 63.2-5.4v-28.2c-26.6-10-57.6-5.2-80.1 14.6l-3.4 3c-20.1 17.7-50.5 17.7-70.6 0l-3.4-3c-29.7-26.2-74.6-26.2-104.3 0l-3.4 3c-20.1 17.7-50.5 17.7-70.6 0l-3.4-3c-22.4-19.8-53.4-24.6-80-14.6v28.2c19.7-12.1 45.4-10.3 63.2 5.4zM2238.7 1.9l11.5 122.1 12.7 134.6-12.7 43.3-11.2 38.2h-3l-11.2-38.2-12.7-43.3 12.7-134.6 11.5-122.1zm50.8 0L2301 124l12.7 134.6L2301 302l-11.2 38.2h-3l-11.2-38.2-12.7-43.3 12.7-134.6L2287.1 2h2.4zm50.8 0l11.5 122.1 12.7 134.6-12.7 43.3-11.2 38.2h-3l-11.2-38.2-12.7-43.3 12.7-134.6L2338 1.9zm50.9 0l11.5 122.1 12.7 134.6-12.7 43.3-11.2 38.2h-3l-11.2-38.2-12.7-43.3 12.7-134.6 11.5-122.1zm50.8 0l11.5 122.1 12.7 134.6-12.7 43.3-11.2 38.2h-3l-11.2-38.2-12.7-43.3 12.7-134.6 11.5-122.1z" fill-rule="evenodd"/><path d="M2556.9 102.4h-90.6V80.3h11V23.4h-11V1.3h90.6V35h-22.7V23.4h-27.9v16.8h26.1v22.1h-26.1v18h27.9V68.7h22.7zm58.3 0h-50V80.3h12.2V23.4h-12.2V1.3h51.1v22.1h-9.9v17.4h10.5c13.4 0 21.5-6.4 21.5-17.4h-8.7V1.3h48.2v22.1h-12.2c0 15.1-10.5 27.9-20.9 33.7 2.9 15.7 11.9 23.2 31.6 22.1l22.1-55.8h-7.6V1.3h56.9l30.2 79h10.5v22.1h-51.1V80.3h8.1l-2.3-7.6h-33.7l-2.3 7.6h9.3v22.1h-20.1c-34.9 0-39.4 0-52.2-5.2-12.2-5.2-21.5-18-26.1-34.3h-11.6v17.4h8.7zm101.9-51.7h18l-9.3-24.4zm-101.6 170.6h-50.2V199h11.9v-57.1h-11.9v-21.5h61.8c27 0 40.6 14.7 40.6 33.5 0 11-5.9 23.1-18.3 30 1.8 11 11.3 15.1 23.1 15.1h18.9v-57.1h-16v-21.5h60.7v21.5h-16V199h16v22.4h-64.8c-29.4 0-43.3-11.4-50.2-32.9h-14.3V199h8.7zm-8.7-54.7h13.6c9.1 0 16.6-3.2 16.6-12.3 0-9.6-7.5-12.3-16.6-12.3h-13.6zm-49.9 21.2h-22.7v11.6h-27.9v-18h26.1v-22.1h-26.1v-16.8h27.9v11.6h22.7v-33.7h-90.6v22.1h11v56.9h-11v22.1h90.6zM2771.8 1.3v33.1h21.5v-11h12.2v56.9H2795v22.1h51.1V80.3h-11V23.4h12.2v11h22.1V1.3zm44.6 140.6h12.3v36.5l-40.7-57.9h-43.4V142h11.9v57h-11.9v22.4h52.5V199h-11.8v-35.1l39.8 57.5h32.4V142h11v-21.5h-52v21.4zm-257 168c0 15.1-11 30.1-32.4 30.1h-60.8v-21.9h10.5V261h-10.5v-22.4h53.6c20.7 0 30.8 13.2 30.8 27.4 0 6.4-2.3 12.8-7.8 18.7 12 5.6 16.6 15.2 16.6 25.2zm-53-31.5h7.8c6.4 0 9.6-4.1 9.6-8.7s-3.2-8.7-9.6-8.7h-7.8zm24.2 30.1c0-5-4.1-10-10.5-10h-13.7v19.6h13.2c6.9 0 11-5 11-9.6zm288.6-27.2h48.7v37.8c-6.8 12.8-22.4 22.7-45.6 22.7-13.7 0-24.6-3.7-30.6-8.2-22 13.4-60.4 10.6-74-26.5h-13.1v11h9V340h-50.2v-21.9h12.5V261h-18v37.9c0 28.3-20.1 43.8-46.1 43.8-22.8 0-46.1-13.7-46.1-43.8V261h-9.6v-22.4h51.1V261h-11v39.3c0 11.4 8.7 17.8 16.9 17.8s16-5.9 16-17.8V261H2616v-22.4h107.7c27 0 40.6 14.7 40.6 33.5 0 11-6 23.2-18.4 30 5.2 15.2 20.9 18.2 28.5 10.9-3.6-7.3-5-15.5-5-23.7 0-27.1 16.8-52.5 51.6-52.5 20.1 0 32.2 5.7 41.8 13.8v23.7h-25.6l-.1-10.6c-3.9-2.4-8.5-3.6-14.3-3.6-15.1 0-24.2 10.8-24.2 28.7 0 16.4 9.6 28.7 24.2 29.1 7.8 0 13.7-1.7 19.6-6.8v-8.5h-23.2zm-84.6-7.9c0-9.6-7.5-12.3-16.6-12.3h-13.3v24.7h13.3c9.1-.1 16.6-3.3 16.6-12.4z"/><g clip-rule="evenodd" fill-rule="evenodd"><path d="M3300.3 1.5h-24.9L3172.8 104v25zm38.4 6.9l-.4-6.9h-17.8l-141.9 141.2h25.1zm-165.9 6.4v25l38.6-38.3-25.1-.1zm231.9 127.9h25.1l46.4-46.2v-25zM3389.3 3.6l-.2-2.1h-23L3224 142.7h25.2zm-158.2-2.1l-58.3 57.9v25l83.4-82.9zm219 141.2h25.1l.9-.9.1-25zm26.1-90.9v-25l-116.4 115.9h25.1zm-65.3-50.2L3269 142.7h25.1L3436 1.6zm65.3 5.4V1.6h-19.7l-141.8 141.1h25.1zm-607 13.1l-.2 35.2 87.5 87.4h35.5zm-.7 105.3l17.4 17.3h35.6l-52.7-52.5zm17-124l141 141.3h35.5L2921.1 1.4z"/><path d="M3172.8 72.7V37.2L3137 1.4h-35.5zm-74.9 70h35.6L2992 1.4h-35.6zm72.9 0h2c0-1.8-.1-15.4-.1-33.6L3065 1.4h-35.5zm2 197.5v-99h303.4zm0-99.1l151.9-98.4h-151.9zm151.5 0l151.9-98.4h-151.9zm-456-98.4v98.4h304.5zm152.1 98.4l-152.4 99h152.4zm152.4 0l-152.4 99h152.4zM3603.2 1.4V72h-127zm0 70.7l-127 70.6h127zm0 0l127-70.6h-127zm127.1 0l-127 70.6h127zm0 0l127-70.6h-127zm0 70.6l127-70.6h-127zm15.3 197.5h13.6l-6.8-4.3zm-133.2 0h13.6l-6.8-4.3zm166.5 0h13.6l-6.8-4.3zm-99.9 0h13.6l-6.8-4.3zm-33.3 0h13.6l-6.8-4.3zm66.6 0h13.6l-6.8-4.3zm99.9 0h13.6l-6.8-4.3zm-51.5-58.9l8.3 5.2 8.3-5.2 8.3-5.2 8.3 5.2 8.3 5.2 8.3-5.2 8.3-5.2 8.3 5.2 8.3 5.2 8.3-5.2 8.3-5.2 5 3.1v-10.4l-5-3.1-8.3 5.2-8.3 5.2-8.3-5.2-8.3-5.2-8.3 5.2-8.3 5.2-8.3-5.2-8.3-5.2-8.3 5.2-8.3 5.2-8.3-5.2-8.3-5.2-8.3 5.2-8.3 5.2-8.3-5.2-8.3-5.2-8.3 5.2-8.3 5.2-8.3-5.2-8.3-5.2-8.3 5.2-8.3 5.2-8.3-5.2-8.3-5.2-8.3 5.2-8.3 5.2-8.3-5.2-8.3-5.2-8.3 5.2-8.3 5.2-8.3-5.2-8.3-5.2-8.3 5.2-8.3 5.2-7.9-5v.1l-.4-.3-8.3-5.2-8.3 5.2-8.3 5.2-8.3-5.2-8.3-5.2-8.3 5.2-8.3 5.2-8.3-5.2-8.3-5.2-8.3 5.2-1.3.8v10.4l1.3-.8 8.3-5.2 8.3 5.2 8.3 5.2 8.3-5.2 8.3-5.2 8.3 5.2 8.3 5.2 8.3-5.2 8.3-5.2 8.3 5.2 8.3 5.2 8.3-5.2 8.3-5.2 8.3 5.2 8.3 5.2 8.3-5.2 8.3-5.2 8.3 5.2 8.3 5.2 8.3-5.2 8.3-5.2 8.3 5.2 8.3 5.2 8.3-5.2 8.3-5.2 8.3 5.2 8.3 5.2 8.3-5.2 8.3-5.2 8.3 5.2 8.3 5.2 8.3-5.2 1.9-1.2 6.5-4.1zm-284.5-121.9l1.4-.9 8.3-5.2 8.3 5.2 8.3 5.2 8.3-5.2 8.3-5.2 8.3 5.2 8.3 5.2 8.3-5.2 8.3-5.2 8.3 5.2 8.3 5.2 8.3-5.2 8.3-5.2 8.3 5.2 8.3 5.2 8.3-5.2 8.3-5.2 8.3 5.2 8.3 5.2 8.3-5.2 8.3-5.2 8.3 5.2 8.3 5.2 8.3-5.2 8.3-5.2 8.3 5.2 8.3 5.2 8.3-5.2 8.3-5.2 8.3 5.2 8.3 5.2 8.3-5.2 5.8-3.7 2.5-1.6 8.3 5.2 8.3 5.2 8.3-5.2 8.3-5.2 8.3 5.2 8.3 5.2 8.3-5.2 8.3-5.2 8.3 5.2 8.3 5.2 8.3-5.2 8.3-5.2 5 3.1v-10.4l-5-3.1-8.3 5.2-8.3 5.2-8.3-5.2-8.3-5.2-8.3 5.2-8.3 5.2-8.3-5.2-8.3-5.2-8.3 5.2-8.3 5.2-8.3-5.2-8.3-5.2-8.3 5.2-8.3 5.2-8.3-5.2-8.3-5.2-8.3 5.2-8.3 5.2-8.3-5.2-8.3-5.2-8.3 5.2-8.3 5.2-8.3-5.2-8.3-5.2-8.3 5.2-8.3 5.2-8.3-5.2-8.3-5.2-8.3 5.2-8.3 5.2-8.3-5.2-8.3-5.2-8.3 5.2-8.3 5.2-8.3-5.2-5.7-3.5v.1l-2.7-1.7-8.3 5.2-8.3 5.2-8.3-5.2-8.3-5.2-8.3 5.2-8.3 5.2-8.3-5.2-8.3-5.2-8.3 5.2-1.4.9v10.4zm69.6 180.8h13.5l-3.8-2.4v.1l-3-1.9zM3844 172.6l-8.3 5.2-8.3-5.2-8.3-5.2-8.3 5.2-8.3 5.2-8.3-5.2-8.3-5.2-8.3 5.2-8.3 5.2-8.3-5.2-8.3-5.2-8.3 5.2-8.3 5.2-8.3-5.2-8.3-5.2-8.3 5.2-8.3 5.2-8.3-5.2-8.3-5.2-8.3 5.2-8.3 5.2-8.3-5.2-8.3-5.2-8.3 5.2-8.3 5.2-8.3-5.2-8.3-5.2-8.3 5.2-8.3 5.2-8.3-5.2-8.3-5.2-8.3 5.2-8.3 5.2-8.3-5.2-5.7-3.5v.1l-2.7-1.7-8.3 5.2-8.3 5.2-8.3-5.2-8.3-5.2-8.3 5.2-8.3 5.2-8.3-5.2-8.3-5.2-8.3 5.2-1.4.9V184l1.4-.9 8.3-5.2 8.3 5.2 8.3 5.2 8.3-5.2 8.3-5.2 8.3 5.2 8.3 5.2 8.3-5.2 8.3-5.2 8.3 5.2 8.3 5.2 8.3-5.2 8.3-5.2 8.3 5.2 8.3 5.2 8.3-5.2 8.3-5.2 8.3 5.2 8.3 5.2 8.3-5.2 8.3-5.2 8.3 5.2 8.3 5.2 8.3-5.2 8.3-5.2 8.3 5.2 8.3 5.2 8.3-5.2 8.3-5.2 8.3 5.2 8.3 5.2 8.3-5.2 5.8-3.7 2.5-1.6 8.3 5.2 8.3 5.2 8.3-5.2 8.3-5.2 8.3 5.2 8.3 5.2 8.3-5.2 8.3-5.2 8.3 5.2 8.3 5.2 8.3-5.2 8.3-5.2 5 3.1v-10.4l-5-3.1zm0 49.1l-8.3 5.2-8.3-5.2-8.3-5.2-8.3 5.2-8.3 5.2-8.3-5.2-8.3-5.2-8.3 5.2-8.3 5.2-8.3-5.2-8.3-5.2-8.3 5.2-8.3 5.2-8.3-5.2-8.3-5.2-8.3 5.2-8.3 5.2-8.3-5.2-8.3-5.2-8.3 5.2-8.3 5.2-8.3-5.2-8.3-5.2-8.3 5.2-8.3 5.2-8.3-5.2-8.3-5.2-8.3 5.2-8.3 5.2-8.3-5.2-8.3-5.2-8.3 5.2-8.3 5.2-8.3-5.2-5.7-3.5v.1l-2.7-1.7-8.3 5.2-8.3 5.2-8.3-5.2-8.3-5.2-8.3 5.2-8.3 5.2-8.3-5.2-8.3-5.2-8.3 5.2-1.4.9v10.4l1.4-.9 8.3-5.2 8.3 5.2 8.3 5.2 8.3-5.2 8.3-5.2 8.3 5.2 8.3 5.2 8.3-5.2 8.3-5.2 8.3 5.2 8.3 5.2 8.3-5.2 8.3-5.2 8.3 5.2 8.3 5.2 8.3-5.2 8.3-5.2 8.3 5.2 8.3 5.2 8.3-5.2 8.3-5.2 8.3 5.2 8.3 5.2 8.3-5.2 8.3-5.2 8.3 5.2 8.3 5.2 8.3-5.2 8.3-5.2 8.3 5.2 8.3 5.2 8.3-5.2 5.8-3.7 2.5-1.6 8.3 5.2 8.3 5.2 8.3-5.2 8.3-5.2 8.3 5.2 8.3 5.2 8.3-5.2 8.3-5.2 8.3 5.2 8.3 5.2 8.3-5.2 8.3-5.2 5 3.1v-10.4l-5-3.1zm8.3 19.4l-8.3 5.2-8.3 5.2-8.3-5.2-8.3-5.2-8.3 5.2-8.3 5.2-8.3-5.2-8.3-5.2-8.3 5.2-8.3 5.2-8.3-5.2-8.3-5.2-8.3 5.2-8.3 5.2-8.3-5.2-8.3-5.2-8.3 5.2-8.3 5.2-8.3-5.2-8.3-5.2-8.3 5.2-8.3 5.2-8.3-5.2-8.3-5.2-8.3 5.2-8.3 5.2-8.3-5.2-8.3-5.2-8.3 5.2-8.3 5.2-8.3-5.2-8.3-5.2-8.3 5.2-8.3 5.2-2-1.2-6.3-4-8.3-5.2-8.3 5.2-8.3 5.2-8.3-5.2-8.3-5.2-8.3 5.2-8.3 5.2-8.3-5.2-8.3-5.2-8.3 5.2-1.4.9v10.4l1.4-.9 8.3-5.2 8.3 5.2 8.3 5.2 8.3-5.2 8.3-5.2 8.3 5.2 8.3 5.2 8.3-5.2 8.3-5.2 8.3 5.2 8.3 5.2 8.3-5.2 8.3-5.2 8.3 5.2 8.3 5.2 8.3-5.2 8.3-5.2 8.3 5.2 8.3 5.2 8.3-5.2 8.3-5.2 8.3 5.2 8.3 5.2 8.3-5.2 8.3-5.2 8.3 5.2 8.3 5.2 8.3-5.2 8.3-5.2 8.3 5.2 8.3 5.2 5.2-3.2 3.2-2 8.3-5.2 8.3 5.2 8.3 5.2 8.3-5.2 8.3-5.2 8.3 5.2 8.3 5.2 8.3-5.2 8.3-5.2 8.3 5.2 8.3 5.2 8.3-5.2 8.3-5.2 5 3.1v-10.4zm-8.3-43.9l-8.3 5.2-8.3-5.2-8.3-5.2-8.3 5.2-8.3 5.2-8.3-5.2-8.3-5.2-8.3 5.2-8.3 5.2-8.3-5.2-8.3-5.2-8.3 5.2-8.3 5.2-8.3-5.2-8.3-5.2-8.3 5.2-8.3 5.2-8.3-5.2-8.3-5.2-8.3 5.2-8.3 5.2-8.3-5.2-8.3-5.2-8.3 5.2-8.3 5.2-8.3-5.2-8.3-5.2-8.3 5.2-8.3 5.2-8.3-5.2-8.3-5.2-8.3 5.2-8.3 5.2-8.3-5.2-5.7-3.5v.1l-2.7-1.7-8.3 5.2-8.3 5.2-8.3-5.2-8.3-5.2-8.3 5.2-8.3 5.2-8.3-5.2-8.3-5.2-8.3 5.2-1.4.9v10.4l1.4-.9 8.3-5.2 8.3 5.2 8.3 5.2 8.3-5.2 8.3-5.2 8.3 5.2 8.3 5.2 8.3-5.2 8.3-5.2 8.3 5.2 8.3 5.2 8.3-5.2 8.3-5.2 8.3 5.2 8.3 5.2 8.3-5.2 8.3-5.2 8.3 5.2 8.3 5.2 8.3-5.2 8.3-5.2 8.3 5.2 8.3 5.2 8.3-5.2 8.3-5.2 8.3 5.2 8.3 5.2 8.3-5.2 8.3-5.2 8.3 5.2 8.3 5.2 8.3-5.2 5.8-3.7 2.5-1.6 8.3 5.2 8.3 5.2 8.3-5.2 8.3-5.2 8.3 5.2 8.3 5.2 8.3-5.2 8.3-5.2 8.3 5.2 8.3 5.2 8.3-5.2 8.3-5.2 5 3.1v-10.4l-5-3.1zm8.3 93.1l-8.3 5.2-8.3 5.2-8.3-5.2-8.3-5.2-8.3 5.2-8.3 5.2-8.3-5.2-8.3-5.2-8.3 5.2-8.3 5.2-8.3-5.2-8.3-5.2-8.3 5.2-8.3 5.2-8.3-5.2-8.3-5.2-8.3 5.2-8.3 5.2-8.3-5.2-8.3-5.2-8.3 5.2-8.3 5.2-8.3-5.2-8.3-5.2-8.3 5.2-8.3 5.2-8.3-5.2-8.3-5.2-8.3 5.2-8.3 5.2-8.3-5.2-8.3-5.2-8.3 5.2-8.3 5.2-8.3-5.2-3.6-2.2v.1l-4.8-3-8.3 5.2-8.3 5.2-8.3-5.2-8.3-5.2-8.3 5.2-8.3 5.2-8.3-5.2-8.3-5.2-8.3 5.2-1.4.9v10.4l1.4-.9 8.3-5.2 8.3 5.2 8.3 5.2 8.3-5.2 8.3-5.2 8.3 5.2 8.3 5.2 8.3-5.2 8.3-5.2 8.3 5.2 8.3 5.2 8.3-5.2 8.3-5.2 8.3 5.2 8.3 5.2 8.3-5.2 8.3-5.2 8.3 5.2 8.3 5.2 8.3-5.2 8.3-5.2 8.3 5.2 8.3 5.2 8.3-5.2 8.3-5.2 8.3 5.2 8.3 5.2 8.3-5.2 8.3-5.2 8.3 5.2 8.3 5.2 8.3-5.2 4.9-3.1 3.5-2.2 8.3 5.2 8.3 5.2 8.3-5.2 8.3-5.2 8.3 5.2 8.3 5.2 8.3-5.2 8.3-5.2 8.3 5.2 8.3 5.2 8.3-5.2 8.3-5.2 5 3.1v-10.4zm0 22.8l-8.3 5.2-8.3 5.2-8.3-5.2-8.3-5.2-8.3 5.2-8.3 5.2-8.3-5.2-8.3-5.2-8.3 5.2-8.3 5.2-8.3-5.2-8.3-5.2-8.3 5.2-8.3 5.2-8.3-5.2-8.3-5.2-8.3 5.2-8.3 5.2-8.3-5.2-8.3-5.2-8.3 5.2-8.3 5.2-8.3-5.2-8.3-5.2-8.3 5.2-8.3 5.2-8.3-5.2-8.3-5.2-8.3 5.2-8.3 5.2-8.3-5.2-8.3-5.2-8.3 5.2-8.3 5.2-8.3-5.2-5.7-3.5v.1l-2.7-1.7-8.3 5.2-8.3 5.2-8.3-5.2-8.3-5.2-8.3 5.2-8.3 5.2-8.3-5.2-8.3-5.2-8.3 5.2-1.4.9v10.4l1.4-.9 8.3-5.2 8.3 5.2 8.3 5.2 8.3-5.2 8.3-5.2 8.3 5.2 8.3 5.2 8.3-5.2 8.3-5.2 8.3 5.2 8.3 5.2 8.3-5.2 8.3-5.2 8.3 5.2 8.3 5.2 8.3-5.2 8.3-5.2 8.3 5.2 8.3 5.2 8.3-5.2 8.3-5.2 8.3 5.2 8.3 5.2 8.3-5.2 8.3-5.2 8.3 5.2 8.3 5.2 8.3-5.2 8.3-5.2 8.3 5.2 8.3 5.2 8.3-5.2 5.8-3.7 2.5-1.6 8.3 5.2 8.3 5.2 8.3-5.2 8.3-5.2 8.3 5.2 8.3 5.2 8.3-5.2 8.3-5.2 8.3 5.2 8.3 5.2 8.3-5.2 8.3-5.2 5 3.1v-10.4zm-339.8 27.1h13.5l-6.8-4.2zm-33.3 0h13.5l-6.8-4.2zm378.1-1.2l-5-3.1-6.8 4.3h11.8zm-278.2 1.2h13.6l-6.8-4.3zm950-298.3l51.8-40.5h-51.7l-.1.1-.1-.1h-51.8zm-292.3 0l51.8-40.5h-51.7l-.1.1-.1-.1H4185zm146.1 0l51.9-40.5H4383l-.1.1-.1-.1h-51.7zm-292.2 0l51.8-40.5h-51.7l-.1.1-.1-.1h-51.7zm509.1 62.9l-48.6 37.9h94.6v-2.1l-30-23.4zM3929 29.7l15.6 12.2 51.8-40.5h-51.7l-.1.1-.1-.1h-51.8zm86.3 75.1l-48.4 37.8h96.9zm292.3 0l-48.5 37.8h97zm-146.1 0l-48.5 37.8h97zm292.2 0l-48.6 37.8 97.2.1zm-584.5 0l-11.9 9.3v28.5h60.4z"/><path d="M3942.3 121.9l73-56.9 73.1 56.9 73.1-56.9 73 56.9 73.1-56.9 73 56.9 73.1-56.9 73.1 56.9 73-56.9 45.4 35.4-.5-40.8-28.9-22.5-16-12.4-73 56.9-73.1-56.9-73.1 56.9-73-56.9-73.1 56.9-73-56.9-73.1 56.9-73.1-56.9-73 56.9-15.6-12.2-57.5-44.7-11.7 9.1-.1 40.4 11.8-9.2zm701.8-104.3l-.2-16.2h-20.6zm-448.6 174.3h56.1l-28-49.2h-.2zm-.8.9l-28.1-49.5-28 49.5zm-112.8-.1l-28.1-49.4-28 49.4z"/><path d="M4138.6 192.8l-28.1-49.5-28 49.5zm282.1-.9h56.1l-27.9-49.2h-.3zm-56.6-.1h56.1l-27.9-49.1h-.4zm-112.5.1h56.1l-28-49.2h-.2zm56.4 0h56.1l-28-49.2h-.2zm-338.3 99.7h27.7l.3-.6.3.6h27.8l-27.9-49.3h-.3zm-28.2-49.3h27.9l-28.1-49.4-28 49.4h27.9l.1-.2zm56.2-49.4l-28 49.4h27.9l.1-.2.2.2h27.9zm563.5 48.5h28l-28.1-49.4-28 49.4h27.9l.1-.2z"/><path d="M4561.4 290.7h27.8l-28-49.3h-.2l-27.9 49.3h27.7l.3-.6zm-591.5 49.4h27.3l.2-.4.2.4h28l-27.6-48.5h-.6zm506.9-148.2h56.1l-27.9-49.2h-.3zm-140.5 148l-.2-.3h-.8l-.2.3zm-450.9-97.6h27.9l-28.1-49.4-27.9 49.4h27.8l.1-.2zm675.8 97.3h-.9v.1h1zm-28.1-147.7h56.1l-28-49.2h-.2zm84.9 98.9h-.6l-27.7 48.9h27.3l.4-.8.4.8h28zm0 0h27.8l-27.9-49.3h-.3l-27.9 49.3h27.7l.3-.6zm27.8-98.8h.1v-.1zm-704.1 99.6h27.7l-27.9-49.3h-.3l-27.9 49.3h27.7l.3-.6zm676.2-50.1h27.9l-28.1-49.4-28 49.4h27.9l.1-.2zm-225.7 98h28l-27.8-48.9h-.6l-27.7 48.9h27.3l.4-.7zm169 .1h28l-27.8-48.9h-.6l-27.7 48.9h27.2l.5-.8zm28.5-147.6h56.1l-28-49.3h-.2z"/><path d="M3885.5 291.6h27.8l-27.9-49.3h-.3l-27.8 49.2v.1h27.6l.3-.6zm-.8 48.5l.2-.4.3.4h27.9l-27.6-48.5h-.6l-27.5 48.6zm507.5-98.7h28l-28.1-49.5-28 49.5h27.9l.1-.2zm-338.2.8h27.9l-28.1-49.4-28 49.4h27.9l.1-.2zm282.3 48.5h27.8l-28-49.2h-.2l-27.9 49.2h27.7l.3-.5zm-112.7 48.9h-.8l-.2.3h1.2zm0 0h28l-27.8-48.9h-.6l-27.7 48.9h27.3l.4-.7zm225.3 0h27.9l-27.7-48.9h-.7l-27.7 48.9h27.3l.4-.7zm-225.1-48.9h27.8l-28-49.2h-.2l-27.9 49.2h27.7l.3-.5zm-56.9.9h-.6l-27.5 48.4h27.3l.2-.3.1.3h28zm282 48h-.9l-.1.2h1.1zm-225.3-98.1h28l-28.1-49.5-28 49.5h27.9l.1-.2zm225.3 0h27.9l-28-49.5-28.1 49.5h27.9l.2-.2zm56.1 98.1h-.9l-.1.2h1z"/><path d="M4279.7 339.6h28l-27.8-48.9h-.6l-27.7 48.9h27.3l.4-.7zm0 0h-.8l-.2.3h1.2zm225.3-98.1h27.9l-28-49.5-28.1 49.5h27.9l.2-.2zm-225.3 0h28l-28.1-49.5-28 49.5h27.9l.1-.2zm.2 49.2h27.8l-28-49.2h-.2l-27.9 49.2h27.7l.3-.5zm169.2 0h27.7l-27.9-49.2h-.3l-27.9 49.2h27.7l.4-.5zm-56.7-.1h27.8l-28-49.2h-.2l-27.9 49.2h27.7l.3-.5zm-338.3.9h27.8l-27.9-49.3h-.3l-27.9 49.3h27.7l.3-.6zm282-50h28L4336 192l-28 49.5h27.9l.1-.2zm168.9 98.1h27.9l-27.7-48.9h-.6l-27.8 48.9h27.3l.4-.7zm-338.1-48h27.8l-28-49.3h-.2l-27.9 49.3h27.7l.3-.6zm-225.2 0h-.7l-27.5 48.5h27.3l.2-.4.2.4h28zm56-148.3l-28 49.5h56.1zm56.4 148.2h-.6l-27.5 48.6 27.3-.1.2-.4.2.4h28zm-112.8-148.2l-28 49.5h56.1zm-84 49.5h56l-28.1-49.5-27.9 49.4zm309.4 49.5h28l-28.1-49.4-28 49.4h27.9l.1-.2zm225.5 97.2h-.8l-.2.3h1.2zm-282.2.5l.1-.3.2.3h28l-27.5-48.4h-.6l-27.5 48.4zm.8-48.4h27.8l-28-49.3h-.3l-27.8 49.3h27.7l.3-.6zm394.4-.9h27.7l-27.9-49.2h-.3l-27.9 49.2h27.8l.3-.5zm-169.1 48.9h28l-27.8-48.9h-.6l-27.7 48.9h27.3l.4-.7z"/><path d="M4110.6 242.3h28l-28.1-49.4-28 49.4h27.8l.2-.2zM4693 1.4l47 47.1h-94.1zm-47.2 94.2h94.1l-47-47.1zm0 47.1h94.1l-47-47.1zm94.2-94.2h94.1l-47-47.1zm0 47.1h94.1l-47-47.1zm0 47.1h94.1l-47-47.1zm94.1-94.2h94.1l-47-47.1zm0 47.1h94.1l-47-47.1zm0 47.1h94.1l-47-47.1zm94.1-94.2h94.1l-47-47.1zm0 47.1h94.1l-47-47.1zm0 47.1h94.1l-47-47.1zm94.2-94.2h94.1l-47-47.1zm0 47.1h94.1l-47-47.1zm0 47.1h94.1l-47-47.1zm94.1-94.2h94.1l-47-47.1zm0 47.1h94.1l-47-47.1zm0 47.1h94.1l-47-47.1zm94.2-94.2h94.1l-47-47.1zm0 47.1h94.1l-47-47.1zm0 47.1h94.1l-47-47.1zm-564.8 174.5v22.4l92.7.1c-27.2-20-60.8-27.5-92.7-22.5z"/><path d="M4645.9 184.9c25.7-6.1 53.7.1 74.7 18.6l5.3 4.7c46.6 41.1 116.9 41.1 163.5 0l5.3-4.7c31.5-27.8 79.1-27.8 110.7 0l5.3 4.7c46.6 41.1 116.9 41.1 163.5 0l5.3-4.7c31.5-27.8 79.1-27.8 110.7 0l5.3 4.7c3 2.6 6.1 5.1 9.3 7.4v-51.3c-46.1-31.6-108.9-28.6-151.7 9.2l-5.3 4.7c-31.5 27.8-79.1 27.8-110.7 0l-5.3-4.7c-46.6-41.1-116.9-41.1-163.5 0l-5.3 4.7c-31.5 27.8-79.1 27.8-110.7 0l-5.3-4.7c-28.5-25.1-65.8-34.9-101.1-29.3z"/><path d="M5153.1 257.9l-5.3 4.7c-31.5 27.8-79.1 27.8-110.7 0l-5.3-4.7c-46.6-41.1-116.9-41.1-163.5 0l-5.3 4.7c-31.5 27.8-79.1 27.8-110.7 0l-5.3-4.7c-28.5-25.1-65.8-34.9-101.1-29.3v40.7c25.7-6.1 53.7.1 74.7 18.6l5.3 4.7c46.6 41.1 116.9 41.1 163.5 0l5.3-4.7c31.5-27.8 79.1-27.8 110.7 0l5.3 4.7c46.6 41.1 116.9 41.1 163.5 0l5.3-4.7c31.5-27.8 79.1-27.8 110.7 0l5.3 4.7c3 2.6 6.1 5.1 9.3 7.4v-51.3c-46.1-31.6-108.9-28.6-151.7 9.2z"/><path d="M5161.1 340.1l143.7.1v-2.8c-43.3-29.8-101.3-28.9-143.7 2.7zm-284.5-.3l147.1.1c-43.6-32.2-103.5-32.3-147.1-.1zM5442.3 6.5l1.6 1.4c14.1 12.5 35.4 12.5 49.6 0l1.6-1.4c2.7-2.4 5.8-4.1 9-5.1H5482c-8.1 5-18.5 5-26.6 0h-22.1c3.2 1.1 6.3 2.8 9 5.1zm86.4 0l1.6 1.4c14.1 12.5 35.4 12.5 49.6 0l1.6-1.4c2.7-2.4 5.8-4.1 9-5.1h-22.1c-8.1 5-18.5 5-26.6 0h-22.1c3.2 1.1 6.3 2.8 9 5.1zm86.3 0l1.6 1.4c1.1 1 2.2 1.8 3.4 2.6l-.1-9.1H5606c3.3 1.1 6.3 2.8 9 5.1zm5.8 122.2c-14.1-10.4-33.7-9.7-47 2.1l-1.6 1.4c-9.6 8.4-24 8.4-33.6 0l-1.6-1.4c-14.1-12.5-35.4-12.5-49.6 0l-1.6 1.4c-9.6 8.4-24 8.4-33.6 0l-1.6-1.4c-14.1-12.5-35.4-12.5-49.6 0l-1.6 1.4c-9.6 8.4-24 8.4-33.6 0l-1.6-1.4c-14.1-12.5-35.4-12.5-49.6 0l-1.6 1.4c-2.5 2.2-5.3 3.8-8.2 4.8v5.6h14.5c.6-.4 1.1-.9 1.7-1.4l1.6-1.4c9.6-8.4 24-8.4 33.6 0l1.6 1.4c.5.5 1.1.9 1.7 1.4h46.2c.6-.4 1.1-.9 1.7-1.4l1.6-1.4c9.6-8.4 24-8.4 33.6 0l1.6 1.4c.5.5 1.1.9 1.7 1.4h46.2c.6-.4 1.1-.9 1.7-1.4l1.6-1.4c9.6-8.4 24-8.4 33.6 0l1.6 1.4c.5.5 1.1.9 1.7 1.4h46.2c.6-.4 1.1-.9 1.7-1.4l1.6-1.4c9.6-8.4 24-8.4 33.6 0l1.6 1.4c.5.5 1.1.9 1.7 1.4h2.2zM5356 6.5l1.6 1.4c14.1 12.5 35.4 12.5 49.6 0l1.6-1.4c2.7-2.4 5.8-4.1 9-5.1h-22.1c-8.1 5-18.5 5-26.6 0H5347c3.2 1.1 6.3 2.8 9 5.1zm-33.3 79.6c9.6-8.4 24-8.4 33.6 0l1.6 1.4c14.1 12.5 35.4 12.5 49.6 0l1.6-1.4c9.6-8.4 24-8.4 33.6 0l1.6 1.4c14.1 12.5 35.4 12.5 49.6 0l1.6-1.4c9.6-8.4 24-8.4 33.6 0l1.6 1.4c14.1 12.5 35.4 12.5 49.6 0l1.6-1.4c9.6-8.4 24-8.4 33.6 0l1.6 1.4c1.2 1.1 2.5 2.1 3.9 3V74.9c-14.1-10.4-33.7-9.7-47.1 2l-1.6 1.4c-9.6 8.4-24 8.4-33.6 0L5537 77c-14.1-12.5-35.4-12.5-49.6 0l-1.6 1.4c-9.6 8.4-24 8.4-33.6 0l-1.6-1.4c-14.1-12.5-35.4-12.5-49.6 0l-1.6 1.4c-9.6 8.4-24 8.4-33.6 0l-1.6-1.4c-14.1-12.5-35.4-12.5-49.6 0l-1.6 1.4c-2.5 2.2-5.2 3.8-8.2 4.8v12.6c5.8-1.4 11.4-4.1 16.2-8.4z"/><path d="M5322.7 113c9.6-8.4 24-8.4 33.6 0l1.6 1.4c14.1 12.5 35.4 12.5 49.6 0l1.6-1.4c9.6-8.4 24-8.4 33.6 0l1.6 1.4c14.1 12.5 35.4 12.5 49.6 0l1.6-1.4c9.6-8.4 24-8.4 33.6 0l1.6 1.4c14.1 12.5 35.4 12.5 49.6 0l1.6-1.4c9.6-8.4 24-8.4 33.6 0l1.6 1.4c1.2 1.1 2.5 2.1 3.9 3v-15.5c-14.1-10.4-33.7-9.7-47.1 2l-1.6 1.4c-9.6 8.4-24 8.4-33.6 0l-1.6-1.4c-14.1-12.5-35.4-12.5-49.6 0l-1.6 1.4c-9.6 8.4-24 8.4-33.6 0l-1.6-1.4c-14.1-12.5-35.4-12.5-49.6 0l-1.6 1.4c-9.6 8.4-24 8.4-33.6 0l-1.6-1.4c-14.1-12.5-35.4-12.5-49.6 0l-1.6 1.4c-2.5 2.2-5.2 3.8-8.2 4.8v12.6c5.9-1.4 11.4-4.1 16.2-8.4zm249.2-87.2c-9.6 8.4-24 8.4-33.6 0l-1.6-1.4c-14.1-12.5-35.4-12.5-49.6 0l-1.6 1.4c-9.6 8.4-24 8.4-33.6 0l-1.6-1.4c-14.1-12.5-35.4-12.5-49.6 0l-1.6 1.4c-9.6 8.4-24 8.4-33.6 0l-1.6-1.4c-14.1-12.5-35.4-12.5-49.6 0l-1.6 1.4c-2.4 2.1-5.1 3.7-7.9 4.7v12.6c5.7-1.4 11.2-4.1 15.9-8.3l1.6-1.4c9.6-8.4 24-8.4 33.6 0l1.6 1.4c14.1 12.5 35.4 12.5 49.6 0l1.6-1.4c9.6-8.4 24-8.4 33.6 0l1.6 1.4c14.1 12.5 35.4 12.5 49.6 0l1.6-1.4c9.6-8.4 24-8.4 33.6 0l1.6 1.4c14.1 12.5 35.4 12.5 49.6 0l1.6-1.4c9.6-8.4 24-8.4 33.6 0l1.6 1.4c1.2 1 2.4 2 3.7 2.9l-.2-15.7c-14-10.1-33.5-9.3-46.7 2.3z"/><path d="M5322.7 60.5c9.6-8.4 24-8.4 33.6 0l1.6 1.4c14.1 12.5 35.4 12.5 49.6 0l1.6-1.4c9.6-8.4 24-8.4 33.6 0l1.6 1.4c14.1 12.5 35.4 12.5 49.6 0l1.6-1.4c9.6-8.4 24-8.4 33.6 0l1.6 1.4c14.1 12.5 35.4 12.5 49.6 0l1.6-1.4c9.6-8.4 24-8.4 33.6 0l1.6 1.4c1.2 1.1 2.5 2 3.8 2.9l-.2-15.7c-14-10.1-33.5-9.4-46.7 2.3l-1.6 1.4c-9.6 8.4-24 8.4-33.6 0l-1.6-1.4c-14.1-12.5-35.4-12.5-49.6 0l-1.6 1.4c-9.6 8.4-24 8.4-33.6 0l-1.6-1.4c-14.1-12.5-35.4-12.5-49.6 0l-1.6 1.4c-9.6 8.4-24 8.4-33.6 0l-1.6-1.4c-14.1-12.5-35.4-12.5-49.6 0l-1.6 1.4c-2.5 2.2-5.2 3.8-8.2 4.8v12.6c5.8-1.4 11.4-4.1 16.2-8.4zm-17.8-44.3c5.7-1.4 11.2-4.1 15.9-8.3l1.6-1.4c2.7-2.4 5.8-4.1 9-5.1h-22.1c-1.4.9-2.9 1.6-4.4 2.2zm225.6 324l-90.3-98.8h90.3zm-135.4-197.7h-90.3l90.3 98.8zm0 148.3l-45.1 49.4h45.1zm0-49.4l-45.1 49.4h45.1zm45.1 49.4l-45.1 49.4h45.1zm0-49.4l-45.1 49.4h45.1zm-90.3 49.4l-45.1 49.4h45.1zm0-49.4l-45.1 49.4h45.1zm135.5-98.9h-45.1l45.1 49.4zm0 49.5h-45.1l45.1 49.4zm45.1-49.5h-45.1l45.1 49.4zm0 49.5h-45.1l45.1 49.4zm-90.3 0l-45.1 49.4h45.1zm0-49.5l-45.1 49.4h45.1zm180.6 0h-90.3l90.3 98.8zm0 148.3h-45.1l45.1 49.4zm0-49.4h-45.1l45.1 49.4zm-45.2 49.4h-45.1l45.1 49.4zm0-49.4h-45.1l45.1 49.4z"/></g></g></svg>