<svg viewBox="0 0 383.97 1919.38" xmlns="http://www.w3.org/2000/svg" xmlns:xlink="http://www.w3.org/1999/xlink"><clipPath id="a"><path d="m.31 0h383.66v1919.38h-383.66z"/></clipPath><g clip-path="url(#a)" fill="#ffd400"><g fill-rule="evenodd"><path d="m413.22 1478.82h-80.47c43.53 27.31 87 54.61 128.76 81.91q1.15-25.51 1-51-24.51-15.45-49.29-30.91z"/><path d="m256.31 1478.82h-78.44c94.44 60.08 192.05 120.18 273.79 180.18q3.94-24.93 6.38-49.86c-63.29-43.41-132.89-86.86-201.73-130.32z"/><path d="m258.09 1659.69c-111.18 71.94-212 143.89-259.65 215.83q-8.16-17.51-15.36-35c48.56-60.28 130.92-120.52 222.24-180.84h-41.32c-76.26 51-145.17 101.93-191.71 152.87q-6.46-17.44-12-34.87c40.76-39.31 93.35-78.65 151-118h38.35c-73.72-47.81-152.8-95.62-228.22-143.43q0-18.7.67-37.43h20c92.86 60.29 193.36 120.58 283.6 180.86z"/><path d="m446.94 1686.06c-129.77 77.77-253 155.54-316 233.32h34.73c60.66-66.15 163.1-132.31 273.77-198.46q4.15-17.43 7.5-34.86z"/><path d="m76.17 1659.72h-5.66c-43.75 30.54-84.14 61.09-118.13 91.63q-4.87-17.5-8.94-35c22.85-18.88 47.83-37.75 74.28-56.63h-15.86c-24.93-15.29-50.19-30.59-75.46-45.89q-2.54-24.52-3.75-49c51.28 31.62 103.35 63.23 153.52 94.89z"/><path d="m421.85 1783.59q5.67-17.43 10.47-34.86c-95 56.88-181.89 113.77-238.94 170.65h34.73c50.33-45.26 118.57-90.53 193.74-135.79z"/><path d="m379 1659.68h-25.85c-138.31 86.57-267.71 173.13-313.06 259.7h-19.59q-4.12-7.64-8-15.28c43.5-81.42 160.5-162.94 288.12-244.42h-1.27c-87.6-60.28-187.3-120.57-280.77-180.86h82.86c94.12 60.29 192.94 120.58 277.6 180.86z"/><path d="m412.31 1811.27c-59.36 36-113.44 72.07-156.62 108.11h34.86c31.89-24.42 68.51-48.83 108.06-73.25q7.29-17.43 13.7-34.86z"/><path d="m67.51 1919.38h34.86c62.43-86.57 202.11-173.13 345.63-259.7h-52.56c-140.81 86.57-274.95 173.13-327.93 259.7z"/><path d="m368.77 1909.46q9.12-17.46 17.23-34.86c-23.83 14.92-46.39 29.85-67.27 44.78h34.86q7.49-5 15.19-9.92z"/><path d="m60.77 1068c-28.71 104-60.56 207.91-85.15 311.86 11.22 33 24.1 66 38.18 99 15.63-33 32-66 48.36-99-8.5-104-8.46-207.96-1.39-311.86z"/><path d="m126.38 1068c-19.77 104-43.64 207.91-64.22 311.86 12.51 33 26.27 66 40.73 99 15.24-33 30.76-66 45.82-99-12.52-104-20.4-208-22.33-311.86z"/><path d="m192 1068c-10.83 104-26.74 207.91-43.29 311.86 13.78 33 28.42 66 43.27 99 14.86-33 29.5-66 43.28-99-16.55-104-32.44-208-43.26-311.86z"/><path d="m257.61 1068c-1.88 104-9.82 207.91-22.35 311.86 15.06 33 30.58 66 45.82 99 14.46-33 28.22-66 40.73-99-20.57-104-44.44-208-64.2-311.86z"/><path d="m323.23 1068c7 104 7.08 207.91-1.42 311.86 16.33 33 32.73 66 48.36 99 14.08-33 27-66 38.18-99-24.59-104-56.42-208-85.12-311.86z"/></g><path d="m103.89 865.82h-72q2.72-9.39 5.42-18.82h8.45q6.51-24.19 12.72-48.4h-7.75q2.55-9.4 5-18.8h61.27q-2.08 14.33-4.25 28.67h-16.19q.9-4.94 1.79-9.87h-19.57q-1.55 7.14-3.13 14.29h18.79q-1.74 9.4-3.51 18.8h-19.49q-1.72 7.65-3.44 15.31h21.44l1.89-9.85h17.11q-2.26 14.34-4.54 28.67zm46.34 0h-39.74q1.38-9.39 2.74-18.8h9.38q3.08-24.19 6-48.4h-8.55q1.29-9.4 2.56-18.8h34.59q-.63 9.39-1.29 18.8h-6.92l-1.23 14.8h7.56c9.71 0 15.77-5.45 16.1-14.8h-6.1q.48-9.4 1-18.8h32.6q.12 9.39.25 18.8h-8.55a34.87 34.87 0 0 1 -15.56 28.67c1.68 13.35 8.48 19.73 23.62 18.8q8.19-23.75 14.94-47.47h-5.33l-.58-18.8h38.49q13.73 33.6 30.53 67.2h8.07q1.6 9.4 3.23 18.8h-40.68q-.95-9.39-1.86-18.8h6.22c-.82-2.15-1.64-4.31-2.45-6.46h-25.58c-.46 2.15-.92 4.31-1.39 6.46h7.14q.65 9.4 1.3 18.8h-16c-27.72 0-31.37 0-41.34-4.42-9.5-4.42-16.09-15.31-18.53-29.18h-8.67q-.63 7.39-1.27 14.8h6.68zm77.94-44h13.2q-4.38-10.38-8.46-20.75-2.25 10.39-4.74 20.77zm-85.45 145.18h-47.28l2.92-19h10.88q3.26-24.29 6.48-48.57h-10q1.36-9.15 2.72-18.29h50.48c21.9 0 33 12.5 33.16 28.49 0 9.36-5.1 19.65-16.39 25.52 1.32 9.36 10 12.85 20.78 12.85h17.29l-1.68-48.57h-13.5q-.11-9.15-.2-18.29h49.62q.9 9.14 1.82 18.29h-13.5q1.82 24.29 3.68 48.57h14.64l1.92 19.06h-61.25c-27.82 0-40.52-9.7-45.41-28h-12.9l-.81 8.93h8l-1.47 19zm-4-46.53h11.89c8 0 14.66-2.72 15-10.47.34-8.16-5.87-10.46-13.53-10.46h-11.5q-.93 10.46-1.87 20.9zm-46.57 18h-20.46q-1 4.93-2 9.87h-25.48q1.79-7.65 3.65-15.34h23.3l3.75-18.8h-22.6q1.69-7.15 3.38-14.29h23.62c-.64 3.29-1.28 6.57-1.93 9.86h19.44q2.33-14.32 4.63-28.66h-74q-2.73 9.39-5.5 18.8h9.29q-6.74 24.19-13.57 48.4h-10.08l-5.59 18.83h85.44q2.36-14.34 4.7-28.67zm170.23-158.65q1.94 14.07 3.93 28.18h15.35l-1.59-9.36h8.56q4.49 24.2 9.2 48.4h-8.07q1.69 9.4 3.4 18.8h40.62q-2.4-9.39-4.77-18.8h-8.45q-5.71-24.19-11.17-48.4h8.55c.76 3.12 1.51 6.24 2.27 9.36h15.79q-3.86-14.09-7.58-28.16zm55 119.61h10.38q3.67 15.57 7.33 31.05-23.94-24.63-44.84-49.26h-35.47q1 9.15 2 18.29h10q3.15 24.24 6.33 48.49h-10.8q1.08 9.53 2.17 19.06h49.52q-1.83-9.54-3.68-19.06h-10.78q-2.6-14.93-5.18-29.86 21.56 24.47 46 48.92h30.55q-9.48-33.78-18.88-67.55h9.28q-2.67-9.15-5.33-18.29h-42.45q2 9.1 3.93 18.21zm-239.57 142.91c-1.93 12.85-15.88 25.66-39.37 25.66h-66.29q2.69-9.32 5.4-18.63h11.17q6.72-24.37 13.59-48.63h-10.44q2.84-9.53 5.68-19h51.76c19.86 0 27.69 11.26 25.69 23.31-.94 5.44-4.17 10.89-10.72 15.9 11.34 4.72 14.87 12.89 13.54 21.39zm-49.5-26.79h7.92c6.5 0 10.48-3.49 11.3-7.41s-1.61-7.4-8-7.4h-7.74q-1.79 7.41-3.48 14.81zm19.42 25.6c.84-4.25-2.58-8.51-9.22-8.51h-14.28q-1.92 8.35-3.92 16.68h14c7.41 0 12.61-4.26 13.38-8.17zm298.48-23.15h49.59q4.72 16.08 9.38 32.16c-4 10.89-18.85 19.31-44.28 19.31-15 0-27.52-3.15-34.68-7-21.75 11.4-65.38 9-81.77-22.54h-13.76c.17 3.12.33 6.24.5 9.36h9.58l1.23 18.63h-54.76l.12-18.63h13.3q-.28-24.29-.58-48.58h-17.87q-.24 16.13-.47 32.24c-.11 24.08-22.32 37.27-51 37.26-25.13 0-49-11.65-45-37.26q2.42-16.11 4.84-32.24h-9.5l3.15-19h49.3l-1.71 19h-10.82q-1.77 16.72-3.51 33.44c-1.06 9.69 7.65 15.14 16.4 15.14s17.34-5 17.88-15.14q.94-16.73 1.9-33.44h-13q.72-9.53 1.46-19h103.87c25.88 0 40.82 12.5 43.23 28.5 1.34 9.35-3.29 19.73-15.61 25.52 6.85 12.93 24.12 15.48 31.2 9.27a42.93 42.93 0 0 1 -8.28-20.16c-3.16-23.06 9.85-44.66 43-44.66 19.32 0 32.21 4.85 43.62 11.74q2.91 10.08 5.79 20.16h-25.89c-.78-3-1.57-6-2.35-9a34.52 34.52 0 0 0 -14.95-3.06c-14.9 0-22.14 9.19-19.3 24.41 2.59 14 14.77 24.42 30.45 24.76 8.3 0 14.26-1.45 19.39-5.79-.61-2.41-1.23-4.82-1.84-7.23h-24.24q-2-9.11-4-18.17zm-86.77-6.72c-.82-8.16-8.49-10.46-17.51-10.46h-13.25l1.14 21h13.62c9.33-.06 16.75-2.82 16-10.53z"/><path d="m121.78 538.87c4.76 11.44 9.66 22.88 14.81 34.32h-37q11.78-17.19 22.19-34.32zm-27.66 68.65h39.19c-5.31-11.44-10.31-22.89-15.17-34.33q-11.32 17.18-24.02 34.33zm-6.31 34.32h41.63q-8.39-17.16-15.76-34.32-12.14 17.16-25.87 34.32zm48.78-68.65h36.95c-5.82-11.44-11.33-22.88-16.63-34.32-6.41 11.44-13.15 22.88-20.32 34.32zm-3.28 34.33h39.13c-6.13-11.44-11.88-22.89-17.37-34.33q-10.24 17.17-21.76 34.33zm-3.78 34.32h41.66c-6.49-11.44-12.55-22.88-18.28-34.32q-11 17.16-23.39 34.32zm44-68.65h37c-6.49-11.44-12.61-22.88-18.46-34.32q-8.82 17.13-18.53 34.32zm-1.09 34.33h39.14q-10.37-17.16-19.58-34.33-9.22 17.17-19.58 34.33zm-1.27 34.32h41.67q-11.07-17.16-20.84-34.32-9.78 17.16-20.85 34.32zm39.32-68.65h36.95q-10.71-17.19-20.27-34.32-8 17.16-16.67 34.32zm1.09 34.33h39.15q-11.55-17.16-21.73-34.33c-5.49 11.45-11.26 22.89-17.4 34.33zm1.26 34.32h41.67q-12.42-17.16-23.33-34.32c-5.74 11.48-11.82 22.88-18.33 34.32zm34.6-68.65h37q-11.73-17.19-22.13-34.32-7.11 17.13-14.82 34.32zm3.29 34.33h39.14q-12.72-17.16-23.93-34.33-7.21 17.17-15.2 34.33zm3.78 34.32h41.67q-13.74-17.16-25.82-34.32c-4.92 11.48-10.18 22.88-15.8 34.32z" fill-rule="evenodd"/><path d="m127.72 435.93c5.16 11.44 10.2 22.88 15.25 34.32h-32.66q9.14-17.16 17.41-34.32zm-20 68.64h33.72c-5-11.44-9.9-22.88-14.82-34.32-6 11.44-12.23 22.88-18.87 34.32zm-3.57 34.32h35.16q-7.5-17.16-14.69-34.32c-6.46 11.43-13.24 22.88-20.46 34.32zm38.85-68.64h32.7c-5.31-11.44-10.54-22.88-15.79-34.32-5.45 11.44-11.05 22.88-16.9 34.32zm-1.52 34.32h33.7c-5.41-11.44-10.64-22.88-15.83-34.32q-8.56 17.16-17.86 34.32zm-2.15 34.32h35.15c-5.56-11.44-10.9-22.89-16.13-34.32q-9 17.16-19 34.32zm36.34-68.64h32.7q-8.37-17.16-16.37-34.32c-5.34 11.44-10.71 22.88-16.35 34.32zm-.5 34.32h33.7c-5.87-11.44-11.43-22.88-16.87-34.32-5.44 11.44-11 22.88-16.85 34.32zm-.69 34.32h35.13c-6.17-11.44-11.98-22.89-17.61-34.32q-8.4 17.15-17.56 34.32zm33.91-68.64h32.7c-5.83-11.44-11.42-22.88-16.87-34.32-5.25 11.44-10.48 22.88-15.81 34.32zm.5 34.32h33.71c-6.23-11.44-12.14-22.88-17.84-34.32-5.18 11.44-10.41 22.88-15.85 34.32zm.72 34.32h35.09q-10-17.16-19-34.32-7.75 17.15-16.11 34.32zm31.52-68.64h32.7c-6.09-11.44-11.86-22.88-17.42-34.32-5.14 11.44-10.19 22.88-15.26 34.32zm1.5 34.32h33.72c-6.63-11.44-12.87-22.88-18.87-34.32-4.94 11.44-9.86 22.88-14.87 34.32zm2.15 34.32h35.13q-10.81-17.16-20.43-34.32c-4.83 11.43-9.7 22.88-14.74 34.32zm39.7 34.3h36.95q-12.78-17.19-23.99-34.32c-4.23 11.44-8.53 22.88-13 34.32zm5.47 34.33h39.15q-13.9-17.16-26.12-34.33c-4.14 11.45-8.44 22.89-13 34.33zm6.31 34.32h41.67q-15.09-17.16-28.38-34.32c-4.23 11.48-8.55 22.88-13.31 34.32zm-22.4-171.59h32.7q-9.52-17.16-18-34.32c-5 11.44-9.9 22.88-14.71 34.32zm2.5 34.32h33.64q-10.57-17.16-19.84-34.32c-4.68 11.44-9.26 22.88-13.87 34.32zm3.58 34.32h35.06q-11.64-17.16-21.84-34.32c-4.41 11.43-8.75 22.88-13.3 34.32zm-217.25 34.3h37c-4.47-11.44-8.76-22.88-13-34.32q-11.2 17.13-24 34.32zm-7.69 34.33h39.17c-4.55-11.44-8.85-22.89-13-34.33q-12.26 17.18-26.17 34.33zm-8.83 34.32h41.69c-4.71-11.44-9.09-22.84-13.25-34.32q-13.31 17.16-28.43 34.32zm31.41-171.59h32.74c-4.79-11.44-9.65-22.88-14.7-34.32-5.72 11.44-11.68 22.88-18.05 34.32zm-3.5 34.32h33.7c-4.6-11.44-9.16-22.88-13.83-34.32q-9.35 17.16-19.88 34.32zm-5 34.32h35.13q-6.76-17.16-13.27-34.32c-6.85 11.43-14.11 22.88-21.88 34.32z" fill-rule="evenodd"/><path d="m39.66 663.8c12.8-3.18 24.65.05 32.33 9.68l1.94 2.44c17 21.39 53.71 21.39 77.42 0l2.68-2.44c15.97-14.48 36.85-14.48 52.17 0 .86.81 1.71 1.63 2.58 2.44 22.69 21.39 59.4 21.39 77.41 0 .69-.81 1.37-1.63 2.05-2.44 12.2-14.48 33.14-14.48 52.2 0l3.21 2.44c1.82 1.35 3.69 2.66 5.58 3.85q-4.08-13.35-7.87-26.7c-25.5-16.44-51.36-14.88-68 4.79l-2 2.45c-12.21 14.47-35.58 14.47-50.86 0l-2.56-2.45c-22.42-21.39-51.41-21.39-74.76 0l-2.74 2.45c-15.88 14.47-39.25 14.47-50.86 0-.65-.82-1.3-1.63-1.94-2.45-10.47-13.06-25.5-18.16-41.95-15.25l-6 21.19z" fill-rule="evenodd"/><path d="m280.56 701.79-2.25 2.44c-13.24 14.47-38.74 14.47-55.4 0l-2.79-2.44c-24.46-21.39-55.92-21.39-81.42 0l-2.91 2.44c-17.34 14.47-42.83 14.47-55.4 0l-2.08-2.44c-11.31-13.06-27.59-18.17-45.52-15.25q-3.3 10.59-6.76 21.18c14-3.17 26.84 0 35.17 9.68l2.1 2.45c18.46 21.39 58.52 21.39 84.38 0l2.93-2.45c17.39-14.47 40.15-14.47 56.85 0l2.81 2.45c24.74 21.39 64.8 21.39 84.38 0 .74-.82 1.49-1.63 2.22-2.45 13.27-14.47 36-14.47 56.86 0 1.16.82 2.33 1.63 3.51 2.45 2 1.35 4 2.65 6.1 3.85q-4.51-13.35-8.77-26.7c-27.93-16.45-56-14.88-74 4.79z" fill-rule="evenodd"/><path d="m288.56 745.72-2.42 2.44c-14.45 14.47-42.24 14.47-60.41 0l-3-2.44c-26.68-21.4-61-21.39-88.78 0l-3.17 2.44c-18.9 14.47-46.69 14.47-60.4 0l-2.3-2.44c-12.34-13.07-30-18.17-49.61-15.25q-3.61 10.59-7.38 21.18c15.22-3.18 29.25.05 38.35 9.68l2.3 2.44c20.19 21.4 63.82 21.39 92 0l3.19-2.44c19-14.47 43.77-14.47 62 0 1 .81 2 1.63 3.06 2.44 27 21.4 70.59 21.39 92 0l2.44-2.44c14.47-14.47 39.29-14.47 62 0l3.82 2.44c2.17 1.36 4.38 2.66 6.64 3.86q-4.87-13.35-9.53-26.7c-30.6-16.45-61.16-14.93-80.8 4.79z" fill-rule="evenodd"/><path d="m32.25 138.08c5.82-10.76 23.52-10.76 38.31 0l2.44 1.79c21.49 16 42.94 16 56.26 0l1.5-1.79c9-10.76 26.66-10.76 38.31 0l1.94 1.79c17 16 38.48 16 56.26 0l2-1.79c12.11-10.76 29.81-10.76 38.31 0 .48.6 1 1.2 1.43 1.79 12.56 16 34 16 56.26 0l2.52-1.79c15.25-10.76 32.95-10.76 38.32 0l.9 1.79a16.29 16.29 0 0 0 2.44 3.85q4.53-8.83 9.43-17.68l1.29-2.3c-9.14-13.32-35.35-12.43-57 2.56l-2.57 1.79c-15.34 10.76-30.95 10.76-39.46 0-.52-.55-1-1.11-1.57-1.66-12.32-16-40.43-16-58.53 0l-2 1.79c-12.15 10.76-27.75 10.76-39.44 0-.65-.6-1.3-1.2-2-1.79-17.27-16-45.38-16-58.53 0-.5.59-1 1.19-1.49 1.79-9 10.76-24.57 10.76-39.44 0-.83-.6-1.66-1.2-2.5-1.79-22.22-16-50.33-16-58.53 0-.32.59-.63 1.19-1 1.79a13.18 13.18 0 0 1 -6.29 6.15q4.3 8.07 8.33 16.14a21.6 21.6 0 0 0 12.89-10.76z" fill-rule="evenodd"/><path d="m47.14 172.53c5.54-10.75 21.52-10.75 34.74 0l2.19 1.8c19.18 16 38.79 16 51 0l1.37-1.8c8.23-10.75 24.21-10.75 34.74 0l1.75 1.8c15.39 16 35 16 51 0l1.81-1.8c10.92-10.75 26.9-10.75 34.74 0l1.31 1.8c11.59 16 31.2 16 51 0l2.25-1.8c13.61-10.75 29.59-10.75 34.74 0l.87 1.8a16.86 16.86 0 0 0 2.32 3.84q4.33-9.93 9.11-19.85c-8.59-13.32-32.17-12.43-51.53 2.56l-2.3 1.79c-13.68 10.76-27.86 10.76-35.7 0l-1.31-1.79c-11.33-16-36.65-16-53 0l-1.8 1.79c-11 10.76-25.14 10.76-35.7 0l-1.74-1.79c-15.6-16-40.91-16-53 0-.45.6-.91 1.19-1.37 1.79-8.23 10.76-22.42 10.76-35.7 0l-2.23-1.79c-19.87-16-45.18-16-53 0l-.91 1.79a13 13 0 0 1 -5.86 6.15q3.66 8.07 7.07 16.18a20.7 20.7 0 0 0 12-10.8z" fill-rule="evenodd"/><path d="m59.78 207.12c5.38-10.76 19.89-10.76 31.71 0 .65.59 1.31 1.19 2 1.79 17.14 16 35.24 16 46.61 0l1.27-1.79c7.64-10.76 22.15-10.76 31.72 0l1.59 1.79c14 16 32.07 16 46.6 0 .55-.6 1.09-1.2 1.64-1.79 9.9-10.76 24.4-10.76 31.72 0 .41.59.81 1.19 1.22 1.79 10.82 16 28.92 16 46.6 0l2-1.79c12.15-10.76 26.66-10.76 31.71 0 .29.59.58 1.19.86 1.79a18.23 18.23 0 0 0 2.25 3.84q3.61-9.93 7.64-19.85c-8.24-13.32-29.55-12.42-46.83 2.56l-2.09 1.79c-12.22 10.75-25.22 10.75-32.55 0l-1.15-1.79c-10.57-16-33.44-16-48.23 0l-1.62 1.79c-9.93 10.76-22.93 10.76-32.52 0-.54-.59-1.07-1.19-1.61-1.79-14.17-16-37-16-48.23 0l-1.27 1.79c-7.64 10.76-20.64 10.76-32.52 0l-2-1.79c-17.76-16-40.64-16-48.23 0-.29.6-.59 1.2-.88 1.79a13.18 13.18 0 0 1 -5.54 6.15q3.09 8.07 5.91 16.14a20.4 20.4 0 0 0 11.34-10.76z" fill-rule="evenodd"/><path d="m349.31 60.85c-19.1 10.76-38.17 10.76-48.45 0l-1.71-1.79c-14.9-16-49.62-16-71.91 0l-2.51 1.79c-15 10.76-34 10.76-48.44 0l-2.41-1.79c-21.28-16-56-16-71.92 0l-1.8 1.79c-10.85 10.76-29.92 10.76-48.46 0l-3.1-1.79c-27.66-16-62.38-16-71.92 0-.37.6-.74 1.19-1.1 1.79a15.06 15.06 0 0 1 -7.16 6q5.58 8.09 10.89 16.15c6.49-1.79 11.76-5.25 15-10.63.37-.6.75-1.2 1.13-1.79 6.74-10.76 28.55-10.76 47 0 1 .59 2 1.19 3.06 1.79 26.84 16 52.92 16 69 0 .6-.6 1.2-1.2 1.81-1.79 10.83-10.76 32.64-10.76 47 0 .8.59 1.59 1.19 2.38 1.79 21 16 47.08 16 69 0l2.48-1.79c14.91-10.76 36.72-10.76 47 0l1.71 1.79c15.14 16 41.22 16 69 0l3.12-1.79c19-10.76 40.82-10.76 47 0l1 1.79a30 30 0 0 0 2.63 3.71q6.68-10.08 13.81-20.08c-11-12.93-43.25-11.91-69.85 3z" fill-rule="evenodd"/><path d="m15.85 105.29c6.2-10.76 25.77-10.76 42.24 0l2.73 1.8c23.94 16 47.47 16 62 0l1.63-1.8c9.8-10.76 29.37-10.76 42.25 0l2.13 1.8c18.82 16 42.35 16 62 0l2.22-1.8c13.4-10.76 33-10.76 42.25 0l1.55 1.8c13.69 16 37.22 16 62 0l2.82-1.8c17-10.76 36.56-10.76 42.24 0 .33.6.66 1.2 1 1.8a19.15 19.15 0 0 0 2.53 3.71q5.81-10 12.07-20.11c-10-12.93-38.83-12-62.7 3l-2.87 1.79c-17.08 10.76-34.25 10.76-43.53 0-.51-.6-1-1.19-1.55-1.79-13.44-16-44.57-16-64.61 0-.76.6-1.51 1.19-2.25 1.79-13.45 10.76-30.62 10.76-43.54 0-.71-.6-1.43-1.19-2.16-1.79-19.07-16-50.21-16-64.61 0-.55.6-1.1 1.19-1.64 1.79-9.82 10.76-27 10.76-43.53 0l-2.78-1.79c-24.7-16-55.84-16-64.61 0-.35.6-.69 1.19-1 1.79a13.7 13.7 0 0 1 -6.84 6.1q4.92 8.07 9.55 16.14a22.9 22.9 0 0 0 14-10.76c.33-.56.65-1.11 1-1.67z" fill-rule="evenodd"/><path d="m367.37 26.14c-21.35 10.76-42.59 10.76-54 0l-1.93-1.79c-16.57-16-55.31-16-80.18 0l-2.79 1.79c-16.7 10.76-37.95 10.76-54 0l-2.69-1.79c-23.73-16-62.47-16-80.18 0l-2 1.79c-12.06 10.76-33.3 10.76-54 0l-3.52-1.79c-30.89-16-69.63-16-80.19 0-.41.6-.81 1.2-1.22 1.79a16.23 16.23 0 0 1 -7.94 6q6.33 8.07 12.27 16.14c7.21-1.79 13-5.25 16.62-10.63.41-.6.83-1.2 1.25-1.79 7.43-10.76 31.76-10.76 52.38 0 1.15.59 2.29 1.19 3.42 1.79 30 16 59 16 76.9 0l2-1.79c12-10.76 36.37-10.76 52.39 0l2.66 1.79c23.42 16 52.43 16 76.89 0 .92-.6 1.84-1.2 2.77-1.79 16.64-10.76 41-10.76 52.38 0l1.91 1.79c16.8 16 45.82 16 76.89 0 1.17-.6 2.34-1.2 3.52-1.79 21.25-10.76 45.58-10.76 52.39 0 .38.59.77 1.19 1.14 1.79a29.7 29.7 0 0 0 2.91 3.71q7.46-10.05 15.42-20.1c-12.16-12.94-48.14-11.91-77.84 2.94z" fill-rule="evenodd"/><path d="m240.2 435.54c-21.89-35.75-41.89-71.54-65.09-107.26h67.54c-2.21 35.72-2.92 71.51-2.45 107.26zm-109.95-214.62h-82.39c39.84 35.75 68.79 71.5 93.51 107.26-2.18-35.76-5.81-71.51-11.12-107.26zm13.35 161c-10.35 17.88-20.77 35.76-31.86 53.63h32.1q.34-26.81-.24-53.64zm-2.22-53.63c-10.15 17.88-19.95 35.76-30 53.63h32.25q-.63-26.81-2.25-53.64zm34.47 53.63c-10.61 17.88-21.08 35.76-32 53.63h32.09q.1-26.81-.09-53.64zm-.74-53.63c-10.88 17.88-21.16 35.76-31.51 53.63h32.25q-.19-26.81-.74-53.64zm-63.8 53.62c-10.09 17.88-20.46 35.76-31.7 53.63h32.09q.56-26.8-.39-53.63zm-3.71-53.63c-9.45 17.88-18.76 35.72-28.6 53.63h32.29q-1-26.81-3.74-53.63zm105-107.36h-41.16a601.5 601.5 0 0 1 38.9 53.63q.93-26.82 2.25-53.63zm-2.25 53.73h-36.62c12.83 17.88 24.31 35.76 35.19 53.63q.54-26.8 1.46-53.63zm43.39-53.73h-41.11c12.83 17.87 24 35.75 34.41 53.63q2.78-26.82 6.73-53.63zm-6.74 53.73h-36.62c11.6 17.88 22.12 35.76 32.27 53.63q1.66-26.8 4.38-53.63zm-73.38 0c-11.6 17.88-22.12 35.76-32.27 53.63h33.73q-.54-26.8-1.46-53.63zm-2.18-53.73c-12.82 17.87-24 35.75-34.41 53.63h36.61q-.91-26.82-2.25-53.63zm164.77 0h-82.44c22.13 35.75 39 71.5 56.44 107.26a573.07 573.07 0 0 1 26-107.26zm-31.15 161h-32.3c10.08 17.88 20.46 35.76 31.7 53.63q-.81-26.81.55-53.64zm5.18-53.63h-33.8c9.42 17.88 18.73 35.76 28.55 53.63q1.39-26.81 5.18-53.64zm-37.5 53.63h-32.3c10.35 17.88 20.78 35.76 31.86 53.63q-.57-26.81.4-53.64zm3.69-53.63h-33.78c10.15 17.88 20 35.76 30 53.63q1-26.81 3.73-53.64z" fill-rule="evenodd"/></g></svg>