<svg width="1249" height="820" fill="none" xmlns="http://www.w3.org/2000/svg"><path d="M66.077 245.475v48.605l23.365-3.076V162.128l-40.705 5.358c-22.087 2.908-39.975 20.176-39.975 45.399 0 19.147 10.222 31.058 24.642 34.314l-29.753 55.1 26.65-3.509 27.745-52.257 8.031-1.058zm-33.22-35.762c0-10.494 7.118-19.716 16.792-20.99l16.428-2.163v37.558l-16.428 2.163c-9.674 1.274-16.793-6.074-16.793-16.568zm148.94-8.378c0-23.566 9.309-33.444 28.475-37.441 12.23-2.53 25.008-7.158 35.595-13.891l-7.302-16.713c-9.492 5.115-16.793 7.734-30.483 10.825-30.118 6.727-46.546 21.409-46.546 79.035 0 37.558 13.69 58.401 43.808 54.436 25.92-3.412 44.903-21.745 44.903-52.307 0-31.298-16.61-44.393-39.427-41.389-12.047 1.586-20.991 8.471-28.475 17.373l-.548.072zm25.737 2.687c10.952-1.441 19.714 6.242 19.714 24.285s-9.674 27.97-21.904 29.58c-13.873 1.826-20.992-10.493-21.174-37.349 6.206-10.206 15.515-15.482 23.364-16.516zm168.833-44.688l-22.634 2.98v93.895l22.634-2.979v-93.896zm-80.68 44.129v-33.507l-22.634 2.979v93.896l36.507-4.806c20.078-2.643 33.221-15.42 33.221-34.383 0-18.964-13.143-28.648-33.221-26.005l-13.873 1.826zm12.047 17.378c7.484-.986 12.048 3.016 12.048 9.276s-4.564 11.463-12.048 12.449l-12.047 1.586v-21.725l12.047-1.586zm156.034-.659c-5.658 3.139-13.142 5.413-19.166 6.206-13.507 1.778-23.364-8.707-23.364-26.014 0-17.306 10.039-30.411 23.547-32.189 6.023-.793 12.412-.529 18.071 1.119l7.301-19.004c-7.849-2.28-17.706-2.824-26.468-1.67-30.118 3.965-45.451 27.708-45.451 54.772s16.246 46.651 46.364 42.685c9.492-1.249 18.619-4.292 26.468-8.823l-7.302-17.082zm14.557-54.572l28.658-3.772v74.196l22.452-2.956v-74.196l25.92-3.413 3.651-20.18-80.681 10.622v19.699zm116.968-26.997l-3.651-7.621-17.158 2.259v134.4l22.634-6.662v-38.295c6.024 1.233 13.508 1.536 21.357.503 27.745-3.653 39.792-25.675 39.792-54.028 0-28.353-11.865-47.227-38.15-43.767-9.674 1.274-18.07 6.43-24.094 13.114l-.73.097zm20.079 65.292c-6.754.89-13.143-.11-18.254-2.567v-44.002c5.111-6.381 11.317-10.696 17.523-11.513 13.69-1.802 20.627 9.252 20.627 26.374 0 18.411-7.667 30.098-19.896 31.708zm168.132-98.172l-22.634 2.98v93.896l22.634-2.98v-93.896zm-80.68 44.13v-33.508l-22.634 2.98v93.896l36.507-4.807c20.078-2.643 33.221-15.42 33.221-34.383s-13.143-28.648-33.221-26.004l-13.873 1.826zm12.047 17.377c7.484-.985 12.048 3.017 12.048 9.277 0 6.259-4.564 11.463-12.048 12.448l-12.047 1.586v-21.725l12.047-1.586zm154.756 21.051l22.635-2.98V91.415l-20.627 2.715-37.602 61.288-.547.073V99.153l-22.635 2.98v93.896l20.627-2.716 37.602-61.288.547-.072v56.338zm-.912-135.2c-3.833 8.789-9.674 13.792-17.158 14.778-7.484.985-13.325-2.665-17.159-10.26L820.526 68.64c6.936 11.422 17.706 16.632 31.031 14.878 13.325-1.754 24.094-9.616 31.03-23.049l-13.872-7.379zM72.466 477.238l22.634-2.98v-93.896l-20.626 2.716-37.602 61.288-.548.072V388.1l-22.634 2.98v93.896l20.626-2.716 37.602-61.287.548-.073v56.338zm151.407-18.092l23.181-4.893-29.023-44.784 27.198-48.872-22.999 3.028-21.539 38.553-8.214 1.082v-35.718l-22.635 2.98v93.896l22.635-2.98V422.96l8.031-1.057 23.365 37.244zm74.321-9.785c25.92-3.412 43.808-23.994 43.808-54.556 0-30.562-17.888-46.434-43.808-43.022-25.92 3.413-43.808 23.995-43.808 54.557s17.888 46.434 43.808 43.021zm0-77.878c12.047-1.586 20.809 8.123 20.809 26.35 0 18.227-8.762 30.243-20.809 31.829-12.047 1.586-20.809-8.123-20.809-26.35 0-18.227 8.762-30.243 20.809-31.829zm145.537 56.877l22.452-2.956-8.945-92.718-23.912 3.148-20.626 52.793-.73.096-20.626-47.362-23.912 3.148-8.945 95.074 22.452-2.956 4.381-56.362.73-.096 16.428 38.341 19.714-2.595 16.245-42.643.73-.096 4.564 55.184zm109.463-89.712c1.643-.584 4.199-1.289 6.937-1.649 13.142-1.731 18.983 9.283 18.983 26.59 0 17.306-5.841 29.858-18.983 31.588-2.738.361-5.294.329-6.937.177v-56.706zm-21.904 59.59c-1.825.608-4.198 1.289-6.936 1.649-13.143 1.73-18.984-9.284-18.984-26.59 0-17.306 5.841-29.858 18.984-31.588 2.738-.361 5.293-.329 6.936-.177v56.706zm22.269 16.583c2.373.056 5.111.248 9.492-.329 28.293-3.725 38.88-26.843 38.88-53.907 0-27.064-10.587-47.395-38.88-43.671-3.468.457-6.388 1.21-9.492 2.17V275.82l-22.634 7.214v39.031c-2.92-.167-5.476-.199-9.492.329-28.292 3.725-38.879 26.844-38.879 53.908s10.587 47.395 38.879 43.67c4.381-.576 7.119-1.489 9.492-2.17v39.584l22.634-7.215v-35.349zm108.634-13.381c25.92-3.412 43.808-23.994 43.808-54.556 0-30.563-17.888-46.434-43.808-43.022-25.92 3.412-43.808 23.994-43.808 54.557 0 30.562 17.888 46.433 43.808 43.021zm0-77.878c12.047-1.586 20.809 8.123 20.809 26.349 0 18.227-8.762 30.243-20.809 31.829-12.047 1.586-20.809-8.123-20.809-26.349 0-18.227 8.762-30.243 20.809-31.829zm86.578-21.156l-3.65-7.62-17.159 2.258v134.4l22.635-6.662v-38.294c6.023 1.232 13.507 1.535 21.356.502 27.745-3.653 39.793-25.675 39.793-54.028 0-28.353-11.865-47.227-38.15-43.766-9.674 1.273-18.071 6.429-24.095 13.114l-.73.096zM768.85 367.7c-6.754.889-13.142-.111-18.253-2.568V321.13c5.111-6.381 11.317-10.696 17.523-11.513 13.69-1.802 20.626 9.252 20.626 26.374 0 18.411-7.666 30.099-19.896 31.709zm52.975-63.312l28.658-3.773v74.196l22.451-2.956v-74.196l25.92-3.412 3.651-20.181-80.68 10.622v19.7zm172.64-42.428l-22.634 2.98v35.717l-31.213 4.109v-35.717l-22.635 2.98v93.895l22.635-2.979v-38.479l31.213-4.11v38.479l22.634-2.98V261.96zm130.755-17.215l-22.63 2.98v93.896l22.63-2.98v-93.896zm-80.68 44.13v-33.508l-22.63 2.98v93.896l36.5-4.807c20.08-2.643 33.22-15.42 33.22-34.383s-13.14-28.648-33.22-26.004l-13.87 1.826zm12.05 17.377c7.48-.985 12.05 3.017 12.05 9.277 0 6.259-4.57 11.463-12.05 12.448l-12.05 1.586v-21.725l12.05-1.586zm154.75 21.051l22.64-2.98v-93.896l-20.63 2.716-37.6 61.288-.55.072v-56.338l-22.63 2.98v93.896l20.62-2.716 37.61-61.288.54-.072v56.338zm-.91-135.2c-3.83 8.789-9.67 13.793-17.16 14.778-7.48.985-13.32-2.664-17.15-10.261l-13.88 11.032c6.94 11.422 17.71 16.632 31.03 14.878 13.33-1.754 24.1-9.616 31.03-23.048l-13.87-7.379z" fill="#fff"/><path d="M556.88 609.557v-107.52l47.276-6.224v107.52l23.365-3.076V471.381l-94.006 12.376v128.876l23.365-3.076zm138.1-16.34c25.92-3.412 43.808-23.994 43.808-54.556 0-30.563-17.888-46.434-43.808-43.022-25.92 3.412-43.808 23.994-43.808 54.557 0 30.562 17.888 46.433 43.808 43.021zm0-77.878c12.047-1.586 20.809 8.123 20.809 26.35 0 18.226-8.762 30.242-20.809 31.828-12.047 1.586-20.809-8.123-20.809-26.349 0-18.227 8.762-30.243 20.809-31.829zm107.57 44.017c-12.048 1.586-21.905-4.849-24.278-18.897l58.046-7.642c.731-5.252 1.096-11.743 1.096-14.321 0-26.328-15.151-39.614-39.428-36.418-26.285 3.461-42.713 23.482-42.713 54.412 0 30.747 18.801 46.314 46.181 42.709 11.865-1.562 23.182-6.366 32.126-12.146l-7.849-16.825c-6.388 4.155-15.515 8.118-23.181 9.128zm-23.912-36.436c2.19-12.44 10.039-19.917 19.713-21.19 11.865-1.562 18.436 5.489 18.436 16.168l-38.149 5.022zm132.226 41.875l23.364-4.917-31.031-44.151 29.206-49.504-25.007 3.292-17.159 32.269-.547.072-17.341-27.727-24.825 3.268 29.388 41.79-31.213 52.346 24.642-3.244 19.349-34.398.547-.072 20.627 30.976zm85.544-68.336l-17.341 2.283c-20.626 2.716-34.864 14.716-34.864 32.759 0 19.147 11.135 26.519 28.841 24.188 10.587-1.394 17.888-4.749 24.459-12.242l.73-.096c2.917 5.507 8.217 7.94 16.427 6.859 4.56-.601 10.22-2.083 12.96-3.548v-17.858l-2.01.264c-4.01.529-6.57-1.16-6.57-5.763v-35.717c0-19.516-7.66-33.603-36.139-29.854-11.865 1.562-22.635 5.005-33.769 10.705l6.753 17.522c8.58-4.259 16.976-7.206 24.825-8.239 11.135-1.466 15.698 3.456 15.698 12.478v6.259zm-19.714 39.97c-5.476.721-10.039-1.992-10.039-8.252 0-6.076 4.746-10.935 13.142-12.04l16.611-2.187v10.678c-4.928 6.356-12.23 10.816-19.714 11.801zm101.936-69.758l20.81-2.74v74.197l22.64-2.98v-93.896l-65.17 8.579v11.967c0 50.262-5.48 63.134-12.59 64.071-1.83.241-3.11.041-4.57-.504l-5.66 18.972c3.29 1.777 7.67 2.305 12.78 1.632 20.81-2.739 31.76-29.22 31.76-78.193v-1.105zm129.67 57.125l22.64-2.98V426.92l-20.63 2.716-37.6 61.288-.55.072v-56.338l-22.63 2.98v93.896l20.62-2.716 37.6-61.288.55-.072v56.338zM586.085 723.371v-.552c10.405-4.868 15.881-12.77 15.881-22.896 0-16.938-13.69-21.395-31.579-19.04l-38.697 5.095v93.895l42.348-5.575c21.174-2.787 31.761-14.307 31.761-30.509 0-12.335-7.666-19.058-19.714-20.418zm-16.975 12.177c8.579-1.13 13.69.775 13.69 7.771 0 6.996-5.111 10.799-13.69 11.928l-14.786 1.947v-19.7l14.786-1.946zm-3.103-34.388c7.301-.962 12.959.503 12.959 6.578 0 5.892-4.745 8.91-12.959 9.991l-11.683 1.538v-16.569l11.683-1.538zm141.531 55.563l22.451-2.956-8.944-92.718-23.912 3.148-20.626 52.793-.73.096-20.627-47.362-23.912 3.148-8.944 95.073 22.452-2.956 4.381-56.361.73-.097 16.428 38.342 19.714-2.596 16.245-42.643.73-.096 4.564 55.185zm86.099-29.194c-12.048 1.586-21.904-4.849-24.277-18.897l58.046-7.642c.73-5.251 1.095-11.743 1.095-14.321 0-26.327-15.151-39.614-39.428-36.418-26.285 3.461-42.713 23.482-42.713 54.413 0 30.746 18.801 46.313 46.182 42.709 11.864-1.562 23.181-6.366 32.126-12.146l-7.849-16.826c-6.389 4.155-15.516 8.119-23.182 9.128zm-23.912-36.436c2.19-12.439 10.039-19.916 19.713-21.19 11.865-1.562 18.436 5.49 18.436 16.168l-38.149 5.022zm140.741 17.373c-5.659 3.138-13.143 5.412-19.166 6.205-13.508 1.779-23.365-8.707-23.365-26.013s10.04-30.411 23.547-32.189c6.024-.793 12.413-.53 18.071 1.119l7.301-19.004c-7.848-2.281-17.705-2.824-26.467-1.671-30.118 3.965-45.451 27.709-45.451 54.773 0 27.064 16.246 46.65 46.364 42.685 9.491-1.25 18.618-4.292 26.467-8.824l-7.301-17.081zm14.557-54.572l28.658-3.773v74.196l22.452-2.956v-74.196l25.917-3.412 3.65-20.18-80.677 10.621v19.7zm135.287 38.527c-12.05 1.586-21.91-4.849-24.28-18.897l58.05-7.642c.73-5.251 1.09-11.743 1.09-14.32 0-26.328-15.15-39.615-39.43-36.418-26.28 3.46-42.71 23.481-42.71 54.412 0 30.746 18.8 46.314 46.18 42.709 11.87-1.562 23.18-6.366 32.13-12.146l-7.85-16.826c-6.39 4.155-15.52 8.119-23.18 9.128zm-23.91-36.435c2.19-12.44 10.04-19.917 19.71-21.191 11.86-1.562 18.44 5.49 18.44 16.168l-38.15 5.023z" fill="#FFD400"/></svg>