<svg fill="none" height="820" viewBox="0 0 1249 820" width="1249" xmlns="http://www.w3.org/2000/svg"><path d="m63.3394 247.229v46.764l27.0151-3.556v-128.877l-42.348 5.575c-22.0866 2.908-40.52259 20.616-40.52259 46.392 0 18.226 9.12669 29.913 22.08669 34.282l-26.83259 54.163 29.75309-3.918 23.5469-49.863zm0-57.073v32.955l-13.6901 1.802c-8.0315 1.058-14.4202-4.913-14.4202-14.487 0-9.573 6.3887-17.411 14.4202-18.468zm122.1086 6.385c.73-19.428 9.309-25.344 24.642-29.019 12.595-2.947 25.737-6.887 36.689-13.852l-8.214-20.828c-9.492 5.116-17.158 7.783-30.848 10.874-30.118 6.726-47.094 19.824-47.094 79.107 0 37.558 14.603 58.281 44.721 54.316 25.92-3.412 45.816-21.865 45.816-52.427 0-31.299-16.428-44.417-38.515-41.509-10.769 1.417-19.166 5.837-26.65 13.45zm22.086 10.716c9.127-1.201 16.976 5.498 16.976 20.963s-8.944 24.191-19.166 25.537c-11.5 1.514-18.253-9.564-18.436-33.29 5.476-7.533 13.142-12.224 20.626-13.21zm90.891-38.109-26.285 3.46v93.896l37.055-4.878c20.078-2.644 33.221-15.605 33.221-34.568s-13.143-28.463-33.221-25.82l-10.77 1.418zm78.855-10.382-26.285 3.461v93.896l26.285-3.461zm-70.824 63.269c5.477-.721 9.31 1.351 9.31 7.059 0 5.707-3.833 8.789-9.31 9.51l-8.031 1.058v-16.57zm138.511.175c-10.952 1.442-20.991-5.521-20.991-22.643s10.039-26.729 20.991-28.171c6.024-.793 11.865-.457 17.524.823l8.579-22.67c-7.849-2.281-19.349-2.424-28.111-1.271-27.015 3.557-45.633 23.13-45.633 54.797s18.618 46.338 45.633 42.781c10.405-1.369 21.174-4.996 29.023-9.528l-8.579-20.411c-5.293 2.906-11.317 5.356-18.436 6.293zm32.446-53.244 27.745-3.653v70.514l26.102-3.437v-70.514l25.008-3.292 3.65-23.862-82.505 10.862zm118.792-31.473-3.65-7.068-18.984 2.499v134.4l26.285-7.143v-37.926c5.294.96 11.135 1.48 17.341.663 27.745-3.653 41.983-26.332 41.983-54.317 0-27.984-13.143-47.058-39.428-43.598-9.857 1.298-16.975 6.47-22.816 12.394zm18.801 62.331c-5.658.745-10.587.289-15.15-1.503v-40.504c4.198-5.156 9.492-8.062 14.42-8.711 11.5-1.514 18.254 8.091 18.254 23.004 0 16.018-7.484 26.392-17.524 27.714zm90.556-84.277-26.285 3.461v93.896l37.055-4.879c20.078-2.643 33.221-15.604 33.221-34.567 0-18.964-13.143-28.464-33.221-25.821l-10.77 1.418zm78.855-10.381-26.285 3.46v93.896l26.285-3.46zm-70.823 63.268c5.476-.721 9.309 1.352 9.309 7.059 0 5.708-3.833 8.79-9.309 9.511l-8.032 1.057v-16.57zm118.796 24.312 34.499-54.988v50.446l26.285-3.461v-93.8954l-22.451 2.9558-34.499 55.1716v-50.6297l-26.285 3.4607v93.896zm35.777-139.2943c-3.833 8.7896-9.492 13.9532-16.61 14.8904-7.119.9372-12.778-2.7365-16.611-10.5167l-15.333 12.1446c7.301 12.2946 18.436 17.6408 31.944 15.8625 13.69-1.8024 24.642-9.8722 31.943-24.0893zm-832.9379 428.2423 34.499-54.988v50.446l26.2849-3.46v-93.896l-22.4517 2.956-34.499 55.172v-50.63l-26.2849 3.46v93.896zm210.9129-121.663-26.103 3.437-19.896 37.416-4.928.648v-34.796l-26.285 3.46v93.896l26.285-3.46v-37.559l4.928-.649 20.809 36.66 27.015-5.397-27.198-45.025zm52.052 88.884c27.015-3.556 44.721-23.01 44.721-54.676 0-31.667-17.706-46.458-44.721-42.902-27.015 3.557-44.721 23.01-44.721 54.677s17.706 46.458 44.721 42.901zm0-74.196c10.952-1.442 18.071 5.906 18.071 23.028s-7.119 26.344-18.071 27.786-18.071-5.906-18.071-23.028 7.119-26.344 18.071-27.786zm114.506 11.437-.548.072-17.888-45.698-27.745 3.653-8.944 95.073 26.102-3.436 4.016-51.527.547-.072 13.325 33.963 21.539-2.836 13.325-37.471.548-.072 4.016 50.469 26.102-3.436-8.944-92.718-27.563 3.628zm142.685 27.979c2.373.056 5.841.151 9.857-.377 28.292-3.725 37.602-26.676 37.602-53.74s-9.31-47.563-37.602-43.838c-4.016.528-7.484 1.537-9.857 2.218v-43.266l-26.285 7.143v39.583c-2.373-.055-5.841-.151-9.857.378-28.293 3.724-37.602 26.675-37.602 53.739s9.309 47.563 37.602 43.838c4.016-.528 7.484-1.537 9.857-2.218v39.584l26.285-7.143zm6.571-23.327c-2.921.385-5.293.329-7.301.041v-48.973c2.008-.817 4.38-1.497 7.301-1.882 10.404-1.37 14.42 8.596 14.42 23.509s-4.016 25.936-14.42 27.305zm-39.427 5.191c-10.405 1.37-14.421-8.596-14.421-23.509 0-14.912 4.016-25.935 14.421-27.305 2.92-.385 5.293-.329 7.301-.041v48.973c-2.19.841-4.381 1.498-7.301 1.882zm139.664 4.995c27.015-3.557 44.721-23.01 44.721-54.677s-17.706-46.458-44.721-42.901c-27.015 3.556-44.721 23.01-44.721 54.676 0 31.667 17.706 46.458 44.721 42.902zm0-74.196c10.952-1.442 18.071 5.906 18.071 23.028s-7.119 26.344-18.071 27.786-18.071-5.906-18.071-23.028 7.119-26.344 18.071-27.786zm87.491-25.511-3.651-7.068-18.983 2.499v134.4l26.285-7.142v-37.927c5.293.96 11.134 1.48 17.34.663 27.746-3.653 41.983-26.332 41.983-54.316 0-27.985-13.142-47.059-39.427-43.599-9.857 1.298-16.976 6.47-22.817 12.394zm18.801 62.331c-5.659.745-10.587.289-15.15-1.503v-40.504c4.198-5.156 9.491-8.062 14.42-8.711 11.499-1.514 18.253 8.091 18.253 23.004 0 16.018-7.484 26.393-17.523 27.714zm52.427-55.875 27.745-3.653v70.514l26.103-3.436v-70.514l25.007-3.292 3.651-23.863-82.506 10.862zm174.466-46.351-26.285 3.461v33.876l-25.737 3.388v-33.876l-26.285 3.461v93.895l26.285-3.46v-36.638l25.737-3.388v36.638l26.285-3.461zm51.902-6.833-26.29 3.461v93.896l37.06-4.879c20.08-2.643 33.22-15.604 33.22-34.567 0-18.964-13.14-28.464-33.22-25.821l-10.77 1.418zm78.85-10.381-26.28 3.46v93.896l26.28-3.46zm-70.82 63.268c5.48-.721 9.31 1.352 9.31 7.059 0 5.708-3.83 8.79-9.31 9.511l-8.03 1.057v-16.57zm118.8 24.312 34.5-54.988v50.446l26.28-3.461v-93.895l-22.45 2.956-34.5 55.171v-50.63l-26.28 3.461v93.896zm35.77-139.294c-3.83 8.789-9.49 13.953-16.61 14.89s-12.77-2.736-16.61-10.517l-15.33 12.145c7.3 12.295 18.44 17.641 31.94 15.863 13.69-1.803 24.65-9.873 31.95-24.09z" fill="#fff"/><path d="m559.618 608.749v-103.837l41.8-5.503v103.837l27.015-3.556v-128.877l-95.83 12.616v128.877zm135.362-15.979c27.015-3.557 44.721-23.01 44.721-54.677s-17.706-46.458-44.721-42.901c-27.015 3.556-44.721 23.01-44.721 54.676 0 31.667 17.706 46.458 44.721 42.902zm0-74.196c10.952-1.442 18.071 5.906 18.071 23.028s-7.119 26.344-18.071 27.786-18.071-5.906-18.071-23.028 7.119-26.344 18.071-27.786zm141.338 16.741c1.461-6.452 2.008-13.52 2.008-20.332 0-22.83-14.602-36.741-39.975-33.4-27.015 3.556-43.991 22.913-43.991 54.58s20.444 46.098 47.459 42.541c11.865-1.562 24.095-6.486 33.039-12.266l-9.492-19.923c-6.023 3.923-14.602 7.63-21.721 8.567-10.587 1.394-18.984-3.024-21.904-12.582zm-55.125-13.179c1.643-9.974 8.397-16.018 17.523-17.219 10.222-1.346 15.698 3.824 15.698 12.846zm126.933 42.573 27.015-5.398-29.936-44.296 28.11-49.36-28.657 3.773-14.421 28.411-.547.072-14.603-24.59-28.475 3.749 28.292 41.935-30.118 52.201 28.293-3.725 16.611-30.723.547-.072zm88.1-20.62c3.285 4.354 8.034 7.043 17.524 5.793 5.11-.672 11.68-3.379 14.78-5.812v-19.516l-2 .264c-4.02.529-6.58-1.16-6.58-5.762v-32.035c0-19.516-8.57-33.484-37.049-29.735-11.683 1.538-23.182 4.893-34.682 10.642l8.032 20.851c7.849-3.979 16.975-6.837 24.459-7.822 8.762-1.154 12.96 2.528 12.96 9.156v5.523l-15.88 2.091c-20.627 2.715-34.499 15.036-34.499 32.895 0 19.147 12.96 26.83 30.665 24.499 9.492-1.249 16.611-5.869 21.539-10.936zm-28.658-17.032c0-4.971 4.015-8.998 10.222-9.815l15.88-2.09v9.573c-4.563 4.652-10.952 7.886-16.793 8.655-5.476.721-9.309-1.536-9.309-6.323zm86.602-77.313v19.516c0 41.977-4.56 51.783-10.77 52.6-1.27.168-3.1.04-4.56-.688l-5.66 22.838c3.47 1.569 8.95 2.137 15.15 1.32 19.9-2.62 29.39-29.461 30.3-75.424l18.07-2.379v70.514l26.29-3.461v-93.895zm116.89 78.507 34.5-54.988v50.446l26.29-3.46v-93.896l-22.45 2.956-34.5 55.172v-50.631l-26.29 3.461v93.896zm-584.062 194c9.492-3.275 15.88-11.48 15.88-22.343 0-15.097-11.134-22.284-30.848-19.688l-41.253 5.431v93.895l44.174-5.815c21.174-2.788 31.761-14.308 31.761-31.246 0-11.414-7.119-18.394-19.714-19.497zm-15.15 13.225c5.111-.672 8.214 2.417 8.214 6.652 0 4.234-3.103 7.957-8.214 8.629l-14.786 1.947v-15.281zm4.38-26.168c0 3.867-2.738 6.989-6.571 7.493l-12.595 1.659v-13.256l12.595-1.658c3.833-.505 6.571 1.896 6.571 5.762zm100.279 5.209-.548.073-17.888-45.698-27.745 3.653-8.945 95.073 26.103-3.436 4.016-51.527.547-.072 13.325 33.963 21.539-2.836 13.325-37.472.548-.072 4.016 50.47 26.102-3.437-8.944-92.718-27.563 3.629zm150.899-11.028c1.46-6.452 2.007-13.521 2.007-20.333 0-22.829-14.602-36.74-39.975-33.4-27.015 3.557-43.99 22.914-43.99 54.581 0 31.666 20.444 46.097 47.459 42.54 11.864-1.562 24.094-6.486 33.038-12.266l-9.491-19.923c-6.024 3.923-14.603 7.63-21.722 8.567-10.587 1.394-18.984-3.024-21.904-12.581zm-55.126-13.179c1.643-9.974 8.397-16.019 17.524-17.22 10.221-1.346 15.697 3.825 15.697 12.846zm119.385 20.184c-10.952 1.442-20.992-5.522-20.992-22.644s10.04-26.728 20.992-28.17c6.023-.793 11.864-.458 17.523.823l8.579-22.671c-7.849-2.28-19.348-2.423-28.11-1.27-27.015 3.557-45.634 23.13-45.634 54.797s18.619 46.338 45.634 42.781c10.404-1.37 21.174-4.997 29.023-9.528l-8.579-20.412c-5.294 2.907-11.317 5.357-18.436 6.294zm32.445-53.245 27.745-3.653v70.514l26.103-3.436v-70.514l25.012-3.292 3.65-23.863-82.51 10.862zm169.97 11.132c1.46-6.452 2-13.521 2-20.333 0-22.829-14.6-36.74-39.97-33.4-27.02 3.557-43.99 22.914-43.99 54.581 0 31.666 20.44 46.097 47.46 42.541 11.86-1.562 24.09-6.487 33.04-12.267l-9.5-19.923c-6.02 3.923-14.6 7.63-21.72 8.567-10.58 1.394-18.98-3.024-21.9-12.581zm-55.13-13.179c1.64-9.974 8.4-16.018 17.52-17.22 10.23-1.346 15.7 3.825 15.7 12.846z" fill="#ffd400"/></svg>