<svg width="1280" height="640" fill="none" xmlns="http://www.w3.org/2000/svg"><path fill="#2E2E2E" d="M640 0h640v640H640z"/><path fill="#E8E8E8" d="M0 0h640v640H0z"/><path fill-rule="evenodd" clip-rule="evenodd" d="M455.343 477H185.657C168.624 477 162 470.376 162 453.343V183.657c0-17.033 6.624-23.657 23.657-23.657h269.686c17.119 0 23.657 6.624 23.657 23.657v269.686c0 17.033-6.624 23.657-23.657 23.657z" fill="#000"/><path d="M355.64 250.328l10.065 10.064-43.872 43.873-43.873-43.873 10.065-10.064 25.722 25.721h.43v-75.615h15.226v75.615h.43l25.807-25.721zM217.4 383.233v-51.184h16c9.119 0 16.001 3.355 16.001 12.301 0 6.71-4.044 10.495-8.689 11.7v.258c6.452 1.548 10.495 5.591 10.495 12.731 0 10.495-7.828 14.194-17.807 14.194h-16zm15.484-42.754h-6.108v12.388h6.108c4.473 0 6.882-2.495 6.882-6.194 0-3.785-2.409-6.194-6.882-6.194zm.086 20.474h-6.194v13.85h6.194c5.419 0 8.602-2.667 8.602-6.71.086-4.731-3.183-7.14-8.602-7.14zm42.41-1.721c8.086 0 13.334 4.559 13.334 12.043 0 7.57-5.248 11.957-13.334 11.957h-14.624v-37.334h9.032v13.334h5.592zm-5.506 7.57v8.602h4.818c3.011 0 4.817-1.806 4.817-4.301 0-2.494-1.806-4.301-4.817-4.301h-4.818zm32.259 16.43h-9.032v-37.334h9.032v37.334zm24.431-12.645h-.258l-7.742 12.646h-9.893l12.474-19.184-11.785-18.151h10.064l6.968 11.958h.258l6.882-11.958h9.979l-11.699 18.151 12.473 19.184-9.376.688-8.345-13.334zm20.905-6.021c0-12.129 7.14-19.355 17.548-19.355 10.409 0 17.549 7.226 17.549 19.355 0 12.13-7.14 19.356-17.549 19.356-10.322 0-17.548-7.226-17.548-19.356zm9.204 0c0 7.226 3.527 11.527 8.344 11.527 4.818 0 8.345-4.301 8.345-11.527 0-7.226-3.527-11.527-8.345-11.527-4.817 0-8.344 4.301-8.344 11.527zm33.463 10.838c3.699-6.537 4.646-12.817 4.646-25.376v-4.13h25.635v29.506h5.936l-1.463 17.119h-7.57v-9.29h-23.054v9.29h-7.571l-1.462-17.119h4.903zm13.334-21.677c0 8.258-.774 16-3.699 21.677h11.527v-21.677h-7.828zm-129.036 89.722l6.882-39.14h22.108l-2.065 5.333h-14.968l-1.893 10.925h13.334l-.946 5.334h-13.334l-2.15 12.129h16.086l-.86 5.333h-22.194v.086zm41.119-10.495h-.172l-8.516 10.495h-6.796l12.215-14.882-6.71-13.678h6.108l4.818 9.979h.172l7.742-9.979h6.624l-11.614 14.108 7.14 14.452-5.849.603-5.162-11.098zm16.689-13.161l1.979-4.904h9.893l-4.99 28.561h-5.85l4.13-23.657h-5.162zm10.409-16.689c1.979 0 3.613 1.548 3.613 3.527 0 1.978-1.634 3.441-3.613 3.441-1.978 0-3.527-1.549-3.527-3.441 0-1.893 1.549-3.527 3.527-3.527zm12.56 4.819l6.021-1.118-1.462 8.086h8.602l-1.978 4.903h-7.484l-2.753 15.485c-.086.43-.086.688-.086 1.032 0 2.064 1.376 2.753 3.269 2.753 1.376 0 2.581-.258 4.215-.775l.602 4.646c-2.15.688-4.215 1.032-6.28 1.032-4.473 0-7.57-1.721-7.57-6.538 0-.688.086-1.548.258-2.495l2.667-15.226h-4.903l.86-4.903h4.903l1.119-6.882zm637.205-142.912l25.974-24.119c-3.1-.683-6.24-1.09-9.41-1.216-13.002-.542-22.809-10.096-22.809-22.231h-28.26c0 21.904 14.275 40.573 34.505 47.566zm64.564 11.555l-14.62 13.584h16.52c0-4.594-.64-9.167-1.9-13.584zm-131.447-57.787h-28.268a50.543 50.543 0 0050.485 50.487v-28.27a22.238 22.238 0 01-22.217-22.217zm-67.84 92.096v28.27h18.501c13.425 0 23.764 1.823 31.683 4.403l22.67-21.062c-12.359-6.507-29.859-11.611-54.353-11.611h-18.501z" fill="#fff"/><path d="M960.999 158C873.326 158 802 229.326 802 316.999S873.326 476 960.999 476C1048.67 476 1120 404.672 1120 316.999S1048.67 158 960.999 158zm0 289.73a130.053 130.053 0 01-78.075-25.937l78.717-73.13a106.404 106.404 0 01-1.889-20.296v-16.528l-97.583 90.647a130.177 130.177 0 01-31.901-85.487c0-72.083 58.646-130.728 130.731-130.728a130.307 130.307 0 0150.101 9.982 130.322 130.322 0 0142.42 28.475l-79.67 74.013h41.53l55.88-51.911a129.923 129.923 0 0120.47 70.169c0 72.085-58.64 130.731-130.731 130.731z" fill="#E63223"/><path d="M1032.98 310.837v.002h-25.58v-.002h-7.31v-.026h-28.268v17.553c0 14.335 2.841 26.527 7.814 36.472a47.899 47.899 0 01-11.199-6.011l-20.941 19.454c13.471 11.573 32.222 18.51 52.442 18.511v.001c33.802 0 61.312-23.812 61.312-68.429v-17.525h-28.27z" fill="#fff"/></svg>