<svg width="1280" height="640" fill="none" xmlns="http://www.w3.org/2000/svg"><path d="M0 0h1280v640H0V0z" fill="#000"/><path d="M640 320C640 143.269 783.269 0 960 0c176.73 0 320 143.269 320 320s-143.27 320-320 320c-176.731 0-320-143.269-320-320z" fill="#DDD"/><path fill-rule="evenodd" clip-rule="evenodd" d="M658.413 546.22L382.38 70.294c-7.597-13-16.714-20.935-24.48-20.935-7.766 0-16.883 7.767-24.48 20.935L57.049 546.22c-7.091 12.155-8.78 23.467-4.39 30.895 4.22 7.26 14.688 11.48 28.87 11.48h552.573c14.182 0 24.649-4.22 28.87-11.48 4.22-7.428 2.701-18.571-4.559-30.895z" fill="#FC0"/><path d="M297.893 49.783v-.001C313.368 23.037 334.668 8.5 357.901 8.5c23.062 0 44.363 14.536 59.838 41.282h.001l276.202 475.926c14.623 25.212 16.263 51.522 4.39 71.925l-.001.001c-11.706 20.236-35.151 31.996-64.228 31.996H81.53c-29.245 0-52.52-11.759-64.228-31.995-11.708-20.405-10.233-46.717 4.389-71.927L297.892 49.783zM52.225 577.365l.003.005c4.358 7.496 15.065 11.729 29.301 11.729h552.574c14.235 0 24.94-4.232 29.3-11.726 4.532-7.669 2.73-19.199-4.387-31.568l-.001-.002L382.813 70.046h-.001c-3.819-6.536-8.073-11.817-12.346-15.47-4.265-3.647-8.598-5.713-12.565-5.713-4.048 0-8.38 2.02-12.629 5.649-4.254 3.634-8.466 8.917-12.285 15.536L56.617 545.97c-7.122 12.211-8.745 23.732-4.392 31.394z" fill="#000" stroke="#000"/><path d="M249.343 537.099l79.687-177.776 109.063-.507-172.88 178.283h-15.87z" fill="#000"/><path d="M423.067 220.043l-79.686 177.776-109.063.506 172.88-178.282h15.869z" fill="#000"/><path fill-rule="evenodd" clip-rule="evenodd" d="M1191.07 431.601H999.557c-7.111 0-9.757-2.646-9.757-9.757v-79.051c0-7.112 2.646-9.758 9.757-9.758h191.513c7.11 0 9.75 2.646 9.75 9.758v78.885c0 7.112-2.81 9.923-9.75 9.923z" fill="#fff"/><path d="M1039.25 409.44c-15.05 0-27.12-12.238-27.12-27.123 0-14.884 12.23-27.122 27.12-27.122 14.88 0 27.12 12.238 27.12 27.122 0 14.885-12.07 27.123-27.12 27.123zm0-45.976c-10.42 0-18.86 8.435-18.86 18.853 0 10.419 8.44 18.854 18.86 18.854s18.85-8.435 18.85-18.854c0-10.418-8.43-18.853-18.85-18.853zm124.2-5.62h-8.27v49.117h8.27v-49.117z" fill="#000"/><path fill-rule="evenodd" clip-rule="evenodd" d="M1191.07 307.566H999.557c-7.111 0-9.757-2.646-9.757-9.757v-79.052c0-7.111 2.646-9.757 9.757-9.757h191.513c7.11 0 9.75 2.646 9.75 9.757v78.886c0 7.111-2.64 9.923-9.75 9.923z" fill="#fff"/><path d="M1018.41 242.074c-1.65.993-3.14 1.489-5.13 1.489-5.45 0-7.93-4.135-7.93-9.592 0-5.458 2.48-9.592 7.93-9.592 1.66 0 3.15.331 4.8 1.158l-1.32 2.646c-1.16-.662-2.48-.827-3.48-.827-2.97 0-4.46 2.811-4.46 6.45 0 3.638 1.49 6.449 4.46 6.449 1.33 0 2.65-.33 3.81-.992l1.32 2.811zm11.58-6.945l-5.46 8.104h-2.98v-13.561h3.31v8.103l5.46-8.103h2.97v13.561h-3.3v-8.104zm15.87-5.457l-.49 2.811h-4.8v10.75h-3.31v-13.561h8.6zm13.07 13.561h-3.31v-5.458h-4.46v5.458h-3.31v-13.561h3.31v5.127h4.46v-5.127h3.31v13.561zm10.75-8.766c0-1.323-.66-2.15-2.32-2.15-1.16 0-2.31.331-3.64.662l-.99-2.646c1.66-.662 3.14-.827 4.96-.827 4.14 0 5.3 2.15 5.3 4.961v5.127c0 .661.33.992.99.992h.33v2.646c-.33.166-1.16.331-1.82.331-1.16 0-1.99-.496-2.32-1.323h-.16c-.99.992-1.99 1.323-3.47 1.323-2.65 0-4.14-1.323-4.14-3.969s1.99-3.969 5.13-3.969h2.48v-1.158h-.33zm0 4.962v-1.489h-2.48c-1.16 0-1.99.662-1.99 1.489 0 .826.66 1.323 1.49 1.323 1.16 0 2.15-.497 2.98-1.323zm11.9-6.614c0 7.111-1.65 10.584-4.63 10.584-.66 0-1.32-.165-1.81-.496l.82-2.646c.17.165.33.165.66.165 1 0 1.82-1.819 1.82-8.93v-1.654h9.43v13.561h-3.31v-10.75l-2.98.166zm-71.27 28.115h-1.16v5.457h-3.31v-13.561h3.31v5.127h1.16l3.14-5.127h3.31l-3.97 6.45 4.13 6.946-3.31.331-3.3-5.623zm26.46 1.654c0 2.315-1.49 3.803-4.63 3.803h-6.12v-13.561h5.62c2.65 0 4.63.827 4.63 3.308 0 1.488-.83 2.48-2.31 2.977 1.65.661 2.81 1.653 2.81 3.473zm-7.44-6.781v2.315h1.65c1.16 0 1.82-.33 1.82-1.157s-.83-1.158-1.82-1.158h-1.65zm0 4.961v2.812h2.15c1.32 0 1.98-.496 1.98-1.489 0-.992-.66-1.323-1.98-1.323h-2.15zm9.92-1.16c0-4.465 2.64-6.946 6.28-6.946 3.81 0 6.29 2.646 6.29 6.946 0 4.465-2.65 6.946-6.29 6.946-3.8.165-6.28-2.481-6.28-6.946zm3.31 0c0 2.646 1.32 4.135 2.97 4.135 1.82 0 2.98-1.489 2.98-4.135s-1.32-4.134-2.98-4.134c-1.82 0-2.97 1.488-2.97 4.134zm12.07 3.972c1.32-2.315 1.65-4.631 1.65-9.261v-1.489h9.26v10.75h2.15l-.49 6.119h-2.81v-3.308h-8.27v3.308h-2.82l-.49-6.119h1.82zm4.79-7.773c0 2.977-.33 5.788-1.32 7.773h4.14v-7.773h-2.82zm19.02 2.481l-5.45 8.103h-2.98v-13.561h3.31v8.104l5.45-8.104h2.98v13.561h-3.31v-8.103zm5.63-5.458h11.74l-.5 2.812h-3.8v10.749h-3.31v-10.749h-4.13v-2.812zm22.98 10.088l1.16 2.646c-1.32.662-2.98 1.158-4.63 1.158-3.97 0-6.61-2.646-6.61-6.946 0-4.465 2.31-6.946 6.11-6.946 3.48 0 5.79 2.15 5.79 5.954 0 .331 0 1.323-.16 1.984h-8.44c.33 1.985 1.82 3.143 3.48 3.143 1.15 0 2.48-.497 3.3-.993zm-1.32-4.796c0-1.488-.99-2.646-2.65-2.646-1.32 0-2.48.993-2.81 2.646h5.46zm10.92-2.151c0 7.111-1.66 10.584-4.64 10.584-.66 0-1.32-.165-1.81-.496l.82-2.646c.17.165.33.165.66.165 1 0 1.82-1.819 1.82-8.93v-1.654h9.43v13.561h-3.31v-10.749l-2.97.165zm15.71 4.961h-2.15v5.458h-3.31v-13.561h3.31v5.127h2.15c.49-3.473 2.64-5.458 5.95-5.458 3.8 0 5.95 2.646 5.95 6.946 0 4.465-2.31 6.946-5.95 6.946-3.47.331-5.62-1.819-5.95-5.458zm3.14-1.323c0 2.647.99 4.135 2.64 4.135 1.66 0 2.65-1.488 2.65-4.135 0-2.646-.99-4.134-2.65-4.134-1.65 0-2.64 1.488-2.64 4.134zm-127.18 25.138l-.82 4.961h-2.15l2.48-13.892h4.3c2.48 0 3.96 1.324 3.96 3.804 0 2.977-2.31 5.127-5.45 5.127h-2.32zm1.32-7.111l-.99 5.126h2.15c1.66 0 2.98-1.323 2.98-3.307 0-1.323-.66-1.985-1.99-1.985h-2.15v.166zm13.24 3.803c-.34-.165-.5-.165-1-.165-1.15 0-1.98 1.157-2.48 2.48l-.99 5.954h-1.98l1.81-10.088h1.49l.17 1.488c.66-.992 1.49-1.819 2.98-1.819.49 0 .82 0 1.32.166l-1.32 1.984zm.99 4.3c0-3.473 2.15-6.45 5.62-6.45 1.98 0 3.31.992 3.31 2.646 0 2.15-1.82 3.473-6.95 3.473 0 1.654.5 2.646 2.32 2.646.82 0 1.49-.331 2.48-.661l.66 1.488c-.99.496-2.15.827-3.47.827-2.81 0-3.97-1.488-3.97-3.969zm2.31-1.985c3.81 0 4.47-.827 4.47-1.653 0-.662-.66-.993-1.49-.993-1.32-.165-2.48.993-2.98 2.646zm14.39 2.648c0 1.984-1.82 3.307-4.3 3.307-1.16 0-2.31-.33-3.31-.661l1-1.654c.66.331 1.48.496 2.48.496.82 0 1.98-.496 1.98-1.488 0-.827-.83-1.158-1.82-1.489-.99-.33-2.31-1.157-2.31-2.811 0-1.985 1.65-2.977 3.97-2.977 1.15 0 2.31.165 3.14.662l-.99 1.488c-.83-.331-1.49-.496-2.32-.496-.99 0-1.82.331-1.82 1.158 0 .826.83 1.157 1.49 1.488 1.49.661 2.81 1.488 2.81 2.977zm8.77 0c0 1.984-1.82 3.307-4.3 3.307-1.16 0-2.32-.33-3.31-.661l.99-1.654c.66.331 1.49.496 2.48.496.83 0 1.99-.496 1.99-1.488 0-.827-.83-1.158-1.82-1.489-1-.33-2.32-1.157-2.32-2.811 0-1.985 1.66-2.977 3.97-2.977 1.16 0 2.32.165 3.14.662l-.99 1.488c-.83-.331-1.49-.496-2.31-.496-1 0-1.82.331-1.82 1.158 0 .826.82 1.157 1.48 1.488 1.49.661 2.82 1.488 2.82 2.977zm9.75-9.429l2.15-.33-.49 2.811h2.97l-.66 1.654h-2.64l-1 5.457v.331c0 .662.5.992 1.16.992.5 0 .99 0 1.49-.33l.17 1.653c-.83.166-1.49.331-2.15.331-1.66 0-2.65-.661-2.65-2.315v-.827l.99-5.457h-1.65l.33-1.654h1.65l.33-2.316zm10.42 2.316c2.65 0 3.81 1.489 3.81 3.969 0 3.473-2.15 6.45-5.63 6.45-2.48 0-3.8-1.323-3.8-3.969 0-3.473 2.15-6.45 5.62-6.45zm-1.49 8.765c1.99 0 3.31-1.984 3.31-4.63 0-1.654-.66-2.481-1.98-2.481-1.99 0-3.31 1.985-3.31 4.631 0 1.653.66 2.48 1.98 2.48zm21.67-8.104l-1.66 9.592h-1.32l-.16-.992c-.83.827-1.82 1.323-2.98 1.323-2.15 0-3.14-1.488-3.14-3.969 0-3.473 2.15-6.45 5.62-6.45 1.32-.165 2.48.166 3.64.496zm-7.44 5.623c0 1.489.49 2.481 1.65 2.481.99 0 1.82-.496 2.48-1.488l.99-5.293c-.49-.165-1.15-.33-1.82-.33-1.98 0-3.3 1.984-3.3 4.63zm12.57 3.806c-.67.165-1.16.331-1.66.331-1.49 0-2.15-.662-2.15-1.985v-.827l2.15-11.907 2.15-.331-2.15 12.238v.331c0 .496.17.662.66.662.33 0 .5 0 .83-.166l.17 1.654zm1.65-3.64c0-3.473 2.15-6.45 5.62-6.45 1.99 0 3.31.992 3.31 2.646 0 2.15-1.82 3.473-6.95 3.473 0 1.654.5 2.646 2.32 2.646.83 0 1.49-.331 2.48-.661l.66 1.488c-.99.496-2.15.827-3.47.827-2.81 0-3.97-1.488-3.97-3.969zm2.31-1.985c3.81 0 4.47-.827 4.47-1.653 0-.662-.66-.993-1.49-.993-1.32-.165-2.48.993-2.98 2.646zm14.06-2.315c-.33-.165-.49-.165-.99-.165-1.16 0-1.99 1.157-2.48 2.48l-.99 5.954h-1.99l1.82-10.088h1.49l.16 1.488c.67-.992 1.49-1.819 2.98-1.819.5 0 .83 0 1.32.166l-1.32 1.984zm3.47-4.466l2.15-.33-.49 2.811h2.98l-.67 1.654h-2.64l-.99 5.457v.331c0 .662.49.992 1.15.992.5 0 1 0 1.49-.33l.17 1.653c-.83.166-1.49.331-2.15.331-1.66 0-2.65-.661-2.65-2.315v-.827l.99-5.457H1114l.33-1.654h1.65l.33-2.316zm15.72 2.317c.82 0 1.65.165 2.15.496l.82-4.631 2.15-.331-2.64 14.884h-1.33l-.16-.992c-.83.827-1.82 1.323-3.14 1.323-2.15 0-3.31-1.323-3.31-3.969-.33-3.804 1.82-6.78 5.46-6.78zm.82 7.276l.83-4.961c-.5-.496-1.16-.662-2.15-.662-1.99 0-3.31 1.985-3.31 4.631 0 1.654.83 2.481 1.99 2.481 1.15 0 1.98-.497 2.64-1.489zm10.92-5.127c-.33-.165-.5-.165-.99-.165-1.16 0-1.99 1.157-2.49 2.48l-.99 5.954h-1.98l1.82-10.088h1.49l.16 1.488c.66-.992 1.49-1.819 2.98-1.819.49 0 .82 0 1.32.166l-1.32 1.984zm.99-.33l.66-1.654h3.47l-1.82 10.088h-1.98l1.49-8.434h-1.82zm3.64-5.789c.66 0 1.32.497 1.32 1.323 0 .827-.5 1.158-1.32 1.158-.66 0-1.33-.496-1.33-1.158 0-.661.67-1.323 1.33-1.323zm2.15 4.133h1.98l1.16 7.773 3.97-7.773h1.98l-5.12 10.088h-2.32l-1.65-10.088zm8.76 6.286c0-3.473 2.15-6.45 5.63-6.45 1.98 0 3.3.992 3.3 2.646 0 2.15-1.82 3.473-6.94 3.473 0 1.654.49 2.646 2.31 2.646.83 0 1.49-.331 2.48-.661l.67 1.488c-1 .496-2.15.827-3.48.827-2.64 0-3.97-1.488-3.97-3.969zm2.32-1.985c3.8 0 4.46-.827 4.46-1.653 0-.662-.66-.993-1.48-.993-1.33-.165-2.49.993-2.98 2.646zm14.06-2.315c-.34-.165-.5-.165-1-.165-1.15 0-1.98 1.157-2.48 2.48l-.99 5.954h-1.98l1.82-10.088h1.48l.17 1.488c.66-.992 1.49-1.819 2.98-1.819.49 0 .82 0 1.32.166l-1.32 1.984z" fill="#000"/><path fill-rule="evenodd" clip-rule="evenodd" d="M951.266 431.601H759.757c-7.111 0-9.757-2.646-9.757-9.757v-79.051c0-7.112 2.646-9.758 9.757-9.758h191.509c7.112 0 9.758 2.646 9.758 9.758v78.885c0 7.112-2.646 9.923-9.758 9.923z" fill="#D4000F"/><path d="M766.538 363.466c1.158.662 2.315.992 3.639.992 2.646 0 4.134-2.15 4.465-5.126h-6.45v-2.812h6.45c-.331-2.811-1.819-4.961-4.465-4.961-1.158 0-2.316.165-3.473.827l-1.323-2.646c1.819-.993 3.307-1.158 5.126-1.158 5.293 0 7.938 4.135 7.938 9.592 0 5.458-2.811 9.592-7.938 9.592-1.984 0-3.638-.496-5.292-1.488l1.323-2.812zm19.846-1.655h-1.158v5.457h-3.307v-13.561h3.307v5.127h1.158l3.142-5.127h3.308l-3.97 6.45 4.135 6.946-3.308.33-3.307-5.622zm18.357 4.961c-1.158.496-2.481.827-3.804.827-4.3 0-6.781-3.142-6.781-6.946 0-3.969 2.15-6.946 6.616-6.946 1.323 0 2.646.331 3.803.662l-.992 2.646a7.486 7.486 0 00-2.646-.497c-1.984 0-3.473 1.654-3.473 4.135s1.488 4.134 3.308 4.134c.827 0 1.984-.165 2.811-.496l1.158 2.481zm.992-13.065h11.742l-.496 2.811h-3.804v10.75h-3.307v-10.75h-4.135v-2.811zm17.199 1.16c.827-.827 2.15-1.488 3.473-1.488 3.804 0 5.458 2.977 5.458 6.946 0 4.134-1.819 6.946-5.788 6.946a9.656 9.656 0 01-3.143-.496v5.788l-3.307.496V353.71h2.481l.826 1.157zm5.623 5.623c0-2.48-.992-4.134-2.977-4.134-.826 0-1.819.496-2.48 1.323v6.284c.661.496 1.654.662 2.646.662 1.654.165 2.811-1.489 2.811-4.135zm15.877 3.305l1.158 2.646c-1.323.662-2.977 1.158-4.631 1.158-3.969 0-6.615-2.646-6.615-6.946 0-4.465 2.315-6.946 6.119-6.946 3.473 0 5.788 2.15 5.788 5.954 0 .33 0 1.323-.165 1.984h-8.435c.331 1.985 1.819 3.142 3.473 3.142 1.158 0 2.481-.496 3.308-.992zm-1.158-4.796c0-1.488-.992-2.646-2.646-2.646-1.323 0-2.481.992-2.811 2.646h5.457zm17.2 8.269h-3.308v-5.457h-4.465v5.457h-3.308v-13.561h3.308v5.127h4.465v-5.127h3.308v13.561zm15.049 0h-3.307v-5.457h-4.466v5.457h-3.307v-13.561h3.307v5.127h4.466v-5.127h3.307v13.561zm9.261-8.6c2.977 0 4.796 1.654 4.796 4.3s-1.984 4.3-4.796 4.3h-5.292v-13.561h3.308v4.796h1.984v.165zm-1.984 2.646v3.143h1.819c1.158 0 1.819-.662 1.819-1.489 0-.827-.661-1.488-1.819-1.488H882.8v-.166zm11.576 5.954h-3.307v-13.561h3.307v13.561zm12.569-8.103l-5.457 8.104h-2.977v-13.561h3.307v8.103l5.458-8.103h2.977v13.561h-3.308v-8.104zm1.819-10.088c-.992 1.819-2.646 2.646-4.465 2.646-1.984 0-3.473-.992-4.465-2.646l1.984-1.323c.497 1.158 1.323 1.819 2.481 1.819s1.985-.661 2.481-1.819l1.984 1.323zm-144.376 27.782h11.742l-.496 2.812h-3.804v10.749h-3.307v-10.749h-4.135v-2.812zm12.735 6.782c0-4.465 2.646-6.946 6.284-6.946 3.804 0 6.284 2.646 6.284 6.946 0 4.465-2.646 6.946-6.284 6.946-3.638.166-6.284-2.481-6.284-6.946zm3.472 0c0 2.646 1.324 4.135 2.977 4.135 1.82 0 2.977-1.489 2.977-4.135s-1.323-4.134-2.977-4.134c-1.819 0-2.977 1.488-2.977 4.134zm15.546-5.621c.827-.827 2.15-1.489 3.473-1.489 3.804 0 5.458 2.977 5.458 6.946 0 4.135-1.82 6.946-5.789 6.946a9.623 9.623 0 01-3.142-.496v5.788l-3.307.496v-19.349h2.48l.827 1.158zm5.788 5.623c0-2.481-.992-4.135-2.976-4.135-.827 0-1.82.496-2.481 1.323v6.285c.661.496 1.654.661 2.646.661 1.654.165 2.811-1.488 2.811-4.134zm17.365-1.161l-2.481 5.789h-2.811l-2.315-5.789h-.166l-.661 7.938h-3.308l1.323-13.561h3.473l2.977 7.277h.165l2.977-7.277h3.473l1.323 13.561h-3.307l-.662-7.938zm6.284 1.159c0-4.465 2.647-6.946 6.285-6.946 3.804 0 6.284 2.646 6.284 6.946 0 4.465-2.646 6.946-6.284 6.946-3.638.166-6.285-2.481-6.285-6.946zm3.308 0c0 2.646 1.323 4.135 2.977 4.135 1.819 0 2.977-1.489 2.977-4.135s-1.323-4.134-2.977-4.134-2.977 1.488-2.977 4.134zm19.019-.329c1.819.496 2.811 1.654 2.811 3.307 0 2.481-1.984 3.969-5.788 3.969-1.488 0-3.473-.33-4.631-.826l.993-2.646c.826.33 2.315.661 3.473.661 1.488 0 2.48-.496 2.48-1.488 0-.993-.827-1.489-2.646-1.489h-1.654v-2.646h1.654c1.158 0 1.985-.331 1.985-1.323 0-.827-.662-1.323-1.985-1.323-.992 0-2.315.165-3.473.496l-.992-2.646c1.323-.496 3.473-.827 4.796-.827 2.977 0 4.961 1.158 4.961 3.473.331 1.654-.331 2.812-1.984 3.308zm-82.359 30.263l2.481-13.891h7.772l-.661 1.984h-5.292l-.662 3.804h4.796l-.33 1.984h-4.796l-.827 4.3h5.788l-.331 1.985h-7.938v-.166zm24.807-7.607c0 .331 0 .827-.165 1.323l-1.158 6.285h-1.985l1.158-6.119v-.827c0-.992-.496-1.489-1.489-1.489-.661 0-1.488.497-1.984.993l-1.323 7.607h-1.985l1.158-6.119v-.992c0-.992-.496-1.489-1.323-1.489s-1.654.662-2.315 1.489l-1.323 7.111h-1.985l1.819-10.088h1.489l.165.992c.992-.827 1.819-1.323 2.812-1.323 1.157 0 1.984.331 2.315 1.323.992-.827 1.984-1.323 3.142-1.323 1.985 0 2.977.827 2.977 2.646zm1.488 3.804c0-3.473 2.15-6.45 5.623-6.45 1.985 0 3.308.993 3.308 2.646 0 2.15-1.819 3.473-6.946 3.473 0 1.654.496 2.646 2.315 2.646.827 0 1.489-.33 2.481-.661l.661 1.488a7.689 7.689 0 01-3.473.827c-2.646 0-3.969-1.488-3.969-3.969zm2.481-1.984c3.804 0 4.465-.827 4.465-1.654 0-.662-.661-.993-1.488-.993-1.489-.165-2.646.993-2.977 2.647zm13.892-2.316c-.331-.165-.496-.165-.993-.165-1.157 0-1.984 1.157-2.48 2.481l-.992 5.953h-1.985l1.819-10.088h1.489l.165 1.488c.662-.992 1.488-1.819 2.977-1.819.496 0 .827 0 1.323.166l-1.323 1.984zm6.946 8.435l.165-1.324c-.992.827-1.819 1.158-2.811 1.158-2.316 0-3.308-1.323-3.308-3.969 0-3.473 2.15-6.45 5.788-6.45 1.323 0 2.646.166 3.969.827l-1.819 9.923c-.496 2.646-2.315 3.969-5.126 3.969-1.323 0-2.316-.331-3.473-.827l.992-1.654c.827.496 1.654.827 2.811.827 1.489-.165 2.481-.827 2.812-2.48zm-3.804-4.3c0 1.653.662 2.48 1.985 2.48.827 0 1.819-.496 2.48-1.323l.993-5.292c-.662-.331-1.158-.331-1.985-.331-2.15-.165-3.473 1.82-3.473 4.466zm8.93.165c0-3.473 2.15-6.45 5.623-6.45 1.985 0 3.308.993 3.308 2.646 0 2.15-1.819 3.473-6.946 3.473 0 1.654.496 2.646 2.315 2.646.827 0 1.489-.33 2.481-.661l.662 1.488a7.692 7.692 0 01-3.473.827c-2.646 0-3.97-1.488-3.97-3.969zm2.316-1.984c3.804 0 4.465-.827 4.465-1.654 0-.662-.662-.993-1.488-.993-1.323-.165-2.481.993-2.977 2.647zm9.426 5.787h-1.984l1.819-10.088h1.488l.166.992c.992-.827 1.984-1.323 2.977-1.323 1.819 0 2.811.993 2.811 2.646 0 .331 0 .827-.165 1.323l-1.158 6.285h-1.985l1.158-6.119v-.993c0-.992-.496-1.488-1.488-1.488-.827 0-1.819.662-2.481 1.488l-1.158 7.277zm8.931-3.803c0-3.638 2.315-6.45 5.788-6.45.992 0 1.985.166 2.811.496l-.992 1.654c-.661-.331-1.323-.496-2.15-.496-1.819 0-3.473 1.985-3.473 4.631 0 1.653.993 2.48 2.15 2.48.662 0 1.654-.165 2.316-.496l.496 1.654c-.827.331-1.985.662-3.142.662-2.316-.166-3.804-1.654-3.804-4.135zm8.765 6.12c.331.165.661.33.992.33.496 0 .993-.165 1.489-1.157l.661-1.489h-.661l-1.82-10.088h1.985l1.323 7.938 3.969-7.938h2.15l-5.954 12.073c-.992 1.984-2.315 2.481-3.307 2.481-.662 0-1.323-.166-1.654-.331l.827-1.819zm19.184-2.151c-1.323 0-2.646-.165-3.969-.827l2.48-13.892 2.15-.331-.992 5.789c.992-.827 1.819-1.323 2.812-1.323 2.15 0 3.307 1.488 3.307 3.969-.165 3.638-2.15 6.615-5.788 6.615zm1.654-8.765c-.827 0-1.819.661-2.481 1.488l-.992 5.292c.661.331 1.323.331 2.15.331 1.984 0 3.307-1.984 3.307-4.631-.165-1.653-.827-2.48-1.984-2.48zm11.907.496c-.331-.165-.496-.165-.992-.165-1.158 0-1.985 1.157-2.481 2.481l-.992 5.953h-1.985l1.819-10.088h1.489l.165 1.488c.662-.992 1.489-1.819 2.977-1.819.496 0 .827 0 1.323.166l-1.323 1.984zm10.419-1.487l-1.654 9.592h-1.323l-.165-.992c-.827.827-1.82 1.323-2.977 1.323-2.15 0-3.142-1.488-3.142-3.969 0-3.473 2.149-6.45 5.622-6.45 1.323-.165 2.481.166 3.639.496zm-7.442 5.623c0 1.489.496 2.481 1.654 2.481.992 0 1.819-.496 2.48-1.488l.993-5.293c-.497-.165-1.158-.33-1.82-.33-1.984 0-3.307 1.984-3.307 4.63zm16.042-6.119h2.15l-4.135 4.961c.496 1.985 1.488 3.638 2.811 5.127l-2.315.165c-1.158-1.323-1.819-2.811-2.315-4.63h-1.158l-.827 4.299h-1.984l2.48-14.553 2.15-.331-1.488 8.765h.992l3.639-3.803zm1.984 6.283c0-3.473 2.15-6.45 5.623-6.45 1.985 0 3.308.993 3.308 2.646 0 2.15-1.82 3.473-6.946 3.473 0 1.654.496 2.646 2.315 2.646.827 0 1.488-.33 2.481-.661l.661 1.488a7.689 7.689 0 01-3.473.827c-2.811 0-3.969-1.488-3.969-3.969zm2.315-1.984c3.804 0 4.466-.827 4.466-1.654 0-.662-.662-.993-1.489-.993-1.323-.165-2.48.993-2.977 2.647z" fill="#fff"/><path fill-rule="evenodd" clip-rule="evenodd" d="M951.266 307.566H759.757c-7.111 0-9.757-2.646-9.757-9.757v-79.052c0-7.111 2.646-9.757 9.757-9.757h191.509c7.112 0 9.758 2.646 9.758 9.757v78.886c0 7.111-2.646 9.923-9.758 9.923z" fill="#D4000F"/><path d="M775.138 239.264h-5.954l-1.157 3.969h-3.639l6.119-18.522h3.142l6.12 18.522h-3.639l-.992-3.969zm-5.127-3.142h4.135l-1.985-6.78h-.165l-1.985 6.78zm22.988 3.309c0 2.315-1.489 3.804-4.631 3.804h-6.119v-13.561h5.623c2.646 0 4.631.827 4.631 3.307 0 1.489-.827 2.481-2.316 2.977 1.654.662 2.812 1.654 2.812 3.473zm-7.442-6.78v2.315h1.654c1.157 0 1.819-.331 1.819-1.158s-.827-1.157-1.819-1.157h-1.654zm0 4.961v2.811h2.15c1.323 0 1.984-.496 1.984-1.488s-.661-1.323-1.984-1.323h-2.15zm17.199-3.143c0-1.323-.661-2.15-2.315-2.15-1.158 0-2.315.331-3.638.662l-.993-2.646c1.654-.662 3.142-.827 4.962-.827 4.134 0 5.292 2.15 5.292 4.961v5.127c0 .661.331.992.992.992h.331v2.646c-.331.166-1.158.331-1.819.331-1.158 0-1.985-.496-2.316-1.323h-.165c-.992.992-1.984 1.323-3.473 1.323-2.646 0-4.134-1.323-4.134-3.969s1.984-3.969 5.126-3.969h2.481v-1.158h-.331zm0 4.962v-1.489h-2.48c-1.158 0-1.985.662-1.985 1.489 0 .826.662 1.323 1.488 1.323 1.323 0 2.316-.497 2.977-1.323zm10.419-8.599c.827-.827 2.15-1.488 3.473-1.488 3.804 0 5.458 2.977 5.458 6.946 0 4.134-1.82 6.946-5.789 6.946a9.623 9.623 0 01-3.142-.497v5.789l-3.308.496v-19.349h2.481l.827 1.157zm5.623 5.623c0-2.481-.992-4.134-2.977-4.134-.827 0-1.819.496-2.481 1.323v6.284c.662.496 1.654.662 2.647.662 1.653.165 2.811-1.489 2.811-4.135zm15.05-1.324l-5.458 8.104h-2.977v-13.561h3.308v8.103l5.457-8.103h2.977v13.561h-3.307v-8.104zm15.711.001l-5.458 8.103h-2.977v-13.561h3.308v8.104l5.457-8.104h2.977v13.561h-3.307v-8.103zm1.984-10.088c-.992 1.819-2.646 2.646-4.465 2.646-1.985 0-3.473-.992-4.465-2.646l1.984-1.323c.496 1.157 1.323 1.819 2.481 1.819s1.984-.662 2.481-1.819l1.984 1.323zm16.373 18.191h-3.308v-5.458h-4.465v5.458h-3.308v-13.561h3.308v5.127h4.465v-5.127h3.308v13.561zm3.142-6.781c0-4.466 2.646-6.946 6.284-6.946 3.804 0 6.285 2.646 6.285 6.946 0 4.465-2.646 6.946-6.285 6.946-3.638.165-6.284-2.481-6.284-6.946zm3.307 0c0 2.646 1.323 4.134 2.977 4.134 1.819 0 2.977-1.488 2.977-4.134 0-2.646-1.323-4.135-2.977-4.135s-2.977 1.489-2.977 4.135zm21.996 3.308l1.157 2.646c-1.323.662-2.976 1.158-4.63 1.158-3.969 0-6.615-2.646-6.615-6.946 0-4.465 2.315-6.946 6.119-6.946 3.473 0 5.788 2.15 5.788 5.953 0 .331 0 1.324-.165 1.985h-8.435c.331 1.985 1.819 3.142 3.473 3.142 1.158 0 2.481-.496 3.308-.992zm-1.323-4.796c0-1.488-.992-2.646-2.646-2.646-1.323 0-2.481.992-2.812 2.646h5.458zm-129.823 24.642c0-4.465 2.646-6.946 6.285-6.946 3.803 0 6.284 2.646 6.284 6.946 0 4.465-2.646 6.946-6.284 6.946-3.639.165-6.285-2.481-6.285-6.946zm3.308 0c0 2.646 1.323 4.135 2.977 4.135 1.819 0 2.976-1.489 2.976-4.135s-1.323-4.134-2.976-4.134c-1.654 0-2.977 1.488-2.977 4.134zm22.326 6.283c-1.158.496-2.481.827-3.804.827-4.3 0-6.78-3.142-6.78-6.946 0-3.969 2.15-6.946 6.615-6.946 1.323 0 2.646.331 3.804.662l-.993 2.646a7.484 7.484 0 00-2.646-.496c-1.984 0-3.473 1.653-3.473 4.134 0 2.481 1.489 4.135 3.308 4.135.827 0 1.984-.166 2.811-.497l1.158 2.481zm13.396-3.307c0 2.315-1.489 3.803-4.631 3.803h-6.119v-13.561h5.623c2.646 0 4.631.827 4.631 3.308 0 1.488-.827 2.48-2.316 2.977 1.654.661 2.812 1.653 2.812 3.473zm-7.442-6.781v2.315h1.653c1.158 0 1.82-.33 1.82-1.157s-.827-1.158-1.82-1.158h-1.653zm0 4.961v2.812h2.15c1.323 0 1.984-.496 1.984-1.489 0-.992-.661-1.323-1.984-1.323h-2.15zm20.011 2.15l1.157 2.646c-1.323.662-2.977 1.158-4.631 1.158-3.969 0-6.615-2.646-6.615-6.946 0-4.465 2.316-6.946 6.119-6.946 3.473 0 5.789 2.15 5.789 5.954 0 .331 0 1.323-.166 1.984h-8.434c.331 1.985 1.819 3.143 3.473 3.143.992 0 2.315-.497 3.308-.993zm-1.324-4.796c0-1.488-.992-2.646-2.646-2.646-1.323 0-2.48.993-2.811 2.646h5.457zm16.208 5.458h3.473v-10.75h3.307v10.75h2.15l-.496 6.119h-2.812v-3.308h-15.545v-13.561h3.308v10.75h3.472v-10.75h3.308v10.75h-.165zm20.341-.662l1.158 2.646c-1.323.662-2.977 1.158-4.631 1.158-3.969 0-6.615-2.646-6.615-6.946 0-4.465 2.315-6.946 6.119-6.946 3.473 0 5.788 2.15 5.788 5.954 0 .331 0 1.323-.165 1.984h-8.434c.33 1.985 1.819 3.143 3.473 3.143 1.157 0 2.48-.497 3.307-.993zm-1.323-4.796c0-1.488-.992-2.646-2.646-2.646-1.323 0-2.481.993-2.811 2.646h5.457zm17.365 8.269h-3.308v-5.457h-4.465v5.457h-3.307v-13.561h3.307v5.127h4.465v-5.127h3.308v13.561zm12.403-8.103l-5.457 8.103h-2.977v-13.561h3.308v8.104l5.457-8.104h2.977v13.561h-3.308v-8.103zm16.704 4.63l1.157 2.646c-1.323.662-2.976 1.158-4.63 1.158-3.969 0-6.615-2.646-6.615-6.946 0-4.465 2.315-6.946 6.119-6.946 3.473 0 5.788 2.15 5.788 5.954 0 .331 0 1.323-.165 1.984h-8.435c.331 1.985 1.819 3.143 3.473 3.143.992 0 2.315-.497 3.308-.993zm-1.323-4.796c0-1.488-.993-2.646-2.646-2.646-1.323 0-2.481.993-2.812 2.646h5.458zm-130.319 31.424l2.481-13.892h7.773l-.662 1.985h-5.292l-.662 3.804h4.796l-.331 1.984h-4.795l-.827 4.3h5.788l-.331 1.985h-7.938v-.166zm24.807-7.609c0 .331 0 .827-.166 1.323l-1.157 6.285h-1.985l1.158-6.119v-.827c0-.993-.496-1.489-1.489-1.489-.661 0-1.488.496-1.984.993l-1.323 7.607h-1.985l1.158-6.119v-.992c0-.993-.496-1.489-1.323-1.489s-1.654.662-2.315 1.489l-1.323 7.111h-1.985l1.819-10.088h1.489l.165.992c.992-.827 1.819-1.323 2.811-1.323 1.158 0 1.985.331 2.316 1.323.992-.827 1.984-1.323 3.142-1.323 1.985 0 2.977.827 2.977 2.646zm1.488 3.804c0-3.473 2.15-6.45 5.623-6.45 1.985 0 3.308.992 3.308 2.646 0 2.15-1.819 3.473-6.946 3.473 0 1.654.496 2.646 2.315 2.646.827 0 1.489-.331 2.481-.661l.661 1.488a7.689 7.689 0 01-3.473.827c-2.646 0-3.969-1.488-3.969-3.969zm2.316-1.985c3.803 0 4.465-.827 4.465-1.653 0-.662-.662-.993-1.489-.993-1.323-.165-2.48.993-2.976 2.646zm14.057-2.315c-.331-.165-.496-.165-.992-.165-1.158 0-1.985 1.157-2.481 2.48l-.992 5.954h-1.985l1.819-10.088h1.488l.166 1.488c.662-.992 1.488-1.819 2.977-1.819.496 0 .827 0 1.323.165l-1.323 1.985zm6.946 8.434l.165-1.323c-.992.827-1.819 1.158-2.811 1.158-2.316 0-3.308-1.323-3.308-3.969 0-3.473 2.15-6.45 5.788-6.45 1.323 0 2.646.165 3.969.827l-1.819 9.923c-.496 2.646-2.315 3.969-5.126 3.969-1.323 0-2.316-.331-3.473-.827l.992-1.654c.827.496 1.654.827 2.811.827 1.489-.165 2.481-.827 2.812-2.481zm-3.969-4.299c0 1.653.661 2.48 1.984 2.48.827 0 1.819-.496 2.481-1.323l.992-5.292c-.661-.331-1.158-.331-1.984-.331-1.985-.165-3.473 1.819-3.473 4.466zm9.095.165c0-3.473 2.15-6.45 5.623-6.45 1.985 0 3.308.992 3.308 2.646 0 2.15-1.819 3.473-6.946 3.473 0 1.654.496 2.646 2.315 2.646.827 0 1.489-.331 2.481-.661l.662 1.488a7.692 7.692 0 01-3.473.827c-2.812 0-3.97-1.488-3.97-3.969zm2.316-1.985c3.804 0 4.465-.827 4.465-1.653 0-.662-.662-.993-1.488-.993-1.323-.165-2.481.993-2.977 2.646zm9.426 5.79h-1.984l1.819-10.088h1.488l.166.992c.992-.827 1.984-1.323 2.977-1.323 1.819 0 2.811.992 2.811 2.646 0 .331 0 .827-.165 1.323l-1.158 6.285h-1.985l1.158-6.119v-.993c0-.992-.496-1.488-1.488-1.488-.827 0-1.82.661-2.481 1.488l-1.158 7.277zm8.931-3.805c0-3.638 2.315-6.45 5.788-6.45.992 0 1.985.165 2.811.496l-.992 1.654c-.661-.331-1.323-.496-2.15-.496-1.819 0-3.473 1.984-3.473 4.631 0 1.653.993 2.48 2.15 2.48.662 0 1.654-.165 2.316-.496l.496 1.654c-.827.331-1.985.661-3.143.661-2.48-.165-3.803-1.653-3.803-4.134zm8.6 6.12c.33.165.661.33.992.33.496 0 .992-.165 1.488-1.157l.662-1.489h-.662l-1.819-10.088h1.985l1.323 7.938 3.969-7.938h2.15l-5.954 12.073c-.992 1.984-2.315 2.48-3.308 2.48-.661 0-1.323-.165-1.653-.33l.827-1.819zm19.349-2.482c-.662.165-1.158.331-1.654.331-1.488 0-2.15-.662-2.15-1.985v-.827l2.15-11.907 2.15-.331-2.15 12.238v.331c0 .496.165.662.661.662.331 0 .497 0 .827-.166l.166 1.654zm1.488-8.266l.662-1.654h3.473l-1.819 10.088h-1.985l1.489-8.434h-1.82zm3.804-5.789c.662 0 1.323.496 1.323 1.323s-.496 1.158-1.323 1.158c-.661 0-1.323-.496-1.323-1.158 0-.661.662-1.323 1.323-1.323zm7.773 14.551l.165-1.323c-.992.827-1.819 1.158-2.811 1.158-2.316 0-3.308-1.323-3.308-3.969 0-3.473 2.15-6.45 5.788-6.45 1.323 0 2.647.165 3.97.827l-1.82 9.923c-.496 2.646-2.315 3.969-5.126 3.969-1.323 0-2.316-.331-3.473-.827l.992-1.654c.827.496 1.654.827 2.811.827 1.654-.165 2.646-.827 2.812-2.481zm-3.804-4.299c0 1.653.662 2.48 1.985 2.48.827 0 1.819-.496 2.48-1.323l.993-5.292c-.662-.331-1.158-.331-1.985-.331-1.984-.165-3.473 1.819-3.473 4.466zm12.073-3.143l-1.323 7.111h-1.985l2.481-14.553 2.15-.331-.992 5.789c.826-.827 1.984-1.324 2.976-1.324 1.819 0 2.646.827 2.646 2.647 0 .33 0 .826-.165 1.323l-1.158 6.284h-1.984l.992-6.119c0-.331.165-.662.165-.992 0-.993-.496-1.489-1.488-1.489-.662.166-1.654.827-2.315 1.654zm10.088-5.458l2.15-.33-.496 2.811h2.976l-.661 1.654h-2.646l-.992 5.457v.331c0 .662.496.992 1.157.992.496 0 .993 0 1.489-.33l.165 1.653c-.827.166-1.488.331-2.15.331-1.654 0-2.646-.661-2.646-2.315v-.827l.992-5.458h-1.653l.33-1.653h1.654l.331-2.316zm11.742 9.429c0 1.984-1.819 3.307-4.3 3.307-1.158 0-2.315-.33-3.308-.661l.993-1.654c.661.331 1.488.496 2.48.496.827 0 1.985-.496 1.985-1.488 0-.827-.827-1.158-1.819-1.489-.993-.33-2.316-1.157-2.316-2.811 0-1.985 1.654-2.977 3.97-2.977 1.157 0 2.315.165 3.142.662l-.992 1.488c-.827-.331-1.489-.496-2.316-.496-.992 0-1.819.331-1.819 1.157 0 .827.827 1.158 1.488 1.489 1.323.661 2.812 1.488 2.812 2.977z" fill="#fff"/></svg>