<svg fill="none" height="640" viewBox="0 0 1280 640" width="1280" xmlns="http://www.w3.org/2000/svg"><path d="m0 0h1280v640h-1280z" fill="#000"/><path d="m640 320c0-176.731 143.269-320 320-320 176.73 0 320 143.269 320 320 0 176.731-143.27 320-320 320-176.731 0-320-143.269-320-320z" fill="#ddd"/><path clip-rule="evenodd" d="m658.413 546.22-276.033-475.926c-7.597-12.9997-16.714-20.9346-24.48-20.9346s-16.883 7.7661-24.48 20.9346l-276.3712 475.926c-7.0908 12.155-8.7791 23.467-4.3896 30.895 4.2207 7.26 14.6881 11.48 28.8696 11.48h552.5732c14.182 0 24.649-4.22 28.87-11.48 4.22-7.428 2.701-18.571-4.559-30.895z" fill="#fc0" fill-rule="evenodd"/><path d="m297.893 49.7826v-.0006c15.475-26.7449 36.775-41.282 60.008-41.282 23.062 0 44.363 14.5363 59.838 41.282l.001.0006 276.202 475.9254c14.623 25.212 16.263 51.522 4.39 71.925l-.001.001c-11.706 20.236-35.151 31.996-64.228 31.996h-552.5735c-29.245 0-52.5203-11.759-64.2274-31.995-11.70823-20.405-10.2333-46.717 4.3884-71.927zm-245.6678 527.5824.0025.005c4.3582 7.496 15.0648 11.729 29.3018 11.729h552.5735c14.235 0 24.94-4.232 29.3-11.726 4.532-7.669 2.73-19.199-4.387-31.568l-.001-.002-276.202-475.7566-.001-.0012c-3.819-6.5349-8.073-11.8162-12.346-15.47-4.265-3.6465-8.598-5.7124-12.565-5.7124-4.048 0-8.38 2.02-12.629 5.6489-4.254 3.6342-8.466 8.917-12.285 15.5359l-276.3694 475.9234c-7.1231 12.211-8.7458 23.732-4.3924 31.394z" fill="#000" stroke="#000"/><path d="m249.343 537.099 79.687-177.776 109.063-.507-172.88 178.283z" fill="#000"/><path d="m423.067 220.043-79.686 177.776-109.063.506 172.88-178.282z" fill="#000"/><path clip-rule="evenodd" d="m1191.07 431.601h-191.513c-7.111 0-9.757-2.646-9.757-9.757v-79.051c0-7.112 2.646-9.758 9.757-9.758h191.513c7.11 0 9.75 2.646 9.75 9.758v78.885c0 7.112-2.81 9.923-9.75 9.923z" fill="#fff" fill-rule="evenodd"/><path d="m1039.25 409.44c-15.05 0-27.12-12.238-27.12-27.123 0-14.884 12.23-27.122 27.12-27.122 14.88 0 27.12 12.238 27.12 27.122 0 14.885-12.07 27.123-27.12 27.123zm0-45.976c-10.42 0-18.86 8.435-18.86 18.853 0 10.419 8.44 18.854 18.86 18.854s18.85-8.435 18.85-18.854c0-10.418-8.43-18.853-18.85-18.853z" fill="#000"/><path d="m1163.45 357.844h-8.27v49.117h8.27z" fill="#000"/><path clip-rule="evenodd" d="m1191.07 307.566h-191.513c-7.111 0-9.757-2.646-9.757-9.757v-79.052c0-7.111 2.646-9.757 9.757-9.757h191.513c7.11 0 9.75 2.646 9.75 9.757v78.886c0 7.111-2.64 9.923-9.75 9.923z" fill="#fff" fill-rule="evenodd"/><g fill="#000"><path d="m1018.41 242.074c-1.65.993-3.14 1.489-5.13 1.489-5.45 0-7.93-4.135-7.93-9.592 0-5.458 2.48-9.592 7.93-9.592 1.66 0 3.15.331 4.8 1.158l-1.32 2.646c-1.16-.662-2.48-.827-3.48-.827-2.97 0-4.46 2.811-4.46 6.45 0 3.638 1.49 6.449 4.46 6.449 1.33 0 2.65-.33 3.81-.992z"/><path d="m1029.99 235.129-5.46 8.104h-2.98v-13.561h3.31v8.103l5.46-8.103h2.97v13.561h-3.3z"/><path d="m1045.86 229.672-.49 2.811h-4.8v10.75h-3.31v-13.561z"/><path d="m1058.93 243.233h-3.31v-5.458h-4.46v5.458h-3.31v-13.561h3.31v5.127h4.46v-5.127h3.31z"/><path d="m1069.68 234.467c0-1.323-.66-2.15-2.32-2.15-1.16 0-2.31.331-3.64.662l-.99-2.646c1.66-.662 3.14-.827 4.96-.827 4.14 0 5.3 2.15 5.3 4.961v5.127c0 .661.33.992.99.992h.33v2.646c-.33.166-1.16.331-1.82.331-1.16 0-1.99-.496-2.32-1.323h-.16c-.99.992-1.99 1.323-3.47 1.323-2.65 0-4.14-1.323-4.14-3.969s1.99-3.969 5.13-3.969h2.48v-1.158zm0 4.962v-1.489h-2.48c-1.16 0-1.99.662-1.99 1.489 0 .826.66 1.323 1.49 1.323 1.16 0 2.15-.497 2.98-1.323z"/><path d="m1081.58 232.815c0 7.111-1.65 10.584-4.63 10.584-.66 0-1.32-.165-1.81-.496l.82-2.646c.17.165.33.165.66.165 1 0 1.82-1.819 1.82-8.93v-1.654h9.43v13.561h-3.31v-10.75z"/><path d="m1010.31 260.93h-1.16v5.457h-3.31v-13.561h3.31v5.127h1.16l3.14-5.127h3.31l-3.97 6.45 4.13 6.946-3.31.331z"/><path d="m1036.77 262.584c0 2.315-1.49 3.803-4.63 3.803h-6.12v-13.561h5.62c2.65 0 4.63.827 4.63 3.308 0 1.488-.83 2.48-2.31 2.977 1.65.661 2.81 1.653 2.81 3.473zm-7.44-6.781v2.315h1.65c1.16 0 1.82-.33 1.82-1.157s-.83-1.158-1.82-1.158zm0 4.961v2.812h2.15c1.32 0 1.98-.496 1.98-1.489 0-.992-.66-1.323-1.98-1.323z"/><path d="m1039.25 259.604c0-4.465 2.64-6.946 6.28-6.946 3.81 0 6.29 2.646 6.29 6.946 0 4.465-2.65 6.946-6.29 6.946-3.8.165-6.28-2.481-6.28-6.946zm3.31 0c0 2.646 1.32 4.135 2.97 4.135 1.82 0 2.98-1.489 2.98-4.135s-1.32-4.134-2.98-4.134c-1.82 0-2.97 1.488-2.97 4.134z"/><path d="m1054.63 263.576c1.32-2.315 1.65-4.631 1.65-9.261v-1.489h9.26v10.75h2.15l-.49 6.119h-2.81v-3.308h-8.27v3.308h-2.82l-.49-6.119zm4.79-7.773c0 2.977-.33 5.788-1.32 7.773h4.14v-7.773z"/><path d="m1078.44 258.284-5.45 8.103h-2.98v-13.561h3.31v8.104l5.45-8.104h2.98v13.561h-3.31z"/><path d="m1084.07 252.826h11.74l-.5 2.812h-3.8v10.749h-3.31v-10.749h-4.13z"/><path d="m1107.05 262.914 1.16 2.646c-1.32.662-2.98 1.158-4.63 1.158-3.97 0-6.61-2.646-6.61-6.946 0-4.465 2.31-6.946 6.11-6.946 3.48 0 5.79 2.15 5.79 5.954 0 .331 0 1.323-.16 1.984h-8.44c.33 1.985 1.82 3.143 3.48 3.143 1.15 0 2.48-.497 3.3-.993zm-1.32-4.796c0-1.488-.99-2.646-2.65-2.646-1.32 0-2.48.993-2.81 2.646z"/><path d="m1116.65 255.967c0 7.111-1.66 10.584-4.64 10.584-.66 0-1.32-.165-1.81-.496l.82-2.646c.17.165.33.165.66.165 1 0 1.82-1.819 1.82-8.93v-1.654h9.43v13.561h-3.31v-10.749z"/><path d="m1132.36 260.928h-2.15v5.458h-3.31v-13.561h3.31v5.127h2.15c.49-3.473 2.64-5.458 5.95-5.458 3.8 0 5.95 2.646 5.95 6.946 0 4.465-2.31 6.946-5.95 6.946-3.47.331-5.62-1.819-5.95-5.458zm3.14-1.323c0 2.647.99 4.135 2.64 4.135 1.66 0 2.65-1.488 2.65-4.135 0-2.646-.99-4.134-2.65-4.134-1.65 0-2.64 1.488-2.64 4.134z"/><path d="m1008.32 284.743-.82 4.961h-2.15l2.48-13.892h4.3c2.48 0 3.96 1.324 3.96 3.804 0 2.977-2.31 5.127-5.45 5.127zm1.32-7.111-.99 5.126h2.15c1.66 0 2.98-1.323 2.98-3.307 0-1.323-.66-1.985-1.99-1.985h-2.15z"/><path d="m1022.88 281.435c-.34-.165-.5-.165-1-.165-1.15 0-1.98 1.157-2.48 2.48l-.99 5.954h-1.98l1.81-10.088h1.49l.17 1.488c.66-.992 1.49-1.819 2.98-1.819.49 0 .82 0 1.32.166z"/><path d="m1023.87 285.735c0-3.473 2.15-6.45 5.62-6.45 1.98 0 3.31.992 3.31 2.646 0 2.15-1.82 3.473-6.95 3.473 0 1.654.5 2.646 2.32 2.646.82 0 1.49-.331 2.48-.661l.66 1.488c-.99.496-2.15.827-3.47.827-2.81 0-3.97-1.488-3.97-3.969zm2.31-1.985c3.81 0 4.47-.827 4.47-1.653 0-.662-.66-.993-1.49-.993-1.32-.165-2.48.993-2.98 2.646z"/><path d="m1040.57 286.398c0 1.984-1.82 3.307-4.3 3.307-1.16 0-2.31-.33-3.31-.661l1-1.654c.66.331 1.48.496 2.48.496.82 0 1.98-.496 1.98-1.488 0-.827-.83-1.158-1.82-1.489-.99-.33-2.31-1.157-2.31-2.811 0-1.985 1.65-2.977 3.97-2.977 1.15 0 2.31.165 3.14.662l-.99 1.488c-.83-.331-1.49-.496-2.32-.496-.99 0-1.82.331-1.82 1.158 0 .826.83 1.157 1.49 1.488 1.49.661 2.81 1.488 2.81 2.977z"/><path d="m1049.34 286.398c0 1.984-1.82 3.307-4.3 3.307-1.16 0-2.32-.33-3.31-.661l.99-1.654c.66.331 1.49.496 2.48.496.83 0 1.99-.496 1.99-1.488 0-.827-.83-1.158-1.82-1.489-1-.33-2.32-1.157-2.32-2.811 0-1.985 1.66-2.977 3.97-2.977 1.16 0 2.32.165 3.14.662l-.99 1.488c-.83-.331-1.49-.496-2.31-.496-1 0-1.82.331-1.82 1.158 0 .826.82 1.157 1.48 1.488 1.49.661 2.82 1.488 2.82 2.977z"/><path d="m1059.09 276.969 2.15-.33-.49 2.811h2.97l-.66 1.654h-2.64l-1 5.457v.331c0 .662.5.992 1.16.992.5 0 .99 0 1.49-.33l.17 1.653c-.83.166-1.49.331-2.15.331-1.66 0-2.65-.661-2.65-2.315 0-.331 0-.496 0-.827l.99-5.457h-1.65l.33-1.654h1.65z"/><path d="m1069.51 279.285c2.65 0 3.81 1.489 3.81 3.969 0 3.473-2.15 6.45-5.63 6.45-2.48 0-3.8-1.323-3.8-3.969 0-3.473 2.15-6.45 5.62-6.45zm-1.49 8.765c1.99 0 3.31-1.984 3.31-4.63 0-1.654-.66-2.481-1.98-2.481-1.99 0-3.31 1.985-3.31 4.631 0 1.653.66 2.48 1.98 2.48z"/><path d="m1089.69 279.946-1.66 9.592h-1.32l-.16-.992c-.83.827-1.82 1.323-2.98 1.323-2.15 0-3.14-1.488-3.14-3.969 0-3.473 2.15-6.45 5.62-6.45 1.32-.165 2.48.166 3.64.496zm-7.44 5.623c0 1.489.49 2.481 1.65 2.481.99 0 1.82-.496 2.48-1.488l.99-5.293c-.49-.165-1.15-.33-1.82-.33-1.98 0-3.3 1.984-3.3 4.63z"/><path d="m1094.82 289.375c-.67.165-1.16.331-1.66.331-1.49 0-2.15-.662-2.15-1.985 0-.331 0-.496 0-.827l2.15-11.907 2.15-.331-2.15 12.238v.331c0 .496.17.662.66.662.33 0 .5 0 .83-.166z"/><path d="m1096.47 285.735c0-3.473 2.15-6.45 5.62-6.45 1.99 0 3.31.992 3.31 2.646 0 2.15-1.82 3.473-6.95 3.473 0 1.654.5 2.646 2.32 2.646.83 0 1.49-.331 2.48-.661l.66 1.488c-.99.496-2.15.827-3.47.827-2.81 0-3.97-1.488-3.97-3.969zm2.31-1.985c3.81 0 4.47-.827 4.47-1.653 0-.662-.66-.993-1.49-.993-1.32-.165-2.48.993-2.98 2.646z"/><path d="m1112.84 281.435c-.33-.165-.49-.165-.99-.165-1.16 0-1.99 1.157-2.48 2.48l-.99 5.954h-1.99l1.82-10.088h1.49l.16 1.488c.67-.992 1.49-1.819 2.98-1.819.5 0 .83 0 1.32.166z"/><path d="m1116.31 276.969 2.15-.33-.49 2.811h2.98l-.67 1.654h-2.64l-.99 5.457v.331c0 .662.49.992 1.15.992.5 0 1 0 1.49-.33l.17 1.653c-.83.166-1.49.331-2.15.331-1.66 0-2.65-.661-2.65-2.315 0-.331 0-.496 0-.827l.99-5.457h-1.65l.33-1.654h1.65z"/><path d="m1132.03 279.286c.82 0 1.65.165 2.15.496l.82-4.631 2.15-.331-2.64 14.884h-1.33l-.16-.992c-.83.827-1.82 1.323-3.14 1.323-2.15 0-3.31-1.323-3.31-3.969-.33-3.804 1.82-6.78 5.46-6.78zm.82 7.276.83-4.961c-.5-.496-1.16-.662-2.15-.662-1.99 0-3.31 1.985-3.31 4.631 0 1.654.83 2.481 1.99 2.481 1.15 0 1.98-.497 2.64-1.489z"/><path d="m1143.77 281.435c-.33-.165-.5-.165-.99-.165-1.16 0-1.99 1.157-2.49 2.48l-.99 5.954h-1.98l1.82-10.088h1.49l.16 1.488c.66-.992 1.49-1.819 2.98-1.819.49 0 .82 0 1.32.166z"/><path d="m1144.76 281.105.66-1.654h3.47l-1.82 10.088h-1.98l1.49-8.434zm3.64-5.789c.66 0 1.32.497 1.32 1.323 0 .827-.5 1.158-1.32 1.158-.66 0-1.33-.496-1.33-1.158 0-.661.67-1.323 1.33-1.323z"/><path d="m1150.55 279.449h1.98l1.16 7.773 3.97-7.773h1.98l-5.12 10.088h-2.32z"/><path d="m1159.31 285.735c0-3.473 2.15-6.45 5.63-6.45 1.98 0 3.3.992 3.3 2.646 0 2.15-1.82 3.473-6.94 3.473 0 1.654.49 2.646 2.31 2.646.83 0 1.49-.331 2.48-.661l.67 1.488c-1 .496-2.15.827-3.48.827-2.64 0-3.97-1.488-3.97-3.969zm2.32-1.985c3.8 0 4.46-.827 4.46-1.653 0-.662-.66-.993-1.48-.993-1.33-.165-2.49.993-2.98 2.646z"/><path d="m1175.69 281.435c-.34-.165-.5-.165-1-.165-1.15 0-1.98 1.157-2.48 2.48l-.99 5.954h-1.98l1.82-10.088h1.48l.17 1.488c.66-.992 1.49-1.819 2.98-1.819.49 0 .82 0 1.32.166z"/></g><path clip-rule="evenodd" d="m951.266 431.601h-191.509c-7.111 0-9.757-2.646-9.757-9.757v-79.051c0-7.112 2.646-9.758 9.757-9.758h191.509c7.112 0 9.758 2.646 9.758 9.758v78.885c0 7.112-2.646 9.923-9.758 9.923z" fill="#d4000f" fill-rule="evenodd"/><path d="m766.538 363.466c1.158.662 2.315.992 3.639.992 2.646 0 4.134-2.15 4.465-5.126h-6.45v-2.812h6.45c-.331-2.811-1.819-4.961-4.465-4.961-1.158 0-2.316.165-3.473.827l-1.323-2.646c1.819-.993 3.307-1.158 5.126-1.158 5.293 0 7.938 4.135 7.938 9.592 0 5.458-2.811 9.592-7.938 9.592-1.984 0-3.638-.496-5.292-1.488z" fill="#fff"/><path d="m786.384 361.811h-1.158v5.457h-3.307v-13.561h3.307v5.127h1.158l3.142-5.127h3.308l-3.97 6.45 4.135 6.946-3.308.33z" fill="#fff"/><path d="m804.741 366.772c-1.158.496-2.481.827-3.804.827-4.3 0-6.781-3.142-6.781-6.946 0-3.969 2.15-6.946 6.616-6.946 1.323 0 2.646.331 3.803.662l-.992 2.646c-.827-.331-1.819-.497-2.646-.497-1.984 0-3.473 1.654-3.473 4.135s1.488 4.134 3.308 4.134c.827 0 1.984-.165 2.811-.496z" fill="#fff"/><path d="m805.733 353.707h11.742l-.496 2.811h-3.804v10.75h-3.307v-10.75h-4.135z" fill="#fff"/><path d="m822.932 354.867c.827-.827 2.15-1.488 3.473-1.488 3.804 0 5.458 2.977 5.458 6.946 0 4.134-1.819 6.946-5.788 6.946-1.158 0-2.15-.166-3.143-.496v5.788l-3.307.496v-19.349h2.481zm5.623 5.623c0-2.48-.992-4.134-2.977-4.134-.826 0-1.819.496-2.48 1.323v6.284c.661.496 1.654.662 2.646.662 1.654.165 2.811-1.489 2.811-4.135z" fill="#fff"/><path d="m844.432 363.795 1.158 2.646c-1.323.662-2.977 1.158-4.631 1.158-3.969 0-6.615-2.646-6.615-6.946 0-4.465 2.315-6.946 6.119-6.946 3.473 0 5.788 2.15 5.788 5.954 0 .33 0 1.323-.165 1.984h-8.435c.331 1.985 1.819 3.142 3.473 3.142 1.158 0 2.481-.496 3.308-.992zm-1.158-4.796c0-1.488-.992-2.646-2.646-2.646-1.323 0-2.481.992-2.811 2.646z" fill="#fff"/><path d="m860.474 367.268h-3.308v-5.457h-4.465v5.457h-3.308v-13.561h3.308v5.127h4.465v-5.127h3.308z" fill="#fff"/><path d="m875.523 367.268h-3.307v-5.457h-4.466v5.457h-3.307v-13.561h3.307v5.127h4.466v-5.127h3.307z" fill="#fff"/><path d="m884.784 358.668c2.977 0 4.796 1.654 4.796 4.3s-1.984 4.3-4.796 4.3h-5.292v-13.561h3.308v4.796h1.984zm-1.984 2.646v3.143h1.819c1.158 0 1.819-.662 1.819-1.489s-.661-1.488-1.819-1.488h-1.819zm11.576 5.954h-3.307v-13.561h3.307z" fill="#fff"/><path d="m906.945 359.165-5.457 8.104h-2.977v-13.561h3.307v8.103l5.458-8.103h2.977v13.561h-3.308zm1.819-10.088c-.992 1.819-2.646 2.646-4.465 2.646-1.984 0-3.473-.992-4.465-2.646l1.984-1.323c.497 1.158 1.323 1.819 2.481 1.819s1.985-.661 2.481-1.819z" fill="#fff"/><path d="m764.388 376.859h11.742l-.496 2.812h-3.804v10.749h-3.307v-10.749h-4.135z" fill="#fff"/><path d="m777.123 383.641c0-4.465 2.646-6.946 6.284-6.946 3.804 0 6.284 2.646 6.284 6.946 0 4.465-2.646 6.946-6.284 6.946-3.638.166-6.284-2.481-6.284-6.946zm3.472 0c0 2.646 1.324 4.135 2.977 4.135 1.82 0 2.977-1.489 2.977-4.135s-1.323-4.134-2.977-4.134c-1.819 0-2.977 1.488-2.977 4.134z" fill="#fff"/><path d="m796.141 378.02c.827-.827 2.15-1.489 3.473-1.489 3.804 0 5.458 2.977 5.458 6.946 0 4.135-1.82 6.946-5.789 6.946-1.157 0-2.15-.165-3.142-.496v5.788l-3.307.496v-19.349h2.48zm5.788 5.623c0-2.481-.992-4.135-2.976-4.135-.827 0-1.82.496-2.481 1.323v6.285c.661.496 1.654.661 2.646.661 1.654.165 2.811-1.488 2.811-4.134z" fill="#fff"/><path d="m819.294 382.482-2.481 5.789h-2.811l-2.315-5.789h-.166l-.661 7.938h-3.308l1.323-13.561h3.473l2.977 7.277h.165l2.977-7.277h3.473l1.323 13.561h-3.307z" fill="#fff"/><path d="m825.578 383.641c0-4.465 2.647-6.946 6.285-6.946 3.804 0 6.284 2.646 6.284 6.946 0 4.465-2.646 6.946-6.284 6.946-3.638.166-6.285-2.481-6.285-6.946zm3.308 0c0 2.646 1.323 4.135 2.977 4.135 1.819 0 2.977-1.489 2.977-4.135s-1.323-4.134-2.977-4.134-2.977 1.488-2.977 4.134z" fill="#fff"/><path d="m847.905 383.312c1.819.496 2.811 1.654 2.811 3.307 0 2.481-1.984 3.969-5.788 3.969-1.488 0-3.473-.33-4.631-.826l.993-2.646c.826.33 2.315.661 3.473.661 1.488 0 2.48-.496 2.48-1.488 0-.993-.827-1.489-2.646-1.489h-1.654v-2.646h1.654c1.158 0 1.985-.331 1.985-1.323 0-.827-.662-1.323-1.985-1.323-.992 0-2.315.165-3.473.496l-.992-2.646c1.323-.496 3.473-.827 4.796-.827 2.977 0 4.961 1.158 4.961 3.473.331 1.654-.331 2.812-1.984 3.308z" fill="#fff"/><path d="m765.546 413.575 2.481-13.891h7.772l-.661 1.984h-5.292l-.662 3.804h4.796l-.33 1.984h-4.796l-.827 4.3h5.788l-.331 1.985h-7.938z" fill="#fff"/><path d="m790.353 405.968c0 .331 0 .827-.165 1.323l-1.158 6.285h-1.985l1.158-6.119c0-.331 0-.662 0-.827 0-.992-.496-1.489-1.489-1.489-.661 0-1.488.497-1.984.993l-1.323 7.607h-1.985l1.158-6.119c0-.331 0-.661 0-.992 0-.992-.496-1.489-1.323-1.489s-1.654.662-2.315 1.489l-1.323 7.111h-1.985l1.819-10.088h1.489l.165.992c.992-.827 1.819-1.323 2.812-1.323 1.157 0 1.984.331 2.315 1.323.992-.827 1.984-1.323 3.142-1.323 1.985 0 2.977.827 2.977 2.646z" fill="#fff"/><path d="m791.841 409.772c0-3.473 2.15-6.45 5.623-6.45 1.985 0 3.308.993 3.308 2.646 0 2.15-1.819 3.473-6.946 3.473 0 1.654.496 2.646 2.315 2.646.827 0 1.489-.33 2.481-.661l.661 1.488c-.992.496-2.15.827-3.473.827-2.646 0-3.969-1.488-3.969-3.969zm2.481-1.984c3.804 0 4.465-.827 4.465-1.654 0-.662-.661-.993-1.488-.993-1.489-.165-2.646.993-2.977 2.647z" fill="#fff"/><path d="m808.214 405.472c-.331-.165-.496-.165-.993-.165-1.157 0-1.984 1.157-2.48 2.481l-.992 5.953h-1.985l1.819-10.088h1.489l.165 1.488c.662-.992 1.488-1.819 2.977-1.819.496 0 .827 0 1.323.166z" fill="#fff"/><path d="m815.16 413.907.165-1.324c-.992.827-1.819 1.158-2.811 1.158-2.316 0-3.308-1.323-3.308-3.969 0-3.473 2.15-6.45 5.788-6.45 1.323 0 2.646.166 3.969.827l-1.819 9.923c-.496 2.646-2.315 3.969-5.126 3.969-1.323 0-2.316-.331-3.473-.827l.992-1.654c.827.496 1.654.827 2.811.827 1.489-.165 2.481-.827 2.812-2.48zm-3.804-4.3c0 1.653.662 2.48 1.985 2.48.827 0 1.819-.496 2.48-1.323l.993-5.292c-.662-.331-1.158-.331-1.985-.331-2.15-.165-3.473 1.82-3.473 4.466z" fill="#fff"/><path d="m820.286 409.772c0-3.473 2.15-6.45 5.623-6.45 1.985 0 3.308.993 3.308 2.646 0 2.15-1.819 3.473-6.946 3.473 0 1.654.496 2.646 2.315 2.646.827 0 1.489-.33 2.481-.661l.662 1.488c-.993.496-2.15.827-3.473.827-2.646 0-3.97-1.488-3.97-3.969zm2.316-1.984c3.804 0 4.465-.827 4.465-1.654 0-.662-.662-.993-1.488-.993-1.323-.165-2.481.993-2.977 2.647z" fill="#fff"/><path d="m832.028 413.575h-1.984l1.819-10.088h1.488l.166.992c.992-.827 1.984-1.323 2.977-1.323 1.819 0 2.811.993 2.811 2.646 0 .331 0 .827-.165 1.323l-1.158 6.285h-1.985l1.158-6.119c0-.331 0-.662 0-.993 0-.992-.496-1.488-1.488-1.488-.827 0-1.819.662-2.481 1.488z" fill="#fff"/><path d="m840.959 409.772c0-3.638 2.315-6.45 5.788-6.45.992 0 1.985.166 2.811.496l-.992 1.654c-.661-.331-1.323-.496-2.15-.496-1.819 0-3.473 1.985-3.473 4.631 0 1.653.993 2.48 2.15 2.48.662 0 1.654-.165 2.316-.496l.496 1.654c-.827.331-1.985.662-3.142.662-2.316-.166-3.804-1.654-3.804-4.135z" fill="#fff"/><path d="m849.724 415.892c.331.165.661.33.992.33.496 0 .993-.165 1.489-1.157l.661-1.489h-.661l-1.82-10.088h1.985l1.323 7.938 3.969-7.938h2.15l-5.954 12.073c-.992 1.984-2.315 2.481-3.307 2.481-.662 0-1.323-.166-1.654-.331z" fill="#fff"/><path d="m868.908 413.741c-1.323 0-2.646-.165-3.969-.827l2.48-13.892 2.15-.331-.992 5.789c.992-.827 1.819-1.323 2.812-1.323 2.15 0 3.307 1.488 3.307 3.969-.165 3.638-2.15 6.615-5.788 6.615zm1.654-8.765c-.827 0-1.819.661-2.481 1.488l-.992 5.292c.661.331 1.323.331 2.15.331 1.984 0 3.307-1.984 3.307-4.631-.165-1.653-.827-2.48-1.984-2.48z" fill="#fff"/><path d="m882.469 405.472c-.331-.165-.496-.165-.992-.165-1.158 0-1.985 1.157-2.481 2.481l-.992 5.953h-1.985l1.819-10.088h1.489l.165 1.488c.662-.992 1.489-1.819 2.977-1.819.496 0 .827 0 1.323.166z" fill="#fff"/><path d="m892.888 403.985-1.654 9.592h-1.323l-.165-.992c-.827.827-1.82 1.323-2.977 1.323-2.15 0-3.142-1.488-3.142-3.969 0-3.473 2.149-6.45 5.622-6.45 1.323-.165 2.481.166 3.639.496zm-7.442 5.623c0 1.489.496 2.481 1.654 2.481.992 0 1.819-.496 2.48-1.488l.993-5.293c-.497-.165-1.158-.33-1.82-.33-1.984 0-3.307 1.984-3.307 4.63z" fill="#fff"/><path d="m901.488 403.489h2.15l-4.135 4.961c.496 1.985 1.488 3.638 2.811 5.127l-2.315.165c-1.158-1.323-1.819-2.811-2.315-4.63h-1.158l-.827 4.299h-1.984l2.48-14.553 2.15-.331-1.488 8.765h.992z" fill="#fff"/><path d="m903.472 409.772c0-3.473 2.15-6.45 5.623-6.45 1.985 0 3.308.993 3.308 2.646 0 2.15-1.82 3.473-6.946 3.473 0 1.654.496 2.646 2.315 2.646.827 0 1.488-.33 2.481-.661l.661 1.488c-.992.496-2.15.827-3.473.827-2.811 0-3.969-1.488-3.969-3.969zm2.315-1.984c3.804 0 4.466-.827 4.466-1.654 0-.662-.662-.993-1.489-.993-1.323-.165-2.48.993-2.977 2.647z" fill="#fff"/><path clip-rule="evenodd" d="m951.266 307.566h-191.509c-7.111 0-9.757-2.646-9.757-9.757v-79.052c0-7.111 2.646-9.757 9.757-9.757h191.509c7.112 0 9.758 2.646 9.758 9.757v78.886c0 7.111-2.646 9.923-9.758 9.923z" fill="#d4000f" fill-rule="evenodd"/><path d="m775.138 239.264h-5.954l-1.157 3.969h-3.639l6.119-18.522h3.142l6.12 18.522h-3.639zm-5.127-3.142h4.135l-1.985-6.78h-.165z" fill="#fff"/><path d="m792.999 239.431c0 2.315-1.489 3.804-4.631 3.804h-6.119v-13.561h5.623c2.646 0 4.631.827 4.631 3.307 0 1.489-.827 2.481-2.316 2.977 1.654.662 2.812 1.654 2.812 3.473zm-7.442-6.78v2.315h1.654c1.157 0 1.819-.331 1.819-1.158s-.827-1.157-1.819-1.157zm0 4.961v2.811h2.15c1.323 0 1.984-.496 1.984-1.488s-.661-1.323-1.984-1.323z" fill="#fff"/><path d="m802.756 234.469c0-1.323-.661-2.15-2.315-2.15-1.158 0-2.315.331-3.638.662l-.993-2.646c1.654-.662 3.142-.827 4.962-.827 4.134 0 5.292 2.15 5.292 4.961v5.127c0 .661.331.992.992.992h.331v2.646c-.331.166-1.158.331-1.819.331-1.158 0-1.985-.496-2.316-1.323h-.165c-.992.992-1.984 1.323-3.473 1.323-2.646 0-4.134-1.323-4.134-3.969s1.984-3.969 5.126-3.969h2.481v-1.158zm0 4.962v-1.489h-2.48c-1.158 0-1.985.662-1.985 1.489 0 .826.662 1.323 1.488 1.323 1.323 0 2.316-.497 2.977-1.323z" fill="#fff"/><path d="m813.175 230.832c.827-.827 2.15-1.488 3.473-1.488 3.804 0 5.458 2.977 5.458 6.946 0 4.134-1.82 6.946-5.789 6.946-1.157 0-2.15-.166-3.142-.497v5.789l-3.308.496v-19.349h2.481zm5.623 5.623c0-2.481-.992-4.134-2.977-4.134-.827 0-1.819.496-2.481 1.323v6.284c.662.496 1.654.662 2.647.662 1.653.165 2.811-1.489 2.811-4.135z" fill="#fff"/><path d="m833.848 235.131-5.458 8.104h-2.977v-13.561h3.308v8.103l5.457-8.103h2.977v13.561h-3.307z" fill="#fff"/><path d="m849.559 235.132-5.458 8.103h-2.977v-13.561h3.308v8.104l5.457-8.104h2.977v13.561h-3.307zm1.984-10.088c-.992 1.819-2.646 2.646-4.465 2.646-1.985 0-3.473-.992-4.465-2.646l1.984-1.323c.496 1.157 1.323 1.819 2.481 1.819s1.984-.662 2.481-1.819z" fill="#fff"/><path d="m867.916 243.235h-3.308v-5.458h-4.465v5.458h-3.308v-13.561h3.308v5.127h4.465v-5.127h3.308z" fill="#fff"/><path d="m871.058 236.454c0-4.466 2.646-6.946 6.284-6.946 3.804 0 6.285 2.646 6.285 6.946 0 4.465-2.646 6.946-6.285 6.946-3.638.165-6.284-2.481-6.284-6.946zm3.307 0c0 2.646 1.323 4.134 2.977 4.134 1.819 0 2.977-1.488 2.977-4.134s-1.323-4.135-2.977-4.135-2.977 1.489-2.977 4.135z" fill="#fff"/><path d="m896.361 239.762 1.157 2.646c-1.323.662-2.976 1.158-4.63 1.158-3.969 0-6.615-2.646-6.615-6.946 0-4.465 2.315-6.946 6.119-6.946 3.473 0 5.788 2.15 5.788 5.953 0 .331 0 1.324-.165 1.985h-8.435c.331 1.985 1.819 3.142 3.473 3.142 1.158 0 2.481-.496 3.308-.992zm-1.323-4.796c0-1.488-.992-2.646-2.646-2.646-1.323 0-2.481.992-2.812 2.646z" fill="#fff"/><path d="m765.215 259.608c0-4.465 2.646-6.946 6.285-6.946 3.803 0 6.284 2.646 6.284 6.946 0 4.465-2.646 6.946-6.284 6.946-3.639.165-6.285-2.481-6.285-6.946zm3.308 0c0 2.646 1.323 4.135 2.977 4.135 1.819 0 2.976-1.489 2.976-4.135s-1.323-4.134-2.976-4.134c-1.654 0-2.977 1.488-2.977 4.134z" fill="#fff"/><path d="m790.849 265.891c-1.158.496-2.481.827-3.804.827-4.3 0-6.78-3.142-6.78-6.946 0-3.969 2.15-6.946 6.615-6.946 1.323 0 2.646.331 3.804.662l-.993 2.646c-.827-.331-1.819-.496-2.646-.496-1.984 0-3.473 1.653-3.473 4.134s1.489 4.135 3.308 4.135c.827 0 1.984-.166 2.811-.497z" fill="#fff"/><path d="m804.245 262.584c0 2.315-1.489 3.803-4.631 3.803h-6.119v-13.561h5.623c2.646 0 4.631.827 4.631 3.308 0 1.488-.827 2.48-2.316 2.977 1.654.661 2.812 1.653 2.812 3.473zm-7.442-6.781v2.315h1.653c1.158 0 1.82-.33 1.82-1.157s-.827-1.158-1.82-1.158zm0 4.961v2.812h2.15c1.323 0 1.984-.496 1.984-1.489 0-.992-.661-1.323-1.984-1.323z" fill="#fff"/><path d="m816.814 262.914 1.157 2.646c-1.323.662-2.977 1.158-4.631 1.158-3.969 0-6.615-2.646-6.615-6.946 0-4.465 2.316-6.946 6.119-6.946 3.473 0 5.789 2.15 5.789 5.954 0 .331 0 1.323-.166 1.984h-8.434c.331 1.985 1.819 3.143 3.473 3.143.992 0 2.315-.497 3.308-.993zm-1.324-4.796c0-1.488-.992-2.646-2.646-2.646-1.323 0-2.48.993-2.811 2.646z" fill="#fff"/><path d="m831.698 263.576h3.473v-10.75h3.307v10.75h2.15l-.496 6.119h-2.812v-3.308h-15.545v-13.561h3.308v10.75h3.472v-10.75h3.308v10.75z" fill="#fff"/><path d="m852.039 262.914 1.158 2.646c-1.323.662-2.977 1.158-4.631 1.158-3.969 0-6.615-2.646-6.615-6.946 0-4.465 2.315-6.946 6.119-6.946 3.473 0 5.788 2.15 5.788 5.954 0 .331 0 1.323-.165 1.984h-8.434c.33 1.985 1.819 3.143 3.473 3.143 1.157 0 2.48-.497 3.307-.993zm-1.323-4.796c0-1.488-.992-2.646-2.646-2.646-1.323 0-2.481.993-2.811 2.646z" fill="#fff"/><path d="m868.081 266.387h-3.308v-5.457h-4.465v5.457h-3.307v-13.561h3.307v5.127h4.465v-5.127h3.308z" fill="#fff"/><path d="m880.484 258.284-5.457 8.103h-2.977v-13.561h3.308v8.104l5.457-8.104h2.977v13.561h-3.308z" fill="#fff"/><path d="m897.188 262.914 1.157 2.646c-1.323.662-2.976 1.158-4.63 1.158-3.969 0-6.615-2.646-6.615-6.946 0-4.465 2.315-6.946 6.119-6.946 3.473 0 5.788 2.15 5.788 5.954 0 .331 0 1.323-.165 1.984h-8.435c.331 1.985 1.819 3.143 3.473 3.143.992 0 2.315-.497 3.308-.993zm-1.323-4.796c0-1.488-.993-2.646-2.646-2.646-1.323 0-2.481.993-2.812 2.646z" fill="#fff"/><path d="m765.546 289.542 2.481-13.892h7.773l-.662 1.985h-5.292l-.662 3.804h4.796l-.331 1.984h-4.795l-.827 4.3h5.788l-.331 1.985h-7.938z" fill="#fff"/><path d="m790.353 281.933c0 .331 0 .827-.166 1.323l-1.157 6.285h-1.985l1.158-6.119c0-.331 0-.662 0-.827 0-.993-.496-1.489-1.489-1.489-.661 0-1.488.496-1.984.993l-1.323 7.607h-1.985l1.158-6.119c0-.331 0-.662 0-.992 0-.993-.496-1.489-1.323-1.489s-1.654.662-2.315 1.489l-1.323 7.111h-1.985l1.819-10.088h1.489l.165.992c.992-.827 1.819-1.323 2.811-1.323 1.158 0 1.985.331 2.316 1.323.992-.827 1.984-1.323 3.142-1.323 1.985 0 2.977.827 2.977 2.646z" fill="#fff"/><path d="m791.841 285.737c0-3.473 2.15-6.45 5.623-6.45 1.985 0 3.308.992 3.308 2.646 0 2.15-1.819 3.473-6.946 3.473 0 1.654.496 2.646 2.315 2.646.827 0 1.489-.331 2.481-.661l.661 1.488c-.992.496-2.15.827-3.473.827-2.646 0-3.969-1.488-3.969-3.969zm2.316-1.985c3.803 0 4.465-.827 4.465-1.653 0-.662-.662-.993-1.489-.993-1.323-.165-2.48.993-2.976 2.646z" fill="#fff"/><path d="m808.214 281.437c-.331-.165-.496-.165-.992-.165-1.158 0-1.985 1.157-2.481 2.48l-.992 5.954h-1.985l1.819-10.088h1.488l.166 1.488c.662-.992 1.488-1.819 2.977-1.819.496 0 .827 0 1.323.165z" fill="#fff"/><path d="m815.16 289.871.165-1.323c-.992.827-1.819 1.158-2.811 1.158-2.316 0-3.308-1.323-3.308-3.969 0-3.473 2.15-6.45 5.788-6.45 1.323 0 2.646.165 3.969.827l-1.819 9.923c-.496 2.646-2.315 3.969-5.126 3.969-1.323 0-2.316-.331-3.473-.827l.992-1.654c.827.496 1.654.827 2.811.827 1.489-.165 2.481-.827 2.812-2.481zm-3.969-4.299c0 1.653.661 2.48 1.984 2.48.827 0 1.819-.496 2.481-1.323l.992-5.292c-.661-.331-1.158-.331-1.984-.331-1.985-.165-3.473 1.819-3.473 4.466z" fill="#fff"/><path d="m820.286 285.737c0-3.473 2.15-6.45 5.623-6.45 1.985 0 3.308.992 3.308 2.646 0 2.15-1.819 3.473-6.946 3.473 0 1.654.496 2.646 2.315 2.646.827 0 1.489-.331 2.481-.661l.662 1.488c-.993.496-2.15.827-3.473.827-2.812 0-3.97-1.488-3.97-3.969zm2.316-1.985c3.804 0 4.465-.827 4.465-1.653 0-.662-.662-.993-1.488-.993-1.323-.165-2.481.993-2.977 2.646z" fill="#fff"/><path d="m832.028 289.542h-1.984l1.819-10.088h1.488l.166.992c.992-.827 1.984-1.323 2.977-1.323 1.819 0 2.811.992 2.811 2.646 0 .331 0 .827-.165 1.323l-1.158 6.285h-1.985l1.158-6.119c0-.331 0-.662 0-.993 0-.992-.496-1.488-1.488-1.488-.827 0-1.82.661-2.481 1.488z" fill="#fff"/><path d="m840.959 285.737c0-3.638 2.315-6.45 5.788-6.45.992 0 1.985.165 2.811.496l-.992 1.654c-.661-.331-1.323-.496-2.15-.496-1.819 0-3.473 1.984-3.473 4.631 0 1.653.993 2.48 2.15 2.48.662 0 1.654-.165 2.316-.496l.496 1.654c-.827.331-1.985.661-3.143.661-2.48-.165-3.803-1.653-3.803-4.134z" fill="#fff"/><path d="m849.559 291.857c.33.165.661.33.992.33.496 0 .992-.165 1.488-1.157l.662-1.489h-.662l-1.819-10.088h1.985l1.323 7.938 3.969-7.938h2.15l-5.954 12.073c-.992 1.984-2.315 2.48-3.308 2.48-.661 0-1.323-.165-1.653-.33z" fill="#fff"/><path d="m868.908 289.375c-.662.165-1.158.331-1.654.331-1.488 0-2.15-.662-2.15-1.985 0-.331 0-.496 0-.827l2.15-11.907 2.15-.331-2.15 12.238v.331c0 .496.165.662.661.662.331 0 .497 0 .827-.166z" fill="#fff"/><path d="m870.396 281.109.662-1.654h3.473l-1.819 10.088h-1.985l1.489-8.434zm3.804-5.789c.662 0 1.323.496 1.323 1.323s-.496 1.158-1.323 1.158c-.661 0-1.323-.496-1.323-1.158 0-.661.662-1.323 1.323-1.323z" fill="#fff"/><path d="m881.973 289.871.165-1.323c-.992.827-1.819 1.158-2.811 1.158-2.316 0-3.308-1.323-3.308-3.969 0-3.473 2.15-6.45 5.788-6.45 1.323 0 2.647.165 3.97.827l-1.82 9.923c-.496 2.646-2.315 3.969-5.126 3.969-1.323 0-2.316-.331-3.473-.827l.992-1.654c.827.496 1.654.827 2.811.827 1.654-.165 2.646-.827 2.812-2.481zm-3.804-4.299c0 1.653.662 2.48 1.985 2.48.827 0 1.819-.496 2.48-1.323l.993-5.292c-.662-.331-1.158-.331-1.985-.331-1.984-.165-3.473 1.819-3.473 4.466z" fill="#fff"/><path d="m890.242 282.429-1.323 7.111h-1.985l2.481-14.553 2.15-.331-.992 5.789c.826-.827 1.984-1.324 2.976-1.324 1.819 0 2.646.827 2.646 2.647 0 .33 0 .826-.165 1.323l-1.158 6.284h-1.984l.992-6.119c0-.331.165-.662.165-.992 0-.993-.496-1.489-1.488-1.489-.662.166-1.654.827-2.315 1.654z" fill="#fff"/><path d="m900.33 276.971 2.15-.33-.496 2.811h2.976l-.661 1.654h-2.646l-.992 5.457v.331c0 .662.496.992 1.157.992.496 0 .993 0 1.489-.33l.165 1.653c-.827.166-1.488.331-2.15.331-1.654 0-2.646-.661-2.646-2.315 0-.331 0-.496 0-.827l.992-5.458h-1.653l.33-1.653h1.654z" fill="#fff"/><path d="m912.072 286.4c0 1.984-1.819 3.307-4.3 3.307-1.158 0-2.315-.33-3.308-.661l.993-1.654c.661.331 1.488.496 2.48.496.827 0 1.985-.496 1.985-1.488 0-.827-.827-1.158-1.819-1.489-.993-.33-2.316-1.157-2.316-2.811 0-1.985 1.654-2.977 3.97-2.977 1.157 0 2.315.165 3.142.662l-.992 1.488c-.827-.331-1.489-.496-2.316-.496-.992 0-1.819.331-1.819 1.157 0 .827.827 1.158 1.488 1.489 1.323.661 2.812 1.488 2.812 2.977z" fill="#fff"/></svg>