<svg width="1280" height="640" fill="none" xmlns="http://www.w3.org/2000/svg"><path fill="#E8E8E8" d="M640 0h640v640H640z"/><path fill="#000" d="M0 0h640v640H0z"/><path fill-rule="evenodd" clip-rule="evenodd" d="M294.301 399.648H119.347c-11.05 0-15.347-4.297-15.347-15.347V209.347c0-11.106 4.297-15.347 15.347-15.347h174.954c11.106 0 15.347 4.297 15.347 15.347v174.898c0 11.106-4.297 15.403-15.347 15.403z" fill="#D4000F"/><path fill-rule="evenodd" clip-rule="evenodd" d="M287.269 291.941H126.378a6.3 6.3 0 01-6.306-6.306v-70.428a6.3 6.3 0 016.306-6.307h160.891a6.3 6.3 0 016.306 6.307v70.372c0 3.516-2.79 6.362-6.306 6.362z" fill="#D4000F"/><path d="M129.392 335.415h-4.967l-1.004 3.404h-3.014l5.246-15.626h2.623l5.246 15.626h-3.014l-1.116-3.404zm-4.186-2.567h3.461l-1.675-5.692h-.111l-1.675 5.692zm19.31 2.789c0 1.953-1.284 3.181-3.907 3.181h-5.19v-11.384h4.744c2.176 0 3.85.781 3.85 2.79 0 1.228-.669 2.121-1.953 2.511v.056c1.507.391 2.456 1.339 2.456 2.846zm-6.307-5.804v2.009h1.451c1.005 0 1.563-.279 1.563-1.004 0-.726-.67-1.005-1.563-1.005h-1.451zm0 4.186v2.399h1.786c1.061 0 1.674-.39 1.674-1.227 0-.837-.613-1.172-1.674-1.172h-1.786zm14.566-2.679c0-1.116-.558-1.786-1.897-1.786-.949 0-2.009.224-3.014.614l-.837-2.232c1.339-.503 2.679-.782 4.13-.782 3.46 0 4.408 1.842 4.408 4.186v4.354c0 .558.335.781.782.781h.223v2.177c-.335.111-1.005.223-1.563.223-1.004 0-1.674-.391-2.009-1.116h-.111c-.782.781-1.675 1.116-3.014 1.116-2.176 0-3.516-1.06-3.516-3.405 0-2.176 1.73-3.404 4.242-3.404h2.12v-.726h.056zm0 4.186v-1.283h-2.009c-1.004 0-1.618.502-1.618 1.227 0 .782.558 1.172 1.227 1.172.949 0 1.842-.446 2.4-1.116zm8.706-7.144a4.22 4.22 0 012.958-1.228c3.236 0 4.687 2.456 4.687 5.916 0 3.46-1.451 5.915-4.855 5.915a9.273 9.273 0 01-2.623-.39v4.632l-2.79.446v-16.295h2.121l.446 1.004h.056zm4.799 4.744c0-2.065-.837-3.516-2.511-3.516-.781 0-1.507.446-2.121 1.116v5.357c.614.391 1.395.614 2.233.614 1.45-.056 2.399-1.339 2.399-3.571zm12.669-1.173h-.056l-4.576 6.809h-2.512v-11.385h2.791v6.808h.055l4.577-6.808h2.511v11.385h-2.79v-6.809zm13.337 0h-.112l-4.576 6.809h-2.511v-11.385h2.79v6.808h.056l4.576-6.808h2.512v11.385h-2.791v-6.809h.056zm1.563-8.427c-.837 1.507-2.177 2.288-3.795 2.288-1.619 0-2.958-.781-3.795-2.288l1.674-1.116c.447 1.005 1.172 1.507 2.121 1.507.949 0 1.618-.502 2.12-1.507l1.675 1.116zm13.896 15.292h-2.791v-4.688h-3.795v4.688h-2.79v-11.384h2.79v4.353h3.795v-4.353h2.791v11.384zm7.813-7.311c2.455 0 4.074 1.396 4.074 3.684 0 2.288-1.619 3.627-4.074 3.627h-4.465v-11.384h2.79v4.073h1.675zm-1.73 2.289v2.622h1.451c.893 0 1.451-.558 1.451-1.339 0-.781-.558-1.339-1.451-1.339h-1.451v.056zm9.877 5.022h-2.79v-11.384h2.79v11.384zm10.548-6.865h-.056l-4.576 6.809h-2.511v-11.385h2.79v6.808h.056l4.576-6.808h2.511v11.385h-2.79v-6.809zm1.563-8.427c-.838 1.507-2.177 2.288-3.795 2.288-1.619 0-2.958-.781-3.795-2.288l1.674-1.116c.447 1.005 1.172 1.507 2.121 1.507.948 0 1.618-.502 2.12-1.507l1.675 1.116zm-105.029 33.318c0 1.953-1.283 3.181-3.906 3.181h-5.19v-11.384h4.743c2.177 0 3.851.781 3.851 2.79 0 1.228-.67 2.121-1.953 2.511v.056c1.506.391 2.455 1.339 2.455 2.846zm-6.306-5.804v2.009h1.451c1.005 0 1.563-.279 1.563-1.004 0-.726-.67-1.005-1.563-1.005h-1.451zm0 4.186v2.4h1.842c1.06 0 1.674-.391 1.674-1.228s-.614-1.172-1.674-1.172h-1.842zm13.449-2.511c2.456 0 4.074 1.395 4.074 3.683s-1.618 3.627-4.074 3.627h-4.464v-11.384h2.79v4.074h1.674zm-1.674 2.288v2.623h1.451c.893 0 1.451-.559 1.451-1.34s-.558-1.339-1.451-1.339h-1.451v.056zm9.822 5.022h-2.79v-11.384h2.79v11.384zm7.478-3.85h-.055l-2.344 3.85h-3.07l3.795-5.859-3.571-5.525h3.013l2.121 3.627h.056l2.12-3.627h3.07l-3.572 5.525 3.795 5.859-2.846.223-2.512-4.073zm6.362-1.842c0-3.683 2.177-5.915 5.358-5.915 3.181 0 5.357 2.232 5.357 5.915 0 3.684-2.176 5.916-5.357 5.916-3.125 0-5.358-2.232-5.358-5.916zm2.847 0c0 2.233 1.06 3.516 2.567 3.516 1.506 0 2.567-1.339 2.567-3.516 0-2.176-1.061-3.515-2.567-3.515-1.507 0-2.567 1.283-2.567 3.515zm10.212 3.293c1.116-2.01 1.451-3.907 1.451-7.758v-1.227h7.813v8.985h1.786l-.447 5.245h-2.344v-2.846h-7.031v2.846h-2.344l-.447-5.245h1.563zm4.074-6.586c0 2.512-.223 4.911-1.116 6.586h3.516v-6.586h-2.4zM121.3 381.344l2.065-11.721h6.641l-.614 1.619h-4.465l-.558 3.237h3.963l-.279 1.618h-3.963l-.669 3.628h4.799l-.279 1.619H121.3zm20.928-6.419c0 .335-.056.67-.112 1.061l-.949 5.358h-1.73l.893-5.247c.056-.279.056-.502.056-.725 0-.893-.391-1.284-1.228-1.284-.558 0-1.172.391-1.674.837l-1.116 6.419h-1.674l.948-5.247c.056-.279.056-.558.056-.781 0-.837-.335-1.228-1.06-1.228-.614 0-1.395.558-1.897 1.172l-1.061 6.084h-1.73l1.507-8.54h1.228l.167.893h.056c.781-.725 1.507-1.06 2.4-1.06 1.06 0 1.674.335 1.953 1.06.837-.67 1.73-1.06 2.623-1.06 1.562 0 2.344.781 2.344 2.288zm1.339 3.18c0-2.958 1.73-5.525 4.743-5.525 1.619 0 2.791.781 2.791 2.232 0 1.73-1.507 2.958-5.804 2.958 0 1.339.446 2.232 1.953 2.232.726 0 1.34-.223 2.009-.558l.502 1.284c-.892.446-1.841.725-2.957.725-2.177.056-3.237-1.283-3.237-3.348zm1.953-1.73c3.237 0 3.851-.67 3.851-1.395 0-.558-.502-.893-1.228-.893-1.228 0-2.232 1.004-2.623 2.288zm11.831-1.952c-.223-.112-.446-.168-.837-.168-.949 0-1.73.949-2.121 2.121l-.893 4.968h-1.73l1.507-8.54h1.228l.112 1.34h.055c.614-.893 1.228-1.507 2.456-1.507.39 0 .725.056 1.06.167l-.837 1.619zm5.86 7.144l.223-1.061h-.056c-.781.67-1.451 1.005-2.399 1.005-1.898 0-2.791-1.116-2.791-3.349 0-2.958 1.898-5.525 4.911-5.525 1.172 0 2.233.223 3.405.669l-1.507 8.428c-.391 2.233-1.953 3.293-4.409 3.293-1.116 0-2.009-.279-2.902-.725l.781-1.396c.726.335 1.451.67 2.344.67 1.284 0 2.121-.558 2.4-2.009zm-3.293-3.572c0 1.339.503 2.065 1.619 2.065.67 0 1.507-.447 2.12-1.172l.782-4.465a4.354 4.354 0 00-1.73-.335c-1.563 0-2.791 1.73-2.791 3.907zm7.59.11c0-2.958 1.73-5.525 4.744-5.525 1.618 0 2.79.781 2.79 2.232 0 1.73-1.507 2.958-5.804 2.958 0 1.339.447 2.232 1.953 2.232.726 0 1.34-.223 2.009-.558l.503 1.284c-.893.446-1.842.725-2.958.725-2.177.056-3.237-1.283-3.237-3.348zm1.953-1.73c3.237 0 3.851-.67 3.851-1.395 0-.558-.502-.893-1.228-.893-1.228 0-2.232 1.004-2.623 2.288zm7.981 4.969h-1.73l1.506-8.54h1.228l.168.893h.055c.838-.725 1.619-1.06 2.568-1.06 1.562 0 2.288.781 2.288 2.288 0 .335-.056.726-.112 1.116l-.949 5.303h-1.73l.893-5.191c.056-.279.056-.558.056-.781 0-.893-.391-1.284-1.172-1.284-.67 0-1.507.558-2.121 1.172l-.948 6.084zm7.478-3.239c0-3.069 1.953-5.525 4.911-5.525.893 0 1.618.167 2.288.502l-.781 1.34c-.558-.224-1.116-.391-1.786-.391-1.563 0-2.902 1.618-2.902 3.907 0 1.339.781 2.064 1.897 2.064.558 0 1.34-.167 1.954-.39l.39 1.339c-.781.335-1.73.502-2.623.502-2.12.056-3.348-1.283-3.348-3.348zm7.366 5.192a2.1 2.1 0 00.893.224c.391 0 .782-.224 1.172-1.005l.614-1.228h-.558l-1.507-8.538h1.674l1.117 6.753h.055l3.293-6.753h1.842l-5.079 10.157c-.837 1.618-1.897 2.065-2.79 2.065-.614 0-1.116-.168-1.395-.335l.669-1.34zm12.947-5.192c0-2.958 1.73-5.525 4.744-5.525 1.618 0 2.79.781 2.79 2.232 0 1.73-1.506 2.958-5.804 2.958 0 1.339.447 2.232 1.954 2.232.725 0 1.339-.223 2.009-.558l.502 1.284c-.893.446-1.842.725-2.958.725-2.176.056-3.237-1.283-3.237-3.348zm2.009-1.73c3.237 0 3.851-.67 3.851-1.395 0-.558-.502-.893-1.228-.893-1.283 0-2.288 1.004-2.623 2.288zm9.711 1.788l-2.567 3.125h-2.009l3.683-4.464-2.009-4.074h1.842l1.451 3.014h.055l2.344-3.014h2.009l-3.46 4.241 2.121 4.297-1.73.168-1.73-3.293zm4.967-3.907l.558-1.452h2.958l-1.507 8.54h-1.73l1.227-7.088h-1.506zm3.125-5.024a1.06 1.06 0 110 2.121c-.614 0-1.06-.446-1.06-1.06a1.06 1.06 0 011.06-1.061zm3.739 1.451l1.786-.335-.447 2.4h2.567l-.558 1.451H229.9l-.837 4.633c0 .111-.056.223-.056.335 0 .614.391.837.949.837.446 0 .781-.056 1.227-.223l.168 1.395c-.67.223-1.284.279-1.898.279-1.339 0-2.288-.502-2.288-1.953 0-.224 0-.447.056-.726l.781-4.577h-1.45l.223-1.451h1.451l.558-2.065z" fill="#fff"/><path fill-rule="evenodd" clip-rule="evenodd" d="M287.269 291.941H126.378a6.3 6.3 0 01-6.306-6.306v-70.428a6.3 6.3 0 016.306-6.307h160.891a6.3 6.3 0 016.306 6.307v70.372c0 3.516-2.79 6.362-6.306 6.362z" fill="#fff"/><path d="M212.098 233.677l-2.958-5.357 50.951-28.127 12.222 22.1-20.09 11.05-2.958-5.358 14.677-8.092-6.25-11.384-45.594 25.168z" fill="#fff"/><path d="M206.751 197.661l-11.594 48.987 5.974 1.414 11.594-48.987-5.974-1.414z" fill="#D4000F"/><path d="M200.183 245.111l-4.194 4.483 50.537 47.271 4.194-4.484-50.537-47.27z" fill="#D4000F"/><path d="M195.096 246.757l-13.549 67.858 6.019 1.202 13.55-67.858-6.02-1.202z" fill="#D4000F"/><path d="M197.203 244.426l-83.015 25.65 1.812 5.865 83.015-25.65-1.812-5.865zm-18.722 20.12l-39.259 46.462 4.688 3.962 39.259-46.462-4.688-3.962z" fill="#D4000F"/><path d="M148.982 196.658l-4.216 4.461 51.273 48.458 4.216-4.461-51.273-48.458zm34.657.049l-5.794 2.027 8.761 25.046 5.795-2.027-8.762-25.046zm-68.846 25.767l-1.548 5.94 58.865 15.335 1.547-5.94-58.864-15.335z" fill="#D4000F"/><path fill-rule="evenodd" clip-rule="evenodd" d="M262.212 293.559h23.216l-34.712-62.894 17.412-9.598-9.208-16.686L210.647 231l-3.739 13.003 12.947 3.739.056-.056 13.003-7.143 29.298 53.016z" fill="#D4000F"/><path fill-rule="evenodd" clip-rule="evenodd" d="M203.559 241.38l-7.869-1.73-5.469 5.972 2.456 7.701 7.869 1.73 5.469-5.971-2.456-7.702z" fill="#fff"/><path fill-rule="evenodd" clip-rule="evenodd" d="M537.882 399.648H362.936c-11.108 0-15.351-4.297-15.351-15.347V209.347c0-11.106 4.299-15.347 15.351-15.347h174.946c11.108 0 15.351 4.297 15.351 15.347v174.954c.056 11.05-4.243 15.347-15.351 15.347z" fill="#D4000F"/><path d="M459.173 247.686V208.9l-41.252 9.543v4.577h-10.383v-4.242h-12.281v3.516c-17.081 2.79-30.199 17.021-30.199 34.098h9.266c0-11.998 8.932-22.044 20.878-24.666v5.859c-7.983 2.512-13.844 9.767-14.347 18.417l-.055 71.656h41.084l-.055-70.54v-.447c-.224-8.929-6.253-16.463-14.403-19.03v-5.413h10.383v4.688l41.364 10.77zm-89.705 112.562c-4.633 0-6.587-3.516-6.587-8.036s1.954-8.036 6.587-8.036 6.587 3.516 6.587 8.036-1.954 8.036-6.587 8.036zm0-13.505c-2.568 0-3.629 2.4-3.629 5.469 0 3.069 1.117 5.469 3.629 5.469 2.568 0 3.628-2.4 3.628-5.469 0-3.069-1.116-5.469-3.628-5.469zm16.802 1.898l-.446 2.399h-4.131v8.985h-2.791v-11.384h7.368zm11.053 11.384h-2.791v-4.688h-3.796v4.688h-2.791v-11.384h2.791v4.353h3.796v-4.353h2.791v11.384zm11.276-2.901l.949 2.176c-1.116.558-2.456.949-3.908.949-3.349 0-5.638-2.176-5.638-5.916 0-3.739 2.01-5.915 5.248-5.915 2.958 0 4.8 1.842 4.8 5.023 0 .334-.055 1.116-.111 1.73h-7.09c.279 1.73 1.507 2.678 2.959 2.678.893 0 2.009-.335 2.791-.725zm-1.116-4.074c0-1.284-.782-2.232-2.233-2.232-1.173 0-2.122.781-2.401 2.232h4.634zm3.907-4.409h9.88l-.446 2.399h-3.182v8.985h-2.735v-8.985h-3.517v-2.399zm18.086 0h2.959l-4.354 13.561c-.726 2.232-2.177 2.734-3.405 2.734a5.397 5.397 0 01-2.066-.446l.782-2.233c.335.112.781.28 1.172.28.335 0 .893-.168 1.116-1.005l.447-1.507h-.782l-3.795-11.384h3.014l2.512 7.98h.112l2.288-7.98zm18.701 11.384h-14.123v-11.384h2.791v8.985h2.903v-8.985h2.735v8.985h2.902v-8.985h2.792v11.384zm10.55-6.863h-.056l-4.577 6.809h-2.512v-11.385h2.791v6.808h.056l4.577-6.808h2.512v11.385h-2.791v-6.809zm4.801-4.521h9.88l-.447 2.399h-3.181v8.985h-2.736v-8.985h-3.516v-2.399zm19.37 8.483l.949 2.176c-1.117.558-2.457.949-3.908.949-3.349 0-5.638-2.176-5.638-5.916 0-3.739 2.01-5.915 5.247-5.915 2.959 0 4.801 1.842 4.801 5.023 0 .334-.056 1.116-.112 1.73h-7.089c.279 1.73 1.507 2.678 2.959 2.678.893 0 2.009-.335 2.791-.725zm-1.117-4.074c0-1.284-.781-2.232-2.233-2.232-1.172 0-2.121.781-2.4 2.232h4.633zm9.099-1.897c0 5.915-1.339 8.984-3.907 8.984-.614 0-1.173-.112-1.563-.391l.67-2.232c.167.112.335.112.558.112.893 0 1.563-1.451 1.563-7.589v-1.451h7.982v11.383h-2.791v-8.984h-2.568v.168h.056zm13.453 1.562c2.456 0 4.075 1.395 4.075 3.683s-1.619 3.627-4.075 3.627h-4.801v-11.384h2.792v4.074h2.009zm-2.009 2.288v2.623h1.786c.893 0 1.451-.559 1.451-1.34s-.558-1.339-1.451-1.339h-1.786v.056zm-136.764 21.43l-.837 4.911h-1.786l2.065-11.719h6.699l-.614 1.618h-4.578l-.614 3.572h4.578l-.279 1.618h-4.634zm5.917-2.176l.559-1.451h2.958l-1.507 8.538h-1.731l1.229-7.087h-1.508zm3.126-5.023a1.06 1.06 0 110 2.121c-.614 0-1.06-.446-1.06-1.06a1.06 1.06 0 011.06-1.061zm6.866 5.19c-.223-.111-.446-.167-.837-.167-.949 0-1.73.949-2.121 2.121l-.893 4.967h-1.731l1.507-8.539h1.228l.112 1.339h.056c.558-.892 1.228-1.506 2.456-1.506.391 0 .726.055 1.061.167l-.838 1.618zm.782 3.683c0-2.958 1.731-5.525 4.745-5.525 1.619 0 2.791.781 2.791 2.232 0 1.73-1.507 2.958-5.805 2.958 0 1.339.446 2.232 1.953 2.232.726 0 1.34-.223 2.01-.558l.502 1.284c-.893.446-1.842.725-2.958.725-2.177.056-3.238-1.283-3.238-3.348zm1.954-1.73c3.238 0 3.852-.67 3.852-1.395 0-.614-.503-.893-1.229-.893-1.228 0-2.232 1.004-2.623 2.288zm10.885 1.73c0-2.958 1.731-5.525 4.745-5.525 1.619 0 2.791.781 2.791 2.232 0 1.73-1.507 2.958-5.805 2.958 0 1.339.446 2.232 1.953 2.232.726 0 1.34-.223 2.01-.558l.502 1.284c-.893.446-1.842.725-2.958.725-2.177.056-3.238-1.283-3.238-3.348zm1.954-1.73c3.238 0 3.852-.67 3.852-1.395 0-.614-.503-.893-1.229-.893-1.228 0-2.232 1.004-2.623 2.288zm9.713 1.786l-2.568 3.125h-2.01l3.685-4.464-2.01-4.074h1.842l1.451 3.014h.056l2.345-3.014h2.009l-3.461 4.241 2.122 4.297-1.731.168-1.73-3.293zm7.201-7.479l1.786-.334-.447 2.455h2.568l-.558 1.451h-2.233l-.837 4.632c0 .112-.056.223-.056.335 0 .614.391.837.949.837.447 0 .782-.056 1.228-.223l.168 1.395c-.67.223-1.284.279-1.898.279-1.34 0-2.289-.502-2.289-1.953 0-.224 0-.447.056-.726l.781-4.576h-1.451l.223-1.451h1.452l.558-2.121zm4.131 3.573l.558-1.451h2.958l-1.507 8.538h-1.73l1.228-7.087h-1.507zm3.07-5.023a1.06 1.06 0 110 2.121c-.614 0-1.061-.446-1.061-1.06a1.06 1.06 0 011.061-1.061zm3.07 12.111h-1.73l1.507-8.539h1.228l.167.893h.056c.838-.725 1.619-1.06 2.568-1.06 1.563 0 2.289.781 2.289 2.288 0 .335-.056.725-.112 1.116l-.949 5.302h-1.73l.893-5.191c.056-.279.055-.558.055-.781 0-.893-.39-1.283-1.172-1.283-.67 0-1.507.558-2.121 1.172l-.949 6.083zm12.56.222l.223-1.116h-.056c-.781.669-1.451 1.004-2.4 1.004-1.898 0-2.791-1.116-2.791-3.348 0-2.958 1.898-5.525 4.912-5.525 1.173 0 2.233.223 3.405.67l-1.507 8.427c-.391 2.232-1.954 3.292-4.41 3.292-1.116 0-2.009-.279-2.902-.725l.781-1.396c.726.335 1.451.67 2.345.67 1.283.056 2.121-.502 2.4-1.953zm-3.294-3.572c0 1.34.503 2.065 1.619 2.065.67 0 1.507-.446 2.121-1.172l.782-4.464a4.338 4.338 0 00-1.731-.335c-1.563 0-2.791 1.73-2.791 3.906zm9.602.002c-.056.279-.056.558-.056.781 0 .893.447 1.284 1.284 1.284.67 0 1.675-.559 2.233-1.172l1.06-6.083h1.731l-1.507 8.538h-1.173l-.167-.893h-.056c-.837.781-1.898 1.06-2.847 1.06-1.563 0-2.4-.781-2.4-2.288 0-.334.056-.725.111-1.116l.949-5.301h1.731l-.893 5.19zm7.368-3.74l.558-1.451h2.959l-1.507 8.538h-1.731l1.228-7.087h-1.507zm3.126-5.023a1.06 1.06 0 110 2.121c-.614 0-1.06-.446-1.06-1.06 0-.614.446-1.061 1.06-1.061zm7.313 9.431c0 1.73-1.563 2.79-3.684 2.79-1.061 0-2.01-.223-2.736-.614l.782-1.339a4.756 4.756 0 002.121.502c.726 0 1.731-.39 1.731-1.227 0-.726-.726-1.005-1.563-1.284-.838-.335-2.01-1.004-2.01-2.4 0-1.674 1.451-2.511 3.294-2.511.949 0 1.898.223 2.735.558l-.782 1.284a4.817 4.817 0 00-2.009-.447c-.782 0-1.452.335-1.452 1.005 0 .669.726.948 1.34 1.227 1.005.503 2.233 1.172 2.233 2.456zm4.131-3.404l-1.061 6.083h-1.73l2.121-12.222 1.786-.335-.893 4.911h.056c.726-.67 1.619-1.06 2.456-1.06 1.563 0 2.289.781 2.289 2.232 0 .335-.056.726-.112 1.116l-.949 5.358h-1.73l.893-5.135c.056-.279.111-.558.111-.781 0-.893-.39-1.339-1.228-1.339-.558 0-1.395.558-2.009 1.172zm6.475 2.846c0-2.958 1.731-5.525 4.745-5.525 1.619 0 2.791.781 2.791 2.232 0 1.73-1.507 2.958-5.805 2.958 0 1.339.446 2.232 1.953 2.232.726 0 1.34-.223 2.01-.558l.502 1.284c-.893.446-1.842.725-2.958.725-2.177.056-3.238-1.283-3.238-3.348zm1.954-1.73c3.238 0 3.852-.67 3.852-1.395 0-.614-.503-.893-1.229-.893-1.228 0-2.232 1.004-2.623 2.288zm11.834-1.953c-.223-.111-.447-.167-.837-.167-.949 0-1.731.949-2.122 2.121l-.893 4.967h-1.73l1.507-8.539h1.228l.112 1.339h.056c.614-.892 1.228-1.506 2.456-1.506.39 0 .725.055 1.06.167l-.837 1.618z" fill="#fff"/><path fill-rule="evenodd" clip-rule="evenodd" d="M1174.18 399.648H999.235c-11.109 0-15.351-4.297-15.351-15.347V209.347c-.056-11.05 4.242-15.347 15.351-15.347h174.945c11.11 0 15.35 4.297 15.35 15.347v174.954c0 11.05-4.24 15.347-15.35 15.347z" fill="#0A9326"/><path d="M1000.85 363.318h-2.396l-.447-5.86h1.675c1.678-2.232 2.288-6.585 2.288-11.719v-1.284h9.6v13.059h2.12l-.44 5.86h-2.4v-3.293h-9.94v3.237h-.06zm7.82-5.916v-10.436h-3.91v.503c0 3.906-.78 7.757-1.95 9.933h5.86zm14.74-.279l.94 2.176c-1.11.558-2.45.949-3.9.949-3.35 0-5.64-2.177-5.64-5.916 0-3.739 2.01-5.916 5.25-5.916 2.96 0 4.8 1.842 4.8 5.023 0 .335-.06 1.116-.11 1.73h-7.09c.28 1.73 1.5 2.679 2.95 2.679.9 0 2.01-.335 2.8-.725zm-1.12-4.075c0-1.283-.78-2.232-2.23-2.232-1.18 0-2.12.781-2.4 2.232h4.63zm13.23 11.386l-2.79.502v-4.799c-.28.056-.62.111-1.17.111-3.47 0-4.75-2.622-4.75-5.915s1.28-5.916 4.75-5.916c.5 0 .78.056 1.17.112v-4.744l2.79-.502v5.246c.39-.056.72-.112 1.17-.112 3.46 0 4.75 2.623 4.75 5.916s-1.29 5.915-4.75 5.915c-.56 0-.89-.055-1.17-.111v4.297zm-2.74-13.561c-.22-.056-.5-.112-.83-.112-1.62 0-2.35 1.451-2.35 3.516 0 2.121.73 3.516 2.35 3.516.33 0 .61-.056.83-.112v-6.808zm2.68 6.864c.23.056.51.112.84.112 1.62 0 2.35-1.451 2.35-3.516 0-2.121-.73-3.516-2.35-3.516-.33 0-.67.056-.84.112v6.808zm15.86-4.577h-.06l-4.58 6.809h-2.51v-11.385h2.79v6.808h.06l4.58-6.808h2.51v11.385h-2.79v-6.809zm8.09-2.567c.89-.949 2.01-1.674 3.46-1.674 2.79 0 4.8 1.841 4.8 5.636 0 3.684-2.34 5.637-5.47 5.637-3.68 0-5.36-2.735-5.36-7.311 0-6.976 2.01-8.482 5.7-8.817 1.67-.168 2.56-.335 3.74-.837l.89 2.12c-1.28.67-2.85 1.005-4.35 1.116-2.35.168-3.46 1.228-3.46 4.074h.05v.056zm.22 2.4c0 3.237.9 4.855 2.57 4.855 1.51 0 2.68-1.06 2.68-3.237 0-2.176-1.06-3.237-2.4-3.237-.95 0-2.06.447-2.85 1.619zm13.51-3.404a4.237 4.237 0 012.96-1.228c3.24 0 4.69 2.456 4.69 5.916 0 3.46-1.45 5.915-4.86 5.915-.94 0-1.89-.167-2.62-.39v4.632l-2.79.446v-16.295h2.12l.45 1.004h.05zm4.8 4.744c0-2.065-.83-3.516-2.51-3.516-.78 0-1.51.446-2.12 1.116v5.357c.61.391 1.4.614 2.23.614 1.45-.056 2.4-1.339 2.4-3.571zm12.68-1.173h-.06l-4.58 6.809h-2.51v-11.385h2.79v6.808h.06l4.57-6.808h2.52v11.385h-2.79v-6.809zm10.15-2.009c0 5.916-1.33 8.985-3.9 8.985-.62 0-1.17-.112-1.57-.391l.67-2.232c.17.112.34.112.56.112.9 0 1.57-1.451 1.57-7.59v-1.451h7.98v11.385h-2.79v-8.985h-2.57v.167h.05zm12.62 0c0 5.916-1.34 8.985-3.91 8.985-.61 0-1.17-.112-1.56-.391l.67-2.232c.17.112.33.112.56.112.89 0 1.56-1.451 1.56-7.59v-1.451h8.04v11.385h-2.79v-8.985h-2.57v.167zm10.44 4.465c-1.34-.558-2.12-1.73-2.12-3.348 0-2.232 1.51-3.627 3.96-3.627h4.69v11.384h-2.79v-4.074h-1.12l-2.45 4.074h-3.02l2.85-4.409zm2.06-2.064h1.74v-2.568h-1.74c-.83 0-1.33.559-1.33 1.284 0 .781.5 1.284 1.33 1.284zm6.48-4.911h9.88l-.45 2.399h-3.18v8.985h-2.73v-8.985h-3.52v-2.399zm10.77 5.691c0-3.684 2.18-5.916 5.36-5.916s5.36 2.232 5.36 5.916-2.18 5.916-5.36 5.916-5.36-2.232-5.36-5.916zm2.85 0c0 2.232 1.06 3.516 2.57 3.516 1.51 0 2.57-1.339 2.57-3.516s-1.06-3.516-2.57-3.516c-1.51 0-2.57 1.284-2.57 3.516zm13.17-4.743a4.237 4.237 0 012.96-1.228c3.24 0 4.69 2.456 4.69 5.916 0 3.46-1.45 5.915-4.85 5.915-.95 0-1.9-.167-2.63-.39v4.632l-2.79.446v-16.295h2.12l.45 1.004h.05zm4.81 4.744c0-2.065-.84-3.516-2.52-3.516-.78 0-1.5.446-2.12 1.116v5.357c.62.391 1.4.614 2.23.614 1.51-.056 2.41-1.339 2.41-3.571zm-164.679 27.009l2.069-11.719h3.68c2.57 0 3.96 1.563 3.96 4.353 0 4.018-2.4 7.366-6.03 7.366h-3.679zm3.959-1.618c2.29 0 3.86-2.679 3.86-5.692 0-1.786-.84-2.791-2.35-2.791h-1.9l-1.5 8.483h1.89zm6.65-1.619c0-2.958 1.73-5.525 4.74-5.525 1.62 0 2.79.781 2.79 2.232 0 1.73-1.5 2.958-5.8 2.958 0 1.339.44 2.232 1.95 2.232.73 0 1.34-.223 2.01-.558l.5 1.284c-.89.446-1.84.725-2.96.725-2.17.056-3.23-1.283-3.23-3.348zm1.95-1.73c3.24 0 3.85-.67 3.85-1.395 0-.614-.5-.893-1.23-.893-1.22 0-2.23 1.004-2.62 2.288zm12.39-3.571l-.55 1.451h-1.79l-1.4 8.092c-.33 1.953-1.5 2.623-2.9 2.623-.67 0-1.4-.223-1.9-.502l.67-1.284c.45.223.78.391 1.23.391.56 0 1.01-.335 1.17-1.172l1.4-8.092h-1.4l.28-1.451h1.4l.22-1.116c.39-2.065 1.62-2.902 3.24-2.902.84 0 1.34.167 1.9.446l-.79 1.284c-.27-.168-.67-.279-1.17-.279-.72 0-1.28.446-1.45 1.451l-.22 1.116h2.06v-.056zm-.22 1.452l.56-1.452h2.96l-1.51 8.54h-1.73l1.23-7.088h-1.51zm3.07-5.024c.56 0 1.06.447 1.06 1.061 0 .614-.5 1.06-1.06 1.06-.61 0-1.06-.446-1.06-1.06 0-.614.5-1.061 1.06-1.061zm4.8 12.278c-1.17 0-2.23-.223-3.4-.67l2.06-11.718 1.79-.335-.9 4.911h.06c.78-.726 1.56-1.061 2.4-1.061 1.84 0 2.74 1.34 2.74 3.348.11 2.958-1.68 5.525-4.75 5.525zm1.51-7.422c-.67 0-1.57.558-2.12 1.172l-.78 4.464c.55.223 1.11.335 1.78.335 1.62 0 2.74-1.73 2.74-3.906-.06-1.395-.62-2.065-1.62-2.065zm9.99.336c-.22-.111-.45-.167-.84-.167-.95 0-1.73.949-2.12 2.121l-.89 4.967h-1.73l1.51-8.539h1.22l.11 1.339h.06c.61-.892 1.23-1.506 2.46-1.506.39 0 .72.055 1.06.167l-.84 1.618zm.78-.168l.56-1.452h2.96l-1.51 8.54h-1.73l1.23-7.088h-1.51zm3.07-5.024c.56 0 1.06.447 1.06 1.061 0 .614-.5 1.06-1.06 1.06-.61 0-1.06-.446-1.06-1.06 0-.614.5-1.061 1.06-1.061zm4.86 11.999c-.56.223-1.01.279-1.45.279-1.23 0-1.85-.502-1.85-1.674 0-.223 0-.447.06-.726l1.73-9.988 1.79-.335-1.84 10.323c0 .112-.06.224-.06.335 0 .447.22.614.56.614.28 0 .44-.056.78-.167l.28 1.339zm4.63 0c-.56.223-1 .279-1.45.279-1.23 0-1.84-.502-1.84-1.674 0-.223 0-.447.05-.726l1.73-9.988 1.79-.335-1.84 10.323c0 .112-.06.224-.06.335 0 .447.23.614.56.614.28 0 .45-.056.78-.167l.28 1.339zm9.38-7.978l-1.4 8.092h-1.17l-.17-.893h-.05c-.73.669-1.51 1.06-2.57 1.06-1.84 0-2.62-1.339-2.62-3.348 0-2.958 1.78-5.525 4.8-5.525 1.23 0 2.23.279 3.18.614zm-6.2 4.743c0 1.284.45 2.065 1.4 2.065.84 0 1.51-.446 2.12-1.228l.78-4.409a4.326 4.326 0 00-1.56-.279c-1.62-.055-2.74 1.675-2.74 3.851zm9.49-7.312l1.79-.334-.45 2.455h2.57l-.56 1.451h-2.23l-.84 4.631c0 .112-.05.223-.05.335 0 .614.39.837.95.837.44 0 .78-.056 1.22-.223l.17 1.395c-.67.223-1.28.279-1.9.279-1.34 0-2.29-.502-2.29-1.953 0-.223 0-.447.06-.726l.78-4.575h-1.45l.22-1.451h1.45l.56-2.121zm8.88 1.955c2.18 0 3.24 1.339 3.24 3.348 0 2.958-1.79 5.525-4.8 5.525-2.13 0-3.24-1.116-3.24-3.348 0-3.014 1.78-5.525 4.8-5.525zm-1.29 7.422c1.62 0 2.74-1.73 2.74-3.907 0-1.339-.56-2.009-1.67-2.009-1.62 0-2.74 1.73-2.74 3.907 0 1.283.56 2.009 1.67 2.009zm11.17-5.637c-.22-.111-.45-.167-.84-.167-.95 0-1.73.949-2.12 2.121l-.89 4.967h-1.73l1.5-8.539h1.23l.11 1.339h.06c.61-.892 1.23-1.506 2.46-1.506.39 0 .72.055 1.06.167l-.84 1.618zm-32.71-49.557c-3.35-3.013-6.59-5.971-9.88-8.929-5.81-5.357-11.67-10.659-17.48-16.072-6.36-6.027-12.56-12.222-18.08-19.03-4.19-5.19-7.98-10.659-10.44-16.909-2.568-6.474-3.629-13.17-2.456-20.09 1.451-8.371 5.466-15.124 12.226-20.258 4.58-3.46 9.71-5.581 15.46-6.195 11.17-1.227 20.66 2.288 28.75 9.878.67.614 1.23 1.284 1.79 1.898.83-.782 1.67-1.563 2.51-2.344 5.3-5.023 11.55-8.204 18.75-9.32 9.55-1.507 18.26.67 25.79 6.697 6.2 4.967 10 11.496 11.34 19.365 1.56 8.873-.45 17.076-4.58 24.889-3.13 5.86-7.15 11.106-11.5 16.128-6.42 7.311-13.45 14.063-20.66 20.648-7.08 6.474-14.17 12.947-21.26 19.421-.06.056-.12.112-.28.223z" fill="#fff"/><path d="M1039.15 295.959l14.85-33.205 20.43-.111-32.32 33.316h-2.96z" fill="#0A9326"/><path d="M1071.58 236.748l-14.85 33.205-20.37.112 32.26-33.317h2.96z" fill="#0A9326"/><path fill-rule="evenodd" clip-rule="evenodd" d="M930.301 399.648H755.347c-11.05 0-15.347-4.297-15.347-15.347V209.347c0-11.05 4.297-15.347 15.347-15.347h174.954c11.106 0 15.347 4.297 15.347 15.347v174.954c0 11.05-4.297 15.347-15.347 15.347z" fill="#0A9326"/><path fill-rule="evenodd" clip-rule="evenodd" d="M819.859 222.127h-32.033v32.312h-31.977v31.363h31.977v32.368h32.033v-32.368h32.033v-31.363h-32.033v-32.312z" fill="#fff"/><path d="M763.495 356.621h-4.967l-1.005 3.404h-3.013l5.246-15.627h2.567l5.246 15.627h-3.014l-1.06-3.404zm-4.242-2.567h3.46l-1.674-5.693h-.111l-1.675 5.693zm19.477 5.971h-2.79v-8.985h-3.628v8.985h-2.79v-11.384h9.152v11.384h.056zm2.009-11.384h9.878l-.447 2.399h-3.181v8.985h-2.734v-8.985h-3.516v-2.399zm19.365 8.483l.949 2.176c-1.116.558-2.456.949-3.907.949-3.348 0-5.636-2.176-5.636-5.916 0-3.739 2.009-5.915 5.246-5.915 2.957 0 4.799 1.842 4.799 5.023 0 .334-.056 1.116-.112 1.73H794.3c.279 1.73 1.507 2.678 2.958 2.678.949 0 2.065-.335 2.846-.725zm-1.116-4.074c0-1.284-.781-2.232-2.232-2.232-1.172 0-2.121.781-2.4 2.232h4.632zm4.576-.67v-3.739h2.79v3.571c0 1.061.782 1.507 1.619 1.507.669 0 1.283-.112 1.841-.279v-4.799h2.791v11.384h-2.791v-4.241c-.614.167-1.451.335-2.176.335-2.288-.056-4.074-1.228-4.074-3.739zm16.072 2.957h-1.004v4.688h-2.791v-11.384h2.791v4.353h1.004l2.623-4.353h2.791l-3.349 5.469 3.572 5.915-2.846.223-2.791-4.911zm12.947-2.79c0-1.116-.558-1.786-1.897-1.786-.949 0-2.009.223-3.014.614l-.837-2.232c1.34-.503 2.679-.782 4.13-.782 3.46 0 4.409 1.842 4.409 4.186v4.353c0 .558.335.781.781.781h.223v2.177c-.335.111-1.004.223-1.562.223-1.005 0-1.675-.391-2.009-1.116h-.112c-.781.781-1.674 1.116-3.014 1.116-2.176 0-3.515-1.061-3.515-3.404 0-2.177 1.73-3.405 4.241-3.405h2.121v-.725h.055zm0 4.185v-1.283h-2.009c-1.004 0-1.618.502-1.618 1.228 0 .781.558 1.171 1.228 1.171.948 0 1.841-.446 2.399-1.116zm-74.557 19.7l-.837 4.912h-1.786l2.065-11.721h6.696l-.613 1.619h-4.577l-.613 3.572h4.52l-.279 1.618h-4.576zm5.971-2.176l.558-1.452h2.958l-1.507 8.54h-1.73l1.228-7.088h-1.507zm3.125-5.024a1.06 1.06 0 110 2.121c-.614 0-1.06-.446-1.06-1.06 0-.614.446-1.061 1.06-1.061zm6.864 5.191c-.223-.112-.446-.168-.837-.168-.948 0-1.73.949-2.12 2.121l-.893 4.968h-1.73l1.507-8.54h1.227l.112 1.34h.056c.558-.893 1.227-1.507 2.455-1.507.391 0 .726.056 1.061.167l-.838 1.619zm6.474 4.242c0 1.73-1.563 2.79-3.683 2.79-1.061 0-2.009-.223-2.735-.614l.782-1.339a4.751 4.751 0 002.12.502c.726 0 1.73-.39 1.73-1.227 0-.726-.725-1.005-1.562-1.284-.837-.335-2.009-1.004-2.009-2.4 0-1.674 1.451-2.511 3.292-2.511.949 0 1.953.223 2.735.558l-.782 1.284a4.81 4.81 0 00-2.009-.447c-.781 0-1.451.335-1.451 1.005 0 .669.726.948 1.34 1.227 1.004.503 2.232 1.172 2.232 2.456zm3.795-7.981l1.786-.334-.447 2.455h2.567l-.558 1.451h-2.232l-.837 4.631c0 .112-.056.223-.056.335 0 .614.391.837.949.837.446 0 .781-.056 1.228-.223l.167 1.395c-.67.223-1.284.279-1.897.279-1.34 0-2.288-.502-2.288-1.953 0-.223 0-.447.055-.726l.782-4.575h-1.451l.223-1.451h1.451l.558-2.121zm16.463 2.567l-1.395 8.092h-1.172l-.168-.893h-.055c-.726.669-1.507 1.06-2.568 1.06-1.841 0-2.623-1.339-2.623-3.348 0-2.958 1.786-5.525 4.8-5.525 1.228 0 2.232.279 3.181.614zm-6.195 4.743c0 1.284.447 2.065 1.395 2.065.838 0 1.507-.446 2.121-1.228l.781-4.408a4.324 4.324 0 00-1.562-.28c-1.619-.055-2.735 1.675-2.735 3.851zm7.311-3.738l.558-1.452h2.958l-1.507 8.54h-1.73l1.228-7.088h-1.507zm3.125-5.024a1.06 1.06 0 110 2.121c-.614 0-1.06-.446-1.06-1.06 0-.614.446-1.061 1.06-1.061zm6.362 3.406c.726 0 1.34.167 1.842.39l.67-3.906 1.785-.335-2.232 12.557h-1.172l-.167-.893h-.056c-.781.669-1.618 1.06-2.735 1.06-1.73 0-2.79-1.116-2.79-3.348.056-3.014 1.842-5.525 4.855-5.525zm.782 6.194l.725-4.185c-.446-.335-1.06-.558-1.786-.558-1.618 0-2.734 1.73-2.734 3.906 0 1.34.614 2.065 1.73 2.065.781 0 1.451-.446 2.065-1.228zm14.453-6.027h1.786l-3.46 4.186c.391 1.674 1.284 3.069 2.4 4.353l-1.898.167c-.893-1.172-1.562-2.4-1.953-3.851h-.949l-.669 3.684h-1.73l2.12-12.222 1.786-.335-1.283 7.422h.893l2.957-3.404zm2.065 1.451l.558-1.452h2.958l-1.507 8.54h-1.73l1.228-7.088h-1.507zm3.125-5.024a1.06 1.06 0 110 2.121c-.613 0-1.06-.446-1.06-1.06 0-.614.447-1.061 1.06-1.061zm3.74 1.452l1.785-.334-.446 2.455h2.567l-.558 1.451h-2.232l-.837 4.631c0 .112-.056.223-.056.335 0 .614.39.837.948.837.447 0 .782-.056 1.228-.223l.168 1.395c-.67.223-1.284.279-1.898.279-1.339 0-2.288-.502-2.288-1.953 0-.223 0-.447.056-.726l.781-4.575h-1.451l.223-1.451h1.451l.559-2.121z" fill="#fff"/></svg>