<svg id="Layer_1" data-name="Layer 1" xmlns="http://www.w3.org/2000/svg" viewBox="0 0 1656.59 511.14"><defs><style>.cls-1{fill:#00b400;fill-rule:evenodd}</style></defs><path class="cls-1" d="M261.43 404.48v16.43h67.45v-25.08h-16.87v8.65h-20.75v-13.4h19.46v-16.43h-19.46v-12.54h20.75v8.65h16.87v-25.08h-67.45v16.43h8.22v42.37h-8.22zM318.51 468a20.13 20.13 0 005.78-13.93c0-10.54-7.56-20.39-23-20.39h-39.86v16.65h7.82v42.47h-7.82v16.31h45.22c15.91 0 24.09-11.21 24.09-22.43 0-7.47-3.39-14.61-12.23-18.68zm-27.18-17.67h5.78c4.75 0 7.13 3.06 7.13 6.45s-2.38 6.46-7.13 6.46h-5.78zm9.85 42.47h-9.85v-14.61h10.19a7.62 7.62 0 017.82 7.47c0 3.4-3.06 7.14-8.16 7.14zm33.93-88.68v16.65h37.38v-16.65H366v-7.81h10.64c5.09 16 15.45 24.46 37.33 24.46h48.27v-16.65h-11.86v-42.47h11.89v-16h-45.19v16H429v42.47h-14c-8.78 0-15.85-3.06-17.21-11.21a25.82 25.82 0 0013.59-22.3c0-14-10.14-24.93-30.24-24.93h-46v16H344v42.47zM366 361.65h10.13c6.78 0 12.36 2 12.36 9.17 0 6.78-5.58 9.18-12.36 9.18H366zm194.42 103.78h-36.26v16h17.23v6.3c-4.38 3.8-8.83 5-14.6 5-10.88-.34-18-9.45-18-21.68 0-13.36 6.75-21.37 18-21.37a19.5 19.5 0 0110.65 2.66l.08 7.86h19v-17.62c-7.18-6-16.19-10.26-31.13-10.26-25.86 0-38.39 18.92-38.39 39.07a39.31 39.31 0 003.74 17.67c-5.62 5.43-17.34 3.21-21.19-8.09a25.8 25.8 0 0013.72-22.36c0-14-10.14-24.93-30.24-24.93h-80.15v16.65h9.85v29.22c0 8.83-5.78 13.25-11.9 13.25s-12.57-4.76-12.57-13.25v-29.22h8.16v-16.65h-38.05v16.65h7.13v28.2c0 22.42 17.33 32.61 34.31 32.61 19.37 0 34.32-11.55 34.32-32.61v-28.2h13.38v42.47h-9.3v16.31h37.37V492.8h-6.67v-8.16h9.73c10.11 27.6 38.67 29.66 55 19.71 4.42 3.4 12.57 6.11 22.76 6.11 17.33 0 28.88-7.41 34-16.92zm-111.63 3.25h-9.88v-18.35h9.88c6.78 0 12.36 2 12.36 9.17 0 6.78-5.58 9.18-12.36 9.18zM1640.7 58.01l-7.95-4.96-7.94-4.96-7.95 4.96-7.94 4.96-7.95-4.96-7.94-4.96-7.95 4.96-7.95 4.96-7.94-4.96-7.95-4.96-7.94 4.96-7.95 4.96-7.94-4.96-7.95-4.96-7.94 4.96-7.95 4.96-7.94-4.96-7.95-4.96-7.95 4.96-7.94 4.96-7.95-4.96-7.94-4.96-7.95 4.96-7.94 4.96-7.95-4.96-7.94-4.96-7.95 4.96-7.95 4.96-7.94-4.96-7.95-4.96-7.94 4.96-7.95 4.96-7.94-4.96-7.93-4.95v9.92l7.93 4.95 7.94 4.97 7.95-4.97 7.94-4.96 7.95 4.96 7.94 4.97 7.95-4.97 7.95-4.96 7.94 4.96 7.95 4.97 7.94-4.97 7.95-4.96 7.94 4.96 7.95 4.97 7.94-4.97 7.95-4.96 7.95 4.96 7.94 4.97 7.95-4.97 7.94-4.96 7.95 4.96 7.94 4.97 7.95-4.97 7.94-4.96 7.95 4.96 7.94 4.97 7.95-4.97 7.95-4.96 7.94 4.96 7.95 4.97 7.94-4.97 7.95-4.96 7.94 4.96 7.95 4.97 7.94-4.97 7.95-4.96v-9.92l-7.95 4.96-7.94 4.96zm-262.2-43.13l7.94 4.96 7.95-4.96 7.94-4.96 7.95 4.96 7.94 4.96 15.9-9.92 7.94 4.96 7.95 4.96 7.94-4.96 7.95-4.96 7.94 4.96 7.95 4.96 7.94-4.96 7.95-4.96 7.95 4.96 7.94 4.96 7.95-4.96 7.94-4.96 7.95 4.96 7.94 4.96 7.95-4.96 7.94-4.96 7.95 4.96 7.94 4.96 15.9-9.92 7.94 4.96 7.95 4.96 7.94-4.96 7.95-4.96 7.94 4.96 7.95 4.96 7.94-4.96 7.95-4.96V0l-7.95 4.96-7.94 4.96-7.95-4.96-7.94-4.96-7.95 4.96-7.94 4.96-7.95-4.96-7.94-4.96-15.9 9.92-7.94-4.96-7.95-4.96-7.94 4.96-7.95 4.96-7.94-4.96-7.95-4.96-7.94 4.96-7.95 4.96-7.94-4.96-7.95-4.96-7.95 4.96-7.94 4.96-7.95-4.96L1465.9 0l-7.95 4.96-7.94 4.96-7.95-4.96-7.94-4.96-7.95 4.96-7.95 4.96-7.94-4.96-7.95-4.96-7.94 4.96-7.95 4.96-7.94-4.96-7.93-4.95V0l-58.71 32.58h58.71v1.4l7.93 4.95 7.94 4.96 7.95-4.96 7.94-4.96 7.95 4.96 7.94 4.96 15.9-9.92 7.94 4.96 7.95 4.96 7.94-4.96 7.95-4.96 7.94 4.96 7.95 4.96 7.94-4.96 7.95-4.96 7.95 4.96 7.94 4.96 7.95-4.96 7.94-4.96 7.95 4.96 7.94 4.96 7.95-4.96 7.94-4.96 7.95 4.96 7.94 4.96 15.9-9.92 7.94 4.96 7.95 4.96 7.94-4.96 7.95-4.96 7.94 4.96 7.95 4.96 7.94-4.96 7.95-4.96v-9.92l-7.95 4.96-7.94 4.96-7.95-4.96-7.94-4.96-7.95 4.96-7.94 4.96-7.95-4.96-7.94-4.96-7.95 4.96-7.95 4.96-7.94-4.96-7.95-4.96-7.94 4.96-7.95 4.96-7.94-4.96-7.95-4.96-7.94 4.96-7.95 4.96-7.94-4.96-7.95-4.96-7.95 4.96-7.94 4.96-7.95-4.96-7.94-4.96-7.95 4.96-7.94 4.96-7.95-4.96-7.94-4.96-7.95 4.96-7.95 4.96-7.94-4.96-7.95-4.96-7.94 4.96-7.95 4.96-7.94-4.96-7.93-4.95V9.93l7.93 4.95zm-349.22 151.4l3.15 2.78a73.25 73.25 0 0096.75 0l3.15-2.78a49.55 49.55 0 0165.47 0l3.15 2.78a73.23 73.23 0 0096.74 0l3.15-2.78a49.56 49.56 0 0165.48 0l3.15 2.78 1.1.95v-29.69a73.28 73.28 0 00-85.36 8.24l-3.15 2.77a49.55 49.55 0 01-65.47 0l-3.15-2.77a73.25 73.25 0 00-96.75 0l-3.15 2.77a49.55 49.55 0 01-65.47 0l-3.15-2.77a73.27 73.27 0 00-85.19-8.34v29.64l.93-.8 3.15-2.78a49.55 49.55 0 0165.47 0z"/><path class="cls-1" d="M959.73 221.45l.93-.8 3.15-2.78a49.57 49.57 0 0165.47 0l3.15 2.78a73.25 73.25 0 0096.75 0l3.15-2.78a49.57 49.57 0 0165.47 0l3.15 2.78a73.23 73.23 0 0096.74 0l3.15-2.78a49.59 49.59 0 0165.48 0l3.15 2.78 1.1.95v-29.69a73.28 73.28 0 00-85.36 8.24l-3.15 2.78a49.57 49.57 0 01-65.47 0l-3.15-2.78a73.25 73.25 0 00-96.75 0l-3.15 2.78a49.57 49.57 0 01-65.47 0l-3.15-2.78a73.27 73.27 0 00-85.19-8.34z"/><path class="cls-1" d="M959.73 257h91.38c-1-.78-2-1.61-3-2.48l-3.15-2.77a73.29 73.29 0 00-85.19-8.35zm156.96-5.26l-3.15 2.78c-1 .87-2 1.7-3 2.48h109.13c-1-.78-2.05-1.61-3-2.48l-3.15-2.77a73.25 73.25 0 00-96.83-.01zm168.52 0l-3.15 2.78c-1 .87-2 1.7-3 2.48h91.55v-13.49a73.28 73.28 0 00-85.4 8.23zm258.2 66.12h-.01l-56.59 38.57-56.59-38.57-56.59 38.57-56.6-38.57-56.59 38.58v.09l-56.58-38.57h-.01l-56.59 38.57-54.68-37.27v12.63L1017.84 257H994.5l98.08 98.29v-8.72l54.68 37.28 56.59-38.58 56.6 38.58 56.59-38.58 56.59 38.58 56.59-38.58v-.09l56.59 38.57 56.59-38.58 56.6 38.58 56.59-38.58v-27.31L1600 356.44l-56.59-38.58zM705.09 210.2l-18.77 12.96-18.77-12.96-5.25-3.62-24.01 16.58-24.01-16.58-24.02 16.58-24.01-16.58-24.02 16.58-24.01-16.58-24.02 16.58-24.01-16.58-24.01 16.58-24.02-16.58-12.13 8.38v11.73l12.13-8.37 24.02 16.57 24.01-16.57 24.01 16.57 24.02-16.57 24.01 16.57 24.02-16.57 24.01 16.57 24.02-16.57 24.01 16.57 24.01-16.57 24.02 16.57 24.01-16.57 13.99 9.65v-11.73l-13.99-9.66-5.24 3.62z"/><path class="cls-1" d="M1040.42 257l52.16 52.08v-23.34L1063.79 257h-23.37zm-140.97-.04h-24.03l126.95 126.89H979L852.12 257.01h-10.1l14.41-23.12h-14.24l14.48-23.22h-14.48l14.57-23.37h-14.57l14.64-23.48 14.67 23.48h-14.61l14.61 23.37h-14.51l14.51 23.22h-14.62L871.33 257l.01-.04 14.4-23.11H871.5l14.48-23.22H871.5l14.57-23.38H871.5l14.64-23.47 14.68 23.47H886.2l14.62 23.38H886.3l14.52 23.22H886.2l14.45 23.11.28.04 14.41-23.11H901.1l14.47-23.22H901.1l14.57-23.37H901.1l14.63-23.48 14.68 23.48H915.8l14.61 23.37h-14.52l14.52 23.22h-14.62l14.45 23.12h-7.4l126.91 126.84h-23.37L899.45 256.96zM50.5 48.9l2.39-2.07a38.12 38.12 0 0149.69 0L105 48.9a56.32 56.32 0 0073.41 0l2.39-2.07a38.1 38.1 0 0149.68 0l2.39 2.07a56.32 56.32 0 0073.41 0l2.39-2.07a38.12 38.12 0 0149.69 0l2.39 2.07A56.27 56.27 0 00410 61.1V42.76a38.1 38.1 0 01-37.43-7.08l-2.38-2.07a56.33 56.33 0 00-73.42 0l-2.39 2.07a38.1 38.1 0 01-49.68 0l-2.39-2.07a56.32 56.32 0 00-73.41 0l-2.4 2.07a38.1 38.1 0 01-49.68 0l-2.38-2.07a56.33 56.33 0 00-73.42 0l-2.39 2.07A38.12 38.12 0 010 42.32v18.49A56.29 56.29 0 0050.5 48.9zm0-38.71l2.39-2.07A37.44 37.44 0 0168.69 0H34.62A38.2 38.2 0 010 3.61V22.1a56.29 56.29 0 0050.5-11.91z"/><path class="cls-1" d="M105 10.19a56.32 56.32 0 0073.41 0l2.39-2.07A37.32 37.32 0 01196.57 0h-34.08a38.16 38.16 0 01-41.64 0H86.78a37.44 37.44 0 0115.8 8.12zm127.84 0a56.32 56.32 0 0073.41 0l2.39-2.07A37.41 37.41 0 01324.45 0h-34.08a38.16 38.16 0 01-41.64 0h-34.08a37.44 37.44 0 0115.8 8.12zm127.88 0A56.25 56.25 0 00410 22.38V4.05A38.2 38.2 0 01376.6 0h-34.08a37.41 37.41 0 0115.81 8.12zM50.5 87.6l2.39-2.07a38.14 38.14 0 0149.69 0l2.42 2.08a56.33 56.33 0 0073.41 0l2.39-2.07a38.13 38.13 0 0149.68 0l2.39 2.07a56.32 56.32 0 0073.41 0l2.39-2.08a38.14 38.14 0 0149.69 0l2.39 2.08A56.27 56.27 0 00410 99.8V81.48a38.09 38.09 0 01-37.4-7.09l-2.38-2.07a56.33 56.33 0 00-73.42 0l-2.39 2.07a38.1 38.1 0 01-49.68 0l-2.39-2.07a56.32 56.32 0 00-73.41 0l-2.4 2.07a38.1 38.1 0 01-49.68 0l-2.38-2.07a56.33 56.33 0 00-73.42 0l-2.39 2.07A38.12 38.12 0 010 81v18.51A56.29 56.29 0 0050.5 87.6z"/><path class="cls-1" d="M50.5 126.31l2.39-2.07a38.14 38.14 0 0149.69 0l2.39 2.07a56.32 56.32 0 0073.41 0l2.39-2.07a38.11 38.11 0 0149.68 0l2.39 2.07a56.32 56.32 0 0073.41 0l2.39-2.07a38.13 38.13 0 0149.69 0l2.39 2.07a56.19 56.19 0 0049.28 12.2v-18.32a38.13 38.13 0 01-37.38-7.09l-2.42-2.1a56.33 56.33 0 00-73.42 0l-2.39 2.07a38.13 38.13 0 01-49.68 0l-2.39-2.07a56.32 56.32 0 00-73.41 0l-2.4 2.07a38.11 38.11 0 01-49.68 0l-2.38-2.07A56.33 56.33 0 0041 111l-2.39 2.07A38.14 38.14 0 010 119.74v18.47a56.26 56.26 0 0050.5-11.9zm909.2 320.17v62.63l132.88-62.63H959.7zm-399.28 0v62.63l266.41-62.63H560.42z"/><path class="cls-1" d="M826.83 383.85v125.26H959.7l-132.87-62.63 265.75-62.63H826.83zm-87.71-243.56l-14.63 23.48h29.31l-14.68-23.48z"/><path class="cls-1" d="M720.4 383.85h-13.14l119.57-119.06v13.1zm106.43-103.41l103.44 103.41h23.36L826.83 257.1v-.1h15l-14.45-23.12H842l-14.52-23.22H842l-14.57-23.36H842l-14.68-23.48-14.59 23.48h14.57l-14.57 23.37h14.48l-14.48 23.22H827L812.56 257H818L690.63 383.86h-43.37L774.28 257H783l-14.45-23.11h14.62l-14.52-23.22h14.52l-14.61-23.38h14.61l-14.68-23.47-14.63 23.47h14.57l-14.57 23.38h14.44l-14.48 23.22h14.24L753.65 257h4.05l-127 126.89h-13.37L745 257h8.64l-14.45-23.12h14.61l-14.52-23.22h14.52l-14.62-23.36h14.62l-14.68-23.48-14.63 23.48h14.57l-14.57 23.37H739l-14.47 23.22h14.24L724.32 257h4L600.68 383.85h-13L715.17 257h-16.64L571 383.85h-10.58v62.63l133.2-62.62v62.62l133.21-62.62v-8.93l8.93 8.93h23.36l-32.29-32.28v-14.27l-46.71 46.54h-13.27l60-59.69V328l55.89 55.87h23.37l-79.26-79.23v3l-76.61 76.25H737l89.81-89.41zm0 73.43v13.44l-16.62 16.54h-13.48zm-28.78-213.58l-14.63 23.48h29.31l-14.68-23.48z"/><path class="cls-1" d="M560.76 351.53L655.74 257h-16.63l-78.35 77.97v10.71h-38.73v15.97h9.14v27.14l-30.26-43.11H468.6v15.97h8.86v42.47h-8.86v16.65h39.08v-16.65h-8.81V378l29.59 42.77h24.12v-59.12h8.18v-10.12z"/><path class="cls-1" d="M504.83 273.43h9.08v42.37h-7.78v16.43h38.04V315.8h-8.21v-42.37h9.08v8.22h15.72v10.68l35.5-35.33h-16.63l-18.16 18.08v-13.1l5-4.98h-77.64v24.65h16v-8.22z"/><path class="cls-1" d="M560.76 321.86L626.08 257h-16.66l-48.66 48.32v16.54zm0 59.54L685.21 257h-16.57L560.76 364.84v16.56zm251.97-170.73h-14.52l14.52 23.22h-14.62l14.45 23.12h-8.04L677.21 383.85h-16.62L787.9 257.01h-4.65l14.41-23.12h-14.24l14.47-23.22h-14.47l14.57-23.37h-14.57l14.63-23.48 14.68 23.48h-14.62l14.62 23.37zm14.63-70.38l-14.63 23.48h29.31l-14.68-23.48zm14.83 23.48h29.31l-14.67-23.48-14.64 23.48zm73.54-23.48l-14.63 23.48h29.31l-14.68-23.48zM947.39 257l127.04 126.85h18.15v-5.23L970.76 257h-11.21l-14.44-23.11h14.62l-14.52-23.22h14.52l-14.62-23.37h14.62l-14.68-23.48-14.64 23.48h14.57l-14.57 23.37h14.48l-14.48 23.22h14.24L930.25 257h17.14zm-2.34-116.71l-14.64 23.48h29.32l-14.68-23.48zM1326 411.63l-1.25 1.11a19.77 19.77 0 01-26.12 0l-1.25-1.11a29.22 29.22 0 00-38.59 0l-1.25 1.11a19.77 19.77 0 01-26.12 0l-1.25-1.11a29.22 29.22 0 00-38.59 0l-1.25 1.11a19.77 19.77 0 01-26.12 0l-1.25-1.11a29.22 29.22 0 00-38.59 0l-1.25 1.11a19.77 19.77 0 01-26.12 0l-1.25-1.11a28.77 28.77 0 00-3.14-2.41v12.08a29.22 29.22 0 0036.74-1.49l1.26-1.11a19.76 19.76 0 0126.11 0l1.26 1.11a29.21 29.21 0 0038.58 0l1.26-1.11a19.76 19.76 0 0126.11 0l1.26 1.11a29.21 29.21 0 0038.58 0l1.26-1.11a19.76 19.76 0 0126.11 0l1.26 1.11a29.21 29.21 0 0038.58 0l1.26-1.11a19.76 19.76 0 0126.11 0l1.41 1.25a28.34 28.34 0 0013.25 6.51v-9.68a19 19 0 01-7-3.9l-1.41-1.25a29.22 29.22 0 00-38.6 0z"/><path class="cls-1" d="M1373 396.41a19 19 0 01-7.48-4l-1.41-1.24a29.21 29.21 0 00-38.58 0l-1.26 1.11a19.78 19.78 0 01-26.11 0l-1.26-1.11a29.2 29.2 0 00-38.58 0l-1.26 1.11a19.78 19.78 0 01-26.11 0l-1.26-1.11a29.2 29.2 0 00-38.58 0l-1.26 1.11a19.78 19.78 0 01-26.11 0l-1.26-1.11a29.2 29.2 0 00-38.58 0l-1.26 1.11a19.78 19.78 0 01-26.11 0l-1.26-1.11a29.17 29.17 0 00-2.67-2.09v12.1a29.22 29.22 0 0036.28-1.83l1.25-1.11a19.77 19.77 0 0126.12 0l1.25 1.11a29.22 29.22 0 0038.59 0l1.25-1.11a19.77 19.77 0 0126.12 0l1.25 1.11a29.22 29.22 0 0038.59 0l1.25-1.11a19.77 19.77 0 0126.12 0l1.25 1.11a29.22 29.22 0 0038.59 0l1.25-1.11a19.77 19.77 0 0126.12 0l1.41 1.24A28.28 28.28 0 001373 406zm-46.77 76.74l-1.26 1.11a19.76 19.76 0 01-26.11 0l-1.25-1.11a29.22 29.22 0 00-38.59 0l-1.26 1.11a19.76 19.76 0 01-26.11 0l-1.25-1.11a29.22 29.22 0 00-38.59 0l-1.26 1.11a19.76 19.76 0 01-26.11 0l-1.25-1.11a29.22 29.22 0 00-38.59 0l-1.26 1.11a19.76 19.76 0 01-26.11 0l-1.25-1.11a28.71 28.71 0 00-3.4-2.58v12.06a29.23 29.23 0 0037-1.3l1.26-1.11a19.78 19.78 0 0126.11 0l1.25 1.11a29.22 29.22 0 0038.59 0l1.26-1.11a19.78 19.78 0 0126.11 0l1.25 1.11a29.22 29.22 0 0038.59 0l1.26-1.11a19.78 19.78 0 0126.11 0l1.26 1.11a29.21 29.21 0 0038.58 0l1.26-1.11a19.78 19.78 0 0126.11 0l1.41 1.25a28.43 28.43 0 0013 6.46v-9.71a18.86 18.86 0 01-6.75-3.82l-1.41-1.25a29.22 29.22 0 00-38.6 0z"/><path class="cls-1" d="M1373 457.71a19 19 0 01-6.75-3.83l-1.41-1.24a29.22 29.22 0 00-38.59 0l-1.26 1.11a19.77 19.77 0 01-26.11 0l-1.25-1.11a29.22 29.22 0 00-38.59 0l-1.26 1.11a19.76 19.76 0 01-26.11 0l-1.25-1.11a29.22 29.22 0 00-38.59 0l-1.26 1.11a19.76 19.76 0 01-26.11 0l-1.25-1.11a29.22 29.22 0 00-38.59 0l-1.26 1.11a19.77 19.77 0 01-26.11 0l-1.25-1.11a28.71 28.71 0 00-3.4-2.58v12.05a29.21 29.21 0 0037-1.29l1.26-1.11a19.76 19.76 0 0126.11 0l1.25 1.11a29.22 29.22 0 0038.59 0l1.26-1.11a19.76 19.76 0 0126.11 0l1.25 1.11a29.22 29.22 0 0038.59 0l1.26-1.11a19.76 19.76 0 0126.11 0l1.26 1.11a29.21 29.21 0 0038.58 0l1.26-1.11a19.76 19.76 0 0126.11 0l1.4 1.29a28.28 28.28 0 0013 6.46zm0 41.07a19.56 19.56 0 01-7.14-4l-1.26-1.11a29.2 29.2 0 00-38.58 0l-1.26 1.11a19.78 19.78 0 01-26.11 0l-1.26-1.11a29.2 29.2 0 00-38.58 0l-1.26 1.11a19.78 19.78 0 01-26.11 0l-1.26-1.11a29.2 29.2 0 00-38.58 0l-1.26 1.11a19.78 19.78 0 01-26.11 0l-1.26-1.11a29.2 29.2 0 00-38.58 0l-1.26 1.11a19.78 19.78 0 01-26.11 0l-1.26-1.11a28.79 28.79 0 00-3.16-2.42v12.05a29.22 29.22 0 0036.77-1.47l1.25-1.11a19.77 19.77 0 0126.12 0l1.25 1.11a29.22 29.22 0 0038.59 0l1.25-1.11a19.77 19.77 0 0126.12 0l1.25 1.11a29.22 29.22 0 0038.59 0l1.26-1.11a19.76 19.76 0 0126.11 0l1.25 1.11a29.22 29.22 0 0038.59 0l1.26-1.11a19.76 19.76 0 0126.11 0l1.25 1.11a29 29 0 0013.38 6.67zm-61.14-433.62l-117.44 65.15h117.44V65.16zm-117.44-32.58l-58.71 32.58h176.15L1194.42 0v32.58zm-234.86 97.73h117.43V65.16l-117.43 65.15zm0-95.27L925.42.19l-34.41 35.02h68.55v29.95h117.43L959.56 0v35.04zm411.01 62.69l-58.71 32.58h58.71v-24.64l7.93 4.92 7.94 4.94 7.95-4.94 7.94-4.93 7.95 4.93 7.94 4.94 7.95-4.94 7.95-4.93 7.94 4.93 7.95 4.94 7.94-4.94 7.95-4.93 7.94 4.93 7.95 4.94 7.94-4.94 7.95-4.93 7.95 4.93 7.94 4.94 7.95-4.94 7.94-4.93 7.95 4.93 7.94 4.94 7.95-4.94 7.94-4.93 7.95 4.93 7.94 4.94 7.95-4.94 7.95-4.93 7.94 4.93 7.95 4.94 7.94-4.94 7.95-4.93 7.94 4.93 7.95 4.94 7.94-4.94 7.95-4.93v-9.88l-7.95 4.94-7.94 4.94-7.95-4.94-7.94-4.94-7.95 4.94-7.94 4.94-7.95-4.94-7.94-4.94-15.9 9.88-7.94-4.94-7.95-4.94-7.94 4.94-7.95 4.94-7.94-4.94-7.95-4.94-7.94 4.94-7.95 4.94-7.94-4.94-7.95-4.94-7.95 4.94-7.94 4.94-7.95-4.94-7.94-4.94-7.95 4.94-7.94 4.94-7.95-4.94-7.94-4.94-7.95 4.94-7.95 4.94-7.94-4.94-7.95-4.94-7.94 4.94-7.95 4.94-7.94-4.94-7.93-4.93V82.07l7.93 4.95 7.94 4.96 7.95-4.96 7.94-4.96 7.95 4.96 7.94 4.96 7.95-4.96 7.95-4.96 7.94 4.96 7.95 4.96 7.94-4.96 7.95-4.96 7.94 4.96 7.95 4.96 7.94-4.96 7.95-4.96 7.95 4.96 7.94 4.96 7.95-4.96 7.94-4.96 7.95 4.96 7.94 4.96 7.95-4.96 7.94-4.96 7.95 4.96 7.94 4.96 15.9-9.92 7.94 4.96 7.95 4.96 7.94-4.96 7.95-4.96 7.94 4.96 7.95 4.96 7.94-4.96 7.95-4.96v-9.92l-7.95 4.96-7.94 4.96-7.95-4.96-7.94-4.96-7.95 4.96-7.94 4.96-7.95-4.96-7.94-4.96-15.9 9.92-7.94-4.96-7.95-4.96-7.94 4.96-7.95 4.96-7.94-4.96-7.95-4.96-7.94 4.96-7.95 4.96-7.94-4.96-7.95-4.96-7.95 4.96-7.94 4.96-7.95-4.96-7.94-4.96-7.95 4.96-7.94 4.96-7.95-4.96-7.94-4.96-7.95 4.96-7.95 4.96-7.94-4.96-7.95-4.96-7.94 4.96-7.95 4.96-7.94-4.96-7.93-4.95v-6.99l-58.71 32.57h58.71z"/><path class="cls-1" d="M1370.57 65.16l-58.71-32.58v32.58h58.71zm-176.15 65.15l-58.71-32.58v32.58h58.71zm-58.71-32.58h58.71l-58.71-32.57v32.57zm117.43 0l-58.72-32.57v32.57h58.72zm-176.15 0h58.72l-58.72-32.57v32.57zM1135.71 0v32.58h58.71L1135.71 0zm0 65.16V32.58l-58.72 32.58h58.72zm-58.72-32.58h58.72L1076.99 0v32.58zM444.44.19l-34.41 35.02h68.71L444.44.19zm0 35.02l-34.41 35.01h68.71l-34.3-35.01zm0 35.01l-34.41 35.02h68.71l-34.3-35.02zm103.02-35.01L513.15.19l-34.41 35.02h68.72zm-34.31 0l-34.41 35.01h68.72l-34.31-35.01zm0 35.01l-34.41 35.02h68.72l-34.31-35.02zm103.02-35.01L581.86.19l-34.4 35.02h68.71z"/><path class="cls-1" d="M616.17 70.22l-34.31-35.01-34.4 35.01h68.71zm-34.31 0l-34.4 35.02h68.71l-34.31-35.02zm103.02-35.01L650.58.19l-34.41 35.02h68.71zm0 35.01l-34.3-35.01-34.41 35.01h68.71zm-34.3 0l-34.41 35.02h68.71l-34.3-35.02z"/><path class="cls-1" d="M753.59 35.21L719.29.19l-34.41 35.02h68.71zm0 35.01l-34.3-35.01-34.41 35.01h68.71zm-68.71 35.02h68.71l-34.3-35.02-34.41 35.02zm0 35.01h25.45l-5.24 3.62-18.77 13-18.77-13-5.25-3.62h22.58l-34.3-35-34.41 35h46.13l-24 16.58-24-16.58h1.89l-34.31-35-34.41 35h18.8l-24 16.58-24-16.58h29.23l-34.3-35-34.41 35h39.48l-24 16.58-24-16.58h8.55l-34.3-35-34.41 35h12.13L410 148.63v-8.38h-29.26L410 169.54v-9.18l12.16-8.36 24 16.57 24-16.57 24 16.57 24-16.57 24 16.57 24-16.57 24 16.57 24-16.57 24 16.57 24-16.57 24 16.57 24-16.57 14 9.65v-11.74l-14-9.66h43.26l-34.3-35zm-262.72 0h48l-24 16.58zm144.09 0h48l-24 16.58zM822.3 35.21L788 .19l-34.41 35.02h68.71z"/><path class="cls-1" d="M822.3 70.22L788 35.21l-34.41 35.01h68.71zm-68.71 35.02h68.71L788 70.22l-34.41 35.02z"/><path class="cls-1" d="M753.59 140.25h14.87l-14.64 23.48h29.31l-14.67-23.48h53.84L788 105.24l-34.41 35.01zM891.01 35.21L856.71.19 822.3 35.21h68.71zm0 35.01l-34.3-35.01-34.41 35.01h68.71zm0 35.02l-34.3-35.02-34.41 35.02h68.71z"/><path class="cls-1" d="M822.3 140.25h63.84l-14.64 23.48h29.32l-14.68-23.48h4.87l-34.3-35.01-34.41 35.01zm137.43-70.03l-34.31-35.01-34.41 35.01h68.72zm0 35.02l-34.31-35.02-34.41 35.02h68.72zm0 35.01l-34.31-35.01-34.41 35.01h68.72zm446.65-24.72l-35.81 35.37h71.51l-35.7-35.37zm0 35.37l-35.81 35.37h71.51l-35.7-35.37zm0 35.37l-35.81 35.37h71.51l-35.7-35.37z"/><path class="cls-1" d="M1513.58 150.9l-35.7-35.37-35.8 35.37h71.5zm-35.7 0l-35.8 35.37h71.5l-35.7-35.37zm0 35.37l-35.8 35.37h71.5l-35.7-35.37z"/><path class="cls-1" d="M1442.08 257h71.5l-35.7-35.36-35.8 35.36zm143-106.1l-35.69-35.37-35.81 35.37h71.5zm0 35.37l-35.69-35.37-35.81 35.37h71.5zm-35.69 0l-35.81 35.37h71.5l-35.69-35.37zm107.2-35.37l-35.7-35.37-35.81 35.37h71.51zm0 35.37l-35.7-35.37-35.81 35.37h71.51z"/><path class="cls-1" d="M1656.59 221.64l-35.7-35.37-35.81 35.37h71.51zm-35.7 0L1585.08 257h71.51L1600 295.58l-56.59-38.57V257h41.67l-35.69-35.36-35.81 35.36h29.81l-56.58 38.58-56.59-38.58h11.86l-35.7-35.36-35.81 35.36h59.64l-56.58 38.58-56.6-38.58-56.59 38.58v.1l-56.58-38.58-.01.01v-.01l-56.59 38.58-54.68-37.28v27.32l54.68 37.27v.01l56.59-38.58 56.6 38.58 56.59-38.58 56.59 38.58 56.59-38.58v-.1l56.59 38.58 56.59-38.58 56.6 38.58 56.59-38.58V257l-35.7-35.36zM0 139.91v58.58l58.58-58.58H0zm87.87 58.58H58.58v58.58l58.57-58.58h29.29l-58.57-58.58v58.58zm87.86-58.58v58.58l58.58-58.58h-58.58z"/><path class="cls-1" d="M175.73 257.07l-58.58-58.58v58.58h58.58zM87.87 139.91H58.58v29.29l29.29-29.29zm58.57 0v29.29l29.29-29.29h-29.29zm29.29 58.58v29.29l29.29-29.29h-29.29zm0 29.29l29.29 29.29h29.29l-29.29-29.29h-29.29zm29.29 0l29.29-29.29h-29.29v29.29zm146.44-87.53h-29.29l29.29 29.29v-29.29zm0 0l29.28 29.29v-29.29h-29.28zm29.28 58.58v-29.29l-29.28 29.29h29.28z"/><path class="cls-1" d="M410.03 198.82v5.76l12.13-8.37 24.02 16.57 24.01-16.57 24.01 16.57 24.02-16.57 24.01 16.57 24.02-16.57 24.01 16.57 24.02-16.57 24.01 16.57 24.01-16.57 24.02 16.57 24.01-16.57 13.99 9.65v-11.73l-13.99-9.66-5.24 3.62-18.77 12.96-18.77-12.96-5.25-3.62-24.01 16.58-24.01-16.58-24.02 16.58-24.01-16.58-24.02 16.58-24.01-16.58-24.02 16.58-24.01-16.58-24.01 16.58-24.02-16.58-12.13 8.38v-10.38l12.13-8.37 24.02 16.57 24.01-16.57 24.01 16.57 24.02-16.57 24.01 16.57 24.02-16.57 24.01 16.57 24.02-16.57 24.01 16.57 24.01-16.57 24.02 16.57 24.01-16.57 13.99 9.65v-11.73l-13.99-9.66-5.24 3.62-18.77 12.96-18.77-12.96-5.25-3.62-24.01 16.58-24.01-16.58-24.02 16.58-24.01-16.58-24.02 16.58-24.01-16.58-24.02 16.58-24.01-16.58-24.01 16.58-24.02-16.58-12.13 8.38v-1.2h-29.29l29.29 29.28zm-87.86.01l29.29 29.28h29.28l-29.28-29.28h-29.29z"/><path class="cls-1" d="M409.63 257H383.1v16.43h6.49c0 8.21-6.06 13-16 13h-7.78v-13h7.35v-16h7.58v-29.32L351.86 257h-.47L234.31 139.92v117.15h27.12v16.36h8.22v42.37h-8.22v16.43h67.44v-25.08H312v8.65h-20.74v-13.4h19.46V286h-19.46v-12.57H312v8.65h16.86v-25h6.24v16.36h9.08v42.36h-9.08v16.43h37.18V315.8h-6.48v-13h8.64c3.46 12.1 10.38 21.61 19.46 25.51 9.51 3.89 12.91 3.89 38.85 3.89h14.95v-16.4h-6.91l1.73-5.62h25.07l1.73 5.62h-6.05v16.43h38V315.8h-7.78L471.05 257h-42.37v16.43h5.62l-16.43 41.5c-14.7.87-21.37-4.75-23.53-16.43 7.78-4.32 15.56-13.83 15.56-25.07h9.1V257h-9v-8.2l12.13-8.37 24 16.57 24-16.57 24 16.57 24-16.57 24 16.57 24-16.57 24 16.57 24-16.57 24 16.57 24-16.57 24 16.57 24-16.57 14 9.65v-11.73l-14-9.66-5.24 3.62-18.77 13-18.77-13-5.25-3.62-24 16.58-24-16.58-24 16.58-24-16.58-24 16.58-24-16.58-24 16.58-24-16.58-24 16.58-24-16.58-12.1 8.38v-9l-29.29-29.28v29.28zm45 18.59l6.92 18.16h-13.4z"/><path class="cls-1" d="M322.17 169.54l29.29 29.29v-29.29h-29.29zm-29.29-29.29l29.29 29.29v-29.29h-29.29zm-146.44 58.24h29.29l-29.29-29.29v29.29zm-87.86 0l29.29-29.29H58.58v29.29zM0 257.07h58.58L0 198.49v58.58zm0 193.26l26.15 58.78 26.14-58.78-26.14-193.26L0 450.33zm52.29 0l26.14 58.78 26.15-58.78-26.15-193.26-26.14 193.26z"/><path class="cls-1" d="M104.58 450.33l26.14 58.78 26.14-58.78-26.14-193.26-26.14 193.26zm52.28 0L183 509.11l26.15-58.78L183 257.07l-26.14 193.26zm52.29 0l26.14 58.78 26.14-58.78-26.14-193.26-26.14 193.26zm1163.83 58.78h35.45l-17.73-31.32-17.72 31.32zm17.72-62.63l-17.72 31.31h35.45l-17.73-31.31z"/><path class="cls-1" d="M1390.7 415.17l-17.7 31.31v-9.28a19 19 0 01-6.75-3.82l-1.41-1.24a29.2 29.2 0 00-38.59 0l-1.26 1.1a19.76 19.76 0 01-26.11 0l-1.25-1.1a29.2 29.2 0 00-38.59 0l-1.26 1.1a19.76 19.76 0 01-26.11 0l-1.25-1.1a29.2 29.2 0 00-38.59 0l-1.26 1.1a19.76 19.76 0 01-26.11 0l-1.25-1.1a29.2 29.2 0 00-38.59 0l-1.26 1.1a19.76 19.76 0 01-26.11 0l-1.25-1.1a28.8 28.8 0 00-3.4-2.59v12.06a29.2 29.2 0 0037-1.3l1.26-1.1a19.76 19.76 0 0126.11 0l1.25 1.1a29.2 29.2 0 0038.59 0l1.26-1.1a19.76 19.76 0 0126.11 0l1.25 1.1a29.2 29.2 0 0038.59 0l1.26-1.1a19.76 19.76 0 0126.11 0l1.26 1.1a29.19 29.19 0 0038.58 0l1.26-1.1a19.76 19.76 0 0126.11 0l1.41 1.24a28.38 28.38 0 0013 6.46v-.43h35.45zm0-31.32l-17.72 31.32h35.45l-17.73-31.32zm17.73 125.26h35.45l-17.73-31.32-17.72 31.32z"/><path class="cls-1" d="M1408.43 477.79h35.45l-17.73-31.31-17.72 31.31zm17.72-62.62l-17.72 31.31h35.45l-17.73-31.31zm17.73 0l-17.73-31.32-17.72 31.32h35.45zm0 93.94h35.45l-17.72-31.32-17.73 31.32zm0-31.32h35.45l-17.72-31.31-17.73 31.31z"/><path class="cls-1" d="M1479.33 446.48l-17.72-31.31-17.73 31.31h35.45zm0-31.31l-17.72-31.32-17.73 31.32h35.45zm0 93.94h35.45l-17.72-31.32-17.73 31.32zm0-31.32h35.45l-17.72-31.31-17.73 31.31zm35.45-31.31l-17.72-31.31-17.73 31.31h35.45zm0-31.31l-17.72-31.32-17.73 31.32h35.45zm0 93.94h35.45l-17.72-31.32-17.73 31.32zm0-31.32h35.45l-17.72-31.31-17.73 31.31zm35.45-31.31l-17.72-31.31-17.73 31.31h35.45zm0-31.31l-17.72-31.32-17.73 31.32h35.45zm0 93.94h35.45l-17.72-31.32-17.73 31.32zm0-31.32h35.45l-17.72-31.31-17.73 31.31zm35.45-31.31l-17.72-31.31-17.73 31.31h35.45zm0-31.31l-17.72-31.32-17.73 31.32h35.45zm0 93.94h35.46l-17.73-31.32-17.73 31.32zm35.46-31.32l-17.73-31.31-17.73 31.31h35.46zm0-31.31l-17.73-31.31-17.73 31.31h35.46zm0-31.31l-17.73-31.32-17.73 31.32h35.46z"/><path class="cls-1" d="M1656.59 509.11l-17.73-31.32-17.72 31.32h35.45zm0-31.32l-17.73-31.31-17.72 31.31h35.45zm0-31.31l-17.73-31.31-17.72 31.31h35.45zm-17.73-62.63l-17.72 31.32h35.45l-17.73-31.32z"/></svg>