<svg id="Layer_1" data-name="Layer 1" xmlns="http://www.w3.org/2000/svg" viewBox="0 0 1656.58 510.64"><defs><clipPath id="clip-path"><path class="cls-1" d="M561.07 256.62V383.1l265.75.75-.63-126.19-265.12-1.04z"/></clipPath><clipPath id="clip-path-2"><path class="cls-2" d="M1370.57 0h283.6v116.03h-283.6z"/></clipPath><clipPath id="clip-path-3"><path class="cls-2" transform="rotate(180 1165.06 192.62)" d="M959.55 127.65h411.01v129.94H959.55z"/></clipPath><clipPath id="clip-path-4"><path class="cls-2" d="M1090.5 257.59h566.08v128.54H1090.5z"/></clipPath><clipPath id="clip-path-5"><path class="cls-2" d="M403.27 139.5h321.04v136.21H403.27z"/></clipPath><clipPath id="clip-path-6"><path class="cls-1" d="M825.8 257.59l.52 125.33h264.18V257.59z"/></clipPath><clipPath id="clip-path-7"><path class="cls-1" d="M0 139.5h402.8L402.88 0H0v139.5z"/></clipPath><clipPath id="clip-path-8"><path class="cls-2" d="M1090.5 386.89l263.72-2.23V513.2l-263.72 1.33V386.89z"/></clipPath><style>.cls-1,.cls-2{fill:none}.cls-1{clip-rule:evenodd}.cls-3,.cls-4{fill:#00b400}.cls-4{fill-rule:evenodd}</style></defs><path d="M0 0h1656.58v918.89H0z"/><path class="cls-3" d="M328.87 332.23h-67.44V315.8h8.21v-42.37h-8.21V257h67.44v25.08H312v-8.65h-20.74V286h19.45v16.4h-19.45v13.4H312v-8.65h16.86zm43.42 0h-37.18V315.8h9.08v-42.37h-9.08V257h38v16.43h-7.31v13h7.79c9.94 0 16-4.76 16-13h-6.49V257H419v16.43h-9.1c0 11.24-7.78 20.75-15.56 25.07 2.16 11.68 8.83 17.3 23.53 16.43l16.43-41.5h-5.62V257h42.37l22.48 58.8h7.78v16.43h-38.05V315.8h6.06l-1.73-5.62h-25.08l-1.73 5.62h6.92v16.43h-14.94c-25.94 0-29.34 0-38.85-3.89-9.08-3.9-16-13.41-19.46-25.51h-8.65v13h6.49zm75.84-38.48h13.41l-6.92-18.16zm-75.65 127h-37.37v-16.63H344v-42.47h-8.84v-16h46c20.1 0 30.24 11 30.24 24.93a25.82 25.82 0 01-13.59 22.3c1.35 8.15 8.43 11.21 17.2 11.21h14v-42.44h-11.93v-16h45.19v16h-11.89v42.47h11.89v16.65H414c-21.88 0-32.25-8.49-37.34-24.47H366v7.82h6.45zM366 380h10.13c6.77 0 12.36-2.4 12.36-9.18 0-7.18-5.59-9.17-12.36-9.17H366zm-37.16 15.83H312v8.65h-20.74v-13.4h19.45v-16.43h-19.45v-12.54H312v8.65h16.86v-25.08h-67.43v16.43h8.21v42.37h-8.21v16.43h67.44zM488.83 257v24.65h16v-8.22h9.08v42.37h-7.79v16.43h38V315.8H536v-42.37h9v8.22h16.43V257zM522 361.65h9.14v27.14l-30.24-43.11h-32.3v16h8.86v42.47h-8.86v16.65h39.07v-16.68h-8.8V378l29.58 42.77h24.13v-59.12h8.18v-16H522zm-191.29 125c0 11.21-8.18 22.43-24.09 22.43h-45.19V492.8h7.81v-42.47h-7.81v-16.65h39.91c15.39 0 23 9.85 23 20.39a20.13 20.13 0 01-5.83 13.93c8.83 4.07 12.23 11.21 12.23 18.68m-39.41-23.44h5.77c4.76 0 7.14-3.06 7.14-6.46s-2.38-6.45-7.14-6.45h-5.77zm18 22.42a7.62 7.62 0 00-7.82-7.47h-10.18v14.61h9.85c5.1 0 8.16-3.74 8.16-7.14m214.81-20.23h36.27v28.11c-5.1 9.51-16.65 16.93-34 16.93-10.19 0-18.35-2.72-22.76-6.12-16.37 9.95-44.94 7.89-55-19.71h-9.73v8.16h6.67v16.31h-37.39V492.8h9.3v-42.47h-13.38v28.2c0 21.06-14.95 32.61-34.32 32.61-17 0-34.31-10.19-34.31-32.61v-28.2h-7.14v-16.65h38.06v16.65h-8.16v29.22c0 8.49 6.46 13.25 12.57 13.25s11.89-4.42 11.89-13.25v-29.22h-9.85v-16.65h80.18c20.11 0 30.25 11 30.25 24.93A25.8 25.8 0 01469.58 481c3.85 11.3 15.56 13.52 21.19 8.09a39.31 39.31 0 01-3.77-17.7c0-20.15 12.53-39.07 38.39-39.07 14.94 0 24 4.26 31.12 10.26v17.62h-19l-.08-7.86a19.51 19.51 0 00-10.66-2.66c-11.25 0-18 8-18 21.37 0 12.23 7.14 21.34 18 21.68 5.78 0 10.23-1.23 14.61-5v-6.3h-17.23zm-63-5.93c0-7.18-5.59-9.17-12.37-9.17h-9.87v18.35h9.87c6.78 0 12.37-2.4 12.37-9.18"/><path class="cls-4" d="M27.34 256.06l11.84 92.17 13.06 101.62-13.06 32.72-11.51 28.84h-3.09l-11.52-28.84L0 449.85l13.06-101.62 11.85-92.17zm52.24 0l11.85 92.17 13.06 101.62-13.06 32.72-11.52 28.84h-3.09l-11.51-28.84-13.07-32.72 13.07-101.62 11.84-92.17zm52.25 0l11.84 92.17 13.06 101.62-13.06 32.72-11.51 28.84h-3.09l-11.52-28.84-13.06-32.72 13.06-101.62 11.85-92.17zm52.24 0l11.85 92.17L209 449.85l-13.06 32.72-11.54 28.84h-3.09l-11.52-28.84-13.06-32.72 13.06-101.62 11.85-92.17zm52.24 0l11.85 92.17 13.06 101.62-13.06 32.72-11.51 28.84h-3.1L222 482.57l-13-32.72 13-101.62 11.85-92.17z"/><g clip-path="url(#clip-path)"><path class="cls-4" d="M812.21-86.53L717.94 7.31l-1.03-15.53 78.71-78.35 16.59.04zm33.19.06L719.99 38.37l-1.02-15.53L828.81-86.5l16.59.03zm33.19.07L479 314.15l-1.02-15.53L862-86.43l16.59.03zm27.71 5.52L516.04 307.14l-1.03-15.53L895.19-86.37l10.75.03.36 5.46zm.18 29.18L527.76 325.17l-1.03-15.53L905.45-67.23l1.03 15.53zm.61 29.63L528.32 354.08l-1.03-15.53L906.06-37.61l1.03 15.54zm-1.62 30.53l-386 384.15-1.02-15.53 386-384.15 1.02 15.53zm-.74 29.09l-410.85 410.7-1.02-15.53L903.7 22.02l1.03 15.53zm-1.09 31.99L534.5 436.7l-1.03-15.53L902.61 54.01l1.03 15.53zm-.05 29.84l-358.7 356.46-1.03-15.54L902.57 83.85l1.02 15.53zM742.87-215.3L343.28 185.25l-1.03-15.53 384.02-385.05 16.6.03zm27.71 5.52L380.31 178.24l-1.02-15.53 380.17-377.97 10.76.02.36 5.46zm2.05 31.06L393.91 198.15l-1.03-15.53 378.73-376.87 1.02 15.53zm2.06 31.07L395.92 228.5l-1.03-15.53 378.77-376.16 1.03 15.54zm2.05 31.06l-386 384.15-1.03-15.53 386-384.15 1.03 15.53zm2.05 31.06L367.95 325.18l-1.03-15.54 410.85-410.7 1.02 15.53z"/><path class="cls-4" d="M780.85-54.46L411.7 312.7l-1.02-15.53L779.82-70l1.03 15.54zm2.05 31.06L424.2 333.06l-1.03-15.54 358.7-356.45 1.03 15.53zm120.71 151.16l-310.3 309.97-1.02-15.53 310.29-309.97 1.03 15.53zm-1.85 32.35L610.83 449.98l-1.02-15.54 290.92-289.86 1.03 15.53zm-1.17 31.24L653.92 436.96l-1.03-15.53 246.67-245.62 1.03 15.54zm12.92 16.8L671.16 449.42l-1.03-15.53 223.72-222.72 18.29-6.81 1.37 3.79zm19.03 10.8L710.33 440.1l-1.03-15.54 222.21-221.14 5.47 8.99-4.44 6.54zm29.79-.08l-244.82 243.9-1.03-15.53 244.83-243.9 3.37 13.18-2.35 2.35zm33.06-3.15L728.7 481.03l-15.95-.03-.04-.6 281.65-280.21-15.58 25.91 16.61-10.38z"/></g><path class="cls-4" d="M181.77 198.49l60.44-58.58h-60.44v58.58zm-181.32 0l60.44-58.58H.45v58.58zm60.44 58.58l60.44-58.58H60.89v58.58zm0 0L.45 198.49v58.58h60.44zm120.88 0l-60.44-58.58v58.58h60.44zm-30.22-58.58l-60.44-58.58v58.58h60.44zm221.5 58.58L242.21 139.91v117.16h130.84zM91.11 139.91L60.89 169.2v-29.29h30.22zm-30.22 58.58l30.22-29.29H60.89v29.29zm90.66-29.29l30.22-29.29h-30.22v29.29zm0 0l30.22 29.29h-30.22V169.2zm60.44 87.87l-30.22-29.29h30.22v29.29zm30.22 0l-30.22-29.29v29.29h30.22zm-30.22-58.58l-30.22 29.29v-29.29h30.22zm30.22 0l-30.22 29.29v-29.29h30.22z"/><path class="cls-4" d="M373.05 257.07l30.22-29.29v29.29h-30.22zm30.22-29.29l-30.22-29.29v29.29h30.22zm-30.22-29.29l30.22-29.29v29.29h-30.22zm0-58.58l30.22 29.29v-29.29h-30.22zm-60.43 0l30.21 29.29v-29.29h-30.21zm30.21 29.29l30.22 29.29V169.2h-30.22zm0-29.29l30.22 29.29v-29.29h-30.22z"/><g clip-path="url(#clip-path-2)"><path class="cls-4" d="M1386.39 106.11l-7.93-5-7.93-5-7.92 5-5.55 3.47v2.29q0 3.8.18 7.54l5.4-3.38 7.92-5 7.93 5 7.93 5 7.92-5 7.93-5 7.92 5 7.93 5 7.92-5 7.93-5 7.93 5 7.92 5 7.93-5 7.92-5 7.93 5 7.92 5 7.93-5 7.93-5 7.92 5 7.93 5 7.92-5 7.93-5 7.92 5 7.93 5 7.93-5 7.92-5 7.93 5 7.92 5 7.93-5 7.92-5 7.93 5 7.92 5 7.93-5 7.93-5 7.92 5 7.93 5 7.92-5 7.93-5 7.92 5 5.4 3.38c.12-2.5.19-5 .19-7.54v-2.29l-5.56-3.47-7.92-5-7.93 5-7.92 5-7.93-5-7.92-5-7.93 5-7.93 5-7.92-5-7.93-5-7.92 5-7.93 5-7.92-5-7.93-5-7.92 5-7.93 5-7.93-5-7.92-5-7.93 5-7.92 5-7.93-5-7.92-5-7.93 5-7.93 5-7.92-5-7.93-5-7.92 5-7.93 5-7.92-5-7.93-5-7.93 5-7.92 5-7.93-5-7.92-5-7.93 5-7.92 5zm0-24.05l-7.93-5-7.93-5-7.92 5-5.55 3.48v2.28q0 3.8.18 7.54l5.4-3.38 7.92-5 7.93 5 7.93 5 7.92-5 7.93-5 7.92 5 7.93 5 7.92-5 7.93-5 7.93 5 7.92 5 7.93-5 7.92-5 7.93 5 7.92 5 7.93-5 7.93-5 7.92 5 7.93 5 7.92-5 7.93-5 7.92 5 7.93 5 7.93-5 7.92-5 7.93 5 7.92 5 7.93-5 7.92-5 7.93 5 7.92 5 7.93-5 7.93-5 7.92 5 7.93 5 7.92-5 7.93-5 7.92 5 5.4 3.38c.12-2.5.19-5 .19-7.54v-2.28l-5.56-3.48-7.92-5-7.93 5-7.92 5-7.93-5-7.92-5-7.93 5-7.93 5-7.92-5-7.93-5-7.92 5-7.93 5-7.92-5-7.93-5-7.92 5-7.93 5-7.93-5-7.92-5-7.93 5-7.92 5-7.93-5-7.92-5-7.93 5-7.93 5-7.92-5-7.93-5-7.92 5-7.93 5-7.92-5-7.93-5-7.93 5-7.92 5-7.93-5-7.92-5-7.93 5-7.92 5zm0-24.06l-7.93-5-7.93-5-7.92 5-5.55 3.48v2.28q0 3.8.18 7.54l5.4-3.38 7.92-5 7.93 5 7.93 5 7.92-5 7.93-5 7.92 5 7.93 5 7.92-5 7.93-5 7.93 5 7.92 5 7.93-5 7.92-5 7.93 5 7.92 5 7.93-5 7.93-5 7.92 5 7.93 5 7.92-5 7.93-5 7.92 5 7.93 5 7.93-5 7.92-5 7.93 5 7.92 5 7.93-5 7.92-5 7.93 5 7.92 5 7.93-5 7.93-5 7.92 5 7.93 5 7.92-5 7.93-5 7.92 5 5.4 3.38c.12-2.5.19-5 .19-7.54v-2.28l-5.56-3.48-7.92-5-7.93 5-7.99 5-7.93-5-7.92-5-7.93 5-7.93 5-7.92-5-7.93-5-7.92 5-7.93 5-7.92-5-7.93-5-7.92 5-7.93 5-7.93-5-7.92-5-7.93 5-7.92 5-7.93-5-7.92-5-7.93 5-7.93 5-7.92-5-7.93-5-7.92 5-7.93 5-7.92-5-7.93-5-7.93 5-7.92 5-7.93-5-7.92-5-7.93 5-7.92 5zm0-24l-7.93-5-7.93-5-7.92 5-5.55 3.47v2.29c0 2.52.06 5 .18 7.53l5.4-3.37 7.92-5 7.93 5 7.93 5 7.92-5 7.93-5 7.92 5 7.93 5 7.92-5 7.93-5 7.93 5 7.92 5 7.93-5 7.92-5 7.93 5 7.92 5 7.93-5 7.93-5 7.92 5 7.93 5 7.92-5 7.93-5 7.92 5 7.93 5 7.93-5 7.92-5 7.93 5 7.92 5 7.93-5 7.92-5 7.93 5 7.92 5 7.93-5 7.93-5 7.92 5 7.93 5 7.92-5 7.93-5 7.92 5 5.4 3.37c.12-2.49.19-5 .19-7.53v-2.29l-5.62-3.47-7.92-5-7.93 5-7.93 5-7.93-5-7.92-5-7.93 5-7.93 5-7.92-5-7.93-5-7.92 5-7.93 5-7.92-5-7.93-5-7.92 5-7.93 5-7.89-5-7.92-5-7.93 5-7.92 5-7.93-5-7.92-5-7.93 5-7.93 5-7.92-5-7.93-5-7.92 5-7.93 5-7.92-5-7.93-5-7.97 5-7.92 5-7.93-5-7.92-5-7.93 5-7.92 5zm0-24.08l-7.93-5-7.93-5-4.92 3.08q1.41 4.06 3 8l1.89-1.18 7.93 5 7.93 5 7.92-5 7.93-5 7.92 5 7.93 5 7.92-5 7.93-5 7.93 5 7.92 5 7.93-5 7.92-5 7.93 5 7.92 5 7.93-5 7.92-5 7.93 5 7.93 5 7.92-5 7.93-5 7.92 5 7.93 5 7.93-5 7.92-5 7.93 5 7.92 5 7.93-5 7.92-5 7.93 5 7.93 5 7.92-5 7.93-5 7.92 5 7.93 5 7.92-5 7.93-5 1.89 1.18q1.62-4 3-8l-4.86-3-7.93 5-7.92 5-7.93-5-7.92-5-7.93 5-7.92 5-7.93-5-7.93-5-7.92 5-7.93 5-7.92-5-7.93-5-7.92 5-7.93 5-7.9-5-7.92-5-7.93 5-7.92 5-7.93-5-7.93-5-7.92 5-7.93 5-7.92-5-7.93-5-7.92 5-7.93 5-7.92-5-7.93-5-7.97 5-7.92 5-7.93-5-7.92-5-7.93 5-7.92 5z"/></g><g clip-path="url(#clip-path-3)"><path class="cls-4" d="M1410.56 127.89l5.07 46.55 5.6 51.34-5.6 16.52-4.93 14.57h-1.33l-4.93-14.57-5.6-16.52 5.6-51.34 5.07-46.55zm29 0l5.08 46.55 5.59 51.34-5.59 16.52-4.94 14.57h-1.33l-4.93-14.57-5.6-16.52 5.6-51.34 5.08-46.55zm29 0l5.08 46.55 5.6 51.34-5.6 16.52-4.94 14.57h-1.32l-4.94-14.57-5.6-16.52 5.6-51.34 5.08-46.55zm29 0l5.08 46.55 5.6 51.34-5.6 16.52-4.93 14.57h-1.33l-4.94-14.57-5.59-16.52 5.59-51.34 5.08-46.55zm29 0l5.07 46.55 5.6 51.34-5.6 16.52-4.93 14.57h-1.33l-4.93-14.57-5.6-16.52 5.6-51.34 5.07-46.55z"/><path class="cls-3" d="M1586.35 184.64A72.93 72.93 0 011538 166.4l-3.15-2.78a49.55 49.55 0 00-65.47 0l-3.15 2.78a73.25 73.25 0 01-96.75 0l-3.15-2.78a49.55 49.55 0 00-65.47 0l-3.15 2.78a73.23 73.23 0 01-96.74 0l-3.15-2.78a49.56 49.56 0 00-65.48 0l-3.15 2.78a73.23 73.23 0 01-96.74 0l-3.15-2.78a49.55 49.55 0 00-65.47 0l-3.15 2.78a73.25 73.25 0 01-96.75 0l-3.15-2.78a49.55 49.55 0 00-65.47 0l-3.15 2.78a73.25 73.25 0 01-96.75 0l-3.53-3.13c-18.14-16-46.56-16-64.7 0l-15.63-17.73c26.9-23.73 69.06-23.74 96 0l3.54 3.12a49.55 49.55 0 0065.47 0l3.15-2.78a73.26 73.26 0 0196.75 0l3.15 2.77a49.55 49.55 0 0065.47 0l3.15-2.78a73.26 73.26 0 0196.75 0l3.15 2.77a49.55 49.55 0 0065.47 0l3.15-2.78a73.24 73.24 0 0196.74 0l3.15 2.77a49.56 49.56 0 0065.48 0l3.15-2.78a73.24 73.24 0 0196.74 0l3.15 2.77a49.55 49.55 0 0065.47 0l3.15-2.78a73.26 73.26 0 0196.75 0l3.15 2.77a49.55 49.55 0 0065.47 0l3.54-3.12c26.9-23.74 69.06-23.74 96 0L1703 163.27c-18.14-16-46.56-16-64.7 0l-3.54 3.13a73 73 0 01-48.41 18.24z"/><path class="cls-3" d="M1586.35 237.81a72.94 72.94 0 01-48.35-18.25l-3.15-2.77a49.55 49.55 0 00-65.47 0l-3.15 2.77a73.23 73.23 0 01-96.75 0l-3.15-2.77a49.55 49.55 0 00-65.47 0l-3.15 2.77a73.22 73.22 0 01-96.74 0l-3.15-2.77a49.56 49.56 0 00-65.48 0l-3.15 2.77a73.22 73.22 0 01-96.74 0l-3.15-2.77a49.55 49.55 0 00-65.47 0l-3.15 2.77a73.23 73.23 0 01-96.75 0l-3.15-2.77a49.55 49.55 0 00-65.47 0l-3.15 2.77a73.25 73.25 0 01-96.75 0l-3.53-3.12c-18.14-16-46.56-16-64.7 0l-15.63-17.72c26.9-23.74 69.06-23.74 96 0l3.54 3.12a49.56 49.56 0 0065.47 0l3.15-2.78a73.25 73.25 0 0196.75 0l3.15 2.78a49.55 49.55 0 0065.47 0l3.15-2.78a73.25 73.25 0 0196.75 0l3.15 2.78a49.55 49.55 0 0065.47 0l3.15-2.78a73.23 73.23 0 0196.74 0l3.15 2.78a49.56 49.56 0 0065.48 0l3.15-2.78a73.23 73.23 0 0196.74 0l3.15 2.78a49.55 49.55 0 0065.47 0l3.15-2.78a73.25 73.25 0 0196.75 0l3.15 2.78a49.55 49.55 0 0065.47 0l3.54-3.12c26.9-23.74 69.06-23.74 96 0L1703 216.44c-18.14-16-46.56-16-64.7 0l-3.54 3.12a72.92 72.92 0 01-48.41 18.25z"/><path class="cls-3" d="M1586.35 291a72.94 72.94 0 01-48.35-18.27l-3.15-2.78a49.57 49.57 0 00-65.47 0l-3.15 2.78a73.25 73.25 0 01-96.75 0l-3.15-2.78a49.57 49.57 0 00-65.47 0l-3.15 2.78a73.23 73.23 0 01-96.74 0l-3.17-2.73a49.59 49.59 0 00-65.48 0l-3.15 2.78a73.23 73.23 0 01-96.74 0l-3.15-2.78a49.57 49.57 0 00-65.47 0l-3.15 2.78a73.25 73.25 0 01-96.75 0l-3.15-2.78a49.57 49.57 0 00-65.47 0l-3.15 2.78a73.25 73.25 0 01-96.75 0l-3.53-3.12c-18.14-16-46.56-16-64.7 0l-15.63-17.72c26.9-23.74 69.06-23.74 96 0L711 255a49.57 49.57 0 0065.47 0l3.15-2.78a73.25 73.25 0 0196.75 0l3.15 2.78a49.57 49.57 0 0065.48 0l3.15-2.78a73.25 73.25 0 0196.75 0l3.15 2.78a49.57 49.57 0 0065.47 0l3.15-2.78a73.23 73.23 0 0196.74 0l3.15 2.78a49.59 49.59 0 0065.48 0l3.15-2.78a73.23 73.23 0 0196.74 0l3.15 2.78a49.57 49.57 0 0065.47 0l3.15-2.78a73.25 73.25 0 0196.75 0l3.15 2.78a49.57 49.57 0 0065.47 0l3.54-3.12c26.9-23.74 69.06-23.74 96 0L1703 269.61c-18.14-16-46.56-16-64.7 0l-3.54 3.12a72.92 72.92 0 01-48.41 18.27z"/></g><g clip-path="url(#clip-path-4)"><path class="cls-4" d="M1408.91 75.28l-61.73 42.11V87.57l61.73-42.11 61.74 42.11 61.73-42.11 61.74 42.11 61.73-42.11v29.82l-61.73 42.11-61.74-42.11-61.73 42.11-61.74-42.11zm0 72.41l-61.73 42.11v-29.82l61.73-42.11 61.74 42.11 61.73-42.11 61.74 42.11 61.73-42.11v29.82l-61.73 42.11-61.74-42.11-61.73 42.11-61.74-42.11z"/><path class="cls-4" d="M1408.64 7.48l-61.73 42.12V19.78l61.73-42.12 61.74 42.12 61.73-42.12 61.74 42.12 61.73-42.12V7.48l-61.73 42.12-61.74-42.12-61.73 42.12-61.74-42.12zm.81 432.19l-61.73 42.11v-29.82l61.73-42.11 61.74 42.11 61.73-42.11 61.74 42.11 61.73-42.11v29.82l-61.73 42.11-61.74-42.11-61.73 42.11-61.74-42.11zM1203.8 285.08l56.57 38.6 56.58-38.6 56.57 38.6 56.58-38.6v-.09l56.57 38.59 56.57-38.6 56.58 38.6 56.57-38.6v-27.33l-56.57 38.6-56.58-38.6-56.57 38.6-56.58-38.6-56.57 38.6v.1l-56.57-38.6-56.58 38.6-56.57-38.6-56.58 38.6v27.33l56.58-38.6z"/><path class="cls-4" d="M1090.65 285.08l56.57 38.6 56.58-38.6 56.58 38.6 56.57-38.6v-.09l56.57 38.59 56.58-38.6 56.57 38.6 56.58-38.6v-27.33l-56.58 38.6-56.57-38.6-56.58 38.6-56.58-38.6-56.57 38.6v.1l-56.57-38.6-56.58 38.6-56.57-38.6-56.58 38.6v27.33l56.58-38.6z"/><path class="cls-4" d="M1203.25 347.42l56.58 38.6 56.57-38.6 56.58 38.6 56.57-38.6v-.09l56.57 38.59 56.58-38.6 56.57 38.6 56.58-38.6v-27.33l-56.58 38.6-56.57-38.6-56.58 38.6-56.57-38.6-56.58 38.6v.09l-56.57-38.59-56.57 38.6-56.58-38.6-56.57 38.6v27.33l56.57-38.6z"/><path class="cls-4" d="M976.95 347.42l56.58 38.6 56.57-38.6 56.58 38.6 56.57-38.6v-.09l56.57 38.59 56.58-38.6 56.57 38.6 56.58-38.6v-27.33l-56.58 38.6-56.57-38.6-56.58 38.6-56.58-38.6-56.57 38.6v.09l-56.57-38.59-56.57 38.6-56.58-38.6-56.58 38.6v27.33l56.58-38.6zm185.03-272.03l-61.74 42.11V87.68l61.74-42.11 61.73 42.11 61.74-42.11 61.73 42.11 61.74-42.11v29.82l-61.74 42.11-61.73-42.11-61.74 42.11-61.73-42.11z"/><path class="cls-4" d="M1161.71 7.59l-61.74 42.12V19.89l61.74-42.12 61.73 42.12 61.74-42.12 61.73 42.12 61.74-42.12V7.59l-61.74 42.12-61.73-42.12-61.74 42.12-61.73-42.12zm.81 432.19l-61.74 42.11v-29.82l61.74-42.11 61.73 42.11 61.74-42.11 61.73 42.11 61.74-42.11v29.82l-61.74 42.11-61.73-42.11-61.74 42.11-61.73-42.11z"/></g><g clip-path="url(#clip-path-5)"><path class="cls-4" d="M686.32 189.86l24.01-16.58 24.01 16.58 24.02-16.58 24.01 16.58 24.02-16.58 24.01 16.58 24.01-16.58 24.02 16.58 24.01-16.58 24.02 16.58 24.01-16.58 18.89 13.04v-11.74l-18.89-13.03-24.01 16.57-24.02-16.57-24.01 16.57-24.02-16.57-24.01 16.57-24.01-16.57-24.02 16.57-24.01-16.57-24.02 16.57-24.01-16.57-5.24 3.61-18.77 12.96-18.78-12.96-5.24-3.61-24.01 16.57-24.02-16.57-24.01 16.57-24.02-16.57-24.01 16.57-24.01-16.57-24.02 16.57-24.01-16.57-24.02 16.57-24.01-16.57-18.89 13.03v11.74l18.89-13.04 24.01 16.58 24.02-16.58 24.01 16.58 24.02-16.58 24.01 16.58 24.01-16.58 24.02 16.58 24.01-16.58 24.02 16.58 24.01-16.58 24.02 16.58z"/><path class="cls-4" d="M686.32 211.9l24.01-16.57 24.01 16.57 24.02-16.57 24.01 16.57 24.02-16.57 24.01 16.57 24.01-16.57 24.02 16.57 24.01-16.57 24.02 16.57 24.01-16.57 18.89 13.03v-11.73l-18.89-13.04-24.01 16.58-24.02-16.58-24.01 16.58-24.02-16.58-24.01 16.58-24.01-16.58-24.02 16.58-24.01-16.58-24.02 16.58-24.01-16.58-5.24 3.62-18.77 12.96-18.78-12.96-5.24-3.62-24.01 16.58-24.02-16.58-24.01 16.58-24.02-16.58-24.01 16.58-24.01-16.58-24.02 16.58-24.01-16.58-24.02 16.58-24.01-16.58-18.89 13.04v11.73l18.89-13.03 24.01 16.57 24.02-16.57 24.01 16.57 24.02-16.57 24.01 16.57 24.01-16.57 24.02 16.57 24.01-16.57 24.02 16.57 24.01-16.57 24.02 16.57z"/><path class="cls-4" d="M686.32 233.95l24.01-16.57 24.01 16.57 24.02-16.57 24.01 16.57 24.02-16.57 24.01 16.57 24.01-16.57 24.02 16.57 24.01-16.57 24.02 16.57 24.01-16.57 18.89 13.03v-11.74l-18.89-13.03-24.01 16.58-24.02-16.58-24.01 16.58-24.02-16.58-24.01 16.58-24.01-16.58-24.02 16.58-24.01-16.58-24.02 16.58-24.01-16.58-5.24 3.62-18.77 12.96-18.78-12.96-5.24-3.62-24.01 16.58-24.02-16.58-24.01 16.58-24.02-16.58-24.01 16.58-24.01-16.58-24.02 16.58-24.01-16.58-24.02 16.58-24.01-16.58-18.89 13.03v11.74l18.89-13.03 24.01 16.57 24.02-16.57 24.01 16.57 24.02-16.57 24.01 16.57 24.01-16.57 24.02 16.57 24.01-16.57 24.02 16.57 24.01-16.57 24.02 16.57z"/><path class="cls-4" d="M686.32 256l24.01-16.58L734.34 256l24.02-16.58L782.37 256l24.02-16.58L830.4 256l24.01-16.58L878.43 256l24.01-16.58L926.46 256l24.01-16.58 18.89 13.04v-11.74l-18.89-13.03-24.01 16.57-24.02-16.57-24.01 16.57-24.02-16.57-24.01 16.57-24.01-16.57-24.02 16.57-24.01-16.57-24.02 16.57-24.01-16.57-5.24 3.61-18.77 12.96-18.78-12.96-5.24-3.61-24.01 16.57-24.02-16.57-24.01 16.57-24.02-16.57-24.01 16.57-24.01-16.57-24.02 16.57-24.01-16.57-24.02 16.57-24.01-16.57-18.89 13.03v11.74l18.89-13.04L446.17 256l24.02-16.58L494.2 256l24.02-16.58L542.23 256l24.01-16.58L590.26 256l24.01-16.58L638.29 256l24.01-16.58L686.32 256zm-.01-88.19l24-16.58 24 16.58 24-16.58 24 16.58 24-16.58 24 16.58 24-16.58 24 16.58 24-16.58 24 16.58 24-16.58 18.89 13v-11.7l-18.89-13-24 16.57-24-16.57-24 16.57-24-16.57-24 16.57-24-16.57-24 16.57-24-16.57-24 16.57-24-16.57-5.24 3.62-18.78 12.95-18.77-12.95-5.24-3.62-24 16.57-24-16.57-24 16.57-24-16.57-24 16.57-24-16.57-24 16.57-24-16.57-24 16.57-24-16.57-18.89 13v11.74l18.89-13 24 16.58 24-16.58 24 16.58 24-16.58 24 16.58 24-16.58 24 16.58 24-16.58 24 16.58 24-16.58 24 16.58z"/></g><path class="cls-4" d="M1372.97 481.63l-18.75 31.97h37.57l-18.82-31.97z"/><path class="cls-4" d="M1372.97 450l-18.75 31.98h37.57L1372.97 450z"/><path class="cls-4" d="M1372.97 418.17l-18.75 31.97h37.57l-18.82-31.97zm0-32.04l-18.75 31.97h37.57l-18.82-31.97zm37.61 95.44l-18.76 31.97h37.57l-18.81-31.97z"/><path class="cls-4" d="M1410.58 449.94l-18.76 31.98h37.57l-18.81-31.98z"/><path class="cls-4" d="M1410.58 418.11l-18.76 31.97h37.57l-18.81-31.97zm0-32.04l-18.76 31.97h37.57l-18.81-31.97zm37.93 95.56l-18.76 31.97h37.57l-18.81-31.97z"/><path class="cls-4" d="M1448.51 450l-18.76 31.98h37.57L1448.51 450z"/><path class="cls-4" d="M1448.51 418.17l-18.76 31.97h37.57l-18.81-31.97zm0-32.04l-18.76 31.97h37.57l-18.81-31.97zm37.57 95.5l-18.75 31.97h37.57l-18.82-31.97z"/><path class="cls-4" d="M1486.08 450l-18.75 31.98h37.57L1486.08 450z"/><path class="cls-4" d="M1486.08 418.17l-18.75 31.97h37.57l-18.82-31.97zm0-32.04l-18.75 31.97h37.57l-18.82-31.97zm37.77 95.5l-18.76 31.97h37.57l-18.81-31.97z"/><path class="cls-4" d="M1523.85 450l-18.76 31.98h37.57L1523.85 450z"/><path class="cls-4" d="M1523.85 418.17l-18.76 31.97h37.57l-18.81-31.97zm0-32.04l-18.76 31.97h37.57l-18.81-31.97zm37.57 95.44l-18.76 31.97h37.57l-18.81-31.97z"/><path class="cls-4" d="M1561.42 449.94l-18.76 31.98h37.57l-18.81-31.98z"/><path class="cls-4" d="M1561.42 418.11l-18.76 31.97h37.57l-18.81-31.97zm0-32.04l-18.76 31.97h37.57l-18.81-31.97zm37.93 95.56l-18.76 31.97h37.57l-18.81-31.97z"/><path class="cls-4" d="M1599.35 450l-18.76 31.98h37.57L1599.35 450z"/><path class="cls-4" d="M1599.35 418.17l-18.76 31.97h37.57l-18.81-31.97zm0-32.04l-18.76 31.97h37.57l-18.81-31.97zm37.57 95.5l-18.75 31.97h37.57l-18.82-31.97z"/><path class="cls-4" d="M1636.92 450l-18.75 31.98h37.57L1636.92 450z"/><path class="cls-4" d="M1636.92 418.17l-18.75 31.97h37.57l-18.82-31.97zm0-32.04l-18.75 31.97h37.57l-18.82-31.97z"/><g clip-path="url(#clip-path-6)"><path class="cls-4" d="M1150.11-332.97l568.85 571.19 1.22-22.1-546.69-549.09h-23.38zm-38.98 7.78l555.54 553.33 1.22-22.1-541.17-539.01h-15.16l-.43 7.78zm-2.44 44.2l539.1 537.42 1.23-22.11-539.11-537.41-1.22 22.1zm-2.45 44.2l539.16 536.41 1.22-22.1-539.16-536.41-1.22 22.1zm-2.45 44.2l549.47 547.8 1.22-22.1-549.46-547.8-1.23 22.1zm-2.45 44.2l584.86 585.67 1.23-22.1-584.86-585.67-1.23 22.1zm-2.44 44.2l525.46 523.59 1.22-22.1-525.46-523.59-1.22 22.1zm-2.45 44.21l510.6 508.31 1.22-22.1-510.6-508.32-1.22 22.11zm243.07-456.04l568.85 571.18 1.22-22.09-546.69-549.09h-23.38zm-38.97 7.77l555.53 553.33 1.23-22.1-541.18-539h-15.15l-.43 7.77zm-2.45 44.2l539.1 537.42 1.23-22.1-539.11-537.42-1.22 22.1zm-2.45 44.2l539.16 536.42 1.23-22.1-539.17-536.42-1.22 22.1zm-2.45 44.21l549.47 547.8 1.22-22.1-549.46-547.81-1.23 22.11zm-2.44 44.2l584.86 585.66 1.22-22.09-584.86-585.67-1.22 22.1zm-2.45 44.2l525.46 523.58 1.23-22.1-525.47-523.58-1.22 22.1zm-2.45 44.2l510.6 508.32 1.23-22.1-510.6-508.32-1.23 22.1zm-361.33 58.75l611.19 610.52 1.22-22.1-611.19-610.52-4.61 18.73 3.39 3.37zm18.71 65.3l562.44 560.77 1.23-22.1-562.44-560.77-11.32 2.82 10.09 19.28zm-35.18 11.05l532.17 530.81 1.23-22.11-532.18-530.8-16.58-18.69 15.36 40.79zm-52.52-4.34l549.57 546.71 1.22-22.1-523.04-520.25-25.89-9.75-1.86 5.39zm-41 4.34l529.04 527.62 1.23-22.11-529.05-527.61-7.57 12.77 6.35 9.33zm-13.28 32.32l539.87 539.5 1.23-22.11-539.88-539.5-4.57 18.76 3.35 3.35zm-57.1 36.82l526.45 525.64H1294L744.09-62.19l34.18 44.9-34.11-21.51zM733.3-4.75l490.54 491.59h23.39l-512.7-513.7 45.28 62.83L733.3-4.75zm7.3 55.29l436.97 436.3h23.39L741.83 28.44l45.28 62.83-46.51-40.73zm-35.31 108.41l378.46 378.34h23.38L706.52 136.84l45.28 62.84-46.51-40.73zm-24.67 22.86l378.45 378.34h23.39L681.84 159.7l45.29 62.84-46.51-40.73zm86.2-57.43l378.46 378.34h23.38L768.05 102.28l45.28 62.83-46.51-40.73zm-101.84 88.74l378.45 378.34h23.39L666.2 191.01l45.28 62.84-46.5-40.73zm68.77-74.45l378.46 378.35h23.39L734.98 116.57l45.28 62.83-46.51-40.73z"/><path class="cls-4" d="M1069.53 426.23l60.77 60.61h23.39l-82.94-82.71-1.22 22.1zm-2.45 44.2l16.45 16.41h23.38l-38.61-38.51-1.22 22.1z"/></g><g clip-path="url(#clip-path-7)"><path class="cls-4" d="M490.36 8.9l5.07 46.56 5.6 51.33-5.6 16.53-4.93 14.57h-1.33l-4.93-14.57-5.6-16.53 5.6-51.33 5.07-46.56zm29 0l5.08 46.56 5.56 51.33-5.59 16.53-4.94 14.57h-1.32l-4.94-14.57-5.6-16.53 5.6-51.33 5.1-46.56zm29 0l5.08 46.56 5.6 51.33-5.6 16.53-4.94 14.57h-1.32l-4.94-14.57-5.6-16.53 5.6-51.33L547.3 8.9zm29 0l5.08 46.56 5.6 51.33-5.6 16.53-4.93 14.57h-1.33l-4.93-14.57-5.6-16.53 5.6-51.33 5.04-46.56zm29 0l5.07 46.56 5.6 51.33-5.6 16.53-4.93 14.57h-1.33l-4.93-14.57-5.6-16.53 5.6-51.33 5.05-46.56z"/><path class="cls-3" d="M516.13 61a54.38 54.38 0 01-36.06-13.6l-2.35-2.07a37 37 0 00-48.82 0l-2.35 2.07a54.6 54.6 0 01-72.13 0l-2.35-2.07a36.94 36.94 0 00-48.81 0l-2.35 2.07a54.6 54.6 0 01-72.13 0l-2.35-2.07a37 37 0 00-48.82 0l-2.34 2.07a54.62 54.62 0 01-72.14 0l-2.35-2.07a36.94 36.94 0 00-48.81 0l-2.35 2.07a54.6 54.6 0 01-72.13 0l-2.35-2.07a37 37 0 00-48.82 0L-76 47.41a54.62 54.62 0 01-72.14 0l-2.64-2.33a37 37 0 00-48.23 0l-11.66-13.21c20.06-17.7 51.49-17.7 71.55 0l2.64 2.32a37 37 0 0048.82 0l2.34-2.07a54.62 54.62 0 0172.14 0l2.35 2.07a36.94 36.94 0 0048.81 0l2.35-2.07a54.6 54.6 0 0172.13 0l2.35 2.07a37 37 0 0048.82 0l2.37-2.07a54.62 54.62 0 0172.14 0l2.35 2.07a36.94 36.94 0 0048.81 0l2.35-2.07a54.6 54.6 0 0172.13 0l2.35 2.07a37 37 0 0048.82 0l2.34-2.07a54.62 54.62 0 0172.14 0l2.35 2.07a36.94 36.94 0 0048.81 0l2.64-2.33c20.06-17.69 51.49-17.69 71.55 0l-11.71 13.22a37 37 0 00-48.23 0l-2.64 2.33A54.39 54.39 0 01516.13 61z"/><path class="cls-3" d="M516.13 23.79a54.38 54.38 0 01-36.06-13.6l-2.35-2.07a37 37 0 00-48.82 0l-2.35 2.07a54.6 54.6 0 01-72.13 0l-2.35-2.07a36.94 36.94 0 00-48.81 0l-2.35 2.07a54.6 54.6 0 01-72.13 0l-2.35-2.07a37 37 0 00-48.82 0l-2.34 2.07a54.62 54.62 0 01-72.14 0l-2.35-2.07a36.94 36.94 0 00-48.78 0l-2.35 2.07a54.6 54.6 0 01-72.13 0l-2.35-2.07a37 37 0 00-48.82 0L-76 10.19a54.62 54.62 0 01-72.14 0l-2.64-2.33a37 37 0 00-48.23 0l-11.68-13.21c20.06-17.7 51.49-17.7 71.55 0L-136.5-3a37 37 0 0048.82 0l2.34-2.07a54.62 54.62 0 0172.14 0L-10.85-3A36.94 36.94 0 0038-3l2.31-2.1a54.6 54.6 0 0172.13 0l2.35 2.1a37 37 0 0048.82 0L166-5.1a54.62 54.62 0 0172.14 0l2.3 2.1a36.94 36.94 0 0048.81 0l2.35-2.1a54.6 54.6 0 0172.13 0l2.35 2.1a37 37 0 0048.82 0l2.34-2.07a54.62 54.62 0 0172.14 0L491.73-3a36.94 36.94 0 0048.81 0l2.64-2.32c20.06-17.7 51.49-17.7 71.55 0L603.07 7.86a37 37 0 00-48.23 0l-2.64 2.33a54.39 54.39 0 01-36.07 13.6zm0 76.32a54.38 54.38 0 01-36.06-13.6l-2.35-2.08a37 37 0 00-48.82 0l-2.35 2.08a54.63 54.63 0 01-72.13 0l-2.35-2.08a37 37 0 00-48.81 0l-2.35 2.08a54.6 54.6 0 01-72.13 0l-2.35-2.07a37 37 0 00-48.82 0l-2.34 2.07a54.63 54.63 0 01-72.14 0l-2.35-2.08a37 37 0 00-48.81 0l-2.35 2.07a54.62 54.62 0 01-72.13 0l-2.35-2.08a37 37 0 00-48.82 0L-76 86.5a54.63 54.63 0 01-72.14 0l-2.64-2.33a37 37 0 00-48.23 0L-210.69 71c20.06-17.7 51.49-17.7 71.55 0l2.64 2.33a37 37 0 0048.82 0l2.34-2.07a54.62 54.62 0 0172.14 0l2.35 2.07a36.94 36.94 0 0048.81 0l2.35-2.07a54.6 54.6 0 0172.13 0l2.35 2.07a37 37 0 0048.82 0l2.39-2.11a54.62 54.62 0 0172.14 0l2.35 2.07a36.94 36.94 0 0048.81 0l2.35-2.07a54.6 54.6 0 0172.13 0l2.35 2.07a37 37 0 0048.82 0l2.34-2.07a54.62 54.62 0 0172.14 0l2.35 2.07a36.94 36.94 0 0048.81 0l2.59-2.29c20.06-17.7 51.49-17.7 71.55 0l-11.66 13.18a37 37 0 00-48.23 0l-2.64 2.33a54.44 54.44 0 01-36.07 13.6z"/><path class="cls-3" d="M516.13 139.21a54.39 54.39 0 01-36.06-13.61l-2.35-2.07a37 37 0 00-48.82 0l-2.35 2.07a54.6 54.6 0 01-72.13 0l-2.35-2.07a37 37 0 00-48.81 0l-2.35 2.07a54.6 54.6 0 01-72.13 0l-2.35-2.07a37 37 0 00-48.82 0l-2.34 2.07a54.62 54.62 0 01-72.14 0l-2.35-2.07a37 37 0 00-48.81 0l-2.35 2.07a54.6 54.6 0 01-72.13 0l-2.35-2.07a37 37 0 00-48.82 0L-76 125.6a54.62 54.62 0 01-72.14 0l-2.64-2.32a37 37 0 00-48.23 0l-11.66-13.21c20.06-17.7 51.49-17.7 71.55 0l2.64 2.33a37 37 0 0048.82 0l2.34-2.07a54.62 54.62 0 0172.14 0l2.35 2.07a37 37 0 0048.81 0l2.35-2.07a54.6 54.6 0 0172.13 0l2.35 2.07a37 37 0 0048.82 0l2.34-2.07a54.62 54.62 0 0172.14 0l2.35 2.07a37 37 0 0048.81 0l2.35-2.07a54.6 54.6 0 0172.13 0l2.35 2.07a37 37 0 0048.82 0l2.34-2.07a54.62 54.62 0 0172.14 0l2.35 2.07a37 37 0 0048.81 0l2.64-2.33c20.06-17.7 51.49-17.7 71.55 0l-11.66 13.21a37 37 0 00-48.23 0l-2.64 2.33a54.4 54.4 0 01-36.09 13.6z"/></g><path class="cls-4" d="M825.8 447.18l264.7-64.26H825.8v64.26zm.37.62l132.67 62.84H826.17V447.8z"/><path class="cls-4" d="M958.53 510.67l132.67-62.25H958.53v62.25zm-397.13.48l264.7-63.46H561.4v63.46zm132.03-63.81l132.67-63.46-132.67-.01v63.47z"/><path class="cls-4" d="M561.07 446.72l132.67-62.87H561.07v62.87zm177.88-212.88l-14.64 23.75h29.32l-14.68-23.75z"/><path class="cls-4" d="M739.12 210.46l-14.64 23.75h29.31l-14.67-23.75z"/><path class="cls-4" d="M739.12 186.97l-14.64 23.75h29.31l-14.67-23.75z"/><path class="cls-4" d="M739.12 163.33l-14.64 23.74h29.31l-14.67-23.74zm0-23.8l-14.64 23.75h29.31l-14.67-23.75zm29.16 94.27l-14.63 23.74h29.31l-14.68-23.74z"/><path class="cls-4" d="M768.45 210.41l-14.63 23.75h29.31l-14.68-23.75z"/><path class="cls-4" d="M768.45 186.92l-14.63 23.75h29.31l-14.68-23.75z"/><path class="cls-4" d="M768.45 163.28l-14.63 23.75h29.31l-14.68-23.75zm0-23.8l-14.63 23.75h29.31l-14.68-23.75zm29.43 94.36l-14.63 23.75h29.31l-14.68-23.75z"/><path class="cls-4" d="M798.05 210.46l-14.64 23.75h29.32l-14.68-23.75z"/><path class="cls-4" d="M798.05 186.97l-14.64 23.75h29.32l-14.68-23.75z"/><path class="cls-4" d="M798.05 163.33l-14.64 23.74h29.32l-14.68-23.74zm0-23.8l-14.64 23.75h29.32l-14.68-23.75zm29.14 94.31l-14.63 23.75h29.31l-14.68-23.75z"/><path class="cls-4" d="M827.36 210.46l-14.63 23.75h29.31l-14.68-23.75z"/><path class="cls-4" d="M827.36 186.97l-14.63 23.75h29.31l-14.68-23.75z"/><path class="cls-4" d="M827.36 163.33l-14.63 23.74h29.31l-14.68-23.74zm0-23.8l-14.63 23.75h29.31l-14.68-23.75zm29.29 94.31l-14.63 23.75h29.31l-14.68-23.75z"/><path class="cls-4" d="M856.82 210.46l-14.63 23.75h29.31l-14.68-23.75z"/><path class="cls-4" d="M856.82 186.97l-14.63 23.75h29.31l-14.68-23.75z"/><path class="cls-4" d="M856.82 163.33l-14.63 23.74h29.31l-14.68-23.74zm0-23.8l-14.63 23.75h29.31l-14.68-23.75zm29.15 94.27l-14.64 23.74h29.31l-14.67-23.74z"/><path class="cls-4" d="M886.13 210.41l-14.63 23.75h29.31l-14.68-23.75z"/><path class="cls-4" d="M886.13 186.92l-14.63 23.75h29.31l-14.68-23.75z"/><path class="cls-4" d="M886.13 163.28l-14.63 23.75h29.31l-14.68-23.75zm0-23.8l-14.63 23.75h29.31l-14.68-23.75zm29.43 94.36l-14.63 23.75h29.31l-14.68-23.75z"/><path class="cls-4" d="M915.73 210.46l-14.63 23.75h29.31l-14.68-23.75z"/><path class="cls-4" d="M915.73 186.97l-14.63 23.75h29.31l-14.68-23.75z"/><path class="cls-4" d="M915.73 163.33l-14.63 23.74h29.31l-14.68-23.74zm0-23.8l-14.63 23.75h29.31l-14.68-23.75zm29.15 94.31l-14.64 23.75h29.31l-14.67-23.75z"/><path class="cls-4" d="M945.04 210.46l-14.63 23.75h29.31l-14.68-23.75z"/><path class="cls-4" d="M945.04 186.97l-14.63 23.75h29.31l-14.68-23.75z"/><path class="cls-4" d="M945.04 163.33l-14.63 23.74h29.31l-14.68-23.74zm0-23.8l-14.63 23.75h29.31l-14.68-23.75z"/><g clip-path="url(#clip-path-8)"><path class="cls-3" d="M983.5 405.71a29.11 29.11 0 0119.3 7.27l1.25 1.11a19.77 19.77 0 0026.12 0l1.25-1.11a29.22 29.22 0 0138.59 0l1.25 1.11a19.77 19.77 0 0026.12 0l1.25-1.11a29.22 29.22 0 0138.59 0l1.25 1.11a19.77 19.77 0 0026.12 0l1.25-1.11a29.22 29.22 0 0138.59 0l1.25 1.11a19.77 19.77 0 0026.12 0l1.25-1.11a29.22 29.22 0 0138.59 0l1.25 1.11a19.77 19.77 0 0026.12 0l1.25-1.11a29.22 29.22 0 0138.59 0l1.41 1.25a19.78 19.78 0 0025.8 0l6.24 7.07a29.35 29.35 0 01-38.28 0l-1.41-1.25a19.78 19.78 0 00-26.11 0l-1.26 1.11a29.21 29.21 0 01-38.58 0l-1.26-1.11a19.78 19.78 0 00-26.11 0l-1.26 1.11a29.21 29.21 0 01-38.58 0l-1.26-1.11a19.78 19.78 0 00-26.11 0l-1.26 1.11a29.21 29.21 0 01-38.58 0l-1.26-1.11a19.78 19.78 0 00-26.11 0l-1.26 1.11a29.21 29.21 0 01-38.58 0l-1.26-1.11a19.78 19.78 0 00-26.11 0l-1.26 1.11a29.21 29.21 0 01-38.58 0l-1.26-1.11a19.78 19.78 0 00-26.11 0L969 421.3a29.34 29.34 0 01-38.28 0l6.24-7.07a19.78 19.78 0 0025.8 0l1.41-1.25a29.11 29.11 0 0119.33-7.27z"/><path class="cls-3" d="M983 386.06a29.1 29.1 0 0119.29 7.28l1.26 1.11a19.76 19.76 0 0026.11 0l1.26-1.11a29.21 29.21 0 0138.58 0l1.26 1.11a19.76 19.76 0 0026.11 0l1.26-1.11a29.21 29.21 0 0138.58 0l1.26 1.11a19.76 19.76 0 0026.11 0l1.26-1.11a29.21 29.21 0 0138.58 0l1.26 1.11a19.76 19.76 0 0026.11 0l1.26-1.11a29.21 29.21 0 0138.58 0l1.26 1.11a19.76 19.76 0 0026.11 0l1.26-1.11a29.21 29.21 0 0138.58 0l1.41 1.25a19.79 19.79 0 0025.81 0l6.23 7.06a29.33 29.33 0 01-38.27 0l-1.41-1.24a19.77 19.77 0 00-26.12 0l-1.25 1.11a29.22 29.22 0 01-38.59 0l-1.25-1.11a19.77 19.77 0 00-26.12 0l-1.25 1.11a29.22 29.22 0 01-38.59 0l-1.25-1.11a19.77 19.77 0 00-26.12 0l-1.25 1.11a29.22 29.22 0 01-38.59 0l-1.25-1.11a19.77 19.77 0 00-26.12 0l-1.25 1.11a29.22 29.22 0 01-38.59 0l-1.26-1.11a19.76 19.76 0 00-26.11 0l-1.25 1.11a29.22 29.22 0 01-38.59 0l-1.25-1.11a19.77 19.77 0 00-26.12 0l-1.41 1.24a29.33 29.33 0 01-38.27 0l6.23-7.06a19.78 19.78 0 0025.8 0l1.42-1.25a29.08 29.08 0 0119.29-7.28zm.76 82.61a29.1 29.1 0 0119.29 7.28l1.26 1.11a19.76 19.76 0 0026.11 0l1.26-1.11a29.22 29.22 0 0138.59 0l1.25 1.11a19.76 19.76 0 0026.11 0l1.26-1.11a29.22 29.22 0 0138.59 0l1.25 1.11a19.76 19.76 0 0026.11 0l1.26-1.11a29.22 29.22 0 0138.59 0l1.25 1.11a19.76 19.76 0 0026.11 0l1.26-1.11a29.22 29.22 0 0138.59 0l1.25 1.11a19.76 19.76 0 0026.11 0l1.26-1.11a29.22 29.22 0 0138.59 0l1.41 1.25a19.78 19.78 0 0025.8 0l6.24 7.07a29.36 29.36 0 01-38.28 0l-1.41-1.25a19.76 19.76 0 00-26.11 0l-1.26 1.11a29.21 29.21 0 01-38.58 0l-1.26-1.11a19.76 19.76 0 00-26.11 0l-1.26 1.11a29.22 29.22 0 01-38.59 0l-1.25-1.11a19.76 19.76 0 00-26.11 0l-1.26 1.11a29.22 29.22 0 01-38.59 0l-1.25-1.11a19.76 19.76 0 00-26.11 0l-1.26 1.11a29.22 29.22 0 01-38.59 0L1064 483a19.76 19.76 0 00-26.11 0l-1.26 1.11a29.22 29.22 0 01-38.59 0l-1.22-1.11a19.76 19.76 0 00-26.11 0l-1.42 1.25a29.35 29.35 0 01-38.27 0l6.24-7.07a19.78 19.78 0 0025.8 0l1.41-1.25a29.17 29.17 0 0119.29-7.26z"/><path class="cls-3" d="M983.76 447.76a29.1 29.1 0 0119.29 7.28l1.26 1.11a19.78 19.78 0 0026.11 0l1.26-1.11a29.21 29.21 0 0138.59 0l1.25 1.11a19.78 19.78 0 0026.11 0l1.26-1.11a29.21 29.21 0 0138.59 0l1.25 1.11a19.78 19.78 0 0026.11 0l1.26-1.11a29.21 29.21 0 0138.59 0l1.25 1.11a19.78 19.78 0 0026.11 0l1.26-1.11a29.21 29.21 0 0138.59 0l1.25 1.11a19.78 19.78 0 0026.11 0l1.26-1.11a29.21 29.21 0 0138.59 0l1.41 1.24a19.76 19.76 0 0025.8 0l6.24 7.07a29.34 29.34 0 01-38.28 0l-1.41-1.24a19.76 19.76 0 00-26.11 0l-1.26 1.11a29.21 29.21 0 01-38.58 0l-1.26-1.11a19.76 19.76 0 00-26.11 0l-1.26 1.11a29.22 29.22 0 01-38.59 0l-1.25-1.11a19.76 19.76 0 00-26.11 0l-1.26 1.11a29.22 29.22 0 01-38.59 0l-1.25-1.11a19.76 19.76 0 00-26.11 0l-1.26 1.11a29.22 29.22 0 01-38.59 0l-1.25-1.11a19.76 19.76 0 00-26.11 0l-1.26 1.11a29.22 29.22 0 01-38.59 0l-1.25-1.11a19.76 19.76 0 00-26.11 0l-1.42 1.24a29.33 29.33 0 01-38.27 0l6.24-7.07a19.76 19.76 0 0025.8 0l1.41-1.24a29.12 29.12 0 0119.29-7.28z"/><path class="cls-3" d="M983.76 426.85a29.09 29.09 0 0119.29 7.27l1.26 1.11a19.76 19.76 0 0026.11 0l1.26-1.11a29.22 29.22 0 0138.59 0l1.25 1.11a19.76 19.76 0 0026.11 0l1.26-1.11a29.22 29.22 0 0138.59 0l1.25 1.11a19.76 19.76 0 0026.11 0l1.26-1.11a29.22 29.22 0 0138.59 0l1.25 1.11a19.76 19.76 0 0026.11 0l1.26-1.11a29.22 29.22 0 0138.59 0l1.25 1.11a19.76 19.76 0 0026.11 0l1.26-1.11a29.22 29.22 0 0138.59 0l1.41 1.25a19.78 19.78 0 0025.8 0l6.24 7.07a29.35 29.35 0 01-38.28 0l-1.41-1.25a19.78 19.78 0 00-26.11 0l-1.26 1.11a29.2 29.2 0 01-38.58 0l-1.26-1.11a19.78 19.78 0 00-26.11 0l-1.26 1.11a29.21 29.21 0 01-38.59 0l-1.25-1.11a19.78 19.78 0 00-26.11 0l-1.26 1.11a29.21 29.21 0 01-38.59 0l-1.25-1.11a19.78 19.78 0 00-26.11 0l-1.26 1.11a29.21 29.21 0 01-38.59 0l-1.25-1.11a19.78 19.78 0 00-26.11 0l-1.26 1.11a29.21 29.21 0 01-38.59 0l-1.25-1.11a19.78 19.78 0 00-26.11 0l-1.42 1.25a29.33 29.33 0 01-38.27 0l6.24-7.07a19.78 19.78 0 0025.8 0l1.41-1.25a29.11 29.11 0 0119.29-7.27zm66.98 61.72a29.1 29.1 0 0119.29 7.28l1.26 1.11a19.76 19.76 0 0026.11 0l1.26-1.11a29.21 29.21 0 0138.58 0l1.26 1.11a19.76 19.76 0 0026.11 0l1.26-1.11a29.21 29.21 0 0138.58 0l1.26 1.11a19.76 19.76 0 0026.11 0l1.26-1.11a29.21 29.21 0 0138.58 0l1.26 1.11a19.76 19.76 0 0026.11 0l1.26-1.11a29.21 29.21 0 0138.58 0l1.26 1.11a19.76 19.76 0 0026.11 0l1.26-1.11a29.21 29.21 0 0138.58 0l1.42 1.25a19.78 19.78 0 0025.8 0l6.23 7.07a29.35 29.35 0 01-38.27 0l-1.41-1.25a19.77 19.77 0 00-26.12 0l-1.25 1.11a29.22 29.22 0 01-38.59 0l-1.25-1.11a19.77 19.77 0 00-26.12 0l-1.25 1.11a29.22 29.22 0 01-38.59 0l-1.25-1.11a19.77 19.77 0 00-26.12 0l-1.25 1.11a29.22 29.22 0 01-38.59 0l-1.25-1.11a19.77 19.77 0 00-26.12 0l-1.25 1.11a29.22 29.22 0 01-38.59 0l-1.25-1.11a19.77 19.77 0 00-26.12 0l-1.25 1.11a29.22 29.22 0 01-38.59 0l-1.25-1.11a19.77 19.77 0 00-26.12 0l-1.41 1.25a29.35 29.35 0 01-38.27 0l6.23-7.07a19.79 19.79 0 0025.81 0l1.41-1.25a29.1 29.1 0 0119.29-7.28z"/><path class="cls-3" d="M1050.28 509.43a29 29 0 0119.29 7.28l1.26 1.1a19.76 19.76 0 0026.11 0l1.26-1.1a29.19 29.19 0 0138.58 0l1.26 1.1a19.76 19.76 0 0026.11 0l1.26-1.1a29.19 29.19 0 0138.58 0l1.26 1.1a19.76 19.76 0 0026.11 0l1.26-1.1a29.19 29.19 0 0138.58 0l1.26 1.1a19.76 19.76 0 0026.11 0l1.26-1.1a29.19 29.19 0 0138.58 0l1.26 1.1a19.76 19.76 0 0026.11 0l1.26-1.1a29.19 29.19 0 0138.58 0L1407 518a19.79 19.79 0 0025.81 0l6.23 7.07a29.33 29.33 0 01-38.27 0l-1.41-1.25a19.79 19.79 0 00-26.12 0l-1.25 1.11a29.2 29.2 0 01-38.59 0l-1.25-1.1a19.78 19.78 0 00-26.12 0l-1.25 1.11a29.2 29.2 0 01-38.59 0l-1.25-1.11a19.79 19.79 0 00-26.12 0l-1.25 1.11a29.2 29.2 0 01-38.59 0l-1.25-1.11a19.79 19.79 0 00-26.12 0l-1.25 1.11a29.2 29.2 0 01-38.59 0l-1.25-1.11a19.79 19.79 0 00-26.12 0l-1.25 1.11a29.2 29.2 0 01-38.59 0l-1.25-1.1a19.78 19.78 0 00-26.12 0l-1.41 1.25a29.33 29.33 0 01-38.27 0l6.23-7.07a19.79 19.79 0 0025.81 0l1.41-1.24a29 29 0 0119.32-7.35z"/></g><path class="cls-4" d="M1311.85 63.82l-117.43 63.83h117.43V63.82zm0 0L1194.42 0v63.82h117.43zm-234.86 0l-117.44 63.83h117.44V63.82zm0 0L959.55 0v63.82h117.44zm234.86 63.83l58.72-31.91v31.91h-58.72zm58.72-63.83l-58.72 31.92h58.72V63.82z"/><path class="cls-4" d="M1370.57 63.82l-58.72-31.91v31.91h58.72zm0-63.82l-58.72 31.91h58.72V0zm-176.15 127.65l-58.72-31.91v31.91h58.72zm0-31.91l-58.72-31.92v31.92h58.72zm-58.72-31.92l58.72-31.91v31.91h-58.72zm58.72-31.91L1135.7 0v31.91h58.72zm-117.43 31.91l58.71-31.91v31.91h-58.71zm58.71-31.91L1076.99 0v31.91h58.71zM438.15.19l34.78 34.83h-69.66L438.15.19zm0 34.83l34.78 34.83h-69.66l34.88-34.83zm0 34.83l34.78 34.82h-69.66l34.88-34.82zm0 34.82l34.78 34.83h-69.66l34.88-34.83zM507.81.19l34.77 34.83h-69.65L507.81.19zm0 34.83l34.77 34.83h-69.65l34.88-34.83zm0 34.83l34.77 34.82h-69.65l34.88-34.82zm0 34.82l34.77 34.83h-69.65l34.88-34.83zM577.46.19l34.77 34.83h-69.65L577.46.19zm0 34.83l34.77 34.83h-69.65l34.88-34.83zm0 34.83l34.77 34.82h-69.65l34.88-34.82zm0 34.82l34.77 34.83h-69.65l34.88-34.83zM647.12.19l34.77 34.83h-69.66L647.12.19zm0 34.83l34.77 34.83h-69.66l34.89-34.83zm0 34.83l34.77 34.82h-69.66l34.89-34.82zm0 34.82l34.77 34.83h-69.66l34.89-34.83zM716.77.19l34.77 34.83h-69.65L716.77.19zm0 34.83l34.77 34.83h-69.65l34.88-34.83zm0 34.83l34.77 34.82h-69.65l34.88-34.82zm0 34.82l34.77 34.83h-69.65l34.88-34.83zM786.42.19l34.78 34.83h-69.66L786.42.19zm0 34.83l34.78 34.83h-69.66l34.88-34.83zm0 34.83l34.78 34.82h-69.66l34.88-34.82zm0 34.82l34.78 34.83h-69.66l34.88-34.83zM856.08.19l34.77 34.83H821.2L856.08.19zm0 34.83l34.77 34.83H821.2l34.88-34.83zm0 34.83l34.77 34.82H821.2l34.88-34.82zm0 34.82l34.77 34.83H821.2l34.88-34.83zM925.73.19l34.77 34.83h-69.65L925.73.19zm0 34.83l34.77 34.83h-69.65l34.88-34.83zm0 34.83l34.77 34.82h-69.65l34.88-34.82zm0 34.82l34.77 34.83h-69.65l34.88-34.83zm480.41 10.86l35.46 35.52h-71.03l35.57-35.52zm0 35.52l35.46 35.51h-71.03l35.57-35.51zm0 35.51l35.46 35.51h-71.03l35.57-35.51zm0 35.51l35.46 35.52h-71.03l35.57-35.52zm71.02-106.54l35.46 35.52h-71.02l35.56-35.52zm0 35.52l35.46 35.51h-71.02l35.56-35.51zm0 35.51l35.46 35.51h-71.02l35.56-35.51zm0 35.51l35.46 35.52h-71.02l35.56-35.52zm71.03-106.54l35.46 35.52h-71.03l35.57-35.52zm0 35.52l35.46 35.51h-71.03l35.57-35.51zm0 35.51l35.46 35.51h-71.03l35.57-35.51zm0 35.51l35.46 35.52h-71.03l35.57-35.52zm71.03-106.54l35.46 35.52h-71.03l35.57-35.52zm0 35.52l35.46 35.51h-71.03l35.57-35.51zm0 35.51l35.46 35.51h-71.03l35.57-35.51zm0 35.51l35.46 35.52h-71.03l35.57-35.52z"/></svg>