<svg id="Layer_1" data-name="Layer 1" xmlns="http://www.w3.org/2000/svg" viewBox="0 0 1370.57 511.14"><defs><style>.cls-1,.cls-5{fill:#ffd400}.cls-2,.cls-3{fill:#00b4ff}.cls-2,.cls-4,.cls-5{fill-rule:evenodd}.cls-4{fill:#00b400}</style></defs><path class="cls-1" d="M328.87 332.23h-67.44V315.8h8.22v-42.37h-8.22V257h67.44v25.08H312v-8.65h-20.74V286h19.46v16.4h-19.46v13.4H312v-8.65h16.86zm43.42 0h-37.18V315.8h9.08v-42.37h-9.08V257h38.05v16.43h-7.35v13h7.78c9.94 0 16-4.76 16-13h-6.49V257H419v16.43h-9.1c0 11.24-7.78 20.75-15.56 25.08 2.16 11.67 8.83 17.29 23.53 16.42l16.43-41.5h-5.62V257h42.37l22.48 58.8h7.78v16.43h-38V315.8h6.05l-1.73-5.62h-25.11l-1.73 5.62h6.91v16.43h-14.94c-25.94 0-29.34 0-38.85-3.89-9.08-3.9-16-13.41-19.46-25.51h-8.64v13h6.48zm75.85-38.48h13.4l-6.92-18.16zm-75.65 127h-37.38v-16.63H344v-42.47h-8.84v-16h46c20.1 0 30.24 11 30.24 24.93a25.82 25.82 0 01-13.59 22.3c1.36 8.15 8.43 11.21 17.21 11.21h14v-42.44h-11.94v-16h45.19v16h-11.89v42.47h11.89v16.65H414c-21.88 0-32.24-8.49-37.33-24.46H366v7.81h6.46zM366 380h10.13c6.78 0 12.36-2.4 12.36-9.18 0-7.18-5.58-9.17-12.36-9.17H366zm-37.16 15.83H312v8.65h-20.74v-13.4h19.46v-16.43h-19.46v-12.54H312v8.65h16.86v-25.08h-67.43v16.43h8.22v42.37h-8.22v16.43h67.44zM488.83 257v24.65h16v-8.22h9.08v42.37h-7.78v16.43h38V315.8H536v-42.37h9v8.22h16.43V257zM522 361.65h9.15v27.14l-30.27-43.11H468.6v16h8.86v42.47h-8.86v16.65h39.08v-16.68h-8.81V378l29.59 42.77h24.12v-59.12h8.18v-16H522zm-191.29 125c0 11.21-8.18 22.43-24.09 22.43h-45.19V492.8h7.82v-42.47h-7.82v-16.65h39.91c15.39 0 23 9.85 23 20.39a20.13 20.13 0 01-5.83 13.93c8.84 4.07 12.23 11.21 12.23 18.68m-39.41-23.44h5.78c4.75 0 7.13-3.06 7.13-6.46s-2.38-6.45-7.13-6.45h-5.78zm18 22.42a7.62 7.62 0 00-7.82-7.47h-10.18v14.61h9.85c5.1 0 8.16-3.74 8.16-7.14m214.82-20.23h36.26v28.11c-5.1 9.51-16.65 16.93-34 16.93-10.19 0-18.34-2.72-22.76-6.12-16.37 9.95-44.93 7.89-55-19.71h-9.73v8.16h6.67v16.31h-37.39V492.8h9.3v-42.47h-13.38v28.2c0 21.06-14.95 32.61-34.32 32.61-17 0-34.31-10.19-34.31-32.61v-28.2h-7.13v-16.65h38.05v16.65h-8.16v29.22c0 8.49 6.46 13.25 12.57 13.25s11.9-4.42 11.9-13.25v-29.22h-9.85v-16.65h80.18c20.1 0 30.24 11 30.24 24.93A25.8 25.8 0 01469.58 481c3.85 11.3 15.57 13.52 21.19 8.09a39.31 39.31 0 01-3.77-17.7c0-20.15 12.53-39.07 38.39-39.07 14.94 0 24 4.26 31.13 10.26v17.62h-19l-.08-7.86a19.5 19.5 0 00-10.65-2.66c-11.26 0-18 8-18 21.37 0 12.23 7.13 21.34 18 21.68 5.77 0 10.22-1.23 14.6-5v-6.3h-17.23zm-63-5.93c0-7.18-5.58-9.17-12.36-9.17h-9.88v18.35h9.88c6.78 0 12.36-2.4 12.36-9.18"/><path class="cls-2" d="M566.47 257l-5.71 5.68V257h5.71zm29.79 0l-35.5 35.33v-16.55L579.63 257h16.63zm29.82 0l-65.32 64.86v-16.54L609.42 257h16.66zm29.66 0l-94.98 94.53v-16.56L639.11 257h16.63zm29.47 0L560.76 381.4v-16.56L668.64 257h16.57zm29.96 0L587.64 383.85h-16.65L698.53 257h16.64zm29.82 0L617.33 383.85h-16.65L728.33 257h16.66zm29.25 0L647.26 383.85h-16.58L757.66 257h16.58zm30.28 0L677.21 383.85h-16.62L787.9 257h16.62zm22.31 0v7.79L707.26 383.85h-16.62L818.03 257h8.8zm0 20.89v16.55l-89.81 89.41H720.4l106.43-105.96zm0 29.71v16.56l-59.98 59.69h-16.63l76.61-76.25zm0 29.71v16.56l-30.1 29.98h-16.61l46.71-46.54zm0 30v16.54h-16.62l16.62-16.54z"/><path class="cls-3" d="M1370.57 140.32V170l-1.1-.95-3.15-2.78a49.56 49.56 0 00-65.48 0l-3.15 2.78a73.23 73.23 0 01-96.74 0l-3.15-2.78a49.55 49.55 0 00-65.47 0l-3.15 2.78a73.25 73.25 0 01-96.75 0l-3.15-2.78a49.55 49.55 0 00-65.47 0l-3.15 2.78-.93.8v-29.63a73.27 73.27 0 0185.19 8.34l3.15 2.77a49.55 49.55 0 0065.47 0l3.15-2.77a73.25 73.25 0 0196.75 0l3.15 2.77a49.55 49.55 0 0065.47 0l3.15-2.77a73.28 73.28 0 0185.36-8.24z"/><path class="cls-3" d="M1370.57 191.91v29.69l-1.1-.95-3.15-2.78a49.59 49.59 0 00-65.48 0l-3.15 2.78a73.23 73.23 0 01-96.74 0l-3.15-2.78a49.57 49.57 0 00-65.47 0l-3.15 2.78a73.25 73.25 0 01-96.75 0l-3.15-2.78a49.57 49.57 0 00-65.47 0l-3.15 2.78-.93.8v-29.64a73.27 73.27 0 0185.19 8.34l3.15 2.78a49.57 49.57 0 0065.47 0l3.15-2.78a73.25 73.25 0 0196.75 0l3.15 2.78a49.57 49.57 0 0065.47 0l3.15-2.78a73.28 73.28 0 0185.36-8.24z"/><path class="cls-3" d="M1048.07 254.52c1 .87 2 1.7 3 2.48h-91.34v-13.6a73.29 73.29 0 0185.19 8.35zm168.52 0c1 .87 2 1.7 3 2.48H1110.5c1-.78 2-1.61 3-2.48l3.15-2.78a73.25 73.25 0 0196.75 0zm153.98-11.01V257H1279c1-.78 2-1.61 3-2.48l3.15-2.78a73.28 73.28 0 0185.42-8.23z"/><path class="cls-4" d="M1370.57 293.49v27.42l-53.53-36.49-56.59 38.58-56.6-38.58-56.59 38.58v-.01l-54.68-37.27V258.4l54.68 37.28 56.59-38.58v.01l.01-.01 56.58 38.58v-.1l56.59-38.58 53.54 36.49z"/><path class="cls-4" d="M1370.57 354.34v27.42l-53.53-36.49-56.59 38.58-56.6-38.58-56.59 38.58-54.68-37.28v-27.31l54.68 37.27 56.59-38.57h.01l56.58 38.57v-.09l56.59-38.58 53.54 36.48z"/><path class="cls-5" d="M724.32 172.02v11.73l-13.99-9.65-24.01 16.57-24.02-16.57-24.01 16.57-24.01-16.57-24.02 16.57-24.01-16.57-24.02 16.57-24.01-16.57-24.02 16.57-24.01-16.57-24.01 16.57-24.02-16.57-12.13 8.37v-11.73l12.13-8.38 24.02 16.58 24.01-16.58 24.01 16.58 24.02-16.58 24.01 16.58 24.02-16.58 24.01 16.58 24.02-16.58 24.01 16.58 24.01-16.58 5.25 3.62 18.77 12.96 18.77-12.96 5.24-3.62 13.99 9.66z"/><path class="cls-5" d="M724.32 194.13v11.73l-13.99-9.65-24.01 16.57-24.02-16.57-24.01 16.57-24.01-16.57-24.02 16.57-24.01-16.57-24.02 16.57-24.01-16.57-24.02 16.57-24.01-16.57-24.01 16.57-24.02-16.57-12.13 8.37v-11.73l12.13-8.38 24.02 16.58 24.01-16.58 24.01 16.58 24.02-16.58 24.01 16.58 24.02-16.58 24.01 16.58 24.02-16.58 24.01 16.58 24.01-16.58 5.25 3.62 18.77 12.96 18.77-12.96 5.24-3.62 13.99 9.66z"/><path class="cls-5" d="M724.32 216.24v11.73l-13.99-9.65-24.01 16.57-24.02-16.57-24.01 16.57-24.01-16.57-24.02 16.57-24.01-16.57-24.02 16.57-24.01-16.57-24.02 16.57-24.01-16.57-24.01 16.57-24.02-16.57-12.13 8.37v-11.73l12.13-8.38 24.02 16.58 24.01-16.58 24.01 16.58 24.02-16.58 24.01 16.58 24.02-16.58 24.01 16.58 24.02-16.58 24.01 16.58 24.01-16.58 5.25 3.62 18.77 12.96 18.77-12.96 5.24-3.62 13.99 9.66z"/><path class="cls-5" d="M724.32 238.35v11.73l-13.99-9.65L686.32 257l-24.02-16.57L638.29 257l-24.01-16.57L590.26 257l-24.01-16.57L542.23 257l-24.01-16.57L494.2 257l-24.01-16.57L446.18 257l-24.02-16.57-12.13 8.37v-11.73l12.13-8.38 24.02 16.58 24.01-16.58 24.01 16.58 24.02-16.58 24.01 16.58 24.02-16.58 24.01 16.58 24.02-16.58 24.01 16.58 24.01-16.58 5.25 3.62 18.77 12.96 18.77-12.96 5.24-3.62 13.99 9.66zm-13.99-98.1l-5.24 3.62-18.77 13-18.77-13-5.25-3.62-24 16.58-24-16.58-24 16.58-24-16.58-24 16.58-24-16.58-24 16.58-24-16.58-24 16.58-24-16.58-12.3 8.38v11.73l12.16-8.36 24 16.57 24-16.57 24 16.57 24-16.57 24 16.57 24-16.57 24 16.57 24-16.57 24 16.57 24-16.57 24 16.57 24-16.57 14 9.65v-11.74z"/><path class="cls-5" d="M724.32 149.91v11.73l-13.99-9.65-24.01 16.57-24.02-16.57-24.01 16.57-24.01-16.57-24.02 16.57-24.01-16.57-24.02 16.57-24.01-16.57-24.02 16.57-24.01-16.57-24.01 16.57-24.02-16.57-12.13 8.37v-11.73l12.13-8.38 24.02 16.58 24.01-16.58 24.01 16.58 24.02-16.58 24.01 16.58 24.02-16.58 24.01 16.58 24.02-16.58 24.01 16.58 24.01-16.58 5.25 3.62 18.77 12.96 18.77-12.96 5.24-3.62 13.99 9.66z"/><path class="cls-5" d="M710.33 162.36l13.99 9.66v11.73l-13.99-9.65-24.01 16.57-24.02-16.57-24.01 16.57-24.01-16.57-24.02 16.57-24.01-16.57-24.02 16.57-24.01-16.57-24.02 16.57-24.01-16.57-24.01 16.57-24.02-16.57-12.13 8.37v-11.73l12.13-8.38 24.02 16.58 24.01-16.58 24.01 16.58 24.02-16.58 24.01 16.58 24.02-16.58 24.01 16.58 24.02-16.58 24.01 16.58 24.01-16.58 5.25 3.62 18.77 12.96 18.77-12.96 5.24-3.62z"/><path class="cls-5" d="M710.33 184.47l13.99 9.66v11.73l-13.99-9.65-24.01 16.57-24.02-16.57-24.01 16.57-24.01-16.57-24.02 16.57-24.01-16.57-24.02 16.57-24.01-16.57-24.02 16.57-24.01-16.57-24.01 16.57-24.02-16.57-12.13 8.37v-11.73l12.13-8.38 24.02 16.58 24.01-16.58 24.01 16.58 24.02-16.58 24.01 16.58 24.02-16.58 24.01 16.58 24.02-16.58 24.01 16.58 24.01-16.58 5.25 3.62 18.77 12.96 18.77-12.96 5.24-3.62z"/><path class="cls-5" d="M710.33 206.58l13.99 9.66v11.73l-13.99-9.65-24.01 16.57-24.02-16.57-24.01 16.57-24.01-16.57-24.02 16.57-24.01-16.57-24.02 16.57-24.01-16.57-24.02 16.57-24.01-16.57-24.01 16.57-24.02-16.57-12.13 8.37v-11.73l12.13-8.38 24.02 16.58 24.01-16.58 24.01 16.58 24.02-16.58 24.01 16.58 24.02-16.58 24.01 16.58 24.02-16.58 24.01 16.58 24.01-16.58 5.25 3.62 18.77 12.96 18.77-12.96 5.24-3.62z"/><path class="cls-5" d="M710.33 228.69l13.99 9.66v11.73l-13.99-9.65L686.32 257l-24.02-16.57L638.29 257l-24.01-16.57L590.26 257l-24.01-16.57L542.23 257l-24.01-16.57L494.2 257l-24.01-16.57L446.18 257l-24.02-16.57-12.13 8.37v-11.73l12.13-8.38 24.02 16.58 24.01-16.58 24.01 16.58 24.02-16.58 24.01 16.58 24.02-16.58 24.01 16.58 24.02-16.58 24.01 16.58 24.01-16.58 5.25 3.62 18.77 12.96 18.77-12.96 5.24-3.62zm382.25 57.05v23.34L1040.42 257h23.37l28.79 28.74zm0 46.15v23.4L994.5 257h23.34l74.74 74.89zm0 46.73v5.23h-18.15L947.39 257h23.37l121.82 121.62zm-138.95 5.23h-23.36L826.83 280.44V257.1l126.8 126.75zm-47.54 0h-23.37l-55.89-55.87v-23.36l79.26 79.23zm143.66 0h-23.37L899.49 257h23.35l126.91 126.85zm-190.63 0h-23.36l-8.93-8.93v-23.35l32.29 32.28zm143.25 0H979L852.12 257h23.35l126.9 126.85z"/><path class="cls-3" d="M410 42.76V61.1a56.27 56.27 0 01-49.28-12.2l-2.39-2.07a38.12 38.12 0 00-49.69 0l-2.39 2.07a56.32 56.32 0 01-73.41 0l-2.39-2.07a38.1 38.1 0 00-49.68 0l-2.39 2.07a56.32 56.32 0 01-73.41 0l-2.39-2.07a38.12 38.12 0 00-49.69 0L50.5 48.9A56.29 56.29 0 010 60.81V42.32a38.12 38.12 0 0038.64-6.64L41 33.61a56.33 56.33 0 0173.42 0l2.38 2.07a38.1 38.1 0 0049.68 0l2.4-2.07a56.32 56.32 0 0173.41 0l2.39 2.07a38.1 38.1 0 0049.68 0l2.39-2.07a56.33 56.33 0 0173.42 0l2.38 2.07A38.1 38.1 0 00410 42.76zM34.62 0h34.07a37.44 37.44 0 00-15.8 8.12l-2.39 2.07A56.29 56.29 0 010 22.1V3.61A38.2 38.2 0 0034.62 0z"/><path class="cls-3" d="M162.49 0h34.08a37.32 37.32 0 00-15.8 8.12l-2.39 2.07a56.32 56.32 0 01-73.41 0l-2.39-2.07A37.44 37.44 0 0086.78 0h34.07a38.16 38.16 0 0041.64 0zm127.88 0h34.08a37.41 37.41 0 00-15.81 8.12l-2.39 2.07a56.32 56.32 0 01-73.41 0l-2.39-2.07A37.44 37.44 0 00214.65 0h34.08a38.16 38.16 0 0041.64 0zM410 4.05v18.33a56.25 56.25 0 01-49.3-12.19l-2.39-2.07A37.41 37.41 0 00342.52 0h34.08A38.2 38.2 0 00410 4.05zm0 77.43V99.8a56.27 56.27 0 01-49.25-12.19l-2.39-2.08a38.14 38.14 0 00-49.69 0l-2.39 2.08a56.32 56.32 0 01-73.41 0l-2.39-2.07a38.13 38.13 0 00-49.68 0l-2.39 2.07a56.33 56.33 0 01-73.41 0l-2.39-2.08a38.14 38.14 0 00-49.69 0L50.5 87.6A56.29 56.29 0 010 99.51V81a38.12 38.12 0 0038.64-6.64L41 72.32a56.33 56.33 0 0173.42 0l2.38 2.07a38.1 38.1 0 0049.68 0l2.4-2.07a56.32 56.32 0 0173.41 0l2.39 2.07a38.1 38.1 0 0049.68 0l2.39-2.07a56.33 56.33 0 0173.42 0l2.38 2.07A38.09 38.09 0 00410 81.48z"/><path class="cls-3" d="M410 120.19v18.32a56.19 56.19 0 01-49.23-12.2l-2.39-2.07a38.13 38.13 0 00-49.69 0l-2.39 2.07a56.32 56.32 0 01-73.41 0l-2.39-2.07a38.11 38.11 0 00-49.68 0l-2.39 2.07a56.32 56.32 0 01-73.41 0l-2.39-2.07a38.14 38.14 0 00-49.69 0l-2.39 2.07A56.26 56.26 0 010 138.21v-18.47a38.14 38.14 0 0038.64-6.64L41 111a56.33 56.33 0 0173.42 0l2.38 2.07a38.11 38.11 0 0049.68 0l2.4-2.07a56.32 56.32 0 0173.41 0l2.39 2.07a38.13 38.13 0 0049.68 0l2.39-2.07a56.33 56.33 0 0173.42 0l2.38 2.07a38.13 38.13 0 0037.45 7.12z"/><path class="cls-4" d="M560.42 446.48l133.2-62.63h-133.2v62.63z"/><path class="cls-5" d="M959.7 509.11l132.88-62.63H959.7v62.63z"/><path class="cls-4" d="M826.83 446.48l132.87 62.63H826.83v-62.63z"/><path class="cls-2" d="M560.42 509.11l266.41-62.63H560.42v62.63z"/><path class="cls-4" d="M826.83 446.48l265.75-62.63H826.83v62.63z"/><path class="cls-5" d="M693.62 446.48l133.21-62.63H693.62v62.63z"/><path class="cls-4" d="M738.95 233.53L724.32 257h29.31l-14.68-23.47z"/><path class="cls-4" d="M739.12 210.41l-14.63 23.48h29.31l-14.68-23.48z"/><path class="cls-4" d="M739.12 187.19l-14.63 23.48h29.31l-14.68-23.48z"/><path class="cls-4" d="M739.12 163.82l-14.63 23.47h29.31l-14.68-23.47zm0-23.53l-14.63 23.48h29.31l-14.68-23.48zm29.17 93.19l-14.64 23.48h29.31l-14.67-23.48z"/><path class="cls-4" d="M768.46 210.37l-14.64 23.48h29.31l-14.67-23.48z"/><path class="cls-4" d="M768.46 187.15l-14.64 23.47h29.31l-14.67-23.47z"/><path class="cls-4" d="M768.46 163.78l-14.64 23.47h29.31l-14.67-23.47zm0-23.53l-14.64 23.48h29.31l-14.67-23.48zm29.42 93.28L783.25 257h29.31l-14.68-23.47z"/><path class="cls-4" d="M798.05 210.41l-14.63 23.48h29.31l-14.68-23.48z"/><path class="cls-4" d="M798.05 187.19l-14.63 23.48h29.31l-14.68-23.48z"/><path class="cls-4" d="M798.05 163.82l-14.63 23.47h29.31l-14.68-23.47zm0-23.53l-14.63 23.48h29.31l-14.68-23.48zm29.15 93.24L812.56 257h29.31l-14.67-23.47z"/><path class="cls-4" d="M827.36 210.41l-14.63 23.48h29.31l-14.68-23.48z"/><path class="cls-4" d="M827.36 187.19l-14.63 23.48h29.31l-14.68-23.48z"/><path class="cls-4" d="M827.36 163.82l-14.63 23.47h29.31l-14.68-23.47zm0-23.53l-14.63 23.48h29.31l-14.68-23.48zm29.3 93.24L842.02 257h29.32l-14.68-23.47z"/><path class="cls-4" d="M856.83 210.41l-14.64 23.48h29.31l-14.67-23.48z"/><path class="cls-4" d="M856.83 187.19l-14.64 23.48h29.31l-14.67-23.48z"/><path class="cls-4" d="M856.83 163.82l-14.64 23.47h29.31l-14.67-23.47zm0-23.53l-14.64 23.48h29.31l-14.67-23.48zm29.14 93.19l-14.63 23.48h29.31l-14.68-23.48z"/><path class="cls-4" d="M886.14 210.37l-14.64 23.48h29.32l-14.68-23.48z"/><path class="cls-4" d="M886.14 187.15l-14.64 23.47h29.32l-14.68-23.47z"/><path class="cls-4" d="M886.14 163.78l-14.64 23.47h29.32l-14.68-23.47zm0-23.53l-14.64 23.48h29.32l-14.68-23.48zm29.42 93.28L900.93 257h29.31l-14.68-23.47z"/><path class="cls-4" d="M915.73 210.41l-14.63 23.48h29.31l-14.68-23.48z"/><path class="cls-4" d="M915.73 187.19l-14.63 23.48h29.31l-14.68-23.48z"/><path class="cls-4" d="M915.73 163.82l-14.63 23.47h29.31l-14.68-23.47zm0-23.53l-14.63 23.48h29.31l-14.68-23.48zm29.15 93.24L930.25 257h29.31l-14.68-23.47z"/><path class="cls-4" d="M945.05 210.41l-14.64 23.48h29.32l-14.68-23.48z"/><path class="cls-4" d="M945.05 187.19l-14.64 23.48h29.32l-14.68-23.48z"/><path class="cls-4" d="M945.05 163.82l-14.64 23.47h29.32l-14.68-23.47zm0-23.53l-14.64 23.48h29.32l-14.68-23.48z"/><path class="cls-1" d="M1370.57 415.86v10a28.26 28.26 0 01-10.84-5.92l-1.41-1.25a19.76 19.76 0 00-26.11 0l-1.26 1.11a29.21 29.21 0 01-38.58 0l-1.26-1.11a19.76 19.76 0 00-26.11 0l-1.26 1.11a29.21 29.21 0 01-38.58 0l-1.26-1.11a19.76 19.76 0 00-26.11 0l-1.26 1.11a29.21 29.21 0 01-38.58 0l-1.26-1.11a19.76 19.76 0 00-26.11 0l-1.26 1.11a29.22 29.22 0 01-36.74 1.49v-12.07a28.77 28.77 0 013.14 2.41l1.25 1.11a19.77 19.77 0 0026.12 0l1.25-1.11a29.22 29.22 0 0138.59 0l1.25 1.11a19.77 19.77 0 0026.12 0l1.25-1.11a29.22 29.22 0 0138.59 0l1.25 1.11a19.77 19.77 0 0026.12 0l1.25-1.11a29.22 29.22 0 0138.59 0l1.25 1.11a19.77 19.77 0 0026.12 0l1.25-1.11a29.22 29.22 0 0138.59 0l1.41 1.25a18.69 18.69 0 004.6 2.98z"/><path class="cls-1" d="M1370.57 395.56v9.93a28.06 28.06 0 01-11.3-6.05l-1.41-1.24a19.77 19.77 0 00-26.12 0l-1.25 1.11a29.22 29.22 0 01-38.59 0l-1.25-1.11a19.77 19.77 0 00-26.12 0l-1.25 1.11a29.22 29.22 0 01-38.59 0l-1.25-1.11a19.77 19.77 0 00-26.12 0l-1.25 1.11a29.22 29.22 0 01-38.59 0l-1.25-1.11a19.77 19.77 0 00-26.12 0l-1.25 1.11a29.22 29.22 0 01-36.28 1.83V389a29.17 29.17 0 012.67 2.09l1.26 1.11a19.78 19.78 0 0026.11 0l1.26-1.11a29.2 29.2 0 0138.58 0l1.26 1.11a19.78 19.78 0 0026.11 0l1.26-1.11a29.2 29.2 0 0138.58 0l1.26 1.11a19.78 19.78 0 0026.11 0l1.26-1.11a29.2 29.2 0 0138.58 0l1.26 1.11a19.78 19.78 0 0026.11 0l1.26-1.11a29.21 29.21 0 0138.58 0l1.41 1.24a18.74 18.74 0 005.07 3.23zm0 81.7v10.06a28.33 28.33 0 01-10.58-5.85l-1.41-1.25a19.78 19.78 0 00-26.11 0l-1.26 1.11a29.21 29.21 0 01-38.58 0l-1.26-1.11a19.78 19.78 0 00-26.11 0l-1.26 1.11a29.22 29.22 0 01-38.59 0l-1.25-1.11a19.78 19.78 0 00-26.11 0l-1.26 1.11a29.22 29.22 0 01-38.59 0l-1.25-1.11a19.78 19.78 0 00-26.11 0l-1.26 1.11a29.23 29.23 0 01-37 1.3v-12.06a28.71 28.71 0 013.4 2.58l1.25 1.11a19.76 19.76 0 0026.11 0l1.26-1.11a29.22 29.22 0 0138.59 0l1.25 1.11a19.76 19.76 0 0026.11 0l1.26-1.11a29.22 29.22 0 0138.59 0l1.25 1.11a19.76 19.76 0 0026.11 0l1.26-1.11a29.22 29.22 0 0138.59 0l1.25 1.11a19.76 19.76 0 0026.11 0l1.26-1.11a29.22 29.22 0 0138.59 0l1.41 1.25a18.53 18.53 0 004.34 2.86z"/><path class="cls-1" d="M1370.57 456.75v10.05A28.11 28.11 0 011360 461l-1.41-1.24a19.76 19.76 0 00-26.11 0l-1.26 1.11a29.21 29.21 0 01-38.58 0l-1.26-1.11a19.76 19.76 0 00-26.11 0l-1.26 1.11a29.22 29.22 0 01-38.59 0l-1.25-1.11a19.76 19.76 0 00-26.11 0l-1.26 1.11a29.22 29.22 0 01-38.59 0l-1.25-1.11a19.76 19.76 0 00-26.11 0l-1.26 1.11a29.21 29.21 0 01-37 1.29v-12.1a28.71 28.71 0 013.4 2.58l1.25 1.11a19.77 19.77 0 0026.11 0l1.26-1.11a29.22 29.22 0 0138.59 0l1.25 1.11a19.76 19.76 0 0026.11 0l1.26-1.11a29.22 29.22 0 0138.59 0l1.25 1.11a19.76 19.76 0 0026.11 0l1.26-1.11a29.22 29.22 0 0138.59 0l1.25 1.11a19.77 19.77 0 0026.11 0l1.26-1.11a29.22 29.22 0 0138.59 0l1.41 1.24a18.89 18.89 0 004.33 2.87z"/><path class="cls-1" d="M1370.57 436.24v10.06a28.25 28.25 0 01-10.58-5.85l-1.41-1.24a19.76 19.76 0 00-26.11 0l-1.26 1.1a29.19 29.19 0 01-38.58 0l-1.26-1.1a19.76 19.76 0 00-26.11 0l-1.26 1.1a29.2 29.2 0 01-38.59 0l-1.25-1.1a19.76 19.76 0 00-26.11 0l-1.26 1.1a29.2 29.2 0 01-38.59 0l-1.25-1.1a19.76 19.76 0 00-26.11 0l-1.26 1.1a29.2 29.2 0 01-37 1.3v-12.06a28.8 28.8 0 013.4 2.59l1.25 1.1a19.76 19.76 0 0026.11 0l1.26-1.1a29.2 29.2 0 0138.59 0l1.25 1.1a19.76 19.76 0 0026.11 0l1.26-1.1a29.2 29.2 0 0138.59 0l1.25 1.1a19.76 19.76 0 0026.11 0l1.26-1.1a29.2 29.2 0 0138.59 0l1.25 1.1a19.76 19.76 0 0026.11 0l1.26-1.1a29.2 29.2 0 0138.59 0l1.41 1.24a18.85 18.85 0 004.34 2.86zm0 61.6v10.05a28.81 28.81 0 01-11-6.06l-1.25-1.11a19.76 19.76 0 00-26.11 0l-1.26 1.11a29.22 29.22 0 01-38.59 0l-1.25-1.11a19.76 19.76 0 00-26.11 0l-1.26 1.11a29.22 29.22 0 01-38.59 0l-1.25-1.11a19.77 19.77 0 00-26.12 0l-1.25 1.11a29.22 29.22 0 01-38.59 0l-1.25-1.11a19.77 19.77 0 00-26.12 0l-1.25 1.11a29.22 29.22 0 01-36.77 1.47v-12.07a28.79 28.79 0 013.16 2.42l1.26 1.11a19.78 19.78 0 0026.11 0l1.26-1.11a29.2 29.2 0 0138.58 0l1.26 1.11a19.78 19.78 0 0026.11 0l1.26-1.11a29.2 29.2 0 0138.58 0l1.26 1.11a19.78 19.78 0 0026.11 0l1.26-1.11a29.2 29.2 0 0138.58 0l1.26 1.11a19.78 19.78 0 0026.11 0l1.26-1.11a29.2 29.2 0 0138.58 0l1.26 1.11a19.31 19.31 0 004.76 3.08z"/><path class="cls-4" d="M1311.86 65.16l-117.44 65.15h117.44V65.16z"/><path class="cls-2" d="M1311.86 65.16L1194.42 0v65.16h117.44z"/><path class="cls-4" d="M1076.99 65.16l-117.43 65.15h117.43V65.16z"/><path class="cls-5" d="M1076.99 65.16L959.56 0v65.16h117.43z"/><path class="cls-2" d="M1311.86 130.31l58.71-32.58v32.58h-58.71z"/><path class="cls-4" d="M1370.57 65.16l-58.71 32.57h58.71V65.16zm0 0l-58.71-32.58v32.58h58.71z"/><path class="cls-5" d="M1370.57 0l-58.71 32.58h58.71V0z"/><path class="cls-2" d="M1194.42 130.31l-58.71-32.58v32.58h58.71z"/><path class="cls-4" d="M1194.42 97.73l-58.71-32.57v32.57h58.71z"/><path class="cls-5" d="M1253.14 97.73l-58.72-32.57v32.57h58.72zm-117.43 0l-58.72-32.57v32.57h58.72z"/><path class="cls-4" d="M1135.71 65.16l58.71-32.58v32.58h-58.71zm58.71-32.58L1135.71 0v32.58h58.71zm-117.43 32.58l58.72-32.58v32.58h-58.72z"/><path class="cls-2" d="M1135.71 32.58L1076.99 0v32.58h58.72zM444.44.19l34.3 35.02h-68.71L444.44.19z"/><path class="cls-4" d="M444.44 35.21l34.3 35.01h-68.71l34.41-35.01z"/><path class="cls-2" d="M444.44 70.22l34.3 35.02h-68.71l34.41-35.02z"/><path class="cls-4" d="M444.44 105.24l34.3 35.01h-68.71l34.41-35.01zM513.15.19l34.31 35.02h-68.72L513.15.19z"/><path class="cls-5" d="M513.15 35.21l34.31 35.01h-68.72l34.41-35.01z"/><path class="cls-4" d="M513.15 70.22l34.31 35.02h-68.72l34.41-35.02z"/><path class="cls-2" d="M513.15 105.24l34.31 35.01h-68.72l34.41-35.01z"/><path class="cls-4" d="M581.86.19l34.31 35.02h-68.71L581.86.19zm0 35.02l34.31 35.01h-68.71l34.4-35.01z"/><path class="cls-5" d="M581.86 70.22l34.31 35.02h-68.71l34.4-35.02z"/><path class="cls-4" d="M581.86 105.24l34.31 35.01h-68.71l34.4-35.01z"/><path class="cls-5" d="M650.58.19l34.3 35.02h-68.71L650.58.19z"/><path class="cls-2" d="M650.58 35.21l34.3 35.01h-68.71l34.41-35.01z"/><path class="cls-4" d="M650.58 70.22l34.3 35.02h-68.71l34.41-35.02z"/><path class="cls-2" d="M650.58 105.24l34.3 35.01h-68.71l34.41-35.01zM719.29.19l34.3 35.02h-68.71L719.29.19z"/><path class="cls-4" d="M719.29 35.21l34.3 35.01h-68.71l34.41-35.01z"/><path class="cls-2" d="M719.29 70.22l34.3 35.02h-68.71l34.41-35.02z"/><path class="cls-5" d="M719.29 105.24l34.3 35.01h-68.71l34.41-35.01z"/><path class="cls-4" d="M788 .19l34.3 35.02h-68.71L788 .19zm0 35.02l34.3 35.01h-68.71L788 35.21z"/><path class="cls-5" d="M788 70.22l34.3 35.02h-68.71L788 70.22z"/><path class="cls-4" d="M788 105.24l34.3 35.01h-68.71L788 105.24z"/><path class="cls-2" d="M856.71.19l34.3 35.02H822.3L856.71.19zm0 35.02l34.3 35.01H822.3l34.41-35.01z"/><path class="cls-4" d="M856.71 70.22l34.3 35.02H822.3l34.41-35.02z"/><path class="cls-4" d="M856.71 105.24l34.3 35.01H822.3l34.41-35.01z"/><path class="cls-5" d="M925.42.19l34.31 35.02h-68.72L925.42.19z"/><path class="cls-4" d="M925.42 35.21l34.31 35.01h-68.72l34.41-35.01z"/><path class="cls-5" d="M925.42 70.22l34.31 35.02h-68.72l34.41-35.02z"/><path class="cls-2" d="M925.42 105.24l34.31 35.01h-68.72l34.41-35.01zM0 198.49v-58.58h58.58L0 198.49z"/><path class="cls-5" d="M58.58 257.07v-58.58h58.57l-58.57 58.58z"/><path class="cls-4" d="M146.44 198.49H87.87v-58.58l58.57 58.58zm29.29 0v-58.58h58.58l-58.58 58.58z"/><path class="cls-2" d="M175.73 257.07h-58.58v-58.58l58.58 58.58zM58.58 169.2v-29.29h29.29L58.58 169.2z"/><path class="cls-4" d="M146.44 169.2v-29.29h29.29l-29.29 29.29zm29.29 58.58v-29.29h29.29l-29.29 29.29zm0 0h29.29v29.29l-29.29-29.29z"/><path class="cls-5" d="M205.02 227.78v29.29h29.29l-29.29-29.29z"/><path class="cls-2" d="M205.02 227.78v-29.29h29.29l-29.29 29.29z"/><path class="cls-5" d="M322.17 140.25h29.29v29.29l-29.29-29.29z"/><path class="cls-4" d="M351.46 140.25h29.28v29.29l-29.28-29.29z"/><path class="cls-2" d="M351.46 198.83h29.28v-29.29l-29.28 29.29z"/><path class="cls-4" d="M410.03 198.83v-29.29h-29.29l29.29 29.29z"/><path class="cls-2" d="M410.03 169.54v-29.29h-29.29l29.29 29.29z"/><path class="cls-4" d="M351.46 228.11v-29.28h-29.29l29.29 29.28zm0-29.28v29.28h29.28l-29.28-29.28z"/><path class="cls-5" d="M380.74 198.83v29.28h29.29l-29.29-29.28z"/><path class="cls-2" d="M410.03 257.4v-29.29h-29.29l29.29 29.29z"/><path class="cls-4" d="M351.46 257.4h29.28v-29.29l-29.28 29.29zm-29.29-87.86h29.29v29.29l-29.29-29.29z"/><path class="cls-5" d="M292.88 140.25h29.29v29.29l-29.29-29.29z"/><path class="cls-2" d="M146.44 169.2v29.29h29.29l-29.29-29.29zm-87.86 29.29V169.2h29.29l-29.29 29.29z"/><path class="cls-4" d="M0 198.49v58.58h58.58L0 198.49z"/><path class="cls-2" d="M234.31 139.91v117.16h117.15L234.31 139.91z"/><path class="cls-4" d="M26.15 257.07L0 450.33l26.15 58.78 26.14-58.78-26.14-193.26zm52.28 0L52.29 450.33l26.14 58.78 26.15-58.78-26.15-193.26z"/><path class="cls-4" d="M130.72 257.07l-26.14 193.26 26.14 58.78 26.14-58.78-26.14-193.26zm52.28 0l-26.14 193.26L183 509.11l26.15-58.78L183 257.07z"/><path class="cls-4" d="M235.29 257.07l-26.14 193.26 26.14 58.78 26.14-58.78-26.14-193.26z"/></svg>