<svg width="1362" height="320" viewBox="0 0 1362 320" fill="none" xmlns="http://www.w3.org/2000/svg">
<path d="M163.122 70.657L218.191 136.836H137.101L104.35 92.1995V136.836H35.9316V3.80151H104.35V49.1141L137.101 3.80151H214.488L163.122 70.657Z" fill="white"/>
<path d="M342.01 119.685H293.08L287.821 136.836H220.079L264.525 3.80151H370.566L414.912 136.836H347.27L342.01 119.685ZM303.606 85.3716H331.386L317.545 40.342L303.606 85.3716Z" fill="white"/>
<path d="M596.763 136.836H528.339V48.4375H495.883V136.836H427.465V3.80151H596.763L596.763 136.836Z" fill="white"/>
<path d="M776.143 52.9161C759.228 49.3063 741.981 47.4796 724.685 47.4657C710.063 47.4657 689.209 50.6768 689.209 70.5587C689.209 90.4406 710.063 93.6643 724.685 93.6643C741.982 93.6463 759.229 91.8154 776.143 88.2018V135.963C756.054 139.077 735.756 140.64 715.427 140.638C669.032 140.638 617.475 129.233 617.475 70.5589C617.475 11.8852 669.032 3.2555e-05 715.427 3.2555e-05C735.756 -0.00822604 756.055 1.55482 776.143 4.67519V52.9161Z" fill="white"/>
<path d="M910.09 98.4376L886.598 136.836H818.18L841.666 98.4376L783.386 3.80151H854.339L877.536 44.0451L898.784 3.80151H967.595L910.09 98.4376Z" fill="white"/>
<path d="M1136.65 136.836H1062.38L1039.68 48.2406L1017.16 136.836H942.697L986.361 3.80151H1092.99L1136.65 136.836Z" fill="white"/>
<path d="M1261.6 119.685H1212.67L1207.41 136.836H1139.67L1184.12 3.80151H1290.16L1334.51 136.836H1266.86L1261.6 119.685ZM1223.2 85.3716H1250.98L1237.14 40.342L1223.2 85.3716Z" fill="white"/>
<path d="M0 319.034V186H128.168C155.746 186 173.192 197.688 173.192 220.793C173.192 242.139 155.844 251.293 138.398 252.855C158.674 254.32 176.219 261.726 176.219 282.58C176.219 307.728 153.12 319.034 126.508 319.034H0ZM68.4179 240.774H92.0092C98.8314 240.774 104.675 238.621 104.675 231.03C104.675 223.426 99.5143 221.175 92.0092 221.175H68.4179V240.774ZM68.4179 287.071H97.2684C103.992 287.071 109.258 285.508 109.258 277.314C109.258 269.526 104.576 267.472 97.2684 267.472H68.4179V287.071Z" fill="white"/>
<path d="M266.708 319.034H198.29V186H305.697C343.708 186 374.995 196.618 374.995 238.436C374.995 280.242 343.806 288.719 305.697 288.719H266.708V319.034ZM266.708 252.179H288.934C301.6 252.179 307.936 249.054 307.936 238.436C307.936 227.806 301.6 224.398 289.033 224.398H266.708L266.708 252.179Z" fill="white"/>
<path d="M545.511 319.034H392.884V186H545.511V224.878H461.302V237.07H545.511V268.936H461.302V280.242H545.511V319.034Z" fill="white"/>
<path d="M785.816 319.034H720.222V250.518L696.828 319.034H659.5L636.204 252.855V319.034H571.587V186H657.26L678.114 250.518L698.974 186H785.816V319.034Z" fill="white"/>
<path d="M964.508 319.034H811.881V186H964.508V224.878H880.299V237.07H964.508V268.936H880.299V280.242H964.508V319.034Z" fill="white"/>
<path d="M1161.83 319.034H1093.41V275.075H1059V319.034H990.584V186H1059V230.439H1093.41V186H1161.83L1161.83 319.034Z" fill="white"/>
<path d="M1361.97 319.034H1296.48V256.559L1258.76 319.034H1187.9V186H1253.5V244.575L1286.64 186H1361.97L1361.97 319.034Z" fill="white"/>
</svg>
