<svg width="2077" height="338" viewBox="0 0 2077 338" fill="none" xmlns="http://www.w3.org/2000/svg">
<path d="M151.176 4.69922L194.926 138H120.512L97.7578 49.2305L75.1992 138H0.589844L44.3398 4.69922H151.176ZM370.512 0.890625C417.094 0.890625 456.156 12.8047 456.156 71.4961C456.156 130.188 416.996 141.809 370.512 141.809C331.352 141.809 296.684 133.703 287.113 93.957H275.102V138H206.547V4.69922H275.102V49.2305H287.016C296.977 9.28906 329.691 0.890625 370.512 0.890625ZM370.414 42.9805C356.547 42.9805 349.223 53.2344 349.223 71.5938C349.223 89.9531 356.645 100.207 370.512 100.207C384.379 100.207 391.801 90.5391 391.801 71.5938C391.801 52.6484 384.379 42.9805 370.414 42.9805ZM655.961 4.69922L604.496 71.6914L659.672 138H578.422L545.609 93.2734V138H477.055V4.69922H545.609V50.1094L578.422 4.69922H655.961ZM908.109 4.69922L856.645 71.6914L911.82 138H830.57L797.758 93.2734V138H729.203V4.69922H797.758V50.1094L830.57 4.69922H908.109ZM1034.28 138L1029.01 120.812H979.984L974.711 138H906.84L951.371 4.69922H1057.62L1102.05 138H1034.28ZM1004.5 41.3203L990.531 86.4375H1018.36L1004.5 41.3203ZM1283.4 4.69922V138H1214.85V49.4258H1182.33V138H1113.77V4.69922H1283.4ZM1463.29 5.57812V53.918C1447.46 50.3047 1427.84 48.4492 1411.72 48.4492C1397.07 48.4492 1376.18 51.6719 1376.18 71.5938C1376.18 91.5156 1397.07 94.7383 1411.72 94.7383C1427.84 94.7383 1447.46 92.8828 1463.29 89.2695V137.121C1443.95 140.246 1422.07 141.809 1402.45 141.809C1355.96 141.809 1304.3 130.383 1304.3 71.5938C1304.3 12.8047 1355.96 0.890625 1402.45 0.890625C1422.07 0.890625 1443.95 2.45312 1463.29 5.57812ZM1656.25 4.69922L1598.64 99.5234L1575.1 138H1506.55L1530.08 99.5234L1471.68 4.69922H1542.78L1566.02 45.0312L1587.31 4.69922H1656.25ZM1778.52 4.69922L1822.27 138H1747.86L1725.1 49.2305L1702.54 138H1627.93L1671.68 4.69922H1778.52ZM2012.02 4.69922H2076.76V138H2012.02V4.69922ZM1902.45 4.69922V35.0703H1934.96C1973.15 35.0703 2004.4 43.5664 2004.4 85.4609C2004.4 127.355 1973.05 138 1934.96 138H1833.89V4.69922H1902.45ZM1902.45 71.6914V99.5234H1918.27C1930.86 99.5234 1937.21 96.1055 1937.21 85.4609C1937.21 74.8164 1930.86 71.6914 1918.17 71.6914H1902.45ZM490.141 338H363.383V204.699H491.801C519.438 204.699 536.918 216.418 536.918 239.562C536.918 260.949 519.535 270.129 502.055 271.691C522.367 273.156 539.945 280.578 539.945 301.477C539.945 326.672 516.801 338 490.141 338ZM431.938 239.953V259.582H455.57C462.406 259.582 468.266 257.434 468.266 249.816C468.266 242.199 463.09 239.953 455.57 239.953H431.938ZM431.938 286.34V305.969H460.844C467.582 305.969 472.855 304.406 472.855 296.203C472.855 288.391 468.168 286.34 460.844 286.34H431.938ZM630.766 307.629V338H562.211V204.699H669.828C707.914 204.699 739.262 215.344 739.262 257.238C739.262 299.133 708.012 307.629 669.828 307.629H630.766ZM630.766 243.176V271.008H653.031C665.727 271.008 672.074 267.883 672.074 257.238C672.074 246.594 665.727 243.176 653.129 243.176H630.766ZM910.258 299.133V338H757.328V204.699H910.258V243.664H825.883V255.871H910.258V287.805H825.883V299.133H910.258ZM1151.08 204.699V338H1085.36V269.348L1061.92 338H1024.52L1001.18 271.691V338H936.43V204.699H1022.27L1043.17 269.348L1064.07 204.699H1151.08ZM1330.18 299.133V338H1177.25V204.699H1330.18V243.664H1245.8V255.871H1330.18V287.805H1245.8V299.133H1330.18ZM1527.93 204.699V338H1459.38V293.957H1424.91V338H1356.35V204.699H1424.91V249.23H1459.38V204.699H1527.93ZM1728.62 204.699V338H1662.99V275.402L1625.2 338H1554.2V204.699H1619.93V263.391L1653.13 204.699H1728.62Z" fill="white"/>
</svg>
