<svg id="Layer_1" data-name="Layer 1" xmlns="http://www.w3.org/2000/svg" viewBox="0 0 303 143"><defs><style>.cls-1{fill:none;}.cls-2{fill:#199ed9;}.cls-2,.cls-3{fill-rule:evenodd;}.cls-3{fill:#26a63f;}</style></defs><rect class="cls-1" x="-0.35537" y="-142.73473" width="430.70038" height="142.85714"/><path class="cls-2" d="M186.63218,34.4962h53.91518a9.01068,9.01068,0,0,1,8.98446,8.98446c0,23.88592.1351,49.13426.1351,71.88512H237.49241v-5.99H189.955v5.98941H177.78048c0-22.8155-.13276-47.94639-.13276-71.88455a9.01018,9.01018,0,0,1,8.98446-8.98446ZM254.046,61.45231h8.62084V82.41849H254.046V61.45231Zm-89.26476,0H173.402V82.41849h-8.62079V61.45231Zm24.84653,29.95121a5.99058,5.99058,0,1,1-5.99061,5.99055,5.991,5.991,0,0,1,5.99061-5.99055ZM186.63218,42.9719h53.91518V52.97611H186.63218V42.9719Zm0,18.48041h53.91518V85.41412H186.63218V61.45231Zm50.91956,29.95121a5.99058,5.99058,0,1,1-5.99055,5.99055,5.9911,5.9911,0,0,1,5.99055-5.99055Z"/><path class="cls-2" d="M195.67413,26.41474l12.70731-12.70782,6.3536,6.35359L202.02773,32.76788l-6.3536-6.35314Zm22.51179,0L230.8938,13.70692l6.35365,6.35359L224.53957,32.76788l-6.35365-6.35314Z"/><path class="cls-3" d="M60.17568,34.4962h53.91524a9.01063,9.01063,0,0,1,8.9844,8.98446c0,23.88592.13509,49.13426.13509,71.88512H111.036v-5.99H63.49848v5.98941H51.32467c0-22.8155-.13339-47.94639-.13339-71.88455a9.01053,9.01053,0,0,1,8.9844-8.98446Zm67.41385,26.95611h8.62072V82.41849h-8.62072V61.45231Zm-89.26469,0h8.62072V82.41849H38.32484V61.45231Zm24.8464,29.95121a5.99058,5.99058,0,1,1-5.99055,5.99055,5.9907,5.9907,0,0,1,5.99055-5.99055Zm-2.995-48.43162h53.91467V52.97611H60.17625V42.9719Zm0,18.48041h53.91467V85.41412H60.17625V61.45231Zm50.919,29.95121a5.99058,5.99058,0,1,1-5.99061,5.99055,5.99073,5.99073,0,0,1,5.99061-5.99055Z"/><path class="cls-3" d="M60.17568,34.4962h53.91524a9.01063,9.01063,0,0,1,8.9844,8.98446c0,23.88592.13509,49.13426.13509,71.88512H111.036v-5.99H63.49848v5.98941H51.32467c0-22.8155-.13339-47.94639-.13339-71.88455a9.01053,9.01053,0,0,1,8.9844-8.98446Zm67.41385,26.95611h8.62072V82.41849h-8.62072V61.45231Zm-89.26469,0h8.62072V82.41849H38.32484V61.45231Zm24.8464,29.95121a5.99058,5.99058,0,1,1-5.99055,5.99055,5.9907,5.9907,0,0,1,5.99055-5.99055Zm-2.995-48.43162h53.91467V52.97611H60.17625V42.9719Zm0,18.48041h53.91467V85.41412H60.17625V61.45231Zm50.919,29.95121a5.99058,5.99058,0,1,1-5.99061,5.99055,5.99073,5.99073,0,0,1,5.99061-5.99055Z"/><rect class="cls-1" x="-0.35537" y="0.12241" width="303.55769" height="142.85714"/><rect class="cls-1" x="-0.35537" y="142.97955" width="303.55769" height="142.85714"/></svg>