<svg id="Layer_1" data-name="Layer 1" xmlns="http://www.w3.org/2000/svg" viewBox="0 0 430.70038 142.85714"><defs><style>.cls-1{fill:#199ed9;}.cls-1,.cls-2,.cls-3{fill-rule:evenodd;}.cls-2{fill:#26a63f;}.cls-3{fill:#ef7f1a;}.cls-4{fill:none;}</style></defs><path class="cls-1" d="M186.98755,34.37379h53.91518a9.01068,9.01068,0,0,1,8.98446,8.98446c0,23.88591.1351,49.13425.1351,71.88511H237.84778v-5.99H190.31036v5.98941H178.13585c0-22.8155-.13276-47.94639-.13276-71.88455a9.01019,9.01019,0,0,1,8.98446-8.98446Zm67.41379,26.9561h8.62085V82.29608h-8.62085V61.32989Zm-89.26475,0h8.62078V82.29608h-8.62078V61.32989Zm24.84652,29.95122a5.99058,5.99058,0,1,1-5.99061,5.99055,5.991,5.991,0,0,1,5.99061-5.99055Zm-2.99556-48.43163h53.91518V52.8537H186.98755V42.84948Zm0,18.48041h53.91518V85.2917H186.98755V61.32989Zm50.91956,29.95122a5.99058,5.99058,0,1,1-5.99055,5.99055,5.9911,5.9911,0,0,1,5.99055-5.99055Z"/><path class="cls-1" d="M196.02951,26.29232l12.70731-12.70781,6.35359,6.35359L202.3831,32.64547l-6.35359-6.35315Zm22.51178,0,12.70788-12.70781,6.35365,6.35359L224.89494,32.64547l-6.35365-6.35315Z"/><path class="cls-2" d="M60.53105,34.37379h53.91524a9.01063,9.01063,0,0,1,8.9844,8.98446c0,23.88591.1351,49.13425.1351,71.88511H111.39134v-5.99H63.85385v5.98941H51.68c0-22.8155-.13339-47.94639-.13339-71.88455a9.01054,9.01054,0,0,1,8.9844-8.98446Zm67.41385,26.9561h8.62072V82.29608H127.9449V61.32989Zm-89.26469,0h8.62072V82.29608H38.68021V61.32989Zm24.8464,29.95122a5.99058,5.99058,0,1,1-5.99055,5.99055,5.9907,5.9907,0,0,1,5.99055-5.99055Zm-2.995-48.43163h53.91467V52.8537H60.53162V42.84948Zm0,18.48041h53.91467V85.2917H60.53162V61.32989Zm50.91905,29.95122a5.99058,5.99058,0,1,1-5.99061,5.99055,5.99073,5.99073,0,0,1,5.99061-5.99055Z"/><path class="cls-3" d="M313.57859,34.37379h53.91524a9.01063,9.01063,0,0,1,8.9844,8.98446V82.29608L373.4826,97.27343c-.96877,4.845-4.04364,8.98434-8.98439,8.98434H316.57414c-4.94069,0-8.01562-4.13884-8.9849-8.98434l-2.995-14.97735V43.35825a9.01021,9.01021,0,0,1,8.9844-8.98446Zm67.27989,26.9561h8.62015V82.29608h-8.62015V61.32989Zm-89.26533,0h8.62136V82.29608h-8.62136V61.32989Zm46.42654,60.01041,12.70788-12.70788,6.35365,6.35308-12.70788,12.70782-6.35365-6.353Zm-22.51178,0,12.70731-12.70788,6.35359,6.35308L321.8615,127.69332l-6.35359-6.353Zm1.06687-107.9327h47.92286v8.47576H348.51275L337.75063,32.64547l-6.353-6.35315,4.40846-4.409H316.57478V13.4076ZM355.512,88.28669a5.99027,5.99027,0,1,1-5.99,5.99055,5.99033,5.99033,0,0,1,5.99-5.99055Zm-29.9523,0a5.99027,5.99027,0,1,1-5.99054,5.99055,5.99071,5.99071,0,0,1,5.99054-5.99055ZM313.57859,43.10444h53.91524V52.8537H313.57859V43.10444Zm0,18.52512h53.91524V82.29608H313.57859V61.62956Z"/><rect class="cls-4" width="430.70038" height="142.85714"/></svg>