<svg fill="none" height="2956" width="3000" xmlns="http://www.w3.org/2000/svg"><path d="M0 0h3000v2956H0z" fill="#000"/><path d="M1231.33 327.934c.66 2.639 3.96 3.299 9.89 2.309 16.83-3.629 20.13-20.783 17.16-34.639-2.31-10.227-8.91-14.516-17.82-12.536-4.61.989-8.9 3.629-12.53 7.587.66 2.64 1.65 4.289 2.97 4.619a16.123 16.123 0 017.59-4.289c5.27-.989 8.57 1.65 10.22 8.578 1.98 8.907.66 17.155-1.98 21.113-1.32 1.65-2.97 2.31-4.95 2.969-2.64.66-5.27 0-7.58-1.649-1.98.66-3.63 3.629-2.97 5.938zm-18.15-21.111c2.31 8.907.99 16.825-1.32 21.444-1.32 1.649-3.3 2.969-5.61 3.628-4.28.99-6.92-1.649-8.9-9.897-2.31-8.907-1.32-17.154.66-20.783 1.65-1.98 3.3-3.299 5.27-3.629 4.95-1.32 8.25 1.979 9.9 9.237zm-6.93 31.67c6.93-1.649 11.88-5.938 14.85-12.866 2.97-6.598 3.63-14.185 1.65-22.103-2.64-10.557-10.23-14.515-18.81-12.536-6.59 1.649-11.21 5.608-14.18 11.876s-3.3 13.856-.99 23.093c2.31 9.897 8.25 14.846 17.48 12.536zm-50.8-9.564c0-2.309-.33-6.268-.99-11.546-.66-5.279-1.32-8.908-1.65-10.887l-8.91 2.639c.99 2.969 1.98 9.567 3.3 19.464s2.31 17.815 2.97 24.083l9.57-2.639c-.66-3.959-.99-7.588-1.32-10.557-.33-3.629.66-7.258 1.98-11.217 1.65-3.628 3.3-5.938 5.28-6.268 1.98-.659 3.3.66 4.29 3.959.66 2.309 1.32 5.938 1.65 10.557s.66 7.918 1.32 9.897l9.56-2.639c-.33-1.65-.99-5.279-1.32-10.557s-.99-9.237-1.98-11.876c-1.65-6.269-5.27-8.578-10.55-7.258-6.27 1.649-10.56 6.928-12.54 15.505zm-46.19 8.585c-.33-5.938-1.32-11.546-2.97-16.494l-8.9 2.969c1.32 3.629 2.97 10.226 4.95 20.123s3.3 17.155 4.28 22.764l9.57-3.299c-1.32-6.598-2.64-11.877-2.97-16.495-.66-4.289-.33-9.238 1.32-14.846 1.32-5.608 3.3-8.907 5.28-9.567s3.3.66 4.29 3.629c.66 2.309 1.98 7.917 3.63 16.495 1.32 8.577 2.31 13.856 2.97 15.505l9.56-3.299c-.66-1.649-1.64-7.258-3.29-16.495s-2.97-15.175-3.96-17.814c-2.31-6.268-5.94-8.578-11.22-6.598-2.97.989-5.61 3.629-7.92 7.917-1.98 4.289-3.63 9.237-3.96 14.516zm-33.64 36.946c-2.31 4.949-5.61 7.918-9.57 9.568-4.62 1.649-8.58-.33-10.23-4.619-1.98-5.278-.66-13.526 2.64-20.784s7.92-13.856 11.88-18.474c0-2.309-.33-4.289-1.32-6.268l-33.32 12.866 1.98 8.577c1.98-1.649 5.6-3.629 11.54-5.938l10.56-4.619.33.33c-4.62 6.268-8.58 12.207-11.88 19.794-3.3 7.588-4.29 15.506-1.98 21.774 2.64 6.598 8.91 9.567 16.5 6.598s13.19-8.248 16.49-15.506c-.33-1.649-1.98-2.969-3.62-3.299zm-58.07 25.406l-6.6-24.413 15.18-6.598zm2.97 10.556l12.87-45.526c0-2.309-.33-4.288-1.65-5.938l-22.11 9.567-3.95-14.845-9.571 3.958 3.961 14.846-5.611 2.309c-.33 2.639.33 4.619 1.65 6.598l5.611-2.309 9.56 35.299zm-39.256 11.541c-5.279 2.639-9.897 0-13.526-8.247-2.639-5.609-4.289-10.887-5.279-16.166-.989-5.278-.989-8.577 0-10.556.99-1.98 2.64-3.629 4.949-4.619 5.608-2.639 11.216 1.65 14.845 9.237 1.65 3.629 2.969 7.588 3.959 11.547.66 3.959.99 7.258.99 9.567s-.33 3.959-.66 4.618c-1.32 1.98-2.969 3.629-5.278 4.619zm.989 6.598c6.268-2.969 10.227-8.248 12.536-15.835 1.98-7.588.99-15.835-3.298-24.743-2.64-5.608-6.269-9.567-10.887-11.876-4.619-2.309-9.237-2.309-14.186 0-6.268 2.969-10.227 8.247-11.876 16.165-1.65 7.918-.33 16.165 3.959 25.402 2.639 5.279 5.938 8.908 10.226 11.217 3.959 2.309 8.578 1.979 13.526-.33zm-44.536 15.505c-5.278 2.639-9.897.33-13.856-7.588-2.969-5.278-4.948-10.556-5.938-15.835-.99-5.278-1.32-8.577-.66-10.556.99-1.98 2.31-3.629 4.619-4.949 5.278-2.969 11.216.99 15.175 8.577 1.98 3.629 3.299 7.588 4.289 11.547s1.32 7.258 1.32 9.237c0 2.309 0 3.959-.33 4.619-.99 2.309-2.64 3.958-4.619 4.948zm.99 6.598c5.938-3.299 9.897-8.577 11.876-16.495 1.65-7.588.33-15.835-4.289-24.742-2.969-5.279-6.598-9.237-11.216-11.547-4.619-2.309-9.567-1.979-14.186.66-6.268 3.299-9.897 8.907-11.216 16.495-1.32 7.918.329 16.165 5.278 25.072 2.639 4.949 6.268 8.578 10.557 10.887 3.959 2.639 8.577 2.309 13.196-.33zm-65.98 26.724c0-2.969.33-7.588 1.319-13.526.99-6.268 1.98-9.567 2.64-9.897l1.319-.66c1.65 3.629 3.959 9.237 6.928 17.155l8.907-5.279c-5.938-12.206-11.876-25.402-17.484-40.247l-8.908 5.278c4.949 10.557 7.918 17.155 8.908 19.464l-1.32.66c-.99.66-2.969-.66-5.938-2.639-1.65-1.32-4.949-3.629-8.248-5.609-5.278-3.299-8.577-3.958-11.216-2.309-1.98 1.32-3.629 2.969-5.279 5.278 4.619 1.32 12.537 5.939 23.753 12.867l-4.948 25.732zm-16.826 10.548c-3.629-5.938-6.928-13.526-10.227-22.763-3.299-8.907-4.618-15.505-4.618-19.794l-7.258 4.619c.66 2.969 1.979 7.587 4.289 13.855 2.309 6.268 5.278 12.207 8.247 17.155l-.33.33c-1.979-1.979-5.278-5.278-10.557-9.567-5.278-4.289-8.907-7.588-10.886-9.567-1.32.33-3.629 2.309-4.619 4.288.66 10.557 1.979 20.454 3.299 30.021l-.33.33a1323.818 1323.818 0 00-15.835-29.031l-7.588 4.949c3.959 6.268 11.217 18.804 21.774 37.938l7.917-5.278c-.989-7.918-1.979-17.815-2.969-29.691l.33-.33c8.577 7.587 15.835 13.526 20.784 17.814zm-134.598 82.145c2.31 4.289 4.949 7.917 7.588 11.216l7.258-6.268c-1.98-1.979-5.938-7.587-11.547-15.835-5.938-8.247-10.227-15.175-13.196-20.124l-7.257 6.268 4.618 6.928c2.309 3.629 3.959 6.598 5.279 8.908 1.979 3.299 3.298 7.917 3.628 13.196.66 5.608.33 9.237-1.319 10.556-.99.99-2.639.33-4.619-1.979-3.299-3.629-9.237-13.196-17.814-28.371l-6.928 5.938 4.948 8.577c2.31 3.629 3.629 6.268 4.619 7.918 1.649 2.969 2.969 7.258 3.299 12.866.66 5.608.33 8.907-1.32 10.227-1.319.989-2.969.33-4.948-1.98-1.65-1.979-4.949-6.598-9.567-14.845-4.949-7.918-7.588-12.536-8.248-13.196l-7.588 6.598c.99 1.319 4.289 5.938 9.238 14.186 4.948 8.247 8.577 13.855 10.886 16.165 3.299 3.958 7.918 4.618 11.217 1.649 4.618-3.959 5.608-11.546 3.299-22.763l.33-.33c2.309 3.629 3.629 5.608 4.289 6.268 3.299 3.629 6.927 3.959 9.896 1.32 4.289-3.959 5.609-12.536 3.299-22.763zm-58.393 64.66c-2.309-3.299-4.618-6.268-6.598-9.897-1.979-3.629-3.629-8.577-4.618-14.186-.99-5.608-.66-9.237.989-10.886 1.65-1.65 4.619-.66 8.248 3.299 3.299 3.299 5.608 7.257 7.258 11.546 1.649 4.289 2.309 8.248 1.979 11.217-.66 2.639-1.979 4.288-3.299 5.938-1.649 1.649-2.639 2.639-3.959 2.969zm-30.35-23.423c3.958 4.619 8.907 10.887 14.515 18.474 5.608 7.588 9.567 12.867 11.877 16.166 3.628-1.65 6.597-3.629 9.237-6.269 6.268-6.268 9.237-13.196 9.237-21.443 0-8.248-3.959-15.835-11.217-23.423-5.278-5.278-11.546-6.598-15.505-2.309-2.639 2.639-3.959 6.268-3.959 11.216 0 4.949.99 10.227 3.299 15.506l-.33.33c-1.319-1.98-2.969-4.619-5.608-7.918-2.309-3.299-3.959-5.278-5.278-6.268zm-30.351 54.44c-.99-1.32-2.64-3.629-5.279-6.598-2.309-2.969-3.959-4.619-4.948-5.939l-6.598 6.928c2.309 2.31 6.928 7.258 13.526 14.846s11.216 13.856 14.845 18.804l6.598-6.928-4.289-5.608c-1.979-2.309-3.628-4.619-4.948-6.598-2.309-3.299-4.289-8.248-6.268-13.856-1.98-5.938-2.309-9.567-.99-10.887.66-.989 2.309-.329 4.619 1.65 3.959 3.629 10.557 12.536 20.454 26.392l6.268-6.598c-.99-1.32-2.64-3.629-4.619-6.598s-3.629-4.949-4.619-6.598c-1.979-2.969-3.958-7.588-5.608-13.526-1.649-5.938-1.979-9.567-.66-10.887.99-.989 2.64-.33 4.949 1.65 1.649 1.649 5.278 6.268 10.887 13.526 5.608 7.258 8.577 11.546 9.237 12.536l6.928-7.258c-.99-.99-4.619-5.608-10.227-13.196-5.939-7.587-9.897-12.866-12.207-14.845-3.958-3.629-8.247-3.629-11.216-.66-3.959 4.289-3.629 13.526.33 23.753l-.33.33c-2.639-3.629-4.289-5.939-5.279-6.928-3.628-3.299-7.257-3.959-9.897-.99-1.979 1.979-2.639 5.278-2.639 9.897s1.32 9.237 3.299 13.856zm-11.878 55.751c-.989-2.639-1.979-7.257-2.969-13.196-.989-6.268-1.319-9.567-.66-10.226l.99-.99c2.639 2.969 6.598 7.588 11.877 13.856l6.927-7.918c-9.567-9.567-19.464-20.454-29.361-32.66l-6.598 7.918c7.918 8.577 12.866 13.525 14.516 15.505l-.99.99c-.989.989-2.969.329-6.268-.66-1.979-.66-5.938-1.98-9.567-2.639-6.268-1.32-9.237-.99-11.546 1.319-1.65 1.65-2.64 3.959-3.629 6.598 4.948 0 13.856 1.65 26.722 4.949l3.299 26.062zm-29.689 5.28c3.299 3.299 5.938 8.578 6.598 12.207 0 1.979-.99 3.959-2.309 5.938-1.98 2.639-5.279 2.639-7.918.66-5.278-4.289-.66-13.196 3.629-18.805zm-22.763-12.536c-4.289 5.279-6.268 12.207-5.938 16.825.989.99 3.629 1.65 4.948 1.32 0-1.32.33-3.299 1.32-5.609.989-2.309 1.979-4.288 3.299-5.608 3.299-4.289 7.587-4.289 12.536 0 .99.99 1.979 1.65 2.639 2.639-9.567 14.516-10.887 24.413-3.959 29.691 4.949 3.959 10.887 3.299 15.835-2.969 4.289-5.608 5.609-11.876 3.629-19.134-1.979-7.258-6.598-13.526-13.196-19.134-7.917-5.938-15.175-5.278-21.113 1.979zM500.6 766.045c15.175 14.185 25.732 24.412 31.67 30.35l6.268-8.577c-2.639-2.309-6.928-5.938-12.866-11.876 2.639-4.619 5.608-8.908 9.237-12.537 5.608 5.279 9.567 9.238 12.536 12.207l6.268-8.578c-10.226-8.907-20.783-18.804-31.67-30.35l-6.268 8.577c3.959 3.299 8.577 7.918 14.516 13.856-2.64 4.618-5.609 8.907-9.238 12.536-1.979-1.65-6.598-6.598-14.515-13.856zm9.237 38.928c3.299 3.629 6.598 6.598 10.556 8.908l5.279-8.248c-2.309-1.649-7.588-5.608-15.505-12.206-7.918-6.598-13.856-11.877-17.815-16.165l-5.278 8.247 5.938 5.608c3.299 2.97 5.608 5.279 7.258 6.928 2.639 2.64 5.278 6.598 7.257 11.877 1.98 5.278 2.64 8.577 1.32 10.557-.66.989-2.309.989-4.949-.66-3.958-2.639-12.206-10.227-24.742-22.763l-4.948 7.587 7.257 6.928c2.969 2.969 5.279 4.949 6.598 6.268 2.31 2.64 4.619 6.268 6.598 11.547 1.98 5.278 2.639 8.577 1.65 10.227-.99 1.319-2.639.989-5.279-.66-1.979-1.32-6.268-5.278-13.196-11.547-6.598-6.268-10.556-9.897-11.546-10.556l-5.608 8.247c1.319.99 5.608 4.619 12.536 11.217s11.876 10.886 14.845 12.866c4.289 2.969 8.908 2.309 11.217-1.32 3.299-5.278 2.309-12.536-2.639-22.763l.33-.33c2.969 2.969 4.948 4.289 5.608 4.949 3.959 2.639 7.588 1.979 9.897-1.32 3.299-4.948 2.309-13.526-2.969-22.763zm-31.011 75.222c-.99 2.639-2.969 6.928-5.939 12.536l-3.958 6.928-.33-.33-3.959-21.773c-.99-1.32-2.309-2.31-3.629-2.31-3.629 8.578-9.897 11.217-15.175 7.918-3.299-1.98-5.609-4.949-6.598-8.907-.99-3.959-1.32-7.918-.66-11.877s1.979-6.928 3.629-9.567c-.66-1.319-1.65-1.979-2.969-2.639-1.65-.33-2.639.33-3.629 1.649-2.639 4.949-4.619 12.866-4.619 20.784 0 8.248 3.629 16.825 10.887 21.114 6.268 3.629 13.196 1.319 18.144-6.598l2.969 21.443c1.98 1.979 3.959 3.629 5.939 4.619l16.165-27.712zm-65.319 26.057c3.629 1.979 10.227 6.598 19.794 13.526l23.753 17.485 3.628-6.928c-2.309-4.289-2.639-10.557-.329-14.516-.99-1.319-2.31-2.309-3.629-2.639-1.98 2.309-2.969 5.278-3.299 8.577l-14.516-10.556c-9.237-6.598-15.505-11.877-19.464-15.506zm24.413 56.086c-2.64 5.278-7.918 5.938-15.836 1.979-5.608-2.639-10.226-5.938-14.185-9.237-3.959-3.629-5.938-6.268-6.598-8.248-.33-2.309-.33-4.288.989-6.598 2.64-5.608 9.568-5.608 17.155-1.979 3.629 1.979 7.258 4.289 10.227 6.928s5.278 4.948 6.598 6.928c1.32 1.649 1.979 3.299 2.309 3.959.66 1.979.33 4.288-.659 6.268zm4.618 4.618c2.969-6.268 2.969-12.866 0-20.124-2.969-7.257-9.237-12.866-18.144-17.484-5.609-2.64-10.887-3.629-15.835-2.64-4.949.99-8.908 3.959-11.217 8.908-2.969 6.268-2.969 12.866.66 20.124 3.629 7.257 9.897 12.866 18.804 17.484 5.278 2.64 10.227 3.299 14.845 2.31 4.949-.66 8.578-3.629 10.887-8.578zm-25.404 39.914c-2.309 5.28-7.587 6.27-15.505 2.64-5.608-2.64-10.557-5.28-14.515-8.91-3.959-3.297-6.268-5.936-6.928-7.916-.66-2.309-.33-4.288.659-6.598 2.64-5.608 9.568-5.938 17.155-2.639 3.629 1.65 7.258 3.959 10.557 6.268 3.299 2.639 5.608 4.619 6.928 6.598 1.32 1.65 2.309 2.969 2.639 3.957.33 2.31 0 4.29-.99 6.6zm4.949 4.62c2.639-6.27 2.309-12.868-.99-20.125-3.299-6.928-9.567-12.537-18.804-16.495-5.608-2.64-10.887-3.299-15.835-1.98-4.949 1.32-8.578 4.289-10.887 9.237-2.969 6.269-2.309 12.867 1.32 20.123 3.959 6.93 10.227 12.54 19.464 16.5 5.278 2.31 10.227 2.97 14.845 1.98 5.279-1.32 8.908-4.62 10.887-9.24zm-35.299 61.36c-1.98-2.31-4.289-5.93-7.258-11.54s-4.289-8.58-3.959-9.57l.33-1.32c3.299 1.65 8.577 4.95 15.835 9.24l3.629-9.9c-12.206-5.94-25.072-12.87-38.598-20.78l-3.629 9.56c10.557 5.28 16.825 8.58 19.134 9.57l-.33 1.32c-.33 1.32-2.639 1.32-6.268 1.32-2.309 0-6.268.33-9.897.66-6.268.99-9.237 2.31-10.227 5.28-.659 1.98-.989 4.62-.989 7.59 4.618-1.65 13.526-3.3 26.721-4.62l11.877 23.42zm-6.928 18.8c-6.598-2.64-13.856-6.6-22.103-11.55-7.918-4.95-13.196-9.24-15.836-12.54l-2.639 7.92c2.309 1.98 6.268 4.62 12.206 8.25 5.939 3.63 11.547 6.27 17.155 8.25l-.33.65c-2.639-.33-7.257-.65-14.185-.98s-11.547-.33-14.516-.66c-.66.99-1.32 3.95-.99 5.93 6.928 7.92 14.186 15.18 21.114 21.78v.33c-5.608-2.64-15.835-6.93-30.351-12.87l-2.969 8.58c6.928 2.31 20.454 7.92 40.578 16.16l2.969-9.23c-5.608-5.61-12.536-12.54-20.784-21.45l.33-.66c11.547.66 20.784.99 27.382 1.32zm-51.463 187.39c2.639.33 4.618-2.31 5.938-8.24 3.299-16.83-11.547-26.4-25.402-29.04-10.227-1.97-16.825 2.64-18.475 11.88-.99 4.62-.33 9.57 1.98 14.52 2.969.33 4.618 0 5.278-.99-1.32-2.97-1.65-5.94-.99-8.58.99-5.28 4.949-7.26 11.877-5.94 8.907 1.65 16.165 5.94 18.804 9.9.99 1.98.99 3.63.66 5.61-.33 2.64-1.98 4.62-4.619 6.26.33 1.65 2.639 3.96 4.949 4.62zm-28.372 27.37c-5.608-2.31-10.887-3.96-16.165-4.95l-1.32 9.24c3.959.66 10.557 2.31 20.124 4.95s16.825 4.95 22.103 6.93l1.65-9.9c-6.598-1.65-11.877-3.3-15.835-4.95-3.959-1.32-8.248-4.29-12.537-7.92-4.288-3.96-6.268-6.93-5.938-9.23.33-1.98 1.98-2.64 5.279-2.31 2.309.33 7.917 1.98 16.165 4.61 8.247 2.64 13.526 4.29 15.175 4.62l1.65-9.89c-1.65-.33-7.258-1.98-16.166-4.62-8.907-2.64-14.845-4.29-17.484-4.95-6.598-.99-10.227 1.32-11.217 6.93-.66 3.3.66 6.92 3.629 10.55 2.969 3.96 6.598 7.26 11.217 10.56zm-4.289 28.38c3.959.33 7.588 1.32 11.217 2.97s6.598 3.3 8.247 5.61c.99 1.98 1.32 3.63 1.32 5.28-.33 4.29-3.959 5.94-10.887 5.28-9.897-.99-17.814-5.28-21.113-9.57-.66-1.32-.99-2.97-.66-4.62.33-4.29 4.289-5.93 11.876-4.95zm22.434 21.45c2.309-.66 3.958-3.3 4.288-6.27.66-5.61-1.319-10.89-5.938-15.84-4.619-4.94-11.546-7.91-20.784-8.9-10.227-1.32-17.154 3.63-18.144 11.87-.66 6.93 1.979 12.87 8.247 17.82s14.846 8.25 26.062 9.57c20.454 2.3 30.351-6.6 32.001-22.11-.33-.99-.99-1.65-2.64-2.31-1.319-.66-2.639-.99-3.628-.99-1.32 11.22-7.918 17.49-19.464 17.82zm-44.866 47.49c20.454 3.96 34.639 6.93 42.887 8.91l.66-10.56c-3.299-.33-9.238-1.64-17.155-3.29-.33-5.28 0-10.56 1.319-15.51 7.258 1.32 13.196 2.64 17.155 3.63l.66-10.89c-13.526-1.98-27.712-4.95-42.887-8.57l-.66 10.55c4.949.66 11.547 1.98 19.794 3.96.33 5.28 0 10.56-1.319 15.51-2.64-.33-9.238-1.98-19.464-4.29zm22.763 24.43c4.619.66 9.897 3.3 12.536 5.93.99 1.65 1.65 3.63 1.65 5.94 0 3.3-2.64 5.28-5.939 4.95-6.927 0-8.247-9.9-8.247-16.82zm-25.732 3.3c-.33 6.92 2.309 13.52 4.948 17.15 1.32 0 3.959-.66 4.619-1.98-.66-.99-1.65-2.97-2.309-5.28-.66-2.31-.99-4.62-.66-6.6.33-5.27 3.629-7.91 10.227-7.58 1.319 0 2.639.33 3.958.66.99 17.15 5.609 26.06 14.516 26.39 6.268.33 10.557-3.96 10.887-11.55.33-7.26-2.64-12.86-8.578-17.48s-13.196-6.93-22.103-7.26c-9.567-.66-15.175 4.29-15.505 13.53zm63.669 46.5c-.329-4.62-1.319-6.93-3.628-6.93-5.279 0-9.897 4.29-9.897 10.89 0 3.63.989 6.93 2.969 9.57 1.979 2.97 4.288 5.28 6.928 6.6.989-.66 2.309-2.64 2.309-3.96-3.959-2.97-6.928-6.93-6.928-10.23.33-3.63 2.969-5.61 8.247-5.94zm-46.515 8.91c-5.609-1.65-11.217-2.31-16.495-2.31v9.24c3.958 0 10.556.66 20.453 1.65 9.897 1.32 17.485 2.31 22.764 3.3v-10.23c-6.598-.66-12.207-1.65-16.495-2.31-4.289-.66-8.908-2.97-13.526-5.94-4.949-3.3-7.258-5.94-7.258-8.25 0-1.97 1.649-2.96 4.948-2.96 2.31 0 7.918.66 16.825 1.97 8.578 1.32 13.856 2.31 15.835 2.31v-10.22c-1.649 0-7.257-.66-16.495-2.31-9.237-.66-15.505-1.32-18.144-1.32-6.598 0-9.897 2.97-9.897 8.58 0 3.29 1.649 6.59 4.948 9.89s7.588 6.27 12.537 8.58zm-14.516 56.74c3.959 0 11.877.33 24.083 1.32l29.361 2.64-.33-7.91c-4.289-2.31-7.588-7.59-7.917-12.21a7.566 7.566 0 00-4.619-.33c-.66 2.97 0 5.94 1.649 9.24l-18.144-1.65c-11.217-.99-19.464-2.31-24.742-3.3zm7.588 34.31c-.66-6.59 3.959-10.22 11.546-10.88 3.629-.33 6.928.66 9.567 2.64 2.64 2.31 4.289 4.94 4.619 7.91.66 6.27-3.629 9.9-10.227 10.23-4.948.33-9.237-.99-12.866-3.96-1.649-1.65-2.309-3.63-2.639-5.94zm-6.598-.99c.66 7.26 4.619 13.86 11.876 18.15 3.629 1.98 7.918 2.97 12.536 2.64 8.248-.66 14.516-6.6 13.526-15.84-.659-6.27-2.969-10.88-7.917-14.18v-.33c7.258 1.65 13.196 4.95 17.814 10.22 4.619 4.95 7.918 10.56 9.238 16.5.659.33 1.649.33 2.969 0 1.319-.33 1.979-1.32 1.649-2.64-1.979-10.23-7.258-18.48-15.835-25.07-8.577-6.6-17.815-9.57-28.701-8.58-11.217.33-18.145 7.59-17.155 19.13zm47.506 26.73c1.32 1.98 2.639 8.24 3.629 18.47l.66 6.27h-.33c-7.588-4.95-16.165-9.24-25.732-12.54s-17.815-4.95-25.073-5.28H273.3l1.319 11.22c1.98-.66 4.619-.99 8.578-.99 5.938 0 13.196 1.98 22.433 4.95 9.237 3.3 16.165 6.6 21.114 10.56 2.639.99 4.948.99 7.257.33l-3.959-32.99zm10.886 57.08c.989 5.93-2.969 9.56-11.547 10.88-5.938.99-11.546.99-16.825.33-5.278-.66-8.577-1.65-10.226-2.97-1.65-1.65-2.64-3.63-2.97-5.93-.989-5.94 4.619-10.23 13.196-11.55 3.959-.66 8.248-.66 12.207-.33s7.258.99 9.237 1.65c2.309.66 3.629 1.32 4.289 1.98 1.319 1.65 2.309 3.63 2.639 5.94zm6.928.99c-.99-6.93-4.949-12.21-11.547-16.5-6.598-3.96-14.845-5.28-24.742-3.96-5.938.99-10.887 3.3-14.516 6.93s-4.948 8.25-3.959 13.86c.99 6.92 4.949 12.2 11.877 16.16s15.505 4.95 25.402 3.3c5.608-.99 10.227-2.97 13.526-6.6 3.299-3.3 4.618-7.92 3.959-13.19zm1.98 47.17c1.32 5.94-2.639 9.57-11.217 11.22-5.938 1.32-11.546 1.65-16.824.99-5.279-.33-8.578-1.32-10.227-2.31-1.65-1.32-2.969-3.3-3.299-5.94-1.32-5.94 4.288-10.23 12.536-11.88 3.959-.66 8.247-.99 12.206-.99 3.959.33 7.258.66 9.567 1.32 2.31.66 3.629 1.32 4.289 1.65 1.32 1.65 2.309 3.63 2.969 5.94zm6.598.99c-1.32-6.6-5.608-12.21-12.206-15.83-6.928-3.63-15.176-4.62-25.073-2.64-5.938 1.32-10.886 3.63-14.185 7.58-3.299 3.96-4.619 8.58-3.629 13.86 1.319 6.93 5.608 11.88 12.536 15.51 7.258 3.62 15.505 4.28 25.732 2.3 5.608-.99 10.227-3.62 13.196-7.25 3.629-3.96 4.619-8.25 3.629-13.53zm6.596 70.6c-2.969-.66-6.927-2.31-12.536-5.28-5.608-2.64-8.577-4.62-8.907-5.61l-.33-1.32c3.959-.66 9.897-.99 18.145-1.65l-2.64-10.22c-13.525 2.31-28.041 3.96-43.546 5.27l2.639 9.9c11.546-1.65 18.474-2.64 21.113-2.97l.33 1.32c.33 1.32-1.319 2.64-4.288 4.95-1.98 1.32-4.949 3.96-7.588 6.27-4.619 4.29-6.268 6.93-5.278 10.23.659 2.3 1.649 4.28 3.299 6.59 2.639-3.96 9.237-10.22 19.134-19.13l23.093 12.21zm5.28 19.46c-6.928 1.65-15.176 2.64-24.743 3.3-9.567.33-16.165 0-20.124-1.32l2.31 8.25c2.969.33 7.917.33 14.515-.33 6.928-.66 13.196-1.65 18.804-2.97v.66c-2.309 1.32-6.598 3.63-12.206 7.25-5.608 3.63-9.897 6.27-12.536 7.59 0 1.32.99 4.29 2.639 5.61 10.227 2.31 20.124 4.29 29.691 5.61v.33c-6.268.99-17.155 3.3-32.33 6.93l2.639 8.9c7.258-1.98 21.114-5.27 42.557-9.89l-2.639-9.24c-7.918-1.32-17.815-2.97-29.361-5.61v-.66c9.897-6.27 17.485-11.21 23.093-14.84zm39.257 152.42c1.65-.33 3.959-.99 7.258-1.98s5.608-1.65 6.598-1.98l-3.959-9.24c-3.629 1.65-10.227 3.63-19.794 6.6s-16.825 4.95-22.433 5.94l4.289 9.57c1.649-.33 4.289-1.32 8.247-2.31 4.289-.99 7.258-1.98 9.567-2.31 3.299-.66 7.918-.66 13.856.66 5.608 1.32 8.907 2.97 9.897 4.94.66 1.65-.33 3.3-3.299 4.62-2.309.99-7.917 2.64-16.165 4.62-8.577 2.31-13.526 3.63-15.505 4.62l3.959 9.24c1.649-.66 6.928-2.31 16.165-4.95s15.175-4.29 17.484-5.61c5.939-2.64 7.918-6.6 5.609-11.88-1.32-2.96-3.959-5.27-8.248-7.25-3.959-1.98-8.577-2.97-13.526-3.3zm13.856 43.21c4.289-1.65 10.227-1.65 13.856-.66 1.98.99 3.299 2.64 4.289 4.62 1.319 2.97 0 5.94-2.969 7.26-5.938 2.97-11.877-5.28-15.176-11.22zm-21.113 14.84c2.969 6.27 8.247 10.89 12.536 12.54 1.32-.66 3.299-2.64 3.299-3.96-1.32-.66-2.639-1.98-4.289-3.63-1.649-1.98-2.969-3.63-3.629-5.28-2.309-4.61-.659-8.57 5.279-11.54 1.319-.66 2.309-.99 3.629-1.32 8.907 14.84 17.154 20.45 25.072 16.49 5.608-2.64 7.588-8.57 4.289-15.5-2.969-6.27-8.578-10.23-15.835-11.55-7.588-1.32-15.176 0-22.763 3.63-8.908 4.95-11.547 11.88-7.588 20.12zm65.98 30.03c-2.969 0-7.588-.66-13.526-1.98s-9.237-2.31-9.897-3.3l-.66-1.32c3.629-1.32 9.567-3.3 17.485-5.94l-4.949-9.24c-12.536 5.28-26.062 10.56-41.237 15.51l4.948 9.23c10.887-4.28 17.485-6.92 19.794-7.91l.66 1.32c.66.99-.66 2.97-2.969 5.6-1.32 1.65-3.959 4.95-5.938 7.92-3.299 5.28-4.289 8.25-2.969 11.22.989 1.98 2.639 3.96 4.948 5.61 1.65-4.62 6.598-12.21 14.186-23.1l25.402 6.6zm-2.969 49.48c-5.609 1.65-10.887 3.63-15.506 6.27l4.619 7.92c3.299-1.98 9.567-4.95 18.804-8.91 9.238-3.96 16.165-6.6 21.444-8.58l-4.949-8.57c-6.268 2.64-11.216 4.62-15.505 6.26-3.959 1.32-8.907 1.98-14.845 1.65-5.939-.33-9.238-1.32-10.227-3.29-.99-1.65 0-3.3 2.639-4.95 1.979-1.32 7.258-3.3 15.505-6.6 8.248-2.97 13.196-4.95 14.846-5.94l-4.949-8.58c-1.649.99-6.598 2.97-15.505 6.27-8.578 3.3-14.186 5.94-16.495 7.26-5.608 3.3-7.258 7.26-4.289 12.21 1.65 2.96 4.619 4.94 9.237 6.26 4.619 1.32 9.897 1.65 15.176.99zm15.504 56.08c18.805-9.23 32.001-15.17 39.918-18.47l-5.608-8.91c-2.969 1.65-8.248 4.29-15.505 7.59-3.299-4.29-6.268-8.58-8.248-13.2 6.928-3.3 12.206-5.61 15.835-7.26l-5.938-9.23c-12.206 6.6-25.402 12.53-39.588 18.8l5.609 8.91c4.618-2.31 10.556-5.28 18.144-8.58 3.299 3.96 6.268 8.58 8.247 13.2-2.309 1.32-8.577 3.96-18.144 8.25zm55.423 3.97c1.98.99 5.939 5.93 12.207 14.18l3.629 4.95-.33.33c-8.908-.99-18.475-.33-28.702 1.32-9.896 1.65-18.144 4.29-24.412 7.59l-.99.66 6.598 9.23c1.32-1.64 3.629-3.29 6.928-4.94 5.279-2.64 12.536-4.62 22.103-6.6 9.567-1.65 17.485-1.98 23.753-.99 2.639-.33 4.949-1.32 6.598-2.97l-19.134-27.05zm22.105 30.01c2.309 1.98 5.278 5.28 9.237 10.23l4.619 6.27-.33.32-21.444-4.61c-1.649.33-2.969 1.32-3.629 2.31 6.598 6.59 6.598 13.19 1.65 17.15-2.969 2.31-6.598 3.3-10.887 2.64-3.958-.66-7.917-1.98-11.216-3.96s-5.609-4.62-7.588-7.26c-1.32 0-2.639.66-3.299 1.98-.99 1.32-.99 2.64.33 3.96 3.299 4.29 9.897 9.24 17.485 12.21 7.587 3.3 16.825 2.97 23.752-1.98 5.939-4.62 6.268-11.55.99-19.47l20.784 5.61c2.639-.99 4.948-2.31 6.598-3.63l-19.464-25.73zm40.577 46.86c3.629 4.62 2.309 9.57-4.619 15.18-4.618 3.95-9.567 6.92-14.185 8.9-4.949 1.98-8.248 2.97-10.227 2.64-2.309-.33-3.959-1.65-5.608-3.63-3.959-4.62-.99-11.21 5.278-16.49 3.299-2.64 6.598-4.95 10.227-6.6s6.598-2.64 8.907-3.3 3.629-.66 4.619-.33c2.309.66 3.958 1.98 5.608 3.63zm6.268-2.31c-4.289-5.28-10.557-7.92-18.474-8.25-7.918 0-15.506 2.97-23.423 9.24-4.619 3.96-7.588 8.25-8.907 13.2-1.32 4.94 0 9.56 3.628 13.85 4.289 5.28 10.557 7.92 18.475 7.59 7.917-.33 15.835-3.63 23.753-10.23 4.288-3.63 7.257-7.92 8.247-12.53 1.32-4.29 0-8.91-3.299-12.87zm25.732 39.24c3.959 4.29 2.639 9.57-3.959 15.51-4.618 3.96-9.237 7.25-13.855 9.56-4.619 2.31-8.248 3.3-9.897 2.97-2.31-.33-4.289-1.32-5.939-3.3-3.958-4.61-1.649-11.21 4.619-16.82 2.969-2.64 6.598-4.95 10.227-6.93s6.598-2.97 8.907-3.63 3.629-.66 4.619-.66c1.649.66 3.629 1.65 5.278 3.3zm6.268-2.64c-4.618-4.95-10.886-7.59-18.804-7.59-7.918.33-15.505 3.63-22.763 10.23-4.619 3.96-7.258 8.58-8.248 13.53-.989 4.95.33 9.56 3.959 13.85 4.619 5.28 10.887 7.59 18.804 6.93 7.918-.66 15.506-4.29 23.093-11.22 4.289-3.95 6.928-8.24 7.918-12.86s-.33-8.91-3.959-12.87zm41.568 57.41c-2.639.99-7.258 1.65-13.526 1.98-6.268.66-9.567.33-10.227-.33l-.99-.99c2.969-2.31 7.918-5.94 14.846-10.89l-7.258-7.25c-10.227 8.9-21.773 17.81-34.639 26.72l7.257 7.26c8.908-7.26 14.516-11.88 16.495-13.53l.99.99c.99.99 0 2.97-1.32 6.27-.989 1.98-2.309 5.94-3.299 9.57-1.649 5.93-1.649 9.23.66 11.54 1.65 1.65 3.629 2.97 6.268 3.96.33-4.95 2.639-13.53 6.928-26.39l26.062-1.32zm-2.64 35.97c6.268-6.6 13.196-10.23 18.804-10.56 2.31.33 4.289.99 5.939 2.64 3.299 2.97 2.309 6.6-3.299 12.86-6.268 6.6-13.526 10.56-17.815 10.89-2.309 0-4.289-.99-5.938-2.31-3.629-3.63-2.969-7.92 2.309-13.52zm30.021-11.55c-5.278-4.95-11.546-6.6-18.804-5.28s-13.856 4.95-19.464 10.89c-7.588 7.91-6.598 16.49 0 22.43 4.948 4.62 10.886 6.6 17.814 5.28 6.928-.99 13.526-4.95 19.794-11.88 6.928-7.26 7.918-14.84.66-21.44zm19.464 19.12c-4.948 5.28-11.217 10.56-18.804 16.17-7.588 5.61-13.526 8.91-17.485 9.9l6.598 5.6c2.639-1.32 6.598-3.95 12.206-8.24 5.609-4.29 10.227-8.58 14.186-12.87l.33.33c-1.32 2.31-3.299 6.6-6.268 12.87-2.639 6.26-4.949 10.55-6.268 13.19.66.99 3.299 2.97 5.278 3.3 9.897-3.63 19.134-7.59 28.042-11.54l.329.33c-4.618 4.28-12.536 12.2-23.422 23.42l6.928 5.94c4.948-5.61 14.845-16.17 30.35-31.34l-7.258-6.27c-7.257 3.3-16.494 6.93-27.711 11.21l-.33-.33c4.949-10.55 8.577-18.8 11.217-25.07zm100.62 95.68c3.629-3.3 6.598-6.6 8.907-10.55l-7.917-5.28c-1.65 2.31-5.609 7.59-12.206 15.5-6.598 7.92-11.877 13.86-16.166 17.82l7.918 5.28 5.608-5.94c2.969-3.3 5.279-5.61 7.258-7.26 2.639-2.64 6.598-4.95 11.876-7.26 5.279-1.98 8.578-2.64 10.557-1.32.99.66.99 2.31-.66 4.95-2.639 3.96-10.226 12.21-22.763 24.74l7.588 4.95 6.928-7.26c2.969-2.96 4.948-5.27 6.268-6.26 2.639-2.31 6.268-4.62 11.547-6.6 5.278-1.98 8.577-2.64 10.226-1.32 1.32.99.99 2.64-.659 5.28-1.32 1.98-5.279 6.26-11.547 13.19-6.268 6.6-9.897 10.56-10.557 11.55l8.248 5.61c.99-1.32 4.618-5.61 11.546-12.54s11.217-11.88 12.866-14.51c2.97-4.29 2.31-8.91-1.319-11.22-4.949-3.3-12.536-2.64-22.763 2.64l-.33-.33c2.969-2.97 4.289-4.95 4.948-5.61 2.64-3.96 1.98-7.59-1.319-9.9-4.949-3.3-13.526-2.31-22.763 2.97zm48.825 48.16c4.619-7.91 10.887-12.53 16.165-14.18 2.309-.33 4.289.33 6.268 1.32 3.629 2.31 3.629 5.94-.66 13.19-4.618 7.92-11.216 13.2-15.175 14.19-2.309.33-4.619 0-6.268-.99-3.959-2.64-4.289-7.26-.33-13.53zm27.382-17.48c-5.939-3.63-12.537-3.96-19.464-1.32-6.928 2.64-12.537 7.59-16.825 14.85-5.609 9.56-2.969 17.48 4.618 22.1 5.938 3.63 11.877 3.96 18.475 1.65s12.206-7.59 17.154-15.84c4.949-8.9 3.959-16.49-3.958-21.44zm43.217 26.06c-2.31 1.65-6.598 3.63-12.537 5.61-5.938 2.31-9.237 2.97-9.897 2.64l-1.319-.66c2.309-3.3 5.938-7.92 11.216-14.52l-9.237-4.95c-7.587 11.22-16.165 23.1-26.062 35.3l8.907 4.95c6.598-9.57 10.557-15.5 12.207-17.48l1.319.66c.99.66.99 2.96.66 6.59-.33 2.31-.66 6.27-.66 9.9 0 6.27.99 9.24 3.629 10.89 1.98.99 4.289 1.65 7.258 1.98-.99-4.62-1.32-13.86-.66-27.06l24.743-8.57zm24.742 42.89c-3.959 4.62-7.258 9.24-9.568 13.86l8.248 4.29c1.649-3.3 5.278-9.24 10.887-17.49 5.608-8.24 9.897-14.51 13.196-18.8l-8.908-4.62c-3.629 5.61-6.928 10.23-9.567 13.53s-6.598 6.59-11.546 9.56c-4.949 2.97-8.578 3.96-10.557 2.97-1.65-.99-1.979-2.64-.33-5.61.99-2.31 4.289-6.92 9.237-14.18 5.279-7.26 8.248-11.55 8.908-13.2l-8.908-4.62c-.66 1.65-3.959 6.27-9.237 13.86s-8.577 12.87-9.897 15.17c-2.969 5.94-1.979 10.23 3.299 12.54 2.969 1.32 6.598 1.32 11.217 0 4.618-1.65 8.907-3.96 13.196-7.26zm25.072 12.86c3.629-8.24 9.567-13.85 14.516-15.83 2.312-.66 4.292-.33 6.602.66 3.95 1.65 4.28 5.61.99 13.19-3.63 8.25-9.572 14.52-13.53 15.84-2.31.66-4.289.66-6.268-.33-4.619-2.31-5.279-6.6-2.31-13.53zm25.068-20.45c-6.26-2.97-12.862-2.64-19.459.99-6.598 3.63-11.547 8.91-14.846 16.49-4.619 9.9-.99 17.82 6.928 21.45 6.268 2.64 12.206 2.64 18.477-.33 6.27-3.3 11.21-8.91 15.17-17.49 4.29-9.56 2.64-17.15-6.27-21.11zm59.39 22.44c6.59 2.64 7.25 8.58 4.61 15.17-1.31 3.63-3.62 6.27-6.92 7.92s-6.6 1.98-9.24.66c-6.27-2.31-7.59-7.59-4.95-14.18 1.98-5.28 6.27-8.91 9.24-9.9 2.31-.99 4.95-.66 7.26.33zm4.28-5.28c-5.6-2.31-11.54-2.31-17.48 0s-10.23 6.6-12.54 12.54c-3.62 8.9-.66 16.82 7.92 20.12 5.94 2.31 12.54 1.65 16.83-1.32l.33.33c-4.29 6.27-9.9 10.23-16.5 11.88s-12.53 1.65-17.81-.66c-2.31 2.31-1.98 5.28.99 6.6 7.58 2.63 17.15 1.97 26.06-1.65 8.91-3.63 17.48-11.88 22.1-23.43 3.96-12.2.99-20.12-9.9-24.41zm40.91 21.43c6.6 2.31 7.59 8.25 5.28 14.85-1.32 3.63-3.63 6.27-6.6 8.25-3.3 1.64-6.27 2.3-9.23 1.31-6.27-1.97-7.92-7.25-5.61-14.18 1.65-5.28 5.94-9.24 8.9-10.56 2.31-.66 4.62-.33 7.26.33zm3.63-5.28c-5.94-1.98-11.55-1.65-17.48.66-5.94 2.64-9.9 6.93-12.21 13.2-2.97 9.24 0 16.82 8.91 19.79 6.27 1.98 12.53 1.32 16.82-1.98l.33.33c-4.29 6.27-9.56 10.56-16.16 12.54s-12.54 1.98-17.82 0c-1.98 2.31-1.98 5.61 1.32 6.6 7.92 2.31 17.16.99 25.73-2.97 8.91-3.96 17.16-12.54 21.12-24.08 4.29-12.21.66-20.46-10.56-24.09zm42.89 20.14c5.61 1.65 7.26 6.6 4.62 15.18-1.65 5.93-3.96 10.88-6.93 15.5-2.97 4.29-5.28 6.93-6.93 7.92-1.98.66-4.29.99-6.6.33-5.93-1.65-7.25-8.58-4.62-16.83 1.32-3.96 2.97-7.58 4.95-11.21s3.96-5.94 5.61-7.59 2.64-2.64 3.63-2.97c1.98-.99 3.96-.99 6.27-.33zm3.96-5.61c-6.6-1.98-13.2-.66-19.8 3.3-6.59 4.29-11.21 11.22-14.18 20.78-1.65 5.94-1.65 11.22 0 16.17s5.28 7.92 10.55 9.57c6.6 1.98 13.2.66 19.47-3.96 6.6-4.62 11.22-11.88 13.85-21.45 1.65-5.6 1.65-10.55 0-15.17-1.32-4.62-4.61-7.59-9.89-9.24zm43.21 18.47c5.61 1.32 7.59 6.6 5.28 14.85-1.65 5.93-3.63 11.21-6.27 15.83s-4.94 7.26-6.59 8.25c-1.98.99-4.29.99-6.6.33-5.94-1.65-7.59-8.25-5.61-16.5.99-3.96 2.64-7.91 4.62-11.54s3.63-6.27 5.28-7.92c1.32-1.65 2.64-2.64 3.3-2.97 2.3-.99 4.28-.99 6.59-.33zm3.63-5.61c-6.6-1.65-13.19-.33-19.79 4.29-6.27 4.62-10.89 11.55-13.2 21.44-1.65 5.94-1.32 11.22.66 16.17 1.98 4.62 5.61 7.92 10.89 9.24 6.6 1.65 13.19 0 19.46-4.95s10.56-12.21 13.2-22.1c1.32-5.61 1.32-10.56-.66-15.18-1.65-4.95-5.28-7.59-10.56-8.91zm66.97 24.42c-1.98 2.31-5.28 5.28-10.22 9.24-4.95 3.96-7.59 5.61-8.58 5.61l-1.32-.33c1.32-3.63 3.3-9.57 6.27-17.16l-10.23-1.98c-3.63 13.2-8.25 27.05-13.86 41.57l10.23 1.98c3.3-11.22 5.61-17.82 6.27-20.45l1.32.33c1.32.33 1.65 2.3 2.31 5.93.33 2.31 1.32 6.27 2.64 9.57 1.98 5.94 3.63 8.58 6.92 9.24 2.31.33 4.62.33 7.59-.33-2.31-3.96-5.61-12.87-8.91-25.73l21.12-15.84zm19.47 3.62c-1.32 6.93-3.96 14.85-7.59 23.76-3.63 8.9-6.93 14.84-9.57 17.81l8.58 1.32c1.65-2.64 3.63-6.93 5.94-13.19 2.31-6.27 4.29-12.54 5.28-18.15h.66c0 2.64.66 7.26 1.31 14.19.99 6.59 1.65 11.54 1.65 14.51.99.66 4.29.66 6.27 0 6.6-8.25 12.54-16.49 17.82-24.41h.33c-1.65 6.27-4.29 16.82-7.59 32.33l8.91 1.32c1.32-7.26 4.29-21.44 9.23-42.56l-9.56-1.32c-4.62 6.6-10.23 14.52-17.49 24.09h-.66c-1.32-11.55-2.64-20.46-3.63-27.06zm155.38 29.37c.33-1.65.99-3.96 1.32-7.25.66-3.3.99-5.61.99-6.93l-10.23-.33c0 3.96-.99 10.55-2.31 20.45s-2.97 17.49-4.29 22.76l10.23.33c.33-1.64.66-4.28 1.32-8.57s1.32-7.59 1.98-9.57c.66-3.3 2.97-7.59 6.6-12.21 3.63-4.61 6.27-6.92 8.57-6.92 1.98 0 2.97 1.65 2.97 4.94 0 2.31-.99 8.25-2.64 16.83s-2.31 13.86-2.63 15.83l10.22.33c0-1.64.99-7.25 2.64-16.49s2.64-15.51 2.64-18.14c0-6.6-2.64-9.9-8.25-9.9-3.3 0-6.6 1.32-9.89 4.29-3.3 2.97-6.27 6.59-8.58 10.88zm44.87 5.6c.33-4.62 2.96-9.9 5.27-12.87 1.65-1.32 3.63-1.98 5.94-1.98 3.3 0 5.28 2.31 5.28 5.61.33 7.26-9.57 9.24-16.49 9.24zm4.61 25.73c6.93 0 13.53-2.97 16.83-5.94 0-1.32-.99-3.96-1.98-4.61-.99.98-2.97 1.64-5.28 2.3s-4.62.99-6.27.99c-5.28 0-7.91-3.29-8.24-9.89 0-1.32 0-2.64.33-3.96 17.15-1.65 25.73-6.93 25.73-15.84 0-6.26-4.29-10.55-12.21-10.22-7.26 0-12.86 3.3-17.15 9.56-4.29 6.27-6.27 13.53-6.27 22.44 0 9.89 5.28 15.17 14.51 15.17zm37.61-7.58c.33-3.3.66-6.93 1.32-11.22.66-4.28 2.64-8.9 5.94-14.18 2.97-5.28 5.94-8.25 7.92-8.25 2.31 0 3.63 2.64 3.96 7.92.33 4.62-.33 9.24-2.31 13.85-1.65 4.62-3.63 7.92-5.94 10.23-3.63 2.64-8.58 2.64-10.89 1.65zm-6.93-38.27c-.98 18.15-2.63 38.6-5.27 62.02.99.33 2.64.66 4.94.33 2.31 0 3.96-.33 4.62-.99.66-6.26 1.32-11.54 1.98-16.16 9.24.33 16.5-2.97 22.44-9.9 5.93-6.93 8.57-15.5 7.91-26.39-.33-7.26-4.29-12.21-10.22-11.88-3.63.33-6.93 2.31-10.23 5.94s-5.94 8.25-7.92 13.86h-.33c.66-2.64.99-5.61 1.32-9.57s.66-6.6.66-7.92zm48.5-2.64c.33 6.92-.33 15.17-1.65 24.74-1.32 9.56-2.97 15.83-5.28 19.46l8.58-.66c.99-2.97 1.98-7.59 2.64-14.51.99-6.93.99-13.2.66-19.14h.66c.66 2.64 2.31 6.93 4.95 13.2s4.29 10.88 5.28 13.52c.98.33 4.28-.33 5.93-1.65 4.29-9.56 7.92-19.13 11.22-28.04h.33c0 6.27 0 17.49.33 32.99l9.24-.99c-.66-7.25-.99-21.77-1.32-43.54l-9.57.99c-2.64 7.58-6.6 16.82-11.22 27.71h-.66c-3.95-10.89-7.58-19.47-9.89-25.4zm63.01 27.06c-.33-1.65-.33-3.63 0-5.28.99-2.97 2.31-5.61 4.29-8.25s3.96-3.96 5.61-3.96c1.98-.33 3.3 1.32 3.63 4.62.66 4.29-.33 8.91-3.3 13.2-1.65 1.98-3.63 2.97-5.94 3.3-2.31.66-3.96-.66-4.29-3.63zm-8.58-32.66c0 1.98-.33 7.58-.66 16.82s-.33 15.84 0 18.81c.99 6.26 4.29 8.9 10.89 7.91s11.88-4.28 16.5-10.22c4.28-5.94 6.26-12.21 5.27-18.48-.66-5.61-4.28-8.24-9.23-7.59-4.29.66-10.56 5.28-14.19 12.21h-.33c.66-2.97.99-6.6 1.32-11.22.33-4.61.33-7.91.33-9.89zm76.21 4.61c8.58 2.97 10.89 6.27 11.88 11.22.66 2.97 0 5.61-1.65 7.59-1.65 1.65-3.96 2.64-6.6 3.3-2.64.65-5.28 0-6.93-1.32s-3.3-3.3-3.63-5.94c-1.32-5.28.99-10.23 6.93-14.85zm2.64-6.6c-6.6-2.31-10.23-5.6-10.89-10.22-.66-2.64 0-5.28 1.65-7.26 1.32-1.32 3.3-2.31 6.27-2.97 4.95-.66 7.59 1.32 8.58 6.27.66 2.64 0 5.28-.99 7.92-1.32 2.31-2.64 4.28-4.62 6.26zm-2.64-26.72c-5.28.99-9.57 3.3-12.87 7.26-3.3 3.63-4.62 7.92-3.63 12.54.99 5.27 5.28 9.89 10.56 12.2v.33c-6.6 4.62-11.22 11.55-9.9 19.14 1.32 7.25 7.92 11.87 18.81 9.56 5.61-.99 10.23-3.63 13.52-7.58 3.3-3.96 4.62-8.58 3.63-13.53-.99-5.61-4.95-9.9-11.87-12.54v-.33c2.97-2.31 4.95-4.94 6.92-8.24 1.65-3.3 2.31-6.93 1.65-10.23-.99-6.27-6.92-10.56-16.82-8.58zm46.52 2.64c5.93-1.32 9.56 2.31 11.54 10.89 1.32 5.94 1.98 11.55 1.65 16.82-.33 5.28-.99 8.58-1.98 10.23-1.32 1.65-3.3 2.97-5.61 3.63-5.93 1.32-10.55-3.96-12.53-12.21-.99-3.95-1.32-8.24-1.32-12.2s.33-7.26.99-9.57.99-3.63 1.65-4.29c1.32-1.65 3.3-2.64 5.61-3.3zm.66-6.59c-6.6 1.64-11.88 5.93-15.51 12.86s-4.29 15.18-1.98 25.07c1.32 5.94 3.96 10.56 7.92 13.86s8.58 4.29 13.85 2.97c6.93-1.65 11.88-5.94 15.18-13.2s3.63-15.83 1.32-25.73c-1.32-5.61-3.96-9.9-7.59-13.2-3.63-2.96-7.92-3.95-13.19-2.63zm70.59-8.91c-.65 2.97-2.3 7.26-4.61 12.86-2.64 5.61-4.29 8.58-5.28 8.91l-1.32.33c-.66-3.96-1.32-9.9-2.31-18.14l-9.9 2.97c2.64 13.19 4.95 27.71 6.6 43.21l9.9-2.97c-1.98-11.54-3.3-18.47-3.63-21.11l1.32-.33c1.32-.33 2.64 1.32 4.95 4.29 1.32 1.65 3.95 4.95 6.59 7.59 4.29 4.29 7.26 5.93 10.23 4.95 2.31-.66 4.29-1.98 6.6-3.63-3.96-2.64-10.56-8.91-19.79-18.81l11.54-23.42zm18.81-5.61c1.98 6.92 3.3 14.84 4.29 24.41.99 9.56.66 16.16-.33 20.12l7.91-2.64c.33-2.97.01-7.92-.65-14.51-.66-6.93-1.98-13.2-3.96-18.81l.66-.33c1.32 2.31 3.96 6.27 7.91 11.88 3.96 5.61 6.6 9.57 8.25 12.21 1.32 0 3.96-1.32 5.28-2.97 1.98-10.23 3.3-20.46 4.29-30.02h.33c1.32 6.26 3.96 16.82 8.25 32l8.57-2.97c-2.31-6.93-6.26-21.12-11.54-41.9l-9.24 2.97c-.99 7.92-2.31 17.81-4.62 29.36l-.66.33c-6.6-9.57-11.88-17.16-15.83-22.43zm139.55-54.77c2.63 6.6 4.94 14.51 6.92 23.75s2.64 16.17 1.98 20.13l7.59-3.63c0-2.97-.99-7.92-2.64-14.52s-3.63-12.54-5.94-18.14l.33-.33c1.65 2.31 4.62 5.93 9.24 10.88s7.92 8.58 9.57 10.89c1.32 0 3.96-1.65 4.95-3.63.66-10.56.99-20.45.99-30.35h.33c1.97 5.94 5.93 16.17 11.87 30.68l8.25-3.96c-3.3-6.6-8.58-20.12-16.5-40.25l-8.57 4.29c0 7.92-.33 17.82-.99 29.69l-.66.33c-7.59-8.57-13.86-15.5-18.15-20.45zm64.66-1.31c-4.29-7.92-5.28-15.84-3.96-21.12.99-1.98 2.31-3.63 4.29-4.62 3.63-1.98 6.92-.33 11.21 7.26 4.29 7.92 5.61 16.17 4.62 20.46-.99 2.31-2.31 3.95-3.96 4.94-4.62 1.98-8.57-.33-12.2-6.92zm-.99-32.33c-6.27 3.3-9.9 8.57-11.22 16.16-1.32 7.26 0 14.52 3.96 21.77 5.28 9.57 13.52 11.55 21.11 7.26 5.94-3.3 9.57-8.24 10.89-14.84 1.32-6.93-.33-14.52-4.95-22.77-4.29-8.9-11.55-12.2-19.79-7.58zm47.83-22.44c-1.32-2.31-4.95-1.98-9.9.99-14.84 8.58-12.53 26.06-5.27 38.27 5.27 9.23 12.86 10.88 20.78 6.26 4.29-2.3 7.26-5.93 9.57-10.88-1.65-2.31-2.97-3.3-4.29-3.3-1.65 2.97-3.63 5.28-5.94 6.6-4.62 2.64-8.91.99-12.21-4.95-4.61-7.92-5.93-15.84-4.94-20.78.66-1.98 1.97-3.3 3.62-4.29 2.31-1.32 4.95-1.65 7.92-.66 1.65-1.98 1.98-5.28.66-7.26zm27.05-20.45c.33 2.97-.33 7.59-.99 13.53-.99 6.27-1.64 9.57-2.63 9.9l-1.32.65c-1.65-3.62-3.96-9.23-7.26-16.82l-8.91 5.61c6.27 12.2 12.21 25.4 18.48 39.92l8.9-5.61c-5.28-10.56-8.25-16.83-9.23-19.14l1.31-.66c.99-.66 2.97.66 5.94 2.64 1.98 1.32 5.28 3.63 8.58 5.28 5.61 2.97 8.58 3.63 11.22 1.98 1.98-1.32 3.63-2.97 5.28-5.28-4.62-1.32-12.54-5.61-24.09-12.53l4.62-25.74zm32.33 6.93c7.92-7.59 12.21-8.58 15.84-3.63 1.98 2.97 2.31 5.94 1.65 8.91-.33 1.32-1.65 2.64-3.63 4.29-4.62 2.97-9.24-.33-13.86-9.57zm-2.31-4.29c-2.64-4.95-3.3-9.24-2.31-13.19.66-1.65 1.65-2.97 3.3-4.29 2.97-1.98 5.61-1.98 7.26.33 2.31 3.3 1.32 8.24-1.65 11.54-1.98 1.98-3.96 3.96-6.6 5.61zm13.53-8.58c3.3-4.61 3.96-11.21.99-15.5-2.97-4.62-8.25-4.95-15.18-.33-11.87 8.25-13.85 21.44-1.65 38.93 5.94 8.9 12.21 10.55 20.13 5.28 4.95-3.3 8.25-7.59 9.57-12.87s.66-9.57-1.65-13.2c-2.97-4.62-6.93-5.28-11.55-2.31zm29.36-37.94c1.98 3.3 3.63 6.93 5.28 10.56 1.65 3.96 2.64 8.91 2.97 14.51.33 5.94-.66 9.24-2.31 10.56-1.98 1.32-4.62 0-7.59-4.29a33.307 33.307 0 01-5.61-12.53c-.99-4.62-1.32-8.58-.33-11.55.99-2.31 2.31-4.29 3.96-5.28.99-.99 2.31-1.65 3.63-1.98zm26.72 27.38c-3.3-5.28-7.59-11.87-12.2-20.12-4.62-8.25-7.92-14.19-9.57-17.49-3.63.99-6.93 2.64-9.9 4.95-6.93 5.28-10.88 11.88-11.87 20.13-.99 8.24 1.64 16.16 7.91 24.74 4.29 5.94 10.56 7.92 15.18 4.62 2.97-1.98 4.62-5.61 5.28-10.56s.33-10.23-.99-15.83l.33-.33c.99 2.3 2.31 5.27 4.29 8.57s3.29 5.61 4.28 6.93zm38.27-30.35c-2.64-3.3-6.93-9.89-13.19-20.12l-15.18-25.07-5.94 4.95c.66 4.94-1.65 10.55-4.95 13.52.33 1.65 1.32 2.97 2.31 3.96 2.64-1.32 4.95-3.63 6.27-6.6l9.57 15.51c5.94 9.56 9.9 17.15 11.87 21.77zm-16.16-43.21c.99-1.98 5.27-6.6 13.19-13.53l4.62-3.96.33.33c0 9.24 1.32 18.47 3.96 28.37s5.94 17.49 9.57 23.42l.66.99 8.57-7.58c-1.65-1.32-3.62-3.3-5.6-6.27-3.3-4.95-5.94-12.21-8.58-21.45-2.64-9.23-3.63-17.15-3.3-23.42-.66-2.64-1.98-4.62-3.63-6.27l-25.07 21.78zm41.89-38.94c5.94-5.27 7.92-9.23 6.6-11.54-.99-1.32-1.98-2.64-3.3-3.96-.66 1.98-3.63 5.61-8.91 10.23l-11.21 10.55 13.52 19.8c7.59-7.92 15.18-9.24 20.13-3.63 2.31 2.64 3.63 5.94 3.63 9.9 0 3.95-.66 7.58-2.31 10.88s-3.63 6.27-5.94 8.58c.99 3.3 3.63 4.62 6.27 2.31 3.3-2.64 8.9-12.21 10.55-21.77.99-6.27-.33-13.86-4.94-18.81-6.27-6.6-15.18-5.94-25.08 3.96l-6.27-9.24zm26.73-28.7c4.28-4.29 9.56-2.97 15.5 2.97 4.29 4.29 7.59 8.91 10.23 13.53s3.63 7.92 3.63 9.9c-.33 2.3-1.32 4.28-2.97 5.93-4.29 4.29-10.89 2.31-16.83-3.96-2.97-2.96-5.28-6.26-7.58-9.89-1.98-3.63-3.3-6.27-3.96-8.58-.66-1.98-.99-3.63-.99-4.62.33-1.65 1.32-3.63 2.97-5.28zm-2.97-5.93c-4.95 4.94-6.93 11.21-6.6 19.13.66 7.92 4.29 15.17 11.55 22.43 4.28 4.29 8.9 6.93 14.18 7.59 4.95.66 9.57-.99 13.53-4.62 4.95-4.95 6.92-11.22 5.94-19.13-.99-7.92-4.95-15.51-12.21-22.44-3.96-3.95-8.58-6.59-13.2-7.25-4.95-.99-9.23.33-13.19 4.29zm55.42-44.54c.99 2.64 1.98 7.26 2.64 13.52.99 6.27.99 9.57.33 10.23l-.99.99c-2.64-2.97-6.27-7.59-11.55-14.18l-6.93 7.58c9.24 9.9 18.81 21.12 28.38 33.32l6.92-7.58c-7.91-8.58-12.53-13.86-14.18-15.84l.99-.99c.99-.99 2.97-.33 6.27.99 1.98.66 5.93 1.98 9.56 2.97 5.94 1.32 9.24 1.32 11.55-.99 1.65-1.65 2.64-3.96 3.63-6.6-4.95 0-13.86-1.98-26.72-5.61l-2.64-26.06zm13.19-15.17c5.28 4.95 10.56 10.89 16.17 18.8 5.61 7.59 8.91 13.53 10.23 17.49l5.27-6.6c-1.32-2.64-3.95-6.6-8.24-12.21-4.29-5.27-8.58-10.22-12.87-13.85l.33-.33c2.31 1.32 6.6 3.3 12.87 5.94 6.26 2.64 10.55 4.62 13.19 5.94.99-.66 2.97-3.3 2.97-5.28-3.63-9.9-7.59-19.14-11.87-27.71l.33-.33c4.28 4.61 12.2 12.2 23.75 23.09l5.94-6.93c-5.61-4.95-16.17-14.84-31.67-30.02l-6.27 7.26c3.3 7.26 7.26 16.49 11.54 27.38l-.33.33c-10.55-4.95-18.8-8.58-25.07-11.22zm105.57-117.45c-.99-.99-2.97-2.64-5.6-4.95-2.64-2.31-4.29-3.62-5.28-4.28l-5.28 8.57c3.3 1.98 8.58 6.27 16.16 12.87 7.59 6.27 13.53 11.55 17.49 15.17l5.61-8.57c-1.32-.99-3.3-2.97-6.6-5.61-3.3-2.97-5.61-4.95-7.26-6.6-2.64-2.31-4.95-6.27-6.93-11.88-1.98-5.27-2.64-8.9-1.32-10.88.99-1.65 2.97-1.65 5.61 0 1.98 1.32 6.6 4.95 12.87 10.88 6.6 5.94 10.55 9.24 12.2 10.23l5.61-8.58c-1.32-.99-5.94-4.62-12.86-10.88-7.26-6.27-11.88-10.23-14.19-11.55-5.61-3.63-9.9-2.97-12.87 1.98-1.65 2.64-2.3 6.27-1.65 10.89.66 4.29 2.31 8.57 4.95 12.86zm26.07-60.04c3.29 2.31 6.26 4.95 8.9 7.59 2.97 2.97 5.94 7.25 8.25 12.2 2.64 5.28 3.3 8.91 1.98 10.56-1.32 1.98-4.29 1.65-8.91-.99-3.96-2.31-7.26-5.28-10.22-9.24-2.64-3.63-4.29-7.25-4.95-10.55 0-2.64.66-4.62 1.65-6.6 1.32-.99 2.31-2.31 3.3-2.97zm35.62 14.51c-5.27-3.29-11.54-7.91-19.13-13.52s-12.54-9.9-15.84-12.21c-2.96 2.31-5.27 5.28-7.25 8.25-4.29 7.59-5.28 15.18-2.97 23.09 2.31 7.92 7.92 14.19 16.82 19.47 6.27 3.63 12.87 3.3 15.84-1.98 1.65-2.97 1.98-6.93.66-11.88a41.34 41.34 0 00-7.26-14.18l.33-.33c1.65 1.65 4.29 3.62 7.59 6.26 3.3 2.31 5.28 3.96 6.6 4.62zm6.6-22.76c-2.64-1.98-5.61-4.29-8.9-6.93-3.3-2.97-6.27-6.93-9.24-12.54-2.97-5.6-3.96-9.23-2.97-11.21s3.96-1.98 8.91.66c3.95 2.31 7.58 5.28 10.88 8.9 3.3 3.96 4.95 7.26 5.61 10.23.33 5.28-2.31 9.57-4.29 10.89zm-36.29-13.53c15.18 9.9 32 22.11 50.48 36.62.99-.66 1.65-1.98 2.97-3.96s1.65-3.63 1.65-4.29c-4.95-3.63-9.24-6.92-12.87-9.89 4.95-7.59 5.94-15.84 2.97-24.42-2.97-8.57-8.91-15.5-18.47-20.45-6.6-3.3-12.54-2.64-15.51 2.64-1.65 3.3-1.65 6.93-.33 11.88 1.65 4.61 4.29 9.23 7.92 13.85l-.33.33c-1.98-1.65-4.29-3.96-7.59-6.27s-5.28-3.96-6.6-4.62zm56.09-50.47c4.62 3.96 9.23 6.93 13.85 9.56l3.96-8.24c-3.3-1.65-9.57-5.28-17.81-10.56-8.25-5.28-14.85-9.9-19.14-13.2l-4.29 8.91c5.61 3.63 10.23 6.6 13.86 9.24 3.3 2.64 6.6 6.27 9.57 11.22 2.97 4.94 3.96 8.57 2.97 10.55-.99 1.65-2.64 1.98-5.61.66-2.31-.99-6.93-4.29-14.19-9.24-7.26-4.94-11.55-7.91-13.19-8.9l-4.29 8.9c1.65.66 6.26 3.96 13.85 9.24s12.87 8.58 15.18 9.9c5.94 2.97 10.22 1.65 12.53-3.3 1.32-2.97 1.32-6.6-.33-11.22s-3.95-8.9-7.58-13.19zm-7.26-28.04c-.66-1.98-.66-3.62-.33-4.61 1.32-2.97 4.62-3.3 9.9-.99 4.94 1.98 8.9 4.61 12.2 7.58s4.95 5.61 5.61 7.92c0 2.31-.66 4.29-2.64 4.95 0 .99.66 1.98 1.98 2.97s2.31 1.65 3.3 1.98c1.32-.66 2.64-1.98 3.63-4.62.66-1.98.99-4.62.33-7.92s-2.31-6.6-4.29-9.9c-6.6-10.22-10.89-17.15-13.53-20.12l.33-.33 24.75 17.82 3.29-7.92c-4.61-3.63-10.55-11.22-17.81-22.11l.33-.33c3.3 3.3 6.93 5.61 11.55 7.59 7.25 3.3 12.86 1.98 15.17-2.97 1.32-3.3 1.65-6.92.99-10.55-2.31-.66-3.96-.99-4.95-.33.33.99.33 2.64-.33 4.29-.99 2.63-4.62 2.96-9.23.99-4.95-1.98-9.24-4.95-12.87-7.92-3.63-3.3-5.61-5.94-5.94-7.92 0-2.31.66-3.96 2.31-5.28-.33-1.65-3.3-3.96-5.28-4.29-.99.99-1.98 1.98-2.64 3.63-1.98 4.95-.99 10.89 3.63 17.16l2.64 4.62 3.3 5.6c1.65 2.31 4.95 7.26 7.59 10.89l-.33.33c-10.23-6.93-18.48-12.87-24.74-17.15l-3.3 7.58c2.97 2.64 6.26 5.94 9.56 10.23s5.94 8.25 8.25 11.88l-.33.33c-2.97-2.97-6.93-5.28-11.22-7.26-7.25-3.3-12.53-1.98-14.51 2.97-1.65 3.96-1.65 7.59-.33 11.87.99 0 2.64 0 3.96-.66zm31.67-106.23c2.64-7.59 2.64-11.88.33-13.2-1.32-.66-2.97-1.32-4.95-1.65.33 1.98-.66 6.6-2.97 13.53l-4.95 14.52 21.12 10.88c2.97-10.55 8.9-15.17 16.16-12.86 3.3 1.32 5.94 3.63 7.92 7.25 1.98 3.63 2.97 7.26 2.97 10.89s-.33 7.26-1.32 10.23c2.31 2.31 5.28 2.31 6.6-.99 1.65-3.96 2.31-15.18-.99-24.08-1.98-6.27-6.6-11.88-13.2-14.19-8.58-2.97-16.16 1.98-20.45 15.18l-9.9-5.28zm15.5-39.59l23.1 10.89-4.95 15.83zm-9.89-4.62l26.06 39.59c1.65 1.65 3.63 2.64 5.61 2.64l7.26-22.76 13.85 6.59 2.97-9.89-13.86-6.6 1.65-5.61c-1.65-1.98-3.63-2.97-5.93-2.97l-1.65 5.61-32.99-15.51zm18.8-35.62c1.98-7.59 1.98-11.88-.66-13.2-1.32-.66-2.97-1.32-4.95-1.32.33 1.98-.33 6.6-1.98 13.53l-3.95 14.84 22.1 9.57c2.31-10.89 7.92-15.84 15.17-13.86 3.3.99 6.27 3.3 8.25 6.6s3.3 6.93 3.96 10.56c.33 3.63.33 7.26-.33 10.22 2.31 2.31 5.61 1.98 6.6-1.64 1.32-3.96.99-15.18-2.64-24.09-2.31-5.94-7.59-11.54-14.19-13.19-8.9-2.31-15.83 2.97-19.13 16.49l-10.23-4.29zm7.26-38.6c1.32-5.94 6.27-7.59 14.84-5.61 5.94 1.32 11.22 3.3 15.84 5.94s7.26 4.62 8.25 6.6 1.32 4.29.66 6.6c-1.32 5.94-8.25 7.59-16.5 5.61-3.96-.99-7.92-2.31-11.55-4.29-3.62-1.98-6.26-3.63-7.91-4.95s-2.64-2.64-3.3-3.3c-.66-2.31-.99-4.29-.33-6.6zm-5.94-3.63c-1.65 6.6 0 13.2 4.62 19.47s11.87 10.55 21.44 12.86c5.94 1.32 11.22.99 16.17-.99 4.62-1.98 7.58-5.93 8.9-11.21 1.65-6.93 0-13.2-5.27-19.47-4.95-6.26-12.54-10.22-22.44-12.53-5.61-1.32-10.55-.99-15.17.99-3.96 1.98-6.93 5.61-8.25 10.88zm23.42-66.96c2.31 1.65 5.28 5.27 9.24 9.89 3.96 4.95 5.94 7.59 5.61 8.58l-.33 1.32c-3.63-.99-9.57-3.3-17.49-5.94l-1.98 10.23c13.2 3.3 27.06 7.92 41.9 13.2l1.65-10.23c-11.22-3.3-18.14-5.28-20.45-5.94l.33-1.32c.33-1.32 2.31-1.65 5.94-2.64 2.3-.33 6.26-1.32 9.56-2.64 5.94-1.98 8.58-3.96 9.24-6.93.33-2.31.33-4.61-.33-7.58-3.96 2.64-12.54 5.6-25.4 9.56l-16.17-20.78zm3.3-19.8c6.93 1.32 14.85 3.63 23.75 7.25 8.91 3.63 14.85 6.6 17.82 9.57l.99-8.58c-2.64-1.65-6.93-3.62-13.53-5.93-6.27-2.31-12.53-3.96-18.47-4.95v-.66c2.64 0 7.26-.66 14.18-1.65 6.6-.99 11.55-1.65 14.52-1.98.66-.99.66-4.29-.33-6.27-8.25-6.27-16.83-12.21-24.74-17.48v-.33c6.27 1.65 16.82 3.95 32.33 6.92l1.32-9.23c-7.26-.99-21.45-3.96-42.89-8.58l-1.32 9.57c6.6 4.29 14.85 10.22 24.41 17.15v.66c-11.54 1.65-20.45 2.97-27.05 3.96zm50.81-152.75c-3.3-.33-6.93-.99-11.22-1.97-3.96-.99-8.91-3.3-13.86-6.6-5.27-3.3-7.58-6.27-7.58-8.58s2.64-3.63 8.24-3.63c4.62 0 9.24.99 13.86 2.97s7.92 3.96 9.9 6.6c2.31 3.96 1.98 9.24.66 11.21zm-38.27 4.95c18.14 1.98 38.6 4.95 61.69 8.91.33-.99.66-2.64.66-4.95s0-3.96-.66-4.62c-6.27-.99-11.55-1.98-16.17-2.97.66-8.9-2.31-16.82-8.57-22.76-6.6-6.27-15.18-9.57-25.74-9.57-7.25 0-12.53 3.63-12.53 9.57 0 3.63 1.65 6.93 5.28 10.56s7.91 6.27 13.52 8.58v.33c-2.31-.66-5.61-1.32-9.56-1.98-3.96-.66-6.6-.99-7.92-.99zm26.06-70.92c5.94 1.31 11.55 1.97 16.5 1.97l-.33-9.23c-3.96 0-10.89-.33-20.79-.99-9.89-.99-17.48-1.98-23.09-2.64l.33 10.23c6.6.66 12.21 1.31 16.5 1.97 4.28.66 8.9 2.64 13.85 5.61s7.26 5.61 7.59 7.92c0 1.98-1.65 2.97-4.62 2.97-2.31 0-7.92-.33-16.82-1.65-8.58-1.32-13.86-1.65-15.84-1.65l.33 10.23c1.65 0 7.26.66 16.49 1.65 9.24.99 15.51 1.65 18.15 1.65 6.6-.33 9.9-3.3 9.57-8.91 0-3.3-1.98-6.6-5.28-9.9-3.63-3.3-7.92-5.94-12.87-8.25zm-28.04-24.09c6.93-.33 15.18.66 24.74 2.31 9.24 1.64 15.84 3.29 19.47 5.6l-.66-8.57c-2.97-.99-7.59-1.98-14.52-2.97s-13.2-1.32-19.13-.99v-.66c2.64-.66 6.92-2.31 13.52-4.62 6.27-2.31 10.89-3.96 13.86-4.95.33-.99-.33-4.29-1.32-5.94-9.57-4.62-18.81-8.25-27.71-11.87v-.33c6.27.33 17.48.33 32.99 0l-.66-9.24c-7.26.33-21.78.66-43.55.66l.66 9.57c7.59 2.96 16.5 6.92 27.38 11.87v.66c-10.88 3.96-19.46 6.93-25.73 9.57zm-8.25-95.35h25.4l2.31 16.49zm-11.22 0l40.25 24.74c2.31.66 4.29.66 6.27 0l-3.3-23.75h15.18l-1.32-10.23h-15.18l-.66-5.94c-2.31-.99-4.62-.99-6.6 0l.66 5.94h-36.28zm-.32-39.91c-1.32-6.93 3.62-10.56 10.55-11.88 3.63-.66 7.26 0 10.23 1.98 3.3 1.98 4.95 4.62 5.61 7.59.99 6.6-2.64 10.56-9.57 11.55-5.28.99-10.89-.66-13.53-2.64-1.65-1.65-2.63-3.96-3.29-6.6zm-6.6-.66c.99 5.94 3.96 11.22 9.23 15.18 4.95 3.95 10.89 5.27 17.16 4.28 9.57-1.64 14.51-7.91 12.87-17.48-.99-6.27-4.95-11.55-9.9-13.53v-.33c7.59.66 13.85 3.3 18.8 7.92 4.95 4.95 7.92 9.9 8.58 15.51 3.3.66 5.61-.99 5.28-4.29-1.98-7.92-7.26-15.51-14.85-21.12-7.58-5.93-19.46-8.9-31.34-6.59-12.53 1.98-17.81 8.9-15.83 20.45zm-2.97-47.17c-1.32-5.94 2.31-9.57 10.89-11.55 5.93-1.32 11.54-1.65 16.82-1.32s8.58.99 10.23 2.31 2.97 3.3 3.3 5.61c1.32 5.94-3.96 10.56-12.21 12.21-3.96.99-8.25 1.32-12.21.99-3.96 0-7.25-.66-9.56-.99-2.31-.66-3.63-1.32-4.29-1.65-1.32-1.32-2.64-3.3-2.97-5.61zm-6.6-.66c1.32 6.6 5.61 11.88 12.54 15.83 6.92 3.63 15.17 4.29 25.07 2.31 5.94-1.32 10.56-3.95 14.18-7.91 3.3-3.96 4.29-8.58 3.3-13.86-1.65-6.93-5.93-11.88-12.86-15.17-7.26-3.3-15.84-3.96-25.73-1.65-5.61 1.32-10.23 3.62-13.2 7.25-3.63 3.3-4.62 7.92-3.3 13.2zm-4.95-46.85c-1.65-5.6 1.98-9.56 10.56-11.87 5.94-1.65 11.55-2.31 16.82-1.98 5.28 0 8.58.66 10.23 1.98s2.97 3.3 3.63 5.61c1.65 5.93-3.63 10.55-11.88 12.86-3.96.99-8.24 1.65-12.2 1.65s-7.26-.33-9.57-.66-3.63-.99-4.29-1.65a17.898 17.898 0 01-3.3-5.94zm-6.93-.66c1.65 6.6 6.27 11.88 13.2 15.18s15.51 3.96 25.07 1.32c5.94-1.65 10.56-4.29 13.86-8.25s3.96-8.58 2.64-14.18c-1.65-6.6-6.27-11.55-13.53-14.85-7.26-2.97-15.83-3.3-25.73-.66-5.61 1.32-9.9 3.96-12.87 7.92s-3.96 8.25-2.64 13.52zm-10.55-70.6c2.97.66 7.26 1.98 12.86 4.62 5.61 2.31 8.58 3.96 8.91 4.95l.33 1.32c-3.96.66-9.9 1.64-18.14 2.63l2.97 9.9c13.19-2.97 27.71-5.28 43.21-7.26l-2.97-9.89c-11.54 2.31-18.47 3.63-21.11 3.96l-.33-1.32c-.33-1.32 1.32-2.64 3.96-4.95 1.65-1.32 4.95-3.96 7.26-6.93 4.28-4.62 5.93-7.26 4.94-10.56-.66-2.31-1.97-4.29-3.62-6.6-2.31 3.96-8.58 10.89-18.48 20.13l-23.75-11.22zm-6.6-18.47c6.6-1.98 14.84-3.63 24.41-4.62s16.17-.99 20.13 0l-2.97-7.92c-2.97-.33-7.92 0-14.52.99-6.93.99-12.87 2.31-18.47 4.29l-.33-.66c2.31-1.32 6.26-3.96 11.54-8.24 5.28-3.96 9.24-6.93 11.88-8.58 0-1.32-1.32-3.96-2.97-5.28-10.56-1.65-20.45-2.97-30.02-3.63v-.33c6.27-1.65 16.82-4.29 32-8.91l-3.3-8.57c-6.93 2.64-20.78 6.59-41.9 12.53l3.3 8.91c7.92.66 17.82 1.98 29.36 3.96l.33.66c-9.56 6.6-16.82 12.2-22.1 16.16zm-39.59-146.808c2.31-.33 5.94-1.649 11.22-3.299 4.95-1.649 8.57-2.969 10.55-3.629l-4.28-8.247c-2.97 1.319-8.91 3.629-18.48 6.928-9.24 2.969-17.15 5.608-23.09 7.257l4.62 8.908c3.96-1.32 7.25-2.31 10.22-2.969 3.63-.99 7.26-.66 11.22 0 3.96.659 6.27 2.309 7.26 3.958.99 1.65 0 3.299-2.97 4.949-2.31.99-5.61 2.309-10.23 3.299-4.62 1.319-7.59 2.309-9.24 2.969l4.62 8.907c1.65-.66 4.95-1.979 10.23-3.299 5.28-1.319 8.91-2.639 11.55-3.959 5.93-2.969 7.58-6.927 5.28-11.546-2.97-5.938-8.58-8.907-17.49-9.567zm-16.49-44.206a68.57 68.57 0 0015.83-5.609l-4.29-8.247c-3.3 1.979-9.56 4.619-18.8 8.247-9.24 3.629-16.5 6.269-21.77 7.918l4.94 8.907c6.27-2.639 11.55-4.288 15.84-5.608 3.96-1.32 9.24-1.649 14.84-1.32 5.94.66 9.24 1.65 10.23 3.629.99 1.65 0 3.299-2.97 4.949-2.31 1.319-7.59 3.299-15.83 6.268-8.25 2.969-13.2 4.619-14.85 5.608l4.95 8.907c1.65-.989 6.93-2.969 15.51-5.938 8.9-3.299 14.51-5.278 16.82-6.598 5.94-3.299 7.26-7.257 4.62-12.206-1.65-2.969-4.62-4.948-9.24-6.268s-9.57-1.979-15.17-1.65zm-47.84-29.029c2.97 0 7.59.329 13.53 1.319 6.26.99 9.56 1.98 9.89 2.969l.66 1.32c-3.63 1.649-9.23 3.629-17.15 6.928l5.28 8.907c12.2-5.938 25.73-11.546 40.24-17.155l-5.27-8.907c-10.56 4.949-17.16 7.918-19.47 8.907l-.66-1.319c-.66-.99.66-2.969 2.97-5.938 1.32-1.65 3.63-4.949 5.61-8.248 3.3-5.278 3.96-8.577 2.31-11.217-1.32-1.979-2.97-3.628-5.28-5.608-1.32 4.619-5.94 12.536-13.2 23.753l-25.73-5.278zm-18.14-39.259c3.62-1.649 7.25-3.299 10.88-4.618 3.96-1.32 8.91-1.98 14.85-1.98s9.24.99 10.55 2.97c1.32 1.979-.32 4.618-4.94 7.257-3.96 2.64-8.25 4.289-12.87 4.949s-8.58.66-11.55-.33c-2.31-1.32-3.95-2.639-4.94-4.289-1.32-1.319-1.98-2.639-1.98-3.959zm28.7-25.072c-5.28 2.969-12.21 6.598-20.79 10.887-8.57 3.959-14.51 6.928-18.14 8.577.66 3.629 2.31 7.258 4.29 10.227 4.62 7.258 11.21 11.876 19.13 13.196s16.5-.66 25.07-6.268c6.27-3.959 8.58-9.897 5.61-14.846-1.98-2.969-5.28-4.948-10.22-5.938-4.95-.989-10.23-.989-15.84 0l-.33-.33c2.31-.989 5.28-1.979 8.91-3.958 3.63-1.65 5.94-2.97 7.26-3.959zm-35.3 3.956c-1.98-.33-4.29-.99-6.6-1.98s-3.63-1.979-4.29-2.639c-1.32-1.65-.66-3.299.99-4.619.99-.659 2.97-.989 5.94-.659 2.97.329 5.94.659 8.91 1.319s6.27.99 9.56.99c3.3 0 5.94-.66 7.59-1.98 4.62-3.298 5.61-7.917 2.31-12.866-1.65-2.639-4.29-4.618-7.92-6.268-3.63-1.649-6.92-2.639-9.89-2.969-1.32 1.65-1.65 3.299-1.32 5.279 1.98 0 3.96.659 6.27 1.649 2.3.99 3.62 1.98 4.61 2.969 1.32 1.98.99 3.629-1.32 4.949-1.32.989-3.29 1.319-6.26.989s-5.94-.659-8.91-1.319-6.27-.99-9.57-.99-5.94.66-7.92 1.98c-3.95 2.639-4.61 7.257-1.65 11.546 3.3 4.619 10.56 8.247 17.82 9.237 1.32-1.319 1.98-2.969 1.65-4.618zm-9.57-40.902c-7.26 5.608-14.84 7.587-20.45 6.928-1.98-.66-3.96-1.98-5.28-3.629-2.64-3.299-1.32-6.928 5.61-11.877 7.26-5.608 15.17-7.917 19.46-7.587 2.31.659 4.29 1.649 5.28 3.299 2.97 3.958 1.32 8.247-4.62 12.866zm-32 5.608c4.29 5.608 9.9 8.577 17.49 8.577 7.25 0 14.51-2.309 21.11-7.257 8.91-6.598 9.57-14.846 4.29-22.104-3.96-5.278-9.57-8.247-16.5-8.577-6.92-.33-14.18 2.309-21.77 8.247-7.92 6.269-10.23 13.526-4.62 21.114zm-.33-72.584c-3.3 2.639-9.89 6.928-20.12 13.196L2384 727.446l4.94 5.938c4.95-.66 10.56 1.649 13.53 4.948 1.65-.33 2.97-1.319 3.96-2.309-1.32-2.639-3.63-4.619-6.6-6.268l15.51-9.567c9.56-5.938 16.82-9.897 21.77-12.207zm-59.38-4.291l21.11-13.856 10.89 12.536zm-9.24 5.938l47.18-1.649c2.31-.66 3.96-1.65 5.28-3.299l-15.84-17.815 12.87-8.247-6.93-7.918-12.87 8.247-3.96-4.618c-2.63.33-4.28 1.649-5.6 3.629l3.96 4.618-30.36 20.124zm-17.81-57.071c-2.31-8.907-.99-12.536 2.64-16.165 2.31-1.979 4.62-2.969 7.25-2.969 2.31.66 4.29 1.65 6.6 3.959 1.98 1.979 2.97 4.289 2.64 6.598 0 2.309-.99 4.618-2.97 6.268-3.63 3.629-8.9 4.289-16.16 2.309zm-7.26 1.32c1.65 6.598.99 11.546-2.31 14.845-1.98 1.98-4.29 2.969-6.93 2.639-1.98-.329-3.96-1.649-5.94-3.628-3.29-3.629-3.29-6.928.33-10.557 1.98-1.98 4.29-2.969 7.26-3.629 2.64-.33 5.28-.33 7.59.33zm-20.45 16.825c3.62 3.629 8.24 5.938 13.19 6.928 4.95.659 9.24-.33 12.54-3.959 3.96-3.959 5.28-9.897 4.29-15.506h.33c7.58 2.97 15.83 2.97 21.44-2.639 5.28-5.278 5.61-12.866-2.31-21.113-3.96-3.959-8.58-6.268-13.85-7.258-5.28-.66-9.57.66-13.53 4.619-3.96 3.958-5.28 9.567-3.63 16.824l-.33.33c-3.63-.989-6.93-1.319-10.89-.989s-6.92 1.649-9.56 4.288c-4.29 3.959-4.95 11.217 2.31 18.475zm-23.43-40.245c-4.28-3.959-3.3-9.237 2.64-15.835 4.29-4.619 8.58-7.918 13.2-10.557s7.92-3.959 9.57-3.959c2.31.33 4.28.99 5.93 2.639 4.62 4.289 2.64 10.887-3.29 17.155-2.97 2.969-5.94 5.608-9.57 7.918-3.3 2.309-6.27 3.629-8.58 4.288-1.98.66-3.63.99-4.62.99-1.65 0-3.63-.99-5.28-2.639zm-5.93 3.299c4.94 4.619 11.54 6.598 19.13 5.938 7.59-.99 15.18-4.948 21.77-12.206 4.29-4.619 6.6-9.237 7.26-14.186.66-5.278-1.32-9.567-5.28-13.196-4.95-4.618-11.54-6.598-19.46-5.278-7.92 1.319-15.18 5.608-22.1 12.866-3.96 4.289-6.27 8.907-6.6 13.526-.33 4.618 1.32 8.907 5.28 12.536zM2255 588.891c-4.61-3.959-3.95-9.237 1.98-15.835 3.96-4.619 8.25-8.248 12.54-11.217s7.59-4.289 9.57-4.289c2.31 0 4.29.99 6.27 2.64 4.61 3.958 2.96 10.886-2.64 17.154-2.64 2.969-5.94 5.939-9.24 8.248s-6.27 3.959-8.25 4.618c-1.98.99-3.63 1.32-4.62 1.32-1.65-.33-3.96-.99-5.61-2.639zm-5.93 3.299c5.28 4.618 11.87 6.268 19.46 4.948 7.59-1.319 14.85-5.608 21.44-13.196 3.96-4.618 6.27-9.567 6.6-14.515.33-5.279-1.65-9.567-5.61-13.196-5.27-4.619-11.87-5.938-19.46-4.289-7.92 1.65-14.85 6.268-21.44 13.856-3.63 4.289-5.94 8.907-6.27 13.856-.66 4.948 1.32 9.237 5.28 12.536zm-48.5-51.799c2.64-1.319 6.93-2.309 13.2-3.629 5.94-1.319 9.56-1.649 10.22-.989l.99.989c-2.64 2.64-7.25 6.928-13.19 12.536l8.25 6.269c9.23-9.897 19.46-20.454 31.01-31.011l-8.25-6.268c-7.92 8.577-12.87 13.526-14.85 15.505l-.99-.989c-.99-.66-.66-2.97.33-6.598.66-2.31 1.65-5.939 1.98-9.897.99-6.269.66-9.568-1.98-11.217-1.65-1.32-3.96-2.309-6.92-3.299.32 4.948-.99 13.856-3.3 27.052l-25.74 4.618zm-16.16-11.878c4.28-5.608 10.22-11.546 17.48-17.814s12.87-10.227 16.5-11.547l-6.93-4.948c-2.64 1.649-6.27 4.618-11.55 9.237-4.95 4.619-9.24 9.237-12.86 13.856l-.33-.33c1.32-2.309 2.96-6.928 4.94-13.196 2.31-6.268 3.96-10.887 4.95-13.856-.66-.99-3.3-2.639-5.61-2.639-9.56 4.618-18.47 9.237-26.72 13.856l-.33-.33c4.29-4.619 11.22-13.196 21.12-25.403l-7.59-5.278c-4.29 5.938-13.53 17.155-27.38 33.98l7.91 5.608c6.93-3.959 15.84-8.577 26.4-13.526l.33.33c-3.96 10.887-6.93 19.464-9.24 25.732zm-114.15-123.376c-12.2 16.825-20.78 28.701-26.06 35.299l9.24 5.278c1.65-2.969 5.27-7.587 10.22-14.185a59.747 59.747 0 0113.53 7.587c-4.29 6.268-7.92 10.887-10.56 13.856l9.57 5.279c7.59-11.547 16.16-23.093 26.06-35.3l-9.24-5.278c-2.96 4.289-6.59 9.567-11.87 16.165a59.75 59.75 0 01-13.53-7.588c1.65-2.309 5.61-7.587 12.21-16.165zm-25.73-2.641c-.66 1.649-1.65 2.969-2.97 4.289-2.64 1.979-5.28 3.299-8.25 4.288-2.97.99-5.28.99-6.93 0-1.65-.989-1.98-2.969-.33-5.938 1.98-3.959 5.28-6.928 10.23-8.907 2.31-.66 4.62-.33 6.6.66 2.31 1.319 2.97 3.299 1.65 5.608zm-11.55 32c.99-1.649 4.29-5.938 10.23-13.526 5.61-7.587 9.24-12.866 10.89-15.505 2.96-5.608 1.32-9.897-4.29-12.866-5.94-2.969-12.21-3.299-19.14-.99-6.92 2.31-11.87 6.598-14.84 12.207-2.64 4.948-.99 9.237 3.3 11.216 3.96 1.979 11.87 1.65 18.47-1.979l.33.33c-1.98 1.979-4.62 4.948-7.59 8.577s-4.95 6.268-5.94 7.918zm-46.51-53.116c-3.63 8.248-8.25 13.856-13.86 16.495-2.31.66-4.29.33-6.27-.66-3.96-1.649-4.29-5.608-.99-13.196 1.98-3.958 4.29-7.587 6.93-10.556s4.95-4.619 6.93-5.609c2.31-.659 4.29-.659 5.94.33 3.96 1.98 4.28 6.268 1.32 13.196zm-24.75 21.114c9.57 4.289 20.13.66 27.38-8.578 2.64.99 4.95 2.31 6.93 3.299-3.96 6.598-6.92 11.217-9.23 14.846l9.56 4.289c6.6-11.877 14.19-24.413 23.1-37.279l-9.24-4.289c-2.31 4.619-5.94 10.227-10.23 17.155-1.98-.66-4.29-1.649-6.93-2.969.99-1.65 1.65-2.969 1.98-3.629 4.95-10.557 2.31-18.474-5.61-22.103-5.93-2.639-12.2-2.639-18.14.66-6.27 3.299-11.22 9.237-15.17 17.814-4.62 9.237-2.97 16.825 5.6 20.784zm-33.32-39.584c-1.64 1.98-2.63 4.289-2.96 6.928l19.79 7.918c1.65-1.98 2.64-4.289 2.97-6.928zm-40.9 29.025c4.29 1.32 6.92.99 7.58-.989 1.65-4.949-.66-10.557-6.92-12.866-3.3-1.32-6.6-1.32-10.23-.33s-6.27 2.309-8.58 4.289c.33 1.319 1.65 3.299 2.97 3.628 4.29-2.969 8.91-3.958 11.88-2.969 3.63.99 4.62 3.959 3.3 9.237zm7.58-46.845c3.3-4.949 6.27-9.897 7.92-14.846l-8.91-3.299c-1.31 3.629-4.28 9.897-8.57 18.805-4.62 8.907-8.25 15.505-11.22 20.453l9.57 3.299c2.97-5.938 5.61-10.886 7.92-14.515s5.6-7.258 10.22-10.887c4.62-3.299 7.92-4.948 10.23-3.959 1.65.66 2.31 2.639.99 5.609-.99 2.309-3.3 7.257-7.59 15.175-4.29 7.588-6.93 12.206-7.59 14.186l9.57 3.299c.66-1.65 3.3-6.598 7.59-14.846 4.62-8.247 7.26-13.526 8.25-16.165 2.31-6.268.66-10.227-4.62-12.206-2.97-.99-6.6-.66-11.22 1.319-4.29 1.98-8.58 4.949-12.54 8.908zm-27.05-9.898c-2.97 8.577-7.92 14.845-12.53 17.485-1.98.659-4.29.659-6.6 0-3.96-1.32-4.95-4.949-2.31-12.866 2.97-8.578 7.92-15.506 11.55-17.485 2.3-.99 4.28-.99 6.26-.33 4.95 1.649 5.94 5.938 3.63 13.196zm-22.43 23.093c6.6 2.309 13.2.99 19.13-2.969 5.94-4.289 10.56-10.227 12.87-18.145 3.3-10.556-.99-17.814-9.24-20.453-6.6-1.98-12.53-1.32-18.47 2.639-5.61 3.959-10.23 10.227-12.87 19.134-3.3 9.567-.66 16.825 8.58 19.794zm-19.14-47.165c-1.31 2.969-2.96 6.598-4.94 10.227s-5.61 7.587-10.23 11.876c-4.62 3.959-8.25 5.938-10.23 5.278-2.31-.659-2.64-3.628-1.32-8.907 1.32-4.618 3.3-8.577 6.6-12.536 2.97-3.959 5.94-6.598 8.91-7.918 4.62-1.319 9.24.33 11.21 1.98zm-5.6 38.268c6.59-16.825 14.84-35.959 24.74-57.073-.99-.659-2.31-1.319-4.62-1.979s-3.63-.99-4.62-.66c-2.64 5.609-4.95 10.557-6.93 14.846-8.57-2.969-16.82-2.31-24.41 2.309s-13.19 11.876-15.83 22.433c-1.98 6.928.33 12.866 5.93 14.516 3.3.989 7.26 0 11.55-2.309 4.29-2.64 8.25-5.939 11.88-10.557h.33c-1.32 2.309-2.64 5.278-4.29 8.577-1.65 3.629-2.64 6.268-2.97 7.258zm-69.61-18.151c1.98-2.309 5.61-4.949 10.55-8.907 4.95-3.629 7.92-5.279 8.91-5.279l1.32.33c-1.32 3.629-3.63 9.237-6.93 16.825l10.23 2.309c4.29-12.866 9.57-26.392 15.51-40.907l-10.23-2.31c-3.96 10.887-6.27 17.815-7.26 20.124l-1.32-.33c-1.32-.329-1.65-2.309-2.31-5.938-.33-2.309-.99-6.268-1.98-9.897-1.65-5.938-3.3-8.907-6.6-9.567-2.3-.66-4.61-.66-7.58 0 2.31 4.289 4.95 12.866 7.91 26.062l-21.77 14.846zM1711 278.461c-.99 3.959-3.3 11.546-6.93 23.093l-9.56 27.711 7.58 1.32c3.3-3.629 9.24-5.608 13.53-4.948.99-1.32 1.32-2.97 1.32-4.289-2.64-1.32-5.94-1.32-9.24-.66l5.61-17.155c3.63-10.886 6.6-18.474 8.91-23.423zm-25.07 40.573c-2.97.33-7.59 0-13.86-1.32l-7.92-1.319v-.33l18.81-11.547c.99-1.319 1.32-2.969.99-4.288-9.24-.33-13.86-5.279-12.87-11.217.66-3.959 2.64-6.928 5.94-9.567 3.3-2.309 6.93-3.959 10.89-4.619 3.96-.659 7.25-.659 10.22 0 .99-.989 1.32-2.309 1.32-3.629-.33-1.649-1.32-2.639-2.97-2.639-5.6-.989-13.52.33-21.11 3.299-7.92 2.969-14.51 9.567-15.83 17.815-1.32 7.258 3.29 12.536 12.86 14.515l-18.8 10.557c-1.32 2.639-1.98 4.949-2.31 7.258l31.67 4.948zm-82.81-13.204l6.27-24.742 16.5 1.649zm-2.31 10.887l33.65-33.32c1.32-1.979 1.65-3.959 1.65-5.938l-23.75-2.639 3.63-14.846-10.23-.99-3.63 14.846-5.93-.66c-1.65 1.979-1.98 4.289-1.65 6.598l5.93.66-8.9 35.299zm-38.92-11.541c-7.92-.66-12.21.659-12.54 3.299-.33 1.649-.66 3.299-.33 4.948 1.98-.99 6.6-.99 13.86-.66l15.5.99 4.95-23.423c-11.22 0-17.16-4.619-16.5-12.206.33-3.629 1.98-6.598 4.62-9.567a32.853 32.853 0 019.57-5.938c3.63-.99 6.93-1.65 10.23-1.65 1.65-2.969.99-5.938-2.64-5.938-4.29-.33-15.18 1.979-23.1 7.258-5.27 3.629-9.89 9.567-10.22 16.495-.66 9.237 6.27 15.175 20.12 15.505l-2.31 10.887zm-39.26.661c-5.94-.33-8.58-4.619-8.58-13.526.33-6.268.99-11.547 2.64-16.825 1.65-4.949 3.3-8.248 4.62-9.237 1.65-1.32 3.96-1.98 6.27-1.98 6.26.33 9.23 6.598 8.9 14.846 0 3.959-.66 8.247-1.98 12.206a42.916 42.916 0 01-3.3 8.907c-.99 1.98-1.97 3.299-2.63 3.629-1.32 1.32-3.63 1.98-5.94 1.98zm-2.31 6.268c6.93.33 12.86-2.639 18.14-8.248 5.28-5.938 7.92-13.526 8.25-23.752.33-6.269-1.32-11.217-3.96-15.506-2.97-4.288-7.26-6.268-12.86-6.598-6.93-.33-12.87 2.64-17.82 8.908s-7.59 14.185-7.92 24.412c-.33 5.608.99 10.557 3.96 14.516 2.64 3.959 6.93 6.268 12.21 6.268zm-70.27-9.57c1.32-2.64 3.96-6.268 7.92-11.217 3.96-4.948 6.27-7.258 7.25-7.258h1.32c-.33 3.959-1.32 9.897-2.3 18.145l10.55-.33c.66-13.526 2.31-28.042 4.62-43.547l-10.56.33c-.99 11.547-1.32 18.804-1.65 21.443h-1.32c-1.31 0-2.3-1.979-3.62-5.278-.99-1.979-2.64-5.608-4.62-8.907-3.3-5.279-5.61-7.588-8.58-7.588-2.31 0-4.62.66-7.26 1.98 3.3 3.628 7.92 11.216 14.19 23.092l-17.16 19.794zm-20.12.992c0-6.928.66-15.176 2.31-24.743 1.65-9.237 3.62-15.835 5.6-19.464l-8.57.66c-.99 2.969-1.98 7.588-2.97 14.186-.99 6.928-1.32 13.196-1.32 19.134h-.66c-.66-2.639-1.98-7.258-4.62-13.526-2.31-6.268-3.96-10.887-4.95-13.856-.99-.33-4.29.33-5.94 1.32-4.62 9.567-8.57 18.804-12.2 27.711h-.33c.33-6.268.33-17.484.33-32.989l-8.25.659c.33 7.258.33 21.774.33 43.547l9.57-.66c2.97-7.587 6.92-16.495 11.87-27.381h.66c3.63 10.886 6.93 19.464 9.24 25.732zm-98.64-17.815c0 7.257-5.94 13.196-13.2 13.196s-13.2-5.939-13.2-13.196c0-7.258 5.94-13.196 13.2-13.196 7.26.33 13.2 5.938 13.2 13.196zm809.57 172.535c0 7.258-5.94 13.196-13.2 13.196-7.25 0-13.19-5.938-13.19-13.196s5.94-13.196 13.19-13.196c7.26.33 13.2 5.938 13.2 13.196zm464.17 541.043c0 7.26-5.94 13.2-13.2 13.2s-13.19-5.94-13.19-13.2c0-7.258 5.93-13.196 13.19-13.196s13.2 5.938 13.2 13.196zm95.34 563.13c0 7.26-5.94 13.19-13.2 13.19-7.25 0-13.19-5.93-13.19-13.19s5.94-13.2 13.19-13.2c7.59 0 13.2 5.94 13.2 13.2zm-224.99 618.9c0 7.25-5.94 13.19-13.2 13.19s-13.19-5.94-13.19-13.19c0-7.26 5.93-13.2 13.19-13.2 7.26.33 13.2 5.94 13.2 13.2zm-515.97 405.43c0 7.26-5.93 13.2-13.19 13.2s-13.2-5.94-13.2-13.2 5.94-13.2 13.2-13.2 13.19 5.94 13.19 13.2zm-556.54 84.47c0 7.26-5.93 13.2-13.19 13.2s-13.2-5.94-13.2-13.2c0-7.25 5.94-13.19 13.2-13.19 7.26.33 13.19 5.94 13.19 13.19zm-622.515-237.53c0 7.26-5.938 13.19-13.196 13.19s-13.196-5.93-13.196-13.19 5.938-13.2 13.196-13.2 13.196 5.94 13.196 13.2zm-400.498-538.4c0 7.26-5.938 13.2-13.196 13.2s-13.196-5.94-13.196-13.2 5.938-13.2 13.196-13.2 13.196 5.94 13.196 13.2zm-43.547-718.86c0 7.26-5.938 13.2-13.196 13.2s-13.196-5.94-13.196-13.2c0-7.25 5.938-13.19 13.196-13.19 7.588 0 13.196 5.94 13.196 13.19zm442.064-661.777c0 7.258-5.938 13.196-13.196 13.196-7.257 0-13.196-5.938-13.196-13.196s5.939-13.196 13.196-13.196c7.258 0 13.196 5.938 13.196 13.196z" fill="#e5533d"/></svg>