<svg fill="none" height="574" width="3000" xmlns="http://www.w3.org/2000/svg"><path d="M0 0h3000v574H0z" fill="#000"/><g fill="#d7e2d3"><path d="M1728.05 286c-145.52 0-55.31-49.38-3.91 2.137-51.4-51.398-2.14-141.611-2.14 3.917 0-145.528 49.26-55.315-2.14-3.917 51.4-51.398 141.61-2.137-3.91-2.137 145.52 0 55.31 49.38 3.91-2.137 51.4 51.398 2.14 141.611 2.14-3.917 0 145.528-49.26 55.315 2.14 3.917-51.4 51.398-141.61 2.137 3.91 2.137zm-467.39-13.318c2.82 3.434 7.05 7.934 10.81 11.961 4.35 4.381 7.75 2.368 6.11-3.671-1.06-3.79-2.23-7.698-3.53-11.487-3.4-10.422-7.52-21.435-13.75-31.501-2.93-4.737-6.11-9-9.75-12.079-4.94-4.145-8.93-5.329-11.28-1.895-1.88 2.842-1.53 7.461.12 13.145 1.99 6.75 5.52 13.264 9.4 19.54a185.643 185.643 0 0011.87 15.987z"/><path d="M1263.73 269.657c3.44 2.82 7.95 7.05 11.86 10.811 4.5 4.348 2.37 7.756-3.68 6.11-3.79-1.057-7.7-2.232-11.5-3.525-10.43-3.408-21.45-7.521-31.41-13.749-4.74-2.938-9.01-6.111-12.09-9.754-4.15-4.935-5.34-8.931-1.9-11.281 2.85-1.88 7.47-1.528 13.16.118 6.76 1.997 13.28 5.523 19.56 9.401 5.69 3.76 11.02 7.756 16 11.869z"/><path d="M1291.24 303.395c-3.44-2.829-7.94-7.072-11.86-10.844-4.5-4.36-2.25-7.778 3.68-6.128 3.79 1.06 7.59 2.239 11.5 3.418 10.44 3.418 21.47 7.661 31.43 13.789 4.75 2.947 9.02 6.129 12.1 9.783 4.15 4.95 5.34 8.957 1.9 11.314-2.85 1.886-7.48 1.532-13.17-.118-6.76-2.003-13.28-5.539-19.57-9.428-5.69-3.772-11.03-7.661-16.01-11.786z"/><path d="M1293.34 300.225c-2.82-3.44-7.05-7.948-10.81-11.863-4.35-4.39-7.75-2.373-6.11 3.677 1.06 3.797 2.23 7.712 3.53 11.508 3.4 10.441 7.52 21.474 13.75 31.44 2.93 4.745 6.11 9.016 9.75 12.101 4.94 4.152 8.93 5.338 11.28 1.898 1.88-2.847 1.53-7.474-.12-13.169-1.99-6.762-5.52-13.287-9.4-19.575-3.76-5.814-7.75-11.034-11.87-16.017z"/><path d="M1291.24 269.657c-3.44 2.82-7.94 7.05-11.86 10.811-4.5 4.348-2.25 7.756 3.68 6.11 3.79-1.057 7.59-2.232 11.5-3.525 10.44-3.408 21.47-7.521 31.43-13.749 4.75-2.938 9.02-6.111 12.1-9.754 4.15-4.935 5.34-8.931 1.9-11.281-2.85-1.88-7.48-1.528-13.17.118-6.76 1.997-13.28 5.523-19.57 9.401a187.522 187.522 0 00-16.01 11.869z"/><path d="M1293.34 272.682c-2.82 3.434-7.05 7.934-10.81 11.961-4.35 4.381-7.75 2.368-6.11-3.671 1.06-3.79 2.23-7.698 3.53-11.487 3.4-10.422 7.52-21.435 13.75-31.501 2.93-4.737 6.11-9 9.75-12.079 4.94-4.145 8.93-5.329 11.28-1.895 1.88 2.842 1.53 7.461-.12 13.145-1.99 6.75-5.52 13.264-9.4 19.54a185.643 185.643 0 01-11.87 15.987z"/><path d="M1260.66 300.225c2.82-3.44 7.05-7.948 10.81-11.863 4.35-4.39 7.75-2.373 6.11 3.677-1.06 3.797-2.23 7.712-3.53 11.508-3.4 10.441-7.52 21.474-13.75 31.44-2.93 4.745-6.11 9.016-9.75 12.101-4.94 4.152-8.93 5.338-11.28 1.898-1.88-2.847-1.53-7.474.12-13.169 1.99-6.762 5.52-13.287 9.4-19.575 3.76-5.814 7.75-11.034 11.87-16.017z"/><path d="M1263.73 303.395c3.44-2.829 7.95-7.072 11.86-10.844 4.5-4.36 2.37-7.778-3.68-6.128-3.79 1.06-7.7 2.239-11.5 3.418-10.43 3.418-21.45 7.661-31.41 13.789-4.74 2.947-9.01 6.129-12.09 9.783-4.15 4.95-5.34 8.957-1.9 11.314 2.85 1.886 7.47 1.532 13.16-.118 6.76-2.003 13.28-5.539 19.56-9.428 5.69-3.772 11.02-7.661 16-11.786zM1226 290c-12.24 0-22-2.068-22-4.5 0-2.554 9.88-4.5 22-4.5s22 2.068 22 4.5c.12 2.432-9.77 4.5-22 4.5zm56-55.501c0-12.513-2.07-22.499-4.5-22.499-2.55 0-4.5 10.107-4.5 22.499 0 12.393 2.07 22.5 4.5 22.5 2.43.12 4.5-9.986 4.5-22.5zM1274 338c0 12.235 2.07 22 4.5 22 2.55 0 4.5-9.882 4.5-22 0-12.235-2.07-21.999-4.5-21.999-2.43-.118-4.5 9.764-4.5 21.999zm55.5-56c12.51 0 22.5 2.068 22.5 4.5 0 2.554-10.11 4.5-22.5 4.5s-22.5-2.068-22.5-4.5 9.99-4.5 22.5-4.5zm129.5-6.086c5.72.235 12.39-1.647 19.42-.588 6.78.823 13.81 4.469 13.57 10.233.24 5.646-6.79 9.292-13.57 10.115-7.03 1.059-13.82-.823-19.42-.588-5.72-.235-12.39 1.647-19.42.588-6.78-.823-13.81-4.469-13.57-10.115-.24-5.646 6.79-9.41 13.57-10.233 7.03-1.059 13.7.823 19.42.588zm82.5 0c5.63.235 12.2-1.647 19.12-.588 6.69.823 13.61 4.469 13.37 10.233.24 5.646-6.68 9.292-13.37 10.115-6.92 1.059-13.61-.823-19.12-.588-5.63-.235-12.2 1.647-19.12.588-6.69-.823-13.61-4.469-13.37-10.115-.24-5.646 6.68-9.41 13.37-10.233 6.92-1.059 13.61.823 19.12.588z"/><path d="M1488.1 244.134c2.65 5.166 7.58 10.092 10.11 16.821 2.64 6.368 2.76 14.418-2.41 17.061-4.93 3.003-11.67-1.322-15.76-6.849-4.45-5.647-6.13-12.495-9.14-17.421-2.65-5.167-7.58-10.093-10.11-16.821-2.64-6.368-2.76-14.418 2.41-16.941 4.93-3.003 11.67 1.322 15.76 6.849 4.45 5.526 6.13 12.375 9.14 17.301zm8.24-15.634c.13 2.808-.6 6.201-.24 9.711.24 3.393 1.58 6.903 3.39 6.786 1.94.117 3.15-3.393 3.39-6.786.37-3.51-.24-6.903-.24-9.711-.12-2.925.61-6.201.24-9.711-.24-3.393-1.57-6.903-3.39-6.786-1.93-.117-3.15 3.393-3.39 6.786s.37 6.786.24 9.711zm0 116c.13 2.925-.6 6.201-.24 9.711.24 3.393 1.58 6.903 3.39 6.786 1.94.117 3.15-3.393 3.39-6.786.37-3.51-.24-6.903-.24-9.711-.12-2.808.61-6.201.24-9.711-.24-3.393-1.57-6.903-3.39-6.786-1.93-.117-3.15 3.393-3.39 6.786s.37 6.903.24 9.711zm-48.8-83.815c2.47 1.401 4.93 3.502 8.06 4.903 2.92 1.4 6.5 2.101 7.17.467 1.01-1.518-1.46-4.32-4.14-6.187-2.8-1.985-5.94-3.152-8.17-4.553-2.47-1.401-4.93-3.502-8.06-4.903-2.92-1.4-6.5-2.101-7.17-.467-1.01 1.518 1.46 4.32 4.14 6.187 2.69 1.985 5.82 3.035 8.17 4.553zm100.45 56.692c2.55 1.469 5.1 3.673 8.35 5.142 3.02 1.469 6.73 2.203 7.42.489 1.04-1.591-1.51-4.529-4.29-6.488-2.9-2.081-6.14-3.305-8.46-4.897-2.55-1.347-5.1-3.673-8.35-5.142-3.02-1.469-6.73-2.203-7.42-.489-1.04 1.591 1.51 4.529 4.29 6.488 2.9 2.204 6.14 3.305 8.46 4.897zm-.56-62.607c-2.54 1.543-5.8 2.73-8.82 4.867-2.9 2.018-5.44 4.866-4.35 6.41.84 1.661 4.59.949 7.73-.594 3.38-1.543 6.04-3.798 8.58-5.223 2.54-1.543 5.8-2.73 8.82-4.867 2.9-2.018 5.44-4.866 4.35-6.41-.84-1.661-4.59-.949-7.73.594-3.26 1.543-6.04 3.798-8.58 5.223zm-99 58c-2.54 1.543-5.8 2.73-8.82 4.867-2.9 2.018-5.44 4.866-4.35 6.41.84 1.661 4.59.949 7.73-.594 3.38-1.543 6.04-3.798 8.58-5.223 2.54-1.543 5.8-2.73 8.82-4.867 2.9-2.018 5.44-4.866 4.35-6.41-.84-1.661-4.59-.949-7.73.594-3.26 1.543-5.92 3.798-8.58 5.223zm79.96 3.434c2.58 5.156 7.4 10.072 9.86 16.787 2.58 6.355 2.7 14.389-2.35 17.027-4.81 2.997-11.38-1.319-15.37-6.835-4.34-5.636-5.99-12.47-8.92-17.387-2.58-5.156-7.4-10.072-9.86-16.787-2.58-6.355-2.7-14.389 2.35-17.027 4.81-2.997 11.38 1.319 15.37 6.835 4.23 5.636 5.87 12.47 8.92 17.387z"/><path d="M1528.86 254.894c-3.08 4.661-4.86 11.303-9.24 16.663-4.02 5.36-10.89 9.439-15.63 6.409-5.09-2.563-4.74-10.371-2.13-16.547 2.6-6.525 7.58-11.302 10.3-16.197 3.08-4.661 4.86-11.303 9.24-16.779 4.02-5.36 10.89-9.439 15.63-6.409 5.09 2.563 4.74 10.371 2.01 16.546-2.48 6.526-7.46 11.303-10.18 16.314zm-41.23 70.998c-3.16 4.831-4.98 11.716-9.48 17.393-4.26 5.556-11.19 9.784-16.05 6.643-5.23-2.657-4.87-10.75-2.19-17.151 2.67-6.764 7.78-11.717 10.46-16.79 3.16-4.831 4.98-11.716 9.48-17.272 4.14-5.556 11.19-9.784 16.05-6.643 5.23 2.657 4.87 10.75 2.19 17.151-2.67 6.644-7.78 11.475-10.46 16.669z"/></g></svg>