<svg fill="none" height="1968" width="3000" xmlns="http://www.w3.org/2000/svg"><path d="M0 0h3000v1968H0z" fill="#000"/><g fill="#db5342"><path d="M2127.65 308.307v34.446c0 2.625 0 4.921.33 7.546l132.69 51.833v40.679c-40.85-16.075-81.71-32.15-122.23-48.224 6.86 15.746 16.34 30.181 28.43 42.319 23.86 23.948 57.2 39.039 94.13 39.039v36.415c-46.74 0-88.9-19.028-119.62-49.865-4.58-4.593-9.15-9.514-13.08-14.763V514h-36.28v-65.94c-3.92 5.249-8.49 10.17-13.07 14.763-30.4 30.509-72.56 49.537-119.3 49.537v-36.415c36.61 0 69.62-14.762 93.48-38.711 12.09-12.138 21.9-26.573 28.43-42.647-40.85 16.074-81.71 32.149-122.56 48.224v-40.679l.33-.328 132.04-52.162c0-2.296.33-4.592.33-6.561v-34.774c-3.92 5.249-8.5 10.17-13.08 14.763-30.39 30.509-72.55 49.537-119.29 49.537V336.52c36.6 0 69.61-14.763 93.47-38.711s38.57-57.082 38.57-93.825V203h36.28c0 37.071 15.03 70.205 38.89 94.481 23.86 23.948 57.2 39.039 94.13 39.039v36.415c-46.73 0-88.9-19.028-119.62-49.865-4.9-4.593-9.15-9.514-13.4-14.763zM766.628 515.02c0-51.605 45.125-90.145 95.483-90.145 50.357 0 95.483 38.214 95.483 90.145h-36.297c0-31.681-28.775-53.564-58.859-53.564s-58.86 21.883-58.86 53.564zm149.11-246.919l-10.791-55.198 35.643-6.859 10.137 52.258c20.601-12.084 31.392-35.927 26.814-59.443L1013.18 192c10.14 50.298-23.213 99.29-73.571 109.089l-51.992 10.451c-52.974 8.819-92.868 44.746-115.43 91.779 25.178-17.638 56.243-28.089 89.924-28.089 40.875 0 78.152 15.677 105.293 40.826 27.468 25.476 44.476 60.75 44.476 99.944h-36.301c0-61.077-54.609-104.19-113.141-104.19-58.533 0-113.141 43.113-113.141 104.19H713c0-65.649 18.312-133.585 63.764-182.577l-56.57 11.105-6.867-35.601 87.962-17.31-10.791-55.851 35.643-6.859 10.791 55.851 23.217-4.572-10.791-55.198 35.643-6.859 10.791 55.198zM2127.37 1003.42c-52.11-38.095-121.26-38.42-173.37-4.229l.33 44.609c40.31-37.12 104.54-45.586 151.41-11.39 46.54 33.86 109.46 38.75 160.26 11.72v-42.99c-40.31 31.59-97.34 32.57-138.63 2.28zm0 64.15c-52.11-38.1-121.26-38.42-173.37-4.23v46.89l.33.33c39.65-42.01 104.54-48.2 151.41-13.68 46.54 33.87 109.46 38.75 160.26 11.72v-40.7c-40.31 29.63-97.66 27.03-138.63-.33zm-42.61-151.089l-38.67-45.263c-12.78 12.049-21.3 28.005-23.92 45.263zm89.48-45.588l-38.68 45.262h62.27c-2.29-17.258-10.81-32.888-23.59-45.262zm-97.01-19.212l32.77 38.424 32.77-38.424c-20.64-7.49-44.57-7.49-65.54 0zm-91.77 64.8C1991.36 853.634 2048.06 810 2110 810s118.64 43.96 124.54 106.481H2266v36.145h-312v-36.145zM783.475 1473.75c0-9.51-7.543-17.37-17.381-17.37-9.51 0-17.381 7.86-17.381 17.37 0 9.5 7.871 17.36 17.381 17.36 9.838 0 17.381-7.86 17.381-17.36zM891.695 1731H851.03c-24.595-55.38-78.377-90.45-139.046-90.45v-38.01c81.001 0 152.82 50.79 179.383 127.15zm-60.341 0h-44.928l-.328-.33c-18.693-22.28-45.256-34.41-74.114-34.41v-38.01c49.191 0 93.463 25.89 117.402 68.82.984 1.31 1.64 2.62 1.968 3.93zm-2.624-155.66c45.256-57.03 112.812-91.11 185.61-93.4l.66 38.01c-60.341 1.97-115.763 29.5-154.132 76.03 5.247 3.93 10.167 7.87 14.758 12.13 34.105-41.62 84.608-66.86 138.394-68.82l.65 37.68c-44.598 1.97-85.262 23.27-112.809 58.67 4.591 5.57 9.182 11.47 13.117 17.36 22.956-32.44 59.029-52.76 98.712-55.05l.65 38.01c-34.43 2.62-64.272 23.6-78.045 55.39 5.574 12.45 10.166 25.23 13.445 38.34-.984-37.36 26.235-69.15 63.62-73.08l.66 38.01c-17.713 3.94-26.567 18.03-26.567 35.72h-77.066c-27.219-87.82-107.564-146.81-199.387-146.81v-38.02c41.976.66 81.657 10.49 117.73 29.83zm-8.854-101.59c0 29.82-23.94 53.74-53.782 53.74-29.843 0-53.782-23.92-53.782-53.74 0-29.83 23.939-53.75 53.782-53.75 29.842 0 53.782 24.25 53.782 53.75zm-674.131-407.21v-2.59L84 1063.31l.33-35.87 62.406.64c.66-5.49 1.321-10.98 1.981-16.48L84 1010.96l.33-35.875 73.302.97C189 884.924 277.16 819 380.509 819H399v18.097c0 101.795-68.019 188.403-161.792 218.773l-.661 70.13-36.651-.32.661-61.08c-5.944.97-11.887 1.62-18.161 1.94l-.66 59.46-36.651-.32zm56.462-103.089c-10.235 20.683-16.839 42.979-19.15 66.249 24.103-2.26 47.216-8.73 68.018-18.74-20.802-10.35-37.971-27.15-48.868-47.509zm44.576-58.168a55.812 55.812 0 00-6.274 6.14c-4.292 4.201-8.585 8.725-12.547 13.573 4.623 31.669 30.708 56.876 63.066 60.43 7.264-6.14 14.198-12.603 20.802-19.712-30.377-9.049-54.481-31.67-65.047-60.431zm114.575-50.089c-29.386 2.908-57.783 11.957-82.877 26.822 4.623 27.791 28.066 49.443 56.792 51.705 14.199-23.59 23.114-50.089 26.085-78.527zm-21.792 35.224c0 8.402-6.934 15.511-15.849 15.511-8.585 0-15.849-6.786-15.849-15.511 0-8.402 6.934-15.512 15.849-15.512 8.915.324 15.849 7.11 15.849 15.512zm-98.571 532.202c-20.445 51.12-40.23 101.27-59.686 152.39-1.978 5.24-2.967 10.16-2.967 15.4 0 32.12 32.975 51.12 62.323 51.12s61.993-19 61.993-51.12c0-5.24-.989-10.16-2.967-15.4-19.126-51.12-38.911-101.59-58.696-152.39zm-69.908 33.76l-41.549 110.11c-3.957 10.16-5.606 20.32-5.606 30.15 0 60.62 60.345 98.31 116.733 98.31s116.732-37.69 116.732-98.31c0-9.83-1.648-19.99-5.605-30.15l-41.549-109.79h-16.488c13.85 35.07 27.37 70.46 40.56 105.86 3.627 9.5 5.276 19 5.276 28.18 0 52.43-49.463 87.83-98.926 87.83s-98.926-35.07-98.926-87.83c0-9.18 1.649-18.68 5.276-28.18 13.52-35.4 27.04-70.46 40.889-105.86h-16.817zm178.067 0l36.932 97c5.606 14.42 7.914 28.84 7.914 42.93 0 81.27-77.162 134.69-153.335 134.69C163.833 1731 87 1676.93 87 1596.31c0-14.09 2.638-28.51 7.914-42.93l36.933-97H88.649V1420H392.02v36.38zm1094.306 238h85.43V1731h-85.43zm2.61-51.14c-3.59-10.56-7.18-22.77-9.79-35.96-3.91-19.8-6.52-42.23-6.52-65.33 0-20.45 2.61-39.92 6.2-57.74 2.28-10.55 4.89-20.78 7.82-30.02-14.02 6.27-25.76 15.84-34.24 27.05-9.13 12.21-14.34 26.73-14.34 41.91 0 7.58 1.3 15.17 3.91 22.76l45 97.66h1.96zm82.5-189.38c2.93 9.24 5.86 19.8 8.15 30.68 3.58 17.82 6.19 37.29 6.19 57.74 0 23.43-2.61 45.53-6.52 65.33-2.61 13.19-5.87 25.07-9.78 35.96h1.63l45.98-97c2.93-7.92 4.24-15.51 4.24-23.42 0-15.18-5.22-29.7-14.35-41.91-8.81-11.54-21.2-21.11-35.54-27.38zm-41.09 189.38c5.22-11.55 9.78-26.07 13.04-43.22 3.59-17.16 5.55-36.95 5.55-58.07 0-17.82-1.96-34.97-5.22-50.48-3.59-17.81-8.81-33.65-14.02-46.52h-.98c-5.22 12.87-10.44 28.71-14.02 46.52a243.845 243.845 0 00-5.22 50.15c0 21.12 2.28 40.58 5.54 58.07 3.26 16.82 8.15 31.67 13.37 43.22h1.96zm-66.2 36.95l-54.78-119.43-.65-1.32c-4.57-12.21-6.85-24.75-6.85-36.62 0-23.1 7.83-45.21 21.85-64.01 13.69-18.15 32.93-32.66 55.76-41.57 15.32-5.94 32.28-9.24 49.89-9.24 17.93 0 34.57 3.3 49.89 9.24 22.83 8.91 42.07 23.42 55.76 41.57 14.02 18.48 21.85 40.58 21.85 64.01 0 11.87-2.28 24.41-6.85 36.62l-.65 1.32-56.41 119.43-.66-.33h-127.17v-.66zM182.482 349.75c0 12.229 9.479 22.144 21.9 22.144v36.688c-32.033 0-58.181-26.442-58.181-58.832zm71.256-55.197h-26.476c4.903 5.289 9.479 11.238 13.401 17.187 3.923-5.949 8.172-11.898 13.075-17.187zm-128.456-43.628v6.941h21.899v-6.941c0-6.28-4.903-11.238-10.786-11.238-6.211 0-11.113 4.958-11.113 11.238zm208.537 0v6.941h22.226v-6.941c0-6.28-4.903-11.238-11.113-11.238-6.537 0-11.113 4.958-11.113 11.238zM290.673 439.32c17.324-18.84 40.204-31.069 65.046-34.704V294.884h-17.651c-43.799 0-79.1 35.696-79.1 79.985-.327 25.45 11.44 49.247 31.705 64.451zm-81.715 31.399c1.307 2.644 2.288 5.619 3.269 8.263h54.585c.981-2.975 2.288-6.28 3.596-9.254-11.767-8.594-22.227-19.501-30.071-32.061-8.172 12.891-18.631 24.128-31.379 33.052zm-83.676-66.103c24.514 3.966 47.068 16.525 63.738 35.034 20.919-15.203 33.012-39.331 33.012-65.112 0-44.289-35.301-79.985-79.1-79.985h-17.65zm56.547 111.053c0-48.255-46.088-86.265-92.829-73.374v-191.37C89 224.484 110.246 203 136.395 203s47.395 21.484 47.395 47.925v6.941h113.42v-6.941c0-26.441 21.246-47.925 47.395-47.925S392 224.484 392 250.925v192.031c-46.741-14.543-94.79 24.127-94.79 73.044H181.829zm-56.547-63.459c-11.767-3.636-24.515-3.636-36.282-.33v63.459h36.282zm46.414 63.459v-6.94c-2.615-23.137-16.67-42.637-36.282-52.222V516h36.282zm173.89-59.493c-23.207 11.238-36.282 33.713-36.282 59.493h36.282zM392 452.21c-11.767-3.305-24.514-3.305-36.281.331V516H392zm-57.201-102.46c0 32.39-26.148 58.832-58.181 58.832v-36.688c12.094 0 21.9-9.915 21.9-22.144zM2043.29 1619.86h133.17c42.31 0 64.29-51.32 33.78-81.4-8.52-8.5-20.66-14.05-34.11-14.05-25.91 0-50.18-12.1-66.25-32.36-16.07 20.26-40.35 32.36-66.59 32.36-13.44 0-25.25 5.23-34.11 14.05-18.69 18.64-18.69 49.04 0 67.67 8.86 8.5 20.99 13.73 34.11 13.73zm133.17 36.28h-133.17l-.32 74.86h-36.41v-83.36c-8.53-4.25-16.07-9.8-22.96-16.34-32.8-32.69-32.8-85.97 0-118.66 15.42-15.36 36.41-24.84 59.69-24.84 13.45 0 25.26-5.23 34.12-14.06 8.85-8.83 14.1-20.59 14.1-34v-13.07h-17.71v-36.29h17.71V1376h36.41v14.38h18.69v36.29h-18.69v13.07c.32 25.17 22.63 48.06 48.54 48.06 23.29 0 44.28 9.48 59.69 24.84 33.13 33.01 33.13 85.97 0 118.66-5.9 5.88-12.79 11.11-20.33 15.04V1731h-36.41zM2057.73 1731v-16.67c0-29.42 23.94-53.28 53.46-53.28s53.13 23.86 53.13 53.28V1731h-36.4v-16.67c0-9.48-7.22-16.67-16.73-16.67s-16.73 7.52-16.73 16.67V1731zm158.09-165.41c0 24.85-19.68 45.77-44.94 45.77v-36.29c4.92 0 8.2-4.57 8.2-9.15h36.74zM1628 224v139.955h-36.27v-75.511l-94.11 96.667v127.913h-36.27v-90.483l-19.28 19.854v70.954h-36.27v-33.524L1372.47 514H1346v-27.015l.33-.325 30.06-30.92h-29.08v-36.128h64.04l18.3-18.878h-82.34v-36.128h117.63l101.3-104.153h-79.4V224h104.89zm-764 897.45l-6.202 4.55h-63.331L864 1074.6c23.178 17.24 46.355 34.48 69.859 51.4h-63.33zm-18.934-99.22v-27.972h-13.384l-1.306-.325-1.306-.325h-1.632l-.979-.326-.98-.325-.979-.325h-.326l-.98-.326-1.306-.325-1.305-.325h-.327l-.979-.325h-.327c-.653-.326-1.632-.326-2.285-.651l-.979-.325h-.326l-.98-.326h-.326l-.98-.325-1.305-.325h-.327l-.979-.325h-.327l-1.305-.326-1.306-.325-.98-.325h-.326l-.979-.326h-.327l-.979-.325-.979-.325h-.327l-.979-.325-.98-.326h-.652l-.98-.325-.979-.325-.653-.326-.653-.325-.979-.325c-.653-.325-1.306-.651-2.285-.651h-.327l-.653-.325h-.653l-.979-.325-.979-.326h-.327l-.653-.325h-.326l-.979-.325-.98-.325-.979-.326h-.327l-.979-.325h-.326l-.98-.325-.979-.326h-.326l-.98-.325h-.326l-.653-.325-.653-.325c-1.306-.651-2.285-.976-3.591-1.627l-.979-.325h-.653l-.653-.326-.979-.65-.98-.325-.326-.326-.98-.325-.979-.325-.979-.326h-.327l-.326-.325-.653-.325-.653-.325-.653-.326-.653-.325-.979-.651-.327-.325-.652-.325-.327-.325-.653-.326h-.326l-.326-.325-.327-.325-.326-.326-.327-.325-.326-.325-.327-.326-.653-.325-.326-.325-.327-.325-.326-.326-.327-.325-.326-.325-.653-.325-.326-.326-.327-.325-.326-.325-.327-.326-.326-.325-.979-.65v63.752h-39.827v-93.679l-.653-.651-.326-.325v-63.431l1.306 2.277c14.69 26.674 36.562 48.793 62.677 64.407l.98.651.326.325.653.325.326.325.98.326h.326l.98.65.979.651.326.325.98.326h.326l.979.325.327.325.979.651h.327l.979.325.327.325.652.325.327.326.653.325.326.325.979.651h.327l.979.325.327.325.653.326.326.325.979.325h.327l.979.651h.327l.653.325.652.326.653.325.327.325.979.325 1.306.326 1.306.325h.326l.98.325h.326l1.306.326 1.305.325h.327l.979.325h.327l.979.325h.327l.652.326h.327l.979.325.979.325h.327l.979.326h.327l3.917.975h.327l.652.326h.653c.653.325 1.633.325 2.285.65h.327l.979.325h.653l.98.326h.326l.979.325h.327l1.305.326h.327l.979.325h.327l.979.325h.327l.979.325h.326l.98.326h3.264l1.306.325 1.306.325h4.243v-17.24c-30.033-3.578-57.781-15.614-79.979-34.155-27.095-22.445-46.682-53.673-53.537-89.455v-.976h38.521v.651c6.529 25.372 21.545 47.492 41.785 63.106 15.343 11.71 33.297 19.842 53.21 22.77v-17.24c0-9.108-3.591-17.24-9.467-23.096-1.632-1.626-3.264-2.927-5.223-4.228v16.264h-36.235v-57.901h18.281c18.934 0 36.235 7.807 48.967 20.168 12.731 12.686 20.239 29.926 20.239 48.793v17.24c19.914-3.253 38.195-11.06 53.211-23.095 20.24-15.614 35.256-37.734 41.785-63.106V816h38.525v.976c-6.86 35.782-26.446 67.335-53.541 89.454-22.199 18.216-49.946 30.577-79.98 34.155v17.241h5.55l1.306-.325h4.244l.979-.326.979-.325h.327l.979-.325h.327l.979-.325h.326l.98-.326h.652l.98-.325h.653l.653-.326h.653l.652-.325h.327l.979-.325h.327l.979-.325h.326l.653-.326h.653l.98-.325h.326l.653-.325h.653l.979-.325h.327l.979-.326h.326l.653-.325.653-.325.653-.326.653-.325.979-.325.98-.325h.326l.98-.326h.326l.653-.325.653-.325.979-.326 1.306-.325h.326l.98-.325.652-.325.653-.326h.327c.653-.325 1.632-.65 2.285-.976l.979-.325.327-.325.979-.326.326-.325.653-.325.653-.325.98-.326h.326l.979-.325.98-.325.326-.326.653-.325.326-.325c.653-.325 1.306-.651 2.286-.976l.326-.325.653-.325.653-.326.653-.325h.326l.979-.326.327-.325.979-.65.98-.651.326-.325.98-.651.979-.65.326-.326.98-.65c26.115-15.289 47.987-37.408 62.678-63.757l1.31-2.277v63.106l-.33.326-.65.975v93.03h-36.24v-63.103l-.326.325-.327.326 3.591-2.278-.326.326-.327.325-.326.325-.327.326-.652.325h-.653l-.98.651-.979.65-.326.325-.327.326-.326.325-.327.325h-.326l-.653.326-.327.325-.326.325-.327.325-.326.326-.326.325-.327.325h-.326l-.653.325h-.327l-.979.651h-.326l-.327.325-.653.326-.326.325h-.327l-.653.325h-.653l-.652.326h-.653l-.653.325-.979.65-.98.326-.326.325-.653.325h-.653l-.653.326-.979.325c-.653.325-1.632.651-2.285.976l-1.959.976h-.653l-.653.325-.653.325-1.306.325-.979.326-.326.325h-.327l-.653.325h-.326l-.979.326-1.306.325-.98.325-.326.326-.653.325-.653.325-2.611 1.952-1.306.325h-.327l-.979.325h-.326l-.653.326h-.653l-.979.325h-.327l-.979.325h-.327l-.979.325h-.327l-.979.326h-.326l-.327.976-.979.325h-.327l-.979.325c-.653.326-1.632.326-2.285.651l-1.306.325-.979.325h-.327c-.652.326-1.305.326-2.285.651l-.979.325h-.326l-.98.326h-.326l-.98.325h-.326c-.653.325-1.632.325-2.285.65h-.327l-.979.326h-.326l-1.306.325-4.897.976c-.979 0-1.632.325-2.611.325l-.98.325-1.306.326-1.305.325-.98.325h-1.632l-1.306.326c-.979 0-1.632.325-2.611.325h-1.306c-2.285.325-4.244.325-6.529.651v27.646c46.682 34.48 93.037 68.96 139.719 103.44h-63.33L864 1055.74l-94.669 69.93H706c46.029-34.48 92.711-68.96 139.066-103.44zM2692.38 819h59.29l-114 87.668 53.4 45.613 19-52.083 34.4 12.293-23.92 65.023h.33V1126h-36.36V995.63H2581v-35.908h62.57L2581 906.345V858.79l19.66 16.822v-56.288h36.36v42.378zm95 306.68h-36.36V977.191h.32l31.45-26.527v-1.294l1.64-.324v-.323l-62.9-82.816 29.16-21.674 33.74 44.643V819h36.36v99.314l64.21-54.348v47.555l-36.03 30.732 36.03-4.206v36.232l-85.17 9.705-12.12 10.352v131.344zm32.81 453.38l-34.44 104.81 78.96-62.95-10.07-41.86zm-223.87-22.41l32.16-9.56-7.79-21.76 1.95-.65-1.3-1.32 13.64-15.16-34.44-.33zm44.19 25.04l-36.4 10.88 70.19 84.71zm32.17 147.66l-1.3.99-114.38-138.1 10.4-121.29 100.08.99 56.86-63.94 119.57 94.92-1.62 1.98 1.95.66-12.02 36.58 50.68-.33 22.1 92.95-119.57 95.58-.98-1.32v1.65l-111.77.33zm72.13-258.4l.65 45.82 35.42-17.47zm-35.42 50.76l-.65-42.19-31.52 35.27zm38.34 161.83l50.04-151.61-51.66 25.38zm-79.93-133.49l43.87 123.27-1.63-114.04zm12-1168.267c-2.26-9.892-3.88-20.113-4.53-30.334-1.29-15.826-.64-31.653 1.62-47.479h-12.27c-7.11.659-13.24 3.626-17.44 8.572-2.26 2.638-4.2 5.605-5.49 8.903-1.29 3.297-1.94 6.924-2.26 10.221 0 7.254 2.58 14.507 8.72 20.442zm33.58-77.813c-2.58 14.837-3.55 29.674-2.26 44.841 1.29 18.464 5.82 36.929 12.92 54.074 2.26 2.638 4.2 5.605 5.81 8.573 1.62-3.298 3.88-6.265 6.46-9.232 7.11-17.146 11.31-34.951 12.92-53.415 1.29-14.837.32-30.004-2.26-44.841zm34.24-49.788v12.859h52.64v.33c15.82 1.649 29.06 8.902 38.75 19.453 5.49 5.935 9.69 12.859 12.6 20.113.64 1.978 1.61 3.957 1.94 6.265a71.113 71.113 0 016.45-7.584c13.25-13.518 31.65-22.091 52-22.091v36.599c-10.66 0-20.02 4.286-26.81 11.21-6.78 6.924-10.98 16.486-10.98 27.367h-24.22c-3.23 6.924-7.75 13.518-13.88 19.123l-29.72 28.356v15.167h-35.84c-2.59.66-4.85 1.979-6.79 3.627-2.58 2.638-3.87 5.935-3.87 9.892h-12.27v11.87h28.42c0 8.572 3.23 16.156 8.72 21.761s12.91 8.902 20.99 8.902V514c-18.09 0-34.56-7.584-46.51-19.783-1.61-1.649-2.9-3.297-4.52-4.946h-50.38c-1.29 1.649-2.91 3.297-4.52 4.946-11.95 12.199-28.42 19.783-46.51 19.783v-35.939c8.4 0 15.83-3.297 21-8.903 5.49-5.605 8.72-13.188 8.72-21.761h28.42v-11.87h-11.31c0-3.956-1.61-7.254-3.87-9.891-1.94-1.979-4.2-3.298-6.79-3.627h-35.52v-15.167l-29.71-28.356c-6.14-5.935-10.66-12.2-13.89-19.124h-23.57c0-10.551-4.2-20.442-10.98-27.366-6.79-6.924-16.48-11.211-26.81-11.211v-36.598c20.35 0 38.75 8.572 52 22.091 2.26 2.308 4.19 4.616 6.13 6.924.65-1.979 1.29-3.627 1.94-5.606 2.91-7.253 7.1-14.177 12.59-20.112 9.69-10.551 22.93-18.135 39.08-19.454v-.329h51.35v-12.859h-27.77c-12.27 0-23.25-4.946-31.01-13.189-8.07-8.243-12.91-19.453-12.91-31.653h35.84c0 2.308.97 4.286 2.26 5.935 1.3 1.319 3.56 2.308 5.82 2.308h96.24c2.26 0 4.2-.989 5.81-2.308 1.29-1.319 2.26-3.627 2.26-5.935h35.85c0 12.529-4.84 23.74-12.92 31.653-8.07 8.243-19.05 13.189-31 13.189h-32.94zm32.61 127.601l31.33-30.004c6.14-5.935 8.72-13.189 8.72-20.443 0-3.627-.64-6.924-2.26-10.221-1.29-3.297-3.23-6.265-5.49-8.902-4.2-4.616-10.33-7.914-17.44-8.243h-12.27c2.26 15.826 2.91 31.653 1.94 47.479-.65 10.221-2.26 20.442-4.53 30.334zM1485.83 1162.3c1-1.3 2.32-2.6 3.65-3.9 11.6-11.4 27.5-18.24 45.07-18.24h84.83c18.22 0 33.47-14.65 33.47-32.88V812.628h-333.7v294.652c0 17.91 14.92 32.88 33.47 32.88h84.83c17.57 0 33.47 7.17 45.07 18.24.99 1.3 2.32 2.6 3.31 3.9zm-48.38 7.82h-84.83c-35.12 0-63.62-28.33-63.62-62.52V783h394v324.6c0 34.52-28.83 62.52-63.62 62.52h-84.83c-18.23 0-33.47 14.65-33.47 32.88h-30.49c0-18.23-14.91-32.88-33.14-32.88z"/><path d="M1438.7 1029c9.68-10.13 17.03-21.28 21.71-34.11 4.67-12.833 6.68-27.017 5.01-42.89l-20.04 2.026c1.33 12.496-.34 23.978-4.01 33.772-3.68 10.132-9.69 18.912-17.37 27.022z"/><path d="M1556.01 964.942c10.9 3.555 17.83 7.756 17.83 11.634s-6.27 8.403-16.84 12.604c-13.54 5.494-32.7 9.372-53.84 10.018-21.47.646-40.63-1.616-54.5-6.463-10.9-3.555-17.83-7.756-17.83-11.634s6.27-8.403 16.84-12.604c13.54-5.494 32.7-9.372 53.84-10.018 21.47-.646 40.63 1.939 54.5 6.463zm37.98 10.988c-.33-12.927-12.55-22.945-31.38-29.408-16.18-5.171-37.98-8.079-61.43-7.433s-45.25 5.171-60.78 11.634c-18.49 7.433-29.72 18.744-29.39 31.347.33 12.927 12.55 22.94 31.38 29.41 16.18 5.17 37.98 8.08 61.43 7.43 23.78-.65 45.25-5.17 60.78-11.63 18.49-7.759 29.72-18.747 29.39-31.35z"/><path d="M1572.13 976.038c4.63 2.994 10.91 1.33 13.89-3.327 2.98-4.658 1.33-10.979-3.31-13.973-11.58-7.319-19.52-21.624-23.49-37.925-2.97-12.642-3.64-26.281-1.65-38.258 1.98-11.644 6.28-21.624 12.9-28.277 4.63-4.658 10.92-7.652 18.53-7.985l-.66-20.293c-57.57 1.996-99.92 18.63-129.04 44.579-33.08 29.608-48.3 70.527-48.3 114.441 0 5.655 4.63 9.98 9.93 9.98 5.62 0 9.92-4.657 9.92-9.98-.33-38.258 12.9-73.855 41.36-99.138 18.53-16.301 43.34-28.61 75.43-34.931-4.96 8.317-8.27 17.964-9.92 28.61-2.65 14.971-1.66 31.272 1.98 46.575 4.97 20.626 16.21 39.589 32.43 49.902z"/><path d="M1546 905.856c-6.28-1.74-13.22-2.9-20.5-4.06-7.27-1.161-14.54-2.031-22.14-2.321-15.21-.87-30.09-.58-43.31 1.16-13.55 1.741-20.95 4.514-29.55 8.865l5.09 15.5c6.61-3.191 15.86-5.511 27.1-6.961 11.57-1.451 25.13-1.741 39.01-.871 6.94.581 13.89 1.161 20.17 2.031s12.56 2.32 18.18 3.771zm7-34.256c-6.1-2.874-13.23-5.388-20.35-7.544-7.46-2.155-14.58-4.31-22.04-5.747-5.77-1.078-11.87-2.156-17.64-2.874-5.76-.718-8.7 3.924-14.47 3.565l-3.5 16.552c5.09 0 10.17.359 15.6 1.077 5.43.719 10.85 1.437 16.28 2.515 7.12 1.437 13.9 3.233 20.01 5.029 6.44 2.155 12.54 4.311 18.31 6.825zm-57.37 183.4c6.68-12.95 10.55-27.22 11.25-41.17.7-14.938-1.76-29.546-6.68-41.83l-19.68 7.304c3.86 9.628 5.97 21.576 5.27 33.536-.7 11.28-3.52 22.9-8.79 33.2zm60.37-29.52c-2.86-17.59-7.32-33.263-14.32-47.017-7-14.073-16.54-26.228-29.91-36.463L1500 957.353c10.82 8.316 18.45 18.232 24.5 30.066 6.05 11.835 9.86 25.591 12.41 41.581zm-130.48 3.09l-.03 19 19 .03.03-19z"/><path d="M1406.58 1009.66l-.03 19 19 .03.03-19zm.04 37.83l-.03 19 19 .03.03-19z"/><path d="M1387.69 1028.6l-.04 19 19 .03.04-19zm12.24 31.17l-20.65 20.58 13.41 13.46 20.65-20.58zm-19.34-18.67l-20.66 20.58 13.42 13.46 20.65-20.58zm119.15 12.23l-18.26 5.26 5.26 18.26 18.26-5.26zm-23.32-13.11l-18.26 5.26 5.26 18.26 18.26-5.25zm10.58 36.62l-18.26 5.25 5.26 18.26 18.26-5.25zm-23.64-12.99l-18.26 5.26 5.26 18.26 18.26-5.26z"/><path d="M1465.39 1095.47l-14.11 25.52 16.63 9.19 14.11-25.51zm-23.53-12.55l-14.11 25.51 16.63 9.2 14.11-25.52zm117.78-57.62l-12.57 14.25 14.25 12.57 12.57-14.25zm-27.09 1.9l-12.57 14.25 14.25 12.57 12.57-14.25zm28.86 25.06l-12.57 14.25 14.25 12.57 12.57-14.25zm-27.13 1.76l-12.57 14.25 14.25 12.57 12.57-14.24z"/><path d="M1572.35 1078.34l-18.96 1.19 1.82 29.1 18.96-1.19zm-26.84 2.1l-18.96 1.18 1.82 29.1 18.96-1.18z"/><path clip-rule="evenodd" d="M1472.8 722h29.73v31h-29.73zm59.47 0H1562v31h-29.73zM1413 722h29.73v31H1413z" fill-rule="evenodd"/></g></svg>