<svg xmlns="http://www.w3.org/2000/svg" viewBox="0 0 394 606"><defs><style>.a{fill:#fff;}</style></defs><path class="a" d="M28.362,162.072l30.486-29.318c10.123-9.746,23.594-9.157,32.18-.9,6.657,6.367,8.941,13.794,5.2,22.2l.157.158c7.681-4.363,15.361-.315,21.467,4.794,3.82,3.223,10.319,9.707,15.755,10.69L121.16,181.643c-5.081-2-10.359-7.389-15.519-11.122-6.893-4.873-11.737-5.266-18,.786L75.194,183.254l22.1,21.261L84.884,216.462l-56.561-54.39h.039Zm38.01,12.615L80,161.6c5.553-5.305,6.184-10.493.512-16-5.672-5.463-10.871-4.637-16.425.707L50.459,159.36l15.912,15.327Zm15.6-64.176,42.263-40.676,10.517,10.1-29.895,28.65,12.092,11.633L144.36,93.965l9.65,9.275-27.3,26.37,13.825,13.323,30.407-29.4,10.517,10.1-42.972,41.225L81.969,110.471v.04Zm51.323-49.36,24.341-23.463c14.692-14.148,34.859-15.837,53.647,2.24,16.385,15.76,20.206,35.567,2.914,52.19L189.853,115.58,133.292,61.19v-.04Zm58.53,32.3L202.929,82.8c7.208-6.916,9.65-17.8-2.875-29.867-11.422-10.965-22.648-14.148-35.016-2.28l-8.862,8.528,35.646,34.27ZM113.676,214.261,126.438,202l77.752,34.033-12.919,12.5-16.819-8.1-21.23,20.436,8.153,16.348-12.6,12.105-35.095-75.1Zm33.441,34.584L161.808,234.7l-27.886-13.126-.158.157,13.313,27.078.04.039Zm5.278-71.8L178,152.522c14.1-13.559,28.517-10.218,37.694-1.376s12.6,22.715-1.418,36.352L201.236,200l20.284,19.492-12.446,11.947-56.6-54.39Zm39.112,13.637,9.689-9.275c5.751-5.581,9.65-11.751,2.442-18.667S190.01,159.6,184.22,165.1l-9.65,9.274,16.937,16.31Zm13.786-64.452,25.523-24.523c14.1-13.558,28.517-10.1,37.812-1.375s12.605,22.715-1.418,36.273l-13.076,12.576,20.284,19.493-12.446,11.947Zm39.072,13.637,9.65-9.274c5.79-5.542,9.65-11.751,2.442-18.668s-13.628-3.183-19.418,2.358l-9.65,9.275,16.937,16.309Zm49.944-99.192L336.612,0l10.516,10.1L317.312,38.75,329.365,50.5l27.413-26.252,9.65,9.275-27.3,26.252L353,73.137,383.483,43.78,394,53.88,350.988,95.066l-56.561-54.39h-.118Zm40.491,50.5-21.742,20.082-46.084-44.33L254.528,78.874l56.561,54.391,34.149-32.029L334.8,91.136v.04ZM45.1,353.3A146.358,146.358,0,0,0,2.957,429.112a142.589,142.589,0,0,0,8.784,85.516,149.289,149.289,0,0,0,56.718,66.417,159.052,159.052,0,0,0,171.062,0,149.5,149.5,0,0,0,56.718-66.417,142.6,142.6,0,0,0,8.744-85.516A146.344,146.344,0,0,0,262.838,353.3c-28.871-27.745-68.023-43.347-108.868-43.347s-80,15.6-108.868,43.347Z"/></svg>