<svg xmlns="http://www.w3.org/2000/svg" viewBox="0 0 696.784 745.71"><defs><style>.a{fill:#fff;}</style></defs><path class="a" d="M536.457,396.567c-140.684-46.517-371-45.184-371-124.781,0-52.356,81.893-94.791,182.92-94.791s182.948,42.435,182.948,94.791v79.143c99.269-33.392,165.458-93.175,165.458-161.348C696.784,84.869,540.794,0,348.378,0,155.991,0,0,84.869,0,189.581c0,66.983,64.035,125.49,160.328,159.591,188.05,66.557,371,47.395,371,124.781,0,52.327-81.921,94.762-182.948,94.762s-182.92-42.435-182.92-94.762V394.809C66.161,428.173,0,487.956,0,556.129,0,660.841,155.991,745.71,348.378,745.71c192.416,0,348.406-84.869,348.406-189.581C696.784,489.146,633.43,428.6,536.457,396.567Z"/></svg>