<svg fill="none" height="1239" viewBox="0 0 3000 1239" width="3000" xmlns="http://www.w3.org/2000/svg"><path d="m0 0h3000v1239h-3000z" fill="#e97724"/><g fill="#fff"><path d="m476.059 400.771c85.454-39.023 164.404-91.07 234.066-154.303l-92.226-91.468c-111.629 121.038-211.607 192.289-417.899 251.293v124.69c34.665-18.168 71.071-32.76 108.66-43.553 34.781-9.451 70.64-14.301 106.668-14.428 44.844.114 88.31 15.586 123.234 43.864 43.5 36.115 62.902 88.752 56.568 144.773-2.598 34.896-16.032 68.09-38.406 94.898l-11.827-2.272c9.502-21.793 14.808-45.199 15.637-68.979 3.853-84.611-49.879-161.562-159.47-155.862-119.159 5.967-196.501 108.48-183.921 214.465 11.561 97.57 98.649 169.222 200.843 170.914 138.783 4.72 230.345-75.972 265.34-168.642 31.318-83.364 23.211-180.176-35.128-249.379-43.677-52.637-106.402-83.274-172.139-96.011zm52.67 337.908c-9.347 52.726-64.497 86.882-123.147 76.372-58.649-10.509-98.605-61.81-89.214-114.491s64.142-84.611 123.146-76.417c60.156 8.328 98.606 61.811 89.215 114.536z"/><path d="m2740.08 730.486c1.85-8.904 2.76-17.979 2.7-27.075 0-122.819-94.08-211.126-209.66-211.126-115.57 0-209.7 85.145-209.7 211.126 0 116.362 80.13 211.036 221.09 211.036 84.56 0 137.32-36.738 178.87-95.031l-84.65-57.134c-12.36 20.231-30.34 36.384-51.72 46.466-21.38 10.083-45.22 13.654-68.6 10.273-23.37-3.381-45.25-13.565-62.94-29.298-17.69-15.732-30.41-36.324-36.59-59.237zm-204.83-149.85c25.67-.44 50.78 7.555 71.52 22.77s35.97 36.818 43.39 61.529h-229.82c7.42-24.707 22.66-46.306 43.4-61.52 20.73-15.214 45.84-23.211 71.51-22.779z"/><path d="m2814.64 914.491c31.68 0 57.36-25.819 57.36-57.669 0-31.849-25.68-57.669-57.36-57.669s-57.37 25.82-57.37 57.669c0 31.85 25.69 57.669 57.37 57.669z"/><path d="m1538.39 499.453-216.74 275.474v-275.474h-102.6v405.73h103.39l217.02-277.567v277.567h102.59v-405.73z"/><path d="m2338.71 499.453h-123.63l-111.41 149.85h-40.84v-149.85h-102.81v149.85h-40.89l-111.36-149.85h-123.64l145.52 185.965-144.94 219.765h123.63l109.42-174.654h42.26v174.654h102.81v-174.654h42.21l109.46 174.654h123.59l-144.89-219.765z"/><path d="m784.234 733.468c-14.618 52.949-57.32 81.627-101.617 81.627v96.144c101.618 4.097 157.609-38.742 189.636-99.128 39.114-73.744 27.11-181.066 4.917-231.565h176.44v324.548h101.88v-405.641h-396.15s49.346 145.397 24.894 234.015z"/></g></svg>