<svg fill="none" height="1244" viewBox="0 0 3000 1244" width="3000" xmlns="http://www.w3.org/2000/svg" xmlns:xlink="http://www.w3.org/1999/xlink"><clipPath id="a"><path d="m200 202h2539v778h-2539z"/></clipPath><path d="m0 0h3000v1244h-3000z" fill="#000"/><g clip-path="url(#a)" fill="#e97724"><path d="m261.843 544.281c-15.33-8.166-27.47-20.268-36.388-36.372-8.918-16.072-13.377-35.559-13.377-58.397v-35.787c0-23.099 4.459-42.814 13.377-59.178 8.918-16.332 20.863-28.629 35.802-36.925 14.94-8.296 31.734-12.428 50.319-12.428h37.332v-19.975h47.129v65.945h-78.798c-18.096 0-31.799 4.392-41.075 13.176-9.308 8.784-13.572 21.732-12.824 38.812v44.473c2.246-12.298 6.901-23.619 13.963-33.9 7.031-10.313 15.818-18.576 26.396-24.855 10.546-6.279 22.003-9.435 34.306-9.435 14.581 0 27.763 3.774 39.577 11.322 11.815 7.547 21.156 17.828 28.089 30.906 6.9 13.079 10.382 27.393 10.382 42.944 0 17.34-4.393 33.021-13.181 47.108s-21.059 25.051-36.746 32.956c-15.721 7.906-33.362 11.875-52.955 11.875-19.594 0-35.933-4.067-51.263-12.232zm86.512-45.026c9.438-8.524 14.125-19.357 14.125-32.403s-4.719-23.912-14.125-32.598c-9.407-8.687-21.189-13.014-35.249-13.014-14.061 0-25.876 4.327-35.445 13.014-9.569 8.653-14.321 19.519-14.321 32.598 0 13.078 4.785 23.879 14.321 32.403 9.537 8.556 21.352 12.818 35.445 12.818s25.81-4.262 35.249-12.818z"/><path d="m454.101 623.954c-11.066-5.271-20.049-13.501-26.949-24.693-6.9-11.191-10.35-25.181-10.35-42v-9.793h49.374v13.957c0 8.036 2.311 14.445 6.965 19.227 4.655 4.782 10.383 7.157 17.153 7.157s12.238-2.082 16.404-6.213c4.133-4.132 6.217-9.5 6.217-16.007v-2.635c0-6.019-1.628-12.298-4.915-18.837l-94.258-179.746h58.423l58.813 118.714c.489.748 1.009 2.245 1.498 4.522.26-1.496.748-3.026 1.497-4.522l45.989-118.714h54.29l-67.862 162.796c-1.757 4.262-2.962 8.036-3.58 11.289-.619 3.254-.944 7.548-.944 12.819v12.818c0 14.054-3.19 26.189-9.602 36.372-6.411 10.183-15.036 17.958-25.81 23.359-10.805 5.4-22.881 8.1-36.193 8.1s-25.126-2.635-36.192-7.905z"/><path d="m630.148 593.829v-88.165h22.621c2.766-13.826 4.784-28.304 6.021-43.529 1.237-15.193 1.888-33.607 1.888-55.209v-42.586h167.392v141.292h28.284v88.165h-50.514v-41.057h-125.536v41.057h-50.123zm146.269-85.92v-98.738h-66.722v12.818c-.261 33.411-2.897 62.041-7.909 85.92z"/><path d="m884.602 552.74v-188.4h51.653l.39 79.121h42.214c22.361 0 40.161 4.717 53.341 14.119 13.19 9.402 19.79 22.188 19.79 38.259 0 17.34-6.9 31.167-20.73 41.448-13.83 10.313-32.417 15.453-55.786 15.453h-90.84zm74.273-38.064c12.303 0 22.067-2.896 29.228-8.654 7.16-5.791 10.74-13.696 10.74-23.749s-3.58-17.145-10.74-22.806c-7.161-5.661-16.892-8.491-29.228-8.491h-22.23l.391 63.667h21.872z"/><path d="m1169.98 552.74h-52.4v-138.657h-71.24v-49.743h195.28v49.743h-71.64z"/><path d="m1297.8 544.086c-15.59-8.296-27.77-19.78-36.59-34.485-8.78-14.705-13.18-31.199-13.18-49.548s4.53-36.242 13.57-51.435c9.05-15.193 21.29-27.003 36.75-35.429s32.74-12.623 51.85-12.623c19.1 0 35.93 4.197 51.26 12.623s27.34 20.041 36 34.843c8.66 14.836 13.02 31.655 13.02 50.492v3.774h-150.8c1.01 13.566 6.29 24.855 15.85 33.9 9.54 9.044 21.13 13.566 34.7 13.566 8.79 0 16.7-1.757 23.76-5.271 7.03-3.513 11.95-8.165 14.71-13.956h56.18c-1.27 10.54-5.96 20.919-14.13 31.101-8.17 10.183-19.23 18.544-33.16 25.051-13.97 6.539-29.85 9.793-47.69 9.793-19.1 0-36.45-4.132-52.01-12.428zm88.04-123.236c-9.67-9.044-21.42-13.566-35.25-13.566s-25.52 4.522-35.06 13.566c-9.56 9.045-14.71 20.334-15.46 33.9h101.03c-.52-13.566-5.6-24.855-15.26-33.9z"/><path d="m200 941.935v-88.165h22.621c2.766-13.827 4.784-28.304 6.021-43.53 1.237-15.193 1.888-33.607 1.888-55.209v-42.586h167.392v141.292h28.283v88.165h-50.513v-41.057h-125.569v41.057h-50.123zm146.269-85.92v-98.739h-66.723v12.818c-.26 33.412-2.897 62.041-7.909 85.921z"/><path d="m454.453 976.225v-263.779h52.402v65.554c4.524-20.854 13.051-37.608 25.647-50.296 12.563-12.688 27.535-19.032 44.851-19.032 14.841 0 28.218 4.262 40.163 12.818s21.351 20.301 28.284 35.233c6.9 14.966 10.383 31.59 10.383 49.939s-3.45 34.973-10.383 49.939c-6.9 14.932-16.339 26.709-28.284 35.233-11.945 8.556-25.322 12.818-40.163 12.818-17.348 0-32.288-6.344-44.851-19.032s-21.123-29.442-25.647-50.296v140.934h-52.402zm134.194-134.329c9.308-9.435 13.962-21.147 13.962-35.234s-4.654-25.864-13.962-35.429c-9.309-9.532-20.863-14.314-34.696-14.314s-25.322 4.782-34.5 14.314c-9.179 9.565-13.768 21.342-13.768 35.429s4.589 25.799 13.768 35.234c9.178 9.434 20.667 14.119 34.5 14.119s25.387-4.717 34.696-14.119z"/><path d="m694.234 972.059c-11.066-5.27-20.049-13.501-26.949-24.692-6.9-11.192-10.351-25.181-10.351-42.001v-9.792h49.375v13.956c0 8.036 2.311 14.445 6.965 19.228 4.655 4.782 10.383 7.157 17.153 7.157s12.238-2.082 16.404-6.214c4.133-4.132 6.216-9.5 6.216-16.006v-2.636c0-6.018-1.627-12.297-4.914-18.836l-94.258-179.746h58.423l58.813 118.713c.488.749 1.009 2.245 1.497 4.522.261-1.496.749-3.025 1.498-4.522l45.989-118.713h54.289l-67.861 162.796c-1.758 4.262-2.962 8.036-3.58 11.289-.619 3.253-.944 7.548-.944 12.818v12.818c0 14.055-3.19 26.189-9.602 36.372s-15.037 17.959-25.81 23.359c-10.806 5.401-22.881 8.101-36.193 8.101s-25.126-2.635-36.193-7.906z"/><path d="m947.55 900.845h-52.402v-188.4h148.152v49.744h-95.75z"/><path d="m1202.75 900.845h-52.4v-188.4h52.4v90.443h15.82l61.84-90.443h55.43l-63.73 90.052 67.86 98.348h-61.06l-61.05-90.442h-15.07v90.442z"/><path d="m1420.27 941.935v-88.165h22.62c2.77-13.827 4.79-28.304 6.03-43.53 1.23-15.193 1.88-33.607 1.88-55.209v-42.586h167.39v141.292h28.29v88.165h-50.52v-41.057h-125.53v41.057h-50.12zm146.27-85.92v-98.739h-66.72v12.818c-.26 33.412-2.9 62.041-7.91 85.921z"/><path d="m1674.76 976.225v-263.779h52.4v65.554c4.52-20.854 13.05-37.608 25.65-50.296 12.56-12.688 27.53-19.032 44.85-19.032 14.84 0 28.22 4.262 40.16 12.818 11.95 8.556 21.35 20.301 28.28 35.233 6.9 14.966 10.39 31.59 10.39 49.939s-3.45 34.973-10.39 49.939c-6.9 14.932-16.33 26.709-28.28 35.233-11.94 8.556-25.32 12.818-40.16 12.818-17.35 0-32.29-6.344-44.85-19.032-12.57-12.688-21.13-29.442-25.65-50.296v140.934h-52.4zm134.19-134.329c9.31-9.435 13.96-21.147 13.96-35.234s-4.65-25.864-13.96-35.429c-9.31-9.532-20.86-14.314-34.69-14.314-13.84 0-25.33 4.782-34.5 14.314-9.18 9.565-13.77 21.342-13.77 35.429s4.59 25.799 13.77 35.234c9.17 9.434 20.66 14.119 34.5 14.119 13.83 0 25.38-4.717 34.69-14.119z"/><path d="m1914.51 972.059c-11.07-5.27-20.05-13.501-26.95-24.692-6.9-11.192-10.35-25.181-10.35-42.001v-9.792h49.37v13.956c0 8.036 2.31 14.445 6.97 19.228 4.65 4.782 10.38 7.157 17.15 7.157s12.24-2.082 16.4-6.214c4.14-4.132 6.22-9.5 6.22-16.006v-2.636c0-6.018-1.63-12.297-4.91-18.836l-94.26-179.746h58.42l58.81 118.713c.49.749 1.01 2.245 1.5 4.522.26-1.496.75-3.025 1.5-4.522l45.99-118.713h54.29l-67.86 162.796c-1.76 4.262-2.97 8.036-3.58 11.289-.62 3.253-.95 7.548-.95 12.818v12.818c0 14.055-3.19 26.189-9.6 36.372s-15.04 17.959-25.81 23.359c-10.81 5.401-22.88 8.101-36.19 8.101s-25.13-2.635-36.2-7.906z"/><path d="m2167.85 900.845h-52.4v-188.4h148.16v49.744h-95.76z"/><path d="m2301.66 972.059c-11.07-5.27-20.05-13.501-26.95-24.692-6.9-11.192-10.35-25.181-10.35-42.001v-9.792h49.37v13.956c0 8.036 2.31 14.445 6.97 19.228 4.65 4.782 10.38 7.157 17.15 7.157s12.24-2.082 16.4-6.214c4.14-4.132 6.22-9.5 6.22-16.006v-2.636c0-6.018-1.63-12.297-4.92-18.836l-94.25-179.746h58.42l58.81 118.713c.49.749 1.01 2.245 1.5 4.522.26-1.496.75-3.025 1.5-4.522l45.99-118.713h54.29l-67.87 162.796c-1.75 4.262-2.96 8.036-3.58 11.289-.61 3.253-.94 7.548-.94 12.818v12.818c0 14.055-3.19 26.189-9.6 36.372s-15.04 17.959-25.81 23.359c-10.81 5.401-22.88 8.101-36.19 8.101-13.32 0-25.13-2.635-36.2-7.906z"/><path d="m1678.21 316.972c40-18.251 76.94-42.586 109.56-72.191l-43.16-42.781c-52.24 56.608-99.04 89.954-195.58 117.543v58.332c16.21-8.491 33.26-15.323 50.84-20.366 16.27-4.425 33.07-6.702 49.93-6.734 20.99.065 41.33 7.287 57.67 20.528 20.34 16.885 29.43 41.512 26.46 67.734-1.2 16.332-7.51 31.85-17.96 44.376l-5.54-1.074c4.46-10.183 6.94-21.147 7.33-32.273 1.79-39.593-23.34-75.575-74.63-72.907-55.76 2.798-91.95 50.752-86.09 100.333 5.4 45.644 46.15 79.153 94 79.934 64.96 2.212 107.79-35.527 124.16-78.893 14.65-39.008 10.87-84.294-16.43-116.665-20.44-24.627-49.8-38.942-80.56-44.896zm24.64 158.08c-4.36 24.66-30.17 40.634-57.64 35.721-27.44-4.913-46.15-28.922-41.76-53.55 4.39-24.627 30.01-39.593 57.64-35.754 28.16 3.904 46.15 28.922 41.76 53.583z"/><path d="m2737.73 471.18c.88-4.164 1.31-8.426 1.27-12.655 0-57.454-44.03-98.771-98.13-98.771-54.09 0-98.13 39.821-98.13 98.771 0 54.428 37.5 98.706 103.47 98.706 39.58 0 64.25-17.178 83.71-44.441l-39.61-26.71c-5.79 9.468-14.19 17.015-24.21 21.733-9.99 4.717-21.16 6.376-32.09 4.815-10.94-1.595-21.19-6.344-29.46-13.697-8.27-7.352-14.22-16.982-17.12-27.718h150.3zm-95.85-70.109c12.01-.195 23.76 3.546 33.46 10.638 9.7 7.125 16.83 17.211 20.31 28.792h-107.54c3.49-11.549 10.61-21.667 20.31-28.792 9.7-7.124 21.45-10.866 33.46-10.67z"/><path d="m2175.37 363.137-101.45 128.864v-128.864h-48.01v189.799h48.4l101.55-129.841v129.841h48.01v-189.799z"/><path d="m2549.9 363.137h-57.87l-52.14 70.109h-19.11v-70.109h-48.1v70.109h-19.14l-52.11-70.109h-57.87l68.09 86.994-67.83 102.805h57.87l51.2-81.691h19.79v81.691h48.1v-81.691h19.76l51.23 81.691h57.84l-67.8-102.805z"/><path d="m1822.43 472.579c-6.84 24.757-26.82 38.194-47.55 38.194v44.961c47.55 1.919 73.75-18.121 88.75-46.36 18.29-34.486 12.7-84.684 2.31-108.336h82.58v151.8h47.68v-189.701h-185.39s23.11 68.027 11.65 109.474z"/></g></svg>