<svg id="Layer_1" data-name="Layer 1" xmlns="http://www.w3.org/2000/svg" viewBox="0 0 303 143"><defs><style>.cls-1{fill:none}.cls-3{fill-rule:evenodd;fill:#26a63f}</style></defs><path class="cls-1" d="M-.355-142.735h430.7V.122H-.355z"/><path d="M186.632 34.496h53.915a9.01 9.01 0 018.985 8.985c0 23.886.135 49.134.135 71.885h-12.175v-5.99h-47.537v5.99H177.78c0-22.816-.132-47.947-.132-71.885a9.01 9.01 0 018.984-8.985zm67.414 26.956h8.62v20.966h-8.62V61.452zm-89.265 0h8.621v20.966h-8.62V61.452zm24.847 29.952a5.99 5.99 0 11-5.99 5.99 5.991 5.991 0 015.99-5.99zm-2.996-48.432h53.915v10.004h-53.915V42.972zm0 18.48h53.915v23.962h-53.915V61.452zm50.92 29.952a5.99 5.99 0 11-5.99 5.99 5.991 5.991 0 015.99-5.99zm-41.878-64.989l12.707-12.708 6.354 6.354-12.707 12.707-6.354-6.353zm22.512 0l12.708-12.708 6.353 6.354-12.707 12.707-6.354-6.353z" fill="#199ed9" fill-rule="evenodd"/><path class="cls-3" d="M60.176 34.496h53.915a9.01 9.01 0 018.984 8.985c0 23.886.135 49.134.135 71.885h-12.174v-5.99H63.498v5.99H51.325c0-22.816-.134-47.947-.134-71.885a9.01 9.01 0 018.985-8.985zm67.414 26.956h8.62v20.966h-8.62V61.452zm-89.265 0h8.62v20.966h-8.62V61.452zM63.17 91.404a5.99 5.99 0 11-5.99 5.99 5.99 5.99 0 015.99-5.99zm-2.995-48.432h53.915v10.004H60.176V42.972zm0 18.48h53.915v23.962H60.176V61.452zm50.92 29.952a5.99 5.99 0 11-5.991 5.99 5.99 5.99 0 015.99-5.99z"/><path class="cls-3" d="M60.176 34.496h53.915a9.01 9.01 0 018.984 8.985c0 23.886.135 49.134.135 71.885h-12.174v-5.99H63.498v5.99H51.325c0-22.816-.134-47.947-.134-71.885a9.01 9.01 0 018.985-8.985zm67.414 26.956h8.62v20.966h-8.62V61.452zm-89.265 0h8.62v20.966h-8.62V61.452zM63.17 91.404a5.99 5.99 0 11-5.99 5.99 5.99 5.99 0 015.99-5.99zm-2.995-48.432h53.915v10.004H60.176V42.972zm0 18.48h53.915v23.962H60.176V61.452zm50.92 29.952a5.99 5.99 0 11-5.991 5.99 5.99 5.99 0 015.99-5.99z"/><path class="cls-1" d="M-.355.122h303.558v142.857H-.355zm0 142.858h303.558v142.857H-.355z"/></svg>