<svg id="Layer_1" data-name="Layer 1" xmlns="http://www.w3.org/2000/svg" viewBox="0 0 303 143"><defs><style>.cls-1{fill:#ef7f1a;}.cls-1,.cls-2{fill-rule:evenodd;}.cls-2{fill:#26a63f;}.cls-3{fill:none;}</style></defs><path class="cls-1" d="M186.76684,34.21049h53.91524a9.01063,9.01063,0,0,1,8.9844,8.98446V82.13278l-2.99563,14.97735c-.96877,4.845-4.04364,8.98433-8.98439,8.98433H189.76239c-4.94069,0-8.01562-4.13883-8.9849-8.98433l-2.995-14.97735V43.195a9.01021,9.01021,0,0,1,8.9844-8.98446Zm67.27989,26.9561h8.62015V82.13278h-8.62015V61.16659Zm-89.26533,0h8.62136V82.13278H164.7814V61.16659Zm46.42654,60.0104,12.70788-12.70788,6.35365,6.35309L217.5616,127.53l-6.35366-6.353Zm-22.51178,0,12.70731-12.70788,6.35359,6.35309L195.04975,127.53l-6.35359-6.353ZM189.763,13.2443h47.92286v8.47576H221.701L210.93888,32.48217l-6.353-6.35315,4.40846-4.409H189.763V13.2443Zm38.93726,74.87909a5.99027,5.99027,0,1,1-5.99,5.99055,5.99033,5.99033,0,0,1,5.99-5.99055Zm-29.9523,0a5.99027,5.99027,0,1,1-5.99054,5.99055,5.99071,5.99071,0,0,1,5.99054-5.99055ZM186.76684,42.94114h53.91524v9.74925H186.76684V42.94114Zm0,18.52512h53.91524V82.13278H186.76684V61.46626Z"/><path class="cls-2" d="M60.17568,34.21049h53.91524a9.01063,9.01063,0,0,1,8.9844,8.98446c0,23.88591.13509,49.13425.13509,71.88511H111.036v-5.99H63.49848v5.98941H51.32467c0-22.8155-.13339-47.94639-.13339-71.88454a9.01053,9.01053,0,0,1,8.9844-8.98446Zm67.41385,26.9561h8.62072V82.13278h-8.62072V61.16659Zm-89.26469,0h8.62072V82.13278H38.32484V61.16659Zm24.8464,29.95122a5.99058,5.99058,0,1,1-5.99055,5.99055,5.9907,5.9907,0,0,1,5.99055-5.99055Zm-2.995-48.43163h53.91467V52.69039H60.17625V42.68618Zm0,18.48041h53.91467V85.1284H60.17625V61.16659Zm50.919,29.95122a5.99058,5.99058,0,1,1-5.99061,5.99055,5.99073,5.99073,0,0,1,5.99061-5.99055Z"/><path class="cls-1" d="M186.76684,34.21049h53.91524a9.01063,9.01063,0,0,1,8.9844,8.98446V82.13278l-2.99563,14.97735c-.96877,4.845-4.04364,8.98433-8.98439,8.98433H189.76239c-4.94069,0-8.01562-4.13883-8.9849-8.98433l-2.995-14.97735V43.195a9.01021,9.01021,0,0,1,8.9844-8.98446Zm67.27989,26.9561h8.62015V82.13278h-8.62015V61.16659Zm-89.26533,0h8.62136V82.13278H164.7814V61.16659Zm46.42654,60.0104,12.70788-12.70788,6.35365,6.35309L217.5616,127.53l-6.35366-6.353Zm-22.51178,0,12.70731-12.70788,6.35359,6.35309L195.04975,127.53l-6.35359-6.353ZM189.763,13.2443h47.92286v8.47576H221.701L210.93888,32.48217l-6.353-6.35315,4.40846-4.409H189.763V13.2443Zm38.93726,74.87909a5.99027,5.99027,0,1,1-5.99,5.99055,5.99033,5.99033,0,0,1,5.99-5.99055Zm-29.9523,0a5.99027,5.99027,0,1,1-5.99054,5.99055,5.99071,5.99071,0,0,1,5.99054-5.99055ZM186.76684,42.94114h53.91524v9.74925H186.76684V42.94114Zm0,18.52512h53.91524V82.13278H186.76684V61.46626Z"/><rect class="cls-3" x="-0.35537" y="-0.1633" width="303.55769" height="142.85714"/><rect class="cls-3" x="-0.35537" y="142.69384" width="190.16483" height="142.85714"/></svg>