<svg id="Layer_1" data-name="Layer 1" xmlns="http://www.w3.org/2000/svg" viewBox="0 0 303 143"><defs><style>.cls-1{fill:#ef7f1a;fill-rule:evenodd}</style></defs><path class="cls-1" d="M186.767 34.21h53.915a9.01 9.01 0 018.984 8.985v38.938l-2.995 14.977c-.969 4.845-4.044 8.984-8.985 8.984h-47.924c-4.94 0-8.015-4.138-8.985-8.984l-2.995-14.977V43.195a9.01 9.01 0 018.985-8.984zm67.28 26.957h8.62v20.966h-8.62V61.167zm-89.266 0h8.622v20.966h-8.622V61.167zm46.427 60.01l12.708-12.708 6.353 6.353-12.707 12.708-6.354-6.353zm-22.512 0l12.707-12.708 6.354 6.353-12.707 12.708-6.354-6.353zm1.067-107.933h47.923v8.476H221.7l-10.762 10.762-6.353-6.353 4.408-4.409h-19.231v-8.476zm38.937 74.88a5.99 5.99 0 11-5.99 5.99 5.99 5.99 0 015.99-5.99zm-29.952 0a5.99 5.99 0 11-5.99 5.99 5.99 5.99 0 015.99-5.99zM186.767 42.94h53.915v9.75h-53.915v-9.75zm0 18.525h53.915v20.667h-53.915V61.466z"/><path d="M60.176 34.21h53.915a9.01 9.01 0 018.984 8.985c0 23.886.135 49.134.135 71.885h-12.174v-5.99H63.498v5.99H51.325c0-22.816-.134-47.947-.134-71.885a9.01 9.01 0 018.985-8.985zm67.414 26.957h8.62v20.966h-8.62V61.167zm-89.265 0h8.62v20.966h-8.62V61.167zm24.846 29.95a5.99 5.99 0 11-5.99 5.991 5.99 5.99 0 015.99-5.99zm-2.995-48.43h53.915V52.69H60.176V42.686zm0 18.48h53.915v23.961H60.176V61.167zm50.92 29.95a5.99 5.99 0 11-5.991 5.991 5.99 5.99 0 015.99-5.99z" fill="#26a63f" fill-rule="evenodd"/><path class="cls-1" d="M186.767 34.21h53.915a9.01 9.01 0 018.984 8.985v38.938l-2.995 14.977c-.969 4.845-4.044 8.984-8.985 8.984h-47.924c-4.94 0-8.015-4.138-8.985-8.984l-2.995-14.977V43.195a9.01 9.01 0 018.985-8.984zm67.28 26.957h8.62v20.966h-8.62V61.167zm-89.266 0h8.622v20.966h-8.622V61.167zm46.427 60.01l12.708-12.708 6.353 6.353-12.707 12.708-6.354-6.353zm-22.512 0l12.707-12.708 6.354 6.353-12.707 12.708-6.354-6.353zm1.067-107.933h47.923v8.476H221.7l-10.762 10.762-6.353-6.353 4.408-4.409h-19.231v-8.476zm38.937 74.88a5.99 5.99 0 11-5.99 5.99 5.99 5.99 0 015.99-5.99zm-29.952 0a5.99 5.99 0 11-5.99 5.99 5.99 5.99 0 015.99-5.99zM186.767 42.94h53.915v9.75h-53.915v-9.75zm0 18.525h53.915v20.667h-53.915V61.466z"/><path d="M-.355-.163h303.558v142.857H-.355zm0 142.857H189.81v142.857H-.355z" fill="none"/></svg>