<svg data-name="Layer 1" xmlns="http://www.w3.org/2000/svg" viewBox="0 0 430.7 142.857"><path d="M186.988 34.374h53.915a9.01 9.01 0 018.984 8.984c0 23.886.135 49.135.135 71.885h-12.174v-5.99H190.31v5.99h-12.174c0-22.816-.133-47.947-.133-71.885a9.01 9.01 0 018.985-8.984zM254.4 61.33h8.621v20.966h-8.62V61.33zm-89.264 0h8.62v20.966h-8.62V61.33zm24.846 29.951a5.99 5.99 0 11-5.99 5.99 5.991 5.991 0 015.99-5.99zm-2.995-48.432h53.915v10.005h-53.915V42.849zm0 18.48h53.915v23.963h-53.915V61.33zm50.92 29.952a5.99 5.99 0 11-5.991 5.99 5.991 5.991 0 015.99-5.99zM196.03 26.292l12.707-12.707 6.353 6.353-12.707 12.707-6.353-6.353zm22.511 0l12.708-12.707 6.354 6.353-12.708 12.707-6.354-6.353z" fill="#199ed9" fill-rule="evenodd"/><path d="M60.531 34.374h53.915a9.01 9.01 0 018.985 8.984c0 23.886.135 49.135.135 71.885H111.39v-5.99H63.854v5.99H51.68c0-22.816-.133-47.947-.133-71.885a9.01 9.01 0 018.984-8.984zm67.414 26.956h8.62v20.966h-8.62V61.33zm-89.265 0h8.62v20.966h-8.62V61.33zm24.847 29.95a5.99 5.99 0 11-5.99 5.99 5.99 5.99 0 015.99-5.99zm-2.995-48.43h53.914v10.005H60.532V42.849zm0 18.48h53.914v23.963H60.532V61.33zm50.919 29.952a5.99 5.99 0 11-5.99 5.99 5.99 5.99 0 015.99-5.99z" fill="#26a63f" fill-rule="evenodd"/><path d="M313.579 34.374h53.915a9.01 9.01 0 018.984 8.984v38.938l-2.995 14.977c-.97 4.845-4.044 8.985-8.985 8.985h-47.924c-4.94 0-8.015-4.14-8.985-8.985l-2.995-14.977V43.358a9.01 9.01 0 018.985-8.984zm67.28 26.956h8.62v20.966h-8.62V61.33zm-89.266 0h8.622v20.966h-8.622V61.33zm46.427 60.01l12.708-12.708 6.353 6.353-12.708 12.708-6.353-6.353zm-22.512 0l12.707-12.708 6.354 6.353-12.708 12.708-6.353-6.353zm1.067-107.932h47.923v8.475h-15.985L337.75 32.645l-6.353-6.353 4.408-4.409h-19.231v-8.475zm38.937 74.879a5.99 5.99 0 11-5.99 5.99 5.99 5.99 0 015.99-5.99zm-29.952 0a5.99 5.99 0 11-5.99 5.99 5.99 5.99 0 015.99-5.99zm-11.981-45.183h53.915v9.75h-53.915v-9.75zm0 18.526h53.915v20.666h-53.915V61.63z" fill="#ef7f1a" fill-rule="evenodd"/><path fill="none" d="M0 0h430.7v142.857H0z"/></svg>