<?xml version="1.0" encoding="utf-8"?>
<!-- Generator: Adobe Illustrator 25.0.1, SVG Export Plug-In . SVG Version: 6.00 Build 0)  -->
<svg version="1.1" id="Layer_1" xmlns="http://www.w3.org/2000/svg" xmlns:xlink="http://www.w3.org/1999/xlink" x="0px" y="0px"
	 viewBox="0 0 154.8 130.7" style="enable-background:new 0 0 154.8 130.7;" xml:space="preserve">
<style type="text/css">
	.st0{fill:#FFFFFF;}
</style>
<path class="st0" d="M95.9,99.7h4.2c3.8,0,6.9,1.1,6.9,5.1c0,3.8-3.1,5.1-6.9,5.1h-4.2V99.7z M100.2,118.3c9.8,0,17.8-3.6,17.8-13.4
	c0-10-7.8-13.6-17.8-13.6h-35v8.5h3l-4.7,11.2l-7-11.2h3.2v-8.5H38.9v8.5h4.8l13.9,20.5c-1.1,1.6-3.6,2.2-6.2,1.3l-0.2-4.7h-8.7
	v11.6c2.7,1.3,6.7,2.2,10,2.2c7.1,0,13.4-1.8,19.2-13.4l8.5-17.6h4.4v22.1h-4.5v8.3h20.5v-8.5h-4.7v-3.3H100.2z M113.3,54v-8.5H99.3
	L86.6,67.6V54h2.9v-8.5H72.1V54h3.1v22.1h-3.1v8.5h14.1l12.7-21.6v13.2h-2.9v8.5h17.4v-8.5H110V54H113.3z M137.4,54h2.9v6.7h-10.7
	V54h3.1v-8.5h-17.4V54h3.1v22.1h-3.1v8.5h17.4v-8.5h-3.1v-7.1h10.7v7.1h-2.9v8.5h17.4v-8.5h-3.3V54h3.3v-8.5h-17.4V54z M56.9,76.1
	h-5.4v-2.9h3.6c10,0,16.5-5.4,16.5-14.1c0-8.5-6.7-13.6-16.5-13.6H36.6v8.7h3.8v21.9h-3.8v8.5h20.3V76.1z M51.5,54h2
	c4.2,0,6.5,1.8,6.5,5.4s-2.2,5.4-6.5,5.4h-2V54z M120,91.3v8.7h4.2v21.9H120v8.3h20.7v-8.3h-5.4V100h10v4.2h8.5V91.3H120z
	 M21.9,105.4h-6.5v-5.7h10.3v3.3h9.1V91.3H0v8.5h4v21.9H0v8.5h21.9c8.9,0,16.3-3,16.3-12.3S31.2,105.4,21.9,105.4 M21.6,121.6h-6.2
	v-8.1h6.2c3.1,0,5.8,0.7,5.8,4.1S25,121.6,21.6,121.6 M119.8,30.3L108.2,0H86.3v8.5h2.9l-8.5,21.4c-7.6,0.4-11-2.5-12.1-8.5
	c4-2.2,8-7.1,8-12.9h4.7V0H62.8v8.5h3.3c0,4.2-3.1,6.7-8.3,6.7h-4V8.5h3.8V0H38v8.5h4.7v21.9H38v8.5h19.2v-8.5h-3.3v-6.7h4.5
	c1.8,6.2,5.4,11.2,10,13.2c4.9,2,6.7,2,20.1,2h7.7v-8.5h-3.6l0.9-2.9h12.9l0.9,2.9h-3.1v8.5h19.6v-8.5H119.8z M96.4,19l3.3-9.4
	l3.6,9.4H96.4z M34.8,25.9h-8.7v4.5H15.4v-6.9h10v-8.5h-10V8.5h10.7v4.5h8.7V0H0v8.5h4.2v21.9H0v8.5h34.8V25.9z M117.4,0v12.7h8.3
	V8.5h4.7v21.9h-4v8.5h19.6v-8.5h-4.2V8.5h4.7v4.2h8.5V0H117.4z M34.8,71.6h-8.7v4.5H15.4v-6.9h10v-8.5h-10V54h10.7v4.5h8.7V45.5H0
	V54h4.2v22.1H0v8.5h34.8V71.6z"/>
</svg>
