<svg xmlns="http://www.w3.org/2000/svg" viewBox="0 0 154.8 130.7"><path d="M95.9 99.7h4.2c3.8 0 6.9 1.1 6.9 5.1 0 3.8-3.1 5.1-6.9 5.1h-4.2V99.7zm4.3 18.6c9.8 0 17.8-3.6 17.8-13.4 0-10-7.8-13.6-17.8-13.6h-35v8.5h3L63.5 111l-7-11.2h3.2v-8.5H38.9v8.5h4.8l13.9 20.5c-1.1 1.6-3.6 2.2-6.2 1.3l-.2-4.7h-8.7v11.6c2.7 1.3 6.7 2.2 10 2.2 7.1 0 13.4-1.8 19.2-13.4l8.5-17.6h4.4v22.1h-4.5v8.3h20.5v-8.5h-4.7v-3.3h4.3zM113.3 54v-8.5h-14L86.6 67.6V54h2.9v-8.5H72.1V54h3.1v22.1h-3.1v8.5h14.1L98.9 63v13.2H96v8.5h17.4v-8.5H110V54h3.3zm24.1 0h2.9v6.7h-10.7V54h3.1v-8.5h-17.4V54h3.1v22.1h-3.1v8.5h17.4v-8.5h-3.1V69h10.7v7.1h-2.9v8.5h17.4v-8.5h-3.3V54h3.3v-8.5h-17.4V54zM56.9 76.1h-5.4v-2.9h3.6c10 0 16.5-5.4 16.5-14.1 0-8.5-6.7-13.6-16.5-13.6H36.6v8.7h3.8v21.9h-3.8v8.5h20.3v-8.5zM51.5 54h2c4.2 0 6.5 1.8 6.5 5.4s-2.2 5.4-6.5 5.4h-2V54zM120 91.3v8.7h4.2v21.9H120v8.3h20.7v-8.3h-5.4V100h10v4.2h8.5V91.3H120zm-98.1 14.1h-6.5v-5.7h10.3v3.3h9.1V91.3H0v8.5h4v21.9H0v8.5h21.9c8.9 0 16.3-3 16.3-12.3s-7-12.5-16.3-12.5m-.3 16.2h-6.2v-8.1h6.2c3.1 0 5.8.7 5.8 4.1s-2.4 4-5.8 4m98.2-91.3L108.2 0H86.3v8.5h2.9l-8.5 21.4c-7.6.4-11-2.5-12.1-8.5 4-2.2 8-7.1 8-12.9h4.7V0H62.8v8.5h3.3c0 4.2-3.1 6.7-8.3 6.7h-4V8.5h3.8V0H38v8.5h4.7v21.9H38v8.5h19.2v-8.5h-3.3v-6.7h4.5c1.8 6.2 5.4 11.2 10 13.2 4.9 2 6.7 2 20.1 2h7.7v-8.5h-3.6l.9-2.9h12.9l.9 2.9h-3.1v8.5h19.6v-8.5h-4zM96.4 19l3.3-9.4 3.6 9.4h-6.9zm-61.6 6.9h-8.7v4.5H15.4v-6.9h10V15h-10V8.5h10.7V13h8.7V0H0v8.5h4.2v21.9H0v8.5h34.8v-13zM117.4 0v12.7h8.3V8.5h4.7v21.9h-4v8.5H146v-8.5h-4.2V8.5h4.7v4.2h8.5V0h-37.6zM34.8 71.6h-8.7v4.5H15.4v-6.9h10v-8.5h-10V54h10.7v4.5h8.7v-13H0V54h4.2v22.1H0v8.5h34.8v-13z" fill="#fff"/></svg>