<svg xmlns="http://www.w3.org/2000/svg" viewBox="0 0 97.9 142.9"><path d="M22 34.4h53.9c5 0 9 4 9 9v38.9l-3 15c-1 4.8-4 9-9 9H25c-4.9 0-8-4.1-9-9l-3-15V43.4c0-5 4-9 9-9zm67.3 26.9h8.6v21h-8.6v-21zM0 61.3h8.6v21H0v-21zm46.4 60l12.7-12.7 6.4 6.4-12.7 12.7-6.4-6.4zm-22.5 0l12.7-12.7L43 115l-12.7 12.7-6.4-6.4zM25 13.4h47.9v8.5h-16L46.2 32.6l-6.4-6.4 4.4-4.4H25v-8.4zm38.9 74.9c3.3 0 6 2.7 6 6s-2.7 6-6 6-6-2.7-6-6 2.7-6 6-6zm-29.9 0c3.3 0 6 2.7 6 6s-2.7 6-6 6-6-2.7-6-6 2.7-6 6-6zM22 43.1h53.9v9.7H22v-9.7zm0 18.5h53.9v20.7H22V61.6z" fill-rule="evenodd" clip-rule="evenodd" fill="#ef7f1a"/><path fill="none" d="M0 0h97.9v142.9H0z"/></svg>