<svg xmlns="http://www.w3.org/2000/svg" viewBox="0 0 97.9 142.9"><path d="M21.9 34.4h53.9c5 0 9 4 9 9 0 23.9.1 49.1.1 71.9H72.7v-6H25.2v6H13c0-22.8-.1-47.9-.1-71.9 0-5 4-9 9-9zm67.4 26.9h8.6v21h-8.6v-21zM0 61.3h8.6v21H0v-21zm24.8 30c3.3 0 6 2.7 6 6s-2.7 6-6 6-6-2.7-6-6c.1-3.3 2.7-6 6-6zm-2.9-48.5h53.9v10H21.9v-10zm0 18.5h53.9v24H21.9v-24zm50.9 30c3.3 0 6 2.7 6 6s-2.7 6-6 6-6-2.7-6-6 2.7-6 6-6zm-41.9-65l12.7-12.7L50 20 37.2 32.6l-6.3-6.3zm22.5 0l12.7-12.7 6.4 6.4-12.7 12.6-6.4-6.3z" fill-rule="evenodd" clip-rule="evenodd" fill="#199ed9"/><path fill="none" d="M0 0h97.9v142.9H0z"/></svg>