<svg data-name="Layer 1" xmlns="http://www.w3.org/2000/svg" viewBox="0 0 303 143"><path d="M60.176 34.353h53.915a9.01 9.01 0 018.984 8.985c0 23.886.136 49.134.136 71.885h-12.175v-5.99H63.499v5.99H51.324c0-22.816-.133-47.947-.133-71.885a9.01 9.01 0 018.985-8.985zM127.59 61.31h8.62v20.967h-8.62V61.309zm-89.265 0h8.62v20.967h-8.62V61.309zM63.17 91.261a5.99 5.99 0 11-5.99 5.99 5.991 5.991 0 015.99-5.99zm-2.995-48.432h53.915v10.004H60.176V42.83zm0 18.48h53.915v23.962H60.176V61.31zm50.92 29.952a5.99 5.99 0 11-5.991 5.99 5.991 5.991 0 015.99-5.99zM69.218 26.272l12.707-12.708 6.354 6.354L75.57 32.625l-6.353-6.353zm22.512 0l12.707-12.708 6.354 6.354-12.708 12.707-6.353-6.353z" fill="#199ed9" fill-rule="evenodd"/><path d="M186.767 34.353h53.915a9.01 9.01 0 018.984 8.985v38.938l-2.995 14.977c-.969 4.845-4.044 8.984-8.985 8.984h-47.924c-4.94 0-8.015-4.138-8.985-8.984l-2.995-14.977V43.338a9.01 9.01 0 018.985-8.985zm67.28 26.956h8.62v20.967h-8.62V61.309zm-89.266 0h8.622v20.967h-8.622V61.309zm46.427 60.01l12.708-12.707 6.353 6.353-12.707 12.708-6.354-6.353zm-22.512 0l12.707-12.707 6.354 6.353-12.707 12.708-6.354-6.353zm1.067-107.932h47.923v8.476H221.7l-10.762 10.762-6.353-6.353 4.408-4.41h-19.231v-8.475zm38.937 74.88a5.99 5.99 0 11-5.99 5.99 5.99 5.99 0 015.99-5.99zm-29.952 0a5.99 5.99 0 11-5.99 5.99 5.99 5.99 0 015.99-5.99zm-11.981-45.183h53.915v9.75h-53.915v-9.75zm0 18.525h53.915v20.667h-53.915V61.609z" fill="#ef7f1a" fill-rule="evenodd"/><path d="M-.355-.02h303.558v142.857H-.355zm0 142.857h303.558v142.857H-.355z" fill="none"/></svg>