<svg xmlns="http://www.w3.org/2000/svg" width="363.515" height="162.095" viewBox="0 0 363.515 162.095">
  <defs>
    <style>
      .a, .e {
        fill: #a2acb0;
      }

      .a, .b, .c, .d, .f, .g, .j {
        fill-rule: evenodd;
      }

      .b, .h {
        fill: #fefefe;
      }

      .c {
        fill: #7f8b8f;
      }

      .d {
        fill: #dc000a;
      }

      .f {
        fill: #bac3c7;
      }

      .g {
        fill: #ff502d;
      }

      .i, .j {
        fill: #d5dee2;
      }
    </style>
  </defs>
  <path d="M220.323,158.686V141.77a3.409,3.409,0,0,1-2.929-3.375V131.6a3.408,3.408,0,0,1,3.408-3.408h5.04v-45.9s.459-1.7.546-1.837L251.474,41.34V20.86a3.408,3.408,0,0,1-3.323-3.407V3.408A3.408,3.408,0,0,1,251.559,0H313.27a3.408,3.408,0,0,1,3.408,3.408V17.453a3.409,3.409,0,0,1-3.217,3.4V40.864L354.7,79.655a3.4,3.4,0,0,1,1.251,2.638v45.9h4.151a3.408,3.408,0,0,1,3.409,3.408V138.4a3.409,3.409,0,0,1-2.93,3.375v16.916a3.408,3.408,0,0,1-3.408,3.409H223.732a3.409,3.409,0,0,1-3.409-3.409"/>
  <path class="a" d="M325.01,158.686h3.381a11.85,11.85,0,0,1,23.7,0h5.086V140.1H325.01Z"/>
  <path class="b" d="M323.306,140.086v18.6H306.542a11.882,11.882,0,0,0-11.85-11.85H252.345a11.882,11.882,0,0,0-11.85,11.85H223.732v-18.6Z"/>
  <path class="b" d="M254.882,42.326V19.157h37.273V42.326l25.632,39.967v47.619H299.636V88.947A26.226,26.226,0,0,0,281.443,64.1l.175-1.275a1.7,1.7,0,0,0-1.166-1.936,22.877,22.877,0,0,0-13.867,0,1.7,1.7,0,0,0-1.178,1.85l.187,1.361A26.226,26.226,0,0,0,247.4,88.947v40.965H229.25V82.293Z"/>
  <path class="b" d="M280.355,71.981l.855-6.2a24.507,24.507,0,0,1,16.721,23.163v40.965h-5.944V89.13a18.531,18.531,0,0,0-11.632-17.149m-31.249,57.931V88.947a24.507,24.507,0,0,1,16.721-23.163l.855,6.2A18.531,18.531,0,0,0,255.05,89.13v13.05A3.913,3.913,0,0,0,253.6,103.3a4.068,4.068,0,0,0-.86,2.1,1.7,1.7,0,0,0,2.308,1.853v1.639a5.309,5.309,0,0,0-4.415,2.888,8.665,8.665,0,0,0-.955,4.384,13.486,13.486,0,0,0,1.148,4.978,16.6,16.6,0,0,0,4.222,5.771v3Z"/>
  <path class="a" d="M274.72,85.818c-.084.372-.155.75-.21,1.132.116.131.238.265.367.4l.144.156c-.113-.556-.224-1.124-.3-1.692m13.858,6.03V89.13a14.932,14.932,0,0,0-2.117-7.683,15.259,15.259,0,0,0-5-5.092,15.27,15.27,0,0,0-3.71,3.263,4.142,4.142,0,0,1,.693-.122c1.293-.119,2.794.4,2.535,1.992a1.7,1.7,0,0,1-.939,1.258c-.414.538,2.143,2.267,2.724,3.275a1.7,1.7,0,0,1,2.852-1.333c1.938,1.808,2.87,3.594,2.6,5.942-.219,1.9-1.3,4.044-3.371,6.819.262-.218.519-.417.776-.617A6.276,6.276,0,0,0,288.578,91.848Zm-22.5,6.735c-.523.343-1.049.593-.712,1.388a.379.379,0,0,0,.112.171c.394.22.8.417,1.193.633A11.859,11.859,0,0,0,266.076,98.583Zm-9.321,3.2V89.13a16.812,16.812,0,0,1,16.764-16.763h0a16.633,16.633,0,0,1,6.069,1.143,18.626,18.626,0,0,0-7.212,8.518,16.162,16.162,0,0,0-.124-3.476c-.364-2.243-1.449-4.24-4.357-3.819a1.7,1.7,0,0,0-.664,3.178c.56.314-.6,3.146-.783,3.9a9.431,9.431,0,0,0,.619,7.2,6.849,6.849,0,0,0-1.443-.269,6.173,6.173,0,0,0-5.913,3.116,1.7,1.7,0,0,0,1.629,2.567,3.5,3.5,0,0,1,2.872,1.118A5.979,5.979,0,0,0,260.958,97a5.753,5.753,0,0,0-1.789,3.563,7.858,7.858,0,0,0-.035,1.7,5.242,5.242,0,0,0-1.621-.451l-.057-.007A5.136,5.136,0,0,0,256.755,101.788Zm0,11.935v-1.771a10.2,10.2,0,0,0,2.181,2.6A14.769,14.769,0,0,1,256.755,113.723Zm0,16.189v-1.658a19.606,19.606,0,0,0,2.883,1.658Z"/>
  <path class="c" d="M273.134,85.129a16.887,16.887,0,0,1,8.331-10.746,16.807,16.807,0,0,1,8.817,14.747v1.1a1.626,1.626,0,0,0-1.7,1.539,6.284,6.284,0,0,1-2.96,5.059c-.257.2-.514.4-.776.617,2.073-2.775,3.152-4.92,3.371-6.819.27-2.348-.662-4.134-2.6-5.942a1.7,1.7,0,0,0-2.852,1.333c-.581-1.008-3.138-2.737-2.724-3.275a1.7,1.7,0,0,0,.939-1.258c.259-1.6-1.242-2.111-2.535-1.992a3.875,3.875,0,0,0-2.643,1.363c-1.663,1.927-1.247,4.381-.784,6.651l-.144-.156a13.48,13.48,0,0,1-1.743-2.225"/>
  <path class="d" d="M265.045,129.912c-15.408-3.206-16.533-19.286-9.592-19.339-2.3,1.21-1.026,4.38,1.347,5.039,3.882,1.078,6.326,2.935,3.9,5.8,5.306-.636,4.229-5.426,2.174-6.32-4.217-1.832-5.483-4.8-5.572-7.181-.077-2.064-1.339-3.228-2.879-2.239.24-2.451,3.121-2.687,4.62-1.479,2.106,1.7,1.811,4.492,5.813,4.415-4.764-2.825-6.112-11.2.291-11.446a2.589,2.589,0,0,0-.5,4.464c1.427.8,3.559,1.509,3.284,4.029,1.911-3.838-.841-13.535-6.761-12.922,2.047-3.6,7.072-2.646,8.458.474.807-4.6-3.026-4.853-1.527-11,.4-1.649,2.02-4.627-.035-5.779,2.863-.466,2.667,3.678,2.6,5.194-.313,7.068,6.451,6.924,5.365,13.184,2.815-1.311.607-6.439.289-9.908-.193-2.108.9-4.021,2.988-3.682-.644.317-2.265,1.975.307,3.862,2.26,1.657,2.942,3.915,1.258,6.058,1.906.714,4.781-1.473,3.594-5.2,3.049,2.851,2.957,5.442-1.5,11.176-4.585,6.416.957,9,3.245,7.329-2.911-.907-2.105-4.07-.6-5.406,1.856-1.648,4.27-2.59,4.668-7.11v37.993Z"/>
  <path class="c" d="M252.345,148.541h42.347a10.175,10.175,0,0,1,10.145,10.146H242.2a10.175,10.175,0,0,1,10.145-10.146m87.9,10.146H330.1a10.146,10.146,0,1,1,20.291,0Z"/>
  <rect class="e" x="293.859" y="19.157" width="16.194" height="22.032"/>
  <path class="f" d="M352.547,82.293H319.491v47.619h8.549a1.561,1.561,0,0,1,.217-.014h24.29Z"/>
  <path class="g" d="M285,120.842c-3.742-.978-4.756,3.108-2.528,4.973,1.829,1.531,2.714,2.919,2.348,4.1H269.34c1.07-2.283.87-6.068-4.841-5.126,3.3-4.532,6.6.425,9.9-2.949-7.067.7-7.51-6.922-3.9-10.386-.6,4.6,3.865,7.725,9.23,7.146-4.635-2.207-5.453-4.621-4.852-6.974.661-2.59.57-5.827-2.854-4.358,2.942-3.939,10.69-.044,9.419,5.441,3.14.478,5.592-2.029,2.718-4.567,4.468-.382,5.735,5.023,5.657,7.669V125.4c-.547-2.267-2.21-2.136-3.871-1.885-1.773.269-2.933-1.571-.956-2.668"/>
  <path class="b" d="M267.091,62.512a21.116,21.116,0,0,1,12.855,0l-1.227,8.9a18.405,18.405,0,0,0-10.4,0Z"/>
  <path class="c" d="M319.491,87.078h33.056v3.513H319.491Zm0,4.784h33.056v3.2H319.491Zm0,4.785h33.056v2.9H319.491Zm0,4.785h33.056v2.588H319.491Zm0,4.784h33.056v2.28H319.491Zm0,4.785h33.056v1.971H319.491Zm0,4.784h33.056v1.663H319.491Zm0,4.785h33.056v1.355H319.491Zm0,4.785h33.056V126.4H319.491ZM293.859,39.048h16.194v.5H293.859Zm0-2.253h16.194v.653H293.859Zm0-2.253h16.194v.8H293.859Zm0-2.253h16.194v.951H293.859Zm0-2.253h16.194v1.1H293.859Zm0-2.252h16.194v1.247H293.859Zm0-2.254h16.194v1.4H293.859Zm0-2.253h16.194v1.546H293.859Zm0-2.253h16.194v1.694H293.859Zm0-2.252h16.194v1.842H293.859Zm25.632,63.521h33.056v3.822H319.491Z"/>
  <rect class="e" x="328.257" y="131.602" width="31.849" height="6.793"/>
  <rect class="h" x="220.802" y="131.602" width="105.747" height="6.793"/>
  <rect class="i" x="297.183" y="3.408" width="16.087" height="14.044"/>
  <rect class="h" x="251.559" y="3.409" width="43.919" height="14.044"/>
  <polygon class="j" points="310.656 42.894 350.734 80.589 328.141 80.589 319.491 80.589 319.468 80.589 318.714 80.589 294.539 42.894 310.656 42.894"/>
  <path d="M75.976,87.323H97.788V79.29c-1.755.265-4.487.374-6.133-1.18a6.937,6.937,0,0,1-8.49,0,7.226,7.226,0,0,1-7.189.738Zm38.163,0V74.5h-2.577V87.323Zm-71.673,0V74.5H38.018c-5.429,0-8.846-5.028-10.2-9.742L20.575,64.7a5.251,5.251,0,0,1-4.553-2.61,8.845,8.845,0,0,1-1.236-4.571V40.905H6.394c-8.525,0-8.526-12.95,0-12.95H22.265c4.355,0,6.24,3.691,6.255,7.583l.054,14.29c1.646-3.928,4.86-7.584,9.444-7.584h4.448V32.5a3.409,3.409,0,0,1,3.409-3.409H72.567A3.409,3.409,0,0,1,75.976,32.5v5.261c2.053-.719,5.517-.41,6.956.876a7.7,7.7,0,0,1,8.723,0,7.337,7.337,0,0,1,8.491,0c3.794-2.677,9.8-1.587,11.109,3.606h2.884V32.5a3.408,3.408,0,0,1,3.408-3.409H144.24a3.409,3.409,0,0,1,3.409,3.409v9.743h3.7c5.4,0,8.8,4.972,10.176,9.655h6.826a6.488,6.488,0,0,1,6.475,6.475V75.843h8.3a6.475,6.475,0,0,1,0,12.95l-16.656-.145c-4.031-.032-5.431-3.711-5.453-7.167l-.1-14.87c-1.612,4.048-4.862,7.893-9.571,7.893h-3.7V87.323h11.569a3.409,3.409,0,0,1,3.408,3.409V147.8H166.6a3.408,3.408,0,0,1,3.408,3.408v7.477A3.408,3.408,0,0,1,166.6,162.1H27.174a3.409,3.409,0,0,1-3.409-3.409v-7.477a3.256,3.256,0,0,1,3.7-3.408,10.589,10.589,0,0,1,1.894-12.382v-.028a10.613,10.613,0,0,1,.007-14.963c.013-.037-.182-.224-.219-.268a10.611,10.611,0,0,1,.212-14.737c.026-.025-.18-.223-.212-.261a10.59,10.59,0,0,1,7.7-17.839Z"/>
  <path class="b" d="M134.061,120.729a7.177,7.177,0,1,1-7.177,7.177,7.177,7.177,0,0,1,7.177-7.177m0-.644a7.177,7.177,0,1,0-7.177-7.177A7.177,7.177,0,0,0,134.061,120.085Zm0-29.353a7.177,7.177,0,1,1-7.177,7.177A7.177,7.177,0,0,1,134.061,90.732Zm-97.22,29.353a7.177,7.177,0,1,0-7.178-7.177A7.177,7.177,0,0,0,36.841,120.085Zm0,.644a7.177,7.177,0,1,1-7.178,7.177A7.177,7.177,0,0,1,36.841,120.729Zm0,29.353a7.178,7.178,0,1,0-7.178-7.177A7.177,7.177,0,0,0,36.841,150.082Zm25.34-.568h53.662V136.295H62.181c-3.951,0-7.154,2.645-7.154,6.609S58.23,149.514,62.181,149.514Zm0-28.217h53.662v13.218H62.181c-3.951,0-7.154-2.645-7.154-6.609S58.23,121.3,62.181,121.3Zm0-30.565h53.662v13.786H62.181c-3.951,0-7.154-2.645-7.154-6.609A7.165,7.165,0,0,1,62.181,90.732Zm0,28.785h53.662V106.3H62.181c-3.951,0-7.154,2.645-7.154,6.609S58.23,119.517,62.181,119.517ZM36.841,90.732a7.177,7.177,0,1,1-7.178,7.177A7.177,7.177,0,0,1,36.841,90.732ZM117.547,32.5h7.641V151.209H166.6v7.478H27.174v-7.478h18.7V32.5h7.64V151.209h64.032ZM87.354,40.789h0a3.488,3.488,0,0,0-3.478,3.478V72.481a3.488,3.488,0,0,0,3.478,3.478h0a3.488,3.488,0,0,0,3.478-3.478V44.267A3.488,3.488,0,0,0,87.354,40.789Zm8.66,0h0a3.488,3.488,0,0,1,3.477,3.478V72.481a3.488,3.488,0,0,1-3.477,3.478h0a3.488,3.488,0,0,1-3.478-3.478V44.267A3.488,3.488,0,0,1,96.014,40.789Zm8.661,0h0a3.488,3.488,0,0,0-3.478,3.478V89.022h6.956V44.267A3.488,3.488,0,0,0,104.675,40.789Zm-25.982,0h0a3.488,3.488,0,0,1,3.477,3.478V72.481a3.488,3.488,0,0,1-3.477,3.478h0a3.488,3.488,0,0,1-3.478-3.478V44.267A3.488,3.488,0,0,1,78.693,40.789Zm55.368,109.293a7.178,7.178,0,1,0-7.177-7.177A7.177,7.177,0,0,0,134.061,150.082Zm35.558-69.309H183.33a.687.687,0,0,1,.685.685h0a.687.687,0,0,1-.685.685H169.619a.687.687,0,0,1-.685-.685h0A.687.687,0,0,1,169.619,80.773ZM156.142,56.758h12.583a.687.687,0,0,1,.685.685h0a.687.687,0,0,1-.685.685H156.142a.687.687,0,0,1-.685-.685h0A.687.687,0,0,1,156.142,56.758ZM6.515,32.93H22.543a.687.687,0,0,1,.685.685h0a.687.687,0,0,1-.685.685H6.515a.687.687,0,0,1-.685-.685h0A.687.687,0,0,1,6.515,32.93Z"/>
  <path class="f" d="M126.892,107.664v-4.511a8.941,8.941,0,0,0,2.409,2.256,8.921,8.921,0,0,0-2.409,2.255m0,15v-4.51a8.937,8.937,0,0,0,2.409,2.255A8.937,8.937,0,0,0,126.892,122.662Zm0,15v-4.517A8.978,8.978,0,0,0,129.3,135.4,8.945,8.945,0,0,0,126.892,137.661Zm1.227,11.844h-1.227v-1.356A8.967,8.967,0,0,0,128.119,149.505Zm-71.513,0H55.22v-1.432A4.882,4.882,0,0,0,56.606,149.505Zm-1.386-11.88v-4.439a8.415,8.415,0,0,0,3,2.219A8.418,8.418,0,0,0,55.22,137.625Zm0-15v-4.438a8.432,8.432,0,0,0,3,2.219A8.42,8.42,0,0,0,55.22,122.626Zm0-15v-4.439a8.415,8.415,0,0,0,3,2.219A8.418,8.418,0,0,0,55.22,107.628Zm0-75.127H72.567V43.948H66.606c-6.718,0-9.374,8.962-9.374,14.426S59.888,72.8,66.606,72.8h5.961V89.022H62.181a8.827,8.827,0,0,0-6.268,2.61,9.025,9.025,0,0,0-.693.782ZM44.549,108.493a8.928,8.928,0,0,0-2.948-3.084,8.972,8.972,0,0,0,2.948-3.093Zm0,15.007a9.921,9.921,0,0,0-2.948-3.093,8.954,8.954,0,0,0,2.948-3.093Zm0,14.99a8.931,8.931,0,0,0-2.948-3.085,8.919,8.919,0,0,0,2.948-3.084Zm-1.766,11.015a12.826,12.826,0,0,0,1.766-2.194v2.194Zm-.711-58.773h2.477V93.5A8.917,8.917,0,0,0,42.072,90.732ZM126.892,32.5H144.24V43.948h-5.961c-6.718,0-9.375,8.962-9.375,14.426S131.561,72.8,138.279,72.8h5.961V89.027H134.061a7.757,7.757,0,0,0-7.169,3.638Zm32.326,102.048V121.255H139.946a6.476,6.476,0,0,1,.491.475,8.871,8.871,0,0,1-.1,12.456q-.187.188-.385.363Zm0-15v-13.3H139.945c.136.12.268.245.4.373a8.871,8.871,0,0,1,.1,12.456,6.612,6.612,0,0,1-.481.466Zm0-15V90.732H139.293a8.969,8.969,0,0,1,1.048.9,8.872,8.872,0,0,1,0,12.557l0,0c-.124.125-.252.245-.383.362Zm0,31.7v13.26H139.994q.177-.161.347-.329l.1-.1a8.871,8.871,0,0,0-.1-12.456c-.127-.128-.259-.252-.394-.371Zm-7.871-90.6c3.219,0,5.975,3.288,7.112,7.95h-4.527c-6.268,0-6.278,9.542,0,9.542h4.527c-1.138,4.662-3.893,7.95-7.112,7.95-4.236,0-7.67-5.695-7.67-12.721S147.111,45.653,151.347,45.653Z"/>
  <path class="i" d="M6.394,37.5c-4.034,0-4.034-6.132,0-6.132H22.265c2.171,0,2.852,2.045,2.86,4.174l.075,19.77h3.652a22.615,22.615,0,0,0-.009,6.067l-8.564-.066C18.6,61.3,18.2,59.21,18.2,57.523V37.5Zm131.885,8.157c-4.236,0-7.67,5.7-7.67,12.721s3.434,12.721,7.67,12.721h8.583c-3.53-2.91-4.89-8.353-4.89-12.721s1.36-9.812,4.89-12.721ZM109.857,71.1h5.986V45.653h-5.986ZM66.606,45.653c-4.236,0-7.67,5.7-7.67,12.721S62.37,71.1,66.606,71.1h6.905V45.653Zm-28.588,0c-10.067,0-10.067,25.442,0,25.442H44.17V45.653ZM153.932,61.44a3.066,3.066,0,1,1,0-6.132h14.417a3.068,3.068,0,0,1,3.066,3.066V79.252h11.709a3.066,3.066,0,0,1,0,6.132l-16.63-.131c-1.682-.014-2.073-2.1-2.084-3.786l-.131-20.027Z"/>
  <path class="a" d="M139.958,104.551c.131-.117.259-.237.383-.362l0,0a8.969,8.969,0,0,0,1.32-1.682h17.56v2.047Zm19.26-2.763H142.049A8.816,8.816,0,0,0,142.7,100h16.523ZM139.956,119.55c.132-.117.26-.237.385-.362l.1-.1a8.983,8.983,0,0,0,1.221-1.582h17.56v2.048Zm19.262-2.763H142.049a8.824,8.824,0,0,0,.646-1.793h16.523Zm0-3.3H142.924c.012-.192.019-.386.019-.581,0-.142,0-.282-.01-.422h16.285Zm-19.263,21.06q.2-.176.386-.363a8.9,8.9,0,0,0,1.322-1.686h17.555v2.049Zm19.263-2.764H142.053a8.757,8.757,0,0,0,.643-1.793h16.522Zm0-3.3H142.924c.012-.192.019-.386.019-.581,0-.141,0-.282-.01-.422h16.285Zm-19.224,21.027q.177-.161.347-.329l.1-.1a8.983,8.983,0,0,0,1.221-1.582h17.56v2.015Zm19.224-2.73H142.049a8.885,8.885,0,0,0,.646-1.793h16.523Zm0-3.3H142.924c.012-.192.019-.386.019-.581,0-.141,0-.282-.01-.422h16.285Zm0-44.995H142.924c.012-.192.019-.386.019-.582,0-.141,0-.282-.01-.421h16.285Z"/>
  <path class="j" d="M56.913,147.5a7.473,7.473,0,0,0,5.268,2.015h53.662V147.5Zm-.63-.715h59.56v-1.793H55.366A6.407,6.407,0,0,0,56.283,146.784Zm-1.233-18.3q-.023-.286-.023-.582c0-.142,0-.283.013-.421h60.8v1Zm1.234,3.3a6.159,6.159,0,0,1-.934-1.793h60.493v1.793Zm5.9,2.729a7.474,7.474,0,0,1-5.268-2.014h58.93v2.014ZM55.05,98.491c-.015-.191-.023-.384-.023-.582,0-.141,0-.282.012-.421h60.8v1Zm1.234,3.3A6.117,6.117,0,0,1,55.35,100h60.493v1.792Zm5.9,2.73a7.474,7.474,0,0,1-5.268-2.014h58.93v2.014ZM56.913,117.5a7.473,7.473,0,0,0,5.268,2.015h53.662V117.5ZM55.35,115a6.153,6.153,0,0,0,.934,1.792h59.559V115Zm-.31-2.509c-.009.139-.013.28-.013.422q0,.3.023.581h60.793v-1Zm60.8,31H55.05c-.015-.192-.023-.385-.023-.582,0-.141,0-.281.013-.421h60.8Z"/>
  <path class="f" d="M33.238,68.513a5.885,5.885,0,0,0,4.78,2.582H44.17V68.513Zm-1.4-2.508a12.218,12.218,0,0,0,.909,1.792H44.17V66.005ZM115.843,67.8V66.005h-5.986V67.8Zm0,3.3V68.513h-5.986V71.1ZM61.974,68.513A6.022,6.022,0,0,0,66.606,71.1h6.905V68.513Zm-1.5-2.508a12.663,12.663,0,0,0,.984,1.792H73.511V66.005Zm49.388-1.5h5.986v-1h-5.986Zm-49.974,0H73.511v-1H59.584Q59.719,64.01,59.883,64.5Zm73.764,4.013a6.022,6.022,0,0,0,4.632,2.582h8.583a10.82,10.82,0,0,1-2.241-2.582Zm-1.506-2.508a12.768,12.768,0,0,0,.985,1.792H144.2a15.661,15.661,0,0,1-.838-1.792Zm-.586-1.5h11.289q-.147-.5-.268-1h-11.32Q131.393,64.01,131.555,64.5Zm-100.513-1q.121.511.267,1H44.17v-1Z"/>
  <path class="i" d="M82.171,69.929v1.45a6.967,6.967,0,0,1-3.545.875,7.238,7.238,0,0,1-3.411-.939V69.877a5.884,5.884,0,0,0,3.443,1.246,5.352,5.352,0,0,0,3.507-1.2Zm0-2.138v1.351a8.257,8.257,0,0,1-6.956-.022V67.772a6.661,6.661,0,0,0,3.385.994A6.548,6.548,0,0,0,82.171,67.791Zm0-2.119V66.93a10.415,10.415,0,0,1-3.648.611,9.845,9.845,0,0,1-3.308-.607V65.669a8.156,8.156,0,0,0,3.324.74A8.723,8.723,0,0,0,82.171,65.672Zm0-2.115v1.191a14.973,14.973,0,0,1-3.7.436,13.212,13.212,0,0,1-3.255-.423v-1.2a11.491,11.491,0,0,0,3.266.489A13.331,13.331,0,0,0,82.171,63.557Zm0-2.11v1.147a29.182,29.182,0,0,1-3.754.234,23.887,23.887,0,0,1-3.2-.223V61.456a21.966,21.966,0,0,0,3.207.24A27.642,27.642,0,0,0,82.171,61.447Zm0-2.11v1.136H75.215V59.337Zm8.661,10.592v1.45a6.968,6.968,0,0,1-3.546.875,7.231,7.231,0,0,1-3.41-.939V69.877a5.879,5.879,0,0,0,3.442,1.246,5.356,5.356,0,0,0,3.508-1.2Zm0-2.138v1.351a8.257,8.257,0,0,1-6.956-.022V67.772a6.658,6.658,0,0,0,3.384.994A6.554,6.554,0,0,0,90.832,67.791Zm0-2.119V66.93a10.423,10.423,0,0,1-3.648.611,9.845,9.845,0,0,1-3.308-.607V65.669a8.153,8.153,0,0,0,3.324.74A8.727,8.727,0,0,0,90.832,65.672Zm0-2.115v1.191a14.979,14.979,0,0,1-3.7.436,13.206,13.206,0,0,1-3.255-.423v-1.2a11.489,11.489,0,0,0,3.265.489A13.333,13.333,0,0,0,90.832,63.557Zm0-2.11v1.147a29.193,29.193,0,0,1-3.754.234,23.864,23.864,0,0,1-3.2-.223V61.456a21.966,21.966,0,0,0,3.207.24A27.664,27.664,0,0,0,90.832,61.447Zm0-2.11v1.136H83.876V59.337ZM83.876,71.986a6.591,6.591,0,0,0,.755.586,5.135,5.135,0,0,0,2.979.907,4.608,4.608,0,0,0,3.222-1.421v.423a3.441,3.441,0,0,1-.261,1.317,6.16,6.16,0,0,1-2.924.812,6.592,6.592,0,0,1-3.57-.966,3.449,3.449,0,0,1-.2-1.163Zm15.616-2.057v1.45a6.967,6.967,0,0,1-3.545.875,7.238,7.238,0,0,1-3.411-.939V69.877a5.884,5.884,0,0,0,3.443,1.246,5.356,5.356,0,0,0,3.508-1.2Zm0-2.138v1.351a8.257,8.257,0,0,1-6.956-.022V67.772a6.664,6.664,0,0,0,3.385.994A6.548,6.548,0,0,0,99.492,67.791Zm0-2.119V66.93a10.415,10.415,0,0,1-3.648.611,9.845,9.845,0,0,1-3.308-.607V65.669a8.16,8.16,0,0,0,3.324.74A8.723,8.723,0,0,0,99.492,65.672Zm0-2.115v1.191a14.973,14.973,0,0,1-3.7.436,13.212,13.212,0,0,1-3.255-.423v-1.2a11.491,11.491,0,0,0,3.266.489A13.331,13.331,0,0,0,99.492,63.557Zm0-2.11v1.147a29.182,29.182,0,0,1-3.754.234,23.887,23.887,0,0,1-3.2-.223V61.456a21.976,21.976,0,0,0,3.207.24A27.642,27.642,0,0,0,99.492,61.447Zm0-2.11v1.136H92.536V59.337ZM92.536,71.986a6.679,6.679,0,0,0,.755.586,5.135,5.135,0,0,0,2.979.907,4.6,4.6,0,0,0,3.222-1.421v.423a3.441,3.441,0,0,1-.26,1.317,6.163,6.163,0,0,1-2.924.812,6.588,6.588,0,0,1-3.57-.966,3.425,3.425,0,0,1-.2-1.163Zm-17.321,0a6.679,6.679,0,0,0,.755.586,5.135,5.135,0,0,0,2.979.907,4.6,4.6,0,0,0,3.222-1.421v.423a3.46,3.46,0,0,1-.26,1.317,6.166,6.166,0,0,1-2.924.812,6.588,6.588,0,0,1-3.57-.966,3.425,3.425,0,0,1-.2-1.163Z"/>
  <path class="b" d="M32.747,48.95a12.28,12.28,0,0,0-.909,1.793H44.17V48.95Zm5.271-3.3a5.888,5.888,0,0,0-4.781,2.582H44.17V45.653Zm6.152,6.595H31.309q-.146.492-.267,1H44.17Z"/>
  <path class="b" d="M109.857,45.653h5.986v2.582h-5.986ZM61.988,48.235a6,6,0,0,1,4.624-2.582h6.9v2.582Zm47.869.715h5.986v1.793h-5.986ZM60.485,50.743a12.673,12.673,0,0,1,.983-1.793H73.511v1.793Zm13.026,1.5H59.9q-.162.489-.3,1h13.91Zm42.332,0h-5.986v1h5.986Z"/>
  <path class="b" d="M133.65,48.235a6.019,6.019,0,0,1,4.632-2.582h8.58a10.871,10.871,0,0,0-2.233,2.582Zm-1.5,2.508a12.634,12.634,0,0,1,.985-1.793h11.075a15.848,15.848,0,0,0-.844,1.793Zm10.694,1.5h-11.28q-.162.489-.3,1h11.309C142.651,52.91,142.742,52.575,142.839,52.248Z"/>
</svg>
