<svg fill="none" height="750" viewBox="0 0 3000 750" width="3000" xmlns="http://www.w3.org/2000/svg" xmlns:xlink="http://www.w3.org/1999/xlink"><clipPath id="a"><path d="m0 0h750v750h-750z"/></clipPath><clipPath id="b"><path d="m750 0h750v750h-750z"/></clipPath><clipPath id="c"><path d="m1500 0h750v750h-750z"/></clipPath><clipPath id="d"><path d="m2250 0h750v750h-750z"/></clipPath><g clip-path="url(#a)"><path d="m750 0h-750v750h750z" fill="#fff"/><path clip-rule="evenodd" d="m147.116 587.802-8.525-24.231h-36.267c-19.4229 0-18.4614 24.231-.769 24.231zm503.693-31.638c6.386 0 14.423 3.421 17.377 9.896l-8.004-22.679c-3.442-10.406-11.65-18.36-25.237-18.36h-136.73c-13.585 0-21.795 7.954-25.237 18.36l-8.002 22.679c2.954-6.475 10.985-9.896 17.377-9.896zm-318.823 53.836h-24.916c-15.369 0-24.655-8.998-28.55-20.769l-9.054-25.654c3.345 7.325 12.431 11.196 19.66 11.196h45.402l-.046 4.158-16.839 16.839zm128.888-35.23c7.219 0 16.316-3.872 19.658-11.197l-9.054 25.654c-3.894 11.775-13.179 20.769-28.55 20.769h-24.808l14.231-14.23-16.783-16.781v-4.215zm-26.761-421.154 3.153-23.823c11.389 1.713 20.302 3.89 25.727 6.346l-4.35 22.604c-8.013-2.418-16.22-4.136-24.53-5.135zm-35.995-3.068 1.602-24.205c9.495.438 18.391 1.125 26.435 2.013l-1.594 24.104c-8.077-.862-16.971-1.514-26.443-1.919zm-36.4-.328v-24.283c4.341-.112 8.769-.167 13.283-.167s8.942.053 13.285.159v24.283c-4.34-.104-8.768-.157-13.285-.16-4.517-.002-8.944.051-13.283.16zm-74.707-14.074c5.425-2.463 14.342-4.64 25.729-6.346l3.153 23.821c-8.352 1.002-16.6 2.734-24.65 5.175zm38.432 16.314-1.596-24.112c8.044-.888 16.941-1.573 26.437-2.013l1.6 24.206c-9.468.407-18.364 1.057-26.441 1.911zm85.823 46.483c.834 0 1.65-.247 2.343-.71.694-.463 1.234-1.121 1.554-1.892.319-.77.402-1.618.24-2.436-.163-.818-.564-1.569-1.154-2.159-.59-.589-1.341-.991-2.159-1.153-.818-.163-1.665-.079-2.436.24-.77.319-1.428.86-1.891 1.553-.463.694-.71 1.509-.71 2.343.002 1.116.447 2.186 1.237 2.975.79.788 1.86 1.231 2.976 1.231zm-31.771-1.677c.834 0 1.649-.248 2.342-.711s1.234-1.121 1.553-1.892c.319-.77.402-1.617.24-2.435-.163-.818-.564-1.569-1.154-2.158-.589-.59-1.341-.991-2.158-1.154-.818-.163-1.666-.079-2.436.24s-1.428.859-1.892 1.552c-.463.694-.71 1.509-.71 2.342.002 1.117.447 2.187 1.237 2.976.791.789 1.862 1.232 2.978 1.232zm63.314 5.811c.833 0 1.649-.247 2.342-.71s1.233-1.122 1.552-1.892.403-1.618.24-2.436c-.162-.817-.564-1.568-1.153-2.158-.59-.589-1.341-.991-2.159-1.154-.818-.162-1.665-.079-2.435.24-.771.319-1.429.86-1.892 1.553s-.711 1.508-.711 2.342c0 .553.109 1.102.321 1.613.212.512.522.977.913 1.368.392.392.857.702 1.368.914.512.212 1.06.32 1.614.32zm-127.377-1.113c.834 0 1.649-.248 2.342-.711s1.234-1.122 1.553-1.892.402-1.618.239-2.436c-.163-.817-.564-1.569-1.154-2.158s-1.341-.991-2.159-1.153c-.818-.163-1.665-.079-2.436.24-.77.32-1.428.86-1.891 1.554-.463.693-.71 1.508-.71 2.342.003 1.117.448 2.187 1.238 2.975.79.789 1.861 1.232 2.978 1.231zm16.365-24.125c.834-.001 1.649.246 2.343.709.693.463 1.234 1.121 1.553 1.892.319.77.403 1.618.241 2.435-.163.818-.564 1.569-1.153 2.159-.59.59-1.341.992-2.159 1.154-.817.163-1.665.08-2.436-.239-.77-.319-1.428-.859-1.892-1.553-.463-.693-.71-1.508-.71-2.342-.001-.554.107-1.103.318-1.615.212-.512.522-.978.913-1.37s.856-.703 1.368-.916c.512-.212 1.06-.322 1.614-.322zm65.829-2.116c.834 0 1.649.247 2.343.71.693.463 1.234 1.121 1.553 1.891s.403 1.618.241 2.436c-.163.818-.564 1.569-1.154 2.159-.589.59-1.34.991-2.158 1.154s-1.665.079-2.436-.24c-.77-.319-1.429-.859-1.892-1.552s-.71-1.508-.71-2.342c-.001-.554.108-1.102.319-1.614.212-.512.522-.977.913-1.369.392-.392.856-.702 1.368-.915.511-.212 1.059-.321 1.613-.321zm-33.077-.317c.834 0 1.649.247 2.342.71.693.464 1.234 1.122 1.553 1.892.319.771.402 1.618.24 2.436-.163.818-.565 1.569-1.154 2.158-.59.59-1.341.991-2.158 1.154-.818.162-1.666.079-2.436-.24s-1.429-.859-1.892-1.553c-.463-.693-.71-1.508-.71-2.342-.001-1.117.441-2.188 1.23-2.979.788-.791 1.859-1.237 2.976-1.24zm65.814 3.383c.833 0 1.648.247 2.342.71.693.463 1.233 1.122 1.552 1.892s.403 1.618.24 2.436c-.163.817-.564 1.568-1.154 2.158-.589.589-1.34.991-2.158 1.154-.818.162-1.665.079-2.436-.24-.77-.319-1.428-.86-1.891-1.553-.464-.693-.711-1.508-.711-2.342-.001-1.117.441-2.189 1.23-2.98.788-.791 1.859-1.237 2.976-1.239zm-129.937 3.7c.834 0 1.649.247 2.342.71s1.234 1.122 1.553 1.892.402 1.618.239 2.436c-.162.817-.564 1.568-1.153 2.158-.59.589-1.341.991-2.159 1.154-.817.162-1.665.079-2.435-.24s-1.429-.86-1.892-1.553-.71-1.508-.71-2.342c-.001-1.117.441-2.189 1.23-2.98.788-.791 1.858-1.237 2.975-1.239zm46.99 15.929c.834 0 1.649-.248 2.342-.711.694-.463 1.234-1.121 1.553-1.892.319-.77.402-1.617.24-2.435-.163-.818-.564-1.569-1.154-2.159-.589-.589-1.34-.991-2.158-1.153-.818-.163-1.665-.079-2.436.24-.77.319-1.428.859-1.891 1.552-.464.693-.711 1.508-.711 2.342.001 1.116.444 2.186 1.232 2.976.789.789 1.858 1.234 2.974 1.236zm-45.311-20.497c1.417-.236 2.86-.438 4.315-.661.346 2.308.699 4.615 1.058 6.923.27 1.704.128 3.448-.413 5.087 1.153-.181 2.33-.36 3.538-.541l.098-.019c-.328-3.236.626-6.473 2.657-9.014s4.977-4.184 8.207-4.576c5.88-.721 11.794-1.343 17.74-1.868.133 1.698.285 3.394.431 5.087.205 2.427-.289 4.863-1.423 7.019 1.471-.133 2.942-.258 4.423-.385.032 0 .065 0 .115-.011-.107-3.237 1.068-6.385 3.269-8.76 2.249-2.429 5.358-3.886 8.664-4.059 5.982-.297 11.986-.452 17.988-.556.018 1.709.073 3.421.1 5.121.044 2.445-.625 4.85-1.923 6.923 1.489-.023 2.992-.042 4.481-.061h.115c.052-1.599.421-3.17 1.085-4.625.665-1.454 1.611-2.763 2.785-3.849 2.42-2.259 5.634-3.47 8.944-3.371 6.002.193 11.986.51 17.973.873-.1 1.72-.164 3.445-.248 5.158-.118 2.447-.945 4.807-2.381 6.792 1.488.095 2.975.22 4.448.348.033 0 .065 0 .115.012.162-1.605.641-3.163 1.412-4.58.77-1.418 1.815-2.668 3.075-3.676 1.259-1.009 2.707-1.756 4.259-2.198 1.551-.442 3.176-.57 4.778-.377 5.903.689 11.773 1.539 17.642 2.444-.216 1.716-.385 3.433-.596 5.141-.274 2.415-1.245 4.698-2.795 6.571 1.456.242 2.885.488 4.349.733.027.006.054.011.082.015.05-.411.1-.823.15-1.238.153-1.396.59-2.746 1.284-3.966.695-1.22 1.632-2.285 2.755-3.129 1.126-.829 2.416-1.412 3.783-1.708 1.368-.296 2.782-.3 4.151-.011 1.423.283 2.845.577 4.283.854-.364 2.324-.717 4.649-1.058 6.973-.298 1.913-1.102 3.711-2.33 5.208-1.155 1.421-2.676 2.5-4.399 3.121 1.564 2.629 2.171 5.717 1.72 8.742-.25 1.696-.496 3.389-.727 5.083-5.441-1.017-10.875-1.994-16.369-2.869-3.143-.523-5.975-2.206-7.937-4.716-2.049-2.563-3.121-5.771-3.025-9.052-1.488-.169-2.976-.341-4.463-.517 1.155 2.204 1.665 4.689 1.471 7.169-.146 1.718-.281 3.435-.414 5.15-5.588-.655-11.182-1.205-16.782-1.652-3.18-.275-6.144-1.723-8.316-4.061-2.246-2.349-3.553-5.441-3.671-8.689-1.521-.061-3.025-.117-4.529-.175 1.298 2.097 1.974 4.519 1.95 6.985-.019 1.712-.035 3.421-.048 5.129-5.638-.156-11.294-.25-16.923-.192-3.178.019-6.248-1.159-8.596-3.3-2.391-2.161-3.898-5.129-4.231-8.333-1.521.056-3.01.144-4.513.234 1.426 1.968 2.258 4.304 2.396 6.731.106 1.706.192 3.402.298 5.1-5.621.333-11.229.71-16.798 1.202-3.132.279-6.251-.656-8.714-2.611-2.517-1.986-4.203-4.84-4.729-8.002-1.503.192-2.975.384-4.423.577 1.541 1.871 2.517 4.143 2.812 6.55.211 1.688.426 3.375.644 5.059-5.523.719-10.983 1.483-16.433 2.329-3.064.472-6.192-.273-8.715-2.075-2.609-1.85-4.459-4.583-5.208-7.692-.05-.221-.082-.439-.13-.658-.316-1.667-.631-3.333-.945-5-.065-.404-.155-.804-.23-1.21-.266-1.379-.253-2.797.038-4.171s.853-2.676 1.654-3.829c.801-1.154 1.825-2.135 3.011-2.887 1.186-.753 2.51-1.26 3.895-1.493zm155.217-12.536c-15.973-4.927-46.848-8.269-82.321-8.269s-66.346 3.338-82.319 8.269l1.444 7.727c16.346-4.691 46.44-7.837 80.875-7.837s64.535 3.146 80.877 7.837zm-82.321 64.423c39.402 0 71.346-4.829 71.346-10.783s-31.942-10.782-71.346-10.782-71.346 4.828-71.346 10.782 31.944 10.783 71.346 10.783zm-180.435 42.321 16.283 59.506h17.692l.177-3.325c.687-12.956 12.148-17.542 21.998-17.308v45.671l-46.519 15.835-51.569-36.823-4.471 6.258 54.773 39.423-13.369 42.967-50.477 56.29v7.429c20.729 1.773 25.644 14.35 25.877 29.669h-59.025v-46.04c14.107-7.885 14.35-30.95 0-40.535v-131.117l15.086-36.358zm1.479-61.538c-.645-1.376-1.607-2.579-2.806-3.511-1.2-.932-2.603-1.566-4.096-1.851-7.417-1.744-10.6 5.252-2.961 6.587 6.763 1.175 9.863-1.239 9.863-1.239zm-50.24-6.745c-10.431-14.3 12.5-26.105 18.525-9.723l20.892 3.666c7.268 1.275 13.269 4.004 17.01 11.679l20.846 6.43c-2.373 7.966-8.6 13.448-15.258 12.885l-19.557-1.677c-6.323-.542-10.558-.796-11.731 6.358l33.498 3.269c-2.133 10.15-9.079 11.025-14.99 10.313l-63.941-7.678zm131.958 42.16c-7.577-20.027-34.837-17.536-41.139-1.283l-8.492 21.898-24.808 8.462 10.792 39.381 28.902-21.771v-46.689zm-107.545 10.869 10.791-8.565 8.563 10.79 8.566 10.791 2.225-19.356-10.791 8.565-10.788 8.566zm-38.709-4.452 10.8-8.565 8.565 10.79 8.564 10.789 10.79-8.564-8.565-10.79-10.789 8.565-10.79 8.564-8.566-10.791-10.79 8.566 2.225-19.356zm409.454 90.343-23.493-.033v-10.142c0-12.57-10.204-15.37-18.211-15.358v38.49l40.988 17.979 15.652-5.223zm64.517-95.406 2.271-20.258-17.533-27.244c-5.148-8-11.398-10.875-22.165-11.119l-.744 9.582c-9.079-1.269-21.791 1.118-24.496 10.283l-16.835 4.187c.221 5.369 2.746 9.794 7.287 10.1l27.236 1.827c2.471.074 4.812 1.122 6.513 2.916s2.624 4.187 2.568 6.659l-35.735-2.754c-.315 2.669 2.9 8.419 9.133 9.09zm-44.404-42.744c-1.708 2.677-4.14 4.815-7.013 6.167-6.233 2.692-10.627-1.763-3.05-5.088 3.213-1.189 6.671-1.559 10.063-1.079zm37.329 210.8-77.142 38.75 10.663 39.721h-13.077c-15.127 0-21.577 10.731-21.902 24.498l65.894.385-7.134-38.52 15.946-5.717 17.444 19.354h-6.117c-13.31 0-16.685 15.056-15.667 24.713l55.442.079v-11.883h4.071c17.75-.588 34.327-10.067 33.812-37.307l-.414-127.106c-.031-9.785 2.981-18.788 7.939-23.819-13.077-5.443-26.248 2.252-32.537 38.846l-17.981 104.627-7.475-1.285 11.041-64.244-22.041-92.775 3.56-31.752-49.915-5.977-7.729 27.962 25.694 7.809-2.152 7.083-28.188-8.567-4.524-23.814-20.03-10.161h-9.039v12.55c0 10.223 3.61 13.154 14.337 19.204v25.769l23.442 11.113 32.852 53.998-8.14 33.512 25.482-13.716zm-37.594-160.287-8.077-10.181-2.1 18.27zm36.525 4.2 10.18-8.077-2.099 18.269zm-36.525-4.2 10.18-8.077 8.077 10.181 8.077 10.181 10.181-8.077-8.077-10.181-10.181 8.077-10.18 8.077zm-137.943 81.217c.27.204.531.418.783.635l.015.015c.806.699 1.544 1.471 2.204 2.308l.02.025c.294.373.576.758.83 1.154l.023.035c.308.465.593.941.856 1.427v.015l.106.192.11.214.088.175.046.092.073.15v.012l.102.215.075.163.037.083c.09.192.177.404.259.606l.014.031.081.192.015.04.073.193.085.221v.031l.05.132.048.141.05.14.075.223v.017l.036.118.05.154.05.159.068.223v.033l.055.192.012.044.04.141.054.192.015.064.016.063.054.217.025.104.042.177.021.089v.019.015l.056.254.017.083.046.227v.05.046l.052.271v.031l.041.229.017.102.042.265v.027.027l.035.248.015.098.033.271 6.519-7.802c11.233 12.9 8.006 31.031-1.988 38.058h-7.693c7.106-8.369 4.558-19.808-3.834-26.523l-1.346 12.852-6.206-7.271c-5.275 5.948-4.598 16.398.052 20.942h-7.692c-8.547-9.383-10.158-25.192.055-32.283l5.37 6.556 2.23-17.664.4-3.173c2.586.515 5.021 1.609 7.123 3.198zm-20.903-35.417v-7.692h38.326v7.692zm-86.791 71.123v-7.692h26.539v7.692zm0-15.384v-7.693h26.539v7.693zm3.462-48.131h7.692v19.788h-7.692zm23.077 19.788v13.72h-7.693v-33.506h19.635v6.048h13.654v13.223h6.942v7.692h-14.635v-13.221h-5.961v6.048zm-38.462 0v-6.048h-13.681v-13.223h-6.942v-7.692h14.635v13.223h5.988v-6.046h7.692v19.788zm1.769 25.77c1.55.602 2.882 1.659 3.821 3.032.938 1.373 1.441 2.997 1.441 4.66s-.503 3.287-1.441 4.66c-.939 1.372-2.271 2.429-3.821 3.032 1.966.769 3.564 2.261 4.465 4.17s1.039 4.091.383 6.097h37.143c-.655-2.006-.518-4.188.383-6.097s2.499-3.401 4.465-4.17c-1.55-.603-2.882-1.66-3.82-3.032-.939-1.373-1.442-2.997-1.442-4.66s.503-3.287 1.442-4.66c.938-1.373 2.27-2.43 3.82-3.032-1.794-.699-3.286-2.001-4.221-3.684-.934-1.682-1.251-3.638-.896-5.529s1.36-3.599 2.841-4.828 3.345-1.901 5.269-1.901 3.788.672 5.269 1.901 2.486 2.937 2.841 4.828.038 3.847-.896 5.529c-.934 1.683-2.427 2.985-4.221 3.684 1.55.602 2.882 1.659 3.821 3.032.938 1.373 1.441 2.997 1.441 4.66s-.503 3.287-1.441 4.66c-.939 1.372-2.271 2.429-3.821 3.032 1.966.769 3.564 2.261 4.465 4.17s1.039 4.091.383 6.097h22.635v-34.286l21.312-21.514v-15.319h28.971v15.319l21.313 21.514v34.283h7.1v7.692h-178.048v-7.692h8.214c-.659-2.007-.523-4.189.378-6.099.902-1.91 2.5-3.401 4.468-4.169-1.55-.603-2.882-1.66-3.821-3.032-.938-1.373-1.441-2.997-1.441-4.66s.503-3.287 1.441-4.66c.939-1.372 2.271-2.429 3.821-3.032-1.794-.698-3.287-2.001-4.221-3.683-.934-1.683-1.251-3.639-.896-5.53s1.36-3.599 2.841-4.828 3.345-1.901 5.269-1.901 3.788.672 5.269 1.901 2.486 2.937 2.841 4.828.038 3.847-.896 5.53c-.935 1.682-2.427 2.985-4.221 3.683zm-108.244 75.065 25.154 27.44v31.452c20.729 1.773 25.644 14.35 25.877 29.669h-56.108v-39.213l-27.638-13.269zm178.225-185.714-31.683 11.539v13.967h-49.827v-7.692h-35.09v35.086h7.692v61.893l-17.571 28.492 16.704 27.073h219.55l16.704-27.073-17.571-28.477v-61.908h7.692v-35.082h-35.09v7.692h-49.827v-13.967zm-275.8038 312.718c-6.3865 0-14.423 3.421-17.3769 9.896l8.0039-22.679c3.4423-10.406 11.6478-18.36 25.2368-18.36h136.73c13.587 0 21.793 7.954 25.237 18.36l8.002 22.679c-2.956-6.475-10.987-9.896-17.377-9.896zm392.6558-90.464c0 25.604-17.45 43.477-43.477 43.477h-18.602c-25.542 0-43.534 6.454-54.129 22.073h-1.286c-10.596-15.619-28.589-22.073-54.131-22.073h-18.602c-26.027 0-43.477-17.873-43.477-43.477v-48.748l-18.654-30.229 18.918-30.659v-52.025h-7.693v-50.466h50.471v7.693h34.445v-11.66l39.365-14.344 39.373 14.342v11.66h34.444v-7.693h50.473v50.468h-7.692v52.017l18.916 30.66-18.654 30.244zm-224.504 13.316c5.449 1.025 11.056.84 16.425-.543 8.969-2.93 13.967-8.336 24.314-8.209h.092c13.098-.156 19.983 9.777 33.329 9.615v.014c13.492 0 20.509-9.789 33.411-9.631h.081c13.044-.16 20.033 9.777 33.337 9.615v.014c13.546 0 20.384-9.791 33.411-9.631h.092c11.477-.135 18.206 7.471 28.654 9.25 3.955.648 7.999.518 11.904-.385 1.097-2.593 1.721-5.362 1.842-8.175-2.867 1.264-5.978 1.884-9.111 1.816-10.952.155-18.929-9.777-33.337-9.616-14.684-.163-21.703 9.602-33.461 9.602v.016h-.041c-11.248.15-18.688-9.781-33.336-9.616-14.881-.165-21.508 9.602-33.462 9.602v.016h-.042c-10.961.146-18.929-9.777-33.336-9.616-12.462-.138-16.427 5.217-26.608 8.544-5.176 1.664-10.78 1.391-15.769-.769.092 2.766.636 5.497 1.611 8.087zm-1.59-16.818c5.864 1.857 12.16 1.843 18.015-.042 8.969-2.931 13.967-8.338 24.314-8.211h.092c13.098-.156 19.983 9.776 33.329 9.615v.013c13.492 0 20.509-9.788 33.411-9.63h.081c13.044-.16 20.033 9.777 33.337 9.615v.013c13.546 0 20.396-9.79 33.411-9.63h.092c13.104-.156 20.012 9.777 33.329 9.615v.014c2.77.033 5.531-.326 8.2-1.068.293-.082.577-.169.87-.261v-7.604c-2.861 1.238-5.953 1.852-9.07 1.8v.015h-.042c-10.952.146-18.929-9.777-33.337-9.615-14.684-.164-21.703 9.602-33.461 9.602v.015h-.04c-11.247.15-18.689-9.781-33.337-9.615-14.883-.166-21.508 9.602-33.462 9.602v.015h-.042c-10.95.146-18.929-9.777-33.336-9.615-12.46-.139-16.427 5.219-26.608 8.544-5.176 1.664-10.78 1.39-15.769-.769zm0-16.317c5.864 1.857 12.16 1.841 18.015-.044 8.969-2.931 13.967-8.337 24.314-8.21h.092c13.098-.156 19.983 9.777 33.329 9.616v.015c13.492 0 20.509-9.789 33.411-9.631h.081c13.044-.159 20.033 9.775 33.337 9.616v.015c13.544 0 20.396-9.79 33.411-9.631h.092c13.104-.156 20.012 9.775 33.329 9.616v.015c2.77.032 5.531-.327 8.2-1.067.293-.085.577-.171.87-.262v-7.606c-2.861 1.24-5.953 1.855-9.07 1.802v.014h-.042c-10.952.148-18.929-9.775-33.337-9.616-14.684-.163-21.703 9.602-33.461 9.602v.014h-.04c-11.247.152-18.689-9.779-33.337-9.616-14.881-.165-21.51 9.602-33.462 9.602v.014h-.042c-10.95.148-18.929-9.775-33.336-9.616-12.46-.138-16.427 5.218-26.608 8.545-5.176 1.663-10.78 1.39-15.769-.77zm273.523-219.535-11.185-2.478c-1.763-.445-3.382-1.339-4.696-2.596-1.315-1.257-2.281-2.834-2.804-4.576-3.154 5.031-2.5 11.197 6.554 11.689l12.777.692zm-333.741 4.443 11.416-.943c1.808-.201 3.533-.868 5.007-1.935 1.473-1.068 2.644-2.499 3.399-4.155 2.446 5.412.961 11.431-8.077 10.694l-12.754-1.042zm135.352 351.113.287-19.615 9.829 9.783 10.059-9.775 13.989 33.715zm34.164 42.329-14.104-14.104 14.104-14.106v14.106h-34.052l-14.217-14.113h48.269v-46.398h-14.106l14.108-14.108 14.104 14.108v12.35h19.946v19.948l-34.052 14.106 24.079-24.079-9.973-9.975-14.106 34.054h34.054v-14.106l14.107 14.106-14.105 14.105h-19.952zm227.829-36.429 8.525-24.231h36.263c19.423 0 18.462 24.231.769 24.231z" fill="#000" fill-rule="evenodd"/></g><g clip-path="url(#b)"><path d="m1500 0h-750v750h750z" fill="#000"/><path clip-rule="evenodd" d="m1184.11 153.608 3.15-23.823c11.39 1.713 20.31 3.89 25.73 6.346l-4.35 22.604c-8.01-2.418-16.22-4.136-24.53-5.135m-35.99-3.067 1.6-24.206c9.49.439 18.39 1.125 26.43 2.014l-1.59 24.104c-8.08-.847-16.97-1.499-26.44-1.904zm-36.4-.329v-24.267c4.34-.112 8.76-.167 13.28-.167s8.95.053 13.29.159v24.283c-4.34-.104-8.77-.157-13.29-.16-4.52-.002-8.94.051-13.28.16zm-74.71-14.073c5.43-2.463 14.34-4.64 25.73-6.346l3.15 23.821c-8.35 1.002-16.6 2.734-24.65 5.175zm38.43 16.314-1.59-24.104c8.04-.889 16.94-1.573 26.43-2.014l1.61 24.206c-9.47.415-18.37 1.065-26.45 1.919zm85.96 46.482c.84 0 1.65-.247 2.35-.71.69-.464 1.23-1.122 1.55-1.892.32-.771.4-1.619.24-2.436-.16-.818-.57-1.569-1.16-2.159-.58-.589-1.34-.99-2.15-1.153-.82-.162-1.67-.078-2.44.241s-1.43.86-1.89 1.553c-.46.694-.71 1.509-.71 2.343 0 .553.11 1.102.32 1.614s.52.977.91 1.369.86.703 1.37.915c.51.213 1.06.322 1.61.323zm-31.77-1.677c.84.001 1.65-.246 2.34-.709.7-.463 1.24-1.121 1.56-1.892.32-.77.4-1.617.24-2.435s-.57-1.569-1.15-2.159c-.59-.59-1.35-.992-2.16-1.154-.82-.163-1.67-.08-2.44.239s-1.43.86-1.89 1.553-.71 1.508-.71 2.342c0 .554.11 1.102.32 1.614s.52.978.91 1.37.85.704 1.36.916c.52.213 1.06.322 1.62.323zm63.32 5.812c.83 0 1.64-.247 2.34-.71.69-.463 1.23-1.121 1.55-1.891s.4-1.618.24-2.436-.56-1.569-1.15-2.159c-.59-.589-1.34-.991-2.16-1.154s-1.67-.079-2.44.24-1.42.859-1.89 1.552c-.46.694-.71 1.509-.71 2.342 0 .555.11 1.104.32 1.617s.52.98.91 1.373.85.705 1.37.918c.51.213 1.06.323 1.61.323zm-127.38-1.114c.83 0 1.65-.247 2.34-.71.7-.463 1.24-1.122 1.56-1.892.31-.771.4-1.618.23-2.436-.16-.818-.56-1.569-1.15-2.158-.59-.59-1.34-.991-2.16-1.154-.82-.162-1.66-.078-2.43.241s-1.43.86-1.9 1.553c-.46.694-.71 1.509-.71 2.343 0 .554.11 1.102.32 1.614s.52.978.92 1.37c.39.392.85.703 1.36.915s1.06.322 1.62.322zm16.37-24.125c.83 0 1.64.248 2.34.711.69.463 1.23 1.121 1.55 1.892.32.77.4 1.617.24 2.435s-.56 1.569-1.15 2.158c-.59.59-1.34.991-2.16 1.154s-1.67.079-2.44-.24-1.43-.859-1.89-1.552c-.46-.694-.71-1.509-.71-2.342 0-1.115.45-2.184 1.23-2.972.79-.789 1.86-1.233 2.97-1.236zm65.82-2.115c.84 0 1.65.247 2.35.71.69.464 1.23 1.122 1.55 1.892s.4 1.618.24 2.436c-.16.817-.57 1.569-1.15 2.158-.59.59-1.35.991-2.16 1.154-.82.162-1.67.079-2.44-.24s-1.43-.859-1.89-1.553c-.46-.693-.71-1.508-.71-2.342 0-1.115.45-2.184 1.24-2.972.79-.787 1.86-1.23 2.97-1.231zm-33.08-.317c.83-.001 1.65.246 2.34.709s1.23 1.121 1.55 1.892c.32.77.41 1.617.24 2.435-.16.818-.56 1.569-1.15 2.159s-1.34.992-2.16 1.154c-.82.163-1.66.08-2.43-.239-.78-.319-1.43-.86-1.9-1.553-.46-.693-.71-1.508-.71-2.342.01-1.115.45-2.184 1.24-2.972s1.86-1.231 2.97-1.232zm65.81 3.382c.83 0 1.65.248 2.34.711s1.24 1.121 1.55 1.892c.32.77.41 1.617.24 2.435-.16.818-.56 1.569-1.15 2.158-.59.59-1.34.991-2.16 1.154s-1.66.079-2.43-.24-1.43-.859-1.9-1.552c-.46-.694-.71-1.509-.71-2.342.01-1.116.45-2.185 1.24-2.973s1.86-1.231 2.98-1.231zm-129.94 3.7c.84 0 1.65.247 2.35.71.69.463 1.23 1.121 1.55 1.891s.4 1.618.24 2.436-.56 1.569-1.15 2.159-1.34.991-2.16 1.154-1.67.079-2.44-.24-1.43-.859-1.89-1.552-.71-1.508-.71-2.342c0-1.115.45-2.184 1.24-2.971.79-.788 1.85-1.232 2.97-1.233zm46.99 15.929c.84 0 1.65-.247 2.35-.71.69-.463 1.23-1.122 1.55-1.892s.4-1.618.24-2.436c-.16-.817-.57-1.568-1.16-2.158-.59-.589-1.34-.991-2.15-1.154-.82-.162-1.67-.079-2.44.24s-1.43.86-1.89 1.553-.71 1.508-.71 2.342c0 .554.1 1.103.32 1.616.21.512.52.978.91 1.371.39.392.85.704 1.36.917.52.212 1.07.322 1.62.323zm-45.53-20.481c1.41-.236 2.86-.438 4.31-.661.35 2.308.7 4.615 1.06 6.923.27 1.704.13 3.448-.41 5.087 1.15-.181 2.33-.36 3.53-.541.04 0 .05-.011.1-.019-.32-3.236.63-6.473 2.66-9.014s4.98-4.184 8.21-4.576c5.88-.721 11.79-1.343 17.74-1.868.13 1.698.28 3.394.43 5.087.2 2.427-.29 4.863-1.43 7.019 1.48-.133 2.95-.258 4.43-.385.03 0 .06 0 .11-.011-.1-3.236 1.07-6.384 3.27-8.76 2.25-2.427 5.35-3.883 8.66-4.059 5.98-.297 11.98-.452 17.98-.556.02 1.709.08 3.421.1 5.121.05 2.445-.62 4.85-1.92 6.923 1.49-.023 2.99-.042 4.48-.061h.12c.05-1.599.42-3.17 1.08-4.625.67-1.454 1.61-2.763 2.78-3.849 2.43-2.269 5.65-3.486 8.97-3.384 6 .192 11.99.509 17.97.873-.1 1.719-.16 3.444-.24 5.158-.12 2.447-.95 4.807-2.39 6.792 1.49.094 2.98.219 4.45.348.04 0 .07 0 .12.012.16-1.606.64-3.163 1.41-4.581.77-1.417 1.81-2.667 3.07-3.676 1.26-1.008 2.71-1.756 4.26-2.198s3.18-.57 4.78-.376c5.91.688 11.77 1.538 17.64 2.444-.21 1.715-.38 3.433-.59 5.14-.28 2.415-1.25 4.699-2.8 6.572 1.46.242 2.89.488 4.35.732.03.007.06.012.09.016.04-.412.09-.823.14-1.239.16-1.396.59-2.745 1.29-3.966.69-1.22 1.63-2.285 2.75-3.128 1.13-.83 2.42-1.412 3.79-1.708 1.36-.297 2.78-.3 4.15-.011 1.42.282 2.84.577 4.28.854-.36 2.325-.71 4.648-1.06 6.973-.3 1.913-1.1 3.711-2.33 5.207-1.15 1.422-2.67 2.501-4.4 3.121 1.57 2.629 2.17 5.718 1.72 8.743-.25 1.696-.49 3.388-.72 5.082-5.45-1.017-10.88-1.994-16.37-2.869-3.15-.522-5.98-2.205-7.94-4.715-2.05-2.563-3.12-5.771-3.03-9.052-1.48-.169-2.97-.342-4.46-.517 1.16 2.203 1.67 4.688 1.47 7.169-.14 1.717-.28 3.434-.41 5.15-5.59-.655-11.18-1.206-16.78-1.652-3.18-.275-6.15-1.723-8.32-4.062-2.25-2.348-3.55-5.44-3.67-8.688-1.52-.062-3.03-.117-4.53-.175 1.3 2.097 1.97 4.519 1.95 6.985-.02 1.711-.03 3.421-.05 5.128-5.64-.155-11.29-.25-16.92-.192-3.18.02-6.25-1.159-8.6-3.3-2.39-2.16-3.89-5.128-4.23-8.333-1.52.056-3.01.145-4.51.235 1.43 1.968 2.26 4.304 2.4 6.731.1 1.706.19 3.402.29 5.1-5.62.332-11.23.709-16.79 1.202-3.14.282-6.26-.652-8.73-2.61-2.52-1.986-4.2-4.839-4.73-8.002-1.5.192-2.97.385-4.43.577 1.54 1.871 2.52 4.144 2.81 6.55.21 1.689.43 3.375.65 5.06-5.52.719-10.99 1.482-16.44 2.329-3.06.471-6.19-.273-8.71-2.075-2.61-1.851-4.46-4.583-5.21-7.693-.05-.221-.08-.438-.13-.657-.32-1.667-.63-3.334-.94-5-.07-.404-.16-.804-.24-1.21-.26-1.379-.25-2.797.04-4.171.3-1.374.86-2.675 1.66-3.829.8-1.153 1.82-2.135 3.01-2.887 1.18-.752 2.51-1.26 3.89-1.494zm155.31-12.536c-15.97-4.927-46.85-8.269-82.32-8.269s-66.35 3.338-82.32 8.269l1.44 7.727c16.35-4.691 46.45-7.837 80.88-7.837 34.44 0 64.53 3.146 80.88 7.837zm-82.32 57.954c30.01 0 54.35-1.923 54.35-4.316 0-2.392-24.34-4.315-54.35-4.315s-54.34 1.933-54.34 4.315c0 2.383 24.33 4.316 54.34 4.316zm-227.884 364.463-8.525-24.231h-36.267c-19.423 0-18.461 24.231-.769 24.231zm503.694-31.638c6.39 0 14.42 3.421 17.38 9.896l-8.01-22.679c-3.44-10.406-11.65-18.36-25.23-18.36h-136.74c-13.58 0-21.79 7.954-25.23 18.36l-8 22.679c2.95-6.475 10.98-9.896 17.37-9.896zm-318.82 53.836h-24.92c-15.37 0-24.66-8.998-28.55-20.769l-9.05-25.654c3.34 7.325 12.43 11.196 19.66 11.196h45.4l-.05 4.158-16.84 16.839zm128.88-35.23c7.22 0 16.32-3.872 19.66-11.197l-9.05 25.654c-3.9 11.775-13.18 20.769-28.55 20.769h-24.81l14.23-14.23-16.78-16.781v-4.215zm-266.304-302.643 16.283 59.506h17.692l.177-3.325c.687-12.956 12.148-17.542 22.002-17.308v45.671l-46.523 15.835-51.569-36.821-4.471 6.258 54.773 39.423-13.369 42.967-50.477 56.29v7.429c20.729 1.773 25.644 14.35 25.877 29.669h-59.025v-46.04c14.107-7.885 14.35-30.95 0-40.535v-131.117l15.086-36.358zm1.479-61.538c-.645-1.376-1.607-2.579-2.806-3.51-1.2-.932-2.603-1.567-4.096-1.852-7.417-1.744-10.6 5.252-2.961 6.587 6.763 1.177 9.863-1.237 9.863-1.237zm-50.24-6.743c-10.431-14.3 12.5-26.105 18.525-9.723l20.892 3.666c7.268 1.275 13.269 4.004 17.01 11.679l20.846 6.43c-2.373 7.966-8.6 13.448-15.258 12.885l-19.557-1.677c-6.323-.542-10.558-.796-11.731 6.358l33.498 3.269c-2.133 10.15-9.079 11.025-14.99 10.313l-63.941-7.678zm131.955 42.16c-7.57-20.027-34.834-17.536-41.136-1.283l-8.492 21.898-24.808 8.462 10.792 39.381 28.902-21.771v-46.689zm-107.542 10.869 10.791-8.565 8.563 10.79 8.566 10.791 2.225-19.356-10.791 8.565-10.788 8.566zm-38.709-4.452 10.8-8.565 8.565 10.79 8.564 10.789 10.79-8.564-8.565-10.79-10.789 8.565-10.79 8.564-8.566-10.791-10.79 8.566 2.225-19.356zm409.451 90.343-23.49-.033v-10.142c0-12.57-10.2-15.37-18.21-15.358v38.49l40.99 17.979 15.65-5.223zm64.52-95.406 2.27-20.258-17.53-27.244c-5.15-8-11.4-10.875-22.17-11.119l-.74 9.582c-9.08-1.269-21.79 1.118-24.5 10.283l-16.83 4.187c.22 5.369 2.74 9.794 7.28 10.1l27.24 1.827c2.47.074 4.81 1.122 6.51 2.916 1.71 1.794 2.63 4.187 2.57 6.659l-35.73-2.754c-.32 2.669 2.9 8.419 9.13 9.09zm-44.4-42.744c-1.71 2.677-4.14 4.815-7.02 6.167-6.23 2.692-10.62-1.763-3.05-5.088 3.22-1.189 6.67-1.559 10.07-1.079zm37.32 210.8-77.14 38.75 10.67 39.721h-13.08c-15.13 0-21.58 10.731-21.9 24.498l65.89.385-7.13-38.52 15.94-5.717 17.45 19.354h-6.12c-13.31 0-16.68 15.056-15.67 24.713l55.44.079v-11.883h4.08c17.75-.588 34.32-10.067 33.81-37.307l-.42-127.106c-.03-9.785 2.98-18.788 7.94-23.819-20.22-6.731-28.84 17.361-32.53 38.846l-17.98 104.627-7.48-1.285 11.04-64.244-22.04-92.775 3.56-31.752-49.92-5.977-7.72 27.962 25.69 7.809-2.15 7.083-28.19-8.567-4.52-23.814-20.03-10.161h-9.04v12.55c0 10.223 3.61 13.154 14.33 19.204v25.769l23.45 11.113 32.85 53.998-8.14 33.512 25.48-13.716zm-37.59-160.287-8.08-10.181-2.1 18.27zm36.53 4.2 10.18-8.077-2.1 18.269zm-36.53-4.2 10.18-8.077 8.08 10.181 8.08 10.181 10.18-8.077-8.08-10.181-10.18 8.077-10.18 8.077zm-137.94 81.217c.27.204.53.418.78.635l.02.015c.8.699 1.54 1.471 2.2 2.308l.02.025c.29.373.58.758.83 1.154l.02.035c.31.465.6.941.86 1.427v.015l.1.192.11.214.09.175.05.092.07.15v.012l.1.215.08.163.04.083c.09.192.17.404.26.606l.01.031.08.192.01.04.08.193.08.221v.031l.05.132.05.141.05.14.08.223v.017l.03.118.05.154.05.159.07.223v.033l.06.192.01.044.04.141.05.192.02.064.01.063.06.217.02.104.04.177.02.089v.019.015l.06.254.02.083.04.227v.05.046l.06.271v.031l.04.229.01.102.05.265v.027.027l.03.248.02.098.03.271 6.52-7.802c11.23 12.9 8 31.031-1.99 38.058h-7.69c7.1-8.369 4.55-19.808-3.84-26.523l-1.34 12.852-6.21-7.271c-5.28 5.948-4.6 16.398.05 20.942h-7.69c-8.55-9.383-10.16-25.192.06-32.283l5.36 6.556 2.24-17.664.4-3.173c2.58.515 5.02 1.609 7.12 3.198zm-20.91-35.417v-7.692h38.33v7.692zm-86.79 71.123v-7.692h26.54v7.692zm0-15.384v-7.693h26.54v7.693zm3.47-48.131h7.69v19.788h-7.69zm23.07 19.788v13.72h-7.69v-33.506h19.63v6.048h13.66v13.223h6.94v7.692h-14.63v-13.221h-5.97v6.048zm-38.46 0v-6.048h-13.68v-13.223h-6.94v-7.692h14.63v13.223h5.99v-6.046h7.69v19.788zm1.77 25.77c1.55.602 2.88 1.659 3.82 3.032s1.44 2.997 1.44 4.66-.5 3.287-1.44 4.66c-.94 1.372-2.27 2.429-3.82 3.032 1.97.769 3.56 2.261 4.47 4.17.9 1.909 1.03 4.091.38 6.097h37.14c-.65-2.006-.52-4.188.38-6.097.91-1.909 2.5-3.401 4.47-4.17-1.55-.603-2.88-1.66-3.82-3.032-.94-1.373-1.44-2.997-1.44-4.66s.5-3.287 1.44-4.66 2.27-2.43 3.82-3.032c-1.79-.699-3.29-2.001-4.22-3.684-.94-1.682-1.25-3.638-.9-5.529.36-1.891 1.36-3.599 2.84-4.828s3.35-1.901 5.27-1.901c1.93 0 3.79.672 5.27 1.901s2.49 2.937 2.84 4.828c.36 1.891.04 3.847-.89 5.529-.94 1.683-2.43 2.985-4.22 3.684 1.55.602 2.88 1.659 3.82 3.032.93 1.373 1.44 2.997 1.44 4.66s-.51 3.287-1.44 4.66c-.94 1.372-2.27 2.429-3.82 3.032 1.96.769 3.56 2.261 4.46 4.17s1.04 4.091.38 6.097h22.64v-34.286l21.31-21.514v-15.319h28.97v15.319l21.31 21.514v34.283h7.1v7.692h-178.04v-7.692h8.21c-.66-2.007-.52-4.189.38-6.099s2.5-3.401 4.47-4.169c-1.55-.603-2.89-1.66-3.82-3.032-.94-1.373-1.45-2.997-1.45-4.66s.51-3.287 1.45-4.66c.93-1.372 2.27-2.429 3.82-3.032-1.8-.698-3.29-2.001-4.22-3.683-.94-1.683-1.26-3.639-.9-5.53.35-1.891 1.36-3.599 2.84-4.828s3.34-1.901 5.27-1.901c1.92 0 3.79.672 5.27 1.901s2.48 2.937 2.84 4.828c.35 1.891.04 3.847-.9 5.53-.93 1.682-2.42 2.985-4.22 3.683zm-108.244 75.065 25.154 27.44v31.452c20.729 1.773 25.644 14.35 25.877 29.669h-56.108v-39.213l-27.638-13.269zm178.224-185.714-31.68 11.539v13.967h-49.83v-7.692h-35.09v35.086h7.69v61.893l-17.568 28.492 16.708 27.073h219.55l16.7-27.073-17.57-28.477v-61.908h7.69v-35.082h-35.09v7.692h-49.83v-13.967zm-275.803 312.718c-6.386 0-14.423 3.421-17.377 9.896l8.004-22.679c3.442-10.406 11.648-18.36 25.237-18.36h136.729c13.59 0 21.79 7.954 25.24 18.36l8 22.679c-2.96-6.475-10.99-9.896-17.38-9.896zm392.653-90.464c0 25.604-17.45 43.477-43.47 43.477h-18.61c-25.54 0-43.53 6.454-54.12 22.073h-1.29c-10.6-15.619-28.59-22.073-54.13-22.073h-18.6c-26.03 0-43.48-17.873-43.48-43.477v-48.748l-18.655-30.229 18.915-30.659v-52.025h-7.69v-50.466h50.47v7.693h34.45v-11.66l39.36-14.344 39.37 14.342v11.66h34.45v-7.693h50.47v50.468h-7.69v52.017l18.91 30.66-18.65 30.244zm-224.5 13.316c5.45 1.025 11.06.84 16.42-.543 8.97-2.93 13.97-8.336 24.32-8.209h.09c13.1-.156 19.98 9.777 33.33 9.615v.014c13.49 0 20.51-9.789 33.41-9.631h.08c13.04-.16 20.03 9.777 33.34 9.615v.014c13.54 0 20.38-9.791 33.41-9.631h.09c11.48-.135 18.21 7.471 28.65 9.25 3.96.648 8 .518 11.91-.385 1.09-2.593 1.72-5.362 1.84-8.175-2.87 1.264-5.98 1.884-9.11 1.816-10.95.155-18.93-9.777-33.34-9.616-14.68-.163-21.7 9.602-33.46 9.602v.016h-.04c-11.25.15-18.69-9.781-33.34-9.616-14.88-.165-21.51 9.602-33.46 9.602v.016h-.04c-10.96.146-18.93-9.777-33.34-9.616-12.46-.138-16.43 5.217-26.61 8.544-5.17 1.664-10.78 1.391-15.77-.769.1 2.766.64 5.498 1.62 8.087zm-1.59-16.818c5.86 1.857 12.16 1.843 18.01-.042 8.97-2.931 13.97-8.338 24.32-8.211h.09c13.1-.156 19.98 9.776 33.33 9.615v.013c13.49 0 20.51-9.788 33.41-9.63h.08c13.04-.16 20.03 9.777 33.34 9.615v.013c13.54 0 20.39-9.79 33.41-9.63h.09c13.1-.156 20.01 9.777 33.33 9.615v.014c2.77.033 5.53-.326 8.2-1.068.29-.082.58-.169.87-.261v-7.604c-2.86 1.238-5.95 1.852-9.07 1.8v.015h-.04c-10.96.146-18.93-9.777-33.34-9.615-14.69-.164-21.7 9.602-33.46 9.602v.015h-.04c-11.25.15-18.69-9.781-33.34-9.615-14.88-.166-21.51 9.602-33.46 9.602v.015h-.04c-10.95.146-18.93-9.777-33.34-9.615-12.46-.139-16.43 5.219-26.61 8.544-5.17 1.664-10.78 1.39-15.77-.769zm0-16.317c5.86 1.857 12.16 1.841 18.01-.044 8.97-2.931 13.97-8.337 24.32-8.21h.09c13.1-.156 19.98 9.777 33.33 9.616v.015c13.49 0 20.51-9.789 33.41-9.631h.08c13.04-.159 20.03 9.775 33.34 9.616v.015c13.54 0 20.39-9.79 33.41-9.631h.09c13.1-.156 20.01 9.775 33.33 9.616v.015c2.77.032 5.53-.327 8.2-1.067.29-.085.58-.171.87-.262v-7.606c-2.86 1.24-5.95 1.855-9.07 1.802v.014h-.04c-10.96.148-18.93-9.775-33.34-9.616-14.69-.163-21.7 9.602-33.46 9.602v.014h-.04c-11.25.152-18.69-9.779-33.34-9.616-14.88-.165-21.51 9.602-33.46 9.602v.014h-.04c-10.95.148-18.93-9.775-33.34-9.616-12.46-.138-16.43 5.218-26.61 8.545-5.17 1.663-10.78 1.39-15.77-.77zm273.52-219.535-11.18-2.478c-1.77-.445-3.38-1.339-4.7-2.596-1.31-1.257-2.28-2.834-2.8-4.576-3.16 5.031-2.5 11.197 6.55 11.689l12.78.692zm-333.739 4.443 11.416-.943c1.808-.201 3.533-.868 5.007-1.936 1.474-1.067 2.645-2.498 3.401-4.154 2.444 5.412.961 11.431-8.077 10.694l-12.754-1.042zm397.349 357.013 8.52-24.231h36.26c19.43 0 18.47 24.231.77 24.231zm-193.79-5.9-.28-19.615-9.83 9.783-10.06-9.775-13.99 33.715zm-34.15 42.329 14.1-14.104-14.1-14.106v14.106h34.05l14.22-14.113h-48.27v-46.398h14.1l-14.1-14.108-14.11 14.108v12.35h-19.95v19.948l34.06 14.106-24.08-24.079 9.97-9.975 14.11 34.054h-34.06v-14.106l-14.1 14.106 14.1 14.105h19.95zm.05-394.423c39.4 0 71.35-4.829 71.35-10.783s-31.95-10.782-71.35-10.782-71.35 4.828-71.35 10.782 31.95 10.783 71.35 10.783z" fill="#fff" fill-rule="evenodd"/></g><g clip-path="url(#c)"><path d="m2250 0h-750v750h750z" fill="#fff"/><path d="m1683.89 516.206h-11.17c-.35-17.142-6.67-31.194-24.23-35.875l9.64-10.75 25.76 12.37zm149.31 49.32h-39.62l-9.14-26.014c-1.9-6.191-5.55-11.703-10.5-15.874s-11-6.824-17.43-7.641c-1.43-17.639-7.63-31.731-26.78-36.062v-27.748l-30.7-33.488 13.15-42.066 29.79-10.173-11.62 18.833 19.96 32.344c.09 15.577.16 31.04.18 46.633.03 30.082 21.03 51.169 51.13 51.169h18.61c19.56 0 33.95 2.592 45.9 16.563l-12.99 12.993v7.842h-19.94zm109.72 50.836c17.31 0 30.53-9.731 35.97-26.136l9.76-27.693h116.03l-11.22 31.641h62.88c14.88 0 25.21-15.331 17.82-35.548l-6.58-19.114c-4.92-14.871-17.38-23.323-33.08-23.323l-137.36-.04c-7.04.139-13.86 2.463-19.52 6.648-5.66 4.186-9.88 10.027-12.07 16.715l-9.14 26.014h-39.86l-.18-12.331h-19.71l.08-8.21-12.93-12.929c11.96-14.025 26.36-16.625 45.96-16.625h18.6c30.1 0 51.14-21.08 51.14-51.169v-46.346l20.14-32.629-20.25-32.817v-42.054h7.69v-66.075h-66.08v7.692h-18.84v-9.294l-20.17-7.356c12.02-.731 50.52-2.809 52.09-16.936l.45-2.227 2.16.011 1.72-12.727c.48-2.411.21-4.912-.77-7.167 3.27-2.269 5.58-5.664 6.5-9.536.72-4.774 1.44-9.52 2.19-14.295l-2.87-.788 8.48-42.191c-31.46-10.705-63.47-13.24-96.55-13.24-33.45 0-65.54 2.654-97.4 13.215l9.72 48.502c-2.15 3.376-2.9 7.462-2.09 11.385l1.92 9.29c.87 3.955 3.12 7.47 6.35 9.914l2.15 10.85c2.61 13.025 40.03 15.211 51.95 15.938l-20.17 7.35v9.295h-18.85v-7.693h-22.99c-9.78-28.202-46.95-28.64-56.62-3.846l-7.18 18.5-15.74 5.375 1.61-13.211c4.04-2.326 7.07-6.056 8.53-10.477 13.14 1.082 21.36-9.133 15.77-21.504l-2.55-.314c1.15-3.019 2.01-6.432 2.93-9.548l-25.23-7.784c-4.88-7.664-12.21-11.314-20.95-12.848l-17-2.981c-2.43-4.028-6.33-6.954-10.88-8.165-4.54-1.211-9.38-.61-13.49 1.674-4.22 2.096-7.43 5.778-8.94 10.24s-1.18 9.339.9 13.562l-12.1 29.145-9.36-.849-3.23 31.27-14.33 34.507v136.777c14.08 7.364 13.64 25.241 0 31.848v53.891c-4.76 3.198-11.23 6.909-15.72 19.917l-6.58 19.114c-7.39 20.219 2.94 35.548 17.82 35.548h62.88l-11.22-31.641h116.03l9.77 27.693c5.42 16.405 18.65 26.136 35.96 26.136h50.56l11.87 11.869 5.48 5.473 17.03-17.342z" fill="#000"/><path d="m2066.14 492.461c1.96-2.442 4.45-4.408 7.28-5.75l-4.08-4.53-4.79 1.719zm44.01-215.469-3.01 25.148 17.31 72.841 3.49-20.32c7.57-44.038 24.46-49.484 48.6-42.511v7.167c-7.51 7.308-8.06 12.604-8.06 25.412v126.129c0 28.155-20.05 42.325-37.96 41.65l.13 11.08-141.66-.354.19-6.465c.43-18.217 10.38-32.115 29.67-32.115h2.92l-9.66-36 48.36-24.635 8.68-35.229-9.01-14.807-20.28 6.607-48.39-21.225v-51.365h7.85c4.86-.089 9.68.932 14.1 2.986v-9.892c-9.89-5.961-14.37-11.575-14.37-23.667v-20.352h18.65l25.95 13.1.74-2.294-2.66-.575 2.69-20.125c-8.71-.927-14.36-3.233-17.3-12.545-13.39-.727-20.38-11.663-13-23.425l4.07.227-.22-6.104 19.33-4.807c4.66-7.904 14.12-11.141 22.84-11.66l.73-9.502 7.35.168c12.55.282 21.59 3.846 28.57 14.684l19.49 30.287-2.05 16.711 2.21.254-4.06 35.787zm-405.24-55.296 11.42-.944c.37-.043.73-.186 1.03-.416.38-.241.69-.571.91-.961l14.1-.21c1.29 2.761 1.87 5.803 1.68 8.846-.17 2.315-.93 4.549-2.2 6.489-1.4 2.103-3.37 3.762-5.68 4.779-2.99 1.264-6.25 1.743-9.48 1.39l-12.75-1.042-6.58-10.396 1-2.62z" fill="#000"/><path clip-rule="evenodd" d="m1644.73 586.371-8.53-24.23h-36.26c-19.42 0-18.46 24.23-.77 24.23zm460.54 0 8.52-24.23h36.27c19.42 0 18.46 24.23.76 24.23zm-188.61-13.044h44.21c7.23 0 16.32-3.869 19.66-11.194l-9.05 25.654c-3.9 11.775-13.18 20.769-28.55 20.769h-22.92l14.09-13.981-17.37-17.365zm-109.59 35.233c-15.37 0-24.66-8.998-28.55-20.769l-9.06-25.654c3.35 7.325 12.44 11.194 19.66 11.194h44.08v3.963l-17.29 17.291 13.97 13.979z" fill="#c39600" fill-rule="evenodd"/><path clip-rule="evenodd" d="m1954.32 177.85c.81.163 1.63.326 2.45.489-.36 2.323-.72 4.647-1.06 6.973-.3 1.913-1.1 3.711-2.33 5.207-.57.705-1.24 1.329-1.98 1.854l-.96 4.794c.05.21.1.423.14.639.31 1.507.35 3.055.12 4.575-.25 1.698-.49 3.39-.72 5.085l-1.54-.289-2.1 10.415c0 5.962-31.94 10.781-71.34 10.781-38.67 0-70.14-4.648-71.31-10.448l-2.78-13.86c-.34-.193-.67-.403-.99-.63-2.61-1.85-4.46-4.583-5.21-7.693l-1.3-6.873c-.27-1.372-.25-2.783.03-4.151.29-1.368.84-2.665 1.64-3.816.29-.418.61-.815.96-1.186l-9.02-45c42.71-14.162 134.43-14.143 175.98 0z" fill="#000" fill-rule="evenodd"/><path d="m1696.05 209.145c-.64-1.375-1.6-2.578-2.8-3.51s-2.61-1.567-4.1-1.852c-7.42-1.744-10.6 5.252-2.96 6.587 6.76 1.183 9.86-1.225 9.86-1.225z" stroke="#000" stroke-miterlimit="22.926" stroke-width="15.6038"/><g clip-rule="evenodd" fill-rule="evenodd"><path d="m1696.04 209.152c-.65-1.375-1.61-2.578-2.81-3.51s-2.6-1.567-4.09-1.852c-7.42-1.744-10.6 5.25-2.96 6.587 6.76 1.182 9.86-1.225 9.86-1.225z" fill="#000"/><path d="m1757.6 414.656-18.12-29.363 18.92-30.66v-52.017h-7.69v-50.473h50.47v7.69h34.44v-11.658l39.38-14.346 39.37 14.346v11.658h34.45v-7.69h50.47v50.473h-7.69v52.017l18.91 30.66-18.11 29.363z" fill="#008c46"/><path d="m1696.04 209.153c-.64-1.375-1.6-2.578-2.8-3.51s-2.61-1.566-4.1-1.851c-7.42-1.744-10.6 5.25-2.96 6.586 6.76 1.183 9.86-1.225 9.86-1.225zm-25.82 46.291 10.79-8.566 8.56 10.791 8.57 10.788 2.22-19.354-10.79 8.566-10.79 8.563zm-38.71-4.452 10.79-8.565 8.57 10.79 8.56 10.79 10.79-8.565-8.56-10.79-10.79 8.565-10.79 8.565-8.57-10.79-10.79 8.565 2.23-19.355zm63.05 19.706 16.29 59.505h17.69l.17-3.326c.69-12.954 12.15-17.543 22-17.308v45.681l-46.51 15.834-51.57-36.829-4.48 6.258 54.78 39.423-13.37 42.965-50.48 56.291v7.431c20.73 1.773 25.65 14.35 25.88 29.669h-59.03v-46.042c14.11-7.885 14.35-30.948 0-40.533v-131.119l15.09-36.346zm-48.76-68.283c-10.43-14.3 12.5-26.106 18.53-9.723l20.89 3.665c7.27 1.275 13.27 4.004 17.01 11.679l20.85 6.433c-2.37 7.963-8.6 13.448-15.26 12.884l-19.55-1.684c-6.33-.542-10.56-.796-11.73 6.358l33.49 3.269c-2.13 10.15-9.08 11.025-15 10.313l-63.94-7.681z" fill="#fc0"/><path d="m1777.75 244.574c-7.57-20.027-34.83-17.537-41.13-1.283l-8.5 21.9-24.8 8.471 10.79 39.381 28.9-21.781v-46.688z" fill="#c39600"/><path d="m2105.52 245.533 2.23-19.862-17.53-27.244c-5.15-8.002-11.4-10.877-22.17-11.121l-.73 9.584c-9.08-1.269-21.79 1.116-24.5 10.283l-16.83 4.185c.22 5.369 2.74 9.796 7.28 10.1l27.24 1.828c2.47.075 4.81 1.123 6.51 2.916s2.63 4.186 2.57 6.658l-35.74-2.752c-.32 2.669 2.88 8.461 9.13 9.09zm-44.44-42.343c-1.71 2.677-4.15 4.816-7.02 6.168-6.23 2.692-10.62-1.764-3.05-5.089 3.22-1.189 6.67-1.56 10.07-1.079zm-.27 50.508-8.08-10.181-2.1 18.269zm36.52 4.2 10.18-8.077-2.1 18.269zm25.36 247.583c24.23 1.336 38.39-13.039 37.93-37.289v-128.346c0-9.785 2.57-17.692 7.53-22.721-21.08-5.135-28.27 14.038-32.54 38.846l-17.98 104.627-7.47-1.285 11.04-64.244-22.04-92.775 3.56-31.765-49.92-5.962-7.73 27.962 25.7 7.807-2.16 7.083-28.18-8.575-4.52-23.813-20.03-10.162h-9.04v12.55c0 10.223 3.61 13.154 14.33 19.204v25.769l23.44 11.112 32.86 53.998-8.14 33.513 25.48-13.709 3.59 6.678-77.14 38.751 10.66 39.719h-13.07c-14.89 0-21.37 10.384-21.89 23.836h65.68l-6.94-37.471 15.67-6.027 17.72 19.662h-6.12c-12.91 0-16.47 14.173-15.74 23.836h55.51l-.12-10.809.08-.046zm-61.88-251.783 10.18-8.077 8.08 10.181 8.08 10.181 10.18-8.077-8.08-10.181-10.18 8.077-10.18 8.077z" fill="#fc0"/><path d="m1815.17 370.623v-7.692h26.54v7.692zm3.46-63.515h7.69v19.79h-7.69zm23.08 19.79v13.719h-7.7v-33.502h19.64v6.05h13.65v13.223h6.94v7.693h-14.63v-13.223h-5.96v6.05zm-38.47 0v-6.05h-13.68v-13.221h-6.94v-7.692h14.63v13.223h5.99v-6.043h7.7v19.791zm98.71-27.392v-7.693h38.33v7.693zm-115.98 86.5v-7.692h8.21c-.66-2.007-.52-4.189.38-6.098s2.5-3.401 4.47-4.17c-1.55-.603-2.88-1.66-3.82-3.032-.94-1.373-1.44-2.997-1.44-4.66s.5-3.287 1.44-4.66 2.27-2.43 3.82-3.032c-1.8-.698-3.29-2.001-4.22-3.684-.94-1.682-1.26-3.638-.9-5.529s1.36-3.599 2.84-4.828 3.35-1.901 5.27-1.901 3.79.672 5.27 1.901 2.49 2.937 2.84 4.828c.36 1.891.04 3.847-.9 5.529-.93 1.683-2.42 2.986-4.22 3.684 1.55.602 2.88 1.659 3.82 3.032s1.44 2.997 1.44 4.66-.5 3.287-1.44 4.66c-.94 1.372-2.27 2.429-3.82 3.032 1.97.769 3.57 2.261 4.47 4.17s1.04 4.091.38 6.098h37.14c-.65-2.007-.51-4.189.39-6.098s2.5-3.401 4.46-4.17c-1.55-.603-2.88-1.66-3.82-3.032-.94-1.373-1.44-2.997-1.44-4.66s.5-3.287 1.44-4.66 2.27-2.43 3.82-3.032c-1.79-.698-3.28-2.001-4.22-3.684-.93-1.682-1.25-3.638-.9-5.529.36-1.891 1.37-3.599 2.85-4.828s3.34-1.901 5.27-1.901c1.92 0 3.78.672 5.26 1.901 1.49 1.229 2.49 2.937 2.85 4.828.35 1.891.03 3.847-.9 5.529-.94 1.683-2.43 2.986-4.22 3.684 1.55.602 2.88 1.659 3.82 3.032s1.44 2.997 1.44 4.66-.5 3.287-1.44 4.66c-.94 1.372-2.27 2.429-3.82 3.032 1.97.767 3.56 2.259 4.47 4.169.9 1.91 1.03 4.092.37 6.099h22.64v-34.276l21.31-21.513v-15.321h28.97v15.321l21.32 21.513v34.283h7.1v7.692zm29.2-30.769v-7.693h26.53v7.693z" fill="#fff"/><path d="m1696.78 427.73 25.14 27.439v31.454c20.73 1.773 25.65 14.35 25.88 29.669h-56.1v-39.213l-27.64-13.27z" fill="#c39600"/><path d="m1991.85 464.271c0 25.604-17.45 43.477-43.48 43.477h-18.6c-25.54 0-43.53 6.454-54.13 22.073h-1.28c-10.6-15.619-28.59-22.073-54.13-22.073h-18.61c-26.02 0-43.45-17.873-43.47-43.477l-.05-48.86 7.12-3.044h219.55l7.08 3.171z" fill="#c39600"/><path d="m1875 516.971h-.53c-6.64-7.581-22.91-16.796-46.8-16.796h-25.11c-24.35 0-36.83-16.473-36.83-36.812v-50.996h218.55v50.996c0 20.339-12.49 36.812-36.83 36.812h-25.12c-23.9 0-40.16 9.215-46.8 16.796z" fill="#fc0"/><path d="m1934.11 152.178 3.15-23.823c11.39 1.714 20.3 3.889 25.73 6.346l-4.34 22.606c-8.01-2.416-16.22-4.133-24.53-5.132m-36-3.077 1.61-24.204c9.49.438 18.39 1.125 26.43 2.013l-1.59 24.104c-8.09-.842-16.99-1.494-26.46-1.902zm-36.4-.327v-24.264c4.34-.106 8.77-.159 13.29-.159 4.51 0 8.94.053 13.28.159v24.275c-4.34-.104-8.77-.157-13.28-.159-4.52-.003-8.95.05-13.3.159zm-74.7-14.073c5.42-2.466 14.34-4.641 25.72-6.347l3.16 23.822c-8.35 1.001-16.6 2.732-24.65 5.175zm124.38 62.802c.83 0 1.65-.248 2.34-.711s1.23-1.121 1.55-1.892c.32-.77.41-1.617.24-2.435-.16-.818-.56-1.569-1.15-2.159-.59-.589-1.34-.991-2.16-1.153-.82-.163-1.66-.079-2.43.24-.78.319-1.43.859-1.9 1.552-.46.693-.71 1.508-.71 2.342 0 .554.11 1.102.32 1.613.22.512.53.976.92 1.368.39.391.85.702 1.37.914.51.212 1.05.321 1.61.321zm-31.77-1.679c.83 0 1.64-.247 2.34-.71.69-.463 1.23-1.121 1.55-1.892.32-.77.4-1.618.24-2.436-.16-.817-.56-1.569-1.15-2.158-.59-.59-1.34-.992-2.16-1.154-.82-.163-1.67-.079-2.44.24s-1.43.86-1.89 1.554c-.46.693-.71 1.508-.71 2.342 0 .554.11 1.102.32 1.614s.52.977.91 1.369c.4.392.86.703 1.37.915s1.06.321 1.62.321zm63.31 5.813c.83 0 1.65-.247 2.34-.71s1.23-1.122 1.55-1.892.41-1.618.24-2.436c-.16-.817-.56-1.568-1.15-2.158-.59-.589-1.34-.991-2.16-1.154-.82-.162-1.66-.079-2.43.24s-1.43.86-1.9 1.553c-.46.693-.71 1.508-.71 2.342 0 .554.11 1.103.32 1.615s.52.977.92 1.369c.39.392.85.703 1.36.916.52.212 1.06.321 1.62.321zm-127.38-1.113c.84 0 1.65-.247 2.34-.71.7-.463 1.24-1.121 1.56-1.891s.4-1.618.24-2.436-.57-1.569-1.15-2.159c-.59-.589-1.35-.991-2.16-1.154-.82-.163-1.67-.079-2.44.24s-1.43.859-1.89 1.552-.71 1.509-.71 2.342c0 .554.11 1.103.32 1.615s.52.978.91 1.37.86.703 1.37.915 1.06.321 1.61.321zm16.37-24.125c.83 0 1.65.247 2.34.71.69.464 1.23 1.122 1.55 1.892.32.771.41 1.618.24 2.436-.16.818-.56 1.569-1.15 2.159-.59.589-1.34.99-2.16 1.153-.82.162-1.67.078-2.44-.241s-1.42-.86-1.89-1.553c-.46-.694-.71-1.509-.71-2.343.01-1.117.45-2.187 1.24-2.976s1.86-1.232 2.98-1.232zm65.83-2.116c.83 0 1.65.248 2.34.711s1.23 1.121 1.55 1.892c.32.77.4 1.617.24 2.435s-.56 1.569-1.15 2.158c-.59.59-1.34.991-2.16 1.154s-1.66.079-2.44-.24c-.77-.319-1.42-.859-1.89-1.552-.46-.694-.71-1.509-.71-2.342 0-1.117.45-2.187 1.24-2.975.79-.789 1.86-1.232 2.98-1.231zm-33.09-.317c.83 0 1.65.247 2.34.71.7.462 1.24 1.121 1.56 1.891.31.77.4 1.618.24 2.436-.17.817-.57 1.569-1.16 2.158-.59.59-1.34.992-2.16 1.155-.81.162-1.66.079-2.43-.24s-1.43-.859-1.89-1.552c-.47-.694-.71-1.509-.71-2.343 0-1.116.44-2.185 1.23-2.973.79-.789 1.86-1.232 2.98-1.232zm65.81 3.383c.84 0 1.65.247 2.35.71.69.464 1.23 1.122 1.55 1.892.32.771.4 1.618.24 2.436-.17.818-.57 1.569-1.16 2.159-.59.589-1.34.99-2.16 1.153-.81.162-1.66.078-2.43-.241s-1.43-.86-1.89-1.553c-.47-.694-.71-1.509-.71-2.343 0-1.116.45-2.185 1.24-2.974.79-.788 1.86-1.23 2.97-1.23zm-129.93 3.7c.83-.001 1.65.246 2.34.709s1.23 1.121 1.55 1.892c.32.77.41 1.617.24 2.435-.16.818-.56 1.569-1.15 2.159s-1.34.992-2.16 1.154c-.82.163-1.66.08-2.43-.239s-1.43-.859-1.9-1.553c-.46-.693-.71-1.508-.71-2.342 0-1.116.45-2.186 1.24-2.974.79-.789 1.86-1.232 2.98-1.232zm46.99 15.929c.83 0 1.65-.248 2.34-.711s1.23-1.121 1.55-1.892c.32-.77.4-1.617.24-2.435s-.56-1.569-1.15-2.159c-.59-.589-1.34-.991-2.16-1.153-.82-.163-1.67-.079-2.44.24s-1.42.859-1.89 1.552c-.46.693-.71 1.508-.71 2.342 0 .555.11 1.104.32 1.616.21.513.52.979.91 1.371.39.393.86.704 1.37.916.51.213 1.06.322 1.62.322zm-45.54-20.483c1.42-.239 2.86-.439 4.32-.662.35 2.308.7 4.616 1.06 6.923.27 1.705.13 3.449-.42 5.087 1.16-.181 2.33-.358 3.54-.54.03 0 .05-.012.1-.02-.33-3.236.63-6.472 2.66-9.013s4.97-4.183 8.2-4.575c5.88-.721 11.8-1.343 17.74-1.867.13 1.696.29 3.392.43 5.086.21 2.427-.28 4.862-1.42 7.017 1.47-.132 2.94-.255 4.42-.384.03 0 .06 0 .11-.012-.1-3.236 1.07-6.385 3.27-8.759 2.25-2.428 5.35-3.884 8.66-4.06 5.98-.298 11.98-.454 17.98-.556.02 1.708.08 3.421.1 5.121.05 2.446-.62 4.851-1.92 6.924l4.48-.06h.12c.05-1.598.42-3.17 1.08-4.625.67-1.454 1.61-2.762 2.79-3.848 2.42-2.259 5.63-3.471 8.94-3.371 6 .192 11.99.509 17.97.873-.1 1.719-.16 3.442-.24 5.157-.12 2.448-.95 4.808-2.39 6.793 1.49.094 2.98.219 4.45.348.04 0 .07 0 .12.011.16-1.605.64-3.162 1.41-4.58s1.81-2.668 3.07-3.677c1.26-1.008 2.71-1.756 4.26-2.198s3.18-.571 4.78-.377c5.91.69 11.77 1.538 17.64 2.446-.21 1.715-.38 3.432-.59 5.138-.28 2.416-1.25 4.7-2.8 6.573 1.46.243 2.89.487 4.35.733.03.007.06.012.08.015.05-.411.1-.823.15-1.24.16-1.395.59-2.745 1.29-3.965.69-1.22 1.63-2.284 2.75-3.127 1.13-.83 2.42-1.413 3.79-1.709 1.36-.296 2.78-.3 4.15-.011 1.42.283 2.84.577 4.28.854-.36 2.323-.71 4.647-1.06 6.971-.29 1.914-1.1 3.713-2.33 5.21-1.15 1.421-2.67 2.5-4.4 3.121 1.57 2.628 2.18 5.715 1.73 8.741-.25 1.698-.49 3.39-.72 5.084-5.44-1.017-10.88-1.996-16.37-2.869-3.14-.524-5.98-2.207-7.94-4.717-2.05-2.562-3.12-5.77-3.02-9.05-1.49-.171-2.98-.344-4.47-.52 1.16 2.204 1.67 4.689 1.47 7.17-.14 1.718-.28 3.435-.41 5.152-5.59-.658-11.18-1.209-16.78-1.652-3.18-.276-6.15-1.723-8.32-4.062-2.24-2.349-3.55-5.442-3.67-8.69l-4.53-.173c1.3 2.096 1.98 4.518 1.95 6.984-.02 1.712-.03 3.421-.05 5.129-5.63-.156-11.29-.25-16.92-.192-3.18.021-6.25-1.157-8.6-3.298-2.39-2.16-3.89-5.128-4.23-8.333-1.52.056-3.01.142-4.51.233 1.42 1.967 2.26 4.304 2.4 6.731.1 1.705.19 3.401.29 5.1-5.62.33-11.23.707-16.79 1.201-3.14.275-6.26-.665-8.71-2.625-2.52-1.986-4.21-4.839-4.73-8.001-1.51.192-2.98.384-4.43.576 1.54 1.871 2.52 4.143 2.81 6.549.22 1.691.43 3.378.65 5.061-5.52.717-10.98 1.483-16.44 2.327-3.06.472-6.19-.272-8.71-2.075-2.61-1.85-4.46-4.583-5.21-7.692-.05-.22-.08-.437-.13-.656-.31-1.667-.63-3.333-.94-5-.07-.406-.16-.804-.23-1.21-.27-1.379-.25-2.797.04-4.171s.85-2.676 1.65-3.829c.8-1.154 1.83-2.135 3.01-2.888 1.19-.752 2.51-1.259 3.9-1.492zm155.32-12.533c-15.98-4.927-46.85-8.269-82.32-8.269-35.48 0-66.35 3.338-82.32 8.269l1.44 7.729c16.34-4.69 46.45-7.842 80.88-7.842 34.42 0 64.53 3.146 80.87 7.836zm-131.88-12.936-1.6-24.1c8.05-.891 16.94-1.573 26.44-2.014l1.6 24.204c-9.47.406-18.36 1.056-26.44 1.91z" fill="#fc0"/><path d="m1874.99 221.909c30.02 0 54.35-1.923 54.35-4.316 0-2.392-24.33-4.315-54.35-4.315-30.01 0-54.34 1.923-54.34 4.315 0 2.393 24.33 4.316 54.34 4.316zm0 6.465c39.41 0 71.35-4.827 71.35-10.781s-31.94-10.782-71.35-10.782c-39.4 0-71.34 4.826-71.34 10.782s31.94 10.781 71.34 10.781z" fill="#c39600"/><path d="m1875 242.016-31.68 11.542v13.967h-49.83v-7.692h-35.09v35.09h7.69v61.893l-17.57 28.477 17.2 27.073-7.66 3.044-18.58-30.117 18.92-30.66v-52.017h-7.69v-50.473h50.47v7.69h34.44v-11.658l39.38-14.346 39.37 14.346v11.658h34.45v-7.69h50.47v50.473h-7.69v52.017l18.91 30.66-18.83 30.515-7.4-3.442 17.2-27.073-17.57-28.477v-61.893h7.69v-35.09h-35.09v7.692h-49.83v-13.967z" fill="#006423"/><path d="m1907.76 378.313c-8.54-9.383-10.16-25.193.06-32.283l5.37 6.556 2.63-20.837c9.15 1.944 13.31 9.45 14.14 16.308l6.51-7.802c11.24 12.9 8.01 31.031-1.98 38.058h-7.7c7.12-8.37 4.56-19.808-3.83-26.526l-1.34 12.854-6.21-7.271c-5.28 5.948-4.6 16.398.05 20.943z" fill="#dc000a"/><path d="m2040.83 341.345-23.49-.033v-10.159c0-12.568-10.21-15.368-18.22-15.356v38.49l40.99 17.977 15.66-5.215z" fill="#c39600"/><path d="m2150.8 554.734c6.39 0 14.43 3.421 17.38 9.896l-8-22.679c-3.45-10.407-11.65-18.361-25.24-18.361h-136.73c-13.58 0-21.79 7.954-25.23 18.361l-8.01 22.679c2.96-6.475 10.99-9.896 17.38-9.896zm-551.6 0c-6.39 0-14.43 3.421-17.38 9.896l8-22.679c3.44-10.407 11.65-18.361 25.24-18.361h136.73c13.59 0 21.79 7.954 25.24 18.361l8 22.679c-2.96-6.475-10.99-9.896-17.38-9.896z" fill="#fc0"/></g><path d="m1767.49 475.962c2.34.584 4.74.891 7.14.913 13.54-.494 20.4-9.79 33.43-9.631 13.44 0 20.11 9.777 33.43 9.616v.013c13.49 0 20.52-9.788 33.42-9.631h.08c13.05-.159 20.04 9.775 33.35 9.616v.013c13.55 0 20.4-9.79 33.42-9.631h.1c13.11-.155 20.02 9.777 33.34 9.616 0 .384 5.09-.444 7.28-.86 1.2-4.106 1.81-8.366 1.78-12.646v-24.181c-2.86 1.237-5.95 1.85-9.07 1.798l-.04.014c-10.96.148-18.94-9.777-33.35-9.616-14.69-.163-21.71 9.602-33.46 9.602l-.04.014c-11.25.152-18.7-9.779-33.35-9.616-14.89-.165-21.52 9.602-33.46 9.602l-.04.014c-10.97.148-18.94-9.777-33.35-9.616-14.69-.163-21.72 9.602-33.47 9.602 0 .745-7.94-1.45-8.91-1.825v24.208c-.02 4.266.57 8.512 1.77 12.606" fill="#fff"/><path d="m1765.71 468.35c2.88.946 5.9 1.406 8.93 1.363v.014c13.55 0 20.4-9.791 33.42-9.631h.09c13.1-.156 19.99 9.777 33.34 9.615v.014c13.5 0 20.52-9.789 33.43-9.631h.08c13.04-.16 20.04 9.775 33.35 9.615v.014c13.54 0 20.4-9.79 33.42-9.631h.09c13.11-.156 20.02 9.775 33.34 9.616v.013c3.08.035 6.14-.414 9.07-1.331v-7.602c-2.86 1.238-5.95 1.852-9.07 1.8v.014h-.04c-10.96.148-18.94-9.775-33.35-9.616-14.69-.163-21.71 9.602-33.46 9.602l-.04.014c-11.25.152-18.7-9.779-33.35-9.616-14.89-.165-21.52 9.602-33.46 9.602l-.04.014c-10.97.148-18.94-9.775-33.35-9.616-14.7-.163-21.72 9.602-33.47 9.602l-.04.014c-3.05.003-6.08-.624-8.88-1.841zm0-14.387c2.88.947 5.9 1.408 8.93 1.364v.013c13.55 0 20.4-9.788 33.42-9.629h.09c13.1-.155 19.99 9.777 33.34 9.616v.013c13.5 0 20.52-9.786 33.43-9.629h.08c13.04-.159 20.04 9.775 33.35 9.616v.013c13.54 0 20.4-9.788 33.42-9.629h.09c13.11-.155 20.02 9.775 33.34 9.616v.013c3.08.036 6.14-.413 9.07-1.329v-7.603c-2.86 1.239-5.95 1.853-9.07 1.802l-.04.013c-10.96.146-18.94-9.777-33.35-9.615-14.69-.164-21.71 9.602-33.46 9.602l-.04.013c-11.25.152-18.7-9.779-33.35-9.615-14.89-.168-21.52 9.602-33.46 9.602l-.04.013c-10.97.146-18.94-9.777-33.35-9.615-14.7-.164-21.72 9.602-33.47 9.602l-.04.013c-3.05.003-6.08-.623-8.88-1.84z" fill="#00b4ff"/><path clip-rule="evenodd" d="m2039.28 224.918-11.19-2.479c-1.76-.445-3.38-1.339-4.7-2.596-1.31-1.257-2.28-2.834-2.8-4.575-3.15 5.03-2.5 11.196 6.55 11.688l12.78.692zm-333.74 4.44 11.41-.944c1.81-.201 3.54-.867 5.01-1.935 1.47-1.067 2.64-2.498 3.4-4.154 2.44 5.41.96 11.431-8.08 10.694l-12.75-1.042z" fill="#dc000a" fill-rule="evenodd"/><path clip-rule="evenodd" d="m1840.89 580.478v14.106l34.05 14.103h14.11l34.16-14.111-14.11-14.104-.28-19.611-19.89.005.12-12.686h-14.11l-14.1 12.35-9.98 9.973z" fill="#a2acb0" fill-rule="evenodd"/><path clip-rule="evenodd" d="m1909.1 580.47-.29-19.615-9.82 9.783-10.06-9.777-13.99 33.715zm-34.16 42.321 14.1-14.105-14.1-14.104v14.104h34.05l14.22-14.114h-48.27v-46.394h14.1l-14.1-14.108-14.11 14.108v12.35h-19.94v19.948l34.05 14.106-24.08-24.081 9.97-9.973 14.11 34.054-34.06-.002v-14.106l-14.1 14.104 14.1 14.108h19.95z" fill="#fff" fill-rule="evenodd"/></g><g clip-path="url(#d)"><path d="m3000 0h-750v750h750z" fill="#000"/><path d="m2433.89 516.206h-11.17c-.35-17.142-6.67-31.194-24.23-35.875l9.64-10.75 25.76 12.37zm149.31 49.32h-39.62l-9.14-26.014c-1.9-6.191-5.55-11.702-10.5-15.873s-11-6.825-17.43-7.642c-1.43-17.639-7.63-31.731-26.78-36.062v-27.748l-30.7-33.488 13.15-42.066 29.79-10.173-11.62 18.833 19.96 32.344c.09 15.577.16 31.04.18 46.633.02 30.082 21.03 51.169 51.13 51.169h18.61c19.56 0 33.95 2.592 45.9 16.563l-12.99 12.993v7.842h-19.94zm109.72 50.836c17.31 0 30.53-9.731 35.97-26.136l9.76-27.693h116.03l-11.22 31.641h62.88c14.88 0 25.21-15.331 17.82-35.548l-6.58-19.114c-4.92-14.871-17.38-23.323-33.08-23.323l-137.36-.04c-7.04.139-13.86 2.463-19.52 6.648-5.66 4.186-9.88 10.027-12.07 16.715l-9.14 26.014h-39.86l-.18-12.331h-19.71l.08-8.21-12.93-12.929c11.96-14.025 26.36-16.625 45.96-16.625h18.6c30.1 0 51.14-21.08 51.14-51.169v-46.346l20.14-32.629-20.25-32.817v-42.054h7.69v-66.075h-66.08v7.692h-18.84v-9.294l-20.17-7.356c12.02-.731 50.51-2.809 52.09-16.936l.45-2.227 2.16.011 1.71-12.727c.49-2.411.22-4.912-.76-7.167 3.26-2.269 5.58-5.664 6.5-9.536.72-4.774 1.44-9.52 2.19-14.295l-2.87-.788 8.48-42.191c-31.46-10.705-63.47-13.24-96.55-13.24-33.45 0-65.54 2.654-97.4 13.215l9.72 48.502c-2.15 3.376-2.91 7.462-2.09 11.385l1.92 9.29c.87 3.955 3.12 7.47 6.35 9.914l2.15 10.85c2.61 13.025 40.03 15.211 51.95 15.938l-20.17 7.35v9.295h-18.85v-7.693h-22.99c-9.78-28.202-46.95-28.64-56.62-3.846l-7.18 18.5-15.74 5.375 1.61-13.211c4.04-2.326 7.07-6.056 8.53-10.477 13.14 1.082 21.36-9.133 15.76-21.504l-2.54-.314c1.15-3.019 2.01-6.432 2.93-9.548l-25.24-7.784c-4.87-7.664-12.2-11.314-20.95-12.848l-16.99-2.981c-2.43-4.028-6.33-6.954-10.88-8.165-4.54-1.211-9.38-.61-13.49 1.674-4.22 2.096-7.43 5.778-8.94 10.24s-1.18 9.339.9 13.562l-12.1 29.145-9.36-.849-3.23 31.27-14.33 34.507v136.777c14.08 7.364 13.64 25.241 0 31.848v53.891c-4.76 3.198-11.23 6.909-15.72 19.917l-6.58 19.114c-7.39 20.217 2.94 35.548 17.82 35.548h62.88l-11.22-31.641h116.03l9.77 27.693c5.42 16.405 18.65 26.136 35.96 26.136h50.56l11.87 11.869 5.48 5.473 17.03-17.342z" fill="#000"/><path d="m2816.14 492.461c1.96-2.442 4.45-4.408 7.28-5.75l-4.08-4.53-4.79 1.719zm44.01-215.469-3.01 25.148 17.31 72.841 3.49-20.32c7.57-44.038 24.46-49.484 48.6-42.511v7.167c-7.51 7.308-8.06 12.604-8.06 25.412v126.129c0 28.155-20.05 42.325-37.96 41.65l.13 11.08-141.67-.354.2-6.465c.43-18.217 10.38-32.115 29.67-32.115h2.92l-9.66-36 48.36-24.635 8.68-35.229-9.01-14.807-20.28 6.607-48.39-21.225v-51.365h7.85c4.86-.089 9.68.932 14.09 2.986v-9.892c-9.88-5.961-14.36-11.575-14.36-23.667v-20.352h18.65l25.95 13.1.74-2.294-2.66-.575 2.69-20.125c-8.71-.927-14.36-3.233-17.3-12.545-13.39-.727-20.38-11.663-13-23.425l4.07.227-.22-6.104 19.33-4.807c4.66-7.904 14.12-11.141 22.84-11.66l.73-9.502 7.35.168c12.55.282 21.59 3.846 28.57 14.684l19.49 30.287-2.05 16.711 2.21.254-4.06 35.787zm-405.24-55.296 11.42-.944c.37-.042.73-.186 1.03-.416.38-.241.69-.571.91-.961l14.1-.21c1.29 2.761 1.87 5.803 1.68 8.846-.17 2.315-.93 4.549-2.2 6.489-1.4 2.103-3.37 3.762-5.68 4.779-2.99 1.264-6.25 1.743-9.48 1.39l-12.75-1.042-6.58-10.396 1-2.62z" fill="#000"/><path clip-rule="evenodd" d="m2394.73 586.371-8.53-24.23h-36.26c-19.42 0-18.46 24.23-.77 24.23zm460.54 0 8.52-24.23h36.27c19.42 0 18.46 24.23.76 24.23zm-188.61-13.044h44.21c7.23 0 16.32-3.869 19.66-11.194l-9.05 25.654c-3.9 11.775-13.18 20.769-28.55 20.769h-22.92l14.09-13.981-17.37-17.365zm-109.59 35.233c-15.37 0-24.66-8.998-28.55-20.769l-9.06-25.654c3.35 7.325 12.44 11.194 19.66 11.194h44.08v3.963l-17.29 17.291 13.97 13.979z" fill="#c39600" fill-rule="evenodd"/><path clip-rule="evenodd" d="m2704.32 177.85c.81.163 1.63.326 2.45.489-.37 2.323-.72 4.647-1.06 6.973-.3 1.913-1.1 3.711-2.33 5.207-.57.705-1.24 1.328-1.98 1.854l-.96 4.794c.05.21.1.423.14.639.31 1.507.35 3.055.12 4.575-.25 1.698-.49 3.39-.72 5.085l-1.54-.289-2.09 10.415c0 5.962-31.95 10.781-71.35 10.781-38.67 0-70.14-4.648-71.31-10.448l-2.78-13.86c-.34-.193-.67-.403-.99-.63-2.61-1.85-4.46-4.583-5.21-7.693l-1.3-6.873c-.27-1.372-.25-2.783.03-4.151.29-1.368.84-2.665 1.64-3.816.29-.418.61-.815.96-1.186l-9.02-45c42.71-14.162 134.43-14.143 175.98 0z" fill="#000" fill-rule="evenodd"/><path d="m2446.06 209.144c-.64-1.375-1.61-2.578-2.81-3.51-1.19-.932-2.6-1.566-4.09-1.852-7.42-1.744-10.6 5.252-2.96 6.587 6.76 1.183 9.86-1.225 9.86-1.225z" stroke="#000" stroke-miterlimit="22.926" stroke-width="15.6038"/><g clip-rule="evenodd" fill-rule="evenodd"><path d="m2446.04 209.152c-.65-1.375-1.61-2.578-2.81-3.51s-2.6-1.567-4.09-1.852c-7.42-1.744-10.6 5.25-2.96 6.587 6.76 1.182 9.86-1.225 9.86-1.225z" fill="#000"/><path d="m2507.6 414.656-18.12-29.363 18.92-30.66v-52.017h-7.69v-50.473h50.47v7.69h34.44v-11.658l39.38-14.346 39.37 14.346v11.658h34.45v-7.69h50.47v50.473h-7.69v52.017l18.91 30.66-18.11 29.363z" fill="#008c46"/><path d="m2446.04 209.153c-.64-1.375-1.6-2.578-2.8-3.51s-2.61-1.566-4.1-1.851c-7.42-1.744-10.6 5.25-2.96 6.586 6.76 1.183 9.86-1.225 9.86-1.225zm-25.82 46.291 10.78-8.566 8.57 10.791 8.57 10.788 2.22-19.354-10.79 8.566-10.79 8.563zm-38.71-4.452 10.79-8.565 8.57 10.79 8.56 10.79 10.79-8.565-8.56-10.79-10.79 8.565-10.79 8.565-8.57-10.79-10.79 8.565 2.23-19.355zm63.05 19.706 16.29 59.505h17.69l.17-3.326c.69-12.954 12.15-17.543 22-17.308v45.681l-46.51 15.834-51.57-36.829-4.48 6.258 54.78 39.423-13.37 42.965-50.48 56.291v7.431c20.73 1.773 25.65 14.35 25.88 29.669h-59.03v-46.042c14.11-7.885 14.35-30.948 0-40.533v-131.119l15.09-36.346zm-48.76-68.283c-10.43-14.3 12.5-26.106 18.53-9.723l20.89 3.665c7.27 1.275 13.27 4.004 17.01 11.679l20.85 6.433c-2.37 7.963-8.6 13.448-15.26 12.884l-19.55-1.684c-6.33-.542-10.56-.796-11.73 6.358l33.49 3.269c-2.13 10.15-9.08 11.025-15 10.313l-63.94-7.681z" fill="#fc0"/><path d="m2527.75 244.574c-7.57-20.027-34.83-17.537-41.13-1.283l-8.5 21.9-24.8 8.471 10.79 39.381 28.9-21.781v-46.688z" fill="#c39600"/><path d="m2855.52 245.533 2.23-19.862-17.53-27.244c-5.15-8.002-11.4-10.877-22.17-11.121l-.73 9.584c-9.08-1.269-21.79 1.116-24.5 10.283l-16.83 4.185c.22 5.369 2.74 9.796 7.28 10.1l27.24 1.828c2.47.075 4.81 1.123 6.51 2.916s2.63 4.186 2.57 6.658l-35.74-2.752c-.32 2.669 2.88 8.461 9.13 9.09zm-44.44-42.343c-1.71 2.677-4.15 4.816-7.02 6.168-6.23 2.692-10.62-1.764-3.05-5.089 3.22-1.189 6.67-1.56 10.07-1.079zm-.27 50.508-8.08-10.181-2.1 18.269zm36.52 4.2 10.18-8.077-2.1 18.269zm25.36 247.583c24.23 1.336 38.39-13.039 37.93-37.289v-128.346c0-9.785 2.57-17.692 7.53-22.721-21.08-5.135-28.27 14.038-32.54 38.846l-17.98 104.627-7.47-1.285 11.04-64.244-22.04-92.775 3.56-31.765-49.92-5.962-7.73 27.962 25.7 7.807-2.16 7.083-28.18-8.575-4.52-23.813-20.03-10.162h-9.04v12.55c0 10.223 3.61 13.154 14.34 19.204v25.769l23.44 11.112 32.85 53.998-8.14 33.513 25.48-13.709 3.59 6.678-77.14 38.751 10.66 39.719h-13.07c-14.89 0-21.37 10.384-21.89 23.836h65.68l-6.94-37.471 15.67-6.027 17.72 19.662h-6.12c-12.91 0-16.47 14.173-15.74 23.836h55.51l-.12-10.809.08-.046zm-61.88-251.783 10.18-8.077 8.08 10.181 8.08 10.181 10.18-8.077-8.08-10.181-10.18 8.077-10.18 8.077z" fill="#fc0"/><path d="m2565.17 370.623v-7.692h26.54v7.692zm3.46-63.515h7.69v19.79h-7.69zm23.08 19.79v13.719h-7.7v-33.502h19.64v6.05h13.65v13.223h6.94v7.693h-14.63v-13.223h-5.96v6.05zm-38.47 0v-6.05h-13.68v-13.221h-6.94v-7.692h14.63v13.223h5.99v-6.043h7.7v19.791zm98.71-27.392v-7.693h38.33v7.693zm-115.98 86.5v-7.692h8.21c-.66-2.007-.52-4.189.38-6.098s2.5-3.401 4.47-4.17c-1.55-.603-2.88-1.66-3.82-3.032-.94-1.373-1.44-2.997-1.44-4.66s.5-3.287 1.44-4.66 2.27-2.43 3.82-3.032c-1.8-.698-3.29-2.001-4.22-3.684-.94-1.682-1.26-3.638-.9-5.529s1.36-3.599 2.84-4.828 3.35-1.901 5.27-1.901 3.79.672 5.27 1.901 2.49 2.937 2.84 4.828c.36 1.891.04 3.847-.9 5.529-.93 1.683-2.42 2.986-4.22 3.684 1.55.602 2.88 1.659 3.82 3.032s1.44 2.997 1.44 4.66-.5 3.287-1.44 4.66c-.94 1.372-2.27 2.429-3.82 3.032 1.97.769 3.57 2.261 4.47 4.17s1.04 4.091.38 6.098h37.14c-.65-2.007-.51-4.189.39-6.098s2.5-3.401 4.46-4.17c-1.55-.603-2.88-1.66-3.82-3.032-.94-1.373-1.44-2.997-1.44-4.66s.5-3.287 1.44-4.66 2.27-2.43 3.82-3.032c-1.79-.698-3.28-2.001-4.22-3.684-.93-1.682-1.25-3.638-.9-5.529.36-1.891 1.37-3.599 2.85-4.828s3.34-1.901 5.27-1.901c1.92 0 3.78.672 5.26 1.901 1.49 1.229 2.49 2.937 2.85 4.828.35 1.891.03 3.847-.9 5.529-.94 1.683-2.43 2.986-4.22 3.684 1.55.602 2.88 1.659 3.82 3.032s1.44 2.997 1.44 4.66-.5 3.287-1.44 4.66c-.94 1.372-2.27 2.429-3.82 3.032 1.97.767 3.56 2.259 4.47 4.169.9 1.91 1.03 4.092.37 6.099h22.64v-34.276l21.31-21.513v-15.321h28.97v15.321l21.32 21.513v34.283h7.1v7.692zm29.2-30.769v-7.693h26.53v7.693z" fill="#fff"/><path d="m2446.77 427.73 25.15 27.439v31.454c20.73 1.773 25.64 14.35 25.87 29.669h-56.1v-39.213l-27.64-13.27z" fill="#c39600"/><path d="m2741.85 464.271c0 25.604-17.45 43.477-43.48 43.477h-18.6c-25.54 0-43.53 6.454-54.13 22.073h-1.28c-10.6-15.619-28.59-22.073-54.13-22.073h-18.61c-26.02 0-43.45-17.873-43.47-43.477l-.05-48.86 7.12-3.044h219.55l7.08 3.171z" fill="#c39600"/><path d="m2624.99 516.971h-.53c-6.64-7.581-22.9-16.796-46.8-16.796h-25.11c-24.34 0-36.83-16.473-36.83-36.812v-50.996h218.55v50.996c0 20.339-12.48 36.812-36.83 36.812h-25.12c-23.9 0-40.16 9.215-46.8 16.796z" fill="#fc0"/><path d="m2684.11 152.178 3.15-23.823c11.39 1.714 20.3 3.889 25.73 6.346l-4.34 22.606c-8.01-2.416-16.22-4.133-24.53-5.132m-36-3.077 1.61-24.204c9.49.438 18.39 1.125 26.43 2.013l-1.59 24.104c-8.09-.842-16.99-1.494-26.46-1.902zm-36.4-.327v-24.264c4.34-.106 8.77-.159 13.29-.159 4.51 0 8.94.053 13.28.159v24.275c-4.34-.104-8.77-.157-13.28-.159-4.52-.003-8.95.05-13.3.159zm-74.7-14.073c5.42-2.466 14.34-4.641 25.72-6.347l3.16 23.822c-8.35 1.001-16.6 2.732-24.65 5.175zm124.38 62.802c.83 0 1.65-.248 2.34-.711s1.23-1.121 1.55-1.892c.32-.77.41-1.617.24-2.435-.16-.818-.56-1.569-1.15-2.159-.59-.589-1.34-.991-2.16-1.153-.82-.163-1.66-.079-2.43.24-.78.319-1.43.859-1.9 1.552-.46.693-.71 1.508-.71 2.342 0 .554.11 1.102.32 1.613.22.512.53.976.92 1.368.39.391.85.702 1.37.914.51.212 1.05.321 1.61.321zm-31.77-1.679c.83 0 1.64-.247 2.34-.71.69-.463 1.23-1.121 1.55-1.892.32-.77.4-1.618.24-2.436-.16-.817-.56-1.569-1.15-2.158-.59-.59-1.34-.992-2.16-1.154-.82-.163-1.67-.079-2.44.24s-1.43.86-1.89 1.554c-.46.693-.71 1.508-.71 2.342 0 .554.11 1.103.32 1.614.21.512.52.977.91 1.369.4.392.86.703 1.37.915s1.06.321 1.62.321zm63.31 5.813c.83 0 1.65-.247 2.34-.71s1.23-1.122 1.55-1.892.41-1.618.24-2.436c-.16-.817-.56-1.568-1.15-2.158-.59-.589-1.34-.991-2.16-1.154-.82-.162-1.66-.079-2.43.24s-1.43.86-1.9 1.553c-.46.693-.71 1.508-.71 2.342 0 .554.11 1.103.32 1.615s.52.977.92 1.369c.39.392.85.703 1.36.916.52.212 1.06.321 1.62.321zm-127.38-1.113c.84 0 1.65-.247 2.34-.71.7-.463 1.24-1.121 1.56-1.891s.4-1.618.24-2.436-.57-1.569-1.15-2.159c-.59-.589-1.35-.991-2.16-1.154-.82-.163-1.67-.079-2.44.24s-1.43.859-1.89 1.552-.71 1.509-.71 2.342c0 .554.11 1.103.32 1.615s.52.978.91 1.37.86.703 1.37.915 1.06.321 1.61.321zm16.37-24.125c.83 0 1.65.247 2.34.71.69.464 1.23 1.122 1.55 1.892.32.771.41 1.618.24 2.436-.16.818-.56 1.569-1.15 2.159-.59.589-1.34.99-2.16 1.153-.82.162-1.67.078-2.44-.241s-1.42-.86-1.89-1.553c-.46-.694-.71-1.509-.71-2.343.01-1.117.45-2.187 1.24-2.976s1.86-1.232 2.98-1.232zm65.83-2.116c.83 0 1.65.247 2.34.71s1.23 1.121 1.55 1.891.4 1.618.24 2.436-.56 1.569-1.15 2.159c-.59.589-1.34.991-2.16 1.154s-1.66.079-2.43-.24c-.78-.319-1.43-.859-1.9-1.552-.46-.693-.71-1.508-.71-2.342 0-1.116.45-2.186 1.24-2.975.79-.788 1.86-1.231 2.98-1.231zm-33.09-.317c.83 0 1.65.247 2.34.71.7.462 1.24 1.121 1.56 1.891.31.77.4 1.618.24 2.436-.17.817-.57 1.569-1.16 2.158-.59.59-1.34.992-2.16 1.155-.81.162-1.66.079-2.43-.24s-1.43-.859-1.89-1.552c-.47-.694-.71-1.509-.71-2.343 0-1.116.44-2.185 1.23-2.973.79-.789 1.86-1.232 2.98-1.232zm65.81 3.383c.84 0 1.65.247 2.35.71.69.464 1.23 1.122 1.55 1.892.32.771.4 1.618.24 2.436-.17.818-.57 1.569-1.16 2.159-.59.589-1.34.99-2.16 1.153-.81.162-1.66.078-2.43-.241s-1.43-.86-1.89-1.553c-.47-.694-.71-1.509-.71-2.343 0-1.116.45-2.185 1.24-2.974.79-.788 1.86-1.23 2.97-1.23zm-129.93 3.7c.83-.001 1.65.246 2.34.709s1.23 1.121 1.55 1.892c.32.77.41 1.617.24 2.435-.16.818-.56 1.569-1.15 2.159s-1.34.992-2.16 1.154c-.82.163-1.66.08-2.43-.239s-1.43-.859-1.9-1.553c-.46-.693-.71-1.508-.71-2.342.01-1.116.45-2.185 1.24-2.974.79-.788 1.86-1.231 2.98-1.232zm46.99 15.929c.83 0 1.65-.248 2.34-.711s1.23-1.121 1.55-1.892c.32-.77.4-1.617.24-2.435s-.56-1.569-1.15-2.159c-.59-.589-1.34-.991-2.16-1.153-.82-.163-1.67-.079-2.44.24s-1.42.859-1.89 1.552c-.46.693-.71 1.508-.71 2.342 0 .555.11 1.104.32 1.617.21.512.52.978.91 1.371.39.392.86.704 1.37.916s1.06.321 1.62.321zm-45.54-20.483c1.42-.239 2.86-.439 4.32-.662.35 2.308.7 4.616 1.06 6.923.27 1.705.13 3.449-.42 5.087 1.16-.181 2.33-.358 3.54-.54l.1-.02c-.33-3.236.63-6.472 2.66-9.013s4.97-4.183 8.2-4.575c5.88-.721 11.8-1.343 17.74-1.867.13 1.696.29 3.392.43 5.086.21 2.427-.28 4.862-1.42 7.017 1.47-.132 2.94-.255 4.42-.384.03 0 .06 0 .11-.012-.1-3.236 1.07-6.385 3.27-8.759 2.25-2.428 5.35-3.884 8.66-4.06 5.98-.298 11.98-.454 17.98-.556.02 1.708.08 3.421.1 5.121.05 2.446-.62 4.851-1.92 6.924l4.48-.06h.12c.05-1.598.42-3.17 1.08-4.625.67-1.454 1.61-2.762 2.79-3.848 2.42-2.259 5.63-3.471 8.94-3.371 6 .192 11.99.509 17.97.873-.1 1.719-.16 3.442-.24 5.157-.12 2.448-.95 4.808-2.39 6.793 1.49.094 2.98.219 4.45.348.04 0 .07 0 .12.011.16-1.605.64-3.162 1.41-4.58s1.81-2.668 3.07-3.677c1.26-1.008 2.71-1.756 4.26-2.198s3.18-.571 4.78-.377c5.91.69 11.77 1.538 17.64 2.446-.21 1.715-.38 3.432-.59 5.138-.28 2.416-1.25 4.7-2.8 6.573 1.46.243 2.89.487 4.35.733.03.007.06.012.08.015.05-.411.1-.823.15-1.24.16-1.395.59-2.745 1.29-3.964.69-1.22 1.63-2.285 2.75-3.128 1.13-.83 2.42-1.413 3.79-1.709 1.36-.296 2.78-.3 4.15-.011 1.42.283 2.84.577 4.28.854-.36 2.323-.71 4.647-1.06 6.971-.29 1.914-1.1 3.713-2.33 5.21-1.15 1.421-2.67 2.5-4.4 3.121 1.57 2.628 2.18 5.715 1.73 8.741-.25 1.698-.49 3.39-.72 5.084-5.44-1.017-10.88-1.996-16.37-2.869-3.14-.524-5.98-2.207-7.94-4.717-2.05-2.562-3.12-5.77-3.02-9.05-1.49-.171-2.98-.344-4.47-.52 1.16 2.205 1.67 4.689 1.47 7.17-.14 1.717-.28 3.436-.41 5.152-5.59-.658-11.18-1.209-16.78-1.652-3.18-.276-6.15-1.723-8.32-4.062-2.24-2.349-3.55-5.442-3.67-8.69l-4.53-.173c1.3 2.097 1.98 4.519 1.95 6.984-.02 1.712-.03 3.421-.05 5.129-5.63-.156-11.29-.25-16.92-.192-3.18.021-6.25-1.157-8.59-3.298-2.4-2.16-3.9-5.128-4.24-8.333-1.52.056-3.01.142-4.51.233 1.43 1.967 2.26 4.304 2.4 6.731.1 1.705.19 3.401.3 5.1-5.63.33-11.23.707-16.8 1.201-3.14.275-6.25-.665-8.71-2.625-2.52-1.986-4.21-4.839-4.73-8.001-1.51.192-2.98.384-4.43.576 1.54 1.871 2.52 4.143 2.82 6.549.21 1.691.42 3.378.64 5.061-5.52.717-10.98 1.483-16.44 2.327-3.06.472-6.19-.272-8.71-2.075-2.61-1.85-4.46-4.583-5.21-7.692-.05-.22-.08-.437-.13-.656-.31-1.667-.63-3.333-.94-5-.07-.406-.16-.804-.23-1.21-.27-1.379-.25-2.797.04-4.171s.85-2.676 1.65-3.829c.8-1.154 1.83-2.135 3.01-2.888 1.19-.752 2.51-1.259 3.9-1.492zm155.32-12.533c-15.98-4.927-46.85-8.269-82.32-8.269s-66.35 3.338-82.32 8.269l1.44 7.729c16.34-4.69 46.45-7.842 80.88-7.842 34.42 0 64.53 3.146 80.87 7.836zm-131.88-12.936-1.6-24.1c8.05-.891 16.94-1.573 26.44-2.014l1.6 24.204c-9.47.406-18.36 1.056-26.44 1.91z" fill="#fc0"/><path d="m2624.99 221.909c30.02 0 54.35-1.923 54.35-4.316 0-2.392-24.33-4.315-54.35-4.315-30.01 0-54.34 1.923-54.34 4.315 0 2.393 24.33 4.316 54.34 4.316zm0 6.465c39.41 0 71.35-4.827 71.35-10.781s-31.94-10.782-71.35-10.782c-39.4 0-71.34 4.826-71.34 10.782s31.94 10.781 71.34 10.781z" fill="#c39600"/><path d="m2625 242.016-31.69 11.542v13.967h-49.82v-7.692h-35.09v35.09h7.69v61.893l-17.57 28.477 17.2 27.073-7.66 3.044-18.58-30.117 18.92-30.66v-52.017h-7.69v-50.473h50.47v7.69h34.44v-11.658l39.38-14.346 39.37 14.346v11.658h34.45v-7.69h50.47v50.473h-7.69v52.017l18.91 30.66-18.83 30.515-7.4-3.442 17.2-27.073-17.57-28.477v-61.893h7.69v-35.09h-35.09v7.692h-49.83v-13.967z" fill="#006423"/><path d="m2657.76 378.313c-8.54-9.383-10.16-25.193.06-32.283l5.37 6.556 2.63-20.837c9.15 1.944 13.31 9.45 14.14 16.308l6.51-7.802c11.24 12.9 8.01 31.031-1.98 38.058h-7.7c7.12-8.37 4.56-19.808-3.83-26.526l-1.34 12.854-6.21-7.271c-5.28 5.948-4.6 16.398.05 20.943z" fill="#dc000a"/><path d="m2790.83 341.345-23.49-.033v-10.159c0-12.568-10.21-15.368-18.22-15.356v38.49l40.99 17.977 15.66-5.215z" fill="#c39600"/><path d="m2900.8 554.734c6.39 0 14.42 3.421 17.37 9.896l-8-22.679c-3.44-10.407-11.65-18.361-25.23-18.361h-136.74c-13.58 0-21.79 7.954-25.23 18.361l-8.01 22.679c2.96-6.475 10.99-9.896 17.38-9.896zm-551.61 0c-6.39 0-14.42 3.421-17.38 9.896l8.01-22.679c3.44-10.407 11.65-18.361 25.23-18.361h136.73c13.59 0 21.8 7.954 25.24 18.361l8 22.679c-2.95-6.475-10.98-9.896-17.37-9.896z" fill="#fc0"/></g><path d="m2517.49 475.962c2.34.584 4.74.891 7.14.913 13.55-.494 20.41-9.79 33.43-9.631 13.45 0 20.11 9.777 33.43 9.616v.013c13.5 0 20.52-9.788 33.43-9.631h.07c13.05-.159 20.05 9.775 33.35 9.616v.013c13.55 0 20.41-9.79 33.43-9.631h.09c13.11-.155 20.02 9.777 33.34 9.616 0 .384 5.09-.444 7.28-.86 1.21-4.106 1.81-8.366 1.78-12.646v-24.181c-2.86 1.237-5.95 1.85-9.07 1.798l-.04.014c-10.96.148-18.93-9.777-33.35-9.616-14.69-.163-21.71 9.602-33.46 9.602l-.04.014c-11.25.152-18.69-9.779-33.35-9.616-14.88-.165-21.52 9.602-33.46 9.602l-.04.014c-10.97.148-18.94-9.777-33.35-9.616-14.69-.163-21.72 9.602-33.47 9.602 0 .745-7.94-1.45-8.91-1.825v24.208c-.02 4.266.57 8.512 1.77 12.606" fill="#fff"/><path d="m2515.71 468.35c2.88.946 5.9 1.406 8.93 1.363v.014c13.55 0 20.4-9.791 33.42-9.631h.09c13.1-.156 19.99 9.777 33.34 9.615v.014c13.5 0 20.52-9.789 33.43-9.631h.08c13.04-.16 20.04 9.775 33.35 9.615v.014c13.54 0 20.4-9.79 33.42-9.631h.09c13.11-.156 20.02 9.775 33.34 9.616v.013c3.08.035 6.14-.414 9.07-1.331v-7.602c-2.86 1.238-5.95 1.852-9.07 1.8v.014h-.04c-10.96.148-18.94-9.775-33.35-9.616-14.69-.163-21.71 9.602-33.46 9.602l-.04.014c-11.25.152-18.7-9.779-33.35-9.616-14.89-.165-21.52 9.602-33.46 9.602l-.05.014c-10.96.148-18.94-9.775-33.35-9.616-14.69-.163-21.71 9.602-33.46 9.602l-.04.014c-3.06.003-6.08-.624-8.88-1.841zm0-14.387c2.88.947 5.9 1.408 8.93 1.364v.013c13.55 0 20.4-9.788 33.42-9.629h.09c13.1-.155 19.99 9.777 33.34 9.616v.013c13.5 0 20.52-9.786 33.43-9.629h.08c13.04-.159 20.04 9.775 33.35 9.616v.013c13.54 0 20.4-9.788 33.42-9.629h.09c13.11-.155 20.02 9.775 33.34 9.616v.013c3.08.036 6.14-.413 9.07-1.329v-7.603c-2.86 1.239-5.95 1.853-9.07 1.802l-.04.013c-10.96.146-18.94-9.777-33.35-9.615-14.69-.164-21.71 9.602-33.46 9.602l-.04.013c-11.25.152-18.7-9.779-33.35-9.615-14.89-.168-21.52 9.602-33.46 9.602l-.05.013c-10.96.146-18.94-9.777-33.35-9.615-14.69-.164-21.71 9.602-33.46 9.602l-.04.013c-3.06.003-6.08-.623-8.88-1.84z" fill="#00b4ff"/><path clip-rule="evenodd" d="m2789.28 224.918-11.19-2.479c-1.76-.445-3.38-1.339-4.7-2.596-1.31-1.257-2.28-2.834-2.8-4.575-3.15 5.03-2.5 11.196 6.55 11.688l12.78.692zm-333.74 4.44 11.41-.944c1.81-.201 3.54-.867 5.01-1.935 1.47-1.067 2.64-2.498 3.4-4.154 2.44 5.41.96 11.431-8.08 10.694l-12.75-1.042z" fill="#dc000a" fill-rule="evenodd"/><path clip-rule="evenodd" d="m2590.89 580.478v14.106l34.05 14.103h14.11l34.16-14.111-14.11-14.104-.28-19.611-19.89.005.12-12.686h-14.11l-14.1 12.35-9.98 9.973z" fill="#a2acb0" fill-rule="evenodd"/><path clip-rule="evenodd" d="m2659.1 580.47-.29-19.615-9.82 9.783-10.06-9.777-13.99 33.715zm-34.16 42.321 14.1-14.105-14.1-14.104v14.104h34.05l14.22-14.114h-48.27v-46.394h14.1l-14.1-14.108-14.11 14.108v12.35h-19.94v19.948l34.05 14.106-24.08-24.081 9.97-9.973 14.11 34.054-34.06-.002v-14.106l-14.1 14.104 14.1 14.108h19.95z" fill="#fff" fill-rule="evenodd"/></g></svg>