<svg id="Layer_1" data-name="Layer 1" xmlns="http://www.w3.org/2000/svg" width="512.13" height="303.48"><defs><style>.cls-1{fill:#ffde00}.cls-2{fill:#a79944}</style></defs><path d="M0 0h512.13v303.48H0z"/><path class="cls-1" d="M90.34 81.15h-1.59l-.36-4.38h1.44c1.37-1.82 1.84-5.33 1.84-9.47v-1.4H99v10.87h1.8l-.36 4.38h-1.55V78.5h-8.55zm6.75-4.38v-9.15h-3.53v1.12a18.93 18.93 0 01-1.55 8zm4.82-2.86c0-3 1.68-4.77 4.23-4.77s4.24 1.78 4.24 4.77-1.68 4.77-4.24 4.77-4.23-1.78-4.23-4.77zm1.91 0c0 2 .92 3.2 2.32 3.2s2.33-1.19 2.33-3.2-.92-3.21-2.33-3.21-2.32 1.19-2.32 3.21zM118.37 77h-2l-1.8-5h-.07l-.5 6.5h-1.86l.89-9.18h2.14l2.16 5.87h.07l2.16-5.87h2.14l.89 9.18h-1.86l-.52-6.5h-.07zm12.92-4.8c0 2.66.9 4.75 3.2 4.75a5.48 5.48 0 002.76-.77l.76 1.53a6.44 6.44 0 01-3.52 1c-3.74 0-5.22-2.85-5.22-6.48s1.48-6.48 5.22-6.48a6.52 6.52 0 013.3.81l-.79 1.5a5.51 5.51 0 00-2.54-.62c-2.27 0-3.17 2.09-3.17 4.76zm15.64 2.14h-5.83c.12 1.78 1.06 2.77 2.72 2.77a5.07 5.07 0 002.28-.63l.62 1.43a6.74 6.74 0 01-3.08.77c-2.7 0-4.47-1.77-4.47-4.77s1.66-4.77 4.14-4.77a3.41 3.41 0 013.78 3.69 7.54 7.54 0 01-.16 1.51zm-5.76-1.46h4.25a2 2 0 00-2.07-2.18 2.2 2.2 0 00-2.18 2.18zm15.39 2.97c0 1.66-1 2.65-3.13 2.65h-4v-9.18h3.71c1.84 0 3 .68 3 2.34a2 2 0 01-1.56 2 2.27 2.27 0 011.98 2.19zm-5.25-5V73h1.47c.85 0 1.5-.27 1.5-1s-.58-1.05-1.37-1.05zm0 3.66v2.39h1.81c1 0 1.53-.38 1.53-1.19s-.63-1.2-1.71-1.2zm12.29-1.41v-.61c0-1.1-.47-1.79-1.82-1.79a7.1 7.1 0 00-2.48.49l-.54-1.46a8.86 8.86 0 013.24-.59c2.81 0 3.47 1.47 3.47 3.38v3.85a.58.58 0 00.65.65h.2v1.39a3.26 3.26 0 01-1.08.18 1.42 1.42 0 01-1.46-1.06h-.07a3.39 3.39 0 01-2.59 1.06c-1.75 0-2.85-.87-2.85-2.74s1.44-2.75 3.48-2.75zm-1.93 1.46a1.36 1.36 0 00-1.54 1.33 1.2 1.2 0 001.35 1.22A2.67 2.67 0 00163.6 76v-1.44zm12.51 2.16l.58 1.44a6.07 6.07 0 01-2.52.52c-3 0-4.48-2.13-4.48-4.77s1.42-4.77 4.39-4.77a6.69 6.69 0 012.52.48l-.58 1.44a4.7 4.7 0 00-1.83-.36c-1.55 0-2.6 1.3-2.6 3.21s1 3.2 2.58 3.2a5.29 5.29 0 001.94-.39zm1.48-7.4h7.78l-.36 1.56h-2.65v7.62h-1.86v-7.62h-2.91zm13.16 3.35c2 0 3.27 1.08 3.27 2.93s-1.29 2.9-3.27 2.9h-3.68v-9.18H187v3.35zM187 74.23v2.7h1.62c1 0 1.55-.5 1.55-1.35s-.6-1.35-1.55-1.35zm8.48.69a2.7 2.7 0 01-1.7-2.69c0-1.78 1.21-2.91 3.19-2.91h3.62v9.18h-1.87v-3.33h-1.43l-2 3.33h-2.14zm1.67-1.3h1.57v-2.74h-1.57a1.35 1.35 0 00-1.46 1.39 1.32 1.32 0 001.46 1.35zm13.68 4.88H209v-3.94h-3.62v3.94h-1.87v-9.18h1.87V73H209v-3.68h1.87zm2.34-4.59c0-3 1.67-4.77 4.23-4.77s4.23 1.78 4.23 4.77-1.67 4.77-4.23 4.77-4.23-1.78-4.23-4.77zm1.91 0c0 2 .92 3.2 2.32 3.2s2.32-1.19 2.32-3.2-.92-3.21-2.32-3.21-2.32 1.19-2.32 3.21zm16.02 1.94c0 1.66-1 2.65-3.13 2.65h-4v-9.18h3.71c1.83 0 3 .68 3 2.34a2.05 2.05 0 01-1.57 2 2.27 2.27 0 011.99 2.19zm-5.26-5V73h1.48c.84 0 1.49-.27 1.49-1s-.57-1.05-1.37-1.05zm0 3.66v2.39h1.82c1 0 1.53-.38 1.53-1.19s-.63-1.2-1.71-1.2zm12.3-1.41v-.61c0-1.1-.47-1.79-1.82-1.79a7.2 7.2 0 00-2.49.49l-.54-1.46a8.94 8.94 0 013.24-.59c2.81 0 3.48 1.47 3.48 3.38v3.85a.58.58 0 00.65.65h.19v1.39a3.26 3.26 0 01-1.08.18 1.41 1.41 0 01-1.45-1.06h-.08a3.36 3.36 0 01-2.59 1.06 2.51 2.51 0 01-2.84-2.74c0-1.74 1.44-2.75 3.47-2.75zm-1.93 1.46a1.37 1.37 0 00-1.55 1.33 1.2 1.2 0 001.34 1.22 2.69 2.69 0 002.14-1.11v-1.44zM93.32 86.52c1 .47 2.3 1.28 2.3 2.68 0 1.91-1.44 2.93-3.71 2.93A5 5 0 0189 91.3l.71-1.19a4.11 4.11 0 002.42.73c1.2 0 2-.49 2-1.5 0-.83-.71-1.22-1.68-1.66s-2.15-1.19-2.15-2.57c0-1.75 1.23-2.7 3.34-2.7a4.56 4.56 0 012.69.73l-.83 1.12a4 4 0 00-2.09-.55c-1 0-1.65.46-1.65 1.24s.88 1.26 1.56 1.57zm3.31 2.9c0-2.39 1.42-4.44 3.85-4.44 1.33 0 2.26.63 2.26 1.79 0 1.42-1.23 2.41-4.69 2.41 0 1.09.34 1.78 1.56 1.78a3.67 3.67 0 001.63-.45l.4 1.06a4.91 4.91 0 01-2.37.56 2.43 2.43 0 01-2.64-2.71zm1.6-1.4c2.59 0 3.09-.54 3.09-1.14s-.42-.73-1-.73A2.35 2.35 0 0098.23 88zm5.38-2.91H105l.8 5.32 2.65-5.32h1.39L106.32 92h-1.58zm12.49.38L115 92h-1l-.14-.73h-.06a2.83 2.83 0 01-2 .86c-1.49 0-2.13-1.06-2.13-2.71 0-2.39 1.43-4.44 3.86-4.44a7.29 7.29 0 012.57.51zm-5 3.82c0 1 .35 1.65 1.13 1.65a2.18 2.18 0 001.71-1l.62-3.58a3.61 3.61 0 00-1.25-.24c-1.31.01-2.23 1.4-2.23 3.17zm10.5.56c0 1.39-1.27 2.26-3 2.26a4.93 4.93 0 01-2.2-.48l.65-1.08a3.75 3.75 0 001.71.39c.61 0 1.38-.3 1.38-1s-.61-.79-1.27-1A2.14 2.14 0 01117.3 87c0-1.37 1.16-2 2.68-2a5.12 5.12 0 012.19.47l-.64 1a4.39 4.39 0 00-1.62-.35c-.64 0-1.19.27-1.19.83s.61.78 1.07 1c.84.34 1.81.86 1.81 1.92zm3.06-6.45l1.45-.27-.36 2h2.08l-.47 1.18h-1.81l-.66 3.67a2.42 2.42 0 000 .25c0 .5.33.68.79.68a2.8 2.8 0 001-.19l.13 1.12a5.11 5.11 0 01-1.51.24c-1.08 0-1.83-.41-1.83-1.58a3.27 3.27 0 010-.59l.65-3.67H123l.21-1.18h1.17zm2.92 10.19a1.65 1.65 0 00.71.19c.31 0 .65-.17 1-.8l.49-1h-.48l-1.21-6.89h1.36l.92 5.44h.06l2.66-5.44h1.48l-4.09 8.21a2.48 2.48 0 01-2.31 1.68 2.78 2.78 0 01-1.17-.3zm13.21-8.12L139.65 92h-.93l-.15-.73h-.06a2.81 2.81 0 01-2 .86c-1.49 0-2.13-1.06-2.13-2.71 0-2.39 1.43-4.44 3.86-4.44a7.24 7.24 0 012.55.51zm-5 3.82c0 1 .35 1.65 1.14 1.65a2.17 2.17 0 001.7-1l.62-3.58a3.6 3.6 0 00-1.24-.24c-1.32.01-2.24 1.4-2.24 3.17zm7.08 2.69h-1.4l1.2-6.89h1l.15.73h.05A2.93 2.93 0 01146 85a1.63 1.63 0 011.86 1.85 4.89 4.89 0 01-.08.89L147 92h-1.41l.75-4.19a3.44 3.44 0 00.05-.62c0-.71-.31-1-1-1a2.69 2.69 0 00-1.69 1zm9.88-7a2.4 2.4 0 012.61 2.71c0 2.38-1.43 4.44-3.86 4.44-1.7 0-2.61-.91-2.61-2.71 0-2.44 1.43-4.44 3.86-4.44zm-1.05 6c1.3 0 2.22-1.41 2.22-3.17 0-1.08-.48-1.64-1.37-1.64-1.29 0-2.21 1.39-2.21 3.16 0 1.06.47 1.65 1.36 1.65zm4.67-5.89h1.35l.8 5.32 2.65-5.32h1.39L159.07 92h-1.58zm7.28.39l-.24-.43a1.81 1.81 0 001-1.12.73.73 0 01-.66-.74.76.76 0 01.8-.8.82.82 0 01.81.92 2.37 2.37 0 01-1.71 2.17zm6.35 4.37c0 1.39-1.26 2.26-3 2.26a4.93 4.93 0 01-2.2-.48l.64-1.08a3.83 3.83 0 001.72.39c.61 0 1.38-.3 1.38-1s-.61-.79-1.27-1A2.14 2.14 0 01165.7 87c0-1.37 1.16-2 2.67-2a5.09 5.09 0 012.19.47l-.63 1a4.44 4.44 0 00-1.62-.35c-.64 0-1.19.27-1.19.83s.61.78 1.06 1c.82.34 1.82.86 1.82 1.92zm7.11-3.41h3.94l.69-3.91h1.46L181.54 92h-1.46l.74-4.24h-3.94l-.74 4.24h-1.46l1.66-9.45h1.46zM187.4 85a2.4 2.4 0 012.6 2.71c0 2.38-1.43 4.44-3.86 4.44-1.7 0-2.61-.91-2.61-2.71C183.53 87 185 85 187.4 85zm-1.06 6c1.3 0 2.22-1.41 2.22-3.17 0-1.08-.48-1.64-1.37-1.64-1.29 0-2.21 1.39-2.21 3.16.02 1.06.47 1.65 1.36 1.65zm6.37-1.7a3.44 3.44 0 00-.05.62.92.92 0 001 1 3 3 0 001.82-1l.85-4.89h1.4L196.56 92h-.93l-.15-.73a3.39 3.39 0 01-2.28.86c-1.27 0-1.94-.62-1.94-1.85a5 5 0 01.09-.89l.74-4.28h1.4zm10.55.57c0 1.39-1.27 2.26-3 2.26a4.93 4.93 0 01-2.2-.48l.65-1.08a3.75 3.75 0 001.71.39c.61 0 1.38-.3 1.38-1s-.61-.79-1.27-1A2.14 2.14 0 01199 87c0-1.37 1.17-2 2.68-2a5.12 5.12 0 012.19.47l-.64 1a4.39 4.39 0 00-1.62-.35c-.63 0-1.19.27-1.19.83s.61.78 1.07 1c.8.34 1.77.86 1.77 1.92zm1.31-.45c0-2.42 1.43-4.42 3.85-4.42 1.32 0 2.25.63 2.25 1.79 0 1.42-1.23 2.41-4.69 2.41 0 1.09.34 1.78 1.56 1.78a3.67 3.67 0 001.63-.45l.41 1.06a5 5 0 01-2.38.56 2.42 2.42 0 01-2.63-2.73zm1.59-1.4c2.59 0 3.09-.54 3.09-1.14s-.42-.73-1-.73a2.35 2.35 0 00-2.09 1.85z"/><path class="cls-2" d="M92.68 105.6c-2.18 0-3.05-1.65-3.05-3.78s.87-3.77 3.05-3.77 3 1.65 3 3.77-.82 3.78-3 3.78zm0-6.55c-1.34 0-1.87 1.22-1.87 2.77s.53 2.78 1.87 2.78 1.87-1.22 1.87-2.78-.55-2.77-1.87-2.77zm4.07 5.54a7 7 0 00.73-3.86v-.59H101v4.45h.85l-.21 2.24h-.89v-1.33h-3.62v1.33h-.88l-.25-2.24zm1.82-3.37a7.87 7.87 0 01-.65 3.37h2v-3.53h-1.35zm4.27 4.28v-5.36h1.1v3.58l2.46-3.58h1v5.36h-1.09v-3.57l-2.47 3.57zm10.56 0h-1.1v-2.3h-2.11v2.3h-1.09v-5.36h1.09v2.15h2.11v-2.15h1.1zm4.41 0v-5.36h1.09v3.58l2.47-3.58h1v5.36h-1.09v-3.57l-2.47 3.57zm8.73-2.85a1.32 1.32 0 011.15 1.27c0 1-.75 1.64-2.25 1.64a5 5 0 01-1.8-.32l.34-.84a4.24 4.24 0 001.43.25c.68 0 1.16-.31 1.16-.76s-.28-.74-1.07-.74h-.72v-.87h.64c.5 0 .92-.2.92-.67s-.4-.7-.9-.7a4.62 4.62 0 00-1.41.23l-.33-.83a5.2 5.2 0 011.77-.31c1.28 0 2 .52 2 1.47a1.19 1.19 0 01-.93 1.18zm8.62 1.81l.34.84a3.54 3.54 0 01-1.47.3 2.53 2.53 0 01-2.62-2.78A2.49 2.49 0 01134 100a4.08 4.08 0 011.47.28l-.34.84A2.87 2.87 0 00134 101c-.9 0-1.51.76-1.51 1.87s.6 1.87 1.5 1.87a3 3 0 001.17-.28zm4.23-2.11V102c0-.64-.27-1-1.06-1a4.25 4.25 0 00-1.45.29l-.31-.85a5.28 5.28 0 011.89-.35c1.64 0 2 .86 2 2v2.25a.34.34 0 00.37.38h.17v.81a2 2 0 01-.63.1.82.82 0 01-.85-.62 2 2 0 01-1.52.62 1.46 1.46 0 01-1.65-1.59c0-1 .84-1.61 2-1.61zm-1.12.85a.8.8 0 00-.9.78.7.7 0 00.78.71 1.54 1.54 0 001.24-.66v-.83zm7.16 1.43h-1.13l-1.05-2.92-.31 3.79h-1.08l.51-5.36h1.25l1.26 3.43 1.26-3.43h1.25l.52 5.36h-1.08l-.31-3.79zm4.94-2.53h.95a1.68 1.68 0 011.91 1.71c0 1.08-.75 1.69-1.91 1.69h-2v-5.36h1.1zm0 .91v1.58h.85c.55 0 .9-.3.9-.79s-.35-.79-.9-.79zm4.74 2.49H154v-5.36h1.09zm3.56-1.95l-1.27 2h-1.21l1.86-2.75-1.75-2.61h1.22l1.15 1.86 1.15-1.86H161l-1.74 2.61 1.85 2.75-1.14.1zm8.82-.82l1.77 2.77-1.11.1-1.54-2.42H166v2.32h-1.09v-5.36H166v2.17h.6l1.41-2.17h1.13zm3.81 4.87l-1.09.21v-7.67h.79l.21.57a1.9 1.9 0 011.52-.67c1.51 0 2.16 1.19 2.16 2.78s-.66 2.78-2.25 2.78a3.15 3.15 0 01-1.37-.28zm2.51-4.78c0-1.1-.44-1.87-1.36-1.87a1.54 1.54 0 00-1.15.67v2.69a2 2 0 001.19.38c.83 0 1.32-.69 1.32-1.87zm5.19-.47V102c0-.64-.27-1-1.06-1a4.21 4.21 0 00-1.45.29l-.31-.85a5.24 5.24 0 011.89-.35c1.63 0 2 .86 2 2v2.25a.34.34 0 00.38.38h.12v.81a2 2 0 01-.63.1.84.84 0 01-.86-.62 1.94 1.94 0 01-1.51.62 1.46 1.46 0 01-1.66-1.59c0-1 .84-1.61 2-1.61zm-1.12.85c-.53 0-.91.29-.91.78a.7.7 0 00.79.71A1.55 1.55 0 00179 104v-.83zm7.32 1.26l.34.84a3.51 3.51 0 01-1.47.3 2.52 2.52 0 01-2.61-2.78A2.49 2.49 0 01184 100a4 4 0 011.47.28l-.34.84a2.87 2.87 0 00-1.07-.21c-.9 0-1.51.76-1.51 1.87s.6 1.87 1.5 1.87a3 3 0 001.15-.19zm1.5 1.04v-5.36h1.09v3.58l2.47-3.58h1v5.36h-1.09v-3.57l-2.47 3.57zm10.41-1.5c0 1-.61 1.54-1.83 1.54H193v-5.36h2.17c1.07 0 1.77.4 1.77 1.37a1.19 1.19 0 01-.91 1.14 1.32 1.32 0 011.08 1.31zm-3.07-2.9v1.22h.87c.49 0 .87-.16.87-.61s-.34-.61-.8-.61zm0 2.13v1.4h1.07c.55 0 .89-.22.89-.7s-.37-.7-1-.7zm5.53-1.13h1a1.68 1.68 0 011.91 1.71c0 1.08-.75 1.69-1.91 1.69h-2v-5.36h1.09zm0 .91v1.58h.85c.55 0 .9-.3.9-.79s-.35-.79-.9-.79zm4.74 2.49h-1.09v-5.36h1.09zm3.56-1.95l-1.27 2h-1.21l1.86-2.75-1.75-2.61h1.22l1.15 1.86 1.15-1.86h1.23l-1.75 2.61 1.85 2.75-1.13.1zm-118.1 11.54a7 7 0 00.73-3.86v-.59H94v4.45h.85l-.21 2.24h-.88V116h-3.61v1.33h-.88l-.21-2.24zm1.82-3.37a7.87 7.87 0 01-.65 3.37h2v-3.53h-1.35zm3.9 1.6c0-1.74 1-2.78 2.47-2.78s2.47 1 2.47 2.78-1 2.78-2.47 2.78-2.47-1.04-2.47-2.78zm1.12 0c0 1.18.53 1.87 1.35 1.87s1.36-.69 1.36-1.87-.54-1.87-1.36-1.87-1.35.7-1.35 1.87zm8.48 1.81H104l-1-2.92-.31 3.79h-1.08l.51-5.36h1.25l1.26 3.43 1.26-3.43h1.25l.52 5.36h-1.08l-.31-3.79zm3.53-1.81c0-1.74 1-2.78 2.47-2.78s2.46 1 2.46 2.78-1 2.78-2.46 2.78-2.47-1.04-2.47-2.78zm1.11 0c0 1.18.54 1.87 1.36 1.87s1.35-.69 1.35-1.87-.54-1.87-1.35-1.87-1.36.7-1.36 1.87zm9.35 1.14c0 1-.61 1.54-1.83 1.54h-2.33v-5.36h2.16c1.07 0 1.78.4 1.78 1.37a1.19 1.19 0 01-.92 1.14 1.32 1.32 0 011.14 1.31zm-3.07-2.9v1.22h.86c.49 0 .87-.16.87-.61s-.33-.61-.8-.61zm0 2.13v1.4h1.06c.56 0 .89-.22.89-.7s-.36-.7-1-.7zm11.32.77c0 1-.61 1.54-1.83 1.54h-2.33v-5.36h2.16c1.08 0 1.78.4 1.78 1.37a1.19 1.19 0 01-.91 1.14 1.32 1.32 0 011.13 1.31zm-3.07-2.9v1.22h.86c.5 0 .88-.16.88-.61s-.34-.61-.8-.61zm0 2.13v1.4h1.06c.56 0 .9-.22.9-.7s-.37-.7-1-.7zm10.5-3.05l-.21.92h-2V116h-1.1v-5.36zm.48 2.68c0-1.74 1-2.78 2.46-2.78s2.47 1 2.47 2.78-1 2.78-2.47 2.78-2.46-1.04-2.46-2.78zm1.11 0c0 1.18.53 1.87 1.35 1.87s1.36-.69 1.36-1.87-.54-1.87-1.36-1.87-1.35.7-1.35 1.87zm6.28 4.78l-1.09.21v-7.67h.77l.21.57a1.91 1.91 0 011.53-.67c1.51 0 2.16 1.19 2.16 2.78s-.66 2.78-2.26 2.78a3.14 3.14 0 01-1.36-.28zm2.51-4.78c0-1.1-.44-1.87-1.37-1.87a1.51 1.51 0 00-1.14.67v2.69a1.94 1.94 0 001.18.38c.83 0 1.33-.68 1.33-1.87zm2.16 0c0-1.74 1-2.78 2.47-2.78s2.46 1 2.46 2.78-1 2.78-2.46 2.78-2.47-1.04-2.47-2.78zm1.11 0c0 1.18.54 1.87 1.36 1.87s1.35-.69 1.35-1.87-.53-1.87-1.35-1.87-1.36.7-1.36 1.87zm5.01 1.77a7 7 0 00.73-3.86v-.59h3.51v4.45h.85l-.21 2.24h-.88V116h-3.62v1.33h-.88l-.21-2.24zm1.82-3.37a7.87 7.87 0 01-.65 3.37h2v-3.53h-1.33zm8.43 1.85h-3.4c.07 1 .62 1.62 1.58 1.62a3 3 0 001.34-.37l.35.83a3.79 3.79 0 01-1.79.45 2.5 2.5 0 01-2.61-2.78c0-1.76 1-2.78 2.42-2.78a2 2 0 012.2 2.15 4.61 4.61 0 01-.09.88zm-3.36-.85h2.48a1.15 1.15 0 00-1.21-1.27 1.28 1.28 0 00-1.27 1.27zm-70.53 9.84c0-1.84 1.08-3.39 2.73-3.39 1.17 0 1.78.73 1.78 2 0 1.85-1.08 3.39-2.73 3.39-1.16.01-1.78-.72-1.78-2zm.85 0c0 .83.37 1.3 1.06 1.3 1 0 1.75-1.25 1.75-2.66 0-.83-.36-1.3-1-1.3-1.09-.01-1.81 1.24-1.81 2.65zm4.73 1.94h-.78l.67-3.83h.55l.09.41a1.6 1.6 0 011.15-.48.9.9 0 011 1 3 3 0 010 .5l-.42 2.38h-.78l.42-2.33a2.24 2.24 0 000-.34c0-.4-.18-.58-.54-.58a1.52 1.52 0 00-.94.53zm3.35-1.43a2.23 2.23 0 012.13-2.47c.74 0 1.26.35 1.26 1s-.68 1.34-2.61 1.34c0 .61.19 1 .87 1a2.08 2.08 0 00.91-.25l.22.59a2.76 2.76 0 01-1.32.31 1.34 1.34 0 01-1.46-1.52zm.88-.79c1.44 0 1.72-.3 1.72-.63s-.23-.4-.56-.4a1.31 1.31 0 00-1.16 1.03zm7.01-1.68a1.33 1.33 0 011.45 1.5 2.24 2.24 0 01-2.14 2.47 1.32 1.32 0 01-1.45-1.5 2.24 2.24 0 012.14-2.47zm-.58 3.32c.72 0 1.23-.78 1.23-1.76 0-.6-.26-.91-.76-.91-.72 0-1.23.77-1.23 1.76 0 .6.26.91.74.91zm5.24-3.25l-.26.65h-.79l-.64 3.65a1.24 1.24 0 01-1.3 1.18 1.86 1.86 0 01-.86-.23l.31-.59a1.14 1.14 0 00.56.17c.26 0 .45-.15.52-.53l.64-3.65h-.64l.11-.65h.64l.09-.5a1.39 1.39 0 011.45-1.3 1.64 1.64 0 01.86.21l-.36.58a1 1 0 00-.52-.14c-.34 0-.58.21-.66.65l-.09.5zm2.83-.94l.8-.15-.19 1.09h1.15l-.26.65h-1l-.36 2.08a.89.89 0 000 .15c0 .27.18.37.44.37a1.75 1.75 0 00.56-.1l.07.62a2.82 2.82 0 01-.84.13c-.6 0-1-.23-1-.87a2 2 0 010-.33l.36-2.05h-.65l.11-.65h.66zm2.98 2.05l-.48 2.72h-.78l1-5.48.81-.15-.39 2.21a1.64 1.64 0 011.11-.48c.7 0 1 .33 1 1a3 3 0 010 .49l-.42 2.4h-.78l.4-2.31a1.56 1.56 0 000-.35c0-.4-.18-.59-.54-.59a1.49 1.49 0 00-.93.54zm2.93 1.29a2.24 2.24 0 012.14-2.47c.74 0 1.26.35 1.26 1s-.69 1.34-2.61 1.34c0 .61.19 1 .86 1a2 2 0 00.91-.25l.23.59a2.79 2.79 0 01-1.32.31 1.35 1.35 0 01-1.47-1.52zm.89-.79c1.44 0 1.72-.3 1.72-.63s-.24-.4-.56-.4a1.3 1.3 0 00-1.21 1.03zm10.23-.66a2.8 2.8 0 01-.05.48l-.42 2.4h-.78l.41-2.34a1.35 1.35 0 000-.33c0-.4-.18-.58-.54-.58a1.27 1.27 0 00-.75.37l-.51 2.88h-.78l.41-2.34a1.59 1.59 0 000-.36c0-.38-.15-.55-.48-.55a1.29 1.29 0 00-.84.53l-.48 2.72h-.78l.67-3.83h.56l.08.41a1.48 1.48 0 011.09-.48c.46 0 .76.14.88.48a1.8 1.8 0 011.17-.48c.8 0 1.14.34 1.14 1.02zm2.74-1.02a1.34 1.34 0 011.45 1.5 2.24 2.24 0 01-2.15 2.47 1.32 1.32 0 01-1.45-1.5 2.24 2.24 0 012.15-2.47zm-.59 3.32c.72 0 1.23-.78 1.23-1.76 0-.6-.26-.91-.75-.91-.72 0-1.23.77-1.23 1.76 0 .6.26.91.75.91zm5.2-.61c0 .78-.7 1.26-1.64 1.26a2.72 2.72 0 01-1.23-.27l.36-.6a2.06 2.06 0 001 .22c.34 0 .76-.16.76-.55s-.33-.44-.7-.57a1.2 1.2 0 01-.9-1.07c0-.76.65-1.13 1.49-1.13a2.9 2.9 0 011.22.26l-.36.58a2.41 2.41 0 00-.9-.19c-.35 0-.66.15-.66.46s.34.43.6.54c.42.18.96.48.96 1.06zm1.7-3.58l.81-.15-.2 1.09h1.16l-.27.65h-1l-.37 2.08a.81.81 0 000 .15c0 .27.18.37.43.37a1.66 1.66 0 00.56-.1l.08.62a2.82 2.82 0 01-.84.13c-.6 0-1-.23-1-.87a1.31 1.31 0 010-.33l.36-2.05h-.66l.12-.65h.65zm5.23 4.84a4 4 0 01-1.52-.3l.93-5.25.81-.15-.39 2.21a1.52 1.52 0 011.08-.48c.83 0 1.23.59 1.23 1.5a2.25 2.25 0 01-2.14 2.47zm.66-3.32a1.53 1.53 0 00-1 .53l-.35 2a2 2 0 00.79.14c.72 0 1.23-.78 1.23-1.76.04-.6-.21-.91-.67-.91zm2.11 1.82a2.24 2.24 0 012.14-2.47c.73 0 1.25.35 1.25 1s-.68 1.34-2.6 1.34c0 .61.18 1 .86 1a2.08 2.08 0 00.91-.25l.22.59a2.74 2.74 0 01-1.32.31 1.34 1.34 0 01-1.46-1.52zm.88-.79c1.44 0 1.72-.3 1.72-.63s-.23-.4-.55-.4a1.32 1.32 0 00-1.17 1.03zm6.52-1.4l-.64 3.62h-.52l-.08-.41a1.59 1.59 0 01-1.14.48c-.83 0-1.19-.59-1.19-1.5a2.24 2.24 0 012.15-2.47 4 4 0 011.42.28zm-2.8 2.13c0 .57.2.91.63.91a1.21 1.21 0 00.95-.55l.34-2a2 2 0 00-.69-.13c-.72.01-1.23.76-1.23 1.76zM157 123a2.24 2.24 0 000 .34.51.51 0 00.57.58 1.65 1.65 0 001-.53l.47-2.72h.79l-.67 3.83h-.52l-.08-.41a1.89 1.89 0 01-1.27.48c-.71 0-1.08-.34-1.08-1a3 3 0 010-.5l.41-2.38h.78zm4.22-3.27l.81-.15-.2 1.09H163l-.26.65h-1l-.37 2.08a.81.81 0 000 .15c0 .27.18.37.43.37a1.76 1.76 0 00.57-.1l.07.62a2.82 2.82 0 01-.84.13c-.6 0-1-.23-1-.87a2 2 0 010-.33l.36-2.05h-.65l.11-.65h.65zm1.84 1.59l.26-.65h1.33l-.65 3.83h-.79l.56-3.18zm1.4-2.23a.48.48 0 01.48.47.47.47 0 01-.48.46.46.46 0 01-.47-.46.47.47 0 01.47-.47zm3.31 1.58l-.26.65h-.79l-.64 3.65a1.24 1.24 0 01-1.3 1.18 1.9 1.9 0 01-.86-.23l.31-.59a1.14 1.14 0 00.56.17c.27 0 .45-.15.52-.53l.64-3.65h-.64l.11-.65h.64l.09-.5a1.39 1.39 0 011.45-1.3 1.64 1.64 0 01.86.21l-.36.58a1 1 0 00-.52-.14c-.34 0-.58.21-.65.65l-.09.5zm.81 2.33a2.24 2.24 0 000 .34.51.51 0 00.57.58 1.69 1.69 0 001-.53l.47-2.72h.78l-.67 3.83h-.52l-.08-.41a1.87 1.87 0 01-1.27.48c-.7 0-1.07-.34-1.07-1a3 3 0 010-.5l.42-2.38h.79zm4.77 1.46a1.86 1.86 0 01-.66.11c-.54 0-.82-.23-.82-.74a1.91 1.91 0 010-.32l.79-4.49.81-.15-.82 4.64v.14c0 .04.09.27.26.27a.9.9 0 00.34-.07zm-82.28 7.61a3.87 3.87 0 01-1.51-.3l.92-5.25.81-.15-.39 2.21a1.52 1.52 0 011.1-.48c.83 0 1.23.59 1.23 1.5a2.24 2.24 0 01-2.16 2.47zm.66-3.32a1.53 1.53 0 00-1 .53l-.35 2a2 2 0 00.79.14c.72 0 1.23-.78 1.23-1.76.04-.6-.21-.91-.67-.91zm3.02 1.75a1.42 1.42 0 000 .34.51.51 0 00.57.58 1.67 1.67 0 001-.53l.47-2.72h.78l-.68 3.83h-.52l-.08-.41a1.87 1.87 0 01-1.26.48c-.71 0-1.08-.34-1.08-1a3 3 0 010-.5l.41-2.38h.78zm3.25-1.68l.26-.65h1.33L99 132h-.78l.56-3.18zm1.39-2.23a.47.47 0 01.48.47.48.48 0 01-1 0 .47.47 0 01.56-.47zm2.22 5.41a1.84 1.84 0 01-.65.11c-.54 0-.82-.23-.82-.74a1.91 1.91 0 010-.32l.79-4.49.81-.15L101 131a.78.78 0 000 .14.23.23 0 00.27.27.85.85 0 00.33-.07zm2.75-3.9a2 2 0 01.82.16l.31-1.74.81-.15-1 5.63h-.52l-.08-.41a1.76 1.76 0 01-1.22.48c-.79 0-1.24-.51-1.24-1.5a2.24 2.24 0 012.12-2.47zm.36 2.78l.33-1.88a1.31 1.31 0 00-.8-.25c-.72 0-1.23.77-1.23 1.76 0 .6.28.91.76.91a1.17 1.17 0 00.94-.54zm1.76-2.06l.27-.65h1.32l-.66 3.83h-.78l.55-3.18zm1.4-2.23a.48.48 0 01.48.47.47.47 0 01-.48.46.46.46 0 01-.47-.46.47.47 0 01.47-.47zm1.37 5.41h-.78l.67-3.83h.55l.09.41a1.6 1.6 0 011.15-.48.9.9 0 011 1 3 3 0 010 .5l-.42 2.38h-.78l.42-2.33a2.24 2.24 0 000-.34c0-.4-.18-.58-.54-.58a1.52 1.52 0 00-.94.53zm5.62.12l.09-.49a1.59 1.59 0 01-1.08.44c-.86 0-1.25-.51-1.25-1.5a2.27 2.27 0 012.19-2.47 3.92 3.92 0 011.52.3l-.67 3.77a1.75 1.75 0 01-2 1.48 2.81 2.81 0 01-1.31-.31l.35-.63a2.33 2.33 0 001 .29 1 1 0 001.16-.88zm-1.47-1.61c0 .6.23.91.73.91a1.47 1.47 0 001-.52l.35-2a1.89 1.89 0 00-.77-.14c-.71-.01-1.31.76-1.31 1.75zm5.96.3c0 .78-.7 1.26-1.64 1.26a2.68 2.68 0 01-1.22-.27l.36-.6a2 2 0 001 .22c.34 0 .76-.16.76-.55s-.33-.44-.7-.57a1.21 1.21 0 01-.89-1.07c0-.76.64-1.13 1.48-1.13a2.87 2.87 0 011.22.26l-.35.58a2.51 2.51 0 00-.91-.19c-.35 0-.66.15-.66.46s.34.43.6.54c.41.18.95.48.95 1.06zm2.64-1.99l.26-.65h1.33L123 132h-.78l.56-3.18zm1.39-2.23a.47.47 0 01.48.47.48.48 0 01-1 0 .47.47 0 01.56-.47zm1.42 5.41H124l.67-3.83h.56l.08.41a1.64 1.64 0 011.16-.48.9.9 0 011 1 3 3 0 010 .5l-.42 2.38h-.78l.41-2.33a2.24 2.24 0 000-.34c0-.4-.17-.58-.53-.58a1.49 1.49 0 00-.94.53zm6.27-4.77l.8-.15-.2 1.09h1.16l-.26.65h-1l-.37 2.08v.15c0 .27.18.37.43.37a1.76 1.76 0 00.57-.1l.07.62a2.82 2.82 0 01-.84.13c-.6 0-1-.23-1-.87a2 2 0 010-.33l.36-2.05h-.65l.11-.65h.65zm2.97 2.05l-.47 2.72h-.78l1-5.48.81-.15-.39 2.21a1.63 1.63 0 011.1-.48c.71 0 1 .33 1 1a2.93 2.93 0 010 .49l-.42 2.4h-.78l.4-2.31a2.5 2.5 0 000-.35c0-.4-.18-.59-.54-.59a1.54 1.54 0 00-.93.54zm2.89 1.29a2.24 2.24 0 012.14-2.47c.73 0 1.25.35 1.25 1s-.68 1.34-2.6 1.34c0 .61.19 1 .86 1a2.08 2.08 0 00.91-.25l.22.59a2.74 2.74 0 01-1.32.31 1.34 1.34 0 01-1.46-1.52zm.89-.79c1.44 0 1.71-.3 1.71-.63s-.23-.4-.55-.4a1.3 1.3 0 00-1.16 1.03zm4.86.79a2.27 2.27 0 012.21-2.47 2.44 2.44 0 011 .21l-.35.6a2.08 2.08 0 00-.8-.16c-.71 0-1.29.73-1.29 1.76a.8.8 0 00.84.91 2.51 2.51 0 00.87-.18l.18.6a2.94 2.94 0 01-1.17.23 1.4 1.4 0 01-1.49-1.5zm3.5-1.75l.27-.65h1.33l-.67 3.83h-.78l.55-3.18zm1.4-2.23a.48.48 0 01.48.47.47.47 0 01-.48.46.46.46 0 01-.47-.46.47.47 0 01.47-.47zm1.68.64l.8-.15-.19 1.09H151l-.27.65h-1l-.37 2.08a.89.89 0 000 .15c0 .27.18.37.44.37a1.7 1.7 0 00.56-.1l.08.62a2.87 2.87 0 01-.84.13c-.6 0-1-.23-1-.87a1.35 1.35 0 010-.33l.36-2.05h-.66l.11-.65h.66zm1.62 5.66a.79.79 0 00.4.11c.17 0 .36-.09.53-.45l.27-.55h-.26l-.68-3.83h.76l.51 3 1.48-3h.83l-2.28 4.56a1.38 1.38 0 01-1.26.92 1.51 1.51 0 01-.64-.15z"/><path class="cls-1" d="M37.12 93.16l-2.93-5.6 1.33-1.77 1.6 3 1.59-3L40 87.56zm45 36.84h2v2h-58v-2h2v-16h2v10h50v-10h2v16zm-2-4h-50v4h50zm3-53l2-2h-60l2 2zm-7-15h-42v2h42zm7 53h-56v2h56zm-43 16h-3v2h3zm11 0h-3v2h3zm11 0h-3v2h3zm11 0h-3v2h3zm-39-18h2V95h-2zm6-14h-2v14h2zM52 87.56l-1.33-1.77-1.59 3-1.6-3-1.33 1.77 2.93 5.6zM46.12 109h2V95h-2zm6-14h-2v14h2zM64 87.56l-1.33-1.77-1.59 3-1.6-3-1.33 1.77 2.93 5.6zM58.12 109h2V95h-2zM76 87.56l-1.33-1.77-1.59 3-1.6-3-1.33 1.77 2.93 5.6zM70.12 109h2V95h-2zm-6-14h-2v14h2zm12 0h-2v14h2zm-33 28v-4a4.71 4.71 0 00-4.5-4.89 4.7 4.7 0 00-4.5 4.89v4h2v-4a2.72 2.72 0 012.5-2.89 2.73 2.73 0 012.5 2.89v4zm11 0v-4a4.52 4.52 0 10-9 0v4h2v-4a2.53 2.53 0 115 0v4zm11 0v-4a4.52 4.52 0 10-9 0v4h2v-4a2.53 2.53 0 115 0v4zm11 0v-4a4.52 4.52 0 10-9 0v4h2v-4a2.53 2.53 0 115 0v4zm2-16v2h3v-2h-1V78h-2v6l-4.2-5.6h-1.6l-4.2 5.6v-6h-2v6l-4.2-5.6h-1.6l-4.2 5.6v-6h-2v6l-4.2-5.6h-1.6l-4.2 5.6v-6h-2v6l-4.2-5.6h-1.6l-4.2 5.6v-6h-2v29h-1v2h3V87.33l4.45-5.93.55-.73.55.73 4.45 5.93V109h2V87.33l4.45-5.93.55-.73.55.73 4.45 5.93V109h2V87.33l4.45-5.93.55-.73.55.73 4.45 5.93V109h2V87.33l4.45-5.93.55-.73.55.73 4.45 5.93V107zm3-40h-2v3h2zm-19 3v-3h-2v3zm-12 0v-3h-2v3zm-19-3h-2v3h2zm42 2h2v-8h-40v8h2v-6h5v6h2v-6h10v6h2v-6h10v6h2v-6h5v6zm-18-15c6.05.11 11.44 1.21 14.84 3h3.54c-3.15-2.85-9.64-4.69-17.38-5h-2c-7.75.27-14.24 2.11-17.39 5h3.54c3.4-1.77 8.79-2.87 14.85-3zm-27 20l2 2h50l2-2zm30-25h-6v2h6zM352.8 67.52l2.47-4.62h2.31l-3.53 6.1 3.89 6.54-2.22.18-2.92-5.19h-.07l-2.82 5h-2.31l3.89-6.53-3.49-6.1h2.31l2.46 4.62zm8.72 11.58l-1.88.36V66.32H361l.35 1h.08a3.25 3.25 0 012.57-1.18c2.59 0 3.71 2 3.71 4.77s-1.14 4.77-3.87 4.77a5.33 5.33 0 01-2.34-.49zm4.3-8.19c0-1.89-.76-3.21-2.34-3.21a2.57 2.57 0 00-2 1.14v4.63a3.34 3.34 0 002 .64c1.52 0 2.34-1.17 2.34-3.2zm8.94-.81v-.61c0-1.1-.46-1.79-1.81-1.79a7.2 7.2 0 00-2.49.49l-.54-1.46a9.12 9.12 0 013.24-.59c2.81 0 3.48 1.47 3.48 3.38v3.86a.57.57 0 00.65.64h.19v1.39a3.26 3.26 0 01-1.08.18 1.43 1.43 0 01-1.46-1.06h-.07a3.36 3.36 0 01-2.59 1.06c-1.75 0-2.85-.86-2.85-2.74s1.45-2.75 3.48-2.75zm-1.92 1.46a1.37 1.37 0 00-1.55 1.33 1.2 1.2 0 001.35 1.22 2.67 2.67 0 002.12-1.11v-1.44zM385.11 74h-1.94l-1.8-5h-.07l-.52 6.5h-1.86l.88-9.18h2.2l2.16 5.87h.07l2.16-5.87h2.14l.88 9.18h-1.85L387 69h-.07zm18.64 1.5h-1.88v-3.94h-3.62v3.94h-1.87v-9.18h1.87V70h3.62v-3.68h1.88zm7.57-5.4v-.61c0-1.1-.47-1.79-1.82-1.79a7.1 7.1 0 00-2.48.49l-.54-1.46a9.12 9.12 0 013.24-.59c2.81 0 3.47 1.47 3.47 3.38v3.86a.58.58 0 00.65.64h.2v1.39a3.26 3.26 0 01-1.08.18 1.42 1.42 0 01-1.46-1.06h-.07a3.37 3.37 0 01-2.59 1.06c-1.75 0-2.85-.86-2.85-2.74s1.44-2.75 3.48-2.75zm-1.92 1.46a1.37 1.37 0 00-1.55 1.33 1.2 1.2 0 001.35 1.22 2.67 2.67 0 002.12-1.11v-1.44zm16.07-2.7l4.68 6.64-2.23.18-4.16-5.87h-.94v5.69h-1.94V62.9h1.94v5.25h1l3.75-5.25h2.21zm8.17 10.24l-1.87.36V66.32h1.33l.36 1h.07a3.27 3.27 0 012.61-1.15c2.6 0 3.71 2 3.71 4.77s-1.13 4.77-3.87 4.77a5.36 5.36 0 01-2.34-.49zm4.3-8.19c0-1.89-.75-3.21-2.34-3.21a2.6 2.6 0 00-2 1.14v4.63a3.39 3.39 0 002 .64c1.5 0 2.34-1.17 2.34-3.2zm3.71 0c0-3 1.67-4.77 4.23-4.77s4.23 1.78 4.23 4.77-1.67 4.77-4.23 4.77-4.23-1.78-4.23-4.77zm1.91 0c0 2 .92 3.2 2.32 3.2s2.32-1.18 2.32-3.2-.91-3.21-2.32-3.21-2.32 1.19-2.32 3.21zm16.02 1.94c0 1.66-1 2.65-3.13 2.65h-4v-9.18h3.71c1.84 0 3 .68 3 2.34a2.05 2.05 0 01-1.57 2v.06a2.25 2.25 0 011.99 2.13zm-5.26-5V70h1.48c.84 0 1.49-.27 1.49-1s-.57-1.05-1.37-1.05zm0 3.66v2.39h1.82c.95 0 1.53-.37 1.53-1.18s-.67-1.18-1.67-1.18zm7.6 3.99v-9.18h1.87v6.12h.07l4.23-6.12h1.68v9.18h-1.87v-6.12h-.08l-4.23 6.12zm-111.62 13c0 1.49.66 2.34 1.91 2.34a4 4 0 002-.57l.51 1.14a5.51 5.51 0 01-2.74.73c-2.1 0-3.2-1.33-3.2-3.62 0-3.33 1.94-6.11 4.91-6.11A4.54 4.54 0 01356 83l-.77 1.15a3.39 3.39 0 00-1.81-.46c-1.82.02-3.12 2.31-3.12 4.81zm7.7-1.39l-.83 4.89h-1.4l1.73-9.86 1.46-.27-.71 4h.06a3 3 0 012-.86 1.61 1.61 0 011.85 1.82 4.81 4.81 0 01-.08.89l-.77 4.28h-1.41l.73-4.16a3.79 3.79 0 00.07-.62c0-.72-.33-1.07-1-1.07a2.73 2.73 0 00-1.7.96zm6.85 2.19a3.59 3.59 0 00-.05.62.92.92 0 001 1 3 3 0 001.82-1l.85-4.89h1.41L368.7 92h-.93l-.15-.73h-.05a3.41 3.41 0 01-2.28.87 1.68 1.68 0 01-1.93-1.85 4.92 4.92 0 01.08-.9l.74-4.28h1.4zm10.2-2.88a1.46 1.46 0 00-.68-.13c-.77 0-1.39.77-1.69 1.69l-.7 4h-1.4l1.2-6.89h1l.08 1.07h.06a2.24 2.24 0 012-1.2 2.86 2.86 0 01.85.13zm.62 3c0-2.46 1.56-4.44 4-4.44a4.15 4.15 0 011.86.39l-.62 1.08a3.53 3.53 0 00-1.44-.3c-1.27 0-2.33 1.33-2.33 3.16a1.45 1.45 0 001.49 1.69 4.83 4.83 0 001.58-.32l.32 1.08a5.4 5.4 0 01-2.11.42 2.52 2.52 0 01-2.75-2.76zm8.33-2.31l-.83 4.89h-1.4l1.73-9.86 1.46-.27-.71 4h.06a3 3 0 012-.86 1.61 1.61 0 011.85 1.82 4.81 4.81 0 01-.08.89l-.77 4.28h-1.41l.73-4.16a3.79 3.79 0 00.07-.62c0-.72-.32-1.07-1-1.07a2.68 2.68 0 00-1.7.96zm5.42 1.62l.22-1.23h3.61l-.49 1.23zm8.83-3.73a2.41 2.41 0 012.61 2.71c0 2.38-1.43 4.45-3.86 4.45-1.7 0-2.61-.92-2.61-2.72 0-2.44 1.43-4.44 3.86-4.44zm-1.05 6c1.3 0 2.22-1.4 2.22-3.17 0-1.08-.48-1.64-1.37-1.64-1.3 0-2.21 1.39-2.21 3.16 0 1.06.47 1.65 1.36 1.65zm5.94 1h-1.4l1.2-6.89h1l.14.73h.06a2.91 2.91 0 012.08-.86 1.63 1.63 0 011.86 1.85 4.81 4.81 0 01-.08.89l-.75 4.28h-1.41l.74-4.19a3.5 3.5 0 00.06-.62c0-.71-.31-1-1-1a2.69 2.69 0 00-1.69 1zm6.22-3.27l.22-1.23h3.6l-.48 1.23zm6.73-5.3l1.44-.27-.35 2h2.08l-.47 1.18H417l-.68 3.66a1.15 1.15 0 000 .26c0 .49.32.67.78.67a2.76 2.76 0 001-.19l.14 1.12a5.24 5.24 0 01-1.51.25c-1.08 0-1.84-.42-1.84-1.59a2.62 2.62 0 01.06-.59l.64-3.67h-1.19l.2-1.18h1.18zm5.36 3.68L420.6 92h-1.41l1.73-9.86 1.46-.27-.7 4h.05a3 3 0 012-.86 1.62 1.62 0 011.86 1.82 4.88 4.88 0 01-.09.89l-.77 4.28h-1.41l.73-4.16a3.79 3.79 0 00.07-.62c0-.72-.32-1.07-1-1.07a2.71 2.71 0 00-1.67.96zm5.19 2.31c0-2.39 1.42-4.44 3.85-4.44 1.32 0 2.26.63 2.26 1.79 0 1.42-1.23 2.41-4.69 2.41 0 1.09.34 1.78 1.55 1.78a3.71 3.71 0 001.64-.45l.4 1.06a4.94 4.94 0 01-2.37.57 2.43 2.43 0 01-2.64-2.72zm1.6-1.4c2.59 0 3.09-.54 3.09-1.14s-.42-.73-1-.73a2.34 2.34 0 00-2.09 1.85zm5.45.71l.22-1.23h3.6l-.51 1.23zm9.88-1.63a1.83 1.83 0 011.58 1.82c0 2.08-1.77 3.08-3.81 3.08h-2.82l1.66-9.45H443c1.59 0 2.59.58 2.59 1.86a2.74 2.74 0 01-2 2.63zm-2.85.66l-.52 2.94h1.28c1.28 0 2.16-.71 2.16-1.79 0-.74-.61-1.15-1.65-1.15zm.69-3.92l-.47 2.68h1.22a1.79 1.79 0 001.84-1.66c0-.68-.47-1-1.39-1zm7.44 8.09a3.15 3.15 0 01-1.17.21c-1 0-1.48-.42-1.48-1.34a3.09 3.09 0 01.06-.58l1.42-8.08 1.45-.27-1.47 8.35a2.29 2.29 0 000 .25c0 .34.16.49.47.49a1.67 1.67 0 00.61-.13zm4.96-6.93a2.41 2.41 0 012.6 2.71c0 2.38-1.43 4.45-3.86 4.45-1.7 0-2.61-.92-2.61-2.72 0-2.44 1.44-4.44 3.87-4.44zm-1.06 6c1.3 0 2.22-1.4 2.22-3.17 0-1.08-.48-1.64-1.37-1.64-1.29 0-2.21 1.39-2.21 3.16 0 1.06.47 1.65 1.36 1.65zm8.6-6a2.41 2.41 0 012.65 2.69c0 2.38-1.43 4.45-3.86 4.45-1.71 0-2.61-.92-2.61-2.72-.04-2.42 1.39-4.42 3.82-4.42zm-1.05 6c1.29 0 2.21-1.4 2.21-3.17 0-1.08-.47-1.64-1.36-1.64-1.3 0-2.22 1.39-2.22 3.16 0 1.06.48 1.65 1.37 1.65zm8.6-6a3.49 3.49 0 011.47.3l.55-3.14 1.46-.27L470.6 92h-.93l-.15-.73a3.15 3.15 0 01-2.19.87c-1.42 0-2.24-.92-2.24-2.72C465 87 466.47 85 468.9 85zm.65 5l.59-3.38a2.34 2.34 0 00-1.44-.46c-1.3 0-2.22 1.39-2.22 3.16 0 1.1.51 1.65 1.38 1.65a2.16 2.16 0 001.69-.97z"/><path d="M351.22 100.85l1.44-2.7H354l-2 3.54 2.26 3.81-1.29.1-1.7-3-1.65 2.92h-1.34l2.27-3.81-2.06-3.54h1.34l1.44 2.7zm5.08 6.75l-1.09.21v-7.66h.79l.21.56a1.9 1.9 0 011.52-.67c1.52 0 2.17 1.19 2.17 2.78s-.67 2.78-2.26 2.78a3.15 3.15 0 01-1.37-.28zm2.51-4.78c0-1.1-.44-1.87-1.36-1.87a1.54 1.54 0 00-1.15.67v2.69a1.92 1.92 0 001.19.38c.83 0 1.32-.69 1.32-1.87zm5.19-.47V102c0-.64-.27-1-1.06-1a4.25 4.25 0 00-1.45.29l-.31-.85a5.28 5.28 0 011.89-.35c1.64 0 2 .86 2 2v2.25a.34.34 0 00.38.38h.12v.81a2 2 0 01-.63.1.82.82 0 01-.85-.62 2 2 0 01-1.52.62 1.46 1.46 0 01-1.66-1.59c0-1 .84-1.61 2-1.61zm-1.12.85a.8.8 0 00-.9.78.7.7 0 00.78.71A1.54 1.54 0 00364 104v-.83zm7.19 1.43h-1.13l-1.05-2.92h-.05l-.3 3.79h-1.08l.51-5.35h1.25l1.26 3.42 1.26-3.42H372l.52 5.35h-1.08l-.31-3.79zm3.63-1.63v-1h2.86l-.21 1zm8.49 2.5h-1.1v-4.44h-2v4.44H378v-5.35h4.21zm4.42-3.15V102c0-.64-.28-1-1.06-1a4.16 4.16 0 00-1.45.29l-.32-.85a5.28 5.28 0 011.89-.35c1.64 0 2 .86 2 2v2.25a.34.34 0 00.38.38h.11v.81a2 2 0 01-.63.1.83.83 0 01-.85-.62 2 2 0 01-1.51.62 1.46 1.46 0 01-1.67-1.63c0-1 .84-1.61 2-1.61zm-1.13.85a.8.8 0 00-.9.78.7.7 0 00.79.71 1.57 1.57 0 001.24-.66v-.83zm7.16 1.43h-1.13l-1.05-2.92-.31 3.79H389l.52-5.35h1.25l1.26 3.42 1.26-3.42h1.25l.51 5.35H394l-.3-3.79h-.05zm4.67-1.22a1.56 1.56 0 01-1-1.56 1.65 1.65 0 011.86-1.7h2.11v5.35h-1.08v-1.94h-.83l-1.16 1.94H396zm1-.75h.92v-1.6h-.92a.79.79 0 00-.85.81.77.77 0 00.82.79zm3.03-2.51h4.53l-.21.91h-1.54v4.44H403v-4.44h-1.7zm9.83 5.35h-1.1v-2.3H408v2.3h-1.09v-5.35H408v2.14h2.11v-2.14h1.1zm1.68 0v-5.35h1.09v3.57l2.47-3.57h1v5.35h-1.09v-3.57l-2.47 3.57zm8.82-2.77l1.77 2.77-1.11.1-1.55-2.42h-.58v2.32h-1.1v-5.35h1.1v2.16h.59l1.41-2.16h1.13zm9.74 2.77h-1.09v-2.3h-2.11v2.3h-1.09v-5.35h1.09v2.14h2.11v-2.14h1.09zm4.42-3.15V102c0-.64-.27-1-1.06-1a4.21 4.21 0 00-1.45.29l-.31-.85a5.24 5.24 0 011.89-.35c1.63 0 2 .86 2 2v2.25a.34.34 0 00.38.38h.12v.81a2 2 0 01-.63.1.84.84 0 01-.86-.62 2 2 0 01-1.51.62 1.46 1.46 0 01-1.66-1.59c0-1 .84-1.61 2-1.61zm-1.12.85a.81.81 0 00-.91.78.7.7 0 00.79.71 1.55 1.55 0 001.24-.66v-.83zm9.89 1.43h-1.14l-1-2.92-.3 3.79H441l.51-5.35h1.25l1.26 3.42 1.26-3.42h1.25l.51 5.35H446l-.3-3.79zm8.05-1.55h-3.4a1.5 1.5 0 001.58 1.61 3 3 0 001.34-.37l.35.83a3.79 3.79 0 01-1.79.45 2.49 2.49 0 01-2.6-2.78c0-1.76 1-2.78 2.41-2.78a2 2 0 012.21 2.15 4.85 4.85 0 01-.1.89zm-3.36-.86h2.48a1.15 1.15 0 00-1.21-1.27 1.29 1.29 0 00-1.27 1.27zm8.25 2.24l.34.84a3.51 3.51 0 01-1.47.3 2.52 2.52 0 01-2.61-2.78 2.49 2.49 0 012.56-2.78 4 4 0 011.47.28l-.34.84a2.87 2.87 0 00-1.07-.21c-.9 0-1.51.76-1.51 1.87s.6 1.87 1.5 1.87a3 3 0 001.13-.23zm.87-4.31h4.53l-.21.91h-1.54v4.44h-1.08v-4.44h-1.7zm9.59 2.93h-3.4a1.5 1.5 0 001.58 1.61 3 3 0 001.34-.37l.36.83a3.87 3.87 0 01-1.8.45 2.49 2.49 0 01-2.6-2.78c0-1.76 1-2.78 2.41-2.78a2 2 0 012.2 2.15 4.79 4.79 0 01-.09.89zm-3.36-.86h2.48a1.15 1.15 0 00-1.22-1.22 1.29 1.29 0 00-1.27 1.22zm-112.43 8.43l-.21.91h-2V116h-1.09v-5.35zm.89 5.35v-5.35h1.09v3.57h.05l2.46-3.57h1V116h-1.09v-3.57l-2.53 3.57zm8.78-6.53c-1.17.08-1.73.49-1.73 2a2.19 2.19 0 011.7-.7c1.31 0 2.21.88 2.21 2.66a2.38 2.38 0 01-2.53 2.64c-1.73 0-2.46-1.29-2.46-3.43 0-3.38.94-4 2.67-4.16a5.41 5.41 0 001.75-.38l.32.87a5.48 5.48 0 01-1.93.5zm-.32 5.72c.82 0 1.42-.56 1.42-1.73s-.54-1.74-1.29-1.74a1.77 1.77 0 00-1.5.91c0 1.71.43 2.56 1.37 2.56zm8.16-1.61h-3.4c.08 1 .62 1.61 1.59 1.61a3 3 0 001.33-.37l.36.83a3.87 3.87 0 01-1.8.45 2.49 2.49 0 01-2.6-2.78c0-1.76 1-2.78 2.41-2.78a2 2 0 012.21 2.15 4.11 4.11 0 01-.1.89zm-3.36-.86h2.48a1.15 1.15 0 00-1.21-1.27 1.29 1.29 0 00-1.27 1.27zm4.34 2.28a.63.63 0 00.36.11c.49 0 .76-1 .76-3.56v-.89h3.58V116h-1.09v-4.44h-1.45v.23c0 2.86-.51 4.26-1.72 4.26a1.15 1.15 0 01-.69-.19zm6.38 1v-5.35h1.1v3.57l2.47-3.57h1V116h-1.09v-3.57l-2.5 3.57zm9.1 0v-7.35h1.13V115h3v-6.34h1.14V115h1.05l-.21 2.55h-.93V116zm10.17-3.15v-.36c0-.64-.27-1-1.06-1a4.25 4.25 0 00-1.45.29l-.31-.85a5.28 5.28 0 011.89-.35c1.63 0 2 .86 2 2v2.25a.34.34 0 00.38.38h.12v.79a2 2 0 01-.63.1.82.82 0 01-.85-.62 1.92 1.92 0 01-1.51.62 1.46 1.46 0 01-1.66-1.59c0-1 .84-1.61 2-1.61zm-1.12.85a.8.8 0 00-.9.78.7.7 0 00.78.71 1.54 1.54 0 001.24-.66v-.83zm4.95 4.4l-1.09.21v-7.66h.78l.21.56a1.9 1.9 0 011.52-.67c1.51 0 2.17 1.19 2.17 2.78s-.67 2.78-2.26 2.78a3.15 3.15 0 01-1.37-.28zm2.51-4.78c0-1.1-.44-1.87-1.36-1.87a1.54 1.54 0 00-1.15.67v2.69a1.92 1.92 0 001.19.38c.83 0 1.32-.68 1.32-1.87zm5.91 1.68l.34.84a3.51 3.51 0 01-1.47.3 2.52 2.52 0 01-2.61-2.78 2.49 2.49 0 012.56-2.78 4 4 0 011.47.28l-.34.84a2.87 2.87 0 00-1.07-.21c-.9 0-1.51.76-1.51 1.87s.6 1.87 1.5 1.87a3 3 0 001.13-.23zm4.06-1.77l1.77 2.77-1.11.1-1.54-2.42h-.59V116h-1.09v-5.35h1.09v2.16h.6l1.4-2.16h1.14zm2.34.09c0-1.74 1-2.78 2.46-2.78s2.47 1 2.47 2.78-1 2.78-2.47 2.78-2.46-1.03-2.46-2.78zm1.11 0c0 1.18.54 1.87 1.35 1.87s1.36-.69 1.36-1.87-.54-1.87-1.36-1.87-1.39.7-1.39 1.87zm5.15 2.68v-5.35h1.09v3.57l2.47-3.57h1V116h-1.09v-3.57l-2.5 3.57zm4-7.15a2 2 0 01-3.47 0l.7-.46a1.14 1.14 0 001 .68 1.11 1.11 0 001-.68zm8.42 6.15l.33.84a3.51 3.51 0 01-1.47.3 2.52 2.52 0 01-2.61-2.78 2.49 2.49 0 012.56-2.78 4 4 0 011.47.28l-.33.84a2.92 2.92 0 00-1.08-.21c-.9 0-1.51.76-1.51 1.87s.6 1.87 1.5 1.87a3.05 3.05 0 001.14-.23zm5.59-1.42h-3.4c.08 1 .62 1.61 1.59 1.61a3 3 0 001.33-.37l.36.83a3.84 3.84 0 01-1.8.45 2.49 2.49 0 01-2.6-2.78c0-1.76 1-2.78 2.41-2.78a2 2 0 012.21 2.15 4.11 4.11 0 01-.1.89zm-3.35-.86h2.47a1.15 1.15 0 00-1.21-1.27 1.28 1.28 0 00-1.26 1.27zm8.08 2.41h-1.1l-1-2.92h-.05l-.3 3.79h-1.08l.51-5.35h1.25l1.26 3.42 1.26-3.42H446l.52 5.35h-1.08l-.31-3.79zm6-2.53a1.69 1.69 0 011.91 1.71c0 1.08-.76 1.69-1.91 1.69h-2.15v-5.35H449v1.95zm-1 .91v1.58h.94c.56 0 .9-.3.9-.79s-.34-.79-.9-.79zm4.08 2.49v-5.35h1.09v3.57h.05l2.46-3.57h1V116h-1.09v-3.57l-2.53 3.57zm-101.44 7.81h-.78l-.46-3.2-1 3.89h-.81l1.41-5.25h1l.51 3.45 1.73-3.45h1l-.44 5.25h-.81l.33-3.89zm2.99-.74a2.24 2.24 0 012.14-2.47c.74 0 1.26.35 1.26 1s-.69 1.33-2.61 1.33c0 .61.19 1 .87 1a2 2 0 00.9-.25l.23.59a2.8 2.8 0 01-1.32.32 1.35 1.35 0 01-1.47-1.52zm.89-.78c1.44 0 1.72-.3 1.72-.64s-.23-.4-.56-.4a1.3 1.3 0 00-1.16 1.04zm8.33-.66a3 3 0 01-.05.48l-.42 2.39h-.78l.42-2.34a2 2 0 000-.33c0-.4-.18-.58-.55-.58a1.23 1.23 0 00-.75.38l-.51 2.87h-.78l.42-2.34a2.49 2.49 0 000-.36c0-.38-.16-.55-.48-.55a1.29 1.29 0 00-.85.53l-.48 2.72h-.78l.67-3.83h.56l.08.41a1.48 1.48 0 011.09-.48c.46 0 .76.14.88.48a1.82 1.82 0 011.18-.48.91.91 0 011.13 1.03zm2.74-1.03a1.34 1.34 0 011.45 1.51 2.25 2.25 0 01-2.15 2.47 1.33 1.33 0 01-1.45-1.51 2.24 2.24 0 012.15-2.47zm-.59 3.32c.73 0 1.24-.78 1.24-1.76 0-.6-.27-.91-.76-.91-.72 0-1.23.77-1.23 1.76 0 .6.26.91.75.91zm5-2.52a.74.74 0 00-.38-.08c-.42 0-.77.43-.93.94l-.4 2.24h-.78l.67-3.83h.56v.59a1.25 1.25 0 011.1-.66 1.72 1.72 0 01.47.07zm.35-.08l.26-.65h1.33l-.67 3.83h-.78l.56-3.18zm1.4-2.23a.47.47 0 110 .94.47.47 0 110-.94zm4.3 1.79l-.64 3.62h-.52l-.08-.4a1.63 1.63 0 01-1.14.48c-.83 0-1.19-.6-1.19-1.51a2.24 2.24 0 012.15-2.47 4 4 0 011.42.28zm-2.8 2.13c0 .57.2.91.63.91a1.21 1.21 0 00.95-.55l.35-2a1.84 1.84 0 00-.69-.14c-.73.02-1.24.77-1.24 1.77zm4.75 1.45a1.84 1.84 0 01-.65.12c-.54 0-.82-.24-.82-.75a1.91 1.91 0 010-.32l.79-4.49.81-.15-.82 4.64a.71.71 0 000 .14c0 .19.09.27.26.27a.94.94 0 00.34-.07zm2.56-1.39a2.27 2.27 0 012.21-2.47 2.37 2.37 0 011 .21l-.34.6a2.09 2.09 0 00-.81-.16c-.7 0-1.29.74-1.29 1.76a.81.81 0 00.84.91 2.61 2.61 0 00.88-.18l.18.6a3 3 0 01-1.17.24 1.4 1.4 0 01-1.5-1.51zm4.64-1.29l-.47 2.72H385l1-5.48.81-.15-.39 2.21a1.63 1.63 0 011.1-.48c.71 0 1 .33 1 1a3 3 0 010 .5l-.52 2.4h-.78l.4-2.31a2.5 2.5 0 000-.35c0-.4-.18-.59-.54-.59a1.54 1.54 0 00-.88.53zM390 123a1.42 1.42 0 000 .34.51.51 0 00.57.58 1.65 1.65 0 001-.53l.47-2.72h.78l-.66 3.83h-.52l-.08-.4a1.94 1.94 0 01-1.27.48.94.94 0 01-1.08-1 3 3 0 010-.5l.41-2.38h.78zm5.66-1.6a.73.73 0 00-.37-.08c-.43 0-.78.43-.94.94l-.35 2.24h-.78l.66-3.83h.56v.59a1.26 1.26 0 011.1-.66 1.72 1.72 0 01.47.07zm.34 1.67a2.27 2.27 0 012.21-2.47 2.38 2.38 0 011 .21l-.35.6a2 2 0 00-.8-.16c-.71 0-1.29.74-1.29 1.76a.8.8 0 00.84.91 2.61 2.61 0 00.88-.18l.18.6a3 3 0 01-1.18.24 1.4 1.4 0 01-1.49-1.51zm4.65-1.29l-.48 2.72h-.78l1-5.48.82-.15-.4 2.21a1.66 1.66 0 011.11-.48c.7 0 1 .33 1 1a3.13 3.13 0 01-.05.5l-.42 2.39h-.78l.41-2.31a2.36 2.36 0 000-.35c0-.4-.18-.59-.54-.59a1.49 1.49 0 00-.89.54zm8.43-.9l-.64 3.62h-.52l-.08-.4a1.61 1.61 0 01-1.14.48c-.83 0-1.19-.6-1.19-1.51a2.24 2.24 0 012.15-2.47 4 4 0 011.42.28zm-2.79 2.12c0 .57.19.91.63.91a1.2 1.2 0 00.94-.55l.35-2a1.8 1.8 0 00-.69-.14c-.72.03-1.23.78-1.23 1.78zm4.25-3.27l.8-.15-.19 1.09h1.15l-.26.65h-1l-.36 2.08a.89.89 0 000 .15c0 .27.18.37.44.37a1.75 1.75 0 00.56-.1l.08.62a3 3 0 01-.85.14c-.6 0-1-.24-1-.88a2 2 0 010-.33l.36-2.05h-.65l.11-.65h.66zm4.76 0l.8-.15-.19 1.09h1.16l-.27.65h-1l-.37 2.08a.89.89 0 000 .15c0 .27.18.37.44.37a1.7 1.7 0 00.56-.1l.08.62a2.89 2.89 0 01-.84.14c-.6 0-1-.24-1-.88a1.31 1.31 0 010-.33l.36-2.05h-.66l.12-.65h.65zm2.98 2.05l-.47 2.72H417l1-5.48.81-.15-.39 2.21a1.63 1.63 0 011.1-.48c.71 0 1 .33 1 1a3.13 3.13 0 01-.05.5l-.42 2.39h-.78l.41-2.31a2.5 2.5 0 000-.35c0-.4-.19-.59-.55-.59a1.49 1.49 0 00-.85.54zm2.89 1.29a2.23 2.23 0 012.13-2.47c.74 0 1.26.35 1.26 1s-.68 1.33-2.61 1.33c0 .61.19 1 .87 1a2.08 2.08 0 00.91-.25l.22.59a2.77 2.77 0 01-1.32.32 1.35 1.35 0 01-1.46-1.52zm.88-.78c1.44 0 1.72-.3 1.72-.64s-.23-.4-.56-.4a1.3 1.3 0 00-1.16 1.04zm7.44 1.02c0 .78-.71 1.27-1.65 1.27a2.71 2.71 0 01-1.22-.28l.36-.6a2 2 0 00.95.22c.34 0 .77-.16.77-.55s-.34-.44-.71-.57a1.21 1.21 0 01-.89-1.07c0-.76.64-1.13 1.48-1.13a2.87 2.87 0 011.22.26l-.35.58a2.5 2.5 0 00-.9-.19c-.36 0-.66.15-.66.46s.33.43.59.54c.46.19 1.01.48 1.01 1.06zm.72-1.99l.26-.65h1.33l-.67 3.83h-.78l.56-3.18zm1.4-2.23a.47.47 0 110 .94.47.47 0 110-.94zm1.68.64l.8-.15-.2 1.09h1.16l-.26.65h-1l-.37 2.08v.15c0 .27.18.37.43.37a1.76 1.76 0 00.57-.1l.07.62a2.84 2.84 0 01-.84.14c-.6 0-1-.24-1-.88a2 2 0 010-.33l.36-2.05h-.65l.11-.65h.65zm1.83 3.34a2.24 2.24 0 012.14-2.47c.74 0 1.26.35 1.26 1s-.69 1.33-2.61 1.33c0 .61.19 1 .86 1a2 2 0 00.91-.25l.23.59a2.8 2.8 0 01-1.32.32 1.35 1.35 0 01-1.47-1.52zm.89-.78c1.44 0 1.72-.3 1.72-.64s-.23-.4-.56-.4a1.29 1.29 0 00-1.17 1.04zm-85.21 5.81a1.33 1.33 0 011.45 1.51 2.24 2.24 0 01-2.14 2.47 1.32 1.32 0 01-1.45-1.51 2.24 2.24 0 012.14-2.47zm-.58 3.32c.72 0 1.23-.78 1.23-1.76 0-.6-.26-.91-.76-.91-.72 0-1.23.77-1.23 1.76 0 .6.26.91.76.91zm5.24-3.25l-.26.65h-.79l-.64 3.65a1.24 1.24 0 01-1.3 1.18 1.86 1.86 0 01-.86-.23l.31-.59a1.14 1.14 0 00.56.17c.26 0 .45-.14.52-.53l.64-3.65H353l.11-.65h.64l.09-.5a1.38 1.38 0 011.45-1.3 1.64 1.64 0 01.86.21l-.36.58a1 1 0 00-.52-.14c-.34 0-.58.21-.66.65l-.09.5zm2.83-.94l.8-.15-.19 1.09h1.15l-.26.65h-1l-.36 2.08a.89.89 0 000 .15c0 .27.18.37.43.37a1.76 1.76 0 00.57-.1l.07.62a2.84 2.84 0 01-.84.14c-.6 0-1-.24-1-.88a2 2 0 010-.33l.36-2.05h-.65l.11-.65h.65zm2.97 2.05l-.47 2.72H360l1-5.48.81-.15-.39 2.21a1.64 1.64 0 011.11-.48.89.89 0 011 1 3 3 0 010 .5l-.42 2.39h-.78l.4-2.31a1.56 1.56 0 000-.35c0-.4-.18-.59-.54-.59a1.54 1.54 0 00-.93.54zm2.89 1.29a2.24 2.24 0 012.14-2.47c.74 0 1.25.35 1.25 1s-.68 1.33-2.6 1.33c0 .61.19 1 .86 1a2 2 0 00.91-.25l.23.59a2.8 2.8 0 01-1.32.32 1.35 1.35 0 01-1.47-1.52zm.89-.78c1.44 0 1.72-.3 1.72-.64s-.24-.4-.56-.4a1.29 1.29 0 00-1.2 1.04zm8.39 2.21l-.86.08a5.83 5.83 0 01-1-2.23H371l-.37 2.15h-.81l.92-5.25h1.53c.93 0 1.47.46 1.47 1.32a1.75 1.75 0 01-1.36 1.69 6 6 0 001.05 2.24zm-1.63-2.87a1 1 0 001.1-1c0-.4-.26-.62-.75-.62h-.72l-.29 1.66zm4.2-1.03a1.34 1.34 0 011.45 1.51 2.25 2.25 0 01-2.15 2.47 1.33 1.33 0 01-1.45-1.51 2.24 2.24 0 012.15-2.47zm-.58 3.32c.72 0 1.23-.78 1.23-1.76 0-.6-.27-.91-.76-.91-.72 0-1.23.77-1.23 1.76.04.6.34.91.8.91zm2.34 1.47a.78.78 0 00.39.11c.18 0 .36-.09.54-.44l.31-.56h-.27l-.67-3.83h.76l.51 3 1.48-3h.82l-2.27 4.57a1.38 1.38 0 01-1.26.91 1.51 1.51 0 01-.64-.15zm7.34-4.51l-.64 3.62H384l-.09-.4a1.59 1.59 0 01-1.14.48c-.82 0-1.18-.6-1.18-1.51a2.24 2.24 0 012.14-2.47 4 4 0 011.37.28zm-2.79 2.13c0 .57.19.91.63.91a1.21 1.21 0 00.95-.55l.34-2a1.8 1.8 0 00-.69-.14c-.72.02-1.23.79-1.23 1.78zm4.75 1.49a1.89 1.89 0 01-.66.12c-.54 0-.81-.24-.81-.75a1.23 1.23 0 010-.32l.78-4.49.81-.15-.78 4.59a.78.78 0 000 .14c0 .19.09.27.26.27a.9.9 0 00.34-.07zm3.67-2.2l-.38 2.2h-.81l.92-5.25h3l-.28.72h-2.05l-.28 1.61h2.05l-.13.72zm6.27-1.42l-.64 3.62h-.52l-.08-.4a1.61 1.61 0 01-1.14.48c-.83 0-1.19-.6-1.19-1.51a2.24 2.24 0 012.15-2.47 4 4 0 011.42.28zm-2.79 2.13c0 .57.19.91.63.91a1.18 1.18 0 00.94-.55l.35-2a1.8 1.8 0 00-.69-.14c-.73.02-1.24.79-1.24 1.78zm8.68-1.38a3 3 0 01-.05.48l-.42 2.39h-.78l.41-2.34a1.31 1.31 0 000-.33c0-.4-.18-.58-.54-.58a1.28 1.28 0 00-.76.38l-.5 2.87h-.78l.41-2.34a1.59 1.59 0 000-.36c0-.38-.15-.55-.48-.55a1.33 1.33 0 00-.85.53l-.47 2.72h-.78l.67-3.83h.55l.09.41a1.48 1.48 0 011.09-.48c.46 0 .75.14.87.48a1.84 1.84 0 011.18-.48.91.91 0 011.14 1.03zm.59-.31l.26-.65h1.33l-.67 3.83h-.78l.56-3.18zm1.4-2.23a.47.47 0 110 .94.47.47 0 110-.94zm2.17 5.41a1.84 1.84 0 01-.65.12c-.54 0-.82-.24-.82-.75a1.91 1.91 0 010-.32l.79-4.49.81-.15-.82 4.64a.71.71 0 000 .14c0 .19.09.27.26.27a.94.94 0 00.34-.07zm.39.89a.79.79 0 00.4.11c.17 0 .36-.09.53-.44l.27-.56h-.26l-.68-3.83h.76l.51 3 1.48-3h.83l-2.28 4.57a1.38 1.38 0 01-1.26.91 1.51 1.51 0 01-.64-.15zm5.81-2.32a2.24 2.24 0 012.14-2.47c.74 0 1.26.35 1.26 1s-.69 1.33-2.61 1.33c0 .61.19 1 .86 1a2 2 0 00.91-.25l.23.59a2.8 2.8 0 01-1.32.32 1.35 1.35 0 01-1.47-1.52zm.89-.78c1.44 0 1.72-.3 1.72-.64s-.23-.4-.56-.4a1.29 1.29 0 00-1.16 1.04zm4.35.8l-1.16 1.41h-.91l1.64-2-.9-1.83h.84l.65 1.34 1-1.34h.89l-1.54 1.89 1 1.94-.78.08zm2.01-.02a2.24 2.24 0 012.14-2.47c.74 0 1.26.35 1.26 1s-.69 1.33-2.61 1.33c0 .61.19 1 .87 1a2.08 2.08 0 00.91-.25l.22.59a2.8 2.8 0 01-1.32.32 1.36 1.36 0 01-1.47-1.52zm.89-.78c1.44 0 1.72-.3 1.72-.64s-.23-.4-.56-.4a1.3 1.3 0 00-1.16 1.04zm2.92.78a2.27 2.27 0 012.2-2.47 2.38 2.38 0 011 .21l-.34.6a2.09 2.09 0 00-.81-.16c-.7 0-1.29.74-1.29 1.76a.81.81 0 00.84.91 2.61 2.61 0 00.88-.18l.18.6a3 3 0 01-1.17.24 1.4 1.4 0 01-1.49-1.51zm4.41-.07a2.24 2.24 0 000 .34.51.51 0 00.57.58 1.65 1.65 0 001-.53l.48-2.72h.78l-.67 3.83h-.52l-.08-.4a1.94 1.94 0 01-1.27.48.93.93 0 01-1.07-1 3 3 0 010-.5l.41-2.38h.78zm4.28-3.27l.8-.15-.2 1.09h1.16l-.26.65h-1l-.37 2.08v.15c0 .27.18.37.43.37a1.76 1.76 0 00.57-.1l.07.62a2.84 2.84 0 01-.84.14c-.6 0-1-.24-1-.88a2 2 0 010-.33l.36-2.05h-.65l.11-.65h.65zm1.82 1.59l.26-.65h1.33l-.66 3.83H435l.56-3.18zm1.4-2.23a.47.47 0 110 .94.47.47 0 110-.94zm2.85 1.51a1.34 1.34 0 011.45 1.51 2.25 2.25 0 01-2.15 2.47 1.33 1.33 0 01-1.45-1.51 2.24 2.24 0 012.15-2.47zm-.59 3.32c.73 0 1.23-.78 1.23-1.76 0-.6-.26-.91-.75-.91-.72 0-1.23.77-1.23 1.76 0 .6.27.91.75.91zm3.3.58H441l.67-3.83h.56l.08.41a1.62 1.62 0 011.16-.48.9.9 0 011 1 2.93 2.93 0 010 .49l-.42 2.38h-.79l.42-2.33a2.14 2.14 0 000-.34c0-.4-.18-.58-.54-.58a1.47 1.47 0 00-.93.53z" opacity=".7" fill="#a79944"/><path class="cls-1" d="M290.09 95h-2.35v-1.33a10.08 10.08 0 0110.05-9.85h.21c5.75 0 10 4.86 10 9.21v2h-2.35V93c0-3.17-3.36-6.85-7.7-6.85h-.25a7.8 7.8 0 00-7.7 7.49zm-8.17 16h-6V81a3 3 0 016 0zm-2-30a1 1 0 00-2 0v28h2zm40 30h-6V81a3 3 0 016 0zm-2-30a1 1 0 00-2 0v28h2zm-36 39v7h-6v-7a3 3 0 016 0zm-2 0a1 1 0 00-2 0v5h2zm60.17-5.18V130h1.83v2h-88v-2h1.82v-15.18l-1.82-1.82h1.82V97.82L253.92 96h16v-9.82c-7.41 0-11.83 4.48-11.83 8.82h-2.35c0-5.49 5.3-11.18 14.18-11.18V75h-2.77l3.77-6.28V60l-2-2h18l-2 2v8h2.37a11.59 11.59 0 017.12-8.27 3.91 3.91 0 002.51-3.73v-.33h2v.34a3.9 3.9 0 002.5 3.68 11.66 11.66 0 017.12 8.31h2.38v-8l-2-2h18l-2 2v8.72l3.76 6.28h-2.76v8.82c8.87 0 14.17 5.69 14.17 11.18h-2.35c0-4.34-4.42-8.82-11.82-8.82V96h16l-1.83 1.82V113h1.83zM325.92 98v15h11.82V98zm-.77-25l-1.23-2.06-1.24 2.06h2.47zm-16.28-3c0 .37.05.74.05 1.11V73h3.23l-1.8-3zm-23.39 0l-1.8 3h3.24v-3zm-14.8 3h2.47l-1.23-2.06zm1.24 2v38h15.82V97.82L285.92 96h24l-1.83 1.82V113h15.83V75h-4.77l3.77-6.28V60h-10v10.39l2.76 4.61h-8.76v-3.89a10 10 0 00-6.19-9.5 5.79 5.79 0 01-2.82-2.24 5.77 5.77 0 01-2.81 2.24 9.94 9.94 0 00-6.18 9.5V75h-8.77l2.77-4.61V60h-10v8.72l3.76 6.28zm33.82 40h-15.65v2.58a3.31 3.31 0 011.83-.58 3.72 3.72 0 013 1.73 3.47 3.47 0 016 0 3.69 3.69 0 013-1.73 3.3 3.3 0 011.82.58zm0-2V98h-15.65v15zm-47.65-15v15h11.83V98zm3.83 32v-8c0-1.63-.92-3-2-3-.81 0-1.51.75-1.83 1.8v9.2zm8 0v-15h-11.83v2.58a3.31 3.31 0 011.83-.58c2.2 0 4 2.24 4 5v8zm17.82 0v-15h-15.82v15zm6.18 0v-8c0-1.63-.92-3-2-3-.81 0-1.51.75-1.83 1.8v9.2zm6 0v-8c0-1.63-.92-3-2-3s-2 1.37-2 3v8zm5.82 0v-9.2c-.32-1-1-1.8-1.82-1.8-1.09 0-2 1.37-2 3v8zm18.18 0v-15h-15.83v15zm8 0v-8c0-2.76 1.79-5 4-5a3.3 3.3 0 011.82.58V115h-11.82v15zm5.82 0v-9.2c-.32-1-1-1.8-1.82-1.8-1.09 0-2 1.37-2 3v8zm-36.82-27v8h-6v-8a3 3 0 016 0zm-2 0a1 1 0 00-2 0v6h2zm38 8h-6v-8a3 3 0 016 0zm-2-8a1 1 0 00-2 0v6h2zm-40-22h-3v-2h3v-6a3 3 0 016 0v6h3v2h-9zm2-2h2v-6a1 1 0 00-2 0zm4-46v10h-6V33a3 3 0 016 0zm-2 0a1 1 0 00-2 0v8h2zm-6 10h-6V33a3 3 0 016 0zm-2-10a1 1 0 00-2 0v8h2zm18 10h-6V33a3 3 0 016 0zm-2-10a1 1 0 00-2 0v8h2zm13 87v7h-6v-7a3 3 0 016 0zm-2 0a1 1 0 00-2 0v5h2zm-29-96.89a9.94 9.94 0 016.18-9.5 5.77 5.77 0 002.81-2.24 5.79 5.79 0 002.82 2.24 10 10 0 016.19 9.5V26h2v-2.89a12 12 0 00-7.5-11.38 3.9 3.9 0 01-2.5-3.68V4h2V2h-2V0h-2v2h-2v2h2v4a3.91 3.91 0 01-2.51 3.69 12 12 0 00-7.49 11.38V26h2zm-1 5.89h21l2-2h-26l2 2zm30 18a3 3 0 013 3v7h-6v-7a3 3 0 013-3zm0 2a1 1 0 00-1 1v5h2v-5a1 1 0 00-1-1zm7 8V47h-2v10zm-14 0h2V47h-2zm0-11h14l2-2h-16zm2-3a6.3 6.3 0 012.53-5.31 4.32 4.32 0 014.93 0 6.3 6.3 0 012.53 5.31h2a8.29 8.29 0 00-3.41-7 6.53 6.53 0 00-2.58-1v-5h2v-2h-2v-2h-2v2h-2v2h2v5a6.51 6.51 0 00-2.59 1 8.31 8.31 0 00-3.41 7zm-35 4a3 3 0 013 3v7h-6v-7a3 3 0 013-3zm0 2a1 1 0 00-1 1v5h2v-5a1 1 0 00-1-1zm-7 8h2V47h-2zm14 0V47h-2v10zm0-11v-2h-16l2 2zm-9.47-8.32a4.32 4.32 0 014.93 0 6.33 6.33 0 012.54 5.32h2a8.34 8.34 0 00-3.42-7 6.47 6.47 0 00-2.58-1v-5h2v-2h-2v-2h-2v2h-2v2h2v5a6.51 6.51 0 00-2.59 1 8.29 8.29 0 00-3.41 7h2a6.3 6.3 0 012.53-5.32zM290.74 111h2.35v-10h-2.35zm12-10v10h2.35v-10zm-43.82 10v-8a3 3 0 016 0v8zm2-2h2v-6a1 1 0 00-2 0zm48-65h-22v2h4v13h2V46h10v13h2V46h4zm-22 13h2V47h-2zm22 0V47h-2v10zm-236 165.39h2v2h-2zm0-18h2v2h-2zm0-6h2v2h-2zm0 12h2v2h-2zm0 6h2v2h-2zm0-24h2v2h-2zm0-6h2v2h-2zm-3 39h2v2h-2zm0-6h2v2h-2zm0-18h2v2h-2zm0-6h2v2h-2zm0 12h2v2h-2zm0 6h2v2h-2zm-3 9h2v2h-2zm0-6h2v2h-2zm-3 9h2v2h-2zm0-6h2v2h-2zm0-6h2v2h-2zm-3 9h2v2h-2zm0-6h2v2h-2zm-3 9h2v2h-2zm0-6h2v2h-2zm0-6h2v2h-2zm12-30h2v2h-2zm0 6h2v2h-2zm6 36h2v2h-2zm0-6h2v2h-2zm0-18h2v2h-2zm0-6h2v2h-2zm0 12h2v2h-2zm0 6h2v2h-2zm0-30h2v2h-2zm0 6h2v2h-2zm-30 12h2v2h-2zm6 0h2v2h-2zm-3 3h2v2h-2zm-3-9h2v2h-2zm6 0h2v2h-2zm-3 3h2v2h-2zm6 0h2v2h-2zm6 0h2v2h-2zm-3 3h2v2h-2zm9-3h2v2h-2zm-3 3h2v2h-2zm-9-9h2v2h-2zm6 0h2v2h-2zm-3 3h2v2h-2zm9-3h2v2h-2zm-18 0h2v2h-2zm15 3h2v2h-2zm-9 9h2v2h-2zm6 0h2v2h-2zm-3 3h2v2h-2zm9-3h2v2h-2zm-3 3h2v2h-2zm-3 3h2v2h-2zm3 27h2v2h-2zm0-6h2v2h-2zm-3 9h2v2h-2zm0-6h2v2h-2zm-3 3h2v2h-2zm6 6h2v2h-2zm-6 0h2v2h-2zm0-12h2v2h-2zm18 6h2v2h-2zm0-6h2v2h-2zm-3 9h2v2h-2zm0-6h2v2h-2zm-3 3h2v2h-2zm6 6h2v2h-2zm6-6h2v2h-2zm-3 3h2v2h-2zm0-6h2v2h-2zm3 9h2v2h-2zm-12 0h2v2h-2zm36-6h2v2h-2zm-3 3h2v2h-2zm-3-3h2v2h-2zm6 6h2v2h-2zm6-6h2v2h-2zm-3 3h2v2h-2zm6 0h2v2h-2zm-3 3h2v2h-2zm-12 0h2v2h-2zm-30-12h2v2h-2zm18 0h2v2h-2zm-3 3h2v2h-2zm6 0h2v2h-2zm-9-3h2v2h-2zm18 0h2v2h-2zm-3 3h2v2h-2zm6 0h2v2h-2zm-9-3h2v2h-2zm18 0h2v2h-2zm-3 3h2v2h-2zm6 0h2v2h-2zm-9-3h2v2h-2zm12 6h2v2h-2zm0 6h2v2h-2zm6-6h2v2h-2zm-3 3h2v2h-2zm6 0h2v2h-2zm-3 3h2v2h-2zm0-12h2v2h-2zm-3 3h2v2h-2zm6 0h2v2h-2zm-3-9h2v2h-2zm-3 3h2v2h-2zm6 0h2v2h-2zm-3-9h2v2h-2zm-3 3h2v2h-2zm6 0h2v2h-2zm-3-9h2v2h-2zm-3 3h2v2h-2zm6 0h2v2h-2zm-6-6h2v2h-2zm6 0h2v2h-2zm3 3h2v2h-2zm3 3h2v2h-2zm0-6h2v2h-2zm3 3h2v2h-2zm3 3h2v2h-2zm0-6h2v2h-2zm3 3h2v2h-2zm3 3h2v2h-2zm0-6h2v2h-2zm3 3h2v2h-2zm3 3h2v2h-2zm0-6h2v2h-2zm3 3h2v2h-2zm3 3h2v2h-2zm0-6h2v2h-2zm3 3h2v2h-2zm3 3h2v2h-2zm0-6h2v2h-2zm3 3h2v2h-2zm3 3h2v2h-2zm0-6h2v2h-2zm3 3h2v2h-2zm3 3h2v2h-2zm0-6h2v2h-2zm3 3h2v2h-2zm3 3h2v2h-2zm0-6h2v2h-2zm3 3h2v2h-2zm3 3h2v2h-2zm0-6h2v2h-2zm3 3h2v2h-2zm3 3h2v2h-2zm0-6h2v2h-2zm-75 21h2v2h-2zm-57-3h2v2h-2zm6-18h2v2h-2zm-21-27h2v2h-2zm6 0h2v2h-2zm-3 3h2v2h-2zm-3 3h2v2h-2zm6 0h2v2h-2zm6-6h2v2h-2zm6 0h2v2h-2zm-9 3h2v2h-2zm6 0h2v2h-2zm-3 3h2v2h-2zm9-3h2v2h-2zm-3 3h2v2h-2zm66 30h76v2h-76zm-111 39h47v2h-47zm15-3h32v2h-32zm3-3h29v2h-29zm3-3h26v2h-26zm124 9h33v2h-33zm0-3h27v2h-27zm0-3h21v2h-21zm0-3h15v2h-15z"/><path class="cls-1" d="M205.92 261.39v-13h1v-2h-4v-4h-2v4h-12v-4h-2v4h-12v-4h-2v4h-13v-4h-2v4h-12v-4h-2v4h-12v-5h74v-2h-76v7h-31v-9h-14v9h-16v-16h51v-21h76v9h2v-11h-80v21h-37v-19h10v11h4.67l9.81 7h3.44l-9.8-7h17.88v-2h-24v-9h24v-2h-36v-27h-38v30h12v2h-15l3 2h12v5h-7v-4h-2v4h-4v21h13v6h-7v-5h-2v5h-2v2h23v13h-50v2h192v-2zm-119-22h10v7h-10zm-43-1v-17h11v17zm13 8v-38h-12v-26h34v46h-12v18zm35 15v-9h-2v9h-4v-9h-2v9h-4v-9h-2v9h-4v-9h-2v9h-3v-13h92v13zm71 0v-13h41v13z"/><path class="cls-1" d="M106.92 252.39h2v4h-2zm6 0h2v4h-2zm6 0h2v4h-2zm6 0h2v4h-2zm6 0h2v4h-2zm6 0h2v4h-2zm6 0h2v4h-2zm6 0h2v4h-2zm6 0h2v4h-2zm-131 3h6v2h2v-4h-2v-22.62l-6 5.16v17.46h-2v4h2zm2-18.54l2-1.72v18.26h-2zm108-13.46h1v14h-1zm58 0h1v14h-1zm-5 0h1v14h-1zm-6 0h1v14h-1zm-6 0h1v14h-1zm-8 0h1v14h-1zm-7 0h1v14h-1zm-6 0h1v14h-1zm-6 0h1v14h-1zm-5 0h1v14h-1zm-5 0h1v14h-1zm59 0h1v14h-1zm4 0h1v14h-1zm4 0h1v14h-1zm-75 0h1v14h-1zm-84 11h7v1h-7zm0-5h7v1h-7zm0-5h7v1h-7zm43.62-63.19v-12.61h7.13l-.36 1.73h-4.83v3.49h4.29v1.73h-4.29v3.93h5.19v1.73zm9.09-1.73a1.19 1.19 0 00.61.18c.85 0 1.31-1.75 1.31-6.11V152h6.14v9.19h-1.87v-7.62h-2.48v.4c0 4.89-.88 7.31-3 7.31a2 2 0 01-1.14-.28zm14.61-4.11c2 0 3.28 1.08 3.28 2.94s-1.29 2.9-3.28 2.9h-3.67V152h1.87v3.35zm-1.8 1.57v2.7h1.62c1 0 1.55-.5 1.55-1.35s-.59-1.35-1.55-1.35zm15.36 6.55h-1.51v-2.28h-6.79V152h1.87v7.62h3.46V152h1.87v7.62h1.46zm2.07-2.28V152h1.87v6.13h.07L135 152h1.68v9.19h-1.87v-6.13h-.08l-4.23 6.13zm18.13 0h-1.87v-3.95h-3.62v3.95h-1.91V152h1.87v3.68h3.62V152H147zm7.7 0v-12.61h1.94v10.88h5.17v-10.88h1.94v10.88h1.8l-.36 4.37h-1.58v-2.64zm19.69-4.2h-5.83c.12 1.78 1.06 2.77 2.72 2.77a5.1 5.1 0 002.28-.63l.61 1.42a6.67 6.67 0 01-3.07.78c-2.71 0-4.47-1.77-4.47-4.78s1.66-4.77 4.14-4.77a3.41 3.41 0 013.78 3.69 7.64 7.64 0 01-.16 1.52zm-5.76-1.46h4.25a2 2 0 00-2.07-2.18 2.19 2.19 0 00-2.18 2.22zm15.62 5.66h-1.87v-3.95h-3.62v3.95h-1.87V152h1.87v3.68h3.62V152h1.87zm1.8-9.2h7.78l-.36 1.57h-2.65v7.62H189v-7.62h-2.92zm11.36 12.8l-1.87.36V152h1.33l.36 1h.07a3.24 3.24 0 012.61-1.16c2.6 0 3.71 2 3.71 4.77s-1.13 4.78-3.87 4.78a5.36 5.36 0 01-2.34-.49zm4.3-8.2c0-1.88-.75-3.2-2.34-3.2a2.62 2.62 0 00-2 1.13v4.63a3.32 3.32 0 002 .65c1.5 0 2.34-1.17 2.34-3.21zM95.53 168.24h1.71l-4 5.51-.68 3.95h-1.48l.69-3.95-2.07-5.51h1.66l1.35 3.95h.08zm-.05 6.88c0-2.39 1.42-4.45 3.85-4.45 1.32 0 2.25.64 2.25 1.8 0 1.42-1.23 2.4-4.68 2.4 0 1.1.33 1.79 1.55 1.79a3.64 3.64 0 001.63-.45l.41 1a5 5 0 01-2.38.57 2.42 2.42 0 01-2.63-2.66zm1.59-1.41c2.59 0 3.09-.54 3.09-1.13s-.41-.73-1-.73a2.35 2.35 0 00-2.09 1.86zm7.93 3.92a3.36 3.36 0 01-1.18.2c-1 0-1.47-.42-1.47-1.34a3.26 3.26 0 01.06-.58l1.41-8.07 1.46-.27-1.47 8.34v.26a.43.43 0 00.48.49 1.44 1.44 0 00.6-.14zm2.82-8.51l1.44-.27-.35 2H111l-.47 1.17h-1.81l-.66 3.74a1.3 1.3 0 000 .26c0 .5.32.68.78.68a3.08 3.08 0 001-.19l.13 1.12a5.21 5.21 0 01-1.51.24c-1.08 0-1.84-.42-1.84-1.58a3.28 3.28 0 01.06-.59l.64-3.68h-1.17l.2-1.17h1.18zm7.92 6.44c0 1.39-1.27 2.27-2.95 2.27a5.15 5.15 0 01-2.21-.48l.65-1.09a3.7 3.7 0 001.72.4c.6 0 1.37-.3 1.37-1s-.6-.8-1.26-1a2.15 2.15 0 01-1.61-1.92c0-1.36 1.16-2 2.67-2a5.09 5.09 0 012.19.48l-.63 1a4.49 4.49 0 00-1.63-.35c-.63 0-1.18.27-1.18.82s.6.79 1.06 1c.84.31 1.81.82 1.81 1.87zm1.31-3.56l.47-1.17h2.39l-1.2 6.89h-1.4l1-5.72zm2.51-4a.85.85 0 110 1.69.84.84 0 01-.85-.84.85.85 0 01.85-.85zm2.44 9.7h-1.4l1.2-6.89h1l.15.73a2.94 2.94 0 012.08-.87 1.63 1.63 0 011.86 1.85 5 5 0 01-.08.9l-.75 4.28h-1.41l.75-4.19a3.59 3.59 0 000-.62c0-.72-.31-1-1-1a2.69 2.69 0 00-1.69 1zm11.36-3.5c0 1.48.66 2.34 1.9 2.34a4 4 0 002-.57l.52 1.13a5.44 5.44 0 01-2.75.73c-2.09 0-3.2-1.32-3.2-3.62 0-3.32 1.95-6.1 4.92-6.1a4.56 4.56 0 012.35.61l-.77 1.14a3.48 3.48 0 00-1.81-.45c-1.86 0-3.16 2.25-3.16 4.79zm5.4.92c0-2.39 1.42-4.45 3.85-4.45 1.32 0 2.25.64 2.25 1.8 0 1.42-1.23 2.4-4.68 2.4 0 1.1.33 1.79 1.55 1.79a3.64 3.64 0 001.63-.45l.41 1a5 5 0 01-2.38.57 2.42 2.42 0 01-2.63-2.66zm1.59-1.41c2.6 0 3.1-.54 3.1-1.13s-.42-.73-1-.73a2.35 2.35 0 00-2.1 1.86zm6.45 3.99h-1.4l1.2-6.89h1l.15.73h.05a2.94 2.94 0 012.08-.87 1.64 1.64 0 011.87 1.85 6.11 6.11 0 01-.08.9l-.76 4.28h-1.4l.74-4.19a3.59 3.59 0 00.05-.62c0-.72-.31-1-1-1a2.66 2.66 0 00-1.68 1zm7.78-8.58l1.45-.27-.36 2h2.08l-.47 1.17h-1.81l-.66 3.74v.26c0 .5.33.68.79.68a3 3 0 001-.19l.13 1.12a5.11 5.11 0 01-1.51.24c-1.08 0-1.83-.42-1.83-1.58a3.2 3.2 0 010-.59l.65-3.68h-1.18l.21-1.17h1.17zm7.57 3a1.37 1.37 0 00-.67-.14c-.77 0-1.39.77-1.69 1.69l-.7 4h-1.4l1.2-6.89h1l.08 1.07h.03a2.23 2.23 0 012-1.21 2.8 2.8 0 01.85.14zm.63 3c0-2.39 1.41-4.45 3.84-4.45 1.33 0 2.26.64 2.26 1.8 0 1.42-1.23 2.4-4.69 2.4 0 1.1.34 1.79 1.56 1.79a3.67 3.67 0 001.63-.45l.41 1a5 5 0 01-2.38.57 2.42 2.42 0 01-2.63-2.66zm1.59-1.41c2.59 0 3.09-.54 3.09-1.13s-.42-.73-1-.73a2.35 2.35 0 00-2.09 1.86z"/><path class="cls-2" d="M92.81 186.33a1.77 1.77 0 011.51 1.83c0 1.5-1.12 2-2.56 2h-2.2v-7.35h2.2c1.31 0 2.3.48 2.3 1.76a1.63 1.63 0 01-1.25 1.68zm-2.11-2.47v2.07h1a1.09 1.09 0 001.2-1.06c0-.67-.43-1-1.24-1zm0 3v2.29h1c.91 0 1.45-.46 1.45-1.17s-.51-1.12-1.46-1.12zm6.18-.06h1a1.69 1.69 0 011.91 1.71c0 1.08-.76 1.69-1.91 1.69h-2v-5.36h1.09zm0 .91v1.57h.85c.56 0 .9-.29.9-.78s-.34-.79-.9-.79zm4.75 2.49h-1.1v-5.36h1.1zm5.11-1.04l.34.84a3.58 3.58 0 01-1.47.3 2.53 2.53 0 01-2.62-2.78 2.49 2.49 0 012.56-2.78 3.81 3.81 0 011.45.26l-.33.84a2.72 2.72 0 00-1.07-.21c-.91 0-1.52.76-1.52 1.87s.6 1.87 1.51 1.87a3.26 3.26 0 001.15-.21zm.86-4.32h4.54l-.21.92h-1.55v4.44h-1.08v-4.44h-1.7zm8.17 2.21v-.36c0-.64-.27-1-1.06-1a4.43 4.43 0 00-1.45.28l-.31-.85a5.19 5.19 0 011.89-.34c1.63 0 2 .86 2 2V189a.34.34 0 00.38.38h.12v.8a1.79 1.79 0 01-.64.11.81.81 0 01-.84-.62 2 2 0 01-1.51.62 1.46 1.46 0 01-1.66-1.6c0-1 .84-1.6 2-1.6zm-1.12.85c-.53 0-.91.29-.91.77a.71.71 0 00.79.72 1.55 1.55 0 001.24-.66v-.83zm8.02.75c0 1-.61 1.55-1.83 1.55h-2.33v-5.36h2.16c1.07 0 1.78.4 1.78 1.37a1.19 1.19 0 01-.92 1.14 1.33 1.33 0 011.14 1.3zm-3.07-2.89V187h.86c.5 0 .87-.15.87-.61s-.33-.6-.79-.6zm0 2.13v1.39h1.06c.56 0 .89-.22.89-.69s-.36-.7-1-.7zm7-.46l1.77 2.77-1.11.1-1.55-2.42h-.58v2.32H124v-5.36h1.1V187h.59l1.41-2.17h1.13zm2.71 2.77v-5.36h1.1v3.57l2.47-3.57h1v5.36h-1.08v-3.57l-2.47 3.57zm8.99 0v-5.36h1.09v3.57h.05l2.46-3.57h1v5.36h-1.09v-3.57l-2.47 3.57zm12.29-.87h-1.14l-1-2.92-.3 3.79H147l.51-5.36h1.25l1.26 3.42 1.26-3.42h1.25l.51 5.36H152l-.3-3.79zm6.58-2.28v-.36c0-.64-.27-1-1.06-1a4.43 4.43 0 00-1.45.28l-.31-.85a5.23 5.23 0 011.89-.34c1.63 0 2 .86 2 2V189a.34.34 0 00.38.38h.12v.8a1.77 1.77 0 01-.63.11.82.82 0 01-.85-.62h-.05a1.94 1.94 0 01-1.51.62 1.46 1.46 0 01-1.66-1.6c0-1 .84-1.6 2-1.6zm-1.12.85c-.53 0-.91.29-.91.77a.71.71 0 00.79.72 1.54 1.54 0 001.24-.66v-.83zm7.2-3.06l-.21.92h-2v4.44h-1.09v-5.36zm3.63 2.21v-.36c0-.64-.27-1-1.06-1a4.48 4.48 0 00-1.45.28l-.31-.85a5.27 5.27 0 011.89-.34c1.64 0 2 .86 2 2V189a.34.34 0 00.38.38h.12v.8a1.77 1.77 0 01-.63.11.82.82 0 01-.85-.62 2 2 0 01-1.52.62 1.46 1.46 0 01-1.65-1.6c0-1 .84-1.6 2-1.6zm-1.12.85c-.53 0-.9.29-.9.77a.7.7 0 00.78.72 1.54 1.54 0 001.24-.66v-.83zm6.34-.55a1.34 1.34 0 011.15 1.27c0 1-.75 1.65-2.25 1.65a4.94 4.94 0 01-1.8-.32l.34-.84a4.5 4.5 0 001.43.25c.68 0 1.16-.32 1.16-.76s-.28-.74-1.07-.74h-.72V187h.66c.5 0 .92-.2.92-.68s-.4-.69-.9-.69a4.34 4.34 0 00-1.41.23l-.33-.84a5.44 5.44 0 011.77-.3c1.28 0 2 .52 2 1.47a1.19 1.19 0 01-.95 1.16zm2.46 2.85v-5.36h1.09v3.57l2.47-3.57h1v5.36H178v-3.57l-2.46 3.57zm10.55 0H184v-2.3h-2.11v2.3h-1.09v-5.36h1.09V187H184v-2.14h1.09zm2.77-3.4h1a1.69 1.69 0 011.91 1.71c0 1.08-.76 1.69-1.91 1.69h-2.05v-5.36h1.09zm0 .91v1.57h.85c.56 0 .91-.29.91-.78s-.35-.79-.91-.79zm4.75 2.49h-1.09v-5.36h1.09zm-103.46 8.5l.92-5.26h3l-.27.72h-2l-.25 1.47h1.79l-.13.72h-1.84L90.1 198h2.16l-.12.72zm5.51-1.41l-1.14 1.41h-.91l1.64-2-.9-1.83h.82l.65 1.34 1-1.34h.9l-1.57 1.89 1 1.94-.79.07zm3.38-1.29l-.47 2.72h-.78l1-5.48.81-.15-.39 2.2a1.68 1.68 0 011.11-.48.89.89 0 011 1 2.93 2.93 0 010 .49l-.42 2.4h-.78l.4-2.32a1.42 1.42 0 000-.34c0-.4-.18-.59-.54-.59a1.49 1.49 0 00-.94.55zm2.94-.48l.26-.65h1.33l-.67 3.83h-.78l.56-3.18zm1.4-2.24a.48.48 0 01.48.48.47.47 0 01-.48.46.46.46 0 01-.48-.46.47.47 0 01.43-.48zm2.09 5.49a4 4 0 01-1.52-.3l.93-5.25.81-.15-.39 2.2a1.52 1.52 0 011.08-.48c.83 0 1.23.6 1.23 1.51a2.25 2.25 0 01-2.14 2.47zm.66-3.32a1.49 1.49 0 00-1 .53l-.35 2a2.22 2.22 0 00.79.14c.72 0 1.23-.78 1.23-1.77.04-.6-.21-.9-.67-.9zm2.11.07l.26-.65h1.33l-.67 3.83h-.78l.56-3.18zm1.39-2.24a.47.47 0 01.48.48.48.48 0 01-.95 0 .47.47 0 01.47-.48zm1.68.65l.81-.15-.2 1.09h1.16l-.26.65h-1l-.37 2.08a.71.71 0 000 .14c0 .28.18.38.43.38a1.55 1.55 0 00.57-.11l.07.63a2.82 2.82 0 01-.84.13c-.6 0-1-.23-1-.88a2.12 2.12 0 010-.33l.36-2h-.65l.11-.65h.65zm1.84 1.59l.26-.65h1.33l-.67 3.83h-.78l.56-3.18zm1.4-2.24a.48.48 0 01.48.48.47.47 0 01-.48.46.46.46 0 01-.48-.46.47.47 0 01.48-.48zm2.85 1.51a1.34 1.34 0 011.45 1.51 2.25 2.25 0 01-2.15 2.47 1.32 1.32 0 01-1.45-1.51 2.24 2.24 0 012.15-2.47zm-.59 3.33c.72 0 1.23-.78 1.23-1.77 0-.6-.26-.9-.76-.9-.72 0-1.23.77-1.23 1.75 0 .61.27.92.76.92zm3.3.58h-.78l.67-3.83h.55l.09.4a1.64 1.64 0 011.15-.48.91.91 0 011 1 3.24 3.24 0 010 .5l-.42 2.38h-.78l.41-2.33a1.5 1.5 0 000-.35c0-.39-.18-.57-.54-.57a1.47 1.47 0 00-.94.53zm5.87-1.19c0 .77-.7 1.26-1.64 1.26a2.72 2.72 0 01-1.23-.27l.37-.6a2 2 0 00.95.22c.34 0 .76-.17.76-.55s-.33-.44-.7-.58a1.2 1.2 0 01-.89-1.06c0-.76.64-1.14 1.48-1.14a2.76 2.76 0 011.22.27l-.36.58a2.41 2.41 0 00-.9-.19c-.35 0-.66.15-.66.45s.34.44.6.54c.5.19 1 .49 1 1.07zm6.31-2.43l-.63 3.62h-.52l-.09-.41a1.55 1.55 0 01-1.14.48c-.82 0-1.18-.59-1.18-1.51a2.24 2.24 0 012.15-2.47 3.88 3.88 0 011.41.29zm-2.79 2.12c0 .57.2.92.63.92a1.21 1.21 0 00.95-.55l.34-2a2 2 0 00-.69-.13c-.75.01-1.23.78-1.23 1.76zm3.94 1.5h-.78l.67-3.83h.56l.08.4a1.68 1.68 0 011.16-.48.91.91 0 011 1 3.13 3.13 0 010 .5l-.42 2.38H134l.41-2.33a2.26 2.26 0 000-.35c0-.39-.17-.57-.53-.57a1.45 1.45 0 00-.94.53zm5.54-3.91a2 2 0 01.82.17l.3-1.74.81-.15-1 5.63h-.52l-.08-.41a1.73 1.73 0 01-1.21.48c-.79 0-1.25-.51-1.25-1.51a2.24 2.24 0 012.13-2.47zm.36 2.79l.33-1.88a1.28 1.28 0 00-.81-.25c-.72 0-1.23.77-1.23 1.75 0 .61.29.92.77.92a1.21 1.21 0 00.9-.54zm6.23-.07c0 .77-.7 1.26-1.64 1.26a2.71 2.71 0 01-1.22-.27l.36-.6a2 2 0 00.95.22c.34 0 .77-.17.77-.55s-.34-.44-.71-.58a1.2 1.2 0 01-.89-1.06c0-.76.64-1.14 1.48-1.14a2.73 2.73 0 011.22.27l-.35.58a2.5 2.5 0 00-.9-.19c-.36 0-.66.15-.66.45s.33.44.59.54c.46.19 1 .49 1 1.07zm1.87-1.51l-.46 2.7h-.78l1-5.48.81-.15-.39 2.2a1.68 1.68 0 011.1-.48.9.9 0 011 1 2.93 2.93 0 010 .49l-.42 2.4h-.79l.41-2.32a2.23 2.23 0 000-.34c0-.4-.18-.59-.54-.59a1.49 1.49 0 00-.94.57zm5.03-1.21a1.34 1.34 0 011.45 1.51 2.24 2.24 0 01-2.14 2.47 1.32 1.32 0 01-1.45-1.51 2.24 2.24 0 012.14-2.47zm-.58 3.33c.72 0 1.23-.78 1.23-1.77 0-.6-.26-.9-.76-.9-.72 0-1.23.77-1.23 1.75 0 .61.26.92.76.92zm6.27-1.82a2.24 2.24 0 01-2.15 2.47 1.81 1.81 0 01-.82-.2l-.28 1.63-.8.15 1-5.48h.55l.09.4a1.4 1.4 0 011.06-.48c.88 0 1.35.51 1.35 1.51zm-.81 0c0-.6-.26-.9-.76-.9a1.35 1.35 0 00-.92.47l-.35 1.93a1.23 1.23 0 00.81.27c.75.05 1.22-.76 1.22-1.72zm3.97 1.21c0 .77-.7 1.26-1.64 1.26a2.68 2.68 0 01-1.22-.27l.36-.6a2 2 0 00.95.22c.34 0 .77-.17.77-.55s-.34-.44-.71-.58a1.2 1.2 0 01-.89-1.06c0-.76.64-1.14 1.48-1.14a2.73 2.73 0 011.22.27l-.35.58a2.5 2.5 0 00-.9-.19c-.36 0-.66.15-.66.45s.33.44.59.54c.46.19 1 .49 1 1.07z"/><path class="cls-1" d="M363.73 217v10.88h-2v-12.6h7l-.36 1.72zm3.62 9.16a1.08 1.08 0 00.61.18c.84 0 1.31-1.74 1.31-6.1v-1.53h6.14v9.18h-1.87v-7.62h-2.49v.4c0 4.9-.88 7.31-2.95 7.31a2.09 2.09 0 01-1.19-.32zm15.65-3.67v-.61c0-1.1-.47-1.79-1.82-1.79a7.1 7.1 0 00-2.48.49l-.54-1.46a8.86 8.86 0 013.24-.59c2.81 0 3.47 1.47 3.47 3.38v3.85a.58.58 0 00.65.65h.2v1.39a3.26 3.26 0 01-1.08.18 1.42 1.42 0 01-1.46-1.06h-.07a3.39 3.39 0 01-2.6 1.06 2.51 2.51 0 01-2.84-2.74c0-1.74 1.44-2.75 3.47-2.75zm-1.94 1.51a1.37 1.37 0 00-1.55 1.33 1.21 1.21 0 001.35 1.22 2.68 2.68 0 002.13-1.13V224zm13.76 1.24c0 1.66-1.05 2.65-3.14 2.65h-4v-9.18h3.7c1.84 0 3.05.68 3.05 2.34a2.05 2.05 0 01-1.57 2v.05a2.28 2.28 0 011.96 2.14zm-5.26-5v2.09H391c.84 0 1.49-.27 1.49-1s-.58-1-1.37-1zm0 3.66v2.39h1.82c.95 0 1.53-.37 1.53-1.18s-.63-1.21-1.71-1.21zm14.81 3.99h-1.87v-7.62H399v7.62h-1.88v-9.18h7.22zm2.34-4.59c0-3 1.68-4.77 4.23-4.77s4.23 1.78 4.23 4.77-1.67 4.77-4.23 4.77-4.23-1.78-4.23-4.77zm1.91 0c0 2 .92 3.2 2.32 3.2s2.32-1.19 2.32-3.2-.91-3.21-2.32-3.21-2.32 1.19-2.32 3.21zm8.38-1.75v-2.84h1.87v2.68a1.44 1.44 0 001.59 1.57 4.9 4.9 0 001.74-.33v-3.92h1.88v9.18h-1.88v-3.75a5.83 5.83 0 01-2 .38c-1.88 0-3.2-.95-3.2-2.97zm8.84-2.84h7.78l-.36 1.56h-2.64v7.62h-1.86v-7.62h-2.92zm14.01 3.78v-.61c0-1.1-.47-1.79-1.82-1.79a7.1 7.1 0 00-2.48.49l-.54-1.46a8.9 8.9 0 013.24-.59c2.81 0 3.47 1.47 3.47 3.38v3.85a.58.58 0 00.65.65h.2v1.39a3.26 3.26 0 01-1.08.18 1.42 1.42 0 01-1.46-1.06H440a3.39 3.39 0 01-2.59 1.06c-1.75 0-2.85-.86-2.85-2.74s1.44-2.75 3.48-2.75zm-1.93 1.51a1.36 1.36 0 00-1.54 1.33 1.2 1.2 0 001.35 1.22 2.67 2.67 0 002.12-1.13V224zm12.28 2.4h-1.94l-1.8-5h-.08l-.52 6.5H444l.88-9.18H447l2.16 5.87h.07l2.16-5.87h2.15l.88 9.18h-1.82l-.53-6.5H452zm5.51-7.69h7.78l-.36 1.56h-2.65v7.62h-1.86v-7.62h-2.91zm-92.58 19.18c0 1.49.67 2.34 1.91 2.34a4 4 0 002-.57l.51 1.14a5.5 5.5 0 01-2.74.72c-2.09 0-3.2-1.32-3.2-3.61 0-3.33 1.94-6.11 4.91-6.11a4.54 4.54 0 012.35.61l-.77 1.15a3.37 3.37 0 00-1.81-.46c-1.86 0-3.16 2.25-3.16 4.79zm5.4.92c0-2.39 1.42-4.44 3.85-4.44 1.33 0 2.26.63 2.26 1.79 0 1.42-1.23 2.41-4.69 2.41 0 1.09.34 1.78 1.55 1.78a3.68 3.68 0 001.64-.45l.4 1.06a4.91 4.91 0 01-2.37.56 2.43 2.43 0 01-2.64-2.71zm1.6-1.4c2.59 0 3.09-.54 3.09-1.14s-.42-.73-1-.73a2.35 2.35 0 00-2.09 1.87zm6.45 3.98h-1.4l1.2-6.89h1l.15.73h.05a2.93 2.93 0 012.08-.86 1.63 1.63 0 011.86 1.85 4.89 4.89 0 01-.08.89l-.75 4.28h-1.41l.74-4.19a2.76 2.76 0 00.06-.62c0-.71-.31-1-1-1a2.69 2.69 0 00-1.69 1zm7.78-8.58l1.44-.26-.35 1.95h2.08l-.47 1.18h-1.81l-.66 3.74a1.15 1.15 0 000 .26c0 .49.32.67.78.67a2.85 2.85 0 001-.19l.13 1.12a5.21 5.21 0 01-1.51.24c-1.08 0-1.84-.41-1.84-1.58a3.37 3.37 0 01.06-.59l.64-3.67h-1.17l.2-1.18h1.18zm7.57 3a1.41 1.41 0 00-.67-.13c-.77 0-1.39.77-1.69 1.69l-.7 4h-1.41l1.2-6.89h1l.08 1.07h.06a2.24 2.24 0 012-1.2 2.86 2.86 0 01.85.13zm7.07-.93l-1.15 6.51h-.93l-.15-.73h-.05a2.84 2.84 0 01-2.06.86c-1.48 0-2.13-1.06-2.13-2.71 0-2.39 1.43-4.44 3.86-4.44a7.3 7.3 0 012.61.51zm-5 3.82c0 1 .35 1.65 1.13 1.65a2.17 2.17 0 001.7-1l.62-3.57a3.29 3.29 0 00-1.24-.25c-1.3.01-2.21 1.4-2.21 3.17zm8.54 2.62a3.34 3.34 0 01-1.17.2c-1 0-1.48-.41-1.48-1.33a3.09 3.09 0 01.06-.58l1.42-8.08 1.46-.27-1.48 8.35a2.29 2.29 0 000 .25c0 .34.16.49.47.49a1.67 1.67 0 00.61-.13zm6.51-3.25l-.58 3.32H407l1.66-9.45h3a2.37 2.37 0 012.64 2.6 3.49 3.49 0 01-3.72 3.53zm.85-4.84l-.62 3.54h1.5a2 2 0 002-2.21 1.21 1.21 0 00-1.35-1.33zm8.37 1.14a2.4 2.4 0 012.61 2.71c0 2.38-1.44 4.44-3.87 4.44-1.7 0-2.6-.91-2.6-2.71 0-2.39 1.43-4.44 3.86-4.44zm-1 6c1.29 0 2.21-1.4 2.21-3.17 0-1.08-.47-1.64-1.36-1.64-1.3 0-2.22 1.39-2.22 3.16-.05 1.08.42 1.63 1.32 1.63zm9.3-1.11c0 1.39-1.27 2.26-3 2.26a5 5 0 01-2.2-.48l.65-1.08a3.76 3.76 0 001.72.39c.6 0 1.37-.3 1.37-1s-.6-.79-1.27-1a2.14 2.14 0 01-1.6-1.91c0-1.37 1.16-2 2.67-2a5.12 5.12 0 012.19.47l-.64 1a4.39 4.39 0 00-1.62-.35c-.63 0-1.18.27-1.18.83s.6.78 1.06 1c.88.29 1.85.81 1.85 1.87zm3.07-6.45l1.44-.26-.35 1.95h2.08l-.47 1.18h-1.81l-.66 3.74a1.15 1.15 0 000 .26c0 .49.32.67.78.67a2.76 2.76 0 001-.19l.14 1.12a5.21 5.21 0 01-1.51.24c-1.08 0-1.84-.41-1.84-1.58a3.27 3.27 0 01.05-.59l.65-3.67H428l.2-1.18h1.18zm7.08 5.1c0-3.33 1.95-6.11 4.92-6.11 2.09 0 3.19 1.33 3.19 3.62 0 3.32-1.94 6.1-4.91 6.1-2.09 0-3.2-1.32-3.2-3.61zm1.53 0c0 1.49.66 2.34 1.9 2.34 1.87 0 3.15-2.26 3.15-4.8 0-1.48-.65-2.33-1.89-2.33-1.87-.02-3.16 2.23-3.16 4.77zm12.01-3.41l-.47 1.18h-1.42l-1.14 6.55a2.24 2.24 0 01-2.35 2.13 3.36 3.36 0 01-1.54-.42l.55-1.05a2.15 2.15 0 001 .3c.48 0 .81-.26.93-1l1.15-6.55h-1.15l.21-1.18h1.15l.16-.9a2.49 2.49 0 012.6-2.34 2.91 2.91 0 011.56.38l-.65 1a2 2 0 00-.95-.24c-.6 0-1 .37-1.17 1.16l-.16.9zm4.53 0l-.48 1.18h-1.41l-1.15 6.55a2.24 2.24 0 01-2.35 2.13 3.4 3.4 0 01-1.54-.42l.55-1.05a2.19 2.19 0 001 .3c.47 0 .81-.26.93-1l1.14-6.55h-1.14l.2-1.18h1.15l.16-.9a2.5 2.5 0 012.61-2.34 2.87 2.87 0 011.55.38l-.65 1a1.94 1.94 0 00-.94-.24c-.61 0-1 .37-1.18 1.16l-.16.9zm-.18 1.18l.47-1.18h2.39l-1.2 6.89h-1.4l1-5.71zm2.51-4a.87.87 0 01.87.85.85.85 0 01-.87.84.83.83 0 01-.85-.84.85.85 0 01.85-.88zm1.27 7.13c0-2.46 1.57-4.44 4-4.44a4.15 4.15 0 011.86.39l-.62 1.08a3.49 3.49 0 00-1.44-.3c-1.27 0-2.33 1.33-2.33 3.16a1.46 1.46 0 001.52 1.65 4.83 4.83 0 001.58-.32l.32 1.08a5.4 5.4 0 01-2.11.41 2.51 2.51 0 01-2.78-2.71zm6.03 0c0-2.39 1.42-4.44 3.85-4.44 1.33 0 2.26.63 2.26 1.79 0 1.42-1.23 2.41-4.69 2.41 0 1.09.34 1.78 1.55 1.78a3.68 3.68 0 001.64-.45l.4 1.06a4.91 4.91 0 01-2.37.56 2.43 2.43 0 01-2.64-2.71zm1.6-1.4c2.59 0 3.09-.54 3.09-1.14s-.42-.73-1-.73a2.35 2.35 0 00-2.11 1.87z"/><path class="cls-2" d="M361.81 254.89v-7.35h5.3v7.35H366v-6.34h-3v6.34zm9.83-3.15v-.36c0-.64-.28-1-1.06-1a4.16 4.16 0 00-1.45.29l-.32-.85a5.28 5.28 0 011.89-.35c1.64 0 2 .86 2 2v2.25a.34.34 0 00.38.38h.11v.81a2 2 0 01-.63.1.83.83 0 01-.85-.62 2 2 0 01-1.51.62 1.46 1.46 0 01-1.66-1.59c0-1 .84-1.61 2-1.61zm-1.13.85a.8.8 0 00-.9.78.7.7 0 00.79.71 1.57 1.57 0 001.24-.66v-.83zm7.16 1.41h-1.13l-1.05-2.92-.31 3.79h-1.08l.52-5.35h1.25l1.26 3.42 1.26-3.42h1.25l.51 5.35h-1.08l-.3-3.79zm4.67-1.2a1.56 1.56 0 01-1-1.56 1.65 1.65 0 011.86-1.7h2.11v5.35h-1.09V253h-.83l-1.16 1.94H381zm1-.75h.92v-1.6h-.92a.79.79 0 00-.85.81.77.77 0 00.82.79zm3.03-2.51h4.53l-.21.91h-1.54v4.44h-1.08v-4.44h-1.7zm9.83 5.35h-1.1v-2.3H393v2.3h-1.1v-5.35h1.1v2.14h2.11v-2.14h1.1zm1.68 0v-5.35H399v3.57l2.47-3.57h1v5.35h-1.09v-3.57l-2.47 3.57zm8.82-2.77l1.77 2.77-1.11.1-1.55-2.42h-.58v2.32h-1.1v-5.35h1.1v2.16h.59l1.41-2.16h1.13zm8.01 0l1.77 2.77-1.11.1-1.54-2.42h-.59v2.32h-1.09v-5.35h1.09v2.16h.6l1.4-2.16h1.14zm2.29.09c0-1.74 1-2.78 2.46-2.78s2.47 1 2.47 2.78-1 2.78-2.47 2.78-2.46-.99-2.46-2.78zm1.11 0c0 1.18.54 1.87 1.35 1.87s1.36-.69 1.36-1.87-.54-1.87-1.36-1.87-1.34.66-1.34 1.87zm9.49 2.68h-1.09v-2.3h-2.11v2.3h-1.09v-5.35h1.09v2.14h2.11v-2.14h1.09zm5.11-1.04l.34.84a3.51 3.51 0 01-1.47.3 2.52 2.52 0 01-2.61-2.78 2.48 2.48 0 012.56-2.78 4 4 0 011.47.28l-.34.84a2.87 2.87 0 00-1.07-.21c-.9 0-1.51.76-1.51 1.87s.6 1.87 1.5 1.87a3 3 0 001.13-.23zm.87-4.31h4.53l-.21.91h-1.54v4.44h-1.08v-4.44h-1.7zm6.62 7.46l-1.09.21v-7.66h.78l.21.56a1.9 1.9 0 011.52-.67c1.51 0 2.16 1.19 2.16 2.78s-.66 2.78-2.25 2.78a3.15 3.15 0 01-1.37-.28zm2.51-4.78c0-1.1-.44-1.87-1.37-1.87a1.53 1.53 0 00-1.14.67v2.69a1.9 1.9 0 001.19.38c.83-.01 1.32-.69 1.32-1.88zm2.44 3.93a1.54 1.54 0 00.57.14c.24 0 .52-.12.66-.62l.24-.78h-.39l-1.88-5.35h1.19l1.39 4.1 1.24-4.1h1.18l-2.06 6.38a1.56 1.56 0 01-1.54 1.28 2.52 2.52 0 01-.93-.2zm7.69-4.03l1.78 2.77-1.12.1-1.5-2.42h-.59v2.32h-1.09v-5.35h1.09v2.16h.6l1.41-2.16h1.13zm2.09-2.58h4.54l-.21.91h-1.55v4.44h-1.08v-4.44h-1.7zm5.54 5.35v-5.35h1.09v3.57l2.47-3.57h1v5.35H464v-3.57l-2.47 3.57zm10.41-1.54c0 1-.61 1.54-1.83 1.54h-2.33v-5.35h2.17c1.07 0 1.77.39 1.77 1.36a1.21 1.21 0 01-.91 1.15 1.32 1.32 0 011.13 1.3zm-3.06-2.9v1.22h.86c.49 0 .87-.16.87-.61s-.34-.61-.8-.61zm0 2.13V254h1.06c.55 0 .89-.22.89-.7s-.37-.7-1-.7zm4.43 2.31v-5.35h1.09v3.57l2.47-3.57h1v5.35h-1.09v-3.57l-2.47 3.57zm8.75-2.84a1.32 1.32 0 011.15 1.27c0 1-.75 1.64-2.25 1.64a5 5 0 01-1.8-.32l.34-.84a4.28 4.28 0 001.43.25c.68 0 1.16-.31 1.16-.75s-.28-.75-1.07-.75h-.72v-.87h.64c.5 0 .92-.2.92-.67s-.4-.7-.9-.7a4.35 4.35 0 00-1.41.24l-.33-.84a5.45 5.45 0 011.77-.31c1.28 0 2 .53 2 1.47a1.22 1.22 0 01-.93 1.18zm5.74 1.95h-1.14l-1.05-2.92-.3 3.79h-1.09l.52-5.35h1.25l1.26 3.42 1.26-3.42h1.25l.51 5.35h-1.08l-.3-3.79zm6.58-2.26v-.36c0-.64-.27-1-1.06-1a4.21 4.21 0 00-1.45.29l-.31-.85a5.19 5.19 0 011.88-.35c1.64 0 2 .86 2 2v2.25a.34.34 0 00.38.38h.11v.81a2 2 0 01-.63.1.83.83 0 01-.85-.62 2 2 0 01-1.51.62 1.46 1.46 0 01-1.66-1.59c0-1 .84-1.61 2-1.61zm-1.12.85a.81.81 0 00-.91.78.7.7 0 00.79.71 1.57 1.57 0 001.24-.66v-.83z"/><path d="M364.48 262.7h-.79l-.46-3.2-1 3.89h-.81l1.41-5.25h1l.51 3.45 1.73-3.45h1l-.43 5.25h-.81l.32-3.89zm5.13-3.21a1.33 1.33 0 011.45 1.51 2.24 2.24 0 01-2.14 2.47 1.32 1.32 0 01-1.45-1.51 2.24 2.24 0 012.14-2.47zm-.58 3.32c.72 0 1.23-.78 1.23-1.76 0-.6-.26-.91-.76-.91-.72 0-1.23.77-1.23 1.76 0 .6.26.91.73.91zm3.3.58h-.78l.66-3.83h.56l.08.41a1.64 1.64 0 011.16-.48.9.9 0 011 1 3 3 0 01-.05.5l-.42 2.38h-.78l.41-2.33a2.24 2.24 0 000-.34c0-.4-.17-.58-.53-.58a1.52 1.52 0 00-.94.53zm4.25-1.5a2.24 2.24 0 000 .34.51.51 0 00.57.58 1.65 1.65 0 001-.53l.48-2.72h.78l-.67 3.83h-.52l-.08-.41a1.9 1.9 0 01-1.27.49.93.93 0 01-1.07-1 3 3 0 010-.5l.41-2.38h.79zm8.7-1.38a2.93 2.93 0 010 .49l-.42 2.39H384l.41-2.34a2.12 2.12 0 000-.33c0-.4-.18-.58-.54-.58a1.32 1.32 0 00-.76.37l-.5 2.88h-.78l.41-2.34a2.49 2.49 0 000-.36c0-.38-.16-.55-.48-.55a1.33 1.33 0 00-.85.53l-.47 2.72h-.78l.67-3.83h.67l.09.41a1.48 1.48 0 011.08-.48c.47 0 .76.14.88.48a1.84 1.84 0 011.18-.48.9.9 0 011.05 1.02zm.6 1.49a2.24 2.24 0 012.14-2.47c.73 0 1.25.35 1.25 1s-.68 1.34-2.6 1.34c0 .61.19 1 .86 1a2.08 2.08 0 00.91-.25l.22.59a2.74 2.74 0 01-1.32.32 1.35 1.35 0 01-1.46-1.53zm.88-.78c1.45 0 1.72-.3 1.72-.64s-.23-.4-.55-.4a1.32 1.32 0 00-1.17 1zm3.59 2.17h-.78l.67-3.83h.55l.09.41a1.6 1.6 0 011.15-.48.9.9 0 011 1 3 3 0 01-.05.5l-.42 2.38h-.78l.41-2.33a1.42 1.42 0 000-.34c0-.4-.17-.58-.53-.58a1.52 1.52 0 00-.94.53zm4.32-4.77l.8-.15-.19 1.09h1.15l-.26.65h-1l-.37 2.08a.89.89 0 000 .15c0 .27.18.37.44.37a1.7 1.7 0 00.56-.1l.08.62a2.89 2.89 0 01-.84.14c-.6 0-1-.24-1-.88a2 2 0 010-.33l.36-2.05h-.65l.11-.65h.66zm5.93.87a1.33 1.33 0 011.45 1.51 2.24 2.24 0 01-2.14 2.47 1.32 1.32 0 01-1.45-1.51 2.24 2.24 0 012.14-2.47zm-.58 3.32c.72 0 1.23-.78 1.23-1.76 0-.6-.26-.91-.76-.91-.72 0-1.23.77-1.23 1.76 0 .6.26.91.74.91zm5.24-3.25l-.26.65h-.79l-.64 3.65a1.24 1.24 0 01-1.3 1.18 1.86 1.86 0 01-.86-.23l.31-.59a1.14 1.14 0 00.56.17c.26 0 .45-.14.52-.53l.64-3.65h-.64l.11-.65h.64l.09-.5a1.39 1.39 0 011.45-1.3 1.64 1.64 0 01.86.21l-.36.58a1 1 0 00-.52-.14c-.34 0-.58.21-.66.65l-.09.5zm1.85 2.44a2.27 2.27 0 012.21-2.47 2.37 2.37 0 011 .21l-.34.6a2.08 2.08 0 00-.8-.16c-.71 0-1.29.74-1.29 1.76a.8.8 0 00.84.91 2.51 2.51 0 00.87-.18l.18.6a2.94 2.94 0 01-1.17.24 1.4 1.4 0 01-1.5-1.51zm5.5-2.51a1.34 1.34 0 011.45 1.51 2.25 2.25 0 01-2.15 2.47 1.33 1.33 0 01-1.45-1.51 2.24 2.24 0 012.15-2.47zm-.58 3.32c.72 0 1.23-.78 1.23-1.76 0-.6-.27-.91-.76-.91-.72 0-1.23.77-1.23 1.76 0 .6.26.91.73.91zm3.29.58h-.78l.67-3.83h.56l.08.41a1.64 1.64 0 011.16-.48.9.9 0 011 1 3 3 0 010 .5l-.42 2.38h-.78l.41-2.33a2.24 2.24 0 000-.34c0-.4-.17-.58-.53-.58a1.49 1.49 0 00-.94.53zm5.92-1.19c0 .78-.71 1.27-1.65 1.27a2.71 2.71 0 01-1.22-.28l.36-.6a2 2 0 00.95.22c.34 0 .77-.16.77-.55s-.34-.44-.71-.57a1.21 1.21 0 01-.89-1.07c0-.76.64-1.13 1.48-1.13a2.87 2.87 0 011.22.26l-.35.58a2.5 2.5 0 00-.9-.19c-.35 0-.66.15-.66.46s.33.43.59.54c.47.19 1.01.48 1.01 1.06zm1.7-3.58l.8-.15-.2 1.09h1.16l-.26.65h-1l-.37 2.08v.15c0 .27.18.37.44.37a1.75 1.75 0 00.56-.1l.07.62a2.84 2.84 0 01-.84.14c-.6 0-1-.24-1-.88a2 2 0 010-.33l.36-2.05H422l.11-.65h.65zm4.21 1.67a.74.74 0 00-.38-.08c-.43 0-.77.43-.94.94l-.39 2.24h-.78l.67-3.83h.55l.05.59a1.24 1.24 0 011.1-.66 1.72 1.72 0 01.47.07zm1.25 1.6a1.42 1.42 0 000 .34.51.51 0 00.57.58 1.65 1.65 0 001-.53l.47-2.72h.78l-.66 3.83H430l-.08-.41a1.9 1.9 0 01-1.27.49.94.94 0 01-1.08-1 3 3 0 01.05-.5l.41-2.38h.78zm3.29.11a2.27 2.27 0 012.21-2.47 2.37 2.37 0 011 .21l-.34.6a2.09 2.09 0 00-.81-.16c-.7 0-1.29.74-1.29 1.76a.81.81 0 00.84.91 2.56 2.56 0 00.88-.18l.18.6a3 3 0 01-1.17.24 1.4 1.4 0 01-1.5-1.51zm4.48-3.38l.8-.15-.19 1.09h1.15l-.26.65h-1l-.37 2.08v.15c0 .27.18.37.43.37a1.76 1.76 0 00.57-.1l.07.62a2.84 2.84 0 01-.84.14c-.6 0-1-.24-1-.88a2 2 0 010-.33l.36-2.05h-.65l.11-.65h.65zm1.83 1.59l.27-.65h1.32l-.66 3.83h-.78l.55-3.18zm1.4-2.23a.47.47 0 110 .94.47.47 0 110-.94zm.78 1.58h.75l.44 3 1.48-3h.77l-2 3.83h-.88zm3.46.65l.26-.65h1.33l-.67 3.83h-.78l.55-3.18zM445 258a.47.47 0 110 .94.47.47 0 110-.94zm3.3 4.2c0 .78-.7 1.27-1.64 1.27a2.68 2.68 0 01-1.22-.28l.36-.6a2 2 0 00.95.22c.34 0 .77-.16.77-.55s-.34-.44-.71-.57a1.21 1.21 0 01-.89-1.07c0-.76.64-1.13 1.48-1.13a2.87 2.87 0 011.22.26l-.35.58a2.5 2.5 0 00-.9-.19c-.36 0-.67.15-.67.46s.34.43.6.54c.46.19 1 .48 1 1.06zm6.14-1.69a2.93 2.93 0 010 .49l-.42 2.39h-.78l.41-2.34a2.12 2.12 0 000-.33c0-.4-.18-.58-.54-.58a1.29 1.29 0 00-.76.37l-.5 2.88h-.78l.41-2.34a2.49 2.49 0 000-.36c0-.38-.16-.55-.48-.55a1.29 1.29 0 00-.85.53l-.47 2.72h-.78l.66-3.83h.56l.08.41a1.5 1.5 0 011.09-.48c.47 0 .76.14.88.48a1.82 1.82 0 011.18-.48.91.91 0 011.09 1.02z" opacity=".75" fill="#a79944"/><path class="cls-1" d="M295.74 218.39h-2v-7h2zm4-7h-2v7h2zm4 0h-2v7h2zm4 0h-2v7h2zm4 0h-2v7h2zm4 0h-2v7h2zm4 0h-2v7h2zm4 0h-2v7h2zm4 0h-2v7h2zm4 0h-2v7h2zm4 0h-2v7h2zm-42 16h2v-7h-2zm6-7h-2v7h2zm4 0h-2v7h2zm4 0h-2v7h2zm2 7h2v-7h-2zm4 0h2v-7h-2zm6-7h-2v7h2zm4 0h-2v7h2zm4 0h-2v7h2zm2 7h2v-7h-2zm4 0h2v-7h-2zm6-16h-2v7h2zm0 9h-2v7h2zm-67-22h-2v4h2zm-6 4h2v-4h-2zm-4 0h2v-4h-2zm-4-4v4h2v-4zm-4 0v4h2v-4zm23 8h2v-2h-2zm0-3h2v-2h-2zm0 6h2v-2h-2zm0 9h2v-2h-2zm0 12h2v-2h-2zm0 3h2v-2h-2zm0 3h2v-2h-2zm3-30h2v-2h-2zm0-3h2v-2h-2zm0 6h2v-2h-2zm0 9h2v-2h-2zm0 12h2v-2h-2zm0 3h2v-2h-2zm0 3h2v-2h-2zm3-30h2v-2h-2zm0-3h2v-2h-2zm-6-4h2v-2h-2zm0-3h2v-2h-2zm3 3h2v-2h-2zm0-3h2v-2h-2zm3 3h2v-2h-2zm0-3h2v-2h-2zm-6-4h2v-2h-2zm0-3h2v-2h-2zm3 3h2v-2h-2zm0-3h2v-2h-2zm3 3h2v-2h-2zm0-3h2v-2h-2zm0 20h2v-2h-2zm-6 3h2v-2h-2zm0 3h2v-2h-2zm3-3h2v-2h-2zm0 3h2v-2h-2zm3-3h2v-2h-2zm0 3h2v-2h-2zm-4 34h-2v2h2zm-2 5h2v-2h-2zm5-5h-2v2h2zm-2 5h2v-2h-2zm5-5h-2v2h2zm-2 5h2v-2h-2zm-17-3v-2h-2v2zm3 0v-2h-2v2zm3 0v-2h-2v2zm-9-2h-2v2h2zm-2 5h2v-2h-2zm22-36h2v-2h-2zm-6 3h2v-2h-2zm0 3h2v-2h-2zm0 3h2v-2h-2zm3-6h2v-2h-2zm0 3h2v-2h-2zm0 3h2v-2h-2zm3-6h2v-2h-2zm0 3h2v-2h-2zm0 3h2v-2h-2zm-17-20h-2v2h2zm0 3h-2v2h2zm3-3h-2v2h2zm0 3h-2v2h2zm1-1h2v-2h-2zm0 3h2v-2h-2zm-4 12h-2v2h2zm0 3h-2v2h2zm3-3h-2v2h2zm0 3h-2v2h2zm1-1h2v-2h-2zm0 3h2v-2h-2zm-4 2h-2v2h2zm-2 5h2v-2h-2zm5-5h-2v2h2zm-2 5h2v-2h-2zm3-3h2v-2h-2zm0 3h2v-2h-2zm-4-22h-2v2h2zm0 3h-2v2h2zm0 3h-2v2h2zm3-6h-2v2h2zm0 3h-2v2h2zm0 3h-2v2h2zm1-4h2v-2h-2zm0 3h2v-2h-2zm0 3h2v-2h-2zm13 8h2v-2h-2zm0 3h2v-2h-2zm10-3h-2v2h2zm-2 5h2v-2h-2zm5-5h-2v2h2zm0 3h-2v2h2zm3-3h-2v2h2zm-2 5h2v-2h-2zm6-5h-2v2h2zm0 3h-2v2h2zm3-3h-2v2h2zm0 3h-2v2h2zm3-3h-2v2h2zm0 3h-2v2h2zm4-3h-2v2h2zm0 3h-2v2h2zm3-3h-2v2h2zm0 3h-2v2h2zm3-3h-2v2h2zm0 3h-2v2h2zm4-3h-2v2h2zm0 3h-2v2h2zm3-3h-2v2h2zm0 3h-2v2h2zm3-3h-2v2h2zm0 3h-2v2h2zm4-3h-2v2h2zm0 3h-2v2h2zm3-3h-2v2h2zm0 3h-2v2h2zm3-3h-2v2h2zm0 3h-2v2h2zm-36 4h-2v2h2zm0 3h-2v2h2zm3-3h-2v2h2zm0 3h-2v2h2zm3-3h-2v2h2zm0 3h-2v2h2zm4-3h-2v2h2zm0 3h-2v2h2zm3-3h-2v2h2zm0 3h-2v2h2zm3-3h-2v2h2zm0 3h-2v2h2zm4-3h-2v2h2zm0 3h-2v2h2zm3-3h-2v2h2zm0 3h-2v2h2zm3-3h-2v2h2zm0 3h-2v2h2zm4-3h-2v2h2zm0 3h-2v2h2zm3-3h-2v2h2zm0 3h-2v2h2zm3-3h-2v2h2zm0 3h-2v2h2zm-36 5h-2v2h2zm-2 5h2v-2h-2zm5-5h-2v2h2zm-2 5h2v-2h-2zm5-5h-2v2h2zm0 3h-2v2h2zm4-3h-2v2h2zm0 3h-2v2h2zm3-3h-2v2h2zm0 3h-2v2h2zm3-3h-2v2h2zm-2 5h2v-2h-2zm6-5h-2v2h2zm-2 5h2v-2h-2zm5-5h-2v2h2zm-2 5h2v-2h-2zm5-5h-2v2h2zm0 3h-2v2h2zm4-3h-2v2h2zm0 3h-2v2h2zm3-3h-2v2h2zm0 3h-2v2h2zm3-3h-2v2h2zm-2 5h2v-2h-2zm-54-14h2v-2h-2zm-7-60h2v2h2v-2h2v2h2v-2h2v2h2v-4h-14v4h2zm79 85v2h-113v-2h2v-12h2v8h18v-5h2v5h1v-5h2v5h1v-5h2v5h1v-8h2v8h12v-8h2v8h3v-4h6v4h4v-4h6v4h4v-4h6v4h4v-4h6v4h4v-4h6v4h13v-47h2v51zm-21-4h2v-2h-2zm-10 0h2v-2h-2zm-10 0h2v-2h-2zm-10 0h2v-2h-2zm-10 0h2v-2h-2zm-48 4h27v-2h-27zm41 0v-2h-12v2zm64-2h-62v2h62zm-102-17h3v3h2v-5h-7v5h2zm14 3h-7v-5h7zm-2-3h-3v1h3zm9 3h2v-5h-2v2h-3v-2h-2v4h5zm7 0h2v-3h3v-2h-8v2h3zm11 0v-2h-2v-1h3v3h2v-5h-7v5h4zm11 3h-60v-11h5v-40h2v40h27v-41h-29v-2h29v-15h16v28h64v2h-64v28h10zm-24-11h12v-56h-12zm22 2h-56v7h56z"/></svg>