<svg fill="none" height="420" viewBox="0 0 420 420" width="420" xmlns="http://www.w3.org/2000/svg"><path d="m68.8435 82c-26.9754 0-48.8435 21.868-48.8435 48.844v157.802c0 26.974 21.8681 48.845 48.8435 48.845h177.5275c26.975 0 48.845-21.871 48.845-48.845v-7.485c0-3.389 3.947-5.245 6.557-3.082l57.172 47.384c16.066 13.874 41.055 2.503 41.055-18.676v-192.082c0-20.7265-24.06-32.2495-40.303-19.3017l-58.047 44.3807c-2.636 2.014-6.434.136-6.434-3.18v-5.76c0-26.976-21.87-48.844-48.845-48.844z" fill="#008aff"/><path clip-rule="evenodd" d="m190.684 149.174c-3.024 2.853-5.252 7.31-5.252 13.878 0 2.82.628 5.473 1.75 7.854 2.257 4.79.221 10.513-4.547 12.78-4.768 2.268-10.463.223-12.721-4.568-2.302-4.887-3.586-10.339-3.586-16.066 0-11.296 4.013-21.014 11.276-27.869 7.179-6.775 16.809-10.077 26.939-10.077 14.083 0 26.437 7.579 33.064 18.909 2.672 4.57 1.152 10.451-3.396 13.137s-10.402 1.158-13.075-3.412c-3.285-5.617-9.458-9.439-16.593-9.439-6.05 0-10.752 1.94-13.859 4.873z" fill="#fff" fill-rule="evenodd"/></svg>