<svg fill="none" height="1500" viewBox="0 0 1500 1500" width="1500" xmlns="http://www.w3.org/2000/svg" xmlns:xlink="http://www.w3.org/1999/xlink"><clipPath id="a"><path d="m0 0h1500v1500h-1500z"/></clipPath><g clip-path="url(#a)"><path d="m0 0h1500v1500h-1500z" fill="#000"/><path d="m1321.82 579.373-.88-10.646h-.14l-3.12 7.73h-3.8l-3.16-7.73h-.14l-.84 10.646h-4.33l1.73-17.918h4.6l3.97 9.556h.14l3.97-9.556h4.6l1.72 17.918z" fill="#c8a563"/><path d="m1341.66 579.373v-10.751h-.1l-7.24 10.751h-3.97v-17.918h4.36v10.751h.1l7.24-10.751h3.97v17.918z" fill="#c8a563"/><path d="m1366 561.455v17.918h-4.36v-7.343h-6v7.343h-4.36v-17.918h4.36v6.816h6v-6.816z" fill="#c8a563"/><g fill="#c8a563" opacity=".6"><path d="m1326.04 593.046c3.3 0 4.88 1.617 4.88 4.814 0 .667-.07 1.44-.21 2.248l-1.96 11.208h-3.66l1.93-10.962c.11-.562.14-1.089.14-1.546 0-1.862-.84-2.705-2.53-2.705-1.12 0-2.49.808-3.54 1.757l-2.36 13.456h-3.65l1.93-10.962c.11-.632.14-1.159.14-1.651 0-1.792-.74-2.6-2.25-2.6-1.33 0-2.88 1.16-3.97 2.495l-2.21 12.718h-3.66l3.13-17.918h2.6l.39 1.897h.14c1.68-1.581 3.2-2.249 5.09-2.249 2.18 0 3.55.668 4.11 2.249 1.73-1.44 3.59-2.249 5.52-2.249z"/><path d="m1336.99 596.454h-3.26l1.23-3.056h6.22l-3.13 17.918h-3.66zm1.06-8.256c0-1.23.98-2.214 2.21-2.214s2.25.984 2.25 2.214-1.02 2.178-2.25 2.178-2.21-.948-2.21-2.178z"/><path d="m1348.91 598.598-2.21 12.718h-3.65l3.12-17.918h2.6l.39 1.897h.14c1.76-1.581 3.41-2.249 5.41-2.249 3.3 0 4.85 1.617 4.85 4.814 0 .667-.07 1.511-.21 2.319l-1.97 11.137h-3.65l1.93-10.891c.11-.562.14-1.16.14-1.617 0-1.862-.81-2.705-2.49-2.705-1.41 0-3.2 1.16-4.4 2.495z"/></g><path d="m150 542.143c0-6.963 5.645-12.609 12.609-12.609h189.14c6.964 0 12.61 5.646 12.61 12.61v95.83c0 6.964-5.646 12.61-12.61 12.61h-189.14c-6.964 0-12.609-5.646-12.609-12.61z" fill="#00b400"/><path d="m227.78 551.357h14.722l-26.162 45.227v.424h13.876v-12.393h13.24v12.393h11.651l-2.119 12.18h-9.532v16.312h-13.24v-16.312h-29.657v-11.121z" fill="#fff"/><path d="m288.637 593.83-4.66-1.906c-5.72 3.389-8.368 7.732-8.368 13.24 0 6.461 4.978 9.109 11.228 9.109 6.249 0 11.227-2.648 11.227-9.109 0-5.402-3.813-9.004-9.427-11.334zm-10.698-23.937c0 5.296 2.966 8.155 7.627 10.168l3.918 1.695c4.025-3.072 6.25-7.097 6.25-11.863 0-4.661-3.496-7.309-8.897-7.309-5.402 0-8.898 2.648-8.898 7.309zm21.926 16.841v.423c7.096 4.555 11.333 9.745 11.333 18.007 0 13.981-9.215 21.395-24.361 21.395-15.147 0-24.362-7.414-24.362-21.395 0-7.838 4.025-14.193 11.334-18.43v-.424c-5.402-2.966-9.003-8.685-9.003-16.417 0-12.499 7.943-19.595 22.031-19.595 14.087 0 22.031 7.096 22.031 19.595 0 7.202-4.025 13.134-9.003 16.841z" fill="#fff"/><path d="m442.768 552.613v21.227h7.135v-21.227h3.795v21.227h7.134v-21.227h3.796v24.601h-25.655v-24.601z" fill="#fff"/><path d="m473.876 577.214h-3.268v-17.924h3.655v11.949h.141l8.258-11.949h3.269v17.924h-3.655v-11.949h-.141z" fill="#fff"/><path d="m495.198 576.616v7.627l-3.655.702v-25.655h2.601l.703 1.898h.141c1.265-1.371 2.706-2.249 5.096-2.249 5.06 0 7.239 3.971 7.239 9.313s-2.214 9.313-7.556 9.313c-1.827 0-3.268-.351-4.569-.949zm3.972-2.108c2.776 0 4.428-2.285 4.428-6.256 0-3.69-1.476-6.256-4.569-6.256-1.476 0-2.741.879-3.831 2.214v9.032c1.125.809 2.39 1.266 3.972 1.266z" fill="#fff"/><path d="m519.1 561.996c-2.741 0-4.533 2.32-4.533 6.256s1.792 6.256 4.533 6.256 4.534-2.32 4.534-6.256-1.793-6.256-4.534-6.256zm0 15.569c-4.99 0-8.259-3.479-8.259-9.313s3.269-9.313 8.259-9.313c4.991 0 8.259 3.479 8.259 9.313s-3.268 9.313-8.259 9.313z" fill="#fff"/><path d="m546.102 559.29-5.588 8.646 5.939 9.278-3.725.351-5.166-8.118h-1.968v7.767h-3.655v-17.924h3.655v7.24h2.003l4.709-7.24z" fill="#fff"/><path d="m558.615 569.517h-3.761c-1.757 0-3.022.984-3.022 2.601 0 1.616 1.195 2.39 2.636 2.39 1.722 0 3.093-.879 4.147-2.214zm-3.62-2.847h3.62v-1.194c0-2.144-.914-3.48-3.55-3.48-1.616 0-3.198.352-4.85.949l-1.054-2.846c2.074-.774 4.077-1.16 6.326-1.16 5.483 0 6.783 2.882 6.783 6.607v7.521c0 .878.492 1.265 1.265 1.265h.387v2.706c-.528.211-1.406.351-2.109.351-1.652 0-2.53-.984-2.847-2.073h-.14c-1.301 1.3-2.742 2.073-5.061 2.073-3.409 0-5.553-1.686-5.553-5.341 0-3.409 2.812-5.378 6.783-5.378z" fill="#fff"/><path d="m566.046 577.214 4.499-6.994c-2.109-.843-3.304-2.671-3.304-5.236 0-3.48 2.355-5.694 6.221-5.694h7.064v17.924h-3.655v-6.502h-2.776l-3.866 6.502zm4.921-12.16c0 1.581 1.089 2.636 2.846 2.636h3.058v-5.342h-3.058c-1.757 0-2.846 1.124-2.846 2.706z" fill="#fff"/><path d="m598.949 576.616v7.627l-3.655.702v-25.655h2.601l.703 1.898h.141c1.265-1.371 2.706-2.249 5.095-2.249 5.061 0 7.24 3.971 7.24 9.313s-2.214 9.313-7.556 9.313c-1.827 0-3.268-.351-4.569-.949zm3.972-2.108c2.776 0 4.428-2.285 4.428-6.256 0-3.69-1.476-6.256-4.569-6.256-1.476 0-2.741.879-3.831 2.214v9.032c1.125.809 2.39 1.266 3.972 1.266z" fill="#fff"/><path d="m630.056 566.143c0 .914-.106 1.898-.317 2.952h-11.386c.246 3.48 2.073 5.413 5.306 5.413 1.617 0 3.163-.563 4.464-1.23l1.195 2.776c-1.722.879-3.726 1.511-6.01 1.511-5.272 0-8.716-3.444-8.716-9.313 0-5.904 3.233-9.313 8.083-9.313 4.815 0 7.381 2.811 7.381 7.204zm-7.31-4.147c-2.425 0-3.937 1.722-4.253 4.253h8.294c0-2.46-1.335-4.253-4.041-4.253z" fill="#fff"/><path d="m639.757 570.642c-3.55 0-6.186-1.863-6.186-5.799v-5.553h3.655v5.237c0 2.143 1.336 3.057 3.093 3.057 1.371 0 2.425-.281 3.409-.632v-7.662h3.655v17.924h-3.655v-7.31c-.984.386-2.495.738-3.971.738z" fill="#fff"/><path d="m667.185 559.29-5.588 8.646 5.939 9.278-3.725.351-5.166-8.118h-1.968v7.767h-3.655v-17.924h3.655v7.24h2.003l4.709-7.24z" fill="#fff"/><path d="m679.698 569.517h-3.761c-1.757 0-3.022.984-3.022 2.601 0 1.616 1.195 2.39 2.636 2.39 1.722 0 3.092-.879 4.147-2.214zm-3.62-2.847h3.62v-1.194c0-2.144-.914-3.48-3.55-3.48-1.617 0-3.198.352-4.85.949l-1.054-2.846c2.073-.774 4.077-1.16 6.326-1.16 5.482 0 6.783 2.882 6.783 6.607v7.521c0 .878.492 1.265 1.265 1.265h.386v2.706c-.527.211-1.405.351-2.108.351-1.652 0-2.531-.984-2.847-2.073h-.14c-1.301 1.3-2.742 2.073-5.061 2.073-3.409 0-5.553-1.686-5.553-5.341 0-3.409 2.812-5.378 6.783-5.378z" fill="#fff"/><path d="m1040.76 579.676c0-7.027-3.09-12.016-8.5-12.016-4.78 0-8.43 3.232-8.43 9.065 0 5.832 3.65 9.064 8.43 9.064 3.59 0 7.03-2.459 8.5-6.113zm-1.26 9.627-.21-.141c-2.25 2.108-5.34 3.022-8.93 3.022-8.36 0-14.12-5.551-14.12-15.459 0-9.627 6.82-15.811 16.02-15.811 9.91 0 15.95 6.676 15.95 18.059 0 17.567-9.84 28.319-24.38 32.535l-2.67-5.762c8.36-3.162 16.02-7.941 18.34-16.443z" fill="#fff"/><path d="m1220.88 561.617h17.78v42.443h11.38v6.746h-31.62v-6.746h12.86v-35.697h-11.8z" fill="#c8a563"/><path d="m1271.16 604.762c5.13 0 9.49-3.162 9.49-9.767s-4.71-10.048-10.26-10.048c-5.97 0-10.19 2.108-10.19 2.108v-25.438h26.28l-1.4 6.746h-17.5v10.54c1.34-.281 3.16-.421 4.36-.421 8.99 0 16.37 5.34 16.37 16.513 0 10.821-7.73 16.513-16.65 16.513-6.19 0-10.26-1.616-14.27-4.146l3.58-5.902c2.96 1.967 5.84 3.302 10.19 3.302z" fill="#c8a563"/><path d="m150 690.34c0-6.964 5.645-12.61 12.609-12.61h189.14c6.964 0 12.61 5.646 12.61 12.61v95.831c0 6.964-5.646 12.609-12.61 12.609h-189.14c-6.964 0-12.609-5.645-12.609-12.609z" fill="#00b400"/><path d="m224.414 736.625c0 25.103-10.168 38.131-26.479 38.131-16.312 0-26.48-13.028-26.48-38.131 0-25.102 10.168-38.13 26.48-38.13 16.311 0 26.479 13.028 26.479 38.13zm-39.295 0c0 18.218 5.507 25.844 12.816 25.844 7.308 0 12.816-7.626 12.816-25.844s-5.508-25.844-12.816-25.844c-7.309 0-12.816 7.626-12.816 25.844z" fill="#fff"/><path d="m237.609 699.554h40.672l-2.118 12.286h-25.315v13.77c1.695-.318 3.602-.636 5.296-.636 13.558 0 24.891 8.05 24.891 24.891 0 16.311-12.181 24.891-25.632 24.891-9.321 0-15.994-2.436-22.031-6.249l6.567-10.698c4.236 2.754 8.685 4.66 14.722 4.66 6.673 0 12.711-4.131 12.711-12.604 0-8.579-6.567-13.028-13.876-13.028-8.579 0-15.887 3.072-15.887 3.072z" fill="#fff"/><path d="m324.522 720.208c0-5.826-3.283-9.427-9.427-9.427-5.296 0-10.274 1.801-14.934 4.661l-6.249-10.698c8.473-4.555 14.51-6.249 23.196-6.249 13.028 0 21.077 7.414 21.077 20.336 0 16.311-14.087 31.881-27.009 42.155v.424h29.128l-2.119 12.287h-45.544v-11.228c14.51-10.909 31.881-28.068 31.881-42.261z" fill="#fff"/><path d="m1022.4 709.815h17.78v42.443h11.38v6.745h-31.62v-6.745h12.86v-35.697h-11.8z" fill="#fff"/><path d="m1064.82 734.409c0 13.07 3.93 18.551 9.55 18.551s9.56-5.481 9.56-18.551-3.94-18.551-9.56-18.551-9.55 5.481-9.55 18.551zm26.77 0c0 16.654-6.4 25.297-17.22 25.297s-17.21-8.643-17.21-25.297 6.39-25.297 17.21-25.297 17.22 8.643 17.22 25.297z" fill="#fff"/><path d="m1223.53 709.815h17.78v42.442h11.38v6.746h-31.62v-6.746h12.86v-35.696h-11.81z" fill="#c8a563"/><path d="m1273.81 752.96c5.13 0 9.49-3.162 9.49-9.767 0-6.606-4.71-10.049-10.26-10.049-5.97 0-10.19 2.108-10.19 2.108v-25.437h26.28l-1.4 6.746h-17.5v10.54c1.33-.281 3.16-.421 4.36-.421 8.99 0 16.37 5.34 16.37 16.513 0 10.821-7.73 16.513-16.66 16.513-6.18 0-10.26-1.616-14.26-4.146l3.58-5.902c2.95 1.967 5.84 3.302 10.19 3.302z" fill="#c8a563"/><path d="m442.768 725.413h-3.795v-24.601h17.747v24.601h-3.795v-21.227h-10.157z" fill="#fff"/><path d="m469.884 710.196c-2.741 0-4.533 2.319-4.533 6.255s1.792 6.256 4.533 6.256c2.742 0 4.534-2.32 4.534-6.256s-1.792-6.255-4.534-6.255zm0 15.568c-4.99 0-8.258-3.479-8.258-9.313s3.268-9.313 8.258-9.313c4.991 0 8.259 3.479 8.259 9.313s-3.268 9.313-8.259 9.313z" fill="#fff"/><path d="m480.096 724.956.843-2.917c.387.246.808.352 1.195.352 1.652 0 2.565-3.409 2.565-11.914v-2.988h11.985v17.924h-3.655v-14.866h-4.85v.773c0 9.559-1.722 14.269-5.764 14.269-.984 0-1.687-.211-2.319-.633z" fill="#fff"/><path d="m516.729 714.343c0 .913-.105 1.897-.316 2.952h-11.387c.246 3.479 2.074 5.412 5.307 5.412 1.617 0 3.163-.562 4.463-1.23l1.195 2.776c-1.722.879-3.725 1.511-6.009 1.511-5.272 0-8.716-3.444-8.716-9.313 0-5.904 3.233-9.313 8.083-9.313 4.815 0 7.38 2.812 7.38 7.205zm-7.31-4.147c-2.425 0-3.936 1.722-4.252 4.252h8.294c0-2.46-1.336-4.252-4.042-4.252z" fill="#fff"/><path d="m528.996 722.707c1.23 0 2.601-.281 3.796-.773l1.124 2.811c-1.511.668-3.093 1.019-4.92 1.019-5.799 0-8.751-4.147-8.751-9.313s2.776-9.313 8.575-9.313c1.687 0 3.409.316 4.92.949l-1.124 2.811c-1.195-.492-2.355-.702-3.585-.702-3.022 0-5.061 2.53-5.061 6.255s2.004 6.256 5.026 6.256z" fill="#fff"/><path d="m541.428 714.026h3.515c3.865 0 6.396 2.109 6.396 5.729s-2.531 5.658-6.396 5.658h-7.17v-17.924h3.655zm3.163 3.058h-3.163v5.271h3.163c1.863 0 3.023-.984 3.023-2.635 0-1.652-1.16-2.636-3.023-2.636z" fill="#fff"/><path d="m569.617 714.343c0 .913-.105 1.897-.316 2.952h-11.387c.246 3.479 2.074 5.412 5.307 5.412 1.617 0 3.163-.562 4.463-1.23l1.195 2.776c-1.722.879-3.725 1.511-6.01 1.511-5.271 0-8.715-3.444-8.715-9.313 0-5.904 3.233-9.313 8.083-9.313 4.815 0 7.38 2.812 7.38 7.205zm-7.31-4.147c-2.425 0-3.936 1.722-4.252 4.252h8.294c0-2.46-1.336-4.252-4.042-4.252z" fill="#fff"/><path d="m150 838.539c0-6.963 5.645-12.609 12.609-12.609h189.14c6.964 0 12.61 5.646 12.61 12.61v95.83c0 6.964-5.646 12.61-12.61 12.61h-189.14c-6.964 0-12.609-5.646-12.609-12.61z" fill="#00b400"/><path d="m207.973 847.753h40.673l-2.119 12.287h-25.314v13.769c1.695-.318 3.601-.636 5.296-.636 13.557 0 24.891 8.05 24.891 24.891 0 16.312-12.181 24.891-25.633 24.891-9.32 0-15.993-2.436-22.031-6.249l6.567-10.698c4.237 2.754 8.686 4.661 14.723 4.661 6.673 0 12.71-4.131 12.71-12.605 0-8.579-6.567-13.028-13.875-13.028-8.58 0-15.888 3.072-15.888 3.072z" fill="#fff"/><path d="m278.046 878.893.317.212c3.178-2.118 7.309-3.284 11.545-3.284 12.605 0 21.82 8.368 21.82 23.302 0 14.511-10.804 23.832-24.679 23.832-14.935 0-24.573-10.698-24.573-27.221 0-26.797 16.417-42.685 38.342-49.04l4.554 9.744c-11.545 4.449-23.09 11.122-27.326 22.455zm9.003 8.685c-4.449 0-9.321 3.496-11.228 8.156 0 9.003 4.449 14.935 11.228 14.935 6.037 0 11.545-3.602 11.545-11.546 0-7.943-5.508-11.545-11.545-11.545z" fill="#fff"/><path d="m442.768 873.611h-3.795v-24.601h17.747v24.601h-3.795v-21.227h-10.157z" fill="#fff"/><path d="m460.571 858.745v-3.057h15.183l-.703 3.057h-5.167v14.866h-3.619v-14.866z" fill="#fff"/><path d="m482.354 873.611h-3.269v-17.923h3.655v11.949h.141l8.259-11.949h3.268v17.923h-3.655v-11.949h-.141z" fill="#fff"/><path d="m516.925 870.554-.703 7.52h-2.952v-4.463h-13.249v-17.923h3.655v14.866h6.747v-14.866h3.655v14.866z" fill="#fff"/><path d="m534.507 862.541c0 .913-.105 1.897-.316 2.952h-11.387c.246 3.479 2.074 5.412 5.307 5.412 1.617 0 3.163-.562 4.463-1.23l1.195 2.776c-1.722.879-3.725 1.512-6.009 1.512-5.272 0-8.716-3.445-8.716-9.314 0-5.904 3.233-9.313 8.083-9.313 4.815 0 7.38 2.812 7.38 7.205zm-7.31-4.147c-2.425 0-3.936 1.722-4.252 4.252h8.294c0-2.46-1.336-4.252-4.042-4.252z" fill="#fff"/><path d="m547.582 870.729v-12.16c-.386-.105-1.019-.175-1.581-.175-3.023 0-4.288 2.53-4.288 6.255 0 3.726 1.265 6.256 4.288 6.256.562 0 1.16-.07 1.581-.176zm3.585 3.058v6.853l-3.655.703v-7.556c-.457.07-1.23.176-2.073.176-5.448 0-7.416-4.147-7.416-9.314 0-5.166 1.968-9.313 7.416-9.313.843 0 1.616.106 2.073.176v-7.556l3.655-.703v8.259c.457-.07 1.23-.176 2.074-.176 5.447 0 7.415 4.147 7.415 9.313 0 5.167-1.968 9.314-7.415 9.314-.844 0-1.617-.106-2.074-.176zm-.07-15.218v12.16c.386.106 1.019.176 1.581.176 3.023 0 4.288-2.53 4.288-6.256 0-3.725-1.265-6.255-4.288-6.255-.562 0-1.195.07-1.581.175z" fill="#fff"/><path d="m574.402 865.915h-3.76c-1.757 0-3.023.984-3.023 2.6 0 1.617 1.195 2.39 2.636 2.39 1.722 0 3.093-.879 4.147-2.214zm-3.62-2.847h3.62v-1.195c0-2.144-.913-3.479-3.549-3.479-1.617 0-3.198.351-4.85.949l-1.055-2.847c2.074-.773 4.077-1.16 6.326-1.16 5.483 0 6.783 2.882 6.783 6.607v7.521c0 .879.492 1.265 1.265 1.265h.387v2.706c-.527.211-1.406.352-2.109.352-1.651 0-2.53-.984-2.846-2.074h-.141c-1.3 1.301-2.741 2.074-5.061 2.074-3.409 0-5.552-1.687-5.552-5.342 0-3.409 2.811-5.377 6.782-5.377z" fill="#fff"/><path d="m586.368 862.33c0 5.728 1.44 8.575 4.603 8.575 2.742 0 4.745-1.898 4.745-5.799s-1.828-5.834-4.323-5.834c-1.792 0-3.69.914-5.025 3.058zm12.23-12.16c-1.933.949-4.288 1.406-6.572 1.581-3.901.282-5.799 1.652-5.799 6.783h.105c1.547-1.616 3.374-2.319 5.694-2.319 4.393 0 7.415 2.917 7.415 8.891 0 5.834-3.479 8.857-8.47 8.857-5.798 0-8.258-4.323-8.258-11.493 0-11.316 3.163-13.39 8.961-13.917 2.636-.246 4.007-.562 5.834-1.3z" fill="#fff"/><path d="m607.838 873.014v7.626l-3.655.703v-25.655h2.601l.703 1.897h.141c1.265-1.37 2.706-2.249 5.095-2.249 5.061 0 7.24 3.971 7.24 9.313s-2.214 9.314-7.556 9.314c-1.827 0-3.268-.352-4.569-.949zm3.972-2.109c2.776 0 4.428-2.284 4.428-6.256 0-3.69-1.476-6.255-4.569-6.255-1.476 0-2.741.878-3.831 2.214v9.032c1.125.808 2.39 1.265 3.972 1.265z" fill="#fff"/><path d="m627.804 873.611h-3.268v-17.923h3.655v11.949h.14l8.259-11.949h3.268v17.923h-3.655v-11.949h-.14z" fill="#fff"/><path d="m659.634 855.688-5.588 8.645 5.94 9.278-3.726.352-5.166-8.119h-1.968v7.767h-3.655v-17.923h3.655v7.239h2.003l4.71-7.239z" fill="#fff"/><path d="m672.147 865.915h-3.76c-1.757 0-3.023.984-3.023 2.6 0 1.617 1.195 2.39 2.636 2.39 1.722 0 3.093-.879 4.147-2.214zm-3.62-2.847h3.62v-1.195c0-2.144-.914-3.479-3.549-3.479-1.617 0-3.199.351-4.85.949l-1.055-2.847c2.074-.773 4.077-1.16 6.326-1.16 5.483 0 6.783 2.882 6.783 6.607v7.521c0 .879.492 1.265 1.265 1.265h.387v2.706c-.527.211-1.406.352-2.109.352-1.651 0-2.53-.984-2.846-2.074h-.141c-1.3 1.301-2.741 2.074-5.061 2.074-3.409 0-5.553-1.687-5.553-5.342 0-3.409 2.812-5.377 6.783-5.377z" fill="#fff"/><path d="m1022.4 858.014h17.78v42.443h11.38v6.746h-31.62v-6.746h12.86v-35.697h-11.8z" fill="#fff"/><path d="m1072.69 901.159c5.12 0 9.48-3.162 9.48-9.767s-4.71-10.049-10.26-10.049c-5.97 0-10.19 2.109-10.19 2.109v-25.438h26.28l-1.4 6.746h-17.5v10.54c1.34-.281 3.16-.421 4.36-.421 8.99 0 16.37 5.34 16.37 16.513 0 10.821-7.73 16.513-16.65 16.513-6.19 0-10.26-1.616-14.27-4.146l3.59-5.902c2.95 1.967 5.83 3.302 10.19 3.302z" fill="#fff"/><path d="m1231.61 900.175v.281h20.03l-1.41 6.746h-29.51v-6.043c9.63-7.238 21.85-20.027 21.85-29.443 0-4.708-2.32-7.659-7.31-7.659-3.79 0-7.02 1.265-10.33 3.303l-3.37-5.903c5.62-3.022 9.28-4.146 15.04-4.146 8.64 0 13.63 4.919 13.63 13.492 0 10.821-10.05 22.556-18.62 29.372z" fill="#c8a563"/><path d="m1265.94 882.608c0 13.07 3.94 18.551 9.56 18.551s9.56-5.481 9.56-18.551-3.94-18.551-9.56-18.551-9.56 5.481-9.56 18.551zm26.77 0c0 16.654-6.39 25.297-17.21 25.297s-17.22-8.643-17.22-25.297 6.4-25.297 17.22-25.297 17.21 8.643 17.21 25.297z" fill="#c8a563"/><path d="m150 986.737c0-6.964 5.645-12.609 12.609-12.609h189.14c6.964 0 12.61 5.645 12.61 12.609v95.833c0 6.96-5.646 12.61-12.61 12.61h-189.14c-6.964 0-12.609-5.65-12.609-12.61z" fill="#00b400"/><path d="m224.414 1033.02c0 25.1-10.168 38.13-26.479 38.13-16.312 0-26.48-13.03-26.48-38.13s10.168-38.128 26.48-38.128c16.311 0 26.479 13.028 26.479 38.128zm-39.295 0c0 18.22 5.507 25.85 12.816 25.85 7.308 0 12.816-7.63 12.816-25.85s-5.508-25.84-12.816-25.84c-7.309 0-12.816 7.62-12.816 25.84z" fill="#fff"/><path d="m237.609 995.951h40.672l-2.118 12.289h-25.315v13.77c1.695-.32 3.602-.64 5.296-.64 13.558 0 24.891 8.05 24.891 24.89 0 16.31-12.181 24.89-25.632 24.89-9.321 0-15.994-2.43-22.031-6.25l6.567-10.69c4.236 2.75 8.685 4.66 14.722 4.66 6.673 0 12.711-4.13 12.711-12.61 0-8.58-6.567-13.03-13.876-13.03-8.579 0-15.887 3.08-15.887 3.08z" fill="#fff"/><path d="m307.681 1027.09.318.21c3.177-2.12 7.308-3.28 11.545-3.28 12.604 0 21.819 8.37 21.819 23.3 0 14.51-10.804 23.83-24.679 23.83-14.934 0-24.573-10.69-24.573-27.22 0-26.8 16.417-42.68 38.342-49.038l4.555 9.748c-11.545 4.44-23.09 11.12-27.327 22.45zm9.003 8.69c-4.449 0-9.321 3.49-11.227 8.15 0 9 4.448 14.94 11.227 14.94 6.037 0 11.545-3.6 11.545-11.55 0-7.94-5.508-11.54-11.545-11.54z" fill="#fff"/><path d="m448.112 1000.23c-4.499 0-6.256 4.08-6.256 9.28s1.757 9.28 6.256 9.28c1.898 0 3.655-.53 5.377-1.51l1.476 2.98c-2.214 1.27-4.077 1.9-6.853 1.9-7.31 0-10.192-5.55-10.192-12.65s2.882-12.652 10.192-12.652c2.249 0 4.076.351 6.431 1.581l-1.476 2.991c-1.722-.88-3.409-1.2-4.955-1.2z" fill="#fff"/><path d="m465.493 1006.59c-2.741 0-4.534 2.32-4.534 6.26 0 3.93 1.793 6.25 4.534 6.25s4.534-2.32 4.534-6.25c0-3.94-1.793-6.26-4.534-6.26zm0 15.57c-4.99 0-8.259-3.48-8.259-9.31 0-5.84 3.269-9.31 8.259-9.31 4.991 0 8.259 3.47 8.259 9.31 0 5.83-3.268 9.31-8.259 9.31z" fill="#fff"/><path d="m486.028 1019.1c1.23 0 2.601-.28 3.796-.77l1.124 2.81c-1.511.67-3.092 1.02-4.92 1.02-5.799 0-8.751-4.15-8.751-9.31 0-5.17 2.777-9.31 8.576-9.31 1.686 0 3.409.31 4.92.94l-1.125 2.82c-1.195-.5-2.355-.71-3.585-.71-3.022 0-5.06 2.53-5.06 6.26 0 3.72 2.003 6.25 5.025 6.25z" fill="#fff"/><path d="m509.179 1003.89v17.92h-3.655v-7.7h-7.063v7.7h-3.655v-17.92h3.655v7.17h7.063v-7.17z" fill="#fff"/><path d="m522.019 1006.59c-2.741 0-4.534 2.32-4.534 6.26 0 3.93 1.793 6.25 4.534 6.25s4.534-2.32 4.534-6.25c0-3.94-1.793-6.26-4.534-6.26zm0 15.57c-4.991 0-8.259-3.48-8.259-9.31 0-5.84 3.268-9.31 8.259-9.31 4.99 0 8.259 3.47 8.259 9.31 0 5.83-3.269 9.31-8.259 9.31z" fill="#fff"/><path d="m544.979 1012.39c1.722.39 3.796 1.65 3.796 4.25 0 3.24-2.039 5.17-6.115 5.17h-7.802v-17.92h7.239c3.585 0 5.94 1.33 5.94 4.57 0 1.93-1.441 3.44-3.058 3.83zm-3.268 1.69h-3.198v4.67h3.549c1.863 0 2.987-.74 2.987-2.32s-1.23-2.35-3.338-2.35zm-.071-7.14h-3.127v4.08h2.881c1.652 0 2.917-.53 2.917-2.04 0-1.58-1.124-2.04-2.671-2.04z" fill="#fff"/><path d="m557.011 1003.89v6.53h3.198c3.866 0 6.397 2.11 6.397 5.73s-2.531 5.66-6.397 5.66h-6.853v-17.92zm15.886 0v17.92h-3.655v-17.92zm-13.039 9.59h-2.847v5.27h2.847c1.863 0 3.022-.98 3.022-2.63s-1.159-2.64-3.022-2.64z" fill="#fff"/><path d="m581.782 1021.81h-3.269v-17.92h3.655v11.95h.141l8.259-11.95h3.268v17.92h-3.655v-11.95h-.14zm7.837-25.479 2.355 1.546c-1.266 2.213-3.339 3.303-5.799 3.303-2.496 0-4.534-1.12-5.799-3.303l2.319-1.546c.774 1.476 2.004 2.284 3.48 2.284s2.671-.773 3.444-2.284z" fill="#fff"/><path d="m611.354 1010.53c0 5.73 1.441 8.57 4.604 8.57 2.742 0 4.745-1.89 4.745-5.79 0-3.91-1.828-5.84-4.323-5.84-1.792 0-3.69.92-5.026 3.06zm12.231-12.161c-1.933.949-4.288 1.406-6.572 1.582-3.901.279-5.799 1.649-5.799 6.779h.105c1.547-1.61 3.374-2.32 5.694-2.32 4.393 0 7.415 2.92 7.415 8.9 0 5.83-3.479 8.85-8.47 8.85-5.798 0-8.259-4.32-8.259-11.49 0-11.317 3.163-13.39 8.962-13.918 2.636-.246 4.007-.562 5.834-1.3z" fill="#fff"/><path d="m636.375 1006.59c-2.741 0-4.534 2.32-4.534 6.26 0 3.93 1.793 6.25 4.534 6.25s4.534-2.32 4.534-6.25c0-3.94-1.793-6.26-4.534-6.26zm0 15.57c-4.991 0-8.259-3.48-8.259-9.31 0-5.84 3.268-9.31 8.259-9.31 4.99 0 8.259 3.47 8.259 9.31 0 5.83-3.269 9.31-8.259 9.31z" fill="#fff"/><path d="m652.869 1021.21v7.63l-3.655.7v-25.65h2.6l.703 1.89h.141c1.265-1.37 2.706-2.24 5.096-2.24 5.06 0 7.239 3.97 7.239 9.31s-2.214 9.31-7.556 9.31c-1.827 0-3.268-.35-4.568-.95zm3.971-2.11c2.776 0 4.428-2.28 4.428-6.25 0-3.69-1.476-6.26-4.569-6.26-1.476 0-2.741.88-3.83 2.22v9.03c1.124.81 2.389 1.26 3.971 1.26z" fill="#fff"/><path d="m1022.4 1006.21h17.78v42.44h11.38v6.75h-31.62v-6.75h12.86v-35.69h-11.8z" fill="#fff"/><path d="m1075 1033.62-2.95-1.27c-4.07 2.39-6.18 5.69-6.18 9.7 0 5.13 3.58 7.31 8.5 7.31s8.5-2.46 8.5-7.31c0-4.22-3.72-6.68-7.87-8.43zm-7.58-15.32c0 4.21 3.02 6.32 6.6 7.8l2.25.91c3.23-2.25 5.06-5.13 5.06-8.71 0-3.8-2.95-6.05-6.96-6.05-4 0-6.95 2.25-6.95 6.05zm6.95 37.8c-9.63 0-15.81-5.2-15.81-14.05 0-5.55 3.37-9.91 8.15-12.37v-.21c-3.65-2.04-6.6-5.76-6.6-11.17 0-7.87 5.34-12.79 14.26-12.79 8.93 0 14.27 4.92 14.27 12.79 0 5.41-2.95 9.2-6.61 11.24v.21c4.78 2.46 8.15 6.75 8.15 12.3 0 8.85-6.18 14.05-15.81 14.05z" fill="#fff"/><path d="m1231.61 1045.73v.28h20.03l-1.41 6.74h-29.51v-6.04c9.63-7.24 21.85-20.03 21.85-29.44 0-4.71-2.32-7.66-7.31-7.66-3.79 0-7.02 1.26-10.33 3.3l-3.37-5.9c5.62-3.02 9.28-4.15 15.04-4.15 8.64 0 13.63 4.92 13.63 13.49 0 10.83-10.05 22.56-18.62 29.38z" fill="#c8a563"/><path d="m1265.94 1028.16c0 13.07 3.94 18.55 9.56 18.55s9.56-5.48 9.56-18.55-3.94-18.55-9.56-18.55-9.56 5.48-9.56 18.55zm26.77 0c0 16.65-6.39 25.3-17.21 25.3s-17.22-8.65-17.22-25.3 6.4-25.3 17.22-25.3 17.21 8.65 17.21 25.3z" fill="#c8a563"/><path d="m150 1134.94c0-6.97 5.645-12.61 12.609-12.61h189.14c6.964 0 12.61 5.64 12.61 12.61v95.83c0 6.96-5.646 12.61-12.61 12.61h-189.14c-6.964 0-12.609-5.65-12.609-12.61z" fill="#00b400"/><path d="m207.973 1144.15h40.673l-2.119 12.29h-25.314v13.77c1.695-.32 3.601-.64 5.296-.64 13.557 0 24.891 8.05 24.891 24.89 0 16.31-12.181 24.89-25.633 24.89-9.32 0-15.993-2.43-22.031-6.25l6.567-10.69c4.237 2.75 8.686 4.66 14.723 4.66 6.673 0 12.71-4.14 12.71-12.61 0-8.58-6.567-13.03-13.875-13.03-8.58 0-15.888 3.07-15.888 3.07z" fill="#fff"/><path d="m270.631 1218.29 26.48-61.85h-35.165l2.118-12.29h47.134v11.23l-26.374 62.91z" fill="#fff"/><path d="m452.89 1170.01h-13.917v-24.6h13.917l-.703 3.37h-9.419v6.82h8.365v3.37h-8.365v7.66h10.122z" fill="#fff"/><path d="m455.865 1169.55.844-2.92c.386.25.808.36 1.195.36 1.651 0 2.565-3.41 2.565-11.92v-2.99h11.984v17.93h-3.655v-14.87h-4.85v.78c0 9.55-1.722 14.26-5.763 14.26-.984 0-1.687-.21-2.32-.63z" fill="#fff"/><path d="m481.358 1170.01h-3.268v-17.93h3.655v11.95h.14l8.259-11.95h3.269v17.93h-3.655v-11.95h-.141z" fill="#fff"/><path d="m510.377 1156.65c0 1.94-1.441 3.45-3.058 3.83v.11c1.722.39 3.831 1.65 3.831 4.25 0 3.38-2.495 5.52-7.521 5.52-2.073 0-4.498-.42-6.009-1.09l1.124-2.81c1.265.49 3.163.84 4.78.84 2.284 0 3.901-1.05 3.901-2.53 0-1.54-.949-2.49-3.585-2.49h-2.425v-2.92h2.144c1.687 0 3.093-.67 3.093-2.25 0-1.55-1.336-2.32-3.023-2.32-1.406 0-3.303.25-4.709.77l-1.125-2.81c1.652-.67 4.253-1.02 5.94-1.02 4.287 0 6.642 1.76 6.642 4.92z" fill="#fff"/><path d="m524.706 1162.31h-3.76c-1.757 0-3.023.99-3.023 2.6 0 1.62 1.195 2.39 2.636 2.39 1.722 0 3.093-.88 4.147-2.21zm-3.62-2.85h3.62v-1.19c0-2.14-.914-3.48-3.549-3.48-1.617 0-3.199.35-4.85.95l-1.055-2.85c2.074-.77 4.077-1.16 6.326-1.16 5.483 0 6.783 2.89 6.783 6.61v7.52c0 .88.492 1.27 1.265 1.27h.387v2.7c-.527.21-1.406.35-2.109.35-1.651 0-2.53-.98-2.846-2.07h-.141c-1.3 1.3-2.741 2.07-5.061 2.07-3.409 0-5.553-1.68-5.553-5.34 0-3.41 2.812-5.38 6.783-5.38z" fill="#fff"/><path d="m544.017 1160.59c1.722.39 3.795 1.65 3.795 4.25 0 3.24-2.038 5.17-6.115 5.17h-7.802v-17.93h7.24c3.584 0 5.939 1.34 5.939 4.57 0 1.94-1.441 3.45-3.057 3.83zm-3.269 1.69h-3.198v4.67h3.55c1.862 0 2.987-.74 2.987-2.32s-1.23-2.35-3.339-2.35zm-.07-7.14h-3.128v4.08h2.882c1.652 0 2.917-.53 2.917-2.04 0-1.58-1.125-2.04-2.671-2.04z" fill="#fff"/><path d="m566.803 1158.94c0 .91-.106 1.9-.316 2.95h-11.387c.246 3.48 2.073 5.41 5.307 5.41 1.616 0 3.163-.56 4.463-1.23l1.195 2.78c-1.722.88-3.725 1.51-6.01 1.51-5.271 0-8.716-3.44-8.716-9.31 0-5.91 3.234-9.32 8.084-9.32 4.814 0 7.38 2.81 7.38 7.21zm-7.31-4.15c-2.425 0-3.936 1.72-4.253 4.25h8.294c0-2.46-1.335-4.25-4.041-4.25z" fill="#fff"/><path d="m569.264 1155.14v-3.06h15.183l-.703 3.06h-5.166v14.87h-3.62v-14.87z" fill="#fff"/><path d="m1022.4 1157.06h17.78v42.44h11.38v6.74h-31.62v-6.74h12.86v-35.7h-11.8z" fill="#fff"/><path d="m1064.82 1181.65c0 13.07 3.93 18.55 9.55 18.55s9.56-5.48 9.56-18.55-3.94-18.55-9.56-18.55-9.55 5.48-9.55 18.55zm26.77 0c0 16.65-6.4 25.3-17.22 25.3s-17.21-8.65-17.21-25.3 6.39-25.3 17.21-25.3 17.22 8.65 17.22 25.3z" fill="#fff"/><path d="m1223.53 1157.06h17.78v42.44h11.38v6.74h-31.62v-6.74h12.86v-35.7h-11.81z" fill="#c8a563"/><path d="m1273.81 1200.2c5.13 0 9.49-3.16 9.49-9.77 0-6.6-4.71-10.05-10.26-10.05-5.97 0-10.19 2.11-10.19 2.11v-25.43h26.28l-1.4 6.74h-17.5v10.54c1.33-.28 3.16-.42 4.36-.42 8.99 0 16.37 5.34 16.37 16.51 0 10.82-7.73 16.52-16.66 16.52-6.18 0-10.26-1.62-14.26-4.15l3.58-5.9c2.95 1.97 5.84 3.3 10.19 3.3z" fill="#c8a563"/><g fill="#fffefe"><path d="m443.294 404.607v9.838h9.205v-9.838h4.498v24.595h-4.498v-10.681h-9.205v10.681h-4.497v-24.595z"/><path d="m471.454 418.661v-1.194c0-1.722-.879-2.776-3.022-2.776-1.511 0-3.127.351-4.778.949l-1.3-3.514c2.143-.808 4.216-1.194 6.5-1.194 5.481 0 6.956 2.881 6.956 6.605v6.816c0 .878.492 1.265 1.265 1.265h.387v3.408c-.527.211-1.617.351-2.495.351-1.581 0-2.6-.597-3.162-1.721h-.141c-1.264 1.265-2.67 1.721-4.708 1.721-3.408 0-5.551-1.686-5.551-5.34 0-3.443 2.741-5.376 6.711-5.376zm-3.795 7.133c1.441 0 2.846-.668 3.795-1.757v-2.038h-3.198c-1.616 0-2.529.808-2.529 1.968 0 1.194.878 1.827 1.932 1.827z"/><path d="m495.432 411.283v17.919h-4.357v-14.16h-5.727v14.16h-4.357v-17.919z"/><path d="m504.691 412.829h.141c1.159-1.124 2.775-1.897 4.637-1.897 5.06 0 7.344 3.9 7.344 9.31 0 5.411-2.319 9.311-7.66 9.311-1.511 0-2.951-.246-4.111-.632v7.308l-4.356.702v-25.648h3.302zm3.865 12.965c2.354 0 3.83-2.038 3.83-5.552 0-3.267-1.335-5.551-3.971-5.551-1.194 0-2.389.668-3.373 1.757v8.397c.984.597 2.214.949 3.514.949z"/><path d="m529.851 418.661v-1.194c0-1.722-.878-2.776-3.022-2.776-1.51 0-3.127.351-4.778.949l-1.3-3.514c2.143-.808 4.216-1.194 6.5-1.194 5.481 0 6.957 2.881 6.957 6.605v6.816c0 .878.492 1.265 1.265 1.265h.386v3.408c-.527.211-1.616.351-2.495.351-1.581 0-2.599-.597-3.162-1.721h-.14c-1.265 1.265-2.67 1.721-4.708 1.721-3.408 0-5.551-1.686-5.551-5.34 0-3.443 2.74-5.376 6.71-5.376zm-3.794 7.133c1.44 0 2.845-.668 3.794-1.757v-2.038h-3.197c-1.616 0-2.53.808-2.53 1.968 0 1.194.878 1.827 1.933 1.827z"/><path d="m549.859 419.786c2.319.562 3.794 2.037 3.794 4.391 0 3.092-2.037 5.025-6.113 5.025h-8.151v-17.919h7.448c3.443 0 6.078 1.195 6.078 4.427 0 1.932-1.054 3.303-3.056 3.97zm-3.268 1.897h-2.846v3.759h2.846c1.652 0 2.635-.597 2.635-1.932s-.983-1.827-2.635-1.827zm-.597-6.641h-2.249v3.162h2.249c1.581 0 2.495-.456 2.495-1.581 0-1.159-1.09-1.581-2.495-1.581z"/><path d="m564.171 415.042v.211c0 9.346-2.108 14.124-6.113 14.124-.984 0-1.827-.211-2.459-.632l1.089-3.478c.281.14.527.21.878.21 1.37 0 2.424-2.319 2.424-11.91v-2.284h12.543v17.919h-4.356v-14.16z"/><path d="m585.863 425.794c1.476 0 3.232-.527 4.462-1.16l1.511 3.408c-1.722.879-3.9 1.511-6.184 1.511-5.27 0-8.889-3.443-8.889-9.311 0-5.902 3.162-9.31 8.222-9.31 4.672 0 7.589 2.916 7.589 7.94 0 .492-.071 1.722-.211 2.705h-11.173c.457 2.741 2.354 4.217 4.673 4.217zm-4.603-7.554h7.343c0-2.038-1.264-3.549-3.548-3.549-1.862 0-3.373 1.23-3.795 3.549z"/><path d="m611.512 411.283v17.919h-4.356v-7.344h-6.008v7.344h-4.357v-17.919h4.357v6.816h6.008v-6.816z"/><path d="m628.108 429.202v-10.752h-.106l-7.237 10.752h-3.971v-17.919h4.357v10.751h.106l7.237-10.751h3.97v17.919z"/><path d="m645.77 425.794c1.476 0 3.232-.527 4.462-1.16l1.511 3.408c-1.722.879-3.9 1.511-6.184 1.511-5.27 0-8.889-3.443-8.889-9.311 0-5.902 3.162-9.31 8.222-9.31 4.673 0 7.589 2.916 7.589 7.94 0 .492-.071 1.722-.211 2.705h-11.173c.457 2.741 2.354 4.217 4.673 4.217zm-4.603-7.554h7.344c0-2.038-1.265-3.549-3.549-3.549-1.862 0-3.373 1.23-3.795 3.549z"/><g opacity=".6"><path d="m441.573 470.817h3.971c4.778 0 8.081-5.657 8.081-11.981 0-3.725-1.757-5.868-4.954-5.868h-3.935zm3.373 3.372h-7.729l4.321-24.594h7.73c5.376 0 8.327 3.338 8.327 9.17 0 8.398-4.989 15.424-12.649 15.424z"/><path d="m462.795 459.328h-3.268l1.23-3.057h6.219l-3.127 17.918h-3.654zm1.054-8.257c0-1.23.984-2.214 2.213-2.214 1.23 0 2.249.984 2.249 2.214s-1.019 2.178-2.249 2.178c-1.229 0-2.213-.948-2.213-2.178z"/><path d="m482.269 456.271-1.792 3.408c-.457-.211-.878-.351-1.757-.351-2.002 0-3.619 2.002-4.392 4.391l-1.827 10.47h-3.654l3.127-17.918h2.6l.211 2.775h.141c1.229-1.827 2.635-3.127 5.129-3.127.844 0 1.511.141 2.214.352z"/><path d="m491.696 458.976c-2.565 0-4.638 2.108-5.446 4.849 6.746 0 8.046-1.406 8.046-2.952 0-1.229-1.09-1.897-2.6-1.897zm-2.741 15.565c-4.602 0-6.851-2.776-6.851-7.062 0-6.219 3.689-11.56 10.013-11.56 3.443 0 5.868 1.652 5.868 4.673 0 3.689-3.198 6.254-12.192 6.254 0 2.846.878 4.638 4.041 4.638 1.51 0 2.775-.457 4.251-1.159l1.054 2.74c-1.897.984-3.865 1.476-6.184 1.476z"/><path d="m507.079 474.541c-4.603 0-7.168-2.776-7.168-7.062 0-6.395 4.076-11.56 10.33-11.56 1.897 0 3.443.352 4.848 1.019l-1.616 2.811c-1.159-.492-2.319-.773-3.759-.773-3.303 0-6.043 3.443-6.043 8.222 0 2.846 1.616 4.286 3.935 4.286 1.23 0 2.811-.351 4.111-.843l.843 2.811c-1.581.702-3.584 1.089-5.481 1.089z"/><path d="m520.071 456.271.809-4.392 3.759-.703-.914 5.095h5.411l-1.23 3.057h-4.708l-1.721 9.732c-.035.246-.07.457-.07.667 0 1.3.843 1.757 2.037 1.757.879 0 1.617-.14 2.635-.492l.352 2.916c-1.37.422-2.67.633-3.935.633-2.811 0-4.779-1.089-4.779-4.111 0-.457.036-.984.141-1.546l1.686-9.556h-3.056l.527-3.057z"/><path d="m532.755 459.328h-3.267l1.229-3.057h6.219l-3.127 17.918h-3.654zm1.054-8.257c0-1.23.984-2.214 2.214-2.214 1.229 0 2.248.984 2.248 2.214s-1.019 2.178-2.248 2.178c-1.23 0-2.214-.948-2.214-2.178z"/><path d="m543.094 467.198c0 2.846 1.23 4.286 3.549 4.286 3.373 0 5.762-3.654 5.762-8.257 0-2.81-1.23-4.251-3.549-4.251-3.373 0-5.762 3.619-5.762 8.222zm-3.759.281c0-6.219 3.724-11.56 10.048-11.56 4.603 0 6.781 2.776 6.781 7.063 0 6.183-3.724 11.559-10.048 11.559-4.427 0-6.781-2.389-6.781-7.062z"/><path d="m564.301 461.471-2.213 12.718h-3.654l3.127-17.918h2.6l.386 1.897h.141c1.756-1.581 3.408-2.249 5.41-2.249 3.303 0 4.849 1.617 4.849 4.814 0 .667-.07 1.511-.211 2.319l-1.967 11.137h-3.654l1.932-10.891c.105-.562.141-1.16.141-1.616 0-1.863-.809-2.706-2.495-2.706-1.405 0-3.197 1.16-4.392 2.495z"/></g><path d="m1032.45 411.283v17.918h-4.36v-14.159h-5.72v14.159h-4.36v-17.918z"/><path d="m1035.6 415.042v-3.759h15.53l-.71 3.759h-4.99v14.159h-4.32v-14.159z"/><path d="m1071.04 421.05h-15.88v-3.9h16.58z"/><path d="m1092.32 411.283v17.918h-4.35v-14.159h-5.73v14.159h-4.36v-17.918z"/><path d="m1112.3 411.283v17.918h-4.36v-7.343h-6.01v7.343h-4.35v-17.918h4.35v6.816h6.01v-6.816z"/><g opacity=".6"><path d="m1037.58 455.919c3.3 0 4.88 1.617 4.88 4.814 0 .667-.07 1.44-.21 2.248l-1.97 11.208h-3.65l1.93-10.962c.11-.562.14-1.089.14-1.546 0-1.862-.84-2.705-2.53-2.705-1.12 0-2.49.808-3.55 1.757l-2.35 13.456h-3.65l1.93-10.962c.1-.632.14-1.159.14-1.651 0-1.792-.74-2.6-2.25-2.6-1.33 0-2.88 1.159-3.97 2.495l-2.21 12.718h-3.66l3.13-17.918h2.6l.39 1.897h.14c1.68-1.581 3.19-2.249 5.09-2.249 2.18 0 3.55.668 4.11 2.249 1.72-1.441 3.59-2.249 5.52-2.249z"/><path d="m1049.03 467.198c0 2.845 1.22 4.286 3.54 4.286 3.38 0 5.77-3.654 5.77-8.257 0-2.81-1.23-4.251-3.55-4.251-3.38 0-5.76 3.619-5.76 8.222zm-3.76.281c0-6.219 3.72-11.56 10.04-11.56 4.61 0 6.79 2.776 6.79 7.062 0 6.184-3.73 11.56-10.05 11.56-4.43 0-6.78-2.39-6.78-7.062z"/><path d="m1070.23 461.471-2.21 12.718h-3.66l3.13-17.918h2.6l.39 1.897h.14c1.76-1.581 3.41-2.249 5.41-2.249 3.3 0 4.85 1.617 4.85 4.814 0 .667-.07 1.511-.21 2.319l-1.97 11.137h-3.65l1.93-10.891c.1-.563.14-1.16.14-1.617 0-1.862-.81-2.705-2.5-2.705-1.4 0-3.19 1.159-4.39 2.495z"/><path d="m1101.68 465.687h-15.53l.57-3.198h16.23z"/><path d="m1115.51 456.271h4.39l-1.23 3.056h-3.68l-2.99 17.041c-.74 4.11-3.16 5.551-6.11 5.551-1.41 0-2.92-.492-4.01-1.089l1.44-2.741c.88.457 1.65.773 2.64.773 1.23 0 2.1-.667 2.42-2.494l2.99-17.041h-2.99l.53-3.056h2.98l.43-2.354c.77-4.287 3.37-6.079 6.78-6.079 1.79 0 2.77.317 4.04.984l-1.69 2.706c-.63-.352-1.44-.633-2.46-.633-1.58 0-2.7.984-3.06 3.022z"/><path d="m1132.34 456.271-1.79 3.408c-.46-.211-.88-.352-1.76-.352-2 0-3.62 2.003-4.39 4.392l-1.83 10.47h-3.65l3.13-17.918h2.6l.21 2.775h.14c1.23-1.827 2.63-3.127 5.13-3.127.84 0 1.51.141 2.21.352z"/><path d="m1135.44 459.327h-3.26l1.23-3.056h6.21l-3.12 17.918h-3.66zm1.06-8.256c0-1.23.98-2.214 2.21-2.214s2.25.984 2.25 2.214c0 1.229-1.02 2.178-2.25 2.178s-2.21-.949-2.21-2.178z"/></g></g><path d="m1228.05 425.09 1.4 3.443c-1.51.668-3.27 1.019-5.09 1.019-5.8 0-8.93-4.146-8.93-9.31 0-5.165 2.95-9.311 8.75-9.311 1.69 0 3.59.351 5.1.984l-1.41 3.443c-1.09-.457-2.32-.668-3.48-.668-2.6 0-4.53 2.249-4.53 5.552 0 3.302 1.9 5.551 4.5 5.551 1.16 0 2.6-.246 3.69-.703z" fill="#c8a563"/><path d="m1235.98 414.409h.1c1.44-1.51 3.17-2.6 5.48-2.6 4.4 0 7.59 2.917 7.59 8.889 0 5.833-3.65 8.854-8.64 8.854-5.8 0-8.43-4.321-8.43-11.489 0-10.997 3.16-13.386 8.96-13.913 2.63-.246 4.04-.562 5.87-1.3l1.4 3.373c-2.04 1.019-4.5 1.581-6.85 1.757-3.69.281-5.48 1.932-5.48 6.429zm4.95 1.16c-1.51 0-3.3.773-4.49 2.565.03 5.129 1.4 7.659 4.07 7.659 2.35 0 4.22-1.651 4.22-5.095 0-3.443-1.69-5.129-3.8-5.129z" fill="#c8a563"/><path d="m1270.48 421.05h-15.88v-3.9h16.58z" fill="#c8a563"/><path d="m1287.79 419.785c2.32.562 3.8 2.038 3.8 4.392 0 3.092-2.04 5.024-6.12 5.024h-8.15v-17.919h7.45c3.44 0 6.08 1.195 6.08 4.427 0 1.933-1.06 3.303-3.06 3.971zm-3.27 1.897h-2.84v3.76h2.84c1.66 0 2.64-.598 2.64-1.933s-.98-1.827-2.64-1.827zm-.59-6.64h-2.25v3.162h2.25c1.58 0 2.49-.457 2.49-1.581 0-1.16-1.09-1.581-2.49-1.581z" fill="#c8a563"/><path d="m1307.37 425.09 1.41 3.443c-1.51.668-3.27 1.019-5.1 1.019-5.79 0-8.92-4.146-8.92-9.31 0-5.165 2.95-9.311 8.75-9.311 1.69 0 3.58.351 5.09.984l-1.4 3.443c-1.09-.457-2.32-.668-3.48-.668-2.6 0-4.53 2.249-4.53 5.552 0 3.302 1.9 5.551 4.49 5.551 1.16 0 2.6-.246 3.69-.703z" fill="#c8a563"/><g fill="#c8a563" opacity=".6"><path d="m1222.92 463.65c2.17.878 4.7 2.248 4.7 4.989 0 3.618-3.3 5.902-7.69 5.902-2.18 0-4.18-.492-5.73-1.265l1.69-2.81c1.23.632 2.74 1.019 4.46 1.019 1.58 0 3.59-.773 3.59-2.565 0-1.511-1.59-2.073-3.31-2.706-1.79-.667-4.18-2.143-4.18-4.989 0-3.548 3.02-5.305 6.96-5.305 2 0 4.04.422 5.69 1.23l-1.65 2.74c-1.34-.527-2.71-.913-4.22-.913-1.65 0-3.09.702-3.09 2.143 0 1.405 1.58 2.038 2.78 2.53z"/><path d="m1240.57 458.977c-3.37 0-5.76 3.618-5.76 8.221 0 2.67.91 4.287 2.95 4.287 1.72 0 3.13-.949 4.43-2.565l1.61-9.311c-.95-.351-1.97-.632-3.23-.632zm.53-3.057c2.67 0 4.78.597 6.78 1.335l-2.99 16.935h-2.42l-.39-1.897h-.14c-1.48 1.405-3.13 2.248-5.34 2.248-3.87 0-5.55-2.775-5.55-7.062 0-6.219 3.72-11.559 10.05-11.559z"/><path d="m1253.92 456.271.81-4.392 3.76-.702-.92 5.094h5.41l-1.23 3.057h-4.7l-1.73 9.732c-.03.246-.07.457-.07.668 0 1.3.85 1.757 2.04 1.757.88 0 1.62-.141 2.64-.492l.35 2.916c-1.37.421-2.67.632-3.94.632-2.81 0-4.77-1.089-4.77-4.111 0-.456.03-.983.14-1.545l1.68-9.557h-3.05l.52-3.057z"/><path d="m1281.32 465.687h-15.53l.57-3.197h16.23z"/><path d="m1294.63 463.65c2.17.878 4.7 2.248 4.7 4.989 0 3.618-3.3 5.902-7.69 5.902-2.18 0-4.18-.492-5.73-1.265l1.69-2.81c1.23.632 2.74 1.019 4.46 1.019 1.58 0 3.59-.773 3.59-2.565 0-1.511-1.59-2.073-3.31-2.706-1.79-.667-4.18-2.143-4.18-4.989 0-3.548 3.02-5.305 6.96-5.305 2 0 4.04.422 5.69 1.23l-1.65 2.74c-1.34-.527-2.71-.913-4.22-.913-1.65 0-3.09.702-3.09 2.143 0 1.405 1.58 2.038 2.78 2.53z"/><path d="m1308.91 456.271-1.9 10.892c-.11.562-.14 1.159-.14 1.616 0 1.862.98 2.706 2.67 2.706 1.4 0 3.55-1.16 4.74-2.495l2.22-12.719h3.65l-3.13 17.919h-2.42l-.39-1.897h-.14c-1.75 1.581-3.93 2.248-5.94 2.248-3.3 0-5.02-1.616-5.02-4.813 0-.668.07-1.511.21-2.319l1.93-11.138z"/><path d="m1327.76 461.471-2.21 12.719h-3.66l3.13-17.919h2.6l.39 1.898h.14c1.75-1.582 3.4-2.249 5.41-2.249 3.3 0 4.85 1.616 4.85 4.813 0 .668-.08 1.511-.22 2.319l-1.96 11.138h-3.66l1.94-10.892c.1-.562.14-1.159.14-1.616 0-1.862-.81-2.705-2.5-2.705-1.4 0-3.2 1.159-4.39 2.494z"/></g><g fill="#fffefe"><path d="m157.484 404.607v9.838h9.205v-9.838h4.497v24.595h-4.497v-10.681h-9.205v10.681h-4.498v-24.595z"/><path d="m184.203 429.553c-4.99 0-8.433-3.478-8.433-9.311 0-5.832 3.443-9.31 8.433-9.31 4.989 0 8.432 3.478 8.432 9.31 0 5.833-3.443 9.311-8.432 9.311zm0-14.862c-2.319 0-4.006 2.073-4.006 5.551 0 3.479 1.687 5.552 4.006 5.552 2.318 0 4.005-2.073 4.005-5.552 0-3.478-1.687-5.551-4.005-5.551z"/><path d="m212.216 429.202-.879-10.646h-.14l-3.127 7.729h-3.795l-3.162-7.729h-.14l-.844 10.646h-4.321l1.722-17.919h4.602l3.97 9.557h.141l3.97-9.557h4.603l1.721 17.919z"/><path d="m228.788 425.794c1.476 0 3.233-.527 4.462-1.16l1.511 3.408c-1.721.879-3.9 1.511-6.184 1.511-5.27 0-8.889-3.443-8.889-9.311 0-5.902 3.163-9.31 8.222-9.31 4.673 0 7.589 2.916 7.589 7.94 0 .492-.07 1.722-.211 2.705h-11.173c.457 2.741 2.354 4.217 4.673 4.217zm-4.602-7.554h7.343c0-2.038-1.265-3.549-3.549-3.549-1.862 0-3.373 1.23-3.794 3.549z"/><path d="m243.722 412.829h.14c1.16-1.124 2.776-1.897 4.638-1.897 5.059 0 7.343 3.9 7.343 9.31 0 5.411-2.319 9.311-7.659 9.311-1.511 0-2.951-.246-4.111-.632v7.308l-4.357.702v-25.648h3.303zm3.865 12.965c2.354 0 3.829-2.038 3.829-5.552 0-3.267-1.335-5.551-3.97-5.551-1.194 0-2.389.668-3.373 1.757v8.397c.984.597 2.214.949 3.514.949z"/><g opacity=".6"><path d="m159.803 449.595 7.203 18.305h.141l3.232-18.305h3.794l-4.321 24.594h-4.076l-7.237-18.27h-.141l-3.197 18.27h-3.795l4.322-24.594z"/><path d="m181.203 456.271-1.897 10.891c-.105.563-.14 1.16-.14 1.617 0 1.862.983 2.705 2.67 2.705 1.405 0 3.548-1.16 4.743-2.495l2.213-12.718h3.654l-3.127 17.918h-2.424l-.386-1.897h-.141c-1.757 1.581-3.935 2.249-5.938 2.249-3.302 0-5.024-1.617-5.024-4.814 0-.667.07-1.511.211-2.319l1.932-11.137z"/><path d="m215.163 455.919c3.303 0 4.884 1.617 4.884 4.814 0 .667-.07 1.44-.211 2.248l-1.967 11.208h-3.654l1.932-10.962c.106-.562.141-1.089.141-1.546 0-1.862-.844-2.705-2.53-2.705-1.124 0-2.495.808-3.549 1.757l-2.354 13.456h-3.654l1.933-10.962c.105-.632.14-1.159.14-1.651 0-1.792-.738-2.6-2.248-2.6-1.335 0-2.881 1.159-3.97 2.495l-2.214 12.718h-3.654l3.127-17.918h2.6l.386 1.897h.141c1.686-1.581 3.197-2.249 5.094-2.249 2.179 0 3.549.668 4.111 2.249 1.722-1.441 3.584-2.249 5.516-2.249z"/><path d="m235.99 463.227c0-2.81-1.159-4.251-3.302-4.251-1.441 0-3.303 1.159-4.497 2.495l-1.652 9.345c1.195.457 2.319.668 3.689.668 3.373 0 5.762-3.654 5.762-8.257zm3.76-.246c0 6.184-3.724 11.56-10.154 11.56-2.459 0-4.638-.422-7.097-1.406l4.321-24.594 3.795-.703-1.827 10.33h.14c1.617-1.546 3.303-2.249 5.06-2.249 3.9 0 5.762 2.776 5.762 7.062z"/><path d="m252.136 458.976c-2.564 0-4.637 2.108-5.445 4.849 6.745 0 8.045-1.406 8.045-2.952 0-1.229-1.089-1.897-2.6-1.897zm-2.74 15.565c-4.603 0-6.851-2.776-6.851-7.062 0-6.219 3.689-11.56 10.013-11.56 3.443 0 5.868 1.652 5.868 4.673 0 3.689-3.198 6.254-12.192 6.254 0 2.846.878 4.638 4.04 4.638 1.511 0 2.776-.457 4.252-1.16l1.054 2.741c-1.898.984-3.865 1.476-6.184 1.476z"/><path d="m273.247 456.271-1.792 3.408c-.457-.211-.879-.352-1.757-.352-2.003 0-3.619 2.003-4.392 4.392l-1.827 10.47h-3.654l3.127-17.918h2.6l.211 2.775h.14c1.23-1.827 2.635-3.127 5.13-3.127.843 0 1.511.141 2.214.352z"/></g><path d="m190.725 197.223v-37.268h-.241l-25.06 37.268h-8.594v-56.223h10.281v37.348h.241l25.059-37.348h8.594v56.223z"/><path d="m247.488 156.261v40.962h-9.96v-16.787h-13.734v16.787h-9.96v-40.962h9.96v15.581h13.734v-15.581z"/><path d="m254.744 164.855v-8.594h35.5l-1.606 8.594h-11.405v32.368h-9.879v-32.368z"/><path d="m314.272 189.432c3.373 0 7.389-1.205 10.2-2.65l3.454 7.791c-3.936 2.008-8.916 3.453-14.136 3.453-12.048 0-20.321-7.871-20.321-21.284 0-13.494 7.229-21.285 18.795-21.285 10.682 0 17.349 6.667 17.349 18.152 0 1.125-.161 3.936-.482 6.185h-25.542c1.044 6.265 5.382 9.638 10.683 9.638zm-10.522-17.268h16.787c0-4.659-2.892-8.113-8.113-8.113-4.257 0-7.71 2.812-8.674 8.113z"/><path d="m348.41 159.795h.322c2.65-2.571 6.345-4.338 10.602-4.338 11.566 0 16.786 8.916 16.786 21.285s-5.301 21.284-17.509 21.284c-3.454 0-6.747-.562-9.398-1.445v16.706l-9.959 1.606v-58.632h7.55zm8.835 29.637c5.382 0 8.755-4.658 8.755-12.69 0-7.47-3.052-12.691-9.076-12.691-2.731 0-5.462 1.527-7.711 4.016v19.197c2.249 1.365 5.061 2.168 8.032 2.168z"/><path d="m409.702 175.698c5.301 1.285 8.674 4.658 8.674 10.04 0 7.068-4.658 11.485-13.975 11.485h-18.634v-40.962h17.027c7.871 0 13.895 2.73 13.895 10.12 0 4.417-2.409 7.55-6.987 9.076zm-7.47 4.337h-6.506v8.594h6.506c3.775 0 6.024-1.365 6.024-4.418 0-3.052-2.249-4.176-6.024-4.176zm-1.365-15.18h-5.141v7.228h5.141c3.614 0 5.702-1.044 5.702-3.614 0-2.651-2.49-3.614-5.702-3.614z"/><path d="m448.204 173.127v-2.73c0-3.936-2.008-6.346-6.908-6.346-3.453 0-7.148.804-10.923 2.169l-2.972-8.032c4.9-1.847 9.638-2.731 14.859-2.731 12.53 0 15.903 6.586 15.903 15.1v15.582c0 2.008 1.125 2.892 2.892 2.892h.883v7.79c-1.205.482-3.694.804-5.702.804-3.615 0-5.944-1.366-7.229-3.936h-.321c-2.892 2.892-6.105 3.936-10.763 3.936-7.791 0-12.69-3.856-12.69-12.209 0-7.871 6.264-12.289 15.34-12.289zm-8.675 16.305c3.293 0 6.506-1.526 8.675-4.016v-4.658h-7.309c-3.695 0-5.783 1.847-5.783 4.498 0 2.73 2.008 4.176 4.417 4.176z"/><path d="m484.384 164.855v.482c0 21.364-4.819 32.288-13.975 32.288-2.249 0-4.177-.482-5.623-1.446l2.49-7.952c.643.322 1.205.482 2.008.482 3.133 0 5.542-5.301 5.542-27.228v-5.22h28.674v40.962h-9.959v-32.368z"/><path d="m530.419 188.629h5.461c4.016-7.148 5.141-14.056 5.141-27.871v-4.497h28.111v32.368h6.506l-1.606 18.795h-8.353v-10.201h-25.301v10.201h-8.353zm28.754-23.774h-8.594c0 9.076-.804 17.589-4.097 23.774h12.691z"/><path d="m606.42 175.698c5.301 1.285 8.674 4.658 8.674 10.04 0 7.068-4.658 11.485-13.975 11.485h-18.634v-40.962h17.027c7.871 0 13.895 2.73 13.895 10.12 0 4.417-2.409 7.55-6.987 9.076zm-7.47 4.337h-6.506v8.594h6.506c3.775 0 6.024-1.365 6.024-4.418 0-3.052-2.249-4.176-6.024-4.176zm-1.365-15.18h-5.141v7.228h5.141c3.614 0 5.702-1.044 5.702-3.614 0-2.651-2.49-3.614-5.702-3.614z"/><path d="m650.624 197.223v-24.577h-.241l-16.545 24.577h-9.076v-40.962h9.959v24.577h.241l16.546-24.577h9.076v40.962z"/><path d="m711.803 198.026-10.28-17.75h-1.767v16.947h-9.719v-16.947h-1.767l-9.719 16.947h-11.164l13.172-21.204-12.369-19.758h10.201l9.558 15.742h2.088v-15.742h9.719v15.742h2.088l9.558-15.742h10.2l-12.369 19.758 13.172 21.204z"/><path d="m746.063 189.432c3.374 0 7.389-1.205 10.201-2.65l3.453 7.791c-3.935 2.008-8.915 3.453-14.136 3.453-12.048 0-20.32-7.871-20.32-21.284 0-13.494 7.228-21.285 18.794-21.285 10.683 0 17.349 6.667 17.349 18.152 0 1.125-.161 3.936-.482 6.185h-25.541c1.044 6.265 5.381 9.638 10.682 9.638zm-10.522-17.268h16.787c0-4.659-2.891-8.113-8.112-8.113-4.257 0-7.711 2.812-8.675 8.113z"/><path d="m804.699 156.261v40.962h-9.96v-16.787h-13.734v16.787h-9.96v-40.962h9.96v15.581h13.734v-15.581z"/><path d="m842.636 197.223v-24.577h-.241l-16.545 24.577h-9.076v-40.962h9.959v24.577h.241l16.546-24.577h9.076v40.962z"/><path d="m860.604 197.223 10.281-15.823c-4.819-1.927-7.55-6.184-7.55-12.047 0-7.952 5.381-13.092 14.216-13.092h16.947v40.962h-9.959v-14.698h-3.936l-8.835 14.698zm12.851-27.71c0 2.651 1.847 4.498 4.899 4.498h6.185v-9.156h-6.185c-3.052 0-4.899 2.008-4.899 4.658z"/><path d="m922.628 164.855v-8.594h35.501l-1.606 8.594h-11.406v32.368h-9.879v-32.368z"/><path d="m974.096 159.795h.321c2.651-2.571 6.346-4.338 10.602-4.338 11.566 0 16.791 8.916 16.791 21.285s-5.305 21.284-17.514 21.284c-3.453 0-6.746-.562-9.397-1.445v16.706l-9.959 1.606v-58.632h7.55zm8.835 29.637c5.381 0 8.755-4.658 8.755-12.69 0-7.47-3.052-12.691-9.076-12.691-2.731 0-5.462 1.527-7.711 4.016v19.197c2.249 1.365 5.06 2.168 8.032 2.168z"/><path d="m1031.61 173.127v-2.73c0-3.936-2.01-6.346-6.91-6.346-3.45 0-7.14.804-10.92 2.169l-2.97-8.032c4.9-1.847 9.64-2.731 14.86-2.731 12.53 0 15.9 6.586 15.9 15.1v15.582c0 2.008 1.13 2.892 2.89 2.892h.89v7.79c-1.21.482-3.7.804-5.71.804-3.61 0-5.94-1.366-7.22-3.936h-.33c-2.89 2.892-6.1 3.936-10.76 3.936-7.79 0-12.69-3.856-12.69-12.209 0-7.871 6.27-12.289 15.34-12.289zm-8.67 16.305c3.29 0 6.5-1.526 8.67-4.016v-4.658h-7.31c-3.69 0-5.78 1.847-5.78 4.498 0 2.73 2.01 4.176 4.42 4.176z"/><path d="m1087.07 156.261v40.962h-9.96v-16.787h-13.73v16.787h-9.96v-40.962h9.96v15.581h13.73v-15.581z"/><path d="m1125.57 187.826 3.21 7.871c-3.45 1.526-7.47 2.329-11.64 2.329-13.26 0-20.41-9.477-20.41-21.284s6.75-21.285 20-21.285c3.86 0 8.2.804 11.65 2.249l-3.21 7.872c-2.49-1.045-5.3-1.527-7.95-1.527-5.95 0-10.37 5.141-10.37 12.691s4.34 12.69 10.29 12.69c2.65 0 5.94-.562 8.43-1.606z"/><path d="m1169.8 156.261v40.962h-9.96v-32.368h-13.09v32.368h-9.96v-40.962z"/><path d="m1198.68 198.026c-11.4 0-19.27-7.951-19.27-21.284s7.87-21.285 19.27-21.285c11.41 0 19.28 7.952 19.28 21.285s-7.87 21.284-19.28 21.284zm0-33.975c-5.3 0-9.15 4.739-9.15 12.691 0 7.951 3.85 12.69 9.15 12.69s9.16-4.739 9.16-12.69c0-7.952-3.86-12.691-9.16-12.691z"/><path d="m1236.78 159.795h.32c2.65-2.571 6.35-4.338 10.6-4.338 11.57 0 16.79 8.916 16.79 21.285s-5.3 21.284-17.51 21.284c-3.45 0-6.75-.562-9.4-1.445v16.706l-9.96 1.606v-58.632h7.55zm8.83 29.637c5.39 0 8.76-4.658 8.76-12.69 0-7.47-3.05-12.691-9.08-12.691-2.73 0-5.46 1.527-7.71 4.016v19.197c2.25 1.365 5.06 2.168 8.03 2.168z"/><path d="m1268.92 164.855v-8.594h35.5l-1.6 8.594h-11.41v32.368h-9.88v-32.368z"/><path d="m1330.61 173.127v-2.73c0-3.936-2.01-6.346-6.91-6.346-3.45 0-7.14.804-10.92 2.169l-2.97-8.032c4.9-1.847 9.64-2.731 14.86-2.731 12.53 0 15.9 6.586 15.9 15.1v15.582c0 2.008 1.13 2.892 2.89 2.892h.89v7.79c-1.21.482-3.7.804-5.71.804-3.61 0-5.94-1.366-7.23-3.936h-.32c-2.89 2.892-6.1 3.936-10.76 3.936-7.79 0-12.69-3.856-12.69-12.209 0-7.871 6.26-12.289 15.34-12.289zm-8.67 16.305c3.29 0 6.5-1.526 8.67-4.016v-4.658h-7.31c-3.69 0-5.78 1.847-5.78 4.498 0 2.73 2.01 4.176 4.42 4.176z"/><g opacity=".6"><path d="m198.351 252.463h-15.019l-8.514 48.513h-8.675l8.514-48.513h-16.626l1.366-7.71h41.926z"/><path d="m227.573 260.013-4.096 7.791c-1.044-.482-2.008-.803-4.016-.803-4.578 0-8.273 4.578-10.04 10.04l-4.176 23.935h-8.353l7.148-40.963h5.944l.482 6.345h.321c2.811-4.176 6.024-7.148 11.726-7.148 1.928 0 3.454.321 5.06.803z"/><path d="m248.963 266.198c-7.711 0-13.173 8.273-13.173 18.794 0 6.105 2.089 9.799 6.747 9.799 3.936 0 7.149-2.168 10.12-5.863l3.695-21.284c-2.169-.804-4.498-1.446-7.389-1.446zm1.204-6.988c6.105 0 10.924 1.366 15.502 3.052l-6.827 38.714h-5.542l-.884-4.337h-.321c-3.373 3.212-7.148 5.14-12.208 5.14-8.835 0-12.691-6.345-12.691-16.144 0-14.216 8.514-26.425 22.971-26.425z"/><path d="m313.695 267.001-6.827 38.955c-1.687 9.397-7.229 12.69-13.975 12.69-3.213 0-6.667-1.125-9.157-2.49l3.293-6.265c2.008 1.044 3.775 1.767 6.024 1.767 2.811 0 4.819-1.526 5.542-5.702l6.827-38.955h-17.83l-6.828 38.955c-1.686 9.397-7.228 12.69-13.975 12.69-3.213 0-6.666-1.125-9.156-2.49l3.293-6.265c2.008 1.044 3.775 1.767 6.024 1.767 2.811 0 4.819-1.526 5.542-5.702l6.827-38.955h-6.827l1.204-6.988h6.828l.963-5.381c1.767-9.799 7.711-13.895 15.502-13.895 4.096 0 6.345.723 9.237 2.249l-3.856 6.184c-1.446-.803-3.293-1.445-5.622-1.445-3.614 0-6.185 2.248-6.988 6.907l-.964 5.381h17.831l.482-2.57c2.008-10.763 6.907-16.706 19.598-16.706 6.586 0 10.923 1.446 14.859 3.213l-3.856 6.184c-3.614-1.446-7.389-2.409-11.244-2.409-6.988 0-10.04 3.293-11.084 9.477l-.482 2.811h24.417l-7.149 40.963h-8.353l5.944-33.975z"/><path d="m361.549 301.779c-10.521 0-16.385-6.345-16.385-16.144 0-14.618 9.317-26.425 23.614-26.425 4.337 0 7.871.803 11.084 2.329l-3.695 6.426c-2.65-1.125-5.301-1.767-8.594-1.767-7.55 0-13.815 7.871-13.815 18.794 0 6.506 3.695 9.799 8.996 9.799 2.811 0 6.426-.803 9.397-1.927l1.928 6.425c-3.614 1.607-8.192 2.49-12.53 2.49z"/><path d="m410.991 267.001h-7.47l2.811-6.988h14.217l-7.149 40.963h-8.353zm2.409-18.875c0-2.811 2.249-5.06 5.06-5.06s5.141 2.249 5.141 5.06-2.33 4.98-5.141 4.98-5.06-2.169-5.06-4.98z"/><path d="m438.241 271.9-5.061 29.076h-8.353l7.149-40.963h5.943l.884 4.338h.321c4.016-3.615 7.791-5.141 12.369-5.141 7.55 0 11.084 3.695 11.084 11.004 0 1.526-.16 3.453-.482 5.301l-4.498 25.461h-8.353l4.418-24.899c.241-1.285.321-2.65.321-3.695 0-4.257-1.847-6.184-5.703-6.184-3.212 0-7.309 2.65-10.039 5.702z"/><path d="m477.609 260.013 1.848-10.04 8.594-1.606-2.089 11.646h12.37l-2.812 6.988h-10.762l-3.936 22.248c-.08.563-.161 1.044-.161 1.526 0 2.972 1.928 4.016 4.659 4.016 2.008 0 3.695-.321 6.024-1.124l.803 6.666c-3.132.964-6.104 1.446-8.996 1.446-6.425 0-10.923-2.49-10.923-9.397 0-1.044.08-2.249.321-3.534l3.856-21.847h-6.988l1.205-6.988z"/><path d="m521.062 266.198c-5.864 0-10.602 4.819-12.45 11.084 15.422 0 18.393-3.213 18.393-6.747 0-2.811-2.49-4.337-5.943-4.337zm-6.265 35.581c-10.522 0-15.662-6.345-15.662-16.144 0-14.216 8.433-26.425 22.891-26.425 7.871 0 13.413 3.775 13.413 10.683 0 8.433-7.309 14.296-27.871 14.296 0 6.506 2.008 10.602 9.237 10.602 3.454 0 6.345-1.044 9.718-2.65l2.41 6.265c-4.337 2.249-8.835 3.373-14.136 3.373z"/><path d="m569.32 260.013-4.096 7.791c-1.044-.482-2.008-.803-4.016-.803-4.578 0-8.273 4.578-10.04 10.04l-4.176 23.935h-8.354l7.149-40.963h5.943l.482 6.345h.321c2.812-4.176 6.024-7.148 11.727-7.148 1.928 0 3.454.321 5.06.803z"/><path d="m576.413 300.976-6.667-40.963h8.032l4.739 31.646h.241l15.742-31.646h8.273l-20.963 40.963z"/><path d="m627.339 266.198c-7.711 0-13.172 8.273-13.172 18.794 0 6.105 2.088 9.799 6.747 9.799 3.935 0 7.148-2.168 10.12-5.863l3.694-21.284c-2.168-.804-4.497-1.446-7.389-1.446zm1.205-6.988c6.104 0 10.923 1.366 15.501 3.052l-6.827 38.714h-5.542l-.883-4.337h-.322c-3.373 3.212-7.148 5.14-12.208 5.14-8.835 0-12.69-6.345-12.69-16.144 0-14.216 8.513-26.425 22.971-26.425z"/><path d="m664.201 293.988.803 6.586c-2.731.964-4.819 1.205-6.988 1.205-5.783 0-8.754-2.49-8.754-7.952 0-1.044.08-2.168.321-3.453l8.433-48.031 8.675-1.606-8.755 49.637c-.08.562-.161 1.044-.161 1.526 0 2.008.964 2.891 2.812 2.891 1.285 0 2.088-.241 3.614-.803z"/></g><path d="m1081 579.373-.88-10.646h-.14l-3.13 7.73h-3.79l-3.16-7.73h-.15l-.84 10.646h-4.32l1.72-17.918h4.6l3.97 9.556h.14l3.98-9.556h4.6l1.72 17.918z"/><path d="m1100.84 579.373v-10.751h-.11l-7.24 10.751h-3.97v-17.918h4.36v10.751h.11l7.23-10.751h3.97v17.918z"/><path d="m1125.18 561.455v17.918h-4.36v-7.343h-6.01v7.343h-4.36v-17.918h4.36v6.816h6.01v-6.816z"/></g><g fill="#fff" opacity=".6"><path d="m1085.21 593.046c3.31 0 4.89 1.617 4.89 4.814 0 .667-.07 1.44-.21 2.248l-1.97 11.208h-3.66l1.94-10.962c.1-.562.14-1.089.14-1.546 0-1.862-.85-2.705-2.53-2.705-1.13 0-2.5.808-3.55 1.757l-2.35 13.456h-3.66l1.93-10.962c.11-.632.14-1.159.14-1.651 0-1.792-.73-2.6-2.24-2.6-1.34 0-2.89 1.16-3.97 2.495l-2.22 12.718h-3.65l3.13-17.918h2.6l.38 1.897h.14c1.69-1.581 3.2-2.249 5.1-2.249 2.18 0 3.55.668 4.11 2.249 1.72-1.44 3.58-2.249 5.51-2.249z"/><path d="m1096.17 596.454h-3.27l1.23-3.056h6.22l-3.13 17.918h-3.65zm1.05-8.256c0-1.23.99-2.214 2.22-2.214s2.24.984 2.24 2.214-1.01 2.178-2.24 2.178-2.22-.948-2.22-2.178z"/><path d="m1108.09 598.598-2.22 12.718h-3.65l3.13-17.918h2.6l.38 1.897h.14c1.76-1.581 3.41-2.249 5.42-2.249 3.3 0 4.84 1.617 4.84 4.814 0 .667-.07 1.511-.21 2.319l-1.96 11.137h-3.66l1.93-10.891c.11-.562.14-1.16.14-1.617 0-1.862-.8-2.705-2.49-2.705-1.41 0-3.2 1.16-4.39 2.495z"/></g><g fill="#fff" opacity=".6"><path d="m443.675 606.884c0 2.179 2.179 3.268 3.936 4.077 2.707 1.23 6.01 3.338 6.01 6.993 0 4.956-3.76 7.627-9.665 7.627-3.127 0-5.412-.773-7.556-2.179l1.863-3.093c1.792 1.195 3.69 1.898 6.291 1.898 3.128 0 5.271-1.265 5.271-3.901 0-2.144-1.827-3.163-4.357-4.323-2.636-1.195-5.588-3.093-5.588-6.677 0-4.569 3.198-7.029 8.68-7.029 2.847 0 5.131.597 6.994 1.898l-2.144 2.917c-1.511-.879-3.268-1.441-5.447-1.441-2.601 0-4.288 1.195-4.288 3.233z"/><path d="m466.037 610.012c-1.406 0-3.234 1.16-4.429 2.495l-2.214 12.722h-3.655l4.499-25.655 3.795-.703-1.827 10.332h.14c1.547-1.44 3.374-2.249 5.167-2.249 3.303 0 4.814 1.582 4.814 4.745 0 .703-.07 1.476-.21 2.319l-1.969 11.211h-3.655l1.898-10.824c.106-.598.176-1.16.176-1.617 0-1.862-.844-2.776-2.53-2.776z"/><path d="m478.411 610.363h-3.268l1.23-3.057h6.22l-3.127 17.923h-3.655zm1.055-8.259c0-1.23.984-2.214 2.214-2.214s2.249.984 2.249 2.214-1.019 2.179-2.249 2.179-2.214-.949-2.214-2.179z"/><path d="m497.891 607.306-1.793 3.409c-.457-.211-.878-.352-1.757-.352-2.003 0-3.62 2.003-4.393 4.393l-1.827 10.473h-3.655l3.127-17.923h2.601l.211 2.776h.141c1.23-1.827 2.635-3.128 5.131-3.128.843 0 1.511.141 2.214.352z"/><path d="m501.486 618.236c0 2.846 1.23 4.287 3.55 4.287 3.374 0 5.763-3.655 5.763-8.259 0-2.811-1.23-4.252-3.549-4.252-3.374 0-5.764 3.62-5.764 8.224zm-3.76.281c0-6.221 3.725-11.563 10.051-11.563 4.604 0 6.783 2.777 6.783 7.064 0 6.186-3.726 11.563-10.051 11.563-4.429 0-6.783-2.39-6.783-7.064z"/><path d="m524.245 614.51 6.08-7.204h3.796l-7.24 8.821c.773 3.549 2.706 6.466 5.026 9.102l-3.972.352c-1.933-2.425-3.268-4.991-4.076-8.083h-2.004l-1.37 7.731h-3.655l4.498-25.655 3.796-.703-2.741 15.639z"/><path d="m543.286 610.012c-3.374 0-5.763 3.62-5.763 8.224 0 2.671.913 4.287 2.952 4.287 1.722 0 3.128-.949 4.428-2.565l1.617-9.314c-.949-.351-1.968-.632-3.234-.632zm.527-3.058c2.671 0 4.78.598 6.783 1.336l-2.987 16.939h-2.425l-.386-1.898h-.141c-1.476 1.406-3.128 2.25-5.342 2.25-3.866 0-5.553-2.777-5.553-7.064 0-6.221 3.726-11.563 10.051-11.563z"/><path d="m550.419 632.258 1.441-2.847c.492.246 1.124.492 1.862.492.809 0 1.687-.421 2.495-2.073l1.266-2.601h-1.23l-3.163-17.923h3.549l2.39 14.163h.141l6.923-14.163h3.866l-10.649 21.367c-1.722 3.445-3.971 4.288-5.904 4.288-1.265 0-2.284-.387-2.987-.703z"/><path d="m578.98 610.012c-3.374 0-5.764 3.62-5.764 8.224 0 2.671.914 4.287 2.952 4.287 1.722 0 3.128-.949 4.428-2.565l1.617-9.314c-.949-.351-1.968-.632-3.233-.632zm.527-3.058c2.671 0 4.779.598 6.783 1.336l-2.988 16.939h-2.425l-.386-1.898h-.141c-1.476 1.406-3.128 2.25-5.342 2.25-3.865 0-5.552-2.777-5.552-7.064 0-6.221 3.725-11.563 10.051-11.563z"/><path d="m609.334 614.721c.703 3.796 2.671 7.345 4.885 10.508l-4.041.352c-2.25-3.093-3.831-6.572-4.639-10.403h-2.636l-1.757 10.051h-3.796l4.323-24.601h7.134c4.393 0 6.888 2.179 6.888 6.186 0 3.866-2.53 6.818-6.361 7.907zm-5.834-2.917h3.093c3.022 0 5.131-2.038 5.131-4.885 0-1.863-1.23-2.917-3.514-2.917h-3.339z"/><path d="m626 610.012c-2.565 0-4.639 2.108-5.447 4.85 6.748 0 8.048-1.406 8.048-2.952 0-1.23-1.089-1.898-2.601-1.898zm-2.741 15.569c-4.604 0-6.853-2.777-6.853-7.064 0-6.221 3.69-11.563 10.016-11.563 3.444 0 5.869 1.652 5.869 4.674 0 3.691-3.198 6.256-12.195 6.256 0 2.847.879 4.639 4.042 4.639 1.511 0 2.776-.457 4.252-1.16l1.055 2.742c-1.898.984-3.866 1.476-6.186 1.476z"/><path d="m641.388 625.581c-4.604 0-7.17-2.777-7.17-7.064 0-6.397 4.077-11.563 10.333-11.563 1.898 0 3.444.352 4.85 1.019l-1.617 2.812c-1.16-.492-2.319-.773-3.76-.773-3.304 0-6.045 3.444-6.045 8.224 0 2.846 1.616 4.287 3.936 4.287 1.23 0 2.812-.351 4.112-.843l.843 2.811c-1.581.703-3.584 1.09-5.482 1.09z"/><path d="m660.394 610.012c-1.406 0-3.234 1.16-4.428 2.495l-2.215 12.722h-3.655l4.499-25.655 3.796-.703-1.828 10.332h.141c1.546-1.44 3.373-2.249 5.166-2.249 3.303 0 4.815 1.582 4.815 4.745 0 .703-.071 1.476-.211 2.319l-1.968 11.211h-3.655l1.897-10.824c.106-.598.176-1.16.176-1.617 0-1.862-.843-2.776-2.53-2.776z"/><path d="m676.388 614.51 6.08-7.204h3.796l-7.24 8.821c.773 3.549 2.706 6.466 5.026 9.102l-3.972.352c-1.933-2.425-3.268-4.991-4.076-8.083h-2.004l-1.37 7.731h-3.655l4.498-25.655 3.796-.703-2.741 15.639z"/><path d="m695.429 610.012c-3.374 0-5.763 3.62-5.763 8.224 0 2.671.913 4.287 2.952 4.287 1.722 0 3.128-.949 4.428-2.565l1.616-9.314c-.948-.351-1.968-.632-3.233-.632zm.527-3.058c2.671 0 4.78.598 6.783 1.336l-2.987 16.939h-2.425l-.387-1.898h-.14c-1.476 1.406-3.128 2.25-5.342 2.25-3.866 0-5.553-2.777-5.553-7.064 0-6.221 3.725-11.563 10.051-11.563z"/></g><g fill="#fff" opacity=".6"><path d="m446.425 764.96h-3.901l-1.512 8.645h-3.795l4.323-24.601h7.696c4.393 0 6.888 2.39 6.888 6.783 0 5.342-4.041 9.173-9.699 9.173zm2.214-12.582h-3.901l-1.617 9.208h3.901c3.022 0 5.131-2.39 5.131-5.764 0-2.214-1.23-3.444-3.514-3.444z"/><path d="m460.239 766.612c0 2.846 1.23 4.287 3.55 4.287 3.374 0 5.764-3.655 5.764-8.259 0-2.811-1.231-4.252-3.55-4.252-3.374 0-5.764 3.62-5.764 8.224zm-3.76.281c0-6.221 3.725-11.563 10.051-11.563 4.604 0 6.783 2.777 6.783 7.064 0 6.186-3.725 11.563-10.051 11.563-4.428 0-6.783-2.39-6.783-7.064z"/><path d="m482.647 770.548.351 2.882c-1.194.421-2.108.527-3.057.527-2.53 0-3.831-1.09-3.831-3.48 0-.456.035-.948.141-1.511l3.69-21.016 3.795-.703-3.83 21.719c-.035.246-.071.457-.071.668 0 .879.422 1.265 1.231 1.265.562 0 .913-.105 1.581-.351z"/><path d="m495.452 758.388c-2.566 0-4.639 2.108-5.448 4.85 6.748 0 8.048-1.406 8.048-2.952 0-1.23-1.089-1.898-2.6-1.898zm-2.742 15.569c-4.604 0-6.853-2.777-6.853-7.064 0-6.221 3.69-11.563 10.016-11.563 3.444 0 5.869 1.652 5.869 4.674 0 3.691-3.198 6.256-12.195 6.256 0 2.847.879 4.639 4.042 4.639 1.511 0 2.776-.457 4.252-1.16l1.055 2.742c-1.898.984-3.866 1.476-6.186 1.476z"/><path d="m510.98 763.062c2.179.879 4.709 2.249 4.709 4.99 0 3.62-3.304 5.905-7.697 5.905-2.179 0-4.182-.492-5.728-1.266l1.687-2.811c1.23.633 2.741 1.019 4.463 1.019 1.582 0 3.585-.773 3.585-2.565 0-1.512-1.582-2.074-3.304-2.707-1.792-.667-4.182-2.143-4.182-4.99 0-3.55 3.022-5.307 6.959-5.307 2.003 0 4.041.422 5.693 1.23l-1.652 2.742c-1.335-.528-2.706-.914-4.217-.914-1.652 0-3.093.703-3.093 2.144 0 1.405 1.582 2.038 2.777 2.53z"/><path d="m516.654 780.634 1.441-2.847c.492.246 1.124.492 1.862.492.809 0 1.687-.421 2.496-2.073l1.265-2.601h-1.23l-3.163-17.923h3.549l2.39 14.163h.141l6.923-14.163h3.866l-10.649 21.367c-1.722 3.445-3.971 4.288-5.904 4.288-1.265 0-2.284-.387-2.987-.703z"/><path d="m545.285 758.388c-2.566 0-4.639 2.108-5.447 4.85 6.747 0 8.048-1.406 8.048-2.952 0-1.23-1.09-1.898-2.601-1.898zm-2.741 15.569c-4.604 0-6.853-2.777-6.853-7.064 0-6.221 3.69-11.563 10.016-11.563 3.444 0 5.869 1.652 5.869 4.674 0 3.691-3.198 6.256-12.195 6.256 0 2.847.878 4.639 4.041 4.639 1.512 0 2.777-.457 4.253-1.16l1.054 2.742c-1.898.984-3.866 1.476-6.185 1.476z"/></g><g fill="#fff" opacity=".6"><path d="m446.425 913.158h-3.901l-1.512 8.646h-3.795l4.323-24.601h7.696c4.393 0 6.888 2.39 6.888 6.783 0 5.342-4.041 9.172-9.699 9.172zm2.214-12.581h-3.901l-1.617 9.208h3.901c3.022 0 5.131-2.39 5.131-5.764 0-2.214-1.23-3.444-3.514-3.444z"/><path d="m460.926 903.88.808-4.393 3.76-.702-.913 5.095h5.412l-1.23 3.058h-4.709l-1.723 9.735c-.035.246-.07.457-.07.668 0 1.3.844 1.757 2.039 1.757.878 0 1.616-.141 2.635-.492l.352 2.917c-1.371.422-2.671.632-3.936.632-2.812 0-4.78-1.089-4.78-4.111 0-.457.035-.985.141-1.547l1.687-9.559h-3.058l.527-3.058z"/><path d="m473.613 906.938h-3.269l1.23-3.058h6.221l-3.128 17.924h-3.655zm1.054-8.259c0-1.23.984-2.214 2.214-2.214s2.249.984 2.249 2.214-1.019 2.179-2.249 2.179-2.214-.949-2.214-2.179z"/><path d="m483.955 903.88.808-4.393 3.761-.702-.914 5.095h5.412l-1.23 3.058h-4.709l-1.722 9.735c-.036.246-.071.457-.071.668 0 1.3.844 1.757 2.039 1.757.878 0 1.616-.141 2.635-.492l.352 2.917c-1.371.422-2.671.632-3.936.632-2.812 0-4.78-1.089-4.78-4.111 0-.457.035-.985.141-1.547l1.687-9.559h-3.058l.527-3.058z"/><path d="m500.683 911.261c2.179.878 4.71 2.249 4.71 4.99 0 3.62-3.304 5.904-7.697 5.904-2.179 0-4.182-.492-5.728-1.265l1.687-2.811c1.23.632 2.741 1.019 4.463 1.019 1.581 0 3.585-.773 3.585-2.566 0-1.511-1.582-2.073-3.304-2.706-1.792-.668-4.182-2.144-4.182-4.99 0-3.55 3.022-5.307 6.958-5.307 2.004 0 4.042.422 5.694 1.23l-1.652 2.741c-1.335-.527-2.706-.913-4.217-.913-1.652 0-3.093.702-3.093 2.143 0 1.406 1.582 2.039 2.776 2.531z"/><path d="m518.412 906.587c-2.566 0-4.639 2.108-5.447 4.849 6.747 0 8.048-1.405 8.048-2.952 0-1.23-1.09-1.897-2.601-1.897zm-2.741 15.568c-4.604 0-6.853-2.776-6.853-7.064 0-6.22 3.69-11.562 10.016-11.562 3.444 0 5.869 1.652 5.869 4.674 0 3.69-3.198 6.256-12.195 6.256 0 2.847.878 4.639 4.041 4.639 1.512 0 2.777-.457 4.253-1.16l1.054 2.741c-1.898.984-3.866 1.476-6.185 1.476z"/><path d="m534.467 903.88h4.393l-1.23 3.058h-3.69l-2.987 17.045c-.738 4.112-3.163 5.553-6.115 5.553-1.406 0-2.917-.492-4.007-1.09l1.441-2.741c.879.457 1.652.773 2.636.773 1.23 0 2.109-.668 2.425-2.495l2.987-17.045h-2.987l.527-3.058h2.987l.422-2.354c.773-4.288 3.374-6.08 6.783-6.08 1.792 0 2.776.316 4.041.984l-1.686 2.706c-.633-.351-1.441-.633-2.461-.633-1.581 0-2.706.984-3.057 3.023z"/><path d="m547.926 906.587c-3.374 0-5.764 3.619-5.764 8.223 0 2.671.914 4.288 2.952 4.288 1.723 0 3.128-.949 4.429-2.566l1.616-9.313c-.949-.351-1.968-.632-3.233-.632zm.527-3.058c2.671 0 4.78.597 6.783 1.335l-2.987 16.94h-2.425l-.387-1.898h-.14c-1.476 1.406-3.128 2.249-5.342 2.249-3.866 0-5.553-2.776-5.553-7.064 0-6.22 3.725-11.562 10.051-11.562z"/><path d="m570.662 910.839c0-2.812-1.159-4.252-3.303-4.252-1.441 0-3.304 1.159-4.499 2.495l-1.651 9.348c1.195.457 2.319.668 3.69.668 3.374 0 5.763-3.655 5.763-8.259zm3.761-.246c0 6.185-3.725 11.562-10.157 11.562-2.46 0-4.639-.421-7.099-1.405l4.323-24.601 3.795-.703-1.827 10.332h.14c1.617-1.546 3.304-2.249 5.061-2.249 3.901 0 5.764 2.776 5.764 7.064z"/><path d="m590.116 903.88-1.792 3.409c-.457-.21-.879-.351-1.757-.351-2.003 0-3.62 2.003-4.393 4.393l-1.828 10.473h-3.655l3.128-17.924h2.601l.211 2.777h.14c1.23-1.828 2.636-3.128 5.131-3.128.844 0 1.512.141 2.214.351z"/><path d="m593.22 906.938h-3.269l1.23-3.058h6.221l-3.128 17.924h-3.655zm1.054-8.259c0-1.23.984-2.214 2.214-2.214s2.249.984 2.249 2.214-1.019 2.179-2.249 2.179-2.214-.949-2.214-2.179z"/><path d="m606.69 911.085 6.08-7.205h3.795l-7.24 8.822c.774 3.549 2.707 6.466 5.026 9.102l-3.971.351c-1.933-2.425-3.269-4.99-4.077-8.083h-2.003l-1.371 7.732h-3.655l4.499-25.655 3.795-.703-2.741 15.639z"/><path d="m625.731 906.587c-3.374 0-5.764 3.619-5.764 8.223 0 2.671.914 4.288 2.952 4.288 1.722 0 3.128-.949 4.428-2.566l1.617-9.313c-.949-.351-1.968-.632-3.233-.632zm.527-3.058c2.671 0 4.779.597 6.783 1.335l-2.988 16.94h-2.425l-.386-1.898h-.141c-1.476 1.406-3.128 2.249-5.342 2.249-3.865 0-5.552-2.776-5.552-7.064 0-6.22 3.725-11.562 10.051-11.562z"/></g><g fill="#fff" opacity=".6"><path d="m443.613 1051.66c0 2.18 2.179 3.26 3.936 4.07 2.706 1.23 6.01 3.34 6.01 7 0 4.95-3.761 7.62-9.665 7.62-3.128 0-5.412-.77-7.556-2.18l1.863-3.09c1.792 1.2 3.69 1.9 6.29 1.9 3.128 0 5.272-1.27 5.272-3.9 0-2.15-1.828-3.16-4.358-4.32-2.636-1.2-5.588-3.1-5.588-6.68 0-4.57 3.198-7.03 8.681-7.03 2.846 0 5.131.6 6.993 1.9l-2.143 2.91c-1.512-.87-3.269-1.44-5.448-1.44-2.6 0-4.287 1.2-4.287 3.24z"/><path d="m459.964 1063.01c0 2.84 1.23 4.29 3.55 4.29 3.374 0 5.764-3.66 5.764-8.26 0-2.81-1.23-4.26-3.55-4.26-3.374 0-5.764 3.62-5.764 8.23zm-3.76.28c0-6.22 3.725-11.56 10.051-11.56 4.604 0 6.783 2.77 6.783 7.06 0 6.19-3.725 11.56-10.051 11.56-4.428 0-6.783-2.39-6.783-7.06z"/><path d="m483.145 1059.46c2.179.88 4.71 2.25 4.71 4.99 0 3.62-3.304 5.9-7.697 5.9-2.179 0-4.182-.49-5.728-1.26l1.686-2.81c1.231.63 2.742 1.02 4.464 1.02 1.581 0 3.585-.78 3.585-2.57 0-1.51-1.582-2.07-3.304-2.71-1.792-.66-4.182-2.14-4.182-4.99 0-3.55 3.022-5.3 6.958-5.3 2.004 0 4.042.42 5.694 1.23l-1.652 2.74c-1.336-.53-2.706-.92-4.217-.92-1.652 0-3.093.71-3.093 2.15 0 1.4 1.581 2.04 2.776 2.53z"/><path d="m496.621 1057.28-2.214 12.72h-3.655l3.128-17.92h2.601l.386 1.9h.141c1.757-1.59 3.409-2.25 5.412-2.25 3.304 0 4.85 1.61 4.85 4.81 0 .67-.07 1.51-.211 2.32l-1.968 11.14h-3.655l1.933-10.89c.106-.57.141-1.16.141-1.62 0-1.86-.809-2.71-2.495-2.71-1.406 0-3.199 1.16-4.394 2.5z"/><path d="m513.848 1063.01c0 2.84 1.23 4.29 3.549 4.29 3.374 0 5.764-3.66 5.764-8.26 0-2.81-1.23-4.26-3.55-4.26-3.374 0-5.763 3.62-5.763 8.23zm-3.761.28c0-6.22 3.725-11.56 10.051-11.56 4.604 0 6.783 2.77 6.783 7.06 0 6.19-3.725 11.56-10.051 11.56-4.428 0-6.783-2.39-6.783-7.06z"/><path d="m532.472 1070-2.917-17.92h3.515l2.073 13.84h.106l6.888-13.84h3.62l-9.173 17.92z"/><path d="m543.286 1077.03 1.441-2.85c.492.25 1.125.5 1.863.5.808 0 1.687-.43 2.495-2.08l1.265-2.6h-1.23l-3.163-17.92h3.55l2.389 14.16h.141l6.923-14.16h3.866l-10.648 21.37c-1.722 3.44-3.972 4.28-5.905 4.28-1.265 0-2.284-.38-2.987-.7z"/><path d="m584.76 1057.1v.14c2.46.6 4.111 2.18 4.111 4.75 0 5.41-4.603 8.01-9.91 8.01h-7.345l4.322-24.6h7.346c4.147 0 6.747 1.51 6.747 4.85 0 3.44-2.354 6.01-5.271 6.85zm-4.112 1.87h-3.304l-1.37 7.66h3.338c3.339 0 5.623-1.86 5.623-4.68 0-1.93-1.581-2.98-4.287-2.98zm1.652-10.2h-3.163l-1.231 6.96h3.163c2.355 0 4.85-1.72 4.85-4.32 0-1.76-1.23-2.64-3.619-2.64z"/><path d="m595.359 1063.01c0 2.84 1.23 4.29 3.549 4.29 3.374 0 5.764-3.66 5.764-8.26 0-2.81-1.23-4.26-3.549-4.26-3.374 0-5.764 3.62-5.764 8.23zm-3.761.28c0-6.22 3.726-11.56 10.052-11.56 4.604 0 6.783 2.77 6.783 7.06 0 6.19-3.726 11.56-10.052 11.56-4.428 0-6.783-2.39-6.783-7.06z"/><path d="m624.128 1052.08-1.793 3.41c-.456-.21-.878-.35-1.757-.35-2.003 0-3.62 2-4.393 4.39l-1.827 10.47h-3.655l3.127-17.92h2.601l.211 2.77h.141c1.23-1.82 2.635-3.12 5.131-3.12.843 0 1.511.14 2.214.35z"/></g><g fill="#fff" opacity=".6"><path d="m451.134 1218.2h-13.917l4.323-24.6h13.917l-1.301 3.37h-9.418l-1.195 6.86h8.364l-.597 3.37h-8.365l-1.37 7.63h10.121z"/><path d="m462.329 1215.14.352 2.89c-1.195.42-2.109.52-3.058.52-2.53 0-3.831-1.09-3.831-3.48 0-.45.036-.95.141-1.51l3.69-21.01 3.796-.71-3.831 21.72c-.035.25-.07.46-.07.67 0 .88.421 1.27 1.23 1.27.562 0 .914-.11 1.581-.36z"/><path d="m468.808 1203.34h-3.269l1.231-3.06h6.22l-3.128 17.92h-3.655zm1.054-8.26c0-1.23.984-2.22 2.214-2.22s2.25.99 2.25 2.22-1.02 2.18-2.25 2.18-2.214-.95-2.214-2.18z"/><path d="m476.76 1203.34.527-3.06h13.179l-.492 2.84-11.316 11.88v.14h9.559l-1.23 3.06h-13.355l.492-2.85 11.352-11.87v-.14z"/><path d="m501.387 1202.98c-3.373 0-5.763 3.62-5.763 8.23 0 2.67.913 4.29 2.952 4.29 1.722 0 3.128-.95 4.428-2.57l1.617-9.31c-.949-.35-1.968-.64-3.234-.64zm.528-3.05c2.671 0 4.779.59 6.782 1.33l-2.987 16.94h-2.425l-.386-1.9h-.141c-1.476 1.41-3.128 2.25-5.342 2.25-3.866 0-5.553-2.77-5.553-7.06 0-6.22 3.726-11.56 10.052-11.56z"/><path d="m514.248 1218.2-2.917-17.92h3.515l2.073 13.84h.106l6.888-13.84h3.62l-9.173 17.92z"/><path d="m536.602 1202.98c-2.566 0-4.639 2.11-5.447 4.85 6.747 0 8.048-1.4 8.048-2.95 0-1.23-1.09-1.9-2.601-1.9zm-2.741 15.57c-4.604 0-6.853-2.77-6.853-7.06 0-6.22 3.69-11.56 10.016-11.56 3.444 0 5.869 1.65 5.869 4.67 0 3.69-3.198 6.26-12.195 6.26 0 2.84.878 4.64 4.041 4.64 1.511 0 2.777-.46 4.253-1.16l1.054 2.74c-1.898.98-3.866 1.47-6.185 1.47z"/><path d="m548.58 1200.28.809-4.4 3.76-.7-.914 5.1h5.413l-1.231 3.06h-4.709l-1.722 9.73c-.035.25-.07.46-.07.67 0 1.3.843 1.76 2.038 1.76.879 0 1.617-.15 2.636-.5l.351 2.92c-1.37.42-2.671.63-3.936.63-2.811 0-4.779-1.09-4.779-4.11 0-.46.035-.98.14-1.55l1.687-9.55h-3.057l.527-3.06z"/></g></g></svg>