<svg clip-rule="evenodd" fill-rule="evenodd" stroke-linejoin="round" stroke-miterlimit="2" viewBox="0 0 1920 1920" xmlns="http://www.w3.org/2000/svg"><path d="m0 0h1920v1920h-1920z"/><g fill-rule="nonzero"><path d="m298.619 932.081c80.672-40.017 158.9-117.51 158.9-199.353 0-82.662-59.486-126.788-167.864-119.208-60.3 4.218-113.267 16.107-180.901 51.938l47.262 93.269c39.929-21.617 83.117-37.732 127.935-40.867 35.04-2.451 54.597 12.55 54.597 39.558 0 76.114-122.231 139.498-239.573 199.267v95.755l358.544-25.08 16.298-105.078-175.198 12.254z" fill="#ffd400"/><path d="m950.517 784.18c0-145.68-85.562-210.899-207.792-202.35-122.231 8.55-207.793 85.738-207.793 231.418 0 145.681 86.377 210.842 207.793 202.352s207.792-85.739 207.792-231.42zm-296.614 20.747c0-74.477 40.744-115.793 88.007-119.099 48.892-3.42 89.636 32.196 89.636 106.674 0 74.477-40.744 115.793-89.636 119.212-47.263 3.306-88.007-32.31-88.007-106.787z" fill="#ffd400"/><path d="m1211.28 868.245c80.67-40.017 158.9-117.51 158.9-199.353 0-82.662-59.49-126.788-167.87-119.208-60.3 4.218-113.26 16.107-180.9 51.938l47.26 93.269c39.93-21.617 83.12-37.732 127.94-40.867 35.04-2.451 54.59 12.55 54.59 39.558 0 76.114-122.23 139.498-239.57 199.267v95.756l358.55-25.079 16.29-105.08-175.19 12.254z" fill="#ffd400"/><path d="m1667.61 836.327c80.67-40.017 158.9-117.51 158.9-199.353 0-82.662-59.49-126.788-167.87-119.208-60.3 4.218-113.27 16.107-180.9 51.938l47.26 93.269c39.93-21.617 83.12-37.732 127.94-40.867 35.04-2.451 54.59 12.55 54.59 39.558 0 76.114-122.23 139.498-239.57 199.267v95.756l358.55-25.079 16.29-105.08-175.19 12.254z" fill="#ffd400"/><path d="m294.774 928.236c80.672-40.017 158.9-117.51 158.9-199.353 0-82.662-59.486-126.788-167.864-119.208-60.3 4.218-113.267 16.107-180.902 51.938l47.263 93.269c39.929-21.617 83.117-37.733 127.935-40.867 35.04-2.451 54.597 12.549 54.597 39.558 0 76.114-122.231 139.498-239.573 199.266v95.761l358.544-25.08 16.297-105.083-175.197 12.254z"/><path d="m946.672 780.335c0-145.681-85.562-210.899-207.793-202.35s-207.792 85.737-207.792 231.418 86.376 210.847 207.792 202.347c121.416-8.49 207.793-85.735 207.793-231.415zm-296.614 20.747c0-74.478 40.744-115.794 88.006-119.099 48.893-3.42 89.636 32.196 89.636 106.673s-40.743 115.793-89.636 119.213c-47.262 3.306-88.006-32.31-88.006-106.787z"/><path d="m1207.43 864.4c80.67-40.017 158.9-117.511 158.9-199.354 0-82.661-59.48-126.788-167.86-119.207-60.3 4.218-113.27 16.107-180.9 51.938l47.26 93.269c39.93-21.617 83.11-37.733 127.93-40.867 35.04-2.451 54.6 12.549 54.6 39.558 0 76.113-122.23 139.498-239.57 199.266v95.757l358.54-25.079 16.3-105.08-175.2 12.254z"/><path d="m1663.76 832.482c80.67-40.017 158.9-117.511 158.9-199.354 0-82.661-59.49-126.788-167.86-119.207-60.3 4.218-113.27 16.107-180.91 51.938l47.27 93.269c39.93-21.617 83.11-37.733 127.93-40.868 35.04-2.45 54.6 12.55 54.6 39.558 0 76.114-122.23 139.499-239.57 199.267v95.757l358.54-25.079 16.3-105.08-175.2 12.254z"/><g fill="#ffd400"><path d="m273.625 907.087c80.672-40.017 158.9-117.51 158.9-199.353 0-82.662-59.486-126.788-167.864-119.208-60.3 4.218-113.267 16.107-180.901 51.938l47.262 93.269c39.929-21.617 83.117-37.733 127.935-40.867 35.04-2.451 54.597 12.55 54.597 39.558 0 76.114-122.231 139.498-239.573 199.267v95.759l358.544-25.08 16.297-105.082-175.197 12.254z"/><path d="m925.523 759.186c0-145.681-85.562-210.899-207.793-202.35-122.231 8.55-207.792 85.738-207.792 231.418 0 145.681 86.376 210.842 207.792 202.35 121.416-8.493 207.793-85.738 207.793-231.418zm-296.614 20.747c0-74.478 40.744-115.794 88.006-119.099 48.893-3.42 89.636 32.196 89.636 106.673s-40.743 115.793-89.636 119.213c-47.262 3.306-88.006-32.31-88.006-106.787z"/><path d="m1186.28 843.251c80.67-40.017 158.9-117.511 158.9-199.353 0-82.662-59.48-126.789-167.86-119.208-60.3 4.218-113.27 16.107-180.903 51.938l47.263 93.269c39.93-21.617 83.12-37.733 127.93-40.867 35.04-2.451 54.6 12.549 54.6 39.558 0 76.114-122.23 139.498-239.572 199.266v95.757l358.542-25.079 16.3-105.08-175.2 12.254z"/><path d="m1642.61 811.333c80.67-40.017 158.9-117.511 158.9-199.354 0-82.661-59.48-126.788-167.86-119.207-60.3 4.218-113.27 16.107-180.9 51.938l47.26 93.269c39.93-21.617 83.11-37.733 127.93-40.867 35.04-2.451 54.6 12.549 54.6 39.558 0 76.114-122.23 139.498-239.57 199.266v95.757l358.54-25.079 16.3-105.08-175.2 12.254z"/><path d="m128.377 1325.9c37.065-2.59 61.357-27.69 61.357-70.98s-24.292-64.99-61.357-62.4-61.357 27.7-61.357 70.98c0 43.29 24.292 65 61.357 62.4zm0-101.42c15.026-1.05 24.793 9.59 24.793 33 0 23.4-9.767 35.41-24.793 36.46s-24.793-9.59-24.793-32.99c0-23.41 9.767-35.42 24.793-36.47z"/><path d="m200.896 1221.93 38.067-2.67v96.39l35.812-2.5v-96.39l34.31-2.4 5.009-32.31-113.198 7.91z"/><path d="m428.795 1302.37v-128.34l-36.063 2.52v51.84c-5.76 2.17-11.52 3.32-18.032 3.78-8.515.59-13.273-3.6-13.273-11.91v-41.52l-36.063 2.52v41.52c0 32.47 20.035 43.4 45.329 41.63 6.512-.46 15.026-2.31 22.039-4.56v45.05z"/><path d="m458.847 1134.42c0 11.58 8.265 19.56 19.785 18.75 11.52-.8 19.784-9.94 19.784-21.51 0-11.58-8.264-19.81-19.784-19-11.52.8-19.785 10.19-19.785 21.76zm50.589-3.53c0 11.57 8.264 19.55 19.784 18.75 11.52-.81 19.785-9.94 19.785-21.52s-8.265-19.81-19.785-19c-11.52.8-19.784 10.19-19.784 21.77zm47.833 111.91c2.004-8.69 2.755-18.31 2.755-27.62 0-31.21-20.035-51.45-54.846-49.01-37.065 2.59-60.355 27.62-60.355 70.91 0 43.28 28.049 64.73 65.114 62.13 16.278-1.13 33.057-6.84 45.329-13.99l-13.023-28.03c-8.264 4.86-20.035 9.2-29.802 9.89-14.525 1.01-26.046-5.73-30.053-19.04zm-75.632-22.64c2.254-13.5 11.52-21.19 24.042-22.07 14.025-.98 21.538 6.55 21.538 18.88z"/><path d="m564.031 1196.53 38.067-2.66v96.38l35.812-2.5v-96.39l34.31-2.4 5.009-32.31-113.198 7.92z"/><path d="m814.97 1277.88c37.065-2.59 61.357-27.7 61.357-70.98 0-43.29-24.292-65-61.357-62.4-37.065 2.59-61.357 27.69-61.357 70.98s24.292 64.99 61.357 62.4zm0-101.42c15.026-1.05 24.793 9.59 24.793 32.99 0 23.41-9.767 35.42-24.793 36.47s-24.793-9.59-24.793-33c0-23.4 9.767-35.41 24.793-36.46z"/><path d="m1000.04 1144.39-5.005-9.97-26.046 1.82v183.71l36.061-7.55v-51.84c7.27 1.75 15.28 2.96 23.79 2.36 38.07-2.66 57.6-32.47 57.6-70.72s-18.03-65.43-54.09-62.91c-13.52.95-23.29 7.42-31.3 15.03zm25.8 86.78c-7.76.54-14.53-.5-20.79-3.33v-55.36c5.76-6.7 13.03-10.23 19.79-10.7 15.77-1.1 25.04 12.59 25.04 32.98 0 21.89-10.27 35.44-24.04 36.41z"/><path d="m1177.85 1240.16c4.51 6.23 11.02 10.31 24.05 9.4 7.01-.49 16.02-3.64 20.28-6.71v-26.67l-2.75.19c-5.51.39-9.02-2.14-9.02-8.43v-43.79c0-26.68-11.77-46.49-50.84-43.76-16.03 1.13-31.8 4.74-47.58 11.64l11.02 29.17c10.77-4.78 23.29-7.92 33.56-8.63 12.02-.84 17.78 4.54 17.78 13.6v7.55l-21.79 1.52c-28.3 1.98-47.33 17.66-47.33 42.07 0 26.17 17.78 37.76 42.07 36.07 13.02-.92 22.79-6.63 29.55-13.14zm-39.31-25.68c0-6.8 5.51-11.96 14.02-12.56l21.79-1.52v13.08c-6.26 5.98-15.03 9.86-23.04 10.42-7.51.53-12.77-2.88-12.77-9.42z"/><path d="m1272.52 1132.12c1-26.49 12.77-33.86 33.81-37.59 17.28-2.97 35.31-7.26 50.34-15.86l-11.27-29.16c-13.03 6.2-23.54 9.2-42.33 12.28-41.32 6.66-64.61 23.14-64.61 104.17 0 51.34 20.04 80.9 61.36 78.01 35.56-2.49 62.86-26.04 62.86-67.82 0-42.78-22.54-62.09-52.84-59.98-14.78 1.04-26.3 6.38-36.57 16.15zm30.3 16.51c12.53-.88 23.29 8.94 23.29 30.08s-12.27 32.31-26.29 33.3c-15.78 1.1-25.05-14.61-25.3-47.06 7.52-9.84 18.04-15.6 28.3-16.32z"/><path d="m1445.32 1233.79c37.07-2.59 61.36-27.7 61.36-70.98 0-43.29-24.29-64.99-61.36-62.4-37.06 2.59-61.36 27.69-61.36 70.98 0 43.28 24.3 64.99 61.36 62.4zm0-101.42c15.03-1.05 24.8 9.59 24.8 32.99 0 23.41-9.77 35.42-24.8 36.47-15.02 1.05-24.79-9.59-24.79-33 0-23.4 9.77-35.41 24.79-36.46z"/><path d="m1517.84 1129.81 38.07-2.66v96.39l35.81-2.51v-96.39l34.31-2.39 5.01-32.32-113.2 7.92z"/><path d="m1750.68 1159.33c2-8.7 2.75-18.31 2.75-27.62 0-31.21-20.04-51.45-54.85-49.02-37.06 2.6-60.35 27.63-60.35 70.92 0 43.28 28.05 64.72 65.11 62.13 16.28-1.14 33.06-6.84 45.33-13.99l-13.02-28.03c-8.27 4.86-20.04 9.2-29.8 9.89-14.53 1.01-26.05-5.73-30.05-19.04zm-75.64-22.65c2.26-13.49 11.52-21.18 24.05-22.06 14.02-.98 21.53 6.54 21.53 18.88z"/></g></g></svg>