<svg fill="none" height="2001" viewBox="0 0 2001 2001" width="2001" xmlns="http://www.w3.org/2000/svg" xmlns:xlink="http://www.w3.org/1999/xlink"><clipPath id="a"><path d="m.893555.9021h2000v2000h-2000z"/></clipPath><g clip-path="url(#a)"><g clip-rule="evenodd" fill-rule="evenodd"><path d="m.893555.901855h2000.006445v1999.998145h-2000.006445z" fill="#000"/><path d="m695.344 370.65h79.612c3.515.011 6.884 1.43 9.369 3.949 2.486 2.519 3.887 5.932 3.897 9.494 0 35.743.199 73.524.199 107.566h-17.975v-8.964h-70.195v8.964h-17.977c0-34.142-.196-71.745-.196-107.566.01-3.562 1.411-6.975 3.897-9.494 2.485-2.519 5.854-3.938 9.369-3.949zm99.544 40.336h12.729v31.372h-12.729zm-131.809 0h12.729v31.372h-12.729zm36.688 44.818c1.75 0 3.46.526 4.915 1.51 1.454.985 2.588 2.385 3.258 4.023.669 1.638.844 3.441.503 5.179-.342 1.739-1.184 3.336-2.421 4.59-1.237 1.253-2.814 2.107-4.529 2.453-1.716.346-3.495.168-5.111-.51-1.616-.679-2.998-1.828-3.97-3.302-.971-1.474-1.49-3.207-1.49-4.98 0-2.377.932-4.657 2.591-6.338s3.909-2.625 6.254-2.625zm-4.422-72.471h79.61v14.969h-79.61zm0 27.652h79.61v35.856h-79.61zm75.187 44.819c1.75 0 3.46.526 4.915 1.51 1.454.985 2.588 2.385 3.258 4.023.669 1.638.844 3.441.503 5.179-.342 1.739-1.184 3.336-2.421 4.59-1.237 1.253-2.814 2.107-4.529 2.453-1.716.346-3.495.168-5.111-.51-1.616-.679-2.998-1.828-3.97-3.302s-1.49-3.207-1.49-4.98c0-2.377.932-4.657 2.591-6.338s3.909-2.625 6.254-2.625z" fill="#00a0e3"/><path d="m710.139 354.965 18.494-17.928 9.247 8.963-18.495 17.928zm32.763 0 18.494-17.928 9.247 8.963-18.494 17.928z" fill="#00a0e3"/><path d="m162.237 444.6h80.674c3.563.01 6.976 1.395 9.495 3.851s3.939 5.784 3.95 9.257v30.59h-18.216v-8.74h-71.131v8.74h-18.216c0-10.562.001-19.507.001-30.59.01-3.473 1.43-6.801 3.949-9.257s5.932-3.841 9.494-3.851zm4.483 8.739c1.773 0 3.506.512 4.98 1.473 1.474.96 2.623 2.325 3.301 3.922s.856 3.354.51 5.05c-.346 1.695-1.2 3.252-2.453 4.474-1.254 1.223-2.851 2.055-4.59 2.392s-3.541.164-5.179-.497c-1.638-.662-3.037-1.782-4.022-3.22-.985-1.437-1.511-3.127-1.511-4.855 0-1.148.232-2.284.683-3.345.45-1.06 1.11-2.023 1.943-2.835.832-.811 1.82-1.455 2.908-1.894 1.087-.439 2.253-.665 3.43-.665zm71.709 0c1.773 0 3.506.512 4.98 1.473 1.474.96 2.623 2.325 3.302 3.922.678 1.597.855 3.354.509 5.05-.345 1.695-1.199 3.252-2.453 4.474-1.253 1.223-2.851 2.055-4.589 2.392-1.739.337-3.541.164-5.179-.497-1.638-.662-3.038-1.782-4.023-3.22-.985-1.437-1.51-3.127-1.51-4.855 0-1.148.232-2.284.682-3.345.451-1.06 1.111-2.023 1.943-2.835.833-.811 1.821-1.455 2.908-1.894 1.088-.439 2.253-.665 3.43-.665z" fill="#fecc00"/><path d="m212.658 374.012h-16.806v-16.807h16.806z" fill="#fecc00"/><path d="m175.684 374.012h16.806v16.807h-16.806z" fill="#fecc00"/><path d="m175.684 374.012h-16.807v-16.807h16.807z" fill="#fecc00"/><path d="m212.659 374.012h16.807v16.807h-16.807z" fill="#fecc00"/><path d="m246.272 374.012h-16.807v-16.807h16.807z" fill="#fecc00"/></g><path d="m148.793 428.218h14.008c6.817-8.05 13.74-17.231 24.422-17.231h30.321c10.681 0 17.987 9.181 24.804 17.231h14.008v13.021h-20.447c-5.131-6.839-10.71-16.449-19.889-16.449h-26.51c-9.179 0-15.14 9.608-20.27 16.449h-20.447z" fill="#fecc00"/><path clip-rule="evenodd" d="m1311.15 363.927h-86.05c-2.87.05-5.61 1.233-7.62 3.294s-3.14 4.835-3.14 7.727v84.002l5.38 11.783c3.55 7.784 7.53 10.842 13.44 10.842h69.92c5.91 0 9.89-3.056 13.45-10.842l5.37-11.783v-84.002c0-2.892-1.13-5.667-3.14-7.728s-4.74-3.244-7.61-3.293zm-49.76 27.15v31.674h-33.76v-31.674zm13.47 31.674v-31.674h33.58v31.674zm-6.84-54.282c-1.78 0-3.51.53-4.98 1.523-1.48.992-2.62 2.403-3.3 4.054s-.86 3.467-.51 5.219c.34 1.753 1.2 3.363 2.45 4.626 1.25 1.264 2.85 2.124 4.59 2.473 1.74.348 3.54.169 5.18-.515 1.64-.683 3.03-1.841 4.02-3.327.98-1.486 1.51-3.232 1.51-5.019 0-2.396-.94-4.694-2.63-6.388-1.68-1.694-3.96-2.646-6.33-2.646zm26.53 80.155c-1.6 0-3.16.476-4.48 1.37-1.33.893-2.36 2.163-2.97 3.649s-.77 3.121-.46 4.698 1.08 3.026 2.21 4.163c1.12 1.137 2.56 1.911 4.13 2.225 1.56.314 3.18.153 4.66-.463 1.47-.615 2.73-1.657 3.62-2.994.88-1.337 1.36-2.909 1.36-4.518 0-2.156-.85-4.224-2.37-5.749-1.51-1.525-3.56-2.381-5.7-2.381zm-53.45 0c-1.6 0-3.16.477-4.48 1.37-1.33.894-2.37 2.164-2.98 3.649-.61 1.486-.77 3.121-.45 4.698.31 1.577 1.08 3.026 2.2 4.163 1.13 1.137 2.57 1.912 4.13 2.225 1.57.314 3.19.153 4.66-.463 1.48-.615 2.74-1.657 3.63-2.994.88-1.337 1.35-2.909 1.35-4.518 0-1.067-.2-2.125-.61-3.111-.41-.987-1-1.883-1.75-2.638s-1.64-1.354-2.62-1.763c-.97-.408-2.02-.619-3.08-.618z" fill="#e31e24" fill-rule="evenodd"/><path clip-rule="evenodd" d="m1308.46 340.398h-80.67v13.446h80.67z" fill="#e31e24" fill-rule="evenodd"/><path clip-rule="evenodd" d="m1311.82 502.865-17.93-17.929-8.96 8.964 17.93 17.927z" fill="#e31e24" fill-rule="evenodd"/><path clip-rule="evenodd" d="m1224.42 502.865 17.93-17.929 8.97 8.964-17.93 17.927z" fill="#e31e24" fill-rule="evenodd"/><path clip-rule="evenodd" d="m1281.57 495.02h-26.89v13.446h26.89z" fill="#e31e24" fill-rule="evenodd"/><path clip-rule="evenodd" d="m429.799 370.65h79.611c3.515.011 6.884 1.43 9.37 3.949 2.485 2.519 3.886 5.932 3.897 9.494 0 35.743.199 73.524.199 107.566h-17.977v-8.964h-70.194v8.964h-17.976c0-34.142-.197-71.745-.197-107.566.01-3.562 1.411-6.975 3.897-9.494s5.855-3.938 9.37-3.949zm99.543 40.336h12.729v31.372h-12.729zm-131.809 0h12.73v31.372h-12.73zm36.688 44.818c1.75 0 3.46.525 4.915 1.51s2.588 2.385 3.258 4.023.845 3.44.503 5.179c-.341 1.739-1.183 3.336-2.42 4.59-1.237 1.253-2.814 2.107-4.53 2.453-1.715.346-3.494.168-5.11-.51-1.617-.679-2.998-1.828-3.97-3.302s-1.49-3.207-1.49-4.98c0-2.377.932-4.657 2.59-6.338 1.659-1.681 3.909-2.625 6.254-2.625zm-4.422-72.471h79.611v14.969h-79.611zm0 27.652h79.611v35.856h-79.611zm75.188 44.819c1.749 0 3.459.526 4.914 1.51 1.455.985 2.588 2.385 3.258 4.023.669 1.638.844 3.441.503 5.179-.341 1.739-1.184 3.336-2.421 4.59-1.237 1.253-2.813 2.107-4.529 2.453s-3.494.168-5.111-.51c-1.616-.679-2.997-1.828-3.969-3.302s-1.491-3.207-1.491-4.98c.001-2.377.933-4.657 2.591-6.338 1.659-1.681 3.909-2.625 6.255-2.625z" fill="#21a73f" fill-rule="evenodd"/><path clip-rule="evenodd" d="m957.729 368.487h79.611c3.52.01 6.88 1.433 9.37 3.958s3.89 5.947 3.9 9.518v58.407l-4.43 22.467c-1.43 7.267-5.97 13.476-13.26 13.476h-70.768c-7.295 0-11.836-6.208-13.266-13.476l-4.423-22.467v-58.407c.01-3.571 1.411-6.993 3.897-9.518 2.485-2.525 5.854-3.948 9.369-3.958zm99.341 40.434h12.73v31.449h-12.73zm-131.804 0h12.73v31.449h-12.73zm68.553 90.016 18.761-19.063 9.39 9.531-18.77 19.061zm-33.241 0 18.764-19.063 9.382 9.531-18.764 19.061zm1.576-161.9h70.766v12.714h-23.61l-15.889 16.143-9.381-9.53 6.511-6.613h-28.397zm57.496 112.319c1.75 0 3.46.527 4.91 1.514 1.46.987 2.59 2.391 3.26 4.033s.85 3.449.5 5.192c-.34 1.743-1.18 3.344-2.42 4.601-1.23 1.256-2.81 2.112-4.53 2.459-1.71.347-3.49.169-5.11-.512-1.61-.68-2.99-1.831-3.97-3.309-.97-1.478-1.49-3.215-1.49-4.993 0-2.383.94-4.668 2.59-6.353 1.66-1.685 3.91-2.632 6.26-2.632zm-44.23 0c1.75 0 3.46.527 4.915 1.514s2.588 2.391 3.258 4.033c.669 1.642.845 3.449.503 5.192-.341 1.743-1.183 3.344-2.421 4.601-1.237 1.256-2.813 2.112-4.529 2.459s-3.494.169-5.111-.512c-1.616-.68-2.997-1.831-3.969-3.309s-1.491-3.215-1.491-4.993c0-2.383.932-4.668 2.591-6.353s3.908-2.632 6.254-2.632zm-17.69-67.774h79.61v14.624h-79.61zm0 27.789h79.61v30.999h-79.61z" fill="#ef7f1a" fill-rule="evenodd"/><path clip-rule="evenodd" d="m1476.53 432.601 40.72 39.932v9.042h-40.72zm0-61.951 58.82 57.681 58.82-57.681v48.807c-19.67 19.289-39.81 39.036-58.82 57.681l-58.82-57.681zm117.64 61.951-40.72 39.932v9.042h40.72z" fill="#21a73f" fill-rule="evenodd"/><g fill="#fefefe"><path d="m237.445 766.456c-16.118-6.914-26.822-22.254-31.997-38.343l13.075-4.061c3.958 12.304 11.969 24.735 24.388 30.061zm-38.127-136.982c2.592.013 5.122.78 7.271 2.207 2.148 1.426 3.82 3.447 4.803 5.807.983 2.361 1.234 4.955.721 7.456-.514 2.501-1.768 4.795-3.605 6.595s-4.175 3.023-6.718 3.516c-2.543.494-5.177.234-7.571-.745-2.393-.979-4.438-2.634-5.877-4.756-1.438-2.122-2.206-4.616-2.206-7.168.004-1.699.348-3.382 1.013-4.95.665-1.569 1.637-2.994 2.861-4.193s2.676-2.149 4.273-2.796c1.597-.646 3.308-.977 5.035-.973zm-6.37 66.725c-6.104 6.918-15.945 11.247-24.991 12.802l-2.357-13.292c5.935-1.02 12.969-3.743 17.006-8.318zm34.093 11.497c-.001-14.05-4.549-25.818-18.294-31.452.601 10.14 2.157 20.204 4.645 30.061.332 1.307.26 2.681-.209 3.946-.469 1.266-1.311 2.364-2.42 3.153-18.402 13.73-25.459 32.12-29.052 53.885l-13.503-2.162c3.882-23.522 11.9-44.103 30.875-59.791-1.889-8.39-5.456-31.323-4.107-39.442.172-.87.517-1.697 1.014-2.435s1.137-1.373 1.884-1.867c.746-.495 1.584-.84 2.466-1.016s1.79-.179 2.673-.009c25.297 4.891 37.691 22.289 37.693 47.129z"/><path d="m480.248 698.964c3.011-11.58-1.782-22.667-14.857-20.585 6.275 11.382 8.766 24.489 7.106 37.4-.122.963-.451 1.888-.963 2.711s-1.195 1.524-2.002 2.055-1.719.879-2.673 1.021c-.954.141-1.927.073-2.852-.201-7.999-2.23-16.523-1.733-23.163 3.848-7.821 6.573-10.146 17.843-9.95 27.658l-13.178.26c-.282-14.058 3.542-28.781 14.652-38.118 7.779-6.538 17.454-8.901 27.389-7.912-.142-10.641-3.718-19.622-9.519-28.434-1.017-1.386-1.461-3.115-1.237-4.823s1.098-3.262 2.437-4.334c12.87-9.277 34.244-4.516 40.74 11.229 2.409 5.836 3.039 13.076.834 21.556zm-37.523-58.952c2.41-.666 4.963-.598 7.335.195 2.373.794 4.458 2.277 5.994 4.263 1.537 1.986 2.454 4.386 2.637 6.897s-.376 5.02-1.608 7.211c-1.231 2.19-3.08 3.965-5.311 5.099-2.232 1.134-4.747 1.576-7.229 1.272-2.481-.305-4.817-1.343-6.714-2.983-1.896-1.64-3.267-3.81-3.94-6.234-.898-3.265-.471-6.755 1.186-9.703s4.408-5.112 7.65-6.017zm62.076 53.615c5.277 3.505 9.605 8.279 12.591 13.891s4.536 11.885 4.511 18.251c-.026 6.367-1.626 12.627-4.657 18.215-3.031 5.587-7.397 10.326-12.703 13.787s-11.385 5.537-17.687 6.038-12.629-.587-18.408-3.166c-5.78-2.58-10.83-6.57-14.695-11.608-3.864-5.039-6.421-10.969-7.438-17.252l13.004-2.255c.647 4.12 2.306 8.012 4.826 11.322s5.822 5.933 9.606 7.631c3.783 1.698 7.927 2.416 12.056 2.09s8.112-1.687 11.586-3.957c3.474-2.271 6.329-5.381 8.307-9.046 1.977-3.665 3.013-7.77 3.014-11.941s-1.033-8.277-3.008-11.943c-1.976-3.666-4.83-6.777-8.303-9.05z"/><path clip-rule="evenodd" d="m1286.05 1721.91h-35.85v36.24h-35.86v35.09h35.86v36.24h35.85v-36.24h35.85v-35.09h-35.85z" fill-rule="evenodd"/><path clip-rule="evenodd" d="m1768.96 942.08h63.87v43.698h-63.87zm31.94 15.206c-1.38 0-2.72.39-3.86 1.12-1.14.729-2.03 1.767-2.55 2.981-.53 1.213-.66 2.549-.4 3.838.27 1.288.93 2.472 1.9 3.401s2.21 1.562 3.55 1.818c1.35.256 2.74.125 4.01-.378 1.27-.502 2.35-1.354 3.11-2.446s1.17-2.377 1.17-3.691c0-1.761-.73-3.451-2.03-4.697s-3.07-1.946-4.9-1.946zm0-10.835c-3.61 0-7.14 1.025-10.14 2.946-3 1.92-5.34 4.65-6.72 7.844-1.38 3.193-1.74 6.707-1.04 10.098.7 3.39 2.44 6.504 4.99 8.949 2.56 2.444 5.81 4.109 9.35 4.783 3.54.675 7.2.328 10.54-.994 3.33-1.323 6.18-3.563 8.19-6.437 2-2.875 3.07-6.254 3.07-9.711 0-2.295-.47-4.568-1.39-6.688-.91-2.121-2.26-4.048-3.95-5.671-1.7-1.623-3.71-2.911-5.92-3.789-2.22-.878-4.59-1.33-6.98-1.33zm27.37 8.739h-9.13v-8.739h9.13z" fill-rule="evenodd"/><path d="m1728.63 905.105c50.16 19.724 93.68 20.542 144.54.769v55.214h-13.86v-36.941c-18.72 6.006-38.24 9.131-57.9 9.27-20.12.172-40.14-2.959-59.26-9.27v36.941h-13.52zm144.54 65.024v55.211c-50.86-19.77-94.38-18.95-144.54.77v-55.981h13.52v38.091c18.78-6.2 38.43-9.334 58.21-9.268 20 .038 39.89 3.168 58.95 9.268v-38.091z"/><path d="m1517.69 156.026c-10.26-3.652-20.92-12.119-20.92-23.926 0-8.127 5.01-15.208 13.1-20.088 15.27-9.211 39.19-9.21 54.46-.002 8.09 4.882 13.09 11.963 13.09 20.09 0 6.688-3.52 12.509-8.48 16.762l-8.71-10.192c1.91-1.635 3.77-3.931 3.77-6.57 0-3.071-2.52-6.128-6.6-8.584-10.99-6.626-29.62-6.626-40.61 0-4.07 2.458-6.59 5.513-6.59 8.584 0 3.07 2.52 6.126 6.59 8.582.35.211.26.171.47.284v-5.477c2.57-3.051 5.99-5.257 9.82-6.33-.08.527-.12-1.466-.12 1.614 0 3.079 4.54 10.157 10.14 10.157s10.14-7.133 10.14-10.157-.03-.871-.08-1.295c3.68 1.197 7.03 3.251 9.77 5.992v9.943h-39.41l.07 4.583c9.2 9.902 30.83 8.967 39.32-.225.56 17.125-8.49 31.508-19.76 31.508-11.28 0-18.16-13.37-19.46-25.257zm72.99 47.67c-12.05.089-23.82-3.708-33.55-10.831l6.83-11.586c7.8 5.719 17.19 8.855 26.85 8.967zm-107.3 0c12.09.072 23.89-3.722 33.68-10.831l-6.82-11.586c-7.91 5.615-17.3 8.766-26.99 9.059zm53.72-18.77-9.09 9.883 5.56 6.049-5.43 10.815-6.53-11.1c-11.25 7.777-24.56 11.989-38.23 12.089v13.45h107.43v-13.45c-13.43 0-27.09-3.418-38.28-11.988l-6.48 10.999-5.43-10.815 5.57-6.049z" opacity=".2"/><g clip-rule="evenodd" fill-rule="evenodd"><path d="m1466.44 668.889h13.64v49.868h120.88v31.726h-13.64v-18.9h-107.24v18.9h-13.64zm114.44 15.562c8.39 5.629 11.14 15.34 11.11 25.202l-13.06.04c-.41-6.017-.65-11.152-5.51-14.406zm-60.7-10.964c7.12 0 12.93 7.514 12.93 13.002s-1.62 7.212-4.2 9.588c7.64.458 15.81.139 23.48.118 3.73-28.27 29.91-38.113 55.23-22.005l-7.52 11.206c-18.93-11.725-33.44-4.126-34.93 16.386-.48 6.591-5.04 8.075-11.37 7.974l-20.13.13c-13.41.085-43.86.426-44.81-41.023h13.56c.18 7.935 2.01 13.47 4.84 17.485.04-3.433 1.42-6.711 3.84-9.119 2.42-2.409 5.68-3.754 9.08-3.742z"/><path d="m458.037 1522.45h26.891l-4.483-44.08h-17.927zm32.767-62.98c-4.71.92-10.326 4.6-10.339 9.92h-17.966c-.013-5.32-5.629-9-10.339-9.92l2.573-13.19c6.61 1.31 12.545 4.91 16.749 10.18 4.204-5.27 10.139-8.88 16.749-10.18zm-46.212 85.4h53.78v-12.69h-53.78zm-13.446 22.42h80.672v-12.69h-80.672z"/><path d="m424.424 1285.83h94.118v12.55h-94.118zm53.781-70.96h13.446v12.22c3.933 1.38 7.337 3.93 9.745 7.3s3.701 7.4 3.701 11.52v31.05h-13.446v-31.8h.001c0-1.77-.708-3.46-1.969-4.71-1.261-1.24-2.971-1.95-4.754-1.95-1.784 0-3.494.71-4.755 1.95-1.26 1.25-1.969 2.94-1.969 4.71v31.8h-13.445v-31.8c-.002-1.76-.712-3.45-1.972-4.7-1.261-1.25-2.969-1.95-4.751-1.95-1.781 0-3.49.7-4.75 1.95-1.261 1.25-1.97 2.94-1.973 4.7h.001v31.8h-13.446v-31.05c0-4.12 1.293-8.15 3.701-11.52s5.812-5.92 9.745-7.3v-12.22h13.445v12.22c2.48.87 4.764 2.21 6.723 3.95 1.959-1.74 4.243-3.08 6.722-3.95zm-26.89-8.87c0-4.55 1.568-8.96 4.444-12.5 2.876-3.55 6.887-6.01 11.372-7v-11.55h-8.964v-8.87h8.964v-8.87h8.963v8.87h8.965v8.87h-8.965v11.61c4.427 1.03 8.373 3.51 11.196 7.04 2.824 3.53 4.361 7.9 4.361 12.4z"/><path d="m683.248 1288.98h107.563v12.76h-107.563zm53.782-57.05-5.87 10.23h-11.74l5.87 10.23-5.87 10.23h11.74l5.87 10.23 5.87-10.23h11.738l-5.87-10.23 5.87-10.23h-11.738zm26.891-33.15v23.9l13.446 8.94v48.34h-13.446v-41.76l-13.445-9.18v-23.29l-13.446-9.24-13.445 9.24v23.33l-13.445 9.14v41.82h-13.446c0-4.83.147-48.25 0-48.4l13.446-8.94v-23.82l26.89-18.12z"/><path d="m1827.55 492.784v8.959l-26.65-12.309-26.66 12.309v-8.959l25.53-24.224 1.94.071zm-26.62-138.94c2.35.007 4.59.95 6.25 2.621 1.66 1.672 2.59 3.937 2.6 6.301v89.954c0 11.798-17.69 11.802-17.69 0v-9.105l-53.38 25.393v-13.438l53.38-47.322v-45.482c0-2.364.94-4.629 2.59-6.301 1.66-1.671 3.91-2.614 6.25-2.621zm17.73 62.982 44.42 38.744v13.438l-44.42-20.807z"/><path d="m265.935 966.299 3.584-.275zm-103.782-22.942-1.039.024c-13.07.503-14.59 11.425-10.133 16.036 3.953 4.089 12.654 2.088 9.529-6.138l12.553-4.764c4.579 11.948-.781 23.647-13.525 25.939-13.066 2.353-23.657-6.909-24.173-20.198-.557-14.722 11.411-22.922 25.25-23.463.512-.041 1.025-.049 1.538-.026h80.841c.513-.024 1.027-.016 1.538.024 13.84.544 25.807 8.743 25.25 23.465-.115 4.169-1.373 8.226-3.638 11.731-.069.105-.138.208-.209.312-2.2 3.209-5.305 5.697-8.922 7.149-3.618 1.451-7.586 1.801-11.404 1.006-12.562-2.26-18.166-13.827-13.525-25.939l12.553 4.765c-2.499 6.517 2.958 9.712 7.624 7.553 6.654-3.081 6.38-16.89-8.228-17.451l-1.039-.025zm67.312 35.828h13.445v40.205h-13.445zm-67.216 0h13.446v40.205h-13.446zm-8.946-70.719h98.601v12.642h-98.601zm53.782 43.914h13.447v67.01h-13.447zm-22.409 0h13.446v67.01h-13.446z"/><path d="m207.056 1177.83c5.042 1.04 9.572 3.78 12.835 7.76 3.262 3.97 5.059 8.94 5.091 14.08h-44.816c.031-5.14 1.828-10.11 5.091-14.08 3.262-3.98 7.793-6.72 12.835-7.76v-9.46h-8.964v-8.94h8.964v-8.95h8.964v8.95h8.963v8.94h-8.963zm-22.471 74.73h-.004v27.59h-13.442v-32.06c-.002-1.78-.712-3.48-1.972-4.74-1.261-1.25-2.969-1.96-4.751-1.96-1.781 0-3.49.71-4.75 1.96-1.261 1.26-1.97 2.96-1.973 4.74h-.003v32.06h-13.442v-31.3h.001c0-4.53 1.534-8.93 4.352-12.49 2.819-3.55 6.758-6.05 11.179-7.09v-11.72h-6.941v-8.94h6.941v-6.66h8.963v6.66h6.94v8.94h-6.94v11.65c3.413.74 6.572 2.36 9.167 4.7.821-1.03 1.705-2.01 2.649-2.93h-.456v-22.36h13.445v14.71c5.85-1.73 12.078-1.73 17.927 0v-14.71h13.446v22.36h-.457c.944.92 1.829 1.9 2.65 2.93 2.628-2.37 5.836-4 9.299-4.73v-11.62h-7.01v-8.94h7.01v-6.66h8.964v6.66h6.435v8.94h-6.435v11.75c4.392 1.06 8.297 3.57 11.089 7.12 2.793 3.54 4.311 7.92 4.312 12.43h-.003v31.3h-13.443v-32.06h.001c-.003-1.78-.712-3.48-1.973-4.74-1.26-1.25-2.969-1.96-4.75-1.96-1.782 0-3.49.71-4.751 1.96-1.26 1.26-1.97 2.96-1.972 4.74h-.003v32.06h-13.443v-27.59h-.002c0-4.74-1.889-9.29-5.251-12.65-3.362-3.35-7.922-5.23-12.676-5.23-4.755 0-9.315 1.88-12.677 5.23-3.362 3.36-5.251 7.91-5.251 12.65zm-49.238 36.53h134.454v12.65h-134.454z"/><path d="m1987.56 162.81h13.34v53.218h-13.34zm-34.97 8.161c6.31 10.477 13.9 13.882 26.08 14.012v13.306c-16.93-.182-28.89-6.075-37.63-20.661zm-36.5-14.725c2.93 5.076 3.72 11.105 2.2 16.763-1.52 5.659-5.23 10.483-10.32 13.412-5.08 2.929-11.13 3.724-16.8 2.209-5.67-1.514-10.51-5.214-13.44-10.286l10.78-6.214c1.29 2.167 3.38 3.741 5.83 4.379 2.44.638 5.03.29 7.22-.97s3.79-3.329 4.46-5.759c.66-2.43.34-5.024-.89-7.221zm27.34-41.443c2.53-1.458 5.32-2.405 8.21-2.786s5.84-.19 8.66.563 5.46 2.053 7.78 3.826c2.31 1.773 4.26 3.984 5.72 6.507 1.46 2.522 2.4 5.307 2.78 8.195s.19 5.823-.57 8.636c-.75 2.813-2.06 5.451-3.83 7.761-1.78 2.31-4 4.248-6.53 5.704l-38.84 22.369c1.51-5.442 1.5-11.192-.02-16.63s-4.51-10.357-8.63-14.228c-15.13 8.717-29.96 17.259-45.05 25.953l-6.67-11.522z" opacity=".2"/><path d="m1243.08 901.746h53.45c16.01-.116 31.42 6.091 42.9 17.28l-9.47 9.505c-4.38-4.384-9.58-7.857-15.3-10.218s-11.85-3.564-18.03-3.54h-51.28c-12.02.046-23.64 4.383-32.77 12.235l-10.09-10.129c11.22-9.874 25.66-15.26 40.59-15.133zm-13.36 26.296h35.63v14.136c-5.15.842-9.83 3.49-13.22 7.473-3.38 3.984-5.25 9.043-5.26 14.278.01 5.235 1.88 10.294 5.26 14.277 3.39 3.983 8.07 6.631 13.22 7.473v14.137h-35.63c-3.16-.009-6.19-1.273-8.42-3.514-2.24-2.242-3.49-5.279-3.5-8.45v-6.048h11.92c2.36-.007 4.62-.951 6.29-2.625 1.67-1.675 2.61-3.944 2.62-6.312v-17.875c-.01-2.368-.95-4.637-2.62-6.312-1.67-1.674-3.93-2.618-6.29-2.625h-11.92v-6.049c0-3.17 1.26-6.208 3.5-8.449 2.23-2.242 5.26-3.505 8.42-3.515zm44.54 0h37.07c3.16.01 6.18 1.273 8.42 3.515 2.23 2.241 3.49 5.279 3.5 8.449v6.048h-13.36c-2.36.008-4.62.952-6.29 2.626-1.67 1.675-2.61 3.944-2.62 6.312v17.875c.01 2.368.95 4.637 2.62 6.311 1.67 1.675 3.93 2.619 6.29 2.626h13.36v6.048c-.01 3.171-1.27 6.208-3.5 8.45-2.24 2.241-5.26 3.505-8.42 3.514h-37.07v-14.137c5.15-.842 9.83-3.49 13.21-7.473 3.39-3.983 5.25-9.043 5.27-14.277-.02-5.235-1.88-10.294-5.27-14.277-3.38-3.984-8.06-6.632-13.21-7.474zm0 22.346v27.082c2.98-.785 5.63-2.538 7.52-4.987 1.89-2.448 2.93-5.455 2.94-8.554-.01-3.099-1.04-6.106-2.94-8.555-1.89-2.448-4.53-4.201-7.52-4.986zm-8.91 27.082v-27.082c-2.99.784-5.63 2.537-7.53 4.986-1.89 2.449-2.92 5.456-2.94 8.555.02 3.099 1.05 6.106 2.94 8.555 1.9 2.448 4.54 4.201 7.53 4.986zm57.9-22.478v17.742h-13.36v-17.742zm-105.45 17.742v-17.742h11.92v17.742zm127.59-47.047c8.6 10.893 13.35 24.346 13.49 38.242v.001c-.14 13.895-4.89 27.349-13.49 38.24l-9.93-9.968c5.84-8.261 8.98-18.142 8.97-28.272v-.001c.04-10.173-3.01-20.117-8.74-28.509zm-5.96 83.143c-11.48 11.19-26.89 17.4-42.9 17.28h-53.45c-14.93.13-29.37-5.26-40.59-15.13l9.78-9.82c8.86 7.69 20.18 11.92 31.89 11.92h51.28c12.8 0 25.09-5.05 34.22-14.059zm-143.21-4.2c-9.83-11.286-15.32-25.717-15.49-40.7v-.002c.17-14.984 5.66-29.415 15.49-40.697l10.11 10.14c-7.16 8.566-11.11 19.377-11.16 30.558v.001c0 11.222 3.85 22.102 10.9 30.814z"/><path d="m469.859 913.553.213 63.859c4.715.016 9.381.943 13.73 2.73s8.295 4.397 11.612 7.682l-8.266 8.103c-10.755-10.543-23.96-2.769-34.941-13.534l-8.266 8.103c6.904 6.704 16.201 10.504 25.918 10.604v13.2c10.17-.16 22.207-5.57 30.873-23.535 6.873-14.253 11.57-35.947 11.751-68.271-12.653-6.381-28.492-8.922-42.624-8.941zm36.257 41.913c-4.871 2.766-10.401 4.223-16.031 4.223-5.629 0-11.159-1.457-16.03-4.223l5.929-10.032c3.106 1.672 6.587 2.562 10.131 2.592 3.543.03 7.039-.802 10.174-2.422zm-75.561-6.698c9.95-5.632 21.487-6.037 31.437-.406l-6.189 10.473c-2.928-1.643-6.244-2.507-9.618-2.507s-6.689.864-9.618 2.507zm81.749 46.637c-11.346 23.525-28.097 30.545-42.428 30.705h-.149c-14.33-.16-31.081-7.18-42.426-30.705-7.854-16.287-13.131-39.45-12.957-75.907l.017-3.535c17.532-10.312 35.403-14.265 55.753-14.219 20.193.046 37.799 4.027 55.13 14.219l.016 3.535c.174 36.457-5.103 59.62-12.956 75.907z"/></g><path d="m1313.26 1443.91c-6.57 2.8-11.86 6.45-15.03 12.1-3.19 5.69-3.93 12.84-1.2 22.34l5.32 21.36c9.87 34.38-78.36 34.54-68.45 0l5.32-21.36c2.72-9.5 1.99-16.65-1.21-22.34-3.16-5.65-8.46-9.3-15.03-12.1l-5.28 12.43c4 1.7 7.07 3.66 8.54 6.28 1.44 2.57 1.61 6.36-.01 12.03l-5.32 20.98c-16.49 57.42 110.92 57.42 94.43 0l-5.32-20.98c-1.63-5.67-1.46-9.46-.01-12.03 1.47-2.62 4.54-4.58 8.53-6.28zm-40.63-4.35h13.52v76.64h-13.52zm-22.53 0h13.52v76.64h-13.52zm49.57 108.24h-63.09v12.77h63.09z"/><path clip-rule="evenodd" d="m279.886 1774.01-34.664-34.66-9.453 9.45 25.21 25.21-25.21 25.21 9.453 9.46zm-40.967-40.96-34.664-34.67-34.664 34.67 9.454 9.45 25.21-25.21 25.21 25.21zm-75.631 6.3-34.663 34.66 34.663 34.67 9.454-9.46-25.21-25.21 25.21-25.21zm6.303 75.63 34.664 34.66 34.664-34.66-9.454-9.45-25.21 25.21-25.21-25.21z" fill-rule="evenodd"/><path clip-rule="evenodd" d="m525.264 1721.91h-49.299v13.45h35.093v35.85h14.206zm-58.263 0h-49.3v49.3h13.826v-35.85h35.474zm-49.3 58.27v49.3h49.3v-13.45h-35.474v-35.85zm58.264 49.3h49.299v-49.3h-14.206v35.85h-35.093z" fill-rule="evenodd"/><path clip-rule="evenodd" d="m1782.83 1265c-6.37-2.23-12.25-5.63-17.35-10.01-3.9 1.22-8.11 1.08-11.93-.38-3.82-1.47-7.02-4.17-9.07-7.67-2.04-3.51-2.82-7.59-2.2-11.59s2.61-7.66 5.63-10.39c-1.31-6.72-1.31-13.63 0-20.35-3.02-2.73-5.01-6.4-5.63-10.4-.62-3.99.16-8.08 2.2-11.58 2.05-3.5 5.25-6.21 9.07-7.67 3.82-1.47 8.03-1.6 11.94-.38 5.23-4.5 11.28-7.96 17.84-10.19.89-3.94 3.11-7.47 6.31-10 3.19-2.53 7.16-3.91 11.26-3.91 4.09 0 8.06 1.38 11.26 3.91 3.19 2.53 5.41 6.06 6.3 10 6.56 2.23 12.62 5.69 17.85 10.19 3.9-1.22 8.11-1.09 11.93.38 3.82 1.46 7.02 4.17 9.07 7.67s2.82 7.59 2.2 11.58c-.62 4-2.61 7.67-5.63 10.4 1.32 6.72 1.31 13.62 0 20.34 3.02 2.73 5 6.4 5.63 10.4.62 3.99-.15 8.08-2.2 11.58-2.05 3.51-5.25 6.21-9.07 7.68-3.81 1.46-8.02 1.6-11.93.38-2.72 2.34-5.67 4.39-8.81 6.15l-6.65-11.59c1.73-.96 3.38-2.05 4.94-3.26-1.41-2.65-2.11-5.61-2.05-8.6.06-3 .89-5.92 2.41-8.52 1.52-2.59 3.67-4.76 6.27-6.31 2.59-1.55 5.54-2.43 8.57-2.55.51-3.67.51-7.39 0-11.05-3.03-.12-5.98-1-8.57-2.55-2.6-1.55-4.75-3.72-6.27-6.32-1.52-2.59-2.35-5.52-2.41-8.51s.64-5.95 2.05-8.61c-2.96-2.27-6.22-4.14-9.69-5.53-1.62 2.53-3.87 4.62-6.53 6.06s-5.64 2.2-8.67 2.2c-3.04 0-6.02-.76-8.68-2.2s-4.9-3.53-6.53-6.06c-3.47 1.39-6.73 3.25-9.69 5.53 1.41 2.66 2.11 5.62 2.05 8.61s-.89 5.92-2.41 8.51c-1.51 2.59-3.67 4.77-6.26 6.32-2.6 1.55-5.55 2.42-8.58 2.55-.51 3.66-.51 7.38 0 11.05 3.03.12 5.98 1 8.58 2.55 2.59 1.55 4.75 3.72 6.26 6.31 1.52 2.6 2.35 5.52 2.41 8.52.06 2.99-.64 5.95-2.05 8.6 3.14 2.42 6.61 4.37 10.32 5.78l7.09-26.21c-2.41-1.59-4.23-3.9-5.21-6.58-.97-2.69-1.04-5.62-.2-8.35s2.54-5.13 4.87-6.83c2.32-1.7 5.14-2.62 8.03-2.62s5.71.92 8.03 2.63c2.33 1.7 4.03 4.09 4.87 6.82.84 2.74.77 5.66-.21 8.35-.97 2.69-2.8 5-5.2 6.58l13.8 51.08h-42.58zm63.04 33.38h-89.95v-12.56h89.95zm-91.72-56.96c-.67-1.15-.98-2.48-.9-3.81.09-1.33.58-2.6 1.4-3.66.82-1.05 1.94-1.85 3.22-2.28 1.28-.42 2.66-.47 3.96-.12 1.3.34 2.47 1.06 3.36 2.06s1.46 2.24 1.64 3.56c.18 1.33-.05 2.67-.65 3.86-.59 1.2-1.54 2.19-2.7 2.86-.78.44-1.64.73-2.53.84-.88.12-1.79.06-2.65-.17-.87-.23-1.68-.62-2.39-1.16s-1.31-1.21-1.76-1.98zm93.49-53.27c.67 1.15.99 2.47.9 3.8s-.58 2.61-1.4 3.66c-.82 1.06-1.94 1.85-3.22 2.28s-2.65.48-3.96.13c-1.3-.34-2.47-1.06-3.36-2.06-.89-1.01-1.46-2.25-1.64-3.57-.17-1.32.05-2.66.65-3.86.59-1.19 1.54-2.18 2.71-2.85.77-.44 1.63-.73 2.52-.85.89-.11 1.79-.05 2.65.18.87.23 1.68.62 2.39 1.16s1.31 1.21 1.76 1.98zm0 53.27c-.68 1.16-1.68 2.09-2.89 2.68s-2.57.81-3.91.63c-1.34-.17-2.6-.73-3.61-1.61-1.02-.88-1.74-2.03-2.09-3.32s-.31-2.65.13-3.91c.43-1.26 1.23-2.37 2.3-3.18s2.36-1.29 3.71-1.38c1.35-.08 2.69.23 3.86.89 1.57.89 2.71 2.37 3.18 4.09.47 1.73.22 3.57-.68 5.11zm-46.74-79.91c1.35 0 2.66.39 3.79 1.13 1.12.74 1.99 1.79 2.51 3.02.52 1.24.65 2.59.39 3.9-.26 1.3-.91 2.5-1.87 3.45-.95.94-2.17 1.58-3.49 1.84-1.33.26-2.7.13-3.95-.38-1.24-.51-2.31-1.38-3.06-2.49-.75-1.1-1.15-2.41-1.15-3.74 0-.88.18-1.76.52-2.58.34-.81.85-1.56 1.48-2.18.63-.63 1.39-1.12 2.21-1.46.83-.34 1.72-.51 2.62-.51zm-46.75 26.63c.68-1.15 1.69-2.08 2.9-2.67s2.57-.81 3.9-.64c1.34.18 2.6.74 3.61 1.62 1.02.88 1.75 2.03 2.1 3.32s.3 2.65-.13 3.91c-.44 1.26-1.24 2.37-2.31 3.18s-2.36 1.29-3.71 1.37c-1.35.09-2.69-.22-3.86-.88-.77-.45-1.46-1.03-2-1.74-.55-.7-.95-1.5-1.18-2.35-.23-.86-.29-1.75-.17-2.63.11-.87.41-1.72.85-2.49z" fill-rule="evenodd"/><path d="m467.919 1419.87c2.563-.7 5.276-.63 7.798.21 2.522.83 4.739 2.4 6.372 4.49 1.633 2.1 2.608 4.63 2.803 7.28.194 2.65-.4 5.3-1.71 7.61-1.309 2.31-3.274 4.19-5.646 5.38-2.373 1.2-5.046 1.66-7.684 1.34s-5.121-1.41-7.137-3.14-3.473-4.02-4.189-6.58c-.954-3.45-.5-7.13 1.261-10.24 1.762-3.11 4.687-5.39 8.132-6.35z"/><path d="m202.373 1762.73c2.563-.7 5.276-.63 7.798.2 2.522.84 4.739 2.41 6.372 4.5 1.632 2.1 2.608 4.63 2.802 7.28s-.401 5.3-1.71 7.61-3.274 4.18-5.646 5.38c-2.373 1.2-5.047 1.66-7.684 1.34-2.638-.32-5.121-1.42-7.137-3.15s-3.473-4.02-4.188-6.58c-.473-1.7-.605-3.48-.389-5.24.217-1.76.777-3.45 1.649-4.99s2.04-2.9 3.435-3.99c1.396-1.09 2.992-1.89 4.698-2.36z"/><path clip-rule="evenodd" d="m963.393 1748.78c-1.753-3.06-2.566-6.59-2.337-10.13.23-3.53 1.491-6.92 3.625-9.73s5.045-4.92 8.364-6.06c3.32-1.14 6.899-1.25 10.285-.34 3.385.92 6.426 2.83 8.737 5.5 2.312 2.66 3.789 5.96 4.247 9.47.457 3.51-.126 7.08-1.676 10.26-1.551 3.18-3.999 5.82-7.034 7.59-2.016 1.18-4.241 1.94-6.549 2.25s-4.652.15-6.901-.46c-2.248-.61-4.355-1.66-6.202-3.09-1.846-1.43-3.396-3.22-4.559-5.26zm44.307 71.74c-1.75-3.07-2.56-6.59-2.33-10.13.22-3.54 1.49-6.92 3.62-9.73s5.04-4.92 8.36-6.06 6.9-1.26 10.29-.34c3.38.92 6.42 2.83 8.74 5.49 2.31 2.66 3.78 5.96 4.24 9.47.46 3.52-.12 7.09-1.67 10.27-1.55 3.17-4 5.81-7.04 7.59-2.01 1.17-4.24 1.94-6.55 2.24-2.3.31-4.65.15-6.9-.45-2.25-.61-4.35-1.66-6.2-3.1-1.85-1.43-3.39-3.21-4.56-5.25zm8.86-5.17c-.74-1.3-1.08-2.79-.98-4.28.09-1.5.63-2.93 1.53-4.12.9-1.18 2.13-2.08 3.53-2.56 1.41-.48 2.92-.53 4.35-.14s2.71 1.19 3.69 2.32 1.6 2.52 1.8 4c.19 1.49-.06 3-.71 4.34-.66 1.34-1.69 2.46-2.97 3.21-1.73 1-3.77 1.27-5.69.75-1.92-.51-3.55-1.78-4.55-3.52zm-20.095-10.2v12.67h-19.939c-3.182.05-6.342-.54-9.297-1.74-2.954-1.19-5.644-2.97-7.912-5.23-2.268-2.25-4.069-4.94-5.298-7.91-1.23-2.97-1.863-6.15-1.863-9.37s.633-6.4 1.863-9.37c1.229-2.97 3.03-5.66 5.298-7.91 2.268-2.26 4.958-4.04 7.912-5.23 2.955-1.2 6.115-1.79 9.297-1.74h48.744c2.97-.1 5.78-1.37 7.85-3.53s3.22-5.04 3.22-8.05c0-3-1.15-5.89-3.22-8.05s-4.88-3.43-7.85-3.53h-19.94v-12.67h19.94c3.18-.05 6.34.54 9.29 1.74 2.96 1.19 5.65 2.97 7.91 5.23 2.27 2.25 4.07 4.95 5.3 7.91 1.23 2.97 1.87 6.15 1.87 9.37s-.64 6.4-1.87 9.37-3.03 5.66-5.3 7.91c-2.26 2.26-4.95 4.04-7.91 5.24-2.95 1.19-6.11 1.78-9.29 1.73h-48.744c-2.971.1-5.788 1.37-7.855 3.53s-3.222 5.04-3.222 8.05c0 3 1.155 5.89 3.222 8.05s4.884 3.43 7.855 3.53zm-24.21-61.54c-.74-1.29-1.084-2.78-.987-4.28.096-1.49.63-2.92 1.531-4.11.902-1.19 2.132-2.08 3.535-2.56s2.916-.53 4.347-.15c1.431.39 2.716 1.2 3.692 2.33.977 1.12 1.602 2.51 1.795 4 .193 1.48-.054 2.99-.709 4.34-.655 1.34-1.69 2.46-2.973 3.2-1.72 1.01-3.765 1.28-5.683.76-1.919-.52-3.554-1.79-4.548-3.53z" fill-rule="evenodd"/><path clip-rule="evenodd" d="m932.233 1285.74h134.097v12.64h-134.097zm4.403-44.78v-13.41c12.343 0 21.589 10 21.589 22.34v26.91h-13.41v-26.91c0-4.93-3.242-8.93-8.179-8.93zm103.564 35.84h13.41v-26.91c0-4.93 3.24-8.93 8.18-8.93v-13.41c-12.34 0-21.59 10-21.59 22.34zm-108.213-80.44h134.453l-67.226-22.35zm4.782 9.03h125.021v12.55h-125.021zm71.761 71.41h13.41v-49.25h-13.41zm-32.046 0h13.409v-49.25h-13.409z" fill-rule="evenodd"/><path clip-rule="evenodd" d="m753.277 666.642c.069-3.733 1.588-7.185 5.261-7.813 29.84-4.148 35.773 42.852 5.837 47.156-3.992.691-6.668-2.202-7.59-5.872-2.656-10.949-3.836-22.206-3.508-33.471zm-50.944 34.221v63.346h-12.362v-76.851c19.24 0 37.158 2.471 42.494-21.464 1.742-7.914 13.454-6.448 13.3 1.58-.058 13.206 1.551 26.367 4.786 39.167.327 1.312.255 2.693-.206 3.963-.462 1.271-1.292 2.374-2.383 3.167-18.124 13.79-21.845 31.656-25.386 53.518l-13.299-2.172c3.824-23.626 8.491-43.692 27.18-59.45-1-4.531-1.869-9.409-2.55-14.345-8.234 7.731-20.593 9.448-31.574 9.541zm34.356-71.389c2.553.013 5.045.784 7.161 2.216 2.117 1.433 3.763 3.463 4.731 5.833.969 2.371 1.216 4.977.71 7.489-.506 2.511-1.741 4.816-3.551 6.624-1.809 1.807-4.111 3.036-6.616 3.531-2.505.496-5.099.235-7.457-.748-2.357-.984-4.371-2.646-5.788-4.777-1.417-2.132-2.173-4.637-2.173-7.199.004-1.707.343-3.397.998-4.973.654-1.575 1.612-3.006 2.817-4.211 1.206-1.204 2.636-2.158 4.209-2.807 1.573-.65 3.258-.982 4.959-.978zm33.421 136.263c-15.875-6.944-22.286-21.033-27.384-37.192l12.878-4.08c3.899 12.359 7.659 23.526 19.89 28.876z" fill-rule="evenodd"/><path d="m1533.47 1789.62c2.56-.7 5.27-.63 7.79.2 2.53.84 4.74 2.41 6.38 4.5 1.63 2.1 2.6 4.63 2.8 7.28.19 2.65-.4 5.3-1.71 7.61s-3.27 4.18-5.65 5.38c-2.37 1.2-5.04 1.66-7.68 1.34s-5.12-1.42-7.14-3.15c-2.01-1.73-3.47-4.02-4.19-6.57-.95-3.45-.5-7.13 1.26-10.24 1.77-3.11 4.69-5.4 8.14-6.35z"/><path d="m1500.05 1782.48c3.58-6.15 8.72-11.26 14.92-14.81s13.22-5.42 20.38-5.42c7.15 0 14.18 1.87 20.38 5.42 6.19 3.55 11.34 8.66 14.91 14.81l-11.67 6.66c-2.4-4.11-5.85-7.52-9.99-9.89-4.15-2.37-8.85-3.62-13.63-3.62s-9.48 1.25-13.63 3.62c-4.14 2.37-7.59 5.78-9.99 9.89z"/><path d="m1476.53 1769.02c4.45-7.65 10.38-14.37 17.46-19.75s15.16-9.33 23.78-11.62 17.61-2.87 26.45-1.71c8.85 1.15 17.38 4.03 25.1 8.45v.01c10.32 5.91 18.9 14.4 24.85 24.62l-11.72 6.67c-4.77-8.18-11.63-14.97-19.89-19.69h-.03c-12.49-7.13-27.33-9.07-41.25-5.37-13.93 3.69-25.81 12.71-33.03 25.06z"/><path d="m1227.78 710.147c7 0 13.79 2.426 19.2 6.866s9.11 10.618 10.48 17.483c1.36 6.864.31 13.99-2.99 20.163s-8.64 11.01-15.11 13.689c-6.46 2.679-13.66 3.032-20.35 1.001-6.7-2.032-12.49-6.323-16.38-12.142-3.89-5.82-5.64-12.807-4.95-19.773.69-6.965 3.77-13.477 8.71-18.426 2.81-2.813 6.14-5.044 9.82-6.565 3.67-1.521 7.6-2.301 11.57-2.296zm12.96 17.291c-2.99-2.999-6.94-4.865-11.16-5.281s-8.45.644-11.98 3c-3.52 2.355-6.12 5.86-7.35 9.918-1.24 4.057-1.02 8.416.6 12.334 1.62 3.917 4.55 7.151 8.29 9.15s8.06 2.64 12.22 1.813 7.9-3.07 10.59-6.348 4.16-7.387 4.16-11.627c0-2.407-.47-4.791-1.39-7.015s-2.27-4.244-3.98-5.944z"/><path d="m1258.1 629.474c2.66.013 5.25.812 7.46 2.298 2.2 1.485 3.91 3.589 4.92 6.047s1.26 5.159.74 7.763c-.53 2.604-1.81 4.994-3.7 6.868-1.88 1.874-4.28 3.148-6.88 3.661-2.61.514-5.31.244-7.76-.776-2.45-1.019-4.55-2.743-6.02-4.952-1.48-2.21-2.27-4.807-2.27-7.463.01-3.575 1.44-6.999 3.97-9.521 2.54-2.521 5.97-3.933 9.54-3.925z"/><path d="m1298.78 711.738c7.09-2.396 14.82-2.077 21.69.897 6.88 2.974 12.4 8.39 15.51 15.201 3.11 6.812 3.58 14.534 1.33 21.674-2.26 7.14-7.08 13.19-13.54 16.98s-14.09 5.05-21.42 3.537c-7.34-1.512-13.85-5.691-18.28-11.727-4.43-6.035-6.46-13.5-5.71-20.949.76-7.45 4.25-14.355 9.8-19.38l7.92 8.763c-3.17 2.862-5.24 6.743-5.85 10.971s.28 8.536 2.52 12.177c2.23 3.641 5.67 6.386 9.71 7.758 4.05 1.371 8.45 1.284 12.44-.247 3.98-1.531 7.31-4.409 9.4-8.135 2.09-3.727 2.8-8.067 2.03-12.267-.78-4.201-3-7.997-6.28-10.731s-7.42-4.233-11.69-4.238c-1.98-.015-3.95.301-5.83.935z"/><path d="m1287.31 689.168c-3.25-7.139-8.58-13.118-15.31-17.14-9.4 16.645-25.93 20.842-43.79 21.405l-.42-12.619c16.74-.528 28.1-3.904 34.96-20.323v.002c.68-1.627 1.96-2.922 3.59-3.605 1.62-.682 3.44-.698 5.08-.043 6.72 2.693 12.82 6.755 17.89 11.93 5.08 5.175 9.02 11.35 11.59 18.133 2.47 6.337.88 7.858-3.49 11.237-2.94 2.312-5.09 5.482-6.14 9.071-1.06 3.588-.97 7.416.24 10.954 1.22 3.537 3.5 6.609 6.54 8.788 3.03 2.179 6.67 3.358 10.41 3.373v13.429c-6.32-.022-12.48-1.948-17.68-5.529s-9.21-8.649-11.49-14.543c-2.29-5.895-2.74-12.341-1.31-18.499s4.68-11.741 9.33-16.021z"/><path d="m1273.47 704.751c-4.6-1.651-8.06-1.091-10.59 1.248-3.5 3.231-6.15 9.328-8.15 17.593l-13.5-3.167c2.64-10.85 6.54-19.249 12.13-24.409 6.55-6.052 14.7-7.784 24.85-4.147z"/><path d="m732.581 1769.77v31.53h-7.021v11.37h28.275v-11.37h-7.117v-43.11h-19.322l-3.813 11.58zm-2.489-25.17c-.003 1.19.24 2.37.714 3.48.473 1.1 1.169 2.11 2.046 2.95.877.85 1.919 1.52 3.066 1.97 1.147.46 2.376.69 3.616.69 2.521.01 4.944-.94 6.74-2.64 1.797-1.71 2.82-4.03 2.849-6.45-.023-2.45-1.04-4.79-2.833-6.51-1.794-1.73-4.22-2.71-6.756-2.73-2.521.03-4.928 1.01-6.697 2.74s-2.756 4.07-2.745 6.5z"/><path clip-rule="evenodd" d="m737.029 1708.47c13.296 0 26.294 3.94 37.349 11.33 11.055 7.38 19.672 17.88 24.76 30.17 5.089 12.28 6.42 25.8 3.826 38.84s-8.997 25.02-18.399 34.42c-9.401 9.4-21.38 15.81-34.421 18.4s-26.558 1.26-38.842-3.83c-12.284-5.08-22.783-13.7-30.17-24.76-7.387-11.05-11.33-24.05-11.33-37.35 0-17.82 7.083-34.92 19.69-47.53 12.608-12.61 29.707-19.69 47.537-19.69zm0 13.44c10.637 0 21.035 3.16 29.879 9.07 8.845 5.91 15.738 14.31 19.808 24.13 4.071 9.83 5.136 20.64 3.061 31.08-2.075 10.43-7.197 20.01-14.719 27.53-7.521 7.53-17.104 12.65-27.537 14.72-10.433 2.08-21.246 1.01-31.074-3.06-9.827-4.07-18.226-10.96-24.136-19.81-5.91-8.84-9.064-19.24-9.064-29.88 0-14.26 5.666-27.94 15.752-38.02 10.086-10.09 23.766-15.76 38.03-15.76z" fill-rule="evenodd"/><path d="m1836.24 1511.71v48.86h-13.39v-124.37c7.1 0 13.92 2.81 18.94 7.8 5.02 5 7.85 11.78 7.85 18.85v48.86zm-27.55-39.98c0 13.65-8.77 25.09-21.57 28.1v60.74h-13.39v-60.74c-12.8-3.01-21.57-14.44-21.57-28.1v-35.53h12.64l-.01 35.53c0 4.13 1.65 8.08 4.58 11 2.93 2.91 6.91 4.55 11.05 4.55 4.15 0 8.12-1.64 11.06-4.55 2.93-2.92 4.57-6.87 4.57-11v-35.53h12.64zm-34.58-35.53h12.63v39.98h-12.63z"/><path d="m1604.26 1288.3h-134.46v13.44h134.46z"/><path clip-rule="evenodd" d="m1604.26 1278.21h-20.11v-8.4h-13.46v8.4h-13.46v-8.4h-13.47v8.4h-13.46v-8.4h-13.46v8.4h-13.47v-8.4h-13.46v8.4h-20.11v-16.8h134.46z" fill-rule="evenodd"/><path clip-rule="evenodd" d="m1490.1 1251.32h-13.57c0-15.15 6.19-29.69 17.23-40.4 11.03-10.72 25.99-16.74 41.59-16.74s30.56 6.02 41.6 16.74c11.03 10.71 17.22 25.25 17.22 40.4h-13.57c0-11.65-4.77-22.83-13.25-31.08-8.49-8.24-20-12.87-32-12.87s-23.51 4.63-32 12.87c-8.48 8.25-13.25 19.43-13.25 31.08z" fill-rule="evenodd"/><path clip-rule="evenodd" d="m1517.1 1251.32h-13.68c0-31.56 14.29-57.14 31.93-57.14s31.93 25.58 31.93 57.14h-13.68c0-24.27-8.17-43.95-18.25-43.95s-18.25 19.68-18.25 43.95z" fill-rule="evenodd"/><path clip-rule="evenodd" d="m964.199 907.304c4.387-.009 8.678 1.292 12.33 3.738 3.651 2.446 6.5 5.927 8.184 10.002 1.685 4.075 2.13 8.561 1.28 12.891-.851 4.33-2.959 8.309-6.058 11.432-3.099 3.124-7.05 5.253-11.352 6.117s-8.762.425-12.816-1.262c-4.053-1.687-7.519-4.546-9.957-8.216-2.438-3.669-3.739-7.983-3.739-12.397-.003-2.926.568-5.824 1.678-8.529 1.111-2.705 2.74-5.163 4.794-7.234 2.055-2.072 4.495-3.715 7.182-4.838 2.686-1.122 5.566-1.701 8.474-1.704zm48.921 53.801h-44.561c-3.543.011-6.937 1.431-9.443 3.952-2.505 2.52-3.917 5.936-3.927 9.5v31.383c.011 3.57 1.423 6.98 3.928 9.5s5.9 3.94 9.442 3.95h44.561c3.55-.01 6.94-1.43 9.45-3.95 2.5-2.52 3.91-5.94 3.92-9.5v-31.383c-.01-3.564-1.42-6.98-3.92-9.5-2.51-2.521-5.9-3.941-9.45-3.952zm32.37 2.761c3.45 3.464 6.18 7.577 8.04 12.104 1.87 4.527 2.83 9.379 2.83 14.279s-.96 9.751-2.83 14.281c-1.86 4.52-4.59 8.64-8.04 12.1l-9.45-9.51c4.45-4.47 6.95-10.542 6.95-16.871 0-6.328-2.5-12.398-6.95-16.873zm-81.291-43.693c1.856-.004 3.672.546 5.217 1.581s2.75 2.508 3.463 4.232.901 3.622.541 5.454-1.252 3.515-2.563 4.837-2.983 2.222-4.803 2.588-3.707.18-5.422-.534-3.181-1.924-4.213-3.476c-1.031-1.553-1.582-3.378-1.582-5.246-.002-2.5.983-4.899 2.739-6.669 1.756-1.769 4.138-2.765 6.623-2.767zm53.321-8.402c2.64.003 5.22.794 7.41 2.272 2.2 1.478 3.9 3.577 4.91 6.032 1.01 2.454 1.27 5.154.75 7.759-.51 2.604-1.79 4.995-3.65 6.872-1.87 1.876-4.25 3.154-6.84 3.67-2.59.517-5.27.25-7.71-.767s-4.52-2.738-5.99-4.947c-1.47-2.208-2.25-4.804-2.25-7.46 0-3.565 1.41-6.982 3.92-9.501s5.91-3.933 9.45-3.93zm.06-13.389c5.28 0 10.44 1.575 14.82 4.524 4.39 2.95 7.81 7.142 9.83 12.047s2.55 10.302 1.52 15.509-3.57 9.99-7.3 13.744c-3.74 3.754-8.49 6.31-13.66 7.346-5.18 1.035-10.54.504-15.42-1.528s-9.042-5.472-11.974-9.886c-2.931-4.415-4.496-9.605-4.496-14.913 0-3.525.69-7.016 2.031-10.273 1.341-3.256 3.306-6.215 5.784-8.708 2.475-2.492 5.415-4.47 8.655-5.819 3.24-1.348 6.71-2.043 10.21-2.043z" fill-rule="evenodd"/><path clip-rule="evenodd" d="m184.649 1522.29h35.854l-4.482-54.06-13.445-7.79-13.445 7.79zm-22.41 45h80.673v-12.73h-80.673zm13.446-22.5h53.781v-12.73h-53.781zm26.891-132.12 8.872 15.66 15.916 2.42-12.595 11.98 3.126 17.28-15.319-8.44-15.319 8.44 3.126-17.28-12.595-11.98 17.705-2.89z" fill-rule="evenodd"/><path clip-rule="evenodd" d="m1563.05 1489.17c3.2 0 6.38.64 9.34 1.89 2.96 1.24 5.65 3.07 7.91 5.37 2.27 2.31 4.07 5.04 5.29 8.05 1.23 3.01 1.86 6.24 1.86 9.5s-.63 6.48-1.86 9.5c-1.22 3.01-3.02 5.74-5.29 8.05-2.26 2.3-4.95 4.13-7.91 5.37-2.96 1.25-6.14 1.89-9.34 1.88l-53.2.01c-4.7-.02-9.2-1.92-12.52-5.3-3.33-3.39-5.2-7.97-5.21-12.75v-31.57h35.46c0-20.89 17.74-22.35 17.74-36.08h12.54c0 20.94-17.73 22.43-17.73 36.08zm-56.88-13.53c0-20.89 17.73-22.35 17.73-36.08h12.55c0 20.89-17.73 22.35-17.73 36.08zm52.45 50.38h4.43c3.14 0 6.15-1.27 8.36-3.53 2.22-2.26 3.47-5.32 3.47-8.51s-1.25-6.25-3.47-8.51c-2.21-2.26-5.22-3.53-8.36-3.53h-4.43zm-75.37 21.78c28.08 0 65.02.01 93.1.01v12.76h-93.1z" fill-rule="evenodd"/><path clip-rule="evenodd" d="m1542.5 1002.5c-1.23 8.04-5.54 15.3-12.02 20.25l-9.52-9.33c4.54-4.26 7.21-7.37 8.04-13.769zm-31.04-7.39v26.88h-13.57v-26.878l-13.57.003c.17 8.465-3.71 22.125-11.44 27.635l-9.8-8.95c2.45-2.53 4.37-5.52 5.65-8.79 1.28-3.28 1.89-6.77 1.79-10.281v-35.679c.03-8.338 3.37-16.328 9.3-22.224 5.94-5.896 13.98-9.219 22.37-9.243l1.21-.002c-.75 2.937-1.08 5.964-.99 8.992.58 22.338 18.23 40.46 40.71 40.46v-8.991c-8.4 0-16.45-3.316-22.39-9.217-5.94-5.902-9.27-13.906-9.27-22.252s3.33-16.35 9.27-22.251c5.94-5.902 13.99-9.217 22.39-9.217h18.1c8.39 0 16.45 3.315 22.38 9.217 5.94 5.901 9.28 13.905 9.28 22.251v31.469c0 1.348-.94 16.507 14.74 21.977l-5.15 11.931c-13.57-4.714-23.16-18.351-23.16-33.908h-9.05v26.973c.02 3.501.8 6.955 2.28 10.135 1.49 3.17 3.64 6 6.32 8.27l-9.53 9.33c-4.02-3.4-7.23-7.65-9.42-12.42-2.19-4.78-3.29-9.98-3.23-15.228-15.08.002-30.16.005-45.22.008zm56.54-58.537c1.34 0 2.65.396 3.77 1.137s1.98 1.794 2.5 3.026c.51 1.232.65 2.588.38 3.896-.26 1.308-.9 2.509-1.85 3.452s-2.16 1.585-3.48 1.846c-1.31.26-2.68.126-3.92-.384-1.24-.511-2.3-1.375-3.04-2.484-.75-1.109-1.15-2.412-1.14-3.746 0-1.788.71-3.503 1.98-4.768 1.28-1.264 3-1.975 4.8-1.975z" fill-rule="evenodd"/><path d="m1807.43 1775.11c2.28-1.3 4.13-3.24 5.31-5.59s1.63-5 1.31-7.61c-.33-2.61-1.42-5.06-3.14-7.05-1.71-1.99-3.98-3.43-6.52-4.13-2.53-.7-5.22-.64-7.71.19-2.5.82-4.7 2.36-6.32 4.43s-2.59 4.58-2.79 7.2.39 5.24 1.68 7.53c1.74 3.08 4.63 5.34 8.04 6.28 3.41.95 7.06.5 10.14-1.25zm-6.53 57.73-34.47-34.46c-6.8-6.81-11.44-15.48-13.33-24.92-1.88-9.43-.93-19.22 2.74-28.12s9.9-16.51 17.89-21.88c7.99-5.36 17.39-8.24 27.02-8.27s19.05 2.79 27.07 8.11c8.03 5.32 14.3 12.89 18.02 21.77 3.73 8.88 4.74 18.66 2.91 28.11s-6.41 18.14-13.18 24.99zm0-18.9 25.16-25.17c4.91-4.97 8.23-11.28 9.56-18.13 1.33-6.86.59-13.96-2.11-20.4s-7.25-11.94-13.08-15.8c-5.82-3.85-12.66-5.9-19.64-5.88-6.99.02-13.81 2.11-19.61 6-5.8 3.9-10.32 9.42-12.98 15.88s-3.36 13.56-1.99 20.41 4.74 13.14 9.68 18.08z"/><path clip-rule="evenodd" d="m683.248 938.045h107.563v81.345h-107.563zm22.741-12.289c1.832-6.889 5.867-12.976 11.479-17.318 5.613-4.341 12.488-6.694 19.562-6.694 7.073 0 13.949 2.353 19.561 6.694 5.612 4.342 9.647 10.429 11.479 17.318l-12.972 3.495c-1.064-4.012-3.412-7.558-6.679-10.087s-7.271-3.899-11.389-3.899c-4.119 0-8.123 1.37-11.39 3.899s-5.615 6.075-6.679 10.087zm12.972 21.124c1.065 4.012 3.412 7.557 6.679 10.086 3.268 2.529 7.271 3.9 11.39 3.9 4.118 0 8.122-1.371 11.389-3.9s5.615-6.074 6.679-10.086l12.972 3.495c-1.832 6.889-5.866 12.977-11.479 17.318-5.612 4.342-12.488 6.695-19.561 6.695-7.074 0-13.95-2.353-19.562-6.695-5.612-4.341-9.647-10.429-11.479-17.318z" fill-rule="evenodd"/><path clip-rule="evenodd" d="m951.522 1547.99h99.298v12.58h-99.298zm15.798-8.88h-6.771v-14.81c-23.711-3.65-31.595-28.53-19.769-46.51-.799-3.88-.715-7.88.248-11.71.964-3.84 2.781-7.42 5.321-10.48s5.739-5.52 9.366-7.22c3.627-1.69 7.59-2.57 11.605-2.57 4.014 0 7.977.88 11.604 2.57 3.627 1.7 6.826 4.16 9.366 7.22s4.358 6.64 5.321 10.48c.963 3.83 1.047 7.83.248 11.71 11.831 17.98 3.942 42.86-19.769 46.51v14.81zm74.44-21c6.29 3.98 13.03 7.22 20.08 9.66l4.6-11.74c-11.91-4.28-24.12-10.49-31.66-20.88-7.54 10.39-19.75 16.6-31.66 20.88l4.6 11.74c7.18-2.54 14.05-5.84 20.5-9.85v21.19h13.54zm15.55-60.32c-8.35-2.79-17.78-7.19-22.53-14.87-4.75 7.68-14.18 12.08-22.53 14.87l4.48 11.8c6.39-2.01 12.47-4.89 18.05-8.55 5.58 3.66 11.66 6.54 18.05 8.55zm4.59 28.89c-10.25-3.62-21-8.98-27.12-18.21-6.13 9.23-16.87 14.59-27.12 18.21l4.55 11.79c7.98-2.81 15.83-5.72 22.57-10.84 6.74 5.12 14.59 8.03 22.57 10.84z" fill-rule="evenodd"/><path d="m1299.38 1183.91-4.31 11.85c-17.8-3.44-36.1-3.44-53.9 0l-4.31-11.85c20.62-4.23 41.9-4.23 62.52 0zm-22.06 81.94h-17.85v11.22h-8.93v-8.83h-8.93v8.83h-8.92v-6.44h-8.93v6.44h-17.85v-31.7c34.41 18.68 92.39 18.69 124.97-.03v31.73h-17.85v-6.44h-8.93v6.44h-8.92v-8.83h-8.93v8.83h-8.93zm-55.31-48.61c4.14-3.29 8.95-5.66 14.09-6.97l4.3 11.85c-3.5.78-6.81 2.22-9.75 4.24zm23.39-9.03c15.04-2.47 30.39-2.46 45.43.02l-4.33 11.94c-7.63-1.7-29.51-1.69-36.75.02zm54.73 2.09c5.33 1.31 10.29 3.8 14.51 7.27l-8.92 8.92c-1.91-1.64-5.35-3.14-9.87-4.38zm-103.57 75.59h143.13v12.49h-143.13zm35.39-87.79c-2.74.82-5.44 1.8-8.07 2.92-9.51 4.08-15.4 9.15-15.4 14.26 0 5.1 5.89 10.18 15.4 14.26 24.26 10.41 64.22 10.41 88.48 0 9.51-4.08 15.4-9.16 15.4-14.26 0-5.11-5.89-10.18-15.4-14.26-2.63-1.12-5.33-2.1-8.07-2.92l4.3-11.84c3.32.98 6.57 2.15 9.75 3.51 14.66 6.29 23.73 14.79 23.73 25.51s-9.07 19.22-23.73 25.51c-28.02 12.02-72.42 12.02-100.44 0-14.66-6.29-23.73-14.79-23.73-25.51s9.07-19.22 23.73-25.51c3.18-1.36 6.44-2.53 9.75-3.51z"/><path clip-rule="evenodd" d="m696.692 1567.29h80.673v-12.57h-80.673zm13.454-22.19h53.81v-12.57h-53.81zm-.001-84.41v17.77h17.937v44.43h17.937v-44.43h17.937v-17.77h-17.937v-17.77h-17.937v17.77z" fill-rule="evenodd"/><path d="m992.454 626.113c-2.575.013-5.089.785-7.224 2.22-2.136 1.435-3.797 3.468-4.773 5.842-.977 2.375-1.226 4.984-.716 7.5.51 2.515 1.756 4.824 3.581 6.634 1.826 1.81 4.149 3.041 6.675 3.537 2.527.496 5.145.236 7.523-.749s4.41-2.65 5.84-4.785 2.19-4.643 2.19-7.21c0-1.71-.34-3.402-1-4.98-.67-1.578-1.63-3.011-2.85-4.217-1.21-1.207-2.656-2.162-4.243-2.813-1.587-.65-3.287-.983-5.003-.979zm3.779 90.455c.893 17.756 3.887 35.187 12.907 50.722l11.77-6.791c-10.1-17.384-12.28-41.345-12.36-57.514v-27.337c8.99 6.111 10.04 16.92 7.56 30.392l11.1 2.26c8.16-28.118-6.4-51.118-34.475-51.185-20.069-.048-30.219 16.601-38.788-3.362l-11.876 5.847c5.576 14.688 19.243 21.001 34.673 15.309v91.464h13.438v-49.805z"/><path d="m1830.2 744.845c7.84-18.923 1.9-37.299-12.31-50.441 6.96-10.219 8.1-27.412 6.49-36.875 5.08-1.476 10.49-1.278 15.45.568 4.95 1.845 9.21 5.241 12.14 9.698l11.11-7.379c-4.61-7.036-11.36-12.352-19.22-15.14-7.87-2.788-16.41-2.895-24.34-.306-.35-3.146-1.84-6.047-4.19-8.137-2.34-2.09-5.37-3.221-8.49-3.171-3.36.069-6.56 1.448-8.94 3.852-2.38 2.403-3.75 5.646-3.84 9.052-.02 3.253 1.18 6.392 3.36 8.78 2.17 2.388 5.17 3.846 8.36 4.078 1.71 9.155.3 19.163-3.17 23.87-6.21-2.644-13.4-3.488-19.47.029-11.35 6.583-9.43 20.068-5.37 30.563l12.36-4.901c-1.15-2.963-4.28-11.732-.44-13.96 4.23-2.455 12.35 2.922 15.45 5.608 14.73 11.142 17.96 24.295 12.33 40.364zm-34.33 8.648c3.17 2.282 6.88 3.676 10.76 4.043 3.87.366 7.77-.308 11.3-1.956l-5.55-12.26c-1.41.659-2.97.929-4.52.782s-3.03-.705-4.3-1.618l-28.93-20.807c-1.27-.913-2.28-2.149-2.93-3.584s-.92-3.018-.78-4.591l-13.23-1.252c-.37 3.93.3 7.888 1.92 11.475 1.63 3.587 4.15 6.678 7.33 8.96zm-4.27 3.737c-1.3-.061-2.6.272-3.72.957s-2.01 1.691-2.57 2.891c-.55 1.201-.75 2.541-.55 3.853.19 1.312.76 2.536 1.64 3.519.88.982 2.02 1.678 3.29 2s2.6.256 3.84-.19c1.23-.447 2.3-1.253 3.08-2.318s1.23-2.34 1.3-3.665c.08-1.782-.54-3.526-1.72-4.848-1.18-1.321-2.83-2.112-4.59-2.199zm-32.52-23.391c-1.31-.061-2.6.272-3.72.957s-2.02 1.691-2.57 2.891c-.56 1.2-.75 2.541-.56 3.853s.77 2.536 1.65 3.519c.87.982 2.02 1.678 3.29 2s2.6.256 3.83-.191c1.23-.446 2.31-1.252 3.08-2.317.78-1.065 1.24-2.34 1.3-3.665.09-1.783-.53-3.526-1.71-4.848-1.18-1.321-2.83-2.112-4.59-2.199zm33.97-99.001c-9.05-3.955-20.99-1.862-28.44 4.618l8.63 10.226c2.02-1.637 4.42-2.722 6.97-3.152s5.16-.191 7.6.694z"/></g></g></svg>