<svg fill="none" height="2000" viewBox="0 0 2000 2000" width="2000" xmlns="http://www.w3.org/2000/svg" xmlns:xlink="http://www.w3.org/1999/xlink"><clipPath id="a"><path d="m0 0h2000v2000h-2000z"/></clipPath><g clip-path="url(#a)"><path d="m0 850.25c0-400.812 0-601.217 124.516-725.734 124.517-124.51600763 324.922-124.516 725.734-124.516h299.5c400.81 0 601.22 0 725.73 124.516 124.52 124.517 124.52 324.922 124.52 725.734v299.5c0 400.81 0 601.22-124.52 725.73-124.51 124.52-324.92 124.52-725.73 124.52h-299.5c-400.812 0-601.217 0-725.734-124.52-124.516-124.51-124.516-324.92-124.516-725.73z" fill="#e97724"/><g fill="#fff"><path d="m357.087 799.901c53.888-24.595 103.675-57.399 147.605-97.252l-58.159-57.649c-70.395 76.286-133.443 121.192-263.533 158.381v78.587c21.86-11.45 44.818-20.647 68.523-27.449 21.933-5.957 44.546-9.014 67.266-9.094 28.279.072 55.689 9.823 77.713 27.646 27.432 22.762 39.667 55.937 35.672 91.245-1.638 21.993-10.11 42.914-24.219 59.814l-7.458-1.44c5.992-13.73 9.338-28.483 9.86-43.471 2.431-53.326-31.454-101.826-100.563-98.233-75.144 3.761-123.917 68.37-115.983 135.174 7.29 61.49 62.209 106.65 126.654 107.72 87.518 2.97 145.259-47.89 167.327-106.29 19.749-52.544 14.637-113.562-22.152-157.177-27.544-33.175-67.099-52.485-108.553-60.512zm33.214 212.969c-5.894 33.23-40.673 54.76-77.658 48.14-36.985-6.63-62.182-38.96-56.26-72.164 5.922-33.203 40.449-53.327 77.658-48.162 37.935 5.248 62.182 38.956 56.26 72.186z"/><path d="m1784.81 1007.71c1.17-5.61 1.74-11.334 1.71-17.067 0-77.408-59.34-133.065-132.22-133.065s-132.24 53.664-132.24 133.065c0 73.337 50.54 133.007 139.42 133.007 53.33 0 86.6-23.15 112.8-59.89l-53.38-36.01c-7.79 12.75-19.13 22.93-32.61 29.28-13.49 6.36-28.52 8.61-43.27 6.48-14.74-2.13-28.53-8.55-39.69-18.47-11.15-9.91-19.17-22.89-23.07-37.33zm-129.17-94.447c16.19-.278 32.03 4.761 45.11 14.35 13.08 9.59 22.68 23.206 27.36 38.78h-144.93c4.68-15.572 14.29-29.185 27.37-38.774 13.07-9.589 28.91-14.629 45.09-14.356z"/><path d="m1831.82 1123.68c19.98 0 36.18-16.27 36.18-36.35 0-20.07-16.2-36.34-36.18-36.34s-36.17 16.27-36.17 36.34c0 20.08 16.19 36.35 36.17 36.35z"/><path d="m1027.01 862.097-136.681 173.623v-173.623h-64.696v255.713h65.199l136.848-174.937v174.937h64.7v-255.713z"/><path d="m1531.7 862.097h-77.96l-70.26 94.444h-25.76v-94.444h-64.83v94.444h-25.78l-70.23-94.444h-77.97l91.77 117.207-91.4 138.506h77.96l69-110.07h26.65v110.07h64.83v-110.07h26.63l69.02 110.07h77.94l-91.37-138.506z"/><path d="m551.425 1009.59c-9.218 33.37-36.147 51.44-64.081 51.44v60.6c64.081 2.58 99.39-24.42 119.587-62.48 24.666-46.47 17.096-114.116 3.101-145.944h111.262v204.554h64.249v-255.663h-249.817s31.119 91.638 15.699 147.493z"/></g></g></svg>