<svg fill="none" height="2001" viewBox="0 0 2001 2001" width="2001" xmlns="http://www.w3.org/2000/svg" xmlns:xlink="http://www.w3.org/1999/xlink"><clipPath id="a"><path d="m.204102.65625h2000v2000h-2000z"/></clipPath><g clip-path="url(#a)"><path d="m2000.2.65625h-1999.995898v2000.00375h1999.995898z" fill="#000"/><g fill="#fff"><path d="m1694.37 1252.35v-5.44l10.87-10.87h-10.87v-21.74l-5.44-5.43-5.43 5.43v21.74h-369.57v10.87h369.57v195.65h-380.44v-255.43h-10.87v48.91h-32.6v-48.91h-10.87v48.91h-54.35v-48.91h-10.87v48.91h-32.61v-48.91h-10.87v255.43h-380.434v-195.65h369.564v-10.87h-369.564v-21.74l-5.435-5.43-5.435 5.43v21.74h-10.869l10.869 10.87v195.65h-10.869v10.87h967.393v-10.87h-10.87zm-543.48-5.44h141.3v141.31h-32.6v-135.87h-10.87v114.73c-14.61-15.01-38.63-15.33-53.63-.72-.25.23-.49.47-.72.72v-114.73h-10.87v135.87h-32.61zm0 152.18h32.61v43.47h-32.61zm43.48 43.47v-47.84c-.25-13.13 8.7-24.65 21.48-27.66 14.71-3.12 29.16 6.28 32.28 20.99.39 1.84.58 3.72.59 5.6v48.91zm65.22 0v-43.47h32.6v43.47z"/><path d="m1183.5 1051.26h-10.87v81.52h10.87z"/><path d="m1270.45 1034.96h-97.82v10.86h97.82z"/><path d="m1270.46 1051.26h-10.87v81.52h10.87z"/><path d="m1248.72 1013.22v-38.048h-54.35v38.048h10.87v-27.179h32.61v27.179z"/><path d="m1221.54 1081.69c7.51 0 13.59-6.09 13.59-13.59s-6.08-13.59-13.59-13.59c-7.5 0-13.58 6.09-13.58 13.59s6.08 13.59 13.58 13.59z"/><path d="m1303.06 1181.69 10.87-10.87h-10.87v-27.17l-5.43-5.44-5.44 5.44v27.17h-141.3v-27.17l-5.44-5.44-5.43 5.44v27.17h-10.87l10.87 10.87z"/><path d="m1313.93 1225.17h358.7l-21.74-10.87h-336.96z"/><path d="m1672.63 1388.21h-358.7v10.87h358.7z"/><path d="m1129.15 1214.3h-336.956l-21.739 10.87h358.695z"/><path d="m1085.67 1257.78h-10.87v119.57h10.87z"/><path d="m1020.46 1257.78h-10.87v119.57h10.87z"/><path d="m955.238 1257.78h-10.87v119.57h10.87z"/><path d="m890.021 1257.78h-10.87v119.57h10.87z"/><path d="m824.803 1257.78h-10.869v119.57h10.869z"/><path d="m1129.15 1388.21h-358.695v10.87h358.695z"/><path d="m1226.98 1100.17h-10.87v27.18h10.87z"/><path d="m1254.15 1051.26h-10.87v81.52h10.87z"/><path d="m1199.8 1051.26h-10.87v81.52h10.87z"/><path d="m1221.54 807.221c10.89.008 19.72-8.811 19.73-19.697 0-5.236-2.08-10.259-5.78-13.96l-7.69 7.685c3.46 3.456 3.46 9.061 0 12.519-3.45 3.458-9.06 3.46-12.52.004-3.45-3.456-3.46-9.061 0-12.519 0-.001 0-.002 0-.004l-7.68-7.685c-7.7 7.694-7.71 20.175-.02 27.877 3.7 3.704 8.73 5.784 13.96 5.78z"/><path d="m1270.46 1029.52 10.86-10.87h-119.56l10.87 10.87z"/><path d="m1194.37 969.738h54.35l5.43-10.87h-12.45l-3.97-11.928-10.82-134.811-10.8.003-10.76 134.811-3.97 11.925h-12.45zm21.46-20.02 5.7-69.437 5.47 68.153 3.37 10.434h-17.59z"/><path d="m1118.28 1409.96h-10.87v21.73h10.87z"/><path d="m1053.06 1409.96h-10.87v21.73h10.87z"/><path d="m987.847 1409.96h-10.869v21.73h10.869z"/><path d="m922.629 1409.96h-10.869v21.73h10.869z"/><path d="m857.412 1409.96h-10.87v21.73h10.87z"/><path d="m1118.28 1257.78h-10.87v21.74h10.87z"/><path d="m1053.06 1257.78h-10.87v21.74h10.87z"/><path d="m987.847 1257.78h-10.869v21.74h10.869z"/><path d="m922.629 1257.78h-10.869v21.74h10.869z"/><path d="m857.412 1257.78h-10.87v21.74h10.87z"/><path d="m792.195 1257.78h-10.87v21.74h10.87z"/><path d="m1118.28 1290.39h-10.87v21.74h10.87z"/><path d="m1053.06 1290.39h-10.87v21.74h10.87z"/><path d="m987.847 1290.39h-10.869v21.74h10.869z"/><path d="m922.629 1290.39h-10.869v21.74h10.869z"/><path d="m857.412 1290.39h-10.87v21.74h10.87z"/><path d="m792.195 1290.39h-10.87v21.74h10.87z"/><path d="m1118.28 1323h-10.87v21.74h10.87z"/><path d="m1226.98 1257.78h-10.87v21.74h10.87z"/><path d="m1226.98 1290.39h-10.87v21.74h10.87z"/><path d="m1226.98 1323h-10.87v21.74h10.87z"/><path d="m1053.06 1323h-10.87v21.74h10.87z"/><path d="m987.847 1323h-10.869v21.74h10.869z"/><path d="m922.629 1323h-10.869v21.74h10.869z"/><path d="m857.412 1323h-10.87v21.74h10.87z"/><path d="m792.195 1323h-10.87v21.74h10.87z"/><path d="m1118.28 1355.61h-10.87v21.74h10.87z"/><path d="m1053.06 1355.61h-10.87v21.74h10.87z"/><path d="m987.847 1355.61h-10.869v21.74h10.869z"/><path d="m922.629 1355.61h-10.869v21.74h10.869z"/><path d="m857.412 1355.61h-10.87v21.74h10.87z"/><path d="m792.195 1355.61h-10.87v21.74h10.87z"/><path d="m792.195 1409.96h-10.87v21.73h10.87z"/><path d="m1661.76 1409.96h-10.87v21.73h10.87z"/><path d="m1596.54 1409.96h-10.87v21.73h10.87z"/><path d="m1531.32 1409.96h-10.86v21.73h10.86z"/><path d="m1466.11 1409.96h-10.87v21.73h10.87z"/><path d="m1400.89 1409.96h-10.87v21.73h10.87z"/><path d="m1661.76 1257.78h-10.87v21.74h10.87z"/><path d="m1596.54 1257.78h-10.87v21.74h10.87z"/><path d="m1531.32 1257.78h-10.86v21.74h10.86z"/><path d="m1466.11 1257.78h-10.87v21.74h10.87z"/><path d="m1400.89 1257.78h-10.87v21.74h10.87z"/><path d="m1335.67 1257.78h-10.87v21.74h10.87z"/><path d="m1661.76 1290.39h-10.87v21.74h10.87z"/><path d="m1596.54 1290.39h-10.87v21.74h10.87z"/><path d="m1531.32 1290.39h-10.86v21.74h10.86z"/><path d="m1466.11 1290.39h-10.87v21.74h10.87z"/><path d="m1400.89 1290.39h-10.87v21.74h10.87z"/><path d="m1335.67 1290.39h-10.87v21.74h10.87z"/><path d="m1661.76 1323h-10.87v21.74h10.87z"/><path d="m1596.54 1323h-10.87v21.74h10.87z"/><path d="m1531.32 1323h-10.86v21.74h10.86z"/><path d="m1466.11 1323h-10.87v21.74h10.87z"/><path d="m1400.89 1323h-10.87v21.74h10.87z"/><path d="m1335.67 1323h-10.87v21.74h10.87z"/><path d="m1661.76 1355.61h-10.87v21.74h10.87z"/><path d="m1596.54 1355.61h-10.87v21.74h10.87z"/><path d="m1531.32 1355.61h-10.86v21.74h10.86z"/><path d="m1466.11 1355.61h-10.87v21.74h10.87z"/><path d="m1400.89 1355.61h-10.87v21.74h10.87z"/><path d="m1335.67 1355.61h-10.87v21.74h10.87z"/><path d="m1335.67 1409.96h-10.87v21.73h10.87z"/><path d="m1281.32 1257.78h-10.86v21.74h10.86z"/><path d="m1281.32 1290.39h-10.86v21.74h10.86z"/><path d="m1281.32 1323h-10.86v21.74h10.86z"/><path d="m1281.32 1355.61h-10.86v21.74h10.86z"/><path d="m1281.32 1409.96h-10.86v21.73h10.86z"/><path d="m1172.63 1257.78h-10.87v21.74h10.87z"/><path d="m1281.32 1198h-10.86v21.74h10.86z"/><path d="m1172.63 1198h-10.87v21.74h10.87z"/><path d="m1172.63 1290.39h-10.87v21.74h10.87z"/><path d="m1172.63 1323h-10.87v21.74h10.87z"/><path d="m1172.63 1355.61h-10.87v21.74h10.87z"/><path d="m1172.63 1409.96h-10.87v21.73h10.87z"/><path d="m1368.28 1257.78h-10.87v119.57h10.87z"/><path d="m1433.5 1257.78h-10.87v119.57h10.87z"/><path d="m1498.72 1257.78h-10.87v119.57h10.87z"/><path d="m1563.93 1257.78h-10.87v119.57h10.87z"/><path d="m1629.15 1257.78h-10.87v119.57h10.87z"/><path d="m1237.85 1225.17v-27.17h-32.61v27.17zm-21.74-16.3h10.87v5.43h-10.87z"/><path d="m1275.89 1165.39v-27.18h-108.7v27.18h10.87v-16.31h86.96v16.31z"/><path d="m1462.45 1728.67-7.23-9.64-8.65 16.58-8.65-16.58-7.23 9.64 15.88 30.43z"/><path d="m1691.14 1931.6v-59.78h-10.87v54.34h-271.74v-54.34h-10.87v86.95h-10.87v10.87h315.22v-10.87h-10.87zm-10.87 27.17h-271.74v-21.74h271.74z"/><path d="m1696.57 1648.99 10.87-10.87h-326.09l10.87 10.87z"/><path d="m1658.53 1567.47h-228.26v10.87h228.26z"/><path d="m1696.57 1855.51h-304.35v10.87h304.35z"/><path d="m1462.87 1942.47h-16.3v10.87h16.3z"/><path d="m1522.66 1942.47h-16.31v10.87h16.31z"/><path d="m1582.44 1942.47h-16.31v10.87h16.31z"/><path d="m1642.22 1942.47h-16.3v10.87h16.3z"/><path d="m1441.14 1768.56h-10.87v76.08h10.87z"/><path d="m1462.87 1768.56h-10.87v76.08h10.87z"/><path d="m1527.67 1728.67-7.23-9.64-8.65 16.58-8.65-16.58-7.23 9.64 15.88 30.43z"/><path d="m1506.35 1768.56h-10.87v76.08h10.87z"/><path d="m1528.09 1768.56h-10.87v76.08h10.87z"/><path d="m1592.88 1728.67-7.22-9.64-8.66 16.58-8.64-16.58-7.24 9.64 15.88 30.43z"/><path d="m1571.57 1768.56h-10.87v76.08h10.87z"/><path d="m1658.1 1728.67-7.23-9.64-8.65 16.58-8.64-16.58-7.24 9.64 15.88 30.43z"/><path d="m1636.79 1768.56h-10.87v76.08h10.87z"/><path d="m1593.31 1768.56h-10.87v76.08h10.87z"/><path d="m1658.53 1768.56h-10.87v76.08h10.87z"/><path d="m1479.18 1920.73v-21.74c1.12-13.5-8.92-25.36-22.43-26.48s-25.36 8.92-26.48 22.43c-.12 1.35-.12 2.7 0 4.05v21.74h10.87v-21.74c-1.09-7.5 4.11-14.47 11.61-15.56 7.51-1.08 14.47 4.12 15.56 11.62.19 1.31.19 2.64 0 3.94v21.74z"/><path d="m1538.96 1920.73v-21.74c1.12-13.5-8.92-25.36-22.43-26.48-13.5-1.12-25.36 8.92-26.48 22.43-.11 1.35-.11 2.7 0 4.05v21.74h10.87v-21.74c-1.09-7.5 4.11-14.47 11.61-15.56 7.51-1.08 14.47 4.12 15.56 11.62.19 1.31.19 2.64 0 3.94v21.74z"/><path d="m1598.75 1920.73v-21.74c1.12-13.5-8.93-25.36-22.43-26.48-13.51-1.12-25.37 8.92-26.49 22.43-.11 1.35-.11 2.7 0 4.05v21.74h10.87v-21.74c-1.09-7.5 4.11-14.47 11.62-15.56 7.5-1.08 14.47 4.12 15.56 11.62.19 1.31.19 2.64 0 3.94v21.74z"/><path d="m1658.53 1920.73v-21.74c1.12-13.5-8.92-25.36-22.43-26.48s-25.37 8.92-26.49 22.43c-.11 1.35-.11 2.7 0 4.05v21.74h10.87v-21.74c-1.09-7.5 4.12-14.47 11.62-15.56 7.5-1.08 14.47 4.12 15.56 11.62.19 1.31.19 2.64 0 3.94v21.74z"/><path d="m1669.4 1833.77v5.44 5.43h16.3v-10.87h-5.44v-157.6h-10.86v33.14l-22.83-27.71-8.7-5.43-22.82 33.14v-33.14h-10.87v33.14l-22.83-33.14h-8.69l-22.83 33.14v-27.71h-10.87v27.71l-22.83-33.14h-8.69l-22.83 33.14v-27.71h-10.87v27.71l-22.82-33.14h-8.7l-22.82 33.14v-27.71h-10.87v152.17h-5.44v10.87h16.31v-5.43-5.44-90.58-16.3l24.18-32.25 2.99-3.98 2.99 3.98 24.18 32.25v16.3 101.45h10.87v-101.45-16.3l24.19-32.25 2.99-3.98 2.99 3.98 24.18 32.25v16.3 90.58 10.87h10.87v-10.87-90.58-16.3l24.18-32.25 2.99-3.98 2.99 3.98 24.19 32.25v16.3 101.45h10.87v-101.45-16.3l24.18-32.25 2.99-3.98 2.99 3.98 24.19 32.25v16.3z"/><path d="m1685.7 1616.38h-10.87v16.31h10.87z"/><path d="m1582.44 1616.38h-10.87v16.31h10.87z"/><path d="m1517.22 1616.38h-10.87v16.31h10.87z"/><path d="m1413.96 1616.38h-10.87v16.31h10.87z"/><path d="m1642.22 1627.25h10.87v-10.87-32.6h-217.39v32.6 10.87h10.87v-10.87-21.74h27.17v21.74 10.87h10.87v-10.87-21.74h54.35v21.74 10.87h10.87v-10.87-21.74h54.35v21.74 10.87h10.87v-10.87-21.74h27.17v21.74z"/><path d="m1544.4 1545.85c32.89.61 62.19 6.59 80.66 16.19h19.24c-17.11-15.48-52.38-25.49-94.47-26.97v-.21c-1.83 0-3.63.05-5.43.08-1.81-.03-3.61-.08-5.44-.08v.21c-42.08 1.48-77.36 11.49-94.47 26.97h19.24c18.48-9.6 47.77-15.58 80.67-16.19z"/><path d="m1397.66 1654.43 10.87 10.87h271.73l10.87-10.87z"/><path d="m1560.7 1518.56h-32.61v10.87h32.61z"/><path d="m1021.98 383.186h-217.39v146.739h-10.869v10.869h239.129v-10.869h-10.87zm-10.87 146.739h-54.346v-65.218l-10.869 10.87v54.348h-130.435v-135.87h54.348v108.696l10.869-10.87v-97.826h65.218v32.609l10.869-10.87v-21.739h54.346z"/><path d="m947.824 182.1h-69.076l-100.334 81.521h269.746zm-69.026 13.964-8.99 45.818h10.87l9.782-48.913h45.864l9.783 48.913h10.658l-8.786-45.652 69.561 56.522h-208.513z"/><path d="m880.678 171.229h10.869v-21.739h43.479v21.739h10.869v-21.739h18.555l-51.163-51.1638-51.164 51.1638h18.555zm32.609-57.532 24.923 24.923h-49.847z"/><path d="m945.895 361.447h-65.217v10.87h65.217z"/><path d="m869.808 361.447h-65.217v10.87h65.217z"/><path d="m1021.98 361.447h-65.215v10.87h65.215z"/><path d="m945.895 317.969h-16.304v10.869h16.304z"/><path d="m1021.98 317.969h-65.215v10.869h65.215z"/><path d="m896.982 317.969h-16.304v10.869h16.304z"/><path d="m869.808 317.969h-65.217v10.869h65.217z"/><path d="m1021.98 339.707h-65.215v10.87h65.215z"/><path d="m945.895 339.707h-16.304v10.87h16.304z"/><path d="m896.982 339.707h-16.304v10.87h16.304z"/><path d="m869.808 339.707h-65.217v10.87h65.217z"/><path d="m945.895 296.229h-16.304v10.869h16.304z"/><path d="m1021.98 296.229h-65.215v10.869h65.215z"/><path d="m869.808 296.229h-65.217v10.869h65.217z"/><path d="m896.982 296.229h-16.304v10.869h16.304z"/><path d="m945.895 274.49h-65.217v10.87h65.217z"/><path d="m1021.98 274.49h-65.215v10.87h65.215z"/><path d="m869.808 274.49h-65.217v10.87h65.217z"/><path d="m918.721 160.359h-10.869v10.87h10.869z"/><path d="m935.025 464.707h-16.304v10.87h16.304z"/><path d="m918.721 481.012h-16.304v10.869h16.304z"/><path d="m902.417 497.316h-16.305v10.87h16.305z"/><path d="m886.112 513.621h-16.304v10.87h16.304z"/><path d="m951.33 448.402h-16.305v10.87h16.305z"/><path d="m967.634 432.1h-16.304v10.869h16.304z"/><path d="m983.938 415.795h-16.304v10.869h16.304z"/><path d="m1000.24 399.49h-16.302v10.87h16.302z"/><path d="m989.231 454.677c-8.562-2.891-17.846 1.706-20.737 10.267-.566 1.675-.856 3.431-.86 5.199v38.043h10.869v-38.043c0-3.002 2.434-5.435 5.435-5.435 3.002 0 5.435 2.433 5.435 5.435v38.043h10.867v-37.522c.16-7.146-4.275-13.591-11.009-15.987z"/><path d="m847.927 454.677c-8.562-2.891-17.846 1.706-20.737 10.267-.566 1.675-.856 3.431-.86 5.199v38.043h10.87v-38.043c0-3.002 2.433-5.435 5.434-5.435 3.002 0 5.435 2.433 5.435 5.435v38.043h10.87v-37.522c.162-7.146-4.277-13.591-11.012-15.987z"/><path d="m1002.96 976.867v-86.957h-86.956v86.957h10.869v-76.087h65.218v76.087z"/><path d="m921.438 884.475h10.87v-10.869h54.348v10.869h10.869v-21.739h-76.087z"/><path d="m899.7 993.172h125v70.648h10.87v-81.517h-146.74v27.177h10.87z"/><path d="m725.787 1025.78h266.304v38.04h10.869v-48.91h-288.043v48.91h10.87z"/><path d="m1057.31 1085.56h-364.132v10.87h364.132z"/><path d="m1041 1069.26h-331.519v10.87h331.519z"/><path d="m1073.61 1101.87h-396.737v10.87h396.737z"/><path d="m947.629 792.084-9.054 54.348h-11.701v10.869h65.217v-10.869h-10.869v-27.174h-10.87v27.174h-20.761l9.06-54.348z"/><path d="m951.354 710.563h9.825l9.823-4.912-.468-4.911-3.07-6.143c-1.166-2.331-3.313-4.02-5.854-4.604l-2.43-.559c-.773-.178-1.577-.172-2.347.018l-5.946 1.464-2.276 3.682-1.608 3.747c-.649 1.511-.566 3.237.223 4.68z"/><path d="m912.151 715.008 30.032 10.011-19.614 83.37h11.168l19.18-81.522h15.788l24.456 16.304-6.896 4.598-8.049-4.022-4.859 9.723 7.864 3.929v45.555h-16.304v10.869h27.174v-56.875l10.869-7.244v-13.065l-30.962-20.642h-22.505l-29.636-9.88-10.255-20.511-2.218-2.217h-15.369l8.652 8.652z"/><path d="m888.83 1036.65h-10.87v10.87h10.87z"/><path d="m926.872 1036.65h-10.869v10.87h10.869z"/><path d="m910.569 1036.65h-16.304v10.87h16.304z"/><path d="m948.612 1036.65h-16.304v10.87h16.304z"/><path d="m970.351 1036.65h-16.304v10.87h16.304z"/><path d="m2548.85 377.346-17.81-.213v11.083h15.57l320.66 92.391 11.6.214v48.699h-358.7v-184.782h-151.19l5.43-32.609h-72.61l5.43 32.609h-145.75v184.782h-358.7v-48.913h11.63l320.66-92.391h15.54v-10.87h-17.08l-320.65 92.392h-20.97v70.652h1097.83v-70.652h-20.97zm-234.22-54.348h46.95l-3.62 21.74h-39.71zm-120.55 206.522v-97.29c0-9.005 7.3-16.304 16.31-16.304 9 0 16.3 7.299 16.3 16.304v97.29zm65.22 0v-96.705c-.16-7.16 4.27-13.621 11.02-16.04 8.54-2.902 17.82 1.672 20.72 10.218.58 1.686.87 3.455.87 5.237v97.29zm81.52 0h-16.3v-97.29c0-9.005 7.3-16.304 16.3-16.304 9.01 0 16.31 7.299 16.31 16.304v97.29zm48.92 0v-96.705c-.17-7.16 4.27-13.621 11.01-16.04 8.55-2.902 17.82 1.672 20.73 10.218.57 1.686.86 3.455.87 5.237v97.29zm65.21 0v-97.29c0-9.005 7.3-16.304 16.31-16.304 9 0 16.3 7.299 16.3 16.304v97.29zm43.48 0v-96.225c.25-13.128-8.7-24.648-21.48-27.657-14.71-3.116-29.16 6.281-32.27 20.989-.4 1.842-.59 3.72-.6 5.603v97.29h-10.87v-96.165c.25-13.144-8.7-24.682-21.49-27.713-14.69-3.122-29.14 6.261-32.26 20.957-.39 1.851-.59 3.738-.59 5.631v97.29h-10.87v-96.225c.24-13.128-8.71-24.648-21.49-27.657-14.71-3.116-29.15 6.281-32.27 20.989-.39 1.842-.59 3.72-.59 5.603v97.29h-10.87v-96.165c.25-13.144-8.7-24.683-21.49-27.713-14.7-3.121-29.14 6.261-32.26 20.957-.4 1.851-.6 3.738-.6 5.631v97.29h-10.87v-96.225c.25-13.129-8.7-24.649-21.48-27.658-14.71-3.115-29.16 6.282-32.27 20.99-.39 1.842-.59 3.72-.6 5.603v97.29h-10.86v-173.913h336.95v173.913z"/><path d="m1743 197.998 10.87 10.87h1173.91l10.87-10.87z"/><path d="m1934.55 279.52 2.07 27.173h10.9l-2.07-27.173z"/><path d="m1955.95 417.422-1.81-23.772h-10.9l2.04 26.848z"/><path d="m1937.45 317.562 2.07 27.174h10.9l-2.07-27.174z"/><path d="m1940.34 355.605 2.07 27.174h10.9l-2.07-27.174z"/><path d="m1931.65 241.477 2.07 27.173h10.9l-2.07-27.173z"/><path d="m1882.15 317.562 2.53 27.174h10.91l-2.52-27.174z"/><path d="m1885.69 355.605 2.53 27.174h10.91l-2.53-27.174z"/><path d="m1903.75 432.466-3.61-38.816h-10.91l3.89 41.875z"/><path d="m1875.08 241.477 2.53 27.173h10.91l-2.53-27.173z"/><path d="m1878.62 279.52 2.52 27.173h10.92l-2.53-27.173z"/><path d="m1826.84 241.477 2.98 27.173h10.93l-2.98-27.173z"/><path d="m1839.36 355.605 2.99 27.174h10.93l-2.98-27.174z"/><path d="m1835.19 317.562 2.98 27.174h10.94l-2.99-27.174z"/><path d="m1831.02 279.52 2.97 27.173h10.94l-2.99-27.173z"/><path d="m1843.54 393.65 2.98 27.174h10.94l-2.98-27.174z"/><path d="m1860.12 445.036-1.47-13.343h-10.93l1.8 16.397z"/><path d="m1796.48 317.562 3.43 27.174h10.96l-3.44-27.174z"/><path d="m1806.05 306.693-3.44-27.173h-10.95l3.44 27.173z"/><path d="m1797.8 241.477h-10.95l3.44 27.173h10.95z"/><path d="m1824.85 455.199-2.97-23.506h-10.96l3.36 26.549z"/><path d="m1801.29 355.605 3.44 27.174h10.95l-3.44-27.174z"/><path d="m1806.1 393.65 3.44 27.174h10.96l-3.44-27.174z"/><path d="m1775.61 230.606h1130.43l10.87-10.87h-1152.17z"/><path d="m1884.3 524.085v-10.06c.31-11.968-9.13-21.924-21.1-22.238-3.17-.083-6.32.53-9.23 1.797-7.83 4.124-12.85 12.129-13.15 20.974v9.527h10.87v-10.157c-.24-5.98 4.41-11.023 10.39-11.263 2.53-.102 5.01.682 7.02 2.216 2.74 2.043 4.35 5.265 4.33 8.683v10.521z"/><path d="m2036.48 524.085v-42.891c.4-16.498-12.65-30.198-29.15-30.601-5.62-.137-11.17 1.315-16 4.191-8.78 6.002-14.21 15.801-14.64 26.428v42.873h10.87v-42.858c-.15-6.923 3.38-13.41 9.27-17.04 7.65-4.553 17.44-3.198 23.57 3.262 3.46 3.78 5.33 8.754 5.21 13.879v42.757z"/><path d="m1954.95 524.086v-26.616c.13-5.803-1.77-11.469-5.38-16.019-7.66-9.469-21.1-11.894-31.59-5.699-7.16 4.894-11.58 12.883-11.94 21.548v26.786h10.87v-27.267c.02-6.047 4.02-11.359 9.82-13.055 7.21-2.079 14.74 2.082 16.82 9.293.36 1.223.53 2.489.53 3.762v27.267z"/><path d="m-441.274 1390.88h489.1304v81.53h10.8696v-92.4h-510.87v92.4h10.87z"/><path d="m221.77 1505.01h-842.391v10.87h842.391z"/><path d="m-721.165 1635.45h603.261l24.4569-32.61h-538.0439v-108.7h864.131v173.91h-10.87v-27.17h-10.869v27.17h-38.044v-27.17h-10.869v27.17h-38.044v-27.17h-10.869v27.17h-38.0439v-27.17h-10.8695v27.17h-38.0435v-27.17h-10.8696v27.17h-38.0435v-27.17h-10.8695v27.17h-38.0435v-27.17h-10.8696v27.17h-38.0434v-16.3h-10.87v16.3h-38.043v-16.3h-10.87v16.3h-38.043v-16.3h-10.87v16.3h-38.043v-16.3h-10.87v16.3h-38.043v-16.3h-10.87v16.3h-38.043v-16.3h-10.87v16.3h-38.043v-16.3h-10.87v16.3h-38.043v-16.3h-10.87v16.3h-38.043v-16.3h-10.87v16.3h-38.043v-16.3h-10.87v16.3h-38.044v-16.3h-10.869v16.3h-38.044v-16.3h-10.869v16.3h-38.044v-16.3h-10.869v16.3h-16.305v10.87h978.261v-195.65h-885.869v119.57h-103.261zm86.957-21.74h516.304l-8.152 10.87h-592.391l-8.152-10.87z"/><path d="m26.1186 1521.31h-10.8696v97.83h10.8696z"/><path d="m75.0317 1521.31h-10.8696v97.83h10.8696z"/><path d="m123.945 1521.31h-10.87v97.83h10.87z"/><path d="m172.858 1521.31h-10.87v97.83h10.87z"/><path d="m221.77 1521.31h-10.87v97.83h10.87z"/><path d="m221.769 1635.45v-10.87h-309.7822l-10.8696 10.87z"/><path d="m254.379 1684.36h-1000v10.87h1000z"/><path d="m265.249 1700.66h-1021.739v10.87h1021.739z"/><path d="m36.9873 1407.19h-10.8696v19.12l-25.130395 20.11 6.788045 8.48 27.17395-21.73 2.038-4.24z"/><path d="m-11.9263 1448.14 30.1902-20.13-6.0326-9.04-32.6087 21.74-2.4185 4.52v27.17h10.8696z"/><path d="m4.37933 1461.53h-10.86956v10.87h10.86956z"/><path d="m15.248 1456.1v16.31h10.8696v-10.87h10.8696v-10.87h-16.3044z"/><path d="m20.683 1401.75h-10.86952v10.87h10.86952z"/><path d="m-8.08331 1427.33 10.86957-10.87-7.68478-7.68-9.27718 9.28h-24.9239v10.87h27.1739z"/><path d="m585.664 1649.03h-10.869v10.87h10.869z"/><path d="m585.664 1551.21h-10.869v10.87h10.869z"/><path d="m585.664 1518.6h-10.869v10.87h10.869z"/><path d="m585.664 1583.82h-10.869v10.87h10.869z"/><path d="m585.664 1616.43h-10.869v10.87h10.869z"/><path d="m585.664 1485.99h-10.869v10.87h10.869z"/><path d="m585.664 1453.38h-10.869v10.87h10.869z"/><path d="m569.361 1665.34h-10.87v10.87h10.87z"/><path d="m569.361 1632.73h-10.87v10.87h10.87z"/><path d="m569.361 1534.9h-10.87v10.87h10.87z"/><path d="m569.361 1502.29h-10.87v10.87h10.87z"/><path d="m569.361 1567.51h-10.87v10.87h10.87z"/><path d="m569.361 1600.12h-10.87v10.87h10.87z"/><path d="m553.056 1649.03h-10.869v10.87h10.869z"/><path d="m553.056 1616.43h-10.869v10.87h10.869z"/><path d="m536.751 1665.34h-10.869v10.87h10.869z"/><path d="m536.751 1632.73h-10.869v10.87h10.869z"/><path d="m536.751 1600.12h-10.869v10.87h10.869z"/><path d="m520.448 1649.03h-10.87v10.87h10.87z"/><path d="m520.448 1616.43h-10.87v10.87h10.87z"/><path d="m504.143 1665.34h-10.87v10.87h10.87z"/><path d="m504.143 1632.73h-10.87v10.87h10.87z"/><path d="m504.143 1600.12h-10.87v10.87h10.87z"/><path d="m569.361 1437.08h-10.87v10.87h10.87z"/><path d="m569.361 1469.69h-10.87v10.87h10.87z"/><path d="m601.969 1665.34h-10.869v10.87h10.869z"/><path d="m601.969 1632.73h-10.869v10.87h10.869z"/><path d="m601.969 1534.9h-10.869v10.87h10.869z"/><path d="m601.969 1502.29h-10.869v10.87h10.869z"/><path d="m601.969 1567.51h-10.869v10.87h10.869z"/><path d="m601.969 1600.12h-10.869v10.87h10.869z"/><path d="m601.969 1437.08h-10.869v10.87h10.869z"/><path d="m601.969 1469.69h-10.869v10.87h10.869z"/><path d="m438.925 1534.9h-10.869v10.87h10.869z"/><path d="m471.535 1534.9h-10.87v10.87h10.87z"/><path d="m455.23 1551.21h-10.87v10.87h10.87z"/><path d="m438.925 1502.29h-10.869v10.87h10.869z"/><path d="m471.535 1502.29h-10.87v10.87h10.87z"/><path d="m455.23 1518.6h-10.87v10.87h10.87z"/><path d="m487.838 1518.6h-10.869v10.87h10.869z"/><path d="m520.448 1518.6h-10.87v10.87h10.87z"/><path d="m504.143 1534.9h-10.87v10.87h10.87z"/><path d="m553.056 1518.6h-10.869v10.87h10.869z"/><path d="m536.751 1534.9h-10.869v10.87h10.869z"/><path d="m487.838 1485.99h-10.869v10.87h10.869z"/><path d="m520.448 1485.99h-10.87v10.87h10.87z"/><path d="m504.143 1502.29h-10.87v10.87h10.87z"/><path d="m553.056 1485.99h-10.869v10.87h10.869z"/><path d="m455.23 1485.99h-10.87v10.87h10.87z"/><path d="m536.751 1502.29h-10.869v10.87h10.869z"/><path d="m487.838 1551.21h-10.869v10.87h10.869z"/><path d="m520.448 1551.21h-10.87v10.87h10.87z"/><path d="m504.143 1567.51h-10.87v10.87h10.87z"/><path d="m553.056 1551.21h-10.869v10.87h10.869z"/><path d="m536.751 1567.51h-10.869v10.87h10.869z"/><path d="m520.448 1583.82h-10.87v10.87h10.87z"/><path d="m536.751 1730.55h-10.869v10.87h10.869z"/><path d="m536.751 1697.95h-10.869v10.87h10.869z"/><path d="m520.448 1746.86h-10.87v10.87h10.87z"/><path d="m520.448 1714.25h-10.87v10.87h10.87z"/><path d="m504.143 1730.55h-10.87v10.87h10.87z"/><path d="m536.751 1763.16h-10.869v10.87h10.869z"/><path d="m504.143 1763.16h-10.87v10.87h10.87z"/><path d="m504.143 1697.95h-10.87v10.87h10.87z"/><path d="m601.969 1730.55h-10.869v10.87h10.869z"/><path d="m601.969 1697.95h-10.869v10.87h10.869z"/><path d="m585.664 1746.86h-10.869v10.87h10.869z"/><path d="m585.664 1714.25h-10.869v10.87h10.869z"/><path d="m569.361 1730.55h-10.87v10.87h10.87z"/><path d="m601.969 1763.16h-10.869v10.87h10.869z"/><path d="m634.578 1730.55h-10.87v10.87h10.87z"/><path d="m618.274 1746.86h-10.87v10.87h10.87z"/><path d="m618.274 1714.25h-10.87v10.87h10.87z"/><path d="m634.578 1763.16h-10.87v10.87h10.87z"/><path d="m569.361 1763.16h-10.87v10.87h10.87z"/><path d="m765.012 1730.55h-10.869v10.87h10.869z"/><path d="m748.708 1746.86h-10.869v10.87h10.869z"/><path d="m732.404 1730.55h-10.87v10.87h10.87z"/><path d="m765.012 1763.16h-10.869v10.87h10.869z"/><path d="m797.622 1730.55h-10.87v10.87h10.87z"/><path d="m781.317 1746.86h-10.87v10.87h10.87z"/><path d="m813.925 1746.86h-10.869v10.87h10.869z"/><path d="m797.622 1763.16h-10.87v10.87h10.87z"/><path d="m732.404 1763.16h-10.87v10.87h10.87z"/><path d="m569.361 1697.95h-10.87v10.87h10.87z"/><path d="m667.186 1697.95h-10.87v10.87h10.87z"/><path d="m650.882 1714.25h-10.869v10.87h10.869z"/><path d="m683.491 1714.25h-10.87v10.87h10.87z"/><path d="m634.578 1697.95h-10.87v10.87h10.87z"/><path d="m732.404 1697.95h-10.87v10.87h10.87z"/><path d="m716.099 1714.25h-10.87v10.87h10.87z"/><path d="m748.708 1714.25h-10.869v10.87h10.869z"/><path d="m699.795 1697.95h-10.869v10.87h10.869z"/><path d="m797.622 1697.95h-10.87v10.87h10.87z"/><path d="m781.317 1714.25h-10.87v10.87h10.87z"/><path d="m813.925 1714.25h-10.869v10.87h10.869z"/><path d="m765.012 1697.95h-10.869v10.87h10.869z"/><path d="m830.23 1730.55h-10.87v10.87h10.87z"/><path d="m830.23 1763.16h-10.87v10.87h10.87z"/><path d="m862.838 1730.55h-10.869v10.87h10.869z"/><path d="m846.535 1746.86h-10.87v10.87h10.87z"/><path d="m879.143 1746.86h-10.87v10.87h10.87z"/><path d="m862.838 1763.16h-10.869v10.87h10.869z"/><path d="m862.838 1697.95h-10.869v10.87h10.869z"/><path d="m846.535 1714.25h-10.87v10.87h10.87z"/><path d="m879.143 1714.25h-10.87v10.87h10.87z"/><path d="m862.838 1665.34h-10.869v10.87h10.869z"/><path d="m846.535 1681.64h-10.87v10.87h10.87z"/><path d="m879.143 1681.64h-10.87v10.87h10.87z"/><path d="m862.838 1632.73h-10.869v10.87h10.869z"/><path d="m846.535 1649.03h-10.87v10.87h10.87z"/><path d="m879.143 1649.03h-10.87v10.87h10.87z"/><path d="m862.838 1600.12h-10.869v10.87h10.869z"/><path d="m846.535 1616.43h-10.87v10.87h10.87z"/><path d="m879.143 1616.43h-10.87v10.87h10.87z"/><path d="m846.535 1583.82h-10.87v10.87h10.87z"/><path d="m879.143 1583.82h-10.87v10.87h10.87z"/><path d="m895.448 1600.12h-10.87v10.87h10.87z"/><path d="m911.751 1616.43h-10.869v10.87h10.869z"/><path d="m911.751 1583.82h-10.869v10.87h10.869z"/><path d="m928.056 1600.12h-10.869v10.87h10.869z"/><path d="m944.361 1616.43h-10.87v10.87h10.87z"/><path d="m944.361 1583.82h-10.87v10.87h10.87z"/><path d="m960.664 1600.12h-10.869v10.87h10.869z"/><path d="m976.969 1616.43h-10.869v10.87h10.869z"/><path d="m976.969 1583.82h-10.869v10.87h10.869z"/><path d="m993.273 1600.12h-10.87v10.87h10.87z"/><path d="m1009.58 1616.43h-10.872v10.87h10.872z"/><path d="m1009.58 1583.82h-10.872v10.87h10.872z"/><path d="m1025.88 1600.12h-10.87v10.87h10.87z"/><path d="m1042.19 1616.43h-10.87v10.87h10.87z"/><path d="m1042.19 1583.82h-10.87v10.87h10.87z"/><path d="m1058.49 1600.12h-10.87v10.87h10.87z"/><path d="m1074.8 1616.43h-10.87v10.87h10.87z"/><path d="m1074.8 1583.82h-10.87v10.87h10.87z"/><path d="m1091.1 1600.12h-10.87v10.87h10.87z"/><path d="m1107.4 1616.43h-10.87v10.87h10.87z"/><path d="m1107.4 1583.82h-10.87v10.87h10.87z"/><path d="m1123.71 1600.12h-10.87v10.87h10.87z"/><path d="m1140.01 1616.43h-10.87v10.87h10.87z"/><path d="m1140.01 1583.82h-10.87v10.87h10.87z"/><path d="m1156.32 1600.12h-10.87v10.87h10.87z"/><path d="m1172.62 1616.43h-10.87v10.87h10.87z"/><path d="m1172.62 1583.82h-10.87v10.87h10.87z"/><path d="m1188.93 1600.12h-10.87v10.87h10.87z"/><path d="m1205.23 1616.43h-10.87v10.87h10.87z"/><path d="m1205.23 1583.82h-10.87v10.87h10.87z"/><path d="m1221.53 1600.12h-10.86v10.87h10.86z"/><path d="m1237.84 1616.43h-10.87v10.87h10.87z"/><path d="m1237.84 1583.82h-10.87v10.87h10.87z"/><path d="m830.23 1697.95h-10.87v10.87h10.87z"/><path d="m520.448 1681.64h-10.87v10.87h10.87z"/><path d="m553.056 1583.82h-10.869v10.87h10.869z"/><path d="m438.925 1437.08h-10.869v10.87h10.869z"/><path d="m471.535 1437.08h-10.87v10.87h10.87z"/><path d="m455.23 1453.38h-10.87v10.87h10.87z"/><path d="m438.925 1469.69h-10.869v10.87h10.869z"/><path d="m471.535 1469.69h-10.87v10.87h10.87z"/><path d="m504.143 1437.08h-10.87v10.87h10.87z"/><path d="m536.751 1437.08h-10.869v10.87h10.869z"/><path d="m487.838 1453.38h-10.869v10.87h10.869z"/><path d="m520.448 1453.38h-10.87v10.87h10.87z"/><path d="m504.143 1469.69h-10.87v10.87h10.87z"/><path d="m553.056 1453.38h-10.869v10.87h10.869z"/><path d="m536.751 1469.69h-10.869v10.87h10.869z"/><path d="m1297.62 1632.73h-413.042v10.87h413.042z"/><path d="m536.751 1844.69h-255.435v10.87h255.435z"/><path d="m536.752 1828.38h-173.913v10.87h173.913z"/><path d="m536.751 1812.08h-157.608v10.87h157.608z"/><path d="m536.752 1795.77h-141.305v10.87h141.305z"/><path d="m1248.71 1844.69h-179.35v10.87h179.35z"/><path d="m1216.1 1828.38h-146.74v10.87h146.74z"/><path d="m1183.49 1812.08h-114.13v10.87h114.13z"/><path d="m1150.88 1795.77h-81.52v10.87h81.52z"/><path d="m1297.62 1860.99v-70.65h5.44v-10.87h-21.74v-21.74h-10.87v21.74h-65.22v-21.74h-10.87v21.74h-65.22v-21.74h-10.87v21.74h-70.65v-21.74h-10.87v21.74h-65.216v-21.74h-10.869v21.74h-65.218v-27.17h402.173v-10.87h-413.042v38.04h-168.479v-48.91h-76.087v48.91h-86.956v-86.96h277.174v-114.13h413.04v48.92h10.87v-59.79h-434.78v114.13h-201.087v-103.26h54.348v59.78h25.433l53.263 38.05h18.695l-53.259-38.05h97.173v-10.86h-130.435v-48.92h130.435v-10.87h-195.653v-146.74h-206.521v163.05h65.217v10.87h-81.522l16.305 10.87h65.217v27.17h-38.043v-21.74h-10.87v21.74h-21.739v114.13h70.652v32.61h-38.043v-27.17h-10.87v27.17h-10.87v10.87h125v70.65h-271.739v10.87h1043.483v-10.87zm-646.738-119.56h54.348v38.04h-54.348zm-233.696-5.44v-92.39h59.783v92.39zm70.653 43.48v-206.52h-65.218v-141.31h184.783v250h-65.218v97.83zm190.217 81.52v-48.91h-10.87v48.91h-21.739v-48.91h-10.869v48.91h-21.739v-48.91h-10.87v48.91h-21.739v-48.91h-10.87v48.91h-16.304v-70.65h500.004v70.65zm385.874 0v-70.65h222.82v70.65z"/><path d="m770.448 1812.08h-10.87v21.74h10.87z"/><path d="m803.056 1812.08h-10.869v21.74h10.869z"/><path d="m835.664 1812.08h-10.869v21.74h10.869z"/><path d="m868.274 1812.08h-10.87v21.74h10.87z"/><path d="m900.882 1812.08h-10.869v21.74h10.869z"/><path d="m933.491 1812.08h-10.87v21.74h10.87z"/><path d="m966.099 1812.08h-10.87v21.74h10.87z"/><path d="m998.708 1812.08h-10.869v21.74h10.869z"/><path d="m1031.32 1812.08h-10.87v21.74h10.87z"/><path d="m308.491 1828.38h32.608v10.87h10.87v-21.74h-10.87v-122.91l-32.608 28.03v94.88h-10.87v21.74h10.87zm10.869-100.76 10.87-9.35v99.24h-10.87z"/><path d="m911.751 1654.47h-5.435v76.09h5.435z"/><path d="m1226.97 1654.47h-5.44v76.09h5.44z"/><path d="m1199.8 1654.47h-5.44v76.09h5.44z"/><path d="m1167.19 1654.47h-5.44v76.09h5.44z"/><path d="m1134.58 1654.47h-5.44v76.09h5.44z"/><path d="m1091.1 1654.47h-5.43v76.09h5.43z"/><path d="m1053.06 1654.47h-5.44v76.09h5.44z"/><path d="m1020.45 1654.47h-5.44v76.09h5.44z"/><path d="m987.838 1654.47h-5.435v76.09h5.435z"/><path d="m960.664 1654.47h-5.435v76.09h5.435z"/><path d="m933.49 1654.47h-5.434v76.09h5.434z"/><path d="m1254.14 1654.47h-5.43v76.09h5.43z"/><path d="m1275.88 1654.47h-5.43v76.09h5.43z"/><path d="m1297.62 1654.47h-5.43v76.09h5.43z"/><path d="m890.013 1654.47h-5.435v76.09h5.435z"/><path d="m466.099 1714.25h-38.043v5.44h38.043z"/><path d="m466.099 1687.08h-38.043v5.43h38.043z"/><path d="m466.099 1659.9h-38.043v5.44h38.043z"/><path d="m521.478 583.971h-2.061c-43.76.122-79.456 35.082-80.491 78.829v8.127h10.869v-8.32c1.006-37.715 31.868-67.766 69.595-67.767h2.115c39.194 0 69.594 33.47 69.594 62.263v13.824h10.87v-13.502c0-34.674-34.421-73.454-80.491-73.454z"/><path d="m395.447 551.363c-9.001.01-16.295 7.304-16.304 16.305v179.348h32.608v-179.348c-.01-9.001-7.303-16.295-16.304-16.305zm5.435 184.783h-10.87v-168.478c0-3.002 2.433-5.435 5.435-5.435s5.435 2.433 5.435 5.435z"/><path d="m629.143 567.668v179.348h32.608v-179.348c0-21.579-32.608-21.557-32.608 0zm21.739 168.478h-10.87v-168.478c0-3.002 2.433-5.435 5.435-5.435s5.435 2.433 5.435 5.435z"/><path d="m411.751 812.232c0-21.578-32.608-21.556-32.608 0v38.044h32.608zm-10.869 27.174h-10.87c1.411-18.862-3.772-32.609 5.435-32.609 3 .003 5.432 2.435 5.435 5.435z"/><path d="m563.925 556.797v-10.869h-16.304v-43.479c0-15.007-12.166-27.174-27.174-27.174s-27.174 12.167-27.174 27.174v43.479h-16.304v10.869zm-59.782-54.348c0-21.578 32.608-21.556 32.608 0v43.479h-32.608z"/><path d="m547.621 252.449c0-15.007-12.166-27.174-27.174-27.174-15.007 0-27.174 12.167-27.174 27.174v65.218h54.348zm-10.869 54.348h-32.609v-54.348c0-21.578 32.609-21.556 32.609 0z"/><path d="m661.751 812.232c0-21.578-32.608-21.556-32.608 0v38.044h32.608zm-10.869 27.174h-10.87c1.411-18.862-3.772-32.609 5.435-32.609 3 .003 5.432 2.435 5.435 5.435z"/><path d="m499.985 134.955c8.651-3.203 15.897-9.353 20.465-17.369 4.566 8.014 11.81 14.162 20.46 17.364 26.768 9.788 44.755 37.353 44.755 68.581h10.869c0-35.766-20.852-67.425-51.888-78.781-11.396-4.358-18.88-15.344-18.764-27.5446v-29.5385h10.87v-10.8696h-10.87v-10.8696h-10.869v10.8696h-10.87v10.8696h10.87v29.5434c.115 12.2007-7.369 23.1867-18.765 27.5437-31.035 11.357-51.888 43.016-51.888 78.782h10.87c0-31.228 17.987-58.794 44.755-68.581z"/><path d="m781.317 779.624 10.869-10.87h-10.869v-81.521l10.869-10.87h-86.956v-76.554c35.467-.482 64.636 27.825 65.217 63.291v7.828h10.87v-7.828c-.053-41.998-34.09-76.028-76.087-76.071v-46.536h4.163l-20.468-34.113v-58.278l10.87-10.869h-108.696l10.87 10.869v54.348h-6.938c-4.535-28.295-23.701-52.079-50.385-62.527-11.39-4.342-18.875-15.313-18.764-27.503v-2.361h-10.87v2.367c.112 12.189-7.374 23.16-18.764 27.503-26.682 10.447-45.847 34.228-50.384 62.521h-6.939v-54.348l10.87-10.869h-108.696l10.87 10.869v58.278l-20.468 34.113h4.164v46.536c-41.998.043-76.035 34.073-76.087 76.071v7.828h10.869v-7.828c.581-35.466 29.751-63.773 65.218-63.291v76.554h-86.957l10.87 10.87v81.521h-10.87l10.87 10.87v92.391h-10.87v10.87h543.478v-10.87h-10.869zm-478.261 92.391h-32.609v-53.96c0-21.578 32.609-21.557 32.609 0zm32.609 0h-21.74v-53.96c.018-14.961-12.095-27.103-27.056-27.121-5.93-.007-11.7 1.932-16.422 5.521v-16.831h65.218zm0-103.261h-65.218v-54.348h10.87v43.479h32.608v-43.479h21.74zm-43.479-21.739c1.66-29.586-4.058-43.478 5.435-43.478 9.456 0 3.759 13.603 5.435 43.478zm43.479-43.478h-22.741c-2.966-8.452-12.222-12.898-20.674-9.932-4.647 1.631-8.301 5.285-9.932 9.932h-11.871v-16.304h65.218zm347.826-185.091 6.706 11.178h-13.412zm-79.166-5.127 9.785 16.305h-17.576c-.07-11.181.144-10.493-.192-16.305zm-167.756 0h7.983c-.332 5.73-.121 4.941-.192 16.305h-17.575zm-79.165 5.127 6.706 11.178h-13.412zm81.521 353.569h-92.391v-92.391h92.391zm38.044 0h-27.174v-53.96c-1.376-7.504 3.592-14.702 11.096-16.078s14.702 3.592 16.078 11.096c.302 1.647.302 3.335 0 4.982zm59.783 0h-32.609v-53.96c0-21.578 32.609-21.557 32.609 0zm54.347 0h-27.174v-53.96c0-21.578 27.174-21.563 27.174 0zm0-76.534c-16.016-11.938-38.043.687-38.043 22.574v53.96h-5.435v-53.96c0-15.008-12.166-27.174-27.174-27.174s-27.174 12.166-27.174 27.174v53.96h-5.434v-53.96c0-21.821-21.995-34.536-38.044-22.574v-15.857h141.304zm0-26.727h-141.304v-10.869h21.739v-43.479h32.609v43.479h32.609v-43.479h32.608v43.479h21.739zm-141.304-21.739c1.659-29.586-4.058-43.478 5.435-43.478 3 .003 5.432 2.434 5.435 5.435v38.043zm65.217 0v-38.043c0-3.002 2.434-5.435 5.435-5.435 3.002 0 5.435 2.433 5.435 5.435v38.043zm76.087 0h-10.869c1.659-29.586-4.058-43.478 5.435-43.478 3 .003 5.431 2.434 5.434 5.435zm0-53.346c-8.369-3.041-17.619 1.279-20.659 9.648-.027.073-.053.147-.078.22h-34.612c-2.966-8.452-12.222-12.898-20.673-9.932-4.648 1.631-8.302 5.285-9.933 9.932h-34.611c-2.919-8.412-12.105-12.865-20.517-9.946-.074.025-.147.052-.221.078v-6.436h141.304zm103.261 178.346h-92.391v-92.391h92.391zm0-103.261h-92.391v-81.521l10.87-10.87h-184.783l10.869 10.87v81.521h-92.391v-228.261h36.772l-20.467-34.113v-58.278h65.217v58.275l-20.468 34.116h47.642c1.051-4.722-9.499-70.745 44.754-90.602 8.654-3.21 15.9-9.366 20.466-17.387 4.563 8.019 11.808 14.174 20.46 17.381 54.763 20.044 43.529 85.102 44.755 90.608h47.641l-20.468-34.116v-58.275h65.218v58.278l-20.468 34.113h36.772zm76.087 103.261h-32.608v-53.96c0-21.578 32.608-21.557 32.608 0zm0-75.56c-11.919-9.048-28.916-6.721-37.964 5.198-3.581 4.718-5.518 10.479-5.514 16.402v53.96h-21.739v-92.391h65.217zm0-27.701h-65.217v-54.348h21.739v43.479h32.609v-43.479h10.869zm-32.608-21.739c1.659-29.586-4.059-43.478 5.434-43.478 3.001.003 5.432 2.434 5.435 5.435v38.043zm32.608-43.478h-10.869v5.435c0-21.578-32.609-21.557-32.609 0v-5.435h-21.739v-16.304h65.217z"/><path d="m601.969 377.45h-7.685l-3.185 3.185v-41.228h-10.869v52.097l-10.87 10.87v-62.967h-10.869v73.837l-2.251 2.25h45.729v16.304h86.956v-76.087l10.87-10.869h-86.957c-.537-53.39 65.826-46.349 65.218-5.435h10.869c.157-21.969-16.226-40.545-38.043-43.135v-27.517h10.869v-10.87h-10.869v-10.869h-10.87v10.869h-10.869v10.87h10.869v27.517c-21.312 2.608-38.359 19.369-38.043 48.57zm0 27.174h-19.489l16.304-16.304h3.185zm48.913 16.305h-10.87v-38.044c0-3.001 2.434-5.435 5.435-5.435 3.002 0 5.435 2.434 5.435 5.435zm27.174-5.435v5.435h-10.87v-38.044c0-3.001 2.433-5.435 5.435-5.435s5.435 2.434 5.435 5.435zm-65.218-59.783h65.218v11.872c-7.04-2.572-14.922.049-19.022 6.322-4.942-7.504-15.03-9.581-22.534-4.639-1.846 1.215-3.425 2.793-4.64 4.639-3.011-4.568-8.115-7.32-13.587-7.324-1.856.018-3.694.357-5.435 1.002zm0 59.783v-32.609c0-3.001 2.434-5.435 5.435-5.435 3.002 0 5.435 2.434 5.435 5.435v38.044h-10.87z"/><path d="m351.969 431.798h86.957v-16.304h45.728l-2.25-2.25v-73.837h-10.87v62.967l-10.869-10.87v-52.097h-10.87v41.228l-3.184-3.185h-7.685v-32.608h-76.087c-.536-53.251 65.826-46.416 65.217-5.435h10.87c.156-21.969-16.227-40.545-38.044-43.135v-27.517h10.87v-10.87h-10.87v-10.869h-10.869v10.869h-10.87v10.87h10.87v27.517c-21.313 2.608-38.359 19.369-38.044 48.57h-10.869l10.869 10.869zm86.957-43.478h3.184l16.304 16.304h-19.488zm-38.044 32.609h-10.869c1.659-29.586-4.059-43.479 5.434-43.479 3.001.003 5.432 2.435 5.435 5.435zm27.174 0h-10.869c1.659-29.586-4.059-43.479 5.434-43.479 3.001.003 5.432 2.435 5.435 5.435zm-65.217-65.218h65.217v11.872c-7.039-2.572-14.922.049-19.022 6.322-4.941-7.504-15.03-9.581-22.534-4.639-1.846 1.215-3.424 2.794-4.64 4.639-4.099-6.273-11.982-8.893-19.021-6.322zm0 59.783c1.557-24.286-3.946-38.044 5.434-38.044 9.457 0 3.76 13.603 5.435 43.479h-10.869z"/><path d="m482.404 323.102h-32.609v10.869h32.609z"/><path d="m591.1 323.102h-32.609v10.869h32.609z"/><path d="m547.621 323.102h-54.348v10.869h54.348z"/><path d="m449.795 317.666h32.609v-76.087c.019-8.964-7.233-16.246-16.198-16.265-1.889-.004-3.764.322-5.541.963v-6.437h119.565v6.437c-8.433-3.041-17.735 1.33-20.776 9.763-.641 1.777-.967 3.651-.963 5.539v76.087h32.609v-97.826l10.869-10.869h-163.043l10.869 10.869zm130.435-10.869h-10.869v-65.218c0-3.001 2.433-5.434 5.434-5.434 3.002 0 5.435 2.433 5.435 5.434zm-119.565-65.218c0-3.001 2.433-5.434 5.435-5.434 3.001 0 5.434 2.433 5.434 5.434v65.218h-10.869z"/><path d="m1816.13 840.997h10.87v-27.174h32.61v27.174h10.87v-21.739h27.18v21.739h10.87v-27.174h10.87v27.174h10.87v-21.739h38.04v21.739h10.87v-27.174h10.87v27.174h10.87v-21.739h21.74v21.739h10.87v-27.174h32.6v27.174h10.87v-38.043h-54.34v5.435h-21.74v-5.435h-3.57l-12.74-12.734v-14.44h-10.87v18.94l8.24 8.234h-13.67v5.435h-16.31v-5.435h10.87v-10.87h-10.87v-16.304h7.69l19.49-19.489v-18.555h-10.87v14.055l-13.12 13.119h-3.19v-10.869h-10.87v10.869h-7.68l-14.84 14.837 6.5 19.495 10.31-3.44-4.37-13.115 6.9-6.907h3.18v32.609h-10.86v-5.435h-27.52l11.21-14.011v-24.033h-10.87v20.223l-18.61 23.256h-14v-5.435h-54.35z"/><path d="m1772.66 732.303h347.82v86.957h10.87v-97.826h-369.56v97.826h10.87z"/><path d="m1468.31 797.52h65.22v-5.434h65.21v-5.435h157.61v-10.87h-168.48v5.435h-65.21v5.435h-65.22v86.956h10.87z"/><path d="m1772.66 677.954h48.91l125-27.044 123.84 26.924 50.07.12v21.739h10.87v-32.609h-59.19l-125.59-27.299-125.58 27.299h-59.2v32.609h10.87z"/><path d="m1946.57 629.193 134.6 32.31 50.18.147v-10.87h-48.27l-136.51-32.76-136.51 32.76h-48.27v10.87h48.91z"/><path d="m1810.7 824.693h-81.52v27.174h10.87v-16.304h70.65z"/><path d="m1723.74 835.562h-81.52v21.74h10.87v-10.87h70.65z"/><path d="m1908.53 1014.91v-26.785c0-9.005-7.3-16.305-16.31-16.305-9 0-16.3 7.3-16.3 16.305v26.785h10.87v-26.785c0-3.002 2.43-5.435 5.43-5.435s5.44 2.433 5.44 5.435v26.785z"/><path d="m1484.61 824.695v32.609h32.61v-32.609c0-9.005-7.3-16.304-16.3-16.304-9.01 0-16.31 7.299-16.31 16.304zm21.74 0v21.739h-10.87v-21.739c0-3.002 2.44-5.435 5.44-5.435s5.43 2.433 5.43 5.435z"/><path d="m1577.01 840.998v-21.352c0-9.005-7.3-16.304-16.31-16.304-9 0-16.3 7.299-16.3 16.304v21.352h10.87v-21.352c0-3.001 2.43-5.435 5.43-5.435s5.44 2.434 5.44 5.435v21.352z"/><path d="m1636.79 819.646c0-9.005-7.3-16.304-16.31-16.304-9 0-16.3 7.299-16.3 16.304v15.917h10.87v-15.917c0-3.001 2.43-5.435 5.43-5.435 3.01 0 5.44 2.434 5.44 5.435v15.917h10.87z"/><path d="m1962.87 1014.91v-26.785c0-9.005-7.3-16.305-16.3-16.305s-16.3 7.3-16.3 16.305v26.785h10.87v-26.785c0-3.002 2.43-5.435 5.43-5.435s5.43 2.433 5.43 5.435v26.785z"/><path d="m2022.66 938.824h-43.48v27.174h43.48zm-10.87 16.305h-21.74v-5.435h21.74z"/><path d="m1870.48 965.998h43.48v-27.174h-43.48zm10.87-16.304h21.74v5.435h-21.74z"/><path d="m1968.31 938.824h-43.48v27.174h43.48zm-10.87 16.305h-21.74v-5.435h21.74z"/><path d="m1995.48 917.084h10.87v16.305h10.87v-27.174h-32.61v27.174h10.87z"/><path d="m1886.79 917.084h10.87v16.305h10.87v-27.174h-32.61v27.174h10.87z"/><path d="m1767.22 922.52h-10.87v32.608h10.87z"/><path d="m1767.22 976.867h-10.87v32.613h10.87z"/><path d="m1767.22 1052.96h-10.87v32.6h10.87z"/><path d="m1941.14 917.084h10.86v16.305h10.87v-27.174h-32.6v27.174h10.87z"/><path d="m2017.22 1014.91v-26.785c0-9.005-7.3-16.305-16.3-16.305-9.01 0-16.31 7.3-16.31 16.305v26.785h10.87v-26.785c0-3.002 2.44-5.435 5.44-5.435s5.43 2.433 5.43 5.435v26.785z"/><path d="m1913.96 998.607v21.743h-43.48v-21.743h-10.87v21.743h-5.43v32.61h184.78v-32.61h-5.43v-21.743h-10.87v21.743h-43.48v-21.743h-10.87v21.743h-43.48v-21.743zm114.13 32.613v10.87h-163.04v-10.87z"/><path d="m2082.44 862.738h-271.74v10.87h271.74z"/><path d="m2082.44 846.434h-271.74v10.869h271.74z"/><path d="m1805.27 868.172h-21.74v10.869h21.74z"/><path d="m1805.27 851.867h-21.74v10.87h21.74z"/><path d="m1778.09 873.607h-48.91v10.87h48.91z"/><path d="m1778.09 857.303h-48.91v10.869h48.91z"/><path d="m2131.35 705.129h-369.56v10.869h369.56z"/><path d="m1837.87 748.607v38.044h-21.74v10.87h54.35v-10.87h-21.74v-38.044z"/><path d="m1712.87 955.129h-43.47v27.174h43.47zm-10.86 16.304h-21.74v-5.435h21.74z"/><path d="m1707.44 949.693v-27.173h-32.61v27.173h10.87v-16.304h10.87v16.304z"/><path d="m1669.4 1052.96h43.47v-27.18h-43.47zm10.87-16.31h21.74v5.44h-21.74z"/><path d="m1707.44 1020.35v-27.178h-32.61v27.178h10.87v-16.31h10.87v16.31z"/><path d="m1723.74 879.043h-81.52v10.87h81.52z"/><path d="m1723.74 862.738h-81.52v10.87h81.52z"/><path d="m1636.79 840.998h-48.92v21.739h10.87v-10.869h38.05z"/><path d="m1636.79 884.477h-48.92v10.869h48.92z"/><path d="m1636.79 868.172h-48.92v10.869h48.92z"/><path d="m1625.92 922.52h-10.87v32.608h10.87z"/><path d="m1625.92 976.867h-10.87v32.613h10.87z"/><path d="m1625.92 1052.96h-10.87v32.6h10.87z"/><path d="m1582.44 846.434h-48.91v21.739h10.86v-10.87h38.05z"/><path d="m1582.44 889.912h-48.92v10.87h48.92z"/><path d="m1582.44 873.607h-48.92v10.87h48.92z"/><path d="m1441.14 944.26h-10.87v27.174h10.87z"/><path d="m1441.14 982.303h-10.87v27.177h10.87z"/><path d="m1441.14 1052.96h-10.87v32.6h10.87z"/><path d="m1462.87 944.26h-10.87v27.174h10.87z"/><path d="m1462.87 982.303h-10.87v27.177h10.87z"/><path d="m1462.87 1052.96h-10.87v32.6h10.87z"/><path d="m1419.39 889.911h108.7v-10.87h-119.56v21.739h10.86z"/><path d="m1528.09 906.215h-119.57v10.869h119.57z"/><path d="m2484.61 1101.87v-179.349h-119.56v10.87h108.69v86.959h-108.69v10.87h108.69v5.43h-108.69v10.87h108.69v54.35h-114.13v-195.653h-48.91v10.869h38.04v103.264h-38.04v10.87h38.04v5.43h-38.04v10.87h38.04v54.35h-43.47v-201.088h-48.92v10.87h38.05v108.698h-38.05v10.87h38.05v5.43h-38.05v10.87h38.05v54.35h-43.48v-206.523h-81.52v10.87h70.65v195.653h-21.74v-38.04h-32.61v38.04h-21.74v-211.957h-48.91v10.869h38.04v119.568h-38.04v10.87h38.04v5.43h-38.04v10.87h38.04v54.35h-43.48v-217.392h-27.17v10.869h16.3v125.003h-16.3v10.87h16.3v5.43h-16.3v10.87h16.3v54.35h-21.74v-222.827h-260.86v222.827h-21.74v-54.35h16.3v-10.87h-16.3v-5.43h16.3v-10.87h-16.3v-125.003h16.3v-10.869h-27.17v217.392h-43.48v-54.35h38.04v-10.87h-38.04v-5.43h38.04v-10.87h-38.04v-119.568h38.04v-10.869h-48.91v211.957h-21.74v-38.04h-32.61v38.04h-21.74v-195.653h70.65v-10.87h-81.52v206.523h-43.48v-54.35h38.04v-10.87h-38.04v-5.43h38.04v-10.87h-38.04v-108.698h38.05v-10.87h-48.92v201.088h-43.47v-54.35h38.04v-10.87h-38.04v-5.43h38.04v-10.87h-38.04v-103.264h38.04v-10.869h-48.91v195.653h-114.13v-54.35h108.69v-10.87h-108.69v-5.43h108.69v-10.87h-108.69v-86.959h108.69v-10.87h-119.56v179.349h-10.87v10.87h1097.82v-10.87zm-798.91 0v-27.17h10.87v27.17zm211.96 0v-27.17h10.87v27.17zm43.48 0v-27.17h10.86v27.17zm43.47 0v-27.17h10.87v27.17zm81.53-195.653h-43.48v10.869h43.48v103.264h-21.74v10.87h21.74v5.43h-21.74v10.87h21.74v54.35h-59.79v-38.04h-32.61v38.04h-10.87v-38.04h-32.6v38.04h-10.87v-38.04h-32.61v38.04h-59.78v-54.35h21.73v-10.87h-21.73v-5.43h21.73v-10.87h-21.73v-103.264h43.47v-10.869h-43.47v-16.304h239.13zm130.43 195.653v-27.17h10.87v27.17z"/><path d="m-21.2515 45.9262h10.8695v21.7391h10.869604v-21.7391h10.869596v21.7391h10.8695v-21.7391h21.7392v21.7391h10.8695v-21.7391h21.7392v21.7391h10.8695v-21.7391h10.8696v21.7391h10.8693v-21.7391h10.87v21.7391h10.869v-32.6087h-163.0431v32.6087h10.8696z"/><path d="m125.487 13.3203h-152.1735v10.8696h152.1735z"/><path d="m103.748 823.102h-108.69527v10.869h108.69527z"/><path d="m11.3549 236.146h-10.869548v38.044h10.869548z"/><path d="m98.311 236.146h-10.8696v38.044h10.8696z"/><path d="m76.5717 236.146h-10.8696v38.044h10.8696z"/><path d="m54.8334 236.146h-10.8695v38.044h10.8695z"/><path d="m33.0942 236.146h-10.8696v38.044h10.8696z"/><path d="m11.3549 127.449h-10.869548v38.044h10.869548z"/><path d="m98.311 127.449h-10.8696v38.044h10.8696z"/><path d="m76.5717 127.449h-10.8696v38.044h10.8696z"/><path d="m54.8334 127.449h-10.8695v38.044h10.8695z"/><path d="m33.0942 127.449h-10.8696v38.044h10.8696z"/><path d="m11.3549 78.5371h-10.869548v32.6089h10.869548z"/><path d="m98.311 78.5371h-10.8696v32.6089h10.8696z"/><path d="m76.5717 78.5371h-10.8696v32.6089h10.8696z"/><path d="m54.8334 78.5371h-10.8695v32.6089h10.8695z"/><path d="m33.0942 78.5371h-10.8696v32.6089h10.8696z"/><path d="m11.3549 453.537h-10.869548v38.044h10.869548z"/><path d="m98.311 453.537h-10.8696v38.044h10.8696z"/><path d="m76.5717 453.537h-10.8696v38.044h10.8696z"/><path d="m54.8334 453.537h-10.8695v38.044h10.8695z"/><path d="m33.0942 453.537h-10.8696v38.044h10.8696z"/><path d="m11.3549 290.494h-10.869548v38.044h10.869548z"/><path d="m98.311 290.494h-10.8696v38.044h10.8696z"/><path d="m76.5717 290.494h-10.8696v38.044h10.8696z"/><path d="m54.8334 290.494h-10.8695v38.044h10.8695z"/><path d="m33.0942 290.494h-10.8696v38.044h10.8696z"/><path d="m11.3549 562.232h-10.869548v38.044h10.869548z"/><path d="m98.311 562.232h-10.8696v38.044h10.8696z"/><path d="m76.5717 562.232h-10.8696v38.044h10.8696z"/><path d="m54.8334 562.232h-10.8695v38.044h10.8695z"/><path d="m33.0942 562.232h-10.8696v38.044h10.8696z"/><path d="m11.3549 507.885h-10.869548v38.043h10.869548z"/><path d="m98.311 507.885h-10.8696v38.043h10.8696z"/><path d="m76.5717 507.885h-10.8696v38.043h10.8696z"/><path d="m54.8334 507.885h-10.8695v38.043h10.8695z"/><path d="m33.0942 507.885h-10.8696v38.043h10.8696z"/><path d="m11.3549 616.58h-10.869548v38.044h10.869548z"/><path d="m98.311 616.58h-10.8696v38.044h10.8696z"/><path d="m76.5717 616.58h-10.8696v38.044h10.8696z"/><path d="m54.8334 616.58h-10.8695v38.044h10.8695z"/><path d="m33.0942 616.58h-10.8696v38.044h10.8696z"/><path d="m11.3549 670.928h-10.869548v38.043h10.869548z"/><path d="m98.311 670.928h-10.8696v38.043h10.8696z"/><path d="m76.5717 670.928h-10.8696v38.043h10.8696z"/><path d="m54.8334 670.928h-10.8695v38.043h10.8695z"/><path d="m33.0942 670.928h-10.8696v38.043h10.8696z"/><path d="m11.3578 725.275h-10.869519v38.044h10.869519z"/><path d="m98.3139 725.275h-10.8696v38.044h10.8696z"/><path d="m76.5747 725.275h-10.8696v38.044h10.8696z"/><path d="m54.8354 725.275h-10.8696v38.044h10.8696z"/><path d="m33.0961 725.275h-10.8695v38.044h10.8695z"/><path d="m11.3578 779.623h-10.869519v38.044h10.869519z"/><path d="m98.3139 779.623h-10.8696v38.044h10.8696z"/><path d="m76.5747 779.623h-10.8696v38.044h10.8696z"/><path d="m54.8354 779.623h-10.8696v38.044h10.8696z"/><path d="m33.0961 779.623h-10.8695v38.044h10.8695z"/><path d="m163.531 872.015v-743.196l-31.542-6.31-2.134 10.657 22.806 4.559v16.899h-21.739v10.869h21.739v16.305h-21.739v10.869h21.739v16.305h-21.739v10.869h21.739v16.305h-21.739v10.869h21.739v16.304h-21.739v10.87h21.739v16.304h-21.739v10.87h21.739v16.304h-21.739v10.87h21.739v16.304h-21.739v10.87h21.739v16.304h-21.739v10.87h21.739v16.304h-21.739v10.87h21.739v16.304h-21.739v10.869h21.739v16.305h-21.739v10.869h21.739v16.305h-21.739v10.869h21.739v16.305h-21.739v10.869h21.739v16.305h-21.739v10.869h21.739v16.304h-21.739v10.87h21.739v16.304h-21.739v10.87h21.739v16.304h-21.739v10.87h21.739v16.304h-21.739v10.87h21.739v16.304h-21.739v10.87h21.739v16.304h-21.739v10.87h21.739v16.304h-21.739v10.87h21.739v16.304h-21.739v10.87h21.739v16.304h-21.739v10.869h21.739v16.305h-21.739v10.869h21.739v16.305h-21.739v10.869h21.739v27.174h-32.608v-786.8227l27.173 3.8798v11.2039h-16.304v10.87h16.304v5.434h10.87v-36.9339l-48.913-6.9899v799.3588h-10.8696v-32.609h-10.8695v32.609h-16.3044v-32.609h-10.8695v32.609h-21.7392v-32.609h-10.8695v32.609h-16.3044v-32.609h-10.869554v32.609h-10.869546v-799.3588l-48.9131 6.9899v36.9339h10.8696v-5.434h16.3043v-10.87h-16.3043v-11.2039l27.1739-3.8798v786.8227h-32.6087v-27.174h21.7391v-10.869h-21.7391v-16.305h21.7391v-10.869h-21.7391v-16.305h21.7391v-10.869h-21.7391v-16.305h21.7391v-10.869h-21.7391v-16.304h21.7391v-10.87h-21.7391v-16.304h21.7391v-10.87h-21.7391v-16.304h21.7391v-10.87h-21.7391v-16.304h21.7391v-10.87h-21.7391v-16.304h21.7391v-10.87h-21.7391v-16.304h21.7391v-10.87h-21.7391v-16.304h21.7391v-10.87h-21.7391v-16.304h21.7391v-10.869h-21.7391v-16.305h21.7391v-10.869h-21.7391v-16.305h21.7391v-10.869h-21.7391v-16.305h21.7391v-10.869h-21.7391v-16.305h21.7391v-10.869h-21.7391v-16.304h21.7391v-10.87h-21.7391v-16.304h21.7391v-10.87h-21.7391v-16.304h21.7391v-10.87h-21.7391v-16.304h21.7391v-10.87h-21.7391v-16.304h21.7391v-10.87h-21.7391v-16.304h21.7391v-10.87h-21.7391v-16.304h21.7391v-10.869h-21.7391v-16.305h21.7391v-10.869h-21.7391v-16.305h21.7391v-10.869h-21.7391v-16.305h21.7391v-10.869h-21.7391v-16.899l22.8059-4.559-2.1335-10.657-31.5419 6.31v743.196h-10.8696v10.869h249.9996v-10.869z"/><path d="m98.3144 181.797h-97.826119v10.869h97.826119z"/><path d="m98.3144 208.971h-97.826119v10.869h97.826119z"/><path d="m98.3144 344.842h-97.826119v10.869h97.826119z"/><path d="m98.3144 372.016h-97.826119v10.869h97.826119z"/><path d="m98.3144 399.189h-97.826119v10.87h97.826119z"/><path d="m98.3144 426.363h-97.826119v10.87h97.826119z"/><path d="m2125.83 1624.58h-43.48v-407.61h-108.69v81.52h-130.61l-66.56 32.61h197.17v10.87h-16.31v27.17h16.31v54.35h-54.35v38.04h54.35v16.31h-54.35v54.35h54.35v16.3h-54.35v38.04h54.35v10.87h-54.35v27.18h-119.57v-288.05h-10.87v288.05h-32.61v38.04h369.57zm-302.45-304.35 22.19-10.87h128.08v10.87zm144.84 38.04v-5.43h5.44v5.43zm-38.04 92.39v-16.3h16.3v16.3zm27.17 0v-16.3h16.31v16.3zm16.31 38.05v10.87h-16.31v-10.87zm-43.48 0h16.3v10.87h-16.3zm0 32.61v-10.87h16.3v10.87zm27.17 0v-10.87h16.31v10.87zm-27.17 54.34v-16.3h16.3v16.3zm27.17 0v-16.3h16.31v16.3zm27.17 10.87v-358.69h86.96v396.74h-16.3v-288.05h-54.35v288.05h-16.31zm48.92-5.43v-10.87h10.87v10.87zm10.87 10.87v10.87h-10.87v-10.87zm-10.87-32.61v-10.87h10.87v10.87zm0-21.74v-10.87h10.87v10.87zm0-21.74v-10.87h10.87v10.87zm0-21.74v-10.87h10.87v10.87zm0-21.74v-10.87h10.87v10.87zm0-21.74v-10.87h10.87v10.87zm0-21.73v-10.87h10.87v10.87zm0-21.74v-10.87h10.87v10.87zm0-21.74v-10.87h10.87v10.87zm0-21.74v-16.31h10.87v16.31zm-10.87 0h-10.87v-16.31h10.87zm0 10.87v10.87h-10.87v-10.87zm0 21.74v10.87h-10.87v-10.87zm0 21.74v10.87h-10.87v-10.87zm0 21.73v10.87h-10.87v-10.87zm0 21.74v10.87h-10.87v-10.87zm0 21.74v10.87h-10.87v-10.87zm0 21.74v10.87h-10.87v-10.87zm0 21.74v10.87h-10.87v-10.87zm0 21.74v10.87h-10.87v-10.87zm0 21.74v10.87h-10.87v-10.87zm0 21.74v10.87h-10.87v-10.87zm0 21.74v10.87h-10.87v-10.87zm10.87 0h10.87v10.87h-10.87zm-59.78-5.44v16.31h-16.31v-16.31zm-43.48 0h16.3v16.31h-16.3zm184.78 43.48h-347.83v-16.3h347.83z"/><path d="m1924.74 1341.97v27.17h27.18v-27.17zm16.31 16.3h-5.44v-5.43h5.44z"/><path d="m1919.31 1341.97h-27.18v27.17h27.18zm-10.87 16.3h-5.44v-5.43h5.44z"/><path d="m1859.53 1341.97v27.17h27.17v-27.17zm16.3 16.3h-5.44v-5.43h5.44z"/><path d="m1826.92 1341.97v27.17h27.17v-27.17zm16.3 16.3h-5.43v-5.43h5.43z"/><path d="m1886.7 1668.06v32.61h86.95 5.44 5.43v-32.61h-10.87v21.74h-16.3v-21.74h-10.87v21.74h-27.17v-21.74h-10.87v21.74h-10.87v-21.74z"/><path d="m1989.96 1195.23h10.87v16.31h10.87v-16.31h10.87v16.31h10.87v-16.31h10.87v16.31h10.87v-16.31h10.87v16.31h10.87v-27.18h-97.83v27.18h10.87z"/><path d="m2500.84 1755.01v-331.52h-10.87v309.78h-76.08v-27.18h-32.61v27.18h-27.18v-27.18h-32.6v27.18h-27.18v-27.18h-32.61v27.18h-27.17v-27.18h-32.61v27.18h-27.17v-27.18h-32.61v27.18h-27.18v-27.18h-27.17v10.87h16.3v16.31h-16.3v10.87h402.17v10.87h-407.6v-86.96h-10.87v65.22h-86.96v-27.18h-27.17v27.18h-5.44v-27.18h-32.61v27.18h-5.43v-27.18h-27.18v10.87h-86.95v-48.91h-10.87v86.96h-10.87v10.87h733.69v-10.87zm-336.95-21.74h-10.87v-16.31h10.87zm59.78 0h-10.87v-16.31h10.87zm59.78 0h-10.87v-16.31h10.87zm59.78 0h-10.86v-16.31h10.86zm59.79 0h-10.87v-16.31h10.87zm-434.79-16.31h5.44v16.31h-5.44zm-38.04 0h10.87v16.31h-10.87zm-32.61 0h5.44v16.31h-5.44zm-97.82 38.05v-27.18h86.95v5.44l-39.45 21.74zm70 0 19.73-10.87h87.33c6.03 3.37 13.1 7.34 19.51 10.87zm201.74 0h-52.94c-2.06-1.2-7.12-4.02-19.4-10.87h72.34z"/><path d="m205.468 1063.82-.528-.1c-10.666-2-21.367-3.49-32.081-4.7v12.46c13.716 1.53 17.867 2.38 32.609 4.89z"/><path d="m161.99 1057.87c-10.86-.95-21.733-1.45-32.609-1.58v12.55c10.884.15 21.754.68 32.609 1.6z"/><path d="m118.512 1056.29c-10.876.13-21.7491.63-32.6087 1.58v12.68c10.8448-.96 21.7147-1.52 32.6087-1.69z"/><path d="m31.555 1065.86-32.60871 6.12v12.28l1.372282-.25c10.454228-1.8 20.828928-3.69 31.236428-5.55z"/><path d="m75.0331 1059.02c-10.7144 1.21-21.4164 2.7-32.0833 4.7l-3.3092.62h2.7838v12.28c15.1478-2.63 19.3723-3.47 32.6087-5z"/><path d="m248.947 1071.98-32.609-6.12v12.32c37.19 6.51 27.462 4.8 32.609 5.69z"/><path d="m466.336 1112.77-21.739-4.08v9.28l21.739 3.78z"/><path d="m596.771 1137.25-32.609-6.12v7.67l32.609 5.68z"/><path d="m292.422 1080.14-32.609-6.12v11.74l32.609 5.69z"/><path d="m509.814 1120.93-32.609-6.12v8.83l32.609 5.68z"/><path d="m553.292 1129.09-32.608-6.12v8.25l32.608 5.68z"/><path d="m564.162 1157.29 32.609 5.36v-7.19l-32.609-5.78z"/><path d="m477.205 1143.01 32.609 5.36v-8.33l-32.609-5.78z"/><path d="m466.336 1132.33-21.739-3.85v9.18l21.739 3.57z"/><path d="m118.512 1078.21c-10.885.15-21.7544.69-32.6087 1.64v12.59c10.8559-.99 21.7257-1.54 32.6087-1.67z"/><path d="m248.947 1093.78c-8.153-1.45-22.735-4.04-32.609-5.8v12.2l32.609 5.36z"/><path d="m31.555 1087.69c-9.8957 1.74-19.8083 3.51-29.6754 5.19l-2.93331.51v12.14l32.60871-5.35z"/><path d="m75.0335 1080.92c-12.0959 1.39-14.1066 1.78-32.6087 4.95v12.53c10.4121-1.63 16.8207-3 32.6087-4.85z"/><path d="m520.684 1150.16 32.608 5.35v-7.76l-32.608-5.78z"/><path d="m205.468 1086.12c-18.093-3.15-20.212-3.58-32.609-5.05v12.48c15.938 1.86 22.609 3.28 32.609 4.85z"/><path d="m161.99 1079.96c-10.844-.98-21.713-1.56-32.609-1.73v12.54c10.879.14 21.748.69 32.609 1.67z"/><path d="m292.422 1101.49-32.609-5.78v11.61l32.609 5.36z"/><path d="m205.468 1124.21c-20.413-2.8-19.704-2.92-32.609-4.37v11.49c13.005 1.47 10.467 1.3 32.609 4.1z"/><path d="m161.99 1118.79c-10.853-.94-21.723-1.49-32.609-1.62v11.43c10.883.13 21.753.68 32.609 1.62z"/><path d="m466.336 1160.93-21.739-3.06v8.38l21.739 2.8z"/><path d="m118.512 1117.17c-10.881.13-21.7511.67-32.6087 1.62v11.43c10.8487-.95 21.7187-1.49 32.6087-1.62z"/><path d="m292.422 1136.45-32.609-4.59v10.57l32.609 4.2z"/><path d="m564.162 1181.66 32.609 4.2v-6.57l-32.609-4.59z"/><path d="m477.205 1170.45 32.609 4.2v-7.6l-32.609-4.59z"/><path d="m520.684 1176.05 32.608 4.2v-7.08l-32.608-4.59z"/><path d="m31.553 1125.74-32.60866 4.59v10.69l32.60866-4.2z"/><path d="m75.0335 1119.84c-13.0579 1.47-12.5236 1.62-32.6087 4.37v11.21c15.6153-1.97 20.1432-2.69 32.6087-4.09z"/><path d="m248.945 1130.33-32.609-4.59v11.09l32.609 4.2z"/><path d="m520.684 1194.44 32.608 3.82v-7.05l-32.608-4.2z"/><path d="m466.336 1180.01-21.739-2.8v8.3l21.739 2.55z"/><path d="m205.468 1146.39c-17.384-2.21-19.248-2.56-32.609-4.12v11.38c16.441 1.91 19.412 2.27 32.609 3.82z"/><path d="m292.422 1157.6-32.609-4.21v10.45l32.609 3.83z"/><path d="m161.99 1141.12c-10.848-.98-21.718-1.53-32.609-1.66v11.42c10.886.14 21.766.67 32.609 1.65z"/><path d="m118.512 1139.46c-10.884.14-21.7535.69-32.6087 1.66v11.41c10.842-.98 21.7217-1.51 32.6087-1.65z"/><path d="m477.205 1189.34 32.609 3.82v-7.55l-32.609-4.2z"/><path d="m75.0335 1142.27c-12.2199 1.41-16.5011 2.07-32.6087 4.11v11.09l32.2663-3.79c.1138-.01.2283-.02.3424-.03z"/><path d="m31.553 1147.79-32.60866 4.2v10.58l32.60866-3.83z"/><path d="m248.945 1151.99-32.609-4.2v10.95l32.609 3.83z"/><path d="m564.162 1199.54 32.609 3.82v-6.54l-32.609-4.2z"/><path d="m75.0315 1182.12-32.6086 3.06v10.88l32.6086-2.67z"/><path d="m118.512 1179.59c-10.895.13-21.7776.64-32.6087 1.58v11.33c.692-.04 13.2411-1.32 32.6087-1.56z"/><path d="m564.162 1225.47 32.609 2.67v-6.25l-32.609-3.06z"/><path d="m477.205 1218.34 32.609 2.67v-7.27l-32.609-3.06z"/><path d="m248.945 1189.26-32.609-3.06v10.76l32.609 2.67z"/><path d="m161.99 1181.17c-10.832-.94-21.714-1.45-32.609-1.58v11.35c19.01.24 31.009 1.46 32.609 1.57z"/><path d="m292.422 1193.34-32.609-3.06v10.25l32.609 2.66z"/><path d="m466.336 1209.66-21.739-2.04v8.05l21.739 1.78z"/><path d="m205.466 1185.18-32.609-3.06v11.27l32.609 2.68z"/><path d="m520.684 1221.91 32.608 2.67v-6.77l-32.608-3.06z"/><path d="m31.553 1186.2-32.60866 3.06v10.37l32.60866-2.68z"/><path d="m31.553 1207.86-32.60866 2.68v10.26l32.60866-2.29z"/><path d="m292.422 1214.1-32.609-2.67v10.14l32.609 2.29z"/><path d="m42.4229 1217.74 32.6086-2.29v-11.15l-32.6086 2.67z"/><path d="m248.945 1210.54-32.609-2.67v10.64l32.609 2.29z"/><path d="m520.684 1239.92 32.608 2.3v-6.73l-32.608-2.68z"/><path d="m85.9033 1214.69c3.9069-.23 14.6577-1.3 32.6087-1.53v-11.36c-19.0766.25-30.2048 1.45-32.6087 1.61z"/><path d="m477.205 1236.87 32.609 2.29v-7.24l-32.609-2.67z"/><path d="m172.857 1215.45 32.609 2.29v-10.76l-32.609-2.68z"/><path d="m129.381 1201.8v11.36c18.3.23 27.099 1.21 32.609 1.53v-11.28c-2.662-.17-13.312-1.35-32.609-1.61z"/><path d="m564.162 1242.98 32.609 2.3v-6.23l-32.609-2.67z"/><path d="m466.336 1228.36-21.739-1.78v7.99l21.739 1.53z"/><path d="m477.205 1265.27 32.609 1.16v-7.83l-32.609-1.54z"/><path d="m248.944 1246.36-21.739-1.03v11.09l21.739.77z"/><path d="m292.422 1248.39-32.609-1.53v10.71l32.609 1.16z"/><path d="m20.6835 1245.33-21.73916 1.03v11l21.73916-.76z"/><path d="m520.684 1266.81 32.608 1.16v-7.34l-32.608-1.53z"/><path d="m466.336 1256.55-21.739-1.01v8.58l21.739.77z"/><path d="m564.162 1268.36 32.609 1.15v-6.84l-32.609-1.53z"/><path d="m564.162 1286.45 32.609.77v-6.84l-32.609-1.15z"/><path d="m520.684 1285.43 32.608.77v-7.35l-32.608-1.16z"/><path d="m227.205 1278.55 21.739.51v-11l-21.739-.76z"/><path d="m259.813 1279.32 32.609.76v-10.48l-32.609-1.15z"/><path d="m-1.05566 1279.06 21.73916-.51v-11.07l-21.73916.76z"/><path d="m477.205 1284.42 32.609.76v-7.88l-32.609-1.16z"/><path d="m466.336 1275.76-21.739-.77v8.66l21.739.51z"/><path d="m433.729 996.678c.049-15.079-10.344-28.185-25.038-31.573-22.856-5.323-46.628-5.335-69.489-.038l-73.951 17.218v39.065l-51.156-11.9c-59.473-12.63-120.937-12.621-180.4062.03l-404.3078 94.03v210.83h-10.869v10.87h1010.869v-10.87h-10.869v-210.83l-173.913-40.45v11.16l163.043 37.92v202.2h-413.043v-71.32l-32.609-2.77c-58.365-4.17-61.557-.27-76.087.08l-32.6087 2.67v71.34h-413.0433v-202.2l10.869-2.53 384.9226-89.52c57.9178-12.32 117.7774-12.33 175.6994-.03l53.509 12.45v.06l59.783 13.87v39.82l-21.74-4.08v11.16l21.74 3.79v10.14l-21.74-3.85v11.04l21.74 3.57v23.01l-21.74-3.06v10.05l21.74 2.81v10.96l-21.74-2.8v9.94l21.74 2.55v24.91l-21.74-2.04v9.73l21.74 1.78v10.91l-21.74-1.79v9.64l21.74 1.53v23.76l-21.74-1.02v10.22l21.74.77v10.87l-21.74-.77v10.35l21.74.51v6.32h108.695zm-157.609 27.202v-32.965l65.547-15.265c21.237-4.918 43.318-4.905 64.549.038 9.768 2.252 16.678 10.966 16.644 20.99v279.622h-86.957v-238.51l-59.782-13.86zm152.174 40.33h-.012zm0 113.6h-.009zm0 20.55-.016-.01h.015zm-364.1302 115.98v-61.32c14.1465-1.22 41.0162-3.51 54.3482-3.77v65.09zm65.2172 0v-65.12c16.97.25 54.896 3.83 54.348 3.78v61.34z"/><path d="m411.99 1040.43v-12.01c-5.294-1.73-10.761-2.88-16.304-3.43v10.94c5.688.36 11.24 1.89 16.304 4.5z"/><path d="m384.816 1034.84v-10.89c-5.49-.34-11.065-.46-16.304-.31v10.87c4.482-.14 11.168-.01 16.304.33z"/><path d="m411.99 1061.24v-10.91c-6.823-.66-5.618-1.32-16.304-2.57v10.95c9.475 1.19 7.629 1.76 16.304 2.53z"/><path d="m384.816 1057.71v-10.9c-5.417-.31-10.835-.44-16.304-.31v10.87c4.484-.11 10.297-.02 16.304.34z"/><path d="m384.816 1080.55v-10.88c-5.841-.3-11.572-.39-16.304-.29v10.84c3.431-.07 11.325.05 16.304.33z"/><path d="m411.99 1085.85v-11.86c-5.241-1.93-10.732-3.1-16.304-3.48v10.94c5.672.37 11.215 1.87 16.304 4.4z"/><path d="m384.816 1103.38v-10.88c-5.155-.25-11.093-.39-16.304-.3v10.88c4.181-.08 9.902-.01 16.304.3z"/><path d="m411.99 1108.4v-11.64c-5.226-1.98-10.724-3.16-16.304-3.49v10.92c5.644.41 11.168 1.83 16.304 4.21z"/><path d="m384.816 1126.23v-10.89c-6.501-.27-12.718-.33-16.304-.27v10.86c4.079-.05 9.98.02 16.304.3z"/><path d="m411.99 1130.87v-11.57c-5.258-1.83-10.745-2.94-16.304-3.28v10.92c5.611.42 11.117 1.75 16.304 3.93z"/><path d="m384.816 1149.06v-10.87c-5.947-.22-11.913-.3-16.304-.26v10.86c3.897-.05 9.727.02 16.304.27z"/><path d="m411.99 1153.29v-11.39c-5.272-1.76-10.755-2.81-16.304-3.12v10.89c5.579.42 11.07 1.64 16.304 3.62z"/><path d="m384.816 1171.89v-10.88c-6.153-.19-11.95-.24-16.304-.21v10.84c4.955-.04 11.208.08 16.304.25z"/><path d="m411.99 1175.61v-11.24c-5.306-1.58-10.777-2.54-16.304-2.86v10.9c5.544.4 11.019 1.47 16.304 3.2z"/><path d="m384.816 1194.71v-10.88c-5.676-.14-11.572-.19-16.304-.17v10.85c3.915-.02 9.81.04 16.304.2z"/><path d="m411.99 1197.82v-11.09c-5.341-1.36-10.802-2.19-16.304-2.48v10.87c5.48.6 10.924 1.5 16.304 2.7z"/><path d="m384.816 1217.54v-10.87c-4.366-.08-11.014-.15-16.304-.14v10.85c3.56-.01 9.539.04 16.304.16z"/><path d="m411.99 1219.96v-11c-5.384-1.02-10.831-1.68-16.304-1.97v10.85c3.256.14 15.143 1.94 16.304 2.12z"/><path d="m411.99 1242.03v-10.93c-3.096-.29-12.873-1.29-16.304-1.41v10.85c1.666.04 15.76 1.44 16.304 1.49z"/><path d="m384.816 1240.34v-10.86c-4.827-.06-11.704-.08-16.304-.06v10.82c4.009 0 9.957.03 16.304.1z"/><path d="m411.99 1264.03v-10.88c-.178-.01-13.56-.66-16.304-.72v10.85c1.536.02 15.646.72 16.304.75z"/><path d="m384.816 1263.17v-10.87c-5.036-.03-11.49-.04-16.304-.03v10.84c3.576 0 9.375.01 16.304.06z"/><path d="m1096.03 59.4106h119.56v27.1739h10.87v-38.0435h-141.3v500h10.87z"/><path d="m1427.55 220.64c-12.68-.105-25.36-.084-38.05.061v10.81c12.67-.142 25.35-.163 38.05-.063z"/><path d="m1547.11 225.548c-8.92-.687-17.97-1.305-27.17-1.855v10.843c9.19.552 18.25 1.176 27.17 1.87z"/><path d="m1297.11 224.037c-9.19.576-18.27 1.21-27.17 1.931v10.872c8.9-.73 17.98-1.376 27.17-1.96z"/><path d="m1356.9 221.33c-9.13.258-18.19.586-27.18.986v10.824c8.99-.392 18.05-.724 27.18-.993z"/><path d="m1182.98 236.338c-3.7.619-7.31 1.266-10.87 1.921v11.049c3.57-.671 7.16-1.333 10.87-1.965z"/><path d="m1237.33 229.018c-7.42.792-14.65 1.653-21.74 2.556v10.939c7.08-.917 14.33-1.778 21.74-2.584z"/><path d="m1650.37 238.261c-5.27-.974-10.71-1.908-16.3-2.8v11.005c5.59.909 11.04 1.852 16.3 2.843z"/><path d="m1487.33 222.085c-8.99-.361-18.05-.657-27.17-.888v10.814c9.12.234 18.18.533 27.17.898z"/><path d="m1601.46 230.884c-7.08-.863-14.33-1.672-21.74-2.425v10.889c7.42.767 14.66 1.592 21.74 2.474z"/><path d="m1356.9 277.232c-9.15.207-18.21.471-27.18.791v10.798c8.98-.316 18.04-.582 27.18-.8z"/><path d="m1427.55 276.678c-12.68-.083-25.38-.069-38.05.044v10.786c12.67-.113 25.37-.13 38.05-.045z"/><path d="m1297.11 279.41c-9.24.472-18.29 1.004-27.17 1.595v10.827c8.86-.597 17.94-1.128 27.17-1.605z"/><path d="m1601.46 285.12c-7.01-.731-14.29-1.407-21.74-2.044v10.859c7.44.646 14.74 1.324 21.74 2.067z"/><path d="m1182.98 289.934c-3.74.569-7.36 1.157-10.87 1.764v11.029c3.51-.622 7.12-1.23 10.87-1.814z"/><path d="m1237.33 283.545c-7.48.673-14.72 1.394-21.74 2.164v10.908c7.02-.784 14.24-1.528 21.74-2.213z"/><path d="m1547.11 280.659c-8.89-.564-17.93-1.08-27.17-1.524v10.806c9.25.451 18.29.976 27.17 1.547z"/><path d="m1487.33 277.829c-8.97-.291-18.05-.516-27.17-.702v10.79c9.13.186 18.19.423 27.17.711z"/><path d="m1650.37 291.7c-5.2-.898-10.6-1.764-16.3-2.581v10.978c5.69.836 11.13 1.713 16.3 2.632z"/><path d="m1297.11 334.871c-9.27.376-18.32.8-27.17 1.273v10.801c8.83-.479 17.88-.908 27.17-1.289z"/><path d="m1182.98 343.58c-3.78.507-7.41 1.031-10.87 1.574v10.99c3.45-.56 7.08-1.101 10.87-1.624z"/><path d="m1487.33 333.626c-8.96-.229-18.02-.416-27.17-.562v10.765c9.14.147 18.2.336 27.17.567z"/><path d="m1427.55 332.723c-12.67-.067-25.39-.056-38.05.031v10.763c12.66-.091 25.38-.1 38.05-.034z"/><path d="m1356.9 333.158c-9.15.163-18.21.368-27.18.613v10.773c8.96-.25 18.01-.457 27.18-.621z"/><path d="m1237.33 338.195c-7.53.552-14.78 1.147-21.74 1.784v10.858c6.94-.646 14.21-1.248 21.74-1.809z"/><path d="m1601.46 339.496c-6.97-.603-14.24-1.163-21.74-1.685v10.824c7.52.531 14.76 1.102 21.74 1.714z"/><path d="m1650.37 345.154c-5.08-.796-10.51-1.555-16.3-2.277v10.925c5.8.741 11.25 1.521 16.3 2.342z"/><path d="m1547.11 335.862c-8.84-.448-17.9-.849-27.17-1.202v10.781c9.26.358 18.32.764 27.17 1.218z"/><path d="m1650.37 398.665c-4.97-.697-10.43-1.355-16.3-1.981v10.967c5.92.632 11.37 1.302 16.3 2.008z"/><path d="m1427.55 388.382c-12.67-.053-25.39-.045-38.05.025v11.117c12.66-.068 25.38-.076 38.05-.024z"/><path d="m1547.11 390.888c-8.82-.359-17.89-.682-27.17-.964v11.074c9.28.276 18.36.589 27.17.939z"/><path d="m1601.46 393.851c-6.94-.494-14.19-.955-21.74-1.384v11.011c7.56.421 14.81.874 21.74 1.36z"/><path d="m1356.9 388.729c-9.16.128-18.22.291-27.18.486v11.093c8.94-.19 18-.347 27.18-.472z"/><path d="m1487.33 389.101c-8.96-.182-18.01-.331-27.17-.449v11.111c9.15.112 18.21.256 27.17.434z"/><path d="m1297.11 390.098c-9.29.302-18.35.643-27.17 1.023v11.042c8.8-.37 17.87-.702 27.17-.997z"/><path d="m1182.98 397.285c-3.83.443-7.46.902-10.87 1.379v10.994c3.39-.484 7.01-.951 10.87-1.401z"/><path d="m1237.33 392.785c-7.56.454-14.83.941-21.74 1.464v10.982c6.9-.514 14.14-.993 21.74-1.44z"/><path d="m1427.55 444.424c-12.67-.038-25.39-.034-38.05.017v10.713c12.66-.051 25.38-.055 38.05-.017z"/><path d="m1297.11 445.691c-9.3.225-18.38.477-27.17.759v10.74c8.78-.287 17.86-.543 27.17-.771z"/><path d="m1237.33 447.697c-7.61.343-14.85.713-21.74 1.112v10.777c6.86-.405 14.12-.783 21.74-1.133z"/><path d="m1487.33 444.954c-8.95-.134-18.01-.244-27.17-.329v10.716c9.15.086 18.21.197 27.17.333z"/><path d="m1547.11 446.282c-8.8-.268-17.86-.507-27.17-.718v10.727c9.3.212 18.36.454 27.17.727z"/><path d="m1650.37 452.3c-4.86-.565-10.31-1.099-16.3-1.603v10.829c6.03.525 11.48 1.084 16.3 1.673z"/><path d="m1601.46 448.502c-6.9-.373-14.17-.719-21.74-1.043v10.755c7.58.328 14.85.682 21.74 1.062z"/><path d="m1356.9 444.678c-9.17.095-18.24.215-27.18.359v10.72c8.94-.146 18.01-.267 27.18-.364z"/><path d="m1182.98 451.178c-3.89.359-7.51.733-10.87 1.122v10.899c3.33-.407 6.96-.799 10.87-1.176z"/><path d="m1329.72 511.592c8.94-.101 17.99-.185 27.18-.252v-10.692c-9.18.067-18.23.15-27.18.251z"/><path d="m1579.72 513.295c7.62.231 14.87.48 21.74.748v-10.732c-6.88-.263-14.14-.506-21.74-.733z"/><path d="m1172.11 516.896c3.27-.305 6.89-.599 10.87-.881v-10.798c-3.94.266-7.57.545-10.87.833z"/><path d="m1269.94 512.581c8.77-.199 17.83-.376 27.17-.533v-10.698c-9.32.155-18.38.33-27.17.526z"/><path d="m1634.07 515.652c6.15.389 11.61.805 16.3 1.245v-10.846c-4.76-.416-10.22-.812-16.3-1.182z"/><path d="m1519.94 511.96c9.31.147 18.39.314 27.17.501v-10.705c-8.78-.186-17.87-.35-27.17-.496z"/><path d="m1460.16 511.306c9.16.059 18.23.135 27.17.228v-10.695c-8.94-.091-18.02-.165-27.17-.224z"/><path d="m1215.59 514.261c6.83-.285 14.1-.549 21.74-.796v-10.721c-7.62.242-14.9.499-21.74.778z"/><path d="m1389.5 511.176c12.66-.036 25.38-.039 38.05-.012v-10.689c-12.67-.027-25.39-.024-38.05.012z"/><path d="m1704.72 553.977h-619.56v10.869h619.56z"/><path d="m1193.85 548.542h10.87v-336.56c-3.66.572-7.28 1.161-10.87 1.768z"/><path d="m1248.2 238.814v309.728h10.87v-343.554c-3.65.382-7.26.788-10.87 1.198z"/><path d="m1307.98 548.541h10.87v-348.367c-3.63.217-7.26.431-10.87.674z"/><path d="m1367.77 221.072v327.47h10.87v-350.737c-3.63.074-7.25.175-10.87.273z"/><path d="m1612.33 548.542h10.87v-335.715c-3.58-.581-7.22-1.131-10.87-1.679z"/><path d="m1557.98 548.541h10.87v-342.95c-3.6-.394-7.22-.775-10.87-1.144z"/><path d="m1498.2 222.547v325.995h10.87v-348.036c-3.61-.229-7.24-.448-10.87-.656z"/><path d="m1438.42 548.542h10.87v-350.608c-3.62-.087-7.25-.158-10.87-.215z"/><path d="m1172.11 184.074c3.26-.815 7.51-1.611 10.87-2.375v-19.64c-3.35.777-7.62 1.576-10.87 2.401z"/><path d="m1221.03 176.064c3.27-.581 7.53-1.141 10.87-1.679v-19.752c-3.34.546-7.6 1.12-10.87 1.709z"/><path d="m1280.81 169.44c3.29-.367 7.54-.73 10.87-1.059v-19.826c-3.33.334-7.58.698-10.87 1.069z"/><path d="m1340.59 165.541c3.3-.188 7.56-.353 10.87-.507v-19.86c-3.31.159-7.57.324-10.87.517z"/><path d="m1411.24 144.078c-3.3-.002-7.56.027-10.86.059v19.871c3.3-.032 7.56-.061 10.86-.059z"/><path d="m1481.9 145.691c-3.29-.191-7.55-.358-10.87-.517v19.86c3.32.157 7.58.319 10.87.51z"/><path d="m1541.68 149.626c-3.28-.371-7.53-.738-10.87-1.069v19.823c3.34.331 7.59.692 10.87 1.059z"/><path d="m1596.03 155.594c-3.26-.565-7.53-1.104-10.87-1.629v19.751c3.34.518 7.61 1.043 10.87 1.601z"/><path d="m1650.38 164.464c-3.24-.825-7.51-1.627-10.87-2.402v19.638c3.37.767 7.62 1.56 10.87 2.375z"/><path d="m1150.38 109.379v439.162h10.86v-339.323c14.96-3.105 28.96-5.552 43.48-7.794v.256c14.05-2.237 28.54-4.223 43.48-5.96v-.235c3.61-.406 7.22-.818 10.87-1.196v.184c15.95-1.702 32.3-3.121 48.91-4.263v-.232c3.57-.228 8.53-.525 10.87-.662v-.012c16.13-.951 32.46-1.651 48.92-2.097v.031c3.62-.097 7.24-.195 10.87-.267v-.036c-20.79.411 25.16-.743 65.21.02-1.81-.034-3.62-.077-5.43-.106v.034c3.63.061 7.25.131 10.87.21v-.03c27.46.649 69.35 3.052 48.91 1.918v.011c3.64.2 7.25.426 10.87.651v.21c15.86 1.047 30.24 2.169 48.91 4.076v-.163c3.65.361 7.27.737 10.87 1.127v.209c14.89 1.66 29.43 3.556 43.48 5.711v-.222c16.6 2.464 32.77 5.276 48.91 8.628v339.322h10.87v-439.162l-4.27-.934c-169.05-37.1091-344.14-37.1091-513.19 0zm10.86 8.763c164.78-35.5385 335.23-35.5385 500 0v79.772c-141.9-29.503-358.09-29.503-500 0z"/><path d="m1704.72 657.238v-86.957h-10.87v65.218h-608.69v21.739h-10.87v10.869h646.74v-10.869zm-608.69 0v-10.87h597.82v10.87z"/><path d="m1204.72 570.281h-10.87v59.783h10.87z"/><path d="m1161.24 570.281h-10.86v59.783h10.86z"/><path d="m1128.64 570.281h-10.87v59.783h10.87z"/><path d="m1096.03 570.281h-10.87v59.783h10.87z"/><path d="m1259.07 570.281h-10.87v59.783h10.87z"/><path d="m1318.85 570.281h-10.87v59.783h10.87z"/><path d="m1378.64 570.281h-10.87v59.783h10.87z"/><path d="m1449.29 570.281h-10.87v59.783h10.87z"/><path d="m1509.07 570.281h-10.87v59.783h10.87z"/><path d="m1568.85 570.281h-10.87v59.783h10.87z"/><path d="m1623.2 570.281h-10.87v59.783h10.87z"/><path d="m1672.11 570.281h-10.87v59.783h10.87z"/></g></g></svg>