<svg fill="none" height="2000" viewBox="0 0 2000 2000" width="2000" xmlns="http://www.w3.org/2000/svg" xmlns:xlink="http://www.w3.org/1999/xlink"><clipPath id="a"><path d="m0 0h2000v2000h-2000z"/></clipPath><g clip-path="url(#a)"><path d="m1000 2000c552.28 0 1000-447.72 1000-1000 0-552.285-447.72-1000-1000-1000-552.285 0-1000 447.715-1000 1000 0 552.28 447.715 1000 1000 1000z" fill="#fff"/><path d="m1154.91 1350.08c-19.67 110.34-135.54 181.91-258.824 159.85-123.286-22-207.276-129.36-187.543-239.64 19.676-110.33 134.81-177.01 258.828-159.85 126.439 17.44 207.279 129.36 187.539 239.64zm-110.75-707.04c179.34-81.135 346.03-191.36 491.91-322.91l-193.78-191.417c-234.6 253.309-444.798 402.358-878.352 525.805v260.624c73.308-37.641 149.427-69.15 228.301-91.094 72.971-20.368 148.416-29.371 224.254-30.159 93.037.732 187.317 32.241 258.937 91.77 91.47 75.565 132.23 185.681 118.91 302.931-6.24 77.31-35.65 144.78-80.73 198.57l-24.8-4.73c18.89-41.92 30.36-90.31 32.84-144.32 8.09-177.07-104.8-338.159-335.121-326.681-250.396 12.491-412.978 227.031-386.556 448.721 24.23 204.25 207.276 354.31 422.086 357.68v.28c291.711 9.91 484.371-158.95 557.631-352.84 65.88-174.42 48.85-376.982-73.82-521.585-91.75-109.944-223.63-174.087-361.82-200.645" fill="#e97724"/></g></svg>