<svg viewBox="0 0 69 100" xmlns="http://www.w3.org/2000/svg"><g fill="#5bfe08"><g fill-rule="evenodd"><path d="m21.67 69.26.52-.14v3.51c0 1.9-2.68 2.68-2.64.71v-3.51l.55-.15v-.42l-3.73 1v.42l.48-.13v3.6c.17 5.14 7.83 3.15 8-2.15v-3.6l.51-.14v-.42l-3.72 1v.42z"/><path d="m20.34 58.07v-.42l-.64.17v-1.76l1.88 1.37 1.87-2.38v1.76l-.64.17v.43l3.97-1.07v-.42l-.64.17v-7.79l-4.56 5.79-4.57-3.34v7.79l-.63.17v.42z"/><path d="m31.55 52.25 1.18-.31-.59-2.13zm1.62 1.27-2.06.56-.17.73.42-.12v.43l-4.16 1.11v-.42l.57-.15 2.64-7.66-.5.13v-.42l3.8-1 2.79 6.6.57-.15v.42l-4.15 1.11v-.42l.42-.11-.18-.64z"/><path d="m41.64 44.6c2.16-.58 4.06.58 4.06 2.79a5.55 5.55 0 0 1 -4.06 5l-4.14 1.08v-.42l.66-.18v-6.87l-.66.18v-.42zm-.24 2.29-.55.15v3.31l.55-.15a2.23 2.23 0 0 0 1.6-2.09 1.18 1.18 0 0 0 -1-1.29 1.12 1.12 0 0 0 -.6.07z"/><path d="m52.94 43.8v-2.23l-6.98 1.87v.42l.73-.19v6.92l-.73.19v.42l6.98-1.87v-2.22l-3.56.95v-1.44l1.89-.51v-.42l-1.89.51v-1.45z"/><path d="m16.38 68.58 4.03-1.09v-.42l-.67.18v-6.92l.67-.18v-.42l-4.03 1.08v.43l.67-.19v6.92l-.67.18z"/><path d="m25.86 58.7.51-.14v2.66l-4.87-2.23v7.79l-.51.14v.42l3.72-1v-.42l-.51.14v-2.72l4.86 2.28v-7.78l.52-.14v-.42l-3.72.99z"/><path d="m38.72 69.22 1.18-.31-.59-2.13zm1.62 1.27-2.06.56-.18.73.42-.12v.42l-4.15 1.12v-.42l.57-.16 2.64-7.62-.5.13v-.42l3.8-1 2.8 6.59.57-.15v.42l-4.15 1.09v-.42l.42-.11z"/><path d="m51.37 68.64v-2.22l-3.28.88v-5.12l.72-.19v-.42l-4.14 1.11v.42l.73-.2v6.92l-.73.2v.42z"/><path d="m29.57 74.49v-.43l-.39.11v-1.12h.32a3.71 3.71 0 0 0 4.5 1.56v-2.4c-.77.21-1.65.07-1.89-.48 2.26-1.88 1.49-6-1.79-5.17l-4.32 1.15v.42l.5-.13v6.92l-.51.14v.42l3.6-1zm-.39-3.66v-1.78l.61-.16c1.19-.28 1.21 1.39 0 1.77l-.63.17z"/><path d="m19.64 45.79.23.17v1.9l-2.7 3.38.17.14 2.75-3.44v-1.81l.54.4v1.8l-3.2 4 .17.13 3-3.79v6h.22v-10.14h1.84l.9 2.23v5.3h.22v-5.35l-.88-2.17.38-1.13 2.35 5.78.21-.09-2.45-6 .21-.62h.4l1.31 3.23 4.26.74 1.76 1.4.14-.17-1.47-1.16 3.33.57v-.21l-3.72-.64-2.37-1.89-.75-1.87h2.34l-1-.79h-1.58l-.46-1.14 2.82-1.72.33-1.37-3.53 2.16-.41-1.13h-.21l-.65 1.92-.54.33-.47-1.14h-.21l-.49 1.85-3.21 1.95.43 1.05v1.35zm6.69-3.31h-2.07l1.24 3 3.74.64-2.12-1.71-.79-2zm-.33-.79h-2.07l1.66-1zm-.79-2-.83.51.47-1.4zm-1.43 1.6.06-.19h-.14l.09.22zm.13-.39.07-.2-.25.15h.18zm1.58-1.08.16.4h.12l.17-.71zm0 .64v-.05l-.62-.15-.17.7.81-.5zm-.12-.3-.09-.22-.23.14zm-1.11.4-.15.43.32.07.17-.7zm-.22.64-.06.19.25-.15h-.19zm-.69-.33-.71.43.36-1.3zm.29.73-.15-.39-.12.48h.12zm-1.09 0v.08h.61l.13-.52-.72.44zm3.82-2.34.71.17.17-.7zm1.33-.81.71.17.17-.71zm.51.35-.72-.16-.17.7zm-1.33.81-.71-.17-.17.7z"/></g><path d="m34.5 93.54a34.18 34.18 0 1 1 34.18-34.18 34.23 34.23 0 0 1 -34.18 34.18zm0-67.36a33.18 33.18 0 1 0 33.18 33.18 33.21 33.21 0 0 0 -33.18-33.18z"/></g></svg>