<svg fill="none" height="2001" viewBox="0 0 2001 2001" width="2001" xmlns="http://www.w3.org/2000/svg"><path d="m.893555.685364h2000v2000h-2000z" fill="#161616"/><g fill="#e6f0fa"><path d="m102.192 1123.8 12.282-19.44 5.607 3.56-9.345 15.88 9.345 15.88-5.607 3.55zm17.355 0 12.282-19.44 5.607 3.56-9.345 15.88 9.345 15.88-5.607 3.55z" opacity=".5"/><path d="m157.329 1147.55h-8.148v-60.46h9.507v43.46h.543l28.792-43.46h8.149v60.46h-9.507v-43.46h-.543z" opacity=".5"/><path d="m239.365 1137.99 2.734 7.11c-3.828 1.63-7.929 2.45-12.304 2.45-14.49 0-21.872-10.37-21.872-23.21s6.835-23.22 21.326-23.22c4.101 0 8.475.82 12.303 2.46l-2.734 7.1c-2.734-1.09-5.742-1.64-9.023-1.64-7.655 0-12.576 6.29-12.576 15.57 0 9.29 4.921 15.57 12.576 15.57 3.281-.27 6.562-.82 9.57-2.19z" opacity=".5"/><path d="m286.136 1126.52h-28.359c.545 8.74 5.181 13.39 13.089 13.39 3.817 0 7.635-1.1 11.179-3.01l3 6.83c-4.636 2.46-9.817 3.82-14.998 3.82-13.088 0-21.541-8.46-21.541-23.21s7.907-23.22 20.178-23.22c11.998 0 18.27 7.1 18.27 18.03 0 2.46-.273 4.92-.818 7.37zm-28.086-7.37h20.723c0-6.01-3.272-10.38-10.089-10.38-5.999 0-9.544 4.1-10.634 10.38z" opacity=".5"/><path d="m292.293 1103.28h37.38l-1.637 7.61h-12.278v36.66h-9.004v-36.66h-14.188v-7.61z" opacity=".5"/><path d="m336.08 1147.55v-44.27h9.095v15.21h9.647c9.646 0 15.434 5.71 15.434 14.67 0 8.69-5.512 14.39-15.434 14.39zm9.371-21.72v14.12h8.268c3.859 0 7.166-2.99 7.442-7.06 0-3.81-3.032-7.06-7.166-7.34-.276 0-.276 0-.551 0h-7.993z" opacity=".5"/><path d="m382.269 1143.23-5.607-3.55 9.345-15.88-9.345-15.88 5.607-3.56 12.282 19.44zm17.355 0-5.607-3.55 9.345-15.88-9.345-15.88 5.607-3.56 12.282 19.44z" opacity=".5"/><path d="m448.216 1125.96v-8.64h52.331l-1.619 8.64z" opacity=".5"/><path d="m536.86 1124.34c0-14.48 8.117-23.22 20.292-23.22 12.176 0 20.292 8.74 20.292 23.22 0 14.47-8.116 23.21-20.292 23.21-12.175 0-20.292-8.74-20.292-23.21zm9.199 0c0 9.83 4.329 15.57 11.093 15.57s11.093-5.74 11.093-15.57-4.329-15.57-11.093-15.57-11.093 5.74-11.093 15.57z" opacity=".5"/><path d="m580.646 1103.28h37.38l-1.637 7.61h-12.278v36.66h-9.003v-36.66h-14.189v-7.61z" opacity=".5"/><path d="m645.792 1125.38 16.02 23.49-9.612.84-13.617-20.7h-3.204v19.86h-8.811v-45.59h8.811v18.46h3.471l12.549-18.46h9.613z" opacity=".5"/><path d="m679.167 1106.7c2.937-3.61 7.209-5.83 11.748-5.55 12.015 0 17.889 10 17.889 23.61s-5.607 23.62-17.889 23.62c-4.272 0-8.277-1.39-11.748-3.89v20.83l-8.811 1.67v-65.01h6.675l1.602 4.72zm0 28.9c2.403 2.77 5.874 4.72 9.345 5 7.476 0 10.947-6.67 10.947-15.84 0-9.44-3.471-15.83-10.68-15.83-4.005.27-7.743 2.77-9.879 6.39v20.28z" opacity=".5"/><path d="m729.735 1118.49h8.102c9.452 0 15.124 5.71 15.124 14.67 0 8.69-5.401 14.39-15.124 14.39h-17.284v-44.27h8.912v15.21zm0 7.34v14.12h7.292c3.781 0 6.752-2.72 7.022-6.52 0-.27 0-.27 0-.54 0-3.81-2.971-7.06-6.752-7.06-.27 0-.27 0-.54 0zm37.81 21.72h-8.912v-44.27h8.912z" opacity=".5"/><path d="m773.95 1103.28h37.38l-1.637 7.61h-12.278v36.66h-9.004v-36.66h-14.188v-7.61z" opacity=".5"/><path d="m827.987 1118.49h8.102c9.453 0 15.124 5.71 15.124 14.67 0 8.69-5.401 14.39-15.124 14.39h-17.284v-44.27h8.912v15.21zm0 7.34v14.12h7.292c3.781 0 6.751-2.72 7.022-6.52 0-.27 0-.27 0-.54 0-3.81-2.971-7.06-6.752-7.06-.27 0-.27 0-.54 0zm37.81 21.72h-8.913v-44.27h8.913z" opacity=".5"/><path d="m879.68 1147.55v-44.97h8.811v30.08h.534l20.024-30.08h8.01v44.97h-8.811v-30.07h-.534l-20.024 30.07zm26.699-62.62 6.141 4.14c-4.806 8-15.218 10.48-22.961 5.51-2.136-1.38-4.005-3.31-5.073-5.51l6.141-4.14c1.068 4.69 5.873 7.17 10.145 6.07 2.67-.83 4.806-3.31 5.607-6.07z" opacity=".5"/><path d="m952.034 1140.62c4.806-8.3 6.408-16.32 6.408-32.36v-4.98h28.568v37.34h6.942l-1.602 18.81h-7.209v-11.34h-29.369v11.34h-7.209l-1.602-18.81zm15.219-28.76c.267 9.95-1.869 19.91-6.141 28.76h16.82v-29.87h-10.947v1.11z" opacity=".5"/><path d="m1004.63 1147.55v-44.27h8.81v29.61h.54l20.02-29.61h8.01v44.27h-8.81v-29.6h-.53l-20.03 29.6z" opacity=".5"/><path d="m1090.07 1147.55h-8.94v-19.01h-17.36v19.01h-8.94v-44.27h8.94v17.66h17.36v-17.66h8.94z" opacity=".5"/><path d="m1126.92 1117.58c0-5.49-2.14-8.78-8.54-8.78-4.01 0-8.01.83-11.75 2.47l-2.67-7.13c4.8-1.92 10.14-3.02 15.48-3.02 13.35 0 16.56 7.13 16.56 16.46v18.65c-.27 1.64.8 3.01 2.4 3.29h.8 1.07v6.85c-1.6.55-3.2.83-5.07.83-3.21 0-5.88-1.92-6.68-5.21h-.53c-2.94 3.84-7.75 6.03-12.55 5.48-8.28 0-13.62-4.39-13.62-13.71 0-9.33 6.41-13.71 16.29-13.71h9.08v-2.47zm-9.61 10.15c-4.27 0-6.94 2.19-6.94 6.3-.27 3.02 1.86 6.04 5.07 6.31h1.33c4.28 0 8.28-2.47 10.15-6.31v-6.03h-9.61z" opacity=".5"/><path d="m1175.45 1140.22h-9.49l-8.69-24.17h-.27l-2.44 31.5h-8.95l4.34-44.27h10.31l10.31 28.25h.27l10.31-28.25h10.31l4.34 44.27h-8.95l-2.44-31.5h-.27z" opacity=".5"/><path d="m1206.48 1147.55v-44.27h8.81v29.61h.54l20.02-29.61h8.01v44.27h-8.81v-29.6h-.53l-20.03 29.6z" opacity=".5"/><path d="m1255.61 1117.13v-13.85h9.02v13.04c-.27 3.8 2.46 7.06 6.29 7.6h1.36c3.01 0 5.75-.54 8.48-1.63v-19.01h9.02v44.27h-9.02v-18.19c-3.28 1.08-6.56 1.9-9.84 1.9-8.75.27-15.31-4.35-15.31-14.13z" opacity=".5"/><path d="m1339.98 1147.55h-8.95v-19.01h-17.35v19.01h-8.95v-44.27h8.95v17.66h17.35v-17.66h8.95z" opacity=".5"/><path d="m1361.98 1118.49h8.1c9.45 0 15.12 5.71 15.12 14.67 0 8.69-5.4 14.39-15.12 14.39h-17.29v-44.27h8.92v15.21zm0 7.34v14.12h7.29c3.78 0 6.75-2.72 7.02-6.52 0-.27 0-.27 0-.54 0-3.81-2.97-7.06-6.75-7.06-.27 0-.27 0-.54 0zm37.81 21.72h-8.92v-44.27h8.92z" opacity=".5"/><path d="m1412.6 1147.55v-44.97h8.81v30.08h.54l20.02-30.08h8.01v44.97h-8.81v-30.07h-.53l-20.03 30.07zm26.7-62.62 6.14 4.14c-4.8 8-15.22 10.48-22.96 5.51-2.14-1.38-4-3.31-5.07-5.51l6.14-4.14c1.07 4.69 5.87 7.17 10.14 6.07 2.41-.83 4.81-3.31 5.61-6.07z" opacity=".5"/><path d="m1515.13 1103.28-1.65 7.61h-17.05v36.66h-9.07v-44.27z" opacity=".5"/><path d="m1530.35 1106.7c2.93-3.61 7.21-5.83 11.74-5.55 12.02 0 17.89 10 17.89 23.61s-5.6 23.62-17.89 23.62c-4.27 0-8.27-1.39-11.74-3.89v20.83l-8.81 1.67v-65.01h6.67l1.6 4.72zm0 28.9c2.4 2.77 5.87 4.72 9.34 5 7.48 0 10.95-6.67 10.95-15.84 0-9.44-3.47-15.83-10.68-15.83-4.01.27-7.74 2.77-9.88 6.39v20.28z" opacity=".5"/><path d="m1568.53 1124.34c0-14.48 8.11-23.22 20.29-23.22 12.17 0 20.29 8.74 20.29 23.22 0 14.47-8.12 23.21-20.29 23.21-12.18 0-20.29-8.74-20.29-23.21zm9.19 0c0 9.83 4.33 15.57 11.1 15.57 6.76 0 11.09-5.74 11.09-15.57s-4.33-15.57-11.09-15.57c-6.77 0-11.1 5.74-11.1 15.57z" opacity=".5"/><path d="m1614.45 1103.28h37.38l-1.64 7.61h-12.28v36.66h-9v-36.66h-14.19v-7.61z" opacity=".5"/><path d="m1692.66 1126.52h-28.36c.55 8.74 5.19 13.39 13.09 13.39 3.82 0 7.64-1.1 11.18-3.01l3 6.83c-4.63 2.46-9.81 3.82-15 3.82-13.08 0-21.54-8.46-21.54-23.21s7.91-23.22 20.18-23.22c12 0 18.27 7.1 18.27 18.03 0 2.46-.27 4.92-.82 7.37zm-27.81-7.37h20.72c0-6.01-3.27-10.38-10.09-10.38-6.27 0-9.54 4.1-10.63 10.38z" opacity=".5"/><path d="m1733.46 1137.99 2.74 7.11c-3.83 1.63-7.93 2.45-12.31 2.45-14.49 0-21.87-10.37-21.87-23.21s6.84-23.22 21.33-23.22c4.1 0 8.47.82 12.3 2.46l-2.73 7.1c-2.74-1.09-5.74-1.64-9.03-1.64-7.65 0-12.57 6.29-12.57 15.57 0 9.29 4.92 15.57 12.57 15.57 3.56-.27 6.57-.82 9.57-2.19z" opacity=".5"/><path d="m1765.04 1125.38 16.02 23.49-9.62.84-13.61-20.7h-3.21v19.86h-8.81v-45.59h8.81v18.46h3.47l12.55-18.46h9.62z" opacity=".5"/><path d="m1792.27 1135.68c3.36 0 5.87 2.54 5.87 5.94 0 3.39-2.51 5.93-5.87 5.93s-5.88-2.54-5.88-5.93c0-3.4 2.8-5.94 5.88-5.94z" opacity=".5"/><path d="m135.832 1254.45c-18.081 0-25.098-13.89-25.098-31.31 0-17.43 7.017-31.32 25.098-31.32s25.097 13.89 25.097 31.32c0 17.42-7.286 31.31-25.097 31.31zm0-54.46c-11.065 0-15.382 10.08-15.382 22.87 0 12.8 4.317 22.87 15.382 22.87 11.064 0 15.382-10.07 15.382-22.87 0-12.79-4.318-22.87-15.382-22.87z" opacity=".5"/><path d="m192.703 1199.28c-9.345 0-14.151 4.67-14.151 17.56h.534c3.471-3.84 8.544-6.03 13.884-5.76 10.679 0 18.155 7.41 18.155 22.22 0 14.55-8.544 22.23-20.558 22.23-14.418 0-20.025-10.15-20.025-28.81 0-29.63 7.476-34.57 21.626-35.12 4.806 0 9.346-1.1 13.617-3.02l2.403 7.14c-5.073 2.47-10.145 3.56-15.485 3.56zm-2.403 48.29c6.674 0 11.481-4.66 11.481-14.54s-4.539-14.54-10.413-14.54c-5.073.27-9.879 3.02-12.282 7.68 0 14.27 3.471 21.4 11.214 21.4z" opacity=".5"/><path d="m216.749 1246.24c.812.57 1.894.85 2.976.85 4.329 0 6.764-8.73 6.764-30.39v-7.6h29.491v45.87h-8.928v-37.99h-11.634v1.97c0 23.35-5.141 36.58-14.34 36.58-1.894 0-4.058-.56-5.682-1.69z" opacity=".5"/><path d="m292.827 1224.47c0-5.48-2.137-8.77-8.545-8.77-4.005 0-8.009.82-11.747 2.47l-2.67-7.13c4.806-1.92 10.145-3.02 15.485-3.02 13.35 0 16.555 7.13 16.555 16.45v18.65c-.267 1.65.8 3.02 2.402 3.29h.801 1.068v6.86c-1.602.55-3.204.82-5.073.82-3.204 0-5.874-1.92-6.675-5.21h-.533c-2.937 3.84-7.744 6.04-12.55 5.49-8.277 0-13.616-4.39-13.616-13.72 0-9.32 6.407-13.71 16.286-13.71h9.078v-2.47zm-9.345 10.15c-4.272 0-6.942 2.2-6.942 6.31-.267 3.02 1.868 6.03 5.072 6.31h1.335c4.272 0 8.277-2.47 10.146-6.31v-6.03h-9.611z" opacity=".5"/><path d="m314.452 1246.44c4.806-8.3 6.408-16.32 6.408-32.36v-4.98h28.568v37.34h6.942l-1.602 18.81h-7.209v-11.34h-29.369v11.34h-7.209l-1.602-18.81zm15.219-28.77c.267 9.96-1.869 19.92-6.141 28.77h16.82v-29.87h-10.947v1.1z" opacity=".5"/><path d="m386.808 1224.47c0-5.48-2.136-8.77-8.544-8.77-4.005 0-8.01.82-11.748 2.47l-2.67-7.13c4.806-1.92 10.146-3.02 15.486-3.02 13.35 0 16.554 7.13 16.554 16.45v18.65c-.267 1.65.801 3.02 2.403 3.29h.801 1.068v6.86c-1.602.55-3.204.82-5.073.82-3.204 0-5.874-1.92-6.675-5.21h-.534c-2.937 3.84-7.743 6.04-12.549 5.49-8.277 0-13.617-4.39-13.617-13.72 0-9.32 6.408-13.71 16.287-13.71h9.078v-2.47zm-9.612 10.15c-4.272 0-6.942 2.2-6.942 6.31-.267 3.02 1.869 6.03 5.073 6.31h1.335c4.272 0 8.277-2.47 10.146-6.31v-6.03h-9.612z" opacity=".5"/><path d="m445.265 1233.42h-28.359c.545 8.74 5.181 13.38 13.088 13.38 3.818 0 7.635-1.09 11.18-3l3 6.83c-4.636 2.45-9.817 3.82-14.998 3.82-13.088 0-21.541-8.47-21.541-23.21 0-14.75 7.907-23.22 20.178-23.22 11.998 0 18.27 7.1 18.27 18.03 0 2.45-.273 4.91-.818 7.37zm-27.814-7.37h20.724c0-6.01-3.272-10.38-10.089-10.38-5.999 0-9.544 4.09-10.635 10.38z" opacity=".5"/><path d="m451.418 1209.1h37.38l-1.637 7.6h-12.278v36.67h-9.004v-36.67h-14.188v-7.6z" opacity=".5"/><path d="m525.191 1236.26c-5.112-2.17-8.609-7.33-8.071-13.04 0-8.69 5.65-14.12 15.335-14.12h17.219v44.27h-8.879v-16.02h-6.726l-9.416 16.02h-10.223zm8.071-6.25h7.533v-13.31h-7.533c-3.497-.27-6.726 2.45-6.995 5.98v.81c0 3.53 2.691 6.52 6.188 6.52z" opacity=".5"/><path d="m592.863 1244.89 2.734 7.1c-3.828 1.64-7.929 2.46-12.303 2.46-14.491 0-21.873-10.38-21.873-23.21 0-12.84 6.835-23.22 21.326-23.22 4.101 0 8.475.82 12.303 2.46l-2.734 7.1c-2.734-1.09-5.742-1.64-9.022-1.64-7.656 0-12.578 6.28-12.578 15.57 0 9.28 4.922 15.57 12.578 15.57 3.28-.28 6.561-.82 9.569-2.19z" opacity=".5"/><path d="m638.319 1253.37h-8.947v-19.01h-17.35v19.01h-8.947v-44.27h8.947v17.65h17.35v-17.65h8.947z" opacity=".5"/><path d="m661.383 1224.31h8.102c9.452 0 15.123 5.7 15.123 14.66 0 8.7-5.401 14.4-15.123 14.4h-17.285v-44.27h8.913v15.21zm0 7.33v14.12h7.292c3.781 0 6.751-2.71 7.021-6.51 0-.28 0-.28 0-.55 0-3.8-2.97-7.06-6.751-7.06-.27 0-.271 0-.541 0zm37.809 21.73h-8.912v-44.27h8.912z" opacity=".5"/><path d="m740.787 1246.04h-9.497l-8.682-24.18h-.272l-2.442 31.51h-8.954l4.342-44.27h10.31l10.311 28.24h.271l10.311-28.24h10.31l4.341 44.27h-8.953l-2.442-31.51h-.272z" opacity=".5"/><path d="m771.815 1253.37v-44.27h8.811v29.6h.534l20.025-29.6h8.01v44.27h-8.811v-29.6h-.534l-20.025 29.6z" opacity=".5"/><path d="m876.181 1270.1-9.024 1.62v-18.89c-1.641.27-3.555.54-5.195.54-13.673 0-18.595-9.72-18.595-22.41 0-12.68 4.922-22.4 18.595-22.4 1.64 0 3.554.27 5.195.54v-18.9l9.024-1.62v20.79c1.64-.27 3.554-.54 5.195-.54 13.672 0 18.594 9.72 18.594 22.4 0 12.69-4.922 22.41-18.594 22.41-1.641 0-3.555-.27-5.195-.54zm-9.024-53.71c-1.367-.27-2.734-.54-3.828-.54-7.657 0-10.665 5.67-10.665 14.84 0 9.18 3.282 14.85 10.665 14.85 1.367 0 2.734-.27 3.828-.54zm8.75 28.88c1.367.27 2.735.54 3.828.54 7.657 0 10.665-5.67 10.665-14.85s-3.282-14.84-10.665-14.84c-1.367 0-2.734.27-3.828.54z" opacity=".5"/><path d="m908.515 1231.24c0-14.48 8.116-23.22 20.292-23.22 12.175 0 20.292 8.74 20.292 23.22 0 14.47-8.117 23.21-20.292 23.21-12.176 0-20.292-8.74-20.292-23.21zm9.199 0c0 9.83 4.329 15.56 11.093 15.56s11.093-5.73 11.093-15.56c0-9.84-4.329-15.57-11.093-15.57s-11.093 5.73-11.093 15.57z" opacity=".5"/><path d="m969.657 1213.6c2.937-3.61 7.209-5.83 11.748-5.56 12.014 0 17.888 10 17.888 23.62 0 13.61-5.607 23.61-17.888 23.61-4.272 0-8.277-1.39-11.748-3.89v20.84l-8.811 1.67v-65.01h6.675l1.601 4.72zm0 28.89c2.403 2.78 5.874 4.73 9.345 5 7.475 0 10.946-6.66 10.946-15.83 0-9.45-3.471-15.84-10.68-15.84-4.004.28-7.742 2.78-9.878 6.39v20.28z" opacity=".5"/><path d="m1038.75 1246.04h-9.49l-8.69-24.18h-.27l-2.44 31.51h-8.95l4.34-44.27h10.31l10.31 28.24h.27l10.31-28.24h10.31l4.34 44.27h-8.95l-2.44-31.51h-.27z" opacity=".5"/><path d="m1092.74 1224.47c0-5.48-2.13-8.77-8.54-8.77-4.01 0-8.01.82-11.75 2.47l-2.67-7.13c4.81-1.92 10.15-3.02 15.49-3.02 13.35 0 16.55 7.13 16.55 16.45v18.65c-.27 1.65.8 3.02 2.4 3.29h.8 1.07v6.86c-1.6.55-3.2.82-5.07.82-3.21 0-5.88-1.92-6.68-5.21h-.53c-2.94 3.84-7.74 6.04-12.55 5.49-8.28 0-13.62-4.39-13.62-13.72 0-9.32 6.41-13.71 16.29-13.71h9.08v-2.47zm-9.61 10.15c-4.27 0-6.94 2.2-6.94 6.31-.27 3.02 1.87 6.03 5.07 6.31h1.34c4.27 0 8.27-2.47 10.14-6.31v-6.03h-9.61z" opacity=".5"/><path d="m1141.28 1246.04h-9.5l-8.68-24.18h-.27l-2.44 31.51h-8.96l4.34-44.27h10.31l10.31 28.24h.28l10.31-28.24h10.31l4.34 44.27h-8.96l-2.44-31.51h-.27z" opacity=".5"/><path d="m1173.37 1253.37v-44.27h8.81v29.6h.54l20.02-29.6h8.01v44.27h-8.81v-29.6h-.53l-20.03 29.6z" opacity=".5"/><path d="m1227.3 1242.57c3.2 0 5.87 2.4 5.87 6.94.26 6.67-3.47 12.8-9.34 15.74l-2.4-3.2c2.94-1.87 4.8-4.81 5.07-8.27-2.67-.27-4.8-2.67-4.8-5.34 0-3.2 2.13-5.6 5.33-5.87z" opacity=".5"/><path d="m1296.66 1244.89 2.74 7.1c-3.83 1.64-7.93 2.46-12.31 2.46-14.49 0-21.87-10.38-21.87-23.21 0-12.84 6.84-23.22 21.33-23.22 4.1 0 8.47.82 12.3 2.46l-2.73 7.1c-2.74-1.09-5.75-1.64-9.03-1.64-7.65 0-12.57 6.28-12.57 15.57 0 9.28 4.92 15.57 12.57 15.57 3.28-.28 6.57-.82 9.57-2.19z" opacity=".5"/><path d="m1345.59 1237.91-10.68 16.78h-9.88l15.22-23.5-14.15-22.09h9.88l9.34 15.94h.27l9.34-15.94h9.88l-14.15 22.09 14.95 23.5-9.34.84z" opacity=".5"/><path d="m1397.12 1224.47c0-5.48-2.14-8.77-8.55-8.77-4 0-8.01.82-11.75 2.47l-2.67-7.13c4.81-1.92 10.15-3.02 15.49-3.02 13.35 0 16.55 7.13 16.55 16.45v18.65c-.26 1.65.8 3.02 2.41 3.29h.8 1.07v6.86c-1.61.55-3.21.82-5.08.82-3.2 0-5.87-1.92-6.67-5.21h-.54c-2.93 3.84-7.74 6.04-12.55 5.49-8.27 0-13.61-4.39-13.61-13.72 0-9.32 6.41-13.71 16.28-13.71h9.08v-2.47zm-9.62 10.15c-4.27 0-6.94 2.2-6.94 6.31-.27 3.02 1.87 6.03 5.07 6.31h1.34c4.27 0 8.28-2.47 10.15-6.31v-6.03h-9.62z" opacity=".5"/><path d="m1429.95 1213.6c2.94-3.61 7.21-5.83 11.75-5.56 12.02 0 17.89 10 17.89 23.62 0 13.61-5.61 23.61-17.89 23.61-4.27 0-8.28-1.39-11.75-3.89v20.84l-8.81 1.67v-65.01h6.68l1.6 4.72zm0 28.89c2.41 2.78 5.88 4.73 9.35 5 7.47 0 10.95-6.66 10.95-15.83 0-9.45-3.48-15.84-10.68-15.84-4.01.28-7.75 2.78-9.88 6.39v20.28z" opacity=".5"/><path d="m1493.23 1224.47c0-5.48-2.13-8.77-8.54-8.77-4.01 0-8.01.82-11.75 2.47l-2.67-7.13c4.81-1.92 10.15-3.02 15.49-3.02 13.35 0 16.55 7.13 16.55 16.45v18.65c-.27 1.65.8 3.02 2.4 3.29h.8 1.07v6.86c-1.6.55-3.2.82-5.07.82-3.2 0-5.87-1.92-6.68-5.21h-.53c-2.94 3.84-7.74 6.04-12.55 5.49-8.28 0-13.62-4.39-13.62-13.72 0-9.32 6.41-13.71 16.29-13.71h9.08v-2.47zm-9.61 10.15c-4.27 0-6.94 2.2-6.94 6.31-.27 3.02 1.87 6.03 5.07 6.31h1.34c4.27 0 8.27-2.47 10.14-6.31v-6.03h-9.61z" opacity=".5"/><path d="m1534.35 1231.2 16.02 23.49-9.61.84-13.62-20.7h-3.2v19.86h-8.81v-45.59h8.81v18.46h3.47l12.55-18.46h9.61z" opacity=".5"/><path d="m1552.5 1209.1h37.38l-1.63 7.6h-12.28v36.67h-9.01v-36.67h-14.18v-7.6z" opacity=".5"/><path d="m1630.72 1233.42h-28.36c.54 8.74 5.18 13.38 13.09 13.38 3.82 0 7.63-1.09 11.18-3l3 6.83c-4.64 2.45-9.82 3.82-15 3.82-13.09 0-21.54-8.47-21.54-23.21 0-14.75 7.91-23.22 20.18-23.22 11.99 0 18.27 7.1 18.27 18.03 0 2.45-.28 4.91-.82 7.37zm-27.82-7.37h20.73c0-6.01-3.27-10.38-10.09-10.38-6 0-9.54 4.09-10.64 10.38z" opacity=".5"/><path d="m1652.1 1213.6c2.93-3.61 7.2-5.83 11.74-5.56 12.02 0 17.89 10 17.89 23.62 0 13.61-5.6 23.61-17.89 23.61-4.27 0-8.27-1.39-11.74-3.89v20.84l-8.81 1.67v-65.01h6.67l1.6 4.72zm0 28.89c2.4 2.78 5.87 4.73 9.34 5 7.48 0 10.95-6.66 10.95-15.83 0-9.45-3.47-15.84-10.68-15.84-4.01.28-7.75 2.78-9.88 6.39v20.28z" opacity=".5"/><path d="m1728.72 1253.37h-8.94v-19.01h-17.36v19.01h-8.94v-44.27h8.94v17.65h17.36v-17.65h8.94z" opacity=".5"/><path d="m1751.79 1224.31h8.1c9.45 0 15.13 5.7 15.13 14.66 0 8.7-5.41 14.4-15.13 14.4h-17.28v-44.27h8.91v15.21zm0 7.33v14.12h7.29c3.78 0 6.75-2.71 7.02-6.51 0-.28 0-.28 0-.55 0-3.8-2.97-7.06-6.75-7.06-.27 0-.27 0-.54 0zm37.81 21.73h-8.91v-44.27h8.91z" opacity=".5"/><path d="m1830.12 1246.04h-9.5l-8.68-24.18h-.27l-2.44 31.51h-8.96l4.34-44.27h10.32l10.31 28.24h.27l10.31-28.24h10.31l4.34 44.27h-8.95l-2.45-31.51h-.27z" opacity=".5"/><path d="m1862.22 1253.37v-44.27h8.81v29.6h.53l20.03-29.6h8.01v44.27h-8.81v-29.6h-.54l-20.02 29.6z" opacity=".5"/><path d="m110.467 1353.33c4.806-8.29 6.408-16.31 6.408-32.36v-4.98h28.569v37.34h6.942l-1.602 18.81h-7.209v-11.34h-29.37v11.34h-7.209l-1.601-18.81zm15.219-28.76c.267 9.96-1.869 19.91-6.141 28.76h16.821v-29.87h-10.947v1.11z" opacity=".5"/><path d="m196.425 1340.31h-28.359c.545 8.74 5.181 13.39 13.089 13.39 3.817 0 7.635-1.09 11.18-3.01l2.999 6.83c-4.636 2.46-9.817 3.83-14.997 3.83-13.089 0-21.542-8.47-21.542-23.22s7.908-23.22 20.178-23.22c11.998 0 18.27 7.11 18.27 18.03 0 2.46-.273 4.92-.818 7.37zm-27.814-7.37h20.724c0-6.01-3.272-10.38-10.089-10.38-5.999 0-9.544 4.1-10.635 10.38z" opacity=".5"/><path d="m201.513 1315.99h37.38l-1.637 7.61h-12.278v36.67h-9.004v-36.67h-14.188v-7.61z" opacity=".5"/><path d="m268.261 1331.37c0-5.49-2.136-8.78-8.544-8.78-4.005 0-8.01.83-11.748 2.47l-2.67-7.13c4.806-1.92 10.146-3.02 15.486-3.02 13.35 0 16.554 7.14 16.554 16.46v18.65c-.267 1.64.801 3.01 2.403 3.29h.801 1.068v6.85c-1.602.55-3.204.83-5.073.83-3.204 0-5.874-1.92-6.675-5.21h-.534c-2.937 3.84-7.743 6.03-12.549 5.48-8.277 0-13.617-4.39-13.617-13.71s6.408-13.71 16.287-13.71h9.078v-2.47zm-9.345 10.15c-4.272 0-6.942 2.19-6.942 6.3-.267 3.02 1.869 6.04 5.073 6.31h1.335c4.272 0 8.277-2.47 10.146-6.31v-6.03h-9.612z" opacity=".5"/><path d="m288.304 1353.14c.812.56 1.894.84 2.976.84 4.329 0 6.764-8.72 6.764-30.39v-7.6h29.491v45.87h-8.928v-37.99h-11.635v1.97c0 23.36-5.14 36.58-14.339 36.58-1.894 0-4.058-.56-5.682-1.68z" opacity=".5"/><path d="m346.842 1343.15c-5.112-2.17-8.61-7.33-8.072-13.03 0-8.69 5.65-14.13 15.336-14.13h17.218v44.28h-8.878v-16.03h-6.726l-9.417 16.03h-10.223zm8.071-6.24h7.533v-13.31h-7.533c-3.498-.27-6.726 2.44-6.995 5.97v.82c0 3.53 2.69 6.52 6.188 6.52z" opacity=".5"/><path d="m412.916 1352.93h-9.497l-8.683-24.17h-.271l-2.442 31.51h-8.954l4.342-44.28h10.31l10.311 28.25h.271l10.31-28.25h10.311l4.341 44.28h-8.954l-2.442-31.51h-.271z" opacity=".5"/><path d="m443.944 1360.27v-44.28h8.811v29.61h.534l20.025-29.61h8.01v44.28h-8.81v-29.61h-.535l-20.025 29.61z" opacity=".5"/><path d="m551.813 1347.5c0 7.88-5.113 12.77-15.07 12.77h-19.106v-44.28h17.761c8.88 0 14.531 3.26 14.531 11.41 0 4.35-3.229 8.42-7.535 9.24v.54c5.382.54 9.419 4.89 9.419 10.32zm-25.027-23.9v10.05h6.997c4.036 0 7.266-1.36 7.266-5.16s-2.691-5.16-6.459-5.16h-7.804zm0 17.65v11.68h8.612c4.574 0 7.265-1.9 7.265-5.7s-2.96-5.71-8.073-5.71h-7.804z" opacity=".5"/><path d="m615.292 1351.79 2.734 7.1c-3.828 1.64-7.929 2.46-12.304 2.46-14.49 0-21.872-10.38-21.872-23.22s6.835-23.22 21.325-23.22c4.101 0 8.476.82 12.304 2.46l-2.735 7.1c-2.734-1.09-5.741-1.63-9.022-1.63-7.655 0-12.576 6.28-12.576 15.56 0 9.29 4.921 15.57 12.576 15.57 3.281-.27 6.562-.82 9.57-2.18z" opacity=".5"/><path d="m621.229 1315.99h37.38l-1.637 7.61h-12.278v36.67h-9.004v-36.67h-14.187v-7.61z" opacity=".5"/><path d="m675.965 1320.49c2.937-3.61 7.209-5.83 11.748-5.55 12.015 0 17.889 10 17.889 23.61 0 13.62-5.607 23.62-17.889 23.62-4.272 0-8.277-1.39-11.748-3.89v20.83l-8.811 1.67v-65.01h6.675l1.602 4.72zm0 28.9c2.403 2.78 5.874 4.72 9.345 5 7.476 0 10.947-6.67 10.947-15.84 0-9.44-3.471-15.83-10.68-15.83-4.005.27-7.743 2.78-9.879 6.39v20.28z" opacity=".5"/><path d="m714.143 1338.13c0-14.48 8.116-23.22 20.292-23.22 12.175 0 20.292 8.74 20.292 23.22s-8.117 23.22-20.292 23.22c-12.176 0-20.292-8.74-20.292-23.22zm9.199 0c0 9.83 4.329 15.57 11.093 15.57s11.093-5.74 11.093-15.57-4.329-15.57-11.093-15.57-11.093 5.74-11.093 15.57z" opacity=".5"/><path d="m764.339 1329.85v-13.86h9.022v13.04c-.273 3.8 2.461 7.06 6.289 7.61h1.367c3.007 0 5.741-.55 8.475-1.63v-19.02h9.023v44.28h-9.023v-18.2c-3.281 1.08-6.561 1.9-9.842 1.9-8.749.27-15.311-4.35-15.311-14.12z" opacity=".5"/><path d="m846.574 1360.27h-8.947v-19.02h-17.35v19.02h-8.947v-44.28h8.947v17.66h17.35v-17.66h8.947z" opacity=".5"/><path d="m868.57 1331.2h8.102c9.453 0 15.124 5.71 15.124 14.67 0 8.69-5.401 14.4-15.124 14.4h-17.284v-44.28h8.912v15.21zm0 7.34v14.12h7.292c3.781 0 6.751-2.72 7.022-6.52 0-.27 0-.27 0-.54 0-3.8-2.971-7.06-6.752-7.06-.27 0-.27 0-.54 0zm37.81 21.73h-8.913v-44.28h8.913z" opacity=".5"/><path d="m935.482 1344.8-10.68 16.79h-9.879l15.219-23.5-14.151-22.1h9.879l9.345 15.95h.267l9.345-15.95h9.879l-14.151 22.1 14.952 23.5-9.345.83z" opacity=".5"/><path d="m987.547 1360.27v-44.28h8.811v29.61h.534l20.028-29.61h8.01v44.28h-8.81v-29.61h-.54l-20.023 29.61z" opacity=".5"/><path d="m1095.41 1360.27h-8.81v-36.67h-16.55v36.67h-8.81v-44.28h34.17z" opacity=".5"/><path d="m1118.1 1320.49c2.94-3.61 7.21-5.83 11.75-5.55 12.02 0 17.89 10 17.89 23.61 0 13.62-5.61 23.62-17.89 23.62-4.27 0-8.28-1.39-11.75-3.89v20.83l-8.81 1.67v-65.01h6.68l1.6 4.72zm0 28.9c2.41 2.78 5.88 4.72 9.35 5 7.47 0 10.95-6.67 10.95-15.84 0-9.44-3.48-15.83-10.68-15.83-4.01.27-7.75 2.78-9.88 6.39v20.28z" opacity=".5"/><path d="m1156.28 1338.13c0-14.48 8.12-23.22 20.3-23.22 12.17 0 20.29 8.74 20.29 23.22s-8.12 23.22-20.29 23.22c-12.18 0-20.3-8.74-20.3-23.22zm9.2 0c0 9.83 4.33 15.57 11.1 15.57 6.76 0 11.09-5.74 11.09-15.57s-4.33-15.57-11.09-15.57c-6.77 0-11.1 5.74-11.1 15.57z" opacity=".5"/><path d="m1243.86 1360.27h-8.81v-36.67h-16.56v36.67h-8.81v-44.28h34.18z" opacity=".5"/><path d="m1256.68 1360.27v-44.28h8.81v29.61h.53l20.03-29.61h8.01v44.28h-8.82v-29.61h-.53l-20.02 29.61z" opacity=".5"/><path d="m1337.24 1351.79 2.74 7.1c-3.83 1.64-7.93 2.46-12.3 2.46-14.5 0-21.88-10.38-21.88-23.22s6.84-23.22 21.33-23.22c4.1 0 8.47.82 12.3 2.46l-2.73 7.1c-2.74-1.09-5.74-1.63-9.02-1.63-7.66 0-12.58 6.28-12.58 15.56 0 9.29 4.92 15.57 12.58 15.57 3.55-.27 6.83-.82 9.56-2.18z" opacity=".5"/><path d="m1384.83 1360.27h-8.94v-19.02h-17.35v19.02h-8.95v-44.28h8.95v17.66h17.35v-17.66h8.94z" opacity=".5"/><path d="m1407.85 1331.2h8.05c9.4 0 15.04 5.71 15.04 14.67 0 8.69-5.37 14.4-15.04 14.4h-17.18v-44.28h8.86v15.21zm0 7.34v14.12h7.25c3.76 0 6.71-2.72 6.98-6.52 0-.27 0-.27 0-.54 0-3.8-2.95-7.06-6.71-7.06-.27 0-.27 0-.54 0zm37.86 21.73h-8.86v-44.28h8.86z" opacity=".5"/><path d="m1473.74 1344.8-10.68 16.79h-9.88l15.22-23.5-14.15-22.1h9.88l9.35 15.95h.26l9.35-15.95h9.88l-14.15 22.1 14.95 23.5-9.35.83z" opacity=".5"/><path d="m1546.9 1305.1c-9.35 0-14.15 4.66-14.15 17.56h.53c3.47-3.84 8.55-6.04 13.89-5.76 10.68 0 18.15 7.41 18.15 22.22 0 14.54-8.54 22.23-20.56 22.23-14.41 0-20.02-10.16-20.02-28.81 0-29.63 7.47-34.57 21.62-35.12 4.81 0 9.35-1.1 13.62-3.02l2.4 7.13c-5.07 2.47-10.14 3.57-15.48 3.57zm-2.4 48.29c6.67 0 11.48-4.67 11.48-14.54 0-9.88-4.54-14.54-10.42-14.54-5.07.27-9.87 3.01-12.28 7.68 0 14.26 3.47 21.4 11.22 21.4z" opacity=".5"/><path d="m1577.19 1370.99c1.64.54 3.27 1.09 4.9 1.09 1.91 0 4.36-1.09 5.45-5.18l1.9-6.53h-3.26l-15.52-44.38h9.8l10.89 34.04h.82l10.34-34.04h9.8l-17.15 53.09c-2.72 8.44-7.89 10.62-12.79 10.62-2.73 0-5.18-.54-7.63-1.63z" opacity=".5"/><path d="m1640.08 1338.09 16.02 23.5-9.61.83-13.62-20.69h-3.2v19.86h-8.81v-45.6h8.81v18.46h3.47l12.55-18.46h9.61z" opacity=".5"/><path d="m1696.68 1347.5c0 7.88-5.11 12.77-15.07 12.77h-19.1v-44.28h17.76c8.88 0 14.53 3.26 14.53 11.41 0 4.35-3.23 8.42-7.53 9.24v.54c5.38.54 9.14 4.89 9.41 10.32zm-25.29-23.9v10.05h6.99c4.04 0 7.27-1.36 7.27-5.16s-2.69-5.16-6.46-5.16h-7.8zm0 17.65v11.68h8.61c4.57 0 7.27-1.9 7.27-5.7s-2.96-5.71-8.08-5.71h-7.8z" opacity=".5"/><path d="m1731.39 1331.37c0-5.49-2.13-8.78-8.54-8.78-4.01 0-8.01.83-11.75 2.47l-2.67-7.13c4.81-1.92 10.15-3.02 15.49-3.02 13.35 0 16.55 7.14 16.55 16.46v18.65c-.27 1.64.8 3.01 2.4 3.29h.8 1.07v6.85c-1.6.55-3.2.83-5.07.83-3.2 0-5.87-1.92-6.68-5.21h-.53c-2.94 3.84-7.74 6.03-12.55 5.48-8.28 0-13.62-4.39-13.62-13.71s6.41-13.71 16.29-13.71h9.08v-2.47zm-9.61 10.15c-4.27 0-6.94 2.19-6.94 6.3-.27 3.02 1.87 6.04 5.07 6.31h1.34c4.27 0 8.27-2.47 10.14-6.31v-6.03h-9.61z" opacity=".5"/><path d="m1769.57 1344.8-10.68 16.79h-9.88l15.22-23.5-14.15-22.1h9.88l9.34 15.95h.27l9.35-15.95h9.87l-14.15 22.1 14.96 23.5-9.35.83z" opacity=".5"/><path d="m1801.87 1350.55c3.2 0 5.87 2.4 5.87 6.93.27 6.67-3.47 12.81-9.33 15.74l-2.4-3.2c2.93-1.87 4.8-4.8 5.06-8.27-2.66-.27-4.8-2.67-4.8-5.33 0-3.21 2.14-5.61 5.34-5.87z" opacity=".5"/><path d="m131.028 1444.99 16.02 23.49-9.612.84-13.617-20.7h-3.204v19.86h-8.811v-45.59h8.811v18.46h3.471l12.549-18.46h9.612z" opacity=".5"/><path d="m151.32 1443.95c0-14.48 8.117-23.22 20.292-23.22s20.292 8.74 20.292 23.22c0 14.47-8.117 23.21-20.292 23.21s-20.292-8.74-20.292-23.21zm9.199 0c0 9.83 4.329 15.56 11.093 15.56s11.093-5.73 11.093-15.56c0-9.84-4.329-15.57-11.093-15.57s-11.093 5.73-11.093 15.57z" opacity=".5"/><path d="m196.172 1422.89h37.38l-1.637 7.6h-12.279v36.67h-9.003v-36.67h-14.188v-7.6z" opacity=".5"/><path d="m236.758 1443.95c0-14.48 8.117-23.22 20.292-23.22s20.292 8.74 20.292 23.22c0 14.47-8.117 23.21-20.292 23.21s-20.292-8.74-20.292-23.21zm9.199 0c0 9.83 4.329 15.56 11.093 15.56s11.093-5.73 11.093-15.56c0-9.84-4.329-15.57-11.093-15.57s-11.093 5.73-11.093 15.57z" opacity=".5"/><path d="m297.9 1426.31c2.937-3.61 7.209-5.83 11.748-5.56 12.014 0 17.888 10.01 17.888 23.62s-5.607 23.61-17.888 23.61c-4.272 0-8.277-1.39-11.748-3.89v20.84l-8.811 1.67v-65.01h6.675l1.602 4.72zm0 28.89c2.403 2.78 5.874 4.73 9.344 5 7.476 0 10.947-6.66 10.947-15.83 0-9.45-3.471-15.84-10.68-15.84-4.005.28-7.742 2.78-9.878 6.39v20.28z" opacity=".5"/><path d="m348.467 1438.1h8.102c9.452 0 15.123 5.7 15.123 14.67 0 8.69-5.401 14.39-15.123 14.39h-17.285v-44.27h8.913v15.21zm0 7.33v14.13h7.291c3.781 0 6.752-2.72 7.022-6.52 0-.27 0-.27 0-.55 0-3.8-2.97-7.06-6.751-7.06-.27 0-.271 0-.541 0zm37.809 21.73h-8.912v-44.27h8.912z" opacity=".5"/><path d="m434.583 1446.13h-28.359c.546 8.74 5.181 13.38 13.089 13.38 3.818 0 7.635-1.09 11.18-3l2.999 6.83c-4.635 2.46-9.816 3.82-14.997 3.82-13.089 0-21.542-8.47-21.542-23.21 0-14.75 7.908-23.22 20.179-23.22 11.998 0 18.269 7.1 18.269 18.03 0 2.45-.272 4.91-.818 7.37zm-27.813-7.37h20.724c0-6.01-3.273-10.38-10.09-10.38-6.271 0-9.544 4.09-10.634 10.38z" opacity=".5"/><path d="m502.684 1467.16h-8.811v-36.67h-16.554v36.67h-8.811v-44.27h34.176z" opacity=".5"/><path d="m514.43 1443.95c0-14.48 8.116-23.22 20.292-23.22 12.175 0 20.292 8.74 20.292 23.22 0 14.47-8.117 23.21-20.292 23.21-12.176 0-20.292-8.74-20.292-23.21zm9.199 0c0 9.83 4.329 15.56 11.093 15.56s11.093-5.73 11.093-15.56c0-9.84-4.329-15.57-11.093-15.57s-11.093 5.73-11.093 15.57z" opacity=".5"/><path d="m594.473 1459.83h-9.496l-8.683-24.18h-.271l-2.442 31.51h-8.954l4.341-44.27h10.311l10.31 28.25h.272l10.31-28.25h10.311l4.341 44.27h-8.954l-2.442-31.51h-.271z" opacity=".5"/><path d="m623.362 1443.95c0-14.48 8.117-23.22 20.292-23.22s20.292 8.74 20.292 23.22c0 14.47-8.117 23.21-20.292 23.21s-20.292-8.74-20.292-23.21zm9.199 0c0 9.83 4.329 15.56 11.093 15.56s11.093-5.73 11.093-15.56c0-9.84-4.329-15.57-11.093-15.57s-11.093 5.73-11.093 15.57z" opacity=".5"/><path d="m702.393 1422.89-1.65 7.6h-17.045v36.67h-9.073v-44.27z" opacity=".5"/><path d="m732.83 1437.19c0-5.49-2.136-8.78-8.544-8.78-4.005 0-8.01.82-11.748 2.47l-2.67-7.13c4.806-1.92 10.146-3.02 15.486-3.02 13.35 0 16.554 7.13 16.554 16.46v18.64c-.267 1.65.801 3.02 2.403 3.29h.801 1.068v6.86c-1.602.55-3.204.82-5.073.82-3.204 0-5.874-1.92-6.675-5.21h-.534c-2.937 3.84-7.743 6.04-12.549 5.49-8.277 0-13.617-4.39-13.617-13.71 0-9.33 6.408-13.72 16.287-13.72h9.078v-2.46zm-9.612 10.14c-4.272 0-6.942 2.2-6.942 6.31-.267 3.02 1.869 6.03 5.073 6.31h1.335c4.272 0 8.277-2.47 10.146-6.31v-6.03h-9.612z" opacity=".5"/><path d="m771.409 1446.95h-7.657v19.12h-9.023v-44.52h9.023v17.75h7.93c1.367-11.74 8.477-18.57 19.688-18.57 12.305 0 19.961 8.74 19.961 23.22 0 14.47-7.656 23.21-19.961 23.21-11.758-.27-18.868-7.65-19.961-20.21zm9.297-3.28c0 9.83 3.828 15.57 10.664 15.57s10.664-5.74 10.664-15.57-3.828-15.57-10.664-15.57-10.664 5.74-10.664 15.57z" opacity=".5"/><path d="m814.532 1422.89h37.38l-1.637 7.6h-12.278v36.67h-9.004v-36.67h-14.188v-7.6z" opacity=".5"/><path d="m902.909 1411.99c-9.345 0-14.151 4.67-14.151 17.56h.534c3.471-3.84 8.544-6.03 13.884-5.76 10.679 0 18.155 7.41 18.155 22.23 0 14.54-8.544 22.22-20.558 22.22-14.418 0-20.025-10.15-20.025-28.81 0-29.63 7.476-34.57 21.627-35.12 4.806 0 9.345-1.1 13.616-3.02l2.404 7.14c-5.073 2.47-10.413 3.56-15.486 3.56zm-2.403 48.29c6.675 0 11.481-4.66 11.481-14.54s-4.539-14.54-10.413-14.54c-5.073.27-9.879 3.02-12.282 7.68 0 14.27 3.471 21.4 11.214 21.4z" opacity=".5"/><path d="m942.209 1438.1h8.056c9.398 0 15.037 5.7 15.037 14.67 0 8.69-5.37 14.39-15.037 14.39h-17.186v-44.27h8.861v15.21zm0 7.33v14.13h7.25c3.759 0 6.713-2.72 6.982-6.52 0-.27 0-.27 0-.55 0-3.8-2.954-7.06-6.713-7.06-.269 0-.269 0-.537 0zm37.862 21.73h-8.861v-44.27h8.861z" opacity=".5"/><path d="m1022.19 1457.6 2.73 7.1c-3.83 1.64-7.93 2.46-12.3 2.46-14.493 0-21.875-10.38-21.875-23.21 0-12.84 6.835-23.22 21.325-23.22 4.1 0 8.48.82 12.3 2.46l-2.73 7.1c-2.73-1.09-5.74-1.64-9.02-1.64-7.66 0-12.58 6.28-12.58 15.57 0 9.28 4.92 15.57 12.58 15.57 3.55-.28 6.83-.82 9.57-2.19z" opacity=".5"/><path d="m1028.13 1422.89h37.38l-1.64 7.6h-12.28v36.67h-9v-36.67h-14.19v-7.6z" opacity=".5"/><path d="m1082.86 1426.31c2.94-3.61 7.21-5.83 11.75-5.56 12.02 0 17.89 10.01 17.89 23.62s-5.61 23.61-17.89 23.61c-4.27 0-8.28-1.39-11.75-3.89v20.84l-8.81 1.67v-65.01h6.68l1.6 4.72zm0 28.89c2.41 2.78 5.88 4.73 9.35 5 7.47 0 10.95-6.66 10.95-15.83 0-9.45-3.48-15.84-10.68-15.84-4.01.28-7.75 2.78-9.88 6.39v20.28z" opacity=".5"/><path d="m1121.04 1443.95c0-14.48 8.12-23.22 20.29-23.22 12.18 0 20.29 8.74 20.29 23.22 0 14.47-8.11 23.21-20.29 23.21-12.17 0-20.29-8.74-20.29-23.21zm9.2 0c0 9.83 4.33 15.56 11.09 15.56 6.77 0 11.1-5.73 11.1-15.56 0-9.84-4.33-15.57-11.1-15.57-6.76 0-11.09 5.73-11.09 15.57z" opacity=".5"/><path d="m1195.8 1467.16v-44.27h8.81v29.6h.54l20.02-29.6h8.01v44.27h-8.81v-29.6h-.53l-20.03 29.6z" opacity=".5"/><path d="m1290.59 1411.99c-9.35 0-14.15 4.67-14.15 17.56h.53c3.47-3.84 8.54-6.03 13.88-5.76 10.68 0 18.16 7.41 18.16 22.23 0 14.54-8.54 22.22-20.56 22.22-14.42 0-20.02-10.15-20.02-28.81 0-29.63 7.47-34.57 21.62-35.12 4.81 0 9.35-1.1 13.62-3.02l2.4 7.14c-5.07 2.47-10.14 3.56-15.48 3.56zm-2.41 48.29c6.68 0 11.48-4.66 11.48-14.54s-4.53-14.54-10.41-14.54c-5.07.27-9.88 3.02-12.28 7.68 0 14.27 3.47 21.4 11.21 21.4z" opacity=".5"/><path d="m1356.25 1446.13h-28.36c.54 8.74 5.18 13.38 13.09 13.38 3.82 0 7.63-1.09 11.18-3l3 6.83c-4.64 2.46-9.82 3.82-15 3.82-13.09 0-21.54-8.47-21.54-23.21 0-14.75 7.91-23.22 20.18-23.22 11.99 0 18.27 7.1 18.27 18.03 0 2.45-.28 4.91-.82 7.37zm-28.09-7.37h20.73c0-6.01-3.28-10.38-10.09-10.38-6 0-9.55 4.09-10.64 10.38z" opacity=".5"/><path d="m1364.54 1464.43 2.78-7.1c3.89 1.36 8.06 2.18 12.23 2.18 5.83 0 10-2.45 10-6.28 0-3.82-2.5-6.28-9.17-6.28h-6.11v-7.37h5.55c4.17 0 7.78-1.64 7.78-5.47 0-3.82-3.33-5.73-7.78-5.73-4.16 0-8.05.54-11.94 1.91l-2.78-7.1c4.72-1.64 10-2.46 15-2.46 10.01 0 16.67 3.82 16.67 11.74.28 4.65-3.05 9.02-7.78 10.11v.55c5.56.82 9.45 5.46 9.73 10.65 0 7.92-6.39 13.38-18.9 13.38-5.27 0-10.28-.82-15.28-2.73z" opacity=".5"/><path d="m1406.19 1443.95c0-14.48 8.12-23.22 20.3-23.22 12.17 0 20.29 8.74 20.29 23.22 0 14.47-8.12 23.21-20.29 23.21-12.18 0-20.3-8.74-20.3-23.21zm8.93 0c0 9.83 4.33 15.56 11.09 15.56 6.77 0 11.1-5.73 11.1-15.56 0-9.84-4.33-15.57-11.1-15.57-6.76 0-11.09 5.73-11.09 15.57z" opacity=".5"/><path d="m1511.92 1467.16h-53.4v-44.27h8.86v36.66h13.42v-36.66h8.85v36.66h13.42v-36.66h8.85z" opacity=".5"/><path d="m1524.74 1467.16v-44.27h8.81v29.6h.54l20.02-29.6h8.01v44.27h-8.81v-29.6h-.53l-20.03 29.6z" opacity=".5"/><path d="m1597.09 1411.99c-9.34 0-14.15 4.67-14.15 17.56h.54c3.47-3.84 8.54-6.03 13.88-5.76 10.68 0 18.16 7.41 18.16 22.23 0 14.54-8.55 22.22-20.56 22.22-14.42 0-20.03-10.15-20.03-28.81 0-29.63 7.48-34.57 21.63-35.12 4.81 0 9.35-1.1 13.62-3.02l2.4 7.14c-5.07 2.47-10.15 3.56-15.49 3.56zm-2.4 48.29c6.68 0 11.48-4.66 11.48-14.54s-4.54-14.54-10.41-14.54c-5.07.27-9.88 3.02-12.28 7.68 0 14.27 3.47 21.4 11.21 21.4z" opacity=".5"/><path d="m1625.13 1443.95c0-14.48 8.11-23.22 20.29-23.22 12.17 0 20.29 8.74 20.29 23.22 0 14.47-8.12 23.21-20.29 23.21-12.18 0-20.29-8.74-20.29-23.21zm9.2 0c0 9.83 4.32 15.56 11.09 15.56 6.76 0 11.09-5.73 11.09-15.56 0-9.84-4.33-15.57-11.09-15.57-6.77 0-11.09 5.73-11.09 15.57z" opacity=".5"/><path d="m1675.32 1436.74v-13.85h9.02v13.04c-.27 3.8 2.47 7.06 6.29 7.6h1.37c3.01 0 5.74-.54 8.48-1.63v-19.01h9.02v44.27h-9.02v-18.2c-3.28 1.09-6.57 1.9-9.85 1.9-8.75.28-15.31-4.34-15.31-14.12z" opacity=".5"/><path d="m1757.56 1467.16h-8.95v-19.01h-17.35v19.01h-8.94v-44.27h8.94v17.65h17.35v-17.65h8.95z" opacity=".5"/><path d="m1769.3 1443.95c0-14.48 8.12-23.22 20.3-23.22 12.17 0 20.29 8.74 20.29 23.22 0 14.47-8.12 23.21-20.29 23.21-12.18 0-20.3-8.74-20.3-23.21zm8.93 0c0 9.83 4.33 15.56 11.1 15.56 6.76 0 11.09-5.73 11.09-15.56 0-9.84-4.33-15.57-11.09-15.57-6.77 0-11.1 5.73-11.1 15.57z" opacity=".5"/><path d="m140.042 1564.5 2.734 7.1c-3.828 1.64-7.929 2.46-12.304 2.46-14.49 0-21.872-10.38-21.872-23.22s6.835-23.21 21.326-23.21c4.101 0 8.475.81 12.303 2.45l-2.734 7.1c-2.734-1.09-5.742-1.63-9.023-1.63-7.655 0-12.576 6.28-12.576 15.56 0 9.29 4.921 15.57 12.576 15.57 3.555-.27 6.835-.82 9.57-2.18z" opacity=".5"/><path d="m151.32 1543.64v-13.85h9.023v13.03c-.274 3.81 2.46 7.06 6.288 7.61h1.367c3.008 0 5.742-.54 8.476-1.63v-19.01h9.022v44.27h-9.022v-18.2c-3.281 1.09-6.562 1.9-9.843 1.9-8.749.27-15.311-4.34-15.311-14.12z" opacity=".5"/><path d="m198.309 1574.06v-44.27h8.811v29.6h.534l20.025-29.6h8.01v44.27h-8.811v-29.61h-.534l-20.025 29.61z" opacity=".5"/><path d="m243.163 1529.79h37.38l-1.637 7.6h-12.278v36.67h-9.004v-36.67h-14.188v-7.6z" opacity=".5"/><path d="m296.081 1545h8.056c9.398 0 15.037 5.7 15.037 14.66 0 8.69-5.371 14.4-15.037 14.4h-17.186v-44.27h8.861v15.21zm0 7.33v14.12h7.25c3.76 0 6.713-2.71 6.982-6.52 0-.27 0-.27 0-.54 0-3.8-2.954-7.06-6.713-7.06-.269 0-.269 0-.537 0zm37.862 21.73h-8.861v-44.27h8.861z" opacity=".5"/><path d="m383.072 1561.29c0 7.88-5.112 12.77-15.069 12.77h-19.107v-44.27h17.761c8.881 0 14.532 3.26 14.532 11.4 0 4.35-3.229 8.42-7.535 9.24v.54c5.113.54 9.149 4.89 9.418 10.32zm-25.295-23.9v10.05h6.996c4.037 0 7.266-1.36 7.266-5.16s-2.691-5.16-6.458-5.16h-7.804zm0 17.66v11.67h8.611c4.575 0 7.266-1.9 7.266-5.7s-2.96-5.7-8.073-5.7h-7.804z" opacity=".5"/><path d="m415.647 1544.08c0-5.48-2.136-8.78-8.544-8.78-4.005 0-8.01.83-11.748 2.47l-2.67-7.13c4.806-1.92 10.146-3.01 15.486-3.01 13.35 0 16.554 7.13 16.554 16.45v18.65c-.267 1.64.801 3.02 2.403 3.29h.801 1.068v6.86c-1.602.54-3.204.82-5.073.82-3.204 0-5.874-1.92-6.675-5.21h-.534c-2.937 3.84-7.743 6.03-12.549 5.48-8.277 0-13.617-4.39-13.617-13.71s6.408-13.71 16.287-13.71h9.078v-2.47zm-9.612 10.15c-4.272 0-6.942 2.19-6.942 6.3-.267 3.02 1.869 6.04 5.073 6.31h1.335c4.272 0 8.277-2.47 10.146-6.31v-6.03h-9.612z" opacity=".5"/><path d="m433.263 1529.79h37.38l-1.637 7.6h-12.278v36.67h-9.004v-36.67h-14.188v-7.6z" opacity=".5"/><path d="m477.05 1574.06v-44.27h9.095v15.21h9.647c9.646 0 15.434 5.7 15.434 14.66 0 8.69-5.512 14.4-15.434 14.4zm9.095-21.73v14.12h8.269c3.858 0 7.165-2.99 7.441-7.06 0-3.8-3.032-7.06-7.166-7.33-.276 0-.275 0-.551 0h-7.993z" opacity=".5"/><path d="m572.876 1589.71-9.024 1.62v-18.89c-1.641.27-3.555.54-5.195.54-13.673 0-18.595-9.72-18.595-22.41s4.922-22.4 18.595-22.4c1.64 0 3.554.27 5.195.54v-18.9l9.024-1.62v20.79c1.641-.27 3.555-.54 5.196-.54 13.672 0 18.594 9.71 18.594 22.4s-4.922 22.41-18.594 22.41c-1.641 0-3.555-.27-5.196-.54zm-9.024-53.72c-1.367-.27-2.734-.54-3.828-.54-7.657 0-10.664 5.67-10.664 14.85s3.281 14.85 10.664 14.85c1.367 0 2.734-.27 3.828-.54zm8.751 28.89c1.367.27 2.734.54 3.828.54 7.656 0 10.664-5.67 10.664-14.85s-3.281-14.85-10.664-14.85c-1.368 0-2.735.27-3.828.54z" opacity=".5"/><path d="m605.21 1550.84c0-14.47 8.117-23.21 20.292-23.21s20.292 8.74 20.292 23.21c0 14.48-8.117 23.22-20.292 23.22s-20.292-8.74-20.292-23.22zm9.199 0c0 9.83 4.329 15.57 11.093 15.57s11.093-5.74 11.093-15.57-4.329-15.57-11.093-15.57-11.093 5.74-11.093 15.57z" opacity=".5"/><path d="m665.284 1533.21c2.937-3.62 7.209-5.84 11.748-5.56 12.015 0 17.889 10 17.889 23.61 0 13.62-5.607 23.62-17.889 23.62-4.272 0-8.277-1.39-11.748-3.89v20.83l-8.81 1.67v-65.01h6.675l1.601 4.73zm0 28.89c2.403 2.78 5.874 4.72 9.345 5 7.476 0 10.947-6.67 10.947-15.84 0-9.44-3.471-15.83-10.68-15.83-4.005.28-7.743 2.78-9.879 6.39v20.28z" opacity=".5"/><path d="m735.446 1566.72h-9.497l-8.682-24.17h-.272l-2.442 31.51h-8.953l4.341-44.27h10.31l10.311 28.24h.271l10.311-28.24h10.31l4.342 44.27h-8.954l-2.442-31.51h-.272z" opacity=".5"/><path d="m767.667 1584.78c1.634.54 3.267 1.09 4.9 1.09 1.906 0 4.356-1.09 5.445-5.17l1.906-6.54h-3.267l-15.517-44.37h9.8l10.889 34.03h.817l10.345-34.03h9.8l-17.15 53.08c-2.723 8.44-7.895 10.62-12.795 10.62-2.723 0-5.173-.54-7.623-1.63z" opacity=".5"/><path d="m828.417 1571.32 2.779-7.1c3.889 1.37 8.057 2.19 12.225 2.19 5.835 0 10.003-2.46 10.003-6.28 0-3.83-2.501-6.28-9.169-6.28h-6.113v-7.38h5.557c4.168 0 7.78-1.64 7.78-5.46 0-3.83-3.334-5.74-7.78-5.74-4.168 0-8.058.55-11.948 1.91l-2.778-7.1c4.723-1.64 10.003-2.45 15.004-2.45 10.003 0 16.671 3.82 16.671 11.74.278 4.64-3.056 9.01-7.78 10.11v.54c5.557.82 9.447 5.46 9.725 10.65 0 7.92-6.391 13.39-18.894 13.39-5.279 0-10.559-.82-15.282-2.74z" opacity=".5"/><path d="m909.584 1574.06h-8.947v-19.01h-17.35v19.01h-8.947v-44.27h8.947v17.65h17.35v-17.65h8.947z" opacity=".5"/><path d="m945.364 1544.08c0-5.48-2.136-8.78-8.544-8.78-4.005 0-8.01.83-11.748 2.47l-2.67-7.13c4.806-1.92 10.146-3.01 15.486-3.01 13.349 0 16.554 7.13 16.554 16.45v18.65c-.267 1.64.801 3.02 2.403 3.29h.801 1.068v6.86c-1.602.54-3.204.82-5.073.82-3.204 0-5.874-1.92-6.675-5.21h-.534c-2.937 3.84-7.743 6.03-12.549 5.48-8.277 0-13.617-4.39-13.617-13.71s6.408-13.71 16.287-13.71h9.078v-2.47zm-9.612 10.15c-4.272 0-6.942 2.19-6.942 6.3-.267 3.02 1.869 6.04 5.073 6.31h1.335c4.272 0 8.277-2.47 10.146-6.31v-6.03h-9.612z" opacity=".5"/><path d="m986.48 1551.88 16.02 23.5-9.612.84-13.617-20.7h-3.204v19.86h-8.811v-45.59h8.811v18.46h3.471l12.549-18.46h9.613z" opacity=".5"/><path d="m1007.84 1550.84c0-14.47 8.11-23.21 20.29-23.21 12.17 0 20.29 8.74 20.29 23.21 0 14.48-8.12 23.22-20.29 23.22-12.18 0-20.29-8.74-20.29-23.22zm9.2 0c0 9.83 4.32 15.57 11.09 15.57 6.76 0 11.09-5.74 11.09-15.57s-4.33-15.57-11.09-15.57c-6.77 0-11.09 5.74-11.09 15.57z" opacity=".5"/><path d="m1092.21 1561.29c0 7.88-5.12 12.77-15.07 12.77h-19.11v-44.27h17.76c8.88 0 14.53 3.26 14.53 11.4 0 4.35-3.23 8.42-7.53 9.24v.54c5.38.54 9.15 4.89 9.42 10.32zm-25.3-23.9v10.05h7c4.03 0 7.26-1.36 7.26-5.16s-2.69-5.16-6.46-5.16h-7.8zm0 17.66v11.67h8.61c4.58 0 7.27-1.9 7.27-5.7s-2.96-5.7-8.08-5.7h-7.8z" opacity=".5"/><path d="m1107.7 1564.34c3.35 0 5.87 2.54 5.87 5.94 0 3.39-2.52 5.94-5.87 5.94-3.36 0-5.88-2.55-5.88-5.94 0-3.4 2.52-5.94 5.88-5.94z" opacity=".5"/></g><g fill="#ffd400"><path d="m110.204 553.224v-51.404h48.29v-207.351h-48.29v-51.404h158.628l-10.644 51.404h-38.511v207.351h49.155v51.404z"/><path d="m387.565 415.021c30.981 10.211 71.309 33.231 71.309 72.261 0 42.577-33.231 70.443-86.367 70.443-28.212 0-55.991-6.144-81.521-18.173l18.174-43.011c23.885 9.347 42.577 14.193 62.482 14.193 19.471 0 28.817-8.394 28.817-21.289 0-19.039-18.606-26.135-39.895-32.366-27.952-8.394-66.03-25.702-66.03-70.443 0-41.626 31.934-63.78 81.521-63.78 25.27 0 49.588 5.279 76.675 18.173l-17.308 41.193c-23.453-8.394-39.03-12.375-56.251-12.375-18.174 0-26.136 7.096-26.136 18.606 0 14.971 14.626 19.904 34.53 26.568z"/><path d="m686.646 455.348h-139.07c3.549 34.963 27.001 55.386 59.8 55.386 19.904 0 40.76-5.798 62.914-17.308l18.174 42.578c-26.136 14.192-53.136 21.721-85.069 21.721-69.578 0-115.618-43.443-115.618-117.435 0-74.424 43.443-117.434 105.925-117.434 62.915 0 97.964 36.346 97.964 92.165-.087 11.077-1.904 24.317-5.02 40.327zm-136.906-45.26h87.752c-1.731-23.885-16.876-40.328-43.011-40.328-23.019 0-39.895 15.578-44.741 40.328z"/><path d="m872.275 546.561c-22.154 8.395-39.895 11.077-55.818 11.077-44.309 0-71.742-21.721-71.742-73.559v-109.819h-39.029v-46.991h39.029v-58.934l58.069-11.077v70.011h66.462l-11.077 46.991h-55.385v112.069c0 17.741 10.644 24.405 23.019 24.405 11.51 0 21.722-2.25 37.213-7.529z"/><path d="m1118.92 470.406c0-26.135-27.44-41.626-57.12-53.655-39.46-15.923-87.319-41.193-87.319-91.3 0-54.953 39.029-86.886 104.539-86.886 41.63 0 69.15 12.808 94.85 26.568l-26.57 44.309c-17.74-10.645-42.58-19.472-68.19-19.472-27.95 0-42.06 11.51-42.06 32.799s27.43 36.347 50.97 45.606c49.16 19.472 93.46 42.059 93.46 99.695 0 56.251-39.89 89.482-111.63 89.482-43.45 0-74.427-13.327-103.245-30.549l28.818-46.039c21.717 14.625 44.307 25.27 74.427 25.27 29.08 0 49.07-11.077 49.07-35.828z"/><path d="m1344.87 533.753c-13.76 14.192-32.37 23.885-61.62 23.885-45.17 0-75.29-23.452-75.29-70.876 0-48.722 34.97-68.713 88.62-68.713h39.46v-11.077c0-23.02-12.8-37.212-39.03-37.212-20.42 0-37.64 3.98-62.48 12.808l-16.35-43.011c31.93-12.375 54.95-16.875 84.2-16.875 71.74 0 91.73 37.212 91.73 84.636v90.867c0 7.096 4.85 10.212 10.65 10.212h8.82v39.895c-9.69 4.673-20.25 7.096-30.98 7.096-21.29 0-30.98-12.375-35.48-21.722h-2.25zm-51.4-73.992c-15.93 0-27.96 9.347-27.96 25.703s10.65 25.269 25.27 25.269c18.18 0 34.96-10.211 45.18-26.568v-24.404z"/><path d="m1501.25 350.721h2.25c16.87-19.904 32.8-27.953 55.38-27.953 51.41 0 77.11 31.501 77.11 91.733v138.723h-58.07v-135.608c0-31.933-11.51-47.856-32.36-47.856-16.36 0-31.5 12.375-42.06 27v156.378h-58.07v-225.87h42.58z"/><path d="m1767.96 415.021c30.98 10.212 71.31 33.231 71.31 72.261 0 42.577-33.23 70.443-86.36 70.443-28.22 0-56-6.144-81.53-18.173l18.18-43.011c23.88 9.347 42.58 14.193 62.48 14.193 19.47 0 28.82-8.394 28.82-21.289 0-19.039-18.61-26.135-39.9-32.366-27.95-8.394-66.03-25.702-66.03-70.443 0-41.626 31.94-63.78 81.52-63.78 25.27 0 49.59 5.279 76.68 18.173l-17.31 41.193c-23.45-8.394-39.03-12.375-56.25-12.375-18.17 0-26.14 7.096-26.14 18.606 0 14.971 14.63 19.904 34.53 26.568z"/><path d="m110.55 713.93h34.097v-21.722c0-58.934 29.25-84.636 75.809-84.636 21.289 0 40.327 6.231 56.684 14.625l-18.174 42.059c-13.327-7.529-20.423-9.779-30.981-9.779-15.058 0-25.27 10.211-25.27 30.981v28.385h54.52l-10.644 46.991h-43.876v178.965h-58.068v-178.965h-34.097z"/><path d="m272.728 826.864c0-73.559 43.875-117.435 108.521-117.435 64.212 0 108.521 43.876 108.521 117.435s-44.309 117.434-108.521 117.434c-64.646 0-108.521-43.875-108.521-117.434zm59.366 0c0 43.875 20.423 70.443 49.155 70.443 28.817 0 49.587-26.568 49.587-70.443 0-43.876-20.856-70.444-49.587-70.444-28.732 0-49.155 26.568-49.155 70.444z"/><path d="m588.682 737.381h2.25c16.875-19.904 32.798-27.952 55.385-27.952 51.405 0 77.107 31.501 77.107 91.732v138.724h-58.068v-135.608c0-31.933-11.51-47.857-32.366-47.857-16.356 0-31.501 12.375-42.058 27.001v156.377h-58.069v-225.869h42.578z"/><path d="m912.948 933.222c-22.154 8.395-39.895 11.077-55.818 11.077-44.309 0-71.742-21.721-71.742-73.559v-109.906h-39.03v-46.991h39.03v-58.934l58.068-11.077v70.011h66.463l-11.077 46.991h-55.386v112.07c0 17.741 10.645 24.404 23.02 24.404 11.51 0 21.722-2.25 37.212-7.529z"/></g></svg>