<svg fill="none" height="800" viewBox="0 0 800 800" width="800" xmlns="http://www.w3.org/2000/svg"><path d="m0 0h800v800h-800z" fill="#000"/><path d="m441.282 475.923h9.336c8.353 0 15.232 2.449 15.232 11.265 0 8.326-6.879 11.264-15.232 11.264h-9.336zm9.336 40.65c21.62 0 39.309-7.836 39.309-29.385 0-22.04-17.198-29.876-39.309-29.876h-77.049v18.611h6.51l-10.318 24.488-15.478-24.488h7.125v-18.611h-45.696v18.611h10.564l30.71 45.058c-2.457 3.429-7.862 4.898-13.758 2.939l-.492-10.285h-19.162v25.467c5.896 2.939 14.74 4.898 22.111 4.898 15.723 0 29.481-3.918 42.256-29.386l18.671-38.691h9.611v48.487h-9.827v18.121h45.205v-18.611h-10.319v-7.347zm-143.967-102.36h-19.163v9.796h-23.585v-15.673h22.111v-18.121h-22.111v-14.693h23.585v9.795h19.163v-28.406h-76.651v18.611h9.336v48.487h-9.336v18.121h76.651zm172.957-38.691v-18.611h-30.955l-28.007 48.487v-29.876h6.387v-18.611h-38.326v18.611h6.879v48.487h-6.879v18.61h30.956l28.007-47.506v28.896h-6.388v18.61h38.326v-18.61h-7.37v-48.487zm53.066 0h6.388v14.693h-23.585v-14.693h6.879v-18.611h-38.326v18.611h6.879v48.487h-6.879v18.61h38.326v-18.61h-6.879v-15.673h23.585v15.673h-6.388v18.61h38.326v-18.61h-7.37v-48.487h7.37v-18.611h-38.326zm-177.379 48.487h-11.792v-6.367h7.862c22.111 0 36.36-11.755 36.36-30.855 0-18.611-14.741-29.876-36.36-29.876h-40.783v19.101h8.353v47.997h-8.353v18.61h44.713zm-11.792-48.487h4.422c9.336 0 14.249 3.918 14.249 11.754 0 7.837-4.913 11.755-14.249 11.755h-4.422zm150.846 81.79v19.101h9.335v47.997h-9.335v18.121h45.696v-18.121h-11.793v-47.997h22.111v9.305h18.672v-28.406zm-216.196 31.1h-14.25v-12.489h22.603v7.347h20.145v-25.958h-76.651v18.611h8.844v47.997h-8.844v18.611h48.153c19.654 0 35.869-6.49 35.869-27.06s-15.232-27.059-35.869-27.059zm-.492 35.508h-13.758v-17.876h13.758c6.879 0 12.776 1.591 12.776 8.938 0 7.346-5.405 8.938-12.776 8.938zm216.128-200.312-25.551-66.608h-48.153v18.611h6.388l-18.671 47.017c-16.706.98-24.288-5.387-26.745-18.611 8.845-4.898 17.689-15.672 17.689-28.406h10.318v-18.611h-40.782v18.611h7.37c0 9.305-6.879 14.693-18.18 14.693h-8.844v-14.693h8.353v-18.611h-43.239v18.611h10.318v47.997h-10.318v18.61h42.256v-18.61h-7.37v-14.693h9.827c3.931 13.713 11.792 24.488 22.111 28.896 10.81 4.407 14.677 4.407 44.158 4.407h16.981v-18.61h-7.862l1.966-6.367h28.498l1.966 6.367h-6.879v18.61h43.239v-18.61zm-51.593-24.978 7.371-20.57 7.861 20.57zm-135.545 15.182h-19.163v9.796h-23.585v-15.183h22.111v-18.611h-22.111v-14.203h23.585v9.795h19.163v-28.406h-76.651v18.611h9.336v47.997h-9.336v18.61h76.651zm181.801-56.812v27.916h18.181v-9.305h10.318v47.997h-8.844v18.61h43.239v-18.61h-9.336v-47.997h10.319v9.305h18.671v-27.916z" fill="#fff"/></svg>