<svg fill="none" height="420" viewBox="0 0 420 420" width="420" xmlns="http://www.w3.org/2000/svg"><path clip-rule="evenodd" d="m20 130.844c0-26.976 21.8681-48.844 48.8435-48.844h177.5275c26.975 0 48.845 21.868 48.845 48.844v5.76c0 3.316 3.798 5.194 6.434 3.18l58.047-44.3807c16.243-12.9478 40.303-1.4248 40.303 19.3017v192.081c0 21.18-24.989 32.551-41.055 18.677l-57.172-47.384c-2.61-2.163-6.557-.307-6.557 3.082v7.485c0 26.974-21.87 48.845-48.845 48.845h-177.5275c-26.9754 0-48.8435-21.871-48.8435-48.845zm165.434 32.208c0-6.568 2.228-11.025 5.252-13.878 3.107-2.933 7.809-4.873 13.859-4.873 7.135 0 13.307 3.822 16.593 9.439 2.672 4.57 8.526 6.098 13.074 3.412 4.549-2.686 6.069-8.567 3.396-13.137-6.626-11.33-18.98-18.909-33.063-18.909-10.131 0-19.76 3.302-26.939 10.077-7.263 6.855-11.276 16.573-11.276 27.869 0 5.727 1.283 11.179 3.586 16.066 2.257 4.791 7.952 6.836 12.72 4.568 4.769-2.267 6.804-7.99 4.547-12.78-1.121-2.381-1.749-5.034-1.749-7.854z" fill="#fff" fill-rule="evenodd"/></svg>