<svg viewBox="0 0 64 100" xmlns="http://www.w3.org/2000/svg"><g fill="#fefefe"><path d="m44.92 60.69a1.6 1.6 0 0 1 .54 1.42v6.3a1.64 1.64 0 0 1 -.54 1.43h6.55c1.28 0 1.49 1.35 1.45 2.39l1.17-.3v-2.09h2.43a1 1 0 0 1 -.46-.83 1.74 1.74 0 0 1 .13-.64l.46-1.3h2.74l.46 1.28a2.57 2.57 0 0 1 .12.55 1 1 0 0 1 -.58.94h4.17a2.81 2.81 0 0 1 -1.08-1.61l-2.71-7.54h-3.32c.39.27.51.51.51.75a1.85 1.85 0 0 1 -.13.7l-1.94 5.61a1.33 1.33 0 0 1 -1.13.78h-.92v-6.42a1.62 1.62 0 0 1 .55-1.42h-3.58a1.62 1.62 0 0 1 .54 1.42v6.42h-2.35v-6.42a1.62 1.62 0 0 1 .55-1.42zm-4.21 28.17h-.84v-.69h.89v-.23h-1.17v2.16h1.22v-.23h-.94v-.78h.84zm-3.23-.92v2.16h.3l.68-1.1c.14-.24.28-.48.4-.73a6.46 6.46 0 0 0 0 .88v.92h.26v-2.13h-.27l-.7 1.11a6.37 6.37 0 0 0 -.41.72v-1.77zm-2.09 0v2.16h.28v-1h1v1h.33v-2.16h-.28v.9h-1v-.9zm-.46.92h-.84v-.69h.91v-.23h-1.19v2.16h1.19v-.23h-.93v-.78h.84v-.23zm-2.88-.92v.55a3.1 3.1 0 0 1 -.1.91 2.18 2.18 0 0 1 -.21.47h-.16v.74h.22v-.52h1.4v.52h.21v-.74h-.19v-1.93zm.26.23h.69v1.7h-1a2.09 2.09 0 0 0 .17-.41 2.91 2.91 0 0 0 .11-.88v-.41zm-3.37-.23.77 1c-.34 0-.48.26-.59.56a6.26 6.26 0 0 1 -.21.61h.28a5.17 5.17 0 0 0 .18-.51c.1-.29.21-.48.56-.48h.07v1h.28v-1h.09c.35 0 .45.19.55.48a5.17 5.17 0 0 0 .18.51h.29c-.09-.2-.14-.41-.22-.61s-.24-.52-.58-.56l.77-1h-.36l-.67 1h-.03v-1h-.3v1h-.08l-.67-1zm-.28.92h-.84v-.69h.89v-.23h-1.17v2.16h1.21v-.23h-.93v-.78h.84zm-2.83 1.24h.28v-.87h.22a.86.86 0 0 0 .67-.23.64.64 0 0 0 .17-.47.54.54 0 0 0 -.17-.43.86.86 0 0 0 -.6-.18 4.86 4.86 0 0 0 -.54 0v2.18zm.28-1.93a1.13 1.13 0 0 1 .26 0c.31 0 .51.14.51.43s-.2.46-.54.46h-.23zm-2.21-.23v.73a.58.58 0 0 0 .5.65.29.29 0 0 0 .13 0 1.06 1.06 0 0 0 .52-.13v.92h.28v-2.17h-.28v1a.9.9 0 0 1 -.42.13.42.42 0 0 1 -.46-.37.17.17 0 0 1 0-.1v-.69zm-1.9 0 .72 1.46a.11.11 0 0 1 0 .13c-.07.16-.2.37-.42.37h-.1v.23a.38.38 0 0 0 .15 0 .58.58 0 0 0 .49-.27 3.5 3.5 0 0 0 .41-.82l.45-1.11h-.29l-.34.92c-.06.15-.1.27-.14.38-.05-.12-.1-.25-.16-.38l-.43-.92zm14.28-2.36h-.85v-.69h.89v-.23h-1.17v2.16h1.22v-.23h-.94v-.78h.85zm-2.46-1a1 1 0 0 0 -1 1v.09a1 1 0 0 0 .88 1.09h.1a1 1 0 0 0 1-1v-.12a1 1 0 0 0 -.87-1.09zm0 .23c.46 0 .69.45.69.88s-.25.9-.7.9-.69-.42-.69-.88.23-.9.7-.9zm-3-.19v2.16h.28v-1h1v1h.28v-2.12h-.28v.9h-1v-.9zm-1.74 0v2.16h.44a1.07 1.07 0 0 0 .77-.25.64.64 0 0 0 .17-.47c0-.47-.39-.67-.83-.67h-.27v-.81zm.28 1h.23c.31 0 .58.13.58.47s-.27.48-.58.48a.89.89 0 0 1 -.23 0zm-2-1v.91a1.55 1.55 0 0 1 -.18.94.38.38 0 0 1 -.23.11v.23a.65.65 0 0 0 .33-.11c.31-.2.33-.72.33-1.19v-.66h.71v1.93h.29v-2.12zm-1.1 1.48.23.68h.3l-.79-2.12h-.3l-.7 2.16h.29l.22-.68zm-.71-.22.21-.62a1.6 1.6 0 0 1 .11-.39c0 .13.07.26.11.39l.21.62zm-2.46-1.26v2.16h.28v-1.89h1v1.93h.28v-2.16zm-2.11 0v2.16h.29l.73-1.07a6.44 6.44 0 0 0 .4-.73v1.8h.26v-2.12h-.28l-.7 1.11a6.3 6.3 0 0 0 -.4.72v-1.82zm-2.1 0v2.16h1.49v.52h.22v-.74h-.19v-1.9h-.29v1.93h-1v-1.93zm-2.11 0v2.16h.3l.68-1.07a7.43 7.43 0 0 0 .4-.73v1.8h.27v-2.12h-.28l-.7 1.11a6.3 6.3 0 0 0 -.4.72v-1.82zm-2.09 0v2.16h.32v-1h1v1h.29v-2.12h-.29v.9h-1v-.9zm-1.91 0 .72 1.46a.15.15 0 0 1 0 .13c-.07.16-.2.37-.43.37h-.06v.23h.16a.58.58 0 0 0 .49-.27 3.46 3.46 0 0 0 .4-.82l.46-1.11h-.3l-.34.92c0 .15-.09.28-.13.38l-.15-.38-.43-.92zm-.45 2.16h.27l-.14-2.16h-.35l-.39 1c-.09.28-.17.52-.23.73-.05-.22-.12-.46-.21-.73l-.37-1h-.36l-.15 2.16h.27l.05-.93v-1c.06.25.15.53.25.84l.35 1h.21l.39-1c.11-.3.2-.57.27-.82v.93zm39.88-1.2h-.84v-.69h.89v-.23h-1.17v2.16h1.21v-.23h-.93v-.78h.84zm-2.46-1a1 1 0 0 0 -1 1v.09a1 1 0 0 0 .88 1.09h.09a1 1 0 0 0 1-1v-.12a1 1 0 0 0 -.86-1.09zm0 .23c.46 0 .69.45.69.88s-.25.9-.69.9-.69-.42-.69-.88.23-.9.69-.9zm-3-.19v2.16h.26v-1h1.1v1h.28v-2.12h-.28v.9h-1.05v-.9zm-2.09 0v2.16h.35v-1h1v1h.28v-2.12h-.28v.9h-1v-.9zm-.46.92h-.84v-.69h.89v-.23h-1.14v2.16h1.22v-.23h-.94v-.78h.84v-.23zm-.84-1.07a.16.16 0 0 0 .15-.17.15.15 0 0 0 -.12-.19.15.15 0 0 0 -.19.11.11.11 0 0 0 0 .08.16.16 0 0 0 .15.17zm.59 0a.16.16 0 0 0 .16-.16.17.17 0 0 0 -.15-.16.16.16 0 0 0 -.16.16.16.16 0 0 0 .15.17zm-2.43.53a1 1 0 0 1 .45-.14c.24 0 .39.12.39.34a.46.46 0 0 1 -.51.4h-.12v.21h.12c.28 0 .59.09.59.42s-.17.41-.5.41a1 1 0 0 1 -.48-.13l-.07.22a1.19 1.19 0 0 0 .56.14c.4 0 .78-.18.78-.63a.52.52 0 0 0 -.5-.54.55.55 0 0 0 .44-.53c0-.33-.26-.53-.63-.53a1.06 1.06 0 0 0 -.57.17l.07.2zm-.87 1.15.23.68h.3l-.74-2.16h-.34l-.73 2.16h.29l.22-.68zm-.71-.22.21-.62a1.6 1.6 0 0 1 .11-.39c0 .13.07.26.11.39l.21.62zm-2.16-1.26v2.16h.23v-1h.09a.59.59 0 0 1 .61.48 3.52 3.52 0 0 0 .19.51h.3a4.49 4.49 0 0 1 -.23-.61.71.71 0 0 0 -.61-.56l.82-1h-.34l-.74 1h-.09v-1zm4.12-12.18a1.65 1.65 0 0 1 .55-1.43h-7.23c.79.41.85 1.31.85 2.73 0 1.61-.13 4.76-1.49 4.76a1.61 1.61 0 0 1 -.53-.1l-2.65-7.39h-3.32c.39.27.51.51.51.76a1.8 1.8 0 0 1 -.13.69l-2.1 6.09a3.81 3.81 0 0 1 -1 1.61h2.78a1 1 0 0 1 -.46-.82 2 2 0 0 1 .13-.64l.46-1.31h2.74l.46 1.28a2.57 2.57 0 0 1 .12.55 1 1 0 0 1 -.58.94h4.77c1.65-1 1.85-4.45 1.85-6.7v-1.15h1.78v6.42a1.59 1.59 0 0 1 -.55 1.42h6.34a1 1 0 0 1 -.45-.82 1.74 1.74 0 0 1 .13-.64l.46-1.31h2.74l.46 1.28a2.57 2.57 0 0 1 .12.55 1.06 1.06 0 0 1 -.58.94h4.17a2.82 2.82 0 0 1 -1.08-1.6l-2.71-7.55h-3.32c.39.28.51.51.51.76a2 2 0 0 1 -.13.69l-2.11 6.1a3.88 3.88 0 0 1 -1 1.6 1.66 1.66 0 0 1 -.54-1.42v-6.3zm-31.51 10.61h41.86v-.46h-41.86zm35.35-7 1-2.77.94 2.77zm-17.06 0 1-2.77.94 2.77zm-9.46-5.1a1.68 1.68 0 0 1 .55 1.43v6.3a1.67 1.67 0 0 1 -.55 1.42h3.58a1.67 1.67 0 0 1 -.55-1.42v-6.31h.13c.64 0 1.34.45 1.34 1.74a2.15 2.15 0 0 1 -1.34 2.12c2 .21 3.89-.73 3.89-2.74a2.55 2.55 0 0 0 -2.6-2.5h-4.45zm-8.83 0a4.34 4.34 0 0 1 1.1 1.48l2.28 4.4a2.23 2.23 0 0 0 .92 1.12l-.09.17a1.45 1.45 0 0 1 -1.41.85 1.08 1.08 0 0 1 -.91-.41l-.72 1.39a2.38 2.38 0 0 0 1.54.49 3.24 3.24 0 0 0 3.05-2.08l3-7.34h-2.62a1.13 1.13 0 0 1 .53.93 1.91 1.91 0 0 1 -.13.63l-1.16 3-2.22-4.63zm24.73-10.31a1.62 1.62 0 0 1 .55 1.42v6.3a1.65 1.65 0 0 1 -.55 1.43h2.69l3.09-5.94v4.51a1.65 1.65 0 0 1 -.55 1.43h3.58a1.68 1.68 0 0 1 -.55-1.43v-6.3a1.67 1.67 0 0 1 .55-1.42h-2.72l-3.06 5.93v-4.51a1.67 1.67 0 0 1 .55-1.42zm-1.57 1.42a1.67 1.67 0 0 1 .55-1.42h-7.23c.8.4.85 1.3.85 2.73 0 1.61-.13 4.76-1.49 4.76a1.65 1.65 0 0 1 -.62-.18l.17 2a1.89 1.89 0 0 0 .67.12c2.57 0 2.84-4.33 2.84-7v-1.12h1.78v6.42a1.65 1.65 0 0 1 -.55 1.43h3.58a1.68 1.68 0 0 1 -.55-1.43v-6.3zm-18 3.24a4.61 4.61 0 0 0 4.46 4.76 4 4 0 0 0 .49 0 4.79 4.79 0 0 0 5.12-4.44 3.23 3.23 0 0 0 0-.44 4.62 4.62 0 0 0 -4.43-4.8h-.53a4.86 4.86 0 0 0 -5.1 4.57v.35zm2.61-.35c0-2.29 1.25-3.13 2.42-3.13 1.66 0 2.46 1.91 2.46 3.82 0 2.35-1.35 3-2.29 3-1.25 0-2.59-1.11-2.59-3.67zm-2.39-4.36a1 1 0 0 1 -.33.06h-6.15a1 1 0 0 1 -.28-.06l-.51 2.15a2 2 0 0 1 1.52-.6h.87v6.23a1.65 1.65 0 0 1 -.55 1.43h3.58a1.64 1.64 0 0 1 -.54-1.43v-6.24h.87c.38 0 .93 0 1.11.51zm-8.12.06a10 10 0 0 0 -2.25-.27 4.7 4.7 0 0 0 -5 4.38 2.67 2.67 0 0 0 0 .4c0 2.6 1.7 4.85 5.1 4.85a7.83 7.83 0 0 0 2.83-.47l.68-1.82a7.35 7.35 0 0 1 -2.92.89c-1.1 0-3-.44-3-3.75 0-.41 0-3 2.55-3a3.94 3.94 0 0 1 2.17.72l-.13-1.89zm49.41 5.07.95-2.77 1 2.76z" fill-rule="evenodd"/><path d="m1.65 56.87h59.64v1.2h-59.64z"/><path d="m12.71 54.32h37.51l1.53 2.85h-40.56z" fill-rule="evenodd"/><path d="m19.3 46.32h1.13v9.05h-1.13z"/><path d="m14.91 52.26h33.09l.61-.87h-34.31zm33.4 1.08h-34l-2.13-3h38.53l-2.13 3z"/><path d="m23 48.19-1.83.7h-.39a10.56 10.56 0 0 1 -3.37-2 3.57 3.57 0 0 1 -1.3-2.58c0-1.83 1.79-3.44 4.68-4.56a30.35 30.35 0 0 1 10.64-1.75 30.41 30.41 0 0 1 10.65 1.71c2.88 1.12 4.67 2.73 4.67 4.56a3.57 3.57 0 0 1 -1.3 2.58 10.56 10.56 0 0 1 -3.37 2h-.39l-1.83-.7v-1a9.42 9.42 0 0 0 2.77-1.15c.49-.36.77-.72.77-1.06 0-.79-1.25-1.57-3.27-2.19a30.9 30.9 0 0 0 -8.66-1.09 30.83 30.83 0 0 0 -8.65 1.09c-2 .62-3.27 1.4-3.27 2.19 0 .34.27.7.76 1.06a9.47 9.47 0 0 0 2.69 1.17v1zm-2-.37.27-.11a8.18 8.18 0 0 1 -1.6-.85 2.43 2.43 0 0 1 -1.22-1.93c0-1.32 1.54-2.45 4-3.22a31.8 31.8 0 0 1 9-1.14 31.8 31.8 0 0 1 9 1.14c2.49.77 4 1.9 4 3.22a2.43 2.43 0 0 1 -1.22 1.93 8.18 8.18 0 0 1 -1.6.85l.27.11a9.27 9.27 0 0 0 2.84-1.68 2.57 2.57 0 0 0 1-1.8c0-1.34-1.52-2.6-4-3.56a29.61 29.61 0 0 0 -10.26-1.64 29.61 29.61 0 0 0 -10.26 1.64c-2.46 1-4 2.22-4 3.56a2.54 2.54 0 0 0 1 1.8 9.43 9.43 0 0 0 2.78 1.68z"/><path d="m21.25 54.9c3-2.69 5.37-8.64 7-16.77a167.3 167.3 0 0 0 2.67-31.67h1.08a168.68 168.68 0 0 1 -2.68 31.88c-1.69 8.36-4.16 14.52-7.32 17.36l-.72-.8z"/><path d="m42.49 46.32h1.13v9.05h-1.13z"/><path d="m41 55.7c-3.19-2.84-5.66-9-7.35-17.36a168.73 168.73 0 0 1 -2.73-31.88h1.08a168.11 168.11 0 0 0 2.65 31.67c1.64 8.13 4 14.08 7 16.77l-.72.8z"/><path d="m25.72 41.54h1.13v13.83h-1.13z"/><path d="m36.09 41.54h1.13v13.83h-1.13z"/><path d="m17.51 45.27 1.8-.28.16 1.06-1.8.28zm20.24-6-.55 2.29-1-.24.5-2.32 1 .24zm4.42 1.55-1.1 1.91-.93-.53 1.1-1.92zm3.32 2.18-2 1.21-.56-.91 2-1.22zm-.22 3.34-1.8-.28.16-1.06 1.8.28zm-19.03-7.34.54 2.29-1 .24-.55-2.29zm-4.54 1.25 1.1 1.92-.93.53-1.1-1.91zm-3.7 1.82 2 1.22-.56.91-2-1.21z"/><path d="m30.25 29.87h1.04v23.15h-1.04z" fill-rule="evenodd"/><path d="m31.65 29.87h1.04v23.36h-1.04z" fill-rule="evenodd"/><path d="m27.59 41.54h1.13v13.83h-1.13z"/><path d="m34.22 41.54h1.13v13.83h-1.13z"/><path d="m46.69 50.91-.51 2.19-1.05-.25.52-2.19z"/><path d="m17.3 50.66.51 2.19-1.05.25-.51-2.19z"/></g></svg>