<svg fill="none" height="500" viewBox="0 0 345 500" width="345" xmlns="http://www.w3.org/2000/svg" xmlns:xlink="http://www.w3.org/1999/xlink"><clipPath id="a"><path d="m0 158h345v264.718h-345z"/></clipPath><g clip-path="url(#a)" fill="#fff"><path d="m338.993 190.382c-9.32-9.36-26.462-9.288-36.007-1.128-8.293 7.094-6.478 15.08-6.752 25.344v163.766c-18.257.686-25.574-4.753-25.954-22.536l-.168-141.594c0-.268-.006-.567-.006-.838-.233.675-.48 1.323-.74 1.944-.99 3.147-2.625 6.053-4.802 8.533-7.227 8.199-15.079 6.491-25.344 6.765h-17.978c.098 42.019.013 89.56.007 132.031 0 29.788 16.385 60.003 49.756 60.003l49.864.01c14.924 0 22.694-4.965 24.109-19.659l.013-194.978c.007-8.438-1.518-13.163-5.998-17.663z"/><path d="m195.573 255.906h-48.932v5.371h48.932z"/><path d="m195.568 318.445h-48.939v5.376h48.939z"/><path d="m148.125 407.21h46.576c.438-1.761.696-3.561.768-5.374h-48.574c.232 1.827.644 3.627 1.23 5.374z"/><path d="m151.502 413.538c1.315 1.54 2.813 2.914 4.461 4.093h31.322c.435-.324.865-.661 1.281-1.015 1.509-1.255 2.827-2.724 3.914-4.358h-41.937c.294.445.614.873.959 1.28z"/><path d="m243.322 183.367-20.713.004h-3.373c-14.03.43-25.121 1.72-34.365 4.946h44.865c3.99-2.863 8.69-4.576 13.586-4.95z"/><path d="m195.571 287.18h-48.934v5.371h48.934z"/><path d="m195.574 266.328h-48.933v5.371h48.933z"/><path d="m195.571 276.758h-48.934v5.373h48.934z"/><path d="m147.938 235.061c.294-1.703.642-3.385 1.044-5.047h72.274v-5.379h-70.731c.573-1.714 1.22-3.398 1.94-5.05h68.786v-5.37h-66.104c.629-1.112 1.301-2.208 2.016-3.287.399-.601.798-1.187 1.199-1.761h62.886v-1.119c0-1.534.051-2.946.162-4.257h-58.924c1.506-1.78 3.12-3.466 4.832-5.05h54.958c.528-1.92 1.379-3.736 2.515-5.371h-50.488c-1.109.703-2.189 1.46-3.247 2.258-11.3-8.272-25.527-10.579-48.083-12.258-.925-16.815-13.05-25.342-25.1769-25.37-12.1267.028-24.2518 8.555-25.1772 25.37-32.7166 2.436-47.9178 6.181-62.0679 27.558-7.8353 11.836-10.536751 25.693-10.5266928 40.686.014249 23.345-.02011631 56.653-.0243072 79.713 0 13.164 3.19765 25.775 9.8662 36.662 13.4603 21.978 28.7587 26.419 62.2473 27.891.4794 4.375 2.0795 25.839 24.4262 26.805.4275.018.844.028 1.2573.033.4132.004.8298-.015 1.2572-.033 22.3478-.966 23.9468-22.43 24.4268-26.805 7.755-.245 15.488-.94 23.162-2.081v2.985h48.904c-.01-1.72-.029-3.507.02-5.375h-48.924v-5.046h48.927v-5.375h-48.927v-2.035h-.028v-3.017h48.955v-5.374h-48.949v-5.05h48.949v-5.374h-48.949v-5.05h48.949v-5.372h-48.949v-5.05h48.945v-3.068-2.3h-48.94v-5.05h48.94v-1.488c.009-.476.026-.95.026-1.429l-.024-2.457h-48.941v-3.207c.015 2.484-.146 4.965-.484 7.425-2.157 11.017-8.269 18.149-23.637 16.037l-.115-118.316c16.892-1.492 22.637 6.925 24.243 19.163.009.064.012.138.018.208 0 .226-.01.45-.011.676h48.936c.015-1.805.212-3.605.587-5.371h-49.368c.092-1.701.222-3.387.399-5.052h50.803c1.146-2.121 2.755-3.958 4.709-5.372zm-74.8489 114.064c-15.3713 2.112-21.4825-5.02-23.6366-16.037-.3969-3.064-.5625-6.154-.4953-9.243 0-18.158 0-56.298.0117-69.917 0-1.78-.1115-3.128 0-3.956 1.6059-12.238 7.3516-20.656 24.2443-19.164z"/><path d="m195.571 308.023h-48.938v5.374h48.938z"/><path d="m195.575 297.602h-48.938v5.373h48.938z"/></g></svg>