<svg viewBox="0 0 1080 1080" xmlns="http://www.w3.org/2000/svg"><path d="m0 0h1080v1080h-1080z"/><path d="m0 0h1080v1080h-1080z" fill="#00b4ff"/><g fill="#fff"><path d="m461.1 291.48q220-95.76 293.41-126.39c139.72-58.09 168.69-68.19 187.66-68.45 4.1 0 13.46.9 19.49 5.77 5.12 4.23 6.41 9.74 7.17 13.71a83.74 83.74 0 0 1 .77 19.74c-7.6 79.48-40.25 272.65-56.91 361.74-7.05 37.69-21 50.38-34.35 51.53-29.23 2.69-51.41-19.23-79.73-37.81-44.36-29-69.22-47.05-112.29-75.38-49.74-32.81-17.44-50.76 10.76-80.11 7.44-7.69 136.14-124.85 138.7-135.49.26-1.28.64-6.28-2.31-9s-7.3-1.67-10.51-.9q-6.54 1.56-212.15 140.26c-20.12 13.85-38.32 20.51-54.6 20.26-18-.52-52.56-10.26-78.19-18.59-31.54-10.26-56.53-15.64-54.35-33.07 1.15-9 13.58-18.33 37.43-27.82z" fill-rule="evenodd"/><path d="m131.53 165.67q92.35-40.2 123.19-53.06c58.66-24.38 70.82-28.61 78.78-28.74 1.72 0 5.65.38 8.18 2.42a9.18 9.18 0 0 1 3 5.76 35.54 35.54 0 0 1 .32 8.29c-3.18 33.36-16.9 114.46-23.89 151.87-3 15.82-8.83 21.14-14.43 21.63-12.27 1.13-21.58-8.07-33.47-15.88-18.62-12.16-29.06-19.75-47.14-31.64-20.88-13.78-7.32-21.31 4.52-33.63 3.12-3.23 57.15-52.42 58.23-56.89.1-.54.27-2.63-1-3.76s-3.07-.7-4.42-.38q-2.74.65-89.06 58.87c-8.45 5.81-16.09 8.61-22.93 8.51-7.53-.22-22.06-4.31-32.82-7.81-13.24-4.3-23.74-6.56-22.82-13.88.48-3.77 5.7-7.7 15.71-11.68z" fill-rule="evenodd"/><path d="m108.45 362.74q32.22-14 43-18.51c20.46-8.5 24.7-10 27.48-10a4.94 4.94 0 0 1 2.85.84 3.19 3.19 0 0 1 1.05 2 12.09 12.09 0 0 1 .12 2.89c-1.11 11.64-5.9 39.93-8.34 53-1 5.52-3.08 7.38-5 7.55-4.28.39-7.53-2.82-11.67-5.54-6.5-4.24-10.14-6.89-16.45-11-7.28-4.8-2.55-7.43 1.58-11.73 1.09-1.12 19.93-18.28 20.31-19.84a1.54 1.54 0 0 0 -.38-1.4 1.68 1.68 0 0 0 -1.54-.13q-1 .22-31.06 20.53c-2.95 2-5.62 3-8 3-2.63-.08-7.7-1.5-11.45-2.72-4.62-1.51-8.28-2.29-8-4.85.17-1.31 2-2.68 5.48-4.07z" fill-rule="evenodd"/><path d="m473.76 126.84q28.19-12.27 37.59-16.2c17.91-7.44 21.62-8.74 24-8.77a4.39 4.39 0 0 1 2.5.74 2.77 2.77 0 0 1 .91 1.76 10.29 10.29 0 0 1 .1 2.53c-1 10.18-5.15 34.93-7.29 46.34-.9 4.83-2.69 6.46-4.4 6.61-3.74.34-6.59-2.47-10.22-4.85-5.68-3.71-8.86-6-14.38-9.66-6.37-4.2-2.24-6.5 1.38-10.26.95-1 17.44-16 17.77-17.36a1.38 1.38 0 0 0 -.3-1.15 1.48 1.48 0 0 0 -1.34-.11q-.84.2-27.19 18a12.3 12.3 0 0 1 -7 2.6c-2.3-.07-6.74-1.32-10-2.38-4-1.32-7.24-2-7-4.24.14-1.15 1.74-2.35 4.79-3.56z" fill-rule="evenodd"/><path d="m980.16 451.39q16.08-7 21.45-9.24c10.21-4.24 12.32-5 13.71-5a2.42 2.42 0 0 1 1.42.42 1.6 1.6 0 0 1 .53 1 6.35 6.35 0 0 1 .06 1.45c-.56 5.8-3 19.92-4.16 26.43-.52 2.76-1.54 3.68-2.51 3.77-2.14.19-3.76-1.41-5.83-2.77-3.24-2.11-5.06-3.43-8.21-5.5-3.63-2.4-1.27-3.71.79-5.86.54-.56 10-9.12 10.14-9.9a.84.84 0 0 0 -.17-.66.87.87 0 0 0 -.77-.06q-.48.11-15.51 10.25a7.11 7.11 0 0 1 -4 1.48 26.92 26.92 0 0 1 -5.71-1.36c-2.3-.75-4.13-1.15-4-2.42.08-.65 1-1.34 2.73-2z" fill-rule="evenodd"/><path d="m914 605.62q34.46-15 46-19.8c21.89-9.1 26.43-10.69 29.4-10.73a5.31 5.31 0 0 1 3 .91 3.37 3.37 0 0 1 1.13 2.15 13.24 13.24 0 0 1 .12 3.09c-1.19 12.45-6.31 42.72-8.92 56.68-1.1 5.9-3.29 7.89-5.38 8.07-4.58.42-8.05-3-12.49-5.92-7-4.54-10.85-7.38-17.59-11.81-7.8-5.15-2.74-8 1.68-12.56 1.17-1.2 21.33-19.56 21.73-21.22a1.67 1.67 0 0 0 -.36-1.41 1.85 1.85 0 0 0 -1.65-.14q-1 .24-33.23 22c-3.16 2.17-6 3.21-8.56 3.17-2.81-.08-8.23-1.6-12.25-2.91-4.94-1.61-8.86-2.45-8.52-5.18.18-1.41 2.13-2.87 5.87-4.36z" fill-rule="evenodd"/><path d="m247.65 453.76q68.46-29.76 91.35-39.33c43.49-18.08 52.5-21.23 58.41-21.31 1.27 0 4.19.28 6.06 1.8a6.76 6.76 0 0 1 2.24 4.27 26.67 26.67 0 0 1 .24 6.14c-2.36 24.73-12.53 84.85-17.72 112.58-2.19 11.73-6.54 15.68-10.69 16-9.09.83-16-6-24.81-11.77-13.81-9-21.54-14.64-34.95-23.46-15.48-10.21-5.42-15.8 3.35-24.93 2.32-2.4 42.37-38.86 43.17-42.17a3.29 3.29 0 0 0 -.72-2.79c-.92-.8-2.28-.52-3.27-.28q-2 .48-66 43.64c-6.26 4.31-11.92 6.38-17 6.3-5.59-.16-16.36-3.19-24.34-5.78-9.81-3.19-17.59-4.87-16.91-10.29.36-2.8 4.23-5.71 11.65-8.66z" fill-rule="evenodd"/><path d="m90.13 658.55 23.93-1.72v-27.83l15.26-1.1v72.2l-15.26 1.09v-30.34l-23.93 1.72v30.32l-15.26 1.11v-72.2l15.26-1.1z"/><path d="m157.17 677.35c1.65 5.45 6.39 8.2 12.37 7.77a31 31 0 0 0 12.27-4.12l5.37 11.48a45.39 45.39 0 0 1 -18.67 5.77c-15.26 1.1-26.81-7.66-26.81-25.4s9.59-28 24.85-29.12c14.33-1 22.58 7.25 22.58 20a50.92 50.92 0 0 1 -1.13 11.4zm18.45-12.78c0-5.05-3.09-8.13-8.86-7.71a10.25 10.25 0 0 0 -9.9 9.06z"/><path d="m270.71 689.92-14.85 1.08v-39.5l-13.72 1v39.5l-14.85 1v-52.6l43.42-3.12z"/><path d="m298.35 639.56c3.3-3.12 7.32-5.79 12.89-6.19 14.85-1.06 22.27 10.06 22.27 25.73s-8 27.91-23.72 29a31.94 31.94 0 0 1 -9.79-.95v21.25l-14.85 3.13v-75.25l10.72-.77 2.07 4.08zm20.11 20.63c0-8.36-3.82-14-10.32-13.49a12.11 12.11 0 0 0 -8.14 4.4v22.69a17.4 17.4 0 0 0 8.56 1.34c5.67-.41 9.9-5.97 9.9-14.94z"/><path d="m341.77 658.51c0-17.74 10-28 25.26-29.15s25.27 7.78 25.27 25.52-10 28-25.27 29.15-25.26-7.78-25.26-25.52zm15.05-1.08c0 9.59 4 13.94 10.21 13.5s10.21-5.38 10.21-15-4-13.94-10.21-13.5-10.21 5.41-10.21 15z"/><path d="m447.06 677.24-14.85 1.07v-39.5l-13.72 1v39.5l-14.85 1.06v-52.6l43.42-3.12z"/><path d="m489.65 621.58 15.68-1.12-19.7 64.12c-3.2 10.34-11 13.37-16.71 13.78a28.13 28.13 0 0 1 -10.1-1.44l4.33-12.48a15 15 0 0 0 5.15.87 4.6 4.6 0 0 0 4.13-3.39l2-6.64-4.95.35-15.68-51.47 15.64-1.16 9.69 34.16h.31z"/><path d="m545.24 656 4.85 11.71a44.63 44.63 0 0 1 -16.4 4.38c-15.26 1.1-25.78-7.74-25.78-25.48s10.52-28.09 25.78-29.18c4.95-.36 11.45.1 15.88 1.64l-4.85 12.42a28.53 28.53 0 0 0 -9.9-1.05c-6.18.45-11.86 5.5-11.86 15.09s5.68 13.82 11.86 13.38a28.13 28.13 0 0 0 10.42-2.91z"/><path d="m553.18 617 46.61-3.35-2.06 13.25-14.13 1v39.5l-14.74 1.06v-39.46l-15.68 1.13z"/><path d="m607.53 665.71v-52.6l14.85-1.11v28.37l19.49-29.77 12.68-.91v52.6l-14.84 1.07v-28.22l-19.5 29.66z"/><path d="m662.81 609.14 46.61-3.35-2.06 13.21-14.13 1v39.5l-14.75 1.06v-39.5l-15.67 1.13z"/><path d="m728 636.33c1.65 5.44 6.4 8.2 12.38 7.77a31 31 0 0 0 12.25-4.1l5.37 11.49a45.16 45.16 0 0 1 -18.66 5.78c-15.27 1.1-26.82-7.66-26.82-25.4s9.59-28 24.86-29.12c14.33-1 22.58 7.25 22.58 20a51.52 51.52 0 0 1 -1.13 11.32zm18.46-12.78c0-5-3.09-8.13-8.87-7.72a10.27 10.27 0 0 0 -9.9 9.07z"/><path d="m271.44 788.31-14.85 1.06v-20.52l-14.54 1v20.53l-14.85 1.07v-52.6l14.85-1.07v19l14.54-1v-19l14.85-1.06z"/><path d="m282.78 761.19c0-17.74 10-28.05 25.27-29.15s25.27 7.78 25.27 25.52-10 28.05-25.27 29.15-25.27-7.78-25.27-25.52zm15.06-1.08c0 9.59 4 13.94 10.21 13.5s10.21-5.38 10.21-15-4-13.94-10.21-13.5-10.21 5.41-10.21 15z"/><path d="m376.42 753.22c7.12 1 11.14 5.19 11.14 11.58 0 9.49-6 15.59-17.94 16.45l-25 1.79v-52.59l23.38-1.68c11.14-.8 17.43 3.6 17.43 12.05a11.94 11.94 0 0 1 -9 12zm-9.79-11.46-7.12.51v7.43l7.12-.52a3.89 3.89 0 0 0 3.71-4 3.29 3.29 0 0 0 -3.71-3.42zm-7.12 18.56v8.56l8.36-.6a4.61 4.61 0 0 0 4.63-4.56c0-2.38-1.75-4.21-4.63-4z"/><path d="m413.76 744.25 6.08-.44c11.35-.81 18.77 4.94 18.77 15.57s-7.42 17.45-18.77 18.26l-20.93 1.51v-52.6l14.85-1.07zm0 11.45v9.3l4.53-.33c3.1-.22 5.26-1.82 5.26-5s-2.16-4.48-5.26-4.26zm44.55 19.18-14.85 1.06v-52.6l14.85-1.06z"/><path d="m485.12 752.22c1.65 5.45 6.4 8.2 12.38 7.77a31 31 0 0 0 12.27-4.08l5.36 11.48a45.45 45.45 0 0 1 -18.66 5.78c-15.27 1.09-26.82-7.67-26.82-25.41s9.59-28 24.86-29.12c14.33-1 22.58 7.25 22.58 20a51.4 51.4 0 0 1 -1.09 11.36zm18.46-12.78c0-5.05-3.09-8.13-8.87-7.71a10.26 10.26 0 0 0 -9.9 9.06z"/><path d="m598.67 764.79-14.85 1.07v-39.5l-13.72 1v39.5l-14.85 1.07v-52.6l43.42-3.12z"/><path d="m626.31 714.43c3.3-3.12 7.32-5.78 12.89-6.18 14.85-1.07 22.27 10 22.27 25.73s-8 27.9-23.72 29a32.26 32.26 0 0 1 -9.79-.94v21.24l-14.85 3.13v-75.26l10.72-.77 2.06 4.08zm20.11 20.63c0-8.36-3.82-14-10.32-13.49a12.11 12.11 0 0 0 -8.1 4.43v22.69a17.38 17.38 0 0 0 8.56 1.34c5.63-.43 9.86-6.03 9.86-14.97z"/><path d="m669.72 733.38c0-17.74 10-28 25.27-29.14s25.27 7.77 25.27 25.51-10 28-25.27 29.15-25.27-7.78-25.27-25.52zm15.06-1.08c0 9.59 4 14 10.21 13.5s10.21-5.38 10.21-15-4-13.94-10.21-13.49-10.21 5.4-10.21 14.99z"/><path d="m744 733.62c1.65 5.45 6.39 8.2 12.37 7.77a31 31 0 0 0 12.27-4.08l5.36 11.48a45.39 45.39 0 0 1 -18.67 5.77c-15.26 1.1-26.81-7.66-26.81-25.4s9.59-28 24.85-29.12c14.34-1 22.59 7.25 22.59 20a50.92 50.92 0 0 1 -1.14 11.32zm18.46-12.78c0-5.05-3.1-8.13-8.87-7.71a10.25 10.25 0 0 0 -9.9 9.06z"/><path d="m816.58 721.9 15.36 26.1-15.26 2.13-11.76-21.22-2.78.2v21l-14.85 1.06v-52.6l14.85-1.06v19.49l2.78-.2 11.25-20.3 14.74-1.06z"/><path d="m833 695.35 46.59-3.35-2.06 13.25-14.13 1v39.5l-14.75 1.06v-39.5l-15.65 1.14z"/><path d="m902.18 709.15 6.08-.44c11.34-.81 18.77 4.94 18.77 15.57s-7.43 17.44-18.77 18.26l-20.93 1.46v-52.55l14.85-1.07zm0 11.45v9.28l4.53-.33c3.1-.22 5.26-1.82 5.26-5s-2.16-4.48-5.26-4.26zm44.55 19.18-14.85 1.06v-52.6l14.85-1.06z"/></g><path d="m74.87 900.87v-72.19l54.13-3.89v72.21l-15.26 1.1v-58.19l-23.62 1.7v58.17z" fill="#ffd400"/><path d="m141.39 869.79c0-17.74 10-28 25.26-29.14s25.27 7.77 25.27 25.51-10 28.05-25.27 29.15-25.26-7.78-25.26-25.52zm15.05-1.08c0 9.59 4 13.95 10.21 13.5s10.21-5.37 10.21-15-4-14-10.21-13.5-10.21 5.41-10.21 15z" fill="#ffd400"/><path d="m201.51 878.67c5-9 5.36-17.5 5.36-34.62v-5.26l38.37-2.79v39.5l8.35-.6-2.06 26.35-12.79.91v-13.06l-29.39 2.11v13.1l-12.79.92-2.06-26.05zm28.88-2.07v-26.4l-10 .72v.82c0 9.9-1.13 19.37-3.92 25.86z" fill="#ffd400"/><path d="m304.74 884.35-14.85 1.07v-39.5l-13.71 1v39.5l-14.85 1.06v-52.6l43.41-3.13z" fill="#ffd400"/><path d="m319.18 883.32v-52.6l14.82-1.07v28.35l19.49-29.76 12.69-.91v52.6l-14.82 1.07v-28.25l-19.49 29.65z" fill="#ffd400"/><path d="m446.85 874.14-66.2 4.76v-52.6l14.85-1.07v39.5l10.93-.78v-39.5l14.74-1.06v39.5l10.83-.78v-39.5l14.85-1.07z" fill="#ffd400"/><path d="m461.29 873.1v-52.6l14.85-1.06v28.36l19.49-29.8 12.69-.92v52.6l-14.85 1.07v-28.22l-19.47 29.66z" fill="#ffd400"/><path d="m516.57 816.53 46.61-3.35-2.06 13.25-14.13 1v39.5l-14.74 1.07v-39.5l-15.68 1.13z" fill="#ffd400"/><path d="m581.75 843.72c1.65 5.45 6.39 8.2 12.37 7.77a31 31 0 0 0 12.27-4.08l5.37 11.48a45.39 45.39 0 0 1 -18.67 5.77c-15.26 1.1-26.81-7.66-26.81-25.4s9.59-28 24.85-29.12c14.34-1 22.59 7.25 22.59 20a50.92 50.92 0 0 1 -1.14 11.32zm18.46-12.78c0-5.05-3.1-8.13-8.87-7.71a10.26 10.26 0 0 0 -9.9 9.06z" fill="#ffd400"/><path d="m659.3 844.64 4.85 11.72a44.62 44.62 0 0 1 -16.4 4.37c-15.26 1.1-25.75-7.73-25.75-25.47s10.52-28.09 25.78-29.19c5-.35 11.45.11 15.88 1.65l-4.85 12.41a28.77 28.77 0 0 0 -9.9-1c-6.18.45-11.86 5.49-11.86 15.08s5.68 13.83 11.86 13.39a28.13 28.13 0 0 0 10.39-2.96z" fill="#ffd400"/><path d="m696.53 822.37c11.34-.82 18.77 4.63 18.77 15.56s-7.43 17.45-18.77 18.27l-23.1 1.66v-52.6l14.85-1.07v18.81zm-8.25 12v9.28l7.22-.52a5 5 0 0 0 4.74-5 4.21 4.21 0 0 0 -4.74-4.3z" fill="#ffd400"/><path d="m271.44 985.19-14.85 1.07v-20.53l-14.54 1v20.57l-14.85 1.07v-52.6l14.85-1.07v19l14.54-1v-19l14.85-1.07z" fill="#ffd400"/><path d="m311.76 978.27a19.33 19.33 0 0 1 -12.17 5.41c-10 .72-17.32-4-17.32-14.74 0-10 7.84-16.45 19.49-17.28l9-.65v-3.09c0-3.71-2.37-5.92-7.32-5.56a43.66 43.66 0 0 0 -13.82 3.57l-4.57-11.93a59 59 0 0 1 19.6-4.81c16.09-1.15 20.93 7 20.93 17.89v17.92c0 2.58 1.45 3.61 3.71 3.45l1.14-.08v10.93a19.26 19.26 0 0 1 -8.35 2.77c-5.37.38-8.05-1.28-9.9-3.83zm-10.51-6.67a16.08 16.08 0 0 0 9.48-4.29v-5.37l-9 .65c-3.51.25-5.78 2.37-5.78 5.16s2.2 4.07 5.3 3.85z" fill="#ffd400"/><path d="m410.77 975.18-14.85 1.06v-20.52l-14.55 1v20.53l-14.85 1.07v-52.6l14.85-1.07v19l14.55-1v-19l14.85-1.06z" fill="#ffd400"/><path d="m451.09 968.25a19.33 19.33 0 0 1 -12.17 5.42c-10 .72-17.32-4-17.32-14.74 0-10 7.83-16.45 19.49-17.29l9-.64v-3.1c0-3.71-2.37-5.91-7.32-5.55a43.59 43.59 0 0 0 -13.82 3.57l-4.57-11.92a58.74 58.74 0 0 1 19.62-4.84c16.09-1.16 20.94 7 20.94 17.88v18c0 2.58 1.44 3.61 3.71 3.45l1.13-.09v10.94a19.21 19.21 0 0 1 -8.35 2.76c-5.36.39-8-1.28-9.9-3.82zm-10.52-6.66a16 16 0 0 0 9.49-4.3v-5.36l-9 .65c-3.51.25-5.78 2.37-5.78 5.16s2.2 4.07 5.29 3.85z" fill="#ffd400"/><path d="m545.25 965.51-66.25 4.76v-52.6l14.85-1.07v39.5l10.93-.78v-39.5l14.75-1.06v39.5l10.83-.78v-39.48l14.85-1.07z" fill="#ffd400"/><path d="m580.31 910.39 46.61-3.39-2.06 13.25-14.13 1v39.5l-14.73 1.12v-39.5l-15.68 1.12z" fill="#ffd400"/><path d="m645.49 937.58c1.65 5.45 6.39 8.2 12.37 7.77a31 31 0 0 0 12.27-4.08l5.37 11.48a45.39 45.39 0 0 1 -18.67 5.77c-15.26 1.1-26.81-7.66-26.81-25.4s9.59-28 24.85-29.12c14.34-1 22.59 7.25 22.59 20a50.86 50.86 0 0 1 -1.14 11.32zm18.51-12.78c0-5-3.1-8.13-8.87-7.71a10.26 10.26 0 0 0 -9.9 9.06z" fill="#ffd400"/><path d="m732.32 899.47v52.6l-14.85 1.06v-39.5l-10.21.74c-.51 25.71-5.88 40.44-17.12 41.24a17 17 0 0 1 -8.56-1.24l3.2-12.6a4.9 4.9 0 0 0 2.58.53c3.5-.25 6.08-5.59 6.08-29.1v-10.94z" fill="#ffd400"/><path d="m759.13 929.41c1.66 5.45 6.4 8.2 12.38 7.77a31 31 0 0 0 12.27-4.07l5.37 11.47a45.55 45.55 0 0 1 -18.67 5.78c-15.26 1.09-26.81-7.67-26.81-25.41s9.59-28 24.85-29.11c14.34-1 22.59 7.24 22.59 20a50.8 50.8 0 0 1 -1.11 11.35zm18.47-12.77c0-5.06-3.1-8.14-8.87-7.72a10.25 10.25 0 0 0 -9.9 9.06z" fill="#ffd400"/><path d="m837.31 891.92-2.06 13.25-18 1.29v39.54l-14.8 1v-52.6z" fill="#ffd400"/><path d="m857.21 894.72c3.3-3.12 7.32-5.78 12.89-6.18 14.85-1.07 22.28 10.05 22.28 25.73s-8 27.9-23.72 29a32 32 0 0 1 -9.8-.95v21.28l-14.86 3.13v-75.29l10.73-.77 2.06 4.08zm20.11 20.63c0-8.36-3.81-14-10.31-13.49a12.11 12.11 0 0 0 -8.15 4.4v22.74a17.4 17.4 0 0 0 8.56 1.34c5.67-.46 9.9-6.02 9.9-14.99z" fill="#ffd400"/><path d="m929.61 933.87a19.38 19.38 0 0 1 -12.17 5.41c-10 .72-17.33-4-17.33-14.74 0-10 7.84-16.45 19.49-17.29l9-.64v-3.09c0-3.72-2.38-5.92-7.33-5.56a43.6 43.6 0 0 0 -13.81 3.57l-4.54-11.95a58.93 58.93 0 0 1 19.59-4.81c16.09-1.16 20.94 7 20.94 17.89v17.94c0 2.58 1.44 3.61 3.71 3.45l1.13-.08v10.93a19.08 19.08 0 0 1 -8.35 2.76c-5.36.39-8-1.28-9.9-3.82zm-10.52-6.67a16.08 16.08 0 0 0 9.49-4.29v-5.37l-9 .65c-3.5.25-5.77 2.37-5.77 5.16s2.19 4.07 5.28 3.85z" fill="#ffd400"/><path d="m995.71 880.54 15.58-1.12 5.05 52.24-14.75 1.06-2.27-28.41h-.31l-7.52 20.55-12.17.88-7.53-19.47h-.31l-2.27 28.73-14.75 1.06 5.06-53 15.67-1.06 10.11 26.2h.31z" fill="#ffd400"/></svg>