<svg viewBox="0 0 80.24 100" xmlns="http://www.w3.org/2000/svg"><path d="m25 49.25h-.38l-1.1 19.59h2.66zm0 0h-.38l-1.1 19.59h2.66zm0 0h-.38l-1.1 19.59h2.66zm23.24-.54a1.38 1.38 0 0 0 -1.37 1.36v25a1.29 1.29 0 0 0 1.18 1.39h.17a1.3 1.3 0 0 0 1.37-1.21v-25.18a1.36 1.36 0 0 0 -1.31-1.36zm0 0a1.38 1.38 0 0 0 -1.37 1.36v25a1.29 1.29 0 0 0 1.18 1.39h.17a1.3 1.3 0 0 0 1.37-1.21v-25.18a1.36 1.36 0 0 0 -1.31-1.36zm-23.24.54h-.38l-1.1 19.59h2.66zm54.72-19.74c-22 1-53.53 3.05-79 7.12l-.72.11 10.11 17.33v35.13h70.13v-59.71zm-52.83 50.49-.43-7.35h-3.21l-.44 7.35h-4.35l2.65-34.83h7.56l2.57 34.83zm14.37-30.75h-3v30.75h-4.46v-30.75h-3l-.33-4.08h11.1zm12.74 25.85c0 3.32-2.29 5.44-5.72 5.44s-5.71-2.12-5.71-5.44v-25c0-3.32 2.29-5.44 5.71-5.44s5.72 2.12 5.72 5.44zm17.94 4.9h-4.08v-11.92l.14-10.39h-.33l-2.42 15.23h-1.63l-2.4-15.23h-.32l.1 10.39v11.92h-4.07v-34.83h4.07l3.42 14.91 3.43-14.91h4.08zm-23.66-31.29a1.38 1.38 0 0 0 -1.37 1.36v25a1.29 1.29 0 0 0 1.18 1.39h.17a1.3 1.3 0 0 0 1.37-1.21v-25.18a1.36 1.36 0 0 0 -1.35-1.36zm-23.62.54-1.14 19.59h2.66l-1.18-19.59zm.38 0h-.38l-1.14 19.59h2.66zm0 0h-.38l-1.14 19.59h2.66z" fill="#fff"/></svg>