<svg fill="none" height="1920" viewBox="0 0 1920 1920" width="1920" xmlns="http://www.w3.org/2000/svg" xmlns:xlink="http://www.w3.org/1999/xlink"><clipPath id="a"><path d="m359 1494h635.976v312.588h-635.976z"/></clipPath><clipPath id="b"><path d="m101 1613.71h193.287v193.287h-193.287z"/></clipPath><path d="m0 0h1920v1920h-1920z" fill="#ffd400"/><path d="m142.748 285h-25.088v-137.2h100.94v137.2h-25.088v-114.464h-50.764zm148.288 1.96c-27.832 0-47.04-19.404-47.04-51.94s19.208-51.94 47.04-51.94 47.04 19.404 47.04 51.94-19.208 51.94-47.04 51.94zm0-82.908c-12.936 0-22.344 11.564-22.344 30.968s9.408 30.968 22.344 30.968 22.344-11.564 22.344-30.968-9.408-30.968-22.344-30.968zm54.007 59.976h13.328c9.8-17.444 12.544-34.3 12.544-68.012v-10.976h68.6v78.988h15.876l-3.92 45.864h-20.384v-24.892h-61.74v24.892h-20.384zm70.168-58.016h-20.972c0 22.148-1.96 42.924-9.996 58.016h30.968zm46.016 58.016h13.328c9.8-17.444 12.544-34.3 12.544-68.012v-10.976h68.6v78.988h15.876l-3.92 45.864h-20.384v-24.892h-61.74v24.892h-20.384zm70.168-58.016h-20.972c0 22.148-1.96 42.924-9.996 58.016h30.968zm100.814 59.976c8.232 0 18.032-2.94 24.892-6.468l8.428 19.012c-9.604 4.9-21.756 8.428-34.496 8.428-29.4 0-49.588-19.208-49.588-51.94 0-32.928 17.64-51.94 45.864-51.94 26.068 0 42.336 16.268 42.336 44.296 0 2.744-.392 9.604-1.176 15.092h-62.328c2.548 15.288 13.132 23.52 26.068 23.52zm-25.676-42.14h40.964c0-11.368-7.056-19.796-19.796-19.796-10.388 0-18.816 6.86-21.168 19.796zm108.984-30.184h.784c6.468-6.272 15.484-10.584 25.872-10.584 28.224 0 40.964 21.756 40.964 51.94s-12.936 51.94-42.728 51.94c-8.428 0-16.464-1.372-22.932-3.528v40.768l-24.304 3.92v-143.08h18.424zm21.56 72.324c13.132 0 21.364-11.368 21.364-30.968 0-18.228-7.448-30.968-22.148-30.968-6.664 0-13.328 3.724-18.816 9.8v46.844c5.488 3.332 12.348 5.292 19.6 5.292zm162.376 20.972-25.088-43.316h-4.312v41.356h-23.716v-41.356h-4.312l-23.716 41.356h-27.244l32.144-51.744-30.184-48.216h24.892l23.324 38.416h5.096v-38.416h23.716v38.416h5.096l23.324-38.416h24.892l-30.184 48.216 32.144 51.744zm105.657-1.96v-59.976h-.59l-40.371 59.976h-22.148v-99.96h24.304v59.976h.588l40.377-59.976h22.15v99.96zm41.89-78.988v-20.972h86.63l-3.92 20.972h-27.83v78.988h-24.11v-78.988zm145.26 59.976c8.24 0 18.04-2.94 24.9-6.468l8.42 19.012c-9.6 4.9-21.75 8.428-34.49 8.428-29.4 0-49.59-19.208-49.59-51.94 0-32.928 17.64-51.94 45.86-51.94 26.07 0 42.34 16.268 42.34 44.296 0 2.744-.39 9.604-1.18 15.092h-62.32c2.54 15.288 13.13 23.52 26.06 23.52zm-25.67-42.14h40.96c0-11.368-7.05-19.796-19.79-19.796-10.39 0-18.82 6.86-21.17 19.796zm-995.03 204.82 19.208 33.712-18.228 9.8-24.892-43.512 24.892-43.512 18.228 9.8zm-39.788 0 19.208 33.712-18.228 9.8-24.892-43.512 24.892-43.512 18.228 9.8zm108.028 29.596h51.548v-91.728h-34.496v4.312c0 34.104-6.86 68.012-17.052 87.416zm-17.052 22.736v28.812h-21.168l-3.92-51.548h14.7c14.896-19.796 19.992-58.016 19.992-103.096v-11.368h84.084v114.464h18.62l-3.92 51.548h-21.168v-28.812zm193.982 0v-59.976h-.588l-40.376 59.976h-22.148v-99.96h24.304v59.976h.588l40.376-59.976h22.148v99.96zm118.914-75.852c0 10.78-5.096 19.404-17.052 22.736v.588c13.328 3.136 21.364 11.368 21.364 24.5 0 18.032-14.896 29.988-42.924 29.988-11.564 0-26.068-2.352-34.496-6.076l7.644-19.404c6.664 2.548 17.64 4.508 26.264 4.508 10.976 0 18.816-4.116 18.816-11.172 0-6.86-6.076-11.368-19.012-11.368h-12.544v-19.404h12.348c8.428 0 14.896-2.94 14.896-10.388 0-6.076-4.9-9.604-14.308-9.604-7.448 0-17.444 1.372-25.48 4.116l-7.644-19.404c9.212-3.724 25.676-5.684 35.084-5.684 22.344 0 37.044 8.624 37.044 26.068zm75.994 17.052v-6.664c0-9.604-4.9-15.484-16.856-15.484-8.428 0-17.444 1.96-26.656 5.292l-7.252-19.6c11.956-4.508 23.52-6.664 36.26-6.664 30.576 0 38.808 16.072 38.808 36.848v38.024c0 4.9 2.744 7.056 7.056 7.056h2.156v19.012c-2.94 1.176-9.016 1.96-13.916 1.96-8.82 0-14.504-3.332-17.64-9.604h-.784c-7.056 7.056-14.896 9.604-26.264 9.604-19.012 0-30.968-9.408-30.968-29.792 0-19.208 15.288-29.988 37.436-29.988zm-21.168 39.788c8.036 0 15.876-3.724 21.168-9.8v-11.368h-17.836c-9.016 0-14.112 4.508-14.112 10.976 0 6.664 4.9 10.192 10.78 10.192zm137.487 19.012v-59.976h-.588l-40.376 59.976h-22.148v-99.96h24.304v59.976h.588l40.376-59.976h22.148v99.96zm-.98-144.06 14.896 9.8c-7.448 13.328-19.012 20.188-33.32 20.188s-25.872-7.056-33.32-20.188l14.896-9.8c4.116 8.624 10.388 13.328 18.424 13.328s14.308-4.508 18.424-13.328zm136.749 44.1v99.96h-24.304v-40.964h-33.516v40.964h-24.304v-99.96h24.304v38.024h33.516v-38.024zm76.898 54.488h-51.352v-21.756h55.272zm86.386 47.432-25.09-42.924h-8.627v40.964h-24.304v-99.96h24.304v38.024h8.817l23.13-38.024h24.7l-29.21 48.216 31.17 51.744zm79.8 0c-27.83 0-47.04-19.404-47.04-51.94s19.21-51.94 47.04-51.94 47.04 19.404 47.04 51.94-19.21 51.94-47.04 51.94zm0-82.908c-12.94 0-22.34 11.564-22.34 30.968s9.4 30.968 22.34 30.968 22.34-11.564 22.34-30.968-9.4-30.968-22.34-30.968zm54.01 59.976h13.32c9.8-17.444 12.55-34.3 12.55-68.012v-10.976h68.6v78.988h15.87l-3.92 45.864h-20.38v-24.892h-61.74v24.892h-20.38zm70.16-58.016h-20.97c0 22.148-1.96 42.924-9.99 58.016h30.96zm-1033.744 274.988h-79.576v-137.2h79.576l-3.92 22.736h-50.568v32.144h44.688v22.736h-44.688v36.848h54.488zm85.39 1.96-25.088-42.924h-8.624v40.964h-24.304v-99.96h24.304v38.024h8.82l23.128-38.024h24.696l-29.204 48.216 31.164 51.744zm88.797-60.76v-6.664c0-9.604-4.9-15.484-16.856-15.484-8.428 0-17.444 1.96-26.656 5.292l-7.252-19.6c11.956-4.508 23.52-6.664 36.26-6.664 30.576 0 38.808 16.072 38.808 36.848v38.024c0 4.9 2.744 7.056 7.056 7.056h2.156v19.012c-2.94 1.176-9.016 1.96-13.916 1.96-8.82 0-14.504-3.332-17.64-9.604h-.784c-7.056 7.056-14.896 9.604-26.264 9.604-19.012 0-30.968-9.408-30.968-29.792 0-19.208 15.288-29.988 37.436-29.988zm-21.168 39.788c8.036 0 15.876-3.724 21.168-9.8v-11.368h-17.836c-9.016 0-14.112 4.508-14.112 10.976 0 6.664 4.9 10.192 10.78 10.192zm62.615-59.976v-20.972h86.632l-3.92 20.972h-27.832v78.988h-24.108v-78.988zm145.265 59.976c8.232 0 18.032-2.94 24.892-6.468l8.428 19.012c-9.604 4.9-21.756 8.428-34.496 8.428-29.4 0-49.588-19.208-49.588-51.94 0-32.928 17.64-51.94 45.864-51.94 26.068 0 42.336 16.268 42.336 44.296 0 2.744-.392 9.604-1.176 15.092h-62.328c2.548 15.288 13.132 23.52 26.068 23.52zm-25.676-42.14h40.964c0-11.368-7.056-19.796-19.796-19.796-10.388 0-18.816 6.86-21.168 19.796zm108.983-30.184h.784c6.468-6.272 15.484-10.584 25.872-10.584 28.224 0 40.964 21.756 40.964 51.94s-12.936 51.94-42.728 51.94c-8.428 0-16.464-1.372-22.932-3.528v40.768l-24.304 3.92v-143.08h18.424zm21.56 72.324c13.132 0 21.364-11.368 21.364-30.968 0-18.228-7.448-30.968-22.148-30.968-6.664 0-13.328 3.724-18.816 9.8v46.844c5.488 3.332 12.348 5.292 19.6 5.292zm132.712 19.012v-59.976h-.588l-40.376 59.976h-22.148v-99.96h24.304v59.976h.588l40.376-59.976h22.148v99.96zm135.77-99.96v99.96h-24.304v-40.964h-33.516v40.964h-24.304v-99.96h24.304v38.024h33.516v-38.024zm46.322 17.444h.588c8.036-8.428 17.64-14.504 30.576-14.504 24.5 0 42.34 16.268 42.34 49.588 0 32.536-20.39 49.392-48.22 49.392-32.34 0-47.04-24.108-47.04-64.092 0-61.348 17.64-74.676 49.98-77.616 14.7-1.372 22.54-3.136 32.73-7.252l7.84 18.816c-11.37 5.684-25.09 8.82-38.22 9.8-20.578 1.568-30.574 10.78-30.574 35.868zm27.634 6.468c-8.426 0-18.422 4.312-25.086 14.308.196 28.616 7.84 42.728 22.736 42.728 13.13 0 23.52-9.212 23.52-28.42s-9.41-28.616-21.17-28.616zm102.94 46.256 20.97-70.168h25.87l-38.42 119.168c-6.27 19.6-19.01 23.912-29.79 23.912-7.05 0-13.91-2.156-18.23-3.92l6.67-19.6c2.74 1.176 7.05 2.548 10.39 2.548 3.13 0 7.64-1.568 9.8-8.82l3.92-13.328h-6.86l-33.52-99.96h26.26l22.15 70.168zm83.93-61.544h.78c6.47-6.272 15.49-10.584 25.88-10.584 28.22 0 40.96 21.756 40.96 51.94s-12.94 51.94-42.73 51.94c-8.43 0-16.46-1.372-22.93-3.528v40.768l-24.3 3.92v-143.08h18.42zm21.56 72.324c13.13 0 21.36-11.368 21.36-30.968 0-18.228-7.44-30.968-22.14-30.968-6.67 0-13.33 3.724-18.82 9.8v46.844c5.49 3.332 12.35 5.292 19.6 5.292zm69.6-80.948h64.29l-3.92 20.972h-36.07v78.988h-24.3zm128.25 41.16v-6.664c0-9.604-4.9-15.484-16.86-15.484-8.43 0-17.44 1.96-26.66 5.292l-7.25-19.6c11.96-4.508 23.52-6.664 36.26-6.664 30.58 0 38.81 16.072 38.81 36.848v38.024c0 4.9 2.74 7.056 7.06 7.056h2.15v19.012c-2.94 1.176-9.01 1.96-13.91 1.96-8.82 0-14.51-3.332-17.64-9.604h-.79c-7.05 7.056-14.89 9.604-26.26 9.604-19.01 0-30.97-9.408-30.97-29.792 0-19.208 15.29-29.988 37.44-29.988zm-21.17 39.788c8.03 0 15.87-3.724 21.17-9.8v-11.368h-17.84c-9.02 0-14.11 4.508-14.11 10.976 0 6.664 4.9 10.192 10.78 10.192zm66.53.392 19.21-33.712-19.21-33.712 18.23-9.8 24.89 43.512-24.89 43.512zm39.79 0 19.21-33.712-19.21-33.712 18.23-9.8 24.89 43.512-24.89 43.512z" fill="#000"/><g clip-path="url(#a)" fill="#000"><path d="m682.743 1546.76h-6.461l-1.196-15.72h4.489c4.547-6.05 6.102-17.71 6.102-31.47v-3.48h25.663v34.95h5.682l-1.199 15.73h-6.459v-8.8h-26.621zm20.936-15.72v-28.01h-10.53v1.32c0 10.41-2.094 20.76-5.204 26.69z"/><path d="m720 1522.71c0-9.93 5.861-15.85 14.358-15.85s14.357 5.92 14.357 15.85-5.861 15.85-14.357 15.85-14.358-5.92-14.358-15.85zm7.538 0c0 5.92 2.868 9.45 6.82 9.45s6.819-3.53 6.819-9.45-2.868-9.45-6.819-9.45c-3.95 0-6.82 3.53-6.82 9.45z"/><path d="m780.958 1537.97h-7.417v-12.5h-10.225v12.5h-7.418v-30.51h7.418v11.61h10.225v-11.61h7.417z"/><path d="m804.94 1517.98c0-2.93-1.496-4.72-5.144-4.72-2.785.07-5.538.62-8.137 1.62l-2.213-5.99c3.531-1.36 7.284-2.04 11.067-2.03 9.333 0 11.847 4.91 11.847 11.25v11.6c-.037.29-.007.59.089.87.095.28.253.53.461.74.208.2.46.36.738.46.279.09.575.12.867.08h.658v5.81c-1.376.41-2.809.62-4.247.6-2.693 0-4.427-1.02-5.385-2.94h-.237c-2.154 2.16-4.547 2.94-8.016 2.94-5.802 0-9.452-2.87-9.452-9.1 0-5.86 4.666-9.15 11.426-9.15h5.683zm0 11.19v-3.47h-5.443c-2.751 0-4.307 1.37-4.307 3.35-.015.43.062.85.225 1.25s.407.75.718 1.05c.311.29.681.52 1.085.66.405.14.834.19 1.261.16 1.228-.02 2.438-.29 3.552-.81 1.114-.51 2.105-1.26 2.909-2.19z"/><path d="m817.562 1507.46h26.437l-1.196 6.4h-8.489v24.11h-7.358v-24.11h-9.392z"/><path d="m868.349 1519.66h-.18l-12.324 18.31h-6.759v-30.51h7.417v18.31h.181l12.323-18.31h6.759v30.51h-7.417z"/><path d="m891.792 1510.09c2.111-2.07 4.945-3.23 7.898-3.23 8.613 0 12.501 6.64 12.501 15.85s-3.947 15.85-13.04 15.85c-2.375.01-4.737-.35-6.999-1.07v12.44l-7.418 1.2v-43.67h5.618l1.197 2.63zm12.863 12.63c0-5.57-2.273-9.45-6.76-9.45-1.112.07-2.198.37-3.187.89-.988.51-1.859 1.23-2.556 2.1v14.29c1.811 1.08 3.88 1.64 5.985 1.62 4.004 0 6.518-3.47 6.518-9.45z"/><path d="m935.996 1507.46h7.897l-11.722 36.37c-1.914 5.98-5.802 7.3-9.093 7.3-1.912-.05-3.799-.46-5.563-1.2l2.034-5.99c1.002.45 2.075.71 3.17.78.958 0 2.333-.48 2.993-2.69l1.196-4.07h-2.093l-10.225-30.51h8.016l6.76 21.42h.239z"/><path d="m967.64 1519.66h-.178l-12.324 18.31h-6.759v-30.51h7.417v18.31h.18l12.323-18.31h6.758v30.51h-7.417zm4.248-22.67c-.944 1.88-2.399 3.46-4.197 4.55-1.799 1.09-3.869 1.65-5.972 1.61-2.1.02-4.165-.54-5.962-1.63s-3.254-2.66-4.208-4.53l4.546-2.99c1.256 2.63 3.17 4.07 5.624 4.07 2.455 0 4.365-1.37 5.622-4.07z"/><path d="m985.165 1538.33c-.966-.31-1.788-.95-2.315-1.82-.528-.87-.727-1.89-.561-2.9.167-1 .687-1.9 1.467-2.55.779-.65 1.766-1 2.78-.98 2.993 0 4.188 2.39 4.188 4.9.019 2.37-.613 4.69-1.826 6.71-1.214 2.03-2.962 3.68-5.054 4.78l-1.91-2.33c.922-.68 1.688-1.55 2.246-2.55.557-1 .893-2.11.985-3.26z"/><path d="m698.833 1582.44h-.18l-12.323 18.31h-6.76v-30.52h7.418v18.31h.179l12.324-18.31h6.759v30.52h-7.417z"/><path d="m740.283 1600.75h-7.418v-12.51h-10.225v12.51h-7.417v-30.52h7.417v11.61h10.225v-11.61h7.418z"/><path d="m773.541 1592.19c0 5.26-3.469 8.55-10.409 8.55h-13.878v-30.51h12.682c5.861 0 10.35 2.04 10.35 7.54 0 3.29-1.794 5.62-5.205 6.76v.18c3.948.96 6.46 3.47 6.46 7.48zm-16.867-15.55v5.38h3.829c2.691 0 4.246-.78 4.246-2.69 0-1.98-1.854-2.69-4.246-2.69zm0 11.3v6.4h4.846c2.812 0 4.489-1.01 4.489-3.29 0-2.27-1.675-3.12-4.489-3.12z"/><path d="m802.012 1592.96 2.572 5.81c-3.261 1.66-6.866 2.54-10.527 2.57-8.979 0-15.135-5.86-15.135-15.86 0-10.04 5.383-15.85 13.998-15.85 7.956 0 12.921 4.97 12.921 13.52-.031 1.54-.151 3.08-.359 4.61h-19.023c.778 4.66 4.008 7.18 7.957 7.18 2.646-.1 5.238-.77 7.596-1.98zm-2.931-10.88c.058-.81-.058-1.62-.341-2.38s-.726-1.45-1.299-2.03c-.573-.57-1.263-1.01-2.022-1.3-.76-.28-1.571-.39-2.38-.34-3.17 0-5.742 2.1-6.46 6.05z"/><path d="m835.09 1599.6c-2.74 1.17-5.693 1.76-8.673 1.74-9.87 0-15.194-7.06-15.194-15.86 0-8.79 5.025-15.85 14.895-15.85 2.971.01 5.914.58 8.674 1.68l-2.393 5.86c-1.881-.76-3.892-1.15-5.922-1.14-4.427 0-7.716 3.83-7.716 9.45 0 5.63 3.23 9.46 7.656 9.46 2.15-.01 4.279-.42 6.282-1.2z"/><path d="m837.48 1570.23h26.437l-1.196 6.41h-8.494v24.11h-7.358v-24.11h-9.389z"/><path d="m888.265 1582.44h-.178l-12.324 18.31h-6.759v-30.52h7.417v18.31h.18l12.323-18.31h6.758v30.52h-7.417z"/><path d="m911.71 1572.86c2.11-2.06 4.945-3.22 7.898-3.23 8.613 0 12.501 6.64 12.501 15.85 0 9.22-3.948 15.86-13.041 15.86-2.375.01-4.737-.35-6.998-1.08v12.44l-7.418 1.2v-43.67h5.622l1.198 2.63zm12.862 12.62c0-5.56-2.273-9.45-6.76-9.45-1.111.08-2.195.38-3.183.9-.988.51-1.857 1.23-2.553 2.1v14.29c1.811 1.08 3.88 1.64 5.985 1.62 3.998 0 6.511-3.47 6.511-9.46z"/><path d="m955.918 1570.23h7.896l-11.722 36.37c-1.914 5.99-5.802 7.3-9.093 7.3-1.912-.05-3.799-.46-5.562-1.2l2.033-5.98c1.002.44 2.076.71 3.171.77.958 0 2.332-.47 2.993-2.69l1.197-4.07h-2.094l-10.225-30.5h8.016l6.75 21.41h.238z"/><path d="m987.559 1582.43h-.179l-12.324 18.31h-6.759v-30.51h7.417v18.3h.181l12.323-18.3h6.759v30.51h-7.418zm4.248-22.67c-.971 1.86-2.432 3.41-4.224 4.5-1.793 1.09-3.849 1.66-5.946 1.66-2.096 0-4.152-.57-5.945-1.66s-3.254-2.64-4.224-4.5l4.547-2.99c1.255 2.63 3.17 4.06 5.622 4.06 2.453 0 4.365-1.37 5.623-4.06z"/><path d="m590.644 1676.9-.249-5.56c39.097-1.75 65.996-17.29 82.234-47.51l4.904 2.63c-17.245 32.1-45.667 48.59-86.889 50.44z"/><path d="m509.701 1752.25c-5.129 5.17-11.231 9.27-17.954 12.07-6.722 2.8-13.933 4.24-21.215 4.24-7.283 0-14.493-1.44-21.216-4.24s-12.824-6.9-17.954-12.07l13.159-13.23c3.406 3.43 7.458 6.15 11.923 8.01 4.464 1.86 9.252 2.82 14.088 2.82 4.835 0 9.623-.96 14.088-2.82 4.464-1.86 8.516-4.58 11.922-8.01zm-8.149-51.86c2.469-.01 4.886.71 6.945 2.07 2.058 1.36 3.667 3.3 4.62 5.58s1.209 4.79.735 7.21-1.657 4.65-3.398 6.4c-1.742 1.75-3.964 2.95-6.384 3.43-2.421.49-4.931.25-7.214-.7-2.282-.94-4.233-2.54-5.606-4.59s-2.106-4.46-2.106-6.93c-.008-3.3 1.295-6.47 3.622-8.81s5.487-3.65 8.786-3.66zm-62.042 0c2.469-.02 4.887.71 6.946 2.07s3.667 3.3 4.62 5.58c.954 2.28 1.21 4.79.736 7.21s-1.656 4.65-3.398 6.4c-1.741 1.75-3.963 2.95-6.384 3.43-2.42.49-4.931.25-7.213-.7-2.283-.94-4.234-2.54-5.607-4.59s-2.106-4.46-2.106-6.93c-.007-3.3 1.295-6.47 3.622-8.81 2.326-2.33 5.486-3.65 8.784-3.66zm51.857-78.89c18.069 4.23 34.475 13.73 47.139 27.29 12.663 13.57 21.014 30.58 23.992 48.9 6.903 3.27 12.513 8.76 15.937 15.59s4.464 14.61 2.956 22.09c-1.508 7.49-5.479 14.26-11.279 19.23-5.801 4.97-13.097 7.86-20.729 8.21-8.342 13.39-19.959 24.44-33.755 32.1s-29.317 11.68-45.097 11.68-31.301-4.02-45.097-11.68-25.413-18.71-33.755-32.1c-7.631-.35-14.927-3.24-20.727-8.21s-9.77-11.74-11.278-19.23c-1.508-7.48-.468-15.26 2.955-22.09 3.422-6.83 9.031-12.32 15.934-15.59 3.651-22.44 15.335-42.79 32.876-57.26l11.752 14.4c-18.941 15.64-25.266 33.58-27.571 57.15-9.602.29-18.009 4.95-18.009 16.65.873 15.23 15.005 17.72 24.206 14.32 14.937 27.55 36.364 44.93 68.71 44.93 32.455 0 53.871-17.56 68.711-44.93 10.27 3.72 24.207 1.29 24.207-14.32 0-11.9-8.231-17.27-18.011-16.65-2.296-35.44-21.723-63.78-57.98-72.2-11.417-2.65-25.641-3.14-32.588 8.4-7.739 12.86-.374 26.91 15.404 26.47 9.085-.25 10.55-12.99.724-12.8l-.364-18.64c34.269-.69 33.779 49.15.15 50.08-30.801.86-47.057-29.47-31.836-54.76 11.322-18.4 32.822-21.55 52.423-17.03z"/></g><g fill="#fff"><path d="m1414.31 821.14c-37.82 356.38-84.57 401.1-393.1 446.87-9.72 1.44-9.58 17.21.11 18.78 311.6 50.51 363.85 211.96 394.73 507.93 1.04 10.01 16.05 10.02 17.06.01 29.67-294.22 64.96-449.56 389.22-506.2 9.75-1.71 9.53-17.84-.31-19.02-325.19-38.92-363.03-93.19-390.18-448.139-.78-10.179-16.45-10.384-17.53-.231z"/><path d="m1632.72 150.489c-13.11 123.171-29.29 138.631-136.21 154.444-3.36.497-3.32 5.957.04 6.499 107.98 17.459 126.07 73.251 136.77 175.527.36 3.463 5.55 3.467 5.9.003 10.29-101.671 22.5-155.352 134.86-174.929 3.38-.589 3.3-6.173-.1-6.579-112.69-13.45-125.79-32.212-135.2-154.884-.27-3.521-5.69-3.592-6.06-.081z"/><path d="m966.872 640.689c-16.272 153.301-36.368 172.519-169.14 192.2-4.17.618-4.111 7.39.051 8.063 134.089 21.712 156.553 91.142 169.834 218.438.449 4.3 6.893 4.3 7.327 0 12.763-126.54 27.926-193.342 167.466-217.692 4.19-.731 4.09-7.657-.13-8.162-139.94-16.739-156.201-40.064-167.882-192.748-.334-4.37-7.063-4.458-7.526-.099z"/></g><g clip-path="url(#b)"><path d="m197.643 1613.71c53.375 0 96.644 43.27 96.644 96.64 0 53.38-43.269 96.65-96.644 96.65-53.374 0-96.643-43.27-96.643-96.65 0-53.37 43.269-96.64 96.643-96.64z" fill="#000"/><path d="m206.084 1662.42-93.615 93.61c-6.825-12.67-10.706-26.72-11.356-41.1l78.749-78.75z" fill="#00b4ff"/><path clip-rule="evenodd" d="m279.941 1709.94c-35.585 0-64.431 28.85-64.429 64.43 0 10.22 2.429 20.28 7.087 29.38 8.842-2.36 17.303-5.97 25.127-10.71-3.282-5.67-5.015-12.09-5.024-18.63-.01-6.55 1.705-12.98 4.971-18.65s7.968-10.38 13.632-13.65c5.665-3.27 12.093-5 18.636-5 3.437-.01 6.859.47 10.163 1.42 2.682-8.75 4.087-17.85 4.172-27-4.704-1.06-9.513-1.6-14.335-1.59z" fill="#00b400" fill-rule="evenodd"/><path d="m165.287 1689.82h-26.713v-6.5h3.253v-16.77h-3.253v-6.5h26.713v9.92h-6.678v-3.42h-8.218v4.96h7.706v6.5h-7.706v5.31h8.218v-3.42h6.678zm17.196 0h-14.726v-6.5h3.596v-16.77h-3.596v-6.5h15.069v6.5h-2.91v5.13h3.083c3.938 0 6.335-1.88 6.335-5.13h-2.568v-6.5h14.21v6.5h-3.596c-.092 2.04-.706 4.03-1.786 5.77-1.079 1.73-2.587 3.17-4.378 4.15.856 4.62 3.498 6.85 9.32 6.51l6.507-16.43h-2.228v-6.5h16.78l8.905 23.27h3.082v6.5h-15.068v-6.5h2.397l-.686-2.23h-9.933l-.686 2.23h2.74v6.5h-5.913c-10.275 0-11.62 0-15.389-1.54-3.595-1.54-6.335-5.31-7.706-10.1h-3.424v5.14h2.569zm30.041-15.23h5.309l-2.739-7.19zm-29.963 50.27h-14.804v-6.59h3.502v-16.81h-3.502v-6.32h18.208c7.962 0 11.978 4.34 11.978 9.87-.031 1.81-.547 3.59-1.493 5.14-.947 1.55-2.29 2.82-3.892 3.68.537 3.23 3.342 4.44 6.816 4.44h5.561v-16.81h-4.712v-6.32h17.899v6.32h-4.712v16.81h4.712v6.59h-19.119c-8.667 0-12.773-3.36-14.789-9.68h-4.211v3.09h2.556v6.59zm-2.559-16.14h4.01c2.686 0 4.897-.94 4.897-3.63 0-2.84-2.211-3.63-4.897-3.63h-4.01zm-14.715 6.27h-6.678v3.42h-8.218v-5.3h7.706v-6.5h-7.706v-4.97h8.218v3.43h6.678v-9.93h-26.713v6.5h3.253v16.77h-3.253v6.5h26.713zm63.356-54.94v9.75h6.335v-3.25h3.595v16.77h-3.081v6.5h15.069v-6.5h-3.253v-16.77h3.596v3.25h6.506v-9.75zm13.148 41.41h3.624v10.75l-11.988-17.07h-12.796v6.32h3.509v16.81h-3.509v6.59h15.476v-6.59h-3.487v-10.34l11.718 16.93h9.556v-23.4h3.242v-6.32h-15.343v6.32zm-75.765 49.49c0 4.43-3.242 8.87-9.543 8.87h-17.909v-6.45h3.096v-16.81h-3.096v-6.59h15.806c6.098 0 9.09 3.9 9.09 8.07-.018 2.06-.84 4.04-2.29 5.51 1.464.6 2.712 1.62 3.577 2.94.866 1.32 1.309 2.88 1.269 4.46zm-15.61-9.28h2.29c.357.03.717 0 1.058-.12.341-.11.655-.29.921-.53s.479-.54.625-.86c.145-.33.221-.69.221-1.05 0-.35-.076-.71-.221-1.04-.146-.33-.359-.62-.625-.86s-.58-.42-.921-.53c-.341-.12-.701-.16-1.058-.12h-2.29zm7.132 8.87c-.014-.8-.346-1.56-.922-2.11-.576-.56-1.349-.86-2.148-.85h-.025-4.037v5.79h3.903c.803.05 1.593-.22 2.199-.75.605-.53.976-1.27 1.031-2.08zm85.086-8h14.364v11.12c-2.021 3.77-6.594 6.7-13.457 6.7-3.182.15-6.331-.7-9.013-2.42-1.891 1.18-4.022 1.91-6.236 2.15s-4.453-.03-6.55-.78c-2.096-.75-3.996-1.97-5.557-3.55-1.562-1.59-2.744-3.51-3.459-5.62h-3.853v3.23h2.643v6.45h-14.804v-6.45h3.683v-16.81h-5.3v11.16c0 8.34-5.921 12.91-13.592 12.91-6.728 0-13.591-4.03-13.591-12.91v-11.16h-2.825v-6.59h15.073v6.59h-3.233v11.56c-.028.66.073 1.32.299 1.94s.572 1.19 1.018 1.68c.446.48.984.88 1.582 1.16s1.246.43 1.905.46c.059.01.118.01.177.01 1.259-.01 2.465-.51 3.353-1.4s1.385-2.1 1.383-3.36c-.001-.16-.009-.32-.026-.48v-11.57h-3.904v-6.59h31.759c7.962 0 11.978 4.34 11.978 9.87-.032 1.83-.552 3.61-1.508 5.17-.956 1.55-2.312 2.83-3.926 3.68 1.526 4.47 6.165 5.35 8.393 3.2-1.029-2.18-1.536-4.58-1.481-6.99 0-7.98 4.962-15.47 15.205-15.47 4.473-.24 8.875 1.21 12.327 4.06v6.98h-7.536l-.034-3.11c-1.277-.75-2.741-1.11-4.22-1.05-4.459 0-7.134 3.17-7.134 8.46 0 4.84 2.829 8.44 7.134 8.57 2.115.12 4.192-.59 5.786-1.99v-2.49h-6.826v-6.32zm-24.956-2.35c0-2.84-2.211-3.63-4.896-3.63h-3.911v7.26h3.91c2.685 0 4.897-.95 4.897-3.63z" fill="#fff"/></g></svg>