<svg data-name="Layer 1" xmlns="http://www.w3.org/2000/svg" viewBox="0 0 1920 890"><path d="M0-190h1920V890H0z"/><path d="M1803.505 111.318h.657l7.884 85.082h17.74l-10.677-114.975h-21.845l-25.459 75.555h-.493l-25.458-75.555h-21.846L1713.332 196.4h17.74l7.883-85.082h.657l23.323 69.971h17.247zm-184.123-14.125c10.513 0 18.397 6.898 18.397 18.396 0 11.497-7.884 18.068-18.397 18.068h-16.424V97.193zm.822-15.768h-34.986V196.4h17.74v-46.976h10.183l30.058 48.618 19.217-1.642-30.058-48.618c13.961-3.778 23.817-14.454 23.817-32.193 0-22.502-16.097-34.164-35.97-34.164M1489.79 95.55a50.508 50.508 0 0124.145 5.913l7.063-14.289c-11.005-5.749-20.203-7.392-31.208-7.392-34.164 0-48.289 25.952-48.289 59.13 0 33.179 14.125 59.13 48.29 59.13 13.632 0 22.666-2.792 33.835-10.512v-53.052h-36.792v15.439h20.202v29.237a40.334 40.334 0 01-16.589 3.12c-21.681 0-30.55-19.053-30.55-43.362s8.869-43.362 29.893-43.362m-133.698 0a50.36 50.36 0 0123.16 5.585l6.898-13.961c-11.005-5.749-19.546-7.392-30.058-7.392-34.164 0-47.632 25.952-47.632 59.13 0 33.179 13.468 59.13 47.632 59.13 12.976 0 21.681-2.956 32.03-8.869l-6.9-13.961a49.71 49.71 0 01-25.13 7.062c-21.024 0-29.236-19.053-29.236-43.362 0-24.31 8.212-43.362 29.236-43.362m-133.698 31.701v-.493l23.488-31.208V81.425h-60.116l-3.285 15.768h43.855v.657l-24.638 33.014v8.87h8.541c12.976 0 22.831 6.077 22.831 21.352 0 14.618-9.526 21.188-22.174 21.188-10.183 0-16.917-3.12-23.816-7.719l-8.377 13.797c9.363 5.913 18.889 9.69 33.343 9.69 20.86 0 38.927-11.826 38.927-37.12 0-22.174-13.14-31.043-28.579-33.671m-139.119 55.023c-8.869 0-18.067-2.956-26.279-8.048l-8.049 13.961a62.879 62.879 0 0034.328 9.855c23.653 0 42.049-10.676 42.049-34.164 0-15.932-9.198-24.801-23.653-27.922v-.493c10.512-2.792 19.546-11.826 19.546-26.937 0-20.038-17.082-28.744-37.613-28.744a67.153 67.153 0 00-32.029 7.392l7.063 13.961a52.804 52.804 0 0124.145-5.585c12.647 0 20.202 5.913 20.202 16.425 0 9.691-7.555 17.411-19.381 17.411h-14.125v15.111h14.289c14.947 0 23.324 6.241 23.324 17.903 0 12.319-9.691 19.874-23.817 19.874m-81.302-.164a22.796 22.796 0 01-8.54 1.643c-4.6 0-7.064-2.793-7.064-9.034V73.212l-17.082 3.285v98.222c0 16.096 7.392 23.323 21.353 23.323a37.454 37.454 0 0013.961-2.463zm-92.635 14.29v-15.768H890.45V97.193h16.425l3.285-15.768h-56.337v15.768h18.888v83.439h-18.888V196.4zM732.278 81.425l-3.285 15.768h27.594v83.439H726.53V196.4h73.913v-15.768h-26.609V81.425zM143.099 183.11h4.17l.6-2.01h-4.77v-4.74l-2.52.6v4.14h-2.76v2.01h2.76v8.76c0 3.42 1.68 4.83 4.44 4.83a9.972 9.972 0 003.18-.54l-.36-1.92a7.997 7.997 0 01-2.52.45c-1.53 0-2.22-.84-2.22-2.82zm-14.789 11.58a6.269 6.269 0 01-3.84-1.38v-8.22a5.178 5.178 0 013.84-2.28c2.76 0 4.23 2.43 4.23 5.94 0 3.78-1.47 5.94-4.23 5.94m.36 2.01c4.56 0 6.45-3.39 6.45-7.95 0-4.71-2.1-7.95-6.03-7.95a6.052 6.052 0 00-4.8 2.22h-.12l-.6-1.92h-1.62V203l2.52-.6v-6.78a8.085 8.085 0 004.2 1.08m-26.37-13.86a11.223 11.223 0 00-2.4.24v-5.4h7.77l.6-2.28H97.35v10.38a14.444 14.444 0 014.29-.78 4.37 4.37 0 014.74 4.71c0 3.15-1.89 4.71-4.41 4.71a7.666 7.666 0 01-4.62-1.5l-1.2 2.01a10.19 10.19 0 006.03 1.77c3.93 0 6.87-2.37 6.87-6.99 0-4.5-2.82-6.87-6.75-6.87m-20.07 2.13c1.17-4.05 4.62-6.75 8.22-8.04l-.87-1.83a14.477 14.477 0 00-10.68 13.71c0 4.71 2.43 7.89 6.66 7.89 3.9 0 6.69-2.46 6.69-6.69s-2.49-6.66-5.88-6.66a5.526 5.526 0 00-4.05 1.68zm-.75 3.84a4.611 4.611 0 014.08-3.18c2.4 0 4.02 1.5 4.02 4.38s-1.62 4.41-4.02 4.41c-2.7 0-4.08-2.25-4.08-5.61M63.15 175.4l-.6 2.28h5.19v16.44H62.1v2.28h13.2v-2.28h-5.01V175.4zm353.736 7.71h4.17l.6-2.01h-4.77v-4.74l-2.52.6v4.14h-2.76v2.01h2.76v8.76c0 3.42 1.68 4.83 4.44 4.83a9.972 9.972 0 003.18-.54l-.36-1.92a7.997 7.997 0 01-2.52.45c-1.53 0-2.22-.84-2.22-2.82zm-14.07-.3c2.49 0 3.75 1.74 3.75 4.14a5.311 5.311 0 01-.03.69h-7.89c.15-2.85 1.65-4.83 4.17-4.83m5.82 6.66a12.893 12.893 0 00.27-2.52c0-3.75-2.04-6.15-6.15-6.15-4.32 0-6.75 3.21-6.75 7.95 0 5.01 2.91 7.95 7.17 7.95a10.37 10.37 0 005.1-1.29l-.87-1.8a8.092 8.092 0 01-3.93 1.08c-3.03 0-4.59-1.89-4.83-5.22zm-16.29-7.62a10.893 10.893 0 00-4.68-1.05c-3.12 0-5.13 1.47-5.13 4.05 0 2.97 2.25 3.87 4.05 4.47 1.83.6 3.69 1.29 3.69 3.03 0 1.44-1.11 2.34-3.15 2.34a9.757 9.757 0 01-4.11-.96l-.81 1.92a12.047 12.047 0 005.01 1.05c3.45 0 5.49-1.68 5.49-4.47 0-2.82-2.49-3.93-4.68-4.62-1.77-.54-3.06-1.2-3.06-2.76 0-1.32 1.14-2.04 2.91-2.04a9.712 9.712 0 013.69.81zm-13.89 14.55v-2.28h-3.6v-16.44h3.15l.6-2.28h-9.99v2.28h3.6v16.44h-3.6v2.28z" fill="#ffdc00"/><path d="M143.099 392.834h4.17l.6-2.01h-4.77v-4.74l-2.52.6v4.14h-2.76v2.01h2.76v8.76c0 3.42 1.68 4.83 4.44 4.83a9.973 9.973 0 003.18-.54l-.36-1.92a7.997 7.997 0 01-2.52.45c-1.53 0-2.22-.84-2.22-2.82zm-14.789 11.58a6.269 6.269 0 01-3.84-1.38v-8.22a5.178 5.178 0 013.84-2.28c2.76 0 4.23 2.43 4.23 5.94 0 3.78-1.47 5.94-4.23 5.94m.36 2.01c4.56 0 6.45-3.39 6.45-7.95 0-4.71-2.1-7.95-6.03-7.95a6.052 6.052 0 00-4.8 2.22h-.12l-.6-1.92h-1.62v21.9l2.52-.6v-6.78a8.085 8.085 0 004.2 1.08m-26.37-13.86a11.225 11.225 0 00-2.4.24v-5.4h7.77l.6-2.28H97.35v10.38a14.444 14.444 0 014.29-.78 4.37 4.37 0 014.74 4.71c0 3.15-1.89 4.71-4.41 4.71a7.666 7.666 0 01-4.62-1.5l-1.2 2.01a10.19 10.19 0 006.03 1.77c3.93 0 6.87-2.37 6.87-6.99 0-4.5-2.82-6.87-6.75-6.87m-20.07 2.13c1.17-4.05 4.62-6.75 8.22-8.04l-.87-1.83a14.477 14.477 0 00-10.68 13.71c0 4.71 2.43 7.89 6.66 7.89 3.9 0 6.69-2.46 6.69-6.69s-2.49-6.66-5.88-6.66a5.526 5.526 0 00-4.05 1.68zm-.75 3.84a4.611 4.611 0 014.08-3.18c2.4 0 4.02 1.5 4.02 4.38s-1.62 4.41-4.02 4.41c-2.7 0-4.08-2.25-4.08-5.61m-18.33-13.41l-.6 2.28h5.19v16.44H62.1v2.28h13.2v-2.28h-5.01v-18.72zm364.686-1.5l-2.52.6v17.94c0 2.94 1.11 4.26 3.66 4.26a6.55 6.55 0 002.49-.45l-.48-1.89a3.811 3.811 0 01-1.53.33c-1.29 0-1.62-.69-1.62-2.25zm-10.5 15.54v3.03a5.044 5.044 0 01-4.14 2.16 2.353 2.353 0 01-2.61-2.55c0-1.74 1.23-2.64 3.09-2.64zm0-1.92h-3.54c-3.39 0-5.64 1.62-5.64 4.53 0 3.12 1.89 4.5 4.74 4.5a5.713 5.713 0 004.62-2.07h.12a2.065 2.065 0 002.13 2.07 3.93 3.93 0 001.5-.3v-1.71h-.33a.966.966 0 01-1.08-1.08v-7.08c0-3.18-.96-5.58-5.64-5.58a14.193 14.193 0 00-5.25.99l.69 1.86a11.399 11.399 0 014.2-.84c2.73 0 3.48 1.38 3.48 3.57zm-16.26-10.86a1.665 1.665 0 101.65-1.68 1.665 1.665 0 00-1.65 1.68m.42 6.45v13.29h2.52v-15.3h-5.01l-.6 2.01zm-5.04-2.01a6.805 6.805 0 00-1.95-.3 4.198 4.198 0 00-4.2 2.97h-.12l-.6-2.67h-1.62v15.3h2.52v-9.24c.3-2.16 1.35-4.05 3.36-4.05a4.398 4.398 0 011.83.36zm-20.64-3.39h.15l3.36 11.31h-6.9zm5.73 18.69h2.82l-6.87-21h-3.21l-6.87 21h2.82l1.53-5.19h8.22zM143.099 607.37h4.17l.6-2.01h-4.77v-4.74l-2.52.6v4.14h-2.76v2.01h2.76v8.76c0 3.42 1.68 4.83 4.44 4.83a9.972 9.972 0 003.18-.54l-.36-1.92a7.997 7.997 0 01-2.52.45c-1.53 0-2.22-.84-2.22-2.82zm-14.789 11.58a6.269 6.269 0 01-3.84-1.38v-8.22a5.178 5.178 0 013.84-2.28c2.76 0 4.23 2.43 4.23 5.94 0 3.78-1.47 5.94-4.23 5.94m.36 2.01c4.56 0 6.45-3.39 6.45-7.95 0-4.71-2.1-7.95-6.03-7.95a6.052 6.052 0 00-4.8 2.22h-.12l-.6-1.92h-1.62v21.9l2.52-.6v-6.78a8.085 8.085 0 004.2 1.08M102.3 607.1a11.225 11.225 0 00-2.4.24v-5.4h7.77l.6-2.28H97.35v10.38a14.444 14.444 0 014.29-.78 4.37 4.37 0 014.74 4.71c0 3.15-1.89 4.71-4.41 4.71a7.666 7.666 0 01-4.62-1.5l-1.2 2.01a10.19 10.19 0 006.03 1.77c3.93 0 6.87-2.37 6.87-6.99 0-4.5-2.82-6.87-6.75-6.87m-20.07 2.13c1.17-4.05 4.62-6.75 8.22-8.04l-.87-1.83a14.477 14.477 0 00-10.68 13.71c0 4.71 2.43 7.89 6.66 7.89 3.9 0 6.69-2.46 6.69-6.69s-2.49-6.66-5.88-6.66a5.526 5.526 0 00-4.05 1.68zm-.75 3.84a4.611 4.611 0 014.08-3.18c2.4 0 4.02 1.5 4.02 4.38s-1.62 4.41-4.02 4.41c-2.7 0-4.08-2.25-4.08-5.61m-18.33-13.41l-.6 2.28h5.19v16.44H62.1v2.28h13.2v-2.28h-5.01v-18.72zm404.046 14.04v3.03a5.044 5.044 0 01-4.14 2.16 2.353 2.353 0 01-2.61-2.55c0-1.74 1.23-2.64 3.09-2.64zm0-1.92h-3.54c-3.39 0-5.64 1.62-5.64 4.53 0 3.12 1.89 4.5 4.74 4.5a5.713 5.713 0 004.62-2.07h.12a2.065 2.065 0 002.13 2.07 3.93 3.93 0 001.5-.3v-1.71h-.33a.966.966 0 01-1.08-1.08v-7.08c0-3.18-.96-5.58-5.64-5.58a14.193 14.193 0 00-5.25.99l.69 1.86a11.399 11.399 0 014.2-.84c2.73 0 3.48 1.38 3.48 3.57zm-31.05-4.5l-.6-1.92h-1.62v15.3h2.52V609.5a4.963 4.963 0 013.57-2.43c1.8 0 2.64 1.32 2.64 4.23v9.36h2.52v-11.55a4.848 4.848 0 013.3-2.04c2.01 0 2.97 1.35 2.97 4.02v9.57h2.52v-9.57c0-4.02-1.56-6.03-4.83-6.03a5.788 5.788 0 00-4.53 2.22 3.957 3.957 0 00-3.9-2.22 6.199 6.199 0 00-4.44 2.22zm-13.62-.21c2.73 0 4.32 2.19 4.32 5.94s-1.59 5.94-4.32 5.94-4.32-2.19-4.32-5.94 1.59-5.94 4.32-5.94m0 13.89c4.26 0 6.9-2.97 6.9-7.95s-2.64-7.95-6.9-7.95-6.9 2.97-6.9 7.95 2.64 7.95 6.9 7.95m-20.58-11.46a5.654 5.654 0 013.99-2.43c2.04 0 2.97 1.35 2.97 4.02v9.57h2.52v-9.57c0-4.02-1.5-6.03-4.83-6.03a6.015 6.015 0 00-4.53 2.22h-.12v-9.12l-2.52.6v21.9h2.52zm-10.35 4.2v3.03a5.044 5.044 0 01-4.14 2.16 2.353 2.353 0 01-2.61-2.55c0-1.74 1.23-2.64 3.09-2.64zm0-1.92h-3.54c-3.39 0-5.64 1.62-5.64 4.53 0 3.12 1.89 4.5 4.74 4.5a5.713 5.713 0 004.62-2.07h.12a2.065 2.065 0 002.13 2.07 3.93 3.93 0 001.5-.3v-1.71h-.33a.966.966 0 01-1.08-1.08v-7.08c0-3.18-.96-5.58-5.64-5.58a14.193 14.193 0 00-5.25.99l.69 1.86a11.399 11.399 0 014.2-.84c2.73 0 3.48 1.38 3.48 3.57zm-9.33-9.84l.6-2.28h-15.45v2.28h6.39v18.72h2.64v-18.72zM143.099 816.71h4.17l.6-2.01h-4.77v-4.74l-2.52.6v4.14h-2.76v2.01h2.76v8.76c0 3.42 1.68 4.83 4.44 4.83a9.973 9.973 0 003.18-.54l-.36-1.92a7.997 7.997 0 01-2.52.45c-1.53 0-2.22-.84-2.22-2.82zm-14.789 11.58a6.269 6.269 0 01-3.84-1.38v-8.22a5.178 5.178 0 013.84-2.28c2.76 0 4.23 2.43 4.23 5.94 0 3.78-1.47 5.94-4.23 5.94m.36 2.01c4.56 0 6.45-3.39 6.45-7.95 0-4.71-2.1-7.95-6.03-7.95a6.052 6.052 0 00-4.8 2.22h-.12l-.6-1.92h-1.62v21.9l2.52-.6v-6.78a8.085 8.085 0 004.2 1.08m-26.37-13.86a11.226 11.226 0 00-2.4.24v-5.4h7.77l.6-2.28H97.35v10.38a14.444 14.444 0 014.29-.78 4.37 4.37 0 014.74 4.71c0 3.15-1.89 4.71-4.41 4.71a7.666 7.666 0 01-4.62-1.5l-1.2 2.01a10.19 10.19 0 006.03 1.77c3.93 0 6.87-2.37 6.87-6.99 0-4.5-2.82-6.87-6.75-6.87m-20.07 2.13c1.17-4.05 4.62-6.75 8.22-8.04l-.87-1.83a14.477 14.477 0 00-10.68 13.71c0 4.71 2.43 7.89 6.66 7.89 3.9 0 6.69-2.46 6.69-6.69s-2.49-6.66-5.88-6.66a5.526 5.526 0 00-4.05 1.68zm-.75 3.84a4.611 4.611 0 014.08-3.18c2.4 0 4.02 1.5 4.02 4.38s-1.62 4.41-4.02 4.41c-2.7 0-4.08-2.25-4.08-5.61M63.15 809l-.6 2.28h5.19v16.44H62.1V830h13.2v-2.28h-5.01V809zm388.746 14.04v3.03a5.044 5.044 0 01-4.14 2.16 2.353 2.353 0 01-2.61-2.55c0-1.74 1.23-2.64 3.09-2.64zm0-1.92h-3.54c-3.39 0-5.64 1.62-5.64 4.53 0 3.12 1.89 4.5 4.74 4.5a5.713 5.713 0 004.62-2.07h.12a2.065 2.065 0 002.13 2.07 3.93 3.93 0 001.5-.3v-1.71h-.33a.966.966 0 01-1.08-1.08v-7.08c0-3.18-.96-5.58-5.64-5.58a14.193 14.193 0 00-5.25.99l.69 1.86a11.398 11.398 0 014.2-.84c2.73 0 3.48 1.38 3.48 3.57zm-11.43-6.42a6.805 6.805 0 00-1.95-.3 4.198 4.198 0 00-4.2 2.97h-.12l-.6-2.67h-1.62V830h2.52v-9.24c.3-2.16 1.35-4.05 3.36-4.05a4.398 4.398 0 011.83.36zm-26.04 9.42c0 4.23 1.95 6.18 5.07 6.18a7.416 7.416 0 005.04-2.22h.12l.6 1.92h1.62v-15.3h-2.52v11.16a6.03 6.03 0 01-4.2 2.43c-2.04 0-3.21-1.32-3.21-4.23v-9.36h-2.52zm-8.25-7.41h4.17l.6-2.01h-4.77v-4.74l-2.52.6v4.14h-2.76v2.01h2.76v8.76c0 3.42 1.68 4.83 4.44 4.83a9.973 9.973 0 003.18-.54l-.36-1.92a7.996 7.996 0 01-2.52.45c-1.53 0-2.22-.84-2.22-2.82zm-21.03 7.41c0 4.23 1.95 6.18 5.07 6.18a7.417 7.417 0 005.04-2.22h.12l.6 1.92h1.62v-15.3h-2.52v11.16a6.03 6.03 0 01-4.2 2.43c-2.04 0-3.21-1.32-3.21-4.23v-9.36h-2.52zm-4.5-3.21v-2.28h-8.49v-7.35h8.49l.6-2.28h-11.73v21h2.64v-9.09zm1403.926-414.785v-100.09l34.005 100.09h14.035l34.165-98.406v98.406h14.998V288.55h-20.932l-28.151 81.804q-4.251 12.433-6.255 18.847-1.766-5.774-5.614-17.403l-27.83-83.248h-23.418v117.574zm-156.397-104.581h37.213q13.072 0 19.128 5.373a17.523 17.523 0 016.055 13.714 19.084 19.084 0 01-3.128 10.547 17.745 17.745 0 01-9.142 7.057q-6.015 2.206-16.682 2.206h-33.444zm0 104.58v-52.21h18.045a46.758 46.758 0 018.662.562 23.382 23.382 0 017.098 3.128 35.313 35.313 0 017.899 7.859q4.41 5.614 11.229 16.2l15.558 24.462h19.569l-20.451-32a80.858 80.858 0 00-12.912-15.64 40.389 40.389 0 00-9.383-5.854q16.92-2.325 25.022-10.907a29.57 29.57 0 008.1-21.093 33.385 33.385 0 00-4.892-17.724 26.145 26.145 0 00-13.073-11.188q-8.18-3.167-23.9-3.168h-52.13v117.574zm-93.038-46.114v21.894q-4.974 4.411-14.597 8.3a52.188 52.188 0 01-19.73 3.89 48.79 48.79 0 01-21.974-5.132 34.644 34.644 0 01-15.76-15.72q-5.413-10.586-5.413-26.305a61.519 61.519 0 014.492-23.66 40.717 40.717 0 017.418-11.628 34.418 34.418 0 0112.55-8.541 47.688 47.688 0 0118.447-3.25 41.208 41.208 0 0116.2 3.089 27.002 27.002 0 0111.229 8.22q3.928 5.134 6.576 14.116l14.035-3.85q-3.048-11.868-8.902-19.248a38.247 38.247 0 00-16.16-11.508 61.49 61.49 0 00-23.058-4.131q-17.564 0-31.037 7.218-13.475 7.218-20.652 22.095a72.76 72.76 0 00-7.178 32.04 67.549 67.549 0 007.218 31.359 49.03 49.03 0 0021.374 21.453 66.76 66.76 0 0031.478 7.419 70.188 70.188 0 0025.023-4.612 87.97 87.97 0 0023.659-13.754v-43.63l-49.805.08v13.796zm-175.645 27.268q-9.065 7.539-22.135 7.538a38.121 38.121 0 01-19.97-5.533q-9.224-5.535-13.594-16.722-4.373-11.189-4.371-26.185a70.22 70.22 0 013.689-22.577 34.296 34.296 0 0112.792-17.443q9.102-6.497 22.657-6.497 11.788 0 19.569 5.855 7.777 5.856 11.869 18.687l15.318-3.61q-4.733-16.28-16.761-25.262-12.03-8.982-29.675-8.983a58.342 58.342 0 00-28.511 7.098 48.085 48.085 0 00-19.97 20.772q-7.019 13.674-7.017 32.04a79.97 79.97 0 006.215 31.518q6.214 14.677 18.126 22.416 11.908 7.741 30.917 7.74 18.364 0 31.077-10.065 12.71-10.065 17.604-29.233l-15.558-3.93q-3.21 14.838-12.271 22.376m-196.136 11.709q10.225 9.223 25.704 9.223 17.161 0 28.39-10.707a34.704 34.704 0 0011.229-26.105q0-11.387-5.774-18.967-5.775-7.58-16.201-9.985a27.927 27.927 0 0012.11-9.945 24.818 24.818 0 004.09-13.875 28.966 28.966 0 00-4.29-15.158 29.893 29.893 0 00-12.391-11.268 38.456 38.456 0 00-17.724-4.13q-13.956 0-23.34 7.98-9.382 7.981-12.03 22.496l14.437 2.566q1.603-10.586 7.218-15.88a19.659 19.659 0 0114.035-5.292q8.5 0 13.875 5.213a17.557 17.557 0 015.373 13.152q0 10.027-7.378 14.838a29.732 29.732 0 01-16.601 4.811 21.783 21.783 0 01-2.326-.16l-1.604 12.672a41.453 41.453 0 0110.185-1.604q10.024 0 16.52 6.456 6.497 6.455 6.498 16.4a23.813 23.813 0 01-7.018 17.484 23.323 23.323 0 01-17.203 7.058 20.896 20.896 0 01-14.556-5.413q-5.976-5.414-8.461-17.685l-14.436 1.925q1.443 14.677 11.669 23.9m-107.194 9.143q19.407 0 31.158-10.226 11.748-10.226 11.749-25.383a28.964 28.964 0 00-21.093-28.471q15.558-9.063 15.559-25.504 0-12.831-10.105-22.416-10.106-9.582-27.348-9.584-35.85 0-41.384 37.454l14.918 3.368q0-3.61 2.406-10.947a22.766 22.766 0 018.7-11.79 25.65 25.65 0 0115.199-4.451q10.185 0 16.16 5.694a17.927 17.927 0 015.976 13.394 17.306 17.306 0 01-4.371 11.589 18.321 18.321 0 01-10.065 6.336q-5.696 1.243-16.441 1.243v13.554h7.458q12.993 0 20.53 5.734a18.398 18.398 0 017.54 15.438 19.763 19.763 0 01-7.138 15.319q-7.139 6.336-19.488 6.335-12.111 0-19.45-8.581-7.337-8.58-9.021-17.163l-14.837 3.85q10.024 35.207 43.388 35.208M955.905 288.55h-14.436v117.574h14.436zm-78.763 0h-15.56v117.574h15.56zm-100.096-.48h-9.303q-3.771 7.62-12.832 15.719a87.19 87.19 0 01-21.173 13.795v13.955a96.862 96.862 0 0015.198-7.46 74.61 74.61 0 0013.674-9.944v91.99h14.436zM1864.21 501.242h-22.054l-28.792 66.486-29.834-66.486h-21.654V620.66h14.837V517.764l30.877 70.014h9.624l31.117-70.014V620.66h15.88zm-192.526 44.511a20.674 20.674 0 01-5.093 8.02 18.791 18.791 0 01-9.303 4.973 57.165 57.165 0 01-12.27 1.203h-13.955v-45.073h15.719a56.714 56.714 0 0111.148.923 21.98 21.98 0 017.859 3.168 15.638 15.638 0 015.695 6.616 22.138 22.138 0 011.844 9.263 32.754 32.754 0 01-1.644 10.907m-6.536 22.938a39.079 39.079 0 0018.125-13.073q6.655-8.822 6.657-21.975 0-9.383-3.65-15.719a29.845 29.845 0 00-9.904-10.346 33.82 33.82 0 00-13.193-5.213 110.382 110.382 0 00-17.203-1.123h-30.797V620.66h15.88v-47.478h18.125l37.855 47.478h20.61zm-142.923 53.413a101.874 101.874 0 0010.586-2.647 82.62 82.62 0 009.504-3.288q5.09-2.083 8.14-3.448V560.59h-43.308v13.955h27.589v30.877a46.206 46.206 0 01-11.228 2.888 93.583 93.583 0 01-13.394.962 39.533 39.533 0 01-16.32-3.248 33.934 33.934 0 01-12.391-9.424 43.194 43.194 0 01-8.1-15.238 70.597 70.597 0 01-2.807-21.012q0-21.573 10.626-34.566 10.626-12.993 27.87-12.993a54.122 54.122 0 0113.473 1.604 55.688 55.688 0 0111.068 4.01 53.686 53.686 0 018.942 5.093q3.168 2.367 6.135 5.012h1.364v-19.167q-3.05-1.523-7.98-3.65a83.816 83.816 0 00-8.942-3.328 80.86 80.86 0 00-10.587-2.406 73.31 73.31 0 00-11.55-.882 62.478 62.478 0 00-23.337 4.251 48.73 48.73 0 00-17.965 12.11 55.436 55.436 0 00-11.59 19.529 77.126 77.126 0 00-4.05 25.864 83.038 83.038 0 004.01 26.947 52.998 52.998 0 0011.55 19.649 47.068 47.068 0 0018.045 11.71 66.93 66.93 0 0023.178 3.849 63.725 63.725 0 0011.469-.882m-146.573-.16a86.296 86.296 0 009.664-2.567 66.95 66.95 0 008.462-3.288q3.487-1.685 7.418-3.529v-18.927h-1.203q-1.847 1.846-5.053 4.451a54.632 54.632 0 01-7.618 5.093 48.733 48.733 0 01-10.426 4.25 45.982 45.982 0 01-12.752 1.685 34.623 34.623 0 01-14.276-3.008 32.352 32.352 0 01-11.71-8.942 45.177 45.177 0 01-8.1-14.958 66.803 66.803 0 01-2.967-21.132 71.235 71.235 0 012.807-20.772 43.576 43.576 0 017.86-15.318 33.916 33.916 0 0126.386-12.351 43.585 43.585 0 0112.43 1.604 51.814 51.814 0 019.946 4.09 53.631 53.631 0 018.02 5.373q3.286 2.729 5.373 4.652h1.283v-19.168q-3.93-2.164-7.98-3.97a72.758 72.758 0 00-7.9-3.007 78.296 78.296 0 00-9.744-2.246 68.092 68.092 0 00-11.268-.882 54.852 54.852 0 00-21.895 4.21 47.581 47.581 0 00-16.922 12.231 56.562 56.562 0 00-11.108 19.408q-3.81 11.15-3.81 26.146a83.273 83.273 0 003.93 26.706 53.659 53.659 0 0011.068 19.409 45.81 45.81 0 0016.963 11.709 57.477 57.477 0 0021.533 3.93 61.776 61.776 0 0011.589-.882m-155.955-108.511a18.95 18.95 0 016.736 2.887 14.91 14.91 0 014.492 5.173 16.002 16.002 0 011.764 7.739q0 9.786-6.777 14.917-6.779 5.135-17.604 5.133h-5.293v13.313h6.817a51.002 51.002 0 019.985.923 20.443 20.443 0 017.98 3.328 15.947 15.947 0 015.253 6.577 26.028 26.028 0 011.885 10.666 29.444 29.444 0 01-1.684 10.747 25.424 25.424 0 01-4.893 7.779 18.741 18.741 0 01-8.22 5.093 32.348 32.348 0 01-9.825 1.564 45.864 45.864 0 01-17.002-3.368 61.843 61.843 0 01-13.554-7.058h-1.123v16.922a69.859 69.859 0 0014.837 5.213 74.408 74.408 0 0017.805 2.166 46.894 46.894 0 0016.76-2.807 33.753 33.753 0 0012.593-8.261 37.348 37.348 0 007.82-11.99 39 39 0 002.766-14.877 33.404 33.404 0 00-2.325-13.193 25.982 25.982 0 00-6.015-8.862 26.386 26.386 0 00-7.98-5.213 42.25 42.25 0 00-8.061-2.486v-1.123a28.4 28.4 0 0015.559-9.464 25.57 25.57 0 006.497-17.323 28.538 28.538 0 00-2.687-12.752 25.228 25.228 0 00-7.98-9.303 34.592 34.592 0 00-10.947-5.093 54.393 54.393 0 00-14.156-1.644 68.822 68.822 0 00-17.042 2.286 63.98 63.98 0 00-14.156 5.093v16.922h.963q2.244-1.522 5.093-3.288a47.302 47.302 0 016.696-3.369 60.563 60.563 0 018.5-2.727 37.623 37.623 0 0116.523-.24m-115.856 44.431a46.506 46.506 0 00-8.702-2.567v-1.203a30.594 30.594 0 0016.883-9.463 24.58 24.58 0 006.456-16.923 25.477 25.477 0 00-3.008-12.711 27.029 27.029 0 00-9.022-9.263 39.13 39.13 0 00-12.191-5.093 70.227 70.227 0 00-15.88-1.564 82.235 82.235 0 00-18.526 2.165 76.211 76.211 0 00-14.837 4.732v17.564h1.043q2.004-1.203 5.133-3.048a54.777 54.777 0 017.298-3.528 72.742 72.742 0 019.383-2.848 44.299 44.299 0 0110.106-1.162 49.92 49.92 0 019.022.761 24.832 24.832 0 017.9 2.928 13.862 13.862 0 017.218 12.752q0 9.705-7.7 14.756-7.699 5.053-20.37 5.053h-10.907v13.313h12.51a60.716 60.716 0 0111.75 1.083 26.432 26.432 0 019.424 3.649 17.728 17.728 0 016.215 6.737 21.76 21.76 0 012.206 10.266 25.534 25.534 0 01-1.845 10.385 22.932 22.932 0 01-5.774 7.66 23.418 23.418 0 01-9.745 5.092 44.744 44.744 0 01-11.67 1.564 54.885 54.885 0 01-18.405-3.248 71.15 71.15 0 01-15.6-7.499h-1.122v17.805a94.067 94.067 0 0014.918 4.611 88.665 88.665 0 0020.45 2.206 60.15 60.15 0 0018.928-2.807 38.806 38.806 0 0014.276-8.1 37.828 37.828 0 008.822-11.99 34.693 34.693 0 003.208-14.877q0-8.181-2.607-13.354a27.568 27.568 0 00-6.616-8.621 30.109 30.109 0 00-8.622-5.213m-121.23-61.995h-15.077v124.792h15.078zM904.09 608.47h-15.238v-95.037h15.238v-12.191h-46.356v12.191h15.238v95.037h-15.238v12.19h46.356zm-111.886 0H771.03V500.841H758.6q-.722 9.705-6.536 13.193-5.816 3.489-18.085 3.489v10.907h21.654v80.04h-21.654v12.19h58.225zM1695.417 830l11.99-69.478 33.015 74.734 33.507-74.569L1785.426 830h18.068l-21.68-123.516-40.407 89.024-39.913-89.024L1677.35 830zm-120.064-98.55h5.913c8.376 0 23.16 1.15 23.16 17.575 0 18.396-18.89 18.724-23.653 18.724h-5.42zm-17.739-16.425V830h17.739v-47.14h2.956l32.85 47.14h21.353l-35.971-49.111c15.111-3.449 25.623-15.603 25.623-32.028 0-7.556-2.628-19.711-13.633-27.102-9.526-6.405-21.024-6.734-30.386-6.734zm-100.026 71.613h28.579c-2.792 16.753-16.096 29.236-34.328 29.236-22.338 0-40.898-17.739-40.898-43.197 0-24.966 17.082-43.527 41.391-43.527 20.86 0 31.536 13.633 35.149 18.889l12.483-11.826a50.78 50.78 0 00-12.647-12.483 58.948 58.948 0 00-34.985-11.004c-12.812 0-29.729 3.284-43.362 17.574-11.333 11.826-16.425 27.102-16.425 42.377s4.763 30.222 17.41 42.869c9.855 9.855 22.995 16.753 41.391 16.753 24.145 0 37.121-13.139 43.198-21.681 9.034-12.811 10.348-25.623 10.348-36.791v-3.614h-47.304zm-112.18-65.371c-7.063-4.764-15.932-8.541-30.715-8.541-15.768 0-29.565 3.777-41.555 15.275-13.797 13.14-18.396 30.058-18.396 45.004 0 18.725 7.227 32.686 18.396 43.362a57.546 57.546 0 0040.734 15.932c17.246 0 27.923-6.405 31.536-8.705V802.57c-12.976 12.319-25.623 13.304-31.043 13.304-24.309 0-41.227-18.395-41.227-42.869 0-25.294 16.261-43.855 41.227-43.855 6.241 0 18.888.986 31.043 12.812zm-198.74 22.83c.657-10.019 7.392-15.604 16.754-15.604 10.512 0 17.246 6.571 17.246 17.575 0 14.454-11.99 15.604-18.067 15.604h-3.45v15.111h3.45c12.81 0 19.71 8.377 19.71 18.725 0 12.811-8.049 21.023-19.71 21.023-11.334 0-18.561-7.883-19.382-17.574h-17.082a49.724 49.724 0 002.792 12.811c3.614 9.198 12.647 20.531 33.343 20.531 29.894 0 37.449-22.337 37.449-36.627 0-10.677-3.942-20.86-14.618-26.28 5.256-3.614 12.647-10.841 12.647-24.473 0-18.725-12.81-32.193-34.164-32.193-9.198 0-21.188 2.792-28.251 13.304-1.97 2.956-4.927 8.541-5.749 18.067zm-133.203-3.285c7.72-10.347 16.753-11.662 23.323-11.662 4.435 0 9.527.658 13.633 4.599 2.957 2.793 3.942 6.242 3.942 10.02 0 10.84-8.377 17.246-20.53 17.246h-10.349v16.425h10.348c10.348 0 27.101 1.643 27.101 19.71 0 4.435-1.15 10.676-8.048 14.947-4.435 2.792-10.512 3.777-14.783 3.777-5.913 0-22.173-1.313-29.4-19.381l-15.44 8.048c8.213 17.082 21.845 27.758 43.362 27.758a51.123 51.123 0 0027.101-7.719c11.17-7.391 14.947-17.082 14.947-28.58 0-13.632-6.898-25.294-21.352-29.236 6.241-3.614 14.125-10.676 14.125-24.309 0-7.884-1.971-15.111-9.526-21.517-5.257-4.435-13.14-8.212-25.295-8.212-14.782 0-24.966 5.256-34.82 16.917zM930.357 830h16.753V709.276h-16.753zm-72.759 0h17.739V715.025h-17.739zm-99.04 0h17.739V715.025h-27.923l-9.526 16.097h19.71z" fill="#fff"/></svg>