<svg data-name="Layer 1" xmlns="http://www.w3.org/2000/svg" viewBox="0 0 1920 740"><defs><clipPath id="a"><path fill="none" d="M0-240h1920V840H0z"/></clipPath></defs><path d="M0-240h1920V840H0z"/><g clip-path="url(#a)"><path d="M406.813 242.837c-15 0-24.92-4.597-35.08-11.371l-12.34 20.322c13.79 8.71 27.824 14.274 49.114 14.274 30.726 0 57.339-19.596 57.339-56.854 0-38.468-25.404-56.855-56.371-56.855a82.75 82.75 0 00-15 1.451v-36.29h60.242l4.838-23.226H369.07v87.581s14.517-7.258 35.08-7.258c19.114 0 35.324 11.855 35.324 34.597 0 22.741-15 33.629-32.662 33.629M233.588 94.288l-4.838 23.226h40.645v122.903H225.12v23.226h108.87v-23.226h-39.192V94.288zm-75.723 107.42h-45.968l22.5-72.823h1.21zm-64.597 61.935l11.855-39.435h59.516l12.097 39.435h27.822L147.945 94.288h-25.887L65.445 263.643zm1232.9 27.339c-15 0-25.645-5.323-36.048-12.58l-11.371 19.354c13.79 8.71 27.823 14.274 49.113 14.274 30.726 0 57.339-19.113 57.339-56.37 0-38.469-24.194-56.372-56.371-56.372a87.872 87.872 0 00-15.484 1.452v-39.436h60.726l4.838-21.048h-90.483v87.339a89.379 89.379 0 0135.564-7.258c19.839 0 35.565 11.129 35.565 35.322 0 22.742-15 35.323-33.388 35.323m-173.225-150.726l-4.838 21.048h40.887v81.291h-44.517v21.048h108.87v-21.048h-39.434V140.256zm-75.723 61.452h-45.968l22.5-72.823h1.21zm-64.597 61.935l11.855-39.435h59.516l12.097 39.435h27.822L1067.3 94.288h-25.887L984.8 263.643zm-171.536-20.806c-15 0-24.92-4.597-35.08-11.371l-12.34 20.322c13.791 8.71 27.823 14.274 49.113 14.274 30.726 0 57.34-19.113 57.34-56.371 0-38.467-24.194-56.371-56.372-56.371a82.671 82.671 0 00-15 1.452v-37.258h60.242l4.84-23.226h-90.485v88.065a101.066 101.066 0 0136.29-6.775c18.145 0 34.113 10.888 34.113 34.113 0 22.984-15 33.146-32.66 33.146M710.2 94.288l-4.839 23.226h33.871v146.129h25.403V94.288zm-62.417 107.42h-45.968l22.5-72.823h1.21zm-64.597 61.935l11.855-39.435h59.516l12.097 39.435h27.822L637.864 94.288h-25.887l-56.613 169.355zm1180.159 27.339c-15 0-25.645-5.323-36.049-12.58l-11.37 19.354c13.79 8.71 27.822 14.274 49.112 14.274 30.726 0 57.34-19.113 57.34-56.37 0-38.469-24.194-56.372-56.372-56.372a87.872 87.872 0 00-15.484 1.452v-39.436h60.726l4.84-21.048h-90.485v87.339a89.379 89.379 0 0135.564-7.258c19.84 0 35.566 11.129 35.566 35.322 0 22.742-15 35.323-33.388 35.323m-135.482-150.726l-4.84 21.048h34.113v102.339h24.92V140.256zm-63.628 61.452h-45.968l22.5-72.823h1.21zm-64.596 61.935l11.855-39.435h59.516l12.096 39.435h27.822l-56.613-169.355h-25.887l-56.613 169.355zM421.33 511.078v-.726l34.596-45.967v-20.807h-88.548l-4.84 23.226h64.598v.968l-36.29 48.63v13.063h12.58c19.113 0 33.629 8.952 33.629 31.452 0 21.532-14.032 31.21-32.661 31.21-15 0-24.92-4.597-35.081-11.37l-12.338 20.321c13.79 8.71 27.822 14.274 49.113 14.274 30.725 0 57.338-17.419 57.338-54.677 0-32.66-19.355-45.726-42.096-49.597m-84.92 17.178c0-57.339-22.015-87.097-59.273-87.097s-59.275 29.758-59.275 87.097c0 57.338 22.017 87.096 59.275 87.096s59.274-29.758 59.274-87.096m-92.178 0c0-45 13.549-63.87 32.904-63.87 19.354 0 32.903 18.87 32.903 63.87s-13.55 63.871-32.903 63.871c-19.355 0-32.904-18.87-32.904-63.87m-86.368 22.74h-45.968l22.5-72.822h1.21zm-64.597 61.936l11.855-39.436h59.516l12.097 39.436h27.822l-56.613-169.355h-25.887L65.445 612.933zm1289.512-5.323c0-30.242-18.87-46.693-44.515-50.322v-.968l37.016-48.145v-18.629h-90.967l-4.84 21.048h67.017v.968l-38.71 50.323v12.822h12.823c20.323 0 36.532 9.436 36.532 32.903 0 22.5-15 32.662-33.387 32.662-15 0-25.645-5.323-36.048-12.58l-11.371 19.354c13.79 8.71 27.822 14.274 49.113 14.274 30.725 0 57.338-16.452 57.338-53.71m-127.015-56.37c0-43.065-22.984-64.113-59.274-64.113-36.291 0-59.275 21.048-59.275 64.112 0 43.065 23.226 64.113 59.275 64.113 36.048 0 59.274-21.048 59.274-64.113m-92.903 0c0-28.306 14.032-43.064 33.387-43.064 19.838 0 33.87 14.758 33.87 43.064 0 28.307-14.032 43.065-33.87 43.065-19.355 0-33.387-14.758-33.387-43.065m-85.643-.242h-45.968l22.5-72.822h1.21zm-64.597 61.936l11.855-39.436h59.516l12.097 39.436h27.822L1067.3 443.578h-25.887L984.8 612.933zm830.439-5.323c0-30.242-18.87-46.693-44.517-50.322v-.968l37.017-48.145v-18.629h-90.968l-4.839 21.048h67.016v.968l-38.709 50.323v12.822h12.822c20.323 0 36.532 9.436 36.532 32.903 0 22.5-15 32.662-33.387 32.662-15 0-25.645-5.323-36.048-12.58l-11.37 19.354c13.79 8.71 27.822 14.274 49.112 14.274 30.726 0 57.34-16.452 57.34-53.71m-122.176-56.37c0-43.065-22.984-64.113-59.274-64.113s-59.274 21.048-59.274 64.112c0 43.065 23.225 64.113 59.274 64.113 36.048 0 59.274-21.048 59.274-64.113m-92.903 0c0-28.306 14.032-43.064 33.387-43.064 19.84 0 33.871 14.758 33.871 43.064 0 28.307-14.032 43.065-33.87 43.065-19.356 0-33.388-14.758-33.388-43.065m17.661 0a15.968 15.968 0 1015.968-15.967 16.11 16.11 0 00-15.968 15.967m-102.094-.242h-45.968l22.5-72.822h1.21zm-64.597 61.936l11.855-39.436h59.516l12.097 39.436h27.822l-56.613-169.355h-25.887l-56.613 169.355zM881.007 511.078v-.726l34.596-45.967v-20.807h-88.548l-4.839 23.226h64.597v.968l-36.29 48.63v13.063h12.58c19.113 0 33.63 8.952 33.63 31.452 0 21.532-14.033 31.21-32.662 31.21-15 0-24.919-4.597-35.08-11.37l-12.339 20.321c13.79 8.71 27.822 14.274 49.113 14.274 30.725 0 57.338-17.419 57.338-54.677 0-32.66-19.355-45.726-42.096-49.597m-84.919 17.178c0-57.339-22.016-87.097-59.274-87.097s-59.275 29.758-59.275 87.097c0 57.338 22.017 87.096 59.275 87.096s59.274-29.758 59.274-87.096m-92.178 0c0-45 13.55-63.87 32.904-63.87 19.354 0 32.903 18.87 32.903 63.87s-13.549 63.871-32.903 63.871c-19.355 0-32.904-18.87-32.904-63.87m16.936 0a15.967 15.967 0 1015.968-15.969 16.11 16.11 0 00-15.968 15.968m-103.304 22.741h-45.968l22.5-72.822h1.21zm-64.597 61.936l11.855-39.436h59.516l12.097 39.436h27.822l-56.613-169.355h-25.887l-56.613 169.355z" fill="#fff"/></g><path d="M510.484 171.412v.161h-30.43v5.377h30.43v.161l-9.731 9.57 3.709 3.71 16.13-16.13-16.13-16.129-3.709 3.71 9.731 9.57zm919.355 0v.161h-30.43v5.377h30.43v.161l-9.731 9.57 3.709 3.71 16.13-16.13-16.13-16.129-3.709 3.71 9.731 9.57zm-919.355 349.29v.161h-30.43v5.377h30.43v.161l-9.731 9.57 3.709 3.71 16.13-16.13-16.13-16.129-3.709 3.71 9.731 9.57zm919.355 0v.161h-30.43v5.377h30.43v.161l-9.731 9.57 3.709 3.71 16.13-16.13-16.13-16.129-3.709 3.71 9.731 9.57z" fill="#ff0"/></svg>