<svg id="Layer_1" data-name="Layer 1" xmlns="http://www.w3.org/2000/svg" viewBox="0 0 1920 940"><defs><clipPath id="clip-path"><path fill="none" d="M0-140h1920V940H0z"/></clipPath><style>.cls-2{fill:none;stroke:#f0f;stroke-linejoin:round;stroke-width:2px}</style></defs><path d="M0-140h1920V940H0z"/><path class="cls-2" d="M565.276 287.276h-79.94L384.476 441.18h-26.148V287.276H282.87V441.18h-26.149L155.862 287.276h-79.94l122.525 183.788L68.451 668.3h88.905L259.71 503.19h23.16V668.3h75.458V503.19h23.16l107.583 172.581 83.676-7.471-129.996-197.236 122.525-183.788z"/><g clip-path="url(#clip-path)"><path class="cls-2" d="M693.988 352.274h64.251V668.3h77.7V352.274h86.663l14.943-64.998H835.938V237.22c0-43.332 21.666-64.251 55.286-64.251 21.666 0 43.332 5.976 58.274 13.448l25.402-57.528c-28.39-12.7-55.286-20.919-94.883-20.919-74.71 0-121.778 42.585-121.778 140.456v38.85h-64.25zm505.654-7.472c57.527 0 85.917 38.103 85.917 90.4h-176.317c6.724-53.79 38.85-90.4 90.4-90.4zm155.398 88.16c0-93.389-54.54-153.158-156.892-153.158-103.101 0-171.835 72.47-171.835 197.983 0 124.767 73.217 197.983 185.283 197.983 48.562 0 91.147-13.448 127.755-32.125l-25.402-59.02c-27.643 14.194-60.515 26.147-94.882 26.147-68.734 0-107.584-41.09-112.813-115.054h242.062q6.724-33.62 6.724-62.757zm249.533 11.206c-84.423 0-144.19 41.838-144.19 114.308 0 77.699 45.572 113.56 118.041 113.56 49.31 0 79.941-16.437 107.584-44.08h2.988c6.724 23.16 25.402 44.08 60.516 44.08 14.942 0 33.62-2.99 44.827-7.471v-57.527h-8.218c-16.436 0-26.896-8.22-26.896-26.896V420.26c0-79.193-27.644-140.456-144.191-140.456-47.815 0-90.4 8.218-134.48 24.655l22.414 60.515c35.114-12.701 68.733-20.172 103.1-20.172 56.033 0 75.458 28.39 75.458 73.964v25.4zm76.952 60.516v59.02c-22.413 28.39-51.55 47.069-88.158 47.069-30.632 0-56.033-16.436-56.033-50.803s26.895-55.286 64.251-55.286z"/><path d="M416.255 503.19c17.183 65.744 38.102 120.283 79.193 171.833l85.17-7.47c-49.309-56.034-85.17-119.538-101.606-194.995L632.17 287.275h-79.94L421.484 441.18h-22.413l26.895-153.904H350.51L323.614 441.18h-29.137c-11.207-44.826-36.608-104.595-72.47-153.904h-81.434c45.573 60.516 77.7 118.79 93.388 183.788L68.851 668.3h88.905l132.985-165.11h21.666l-28.39 165.11h75.458l28.39-165.11zm504.508-215.914l8.965-50.056c7.471-43.332 31.38-64.251 65-64.251a105.724 105.724 0 0152.296 13.448l35.861-57.527c-26.896-14.195-47.815-20.92-85.917-20.92-72.469 0-127.755 38.103-144.192 129.25l-8.965 50.056h-63.504l-11.206 64.998h63.503L769.101 714.62c-6.724 38.849-25.402 53.044-51.55 53.044-20.92 0-37.356-6.724-56.034-16.436l-30.63 58.274c23.16 12.7 55.285 23.16 85.17 23.16 62.756 0 114.306-30.631 129.995-118.042l63.504-362.347h78.447l26.148-64.998zm289.741 388.494c49.309 0 91.147-10.46 131.49-31.378l-22.413-58.274c-31.379 14.942-58.274 24.655-90.4 24.655-67.24 0-85.917-38.103-85.917-98.618 191.259 0 259.246-54.54 259.246-132.985 0-64.251-51.55-99.365-124.767-99.365-134.48 0-212.925 113.56-212.925 245.798 0 91.147 47.815 150.168 145.686 150.168zm58.274-330.967c32.125 0 55.285 14.195 55.285 40.344 0 32.872-27.643 62.757-171.087 62.757 17.184-58.275 61.263-103.101 115.802-103.101zm435.187-64.998c-134.479 0-213.673 113.56-213.673 245.798 0 91.147 35.861 150.168 118.043 150.168 47.068 0 82.182-17.931 113.56-47.815h2.989l8.219 40.344h51.55l63.503-360.105c-42.584-15.69-87.41-28.39-144.19-28.39zm-11.206 64.998c26.896 0 48.561 5.977 68.733 13.448l-34.367 197.983c-27.642 34.367-57.527 54.539-94.136 54.539-43.332 0-62.756-34.367-62.756-91.147 0-97.871 50.803-174.823 122.526-174.823z" stroke="#ff0" fill="none" stroke-linejoin="round" stroke-width="2"/></g></svg>