<svg id="Layer_1" data-name="Layer 1" xmlns="http://www.w3.org/2000/svg" viewBox="0 0 1750 620"><defs><clipPath id="clip-path"><path fill="none" d="M-105.05-278.21h1920v1080h-1920z"/></clipPath><style>.cls-2,.cls-4,.cls-5,.cls-6{fill:none}.cls-2{stroke:#0ff}.cls-2,.cls-4,.cls-5,.cls-6{stroke-linejoin:round;stroke-width:1.011px}.cls-3{clip-path:url(#clip-path)}.cls-4{stroke:#f0f}.cls-5{stroke:#ff0}.cls-6{stroke:red}</style></defs><path d="M-105.05-278.21h1920v1080h-1920z"/><path class="cls-2" d="M311.103 185.691h2.673v364.84h58.802V82.787H315.78L79.904 448.964h-2.673V82.787H18.429v467.744h56.798l235.876-364.84z"/><g class="cls-3"><path class="cls-2" d="M709.507 495.738c-24.724 10.023-52.788 16.705-77.512 16.705-66.152 0-102.235-53.456-102.235-132.304 0-78.849 36.75-132.305 102.903-132.305 25.392 0 48.779 5.346 73.503 15.369l16.037-41.429a246.01 246.01 0 00-93.55-18.71c-110.253 0-156.36 78.848-156.36 177.075 0 98.226 49.448 177.074 159.702 177.074 34.747 0 64.816-7.35 93.549-20.046zm228.867-247.905c55.461 0 83.526 38.756 83.526 92.213a118.318 118.318 0 01-.668 15.368H845.494c3.341-63.479 36.751-107.58 92.88-107.58zm129.632 148.342a287.195 287.195 0 006.014-56.129c0-83.526-45.438-136.982-136.982-136.982-96.222 0-150.346 71.498-150.346 177.074 0 111.59 64.816 177.074 159.701 177.074 43.433 0 80.853-10.69 113.595-28.732l-19.378-40.093c-26.06 14.033-54.125 24.056-87.535 24.056-67.489 0-102.236-42.097-107.58-116.268z"/></g><path class="cls-2" d="M1127.803 254.516h111.59v296.015h55.461V254.516h101.568l13.364-44.77h-281.983v44.77z"/><g class="cls-3"><path class="cls-2" d="M1603.085 378.802c43.433 0 70.829 23.387 70.829 63.48 0 40.092-27.396 63.48-70.829 63.48h-66.82v-126.96zm-66.82-44.77V209.746h-56.13v340.785h129.632c73.502 0 121.613-38.756 121.613-107.582 0-68.825-48.11-108.917-121.613-108.917z"/></g><path class="cls-4" d="M301.08 214.424h2.673v336.107h72.166V82.788h-63.48L89.927 418.895h-2.673V82.788H15.088v467.743h63.48L301.08 214.424z"/><g class="cls-3"><path class="cls-4" d="M635.336 499.079c-57.466 0-95.553-48.111-95.553-118.941 0-70.829 38.756-118.94 96.221-118.94a174.46 174.46 0 0168.157 13.364l21.383-53.456c-28.733-12.028-61.475-18.042-93.549-18.042-110.254 0-163.042 78.848-163.042 177.074 0 98.227 56.13 177.075 166.383 177.075 34.747 0 64.816-6.682 93.549-19.378l-21.383-53.457c-22.72 9.355-48.78 14.701-72.166 14.701zm303.038-237.881c51.452 0 76.844 34.078 76.844 80.853H857.521c6.014-48.11 34.747-80.853 80.853-80.853zm138.987 78.848c0-83.526-48.779-136.982-140.323-136.982-92.212 0-153.687 64.816-153.687 177.074 0 111.591 65.484 177.075 165.715 177.075 43.433 0 81.521-12.028 114.263-28.733l-22.719-52.788c-24.724 12.696-54.125 23.387-84.862 23.387-61.475 0-96.222-36.75-100.899-102.904h216.498a287.187 287.187 0 006.014-56.129z"/></g><path class="cls-4" d="M1124.462 267.88h108.249v282.651h68.825V267.88h98.227l13.364-58.134h-288.665v58.134z"/><g class="cls-3"><path class="cls-4" d="M1606.51 392.166c35.414 0 57.465 18.71 57.465 50.115 0 31.406-22.05 50.116-57.466 50.116h-60.138v-100.23zm-60.139-58.134V209.746h-69.493v340.785h136.313c73.503 0 121.614-38.756 121.614-107.582 0-68.825-48.11-108.917-121.614-108.917z"/></g><path class="cls-5" d="M293.73 550.531h85.53V82.787h-71.498L99.282 393.503h-2.004V82.787H11.747v467.744h71.498l208.48-310.047h2.005v310.047z"/><g class="cls-3"><path class="cls-5" d="M705.498 472.35c-20.714 8.688-48.111 13.365-70.162 13.365-49.447 0-85.53-42.765-85.53-105.576 0-62.812 36.75-105.577 86.199-105.577 22.05 0 45.438 4.009 66.152 12.696l26.728-65.484c-28.733-12.028-64.816-18.71-96.89-18.71-110.253 0-166.383 78.848-166.383 177.075 0 98.226 59.47 177.074 169.724 177.074 34.747 0 68.157-6.682 96.89-19.378zm160.042-130.3c8.019-44.101 36.75-67.488 72.166-67.488 43.434 0 67.489 28.733 67.489 67.489zm87.535 143.665c-44.102 0-80.185-28.065-88.871-80.185h212.489a449.625 449.625 0 004.009-51.451c0-95.554-55.461-151.015-144.332-151.015-96.222 0-156.36 64.816-156.36 177.075 0 111.59 68.825 177.074 169.056 177.074 43.433 0 84.862-12.028 117.604-28.733l-28.733-64.816c-23.387 12.028-56.797 22.05-84.862 22.05z"/></g><path class="cls-5" d="M1121.121 281.244h104.908v269.287h82.189V281.244h94.886l13.364-71.498h-295.347v71.498z"/><g class="cls-3"><path class="cls-5" d="M1609.957 400.185c27.397 0 44.102 16.705 44.102 39.424s-16.705 39.424-44.102 39.424h-53.456v-78.849zm-53.456-68.825V209.747h-82.858V550.53h142.996c73.503 0 121.614-40.092 121.614-108.917s-48.11-110.254-121.614-110.254z"/></g><path class="cls-6" d="M283.707 550.531h98.894V82.787h-90.207L109.305 383.48h-2.004V82.787H8.406v467.744h90.208l183.088-300.692h2.005v300.692z"/><g class="cls-3"><path class="cls-6" d="M636.672 472.35c-40.092 0-76.844-30.068-76.844-92.211s36.752-92.213 76.844-92.213a190.772 190.772 0 0164.148 11.36l31.405-78.18c-28.733-12.028-70.829-18.042-102.903-18.042-98.895 0-167.052 62.143-167.052 177.075 0 114.93 68.157 177.074 167.052 177.074 38.087 0 77.512-8.018 106.244-20.714l-31.405-78.18c-19.378 8.018-41.429 14.032-67.489 14.032zm238.223-130.3c6.014-35.414 30.737-54.123 64.148-54.123 37.419 0 57.465 21.382 57.465 54.124zm201.798 74.172c5.346-22.72 7.35-48.111 7.35-72.834 0-82.858-53.456-140.323-146.337-140.323-98.894 0-161.037 62.143-161.037 177.074s74.839 177.074 173.733 177.074c43.434 0 88.203-12.027 120.945-28.733l-34.746-76.843c-22.051 11.359-53.457 20.714-79.517 20.714-38.756 0-69.493-20.046-80.184-56.13z"/></g><path class="cls-6" d="M1117.78 294.608h101.567v255.923h95.554V294.608h91.544l13.364-84.862H1117.78v84.862z"/><g class="cls-3"><path class="cls-6" d="M1613.298 405.53c18.71 0 30.738 14.033 30.738 30.07s-12.028 30.069-30.738 30.069h-46.774V405.53zm-46.774-74.17V209.747h-96.22V550.53h149.677c73.502 0 121.613-38.756 121.613-109.585 0-70.83-48.11-109.586-121.613-109.586z"/></g></svg>