<svg data-name="Layer 1" xmlns="http://www.w3.org/2000/svg" viewBox="0 0 1920 940"><path d="M0-140h1920V940H0z"/><path d="M1582.715 819.76v.24h-93.28v8h93.28v.24l-14.48 14.24 5.52 5.52 24-24-24-24-5.52 5.52zm-224.079-18.96h-8.4v46.4h8.4V828h84.88v.24l-14.48 14.24 5.52 5.52 24-24-24-24-5.52 5.52 14.48 14.24v.24h-84.88zm-53.199 1.84l-29.92 29.92-.24-.24V812.4h-7.92v34h34v-7.92h-20l-.24-.24 29.92-30zm-129.279 5.6l29.92 30-.24.24h-20v7.92h34v-34h-7.92v19.92l-.24.24-29.92-29.92zm-85.6 38.16l29.92-29.92.24.24v19.92h7.921v-34h-34v7.92h20l.24.24-29.92 30zm-53.119-5.6l-29.92-30 .24-.24h20v-7.92h-34v34h7.92v-19.92l.24-.24 29.92 29.92zM928.8 837.36h-.24V796h-8.32v41.36H920l-14.08-14.08-5.52 5.52 24 24 24-24-5.52-5.52zm-80.479-17.6v.24h-45.28v8h45.28v.24l-14.48 14.24 5.52 5.52 24-24-24-24-5.52 5.52zm-87.839 4.96l5.52-5.52-24-24-24 24 5.52 5.52 14.08-14.08h.24V852h8.32v-41.36h.24zm-110.319-19.2l-5.52-5.52-24 24 24 24 5.52-5.52-14.48-14.24V828h45.28v-8h-45.28v-.24zM581.364 820h-84.88v-.24l14.48-14.24-5.52-5.52-24 24 24 24 5.52-5.52-14.48-14.24V828h84.88v19.2h8.4v-46.4h-8.4zm-209.6-14.48l-5.52-5.52-24 24 24 24 5.52-5.52-14.48-14.24V828h93.28v-8h-93.28v-.24zm925.791-86.343c0-3.6 2.48-6.16 6.48-6.16h6.96v12.16h-6.96c-4 0-6.48-2.4-6.48-6m-11.2 27.68h9.52l8.8-14.8h6.32v14.8h8.32v-40.8h-16.08c-8.8 0-14.16 5.04-14.16 12.96 0 5.84 2.72 10 7.52 11.92zm-43.839-34.64c6.24 0 9.76 5.28 9.76 14.24s-3.52 14.24-9.76 14.24-9.76-5.28-9.76-14.24 3.52-14.24 9.76-14.24m0 35.44c11.36 0 18.24-7.92 18.24-21.2s-6.88-21.2-18.24-21.2c-10.16 0-16.72 6.32-18 17.12h-7.44v-16.32h-8.32v40.8h8.32v-17.52h7.28c.96 11.52 7.6 18.32 18.16 18.32m-87.919-18.16h15.84c-.8 6.8-4.56 11.2-10.56 11.2a23.976 23.976 0 01-9.28-1.84l-2.56 6.4a28.127 28.127 0 0011.84 2.4c13.2 0 19.28-9.44 19.28-21.2s-6.08-21.2-19.28-21.2a30.334 30.334 0 00-11.44 2.24l2.56 6.4a23.303 23.303 0 018.88-1.68c5.76 0 9.52 4.08 10.48 10.48h-15.76zm-46.719-1.6c4.24 0 6.881 2.24 6.881 6s-2.64 6-6.88 6h-7.2v-12zm-7.199-6.96v-14.88h-8.32v40.8h16.32c8.8 0 14.56-4.64 14.56-12.88s-5.76-13.04-14.56-13.04zm-69.999 6.96c4.24 0 6.88 2.24 6.88 6s-2.64 6-6.88 6h-6.48v-12zm29.68-21.84h-8.32v40.8h8.32zm-36.16 0h-8.32v40.8h15.6c8.8 0 14.56-4.64 14.56-12.88s-5.76-13.04-14.56-13.04h-7.28zm-51.68 21.84c4.24 0 6.88 2.24 6.88 6s-2.64 6-6.88 6h-7.36v-12zm-15.68 18.96h16.48c8.8 0 14.56-4.64 14.56-12.88s-5.76-13.04-14.56-13.04h-8.16v-14.88H948.2l-1.6 6.96h10.24zm-58.638-40.8h-8.24v33.84h-12.48v-33.84h-8.32v40.8h47.92v10.16h6.72l1.6-17.12h-6.48v-33.84h-8.32v33.84h-12.4zm-61.04 0h-8.32v33.84h-12.4v-33.84h-8.24v33.84h-12.48v-33.84h-8.32v40.8h49.76zm-99.119 25.84a26.39 26.39 0 009.04-1.68v16.64h8.32v-40.8h-8.32v17.44a22 22 0 01-7.76 1.44c-4 0-7.04-2.08-7.04-6.96v-11.92h-8.32v12.64c0 8.96 6 13.2 14.08 13.2m-38.478 8h-6.48v-33.84h-8.32v33.84h-15.36v-33.84h-8.32v40.8h30.16v10.16h6.72zm-74.32 7.76l8.64-.8-14.08-20.96 13.28-19.84h-9.36l-8.72 14.16h-.24l-8.8-14.16h-9.28l13.36 19.84-14.16 20.96h9.2l9.68-14.88h.24zm1000.824-140.183a15.431 15.431 0 013.6-.4c6.88 0 9.76 5.76 9.76 14.24s-2.88 14.24-9.76 14.24a15.433 15.433 0 01-3.6-.4zm.16 34.64a31.448 31.448 0 004.72.4c12.4 0 16.88-9.44 16.88-21.2s-4.48-21.2-16.88-21.2a31.448 31.448 0 00-4.72.4v-18.8l-8.32 1.6v17.2a31.448 31.448 0 00-4.72-.4c-12.4 0-16.88 9.44-16.88 21.2s4.48 21.2 16.88 21.2a31.448 31.448 0 004.72-.4v17.2l8.32-1.6zm-8.16-6.96a15.962 15.962 0 01-3.6.4c-6.88 0-9.76-5.76-9.76-14.24s2.88-14.24 9.76-14.24a15.43 15.43 0 013.6.4zm-79.839 22.64a18.394 18.394 0 007.04 1.52c4.4 0 9.2-1.92 11.76-9.76l15.68-48.64h-8.96l-9.44 31.28h-.32l-10.56-31.28h-9.12l14.32 40.8h2.96l-1.76 5.92c-1.12 3.84-3.2 4.72-5.04 4.72a11.866 11.866 0 01-4.4-1.04zm-59.279-49.92h12.96v33.84h8.24v-33.84h11.76l1.6-6.96h-34.56zm-34.399 27.68c-6.88 0-11.44-5.76-11.44-14.24s4.64-14.24 11.52-14.24a20.887 20.887 0 018.16 1.6l2.56-6.4a29.39 29.39 0 00-11.2-2.16c-13.2 0-19.52 9.44-19.52 21.2s6.72 21.2 19.92 21.2a26.97 26.97 0 0011.2-2.32l-2.56-6.4a23.48 23.48 0 01-8.64 1.76m-65.679 0a14.875 14.875 0 01-9.04-2.88v-20.56c2.48-3.04 5.36-5.04 8.72-5.04 7.04 0 10.4 5.84 10.4 14.24 0 9.04-3.76 14.24-10.08 14.24m-9.04 4.8a24.07 24.07 0 0010.4 2.16c12.16 0 17.2-9.04 17.2-21.2s-4.96-21.2-16.48-21.2a14.462 14.462 0 00-11.6 5.12h-.32l-1.6-4.32h-5.92v58.4l8.32-1.6zm-40.319-39.44h-32.08v40.8h8.32v-33.84h15.44v33.84h8.32zm-80.479 41.6c11.36 0 18.8-7.92 18.8-21.2s-7.44-21.2-18.8-21.2-18.8 7.92-18.8 21.2 7.44 21.2 18.8 21.2m0-35.44c6.24 0 10.32 5.28 10.32 14.24s-4.08 14.24-10.32 14.24-10.32-5.28-10.32-14.24 4.08-14.24 10.32-14.24m-48.398-6.16h-8.32v16.32h-16.08v-16.32h-8.32v40.8h8.32v-17.52h16.08v17.52h8.32zm-73.199 11.92h.32l2.32 28.88h8.24l-3.92-40.8h-9.52l-9.6 26.08h-.32l-9.6-26.08h-9.52l-3.92 40.8h8.24l2.32-28.88h.32l8 22.24h8.64zm-102.879 27.84a8.954 8.954 0 005.28 1.44c9.2 0 13.12-10.72 13.12-32.48v-1.76H1054v33.84h8.32v-40.8h-27.28v6.8c0 19.36-2.08 27.12-5.84 27.12a5.08 5.08 0 01-2.72-.8zm-21.999-39.76h-8.64l-10.72 16.48h-4.56v-16.48h-8.32v40.8h8.32v-17.68h4.48l11.76 18.48 8.48-.8-13.52-21.12zm-73.839-17.2c-1.76 3.44-4.48 5.2-7.84 5.2s-6.16-1.84-7.92-5.2l-5.28 3.52a15.345 15.345 0 0026.4 0zm-17.84 58l18.8-27.2h.32v27.2h8.32v-40.8h-7.44l-18.8 27.2h-.32v-27.2h-8.32v40.8zm-66.879 0l18.8-27.2h.32v27.2h8.32v-40.8h-7.44l-18.8 27.2h-.32v-27.2h-8.32v40.8zm-38.398-30.4c0-7.2-5.36-11.2-15.12-11.2a41.773 41.773 0 00-13.52 2.32l2.56 6.4a33.437 33.437 0 0110.72-1.76c3.84 0 6.88 1.76 6.88 5.28 0 3.6-3.2 5.12-7.04 5.12h-4.88v6.64h5.52c6 0 8.16 2.16 8.16 5.68 0 3.36-3.68 5.76-8.88 5.76a32.94 32.94 0 01-10.88-1.92l-2.56 6.4a37.593 37.593 0 0013.68 2.48c11.44 0 17.12-4.88 17.12-12.56 0-5.92-4.8-8.8-8.72-9.68v-.24a9.126 9.126 0 006.96-8.72m-53.439-10.4h-8.56l-10.8 16.48h-2.8v-16.48h-8.08v16.48h-2.8l-10.799-16.48h-8.56l13.12 19.68-13.92 21.12h9.52l10.96-17.68h2.48v17.68h8.08v-17.68h2.48l11.52 18.48 8.96-.8-13.92-21.12zm-91.279-11.84a4.952 4.952 0 005.04 4.96 5.02 5.02 0 005.12-4.96 5.088 5.088 0 00-5.12-5.04 5.02 5.02 0 00-5.04 5.04m-17.039 0a4.95 4.95 0 005.04 4.96 5.02 5.02 0 005.12-4.96 5.087 5.087 0 00-5.12-5.04 5.018 5.018 0 00-5.04 5.04m14.08 18c6.16 0 9.2 4.08 9.2 9.68h-18.88c.72-5.76 4.16-9.68 9.68-9.68m16.64 9.44c0-10-5.84-16.4-16.801-16.4-11.04 0-18.4 7.76-18.4 21.2 0 13.36 7.84 21.2 19.84 21.2a29.83 29.83 0 0013.68-3.44l-2.72-6.32a22.649 22.649 0 01-10.16 2.8c-7.36 0-11.52-4.4-12.08-12.32h25.921a34.453 34.453 0 00.72-6.72m-79.04-9.44c6.16 0 9.2 4.08 9.2 9.68h-18.88c.72-5.76 4.16-9.68 9.68-9.68m16.64 9.44c0-10-5.84-16.4-16.8-16.4-11.04 0-18.4 7.76-18.4 21.2 0 13.36 7.84 21.2 19.84 21.2a29.83 29.83 0 0013.68-3.44l-2.72-6.32a22.649 22.649 0 01-10.16 2.8c-7.36 0-11.52-4.4-12.08-12.32h25.92a34.382 34.382 0 00.72-6.72m-103.839 18.24l1.6 17.12h6.72v-10.16h27.6v10.16h6.72l1.6-17.12h-6.48v-33.84h-26.8v4.48c0 14.24-1.12 21.92-5.52 29.36zm19.28-26.88h10.16v26.88h-15.12c3.2-5.84 4.96-16.24 4.96-25.68zm-64.72-6.96v40.8h8.32v-33.84h15.52l1.6-6.96zm-45.838 6.96c3.52 0 6.08 1.04 6.08 4.64 0 3.44-2.88 4.64-6.64 4.64h-6.56v-9.28zm.16 16.24c4.8 0 7.6 1.76 7.6 5.36s-2.56 5.28-6.8 5.28h-8.08v-10.64zm7.44-3.84v-.24a9.126 9.126 0 006.96-8.72c0-7.36-5.36-10.4-13.52-10.4h-16.48v40.8h17.76c9.28 0 13.92-4.4 13.92-11.76 0-5.92-4.72-8.8-8.64-9.68m-54.959-31.92l-2.48-6.64c-4.16 1.68-7.28 2.4-13.28 2.96-13.2 1.2-20.4 5.92-20.4 31.68 0 16.32 5.6 26.16 18.8 26.16 11.36 0 19.28-6.88 19.28-20.16 0-13.6-6.88-20.24-16.88-20.24-5.28 0-9.44 1.6-12.96 5.28h-.24c0-11.68 4.32-14.8 13.2-15.44a41.917 41.917 0 0014.96-3.6m-27.84 27.68c3.04-4.88 7.36-6.96 11.44-6.96 5.68 0 9.84 4.4 9.84 13.28s-4.56 13.2-10.8 13.2c-7.2 0-10.48-6.48-10.48-19.52m-54.639 1.68c-9.04 0-15.44 4.48-15.44 12.24 0 8.32 4.88 12.16 12.64 12.16a14.906 14.906 0 0011.52-4.72h.32a6.32 6.32 0 006.48 4.72 14.706 14.706 0 004.8-.8v-6.16h-.88a2.577 2.577 0 01-2.88-2.88v-17.12c0-8.48-2.96-15.04-15.44-15.04a39.956 39.956 0 00-14.4 2.64l2.4 6.48a32.204 32.204 0 0111.04-2.16c6 0 8.08 3.04 8.08 7.92v2.72zm8.24 6.48v6.32c-2.4 3.04-5.52 5.04-9.44 5.04-3.28 0-6-1.76-6-5.44s2.88-5.92 6.88-5.92zm1021.783-116.423c-5.12 0-8.88-3.84-8.88-9.76s3.76-9.76 8.88-9.76h8.08v19.52zm-20.08 28.8h9.84l12-21.12h6.32v21.12h8.64v-56h-17.12c-9.68 0-17.44 6.24-17.44 17.44 0 8.48 4.4 14.16 10.8 16.4zm-63.038-28c0-11.44 4.72-21.12 14.08-21.12s14 9.68 14 21.12-4.64 21.12-14 21.12-14.08-9.68-14.08-21.12m37.04 0c0-16.32-7.12-28.8-22.96-28.8-14.32 0-21.6 10.16-22.88 24.16h-9.92v-23.36h-8.64v56h8.64v-24.96h9.84c.8 14.8 8.08 25.76 22.96 25.76 15.84 0 22.96-12.48 22.96-28.8m-119.92-21.12c9.28 0 14 7.28 14.96 17.12h-20.4v7.68h20.4c-.88 10.08-5.6 17.44-14.96 17.44-4.32 0-7.68-1.2-11.6-3.44l-3.36 6.8a28.9 28.9 0 0015.52 4.32c15.84 0 23.76-12.48 23.76-28.8s-7.76-28.8-23.6-28.8a30.048 30.048 0 00-14.96 3.6l3.36 6.8a22.795 22.795 0 0110.88-2.72m-60.48 22.56c7.76 0 10.96 3.76 10.96 9.44 0 5.36-3.28 9.44-10.88 9.44h-8.64v-18.88zm-17.2-29.44v56h17.76c11.68 0 19.36-5.68 19.36-17.12s-7.76-17.12-19.36-17.12h-9.12v-21.76zm-68.078 29.44c7.76 0 10.96 3.76 10.96 9.44 0 5.36-3.28 9.44-10.88 9.44h-7.36v-18.88zm25.84 26.56h8.64v-56h-8.64zm-41.76-56v56h16.48c11.68 0 19.36-5.68 19.36-17.12s-7.76-17.12-19.36-17.12h-7.84v-21.76zm-48.72 29.44c7.76 0 10.96 3.76 10.96 9.44 0 5.36-3.28 9.44-10.88 9.44h-8.64v-18.88zm-8.56-29.44h-21.04l-1.6 7.68h14v48.32h17.76c11.68 0 19.36-5.68 19.36-17.12s-7.76-17.12-19.36-17.12h-9.12zm-50.878 56v11.76h7.04l1.6-19.44h-8v-48.32h-8.64v48.32h-16.24v-48.32h-8.64v48.32h-16.24v-48.32h-8.64v56zm-141.118-56h-8.64v56h58.4v-56h-8.64v48.32h-16.24v-48.32h-8.64v48.32h-16.24zm-79.2 19.04c0 11.36 5.44 15.6 17.28 15.6a31.091 31.091 0 0011.04-2.4v23.76h8.64v-56h-8.64v24.64a25.188 25.188 0 01-10.24 2.32c-5.84 0-9.44-2.32-9.44-9.12v-17.84h-8.64zm-35.438 36.96v11.76h7.04l1.6-19.44h-8v-48.32h-8.64v48.32h-22.96v-48.32h-8.64v56zm1114.384-140.582l-10.96-20.56h-10.24l15.68 26.96-17.28 29.04h10.24l12.56-22.24h.32l12.96 23.04 9.84-.8-17.28-29.04 15.68-26.96h-10.24l-10.96 20.56zm-66.798 22.64a17.573 17.573 0 01-5.36-.64v-29.92a17.573 17.573 0 015.36-.64c7.92 0 11.52 6.88 11.52 15.6 0 8.72-3.6 15.6-11.52 15.6m-19.2 0c-7.92 0-11.52-6.88-11.52-15.6 0-8.72 3.6-15.6 11.52-15.6a17.572 17.572 0 015.36.64v29.92a17.572 17.572 0 01-5.36.64m13.84 14.4v-7.68a26.274 26.274 0 006.56.8c13.28 0 19.2-10 19.2-23.04 0-13.2-5.92-23.2-19.2-23.2a26.274 26.274 0 00-6.56.8v-7.68h-8.48v7.68a26.765 26.765 0 00-6.56-.8c-13.28 0-19.2 10-19.2 23.2 0 13.04 5.92 23.04 19.2 23.04a26.765 26.765 0 006.56-.8v7.68zm-96.16-3.6a13.904 13.904 0 008.8 2.8c7.68 0 11.68-6.24 14.16-12.8l16.56-44h-9.6l-10.96 30.88h-.32l-13.92-30.88h-10.08l18.64 39.68h2.4l-1.04 2.64c-1.76 4.48-3.36 6.8-5.92 6.8a7.274 7.274 0 01-4.8-1.76zm-28.158-46.32l1.6-7.68h-42v7.68h16.64v48.32h8.64v-48.32zm-80.4-.8a24.527 24.527 0 0111.28 2.72l3.36-6.8a28.908 28.908 0 00-14.64-3.6c-16.64 0-23.2 12.64-23.2 28.8s6.56 28.8 23.2 28.8a28.592 28.592 0 0015.6-4.32l-3.36-6.8a24.214 24.214 0 01-12.24 3.44c-10.24 0-14.24-9.28-14.24-21.12 0-11.84 4-21.12 14.24-21.12m-69.598.8c5.84 0 9.76 3.84 9.76 10.48s-3.92 10.48-9.76 10.48h-8.72v-20.96zm.16 28.64c10.64 0 18.64-6.16 18.64-18.16s-8-18.16-18.64-18.16h-17.52v56h8.64v-19.68zm-82.88 19.68v-48.32h23.12v48.32h8.64v-56h-40.4v56zm-48.8-28c0 11.84-4 21.12-14.24 21.12s-14.24-9.28-14.24-21.12c0-11.84 4-21.12 14.24-21.12s14.24 9.28 14.24 21.12m8.96 0c0-16.16-6.56-28.8-23.2-28.8s-23.198 12.64-23.198 28.8 6.559 28.8 23.199 28.8 23.2-12.64 23.2-28.8m-109.598-28h-8.64v56h8.64v-25.12h23.36v25.12h8.64v-56h-8.64v23.2h-23.36zm-52.64 14.56h.32l3.84 41.44h8.64l-5.2-56h-10.64l-12.4 36.8h-.24l-12.4-36.8h-10.64l-5.2 56h8.64l3.84-41.44h.32l11.36 34.08h8.4zm-106.798-14.56c0 34.48-2.32 48.56-8.72 48.56a5.06 5.06 0 01-2.4-.56l-1.6 7.28a12.08 12.08 0 005.28 1.12c12.16 0 16.08-15.68 16.08-48.72h14.4v48.32h8.64v-56zm-34.4 0h-9.84l-16.64 23.36h-4.4v-23.36h-8.64v56h8.64v-25.28h4.16l18.48 26.08 9.92-.8-20.8-29.52zm-86.397-13.92a8.758 8.758 0 01-8.32 5.52 9.032 9.032 0 01-8.32-5.52l-5.68 4c3.04 5.04 7.92 7.52 14 7.52s10.8-2.32 14-7.52zm4.32 29.68h.32v40.24h8.64v-56h-7.6l-26.64 40.24h-.32v-40.24h-8.64v56h7.6zm-76.8 0h.32v40.24h8.642v-56h-7.601l-26.64 40.24h-.32v-40.24h-8.64v56h7.6zm-85.518 33.36a24.682 24.682 0 01-12.8-3.92l-3.92 6.8a30.625 30.625 0 0016.72 4.8c11.52 0 20.48-5.2 20.48-16.64 0-7.76-4.48-12.08-11.52-13.6v-.24c5.12-1.36 9.52-5.76 9.52-13.12 0-9.76-8.32-14-18.32-14a32.708 32.708 0 00-15.6 3.6l3.44 6.8a25.717 25.717 0 0111.76-2.72c6.16 0 9.84 2.88 9.84 8 0 4.72-3.68 8.48-9.44 8.48h-6.88v7.36h6.96c7.28 0 11.36 3.04 11.36 8.72 0 6-4.72 9.68-11.6 9.68m-41.6-49.12h-10.32l-12.96 23.2h-3.6v-23.2h-8.64v23.2h-3.6l-13.12-23.2h-10.16l16.08 26.96-17.76 29.04h10.4l14.64-25.12h3.52v25.12h8.64v-25.12h3.44l15.04 25.92 10.08-.8-17.76-29.04zm-101.84-8.32a4.716 4.716 0 004.88 4.72 4.784 4.784 0 004.96-4.72 4.85 4.85 0 00-4.96-4.8 4.782 4.782 0 00-4.88 4.8m-17.04 0a4.716 4.716 0 004.88 4.72 4.784 4.784 0 004.96-4.72 4.85 4.85 0 00-4.96-4.8 4.782 4.782 0 00-4.88 4.8m29.2 64.32v-7.68h-23.04v-17.44h19.04v-7.68h-19.04v-15.52h21.44l1.6-7.68h-31.68v56zm-63.678 0v-7.68h-23.04v-17.44h19.04v-7.68h-19.04v-15.52h21.44l1.6-7.68h-31.68v56zm-106.72 0h38v11.76h7.04l1.6-19.44h-8v-48.32h-32.72v6.24c0 18.4-2.08 34-8.16 42.08h-6.4l1.6 19.44h7.04zm7.44-7.68c4.16-7.92 6.88-21.76 6.88-35.68v-4.96h15.68v40.64zm-35.678-40.64l1.6-7.68h-31.2v56h8.64v-48.32zm-81.2 0c6.16 0 9.44 2.64 9.44 7.76 0 4.72-3.76 8.08-9.12 8.08h-7.52v-15.84zm.32 23.2c7.2 0 11.12 2.88 11.12 8.56 0 5.36-4.16 8.88-11.04 8.88h-7.6v-17.44zm8.56-4.64c5.12-1.36 9.52-5.44 9.52-12.8 0-9.76-7.52-13.44-17.52-13.44h-16.72v56h16.72c10.96 0 19.52-4.08 19.52-15.52 0-7.76-4.48-12.24-11.52-13.92zm-73.838 3.68c7.76 0 10.96 3.52 10.96 9.2 0 5.36-3.28 9.2-10.88 9.2h-7.28v-18.4zm14.56-22.24l1.6-7.68h-32v56h16.4c11.68 0 19.36-5.44 19.36-16.88s-7.76-16.88-19.36-16.88h-7.76v-14.56zm-73.84 27.84h-15.2l7.44-24.08h.4zm-21.36 20.48l3.92-13.04h19.68l4 13.04h9.2l-18.72-56h-8.56l-18.72 56zm1430.742-114.503c-2.88 10.24-11.84 16.48-21.2 19.68l2.64 5.68c16.56-4.8 28.56-15.92 28.56-36.16 0-13.28-6.88-21.44-18.16-21.44-10.64 0-18.24 6.72-18.24 18.24 0 10.72 6.64 17.68 15.92 17.68a14.34 14.34 0 0010.24-3.76zm1.84-10.56c-1.76 4.24-5.68 7.28-10 7.28-5.68 0-9.76-3.6-9.76-10.72s4.08-11.28 9.76-11.28c6 0 10 5.84 10 14.72m-73.839 20.72c11.6 0 18-5.68 18-15.76 0-5.68-3.6-10.88-9.28-14.4v-.32c4.08-2.8 7.44-6.72 7.44-12.96 0-8.96-6-14.16-16.16-14.16s-16.16 5.2-16.16 14.16c0 6.24 3.36 10.16 7.44 12.96v.32c-5.68 3.52-9.28 8.72-9.28 14.4 0 10.08 6.4 15.76 18 15.76m-8.08-43.44c0-4.72 3.52-7.2 8.08-7.2 4.56 0 8.08 2.48 8.08 7.2 0 4.16-2.24 7.76-6 10.4l-3.68-1.6c-3.6-1.6-6.48-4.48-6.48-8.8m9.68 18.08c4.64 1.92 8.32 4.8 8.32 9.6 0 5.84-3.76 8.8-9.92 8.8s-9.92-2.96-9.92-8.8c0-4.56 3.12-8.48 7.68-11.2zm-77.44 39.76h9.04l20.8-49.84v-6.16h-34.8l-1.6 6.96h27.76zm-60.158-46.64c2.88-10.24 11.84-16.48 21.2-19.68l-2.64-5.68c-16.56 4.8-28.56 15.92-28.56 36.16 0 13.28 6.88 21.44 18.16 21.44 10.64 0 18.24-6.72 18.24-18.24 0-10.72-6.64-17.68-15.92-17.68a14.34 14.34 0 00-10.24 3.76zm-1.84 10.56c1.76-4.24 5.68-7.28 10-7.28 5.68 0 9.76 3.6 9.76 10.72s-4.08 11.28-9.76 11.28c-6 0-10-5.84-10-14.72m-56.08 29.92c-4.96 0-8.48-1.76-11.92-4.16l-3.76 6.4a28.09 28.09 0 0016.24 4.72c10.16 0 18.96-6.32 18.96-18.64 0-12.72-8-18.64-18.64-18.64a29.08 29.08 0 00-5.12.48v-13.04h20.08l1.6-6.96h-29.92v28.88a29.549 29.549 0 0111.76-2.4c6.56 0 11.76 3.68 11.76 11.68 0 7.52-4.96 11.68-11.04 11.68m-60.64-49.84l-21.44 34.64v6.16h23.12v15.2h8.24v-15.2h7.44l1.6-6.96h-9.04v-10h-8.24v10h-13.28v-.32l20.96-33.52zm-48.638 39.04c0-10-6.24-15.44-14.72-16.64v-.32l12.24-15.92v-6.16h-30.08l-1.6 6.96h22.16v.32l-12.8 16.64v4.24h4.24c6.72 0 12.08 3.12 12.08 10.88 0 7.44-4.96 10.8-11.04 10.8-4.96 0-8.48-1.76-11.92-4.16l-3.76 6.4a28.093 28.093 0 0016.24 4.72c10.16 0 18.96-5.44 18.96-17.76m-81.04-32.88c5.04 0 7.76 2.08 7.76 6.4 0 8.96-13.44 17.36-25.12 22.08v6.16h33.6l1.6-6.96h-19.2v-.32c8.96-3.76 17.6-12 17.6-20.96 0-8.16-5.04-13.36-16.24-13.36-5.6 0-10.48 1.2-16.4 3.84l3.12 6.64a31.094 31.094 0 0113.28-3.52m-78.16-6.16l-1.6 6.96h13.52v26.88h-14.72v6.96h36v-6.96h-13.04v-33.84zm-29.998 20.4c0-14.24-7.6-21.2-19.6-21.2s-19.6 6.96-19.6 21.2 7.68 21.2 19.6 21.2c11.92 0 19.6-6.96 19.6-21.2m-30.72 0c0-9.36 4.64-14.24 11.04-14.24 6.56 0 11.2 4.88 11.2 14.24s-4.64 14.24-11.2 14.24c-6.4 0-11.04-4.88-11.04-14.24m-45.68 33.04h7.2v-68.64h-7.2zm-41.52-37.12c-2.64 9.68-11.36 15.12-20.88 18.72l3.04 6.56c16.56-4.8 27.76-17.04 27.76-37.04 0-12.96-6.88-20.56-18.16-20.56-10.48 0-18.24 7.04-18.24 18 0 11.28 6.56 17.6 16.08 17.6 4.08 0 7.6-1.04 10.16-3.44zm1.44-10.96a10.804 10.804 0 01-9.68 6.96c-5.44 0-9.6-3.68-9.6-10.32s4.16-10.32 9.6-10.32c6.16 0 9.68 5.68 9.68 13.68m-73.518 36.24c10.96 0 18-5.92 18-16 0-6.32-3.84-11.2-9.28-14v-.24a14.275 14.275 0 007.52-12.8c0-8.96-6.08-14.56-16.24-14.56s-16.24 5.6-16.24 14.56a14.146 14.146 0 007.52 12.72v.24c-5.44 2.8-9.28 7.76-9.28 14.08 0 10.08 7.04 16 18 16m-7.92-43.04c0-4.32 3.36-6.88 7.92-6.88s7.92 2.56 7.92 6.88c0 4.08-2.08 7.36-5.76 9.92l-2.56-1.04c-4.08-1.68-7.52-4.08-7.52-8.88m8.64 17.44c4.72 2 8.96 4.8 8.96 9.6 0 5.52-4.08 8.32-9.68 8.32s-9.68-2.48-9.68-8.32c0-4.56 2.4-8.32 7.04-11.04zm-75.36 24.8h9.12l19.52-49.12v-6.88h-34.8l-1.6 7.68h27.52zm-61.44-31.12c2.96-10.16 12.48-16 21.68-19.28l-2.96-6.4c-16.56 4.8-28.64 17.2-28.64 36.56 0 12.56 6.88 21.04 18.16 21.04 10.4 0 18.24-6.56 18.24-18 0-11.76-7.04-17.6-16.08-17.6a14.634 14.634 0 00-10.16 3.84zm-1.44 10.88a10.723 10.723 0 019.68-6.88c5.44 0 9.52 3.28 9.52 9.92 0 6.64-4.08 10.32-9.52 10.32-6.16 0-9.68-5.36-9.68-13.36m-56.398 13.36a19.333 19.333 0 01-11.6-3.76l-4.08 6.72a28.092 28.092 0 0016.24 4.72c10.16 0 18.96-6.48 18.96-18.8 0-12.72-8.4-18.8-18.64-18.8a27.343 27.343 0 00-4.96.48v-12h19.92l1.6-7.68h-29.92v28.96a28.285 28.285 0 0111.6-2.4c6.32 0 11.68 3.92 11.68 11.44s-4.96 11.12-10.8 11.12m-61.44-49.12l-20.64 36.08v6.8h22.8v13.12h8.4v-13.12h7.6l1.6-7.6h-9.2v-10.16h-8.4v10.16h-12.72v-.32l20-34.96zm-61.76 22.32v-.24l11.44-15.2v-6.88h-29.28l-1.6 7.68h21.36v.32l-12 16.08v4.32h4.16c6.32 0 11.12 2.96 11.12 10.4 0 7.12-4.64 10.32-10.8 10.32a19.333 19.333 0 01-11.6-3.76l-4.08 6.72a28.092 28.092 0 0016.24 4.72c10.16 0 18.96-5.76 18.96-18.08 0-10.8-6.4-15.12-13.92-16.4m-72.078 25.68c9.76-7.76 21.2-21.12 21.2-33.44 0-9.76-5.68-15.36-15.52-15.36-6.56 0-10.72 1.28-17.12 4.72l3.84 6.72c3.76-2.32 7.44-3.76 11.76-3.76 5.68 0 8.32 3.36 8.32 8.72 0 10.72-13.92 25.28-24.88 33.52v6.88h33.6l1.6-7.68h-22.8zm-73.2-48l-1.6 7.68h13.44v40.64h-14.64v7.68h36v-7.68h-12.96v-48.32zm-30 28c0-18.96-7.28-28.8-19.6-28.8s-19.6 9.84-19.6 28.8 7.28 28.8 19.6 28.8 19.6-9.84 19.6-28.8m-30.48 0c0-14.88 4.48-21.12 10.88-21.12s10.88 6.24 10.88 21.12-4.48 21.12-10.88 21.12-10.88-6.24-10.88-21.12m1405.341-110.983h20.24v.32l-21.44 27.04v6.48h30.4l1.6-6.96h-22.16v-.32l21.36-27.04v-6.48h-30zm-58.879 49.92a18.394 18.394 0 007.04 1.52c4.4 0 9.2-1.92 11.76-9.76l15.68-48.64h-8.96l-9.44 31.28h-.32l-10.56-31.28h-9.12l14.32 40.8h2.96l-1.76 5.92c-1.12 3.84-3.2 4.72-5.04 4.72a11.866 11.866 0 01-4.4-1.04zm-33.759-15.28l8.64-.8-14.08-20.96 13.28-19.84h-9.36l-8.72 14.16h-.24l-8.8-14.16h-9.28l13.36 19.84-14.16 20.96h9.2l9.68-14.88h.24zm-84.479-41.6l-6.88 30.88h-.32l-7.84-30.88h-9.04l11.84 40.8h9.6l7.28-29.52h.24l7.28 29.52h9.6l11.76-40.8h-9.04l-7.76 30.88h-.32l-6.88-30.88zm-67.998 40.8h9.36l13.76-40.8h-9.2l-9.12 31.68h-.24l-9.121-31.68h-9.2zm-47.679-11.84c-2.16 3.04-6.4 5.68-9.6 5.68-4.8 0-7.76-2.96-7.76-9.68v-24.96h-8.32v24.96c0 11.52 5.36 16.64 14.08 16.64a15.874 15.874 0 0012.08-5.12h.32l1.6 4.32h5.92v-40.8h-8.32zm-52.879 4.56a22.578 22.578 0 01-6.56 1.12c-3.12 0-5.44-1.44-5.44-5.52v-22.16h10.72l1.6-6.96h-12.32v-12.64l-8.32 1.6v11.04h-6.96v6.96h6.96v21.76c0 9.52 5.44 12.88 12.8 12.88a28.036 28.036 0 008.72-1.44zm-70.879-22.88c0-2.8 2.08-4.48 6.48-4.48a26.044 26.044 0 019.44 2.08l2.72-6.24a30.114 30.114 0 00-12.72-2.8c-8.56 0-14.24 3.84-14.24 11.04 0 7.92 6.08 11.04 10.96 12.48 4.56 1.36 8.64 2.8 8.64 6.96 0 3.04-2.24 4.96-6.96 4.96a26.414 26.414 0 01-10.72-2.4l-2.8 6.56a34.053 34.053 0 0013.76 2.8c9.2 0 15.04-4.88 15.04-12.32 0-7.52-6.72-11.04-12.64-12.72-4.4-1.28-6.96-2.48-6.96-5.92m-32.799-10.64a18.147 18.147 0 00-5.2-.8c-5.68 0-8.4 2.96-10.4 7.12h-.32l-1.6-6.32h-5.92v40.8h8.32v-24.4c.72-5.04 3.84-9.44 8.16-9.44a9.72 9.72 0 014.24.8zm-74.879 41.6c4.48 0 7.68-1.6 10.8-4.72h.32v21.52l8.32-1.6v-54.4a46.206 46.206 0 00-16.8-3.2c-11.36 0-19.12 7.92-19.12 21.2s6.24 21.2 16.48 21.2m1.76-6.96c-6.56 0-9.76-5.36-9.76-14.24 0-8.96 4.4-14.24 10.56-14.24a24.466 24.466 0 018.56 1.52v21.36c-2.48 3.36-6.16 5.6-9.36 5.6m-63.999 0a14.876 14.876 0 01-9.04-2.88v-20.56c2.48-3.04 5.36-5.04 8.72-5.04 7.04 0 10.4 5.84 10.4 14.24 0 9.04-3.76 14.24-10.08 14.24m-9.04 4.8a24.072 24.072 0 0010.4 2.16c12.16 0 17.2-9.04 17.2-21.2s-4.96-21.2-16.48-21.2a14.462 14.462 0 00-11.6 5.12h-.32l-1.6-4.32h-5.92v58.4l8.32-1.6zm-56.719 2.16c11.36 0 18.8-7.92 18.8-21.2s-7.44-21.2-18.8-21.2-18.8 7.92-18.8 21.2 7.44 21.2 18.8 21.2m0-35.44c6.24 0 10.32 5.28 10.32 14.24s-4.08 14.24-10.32 14.24-10.32-5.28-10.32-14.24 4.08-14.24 10.32-14.24m-72.08 5.68c2.16-3.04 5.84-5.68 9.04-5.68 4.8 0 7.12 2.96 7.12 9.68v24.96h8.32v-25.52c0-10.72-4.32-16.08-13.44-16.08a14.727 14.727 0 00-11.52 5.12h-.32l-1.6-4.32h-5.92v40.8h8.32zm-52.958-12.64a16.838 16.838 0 00-11.84 5.12c-1.92-3.6-5.28-5.12-10.24-5.12-4.32 0-7.68 1.52-10.88 5.12h-.32l-1.6-4.32h-5.92v40.8h8.32v-28.96c1.92-3.04 5.28-5.68 8.16-5.68 4.4 0 6.48 2.96 6.48 9.68v24.96h8.32v-30.64c2.16-2.16 4.96-4 7.52-4 4.8 0 7.12 2.96 7.12 9.68v24.96h8.32v-25.52c0-10.72-4.32-16.08-13.44-16.08m-68.48 34.64a11.103 11.103 0 01-4.16.8c-2.24 0-3.44-1.36-3.44-4.4v-49.44l-8.32 1.6v47.84c0 7.84 3.6 11.36 10.4 11.36a18.244 18.244 0 006.8-1.2zm-43.518-33.84h-8.64l-10.72 16.48h-4.56v-35.68l-8.32 1.6v58.4h8.32v-17.68h4.48l11.76 18.48 8.48-.8-13.52-21.12zm-72.799-11.84a4.952 4.952 0 005.04 4.96 5.02 5.02 0 005.12-4.96 5.088 5.088 0 00-5.12-5.04 5.019 5.019 0 00-5.04 5.04m.96 58.64c0 2.96-1.44 4.64-3.84 4.64a12.166 12.166 0 01-5.12-1.36l-2.24 6.16a17.797 17.797 0 008.48 2.16c5.92 0 11.04-2.64 11.04-11.6v-46.8h-14.32l-1.6 6.96h7.6zm-44.559-58.64a4.952 4.952 0 005.04 4.96 5.02 5.02 0 005.12-4.96 5.088 5.088 0 00-5.12-5.04 5.019 5.019 0 00-5.04 5.04m.96 18.8v33.84h8.32v-40.8h-14.32l-1.6 6.96zm-50.64-.8c4.88 0 7.12 3.04 7.12 9.12v25.52h8.32v-25.52c0-10.72-4.16-16.08-13.28-16.08a14.63 14.63 0 00-10.88 5.12h-.32v-23.52l-8.32 1.6v58.4h8.32v-28.96c2.16-3.04 5.84-5.68 9.04-5.68m-71.838 33.44l10.32 1.6c4.32.72 6.48 2.08 6.48 4.72 0 3.12-2.4 5.52-10 5.52-7.36 0-10.56-2.24-10.56-5.84 0-2.72 1.52-4.64 3.76-6m6.96-33.6c5.76 0 8.56 3.2 8.56 7.52 0 4.32-2.8 7.52-8.56 7.52-5.76 0-8.56-3.2-8.56-7.52 0-4.32 2.8-7.52 8.56-7.52m16.64 7.52a14.246 14.246 0 00-2.4-8.16h4.88l1.6-7.76-12.72 3.04a22.295 22.295 0 00-8-1.44c-10 0-16.64 5.36-16.64 14.32a13.398 13.398 0 004.8 10.8c-2.4 1.68-4.16 4.32-4.16 7.04a7.01 7.01 0 003.12 6.24 11.135 11.135 0 00-5.44 9.44c0 7.2 6.4 11.36 18.16 11.36 10.48 0 18.48-3.92 18.48-12.64 0-7.6-6.64-10.32-11.84-11.2l-11.44-1.84c-2.24-.4-3.2-1.6-3.2-3.36a3.311 3.311 0 011.28-2.48 22.692 22.692 0 006.88.96c10 0 16.64-5.36 16.64-14.32m-85.44-6.56h6.88v33.84h8.32v-33.84h9.28l1.6-6.96h-10.88v-5.36c0-4.64 2.32-6.88 5.92-6.88a14.645 14.645 0 016.24 1.44l2.72-6.16a22.952 22.952 0 00-10.16-2.24c-8 0-13.04 4.56-13.04 15.04v4.16h-6.88zm-41.439-.8c6.16 0 9.2 4.08 9.2 9.68h-18.88c.72-5.76 4.16-9.68 9.68-9.68m16.64 9.44c0-10-5.84-16.4-16.8-16.4-11.04 0-18.4 7.76-18.4 21.2 0 13.36 7.84 21.2 19.84 21.2a29.83 29.83 0 0013.68-3.44l-2.72-6.32a22.648 22.648 0 01-10.16 2.8c-7.36 0-11.52-4.4-12.08-12.32h25.92a34.38 34.38 0 00.72-6.72m-81.358-9.44a14.875 14.875 0 019.04 2.88v20.56c-2.48 3.04-5.36 5.04-8.72 5.04-7.04 0-10.4-5.84-10.4-14.24 0-9.04 3.76-14.24 10.08-14.24m9.04-4.8a24.071 24.071 0 00-10.4-2.16c-12.16 0-17.2 9.04-17.2 21.2s4.96 21.2 16.48 21.2a14.336 14.336 0 0011.6-5.12h.32l1.6 4.32h5.92v-60l-8.32 1.6zm-64.399 33.28c-6.88 0-11.44-5.76-11.44-14.24s4.64-14.24 11.52-14.24a20.887 20.887 0 018.16 1.6l2.56-6.4a29.39 29.39 0 00-11.2-2.16c-13.2 0-19.52 9.44-19.52 21.2s6.72 21.2 19.92 21.2a26.969 26.969 0 0011.2-2.32l-2.56-6.4a23.48 23.48 0 01-8.64 1.76m-63.359-35.44c-3.84 0-7.52 1.76-10.64 5.12h-.32v-23.52l-8.32 1.6v56a45.802 45.802 0 0016.72 3.2c11.36 0 18.8-7.92 18.8-21.2s-6-21.2-16.24-21.2m-10.96 12.64c2.16-3.04 5.92-5.68 9.2-5.68 6.56 0 9.52 5.36 9.52 14.24 0 8.96-4.08 14.24-10.24 14.24a24.032 24.032 0 01-8.48-1.52zm-47.199 24.64a6.32 6.32 0 006.48 4.72 14.704 14.704 0 004.8-.8v-6.16h-.88a2.577 2.577 0 01-2.88-2.88v-28.96a41.232 41.232 0 00-16.16-3.2c-13.6 0-18.88 9.04-18.88 21.2s4.48 21.2 16 21.2a13.637 13.637 0 0011.2-5.12zm-10.08-1.84c-6.72 0-8.96-5.84-8.96-14.24s3.04-14.24 10.4-14.24a17.164 17.164 0 017.84 1.68v20.96c-2.32 3.68-5.36 5.84-9.28 5.84m-63.359-17.84c-9.04 0-15.44 4.48-15.44 12.24 0 8.32 4.88 12.16 12.64 12.16a14.906 14.906 0 0011.52-4.72h.32a6.32 6.32 0 006.48 4.72 14.706 14.706 0 004.8-.8v-6.16h-.88a2.577 2.577 0 01-2.88-2.88v-17.12c0-8.48-2.96-15.04-15.44-15.04a39.956 39.956 0 00-14.4 2.64l2.4 6.48a32.204 32.204 0 0111.04-2.16c6 0 8.08 3.04 8.08 7.92v2.72zm8.24 6.48v6.32c-2.4 3.04-5.52 5.04-9.44 5.04-3.28 0-6-1.76-6-5.44s2.88-5.92 6.88-5.92zm1609.095-94.663V116h37.599l1.6-7.68h-28.64V108l28.64-40.96V60h-37.6v7.68h27.04l-.08.32zm-44.24-25.6h-.32l-12-23.36h-10.08l18 32.64V116h8.64V92.64l18-32.64h-10.08zm-66.318-2.8L1675.59 60h-10.24l15.68 26.96-17.28 29.04h10.24l12.56-22.24h.32l12.96 23.04 9.84-.8-17.28-29.04L1708.07 60h-10.24l-10.96 20.56zm-77.04-8.24l8.96 43.68h10.4l14.08-56h-9.68l-9.52 44.08h-.32l-8.8-44.08h-10.48l-8.8 44.08h-.32L1585.51 60h-9.68l14.08 56h10.4l8.88-43.68zm-76 31.76h-.32l-12.8-44.08h-9.44l17.44 56h10l17.44-56h-9.44zM1484.552 60h-8.64v38.4c0 6.32-4.32 10.72-11.36 10.72s-11.36-4.4-11.36-10.72V60h-8.64v38.8c0 10.64 8 18 20 18s20-7.36 20-18zm-69.197 7.68l1.6-7.68h-42v7.68h16.64V116h8.64V67.68zm-84.72 41.44a20.843 20.843 0 01-13.12-4.32l-4.56 7.04a30.557 30.557 0 0017.68 4.96c12.56 0 19.52-5.84 19.52-15.76 0-10.4-7.76-14.24-16.56-17.68-4.88-1.92-10.4-4.88-10.4-9.44s3.12-7.04 9.2-7.04a21.4 21.4 0 0111.92 3.44l4.08-6.8a31.728 31.728 0 00-16-4.32c-11.36 0-18.16 5.6-18.16 15.2 0 9.28 8.24 13.36 15.44 16.16 6.16 2.4 11.52 5.44 11.52 10.96 0 5.2-4.32 7.6-10.56 7.6m-64.238-41.44c5.12 0 8.96 3.36 8.96 8.96 0 5.6-3.84 8.8-8.96 8.8h-8V67.68zm.4-7.68h-17.04v56h8.64V93.12h4.96l14.64 23.68 9.36-.8-14.64-23.68c6.8-1.84 11.6-7.04 11.6-15.68 0-10.96-7.84-16.64-17.52-16.64m-57.2 28c0 6.8-1.36 12.8-4.4 16.64l-7.68-10.08-6.24 4.72 7.28 9.52a14.015 14.015 0 01-3.2.32c-10.24 0-14.24-9.28-14.24-21.12 0-11.84 4-21.12 14.24-21.12s14.24 9.28 14.24 21.12m8.96 0c0-16.16-6.56-28.8-23.2-28.8s-23.2 12.64-23.2 28.8 6.56 28.8 23.2 28.8a26.337 26.337 0 008.32-1.28l8.48 11.04 6.16-4.8-7.84-10.24c5.6-5.12 8.08-13.44 8.08-23.52m-92.798-20.32c5.84 0 9.76 3.84 9.76 10.48s-3.92 10.48-9.76 10.48h-8.72V67.68zm.16 28.64c10.64 0 18.64-6.16 18.64-18.16s-8-18.16-18.64-18.16h-17.52v56h8.64V96.32zm-57.68-8.32c0 11.84-4 21.12-14.24 21.12s-14.24-9.28-14.24-21.12c0-11.84 4-21.12 14.24-21.12s14.24 9.28 14.24 21.12m8.96 0c0-16.16-6.56-28.8-23.2-28.8s-23.2 12.64-23.2 28.8 6.56 28.8 23.2 28.8 23.2-12.64 23.2-28.8M966.88 60h-9.28v56h8.64V74.4h.32l23.76 41.6h9.28V60h-8.64v41.68h-.32zM913.6 74.56h.32l3.84 41.44h8.64l-5.2-56h-10.64l-12.4 36.8h-.24L885.52 60h-10.64l-5.2 56h8.64l3.84-41.44h.32l11.36 34.08h8.4zM842.483 116l1.6-7.68h-25.36V60h-8.64v56zm-61.278-56h-9.84l-16.64 23.36h-4.4V60h-8.64v56h8.64V90.72h4.16l18.48 26.08 9.92-.8-20.8-29.52zm-88.4 49.12a18.7 18.7 0 01-8.4-2.16l-3.12 6.88a25.755 25.755 0 0012.56 2.96c8.96 0 15.04-5.84 15.04-16V60h-21.2l-1.6 7.68h14.16v33.12c0 5.28-3.04 8.32-7.44 8.32M656.087 116v-7.68h-9.2V67.68h8l1.6-7.68h-27.44v7.68h9.2v40.64h-9.2V116zm-90.238-56h-8.64v56h8.64V90.88h23.36V116h8.64V60h-8.64v23.2h-23.36zm-56.72 6.88a24.6 24.6 0 0111.76 2.88l3.44-6.96a30.334 30.334 0 00-15.2-3.6c-16.64 0-23.52 12.64-23.52 28.8s6.88 28.8 23.52 28.8a25.892 25.892 0 0016.48-5.12V85.84h-17.92v7.52h9.84v14.24a19.642 19.642 0 01-8.08 1.52c-10.56 0-14.88-9.28-14.88-21.12 0-11.84 4.32-21.12 14.56-21.12m-52.32 25.68v-7.68h-21.84v-17.2h21.84l1.6-7.68h-32.08v56h8.64V92.56zM394.33 116v-7.68h-23.04V90.88h19.04V83.2h-19.04V67.68h21.44l1.6-7.68h-31.68v56zm-85.76-48.32c9.36 0 13.92 8.88 13.92 20.32s-4.56 20.32-13.92 20.32h-9.2V67.68zm0 48.32c15.84 0 22.88-11.68 22.88-28s-7.04-28-22.88-28h-17.84v56zm-63.44-49.12a24.527 24.527 0 0111.28 2.72l3.36-6.8a28.908 28.908 0 00-14.64-3.6c-16.64 0-23.2 12.64-23.2 28.8s6.56 28.8 23.2 28.8a28.591 28.591 0 0015.6-4.32l-3.36-6.8a24.214 24.214 0 01-12.24 3.44c-10.24 0-14.24-9.28-14.24-21.12 0-11.84 4-21.12 14.24-21.12m-72.398.8c6.16 0 9.44 2.64 9.44 7.76 0 4.72-3.76 8.08-9.12 8.08h-7.52V67.68zm.32 23.2c7.2 0 11.12 2.88 11.12 8.56 0 5.36-4.16 8.88-11.04 8.88h-7.6V90.88zm8.56-4.64c5.12-1.36 9.52-5.44 9.52-12.8 0-9.76-7.52-13.44-17.52-13.44h-16.72v56h16.72c10.96 0 19.52-4.08 19.52-15.52 0-7.76-4.48-12.24-11.52-13.92zm-68.16 9.28h-15.2l7.44-24.08h.4zM92.093 116l3.92-13.04h19.68l4 13.04h9.2l-18.72-56h-8.56l-18.72 56z" fill="#a6ff45"/></svg>