<svg id="Layer_1" data-name="Layer 1" xmlns="http://www.w3.org/2000/svg" viewBox="0 0 1920 940"><defs><clipPath id="clip-path"><path fill="none" d="M0-140h1920V940H0z"/></clipPath><style>.cls-2{clip-path:url(#clip-path)}.cls-4{opacity:.5}.cls-5{fill:#ffdc00}</style></defs><g class="cls-2"><path d="M0-140h1920V940H0z"/><g class="cls-2"><path d="M1856.352 186.103a82.794 82.794 0 00-23.72-3.649c-25.91 0-38.318 13.502-47.44 32.479h-1.46l-7.3-28.83h-27.005v186.115h37.953V260.914c3.284-22.991 17.517-43.062 37.223-43.062 9.123 0 14.232 1.46 19.341 3.649zm-269.53 154.366c-8.028 2.919-13.138 3.649-18.976 3.649-10.218 0-15.692-6.204-15.692-20.071V98.52l-37.953 7.298v218.229c0 35.763 16.422 51.82 47.441 51.82a83.226 83.226 0 0031.02-5.474zM1291.02 132.093c0 12.773 10.218 22.626 22.991 22.626 12.772 0 23.355-9.853 23.355-22.626a23.207 23.207 0 00-23.355-22.99 22.895 22.895 0 00-22.99 22.99m4.378 85.759v154.366h37.953V186.103h-65.323l-7.298 31.749zm-297.629 0h31.384v154.366h37.952V217.852h42.332l7.3-31.749h-49.632v-24.45c0-21.166 10.583-31.384 27.005-31.384a66.797 66.797 0 0128.465 6.569l12.408-28.1c-13.868-6.204-27.005-10.218-46.347-10.218-36.493 0-59.483 20.801-59.483 68.607v18.976H997.77zm-225.372-3.649c28.1 0 41.967 18.611 41.967 44.156H728.24c3.285-26.275 18.977-44.156 44.157-44.156m75.905 43.062c0-45.617-26.64-74.811-76.635-74.811-50.36 0-83.934 35.398-83.934 96.706 0 60.944 35.763 96.707 90.503 96.707 23.72 0 44.521-6.569 62.403-15.692l-12.408-28.829c-13.502 6.933-29.559 12.772-46.346 12.772-33.574 0-52.55-20.071-55.104-56.199h118.237a156.801 156.801 0 003.284-30.654m-364.775 86.853c-31.384 0-52.185-26.275-52.185-64.958 0-38.682 21.166-64.957 52.55-64.957a95.284 95.284 0 0137.223 7.298l11.677-29.194a134.058 134.058 0 00-51.09-9.853c-60.213 0-89.043 43.062-89.043 96.706 0 53.645 30.654 96.707 90.868 96.707a123.017 123.017 0 0051.09-10.583L522.94 336.09a107.11 107.11 0 01-39.412 8.028m-336.674-81.379c-41.237 0-70.43 20.436-70.43 55.834 0 37.953 22.26 55.469 57.658 55.469 24.085 0 39.047-8.028 52.55-21.53h1.46c3.284 11.312 12.407 21.53 29.56 21.53 7.297 0 16.421-1.459 21.895-3.649v-28.1h-4.015c-8.028 0-13.137-4.014-13.137-13.137v-78.095c0-38.683-13.503-68.607-70.432-68.607a182.254 182.254 0 00-65.687 12.043l10.948 29.559c17.151-6.204 33.573-9.853 50.36-9.853 27.37 0 36.858 13.867 36.858 36.128v12.408zm37.588 29.559v28.829c-10.948 13.868-25.18 22.991-43.062 22.991-14.962 0-27.37-8.028-27.37-24.815s13.138-27.005 31.384-27.005zm1558.055 342.434a70.438 70.438 0 0116.422-1.824c31.384 0 44.521 26.275 44.521 64.957 0 38.683-13.137 64.958-44.521 64.958a70.381 70.381 0 01-16.422-1.825zm.73 158.015a143.414 143.414 0 0021.531 1.825c56.564 0 77-43.062 77-96.707 0-53.644-20.436-96.706-77-96.706a143.571 143.571 0 00-21.531 1.824v-85.758l-37.953 7.298v78.46a143.583 143.583 0 00-21.531-1.824c-56.564 0-77 43.062-77 96.706 0 53.645 20.436 96.707 77 96.707a143.427 143.427 0 0021.531-1.825v78.46l37.953-7.298zm-37.223-31.75a72.8 72.8 0 01-16.422 1.826c-31.384 0-44.522-26.275-44.522-64.958 0-38.682 13.138-64.957 44.522-64.957a70.444 70.444 0 0116.422 1.824zm-271.543-101.814h1.46l10.583 131.74h37.588l-17.882-186.115h-43.427l-43.791 118.967h-1.46l-43.792-118.967h-43.426l-17.882 186.115h37.588l10.583-131.74h1.459l36.493 101.45h39.413zM966.588 786.179c6.569 4.379 13.867 6.568 24.085 6.568 41.968 0 59.849-48.9 59.849-148.161v-8.03h50.36v154.367h37.953V604.808h-124.441v31.019c0 88.313-9.488 123.712-26.64 123.712a23.172 23.172 0 01-12.408-3.65zm-116.08-133.93c0-32.844-24.45-51.09-68.972-51.09-17.516 0-44.521 3.649-61.673 10.583l11.678 29.194c14.597-5.474 34.303-8.028 48.901-8.028 17.516 0 31.384 8.028 31.384 24.085 0 16.422-14.598 23.356-32.114 23.356h-22.261v30.289h25.18c27.37 0 37.223 9.853 37.223 25.91 0 15.327-16.787 26.275-40.507 26.275-16.787 0-36.493-3.65-49.631-8.758l-11.678 29.194c15.692 6.934 40.873 11.313 62.404 11.313 52.185 0 78.095-22.261 78.095-57.294 0-27.005-21.896-40.142-39.778-44.157v-1.094c16.787-4.015 31.75-19.707 31.75-39.778m-242.347-47.441h-39.047l-49.266 75.176h-12.773v-75.176h-36.857v75.176h-12.773l-49.266-75.176h-39.047l59.848 89.773-63.498 96.342h43.427l49.996-80.65h11.313v80.65h36.857v-80.65h11.313l52.55 84.299 40.873-3.65-63.498-96.341zM245.02 547.514l-11.313-30.29c-18.976 7.664-33.209 10.949-60.578 13.503-60.214 5.474-93.058 27.005-93.058 144.513 0 74.446 25.545 119.332 85.76 119.332 51.82 0 87.947-31.384 87.947-91.962 0-62.04-31.384-92.328-77-92.328-24.086 0-43.062 7.299-59.119 24.085h-1.095c0-53.28 19.707-67.512 60.214-70.431 23.72-1.825 48.171-6.57 68.242-16.422M118.024 673.78c13.867-22.261 33.574-31.75 52.185-31.75 25.91 0 44.887 20.072 44.887 60.58 0 40.507-20.802 60.213-49.266 60.213-32.844 0-47.806-29.56-47.806-89.043" fill="#fff"/><g class="cls-4"><path class="cls-5" d="M89.903 247.807A47.903 47.903 0 1042 199.904a47.903 47.903 0 0047.903 47.903"/></g><g class="cls-4"><path class="cls-5" d="M235.982 580a47.903 47.903 0 10-47.903-47.903A47.903 47.903 0 00235.982 580"/></g><g class="cls-4"><path class="cls-5" d="M487.903 741.807A47.904 47.904 0 10440 693.904a47.903 47.903 0 0047.903 47.903"/></g><g class="cls-4"><path class="cls-5" d="M728.097 816.3a47.904 47.904 0 10-47.903-47.903 47.903 47.903 0 0047.903 47.903"/></g><g class="cls-4"><path class="cls-5" d="M990.076 816.3a47.904 47.904 0 10-47.903-47.903 47.903 47.903 0 0047.903 47.903"/></g><g class="cls-4"><path class="cls-5" d="M1464.097 816.3a47.904 47.904 0 10-47.903-47.903 47.903 47.903 0 0047.903 47.903"/></g><g class="cls-4"><path class="cls-5" d="M1725.903 565.128A47.903 47.903 0 101678 517.225a47.903 47.903 0 0047.903 47.903"/></g><g class="cls-4"><path class="cls-5" d="M1725.903 897.933A47.904 47.904 0 101678 850.03a47.903 47.903 0 0047.903 47.903"/></g><g class="cls-4"><path class="cls-5" d="M524.265 400a47.903 47.903 0 10-47.903-47.903A47.903 47.903 0 00524.265 400"/></g><g class="cls-4"><path class="cls-5" d="M823.903 400A47.903 47.903 0 10776 352.097 47.903 47.903 0 00823.903 400"/></g><g class="cls-4"><path class="cls-5" d="M1124 160a47.903 47.903 0 10-47.903-47.903A47.903 47.903 0 001124 160"/></g><g class="cls-4"><path class="cls-5" d="M1271.903 247.807A47.903 47.903 0 101224 199.904a47.903 47.903 0 0047.903 47.903"/></g><g class="cls-4"><path class="cls-5" d="M1579.903 400A47.903 47.903 0 101532 352.097 47.903 47.903 0 001579.903 400"/></g><g class="cls-4"><path class="cls-5" d="M1846.28 247.807a47.903 47.903 0 10-47.903-47.903 47.903 47.903 0 0047.903 47.903"/></g></g></g></svg>