<svg data-name="Layer 1" xmlns="http://www.w3.org/2000/svg" viewBox="0 0 1920 720"><path d="M0-230h1920V850H0z"/><path d="M1605.45 634.053c12.844 5.255 30.36 11.093 51.378 11.093 32.111 0 67.142-14.012 85.825-71.23l114.433-354.976h-65.39l-68.894 228.283h-2.335L1643.4 218.94h-66.558L1681.35 516.7h21.602l-12.844 43.205c-8.174 28.025-23.354 34.447-36.782 34.447-12.26 0-23.354-4.087-32.112-7.59zM1480.745 132.53c0 20.435 16.347 36.199 36.782 36.199 20.434 0 37.366-15.764 37.366-36.2 0-20.433-16.932-36.781-37.366-36.781a36.629 36.629 0 00-36.782 36.782m7.006 137.204V516.7h60.72V218.94h-104.509l-11.676 50.795zM1354.11 522.539l63.056-5.838-102.757-152.967 96.918-144.794h-68.31l-63.639 103.34h-1.75l-64.224-103.34h-67.726l97.502 144.794L1139.84 516.7h67.142l70.645-108.595h1.751zm-488.553-414.53h-63.055v408.692h63.055V333.374h170.482V516.7h63.055V108.01h-63.055v169.315H865.556zM607.91 522.54c82.906 0 137.203-57.8 137.203-154.718 0-96.92-54.297-154.72-137.203-154.72s-137.203 57.8-137.203 154.72c0 96.918 54.297 154.718 137.203 154.718m0-258.643c45.54 0 75.316 38.534 75.316 103.925 0 65.39-29.776 103.924-75.316 103.924-45.54 0-75.316-38.534-75.316-103.924 0-65.391 29.776-103.925 75.316-103.925M295.263 108.01L144.631 371.324v49.626h166.396v95.75h61.303v-95.75h55.466l11.676-55.465H372.33v-74.148h-61.303v74.148h-92.83v-2.335l145.96-255.14z" fill="#aaff7e"/><path d="M60 517.2h1800M60 639.193h1800M60 218.539h1800M60 108.153h1800" fill="none" stroke="#ff0"/><path d="M97.47 73.858c0-6 1.77-8.52 4.53-8.52s4.53 2.52 4.53 8.52-1.77 8.52-4.53 8.52-4.53-2.52-4.53-8.52m11.73 0c0-7.11-2.58-10.8-7.2-10.8s-7.2 3.69-7.2 10.8c0 7.11 2.58 10.8 7.2 10.8s7.2-3.69 7.2-10.8m-28.53 0c0-6 1.77-8.52 4.53-8.52s4.53 2.52 4.53 8.52-1.77 8.52-4.53 8.52-4.53-2.52-4.53-8.52m11.73 0c0-7.11-2.58-10.8-7.2-10.8s-7.2 3.69-7.2 10.8c0 7.11 2.58 10.8 7.2 10.8s7.2-3.69 7.2-10.8m-27.33 10.5h2.58L75 65.338v-1.98H62.25l-.6 2.28h10.77zm32.4 100.595c0-6 1.77-8.52 4.53-8.52s4.53 2.52 4.53 8.52-1.77 8.52-4.53 8.52-4.53-2.52-4.53-8.52m11.73 0c0-7.11-2.58-10.8-7.2-10.8s-7.2 3.69-7.2 10.8c0 7.11 2.58 10.8 7.2 10.8s7.2-3.69 7.2-10.8m-29.25-10.5l-.6 2.28h5.19v16.44H78.9v2.28h13.2v-2.28h-5.01v-18.72zm-11.85 7.44a11.227 11.227 0 00-2.4.24v-5.4h7.77l.6-2.28H63.15v10.38a14.444 14.444 0 014.29-.78 4.37 4.37 0 014.74 4.71c0 3.15-1.89 4.71-4.41 4.71a7.666 7.666 0 01-4.62-1.5l-1.2 2.01a10.19 10.19 0 006.03 1.77c3.93 0 6.87-2.37 6.87-6.99 0-4.5-2.82-6.87-6.75-6.87m-4.23 302.721c0-6 1.77-8.52 4.53-8.52s4.53 2.52 4.53 8.52-1.77 8.52-4.53 8.52-4.53-2.52-4.53-8.52m11.73 0c0-7.11-2.58-10.8-7.2-10.8s-7.2 3.69-7.2 10.8 2.58 10.8 7.2 10.8 7.2-3.69 7.2-10.8m33.48 120.992c0-6 1.77-8.52 4.53-8.52s4.53 2.52 4.53 8.52-1.77 8.52-4.53 8.52-4.53-2.52-4.53-8.52m11.73 0c0-7.11-2.58-10.8-7.2-10.8s-7.2 3.69-7.2 10.8 2.58 10.8 7.2 10.8 7.2-3.69 7.2-10.8m-24.3-3.06a11.227 11.227 0 00-2.4.24v-5.4h7.77l.6-2.28H91.56v10.38a14.444 14.444 0 014.29-.78 4.37 4.37 0 014.74 4.71c0 3.15-1.89 4.71-4.41 4.71a7.666 7.666 0 01-4.62-1.5l-1.2 2.01a10.19 10.19 0 006.03 1.77c3.93 0 6.87-2.37 6.87-6.99 0-4.5-2.82-6.87-6.75-6.87m-13.32-1.74c0 4.65-5.4 10.02-9.63 13.32v1.98h12.3l.6-2.28h-9.15v-.12c3.6-2.88 8.55-8.1 8.55-13.14 0-3.66-1.98-5.76-5.67-5.76a11.853 11.853 0 00-6.27 1.77l1.11 2.01a9.23 9.23 0 014.59-1.5c2.55 0 3.57 1.35 3.57 3.72m-13.98 7.74l.6-2.13h-7.86v2.13z" fill="#fff"/></svg>