<svg data-name="Layer 1" xmlns="http://www.w3.org/2000/svg" viewBox="0 0 1857.099 930"><path d="M0 0h1920v930H0z"/><path d="M1830.57 282.9v-45.012c4.477-5.929 11.011-9.8 16.093-9.8 5.222 0 8.635 2.2 10.436 6.556v-13.467a23.556 23.556 0 00-7.774-1.197c-6.897 0-14.64 3.63-19.48 8.954h-.485l-2.42-7.744h-6.534v61.71zm26.53 133.584v-29.847c-.009-.348-.028-.69-.028-1.042s.019-.694.027-1.042v-29.839c-9.208 5.798-13.458 17.25-13.458 31.002 0 13.585 4.25 24.985 13.458 30.768m0 158.785v-9.31c-9.533-1.617-15.514-11.98-15.514-34.109s5.981-32.493 15.514-34.11v-9.309c-16.891 1.431-26.283 16.196-26.283 43.42 0 27.221 9.392 41.987 26.283 43.418m-1.485 228.521h-6.534v61.71h8.02v-56.958zm-18.028-67.12l-2.662 7.501a26.504 26.504 0 0010.406 2.3 15.864 15.864 0 0011.77-4.642v-36.153l-17.457-47.536h-10.648l22.748 61.71h4.961l-3.025 9.68c-2.178 7.14-5.082 8.833-8.833 8.833a17.829 17.829 0 01-7.26-1.694m-41.745 118.062l-3.267 7.744a48.595 48.595 0 0020.207 4.235c13.915 0 22.143-6.776 22.143-18.029 0-11.374-10.043-15.85-18.876-18.634-7.139-2.178-12.342-4.84-12.342-11.132 0-5.324 4.598-8.228 11.737-8.228 5.687 0 9.68 1.331 14.883 3.267l3.146-7.139a43.937 43.937 0 00-18.876-4.235c-12.584 0-20.691 5.93-20.691 16.335 0 11.98 9.075 15.61 16.335 18.03 7.381 2.42 14.883 5.202 14.883 12.22 0 5.808-4.477 9.438-12.705 9.438a39.356 39.356 0 01-16.577-3.872m-5.438-454.253V412.7a20.344 20.344 0 01-16.698 8.712c-6.413 0-10.527-3.509-10.527-10.285 0-7.018 4.96-10.648 12.463-10.648zm0-12.342v4.598h-14.278c-13.673 0-22.748 6.534-22.748 18.271 0 12.584 7.623 18.15 19.118 18.15 7.986 0 14.036-2.904 18.634-8.349h.484c.605 5.324 3.75 8.35 8.59 8.35a15.852 15.852 0 006.05-1.21v-6.898h-1.33c-2.662 0-4.356-1.33-4.356-4.356v-28.556c0-12.826-3.872-22.506-22.748-22.506a57.247 57.247 0 00-21.175 3.993l2.783 7.502a45.973 45.973 0 0116.94-3.388c11.01 0 14.036 5.566 14.036 14.4m-88.814 40.413v-45.012c4.477-5.929 11.01-9.8 16.093-9.8 8.228 0 11.979 5.444 11.979 16.213v38.6h10.164v-38.6c0-16.214-6.05-24.32-19.481-24.32-6.897 0-14.641 3.63-19.481 8.953h-.484l-2.42-7.744h-6.534v61.71zm53.724 136.454h-20.207V489.5h-28.798l-2.42 9.196h20.933v66.308h-22.748v9.196h53.24zm16.693 70.146v3.267c0 54.571-3.751 71.995-13.552 71.995a9.707 9.707 0 01-3.994-.968l-2.54 9.317a15.463 15.463 0 007.38 1.694c18.513 0 22.99-24.442 22.99-76.109h24.927v75.504h10.648v-84.7zm37.877-115.037c-3.025 7.502-9.196 12.826-16.456 12.826-9.68 0-16.214-6.05-16.214-17.666s6.534-17.787 16.214-17.787c10.89 0 16.456 9.075 16.456 22.627m-16.456-31.823c-15.73 0-26.983 9.922-26.983 26.983s10.043 26.862 23.716 26.862c6.655 0 11.616-2.299 16.335-6.776l.363.242c-4.72 16.335-18.876 26.741-33.154 32.428l3.751 7.381c24.805-7.139 42.834-29.282 42.834-55.297 0-18.997-9.801-31.823-26.862-31.823m-52.639 359.786c0-7.018 4.96-10.648 12.463-10.648h14.762v12.221a20.345 20.345 0 01-16.698 8.712c-6.413 0-10.527-3.509-10.527-10.285m-9.801-.12c0 12.583 7.623 18.15 19.118 18.15 7.985 0 14.036-2.905 18.634-8.35h.484c.605 5.324 3.751 8.35 8.59 8.35a15.854 15.854 0 006.05-1.21v-6.898h-1.33c-2.662 0-4.356-1.33-4.356-4.356v-28.556c0-12.826-3.873-22.506-22.748-22.506a57.247 57.247 0 00-21.175 3.993l2.782 7.502a45.978 45.978 0 0116.94-3.388c11.012 0 14.037 5.566 14.037 14.4v4.597h-14.278c-13.673 0-22.748 6.534-22.748 18.271m-34.001-44.165h-6.534v61.71h10.164v-37.268c1.21-8.712 5.445-16.335 13.552-16.335a17.737 17.737 0 017.381 1.452l3.146-9.559a27.445 27.445 0 00-7.865-1.21c-8.591 0-13.794 4.235-16.94 11.98h-.484zm-32.184-145.65l20.086 61.71h18.029l20.086-61.71h-18.755l-10.164 38.115h-.363l-10.164-38.115zm-231.831-265.043v24.321a30.46 30.46 0 01-14.036 3.146c-17.787 0-24.321-15.125-24.321-34.364s6.655-34.364 23.837-34.364a36.907 36.907 0 0118.271 4.598l4.114-8.349a43.719 43.719 0 00-22.385-5.445c-25.168 0-34.969 19.118-34.969 43.56s9.801 43.56 34.969 43.56c10.043 0 16.093-2.057 24.321-7.744v-37.873h-27.104v8.954zm-36.297 153.031v12.221a20.344 20.344 0 01-16.698 8.712c-6.413 0-10.527-3.509-10.527-10.285 0-7.018 4.96-10.648 12.463-10.648zm0-12.342v4.598h-14.278c-13.673 0-22.748 6.534-22.748 18.271 0 12.584 7.623 18.15 19.118 18.15 7.986 0 14.036-2.904 18.634-8.349h.484c.605 5.324 3.751 8.35 8.59 8.35a15.852 15.852 0 006.05-1.21v-6.898h-1.33c-2.662 0-4.356-1.33-4.356-4.356v-28.556c0-12.826-3.872-22.506-22.748-22.506a57.247 57.247 0 00-21.175 3.993l2.783 7.502a45.973 45.973 0 0116.94-3.388c11.011 0 14.036 5.566 14.036 14.4m-18.153 144.681c2.662-3.509 7.018-6.17 10.769-6.17 6.776 0 10.285 5.565 10.285 16.697s-4.84 16.698-11.374 16.698a41.527 41.527 0 01-9.68-1.33zm0-49.368l-17.424 2.42v84.7a78.128 78.128 0 0026.983 4.84c17.182 0 29.16-11.979 29.16-32.065s-9.074-32.065-24.562-32.065a21.508 21.508 0 00-13.673 5.324h-.484zm73.328-117.82c-8.592 0-13.795 4.235-16.941 11.98h-.484l-2.419-10.77h-6.535v61.71h10.165v-37.268c1.21-8.712 5.444-16.335 13.552-16.335a17.744 17.744 0 017.381 1.452l3.146-9.559a27.455 27.455 0 00-7.865-1.21m15.123-118.062c.605-11.495 6.655-19.48 16.819-19.48 10.043 0 15.125 7.017 15.125 16.697a21.423 21.423 0 01-.121 2.783zm-10.648 4.477c0 20.207 11.737 32.065 28.919 32.065a41.83 41.83 0 0020.57-5.203l-3.509-7.26a32.639 32.639 0 01-15.851 4.356c-12.221 0-18.513-7.623-19.481-21.054h40.293a51.996 51.996 0 001.09-10.164c0-15.125-8.229-24.805-24.806-24.805-17.424 0-27.225 12.947-27.225 32.065m52.878 138.39a21.423 21.423 0 01-.121 2.783h-31.823c.605-11.495 6.655-19.48 16.819-19.48 10.043 0 15.125 7.017 15.125 16.697m-15.367-24.805c-17.424 0-27.225 12.947-27.225 32.065 0 20.207 11.737 32.065 28.919 32.065a41.83 41.83 0 0020.57-5.203l-3.509-7.26a32.639 32.639 0 01-15.851 4.356c-12.221 0-18.513-7.623-19.481-21.054h40.293a51.996 51.996 0 001.089-10.164c0-15.125-8.228-24.805-24.805-24.805m-16.338 208.57h17.424v-61.71h-24.2l-2.42 15.367h9.196zm18.634-79.739a9.923 9.923 0 00-19.844 0 9.925 9.925 0 0019.844 0m32.548 16.82c-12.947 0-22.506 7.017-22.506 17.907 0 13.31 9.68 17.182 17.061 19.36 6.05 1.815 10.406 3.388 10.406 6.897 0 2.662-2.904 4.598-7.14 4.598a41.564 41.564 0 01-15.487-3.388l-6.171 14.4c5.808 2.661 14.52 4.355 22.022 4.355 14.52 0 23.958-7.139 23.958-19.118s-10.648-17.666-19.602-20.449c-5.808-1.815-7.865-3.146-7.865-5.808 0-2.178 2.299-3.388 6.171-3.388a36.503 36.503 0 0113.673 2.904l6.171-14.036a52.306 52.306 0 00-20.691-4.235m1.576-290.09h-6.535v61.71h10.165v-45.012c4.476-5.929 11.011-9.8 16.092-9.8 8.228 0 11.98 5.444 11.98 16.213v38.6h10.163v-38.6c0-16.214-6.05-24.32-19.481-24.32-6.896 0-14.64 3.63-19.481 8.953h-.484zm57.838 152.547c11.011 0 17.424 8.833 17.424 23.958s-6.413 23.958-17.424 23.958-17.425-8.833-17.425-23.958 6.414-23.958 17.425-23.958m0-8.107c-17.182 0-27.83 11.98-27.83 32.065s10.648 32.065 27.83 32.065 27.83-11.979 27.83-32.065-10.648-32.065-27.83-32.065m8.348-144.44h-6.534v61.71h10.164v-45.012c4.477-5.929 11.011-9.8 16.093-9.8 8.228 0 11.979 5.444 11.979 16.213v38.6h10.164v-38.6c0-16.214-6.05-24.32-19.481-24.32-6.897 0-14.641 3.63-19.481 8.953h-.484zm38.599 136.333v9.317h-11.011v8.107h11.01V574.2h10.165v-53.603h14.64l2.42-8.107h-17.06v-9.922c0-7.018 3.629-11.01 9.438-11.01 3.63 0 7.381 1.451 10.406 2.661l3.267-7.38a31.992 31.992 0 00-14.399-3.389c-11.737 0-18.876 6.897-18.876 19.723m18.03-136.333l-2.42 8.107h12.462v53.603h10.164v-61.71zm8.348-17.908a6.716 6.716 0 106.655-6.776 6.714 6.714 0 00-6.655 6.776M1629.47 780.8h-10.648v84.7h10.648v-39.204h9.196l29.403 40.414 11.858-1.21-31.46-44.649 28.919-40.05h-12.1l-26.62 36.3h-9.196zm-8.348-91.805c0-11.253 4.72-16.698 11.98-16.698s11.978 5.445 11.978 16.698-4.719 16.698-11.979 16.698-11.979-5.445-11.979-16.698m-17.666 0c0 20.812 11.737 32.065 29.645 32.065s29.645-11.253 29.645-32.065-11.737-32.065-29.645-32.065-29.645 11.253-29.645 32.065m-18.875 32.065a54.227 54.227 0 0015.004-2.178l-3.509-14.64a41.947 41.947 0 01-10.043 1.451c-3.025 0-5.324-1.089-5.324-4.356v-27.83h15.125l2.42-15.367h-17.545v-19.118l-17.424 2.42v16.698h-9.196v15.367h9.196v27.83c0 15.004 10.164 19.723 21.296 19.723m-44.528 104.268c0-3.993 2.904-6.17 6.292-6.17h6.776v12.341h-6.776c-3.388 0-6.292-2.178-6.292-6.17m-7.865 17.06l-13.915 23.111h19.239l11.132-20.328h4.477V865.5h17.424v-61.71h-26.136c-13.31 0-22.022 7.744-22.022 20.691 0 8.35 3.63 14.641 9.801 17.908m-48.882-3.146h8.47a5.446 5.446 0 110 10.89h-8.47zm0-35.453h-17.424v61.71h27.104c13.31 0 22.022-7.018 22.022-19.844s-8.712-19.844-22.022-19.844h-9.68zm-27.224-130.04a12.506 12.506 0 015.445 1.21l5.324-16.82a27.444 27.444 0 00-7.865-1.21c-6.292 0-10.648 2.904-13.31 8.35h-.484l-2.42-7.14h-13.794v61.71h17.424v-35.453c1.33-6.292 5.082-10.648 9.68-10.648m-49.005 160.896c0 20.812 12.342 32.065 30.25 32.065a50.004 50.004 0 0019.239-3.75l-5.687-14.158a31.365 31.365 0 01-12.221 2.541c-7.26 0-13.915-5.445-13.915-16.698s6.655-16.698 13.915-16.698a34.544 34.544 0 0111.616 2.057l5.687-14.157c-5.203-2.178-12.826-3.267-18.634-3.267-17.908 0-30.25 11.253-30.25 32.065m-45.98-6.897c1.09-6.413 5.566-9.8 11.617-9.8 6.776 0 10.406 3.871 10.406 9.8zm-17.787 6.897c0 20.812 13.552 32.065 31.46 32.065a50.376 50.376 0 0021.902-5.203l-6.292-13.915a34.357 34.357 0 01-14.4 3.751c-7.017 0-12.583-3.63-14.52-10.164h36.18a58.773 58.773 0 001.331-13.189c0-15.004-9.68-25.41-26.499-25.41-17.909 0-29.162 11.253-29.162 32.065m-14.638-132.46a17.477 17.477 0 01-11.133 4.234c-3.63 0-6.17-1.815-6.17-4.96 0-3.268 2.662-5.567 6.776-5.567h10.527zm1.694 12.946c2.177 3.146 5.323 5.324 11.615 5.324a21.261 21.261 0 009.801-2.54v-12.827h-1.331c-2.662 0-4.356-1.331-4.356-4.356v-21.054c0-12.826-5.687-22.748-24.563-22.748a66.2 66.2 0 00-22.989 3.993l5.323 14.4a49.105 49.105 0 0116.214-3.026c5.808 0 8.592 2.783 8.592 7.14v3.63h-10.527c-13.674 0-22.87 6.896-22.87 18.633 0 12.584 8.591 18.755 20.328 18.755a21.042 21.042 0 0014.278-5.324zm-66.064-335.828v33.154c-4.235 5.445-9.8 9.196-15.489 9.196-11.132 0-17.06-9.8-17.06-23.958 0-15.246 5.928-23.958 17.06-23.958 6.051 0 10.527 2.057 15.49 5.566m0-39.083v29.766a32.617 32.617 0 00-16.942-4.356c-18.392 0-26.015 13.673-26.015 32.065 0 18.997 8.471 32.065 24.322 32.065a24.407 24.407 0 0019.36-8.954h.483l2.42 7.744h6.534V337.8zm-49.128-85.392v12.221a20.344 20.344 0 01-16.698 8.712c-6.413 0-10.527-3.509-10.527-10.285 0-7.018 4.961-10.648 12.463-10.648zm0-12.342v4.598h-14.278c-13.673 0-22.748 6.534-22.748 18.271 0 12.584 7.623 18.15 19.118 18.15 7.986 0 14.036-2.904 18.634-8.349h.484c.605 5.324 3.751 8.35 8.591 8.35a15.854 15.854 0 006.05-1.21v-6.898h-1.331c-2.662 0-4.356-1.33-4.356-4.356v-28.556c0-12.826-3.872-22.506-22.748-22.506a57.247 57.247 0 00-21.175 3.993l2.783 7.502a45.973 45.973 0 0116.94-3.388c11.01 0 14.036 5.566 14.036 14.4m-50.696 159.564v9.56c-3.63 4.597-8.349 7.622-14.278 7.622-4.961 0-9.075-2.662-9.075-8.228s4.356-8.954 10.406-8.954zm0-13.915v4.114h-12.463c-13.673 0-23.353 6.776-23.353 18.513 0 12.584 7.381 18.392 19.118 18.392 7.986 0 12.947-2.662 17.424-7.139h.484c1.089 3.751 4.114 7.14 9.801 7.14a22.242 22.242 0 007.26-1.21v-9.318h-1.331c-2.662 0-4.356-1.33-4.356-4.356v-25.894c0-12.826-4.477-22.748-23.353-22.748a60.434 60.434 0 00-21.78 3.993l3.63 9.801a48.708 48.708 0 0116.698-3.267c9.075 0 12.221 4.598 12.221 11.98m6.777 120.965c0-7.018 5.082-11.616 15.73-11.616 7.986 0 12.947 2.178 18.634 5.566l4.96-8.228c-7.017-3.993-13.793-6.534-23.594-6.534-16.335 0-26.862 7.018-26.862 21.538 0 14.762 12.342 20.57 23.232 24.805 9.68 3.751 18.755 8.591 18.755 17.666 0 8.954-7.381 13.915-17.787 13.915a31.442 31.442 0 01-20.691-7.018l-5.445 8.712c7.865 4.84 14.52 7.502 26.136 7.502 18.997 0 28.919-10.164 28.919-24.442 0-14.762-11.616-19.844-24.926-25.047-7.744-3.025-17.061-8.47-17.061-16.819m-26.14 168.398c.001 14.52-6.291 25.894-17.423 25.894h-11.495v-51.788h11.495c11.132 0 17.424 11.374 17.424 25.894m18.392 0c0-24.684-11.858-42.35-35.816-42.35H1099.5v84.7h28.193c23.958 0 35.816-17.666 35.816-42.35m104.424-120.724c-3.993 5.687-10.164 10.527-15.972 10.527-11.616 0-16.577-9.075-16.577-23.958 0-15.125 6.776-23.958 17.666-23.958a43.561 43.561 0 0114.883 2.662zm10.164-40.656c-9.075-3.388-16.456-4.84-24.926-4.84-17.182 0-28.193 11.98-28.193 32.065s8.833 32.065 24.321 32.065c7.502 0 13.431-3.025 18.15-8.954h.484v34.364l10.164-2.42zm13.308 142.02H1274.1l-13.188 22.87h-3.267V629.1l-17.424 2.42v88.33h17.424v-24.684h3.267l13.793 25.894 17.91-1.21-18.03-31.944zm7.864-264.922c.605-11.495 6.655-19.48 16.819-19.48 10.043 0 15.125 7.017 15.125 16.697a21.423 21.423 0 01-.121 2.783zm-10.648 4.477c0 20.207 11.737 32.065 28.919 32.065a41.83 41.83 0 0020.57-5.203l-3.509-7.26a32.639 32.639 0 01-15.851 4.356c-12.221 0-18.513-7.623-19.481-21.054h40.293a51.997 51.997 0 001.089-10.164c0-15.125-8.228-24.805-24.805-24.805-17.424 0-27.225 12.947-27.225 32.065m57.478 114.795h-10.165v45.012c-4.476 5.93-11.857 9.801-16.94 9.801-8.227 0-12.946-5.324-12.946-17.06V512.49h-10.165v37.994c0 17.061 7.866 24.926 20.45 24.926 6.897 0 15.488-3.63 20.328-8.954h.484l2.419 7.744h6.535zm-70.305 336.917l-3.751 14.52a20.962 20.962 0 0010.043 2.178c13.189 0 19.48-16.819 20.086-46.948h11.979V865.5h17.424v-61.71h-45.617v12.826c0 27.588-3.025 33.638-7.139 33.638a6.059 6.059 0 01-3.025-.847m-48.037-14.762c0-11.253 4.72-16.698 11.98-16.698s11.978 5.445 11.978 16.698-4.719 16.698-11.979 16.698-11.979-5.445-11.979-16.698m-17.666 0c0 20.812 11.737 32.065 29.645 32.065s29.645-11.253 29.645-32.065c0-20.812-11.737-32.065-29.645-32.065s-29.645 11.253-29.645 32.065m-19.479-152.547c1.09-6.413 5.566-9.8 11.616-9.8 6.776 0 10.406 3.871 10.406 9.8zm13.673 38.962a50.378 50.378 0 0021.901-5.203l-6.292-13.915a34.358 34.358 0 01-14.399 3.751c-7.018 0-12.584-3.63-14.52-10.164h36.18a58.774 58.774 0 001.33-13.189c0-15.004-9.68-25.41-26.499-25.41-17.908 0-29.16 11.253-29.16 32.065s13.551 32.065 31.46 32.065m-40.415 82.73h-17.424v61.71h17.424v-24.079h17.061v24.08h17.424v-61.71h-17.424v22.263h-17.06zm-76.229 30.855c0 20.812 12.342 32.065 30.25 32.065a50.004 50.004 0 0019.24-3.75l-5.688-14.158a31.366 31.366 0 01-12.22 2.541c-7.26 0-13.916-5.445-13.916-16.698s6.655-16.698 13.915-16.698a34.544 34.544 0 0111.616 2.057l5.687-14.157c-5.203-2.178-12.826-3.267-18.634-3.267-17.908 0-30.25 11.253-30.25 32.065m-11.732-277.869c0-7.018 4.961-10.648 12.463-10.648h14.762v12.221a20.344 20.344 0 01-16.698 8.712c-6.413 0-10.527-3.509-10.527-10.285m9.317 18.029c7.986 0 14.036-2.904 18.634-8.349h.484c.605 5.324 3.751 8.349 8.591 8.349a15.853 15.853 0 006.05-1.21v-6.897h-1.33c-2.663 0-4.357-1.331-4.357-4.356v-28.556c0-12.826-3.872-22.506-22.748-22.506a57.246 57.246 0 00-21.175 3.993l2.783 7.502a45.973 45.973 0 0116.94-3.388c11.011 0 14.036 5.566 14.036 14.399v4.598h-14.278c-13.673 0-22.748 6.534-22.748 18.271 0 12.584 7.623 18.15 19.118 18.15m-43.685 272.303c0-3.267 2.662-5.566 6.776-5.566h10.527v6.292a17.475 17.475 0 01-11.132 4.235c-3.63 0-6.17-1.815-6.17-4.961m-16.094.242c0 12.584 8.591 18.755 20.328 18.755a21.043 21.043 0 0014.278-5.324h.484c2.178 3.146 5.324 5.324 11.616 5.324a21.264 21.264 0 009.801-2.541v-12.826h-1.33c-2.663 0-4.357-1.331-4.357-4.356v-21.054c0-12.826-5.687-22.748-24.563-22.748a66.205 66.205 0 00-22.99 3.993l5.324 14.399a49.1 49.1 0 0116.214-3.025c5.808 0 8.591 2.783 8.591 7.139v3.63h-10.527c-13.673 0-22.869 6.897-22.869 18.634m13.798-281.257h-26.862c5.324-9.559 7.381-26.015 7.381-41.261v-4.235h19.481zm10.164-53.603h-39.325v6.776c0 21.538-1.694 35.574-8.349 46.827h-8.228l2.42 23.474h7.744V574.2h45.375v15.367h7.744l2.42-23.474h-9.8zm-34.729-82.73a27.594 27.594 0 0010.285-1.815l-1.935-9.922a16.796 16.796 0 01-6.292 1.21c-3.389 0-5.203-2.057-5.203-6.655V337.8l-12.585 2.42v72.358c0 11.858 5.445 17.182 15.73 17.182m-63.648-193.445c0-5.324 4.598-8.228 11.737-8.228 5.687 0 9.68 1.331 14.883 3.267l3.146-7.139a43.937 43.937 0 00-18.876-4.235c-12.584 0-20.69 5.929-20.69 16.335 0 11.979 9.074 15.609 16.334 18.029 7.381 2.42 14.883 5.203 14.883 12.221 0 5.808-4.477 9.438-12.705 9.438a39.356 39.356 0 01-16.577-3.872l-3.267 7.744a48.595 48.595 0 0020.207 4.235c13.915 0 22.143-6.776 22.143-18.029 0-11.374-10.043-15.851-18.876-18.634-7.139-2.178-12.342-4.84-12.342-11.132m21.904 154.483h-28.556c1.09-8.712 6.293-14.641 14.641-14.641 9.317 0 13.915 6.171 13.915 14.641m11.253-.363c0-15.125-8.833-24.805-25.41-24.805-16.698 0-27.829 11.737-27.829 32.065 0 20.207 11.857 32.065 30.007 32.065a45.12 45.12 0 0020.691-5.203l-4.114-9.559c-4.477 2.299-9.8 4.235-15.367 4.235-11.13 0-17.424-6.655-18.27-18.634h39.203a52 52 0 001.09-10.164M821.686 254.828v12.221a20.344 20.344 0 01-16.698 8.712c-6.413 0-10.527-3.509-10.527-10.285 0-7.018 4.961-10.648 12.463-10.648zm0-12.342v4.598H807.41c-13.673 0-22.748 6.534-22.748 18.271 0 12.584 7.623 18.15 19.118 18.15 7.986 0 14.036-2.904 18.634-8.349h.484c.605 5.324 3.751 8.349 8.591 8.349a15.853 15.853 0 006.05-1.21v-6.897h-1.33c-2.663 0-4.357-1.331-4.357-4.356v-28.556c0-12.826-3.872-22.506-22.748-22.506a57.247 57.247 0 00-21.175 3.993l2.783 7.502a45.972 45.972 0 0116.94-3.388c11.011 0 14.036 5.566 14.036 14.399m-14.639 277.99v-21.78h31.34l2.42-9.196h-44.045v41.866a58.256 58.256 0 0117.303-3.146c10.89 0 19.118 6.292 19.118 18.997s-7.623 18.997-17.787 18.997c-7.986 0-13.189-2.42-18.634-6.05l-4.84 8.107c6.655 4.477 14.036 7.139 24.321 7.139 15.851 0 27.71-9.559 27.71-28.193 0-18.15-11.375-27.709-27.226-27.709a45.28 45.28 0 00-9.68.968m-5.324-171.544a7.49 7.49 0 007.623 7.502 7.593 7.593 0 007.744-7.502 7.695 7.695 0 00-7.744-7.623 7.591 7.591 0 00-7.623 7.623m14.036 17.908h-21.659l-2.42 10.527h11.495v51.183h12.584zm29.886-29.04l-12.584 2.42v72.358c0 11.858 5.445 17.182 15.73 17.182a27.594 27.594 0 0010.285-1.815l-1.936-9.922a16.793 16.793 0 01-6.292 1.21c-3.388 0-5.203-2.057-5.203-6.655zm15.607-145.65l-10.164 2.42v72.358c0 11.858 4.477 17.182 14.762 17.182a26.423 26.423 0 0010.043-1.815l-1.936-7.623a15.371 15.371 0 01-6.17 1.33c-5.204 0-6.535-2.782-6.535-9.074zm19.725 145.65l-12.584 2.42v88.33h12.584v-43.802c3.267-4.598 8.833-8.591 13.673-8.591 7.381 0 10.77 4.598 10.77 13.794v38.599h12.583v-38.599c0-16.214-6.292-24.321-20.086-24.321a22.128 22.128 0 00-16.456 7.744h-.484zm19.602 236.4v-53.603h24.684l2.42-8.107h-37.268v61.71zm-12.587-353.01h-10.648l22.75 61.71h4.96l-3.026 9.68c-2.178 7.139-5.082 8.833-8.833 8.833a17.828 17.828 0 01-7.26-1.694l-2.662 7.502a26.509 26.509 0 0010.406 2.299c6.655 0 13.674-2.904 17.424-14.762l23.111-73.568h-10.648l-15.85 52.393h-.485zm90.028 322.155c0 15.125-6.414 23.958-17.425 23.958-11.01 0-17.423-8.833-17.423-23.958s6.413-23.958 17.423-23.958c11.011 0 17.425 8.833 17.425 23.958m10.405 0c0-20.086-10.648-32.065-27.83-32.065-17.18 0-27.829 11.979-27.829 32.065s10.648 32.065 27.83 32.065c17.181 0 27.83-11.979 27.83-32.065m-9.805 279.079a13.123 13.123 0 019.56-4.477c7.622 0 12.1 6.897 12.1 16.698 0 10.527-4.962 16.698-11.617 16.698a21.174 21.174 0 01-10.043-2.299zm-4.84-18.634h-12.584v88.33l17.424-2.42v-24.926a38.763 38.763 0 0011.495 1.936c18.392 0 27.83-13.673 27.83-32.065 0-18.392-8.712-32.065-26.136-32.065-6.534 0-11.253 2.783-15.125 6.171h-.484zm-67.517-22.99h-16.698v84.7h16.698v-35.574h6.655l21.538 36.784 19.844-1.21-27.225-44.044 24.684-40.656H932.16l-18.997 32.67h-6.897zm-106.599 53.845c0-15.125 6.413-23.958 17.424-23.958s17.424 8.833 17.424 23.958-6.413 23.958-17.424 23.958-17.424-8.833-17.424-23.958m-10.406 0c0 20.086 10.648 32.065 27.83 32.065s27.83-11.979 27.83-32.065-10.648-32.065-27.83-32.065-27.83 11.979-27.83 32.065m-55.538 38.599c0-4.719 1.815-8.349 6.292-11.616l2.057.363 13.915 2.299c7.986 1.331 11.737 3.993 11.737 8.954 0 6.05-5.687 10.769-16.94 10.769s-17.06-4.719-17.06-10.769m2.54-49.247c0-7.865 5.082-13.552 14.762-13.552s14.762 5.687 14.762 13.552c0 7.865-5.082 13.552-14.762 13.552s-14.762-5.687-14.762-13.552m-12.342 50.457c0 11.253 11.011 17.666 26.862 17.666 15.851 0 27.346-7.26 27.346-19.481 0-10.89-9.922-15.246-17.787-16.577l-16.577-2.783c-3.872-.726-6.655-1.331-6.655-5.082a5.833 5.833 0 012.541-4.598 32.992 32.992 0 0011.374 1.815c14.52 0 24.563-7.502 24.563-21.417a20.46 20.46 0 00-4.355-13.31h8.106l2.42-10.527-18.634 4.598a34.225 34.225 0 00-12.1-2.178c-14.52 0-24.563 7.381-24.563 21.417 0 7.018 2.42 12.342 6.655 15.851a11.723 11.723 0 00-5.687 9.68 10.122 10.122 0 005.203 9.317 18.872 18.872 0 00-8.712 15.609m9.56-342.604c0-24.2 7.138-34.364 18.27-34.364s18.271 10.164 18.271 34.364-7.139 34.364-18.27 34.364c-11.133 0-18.272-10.164-18.272-34.364m-10.769 0c0 28.677 10.406 43.56 29.04 43.56s29.04-14.883 29.04-43.56-10.406-43.56-29.04-43.56-29.04 14.883-29.04 43.56m-55.175 302.795c0-15.125 6.413-23.958 17.424-23.958s17.424 8.833 17.424 23.958-6.413 23.958-17.424 23.958-17.424-8.833-17.424-23.958m-10.406 0c0 20.086 10.648 32.065 27.83 32.065s27.83-11.979 27.83-32.065-10.648-32.065-27.83-32.065-27.83 11.979-27.83 32.065m-44.285-59.895l-10.164 2.42v88.33h10.164v-27.709h8.591l19.602 28.919 10.406-1.21-21.659-31.944 20.45-29.766h-10.89l-17.788 25.894h-8.712zm-100.67 29.04h-6.535v61.71h10.164v-37.268c1.21-8.712 5.445-16.335 13.552-16.335a17.736 17.736 0 017.381 1.452l3.146-9.559a27.445 27.445 0 00-7.865-1.21c-8.59 0-13.794 4.235-16.94 11.979h-.484zm-72.116-582.6v48.763h-15.73V221.19h-14.883v48.763h-15.85V221.19H378.59v61.71h76.472v-61.71zm-74.653 145.65v22.264h-17.06V366.84h-17.424v61.71h17.423v-24.079h17.061v24.08h17.424v-61.71zm-18.395-83.94h15.004v-61.71h-15.004zm-113.254-61.71v7.865c0 33.033-3.63 41.019-8.349 41.019a6.213 6.213 0 01-3.025-.726l-3.75 11.979a15.182 15.182 0 008.47 2.178c13.793 0 21.053-16.456 21.053-48.642v-.726h13.794V282.9h15.004v-61.71zm-38.476 36.905v7.018a17.571 17.571 0 01-13.069 6.05c-3.63 0-6.655-2.178-6.655-6.292 0-3.993 3.146-6.776 8.712-6.776zm0-15.609v4.114h-11.495c-13.673 0-23.112 6.655-23.112 18.513 0 12.584 7.381 18.392 19.118 18.392 7.018 0 11.858-1.573 16.214-5.929h.484c1.936 3.872 5.445 5.929 10.89 5.929a28.174 28.174 0 008.591-1.21v-11.737h-1.33c-2.663 0-4.357-1.331-4.357-4.356v-23.474c0-12.826-5.082-22.748-23.958-22.748a61.66 61.66 0 00-22.385 4.114l4.477 12.1a49.069 49.069 0 0116.456-3.267c7.381 0 10.407 3.63 10.407 9.559M82.872 574.2v-70.664h31.34V574.2h15.487v-84.7H67.384v84.7zm64.01-183.402c1.09-6.413 5.566-9.8 11.616-9.8 6.776 0 10.406 3.871 10.406 9.8zm-17.787 6.897c0 20.812 13.552 32.065 31.46 32.065a50.377 50.377 0 0021.901-5.203l-6.292-13.915a34.358 34.358 0 01-14.399 3.751c-7.018 0-12.584-3.63-14.52-10.164h36.18a58.773 58.773 0 001.33-13.189c0-15.004-9.68-25.41-26.499-25.41-17.908 0-29.16 11.253-29.16 32.065m40.05 128.468v-.726h13.793V574.2h15.004v-61.71h-43.197v7.865c0 33.033-3.63 41.02-8.349 41.02a6.214 6.214 0 01-3.025-.727l-3.75 11.98a15.182 15.182 0 008.47 2.177c13.793 0 21.053-16.456 21.053-48.642m42.47 193.687v-37.268c1.21-8.712 5.444-16.335 13.552-16.335a17.732 17.732 0 017.38 1.452l3.146-9.559a27.438 27.438 0 00-7.865-1.21c-8.59 0-13.793 4.235-16.939 11.98h-.484l-2.42-10.77h-6.534v61.71zm14.52-176.505c0-11.979 5.807-19.118 13.793-19.118s13.794 7.14 13.794 19.118-5.808 19.118-13.794 19.118-13.794-7.139-13.794-19.118m-15.246 0c0 20.086 11.858 32.065 29.04 32.065s29.04-11.979 29.04-32.065-11.858-32.065-29.04-32.065-29.04 11.98-29.04 32.065m66.31-199.495h-49.61v84.7h17.908v-68.244h29.282zm15.73 37.147c6.776 0 10.406 3.872 10.406 9.801h-22.022c1.09-6.413 5.566-9.8 11.616-9.8m-.242-15.368c-17.908 0-29.16 11.253-29.16 32.065s13.551 32.065 31.46 32.065a50.377 50.377 0 0021.9-5.203l-6.292-13.915a34.359 34.359 0 01-14.399 3.751c-7.018 0-12.584-3.63-14.52-10.164h36.18a58.773 58.773 0 001.33-13.189c0-15.004-9.68-25.41-26.499-25.41m139.995 1.21v22.264h-17.06V366.84h-17.425v61.71h17.424v-24.079h17.061v24.08h17.424v-61.71zM407.27 556.413a17.568 17.568 0 01-13.068 6.05c-3.63 0-6.655-2.178-6.655-6.292 0-3.993 3.146-6.776 8.712-6.776h11.011zm12.1 18.392a28.179 28.179 0 008.591-1.21v-11.737h-1.33c-2.663 0-4.357-1.33-4.357-4.356v-23.474c0-12.826-5.082-22.748-23.958-22.748a61.66 61.66 0 00-22.384 4.114l4.476 12.1a49.068 49.068 0 0116.457-3.267c7.38 0 10.406 3.63 10.406 9.56v4.113h-11.495c-13.674 0-23.112 6.655-23.112 18.513 0 12.584 7.381 18.392 19.118 18.392 7.018 0 11.858-1.573 16.214-5.929h.484c1.936 3.872 5.445 5.93 10.89 5.93m-137.455-.606h71.27v15.367h12.583l2.42-28.314h-9.8V512.49h-15.005v48.763h-15.73V512.49H312.77v48.763h-15.85V512.49h-15.005zm26.62-318.525h7.985c4.961 0 7.986 3.025 7.986 7.14s-3.025 7.138-7.986 7.138h-7.986zm0-34.485H293.53v61.71h24.2c13.31 0 22.022-7.26 22.022-19.723s-8.712-19.965-22.022-19.965h-9.196zm164.194 340.063H453.61c4.961-9.317 6.171-22.143 6.171-35.816h12.947zm15.004-48.763h-42.35v6.776c0 20.812-1.694 31.218-7.744 41.987h-8.228l2.42 28.314h12.584V574.2h38.115v15.367h12.584l2.42-28.314h-9.8zm-4.838-145.65H465.47v61.71h14.883l22.87-33.154v33.154h17.423v-61.71h-14.883l-22.869 33.275zM449.62 848.076c0-7.018 4.961-10.648 12.463-10.648h14.762v12.221a20.344 20.344 0 01-16.698 8.712c-6.413 0-10.527-3.509-10.527-10.285m-9.8-.12c0 12.583 7.622 18.15 19.117 18.15 7.986 0 14.036-2.905 18.634-8.35h.484c.605 5.324 3.751 8.35 8.591 8.35a15.852 15.852 0 006.05-1.21v-6.898h-1.33c-2.663 0-4.357-1.33-4.357-4.356v-28.556c0-12.826-3.872-22.506-22.748-22.506a57.247 57.247 0 00-21.175 3.993l2.783 7.502a45.973 45.973 0 0116.94-3.388c11.011 0 14.036 5.566 14.036 14.4v4.597h-14.278c-13.673 0-22.748 6.534-22.748 18.271M388.03 774.75l-10.164 2.42v88.33h10.164v-45.012c4.477-5.929 11.011-9.8 16.093-9.8 8.228 0 11.98 5.444 11.98 16.213v38.6h10.163v-38.6c0-16.214-6.05-24.32-19.48-24.32-6.898 0-13.31 3.266-18.272 8.953h-.484zm-68.969 59.895c0 17.787 8.954 32.065 28.92 32.065a40.845 40.845 0 0016.94-3.63l-2.905-7.502a39.049 39.049 0 01-14.036 3.025c-11.979 0-18.513-9.68-18.513-23.958 0-14.278 6.655-23.958 18.634-23.958a34.547 34.547 0 0113.31 2.783l2.904-7.502a44.548 44.548 0 00-16.94-3.388c-19.965 0-28.314 14.278-28.314 32.065m-52.392 13.431c0-7.018 4.961-10.648 12.463-10.648h14.762v12.221a20.344 20.344 0 01-16.698 8.712c-6.413 0-10.527-3.509-10.527-10.285m-9.8-.12c0 12.583 7.622 18.15 19.117 18.15 7.986 0 14.036-2.905 18.634-8.35h.484c.605 5.324 3.751 8.35 8.591 8.35a15.853 15.853 0 006.05-1.21v-6.898h-1.33c-2.663 0-4.357-1.33-4.357-4.356v-28.556c0-12.826-3.872-22.506-22.748-22.506a57.247 57.247 0 00-21.175 3.993l2.783 7.502a45.973 45.973 0 0116.94-3.388c11.011 0 14.036 5.566 14.036 14.4v4.597h-14.278c-13.673 0-22.748 6.534-22.748 18.271m-5.082-145.529c0-7.018 4.961-10.648 12.463-10.648h14.762V704a20.344 20.344 0 01-16.698 8.712c-6.413 0-10.527-3.509-10.527-10.285m-9.8-.12c0 12.583 7.622 18.15 19.117 18.15 7.986 0 14.036-2.905 18.634-8.35h.484c.605 5.324 3.751 8.35 8.591 8.35a15.852 15.852 0 006.05-1.21v-6.898h-1.33c-2.663 0-4.357-1.33-4.357-4.356v-28.556c0-12.826-3.872-22.506-22.748-22.506a57.247 57.247 0 00-21.175 3.993l2.783 7.502a45.974 45.974 0 0116.94-3.388c11.011 0 14.036 5.566 14.036 14.4v4.597h-14.278c-13.673 0-22.748 6.534-22.748 18.271M201.45 803.79h-6.534v61.71h10.164v-45.012c4.477-5.929 11.011-9.8 16.093-9.8 8.228 0 11.98 5.444 11.98 16.213v38.6h10.163v-38.6c0-16.214-6.05-24.32-19.48-24.32-6.898 0-14.642 3.63-19.482 8.953h-.484zm-16.576-163.558a6.716 6.716 0 10-6.776 6.655 6.765 6.765 0 006.776-6.655m-11.737 79.618h10.164v-61.71h-20.207l-2.42 8.107h12.463zm-36.057 83.94h-10.164v37.994c0 17.061 7.865 24.926 20.45 24.926 6.896 0 15.487-3.63 20.327-8.954h.484l2.42 7.744h6.534v-61.71h-10.164v45.012c-4.477 5.93-11.858 9.801-16.94 9.801-8.228 0-12.947-5.324-12.947-17.06zM79.242 780.8H68.594v84.7h47.795l2.42-9.196H79.242zM72.83 635.15l-7.865 84.7h10.648l6.534-71.632h.484l19.481 60.5h10.285l19.481-60.5h.484l6.534 71.632h10.648l-7.865-84.7h-15.125l-18.997 60.5h-.605l-18.997-60.5zm9.438-221.967c3.267-7.38 4.598-18.392 4.598-30.008v-.968h11.737v30.976zm-17.545 0h-8.228l2.42 30.734h15.004V428.55h34.485v15.367h15.004l2.42-30.734h-9.8V366.84H71.013v6.171c0 20.086-.484 30.008-6.292 40.172m40.898-302.19c0 5.809-4.235 9.802-11.858 9.802H83.477v-19.602h10.164c7.744 0 11.98 3.993 11.98 9.8m-3.026-33.395c0 4.356-3.025 8.59-8.954 8.59H83.477V69.006h9.68c6.413 0 9.438 3.993 9.438 8.591m3.993 15.125v-.484c7.744-2.057 14.399-8.228 14.399-19.36 0-14.762-11.374-20.328-26.499-20.328H66.78v84.7h27.71c16.576 0 29.523-6.17 29.523-23.474 0-11.737-6.776-18.513-17.424-21.054m36.3 105.478h-17.303l-18.15 54.45h-.363l-18.15-54.45H71.62l-7.865 84.7h15.488l5.082-55.297h.363l14.641 44.165h15.851l14.52-44.165h.363l5.203 55.297h15.488zm32.065-91.805c0 11.253-4.719 16.698-11.979 16.698s-11.979-5.445-11.979-16.698 4.72-16.698 11.98-16.698 11.978 5.445 11.978 16.698m17.666 0c0-20.812-11.737-32.065-29.645-32.065s-29.645 11.253-29.645 32.065 11.737 32.065 29.645 32.065 29.645-11.253 29.645-32.065m47.915-6.897h-22.022c1.089-6.413 5.566-9.8 11.616-9.8 6.776 0 10.406 3.871 10.406 9.8m14.52 13.431a58.774 58.774 0 001.331-13.189c0-15.004-9.68-25.41-26.499-25.41-17.908 0-29.161 11.253-29.161 32.065s13.552 32.065 31.46 32.065a50.377 50.377 0 0021.901-5.203l-6.292-13.915a34.358 34.358 0 01-14.399 3.751c-7.018 0-12.584-3.63-14.52-10.164zm45.737 3.993c0 2.783-2.057 4.961-5.445 4.961h-9.8V111.84h9.8c3.388 0 5.445 2.3 5.445 5.082m-2.541-21.9a4.194 4.194 0 01-4.356 4.355h-8.349v-8.712h8.349a4.194 4.194 0 014.356 4.356m7.139 9.922v-.484c6.292-1.33 10.527-6.17 10.527-13.31 0-9.922-7.381-15.609-20.449-15.609h-27.346v61.71h29.282c14.036 0 21.054-6.655 21.054-17.787 0-7.502-4.719-12.705-13.068-14.52m62.797 1.452c0 11.253-4.719 16.698-11.979 16.698s-11.979-5.445-11.979-16.698 4.72-16.698 11.98-16.698 11.978 5.445 11.978 16.698m17.666 0c0-20.812-11.737-32.065-29.645-32.065s-29.645 11.253-29.645 32.065 11.737 32.065 29.645 32.065 29.645-11.253 29.645-32.065m43.56 15.488h-16.335c3.267-7.38 4.598-18.392 4.598-30.008v-.968h11.737zm24.805 30.734l2.42-30.734h-9.8V75.54h-45.013v6.171c0 20.086-.484 30.008-6.292 40.172h-8.228l2.42 30.734h15.004V137.25h34.485v15.367zm47.674-15.367h17.424V75.54h-14.883l-22.869 33.275V75.54H464.14v61.71h14.883l22.87-33.154zm6.895 107.898h-25.288c1.452-7.986 6.655-12.22 13.068-12.22 7.865 0 12.22 5.202 12.22 12.22m12.948 11.495a81.424 81.424 0 00.726-9.317c0-17.303-10.043-27.346-26.136-27.346-17.424 0-28.314 11.737-28.314 32.065 0 20.207 12.463 32.065 30.612 32.065a47.709 47.709 0 0021.297-5.203l-5.203-11.737a36.632 36.632 0 01-15.367 3.993c-7.986 0-14.52-5.082-16.093-14.52zm17.181 297.471c0 4.114-3.025 7.14-7.986 7.14h-9.68v-14.279h9.68c4.961 0 7.986 3.025 7.986 7.14m-6.776-19.603h-10.89V512.49h-15.004v61.71h25.894c13.31 0 22.022-7.26 22.022-19.723s-8.712-19.965-22.022-19.965m37.147-271.214c0 4.598-3.388 6.655-9.075 6.655h-9.8v-12.947h9.8c5.687 0 9.075 1.694 9.075 6.292m-2.54-23.716c0 3.872-3.147 5.445-8.592 5.445h-7.744v-10.89h7.744c4.84 0 8.591 1.452 8.591 5.445m4.72 10.89v-.363c6.896-2.299 10.526-7.018 10.526-13.673 0-11.132-9.075-15.246-20.933-15.246h-25.652v61.71h28.072c14.036 0 21.054-6.655 21.054-17.303 0-8.107-5.082-13.189-13.068-15.125m-2.298-113.222h17.424V75.54h-17.424v22.264h-17.06V75.54H534.68v61.71h17.424v-24.079h17.061zm1.331 291.3h17.424v-61.71h-17.424v22.264h-17.06V366.84h-17.425v61.71h17.424v-24.079h17.061zm18.028 420.131c0-11.374-10.043-15.85-18.876-18.634-7.139-2.178-12.342-4.84-12.342-11.132 0-5.324 4.598-8.228 11.737-8.228 5.687 0 9.68 1.331 14.883 3.267l3.146-7.139a43.937 43.937 0 00-18.876-4.235c-12.584 0-20.691 5.93-20.691 16.335 0 11.98 9.075 15.61 16.335 18.03 7.381 2.42 14.883 5.202 14.883 12.22 0 5.808-4.477 9.438-12.705 9.438a39.356 39.356 0 01-16.577-3.872l-3.267 7.744a48.595 48.595 0 0020.207 4.235c13.915 0 22.143-6.776 22.143-18.029m39.323-590.586v7.018a17.568 17.568 0 01-13.068 6.05c-3.63 0-6.655-2.178-6.655-6.292 0-3.993 3.146-6.776 8.712-6.776zm0-15.609v4.114h-11.495c-13.673 0-23.111 6.655-23.111 18.513 0 12.584 7.381 18.392 19.118 18.392 7.018 0 11.858-1.573 16.214-5.929h.484c1.936 3.872 5.445 5.93 10.89 5.93a28.18 28.18 0 008.591-1.21v-11.738h-1.331c-2.662 0-4.356-1.33-4.356-4.356v-23.474c0-12.826-5.082-22.748-23.958-22.748a61.66 61.66 0 00-22.385 4.114l4.477 12.1a49.069 49.069 0 0116.456-3.267c7.381 0 10.406 3.63 10.406 9.56m-11.132 256.21v66.307h-22.748v9.196h53.24v-9.196h-20.207V489.5h-28.798l-2.42 9.196zm14.4-379.113a17.474 17.474 0 01-11.132 4.235c-3.63 0-6.171-1.815-6.171-4.96 0-3.268 2.662-5.567 6.776-5.567h10.527zm13.31 18.271a21.265 21.265 0 009.801-2.54v-12.827h-1.331c-2.662 0-4.356-1.33-4.356-4.356V97.078c0-12.826-5.687-22.748-24.563-22.748a66.207 66.207 0 00-22.99 3.993l5.324 14.4a49.098 49.098 0 0116.214-3.025c5.808 0 8.59 2.783 8.59 7.139v3.63H620.59c-13.673 0-22.87 6.897-22.87 18.634 0 12.584 8.592 18.755 20.329 18.755a21.044 21.044 0 0014.278-5.324h.484c2.178 3.146 5.324 5.324 11.616 5.324m-11.98 273.029a17.475 17.475 0 01-11.131 4.235c-3.63 0-6.171-1.815-6.171-4.961 0-3.267 2.662-5.566 6.776-5.566h10.527zm13.31 18.27a21.264 21.264 0 009.802-2.54v-12.826h-1.331c-2.662 0-4.356-1.331-4.356-4.356v-21.054c0-12.826-5.687-22.748-24.563-22.748a66.206 66.206 0 00-22.99 3.993l5.324 14.399a49.1 49.1 0 0116.214-3.025c5.808 0 8.59 2.783 8.59 7.139v3.63H621.92c-13.673 0-22.87 6.897-22.87 18.634 0 12.584 8.592 18.755 20.329 18.755a21.043 21.043 0 0014.278-5.324h.484c2.178 3.146 5.324 5.324 11.616 5.324m56.022 90.958c-3.025 7.502-9.196 12.826-16.456 12.826-9.68 0-16.214-6.05-16.214-17.666s6.534-17.787 16.214-17.787c10.89 0 16.456 9.075 16.456 22.627m-16.456-31.823c-15.73 0-26.983 9.922-26.983 26.983s10.043 26.862 23.716 26.862c6.655 0 11.616-2.3 16.335-6.776l.363.242c-4.719 16.335-18.876 26.74-33.154 32.428l3.751 7.38c24.805-7.138 42.834-29.281 42.834-55.296 0-18.997-9.8-31.823-26.862-31.823m16.213-144.44h-14.64l21.295 84.7h15.73l13.431-66.066h.484l13.552 66.066h15.73l21.296-84.7h-14.641l-14.399 66.67h-.484l-13.31-66.67h-15.85l-13.31 66.67h-.485zm9.195-145.65h-15.125l-7.865 84.7h10.648l6.534-71.632h.484l19.481 60.5h10.285l19.481-60.5h.484l6.534 71.632h10.648l-7.865-84.7H749.33l-18.997 60.5h-.605zm323.912 84.7h10.164v-38.6c0-16.213-6.05-24.32-19.48-24.32-6.898 0-13.31 3.267-18.272 8.954h-.484V192.15l-10.164 2.42v88.33h10.164v-45.012c4.477-5.93 11.011-9.801 16.093-9.801 8.228 0 11.98 5.445 11.98 16.214zm27.954 82.73c-6.534 0-11.616 2.299-16.456 7.744h-.484l-2.42-6.534h-8.954v61.71h12.584v-43.802c2.904-4.598 7.986-8.591 12.342-8.591 6.655 0 9.801 4.477 9.801 14.64v37.753h12.584v-46.343c3.267-3.267 7.502-6.05 11.374-6.05 7.26 0 10.769 4.477 10.769 14.64v37.753h12.584v-38.6c0-16.213-6.534-24.32-20.328-24.32-6.655 0-12.826 2.783-17.908 7.744-2.904-5.445-7.986-7.744-15.488-7.744m7.015-118.062c.605-11.495 6.655-19.481 16.819-19.481 10.043 0 15.125 7.017 15.125 16.698a21.424 21.424 0 01-.121 2.783zm0 7.38h40.293a52.005 52.005 0 001.09-10.163c0-15.125-8.229-24.806-24.806-24.806-17.424 0-27.225 12.947-27.225 32.065 0 20.207 11.737 32.065 28.919 32.065a41.83 41.83 0 0020.57-5.203l-3.509-7.26a32.64 32.64 0 01-15.85 4.356c-12.222 0-18.514-7.623-19.482-21.054m57.717-33.759h-10.043l21.296 61.71h11.979l21.296-61.71h-10.043l-17.061 50.7h-.484zm226.627-108.987c0 8.107-6.292 13.431-16.698 13.431h-11.495V99.256h11.374c10.89 0 16.82 4.356 16.82 12.947m-16.82-24.079h-11.374V64.166h10.89c9.317 0 14.278 3.993 14.278 11.737 0 7.14-5.687 12.221-13.794 12.221m12.947 4.598v-.484c7.744-2.057 14.399-8.228 14.399-19.36 0-14.762-11.374-20.328-26.499-20.328h-25.289v84.7h25.29c16.576 0 29.523-6.17 29.523-23.474 0-11.737-6.776-18.513-17.424-21.054m64.372 27.588c-3.63 4.598-8.349 7.623-14.278 7.623-4.961 0-9.075-2.662-9.075-8.228s4.356-8.954 10.406-8.954h12.947zm11.011 17.545a22.24 22.24 0 007.26-1.21v-9.317h-1.33c-2.663 0-4.357-1.33-4.357-4.356V97.078c0-12.826-4.477-22.748-23.353-22.748a60.433 60.433 0 00-21.78 3.993l3.63 9.801a48.708 48.708 0 0116.698-3.267c9.075 0 12.221 4.598 12.221 11.98v4.113h-12.463c-13.673 0-23.353 6.776-23.353 18.513 0 12.584 7.381 18.392 19.118 18.392 7.986 0 12.947-2.662 17.424-7.139h.484c1.09 3.751 4.114 7.14 9.801 7.14m65.338-83.007l-8.107-5.324c-2.662 5.203-6.776 7.865-11.858 7.865s-9.317-2.783-11.979-7.865l-7.986 5.324c4.356 7.502 11.374 11.374 19.965 11.374 8.47 0 15.61-3.75 19.965-11.374m-6.17 82.401h12.583V75.54h-11.253l-28.435 41.14h-.484V75.54h-12.584v61.71h11.253l28.435-41.14h.484zm67.275 0h12.584V75.54h-12.584v24.684h-24.32V75.54h-12.585v61.71h12.584v-26.499h24.321zm68.726-37.752h-28.556c1.09-8.712 6.292-14.64 14.641-14.64 9.317 0 13.915 6.17 13.915 14.64m10.164 9.801a51.996 51.996 0 001.09-10.164c0-15.125-8.834-24.805-25.41-24.805-16.699 0-27.83 11.737-27.83 32.065 0 20.207 11.857 32.065 30.007 32.065a45.119 45.119 0 0020.691-5.203l-4.114-9.559c-4.477 2.3-9.8 4.235-15.367 4.235-11.132 0-17.424-6.655-18.27-18.634zm56.748-2.904c0 13.673-5.687 21.538-15.246 21.538a22.5 22.5 0 01-13.673-4.356V92.48c3.751-4.598 8.107-7.623 13.19-7.623 10.647 0 15.73 8.833 15.73 21.538m12.825 0c0-18.392-7.502-32.065-24.926-32.065-8.228 0-13.189 3.025-17.545 7.744h-.484L1655 75.54h-8.954v88.33l12.584-2.42v-26.257a36.407 36.407 0 0015.73 3.267c18.392 0 26.015-13.673 26.015-32.065m46.95 167.31h-39.568V198.2h-10.648v84.7h47.795zm-1.213-153.395c-3.63 4.598-8.349 7.623-14.278 7.623-4.96 0-9.075-2.662-9.075-8.228s4.356-8.954 10.406-8.954h12.947zm11.011 17.545a22.241 22.241 0 007.26-1.21v-9.317h-1.331c-2.662 0-4.356-1.33-4.356-4.356V97.078c0-12.826-4.477-22.748-23.353-22.748a60.434 60.434 0 00-21.78 3.993l3.63 9.801a48.708 48.708 0 0116.698-3.267c9.075 0 12.221 4.598 12.221 11.98v4.113h-12.463c-13.673 0-23.353 6.776-23.353 18.513 0 12.584 7.381 18.392 19.118 18.392 7.986 0 12.947-2.662 17.424-7.139h.484c1.09 3.751 4.114 7.14 9.801 7.14m38.48 106.93a21.424 21.424 0 01-.12 2.782h-31.824c.605-11.495 6.655-19.48 16.82-19.48 10.042 0 15.124 7.017 15.124 16.697m-15.367-24.805c-17.424 0-27.225 12.947-27.225 32.065 0 20.207 11.737 32.065 28.92 32.065a41.829 41.829 0 0020.569-5.203l-3.509-7.26a32.64 32.64 0 01-15.85 4.356c-12.222 0-18.514-7.623-19.482-21.054h40.293a52.005 52.005 0 001.09-10.164c0-15.125-8.229-24.805-24.806-24.805M1857.1 52.55h-4.026l-22.022 72.237h-.484l-21.901-72.237h-11.132l26.378 84.7h13.915l19.272-61.882zm-1134.994 84.7l41.02-84.7H749.21l-31.46 67.155h-.484l-8.228-67.155H695.85l11.495 84.7zm74.777-37.752c0 15.851-8.228 28.435-19.844 28.435-7.986 0-12.22-4.96-12.22-14.762 0-15.85 8.227-28.314 19.843-28.314 7.986 0 12.221 4.961 12.221 14.641m12.947-.847c0-14.762-7.502-24.32-23.353-24.32-21.78 0-34.606 18.391-34.606 39.808 0 16.093 8.107 24.321 23.353 24.321 21.78 0 34.606-18.513 34.606-39.809m28.434 50.457l36.663-73.568h-13.31l-23.837 48.763h-.484l-8.228-48.763h-12.22l10.889 61.71h4.235l-4.356 8.954c-2.783 5.687-5.808 7.14-8.59 7.14a14.296 14.296 0 01-6.414-1.695l-4.96 9.801a24.708 24.708 0 0010.284 2.42c6.655 0 14.399-2.904 20.328-14.762m75.261-57.717c0 5.324-4.477 10.164-27.709 10.164 2.783-9.438 9.922-16.698 18.755-16.698 5.203 0 8.954 2.3 8.954 6.534m12.705-.968c0-10.406-8.35-16.093-20.207-16.093-21.78 0-34.485 18.392-34.485 39.81 0 14.761 7.744 24.32 23.595 24.32a44.648 44.648 0 0021.296-5.082l-3.63-9.438c-5.082 2.42-9.438 3.993-14.641 3.993-10.89 0-13.915-6.17-13.915-15.972 30.976 0 41.987-8.833 41.987-21.538m30.49 46.827l31.58-61.71h-12.463l-23.716 47.674h-.363L944.62 75.54h-12.1l10.043 61.71zm73.205-37.752c0 15.851-8.23 28.435-19.845 28.435-7.986 0-12.221-4.96-12.221-14.762 0-15.85 8.229-28.314 19.844-28.314 7.987 0 12.222 4.961 12.222 14.641m12.947-.847c0-14.762-7.503-24.32-23.354-24.32-21.78 0-34.606 18.391-34.606 39.808 0 16.093 8.107 24.321 23.354 24.321 21.779 0 34.606-18.513 34.606-39.809m53.843-9.68l-5.324 30.25c-4.477 5.566-9.196 8.712-15.125 8.712-7.744 0-12.342-4.96-12.342-14.762 0-15.85 8.228-28.314 19.844-28.314a20.693 20.693 0 0112.947 4.114m4.114 48.28L1116.8 46.5l-13.068 2.42-4.961 28.071a31.893 31.893 0 00-13.19-2.662c-21.78 0-34.605 18.392-34.605 39.81 0 16.092 7.38 24.32 20.086 24.32 8.107 0 14.157-2.904 19.602-7.744h.484l1.33 6.534zm43.075-61.71h-21.418l-4.234 10.526h11.253l-8.954 51.183h12.584zm4.598-17.909a7.695 7.695 0 00-7.744-7.623 7.59 7.59 0 00-7.623 7.623 7.489 7.489 0 007.623 7.502 7.593 7.593 0 007.744-7.502m56.385 41.261a48.878 48.878 0 00.726-7.986c0-11.01-5.323-16.577-16.697-16.577-6.897 0-12.585 2.3-18.635 7.744h-.484l-1.331-6.534h-8.954l-10.768 61.71h12.584l7.622-43.802c4.114-4.598 10.285-8.59 15.125-8.59 5.809 0 8.592 2.903 8.592 9.316a31.502 31.502 0 01-.485 5.566l-6.655 37.51h12.584zm52.755-11.858l-5.566 32.065c-4.477 5.566-9.317 8.833-15.246 8.833-7.018 0-10.164-5.566-10.164-14.762 0-15.85 8.228-28.314 19.844-28.314a30.878 30.878 0 0111.132 2.178m3.75 50.215l10.286-58.322c-6.897-2.54-14.157-4.598-23.353-4.598-21.78 0-34.606 18.392-34.606 39.81 0 14.761 5.808 24.32 19.118 24.32 7.623 0 13.31-2.904 18.392-7.744h.484l1.33 6.534zM803.296 695.771c0-16.456 9.438-28.314 20.812-28.314a31.72 31.72 0 0112.947 2.662l5.566-9.68a37.74 37.74 0 00-16.698-3.509c-21.538 0-35.574 17.787-35.574 39.81 0 14.761 8.833 24.32 24.684 24.32a48.202 48.202 0 0018.876-3.75l-2.904-9.68a43.482 43.482 0 01-14.157 2.903c-7.986 0-13.552-4.96-13.552-14.762m182.346-13.673c0 15.851-8.228 28.435-19.844 28.435-7.986 0-12.221-4.96-12.221-14.762 0-15.85 8.228-28.314 19.844-28.314 7.986 0 12.221 4.961 12.221 14.641m-10.406-25.168c-21.78 0-34.606 18.392-34.606 39.81 0 16.092 8.107 24.32 23.353 24.32 21.78 0 34.606-18.513 34.606-39.809 0-14.762-7.502-24.32-23.353-24.32m45.736 26.982c2.904-9.438 9.317-16.456 17.545-16.456 5.324 0 8.228 2.057 8.228 6.534 0 4.961-4.476 9.68-25.773 9.922m-2.057 9.801c6.05-.242 11.617-1.21 15.972-1.21 6.776 0 8.833 3.51 8.833 7.26 0 6.292-6.654 10.77-14.399 10.77-7.26 0-10.406-5.688-10.406-15.005zm26.983-6.05v-.484c7.019-1.089 13.189-6.776 13.189-15.004 0-9.317-5.687-15.246-18.391-15.246-20.571 0-34.002 18.392-34.002 39.688 0 14.883 6.171 24.442 20.328 24.442 19.118 0 29.04-10.527 29.04-21.78 0-6.897-4.114-10.769-10.164-11.616M843.466 719.85h12.585l7.623-43.802c3.751-4.598 9.074-8.59 13.673-8.59 5.203 0 7.744 2.782 7.744 8.953a33.876 33.876 0 01-.484 5.687l-6.656 37.752h12.585l8.107-46.343c3.63-3.267 8.349-6.05 12.221-6.05 5.808 0 8.712 2.904 8.712 9.317a28.879 28.879 0 01-.485 5.324l-6.654 37.752h12.584l6.776-38.599a46.138 46.138 0 00.726-7.744c0-11.01-5.445-16.577-16.819-16.577-6.655 0-13.068 2.783-18.998 7.744-1.935-5.445-6.654-7.744-14.156-7.744-6.534 0-11.737 2.3-17.545 7.744h-.484l-1.331-6.534h-8.955zm-105.148-18.634a31.484 31.484 0 01.484-5.566l6.534-37.51h-12.583l-6.655 38.357a48.78 48.78 0 00-.727 7.986c0 11.011 5.93 16.577 17.303 16.577a29.073 29.073 0 0019.844-7.744h.485l1.33 6.534h8.954l10.77-61.71h-12.584l-7.624 43.802c-4.114 4.598-11.495 8.591-16.335 8.591-5.808 0-9.196-2.904-9.196-9.317m-35.33-19.118c0 15.488-7.623 28.435-19.723 28.435a19.442 19.442 0 01-12.947-4.356l5.566-31.097c4.477-4.598 9.801-7.623 14.883-7.623 7.986 0 12.221 4.961 12.221 14.641m13.068-.847c0-16.093-7.623-24.32-21.9-24.32-7.866 0-12.827 3.387-17.183 7.743h-.484l-1.33-6.534h-8.955l-15.488 88.33 12.947-2.42 4.598-26.257a29.02 29.02 0 0013.068 3.267c21.66 0 34.727-18.15 34.727-39.809m-176.175 14.52c0-15.85 8.228-28.314 19.844-28.314a30.879 30.879 0 0111.132 2.178l-5.566 32.065c-4.477 5.566-9.317 8.833-15.246 8.833-7.018 0-10.164-5.566-10.164-14.762m6.171 25.289c7.623 0 13.31-2.904 18.392-7.744h.484l1.331 6.534h8.35l10.284-58.322c-6.897-2.541-14.157-4.598-23.353-4.598-21.78 0-34.606 18.392-34.606 39.809 0 14.762 5.808 24.321 19.118 24.321m-58.563-27.83h6.776a72.922 72.922 0 0014.036 27.83l13.794-1.21c-7.986-9.075-14.641-19.118-17.303-31.339l24.926-30.371H516.65l-20.933 24.805h-6.413l4.356-24.805h-12.705l-10.769 61.71h12.584zm-140.478 15.004c8.47-11.979 16.214-32.912 19.965-53.966l1.331-7.502h23.111l-10.89 61.468zm-13.189 11.616h56.87l-3.146 17.787h10.648l7.502-29.403h-12.1l12.947-73.084h-48.884l-1.694 9.438c-4.84 27.83-12.22 51.425-23.595 63.646h-9.68l-2.54 29.403h10.526zm92.684-35.695c2.783-9.438 9.922-16.698 18.755-16.698 5.203 0 8.954 2.299 8.954 6.534 0 5.324-4.477 10.164-27.709 10.164m9.317 36.905a44.649 44.649 0 0021.296-5.082l-3.63-9.438c-5.082 2.42-9.438 3.993-14.641 3.993-10.89 0-13.915-6.171-13.915-15.972 30.976 0 41.987-8.833 41.987-21.538 0-10.406-8.349-16.093-20.207-16.093-21.78 0-34.485 18.392-34.485 39.809 0 14.762 7.744 24.321 23.595 24.321m170.607-40.051c5.93-7.381 12.947-10.527 19.118-10.527 7.865 0 11.98 4.719 11.98 13.915 0 12.463-7.019 26.136-20.45 26.136-7.865 0-11.979-5.445-11.979-16.335a82.21 82.21 0 011.331-13.189m25.894-36.421c7.986-.605 16.335-2.178 23.595-5.445l-2.54-10.043c-6.777 2.541-11.133 3.63-20.329 4.477-20.207 1.815-32.428 8.954-39.325 47.916a83.98 83.98 0 00-1.33 13.794c0 15.609 7.38 25.773 22.868 25.773 22.99 0 35.332-19.239 35.332-39.204 0-14.641-7.986-21.901-20.933-21.901a30.371 30.371 0 00-21.175 7.865h-.363c3.146-17.666 10.648-22.264 24.2-23.232M1340.65 198.2h-47.916c-9.196 52.151-16.456 73.447-26.136 73.447a6.798 6.798 0 01-3.509-.847l-4.356 11.011a16.679 16.679 0 007.743 1.694c18.393 0 28.436-23.716 37.27-73.689h21.779l-12.826 73.084h13.068zm43.44 38.841c0 5.324-4.479 10.164-27.71 10.164 2.783-9.438 9.922-16.698 18.754-16.698 5.204 0 8.955 2.299 8.955 6.534m-7.503-17.061c-21.78 0-34.485 18.392-34.485 39.809 0 14.762 7.744 24.321 23.596 24.321a44.644 44.644 0 0021.295-5.082l-3.63-9.438c-5.081 2.42-9.438 3.993-14.641 3.993-10.89 0-13.915-6.171-13.915-15.972 30.976 0 41.987-8.833 41.987-21.538 0-10.406-8.349-16.093-20.207-16.093m71.147 1.21l-4.356 24.684h-24.321l4.356-24.684h-12.584l-10.769 61.71h12.584l4.598-26.499h24.321l-4.598 26.499h12.584l10.769-61.71zm78.77 0h-12.584l-7.623 43.802c-4.114 4.598-11.495 8.591-16.335 8.591-5.808 0-9.196-2.904-9.196-9.317a31.494 31.494 0 01.484-5.566l6.534-37.51h-12.584l-6.655 38.357a48.88 48.88 0 00-.726 7.986c0 11.011 5.93 16.577 17.303 16.577a29.075 29.075 0 0019.844-7.744h.484l1.331 6.534h8.954zm52.15 0l-4.356 24.684h-24.32l4.355-24.684h-12.584l-10.769 61.71h12.584l4.598-26.499h24.321l-4.598 26.499h12.584l10.77-61.71zm62.798 11.495l-5.566 32.065c-4.477 5.566-9.317 8.833-15.246 8.833-7.018 0-10.164-5.566-10.164-14.762 0-15.851 8.228-28.314 19.844-28.314a30.88 30.88 0 0111.132 2.178m14.036-8.107c-6.897-2.541-14.157-4.598-23.353-4.598-21.78 0-34.606 18.392-34.606 39.809 0 14.762 5.808 24.321 19.118 24.321 7.623 0 13.31-2.904 18.392-7.744h.484l1.331 6.534h8.35z" fill="#ffd200"/></svg>