<svg xmlns="http://www.w3.org/2000/svg" viewBox="0 0 822.1904 203.627"><defs><style>.a{fill:#ffd400;}</style></defs><path class="a" d="M94.1289,150.9912h82.6035l-7.6836,48.794H0V154.833c55.3252-24.2041,112.9551-49.9463,112.9551-85.6768,0-12.6787-9.2207-20.3632-25.7412-20.3632-21.1309,0-41.4942,6.1484-60.3194,14.9843L4.61,18.4414C36.499,3.8418,61.4727,0,89.9033,0c51.0987,0,79.1455,22.668,79.1455,61.4727,0,38.42-36.8838,72.2294-74.92,88.3652Z"/><path class="a" d="M303.5186,203.627c-57.2461,0-97.9707-33.4258-97.9707-101.8135S245.8887,0,303.5186,0,401.49,33.4258,401.49,101.8135,360.7646,203.627,303.5186,203.627Zm-.3838-48.794c23.0517,0,42.2617-18.0576,42.2617-53.0195s-19.21-53.0205-42.2617-53.0205c-22.2842,0-41.4942,18.0586-41.4942,53.0205S280.8506,154.833,303.1348,154.833Z"/><path class="a" d="M524.4346,150.9912h82.6035l-7.6836,48.794H430.3057V154.833c55.3252-24.2041,112.955-49.9463,112.955-85.6768,0-12.6787-9.2207-20.3632-25.7412-20.3632-21.1308,0-41.4941,6.1484-60.3193,14.9843L434.916,18.4414C466.8047,3.8418,491.7783,0,520.209,0c51.0986,0,79.1455,22.668,79.1455,61.4727,0,38.42-36.8838,72.2294-74.92,88.3652Z"/><path class="a" d="M739.5869,150.9912H822.19l-7.6836,48.794H645.458V154.833c55.3252-24.2041,112.9551-49.9463,112.9551-85.6768,0-12.6787-9.2207-20.3632-25.7412-20.3632-21.1309,0-41.4942,6.1484-60.3194,14.9843L650.0684,18.4414C681.957,3.8418,706.9307,0,735.3613,0c51.0987,0,79.1455,22.668,79.1455,61.4727,0,38.42-36.8838,72.2294-74.92,88.3652Z"/></svg>