<svg xmlns="http://www.w3.org/2000/svg" viewBox="0 0 3451.8101 1000"><defs><style>.a{fill:#00b400;}.a,.c{fill-rule:evenodd;}.b{fill:#00b4ff;}.c,.d{fill:#fff;}</style></defs><path class="a" d="M29.78,687H371.07V807.18L188.4,882H29.78ZM761.15,484.7H978.73V195.34H761.15Z"/><path class="b" d="M536.92,195.35V468.5c0,114.53,74.46,160.06,146.74,206.62C776.52,735,871.55,796.19,871.55,970.06H798.62c0-134.27-78-184.55-154.28-233.68C555.07,678.87,464,622.62,464,468.5V195.35H372.25V19.26H631.9V195.35Z"/><path class="c" d="M0,0V1000H3451.81V0ZM763.72,42.56H957.45V174.07H763.72Zm0,174.06H957.45V463.43H763.72Zm0,289.35H957.45V752.78L763.72,570ZM658.7,42.56h62.48V174.07H658.7Zm0,174.06h62.48V463.43H658.7ZM383.84,732.41l61.93,53.45H383.84Zm-42.55,225H42.55V903.33H180.37L341.29,838.1Zm0-164.8L173,860.72H42.55V705H341.29Zm0-130.14H42.55V506H341.29Zm0-199.07H42.55V331.08H341.29Zm0-175.51H42.55V144.6l86.24,72h212.5Zm0-113.85h-196L42.55,86.72V42.56H341.29Zm137.43,783.4H383.84v-129h94.88Zm137.43,0H521.26v-129h94.89Zm0-171.58H508.21L383.84,674.55V506H616.15Zm0-322.43H383.84V216.62H616.15Zm0-289.36H383.84V42.56H616.15ZM658.7,506h62.48v82.3L957.45,811.13V957.44H658.7ZM3409.24,957.45H1000V42.56H3409.24Z"/><path class="d" d="M3012.21,220.36a11.24,11.24,0,0,1,8.2,3.16,11,11,0,0,1,3.2,8.26,20.3178,20.3178,0,0,1-.58,4.75,54.7507,54.7507,0,0,1-2.62,7.14l-6.78,17.12h-11.77l5.23-18.91a9.72,9.72,0,0,1-4.69-3.86,11.26,11.26,0,0,1-1.72-6.24,10.9307,10.9307,0,0,1,3.27-8.26,11.43,11.43,0,0,1,8.26-3.16m-79.41,9c3.57.08,6.29-.68,8.2-2.27s2.86-3.95,2.86-7.13-.93-5.35-2.79-6.77-4.63-2.18-8.27-2.27l-11.06-.11v18.55Zm36.37-50.89h18.43v64h-18.43ZM2937,199q12.49.14,18.91,5.6c4.28,3.65,6.41,8.87,6.41,15.7q0,10.68-7.25,16.51t-20.57,5.83l-31.14-.12v-64h18.42V199Zm-81.67,29.25a15.39,15.39,0,0,0,11.72-4.82c3-3.2,4.57-7.49,4.57-12.9s-1.52-9.67-4.57-12.89a16.66,16.66,0,0,0-23.42,0q-4.58,4.83-4.58,12.89c0,5.41,1.53,9.7,4.58,12.9a15.36,15.36,0,0,0,11.66,4.78Zm3.22-50.64a32.8105,32.8105,0,0,1,16.23,4.1,29.4613,29.4613,0,0,1,11.47,11.54,38.11,38.11,0,0,1,0,34.59,29.5684,29.5684,0,0,1-11.47,11.53,32.7,32.7,0,0,1-16.23,4.1q-12.24,0-19.25-7.73v29.84h-18.55v-87h17.7v7.37q6.86-8.38,20.06-8.38Zm-46.6,1L2783,246.4c-2.94,7.38-6.56,12.55-10.87,15.57a26.69,26.69,0,0,1-15.64,4.52,32.5526,32.5526,0,0,1-9.87-1.55,21.7683,21.7683,0,0,1-8-4.28l6.79-13.19a16.16,16.16,0,0,0,4.93,3,15.3911,15.3911,0,0,0,5.52,1.06,9.86,9.86,0,0,0,6.19-1.84,15.6312,15.6312,0,0,0,4.27-6.12l.24-.59-27.69-64.44h19.14l17.94,43.4,18.07-43.4Zm-74.54,15.22h-21.63v48.74h-18.42V193.74h-21.63V178.52h61.68Zm-101.26,24.48h-9.63v24.26h-18.54v-64h18.54v24.85h10l17.37-24.85h19.72L2651.2,209.2l23.89,33.28h-21.86ZM2560.5,191.6a16.0006,16.0006,0,0,0-10.58,3.57,15.17,15.17,0,0,0-5.23,9.74h31.5a15.34,15.34,0,0,0-5.23-9.69A15.61,15.61,0,0,0,2560.5,191.6Zm33.17,19.14c0,.23-.13,1.89-.36,5h-48.38a15.12,15.12,0,0,0,6.19,9.41,20.5392,20.5392,0,0,0,12.11,3.44,24.7794,24.7794,0,0,0,8.86-1.48,21.7583,21.7583,0,0,0,7.2-4.7l9.87,10.7q-9,10.35-26.4,10.34a41.74,41.74,0,0,1-19.13-4.22,31.0708,31.0708,0,0,1-12.85-11.71,32.28,32.28,0,0,1-4.51-17,32.7212,32.7212,0,0,1,4.46-16.94A31.0009,31.0009,0,0,1,2543,181.8a37.89,37.89,0,0,1,34.42-.19,29.3417,29.3417,0,0,1,11.93,11.6A34.4906,34.4906,0,0,1,2593.67,210.74Zm-69.43-17h-21.62v48.74h-18.44V193.74h-21.63V178.52h61.69Zm-138.12-15.22h18.43v38l31.14-38h17v64h-18.43v-38l-31,38h-17.12Zm-30.19,64-14-19.61-14.5,19.61h-20.2l24.6-32.22L2308,178.52h20.8l13.56,18.66,13.9-18.66H2376l-23.77,31.27L2377,242.48Zm-86.18-14.27a15.33,15.33,0,0,0,11.7-4.82c3.06-3.2,4.59-7.49,4.59-12.9s-1.53-9.67-4.59-12.89a16.65,16.65,0,0,0-23.41,0q-4.58,4.83-4.57,12.89c0,5.41,1.52,9.7,4.57,12.9a15.38,15.38,0,0,0,11.71,4.78Zm3.21-50.64a32.72,32.72,0,0,1,16.22,4.1,29.4008,29.4008,0,0,1,11.47,11.54,38,38,0,0,1,0,34.59,29.5,29.5,0,0,1-11.47,11.53,32.61,32.61,0,0,1-16.22,4.1q-12.24,0-19.26-7.73v29.84h-18.53v-87h17.69v7.37q6.91-8.38,20.14-8.38Zm-86.06,53.37a16.17,16.17,0,0,0,8.43-2.19,11.9111,11.9111,0,0,0,5.23-6.49v-6.54h-12.72q-11.39,0-11.4,7.49a6.68,6.68,0,0,0,2.79,5.66,12.65,12.65,0,0,0,7.67,2.03Zm1.42-53.37q14.86,0,22.82,7.07t8,21.34v36.5h-17.36v-8q-5.22,8.91-19.49,8.91a30.1193,30.1193,0,0,1-12.77-2.5,19.08,19.08,0,0,1-8.27-6.89,18,18,0,0,1-2.85-10,16.69,16.69,0,0,1,6.71-14q6.72-5.11,20.75-5.11h14.73q0-6.06-3.67-9.32t-11.06-3.27a32.3389,32.3389,0,0,0-10,1.6,26.5288,26.5288,0,0,0-8.38,4.33l-6.65-12.95a39.618,39.618,0,0,1,12.53-5.7,55.79,55.79,0,0,1,14.96-2.05ZM2120,193.74h-21.64v48.74h-18.43V193.74H2058.3V178.52H2120Zm-136.24-15.22h18.44v25H2030v-25h18.55v64H2030V218.59h-27.8v23.89h-18.44Zm-47.43,13.08a15.93,15.93,0,0,0-10.57,3.57,15.0706,15.0706,0,0,0-5.22,9.74H1952a15.34,15.34,0,0,0-5.23-9.69,15.62,15.62,0,0,0-10.46-3.62Zm33.17,19.14c0,.23-.11,1.89-.35,5h-48.38a15.09,15.09,0,0,0,6.17,9.41,20.66,20.66,0,0,0,12.14,3.44,24.839,24.839,0,0,0,8.85-1.48,21.68,21.68,0,0,0,7.18-4.7l9.87,10.7q-9,10.35-26.38,10.34a41.8506,41.8506,0,0,1-19.15-4.22,31.07,31.07,0,0,1-12.83-11.71,32.28,32.28,0,0,1-4.52-17,32.91,32.91,0,0,1,4.45-16.94,31.321,31.321,0,0,1,12.25-11.75,37.89,37.89,0,0,1,34.42-.19,29.58,29.58,0,0,1,12,11.6,34.68,34.68,0,0,1,4.26,17.5Zm-96.63,31.74V204.2l-19.14,32.09h-7.86l-18.65-32.2v38.39h-16.76v-64h19.37l20.44,37,21.76-37h17.35l.25,64Zm-110.8-11.54a16.2094,16.2094,0,0,0,8.44-2.19,12,12,0,0,0,5.23-6.49v-6.54H1763q-11.4,0-11.4,7.49a6.66,6.66,0,0,0,2.79,5.66,12.6206,12.6206,0,0,0,7.66,2.07Zm1.43-53.37q14.85,0,22.83,7.07t8,21.34v36.5h-17.35v-8q-5.25,8.91-19.5,8.91a30.24,30.24,0,0,1-12.79-2.5,19.0006,19.0006,0,0,1-8.25-6.89,18,18,0,0,1-2.85-10q0-8.91,6.7-14t20.76-5.11h14.73q0-6.06-3.68-9.32t-11-3.27a32.2512,32.2512,0,0,0-10,1.6,26.5806,26.5806,0,0,0-8.39,4.33l-6.64-12.95a39.8218,39.8218,0,0,1,12.53-5.7,55.6839,55.6839,0,0,1,14.88-2.01Zm-34.72,16.17h-21.63v48.74h-18.41V193.74H1667.1V178.52h61.68Zm-99.36,34.47a15.4,15.4,0,0,0,11.71-4.82c3.05-3.2,4.57-7.49,4.57-12.9s-1.52-9.67-4.57-12.89a16.66,16.66,0,0,0-23.42,0c-3,3.22-4.59,7.51-4.59,12.89s1.54,9.7,4.59,12.9a15.37,15.37,0,0,0,11.69,4.82Zm3.21-50.64a32.78,32.78,0,0,1,16.23,4.1,29.5309,29.5309,0,0,1,11.47,11.54,38.11,38.11,0,0,1,0,34.59,29.64,29.64,0,0,1-11.47,11.53,32.67,32.67,0,0,1-16.23,4.1q-12.24,0-19.26-7.73v29.84H1594.8v-87h17.71v7.37q6.91-8.34,20.1-8.34Zm-86.07,53.37a16.25,16.25,0,0,0,8.45-2.19,12,12,0,0,0,5.22-6.49v-6.54H1547.5q-11.43,0-11.42,7.49a6.69,6.69,0,0,0,2.8,5.66c1.85,1.38,4.41,2.07,7.66,2.07Zm1.43-53.37c9.91,0,17.5,2.36,22.82,7.07s8,11.84,8,21.34v36.5H1561.4v-8q-5.24,8.91-19.49,8.91a30.239,30.239,0,0,1-12.79-2.5,19.11,19.11,0,0,1-8.26-6.89,18,18,0,0,1-2.85-10q0-8.91,6.72-14t20.74-5.11h14.74q0-6.06-3.69-9.32-3.69-3.27-11-3.27a32.234,32.234,0,0,0-10,1.6,26.3125,26.3125,0,0,0-8.38,4.33l-6.66-12.95a39.9436,39.9436,0,0,1,12.55-5.7,55.564,55.564,0,0,1,14.97-2.01Zm-42.67,1v64h-18.54V193.74h-26.64v48.74h-18.41v-64Zm-111,13.08a16,16,0,0,0-10.58,3.57,15.12,15.12,0,0,0-5.23,9.74H1410a15.39,15.39,0,0,0-5.23-9.69,15.63,15.63,0,0,0-10.5-3.67Zm33.16,19.14c0,.23-.11,1.89-.35,5h-48.39a15.12,15.12,0,0,0,6.19,9.41,20.5492,20.5492,0,0,0,12.12,3.44,24.6873,24.6873,0,0,0,8.85-1.48,21.76,21.76,0,0,0,7.2-4.7l9.87,10.7q-9,10.35-26.4,10.34a41.7905,41.7905,0,0,1-19.13-4.22,31.0992,31.0992,0,0,1-12.84-11.71,32.28,32.28,0,0,1-4.51-17,32.63,32.63,0,0,1,4.46-16.94,31.0907,31.0907,0,0,1,12.24-11.75,37.87,37.87,0,0,1,34.41-.19,29.5813,29.5813,0,0,1,11.95,11.6,34.5806,34.5806,0,0,1,4.28,17.45ZM1295,187.08a174.9822,174.9822,0,0,1-2.5,24.91q-1.9,10-5.83,14.8h37.21V175h-28.54ZM2540,374.51a16.2192,16.2192,0,0,0,8.44-2.2,12.0794,12.0794,0,0,0,5.24-6.47V359.3H2541q-11.4,0-11.41,7.49a6.67,6.67,0,0,0,2.79,5.64,12.67,12.67,0,0,0,7.67,2.08Zm1.42-53.38q14.87,0,22.83,7.08t8,21.33V386h-17.36v-8q-5.23,8.9-19.49,8.91a30.37,30.37,0,0,1-12.79-2.5,18.9989,18.9989,0,0,1-8.25-6.89,17.9,17.9,0,0,1-2.85-10,16.66,16.66,0,0,1,6.7-14q6.73-5.1,20.76-5.11h14.74q0-6.06-3.69-9.34c-2.46-2.17-6.15-3.27-11.05-3.27a32.2609,32.2609,0,0,0-10,1.61,26.6106,26.6106,0,0,0-8.39,4.35l-6.65-13a39.8822,39.8822,0,0,1,12.54-5.7,56.4589,56.4589,0,0,1,15-1.93Zm-66.21,52.3c6.82,0,10.23-2.32,10.23-7a6.27,6.27,0,0,0-2.37-5.41c-1.6-1.15-4.08-1.71-7.49-1.71H2459.7v14.13Zm-15.56-25.07h14q9.75,0,9.74-6.89t-9.74-6.79h-14Zm31.85,4.28q11.28,3.8,11.3,15.2,0,8.69-6.54,13.45t-19.5,4.75H2442.7v-64h32.69q12,0,18.78,4.35a13.69,13.69,0,0,1,6.78,12.18,14.6705,14.6705,0,0,1-2.45,8.38,15.9988,15.9988,0,0,1-6.95,5.69Zm-58.73-15.34h-21.63V386h-18.41V337.3h-21.64V322.08h61.68ZM2339.39,387a39.26,39.26,0,0,1-18.35-4.22,31.5213,31.5213,0,0,1-12.72-11.71,32.25,32.25,0,0,1,10.3711-44.4136q1.1273-.7,2.3091-1.3064a39.38,39.38,0,0,1,18.35-4.22,35.7406,35.7406,0,0,1,17.66,4.22,25,25,0,0,1,11,12.07l-14.38,7.73c-3.33-5.86-8.14-8.8-14.39-8.8a16.2907,16.2907,0,0,0-12,4.76q-4.74,4.74-4.75,13t4.75,12.95a16.29,16.29,0,0,0,12,4.75q9.51,0,14.39-8.79l14.38,7.84a25.51,25.51,0,0,1-11,11.89A35.13,35.13,0,0,1,2339.39,387Zm-71.9-14c3.57.09,6.29-.67,8.2-2.25s2.85-4,2.85-7.14-.94-5.35-2.8-6.77-4.61-2.18-8.25-2.25l-12-.14V373Zm4.15-30.42q12.49.1,19.14,5.65t6.65,15.62q0,10.57-7.41,16.46t-20.87,5.88l-32.09-.11v-64h18.42v20.46Zm-52.42-20.46v64h-18.54V337.3h-20.21l-.59,11.29a115.8755,115.8755,0,0,1-2.38,20.93q-1.9,8.31-6.18,13.07c-2.86,3.17-6.81,4.76-11.89,4.76a39.765,39.765,0,0,1-9.63-1.42l.95-15.22a26.9089,26.9089,0,0,0,2.74.23,7,7,0,0,0,6.23-3,18.1531,18.1531,0,0,0,2.79-7.72q.72-4.71,1.09-12.42l1-25.69ZM2111.05,335.2a15.9993,15.9993,0,0,0-10.58,3.56,15.24,15.24,0,0,0-5.23,9.76h31.5a15.28,15.28,0,0,0-5.24-9.69,15.62,15.62,0,0,0-10.45-3.67Zm33.16,19.14c0,.25-.12,1.91-.35,5h-48.39a15.0589,15.0589,0,0,0,6.2,9.38,20.2894,20.2894,0,0,0,12.11,3.45,24.4621,24.4621,0,0,0,8.85-1.49,21.3214,21.3214,0,0,0,7.2-4.69l9.87,10.7q-9,10.32-26.4,10.34a41.79,41.79,0,0,1-19.13-4.22,31.0014,31.0014,0,0,1-12.84-11.71,34.35,34.35,0,0,1,0-33.94,31.32,31.32,0,0,1,12.23-11.77,36.11,36.11,0,0,1,17.42-4.22,35.75,35.75,0,0,1,17,4.05,29.4894,29.4894,0,0,1,12,11.59,34.5506,34.5506,0,0,1,4.23,17.49Zm-69.42-17h-21.63V386h-18.42V337.3H2013.1V322.08h61.69Zm-138.11-15.22h18.41v38l31.15-38h17v64h-18.42V348l-31,38h-17.1Zm-47.8,49.69a15.53,15.53,0,0,0,11.72-4.8q4.56-4.83,4.56-12.9t-4.56-12.9a16.71,16.71,0,0,0-23.48,0q-4.63,4.8-4.63,12.9t4.63,12.9a15.69,15.69,0,0,0,11.76,4.76Zm0,15.22a38.3518,38.3518,0,0,1-18.12-4.22,31.51,31.51,0,0,1-12.55-11.71,34.29,34.29,0,0,1,0-34,31.58,31.58,0,0,1,12.55-11.71,40.93,40.93,0,0,1,36.2,0,31.56,31.56,0,0,1,12.47,11.71,34.23,34.23,0,0,1,0,34A31.49,31.49,0,0,1,1907,382.77a38.07,38.07,0,0,1-18.12,4.23Zm-78-15.22a15.47,15.47,0,0,0,11.71-4.8c3.07-3.22,4.59-7.52,4.59-12.9s-1.52-9.7-4.59-12.9a16.62,16.62,0,0,0-23.41,0q-4.59,4.8-4.59,12.9t4.59,12.9a15.49,15.49,0,0,0,11.72,4.76Zm3.22-50.64a32.5387,32.5387,0,0,1,16.22,4.11,29.5,29.5,0,0,1,11.47,11.53,38,38,0,0,1,0,34.59,29.4407,29.4407,0,0,1-11.47,11.53,32.64,32.64,0,0,1-16.22,4.1q-12.25,0-19.26-7.73v29.8h-18.55v-87H1794v7.38q6.93-8.33,20.12-8.35Zm-47.55,16.17h-21.64V386h-18.42V337.3h-21.63V322.08h61.69ZM1673.14,387a39.43,39.43,0,0,1-18.37-4.22,31.651,31.651,0,0,1-12.72-11.71,32.25,32.25,0,0,1,10.4084-44.4048q1.1285-.7,2.3116-1.3052a39.5507,39.5507,0,0,1,18.37-4.22,35.75,35.75,0,0,1,17.65,4.22,24.9994,24.9994,0,0,1,11,12.07l-14.38,7.73q-5-8.79-14.37-8.8a16.28,16.28,0,0,0-12,4.76c-3.17,3.16-4.77,7.48-4.77,13s1.6,9.78,4.77,12.95a16.27,16.27,0,0,0,12,4.75q9.49,0,14.37-8.79l14.38,7.84a25.44,25.44,0,0,1-11,11.89A35.14,35.14,0,0,1,1673.14,387Zm-78.21-15.22a15.49,15.49,0,0,0,11.7-4.8q4.57-4.83,4.57-12.9t-4.57-12.9a15.4,15.4,0,0,0-11.7-4.82,15.58,15.58,0,0,0-11.77,4.82c-3.09,3.2-4.65,7.5-4.65,12.9s1.56,9.68,4.65,12.9a15.68,15.68,0,0,0,11.77,4.79Zm0,15.22a38.3606,38.3606,0,0,1-18.13-4.22,31.4405,31.4405,0,0,1-12.55-11.71,34.23,34.23,0,0,1,0-34,31.5106,31.5106,0,0,1,12.55-11.71,40.9,40.9,0,0,1,36.19,0,31.45,31.45,0,0,1,12.48,11.71,34.23,34.23,0,0,1,0,34,31.39,31.39,0,0,1-12.47,11.7A38,38,0,0,1,1594.93,387Zm-90.58-41.49a115.7276,115.7276,0,0,1-1.49,15.93q-1.12,6.18-4.22,9.39h27V337.3H1504.7Zm49,25.32v29h-17.24V386h-44.93v13.79h-17.24v-29h2.61c4-.08,6.7-2.42,8.21-7s2.46-11.14,2.85-19.61l.84-22.12h55.75V370.8Zm-120.06,3.69a16.25,16.25,0,0,0,8.45-2.2,12.09,12.09,0,0,0,5.22-6.47V359.3h-12.72c-7.6,0-11.42,2.49-11.42,7.49a6.68,6.68,0,0,0,2.8,5.64,12.6305,12.6305,0,0,0,7.64,2.08Zm1.43-53.38q14.85,0,22.82,7.08t8,21.33V386h-17.36v-8q-5.22,8.9-19.49,8.91a30.38,30.38,0,0,1-12.78-2.5,19.0006,19.0006,0,0,1-8.26-6.89,17.9,17.9,0,0,1-2.85-10,16.7,16.7,0,0,1,6.71-14q6.72-5.1,20.75-5.11H1447q0-6.06-3.68-9.34c-2.45-2.17-6.15-3.27-11.06-3.27a32.2026,32.2026,0,0,0-10,1.61,26.3383,26.3383,0,0,0-8.38,4.35l-6.67-13a40.0015,40.0015,0,0,1,12.55-5.7,56.4272,56.4272,0,0,1,14.93-1.93Zm-71.8,50.64a15.51,15.51,0,0,0,11.71-4.8q4.56-4.83,4.57-12.9t-4.57-12.9a16.63,16.63,0,0,0-23.42,0q-4.58,4.8-4.57,12.9t4.57,12.9a15.51,15.51,0,0,0,11.68,4.79Zm3.21-50.64a32.54,32.54,0,0,1,16.22,4.11,29.4391,29.4391,0,0,1,11.47,11.53,38,38,0,0,1,0,34.59,29.3692,29.3692,0,0,1-11.47,11.53,32.64,32.64,0,0,1-16.22,4.1q-12.24,0-19.25-7.73V409.1H1328.3v-87H1346v7.38q6.9-8.33,20.1-8.35Zm-47.55,16.17h-32.82V386h-18.41V322h51.23ZM3111.09,529.6l-14-19.61-14.51,19.61h-20.2l24.6-32.22-23.77-31.72H3084l13.54,18.65,13.92-18.65h19.73l-23.77,31.25,24.72,32.69ZM2998.3,516.53q5.34.11,8.2-2.26c1.9-1.58,2.85-3.95,2.85-7.13s-.93-5.35-2.79-6.78-4.63-2.18-8.26-2.26l-11.06-.11v18.54Zm36.36-50.87h18.43V529.6h-18.43Zm-32.21,20.44q12.5.12,18.91,5.58t6.41,15.69q0,10.71-7.25,16.53T3000,529.72l-31.15-.12V465.66h18.42V486.1Zm-116.13-20.44h18.43v24.95h27.81V465.66h18.54V529.6h-18.54V505.7h-27.81v23.9h-18.43Zm-41.49,50.87c3.58.07,6.3-.68,8.2-2.26s2.87-3.95,2.87-7.13-.94-5.35-2.8-6.78-4.62-2.18-8.27-2.26l-12-.11v18.54ZM2849,486.1q12.48.12,19.14,5.65t6.65,15.62q0,10.57-7.43,16.47t-20.87,5.88l-32.08-.12V465.66h18.42V486.1Zm-52.42-20.44V529.6H2778V480.87h-20.21l-.59,11.29a115.7476,115.7476,0,0,1-2.38,20.92q-1.91,8.32-6.18,13.08c-2.86,3.17-6.81,4.75-11.88,4.75a40.201,40.201,0,0,1-9.63-1.42l1-15.22c1.27.15,2.18.24,2.73.24a7.06,7.06,0,0,0,6.24-3,18.65,18.65,0,0,0,2.8-7.74q.7-4.68,1.07-12.42l1-25.66ZM2688.4,478.72a15.93,15.93,0,0,0-10.57,3.58,15.08,15.08,0,0,0-5.24,9.74h31.5a15.42,15.42,0,0,0-5.23-9.69A15.65,15.65,0,0,0,2688.4,478.72Zm33.17,19.14c0,.24-.13,1.9-.37,5h-48.38a15.08,15.08,0,0,0,6.2,9.38,20.33,20.33,0,0,0,12.11,3.45,24.2584,24.2584,0,0,0,8.85-1.48,21.4213,21.4213,0,0,0,7.2-4.69l9.88,10.69q-9,10.35-26.41,10.34a41.59,41.59,0,0,1-19.12-4.22,30.79,30.79,0,0,1-12.84-11.71,32.149,32.149,0,0,1-4.52-17,32.58,32.58,0,0,1,4.46-16.94,31.05,31.05,0,0,1,12.24-11.76,37.85,37.85,0,0,1,34.42-.18,29.35,29.35,0,0,1,11.93,11.58,34.5927,34.5927,0,0,1,4.3506,17.54Zm-96.65,31.74V491.32l-19.12,32.11h-7.86l-18.65-32.22V529.6h-16.77V465.66h19.38l20.45,37,21.75-37h17.34l.25,63.94Zm-109.83-50.88a15.9,15.9,0,0,0-10.57,3.58,15,15,0,0,0-5.23,9.74h31.49a15.3709,15.3709,0,0,0-5.23-9.69,15.69,15.69,0,0,0-10.46-3.63Zm33.16,19.14c0,.24-.11,1.9-.35,5h-48.38a15,15,0,0,0,6.18,9.38,20.4,20.4,0,0,0,12.13,3.45,24.33,24.33,0,0,0,8.85-1.48,21.3786,21.3786,0,0,0,7.19-4.69l9.87,10.69q-9,10.35-26.39,10.34a41.62,41.62,0,0,1-19.14-4.22,30.91,30.91,0,0,1-12.84-11.71,32.2419,32.2419,0,0,1-4.52-17,32.5785,32.5785,0,0,1,4.46-16.94,31.2493,31.2493,0,0,1,12.24-11.76A35.92,35.92,0,0,1,2515,464.7a35.4892,35.4892,0,0,1,17,4.05,29.47,29.47,0,0,1,12,11.58,34.5791,34.5791,0,0,1,4.25,17.53Zm-87.6-1.53a18.43,18.43,0,0,1,8.85,5.46,13.0005,13.0005,0,0,1,3.15,8.79,15.3592,15.3592,0,0,1-4.16,10.65,26.92,26.92,0,0,1-11.41,7.06,49.8229,49.8229,0,0,1-16.4,2.5,70.5229,70.5229,0,0,1-14.74-1.54,56.7693,56.7693,0,0,1-13.43-4.64l5-12.95a51.0019,51.0019,0,0,0,22.34,4.87q6.54,0,10.29-2t3.74-5.52a5.13,5.13,0,0,0-2.61-4.69c-1.75-1.08-4.28-1.61-7.61-1.61h-13.07v-11.5H2442c3.26,0,5.74-.51,7.49-1.55a4.92,4.92,0,0,0,2.61-4.51q0-3.11-3.27-4.75c-2.16-1.12-5.28-1.68-9.32-1.68a54.5426,54.5426,0,0,0-20.22,4.4l-4.51-12.83a64.3106,64.3106,0,0,1,25.92-5.82,51.7386,51.7386,0,0,1,15.51,2.14,24.7218,24.7218,0,0,1,10.76,6.23,13.42,13.42,0,0,1,3.91,9.57,13.26,13.26,0,0,1-2.72,8.15,19,19,0,0,1-7.51,5.77Zm-123.16-15.58q-5.94,0-9,2.13c-2,1.43-3,3.74-3,6.91s1,5.48,2.91,6.94,4.89,2.21,8.86,2.21h13.9V480.75Zm30.2-15.09V529.6h-16.53V511.29h-13.67l-12.13,18.31h-19.72l14.61-20.92a21.8685,21.8685,0,0,1-10.16-7.55,20.12,20.12,0,0,1-3.51-11.95q0-11.3,8.16-17.41t22.39-6.11Zm-141.21,0h18.42v38l31.14-38h17V529.6h-18.42v-38l-31,38H2226.5Zm-82.51,0h18.44v24.95h27.8V465.66h18.55V529.6h-18.55V505.7h-27.8v23.9H2144Zm-48.37,52.41a16.1205,16.1205,0,0,0,8.44-2.2,11.9993,11.9993,0,0,0,5.22-6.48v-6.53h-12.71c-7.6,0-11.42,2.49-11.42,7.49a6.65,6.65,0,0,0,2.8,5.63c1.86,1.4,4.41,2.09,7.67,2.09Zm1.4-53.37q14.88,0,22.82,7.07c5.31,4.71,8,11.82,8,21.34V529.6h-17.36v-8q-5.2,8.93-19.5,8.92a30.259,30.259,0,0,1-12.76-2.49,19.0992,19.0992,0,0,1-8.27-6.9,17.9987,17.9987,0,0,1-2.86-10,16.6907,16.6907,0,0,1,6.73-14q6.71-5.11,20.73-5.11h14.74q0-6.06-3.68-9.33t-11.06-3.27a32.56,32.56,0,0,0-10,1.6,26.3286,26.3286,0,0,0-8.38,4.35l-6.67-13a40.28,40.28,0,0,1,12.55-5.71A56.4016,56.4016,0,0,1,2097,464.7ZM2030.8,517c6.82,0,10.21-2.34,10.21-7a6.22,6.22,0,0,0-2.38-5.41c-1.57-1.16-4.07-1.72-7.48-1.72h-15.93V517Zm-15.58-25.07h14c6.49,0,9.75-2.32,9.75-6.91s-3.26-6.77-9.75-6.77h-14Zm31.86,4.27q11.3,3.8,11.29,15.22,0,8.69-6.54,13.43t-19.49,4.75h-34.11V465.66h32.68c8,0,14.26,1.43,18.78,4.33a13.7,13.7,0,0,1,6.78,12.18,14.6683,14.6683,0,0,1-2.44,8.39,15.88,15.88,0,0,1-6.93,5.64Zm-96.65,19.14a15.4,15.4,0,0,0,11.71-4.81c3.07-3.22,4.59-7.51,4.59-12.9s-1.52-9.69-4.59-12.9a15.37,15.37,0,0,0-11.71-4.81,15.62,15.62,0,0,0-11.77,4.81c-3.08,3.21-4.63,7.5-4.63,12.9s1.55,9.68,4.63,12.9a15.66,15.66,0,0,0,11.79,4.81Zm0,15.21a38.26,38.26,0,0,1-18.12-4.22,31.2806,31.2806,0,0,1-12.54-11.71,34.19,34.19,0,0,1,0-34,31.21,31.21,0,0,1,12.54-11.71,40.84,40.84,0,0,1,36.2,0A31.38,31.38,0,0,1,1981,480.64a34.19,34.19,0,0,1,0,34,31.4488,31.4488,0,0,1-12.48,11.71,38,38,0,0,1-18.07,4.2Zm-78-15.21a15.44,15.44,0,0,0,11.7-4.81c3-3.22,4.58-7.51,4.58-12.9s-1.53-9.69-4.58-12.9a16.66,16.66,0,0,0-23.42,0c-3,3.21-4.57,7.5-4.57,12.9s1.53,9.68,4.57,12.9a15.47,15.47,0,0,0,11.78,4.81Zm3.21-50.64a32.6383,32.6383,0,0,1,16.22,4.1,29.5,29.5,0,0,1,11.47,11.53,38.05,38.05,0,0,1,0,34.6,29.4808,29.4808,0,0,1-11.47,11.52,32.5312,32.5312,0,0,1-16.22,4.1q-12.24,0-19.26-7.73v29.84H1837.9v-87h17.71V473q6.89-8.3,20.09-8.3Zm-122.09,1H1772v38l31.14-38h17v63.9h-18.43v-38l-31,38h-17.12Zm-17.83,0v63.9h-18.54V480.87H1697l-.59,11.29a115.7387,115.7387,0,0,1-2.38,20.92q-1.9,8.32-6.18,13.08T1676,530.91a40.4129,40.4129,0,0,1-9.64-1.42l1-15.22a27.3305,27.3305,0,0,0,2.73.24,7.09,7.09,0,0,0,6.25-3,18.6508,18.6508,0,0,0,2.79-7.74,123.7623,123.7623,0,0,0,1.06-12.42l.95-25.66Zm-65.73,0-28.89,67.86q-4.4,11.06-10.87,15.57a26.59,26.59,0,0,1-15.64,4.52,32.1312,32.1312,0,0,1-9.86-1.55,21.9991,21.9991,0,0,1-8-4.26l6.79-13.2a15.7638,15.7638,0,0,0,4.92,3,15.2316,15.2316,0,0,0,5.54,1.08,9.77,9.77,0,0,0,6.18-1.85,15.87,15.87,0,0,0,4.27-6.11l.23-.6-27.69-64.42h19.14l18,43.38,18.07-43.38Zm-74.53,15.21h-32.81V529.6h-18.43V465.66h51.24Zm-98.66-2.15a15.9406,15.9406,0,0,0-10.58,3.58,15.12,15.12,0,0,0-5.23,9.74h31.49a15.28,15.28,0,0,0-5.23-9.69,15.64,15.64,0,0,0-10.39-3.67Zm33.2,19.1c0,.24-.12,1.9-.36,5h-48.39a15.08,15.08,0,0,0,6.2,9.38,20.3689,20.3689,0,0,0,12.12,3.45,24.29,24.29,0,0,0,8.85-1.48,21.379,21.379,0,0,0,7.19-4.69l9.87,10.69q-9,10.35-26.39,10.34a41.7082,41.7082,0,0,1-19.14-4.22,30.94,30.94,0,0,1-12.83-11.71,32.2391,32.2391,0,0,1-4.52-17,32.6682,32.6682,0,0,1,4.45-16.94,31.2805,31.2805,0,0,1,12.25-11.76,37.8249,37.8249,0,0,1,34.41-.18,29.5294,29.5294,0,0,1,12,11.58A34.5789,34.5789,0,0,1,1530,497.86Zm-110.18,17.48a15.4,15.4,0,0,0,11.69-4.81c3.06-3.22,4.58-7.51,4.58-12.9s-1.52-9.69-4.58-12.9a16.65,16.65,0,0,0-23.41,0c-3.06,3.21-4.58,7.5-4.58,12.9s1.52,9.68,4.58,12.9a15.43,15.43,0,0,0,11.74,4.81ZM1423,464.7a32.66,32.66,0,0,1,16.24,4.1,29.5412,29.5412,0,0,1,11.46,11.53,38,38,0,0,1,0,34.6,29.52,29.52,0,0,1-11.46,11.52,32.55,32.55,0,0,1-16.24,4.1q-12.24,0-19.25-7.73v29.84H1385.2v-87H1403V473Q1409.85,464.7,1423,464.7Zm-155.71,1h18.41v38l31.16-38h17v63.9h-18.42v-38l-31,38h-17.12ZM3025.51,609.21h18.43v38l31.14-38h17v64h-18.41v-38l-31,38h-17.11Zm-84.39,0h18.42v38l31.14-38h17v64h-18.41v-38l-31,38h-17.11ZM2929.46,658v29.2h-17.22v-14h-54.81v-64h18.43V658h25.78V609.21h18.55V658Zm-120.41,3.69a16.25,16.25,0,0,0,8.45-2.2,12.13,12.13,0,0,0,5.22-6.47v-6.54H2810c-7.62,0-11.43,2.48-11.43,7.48a6.7,6.7,0,0,0,2.8,5.65,12.7616,12.7616,0,0,0,7.68,2.03Zm1.43-53.38q14.85,0,22.82,7.08t8,21.33v36.5h-17.4v-8q-5.22,8.89-19.49,8.91a30.2411,30.2411,0,0,1-12.77-2.5,19.08,19.08,0,0,1-8.27-6.89,18,18,0,0,1-2.85-10,16.67,16.67,0,0,1,6.72-14q6.72-5.1,20.74-5.1h14.74q0-6.08-3.69-9.33c-2.44-2.18-6.14-3.27-11.05-3.27a32.3389,32.3389,0,0,0-10.05,1.6,26.7772,26.7772,0,0,0-8.37,4.33l-6.67-13a39.9971,39.9971,0,0,1,12.56-5.7,55.9977,55.9977,0,0,1,15.03-2.01Zm-71.8,50.65a15.51,15.51,0,0,0,11.71-4.82q4.56-4.82,4.57-12.9c0-5.38-1.53-9.69-4.57-12.9a16.65,16.65,0,0,0-23.41,0c-3.05,3.21-4.59,7.52-4.59,12.9s1.54,9.69,4.59,12.9a15.46,15.46,0,0,0,11.7,4.77Zm3.2-50.65a32.53,32.53,0,0,1,16.24,4.11,29.3094,29.3094,0,0,1,11.47,11.53,38.09,38.09,0,0,1,0,34.58A29.44,29.44,0,0,1,2758.12,670a32.43,32.43,0,0,1-16.24,4.11q-12.21,0-19.26-7.72v29.83h-18.53v-87h17.71v7.38q6.9-8.32,20.08-8.34Zm-47.54,16.17h-21.63v48.74h-18.43V624.43h-21.63V609.21h61.69Zm-93.43,49.69a39.52,39.52,0,0,1-18.37-4.22,32.25,32.25,0,0,1,0-57.42,39.3986,39.3986,0,0,1,18.37-4.22,35.6291,35.6291,0,0,1,17.66,4.22,25.1,25.1,0,0,1,11,12.06l-14.38,7.73q-5-8.78-14.39-8.79a16.26,16.26,0,0,0-12,4.75c-3.18,3.17-4.75,7.49-4.75,13s1.57,9.79,4.75,13a16.23,16.23,0,0,0,12,4.76q9.52,0,14.39-8.81l14.38,7.85a25.4288,25.4288,0,0,1-11,11.88,35.13,35.13,0,0,1-17.66,4.16Zm-114.83-64.91h18.43v38l31.14-38h17v64h-18.44v-38l-31,38H2486.1Zm-82.49,0H2422v25h27.82v-25h18.55v64h-18.55V649.28H2422v23.89h-18.42Zm-84.4,0h18.42v38l31.15-38h17v64h-18.43v-38l-31,38h-17.12Zm-34.48,64V634.9L2265.57,667h-7.84l-18.66-32.22v38.4h-16.76v-64h19.38l20.45,37,21.74-37h17.36l.25,64Zm-123-40.54a112.8152,112.8152,0,0,1-1.5,15.94c-.75,4.11-2.14,7.24-4.22,9.38h27V624.43H2162Zm49,25.32v29h-17.22V673.17h-45V687h-17.23V658h2.61q6-.12,8.2-7t2.86-19.62l.83-22.11h55.74V658ZM2095,640.71l-13.19-31.85-13.19,31.85Zm6.06,14.63h-38.62l-7.38,17.83h-19.73L2072.41,590h19l37.22,83.22h-20.21Zm-143.71-53q-20.91,0-21-18.44h12.13a9.44,9.44,0,0,0,2.32,6.49c1.46,1.53,3.62,2.32,6.47,2.32a9,9,0,0,0,6.59-2.32,8.78,8.78,0,0,0,2.32-6.49h12.38q-.19,18.42-21.21,18.43Zm-32.09,6.88h18.42v38l31.14-38h17v64H1973.4v-38l-31,38h-17.12Zm-84.4,0h18.43v38l31.14-38h17v64H1889v-38l-31,38h-17.11Zm-82.49,0h18.41v25h27.83v-25h18.55v64h-18.55V649.28h-27.83v23.89h-18.41Zm-47.44,13.09a16,16,0,0,0-10.58,3.55,15.26,15.26,0,0,0-5.23,9.76h31.5a15.29,15.29,0,0,0-5.22-9.7,15.66,15.66,0,0,0-10.47-3.62Zm33.18,19.12c0,.24-.14,1.92-.37,5h-48.37a15.06,15.06,0,0,0,6.17,9.38,20.56,20.56,0,0,0,12.13,3.44,24.6015,24.6015,0,0,0,8.86-1.48,21.34,21.34,0,0,0,7.18-4.69l9.88,10.7q-9.06,10.32-26.39,10.34a41.9983,41.9983,0,0,1-19.15-4.22,31.12,31.12,0,0,1-12.83-11.7,34.3,34.3,0,0,1,0-34,31.15,31.15,0,0,1,12.24-11.77,37.89,37.89,0,0,1,34.4-.18,29.5111,29.5111,0,0,1,12,11.6,34.5507,34.5507,0,0,1,4.25,17.57Zm-80-32.21v64h-97.58v-64h18.41V658h21.28V609.21h18.42V658h21V609.21Zm-145.38,49.7a15.46,15.46,0,0,0,11.71-4.82q4.58-4.82,4.57-12.9c0-5.38-1.52-9.69-4.57-12.9a15.45,15.45,0,0,0-11.71-4.81,15.64,15.64,0,0,0-11.76,4.81c-3.09,3.21-4.64,7.52-4.64,12.9s1.55,9.69,4.64,12.9a15.65,15.65,0,0,0,11.75,4.81Zm0,15.21a38.4909,38.4909,0,0,1-18.12-4.22,31.51,31.51,0,0,1-12.53-11.7,34.1,34.1,0,0,1,0-34,31.35,31.35,0,0,1,12.53-11.72,40.9,40.9,0,0,1,36.19,0,31.4111,31.4111,0,0,1,12.48,11.72,34.1605,34.1605,0,0,1,0,34,31.5712,31.5712,0,0,1-12.48,11.7,38.1505,38.1505,0,0,1-18.08,4.21Zm-112.44-64.91h18.42v25h27.82v-25h18.54v64h-18.54V649.28H1424.7v23.89h-18.42Zm-9.87,15.22h-21.63v48.74h-18.44V624.43h-21.62V609.21h61.69Zm-99.14,34.48a15.49,15.49,0,0,0,11.71-4.82q4.59-4.82,4.58-12.9c0-5.38-1.52-9.69-4.58-12.9a15.48,15.48,0,0,0-11.71-4.81,15.68,15.68,0,0,0-11.77,4.81c-3.08,3.21-4.63,7.52-4.63,12.9s1.55,9.69,4.63,12.9a15.69,15.69,0,0,0,11.76,4.81Zm0,15.21a38.4707,38.4707,0,0,1-18.12-4.22,31.41,31.41,0,0,1-12.54-11.7,34.1605,34.1605,0,0,1,0-34,31.25,31.25,0,0,1,12.54-11.72,40.9,40.9,0,0,1,36.19,0,31.47,31.47,0,0,1,12.48,11.72,34.23,34.23,0,0,1,0,34,31.64,31.64,0,0,1-12.48,11.7,38.18,38.18,0,0,1-18.08,4.21ZM2682.34,805.21a16.219,16.219,0,0,0,8.44-2.21,12.05,12.05,0,0,0,5.22-6.47V790h-12.71c-7.61,0-11.42,2.51-11.42,7.49a6.7,6.7,0,0,0,2.8,5.65A12.59,12.59,0,0,0,2682.34,805.21Zm1.42-53.39q14.86,0,22.82,7.08t8,21.34v36.49h-17.36v-8c-3.49,6-10,8.91-19.49,8.91a30.0591,30.0591,0,0,1-12.77-2.49,18.9992,18.9992,0,0,1-8.28-6.89,18,18,0,0,1-2.85-10c0-6,2.24-10.62,6.72-14s11.39-5.13,20.74-5.13H2696c0-4-1.23-7.15-3.68-9.33s-6.14-3.27-11.06-3.27a32.2491,32.2491,0,0,0-10,1.61,26.3269,26.3269,0,0,0-8.38,4.34l-6.66-13a40.64,40.64,0,0,1,12.55-5.71A56.289,56.289,0,0,1,2683.76,751.82ZM2649.06,768h-32.82v48.74h-18.43v-64h51.25Zm-99.26,34.47a15.46,15.46,0,0,0,11.71-4.8q4.56-4.83,4.57-12.9c0-5.4-1.53-9.69-4.57-12.9a16.63,16.63,0,0,0-23.42,0c-3.06,3.21-4.58,7.5-4.58,12.9s1.52,9.68,4.58,12.9a15.44,15.44,0,0,0,11.71,4.79Zm3.2-50.64a32.419,32.419,0,0,1,16.23,4.11,29.5007,29.5007,0,0,1,11.47,11.53,38.0009,38.0009,0,0,1,0,34.59,29.5,29.5,0,0,1-11.47,11.53,32.6092,32.6092,0,0,1-16.23,4.09q-12.24,0-19.26-7.72V839.8H2515.2v-87h17.72v7.37q6.89-8.34,20.08-8.35Zm-46.59,1-28.88,67.87q-4.41,11.07-10.89,15.57a26.55,26.55,0,0,1-15.62,4.51,32.4726,32.4726,0,0,1-9.87-1.53,21.94,21.94,0,0,1-8-4.28l6.78-13.2a15.9388,15.9388,0,0,0,4.93,3,15.2089,15.2089,0,0,0,5.52,1.08,9.8991,9.8991,0,0,0,6.19-1.84,15.9183,15.9183,0,0,0,4.28-6.12l.23-.61-27.69-64.42h19.13l18,43.39,18.06-43.39Zm-109.72,51a15,15,0,0,0,11.47-4.64,16.519,16.519,0,0,0,4.35-11.76q0-7.26-4.35-11.54c-2.89-2.85-6.72-4.29-11.47-4.29s-8.72,1.44-11.64,4.29-4.4,6.7-4.4,11.54a16.12,16.12,0,0,0,4.51,11.81,15.52,15.52,0,0,0,11.53,4.54Zm4.4-46.61a33.1091,33.1091,0,0,1,16,3.75,26.1294,26.1294,0,0,1,10.65,10.52,32,32,0,0,1,3.75,15.69,29.16,29.16,0,0,1-16.88,27.17,41.001,41.001,0,0,1-18.07,3.85q-16.77,0-26.33-10.76t-9.57-31.55q0-19.27,8.37-30.72t25.74-15l30.44-6.07,2.5,15.93-26.87,5.36q-11,2.13-16.23,7.12t-6.25,14.14a28.4674,28.4674,0,0,1,10-6.94,32.3182,32.3182,0,0,1,12.7505-2.54Zm-119.46-4.39H2300v25h27.83v-25h18.54v64h-18.54v-23.9H2300v23.9h-18.41Zm-84.4,0h18.43v38.05l31.14-38.05h17v64h-18.42v-38l-31,38h-17.12Zm-48,49.68a15.43,15.43,0,0,0,11.7-4.8q4.57-4.83,4.58-12.9c0-5.4-1.53-9.69-4.58-12.9a16.62,16.62,0,0,0-23.41,0c-3.07,3.21-4.59,7.5-4.59,12.9s1.52,9.68,4.59,12.9a15.4105,15.4105,0,0,0,11.7,4.75Zm3.19-50.64a32.39,32.39,0,0,1,16.23,4.11,29.44,29.44,0,0,1,11.47,11.53,38.0011,38.0011,0,0,1,0,34.59,29.44,29.44,0,0,1-11.47,11.53,32.59,32.59,0,0,1-16.23,4.09q-12.24,0-19.25-7.72v29.84h-18.54v-87h17.71v7.37c4.58-5.61,11.29-8.39,20.07-8.39Zm-85.1,14a16.0007,16.0007,0,0,0-10.58,3.57,15.15,15.15,0,0,0-5.23,9.74H2083a15.3392,15.3392,0,0,0-5.23-9.68,15.63,15.63,0,0,0-10.46-3.65ZM2100.47,785c0,.23-.12,1.9-.36,5h-48.37a15,15,0,0,0,6.17,9.39,20.4192,20.4192,0,0,0,12.13,3.46,24.5491,24.5491,0,0,0,8.86-1.5,21.2286,21.2286,0,0,0,7.19-4.69l9.86,10.7q-9,10.33-26.39,10.33a41.86,41.86,0,0,1-19.14-4.21,30.7889,30.7889,0,0,1-12.82-11.71,32.15,32.15,0,0,1-4.53-17,32.79,32.79,0,0,1,4.46-16.94A31.191,31.191,0,0,1,2049.78,756a37.86,37.86,0,0,1,34.41-.17,29.5292,29.5292,0,0,1,11.94,11.59A34.5412,34.5412,0,0,1,2100.47,785Zm-69.41-17h-21.64v48.74H1991V768h-21.63V752.78h61.7ZM1929,805.21a16.27,16.27,0,0,0,8.44-2.21,12.11,12.11,0,0,0,5.23-6.47V790H1929.9c-7.61,0-11.42,2.51-11.42,7.49a6.72,6.72,0,0,0,2.79,5.65A12.64,12.64,0,0,0,1929,805.21Zm1.43-53.39q14.85,0,22.82,7.08t8,21.34v36.49H1943.8v-8c-3.49,6-10,8.91-19.49,8.91a30.14,30.14,0,0,1-12.78-2.49,19.0013,19.0013,0,0,1-8.27-6.89,18.0693,18.0693,0,0,1-2.84-10c0-6,2.23-10.62,6.72-14s11.39-5.13,20.73-5.13h14.75c0-4-1.23-7.15-3.69-9.33s-6.14-3.27-11.06-3.27a32.2486,32.2486,0,0,0-10,1.61,26.6,26.6,0,0,0-8.39,4.34l-6.65-13a40.6391,40.6391,0,0,1,12.55-5.71,56.3073,56.3073,0,0,1,15-1.95Zm-71.8,40.67H1849v24.24h-18.6v-64H1849v24.84h10l17.36-24.84H1896l-22.34,30.67,23.89,33.28H1875.7Zm-42.33,8.78v15.46h-64.42V733.52h62.88V749H1771v18h38.64v15H1771v19.25Zm-146.68,3.94A16.2,16.2,0,0,0,1678,803a12,12,0,0,0,5.23-6.47V790h-12.72c-7.6,0-11.4,2.51-11.4,7.49a6.68,6.68,0,0,0,2.78,5.65,12.65,12.65,0,0,0,7.68,2.07Zm1.43-53.39q14.85,0,22.81,7.08t8,21.34v36.49H1684.5v-8c-3.47,6-10,8.91-19.49,8.91a30.18,30.18,0,0,1-12.77-2.49,18.9292,18.9292,0,0,1-8.26-6.89,18,18,0,0,1-2.85-10c0-6,2.24-10.62,6.7-14s11.4-5.13,20.74-5.13h14.75c0-4-1.24-7.15-3.68-9.33s-6.15-3.27-11.07-3.27a32.23,32.23,0,0,0-10,1.61,26.3264,26.3264,0,0,0-8.38,4.34l-6.65-13a40.2984,40.2984,0,0,1,12.53-5.71,56.5314,56.5314,0,0,1,14.93-1.95Zm-85.47,24.37a114,114,0,0,1-1.5,15.93q-1.11,6.18-4.22,9.39h27V768h-20.92Zm49,25.32v29h-17.25V816.73H1572.4v13.79h-17.24v-29h2.62c4-.07,6.7-2.42,8.2-7s2.46-11.14,2.86-19.61l.83-22.11h55.75v48.73Zm-118.52,1a15.4,15.4,0,0,0,11.7-4.8q4.59-4.83,4.58-12.9c0-5.4-1.52-9.69-4.58-12.9A15.38,15.38,0,0,0,1516,767a15.61,15.61,0,0,0-11.77,4.82c-3.09,3.21-4.63,7.5-4.63,12.9s1.54,9.68,4.63,12.9a15.63,15.63,0,0,0,11.77,4.84Zm0,15.21a38.38,38.38,0,0,1-18.13-4.21,31.19,31.19,0,0,1-12.53-11.71,34.1605,34.1605,0,0,1,0-34,31.3306,31.3306,0,0,1,12.46-11.8,38.39,38.39,0,0,1,18.13-4.22,38.0008,38.0008,0,0,1,18.06,4.22,31.55,31.55,0,0,1,12.49,11.71,34.23,34.23,0,0,1,0,34,31.4086,31.4086,0,0,1-12.49,11.71,38,38,0,0,1-18.05,4.25Zm-78-15.21a15.43,15.43,0,0,0,11.72-4.8q4.58-4.83,4.57-12.9c0-5.4-1.52-9.69-4.57-12.9a16.63,16.63,0,0,0-23.42,0c-3,3.21-4.57,7.5-4.57,12.9s1.52,9.68,4.57,12.9a15.43,15.43,0,0,0,11.64,4.75Zm3.23-50.64a32.46,32.46,0,0,1,16.22,4.11,29.5,29.5,0,0,1,11.47,11.53,38,38,0,0,1,0,34.59,29.5,29.5,0,0,1-11.47,11.53,32.66,32.66,0,0,1-16.22,4.09q-12.26,0-19.26-7.72v29.84h-18.55v-87h17.71v7.37q6.81-8.38,20.04-8.39Zm-85.48,50.64a15.4094,15.4094,0,0,0,11.71-4.8q4.59-4.83,4.58-12.9c0-5.4-1.52-9.69-4.58-12.9a15.39,15.39,0,0,0-11.71-4.82,15.59,15.59,0,0,0-11.76,4.82c-3.1,3.21-4.63,7.5-4.63,12.9s1.53,9.68,4.63,12.9a15.6093,15.6093,0,0,0,11.7,4.75Zm0,15.21a38.3393,38.3393,0,0,1-18.12-4.21,31.2813,31.2813,0,0,1-12.54-11.71,34.23,34.23,0,0,1,0-34,31.4188,31.4188,0,0,1,12.48-11.8,40.93,40.93,0,0,1,36.2,0,31.5893,31.5893,0,0,1,12.48,11.71,34.29,34.29,0,0,1,0,34,31.4486,31.4486,0,0,1-12.48,11.71,38.07,38.07,0,0,1-18.08,4.25ZM1318.55,768h-32.82v48.74h-18.41v-64h51.23Zm36-541.2v32.92h-17.84V242.48H1278v17.23h-17.82l.12-32.92h3.33q7.5-.255,10.58-10.94,3.09-10.695,3.79-30.55l1-26h64v67.52Z"/></svg>