<svg viewBox="0 0 972.3866 673.1031" xmlns="http://www.w3.org/2000/svg"><path d="m0 0h972.387v673.103h-972.387z" fill="#000002" fill-rule="evenodd"/><path d="m961.9594 162.6652h4.336v17.3427h-4.336zm-11.3713 2.66c2.0507 3.4143 4.5182 4.5238 8.4813 4.5666v4.3355c-5.5074-.0589-9.3946-1.98-12.2386-6.7328zm-11.87-4.7986a7.2014 7.2014 0 1 1 -12.4732 7.2012l3.5079-2.025a3.119 3.119 0 0 0 5.402-3.1187zm8.89-13.5056a7.2262 7.2262 0 0 1 7.2263 12.5161l-12.63 7.2893a10.1043 10.1043 0 0 0 -2.8115-10.0556c-4.92 2.8405-9.7419 5.6242-14.6487 8.4574l-2.168-3.7547 25.032-14.4525z" fill="#fff" fill-rule="evenodd"/><path d="m191.0584 62.5038h26.0144a4.3477 4.3477 0 0 1 4.335 4.3351c0 11.5251.0653 23.7075.0653 34.6849h-5.8743v-2.89h-22.9371v2.89h-5.8743c0-11.0086-.064-23.1344-.064-34.6847a4.3474 4.3474 0 0 1 4.335-4.3351zm32.5275 13.0062h4.16v10.1166h-4.16zm-43.0707 0h4.16v10.1166h-4.16zm11.9886 14.4516a2.8905 2.8905 0 1 1 -2.8905 2.8905 2.8907 2.8907 0 0 1 2.8905-2.8905zm-1.4454-23.3685h26.0144v4.8271h-26.0144v-4.8268zm0 8.9169h26.0144v11.562h-26.0144zm24.569 14.4516a2.8905 2.8905 0 1 1 -2.8905 2.8905 2.8907 2.8907 0 0 1 2.8905-2.8905z" fill="#00b4ff" fill-rule="evenodd"/><path d="m195.4212 58.6045 6.1314-6.1316 3.0656 3.0656-6.1313 6.1315-3.0657-3.0654zm10.8621 0 6.1316-6.1316 3.0657 3.0656-6.1317 6.1315-3.0656-3.0654z" fill="#00b4ff" fill-rule="evenodd"/><path d="m19.03 87.072h26.0144a4.3476 4.3476 0 0 1 4.335 4.335c0 3.6579.0006 6.624.0006 10.1168h-5.8743v-2.89h-22.9371v2.89h-5.8739c0-3.4929 0-6.4511 0-10.1166a4.3479 4.3479 0 0 1 4.3353-4.3352zm1.4454 2.89a2.89 2.89 0 1 1 -2.89 2.8905 2.89 2.89 0 0 1 2.89-2.8905zm23.1236 0a2.89 2.89 0 1 1 -2.89 2.8905 2.89 2.89 0 0 1 2.89-2.8905z" fill="#ffd400" fill-rule="evenodd"/><path d="m34.928 63.948h-5.781v-5.781h5.781z" fill="#ffd400" fill-rule="evenodd"/><path d="m23.366 63.948h5.781v5.781h-5.781z" fill="#ffd400" fill-rule="evenodd"/><path d="m23.366 63.948h-5.781v-5.781h5.781z" fill="#ffd400" fill-rule="evenodd"/><path d="m34.928 63.948h5.78v5.781h-5.78z" fill="#ffd400" fill-rule="evenodd"/><path d="m46.489 63.948h-5.78v-5.781h5.78z" fill="#ffd400" fill-rule="evenodd"/><path d="m14.6947 80.9665h4.517c2.1982-2.5283 4.4308-5.4123 7.8755-5.4123h9.7775c3.4444 0 5.8 2.884 7.9983 5.4123h4.517v4.09h-6.5934c-1.6543-2.1481-3.4535-5.1664-6.4137-5.1664h-8.5484c-2.96 0-4.8821 3.018-6.5364 5.1664h-6.5934z" fill="#ffd400"/><path d="m390.0109 60.6911h-27.7022a3.5227 3.5227 0 0 0 -3.4625 3.52v26.83l1.7311 3.7633c1.1438 2.4863 2.4253 3.4628 4.3285 3.4628h22.5082c1.9032 0 3.1842-.976 4.3283-3.4628l1.7316-3.7633v-26.83a3.5224 3.5224 0 0 0 -3.463-3.52zm-16.0187 8.6711v10.1163h-10.8683v-10.1163zm4.3353 10.1163v-10.1163h10.8106v10.1163zm-2.2013-17.3372a2.8854 2.8854 0 1 0 2.8854 2.8854 2.8859 2.8859 0 0 0 -2.8854-2.8854zm8.5413 25.6008a2.597 2.597 0 1 0 2.5969 2.5971 2.5971 2.5971 0 0 0 -2.5969-2.5971zm-17.2079 0a2.597 2.597 0 1 0 2.5971 2.5971 2.5971 2.5971 0 0 0 -2.5971-2.5971z" fill="#e63223" fill-rule="evenodd"/><path d="m388.681 53.452h-25.557v4.09h25.557z" fill="#e63223" fill-rule="evenodd"/><path d="m390.612 105.53-6.131-6.131-3.066 3.065 6.132 6.132z" fill="#e63223" fill-rule="evenodd"/><path d="m361.708 105.53 6.131-6.131 3.066 3.065-6.132 6.132z" fill="#e63223" fill-rule="evenodd"/><path d="m380.496 102.59h-8.672v4.09h8.672z" fill="#e63223" fill-rule="evenodd"/><path d="m104.9963 62.5038h26.0144a4.3477 4.3477 0 0 1 4.335 4.3351c0 11.5251.0652 23.7075.0652 34.6849h-5.8742v-2.89h-22.9367v2.89h-5.874c0-11.0086-.0643-23.1344-.0643-34.6847a4.3476 4.3476 0 0 1 4.335-4.3351zm32.5275 13.0062h4.16v10.1166h-4.16zm-43.0707 0h4.16v10.1166h-4.16zm11.9886 14.4516a2.8905 2.8905 0 1 1 -2.8905 2.8905 2.8905 2.8905 0 0 1 2.8905-2.8905zm-1.4451-23.3685h26.0141v4.8271h-26.0141v-4.8268zm0 8.9169h26.0141v11.562h-26.0141zm24.5687 14.4516a2.8905 2.8905 0 1 1 -2.8905 2.8905 2.8905 2.8905 0 0 1 2.8905-2.8905z" fill="#00b400" fill-rule="evenodd"/><path d="m275.899 62.5038h26.0145a4.3478 4.3478 0 0 1 4.335 4.3351v18.7877l-1.4454 7.2267c-.4674 2.3377-1.9511 4.3349-4.3351 4.3349h-23.1235c-2.384 0-3.8677-1.997-4.3353-4.3349l-1.4452-7.2267v-18.7877a4.3475 4.3475 0 0 1 4.335-4.3351zm32.463 13.0062h4.1593v10.1166h-4.1593zm-43.071 0h4.16v10.1166h-4.16zm22.401 28.9553 6.1317-6.1316 3.0656 3.0654-6.1316 6.1316zm-10.862 0 6.1313-6.1316 3.0656 3.0654-6.1312 6.1316zm.5148-52.0781h23.123v4.09h-7.7128l-5.1928 5.1928-3.0653-3.0654 2.127-2.1274h-9.2791zm18.7874 36.13a2.89 2.89 0 1 1 -2.89 2.8905 2.89 2.89 0 0 1 2.89-2.8905zm-14.4522 0a2.89 2.89 0 1 1 -2.89 2.8905 2.8905 2.8905 0 0 1 2.89-2.8905zm-5.781-21.8007h26.0145v4.7041h-26.0145v-4.7042zm0 8.9385h26.0145v9.9717h-26.0145v-9.9718z" fill="#ff640a" fill-rule="evenodd"/><path d="m443.4034 82.6051 13.0066 13.0068v2.9446h-13.0066zm0-20.1781 18.7875 18.7875 18.7872-18.7875v15.897c-6.2825 6.2824-12.7146 12.7148-18.7876 18.7874l-18.7871-18.7874zm37.5747 20.1781-13.0065 13.0065v2.9449h13.0065z" fill="#00b400" fill-rule="evenodd"/><path d="m42.5269 190.1159c-5.0941-2.22-8.477-7.1456-10.1126-12.3118l4.1324-1.3041c1.2509 3.951 3.7828 7.9422 7.7077 9.6526l-1.7275 3.9631zm-12.05-43.9835a4.146 4.146 0 1 1 -4.1661 4.146 4.1564 4.1564 0 0 1 4.1661-4.146zm-2.0129 21.4248a13.8748 13.8748 0 0 1 -7.8982 4.1105l-.7458-4.2677a9.5562 9.5562 0 0 0 5.375-2.6711l3.2687 2.8284zm10.7747 3.6913c0-4.5108-1.4374-8.2894-5.7818-10.099a52.77 52.77 0 0 0 1.4684 9.6525 2.1655 2.1655 0 0 1 -.8312 2.2794c-5.8158 4.4084-8.0458 10.313-9.1817 17.3021l-4.2678-.6945c1.2274-7.5529 3.761-14.161 9.758-19.1985-.597-2.6937-1.724-10.057-1.298-12.6641a2.1654 2.1654 0 0 1 2.54-1.71c7.9948 1.57 11.9118 7.1566 11.9123 15.1325z" fill="#00b400"/><g fill="#fff"><path d="m205.567 169.239c.987-3.7678-.584-7.3755-4.8688-6.698a19.8241 19.8241 0 0 1 2.3289 12.17 2.1845 2.1845 0 0 1 -2.7824 1.8182 8.1289 8.1289 0 0 0 -7.591 1.2518c-2.5627 2.1387-3.325 5.8059-3.2606 8.9994l-4.3189.0847c-.0921-4.574 1.1611-9.3651 4.8019-12.4035a11.8812 11.8812 0 0 1 8.9762-2.5741 16.6858 16.6858 0 0 0 -3.12-9.2524 2.1636 2.1636 0 0 1 .3931-2.98c4.2177-3.018 11.2224-1.4692 13.3515 3.6541a10.8532 10.8532 0 0 1 .273 7.0141l-4.1831-1.084zm-12.297-19.1817a4.1459 4.1459 0 1 1 -2.8959 5.1145 4.1557 4.1557 0 0 1 2.8959-5.1145zm20.3431 17.4455a12.467 12.467 0 1 1 -19.1667 12.4157l4.2618-.7339a8.1437 8.1437 0 1 0 12.4807-8.1l2.4242-3.5816z"/><path d="m800.299 236.946h-11.561v11.684h-11.562v11.316h11.562v11.685h11.561v-11.685h11.562v-11.316h-11.562z" fill-rule="evenodd"/><path d="m622.3985 247.0625h20.2331v14.4522h-20.2331zm10.1166 5.0292a2.197 2.197 0 1 0 2.1968 2.1969 2.1967 2.1967 0 0 0 -2.1968-2.1969zm0-3.5838a5.7809 5.7809 0 1 0 5.7806 5.781 5.7809 5.7809 0 0 0 -5.7806-5.781zm8.6712 2.89h-2.8906v-2.89h2.8906z" fill-rule="evenodd"/><path d="m609.3415 234.95c16.0867 6.3042 30.047 6.5656 46.3553.2458v17.6485h-4.4438v-11.808a62.4042 62.4042 0 0 1 -18.5681 2.9627 59.22 59.22 0 0 1 -19.0075-2.9627v11.808h-4.3359zm46.3553 20.7839v17.6485c-16.3083-6.32-30.2686-6.0585-46.3553.2458v-17.8948h4.3359v12.1766a59.0346 59.0346 0 0 1 18.6688-2.9639 62.5552 62.5552 0 0 1 18.9068 2.9639v-12.1766z"/><path d="m874.2556 76.4163c-3.3117-1.1773-6.7544-3.907-6.7544-7.7131 0-2.6192 1.616-4.9023 4.2288-6.4755a18.4686 18.4686 0 0 1 17.5827 0c2.6127 1.5732 4.2288 3.8563 4.2288 6.4755a7.1914 7.1914 0 0 1 -2.7392 5.4037l-2.8111-3.2857a2.99 2.99 0 0 0 1.2146-2.118c0-.99-.8135-1.9749-2.1286-2.7666a14.2145 14.2145 0 0 0 -13.1119 0c-1.3149.792-2.1285 1.7767-2.1285 2.7666s.8136 1.9749 2.1285 2.7666c.1132.0684.084.0553.1522.0919v-1.7658a6.3894 6.3894 0 0 1 3.1709-2.04c-.0272.1695-.0414-.4726-.0414.52s1.4661 3.2741 3.2743 3.2741 3.2743-2.2992 3.2743-3.2741-.009-.2809-.0263-.4175a7.9316 7.9316 0 0 1 3.1557 1.9316v3.2051h-12.725l.0241 1.4774c2.971 3.1918 9.9522 2.8905 12.6944-.0725.18 5.52-2.7411 10.1568-6.3812 10.1568s-5.8617-4.31-6.2815-8.142v.0015zm23.5659 15.3666a18.1361 18.1361 0 0 1 -10.8324-3.4912l2.2037-3.7349a14.9745 14.9745 0 0 0 8.6712 2.8905zm-34.6428 0a18.3388 18.3388 0 0 0 10.8749-3.4914l-2.2036-3.7347a15.8985 15.8985 0 0 1 -8.714 2.92l.0425 4.3061zm17.3426-6.0506-2.9341 3.1856 1.7963 1.95-1.7527 3.4861-2.1108-3.5777a22.0009 22.0009 0 0 1 -12.3412 3.8971v4.3356h34.6852v-4.3356a20.131 20.131 0 0 1 -12.36-3.8645l-2.092 3.5456-1.7529-3.4861 1.7966-1.95-2.9342-3.1856z"/><path d="m691.976 159.5819h4.3962v15.9022h38.9609v10.1165h-4.3964v-6.0267h-34.5645v6.0267h-4.3962zm36.8839 4.9627c2.7042 1.7946 3.5923 4.8917 3.5823 8.0362l-4.2094.0127c-.1321-1.9184-.2109-3.556-1.7745-4.5938zm-19.5625-3.4963a4.5571 4.5571 0 0 1 4.1661 4.146 3.38 3.38 0 0 1 -1.3528 3.0577c2.4608.146 5.0942.0439 7.5688.0374 1.2011-9.0144 9.64-12.1535 17.8-7.0169l-2.422 3.5734c-6.103-3.7389-10.7778-1.3156-11.2589 5.2251-.1547 2.1016-1.6245 2.5747-3.6657 2.5427l-6.4883.0413c-4.3215.0276-14.1377.1358-14.4422-13.0813h4.37a9.7173 9.7173 0 0 0 1.5594 5.5758 4.151 4.151 0 0 1 4.1655-4.1012z" fill-rule="evenodd"/><path d="m113.7327 434.7753h8.6714l-1.4454-14.2061h-5.7809zm3.2187-32.9817a4.1461 4.1461 0 1 1 -2.8956 5.1149 4.1567 4.1567 0 0 1 2.8956-5.1149zm7.3477 12.6876c-1.5188.2968-3.33 1.4811-3.3341 3.1972h-5.7935c-.0042-1.7164-1.815-2.9-3.3341-3.1972l.83-4.2508a9.18 9.18 0 0 1 5.4009 3.2794 9.1816 9.1816 0 0 1 5.4011-3.2794l.83 4.2508zm-14.902 27.52h17.3429v-4.09h-17.3429zm-4.3359 7.226h26.0141v-4.0892h-26.0141z" fill-rule="evenodd"/><path d="m102.8933 359.1067h30.35v4.09h-30.35zm17.3426-23.1236h4.3356v3.9835a6.5059 6.5059 0 0 1 4.3359 6.133v10.1166h-4.3359v-10.3623a2.168 2.168 0 1 0 -4.3359 0v10.3623h-4.3356v-10.3623a2.1679 2.1679 0 1 0 -4.3358 0v10.3623h-4.3358v-10.1162a6.5058 6.5058 0 0 1 4.3358-6.133v-3.9835h4.3358v3.9835a6.5023 6.5023 0 0 1 2.168 1.2861 6.5 6.5 0 0 1 2.1676-1.2861v-3.9835zm-8.6712-2.89a6.5051 6.5051 0 0 1 5.1-6.351v-3.7661h-2.8905v-2.89h2.8905v-2.89h2.8905v2.89h2.8905v2.89h-2.8905v3.784a6.5061 6.5061 0 0 1 5.0165 6.3326z" fill-rule="evenodd"/><path d="m186.756 359.1067h34.6856v4.09h-34.6856zm17.3427-18.2818-1.8927 3.2783h-3.7855l1.8927 3.2783-1.8927 3.2782h3.7855l1.8927 3.2786 1.8929-3.2786h3.7854l-1.893-3.2782 1.893-3.2783h-3.7854zm8.6717-10.6228v7.6606l4.3356 2.8647v15.4888h-4.336v-13.3824l-4.3359-2.9409v-7.4611l-4.3356-2.9622-4.3356 2.9622v7.4733l-4.3356 2.929v13.4017h-4.3359c0-1.5489.048-15.4608 0-15.5084l4.3359-2.8647v-7.6345l8.6712-5.8068 8.6715 5.7807z" fill-rule="evenodd"/><path d="m52.4689 255.1784 1.1554-.089zm-33.4655-7.422-.3351.008c-4.2146.1624-4.7047 3.6958-3.2675 5.1874 1.2747 1.3229 4.0805.6752 3.0727-1.9854l4.0476-1.5412c1.4769 3.8653-.2517 7.65-4.3611 8.3911-4.2131.7614-7.6286-2.2351-7.7947-6.5342-.18-4.7624 3.6794-7.4151 8.1423-7.59a3.91 3.91 0 0 1 .4958-.0082h26.0682a3.9456 3.9456 0 0 1 .4958.008c4.4625.1754 8.3216 2.8281 8.142 7.5905a7.3836 7.3836 0 0 1 -1.1731 3.7954c-.0224.0337-.0445.0674-.0674.1009a6.3617 6.3617 0 0 1 -6.5543 2.6379c-4.051-.7307-5.8578-4.4733-4.3611-8.3911l4.0476 1.5412c-.8056 2.1084.9539 3.1419 2.4585 2.4432 2.1458-.9961 2.0574-5.4638-2.6532-5.6452l-.3348-.008zm21.7051 11.5906h4.3359v13.0068h-4.3359zm-21.6742 0h4.3357v13.0068h-4.3357zm-2.8843-22.8778h31.7945v4.0895h-31.7945zm17.3427 14.2061h4.3355v21.6785h-4.3358v-21.6785zm-7.2261 0h4.3356v21.6785h-4.3359v-21.6785z" fill-rule="evenodd"/><path d="m33.4824 323.1441a7.2539 7.2539 0 0 1 5.7807 7.0583h-14.4515a7.254 7.254 0 0 1 5.78-7.0586v-3.0583h-2.8902v-2.8905h2.8906v-2.89h2.89v2.89h2.8905v2.8905h-2.8901zm-7.2459 24.1549h-.0011v8.9172h-4.3348v-10.3626a2.1679 2.1679 0 0 0 -4.3358 0h-.0009v10.3626h-4.3345v-10.1162a6.5055 6.5055 0 0 1 5.008-6.33v-3.7862h-2.2374v-2.89h2.2376v-2.1532h2.89v2.1532h2.2377v2.89h-2.2371v3.7638a6.4861 6.4861 0 0 1 2.956 1.52 10.2258 10.2258 0 0 1 .854-.9484h-.1471v-7.2261h4.3359v4.7554a10.16 10.16 0 0 1 5.7807 0v-4.7554h4.3359v7.2261h-.1474a10.13 10.13 0 0 1 .8546.949 6.486 6.486 0 0 1 2.9985-1.53v-3.7545h-2.2606v-2.89h2.2606v-2.1532h2.89v2.1532h2.0749v2.89h-2.0742v3.7963a6.5057 6.5057 0 0 1 4.9663 6.32h-.0009v10.1166h-4.3349v-10.363a2.168 2.168 0 0 0 -4.3359 0h-.0008v10.3626h-4.3345v-8.9172h-.0011a5.7809 5.7809 0 0 0 -11.5617 0zm-15.8774 11.8077h43.3568v4.09h-43.3568z" fill-rule="evenodd"/><path d="m453.5188 234.1782h17.3444a19.7808 19.7808 0 0 1 13.9223 5.5888l-3.0736 3.0736a15.23 15.23 0 0 0 -10.8164-4.4495h-16.6394a16.4338 16.4338 0 0 0 -10.633 3.9571l-3.276-3.276a19.7215 19.7215 0 0 1 13.1717-4.894zm-4.3347 8.5042h11.5617v4.5718a7.147 7.147 0 0 0 -5.9973 7.0341 7.1472 7.1472 0 0 0 5.9973 7.0342v4.5717h-11.5617a3.88 3.88 0 0 1 -3.869-3.869v-1.9562h3.8693a2.8988 2.8988 0 0 0 2.89-2.89v-5.781a2.8988 2.8988 0 0 0 -2.89-2.89h-3.8693v-1.9562a3.88 3.88 0 0 1 3.869-3.8693zm14.4521 0h12.0283a3.88 3.88 0 0 1 3.869 3.8693v1.9562h-4.3358a2.899 2.899 0 0 0 -2.89 2.89v5.781a2.8988 2.8988 0 0 0 2.89 2.89h4.3358v1.9562a3.88 3.88 0 0 1 -3.869 3.869h-12.0283v-4.5717a7.1464 7.1464 0 0 0 5.9969-7.0342 7.1462 7.1462 0 0 0 -5.9969-7.0341v-4.5718zm0 7.2269v8.7585a4.548 4.548 0 0 0 3.3956-4.3792 4.5472 4.5472 0 0 0 -3.3956-4.379zm-2.89 8.7585v-8.7585a4.5478 4.5478 0 0 0 -3.3959 4.379 4.5486 4.5486 0 0 0 3.3959 4.3792zm18.7877-7.27v5.7382h-4.3356v-5.7382zm-34.2184 5.7382v-5.7382h3.869v5.7382zm41.4039-15.2155a20.25 20.25 0 0 1 4.3765 12.3675 20.2505 20.2505 0 0 1 -4.3765 12.3678l-3.2243-3.2244a15.7849 15.7849 0 0 0 2.9128-9.1434 16.2075 16.2075 0 0 0 -2.8361-9.22l3.1476-3.1478zm-1.9339 26.8895a19.7811 19.7811 0 0 1 -13.9223 5.5885h-17.3444a19.7213 19.7213 0 0 1 -13.1714-4.894l3.1745-3.1745a15.8171 15.8171 0 0 0 10.3493 3.8554h16.6393a15.842 15.842 0 0 0 11.1024-4.548zm-46.4714-1.36a20.3525 20.3525 0 0 1 -5.0276-13.1615 20.3515 20.3515 0 0 1 5.0276-13.1615l3.2791 3.2793a15.4778 15.4778 0 0 0 -3.6188 9.8822 15.8074 15.8074 0 0 0 3.536 9.9654z" fill-rule="evenodd"/><path d="m118.0864 237.7978.0683 20.9049a11.498 11.498 0 0 1 8.1326 3.4084l-2.6529 2.6526c-3.4515-3.4514-7.689-.9065-11.2128-4.43l-2.6526 2.6527a11.9918 11.9918 0 0 0 8.3174 3.4713v4.3213c3.2635-.0538 7.1263-1.8223 9.9071-7.7045 2.2059-4.6661 3.7128-11.768 3.7712-22.3492a30.94 30.94 0 0 0 -13.6783-2.927zm11.6348 13.7208a10.262 10.262 0 0 1 -10.2884 0l1.9027-3.284a6.879 6.879 0 0 0 6.516.0553l1.87 3.2287zm-24.2476-2.1929a9.894 9.894 0 0 1 10.0883-.1327l-1.986 3.4283a6.2159 6.2159 0 0 0 -6.1733 0zm26.2333 15.2671c-3.6409 7.7012-9.0162 9.9978-13.6149 10.0525h-.0481c-4.5986-.0547-9.974-2.3513-13.6145-10.0525-2.52-5.3317-4.2137-12.9144-4.1579-24.8488l.0054-1.1573a33.1249 33.1249 0 0 1 17.8911-4.6549 33.02 33.02 0 0 1 17.6914 4.6549l.0053 1.1573c.0559 11.9344-1.6375 19.5171-4.1578 24.8488z" fill-rule="evenodd"/><path d="m393.5028 407.906h-15.8975v4.3353h11.3165v11.5619h4.581zm-18.788 0h-15.8973v15.8972h4.4581v-11.5619h11.4392zm-15.8973 18.7877v15.8976h15.8973v-4.3353h-11.4392v-11.5623zm18.7878 15.8976h15.8975v-15.8976h-4.581v11.5623h-11.3165z" fill-rule="evenodd"/><path d="m542.417 352.1669a17.3253 17.3253 0 0 1 -5.574-3.2593 5.782 5.782 0 0 1 -5.647-9.7767 17.4872 17.4872 0 0 1 0-6.6228 5.7819 5.7819 0 0 1 5.6472-9.7764 17.3287 17.3287 0 0 1 5.7342-3.3152 5.7819 5.7819 0 0 1 11.2885.0006 17.3274 17.3274 0 0 1 5.7341 3.3149 5.782 5.782 0 0 1 5.648 9.7761 17.4429 17.4429 0 0 1 -.0023 6.6217 5.7818 5.7818 0 0 1 -5.6448 9.7781 17.3035 17.3035 0 0 1 -2.83 2.001l-2.1365-3.7709a12.9785 12.9785 0 0 0 1.5861-1.0613 5.7821 5.7821 0 0 1 4.8852-8.4586 13.1439 13.1439 0 0 0 0-3.5966 5.7822 5.7822 0 0 1 -4.8849-8.4583 12.9913 12.9913 0 0 0 -3.1133-1.8011 5.7819 5.7819 0 0 1 -9.77 0 12.9975 12.9975 0 0 0 -3.1136 1.8008 5.7822 5.7822 0 0 1 -4.8842 8.4586 13.15 13.15 0 0 0 0 3.5969 5.7821 5.7821 0 0 1 4.8842 8.4586 12.9821 12.9821 0 0 0 3.3165 1.8816l2.2754-8.5331a4.3332 4.3332 0 1 1 4.8135.0008l4.4339 16.6269h-13.6822l1.036-3.886zm20.257 10.8664h-28.9046v-4.09h28.9046zm-29.4719-18.5423a2.1929 2.1929 0 1 1 2.9954.8025 2.1928 2.1928 0 0 1 -2.9954-.8025zm30.0385-17.3427a2.1928 2.1928 0 1 1 -2.9954-.8025 2.1929 2.1929 0 0 1 2.9954.8025zm0 17.343a2.1929 2.1929 0 1 1 -.8028-2.9954 2.1928 2.1928 0 0 1 .8028 2.9954zm-15.0191-26.0141a2.1927 2.1927 0 1 1 -2.1926 2.1926 2.1926 2.1926 0 0 1 2.1926-2.1926zm-15.0191 8.6711a2.1927 2.1927 0 1 1 .8025 2.9954 2.1928 2.1928 0 0 1 -.8025-2.9954z" fill-rule="evenodd"/><path d="m313.4326 425.2486-11.2411-11.2414-3.0656 3.066 8.1754 8.1754-8.1754 8.1754 3.0656 3.0657zm-13.2851-13.2851-11.2411-11.2411-11.2411 11.2411 3.0657 3.0657 8.1754-8.1755 8.1754 8.1755zm-24.5263 2.0437-11.2412 11.2414 11.241 11.2411 3.0657-3.0657-8.1754-8.1754 8.1754-8.1754-3.0657-3.066zm2.0441 24.5263 11.2411 11.2413 11.2411-11.2413-3.0657-3.0654-8.1754 8.1751-8.1754-8.1751z" fill-rule="evenodd"/><path d="m287.79 421.256a4.1461 4.1461 0 1 1 -2.8958 5.1146 4.1559 4.1559 0 0 1 2.8958-5.1146z"/><path d="m620.2867 70.8207a5.7808 5.7808 0 1 1 7.8967 2.116 5.7807 5.7807 0 0 1 -7.8967-2.116zm14.4521 23.1493a5.781 5.781 0 1 1 7.8968 2.1161 5.7809 5.7809 0 0 1 -7.8968-2.1161zm2.8906-1.669a2.443 2.443 0 1 1 3.3372.8943 2.4429 2.4429 0 0 1 -3.3372-.8943zm-6.5555-3.2913v4.0895h-6.5039a7.8267 7.8267 0 1 1 0-15.6515h15.8972a3.738 3.738 0 0 0 0-7.4719h-6.5035v-4.09h6.5035a7.8269 7.8269 0 1 1 0 15.6518h-15.8972a3.738 3.738 0 0 0 0 7.4718h6.5035zm-7.8967-19.8573a2.4431 2.4431 0 1 1 3.3372.8941 2.4431 2.4431 0 0 1 -3.3372-.8941z" fill-rule="evenodd"/><path d="m267.2494 358.9437h43.3568v4.09h-43.3568zm1.4236-14.4822v-4.3356a7.02 7.02 0 0 1 6.98 7.2261v8.7007h-4.3356v-8.7007a2.6909 2.6909 0 0 0 -2.6447-2.89zm33.4862 11.5912h4.3356v-8.7007a2.6909 2.6909 0 0 1 2.6445-2.89v-4.3356a7.02 7.02 0 0 0 -6.98 7.2261v8.7007zm-34.9892-26.0139h43.4725l-21.7364-7.2261zm1.5461 2.92h40.4232v4.0606h-40.4232zm23.2039 23.0939h4.3356v-15.9268h-4.3356zm-10.3623 0h4.3356v-15.9268h-4.3356z" fill-rule="evenodd"/><path d="m553.4347 158.015c.0224-1.1937.51-2.2973 1.6883-2.4982 9.5755-1.3261 11.4792 13.7 1.8732 15.0755a2.1674 2.1674 0 0 1 -2.4356-1.8771 40.2784 40.2784 0 0 1 -1.1259-10.7zm-16.3471 10.94v20.251h-3.9668v-24.5688c6.1738 0 11.9237.79 13.6358-6.8618a2.1618 2.1618 0 0 1 4.2677.5051 50.0192 50.0192 0 0 0 1.5362 12.5215 2.166 2.166 0 0 1 -.8311 2.2794c-5.8159 4.4084-7.01 10.12-8.1456 17.1091l-4.268-.6943c1.2272-7.5532 2.7247-13.9682 8.7217-19.0057-.3211-1.4485-.6-3.0079-.818-4.5859-2.6425 2.4713-6.6081 3.02-10.1319 3.05zm11.0244-22.8223a4.146 4.146 0 1 1 -4.166 4.146 4.1562 4.1562 0 0 1 4.166-4.146zm10.7243 43.5617c-5.094-2.22-7.1512-6.7238-8.787-11.89l4.1326-1.3039c1.2507 3.951 2.4573 7.5206 6.3819 9.2311z" fill-rule="evenodd"/><path d="m461.0286 429.7807a4.3152 4.3152 0 1 1 -3.0137 5.3234 4.3258 4.3258 0 0 1 3.0137-5.3234z"/><path d="m450.8789 427.4106a13.0594 13.0594 0 0 1 22.6239 0l-3.7429 2.1507a8.7482 8.7482 0 0 0 -15.1382 0z"/><path d="m443.41 423.0982a21.6677 21.6677 0 0 1 29.6277-7.9426l-.0019.0037a21.6833 21.6833 0 0 1 7.9361 7.9389l-3.7429 2.151a17.3367 17.3367 0 0 0 -6.3505-6.3508h-.0085a17.3734 17.3734 0 0 0 -23.7176 6.3508l-3.7425-2.151z"/><path d="m275.8319 170.251a9.9748 9.9748 0 1 1 -7.0526 2.9217 9.9432 9.9432 0 0 1 7.0526-2.9217zm4.2732 5.701a6.0431 6.0431 0 1 0 1.7694 4.273 6.0255 6.0255 0 0 0 -1.7694-4.273z"/><path d="m284.6335 144.3843a4.177 4.177 0 1 1 -4.1973 4.1771 4.1874 4.1874 0 0 1 4.1973-4.1771z"/><path d="m298.8073 170.776a10.0206 10.0206 0 1 1 -3.5181 2.065l2.626 2.9021a6.0505 6.0505 0 1 0 2.1359-1.2509z"/><path d="m295.1214 164.0278a12.5463 12.5463 0 0 0 -4.9856-5.5755c-3.064 5.4142-8.445 6.78-14.2657 6.9628l-.1363-4.1048c5.4527-.1719 9.1542-1.27 11.3874-6.6107h.0016a2.1783 2.1783 0 0 1 2.8222-1.1865 17.03 17.03 0 0 1 9.6032 9.7786c.8051 2.0619.2855 2.5563-1.1378 3.6553a5.8625 5.8625 0 0 0 3.6 10.4706v4.3679a10.2288 10.2288 0 0 1 -6.889-17.7582z"/><path d="m289.6208 169.2115a3.0146 3.0146 0 0 0 -3.3229.3966c-1.0964 1.0273-1.9269 2.965-2.5565 5.5925l-4.2314-1.0066c.8266-3.4492 2.0512-6.1189 3.8022-7.7593 2.0536-1.9239 4.61-2.4744 7.793-1.3184l-1.4842 4.0952z"/><path d="m710.3572 77.8719v10.0362h-2.1531v3.62h8.6714v-3.62h-2.1827v-13.7223h-5.9257l-1.1693 3.6861zm-.7635-8.0148a2.8907 2.8907 0 0 0 2.896 2.8958 2.9284 2.9284 0 0 0 2.94-2.8958 2.9661 2.9661 0 0 0 -2.94-2.94 2.9285 2.9285 0 0 0 -2.896 2.94z"/><path d="m712.235 57.8268a21.678 21.678 0 1 1 -21.6778 21.6781 21.6783 21.6783 0 0 1 21.6778-21.6781zm0 4.3358a17.3424 17.3424 0 1 1 -17.3424 17.3423 17.3424 17.3424 0 0 1 17.3424-17.3423z" fill-rule="evenodd"/><path d="m723.6739 258.6245v15.8972h-4.336v-40.4663a8.6717 8.6717 0 0 1 8.6713 8.6715v15.8976zm-8.9172-13.0071a9.1854 9.1854 0 0 1 -6.98 9.1423v19.762h-4.3355v-19.7617a9.1849 9.1849 0 0 1 -6.9807-9.1423v-11.562h4.09v11.5617a5.0583 5.0583 0 1 0 10.1166 0v-11.5617h4.09v11.5617zm-11.1929-11.5617h4.09v13.0068h-4.09z"/><path d="m483.869 358.943h-43.357v4.09h43.357z"/><path d="m483.869 355.807h-6.474v-2.89h-4.336v2.89h-4.335v-2.89h-4.336v2.89h-4.336v-2.89h-4.336v2.89h-4.335v-2.89h-4.336v2.89h-6.474v-5.781h43.298z" fill-rule="evenodd"/><path d="m447.7384 347.1357h-4.3356a18.7879 18.7879 0 0 1 37.5757 0h-4.3355a14.4523 14.4523 0 0 0 -28.9046 0z" fill-rule="evenodd"/><path d="m456.41 347.1357h-4.3355c0-10.3762 4.5291-18.7877 10.1166-18.7877s10.1165 8.4115 10.1165 18.7877h-4.3358c0-7.9818-2.5881-14.4521-5.7807-14.4521s-5.7811 6.47-5.7811 14.4521z" fill-rule="evenodd"/><path d="m364.8043 236.2236a7.19 7.19 0 1 1 -7.1759 7.19 7.1829 7.1829 0 0 1 7.1759-7.19zm15.8657 17.3425h-14.4518a4.3483 4.3483 0 0 0 -4.3355 4.3358v10.116a4.3484 4.3484 0 0 0 4.3355 4.3359h14.4518a4.3486 4.3486 0 0 0 4.3359-4.3359v-10.116a4.3485 4.3485 0 0 0 -4.3359-4.3358zm10.4978.8895a12.0263 12.0263 0 0 1 0 17.0087l-3.0653-3.0654a7.6927 7.6927 0 0 0 0-10.878zm-26.3639-14.084a3.0422 3.0422 0 1 1 -3.0359 3.0421 3.0391 3.0391 0 0 1 3.0359-3.0421zm17.2922-2.7082a4.3294 4.3294 0 1 1 -4.3353 4.3293 4.3323 4.3323 0 0 1 4.3353-4.3293zm.0193-4.3155a8.6524 8.6524 0 1 1 -8.6518 8.6521 8.6527 8.6527 0 0 1 8.6522-8.6522z" fill-rule="evenodd"/><path d="m26.2567 434.7753h11.5619l-1.4454-17.3625-4.3356-2.5018-4.3356 2.5018zm-7.2262 14.4521h26.0142v-4.09h-26.0142zm4.336-7.226h17.3423v-4.09h-17.3423zm8.6711-42.4324 2.8613 5.031 5.1319.7765-4.0608 3.847 1.0079 5.5494-4.94-2.7113-4.94 2.7113 1.008-5.5491-4.0612-3.8474 5.7092-.9284 2.2839-4.879z" fill-rule="evenodd"/><path d="m803.5519 340.1554a7.9488 7.9488 0 0 1 0 15.8975h-17.3429a5.7975 5.7975 0 0 1 -5.7807-5.7807v-10.1168h11.5617c0-6.6952 5.781-7.1634 5.781-11.5617h4.09c0 6.7113-5.781 7.187-5.781 11.5617zm-18.5419-4.3354c0-6.6954 5.7811-7.1634 5.7811-11.5617h4.09c0 6.6952-5.781 7.1632-5.781 11.5617zm17.0969 16.1433h1.4454a3.859 3.859 0 0 0 0-7.7179h-1.4454zm-24.5687 6.98h30.35v4.09h-30.35z" fill-rule="evenodd"/><path d="m550.5065 266.69a10.1353 10.1353 0 0 1 -3.8409 6.51l-3.0431-3c1.4523-1.368 2.3038-2.3706 2.5708-4.4266l4.3132.917zm-9.9184-2.3769v8.6406h-4.3359v-8.64l-4.3355.0009c.055 2.7209-1.1833 7.1112-3.6546 8.8849l-3.13-2.8772a8.5023 8.5023 0 0 0 2.3773-6.1319v-11.47a10.1463 10.1463 0 0 1 10.1167-10.1166l.3884-.0006a10.3845 10.3845 0 0 0 -.3167 2.8911 13.1278 13.1278 0 0 0 13.0071 13.0068v-2.89a10.1166 10.1166 0 1 1 0-20.2332h5.7806a10.1166 10.1166 0 0 1 10.1166 10.1166v10.1165a6.975 6.975 0 0 0 4.7089 7.0653l-1.6438 3.8359a11.4678 11.4678 0 0 1 -7.4007-10.9012h-2.89v8.6711a7.8415 7.8415 0 0 0 2.7462 5.9171l-3.0429 3a11.5136 11.5136 0 0 1 -4.0431-8.8892l-14.4479.0025zm18.0651-18.8186a2.168 2.168 0 1 1 -2.1679 2.168 2.168 2.168 0 0 1 2.1679-2.168z" fill-rule="evenodd"/><path d="m799.3407 79.8618a4.3153 4.3153 0 1 0 -5.8952-1.633 4.3258 4.3258 0 0 0 5.8952 1.633zm-2.1166 18.7223-11.1764-11.1762a15.8056 15.8056 0 1 1 22.42-.0677zm0-6.1291 8.1587-8.1627a11.4694 11.4694 0 1 0 -16.2691.05l8.11 8.1131z"/><path d="m271.5635 246.34h34.6856v26.0141h-34.6856zm7.3332-3.93a10.3633 10.3633 0 0 1 20.0191 0l-4.1831 1.1178a6.0314 6.0314 0 0 0 -11.6529 0zm4.1831 6.7558a6.0313 6.0313 0 0 0 11.6529 0l4.1831 1.1178a10.3633 10.3633 0 0 1 -20.0191 0z" fill-rule="evenodd"/><path d="m616.7105 358.9434h31.7948v4.09h-31.7948zm5.0581-2.89h-2.1677v-4.8154c-7.592-1.1863-10.1162-9.28-6.33-15.1282a8.6715 8.6715 0 1 1 16.9951 0c3.7866 5.8479 1.2621 13.9419-6.33 15.1282v4.8152zm23.8362-6.8269a30.8466 30.8466 0 0 0 6.4282 3.14l1.4734-3.8186c-3.8136-1.3909-7.7235-3.4117-10.1377-6.79-2.4144 3.3786-6.3244 5.3994-10.1379 6.79l1.4732 3.8186a33.5851 33.5851 0 0 0 6.5653-3.2032v6.89h4.3355v-6.8269zm4.9774-19.6195c-2.6748-.9062-5.6922-2.3383-7.2135-4.8362-1.5214 2.4979-4.5391 3.93-7.2137 4.8362l1.4349 3.8359a23.1061 23.1061 0 0 0 5.7788-2.7785 23.0981 23.0981 0 0 0 5.7786 2.7785zm1.47 9.3949c-3.2822-1.1755-6.7227-2.9205-8.6839-5.9227-1.9613 3.0022-5.402 4.7472-8.6843 5.9227l1.4564 3.8358a25.502 25.502 0 0 0 7.2279-3.5274 25.501 25.501 0 0 0 7.2275 3.5274z" fill-rule="evenodd"/><path d="m386.2827 325.55-1.3969 3.8821a45.444 45.444 0 0 0 -17.4515 0l-1.3969-3.8821a49.8386 49.8386 0 0 1 20.2453 0zm-7.1433 26.83h-5.7812v3.6728h-2.89v-2.8905h-2.89v2.8905h-2.89v-2.1081h-2.8905v2.1081h-5.7807v-10.379c11.1424 6.118 29.9146 6.122 40.4663-.0094v10.3884h-5.781v-2.1081h-2.89v2.1081h-2.8923v-2.8905h-2.89v2.8905h-2.89v-3.6728zm-17.91-15.9174a12.0873 12.0873 0 0 1 4.5634-2.279l1.3916 3.8794a8.9456 8.9456 0 0 0 -3.1587 1.3884zm7.575-2.9548a44.7785 44.7785 0 0 1 14.7087.0065l-1.4021 3.91a42.5083 42.5083 0 0 0 -11.9009.0042l-1.4057-3.9208zm17.72.6825a11.81 11.81 0 0 1 4.6959 2.3829l-2.8871 2.9211a8.6348 8.6348 0 0 0 -3.1969-1.4352zm-33.5364 24.7527h46.3434v4.09h-46.343v-4.09zm11.46-28.7441a24.6168 24.6168 0 0 0 -2.6127.953c-3.0805 1.3362-4.9856 2.9985-4.9856 4.67s1.9054 3.3335 4.9856 4.67c7.8556 3.4081 20.7921 3.4081 28.6478 0 3.08-1.3363 4.9855-2.9985 4.9855-4.67s-1.9051-3.3339-4.9855-4.67a24.6188 24.6188 0 0 0 -2.6128-.953l1.3919-3.88a29.4288 29.4288 0 0 1 3.1577 1.15c4.747 2.0593 7.6831 4.8427 7.6831 8.3534s-2.9361 6.2937-7.6831 8.3531c-9.0722 3.9362-23.4493 3.9362-32.5215 0-4.747-2.0594-7.6831-4.8427-7.6831-8.3531s2.9361-6.2941 7.6831-8.3534a29.4525 29.4525 0 0 1 3.1577-1.15z"/><path d="m191.0989 449.2274h26v-4.0895h-26zm4.3356-7.2175h17.3427v-4.09h-17.3427zm0-27.4592v5.7807h5.781v14.4524h5.7807v-14.4524h5.781v-5.7807h-5.781v-5.7807h-5.7807v5.781z" fill-rule="evenodd"/><path d="m630.6767 144.9071a4.1459 4.1459 0 1 0 4.166 4.1459 4.156 4.156 0 0 0 -4.166-4.1459zm1.2019 28.8721c.2841 5.6679 1.2356 11.2317 4.106 16.19l3.7428-2.1679c-3.2119-5.5485-3.9038-13.1966-3.9311-18.3579v-8.7253c2.86 1.9505 3.1935 5.4 2.4052 9.7l3.5314.7217c2.5934-8.9751-2.0356-16.3164-10.9669-16.338-6.383-.0153-9.6116 5.2991-12.3374-1.0732l-3.7772 1.8666c1.7734 4.6879 6.1209 6.7033 11.0284 4.8864v29.1941h4.2744v-15.8965z"/><path d="m806.3982 183.0112c2.5558-6.08.62-11.985-4.0151-16.2074 2.2718-3.2834 2.6415-8.8078 2.1187-11.8483a8.1225 8.1225 0 0 1 8.9937 3.2984l3.6245-2.3709a12.4758 12.4758 0 0 0 -14.0959-4.9983l-.1908.0839a4.1966 4.1966 0 1 0 -4.4262 4.4195c.0085.0581.0178.1165.0294.1763.5576 2.9415.0969 6.1571-1.0341 7.6694a7.155 7.155 0 0 0 -6.3476.01c-3.7024 2.1146-3.0767 6.4479-1.7535 9.82l4.0306-1.5752c-.3737-.9522-1.3961-3.77-.1435-4.4856 1.381-.7888 4.0275.9392 5.0389 1.8023 4.8036 3.58 5.8549 7.806 4.0216 12.9694l4.1493 1.2362zm-11.1946 2.7788a7.2271 7.2271 0 0 0 7.1949.6709l-1.81-3.94a2.8892 2.8892 0 0 1 -2.8782-.2687l-9.4329-6.6855a2.8891 2.8891 0 0 1 -1.2069-2.6263l-4.3169-.4026a7.2268 7.2268 0 0 0 3.0169 6.5665l9.4328 6.6853zm-1.3906 1.2013a2.1574 2.1574 0 1 0 2.0556 2.2643 2.1624 2.1624 0 0 0 -2.0556-2.2643zm-10.6048-7.5158a2.1572 2.1572 0 1 0 2.0557 2.264 2.1621 2.1621 0 0 0 -2.0557-2.264zm11.0773-31.811a9.2958 9.2958 0 0 0 -9.2725 1.4843l2.8111 3.2856a4.94 4.94 0 0 1 4.7507-.79l1.7107-3.98z"/></g><path d="m122.5305 169.2461.0522-7.5717q.1377.1923.2645.4012c1.0831 1.7875 1.6475 4.4917 1.5919 8.1666q-.0237 1.5613-.212 3.412l3.875.3967q.201-1.9667.227-3.7631c.0672-4.4232-.697-7.8179-2.156-10.226a8.8528 8.8528 0 0 0 -6.9809-4.4163q-.46-.0472-1.0009-.0553a9.5893 9.5893 0 0 0 -1.9075.1576 9.3407 9.3407 0 0 0 -6.2 4.3172 16.2348 16.2348 0 0 0 -2.2776 8.5711 27.5726 27.5726 0 0 0 .4969 5.4833l3.8293-.7172a23.7691 23.7691 0 0 1 -.4362-4.72 12.3818 12.3818 0 0 1 1.6679-6.5117 6.7862 6.7862 0 0 1 .699-.9134v8.49l-3.4421 20.4511h4.3914l2.6025-15.4638.6055-.025h.8388l2.6067 15.4888h4.3912l-3.5264-20.952zm-4.1915-23.1137a4.15 4.15 0 1 0 4.1694 4.15 4.16 4.16 0 0 0 -4.1694-4.15z" fill="#e63223"/><path d="m721.028 358.975h-17.585v4.058h17.585z" fill="#fff"/><path d="m693.9738 349.5063h36.5225a6.7829 6.7829 0 0 1 -6.7632 6.7632h-22.9961a6.783 6.783 0 0 1 -6.7632-6.7632z" fill="#fff" fill-rule="evenodd"/><path d="m695.327 342.743h4.058v4.058h-4.058z" fill="#fff" fill-rule="evenodd"/><path d="m714.264 327.864v18.937h-4.058v-18.937z" fill="#fff"/><path d="m729.144 342.743h-4.058v4.058h4.058z" fill="#fff" fill-rule="evenodd"/><path d="m699.3847 340.0375h-4.0578a9.4687 9.4687 0 0 1 18.9374 0h-4.0578a5.4109 5.4109 0 1 0 -10.8218 0z" fill="#fff" fill-rule="evenodd"/><path d="m714.2639 340.0375h-4.0578a9.4688 9.4688 0 0 1 18.9375 0h-4.0578a5.411 5.411 0 1 0 -10.8219 0z" fill="#fff" fill-rule="evenodd"/><path d="m704.7954 327.8635h-4.0581a6.7635 6.7635 0 0 1 13.527 0h-4.0584a2.7053 2.7053 0 1 0 -5.4105 0z" fill="#fff" fill-rule="evenodd"/><path d="m719.6748 327.8635h4.058a6.7635 6.7635 0 1 0 -13.5269 0h4.0584a2.7053 2.7053 0 1 1 5.41 0z" fill="#fff" fill-rule="evenodd"/><path d="m556.893 101.8629.0008 2.89-8.6723-3.9714-8.6723 3.9714.0008-2.89 8.3067-7.8154.631.0229zm-8.66-44.8254a2.8879 2.8879 0 0 1 2.8786 2.8783v29.0211c0 3.8063-5.7569 3.808-5.7569 0v-2.9369l-17.3667 8.1918v-4.3353l17.3668-15.2671v-14.6736a2.8868 2.8868 0 0 1 2.8783-2.8783zm5.7693 20.3193 14.4522 12.5v4.3353l-14.4521-6.7131v-10.1222z" fill="#fff" fill-rule="evenodd"/><path d="m863.3788 157.9625c-2.4145 5.2864-1.7852 11.1541 2.702 14.406 4.6692-1.3638 7.3554-5.612 6.6152-8.4178-1.0139-3.8421-7.3157-2.2139-9.3172-5.9882zm19.4512-13.1215a4.177 4.177 0 1 1 -4.1972 4.1771 4.1874 4.1874 0 0 1 4.1972-4.1771zm5.2833 27.2982-1.5849-12.8943c-.3631-2.9548-1.6194-4.5856-5.2605-4.4822-5.7844.1645-11.3588-.4921-15.4208-2.4783l-1.8987 3.7588a31.47 31.47 0 0 0 12.7094 2.904c2.7707 10.4132 1.93 20.642 1.5915 30.8946l4.3058.068c.1678-5.6662.4934-10.5307.2046-16.73l1.2108-.1563c1.33 6.4588 3.7476 9.7124 10.0648 11.9688l1.4577-3.8392c-4.8161-1.72-6.3511-4.091-7.38-9.0139z" fill="#fff"/><path d="m630.3492 408.3144a12.0962 12.0962 0 0 1 1.6293-6.0494v-.0085a12.1047 12.1047 0 0 1 4.4374-4.4288l2.1526 3.7463a7.7776 7.7776 0 0 0 -2.8438 2.8522l-.0036-.002a7.7847 7.7847 0 0 0 -1.0322 3.89zm2.17 8.6794c-2.9277-2.5109-7.2327-4.34-11.46-1.0043 5.77 5.1852 6.5818 13.5927 3.6579 20.7006a16.204 16.204 0 0 0 15.6035 0c-2.9236-7.1079-2.1115-15.5154 3.6579-20.7006-4.2271-3.3352-8.5321-1.5066-11.46 1.0043zm0 26.038c-5.5248 0-9.2007-1.7454-13.4-4.883 4.1424-8.5292 4.345-15.3331-3.9581-21.155 3.0276-7.8049 12.32-8.7916 17.3585-5.2234 5.0388-3.5682 14.331-2.5815 17.3585 5.2234-8.3033 5.8219-8.1006 12.6258-3.9583 21.155-4.2 3.1376-7.8756 4.883-13.4 4.883z" fill="#ff640a"/><path d="m545.0544 440.4168-6.9172.0984c-6.7555.0952-10.7421-6.0256-7.1954-12.1689l.9357-1.6174-2.76-1.5934 9.2657-5.3493v10.6989l-2.76-1.5934-.9357 1.6243c-1.8526 3.2082-.0421 5.7251 3.3981 5.6763l6.9171-.0981.0511 4.3226zm14.1769-19.5313-9.2656-5.3492 2.76-1.5934-.936-1.6174c-1.8489-3.2023-4.9343-2.912-6.6124.0924l-3.3735 6.0392-3.78-2.1022 3.3735-6.0392c3.31-5.9264 10.5987-6.2921 14.1389-.16l.9361 1.624 2.76-1.5931v10.6988zm-11.39 17.4167 9.2654-5.35v3.18h1.887c3.5791 0 5.0415-2.7178 3.2224-5.7685l-3.5433-5.9411 3.7123-2.2207 3.5433 5.9411c3.5493 5.9523.0035 12.3291-6.9347 12.3291h-1.887v3.18l-9.2654-5.3495z" fill="#00b400"/><path d="m800.97 414.4625-.4187-2.4951-4.2018.2994-6.1215-2.1623-5.8438 3.3738 8.6615 14.4425-3.7122 2.2207-5.3728-8.9589-4.0964 6.8578 2.7 5.9086 5.1158.4994 4.6048 5.8553h4.7424v-11.7l12.6529-1.96.0352-5.9939-6-2.8239-6.2649 6.6473-3.0792-3.0405 6.5985-6.97zm-19.5342 2.5107-3.0211-5.0378 11.5149-6.6478 7.1234 2.5847 7.1169-.5075 1.0733 6.3941 8.8084 4.1463-.07 12.9932-12.7 13.7449h-11.0982l-4.7746-6.071-5.7427-.5607-4.6794-10.2416 6.4487-10.7968zm26.5328 14.29-6.64 1.0709.038 6.1 6.6021-7.1708z" fill="#ffd400"/><path d="m703.85 397.3653h10.1256v4.34h-10.1256zm12.68 27.5967-5.8153 1.55-1.1019-4.1867 5.8295-1.554-.0164-5.322a6.5187 6.5187 0 0 0 -13.0374-.0014l.0039 11.0644 7.8535 13.5853c1.0354 1.93 3.4857 1.32 4.1377-.5825a2.7738 2.7738 0 0 0 4.4475-2.5676c1.9729.3863 3.8337-1.4919 2.68-3.3537l-4.981-8.6318zm3.2216-3.1005 5.5717 9.6732c2.2567 3.9178.84 7.1264-2.8992 8.4323a5.9108 5.9108 0 0 1 -7.2219 4.1694c-3.0007 2.5858-6.3844 2.15-8.6456-1.7668l-8.4935-14.71.0046-12.21a10.84 10.84 0 0 1 21.679-.0011l.0049 6.4136z" fill="#00b4ff" fill-rule="evenodd"/><path d="m215.7051 235a9.4145 9.4145 0 0 0 -4.8212 3.875c-1.0244 1.8233-1.26 4.1114-.3852 7.1544l1.7047 6.8386c3.1663 11.0086-25.1334 11.0579-21.9529 0l1.7045-6.8386c.8753-3.043.6395-5.3311-.3852-7.1544a9.4125 9.4125 0 0 0 -4.8209-3.875l-1.6937 3.98a5.4579 5.4579 0 0 1 2.738 2.0117c.4629.8238.5179 2.0368-.0043 3.852l-1.7045 6.7159c-5.2888 18.3878 35.574 18.3878 30.2851 0l-1.7045-6.7159c-.5221-1.8152-.4671-3.0282-.0042-3.852a5.4583 5.4583 0 0 1 2.7377-2.0117zm-13.0329-1.392h4.3356v24.54h-4.3356zm-7.2261 0h4.3357v24.54h-4.3357zm15.8976 34.6563h-20.2337v4.09h20.2334v-4.09z" fill="#fff"/><path d="m366.4447 167.2151a15.1268 15.1268 0 0 1 -2.8193-.97l1.7694-3.9263c4.2749 1.9306 7.1059.5193 9.3792-3.33a6.16 6.16 0 0 1 5.69-3.35c7.8463-.1554 12.8216 5.25 12.9367 12.9653l-4.2967.05c-.0542-3.63-1.2929-6.624-4.8024-7.967l1.0482 10.7353 6.4335 14.2909a6.043 6.043 0 0 0 -2.5291-11.5314v-3.9309a9.9736 9.9736 0 1 1 0 19.9471v-.0559l-7.2847-15.7611h-1.4809l1.4378 15.817h-4.3138l-2.4559-24.9525a10.8689 10.8689 0 0 1 -4.3231 1.8342l-6.3375 14.0216-3.61-1.5868 2.408-5.328c-.0754-.0028-.1513-.0043-.2273-.0043a6.0426 6.0426 0 1 0 6.0412 6.1657h3.932a9.9652 9.9652 0 1 1 -8.051-9.9116l1.4558-3.2213zm12.6327-21.3191a4.177 4.177 0 1 1 -4.1973 4.1771 4.1874 4.1874 0 0 1 4.1973-4.1771z" fill="#fff"/><path d="m466.72 173.2639a13.369 13.369 0 0 1 -3.4984 6.0973 12.1867 12.1867 0 1 1 -2.0317-18.86l-2.3252 3.6226a7.8723 7.8723 0 1 0 1.3068 12.1879 7.7122 7.7122 0 0 0 2.2591-6.2153c5.6731-1.0666 7.4362-2.9276 7.9631-8.5612.0867-2.07 2.3554-2.9537 3.5317-1.9295 10.0559 7.8548 8.9482 19.64 5.8842 30.5929h-4.3135c2.2771-7.7612 4.1245-17.78-1.4921-24.5792-1.131 3.9815-3.5175 6.5732-7.284 7.645zm1.5333-22.8333a4.177 4.177 0 1 1 -4.1972 4.1771 4.1874 4.1874 0 0 1 4.1972-4.1771zm8.441 26.91a22.22 22.22 0 0 0 -5.5882 12.8571h-4.3381a26.6919 26.6919 0 0 1 6.6237-15.6206zm-28.56 7.1053a2.8759 2.8759 0 1 1 -2.8761 2.8757 2.876 2.876 0 0 1 2.8761-2.8757zm12.9412 0a2.8759 2.8759 0 1 1 -2.8759 2.8757 2.876 2.876 0 0 1 2.8759-2.8757z" fill="#fff"/><path d="m32.7259 511.032c-3.7425-1.0649-6.1138-3.64-7.2377-7.5964-5.5808 6.7563-3.7452 16.7111-1.4826 24.4229h-4.2856c-3.0445-10.8837-4.1452-22.5935 5.8468-30.3983 1.1689-1.0177 3.4231-.14 3.5092 1.9172.5235 5.5978 2.2755 7.4469 7.9125 8.5068a7.663 7.663 0 0 0 2.2448 6.1757 7.8156 7.8156 0 1 0 1.2984-12.11l-2.31-3.6a12.1031 12.1031 0 1 1 -2.0188 18.7406 13.2848 13.2848 0 0 1 -3.4761-6.0586zm-1.5236-22.6881a4.15 4.15 0 1 1 -4.1705 4.1506 4.1607 4.1607 0 0 1 4.1705-4.1506zm-8.3873 26.7393 3.2816-2.7459a26.522 26.522 0 0 1 6.5816 15.5212h-4.31a22.0787 22.0787 0 0 0 -5.5527-12.7753zm28.3782 7.06a2.8576 2.8576 0 1 1 -2.8577 2.8575 2.858 2.858 0 0 1 2.8577-2.8575zm-12.8589 0a2.8576 2.8576 0 1 1 -2.8578 2.8575 2.8577 2.8577 0 0 1 2.8578-2.8575z" fill="#fff"/><path d="m117.589 502.1889a12.5918 12.5918 0 0 0 -.0732 2.5705c4.1478-.875 8.4758.2773 9.8788 6.6756 7.8473.4734 10.3752 6.974 10.4505 14.0935h-4.389c-.1065-10.0442-5.1066-11.4156-13.7555-8.4038a2.1723 2.1723 0 0 1 -2.29-.484c-3.7669-3.7214-4.9841-9.7228-4.1273-14.8158.4217-2.507 4.36-2.0711 4.3055.364zm8.3684 19.2992-13.925 4.0576-6.9486-24.1421 4.1862-1.1912 5.74 19.9441 9.7387-2.8378 1.2083 4.1694zm-9.8794-30.2361a4.1661 4.1661 0 1 1 -2.91 5.1394 4.1762 4.1762 0 0 1 2.91-5.1394z" fill="#fff"/><path d="m220.434 516.4743a10.617 10.617 0 0 0 -10.0535-6.982v-4.3423a14.9654 14.9654 0 0 1 14.07 9.6572l-4.0161 1.6676zm-12.2717 5.0138-13.925 4.0576-6.9486-24.1421 4.1862-1.1912 5.74 19.9441 9.7387-2.8378 1.2083 4.1694zm2.2182-21.6821c3.8671.0422 7.3077-.7167 10.146-3.5007l3.0461 3.0972c-3.6676 3.5975-8.17 4.7928-13.1921 4.7433v-4.34zm.71-9.2949a4.166 4.166 0 1 1 -2.91 5.1393 4.1762 4.1762 0 0 1 2.91-5.1393zm-12.8073 0a4.166 4.166 0 1 1 -2.91 5.1393 4.1761 4.1761 0 0 1 2.91-5.1393zm10.4468 18.9489a15.9786 15.9786 0 0 1 -8.558-2.2514 12.5648 12.5648 0 0 0 1.7951 5.3549c4.8057-1.39 8.9637-1.5552 12.1448.0846 3.6661 1.89 5.8293 5.9532 5.9026 12.88h-4.3535c-.0537-5.0782-1.345-7.8855-3.54-9.0171-2.3515-1.2121-5.9361-.8073-10.3013.64a2.1693 2.1693 0 0 1 -2.34-.6636c-3.4864-4.1461-4.1422-9.3256-3.6212-14.5533a2.1762 2.1762 0 0 1 3.9215-1.1441c2.4989 3.3927 4.841 4.1861 8.95 4.3114z" fill="#fff"/><path d="m292.8872 525.5285-.0124-9.7166a21.4158 21.4158 0 0 0 -7.4833 1.3393 2.1693 2.1693 0 0 1 -2.34-.6636c-3.4864-4.1461-4.1422-9.3256-3.6211-14.5533a2.176 2.176 0 0 1 3.9212-1.1445c3.524 3.9432 9.04 3.9133 13.7047 3.8356l.175 7.7567c5.2486 2.2679 6.4091 7.9641 6.3422 13.1464h-4.34c.05-3.8387-.6792-6.414-2.0026-7.9029l-.02 7.9206-4.3241-.0177zm-1.1529-4.04-13.9249 4.0576-6.9487-24.1421 4.1862-1.1912 5.74 19.9441 9.7387-2.8378 1.2083 4.1694zm-9.8794-30.977a4.166 4.166 0 1 1 -2.91 5.1393 4.1761 4.1761 0 0 1 2.91-5.1393zm11.02 20.9658v-2.4843c-4.327-.32-6.3575-.64-9.1656-2.1072a12.75 12.75 0 0 0 1.83 5.679 24.0836 24.0836 0 0 1 7.3354-1.0875z" fill="#fff"/><path d="m118.2983 596.8265 1.7252-3.9772c-5.2461-2.2757-7.29-5.9474-7.29-13.0958h-4.335c-.0002 8.8373 3.0531 14.1029 9.8998 17.073z" fill="#fff"/><path d="m131.1768 582.942-2.3233-5.7051-7.6822 18.3146a4.2275 4.2275 0 0 1 -2.9178 2.59c-5.61 1.6991-8.2226 5.6073-8.2226 12.2992v6.6493h16.7935v-2.1676c0-6.01-3.3953-9.7436-8.861-9.7436v4.3352a3.9276 3.9276 0 0 1 4.2963 3.2408h-7.8937v-2.3143c0-4.8055 1.3942-7.0144 5.1442-8.15a8.4311 8.4311 0 0 0 4.5123-3.0615l3.9515 1.6581v8.8068c0 4.6314 2.765 7.3964 7.3964 7.3964v-4.3352c-2.26 0-3.0612-.8011-3.0612-3.0612v-11.689l-6.3414-2.661 3.5436-8.3993 6.5821 2.7544c-1.592 1.6428-3.7791.8914-4.7594.5418l-1.0516-.4224-1.6161 4.0225 1.0911.4383.0791.03c5.1917 1.8541 9.56-.02 11.4-4.89l.74-1.9578z" fill="#fff"/><path d="m547.0018 483.3917a4.1746 4.1746 0 1 0 4.195 4.1746 4.1848 4.1848 0 0 0 -4.195-4.1746zm-4.0029 20.7033a17.3115 17.3115 0 0 1 -1.171 7.4218 48.751 48.751 0 0 0 -2.3867 16.6452h4.3488c.02-6.2091.303-9.8006 2.36-15.8223h1.1862v15.8223h4.1824v-29.942a4.42 4.42 0 0 1 .9352.9641c1.9582 2.7935 1.6059 7.4219.8639 10.5513l3.5741.9056c1.032-4.3513 1.4657-9.8517-1.23-13.6978-3.7682-5.3757-13.5514-5.3757-17.32 0-2.6962 3.8461-2.2624 9.3465-1.2305 13.6978l3.5742-.9056c-.7421-3.1294-1.0944-7.7578.8639-10.5513a4.6476 4.6476 0 0 1 1.386-1.2744l.0031.0452z" fill="#fff"/><path d="m289.173 595.494 6.817-15.216h-1.733l-18.926 19.508 8.469-.039-6.817 15.216h1.732l18.926-19.508z" fill="#fff"/><path d="m379.7769 521.4845-13.9369 4.0612-6.9548-24.1636 4.19-1.1923 5.7455 19.9619 9.7475-2.84 1.2093 4.1732zm-9.8882-31.0045a4.17 4.17 0 1 1 -2.9124 5.1439 4.18 4.18 0 0 1 2.9124-5.1439zm10.4563 18.966a15.9921 15.9921 0 0 1 -8.5656-2.2534 12.5762 12.5762 0 0 0 1.7967 5.36c4.81-1.3909 8.9717-1.5565 12.1556.0847 3.67 1.8916 5.8345 5.9585 5.9079 12.8914h-4.3573c-.0538-5.0827-1.3462-7.8925-3.5434-9.0251-2.3535-1.2131-5.9414-.808-10.31.64a2.1712 2.1712 0 0 1 -2.3421-.6642c-3.49-4.15-4.1458-9.3339-3.6243-14.5663a2.178 2.178 0 0 1 3.9248-1.1455c2.5011 3.3957 4.8454 4.19 8.9581 4.3152v4.3631z" fill="#fff"/><path d="m464.2964 483.3a4.1545 4.1545 0 1 1 -4.1748 4.1546 4.1647 4.1647 0 0 1 4.1748-4.1546z" fill="#fff"/><path d="m463.0918 512.232v15.93h-3.9258s-.027-15.1027 0-20.2746v-8.7432c-2.866 1.9546-3.2 5.4115-2.41 9.7206l-3.5387.7228c-2.5989-8.9934 2.2135-16.3714 11.4552-16.3714 7.2963 0 8.9609-2.4279 8.9542-8.2373h3.9133c.3059 6.0174-2.6164 11.36-8.2365 12.121v31.0621h-4.2835v-15.93z" fill="#fff"/><path d="m226.4109 587.7305a11.13 11.13 0 0 0 -4.0918-6.9969 11.502 11.502 0 0 0 -9.3138-2.42 12.4785 12.4785 0 0 0 -6.7733 3.3565c-.2981.282-.5983.5621-.8985.8441-.2055-.2176-.4129-.4654-.6486-.687a12.485 12.485 0 0 0 -10.3736-3.574 11.0711 11.0711 0 0 0 -5.5725 2.2363 11.3094 11.3094 0 0 0 -4.4121 7.3152 13.1858 13.1858 0 0 0 .88 7.2528 24.0007 24.0007 0 0 0 3.7775 6.1124 68.9985 68.9985 0 0 0 6.5275 6.874c2.0832 1.9562 4.1965 3.88 6.3 5.8123 1.1746 1.0778 2.3612 2.1436 3.56 3.2335.0544-.0463.0907-.0725.1229-.1028q3.841-3.5054 7.6779-7.0089a97.6615 97.6615 0 0 0 7.4442-7.45 30.2179 30.2179 0 0 0 4.15-5.8123 13.7683 13.7683 0 0 0 1.6442-8.9852zm-25.8521 18.9136h-1.0678l4.1986-9.37-5.2159.0241 11.6563-12.0134h1.0658l-4.1985 9.37 5.2159-.0242z" fill="#fff"/><path d="m391.6954 588.22v-14.0126l-14.8824 3.4526v1.6593h-3.753v-1.5332h-4.4343v1.2765a12.7006 12.7006 0 0 0 -10.8911 12.3088h3.3478a9.307 9.307 0 0 1 7.5433-8.9025v2.1083a7.4338 7.4338 0 0 0 -5.1807 6.6443l-.0221 25.8686h14.84l-.0156-25.4776.0051-.1648a7.433 7.433 0 0 0 -5.1924-6.8712v-1.9565h3.7533v1.6943z" fill="#fff"/><path d="m633.1889 495.018a4.15 4.15 0 1 0 -4.15-4.15 4.15 4.15 0 0 0 4.15 4.15z" fill="#fff"/><path d="m624.6437 513.567c2.3433 4.3516 3.0575 7.7617 3.0575 14.595h4.3438c0-7.5792-.869-11.6261-3.577-16.6546z" fill="#fff"/><path d="m638.5168 504.5492c-5.896-.2429-8.0494-2.086-8.9284-7.2682a2.1716 2.1716 0 0 0 -2.9127-1.6671c-5.2 1.9756-7.7794 6.4813-7.8866 13.7747-.0885 6.0621-1.3335 10.744-7.257 15.3469l2.6651 3.43c6.2225-4.8356 8.8117-10.2572 8.9358-18.7135.07-4.789 1.3442-7.1922 2.8836-8.5135 1.6815 5.0868 5.3111 7.5 11.7987 7.9172v19.31h4.3439v-23.6165z" fill="#fff"/><path d="m533.1653 587.7643a8.1581 8.1581 0 0 1 4.5409 3.0083 7.1479 7.1479 0 0 1 6.7791.1622 8.1507 8.1507 0 1 1 -1.52 4.7475 3.2752 3.2752 0 0 0 -3.62-.0077 8.15 8.15 0 1 1 -14.309-5.3383l5.7678-7.3712a7.2071 7.2071 0 0 1 12.887 4.92l-4.8165-.0946c.0636-2.7725-2.8286-3.7075-4.274-1.86l-1.4351 1.834zm22.9135-.91 3.0437-3.89a7.2071 7.2071 0 0 1 12.887 4.92l-4.8165-.0946c.0635-2.7725-2.8287-3.7075-4.274-1.86l-3.0437 3.89-3.7965-2.9653z" fill="#fff" fill-rule="evenodd"/><path d="m473.8866 599.275a19.5109 19.5109 0 0 1 -1.9046 2.5986c-1.2463 1.4956-2.2291 2.6756-2.7725 6.9706a10.039 10.039 0 0 1 -4.2394 6.9888 9.9514 9.9514 0 0 1 -7.9733 1.4938l-.5218-.1255 1.3934-4.5479.2313.0556a5.1392 5.1392 0 0 0 4.1713-.78 5.291 5.291 0 0 0 2.2292-3.68c.7173-5.6706 2.3009-7.5733 3.8324-9.4133a14.76 14.76 0 0 0 1.4758-1.9924c2.9053-4.8708 3.0345-11.8146-2.342-15.6578a10.9847 10.9847 0 0 0 -17.3542 8.7h-4.7488a15.7338 15.7338 0 0 1 24.8648-12.5625c6.8018 4.865 8.3408 14.097 3.6584 21.952zm10.6564-28.7829-3.4538-3.5035-9.0218 8.8936 3.4538 3.5036zm-28.816 28.407-3.4539-3.5036-15.6844 15.4619 3.4538 3.5035zm12.254-9.0141a7.0188 7.0188 0 0 0 -14.0329 0h4.7488l.03-.1937a2.25 2.25 0 0 1 2.091-1.892 2.2793 2.2793 0 1 1 -.1075 4.5408v4.747a7.0622 7.0622 0 0 0 7.2706-7.2021z" fill="#fff"/><path d="m69.0325 591.9155a6.685 6.685 0 0 0 -3.4527-5.6882 6.8435 6.8435 0 0 0 -5.6672-.6734 9.4625 9.4625 0 0 0 -4.4732 3.618 34.5556 34.5556 0 0 0 -35.5875.0069 9.47 9.47 0 0 0 -4.4788-3.6245 6.843 6.843 0 0 0 -5.6679.6722 6.6792 6.6792 0 0 0 -3.4535 5.6849c-.1293 3.4231 2.0065 9.0309 12.9074 16.3117l1.0256.7176a30.5685 30.5685 0 0 0 34.9334 0l.9757-.6827.0022.0034c10.9269-7.2974 13.0661-12.9168 12.9365-16.3459zm-59.1711.1321a3.1038 3.1038 0 0 1 1.6164-2.6738 3.2624 3.2624 0 0 1 2.7279-.4011c1.7725.5947 3.143 2.8517 3.6085 3.8424a15.7133 15.7133 0 0 1 .5987 10.4612c-7.8141-5.8529-8.6077-9.7383-8.5515-11.2287zm43.1858 13.9332a26.9443 26.9443 0 0 1 -30.7917 0l-.75-.5247a19.3356 19.3356 0 0 0 .02-13.0746 30.9824 30.9824 0 0 1 32.2221-.018 18.2937 18.2937 0 0 0 .0217 13.112zm3.798-2.6682a14.7106 14.7106 0 0 1 .6831-10.6126c.5138-1.0434 1.8465-3.155 3.5517-3.727a3.2577 3.2577 0 0 1 2.7259.4017 3.1079 3.1079 0 0 1 1.6169 2.6777c.0564 1.4932-.7386 5.3903-8.5776 11.2602z" fill="#fff"/><path d="m695.5547 525.2919h35.963v3.6112h-35.963z" fill="#fff" transform="matrix(.96982097 -.24381814 .24381814 .96982097 -106.9821 189.8804)"/><path d="m703.9715 503.1267c-.7506-2.9305-.0357-5.4192 1.3744-6.7443a5.188 5.188 0 0 1 4.092-1.4885 25.3226 25.3226 0 0 0 -2.68 7.1481c-.0154.058-1.5228 5.8215-.3176 7.5989a1.9533 1.9533 0 0 0 2.5517.6362c.0447-.0243 4.5711-2.3652 8.4615-.51 2.4416 1.1643 4.2118 3.7812 5.2815 7.7831l3.6592-.9252c-1.343-5.2512-3.7722-8.5542-7.3242-10.248-3.205-1.5283-5.83-1.806-8.0535-1.2662a.3013.3013 0 0 1 -.3656-.343 20.9178 20.9178 0 0 1 3.43-8.6883c.7791-1.1581.8542-1.4021.2461-2.4235l-.1512-.2324a3.0825 3.0825 0 0 0 -.9317-1.0047l.0015-.0028c-2.53-1.9122-7.7769-1.1074-10.5274 1.4773-1.7071 1.6042-3.45 4.6555-2.06 10.0822z" fill="#fff"/><path d="m705.2369 523.7281c.0851 0 .1714-.001.2568-.0027a12.34 12.34 0 0 0 11.9971-10.5644l-3.7157-.5468a8.6293 8.6293 0 1 1 -14.6665-7.3364l-2.67-2.6414a12.3826 12.3826 0 0 0 8.7984 21.0917z" fill="#fff"/><path d="m719.3427 494.5252a4.15 4.15 0 1 0 -4.2338-4.0641 4.15 4.15 0 0 0 4.2338 4.0641z" fill="#fff"/><path d="m637.52 580.9623a7.7511 7.7511 0 0 1 1.19.15l-4.29 3.98a7.36 7.36 0 0 1 -4.37-6.68v-.48h4.82v.48a2.6221 2.6221 0 0 0 2.65 2.55z" fill="#fff"/><path d="m644.78 588.3224v.49h-3.24l2.9-2.68a7.2214 7.2214 0 0 1 .34 2.19z" fill="#fff"/><path d="m629.15 585.961a7.3732 7.3732 0 0 1 -7.3642-7.3652v-.4819h4.8164v.4819a2.5506 2.5506 0 0 0 2.5478 2.5469h.4815v4.8183z" fill="#fff"/><path d="m626.77 592.1824-3.97 3.67a14.6 14.6 0 0 0 -3.41-.36h-3v-4.82h3a16.3937 16.3937 0 0 1 7.38 1.51z" fill="#fff"/><path d="m630.9564 570.309a21.678 21.678 0 1 0 21.6781 21.6777 21.7022 21.7022 0 0 0 -21.6781-21.6777zm0 39.02a17.2281 17.2281 0 0 1 -10.2687-3.3991l10.3726-9.6078a13.9012 13.9012 0 0 1 -.27-2.79v-2.87l-13.2618 12.282a17.3234 17.3234 0 0 1 25.37-23.5014l-10.8485 10.0497h6.38l7.215-6.682a17.3087 17.3087 0 0 1 -14.6889 26.5189z" fill="#e63223"/><path d="m636.2862 591.147v-.0039h-3.8542v2.3931a8.2751 8.2751 0 0 0 1.522 5.32 6.0931 6.0931 0 0 1 -1.8194-1.3238l-3.4244 3.16a11.2255 11.2255 0 0 0 7.56 2.92v-.0037c4.3988-.0024 8.835-3.2975 8.835-10.0724v-2.3893z" fill="#fff"/><path d="m937.4079 87.0812c.8693 5.16 1.8 9.3129 2.44 11.9278h-5.5121l.0342-8.149-.0342-3.4329a13.9238 13.9238 0 0 0 3.0721-.3459z" fill="#fff"/><path d="m964.4944 90.86.0325 8.1492h-22.8219c-.6366-2.5687-1.6309-6.9308-2.555-12.436a16.01 16.01 0 0 0 3.8727-2.0416c1.8687 1.6771 6.4088 6.8965 6.4088 6.8965s4.5418-5.2194 6.4088-6.8965a15.0041 15.0041 0 0 0 8.6866 2.8955z" fill="#fff"/><path d="m956.0887 74.6756c-.2811 5.0926-2.98 9.235-6.6564 9.235s-6.337-4.1447-6.6565-9.235c-.4212-6.7117 2.1962-9.2349 6.6565-9.2349s7.0577 1.9724 6.6564 9.2349z" fill="#fff"/><path d="m732.8947 607.82-19.2478-33.17c-.5279-.91-1.1664-1.4539-1.7064-1.4551s-1.1772.5448-1.7064 1.4551l-19.25 33.1708a1.7563 1.7563 0 0 0 1.7028 2.9582h38.5052a1.7563 1.7563 0 0 0 1.7028-2.9582z" fill="#000002" fill-rule="evenodd"/><path d="m731.1914 613.6649h-38.5043a4.57 4.57 0 0 1 -4.2-7.293l19.2511-33.1711c1.0825-1.8649 2.575-2.8918 4.2025-2.8918 1.6276 0 3.12 1.0273 4.2023 2.8923l19.248 33.1706a4.57 4.57 0 0 1 -4.2 7.293zm-19.2506-40.47c-.54 0-1.1777.5437-1.7064 1.4545l-19.251 33.1709a1.7566 1.7566 0 0 0 1.7037 2.9583h38.5043a1.7566 1.7566 0 0 0 1.7038-2.9584l-19.248-33.1702c-.5286-.9111-1.1664-1.4548-1.7064-1.4549z" fill="#ffd400"/><path d="m712.147 594.782 4.341-9.69h-1.103l-12.054 12.423 5.393-.024-4.341 9.69h1.103l12.054-12.424z" fill="#ffd400"/></svg>