<svg viewBox="0 0 179.7 91.4" xmlns="http://www.w3.org/2000/svg"><g fill="#fff"><path d="m2.2 13.6h8.7l5.3 20.2 5.8-20.2h6.8l5.3 20.2 5.7-20.2h8l-9.5 30h-8.2l-5.1-18.8-5.5 18.8h-8.3z"/><path d="m51.4 0h8.3v18.4c1.5-3 4.8-5.5 9.8-5.5 5.9 0 10.1 3.6 10.1 11.6v19.1h-8.3v-17.9c0-4.1-1.6-6-5.3-6s-6.3 2.2-6.3 6.6v17.3h-8.3z"/><path d="m85.2 13.6h8.3v30h-8.3zm-.6-8.6a4.53 4.53 0 0 1 4.7-4.5 4.47 4.47 0 0 1 4.7 4.5 4.7 4.7 0 0 1 -9.4 0z"/><path d="m100.7 34.7v-15.2h-3.8v-5.9h3.8v-6.5h8.3v6.5h6.3v5.9h-6.3v14.5c0 2.4 1.2 3.6 3.3 3.6a7.94 7.94 0 0 0 3.2-.6v6.4a15 15 0 0 1 -5.1.8c-6.3 0-9.7-3.2-9.7-9.5z"/><path d="m140 25.4c-.3-4.5-2.6-6.7-6.5-6.7-3.7 0-6.3 2.5-6.9 6.7zm-22 3.6v-.5c0-9.5 6.7-15.6 15.4-15.6 7.8 0 14.6 4.5 14.6 15.3v2.3h-21.6c.2 5 2.9 7.9 7.5 7.9 3.8 0 5.7-1.7 6.3-4.2h7.9c-1 6.5-6.1 10.1-14.4 10.1-9.1 0-15.7-5.7-15.7-15.3z"/><path d="m0 71.7h7.8c.3 2.7 1.6 4.3 5.2 4.3 3.2 0 4.7-1.2 4.7-3.3s-1.8-2.9-6.1-3.6c-8-1.2-11.1-3.5-11.1-9.4 0-6.3 5.7-9.4 11.9-9.4 6.7 0 11.7 2.4 12.4 9.3h-7.6c-.5-2.5-1.8-3.6-4.7-3.6-2.7 0-4.2 1.3-4.2 3.1s1.4 2.6 5.8 3.3c7.5 1.1 11.7 3 11.7 9.4s-4.7 9.9-12.6 9.9c-8.2.1-12.9-3.5-13.2-10z"/><path d="m51.7 66.3v-.5c0-6-2.6-9-7.2-9s-7.2 3.2-7.2 9.1v.5c0 6 2.9 8.9 7 8.9 4.4 0 7.4-2.9 7.4-9zm-.2 10a11.13 11.13 0 0 1 -9.6 5.5c-7.3 0-13-5.2-13-15.2v-.5c0-9.9 5.7-15.7 13.2-15.7 4.8 0 7.8 2.1 9.5 5.2v-4.5h8.3v40.3h-8.3v-15.1z"/><path d="m65.4 70.5v-19.4h8.3v18.2c0 4.1 1.7 6 5.2 6s6.3-2.2 6.3-6.6v-17.6h8.3v30h-8.3v-4.7c-1.6 3-4.6 5.3-9.5 5.3-5.9.1-10.3-3.4-10.3-11.2z"/><path d="m116.6 70.7v-2.5h-3.2c-4.8 0-7.6 1-7.6 4.2 0 2.2 1.3 3.6 4.4 3.6 3.6 0 6.4-2 6.4-5.3zm-19 2.1c0-7 6.4-9.6 15.6-9.6h3.4v-1.2c0-3.6-1.1-5.5-4.9-5.5-3.3 0-4.8 1.7-5.1 4.2h-7.9c.5-7.1 6.1-10.3 13.5-10.3s12.6 3 12.6 11.1v19.6h-8.1v-3.6c-1.7 2.4-4.4 4.2-9.1 4.2-5.4.1-10-2.5-10-8.9z"/><path d="m130.5 51.1h8.3v5.7c1.9-4 4.8-6.1 9.7-6.2v7.8c-6.1-.1-9.7 2-9.7 7.7v15h-8.3z"/><path d="m171.6 62.9c-.3-4.5-2.6-6.7-6.5-6.7-3.7 0-6.3 2.5-6.9 6.7zm-22 3.6v-.5c0-9.5 6.7-15.6 15.4-15.6 7.8 0 14.6 4.5 14.6 15.3v2.3h-21.6c.2 5 2.9 7.9 7.5 7.9 3.8 0 5.7-1.7 6.3-4.2h7.9c-1 6.5-6.1 10.1-14.4 10.1-9.1 0-15.7-5.7-15.7-15.3z"/></g></svg>