<svg fill="none" height="2129" viewBox="0 0 1670 2129" width="1670" xmlns="http://www.w3.org/2000/svg"><path d="m0 0h1670v2129h-1670z" fill="#000"/><path d="m1107.06 2025.76c1.57.44 2.96 1.38 3.94 2.69 1.05 1.24 1.63 2.8 1.65 4.43v1.86c.02.66-.11 1.32-.39 1.92-.29.59-.71 1.12-1.23 1.52-.56.43-1.21.72-1.9.83-.69.12-1.41.06-2.07-.17l-14.91-3.99c-1.56-.45-2.93-1.38-3.92-2.67-1.06-1.24-1.65-2.8-1.67-4.43v-1.87c-.04-.67.09-1.35.37-1.96.29-.62.72-1.15 1.26-1.56.56-.41 1.22-.68 1.91-.78.68-.1 1.39-.04 2.05.18zm0 16.79c1.58.44 2.96 1.39 3.94 2.69 1.05 1.24 1.63 2.8 1.65 4.42v1.87c.02.66-.11 1.32-.39 1.92-.29.59-.71 1.12-1.23 1.52-.56.43-1.21.72-1.9.83-.69.12-1.41.06-2.07-.16l-14.91-4c-1.56-.44-2.93-1.38-3.92-2.67-1.06-1.23-1.65-2.8-1.67-4.43v-1.87c-.04-.68.09-1.35.37-1.96.29-.62.72-1.15 1.26-1.56.56-.41 1.22-.68 1.91-.78s1.39-.04 2.05.18zm-1.86 20.04v-2.82c0-.11.02-.22.08-.31.05-.1.12-.18.21-.25s.19-.11.31-.14c.11-.02.22-.01.33.02.25.07.47.21.63.41.2.21.31.48.3.77v2.82l4.67 1.25c.27.07.52.23.7.45.15.21.23.47.22.73-.03.21-.11.42-.22.6-.1.08-.22.12-.34.14s-.25 0-.36-.05l-4.67-1.25v6.53c.01.12-.01.23-.05.34-.05.1-.12.19-.21.27-.09.06-.2.1-.31.12-.11.01-.22 0-.32-.03l-.23-.08-18.64-8.73c-.23-.09-.43-.25-.56-.46l-.18-.64c-.01-.11.01-.22.06-.32.04-.1.11-.2.19-.27.09-.08.2-.13.31-.15.12-.02.24 0 .35.04l.21.07 17.52 8.21v-5.4l-4.68-1.26c-.25-.08-.46-.23-.62-.44-.19-.2-.3-.46-.31-.74-.01-.1.01-.21.06-.31.04-.1.1-.19.18-.26.09-.08.21-.13.33-.15s.24-.01.36.04zm1.86-34.97-14.91-3.99c-.44-.15-.91-.19-1.36-.12-.46.07-.89.24-1.27.51-.36.27-.65.63-.85 1.04-.19.41-.28.87-.25 1.32v1.87c.01 1.07.4 2.11 1.09 2.93.66.88 1.59 1.51 2.64 1.8l14.91 4c.44.14.91.18 1.36.1.46-.07.89-.26 1.26-.53.36-.27.65-.61.84-1.02.2-.4.29-.84.27-1.29v-1.86c-.05-1.09-.44-2.13-1.1-2.98-.67-.85-1.59-1.47-2.63-1.78zm0 16.79-14.91-3.99c-.44-.15-.91-.19-1.36-.12-.46.07-.89.25-1.27.52-.36.27-.65.62-.85 1.04-.19.41-.28.86-.25 1.31v1.87c.02 1.07.4 2.11 1.09 2.94.66.87 1.59 1.5 2.64 1.79l14.91 4c.44.14.91.18 1.36.1.46-.07.89-.25 1.26-.53.36-.26.65-.61.84-1.01.2-.41.29-.85.27-1.3v-1.87c-.05-1.08-.44-2.12-1.11-2.97-.66-.85-1.58-1.47-2.62-1.78z" fill="#fff"/><path d="m1107.06 1897.87c1.58.44 2.96 1.39 3.94 2.7 1.05 1.23 1.63 2.8 1.65 4.41v1.87c.02.66-.11 1.32-.39 1.92-.29.6-.71 1.12-1.23 1.52-.56.43-1.21.72-1.9.83-.69.12-1.4.06-2.07-.16l-14.91-4c-1.56-.44-2.93-1.38-3.92-2.67-1.06-1.24-1.65-2.8-1.67-4.43v-1.87c-.04-.67.09-1.35.37-1.96.29-.62.72-1.15 1.26-1.56.56-.41 1.22-.68 1.91-.78.68-.1 1.39-.04 2.05.18zm0 16.78c1.58.45 2.96 1.4 3.94 2.71 1.05 1.24 1.63 2.79 1.65 4.41v1.87c.02.67-.11 1.32-.4 1.92-.28.6-.7 1.12-1.22 1.52-.56.43-1.21.72-1.9.83-.7.12-1.41.06-2.07-.16l-14.91-4c-1.56-.44-2.93-1.38-3.92-2.67-1.06-1.23-1.65-2.8-1.67-4.43v-1.87c-.04-.67.09-1.35.37-1.96.29-.62.72-1.15 1.26-1.56.56-.41 1.22-.68 1.91-.78s1.39-.04 2.05.18zm-1.86 20.05v-2.82c0-.11.02-.22.08-.31.05-.1.12-.18.21-.24.09-.07.19-.12.3-.15.12-.02.23-.01.34.02.25.07.47.22.63.41.1.1.18.22.23.36.05.13.07.27.07.41v2.82l4.67 1.25c.27.07.52.23.7.45.15.22.23.47.22.73-.03.22-.1.42-.22.6-.1.07-.22.12-.34.14s-.25 0-.36-.05l-4.67-1.25v6.54c.01.11-.01.22-.05.33-.05.1-.12.2-.21.27-.09.06-.2.1-.31.12-.11.01-.22 0-.32-.03l-.23-.08-18.64-8.73c-.23-.09-.43-.25-.56-.46l-.18-.64c-.01-.11.01-.22.06-.32.04-.1.11-.2.19-.27.09-.08.2-.13.31-.15.12-.02.24-.01.35.04l.21.07 17.52 8.21v-5.4l-4.68-1.25c-.25-.09-.46-.24-.62-.45-.19-.2-.3-.46-.31-.74-.01-.1.01-.21.06-.31.04-.1.1-.19.18-.26.09-.08.21-.13.33-.15s.24-.01.36.04zm1.86-34.97-14.91-3.99c-.44-.15-.91-.19-1.36-.12-.46.07-.89.25-1.27.52-.36.27-.65.62-.85 1.03-.19.41-.28.87-.25 1.32v1.87c.01 1.07.4 2.11 1.09 2.93.66.88 1.58 1.51 2.64 1.8l14.91 4c.44.14.91.18 1.36.1.46-.07.89-.25 1.26-.53.36-.26.65-.61.84-1.02.2-.4.29-.84.27-1.29v-1.86c-.05-1.09-.44-2.13-1.1-2.98-.67-.85-1.59-1.47-2.63-1.78zm0 16.79-14.91-3.99c-.44-.15-.91-.19-1.36-.12-.46.07-.89.25-1.27.52-.36.27-.65.63-.85 1.04-.19.41-.28.86-.25 1.31v1.87c.01 1.07.4 2.11 1.09 2.94.66.87 1.58 1.51 2.64 1.8l14.91 3.99c.44.14.91.18 1.36.1.46-.07.89-.25 1.26-.52.36-.27.65-.62.84-1.02.2-.41.29-.85.27-1.3v-1.87c-.05-1.08-.44-2.12-1.11-2.97-.66-.85-1.58-1.47-2.62-1.78z" fill="#fff"/><path d="m1056.75 1407.66c1.57.44 2.96 1.39 3.94 2.7 1.04 1.24 1.63 2.8 1.65 4.42v1.87c.02.66-.12 1.32-.4 1.91-.28.6-.7 1.12-1.22 1.53-.56.43-1.21.71-1.9.83-.69.11-1.4.05-2.07-.17l-14.91-3.99c-1.56-.45-2.94-1.39-3.92-2.68-1.06-1.23-1.66-2.8-1.68-4.43v-1.86c-.03-.67.1-1.35.38-1.96.29-.62.72-1.15 1.26-1.56.56-.41 1.22-.68 1.9-.78.69-.11 1.4-.05 2.06.18zm0 16.79c1.57.45 2.96 1.39 3.94 2.7 1.04 1.24 1.63 2.8 1.65 4.42v1.87c.02.66-.12 1.32-.4 1.91-.28.6-.7 1.13-1.22 1.53-.56.43-1.21.71-1.9.83-.69.11-1.4.06-2.07-.17l-14.91-3.99c-1.56-.45-2.93-1.38-3.92-2.67-1.06-1.24-1.65-2.8-1.68-4.43v-1.87c-.03-.68.1-1.35.38-1.97.29-.61.72-1.15 1.26-1.56.56-.4 1.22-.67 1.9-.77.69-.11 1.4-.05 2.06.18zm0 16.79c1.58.45 2.96 1.39 3.94 2.7 1.04 1.24 1.63 2.8 1.65 4.42v1.87c.02.66-.12 1.32-.4 1.92s-.7 1.12-1.22 1.52c-.56.43-1.21.71-1.9.83-.69.11-1.4.06-2.07-.17l-14.91-3.99c-1.56-.44-2.94-1.38-3.92-2.68-1.06-1.23-1.66-2.79-1.68-4.42v-1.87c-.03-.67.1-1.35.38-1.96.29-.62.72-1.15 1.26-1.56.56-.41 1.22-.68 1.9-.78.69-.11 1.4-.04 2.06.18zm-8.29 27.66c-2.64-.72-5.08-2.06-7.11-3.9-2.28-2-4.01-4.56-5.03-7.41l-.08-.42c0-.11.02-.22.07-.31.06-.1.14-.18.24-.23.1-.06.21-.1.32-.11.12-.01.23 0 .34.03.17.05.33.13.46.25.16.17.3.36.4.58l.13.4.18.46.41.89c.29.58.62 1.13.99 1.66.73 1.07 1.59 2.05 2.55 2.92.78.68 1.62 1.3 2.5 1.85.8.53 1.68.93 2.6 1.21v-5.59c-.05-.68.08-1.36.36-1.99.28-.62.72-1.16 1.26-1.57.57-.4 1.23-.66 1.92-.76s1.39-.03 2.05.19l3.73 1c1.58.44 2.97 1.39 3.96 2.7 1.03 1.23 1.61 2.79 1.63 4.4v1.87c.02.66-.12 1.32-.4 1.92s-.7 1.12-1.22 1.52c-.56.43-1.21.72-1.9.83-.69.12-1.4.06-2.07-.16zm8.29-59.37-14.91-4c-.44-.14-.91-.18-1.36-.11-.46.07-.89.25-1.27.51-.36.27-.66.63-.85 1.04s-.28.87-.25 1.32v1.87c.01 1.07.4 2.11 1.09 2.93.65.88 1.58 1.51 2.64 1.8l14.91 4c.44.14.9.18 1.36.1.45-.07.88-.26 1.25-.53s.66-.62.85-1.02.29-.85.27-1.29v-1.87c-.06-1.08-.44-2.12-1.11-2.97s-1.58-1.47-2.62-1.78zm0 16.79-14.91-4c-.44-.14-.91-.18-1.36-.11-.46.07-.89.24-1.27.51-.36.27-.66.63-.85 1.04s-.28.87-.25 1.32v1.87c.01 1.07.4 2.11 1.09 2.93.65.88 1.58 1.51 2.64 1.8l14.91 3.99c.44.15.9.18 1.36.11.45-.08.88-.26 1.25-.53s.66-.62.85-1.02.29-.85.27-1.29v-1.87c-.06-1.08-.44-2.12-1.11-2.97s-1.58-1.47-2.62-1.78zm0 16.8-14.91-4c-.44-.15-.91-.19-1.36-.12-.46.07-.89.25-1.27.51-.36.27-.66.63-.85 1.04s-.28.87-.25 1.32v1.87c.01 1.07.4 2.11 1.09 2.93.65.88 1.58 1.51 2.64 1.8l14.91 4c.44.14.9.18 1.36.1.45-.07.88-.25 1.25-.53.37-.26.66-.61.85-1.02.19-.4.29-.84.27-1.29v-1.87c-.06-1.08-.44-2.11-1.11-2.96s-1.58-1.48-2.62-1.78zm-7.46 24.14 7.46 2c.44.14.9.18 1.36.1.45-.07.88-.25 1.25-.53.37-.26.66-.61.85-1.02.19-.4.29-.84.27-1.29v-1.86c-.01-1.08-.4-2.12-1.09-2.95-.66-.87-1.58-1.5-2.64-1.79l-3.73-1c-.44-.15-.9-.19-1.36-.12-.46.06-.9.23-1.28.49-.36.27-.65.63-.85 1.04-.19.42-.27.87-.24 1.33z" fill="#fff"/><path d="m1230.1 195.183 12.72-31.917m4.86 15.956v-1.155l-.23-1.159-.24-1.155-.46-1.154-.69-1.155-.69-.927-.7-.926-.92-.927-.93-.694-1.15-.693-.93-.461-1.15-.233-1.39-.461h-3.47l-1.16.461-1.16.233-1.15.461-1.16.693-.92.694-.93.927-.69.926-.7.927-.46 1.155-.46 1.154-.46 1.155-.24 1.159v2.314l.24 1.383.46 1.16.46 1.154.46.927.7 1.155.69.926.93.694.92.694 1.16.693 1.15.466 1.16.461 1.16.233 1.15.228h1.16l1.16-.228 1.39-.233 1.15-.461.93-.466 1.15-.693.93-.694.92-.694.7-.926.69-1.155.69-.927.46-1.154.24-1.16.23-1.383z" stroke="#fff" stroke-miterlimit="10" stroke-width="1.17743"/><path d="m1276.73 164.994-12.12 24.233c-.14.196-.3.376-.48.537l-.61.191c-.22-.001-.44-.08-.62-.224-.07-.091-.12-.201-.14-.319-.03-.118-.01-.239.03-.351l.1-.242 11.55-23.098h-9.12l-.49 1.848c-.07.279-.23.528-.45.708-.22.149-.47.227-.73.223-.21-.035-.42-.111-.6-.223-.07-.099-.12-.217-.14-.342-.01-.124 0-.251.05-.366l.75-2.775c.04-.274.19-.522.41-.694s.49-.257.77-.237h11.22c.12-.011.24.004.35.045.1.04.2.104.28.188.07.086.11.189.13.298.02.11.01.221-.03.324zm.74 11.085c.73-2.646 2.07-5.084 3.91-7.118 2-2.281 4.56-4.012 7.42-5.027l.41-.071c.11-.008.22.015.31.067.1.053.18.131.23.227.06.101.1.212.11.327.01.116 0 .232-.03.343-.05.17-.13.327-.25.456-.17.168-.37.303-.58.4l-.39.128-.46.19-.91.409c-.57.289-1.12.618-1.65.983-1.07.732-2.05 1.589-2.91 2.552-.69.785-1.31 1.622-1.86 2.504-.53.8-.93 1.675-1.2 2.595h5.58c.68-.045 1.37.08 1.99.363.62.282 1.16.714 1.57 1.257.4.571.66 1.228.76 1.919.09.69.03 1.393-.2 2.053l-.99 3.726c-.44 1.581-1.39 2.973-2.7 3.958-1.23 1.038-2.79 1.616-4.4 1.635h-1.87c-.66.022-1.32-.114-1.92-.396s-1.12-.701-1.52-1.225c-.43-.555-.72-1.207-.83-1.899-.12-.693-.06-1.403.16-2.069zm1.65.827-2 7.455c-.14.439-.18.906-.1 1.362.07.455.25.886.53 1.257.26.36.61.65 1.02.844.4.194.84.286 1.29.268h1.86c1.08-.011 2.12-.394 2.95-1.084.87-.66 1.5-1.591 1.79-2.647l1-3.725c.14-.438.19-.904.12-1.362-.06-.457-.23-.894-.49-1.275-.27-.367-.63-.66-1.04-.851-.42-.191-.87-.274-1.33-.242z" fill="#fff"/><path d="m1230.1 45.5424 12.72-31.9174m4.86 15.9611v-1.1547l-.23-1.1594-.24-1.3875-.46-.9266-.69-1.1547-.69-.9266-.7-.9266-.92-.9218-.93-.6937-1.15-.6938-.93-.4609-1.15-.4657-1.39-.2328h-3.47l-1.16.2328-1.16.4657-1.15.4609-1.16.6938-.92.6937-.93.9218-.69.9266-.7.9266-.46 1.1547-.46.9266-.46 1.3875-.24 1.1594v2.3094l.24 1.1594.46 1.1547.46 1.1546.46 1.1547.7.9266.69.9266.93.9266.92.6937 1.16.6938 1.15.4609 1.16.4657 1.16.2328h3.47l1.39-.2328 1.15-.4657.93-.4609 1.15-.6938.93-.6937.92-.9266.7-.9266.69-.9266.69-1.1547.46-1.1546.24-1.1547.23-1.1594z" stroke="#fff" stroke-miterlimit="10" stroke-width="1.17743"/><path d="m1260.69 26.3635c.72-2.6442 2.06-5.0809 3.9-7.1133 2-2.2804 4.55-4.0109 7.41-5.0274l.42-.076c.11-.0059.22.0189.31.0718.1.0529.18.1317.23.2276.06.1009.1.2124.11.3276s0 .2318-.04.3424c-.04.1681-.12.3239-.24.4561-.17.1659-.37.3009-.59.3992l-.39.1283-.46.1901-.9.4086c-.57.2896-1.12.6182-1.65.9836-1.07.7303-2.05 1.5853-2.92 2.5469-.68.7884-1.3 1.627-1.85 2.509-.53.8001-.93 1.6746-1.2 2.5944h5.58c.68-.0443 1.36.0805 1.98.3632.63.2827 1.17.7146 1.58 1.2572.4.5709.66 1.2274.76 1.9165.09.6891.03 1.3917-.19 2.0512l-1 3.7301c-.44 1.5816-1.39 2.9737-2.7 3.9582-1.24 1.0367-2.79 1.6142-4.41 1.6346h-1.86c-.66.0211-1.32-.1152-1.92-.3977-.6-.2826-1.12-.7033-1.52-1.2274-.43-.5542-.72-1.2062-.83-1.8978-.12-.6915-.06-1.4011.16-2.0652zm1.64.8268-2 7.4603c-.14.4388-.18.9055-.1 1.3611.07.4555.26.8866.53 1.2571.26.3608.61.651 1.01.845.41.194.85.2857 1.3.2669h1.86c1.08-.0096 2.12-.3925 2.94-1.0834.88-.6589 1.51-1.5899 1.8-2.6467l.99-3.7301c.15-.438.19-.9041.13-1.3616-.06-.4576-.23-.8942-.49-1.2757-.27-.3662-.63-.6583-1.05-.8493-.41-.191-.86-.2748-1.32-.2436zm26.02 7.4603c-.45 1.575-1.4 2.9607-2.7 3.9439-1.24 1.0422-2.8 1.6246-4.42 1.6489h-1.87c-.66.0211-1.32-.1152-1.92-.3977-.59-.2826-1.12-.7033-1.52-1.2274-.43-.5551-.72-1.208-.83-1.9003-.12-.6923-.06-1.4025.16-2.0674l4-14.9157c.44-1.5578 1.38-2.9297 2.67-3.9107 1.23-1.0607 2.8-1.6544 4.43-1.6774h1.87c.68-.037 1.35.0922 1.97.3764.61.2842 1.14.7146 1.55 1.2535.41.5642.68 1.2181.78 1.9068s.04 1.3922-.18 2.0514zm-1.87 0 3.99-14.9157c.15-.4376.19-.9036.12-1.3596s-.25-.889-.52-1.2634c-.27-.3642-.62-.6555-1.03-.8479-.42-.1924-.87-.2798-1.32-.2545h-1.87c-1.07.0168-2.11.4026-2.94 1.0929-.87.6568-1.5 1.5817-1.79 2.6325l-4 14.9157c-.14.4388-.18.9055-.1 1.361.07.4556.25.8866.53 1.2572.26.3605.61.6504 1.02.8443.4.194.84.2858 1.29.2676h1.87c1.06-.0205 2.09-.395 2.91-1.0644.9-.6523 1.55-1.5933 1.84-2.6657z" fill="#fff"/><path d="m1245.08 2000.52c-.72 2.64-2.06 5.08-3.9 7.11-2 2.28-4.55 4.01-7.4 5.03l-.42.08c-.21-.04-.4-.14-.55-.28-.06-.11-.09-.22-.1-.34s0-.24.03-.35c.05-.18.13-.36.25-.5.15-.18.36-.3.58-.35.6-.21 1.18-.45 1.74-.73l.83-.45.29-.16.54-.38c1.07-.73 2.05-1.58 2.92-2.55.67-.8 1.29-1.64 1.85-2.52.53-.79.93-1.66 1.2-2.57h-5.58c-.68.04-1.36-.08-1.98-.37-.62-.28-1.16-.71-1.57-1.26-.4-.57-.66-1.23-.75-1.92-.1-.69-.04-1.39.19-2.05l1-3.73c.44-1.56 1.38-2.93 2.67-3.91 1.24-1.06 2.81-1.66 4.44-1.68h1.87c.67-.04 1.35.09 1.97.38.61.29 1.15.72 1.56 1.26.4.52.66 1.14.75 1.79l.02.99-.07.59-.16.58zm-1.64-.83 2-7.46c.14-.44.19-.9.13-1.36-.07-.46-.24-.89-.5-1.28-.27-.36-.63-.65-1.04-.84-.42-.19-.87-.27-1.33-.24h-1.85c-1.08.01-2.12.39-2.95 1.08-.87.66-1.5 1.59-1.79 2.64l-.99 3.73c-.15.44-.18.91-.11 1.36.07.46.25.89.53 1.26.26.36.61.65 1.01.84.41.2.85.29 1.3.27zm14.76 7.46c-.44 1.57-1.38 2.96-2.69 3.94-1.23 1.04-2.77 1.62-4.38 1.65h-4.68c-.11.01-.23-.01-.34-.05-.11-.05-.2-.12-.27-.21-.06-.1-.09-.22-.1-.33-.02-.12 0-.24.03-.35.09-.21.22-.4.39-.56.09-.12.22-.21.35-.27.14-.07.29-.1.44-.1h4.68c1.07-.01 2.1-.39 2.92-1.08.87-.66 1.5-1.59 1.79-2.64l1-3.73c.15-.44.19-.91.13-1.36-.07-.46-.24-.89-.51-1.27-.27-.36-.62-.65-1.03-.84-.41-.18-.86-.27-1.3-.24h-4.68c-.63 0-.86-.31-.69-.94l3-11.2c.05-.27.19-.52.41-.69s.49-.26.77-.24h9.33c.11 0 .22.03.31.08.1.05.18.13.24.22.07.09.12.19.14.3.03.11.02.23-.01.33-.07.25-.21.47-.41.64-.21.19-.48.3-.77.3h-8.39l-2.5 9.33h3.74c.68-.04 1.35.09 1.96.38s1.14.72 1.54 1.26c.4.57.66 1.22.76 1.9s.04 1.38-.17 2.04zm16.36-16.78h2.22c.11 0 .22.03.31.08.1.05.18.13.24.22.07.09.12.19.14.3s.02.22-.01.33c-.07.25-.22.47-.41.64-.21.19-.49.3-.77.29h-2.21l.54 2.4c.03.15.02.3-.01.45-.08.26-.25.48-.47.64-.21.16-.47.26-.74.26-.25 0-.47-.18-.68-.52l-.47-2.07-1.58 2.05c-.1.16-.24.29-.41.39-.17.09-.36.14-.55.15-.11.01-.23-.01-.34-.05-.11-.05-.2-.12-.28-.21-.07-.09-.12-.2-.14-.31-.01-.12 0-.23.04-.34.04-.16.12-.32.22-.45l1.84-2.39h-2.22c-.12.01-.24-.01-.34-.05-.11-.05-.21-.12-.28-.21-.06-.1-.09-.21-.1-.33-.01-.11 0-.23.04-.34.09-.21.22-.41.38-.57.1-.11.22-.2.36-.27.14-.06.29-.09.44-.09h2.22l-.56-2.39c-.02-.14-.02-.3.01-.44.08-.25.23-.47.44-.62.22-.18.49-.28.77-.28.25 0 .47.17.68.53l.48 2.04 1.57-2.03c.11-.16.25-.29.42-.39.17-.09.36-.14.55-.15.12-.01.23.01.34.06s.2.12.28.2c.07.1.11.2.13.31.02.12.01.23-.03.34-.05.16-.12.32-.23.45z" fill="#fff"/><path d="m1232.17 2061.92 12.73-32.15m4.86 15.96v-1.15l-.23-1.16-.47-1.15-.46-1.16-.46-1.16-.7-.92-.69-.93-.93-.93-.92-.69-1.16-.46-1.16-.7-1.15-.23-1.16-.23-1.15-.23h-1.16l-1.16.23-1.39.23-1.15.23-.93.7-1.16.46-.92.69-.92.93-.7.93-.69.92-.7 1.16-.46 1.16-.23 1.15-.23 1.16v2.54l.23 1.16.23 1.15.46 1.16.7.92.69 1.16.7.92.92.7.92.92 1.16.47.93.46 1.15.46 1.39.23 1.16.23h1.16l1.15-.23 1.16-.23 1.15-.46 1.16-.46 1.16-.47.92-.92.93-.7.69-.92.7-1.16.46-.92.46-1.16.47-1.15.23-1.16z" stroke="#fff" stroke-miterlimit="10" stroke-width="1.17743"/><path d="m1266.7 2055.61c-.07.28-.23.53-.45.71-.22.15-.47.23-.74.22-.21-.03-.41-.11-.59-.22-.08-.1-.13-.22-.14-.34-.02-.13 0-.25.05-.37l5.9-22-5.07 4.01c-.2.17-.45.27-.71.28-.12.01-.23-.01-.34-.06-.1-.05-.19-.13-.26-.22s-.11-.21-.13-.33c-.02-.11-.01-.23.03-.35.12-.23.27-.44.45-.63l7.08-5.61c.2-.16.45-.26.71-.26.11-.01.22.01.32.06.11.04.2.11.27.19.08.09.13.2.15.32.02.11.01.23-.03.34zm15.58.93h-11.16c-.12 0-.23-.03-.33-.08-.1-.06-.18-.13-.25-.22-.06-.11-.09-.23-.1-.35s0-.24.04-.36c.04-.17.12-.32.24-.44l14.4-15.48.58-.73.46-.65c.26-.43.46-.9.59-1.38.18-.54.21-1.12.09-1.68s-.38-1.08-.77-1.5c-.36-.42-.82-.75-1.33-.96-.55-.24-1.14-.37-1.74-.37-.91.02-1.81.26-2.59.72-1.01.6-1.85 1.44-2.47 2.44-.1.18-.25.33-.43.45-.18.07-.37.13-.56.16-.12 0-.23-.02-.34-.06s-.2-.11-.28-.19c-.08-.09-.12-.2-.14-.32-.02-.11-.01-.23.03-.34l.14-.34c.82-1.39 1.97-2.56 3.36-3.4 1.11-.66 2.39-1.01 3.69-1.01.8-.04 1.61.11 2.35.43.74.31 1.4.79 1.94 1.39.55.61.93 1.35 1.1 2.16.17.8.13 1.64-.13 2.42-.17.62-.42 1.23-.76 1.78-.44.72-.94 1.39-1.51 2.01l-13.03 14.04h9.41c.11 0 .22.02.31.07.1.06.18.13.24.22.07.09.12.19.14.3.03.11.02.23-.01.33-.07.25-.22.47-.41.64-.1.09-.22.17-.36.22-.13.06-.27.08-.41.08zm19.27-5.59c-.45 1.57-1.39 2.96-2.7 3.94-1.24 1.04-2.8 1.63-4.42 1.65h-1.86c-.67.02-1.32-.12-1.92-.4s-1.12-.7-1.52-1.23c-.43-.55-.72-1.2-.83-1.9-.12-.69-.06-1.4.16-2.06l4-14.91c.44-1.56 1.38-2.94 2.67-3.92 1.23-1.06 2.8-1.65 4.43-1.67h1.86c.68-.04 1.35.09 1.97.37.61.28 1.14.71 1.55 1.25.41.57.68 1.22.78 1.91.11.69.04 1.4-.18 2.06zm-1.87 0 4-14.91c.14-.44.18-.91.11-1.37-.07-.45-.24-.89-.51-1.26s-.63-.66-1.04-.85-.86-.28-1.32-.25h-1.86c-1.08.01-2.12.4-2.94 1.09-.87.65-1.51 1.58-1.8 2.64l-3.99 14.91c-.15.44-.18.9-.11 1.36.08.45.26.88.54 1.25.26.37.61.66 1.01.85s.84.28 1.29.27h1.87c1.08-.05 2.12-.44 2.97-1.11s1.47-1.59 1.78-2.62z" fill="#fff"/><g stroke="#fff"><path d="m1177.83 199.345-13.18 2.543v-5.318z" stroke-miterlimit="10" stroke-width="1.17743"/><path d="m1202.58 199.345 13.18-2.775v5.318z" stroke-miterlimit="10" stroke-width="1.17743"/><path d="m1209.98 2065.88-13.18 2.54v-5.08z" stroke-miterlimit="10" stroke-width="1.17743"/><path d="m1170.66 2065.88 12.95-2.54v5.08z" stroke-miterlimit="10" stroke-width="1.17743"/><path d="m1206.97 2022.15-13.18 2.54v-5.31z" stroke-miterlimit="10" stroke-width="1.17743"/><path d="m1173.44 2022.15 13.18-2.77v5.31z" stroke-miterlimit="10" stroke-width="1.17743"/><path d="m1200.04 49.4641 13.18-2.5422v5.3172z" stroke-miterlimit="10" stroke-width="1.17743"/><path d="m1180.37 49.4641-13.18 2.775v-5.3172z" stroke-miterlimit="10" stroke-width="1.17743"/><path d="m1071.44 148.453 2.54 13.181h-5.09z" stroke-miterlimit="10" stroke-width="1.17743"/><path d="m1071.44 2115.38-2.55-12.96h5.09z" stroke-miterlimit="10" stroke-width="1.17743"/><path d="m1121.86 1853.07 2.54 13.18h-5.32z" stroke-miterlimit="10" stroke-width="1.17743"/><path d="m1121.86 1984.22-2.78-12.95h5.32z" stroke-miterlimit="10" stroke-width="1.17743"/><path d="m1121.86 1984.23 2.54 13.18h-5.32z" stroke-miterlimit="10" stroke-width="1.17743"/><path d="m1121.86 2115.38-2.78-12.96h5.32z" stroke-miterlimit="10" stroke-width="1.17743"/><path d="m1190.35 2125.16v-2055.66" stroke-dasharray="99.83 6.66 6.66 6.66" stroke-linecap="round" stroke-linejoin="round" stroke-width="1.17743"/><path d="m1177.83 199.352h-19.66" stroke-linecap="round" stroke-linejoin="round" stroke-width="1.17743"/><path d="m1202.58 199.352h-24.75" stroke-linecap="round" stroke-linejoin="round" stroke-width="1.17743"/><path d="m1202.58 199.352h86.04" stroke-linecap="round" stroke-linejoin="round" stroke-width="1.17743"/><path d="m1209.98 2065.86h115.98" stroke-linecap="round" stroke-linejoin="round" stroke-width="1.17743"/><path d="m1170.66 2065.86h39.32" stroke-linecap="round" stroke-linejoin="round" stroke-width="1.17743"/><path d="m1206.97 2022.16h114.49" stroke-linecap="round" stroke-linejoin="round" stroke-width="1.17743"/><path d="m1173.44 2022.16h33.53" stroke-linecap="round" stroke-linejoin="round" stroke-width="1.17743"/><path d="m1206.97 1967.81v60.83" stroke-linecap="round" stroke-linejoin="round" stroke-width="1.17743"/><path d="m1173.44 1968.03v60.6" stroke-linecap="round" stroke-linejoin="round" stroke-width="1.17743"/><path d="m1200.04 49.4766h88.58" stroke-linecap="round" stroke-linejoin="round" stroke-width="1.17743"/><path d="m1180.37 49.4766h19.66" stroke-linecap="round" stroke-linejoin="round" stroke-width="1.17743"/><path d="m1180.37 49.4766h-19.66" stroke-linecap="round" stroke-linejoin="round" stroke-width="1.17743"/><path d="m1200.04 88.3158v-45.3314" stroke-linecap="round" stroke-linejoin="round" stroke-width="1.17743"/><path d="m1180.37 88.3158v-45.3314" stroke-linecap="round" stroke-linejoin="round" stroke-width="1.17743"/><path d="m1071.44 2115.39v-1966.89" stroke-linecap="round" stroke-linejoin="round" stroke-width="1.17743"/><path d="m1177.83 148.453h-112.87" stroke-linecap="round" stroke-linejoin="round" stroke-width="1.17743"/><path d="m1153.31 2115.38h-88.35" stroke-linecap="round" stroke-linejoin="round" stroke-width="1.17743"/><path d="m1121.86 1984.21v-131.14" stroke-linecap="round" stroke-linejoin="round" stroke-width="1.17743"/><path d="m1189.62 1853.07h-74.47" stroke-linecap="round" stroke-linejoin="round" stroke-width="1.17743"/><path d="m1189.62 1984.23h-74.47" stroke-linecap="round" stroke-linejoin="round" stroke-width="1.17743"/><path d="m1121.86 2115.37v-131.14" stroke-linecap="round" stroke-linejoin="round" stroke-width="1.17743"/><path d="m1189.62 1984.23h-74.47" stroke-linecap="round" stroke-linejoin="round" stroke-width="1.17743"/><path d="m1153.31 2115.38h-38.16" stroke-linecap="round" stroke-linejoin="round" stroke-width="1.17743"/></g><path d="m1177.83 199.345-13.18 2.543v-5.318" fill="#fff"/><path d="m1202.58 199.345 13.18-2.775v5.318" fill="#fff"/><path d="m1209.98 2065.88-13.18 2.54v-5.08" fill="#fff"/><path d="m1170.66 2065.88 12.95-2.54v5.08" fill="#fff"/><path d="m1206.97 2022.15-13.18 2.54v-5.31" fill="#fff"/><path d="m1173.44 2022.15 13.18-2.77v5.31" fill="#fff"/><path d="m1200.04 49.4641 13.18-2.5422v5.3172" fill="#fff"/><path d="m1180.37 49.4641-13.18 2.775v-5.3172" fill="#fff"/><path d="m1071.44 148.453 2.54 13.181h-5.09" fill="#fff"/><path d="m1071.44 2115.38-2.55-12.96h5.09" fill="#fff"/><path d="m1121.86 1853.07 2.54 13.18h-5.32" fill="#fff"/><path d="m1121.86 1984.22-2.78-12.95h5.32" fill="#fff"/><path d="m1121.86 1984.23 2.54 13.18h-5.32" fill="#fff"/><path d="m1121.86 2115.38-2.78-12.96h5.32" fill="#fff"/><path d="m1212.06 2104.98h-43.71m-11.57 7.4h66.84m-21.04-1963.887h-24.75m12.49 1704.837h-.23m.23 0v-.23m.23.23h-.23m-.23 130.91h.23m0 0h.23m-.93 0h1.16m-17.34-114.72v98.53m0-98.53.23-1.84v-1.63l.46-1.85.23-1.62.69-1.62.7-1.61.69-1.16 1.16-1.16 1.16-1.15 1.61-1.16 2.08-.69 2.09-.47 2.31-.23h1.39l1.38-.23m0 0h1.16m0 0 1.85.23h1.62l1.85.23 1.62.47 1.62.46 1.39.69 1.61 1.16 1.39 1.62 1.16 1.85.92 1.85.47 2.31.46 2.31.23 1.62v1.62m0 98.53v-98.53m0 98.53v1.62l-.23 1.85-.23 1.85-.46 1.62-.7 1.62-.69 1.62-.7 1.15-.92 1.16-1.16 1.15-1.84.94-2.09.92-2.08.46-2.31.23h-2.78m-1.16 0h-3.46l-1.85-.23-1.62-.46-1.62-.46-1.39-.69-1.62-1.39-1.39-1.39-1.15-1.86-.7-1.84-.69-2.32-.46-2.54v-1.39l-.23-1.62m-3.01 136h39.55m10.64 8.79h-60.6m60.6 2.54h-60.6m-6.71-2.54h6.71m-6.71 2.54v-2.54m6.71 2.54h-6.71m6.71-2.54v2.54m60.6-2.54h6.47m-6.47 2.54v-2.54m6.47 2.54h-6.47m6.47-2.54v2.54m-37.23-131.14h.92m0 0h3.47l1.85-.23 1.62-.46 1.62-.46 1.39-.69 1.61-1.39 1.39-1.39 1.16-1.86.92-1.84.47-2.32.46-2.54.23-1.62v-1.62m0-98.3v98.3m-17.11-114.49h.92m-.92 0h-3.7l-1.62.23-1.85.47-1.39.46-1.62.69-1.62 1.39-1.39 1.39-1.15 1.85-.7 1.85-.69 2.31-.46 2.55v3m0 0v98.3m0 0v1.85l.23 1.85.23 1.85.46 1.62.46 1.62.7 1.39.69 1.38 1.16 1.16 1.16 1.15 1.85.94 1.84.92 2.09.46 2.31.23h3.01m17.11-114.72-.23-2.54-.23-1.39v-1.39l-.46-1.16-.24-1.38-.46-1.16-.69-1.15-.46-.93-.7-.92-.92-.7-.93-.92-1.61-.93-2.09-.92-2.08-.47-2.31-.23h-2.78m-2.08 126.05-.46-.69-.23-.69.23-.7.23-.69.46-.69.69-.24.7-.22.69.22.46.24.47.69.46.69v.7l-.23.69-.46.69-.7.47-.69.23-.7-.23-.46-.23zm0-117.95-.46-.7-.23-.69.23-.69.23-.7.46-.69.69-.23.7-.23.69.23.46.23.47.69.46.7v.69l-.23.69-.46.7-.7.46-.69.23-.7-.23-.46-.23zm1.16 117.03h.69m0 0v-.23h.23v-.47m-1.16 0v.47h.24v.23m.23-.7h-.47m.93 0h.23m0 0v-.46h-.23m0 0v-.23h-.46l-.23.23m0 0h-.24v.46m1.16.47-.46.23m0 0-.7-.23m0 0v-.93m0 0 .7-.23m0 0 .46.23m0 0v.93m1.39-.47v-.46l-.23-.46-.47-.46-.23-.24-.46-.22h-.92l-.47.22-.46.24-.23.46-.23.46-.23.46m0 0 .23.47.23.46.23.47.46.22.47.24h.92l.46-.24.23-.22.47-.47.23-.46v-.47m-1.62-117.49h.23v-.46m-.92.46h.23v.23h.23l.23-.23m-.93-.46v.46h.24m.23-.46h-.47m.93 0h.23m0 0v-.46h-.23v-.24m0 0h-.69m0 0v.24h-.24v.46m1.16.23-.46.46m0 0-.7-.46m0 0v-.69m0 0 .7-.24m0 0 .46.24m0 0v.69m1.39-.23v-.46l-.23-.47-.47-.46-.23-.23-.46-.23h-.92l-.47.23-.46.23-.23.46-.23.47-.23.46m0 0 .23.46.23.46.23.47.46.23.47.23h.92l.46-.23.23-.23.47-.47.23-.46v-.46m-11.8-1771.4506h9.95m0 0h9.72m-21.28 59.2116h11.56m0 0h11.33m-23.82.922v213.248m24.75 0v-213.248m-31.92 1606.307v349.25m39.32 0v-349.25m-32.15-1393.058-7.17 1393.058m39.32 0-7.4-1393.058m9.48 1743.238-.23-.23h-.23l-.23-.24-.23-.23h-.7l-.23-.23h-.23m-39.55 0h-.24l-.22.23h-.7l-.23.23-.23.24h-.23l-.23.23m0 0-11.57 7.4m66.84 0-11.56-7.4m13.42 7.86h-.7l-.24-.23h-.45l-.23-.23h-.24m-66.84 0h-.23l-.23.23h-.47l-.22.23h-.7m25.44-2024.4801v59.2111m19.67 0v-59.2111m-21.28 59.2111v.922m22.89 0v-.922m-11.33 1830.429h-.23v-.46h.23l.23.22zm0 0v-.46h-.23v.46zm0-117.96h-.23v-.46h.46v.23zm0-.23v-.23h-.23v.23z" stroke="#fff" stroke-linecap="round" stroke-linejoin="round" stroke-width="1.63796"/><path d="m770.363 2025.8c1.581.44 2.971 1.39 3.953 2.71 1.049 1.24 1.635 2.81 1.659 4.43v1.88c.021.66-.115 1.32-.397 1.92-.283.6-.704 1.12-1.228 1.53-.558.43-1.214.72-1.91.84-.695.11-1.409.06-2.077-.17l-14.963-4.01c-1.564-.45-2.941-1.39-3.925-2.69-1.065-1.23-1.661-2.8-1.682-4.43v-1.88c-.038-.68.092-1.36.377-1.97.285-.62.716-1.16 1.257-1.57.567-.4 1.223-.67 1.913-.78.691-.1 1.397-.04 2.06.18zm0 16.85c1.581.44 2.971 1.39 3.953 2.71 1.051 1.24 1.637 2.81 1.659 4.44v1.87c.02.66-.116 1.32-.399 1.92-.282.6-.702 1.13-1.226 1.53-.559.43-1.215.72-1.911.83-.696.12-1.409.06-2.076-.17l-14.963-4.01c-1.563-.44-2.94-1.38-3.925-2.67-1.065-1.24-1.66-2.81-1.682-4.45v-1.88c-.038-.67.091-1.35.376-1.96.285-.62.717-1.15 1.258-1.56.565-.41 1.221-.68 1.912-.79.691-.1 1.398-.04 2.061.18zm-1.872 20.11v-2.83c-.001-.11.026-.22.079-.31.052-.1.128-.18.22-.24.089-.07.194-.12.305-.14.112-.03.227-.02.336.01.246.07.464.22.632.41.197.21.304.49.3.78v2.82l4.68 1.26c.283.07.534.23.713.45.151.22.229.47.223.74-.032.21-.108.41-.223.59-.1.08-.218.13-.344.14-.125.02-.252 0-.369-.04l-4.68-1.26v6.56c.009.11-.009.23-.055.33-.045.11-.117.2-.207.27-.091.07-.196.11-.307.13-.11.01-.223 0-.329-.03l-.224-.08-18.703-8.76c-.233-.09-.43-.26-.56-.47l-.185-.63c-.005-.12.014-.23.057-.33s.107-.2.189-.27c.092-.08.202-.13.319-.15.116-.01.236 0 .347.04l.209.07 17.577 8.23v-5.41l-4.69-1.26c-.247-.08-.462-.24-.618-.45-.195-.2-.309-.46-.319-.74-.002-.11.019-.21.061-.31s.104-.18.182-.26c.094-.08.208-.13.33-.15.123-.02.248-.01.364.04zm1.872-35.08-14.963-4.02c-.441-.14-.908-.18-1.366-.11s-.893.24-1.272.51c-.364.27-.656.63-.849 1.05-.192.41-.279.86-.253 1.32v1.88c.013 1.07.4 2.11 1.093 2.94.66.87 1.59 1.51 2.647 1.81l14.963 4c.44.15.908.18 1.365.11.458-.08.89-.26 1.262-.53.362-.27.652-.62.846-1.03.194-.4.285-.85.266-1.29v-1.88c-.02-1.06-.394-2.09-1.064-2.92-.655-.9-1.599-1.55-2.675-1.84zm0 16.84-14.963-4.01c-.441-.14-.909-.18-1.367-.11-.459.07-.894.25-1.271.52-.365.27-.657.63-.849 1.04-.193.41-.28.86-.253 1.32v1.88c.015 1.07.401 2.11 1.093 2.94.659.88 1.59 1.51 2.647 1.8l14.963 4.01c.44.14.909.18 1.366.1.457-.07.89-.25 1.261-.53.361-.26.652-.61.846-1.02.194-.4.285-.85.266-1.29v-1.88c-.02-1.06-.394-2.1-1.064-2.93-.657-.9-1.6-1.55-2.675-1.84z" fill="#fff"/><path d="m770.363 1898.4c1.581.44 2.971 1.4 3.953 2.71 1.049 1.24 1.635 2.81 1.659 4.43v1.88c.021.66-.115 1.32-.397 1.92-.283.6-.704 1.13-1.228 1.53-.558.43-1.214.72-1.91.84-.695.11-1.409.06-2.077-.17l-14.963-4.01c-1.564-.45-2.941-1.39-3.925-2.68-1.065-1.24-1.661-2.81-1.682-4.44v-1.88c-.038-.68.092-1.35.377-1.97s.716-1.15 1.257-1.56c.567-.41 1.223-.68 1.913-.79.691-.1 1.397-.04 2.06.18zm0 16.85c1.581.44 2.971 1.39 3.953 2.71 1.051 1.24 1.637 2.81 1.659 4.44v1.87c.02.66-.116 1.32-.399 1.92-.282.6-.702 1.13-1.226 1.54-.559.43-1.215.71-1.911.83-.696.11-1.409.05-2.076-.17l-14.963-4.01c-1.563-.45-2.94-1.39-3.925-2.68-1.065-1.24-1.66-2.81-1.682-4.45v-1.87c-.038-.68.091-1.36.376-1.97.285-.62.717-1.15 1.258-1.56.565-.41 1.221-.68 1.912-.79.691-.1 1.398-.04 2.061.18zm-1.872 20.12v-2.84c-.001-.11.026-.21.079-.31.052-.1.128-.18.22-.24.089-.07.194-.12.305-.14.112-.03.227-.02.336.01.246.08.464.22.632.41.197.21.304.49.3.78v2.83l4.68 1.25c.283.07.534.23.713.46.151.21.229.47.223.73-.032.21-.108.41-.223.59-.1.08-.218.13-.344.15-.125.01-.252 0-.369-.05l-4.68-1.26v6.56c.009.11-.009.23-.055.33-.045.11-.117.2-.207.27-.091.07-.196.11-.307.13-.11.01-.223 0-.329-.03l-.224-.08-18.703-8.76c-.233-.09-.43-.26-.56-.47l-.185-.63c-.005-.11.014-.23.057-.33s.107-.2.19-.27c.091-.08.201-.12.318-.14.116-.02.236-.01.347.03l.209.07 17.577 8.24v-5.42l-4.69-1.26c-.247-.08-.462-.24-.618-.45-.195-.2-.309-.46-.319-.74-.002-.1.019-.21.061-.31.042-.09.104-.18.182-.25.094-.09.208-.14.33-.16.123-.02.248-.01.364.04zm1.872-35.09-14.963-4.02c-.441-.14-.908-.18-1.366-.11s-.893.25-1.272.51c-.364.28-.656.64-.849 1.05-.192.41-.279.87-.253 1.32v1.88c.013 1.07.4 2.11 1.093 2.94.659.88 1.589 1.51 2.647 1.8l14.963 4.01c.44.15.908.18 1.365.11.458-.08.89-.26 1.262-.53.362-.27.652-.62.846-1.02.194-.41.285-.85.266-1.3v-1.87c-.02-1.07-.394-2.1-1.064-2.93-.655-.9-1.6-1.55-2.675-1.84zm0 16.84-14.963-4.01c-.441-.14-.909-.18-1.367-.11-.459.07-.894.25-1.271.52-.365.27-.657.63-.85 1.04-.192.41-.279.87-.252 1.32v1.88c.015 1.07.401 2.12 1.093 2.94.66.88 1.59 1.51 2.647 1.8l14.963 4.01c.44.15.909.18 1.366.11.457-.08.89-.26 1.261-.54.361-.26.652-.61.846-1.02.194-.4.285-.85.266-1.29v-1.87c-.02-1.07-.394-2.1-1.064-2.94-.657-.9-1.6-1.54-2.675-1.84z" fill="#fff"/><path d="m913.273 2002.31c-.728 2.66-2.07 5.1-3.916 7.14-2.009 2.29-4.566 4.02-7.431 5.05l-.414.08c-.208-.05-.401-.14-.56-.28-.11-.22-.132-.47-.062-.7.054-.18.139-.35.252-.5.151-.18.356-.3.584-.35.595-.21 1.175-.45 1.735-.74l.836-.44.29-.17.551-.37c1.07-.74 2.05-1.6 2.922-2.56.678-.8 1.3-1.65 1.863-2.53.53-.8.934-1.67 1.197-2.59h-5.592c-.682.04-1.364-.08-1.986-.36-.621-.29-1.163-.72-1.578-1.26-.399-.58-.658-1.24-.757-1.93-.098-.69-.032-1.4.191-2.06l1.003-3.74c.448-1.56 1.39-2.94 2.685-3.92 1.237-1.07 2.812-1.67 4.447-1.69h1.877c.68-.04 1.358.09 1.975.38.618.29 1.155.72 1.565 1.26.41.52.671 1.14.756 1.8l.019.99-.071.6-.153.58zm-1.649-.83 2.01-7.48c.147-.44.189-.91.125-1.37s-.234-.89-.496-1.28c-.272-.36-.633-.66-1.048-.85s-.871-.27-1.328-.24h-1.867c-1.079.01-2.122.39-2.951 1.08-.876.67-1.508 1.6-1.796 2.66l-1.003 3.74c-.143.44-.178.91-.104 1.37.074.45.257.89.532 1.26.265.36.614.65 1.018.85.403.19.848.28 1.296.26zm14.821 7.48c-.443 1.58-1.393 2.97-2.704 3.96-1.23 1.04-2.783 1.63-4.395 1.66h-4.695c-.118.01-.236-.01-.345-.06-.109-.04-.204-.12-.278-.21-.109-.21-.132-.45-.066-.68.09-.21.221-.4.385-.57.1-.11.224-.2.362-.26.139-.06.289-.1.441-.1h4.695c1.072-.01 2.107-.39 2.931-1.08.877-.66 1.509-1.6 1.796-2.66l1.003-3.74c.149-.44.192-.91.126-1.36-.066-.46-.24-.9-.506-1.28-.271-.36-.628-.65-1.037-.84-.41-.18-.86-.27-1.31-.24h-4.695c-.627 0-.851-.31-.684-.94l3.012-11.23c.046-.28.192-.53.411-.7s.494-.26.772-.24h9.357c.11 0 .218.03.315.08s.18.13.241.22c.07.09.118.19.141.3.022.11.018.23-.013.34-.072.24-.216.46-.414.63-.208.2-.484.3-.769.3h-8.425l-2.509 9.37h3.763c.675-.04 1.349.09 1.962.38.612.29 1.143.72 1.545 1.27.401.56.663 1.21.766 1.9.102.68.042 1.38-.177 2.04zm16.408-16.83h2.223c.111 0 .219.03.316.08s.18.13.24.22c.07.09.119.19.142.3s.02.23-.009.33c-.073.25-.218.48-.418.64-.207.2-.483.31-.77.3h-2.223l.551 2.41c.026.14.023.3-.01.45-.088.25-.251.48-.468.64s-.478.25-.748.26c-.247 0-.475-.18-.68-.53l-.475-2.07-1.582 2.06c-.107.16-.25.29-.418.38-.167.1-.355.15-.547.16-.117.01-.234-.01-.342-.06-.109-.04-.205-.11-.28-.2-.071-.09-.118-.2-.136-.32-.018-.11-.008-.23.031-.34.045-.16.124-.31.233-.44l1.834-2.4h-2.224c-.117.01-.236-.01-.345-.05-.109-.05-.206-.12-.282-.21-.107-.21-.128-.45-.057-.68.086-.21.217-.41.385-.57.099-.11.221-.2.359-.27.138-.06.288-.09.439-.09h2.229l-.556-2.4c-.027-.15-.026-.3.005-.45.079-.24.236-.46.446-.61.218-.18.489-.28.77-.28.247 0 .475.17.684.52l.48 2.06 1.568-2.04c.108-.16.252-.29.42-.39.169-.09.357-.14.55-.15.117-.01.234.01.342.06.108.04.204.11.28.2.072.09.12.2.139.31.019.12.009.23-.03.34-.046.16-.126.32-.232.45z" fill="#fff"/><path d="m902.426 2065.38 12.763-32.26m4.875 16.01-.233-1.16v-1.16l-.461-1.16-.47-1.16-.461-1.16-.694-.93-.931-.93-.694-.93-1.164-.69-.927-.47-1.159-.69-1.164-.23-1.16-.23-1.159-.24h-1.16l-1.392.24-1.159.23-1.164.23-.927.69-1.159.47-.932.69-.926.93-.699.93-.694.93-.698 1.16-.461 1.16-.233 1.16-.233 1.16v2.55l.233 1.16.233 1.17.461 1.15.698.93.694 1.17.699.92.926.7.932.7 1.159.69.927.46 1.164.47 1.159.23 1.392.23h1.16l1.159-.23 1.16-.23 1.164-.47 1.159-.46.927-.69 1.164-.7.694-.7.931-.92.694-1.17.461-.93.47-1.15.461-1.17v-1.16z" stroke="#fff" stroke-miterlimit="10" stroke-width="1.18218"/><path d="m937.039 2059c-.07.29-.23.54-.457.72-.215.15-.47.22-.731.22-.211-.04-.413-.11-.594-.22-.078-.1-.127-.22-.144-.35-.017-.12 0-.25.049-.37l5.916-22.07-5.08 4.02c-.2.17-.451.27-.713.28-.116.01-.232-.01-.337-.06s-.197-.12-.266-.22c-.067-.1-.11-.21-.128-.33-.017-.11-.008-.23.028-.35.116-.23.268-.45.451-.63l7.109-5.63c.198-.17.448-.26.708-.27.113 0 .225.02.329.06.103.05.196.12.27.2.074.09.124.2.143.32.019.11.007.23-.034.35zm15.633.94h-11.2c-.113-.01-.224-.03-.324-.09-.1-.05-.186-.12-.251-.21-.059-.11-.096-.23-.108-.35-.012-.13 0-.25.037-.37.042-.16.128-.32.247-.44l14.45-15.53.584-.73.456-.65c.262-.44.462-.9.594-1.39.183-.55.216-1.13.097-1.69-.12-.56-.388-1.08-.776-1.51-.367-.41-.821-.74-1.331-.96-.554-.24-1.153-.37-1.758-.36-.913.01-1.808.26-2.599.72-1.005.6-1.849 1.44-2.461 2.44-.109.18-.259.34-.438.45-.182.08-.373.13-.57.17-.115 0-.231-.02-.338-.06-.108-.05-.205-.11-.284-.2-.073-.09-.121-.2-.14-.31-.019-.12-.009-.24.031-.35l.147-.33c.819-1.4 1.976-2.58 3.364-3.42 1.121-.66 2.401-1.02 3.706-1.02.808-.03 1.612.11 2.356.43.743.32 1.407.79 1.945 1.4.552.61.933 1.36 1.105 2.17.172.8.128 1.64-.126 2.43-.172.63-.428 1.23-.761 1.79-.438.72-.944 1.4-1.511 2.02l-13.081 14.07h9.437c.111 0 .22.03.318.08s.181.13.242.22c.071.09.119.19.142.3.024.12.021.23-.009.34-.079.24-.224.46-.418.64-.208.19-.487.3-.774.3zm19.339-5.62c-.444 1.58-1.398 2.97-2.713 3.96-1.242 1.04-2.808 1.63-4.433 1.66h-1.868c-.663.02-1.323-.12-1.923-.4-.601-.29-1.125-.71-1.531-1.23-.431-.56-.718-1.22-.834-1.91-.116-.7-.058-1.41.169-2.08l4.005-14.96c.452-1.56 1.393-2.94 2.685-3.92 1.236-1.07 2.809-1.67 4.443-1.69h1.872c.678-.04 1.354.09 1.97.38.616.28 1.151.72 1.561 1.26.41.56.678 1.22.783 1.91s.043 1.4-.18 2.06zm-1.877 0 4.011-14.96c.146-.44.186-.91.116-1.37-.069-.45-.246-.89-.515-1.27-.272-.36-.631-.65-1.044-.85-.413-.19-.868-.28-1.323-.25h-1.872c-1.077.02-2.115.4-2.941 1.09-.878.66-1.514 1.59-1.806 2.65l-4.006 14.96c-.143.44-.179.91-.105 1.37.075.45.257.89.533 1.26.263.36.612.65 1.015.84.403.2.847.29 1.295.27h1.876c1.067-.02 2.097-.39 2.927-1.06.9-.66 1.549-1.6 1.839-2.68z" fill="#fff"/><path d="m729.065 1406.26c1.583.44 2.975 1.4 3.958 2.71 1.046 1.24 1.631 2.8 1.654 4.43v1.87c.021.66-.115 1.32-.398 1.92-.282.6-.703 1.12-1.227 1.52-.56.43-1.216.72-1.911.83-.695.12-1.408.06-2.076-.16l-14.963-4.01c-1.563-.45-2.94-1.39-3.925-2.68-1.065-1.24-1.661-2.81-1.682-4.44v-1.87c-.038-.68.092-1.35.377-1.97.285-.61.717-1.15 1.257-1.56.567-.41 1.223-.67 1.914-.78.691-.1 1.397-.04 2.059.18zm0 16.82c1.582.44 2.973 1.39 3.958 2.71 1.047 1.24 1.631 2.8 1.654 4.43v1.86c.021.67-.115 1.33-.398 1.92-.282.6-.703 1.13-1.227 1.53-.559.43-1.216.72-1.911.83-.695.12-1.408.06-2.076-.17l-14.963-4c-1.563-.45-2.939-1.39-3.925-2.69-1.064-1.23-1.66-2.8-1.682-4.43v-1.87c-.038-.68.091-1.35.376-1.97.285-.61.717-1.15 1.258-1.56.567-.4 1.223-.67 1.914-.78.69-.1 1.396-.04 2.059.18zm0 16.87c1.582.44 2.973 1.39 3.958 2.71 1.042 1.23 1.626 2.78 1.654 4.39v4.69c.012.12-.006.24-.052.34-.045.11-.118.21-.21.28-.207.11-.449.13-.674.07-.214-.09-.408-.22-.57-.39-.116-.1-.208-.22-.271-.36-.064-.14-.096-.29-.095-.44v-4.69c-.011-1.07-.394-2.11-1.084-2.93-.661-.88-1.596-1.51-2.656-1.8l-3.735-1c-.439-.15-.907-.19-1.366-.13-.459.07-.896.24-1.276.51-.361.27-.649.63-.838 1.04s-.273.86-.245 1.31v4.69c0 .62-.314.85-.936.68l-11.243-3.01c-.274-.05-.52-.19-.692-.41s-.257-.49-.239-.77v-9.36c-.001-.11.026-.22.078-.31.052-.1.128-.18.221-.24.087-.07.19-.12.3-.14.11-.03.224-.02.332.01.247.07.468.22.637.41.098.1.175.22.226.36.052.13.076.27.073.41v8.42l9.371 2.52v-3.77c-.038-.67.094-1.35.381-1.96.288-.61.724-1.14 1.267-1.54.567-.41 1.219-.67 1.905-.77s1.386-.04 2.044.18zm0 14.98c1.581.44 2.973 1.39 3.958 2.7 1.041 1.23 1.625 2.78 1.654 4.4v4.69c.012.12-.006.24-.052.34-.046.11-.118.21-.21.28-.102.06-.215.09-.331.1-.115.01-.232 0-.343-.04-.216-.08-.411-.21-.57-.38-.116-.1-.208-.22-.271-.36s-.096-.29-.095-.44v-4.69c-.01-1.08-.393-2.11-1.084-2.93-.66-.88-1.595-1.51-2.656-1.8l-3.735-1c-.439-.15-.907-.19-1.366-.13-.459.07-.896.24-1.276.51-.361.27-.649.62-.838 1.03s-.273.86-.245 1.31v4.7c0 .63-.314.85-.936.68l-11.243-3.01c-.274-.05-.521-.19-.693-.41s-.257-.5-.238-.77v-9.35c-.002-.12.025-.23.077-.32.052-.1.129-.19.222-.25.089-.06.192-.11.301-.13.11-.03.223-.02.331.01.247.07.467.22.637.41.198.21.306.49.299.77v8.42l9.371 2.51v-3.76c-.039-.67.092-1.35.38-1.96s.724-1.14 1.268-1.54c.566-.4 1.218-.67 1.904-.77s1.386-.04 2.045.17zm0-46.8-14.963-4c-.44-.15-.908-.19-1.367-.12-.458.07-.893.25-1.27.51-.365.27-.657.63-.85 1.04-.192.42-.279.87-.253 1.32v1.87c.013 1.08.402 2.12 1.098 2.94.658.88 1.587 1.51 2.642 1.81l14.963 4.01c.44.14.909.18 1.366.1.457-.07.89-.26 1.262-.53.361-.27.651-.62.845-1.02s.285-.85.267-1.3v-1.86c-.019-1.07-.394-2.1-1.065-2.93-.656-.9-1.6-1.55-2.675-1.84zm0 16.82-14.963-4.01c-.44-.14-.908-.18-1.366-.11s-.894.24-1.271.51c-.365.27-.657.63-.85 1.04-.192.41-.279.86-.253 1.32v1.87c.014 1.08.402 2.12 1.098 2.94.658.88 1.587 1.51 2.642 1.8l14.963 4.01c.44.15.909.18 1.366.11.457-.08.89-.26 1.262-.53.36-.27.65-.62.844-1.02s.286-.85.268-1.29v-1.88c-.018-1.06-.393-2.09-1.065-2.92-.655-.9-1.599-1.55-2.675-1.84z" fill="#fff"/><path d="m894.307 201.283 12.997-32.26m4.642 16.014v-1.16l-.228-1.159-.238-1.159-.461-1.165-.465-.926-.694-1.16-.936-.931-.922-.694-.927-.931-.931-.461-1.164-.694-1.155-.233-1.164-.232-1.159-.233h-1.393l-1.164.233-1.155.232-1.159.233-1.164.694-.927.461-.931.931-.927.694-.931.931-.456 1.16-.699.926-.465 1.165-.228 1.159-.238 1.159v2.557l.238 1.154.228 1.165.465 1.159.699.927.456 1.164.931.926.927.694.931.932.927.465 1.164.694 1.159.233 1.155.233 1.164.232h1.393l1.159-.232 1.164-.233 1.155-.233 1.164-.694.931-.465.927-.932.922-.694.936-.926.694-1.164.465-.927.461-1.159.238-1.165.228-1.154z" stroke="#fff" stroke-miterlimit="10" stroke-width="1.18218"/><path d="m925.092 181.918c.729-2.654 2.072-5.098 3.92-7.137 2.01-2.29 4.571-4.027 7.441-5.047l.414-.071c.11-.007.219.018.316.071s.177.132.23.228c.059.101.096.212.108.328.013.115 0 .232-.037.342-.043.169-.126.326-.242.457-.17.169-.37.306-.589.403l-.39.129-.466.185-.902.413c-.575.292-1.129.622-1.659.989-1.07.737-2.052 1.595-2.927 2.556-.684.788-1.305 1.628-1.858 2.514-.532.802-.939 1.68-1.207 2.604h5.603c.682-.043 1.365.083 1.987.366.623.284 1.166.716 1.581 1.259.401.574.66 1.233.759 1.926.098.692.032 1.398-.193 2.061l-.998 3.739c-.438 1.588-1.389 2.986-2.704 3.978-1.243 1.036-2.805 1.613-4.424 1.634h-1.877c-.661.021-1.319-.116-1.918-.398-.598-.283-1.122-.703-1.527-1.227-.431-.557-.718-1.212-.835-1.907s-.06-1.407.165-2.075zm1.649.836-2.005 7.479c-.143.441-.178.91-.103 1.367s.259.889.535 1.261c.265.361.615.651 1.018.844.404.194.849.286 1.296.268h1.877c1.079-.011 2.121-.394 2.951-1.083.876-.663 1.507-1.597 1.796-2.657l1.007-3.739c.147-.44.19-.909.125-1.368s-.237-.897-.5-1.279c-.272-.366-.632-.658-1.046-.849s-.87-.275-1.325-.244zm26.111 7.479c-.443 1.582-1.397 2.972-2.714 3.954-1.241 1.049-2.808 1.636-4.433 1.658h-1.872c-.663.021-1.322-.116-1.922-.398-.601-.283-1.126-.703-1.533-1.227-.43-.559-.715-1.215-.831-1.91-.116-.696-.059-1.409.166-2.077l4.01-14.963c.445-1.564 1.386-2.942 2.68-3.925 1.239-1.066 2.814-1.662 4.448-1.682h1.872c.678-.038 1.354.091 1.97.376.615.285 1.152.717 1.561 1.258.41.566.679 1.222.784 1.913s.043 1.398-.181 2.06zm-1.877 0 4.01-14.963c.146-.44.186-.908.117-1.366-.07-.459-.247-.894-.516-1.271-.273-.365-.631-.657-1.044-.85-.413-.192-.868-.279-1.322-.253h-1.873c-1.078.016-2.118.401-2.946 1.093-.876.661-1.51 1.591-1.805 2.647l-4.011 14.963c-.141.441-.176.909-.1 1.366.075.457.257.89.533 1.262.264.361.614.651 1.018.845.403.194.848.286 1.296.267h1.877c1.065-.021 2.093-.395 2.922-1.064.904-.654 1.555-1.599 1.844-2.676" fill="#fff"/><path d="m894.307 351.439 12.997-32.259m4.642 16.246v-1.393l-.228-1.159-.238-1.16-.461-1.164-.465-.926-.694-1.16-.936-.931-.922-.694-.927-.694-.931-.698-1.164-.466-1.155-.461-1.164-.232-1.159-.233h-1.393l-1.164.233-1.155.232-1.159.461-1.164.466-.927.698-.931.694-.927.694-.931.931-.456 1.16-.699.926-.465 1.164-.228 1.16-.238 1.159v2.557l.238 1.154.228 1.165.465 1.159.699 1.159.456.932.931.926.927.927.931.698.927.466 1.164.694 1.159.233 1.155.232 1.164.233h1.393l1.159-.233 1.164-.232 1.155-.233 1.164-.694.931-.466.927-.698.922-.927.936-.926.694-.932.465-1.159.461-1.159.238-1.165.228-1.154v-1.165" stroke="#fff" stroke-miterlimit="10" stroke-width="1.18218"/><path d="m941.192 321.003-12.159 24.315c-.143.195-.304.376-.48.541l-.613.186c-.225.002-.443-.078-.613-.224-.08-.09-.134-.201-.156-.32s-.011-.241.032-.355l.105-.242 11.584-23.174h-9.142l-.494 1.853c-.071.281-.231.531-.456.713-.215.148-.471.226-.732.223-.212-.035-.416-.11-.599-.223-.076-.1-.125-.219-.141-.344-.016-.126.002-.253.051-.369l.746-2.789c.048-.275.196-.521.416-.693.219-.172.494-.257.772-.239h11.261c.116-.01.233.006.343.046.109.04.208.104.289.187.068.088.113.192.129.302.017.109.005.221-.033.325zm.746 11.119c.733-2.653 2.076-5.099 3.92-7.142 2.013-2.285 4.574-4.021 7.442-5.046l.413-.071c.111-.007.221.018.318.071.098.053.179.132.233.228.057.101.093.213.105.328s.001.232-.034.342c-.043.17-.128.327-.247.456-.167.171-.365.308-.584.404l-.394.133-.461.186-.908.408c-.574.293-1.126.624-1.654.993-1.075.731-2.058 1.59-2.927 2.557-.684.786-1.306 1.625-1.858 2.509-.533.802-.941 1.68-1.211 2.604h5.607c.682-.043 1.365.083 1.986.367.622.284 1.164.718 1.578 1.263.402.571.663 1.23.762 1.922.1.692.034 1.398-.192 2.06l-1.003 3.744c-.437 1.585-1.386 2.982-2.699 3.972-1.244 1.036-2.805 1.613-4.424 1.635h-1.877c-.662.021-1.319-.115-1.919-.396-.599-.282-1.124-.701-1.53-1.224-.431-.559-.717-1.215-.833-1.91-.116-.696-.059-1.409.167-2.077zm1.654.832-2.005 7.484c-.144.44-.179.909-.104 1.366s.259.89.536 1.261c.265.361.615.651 1.018.845.404.194.849.286 1.296.267h1.872c1.081-.01 2.126-.395 2.956-1.088.875-.661 1.507-1.593 1.796-2.652l1.007-3.744c.146-.44.188-.908.123-1.367s-.236-.897-.498-1.28c-.273-.366-.634-.658-1.049-.849s-.871-.275-1.327-.244z" fill="#fff"/><path d="m849.515 355.372-13.229 2.785v-5.337z" stroke="#fff" stroke-miterlimit="10" stroke-width="1.18218"/><path d="m874.581 355.372 12.996-2.552v5.337z" stroke="#fff" stroke-miterlimit="10" stroke-width="1.18218"/><path d="m871.796 205.208 13.229-2.552v5.104z" stroke="#fff" stroke-miterlimit="10" stroke-width="1.18218"/><path d="m852.067 205.208-13.001 2.552v-5.104z" stroke="#fff" stroke-miterlimit="10" stroke-width="1.18218"/><path d="m881.775 2069.29-13.229 2.56v-5.11z" stroke="#fff" stroke-miterlimit="10" stroke-width="1.18218"/><path d="m842.32 2069.29 12.996-2.55v5.11z" stroke="#fff" stroke-miterlimit="10" stroke-width="1.18218"/><path d="m878.757 2023.82-13.234 2.79v-5.34z" stroke="#fff" stroke-miterlimit="10" stroke-width="1.18218"/><path d="m845.338 2023.82 12.996-2.55v5.34z" stroke="#fff" stroke-miterlimit="10" stroke-width="1.18218"/><path d="m743.917 308.008 2.552 13.229h-5.336z" stroke="#fff" stroke-miterlimit="10" stroke-width="1.18218"/><path d="m743.917 2117.12-2.784-13h5.336z" stroke="#fff" stroke-miterlimit="10" stroke-width="1.18218"/><path d="m784.996 1853.96 2.784 13.23h-5.341z" stroke="#fff" stroke-miterlimit="10" stroke-width="1.18218"/><path d="m784.996 1985.52-2.557-13h5.341z" stroke="#fff" stroke-miterlimit="10" stroke-width="1.18218"/><path d="m784.996 1985.52 2.784 13.22h-5.341z" stroke="#fff" stroke-miterlimit="10" stroke-width="1.18218"/><path d="m784.996 2117.12-2.557-13h5.341z" stroke="#fff" stroke-miterlimit="10" stroke-width="1.18218"/><path d="m862.12 2126.95v-1897.536" stroke="#fff" stroke-dasharray="100.18 6.68 6.68 6.68" stroke-linecap="round" stroke-linejoin="round" stroke-width="1.18218"/><path d="m849.515 355.383h-19.729" stroke="#fff" stroke-linecap="round" stroke-linejoin="round" stroke-width="1.18218"/><path d="m874.58 355.383h-25.065" stroke="#fff" stroke-linecap="round" stroke-linejoin="round" stroke-width="1.18218"/><path d="m874.58 355.383h78.446" stroke="#fff" stroke-linecap="round" stroke-linejoin="round" stroke-width="1.18218"/><path d="m871.796 205.211h81.231" stroke="#fff" stroke-linecap="round" stroke-linejoin="round" stroke-width="1.18218"/><path d="m852.068 205.211h19.729" stroke="#fff" stroke-linecap="round" stroke-linejoin="round" stroke-width="1.18218"/><path d="m852.069 205.211h-19.73" stroke="#fff" stroke-linecap="round" stroke-linejoin="round" stroke-width="1.18218"/><path d="m871.796 247.69v-48.971" stroke="#fff" stroke-linecap="round" stroke-linejoin="round" stroke-width="1.18218"/><path d="m852.068 247.69v-48.971" stroke="#fff" stroke-linecap="round" stroke-linejoin="round" stroke-width="1.18218"/><path d="m881.775 2069.3h108.867" stroke="#fff" stroke-linecap="round" stroke-linejoin="round" stroke-width="1.18218"/><path d="m842.32 2069.3h39.454" stroke="#fff" stroke-linecap="round" stroke-linejoin="round" stroke-width="1.18218"/><path d="m878.759 2023.83h111.167" stroke="#fff" stroke-linecap="round" stroke-linejoin="round" stroke-width="1.18218"/><path d="m845.339 2023.83h33.424" stroke="#fff" stroke-linecap="round" stroke-linejoin="round" stroke-width="1.18218"/><path d="m878.759 1969.3v61.28" stroke="#fff" stroke-linecap="round" stroke-linejoin="round" stroke-width="1.18218"/><path d="m845.339 1969.3v61.28" stroke="#fff" stroke-linecap="round" stroke-linejoin="round" stroke-width="1.18218"/><path d="m743.916 2117.14v-1809.093" stroke="#fff" stroke-linecap="round" stroke-linejoin="round" stroke-width="1.18218"/><path d="m850.442 308.047h-113.253" stroke="#fff" stroke-linecap="round" stroke-linejoin="round" stroke-width="1.18218"/><path d="m824.916 2117.12h-87.731" stroke="#fff" stroke-linecap="round" stroke-linejoin="round" stroke-width="1.18218"/><path d="m784.996 1985.55v-131.59" stroke="#fff" stroke-linecap="round" stroke-linejoin="round" stroke-width="1.18218"/><path d="m861.351 1853.96h-82.851" stroke="#fff" stroke-linecap="round" stroke-linejoin="round" stroke-width="1.18218"/><path d="m861.351 1985.52h-82.851" stroke="#fff" stroke-linecap="round" stroke-linejoin="round" stroke-width="1.18218"/><path d="m784.996 2117.11v-131.59" stroke="#fff" stroke-linecap="round" stroke-linejoin="round" stroke-width="1.18218"/><path d="m861.351 1985.52h-82.851" stroke="#fff" stroke-linecap="round" stroke-linejoin="round" stroke-width="1.18218"/><path d="m824.916 2117.12h-46.42" stroke="#fff" stroke-linecap="round" stroke-linejoin="round" stroke-width="1.18218"/><path d="m849.515 355.372-13.229 2.785v-5.337" fill="#fff"/><path d="m874.581 355.372 12.996-2.552v5.337" fill="#fff"/><path d="m871.796 205.208 13.229-2.552v5.104" fill="#fff"/><path d="m852.067 205.208-13.001 2.552v-5.104" fill="#fff"/><path d="m881.775 2069.29-13.229 2.56v-5.11" fill="#fff"/><path d="m842.32 2069.29 12.996-2.55v5.11" fill="#fff"/><path d="m878.757 2023.82-13.234 2.79v-5.34" fill="#fff"/><path d="m845.338 2023.82 12.996-2.55v5.34" fill="#fff"/><path d="m743.917 308.008 2.552 13.229h-5.336" fill="#fff"/><path d="m743.917 2117.12-2.784-13h5.336" fill="#fff"/><path d="m784.996 1853.96 2.784 13.23h-5.341" fill="#fff"/><path d="m784.996 1985.52-2.557-13h5.341" fill="#fff"/><path d="m784.996 1985.52 2.784 13.22h-5.341" fill="#fff"/><path d="m784.996 2117.12-2.557-13h5.341" fill="#fff"/><path d="m883.863 2106.67h-43.863m-11.604 7.44h67.07m-53.376-8.36h39.687m-56.86 8.82h6.729m-6.729 2.55v-2.55m6.729 2.55h-6.729m67.532-2.55h-60.803m60.803 2.55h-60.803m0-2.55v2.55m60.803-2.55h6.501m-6.501 2.55v-2.55m6.501 2.55h-6.501m6.501-2.55v2.55m-38.528-254.83-.232-.7-.228-.69v-.7l.228-.69.465-.7.699-.23.694-.23.698.23.694.23.465.7.229.69v.7l-.229.69-.465.7-.694.46-.698.24-.694-.24-.471-.23zm0 118.36-.232-.69-.228-.69v-.7l.228-.7.465-.7.699-.23.694-.23.698.23.694.23.465.7.229.7v.7l-.229.69-.465.69-.694.47-.698.23-.694-.23-.471-.23zm1.16 4.88h.931m16.246-115.12v98.64m0-98.64v-1.62l-.232-1.86-.233-1.85-.466-1.63-.466-1.62-.693-1.63-.932-1.16-.921-1.16-1.165-1.16-1.853-.93-2.091-.92-2.09-.47-2.319-.23h-2.785m-.931 0h.931m-17.177 16.24v98.64m16.246-114.88h-4.177l-1.159.23-1.393.23-1.164.47-1.159.46-1.155.46-1.63 1.4-1.392 1.39-1.159 1.86-.699 1.85-.694 2.32-.465 2.56v3.01m0 98.64v2.78l.233 1.4.232 1.39.233 1.16.461 1.16.466 1.39.465.94.699 1.15.694.93.698.7.922.92 1.858.93 1.858.93 2.324.47 2.09.23h3.013m.931 0h2.552l1.392-.23h1.392l1.16-.47 1.164-.23 1.159-.46 1.16-.47 1.62-1.39 1.625-1.39.932-1.86.926-1.86.466-2.32.466-2.55.232-1.63v-1.62m-17.405 9.98v.24l.228.22v.23m.694 0 .237-.23v-.22h.233v-.24m-1.164.69h.694m-.461-.69h-.461m.922 0h.47m-.47-.46v-.24h-.461l-.233.24m1.164.46v-.23h-.233v-.23h-.237m-.694 0-.228.23v.23m1.392.46-.698.23m0 0-.694-.23m0 0v-.92m0 0 .694-.24m0 0 .698.24m0 0v.92m1.159-.46v-.46l-.232-.47-.233-.46-.461-.23-.466-.24h-.931l-.461.24-.466.23-.233.46-.232.47v.46m0 0v.46l.232.47.233.46.466.23.461.24h.931l.466-.24.461-.23.233-.46.232-.47v-.46m-2.551-118.36v.23l.228.23m0 0h.233v.23h.461v-.23m0 0h.237v-.23h.233v-.23m-.931 0h-.461m.922 0h.47m0 0v-.24h-.233v-.23l-.237-.23m0 0h-.694m0 0v.23h-.228v.47m1.392.23-.698.46m0 0-.694-.46m0 0v-.7m0 0 .694-.23m0 0 .698.23m0 0v.7m1.159-.23v-.47l-.232-.46-.233-.47-.461-.23-.466-.23h-.931l-.461.23-.466.23-.233.47-.232.46v.47m0 0v.46l.232.46.233.46.466.24.461.23h.931l.466-.23.461-.24.233-.46.232-.46v-.46m10.678-1552.648h-25.066m12.759 1546.148h-.228m-16.712 16.24v98.87m16.018-115.35h1.159m0 0 1.853.24h1.858l1.625.23 1.625.47 1.626.46 1.392.69 1.853 1.16 1.392 1.63.932 1.86.926 1.85.699 2.32.233 2.32.232 1.63v1.62m0 98.87v-98.87m-17.405 115.12h1.159m-.465-131.36v-.24m-16.712 16.48v-2.55l.233-1.39.232-1.39.233-1.17.461-1.39.466-1.16.465-1.16.699-.93.694-.92.698-.93.922-.7 1.63-1.16 2.086-.69 2.091-.47 2.323-.23h1.393l1.392-.24m.694.24h-.233m-.461 131.36h-3.949l-1.159-.23-1.393-.24-1.164-.46-1.159-.46-1.155-.47-1.63-1.39-1.392-1.39-1.159-1.86-.699-1.86-.694-2.32-.465-2.55v-3.02m16.479 16.25h.233m16.711-16.25-.232 2.55v1.4l-.233 1.39-.233 1.16-.466 1.39-.461 1.16-.465 1.16-.699.93-.694.93-.693.7-.932.92-1.853.93-2.091.93-2.09.47-2.319.23h-2.785m-.465 0h.228m-10.207-1737.85h9.979m0 0h9.75m-21.359 59.416h11.609m0 0h11.37m10.445 1799.574-.233-.23h-.228l-.233-.23-.233-.23h-.465l-.461-.23h-.233m-39.687 0h-.237l-.228.23h-.466l-.461.23-.238.23h-.228l-.232.23m0 0-11.604 7.44m67.07 0-11.603-7.44m13.462 7.9h-.694l-.238-.24h-.461l-.233-.22h-.233m-67.07 0h-.228l-.238.22h-.228l-.238.24h-.698m22.751-1806.548v213.752m25.066 0v-213.752m-32.265 1447.278v350.45m39.459 0v-350.45m-32.26-1233.526-7.199 1233.526m39.459 0-7.194-1233.526m-22.514-274.094v59.415m19.729 0v-59.415m-21.359 59.415v.927m22.979 0v-.927m-11.37 1672.175h-.233v-.47h.461v.47zm0 0v-.47l-.233.23zm0-118.37h-.233v-.47h.461v.47zm0-.23v-.24h-.233v.24z" stroke="#fff" stroke-linecap="round" stroke-linejoin="round" stroke-width="1.64271"/><path d="m542.604 2004.87c-.438 1.59-1.39 2.99-2.708 3.99-1.243 1.03-2.805 1.61-4.424 1.63h-1.872c-.663.02-1.322-.11-1.923-.4-.6-.28-1.125-.7-1.532-1.22-.431-.56-.717-1.22-.833-1.92-.116-.69-.058-1.41.168-2.08l1.003-3.74c.292-1.03.814-1.97 1.525-2.76.803-.91 1.762-1.66 2.832-2.23-.503-.54-.851-1.2-1.007-1.92-.172-.81-.137-1.66.099-2.46l.514-1.92c.468-1.56 1.409-2.95 2.694-3.97.644-.52 1.364-.93 2.134-1.23l1.064-.28.627-.1h.584c.683-.03 1.365.09 1.988.38.623.28 1.168.71 1.591 1.25.413.52.679 1.14.769 1.8l.015.99-.067.6-.157.58-.513 1.91c-.227.88-.622 1.71-1.164 2.43-.586.76-1.291 1.41-2.086 1.94.768.45 1.342 1.17 1.611 2.02.328.95.353 1.99.071 2.97zm-1.876 0 1.007-3.74c.147-.45.19-.91.125-1.37-.064-.46-.234-.9-.496-1.29-.272-.36-.632-.66-1.047-.85s-.872-.27-1.329-.24h-1.877c-1.079.01-2.119.4-2.946 1.09-.879.66-1.514 1.6-1.805 2.66l-1.003 3.74c-.145.44-.181.91-.107 1.37.075.46.258.89.535 1.26.264.37.614.66 1.019.85.404.2.851.29 1.3.27h1.872c1.08-.01 2.123-.39 2.95-1.09.88-.66 1.514-1.59 1.802-2.66zm2.575-13.1.513-1.91c.15-.44.193-.9.126-1.36s-.242-.9-.511-1.28c-.269-.36-.625-.65-1.035-.84s-.861-.28-1.312-.25c-1.078.01-2.119.4-2.951 1.08-.887.66-1.527 1.59-1.815 2.65l-.518 1.91c-.148.44-.191.91-.124 1.37s.241.9.509 1.28c.271.36.628.65 1.038.84.411.19.862.27 1.314.24 1.067-.02 2.098-.39 2.927-1.06.899-.66 1.548-1.59 1.839-2.67zm14.284 13.1c-.444 1.59-1.398 2.98-2.714 3.96-1.23 1.05-2.785 1.63-4.4 1.66h-4.704c-.117.01-.236 0-.345-.05-.109-.04-.204-.12-.277-.21-.056-.1-.091-.21-.103-.33-.011-.11.001-.23.036-.34.088-.22.22-.41.39-.58.099-.11.222-.2.361-.27.139-.06.29-.09.442-.09h4.704c1.075-.01 2.112-.4 2.937-1.09.876-.66 1.508-1.6 1.796-2.66l1.007-3.74c.148-.44.191-.91.125-1.37-.067-.46-.239-.9-.505-1.28-.271-.36-.628-.65-1.039-.84-.41-.19-.862-.27-1.313-.24h-4.704c-.628 0-.856-.31-.689-.94l3.017-11.26c.047-.28.195-.53.416-.7.22-.17.497-.26.777-.24h9.37c.11 0 .218.03.315.08.096.05.179.13.241.22.071.08.12.19.143.3.022.11.017.23-.015.34-.072.24-.216.46-.413.63-.102.1-.223.18-.355.23s-.273.07-.415.07h-8.439l-2.514 9.39h3.764c.677-.03 1.352.1 1.966.38.614.29 1.146.73 1.55 1.27.402.57.665 1.22.768 1.91.103.68.044 1.39-.174 2.05zm26.951-23.27c-.04.15-.11.29-.204.41l-23.573 31.85c-.098.18-.247.32-.428.4s-.371.14-.565.17c-.117 0-.234-.02-.342-.06-.108-.05-.204-.12-.281-.21-.077-.08-.127-.19-.147-.31-.019-.11-.006-.23.038-.34.037-.15.107-.29.204-.41l23.583-31.84.333-.32.646-.24c.114-.01.229.01.335.05.105.05.197.12.268.21.079.08.133.19.157.3.023.11.015.23-.024.34zm12.341 16.61c-.728 2.66-2.073 5.11-3.925 7.15-2.011 2.3-4.574 4.04-7.446 5.06l-.414.07c-.209-.04-.404-.13-.56-.28-.056-.1-.09-.22-.1-.34s.005-.24.043-.35c.046-.18.13-.35.247-.5.156-.18.359-.3.584-.36.598-.2 1.18-.44 1.739-.73l.837-.45.29-.16.551-.38c1.075-.74 2.059-1.59 2.932-2.56.679-.8 1.303-1.65 1.867-2.54.528-.8.933-1.67 1.202-2.59h-5.607c-.683.05-1.367-.08-1.99-.36-.623-.29-1.165-.73-1.578-1.27-.402-.57-.662-1.23-.761-1.93-.099-.69-.034-1.4.19-2.06l1.008-3.75c.446-1.57 1.39-2.95 2.689-3.94 1.243-1.06 2.82-1.66 4.457-1.68h1.882c.681-.04 1.36.1 1.979.38.618.29 1.156.73 1.566 1.27.41.52.671 1.14.755 1.8l.019.99-.066.6-.157.58zm-1.649-.83 2.01-7.5c.147-.44.19-.91.125-1.37-.064-.46-.234-.9-.496-1.28-.272-.37-.632-.66-1.047-.85-.415-.2-.872-.28-1.329-.25h-1.877c-1.08.01-2.123.4-2.95 1.09-.881.66-1.515 1.6-1.801 2.66l-1.008 3.75c-.142.44-.177.91-.102 1.37.074.45.256.89.53 1.26.265.36.615.65 1.02.85.404.19.85.28 1.299.27zm14.849 7.49c-.446 1.59-1.399 2.98-2.713 3.96-1.231 1.05-2.786 1.63-4.4 1.66h-4.709c-.118.01-.236 0-.345-.05-.108-.05-.204-.12-.278-.21-.054-.1-.087-.21-.098-.33-.011-.11.002-.23.037-.34.083-.22.217-.42.389-.58.099-.11.221-.2.359-.26.138-.07.288-.1.439-.1h4.705c1.075-.01 2.113-.4 2.936-1.09.877-.66 1.509-1.6 1.796-2.66l1.008-3.74c.148-.44.192-.91.127-1.37-.066-.46-.238-.9-.503-1.28-.272-.36-.63-.65-1.041-.84s-.863-.27-1.315-.24h-4.705c-.627 0-.855-.31-.684-.94l3.013-11.26c.048-.28.196-.53.416-.7.221-.17.497-.26.776-.24h9.371c.11 0 .219.03.316.08.098.05.182.13.244.22.069.09.116.19.138.3s.019.23-.009.34c-.073.25-.219.47-.418.63-.102.1-.223.18-.355.23s-.273.07-.415.07h-8.439l-2.514 9.39h3.768c.676-.04 1.351.1 1.965.38.613.29 1.144.73 1.547 1.27.403.57.666 1.22.77 1.91.103.68.043 1.39-.176 2.05zm16.436-16.86h2.229c.11-.01.219.02.316.07.098.06.18.13.24.23.072.08.122.19.145.3s.019.22-.012.33c-.076.25-.219.47-.413.64-.211.2-.488.31-.775.3h-2.229l.552 2.41c.026.15.022.31-.01.45-.088.26-.251.48-.468.64s-.478.26-.748.27c-.252 0-.48-.18-.685-.53l-.475-2.08-1.582 2.06c-.108.16-.251.3-.42.39-.168.1-.357.15-.549.16-.118 0-.236-.01-.345-.06s-.206-.12-.283-.21c-.07-.09-.116-.2-.134-.31s-.008-.23.03-.34c.049-.16.128-.31.233-.45l1.843-2.4h-2.228c-.118.01-.237-.01-.346-.05-.109-.05-.205-.12-.282-.21-.109-.21-.131-.45-.061-.68.09-.21.22-.41.385-.57.099-.11.223-.21.361-.27.139-.06.289-.09.442-.09h2.233l-.556-2.4c-.027-.15-.026-.3.005-.45.078-.25.234-.47.446-.62.219-.18.492-.28.775-.28.247 0 .47.17.679.52l.48 2.06 1.578-2.04c.108-.16.252-.29.42-.39.169-.09.357-.14.549-.15.118-.01.235.01.344.06.108.04.206.11.284.2.07.09.117.2.135.31.019.12.008.23-.031.34-.045.17-.124.32-.233.45z" fill="#fff"/><path d="m408.139 2029.6c1.584.44 2.977 1.39 3.963 2.71 1.046 1.25 1.632 2.82 1.658 4.44v1.88c.021.66-.116 1.33-.399 1.93s-.705 1.13-1.231 1.53c-.559.43-1.216.72-1.912.84-.696.11-1.41.05-2.079-.17l-14.992-4.02c-1.569-.44-2.951-1.39-3.939-2.69-1.067-1.24-1.664-2.81-1.687-4.45v-1.88c-.036-.67.095-1.35.382-1.97.286-.62.72-1.15 1.262-1.57.568-.41 1.226-.67 1.918-.78.693-.1 1.4-.04 2.064.18zm0 16.88c1.584.44 2.977 1.4 3.963 2.71 1.048 1.25 1.634 2.82 1.658 4.45v1.87c.021.67-.116 1.33-.399 1.93s-.705 1.12-1.231 1.53c-.558.43-1.215.72-1.911.84-.697.11-1.411.06-2.08-.17l-14.992-4.02c-1.57-.44-2.953-1.39-3.939-2.69-1.067-1.24-1.664-2.81-1.687-4.45v-1.87c-.036-.68.094-1.36.381-1.98.287-.61.72-1.15 1.263-1.56.567-.41 1.225-.68 1.917-.79.693-.11 1.401-.04 2.065.18zm-1.877 20.15v-2.84c.001-.11.029-.21.082-.31s.13-.18.222-.24c.088-.07.192-.12.303-.14.111-.03.225-.02.334.01.248.07.47.22.637.41.197.21.304.49.299.78v2.84l4.69 1.25c.281.07.532.23.713.46.151.21.229.47.223.73-.033.21-.109.42-.223.6-.1.07-.219.12-.344.14-.126.01-.253 0-.369-.05l-4.69-1.26v6.57c.01.12-.009.23-.055.34-.045.1-.116.2-.206.27-.093.06-.199.1-.31.12s-.225.01-.332-.03l-.223-.08-18.741-8.77c-.233-.09-.429-.26-.561-.48l-.19-.63c-.003-.11.018-.22.063-.32.044-.11.11-.2.194-.28.092-.07.201-.12.318-.14.116-.02.236-.01.347.03l.204.08 17.615 8.24v-5.42l-4.699-1.26c-.247-.09-.463-.24-.623-.45-.192-.2-.305-.46-.318-.74-.001-.11.021-.22.063-.31.043-.1.105-.19.184-.26.094-.08.209-.14.331-.16s.247 0 .363.04zm1.877-35.16-14.992-4.01c-.441-.15-.911-.19-1.371-.12s-.897.25-1.275.52c-.365.27-.657.63-.849 1.04-.193.42-.28.87-.254 1.33v1.88c.014 1.07.402 2.12 1.098 2.94.658.88 1.591 1.52 2.651 1.82l14.992 4.01c.441.15.91.18 1.368.11.458-.08.891-.26 1.264-.54.361-.26.651-.61.845-1.02.194-.4.286-.85.267-1.3v-1.88c-.017-1.07-.392-2.1-1.064-2.93-.656-.9-1.602-1.56-2.68-1.85zm0 16.89-14.992-4.02c-.441-.15-.911-.19-1.371-.12s-.897.25-1.275.52c-.366.27-.658.63-.85 1.05-.192.41-.279.87-.253 1.32v1.88c.016 1.08.404 2.12 1.098 2.95.66.88 1.592 1.52 2.651 1.81l14.992 4.01c.441.14.91.18 1.368.11.458-.08.892-.26 1.264-.54.362-.26.652-.61.846-1.02.194-.4.285-.85.266-1.3v-1.88c-.018-1.07-.393-2.1-1.064-2.93-.656-.9-1.602-1.55-2.68-1.84z" fill="#fff"/><path d="m408.139 1892.49c1.583.45 2.976 1.4 3.963 2.72 1.046 1.24 1.632 2.81 1.658 4.44v1.88c.021.66-.116 1.32-.399 1.93-.283.6-.705 1.12-1.231 1.53-.559.43-1.216.72-1.912.84-.696.11-1.41.05-2.079-.17l-14.992-4.02c-1.569-.45-2.951-1.39-3.939-2.69-1.067-1.24-1.664-2.81-1.687-4.45v-1.88c-.036-.68.095-1.35.382-1.97.286-.62.72-1.16 1.262-1.57.568-.41 1.226-.68 1.918-.78.693-.11 1.4-.04 2.064.18zm0 16.89c1.584.44 2.977 1.39 3.963 2.71 1.048 1.25 1.634 2.82 1.658 4.44v1.88c.021.67-.116 1.33-.399 1.93s-.705 1.12-1.231 1.53c-.558.43-1.215.72-1.911.84-.697.11-1.411.06-2.08-.17l-14.992-4.02c-1.57-.44-2.953-1.39-3.939-2.69-1.067-1.24-1.664-2.81-1.687-4.45v-1.87c-.036-.68.094-1.36.381-1.98s.72-1.15 1.263-1.56c.567-.42 1.225-.69 1.917-.79.693-.11 1.401-.05 2.065.18zm-1.877 20.15v-2.83c0-.11.028-.22.081-.32.054-.1.13-.18.223-.24.088-.07.192-.12.303-.14.11-.03.225-.02.334 0 .247.08.468.23.637.42.197.21.304.49.299.78v2.83l4.69 1.26c.281.07.532.23.713.45.151.22.229.48.223.74-.033.21-.109.41-.223.59-.1.08-.219.13-.344.15-.126.01-.253 0-.369-.05l-4.69-1.26v6.58c.009.11-.01.22-.055.33-.046.1-.117.2-.206.27-.093.06-.199.1-.31.12s-.225.01-.332-.03l-.223-.08-18.741-8.77c-.233-.1-.429-.26-.561-.48l-.19-.63c-.003-.11.018-.22.063-.33.044-.1.11-.19.194-.27.092-.07.201-.12.318-.14.116-.02.236-.01.347.03l.204.07 17.615 8.25v-5.42l-4.699-1.26c-.247-.09-.463-.24-.623-.45-.192-.2-.305-.47-.318-.74-.001-.11.021-.22.063-.32.043-.09.105-.18.184-.26.094-.08.209-.13.331-.15s.247 0 .363.04zm1.877-35.15-14.992-4.02c-.441-.15-.911-.19-1.371-.12s-.897.25-1.275.52c-.365.27-.657.63-.849 1.04-.193.42-.28.87-.254 1.33v1.87c.014 1.08.402 2.12 1.098 2.95.657.88 1.59 1.52 2.651 1.82l14.992 4.01c.441.14.911.18 1.369.1.458-.07.891-.25 1.263-.53.362-.27.652-.62.846-1.02.194-.41.285-.85.266-1.3v-1.88c-.017-1.07-.392-2.1-1.064-2.93-.654-.9-1.601-1.56-2.68-1.84zm0 16.87-14.992-4.01c-.441-.15-.911-.19-1.371-.12s-.897.25-1.275.52c-.365.27-.657.63-.849 1.05-.193.41-.28.86-.254 1.32v1.88c.016 1.08.404 2.12 1.098 2.95.66.88 1.592 1.51 2.651 1.81l14.992 4.01c.441.15.911.18 1.369.11.457-.08.891-.26 1.263-.54.362-.27.652-.62.846-1.02s.285-.85.266-1.3v-1.88c-.018-1.07-.392-2.1-1.064-2.93-.657-.9-1.603-1.55-2.68-1.85z" fill="#fff"/><path d="m534.364 2056.82c-.068.28-.229.53-.457.71-.215.15-.473.23-.736.22-.211-.03-.414-.1-.594-.22-.077-.1-.126-.22-.143-.34-.016-.13 0-.26.048-.37l5.93-22.12-5.094 4.03c-.198.17-.447.27-.708.28-.116.01-.232-.01-.337-.06s-.197-.12-.266-.22c-.067-.1-.11-.21-.127-.32-.018-.12-.008-.24.027-.35.116-.24.269-.46.451-.65l7.123-5.64c.197-.17.446-.26.703-.26.113 0 .224.02.328.06.103.04.196.11.271.19.074.09.124.2.144.32s.01.24-.03.35zm11.252 0c-.068.28-.229.53-.456.71-.216.15-.474.23-.737.22-.211-.03-.414-.1-.594-.22-.077-.1-.126-.22-.142-.34-.017-.13-.001-.26.047-.37l5.925-22.12-5.089 4.03c-.197.17-.447.27-.708.28-.116.01-.231-.01-.337-.06-.105-.05-.197-.12-.266-.22-.069-.09-.114-.21-.13-.32-.017-.12-.005-.24.035-.35.11-.24.261-.46.446-.65l7.123-5.64c.197-.17.446-.26.703-.26.112-.01.223.01.326.06.103.04.195.11.268.19.076.09.127.2.148.32s.011.24-.029.35zm14.882-6.56h2.832c.111 0 .22.02.317.08.097.05.179.13.239.22.071.09.119.19.142.3.022.11.017.22-.014.33-.072.25-.215.47-.413.64-.21.2-.487.31-.775.3h-2.832l-1.254 4.69c-.072.28-.232.53-.456.71-.215.15-.474.23-.737.22-.209-.03-.41-.11-.589-.22-.078-.1-.128-.22-.144-.34-.017-.13 0-.26.049-.37l1.254-4.69h-6.557c-.115.01-.231-.01-.337-.05-.106-.05-.199-.12-.271-.21-.064-.1-.105-.2-.121-.31s-.005-.22.031-.33l.076-.22 8.771-18.74c.092-.24.259-.44.475-.57l.628-.19c.112 0 .225.02.328.06.104.05.196.12.27.2.076.09.126.2.145.32.02.12.007.24-.035.35l-.072.2-8.244 17.62h5.417l1.264-4.71c.084-.24.24-.46.447-.62.199-.19.463-.3.741-.31.107-.01.213.01.311.05.099.05.187.11.259.19.08.09.133.21.153.33s.007.25-.039.36zm30.169-21.41c-.038.15-.108.3-.204.42l-23.574 31.85c-.102.17-.25.31-.427.4-.184.08-.375.13-.571.16-.117.01-.233-.01-.341-.06-.108-.04-.204-.11-.281-.2-.075-.09-.125-.2-.143-.31-.019-.12-.005-.24.038-.35.039-.15.109-.29.205-.41l23.587-31.83.328-.32.646-.24c.115-.01.23 0 .335.05s.198.12.269.21c.08.08.134.18.158.3.023.11.015.23-.025.33z" fill="#fff"/><path d="m597.743 2063.17 13.025-32.32m4.647 16.28v-1.4l-.228-1.16-.238-1.16-.461-1.16-.698-.94-.466-1.15-.931-.94-.932-.7-.926-.93-.936-.46-1.155-.47-1.169-.46-1.159-.24-1.164-.23h-1.397l-1.16.23-1.164.24-1.164.46-1.16.47-.931.46-.927.93-.931.7-.931.94-.699 1.15-.465.94-.466 1.16-.233 1.16-.233 1.16-.233 1.4.233 1.16.233 1.16.233 1.16.466 1.17.465 1.16.699.93.931.93.931.93.927.7.931.47 1.16.69 1.164.23 1.164.24 1.16.23h1.397l1.164-.23 1.159-.24 1.169-.23 1.155-.69.936-.47.926-.7.932-.93.931-.93.466-.93.698-1.16.461-1.17.238-1.16.228-1.16z" stroke="#fff" stroke-miterlimit="10" stroke-width="1.18693"/><path d="m632.588 2056.83c-.07.28-.23.53-.457.71-.215.15-.473.23-.736.23-.213-.04-.417-.11-.599-.23-.076-.1-.123-.22-.138-.34-.015-.13.003-.25.053-.37l5.92-22.12-5.094 4.03c-.197.17-.449.27-.712.28-.116.01-.231-.01-.336-.06-.104-.05-.195-.13-.263-.22-.069-.1-.114-.21-.131-.33-.017-.11-.007-.23.031-.35.115-.23.269-.45.456-.64l7.118-5.64c.199-.16.449-.26.708-.26.113 0 .225.02.328.06.104.04.196.11.271.19.074.1.124.2.144.32s.01.24-.03.35zm15.661.93h-11.219c-.113 0-.225-.03-.325-.08-.101-.05-.188-.13-.254-.22-.059-.11-.096-.23-.108-.35-.013-.12 0-.24.036-.36.044-.17.131-.33.252-.45l14.469-15.56.594-.73.457-.66c.261-.43.461-.89.593-1.38.184-.55.218-1.13.098-1.69-.119-.57-.388-1.09-.777-1.51-.367-.42-.824-.75-1.335-.97-.555-.24-1.156-.37-1.763-.36-.914.01-1.809.26-2.599.71-1.008.61-1.856 1.45-2.471 2.46-.109.18-.259.33-.437.44-.184.09-.377.14-.575.17-.115.01-.23-.01-.336-.05-.106-.05-.201-.11-.277-.2s-.126-.2-.146-.32c-.02-.11-.009-.23.032-.34l.147-.34c.817-1.4 1.978-2.58 3.374-3.42 1.119-.67 2.4-1.03 3.706-1.03.81-.03 1.616.12 2.362.44.746.31 1.413.79 1.953 1.4.553.61.935 1.36 1.108 2.17.172.81.129 1.65-.125 2.44-.173.63-.432 1.24-.77 1.8-.442.72-.949 1.39-1.515 2.02l-13.101 14.09h9.456c.111 0 .219.03.316.09.097.05.179.13.24.22.071.09.119.19.142.3.022.11.017.23-.014.33-.074.25-.217.47-.413.64-.209.2-.487.31-.775.3zm19.373-5.62c-.443 1.58-1.397 2.98-2.713 3.96-1.244 1.05-2.812 1.64-4.438 1.66h-1.882c-.664.02-1.324-.12-1.925-.4s-1.127-.7-1.534-1.23c-.429-.56-.714-1.22-.83-1.91-.116-.7-.059-1.41.165-2.08l4.019-14.99c.448-1.57 1.39-2.95 2.685-3.94 1.241-1.07 2.817-1.67 4.453-1.69h1.877c.678-.03 1.356.1 1.972.38.617.29 1.153.72 1.563 1.27.412.56.682 1.22.787 1.91.106.7.045 1.4-.179 2.07zm-1.877 0 4.015-14.99c.147-.44.188-.91.118-1.37-.069-.46-.246-.9-.517-1.28-.272-.36-.631-.66-1.044-.85s-.867-.28-1.322-.25h-1.877c-1.08.01-2.121.4-2.951 1.09-.878.66-1.512 1.6-1.805 2.66l-4.016 14.99c-.143.44-.179.91-.104 1.37s.259.89.537 1.26c.265.36.614.65 1.018.85.403.19.848.28 1.296.26h1.877c1.068-.01 2.101-.39 2.932-1.06.902-.66 1.552-1.6 1.843-2.68z" fill="#fff"/><path d="m357.88 1454.04c1.583.45 2.975 1.4 3.963 2.71 1.048 1.25 1.633 2.82 1.659 4.44v1.88c.02.67-.117 1.33-.4 1.93-.284.6-.705 1.12-1.23 1.52-.558.44-1.215.72-1.912.84-.696.12-1.411.06-2.08-.17l-14.991-4.01c-1.568-.45-2.95-1.39-3.94-2.69-1.069-1.24-1.666-2.81-1.686-4.45v-1.87c-.036-.68.095-1.36.381-1.98.287-.61.72-1.15 1.263-1.56.568-.41 1.225-.68 1.918-.78.692-.11 1.4-.05 2.064.18zm0 16.87c1.584.44 2.977 1.4 3.963 2.71 1.049 1.25 1.635 2.82 1.659 4.44v1.88c.021.66-.116 1.32-.4 1.92-.283.6-.705 1.13-1.23 1.53-.559.43-1.216.72-1.912.84-.697.11-1.411.05-2.08-.17l-14.991-4.02c-1.57-.44-2.952-1.39-3.94-2.69-1.068-1.23-1.665-2.81-1.686-4.44v-1.88c-.036-.68.095-1.35.381-1.97.287-.62.72-1.16 1.263-1.57.568-.41 1.225-.67 1.918-.78.693-.1 1.4-.04 2.064.19zm0 16.86c1.584.45 2.977 1.4 3.963 2.72 1.048 1.24 1.633 2.81 1.659 4.44v1.87c.021.67-.116 1.33-.399 1.93s-.705 1.13-1.231 1.53c-.559.43-1.216.72-1.912.83-.697.12-1.411.06-2.08-.16l-14.991-4.02c-1.568-.45-2.949-1.39-3.94-2.68-1.068-1.24-1.665-2.82-1.686-4.46v-1.87c-.036-.68.095-1.36.381-1.97.287-.62.721-1.16 1.263-1.57.568-.41 1.225-.68 1.918-.78.692-.11 1.4-.04 2.064.18zm0 16.93c1.584.44 2.977 1.39 3.963 2.71 1.045 1.23 1.63 2.79 1.659 4.4v4.71c.009.11-.009.23-.055.34-.045.11-.116.2-.207.28-.102.06-.215.09-.331.1s-.233 0-.343-.04c-.218-.08-.414-.21-.575-.38-.115-.1-.207-.22-.27-.36s-.096-.29-.096-.44v-4.71c-.012-1.08-.396-2.12-1.088-2.94-.663-.88-1.597-1.51-2.657-1.8l-3.749-1.01c-.439-.14-.907-.19-1.366-.12s-.896.24-1.276.51c-.362.27-.651.62-.841 1.04-.19.41-.275.86-.247 1.31v4.71c0 .62-.313.85-.936.68l-11.261-3.01c-.277-.05-.527-.2-.701-.42s-.259-.49-.24-.77v-9.38c0-.11.027-.22.081-.32.053-.09.129-.18.223-.24.087-.07.191-.12.302-.14s.226-.02.335.02c.247.07.468.21.636.4.197.21.304.49.3.78v8.44l9.384 2.52v-3.77c-.037-.68.094-1.35.383-1.97.289-.61.725-1.14 1.271-1.55.566-.4 1.219-.66 1.906-.77.687-.1 1.388-.04 2.047.18zm0-48.78-14.991-4.02c-.442-.14-.911-.18-1.371-.11s-.897.24-1.276.51c-.364.28-.656.63-.848 1.05-.192.41-.28.86-.254 1.32v1.87c.014 1.08.4 2.12 1.093 2.95.66.88 1.594 1.52 2.656 1.81l14.991 4.02c.442.14.911.18 1.369.1.458-.07.892-.26 1.264-.53.361-.27.65-.62.844-1.02.194-.41.286-.85.268-1.3v-1.88c-.018-1.06-.393-2.1-1.065-2.93-.658-.9-1.603-1.55-2.68-1.84zm0 16.86-14.991-4.01c-.442-.15-.912-.19-1.372-.12s-.897.25-1.275.52c-.365.27-.656.63-.849 1.04-.192.42-.279.87-.253 1.32v1.88c.014 1.08.4 2.12 1.093 2.95.662.88 1.596 1.52 2.656 1.81l14.991 4.01c.441.15.911.18 1.369.11.458-.08.891-.26 1.264-.54.361-.26.652-.61.846-1.02.194-.4.285-.85.266-1.29v-1.88c-.017-1.07-.391-2.1-1.065-2.93-.657-.9-1.602-1.55-2.68-1.85zm0 16.87-14.991-4.01c-.442-.15-.911-.19-1.371-.12s-.897.25-1.276.52c-.365.27-.657.63-.85 1.04-.192.41-.279.87-.252 1.32v1.88c.015 1.08.401 2.12 1.093 2.94.661.88 1.595 1.52 2.656 1.81l14.991 4.02c.442.14.911.18 1.369.1.458-.07.892-.26 1.264-.53.361-.27.651-.62.845-1.02s.286-.85.267-1.3v-1.87c-.018-1.07-.393-2.1-1.065-2.94-.658-.9-1.603-1.55-2.68-1.84z" fill="#fff"/><path d="m536.355 520.734 12.792-32.093m4.88 16.046v-1.164l-.228-1.159-.238-1.165-.466-1.164-.693-1.159-.699-.936-.698-.922-.932-.936-.926-.694-1.169-.698-.927-.466-1.164-.466-1.164-.233h-3.716l-1.164.233-1.164.466-1.165.466-.926.698-1.164.694-.699.936-.931.922-.694.936-.466 1.159-.465 1.164-.466 1.165v1.159l-.233 1.164.233 1.164v1.16l.466 1.164.465 1.159.466 1.165.694.931.931.931.699.932 1.164.693.926.699 1.165.466 1.164.465 1.164.233h3.716l1.164-.233 1.164-.465.927-.466 1.169-.699.926-.693.932-.932.698-.931.699-.931.693-1.165.466-1.159.238-1.164.228-1.16z" stroke="#fff" stroke-miterlimit="10" stroke-width="1.18693"/><path d="m583.257 490.347-12.179 24.362c-.141.196-.302.378-.48.542l-.618.185c-.223.002-.44-.076-.613-.219-.079-.092-.131-.203-.152-.323s-.009-.243.034-.356l.099-.242 11.614-23.222h-9.162l-.499 1.858c-.068.282-.228.533-.456.713-.214.15-.47.229-.732.223-.213-.032-.417-.108-.598-.223-.078-.1-.128-.219-.144-.344-.017-.125 0-.253.049-.369l.75-2.789c.049-.276.197-.524.417-.697.221-.173.497-.258.776-.24h11.281c.116-.01.233.005.342.045.109.041.208.105.29.188.068.088.113.192.129.302.017.109.005.222-.034.326zm.755 11.138c.731-2.658 2.075-5.108 3.925-7.151 2.014-2.293 4.581-4.033 7.456-5.056l.418-.072c.11-.007.22.017.317.07s.176.133.229.23c.058.1.094.212.107.327s.003.232-.031.343c-.046.17-.131.328-.247.461-.172.168-.373.305-.594.404l-.389.128-.466.185-.903.409c-.575.295-1.131.626-1.663.993-1.074.736-2.057 1.597-2.927 2.566-.69.787-1.315 1.63-1.868 2.518-.531.803-.939 1.681-1.211 2.604h5.616c.685-.044 1.369.083 1.993.368.623.285 1.166.72 1.581 1.267.402.572.664 1.232.764 1.924.1.693.035 1.4-.189 2.063l-1.008 3.753c-.437 1.591-1.39 2.991-2.708 3.982-1.244 1.039-2.808 1.617-4.429 1.635h-1.882c-.663.022-1.322-.113-1.923-.396-.6-.283-1.125-.704-1.531-1.229-.432-.559-.719-1.215-.836-1.912-.117-.696-.06-1.41.166-2.08zm1.654.836-2.01 7.498c-.144.442-.179.911-.104 1.369s.259.892.536 1.264c.266.362.616.653 1.02.847.405.195.851.288 1.299.27h1.877c1.082-.012 2.128-.397 2.96-1.089.879-.662 1.513-1.598 1.801-2.661l1.003-3.753c.148-.44.192-.907.129-1.367-.064-.459-.233-.897-.495-1.28-.273-.368-.634-.661-1.05-.853-.416-.191-.874-.276-1.331-.245z" fill="#fff"/><path d="m549.144 368.914 13.02-32.094m4.652 16.047v-1.164l-.233-1.16-.233-1.164-.461-1.164-.47-1.16-.694-.931-.931-.927-.932-.936-.926-.693-.936-.699-1.16-.466-1.164-.465-1.164-.233h-3.716l-1.164.233-1.164.465-1.164.466-.927.699-.931.693-.932.936-.931.927-.694.931-.466 1.16-.465 1.164-.233 1.164-.233 1.16v2.328l.233 1.392.233 1.169.465 1.159.466.932.694.931.931.927.932.931.931.694.927.698 1.164.466 1.164.466 1.164.233 1.159.232h1.398l1.159-.232 1.164-.233 1.164-.466 1.16-.466.936-.698.926-.694.932-.931.931-.927.694-.931.47-.932.461-1.159.233-1.169.233-1.392v-1.165" stroke="#fff" stroke-miterlimit="10" stroke-width="1.18693"/><path d="m579.975 349.708c.732-2.657 2.076-5.107 3.925-7.151 2.013-2.294 4.58-4.035 7.456-5.056l.418-.081c.111-.005.221.02.319.074.097.053.177.133.232.23.058.102.094.214.107.33.012.116 0 .234-.036.345-.044.17-.129.326-.247.456-.167.169-.366.305-.584.399l-.395.133-.47.19-.903.409c-.576.291-1.13.623-1.658.993-1.074.737-2.058 1.596-2.932 2.561-.685.792-1.309 1.634-1.868 2.519-.53.804-.937 1.683-1.206 2.609h5.611c.685-.045 1.37.08 1.994.365.625.284 1.169.718 1.584 1.264.403.574.664 1.234.763 1.928.099.693.033 1.401-.192 2.064l-1.003 3.749c-.438 1.591-1.393 2.992-2.713 3.982-1.243 1.04-2.808 1.619-4.429 1.639h-1.877c-.664.022-1.325-.114-1.926-.398-.601-.283-1.127-.706-1.533-1.232-.431-.558-.717-1.214-.833-1.91-.116-.695-.059-1.409.168-2.077zm1.659.832-2.01 7.498c-.144.441-.179.91-.104 1.368s.259.892.536 1.264c.264.362.614.652 1.018.846.403.194.849.285 1.296.266h1.882c1.08-.011 2.124-.394 2.955-1.083.879-.663 1.513-1.599 1.801-2.662l1.008-3.748c.148-.441.192-.909.128-1.369-.063-.46-.232-.899-.494-1.283-.274-.368-.636-.661-1.053-.852-.417-.192-.875-.276-1.333-.246zm26.158 7.498c-.445 1.584-1.401 2.977-2.718 3.963-1.244 1.047-2.812 1.632-4.438 1.658h-1.882c-.664.022-1.325-.114-1.926-.398-.601-.283-1.127-.706-1.533-1.232-.431-.559-.717-1.216-.833-1.912s-.059-1.411.168-2.079l4.015-14.992c.446-1.568 1.39-2.949 2.689-3.935 1.239-1.07 2.816-1.669 4.453-1.691h1.877c.678-.036 1.356.095 1.972.382.616.286 1.153.72 1.563 1.262.412.567.682 1.224.787 1.917.106.693.045 1.401-.179 2.065zm-1.882 0 4.015-14.992c.148-.441.188-.91.119-1.369-.07-.459-.247-.896-.518-1.273-.271-.366-.63-.659-1.043-.852-.413-.194-.868-.281-1.323-.255h-1.882c-1.08.016-2.122.404-2.951 1.097-.877.662-1.512 1.594-1.805 2.652l-4.015 14.992c-.144.441-.179.91-.105 1.368.074.457.257.891.532 1.264.265.362.616.653 1.02.847.405.194.851.285 1.299.265h1.882c1.068-.018 2.1-.393 2.932-1.064.903-.656 1.554-1.602 1.843-2.68z" fill="#fff"/><path d="m483.802 524.922-13.02 2.557v-5.346z" stroke="#fff" stroke-miterlimit="10" stroke-width="1.18693"/><path d="m508.915 524.922 13.253-2.789v5.346z" stroke="#fff" stroke-miterlimit="10" stroke-width="1.18693"/><path d="m479.616 2019.89 13.258-2.55v5.11z" stroke="#fff" stroke-miterlimit="10" stroke-width="1.18693"/><path d="m513.102 2019.89-13.025 2.56v-5.11z" stroke="#fff" stroke-miterlimit="10" stroke-width="1.18693"/><path d="m506.358 373.094 13.02-2.789v5.345z" stroke="#fff" stroke-miterlimit="10" stroke-width="1.18693"/><path d="m486.591 373.094-13.257 2.556v-5.345z" stroke="#fff" stroke-miterlimit="10" stroke-width="1.18693"/><path d="m516.123 2067.11-13.257 2.56v-5.12z" stroke="#fff" stroke-miterlimit="10" stroke-width="1.18693"/><path d="m476.594 2067.11 13.257-2.56v5.12z" stroke="#fff" stroke-miterlimit="10" stroke-width="1.18693"/><path d="m372.649 469.352 2.557 13.024h-5.113z" stroke="#fff" stroke-miterlimit="10" stroke-width="1.18693"/><path d="m372.649 2117.12-2.556-13.03h5.113z" stroke="#fff" stroke-miterlimit="10" stroke-width="1.18693"/><path d="m422.875 1853.41 2.557 13.25h-5.118z" stroke="#fff" stroke-miterlimit="10" stroke-width="1.18693"/><path d="m422.875 1985.25-2.561-13.02h5.118z" stroke="#fff" stroke-miterlimit="10" stroke-width="1.18693"/><path d="m422.875 1985.26 2.557 13.26h-5.118z" stroke="#fff" stroke-miterlimit="10" stroke-width="1.18693"/><path d="m422.875 2117.12-2.561-13.03h5.118z" stroke="#fff" stroke-miterlimit="10" stroke-width="1.18693"/><path d="m496.505 2126.96v-1731.374" stroke="#fff" stroke-dasharray="100.37 6.69 6.69 6.69" stroke-linecap="round" stroke-linejoin="round" stroke-width="1.18693"/><path d="m483.8 524.953h-19.767" stroke="#fff" stroke-linecap="round" stroke-linejoin="round" stroke-width="1.18693"/><path d="m508.915 524.953h-25.118" stroke="#fff" stroke-linecap="round" stroke-linejoin="round" stroke-width="1.18693"/><path d="m508.915 524.953h86.273" stroke="#fff" stroke-linecap="round" stroke-linejoin="round" stroke-width="1.18693"/><path d="m513.101 2019.89h-33.485" stroke="#fff" stroke-linecap="round" stroke-linejoin="round" stroke-width="1.18693"/><path d="m513.102 2019.89h114.174" stroke="#fff" stroke-linecap="round" stroke-linejoin="round" stroke-width="1.18693"/><path d="m479.614 1968.74v57.67" stroke="#fff" stroke-linecap="round" stroke-linejoin="round" stroke-width="1.18693"/><path d="m513.102 1968.97v57.43" stroke="#fff" stroke-linecap="round" stroke-linejoin="round" stroke-width="1.18693"/><path d="m506.358 373.094h101.616" stroke="#fff" stroke-linecap="round" stroke-linejoin="round" stroke-width="1.18693"/><path d="m486.591 373.094h19.768" stroke="#fff" stroke-linecap="round" stroke-linejoin="round" stroke-width="1.18693"/><path d="m486.591 373.094h-19.767" stroke="#fff" stroke-linecap="round" stroke-linejoin="round" stroke-width="1.18693"/><path d="m506.358 408.911v-42.552" stroke="#fff" stroke-linecap="round" stroke-linejoin="round" stroke-width="1.18693"/><path d="m486.591 408.911v-42.552" stroke="#fff" stroke-linecap="round" stroke-linejoin="round" stroke-width="1.18693"/><path d="m516.123 2067.12h151.614" stroke="#fff" stroke-linecap="round" stroke-linejoin="round" stroke-width="1.18693"/><path d="m476.593 2067.12h39.529" stroke="#fff" stroke-linecap="round" stroke-linejoin="round" stroke-width="1.18693"/><path d="m372.649 2117.1v-1647.748" stroke="#fff" stroke-linecap="round" stroke-linejoin="round" stroke-width="1.18693"/><path d="m483.801 469.383h-117.663" stroke="#fff" stroke-linecap="round" stroke-linejoin="round" stroke-width="1.18693"/><path d="m459.386 2117.12h-93.248" stroke="#fff" stroke-linecap="round" stroke-linejoin="round" stroke-width="1.18693"/><path d="m422.877 1985.25v-131.84" stroke="#fff" stroke-linecap="round" stroke-linejoin="round" stroke-width="1.18693"/><path d="m495.894 1853.41h-79.53" stroke="#fff" stroke-linecap="round" stroke-linejoin="round" stroke-width="1.18693"/><path d="m495.894 1985.26h-79.53" stroke="#fff" stroke-linecap="round" stroke-linejoin="round" stroke-width="1.18693"/><path d="m422.877 2117.1v-131.84" stroke="#fff" stroke-linecap="round" stroke-linejoin="round" stroke-width="1.18693"/><path d="m495.894 1985.26h-79.53" stroke="#fff" stroke-linecap="round" stroke-linejoin="round" stroke-width="1.18693"/><path d="m459.387 2117.12h-43.018" stroke="#fff" stroke-linecap="round" stroke-linejoin="round" stroke-width="1.18693"/><path d="m483.802 524.922-13.02 2.557v-5.346" fill="#fff"/><path d="m508.915 524.922 13.253-2.789v5.346" fill="#fff"/><path d="m479.616 2019.89 13.258-2.55v5.11" fill="#fff"/><path d="m513.102 2019.89-13.025 2.56v-5.11" fill="#fff"/><path d="m506.358 373.094 13.02-2.789v5.345" fill="#fff"/><path d="m486.591 373.094-13.257 2.556v-5.345" fill="#fff"/><path d="m516.123 2067.11-13.257 2.56v-5.12" fill="#fff"/><path d="m476.594 2067.11 13.257-2.56v5.12" fill="#fff"/><path d="m372.649 469.352 2.557 13.024h-5.113" fill="#fff"/><path d="m372.649 2117.12-2.556-13.03h5.113" fill="#fff"/><path d="m422.875 1853.41 2.557 13.25h-5.118" fill="#fff"/><path d="m422.875 1985.25-2.561-13.02h5.118" fill="#fff"/><path d="m422.875 1985.26 2.557 13.26h-5.118" fill="#fff"/><path d="m422.875 2117.12-2.561-13.03h5.118" fill="#fff"/><path d="m518.448 2106.65h-44.182m-11.627 7.44h67.436m-53.48-8.36h39.762m-56.973 8.83h6.51m-6.51 2.56v-2.56m6.51 2.56h-6.51m67.436-2.56h-60.926m60.926 2.56h-60.926m0-2.56v2.56m60.926-2.56h6.743m-6.743 2.56v-2.56m6.743 2.56h-6.743m6.743-2.56v2.56m-37.667-131.85h.922m16.284-115.34v98.83m0-98.83v-1.62l-.237-1.86-.228-1.86-.466-1.63-.466-1.63-.698-1.63-.932-1.16-.926-1.16-1.164-1.17-1.863-.93-2.091-.93-2.095-.46-2.091-.23h-3.027m-.922 0h.922m-17.201 16.27v98.83m16.279-115.1h-3.958l-1.392.23-1.165.23-1.164.47-1.397.46-.926.46-1.625 1.4-1.63 1.39-.927 1.87-.936 1.85-.461 2.33-.465 2.56-.233 1.4v1.62m0 98.83.233 2.79v1.39l.228 1.4.465 1.17.233 1.16.466 1.39.47.93.694 1.16.698.93.699.7.926.93 1.863.93 2.091.93 2.096.47 2.323.23h2.794m.922 0h2.794l1.397-.23h1.159l1.397-.47 1.165-.23 1.164-.47 1.164-.46 1.62-1.39 1.397-1.4.932-1.86.931-1.86.699-2.33.228-2.55.237-1.63v-1.63m-17.439 10v.23h.233v.23l.228.24m.694 0v-.24l.238-.23v-.23m-.932.7h.694m-.694-.7h-.461m.927 0h.466m-.238-.47-.228-.23h-.466v.23m.932.47v-.23l-.238-.24m-.694 0h-.228v.24h-.233v.23m1.393.46-.694.24m0 0-.699-.24m0 0v-.93m0 0 .699-.23m0 0 .694.23m0 0v.93m1.159-.46v-.47l-.228-.46-.233-.47-.47-.23-.466-.23h-.922l-.466.23-.465.23-.238.47-.228.46v.47m0 0v.46l.228.47.238.46.465.24.466.23h.922l.466-.23.47-.24.233-.46.228-.47v-.46m-2.552-118.59v.23h.233v.23h.228m0 0v.23h.466v-.23h.228m0 0 .238-.23v-.23m-.932 0h-.461m.927 0h.466m0 0v-.47h-.238v-.23m0 0h-.694m0 0-.228.23v.23h-.233v.24m1.393.23-.694.46m0 0-.699-.46m0 0v-.7m0 0 .699-.23m0 0 .694.23m0 0v.7m1.159-.23v-.47l-.228-.47-.233-.46-.47-.23-.466-.24h-.922l-.466.24-.465.23-.238.46-.228.47v.47m0 0v.46l.228.47.238.46.465.24.466.22h.922l.466-.22.47-.24.233-.46.228-.47v-.46m10.696-1390.795h-25.108m12.787 1384.285h-.228m-16.745 16.27v99.07m16.279-115.58h.922m0 0 1.863.24h1.862l1.625.23 1.863.46 1.397.47 1.63.69 1.62 1.17 1.397 1.62 1.164 1.87.699 1.85.699 2.33.465 2.33v3.25m0 99.07v-99.07m-17.206 115.34h.922m-.456-131.61v-.24m-16.745 16.51.233-2.56v-1.39l.228-1.39.237-1.17.461-1.4.466-1.16.47-1.16.694-.93.698-.93.699-.93.926-.7 1.863-1.16 2.091-.7 2.096-.46 2.323-.23h1.397l1.397-.24m.466.24h-.238m-.228 131.61h-3.958l-1.392-.23-1.165-.24-1.396-.46-1.165-.47-.926-.46-1.858-1.39-1.397-1.4-.927-1.86-.936-1.86-.698-2.33-.228-2.55-.233-1.4v-1.62m16.507 16.27h.238m16.74-16.27v2.55l-.237 1.39-.228 1.4-.233 1.17-.466 1.39-.466 1.16-.465 1.16-.699.93-.698.93-.699.7-.926.93-1.863.93-1.858.93-2.096.47-2.323.23h-3.027m-.456 0h.228m-9.998-1576.356h9.77m0 0h9.997m-21.392 59.297h11.395m0 0h11.623m10.463 1638.439-.233-.23h-.233l-.465-.23-.229-.24h-.465l-.233-.22h-.233m-39.762 0h-.238l-.466.22h-.465l-.228.24-.233.23h-.233l-.466.23m0 0-11.627 7.44m67.436 0-11.627-7.44m13.252 7.91h-.698l-.228-.23h-.233l-.233-.24h-.233m-67.436 0-.228.24h-.471l-.228.23h-.698m22.789-1645.185v214.161m25.108 0v-214.161m-32.316 1285.215v351.14m39.529 0v-351.14m-32.321-1071.054-7.208 1071.054m39.529 0-7.213-1071.054m-22.319-274.622v59.297m19.767 0v-59.297m-21.392 59.297v1.164m23.018 0v-1.164m-13.258 1393.589-.228-.7-.237-.7v-.7l.237-.69.699-.71.698-.23.694-.23.466.23.698.23.461.71.238.69v.7l-.238.7-.461.7-.47.46-.694.23-.694-.23-.698-.24zm0 118.59-.228-.7-.237-.7v-.7l.237-.69.699-.7.698-.23.694-.24.466.24.698.23.461.7.238.69v.7l-.238.7-.461.7-.47.47-.694.22-.694-.22-.698-.24zm1.635-1.4h-.238v-.46h.466v.46zm0 0 .228-.23-.228-.23v.23zm0-118.59h-.238v-.47h.466v.47zm0-.23h.228v-.24h-.228z" stroke="#fff" stroke-linecap="round" stroke-linejoin="round" stroke-width="1.64746"/></svg>