<svg fill="none" height="1368" viewBox="0 0 3000 1368" width="3000" xmlns="http://www.w3.org/2000/svg"><path d="m0 0h3000v1368h-3000z" fill="#000"/><path d="m2615.45 348.799-1.73-21.036h-.28l-6.18 15.274h-7.5l-6.24-15.274h-.28l-1.67 21.036h-8.54l3.4-35.406h9.1l7.84 18.883h.28l7.85-18.883h9.09l3.4 35.406z" fill="#c8a563"/><path d="m2654.66 348.799v-21.244h-.21l-14.3 21.244h-7.85v-35.406h8.61v21.243h.21l14.3-21.243h7.85v35.406z" fill="#c8a563"/><path d="m2702.75 313.393v35.406h-8.61v-14.51h-11.87v14.51h-8.61v-35.406h8.61v13.468h11.87v-13.468z" fill="#c8a563"/><g fill="#c8a563" opacity=".6"><path d="m2623.79 375.816c6.52 0 9.65 3.193 9.65 9.511 0 1.319-.14 2.846-.42 4.443l-3.89 22.146h-7.22l3.82-21.66c.21-1.111.28-2.152.28-3.055 0-3.679-1.67-5.346-5-5.346-2.22 0-4.93 1.597-7.01 3.472l-4.65 26.589h-7.22l3.81-21.66c.21-1.25.28-2.291.28-3.263 0-3.541-1.46-5.138-4.44-5.138-2.64 0-5.69 2.291-7.85 4.929l-4.37 25.132h-7.22l6.18-35.406h5.14l.76 3.749h.28c3.33-3.124 6.31-4.443 10.06-4.443 4.31 0 7.02 1.319 8.13 4.443 3.4-2.847 7.08-4.443 10.9-4.443z"/><path d="m2645.43 382.55h-6.46l2.43-6.04h12.29l-6.18 35.406h-7.22zm2.08-16.315c0-2.43 1.95-4.374 4.38-4.374s4.44 1.944 4.44 4.374-2.01 4.304-4.44 4.304-4.38-1.874-4.38-4.304z"/><path d="m2668.98 386.784-4.37 25.132h-7.22l6.18-35.406h5.14l.76 3.749h.28c3.47-3.124 6.73-4.443 10.69-4.443 6.53 0 9.58 3.193 9.58 9.511 0 1.319-.14 2.985-.42 4.582l-3.88 22.007h-7.22l3.81-21.521c.21-1.111.28-2.291.28-3.194 0-3.679-1.6-5.346-4.93-5.346-2.77 0-6.31 2.291-8.68 4.929z"/></g><path d="m300 275.234c0-13.761 11.155-24.916 24.915-24.916h373.73c13.76 0 24.915 11.155 24.915 24.916v189.356c0 13.76-11.155 24.915-24.915 24.915h-373.73c-13.76 0-24.915-11.155-24.915-24.915z" fill="#00b400"/><path d="m453.688 293.441h29.091l-51.695 89.366v.837h27.417v-24.487h26.161v24.487h23.022l-4.186 24.068h-18.836v32.231h-26.161v-32.231h-58.601v-21.975z" fill="#fff"/><path d="m573.939 377.365-9.209-3.767c-11.302 6.697-16.534 15.278-16.534 26.161 0 12.767 9.837 17.999 22.185 17.999s22.184-5.232 22.184-17.999c0-10.674-7.534-17.789-18.626-22.394zm-21.139-47.299c0 10.465 5.861 16.115 15.069 20.092l7.744 3.348c7.953-6.069 12.348-14.022 12.348-23.44 0-9.209-6.907-14.441-17.58-14.441-10.674 0-17.581 5.232-17.581 14.441zm43.323 33.277v.837c14.023 9 22.394 19.255 22.394 35.579 0 27.626-18.208 42.276-48.136 42.276-29.929 0-48.137-14.65-48.137-42.276 0-15.487 7.953-28.044 22.394-36.416v-.837c-10.674-5.86-17.789-17.162-17.789-32.44 0-24.696 15.696-38.718 43.532-38.718 27.835 0 43.532 14.022 43.532 38.718 0 14.232-7.953 25.952-17.79 33.277z" fill="#fff"/><path d="m878.494 301.92v41.943h14.097v-41.943h7.5v41.943h14.097v-41.943h7.5v48.61h-50.694v-48.61z" fill="#fff"/><path d="m939.962 350.53h-6.458v-35.416h7.222v23.611h.278l16.319-23.611h6.458v35.416h-7.222v-23.611h-.278z" fill="#fff"/><path d="m982.093 349.349v15.07l-7.222 1.388v-50.693h5.139l1.389 3.75h.278c2.499-2.708 5.347-4.444 10.069-4.444 10.004 0 14.304 7.847 14.304 18.402s-4.37 18.402-14.929 18.402c-3.611 0-6.458-.694-9.028-1.875zm7.847-4.166c5.486 0 8.75-4.514 8.75-12.361 0-7.291-2.917-12.361-9.028-12.361-2.916 0-5.416 1.736-7.569 4.375v17.847c2.222 1.597 4.722 2.5 7.847 2.5z" fill="#fff"/><path d="m1029.32 320.461c-5.42 0-8.96 4.583-8.96 12.361s3.54 12.361 8.96 12.361 8.96-4.583 8.96-12.361-3.54-12.361-8.96-12.361zm0 30.763c-9.86 0-16.32-6.874-16.32-18.402 0-11.527 6.46-18.402 16.32-18.402s16.32 6.875 16.32 18.402c0 11.528-6.46 18.402-16.32 18.402z" fill="#fff"/><path d="m1082.68 315.114-11.05 17.083 11.74 18.333-7.36.694-10.21-16.041h-3.89v15.347h-7.22v-35.416h7.22v14.305h3.96l9.31-14.305z" fill="#fff"/><path d="m1107.4 335.322h-7.43c-3.47 0-5.97 1.944-5.97 5.139 0 3.194 2.36 4.722 5.21 4.722 3.4 0 6.11-1.736 8.19-4.375zm-7.15-5.625h7.15v-2.361c0-4.236-1.81-6.875-7.01-6.875-3.2 0-6.32.695-9.59 1.875l-2.08-5.625c4.1-1.527 8.06-2.291 12.5-2.291 10.83 0 13.4 5.694 13.4 13.055v14.861c0 1.736.97 2.5 2.5 2.5h.77v5.347c-1.05.416-2.78.694-4.17.694-3.26 0-5-1.944-5.63-4.097h-.27c-2.57 2.569-5.42 4.097-10 4.097-6.74 0-10.97-3.333-10.97-10.555 0-6.736 5.55-10.625 13.4-10.625z" fill="#fff"/><path d="m1122.08 350.53 8.89-13.819c-4.16-1.667-6.52-5.278-6.52-10.347 0-6.875 4.65-11.25 12.29-11.25h13.96v35.416h-7.23v-12.847h-5.48l-7.64 12.847zm9.73-24.027c0 3.125 2.15 5.208 5.62 5.208h6.04v-10.555h-6.04c-3.47 0-5.62 2.222-5.62 5.347z" fill="#fff"/><path d="m1187.1 349.349v15.07l-7.22 1.388v-50.693h5.14l1.38 3.75h.28c2.5-2.708 5.35-4.444 10.07-4.444 10 0 14.31 7.847 14.31 18.402s-4.38 18.402-14.93 18.402c-3.61 0-6.46-.694-9.03-1.875zm7.85-4.166c5.48 0 8.75-4.514 8.75-12.361 0-7.291-2.92-12.361-9.03-12.361-2.92 0-5.42 1.736-7.57 4.375v17.847c2.22 1.597 4.72 2.5 7.85 2.5z" fill="#fff"/><path d="m1248.56 328.655c0 1.806-.21 3.75-.62 5.834h-22.5c.48 6.875 4.1 10.694 10.48 10.694 3.2 0 6.25-1.111 8.82-2.431l2.36 5.486c-3.4 1.736-7.36 2.986-11.87 2.986-10.42 0-17.22-6.805-17.22-18.402 0-11.666 6.39-18.402 15.97-18.402 9.51 0 14.58 5.555 14.58 14.235zm-14.44-8.194c-4.79 0-7.78 3.403-8.4 8.403h16.39c0-4.861-2.64-8.403-7.99-8.403z" fill="#fff"/><path d="m1267.73 337.544c-7.01 0-12.22-3.68-12.22-11.458v-10.972h7.22v10.347c0 4.236 2.64 6.042 6.11 6.042 2.71 0 4.79-.556 6.74-1.25v-15.139h7.22v35.416h-7.22v-14.444c-1.95.764-4.93 1.458-7.85 1.458z" fill="#fff"/><path d="m1321.93 315.114-11.04 17.083 11.73 18.333-7.36.694-10.21-16.041h-3.89v15.347h-7.22v-35.416h7.22v14.305h3.96l9.31-14.305z" fill="#fff"/><path d="m1346.65 335.322h-7.43c-3.47 0-5.97 1.944-5.97 5.139 0 3.194 2.36 4.722 5.21 4.722 3.4 0 6.11-1.736 8.19-4.375zm-7.15-5.625h7.15v-2.361c0-4.236-1.8-6.875-7.01-6.875-3.19 0-6.32.695-9.58 1.875l-2.09-5.625c4.1-1.527 8.06-2.291 12.5-2.291 10.84 0 13.41 5.694 13.41 13.055v14.861c0 1.736.97 2.5 2.5 2.5h.76v5.347c-1.04.416-2.78.694-4.17.694-3.26 0-5-1.944-5.62-4.097h-.28c-2.57 2.569-5.42 4.097-10 4.097-6.74 0-10.97-3.333-10.97-10.555 0-6.736 5.55-10.625 13.4-10.625z" fill="#fff"/><path d="m2060.1 349.402c0-13.884-6.11-23.743-16.8-23.743-9.44 0-16.66 6.387-16.66 17.912 0 11.524 7.22 17.911 16.66 17.911 7.08 0 13.89-4.859 16.8-12.08zm-2.5 19.023-.41-.278c-4.45 4.165-10.56 5.97-17.64 5.97-16.52 0-27.91-10.969-27.91-30.546 0-19.022 13.47-31.241 31.66-31.241 19.58 0 31.52 13.191 31.52 35.684 0 34.712-19.44 55.956-48.18 64.286l-5.28-11.385c16.53-6.248 31.66-15.69 36.24-32.49z" fill="#fff"/><path d="m2416 313.715h35.13v83.864h22.49v13.329h-62.48v-13.329h25.41v-70.535h-23.33z" fill="#c8a563"/><path d="m2515.36 398.967c10.13 0 18.74-6.248 18.74-19.299 0-13.052-9.3-19.856-20.27-19.856-11.8 0-20.13 4.166-20.13 4.166v-50.263h51.92l-2.77 13.329h-34.58v20.827c2.64-.555 6.25-.833 8.61-.833 17.78 0 32.35 10.553 32.35 32.63 0 21.382-15.27 32.629-32.9 32.629-12.22 0-20.27-3.194-28.19-8.192l7.08-11.663c5.83 3.887 11.53 6.525 20.14 6.525z" fill="#c8a563"/><path d="m300 568.062c0-13.761 11.155-24.916 24.915-24.916h373.73c13.76 0 24.915 11.155 24.915 24.916v189.356c0 13.761-11.155 24.916-24.915 24.916h-373.73c-13.76 0-24.915-11.155-24.915-24.916z" fill="#00b400"/><path d="m447.035 659.52c0 49.601-20.092 75.344-52.322 75.344-32.231 0-52.322-25.743-52.322-75.344 0-49.602 20.091-75.344 52.322-75.344 32.23 0 52.322 25.742 52.322 75.344zm-77.646 0c0 35.997 10.883 51.066 25.324 51.066s25.324-15.069 25.324-51.066c0-35.998-10.883-51.067-25.324-51.067s-25.324 15.069-25.324 51.067z" fill="#fff"/><path d="m473.106 586.269h80.367l-4.186 24.277h-50.02v27.208c3.349-.628 7.116-1.256 10.465-1.256 26.789 0 49.182 15.906 49.182 49.183 0 32.23-24.068 49.183-50.647 49.183-18.418 0-31.603-4.814-43.532-12.348l12.975-21.139c8.372 5.442 17.162 9.209 29.092 9.209 13.185 0 25.114-8.162 25.114-24.905 0-16.953-12.976-25.743-27.417-25.743-16.952 0-31.393 6.07-31.393 6.07z" fill="#fff"/><path d="m644.842 627.08c0-11.511-6.488-18.627-18.627-18.627-10.464 0-20.301 3.558-29.509 9.209l-12.348-21.138c16.743-9 28.672-12.348 45.834-12.348 25.742 0 41.648 14.65 41.648 40.183 0 32.231-27.835 62.996-53.368 83.297v.837h57.554l-4.186 24.278h-89.994v-22.185c28.673-21.557 62.996-55.461 62.996-83.506z" fill="#fff"/><path d="m2023.82 606.547h35.13v83.864h22.49v13.329h-62.48v-13.329h25.41v-70.535h-23.33z" fill="#fff"/><path d="m2107.62 655.143c0 25.826 7.78 36.656 18.88 36.656 11.11 0 18.89-10.83 18.89-36.656 0-25.825-7.78-36.655-18.89-36.655-11.1 0-18.88 10.83-18.88 36.655zm52.9 0c0 32.907-12.63 49.986-34.02 49.986-21.38 0-34.01-17.079-34.01-49.986s12.63-49.985 34.01-49.985c21.39 0 34.02 17.078 34.02 49.985z" fill="#fff"/><path d="m2421.23 606.545h35.13v83.864h22.49v13.329h-62.48v-13.329h25.41v-70.535h-23.32z" fill="#c8a563"/><path d="m2520.59 691.797c10.13 0 18.74-6.248 18.74-19.299 0-13.052-9.3-19.856-20.27-19.856-11.8 0-20.13 4.166-20.13 4.166v-50.263h51.93l-2.78 13.329h-34.57v20.827c2.63-.555 6.24-.833 8.61-.833 17.77 0 32.35 10.553 32.35 32.63 0 21.382-15.28 32.629-32.91 32.629-12.22 0-20.27-3.194-28.19-8.192l7.09-11.663c5.83 3.887 11.52 6.525 20.13 6.525z" fill="#c8a563"/><path d="m878.494 643.368h-7.5v-48.61h35.069v48.61h-7.5v-41.944h-20.069z" fill="#fff"/><path d="m932.074 613.299c-5.416 0-8.958 4.583-8.958 12.361s3.542 12.361 8.958 12.361c5.417 0 8.958-4.583 8.958-12.361s-3.541-12.361-8.958-12.361zm0 30.763c-9.861 0-16.319-6.875-16.319-18.402 0-11.528 6.458-18.402 16.319-18.402s16.319 6.874 16.319 18.402c0 11.527-6.458 18.402-16.319 18.402z" fill="#fff"/><path d="m952.251 642.465 1.666-5.764c.764.486 1.597.695 2.361.695 3.264 0 5.07-6.736 5.07-23.541v-5.903h23.68v35.416h-7.222v-29.374h-9.584v1.527c0 18.889-3.402 28.194-11.388 28.194-1.945 0-3.333-.417-4.583-1.25z" fill="#fff"/><path d="m1024.64 621.493c0 1.806-.21 3.75-.63 5.834h-22.5c.49 6.874 4.1 10.694 10.49 10.694 3.19 0 6.25-1.111 8.82-2.431l2.36 5.486c-3.4 1.736-7.36 2.986-11.88 2.986-10.41 0-17.218-6.805-17.218-18.402 0-11.666 6.388-18.402 15.968-18.402 9.52 0 14.59 5.555 14.59 14.235zm-14.45-8.194c-4.79 0-7.77 3.403-8.4 8.403h16.39c0-4.861-2.64-8.403-7.99-8.403z" fill="#fff"/><path d="m1048.88 638.021c2.43 0 5.13-.556 7.49-1.528l2.23 5.555c-2.99 1.32-6.11 2.014-9.72 2.014-11.46 0-17.3-8.194-17.3-18.402s5.49-18.402 16.95-18.402c3.33 0 6.73.625 9.72 1.875l-2.22 5.555c-2.36-.972-4.65-1.389-7.09-1.389-5.97 0-10 5-10 12.361s3.96 12.361 9.94 12.361z" fill="#fff"/><path d="m1073.44 620.868h6.94c7.64 0 12.64 4.167 12.64 11.32 0 7.152-5 11.18-12.64 11.18h-14.16v-35.416h7.22zm6.25 6.042h-6.25v10.416h6.25c3.68 0 5.97-1.944 5.97-5.208s-2.29-5.208-5.97-5.208z" fill="#fff"/><path d="m1129.14 621.493c0 1.806-.21 3.75-.62 5.834h-22.5c.48 6.874 4.09 10.694 10.48 10.694 3.2 0 6.25-1.111 8.82-2.431l2.36 5.486c-3.4 1.736-7.36 2.986-11.87 2.986-10.42 0-17.22-6.805-17.22-18.402 0-11.666 6.38-18.402 15.97-18.402 9.51 0 14.58 5.555 14.58 14.235zm-14.44-8.194c-4.8 0-7.78 3.403-8.41 8.403h16.39c0-4.861-2.64-8.403-7.98-8.403z" fill="#fff"/><path d="m300 860.9c0-13.761 11.155-24.916 24.915-24.916h373.73c13.76 0 24.915 11.155 24.915 24.916v189.36c0 13.76-11.155 24.91-24.915 24.91h-373.73c-13.76 0-24.915-11.15-24.915-24.91z" fill="#00b400"/><g fill="#fff"><path d="m414.549 879.107h80.367l-4.186 24.277h-50.02v27.208c3.349-.628 7.116-1.256 10.465-1.256 26.789 0 49.183 15.906 49.183 49.183 0 32.231-24.069 49.181-50.648 49.181-18.418 0-31.603-4.81-43.532-12.35l12.976-21.135c8.371 5.442 17.161 9.205 29.091 9.205 13.185 0 25.114-8.158 25.114-24.901 0-16.953-12.976-25.743-27.416-25.743-16.953 0-31.394 6.07-31.394 6.07z"/><path d="m553.008 940.637.628.419c6.279-4.186 14.441-6.488 22.813-6.488 24.905 0 43.113 16.534 43.113 46.044 0 28.668-21.347 47.088-48.764 47.088-29.51 0-48.555-21.14-48.555-53.786 0-52.95 32.44-84.343 75.763-96.9l8.999 19.254c-22.813 8.79-45.625 21.976-53.997 44.369zm17.79 17.162c-8.79 0-18.417 6.907-22.185 16.115 0 17.79 8.791 29.506 22.185 29.506 11.929 0 22.812-7.112 22.812-22.808 0-15.697-10.883-22.813-22.812-22.813z"/><path d="m878.494 936.197h-7.5v-48.61h35.069v48.61h-7.5v-41.943h-20.069z"/><path d="m913.672 906.823v-6.041h29.999l-1.389 6.041h-10.208v29.374h-7.152v-29.374z"/><path d="m956.712 936.197h-6.458v-35.415h7.222v23.61h.278l16.319-23.61h6.458v35.415h-7.222v-23.61h-.278z"/><path d="m1025.02 930.156-1.39 14.861h-5.83v-8.82h-26.178v-35.415h7.222v29.374h13.336v-29.374h7.22v29.374z"/><path d="m1059.77 914.323c0 1.805-.21 3.75-.63 5.833h-22.5c.49 6.875 4.1 10.694 10.49 10.694 3.19 0 6.25-1.111 8.82-2.43l2.36 5.486c-3.41 1.736-7.36 2.986-11.88 2.986-10.41 0-17.22-6.805-17.22-18.402 0-11.667 6.39-18.403 15.97-18.403 9.52 0 14.59 5.556 14.59 14.236zm-14.45-8.194c-4.79 0-7.78 3.402-8.4 8.402h16.39c0-4.861-2.64-8.402-7.99-8.402z"/><path d="m1085.6 930.503v-24.027c-.76-.208-2.01-.347-3.12-.347-5.98 0-8.48 5-8.48 12.361 0 7.36 2.5 12.36 8.48 12.36 1.11 0 2.29-.139 3.12-.347zm7.08 6.042v13.541l-7.22 1.389v-14.93c-.9.139-2.43.347-4.1.347-10.76 0-14.65-8.194-14.65-18.402 0-10.209 3.89-18.403 14.65-18.403 1.67 0 3.2.208 4.1.347v-14.93l7.22-1.389v16.319c.91-.139 2.43-.347 4.1-.347 10.76 0 14.65 8.194 14.65 18.403 0 10.208-3.89 18.402-14.65 18.402-1.67 0-3.19-.208-4.1-.347zm-.14-30.069v24.027c.77.208 2.02.347 3.13.347 5.97 0 8.47-5 8.47-12.36 0-7.361-2.5-12.361-8.47-12.361-1.11 0-2.36.139-3.13.347z"/><path d="m1138.6 920.989h-7.43c-3.48 0-5.98 1.945-5.98 5.139 0 3.195 2.36 4.722 5.21 4.722 3.4 0 6.11-1.736 8.2-4.375zm-7.16-5.624h7.16v-2.361c0-4.236-1.81-6.875-7.02-6.875-3.19 0-6.32.694-9.58 1.875l-2.08-5.625c4.09-1.528 8.05-2.292 12.5-2.292 10.83 0 13.4 5.694 13.4 13.055v14.861c0 1.736.97 2.5 2.5 2.5h.76v5.347c-1.04.417-2.78.695-4.17.695-3.26 0-5-1.945-5.62-4.097h-.28c-2.57 2.569-5.41 4.097-10 4.097-6.73 0-10.97-3.334-10.97-10.556 0-6.736 5.56-10.624 13.4-10.624z"/><path d="m1162.24 913.906c0 11.319 2.85 16.944 9.1 16.944 5.41 0 9.37-3.75 9.37-11.458s-3.61-11.527-8.54-11.527c-3.54 0-7.29 1.805-9.93 6.041zm24.16-24.027c-3.82 1.875-8.47 2.778-12.98 3.125-7.71.555-11.46 3.264-11.46 13.402h.21c3.05-3.194 6.67-4.583 11.25-4.583 8.68 0 14.65 5.764 14.65 17.569 0 11.528-6.87 17.5-16.73 17.5-11.46 0-16.32-8.542-16.32-22.708 0-22.361 6.25-26.458 17.7-27.499 5.21-.486 7.92-1.111 11.53-2.57z"/><path d="m1204.66 935.017v15.069l-7.22 1.389v-50.693h5.14l1.39 3.749h.28c2.5-2.708 5.34-4.444 10.07-4.444 10 0 14.3 7.847 14.3 18.403 0 10.555-4.37 18.402-14.93 18.402-3.61 0-6.46-.695-9.03-1.875zm7.85-4.167c5.49 0 8.75-4.513 8.75-12.36 0-7.292-2.92-12.361-9.03-12.361-2.91 0-5.41 1.736-7.57 4.375v17.846c2.23 1.598 4.73 2.5 7.85 2.5z"/><path d="m1244.11 936.197h-6.45v-35.415h7.22v23.61h.28l16.31-23.61h6.46v35.415h-7.22v-23.61h-.28z"/><path d="m1307.01 900.782-11.04 17.083 11.73 18.332-7.36.695-10.21-16.041h-3.88v15.346h-7.23v-35.415h7.23v14.305h3.95l9.31-14.305z"/><path d="m1331.73 920.989h-7.43c-3.47 0-5.97 1.945-5.97 5.139 0 3.195 2.36 4.722 5.21 4.722 3.4 0 6.11-1.736 8.19-4.375zm-7.15-5.624h7.15v-2.361c0-4.236-1.8-6.875-7.01-6.875-3.19 0-6.32.694-9.58 1.875l-2.09-5.625c4.1-1.528 8.06-2.292 12.5-2.292 10.84 0 13.41 5.694 13.41 13.055v14.861c0 1.736.97 2.5 2.5 2.5h.76v5.347c-1.04.417-2.78.695-4.17.695-3.26 0-5-1.945-5.62-4.097h-.28c-2.57 2.569-5.42 4.097-10 4.097-6.74 0-10.97-3.334-10.97-10.556 0-6.736 5.55-10.624 13.4-10.624z"/><path d="m2023.82 899.377h35.13v83.864h22.49v13.329h-62.48v-13.329h25.41v-70.535h-23.33z"/><path d="m2123.17 984.629c10.14 0 18.75-6.248 18.75-19.299 0-13.052-9.31-19.856-20.28-19.856-11.8 0-20.13 4.166-20.13 4.166v-50.263h51.93l-2.78 13.329h-34.57v20.827c2.64-.555 6.25-.833 8.61-.833 17.77 0 32.35 10.553 32.35 32.63 0 21.382-15.27 32.629-32.91 32.629-12.21 0-20.27-3.194-28.18-8.192l7.08-11.663c5.83 3.887 11.52 6.525 20.13 6.525z"/></g><path d="m2437.2 982.687v.556h39.57l-2.77 13.329h-58.32v-11.941c19.02-14.301 43.18-39.571 43.18-58.177 0-9.303-4.58-15.134-14.44-15.134-7.5 0-13.88 2.499-20.41 6.525l-6.66-11.663c11.1-5.97 18.32-8.192 29.71-8.192 17.08 0 26.94 9.72 26.94 26.659 0 21.383-19.86 44.57-36.8 58.038z" fill="#c8a563"/><path d="m2505.04 947.975c0 25.826 7.77 36.656 18.88 36.656s18.88-10.83 18.88-36.656c0-25.825-7.77-36.655-18.88-36.655s-18.88 10.83-18.88 36.655zm52.9 0c0 32.907-12.64 49.986-34.02 49.986s-34.02-17.079-34.02-49.986c0-32.906 12.64-49.985 34.02-49.985s34.02 17.079 34.02 49.985z" fill="#c8a563"/><path d="m300 1153.73c0-13.76 11.155-24.92 24.915-24.92h373.73c13.76 0 24.915 11.16 24.915 24.92v189.35c0 13.76-11.155 24.92-24.915 24.92h-373.73c-13.76 0-24.915-11.16-24.915-24.92z" fill="#00b400"/><path d="m447.035 1245.19c0 49.6-20.092 75.34-52.322 75.34-32.231 0-52.322-25.74-52.322-75.34 0-49.61 20.091-75.35 52.322-75.35 32.23 0 52.322 25.74 52.322 75.35zm-77.646 0c0 35.99 10.883 51.06 25.324 51.06s25.324-15.07 25.324-51.06c0-36-10.883-51.07-25.324-51.07s-25.324 15.07-25.324 51.07z" fill="#fff"/><path d="m473.106 1171.93h80.367l-4.186 24.28h-50.02v27.21c3.349-.63 7.116-1.26 10.465-1.26 26.789 0 49.182 15.91 49.182 49.19 0 32.23-24.068 49.18-50.647 49.18-18.418 0-31.603-4.81-43.532-12.35l12.975-21.14c8.372 5.44 17.162 9.21 29.092 9.21 13.185 0 25.114-8.16 25.114-24.9 0-16.96-12.976-25.75-27.417-25.75-16.952 0-31.393 6.07-31.393 6.07z" fill="#fff"/><path d="m611.565 1233.47.628.41c6.279-4.18 14.441-6.48 22.813-6.48 24.905 0 43.113 16.53 43.113 46.04 0 28.67-21.347 47.09-48.764 47.09-29.51 0-48.555-21.14-48.555-53.79 0-52.95 32.44-84.34 75.762-96.9l9 19.26c-22.813 8.79-45.625 21.97-53.997 44.37zm17.79 17.16c-8.79 0-18.418 6.9-22.185 16.11 0 17.79 8.79 29.51 22.185 29.51 11.929 0 22.812-7.11 22.812-22.81s-10.883-22.81-22.812-22.81z" fill="#fff"/><path d="m889.053 1186.39c-8.889 0-12.361 8.06-12.361 18.33 0 10.28 3.472 18.34 12.361 18.34 3.749 0 7.222-1.04 10.624-2.99l2.917 5.9c-4.375 2.5-8.055 3.75-13.541 3.75-14.445 0-20.139-10.97-20.139-25 0-14.02 5.694-25 20.139-25 4.444 0 8.055.7 12.708 3.13l-2.917 5.9c-3.403-1.73-6.736-2.36-9.791-2.36z" fill="#fff"/><path d="m923.397 1198.96c-5.417 0-8.958 4.58-8.958 12.36s3.541 12.36 8.958 12.36 8.958-4.58 8.958-12.36-3.541-12.36-8.958-12.36zm0 30.76c-9.861 0-16.319-6.87-16.319-18.4s6.458-18.4 16.319-18.4 16.319 6.87 16.319 18.4-6.458 18.4-16.319 18.4z" fill="#fff"/><path d="m963.973 1223.68c2.431 0 5.139-.55 7.5-1.53l2.222 5.56c-2.986 1.32-6.111 2.01-9.722 2.01-11.458 0-17.291-8.19-17.291-18.4s5.486-18.4 16.944-18.4c3.333 0 6.736.62 9.722 1.87l-2.222 5.56c-2.361-.97-4.653-1.39-7.083-1.39-5.972 0-10 5-10 12.36s3.958 12.36 9.93 12.36z" fill="#fff"/><path d="m1009.72 1193.61v35.42h-7.22v-15.21h-13.961v15.21h-7.222v-35.42h7.222v14.17h13.961v-14.17z" fill="#fff"/><path d="m1035.09 1198.96c-5.42 0-8.96 4.58-8.96 12.36s3.54 12.36 8.96 12.36 8.96-4.58 8.96-12.36-3.54-12.36-8.96-12.36zm0 30.76c-9.86 0-16.32-6.87-16.32-18.4s6.46-18.4 16.32-18.4 16.32 6.87 16.32 18.4-6.46 18.4-16.32 18.4z" fill="#fff"/><path d="m1080.46 1210.42c3.4.76 7.5 3.26 7.5 8.4 0 6.39-4.03 10.21-12.09 10.21h-15.41v-35.42h14.3c7.09 0 11.74 2.64 11.74 9.03 0 3.82-2.85 6.81-6.04 7.57zm-6.46 3.33h-6.32v9.24h7.01c3.68 0 5.91-1.46 5.91-4.59 0-3.12-2.43-4.65-6.6-4.65zm-.14-14.09h-6.18v8.05h5.69c3.27 0 5.77-1.04 5.77-4.03 0-3.12-2.22-4.02-5.28-4.02z" fill="#fff"/><path d="m1104.23 1193.61v12.92h6.32c7.64 0 12.64 4.17 12.64 11.32s-5 11.18-12.64 11.18h-13.54v-35.42zm31.39 0v35.42h-7.22v-35.42zm-25.76 18.96h-5.63v10.42h5.63c3.68 0 5.97-1.95 5.97-5.21s-2.29-5.21-5.97-5.21z" fill="#fff"/><path d="m1153.18 1229.03h-6.46v-35.42h7.22v23.61h.28l16.32-23.61h6.46v35.42h-7.23v-23.61h-.27zm15.48-50.35 4.66 3.06c-2.5 4.37-6.6 6.53-11.46 6.53-4.93 0-8.96-2.23-11.46-6.53l4.58-3.06c1.53 2.92 3.96 4.52 6.88 4.52 2.91 0 5.27-1.53 6.8-4.52z" fill="#fff"/><path d="m1211.61 1206.74c0 11.32 2.85 16.94 9.1 16.94 5.41 0 9.37-3.75 9.37-11.46 0-7.7-3.61-11.52-8.54-11.52-3.54 0-7.29 1.8-9.93 6.04zm24.17-24.03c-3.82 1.88-8.48 2.78-12.99 3.13-7.71.55-11.46 3.26-11.46 13.4h.21c3.06-3.2 6.67-4.58 11.25-4.58 8.68 0 14.65 5.76 14.65 17.56 0 11.53-6.87 17.5-16.73 17.5-11.46 0-16.32-8.54-16.32-22.7 0-22.36 6.25-26.46 17.71-27.5 5.21-.49 7.91-1.11 11.52-2.57z" fill="#fff"/><path d="m1261.05 1198.96c-5.42 0-8.96 4.58-8.96 12.36s3.54 12.36 8.96 12.36 8.96-4.58 8.96-12.36-3.54-12.36-8.96-12.36zm0 30.76c-9.86 0-16.32-6.87-16.32-18.4s6.46-18.4 16.32-18.4 16.32 6.87 16.32 18.4-6.46 18.4-16.32 18.4z" fill="#fff"/><path d="m1293.64 1227.85v15.07l-7.22 1.39v-50.7h5.14l1.39 3.75h.27c2.5-2.7 5.35-4.44 10.07-4.44 10 0 14.31 7.85 14.31 18.4 0 10.56-4.38 18.4-14.93 18.4-3.61 0-6.46-.69-9.03-1.87zm7.85-4.17c5.48 0 8.75-4.51 8.75-12.36 0-7.29-2.92-12.36-9.03-12.36-2.92 0-5.42 1.74-7.57 4.38v17.84c2.22 1.6 4.72 2.5 7.85 2.5z" fill="#fff"/><path d="m2023.82 1192.21h35.13v83.86h22.49v13.33h-62.48v-13.33h25.41v-70.53h-23.33z" fill="#fff"/><path d="m2127.75 1246.36-5.83-2.5c-8.05 4.72-12.22 11.24-12.22 19.16 0 10.14 7.09 14.44 16.8 14.44 9.72 0 16.8-4.86 16.8-14.44 0-8.33-7.35-13.19-15.55-16.66zm-14.99-30.27c0 8.33 5.97 12.49 13.05 15.41l4.44 1.81c6.39-4.45 10-10.14 10-17.22 0-7.5-5.83-11.94-13.75-11.94-7.91 0-13.74 4.44-13.74 11.94zm13.74 74.7c-19.02 0-31.24-10.28-31.24-27.77 0-10.97 6.67-19.58 16.11-24.44v-.41c-7.22-4.03-13.05-11.39-13.05-22.08 0-15.55 10.55-25.27 28.18-25.27 17.64 0 28.19 9.72 28.19 25.27 0 10.69-5.83 18.19-13.05 22.21v.42c9.44 4.86 16.11 13.33 16.11 24.3 0 17.49-12.22 27.77-31.25 27.77z" fill="#fff"/><path d="m2437.2 1270.29v.55h39.57l-2.77 13.33h-58.32v-11.94c19.02-14.3 43.18-39.57 43.18-58.17 0-9.31-4.58-15.14-14.44-15.14-7.5 0-13.88 2.5-20.41 6.53l-6.66-11.67c11.1-5.97 18.32-8.19 29.71-8.19 17.08 0 26.94 9.72 26.94 26.66 0 21.38-19.86 44.57-36.8 58.04z" fill="#c8a563"/><path d="m2505.04 1235.58c0 25.82 7.77 36.65 18.88 36.65s18.88-10.83 18.88-36.65c0-25.83-7.77-36.66-18.88-36.66s-18.88 10.83-18.88 36.66zm52.9 0c0 32.9-12.64 49.98-34.02 49.98s-34.02-17.08-34.02-49.98c0-32.91 12.64-49.99 34.02-49.99s34.02 17.08 34.02 49.99z" fill="#c8a563"/><path d="m879.535 3.4707v19.4387h18.189v-19.4387h8.886v48.5967h-8.886v-21.1048h-18.189v21.1048h-8.887v-48.5967z" fill="#fffefe"/><path d="m935.176 31.2402v-2.3604c0-3.4017-1.735-5.4844-5.97-5.4844-2.985 0-6.179.6942-9.442 1.8744l-2.568-6.9424c4.234-1.5967 8.33-2.3604 12.843-2.3604 10.83 0 13.746 5.6928 13.746 13.0517v13.4682c0 1.7356.972 2.4993 2.499 2.4993h.764v6.7341c-1.042.4165-3.194.6942-4.929.6942-3.124 0-5.138-1.1802-6.248-3.4017h-.278c-2.499 2.4992-5.276 3.4017-9.303 3.4017-6.734 0-10.969-3.3323-10.969-10.5524 0-6.8035 5.415-10.6219 13.26-10.6219zm-7.497 14.0931c2.846 0 5.623-1.3191 7.497-3.4712v-4.0266h-6.317c-3.194 0-4.999 1.5968-4.999 3.8878 0 2.3604 1.736 3.61 3.819 3.61z" fill="#fffefe"/><path d="m982.555 16.6612v35.4062h-8.608v-27.9778h-11.316v27.9778h-8.609v-35.4062z" fill="#fffefe"/><path d="m1000.85 19.7159h.28c2.29-2.2216 5.48-3.7489 9.16-3.7489 10 0 14.51 7.706 14.51 18.3973s-4.58 18.3973-15.13 18.3973c-2.99 0-5.83-.4859-8.12-1.2496v14.4402l-8.613 1.3885v-50.6795h6.526zm7.64 25.6174c4.65 0 7.57-4.0266 7.57-10.969 0-6.4564-2.64-10.9689-7.85-10.9689-2.36 0-4.72 1.319-6.66 3.4711v16.5923c1.94 1.1803 4.37 1.8745 6.94 1.8745z" fill="#fffefe"/><path d="m1050.57 31.2402v-2.3604c0-3.4017-1.74-5.4844-5.97-5.4844-2.99 0-6.18.6942-9.45 1.8744l-2.56-6.9424c4.23-1.5967 8.33-2.3604 12.84-2.3604 10.83 0 13.74 5.6928 13.74 13.0517v13.4682c0 1.7356.98 2.4993 2.5 2.4993h.77v6.7341c-1.04.4165-3.2.6942-4.93.6942-3.13 0-5.14-1.1802-6.25-3.4017h-.28c-2.5 2.4992-5.27 3.4017-9.3 3.4017-6.73 0-10.97-3.3323-10.97-10.5524 0-6.8035 5.42-10.6219 13.26-10.6219zm-7.5 14.0931c2.84 0 5.62-1.3191 7.5-3.4712v-4.0266h-6.32c-3.19 0-5 1.5968-5 3.8878 0 2.3604 1.74 3.61 3.82 3.61z" fill="#fffefe"/><path d="m1090.1 33.4618c4.58 1.1108 7.5 4.0266 7.5 8.678 0 6.1093-4.03 9.9276-12.08 9.9276h-16.11v-35.4062h14.72c6.8 0 12.01 2.3604 12.01 8.7474 0 3.8184-2.08 6.5259-6.04 7.8449zm-6.46 3.7489h-5.62v7.4283h5.62c3.27 0 5.21-1.1801 5.21-3.8183 0-2.6381-1.94-3.61-5.21-3.61zm-1.18-13.1211h-4.44v6.2481h4.44c3.13 0 4.93-.9025 4.93-3.124 0-2.291-2.15-3.1241-4.93-3.1241z" fill="#fffefe"/><path d="m1118.38 24.0896v.4165c0 18.4668-4.16 27.9084-12.08 27.9084-1.94 0-3.61-.4165-4.86-1.2496l2.15-6.873c.56.2777 1.05.4166 1.74.4166 2.71 0 4.79-4.582 4.79-23.5347v-4.5126h24.78v35.4062h-8.6v-27.9778z" fill="#fffefe"/><path d="m1161.24 45.3333c2.92 0 6.39-1.0414 8.82-2.291l2.98 6.7341c-3.4 1.7356-7.7 2.9852-12.21 2.9852-10.42 0-17.57-6.8035-17.57-18.3973 0-11.6632 6.25-18.3973 16.25-18.3973 9.23 0 14.99 5.7622 14.99 15.6898 0 .9719-.14 3.4018-.41 5.3456h-22.08c.9 5.4151 4.65 8.3309 9.23 8.3309zm-9.09-14.9261h14.51c0-4.0266-2.5-7.0118-7.01-7.0118-3.68 0-6.67 2.4298-7.5 7.0118z" fill="#fffefe"/><path d="m1211.92 16.6612v35.4062h-8.6v-14.5096h-11.88v14.5096h-8.6v-35.4062h8.6v13.4683h11.88v-13.4683z" fill="#fffefe"/><path d="m1244.72 52.0674v-21.2437h-.21l-14.3 21.2437h-7.85v-35.4062h8.61v21.2437h.21l14.3-21.2437h7.84v35.4062z" fill="#fffefe"/><path d="m1279.62 45.3333c2.91 0 6.38-1.0414 8.81-2.291l2.99 6.7341c-3.4 1.7356-7.71 2.9852-12.22 2.9852-10.41 0-17.57-6.8035-17.57-18.3973 0-11.6632 6.25-18.3973 16.25-18.3973 9.23 0 15 5.7622 15 15.6898 0 .9719-.14 3.4018-.42 5.3456h-22.08c.9 5.4151 4.65 8.3309 9.24 8.3309zm-9.1-14.9261h14.51c0-4.0266-2.5-7.0118-7.01-7.0118-3.68 0-6.67 2.4298-7.5 7.0118z" fill="#fffefe"/><g fill="#fffefe" opacity=".6"><path d="m876.132 134.298h7.845c9.442 0 15.967-11.177 15.967-23.673 0-7.359-3.471-11.5942-9.788-11.5942h-7.776zm6.665 6.665h-15.274l8.54-48.5969h15.273c10.622 0 16.453 6.5953 16.453 18.1199 0 16.592-9.858 30.477-24.992 30.477z"/><path d="m918.064 111.597h-6.456l2.429-6.04h12.288l-6.178 35.406h-7.22zm2.083-16.3151c0-2.4298 1.944-4.3737 4.373-4.3737 2.43 0 4.444 1.9439 4.444 4.3737s-2.014 4.3043-4.444 4.3043c-2.429 0-4.373-1.8745-4.373-4.3043z"/><path d="m956.544 105.557-3.541 6.734c-.902-.417-1.735-.694-3.471-.694-3.957 0-7.151 3.957-8.678 8.677l-3.61 20.689h-7.22l6.179-35.406h5.137l.417 5.484h.277c2.43-3.61 5.207-6.179 10.136-6.179 1.666 0 2.985.278 4.374.695z"/><path d="m975.171 110.902c-5.068 0-9.164 4.166-10.761 9.581 13.329 0 15.898-2.777 15.898-5.832 0-2.43-2.152-3.749-5.137-3.749zm-5.416 30.755c-9.094 0-13.537-5.484-13.537-13.954 0-12.288 7.289-22.841 19.786-22.841 6.803 0 11.593 3.263 11.593 9.234 0 7.289-6.317 12.357-24.09 12.357 0 5.624 1.736 9.164 7.984 9.164 2.985 0 5.485-.902 8.4-2.291l2.083 5.415c-3.749 1.944-7.637 2.916-12.219 2.916z"/><path d="m1005.57 141.657c-9.098 0-14.166-5.484-14.166-13.954 0-12.635 8.054-22.841 20.406-22.841 3.75 0 6.81.695 9.59 2.014l-3.2 5.554c-2.29-.972-4.58-1.528-7.43-1.528-6.52 0-11.937 6.804-11.937 16.245 0 5.624 3.197 8.47 7.777 8.47 2.43 0 5.55-.694 8.12-1.666l1.67 5.554c-3.13 1.388-7.08 2.152-10.83 2.152z"/><path d="m1031.24 105.557 1.6-8.6783 7.42-1.3885-1.8 10.0668h10.69l-2.43 6.04h-9.3l-3.4 19.23c-.07.486-.14.902-.14 1.319 0 2.569 1.66 3.471 4.02 3.471 1.74 0 3.2-.278 5.21-.972l.7 5.762c-2.71.834-5.28 1.25-7.78 1.25-5.55 0-9.44-2.152-9.44-8.123 0-.902.07-1.943.28-3.054l3.33-18.883h-6.04l1.04-6.04z"/><path d="m1056.3 111.597h-6.45l2.42-6.04h12.29l-6.18 35.406h-7.22zm2.08-16.3151c0-2.4298 1.95-4.3737 4.38-4.3737s4.44 1.9439 4.44 4.3737-2.01 4.3043-4.44 4.3043-4.38-1.8745-4.38-4.3043z"/><path d="m1076.73 127.147c0 5.624 2.43 8.47 7.01 8.47 6.67 0 11.39-7.22 11.39-16.314 0-5.554-2.43-8.401-7.01-8.401-6.67 0-11.39 7.151-11.39 16.245zm-7.43.556c0-12.288 7.36-22.841 19.86-22.841 9.09 0 13.4 5.485 13.4 13.955 0 12.218-7.36 22.84-19.86 22.84-8.75 0-13.4-4.721-13.4-13.954z"/><path d="m1118.63 115.831-4.37 25.132h-7.22l6.18-35.406h5.14l.76 3.749h.28c3.47-3.125 6.73-4.444 10.69-4.444 6.53 0 9.58 3.194 9.58 9.511 0 1.32-.14 2.986-.42 4.582l-3.88 22.008h-7.22l3.81-21.522c.21-1.11.28-2.291.28-3.193 0-3.68-1.59-5.346-4.93-5.346-2.77 0-6.31 2.291-8.68 4.929z"/></g><g fill="#fffefe" opacity=".6"><path d="m2053.81 104.862c6.52 0 9.65 3.194 9.65 9.511 0 1.319-.14 2.846-.42 4.443l-3.89 22.146h-7.22l3.82-21.66c.21-1.111.28-2.152.28-3.054 0-3.68-1.67-5.346-5-5.346-2.22 0-4.93 1.597-7.01 3.471l-4.65 26.589h-7.22l3.82-21.66c.2-1.249.27-2.291.27-3.263 0-3.54-1.45-5.137-4.44-5.137-2.64 0-5.69 2.291-7.84 4.929l-4.38 25.131h-7.22l6.18-35.406h5.14l.76 3.749h.28c3.33-3.124 6.32-4.443 10.07-4.443 4.3 0 7.01 1.319 8.12 4.443 3.4-2.846 7.08-4.443 10.9-4.443z"/><path d="m2076.42 127.147c0 5.623 2.43 8.47 7.02 8.47 6.66 0 11.38-7.22 11.38-16.315 0-5.554-2.43-8.4-7.01-8.4-6.66 0-11.39 7.151-11.39 16.245zm-7.42.555c0-12.288 7.35-22.84 19.85-22.84 9.1 0 13.4 5.485 13.4 13.954 0 12.219-7.36 22.841-19.86 22.841-8.74 0-13.39-4.721-13.39-13.955z"/><path d="m2118.33 115.831-4.38 25.131h-7.22l6.18-35.406h5.14l.76 3.749h.28c3.47-3.124 6.74-4.443 10.69-4.443 6.53 0 9.58 3.194 9.58 9.511 0 1.319-.14 2.985-.41 4.582l-3.89 22.007h-7.22l3.82-21.521c.21-1.111.28-2.291.28-3.193 0-3.68-1.6-5.346-4.93-5.346-2.78 0-6.32 2.291-8.68 4.929z"/><path d="m2180.47 124.162h-30.68l1.11-6.318h32.07z"/><path d="m2207.8 105.556h8.68l-2.43 6.04h-7.29l-5.9 33.671c-1.46 8.122-6.25 10.969-12.08 10.969-2.78 0-5.76-.972-7.92-2.152l2.85-5.416c1.74.903 3.26 1.528 5.21 1.528 2.43 0 4.16-1.319 4.79-4.929l5.9-33.671h-5.9l1.04-6.04h5.9l.83-4.651c1.53-8.4699 6.67-12.0105 13.4-12.0105 3.54 0 5.49.6248 7.98 1.9439l-3.33 5.3456c-1.25-.6942-2.84-1.2496-4.86-1.2496-3.12 0-5.34 1.9439-6.04 5.9706z"/><path d="m2241.05 105.556-3.54 6.734c-.9-.416-1.74-.694-3.47-.694-3.96 0-7.15 3.957-8.68 8.678l-3.61 20.688h-7.22l6.18-35.406h5.14l.41 5.485h.28c2.43-3.61 5.21-6.179 10.14-6.179 1.66 0 2.98.278 4.37.694z"/><path d="m2247.18 111.596h-6.45l2.42-6.04h12.29l-6.18 35.406h-7.22zm2.08-16.3145c0-2.4298 1.95-4.3737 4.38-4.3737s4.44 1.9439 4.44 4.3737c0 2.4299-2.01 4.3043-4.44 4.3043s-4.38-1.8744-4.38-4.3043z"/></g><path d="m2430.16 43.9453 2.78 6.8035c-2.99 1.3191-6.46 2.0133-10.07 2.0133-11.45 0-17.63-8.192-17.63-18.3973s5.83-18.3973 17.28-18.3973c3.34 0 7.09.6942 10.07 1.9439l-2.78 6.8035c-2.15-.9025-4.58-1.3191-6.87-1.3191-5.14 0-8.95 4.4432-8.95 10.969 0 6.5259 3.74 10.969 8.88 10.969 2.29 0 5.14-.486 7.29-1.3885z" fill="#c8a563"/><path d="m2445.83 22.8405h.21c2.85-2.9853 6.25-5.1374 10.83-5.1374 8.68 0 15 5.7622 15 17.5642 0 11.5244-7.22 17.4948-17.08 17.4948-11.46 0-16.66-8.5391-16.66-22.7016 0-21.72964 6.25-26.45046 17.7-27.49182 5.21-.48596 7.98-1.11078 11.59-2.56868l2.78 6.66469c-4.02 2.0133-8.88 3.12408-13.54 3.47121-7.29.5554-10.83 3.8183-10.83 12.7046zm9.79 2.2909c-2.98 0-6.52 1.5274-8.88 5.068.07 10.1359 2.77 15.1344 8.05 15.1344 4.65 0 8.33-3.2629 8.33-10.0665 0-6.8035-3.33-10.1359-7.5-10.1359z" fill="#c8a563"/><path d="m2514 35.9616h-31.38v-7.7061h32.77z" fill="#c8a563"/><path d="m2548.21 33.4623c4.58 1.1108 7.5 4.0266 7.5 8.678 0 6.1093-4.03 9.9276-12.08 9.9276h-16.11v-35.4062h14.72c6.81 0 12.01 2.3604 12.01 8.7474 0 3.8183-2.08 6.5259-6.04 7.8449zm-6.45 3.7489h-5.63v7.4283h5.63c3.26 0 5.2-1.1802 5.2-3.8183s-1.94-3.61-5.2-3.61zm-1.18-13.1211h-4.45v6.2481h4.45c3.12 0 4.93-.9025 4.93-3.124 0-2.291-2.16-3.1241-4.93-3.1241z" fill="#c8a563"/><path d="m2586.91 43.9453 2.77 6.8035c-2.98 1.3191-6.45 2.0133-10.06 2.0133-11.46 0-17.64-8.192-17.64-18.3973s5.84-18.3973 17.29-18.3973c3.33 0 7.08.6942 10.07 1.9439l-2.78 6.8035c-2.15-.9025-4.58-1.3191-6.87-1.3191-5.14 0-8.96 4.4432-8.96 10.969 0 6.5259 3.75 10.969 8.89 10.969 2.29 0 5.14-.486 7.29-1.3885z" fill="#c8a563"/><g fill="#c8a563" opacity=".6"><path d="m2420.03 120.136c4.3 1.735 9.3 4.443 9.3 9.858 0 7.151-6.53 11.663-15.21 11.663-4.3 0-8.26-.972-11.31-2.499l3.33-5.554c2.43 1.25 5.42 2.013 8.82 2.013 3.12 0 7.08-1.527 7.08-5.068 0-2.985-3.13-4.096-6.53-5.345-3.54-1.319-8.26-4.235-8.26-9.859 0-7.011 5.97-10.483 13.75-10.483 3.95 0 7.98.834 11.24 2.43l-3.26 5.415c-2.64-1.041-5.34-1.805-8.33-1.805-3.26 0-6.11 1.389-6.11 4.235 0 2.777 3.13 4.027 5.49 4.999z"/><path d="m2454.91 110.902c-6.67 0-11.39 7.151-11.39 16.246 0 5.276 1.81 8.469 5.83 8.469 3.41 0 6.18-1.874 8.75-5.068l3.19-18.397c-1.87-.694-3.88-1.25-6.38-1.25zm1.04-6.04c5.28 0 9.44 1.181 13.4 2.639l-5.9 33.462h-4.79l-.77-3.749h-.27c-2.92 2.777-6.18 4.443-10.56 4.443-7.63 0-10.97-5.484-10.97-13.954 0-12.288 7.36-22.841 19.86-22.841z"/><path d="m2481.29 105.557 1.59-8.6783 7.43-1.3885-1.8 10.0668h10.69l-2.43 6.04h-9.31l-3.4 19.23c-.07.486-.14.902-.14 1.319 0 2.569 1.67 3.471 4.03 3.471 1.74 0 3.19-.277 5.21-.972l.69 5.762c-2.71.834-5.28 1.25-7.77 1.25-5.56 0-9.45-2.152-9.45-8.122 0-.903.07-1.944.28-3.055l3.33-18.883h-6.04l1.05-6.04z"/><path d="m2535.44 124.162h-30.69l1.11-6.317h32.08z"/><path d="m2561.72 120.136c4.31 1.735 9.3 4.443 9.3 9.858 0 7.151-6.52 11.663-15.2 11.663-4.3 0-8.26-.972-11.32-2.499l3.34-5.554c2.43 1.25 5.41 2.013 8.81 2.013 3.13 0 7.08-1.527 7.08-5.068 0-2.985-3.12-4.096-6.52-5.345-3.54-1.319-8.26-4.235-8.26-9.859 0-7.011 5.97-10.483 13.74-10.483 3.96 0 7.99.834 11.25 2.43l-3.26 5.415c-2.64-1.041-5.35-1.805-8.33-1.805-3.27 0-6.11 1.389-6.11 4.235 0 2.777 3.12 4.027 5.48 4.999z"/><path d="m2589.94 105.557-3.75 21.521c-.21 1.111-.28 2.291-.28 3.194 0 3.679 1.95 5.345 5.28 5.345 2.78 0 7.01-2.291 9.37-4.929l4.37-25.131h7.22l-6.17 35.406h-4.79l-.77-3.749h-.28c-3.47 3.124-7.77 4.443-11.73 4.443-6.52 0-9.93-3.193-9.93-9.511 0-1.319.14-2.985.42-4.582l3.82-22.007z"/><path d="m2627.19 115.831-4.37 25.132h-7.22l6.17-35.406h5.14l.77 3.749h.27c3.47-3.124 6.74-4.444 10.69-4.444 6.53 0 9.58 3.194 9.58 9.512 0 1.319-.13 2.985-.41 4.581l-3.89 22.008h-7.22l3.82-21.522c.21-1.11.28-2.291.28-3.193 0-3.679-1.6-5.346-4.93-5.346-2.78 0-6.32 2.291-8.68 4.929z"/></g><path d="m314.789 3.4707v19.4387h18.189v-19.4387h8.886v48.5967h-8.886v-21.1048h-18.189v21.1048h-8.887v-48.5967z" fill="#fffefe"/><path d="m367.584 52.7616c-9.858 0-16.662-6.8729-16.662-18.3973 0-11.5243 6.804-18.3973 16.662-18.3973s16.662 6.873 16.662 18.3973c0 11.5244-6.804 18.3973-16.662 18.3973zm0-29.3662c-4.582 0-7.915 4.096-7.915 10.9689 0 6.873 3.333 10.969 7.915 10.969s7.914-4.096 7.914-10.969c0-6.8729-3.332-10.9689-7.914-10.9689z" fill="#fffefe"/><path d="m422.936 52.0674-1.735-21.0354h-.278l-6.179 15.2732h-7.497l-6.249-15.2732h-.277l-1.666 21.0354h-8.54l3.402-35.4062h9.095l7.845 18.8833h.277l7.845-18.8833h9.095l3.401 35.4062z" fill="#fffefe"/><path d="m455.683 45.3333c2.916 0 6.387-1.0414 8.817-2.291l2.985 6.7341c-3.402 1.7356-7.706 2.9852-12.219 2.9852-10.413 0-17.564-6.8035-17.564-18.3973 0-11.6632 6.248-18.3973 16.245-18.3973 9.233 0 14.996 5.7622 14.996 15.6898 0 .9719-.139 3.4018-.417 5.3456h-22.077c.903 5.4151 4.652 8.3309 9.234 8.3309zm-9.095-14.9261h14.51c0-4.0266-2.5-7.0118-7.012-7.0118-3.68 0-6.665 2.4298-7.498 7.0118z" fill="#fffefe"/><path d="m485.191 19.7159h.277c2.291-2.2216 5.485-3.7489 9.164-3.7489 9.997 0 14.51 7.706 14.51 18.3973s-4.582 18.3973-15.135 18.3973c-2.985 0-5.831-.4859-8.122-1.2496v14.4402l-8.609 1.3885v-50.6795h6.526zm7.636 25.6174c4.652 0 7.567-4.0266 7.567-10.969 0-6.4564-2.638-10.9689-7.845-10.9689-2.36 0-4.72 1.319-6.664 3.4711v16.5923c1.944 1.1803 4.373 1.8745 6.942 1.8745z" fill="#fffefe"/><g fill="#fffefe" opacity=".6"><path d="m319.37 92.3657 14.232 36.1703h.277l6.387-36.1703h7.498l-8.539 48.5963h-8.053l-14.302-36.1h-.277l-6.318 36.1h-7.498l8.539-48.5963z"/><path d="m361.655 105.556-3.749 21.522c-.208 1.11-.278 2.291-.278 3.193 0 3.68 1.944 5.346 5.276 5.346 2.777 0 7.012-2.291 9.373-4.929l4.373-25.132h7.22l-6.178 35.406h-4.791l-.763-3.748h-.278c-3.471 3.124-7.775 4.443-11.733 4.443-6.525 0-9.927-3.194-9.927-9.511 0-1.319.139-2.986.416-4.582l3.819-22.008z"/><path d="m428.758 104.862c6.526 0 9.65 3.194 9.65 9.511 0 1.319-.139 2.846-.417 4.443l-3.888 22.146h-7.22l3.819-21.66c.208-1.111.277-2.152.277-3.054 0-3.68-1.666-5.346-4.998-5.346-2.222 0-4.929 1.597-7.012 3.471l-4.651 26.589h-7.22l3.818-21.66c.208-1.249.278-2.291.278-3.263 0-3.54-1.458-5.137-4.444-5.137-2.638 0-5.692 2.291-7.844 4.929l-4.374 25.131h-7.22l6.178-35.406h5.138l.763 3.749h.278c3.333-3.124 6.318-4.443 10.067-4.443 4.304 0 7.011 1.319 8.122 4.443 3.402-2.846 7.081-4.443 10.9-4.443z"/><path d="m469.911 119.302c0-5.554-2.291-8.4-6.526-8.4-2.846 0-6.526 2.291-8.886 4.929l-3.263 18.467c2.36.902 4.582 1.319 7.289 1.319 6.665 0 11.386-7.22 11.386-16.315zm7.428-.486c0 12.219-7.359 22.841-20.063 22.841-4.86 0-9.164-.833-14.024-2.777l8.539-48.597 7.498-1.3885-3.61 20.4105h.278c3.193-3.055 6.526-4.443 9.997-4.443 7.706 0 11.385 5.485 11.385 13.954z"/><path d="m501.814 110.902c-5.067 0-9.163 4.165-10.76 9.58 13.329 0 15.898-2.777 15.898-5.831 0-2.43-2.152-3.749-5.138-3.749zm-5.415 30.755c-9.094 0-13.537-5.485-13.537-13.955 0-12.288 7.289-22.84 19.786-22.84 6.803 0 11.593 3.263 11.593 9.233 0 7.29-6.317 12.358-24.09 12.358 0 5.623 1.736 9.164 7.984 9.164 2.985 0 5.484-.903 8.4-2.291l2.083 5.415c-3.749 1.944-7.637 2.916-12.219 2.916z"/><path d="m543.527 105.556-3.541 6.734c-.902-.416-1.735-.694-3.471-.694-3.957 0-7.151 3.957-8.678 8.678l-3.61 20.688h-7.22l6.179-35.406h5.137l.417 5.485h.277c2.43-3.61 5.207-6.179 10.136-6.179 1.666 0 2.985.278 4.374.694z"/></g><path d="m2139.6 348.799-1.74-21.036h-.27l-6.18 15.274h-7.5l-6.25-15.274h-.28l-1.66 21.036h-8.54l3.4-35.406h9.09l7.85 18.883h.28l7.84-18.883h9.1l3.4 35.406z" fill="#fffefe"/><path d="m2178.8 348.799v-21.244h-.21l-14.3 21.244h-7.84v-35.406h8.61v21.243h.2l14.31-21.243h7.84v35.406z" fill="#fffefe"/><path d="m2226.89 313.393v35.406h-8.61v-14.51h-11.87v14.51h-8.61v-35.406h8.61v13.468h11.87v-13.468z" fill="#fffefe"/><g fill="#fff" opacity=".6"><path d="m2147.93 375.816c6.53 0 9.65 3.193 9.65 9.511 0 1.319-.14 2.846-.42 4.443l-3.88 22.146h-7.22l3.81-21.66c.21-1.111.28-2.152.28-3.055 0-3.679-1.66-5.346-5-5.346-2.22 0-4.93 1.597-7.01 3.472l-4.65 26.589h-7.22l3.82-21.66c.21-1.25.28-2.291.28-3.263 0-3.541-1.46-5.138-4.45-5.138-2.64 0-5.69 2.291-7.84 4.929l-4.38 25.132h-7.22l6.18-35.406h5.14l.76 3.749h.28c3.33-3.124 6.32-4.443 10.07-4.443 4.3 0 7.01 1.319 8.12 4.443 3.4-2.847 7.08-4.443 10.9-4.443z"/><path d="m2169.58 382.55h-6.46l2.43-6.04h12.29l-6.18 35.406h-7.22zm2.08-16.315c0-2.43 1.94-4.374 4.37-4.374s4.45 1.944 4.45 4.374-2.02 4.304-4.45 4.304-4.37-1.874-4.37-4.304z"/><path d="m2193.13 386.784-4.37 25.132h-7.22l6.17-35.406h5.14l.77 3.749h.27c3.47-3.124 6.74-4.443 10.69-4.443 6.53 0 9.58 3.193 9.58 9.511 0 1.319-.13 2.985-.41 4.582l-3.89 22.007h-7.22l3.82-21.521c.21-1.111.28-2.291.28-3.194 0-3.679-1.6-5.346-4.93-5.346-2.78 0-6.32 2.291-8.68 4.929z"/></g><g fill="#fff" opacity=".6"><path d="m880.285 399.159c0 4.306 4.305 6.458 7.777 8.056 5.348 2.43 11.875 6.597 11.875 13.819 0 9.791-7.43 15.069-19.097 15.069-6.18 0-10.694-1.528-14.93-4.306l3.681-6.111c3.541 2.361 7.291 3.75 12.43 3.75 6.18 0 10.416-2.5 10.416-7.708 0-4.236-3.611-6.25-8.611-8.541-5.208-2.361-11.041-6.111-11.041-13.195 0-9.027 6.319-13.888 17.152-13.888 5.625 0 10.139 1.18 13.82 3.75l-4.236 5.764c-2.986-1.736-6.459-2.848-10.764-2.848-5.139 0-8.472 2.361-8.472 6.389z"/><path d="m924.47 405.34c-2.778 0-6.389 2.291-8.75 4.93l-4.375 25.138h-7.222l8.888-50.693 7.5-1.389-3.611 20.416h.278c3.056-2.847 6.667-4.444 10.208-4.444 6.528 0 9.514 3.125 9.514 9.375 0 1.389-.139 2.916-.417 4.583l-3.889 22.152h-7.222l3.75-21.388c.209-1.181.347-2.292.347-3.194 0-3.681-1.666-5.486-4.999-5.486z"/><path d="m948.921 406.034h-6.458l2.43-6.042h12.292l-6.181 35.416h-7.222zm2.083-16.319c0-2.431 1.945-4.375 4.375-4.375 2.431 0 4.445 1.944 4.445 4.375 0 2.43-2.014 4.305-4.445 4.305-2.43 0-4.375-1.875-4.375-4.305z"/><path d="m987.412 399.992-3.542 6.736c-.903-.416-1.736-.694-3.472-.694-3.958 0-7.153 3.958-8.681 8.68l-3.611 20.694h-7.222l6.181-35.416h5.138l.417 5.486h.278c2.43-3.611 5.208-6.18 10.139-6.18 1.666 0 2.986.278 4.375.694z"/><path d="m994.516 421.589c0 5.625 2.43 8.472 7.014 8.472 6.67 0 11.39-7.222 11.39-16.319 0-5.555-2.43-8.402-7.02-8.402-6.662 0-11.384 7.152-11.384 16.249zm-7.431.556c0-12.292 7.361-22.847 19.865-22.847 9.09 0 13.4 5.486 13.4 13.958 0 12.222-7.36 22.847-19.86 22.847-8.752 0-13.405-4.722-13.405-13.958z"/><path d="m1039.49 414.228 12.01-14.236h7.5l-14.31 17.431c1.53 7.013 5.35 12.777 9.94 17.985l-7.85.695c-3.82-4.792-6.46-9.861-8.06-15.972h-3.96l-2.7 15.277h-7.23l8.89-50.693 7.5-1.389-5.41 30.902z"/><path d="m1077.11 405.34c-6.67 0-11.39 7.152-11.39 16.249 0 5.278 1.81 8.472 5.84 8.472 3.4 0 6.18-1.875 8.75-5.069l3.19-18.402c-1.88-.695-3.89-1.25-6.39-1.25zm1.04-6.042c5.28 0 9.45 1.181 13.4 2.639l-5.9 33.471h-4.79l-.76-3.749h-.28c-2.92 2.777-6.18 4.444-10.56 4.444-7.64 0-10.97-5.486-10.97-13.958 0-12.292 7.36-22.847 19.86-22.847z"/><path d="m1091.2 449.297 2.85-5.625c.97.486 2.22.972 3.68.972 1.6 0 3.33-.833 4.93-4.097l2.5-5.139h-2.43l-6.25-35.416h7.02l4.72 27.986h.28l13.68-27.986h7.63l-21.04 42.222c-3.4 6.805-7.84 8.472-11.66 8.472-2.5 0-4.52-.764-5.91-1.389z"/><path d="m1147.64 405.34c-6.67 0-11.39 7.152-11.39 16.249 0 5.278 1.81 8.472 5.83 8.472 3.41 0 6.18-1.875 8.75-5.069l3.2-18.402c-1.88-.695-3.89-1.25-6.39-1.25zm1.04-6.042c5.28 0 9.44 1.181 13.4 2.639l-5.9 33.471h-4.79l-.77-3.749h-.27c-2.92 2.777-6.18 4.444-10.56 4.444-7.64 0-10.97-5.486-10.97-13.958 0-12.292 7.36-22.847 19.86-22.847z"/><path d="m1207.62 414.645c1.39 7.5 5.28 14.514 9.65 20.763l-7.99.695c-4.44-6.111-7.57-12.986-9.16-20.555h-5.21l-3.47 19.86h-7.5l8.54-48.61h14.1c8.68 0 13.61 4.306 13.61 12.222 0 7.639-5 13.472-12.57 15.625zm-11.53-5.764h6.11c5.97 0 10.14-4.027 10.14-9.652 0-3.681-2.43-5.764-6.94-5.764h-6.6z"/><path d="m1240.55 405.34c-5.07 0-9.17 4.166-10.76 9.583 13.33 0 15.9-2.778 15.9-5.833 0-2.431-2.15-3.75-5.14-3.75zm-5.42 30.763c-9.09 0-13.54-5.486-13.54-13.958 0-12.292 7.29-22.847 19.79-22.847 6.81 0 11.6 3.264 11.6 9.236 0 7.291-6.32 12.361-24.1 12.361 0 5.625 1.74 9.166 7.99 9.166 2.98 0 5.48-.902 8.4-2.291l2.08 5.416c-3.75 1.945-7.63 2.917-12.22 2.917z"/><path d="m1270.95 436.103c-9.09 0-14.16-5.486-14.16-13.958 0-12.639 8.05-22.847 20.41-22.847 3.75 0 6.81.694 9.59 2.014l-3.2 5.555c-2.29-.972-4.58-1.527-7.43-1.527-6.53 0-11.94 6.805-11.94 16.249 0 5.625 3.19 8.472 7.78 8.472 2.43 0 5.55-.694 8.12-1.666l1.67 5.555c-3.13 1.389-7.09 2.153-10.84 2.153z"/><path d="m1308.51 405.34c-2.78 0-6.39 2.291-8.75 4.93l-4.38 25.138h-7.22l8.89-50.693 7.5-1.389-3.61 20.416h.28c3.05-2.847 6.66-4.444 10.2-4.444 6.53 0 9.52 3.125 9.52 9.375 0 1.389-.14 2.916-.42 4.583l-3.89 22.152h-7.22l3.75-21.388c.21-1.181.35-2.292.35-3.194 0-3.681-1.67-5.486-5-5.486z"/><path d="m1340.11 414.228 12.02-14.236h7.5l-14.31 17.431c1.53 7.013 5.35 12.777 9.93 17.985l-7.85.695c-3.82-4.792-6.45-9.861-8.05-15.972h-3.96l-2.71 15.277h-7.22l8.89-50.693 7.5-1.389-5.42 30.902z"/><path d="m1377.74 405.34c-6.67 0-11.39 7.152-11.39 16.249 0 5.278 1.8 8.472 5.83 8.472 3.4 0 6.18-1.875 8.75-5.069l3.2-18.402c-1.88-.695-3.89-1.25-6.39-1.25zm1.04-6.042c5.28 0 9.44 1.181 13.4 2.639l-5.9 33.471h-4.79l-.77-3.749h-.28c-2.91 2.777-6.18 4.444-10.55 4.444-7.64 0-10.97-5.486-10.97-13.958 0-12.292 7.36-22.847 19.86-22.847z"/></g><g fill="#fff" opacity=".6"><path d="m885.718 711.505h-7.709l-2.986 17.083h-7.5l8.542-48.61h15.208c8.68 0 13.611 4.722 13.611 13.403 0 10.555-7.986 18.124-19.166 18.124zm4.374-24.86h-7.708l-3.194 18.194h7.708c5.972 0 10.139-4.723 10.139-11.389 0-4.375-2.431-6.805-6.945-6.805z"/><path d="m913.015 714.769c0 5.625 2.43 8.472 7.013 8.472 6.667 0 11.389-7.222 11.389-16.319 0-5.556-2.431-8.403-7.014-8.403-6.666 0-11.388 7.153-11.388 16.25zm-7.431.555c0-12.291 7.361-22.846 19.861-22.846 9.097 0 13.402 5.486 13.402 13.958 0 12.222-7.361 22.847-19.86 22.847-8.75 0-13.403-4.723-13.403-13.959z"/><path d="m957.291 722.547.694 5.694c-2.361.833-4.166 1.042-6.041 1.042-5 0-7.569-2.153-7.569-6.875 0-.903.069-1.875.277-2.986l7.292-41.527 7.5-1.389-7.57 42.916c-.069.486-.138.902-.138 1.319 0 1.736.833 2.5 2.43 2.5 1.111 0 1.806-.208 3.125-.694z"/><path d="m982.592 698.519c-5.069 0-9.166 4.167-10.764 9.583 13.333 0 15.903-2.777 15.903-5.833 0-2.43-2.153-3.75-5.139-3.75zm-5.416 30.764c-9.097 0-13.542-5.486-13.542-13.959 0-12.291 7.292-22.846 19.791-22.846 6.806 0 11.597 3.264 11.597 9.236 0 7.291-6.319 12.361-24.096 12.361 0 5.624 1.736 9.166 7.986 9.166 2.986 0 5.486-.903 8.402-2.292l2.084 5.417c-3.75 1.944-7.639 2.917-12.222 2.917z"/><path d="m1013.27 707.755c4.31 1.736 9.31 4.445 9.31 9.861 0 7.153-6.53 11.667-15.21 11.667-4.3 0-8.262-.973-11.317-2.5l3.333-5.556c2.434 1.25 5.414 2.014 8.824 2.014 3.12 0 7.08-1.528 7.08-5.069 0-2.986-3.13-4.097-6.53-5.347-3.54-1.32-8.26-4.236-8.26-9.861 0-7.014 5.97-10.486 13.75-10.486 3.95 0 7.98.833 11.25 2.43l-3.27 5.417c-2.64-1.042-5.34-1.806-8.33-1.806-3.26 0-6.11 1.389-6.11 4.236 0 2.778 3.12 4.028 5.48 5z"/><path d="m1024.49 742.477 2.84-5.625c.98.486 2.23.972 3.68.972 1.6 0 3.34-.833 4.93-4.097l2.5-5.139h-2.43l-6.25-35.416h7.02l4.72 27.986h.28l13.68-27.986h7.64l-21.04 42.222c-3.41 6.805-7.85 8.472-11.67 8.472-2.5 0-4.51-.764-5.9-1.389z"/><path d="m1081.06 698.519c-5.07 0-9.17 4.167-10.76 9.583 13.33 0 15.9-2.777 15.9-5.833 0-2.43-2.15-3.75-5.14-3.75zm-5.42 30.764c-9.09 0-13.54-5.486-13.54-13.959 0-12.291 7.29-22.846 19.79-22.846 6.81 0 11.6 3.264 11.6 9.236 0 7.291-6.32 12.361-24.1 12.361 0 5.624 1.74 9.166 7.99 9.166 2.99 0 5.49-.903 8.4-2.292l2.09 5.417c-3.75 1.944-7.64 2.917-12.23 2.917z"/></g><g fill="#fff" opacity=".6"><path d="m885.718 1004.34h-7.709l-2.986 17.09h-7.5l8.542-48.614h15.208c8.68 0 13.611 4.722 13.611 13.402 0 10.556-7.986 18.122-19.166 18.122zm4.374-24.858h-7.708l-3.194 18.194h7.708c5.972 0 10.139-4.722 10.139-11.388 0-4.375-2.431-6.806-6.945-6.806z"/><path d="m914.371 986.01 1.597-8.68 7.43-1.389-1.805 10.069h10.694l-2.43 6.042h-9.306l-3.402 19.238c-.07.48-.139.9-.139 1.32 0 2.57 1.666 3.47 4.027 3.47 1.736 0 3.195-.28 5.209-.97l.694 5.76c-2.708.83-5.278 1.25-7.778 1.25-5.555 0-9.444-2.15-9.444-8.12 0-.91.07-1.95.278-3.06l3.333-18.888h-6.041l1.041-6.042z"/><path d="m939.44 992.052h-6.458l2.43-6.042h12.292l-6.181 35.42h-7.222zm2.083-16.319c0-2.431 1.944-4.375 4.375-4.375 2.43 0 4.444 1.944 4.444 4.375 0 2.43-2.014 4.305-4.444 4.305-2.431 0-4.375-1.875-4.375-4.305z"/><path d="m959.875 986.01 1.597-8.68 7.431-1.389-1.806 10.069h10.694l-2.43 6.042h-9.306l-3.402 19.238c-.07.48-.139.9-.139 1.32 0 2.57 1.666 3.47 4.028 3.47 1.736 0 3.194-.28 5.208-.97l.694 5.76c-2.708.83-5.277 1.25-7.777 1.25-5.556 0-9.445-2.15-9.445-8.12 0-.91.07-1.95.278-3.06l3.333-18.888h-6.041l1.041-6.042z"/><path d="m992.93 1000.59c4.305 1.74 9.31 4.45 9.31 9.86 0 7.16-6.532 11.67-15.213 11.67-4.305 0-8.263-.97-11.319-2.5l3.333-5.55c2.431 1.25 5.417 2.01 8.82 2.01 3.124 0 7.083-1.53 7.083-5.07 0-2.99-3.125-4.1-6.528-5.35-3.542-1.32-8.264-4.23-8.264-9.858 0-7.014 5.972-10.486 13.75-10.486 3.958 0 7.988.833 11.248 2.43l-3.26 5.417c-2.641-1.042-5.349-1.806-8.335-1.806-3.264 0-6.111 1.389-6.111 4.236 0 2.778 3.125 4.028 5.486 4.997z"/><path d="m1027.96 991.357c-5.07 0-9.17 4.167-10.76 9.583 13.33 0 15.9-2.777 15.9-5.833 0-2.43-2.15-3.75-5.14-3.75zm-5.42 30.763c-9.09 0-13.54-5.49-13.54-13.96 0-12.289 7.29-22.844 19.79-22.844 6.81 0 11.6 3.263 11.6 9.236 0 7.288-6.32 12.358-24.1 12.358 0 5.63 1.74 9.17 7.99 9.17 2.99 0 5.49-.9 8.4-2.29l2.09 5.41c-3.75 1.95-7.64 2.92-12.23 2.92z"/><path d="m1059.68 986.01h8.69l-2.44 6.042h-7.29l-5.9 33.678c-1.46 8.13-6.25 10.97-12.08 10.97-2.78 0-5.77-.97-7.92-2.15l2.85-5.42c1.73.91 3.26 1.53 5.21 1.53 2.43 0 4.16-1.32 4.79-4.93l5.9-33.678h-5.9l1.04-6.042h5.9l.84-4.653c1.52-8.472 6.66-12.013 13.4-12.013 3.54 0 5.48.625 7.98 1.944l-3.33 5.347c-1.25-.694-2.85-1.25-4.86-1.25-3.13 0-5.35 1.945-6.04 5.972z"/><path d="m1086.28 991.357c-6.67 0-11.39 7.153-11.39 16.253 0 5.27 1.81 8.47 5.83 8.47 3.41 0 6.18-1.88 8.75-5.07l3.2-18.403c-1.88-.694-3.89-1.25-6.39-1.25zm1.04-6.041c5.28 0 9.44 1.18 13.4 2.638l-5.9 33.476h-4.79l-.77-3.75h-.27c-2.92 2.77-6.18 4.44-10.56 4.44-7.64 0-10.97-5.49-10.97-13.96 0-12.289 7.36-22.844 19.86-22.844z"/><path d="m1131.2 999.76c0-5.556-2.29-8.403-6.52-8.403-2.85 0-6.53 2.292-8.89 4.931l-3.27 18.472c2.37.9 4.59 1.32 7.3 1.32 6.66 0 11.38-7.22 11.38-16.32zm7.43-.486c0 12.226-7.36 22.846-20.06 22.846-4.87 0-9.17-.83-14.03-2.78l8.54-48.607 7.5-1.389-3.61 20.416h.28c3.19-3.055 6.52-4.444 10-4.444 7.7 0 11.38 5.486 11.38 13.958z"/><path d="m1169.64 986.01-3.54 6.736c-.9-.417-1.73-.694-3.47-.694-3.96 0-7.15 3.958-8.68 8.678l-3.61 20.7h-7.22l6.18-35.42h5.14l.41 5.486h.28c2.43-3.611 5.21-6.18 10.14-6.18 1.67 0 2.99.277 4.37.694z"/><path d="m1175.78 992.052h-6.46l2.43-6.042h12.29l-6.18 35.42h-7.22zm2.08-16.319c0-2.431 1.94-4.375 4.37-4.375 2.44 0 4.45 1.944 4.45 4.375 0 2.43-2.01 4.305-4.45 4.305-2.43 0-4.37-1.875-4.37-4.305z"/><path d="m1202.39 1000.25 12.02-14.24h7.5l-14.31 17.43c1.53 7.01 5.35 12.78 9.93 17.99l-7.85.69c-3.82-4.79-6.45-9.86-8.05-15.97h-3.96l-2.71 15.28h-7.22l8.89-50.697 7.5-1.389-5.42 30.906z"/><path d="m1240.02 991.357c-6.67 0-11.39 7.153-11.39 16.253 0 5.27 1.8 8.47 5.83 8.47 3.4 0 6.18-1.88 8.75-5.07l3.19-18.403c-1.87-.694-3.88-1.25-6.38-1.25zm1.04-6.041c5.28 0 9.44 1.18 13.4 2.638l-5.9 33.476h-4.79l-.77-3.75h-.28c-2.91 2.77-6.18 4.44-10.55 4.44-7.64 0-10.97-5.49-10.97-13.96 0-12.289 7.36-22.844 19.86-22.844z"/></g><g fill="#fff" opacity=".6"><path d="m880.16 1278c0 4.31 4.305 6.46 7.777 8.06 5.348 2.43 11.875 6.6 11.875 13.82 0 9.79-7.43 15.07-19.097 15.07-6.18 0-10.694-1.53-14.93-4.31l3.681-6.11c3.541 2.36 7.291 3.75 12.43 3.75 6.18 0 10.416-2.5 10.416-7.71 0-4.23-3.611-6.25-8.611-8.54-5.208-2.36-11.041-6.11-11.041-13.19 0-9.03 6.319-13.89 17.152-13.89 5.625 0 10.139 1.18 13.82 3.75l-4.236 5.76c-2.986-1.73-6.459-2.84-10.764-2.84-5.139 0-8.472 2.36-8.472 6.38z"/><path d="m912.47 1300.43c0 5.63 2.43 8.48 7.014 8.48 6.666 0 11.388-7.23 11.388-16.32 0-5.56-2.43-8.41-7.014-8.41-6.666 0-11.388 7.16-11.388 16.25zm-7.431.56c0-12.29 7.361-22.85 19.861-22.85 9.097 0 13.403 5.49 13.403 13.96 0 12.22-7.361 22.85-19.861 22.85-8.75 0-13.403-4.72-13.403-13.96z"/><path d="m958.274 1293.42c4.305 1.74 9.305 4.45 9.305 9.86 0 7.15-6.527 11.67-15.208 11.67-4.305 0-8.263-.97-11.319-2.5l3.333-5.56c2.431 1.25 5.417 2.02 8.82 2.02 3.125 0 7.083-1.53 7.083-5.07 0-2.99-3.125-4.1-6.528-5.35-3.541-1.32-8.264-4.24-8.264-9.86 0-7.01 5.973-10.49 13.75-10.49 3.958 0 7.986.84 11.25 2.43l-3.264 5.42c-2.639-1.04-5.347-1.81-8.333-1.81-3.264 0-6.111 1.39-6.111 4.24 0 2.78 3.125 4.03 5.486 5z"/><path d="m984.902 1289.12-4.375 25.13h-7.222l6.181-35.41h5.138l.764 3.75h.278c3.472-3.13 6.736-4.45 10.694-4.45 6.53 0 9.58 3.2 9.58 9.52 0 1.32-.14 2.98-.41 4.58l-3.89 22.01h-7.224l3.819-21.52c.209-1.11.278-2.3.278-3.2 0-3.68-1.597-5.35-4.93-5.35-2.778 0-6.32 2.3-8.681 4.94z"/><path d="m1018.94 1300.43c0 5.63 2.43 8.48 7.01 8.48 6.67 0 11.39-7.23 11.39-16.32 0-5.56-2.43-8.41-7.01-8.41-6.67 0-11.39 7.16-11.39 16.25zm-7.43.56c0-12.29 7.36-22.85 19.86-22.85 9.1 0 13.4 5.49 13.4 13.96 0 12.22-7.36 22.85-19.86 22.85-8.75 0-13.4-4.72-13.4-13.96z"/><path d="m1055.74 1314.25-5.76-35.41h6.94l4.1 27.36h.21l13.61-27.36h7.15l-18.12 35.41z"/><path d="m1077.11 1328.14 2.85-5.62c.97.48 2.22.97 3.68.97 1.59 0 3.33-.83 4.93-4.1l2.5-5.14h-2.43l-6.25-35.41h7.01l4.72 27.98h.28l13.68-27.98h7.64l-21.04 42.22c-3.4 6.8-7.85 8.47-11.67 8.47-2.5 0-4.51-.76-5.9-1.39z"/><path d="m1159.06 1288.77v.28c4.86 1.18 8.12 4.3 8.12 9.37 0 10.69-9.09 15.83-19.58 15.83h-14.51l8.54-48.61h14.51c8.2 0 13.33 2.99 13.33 9.59 0 6.8-4.65 11.87-10.41 13.54zm-8.13 3.68h-6.52l-2.71 15.14h6.59c6.6 0 11.12-3.68 11.12-9.24 0-3.82-3.13-5.9-8.48-5.9zm3.27-20.14h-6.25l-2.43 13.75h6.25c4.65 0 9.58-3.4 9.58-8.54 0-3.47-2.43-5.21-7.15-5.21z"/><path d="m1180 1300.43c0 5.63 2.43 8.48 7.02 8.48 6.66 0 11.38-7.23 11.38-16.32 0-5.56-2.43-8.41-7.01-8.41-6.67 0-11.39 7.16-11.39 16.25zm-7.43.56c0-12.29 7.36-22.85 19.86-22.85 9.1 0 13.4 5.49 13.4 13.96 0 12.22-7.36 22.85-19.86 22.85-8.75 0-13.4-4.72-13.4-13.96z"/><path d="m1236.85 1278.84-3.54 6.73c-.91-.41-1.74-.69-3.48-.69-3.95 0-7.15 3.96-8.68 8.68l-3.61 20.69h-7.22l6.18-35.41h5.14l.42 5.48h.27c2.43-3.61 5.21-6.18 10.14-6.18 1.67 0 2.99.28 4.38.7z"/></g><path d="m2044.54 17v35.41h-8.61v-27.9808h-11.32v27.9808h-8.61v-35.41z" fill="#fffefe"/><path d="m2084.01 17v35.41h-8.61v-14.5112h-11.87v14.5112h-8.61v-35.41h8.61v13.4697h11.87v-13.4697z" fill="#fffefe"/><path d="m2127.92 36.3019h-31.39v-7.7069h32.77z" fill="#fffefe"/><path d="m2169.97 17v35.41h-8.61v-27.9808h-11.31v27.9808h-8.61v-35.41z" fill="#fffefe"/><path d="m2176.19 24.4292v-7.4292h30.69l-1.39 7.4292h-9.86v27.9808h-8.54v-27.9808z" fill="#fffefe"/></svg>