<svg width="3000" height="1368" viewBox="0 0 3000 1368" fill="none" xmlns="http://www.w3.org/2000/svg">
<rect width="3000" height="1368" fill="black"/>
<path d="M2612.81 349.829L2611.07 328.817H2610.8L2604.63 344.073H2597.14L2590.89 328.817H2590.62L2588.95 349.829H2580.42L2583.82 314.463H2592.91L2600.74 333.325H2601.02L2608.86 314.463H2617.94L2621.34 349.829H2612.81Z" fill="#C8A563"/>
<path d="M2651.97 349.829V328.609H2651.76L2637.47 349.829H2629.64V314.463H2638.24V335.682H2638.44L2652.73 314.463H2660.56V349.829H2651.97Z" fill="#C8A563"/>
<path d="M2700 314.463V349.829H2691.4V335.336H2679.54V349.829H2670.95V314.463H2679.54V327.916H2691.4V314.463H2700Z" fill="#C8A563"/>
<g opacity="0.6">
<path d="M2621.13 375.671C2627.65 375.671 2630.77 378.861 2630.77 385.171C2630.77 386.488 2630.63 388.014 2630.35 389.609L2626.47 411.73H2619.26L2623.07 390.094C2623.28 388.985 2623.35 387.945 2623.35 387.043C2623.35 383.368 2621.68 381.704 2618.36 381.704C2616.14 381.704 2613.43 383.299 2611.35 385.171L2606.71 411.73H2599.49L2603.31 390.094C2603.52 388.846 2603.58 387.806 2603.58 386.835C2603.58 383.299 2602.13 381.704 2599.15 381.704C2596.51 381.704 2593.46 383.992 2591.31 386.627L2586.94 411.73H2579.73L2585.9 376.364H2591.03L2591.8 380.109H2592.07C2595.4 376.988 2598.38 375.671 2602.13 375.671C2606.43 375.671 2609.13 376.988 2610.24 380.109C2613.64 377.266 2617.32 375.671 2621.13 375.671Z" fill="#C8A563"/>
<path d="M2642.75 382.397H2636.3L2638.73 376.364H2651L2644.83 411.73H2637.62L2642.75 382.397ZM2644.83 366.101C2644.83 363.674 2646.77 361.732 2649.2 361.732C2651.63 361.732 2653.64 363.674 2653.64 366.101C2653.64 368.528 2651.63 370.4 2649.2 370.4C2646.77 370.4 2644.83 368.528 2644.83 366.101Z" fill="#C8A563"/>
<path d="M2666.28 386.627L2661.91 411.73H2654.7L2660.87 376.364H2666L2666.76 380.109H2667.04C2670.51 376.988 2673.77 375.671 2677.72 375.671C2684.24 375.671 2687.29 378.861 2687.29 385.171C2687.29 386.488 2687.15 388.153 2686.87 389.748L2682.99 411.73H2675.78L2679.59 390.233C2679.8 389.123 2679.87 387.945 2679.87 387.043C2679.87 383.368 2678.27 381.704 2674.94 381.704C2672.17 381.704 2668.63 383.992 2666.28 386.627Z" fill="#C8A563"/>
</g>
<path d="M300 271.918C300 258.173 311.142 247.031 324.887 247.031H698.189C711.934 247.031 723.076 258.173 723.076 271.918V461.058C723.076 474.803 711.934 485.945 698.189 485.945H324.887C311.142 485.945 300 474.803 300 461.058V271.918Z" fill="#00B400"/>
<path d="M453.513 290.104H482.571L430.935 379.368V380.204H458.321V355.746H484.452V380.204H507.448L503.267 404.245H484.452V436.439H458.321V404.245H399.787V382.295L453.513 290.104Z" fill="white"/>
<path d="M573.626 373.933L564.428 370.17C553.14 376.86 547.913 385.431 547.913 396.301C547.913 409.053 557.739 414.28 570.073 414.28C582.406 414.28 592.232 409.053 592.232 396.301C592.232 385.64 584.706 378.532 573.626 373.933ZM552.512 326.688C552.512 337.14 558.366 342.785 567.564 346.757L575.299 350.101C583.243 344.039 587.633 336.095 587.633 326.688C587.633 317.49 580.734 312.263 570.073 312.263C559.411 312.263 552.512 317.49 552.512 326.688ZM595.786 359.927V360.763C609.792 369.752 618.154 379.995 618.154 396.301C618.154 423.896 599.967 438.529 570.073 438.529C540.178 438.529 521.991 423.896 521.991 396.301C521.991 380.832 529.935 368.289 544.359 359.927V359.09C533.698 353.237 526.59 341.948 526.59 326.688C526.59 302.02 542.269 288.014 570.073 288.014C597.876 288.014 613.555 302.02 613.555 326.688C613.555 340.903 605.611 352.61 595.786 359.927Z" fill="white"/>
<path d="M878.389 333.624H897.95V298.387H884.355V302.688C884.355 314.757 881.996 326.757 878.389 333.624ZM871.939 340.283V350.479H865.835L864.447 333.624H869.996C875.268 326.618 877.071 313.092 877.071 297.139V291.728H905.441V333.624H912.378L910.99 350.479H904.886V340.283H871.939Z" fill="white"/>
<path d="M932.844 310.248C927.433 310.248 923.896 314.826 923.896 322.595C923.896 330.364 927.433 334.942 932.844 334.942C938.254 334.942 941.791 330.364 941.791 322.595C941.791 314.826 938.254 310.248 932.844 310.248ZM932.844 340.976C922.994 340.976 916.543 334.109 916.543 322.595C916.543 311.081 922.994 304.214 932.844 304.214C942.693 304.214 949.144 311.081 949.144 322.595C949.144 334.109 942.693 340.976 932.844 340.976Z" fill="white"/>
<path d="M984.386 291.728V333.624H998.467V291.728H1005.96V333.624H1020.04V291.728H1027.53V340.283H976.895V291.728H984.386Z" fill="white"/>
<path d="M1045.78 340.283H1039.33V304.907H1046.55V328.491H1046.82L1063.12 304.907H1069.58V340.283H1062.36V316.699H1062.08L1045.78 340.283Z" fill="white"/>
<path d="M1087.87 339.104V354.155L1080.65 355.543V304.907H1085.79L1087.17 308.653H1087.45C1089.95 305.948 1092.79 304.214 1097.51 304.214C1107.5 304.214 1111.8 312.052 1111.8 322.595C1111.8 333.138 1107.43 340.976 1096.88 340.976C1093.28 340.976 1090.43 340.283 1087.87 339.104ZM1095.7 334.942C1101.18 334.942 1104.44 330.433 1104.44 322.595C1104.44 315.312 1101.53 310.248 1095.43 310.248C1092.51 310.248 1090.02 311.982 1087.87 314.618V332.445C1090.09 334.04 1092.58 334.942 1095.7 334.942Z" fill="white"/>
<path d="M1135.04 310.248C1129.63 310.248 1126.09 314.826 1126.09 322.595C1126.09 330.364 1129.63 334.942 1135.04 334.942C1140.45 334.942 1143.99 330.364 1143.99 322.595C1143.99 314.826 1140.45 310.248 1135.04 310.248ZM1135.04 340.976C1125.19 340.976 1118.74 334.109 1118.74 322.595C1118.74 311.081 1125.19 304.214 1135.04 304.214C1144.89 304.214 1151.34 311.081 1151.34 322.595C1151.34 334.109 1144.89 340.976 1135.04 340.976Z" fill="white"/>
<path d="M1188.33 304.907L1177.31 321.971L1189.03 340.283L1181.68 340.976L1171.48 324.953H1167.59V340.283H1160.38V304.907H1167.59V319.196H1171.55L1180.84 304.907H1188.33Z" fill="white"/>
<path d="M1208.81 310.248C1203.4 310.248 1199.86 314.826 1199.86 322.595C1199.86 330.364 1203.4 334.942 1208.81 334.942C1214.22 334.942 1217.76 330.364 1217.76 322.595C1217.76 314.826 1214.22 310.248 1208.81 310.248ZM1208.81 340.976C1198.96 340.976 1192.51 334.109 1192.51 322.595C1192.51 311.081 1198.96 304.214 1208.81 304.214C1218.66 304.214 1225.11 311.081 1225.11 322.595C1225.11 334.109 1218.66 340.976 1208.81 340.976Z" fill="white"/>
<path d="M1240.6 340.283H1234.15V304.907H1241.36V328.491H1241.64L1257.94 304.907H1264.39V340.283H1257.18V316.699H1256.9L1240.6 340.283ZM1256.07 289.994L1260.71 293.046C1258.22 297.416 1254.12 299.566 1249.27 299.566C1244.34 299.566 1240.32 297.347 1237.82 293.046L1242.4 289.994C1243.93 292.907 1246.36 294.503 1249.27 294.503C1252.18 294.503 1254.54 292.977 1256.07 289.994Z" fill="white"/>
<path d="M1300.7 339.104V354.155L1293.49 355.543V304.907H1298.62L1300.01 308.653H1300.28C1302.78 305.948 1305.62 304.214 1310.34 304.214C1320.33 304.214 1324.63 312.052 1324.63 322.595C1324.63 333.138 1320.26 340.976 1309.72 340.976C1306.11 340.976 1303.27 340.283 1300.7 339.104ZM1308.54 334.942C1314.02 334.942 1317.28 330.433 1317.28 322.595C1317.28 315.312 1314.36 310.248 1308.26 310.248C1305.35 310.248 1302.85 311.982 1300.7 314.618V332.445C1302.92 334.04 1305.42 334.942 1308.54 334.942Z" fill="white"/>
<path d="M1362.09 318.433C1362.09 320.237 1361.89 322.179 1361.47 324.26H1339C1339.48 331.127 1343.09 334.942 1349.47 334.942C1352.66 334.942 1355.71 333.832 1358.28 332.514L1360.64 337.994C1357.24 339.728 1353.28 340.976 1348.78 340.976C1338.37 340.976 1331.57 334.179 1331.57 322.595C1331.57 310.942 1337.95 304.214 1347.53 304.214C1357.03 304.214 1362.09 309.763 1362.09 318.433ZM1347.67 310.248C1342.88 310.248 1339.9 313.647 1339.27 318.641H1355.64C1355.64 313.786 1353.01 310.248 1347.67 310.248Z" fill="white"/>
<path d="M1381.24 327.312C1374.23 327.312 1369.03 323.635 1369.03 315.867V304.907H1376.25V315.242C1376.25 319.474 1378.88 321.277 1382.35 321.277C1385.06 321.277 1387.14 320.722 1389.08 320.029V304.907H1396.29V340.283H1389.08V325.855C1387.14 326.618 1384.15 327.312 1381.24 327.312Z" fill="white"/>
<path d="M1435.37 304.907L1424.35 321.971L1436.07 340.283L1428.72 340.976L1418.52 324.953H1414.63V340.283H1407.42V304.907H1414.63V319.196H1418.59L1427.88 304.907H1435.37Z" fill="white"/>
<path d="M1448.76 340.283H1442.31V304.907H1449.52V328.491H1449.8L1466.1 304.907H1472.55V340.283H1465.33V316.699H1465.06L1448.76 340.283Z" fill="white"/>
<path d="M2058.09 350.003C2058.09 336.134 2051.99 326.287 2041.31 326.287C2031.88 326.287 2024.67 332.666 2024.67 344.178C2024.67 355.689 2031.88 362.069 2041.31 362.069C2048.38 362.069 2055.18 357.214 2058.09 350.003ZM2055.59 369.003L2055.18 368.726C2050.74 372.886 2044.64 374.689 2037.56 374.689C2021.06 374.689 2009.69 363.733 2009.69 344.178C2009.69 325.177 2023.14 312.973 2041.31 312.973C2060.86 312.973 2072.79 326.148 2072.79 348.616C2072.79 383.288 2053.37 404.507 2024.67 412.829L2019.4 401.456C2035.9 395.215 2051.02 385.784 2055.59 369.003Z" fill="white"/>
<path d="M2413.58 314.357H2448.67V398.126H2471.14V411.44H2408.73V398.126H2434.11V327.672H2410.81L2413.58 314.357Z" fill="#C8A563"/>
<path d="M2512.82 399.512C2522.95 399.512 2531.55 393.271 2531.55 380.235C2531.55 367.198 2522.25 360.402 2511.3 360.402C2499.51 360.402 2491.19 364.563 2491.19 364.563V314.357H2543.06L2540.28 327.672H2505.75V348.475C2508.38 347.92 2511.99 347.643 2514.35 347.643C2532.1 347.643 2546.66 358.183 2546.66 380.235C2546.66 401.593 2531.41 412.827 2513.79 412.827C2501.59 412.827 2493.54 409.637 2485.64 404.644L2492.71 392.994C2498.54 396.877 2504.22 399.512 2512.82 399.512Z" fill="#C8A563"/>
<path d="M300 564.412C300 550.668 311.142 539.525 324.887 539.525H698.189C711.934 539.525 723.076 550.668 723.076 564.412V753.552C723.076 767.297 711.934 778.439 698.189 778.439H324.887C311.142 778.439 300 767.297 300 753.552V564.412Z" fill="#00B400"/>
<path d="M446.868 655.766C446.868 705.31 426.8 731.023 394.606 731.023C362.412 731.023 342.344 705.31 342.344 655.766C342.344 606.221 362.412 580.508 394.606 580.508C426.8 580.508 446.868 606.221 446.868 655.766ZM369.311 655.766C369.311 691.722 380.182 706.774 394.606 706.774C409.03 706.774 419.901 691.722 419.901 655.766C419.901 619.809 409.03 604.758 394.606 604.758C380.182 604.758 369.311 619.809 369.311 655.766Z" fill="white"/>
<path d="M472.91 582.598H553.185L549.004 606.848H499.041V634.024C502.386 633.397 506.149 632.77 509.493 632.77C536.252 632.77 558.62 648.658 558.62 681.897C558.62 714.09 534.579 731.023 508.03 731.023C489.634 731.023 476.464 726.215 464.548 718.689L477.509 697.575C485.871 703.011 494.651 706.774 506.567 706.774C519.737 706.774 531.653 698.621 531.653 681.897C531.653 664.964 518.692 656.184 504.267 656.184C487.334 656.184 472.91 662.246 472.91 662.246V582.598Z" fill="white"/>
<path d="M644.449 623.363C644.449 611.865 637.969 604.758 625.844 604.758C615.392 604.758 605.566 608.311 596.368 613.956L584.034 592.842C600.758 583.853 612.674 580.508 629.816 580.508C655.529 580.508 671.417 595.141 671.417 620.645C671.417 652.839 643.613 683.569 618.109 703.847V704.683H675.598L671.417 728.933H581.526V706.774C610.165 685.242 644.449 651.376 644.449 623.363Z" fill="white"/>
<path d="M2021.85 606.852H2056.93V690.62H2079.4V703.934H2016.99V690.62H2042.37V620.166H2019.07L2021.85 606.852Z" fill="white"/>
<path d="M2105.55 655.393C2105.55 681.189 2113.32 692.007 2124.42 692.007C2135.51 692.007 2143.28 681.189 2143.28 655.393C2143.28 629.597 2135.51 618.779 2124.42 618.779C2113.32 618.779 2105.55 629.597 2105.55 655.393ZM2158.4 655.393C2158.4 688.262 2145.77 705.321 2124.42 705.321C2103.06 705.321 2090.44 688.262 2090.44 655.393C2090.44 622.524 2103.06 605.465 2124.42 605.465C2145.77 605.465 2158.4 622.524 2158.4 655.393Z" fill="white"/>
<path d="M2418.81 606.85H2453.9V690.618H2476.36V703.932H2413.95V690.618H2439.33V620.164H2416.03L2418.81 606.85Z" fill="#C8A563"/>
<path d="M2518.05 692.005C2528.17 692.005 2536.77 685.764 2536.77 672.727C2536.77 659.69 2527.48 652.894 2516.52 652.894C2504.73 652.894 2496.41 657.055 2496.41 657.055V606.85H2548.28L2545.51 620.164H2510.98V640.967C2513.61 640.412 2517.22 640.135 2519.57 640.135C2537.33 640.135 2551.89 650.675 2551.89 672.727C2551.89 694.085 2536.63 705.319 2519.02 705.319C2506.82 705.319 2498.77 702.129 2490.87 697.136L2497.94 685.486C2503.76 689.37 2509.45 692.005 2518.05 692.005Z" fill="#C8A563"/>
<path d="M878.389 626.124H897.95V590.887H884.355V595.188C884.355 607.257 881.996 619.257 878.389 626.124ZM871.939 632.783V642.979H865.835L864.447 626.124H869.996C875.268 619.118 877.071 605.593 877.071 589.639V584.229H905.441V626.124H912.378L910.99 642.979H904.886V632.783H871.939Z" fill="white"/>
<path d="M932.844 602.749C927.433 602.749 923.896 607.327 923.896 615.095C923.896 622.864 927.433 627.442 932.844 627.442C938.254 627.442 941.791 622.864 941.791 615.095C941.791 607.327 938.254 602.749 932.844 602.749ZM932.844 633.477C922.994 633.477 916.543 626.61 916.543 615.095C916.543 603.581 922.994 596.714 932.844 596.714C942.693 596.714 949.144 603.581 949.144 615.095C949.144 626.61 942.693 633.477 932.844 633.477Z" fill="white"/>
<path d="M984.386 632.783H976.895V584.229H1011.92V632.783H1004.43V590.887H984.386V632.783Z" fill="white"/>
<path d="M1037.91 602.749C1032.49 602.749 1028.96 607.327 1028.96 615.095C1028.96 622.864 1032.49 627.442 1037.91 627.442C1043.32 627.442 1046.85 622.864 1046.85 615.095C1046.85 607.327 1043.32 602.749 1037.91 602.749ZM1037.91 633.477C1028.06 633.477 1021.6 626.61 1021.6 615.095C1021.6 603.581 1028.06 596.714 1037.91 596.714C1047.75 596.714 1054.21 603.581 1054.21 615.095C1054.21 626.61 1047.75 633.477 1037.91 633.477Z" fill="white"/>
<path d="M1058.06 631.881L1059.72 626.124C1060.49 626.61 1061.32 626.818 1062.08 626.818C1065.34 626.818 1067.15 620.089 1067.15 603.304V597.408H1090.8V632.783H1083.58V603.442H1074.01V604.968C1074.01 623.835 1070.61 633.13 1062.64 633.13C1060.69 633.13 1059.31 632.714 1058.06 631.881Z" fill="white"/>
<path d="M1130.36 610.934C1130.36 612.737 1130.15 614.679 1129.74 616.76H1107.26C1107.75 623.627 1111.36 627.442 1117.74 627.442C1120.93 627.442 1123.98 626.332 1126.55 625.014L1128.91 630.494C1125.51 632.228 1121.55 633.477 1117.04 633.477C1106.64 633.477 1099.84 626.679 1099.84 615.095C1099.84 603.442 1106.22 596.714 1115.8 596.714C1125.3 596.714 1130.36 602.263 1130.36 610.934ZM1115.93 602.749C1111.15 602.749 1108.17 606.147 1107.54 611.142H1123.91C1123.91 606.286 1121.28 602.749 1115.93 602.749Z" fill="white"/>
<path d="M1154.57 627.442C1157 627.442 1159.71 626.887 1162.06 625.916L1164.28 631.465C1161.3 632.783 1158.18 633.477 1154.57 633.477C1143.13 633.477 1137.3 625.292 1137.3 615.095C1137.3 604.899 1142.78 596.714 1154.23 596.714C1157.56 596.714 1160.95 597.338 1163.94 598.587L1161.72 604.136C1159.36 603.165 1157.07 602.749 1154.64 602.749C1148.68 602.749 1144.65 607.743 1144.65 615.095C1144.65 622.448 1148.61 627.442 1154.57 627.442Z" fill="white"/>
<path d="M1179.11 610.309H1186.05C1193.68 610.309 1198.67 614.471 1198.67 621.615C1198.67 628.76 1193.68 632.783 1186.05 632.783H1171.9V597.408H1179.11V610.309ZM1185.35 616.344H1179.11V626.748H1185.35C1189.03 626.748 1191.32 624.806 1191.32 621.546C1191.32 618.286 1189.03 616.344 1185.35 616.344Z" fill="white"/>
<path d="M1202.84 632.783L1211.72 618.98C1207.56 617.315 1205.2 613.708 1205.2 608.645C1205.2 601.778 1209.84 597.408 1217.47 597.408H1231.42V632.783H1224.2V619.951H1218.72L1211.09 632.783H1202.84ZM1212.55 608.783C1212.55 611.905 1214.7 613.986 1218.17 613.986H1224.2V603.442H1218.17C1214.7 603.442 1212.55 605.662 1212.55 608.783Z" fill="white"/>
<path d="M300 856.916C300 843.171 311.142 832.029 324.887 832.029H698.189C711.934 832.029 723.076 843.172 723.076 856.916V1046.06C723.076 1059.8 711.934 1070.94 698.189 1070.94H324.887C311.142 1070.94 300 1059.8 300 1046.06V856.916Z" fill="#00B400"/>
<path d="M414.419 875.1H494.694L490.513 899.35H440.55V926.526C443.895 925.899 447.657 925.272 451.002 925.272C477.761 925.272 500.129 941.16 500.129 974.399C500.129 1006.59 476.088 1023.53 449.539 1023.53C431.143 1023.53 417.972 1018.72 406.057 1011.19L419.018 990.077C427.38 995.513 436.16 999.276 448.076 999.276C461.246 999.276 473.161 991.123 473.161 974.399C473.161 957.466 460.2 948.686 445.776 948.686C428.843 948.686 414.419 954.748 414.419 954.748V875.1Z" fill="white"/>
<path d="M552.719 936.561L553.347 936.979C559.618 932.798 567.771 930.498 576.133 930.498C601.01 930.498 619.197 947.013 619.197 976.489C619.197 1005.13 597.874 1023.53 570.489 1023.53C541.013 1023.53 521.989 1002.41 521.989 969.8C521.989 916.91 554.392 885.553 597.665 873.01L606.654 892.242C583.868 901.022 561.081 914.193 552.719 936.561ZM570.489 953.703C561.709 953.703 552.092 960.601 548.329 969.8C548.329 987.569 557.11 999.276 570.489 999.276C582.404 999.276 593.275 992.168 593.275 976.489C593.275 960.811 582.404 953.703 570.489 953.703Z" fill="white"/>
<path d="M878.389 918.618H897.95V883.381H884.355V887.682C884.355 899.751 881.996 911.751 878.389 918.618ZM871.939 925.277V935.473H865.835L864.447 918.618H869.996C875.268 911.612 877.071 898.086 877.071 882.132V876.722H905.441V918.618H912.378L910.99 935.473H904.886V925.277H871.939Z" fill="white"/>
<path d="M932.844 895.242C927.433 895.242 923.896 899.82 923.896 907.589C923.896 915.358 927.433 919.936 932.844 919.936C938.254 919.936 941.791 915.358 941.791 907.589C941.791 899.82 938.254 895.242 932.844 895.242ZM932.844 925.97C922.994 925.97 916.543 919.103 916.543 907.589C916.543 896.075 922.994 889.208 932.844 889.208C942.693 889.208 949.144 896.075 949.144 907.589C949.144 919.103 942.693 925.97 932.844 925.97Z" fill="white"/>
<path d="M984.386 925.277H976.895V876.722H1011.92V925.277H1004.43V883.381H984.386V925.277Z" fill="white"/>
<path d="M1019.52 895.936V889.901H1049.49L1048.1 895.936H1037.91V925.277H1030.76V895.936H1019.52Z" fill="white"/>
<path d="M1062.52 925.277H1056.06V889.901H1063.28V913.485H1063.56L1079.86 889.901H1086.31V925.277H1079.09V901.693H1078.82L1062.52 925.277Z" fill="white"/>
<path d="M1130.75 919.242L1129.36 934.086H1123.53V925.277H1097.38V889.901H1104.6V919.242H1117.92V889.901H1125.13V919.242H1130.75Z" fill="white"/>
<path d="M1165.45 903.427C1165.45 905.231 1165.24 907.173 1164.83 909.254H1142.35C1142.84 916.121 1146.44 919.936 1152.83 919.936C1156.02 919.936 1159.07 918.826 1161.64 917.508L1163.99 922.988C1160.59 924.722 1156.64 925.97 1152.13 925.97C1141.73 925.97 1134.93 919.173 1134.93 907.589C1134.93 895.936 1141.31 889.208 1150.88 889.208C1160.39 889.208 1165.45 894.757 1165.45 903.427ZM1151.02 895.242C1146.24 895.242 1143.25 898.641 1142.63 903.635H1159C1159 898.78 1156.36 895.242 1151.02 895.242Z" fill="white"/>
<path d="M1191.26 919.589V895.589C1190.49 895.381 1189.24 895.242 1188.13 895.242C1182.17 895.242 1179.67 900.236 1179.67 907.589C1179.67 914.941 1182.17 919.936 1188.13 919.936C1189.24 919.936 1190.42 919.797 1191.26 919.589ZM1198.33 925.623V939.149L1191.12 940.537V925.623C1190.22 925.762 1188.69 925.97 1187.02 925.97C1176.27 925.97 1172.39 917.785 1172.39 907.589C1172.39 897.392 1176.27 889.208 1187.02 889.208C1188.69 889.208 1190.22 889.416 1191.12 889.554V874.641L1198.33 873.254V889.554C1199.23 889.416 1200.76 889.208 1202.42 889.208C1213.17 889.208 1217.06 897.392 1217.06 907.589C1217.06 917.785 1213.17 925.97 1202.42 925.97C1200.76 925.97 1199.23 925.762 1198.33 925.623ZM1198.19 895.589V919.589C1198.96 919.797 1200.2 919.936 1201.31 919.936C1207.28 919.936 1209.78 914.941 1209.78 907.589C1209.78 900.236 1207.28 895.242 1201.31 895.242C1200.2 895.242 1198.96 895.381 1198.19 895.589Z" fill="white"/>
<path d="M1244.19 910.086H1236.77C1233.3 910.086 1230.8 912.028 1230.8 915.219C1230.8 918.41 1233.16 919.936 1236.01 919.936C1239.4 919.936 1242.11 918.202 1244.19 915.566V910.086ZM1237.05 904.468H1244.19V902.109C1244.19 897.878 1242.39 895.242 1237.18 895.242C1233.99 895.242 1230.87 895.936 1227.61 897.115L1225.53 891.497C1229.62 889.971 1233.58 889.208 1238.02 889.208C1248.84 889.208 1251.4 894.895 1251.4 902.248V917.092C1251.4 918.826 1252.38 919.589 1253.9 919.589H1254.66V924.93C1253.62 925.346 1251.89 925.623 1250.5 925.623C1247.24 925.623 1245.51 923.681 1244.88 921.531H1244.61C1242.04 924.097 1239.2 925.623 1234.62 925.623C1227.89 925.623 1223.66 922.294 1223.66 915.08C1223.66 908.352 1229.21 904.468 1237.05 904.468Z" fill="white"/>
<path d="M1267.81 903.011C1267.81 914.317 1270.65 919.936 1276.89 919.936C1282.3 919.936 1286.26 916.19 1286.26 908.491C1286.26 900.791 1282.65 896.976 1277.72 896.976C1274.19 896.976 1270.44 898.78 1267.81 903.011ZM1291.94 879.011C1288.13 880.884 1283.48 881.786 1278.97 882.132C1271.27 882.687 1267.53 885.393 1267.53 895.52H1267.74C1270.79 892.329 1274.4 890.942 1278.97 890.942C1287.64 890.942 1293.61 896.699 1293.61 908.491C1293.61 920.005 1286.74 925.97 1276.89 925.97C1265.45 925.97 1260.59 917.439 1260.59 903.288C1260.59 880.953 1266.83 876.861 1278.28 875.82C1283.48 875.335 1286.19 874.711 1289.79 873.254L1291.94 879.011Z" fill="white"/>
<path d="M1310.18 924.097V939.149L1302.97 940.537V889.901H1308.1L1309.49 893.647H1309.77C1312.26 890.942 1315.11 889.208 1319.82 889.208C1329.81 889.208 1334.11 897.046 1334.11 907.589C1334.11 918.132 1329.74 925.97 1319.2 925.97C1315.59 925.97 1312.75 925.277 1310.18 924.097ZM1318.02 919.936C1323.5 919.936 1326.76 915.427 1326.76 907.589C1326.76 900.306 1323.85 895.242 1317.74 895.242C1314.83 895.242 1312.33 896.976 1310.18 899.612V917.439C1312.4 919.034 1314.9 919.936 1318.02 919.936Z" fill="white"/>
<path d="M1349.59 925.277H1343.14V889.901H1350.35V913.485H1350.63L1366.93 889.901H1373.38V925.277H1366.17V901.693H1365.89L1349.59 925.277Z" fill="white"/>
<path d="M1412.41 889.901L1401.38 906.965L1413.1 925.277L1405.75 925.97L1395.56 909.947H1391.67V925.277H1384.46V889.901H1391.67V904.19H1395.63L1404.92 889.901H1412.41Z" fill="white"/>
<path d="M1425.79 925.277H1419.34V889.901H1426.56V913.485H1426.83L1443.13 889.901H1449.59V925.277H1442.37V901.693H1442.09L1425.79 925.277Z" fill="white"/>
<path d="M2021.85 899.35H2056.93V983.118H2079.4V996.432H2016.99V983.118H2042.37V912.664H2019.07L2021.85 899.35Z" fill="white"/>
<path d="M2121.09 984.505C2131.21 984.505 2139.81 978.264 2139.81 965.227C2139.81 952.19 2130.52 945.394 2119.56 945.394C2107.77 945.394 2099.45 949.555 2099.45 949.555V899.35H2151.32L2148.55 912.664H2114.01V933.467C2116.65 932.912 2120.26 932.635 2122.61 932.635C2140.37 932.635 2154.93 943.175 2154.93 965.227C2154.93 986.585 2139.67 997.819 2122.06 997.819C2109.85 997.819 2101.81 994.629 2093.9 989.636L2100.98 977.986C2106.8 981.87 2112.49 984.505 2121.09 984.505Z" fill="white"/>
<path d="M2434.76 982.565V983.12H2474.28L2471.51 996.434H2413.26V984.507C2432.26 970.222 2456.39 944.98 2456.39 926.396C2456.39 917.104 2451.82 911.279 2441.97 911.279C2434.48 911.279 2428.1 913.775 2421.58 917.797L2414.93 906.147C2426.02 900.184 2433.23 897.965 2444.61 897.965C2461.66 897.965 2471.51 907.673 2471.51 924.593C2471.51 945.951 2451.68 969.112 2434.76 982.565Z" fill="#C8A563"/>
<path d="M2502.52 947.893C2502.52 973.689 2510.28 984.507 2521.38 984.507C2532.47 984.507 2540.24 973.689 2540.24 947.893C2540.24 922.097 2532.47 911.279 2521.38 911.279C2510.28 911.279 2502.52 922.097 2502.52 947.893ZM2555.36 947.893C2555.36 980.762 2542.74 997.821 2521.38 997.821C2500.02 997.821 2487.4 980.762 2487.4 947.893C2487.4 915.024 2500.02 897.965 2521.38 897.965C2542.74 897.965 2555.36 915.024 2555.36 947.893Z" fill="#C8A563"/>
<path d="M300 1149.41C300 1135.66 311.142 1124.52 324.887 1124.52H698.189C711.934 1124.52 723.076 1135.66 723.076 1149.41V1338.55C723.076 1352.29 711.934 1363.44 698.189 1363.44H324.887C311.142 1363.44 300 1352.29 300 1338.55V1149.41Z" fill="#00B400"/>
<path d="M446.868 1240.76C446.868 1290.31 426.8 1316.02 394.606 1316.02C362.412 1316.02 342.344 1290.31 342.344 1240.76C342.344 1191.22 362.412 1165.5 394.606 1165.5C426.8 1165.5 446.868 1191.22 446.868 1240.76ZM369.311 1240.76C369.311 1276.72 380.182 1291.77 394.606 1291.77C409.031 1291.77 419.901 1276.72 419.901 1240.76C419.901 1204.81 409.031 1189.75 394.606 1189.75C380.182 1189.75 369.311 1204.81 369.311 1240.76Z" fill="white"/>
<path d="M472.91 1167.59H553.185L549.004 1191.84H499.041V1219.02C502.386 1218.39 506.149 1217.77 509.493 1217.77C536.252 1217.77 558.62 1233.65 558.62 1266.89C558.62 1299.09 534.579 1316.02 508.03 1316.02C489.634 1316.02 476.464 1311.21 464.548 1303.69L477.509 1282.57C485.871 1288.01 494.651 1291.77 506.567 1291.77C519.737 1291.77 531.653 1283.62 531.653 1266.89C531.653 1249.96 518.692 1241.18 504.267 1241.18C487.334 1241.18 472.91 1247.24 472.91 1247.24V1167.59Z" fill="white"/>
<path d="M611.211 1229.05L611.838 1229.47C618.109 1225.29 626.262 1222.99 634.624 1222.99C659.501 1222.99 677.688 1239.51 677.688 1268.98C677.688 1297.62 656.365 1316.02 628.98 1316.02C599.504 1316.02 580.48 1294.91 580.48 1262.29C580.48 1209.4 612.883 1178.05 656.156 1165.5L665.145 1184.74C642.359 1193.52 619.573 1206.69 611.211 1229.05ZM628.98 1246.2C620.2 1246.2 610.584 1253.1 606.821 1262.29C606.821 1280.06 615.601 1291.77 628.98 1291.77C640.896 1291.77 651.766 1284.66 651.766 1268.98C651.766 1253.3 640.896 1246.2 628.98 1246.2Z" fill="white"/>
<path d="M878.389 1211.12H897.95V1175.88H884.355V1180.18C884.355 1192.25 881.996 1204.25 878.389 1211.12ZM871.939 1217.77V1227.97H865.835L864.447 1211.12H869.996C875.268 1204.11 877.071 1190.58 877.071 1174.63V1169.22H905.441V1211.12H912.378L910.99 1227.97H904.886V1217.77H871.939Z" fill="white"/>
<path d="M932.844 1187.74C927.433 1187.74 923.896 1192.32 923.896 1200.09C923.896 1207.86 927.433 1212.43 932.844 1212.43C938.254 1212.43 941.791 1207.86 941.791 1200.09C941.791 1192.32 938.254 1187.74 932.844 1187.74ZM932.844 1218.47C922.994 1218.47 916.543 1211.6 916.543 1200.09C916.543 1188.57 922.994 1181.71 932.844 1181.71C942.693 1181.71 949.144 1188.57 949.144 1200.09C949.144 1211.6 942.693 1218.47 932.844 1218.47Z" fill="white"/>
<path d="M994.929 1175.19C986.051 1175.19 982.583 1183.23 982.583 1193.5C982.583 1203.76 986.051 1211.81 994.929 1211.81C998.675 1211.81 1002.14 1210.77 1005.54 1208.83L1008.46 1214.72C1004.09 1217.22 1000.41 1218.47 994.929 1218.47C980.502 1218.47 974.814 1207.51 974.814 1193.5C974.814 1179.49 980.502 1168.53 994.929 1168.53C999.369 1168.53 1002.98 1169.22 1007.62 1171.65L1004.71 1177.54C1001.31 1175.81 997.981 1175.19 994.929 1175.19Z" fill="white"/>
<path d="M1029.23 1187.74C1023.82 1187.74 1020.29 1192.32 1020.29 1200.09C1020.29 1207.86 1023.82 1212.43 1029.23 1212.43C1034.64 1212.43 1038.18 1207.86 1038.18 1200.09C1038.18 1192.32 1034.64 1187.74 1029.23 1187.74ZM1029.23 1218.47C1019.38 1218.47 1012.93 1211.6 1012.93 1200.09C1012.93 1188.57 1019.38 1181.71 1029.23 1181.71C1039.08 1181.71 1045.54 1188.57 1045.54 1200.09C1045.54 1211.6 1039.08 1218.47 1029.23 1218.47Z" fill="white"/>
<path d="M1069.76 1212.43C1072.19 1212.43 1074.9 1211.88 1077.26 1210.91L1079.48 1216.46C1076.49 1217.77 1073.37 1218.47 1069.76 1218.47C1058.32 1218.47 1052.49 1210.28 1052.49 1200.09C1052.49 1189.89 1057.97 1181.71 1069.42 1181.71C1072.75 1181.71 1076.15 1182.33 1079.13 1183.58L1076.91 1189.13C1074.55 1188.16 1072.26 1187.74 1069.83 1187.74C1063.87 1187.74 1059.85 1192.73 1059.85 1200.09C1059.85 1207.44 1063.8 1212.43 1069.76 1212.43Z" fill="white"/>
<path d="M1115.46 1182.4V1217.77H1108.24V1202.58H1094.3V1217.77H1087.09V1182.4H1094.3V1196.55H1108.24V1182.4H1115.46Z" fill="white"/>
<path d="M1140.8 1187.74C1135.39 1187.74 1131.85 1192.32 1131.85 1200.09C1131.85 1207.86 1135.39 1212.43 1140.8 1212.43C1146.21 1212.43 1149.75 1207.86 1149.75 1200.09C1149.75 1192.32 1146.21 1187.74 1140.8 1187.74ZM1140.8 1218.47C1130.95 1218.47 1124.5 1211.6 1124.5 1200.09C1124.5 1188.57 1130.95 1181.71 1140.8 1181.71C1150.65 1181.71 1157.1 1188.57 1157.1 1200.09C1157.1 1211.6 1150.65 1218.47 1140.8 1218.47Z" fill="white"/>
<path d="M1186.11 1199.19C1189.51 1199.95 1193.61 1202.45 1193.61 1207.58C1193.61 1213.96 1189.58 1217.77 1181.54 1217.77H1166.14V1182.4H1180.43C1187.5 1182.4 1192.15 1185.04 1192.15 1191.42C1192.15 1195.23 1189.31 1198.21 1186.11 1198.98V1199.19ZM1179.66 1202.51H1173.35V1211.74H1180.36C1184.03 1211.74 1186.25 1210.28 1186.25 1207.16C1186.25 1204.04 1183.83 1202.51 1179.66 1202.51ZM1179.53 1188.43H1173.35V1196.48H1179.04C1182.3 1196.48 1184.8 1195.44 1184.8 1192.46C1184.8 1189.34 1182.58 1188.43 1179.53 1188.43Z" fill="white"/>
<path d="M1216.87 1187.74C1211.46 1187.74 1207.92 1192.32 1207.92 1200.09C1207.92 1207.86 1211.46 1212.43 1216.87 1212.43C1222.28 1212.43 1225.82 1207.86 1225.82 1200.09C1225.82 1192.32 1222.28 1187.74 1216.87 1187.74ZM1216.87 1218.47C1207.02 1218.47 1200.57 1211.6 1200.57 1200.09C1200.57 1188.57 1207.02 1181.71 1216.87 1181.71C1226.72 1181.71 1233.17 1188.57 1233.17 1200.09C1233.17 1211.6 1226.72 1218.47 1216.87 1218.47Z" fill="white"/>
<path d="M1242.21 1182.4H1264.27L1262.88 1188.43H1249.42V1217.77H1242.21V1182.4Z" fill="white"/>
<path d="M1283.73 1187.74C1278.32 1187.74 1274.78 1192.32 1274.78 1200.09C1274.78 1207.86 1278.32 1212.43 1283.73 1212.43C1289.14 1212.43 1292.67 1207.86 1292.67 1200.09C1292.67 1192.32 1289.14 1187.74 1283.73 1187.74ZM1283.73 1218.47C1273.88 1218.47 1267.43 1211.6 1267.43 1200.09C1267.43 1188.57 1273.88 1181.71 1283.73 1181.71C1293.58 1181.71 1300.03 1188.57 1300.03 1200.09C1300.03 1211.6 1293.58 1218.47 1283.73 1218.47Z" fill="white"/>
<path d="M1332.56 1195.51C1332.56 1206.82 1335.41 1212.43 1341.65 1212.43C1347.06 1212.43 1351.01 1208.69 1351.01 1200.99C1351.01 1193.29 1347.41 1189.47 1342.48 1189.47C1338.94 1189.47 1335.2 1191.28 1332.56 1195.51ZM1356.7 1171.51C1352.89 1173.38 1348.24 1174.28 1343.73 1174.63C1336.03 1175.19 1332.29 1177.89 1332.29 1188.02H1332.49C1335.55 1184.83 1339.15 1183.44 1343.73 1183.44C1352.4 1183.44 1358.37 1189.2 1358.37 1200.99C1358.37 1212.5 1351.5 1218.47 1341.65 1218.47C1330.2 1218.47 1325.35 1209.94 1325.35 1195.79C1325.35 1173.45 1331.59 1169.36 1343.04 1168.32C1348.24 1167.83 1350.94 1167.21 1354.55 1165.75L1356.7 1171.51Z" fill="white"/>
<path d="M1381.95 1187.74C1376.54 1187.74 1373 1192.32 1373 1200.09C1373 1207.86 1376.54 1212.43 1381.95 1212.43C1387.36 1212.43 1390.89 1207.86 1390.89 1200.09C1390.89 1192.32 1387.36 1187.74 1381.95 1187.74ZM1381.95 1218.47C1372.1 1218.47 1365.65 1211.6 1365.65 1200.09C1365.65 1188.57 1372.1 1181.71 1381.95 1181.71C1391.8 1181.71 1398.25 1188.57 1398.25 1200.09C1398.25 1211.6 1391.8 1218.47 1381.95 1218.47Z" fill="white"/>
<path d="M1414.5 1216.6V1231.65L1407.29 1233.03V1182.4H1412.42L1413.81 1186.14H1414.08C1416.58 1183.44 1419.42 1181.71 1424.14 1181.71C1434.13 1181.71 1438.43 1189.54 1438.43 1200.09C1438.43 1210.63 1434.06 1218.47 1423.52 1218.47C1419.91 1218.47 1417.07 1217.77 1414.5 1216.6ZM1422.34 1212.43C1427.82 1212.43 1431.08 1207.93 1431.08 1200.09C1431.08 1192.8 1428.16 1187.74 1422.06 1187.74C1419.15 1187.74 1416.65 1189.47 1414.5 1192.11V1209.94C1416.72 1211.53 1419.22 1212.43 1422.34 1212.43Z" fill="white"/>
<path d="M1465.56 1202.58H1458.14C1454.67 1202.58 1452.17 1204.53 1452.17 1207.72C1452.17 1210.91 1454.53 1212.43 1457.37 1212.43C1460.77 1212.43 1463.48 1210.7 1465.56 1208.06V1202.58ZM1458.41 1196.97H1465.56V1194.61C1465.56 1190.38 1463.75 1187.74 1458.55 1187.74C1455.36 1187.74 1452.24 1188.43 1448.98 1189.61L1446.9 1183.99C1450.99 1182.47 1454.95 1181.71 1459.38 1181.71C1470.2 1181.71 1472.77 1187.39 1472.77 1194.75V1209.59C1472.77 1211.32 1473.74 1212.09 1475.27 1212.09H1476.03V1217.43C1474.99 1217.84 1473.26 1218.12 1471.87 1218.12C1468.61 1218.12 1466.88 1216.18 1466.25 1214.03H1465.97C1463.41 1216.6 1460.56 1218.12 1455.99 1218.12C1449.26 1218.12 1445.03 1214.79 1445.03 1207.58C1445.03 1200.85 1450.58 1196.97 1458.41 1196.97Z" fill="white"/>
<path d="M2021.85 1191.84H2056.93V1275.61H2079.4V1288.93H2016.99V1275.61H2042.37V1205.16H2019.07L2021.85 1191.84Z" fill="white"/>
<path d="M2125.66 1245.93L2119.84 1243.44C2111.8 1248.15 2107.64 1254.67 2107.64 1262.58C2107.64 1272.7 2114.71 1277 2124.42 1277C2134.12 1277 2141.2 1272.14 2141.2 1262.58C2141.2 1254.25 2133.85 1249.4 2125.66 1245.93ZM2110.69 1215.7C2110.69 1224.02 2116.65 1228.18 2123.72 1231.09L2128.16 1232.9C2134.54 1228.46 2138.15 1222.77 2138.15 1215.7C2138.15 1208.21 2132.32 1203.77 2124.42 1203.77C2116.51 1203.77 2110.69 1208.21 2110.69 1215.7ZM2124.42 1290.31C2105.42 1290.31 2093.21 1280.05 2093.21 1262.58C2093.21 1251.62 2099.87 1243.02 2109.3 1238.17V1237.75C2102.09 1233.73 2096.26 1226.38 2096.26 1215.7C2096.26 1200.17 2106.8 1190.46 2124.42 1190.46C2142.03 1190.46 2152.57 1200.17 2152.57 1215.7C2152.57 1226.38 2146.75 1233.87 2139.53 1237.89V1238.3C2148.96 1243.16 2155.62 1251.62 2155.62 1262.58C2155.62 1280.05 2143.42 1290.31 2124.42 1290.31Z" fill="white"/>
<path d="M2434.76 1269.84V1270.39H2474.28L2471.51 1283.71H2413.26V1271.78C2432.26 1257.49 2456.39 1232.25 2456.39 1213.67C2456.39 1204.38 2451.82 1198.55 2441.97 1198.55C2434.48 1198.55 2428.1 1201.05 2421.58 1205.07L2414.93 1193.42C2426.02 1187.46 2433.23 1185.24 2444.61 1185.24C2461.66 1185.24 2471.51 1194.94 2471.51 1211.86C2471.51 1233.22 2451.68 1256.38 2434.76 1269.84Z" fill="#C8A563"/>
<path d="M2502.52 1235.16C2502.52 1260.96 2510.28 1271.78 2521.38 1271.78C2532.47 1271.78 2540.24 1260.96 2540.24 1235.16C2540.24 1209.37 2532.47 1198.55 2521.38 1198.55C2510.28 1198.55 2502.52 1209.37 2502.52 1235.16ZM2555.36 1235.16C2555.36 1268.03 2542.74 1285.09 2521.38 1285.09C2500.02 1285.09 2487.4 1268.03 2487.4 1235.16C2487.4 1202.3 2500.02 1185.24 2521.38 1185.24C2542.74 1185.24 2555.36 1202.3 2555.36 1235.16Z" fill="#C8A563"/>
<path d="M878.872 4.4668V23.8833H897.04V4.4668H905.917V53.0079H897.04V31.9272H878.872V53.0079H869.996V4.4668H878.872Z" fill="#FFFEFE"/>
<path d="M934.45 32.2046V29.8469C934.45 26.449 932.717 24.3687 928.487 24.3687C925.505 24.3687 922.315 25.0621 919.056 26.241L916.49 19.3065C920.72 17.7116 924.811 16.9488 929.319 16.9488C940.136 16.9488 943.049 22.6351 943.049 29.9856V43.4384C943.049 45.172 944.02 45.9348 945.545 45.9348H946.308V52.6612C945.268 53.0773 943.118 53.3547 941.385 53.3547C938.264 53.3547 936.253 52.1758 935.144 49.9568H934.866C932.37 52.4532 929.596 53.3547 925.574 53.3547C918.848 53.3547 914.618 50.0261 914.618 42.8143C914.618 36.0185 920.027 32.2046 927.862 32.2046H934.45ZM926.961 46.2815C929.804 46.2815 932.578 44.964 934.45 42.8143V38.7923H928.14C924.95 38.7923 923.147 40.3872 923.147 42.6756C923.147 45.0333 924.881 46.2815 926.961 46.2815Z" fill="#FFFEFE"/>
<path d="M981.775 17.6422V53.0079H973.176V25.0621H961.873V53.0079H953.274V17.6422H981.775Z" fill="#FFFEFE"/>
<path d="M1000.05 20.6934H1000.33C1002.62 18.4744 1005.81 16.9488 1009.48 16.9488C1019.47 16.9488 1023.97 24.646 1023.97 35.3251C1023.97 46.0041 1019.4 53.7014 1008.86 53.7014C1005.88 53.7014 1003.03 53.216 1000.74 52.4532V66.8768L992.145 68.2637V17.6422H998.664L1000.05 20.6934ZM1007.68 46.2815C1012.32 46.2815 1015.24 42.2595 1015.24 35.3251C1015.24 28.8761 1012.6 24.3687 1007.4 24.3687C1005.04 24.3687 1002.69 25.6862 1000.74 27.8359V44.4092C1002.69 45.5881 1005.11 46.2815 1007.68 46.2815Z" fill="#FFFEFE"/>
<path d="M1049.71 32.2046V29.8469C1049.71 26.449 1047.97 24.3687 1043.74 24.3687C1040.76 24.3687 1037.57 25.0621 1034.31 26.241L1031.75 19.3065C1035.98 17.7116 1040.07 16.9488 1044.58 16.9488C1055.39 16.9488 1058.31 22.6351 1058.31 29.9856V43.4384C1058.31 45.172 1059.28 45.9348 1060.8 45.9348H1061.57V52.6612C1060.53 53.0773 1058.38 53.3547 1056.64 53.3547C1053.52 53.3547 1051.51 52.1758 1050.4 49.9568H1050.12C1047.63 52.4532 1044.85 53.3547 1040.83 53.3547C1034.11 53.3547 1029.88 50.0261 1029.88 42.8143C1029.88 36.0185 1035.28 32.2046 1043.12 32.2046H1049.71ZM1042.22 46.2815C1045.06 46.2815 1047.84 44.964 1049.71 42.8143V38.7923H1043.4C1040.21 38.7923 1038.41 40.3872 1038.41 42.6756C1038.41 45.0333 1040.14 46.2815 1042.22 46.2815Z" fill="#FFFEFE"/>
<path d="M1089.2 34.4236C1093.77 35.5331 1096.69 38.4456 1096.69 43.0917C1096.69 49.194 1092.66 53.0079 1084.62 53.0079H1068.53V17.6422H1083.23C1090.03 17.6422 1095.23 20 1095.23 26.3797C1095.23 30.1936 1093.15 32.898 1089.2 34.2156V34.4236ZM1082.75 38.1682H1077.13V45.5881H1082.75C1086.01 45.5881 1087.95 44.4092 1087.95 41.7741C1087.95 39.139 1086.01 38.1682 1082.75 38.1682ZM1081.57 25.0621H1077.13V31.3031H1081.57C1084.69 31.3031 1086.49 30.4016 1086.49 28.1826C1086.49 25.8942 1084.34 25.0621 1081.57 25.0621Z" fill="#FFFEFE"/>
<path d="M1117.45 25.0621V25.4782C1117.45 43.9238 1113.29 53.3547 1105.38 53.3547C1103.44 53.3547 1101.77 52.9386 1100.53 52.1065L1102.68 45.2414C1103.23 45.5187 1103.72 45.6574 1104.41 45.6574C1107.11 45.6574 1109.19 41.0807 1109.19 22.1496V17.6422H1133.95V53.0079H1125.35V25.0621H1117.45Z" fill="#FFFEFE"/>
<path d="M1160.26 46.2815C1163.17 46.2815 1166.64 45.2414 1169.06 43.9932L1172.05 50.7196C1168.65 52.4532 1164.35 53.7014 1159.84 53.7014C1149.44 53.7014 1142.3 46.9056 1142.3 35.3251C1142.3 23.6752 1148.54 16.9488 1158.52 16.9488C1167.75 16.9488 1173.5 22.7044 1173.5 32.6207C1173.5 33.5915 1173.36 36.0185 1173.09 37.9602H1151.04C1151.94 43.3691 1155.68 46.2815 1160.26 46.2815ZM1151.17 31.3725H1165.67C1165.67 27.3505 1163.17 24.3687 1158.66 24.3687C1154.99 24.3687 1152.01 26.7957 1151.17 31.3725Z" fill="#FFFEFE"/>
<path d="M1210.88 17.6422V53.0079H1202.28V38.5149H1190.43V53.0079H1181.83V17.6422H1190.43V31.0951H1202.28V17.6422H1210.88Z" fill="#FFFEFE"/>
<path d="M1243.64 53.0079V31.7885H1243.43L1229.14 53.0079H1221.31V17.6422H1229.91V38.8617H1230.11L1244.4 17.6422H1252.23V53.0079H1243.64Z" fill="#FFFEFE"/>
<path d="M1278.5 46.2815C1281.41 46.2815 1284.88 45.2414 1287.3 43.9932L1290.28 50.7196C1286.89 52.4532 1282.59 53.7014 1278.08 53.7014C1267.68 53.7014 1260.54 46.9056 1260.54 35.3251C1260.54 23.6752 1266.78 16.9488 1276.76 16.9488C1285.98 16.9488 1291.74 22.7044 1291.74 32.6207C1291.74 33.5915 1291.6 36.0185 1291.32 37.9602H1269.27C1270.17 43.3691 1273.92 46.2815 1278.5 46.2815ZM1269.41 31.3725H1283.9C1283.9 27.3505 1281.41 24.3687 1276.9 24.3687C1273.23 24.3687 1270.24 26.7957 1269.41 31.3725Z" fill="#FFFEFE"/>
<g opacity="0.6">
<path d="M875.474 135.145H883.31C892.74 135.145 899.259 123.981 899.259 111.499C899.259 104.148 895.792 99.918 889.481 99.918H881.715L875.474 135.145ZM882.131 141.802H866.875L875.404 93.2609H890.66C901.27 93.2609 907.095 99.8486 907.095 111.36C907.095 127.933 897.248 141.802 882.131 141.802Z" fill="#FFFEFE"/>
<path d="M917.358 112.469H910.909L913.336 106.436H925.61L919.438 141.802H912.226L917.358 112.469ZM919.438 96.1734C919.438 93.7463 921.38 91.8047 923.807 91.8047C926.234 91.8047 928.245 93.7463 928.245 96.1734C928.245 98.6004 926.234 100.473 923.807 100.473C921.38 100.473 919.438 98.6004 919.438 96.1734Z" fill="#FFFEFE"/>
<path d="M955.794 106.436L952.257 113.163C951.356 112.747 950.523 112.469 948.79 112.469C944.837 112.469 941.647 116.422 940.122 121.137L936.516 141.802H929.304L935.476 106.436H940.607L941.023 111.915H941.301C943.728 108.309 946.501 105.743 951.425 105.743C953.089 105.743 954.407 106.02 955.794 106.436Z" fill="#FFFEFE"/>
<path d="M974.399 111.776C969.337 111.776 965.246 115.937 963.651 121.345C976.965 121.345 979.531 118.572 979.531 115.521C979.531 113.093 977.381 111.776 974.399 111.776ZM968.99 142.496C959.906 142.496 955.468 137.017 955.468 128.557C955.468 116.283 962.749 105.743 975.231 105.743C982.027 105.743 986.812 109.002 986.812 114.966C986.812 122.247 980.501 127.309 962.749 127.309C962.749 132.926 964.483 136.463 970.724 136.463C973.706 136.463 976.202 135.561 979.114 134.174L981.195 139.583C977.45 141.525 973.567 142.496 968.99 142.496Z" fill="#FFFEFE"/>
<path d="M1004.76 142.496C995.676 142.496 990.614 137.017 990.614 128.557C990.614 115.937 998.658 105.743 1011 105.743C1014.75 105.743 1017.8 106.436 1020.57 107.754L1017.38 113.301C1015.09 112.331 1012.8 111.776 1009.96 111.776C1003.44 111.776 998.034 118.572 998.034 128.003C998.034 133.619 1001.22 136.463 1005.8 136.463C1008.23 136.463 1011.35 135.769 1013.91 134.798L1015.58 140.346C1012.46 141.733 1008.51 142.496 1004.76 142.496Z" fill="#FFFEFE"/>
<path d="M1030.4 106.436L1032 97.7683L1039.42 96.3814L1037.62 106.436H1048.29L1045.87 112.469H1036.58L1033.18 131.678C1033.11 132.163 1033.04 132.579 1033.04 132.995C1033.04 135.561 1034.7 136.463 1037.06 136.463C1038.79 136.463 1040.25 136.185 1042.26 135.492L1042.96 141.247C1040.25 142.079 1037.69 142.496 1035.19 142.496C1029.64 142.496 1025.76 140.346 1025.76 134.382C1025.76 133.481 1025.83 132.441 1026.04 131.331L1029.36 112.469H1023.33L1024.37 106.436H1030.4Z" fill="#FFFEFE"/>
<path d="M1055.44 112.469H1048.99L1051.42 106.436H1063.69L1057.52 141.802H1050.31L1055.44 112.469ZM1057.52 96.1734C1057.52 93.7463 1059.46 91.8047 1061.89 91.8047C1064.31 91.8047 1066.32 93.7463 1066.32 96.1734C1066.32 98.6004 1064.31 100.473 1061.89 100.473C1059.46 100.473 1057.52 98.6004 1057.52 96.1734Z" fill="#FFFEFE"/>
<path d="M1075.84 128.003C1075.84 133.619 1078.27 136.463 1082.85 136.463C1089.5 136.463 1094.22 129.251 1094.22 120.167C1094.22 114.619 1091.79 111.776 1087.22 111.776C1080.56 111.776 1075.84 118.918 1075.84 128.003ZM1068.42 128.557C1068.42 116.283 1075.77 105.743 1088.26 105.743C1097.34 105.743 1101.64 111.221 1101.64 119.681C1101.64 131.886 1094.29 142.496 1081.81 142.496C1073.07 142.496 1068.42 137.78 1068.42 128.557Z" fill="#FFFEFE"/>
<path d="M1117.7 116.699L1113.33 141.802H1106.12L1112.29 106.436H1117.42L1118.18 110.181H1118.46C1121.93 107.06 1125.19 105.743 1129.14 105.743C1135.66 105.743 1138.71 108.933 1138.71 115.243C1138.71 116.561 1138.57 118.225 1138.29 119.82L1134.41 141.802H1127.2L1131.01 120.305C1131.22 119.196 1131.29 118.017 1131.29 117.115C1131.29 113.44 1129.7 111.776 1126.37 111.776C1123.59 111.776 1120.06 114.064 1117.7 116.699Z" fill="#FFFEFE"/>
</g>
<path d="M2041.68 17.6426V53.0083H2033.08V25.0624H2021.78V53.0083H2013.18V17.6426H2041.68Z" fill="#FFFEFE"/>
<path d="M2047.89 25.0624V17.6426H2078.54L2077.15 25.0624H2067.3V53.0083H2058.77V25.0624H2047.89Z" fill="#FFFEFE"/>
<path d="M2117.84 36.9203H2086.5V29.2231H2119.23L2117.84 36.9203Z" fill="#FFFEFE"/>
<path d="M2159.85 17.6426V53.0083H2151.25V25.0624H2139.95V53.0083H2131.35V17.6426H2159.85Z" fill="#FFFEFE"/>
<path d="M2199.27 17.6426V53.0083H2190.68V38.5153H2178.82V53.0083H2170.22V17.6426H2178.82V31.0954H2190.68V17.6426H2199.27Z" fill="#FFFEFE"/>
<g opacity="0.6">
<path d="M2051.8 105.742C2058.32 105.742 2061.44 108.932 2061.44 115.242C2061.44 116.56 2061.3 118.086 2061.03 119.68L2057.14 141.801H2049.93L2053.74 120.166C2053.95 119.056 2054.02 118.016 2054.02 117.115C2054.02 113.439 2052.36 111.775 2049.03 111.775C2046.81 111.775 2044.11 113.37 2042.03 115.242L2037.38 141.801H2030.17L2033.98 120.166C2034.19 118.918 2034.26 117.877 2034.26 116.907C2034.26 113.37 2032.8 111.775 2029.82 111.775C2027.19 111.775 2024.13 114.064 2021.98 116.699L2017.62 141.801H2010.4L2016.58 106.436H2021.71L2022.47 110.18H2022.75C2026.08 107.06 2029.06 105.742 2032.8 105.742C2037.1 105.742 2039.81 107.06 2040.92 110.18C2044.31 107.337 2047.99 105.742 2051.8 105.742Z" fill="#FFFEFE"/>
<path d="M2074.39 128.002C2074.39 133.619 2076.82 136.462 2081.4 136.462C2088.05 136.462 2092.77 129.25 2092.77 120.166C2092.77 114.618 2090.34 111.775 2085.77 111.775C2079.11 111.775 2074.39 118.918 2074.39 128.002ZM2066.97 128.557C2066.97 116.283 2074.32 105.742 2086.81 105.742C2095.89 105.742 2100.19 111.22 2100.19 119.68C2100.19 131.885 2092.84 142.495 2080.36 142.495C2071.62 142.495 2066.97 137.779 2066.97 128.557Z" fill="#FFFEFE"/>
<path d="M2116.25 116.699L2111.88 141.801H2104.67L2110.84 106.436H2115.97L2116.74 110.18H2117.01C2120.48 107.06 2123.74 105.742 2127.69 105.742C2134.21 105.742 2137.26 108.932 2137.26 115.242C2137.26 116.56 2137.12 118.224 2136.85 119.819L2132.96 141.801H2125.75L2129.56 120.305C2129.77 119.195 2129.84 118.016 2129.84 117.115C2129.84 113.439 2128.25 111.775 2124.92 111.775C2122.14 111.775 2118.61 114.064 2116.25 116.699Z" fill="#FFFEFE"/>
<path d="M2178.32 125.02H2147.67L2148.78 118.71H2180.82L2178.32 125.02Z" fill="#FFFEFE"/>
<path d="M2205.62 106.436H2214.29L2211.86 112.469H2204.58L2198.68 146.101C2197.23 154.214 2192.44 157.057 2186.62 157.057C2183.85 157.057 2180.86 156.086 2178.71 154.907L2181.56 149.499C2183.29 150.4 2184.82 151.024 2186.76 151.024C2189.18 151.024 2190.92 149.707 2191.54 146.101L2197.44 112.469H2191.54L2192.58 106.436H2198.48L2199.31 101.79C2200.83 93.3295 2205.97 89.793 2212.69 89.793C2216.23 89.793 2218.17 90.4171 2220.67 91.7346L2217.34 97.0741C2216.09 96.3807 2214.5 95.8259 2212.48 95.8259C2209.36 95.8259 2207.14 97.7676 2206.45 101.79L2205.62 106.436Z" fill="#FFFEFE"/>
<path d="M2238.83 106.436L2235.3 113.162C2234.39 112.746 2233.56 112.469 2231.83 112.469C2227.88 112.469 2224.69 116.421 2223.16 121.137L2219.55 141.801H2212.34L2218.51 106.436H2223.65L2224.06 111.914H2224.34C2226.77 108.308 2229.54 105.742 2234.46 105.742C2236.13 105.742 2237.45 106.02 2238.83 106.436Z" fill="#FFFEFE"/>
<path d="M2244.96 112.469H2238.51L2240.93 106.436H2253.21L2247.04 141.801H2239.82L2244.96 112.469ZM2247.04 96.1727C2247.04 93.7456 2248.98 91.804 2251.41 91.804C2253.83 91.804 2255.84 93.7456 2255.84 96.1727C2255.84 98.5997 2253.83 100.472 2251.41 100.472C2248.98 100.472 2247.04 98.5997 2247.04 96.1727Z" fill="#FFFEFE"/>
</g>
<path d="M2427.73 44.8951L2430.5 51.6908C2427.52 53.0084 2424.05 53.7018 2420.45 53.7018C2409 53.7018 2402.83 45.5192 2402.83 35.3255C2402.83 25.1319 2408.66 16.9492 2420.1 16.9492C2423.43 16.9492 2427.17 17.6427 2430.15 18.8909L2427.38 25.6866C2425.23 24.7852 2422.8 24.3691 2420.51 24.3691C2415.38 24.3691 2411.57 28.8071 2411.57 35.3255C2411.57 41.8439 2415.31 46.282 2420.45 46.282C2422.73 46.282 2425.58 45.7965 2427.73 44.8951Z" fill="#C8A563"/>
<path d="M2443.38 23.8143H2443.59C2446.43 20.8325 2449.83 18.6828 2454.41 18.6828C2463.08 18.6828 2469.39 24.4384 2469.39 36.227C2469.39 47.7382 2462.17 53.7018 2452.33 53.7018C2440.88 53.7018 2435.68 45.1724 2435.68 31.0262C2435.68 9.32134 2441.92 4.60592 2453.37 3.56575C2458.57 3.08034 2461.34 2.45624 2464.95 1L2467.72 7.65707C2463.7 9.66806 2458.85 10.7776 2454.2 11.1243C2446.92 11.6791 2443.38 14.9382 2443.38 23.8143ZM2453.16 26.1027C2450.18 26.1027 2446.64 27.6283 2444.28 31.1649C2444.35 41.2891 2447.06 46.282 2452.33 46.282C2456.97 46.282 2460.65 43.0228 2460.65 36.227C2460.65 29.4312 2457.32 26.1027 2453.16 26.1027Z" fill="#C8A563"/>
<path d="M2511.47 36.9204H2480.13V29.2232H2512.86L2511.47 36.9204Z" fill="#C8A563"/>
<path d="M2545.64 34.424C2550.22 35.5336 2553.13 38.446 2553.13 43.0921C2553.13 49.1944 2549.11 53.0084 2541.07 53.0084H2524.98V17.6427H2539.68C2546.48 17.6427 2551.68 20.0004 2551.68 26.3801C2551.68 30.194 2549.6 32.8985 2545.64 34.216V34.424ZM2539.19 38.1686H2533.58V45.5885H2539.19C2542.45 45.5885 2544.39 44.4097 2544.39 41.7746C2544.39 39.1395 2542.45 38.1686 2539.19 38.1686ZM2538.02 25.0625H2533.58V31.3035H2538.02C2541.14 31.3035 2542.94 30.4021 2542.94 28.183C2542.94 25.8947 2540.79 25.0625 2538.02 25.0625Z" fill="#C8A563"/>
<path d="M2584.29 44.8951L2587.07 51.6908C2584.09 53.0084 2580.62 53.7018 2577.01 53.7018C2565.57 53.7018 2559.4 45.5192 2559.4 35.3255C2559.4 25.1319 2565.22 16.9492 2576.67 16.9492C2579.99 16.9492 2583.74 17.6427 2586.72 18.8909L2583.95 25.6866C2581.8 24.7852 2579.37 24.3691 2577.08 24.3691C2571.95 24.3691 2568.14 28.8071 2568.14 35.3255C2568.14 41.8439 2571.88 46.282 2577.01 46.282C2579.3 46.282 2582.14 45.7965 2584.29 44.8951Z" fill="#C8A563"/>
<g opacity="0.6">
<path d="M2417.6 120.998C2421.9 122.732 2426.89 125.436 2426.89 130.845C2426.89 137.988 2420.37 142.495 2411.71 142.495C2407.41 142.495 2403.45 141.524 2400.4 139.999L2403.73 134.451C2406.16 135.699 2409.14 136.462 2412.54 136.462C2415.66 136.462 2419.61 134.936 2419.61 131.4C2419.61 128.418 2416.49 127.308 2413.09 126.06C2409.56 124.743 2404.84 121.83 2404.84 116.213C2404.84 109.21 2410.8 105.742 2418.57 105.742C2422.52 105.742 2426.55 106.574 2429.8 108.169L2426.55 113.578C2423.91 112.538 2421.21 111.775 2418.22 111.775C2414.96 111.775 2412.12 113.162 2412.12 116.005C2412.12 118.779 2415.24 120.027 2417.6 120.998Z" fill="#C8A563"/>
<path d="M2452.44 111.775C2445.79 111.775 2441.07 118.918 2441.07 128.002C2441.07 133.272 2442.87 136.462 2446.89 136.462C2450.29 136.462 2453.07 134.59 2455.63 131.4L2458.82 113.024C2456.95 112.33 2454.94 111.775 2452.44 111.775ZM2453.48 105.742C2458.75 105.742 2462.91 106.921 2466.87 108.377L2460.97 141.801H2456.19L2455.42 138.057H2455.15C2452.23 140.831 2448.97 142.495 2444.61 142.495C2436.98 142.495 2433.65 137.017 2433.65 128.557C2433.65 116.283 2441 105.742 2453.48 105.742Z" fill="#C8A563"/>
<path d="M2478.79 106.436L2480.38 97.7677L2487.8 96.3809L2486 106.436H2496.68L2494.25 112.469H2484.96L2481.56 131.677C2481.49 132.163 2481.42 132.579 2481.42 132.995C2481.42 135.56 2483.09 136.462 2485.45 136.462C2487.18 136.462 2488.64 136.185 2490.65 135.491L2491.34 141.247C2488.64 142.079 2486.07 142.495 2483.57 142.495C2478.03 142.495 2474.14 140.345 2474.14 134.382C2474.14 133.48 2474.21 132.44 2474.42 131.33L2477.75 112.469H2471.72L2472.76 106.436H2478.79Z" fill="#C8A563"/>
<path d="M2532.88 125.02H2502.23L2503.34 118.71H2535.37L2532.88 125.02Z" fill="#C8A563"/>
<path d="M2559.13 120.998C2563.43 122.732 2568.43 125.436 2568.43 130.845C2568.43 137.988 2561.91 142.495 2553.24 142.495C2548.94 142.495 2544.99 141.524 2541.94 139.999L2545.26 134.451C2547.69 135.699 2550.67 136.462 2554.07 136.462C2557.19 136.462 2561.14 134.936 2561.14 131.4C2561.14 128.418 2558.02 127.308 2554.63 126.06C2551.09 124.743 2546.37 121.83 2546.37 116.213C2546.37 109.21 2552.34 105.742 2560.1 105.742C2564.06 105.742 2568.08 106.574 2571.34 108.169L2568.08 113.578C2565.44 112.538 2562.74 111.775 2559.76 111.775C2556.5 111.775 2553.65 113.162 2553.65 116.005C2553.65 118.779 2556.78 120.027 2559.13 120.998Z" fill="#C8A563"/>
<path d="M2587.32 106.436L2583.57 127.933C2583.37 129.042 2583.3 130.221 2583.3 131.122C2583.3 134.798 2585.24 136.462 2588.57 136.462C2591.34 136.462 2595.57 134.174 2597.93 131.539L2602.3 106.436H2609.51L2603.34 141.801H2598.55L2597.79 138.057H2597.51C2594.04 141.177 2589.75 142.495 2585.79 142.495C2579.27 142.495 2575.88 139.305 2575.88 132.995C2575.88 131.677 2576.02 130.013 2576.29 128.418L2580.11 106.436H2587.32Z" fill="#C8A563"/>
<path d="M2624.53 116.699L2620.16 141.801H2612.95L2619.12 106.436H2624.25L2625.01 110.18H2625.29C2628.76 107.06 2632.02 105.742 2635.97 105.742C2642.49 105.742 2645.54 108.932 2645.54 115.243C2645.54 116.56 2645.4 118.224 2645.12 119.819L2641.24 141.801H2634.03L2637.84 120.305C2638.05 119.195 2638.12 118.016 2638.12 117.115C2638.12 113.44 2636.52 111.775 2633.19 111.775C2630.42 111.775 2626.88 114.064 2624.53 116.699Z" fill="#C8A563"/>
</g>
<path d="M314.771 4.4668V23.8833H332.939V4.4668H341.815V53.0079H332.939V31.9272H314.771V53.0079H305.895V4.4668H314.771Z" fill="#FFFEFE"/>
<path d="M367.505 53.7014C357.659 53.7014 350.863 46.8363 350.863 35.3251C350.863 23.8139 357.659 16.9488 367.505 16.9488C377.352 16.9488 384.148 23.8139 384.148 35.3251C384.148 46.8363 377.352 53.7014 367.505 53.7014ZM367.505 24.3687C362.929 24.3687 359.6 28.46 359.6 35.3251C359.6 42.1902 362.929 46.2815 367.505 46.2815C372.082 46.2815 375.411 42.1902 375.411 35.3251C375.411 28.46 372.082 24.3687 367.505 24.3687Z" fill="#FFFEFE"/>
<path d="M422.795 53.0079L421.061 31.9966H420.784L414.612 47.2523H407.123L400.882 31.9966H400.604L398.94 53.0079H390.411L393.809 17.6422H402.893L410.729 36.504H411.006L418.842 17.6422H427.926L431.324 53.0079H422.795Z" fill="#FFFEFE"/>
<path d="M455.504 46.2815C458.416 46.2815 461.883 45.2414 464.31 43.9932L467.292 50.7196C463.894 52.4532 459.595 53.7014 455.088 53.7014C444.686 53.7014 437.543 46.9056 437.543 35.3251C437.543 23.6752 443.784 16.9488 453.77 16.9488C462.993 16.9488 468.748 22.7044 468.748 32.6207C468.748 33.5915 468.61 36.0185 468.332 37.9602H446.281C447.182 43.3691 450.927 46.2815 455.504 46.2815ZM446.42 31.3725H460.913C460.913 27.3505 458.416 24.3687 453.909 24.3687C450.233 24.3687 447.252 26.7957 446.42 31.3725Z" fill="#FFFEFE"/>
<path d="M484.978 20.6934H485.255C487.543 18.4744 490.733 16.9488 494.409 16.9488C504.394 16.9488 508.902 24.646 508.902 35.3251C508.902 46.0041 504.325 53.7014 493.784 53.7014C490.803 53.7014 487.96 53.216 485.671 52.4532V66.8768L477.072 68.2637V17.6422H483.591L484.978 20.6934ZM492.606 46.2815C497.252 46.2815 500.164 42.2595 500.164 35.3251C500.164 28.8761 497.529 24.3687 492.328 24.3687C489.971 24.3687 487.613 25.6862 485.671 27.8359V44.4092C487.613 45.5881 490.04 46.2815 492.606 46.2815Z" fill="#FFFEFE"/>
<g opacity="0.6">
<path d="M319.349 93.2602L333.564 129.389H333.842L340.221 93.2602H347.711L339.181 141.801H331.137L316.852 105.742H316.575L310.265 141.801H302.775L311.305 93.2602H319.349Z" fill="#FFFEFE"/>
<path d="M361.585 106.436L357.841 127.932C357.633 129.042 357.563 130.221 357.563 131.122C357.563 134.798 359.505 136.462 362.834 136.462C365.607 136.462 369.837 134.173 372.195 131.538L376.564 106.436H383.776L377.604 141.801H372.819L372.056 138.057H371.779C368.312 141.177 364.013 142.495 360.06 142.495C353.542 142.495 350.144 139.305 350.144 132.995C350.144 131.677 350.282 130.013 350.56 128.418L354.374 106.436H361.585Z" fill="#FFFEFE"/>
<path d="M428.612 105.742C435.13 105.742 438.251 108.932 438.251 115.242C438.251 116.56 438.112 118.086 437.835 119.68L433.951 141.801H426.739L430.553 120.166C430.761 119.056 430.831 118.016 430.831 117.115C430.831 113.439 429.167 111.775 425.838 111.775C423.619 111.775 420.915 113.37 418.834 115.242L414.188 141.801H406.976L410.79 120.166C410.998 118.918 411.068 117.877 411.068 116.907C411.068 113.37 409.611 111.775 406.63 111.775C403.994 111.775 400.943 114.064 398.794 116.699L394.425 141.801H387.213L393.385 106.436H398.516L399.279 110.18H399.556C402.885 107.06 405.867 105.742 409.611 105.742C413.911 105.742 416.615 107.06 417.725 110.18C421.123 107.337 424.798 105.742 428.612 105.742Z" fill="#FFFEFE"/>
<path d="M469.718 120.166C469.718 114.618 467.43 111.775 463.199 111.775C460.356 111.775 456.681 114.064 454.323 116.699L451.064 135.144C453.422 136.046 455.641 136.462 458.345 136.462C465.002 136.462 469.718 129.25 469.718 120.166ZM477.138 119.68C477.138 131.885 469.787 142.495 457.097 142.495C452.243 142.495 447.944 141.663 443.09 139.721L451.619 91.1799L459.108 89.793L455.502 110.18H455.78C458.969 107.129 462.298 105.742 465.765 105.742C473.462 105.742 477.138 111.22 477.138 119.68Z" fill="#FFFEFE"/>
<path d="M501.585 111.775C496.523 111.775 492.431 115.936 490.837 121.345C504.151 121.345 506.716 118.571 506.716 115.52C506.716 113.093 504.567 111.775 501.585 111.775ZM496.176 142.495C487.092 142.495 482.654 137.017 482.654 128.557C482.654 116.283 489.935 105.742 502.417 105.742C509.213 105.742 513.998 109.001 513.998 114.965C513.998 122.246 507.687 127.308 489.935 127.308C489.935 132.925 491.669 136.462 497.91 136.462C500.891 136.462 503.388 135.56 506.3 134.173L508.381 139.582C504.636 141.524 500.753 142.495 496.176 142.495Z" fill="#FFFEFE"/>
<path d="M543.25 106.436L539.713 113.162C538.812 112.746 537.979 112.469 536.246 112.469C532.293 112.469 529.103 116.421 527.578 121.137L523.972 141.801H516.76L522.932 106.436H528.063L528.479 111.914H528.757C531.184 108.308 533.957 105.742 538.881 105.742C540.545 105.742 541.863 106.02 543.25 106.436Z" fill="#FFFEFE"/>
</g>
<path d="M2137.5 349.829L2135.76 328.817H2135.48L2129.31 344.073H2121.82L2115.58 328.817H2115.3L2113.64 349.829H2105.11L2108.51 314.463H2117.59L2125.43 333.325H2125.71L2133.54 314.463H2142.63L2146.02 349.829H2137.5Z" fill="#FFFEFE"/>
<path d="M2176.65 349.829V328.609H2176.45L2162.16 349.829H2154.32V314.463H2162.92V335.682H2163.13L2177.42 314.463H2185.25V349.829H2176.65Z" fill="#FFFEFE"/>
<path d="M2224.69 314.463V349.829H2216.09V335.336H2204.23V349.829H2195.63V314.463H2204.23V327.916H2216.09V314.463H2224.69Z" fill="#FFFEFE"/>
<g opacity="0.6">
<path d="M2145.82 375.671C2152.34 375.671 2155.46 378.861 2155.46 385.171C2155.46 386.488 2155.32 388.014 2155.04 389.609L2151.16 411.73H2143.94L2147.76 390.094C2147.97 388.985 2148.04 387.945 2148.04 387.043C2148.04 383.368 2146.37 381.704 2143.04 381.704C2140.82 381.704 2138.12 383.299 2136.04 385.171L2131.39 411.73H2124.18L2128 390.094C2128.2 388.846 2128.27 387.806 2128.27 386.835C2128.27 383.299 2126.82 381.704 2123.83 381.704C2121.2 381.704 2118.15 383.992 2116 386.627L2111.63 411.73H2104.42L2110.59 376.364H2115.72L2116.48 380.109H2116.76C2120.09 376.988 2123.07 375.671 2126.82 375.671C2131.12 375.671 2133.82 376.988 2134.93 380.109C2138.33 377.266 2142 375.671 2145.82 375.671Z" fill="white"/>
<path d="M2167.44 382.397H2160.99L2163.41 376.364H2175.69L2169.52 411.73H2162.31L2167.44 382.397ZM2169.52 366.101C2169.52 363.674 2171.46 361.732 2173.89 361.732C2176.31 361.732 2178.32 363.674 2178.32 366.101C2178.32 368.528 2176.31 370.4 2173.89 370.4C2171.46 370.4 2169.52 368.528 2169.52 366.101Z" fill="white"/>
<path d="M2190.96 386.627L2186.59 411.73H2179.38L2185.55 376.364H2190.69L2191.45 380.109H2191.73C2195.19 376.988 2198.45 375.671 2202.41 375.671C2208.92 375.671 2211.98 378.861 2211.98 385.171C2211.98 386.488 2211.84 388.153 2211.56 389.748L2207.68 411.73H2200.46L2204.28 390.233C2204.49 389.123 2204.56 387.945 2204.56 387.043C2204.56 383.368 2202.96 381.704 2199.63 381.704C2196.86 381.704 2193.32 383.992 2190.96 386.627Z" fill="white"/>
</g>
<g opacity="0.6">
<path d="M905.983 387.152H893.012L885.659 429.048H878.168L885.52 387.152H871.162L872.341 380.494H908.549L905.983 387.152Z" fill="white"/>
<path d="M913.185 415.245C913.185 420.863 915.612 423.707 920.19 423.707C926.849 423.707 931.566 416.493 931.566 407.407C931.566 401.858 929.138 399.014 924.56 399.014C917.901 399.014 913.185 406.158 913.185 415.245ZM905.763 415.8C905.763 403.522 913.115 392.979 925.601 392.979C934.687 392.979 938.988 398.459 938.988 406.921C938.988 419.129 931.635 429.742 919.15 429.742C910.41 429.742 905.763 425.025 905.763 415.8Z" fill="white"/>
<path d="M974.457 392.84C974.457 397.141 978.758 399.291 982.226 400.886C987.567 403.314 994.087 407.476 994.087 414.69C994.087 424.47 986.665 429.742 975.012 429.742C968.839 429.742 964.33 428.216 960.099 425.441L963.776 419.337C967.313 421.696 971.059 423.083 976.192 423.083C982.365 423.083 986.596 420.586 986.596 415.383C986.596 411.152 982.989 409.141 977.995 406.852C972.793 404.493 966.966 400.748 966.966 393.673C966.966 384.655 973.278 379.8 984.099 379.8C989.717 379.8 994.226 380.979 997.902 383.546L993.671 389.303C990.689 387.569 987.22 386.459 982.92 386.459C977.787 386.459 974.457 388.817 974.457 392.84Z" fill="white"/>
<path d="M1018.59 399.014C1015.82 399.014 1012.21 401.303 1009.85 403.938L1005.48 429.048H998.268L1007.15 378.413L1014.64 377.025L1011.03 397.418H1011.31C1014.36 394.574 1017.97 392.979 1021.5 392.979C1028.03 392.979 1031.01 396.1 1031.01 402.343C1031.01 403.73 1030.87 405.256 1030.59 406.921L1026.71 429.048H1019.49L1023.24 407.684C1023.45 406.505 1023.59 405.395 1023.59 404.493C1023.59 400.817 1021.92 399.014 1018.59 399.014Z" fill="white"/>
<path d="M1043.02 399.707H1036.56L1038.99 393.673H1051.27L1045.1 429.048H1037.88L1043.02 399.707ZM1045.1 383.407C1045.1 380.979 1047.04 379.037 1049.47 379.037C1051.89 379.037 1053.91 380.979 1053.91 383.407C1053.91 385.835 1051.89 387.707 1049.47 387.707C1047.04 387.707 1045.1 385.835 1045.1 383.407Z" fill="white"/>
<path d="M1081.46 393.673L1077.92 400.401C1077.02 399.985 1076.19 399.707 1074.46 399.707C1070.5 399.707 1067.31 403.661 1065.79 408.378L1062.18 429.048H1054.96L1061.14 393.673H1066.27L1066.69 399.152H1066.96C1069.39 395.545 1072.17 392.979 1077.09 392.979C1078.76 392.979 1080.07 393.256 1081.46 393.673Z" fill="white"/>
<path d="M1088.56 415.245C1088.56 420.863 1090.99 423.707 1095.56 423.707C1102.22 423.707 1106.94 416.493 1106.94 407.407C1106.94 401.858 1104.51 399.014 1099.93 399.014C1093.27 399.014 1088.56 406.158 1088.56 415.245ZM1081.14 415.8C1081.14 403.522 1088.49 392.979 1100.97 392.979C1110.06 392.979 1114.36 398.459 1114.36 406.921C1114.36 419.129 1107.01 429.742 1094.52 429.742C1085.78 429.742 1081.14 425.025 1081.14 415.8Z" fill="white"/>
<path d="M1133.48 407.892L1145.48 393.673H1152.97L1138.68 411.083C1140.21 418.089 1144.02 423.846 1148.6 429.048L1140.76 429.742C1136.95 424.956 1134.31 419.892 1132.71 413.788H1128.76L1126.06 429.048H1118.84L1127.72 378.413L1135.21 377.025L1129.8 407.892H1133.48Z" fill="white"/>
<path d="M1171.06 399.014C1164.4 399.014 1159.68 406.158 1159.68 415.245C1159.68 420.516 1161.49 423.707 1165.51 423.707C1168.91 423.707 1171.68 421.834 1174.25 418.644L1177.44 400.262C1175.57 399.569 1173.56 399.014 1171.06 399.014ZM1172.1 392.979C1177.37 392.979 1181.53 394.158 1185.49 395.615L1179.59 429.048H1174.8L1174.04 425.302H1173.76C1170.85 428.077 1167.59 429.742 1163.22 429.742C1155.59 429.742 1152.26 424.262 1152.26 415.8C1152.26 403.522 1159.61 392.979 1172.1 392.979Z" fill="white"/>
<path d="M1185.14 442.921L1187.98 437.302C1188.95 437.788 1190.2 438.273 1191.66 438.273C1193.25 438.273 1194.98 437.441 1196.58 434.181L1199.08 429.048H1196.65L1190.41 393.673H1197.41L1202.13 421.626H1202.41L1216.07 393.673H1223.7L1202.68 435.846C1199.29 442.643 1194.85 444.308 1191.03 444.308C1188.53 444.308 1186.52 443.545 1185.14 442.921Z" fill="white"/>
<path d="M1241.51 399.014C1234.85 399.014 1230.13 406.158 1230.13 415.245C1230.13 420.516 1231.93 423.707 1235.96 423.707C1239.36 423.707 1242.13 421.834 1244.7 418.644L1247.89 400.262C1246.01 399.569 1244 399.014 1241.51 399.014ZM1242.55 392.979C1247.82 392.979 1251.98 394.158 1255.93 395.615L1250.04 429.048H1245.25L1244.49 425.302H1244.21C1241.3 428.077 1238.04 429.742 1233.67 429.742C1226.04 429.742 1222.71 424.262 1222.71 415.8C1222.71 403.522 1230.06 392.979 1242.55 392.979Z" fill="white"/>
<path d="M1301.42 408.308C1302.8 415.8 1306.69 422.805 1311.06 429.048L1303.08 429.742C1298.64 423.638 1295.52 416.771 1293.92 409.21H1288.72L1285.25 429.048H1277.76L1286.29 380.494H1300.38C1309.05 380.494 1313.97 384.794 1313.97 392.702C1313.97 400.332 1308.98 406.158 1301.42 408.308ZM1289.9 402.551H1296.01C1301.97 402.551 1306.13 398.528 1306.13 392.91C1306.13 389.233 1303.7 387.152 1299.2 387.152H1292.61L1289.9 402.551Z" fill="white"/>
<path d="M1334.31 399.014C1329.25 399.014 1325.15 403.175 1323.56 408.586C1336.88 408.586 1339.44 405.811 1339.44 402.759C1339.44 400.332 1337.29 399.014 1334.31 399.014ZM1328.9 429.742C1319.81 429.742 1315.37 424.262 1315.37 415.8C1315.37 403.522 1322.66 392.979 1335.14 392.979C1341.94 392.979 1346.73 396.239 1346.73 402.204C1346.73 409.488 1340.41 414.551 1322.66 414.551C1322.66 420.17 1324.39 423.707 1330.63 423.707C1333.62 423.707 1336.11 422.805 1339.03 421.418L1341.11 426.828C1337.36 428.771 1333.48 429.742 1328.9 429.742Z" fill="white"/>
<path d="M1364.68 429.742C1355.59 429.742 1350.53 424.262 1350.53 415.8C1350.53 403.175 1358.58 392.979 1370.92 392.979C1374.67 392.979 1377.72 393.673 1380.49 394.991L1377.3 400.54C1375.01 399.569 1372.73 399.014 1369.88 399.014C1363.36 399.014 1357.95 405.811 1357.95 415.245C1357.95 420.863 1361.14 423.707 1365.72 423.707C1368.15 423.707 1371.27 423.013 1373.84 422.042L1375.5 427.591C1372.38 428.979 1368.43 429.742 1364.68 429.742Z" fill="white"/>
<path d="M1402.19 399.014C1399.42 399.014 1395.81 401.303 1393.45 403.938L1389.08 429.048H1381.87L1390.75 378.413L1398.24 377.025L1394.63 397.418H1394.91C1397.96 394.574 1401.57 392.979 1405.1 392.979C1411.62 392.979 1414.61 396.1 1414.61 402.343C1414.61 403.73 1414.47 405.256 1414.19 406.921L1410.31 429.048H1403.09L1406.84 407.684C1407.05 406.505 1407.19 405.395 1407.19 404.493C1407.19 400.817 1405.52 399.014 1402.19 399.014Z" fill="white"/>
<path d="M1433.76 407.892L1445.76 393.673H1453.25L1438.96 411.083C1440.49 418.089 1444.3 423.846 1448.88 429.048L1441.04 429.742C1437.23 424.956 1434.59 419.892 1433 413.788H1429.04L1426.34 429.048H1419.12L1428 378.413L1435.49 377.025L1430.08 407.892H1433.76Z" fill="white"/>
<path d="M1471.34 399.014C1464.68 399.014 1459.96 406.158 1459.96 415.245C1459.96 420.516 1461.77 423.707 1465.79 423.707C1469.19 423.707 1471.96 421.834 1474.53 418.644L1477.72 400.262C1475.85 399.569 1473.84 399.014 1471.34 399.014ZM1472.38 392.979C1477.65 392.979 1481.81 394.158 1485.77 395.615L1479.87 429.048H1475.09L1474.32 425.302H1474.05C1471.13 428.077 1467.87 429.742 1463.5 429.742C1455.87 429.742 1452.54 424.262 1452.54 415.8C1452.54 403.522 1459.9 392.979 1472.38 392.979Z" fill="white"/>
</g>
<g opacity="0.6">
<path d="M905.86 679.996H892.889L885.536 721.892H878.045L885.397 679.996H871.039L872.218 673.337H908.426L905.86 679.996Z" fill="white"/>
<path d="M913.061 708.088C913.061 713.707 915.489 716.551 920.067 716.551C926.726 716.551 931.443 709.337 931.443 700.25C931.443 694.701 929.015 691.857 924.437 691.857C917.778 691.857 913.061 699.002 913.061 708.088ZM905.64 708.643C905.64 696.366 912.992 685.823 925.478 685.823C934.564 685.823 938.865 691.302 938.865 699.765C938.865 711.973 931.512 722.585 919.027 722.585C910.287 722.585 905.64 717.869 905.64 708.643Z" fill="white"/>
<path d="M979.884 704.828H972.184L969.202 721.892H961.71L970.242 673.337H985.433C994.103 673.337 999.028 678.054 999.028 686.724C999.028 697.268 991.051 704.828 979.884 704.828ZM984.253 679.996H976.554L973.363 698.169H981.063C987.028 698.169 991.19 693.453 991.19 686.794C991.19 682.424 988.762 679.996 984.253 679.996Z" fill="white"/>
<path d="M1007.15 708.088C1007.15 713.707 1009.58 716.551 1014.16 716.551C1020.81 716.551 1025.53 709.337 1025.53 700.25C1025.53 694.701 1023.1 691.857 1018.53 691.857C1011.87 691.857 1007.15 699.002 1007.15 708.088ZM999.727 708.643C999.727 696.366 1007.08 685.823 1019.57 685.823C1028.65 685.823 1032.95 691.302 1032.95 699.765C1032.95 711.973 1025.6 722.585 1013.11 722.585C1004.37 722.585 999.727 717.869 999.727 708.643Z" fill="white"/>
<path d="M1051.38 715.857L1052.07 721.545C1049.71 722.377 1047.91 722.585 1046.03 722.585C1041.04 722.585 1038.47 720.435 1038.47 715.718C1038.47 714.817 1038.54 713.846 1038.75 712.736L1046.03 671.256L1053.53 669.869L1045.96 712.736C1045.9 713.221 1045.83 713.638 1045.83 714.054C1045.83 715.788 1046.66 716.551 1048.25 716.551C1049.36 716.551 1050.06 716.343 1051.38 715.857Z" fill="white"/>
<path d="M1076.65 691.857C1071.58 691.857 1067.49 696.019 1065.9 701.43C1079.21 701.43 1081.78 698.655 1081.78 695.603C1081.78 693.175 1079.63 691.857 1076.65 691.857ZM1071.24 722.585C1062.15 722.585 1057.71 717.106 1057.71 708.643C1057.71 696.366 1064.99 685.823 1077.48 685.823C1084.28 685.823 1089.06 689.083 1089.06 695.048C1089.06 702.331 1082.75 707.395 1064.99 707.395C1064.99 713.013 1066.73 716.551 1072.97 716.551C1075.95 716.551 1078.45 715.649 1081.36 714.262L1083.45 719.672C1079.7 721.614 1075.82 722.585 1071.24 722.585Z" fill="white"/>
<path d="M1107.29 701.083C1111.6 702.817 1116.59 705.522 1116.59 710.932C1116.59 718.077 1110.07 722.585 1101.4 722.585C1097.1 722.585 1093.14 721.614 1090.09 720.088L1093.42 714.539C1095.85 715.788 1098.83 716.551 1102.23 716.551C1105.35 716.551 1109.31 715.025 1109.31 711.487C1109.31 708.505 1106.18 707.395 1102.79 706.146C1099.25 704.828 1094.53 701.915 1094.53 696.297C1094.53 689.291 1100.5 685.823 1108.27 685.823C1112.22 685.823 1116.24 686.655 1119.5 688.25L1116.24 693.661C1113.61 692.62 1110.9 691.857 1107.92 691.857C1104.66 691.857 1101.81 693.245 1101.81 696.089C1101.81 698.863 1104.94 700.112 1107.29 701.083Z" fill="white"/>
<path d="M1118.49 735.765L1121.34 730.146C1122.31 730.632 1123.56 731.117 1125.01 731.117C1126.61 731.117 1128.34 730.285 1129.94 727.025L1132.44 721.892H1130.01L1123.77 686.516H1130.77L1135.49 714.47H1135.77L1149.43 686.516H1157.06L1136.04 728.689C1132.64 735.487 1128.2 737.152 1124.39 737.152C1121.89 737.152 1119.88 736.389 1118.49 735.765Z" fill="white"/>
<path d="M1175 691.857C1169.94 691.857 1165.85 696.019 1164.25 701.43C1177.57 701.43 1180.14 698.655 1180.14 695.603C1180.14 693.175 1177.99 691.857 1175 691.857ZM1169.59 722.585C1160.51 722.585 1156.07 717.106 1156.07 708.643C1156.07 696.366 1163.35 685.823 1175.84 685.823C1182.63 685.823 1187.42 689.083 1187.42 695.048C1187.42 702.331 1181.11 707.395 1163.35 707.395C1163.35 713.013 1165.08 716.551 1171.33 716.551C1174.31 716.551 1176.81 715.649 1179.72 714.262L1181.8 719.672C1178.05 721.614 1174.17 722.585 1169.59 722.585Z" fill="white"/>
</g>
<g opacity="0.6">
<path d="M905.86 972.5H892.889L885.536 1014.4H878.045L885.397 972.5H871.039L872.218 965.841H908.426L905.86 972.5Z" fill="white"/>
<path d="M913.061 1000.59C913.061 1006.21 915.489 1009.05 920.067 1009.05C926.726 1009.05 931.443 1001.84 931.443 992.754C931.443 987.205 929.015 984.361 924.437 984.361C917.778 984.361 913.061 991.506 913.061 1000.59ZM905.64 1001.15C905.64 988.87 912.992 978.327 925.478 978.327C934.564 978.327 938.865 983.806 938.865 992.269C938.865 1004.48 931.512 1015.09 919.027 1015.09C910.287 1015.09 905.64 1010.37 905.64 1001.15Z" fill="white"/>
<path d="M979.884 997.332H972.184L969.202 1014.4H961.71L970.242 965.841H985.433C994.103 965.841 999.028 970.558 999.028 979.228C999.028 989.772 991.051 997.332 979.884 997.332ZM984.253 972.5H976.554L973.363 990.673H981.063C987.028 990.673 991.19 985.957 991.19 979.298C991.19 974.928 988.762 972.5 984.253 972.5Z" fill="white"/>
<path d="M1008.5 979.02L1010.1 970.35L1017.52 968.963L1015.72 979.02H1026.4L1023.97 985.055H1014.68L1011.28 1004.27C1011.21 1004.75 1011.14 1005.17 1011.14 1005.59C1011.14 1008.15 1012.8 1009.05 1015.16 1009.05C1016.9 1009.05 1018.35 1008.78 1020.37 1008.08L1021.06 1013.84C1018.35 1014.67 1015.79 1015.09 1013.29 1015.09C1007.74 1015.09 1003.86 1012.94 1003.86 1006.97C1003.86 1006.07 1003.93 1005.03 1004.13 1003.92L1007.46 985.055H1001.43L1002.47 979.02H1008.5Z" fill="white"/>
<path d="M1033.54 985.055H1027.09L1029.52 979.02H1041.8L1035.63 1014.4H1028.41L1033.54 985.055ZM1035.63 968.754C1035.63 966.327 1037.57 964.385 1040 964.385C1042.42 964.385 1044.43 966.327 1044.43 968.754C1044.43 971.182 1042.42 973.055 1040 973.055C1037.57 973.055 1035.63 971.182 1035.63 968.754Z" fill="white"/>
<path d="M1053.96 979.02L1055.55 970.35L1062.97 968.963L1061.17 979.02H1071.85L1069.42 985.055H1060.13L1056.73 1004.27C1056.66 1004.75 1056.59 1005.17 1056.59 1005.59C1056.59 1008.15 1058.26 1009.05 1060.62 1009.05C1062.35 1009.05 1063.81 1008.78 1065.82 1008.08L1066.51 1013.84C1063.81 1014.67 1061.24 1015.09 1058.74 1015.09C1053.19 1015.09 1049.31 1012.94 1049.31 1006.97C1049.31 1006.07 1049.38 1005.03 1049.59 1003.92L1052.92 985.055H1046.88L1047.92 979.02H1053.96Z" fill="white"/>
<path d="M1086.97 993.587C1091.27 995.321 1096.27 998.026 1096.27 1003.44C1096.27 1010.58 1089.75 1015.09 1081.08 1015.09C1076.78 1015.09 1072.82 1014.12 1069.77 1012.59L1073.1 1007.04C1075.53 1008.29 1078.51 1009.05 1081.91 1009.05C1085.03 1009.05 1088.98 1007.53 1088.98 1003.99C1088.98 1001.01 1085.86 999.899 1082.46 998.65C1078.93 997.332 1074.21 994.419 1074.21 988.801C1074.21 981.795 1080.18 978.327 1087.94 978.327C1091.9 978.327 1095.92 979.159 1099.18 980.754L1095.92 986.165C1093.29 985.124 1090.58 984.361 1087.6 984.361C1084.34 984.361 1081.49 985.749 1081.49 988.592C1081.49 991.367 1084.62 992.616 1086.97 993.587Z" fill="white"/>
<path d="M1121.96 984.361C1116.9 984.361 1112.81 988.523 1111.21 993.933C1124.53 993.933 1127.1 991.159 1127.1 988.107C1127.1 985.679 1124.95 984.361 1121.96 984.361ZM1116.55 1015.09C1107.47 1015.09 1103.03 1009.61 1103.03 1001.15C1103.03 988.87 1110.31 978.327 1122.8 978.327C1129.59 978.327 1134.38 981.587 1134.38 987.552C1134.38 994.835 1128.07 999.899 1110.31 999.899C1110.31 1005.52 1112.05 1009.05 1118.29 1009.05C1121.27 1009.05 1123.77 1008.15 1126.68 1006.77L1128.76 1012.18C1125.02 1014.12 1121.13 1015.09 1116.55 1015.09Z" fill="white"/>
<path d="M1153.65 979.02H1162.32L1159.89 985.055H1152.61L1146.72 1018.7C1145.26 1026.81 1140.47 1029.66 1134.65 1029.66C1131.87 1029.66 1128.89 1028.68 1126.74 1027.51L1129.58 1022.1C1131.32 1023 1132.84 1023.62 1134.78 1023.62C1137.21 1023.62 1138.95 1022.3 1139.57 1018.7L1145.47 985.055H1139.57L1140.61 979.02H1146.51L1147.34 974.373C1148.87 965.911 1154 962.373 1160.73 962.373C1164.26 962.373 1166.21 962.997 1168.7 964.315L1165.37 969.656C1164.13 968.963 1162.53 968.408 1160.52 968.408C1157.4 968.408 1155.18 970.35 1154.48 974.373L1153.65 979.02Z" fill="white"/>
<path d="M1180.22 984.361C1173.56 984.361 1168.84 991.506 1168.84 1000.59C1168.84 1005.86 1170.64 1009.05 1174.67 1009.05C1178.07 1009.05 1180.84 1007.18 1183.41 1003.99L1186.6 985.61C1184.72 984.916 1182.71 984.361 1180.22 984.361ZM1181.26 978.327C1186.53 978.327 1190.69 979.506 1194.64 980.962L1188.75 1014.4H1183.96L1183.2 1010.65H1182.92C1180.01 1013.42 1176.75 1015.09 1172.38 1015.09C1164.75 1015.09 1161.42 1009.61 1161.42 1001.15C1161.42 988.87 1168.77 978.327 1181.26 978.327Z" fill="white"/>
<path d="M1225.09 992.754C1225.09 987.205 1222.8 984.361 1218.57 984.361C1215.73 984.361 1212.05 986.65 1209.69 989.286L1206.43 1007.74C1208.79 1008.64 1211.01 1009.05 1213.71 1009.05C1220.37 1009.05 1225.09 1001.84 1225.09 992.754ZM1232.51 992.269C1232.51 1004.48 1225.16 1015.09 1212.47 1015.09C1207.61 1015.09 1203.31 1014.26 1198.45 1012.31L1206.99 963.76L1214.48 962.373L1210.87 982.766H1211.15C1214.34 979.714 1217.67 978.327 1221.14 978.327C1228.84 978.327 1232.51 983.806 1232.51 992.269Z" fill="white"/>
<path d="M1263.49 979.02L1259.95 985.749C1259.05 985.332 1258.21 985.055 1256.48 985.055C1252.53 985.055 1249.34 989.009 1247.81 993.725L1244.2 1014.4H1236.99L1243.16 979.02H1248.3L1248.71 984.5H1248.99C1251.42 980.893 1254.19 978.327 1259.12 978.327C1260.78 978.327 1262.1 978.604 1263.49 979.02Z" fill="white"/>
<path d="M1269.61 985.055H1263.16L1265.59 979.02H1277.87L1271.69 1014.4H1264.48L1269.61 985.055ZM1271.69 968.754C1271.69 966.327 1273.63 964.385 1276.06 964.385C1278.49 964.385 1280.5 966.327 1280.5 968.754C1280.5 971.182 1278.49 973.055 1276.06 973.055C1273.63 973.055 1271.69 971.182 1271.69 968.754Z" fill="white"/>
<path d="M1296.2 993.24L1308.2 979.02H1315.69L1301.4 996.431C1302.92 1003.44 1306.74 1009.19 1311.32 1014.4L1303.48 1015.09C1299.66 1010.3 1297.03 1005.24 1295.43 999.136H1291.48L1288.77 1014.4H1281.56L1290.44 963.76L1297.93 962.373L1292.52 993.24H1296.2Z" fill="white"/>
<path d="M1333.78 984.361C1327.12 984.361 1322.4 991.506 1322.4 1000.59C1322.4 1005.86 1324.21 1009.05 1328.23 1009.05C1331.63 1009.05 1334.4 1007.18 1336.97 1003.99L1340.16 985.61C1338.29 984.916 1336.27 984.361 1333.78 984.361ZM1334.82 978.327C1340.09 978.327 1344.25 979.506 1348.2 980.962L1342.31 1014.4H1337.52L1336.76 1010.65H1336.48C1333.57 1013.42 1330.31 1015.09 1325.94 1015.09C1318.31 1015.09 1314.98 1009.61 1314.98 1001.15C1314.98 988.87 1322.33 978.327 1334.82 978.327Z" fill="white"/>
</g>
<g opacity="0.6">
<path d="M905.86 1264.99H892.889L885.536 1306.89H878.045L885.397 1264.99H871.039L872.218 1258.33H908.426L905.86 1264.99Z" fill="white"/>
<path d="M913.061 1293.09C913.061 1298.7 915.489 1301.55 920.067 1301.55C926.726 1301.55 931.443 1294.33 931.443 1285.25C931.443 1279.7 929.015 1276.85 924.437 1276.85C917.778 1276.85 913.061 1284 913.061 1293.09ZM905.64 1293.64C905.64 1281.36 912.992 1270.82 925.478 1270.82C934.564 1270.82 938.865 1276.3 938.865 1284.76C938.865 1296.97 931.512 1307.58 919.027 1307.58C910.287 1307.58 905.64 1302.87 905.64 1293.64Z" fill="white"/>
<path d="M974.334 1270.68C974.334 1274.98 978.635 1277.13 982.103 1278.73C987.444 1281.15 993.964 1285.32 993.964 1292.53C993.964 1302.31 986.542 1307.58 974.889 1307.58C968.716 1307.58 964.207 1306.06 959.976 1303.28L963.652 1297.18C967.19 1299.54 970.936 1300.92 976.069 1300.92C982.242 1300.92 986.473 1298.43 986.473 1293.22C986.473 1288.99 982.866 1286.98 977.872 1284.69C972.67 1282.33 966.843 1278.59 966.843 1271.51C966.843 1262.5 973.155 1257.64 983.976 1257.64C989.594 1257.64 994.103 1258.82 997.779 1261.39L993.548 1267.14C990.566 1265.41 987.097 1264.3 982.797 1264.3C977.664 1264.3 974.334 1266.66 974.334 1270.68Z" fill="white"/>
<path d="M1006.61 1293.09C1006.61 1298.7 1009.04 1301.55 1013.61 1301.55C1020.27 1301.55 1024.99 1294.33 1024.99 1285.25C1024.99 1279.7 1022.56 1276.85 1017.98 1276.85C1011.32 1276.85 1006.61 1284 1006.61 1293.09ZM999.186 1293.64C999.186 1281.36 1006.54 1270.82 1019.02 1270.82C1028.11 1270.82 1032.41 1276.3 1032.41 1284.76C1032.41 1296.97 1025.06 1307.58 1012.57 1307.58C1003.83 1307.58 999.186 1302.87 999.186 1293.64Z" fill="white"/>
<path d="M1052.36 1286.08C1056.66 1287.81 1061.65 1290.52 1061.65 1295.93C1061.65 1303.07 1055.13 1307.58 1046.46 1307.58C1042.16 1307.58 1038.21 1306.61 1035.16 1305.09L1038.49 1299.54C1040.91 1300.78 1043.9 1301.55 1047.3 1301.55C1050.42 1301.55 1054.37 1300.02 1054.37 1296.48C1054.37 1293.5 1051.25 1292.39 1047.85 1291.14C1044.31 1289.83 1039.6 1286.91 1039.6 1281.29C1039.6 1274.29 1045.56 1270.82 1053.33 1270.82C1057.28 1270.82 1061.31 1271.65 1064.57 1273.25L1061.31 1278.66C1058.67 1277.62 1055.97 1276.85 1052.98 1276.85C1049.72 1276.85 1046.88 1278.24 1046.88 1281.09C1046.88 1283.86 1050 1285.11 1052.36 1286.08Z" fill="white"/>
<path d="M1078.96 1281.78L1074.59 1306.89H1067.37L1073.55 1271.51H1078.68L1079.44 1275.26H1079.72C1083.19 1272.14 1086.45 1270.82 1090.4 1270.82C1096.92 1270.82 1099.97 1274.01 1099.97 1280.32C1099.97 1281.64 1099.84 1283.31 1099.56 1284.9L1095.67 1306.89H1088.46L1092.27 1285.39C1092.48 1284.28 1092.55 1283.1 1092.55 1282.2C1092.55 1278.52 1090.96 1276.85 1087.63 1276.85C1084.85 1276.85 1081.32 1279.14 1078.96 1281.78Z" fill="white"/>
<path d="M1112.96 1293.09C1112.96 1298.7 1115.38 1301.55 1119.96 1301.55C1126.62 1301.55 1131.34 1294.33 1131.34 1285.25C1131.34 1279.7 1128.91 1276.85 1124.33 1276.85C1117.67 1276.85 1112.96 1284 1112.96 1293.09ZM1105.53 1293.64C1105.53 1281.36 1112.89 1270.82 1125.37 1270.82C1134.46 1270.82 1138.76 1276.3 1138.76 1284.76C1138.76 1296.97 1131.41 1307.58 1118.92 1307.58C1110.18 1307.58 1105.53 1302.87 1105.53 1293.64Z" fill="white"/>
<path d="M1149.71 1306.89L1143.96 1271.51H1150.89L1154.99 1298.84H1155.19L1168.79 1271.51H1175.93L1157.83 1306.89H1149.71Z" fill="white"/>
<path d="M1172.94 1320.76L1175.79 1315.14C1176.76 1315.63 1178.01 1316.11 1179.46 1316.11C1181.06 1316.11 1182.79 1315.28 1184.39 1312.02L1186.89 1306.89H1184.46L1178.22 1271.51H1185.22L1189.94 1299.47H1190.22L1203.88 1271.51H1211.51L1190.49 1313.69C1187.09 1320.48 1182.66 1322.15 1178.84 1322.15C1176.34 1322.15 1174.33 1321.39 1172.94 1320.76Z" fill="white"/>
<path d="M1254.8 1281.43V1281.71C1259.66 1282.89 1262.92 1286.01 1262.92 1291.07C1262.92 1301.76 1253.83 1306.89 1243.35 1306.89H1228.86L1237.39 1258.33H1251.89C1260.07 1258.33 1265.2 1261.32 1265.2 1267.91C1265.2 1274.7 1260.56 1279.77 1254.8 1281.43ZM1246.68 1285.11H1240.16L1237.46 1300.23H1244.05C1250.64 1300.23 1255.15 1296.55 1255.15 1291C1255.15 1287.19 1252.03 1285.11 1246.68 1285.11ZM1249.94 1264.99H1243.7L1241.27 1278.73H1247.52C1252.16 1278.73 1257.09 1275.33 1257.09 1270.2C1257.09 1266.73 1254.66 1264.99 1249.94 1264.99Z" fill="white"/>
<path d="M1275.72 1293.09C1275.72 1298.7 1278.15 1301.55 1282.73 1301.55C1289.38 1301.55 1294.1 1294.33 1294.1 1285.25C1294.1 1279.7 1291.67 1276.85 1287.1 1276.85C1280.44 1276.85 1275.72 1284 1275.72 1293.09ZM1268.3 1293.64C1268.3 1281.36 1275.65 1270.82 1288.14 1270.82C1297.22 1270.82 1301.52 1276.3 1301.52 1284.76C1301.52 1296.97 1294.17 1307.58 1281.68 1307.58C1272.94 1307.58 1268.3 1302.87 1268.3 1293.64Z" fill="white"/>
<path d="M1332.5 1271.51L1328.96 1278.24C1328.06 1277.83 1327.23 1277.55 1325.49 1277.55C1321.54 1277.55 1318.35 1281.5 1316.82 1286.22L1313.22 1306.89H1306L1312.18 1271.51H1317.31L1317.73 1276.99H1318C1320.43 1273.39 1323.21 1270.82 1328.13 1270.82C1329.79 1270.82 1331.11 1271.1 1332.5 1271.51Z" fill="white"/>
</g>
</svg>
