<svg fill="none" height="776" viewBox="0 0 3000 776" width="3000" xmlns="http://www.w3.org/2000/svg"><g fill="#0aa0f6"><path d="m198.921 480.776-54.777-34.138-53.144 85.124 24.586 15.349 39.196-62.763 30.191 18.833z"/><path d="m213.179 488.319-11.035 27.036c-2.869 6.969-5.385 12.703-7.548 17.29-1.742 3.812-3.825 7.458-6.224 10.894-1.581 2.355-3.623 4.365-6.003 5.91-2.075 1.263-4.419 2.018-6.842 2.205-2.943.202-5.898.128-8.828-.22l-1.677 27.875c5.378 1.15 10.895 1.506 16.376 1.058 4.684-.481 9.205-1.987 13.242-4.41 4.43-2.686 8.321-6.17 11.476-10.277 4.098-5.32 7.675-11.021 10.682-17.025 3.531-6.822 7.209-14.952 11.035-24.39l.574-1.323 21.363 8.821-27.984 68.452 26.792 10.982 37.961-92.886z"/><path d="m329.266 525.985-48.157 95.357 31.604 3.749 7.681-17.158 31.471 3.749 3.443 18.437 32.487 3.881-24.321-103.957zm0 58.925 13.242-27.345 6.003 29.595z"/><path d="m489.316 574.897c-3.81-3.766-8.673-6.288-13.948-7.234 2.349-1.821 4.404-3.993 6.091-6.439 1.561-2.331 2.71-4.912 3.399-7.63.66-2.684.795-5.47.397-8.204-.635-5.026-2.953-9.689-6.577-13.232-4.024-3.726-9.033-6.221-14.433-7.189-6.904-1.318-13.987-1.408-20.922-.265-7.536 1.015-14.856 3.25-21.673 6.616-6.155 2.925-11.675 7.031-16.243 12.085l15.581 19.098c2.634-3.058 5.863-5.549 9.49-7.322 3.806-2.05 7.946-3.409 12.227-4.013 2.681-.46 5.408-.593 8.121-.397 1.729.101 3.395.681 4.812 1.676 1.115.914 1.828 2.228 1.986 3.66.285 1.529-.032 3.109-.883 4.411-.979 1.384-2.324 2.468-3.884 3.132-2.162.943-4.453 1.552-6.798 1.808l-18.494 2.646 3.045 21.436 20.614-2.955c3.434-.704 6.993-.506 10.328.573 1.132.449 2.119 1.201 2.851 2.173.732.973 1.181 2.129 1.298 3.34.14.926.095 1.87-.133 2.779-.227.908-.632 1.762-1.191 2.514-1.367 1.809-3.175 3.236-5.252 4.146-2.722 1.209-5.608 2.011-8.564 2.381-4.87.7-9.823.581-14.654-.352-4.684-.829-9.174-2.519-13.242-4.984l-8.828 23.861c6.274 3.116 13.038 5.13 19.996 5.954 7.825.923 15.74.775 23.526-.441 7.789-.897 15.305-3.406 22.07-7.366 5.593-3.306 10.172-8.081 13.242-13.805 2.858-5.632 3.848-12.028 2.825-18.259-.436-5.286-2.609-10.279-6.18-14.202z"/><path d="m602.358 513.151c-4.51-5.05-9.989-9.145-16.111-12.041-6.228-2.953-12.978-4.647-19.863-4.984-14.908-.456-29.466 4.566-40.918 14.114-5.243 4.451-9.536 9.911-12.624 16.054-3.037 6.033-4.81 12.621-5.208 19.363-.655 14.279 4.195 28.265 13.551 39.077 4.486 5.077 9.97 9.176 16.111 12.041 6.24 2.9 12.988 4.548 19.863 4.852 7.403.315 14.796-.824 21.761-3.352 7.007-2.339 13.497-6.008 19.112-10.806 5.209-4.491 9.483-9.96 12.58-16.099 3.038-6.048 4.81-12.651 5.208-19.406.819-14.168-3.932-28.095-13.242-38.813zm-18.407 47.502c-1.269 2.772-3.121 5.239-5.429 7.233-2.492 2.128-5.369 3.76-8.475 4.808-4.034 1.484-8.392 1.864-12.624 1.102-4.049-.755-7.791-2.67-10.77-5.513-3.348-3.234-5.836-7.251-7.238-11.688-1.235-3.346-1.848-6.888-1.81-10.453.052-3.145.727-6.248 1.986-9.13 1.282-2.752 3.132-5.202 5.429-7.189 2.486-2.138 5.364-3.77 8.475-4.808 4.035-1.484 8.393-1.865 12.624-1.102 4.049.754 7.791 2.67 10.77 5.513 3.349 3.233 5.837 7.251 7.239 11.688 1.234 3.345 1.847 6.888 1.81 10.453-.048 3.131-.723 6.22-1.987 9.086z"/><path d="m703.261 492.464c-4.744-2.683-10.201-3.838-15.626-3.307 1.704-2.214 3.072-4.666 4.061-7.278.952-2.491 1.417-5.141 1.369-7.807-.073-2.774-.751-5.498-1.987-7.983-1.406-3.462-3.686-6.501-6.618-8.82s-6.415-3.839-10.111-4.412c-8.855-.932-17.785.852-25.601 5.117l-37.783 18.039 43.257 90.549 38.181-18.26c6.426-2.854 12.207-6.98 16.993-12.129 3.928-4.218 6.537-9.492 7.504-15.172.851-5.673-.09-11.471-2.692-16.584-2.309-5.03-6.137-9.21-10.947-11.953zm-48.907 7.19-8.298-17.334 7.901-3.749c2.544-1.44 5.529-1.895 8.386-1.279 1.241.394 2.378 1.057 3.332 1.941.954.885 1.7 1.969 2.186 3.175.843 1.633 1.239 3.459 1.147 5.293-.142 1.619-.773 3.158-1.809 4.411-1.184 1.473-2.696 2.651-4.414 3.44zm32.708 25.316c-1.545 2.879-4.064 5.114-7.107 6.307l-8.563 4.058-8.828-18.348 9.799-4.675c1.261-.716 2.652-1.174 4.091-1.348 1.44-.174 2.9-.061 4.296.334 1.289.478 2.465 1.22 3.453 2.176.988.957 1.766 2.108 2.285 3.381.704 1.221 1.122 2.586 1.221 3.992.1 1.406-.122 2.816-.647 4.123z"/><path d="m851.526 434.773-35.312-64.924-71.153 38.725 13.242 24.434c4.179 7.733 7.401 14.261 9.667 19.583 1.995 4.32 3.334 8.914 3.972 13.629.443 3.369-.077 6.794-1.501 9.88-1.805 3.289-4.251 6.183-7.194 8.512l23.879 43.797 24.189-13.232-12.006-22.053 54.689-29.771 12.006 22.053 24.188-13.232-24.63-45.208zm-52.968 28.757c-.822-5.853-2.302-11.593-4.414-17.114-3.366-9.124-7.439-17.972-12.182-26.463l-.706-1.235 21.805-11.864 22.776 41.768z"/><path d="m941.35 365.529c-4.827-2.518-10.314-3.488-15.714-2.778 1.636-2.279 2.916-4.792 3.796-7.454.89-2.502 1.266-5.157 1.104-7.807-.17-2.777-.937-5.485-2.251-7.939-1.521-3.402-3.898-6.351-6.9-8.562-3.001-2.211-6.525-3.607-10.226-4.052-8.882-.623-17.745 1.453-25.425 5.954l-37.21 19.407 46.259 89.049 37.563-19.45c6.315-3.081 11.944-7.401 16.552-12.703 3.8-4.337 6.254-9.685 7.062-15.393.635-5.708-.522-11.473-3.31-16.495-2.432-5.017-6.386-9.138-11.3-11.777zm-48.554 8.822-8.827-17.025 7.768-4.014c2.493-1.531 5.466-2.082 8.342-1.544 1.252.348 2.41.967 3.395 1.813.984.846 1.769 1.899 2.3 3.083.911 1.597 1.368 3.411 1.324 5.249-.08 1.67-.648 3.28-1.633 4.631-1.176 1.526-2.686 2.763-4.414 3.616zm33.502 24.258c-1.439 2.929-3.882 5.245-6.885 6.527l-8.387 4.411-9.402-18.083 9.667-5.029c1.241-.744 2.616-1.236 4.048-1.448 1.431-.212 2.891-.14 4.294.214 1.305.425 2.506 1.121 3.525 2.04s1.833 2.042 2.39 3.296c.695 1.191 1.114 2.522 1.229 3.895.114 1.374-.079 2.755-.567 4.044z"/><path d="m1001.2 278.021-9.31 64.306-22.114-50.589-26.263 11.511 40.211 91.961 26.526-11.644 9.09-65.1 22.47 51.339 26.31-11.468-40.26-91.96z"/><path d="m1190.96 208.863-30.94 10.629-11.3 42.43-1.64.573-11.87-34.402-27.37 9.439 11.88 34.402-1.55.529-33.68-26.904-31.86 10.982 47.67 36.961-18.98 59.322 30.36-10.497 14.35-47.414 1.46-.485 13.11 37.931 27.36-9.439-13.11-37.931 1.33-.441 39.59 28.801 31.6-10.894-52.39-36.563z"/><path d="m1263.04 268.011-3.58-13.849 36.11-9.306-5.69-22.097-36.11 9.306-3.27-12.614 44.01-11.335-6.22-24.17-72.08 18.612 25.11 97.121 72.61-18.745-6.31-24.39z"/><path d="m1388.31 164.451-79.37 14.864 4.86 25.934 25.38-4.763 13.64 72.73 28.6-5.381-13.64-72.686 25.38-4.763z"/><path d="m1481.93 225.185c-3.88 1.713-7.98 2.871-12.18 3.44-4.69.686-9.46.263-13.95-1.235-3.86-1.379-7.21-3.884-9.63-7.189-2.51-3.699-4.03-7.983-4.41-12.438-.46-3.366-.31-6.788.44-10.1.7-2.954 2.02-5.723 3.89-8.116 1.96-2.404 4.41-4.359 7.19-5.734 3.31-1.588 6.86-2.602 10.51-2.999 4.18-.539 8.42-.33 12.53.618 3.73.915 7.19 2.681 10.11 5.16l11.26-25.317c-5.22-3.43-10.96-5.978-17-7.542-7.25-1.58-14.73-1.819-22.07-.705-7.31.8-14.41 2.97-20.92 6.395-6.01 3.182-11.31 7.548-15.58 12.835-4.25 5.261-7.34 11.364-9.05 17.907-1.87 7.075-2.33 14.446-1.37 21.7.93 9.561 4.4 18.7 10.07 26.463 5.3 7.085 12.53 12.491 20.83 15.569 9.02 3.279 18.71 4.279 28.2 2.911 7.93-.718 15.68-2.729 22.96-5.954 5.7-2.68 10.94-6.237 15.53-10.541l-16.02-22.45c-3.37 3.019-7.2 5.49-11.34 7.322z"/><path d="m1561.25 146.72c-7.26.206-14.42 1.777-21.1 4.631-5.61 2.407-10.36 6.469-13.6 11.644-3.26 5.776-4.71 12.401-4.15 19.01.17 5.782 2.18 11.359 5.74 15.922 3.78 4.644 8.67 8.268 14.22 10.541l-22.65 40.666 32.8-1.544 17.87-35.285 6.14-.264 1.63 34.49 28.96-1.367-4.72-100.164zm3.62 42.915c-3.24.301-6.49-.294-9.41-1.72-1.24-.778-2.25-1.877-2.92-3.182-.66-1.304-.97-2.765-.87-4.228-.24-1.454-.08-2.946.46-4.318.53-1.373 1.43-2.578 2.58-3.489 2.74-1.683 5.89-2.569 9.1-2.558l10.72-.485.89 19.451z"/><path d="m1738.73 193.515c2.57-1.102 4.95-2.589 7.06-4.41 2.04-1.714 3.72-3.812 4.95-6.175 1.27-2.463 1.99-5.171 2.12-7.939.43-3.703-.11-7.454-1.56-10.887-1.46-3.433-3.78-6.429-6.74-8.696-7.34-5.054-16.03-7.789-24.94-7.851l-41.8-2.337-5.3 100.164 42.24 2.381c7.02.549 14.06-.291 20.75-2.469 5.47-1.83 10.3-5.199 13.9-9.704 3.48-4.564 5.44-10.1 5.61-15.834.41-5.535-.93-11.059-3.84-15.789-2.95-4.703-7.3-8.36-12.45-10.454zm-17.65 31.139c-2.75 1.779-6.03 2.53-9.27 2.117l-9.45-.529 1.15-20.333 10.9.618c1.44-.015 2.87.258 4.21.804 1.33.545 2.54 1.351 3.56 2.371.9 1.029 1.58 2.236 1.99 3.542s.55 2.684.39 4.045c.02 1.418-.29 2.821-.89 4.104s-1.49 2.413-2.59 3.305zm2.12-41.371c-.91 1.402-2.22 2.495-3.76 3.131-1.81.711-3.75.998-5.69.838l-9.18-.529 1.1-19.186 8.83.485c2.92-.025 5.75 1.027 7.94 2.955.9.937 1.58 2.058 1.99 3.286.41 1.227.55 2.53.4 3.815-.02 1.859-.56 3.676-1.55 5.249z"/><path d="m1772.01 251.694 28.74 3.881 10.02-73.26 33.24 4.543-10.02 73.26 28.73 3.925 13.55-99.414-90.66-12.35z"/><path d="m1886.91 268.715 73.32 15.834 5.34-24.655-44.98-9.704 3-14.025 36.46 7.895 4.85-22.274-36.46-7.895 2.74-12.746 44.45 9.615 5.3-24.391-72.79-15.745z"/><path d="m2079.53 230.345c-1.93-6.003-5.55-11.328-10.41-15.349-5.47-4.495-11.83-7.759-18.67-9.571l-41.23-11.909-27.72 96.548 27.85 7.983 8.57-29.771 12.66 3.616c7.13 2.245 14.65 2.981 22.07 2.161 6.18-.78 11.99-3.409 16.64-7.542 4.77-4.549 8.16-10.339 9.8-16.716 2.11-6.291 2.26-13.071.44-19.45zm-28.16 11.688c-.25 1.514-.89 2.936-1.85 4.127-.97 1.192-2.23 2.11-3.66 2.665-3.21.823-6.59.685-9.71-.397l-11.61-3.352 5.73-19.98 11.75 3.352c3.11.784 5.95 2.401 8.21 4.675.97 1.247 1.59 2.731 1.79 4.298s-.02 3.16-.65 4.612z"/><path d="m2166.89 234.933c2.47.878 5.12 1.15 7.72.794 2.61-.339 5.09-1.342 7.2-2.911 2.24-1.723 3.91-4.094 4.76-6.793.79-1.912 1.11-3.982.95-6.042s-.8-4.054-1.87-5.822c-1.96-3.439-5.1-6.054-8.83-7.366-2.51-.877-5.18-1.149-7.81-.794-2.63.332-5.12 1.334-7.24 2.911-2.32 1.661-4.07 3.983-5.04 6.66-.76 1.935-1.07 4.022-.89 6.096.17 2.074.83 4.079 1.91 5.857 2.06 3.483 5.3 6.113 9.14 7.41z"/><path d="m2128.26 221.522c2.49.835 5.13 1.106 7.73.794 2.61-.339 5.08-1.341 7.19-2.911 2.25-1.739 3.92-4.125 4.77-6.836.76-1.918 1.07-3.983.91-6.039s-.79-4.048-1.84-5.825c-1.69-2.854-4.19-5.148-7.18-6.599-2.99-1.45-6.34-1.993-9.63-1.561-2.62.328-5.11 1.348-7.2 2.955-2.22 1.751-3.85 4.135-4.68 6.836-.77 1.926-1.09 4.007-.91 6.076.18 2.068.84 4.067 1.93 5.833 2.01 3.406 5.17 5.986 8.91 7.277z"/><path d="m2112.64 303.999 4.77-13.54 35.18 12.305 7.54-21.523-35.22-12.306 4.28-12.305 42.95 14.996 8.25-23.553-70.31-24.523-33.11 94.696 70.85 24.743 8.3-23.817z"/><path d="m2293.04 293.461-75.04-30.874-10.59 25.669c-3.39 8.145-6.45 14.776-9.18 19.892-2.13 4.258-4.86 8.181-8.13 11.644-2.32 2.467-5.31 4.213-8.6 5.028-3.56.685-7.22.685-10.77 0l-19.12 46.09 25.47 10.498 9.58-23.156 57.56 23.773-9.45 23.2 25.43 10.541 19.68-47.546-15.09-6.263zm-83.87 45.385c4.06-4.295 7.63-9.029 10.64-14.114 4.97-8.356 9.28-17.086 12.89-26.111l.57-1.323 22.91 9.483-18.18 44.105z"/><path d="m2783.47 210.452v44.459h95.21c-31.9 38.5-71 70.424-115.11 93.989-113.35 60.646-247.19 62.851-398.19 6.572l-15.53 41.592c83.2 31.094 156.69 42.915 220.38 42.915 93.05 0 165.26-25.273 216.29-52.927 47.31-25.572 89.38-59.805 124.03-100.914v95.621h44.45v-171.307z"/></g></svg>