<svg fill="none" height="2867" viewBox="0 0 3000 2867" width="3000" xmlns="http://www.w3.org/2000/svg" xmlns:xlink="http://www.w3.org/1999/xlink"><clipPath id="a"><path d="m0 0h3000v2867h-3000z"/></clipPath><g clip-path="url(#a)"><path d="m0 0h3000v2867h-3000z" fill="#000"/><circle cx="381" cy="1899" fill="#027dc4" r="968"/><path d="m457.789 1131 95.195-154.692-90.868-148.201h77.021l59.93 99.954 62.526-99.954h74.858l-93.897 149.499 96.277 153.394h-77.671l-64.906-106.23-62.958 106.23zm319.573 0v-218.516h111.205c25.673 0 45.866 4.688 60.578 14.063 14.712 9.231 22.068 23.294 22.068 42.189 0 9.808-2.524 18.245-7.572 25.313-4.904 6.921-11.611 12.551-20.121 16.871-8.365 4.33-17.885 7.36-28.558 9.09l-.866-14.06c20.626 2.16 36.852 8.44 48.68 18.82 11.827 10.24 17.74 23.58 17.74 40.03 0 13.7-3.461 25.53-10.384 35.48-6.924 9.81-17.02 17.38-30.29 22.71-13.269 5.34-29.352 8.01-48.246 8.01zm60.362-43.7h45.65c11.395 0 20.121-1.95 26.179-5.84 6.202-4.04 9.303-9.88 9.303-17.53 0-7.36-3.029-12.98-9.087-16.87-5.913-3.9-14.712-5.85-26.395-5.85h-51.924v-41.536h46.515c10.818 0 19.184-1.659 25.097-4.976 5.914-3.462 8.871-8.943 8.871-16.443s-3.029-13.053-9.087-16.659c-5.914-3.75-14.207-5.625-24.881-5.625h-40.241zm282.146 50.19c-20.91 0-39.59-4.83-56.03-14.5-16.45-9.8-29.43-23.43-38.95-40.89-9.37-17.45-14.06-37.57-14.06-60.36 0-17.16 2.67-32.811 8-46.946 5.49-14.135 13.13-26.323 22.94-36.564 9.81-10.385 21.34-18.318 34.61-23.799 13.42-5.625 27.91-8.438 43.49-8.438 20.77 0 38.3 4.472 52.57 13.414 14.43 8.943 24.96 20.626 31.59 35.049l-8.87 13.631v-55.603h54.96v218.516h-54.96v-55.6l8.87 13.63c-6.63 14.42-17.16 26.1-31.59 35.05-14.27 8.94-31.8 13.41-52.57 13.41zm10.17-54.74c10.96 0 20.77-2.45 29.42-7.35 8.66-5.05 15.44-12.12 20.34-21.21 5.05-9.08 7.57-19.9 7.57-32.45s-2.52-23.364-7.57-32.451c-4.9-9.087-11.68-16.082-20.34-20.986-8.65-5.048-18.46-7.572-29.42-7.572-10.82 0-20.55 2.524-29.21 7.572-8.65 4.904-15.5 11.899-20.55 20.986-4.91 9.087-7.36 19.901-7.36 32.451s2.45 23.37 7.36 32.45c5.05 9.09 11.9 16.16 20.55 21.21 8.66 4.9 18.39 7.35 29.21 7.35zm226.66 48.25v-167.889h-65.99v-50.627h194.94v50.627h-65.78v167.889zm169.44 0v-218.516h60.37v128.946l102.33-128.946h56.25v218.516h-60.58v-130.68l-102.55 130.68zm325.8 0v-167.889h-65.98v-50.627h194.93v50.627h-65.77v167.889zm-1396.531 409.43 78.752-108.82-74.641-110.13h79.834l38.727 66.42 37.645-66.42h77.887l-72.478 108.83 78.103 109.69h-80.916l-42.405-66.64-43.054 65.99zm379.506 6.06c-23.511 0-44.353-5.26-62.526-15.79-18.174-10.53-32.453-24.52-42.838-41.98-10.241-17.59-15.361-36.92-15.361-57.98 0-15.43 2.957-30.07 8.87-43.92 5.914-13.99 14.28-26.32 25.097-36.99 10.818-10.82 23.583-19.33 38.295-25.53 14.712-6.21 30.866-9.31 48.463-9.31 23.51 0 44.28 5.27 62.309 15.8 18.174 10.53 32.381 24.59 42.622 42.19 10.384 17.45 15.577 36.7 15.577 57.76 0 15.29-2.957 29.93-8.871 43.92-5.913 13.99-14.279 26.4-25.096 37.21-10.674 10.68-23.366 19.12-38.078 25.32s-30.867 9.3-48.463 9.3zm0-54.74c11.106 0 21.058-2.45 29.856-7.35 8.799-5.05 15.722-12.12 20.77-21.21 5.048-9.23 7.572-20.04 7.572-32.45 0-12.55-2.524-23.36-7.572-32.45-4.904-9.09-11.755-16.08-20.553-20.99-8.799-5.05-18.823-7.57-30.073-7.57-11.251 0-21.347 2.52-30.29 7.57-8.798 4.91-15.721 11.9-20.77 20.99-4.904 9.09-7.356 19.9-7.356 32.45s2.525 23.37 7.573 32.45c5.048 9.09 11.971 16.16 20.77 21.21 8.798 4.9 18.822 7.35 30.073 7.35zm318.565 48.25v-167.89h-70.97v19.69c0 17.6-1.37 34.25-4.11 49.98-2.74 15.72-7.5 29.92-14.28 42.62-6.78 12.55-16.15 23.22-28.12 32.02-11.83 8.65-26.97 14.78-45.437 18.39l-12.981-43.71c13.126-2.88 23.078-8.94 29.858-18.17s11.32-20.77 13.63-34.62c2.45-13.99 3.68-29.49 3.68-46.51v-70.32h191.9v218.52zm-175.898 64.91v-113.81l34.618 2.82 9.95-4.55h238.42v115.54h-57.76v-64.91h-167.46v64.91zm320.798-64.91v-218.52h60.36v128.95l102.34-128.95h56.25v218.52h-60.58v-130.68l-102.55 130.68zm325.8 0v-167.89h-65.99v-50.63h194.94v50.63h-65.77v167.89zm169.45 0v-218.52h63.17v173.3h33.1c12.7 0 22.36-2.67 28.99-8 6.64-5.34 9.96-12.98 9.96-22.94 0-9.95-3.1-17.66-9.31-23.15-6.05-5.62-14.71-8.43-25.96-8.43h-43.7v-44.79h48.68c29.57 0 52.79 6.42 69.66 19.26 17.02 12.83 25.53 31.87 25.53 57.11 0 15.87-3.96 29.5-11.9 40.89-7.93 11.25-19.18 19.98-33.75 26.18-14.42 6.06-31.44 9.09-51.06 9.09zm-1312.908 409v-218.52h218.3v218.52h-63.175v-167.89h-91.95v167.89zm382.504 6.49c-23.51 0-44.352-5.26-62.525-15.79-18.174-10.53-32.453-24.52-42.838-41.98-10.241-17.59-15.361-36.92-15.361-57.98 0-15.43 2.957-30.07 8.87-43.92 5.914-13.99 14.279-26.32 25.097-36.99 10.818-10.82 23.582-19.33 38.294-25.53 14.712-6.21 30.867-9.31 48.463-9.31 23.511 0 44.281 5.27 62.31 15.8 18.173 10.53 32.381 24.59 42.621 42.19 10.385 17.45 15.578 36.7 15.578 57.76 0 15.29-2.957 29.93-8.871 43.92-5.913 13.99-14.279 26.4-25.097 37.21-10.673 10.68-23.366 19.12-38.078 25.32s-30.866 9.3-48.463 9.3zm0-54.74c11.106 0 21.059-2.45 29.857-7.35 8.798-5.05 15.722-12.12 20.77-21.21 5.048-9.23 7.572-20.04 7.572-32.45 0-12.55-2.524-23.36-7.572-32.45-4.904-9.09-11.755-16.08-20.554-20.99-8.798-5.05-18.822-7.57-30.073-7.57-11.25 0-21.346 2.52-30.289 7.57-8.798 4.91-15.722 11.9-20.77 20.99-4.904 9.09-7.356 19.9-7.356 32.45s2.524 23.37 7.573 32.45c5.048 9.09 11.971 16.16 20.769 21.21 8.799 4.9 18.823 7.35 30.073 7.35zm408.064 48.25-69.23-114.88 69.02-103.64h66.85l-68.15 100.39 76.59 118.13zm-142.36 0v-218.52h63.18v80.49h66.2v50.62h-66.2v87.41zm254.39 90.87v-309.39h54.95v26.83c8.37-9.95 18.97-17.96 31.8-24.01 12.99-6.21 28.35-9.31 46.09-9.31 21.06 0 39.81 4.91 56.25 14.72 16.44 9.66 29.35 23.22 38.73 40.67 9.37 17.45 14.06 37.57 14.06 60.36 0 16.3-2.74 31.45-8.22 45.44-5.34 13.99-12.91 26.25-22.72 36.78s-21.42 18.75-34.83 24.66c-13.42 5.91-28.2 8.87-44.35 8.87-14.28 0-27.19-2.38-38.73-7.14-11.4-4.76-21.42-11.47-30.07-20.12v111.64zm121.15-139.12c11.26 0 21.28-2.45 30.08-7.35 8.94-5.05 15.86-12.12 20.77-21.21 5.05-9.08 7.57-19.9 7.57-32.45s-2.52-23.36-7.57-32.45-11.97-16.08-20.77-20.99c-8.8-5.05-18.82-7.57-30.08-7.57-11.1 0-21.05 2.52-29.85 7.57-8.8 4.91-15.72 11.9-20.77 20.99s-7.57 19.9-7.57 32.45 2.45 23.37 7.35 32.45c5.05 9.09 11.97 16.16 20.77 21.21 8.8 4.9 18.82 7.35 30.07 7.35zm189.87 144.96c-9.23 0-18.31-.94-27.26-2.81-8.94-1.88-17.38-4.98-25.31-9.31l13.63-53.22c4.62 2.6 9.66 4.62 15.15 6.06 5.62 1.44 10.81 2.16 15.57 2.16 8.66 0 15.8-1.87 21.42-5.62 5.63-3.75 9.81-9.88 12.55-18.39l4.54-13.85-85.24-220.25h68.58l52.36 156.21 50.84-156.21h66.86l-91.74 243.4c-7.21 18.17-15.5 32.45-24.88 42.84-9.37 10.53-19.68 17.96-30.93 22.28-11.26 4.47-23.3 6.71-36.14 6.71zm216.76-96.71v-218.52h147.98v50.63h-84.81v167.89zm222.71 96.71c-9.23 0-18.32-.94-27.26-2.81-8.94-1.88-17.38-4.98-25.31-9.31l13.63-53.22c4.61 2.6 9.66 4.62 15.14 6.06 5.63 1.44 10.82 2.16 15.58 2.16 8.65 0 15.79-1.87 21.42-5.62 5.62-3.75 9.81-9.88 12.55-18.39l4.54-13.85-85.24-220.25h68.58l52.36 156.21 50.84-156.21h66.85l-91.73 243.4c-7.21 18.17-15.51 32.45-24.88 42.84-9.38 10.53-19.69 17.96-30.94 22.28-11.25 4.47-23.29 6.71-36.13 6.71zm232.12-204.89-9.74-194.71h73.56l-9.74 194.71zm27.04 114.67c-10.96 0-20.48-3.46-28.56-10.38-8.08-7.07-12.11-16.45-12.11-28.13 0-7.93 1.8-14.78 5.4-20.55 3.75-5.77 8.73-10.24 14.93-13.42 6.2-3.17 12.98-4.76 20.34-4.76 11.11 0 20.63 3.54 28.56 10.6 7.93 6.93 11.9 16.3 11.9 28.13 0 7.93-1.88 14.78-5.63 20.55-3.6 5.77-8.51 10.17-14.71 13.2-6.06 3.17-12.76 4.76-20.12 4.76z" fill="#fff"/><g stroke="#0aa0f6" stroke-miterlimit="10" stroke-width="64.1951"><path d="m3550.7 1455.81c315.6-323.68 310.32-842.246-11.82-1158.485-295.05-289.65973-753.54-308.9679-1071.05-61.48"/><path d="m2376.44 318.814c-315.61 323.687-310.32 842.246 11.81 1158.486 295.14 289.74 753.63 309.05 1071.14 61.56"/><path d="m2389.89 497.281-13.26-178.715-180.12 13.717"/></g></g></svg>