<svg xmlns="http://www.w3.org/2000/svg" xmlns:xlink="http://www.w3.org/1999/xlink" viewBox="0 0 1920 1080"><defs><style>.a{fill:none;}.b{clip-path:url(#a);}.c{fill:#ffd400;}.d{fill:#fff;}.e{fill:#00b4ff;}.f{fill:#00b400;fill-rule:evenodd;}</style><clipPath id="a"><rect class="a" width="1920" height="1080"/></clipPath></defs><g class="b"><rect class="c" width="1920" height="1080"/><path class="d" d="M1539.22,161.141c-31.01,272.6-74.32,313.946-313.45,350.838-10.57,1.631-10.5,19.44.02,21.376,241.8,44.491,289.35,174.09,315.34,405.9,1.22,10.9,17.81,10.9,18.97,0,24.29-229.908,59.13-354.884,309.42-403.971,10.59-2.077,10.26-20.374-.44-21.737-251.09-31.954-287.76-80.537-310.26-352.128C1557.9,150.333,1540.47,150.089,1539.22,161.141Z"/><path class="d" d="M1271.77,106.679c-11.14,97.946-26.7,112.8-112.62,126.055-3.79.586-3.77,6.985.01,7.681,86.88,15.985,103.96,62.55,113.3,145.84.44,3.916,6.4,3.917,6.82,0,8.73-82.6,21.24-127.509,111.17-145.146,3.81-.746,3.69-7.32-.16-7.809-90.21-11.481-103.39-28.937-111.47-126.519C1278.49,102.8,1272.23,102.708,1271.77,106.679Z"/><path class="d" d="M1126.88,634.172C1112.11,764,1091.49,783.693,977.6,801.263c-5.036.777-5,9.259.007,10.181,115.163,21.189,137.8,82.913,150.183,193.316.59,5.19,8.49,5.19,9.04,0,11.57-109.5,28.16-169.02,147.36-192.4,5.05-.989,4.89-9.7-.21-10.352-119.58-15.219-137.05-38.357-147.76-167.706C1135.78,629.025,1127.48,628.908,1126.88,634.172Z"/><path d="M132.24,200H113.467V97.333H189V200H170.227V114.347H132.24Zm110.96,1.467c-20.827,0-35.2-14.52-35.2-38.867s14.373-38.867,35.2-38.867,35.2,14.52,35.2,38.867S264.03,201.467,243.2,201.467Zm0-62.04c-9.68,0-16.72,8.653-16.72,23.173s7.04,23.173,16.72,23.173,16.72-8.653,16.72-23.173S252.884,139.427,243.2,139.427Zm40.413,44.88h9.974c7.333-13.054,9.386-25.667,9.386-50.894V125.2h51.334v59.107h11.88l-2.934,34.32H348V200H301.8v18.627H286.551Zm52.507-43.414H320.431c0,16.574-1.467,32.12-7.48,43.414h23.173Zm34.433,43.414h9.974c7.333-13.054,9.386-25.667,9.386-50.894V125.2h51.334v59.107h11.88l-2.934,34.32H434.944V200h-46.2v18.627H373.491Zm52.507-43.414H407.371c0,16.574-1.467,32.12-7.48,43.414h23.173Zm75.439,44.88c6.16,0,13.494-2.2,18.627-4.84l6.307,14.227a57.821,57.821,0,0,1-25.814,6.307c-22,0-37.106-14.374-37.106-38.867,0-24.64,13.2-38.867,34.32-38.867,19.506,0,31.68,12.174,31.68,33.147a98.778,98.778,0,0,1-.88,11.293H479c1.9,11.44,9.823,17.6,19.5,17.6ZM479.29,154.24h30.653c0-8.507-5.28-14.813-14.813-14.813C487.357,139.427,481.05,144.56,479.29,154.24Zm81.552-22.587h.587a27.732,27.732,0,0,1,19.36-7.92c21.12,0,30.653,16.28,30.653,38.867s-9.68,38.867-31.973,38.867a55.484,55.484,0,0,1-17.16-2.64v30.506l-18.187,2.934V125.2h13.787Zm16.134,54.12c9.826,0,15.986-8.506,15.986-23.173,0-13.64-5.573-23.173-16.573-23.173-4.987,0-9.973,2.786-14.08,7.333v35.053A28.449,28.449,0,0,0,576.976,185.773Zm121.506,15.694-18.773-32.414h-3.227V200H658.736V169.053h-3.227L637.762,200H617.376l24.053-38.72L618.842,125.2h18.627l17.453,28.747h3.814V125.2h17.746v28.747H680.3L697.749,125.2h18.627l-22.587,36.08L717.842,200ZM777.547,200V155.12h-.44L746.894,200H730.32V125.2h18.187v44.88h.44L779.16,125.2h16.574V200Zm31.343-59.107V125.2h64.827l-2.934,15.693H849.957V200h-18.04V140.893Zm108.7,44.88c6.16,0,13.493-2.2,18.627-4.84l6.306,14.227a57.82,57.82,0,0,1-25.813,6.307c-22,0-37.107-14.374-37.107-38.867,0-24.64,13.2-38.867,34.32-38.867,19.507,0,31.68,12.174,31.68,33.147a98.551,98.551,0,0,1-.88,11.293h-46.64c1.909,11.44,9.829,17.6,19.509,17.6ZM898.379,154.24h30.653c0-8.507-5.28-14.813-14.813-14.813C906.445,139.427,900.139,144.56,898.379,154.24ZM153.8,307.84l14.373,25.227-13.64,7.333-18.626-32.56,18.626-32.56,13.64,7.333Zm-29.773,0L138.4,333.067,124.76,340.4l-18.627-32.56,18.627-32.56,13.64,7.333Zm80.837,22.147h38.573v-68.64H217.624v3.226C217.624,290.093,212.491,315.467,204.864,329.987ZM192.1,347v21.56H176.26l-2.933-38.573h11c11.146-14.814,14.96-43.414,14.96-77.147v-8.507h62.92v85.654H276.14l-2.933,38.573h-15.84V347Zm145.157,0V302.12h-.44L306.607,347H290.034V272.2h18.187v44.88h.44l30.213-44.88h16.573V347Zm88.983-56.76c0,8.067-3.814,14.52-12.76,17.013v.44c9.973,2.347,15.986,8.507,15.986,18.334,0,13.493-11.146,22.44-32.12,22.44-8.653,0-19.506-1.76-25.813-4.547l5.72-14.52a62.606,62.606,0,0,0,19.653,3.373c8.214,0,14.08-3.08,14.08-8.36,0-5.133-4.546-8.506-14.226-8.506h-9.387v-14.52h9.24c6.307,0,11.147-2.2,11.147-7.774,0-4.546-3.667-7.186-10.707-7.186a63.841,63.841,0,0,0-19.067,3.08l-5.72-14.52c6.894-2.787,19.214-4.254,26.254-4.254,16.724,0,27.724,6.454,27.724,19.507ZM483.11,303v-4.987c0-7.186-3.666-11.586-12.613-11.586a59.458,59.458,0,0,0-19.947,3.96l-5.426-14.667a74.729,74.729,0,0,1,27.133-4.987c22.88,0,29.04,12.027,29.04,27.574V326.76c0,3.667,2.053,5.28,5.28,5.28h1.613v14.227c-2.2.88-6.746,1.466-10.413,1.466-6.6,0-10.853-2.493-13.2-7.186h-.587c-5.28,5.28-11.146,7.186-19.653,7.186-14.227,0-23.173-7.04-23.173-22.293,0-14.373,11.44-22.44,28.013-22.44Zm-15.84,29.773a21.29,21.29,0,0,0,15.84-7.333v-8.507H469.764c-6.747,0-10.56,3.374-10.56,8.214C459.2,330.133,462.87,332.773,467.27,332.773ZM570.151,347V302.12h-.44L539.5,347H522.925V272.2h18.186v44.88h.44l30.214-44.88h16.573V347Zm-.733-107.8,11.147,7.333c-5.574,9.974-14.227,15.107-24.934,15.107s-19.36-5.28-24.933-15.107l11.147-7.333c3.08,6.453,7.773,9.973,13.786,9.973S566.338,245.8,569.418,239.2Zm102.33,33V347H653.561V316.347h-25.08V347H610.294V272.2h18.187v28.453h25.08V272.2Zm57.542,40.773H690.864v-16.28h41.36Zm64.639,35.494-18.773-32.12H768.7V347H750.516V272.2H768.7v28.453h6.6L792.609,272.2h18.48l-21.853,36.08L812.556,347Zm59.717,0c-20.826,0-35.2-14.52-35.2-38.867s14.374-38.867,35.2-38.867,35.2,14.52,35.2,38.867S874.473,348.467,853.646,348.467Zm0-62.04c-9.68,0-16.72,8.653-16.72,23.173s7.04,23.173,16.72,23.173,16.72-8.653,16.72-23.173S863.326,286.427,853.646,286.427Zm40.414,44.88h9.973c7.334-13.054,9.387-25.667,9.387-50.894V272.2h51.333v59.107h11.88l-2.933,34.32H958.447V347h-46.2v18.627H896.993Zm52.507-43.414H930.873c0,16.574-1.466,32.12-7.48,43.414h23.174ZM173.013,494H113.467V391.333h59.546l-2.933,17.014H132.24V432.4h33.44v17.013H132.24v27.574h40.773Zm63.9,1.467-18.774-32.12h-6.453V494H193.5V419.2h18.187v28.453h6.6l17.3-28.453h18.48l-21.854,36.08L255.537,494ZM303.358,450v-4.987c0-7.186-3.667-11.586-12.614-11.586a59.452,59.452,0,0,0-19.946,3.96l-5.427-14.667a74.75,74.75,0,0,1,27.133-4.987c22.88,0,29.04,12.027,29.04,27.574V473.76c0,3.667,2.054,5.28,5.28,5.28h1.614v14.227c-2.2.88-6.747,1.466-10.414,1.466-6.6,0-10.853-2.493-13.2-7.186h-.586c-5.28,5.28-11.147,7.186-19.654,7.186-14.226,0-23.173-7.04-23.173-22.293,0-14.373,11.44-22.44,28.013-22.44Zm-15.84,29.773a21.29,21.29,0,0,0,15.84-7.333v-8.507H290.011c-6.747,0-10.56,3.374-10.56,8.214C279.451,477.133,283.118,479.773,287.518,479.773Zm46.854-44.88V419.2H399.2l-2.934,15.693H375.439V494H357.4V434.893Zm108.7,44.88c6.16,0,13.493-2.2,18.626-4.84l6.307,14.227a57.82,57.82,0,0,1-25.813,6.307c-22,0-37.107-14.374-37.107-38.867,0-24.64,13.2-38.867,34.32-38.867,19.507,0,31.68,12.174,31.68,33.147a98.551,98.551,0,0,1-.88,11.293h-46.64c1.909,11.44,9.829,17.6,19.509,17.6ZM423.86,448.24h30.654c0-8.507-5.28-14.813-14.814-14.813C431.927,433.427,425.62,438.56,423.86,448.24Zm81.553-22.587H506a27.732,27.732,0,0,1,19.36-7.92c21.12,0,30.654,16.28,30.654,38.867s-9.68,38.867-31.974,38.867a55.484,55.484,0,0,1-17.16-2.64v30.506l-18.186,2.934V419.2H502.48Zm16.133,54.12c9.827,0,15.987-8.506,15.987-23.173,0-13.64-5.574-23.173-16.574-23.173-4.986,0-9.973,2.786-14.08,7.333v35.053a28.449,28.449,0,0,0,14.667,3.96ZM620.854,494V449.12h-.44L590.2,494H573.628V419.2h18.186v44.88h.44l30.214-44.88h16.573V494Zm101.6-74.8V494h-18.19V463.347h-25.08V494H661V419.2h18.187v28.453h25.08V419.2Zm34.662,13.053h.44c6.014-6.306,13.2-10.853,22.88-10.853,18.334,0,31.68,12.173,31.68,37.107,0,24.346-15.253,36.96-36.08,36.96-24.2,0-35.2-18.04-35.2-47.96,0-45.907,13.2-55.88,37.4-58.08,11-1.027,16.867-2.347,24.494-5.427l5.866,14.08c-8.506,4.253-18.773,6.6-28.6,7.333-15.4,1.174-22.883,8.067-22.883,26.84Zm20.68,4.84c-6.306,0-13.786,3.227-18.773,10.707.147,21.413,5.867,31.973,17.013,31.973,9.827,0,17.6-6.893,17.6-21.266s-7.043-21.414-15.843-21.414Zm77.026,34.614,15.69-52.507h19.36l-28.747,89.173c-4.693,14.667-14.226,17.894-22.293,17.894a37.66,37.66,0,0,1-13.64-2.934l4.987-14.666a22.432,22.432,0,0,0,7.773,1.906c2.347,0,5.72-1.173,7.333-6.6L848.219,494h-5.134l-25.08-74.8h19.654l16.573,52.507Zm62.807-46.054h.587a27.732,27.732,0,0,1,19.36-7.92c21.12,0,30.653,16.28,30.653,38.867s-9.68,38.867-31.973,38.867a55.484,55.484,0,0,1-17.16-2.64v30.506l-18.187,2.934V419.2H914.7Zm16.134,54.12c9.826,0,15.986-8.506,15.986-23.173,0-13.64-5.573-23.173-16.573-23.173-4.987,0-9.973,2.786-14.08,7.333v35.053a28.448,28.448,0,0,0,14.664,3.96ZM985.841,419.2h48.109l-2.94,15.693h-26.98V494H985.841ZM1081.81,450v-4.987c0-7.186-3.67-11.586-12.62-11.586a59.442,59.442,0,0,0-19.94,3.96l-5.43-14.667a74.755,74.755,0,0,1,27.13-4.987c22.88,0,29.04,12.027,29.04,27.574V473.76c0,3.667,2.06,5.28,5.28,5.28h1.62v14.227c-2.2.88-6.75,1.466-10.42,1.466-6.6,0-10.85-2.493-13.2-7.186h-.58c-5.28,5.28-11.15,7.186-19.66,7.186-14.22,0-23.17-7.04-23.17-22.293,0-14.373,11.44-22.44,28.01-22.44Zm-15.84,29.773a21.3,21.3,0,0,0,15.84-7.333v-8.507h-13.35c-6.75,0-10.56,3.374-10.56,8.214,0,4.986,3.67,7.626,8.07,7.626Zm49.79.294,14.37-25.227-14.37-25.227,13.64-7.333,18.62,32.56L1129.4,487.4Zm29.77,0,14.37-25.227-14.37-25.227,13.64-7.333,18.63,32.56-18.63,32.56Z"/><path d="M178.5,822A77.5,77.5,0,1,1,101,899.5h0A77.5,77.5,0,0,1,178.5,822Z"/><path class="e" d="M185.268,861.057,110.2,936.129a76.846,76.846,0,0,1-9.106-32.964l63.149-63.149Z"/><path class="f" d="M244.5,899.164a51.669,51.669,0,0,0-45.984,75.227,77.142,77.142,0,0,0,20.15-8.59A29.865,29.865,0,0,1,244.5,920.955a29.211,29.211,0,0,1,8.15,1.136A76.319,76.319,0,0,0,256,900.443,51.816,51.816,0,0,0,244.5,899.164Z"/><path class="d" d="M152.554,883.03H131.133v-5.214h2.608V864.371h-2.608v-5.215h21.421v7.959H147.2v-2.744h-6.59v3.978h6.179v5.214H140.61v4.255h6.59v-2.745h5.355Zm13.79,0H154.535v-5.214h2.883V864.371h-2.883v-5.215h12.084v5.215h-2.333v4.116h2.471c3.158,0,5.081-1.51,5.081-4.116h-2.059v-5.215h11.4v5.215H178.29a9.576,9.576,0,0,1-4.943,7.958c.686,3.705,2.8,5.489,7.474,5.214l5.218-13.17h-1.787v-5.217h13.457l7.141,18.66h2.471v5.214H195.238v-5.214h1.922l-.55-1.784h-7.966l-.549,1.784h2.2v5.214H185.55c-8.24,0-9.318,0-12.341-1.235-2.883-1.234-5.08-4.253-6.179-8.095h-2.746v4.116h2.06Zm24.091-12.212h4.257l-2.2-5.764Zm-24.028,40.313H154.535v-5.283h2.808V892.369h-2.808V887.3h14.6c6.385,0,9.606,3.483,9.606,7.912a8.193,8.193,0,0,1-4.318,7.078c.43,2.587,2.679,3.56,5.465,3.56h4.46V892.37H180.57V887.3h14.354v5.069h-3.779v13.479h3.779v5.283H179.592c-6.951,0-10.243-2.7-11.86-7.765h-3.377v2.48h2.05v5.285Zm-2.053-12.94h3.217c2.153,0,3.926-.76,3.926-2.912,0-2.28-1.773-2.912-3.926-2.912h-3.217Zm-11.8,5.026H147.2v2.745h-6.59v-4.254h6.179v-5.215H140.61v-3.979h6.59v2.745h5.355V887.3H131.133v5.214h2.608V905.96h-2.608v5.214h21.421Zm50.806-44.061v7.821h5.081v-2.606h2.883v13.446h-2.471v5.213h12.084v-5.214h-2.609V864.371h2.884v2.606h5.217v-7.821Zm10.54,33.213h2.906v8.614L207.2,887.3H196.935v5.066h2.814v13.479h-2.814v5.283h12.411v-5.283h-2.8v-8.29l9.4,13.574h7.663v-18.76h2.6V887.3h-12.3v5.068ZM153.147,932.05c0,3.558-2.6,7.117-7.653,7.117H131.133v-5.175h2.482V920.513h-2.482V915.23h12.675c4.89,0,7.289,3.126,7.289,6.47a6.38,6.38,0,0,1-1.836,4.421A6.232,6.232,0,0,1,153.147,932.05Zm-12.518-7.44h1.836a2.059,2.059,0,1,0,0-4.1h-1.836Zm5.719,7.117a2.418,2.418,0,0,0-2.461-2.374h-3.258v4.638h3.13a2.434,2.434,0,0,0,2.59-2.264Zm68.232-6.42H226.1v8.921c-1.621,3.019-5.288,5.372-10.791,5.372a12.352,12.352,0,0,1-7.228-1.94,11.853,11.853,0,0,1-17.484-6.255h-3.089v2.587h2.119v5.176H177.754v-5.176h2.954V920.513h-4.25v8.95c0,6.684-4.748,10.351-10.9,10.351-5.395,0-10.9-3.233-10.9-10.351v-8.95h-2.267V915.23h12.088v5.283h-2.592v9.274a4.029,4.029,0,0,0,3.85,4.2h.144a3.809,3.809,0,0,0,3.8-3.816,3.863,3.863,0,0,0-.021-.388v-9.275h-3.131v-5.282H192c6.385,0,9.6,3.482,9.6,7.912a8.191,8.191,0,0,1-4.357,7.1c1.224,3.585,4.944,4.292,6.731,2.565a12.5,12.5,0,0,1-1.188-5.608c0-6.4,3.979-12.4,12.193-12.4a14.278,14.278,0,0,1,9.886,3.254v5.593h-6.044l-.027-2.5a6.2,6.2,0,0,0-3.384-.842c-3.576,0-5.721,2.542-5.721,6.784,0,3.881,2.268,6.772,5.721,6.879a6.5,6.5,0,0,0,4.64-1.6v-2h-5.475v-5.07Zm-20.012-1.882c0-2.28-1.774-2.912-3.927-2.912h-3.136v5.824h3.135C192.794,926.337,194.568,925.575,194.568,923.425Z"/></g></svg>