<svg xmlns="http://www.w3.org/2000/svg" viewBox="0 0 40 40"><defs><style>.a{fill:#c8a563;}.b{fill:#121a3a;opacity:0.5;}.c{fill:#ffd400;}.d,.e{fill:none;stroke-linecap:square;stroke-linejoin:round;stroke-width:2px;}.d{stroke:#fff;}.e{stroke:#c8a563;}</style></defs><path class="a" d="M5.828,0h8.344c2.1,0,3.559.406,4.491,1.337S20,3.726,20,5.828v8.344c0,2.1-.406,3.559-1.337,4.491S16.274,20,14.172,20H5.828c-2.092,0-3.545-.4-4.477-1.323S0,16.285,0,14.172V5.828c0-2.28.477-3.8,1.585-4.716A6.514,6.514,0,0,1,5.828,0Z"/><path class="b" d="M5.469,2h9.062a3.628,3.628,0,0,1,2.673.8A3.628,3.628,0,0,1,18,5.469v9.062a3.746,3.746,0,0,1-.728,2.6A3.516,3.516,0,0,1,14.531,18H5.469a3.328,3.328,0,0,1-2.86-1.011A4,4,0,0,1,2,14.531V5.469A3.628,3.628,0,0,1,2.8,2.8,3.628,3.628,0,0,1,5.469,2Z"/><path class="c" d="M25.828,0h8.344c2.087,0,3.539.4,4.471,1.317S40,3.711,40,5.828v8.344c0,2.1-.406,3.559-1.337,4.491S36.274,20,34.172,20H25.828c-2.1,0-3.559-.406-4.491-1.337S20,16.274,20,14.172V5.828c0-2.254.466-3.766,1.547-4.684A6.443,6.443,0,0,1,25.828,0Z"/><path class="b" d="M25.469,2h9.062a3.755,3.755,0,0,1,2.595.722A3.506,3.506,0,0,1,38,5.469v9.062a4.018,4.018,0,0,1-.6,2.442A3.313,3.313,0,0,1,34.531,18H25.469a3.628,3.628,0,0,1-2.673-.8,3.628,3.628,0,0,1-.8-2.673V5.469a3.757,3.757,0,0,1,.724-2.6A3.511,3.511,0,0,1,25.469,2Z"/><path class="d" d="M25.457,10.792,28.4,13.875l6.145-7.75"/><path class="a" d="M5.828,20h8.344c2.1,0,3.559.406,4.491,1.337S20,23.726,20,25.828v8.344c0,2.028-.377,3.455-1.24,4.39-.926,1-2.411,1.438-4.588,1.438H5.828c-2.1,0-3.559-.406-4.491-1.337S0,36.274,0,34.172V25.828c0-2.1.406-3.559,1.337-4.491S3.726,20,5.828,20Z"/><path class="b" d="M5.469,22h9.062a3.628,3.628,0,0,1,2.673.8,3.628,3.628,0,0,1,.8,2.673v9.062a3.825,3.825,0,0,1-.685,2.553A3.448,3.448,0,0,1,14.531,38H5.469a3.428,3.428,0,0,1-2.8-.933A3.864,3.864,0,0,1,2,34.531V25.469a3.669,3.669,0,0,1,.771-2.648A3.587,3.587,0,0,1,5.469,22Z"/><path class="e" d="M5.457,30.792,8.4,33.875l6.145-7.75"/></svg>