<svg width="520" height="521" viewBox="0 0 520 521" fill="none" xmlns="http://www.w3.org/2000/svg">
<path d="M520 260C520 116.478 403.522 0 260 0C116.478 0 0 116.478 0 260C0 389.866 95.0566 497.508 219.567 516.787V334.974H153.162V260H219.567V202.698C219.567 137.631 258.126 101.483 317.569 101.483C345.953 101.483 375.407 106.838 375.407 106.838V170.299H342.739C310.34 170.299 300.165 190.649 300.165 210.999V259.732H372.461L360.947 334.706H300.165V516.519C424.943 497.508 520 389.866 520 260Z" fill="#1877F2"/>
<path d="M361.215 335.242L372.729 260.268H300.432V211.534C300.432 190.916 310.875 170.834 343.007 170.834H375.674V107.106C375.674 107.106 346.22 101.751 317.837 101.751C258.393 101.751 219.835 137.899 219.835 202.966V260.268H153.429V335.242H219.835V517.054C232.956 519.197 246.612 520.268 260.268 520.268C273.924 520.268 287.58 519.197 300.7 517.054V335.242H361.215Z" fill="white"/>
</svg>
