<svg xmlns="http://www.w3.org/2000/svg" viewBox="0 0 120 120"><defs><style>.a{fill:#00b4ff;}.b{fill:#00b400;fill-rule:evenodd;}.c{fill:#fff;}</style></defs><path d="M60,0h0a60,60,0,0,1,60,60h0a60,60,0,0,1-60,60h0A60,60,0,0,1,0,60H0A60,60,0,0,1,60,0Z"/><path class="a" d="M65.24,30.24,7.12,88.36A59.4936,59.4936,0,0,1,.07,62.84L48.96,13.95Z"/><path class="b" d="M111.09,59.74a40.0014,40.0014,0,0,0-35.6,58.24,59.716,59.716,0,0,0,15.6-6.65,23.1209,23.1209,0,0,1,20-34.72,22.6373,22.6373,0,0,1,6.31.88,59.0762,59.0762,0,0,0,2.59-16.76A40.1223,40.1223,0,0,0,111.09,59.74Z"/><path class="c" d="M39.9125,47.246H23.3281V43.2092h2.0194V32.8H23.3281V28.7627H39.9125v6.1615H35.7667V32.8H30.6641V35.88h4.7841v4.0368H30.6641v3.2934h5.1026V41.0858h4.1458Zm10.6761,0H41.446V43.2092h2.2322V32.8H41.446V28.7627h9.3554V32.8H48.9948v3.1864h1.9137c2.4449,0,3.933-1.1686,3.933-3.1864H53.2463V28.7627H62.07V32.8H59.837A7.4139,7.4139,0,0,1,56.01,38.9611c.5313,2.8681,2.1719,4.2494,5.7864,4.0368l4.04-10.197H64.4538V28.7627H74.8717L80.4,43.2092h1.9136V47.246H72.958V43.2092h1.4881l-.4255-1.3813H67.8541l-.4255,1.3813h1.7008V47.246h-3.672c-6.3792,0-7.2142,0-9.5534-.9561-2.2321-.956-3.933-3.2933-4.7841-6.2671H48.9935v3.1864h1.5951Zm18.6506-9.4549h3.296L70.8343,33.329Zm-18.6024,31.21H41.446v-4.09h2.1733V54.4759H41.446V50.5514H52.75c4.9434,0,7.4364,2.697,7.4364,6.1254a6.3422,6.3422,0,0,1-3.3428,5.48c.3332,2.0031,2.0742,2.7559,4.2314,2.7559h3.4526V54.4759H61.602V50.5514H72.7145v3.9245H69.7892v10.435h2.9253v4.09h-11.87c-5.3809,0-7.93-2.0873-9.1814-6.0118H49.0484v1.92h1.5871v4.0917ZM49.0484,58.9834h2.49c1.6674,0,3.04-.5883,3.04-2.2544,0-1.765-1.373-2.2544-3.04-2.2544h-2.49Zm-9.1359,3.8911H35.7667v2.1247H30.6641V61.7058h4.7841V57.669H30.6641V54.5882h5.1026v2.1247h4.1458V50.5514H23.3281v4.0368h2.0194v10.41H23.3281v4.0368H39.9125ZM79.2463,28.7627v6.0546h3.9329V32.8h2.2322v10.41H83.4977V47.246h9.3554V43.2092H90.8337V32.8h2.2322v2.0178h4.04V28.7627Zm8.163,25.7132h2.2495v6.6683L82.2157,50.5514H74.2721v3.9232h2.1786V64.91H74.2721V69H83.88V64.91H81.7152V58.4913L88.991,69h5.9323V54.4759h2.0126V50.5527H87.4106v3.9232ZM40.3715,85.1967c0,2.7545-2.0127,5.51-5.9243,5.51H23.3281V86.7H25.25V76.2646H23.3281v-4.09h9.8131c3.7857,0,5.6432,2.42,5.6432,5.0089a4.939,4.939,0,0,1-1.4212,3.4231A4.8235,4.8235,0,0,1,40.3715,85.1967Zm-9.6913-5.76h1.4212a1.5939,1.5939,0,1,0,0-3.1717H30.68Zm4.4281,5.51a1.8723,1.8723,0,0,0-1.9216-1.8373H30.68V86.7h2.4235A1.8854,1.8854,0,0,0,35.1083,84.9467Zm52.8242-4.97H96.85v6.9063c-1.2539,2.3373-4.0936,4.1585-8.3544,4.1585A9.5575,9.5575,0,0,1,82.9,89.54a9.1749,9.1749,0,0,1-13.5359-4.8431H66.9723V86.7h1.6406v4.0075H59.4221V86.7h2.287V76.2646H58.4185v6.9291c0,5.1747-3.6761,8.0134-8.4387,8.0134-4.1766,0-8.4374-2.5031-8.4374-8.0134V76.2646H39.788v-4.09h9.3581v4.09H47.14v7.18A3.12,3.12,0,0,0,50.2313,86.7a2.947,2.947,0,0,0,2.924-3.2546v-7.18H50.7318v-4.09H70.4489c4.9433,0,7.4364,2.6957,7.4364,6.1254a6.3411,6.3411,0,0,1-3.3736,5.4957c.9474,2.7759,3.8273,3.3228,5.211,1.987a9.6723,9.6723,0,0,1-.9194-4.3417c0-4.9528,3.0805-9.5994,9.44-9.5994a11.0541,11.0541,0,0,1,7.6532,2.5192v4.33H91.2178l-.02-1.9309a4.8034,4.8034,0,0,0-2.62-.6525c-2.7687,0-4.4294,1.9683-4.4294,5.2523,0,3.0046,1.7557,5.2429,4.4294,5.3258a5.0283,5.0283,0,0,0,3.5918-1.2355V83.9023H87.93V79.9765ZM72.4388,78.519c0-1.765-1.373-2.2544-3.04-2.2544H66.9709v4.5088h2.4275C71.0658,80.7734,72.4388,80.1838,72.4388,78.519Z"/></svg>