<svg xmlns="http://www.w3.org/2000/svg" width="780" height="520" viewBox="0 0 780 520">
  <defs>
    <style>
      .a {
        fill: #fc0;
      }

      .b {
        fill: #0064cd;
      }

      .c {
        fill: #008c46;
      }

      .d, .h {
        fill: #a2acb0;
      }

      .d, .e, .f, .g, .i, .j, .m {
        fill-rule: evenodd;
      }

      .e, .k {
        fill: #fefefe;
      }

      .f {
        fill: #7f8b8f;
      }

      .g {
        fill: #dc000a;
      }

      .i {
        fill: #bac3c7;
      }

      .j {
        fill: #ff502d;
      }

      .l, .m {
        fill: #d5dee2;
      }
    </style>
  </defs>
  <rect class="a" width="780" height="260"/>
  <rect class="b" y="260" width="780" height="260"/>
  <rect class="c" y="130" width="780" height="260"/>
  <path d="M419.263,338.51V321.18a3.492,3.492,0,0,1-3-3.457v-6.959a3.491,3.491,0,0,1,3.491-3.491h5.163V260.251s.47-1.743.559-1.882l25.7-40.071V197.319a3.492,3.492,0,0,1-3.4-3.491V179.441a3.492,3.492,0,0,1,3.491-3.492h63.217a3.493,3.493,0,0,1,3.492,3.492v14.387a3.491,3.491,0,0,1-3.3,3.486v20.5l42.25,39.738a3.481,3.481,0,0,1,1.282,2.7v47.022h4.253a3.491,3.491,0,0,1,3.491,3.491v6.959a3.493,3.493,0,0,1-3,3.458V338.51A3.493,3.493,0,0,1,559.457,342h-136.7a3.492,3.492,0,0,1-3.492-3.492"/>
  <path class="d" d="M526.505,338.51h3.464a12.139,12.139,0,0,1,24.278,0h5.21V319.469H526.505Z"/>
  <path class="e" d="M524.759,319.455V338.51H507.586a12.172,12.172,0,0,0-12.139-12.14H452.066a12.172,12.172,0,0,0-12.139,12.14H422.755V319.455Z"/>
  <path class="e" d="M454.666,219.308V195.574h38.182v23.734l26.258,40.943v48.781H500.512V267.067a26.867,26.867,0,0,0-18.638-25.454l.18-1.306a1.742,1.742,0,0,0-1.194-1.984,23.453,23.453,0,0,0-14.206,0,1.743,1.743,0,0,0-1.207,1.895l.192,1.394a26.9,26.9,0,0,0-10.786,6.595A26.627,26.627,0,0,0,447,267.067v41.965h-18.6V260.251Z"/>
  <path class="e" d="M480.76,249.687l.876-6.348a25.105,25.105,0,0,1,17.129,23.728v41.965h-6.089V267.255a18.986,18.986,0,0,0-11.916-17.568m-32.012,59.345V267.067a25.105,25.105,0,0,1,17.129-23.728l.876,6.349a18.983,18.983,0,0,0-11.916,17.567v13.369a4.013,4.013,0,0,0-1.483,1.142,4.162,4.162,0,0,0-.881,2.155,1.742,1.742,0,0,0,2.364,1.9V287.5a5.443,5.443,0,0,0-4.523,2.959,8.9,8.9,0,0,0-.978,4.491,13.821,13.821,0,0,0,1.176,5.1,17,17,0,0,0,4.325,5.911v3.073Z"/>
  <path class="d" d="M474.987,263.863q-.129.572-.215,1.159.179.2.376.414l.148.159c-.116-.569-.229-1.15-.309-1.732m14.2,6.177v-2.785a15.289,15.289,0,0,0-2.169-7.87,15.633,15.633,0,0,0-5.118-5.217,15.652,15.652,0,0,0-3.8,3.343,4.214,4.214,0,0,1,.709-.125c1.325-.122,2.863.406,2.6,2.041a1.738,1.738,0,0,1-.961,1.288c-.425.552,2.194,2.323,2.79,3.356a1.739,1.739,0,0,1,2.921-1.366c1.986,1.852,2.941,3.681,2.664,6.087-.224,1.945-1.33,4.142-3.454,6.985.269-.223.532-.427.8-.632A6.429,6.429,0,0,0,489.184,270.04Zm-23.051,6.9c-.536.351-1.075.607-.73,1.422a.377.377,0,0,0,.115.175c.4.225.818.428,1.222.649A12.263,12.263,0,0,0,466.133,276.939Zm-9.549,3.283V267.255a17.222,17.222,0,0,1,17.173-17.172h0a17.03,17.03,0,0,1,6.217,1.171,19.148,19.148,0,0,0-6.183,6.345,18.907,18.907,0,0,0-1.2,2.381,16.578,16.578,0,0,0-.126-3.561c-.374-2.3-1.486-4.344-4.465-3.912a1.746,1.746,0,0,0-.68,3.256c.574.321-.614,3.222-.8,3.99a9.668,9.668,0,0,0,.634,7.378,7.028,7.028,0,0,0-1.478-.275,6.324,6.324,0,0,0-6.057,3.192,1.743,1.743,0,0,0,1.669,2.63,3.579,3.579,0,0,1,2.942,1.145,6.124,6.124,0,0,0-3.333,1.494,5.894,5.894,0,0,0-1.833,3.651,7.981,7.981,0,0,0-.036,1.745,5.375,5.375,0,0,0-1.66-.462l-.059-.007A5.389,5.389,0,0,0,456.584,280.222Zm0,12.227v-1.815a10.493,10.493,0,0,0,2.234,2.667A15.023,15.023,0,0,1,456.584,292.449Zm0,16.583v-1.7a20.024,20.024,0,0,0,2.953,1.7Z"/>
  <path class="f" d="M473.362,263.156a17.305,17.305,0,0,1,8.535-11.008,17.218,17.218,0,0,1,9.033,15.107v1.131a1.666,1.666,0,0,0-1.739,1.576,6.44,6.44,0,0,1-3.032,5.183c-.264.205-.527.409-.8.632,2.124-2.843,3.23-5.04,3.454-6.985.277-2.406-.678-4.235-2.664-6.087a1.739,1.739,0,0,0-2.921,1.366c-.6-1.033-3.215-2.8-2.79-3.356a1.738,1.738,0,0,0,.961-1.288c.266-1.635-1.272-2.163-2.6-2.041a3.975,3.975,0,0,0-2.707,1.4c-1.7,1.975-1.277,4.488-.8,6.813l-.148-.159a13.815,13.815,0,0,1-1.786-2.28"/>
  <path class="g" d="M465.076,309.032c-15.784-3.284-16.936-19.756-9.826-19.81-2.358,1.239-1.051,4.487,1.38,5.162,3.977,1.1,6.48,3.007,3.993,5.942,5.435-.652,4.333-5.56,2.227-6.475-4.319-1.877-5.617-4.917-5.708-7.356-.079-2.115-1.372-3.307-2.949-2.294.246-2.511,3.2-2.753,4.733-1.515,2.157,1.738,1.855,4.6,5.955,4.523-4.88-2.894-6.262-11.477.3-11.726a2.651,2.651,0,0,0-.513,4.573c1.462.82,3.646,1.546,3.363,4.128,1.959-3.932-.861-13.866-6.925-13.238,2.1-3.684,7.245-2.711,8.664.485.826-4.717-3.1-4.971-1.564-11.269.413-1.689,2.069-4.739-.036-5.92,2.933-.477,2.732,3.768,2.663,5.321-.321,7.241,6.609,7.093,5.5,13.506,2.885-1.343.623-6.6.3-10.15-.2-2.159.925-4.119,3.061-3.772-.661.325-2.321,2.023.314,3.956,2.315,1.7,3.014,4.011,1.288,6.206,1.953.731,4.9-1.509,3.682-5.332,3.124,2.921,3.029,5.575-1.532,11.449-4.7,6.572.981,9.223,3.325,7.508-2.982-.929-2.156-4.17-.614-5.538,1.9-1.688,4.375-2.653,4.782-7.284v38.92Z"/>
  <path class="f" d="M452.067,328.117h43.38A10.424,10.424,0,0,1,505.84,338.51H441.673a10.424,10.424,0,0,1,10.394-10.393m90.041,10.393H531.715a10.393,10.393,0,0,1,20.786,0Z"/>
  <rect class="h" x="494.594" y="195.574" width="16.589" height="22.57"/>
  <path class="i" d="M554.714,260.251H520.852v48.782h8.758a1.624,1.624,0,0,1,.222-.014h24.882Z"/>
  <path class="j" d="M485.517,299.742c-3.834-1-4.873,3.183-2.591,5.094,1.875,1.569,2.781,2.99,2.406,4.2H469.477c1.1-2.338.89-6.215-4.96-5.251,3.38-4.641,6.765.436,10.147-3.021-7.24.715-7.693-7.09-3.993-10.638-.613,4.706,3.96,7.913,9.456,7.32-4.749-2.261-5.586-4.734-4.97-7.145.677-2.653.583-5.969-2.924-4.464,3.014-4.035,10.95-.045,9.649,5.574,3.217.49,5.728-2.079,2.784-4.679,4.577-.391,5.875,5.146,5.8,7.857v9.821c-.56-2.323-2.264-2.189-3.966-1.931-1.816.275-3-1.609-.978-2.733"/>
  <path class="e" d="M467.172,239.987a21.641,21.641,0,0,1,13.169,0l-1.257,9.118a18.835,18.835,0,0,0-10.654,0Z"/>
  <path class="f" d="M520.852,265.153h33.862v3.6H520.852Zm0,4.9h33.862v3.283H520.852Zm0,4.9h33.862v2.967H520.852Zm0,4.9h33.862v2.651H520.852Zm0,4.9h33.862v2.335H520.852Zm0,4.9h33.862v2.02H520.852Zm0,4.9h33.862v1.7H520.852Zm0,4.9h33.862v1.388H520.852Zm0,4.9h33.862v1.073H520.852Zm-26.258-88.413h16.589v.517H494.594Zm0-2.308h16.589v.669H494.594Zm0-2.308h16.589v.821H494.594Zm0-2.308h16.589V210H494.594Zm0-2.309h16.589v1.127H494.594Zm0-2.307h16.589v1.278H494.594Zm0-2.308h16.589v1.43H494.594Zm0-2.308h16.589v1.583H494.594Zm0-2.308h16.589v1.735H494.594Zm0-2.308h16.589v1.887H494.594Zm26.258,65.072h33.862v3.915H520.852Z"/>
  <rect class="h" x="529.832" y="310.765" width="32.627" height="6.959"/>
  <rect class="k" x="419.753" y="310.765" width="108.329" height="6.959"/>
  <rect class="l" x="497.999" y="179.441" width="16.48" height="14.387"/>
  <rect class="k" x="451.261" y="179.441" width="44.991" height="14.387"/>
  <polygon class="m" points="511.801 219.89 552.857 258.506 529.713 258.506 520.852 258.506 520.828 258.506 520.056 258.506 495.29 219.89 511.801 219.89"/>
  <path d="M271.391,265.4h22.345v-8.229c-1.8.272-4.6.383-6.283-1.209a7.106,7.106,0,0,1-8.7,0,7.4,7.4,0,0,1-7.364.756Zm39.095,0V252.272h-2.64V265.4Zm-73.423,0V252.272h-4.556c-5.562,0-9.062-5.15-10.451-9.979l-7.419-.06a5.379,5.379,0,0,1-4.663-2.674,9.058,9.058,0,0,1-1.266-4.682V217.853h-8.6c-8.733,0-8.733-13.266,0-13.266h16.259c4.461,0,6.393,3.781,6.408,7.768l.055,14.639c1.686-4.024,4.978-7.769,9.675-7.769h4.556v-9.982a3.492,3.492,0,0,1,3.492-3.491H267.9a3.491,3.491,0,0,1,3.492,3.491v5.39c2.1-.736,5.652-.42,7.126.9a7.885,7.885,0,0,1,8.936,0,7.516,7.516,0,0,1,8.7,0c3.887-2.742,10.042-1.625,11.381,3.695h2.954v-9.982a3.492,3.492,0,0,1,3.492-3.491h27.344a3.492,3.492,0,0,1,3.492,3.491v9.982H348.6c5.529,0,9.02,5.093,10.425,9.89h6.993a6.646,6.646,0,0,1,6.632,6.634v17.9h8.5a6.633,6.633,0,1,1,0,13.266l-17.062-.149c-4.13-.033-5.564-3.8-5.586-7.342l-.1-15.233c-1.651,4.148-4.981,8.086-9.805,8.086h-3.788V265.4h11.851a3.492,3.492,0,0,1,3.492,3.492v58.463h4.069a3.491,3.491,0,0,1,3.491,3.491v7.66A3.492,3.492,0,0,1,364.226,342H221.4a3.493,3.493,0,0,1-3.492-3.492v-7.66a3.334,3.334,0,0,1,3.786-3.491,10.846,10.846,0,0,1,1.941-12.684v-.029a10.872,10.872,0,0,1,.007-15.329c.013-.037-.187-.229-.225-.274a10.869,10.869,0,0,1,.218-15.1c.025-.026-.185-.228-.218-.268A10.849,10.849,0,0,1,231.3,265.4Z"/>
  <path class="e" d="M330.894,299.626a7.353,7.353,0,1,1-7.352,7.352,7.353,7.353,0,0,1,7.352-7.352m0-.66a7.353,7.353,0,1,0-7.352-7.352A7.353,7.353,0,0,0,330.894,298.966Zm0-30.07a7.353,7.353,0,1,1-7.352,7.353A7.353,7.353,0,0,1,330.894,268.9ZM231.3,298.966a7.353,7.353,0,1,0-7.352-7.352A7.352,7.352,0,0,0,231.3,298.966Zm0,.66a7.353,7.353,0,1,1-7.352,7.352A7.352,7.352,0,0,1,231.3,299.626Zm0,30.069a7.353,7.353,0,1,0-7.352-7.352A7.352,7.352,0,0,0,231.3,329.7Zm25.959-.582h54.973V315.572H257.259c-4.047,0-7.329,2.709-7.329,6.77S253.212,329.113,257.259,329.113Zm0-28.9h54.973v13.54H257.259c-4.047,0-7.329-2.71-7.329-6.77S253.212,300.208,257.259,300.208Zm0-31.312h54.973v14.123H257.259c-4.047,0-7.329-2.71-7.329-6.77A7.341,7.341,0,0,1,257.259,268.9Zm0,29.488h54.973V284.843H257.259c-4.047,0-7.329,2.71-7.329,6.77S253.212,298.384,257.259,298.384ZM231.3,268.9a7.353,7.353,0,1,1-7.352,7.353A7.352,7.352,0,0,1,231.3,268.9Zm82.678-59.653h7.827V330.85h42.421v7.66H221.4v-7.66h19.157V209.243h7.827V330.85h65.6Zm-30.931,8.491h0a3.573,3.573,0,0,0-3.563,3.563v28.9a3.573,3.573,0,0,0,3.563,3.563h0a3.573,3.573,0,0,0,3.563-3.563V221.3A3.573,3.573,0,0,0,283.047,217.734Zm8.872,0h0a3.573,3.573,0,0,1,3.563,3.563v28.9a3.573,3.573,0,0,1-3.563,3.563h0a3.573,3.573,0,0,1-3.563-3.563V221.3A3.573,3.573,0,0,1,291.919,217.734Zm8.872,0h0a3.573,3.573,0,0,0-3.563,3.563v45.848h7.126V221.3A3.573,3.573,0,0,0,300.791,217.734Zm-26.616,0h0a3.573,3.573,0,0,1,3.563,3.563v28.9a3.573,3.573,0,0,1-3.563,3.563h0a3.573,3.573,0,0,1-3.563-3.563V221.3A3.573,3.573,0,0,1,274.175,217.734ZM330.894,329.7a7.353,7.353,0,1,0-7.352-7.352A7.353,7.353,0,0,0,330.894,329.7Zm36.427-71h14.045a.7.7,0,0,1,.7.7h0a.7.7,0,0,1-.7.7H367.321a.7.7,0,0,1-.7-.7h0A.7.7,0,0,1,367.321,258.694Zm-13.806-24.6h12.89a.7.7,0,0,1,.7.7h0a.7.7,0,0,1-.7.7h-12.89a.7.7,0,0,1-.7-.7h0A.7.7,0,0,1,353.515,234.092ZM200.234,209.683h16.42a.7.7,0,0,1,.7.7h0a.7.7,0,0,1-.7.7h-16.42a.7.7,0,0,1-.7-.7h0A.7.7,0,0,1,200.234,209.683Z"/>
  <path class="i" d="M323.551,286.242v-4.621a9.154,9.154,0,0,0,2.467,2.31,9.158,9.158,0,0,0-2.467,2.311m0,15.364v-4.62a9.154,9.154,0,0,0,2.467,2.31A9.138,9.138,0,0,0,323.551,301.606Zm0,15.365v-4.627a9.2,9.2,0,0,0,2.47,2.314A9.161,9.161,0,0,0,323.551,316.971Zm1.256,12.133h-1.256v-1.389A9.094,9.094,0,0,0,324.807,329.1Zm-73.258,0h-1.421v-1.466A5,5,0,0,0,251.549,329.1Zm-1.421-12.17v-4.547a8.632,8.632,0,0,0,3.072,2.273A8.635,8.635,0,0,0,250.128,316.934Zm0-15.365v-4.546A8.649,8.649,0,0,0,253.2,299.3,8.649,8.649,0,0,0,250.128,301.569Zm0-15.365v-4.546a8.644,8.644,0,0,0,3.072,2.273A8.644,8.644,0,0,0,250.128,286.2Zm0-76.961H267.9v11.728h-6.106c-6.883,0-9.6,9.18-9.6,14.778s2.721,14.777,9.6,14.777H267.9v16.619h-10.64a9.042,9.042,0,0,0-6.42,2.673,9.162,9.162,0,0,0-.711.8ZM239.2,287.091a9.155,9.155,0,0,0-3.02-3.16,9.187,9.187,0,0,0,3.02-3.168Zm0,15.373a10.155,10.155,0,0,0-3.02-3.168,9.169,9.169,0,0,0,3.02-3.168Zm0,15.356a9.146,9.146,0,0,0-3.02-3.16,9.137,9.137,0,0,0,3.02-3.16ZM237.388,329.1a13.177,13.177,0,0,0,1.809-2.247V329.1ZM236.66,268.9H239.2v2.83A9.141,9.141,0,0,0,236.66,268.9Zm86.891-59.653h17.771v11.728h-6.106c-6.883,0-9.6,9.18-9.6,14.778s2.721,14.777,9.6,14.777h6.106V267.15H330.894a7.942,7.942,0,0,0-7.343,3.727Zm33.114,104.54V300.164H336.923c.176.156.344.315.5.487a9.09,9.09,0,0,1-.1,12.761q-.192.192-.395.371Zm0-15.365V284.8H336.923q.209.185.4.381a9.089,9.089,0,0,1,.1,12.76,6.529,6.529,0,0,1-.492.478Zm0-15.365V268.9H336.254a9.233,9.233,0,0,1,1.074.919,9.091,9.091,0,0,1,0,12.864l0,0c-.128.128-.259.251-.393.371Zm0,32.476v13.584H336.972c.122-.109.24-.222.356-.337l.1-.107a9.089,9.089,0,0,0-.1-12.76c-.131-.13-.265-.257-.4-.38ZM348.6,222.716c3.3,0,6.121,3.369,7.286,8.145h-4.637c-6.421,0-6.432,9.774,0,9.774h4.637c-1.165,4.776-3.988,8.145-7.286,8.145-4.339,0-7.857-5.834-7.857-13.031S344.263,222.716,348.6,222.716Z"/>
  <path class="l" d="M200.11,214.361c-4.132,0-4.132-6.282,0-6.282h16.259c2.224,0,2.921,2.095,2.93,4.276l.076,20.252h3.742a23.145,23.145,0,0,0-.009,6.216l-8.773-.068c-1.726-.014-2.135-2.15-2.135-3.878V214.361Zm135.106,8.356c-4.34,0-7.858,5.834-7.858,13.032s3.518,13.031,7.858,13.031h8.792C340.392,245.8,339,240.223,339,235.749s1.392-10.052,5.009-13.032ZM306.1,248.78h6.132V222.717H306.1Zm-44.307-26.063c-4.34,0-7.858,5.834-7.858,13.032s3.518,13.031,7.858,13.031h7.073V222.717Zm-29.286,0c-10.313,0-10.313,26.063,0,26.063h6.3V222.717Zm118.744,16.172a3.141,3.141,0,1,1,0-6.282h14.768a3.143,3.143,0,0,1,3.141,3.142v21.387h11.995a3.141,3.141,0,1,1,0,6.282l-17.035-.135c-1.724-.014-2.124-2.149-2.135-3.877l-.135-20.517Z"/>
  <path class="d" d="M336.935,283.053c.134-.12.265-.243.393-.371l0,0a9.183,9.183,0,0,0,1.352-1.723h17.988v2.1Zm19.73-2.83H339.078a9.065,9.065,0,0,0,.661-1.836h16.926Zm-19.731,18.195c.135-.12.266-.243.394-.371l.1-.107a9.164,9.164,0,0,0,1.251-1.62h17.988v2.1Zm19.731-2.831H339.078a9.022,9.022,0,0,0,.661-1.836h16.926Zm0-3.378H339.974c.012-.2.019-.395.019-.6,0-.145,0-.289-.01-.432h16.682Zm-19.732,21.574q.2-.179.395-.371a9.179,9.179,0,0,0,1.354-1.727h17.983v2.1Zm19.732-2.832H339.082a9.077,9.077,0,0,0,.659-1.836h16.924Zm0-3.377H339.974c.012-.2.019-.4.019-.6,0-.145,0-.289-.01-.432h16.682Zm-19.693,21.539c.122-.109.24-.222.356-.337l.1-.107a9.157,9.157,0,0,0,1.251-1.619h17.988v2.063Zm19.693-2.8H339.078a9.022,9.022,0,0,0,.661-1.836h16.926Zm0-3.377H339.974c.012-.2.019-.4.019-.6,0-.145,0-.289-.01-.432h16.682Zm0-46.094H339.974c.012-.2.019-.4.019-.6,0-.145,0-.289-.01-.432h16.682Z"/>
  <path class="m" d="M251.863,327.05a7.66,7.66,0,0,0,5.4,2.063h54.973V327.05Zm-.645-.734h61.014V324.48H250.278A6.556,6.556,0,0,0,251.218,326.316Zm-1.263-18.742c-.016-.2-.025-.394-.025-.6,0-.145,0-.29.014-.431h62.288v1.027Zm1.263,3.378a6.28,6.28,0,0,1-.956-1.836h61.97v1.836Zm6.041,2.8a7.656,7.656,0,0,1-5.4-2.063h60.369v2.063Zm-7.3-36.9c-.016-.2-.025-.394-.025-.6,0-.145,0-.289.013-.432h62.289v1.027Zm1.263,3.378a6.285,6.285,0,0,1-.956-1.837h61.97v1.836Zm6.041,2.8a7.656,7.656,0,0,1-5.4-2.063h60.369v2.063Zm-5.4,13.3a7.652,7.652,0,0,0,5.4,2.064h54.973V296.32Zm-1.6-2.569a6.3,6.3,0,0,0,.956,1.837h61.014v-1.837Zm-.318-2.569c-.009.142-.014.286-.014.431,0,.2.009.4.025.6h62.277v-1.027Zm62.288,31.757H249.954q-.023-.3-.023-.6c0-.145,0-.289.013-.432h62.288Z"/>
  <path class="i" d="M227.61,246.135a6.029,6.029,0,0,0,4.9,2.645h6.3v-2.645Zm-1.434-2.569a12.519,12.519,0,0,0,.931,1.836h11.7v-1.836Zm86.056,1.836v-1.836H306.1V245.4Zm0,3.378v-2.645H306.1v2.645Zm-55.185-2.645a6.17,6.17,0,0,0,4.746,2.645h7.073v-2.645Zm-1.542-2.569a13.077,13.077,0,0,0,1.009,1.836h12.352v-1.836Zm50.6-1.542h6.132V241H306.1Zm-51.2,0h13.961V241H254.6Q254.739,241.523,254.905,242.024Zm75.565,4.111a6.168,6.168,0,0,0,4.746,2.645h8.792a11.116,11.116,0,0,1-2.3-2.645Zm-1.542-2.569a12.876,12.876,0,0,0,1.009,1.836h11.342a15.918,15.918,0,0,1-.858-1.836Zm-.6-1.542h11.565c-.1-.34-.192-.684-.275-1.028h-11.6C328.114,241.347,328.217,241.69,328.327,242.024ZM225.36,241q.125.523.274,1.028h13.175V241Z"/>
  <path class="l" d="M277.738,247.585v1.485a7.125,7.125,0,0,1-3.632.9,7.427,7.427,0,0,1-3.494-.961v-1.474a6.016,6.016,0,0,0,3.526,1.276,5.484,5.484,0,0,0,3.594-1.228Zm0-2.19v1.385a8.471,8.471,0,0,1-7.126-.023v-1.381a6.822,6.822,0,0,0,3.467,1.018A6.712,6.712,0,0,0,277.738,245.4Zm0-2.17v1.289a10.678,10.678,0,0,1-3.737.625,10.072,10.072,0,0,1-3.389-.622v-1.295a8.351,8.351,0,0,0,3.4.758A8.957,8.957,0,0,0,277.738,243.225Zm0-2.167v1.22a15.357,15.357,0,0,1-3.792.447,13.564,13.564,0,0,1-3.334-.433v-1.226a11.76,11.76,0,0,0,3.345.5A13.664,13.664,0,0,0,277.738,241.058Zm0-2.162v1.175a29.869,29.869,0,0,1-3.846.24,24.377,24.377,0,0,1-3.28-.228v-1.178a22.478,22.478,0,0,0,3.285.247A28.339,28.339,0,0,0,277.738,238.9Zm0-2.161V237.9h-7.126v-1.164Zm8.872,10.85v1.485a7.128,7.128,0,0,1-3.632.9,7.427,7.427,0,0,1-3.494-.961v-1.474a6.018,6.018,0,0,0,3.526,1.276,5.484,5.484,0,0,0,3.594-1.228Zm0-2.19v1.385a8.471,8.471,0,0,1-7.126-.023v-1.381a6.822,6.822,0,0,0,3.467,1.018A6.712,6.712,0,0,0,286.61,245.4Zm0-2.17v1.289a10.678,10.678,0,0,1-3.737.625,10.072,10.072,0,0,1-3.389-.622v-1.295a8.351,8.351,0,0,0,3.405.758A8.957,8.957,0,0,0,286.61,243.225Zm0-2.167v1.22a15.357,15.357,0,0,1-3.792.447,13.564,13.564,0,0,1-3.334-.433v-1.226a11.76,11.76,0,0,0,3.345.5A13.664,13.664,0,0,0,286.61,241.058Zm0-2.162v1.175a29.869,29.869,0,0,1-3.846.24,24.377,24.377,0,0,1-3.28-.228v-1.178a22.478,22.478,0,0,0,3.285.247A28.339,28.339,0,0,0,286.61,238.9Zm0-2.161V237.9h-7.126v-1.164Zm-7.126,12.958a6.715,6.715,0,0,0,.774.6,5.252,5.252,0,0,0,3.051.929,4.75,4.75,0,0,0,2.676-.907,4.819,4.819,0,0,0,.625-.548v.433a3.528,3.528,0,0,1-.267,1.349,6.321,6.321,0,0,1-3,.832,6.744,6.744,0,0,1-3.656-.99,3.512,3.512,0,0,1-.207-1.191Zm16-2.108v1.485a7.125,7.125,0,0,1-3.632.9,7.427,7.427,0,0,1-3.494-.961v-1.474a6.016,6.016,0,0,0,3.526,1.276,5.482,5.482,0,0,0,3.594-1.228Zm0-2.19v1.385a8.471,8.471,0,0,1-7.126-.023v-1.381a6.822,6.822,0,0,0,3.467,1.018A6.71,6.71,0,0,0,295.482,245.4Zm0-2.17v1.289a10.678,10.678,0,0,1-3.737.625,10.072,10.072,0,0,1-3.389-.622v-1.295a8.351,8.351,0,0,0,3.405.758A8.957,8.957,0,0,0,295.482,243.225Zm0-2.167v1.22a15.357,15.357,0,0,1-3.792.447,13.564,13.564,0,0,1-3.334-.433v-1.226a11.76,11.76,0,0,0,3.345.5A13.664,13.664,0,0,0,295.482,241.058Zm0-2.162v1.175a29.88,29.88,0,0,1-3.846.24,24.388,24.388,0,0,1-3.28-.228v-1.178a22.478,22.478,0,0,0,3.285.247A28.339,28.339,0,0,0,295.482,238.9Zm0-2.161V237.9h-7.126v-1.164Zm-7.126,12.958a6.8,6.8,0,0,0,.774.6,5.252,5.252,0,0,0,3.051.929,4.75,4.75,0,0,0,2.676-.907,4.819,4.819,0,0,0,.625-.548v.433a3.528,3.528,0,0,1-.267,1.349,6.321,6.321,0,0,1-3,.832,6.749,6.749,0,0,1-3.657-.99,3.536,3.536,0,0,1-.206-1.191Zm-17.744,0a6.8,6.8,0,0,0,.774.6,5.252,5.252,0,0,0,3.051.929,4.75,4.75,0,0,0,2.676-.907,4.886,4.886,0,0,0,.625-.548v.433a3.528,3.528,0,0,1-.267,1.349,6.32,6.32,0,0,1-3,.832,6.75,6.75,0,0,1-3.658-.99,3.536,3.536,0,0,1-.206-1.191Z"/>
  <path class="e" d="M227.107,226.1a12.519,12.519,0,0,0-.931,1.836h12.633V226.1Zm5.4-3.378a6.032,6.032,0,0,0-4.9,2.645h11.2v-2.645Zm6.3,6.756H225.634q-.148.5-.274,1.027h13.449Z"/>
  <path class="e" d="M306.1,222.717h6.132v2.645H306.1Zm-49.039,2.645a6.154,6.154,0,0,1,4.738-2.645h7.067v2.645Zm49.039.733h6.132v1.836H306.1Zm-50.578,1.836a12.97,12.97,0,0,1,1.007-1.836h12.337v1.836Zm13.344,1.542H254.922q-.165.5-.305,1.027h14.249Zm43.366,0H306.1V230.5h6.132Z"/>
  <path class="e" d="M330.473,225.362a6.168,6.168,0,0,1,4.746-2.645h8.789a11.127,11.127,0,0,0-2.287,2.645Zm-1.542,2.569a13.077,13.077,0,0,1,1.009-1.836h11.346a16.018,16.018,0,0,0-.864,1.836Zm10.956,1.542H328.331q-.166.5-.306,1.027H339.61Q339.736,229.977,339.887,229.473Z"/>
</svg>
