<svg xmlns="http://www.w3.org/2000/svg" xmlns:xlink="http://www.w3.org/1999/xlink" width="761.411" height="566.221" viewBox="0 0 761.411 566.221">
  <defs>
    <style>
      .a, .b, .c, .d, .e, .f, .g, .h, .i, .j {
        fill-rule: evenodd;
      }

      .a {
        fill: url(#a);
      }

      .b {
        fill: url(#b);
      }

      .c {
        fill: url(#c);
      }

      .d {
        fill: #a2acb0;
      }

      .e {
        fill: #fefefe;
      }

      .f {
        fill: #7f8b8f;
      }

      .g {
        fill: #dc000a;
      }

      .h {
        fill: #bac3c7;
      }

      .i {
        fill: #ff502d;
      }

      .j, .k {
        fill: #d5dee2;
      }
    </style>
    <linearGradient id="a" y1="156.209" x2="761.411" y2="156.209" gradientUnits="userSpaceOnUse">
      <stop offset="0" stop-color="#fc0"/>
      <stop offset="0.311" stop-color="#deab00"/>
      <stop offset="0.68" stop-color="#ffd428"/>
      <stop offset="0.999" stop-color="#fc0"/>
    </linearGradient>
    <linearGradient id="b" y1="410.012" x2="761.411" y2="410.012" gradientUnits="userSpaceOnUse">
      <stop offset="0" stop-color="#0064cd"/>
      <stop offset="0.31" stop-color="#004bae"/>
      <stop offset="0.68" stop-color="#1f77d3"/>
      <stop offset="0.999" stop-color="#0064cd"/>
    </linearGradient>
    <linearGradient id="c" y1="283.11" x2="761.411" y2="283.11" gradientUnits="userSpaceOnUse">
      <stop offset="0.001" stop-color="#008c46"/>
      <stop offset="0.311" stop-color="#00712f"/>
      <stop offset="0.679" stop-color="#249c60"/>
      <stop offset="0.999" stop-color="#008c46"/>
    </linearGradient>
  </defs>
  <g>
    <path class="a" d="M0,29.307c253.8,101.521,507.607-101.522,761.411,0v253.8C507.607,181.589,253.8,384.632,0,283.11Z"/>
    <path class="b" d="M0,283.11c253.8,101.522,507.607-101.521,761.411,0v253.8C507.607,435.392,253.8,638.435,0,536.914Z"/>
    <path class="c" d="M0,156.208c253.8,101.522,507.607-101.521,761.411,0v253.8C507.607,308.491,253.8,511.534,0,410.012Z"/>
    <path d="M409.271,354.068V337.152a2.689,2.689,0,0,1-2.93-2.8v-6.793a4.356,4.356,0,0,1,3.409-4.08q2.52-.5,5.039-.987v-45.9s.459-1.792.546-1.944q12.543-22,25.086-43.9V210.274a2.747,2.747,0,0,1-3.323-2.789V193.44a4.294,4.294,0,0,1,3.409-4.042c20.57-3.81,41.14-7.305,61.71-10.162a2.9,2.9,0,0,1,3.409,2.941v14.045a4.046,4.046,0,0,1-3.218,3.843v20.008q20.622,16.536,41.244,34.025a3.082,3.082,0,0,1,1.25,2.527v45.9q2.076-.185,4.152-.355a3.1,3.1,0,0,1,3.408,3.134V312.1a3.772,3.772,0,0,1-2.93,3.609v16.916a3.784,3.784,0,0,1-3.408,3.7c-44.482,3.857-88.963,11.78-133.445,20.488a2.723,2.723,0,0,1-3.408-2.74"/>
    <path class="d" d="M513.957,336.364q1.69-.214,3.381-.422a13.631,13.631,0,0,1,11.85-13.222,10.492,10.492,0,0,1,11.85,10.65q2.542-.238,5.086-.459V314.325q-14.46,1.254-28.919,3.047-1.625.2-3.248.4Z"/>
    <path class="e" d="M512.253,317.98v18.6q-8.382,1.075-16.764,2.3a10.142,10.142,0,0,0-3.48-7.858,10.28,10.28,0,0,0-8.37-2.2c-14.116,2.2-28.231,4.663-42.346,7.272a14.6,14.6,0,0,0-8.37,5.043,14.245,14.245,0,0,0-3.48,9.029q-8.382,1.594-16.764,3.238V334.8C445.871,328.3,479.062,322.241,512.253,317.98Z"/>
    <path class="e" d="M443.83,231.111V207.942q18.636-3.42,37.272-6.405v23.169q12.816,17.955,25.632,36.206v47.619q-9.075,1.218-18.151,2.6V270.166a22.12,22.12,0,0,0-7.664-17.22,21.285,21.285,0,0,0-10.529-4.726q.089-.651.176-1.3a1.416,1.416,0,0,0-1.166-1.742,22.108,22.108,0,0,0-6.934.1,25.661,25.661,0,0,0-6.934,2.287,2.083,2.083,0,0,0-1.178,2.058q.094.664.188,1.328a33.394,33.394,0,0,0-10.53,8.338,31.211,31.211,0,0,0-7.663,19.83v40.965q-9.076,1.7-18.151,3.466V275.93Q431.014,253.459,443.83,231.111Z"/>
    <path class="e" d="M469.3,256.284q.428-3.171.854-6.34c9.689,1.623,16.721,9.742,16.722,20.482v40.965q-2.973.456-5.944.927,0-19,0-37.993v-2.789c0-7.559-4.655-13.619-11.631-15.252m-31.25,63.481V278.8c0-10.74,7.033-21.246,16.722-26.207q.426,3.024.854,6.046C448.652,262.676,444,270.325,444,277.884v13.05a5.119,5.119,0,0,0-1.449,1.381,4.9,4.9,0,0,0-.859,2.263,1.519,1.519,0,0,0,.247,1.146,1.537,1.537,0,0,0,2.061.282v1.639a6.777,6.777,0,0,0-4.416,3.7,9.7,9.7,0,0,0-.954,4.562,11.951,11.951,0,0,0,1.147,4.765A12.783,12.783,0,0,0,444,315.666v3Q441.025,319.211,438.053,319.765Z"/>
    <path class="d" d="M463.667,271.077c-.084.386-.154.776-.21,1.167q.174.166.367.341l.145.131c-.113-.536-.224-1.085-.3-1.639m13.858,3.722v-2.718a13.179,13.179,0,0,0-2.116-7.34,11.933,11.933,0,0,0-5-4.268,19.516,19.516,0,0,0-3.709,3.886,4.705,4.705,0,0,1,.692-.24c1.294-.337,2.8-.072,2.535,1.567a2.117,2.117,0,0,1-.938,1.415c-.415.608,2.142,1.908,2.724,2.821a2.072,2.072,0,0,1,1.182-1.9,1.59,1.59,0,0,1,1.669.1c1.939,1.492,2.871,3.128,2.6,5.52-.22,1.934-1.3,4.252-3.372,7.368.262-.261.519-.5.776-.744A7.658,7.658,0,0,0,477.525,274.8Zm-22.5,10.549c-.524.436-1.049.779-.713,1.515a.282.282,0,0,0,.113.15c.393.151.8.277,1.193.423A10.5,10.5,0,0,0,455.024,285.348ZM445.7,290.23V277.572c0-9.218,7.544-18.152,16.764-19.741h0a15.609,15.609,0,0,1,6.068.111,23.9,23.9,0,0,0-6.035,7.22,22.71,22.71,0,0,0-1.177,2.528,15.9,15.9,0,0,0-.123-3.455c-.364-2.179-1.45-3.99-4.358-3.058-1.636.453-2.12,2.736-.664,3.3.561.215-.6,3.251-.783,4.033-.89,3.807-.18,5.566.619,7.093a6.5,6.5,0,0,0-1.443-.013,7.652,7.652,0,0,0-5.913,4.176c-.712,1.312.224,2.669,1.63,2.273a3.044,3.044,0,0,1,2.872.6,7.4,7.4,0,0,0-3.254,2.042,7.047,7.047,0,0,0-1.789,3.886,7.952,7.952,0,0,0-.036,1.711,4.712,4.712,0,0,0-1.62-.157l-.058,0A5.3,5.3,0,0,0,445.7,290.23Zm0,11.935v-1.771a7.832,7.832,0,0,0,2.181,2.206A12.74,12.74,0,0,1,445.7,302.165Zm0,16.189V316.7a16.009,16.009,0,0,0,2.884,1.133Q447.143,318.091,445.7,318.354Z"/>
    <path class="f" d="M462.081,270.66a21.213,21.213,0,0,1,8.331-12.159,13.776,13.776,0,0,1,8.818,13.307v1.1a1.984,1.984,0,0,0-1.7,1.811,7.664,7.664,0,0,1-2.96,5.54c-.257.241-.514.483-.776.744,2.073-3.116,3.153-5.434,3.372-7.368.27-2.392-.662-4.028-2.6-5.52a1.59,1.59,0,0,0-1.669-.1,2.072,2.072,0,0,0-1.182,1.9c-.582-.913-3.139-2.213-2.724-2.821a2.117,2.117,0,0,0,.938-1.415c.26-1.639-1.242-1.9-2.535-1.567a4.8,4.8,0,0,0-2.642,1.812c-1.664,2.212-1.247,4.6-.784,6.785l-.145-.131a10.489,10.489,0,0,1-1.743-1.925"/>
    <path class="g" d="M453.993,316.86c-15.409-.435-16.533-16.261-9.592-17.606a2.607,2.607,0,0,0,1.346,4.792c3.882.371,6.326,1.792,3.9,5.093,5.306-1.588,4.23-6.183,2.174-6.711-4.216-1.075-5.483-3.808-5.572-6.174-.077-2.05-1.339-2.984-2.879-1.712a3.13,3.13,0,0,1,4.621-2.323c2.106,1.317,1.81,4.163,5.813,3.371-4.764-1.972-6.113-10.109.291-11.5-2.1,1.26-1.891,4.023-.5,4.554,1.426.545,3.559.879,3.283,3.448,1.912-4.172-.841-13.4-6.76-11.719,2.047-3.967,7.071-3.908,8.457-1.028.807-4.746-3.026-4.321-1.526-10.732.4-1.72,2.019-4.982-.036-5.774,2.864-.968,2.668,3.212,2.6,4.74-.313,7.118,6.452,5.809,5.365,12.258,2.816-1.79.608-6.542.29-9.956-.194-2.075.9-4.177,2.988-4.189-.645.425-2.265,2.357.307,3.81,2.258,1.279,2.943,3.424,1.257,5.847,1.907.395,4.782-2.263,3.594-5.8,3.049,2.354,2.957,4.956-1.5,11.423-4.585,7.178.957,8.84,3.246,6.8-2.912-.43-2.1-3.725-.6-5.308,1.856-1.952,4.27-3.281,4.668-7.864v37.992Q466.612,314.607,453.993,316.86Z"/>
    <path class="f" d="M441.293,337.793c14.115-2.609,28.23-5.067,42.346-7.271a8.517,8.517,0,0,1,10.146,8.607c-20.88,3.07-41.759,6.753-62.638,10.709a12.835,12.835,0,0,1,10.146-12.045m87.895-3.223q-5.071.552-10.145,1.165a11.662,11.662,0,0,1,10.145-11.311,8.975,8.975,0,0,1,10.146,9.108Q534.261,334.018,529.188,334.57Z"/>
    <path class="d" d="M499,220.877V198.845q-8.1,1.15-16.194,2.424V223.3Q490.9,222.031,499,220.877Z"/>
    <path class="h" d="M541.494,256.934q-16.529,1.537-33.055,3.751V308.3q4.273-.567,8.549-1.093a1.766,1.766,0,0,1,.217-.041q12.144-1.493,24.289-2.631Z"/>
    <path class="i" d="M473.946,304.376c-3.742-.363-4.757,3.9-2.529,5.39,1.83,1.227,2.715,2.471,2.348,3.708q-7.738,1.271-15.477,2.628c1.069-2.468.869-6.225-4.842-4.271,3.3-5.119,6.6-.741,9.9-4.682-7.066,1.919-7.51-5.611-3.9-9.711-.6,4.7,3.866,7.045,9.231,5.566-4.636-1.426-5.453-3.693-4.853-6.151.662-2.7.57-5.927-2.853-3.866,2.941-4.457,10.689-1.862,9.419,3.839,3.139-.044,5.592-2.95,2.717-5.018,4.468-1.114,5.736,4.094,5.657,6.751v9.587c-.546-2.18-2.21-1.782-3.871-1.259-1.773.558-2.933-1.089-.955-2.511"/>
    <path class="e" d="M456.038,249.1a21.743,21.743,0,0,1,12.856-2.215q-.613,4.552-1.228,9.107a17.574,17.574,0,0,0-5.2.137,20.265,20.265,0,0,0-5.2,1.655Q456.651,253.44,456.038,249.1Z"/>
    <path class="f" d="M508.439,265.469q16.527-2.189,33.055-3.75v3.513q-16.529,1.537-33.055,3.751Zm0,4.785q16.527-2.188,33.055-3.751v3.205q-16.529,1.537-33.055,3.751Zm0,4.785q16.527-2.19,33.055-3.751v2.9q-16.529,1.536-33.055,3.75Zm0,4.784q16.527-2.188,33.055-3.75v2.588q-16.529,1.536-33.055,3.751Zm0,4.785q16.527-2.189,33.055-3.751v2.28q-16.529,1.537-33.055,3.751Zm0,4.785q16.527-2.19,33.055-3.751v1.971q-16.529,1.537-33.055,3.751Zm0,4.784q16.527-2.188,33.055-3.751v1.664q-16.529,1.536-33.055,3.75Zm0,4.785q16.527-2.188,33.055-3.751v1.355q-16.529,1.538-33.055,3.751Zm0,4.784q16.527-2.188,33.055-3.75v1.047q-16.529,1.536-33.055,3.75ZM482.806,221.16q8.1-1.27,16.194-2.424v.505q-8.1,1.149-16.194,2.423Zm0-2.254q8.1-1.269,16.194-2.423v.653q-8.1,1.15-16.194,2.423Zm0-2.253q8.1-1.269,16.194-2.423v.8q-8.1,1.15-16.194,2.423Zm0-2.253q8.1-1.269,16.194-2.423v.951q-8.1,1.149-16.194,2.423Zm0-2.253q8.1-1.269,16.194-2.423v1.1q-8.1,1.15-16.194,2.423Zm0-2.252q8.1-1.27,16.194-2.423v1.247q-8.1,1.15-16.194,2.423Zm0-2.254q8.1-1.269,16.194-2.423v1.4q-8.1,1.15-16.194,2.423Zm0-2.253q8.1-1.269,16.194-2.423v1.546q-8.1,1.15-16.194,2.423Zm0-2.252q8.1-1.27,16.194-2.424v1.694q-8.1,1.15-16.194,2.423Zm0-2.253q8.1-1.27,16.194-2.423V200.3q-8.1,1.15-16.194,2.423Zm25.633,59.8q16.527-2.189,33.055-3.751v3.822q-16.529,1.536-33.055,3.751Z"/>
    <path class="d" d="M549.054,312.372q-15.925,1.317-31.849,3.3v-6.793q15.924-1.957,31.849-3.3Z"/>
    <path class="e" d="M409.75,333.683c35.249-6.927,70.5-13.4,105.747-17.8v-6.793c-35.249,4.4-70.5,10.877-105.747,17.8Z"/>
    <path class="j" d="M502.217,196.689q-8.043,1.118-16.087,2.359V185q8.043-1.239,16.087-2.358Z"/>
    <path class="e" d="M440.507,206.851c14.639-2.712,29.279-5.264,43.919-7.54V185.267c-14.64,2.276-29.28,4.828-43.919,7.539Z"/>
    <path class="j" d="M499.6,222.5q20.038,16.012,40.077,32.905-11.3,1.077-22.592,2.474-4.326.533-8.65,1.106l-.023,0-.754.1q-12.088-17.237-24.175-34.185Q491.545,223.639,499.6,222.5Z"/>
    <path d="M264.923,309.4q10.907-1.576,21.813-3.366V298c-1.756.554-4.488,1.1-6.134-.192-2.459,2.4-6.414,2.863-8.49,1.315-2.243,1.865-5.163,2.6-7.189,1.8Zm38.163-6.137V290.445l-2.577.449v12.819Q301.8,303.491,303.086,303.264Zm-71.673,10.389v-12.82q-2.223.24-4.447.467c-5.43.553-8.846-4.175-10.2-8.767q-3.621.293-7.242.548a4.8,4.8,0,0,1-4.552-2.267,8.382,8.382,0,0,1-1.236-4.482V269.714q-4.2.294-8.393.538c-8.524.453-8.525-12.5,0-12.95q7.936-.459,15.872-1.105c4.354-.355,6.24,3.156,6.254,7.049q.028,7.143.055,14.286c1.644-4.078,4.859-8.024,9.444-8.492q2.223-.227,4.447-.466V258.83a3.907,3.907,0,0,1,3.409-3.783q13.347-1.493,26.693-3.391a2.888,2.888,0,0,1,3.408,2.922v5.261c2.053-1.013,5.518-1.219,6.956-.152,3.069-2.4,6.36-2.643,8.723-1.35a7.637,7.637,0,0,1,8.491-1.375c3.794-3.3,9.8-3.239,11.11,1.725q1.442-.249,2.883-.5v-9.743a4.245,4.245,0,0,1,3.409-4.009q13.347-2.365,26.693-4.923a2.737,2.737,0,0,1,3.408,2.757v9.743q1.85-.354,3.7-.712c5.4-1.044,8.806,3.259,10.177,7.672q3.412-.669,6.826-1.344a5.169,5.169,0,0,1,6.474,5.191v17.469q4.151-.825,8.3-1.654a5.152,5.152,0,0,1,6.475,5.181,8.321,8.321,0,0,1-6.475,7.768q-8.328,1.591-16.656,3.165c-4.031.763-5.43-2.642-5.452-6.094q-.05-7.426-.1-14.851c-1.612,4.364-4.862,8.847-9.571,9.757l-3.7.712v12.819q5.784-1.11,11.569-2.243a2.725,2.725,0,0,1,3.409,2.741v57.069l3.971-.782a2.718,2.718,0,0,1,3.409,2.734v7.477a4.359,4.359,0,0,1-3.409,4.083c-46.474,9.173-92.949,17.671-139.424,21.754a3.077,3.077,0,0,1-3.408-3.117v-7.477a3.6,3.6,0,0,1,3.7-3.725,10.955,10.955,0,0,1,1.894-12.551v-.028c-4.118-3.752-4.1-10.481.007-14.964.012-.038-.183-.207-.219-.248-3.905-3.8-3.821-10.366.212-14.757.025-.027-.18-.206-.212-.241-6.285-6.133-1.649-17.651,7.7-18.575Q228.6,313.956,231.413,313.653Z"/>
    <path class="e" d="M323.008,333.066a5.788,5.788,0,0,1,7.178,5.829,9.059,9.059,0,0,1-7.178,8.525,5.8,5.8,0,0,1-7.177-5.853,9.033,9.033,0,0,1,7.177-8.5m0-.644a9.059,9.059,0,0,0,7.178-8.525,5.787,5.787,0,0,0-7.178-5.829,9.031,9.031,0,0,0-7.177,8.5A5.8,5.8,0,0,0,323.008,332.422Zm0-29.353a5.788,5.788,0,0,1,7.178,5.829,9.059,9.059,0,0,1-7.178,8.525,5.8,5.8,0,0,1-7.177-5.853A9.034,9.034,0,0,1,323.008,303.069ZM225.788,347a8.156,8.156,0,0,0,7.178-7.932,6.352,6.352,0,0,0-7.178-6.423,8.09,8.09,0,0,0-7.177,7.867A6.4,6.4,0,0,0,225.788,347Zm0,.644a6.35,6.35,0,0,1,7.178,6.422A8.155,8.155,0,0,1,225.788,362a6.4,6.4,0,0,1-7.177-6.488A8.088,8.088,0,0,1,225.788,347.645Zm0,29.352a8.155,8.155,0,0,0,7.178-7.931,6.351,6.351,0,0,0-7.178-6.423,8.09,8.09,0,0,0-7.177,7.866A6.4,6.4,0,0,0,225.788,377Zm25.34-3.507c17.888-2.335,35.775-5.184,53.663-8.334V351.937c-17.888,3.151-35.775,6-53.663,8.335-3.951.516-7.154,3.55-7.154,7.514S247.177,374.006,251.128,373.49Zm0-28.217c17.888-2.334,35.775-5.183,53.663-8.334v13.218c-17.888,3.151-35.775,6-53.663,8.334-3.951.516-7.154-1.74-7.154-5.7S247.177,345.789,251.128,345.273Zm0-30.565c17.888-2.334,35.775-5.183,53.663-8.334V320.16c-17.888,3.151-35.775,6-53.663,8.334-3.951.516-7.154-1.74-7.154-5.7A8.389,8.389,0,0,1,251.128,314.708Zm0,28.785c17.888-2.335,35.775-5.184,53.663-8.334V321.941c-17.888,3.15-35.775,6-53.663,8.334-3.951.516-7.154,3.55-7.154,7.514S247.177,344.009,251.128,343.493Zm-25.34-25.845a6.35,6.35,0,0,1,7.178,6.422A8.156,8.156,0,0,1,225.788,332a6.4,6.4,0,0,1-7.177-6.488A8.088,8.088,0,0,1,225.788,317.648ZM306.5,247.841q3.82-.677,7.641-1.371V365.179c13.8-2.508,27.606-5.173,41.409-7.9v7.477c-46.474,9.173-92.949,17.672-139.424,21.755v-7.477q9.351-.822,18.7-1.873V258.455q3.82-.427,7.641-.89v118.71c21.344-2.58,42.688-5.943,64.032-9.725ZM276.3,261.162h0a4.221,4.221,0,0,0-3.478,4.011v28.215a2.916,2.916,0,0,0,3.478,2.944h0a4.232,4.232,0,0,0,3.477-4.021V264.1A2.909,2.909,0,0,0,276.3,261.162Zm8.66-1.373h0a2.888,2.888,0,0,1,3.478,2.91v28.214a4.27,4.27,0,0,1-3.478,4.046h0a2.893,2.893,0,0,1-3.478-2.919V263.826A4.261,4.261,0,0,1,284.962,259.789Zm8.66-1.432h0a4.3,4.3,0,0,0-3.478,4.06v44.755q3.479-.578,6.956-1.173V261.245A2.866,2.866,0,0,0,293.622,258.357Zm-25.981,4.113h0a2.935,2.935,0,0,1,3.478,2.961v28.214a4.191,4.191,0,0,1-3.478,4h0a2.942,2.942,0,0,1-3.478-2.972V266.454A4.179,4.179,0,0,1,267.641,262.47Zm55.367,99.949a9.061,9.061,0,0,0,7.178-8.526,5.788,5.788,0,0,0-7.178-5.829,9.033,9.033,0,0,0-7.177,8.5A5.8,5.8,0,0,0,323.008,362.419Zm35.558-76.171q6.857-1.357,13.711-2.728a.546.546,0,0,1,.685.548h0a.881.881,0,0,1-.685.822q-6.855,1.369-13.711,2.728a.548.548,0,0,1-.685-.55h0A.881.881,0,0,1,358.566,286.248ZM345.09,264.881q6.291-1.225,12.583-2.471a.548.548,0,0,1,.685.55h0a.88.88,0,0,1-.685.821q-6.293,1.243-12.583,2.471a.55.55,0,0,1-.686-.552h0A.874.874,0,0,1,345.09,264.881ZM195.462,262.27q8.015-.465,16.028-1.12a.623.623,0,0,1,.685.628h0a.76.76,0,0,1-.685.742q-8.013.652-16.028,1.12a.642.642,0,0,1-.685-.646h0A.737.737,0,0,1,195.462,262.27Z"/>
    <path class="h" d="M315.84,321.323v-4.511a6.817,6.817,0,0,0,2.409,1.814,11.74,11.74,0,0,0-2.409,2.7m0,15v-4.51a6.829,6.829,0,0,0,2.409,1.814A11.717,11.717,0,0,0,315.84,336.321Zm0,15V346.8a6.877,6.877,0,0,0,2.411,1.818A11.742,11.742,0,0,0,315.84,351.32Zm1.226,11.62-1.226.224v-1.356A6.75,6.75,0,0,0,317.066,362.94Zm-71.512,11.251-1.387.172v-1.432A4.052,4.052,0,0,0,245.554,374.191Zm-1.387-11.709v-4.438a7.072,7.072,0,0,0,3,1.846A10.144,10.144,0,0,0,244.167,362.482Zm0-15v-4.438a7.092,7.092,0,0,0,3,1.846A10.144,10.144,0,0,0,244.167,347.484Zm0-15v-4.438a7.072,7.072,0,0,0,3,1.846A10.144,10.144,0,0,0,244.167,332.485Zm0-75.127q8.674-1.065,17.348-2.293v11.448q-2.98.42-5.961.823c-6.719.9-9.375,10.178-9.375,15.647s2.656,14.107,9.375,13.2q2.98-.4,5.961-.824v16.222q-5.193.733-10.387,1.412a10.237,10.237,0,0,0-6.267,3.406,10.723,10.723,0,0,0-.694.868ZM233.5,334.6a7.634,7.634,0,0,0-2.949-2.765,10.468,10.468,0,0,0,2.949-3.413Zm0,15.006a8.477,8.477,0,0,0-2.949-2.773,10.454,10.454,0,0,0,2.949-3.412Zm0,14.99a7.656,7.656,0,0,0-2.949-2.765,10.43,10.43,0,0,0,2.949-3.4ZM231.73,375.8a14.925,14.925,0,0,0,1.767-2.387v2.194Zm-.71-58.7,2.477-.27V319.6A7.634,7.634,0,0,0,231.02,317.1Zm84.82-70.944q8.673-1.584,17.348-3.241v11.447q-2.98.569-5.961,1.13c-6.719,1.262-9.375,10.7-9.375,16.169s2.656,13.944,9.375,12.682q2.981-.561,5.961-1.129v16.228q-5.091.971-10.18,1.918a9.729,9.729,0,0,0-7.168,4.961Zm32.325,95.912V328.778q-9.636,1.884-19.272,3.71a4.79,4.79,0,0,1,.491.383,7.289,7.289,0,0,1,2.506,5.7,10.677,10.677,0,0,1-2.6,6.774c-.125.148-.254.294-.386.436Q338.535,343.962,348.165,342.072Zm0-15V313.778q-9.636,1.885-19.272,3.711c.136.094.267.194.4.3a7.279,7.279,0,0,1,2.6,5.787,10.647,10.647,0,0,1-2.506,6.651c-.152.194-.312.376-.48.557Q338.534,328.962,348.165,327.073Zm0-15V298.255q-9.962,1.948-19.925,3.833a6.89,6.89,0,0,1,1.049.7,7.276,7.276,0,0,1,2.6,5.786,10.68,10.68,0,0,1-2.6,6.771l0,0c-.125.148-.253.292-.384.434Q338.535,313.963,348.165,312.074Zm0,31.7v13.26q-9.612,1.88-19.224,3.7.179-.194.348-.395l.1-.122a10.642,10.642,0,0,0,2.506-6.651,7.278,7.278,0,0,0-2.6-5.787c-.128-.1-.26-.2-.394-.3Q338.53,345.666,348.165,343.777Zm-7.871-89.071c3.22-.622,5.975,2.129,7.113,6.569q-2.263.442-4.527.881c-6.268,1.212-6.278,10.756,0,9.542q2.264-.44,4.527-.882c-1.138,4.885-3.893,8.711-7.113,9.333-4.236.819-7.67-4.224-7.67-11.249S336.058,255.525,340.294,254.706Z"/>
    <path class="k" d="M195.341,266.843c-4.033.224-4.033-5.908,0-6.133q7.936-.458,15.872-1.1c2.17-.177,2.851,1.808,2.859,3.937l.075,19.763q1.827-.156,3.653-.32a22.543,22.543,0,0,0-.009,6.068q-4.282.353-8.564.655c-1.685.118-2.084-1.939-2.084-3.625V266.057Q201.242,266.5,195.341,266.843ZM327.227,257.2c-4.237.8-7.671,7.125-7.671,14.151s3.434,12.089,7.671,11.292q4.292-.808,8.583-1.631c-3.531-2.234-4.89-7.421-4.89-11.788s1.359-10.069,4.889-13.654Q331.519,256.392,327.227,257.2Zm-28.422,30.58q2.993-.516,5.986-1.043V261.3q-2.993.526-5.986,1.043Zm-43.251-18.739c-4.236.573-7.671,6.7-7.671,13.727s3.435,12.289,7.671,11.715q3.452-.466,6.9-.957V268.083Q259.006,268.575,255.554,269.041Zm-28.588,3.408c-10.067.984-10.067,26.426,0,25.443q3.075-.315,6.152-.653V271.8Q230.042,272.135,226.966,272.449Zm115.914-2.456a2.456,2.456,0,0,1-3.067-2.472,3.9,3.9,0,0,1,3.067-3.66q7.207-1.4,14.416-2.827a2.446,2.446,0,0,1,3.066,2.46v20.877q5.854-1.161,11.709-2.331a2.442,2.442,0,0,1,3.067,2.454,3.934,3.934,0,0,1-3.067,3.679q-8.315,1.594-16.629,3.173c-1.683.318-2.073-1.69-2.084-3.375l-.132-20Q348.053,268.989,342.88,269.993Z"/>
    <path class="d" d="M328.905,315.782c.131-.142.259-.286.384-.434l0,0a11.7,11.7,0,0,0,1.32-1.932q8.779-1.665,17.559-3.386v2.047Q338.535,313.958,328.905,315.782Zm19.26-6.47q-8.584,1.678-17.169,3.311a10.426,10.426,0,0,0,.646-1.915q8.262-1.569,16.523-3.189ZM328.9,330.781q.2-.212.385-.435l.1-.122a11.753,11.753,0,0,0,1.222-1.813q8.779-1.665,17.559-3.386v2.048Q338.535,328.957,328.9,330.781Zm19.261-6.471q-8.584,1.678-17.169,3.312a10.461,10.461,0,0,0,.646-1.916q8.262-1.569,16.523-3.189Zm0-3.3q-8.147,1.594-16.294,3.146c.012-.195.019-.39.019-.585,0-.141,0-.281-.01-.42q8.144-1.548,16.285-3.144ZM328.9,345.781q.2-.215.386-.436a11.744,11.744,0,0,0,1.322-1.936q8.776-1.665,17.554-3.385v2.048Q338.535,343.956,328.9,345.781Zm19.262-6.473q-8.582,1.679-17.165,3.311a10.5,10.5,0,0,0,.644-1.915q8.26-1.571,16.521-3.189Zm0-3.3q-8.147,1.593-16.293,3.145c.011-.195.018-.39.018-.585,0-.141,0-.281-.01-.42q8.144-1.548,16.285-3.144Zm-19.224,24.727q.179-.194.348-.395l.1-.122a11.816,11.816,0,0,0,1.222-1.812q8.779-1.665,17.559-3.386v2.014Q338.553,358.917,328.941,360.738Zm19.224-6.431q-8.584,1.678-17.169,3.312a10.451,10.451,0,0,0,.646-1.915q8.262-1.571,16.523-3.19Zm0-3.3q-8.147,1.594-16.294,3.146.02-.291.019-.585c0-.141,0-.281-.01-.419q8.144-1.55,16.285-3.144Zm0-44.995q-8.147,1.594-16.294,3.146.02-.293.019-.586c0-.14,0-.281-.01-.419q8.144-1.548,16.285-3.144Z"/>
    <path class="j" d="M245.86,372.148a6.688,6.688,0,0,0,5.268,1.342c17.888-2.335,35.775-5.184,53.663-8.334v-2.015C285.147,366.6,265.5,369.7,245.86,372.148Zm-.629-.638c19.853-2.462,39.706-5.587,59.56-9.084v-1.793c-20.159,3.551-40.318,6.719-60.477,9.2A5.47,5.47,0,0,0,245.231,371.51ZM244,353.366q-.024-.282-.024-.578c0-.142.005-.284.013-.423,20.268-2.485,40.536-5.668,60.8-9.238v1C284.526,347.7,264.262,350.881,244,353.366Zm1.233,3.146a5.264,5.264,0,0,1-.934-1.678c20.165-2.479,40.329-5.648,60.494-9.2v1.792C284.937,350.924,265.084,354.05,245.231,356.512Zm5.9,1.979a6.683,6.683,0,0,1-5.268-1.342c19.644-2.45,39.287-5.546,58.931-9.006v2.014C286.9,353.308,269.016,356.157,251.128,358.491ZM244,323.37q-.024-.284-.024-.58c0-.141,0-.282.012-.422,20.268-2.485,40.537-5.668,60.805-9.238v1C284.526,317.7,264.262,320.884,244,323.37Zm1.233,3.145a5.269,5.269,0,0,1-.934-1.677c20.165-2.48,40.329-5.648,60.494-9.2v1.792C284.937,320.927,265.084,324.053,245.231,326.515Zm5.9,1.979a6.683,6.683,0,0,1-5.268-1.342c19.644-2.45,39.287-5.546,58.931-9.006v2.014C286.9,323.311,269.016,326.16,251.128,328.494Zm-5.268,13.657a6.684,6.684,0,0,0,5.268,1.342c17.888-2.335,35.775-5.184,53.663-8.334v-2.015C285.147,336.6,265.5,339.7,245.86,342.151Zm-1.563-2.315a5.294,5.294,0,0,0,.934,1.678c19.853-2.463,39.707-5.588,59.56-9.085v-1.793C284.626,334.188,264.462,337.357,244.3,339.836Zm-.31-2.47c-.009.14-.013.281-.013.423,0,.2.009.39.024.579,20.264-2.485,40.528-5.667,60.793-9.237v-1C284.523,331.7,264.255,334.881,243.987,337.366Zm60.8,21.762c-20.265,3.57-40.529,6.752-60.794,9.237q-.023-.285-.023-.579c0-.141.005-.282.013-.423,20.268-2.485,40.536-5.668,60.8-9.238Z"/>
    <path class="h" d="M222.186,295.783a5.262,5.262,0,0,0,4.78,2.109q3.075-.315,6.152-.653v-2.581Q227.652,295.258,222.186,295.783Zm-1.4-2.375a10.806,10.806,0,0,0,.909,1.706q5.711-.545,11.423-1.173v-1.792Q226.952,292.827,220.786,293.408Zm84.005-9.969v-1.792q-2.993.526-5.986,1.043v1.792Q301.8,283.966,304.791,283.439Zm0,3.3v-2.582q-2.993.528-5.986,1.043v2.582Q301.8,287.264,304.791,286.737Zm-53.87,5.779a5.2,5.2,0,0,0,4.633,1.967q3.452-.466,6.9-.957v-2.582Q256.691,291.765,250.921,292.516Zm-1.5-2.313a10.764,10.764,0,0,0,.985,1.665q6.028-.781,12.057-1.64v-1.792Q255.937,289.362,249.416,290.2Zm49.389-9.018q2.993-.516,5.986-1.043v-1q-2.993.526-5.986,1.042Zm-49.975,7.588q6.814-.873,13.628-1.843v-1q-6.963.99-13.927,1.881Q248.668,288.3,248.83,288.773Zm73.764-7.845a4.954,4.954,0,0,0,4.633,1.715q4.292-.808,8.583-1.631a8.134,8.134,0,0,1-2.241-2.153Q328.081,279.906,322.594,280.928Zm-1.5-2.229a9.908,9.908,0,0,0,.985,1.609q5.535-1.028,11.072-2.084a12.3,12.3,0,0,1-.838-1.633Q326.7,277.658,321.089,278.7Zm-.586-1.4q5.645-1.044,11.288-2.118c-.1-.313-.187-.632-.268-.952q-5.66,1.074-11.319,2.122C320.294,276.68,320.4,277,320.5,277.3ZM219.99,290.974c.08.334.17.66.267.978q6.43-.6,12.861-1.308v-1Q226.554,290.361,219.99,290.974Z"/>
    <path class="k" d="M271.119,291.093v1.45a7.87,7.87,0,0,1-3.546,1.4,6.626,6.626,0,0,1-3.41-.443v-1.438a5.237,5.237,0,0,0,3.442.745,6.21,6.21,0,0,0,3.508-1.72Zm0-2.139v1.352a9.168,9.168,0,0,1-3.6,1.29,7.606,7.606,0,0,1-3.357-.289v-1.348a6.069,6.069,0,0,0,3.384.5A7.462,7.462,0,0,0,271.119,288.954Zm0-2.118v1.258a11.411,11.411,0,0,1-3.648,1.153,9.317,9.317,0,0,1-3.308-.126v-1.265a7.6,7.6,0,0,0,3.324.257A9.722,9.722,0,0,0,271.119,286.836Zm0-2.115v1.191a16.039,16.039,0,0,1-3.7.986,12.758,12.758,0,0,1-3.254.05v-1.2a10.959,10.959,0,0,0,3.265.014A14.38,14.38,0,0,0,271.119,284.721Zm0-2.11v1.147a30.077,30.077,0,0,1-3.754.791,23.234,23.234,0,0,1-3.2.243v-1.149a21.567,21.567,0,0,0,3.207-.226A28.672,28.672,0,0,0,271.119,282.611Zm0-2.11v1.136q-3.479.523-6.956,1.023v-1.136Q267.64,281.025,271.119,280.5Zm8.66,9.257v1.45a7.934,7.934,0,0,1-3.545,1.43,6.623,6.623,0,0,1-3.411-.416v-1.439a5.216,5.216,0,0,0,3.442.718,6.262,6.262,0,0,0,3.509-1.747Zm0-2.138v1.352a9.235,9.235,0,0,1-3.6,1.317,7.6,7.6,0,0,1-3.358-.262v-1.349a6.046,6.046,0,0,0,3.385.475A7.509,7.509,0,0,0,279.779,287.62Zm0-2.118v1.258a11.493,11.493,0,0,1-3.648,1.18,9.29,9.29,0,0,1-3.308-.1v-1.264a7.6,7.6,0,0,0,3.324.23A9.782,9.782,0,0,0,279.779,285.5Zm0-2.116v1.191a16.071,16.071,0,0,1-3.7,1.015,12.776,12.776,0,0,1-3.255.076v-1.2a10.963,10.963,0,0,0,3.265-.012A14.461,14.461,0,0,0,279.779,283.386Zm0-2.11v1.147a30.289,30.289,0,0,1-3.754.82,23.26,23.26,0,0,1-3.2.269v-1.15a21.47,21.47,0,0,0,3.207-.251A28.649,28.649,0,0,0,279.779,281.276Zm0-2.11V280.3q-3.479.549-6.956,1.078v-1.136Q276.3,279.716,279.779,279.166Zm-6.956,13.727a5.443,5.443,0,0,0,.755.471,4.663,4.663,0,0,0,2.979.449,5.425,5.425,0,0,0,2.612-1.294,5.8,5.8,0,0,0,.61-.632v.424a3.784,3.784,0,0,1-.26,1.358,7.107,7.107,0,0,1-2.924,1.269,6.038,6.038,0,0,1-3.57-.418,3.172,3.172,0,0,1-.2-1.132Zm15.617-4.532v1.45a8.005,8.005,0,0,1-3.545,1.454,6.607,6.607,0,0,1-3.411-.391v-1.438a5.2,5.2,0,0,0,3.442.693,6.316,6.316,0,0,0,3.508-1.772Zm0-2.139v1.352a9.312,9.312,0,0,1-3.6,1.343,7.588,7.588,0,0,1-3.358-.238v-1.348a6.027,6.027,0,0,0,3.384.45A7.569,7.569,0,0,0,288.44,286.222Zm0-2.118v1.258a11.585,11.585,0,0,1-3.648,1.207,9.332,9.332,0,0,1-3.308-.076v-1.265a7.566,7.566,0,0,0,3.324.206A9.842,9.842,0,0,0,288.44,284.1Zm0-2.115v1.191a16.276,16.276,0,0,1-3.7,1.041,12.786,12.786,0,0,1-3.255.1v-1.2a11,11,0,0,0,3.265-.035A14.623,14.623,0,0,0,288.44,281.989Zm0-2.11v1.147a30.69,30.69,0,0,1-3.754.847,23.32,23.32,0,0,1-3.2.291v-1.149a21.517,21.517,0,0,0,3.207-.275A29.1,29.1,0,0,0,288.44,279.879Zm0-2.11V278.9q-3.478.573-6.956,1.127V278.9Q284.961,278.343,288.44,277.769Zm-6.956,13.776a5.253,5.253,0,0,0,.755.466,4.649,4.649,0,0,0,2.979.427,5.478,5.478,0,0,0,2.612-1.312,6.029,6.029,0,0,0,.61-.636v.423a3.753,3.753,0,0,1-.261,1.36,7.158,7.158,0,0,1-2.924,1.29,6.024,6.024,0,0,1-3.57-.392,3.158,3.158,0,0,1-.2-1.131Zm-17.321,2.628a5.343,5.343,0,0,0,.755.477,4.673,4.673,0,0,0,2.979.473,5.391,5.391,0,0,0,2.612-1.274,5.748,5.748,0,0,0,.61-.627v.423a3.741,3.741,0,0,1-.261,1.356,7.037,7.037,0,0,1-2.924,1.247,6.046,6.046,0,0,1-3.57-.446,3.2,3.2,0,0,1-.2-1.134Z"/>
    <path class="e" d="M221.7,276.267a13.619,13.619,0,0,0-.909,1.879q6.165-.58,12.332-1.259v-1.793Q227.406,275.722,221.7,276.267Zm5.271-3.818a6.672,6.672,0,0,0-4.781,3.056q5.466-.525,10.933-1.126V271.8Q230.042,272.135,226.966,272.449Zm6.152,5.943q-6.43.707-12.861,1.309c-.1.336-.187.679-.267,1.028q6.564-.612,13.128-1.334Z"/>
    <path class="e" d="M298.805,262.338q2.993-.516,5.986-1.043v2.582q-2.993.526-5.986,1.043Zm-47.87,9.9a7.121,7.121,0,0,1,4.625-3.2q3.448-.467,6.9-.957v2.583Q256.7,271.484,250.935,272.236Zm47.87-6.6q2.993-.516,5.986-1.043v1.793q-2.993.526-5.986,1.043Zm-49.373,9.3a15.015,15.015,0,0,1,.983-1.92q6.023-.782,12.043-1.638v1.793Q255.945,274.1,249.432,274.939Zm13.026-.26q-6.806.966-13.611,1.84c-.109.34-.207.687-.3,1.041q6.954-.888,13.909-1.878Zm42.333-6.789q-2.993.526-5.986,1.043v1q2.993-.516,5.986-1.043Z"/>
    <path class="e" d="M322.6,260.648a7.659,7.659,0,0,1,4.632-3.448q4.29-.807,8.58-1.63a14.364,14.364,0,0,0-2.232,3.009Q328.087,259.626,322.6,260.648Zm-1.5,2.788a15.946,15.946,0,0,1,.985-1.975q5.538-1.029,11.076-2.086a19.317,19.317,0,0,0-.844,1.954Q326.7,262.4,321.092,263.436Zm10.695-.5q-5.64,1.073-11.281,2.116-.162.521-.3,1.059,5.655-1.046,11.309-2.121Q331.641,263.453,331.787,262.933Z"/>
  </g>
</svg>
