<svg fill="none" height="1671" viewBox="0 0 1200 1671" width="1200" xmlns="http://www.w3.org/2000/svg"><path clip-rule="evenodd" d="m100.207 0h247.192c10.935.0251537 21.416 4.38795 29.148 12.1339 7.733 7.7459 12.089 18.2444 12.114 29.1987 0 109.7124.57 225.7104.57 330.2804h-55.808v-27.523h-218.004v27.523h-55.8077c0-104.76-.6656-220.282-.6656-330.2804.0251-10.9543 4.3802-21.4528 12.1128-29.1987 7.7327-7.74595 18.2132-12.1087463 29.1485-12.1339zm309.275 123.808h39.55v96.284h-39.55v-96.189zm-409.482 0h39.4552v96.284h-39.4552v-96.189zm114.088 137.616c5.435 0 10.747 1.614 15.265 4.639 4.519 3.024 8.04 7.323 10.12 12.352 2.079 5.029 2.624 10.563 1.564 15.902-1.061 5.339-3.678 10.244-7.52 14.093-3.843 3.849-8.739 6.47-14.069 7.532s-10.854.517-15.874-1.566c-5.0211-2.083-9.3123-5.611-12.3315-10.137-3.0191-4.526-4.6306-9.848-4.6306-15.291 0-7.3 2.8951-14.301 8.0479-19.462 5.1528-5.162 12.1412-8.062 19.4282-8.062zm-13.69-222.5676h247.191v45.9994h-247.191zm0 84.9516h247.191v110.093h-247.191v-109.998zm233.595 137.616c5.435 0 10.747 1.614 15.265 4.639 4.519 3.024 8.04 7.323 10.12 12.352s2.624 10.563 1.564 15.902-3.677 10.244-7.52 14.093-8.739 6.47-14.068 7.532c-5.33 1.062-10.855.517-15.875-1.566-5.021-2.083-9.312-5.611-12.331-10.137s-4.631-9.848-4.631-15.291c0-7.3 2.895-14.301 8.047-19.462 5.153-5.162 12.142-8.062 19.429-8.062z" fill="#00c200" fill-rule="evenodd"/><path d="m201.107 538.27-58.523 58.523 29.261 29.261 58.523-58.523zm103.745 0-59.055 58.523 29.794 29.261 58.523-58.523zm144.18 219.727h-39.37v96.298h39.37zm-409.6619 0h-39.3701v96.298h39.3701zm309.1089-38.838h-247.926v-46.286h247.926zm0 149.5h-247.926v-110.662h247.926zm-289.4238-193.126v330.917h55.8628v-27.661h219.196v27.661h55.863v-330.917c0-22.877-18.621-41.498-41.498-41.498h-247.926c-22.8768 0-41.4978 18.621-41.4978 41.498zm27.6655 248.457c0-15.428 11.7046-27.665 27.1333-27.665 15.429 0 27.666 12.237 27.666 27.665 0 15.429-12.237 27.134-27.666 27.134-15.4287 0-27.1333-11.705-27.1333-27.134zm220.7923 0c0-15.428 11.704-27.665 27.133-27.665s27.666 12.237 27.666 27.665c0 15.429-12.237 27.134-27.666 27.134s-27.133-11.705-27.133-27.134z" fill="#14bbff"/><path d="m541.936 38.7097c0-21.3788 17.33-38.7097 38.709-38.7097h580.645c21.38 0 38.71 17.3309 38.71 38.7097v294.1933c0 21.379-17.33 38.71-38.71 38.71h-580.645c-21.379 0-38.709-17.331-38.709-38.71z" fill="#00b400"/><path d="m778.844 70.4489-83.567 143.3961v34.142h91.046v50.075h40.645v-50.075h29.264l6.503-37.394h-35.767v-38.043h-40.645v38.043h-42.597v-1.3l80.315-138.8441z" fill="#fff"/><path d="m969.165 200.839c17.233 7.153 28.939 18.209 28.939 34.792 0 19.835-15.282 27.964-34.467 27.964s-34.467-8.129-34.467-27.964c0-16.909 8.129-30.24 25.688-40.645zm-32.842-73.487c0-14.307 10.731-22.436 27.314-22.436s27.314 8.129 27.314 22.436c0 14.632-6.829 26.988-19.185 36.418l-12.031-5.202c-14.307-6.178-23.412-14.958-23.412-31.216zm67.307 51.701c15.28-11.381 27.64-29.59 27.64-51.701 0-38.3689-24.39-60.1547-67.633-60.1547-43.246 0-67.634 21.7858-67.634 60.1547 0 23.737 11.056 41.296 27.639 50.4v1.301c-22.436 13.006-34.792 32.516-34.792 56.578 0 42.921 28.289 65.682 74.787 65.682 46.503 0 74.783-22.761 74.783-65.682 0-25.363-13-41.296-34.79-55.278z" fill="#fff"/><path d="m541.936 673.55c0-21.379 17.33-38.71 38.709-38.71h580.645c21.38 0 38.71 17.331 38.71 38.71v294.193c0 21.379-17.33 38.707-38.71 38.707h-580.645c-21.379 0-38.709-17.328-38.709-38.707z" fill="#00b4ff"/><path d="m821.284 932.902h43.572l80.965-193.146v-34.467h-144.697l-6.503 37.719h107.954z" fill="#fff"/><path d="m541.936 1281.08c0-21.37 17.33-38.7 38.709-38.7h580.645c21.38 0 38.71 17.33 38.71 38.7v294.2c0 21.38-17.33 38.71-38.71 38.71h-580.645c-21.379 0-38.709-17.33-38.709-38.71z" fill="#ff640a"/><path d="m716.412 1312.82-6.503 37.72h53.001v152.18h-57.879v37.72h149.574v-37.72h-51.05v-189.9z" fill="#fff"/><path d="m979.569 1405.17v-.98l43.901-56.9v-34.47h-122.265l-6.503 37.72h83.566v1.3l-45.522 59.18v23.74h18.534c22.111 0 40.32 10.08 40.32 35.77 0 24.38-17.559 35.44-39.019 35.44-18.535 0-32.191-5.85-45.198-14.31l-20.16 32.84c18.534 11.71 39.02 19.19 67.634 19.19 41.295 0 78.693-23.41 78.693-73.49 0-41.29-25.69-59.83-53.981-65.03z" fill="#fff"/><path clip-rule="evenodd" d="m100.854 1241.99h247.327c10.921.03 21.385 4.38 29.107 12.1 7.723 7.72 12.075 18.19 12.107 29.11v178.62l-13.742 68.71c-4.444 22.22-18.549 41.21-41.215 41.21h-219.842c-22.6647 0-36.7707-18.99-41.2171-41.21l-13.7396-68.71v-178.62c.0312-10.92 4.3834-21.39 12.1058-29.11s18.1878-12.07 29.1089-12.1zm308.635 123.65h39.543v96.18h-39.543zm-409.489 0h39.5486v96.18h-39.5486zm212.973 275.29 58.295-58.3 29.146 29.15-58.295 58.29zm-103.269 0 58.293-58.3 29.146 29.15-58.292 58.29zm4.895-495.12h219.837v38.88h-73.328l-49.369 49.37-29.143-29.15 20.223-20.22h-88.22zm178.618 343.49c5.434 0 10.747 1.61 15.267 4.63 4.519 3.02 8.041 7.31 10.121 12.33s2.624 10.55 1.564 15.88-3.677 10.23-7.519 14.07c-3.843 3.84-8.739 6.46-14.07 7.52-5.33 1.06-10.856.52-15.877-1.56s-9.313-5.6-12.333-10.12c-3.019-4.52-4.631-9.83-4.631-15.27-.001-7.29 2.894-14.28 8.047-19.43s12.143-8.05 19.431-8.05zm-137.402 0c5.435 0 10.748 1.61 15.267 4.63s8.04 7.31 10.12 12.34c2.08 5.02 2.624 10.54 1.564 15.87-1.061 5.33-3.678 10.23-7.521 14.07s-8.739 6.46-14.069 7.52c-5.331 1.06-10.856.52-15.877-1.56s-9.313-5.6-12.332-10.12c-3.02-4.52-4.632-9.83-4.632-15.27 0-7.29 2.896-14.28 8.049-19.43s12.143-8.05 19.431-8.05zm-54.961-207.26h247.327v44.72h-247.327zm0 84.98h247.327v94.8h-247.327z" fill="#ff6400" fill-rule="evenodd"/></svg>