<svg xmlns="http://www.w3.org/2000/svg" xmlns:xlink="http://www.w3.org/1999/xlink" viewBox="0 0 120.002 120.002"><defs><style>.a{fill:none;}.b{clip-path:url(#a);}.c{fill:#00b400;}</style><clipPath id="a"><path class="a" d="M60,120A60,60,0,1,0,0,60,60,60,0,0,0,60,120Z"/></clipPath></defs><path d="M60,120A60,60,0,1,0,0,60,60,60,0,0,0,60,120Z"/><g class="b"><path class="c" d="M88.9,42.563H0V29.509H88.9ZM44.719,66.527H88.9V53.473H29.952V68.409c0,16.7,7.038,22.091,23.374,22.091H88.9V77.439H53.065c-6.292,0-8.2-1.4-8.331-7.8C44.7,67.919,44.719,66.527,44.719,66.527Z"/></g></svg>