<svg viewBox="0 0 1500 1100" xmlns="http://www.w3.org/2000/svg" xmlns:xlink="http://www.w3.org/1999/xlink"><linearGradient id="a" gradientUnits="userSpaceOnUse" x1="1143.03" x2="362.73" y1="688.95" y2="1246.46"><stop offset="0" stop-color="#324664"/><stop offset=".51" stop-color="#322850"/><stop offset="1" stop-color="#151e28"/></linearGradient><linearGradient id="b" x1="1340.92" x2="165.11" xlink:href="#a" y1="127.8" y2="967.89"/><path d="m0 0h1500v1100h-1500z"/><path d="m750 967.91h-589.32l9.89 9.66c10.16 9.94 16.2 12.4 30.42 12.4h1098.01c14.22 0 20.26-2.46 30.42-12.4l9.89-9.66z" fill="url(#a)" fill-rule="evenodd" opacity=".5"/><path d="m1317.25 129c19 0 25.75 6.74 25.75 25.75v794.5c0 19-6.74 25.75-25.75 25.75h-1134.5c-19 0-25.75-6.74-25.75-25.75v-794.5c0-19 6.74-25.75 25.75-25.75zm0-2h-1134.5c-20 0-27.75 7.73-27.75 27.75v794.5c0 20 7.73 27.75 27.75 27.75h1134.5c20 0 27.75-7.73 27.75-27.75v-794.5c0-20-7.73-27.75-27.75-27.75z" fill="#cadeff" opacity=".1"/><path d="m1345 152.75v794.5c0 9.48-1.73 16.2-5.68 20.66-4.4 5-11.53 7.09-22.07 7.09h-1134.5c-10.54 0-17.67-2.14-22.07-7.09-4-4.46-5.68-11.18-5.68-20.66v-794.5c0-9.38 1.7-16.07 5.56-20.52 4.39-5 11.56-7.23 22.19-7.23h1134.5c10 0 17 1.93 21.38 6.37s6.37 11.37 6.37 21.38z" fill="url(#b)" fill-rule="evenodd"/><g fill="#fff"><path d="m252.12 717.52-.28 1.21h-2.72v5.92h-1.45v-7.13z"/><path d="m252.75 721.08c0-2.32 1.3-3.71 3.29-3.71s3.28 1.39 3.28 3.71-1.3 3.71-3.28 3.71-3.29-1.38-3.29-3.71zm1.48 0c0 1.57.72 2.49 1.81 2.49s1.8-.92 1.8-2.49-.71-2.49-1.8-2.49-1.81.93-1.81 2.49z"/><path d="m260.91 723.43c.77-1.3 1-2.64 1-5.13v-.78h4.69v5.91h1.13l-.28 3h-1.17v-1.78h-4.83v1.78h-1.18l-.28-3zm2.42-4.49a10.47 10.47 0 0 1 -.87 4.49h2.64v-4.7h-1.77z"/><path d="m278.27 724.65h-1.45v-5.92h-2.7v5.92h-1.46v-7.13h5.61z"/><path d="m280.09 721.08c0-2.32 1.3-3.71 3.29-3.71s3.29 1.39 3.29 3.71-1.3 3.71-3.29 3.71-3.29-1.38-3.29-3.71zm1.48 0c0 1.57.72 2.49 1.81 2.49s1.8-.92 1.8-2.49-.71-2.49-1.8-2.49-1.81.93-1.81 2.49z"/><path d="m293.06 723.27.45 1.12a4.8 4.8 0 0 1 -2 .4c-2.31 0-3.48-1.65-3.48-3.71s1.1-3.71 3.41-3.71a5.18 5.18 0 0 1 2 .38l-.45 1.12a3.74 3.74 0 0 0 -1.42-.28c-1.21 0-2 1-2 2.49s.8 2.49 2 2.49a4.19 4.19 0 0 0 1.49-.3z"/><path d="m294.21 717.52h6.05l-.28 1.21h-2.06v5.92h-1.44v-5.92h-2.27z"/><path d="m303 727.45-1.46.28v-10.21h1l.28.75h.18a2.53 2.53 0 0 1 2-.9c2 0 2.89 1.59 2.89 3.71s-.88 3.71-3 3.71a4.18 4.18 0 0 1 -1.82-.38zm3.34-6.37c0-1.47-.58-2.49-1.82-2.49a2 2 0 0 0 -1.52.88v3.6a2.61 2.61 0 0 0 1.58.5c1.15 0 1.8-.91 1.8-2.49z"/><path d="m309.27 721.08c0-2.32 1.3-3.71 3.28-3.71s3.29 1.39 3.29 3.71-1.3 3.71-3.29 3.71-3.28-1.38-3.28-3.71zm1.48 0c0 1.57.71 2.49 1.8 2.49s1.81-.92 1.81-2.49-.71-2.49-1.81-2.49-1.8.93-1.8 2.49z"/><path d="m317.66 724.65v-7.13h1.46v4.75h.05l3.29-4.75h1.3v7.13h-1.45v-4.76h-.06l-3.25 4.76zm5.36-9.53a2.68 2.68 0 0 1 -4.62 0l.93-.61a1.56 1.56 0 0 0 1.38.91 1.49 1.49 0 0 0 1.37-.91z"/><path d="m329.42 721 2.36 3.69-1.48.14-2.06-3.23h-.78v3.09h-1.46v-7.13h1.46v2.88h.8l1.87-2.88h1.51z"/><path d="m333 724.65v-7.13h1.46v4.75h.05l3.29-4.75h1.3v7.13h-1.45v-4.76h-.06l-3.29 4.76z"/><path d="m431.64 704.8v-.48c0-.85-.36-1.38-1.41-1.38a5.5 5.5 0 0 0 -1.93.37l-.42-1.13a6.9 6.9 0 0 1 2.51-.46c2.19 0 2.7 1.14 2.7 2.63v3a.46.46 0 0 0 .51.51h.15v1.07a2.42 2.42 0 0 1 -.84.14 1.11 1.11 0 0 1 -1.13-.82h-.06a2.58 2.58 0 0 1 -2 .82 2 2 0 0 1 -2.21-2.12c0-1.36 1.12-2.14 2.7-2.14zm-1.5 1.13a1.06 1.06 0 0 0 -1.2 1 .94.94 0 0 0 1.05 1 2.07 2.07 0 0 0 1.65-.89v-1.1z"/><path d="m436.75 711.79-1.46.28v-10.21h1l.28.75h.05a2.56 2.56 0 0 1 2-.89c2 0 2.88 1.58 2.88 3.71s-.88 3.7-3 3.7a4.3 4.3 0 0 1 -1.82-.37zm3.34-6.36c0-1.47-.59-2.49-1.82-2.49a2 2 0 0 0 -1.52.88v3.59a2.62 2.62 0 0 0 1.58.51c1.1 0 1.76-.92 1.76-2.49z"/><path d="m445.62 706.39-1.7 2.6h-1.61l2.48-3.66-2.34-3.47h1.55l1.54 2.47 1.52-2.47h1.64l-2.32 3.47 2.46 3.66-1.51.14z"/><path d="m450.32 709v-7.13h1.46v4.75h.05l3.29-4.75h1.3v7.13h-1.42v-4.75h-.06l-3.32 4.75z"/><path d="m457.82 701.86h6.05l-.28 1.21h-2.06v5.93h-1.44v-5.92h-2.27z"/><path d="m470.6 705.76h-4.54c.1 1.39.83 2.16 2.12 2.16a4 4 0 0 0 1.77-.49l.48 1.1a5.22 5.22 0 0 1 -2.39.6c-2.1 0-3.47-1.37-3.47-3.7s1.28-3.71 3.21-3.71a2.65 2.65 0 0 1 2.94 2.87 6.28 6.28 0 0 1 -.12 1.17zm-4.48-1.13h3.3a1.52 1.52 0 0 0 -1.61-1.69 1.7 1.7 0 0 0 -1.69 1.69z"/><path d="m476 705.3 2.36 3.69-1.48.14-2.06-3.23h-.82v3.1h-1.46v-7.13h1.46v2.88h.79l1.88-2.88h1.51z"/><path d="m478.74 701.86h6.05l-.28 1.21h-2.06v5.93h-1.45v-5.92h-2.27z"/><path d="m485.49 705.43c0-2.33 1.3-3.71 3.28-3.71s3.29 1.38 3.29 3.71-1.3 3.7-3.29 3.7-3.28-1.38-3.28-3.7zm1.48 0c0 1.56.71 2.49 1.8 2.49s1.81-.93 1.81-2.49-.72-2.49-1.81-2.49-1.77.92-1.77 2.49z"/><path d="m495.34 711.79-1.46.28v-10.21h1l.28.75h.05a2.56 2.56 0 0 1 2-.89c2 0 2.88 1.58 2.88 3.71s-.88 3.7-3 3.7a4.3 4.3 0 0 1 -1.82-.37zm3.34-6.36c0-1.47-.59-2.49-1.82-2.49a2 2 0 0 0 -1.52.88v3.59a2.6 2.6 0 0 0 1.58.51c1.08 0 1.76-.92 1.76-2.49z"/><path d="m431.7 719.82 3.63 5.17-1.73.14-3.23-4.56h-.73v4.43h-1.51v-9.8h1.51v4.09h.77l2.91-4.09h1.68z"/><path d="m437.1 723.28a.93.93 0 1 1 -.93.92.93.93 0 0 1 .93-.92z"/><path d="m443.49 716.54v2.54h1.36c2 0 3.38.95 3.38 2.95s-1.34 3-3.38 3h-2.85v-9.8h5.6l-.28 1.35zm0 3.89v3.21h1.27c1.33 0 1.91-.67 1.91-1.61s-.56-1.6-1.92-1.6z"/><path d="m453.5 720.79v-.48c0-.85-.37-1.38-1.42-1.38a5.61 5.61 0 0 0 -1.93.38l-.42-1.14a7 7 0 0 1 2.52-.46c2.18 0 2.7 1.15 2.7 2.63v3a.45.45 0 0 0 .51.5h.15v1.08a2.68 2.68 0 0 1 -.84.14 1.1 1.1 0 0 1 -1.13-.83h-.06a2.6 2.6 0 0 1 -2 .83 2 2 0 0 1 -2.21-2.13c0-1.36 1.11-2.14 2.7-2.14zm-1.5 1.13a1.06 1.06 0 0 0 -1.2 1 .94.94 0 0 0 1.05.95 2.09 2.09 0 0 0 1.65-.88v-1.11z"/><path d="m460.51 716.28c-1.56.12-2.31.66-2.31 2.7a3 3 0 0 1 2.27-.92c1.75 0 2.95 1.16 2.95 3.54a3.18 3.18 0 0 1 -3.37 3.53c-2.31 0-3.29-1.72-3.29-4.58 0-4.5 1.26-5.33 3.57-5.54a7.11 7.11 0 0 0 2.32-.52l.43 1.16a7.25 7.25 0 0 1 -2.57.63zm-.42 7.63c1.09 0 1.89-.76 1.89-2.31s-.73-2.32-1.72-2.32a2.36 2.36 0 0 0 -2 1.22c-.01 2.28.57 3.41 1.83 3.41z"/><path d="m466.8 720.45h1.28a2.24 2.24 0 0 1 2.54 2.28c0 1.45-1 2.26-2.54 2.26h-2.73v-7.14h1.45zm0 1.22v2.1h1.14c.74 0 1.2-.39 1.2-1s-.46-1.05-1.2-1.05zm6.33 3.32h-1.46v-7.14h1.46z"/><path d="m478.78 721.29 2.37 3.7-1.49.14-2.05-3.24h-.79v3.11h-1.45v-7.14h1.45v2.88h.8l1.88-2.88h1.5z"/><path d="m482.41 725v-7.14h1.45v4.76h.06l3.29-4.76h1.3v7.14h-1.46v-4.76h-.05l-3.29 4.76z"/><path d="m496.47 725h-1.47v-3.07h-2.8v3.07h-1.45v-7.14h1.45v2.86h2.8v-2.86h1.46z"/><path d="m749.26 728.11-1.46.28v-10.22h1l.28.76a2.53 2.53 0 0 1 2-.9c2 0 2.88 1.58 2.88 3.71s-.88 3.71-3 3.71a4.14 4.14 0 0 1 -1.81-.38zm3.34-6.37c0-1.47-.59-2.49-1.82-2.49a2 2 0 0 0 -1.52.88v3.6a2.59 2.59 0 0 0 1.58.5c1.1 0 1.76-.91 1.76-2.49z"/><path d="m761.51 722.08h-4.51a2 2 0 0 0 2.11 2.15 3.91 3.91 0 0 0 1.78-.49l.48 1.11a5.26 5.26 0 0 1 -2.4.6c-2.09 0-3.47-1.37-3.47-3.71s1.29-3.71 3.22-3.71a2.65 2.65 0 0 1 2.94 2.87 5.67 5.67 0 0 1 -.15 1.18zm-4.51-1.14h3.3a1.52 1.52 0 0 0 -1.61-1.69 1.7 1.7 0 0 0 -1.69 1.69z"/><path d="m766.87 721.61 2.37 3.7-1.48.14-2.06-3.23h-.79v3.09h-1.45v-7.14h1.45v2.88h.8l1.88-2.88h1.51z"/><path d="m769.94 721.74c0-2.32 1.3-3.71 3.29-3.71s3.29 1.39 3.29 3.71-1.31 3.71-3.29 3.71-3.29-1.39-3.29-3.71zm1.48 0c0 1.57.72 2.49 1.81 2.49s1.8-.92 1.8-2.49-.71-2.49-1.8-2.49-1.81.92-1.81 2.49z"/><path d="m784.06 725.31h-1.46v-3.07h-2.81v3.07h-1.45v-7.14h1.45v2.83h2.81v-2.86h1.46z"/><path d="m790.87 723.92.45 1.12a4.65 4.65 0 0 1 -2 .41c-2.31 0-3.48-1.65-3.48-3.71s1.16-3.74 3.45-3.74a5.18 5.18 0 0 1 2 .38l-.45 1.12a3.53 3.53 0 0 0 -1.42-.28c-1.21 0-2 1-2 2.49s.8 2.49 2 2.49a4 4 0 0 0 1.45-.28z"/><path d="m792 718.17h6.05l-.28 1.22h-2.06v5.92h-1.44v-5.92h-2.27z"/><path d="m800.85 728.11-1.45.28v-10.22h1l.28.76h.06a2.5 2.5 0 0 1 2-.9c2 0 2.88 1.58 2.88 3.71s-.88 3.71-3 3.71a4.18 4.18 0 0 1 -1.82-.38zm3.35-6.37c0-1.47-.59-2.49-1.82-2.49a2 2 0 0 0 -1.53.88v3.6a2.61 2.61 0 0 0 1.58.5c1.11 0 1.77-.91 1.77-2.49z"/><path d="m807.44 727a2.18 2.18 0 0 0 .77.18c.32 0 .69-.15.88-.83l.31-1h-.52l-2.5-7.14h1.62l1.85 5.47h.06l1.65-5.47h1.56l-2.74 8.51a2.08 2.08 0 0 1 -2.05 1.71 3.17 3.17 0 0 1 -1.24-.27z"/><path d="m817.7 721.61 2.36 3.7-1.48.14-2.06-3.23h-.78v3.09h-1.46v-7.14h1.46v2.88h.8l1.87-2.88h1.51z"/><path d="m827.77 727.09h-1.17v-1.78h-5.28v-7.14h1.46v5.92h2.68v-5.92h1.46v5.92h1.13z"/><path d="m829.38 725.31v-7.14h1.46v4.76h.06l3.28-4.76h1.3v7.14h-1.48v-4.76l-3.28 4.76z"/><path d="m838.82 722.52a2.07 2.07 0 0 1 -1.32-2.08 2.21 2.21 0 0 1 2.48-2.27h2.81v7.14h-1.46v-2.59h-1.1l-1.54 2.59h-1.69zm1.3-1h1.21v-2.13h-1.21a1.05 1.05 0 0 0 -1.14 1.08 1 1 0 0 0 1.14 1.05z"/><path d="m754.92 682a9.67 9.67 0 0 0 -5.07 1.58l-2.13-3.58a14.94 14.94 0 0 1 7.88-2.13c4.43 0 7.16 2.52 7.16 6.91 0 5.54-4.78 10.83-9.17 14.32v.14h9.89l-.72 4.18h-15.47v-3.81c4.93-3.71 10.83-9.54 10.83-14.36a2.91 2.91 0 0 0 -3.2-3.25z"/><path d="m775.9 703.73c-5.54 0-9-4.43-9-13s3.46-13 9-13 9 4.43 9 13-3.46 13-9 13zm0-4.17c2.48 0 4.35-2.6 4.35-8.78s-1.87-8.78-4.35-8.78-4.36 2.59-4.36 8.78 1.87 8.78 4.36 8.78z"/><path d="m795.94 682a9.67 9.67 0 0 0 -5.07 1.58l-2.13-3.58a14.94 14.94 0 0 1 7.88-2.13c4.43 0 7.16 2.52 7.16 6.91 0 5.54-4.78 10.83-9.17 14.32v.14h9.89l-.72 4.18h-15.47v-3.81c4.93-3.71 10.83-9.54 10.83-14.36a2.91 2.91 0 0 0 -3.2-3.25z"/><path d="m816.92 703.73c-5.54 0-9-4.43-9-13s3.46-13 9-13 9 4.43 9 13-3.46 13-9 13zm0-4.17c2.48 0 4.35-2.6 4.35-8.78s-1.87-8.78-4.35-8.78-4.36 2.59-4.36 8.78 1.87 8.78 4.36 8.78z"/><path d="m261 676.69v21h5.64v4.18h-16.59v-4.17h6.41v-16.84h-5.87l.72-4.17z"/><path d="m281.54 691.23a7.16 7.16 0 0 1 -3.92 1.11c-4.29 0-7.42-2.84-7.42-7.91s3.67-8.1 8.39-8.1c5.07 0 8.34 3.63 8.34 9.25 0 9.1-5.57 14.5-13 16.66l-1.55-3.31c3.92-1.52 7.85-3.78 9.29-7.63zm.86-5.65c0-3.06-1.51-5.08-3.81-5.08a3.93 3.93 0 0 0 0 7.85 4.48 4.48 0 0 0 3.81-2.77z"/><path d="m302 676.69v21h5.64v4.18h-16.57v-4.17h6.41v-16.84h-5.87l.72-4.17z"/><path d="m324.75 676.69-8.88 15.36v.15h4.71v-4.2h4.5v4.21h3.92l-.72 4.14h-3.23v5.54h-4.5v-5.54h-10.05v-3.78l9.25-15.87z"/><path d="m396.43 211.91h9.65l3.33 44.44h-5.55l-.56-9.35h-4.1l-.55 9.37h-5.56zm26.18 0-.42 5.2h-3.82v39.24h-5.69v-39.24h-3.82l-.42-5.2zm1.25 6.25c0-4.24 2.91-6.95 7.29-6.95s7.29 2.71 7.29 6.95v31.94c0 4.24-2.92 7-7.29 7s-7.29-2.71-7.29-7zm18.33-6.25h5.21l4.37 19 4.38-19h5.21v44.44h-5.21v-15.21l.14-13.26h-.42l-3.06 19.44h-2.08l-3.05-19.44h-.42l.14 13.26v15.21h-5.21zm-11 39.93a1.64 1.64 0 0 0 1.73-1.74v-31.94a1.74 1.74 0 1 0 -3.47 0v31.94a1.64 1.64 0 0 0 1.7 1.74zm-29.69-34.73h-.5l-1.46 25h3.46zm69.81 50.35v-74.9c-34.26 1.56-71.38 4.38-100.79 9.07l12.48 21.46v44.37z"/><path d="m255.37 220.25h-16.37v-4h2v-10.25h-2v-4h16.38v6.09h-4.1v-2.09h-5v3h4.72v4h-4.73v3.25h5v-2.1h4.1zm10.54 0h-9v-4h2.21v-10.25h-2.21v-4h9.24v4h-1.78v3.15h1.89c2.41 0 3.88-1.16 3.88-3.15h-1.57v-4h8.71v4h-2.2a7.33 7.33 0 0 1 -3.78 6.09c.52 2.83 2.14 4.2 5.71 4l3.99-10.09h-1.36v-4h10.26l5.46 14.28h1.89v4h-9.25v-4h1.47l-.42-1.37h-6.05l-.42 1.37h1.68v4h-3.66c-6.3 0-7.13 0-9.44-.94s-3.88-3.26-4.72-6.2h-2.1v3.15h1.57zm18.42-9.34h3.26l-1.68-4.42zm-18.33 30.84h-9.08v-4h2.08v-10.35h-2.15v-3.88h11.17c4.88 0 7.34 2.66 7.34 6a6.27 6.27 0 0 1 -3.3 5.42c.33 2 2.05 2.72 4.18 2.72h3.41v-10.26h-2.89v-3.88h11v3.88h-2.88v10.31h2.88v4h-11.76c-5.31 0-7.83-2.06-9.07-5.94h-2.58v1.9h1.65zm-1.57-9.9h2.46c1.65 0 3-.58 3-2.22s-1.35-2.23-3-2.23h-2.46zm-9 3.85h-4.1v2.1h-5v-3.26h4.67v-4h-4.73v-3h5v2.1h4.1v-6.09h-16.37v4h2v10.25h-2v4h16.38zm38.79-33.7v6h3.88v-2h2.21v10.29h-1.89v4h9.24v-4h-2v-10.29h2.21v2h4v-6zm8.06 25.42h2.22v6.58l-7.35-10.47h-7.85v3.88h2.16v10.31h-2.16v4h9.49v-4h-2.14v-6.34l7.19 10.38h5.86v-14.36h2v-3.88h-9.41zm-46.46 30.36a5.45 5.45 0 0 1 -5.85 5.45h-10.97v-4h1.89v-10.29h-1.89v-4.05h9.69c3.74 0 5.57 2.39 5.57 5a4.86 4.86 0 0 1 -1.4 3.38 4.77 4.77 0 0 1 2.96 4.49zm-9.57-5.69h1.4a1.57 1.57 0 1 0 0-3.13h-1.4zm4.37 5.44a1.85 1.85 0 0 0 -1.9-1.81h-2.47v3.55h2.39a1.86 1.86 0 0 0 1.98-1.76zm52.18-4.91h8.8v6.83c-1.23 2.31-4 4.11-8.25 4.11a9.5 9.5 0 0 1 -5.53-1.48 9.06 9.06 0 0 1 -13.36-4.79h-2.37v2h1.62v4h-9.07v-4h2.25v-10.35h-3.25v6.84c0 5.12-3.63 7.93-8.33 7.93-4.12 0-8.33-2.48-8.33-7.93v-6.84h-1.74v-4.05h9.25v4.05h-2v7.06a3.08 3.08 0 0 0 3.06 3.22 2.92 2.92 0 0 0 2.89-3.22v-7.09h-2.4v-4.05h19.48c4.88 0 7.34 2.66 7.34 6.05a6.28 6.28 0 0 1 -3.33 5.44c.94 2.74 3.78 3.28 5.15 2a9.54 9.54 0 0 1 -.91-4.29c0-4.9 3-9.49 9.32-9.49a10.89 10.89 0 0 1 7.56 2.49v4.28h-4.65v-1.91a4.74 4.74 0 0 0 -2.59-.64c-2.73 0-4.37 1.94-4.37 5.19 0 3 1.73 5.18 4.37 5.26a5 5 0 0 0 3.59-1.24v-1.53h-4.2zm-15.31-1.44c0-1.74-1.35-2.22-3-2.22h-2.4v4.45h2.4c1.65-.02 3-.6 3-2.25zm-12.07-78.48a60.16 60.16 0 1 1 -60.16 60.16 60.16 60.16 0 0 1 60.16-60.18z" fill-rule="evenodd"/><path d="m751.2 765v5.9h-2.59v-16.8h5.25c3.19 0 5.59 1.85 5.59 5.45s-2.4 5.45-5.59 5.45zm0-8.59v6.28h2.61a3.15 3.15 0 0 0 0-6.28z"/><path d="m771.59 765.37h-7.78c.17 2.38 1.42 3.7 3.63 3.7a6.7 6.7 0 0 0 3-.84l.82 1.89a9 9 0 0 1 -4.1 1c-3.6 0-6-2.36-6-6.36s2.2-6.36 5.51-6.36 5 1.92 5 4.92a10.57 10.57 0 0 1 -.08 2.05zm-7.68-1.94h5.66a2.61 2.61 0 0 0 -2.76-2.9c-1.65 0-2.68 1.17-2.9 2.9z"/><path d="m780.89 764.58 4.06 6.34-2.54.24-3.53-5.55h-1.34v5.31h-2.54v-12.24h2.5v4.94h1.36l3.22-4.94h2.59z"/><path d="m786.27 764.8c0-4 2.23-6.36 5.64-6.36s5.63 2.38 5.63 6.36-2.23 6.36-5.63 6.36-5.64-2.38-5.64-6.36zm2.54 0c0 2.69 1.22 4.27 3.1 4.27s3.09-1.58 3.09-4.27-1.22-4.27-3.09-4.27-3.1 1.58-3.1 4.27z"/><path d="m810.59 770.92h-2.49v-5.26h-4.82v5.26h-2.5v-12.24h2.5v4.9h4.82v-4.9h2.49z"/><path d="m822.4 768.54.76 1.92a8 8 0 0 1 -3.36.7c-3.95 0-6-2.84-6-6.36s1.9-6.36 5.85-6.36a8.82 8.82 0 0 1 3.36.65l-.76 1.92a6.22 6.22 0 0 0 -2.45-.48c-2.06 0-3.46 1.73-3.46 4.27s1.37 4.27 3.43 4.27a7 7 0 0 0 2.63-.53z"/><path d="m824.48 758.68h10.37l-.48 2.09h-3.53v10.15h-2.47v-10.15h-3.89z"/><path d="m839.74 775.71-2.49.48v-17.51h1.75l.48 1.3h.1a4.31 4.31 0 0 1 3.47-1.54c3.46 0 4.95 2.71 4.95 6.36s-1.52 6.36-5.16 6.36a7.19 7.19 0 0 1 -3.12-.65zm5.73-10.91c0-2.52-1-4.27-3.11-4.27a3.47 3.47 0 0 0 -2.62 1.51v6.16a4.41 4.41 0 0 0 2.71.87c1.9 0 3.02-1.56 3.02-4.27z"/><path d="m851.16 773.79a3.46 3.46 0 0 0 1.32.32c.55 0 1.17-.27 1.51-1.42l.53-1.77h-.89l-4.29-12.24h2.73l3.17 9.38h.09l2.83-9.38h2.69l-4.7 14.59c-.77 2.35-2.21 2.92-3.53 2.92a5.66 5.66 0 0 1 -2.11-.45z"/><path d="m868.86 764.58 4 6.34-2.54.24-3.52-5.55h-1.3v5.31h-2.5v-12.24h2.49v4.94h1.37l3.21-4.94h2.6z"/><path d="m886.25 774h-2v-3h-9v-12.32h2.49v10.15h4.61v-10.15h2.49v10.15h1.94z"/><path d="m889.13 770.92v-12.24h2.5v8.16h.09l5.64-8.16h2.23v12.24h-2.49v-8.16h-.1l-5.64 8.16z"/><path d="m908.23 765.66h-2.23v5.26h-2.49v-12.24h2.49v4.9h2.24c.38-3.24 2.35-5.14 5.39-5.14 3.41 0 5.47 2.38 5.47 6.36s-2.06 6.36-5.47 6.36c-3.12 0-5.12-2.04-5.4-5.5zm2.52-.86c0 2.69 1 4.27 2.92 4.27s2.93-1.58 2.93-4.27-1.06-4.27-2.93-4.27-2.92 1.58-2.92 4.27z"/><path d="m936.37 758.68-.48 2.09h-4.66v10.15h-2.49v-12.24z"/><path d="m937.06 768.61a1.52 1.52 0 0 0 .82.24c1.12 0 1.75-2.32 1.75-8.13v-2h8.18v12.24h-2.5v-10.19h-3.31v.53c0 6.52-1.17 9.74-3.93 9.74a2.66 2.66 0 0 1 -1.58-.44z"/><path d="m958 763.72v-.82c0-1.46-.63-2.37-2.42-2.37a9.64 9.64 0 0 0 -3.32.65l-.72-1.95a12.2 12.2 0 0 1 4.32-.79c3.75 0 4.63 2 4.63 4.51v5.14a.77.77 0 0 0 .87.86h.26v1.85a4.52 4.52 0 0 1 -1.44.24 1.89 1.89 0 0 1 -1.94-1.42h-.1a4.46 4.46 0 0 1 -3.45 1.42c-2.33 0-3.79-1.16-3.79-3.65 0-2.33 1.92-3.67 4.63-3.67zm-2.57 1.94a1.82 1.82 0 0 0 -2.06 1.78 1.61 1.61 0 0 0 1.8 1.63 3.57 3.57 0 0 0 2.83-1.51v-1.9z"/><path d="m973.91 767.39c0 2.21-1.39 3.53-4.18 3.53h-5.32v-12.24h4.94c2.45 0 4 .91 4 3.12a2.75 2.75 0 0 1 -2.08 2.62v.07a3 3 0 0 1 2.64 2.9zm-7-6.62v2.78h2c1.13 0 2-.36 2-1.39s-.77-1.39-1.82-1.39zm0 4.87v3.19h2.43c1.27 0 2-.51 2-1.58s-.83-1.61-2.27-1.61z"/><path d="m987 770.92h-2.5v-5.26h-4.82v5.26h-2.49v-12.24h2.49v4.9h4.82v-4.9h2.5z"/><path d="m990.2 764.8c0-4 2.23-6.36 5.63-6.36s5.64 2.38 5.64 6.36-2.23 6.36-5.64 6.36-5.63-2.38-5.63-6.36zm2.54 0c0 2.69 1.22 4.27 3.09 4.27s3.1-1.58 3.1-4.27-1.23-4.27-3.1-4.27-3.09 1.58-3.09 4.27z"/><path d="m1012.34 758.68-.48 2.09h-4.66v10.15h-2.49v-12.24z"/><path d="m1013.54 764.8c0-4 2.23-6.36 5.63-6.36s5.64 2.38 5.64 6.36-2.23 6.36-5.64 6.36-5.63-2.38-5.63-6.36zm2.54 0c0 2.69 1.22 4.27 3.09 4.27s3.1-1.58 3.1-4.27-1.22-4.27-3.1-4.27-3.09 1.58-3.09 4.27z"/><path d="m754.22 792.57 4 6.33-2.54.24-3.53-5.54h-1.34v5.3h-2.49v-12.23h2.49v4.94h1.37l3.21-4.94h2.61z"/><path d="m759.59 792.79c0-4 2.23-6.36 5.64-6.36s5.64 2.37 5.64 6.36-2.23 6.35-5.64 6.35-5.64-2.37-5.64-6.35zm2.55 0c0 2.68 1.22 4.27 3.09 4.27s3.09-1.59 3.09-4.27-1.22-4.27-3.09-4.27-3.09 1.58-3.09 4.27z"/><path d="m776.6 803.7-2.49.48v-17.51h1.77l.48 1.29h.1a4.34 4.34 0 0 1 3.48-1.53c3.45 0 4.94 2.71 4.94 6.36s-1.51 6.35-5.16 6.35a7.19 7.19 0 0 1 -3.12-.65zm5.73-10.91c0-2.52-1-4.27-3.11-4.27a3.48 3.48 0 0 0 -2.62 1.48v6.16a4.48 4.48 0 0 0 2.71.87c1.9.03 3.02-1.53 3.02-4.24z"/><path d="m797.73 798.9h-2.49v-10.14h-4.63v10.14h-2.5v-12.23h9.62z"/><path d="m801.72 801.78a3.42 3.42 0 0 0 1.32.31c.55 0 1.17-.26 1.51-1.41l.52-1.78h-.88l-4.3-12.23h2.74l3.16 9.38h.1l2.83-9.38h2.69l-4.7 14.58c-.77 2.35-2.21 2.93-3.53 2.93a5.45 5.45 0 0 1 -2.11-.46z"/><path d="m821.17 796.53.77 1.92a8.17 8.17 0 0 1 -3.36.69c-4 0-6-2.83-6-6.35s1.89-6.36 5.85-6.36a8.86 8.86 0 0 1 3.36.65l-.77 1.92a6.18 6.18 0 0 0 -2.45-.48c-2.06 0-3.45 1.72-3.45 4.27s1.37 4.27 3.43 4.27a7.14 7.14 0 0 0 2.62-.53z"/><path d="m831 791.71v-.82c0-1.46-.63-2.37-2.42-2.37a9.76 9.76 0 0 0 -3.31.64l-.72-1.94a11.89 11.89 0 0 1 4.31-.79c3.75 0 4.63 2 4.63 4.51v5.13a.78.78 0 0 0 .87.87h.26v1.84a4.26 4.26 0 0 1 -1.44.24 1.88 1.88 0 0 1 -1.94-1.41h-.1a4.49 4.49 0 0 1 -3.45 1.41c-2.33 0-3.79-1.15-3.79-3.64 0-2.33 1.92-3.67 4.63-3.67zm-2.57 1.94a1.82 1.82 0 0 0 -2.06 1.77 1.61 1.61 0 0 0 1.8 1.64 3.55 3.55 0 0 0 2.83-1.52v-1.89z"/><path d="m843.7 798.9v-12.23h2.49v8.15h.1l5.63-8.15h2.24v12.23h-2.5v-8.15h-.09l-5.64 8.15z"/><path d="m872.31 796.53.77 1.92a8.17 8.17 0 0 1 -3.36.69c-4 0-6-2.83-6-6.35s1.9-6.36 5.85-6.36a8.86 8.86 0 0 1 3.36.65l-.77 1.92a6.14 6.14 0 0 0 -2.44-.48c-2.07 0-3.46 1.72-3.46 4.27s1.37 4.27 3.43 4.27a7.14 7.14 0 0 0 2.62-.53z"/><path d="m874.88 792.79c0-4 2.23-6.36 5.64-6.36s5.64 2.37 5.64 6.36-2.23 6.35-5.64 6.35-5.64-2.37-5.64-6.35zm2.55 0c0 2.68 1.22 4.27 3.09 4.27s3.09-1.59 3.09-4.27-1.22-4.27-3.09-4.27-3.09 1.58-3.09 4.27z"/><path d="m898.9 795.38c0 2.2-1.4 3.52-4.18 3.52h-5.32v-12.23h4.94c2.44 0 4 .91 4 3.12a2.72 2.72 0 0 1 -2.09 2.61v.07a3 3 0 0 1 2.65 2.91zm-7-6.62v2.78h2c1.13 0 2-.36 2-1.39s-.77-1.39-1.82-1.39zm0 4.87v3.19h2.42c1.27 0 2-.51 2-1.59s-.84-1.6-2.28-1.6z"/><path d="m904.63 803.7-2.5.48v-17.51h1.78l.48 1.29h.09a4.36 4.36 0 0 1 3.48-1.53c3.46 0 4.94 2.71 4.94 6.36s-1.51 6.35-5.15 6.35a7.19 7.19 0 0 1 -3.12-.65zm5.73-10.91c0-2.52-1-4.27-3.12-4.27a3.46 3.46 0 0 0 -2.61 1.51v6.16a4.48 4.48 0 0 0 2.71.87c1.89 0 3.02-1.56 3.02-4.27z"/><path d="m925.76 793.36h-7.76c.17 2.38 1.42 3.7 3.62 3.7a6.87 6.87 0 0 0 3-.84l.82 1.89a9 9 0 0 1 -4.11 1c-3.59 0-6-2.35-6-6.35s2.21-6.36 5.52-6.36 5 1.92 5 4.92a9.87 9.87 0 0 1 -.09 2.04zm-7.67-1.94h5.66a2.61 2.61 0 0 0 -2.76-2.9c-1.66 0-2.69 1.17-2.9 2.9z"/><path d="m936.75 796.91h-2.59l-2.4-6.67h-.1l-.66 8.66h-2.5l1.17-12.23h2.86l2.88 7.82h.09l2.88-7.82h2.85l1.18 12.23h-2.47l-.7-8.66h-.09z"/><path d="m955.27 793.36h-7.77c.16 2.38 1.41 3.7 3.62 3.7a6.82 6.82 0 0 0 3-.84l.82 1.89a8.94 8.94 0 0 1 -4.1 1c-3.6 0-6-2.35-6-6.35s2.21-6.36 5.52-6.36 5 1.92 5 4.92a10.57 10.57 0 0 1 -.09 2.04zm-7.68-1.94h5.66a2.61 2.61 0 0 0 -2.76-2.9c-1.65 0-2.68 1.17-2.9 2.9z"/><path d="m968.53 798.9h-2.53v-5.25h-4.82v5.25h-2.5v-12.23h2.5v4.89h4.82v-4.89h2.49z"/><path d="m982.3 798.9h-2.49v-5.25h-4.81v5.25h-2.5v-12.23h2.5v4.89h4.82v-4.89h2.49z"/><path d="m988.76 791.13h2.18c2.64 0 4.37 1.44 4.37 3.91s-1.73 3.86-4.37 3.86h-4.68v-12.23h2.5zm0 2.09v3.6h1.94c1.27 0 2.06-.68 2.06-1.8s-.79-1.8-2.06-1.8zm10.84 5.68h-2.49v-12.23h2.49z"/><path d="m1003.56 798.9v-12.23h2.49v8.15h.1l5.64-8.15h2.21v12.23h-2.5v-8.15h-.09l-5.64 8.15zm9.18-16.33a4.6 4.6 0 0 1 -7.91 0l1.58-1.06a2.64 2.64 0 0 0 2.38 1.56 2.58 2.58 0 0 0 2.35-1.56z"/><path d="m758 826.89h-2.5v-10.15h-4.63v10.15h-2.49v-12.23h9.62z"/><path d="m764.44 831.69-2.5.48v-17.51h1.78l.48 1.29h.09a4.36 4.36 0 0 1 3.48-1.53c3.46 0 4.94 2.71 4.94 6.35s-1.51 6.36-5.15 6.36a7.16 7.16 0 0 1 -3.12-.65zm5.73-10.92c0-2.51-1-4.27-3.12-4.27a3.43 3.43 0 0 0 -2.61 1.52v6.16a4.47 4.47 0 0 0 2.71.86c1.85-.04 3.02-1.56 3.02-4.27z"/><path d="m776 826.89v-12.23h2.5v8.15h.09l5.64-8.15h2.23v12.23h-2.49v-8.15h-.1l-5.64 8.15z"/><path d="m798.21 824.52.77 1.91a8 8 0 0 1 -3.36.7c-4 0-6-2.83-6-6.36s1.89-6.35 5.85-6.35a8.67 8.67 0 0 1 3.36.65l-.77 1.91a6.32 6.32 0 0 0 -2.44-.48c-2.07 0-3.46 1.73-3.46 4.27s1.37 4.27 3.43 4.27a7.12 7.12 0 0 0 2.62-.52z"/><path d="m800.3 814.66h10.36l-.48 2.08h-3.52v10.15h-2.47v-10.15h-3.89z"/><path d="m815.56 831.69-2.5.48v-17.51h1.78l.48 1.29h.09a4.36 4.36 0 0 1 3.48-1.53c3.46 0 4.94 2.71 4.94 6.35s-1.51 6.36-5.15 6.36a7.19 7.19 0 0 1 -3.12-.65zm5.73-10.92c0-2.51-1-4.27-3.12-4.27a3.43 3.43 0 0 0 -2.61 1.52v6.16a4.45 4.45 0 0 0 2.71.86c1.89-.04 3.02-1.56 3.02-4.27z"/><path d="m826.35 820.77c0-4 2.23-6.35 5.64-6.35s5.64 2.37 5.64 6.35-2.23 6.36-5.64 6.36-5.64-2.37-5.64-6.36zm2.55 0c0 2.69 1.22 4.27 3.09 4.27s3.09-1.58 3.09-4.27-1.22-4.27-3.09-4.27-3.09 1.59-3.09 4.27z"/><path d="m840.87 826.89v-12.23h2.49v8.15h.1l5.63-8.15h2.23v12.23h-2.49v-8.15h-.09l-5.64 8.15zm9.18-16.33a4.6 4.6 0 0 1 -7.91 0l1.58-1.06a2.64 2.64 0 0 0 2.38 1.56 2.58 2.58 0 0 0 2.35-1.56z"/><path d="m867.49 820.56 4.06 6.33-2.55.24-3.52-5.54h-1.34v5.3h-2.5v-12.23h2.5v4.94h1.36l3.22-4.94h2.59z"/><path d="m890 826.89h-2.5v-5.25h-4.82v5.25h-2.5v-12.23h2.5v4.89h4.82v-4.89h2.5z"/><path d="m903.57 821.35h-7.77c.17 2.37 1.42 3.69 3.62 3.69a6.74 6.74 0 0 0 3.05-.84l.81 1.9a8.91 8.91 0 0 1 -4.1 1c-3.6 0-5.95-2.35-5.95-6.36s2.21-6.35 5.52-6.35 5 1.92 5 4.91a9.89 9.89 0 0 1 -.18 2.05zm-7.67-1.94h5.66a2.61 2.61 0 0 0 -2.76-2.91c-1.66 0-2.69 1.18-2.9 2.91z"/><path d="m914.56 824.9h-2.56l-2.4-6.67h-.1l-.69 8.66h-2.47l1.17-12.23h2.86l2.88 7.82h.09l2.88-7.82h2.86l1.17 12.23h-2.47l-.7-8.66h-.08z"/><path d="m923.49 829.77a3.56 3.56 0 0 0 1.31.31c.56 0 1.18-.26 1.52-1.41l.52-1.78h-.84l-4.3-12.23h2.74l3.16 9.38h.1l2.83-9.38h2.69l-4.71 14.58c-.76 2.35-2.2 2.93-3.52 2.93a5.37 5.37 0 0 1 -2.11-.46z"/><path d="m951.19 823.36c0 2.21-1.39 3.53-4.17 3.53h-5.33v-12.23h4.94c2.45 0 4.06.91 4.06 3.12a2.74 2.74 0 0 1 -2.09 2.61v.07a3 3 0 0 1 2.59 2.9zm-7-6.62v2.79h2c1.13 0 2-.36 2-1.39s-.76-1.4-1.82-1.4zm0 4.87v3.19h2.42c1.27 0 2-.5 2-1.58s-.84-1.61-2.28-1.61z"/><path d="m956.92 819.12h2.19c2.64 0 4.36 1.44 4.36 3.91s-1.72 3.86-4.36 3.86h-4.68v-12.23h2.49zm0 2.09v3.59h2c1.27 0 2.06-.67 2.06-1.8s-.79-1.79-2.06-1.79zm10.85 5.68h-2.5v-12.23h2.5z"/><path d="m981.34 826.89h-2.49v-10.15h-4.63v10.15h-2.49v-12.23h9.61z"/><path d="m984.58 820.77c0-4 2.23-6.35 5.64-6.35s5.64 2.37 5.64 6.35-2.23 6.36-5.64 6.36-5.64-2.37-5.64-6.36zm2.55 0c0 2.69 1.22 4.27 3.09 4.27s3.09-1.58 3.09-4.27-1.22-4.27-3.09-4.27-3.09 1.59-3.09 4.27z"/><path d="m997.87 824.59a1.52 1.52 0 0 0 .82.24c1.13 0 1.75-2.33 1.75-8.13v-2h8.18v12.23h-2.5v-10.19h-3.31v.53c0 6.53-1.17 9.74-3.93 9.74a2.66 2.66 0 0 1 -1.58-.43z"/><path d="m1022.39 826.89h-2.5v-5.25h-4.82v5.25h-2.49v-12.23h2.49v4.89h4.82v-4.89h2.5z"/><path d="m1026.35 826.89v-12.23h2.49v8.15h.1l5.63-8.15h2.24v12.23h-2.5v-8.15h-.09l-5.64 8.15z"/><path d="m1039.78 824.59a1.5 1.5 0 0 0 .82.24c1.12 0 1.75-2.33 1.75-8.13v-2h8.18v12.23h-2.53v-10.19h-3.31v.53c0 6.53-1.17 9.74-3.93 9.74a2.71 2.71 0 0 1 -1.59-.43z"/><path d="m1060.75 819.69v-.81c0-1.46-.63-2.38-2.43-2.38a9.63 9.63 0 0 0 -3.31.65l-.72-1.94a12 12 0 0 1 4.32-.79c3.74 0 4.63 2 4.63 4.51v5.13a.77.77 0 0 0 .87.86h.26v1.85a4.52 4.52 0 0 1 -1.44.24 1.88 1.88 0 0 1 -1.94-1.41h-.1a4.49 4.49 0 0 1 -3.45 1.41c-2.33 0-3.79-1.15-3.79-3.65 0-2.32 1.92-3.67 4.63-3.67zm-2.57 1.95a1.82 1.82 0 0 0 -2.06 1.77 1.6 1.6 0 0 0 1.8 1.63 3.57 3.57 0 0 0 2.83-1.51v-1.89z"/><path d="m754.22 848.54 4 6.34-2.54.24-3.53-5.54h-1.34v5.3h-2.49v-12.24h2.49v5h1.37l3.21-5h2.61z"/><path d="m759.47 848.76c0-4 2.23-6.36 5.64-6.36s5.64 2.38 5.64 6.36-2.23 6.36-5.64 6.36-5.64-2.38-5.64-6.36zm2.55 0c0 2.69 1.22 4.27 3.09 4.27s3.09-1.58 3.09-4.27-1.22-4.27-3.09-4.27-3.11 1.58-3.11 4.27z"/><path d="m781.4 852.89h-2.59l-2.4-6.67h-.1l-.69 8.66h-2.47l1.17-12.24h2.86l2.88 7.82h.09l2.88-7.82h2.85l1.18 12.24h-2.47l-.7-8.66h-.09z"/><path d="m799.8 854.88h-2.5v-10.15h-4.63v10.15h-2.49v-12.24h9.62z"/><path d="m809.9 847.68v-.81c0-1.47-.63-2.38-2.43-2.38a9.63 9.63 0 0 0 -3.31.65l-.72-1.94a12 12 0 0 1 4.32-.8c3.74 0 4.63 2 4.63 4.51v5.14a.77.77 0 0 0 .87.86h.26v1.85a4.52 4.52 0 0 1 -1.44.24 1.88 1.88 0 0 1 -1.94-1.42h-.14a4.46 4.46 0 0 1 -3.45 1.42c-2.33 0-3.79-1.15-3.79-3.65 0-2.32 1.92-3.67 4.63-3.67zm-2.57 1.94a1.83 1.83 0 0 0 -2.06 1.78 1.61 1.61 0 0 0 1.8 1.63 3.57 3.57 0 0 0 2.83-1.51v-1.9z"/><path d="m826 854.88h-2.5v-5.26h-4.82v5.26h-2.49v-12.24h2.49v4.9h4.82v-4.9h2.5z"/><path d="m829.81 854.88v-12.24h2.49v8.16h.1l5.63-8.16h2.23v12.24h-2.49v-8.16h-.1l-5.67 8.16z"/><path d="m846 850.1a3.56 3.56 0 0 1 -2.25-3.57c0-2.37 1.61-3.89 4.25-3.89h4.82v12.24h-2.5v-4.44h-1.92l-2.64 4.44h-2.86zm2.23-1.72h2.09v-3.65h-2.12a1.79 1.79 0 0 0 -1.94 1.85 1.76 1.76 0 0 0 1.94 1.8z"/><path d="m865.19 843.15 1.75 1.05-2.61 4.27 2.61 4.27-1.75 1.06-3.29-5.33zm4.87 0 1.75 1.05-2.61 4.27 2.61 4.27-1.75 1.06-3.29-5.33z"/><path d="m873.25 854.88 5.61-16.79h2.57l5.57 16.79h-2.76l-1.2-3.91h-5.9l-1.14 3.91zm7-13.36h-.12l-2.23 7.22h4.55z"/><path d="m887.52 842.64h10.36l-.47 2.09h-3.53v10.15h-2.47v-10.15h-3.89z"/><path d="m899.09 848.76c0-4 2.23-6.36 5.63-6.36s5.64 2.38 5.64 6.36-2.23 6.36-5.64 6.36-5.63-2.38-5.63-6.36zm2.54 0c0 2.69 1.22 4.27 3.09 4.27s3.1-1.58 3.1-4.27-1.23-4.27-3.1-4.27-3.09 1.58-3.09 4.27z"/><path d="m921 852.89h-2.59l-2.4-6.67h-.09l-.7 8.66h-2.47l1.18-12.24h2.85l2.88 7.82h.09l2.88-7.82h2.86l1.17 12.24h-2.46l-.69-8.66h-.1z"/><path d="m937.64 852.5.76 1.92a8 8 0 0 1 -3.36.7c-3.95 0-6-2.83-6-6.36s1.9-6.36 5.85-6.36a8.82 8.82 0 0 1 3.36.65l-.76 1.92a6.4 6.4 0 0 0 -2.45-.48c-2.06 0-3.46 1.73-3.46 4.27s1.42 4.24 3.42 4.24a7 7 0 0 0 2.64-.5z"/><path d="m939.6 842.64h10.4l-.48 2.09h-3.52v10.15h-2.47v-10.15h-3.93z"/><path d="m954.74 859.68-2.49.47v-17.51h1.75l.48 1.3h.1a4.31 4.31 0 0 1 3.47-1.54c3.46 0 4.95 2.71 4.95 6.36s-1.52 6.36-5.16 6.36a7.19 7.19 0 0 1 -3.12-.65zm5.73-10.92c0-2.52-1-4.27-3.11-4.27a3.47 3.47 0 0 0 -2.62 1.51v6.17a4.47 4.47 0 0 0 2.71.86c1.9-.03 3.02-1.56 3.02-4.27z"/><path d="m965.42 848.76c0-4 2.23-6.36 5.63-6.36s5.64 2.38 5.64 6.36-2.23 6.36-5.64 6.36-5.63-2.38-5.63-6.36zm2.54 0c0 2.69 1.22 4.27 3.09 4.27s3.1-1.58 3.1-4.27-1.23-4.27-3.1-4.27-3.05 1.58-3.05 4.27z"/><path d="m979.81 854.88v-12.24h2.49v8.16h.1l5.64-8.16h2.23v12.24h-2.5v-8.16h-.09l-5.68 8.16zm9.19-16.34a4.6 4.6 0 0 1 -7.92 0l1.58-1a2.66 2.66 0 0 0 2.38 1.56 2.57 2.57 0 0 0 2.35-1.56z"/><path d="m1000 848.54 4 6.34-2.54.24-3.53-5.54h-1.33v5.3h-2.49v-12.24h2.49v5h1.4l3.21-5h2.59z"/><path d="m1005.21 848.76c0-4 2.23-6.36 5.64-6.36s5.64 2.38 5.64 6.36-2.23 6.36-5.64 6.36-5.64-2.38-5.64-6.36zm2.55 0c0 2.69 1.22 4.27 3.09 4.27s3.1-1.58 3.1-4.27-1.23-4.27-3.1-4.27-3.09 1.58-3.09 4.27z"/><path d="m1027.14 852.89h-2.59l-2.4-6.67h-.1l-.69 8.66h-2.47l1.17-12.24h2.86l2.88 7.82h.09l2.88-7.82h2.85l1.18 12.24h-2.47l-.7-8.66h-.09z"/><path d="m1045.54 854.88h-2.54v-10.15h-4.63v10.15h-2.49v-12.24h9.62z"/><path d="m1048.39 852.57a1.56 1.56 0 0 0 .82.25c1.13 0 1.75-2.33 1.75-8.14v-2h8.18v12.24h-2.5v-10.19h-3.31v.53c0 6.52-1.17 9.74-3.93 9.74a2.73 2.73 0 0 1 -1.58-.43z"/><path d="m1072.6 849.34h-7.78c.17 2.37 1.42 3.69 3.63 3.69a6.7 6.7 0 0 0 3-.84l.82 1.9a8.94 8.94 0 0 1 -4.1 1c-3.6 0-6-2.35-6-6.36s2.21-6.36 5.52-6.36 5 1.92 5 4.92a10.67 10.67 0 0 1 -.09 2.05zm-7.68-2h5.66a2.61 2.61 0 0 0 -2.76-2.9c-1.65.05-2.68 1.23-2.9 2.95z"/><path d="m1081.78 848.54 4.06 6.34-2.54.24-3.53-5.54h-1.34v5.3h-2.5v-12.24h2.5v5h1.36l3.22-5h2.59z"/><path d="m1095.6 852.5.77 1.92a8 8 0 0 1 -3.36.7c-4 0-6-2.83-6-6.36s1.89-6.36 5.85-6.36a8.86 8.86 0 0 1 3.36.65l-.77 1.92a6.35 6.35 0 0 0 -2.44-.48c-2.07 0-3.46 1.73-3.46 4.27s1.45 4.24 3.45 4.24a6.93 6.93 0 0 0 2.6-.5z"/><path d="m1103.09 848.47-3.29 5.33-1.75-1.06 2.61-4.27-2.61-4.27 1.75-1.05zm4.87 0-3.29 5.33-1.75-1.06 2.61-4.27-2.61-4.27 1.75-1.05z"/><path d="m1111.7 852a1.59 1.59 0 1 1 -1.58 1.58 1.6 1.6 0 0 1 1.58-1.58z"/><path d="m255.46 762.09a4 4 0 0 1 3.45 4.17c0 3.43-2.56 4.66-5.85 4.66h-5v-16.8h5c3 0 5.25 1.11 5.25 4a3.73 3.73 0 0 1 -2.85 3.84zm-4.82-5.66v4.75h2.25a2.49 2.49 0 0 0 2.74-2.43c0-1.53-1-2.32-2.83-2.32zm0 7v5.23h2.28c2.06 0 3.31-1.05 3.31-2.66s-1.18-2.57-3.34-2.57z"/><path d="m276.38 758.68-.48 2.09h-4.66v10.15h-2.49v-12.24z"/><path d="m277.58 764.8c0-4 2.23-6.36 5.63-6.36s5.64 2.38 5.64 6.36-2.23 6.36-5.64 6.36-5.63-2.38-5.63-6.36zm2.54 0c0 2.69 1.22 4.27 3.09 4.27s3.1-1.58 3.1-4.27-1.22-4.27-3.1-4.27-3.09 1.58-3.09 4.27z"/><path d="m291.68 768.83c1.32-2.23 1.66-4.53 1.66-8.8v-1.35h8v10.15h1.95l-.48 5.13h-2v-3h-8.27v3h-2l-.48-5.13zm4.15-7.7a18.12 18.12 0 0 1 -1.48 7.7h4.53v-8.06h-3.05z"/><path d="m308.21 763.14h2.18c2.64 0 4.37 1.44 4.37 3.91s-1.73 3.87-4.37 3.87h-4.67v-12.24h2.49zm0 2.09v3.6h1.94c1.28 0 2.07-.67 2.07-1.8s-.79-1.8-2.07-1.8zm10.84 5.69h-2.49v-12.24h2.49z"/><path d="m337 762.09a4 4 0 0 1 3.45 4.17c0 3.43-2.56 4.66-5.85 4.66h-5v-16.8h5c3 0 5.26 1.11 5.26 4a3.72 3.72 0 0 1 -2.86 3.88zm-4.82-5.66v4.75h2.25a2.49 2.49 0 0 0 2.74-2.43c0-1.53-1-2.32-2.83-2.32zm0 7v5.23h2.28c2.06 0 3.31-1.05 3.31-2.66s-1.18-2.57-3.34-2.57z"/><path d="m353.57 765.37h-7.77c.17 2.38 1.42 3.7 3.62 3.7a6.74 6.74 0 0 0 3.05-.84l.81 1.89a8.92 8.92 0 0 1 -4.1 1c-3.6 0-5.95-2.36-5.95-6.36s2.21-6.36 5.52-6.36 5 1.92 5 4.92a9.87 9.87 0 0 1 -.18 2.05zm-7.67-1.94h5.66a2.61 2.61 0 0 0 -2.76-2.9c-1.66 0-2.69 1.17-2.9 2.9z"/><path d="m355.92 768.61a1.54 1.54 0 0 0 .82.24c1.13 0 1.75-2.32 1.75-8.13v-2h8.18v12.24h-2.49v-10.19h-3.31v.53c0 6.52-1.18 9.74-3.94 9.74a2.66 2.66 0 0 1 -1.58-.44z"/><path d="m370.63 770.92v-12.24h2.49v8.16h.1l5.64-8.16h2.23v12.24h-2.5v-8.16h-.09l-5.64 8.16z"/><path d="m390.9 764.58 4.05 6.34-2.54.24-3.53-5.55h-1.34v5.31h-2.49v-12.24h2.49v4.94h1.37l3.21-4.94h2.59z"/><path d="m396.27 764.8c0-4 2.23-6.36 5.64-6.36s5.64 2.38 5.64 6.36-2.23 6.36-5.64 6.36-5.64-2.38-5.64-6.36zm2.55 0c0 2.69 1.22 4.27 3.09 4.27s3.1-1.58 3.1-4.27-1.23-4.27-3.1-4.27-3.09 1.58-3.09 4.27z"/><path d="m410.79 770.92v-12.24h2.49v8.16h.1l5.63-8.16h2.23v12.24h-2.49v-8.16h-.1l-5.65 8.16zm9.21-16.34a4.59 4.59 0 0 1 -7.91 0l1.58-1.05a2.65 2.65 0 0 0 2.38 1.55 2.57 2.57 0 0 0 2.35-1.55z"/><path d="m438 771.16c-5 0-7-3.79-7-8.64s2-8.63 7-8.63 6.95 3.79 6.95 8.63-1.95 8.64-6.95 8.64zm0-15c-3.07 0-4.27 2.78-4.27 6.33s1.2 6.33 4.27 6.33 4.27-2.78 4.27-6.33-1.16-6.3-4.27-6.3z"/><path d="m447 758.68h10.4l-.48 2.09h-3.53v10.15h-2.47v-10.15h-3.92z"/><path d="m469.05 765.37h-7.77c.17 2.38 1.42 3.7 3.62 3.7a6.74 6.74 0 0 0 3.05-.84l.82 1.89a9 9 0 0 1 -4.11 1c-3.59 0-5.94-2.36-5.94-6.36s2.2-6.36 5.51-6.36 5 1.92 5 4.92a9.87 9.87 0 0 1 -.18 2.05zm-7.67-1.94h5.62a2.61 2.61 0 0 0 -2.76-2.9 2.92 2.92 0 0 0 -2.86 2.9z"/><path d="m471.79 762.47v-3.79h2.49v3.58a1.91 1.91 0 0 0 2.11 2.08 6.59 6.59 0 0 0 2.33-.43v-5.23h2.5v12.24h-2.5v-5a8 8 0 0 1 -2.71.5c-2.42.01-4.22-1.26-4.22-3.95z"/><path d="m494.79 765.37h-7.79c.17 2.38 1.42 3.7 3.62 3.7a6.74 6.74 0 0 0 3.05-.84l.82 1.89a9 9 0 0 1 -4.11 1c-3.59 0-5.95-2.36-5.95-6.36s2.21-6.36 5.52-6.36 5 1.92 5 4.92a9.87 9.87 0 0 1 -.16 2.05zm-7.67-1.94h5.66a2.61 2.61 0 0 0 -2.76-2.9c-1.66 0-2.69 1.17-2.9 2.9z"/><path d="m506.09 768.54.77 1.92a8 8 0 0 1 -3.36.7c-4 0-6-2.84-6-6.36s1.89-6.36 5.85-6.36a8.86 8.86 0 0 1 3.36.65l-.71 1.91a6.17 6.17 0 0 0 -2.44-.48c-2.07 0-3.46 1.73-3.46 4.27s1.37 4.27 3.43 4.27a6.93 6.93 0 0 0 2.56-.52z"/><path d="m508.18 758.68h10.36l-.48 2.09h-3.52v10.15h-2.47v-10.15h-3.89z"/><path d="m530.44 767.39c0 2.21-1.39 3.53-4.17 3.53h-5.33v-12.24h4.94c2.45 0 4.06.91 4.06 3.12a2.75 2.75 0 0 1 -2.09 2.62v.07a3 3 0 0 1 2.59 2.9zm-7-6.62v2.78h2c1.13 0 2-.36 2-1.39s-.76-1.39-1.82-1.39zm0 4.87v3.19h2.42c1.27 0 2-.51 2-1.58s-.84-1.61-2.28-1.61z"/><path d="m543.3 765.37h-7.77c.16 2.38 1.41 3.7 3.62 3.7a6.7 6.7 0 0 0 3-.84l.82 1.89a9 9 0 0 1 -4.1 1c-3.6 0-5.95-2.36-5.95-6.36s2.21-6.36 5.52-6.36 5 1.92 5 4.92a10.57 10.57 0 0 1 -.14 2.05zm-7.68-1.94h5.66a2.61 2.61 0 0 0 -2.76-2.9c-1.65 0-2.68 1.17-2.9 2.9z"/><path d="m556.56 770.92h-2.49v-5.26h-4.82v5.26h-2.5v-12.24h2.5v4.9h4.82v-4.9h2.49z"/><path d="m570.33 770.92h-2.49v-5.26h-4.84v5.26h-2.5v-12.24h2.5v4.9h4.82v-4.9h2.49z"/><path d="m573.57 764.8c0-4 2.23-6.36 5.64-6.36s5.64 2.38 5.64 6.36-2.24 6.36-5.64 6.36-5.64-2.38-5.64-6.36zm2.54 0c0 2.69 1.23 4.27 3.1 4.27s3.09-1.58 3.09-4.27-1.22-4.27-3.09-4.27-3.1 1.58-3.1 4.27z"/><path d="m588.08 770.92v-12.24h2.5v8.16h.09l5.64-8.16h2.23v12.24h-2.49v-8.16h-.05l-5.63 8.16zm9.19-16.34a4.59 4.59 0 0 1 -7.91 0l1.58-1.05a2.64 2.64 0 0 0 2.37 1.55 2.55 2.55 0 0 0 2.35-1.55z"/><path d="m618.36 767.39c0 2.21-1.39 3.53-4.18 3.53h-5.32v-12.24h4.94c2.45 0 4.05.91 4.05 3.12a2.75 2.75 0 0 1 -2.08 2.62v.07a3 3 0 0 1 2.59 2.9zm-7-6.62v2.78h2c1.13 0 2-.36 2-1.39s-.77-1.39-1.82-1.39zm0 4.87v3.19h2.43c1.27 0 2-.51 2-1.58s-.83-1.61-2.27-1.61z"/><path d="m620.88 764.8c0-4 2.23-6.36 5.63-6.36s5.64 2.38 5.64 6.36-2.23 6.36-5.64 6.36-5.63-2.38-5.63-6.36zm2.54 0c0 2.69 1.22 4.27 3.09 4.27s3.1-1.58 3.1-4.27-1.23-4.27-3.1-4.27-3.09 1.58-3.09 4.27z"/><path d="m635.39 770.92v-12.24h2.49v8.16h.1l5.64-8.16h2.23v12.24h-2.5v-8.16h-.09l-5.64 8.16zm9.19-16.34a4.6 4.6 0 0 1 -7.92 0l1.58-1.05a2.65 2.65 0 0 0 2.38 1.55 2.56 2.56 0 0 0 2.35-1.55z"/><path d="m659.62 770.92h-2.5v-5.26h-4.82v5.26h-2.49v-12.24h2.49v4.9h4.82v-4.9h2.5z"/><path d="m666.07 763.14h2.18c2.64 0 4.37 1.44 4.37 3.91s-1.73 3.87-4.37 3.87h-4.67v-12.24h2.49zm0 2.09v3.6h1.93c1.27 0 2.07-.67 2.07-1.8s-.8-1.8-2.07-1.8zm10.84 5.69h-2.49v-12.24h2.49z"/><path d="m253.47 792.4v.07a3.05 3.05 0 0 1 2.61 2.91c0 2.3-1.7 3.76-5.13 3.76a11.15 11.15 0 0 1 -4.1-.74l.77-1.92a9.71 9.71 0 0 0 3.26.58c1.56 0 2.66-.72 2.66-1.73s-.65-1.7-2.45-1.7h-1.65v-2h1.46c1.15 0 2.11-.46 2.11-1.54s-.91-1.58-2.06-1.58a10 10 0 0 0 -3.21.52l-.77-1.91a12.41 12.41 0 0 1 4.05-.7c2.93 0 4.53 1.2 4.53 3.36a2.72 2.72 0 0 1 -2.08 2.62z"/><path d="m259 796.82c1.32-2.23 1.66-4.54 1.66-8.81v-1.34h8v10.15h1.95l-.48 5.13h-2v-3.05h-8.23v3.1h-2l-.48-5.13zm4.15-7.7a18 18 0 0 1 -1.48 7.7h4.53v-8.06h-3.05z"/><path d="m282.57 793.36h-7.78c.17 2.38 1.42 3.7 3.63 3.7a6.82 6.82 0 0 0 3-.84l.82 1.89a8.94 8.94 0 0 1 -4.1 1c-3.6 0-5.95-2.35-5.95-6.35s2.2-6.36 5.51-6.36 5 1.92 5 4.92a10.57 10.57 0 0 1 -.13 2.04zm-7.68-1.94h5.66a2.61 2.61 0 0 0 -2.76-2.9c-1.65 0-2.68 1.17-2.9 2.9z"/><path d="m293.86 796.53.77 1.92a8.17 8.17 0 0 1 -3.36.69c-3.95 0-6-2.83-6-6.35s1.9-6.36 5.85-6.36a8.82 8.82 0 0 1 3.36.65l-.77 1.92a6.14 6.14 0 0 0 -2.44-.48c-2.06 0-3.46 1.72-3.46 4.27s1.37 4.27 3.43 4.27a7.14 7.14 0 0 0 2.62-.53z"/><path d="m302.28 791.13c2.64 0 4.37 1.44 4.37 3.91s-1.73 3.86-4.37 3.86h-4.89v-12.23h2.5v4.46zm-2.39 2.09v3.6h2.16c1.27 0 2.06-.68 2.06-1.8s-.79-1.8-2.06-1.8z"/><path d="m320.06 794.44h-.06l-2.9 4.46h-2.76l4.24-6.28-4-6h2.78l2.64 4.25h.07l2.61-4.25h2.81l-4 6 4.22 6.28-2.59.24z"/><path d="m330.74 803.7-2.5.48v-17.51h1.76l.48 1.29h.09a4.36 4.36 0 0 1 3.48-1.53c3.45 0 4.94 2.71 4.94 6.36s-1.51 6.35-5.16 6.35a7.15 7.15 0 0 1 -3.11-.65zm5.73-10.91c0-2.52-1-4.27-3.12-4.27a3.45 3.45 0 0 0 -2.61 1.51v6.16a4.46 4.46 0 0 0 2.71.87c1.89 0 3.02-1.56 3.02-4.27z"/><path d="m348.51 791.71v-.82c0-1.46-.62-2.37-2.42-2.37a9.81 9.81 0 0 0 -3.31.64l-.72-1.94a11.9 11.9 0 0 1 4.32-.79c3.74 0 4.63 2 4.63 4.51v5.13a.77.77 0 0 0 .86.87h.26v1.84a4.26 4.26 0 0 1 -1.44.24 1.9 1.9 0 0 1 -1.94-1.41h-.1a4.48 4.48 0 0 1 -3.45 1.39c-2.33 0-3.79-1.15-3.79-3.64 0-2.33 1.92-3.67 4.63-3.67zm-2.57 1.94a1.82 1.82 0 0 0 -2.06 1.77 1.61 1.61 0 0 0 1.8 1.64 3.54 3.54 0 0 0 2.83-1.52v-1.89z"/><path d="m364.7 798.9h-2.49v-5.25h-4.82v5.25h-2.5v-12.23h2.5v4.89h4.82v-4.89h2.49z"/><path d="m368.66 798.9v-12.23h2.5v8.15h.09l5.64-8.15h2.23v12.23h-2.5v-8.15h-.09l-5.64 8.15z"/><path d="m382.1 796.6a1.49 1.49 0 0 0 .81.24c1.13 0 1.75-2.33 1.75-8.13v-2h8.18v12.19h-2.49v-10.14h-3.35v.52c0 6.53-1.18 9.74-3.94 9.74a2.66 2.66 0 0 1 -1.58-.43z"/><path d="m396.8 798.9v-12.23h2.5v8.15h.09l5.64-8.15h2.23v12.23h-2.5v-8.15h-.09l-5.67 8.15z"/><path d="m419.06 796.53.77 1.92a8.17 8.17 0 0 1 -3.36.69c-4 0-6-2.83-6-6.35s1.89-6.36 5.85-6.36a8.86 8.86 0 0 1 3.36.65l-.77 1.92a6.18 6.18 0 0 0 -2.45-.48c-2.06 0-3.45 1.72-3.45 4.27s1.37 4.27 3.43 4.27a7.14 7.14 0 0 0 2.62-.53z"/><path d="m427.48 791.13c2.64 0 4.37 1.44 4.37 3.91s-1.73 3.86-4.37 3.86h-4.89v-12.23h2.49v4.46zm-2.4 2.09v3.6h2.16c1.27 0 2.06-.68 2.06-1.8s-.79-1.8-2.06-1.8z"/><path d="m442 791.66h4.73c-.29-1.92-1.42-3.14-3.15-3.14a7 7 0 0 0 -2.66.5l-.77-1.92a9.22 9.22 0 0 1 3.43-.67c4 0 5.78 2.83 5.78 6.36s-1.82 6.35-5.78 6.35a8.38 8.38 0 0 1 -3.55-.72l.77-1.92a7.1 7.1 0 0 0 2.78.56c1.8 0 2.93-1.32 3.17-3.36h-4.75z"/><path d="m462.07 795.38c0 2.2-1.39 3.52-4.17 3.52h-5.33v-12.23h4.94c2.45 0 4.06.91 4.06 3.12a2.73 2.73 0 0 1 -2.09 2.61v.07a3 3 0 0 1 2.59 2.91zm-7-6.62v2.78h2c1.13 0 2-.36 2-1.39s-.77-1.39-1.83-1.39zm0 4.87v3.19h2.42c1.27 0 2-.51 2-1.59s-.84-1.6-2.28-1.6z"/><path d="m471.57 791.71v-.82c0-1.46-.62-2.37-2.42-2.37a9.86 9.86 0 0 0 -3.31.64l-.72-1.94a11.9 11.9 0 0 1 4.32-.79c3.74 0 4.63 2 4.63 4.51v5.13a.77.77 0 0 0 .86.87h.26v1.84a4.26 4.26 0 0 1 -1.44.24 1.9 1.9 0 0 1 -1.94-1.41h-.09a4.51 4.51 0 0 1 -3.46 1.41c-2.33 0-3.79-1.15-3.79-3.64 0-2.33 1.92-3.67 4.63-3.67zm-2.57 1.94a1.83 1.83 0 0 0 -2.06 1.77 1.61 1.61 0 0 0 1.8 1.64 3.54 3.54 0 0 0 2.83-1.52v-1.89z"/><path d="m483.81 792.57 4.05 6.33-2.54.24-3.53-5.54h-1.34v5.3h-2.45v-12.23h2.5v4.94h1.36l3.22-4.94h2.59z"/><path d="m490.16 801.78a3.46 3.46 0 0 0 1.32.31c.55 0 1.18-.26 1.51-1.41l.53-1.78h-.89l-4.29-12.23h2.73l3.17 9.38h.1l2.83-9.38h2.68l-4.7 14.58c-.77 2.35-2.2 2.93-3.52 2.93a5.37 5.37 0 0 1 -2.11-.46z"/><path d="m502 798.9v-12.23h2.5v8.15h.09l5.64-8.15h2.23v12.23h-2.46v-8.15h-.1l-5.64 8.15z"/><path d="m518.93 803.7-2.5.48v-17.51h1.78l.48 1.29h.09a4.35 4.35 0 0 1 3.48-1.53c3.45 0 4.94 2.71 4.94 6.36s-1.51 6.35-5.16 6.35a7.15 7.15 0 0 1 -3.11-.65zm5.73-10.91c0-2.52-1-4.27-3.12-4.27a3.45 3.45 0 0 0 -2.61 1.51v6.16a4.46 4.46 0 0 0 2.71.87c1.89 0 3.02-1.56 3.02-4.27z"/><path d="m529.72 792.79c0-4 2.23-6.36 5.64-6.36s5.63 2.37 5.63 6.36-2.23 6.35-5.63 6.35-5.64-2.37-5.64-6.35zm2.54 0c0 2.68 1.23 4.27 3.1 4.27s3.09-1.59 3.09-4.27-1.22-4.27-3.09-4.27-3.1 1.58-3.1 4.27z"/><path d="m553.73 795.38c0 2.2-1.39 3.52-4.17 3.52h-5.33v-12.23h4.95c2.44 0 4.05.91 4.05 3.12a2.72 2.72 0 0 1 -2.09 2.61v.07a3 3 0 0 1 2.59 2.91zm-7-6.62v2.78h2c1.12 0 2-.36 2-1.39s-.77-1.39-1.83-1.39zm0 4.87v3.19h2.42c1.27 0 2-.51 2-1.59s-.84-1.6-2.28-1.6z"/><path d="m563.23 791.71v-.82c0-1.46-.62-2.37-2.42-2.37a9.86 9.86 0 0 0 -3.31.64l-.72-1.94a11.9 11.9 0 0 1 4.32-.79c3.74 0 4.63 2 4.63 4.51v5.13a.77.77 0 0 0 .86.87h.26v1.84a4.26 4.26 0 0 1 -1.44.24 1.9 1.9 0 0 1 -1.94-1.41h-.09a4.51 4.51 0 0 1 -3.46 1.41c-2.33 0-3.79-1.15-3.79-3.64 0-2.33 1.92-3.67 4.63-3.67zm-2.57 1.94a1.83 1.83 0 0 0 -2.06 1.77 1.61 1.61 0 0 0 1.8 1.64 3.54 3.54 0 0 0 2.83-1.52v-1.89z"/><path d="m579.42 798.9h-2.49v-5.25h-4.82v5.25h-2.5v-12.23h2.5v4.89h4.82v-4.89h2.49z"/><path d="m593.19 798.9h-2.49v-5.25h-4.82v5.25h-2.5v-12.23h2.5v4.89h4.82v-4.89h2.49z"/><path d="m599.65 791.13h2.18c2.64 0 4.36 1.44 4.36 3.91s-1.72 3.86-4.36 3.86h-4.68v-12.23h2.5zm0 2.09v3.6h1.94c1.27 0 2.06-.68 2.06-1.8s-.79-1.8-2.06-1.8zm10.84 5.68h-2.49v-12.23h2.5z"/><path d="m624.07 793.36h-7.78c.17 2.38 1.42 3.7 3.63 3.7a6.82 6.82 0 0 0 3-.84l.82 1.89a8.94 8.94 0 0 1 -4.1 1c-3.6 0-5.95-2.35-5.95-6.35s2.2-6.36 5.51-6.36 5 1.92 5 4.92a10.57 10.57 0 0 1 -.13 2.04zm-7.68-1.94h5.66a2.61 2.61 0 0 0 -2.76-2.9c-1.65 0-2.68 1.17-2.9 2.9z"/><path d="m247.81 826.89v-12.23h2.49v8.15h.1l5.63-8.15h2.24v12.23h-2.5v-8.15h-.09l-5.68 8.15z"/><path d="m267.89 820.39v.07a3.05 3.05 0 0 1 2.61 2.9c0 2.31-1.7 3.77-5.13 3.77a11.36 11.36 0 0 1 -4.1-.74l.76-1.92a10.08 10.08 0 0 0 3.27.57c1.55 0 2.66-.72 2.66-1.72s-.65-1.71-2.45-1.71h-1.65v-2h1.46c1.15 0 2.11-.45 2.11-1.53s-.91-1.59-2.06-1.59a10.06 10.06 0 0 0 -3.22.53l-.76-1.92a12.62 12.62 0 0 1 4.05-.69c2.93 0 4.53 1.2 4.53 3.36a2.73 2.73 0 0 1 -2.08 2.62z"/><path d="m285.73 812c-2.66.19-4 1.13-4 4.63h.08a5 5 0 0 1 3.88-1.58c3 0 5.06 2 5.06 6.07s-2.37 6-5.78 6c-3.95 0-5.63-3-5.63-7.84 0-7.73 2.15-9.14 6.11-9.5a12.47 12.47 0 0 0 4-.89l.75 2a12.54 12.54 0 0 1 -4.47 1.11zm-.73 13c1.87 0 3.24-1.29 3.24-3.95s-1.25-4-2.95-4a4.05 4.05 0 0 0 -3.43 2.09c.01 3.96.99 5.86 3.14 5.86z"/><path d="m292.93 824.59a1.5 1.5 0 0 0 .82.24c1.12 0 1.75-2.33 1.75-8.13v-2h8.18v12.23h-2.5v-10.19h-3.31v.53c0 6.53-1.17 9.74-3.93 9.74a2.71 2.71 0 0 1 -1.59-.43z"/><path d="m306.92 820.77c0-4 2.23-6.35 5.63-6.35s5.64 2.37 5.64 6.35-2.23 6.36-5.64 6.36-5.63-2.37-5.63-6.36zm2.54 0c0 2.69 1.22 4.27 3.09 4.27s3.1-1.58 3.1-4.27-1.23-4.27-3.1-4.27-3.09 1.59-3.09 4.27z"/><path d="m327.28 820.56 4.06 6.33-2.55.24-3.52-5.54h-1.35v5.3h-2.49v-12.23h2.49v4.94h1.37l3.21-4.94h2.59z"/><path d="m339.76 819.69v-.81c0-1.46-.63-2.38-2.43-2.38a9.63 9.63 0 0 0 -3.31.65l-.72-1.94a12 12 0 0 1 4.32-.79c3.74 0 4.63 2 4.63 4.51v5.13a.77.77 0 0 0 .86.86h.27v1.85a4.52 4.52 0 0 1 -1.44.24 1.88 1.88 0 0 1 -1.94-1.41h-.1a4.49 4.49 0 0 1 -3.45 1.41c-2.33 0-3.79-1.15-3.79-3.65 0-2.32 1.91-3.67 4.63-3.67zm-2.57 1.95a1.82 1.82 0 0 0 -2.06 1.77 1.6 1.6 0 0 0 1.8 1.63 3.57 3.57 0 0 0 2.83-1.51v-1.89z"/><path d="m346 824.8c1.32-2.23 1.65-4.53 1.65-8.8v-1.34h8v10.14h1.94l-.48 5.14h-2v-3.05h-8.28v3.05h-2l-.48-5.14zm4.15-7.7a18 18 0 0 1 -1.49 7.7h4.54v-8.06h-3.05z"/><path d="m369.81 826.89h-2.49v-5.25h-4.82v5.25h-2.5v-12.23h2.5v4.89h4.82v-4.89h2.49z"/><path d="m373.05 820.77c0-4 2.23-6.35 5.64-6.35s5.64 2.37 5.64 6.35-2.24 6.36-5.64 6.36-5.64-2.37-5.64-6.36zm2.54 0c0 2.69 1.23 4.27 3.1 4.27s3.09-1.58 3.09-4.27-1.22-4.27-3.09-4.27-3.1 1.59-3.1 4.27z"/><path d="m395.19 814.66-.48 2.08h-4.65v10.15h-2.49v-12.23z"/><path d="m396.39 820.77c0-4 2.23-6.35 5.64-6.35s5.64 2.37 5.64 6.35-2.23 6.36-5.64 6.36-5.64-2.37-5.64-6.36zm2.55 0c0 2.69 1.22 4.27 3.09 4.27s3.09-1.58 3.09-4.27-1.22-4.27-3.09-4.27-3.09 1.59-3.09 4.27z"/><path d="m428.66 810.1v16.79h-2.59v-14.49h-4.32c0 9.91-1.18 14.61-4.82 14.61a3.62 3.62 0 0 1 -1.59-.34l.48-2.18a1.5 1.5 0 0 0 .72.17c1.92 0 2.62-4.22 2.62-14.56z"/><path d="m442.47 821.35h-7.77c.17 2.37 1.42 3.69 3.62 3.69a6.74 6.74 0 0 0 3.05-.84l.82 1.9a9 9 0 0 1 -4.11 1c-3.59 0-5.94-2.35-5.94-6.36s2.2-6.35 5.51-6.35 5 1.92 5 4.91a9.89 9.89 0 0 1 -.18 2.05zm-7.67-1.94h5.66a2.61 2.61 0 0 0 -2.76-2.91c-1.65 0-2.7 1.18-2.9 2.91z"/><path d="m455.74 826.89h-2.5v-5.25h-4.82v5.25h-2.49v-12.23h2.49v4.89h4.82v-4.89h2.5z"/><path d="m459.7 826.89v-12.23h2.49v8.15h.1l5.64-8.15h2.23v12.23h-2.5v-8.15h-.09l-5.64 8.15z"/><path d="m483.93 826.89h-2.5v-5.25h-4.82v5.25h-2.49v-12.23h2.49v4.89h4.82v-4.89h2.5z"/><path d="m495.51 814.66-.48 2.08h-4.65v10.15h-2.49v-12.23z"/><path d="m500.17 831.69-2.5.48v-17.51h1.78l.48 1.29h.07a4.36 4.36 0 0 1 3.48-1.53c3.46 0 4.94 2.71 4.94 6.35s-1.51 6.36-5.15 6.36a7.16 7.16 0 0 1 -3.12-.65zm5.73-10.92c0-2.51-1-4.27-3.12-4.27a3.43 3.43 0 0 0 -2.61 1.52v6.16a4.45 4.45 0 0 0 2.71.86c1.89-.04 3.02-1.56 3.02-4.27z"/><path d="m517.94 819.69v-.81c0-1.46-.62-2.38-2.42-2.38a9.63 9.63 0 0 0 -3.31.65l-.72-1.94a11.94 11.94 0 0 1 4.32-.79c3.74 0 4.63 2 4.63 4.51v5.13a.77.77 0 0 0 .86.86h.27v1.85a4.52 4.52 0 0 1 -1.44.24 1.9 1.9 0 0 1 -2-1.41h-.09a4.5 4.5 0 0 1 -3.46 1.41c-2.32 0-3.79-1.15-3.79-3.65 0-2.32 1.92-3.67 4.63-3.67zm-2.56 1.95a1.83 1.83 0 0 0 -2.07 1.77 1.61 1.61 0 0 0 1.8 1.63 3.56 3.56 0 0 0 2.83-1.51v-1.89z"/><path d="m524.16 824.8c1.32-2.23 1.65-4.53 1.65-8.8v-1.34h8v10.14h1.94l-.48 5.14h-2v-3.05h-8.27v3.05h-2l-.47-5.14zm4.15-7.7a18 18 0 0 1 -1.49 7.7h4.53v-8.06h-3z"/><path d="m544.45 819.69v-.81c0-1.46-.62-2.38-2.42-2.38a9.54 9.54 0 0 0 -3.31.65l-.72-1.94a11.9 11.9 0 0 1 4.32-.79c3.74 0 4.63 2 4.63 4.51v5.13a.77.77 0 0 0 .86.86h.26v1.85a4.52 4.52 0 0 1 -1.44.24 1.9 1.9 0 0 1 -1.94-1.41h-.1a4.48 4.48 0 0 1 -3.45 1.41c-2.33 0-3.79-1.15-3.79-3.65 0-2.32 1.92-3.67 4.63-3.67zm-2.57 1.95a1.82 1.82 0 0 0 -2.06 1.77 1.61 1.61 0 0 0 1.8 1.63 3.56 3.56 0 0 0 2.83-1.51v-1.89z"/><path d="m563 820.56 4.05 6.33-2.54.24-3.51-5.54h-1.35v5.3h-2.49v-12.23h2.49v4.94h1.37l3.21-4.94h2.59z"/><path d="m568.42 820.77c0-4 2.23-6.35 5.63-6.35s5.64 2.37 5.64 6.35-2.23 6.36-5.64 6.36-5.63-2.37-5.63-6.36zm2.54 0c0 2.69 1.22 4.27 3.09 4.27s3.1-1.58 3.1-4.27-1.23-4.27-3.1-4.27-3.05 1.59-3.05 4.27z"/><path d="m581.7 824.59a1.54 1.54 0 0 0 .82.24c1.13 0 1.75-2.33 1.75-8.13v-2h8.18v12.23h-2.45v-10.19h-3.31v.53c0 6.53-1.18 9.74-3.94 9.74a2.66 2.66 0 0 1 -1.58-.43z"/><path d="m595.43 824.59a1.49 1.49 0 0 0 .81.24c1.13 0 1.75-2.33 1.75-8.13v-2h8.18v12.23h-2.49v-10.19h-3.31v.53c0 6.53-1.18 9.74-3.94 9.74a2.66 2.66 0 0 1 -1.58-.43z"/><path d="m619.75 821.35h-7.75c.17 2.37 1.41 3.69 3.62 3.69a6.77 6.77 0 0 0 3-.84l.81 1.9a8.91 8.91 0 0 1 -4.1 1c-3.6 0-6-2.35-6-6.36s2.21-6.35 5.52-6.35 5 1.92 5 4.91a10.64 10.64 0 0 1 -.1 2.05zm-7.68-1.94h5.67a2.62 2.62 0 0 0 -2.74-2.91c-1.68 0-2.71 1.18-2.93 2.91z"/><path d="m629.06 820.56 4.05 6.33-2.54.24-3.57-5.54h-1.3v5.3h-2.5v-12.23h2.5v4.94h1.37l3.21-4.94h2.59z"/><path d="m646.45 829.94h-2v-3.05h-9v-12.23h2.5v10.14h4.6v-10.14h2.45v10.14h1.94z"/><path d="m649.33 826.89v-12.23h2.49v8.15h.1l5.64-8.15h2.23v12.23h-2.5v-8.15h-.09l-5.64 8.15z"/><path d="m663.75 826.89v-12.23h2.49v8.15h.1l5.63-8.15h2.23v12.23h-2.49v-8.15h-.1l-5.61 8.15z"/><path d="m250.64 840.39v14.49h-2.59v-16.79h9.35l-.48 2.3z"/><path d="m255.6 848.76c0-4 2.24-6.36 5.64-6.36s5.64 2.38 5.64 6.36-2.23 6.36-5.64 6.36-5.64-2.38-5.64-6.36zm2.55 0c0 2.69 1.22 4.27 3.09 4.27s3.1-1.58 3.1-4.27-1.23-4.27-3.1-4.27-3.09 1.58-3.09 4.27z"/><path d="m278 852.5.77 1.92a8 8 0 0 1 -3.36.7c-4 0-6-2.83-6-6.36s1.89-6.36 5.85-6.36a8.86 8.86 0 0 1 3.36.65l-.77 1.92a6.36 6.36 0 0 0 -2.45-.48c-2.06 0-3.45 1.73-3.45 4.27s1.37 4.27 3.43 4.27a6.93 6.93 0 0 0 2.62-.53z"/><path d="m281.51 857.76a3.66 3.66 0 0 0 1.32.31c.55 0 1.18-.27 1.51-1.42l.53-1.77h-.87l-4.29-12.24h2.73l3.17 9.38h.1l2.83-9.38h2.68l-4.7 14.59c-.77 2.35-2.21 2.92-3.53 2.92a5.66 5.66 0 0 1 -2.11-.45z"/><path d="m292.71 852.79c1.32-2.23 1.66-4.53 1.66-8.8v-1.35h8v10.15h1.94l-.48 5.13h-2v-3h-8.27v3h-2l-.48-5.13zm4.15-7.7a18 18 0 0 1 -1.48 7.7h4.53v-8.06h-3.05z"/><path d="m313 847.68v-.81c0-1.47-.63-2.38-2.42-2.38a9.54 9.54 0 0 0 -3.31.65l-.72-1.94a11.9 11.9 0 0 1 4.31-.8c3.75 0 4.63 2 4.63 4.51v5.14a.77.77 0 0 0 .87.86h.26v1.85a4.52 4.52 0 0 1 -1.44.24 1.88 1.88 0 0 1 -1.94-1.42h-.1a4.46 4.46 0 0 1 -3.44 1.42c-2.33 0-3.79-1.15-3.79-3.65 0-2.32 1.92-3.67 4.63-3.67zm-2.57 1.94a1.83 1.83 0 0 0 -2.06 1.78 1.61 1.61 0 0 0 1.8 1.63 3.57 3.57 0 0 0 2.83-1.51v-1.9z"/><path d="m321.88 859.68-2.49.47v-17.51h1.77l.48 1.3h.1a4.33 4.33 0 0 1 3.48-1.54c3.45 0 4.94 2.71 4.94 6.36s-1.51 6.36-5.16 6.36a7.22 7.22 0 0 1 -3.12-.65zm5.74-10.92c0-2.52-1-4.27-3.12-4.27a3.48 3.48 0 0 0 -2.62 1.51v6.17a4.49 4.49 0 0 0 2.71.86c1.9-.03 3.03-1.56 3.03-4.27z"/><path d="m341.24 852.5.77 1.92a8 8 0 0 1 -3.36.7c-4 0-6-2.83-6-6.36s1.89-6.36 5.85-6.36a8.86 8.86 0 0 1 3.36.65l-.77 1.92a6.32 6.32 0 0 0 -2.44-.48c-2.07 0-3.46 1.73-3.46 4.27s1.37 4.27 3.43 4.27a6.93 6.93 0 0 0 2.62-.53z"/><path d="m343.33 842.64h10.36l-.48 2.09h-3.52v10.15h-2.47v-10.15h-3.89z"/><path d="m365.59 851.35c0 2.21-1.39 3.53-4.17 3.53h-5.33v-12.24h4.91c2.45 0 4.06.92 4.06 3.12a2.75 2.75 0 0 1 -2.09 2.62v.07a3 3 0 0 1 2.62 2.9zm-7-6.62v2.78h2c1.13 0 2-.36 2-1.39s-.76-1.39-1.82-1.39zm0 4.87v3.19h2.41c1.27 0 2-.5 2-1.58s-.84-1.61-2.28-1.61z"/><path d="m378.45 849.34h-7.77c.16 2.37 1.41 3.69 3.62 3.69a6.7 6.7 0 0 0 3-.84l.82 1.9a8.91 8.91 0 0 1 -4.1 1c-3.6 0-5.95-2.35-5.95-6.36s2.21-6.36 5.52-6.36 5 1.92 5 4.92a10.67 10.67 0 0 1 -.14 2.05zm-7.68-2h5.66a2.6 2.6 0 0 0 -2.75-2.9c-1.68.05-2.68 1.23-2.91 2.95z"/><path d="m391.71 854.88h-2.49v-5.26h-4.82v5.26h-2.5v-12.24h2.5v4.9h4.82v-4.9h2.49z"/><path d="m405.48 854.88h-2.48v-5.26h-4.82v5.26h-2.5v-12.24h2.5v4.9h4.82v-4.9h2.49z"/><path d="m408.72 848.76c0-4 2.23-6.36 5.64-6.36s5.64 2.38 5.64 6.36-2.24 6.36-5.64 6.36-5.64-2.38-5.64-6.36zm2.54 0c0 2.69 1.23 4.27 3.1 4.27s3.09-1.58 3.09-4.27-1.22-4.27-3.09-4.27-3.1 1.58-3.1 4.27z"/><path d="m430.86 842.64-.48 2.09h-4.65v10.15h-2.49v-12.24z"/><path d="m432.06 848.76c0-4 2.23-6.36 5.64-6.36s5.64 2.38 5.64 6.36-2.23 6.36-5.64 6.36-5.64-2.38-5.64-6.36zm2.55 0c0 2.69 1.22 4.27 3.09 4.27s3.1-1.58 3.1-4.27-1.23-4.27-3.1-4.27-3.09 1.58-3.09 4.27z"/><path d="m453.44 841-1-2a9 9 0 0 1 4.49-1.08c4.74 0 7.07 3.74 7.07 8.63s-2.37 8.64-7.12 8.64a8.62 8.62 0 0 1 -4.66-1.3l1-2a6.63 6.63 0 0 0 3.48 1c2.81 0 4.22-2.21 4.48-5.23h-6.11v-2.31h6.11c-.28-2.95-1.7-5.13-4.48-5.13a6.81 6.81 0 0 0 -3.26.78z"/><path d="m470 859.68-2.5.47v-17.51h1.78l.48 1.3h.09a4.33 4.33 0 0 1 3.48-1.54c3.45 0 4.94 2.71 4.94 6.36s-1.51 6.36-5.16 6.36a7.15 7.15 0 0 1 -3.11-.65zm5.73-10.92c0-2.52-1-4.27-3.12-4.27a3.45 3.45 0 0 0 -2.61 1.51v6.17a4.45 4.45 0 0 0 2.71.86c1.86-.03 2.99-1.56 2.99-4.27z"/><path d="m489 852.89h-2.59l-2.4-6.67h-.09l-.7 8.66h-2.47l1.18-12.24h2.85l2.88 7.82h.09l2.88-7.82h2.86l1.17 12.24h-2.46l-.69-8.66h-.1z"/><path d="m497.91 854.88v-12.24h2.5v8.16h.09l5.64-8.16h2.23v12.24h-2.49v-8.16h-.1l-5.64 8.16z"/><path d="m510.89 842.64h10.36l-.48 2.09h-3.52v10.15h-2.47v-10.15h-3.89z"/><path d="m529.67 847.68v-.81c0-1.47-.62-2.38-2.42-2.38a9.63 9.63 0 0 0 -3.31.65l-.72-1.94a12 12 0 0 1 4.32-.8c3.74 0 4.63 2 4.63 4.51v5.14a.77.77 0 0 0 .86.86h.27v1.85a4.52 4.52 0 0 1 -1.44.24 1.9 1.9 0 0 1 -2-1.42h-.09a4.47 4.47 0 0 1 -3.46 1.42c-2.32 0-3.79-1.15-3.79-3.65 0-2.32 1.92-3.67 4.63-3.67zm-2.56 1.94a1.84 1.84 0 0 0 -2.11 1.78 1.61 1.61 0 0 0 1.8 1.63 3.56 3.56 0 0 0 2.83-1.51v-1.9z"/><path d="m546.51 848.54 4.18 6.34-2.69.24-3.45-5.54h-.75v5.3h-2.42v-5.3h-.74l-3.29 5.3h-2.85l4.17-6.34-3.93-5.9h2.56l3.24 5h.84v-5h2.42v5h.84l3.24-5h2.57z"/><path d="m559.23 847.68v-.81c0-1.47-.63-2.38-2.43-2.38a9.63 9.63 0 0 0 -3.31.65l-.72-1.94a12 12 0 0 1 4.32-.8c3.74 0 4.63 2 4.63 4.51v5.14a.77.77 0 0 0 .87.86h.26v1.85a4.52 4.52 0 0 1 -1.44.24 1.88 1.88 0 0 1 -1.94-1.42h-.1a4.46 4.46 0 0 1 -3.45 1.42c-2.33 0-3.79-1.15-3.79-3.65 0-2.32 1.92-3.67 4.63-3.67zm-2.57 1.94a1.83 1.83 0 0 0 -2.06 1.78 1.61 1.61 0 0 0 1.8 1.63 3.57 3.57 0 0 0 2.83-1.51v-1.9z"/><path d="m566.47 852a1.59 1.59 0 1 1 -1.58 1.58 1.59 1.59 0 0 1 1.58-1.58z"/><path d="m748.92 218.63v-33.63h6.14v28h12.57v-28h6.14v28h4.56l-1 12.62h-5.18v-7.05z"/><path d="m799.25 212.39 2.06 4.65a18.89 18.89 0 0 1 -8.44 2.07c-7.2 0-12.14-4.71-12.14-12.72s4.32-12.71 11.23-12.71c6.38 0 10.36 4 10.36 10.84a33.06 33.06 0 0 1 -.29 3.7h-15.25c.62 3.78 3.22 5.78 6.38 5.78a14.59 14.59 0 0 0 6.09-1.61zm-2.35-8.73a4.54 4.54 0 0 0 -4.85-4.85c-2.54 0-4.6 1.68-5.18 4.85z"/><path d="m828.18 218.63h-5.95v-10h-8.23v10h-5.95v-24.47h5.95v9.31h8.2v-9.31h5.95z"/><path d="m832.5 194.16h21.2l-1 5.13h-6.81v19.34h-5.89v-19.34h-7.5z"/><path d="m863.44 196.27a9.11 9.11 0 0 1 6.34-2.59c6.9 0 10 5.32 10 12.71s-3.16 12.72-10.46 12.72a18.05 18.05 0 0 1 -5.61-.87v10l-6 1v-35h4.51l1 2.11zm10.32 10.12c0-4.46-1.83-7.58-5.42-7.58a6.44 6.44 0 0 0 -4.61 2.4v11.47a9.34 9.34 0 0 0 4.8 1.29c3.21.03 5.23-2.78 5.23-7.58z"/><path d="m906.67 214.07-4.46 2.4-6.09-10.65 6.09-10.65 4.46 2.4-4.7 8.25zm9.74 0-4.46 2.4-6.09-10.65 6.14-10.65 4.46 2.4-4.7 8.25z"/><path d="m922.74 211.62a13.21 13.21 0 0 0 6.72 1.92c4.89 0 7.58-3.89 8.2-9.21h-11.66v-5.18h11.66c-.68-5.23-3.36-9-8.16-9a14 14 0 0 0 -6.33 1.53l-2.45-4.94a18.9 18.9 0 0 1 9.21-2.16c9.5 0 14.39 7.49 14.39 17.27s-5 17.28-14.48 17.28a18.14 18.14 0 0 1 -9.55-2.6z"/><path d="m956.18 196.27a9.11 9.11 0 0 1 6.34-2.59c6.91 0 10 5.32 10 12.71s-3.16 12.72-10.46 12.72a18.1 18.1 0 0 1 -5.61-.87v10l-6 1v-35h4.55l1 2.11zm10.32 10.12c0-4.46-1.82-7.58-5.42-7.58a6.45 6.45 0 0 0 -4.61 2.4v11.47a9.37 9.37 0 0 0 4.8 1.29c3.21.03 5.23-2.78 5.23-7.58z"/><path d="m998.07 204.09h-.19l-4.27 10.55h-5.18l-4.32-10.55h-.19l-1.16 14.54h-5.9l2.35-24.47h6.29l5.42 13.05h.19l5.42-13.05h6.29l2.35 24.47h-5.9z"/><path d="m1026.38 204h-.15l-9.88 14.68h-5.42v-24.52h6v14.68h.14l9.88-14.68h5.42v24.47h-5.94z"/><path d="m1036.64 194.16h21.21l-1 5.13h-6.81v19.34h-5.9v-19.34h-7.54z"/><path d="m1073.49 202.6c0-2.35-1.2-3.79-4.13-3.79a19.32 19.32 0 0 0 -6.52 1.3l-1.78-4.8a24.55 24.55 0 0 1 8.88-1.63c7.48 0 9.5 3.93 9.5 9v9.32a1.54 1.54 0 0 0 1.73 1.72h.52v4.66a11.38 11.38 0 0 1 -3.4.48 4.36 4.36 0 0 1 -4.32-2.36h-.19c-1.73 1.73-3.65 2.36-6.43 2.36-4.65 0-7.58-2.31-7.58-7.3 0-4.7 3.74-7.34 9.16-7.34h4.56zm0 9v-2.78h-4.37c-2.2 0-3.45 1.1-3.45 2.69a2.43 2.43 0 0 0 2.64 2.49 7 7 0 0 0 5.18-2.43z"/><path d="m1103.76 208.5h-1v10.13h-5.81v-10.13h-1.05l-5.9 10.13h-6.67l7.87-12.67-7.39-11.8h6.1l5.71 9.4h1.24v-9.4h5.81v9.4h1.33l5.71-9.4h6.1l-7.39 11.8 7.87 12.67-6.34.48z"/><path d="m1119.36 207.5v-5.33h13.52l-1 5.33z"/><path d="m1155.19 185h6.53l-9.93 26.39c-1.59 4.17-4 7.68-8.64 7.68a8.66 8.66 0 0 1 -5.37-1.68l2.93-4.75a3.38 3.38 0 0 0 2.2.86c1 0 2.07-.91 3-3.26l.67-1.68h-1.92l-10.33-23.56h7l7.39 17.32h.14z"/><path d="m1168.82 196.27a9.09 9.09 0 0 1 6.33-2.59c6.91 0 10 5.32 10 12.71s-3.17 12.72-10.46 12.72a18.05 18.05 0 0 1 -5.61-.87v10l-5.95 1v-35h4.51l1 2.11zm10.32 10.12c0-4.46-1.83-7.58-5.43-7.58a6.42 6.42 0 0 0 -4.6 2.4v11.47a9.34 9.34 0 0 0 4.8 1.29c3.21.03 5.23-2.78 5.23-7.58z"/><path d="m1203 202.6c0-2.35-1.2-3.79-4.12-3.79a19.38 19.38 0 0 0 -6.53 1.3l-1.77-4.8a24.46 24.46 0 0 1 8.87-1.63c7.48 0 9.5 3.93 9.5 9v9.32a1.54 1.54 0 0 0 1.73 1.72h.52v4.66a11.38 11.38 0 0 1 -3.4.48 4.36 4.36 0 0 1 -4.32-2.36h-.19c-1.73 1.73-3.65 2.36-6.43 2.36-4.65 0-7.58-2.31-7.58-7.3 0-4.7 3.74-7.34 9.16-7.34h4.56zm0 9v-2.78h-4.37c-2.2 0-3.45 1.1-3.45 2.69a2.43 2.43 0 0 0 2.64 2.49 6.94 6.94 0 0 0 5.18-2.43z"/><path d="m1224.57 199.58c0 12.76-2.88 19.29-8.35 19.29a6 6 0 0 1 -3.36-.87l1.49-4.75a2.51 2.51 0 0 0 1.2.29c1.87 0 3.31-3.17 3.31-16.26v-3.12h17.14v24.47h-6v-19.34h-5.47z"/><path d="m1246 205.82-4.7-8.25 4.46-2.4 6.09 10.65-6.09 10.65-4.46-2.4zm9.74 0-4.7-8.25 4.46-2.4 6.09 10.65-6.09 10.65-4.46-2.4z"/><path d="m1253.1 618.51v-70.07l4.29-.06h3v-95.38l2.52-.12v-8.94l-3.15.16-.92.05v-4.15l-3.16.17-10.3.56v-10.73l-3.2.21-205.18 13.45-76.43-13.2v-2.88h1.16v-9.88h-1.16v-2.92h-16.68a8.07 8.07 0 0 0 -13.64-.67l-3.91-1.93-10.87-5.37-.63-.31h-52.5l-54.08-17-.44-.14h-98.14l.47-.47h3.68v-5.52l-2-.71-9-3.16v-4h-1.23v-20.14l-.6-.36.62-.36v-6.86h-2.86v-1.61a9.65 9.65 0 1 0 -19.3 0v1.61h-2.86v6.31h-3v2.13h-16.6v-2.13h-10.12v2.13h-16.59v-2.13h-1.49v-58.75h1.49v-11.53l-1.8-.78-9.2-4-1.2-.52-1.2.52-9.2 4-1.81.78v11.53h1.49v44.66a9.59 9.59 0 0 0 -2.21 6.13v1.61h-2.87v6.86l.62.36-.62.36v20.15h-1.23v4l-9 3.16-2 .71v5.52h3.69l.46.47h-324.21v-12.66h-16.17v38.11h-4.57v2.92h-1.16v9.88h1.16v2.6h-1.16v6.64l-8.87 4.18-1.71.81v3.89l1.57.85 4.54 2.45v4h5.37v145.49h-1.46v20h-34.14v3.22h1075.37v-3.22zm-658.25-233.13 7.25-2.56h25.4l6.44 2.56zm55.53-27.8h3.14v20.42h-3.14zm26.72 0h2v2.14h1.16v1.52h-1.16v3.14h1.16v1.52h-1.16v12.1h-2zm3-6.31h18v1.37a2.91 2.91 0 0 0 -.73 3.94h-16.56a2.91 2.91 0 0 0 -.73-3.94zm15.16-1h-12.3v-4.11a6.15 6.15 0 1 1 12.3 0zm236 69.92h-3.56v-1.91h3.56zm1-1.44a4.58 4.58 0 1 1 9.16 0v13.93h-9.16zm10.16-.47h3.82v1.91h-3.82zm-37.63 196.29v-7.3h9.29v10h-7.74v-2.72zm-131.23 0v-7.3h7.59v10h-6v-2.72zm-212.51 0v-7.3h26.66v10h-25.11v-2.72zm-39.12-7.3h7.93v7.3h-1.55v2.72h-6.38zm2.07-44.11h14.13v42.11h-14.13zm15.62 1h30.38v41.11h-30.4zm5.38 44.11v5.3h-4.2v-5.3zm14.1 0v5.3h-2.73v-5.3zm-4.23 5.3h-3.66v-5.3h3.66zm-4.66 0h-4.21v-5.3h4.21zm-10.41-5.3v5.3h-3.66v-5.3zm-5.16 5.3h-2.73v-5.3h2.73zm36.92-8.3v-42.11h14.13v42.11zm14.13-44.11h-5.51v-14.28h5.51zm-6.51 0h-6.18v-14.28h6.12zm-7.62 1h-6.17v-15.28h6.17zm-7.17 0h-5.68v-15.28h5.68zm-6.68 0h-5.71v-15.28h5.68zm-6.68 0h-5.73v-15.28h5.7zm-6.68 0h-6.17v-15.28h6.17zm-7.67-1h-5.82v-14.28h5.82zm-6.82 0h-5.86v-14.28h5.81zm-.5 54.41h32.24v1.72h-32.29zm59.4-5.14h3.85v6.86h-3.85zm0-1v-3.16h-1.57v-43.11-1-16.78h-64.69v60.89h-1.57v3.16h-3.85v-8.43h-1.46v-150.53h78.3v150.53h-1.36v8.45zm-136.79 5.14v-7.3h9.29v10h-7.74v-2.72zm-116.2 0v-7.3h26.95v10h-25.4v-2.72zm-55.27-51.41h18.72v42.11h-18.77zm60.41 1v41.11h-40.24v-41.11zm-30.92 44.11h7.89v5.3h-7.89zm-1 5.3h-7.89v-5.3h7.89zm9.89-5.3h6.61v5.3h-6.61zm8.11 0h6.78v5.3h-6.78zm-26.89 0v5.3h-6.61v-5.3zm-8.11 5.3h-6.78v-5.3h6.78zm50.42-8.3v-42.11h18.72v42.11zm18.72-44.11h-4.74v-14.28h4.74zm-5.74 0h-5.79v-14.28h5.74zm-6.74 0h-4.74v-14.28h4.74zm-6.24 1h-8.13v-15.28h8.13zm-9.13 0h-7.64v-15.28h7.64zm-8.64 0h-7.64v-15.28h7.64zm-8.64 0h-7.64v-15.28h7.64zm-8.64 0h-8.14v-15.28h8.14zm-9.64-1h-4.74v-14.28h4.74zm-5.74 0h-5.74v-14.28h5.74zm-6.74 0h-4.74v-14.28h4.74zm-2 46.11v7.3h-1.55v2.72h-7.74v-10zm-.55 8.3h53.66v1.72h-53.74zm81.06-5.14h2.58v6.86h-2.58zm0-1v-3.16h-1.09v-43.11-1-16.78h-83.66v60.89h-5.19v-5.27h-1.51v-150.53h95.4v150.53h-1.45v8.45zm-112.7-7.43h21.71v15.31h-21.71zm1.45-151.51h18.8v150.51h-18.8zm-10.18-6.11h39l-3 1.66-1.31.73h-30.25zm10.44-19.29h3.56v7.61h-3.56zm4.56-6.32a4.61 4.61 0 0 1 .34-1.71l.12-.25c.08-.16.16-.31.25-.46l.19-.27c.09-.13.19-.24.29-.36l.24-.26a5.69 5.69 0 0 1 .9-.65c.11-.06.21-.13.32-.18l.39-.15a2.52 2.52 0 0 1 .39-.12 2.22 2.22 0 0 1 .37-.09 3.18 3.18 0 0 1 .62-.06h.17.16a3.18 3.18 0 0 1 .62.06l.37.08.39.13a2.5 2.5 0 0 1 .38.15 3 3 0 0 1 .35.19 4.53 4.53 0 0 1 .46.3 4.7 4.7 0 0 1 .43.35l.22.24a3.93 3.93 0 0 1 .31.38 2.2 2.2 0 0 1 .17.25 3.29 3.29 0 0 1 .26.49 1.63 1.63 0 0 1 .11.23 4.42 4.42 0 0 1 .34 1.71v13.93h-9.16zm362.74-77.41-.34-.36a7.11 7.11 0 0 0 -3.42-1.81h-.06l-.51-.08h-.21c-.17 0-.35 0-.53 0h-.22a6.54 6.54 0 0 0 -.89.06l-.29.05a5 5 0 0 0 -.67.14l-.27.08a6.46 6.46 0 0 0 -.73.28l-.35.16-.49.28a2.39 2.39 0 0 1 -.22.12v-47.44h14.44v57.43h-3.3v-4.11a6.89 6.89 0 0 0 -.29-2s0-.07 0-.11l-.09-.25a7 7 0 0 0 -1.56-2.46zm-10.2-49.51h-.48v-2.39h17.41v2.39zm1-5.1h4.14v1.72h-4.15zm15.93 91.25h-2v-12.1h-1.17v-1.52h1.17v-3.14h-1.17v-1.52h1.17v-2.14h2zm-19.79-17h15.69v1.26h1.17v1.14h-18v-1.14h1.14zm0 3.4h15.69v1.52h-15.69zm16.86 2.52v11.08h-18v-11.1zm.33-10.58a2 2 0 0 1 -.26-.34.05.05 0 0 1 0 0 1.82 1.82 0 0 1 -.26-.94 1.93 1.93 0 0 1 1-1.66l.24-.13v-.28-1.64h.48v5.31h-.82a1.16 1.16 0 0 1 -.21-.16zm1.15-67.87h-4.14v-1.72h4.14zm-5.14 0h-4.2v-1.72h4.14zm3.66 69.13v1.14h-1.17v1.26h-15.69v-1.26h-1.17v-1.14zm-19.3 21.4h20.49v2.82h-20.49zm21.74 0h51.55v2.82h-51.55zm53.78-21.42h18v1.14h-1.16v1.28h-15.7v-1.26h-1.16zm1.16 4.66v-1.24h15.7v1.26h1.16v1.14h-18v-1.14zm0 2.14h15.7v1.52h-15.7zm16.86 2.52v11.1h-18v-11.1zm1.23 12.1v2.82h-20.48v-2.82zm-25.64 3.82-6.44 2.56h-30.61l-6.44-2.56zm130.82 35.46h3.56v1.91h-3.56zm16.49 6.79v-1.15h1.74v10.89h-1.74v-2.13h-1.16v-7.61zm100-7.79h-5.17v2.91h-1.17v2.73h-8.49l-15.61-4.92-8.35-2.62h38.87zm10.19 6.79h-4.72v-2.88h4.72zm11.16-2.88h5v2.88h-5zm114.14 24.69v7.56l-8.76.47v-7.46zm9.75-.64v7.67l-8.75.47v-7.57zm9.75-.64v7.78l-8.75.47v-7.68zm9.75-.65v7.9h-1l-7.72.42v-7.79zm9.75-.64v8l-8.75.47v-7.9zm9.75-.64v8.12l-8.75.47v-8zm9.75-.64v8.23l-8.75.48v-8.13zm9.75-.64v8.34l-8.75.48v-8.21zm9.75-.64v8.45l-8.75.48v-8.35zm9.76-.64v8.56l-8.76.48v-8.46zm9.75-.64v8.67l-8.75.48v-8.57zm9.75-.64v8.79l-8.75.47v-8.68zm9.75-.64v8.9l-8.75.47v-8.79zm9.75-.64v9l-8.75.47v-8.9zm9.75-.64v9.09l-8.75.47v-9zm9.75-.64v9.23l-8.75.47v-9.12zm9.75-.64v9.37l-8.75.47v-9.23zm9.76-.64v9.45l-8.76.48v-9.35zm9.75-.64v9.56l-8.75.48v-9.46zm-185.2 19.65-9.48.52v-7.34l9.48-.62zm209-6.21 3.55-.18v1.92l-222 11.11v-1.72l200.07-10.19zm-168.52 100.57v68.93h-50v-68.77l10.64.38h.5.5l21.42-.31zm-122.6 21.94 17.15.41v46.09h-17.15zm39.84 46.5h-9.85v-44.87l9.85.24zm-10.85-44.89v44.89h-9.84v-45.12zm-10.84-2.18v-22.15l22.69.81v21.88zm23.69-21.3 17.15.61v21.66l-17.15-.41zm-41.84-1.5 17.15.62v22.15l-17.15-.4zm41.84 24.36 17.15.41v45.1h-17.15zm19.15-23.18 10.65.38v68.8h-10.65zm-206.43 52.89h-9.92v-150.53h9.92zm-110 0h-8.9v-150.53h8.9zm-30.38 0v-133.61h4.59v25.79h2.24v4.27h7.3v-4.27h2.23v-25.79h2.1v-6.18h-2.1v-6h-1.13v-10.51l5.23 2.85v153.45zm-83.93 0v-150.53h8.64v150.53zm-80.3 0h-18.8v-150.53h18.8zm-127.14 0h-18.8v-150.53h18.8zm-24.05-151.53v-1.72h29.42v1.72zm-107.1-15.79h11.1v4.53h-11.1zm16.86-8.61v-1.15h1.79v10.89h-1.74v-2.13h-1.16v-7.61zm13.18-1.15v7.19a15 15 0 0 1 -5.17-1.06c-3.21-1.31-5.16-3.63-5.25-6.13zm11.42 0c-.09 2.5-2 4.82-5.25 6.13a15 15 0 0 1 -5.17 1.06v-7.19zm10.31 0v10.89h-1.75v-10.89zm11.44 0v7.19a15 15 0 0 1 -5.17-1.06c-3.21-1.31-5.16-3.63-5.25-6.13zm11.42 0c-.09 2.5-2 4.82-5.25 6.13a15 15 0 0 1 -5.17 1.06v-7.19zm10.31 0a.49.49 0 0 0 0 .12v10.77h-1.76v-10.89zm22.86 0c-.09 2.5-2 4.82-5.25 6.13a14.9 14.9 0 0 1 -5.17 1.06v-7.19zm3.81 1.15v7.61h-1.16v2.13h-1.63v-10.89h1.63v1.15zm4.56-6.79v1.91h-3.52v-1.91zm1 .47a4.58 4.58 0 0 1 9.16 0v13.93h-9.16zm10.16-.47h3.56v1.91h-3.56zm5.73 6.79v-1.15h1.73a.49.49 0 0 1 0 .12v10.77h-1.74v-2.13h-1.17v-7.61zm13.18-1.15v7.19a14.9 14.9 0 0 1 -5.17-1.06c-3.21-1.31-5.16-3.63-5.25-6.13zm11.42 0c-.09 2.5-2.05 4.82-5.25 6.13a15 15 0 0 1 -5.17 1.06v-7.19zm10.31 0v10.89h-1.75v-10.89zm11.44 0v7.19a15 15 0 0 1 -5.17-1.06c-3.21-1.31-5.16-3.63-5.25-6.13zm11.42 0c-.09 2.5-2 4.82-5.25 6.13a15 15 0 0 1 -5.17 1.06v-7.19zm10.31 0v10.89h-1.76v-10.89zm11.44 0v7.19a15 15 0 0 1 -5.17-1.06c-3.21-1.31-5.16-3.63-5.25-6.13zm11.42 0c-.09 2.5-2 4.82-5.25 6.13a15 15 0 0 1 -5.17 1.06v-7.19zm3.92 1.15v7.61h-1.16v2.13h-1.74v-10.89h1.74v1.15zm10.81-6.79v1.91h-9.81v-1.91zm4.56 1.91h-3.56v-1.91h3.56zm1-1.44a4.58 4.58 0 0 1 9.16 0v13.93h-9.16zm10.16-.47h3.56v1.91h-3.56zm5.73 6.79v-1.15h4.47v10.89h-4.44v-2.13h-1.17v-7.61zm26.17-1.15v10.89h-1.7v-10.89zm11.44 0v7.19a15 15 0 0 1 -5.17-1.06c-3.21-1.31-5.16-3.63-5.25-6.13zm11.42 0c-.09 2.5-2 4.82-5.25 6.13a15 15 0 0 1 -5.17 1.06v-7.19zm10.31 0s0 .08 0 .12v10.77h-1.76v-10.89zm11.44 0v7.18a14.66 14.66 0 0 1 -5.17-1.05c-3.2-1.31-5.16-3.63-5.24-6.13zm5.45 0v1.15h1.16v7.61h-1.16v2.13h-4.45v-10.89zm5.72-5.64v1.91h-3.56v-1.91zm1-.49a3.63 3.63 0 0 1 3.63-3.62h.45v2.32a2.51 2.51 0 0 0 0 4.92v11.27h-4.08zm-.48-27.85h31.61v1.91h-31.61zm74.28 0h31.61v1.91h-31.61zm37.86 35.13v-1.15h4.63v10.89h-4.63v-2.13h-1.14v-7.61zm16.05-1.15c-.09 2.5-2 4.82-5.25 6.13a14.66 14.66 0 0 1 -5.17 1.05v-7.18zm10.31 0a.49.49 0 0 0 0 .12v10.77h-1.75v-10.89zm33.17 0a.49.49 0 0 1 0 .12v10.77h-1.76v-10.89zm11.45 0v7.18a14.62 14.62 0 0 1 -5.17-1.05c-3.21-1.31-5.16-3.63-5.25-6.13zm5.5 0v1.15h1.17v7.61h-1.17v2.13h-4.5v-10.89zm5.73-3.73h-3.56v-1.91h3.56zm0 1v2.88h-4.73v-2.88zm11.16 0h4.62v2.22h.11v.66h-4.73zm41.13 2.73c-.09 2.5-2 4.82-5.25 6.13a15 15 0 0 1 -5.17 1.06v-7.19zm33.17 0c-.09 2.5-2 4.82-5.25 6.13a15 15 0 0 1 -5.17 1.06v-7.19zm64.59 9.76h4v4.53h-4zm3.85-8.61h9.81v7.61h-9.81zm260 101.6-25.82.57v-43.89l25.82-1.07zm1-44.43 24.82-1v44.89l-24.82.54zm-523.81 9.34h1.24v.6h-1.24zm2.24 4.27h5.32v.6h-5.31zm7.54-5.27h-2.22v4.27h-5.31v-4.27h-2.24v-4.58h9.78zm0 1v.6h-1.22v-.6zm0-6.63h-9.78v-12.3h1.48v9.27h1v-9.27h1.91v9.27h1v-9.27h1.91v9.27h1v-9.27h1.48zm0-13.3h-9.78v-1h9.78zm0-2h-9.78v-2.29h9.78zm-86.65-3.29v-4.18h88.75v4.18zm70.28 43.64h-1.92v-2.41a23.84 23.84 0 0 0 -21.31-23.82l.15-1.73a25.75 25.75 0 0 1 23.08 25.75zm0 24.85h-5.85v-1.85h5.86zm-14.85 77.91h-10.55v-48.6h10.55zm-22.11 1h10.56v2.53h-10.56zm-14.84-138.44h22.49l.5 5.73a26.69 26.69 0 0 0 -23 19.4zm27.33 11.16 1 .09.15-1.8a22.83 22.83 0 0 1 20.4 22.82v2.41h-2.41v-3a20.58 20.58 0 0 0 -20.52-20.57 20.58 20.58 0 0 0 -20.63 20.57v3h-2.37v-2.41a22.84 22.84 0 0 1 20.4-22.82l.15 1.8 1-.09-1-11.16h4.79zm24.47 31.52h-4.85v-7h4.83zm-46 14v-10.12h40.15v10.12zm39.15 16.51h-6v-11.66h6zm-38.15 15.65h5v10.94h-5zm0-3v-11.65h6v11.65zm6-24.31v11.66h-6v-11.66zm1 12.66h7.37v11.65h-7.37zm0-1v-11.66h7.37v11.66zm8.37-11.66h7.37v11.66h-7.37zm8.37 0h7.41v11.66h-7.37zm-23.72 39.25h5v11.9h-5zm15.39-14.94v-11.65h7.37v11.65zm8.37-11.65h7.37v11.65h-7.37zm8.37 0h6v11.65h-6zm6 25.59h-5v-10.94h5zm-5 1h5v11.9h-5zm-33.1-41.25v-1.85h38.1v1.84zm-2-23.85v7h-4.82v-7zm1 8v1.85h-5.85v-1.85zm-5.85 2.85h4.82v10.15h-4.82zm6.85-1v-1.85h38.1v1.85zm-1-2.85v-3.1h40.1v3.1zm10.22-18.8h19.68v14.18h-19.71zm20.71-7.89a19.07 19.07 0 0 1 8.17 15.69v6.4h-8.2zm-1 6.89h-19.74v-7.5a18.92 18.92 0 0 1 19.71 0zm-20.71 15.18h-8.22v-6.38a19.07 19.07 0 0 1 8.22-15.67zm8-31.37.15 1.73a23.84 23.84 0 0 0 -21.27 23.85v2.41h-1.91v-2.21a25.74 25.74 0 0 1 23.03-25.79zm-23.07 51h5.85v1.84h-5.85zm6.82 56h5v10.99h-5zm8-24.88h10.56v48.6h-10.54zm11.56 49.6h10.57v2.53h-10.55zm13.57-24.73h5v11h-5zm11.85-57h-4.85v-10.12h4.83zm0-11.13h-5.85v-1.87h5.86zm-23-39.83.5-5.73h22.5v25.13a26.72 26.72 0 0 0 -23-19.39zm23-6.73h-51.8v-6.93h51.8zm-68.18 17.26h1.24v.6h-1.24zm2.24 4.27h5.31v.6h-5.31zm7.54-5.27h-2.23v4.27h-5.31v-4.27h-2.24v-4.57h9.78zm0 1v.6h-1.23v-.6zm0-6.63h-9.78v-12.3h1.48v9.27h1v-9.27h1.91v9.27h1v-9.27h1.94v9.27h1v-9.27h1.48zm0-13.3h-9.78v-1h9.78zm0-2h-9.78v-2.29h9.78zm-250.45-44.57h3.56v7.61h-3.56zm39 9.74a11.13 11.13 0 0 0 1.29-.65 12 12 0 0 0 4.82-5.51v6.16zm.78-1.51a10.9 10.9 0 0 1 -5.1 1.51v-2.71a15.92 15.92 0 0 0 5.55-1.12 11.33 11.33 0 0 0 3.91-2.6 10.86 10.86 0 0 1 -4.45 4.92zm-6.1 1.51a10.8 10.8 0 0 1 -9.47-6.43 11.28 11.28 0 0 0 3.79 2.62 15.82 15.82 0 0 0 5.55 1.12zm-5.62-.65a11.13 11.13 0 0 0 1.29.65h-6.11v-6.16a12 12 0 0 0 4.76 5.51zm5.62 1.65v1.74a.5.5 0 0 0 .5.5.51.51 0 0 0 .5-.5v-1.74h13.19v3.52h1v-3.52h3.79v3.52h1v-3.52h13.19v1.74a.5.5 0 0 0 .5.5.51.51 0 0 0 .5-.5v-1.74h13.15v3.52h1v-3.52h3.78v3.52h1v-3.52h13.2v1.74a.51.51 0 0 0 .5.5.5.5 0 0 0 .5-.5v-1.74h13.18v2.59l-10.2 5h-73.36l-10.19-5v-2.59zm38.49-1a10.38 10.38 0 0 0 1.29-.65 11.93 11.93 0 0 0 4.83-5.51v6.16zm.78-1.51a10.9 10.9 0 0 1 -5.1 1.51v-2.71a15.92 15.92 0 0 0 5.55-1.12 11.24 11.24 0 0 0 3.91-2.6 10.86 10.86 0 0 1 -4.45 4.92zm-6.1 1.51a10.8 10.8 0 0 1 -9.46-6.43 11.24 11.24 0 0 0 3.91 2.6 15.92 15.92 0 0 0 5.55 1.12zm-5.62-.65a12 12 0 0 0 1.29.65h-6.11v-6.16a12 12 0 0 0 4.73 5.51zm44.12.65a11.13 11.13 0 0 0 1.29-.65 12 12 0 0 0 4.82-5.51v6.16zm.78-1.51a10.94 10.94 0 0 1 -5.11 1.51v-2.71a15.92 15.92 0 0 0 5.55-1.12 11.38 11.38 0 0 0 3.92-2.6 11 11 0 0 1 -4.49 4.92zm-6.11 1.51a10.8 10.8 0 0 1 -9.46-6.43 11.33 11.33 0 0 0 3.91 2.6 15.92 15.92 0 0 0 5.55 1.12zm-5.61-.65a10.38 10.38 0 0 0 1.29.65h-6.12v-6.16a11.93 11.93 0 0 0 4.74 5.51zm21.95-9.09h9.81v7.61h-9.81zm9.65-3.88h4.72v2.88h-4.72zm31.38 13.62a10.25 10.25 0 0 0 1.28-.65 11.93 11.93 0 0 0 4.83-5.51v6.16zm.77-1.51a10.92 10.92 0 0 1 -5.1 1.51v-2.71a16.09 16.09 0 0 0 5.55-1.12 11.24 11.24 0 0 0 3.91-2.6 10.86 10.86 0 0 1 -4.45 4.92zm-5.6 4.75a.5.5 0 0 0 .5-.5v-1.74h13.2v3.52h1v-3.52h3.74v3.52h1v-3.52h13.19v1.74a.51.51 0 0 0 .5.5.5.5 0 0 0 .5-.5v-1.74h13.19v3.52h1v-3.52h3.79v3.52h1v-3.52h13.19v1.74a.51.51 0 0 0 .5.5.5.5 0 0 0 .5-.5v-1.74h4.45v2.59l-10.2 5h-55.89l-10.19-5v-2.59h4.47v1.74a.5.5 0 0 0 .47.5zm38-3.24a11.13 11.13 0 0 0 1.29-.65 12 12 0 0 0 4.82-5.51v6.16zm.78-1.51a10.94 10.94 0 0 1 -5.11 1.51v-2.71a15.92 15.92 0 0 0 5.55-1.12 11.38 11.38 0 0 0 3.92-2.6 11 11 0 0 1 -4.45 4.92zm-6.11 1.51a10.8 10.8 0 0 1 -9.46-6.43 11.33 11.33 0 0 0 3.91 2.6 15.92 15.92 0 0 0 5.55 1.12zm-5.61-.65a10.38 10.38 0 0 0 1.29.65h-6.21v-6.16a11.93 11.93 0 0 0 4.83 5.51zm38.78.65a10.8 10.8 0 0 1 -9.46-6.43 11.28 11.28 0 0 0 3.92 2.6 16 16 0 0 0 5.54 1.12zm-5.61-.65a10.38 10.38 0 0 0 1.29.65h-6.11v-6.16a12 12 0 0 0 4.73 5.51zm13.22-9.09h3.56v7.61h-3.56zm8.64 18.29h-18.8l8.52-4.15h10.19zm0-5.15h-5v-4.53h5zm-6-4.53v4.53h-3.75v-4.53zm-113.79 5.53h8.52l-2.51 1.22-6 2.93h-8.67zm14.95-1h-3.75v-4.53h3.75zm-10.15 3.92 6-2.92h21.38l8.53 4.15h-38.57zm27-3.92h-3.76v-4.53h3.76zm-1.17-5.53h-3.69v-7.61h3.56zm-3.59 5.53h-11.1v-4.53h11.1zm-11.13-5.53h-3.56v-7.61h3.56zm-5.72 1v4.53h-9.81v-4.53zm-105.51 4.53h-3.76v-4.53h3.76zm-1.17-5.53h-3.56v-7.61h3.56zm-3.59 5.53h-11.1v-4.53h11.1zm-12.1-4.53v4.53h-3.88v-4.53zm-4.14 5.53h21.38l8.53 4.15h-38.45zm-4.34 7.54-1.22-.68-3.09-1.71h38.8l-3 1.66-1.32.73zm34.64-1.33 1.91-1.06h73.15l1.89 1.05 2.42 1.34h-81.91zm81.56 1.33-1.23-.68-3.17-1.71h8.75l.59.32 3.72 2.07zm10.81 0-.59-.32-3.72-2.07h38.91l-3 1.66-1.32.73zm34.75-1.33 1.91-1.06h55.81l1.91 1.06 2.4 1.33h-64.57zm64.09 1.33-1.31-.73-3-1.66h23.64l-4.32 2.39zm20.75-13.07h9.78v3.17h-9.78zm8.66-1h-7.54v-1.62h7.54zm81-39.83v11.29h-20.61v-11.29zm5.08 30.06h-4.08v-1.5a2.51 2.51 0 0 0 0-4.92v-2.32h.45a3.63 3.63 0 0 1 3.63 3.62zm16.69 11.9a11.13 11.13 0 0 0 1.29-.65 12 12 0 0 0 4.82-5.51v6.16zm.77-1.51a10.92 10.92 0 0 1 -5.1 1.51v-2.71a16.09 16.09 0 0 0 5.55-1.12 11.38 11.38 0 0 0 3.92-2.6 10.94 10.94 0 0 1 -4.5 4.92zm-5.6 4.75a.5.5 0 0 0 .5-.5v-1.74h13.1v3.52h1v-3.52h3.79v3.52h1v-3.52h13.18v1.74a.51.51 0 0 0 .5.5.5.5 0 0 0 .5-.5v-1.74h13.19v3.52h1v-3.52h3.79v3.52h1v-3.52h13.2v1.74a.5.5 0 0 0 .5.5.51.51 0 0 0 .5-.5v-1.74h4.5v2.59l-10.19 5h-56l-10.27-5v-2.59h4.63v1.74a.5.5 0 0 0 .45.5zm38-3.24a11.13 11.13 0 0 0 1.29-.65 12 12 0 0 0 4.82-5.51v6.16zm.78-1.51a10.94 10.94 0 0 1 -5.11 1.51v-2.71a15.82 15.82 0 0 0 5.55-1.12 11.28 11.28 0 0 0 3.92-2.6 11 11 0 0 1 -4.49 4.92zm-6.11 1.51a10.8 10.8 0 0 1 -9.46-6.43 11.28 11.28 0 0 0 3.92 2.6 15.81 15.81 0 0 0 5.54 1.12zm-5.61-.65a11.13 11.13 0 0 0 1.29.65h-6.11v-6.16a12 12 0 0 0 4.69 5.51zm38.79.65a10.8 10.8 0 0 1 -9.47-6.43 11.28 11.28 0 0 0 3.92 2.6 16 16 0 0 0 5.55 1.12zm-5.62-.65a11.13 11.13 0 0 0 1.29.65h-6.11v-6.16a12 12 0 0 0 4.69 5.51zm29-.48h3.76v4.53h-3.76zm23.37 9.68h-8.52l-8.52-4.15h8.52zm-19.33-4.15 8.52 4.15h-38.48l8.53-4.15zm-17.24-1h-3.76v-4.53h3.76zm-87 0h-5v-4.53h5zm-5 1h10.19l8.59 4.15h-18.88zm9.81-1h-3.76v-4.53h3.76zm-1.24-5.53h-3.56v-7.61h3.56zm-4.56 0h-4.08v-8.77h4.08zm-4.08-15.15a1.5 1.5 0 0 1 0 2.84zm-1-12.39v38.22h-5.26v-5.51h1.12v-4.17h1.15v-1h-2.27v-2.62h-9.54v2.62h-2.27v1h1.15v3.17h-4.59v-31.71zm-80 35.72h5.72v14.34h-5.72zm13.54-5v-23.5h4.77v23.5zm6.86 2v.66c0 .38 0 .84-.05 1.35h-6.29v-1.15a.5.5 0 1 0 -1 0v1.15h-6.32c0-.51-.05-1-.05-1.35v-.66zm7.31-2v-23.5h9.81v23.5zm11.75 2v.14c0 .44 0 1.09-.06 1.88h-6.28v-1.15a.51.51 0 0 0 -.5-.5.5.5 0 0 0 -.5.5v1.15h-6.3c0-.36 0-.7 0-1v-1zm7.47-2v-23.5h4.71v23.5zm11.59 2v.14c0 .44 0 1.09-.07 1.88h-6.31v-1.15a.5.5 0 0 0 -.5-.5.51.51 0 0 0 -.5.5v1.15h-6.3c0-.36 0-.7 0-1v-1zm-51.83 10.14a14 14 0 0 0 3 6.54 6.12 6.12 0 0 0 .78.68h-3.81zm6.34 7.17a4.14 4.14 0 0 1 -2.59-1.32 11.64 11.64 0 0 1 -2.45-4.8 8.62 8.62 0 0 0 1.21 1.63 5.86 5.86 0 0 0 3.83 1.83zm1-2.66a5.86 5.86 0 0 0 3.83-1.83 8.62 8.62 0 0 0 1.21-1.63 11.64 11.64 0 0 1 -2.45 4.8 4.14 4.14 0 0 1 -2.59 1.32zm3.11-2.51a4.74 4.74 0 0 1 -3.11 1.5v-10.6h6.22c-.27 2.87-1.01 6.89-3.11 9.1zm-4.11 1.5a4.74 4.74 0 0 1 -3.11-1.5c-2.1-2.17-2.85-6.19-3.11-9.1h6.22zm4.31 3.06a14 14 0 0 0 3-6.54v7.22h-3.81a6.12 6.12 0 0 0 .81-.72zm4-13.66h3.37v14.3h-3.37zm10.72 14.29a4.14 4.14 0 0 1 -2.6-1.32 11.64 11.64 0 0 1 -2.45-4.8 8.62 8.62 0 0 0 1.21 1.63 5.86 5.86 0 0 0 3.84 1.83zm1-2.67a5.8 5.8 0 0 0 3.82-1.82 8.58 8.58 0 0 0 1.2-1.63 11.51 11.51 0 0 1 -2.44 4.8 4.25 4.25 0 0 1 -2.58 1.32zm3.1-2.52a4.78 4.78 0 0 1 -3.1 1.5v-10.6h6.2c-.23 2.87-.98 6.89-3.07 9.1zm-4.1 1.5a4.69 4.69 0 0 1 -3.12-1.5c-2.1-2.17-2.85-6.19-3.11-9.1h6.23zm-6.32-3.5a14 14 0 0 0 3 6.5 6.12 6.12 0 0 0 .78.68h-3.78zm10.64 6.5a14.08 14.08 0 0 0 3-6.57v7.25h-3.74a5.51 5.51 0 0 0 .74-.66zm4-13.66h3.37v14.36h-3.37zm10.71 14.29a4.14 4.14 0 0 1 -2.59-1.32 11.41 11.41 0 0 1 -2.45-4.8 8.21 8.21 0 0 0 1.21 1.63 5.84 5.84 0 0 0 3.83 1.83zm1-2.67a5.76 5.76 0 0 0 3.82-1.82 8.62 8.62 0 0 0 1.21-1.63 11.52 11.52 0 0 1 -2.45 4.8 4.22 4.22 0 0 1 -2.58 1.32zm3.1-2.52a4.76 4.76 0 0 1 -3.1 1.5v-10.6h6.21c-.21 2.93-.96 6.95-3.06 9.16zm-4.1 1.5a4.69 4.69 0 0 1 -3.11-1.5c-2.1-2.17-2.85-6.19-3.11-9.1h6.22zm-6.29-3.44a14 14 0 0 0 3 6.5 6.12 6.12 0 0 0 .78.68h-3.81zm10.64 6.5a14.13 14.13 0 0 0 3.05-6.57v7.25h-3.85a6.12 6.12 0 0 0 .8-.66zm-11.66-16.5v1.56.35h-3.37v-2h3.35zm-19.06 0v1.55.35h-3.37v-.7c0-.49 0-.89 0-1.2v-.11h3.34zm-23.63 18.2h4.6v5h-4.6zm5.6 0h6.34v1.73a.5.5 0 0 0 1 0v-1.73h18.06v1.73a.5.5 0 0 0 .5.5.5.5 0 0 0 .5-.5v-1.73h18v1.73a.5.5 0 0 0 .5.5.5.5 0 0 0 .5-.5v-1.73h6.35v5h-51.8zm52.8 0h4.59v5h-4.59zm0-1v-14.34h5.71v14.34zm5.71-15.34h-5.71v-2h5.71zm-.12-3v-3.17h9.78v3.17zm8.66-4.17h-7.54v-1.62h7.54zm-15.25 4.17h-5.33v-26h-7.76v26h-6.41v-26h-12.81v26h-6.41v-26h-7.76v26h-5.32v-31.72h51.8zm-52.85 1.14v1.21.7h-5.72v-2h5.72zm-14.25-.1h7.54v17.3h-7.54zm8.66 18.35v5h-9.78v-5zm74.77 5h-9.78v-5h9.78zm-8.66-6v-17.4h7.54v17.35zm14.4-8.45-4.4-2.39h23.81l-2.58 1.42-1.74 1zm20.7-2 .77-.42h56l.7.38 3.62 2h-64.6zm63.13 2-1.95-1.08-2.37-1.31h38.92l-4 2.2-.35.19zm36.31-2.2.35-.19h8.74l-2.57 1.42-1.74 1h-8.75zm10.38.23.77-.42h73.28l.7.38 3.62 2h-81.87zm37.91-12.68a15.92 15.92 0 0 0 5.55-1.12 11.38 11.38 0 0 0 3.92-2.6 10.83 10.83 0 0 1 -9.47 6.43zm-1 2.71a10.8 10.8 0 0 1 -9.46-6.43 11.33 11.33 0 0 0 3.91 2.6 15.92 15.92 0 0 0 5.55 1.12zm-5.61-.65a10.38 10.38 0 0 0 1.29.65h-6.03v-6.16a11.93 11.93 0 0 0 4.78 5.46zm12.23 0a12 12 0 0 0 4.82-5.51v6.16h-6.11a11.13 11.13 0 0 0 1.32-.7zm5.86-10.21v-.12h1.75v10.89h-1.75zm2.75-.12h3.79v10.89h-3.79zm18 7.19a15 15 0 0 1 -5.17-1.06c-3.2-1.31-5.16-3.63-5.25-6.13h10.42zm-5.58-.07a15.81 15.81 0 0 0 5.54 1.12v2.71a10.8 10.8 0 0 1 -9.46-6.43 11.28 11.28 0 0 0 3.92 2.6zm6.54 1.12a15.82 15.82 0 0 0 5.55-1.12 11.28 11.28 0 0 0 3.92-2.6 10.8 10.8 0 0 1 -9.47 6.43zm10.34-7.4-2.47-.78h2.59a4.91 4.91 0 0 1 -.1.76zm-.28 1a8.52 8.52 0 0 1 -4.89 4.39 14.9 14.9 0 0 1 -5.17 1.06v-7.19h4.53zm-24.27-2.74a2.88 2.88 0 0 0 -2.41-2.68v-3l18 5.65zm-2.88-1.73a1.89 1.89 0 0 1 1.88 1.73h-3.73a1.88 1.88 0 0 1 1.87-1.79zm2.9 2.73h1.75a.49.49 0 0 0 0 .12v10.77h-1.76zm2.76 4.73a12 12 0 0 0 4.82 5.51 11.13 11.13 0 0 0 1.29.65h-6.11zm17 5.51a12 12 0 0 0 4.82-5.51v6.16h-6.11a11.13 11.13 0 0 0 1.36-.71zm5.89-8.12 2.91.91v5.67h-1.17v2.13h-1.74zm51.85 17.26h-6.24l-8.52-4.15h7.14v.44zm-6.57 1.19.35-.19h6.69l-3.63 2v.38h-7.38zm77 85-16.41-.73v-41.64l16.41 1.77zm-17.41-.78-17.41-.78v-42.79l17.41 1.88zm-18.41-.83-17.41-.78v-43.94l17.41 1.87zm-18.41-.82-16.41-.74v-45l16.41 1.76zm-32.68-88.91v-4.53h8.81v4.53zm4.18 8.35-.35.19h-30.49l-.34-.19-4-2.2h39.17zm-27.05-8.35h-9.81v-4.53h9.81zm-10.19 1h8.52l-8.53 4.15h-8.52zm-4.45 7.54-1.86-1.08-2.37-1.31h8.75l.34.19 4 2.2zm11.17 1h29.8v1.72h-29.8zm30.8 0h8.81v.72h-5.25v1h-3.56zm227.55 79.51-25.82.56v-43.37l25.82-1.06zm-26.82.59-25.82.56v-42.85l25.82-1.07zm-26.82.58-25.74.57v-42.34l25.82-1.06zm-26.74.57-25.82.56v-41.79l25.82-1.07zm-26.82.58-17.41.39v-41.45l17.41-.71zm-18.41.41-6.25.13-10.16-.45v-40.43l16.41-.67zm-19.41-42.07-16.41-1.76v-12.49l16.41 2.09zm-17.41-1.87-17.41-1.87v-12.86l17.41 2.22zm-18.41-2-17.41-1.87v-13.18l17.41 2.22zm-18.41-2-16.41-1.77v-13.53l16.41 2.09zm-17.91 45.21-3.75-.17v-61.51l3.75.48zm70.46-67.15-69-9.75v-2.29l.21-.11 71.43 10.81v1.72zm-85.85-21 8.53 4.15h-38.72l8.52-4.15zm-17.5-1h-3.75v-4.53h3.75zm-3.59-5.53h-9.8v-7.61h9.8zm-10.83-6.58-2.91-.91v-1a.49.49 0 0 1 0-.12h1.73v1.15h1.17zm-32-5.72a2.89 2.89 0 0 0 -2.34 2.68h-11.57v-10.39l14 4.39zm-16.55 10.87a15 15 0 0 1 -5.17-1.06c-3.21-1.31-5.16-3.63-5.25-6.13h10.42zm-11.36-7.15v10.77h-1.8v-10.85h1.8zm-2.75-.12v10.89h-3.78v-10.85zm-3.77-1a1.89 1.89 0 0 1 3.76 0zm-1 11.89h-1.76v-10.85h1.76zm-7.59-.65a11.93 11.93 0 0 0 4.83-5.51v6.16h-6.11a11 11 0 0 0 1.22-.61zm-5.61.65v-2.67a15.92 15.92 0 0 0 5.55-1.12 11.24 11.24 0 0 0 3.91-2.6 10.8 10.8 0 0 1 -9.46 6.43zm-1 0a10.78 10.78 0 0 1 -9.46-6.43 11.24 11.24 0 0 0 3.91 2.6 15.92 15.92 0 0 0 5.55 1.12zm-5.62-.65a11.13 11.13 0 0 0 1.29.65h-6.11v-6.16a12 12 0 0 0 4.76 5.55zm5.62 1.65v1.74a.5.5 0 0 0 1 0v-1.74h13.2v3.52h1v-3.52h3.78v3.52h1v-3.52h13.19v1.74a.5.5 0 1 0 1 0v-1.74h13.19v3.52h1v-3.52h3.79v3.52h1v-3.52h13.19v1.74a.51.51 0 0 0 .5.5.5.5 0 0 0 .5-.5v-1.74h13.18v2.59l-10.19 5h-73.37l-10.2-5v-2.59zm-14.28 2.44h-9.8v-4.53h9.8zm-1.16-5.53h-9.81v-7.61h9.81zm-10.81-7.61v7.61h-3.56v-7.61zm-3.59 13.14h-11.1v-4.53h11.1zm-11.13-5.53h-3.56v-7.61h3.56zm-28.1-11.32a1.85 1.85 0 0 1 .78-.17 1.88 1.88 0 0 1 1.87 1.73h-2.65zm-1 1.56h-.1a2 2 0 0 1 .1-.48zm3.67 1v10.89h-3.79v-10.89zm-4.79 10.89h-1.75v-10.81s0-.08 0-.12h1.74zm-8-4.76a14.9 14.9 0 0 1 -5.17 1.06v-7.19h10.42c-.07 2.5-2.02 4.82-5.23 6.13zm-6.17 1.06a15 15 0 0 1 -5.17-1.06c-3.2-1.31-5.16-3.63-5.25-6.13h10.42zm-14.61-8.19h-3.31a1.88 1.88 0 0 1 3.35-1zm.43 1v10.89h-3.74v-10.89zm-4.74 10.89h-1.76v-10.89h1.76zm-19.83-10.74h-4.73v-2.88h4.73zm-1.17-3.88h-3.56v-1.91h3.56zm-8.19-7h-.45v-20.34h4.08v22.15a4.61 4.61 0 0 0 -3.66-1.83zm-22.93-20.32v11.29h-51.8v-11.31zm-52.8 0v11.29h-20.52v-11.31zm-20.49 12.29h20.49v31.71h-4.6v-3.17h1.15v-1h-2.27v-2.62h-9.54v2.62h-2.27v1h1.15v4.17h1.12v5.51h-5.23zm-1 15.23a1.5 1.5 0 0 1 0-2.84zm-5.08.82v2.88h-4.72v-2.88zm-25.36 2.73v10.89h-3.79v-10.91zm-3.77-1a1.88 1.88 0 0 1 3.75 0zm-1 11.89h-1.75v-10.91h1.75zm-31.6-13.13a1.87 1.87 0 0 1 1.28-.51 1.89 1.89 0 0 1 1.88 1.73h-3.16zm3.17 2.22v10.89h-3.78v-10.89zm-4.78 10.89h-1.76v-10.89h1.76zm-8-4.76a14.66 14.66 0 0 1 -5.17 1.05v-7.18h10.42c-.12 2.5-2.07 4.82-5.28 6.13zm-11.61-6h-4.76v-2.88h4.73zm-21.61-2.88v2.88h-9.81v-2.88zm-39.19 2.73v10.89h-3.76v-10.87zm-3.77-1a1.89 1.89 0 0 1 3.76 0zm-1 11.89h-1.79v-10.87h1.8zm-28.38 0h-3.79v-10.87h3.79zm-3.77-11.89a1.89 1.89 0 0 1 3.76 0zm-1 1v10.89h-1.84v-10.79a.49.49 0 0 0 0-.12zm-28.37.15h-4.73v-2.88h4.73zm-15.89-2.88v2.88h-4.78v-2.88zm-18.85 10.93a15.82 15.82 0 0 0 5.55-1.12 11.28 11.28 0 0 0 3.92-2.6 10.8 10.8 0 0 1 -9.47 6.43zm-1 2.71a10.8 10.8 0 0 1 -9.46-6.43 11.33 11.33 0 0 0 3.91 2.6 15.92 15.92 0 0 0 5.55 1.12zm-5.61-.65a11.13 11.13 0 0 0 1.29.65h-6.11v-6.16a12 12 0 0 0 4.82 5.51zm12.23 0a12 12 0 0 0 4.82-5.51v6.16h-6.11a11.13 11.13 0 0 0 1.29-.65zm-6.62-3.05a15 15 0 0 1 -5.17-1.06c-3.21-1.31-5.16-3.63-5.25-6.13h10.42zm-14.19-7.19v10.89h-3.79v-10.89zm-3.78-1a1.89 1.89 0 0 1 3.76 0zm-1 11.89h-1.76v-10.89h1.75zm-13.19-2.71a15.92 15.92 0 0 0 5.55-1.12 11.24 11.24 0 0 0 3.91-2.6 10.8 10.8 0 0 1 -9.46 6.43zm-1 2.71a10.8 10.8 0 0 1 -9.46-6.43 11.24 11.24 0 0 0 3.89 2.62 15.92 15.92 0 0 0 5.55 1.12zm-5.61-.65a11 11 0 0 0 1.28.65h-6.11v-6.16a11.93 11.93 0 0 0 4.87 5.51zm12.23 0a12 12 0 0 0 4.82-5.51v6.16h-6.11a12 12 0 0 0 1.28-.65zm-20.81-10.24v10.89h-3.79v-10.89zm-3.77-1a1.89 1.89 0 0 1 3.76 0zm-1 11.89h-1.76v-10.81a.49.49 0 0 0 0-.12h1.75zm-13.19-2.71a15.92 15.92 0 0 0 5.55-1.12 11.33 11.33 0 0 0 3.91-2.6 10.8 10.8 0 0 1 -9.46 6.43zm-1 2.71a10.8 10.8 0 0 1 -9.47-6.43 11.38 11.38 0 0 0 3.92 2.6 15.87 15.87 0 0 0 5.55 1.12zm-5.62-.65a11.13 11.13 0 0 0 1.29.65h-6.09v-6.16a12 12 0 0 0 4.77 5.51zm12.23 0a11.91 11.91 0 0 0 4.82-5.51v6.16h-6.11a11.13 11.13 0 0 0 1.26-.65zm-25.52-9.09h3.57v7.61h-3.57zm4.73-1h-4.73v-2.88h4.73zm-1.16-3.88h-3.57v-1.91h3.57zm-2.6 13.49h3.76v4.53h-3.76zm4.76 2.13h13.18v1.74a.5.5 0 0 0 .5.5.51.51 0 0 0 .5-.5v-1.74h13.19v3.52h1v-3.52h3.79v3.52h1v-3.52h13.19v1.74a.5.5 0 0 0 1 0v-1.74h13.19v3.52h1v-3.52h3.79v3.52h1v-3.52h13.19v1.74a.51.51 0 0 0 .5.5.5.5 0 0 0 .5-.5v-1.74h13.04v2.59l-10.09 5h-73.31l-10.19-5zm10.21 8.55h73.25l1.9 1.05 2.42 1.34h-81.92l2.41-1.33zm-5.74 3.39h84.77v1.72h-84.8zm116.19 0h84.77v1.72h-84.8zm85.77 0h9.81v1.72h-9.81zm5.26 2.72h9.92v150.53h-9.95zm5.55-1v-1.72h29.52v1.72zm30.52-1.72h67.3v1.72h-67.3zm68.3 0h14.27v1.72h-14.28zm15.27-.2 5.23-2.91v10.56h-1.12v6h-2.1v6.18h2.1v25.79h2.24v4.27h7.31v-4.27h2.23v-25.78h4.6v133.61h-20.5zm21.49 88.3h4.82v65.15h-4.82zm47 0h4.83v65.15h-4.89zm27.31-86.38v-1.72h14.35v1.72zm15.35-1.72h67.48v1.72h-67.52zm68.48 0h29.5v1.72h-29.54zm5.37 2.72h18.8v150.53h-18.8zm25.17-1v-1.72h9.81v1.72zm10.81-1.72h84.77v1.72h-84.81zm85.77 0h9.8v1.72h-9.8zm5.25 2.72h9.92v150.53h-9.92zm10.92 0h19.06v150.53h-19.1zm20.06 0h8.93v150.53h-8.93zm11.93 77.69 18 .8 70.48 3.16v1.75l-88.53-4zm89.53 4 184.6-4v1.75l-184.6 4zm184.1-51.91-24.82 1v-13.47l24.82-1.18zm-25.82 1.06-25.82 1.07v-13.3l25.82-1.23zm-26.82 1.11-25.82 1.06v-13.15l25.82-1.23zm-26.82 1.1-25.82 1.07v-12.98l25.82-1.23zm-26.82 1.11-25.83 1.03v-12.77l25.82-1.23zm-26.83 1.07-25.82 1.07v-12.61l25.82-1.23zm-26.82 1.11-17.41.71v-12.52l17.41-.83zm-18.41.75-16.41.68v-12.37l16.41-.78zm-18.41-13.19-73.14-9.32-3.75-.48v-13.1h5.25l71.64 10.13zm0-16.55-49.14-7.44-20.86-3.16 4.65-2.58 65.35 10.79zm0-3.4-8-1.33v-7.38l8 1.38zm-9-1.49-8.75-1.45v-7.48l8.75 1.51zm-9.75-1.61-8.75-1.45v-7.53l8.75 1.51zm-9.75-1.61-8.13-1.34-.62-.11v-7.61l8.75 1.51zm-9.75-1.61-8.75-1.45v-7.65l8.75 1.51zm-9.75-1.61-8.8-1.49v-7.76l8.75 1.52zm-9.75-1.61-6.17-1 .16-.09-2.75-1.34v-6.85l8.76 1.51zm-9.81-2.88-8.58-4.18v-3.83l8.58 1.49zm-10.57-17.88h-9.81v-2.88h9.81zm-12 1v7.61h-3.82v-7.61zm-3.85 13.14h-11.08v-4.53h11.1zm-11.13-5.53h-3.56v-7.61h3.56zm-5.72-8.61h-9.81v-2.88h9.81zm-56.53-11.87v10.67h-14v-15.06zm-15 9.84a2.88 2.88 0 0 0 -5.59.83h-8.37v-19.76l14 4.39zm-15 .83h-14v-24.47l14 4.39zm-4.84 1v7.19a15 15 0 0 1 -5.17-1.06c-3.21-1.31-5.16-3.63-5.25-6.13zm-14.18.15h-9.8v-2.88h9.82zm-1.16-3.88h-8.75v-1.91h8.75zm-9.75 0h-.06v-1.91h.06zm-5.62 12.49h-9.16v-9.27h.82v-7.27a4.58 4.58 0 0 1 8.34 2.61zm-9.34-16.84a5.75 5.75 0 0 0 -.62 1.44h-4.76v2.91h-1.17v2.73h-7.41v-30.07h14zm-15 7.08h-10.21a2.84 2.84 0 0 0 -3.65-2.61v-27.46h14zm-15-2.11a2.92 2.92 0 0 0 -1.1 2.11h-12.72v-30.07h14zm-15 2.11h-13.37a2.92 2.92 0 0 0 -.41-1.33v-28.74h14zm-15-2.32a2.87 2.87 0 0 0 -4.35 2.32h-9.61v-30.07h14zm-15 2.32h-8.23v-2.73h-.88v-2.91h-4.56v-24.43h14zm-46.38-34-2.51-2.56h37.48l-2.52 2.56zm-3.91-2.56 3.2 3.26v2.21h-40.41v-2.21l3.2-3.26zm-38.18 2.56h-31.93l-2.52-2.56h37.22zm-27.34 3.91v20.32h-.45a4.62 4.62 0 0 0 -4.58 4.11h-1.91v-24.41zm-7.94 24.43h-1.7v2.91h-1.16v2.73h-11.1v-30.05h14zm-15 5.64h-6.26a2.88 2.88 0 0 0 -5.75 0h-1.65v-30.05h14zm-15 0h-14v-30.05h14zm-15 0h-9.8a2.87 2.87 0 0 0 -4.16-2.42v-27.63h14zm-15-1.59a2.87 2.87 0 0 0 -.6 1.59h-12.94v-30.05h14zm-15 1.59h-4.29v-2.73h-1.17v-2.91h-4.3a5.63 5.63 0 0 0 -3.74-3.87v-20.54h14zm-15-9.71a4.49 4.49 0 0 0 -.64 0 5.58 5.58 0 0 0 -5.38 4.11h-7.95v-24.45h14zm-15 4.07h-6.62v2.91h-1.16v2.73h-6.18v-30.05h14zm-15 5.64h-13.36v-30.05h14zm-15 0h-5.25a2.88 2.88 0 0 0 -5.76 0h-2.35v-30.05h14zm-15 0h-14v-30.05h14zm-15 0h-8.49a2.88 2.88 0 0 0 -5.47-1.11v-29h14zm-15 0h-14v-30.05h14zm-15 0h-10.95v-2.73h-1.17v-2.91h-1.07v-24.41h14zm-15-5.64h-2.69a5.57 5.57 0 0 0 -10.75 0h-.52v-24.41h14zm-15 0h-2.36v2.91h-1.2v2.73h-9.55v-30.05h14zm-15 5.64h-14v-30.05h14zm-15 0h-1.77a2.88 2.88 0 0 0 -5.76 0h-6.43v-30.05h14zm-15 0h-14v-30.05h14zm-15 0h-5a2.88 2.88 0 0 0 -5.76 0h-3.19v-30.05h14zm-15 0h-14v-30.05h14zm-15 0h-8.23v-2.73h-1.16v-2.91h-4.57v-24.41h14zm-26.09 10.76v4.53h-2.67v-4.53zm-4.14 5.53h22.47l8.52 4.15h-38.63zm-4.08 8.54h29.55v1.72h-28.47zm121.2 154.27h21.75v15.31h-21.75zm22.75 5.27h9.4v7.3h-1.55v2.72h-7.85zm6.69-44.11h13.31v42.11h-13.35zm43.46 1v41.11h-28.69v-41.11zm9.81 49.41h-6.78v-5.3h6.78zm-8.28 0h-6.68v-5.3h6.61zm-15.5-5.3h7.82v5.3h-7.89zm-1 5.3h-7.89v-5.3h7.89zm-8.89-5.3v5.3h-6.61v-5.3zm-8.11 5.3h-6.78v-5.3h6.78zm33.47-8.3v-42.11h13.31v42.11zm13.31-44.11h-5.41v-14.28h5.41zm-6.41 0h-5.4v-14.28h5.4zm-6.9 1h-5.83v-15.28h5.83zm-6.83 0h-5.33v-15.28h5.33zm-6.33 0h-5.33v-15.28h5.33zm-6.33 0h-5.33v-15.28h5.33zm-6.33 0h-5.83v-15.28h5.83zm-7.33-1h-5.69v-14.28h5.69zm-6.69 0h-5.12v-14.28h5.12zm-3 54.41h53.66v1.72h-53.66zm64.39-54.41v-14.28h14.67v14.28zm0 52.41v-49.41h14.67v49.41zm-1 2h16.66v1.72h-16.65zm17.66-5.14h2.58v6.86h-2.58zm-.5-1v-64h-17.65v60.89h-5.29v-43.16-1-16.78h-61.27v60.89h-5.15v-5.27h-1.5v-150.53h95.4v150.53h-1.45v8.45zm4.08-7.45h9.91v15.31h-9.91zm10.91 0h21.72v15.31h-21.71zm22.72 8.45h3.85v6.86h-3.85zm76.49-8.43h45.33v15.31h-45.33zm71.44 0h45.33v15.31h-45.33zm46.33 8.45h5.18v6.86h-5.18zm7.18-49.27v-14.3h14.67v14.28zm16.16-14.77h5.33v59.88h-5.29zm45.48 16.77v42.11h-38.69v-42.13zm-11 50.41v-5.3h2.38v5.3zm-1.5 0h-3.42v-5.3h3.42zm-21.51 0v-5.3h2.39v5.3zm3.89-5.3h3.41v5.3h-3.41zm4.41 0h3.9v5.3h-3.9zm4.9 0h3.89v5.3h-3.89zm20.78-46.11h-6.59v-15.3h6.59zm-7.59 0h-7.17v-15.3h7.17zm-8.17 0h-7.17v-15.3h7.17zm-8.17 0h-7.17v-15.3h7.17zm-8.17 0h-6.59v-15.3h6.59zm-29.54 51.41v-49.43h14.67v49.41zm-1 2h16.66v1.72h-16.63zm17.66-8.3h9v7.3h-1.55v2.72h-7.45zm8.45 8.3h30.49v1.72h-30.46zm38.53-5.14h4.92v6.86h-4.92zm0-1v-3.16h-.5v-60.91h-64.62v64h-5.68v-8.38h-1.1v-150.53h78.3v150.53h-1.46v8.45zm5.92-7.45h21.72v15.31h-21.69zm22.72 0h9.91v15.31h-9.91zm10.91 8.45h2.58v6.86h-2.55zm4.58-49.27v-14.3h14.75v14.28zm16.17-14.77h5.29v59.88h-5.29zm50.24 17.77v41.11h-28.66v-41.13zm3.34 49.39v-5.3h6.78v5.3zm-1.5 0h-6.6v-5.3h6.61zm-40.28 0v-5.3h6.78v5.3zm8.28-5.3h6.62v5.3h-6.62zm7.62 0h7.88v5.3h-7.88zm8.88 0h7.89v5.3h-7.89zm15.18-3v-42.11h13.32v42.11zm-31.65 0h-13.3v-42.11h13.31zm45-44.11h-5.12v-14.28h5.12zm-6.12 0h-5.69v-14.28h5.69zm-7.19 1h-5.83v-15.28h5.83zm-6.83 0h-5.39v-15.28h5.33zm-6.33 0h-5.36v-15.28h5.3zm-6.33 0h-5.33v-15.28h5.33zm-6.33 0h-5.83v-15.28h5.83zm-7.32-1h-5.41v-14.28h5.41zm-6.41 0h-5.41v-14.28h5.41zm-28.36 52.41v-49.41h14.69v49.41zm-1 2h16.69v1.72h-16.72zm17.67-8.3h9.28v7.3h-1.55v2.72h-7.71zm8.73 8.3h53.66v1.72h-53.69zm57.32-9.3v-60.89h-84.25v64h-3.08v-8.38h-1.45v-150.53h95.28v150.53h-1.45v5.29zm6.08-4.29h9.89v15.31h-9.92zm10.89.02h22v15.31h-22zm23 0h7.47v1h1.45v14.31h-8.92zm10.47-2v-69.09l88.53 4v13l-4.13-.14-6.51-.24-12.65-.45-62-2.21v65.56h-1.81v-10.43zm275.63-53.78 6.77-.09v71.18h-6.77zm7.77-.11 6.76-.1v71.3h-6.76zm14-1.2-6.25.09-16.53.24-185.09 2.67v-13l185.6-4v-3.25-62.66l-197.24 9.39v-12.79l219.52-11zm-1.55-98.11-150.93 7.68-67 3.42v-2.4l205-11.13h.47l12.48-.68zm-13.46-3.4-8.75.48v-9.57l8.75-.58zm-284.8-23.21h-9.81v-1.91h9.81zm-30.35 0h-9.8v-1.91h9.8zm-47.71-5.82-9-2.83-4.9-1.54h48.9l8.85 4.37zm-54.95-16.23v24.78h-3.05v-2.73h-1.16v-2.91h-9.75v-23.53zm-15 19.14h-4.82a5.57 5.57 0 0 0 -9.14-2.65v-21.78h12.11l1.85.58zm-139.05-31.9 6.43-2.56h25.4l7.25 2.56zm6.1-7.38h-21.58v-15.76h21.58zm-21.58-16.76v-1.52h21.58v1.52zm-5.14 16.76h-21.59v-15.76h21.59zm-21.59-16.76v-1.52h21.59v1.52zm-17.55-75.51 7.85-3.42 7.85 3.42zm-1.58 60.43a6.12 6.12 0 0 1 2.1-4.62 7.74 7.74 0 0 1 .73-.55l.24-.14a5.39 5.39 0 0 1 .76-.38l.25-.09a6.22 6.22 0 0 1 .87-.25h.17a5.55 5.55 0 0 1 1-.09h.22.43.2l.42.07h.06a6.2 6.2 0 0 1 2.78 1.42l.27.25c.1.1.2.21.29.32a5.92 5.92 0 0 1 1 1.62l.12.32.09.27a6.16 6.16 0 0 1 .26 1.77v4.12h-12.26zm15.15 5.11v1.36a2.91 2.91 0 0 0 -1.2 2.36s0 .05 0 .07a2.47 2.47 0 0 0 .08.6.61.61 0 0 0 0 .13 2.29 2.29 0 0 0 .24.58l.06.12a.41.41 0 0 1 .05.09h-16.52a2.83 2.83 0 0 0 .48-1.58 2.92 2.92 0 0 0 -1.21-2.36v-1.37zm-357.33 28.89v35.39a6 6 0 0 0 -.39-.49 5.55 5.55 0 0 0 -8.28 0 5 5 0 0 0 -.4.51v-35.41zm-13.72 38.12h3.56v1.91h-3.56zm3.56 2.91v2.88h-4.72v-2.88zm704.56 190.23h2.31v6.37h-2.31zm129.91-60.62 140.78-2v69.75h-140.78z"/><path d="m642.52 610.14h7.27v-6.74h-7.27zm1-5.74h5.27v4.74h-5.27z"/><path d="m642.52 598.93h7.27v-7.86h-7.27zm1-6.86h5.27v5.86h-5.27z"/><path d="m642.52 586.6h7.27v-7.85h-7.27zm1-6.85h5.27v5.85h-5.27z"/><path d="m642.52 566.42v7.86h7.27v-7.86zm6.27 6.86h-5.27v-5.86h5.27z"/><path d="m661.38 610.14v-6.74h-7.28v6.74zm-6.28-5.74h5.28v4.74h-5.28z"/><path d="m661.38 591.07h-7.28v7.86h7.28zm-1 6.86h-5.28v-5.86h5.28z"/><path d="m661.38 578.75h-7.28v7.85h7.28zm-1 6.85h-5.28v-5.85h5.28z"/><path d="m661.38 566.42h-7.28v7.86h7.28zm-1 6.86h-5.28v-5.86h5.28z"/><path d="m674.85 478.57h-16.78a.49.49 0 0 0 -.5.45.5.5 0 0 0 .4.54 30.46 30.46 0 0 1 16.51 9.38.52.52 0 0 0 .37.16h.18a.51.51 0 0 0 .32-.47v-9.53a.5.5 0 0 0 -.5-.53zm-.5 8.78a31.41 31.41 0 0 0 -12.47-7.78h12.47z"/><path d="m646.32 479a.49.49 0 0 0 -.49-.45h-16.83a.5.5 0 0 0 -.5.5v9.53a.51.51 0 0 0 .32.47h.18a.52.52 0 0 0 .37-.16 30.39 30.39 0 0 1 16.52-9.38.49.49 0 0 0 .43-.51zm-16.78 8.33v-7.78h12.46a31.38 31.38 0 0 0 -12.46 7.8z"/><path d="m660.25 526.94-1.51-1.52h-4.69a2.59 2.59 0 0 0 -4.21 0h-4.69l-1.51 1.52 1.51 1.52h4.69a2.59 2.59 0 0 0 4.21 0h4.69zm-14.69.52-.51-.52.51-.52h3.84a2.28 2.28 0 0 0 0 1zm6.39 1.08a1.6 1.6 0 1 1 1.6-1.6 1.61 1.61 0 0 1 -1.55 1.6zm2.55-1.08a2.73 2.73 0 0 0 0-1h3.83l.51.52-.51.52z"/><path d="m623 395.08h-16.41v6.83h16.41zm-1 5.83h-14.41v-4.83h14.41z"/><path d="m645 401.91h13.81v-6.83h-13.81zm1-5.83h11.81v4.83h-11.81z"/><path d="m630.87 401.91h8.76v-6.83h-8.76zm1-5.83h6.76v4.83h-6.76z"/><path d="m664.26 401.91h8.74v-6.83h-8.76zm1-5.83h6.74v4.83h-6.76z"/><path d="m697.3 401.91v-6.83h-16.43v6.83zm-15.43-5.83h14.43v4.83h-14.43z"/><path d="m614.8 343.79a2.52 2.52 0 1 0 2.52 2.52 2.52 2.52 0 0 0 -2.52-2.52zm0 4a1.52 1.52 0 1 1 1.52-1.51 1.52 1.52 0 0 1 -1.52 1.54z"/><path d="m689.09 343.79a2.52 2.52 0 1 0 2.51 2.52 2.52 2.52 0 0 0 -2.51-2.52zm0 4a1.52 1.52 0 1 1 1.51-1.51 1.52 1.52 0 0 1 -1.51 1.54z"/><path d="m646.56 376.09v-7.28h-15.95v7.28zm-14.95-6.28h13.95v5.28h-13.95z"/><path d="m673.28 376.09v-7.28h-15.95v7.28zm-14.95-6.28h13.95v5.28h-13.95z"/><path d="m505.22 421.46a2.51 2.51 0 1 0 -2.51-2.51 2.51 2.51 0 0 0 2.51 2.51zm0-4a1.51 1.51 0 1 1 -1.51 1.51 1.51 1.51 0 0 1 1.51-1.53z"/><path d="m798.93 416.44a2.51 2.51 0 1 0 2.51 2.51 2.51 2.51 0 0 0 -2.51-2.51zm0 4a1.51 1.51 0 1 1 1.51-1.51 1.51 1.51 0 0 1 -1.51 1.53z"/><path d="m936.85 421.46a2.51 2.51 0 1 0 -2.51-2.51 2.51 2.51 0 0 0 2.51 2.51zm0-4a1.51 1.51 0 1 1 -1.51 1.51 1.51 1.51 0 0 1 1.51-1.53z"/><path d="m522.51 539.09h64.62v-12h-64.62zm1-11h62.62v10h-62.62z"/><path d="m587.13 455.07h-64.62v12h64.62zm-1 11h-62.62v-10h62.62z"/><path d="m550.61 470.9h-28.11v50h28.11zm-1.5 48.46h-25.11v-47h25.11z"/><path d="m559 520.86h28.11v-50h-28.11zm1.5-48.46h25.11v47h-25.08z"/><path d="m717 539.09h64.63v-12h-64.63zm1-11h62.63v10h-62.63z"/><path d="m781.65 455.07h-64.65v12h64.63zm-1 11h-62.65v-10h62.63z"/><path d="m745.12 470.9h-28.12v50h28.11zm-1.49 48.46h-25.12v-47h25.12z"/><path d="m753.54 520.86h28.11v-50h-28.11zm1.46-48.46h25.11v47h-25.11z"/><path d="m720.72 610.14h4.28v-6.74h-4.26zm1-5.74h2.28v4.74h-2.26z"/><path d="m720.72 598.93h4.28v-7.86h-4.26zm1-6.86h2.28v5.86h-2.26z"/><path d="m720.72 586.6h4.28v-7.85h-4.26zm1-6.85h2.28v5.85h-2.26z"/><path d="m720.72 574.28h4.28v-7.86h-4.26zm1-6.86h2.28v5.86h-2.26z"/><path d="m726.7 610.14h4.3v-6.74h-4.3zm1-5.74h2.3v4.74h-2.3z"/><path d="m726.7 598.93h4.3v-7.86h-4.3zm1-6.86h2.3v5.86h-2.3z"/><path d="m726.7 586.6h4.3v-7.85h-4.3zm1-6.85h2.3v5.85h-2.3z"/><path d="m726.7 574.28h4.3v-7.86h-4.3zm1-6.86h2.3v5.86h-2.3z"/><path d="m720.72 559h4.28v-10h-4.26zm1-9h2.28v8h-2.26z"/><path d="m726.7 559h4.3v-10h-4.3zm1-9h2.3v8h-2.3z"/><path d="m824.87 539.09h84.06v-12h-84.06zm1-11h82.06v10h-82.06z"/><path d="m824.87 467.07h84.06v-12h-84.06zm1-11h82.06v10h-82.06z"/><path d="m862.54 470.9h-37.76v50h37.76zm-1.49 48.46h-34.77v-47h34.77z"/><path d="m870.67 470.9v50h37.76v-50zm36.26 48.46h-34.76v-47h34.76z"/><path d="m828.49 610.14h4.26v-6.74h-4.26zm1-5.74h2.26v4.74h-2.26z"/><path d="m828.49 598.93h4.26v-7.86h-4.26zm1-6.86h2.26v5.86h-2.26z"/><path d="m828.49 586.6h4.26v-7.85h-4.26zm1-6.85h2.26v5.85h-2.26z"/><path d="m828.49 574.28h4.26v-7.86h-4.26zm1-6.86h2.26v5.86h-2.26z"/><path d="m834.47 610.14h4.27v-6.74h-4.27zm1-5.74h2.27v4.74h-2.27z"/><path d="m834.47 598.93h4.27v-7.86h-4.27zm1-6.86h2.27v5.86h-2.27z"/><path d="m834.47 586.6h4.27v-7.85h-4.27zm1-6.85h2.27v5.85h-2.27z"/><path d="m834.47 574.28h4.27v-7.86h-4.27zm1-6.86h2.27v5.86h-2.27z"/><path d="m828.49 559h4.26v-10h-4.26zm1-9h2.26v8h-2.26z"/><path d="m834.47 559h4.27v-10h-4.27zm1-9h2.27v8h-2.27z"/><path d="m378.1 421.46a2.51 2.51 0 1 0 -2.51-2.51 2.51 2.51 0 0 0 2.51 2.51zm0-4a1.51 1.51 0 1 1 -1.51 1.51 1.51 1.51 0 0 1 1.51-1.53z"/><path d="m395.22 539.09h84.06v-12h-84.06zm1-11h82.06v10h-82.06z"/><path d="m479.28 455.07h-84.06v12h84.06zm-1 11h-82.06v-10h82.06z"/><path d="m441.61 520.86h37.76v-50h-37.76zm1.5-48.46h34.76v47h-34.76z"/><path d="m433.48 520.86v-50h-37.76v50zm-36.26-48.46h34.78v47h-34.78z"/><path d="m471.4 610.14h4.26v-6.74h-4.26zm1-5.74h2.26v4.74h-2.26z"/><path d="m471.4 598.93h4.26v-7.86h-4.26zm1-6.86h2.26v5.86h-2.26z"/><path d="m471.4 586.6h4.26v-7.85h-4.26zm1-6.85h2.26v5.85h-2.26z"/><path d="m471.4 574.28h4.26v-7.86h-4.26zm1-6.86h2.26v5.86h-2.26z"/><path d="m465.41 610.14h4.27v-6.74h-4.27zm1-5.74h2.27v4.74h-2.27z"/><path d="m465.41 598.93h4.27v-7.86h-4.27zm1-6.86h2.27v5.86h-2.27z"/><path d="m465.41 586.6h4.27v-7.85h-4.27zm1-6.85h2.27v5.85h-2.27z"/><path d="m465.41 574.28h4.27v-7.86h-4.27zm1-6.86h2.27v5.86h-2.27z"/><path d="m471.4 559h4.26v-10h-4.26zm1-9h2.26v8h-2.26z"/><path d="m465.41 559h4.27v-10h-4.27zm1-9h2.27v8h-2.27z"/><path d="m456.42 545.39h5.29v1h-5.29z"/><path d="m261.9 421.46a2.51 2.51 0 1 0 -2.51-2.51 2.51 2.51 0 0 0 2.51 2.51zm0-4a1.51 1.51 0 1 1 -1.51 1.51 1.51 1.51 0 0 1 1.51-1.53z"/><path d="m279 539.09h84.06v-12h-84.06zm1-11h82.06v10h-82.06z"/><path d="m363.08 455.07h-84.08v12h84.06zm-1 11h-82.08v-10h82.06z"/><path d="m325.41 520.86h37.76v-50h-37.76zm1.5-48.46h34.76v47h-34.76z"/><path d="m317.29 520.86v-50h-37.77v50zm-36.29-48.46h34.77v47h-34.77z"/><path d="m682.39 586.6h13.61v-9.6h-13.61zm1-8.62h11.61v7.62h-11.61z"/><path d="m991.48 575.58h1v35.14h-1z"/><path d="m995.89 575.58h1v35.14h-1z"/><path d="m757.71 264.56c-6.24 0-8.69-4.73-8.69-10.79s2.45-10.77 8.69-10.77 8.7 4.73 8.7 10.79-2.41 10.77-8.7 10.77zm0-18.71c-3.84 0-5.34 3.48-5.34 7.92s1.5 7.92 5.34 7.92 5.34-3.48 5.34-7.92-1.5-7.92-5.34-7.92z"/><path d="m778 245.61c-3.33.24-5 1.41-5 5.79h.09a6.3 6.3 0 0 1 4.86-2c3.75 0 6.33 2.49 6.33 7.59s-3 7.55-7.23 7.55c-4.94 0-7-3.68-7-9.8 0-9.66 2.69-11.42 7.64-11.87a15.49 15.49 0 0 0 5-1.11l.93 2.48a15.72 15.72 0 0 1 -5.62 1.37zm-.9 16.35c2.34 0 4.05-1.62 4.05-4.95s-1.56-5-3.69-5a5.06 5.06 0 0 0 -4.29 2.61c-.05 4.91 1.18 7.38 3.88 7.38z"/><path d="m789.47 251.58h-3.84l.6-2.61h6.36v5.58h3c3.3 0 5.46 1.8 5.46 4.89s-2.16 4.82-5.46 4.82h-6.17zm3.12 5.58v4.5h2.75c1.59 0 2.58-.84 2.58-2.25s-1-2.25-2.58-2.25z"/><path d="m816.57 257.34h-9.71c.21 3 1.77 4.62 4.53 4.62a8.49 8.49 0 0 0 3.81-1l1 2.36a11.14 11.14 0 0 1 -5.12 1.29c-4.5 0-7.44-2.93-7.44-7.94s2.76-8 6.9-8 6.29 2.4 6.29 6.15a12.89 12.89 0 0 1 -.26 2.52zm-9.57-2.43h7.08c0-2.1-1.14-3.63-3.45-3.63-2.09 0-3.38 1.47-3.63 3.63z"/><path d="m828.21 256.35 5.07 7.91-3.18.3-4.41-6.92h-1.69v6.62h-3.12v-15.26h3.12v6.18h1.71l4-6.18h3.29z"/><path d="m834.33 249h12.95l-.6 2.61h-4.41v12.68h-3.09v-12.71h-4.85z"/><path d="m865.54 256.35 5.07 7.91-3.18.3-4.43-6.92h-1.68v6.62h-3.12v-15.26h3.12v6.18h1.71l4-6.18h3.24z"/><path d="m873.49 267.86a4.45 4.45 0 0 0 1.65.39c.69 0 1.47-.33 1.89-1.77l.65-2.22h-1.11l-5.36-15.26h3.42l4 11.73h.12l3.49-11.73h3.36l-5.88 18.23c-1 2.94-2.75 3.66-4.4 3.66a6.9 6.9 0 0 1 -2.64-.57z"/><path d="m886.47 261.39a1.9 1.9 0 0 0 1 .3c1.41 0 2.19-2.91 2.19-10.17v-2.52h10.24v15.29h-3.11v-12.71h-4.14v.66c0 8.16-1.47 12.17-4.92 12.17a3.36 3.36 0 0 1 -2-.54z"/><path d="m911 254.55c3.3 0 5.46 1.8 5.46 4.89s-2.16 4.82-5.46 4.82h-6.12v-15.26h3.12v5.58zm-3 2.61v4.5h2.7c1.59 0 2.58-.84 2.58-2.25s-1-2.25-2.58-2.25z"/><path d="m916.58 249h12.95l-.6 2.61h-4.41v12.68h-3.08v-12.71h-4.86z"/><path d="m932.56 267.86a4.45 4.45 0 0 0 1.65.39c.69 0 1.47-.33 1.89-1.77l.66-2.22h-1.11l-5.37-15.26h3.42l4 11.73h.12l3.49-11.73h3.36l-5.87 18.2c-1 2.94-2.76 3.66-4.41 3.66a6.9 6.9 0 0 1 -2.64-.57z"/><path d="m950.49 270.26-3.12.6v-21.86h2.22l.6 1.62h.12a5.42 5.42 0 0 1 4.35-1.92c4.32 0 6.18 3.39 6.18 8s-1.89 7.94-6.45 7.94a9 9 0 0 1 -3.9-.81zm7.17-13.64c0-3.15-1.26-5.34-3.9-5.34a4.33 4.33 0 0 0 -3.27 1.89v7.71a5.58 5.58 0 0 0 3.39 1.08c2.37.04 3.78-1.96 3.78-5.34z"/><path d="m977.15 264.26h-3.15v-6.56h-6v6.56h-3.12v-15.26h3.12v6.12h6v-6.12h3.12z"/><path d="m981.2 256.62c0-5 2.79-8 7-8s7 3 7 8-2.79 7.94-7 7.94-7-2.96-7-7.94zm3.17 0c0 3.36 1.53 5.34 3.87 5.34s3.87-2 3.87-5.34-1.53-5.34-3.87-5.34-3.87 1.98-3.87 5.34z"/><path d="m1008.87 249-.6 2.61h-5.82v12.68h-3.11v-15.29z"/><path d="m1010.37 256.62c0-5 2.79-8 7-8s7 3 7 8-2.78 7.94-7 7.94-7-2.96-7-7.94zm3.18 0c0 3.36 1.53 5.34 3.87 5.34s3.87-2 3.87-5.34-1.53-5.34-3.87-5.34-3.87 1.98-3.87 5.34z"/><path d="m1048.72 264.26h-3.12v-6.56h-6v6.56h-3.12v-15.26h3.12v6.12h6v-6.12h3.12z"/><path d="m1061.5 255.27v-1c0-1.83-.78-3-3-3a12.08 12.08 0 0 0 -4.14.81l-.9-2.43a15 15 0 0 1 5.4-1c4.68 0 5.78 2.46 5.78 5.64v6.42a1 1 0 0 0 1.08 1.08h.33v2.3a5.5 5.5 0 0 1 -1.79.3 2.37 2.37 0 0 1 -2.43-1.77h-.12a5.59 5.59 0 0 1 -4.32 1.77c-2.91 0-4.74-1.44-4.74-4.55 0-2.91 2.4-4.59 5.79-4.59zm-3.21 2.43a2.28 2.28 0 0 0 -2.58 2.22 2 2 0 0 0 2.25 2 4.45 4.45 0 0 0 3.54-1.89v-2.33z"/><path d="m1079.28 261.3 1 2.39a10.11 10.11 0 0 1 -4.2.87c-5 0-7.47-3.53-7.47-7.94s2.37-8 7.32-8a11 11 0 0 1 4.2.81l-1 2.4a7.83 7.83 0 0 0 -3.06-.6c-2.58 0-4.32 2.16-4.32 5.34s1.71 5.34 4.29 5.34a9 9 0 0 0 3.24-.61z"/><path d="m1082.46 261.39a1.9 1.9 0 0 0 1 .3c1.41 0 2.19-2.91 2.19-10.17v-2.52h10.22v15.29h-3.12v-12.71h-4.14v.66c0 8.16-1.47 12.17-4.91 12.17a3.36 3.36 0 0 1 -2-.54z"/><path d="m1112.86 257.34h-9.71c.21 3 1.77 4.62 4.52 4.62a8.49 8.49 0 0 0 3.81-1l1 2.36a11.19 11.19 0 0 1 -5.13 1.29c-4.49 0-7.43-2.93-7.43-7.94s2.76-8 6.89-8 6.3 2.4 6.3 6.15a12.89 12.89 0 0 1 -.25 2.52zm-9.59-2.43h7.07c0-2.1-1.14-3.63-3.45-3.63-2.06 0-3.35 1.47-3.62 3.63z"/><path d="m1116.82 261.66c1.65-2.79 2.07-5.67 2.07-11v-1.66h10v12.69h2.43l-.6 6.41h-2.52v-3.81h-10.3v3.81h-2.52l-.6-6.41zm5.18-9.66c0 3.54-.66 7.44-1.86 9.63h5.67v-10.05h-3.81z"/><path d="m1134.36 264.26v-15.26h3.12v10.2h.12l7.05-10.2h2.79v15.29h-3.12v-10.22h-.12l-7 10.19z"/><path d="m1154.72 258.3a4.46 4.46 0 0 1 -2.82-4.47c0-3 2-4.86 5.31-4.86h6v15.29h-3.12v-5.54h-2.37l-3.3 5.54h-3.57zm2.79-2.16h2.61v-4.56h-2.61a2.24 2.24 0 0 0 -2.43 2.31 2.19 2.19 0 0 0 2.43 2.25z"/><path d="m748.72 290.6c0-5 2.78-7.94 7-7.94s7 3 7 7.94-2.79 7.95-7 7.95-7-2.97-7-7.95zm3.17 0c0 3.36 1.53 5.34 3.87 5.34s3.87-2 3.87-5.34-1.53-5.34-3.87-5.34-3.87 1.98-3.87 5.34z"/><path d="m774.05 279.6c-3.32.24-4.94 1.41-4.94 5.78h.09a6.3 6.3 0 0 1 4.85-2c3.75 0 6.33 2.48 6.33 7.58s-3 7.56-7.23 7.56c-4.94 0-7-3.69-7-9.81 0-9.65 2.7-11.42 7.64-11.87a15.49 15.49 0 0 0 5-1.11l.93 2.49a15.72 15.72 0 0 1 -5.67 1.38zm-.9 16.34c2.34 0 4.05-1.62 4.05-4.95s-1.56-5-3.69-5a5 5 0 0 0 -4.28 2.61c0 4.91 1.23 7.34 3.92 7.34z"/><path d="m783.05 295.37a1.9 1.9 0 0 0 1 .3c1.41 0 2.19-2.91 2.19-10.17v-2.5h10.22v15.29h-3.12v-12.73h-4.13v.66c0 8.16-1.47 12.18-4.92 12.18a3.36 3.36 0 0 1 -2-.54z"/><path d="m809.26 289.25v-1c0-1.83-.78-3-3-3a12.08 12.08 0 0 0 -4.14.81l-.9-2.42a15 15 0 0 1 5.4-1c4.68 0 5.79 2.45 5.79 5.63v6.42a1 1 0 0 0 1.07 1.08h.33v2.31a5.45 5.45 0 0 1 -1.79.3 2.37 2.37 0 0 1 -2.43-1.77h-.12a5.59 5.59 0 0 1 -4.32 1.77c-2.91 0-4.74-1.44-4.74-4.56 0-2.91 2.4-4.59 5.79-4.59zm-3.21 2.43a2.28 2.28 0 0 0 -2.58 2.22 2 2 0 0 0 2.25 2 4.45 4.45 0 0 0 3.54-1.89v-2.37z"/><path d="m827 295.28 1 2.4a10.11 10.11 0 0 1 -4.2.87c-4.95 0-7.47-3.54-7.47-7.95s2.37-7.94 7.32-7.94a11 11 0 0 1 4.2.81l-1 2.39a7.83 7.83 0 0 0 -3.06-.6c-2.58 0-4.32 2.16-4.32 5.34s1.71 5.34 4.29 5.34a8.81 8.81 0 0 0 3.24-.66z"/><path d="m829.65 283h13l-.6 2.6h-4.41v12.69h-3.08v-12.73h-4.86z"/><path d="m857.86 298.25h-3.12v-6.57h-6v6.57h-3.14v-15.25h3.12v6.11h6v-6.11h3.12z"/><path d="m861.91 290.6c0-5 2.79-7.94 7.05-7.94s7 3 7 7.94-2.78 7.95-7 7.95-7.05-2.97-7.05-7.95zm3.18 0c0 3.36 1.53 5.34 3.87 5.34s3.87-2 3.87-5.34-1.53-5.34-3.87-5.34-3.87 1.98-3.87 5.34z"/><path d="m889.59 283-.6 2.6h-5.82v12.69h-3.12v-15.29z"/><path d="m891.09 290.6c0-5 2.79-7.94 7-7.94s7 3 7 7.94-2.79 7.95-7 7.95-7-2.97-7-7.95zm3.18 0c0 3.36 1.53 5.34 3.86 5.34s3.87-2 3.87-5.34-1.53-5.34-3.87-5.34-3.86 1.98-3.86 5.34z"/><path d="m924.25 290.12v.09a3.81 3.81 0 0 1 3.27 3.63c0 2.88-2.13 4.71-6.42 4.71a14 14 0 0 1 -5.12-.93l1-2.4a12.24 12.24 0 0 0 4.07.72c2 0 3.33-.9 3.33-2.16s-.81-2.13-3.06-2.13h-2.07v-2.49h1.75c1.44 0 2.64-.57 2.64-1.92s-1.14-2-2.58-2a12.54 12.54 0 0 0 -4 .66l-1-2.39a15.56 15.56 0 0 1 5.06-.87c3.66 0 5.67 1.5 5.67 4.19a3.42 3.42 0 0 1 -2.54 3.29z"/><path d="m943.68 298.25h-3.12v-6.57h-6v6.57h-3.11v-15.25h3.11v6.11h6v-6.11h3.12z"/><path d="m956.45 289.25v-1c0-1.83-.78-3-3-3a12.08 12.08 0 0 0 -4.14.81l-.9-2.42a15 15 0 0 1 5.4-1c4.67 0 5.78 2.45 5.78 5.63v6.42a1 1 0 0 0 1.08 1.08h.33v2.31a5.51 5.51 0 0 1 -1.8.3 2.37 2.37 0 0 1 -2.43-1.77h-.12a5.55 5.55 0 0 1 -4.31 1.77c-2.91 0-4.74-1.44-4.74-4.56 0-2.91 2.4-4.59 5.79-4.59zm-3.2 2.43a2.28 2.28 0 0 0 -2.58 2.22 2 2 0 0 0 2.25 2 4.42 4.42 0 0 0 3.53-1.89v-2.37z"/><path d="m963.53 287.69v-4.69h3.12v4.46a2.39 2.39 0 0 0 2.64 2.61 8.25 8.25 0 0 0 2.91-.54v-6.53h3.11v15.29h-3.11v-6.29a9.9 9.9 0 0 1 -3.39.63c-3.03.01-5.28-1.58-5.28-4.94z"/><path d="m992.29 291.32h-9.72c.21 3 1.77 4.62 4.53 4.62a8.49 8.49 0 0 0 3.81-1.05l1 2.37a11.19 11.19 0 0 1 -5.13 1.29c-4.5 0-7.44-2.94-7.44-7.95s2.76-7.94 6.9-7.94 6.3 2.39 6.3 6.14a12.89 12.89 0 0 1 -.25 2.52zm-9.6-2.43h7.08c0-2.1-1.14-3.63-3.45-3.63-2.07 0-3.32 1.47-3.63 3.63z"/><path d="m1008.87 298.25h-3.12v-6.57h-6v6.57h-3.11v-15.25h3.11v6.11h6v-6.11h3.12z"/><path d="m1013.82 298.25v-15.25h3.12v10.19h.12l7-10.19h2.79v15.29h-3.12v-10.2h-.12l-7 10.2z"/><path d="m1034.18 292.28a4.46 4.46 0 0 1 -2.82-4.47c0-3 2-4.85 5.31-4.85h6v15.29h-3.12v-5.55h-2.36l-3.3 5.55h-3.57zm2.79-2.16h2.6v-4.56h-2.57a2.24 2.24 0 0 0 -2.43 2.31 2.19 2.19 0 0 0 2.43 2.25z"/></g></svg>