<svg fill="none" height="2533" viewBox="0 0 3000 2533" width="3000" xmlns="http://www.w3.org/2000/svg"><path d="m1646.77 1713.79c-20.6 115.6-141.94 190.6-271.12 167.56-129.08-23.03-217.17-135.57-196.46-251.06 20.61-115.6 141.18-185.47 271.13-167.56 132.46 18.23 217.06 135.57 196.45 251.06zm-115.99-740.866c187.84-85.036 362.49-200.527 515.22-338.397l-202.99-200.527c-245.73 265.478-465.95 421.577-920.01 550.931v273.119c76.749-39.41 156.55-72.48 239.19-95.41 76.42-21.28 155.46-30.78 234.93-31.65 97.46.76 196.23 33.73 271.24 96.17 95.83 79.14 138.56 194.52 124.5 317.44-6.54 80.99-37.29 151.73-84.6 208.05l-25.95-4.91c19.85-43.88 31.84-94.64 34.35-151.18 8.5-185.58-109.79-354.34-351.04-342.33-262.3 13.1-432.59 237.86-404.9 470.26 25.402 214.06 217.17 371.26 442.07 374.75v.33c305.58 10.37 507.37-166.58 584.12-369.73 69.01-182.73 51.13-395.05-77.29-546.56-96.16-115.17-234.28-182.41-378.95-210.247" fill="#efe6cc"/></svg>