<svg fill="none" height="3046" viewBox="0 0 3000 3046" width="3000" xmlns="http://www.w3.org/2000/svg" xmlns:xlink="http://www.w3.org/1999/xlink"><clipPath id="a"><path d="m0 0h3000v3046h-3000z"/></clipPath><g clip-path="url(#a)"><path d="m0 0h3000v3046h-3000z" fill="#000"/><g stroke="#ebe4cd" stroke-miterlimit="10" stroke-width="2"><path d="m2730.54 1522.01c0-115.77-91.35-209.62-204.05-209.62-112.69 0-204.04 93.85-204.04 209.62 0 115.78 91.35 209.63 204.04 209.63 112.7 0 204.05-93.85 204.05-209.63z"/><path d="m2743.82 1522.04c0-123.3-97.3-223.25-217.31-223.25-120.02 0-217.31 99.95-217.31 223.25s97.29 223.25 217.31 223.25c120.01 0 217.31-99.95 217.31-223.25z"/><path d="m2757.07 1522.02c0-130.82-103.23-236.87-230.58-236.87-127.34 0-230.57 106.05-230.57 236.87s103.23 236.87 230.57 236.87c127.35 0 230.58-106.05 230.58-236.87z"/><path d="m2770.32 1522.06c0-138.33-109.16-250.46-243.81-250.46-134.64 0-243.8 112.13-243.8 250.46s109.16 250.46 243.8 250.46c134.65 0 243.81-112.13 243.81-250.46z"/><path d="m2783.57 1522.02c0-145.85-115.09-264.09-257.06-264.09s-257.06 118.24-257.06 264.09 115.09 264.09 257.06 264.09 257.06-118.24 257.06-264.09z"/><path d="m2796.82 1522c0-153.38-121.02-277.71-270.32-277.71s-270.33 124.33-270.33 277.71c0 153.37 121.03 277.71 270.33 277.71s270.32-124.34 270.32-277.71z"/><path d="m2810.1 1522.05c0-160.91-126.97-291.34-283.59-291.34s-283.59 130.43-283.59 291.34c0 160.9 126.97 291.33 283.59 291.33s283.59-130.43 283.59-291.33z"/><path d="m2823.35 1522.03c0-168.43-132.91-304.96-296.85-304.96-163.95 0-296.85 136.53-296.85 304.96 0 168.42 132.9 304.96 296.85 304.96 163.94 0 296.85-136.54 296.85-304.96z"/><path d="m2836.6 1522.01c0-175.95-138.84-318.59-310.11-318.59s-310.11 142.64-310.11 318.59 138.84 318.58 310.11 318.58 310.11-142.63 310.11-318.58z"/><path d="m2849.89 1522.04c0-183.48-144.78-332.21-323.38-332.21-178.59 0-323.37 148.73-323.37 332.21 0 183.47 144.78 332.2 323.37 332.2 178.6 0 323.38-148.73 323.38-332.2z"/><path d="m2863.14 1522.02c0-191-150.72-345.84-336.64-345.84s-336.63 154.84-336.63 345.84 150.71 345.83 336.63 345.83 336.64-154.83 336.64-345.83z"/><path d="m2876.36 1522.05c0-198.5-156.64-359.42-349.87-359.42-193.22 0-349.86 160.92-349.86 359.42 0 198.51 156.64 359.43 349.86 359.43 193.23 0 349.87-160.92 349.87-359.43z"/><path d="m2889.63 1522.03c0-206.02-162.58-373.04-363.13-373.04s-363.12 167.02-363.12 373.04c0 206.03 162.57 373.05 363.12 373.05s363.13-167.02 363.13-373.05z"/><path d="m2902.89 1522.02c0-213.56-168.52-386.68-376.39-386.68-207.88 0-376.39 173.12-376.39 386.68 0 213.55 168.51 386.67 376.39 386.67 207.87 0 376.39-173.12 376.39-386.67z"/><path d="m2916.14 1522.04c0-221.08-174.45-400.3-389.65-400.3s-389.65 179.22-389.65 400.3 174.45 400.29 389.65 400.29 389.65-179.21 389.65-400.29z"/><path d="m2929.4 1522.02c0-228.6-180.39-413.92-402.92-413.92-222.52 0-402.91 185.32-402.91 413.92s180.39 413.92 402.91 413.92c222.53 0 402.92-185.32 402.92-413.92z"/><path d="m2942.68 1522.07c0-236.13-186.33-427.54-416.18-427.54-229.84 0-416.17 191.41-416.17 427.54s186.33 427.55 416.17 427.55c229.85 0 416.18-191.42 416.18-427.55z"/><path d="m2955.93 1522.05c0-243.65-192.27-441.17-429.44-441.17s-429.44 197.52-429.44 441.17 192.27 441.17 429.44 441.17 429.44-197.52 429.44-441.17z"/><path d="m2969.2 1522.01c0-251.18-198.2-454.79-442.7-454.79-244.49 0-442.7 203.61-442.7 454.79 0 251.17 198.21 454.79 442.7 454.79 244.5 0 442.7-203.62 442.7-454.79z"/><path d="m2982.43 1522.05c0-258.69-204.13-468.39-455.93-468.39s-455.93 209.7-455.93 468.39c0 258.68 204.13 468.38 455.93 468.38s455.93-209.7 455.93-468.38z"/><path d="m2995.7 1522.03c0-266.21-210.06-482.01-469.19-482.01s-469.19 215.8-469.19 482.01c0 266.2 210.06 482.01 469.19 482.01s469.19-215.81 469.19-482.01z"/><path d="m3008.95 1522.01c0-273.73-216-495.64-482.45-495.64s-482.45 221.91-482.45 495.64 216 495.63 482.45 495.63 482.45-221.9 482.45-495.63z"/><path d="m3022.24 1522.04c0-281.26-221.94-509.26-495.72-509.26s-495.72 228-495.72 509.26c0 281.25 221.94 509.25 495.72 509.25s495.72-228 495.72-509.25z"/><path d="m3035.49 1522.04c0-288.78-227.88-522.884-508.98-522.884s-508.98 234.104-508.98 522.884 227.88 522.88 508.98 522.88 508.98-234.1 508.98-522.88z"/><path d="m3048.74 1522.06c0-296.3-233.82-536.501-522.24-536.502-288.43 0-522.24 240.202-522.24 536.502 0 296.31 233.81 536.51 522.24 536.51 288.42 0 522.24-240.2 522.24-536.51z"/><path d="m3062 1522.05c0-303.83-239.75-550.133-535.5-550.133s-535.5 246.303-535.5 550.133 239.75 550.13 535.5 550.13 535.5-246.3 535.5-550.13z"/><path d="m3075.24 1522.01c0-311.33-245.68-563.72-548.74-563.72-303.05 0-548.73 252.39-548.73 563.72 0 311.34 245.68 563.72 548.73 563.72 303.06 0 548.74-252.38 548.74-563.72z"/><path d="m3088.49 1522.04c0-318.86-251.61-577.346-561.99-577.346s-561.99 258.486-561.99 577.346 251.61 577.35 561.99 577.35 561.99-258.49 561.99-577.35z"/><path d="m3101.74 1522.02c0-326.38-257.55-590.969-575.25-590.969-317.71 0-575.26 264.589-575.26 590.969s257.55 590.97 575.26 590.97c317.7 0 575.25-264.59 575.25-590.97z"/><path d="m3115.03 1522.05c0-333.91-263.49-604.597-588.52-604.597s-588.52 270.687-588.52 604.597 263.49 604.59 588.52 604.59 588.52-270.68 588.52-604.59z"/><path d="m3128.28 1522.03c0-341.43-269.43-618.22-601.78-618.22-332.36 0-601.78 276.79-601.78 618.22s269.42 618.22 601.78 618.22c332.35 0 601.78-276.79 601.78-618.22z"/><path d="m3141.53 1522.03c0-348.96-275.37-631.841-615.04-631.841-339.68 0-615.04 282.881-615.04 631.841s275.36 631.84 615.04 631.84c339.67 0 615.04-282.88 615.04-631.84z"/><path d="m3154.81 1522.06c0-356.48-281.3-645.468-628.3-645.468-347.01 0-628.31 288.988-628.31 645.468s281.3 645.47 628.31 645.47c347 0 628.3-288.99 628.3-645.47z"/><path d="m3168.06 1522.04c0-364.01-287.24-659.092-641.57-659.092-354.32 0-641.56 295.082-641.56 659.092 0 364 287.24 659.09 641.56 659.09 354.33 0 641.57-295.09 641.57-659.09z"/><path d="m3181.3 1522.01c0-371.52-293.16-672.686-654.79-672.686-361.64-.001-654.8 301.166-654.8 672.686 0 371.51 293.16 672.68 654.8 672.68 361.63 0 654.79-301.17 654.79-672.68z"/><path d="m3194.56 1522.03c0-379.03-299.1-686.304-668.06-686.304s-668.05 307.274-668.05 686.304c0 379.04 299.09 686.31 668.05 686.31s668.06-307.27 668.06-686.31z"/><path d="m3207.82 1522.01c0-386.56-305.04-699.926-681.32-699.926s-681.32 313.366-681.32 699.926c0 386.57 305.04 699.94 681.32 699.94s681.32-313.37 681.32-699.94z"/><path d="m3221.09 1522.02c0-394.09-310.97-713.556-694.58-713.556s-694.58 319.466-694.58 713.556c0 394.08 310.97 713.55 694.58 713.55s694.58-319.47 694.58-713.55z"/><path d="m3234.34 1522.04c0-401.61-316.91-727.176-707.84-727.176s-707.84 325.566-707.84 727.176 316.91 727.18 707.84 727.18 707.84-325.57 707.84-727.18z"/><path d="m3247.6 1522.02c0-409.13-322.85-740.8-721.11-740.8-398.25 0-721.1 331.67-721.1 740.8 0 409.14 322.85 740.81 721.1 740.81 398.26 0 721.11-331.67 721.11-740.81z"/><path d="m3260.86 1522.05c0-416.66-328.78-754.426-734.36-754.426s-734.37 337.766-734.37 754.426 328.79 754.43 734.37 754.43 734.36-337.77 734.36-754.43z"/><path d="m3274.13 1522.03c0-424.18-334.72-768.05-747.63-768.05-412.9 0-747.62 343.87-747.62 768.05 0 424.19 334.72 768.05 747.62 768.05 412.91 0 747.63-343.86 747.63-768.05z"/><path d="m3287.36 1522.05c0-431.69-340.64-781.648-760.85-781.648s-760.86 349.958-760.86 781.638c0 431.69 340.65 781.65 760.86 781.65s760.85-349.96 760.85-781.64z"/><path d="m3300.63 1522.05c0-439.21-346.59-795.267-774.12-795.267s-774.12 356.057-774.12 795.267 346.59 795.27 774.12 795.27 774.12-356.06 774.12-795.27z"/><path d="m3313.88 1522.03c0-446.74-352.52-808.89-787.38-808.89s-787.38 362.15-787.38 808.89 352.52 808.89 787.38 808.89 787.38-362.15 787.38-808.89z"/><path d="m3327.15 1522.06c0-454.26-358.46-822.517-800.65-822.517-442.18 0-800.64 368.257-800.64 822.517s358.46 822.52 800.64 822.52c442.19 0 800.65-368.26 800.65-822.52z"/><path d="m3340.4 1522.04c0-461.79-364.4-836.139-813.91-836.139s-813.9 374.349-813.9 836.139 364.39 836.14 813.9 836.14 813.91-374.35 813.91-836.14z"/><path d="m3353.65 1522.02c0-469.32-370.34-849.768-827.17-849.768s-827.17 380.448-827.17 849.768c0 469.31 370.34 849.76 827.17 849.76s827.17-380.45 827.17-849.76z"/><path d="m3366.92 1522.05c0-476.84-376.27-863.393-840.43-863.393-464.15 0-840.43 386.553-840.43 863.393 0 476.83 376.28 863.38 840.43 863.38 464.16 0 840.43-386.55 840.43-863.38z"/><path d="m3380.19 1522.02c0-484.36-382.21-877.008-853.69-877.008s-853.7 392.648-853.7 877.008c0 484.37 382.22 877.02 853.7 877.02s853.69-392.65 853.69-877.02z"/><path d="m3393.41 1522.04c0-491.87-388.13-890.606-866.92-890.606s-866.92 398.736-866.92 890.606 388.13 890.6 866.92 890.6 866.92-398.73 866.92-890.6z"/><path d="m3406.69 1522.04c0-499.39-394.07-904.225-880.19-904.225-486.11 0-880.18 404.835-880.18 904.225 0 499.4 394.07 904.23 880.18 904.23 486.12 0 880.19-404.83 880.19-904.23z"/><path d="m3419.95 1522.02c0-506.91-400.01-917.848-893.44-917.848-493.44 0-893.45 410.938-893.45 917.848 0 506.92 400.01 917.86 893.45 917.86 493.43 0 893.44-410.94 893.44-917.86z"/><path d="m3433.2 1522.05c0-514.44-405.94-931.475-906.7-931.475s-906.71 417.035-906.71 931.475 405.95 931.48 906.71 931.48 906.7-417.04 906.7-931.48z"/><path d="m3446.48 1522.03c0-521.96-411.89-945.097-919.97-945.097-508.09 0-919.97 423.137-919.97 945.097 0 521.97 411.88 945.1 919.97 945.1 508.08 0 919.97-423.13 919.97-945.1z"/><path d="m3459.73 1522.01c0-529.489-417.82-958.725-933.23-958.725s-933.23 429.236-933.23 958.725c0 529.49 417.82 958.73 933.23 958.73s933.23-429.24 933.23-958.73z"/><path d="m3472.98 1522.06c0-537.013-423.76-972.349-946.5-972.349-522.73 0-946.49 435.336-946.49 972.349 0 537.01 423.76 972.35 946.49 972.35 522.74 0 946.5-435.34 946.5-972.35z"/><path d="m3486.22 1522.03c0-544.521-429.68-985.942-959.72-985.942s-959.73 441.421-959.73 985.942c0 544.52 429.69 985.94 959.73 985.94s959.72-441.42 959.72-985.94z"/><path d="m3499.48 1522.06c0-552.049-435.62-999.569-972.99-999.569-537.36 0-972.98 447.52-972.98 999.569 0 552.04 435.62 999.56 972.98 999.56 537.37 0 972.99-447.52 972.99-999.56z"/><path d="m3512.75 1522.04c0-559.572-441.56-1013.192-986.25-1013.192-544.68 0-986.24 453.62-986.24 1013.192 0 559.57 441.56 1013.19 986.24 1013.19 544.69 0 986.25-453.62 986.25-1013.19z"/><path d="m3526 1522.02c0-567.095-447.49-1026.815-999.51-1026.815-552.01 0-999.51 459.72-999.51 1026.815 0 567.09 447.5 1026.81 999.51 1026.81 552.02 0 999.51-459.72 999.51-1026.81z"/><path d="m3539.27 1522.05c0-574.622-453.43-1040.442-1012.77-1040.442-559.33 0-1012.77 465.82-1012.77 1040.442 0 574.61 453.44 1040.43 1012.77 1040.43 559.34 0 1012.77-465.82 1012.77-1040.43z"/><path d="m3552.53 1522.05c0-582.146-459.37-1054.066-1026.04-1054.066-566.66 0-1026.03 471.92-1026.03 1054.066 0 582.14 459.37 1054.06 1026.03 1054.06 566.67 0 1026.04-471.92 1026.04-1054.06z"/><path d="m3565.79 1522.03c0-589.67-465.31-1067.689-1039.29-1067.689-573.99 0-1039.3 478.019-1039.3 1067.689 0 589.66 465.31 1067.68 1039.3 1067.68 573.98 0 1039.29-478.02 1039.29-1067.68z"/><path d="m3579.06 1522.05c0-597.187-471.25-1081.306-1052.56-1081.306s-1052.55 484.119-1052.55 1081.306c0 597.2 471.24 1081.31 1052.55 1081.31s1052.56-484.11 1052.56-1081.31z"/><path d="m3592.29 1522.02c0-604.697-477.17-1094.901-1065.79-1094.901-588.61 0-1065.78 490.204-1065.78 1094.901 0 604.7 477.17 1094.9 1065.78 1094.9 588.62 0 1065.79-490.2 1065.79-1094.9z"/><path d="m3605.54 1522.05c0-612.222-483.11-1108.526-1079.05-1108.526s-1079.04 496.304-1079.04 1108.526c0 612.22 483.1 1108.53 1079.04 1108.53s1079.05-496.31 1079.05-1108.53z"/><path d="m3618.8 1522.03c0-619.746-489.04-1122.149-1092.31-1122.149s-1092.31 502.403-1092.31 1122.149c0 619.75 489.04 1122.15 1092.31 1122.15s1092.31-502.4 1092.31-1122.15z"/><path d="m3632.08 1522.01c0-627.272-494.98-1135.775-1105.57-1135.775s-1105.57 508.503-1105.57 1135.775c0 627.27 494.98 1135.77 1105.57 1135.77s1105.57-508.5 1105.57-1135.77z"/><path d="m3645.33 1522.04c0-634.795-500.92-1149.399-1118.83-1149.399-617.92 0-1118.84 514.604-1118.84 1149.399 0 634.8 500.92 1149.4 1118.84 1149.4 617.91 0 1118.83-514.6 1118.83-1149.4z"/><path d="m3658.59 1522.04c0-642.317-506.86-1163.02-1132.1-1163.02s-1132.09 520.703-1132.09 1163.02c0 642.32 506.85 1163.03 1132.09 1163.03s1132.1-520.71 1132.1-1163.03z"/><path d="m3671.86 1522.02c0-649.843-512.8-1176.646-1145.36-1176.646-632.57 0-1145.36 526.803-1145.36 1176.646 0 649.85 512.79 1176.65 1145.36 1176.65 632.56 0 1145.36-526.8 1145.36-1176.65z"/><path d="m3685.11 1522.05c0-657.37-518.74-1190.273-1158.62-1190.273-639.89 0-1158.62 532.903-1158.62 1190.273s518.73 1190.27 1158.62 1190.27c639.88 0 1158.62-532.9 1158.62-1190.27z"/><path d="m3698.36 1522.01c0-664.872-524.66-1203.86-1171.85-1203.86-647.2 0-1171.85 538.988-1171.85 1203.86 0 664.88 524.65 1203.87 1171.85 1203.87 647.19 0 1171.85-538.99 1171.85-1203.87z"/><path d="m3711.61 1522.07c0-672.403-530.59-1217.491-1185.11-1217.491s-1185.11 545.088-1185.11 1217.491c0 672.4 530.59 1217.48 1185.11 1217.48s1185.11-545.08 1185.11-1217.48z"/><path d="m3724.86 1522.05c0-679.928-536.53-1231.115-1198.37-1231.115s-1198.37 551.187-1198.37 1231.115c0 679.92 536.53 1231.11 1198.37 1231.11s1198.37-551.19 1198.37-1231.11z"/><path d="m3738.14 1522.03c0-687.451-542.47-1244.738-1211.64-1244.738s-1211.63 557.287-1211.63 1244.738c0 687.45 542.46 1244.73 1211.63 1244.73s1211.64-557.28 1211.64-1244.73z"/><path d="m3751.4 1522.05c0-694.968-548.4-1258.355-1224.89-1258.355-676.5 0-1224.9 563.387-1224.9 1258.355 0 694.98 548.4 1258.36 1224.9 1258.36 676.49 0 1224.89-563.38 1224.89-1258.36z"/><path d="m3764.65 1522.04c0-702.501-554.34-1271.988-1238.16-1271.988-683.81 0-1238.15 569.487-1238.15 1271.988 0 702.49 554.34 1271.98 1238.15 1271.98 683.82 0 1238.16-569.49 1238.16-1271.98z"/><path d="m3777.93 1522.01c0-710.018-560.28-1285.604-1251.42-1285.604s-1251.42 575.586-1251.42 1285.604c0 710.02 560.28 1285.61 1251.42 1285.61s1251.42-575.59 1251.42-1285.61z"/><path d="m3791.15 1522.03c0-717.531-566.21-1299.203-1264.66-1299.203-698.44 0-1264.65 581.671-1264.65 1299.203 0 717.52 566.21 1299.2 1264.65 1299.2 698.45 0 1264.66-581.68 1264.66-1299.2z"/><path d="m3804.43 1522.03c0-725.051-572.14-1312.822-1277.92-1312.822-705.77 0-1277.91 587.771-1277.91 1312.822 0 725.05 572.14 1312.83 1277.91 1312.83 705.78 0 1277.92-587.78 1277.92-1312.83z"/><path d="m3817.68 1522.06c0-732.578-578.08-1326.449-1291.18-1326.449-713.09 0-1291.17 593.871-1291.17 1326.449 0 732.58 578.08 1326.45 1291.17 1326.45 713.1 0 1291.18-593.87 1291.18-1326.45z"/><path d="m3830.94 1522.04c0-740.102-584.02-1340.073-1304.44-1340.073s-1304.44 599.971-1304.44 1340.073c0 740.1 584.02 1340.07 1304.44 1340.07s1304.44-599.97 1304.44-1340.07z"/><path d="m3844.21 1522.02c0-747.624-589.95-1353.694-1317.7-1353.695-727.74 0-1317.7 606.071-1317.7 1353.695 0 747.63 589.96 1353.7 1317.7 1353.7 727.75 0 1317.7-606.07 1317.7-1353.7z"/><path d="m3857.46 1522.05c0-755.152-595.89-1367.323-1330.96-1367.323s-1330.96 612.17-1330.96 1367.323c0 755.15 595.89 1367.32 1330.96 1367.32s1330.96-612.17 1330.96-1367.32z"/><path d="m3870.72 1522.03c0-762.674-601.83-1380.944-1344.22-1380.944-742.4 0-1344.23 618.269-1344.23 1380.944 0 762.67 601.83 1380.94 1344.23 1380.94 742.39 0 1344.22-618.27 1344.22-1380.94z"/><path d="m3883.97 1522.01c0-770.196-607.77-1394.566-1357.49-1394.566-749.71 0-1357.48 624.369-1357.48 1394.566 0 770.2 607.77 1394.57 1357.48 1394.57 749.72 0 1357.49-624.37 1357.49-1394.57z"/><path d="m3897.22 1522.02c0-777.705-613.69-1408.16-1370.72-1408.16-757.02 0-1370.71 630.455-1370.71 1408.16 0 777.71 613.69 1408.16 1370.71 1408.16 757.03 0 1370.72-630.45 1370.72-1408.16z"/><path d="m3910.47 1522.02c0-785.226-619.63-1421.78-1383.98-1421.78s-1383.97 636.554-1383.97 1421.78c0 785.23 619.62 1421.79 1383.97 1421.79s1383.98-636.56 1383.98-1421.79z"/><path d="m3923.75 1522.05c0-792.752-625.57-1435.4061-1397.24-1435.4061-771.67-.0001-1397.24 642.6541-1397.24 1435.4061 0 792.76 625.57 1435.41 1397.24 1435.41s1397.24-642.65 1397.24-1435.41z"/><path d="m3937 1522.03c0-800.275-631.5-1449.0294-1410.5-1449.0295-779 0-1410.5 648.7545-1410.5 1449.0295 0 800.28 631.5 1449.04 1410.5 1449.04s1410.5-648.76 1410.5-1449.04z"/><path d="m678.543 1522.01c0-115.77-91.356-209.62-204.049-209.62s-204.049 93.85-204.049 209.62c0 115.78 91.356 209.63 204.049 209.63s204.049-93.85 204.049-209.63z"/><path d="m691.817 1522.04c0-123.3-97.294-223.25-217.311-223.25s-217.311 99.95-217.311 223.25 97.294 223.25 217.311 223.25 217.311-99.95 217.311-223.25z"/><path d="m705.067 1522.02c0-130.82-103.231-236.87-230.573-236.87-127.341 0-230.572 106.05-230.572 236.87s103.231 236.87 230.572 236.87c127.342 0 230.573-106.05 230.573-236.87z"/><path d="m718.316 1522.06c0-138.33-109.154-250.46-243.802-250.46-134.649 0-243.803 112.13-243.803 250.46s109.154 250.46 243.803 250.46c134.648 0 243.802-112.13 243.802-250.46z"/><path d="m731.575 1522.02c0-145.85-115.092-264.09-257.065-264.09s-257.065 118.24-257.065 264.09 115.092 264.09 257.065 264.09 257.065-118.24 257.065-264.09z"/><path d="m744.825 1522c0-153.38-121.029-277.71-270.327-277.71-149.297 0-270.326 124.33-270.326 277.71 0 153.37 121.029 277.71 270.326 277.71 149.298 0 270.327-124.34 270.327-277.71z"/><path d="m758.099 1522.05c0-160.91-126.967-291.34-283.589-291.34-156.621 0-283.588 130.43-283.588 291.34 0 160.9 126.967 291.33 283.588 291.33 156.622 0 283.589-130.43 283.589-291.33z"/><path d="m771.349 1522.03c0-168.43-132.904-304.96-296.85-304.96s-296.851 136.53-296.851 304.96c0 168.42 132.905 304.96 296.851 304.96s296.85-136.54 296.85-304.96z"/><path d="m784.599 1522.01c0-175.95-138.842-318.59-310.112-318.59s-310.112 142.64-310.112 318.59 138.842 318.58 310.112 318.58 310.112-142.63 310.112-318.58z"/><path d="m797.889 1522.04c0-183.48-144.78-332.21-323.374-332.21-178.595 0-323.374 148.73-323.374 332.21 0 183.47 144.779 332.2 323.374 332.2 178.594 0 323.374-148.73 323.374-332.2z"/><path d="m811.139 1522.02c0-191-150.717-345.84-336.636-345.84s-336.636 154.84-336.636 345.84 150.717 345.83 336.636 345.83 336.636-154.83 336.636-345.83z"/><path d="m824.357 1522.05c0-198.5-156.64-359.42-349.866-359.42s-349.866 160.92-349.866 359.42c0 198.51 156.64 359.43 349.866 359.43s349.866-160.92 349.866-359.43z"/><path d="m837.631 1522.03c0-206.02-162.578-373.04-363.128-373.04s-363.128 167.02-363.128 373.04c0 206.03 162.578 373.05 363.128 373.05s363.128-167.02 363.128-373.05z"/><path d="m850.889 1522.02c0-213.56-168.515-386.68-376.39-386.68-207.874 0-376.3896 173.12-376.3896 386.68 0 213.55 168.5156 386.67 376.3896 386.67 207.875 0 376.39-173.12 376.39-386.67z"/><path d="m864.14 1522.04c0-221.08-174.454-400.3-389.652-400.3-215.199 0-389.652 179.22-389.652 400.3-.0001 221.08 174.453 400.29 389.652 400.29 215.198 0 389.652-179.21 389.652-400.29z"/><path d="m877.398 1522.02c0-228.6-180.391-413.92-402.914-413.92s-402.9137 185.32-402.9137 413.92 180.3907 413.92 402.9137 413.92 402.914-185.32 402.914-413.92z"/><path d="m890.679 1522.07c0-236.13-186.328-427.54-416.175-427.54-229.848 0-416.1758 191.41-416.1759 427.54 0 236.13 186.3279 427.55 416.1759 427.55 229.847 0 416.175-191.42 416.175-427.55z"/><path d="m903.93 1522.05c0-243.65-192.266-441.17-429.438-441.17s-429.4373 197.52-429.4373 441.17 192.2653 441.17 429.4373 441.17 429.438-197.52 429.438-441.17z"/><path d="m917.204 1522.01c0-251.18-198.204-454.79-442.7-454.79s-442.6993 203.61-442.6993 454.79c0 251.17 198.2033 454.79 442.6993 454.79s442.7-203.62 442.7-454.79z"/><path d="m930.429 1522.05c0-258.69-204.126-468.39-455.929-468.39s-455.9297 209.7-455.9297 468.39c0 258.68 204.1267 468.38 455.9297 468.38s455.929-209.7 455.929-468.38z"/><path d="m943.703 1522.03c0-266.21-210.064-482.01-469.191-482.01-259.128 0-469.19165 215.8-469.19167 482.01-.00001 266.2 210.06367 482.01 469.19167 482.01 259.127 0 469.191-215.81 469.191-482.01z"/><path d="m956.953 1522.01c0-273.73-216.001-495.64-482.453-495.64-266.451 0-482.45309 221.91-482.4531 495.64-.00002 273.73 216.0021 495.63 482.4531 495.63 266.452 0 482.453-221.9 482.453-495.63z"/><path d="m970.235 1522.04c0-281.26-221.939-509.26-495.715-509.26s-495.7153 228-495.7153 509.26c0 281.25 221.9393 509.25 495.7153 509.25s495.715-228 495.715-509.25z"/><path d="m983.485 1522.04c0-288.78-227.876-522.884-508.977-522.884-281.1 0-508.9767 234.104-508.9767 522.884s227.8767 522.88 508.9767 522.88c281.101 0 508.977-234.1 508.977-522.88z"/><path d="m996.736 1522.06c0-296.3-233.814-536.501-522.239-536.502-288.425 0-522.2392 240.202-522.2392 536.502 0 296.31 233.8142 536.51 522.2392 536.51s522.239-240.2 522.239-536.51z"/><path d="m1010 1522.05c0-303.83-239.75-550.133-535.499-550.133s-535.501 246.303-535.501 550.133 239.752 550.13 535.501 550.13 535.499-246.3 535.499-550.13z"/><path d="m1023.24 1522.01c0-311.33-245.68-563.72-548.735-563.72-303.056 0-548.7315 252.39-548.7315 563.72-.0001 311.34 245.6755 563.72 548.7315 563.72 303.055 0 548.735-252.38 548.735-563.72z"/><path d="m1036.49 1522.04c0-318.86-251.609-577.346-561.989-577.346s-561.9931 258.486-561.9932 577.346c0 318.86 251.6132 577.35 561.9932 577.35s561.989-258.49 561.989-577.35z"/><path d="m1049.74 1522.02c0-326.38-257.546-590.969-575.251-590.969-317.704 0-575.255 264.589-575.255 590.969s257.551 590.97 575.255 590.97c317.705 0 575.251-264.59 575.251-590.97z"/><path d="m1063.03 1522.05c0-333.91-263.492-604.597-588.521-604.597s-588.517 270.687-588.517 604.597 263.488 604.59 588.517 604.59 588.521-270.68 588.521-604.59z"/><path d="m1076.28 1522.03c0-341.43-269.429-618.22-601.782-618.22-332.354 0-601.779 276.79-601.779 618.22s269.425 618.22 601.778 618.22c332.354 0 601.783-276.79 601.783-618.22z"/><path d="m1089.53 1522.03c0-348.96-275.367-631.841-615.044-631.841-339.678 0-615.041 282.881-615.041 631.841s275.363 631.84 615.041 631.84c339.677 0 615.044-282.88 615.044-631.84z"/><path d="m1102.81 1522.06c0-356.48-281.303-645.468-628.304-645.468-347.002 0-628.303 288.988-628.303 645.468s281.301 645.47 628.303 645.47c347.001 0 628.304-288.99 628.304-645.47z"/><path d="m1116.06 1522.04c0-364.01-287.24-659.092-641.566-659.092s-641.564 295.082-641.564 659.092c0 364 287.238 659.09 641.564 659.09s641.566-295.09 641.566-659.09z"/><path d="m1129.3 1522.01c0-371.52-293.162-672.686-654.795-672.686-361.633-.001-654.794 301.166-654.794 672.686 0 371.51 293.161 672.68 654.794 672.68s654.795-301.17 654.795-672.68z"/><path d="m1142.56 1522.03c0-379.03-299.101-686.304-668.058-686.304-368.958 0-668.057 307.274-668.057 686.304 0 379.04 299.099 686.31 668.057 686.31 368.957 0 668.058-307.27 668.058-686.31z"/><path d="m1155.82 1522.01c0-386.56-305.04-699.926-681.322-699.926-376.2816 0-681.318 313.366-681.318 699.926 0 386.57 305.0363 699.94 681.318 699.94 376.282 0 681.322-313.37 681.322-699.94z"/><path d="m1169.09 1522.02c0-394.09-310.974-713.556-694.58-713.556-383.6061 0-694.58 319.466-694.58 713.556 0 394.08 310.9739 713.55 694.58 713.55 383.606 0 694.58-319.47 694.58-713.55z"/><path d="m1182.34 1522.04c0-401.61-316.911-727.176-707.842-727.176-390.9301 0-707.842 325.566-707.842 727.176s316.9119 727.18 707.842 727.18c390.93 0 707.842-325.57 707.842-727.18z"/><path d="m1195.6 1522.02c0-409.13-322.851-740.8-721.105-740.8-398.2551 0-721.104 331.67-721.104 740.8 0 409.14 322.8489 740.81 721.104 740.81 398.254 0 721.105-331.67 721.105-740.81z"/><path d="m1208.86 1522.05c0-416.66-328.782-754.426-734.361-754.426-405.5793 0-734.366 337.766-734.366 754.426s328.7866 754.43 734.366 754.43c405.579 0 734.361-337.77 734.361-754.43z"/><path d="m1222.13 1522.03c0-424.18-334.724-768.05-747.627-768.05-412.9035 0-747.628 343.87-747.628 768.05 0 424.19 334.7244 768.05 747.628 768.05 412.903 0 747.627-343.86 747.627-768.05z"/><path d="m1235.36 1522.05c0-431.69-340.644-781.648-760.854-781.648-420.2099 0-760.858 349.958-760.858 781.638 0 431.69 340.6481 781.65 760.858 781.65 420.21 0 760.854-349.96 760.854-781.64z"/><path d="m1248.63 1522.05c0-439.21-346.585-795.267-774.12-795.267-427.5341 0-774.119 356.057-774.119 795.267s346.5848 795.27 774.119 795.27c427.535 0 774.12-356.06 774.12-795.27z"/><path d="m1261.88 1522.03c0-446.74-352.522-808.89-787.381-808.89-434.859 0-787.382 362.15-787.382 808.89s352.523 808.89 787.382 808.89 787.381-362.15 787.381-808.89z"/><path d="m1275.15 1522.06c0-454.26-358.464-822.517-800.647-822.517-442.1833 0-800.644 368.257-800.644 822.517s358.4607 822.52 800.644 822.52c442.183 0 800.647-368.26 800.647-822.52z"/><path d="m1288.4 1522.04c0-461.79-364.401-836.139-813.909-836.139-449.5071 0-813.905 374.349-813.905 836.139s364.3978 836.14 813.905 836.14c449.508 0 813.909-374.35 813.909-836.14z"/><path d="m1301.65 1522.02c0-469.32-370.338-849.768-827.17-849.768-456.8319 0-827.167 380.448-827.167 849.768 0 469.31 370.335 849.76 827.167 849.76s827.17-380.45 827.17-849.76z"/><path d="m1314.92 1522.05c0-476.84-376.272-863.393-840.428-863.393-464.1564 0-840.429 386.553-840.429 863.393 0 476.83 376.2725 863.38 840.429 863.38 464.156 0 840.428-386.55 840.428-863.38z"/><path d="m1328.19 1522.02c0-484.36-382.213-877.008-853.694-877.008-471.4807 0-853.691 392.648-853.691 877.008 0 484.37 382.21023 877.02 853.691 877.02 471.481 0 853.694-392.65 853.694-877.02z"/><path d="m1341.41 1522.04c0-491.87-388.131-890.606-866.918-890.606-478.7877 0-866.922 398.736-866.922 890.606s388.13422 890.6 866.922 890.6c478.787 0 866.918-398.73 866.918-890.6z"/><path d="m1354.69 1522.04c0-499.39-394.075-904.225-880.187-904.225-486.1112 0-880.183 404.835-880.183 904.225 0 499.4 394.0717 904.23 880.183 904.23 486.112 0 880.187-404.83 880.187-904.23z"/><path d="m1367.95 1522.02c0-506.91-400.007-917.848-893.443-917.848-493.4355 0-893.444 410.938-893.444 917.848 0 506.92 400.0084 917.86 893.444 917.86 493.436 0 893.443-410.94 893.443-917.86z"/><path d="m1381.2 1522.05c0-514.44-405.944-931.475-906.704-931.475-500.7603 0-906.707 417.035-906.707 931.475s405.9466 931.48 906.707 931.48c500.76 0 906.704-417.04 906.704-931.48z"/><path d="m1394.48 1522.03c0-521.96-411.888-945.097-919.972-945.097-508.0848 0-919.969 423.137-919.969 945.097 0 521.97 411.8841 945.1 919.969 945.1 508.084 0 919.972-423.13 919.972-945.1z"/><path d="m1407.73 1522.01c0-529.489-417.824-958.725-933.233-958.725-515.4096 0-933.231 429.236-933.231 958.725 0 529.49 417.8213 958.73 933.23 958.73 515.41 0 933.234-429.24 933.234-958.73z"/><path d="m1420.98 1522.06c0-537.013-423.762-972.349-946.495-972.349-522.7335 0-946.493 435.336-946.493 972.349 0 537.01 423.7594 972.35 946.493 972.35 522.733 0 946.495-435.34 946.495-972.35z"/><path d="m1434.22 1522.03c0-544.521-429.68-985.942-959.724-985.942-530.0398 0-959.722 441.421-959.723 985.942 0 544.52 429.6831 985.94 959.723 985.94 530.044 0 959.724-441.42 959.724-985.94z"/><path d="m1447.48 1522.06c0-552.049-435.62-999.569-972.988-999.569-537.3641 0-972.984 447.52-972.984 999.569 0 552.04 435.6198 999.56 972.984 999.56 537.368 0 972.988-447.52 972.988-999.56z"/><path d="m1460.75 1522.04c0-559.572-441.56-1013.192-986.246-1013.192-544.6886 0-986.246 453.62-986.246 1013.192 0 559.57 441.5573 1013.19 986.246 1013.19 544.686 0 986.246-453.62 986.246-1013.19z"/><path d="m1474 1522.02c0-567.095-447.49-1026.815-999.507-1026.815-552.0134 0-999.509 459.72-999.509 1026.815 0 567.09 447.4956 1026.81 999.509 1026.81 552.017 0 999.507-459.72 999.507-1026.81z"/><path d="m1487.27 1522.05c0-574.622-453.43-1040.442-1012.765-1040.442-559.3378 0-1012.771 465.82-1012.771 1040.442 0 574.61 453.4331 1040.43 1012.771 1040.43 559.335 0 1012.765-465.82 1012.765-1040.43z"/><path d="m1500.53 1522.05c0-582.146-459.37-1054.066-1026.037-1054.066-566.6617 0-1026.032 471.92-1026.032 1054.066 0 582.14 459.3702 1054.06 1026.032 1054.06 566.667 0 1026.037-471.92 1026.037-1054.06z"/><path d="m1513.79 1522.03c0-589.67-465.31-1067.689-1039.293-1067.689-573.986 0-1039.294 478.019-1039.294 1067.689 0 589.66 465.3079 1067.68 1039.294 1067.68 573.983 0 1039.293-478.02 1039.293-1067.68z"/><path d="m1527.06 1522.05c0-597.187-471.25-1081.306-1052.559-1081.306-581.31 0-1052.556 484.119-1052.556 1081.306 0 597.2 471.246 1081.31 1052.556 1081.31 581.309 0 1052.559-484.11 1052.559-1081.31z"/><path d="m1540.29 1522.02c0-604.697-477.17-1094.901-1065.785-1094.901-588.617 0-1065.786 490.204-1065.786 1094.901 0 604.7 477.168 1094.9 1065.786 1094.9 588.615 0 1065.785-490.2 1065.785-1094.9z"/><path d="m1553.54 1522.05c0-612.222-483.11-1108.526-1079.047-1108.526-595.941 0-1079.048 496.304-1079.048 1108.526 0 612.22 483.107 1108.53 1079.048 1108.53 595.937 0 1079.047-496.31 1079.047-1108.53z"/><path d="m1566.8 1522.03c0-619.746-489.04-1122.149-1092.31-1122.149-603.266 0-1092.31 502.403-1092.31 1122.149 0 619.75 489.043 1122.15 1092.31 1122.15 603.27 0 1092.31-502.4 1092.31-1122.15z"/><path d="m1580.08 1522.01c0-627.272-494.98-1135.775-1105.571-1135.775-610.59 0-1105.571 508.503-1105.571 1135.775 0 627.27 494.981 1135.77 1105.571 1135.77 610.591 0 1105.571-508.5 1105.571-1135.77z"/><path d="m1593.33 1522.04c0-634.795-500.92-1149.399-1118.832-1149.399-617.915 0-1118.834 514.604-1118.834 1149.399 0 634.8 500.919 1149.4 1118.834 1149.4 617.912 0 1118.832-514.6 1118.832-1149.4z"/><path d="m1606.59 1522.04c0-642.317-506.86-1163.02-1132.096-1163.02-625.239 0-1132.095 520.703-1132.096 1163.02 0 642.32 506.857 1163.03 1132.096 1163.03 625.236 0 1132.096-520.71 1132.096-1163.03z"/><path d="m1619.86 1522.02c0-649.843-512.8-1176.646-1145.362-1176.646-632.563 0-1145.357 526.803-1145.357 1176.646 0 649.85 512.794 1176.65 1145.357 1176.65 632.562 0 1145.362-526.8 1145.362-1176.65z"/><path d="m1633.11 1522.05c0-657.37-518.74-1190.273-1158.623-1190.273-639.888 0-1158.62 532.903-1158.62 1190.273s518.732 1190.27 1158.62 1190.27c639.883 0 1158.623-532.9 1158.623-1190.27z"/><path d="m1646.36 1522.01c0-664.872-524.66-1203.86-1171.854-1203.86-647.195 0-1171.85 538.988-1171.85 1203.86 0 664.88 524.655 1203.87 1171.85 1203.87 647.194 0 1171.854-538.99 1171.854-1203.87z"/><path d="m1659.61 1522.07c0-672.403-530.59-1217.491-1185.108-1217.491-654.519 0-1185.111 545.088-1185.111 1217.491 0 672.4 530.592 1217.48 1185.111 1217.48 654.518 0 1185.108-545.08 1185.108-1217.48z"/><path d="m1672.86 1522.05c0-679.928-536.53-1231.115-1198.37-1231.115-661.843 0-1198.373 551.187-1198.373 1231.115 0 679.92 536.53 1231.11 1198.373 1231.11 661.84 0 1198.37-551.19 1198.37-1231.11z"/><path d="m1686.14 1522.03c0-687.451-542.47-1244.738-1211.637-1244.738-669.168 0-1211.636 557.287-1211.636 1244.738 0 687.45 542.468 1244.73 1211.635 1244.73 669.168 0 1211.638-557.28 1211.638-1244.73z"/><path d="m1699.4 1522.05c0-694.968-548.4-1258.355-1224.894-1258.355-676.491 0-1224.897 563.387-1224.897 1258.355 0 694.98 548.405 1258.36 1224.897 1258.36 676.494 0 1224.894-563.38 1224.894-1258.36z"/><path d="m1712.65 1522.04c0-702.501-554.34-1271.988-1238.155-1271.988-683.816 0-1238.159 569.487-1238.159 1271.988 0 702.49 554.343 1271.98 1238.159 1271.98 683.815 0 1238.155-569.49 1238.155-1271.98z"/><path d="m1725.93 1522.01c0-710.018-560.28-1285.604-1251.423-1285.604-691.141 0-1251.421 575.586-1251.421 1285.604 0 710.02 560.28 1285.61 1251.421 1285.61 691.143 0 1251.423-575.59 1251.423-1285.61z"/><path d="m1739.15 1522.03c0-717.531-566.21-1299.203-1264.655-1299.203-698.448 0-1264.651 581.671-1264.651 1299.203 0 717.52 566.203 1299.2 1264.651 1299.2 698.445 0 1264.655-581.68 1264.655-1299.2z"/><path d="m1752.43 1522.03c0-725.051-572.14-1312.822-1277.915-1312.822-705.772 0-1277.913 587.771-1277.913 1312.822 0 725.05 572.141 1312.83 1277.913 1312.83 705.775 0 1277.915-587.78 1277.915-1312.83z"/><path d="m1765.68 1522.06c0-732.578-578.08-1326.449-1291.177-1326.449-713.096 0-1291.175 593.871-1291.175 1326.449 0 732.58 578.079 1326.45 1291.175 1326.45 713.097 0 1291.177-593.87 1291.177-1326.45z"/><path d="m1778.94 1522.04c0-740.102-584.02-1340.073-1304.441-1340.073-720.42 0-1304.436 599.971-1304.436 1340.073 0 740.1 584.016 1340.07 1304.436 1340.07 720.421 0 1304.441-599.97 1304.441-1340.07z"/><path d="m1792.21 1522.02c0-747.624-589.95-1353.694-1317.699-1353.695-727.745 0-1317.698 606.071-1317.698 1353.695 0 747.63 589.953 1353.7 1317.698 1353.7 727.749 0 1317.699-606.07 1317.699-1353.7z"/><path d="m1805.46 1522.05c0-755.152-595.89-1367.323-1330.96-1367.323s-1330.961 612.17-1330.961 1367.323c0 755.15 595.891 1367.32 1330.961 1367.32s1330.96-612.17 1330.96-1367.32z"/><path d="m1818.72 1522.03c0-762.674-601.83-1380.944-1344.224-1380.944s-1344.222 618.269-1344.223 1380.944c0 762.67 601.829 1380.94 1344.223 1380.94s1344.224-618.27 1344.224-1380.94z"/><path d="m1831.97 1522.01c0-770.196-607.77-1394.566-1357.486-1394.566-749.718 0-1357.484 624.369-1357.484 1394.566 0 770.2 607.766 1394.57 1357.484 1394.57 749.716 0 1357.486-624.37 1357.486-1394.57z"/><path d="m1845.22 1522.02c0-777.705-613.69-1408.16-1370.716-1408.16-757.025 0-1370.715 630.455-1370.715 1408.16 0 777.71 613.69 1408.16 1370.714 1408.16 757.027 0 1370.717-630.45 1370.717-1408.16z"/><path d="m1858.47 1522.02c0-785.226-619.63-1421.78-1383.978-1421.78-764.349 0-1383.976 636.554-1383.976 1421.78 0 785.23 619.627 1421.79 1383.976 1421.79 764.348 0 1383.978-636.56 1383.978-1421.79z"/><path d="m1871.75 1522.05c0-792.752-625.57-1435.4061-1397.238-1435.4061-771.674-.0001-1397.238 642.6541-1397.238 1435.4061-.001 792.76 625.564 1435.41 1397.237 1435.41 771.669 0 1397.239-642.65 1397.239-1435.41z"/><path d="m1885 1522.03c0-800.275-631.5-1449.0294-1410.5-1449.0295-778.997 0-1410.5 648.7545-1410.5 1449.0295 0 800.28 631.502 1449.04 1410.5 1449.04 779 0 1410.5-648.76 1410.5-1449.04z"/></g></g></svg>