<svg fill="none" height="1920" viewBox="0 0 3000 1920" width="3000" xmlns="http://www.w3.org/2000/svg" xmlns:xlink="http://www.w3.org/1999/xlink"><clipPath id="a"><path d="m0 0h3000v1920h-3000z"/></clipPath><g clip-path="url(#a)"><path d="m0 0h3000v1920h-3000z" fill="#000"/><g stroke="#e97724" stroke-miterlimit="10" stroke-width="4"><path d="m1763.22-.053749c0-149.163251-117.71-270.084251-262.9-270.084251-145.2 0-262.91 120.921-262.91 270.084228 0 149.163772 117.71 270.083772 262.91 270.083772 145.19 0 262.9-120.92 262.9-270.083749z"/><path d="m1780.32-.0177673c0-158.8582327-125.35-287.6382327-279.99-287.6382327-154.63 0-279.99 128.78-279.99 287.6382083 0 158.8577917 125.36 287.6377917 279.99 287.6377917 154.64 0 279.99-128.78 279.99-287.6377673z"/><path d="m1797.38-.0391891c0-168.5528109-133.01-305.1918109-297.08-305.1918109s-297.07 136.639-297.07 305.1917849c0 168.5522151 133 305.1912151 297.07 305.1912151s297.08-136.639 297.08-305.1911891z"/><path d="m1814.46.00674133c0-178.22374133-140.63-322.70274133-314.12-322.70274133-173.48 0-314.12 144.479-314.12 322.70271387 0 178.22428613 140.64 322.70328613 314.12 322.70328613 173.49 0 314.12-144.479 314.12-322.70325867z"/><path d="m1831.56-.0480973c0-187.9189027-148.29-340.2569027-331.21-340.2569027s-331.21 152.338-331.21 340.2568738c0 187.9191262 148.29 340.2571262 331.21 340.2571262s331.21-152.338 331.21-340.2570973z"/><path d="m1848.62-.0744935c0-197.6135065-155.93-357.8105065-348.29-357.8105065s-348.3 160.197-348.3 357.8104761c0 197.6135239 155.94 357.8105239 348.3 357.8105239s348.29-160.197 348.29-357.8104935z"/><path d="m1865.71-.0130906c0-207.3079094-163.59-375.3649094-365.38-375.3649094-201.8 0-365.38 168.057-365.38 375.3648774 0 207.3081226 163.58 375.3651226 365.38 375.3651226 201.79 0 365.38-168.057 365.38-375.3650906z"/><path d="m1882.8-.0374421c0-217.0025579-171.24-392.9185579-382.47-392.9185579s-382.47 175.916-382.47 392.9185244c0 217.0024756 171.24 392.9184756 382.47 392.9184756s382.47-175.916 382.47-392.9184421z"/><path d="m1899.86-.0590471c0-226.6979529-178.89-410.4719529-399.56-410.4719529s-399.56 183.774-399.56 410.471918c0 226.697082 178.89 410.472082 399.56 410.472082s399.56-183.775 399.56-410.4720471z"/><path d="m1917-.0260866c0-236.3919134-186.54-428.0259134-416.65-428.0259134-230.1 0-416.64 191.634-416.64 428.025877 0 236.392123 186.54 428.026123 416.64 428.026123 230.11 0 416.65-191.634 416.65-428.0260866z"/><path d="m1934.06-.0494616c0-246.0865384-194.18-445.5795384-433.73-445.5795384-239.54 0-433.73 199.493-433.73 445.5795005 0 246.0864995 194.19 445.5794995 433.73 445.5794995 239.55 0 433.73-199.493 433.73-445.5794616z"/><path d="m1951.08-.00154751c0-255.75845249-201.81-463.09145249-450.77-463.09145249s-450.78 207.333-450.78 463.09141309c0 255.75858691 201.82 463.09158691 450.78 463.09158691s450.77-207.333 450.77-463.09154751z"/><path d="m1968.19-.0251056c0-265.4528944-209.47-480.6448944-467.87-480.6448944-258.39 0-467.86 215.192-467.86 480.6448535 0 265.4531465 209.47 480.6451465 467.86 480.6451465 258.4 0 467.87-215.192 467.87-480.6451056z"/><path d="m1985.28-.0524173c0-275.1475827-217.12-498.1985827-484.95-498.1985827-267.84 0-484.95 223.051-484.95 498.1985403 0 275.1474597 217.11 498.1984597 484.95 498.1994597 267.83 0 484.95-223.052 484.95-498.1994173z"/><path d="m2002.34-.0212574c0-284.8427426-224.77-515.7527426-502.04-515.7527426-277.26 0-502.034 230.91-502.034 515.7526987 0 284.8423013 224.774 515.7523013 502.034 515.7523013 277.27 0 502.04-230.91 502.04-515.7522574z"/><path d="m2019.44-.0446324c0-294.5373676-232.42-533.3063676-519.13-533.3063676-286.7 0-519.122 238.769-519.122 533.3063223 0 294.5366777 232.422 533.3066777 519.122 533.3066777 286.71 0 519.13-238.77 519.13-533.3066324z"/><path d="m2036.54.0204937c0-304.2314937-240.07-550.8604937-536.21-550.8604937s-536.213 246.629-536.213 550.8604468c0 304.2315532 240.073 550.8605532 536.213 550.8605532s536.21-246.629 536.21-550.8605063z"/><path d="m2053.61-.00385788c0-313.92614212-247.72-568.41414212-553.3-568.41414212-305.57 0-553.294 254.488-553.294 568.41409375 0 313.92690625 247.724 568.41390625 553.294 568.41390625 305.58 0 553.3-254.487 553.3-568.41385788z"/><path d="m2070.72-.0577504c0-323.6212496-255.37-585.9682496-570.39-585.9682496-315.01 0-570.385 262.347-570.385 585.9681997 0 323.6208003 255.375 585.9678003 570.385 585.9678003 315.02 0 570.39-262.347 570.39-585.9677504z"/><path d="m2087.76-.00989738c0-333.29310262-263-603.47910262-587.43-603.47910262s-587.432 270.186-587.432 603.47905127c0 333.29294873 263.002 603.47994873 587.432 603.47994873s587.43-270.187 587.43-603.47989738z"/><path d="m2104.85-.0359579c0-342.9870421-270.65-621.0330421-604.52-621.0330421s-604.517 278.046-604.517 621.0329893c0 342.9870107 270.647 621.0330107 604.517 621.0330107s604.52-278.046 604.52-621.0329579z"/><path d="m2121.93-.059638c0-352.681362-278.3-638.587362-621.61-638.587362-343.3 0-621.601 285.905-621.601 638.5873076 0 352.6816924 278.301 638.5866924 621.601 638.5866924 343.31 0 621.61-285.905 621.61-638.586638z"/><path d="m2139.03-.0235648c0-362.3764352-285.95-656.1404352-638.69-656.1404352s-638.692 293.764-638.692 656.1403794c0 362.3766206 285.952 656.1406206 638.692 656.1406206s638.69-293.764 638.69-656.1405648z"/><path d="m2156.12-.0226477c0-372.0713523-293.6-673.6943523-655.78-673.6943523-362.17 0-655.777 301.623-655.777 673.6942949 0 372.0717051 293.607 673.6947051 655.777 673.6947051 362.18 0 655.78-301.623 655.78-673.6946477z"/><path d="m2173.19.0121438c0-381.7661438-301.26-691.2481438-672.87-691.2481438s-672.867 309.482-672.867 691.248085c0 381.765915 301.257 691.248915 672.867 691.248915s672.87-309.483 672.87-691.2488562z"/><path d="m2190.27-.010926c0-391.460074-308.9-708.802074-689.95-708.802074s-689.953 317.341-689.953 708.8020137c0 391.4609863 308.903 708.8019863 689.953 708.8019863s689.95-317.341 689.95-708.801926z"/><path d="m2207.34-.0532219c0-401.1317781-316.54-726.3137781-707-726.3137781-390.47 0-707.004 325.182-707.004 726.3137163 0 401.1322837 316.534 726.3142837 707.004 726.3142837 390.46 0 707-325.182 707-726.3142219z"/><path d="m2224.42-.0170876c0-410.8269124-324.18-743.8679124-724.08-743.8679124-399.91 0-724.09 333.041-724.09 743.8678491 0 410.8271509 324.18 743.8681509 724.09 743.8681509 399.9 0 724.08-333.041 724.08-743.8680876z"/><path d="m2241.49-.046505c0-420.521495-331.84-761.421495-741.18-761.421495-409.33 0-741.169 340.9-741.169 761.4214302 0 420.5215698 331.839 761.4215698 741.169 761.4215698 409.34 0 741.18-340.9 741.18-761.421505z"/><path d="m2258.6-.00744103c0-430.21655897-339.49-778.97555897-758.26-778.97555897-418.78 0-758.262 348.759-758.262 778.97549268 0 430.21650732 339.482 778.97550732 758.262 778.97550732 418.77 0 758.26-348.759 758.26-778.97544103z"/><path d="m2275.66-.0320977c0-439.9109023-347.14-796.5289023-775.35-796.5289023s-775.349 356.618-775.349 796.5288345c0 439.9111655 347.139 796.5291655 775.349 796.5291655s775.35-356.618 775.35-796.5290977z"/><path d="m2292.74-.0311807c0-449.6058193-354.79-814.0828193-792.44-814.0828193s-792.433 364.477-792.433 814.08275c0 449.60525 354.783 814.08325 792.433 814.08325s792.44-364.478 792.44-814.0831807z"/><path d="m2309.86.00501462c0-459.30001462-362.44-831.63701462-809.53-831.63701462-447.08 0-809.517 372.337-809.517 831.63694385 0 459.30005615 362.437 831.63705615 809.517 831.63705615 447.09 0 809.53-372.337 809.53-831.63698538z"/><path d="m2326.92-.0196421c0-468.9953579-370.08-849.1903579-826.61-849.1903579-456.52 0-826.607 380.195-826.607 849.1902856 0 468.9947144 370.087 849.1907144 826.607 849.1907144 456.53 0 826.61-380.196 826.61-849.1906421z"/><path d="m2343.99-.0632807c0-478.6667193-377.72-866.7017193-843.66-866.7017193-465.93 0-843.65 388.035-843.65 866.7016455 0 478.6663545 377.72 866.7023545 843.65 866.7023545 465.94 0 843.66-388.036 843.66-866.7022807z"/><path d="m2361.07-.0273906c0-488.3606094-385.37-884.2556094-860.74-884.2556094-475.38 0-860.744 395.894-860.744 884.2555342 0 488.3614658 385.364 884.2564658 860.744 884.2564658 475.37 0 860.74-395.895 860.74-884.2563906z"/><path d="m2378.15-.0518031c0-498.0551969-393.02-901.8091969-877.83-901.8091969s-877.828 403.753-877.828 901.8091201c0 498.0558799 393.018 901.8098799 877.828 901.8098799s877.83-403.754 877.83-901.8098031z"/><path d="m2395.25-.0477123c0-507.7502877-400.66-919.3632877-894.91-919.3632877s-894.918 411.613-894.918 919.3632095c0 507.7497905 400.668 919.3627905 894.918 919.3627905s894.91-411.612 894.91-919.3627123z"/><path d="m2412.32-.0145687c0-517.4454313-408.32-936.9174313-912-936.9174313-503.69 0-912.007 419.472-912.007 936.9173516 0 517.4446484 408.317 936.9166484 911.997 936.9166484 503.69 0 912.01-419.472 912.01-936.9165687z"/><path d="m2429.4-.0412396c0-527.1397604-415.97-954.4707604-929.09-954.4707604-513.124 0-929.091 427.331-929.091 954.4706792 0 527.1393208 415.967 954.4713208 929.091 954.4713208 513.12 0 929.09-427.331 929.09-954.4712396z"/><path d="m2446.49-.00327422c0-536.83472578-423.61-972.02472578-946.17-972.02472578-522.562 0-946.179 435.19-946.179 972.02464307 0 536.83435693 423.617 972.02535693 946.179 972.02535693 522.56 0 946.17-435.191 946.17-972.02527422z"/><path d="m2463.61-.029823c0-546.529177-431.27-989.579177-963.27-989.579177-531.994 0-963.262 443.05-963.262 989.5790928 0 546.5289072 431.268 989.5789072 963.262 989.5789072 532 0 963.27-443.05 963.27-989.578823z"/><path d="m2480.66-.0110227c0-556.2009773-438.9-1007.0889773-980.31-1007.0889773-541.411 0-980.311 450.888-980.311 1007.0888916 0 556.2001084 438.9 1007.0911084 980.311 1007.0911084 541.41 0 980.31-450.89 980.31-1007.0910227z"/><path d="m2497.73-.00516183c0-565.89483817-446.55-1024.64483817-997.4-1024.64483817-550.843 0-997.392 458.75-997.392 1024.64475098 0 565.89524902 446.549 1024.64524902 997.392 1024.64524902 550.85 0 997.4-458.75 997.4-1024.64516183z"/><path d="m2514.79-.0315275c0-575.5894725-454.19-1042.1984725-1014.48-1042.1984725-560.282 0-1014.482 466.609-1014.482 1042.1983838 0 575.5896162 454.2 1042.2016162 1014.482 1042.2016162 560.29 0 1014.48-466.612 1014.48-1042.2015275z"/><path d="m2531.9.00350815c0-585.28450815-461.85-1059.75350815-1031.57-1059.75350815-569.722 0-1031.572 474.469-1031.572 1059.75341797 0 585.28458203 461.85 1059.74658203 1031.572 1059.74658203 569.72 0 1031.57-474.462 1031.57-1059.74649185z"/><path d="m2548.98-.0171202c0-594.9788798-469.5-1077.3028798-1048.66-1077.3028798-579.156 0-1048.656 482.324-1048.656 1077.3027881 0 594.9792119 469.5 1077.3072119 1048.656 1077.3072119 579.16 0 1048.66-482.328 1048.66-1077.3071202z"/><path d="m2566.06-.0465377c0-604.6734623-477.15-1094.8634623-1065.75-1094.8634623-588.589 0-1065.74 490.19-1065.74 1094.8633691 0 604.6736309 477.15 1094.8566309 1065.74 1094.8566309 588.6 0 1065.75-490.183 1065.75-1094.8565377z"/><path d="m2583.14-.0104034c0-614.3685966-484.8-1112.4095966-1082.83-1112.4095966-598.033 0-1082.833 498.041-1082.833 1112.409502 0 614.368498 484.8 1112.410498 1082.833 1112.410498 598.03 0 1082.83-498.042 1082.83-1112.4104034z"/><path d="m2600.24-.0398208c0-624.0631792-492.45-1129.9701792-1099.92-1129.9701792-607.463 0-1099.914 505.907-1099.914 1129.970083 0 624.062917 492.451 1129.969917 1099.914 1129.969917 607.47 0 1099.92-505.906 1099.92-1129.9698208z"/><path d="m2617.27-.0213867c0-633.7346133-500.08-1147.4786133-1116.96-1147.4786133-616.884 0-1116.966 513.744-1116.966 1147.4785156 0 633.7344844 500.082 1147.4814844 1116.966 1147.4814844 616.88 0 1116.96-513.747 1116.96-1147.4813867z"/><path d="m2634.4-.0135727c0-643.4294273-507.73-1165.0364273-1134.05-1165.0364273-626.321 0-1134.053 521.607-1134.053 1165.0363281 0 643.4296719 507.732 1165.0336719 1134.053 1165.0336719 626.32 0 1134.05-521.604 1134.05-1165.0335727z"/><path d="m2651.47-.0399384c0-653.1240616-515.38-1182.5900616-1151.14-1182.5900616-635.752 0-1151.135 529.466-1151.135 1182.5899609 0 653.1240391 515.383 1182.5900391 1151.135 1182.5900391 635.76 0 1151.14-529.466 1151.14-1182.5899384z"/><path d="m2668.53-.00392619c0-662.81907381-523.03-1200.13607381-1168.23-1200.13607381-645.189 0-1168.222 537.317-1168.222 1200.13597168 0 662.81902832 523.033 1200.14402832 1168.222 1200.14402832 645.2 0 1168.23-537.325 1168.23-1200.14392619z"/><path d="m2685.66-.025287c0-672.513713-530.69-1217.694713-1185.32-1217.694713-654.626 0-1185.309 545.181-1185.309 1217.6946094 0 672.5133906 530.683 1217.6953906 1185.309 1217.6953906 654.63 0 1185.32-545.182 1185.32-1217.695287z"/><path d="m2702.72-.0569017c0-682.2080983-538.33-1235.2430983-1202.4-1235.2430983-664.065 0-1202.398 553.035-1202.398 1235.2429932 0 682.2080068 538.332 1235.2470068 1202.398 1235.2470068 664.07 0 1202.4-553.039 1202.4-1235.2469017z"/><path d="m2719.8.00657634c0-691.90257634-545.98-1252.79657634-1219.49-1252.79657634-673.499 0-1219.482 560.894-1219.482 1252.79646973 0 691.90253027 545.983 1252.80353027 1219.482 1252.80353027 673.51 0 1219.49-560.9 1219.49-1252.80342366z"/><path d="m2736.85-.0323626c0-701.5746374-553.61-1270.3176374-1236.53-1270.3176374-682.916 0-1236.531 568.743-1236.531 1270.3175293 0 701.5744707 553.615 1270.3124707 1236.531 1270.3124707 682.92 0 1236.53-568.738 1236.53-1270.3123626z"/><path d="m2753.93.00291721c0-711.26891721-561.26-1287.86291721-1253.62-1287.86291721-692.35 0-1253.615 576.594-1253.615 1287.86280762 0 711.26919238 561.265 1287.86719238 1253.615 1287.86719238 692.36 0 1253.62-576.598 1253.62-1287.86708279z"/><path d="m2771.05-.0205188c0-720.9634812-568.91-1305.4194812-1270.7-1305.4194812-701.795 0-1270.709 584.456-1270.709 1305.4193701 0 720.9636299 568.914 1305.4206299 1270.709 1305.4206299 701.79 0 1270.7-584.457 1270.7-1305.4205188z"/><path d="m2788.12-.0500583c0-730.6579417-576.57-1322.9699417-1287.8-1322.9699417-711.224 0-1287.789 592.312-1287.789 1322.9698291 0 730.6581709 576.565 1322.9701709 1287.789 1322.9701709 711.23 0 1287.8-592.312 1287.8-1322.9700583z"/><path d="m2805.21-.00916327c0-740.35283673-584.21-1340.53083673-1304.88-1340.53083673-720.662 0-1304.877 600.178-1304.877 1340.53072266 0 740.35327734 584.215 1340.52927734 1304.877 1340.52927734 720.67 0 1304.88-600.176 1304.88-1340.52916327z"/><path d="m2822.27-.0114811c0-750.0475189-591.86-1358.0785189-1321.97-1358.0785189-730.099 0-1321.964 608.03-1321.964 1358.0784033 0 750.0475967 591.865 1358.0815967 1321.964 1358.0815967 730.11 0 1321.97-608.034 1321.97-1358.0814811z"/><path d="m2839.37-.0374806c0-759.7425194-599.51-1375.6325194-1339.05-1375.6325194-739.539 0-1339.054 615.89-1339.054 1375.6324023 0 759.7425977 599.515 1375.6375977 1339.054 1375.6375977 739.54 0 1339.05-615.895 1339.05-1375.6374806z"/><path d="m2856.46-.00159043c0-769.43740957-607.16-1393.18840957-1356.14-1393.18840957-748.975 0-1356.14 623.751-1356.14 1393.18829102 0 769.43670898 607.165 1393.19170898 1356.14 1393.19170898 748.98 0 1356.14-623.755 1356.14-1393.19159043z"/><path d="m2873.53-.043337c0-779.108663-614.8-1410.696663-1373.19-1410.696663-758.387 0-1373.184 631.588-1373.184 1410.696543 0 779.108457 614.797 1410.703457 1373.184 1410.703457 758.39 0 1373.19-631.595 1373.19-1410.703337z"/><path d="m2890.59-.00964408c0-788.80335592-622.45-1428.25035592-1390.28-1428.25035592-767.824 0-1390.271 639.447-1390.271 1428.25023438 0 788.80376562 622.447 1428.25976562 1390.271 1428.25976562 767.83 0 1390.28-639.456 1390.28-1428.25964408z"/><path d="m2907.68-.0307608c0-798.4972392-630.1-1445.8092392-1407.37-1445.8092392-777.26 0-1407.3568 647.311-1407.3568 1445.8091162 0 798.4978838 630.0968 1445.8108838 1407.3568 1445.8108838 777.27 0 1407.37-647.313 1407.37-1445.8107608z"/><path d="m2924.79-.0576147c0-808.1923853-637.75-1463.3623853-1424.45-1463.3623853-786.702 0-1424.4493 655.17-1424.4493 1463.3622607 0 808.1927393 637.7473 1463.3577393 1424.4493 1463.3577393 786.7 0 1424.45-655.165 1424.45-1463.3576147z"/><path d="m2941.86-.0194052c0-817.8875948-645.4-1480.9205948-1441.54-1480.9205948-796.133 0-1441.5308 663.033-1441.5309 1480.9204688 0 817.8875312 645.3969 1480.9195312 1441.5309 1480.9195312 796.14 0 1441.54-663.032 1441.54-1480.9194052z"/><path d="m2958.94-.0161078c0-827.5818922-653.05-1498.4738922-1458.62-1498.4738922-805.577 0-1458.6246 670.892-1458.6246 1498.4737646-.0001 827.5812354 653.0476 1498.4662354 1458.6246 1498.4662354 805.57 0 1458.62-670.884 1458.62-1498.4661078z"/><path d="m2976.03-.0449149c0-837.2770851-660.7-1516.0250851-1475.71-1516.0250851-815.013 0-1475.7105 678.748-1475.7106 1516.0249561 0 837.2770439 660.6976 1516.0250439 1475.7106 1516.0250439 815.01 0 1475.71-678.748 1475.71-1516.0249149z"/><path d="m2993.12-.00646129c0-846.97153871-668.35-1533.57353871-1492.8-1533.57353871-824.449 0-1492.79646 686.602-1492.7965 1533.5734082-.00003 846.9705918 668.3475 1533.5765918 1492.7965 1533.5765918 824.45 0 1492.8-686.605 1492.8-1533.57646129z"/><path d="m3010.17-.0535789c0-856.6424211-675.98-1551.0864211-1509.84-1551.0864211-833.866 0-1509.84552 694.444-1509.84556 1551.0862891-.00003 856.6427109 675.97956 1551.0937109 1509.84556 1551.0937109 833.86 0 1509.84-694.451 1509.84-1551.0935789z"/><path d="m3027.27.0146599c0-866.3376599-683.63-1568.6446599-1526.93-1568.6446599-843.296 0-1526.9258 702.307-1526.9259 1568.6445264 0 866.3374736 683.6289 1568.6454736 1526.9259 1568.6454736 843.3 0 1526.93-702.308 1526.93-1568.6453401z"/><path d="m3044.33-.0118279c0-876.0321721-691.28-1586.1981721-1544.02-1586.1981721-852.734 0-1544.013 710.166-1544.0131 1586.1980371 0 876.0319629 691.2791 1586.1919629 1544.0131 1586.1919629 852.74 0 1544.02-710.16 1544.02-1586.1918279z"/><path d="m3061.43-.0350198c0-885.7269802-698.93-1603.7449802-1561.1-1603.7449802-862.174 0-1561.1033 718.018-1561.1034 1603.7448438 0 885.7261562 698.9294 1603.7451562 1561.1034 1603.7451562 862.17 0 1561.1-718.018 1561.1-1603.7450198z"/><path d="m3078.54.00270145c0-895.42170145-706.58-1621.30270145-1578.19-1621.30270145-871.614 0-1578.1936 725.881-1578.1937 1621.30256348 0 895.42143652 706.5797 1621.30743652 1578.1937 1621.30743652 871.61 0 1578.19-725.886 1578.19-1621.30729855z"/><path d="m3095.59-.0265939c0-905.1164061-714.23-1638.8534061-1595.27-1638.8534061-881.051 0-1595.2808 733.737-1595.2809 1638.8532666 0 905.1157334 714.2299 1638.8567334 1595.2809 1638.8567334 881.04 0 1595.27-733.74 1595.27-1638.8565939z"/><path d="m3112.7-.0530817c0-914.8109183-721.88-1656.4069183-1612.37-1656.4069183-890.481 0-1612.361 741.596-1612.361 1656.4067773 0 914.8112227 721.88 1656.4132227 1612.361 1656.4132227 890.49 0 1612.37-741.602 1612.37-1656.4130817z"/><path d="m3129.73-.0391642c0-924.4818358-729.51-1673.9208358-1629.41-1673.9208358-899.894 0-1629.406 749.439-1629.406 1673.9206934 0 924.4823066 729.512 1673.9193066 1629.406 1673.9193066 899.9 0 1629.41-749.437 1629.41-1673.9191642z"/><path d="m3146.84-.0291529c0-934.1768471-737.16-1691.4808471-1646.5-1691.4808471-909.334 0-1646.496 757.303-1646.496 1691.4807031 0 934.1772969 737.162 1691.4792969 1646.496 1691.4792969 909.34 0 1646.5-757.302 1646.5-1691.4791529z"/><path d="m3163.92.00746965c0-943.87146965-744.81-1709.02746965-1663.59-1709.02746965-918.768 0-1663.58 765.156-1663.58 1709.02732422 0 943.87167578 744.812 1709.03267578 1663.58 1709.03267578 918.78 0 1663.59-765.161 1663.59-1709.03253035z"/><path d="m3181-.0218257c0-953.5661743-752.46-1726.5881743-1680.67-1726.5881743-928.212 0-1680.674 773.022-1680.674 1726.5880273 0 953.5659727 752.462 1726.5819727 1680.674 1726.5819727 928.21 0 1680.67-773.016 1680.67-1726.5818257z"/><path d="m3198.09-.0434307c0-963.2615693-760.12-1744.1365693-1697.76-1744.1365693-937.647 0-1697.76 780.875-1697.76 1744.1364209 0 963.2605791 760.112 1744.1335791 1697.76 1744.1335791 937.64 0 1697.76-780.873 1697.76-1744.1334307z"/><path d="m3215.17-.00729637c0-972.95570363-767.77-1761.69270363-1714.85-1761.69270363-947.081 0-1714.843 788.737-1714.843 1761.69255371 0 972.95544629 767.762 1761.68744629 1714.843 1761.68744629 947.08 0 1714.85-788.732 1714.85-1761.68729637z"/><path d="m3232.25-.0317089c0-982.6502911-775.42-1779.2482911-1731.94-1779.2482911-956.515 0-1731.927 796.598-1731.927 1779.2481396 0 982.6498604 775.412 1779.2418604 1731.927 1779.2418604 956.52 0 1731.94-796.591 1731.94-1779.2417089z"/><path d="m3249.33-.0580746c0-992.3449254-783.06-1796.8019254-1749.01-1796.8019254-965.961 0-1749.023 804.457-1749.023 1796.8017725 0 992.3452275 783.062 1796.7982275 1749.023 1796.7982275 965.95 0 1749.01-804.453 1749.01-1796.7980746z"/><path d="m3266.42-.0447675c0-1002.0152325-790.69-1814.3152325-1766.07-1814.3152325-975.367 0-1766.061 812.3-1766.061 1814.3150781 0 1002.0149219 790.694 1814.3149219 1766.061 1814.3149219 975.37 0 1766.07-812.3 1766.07-1814.3147675z"/><path d="m3283.46-.0390287c0-1011.7109713-798.34-1831.8609713-1783.15-1831.8609713-984.809 0-1783.154 820.15-1783.154 1831.8608154 0 1011.7091846 798.345 1831.8691846 1783.154 1831.8691846 984.81 0 1783.15-820.16 1783.15-1831.8690287z"/><path d="m3300.59-.00338266c0-1021.40661734-806-1849.41661734-1800.24-1849.41661734-994.246 0-1800.24 828.01-1800.241 1849.41645996 0 1021.40354004 805.995 1849.42354004 1800.241 1849.42354004 994.24 0 1800.24-828.02 1800.24-1849.42338266z"/><path d="m3317.65-.0271849c0-1031.1028151-813.64-1866.9728151-1817.32-1866.9728151-1003.685 0-1817.33 835.87-1817.33 1866.9726562 0 1031.0973438 813.645 1866.9773438 1817.33 1866.9773438 1003.68 0 1817.32-835.88 1817.32-1866.9771849z"/></g></g></svg>