<svg fill="none" height="757" viewBox="0 0 1280 757" width="1280" xmlns="http://www.w3.org/2000/svg"><path d="m-1 0h1281v757h-1281z" fill="#25aeec"/><path clip-rule="evenodd" d="m454.745 357.108h-206.98c-13.143 0-18.162-5.085-18.162-18.162v-206.983c0-13.143 5.085-18.162 18.162-18.162h206.98c13.142 0 18.162 5.085 18.162 18.162v206.983c.066 13.143-5.02 18.162-18.162 18.162z" fill="#fff" fill-rule="evenodd"/><g fill="#25aeec"><path d="m258.2 278.845-2.444 7.133h-2.576l-2.377-7.133h-.066l-.793 8.983h-2.509l1.255-13.738h2.773l2.972 8.85h.066l2.972-8.85h2.774l1.255 13.738h-2.51z"/><path d="m271.078 285.251.859 1.916c-.991.462-2.18.858-3.435.858-2.972 0-4.953-1.915-4.953-5.217 0-3.303 1.783-5.218 4.623-5.218 2.642 0 4.227 1.651 4.227 4.425 0 .264-.066.991-.132 1.519h-6.274c.264 1.519 1.321 2.378 2.641 2.378.793 0 1.784-.33 2.444-.661zm-.991-3.566c0-1.123-.726-1.982-1.981-1.982-1.056 0-1.915.661-2.113 1.982z"/><path d="m281.909 287.431c-.858.396-1.849.594-2.84.594-3.236 0-5.019-2.311-5.019-5.217s1.651-5.218 4.887-5.218c.925 0 1.982.198 2.84.528l-.792 1.916c-.595-.265-1.321-.397-1.916-.397-1.453 0-2.509 1.255-2.509 3.105 0 1.849 1.056 3.104 2.509 3.104.661 0 1.453-.132 2.048-.397z"/><path d="m282.702 277.789h8.651l-.396 2.113h-2.774v7.924h-2.443v-7.924h-3.104v-2.113z"/><path d="m297.826 281.222c0-.991-.463-1.519-1.717-1.519-.859 0-1.717.198-2.642.528l-.727-1.981c1.189-.462 2.378-.66 3.633-.66 3.038 0 3.896 1.585 3.896 3.698v3.831c0 .462.265.726.727.726h.198v1.915c-.264.132-.925.198-1.387.198-.858 0-1.453-.33-1.783-.99h-.066c-.727.726-1.519.99-2.642.99-1.915 0-3.104-.924-3.104-2.972 0-1.915 1.519-2.971 3.765-2.971h1.849zm0 3.698v-1.122h-1.783c-.925 0-1.387.462-1.387 1.122 0 .661.462.991 1.056.991.793 0 1.585-.396 2.114-.991z"/><path d="m308.062 285.714c.991-1.717 1.255-3.434 1.255-6.802v-1.123h6.869v7.925h1.585l-.397 4.623h-2.047v-2.509h-6.208v2.509h-2.047l-.397-4.623zm3.633-5.812c0 2.246-.198 4.293-.991 5.812h3.104v-5.812z"/><path d="m323.384 280.033c0 5.217-1.188 7.859-3.434 7.859-.528 0-.991-.132-1.387-.33l.595-1.916c.132.066.264.132.462.132.793 0 1.387-1.32 1.387-6.67v-1.254h7v10.038h-2.443v-7.925h-2.246v.066z"/><path d="m332.565 283.93c-1.189-.462-1.85-1.519-1.85-2.971 0-1.915 1.321-3.17 3.501-3.17h4.16v10.037h-2.443v-3.566h-.991l-2.179 3.566h-2.708zm1.783-1.783h1.519v-2.245h-1.519c-.727 0-1.189.462-1.189 1.123 0 .66.462 1.122 1.189 1.122z"/><path d="m354.425 287.826h-2.444v-7.924h-3.17v7.924h-2.443v-10.037h8.057z"/><path d="m362.284 281.222c0-.991-.462-1.519-1.717-1.519-.859 0-1.717.198-2.642.528l-.726-1.981c1.188-.462 2.377-.66 3.632-.66 3.038 0 3.897 1.585 3.897 3.698v3.831c0 .462.264.726.726.726h.198v1.915c-.264.132-.924.198-1.387.198-.858 0-1.453-.33-1.783-.99h-.066c-.726.726-1.519.99-2.642.99-1.915 0-3.104-.924-3.104-2.972 0-1.915 1.519-2.971 3.765-2.971h1.849zm0 3.698v-1.122h-1.783c-.925 0-1.387.462-1.387 1.122 0 .661.462.991 1.057.991.792 0 1.585-.396 2.113-.991z"/><path d="m374.832 287.431c-.858.396-1.849.594-2.84.594-3.236 0-5.019-2.311-5.019-5.217s1.651-5.218 4.887-5.218c.925 0 1.982.198 2.84.528l-.792 1.916c-.595-.265-1.321-.397-1.916-.397-1.453 0-2.509 1.255-2.509 3.105 0 1.849 1.056 3.104 2.509 3.104.661 0 1.453-.132 2.048-.397z"/><path d="m383.88 287.431c-.858.396-1.849.594-2.84.594-3.236 0-5.019-2.311-5.019-5.217s1.651-5.218 4.887-5.218c.925 0 1.982.198 2.84.528l-.792 1.916c-.595-.265-1.321-.397-1.916-.397-1.453 0-2.509 1.255-2.509 3.105 0 1.849 1.056 3.104 2.509 3.104.661 0 1.453-.132 2.048-.397z"/><path d="m390.749 281.222c0-.991-.463-1.519-1.717-1.519-.859 0-1.718.198-2.642.528l-.727-1.981c1.189-.462 2.378-.66 3.633-.66 3.038 0 3.896 1.585 3.896 3.698v3.831c0 .462.264.726.727.726h.198v1.915c-.264.132-.925.198-1.387.198-.859 0-1.453-.33-1.783-.99h-.066c-.727.726-1.519.99-2.642.99-1.915 0-3.104-.924-3.104-2.972 0-1.915 1.519-2.971 3.764-2.971h1.85zm0 3.698v-1.122h-1.783c-.925 0-1.387.462-1.387 1.122 0 .661.462.991 1.056.991.793 0 1.585-.396 2.114-.991z"/><path d="m403.165 283.666h-.462v4.16h-2.378v-4.16h-.462l-2.378 4.16h-2.708l3.236-5.151-3.037-4.821h2.509l2.312 3.83h.528v-3.83h2.378v3.83h.528l2.311-3.83h2.51l-3.038 4.821 3.236 5.151-2.576.199z"/><path d="m416.241 281.817-4.094 6.009h-2.246v-10.037h2.444v6.009h.066l4.029-6.009h2.245v10.037h-2.444z"/><path d="m423.969 278.647c.66-.661 1.518-1.057 2.575-1.057 2.84 0 4.095 2.179 4.095 5.217s-1.321 5.218-4.293 5.218c-.858 0-1.651-.132-2.311-.331v4.095l-2.444.396v-14.331h1.849l.396.859h.133zm4.226 4.16c0-1.849-.726-3.104-2.245-3.104-.661 0-1.321.396-1.915.991v4.689c.528.33 1.254.528 1.981.528 1.321 0 2.179-1.122 2.179-3.104z"/><path d="m432.422 282.808c0-3.237 1.915-5.218 4.689-5.218s4.689 1.915 4.689 5.218c0 3.302-1.915 5.217-4.689 5.217s-4.689-1.981-4.689-5.217zm2.444 0c0 1.915.924 3.104 2.245 3.104s2.245-1.189 2.245-3.104c0-1.916-.924-3.105-2.245-3.105-1.255 0-2.245 1.189-2.245 3.105z"/><path d="m452.169 284.987c0 1.718-1.123 2.775-3.434 2.775h-4.557v-10.041h4.16c1.916 0 3.369.66 3.369 2.444 0 1.057-.595 1.85-1.718 2.246v.066c1.321.396 2.18 1.189 2.18 2.51zm-5.548-5.086v1.783h1.255c.859 0 1.387-.264 1.387-.859 0-.66-.594-.858-1.387-.858h-1.255zm0 3.699v2.114h1.585c.925 0 1.453-.33 1.453-1.057s-.528-.991-1.453-.991h-1.585z"/><path d="m255.888 307.441h-2.443v-7.924h-3.17v7.924h-2.444v-10.037h8.057z"/><path d="m258.266 302.423c0-3.236 1.915-5.218 4.689-5.218s4.689 1.915 4.689 5.218c0 3.302-1.915 5.218-4.689 5.218s-4.689-1.916-4.689-5.218zm2.443 0c0 1.915.925 3.104 2.246 3.104s2.245-1.189 2.245-3.104c0-1.916-.924-3.104-2.245-3.104s-2.246 1.188-2.246 3.104z"/><path d="m276.758 303.281h-.463v4.161h-2.377v-4.161h-.462l-2.378 4.161h-2.708l3.236-5.152-3.038-4.821h2.51l2.312 3.83h.528v-3.83h2.377v3.83h.529l2.311-3.83h2.51l-3.038 4.821 3.236 5.152-2.576.198z"/><path d="m289.901 301.432-4.095 6.009h-2.246v-10.037h2.444v6.009h.066l4.029-6.009h2.245v10.037h-2.443z"/><path d="m298.75 299.648c0 5.218-1.188 7.86-3.434 7.86-.528 0-.991-.132-1.387-.33l.595-1.915c.132.066.264.132.462.132.792 0 1.387-1.321 1.387-6.671v-1.255h7v10.039h-2.443v-7.926h-2.246v.066z"/><path d="m305.817 302.423c0-3.236 1.915-5.218 4.689-5.218s4.689 1.915 4.689 5.218c0 3.302-1.915 5.218-4.689 5.218s-4.689-1.916-4.689-5.218zm2.444 0c0 1.915.924 3.104 2.245 3.104s2.246-1.189 2.246-3.104c0-1.916-.925-3.104-2.246-3.104s-2.245 1.188-2.245 3.104z"/><path d="m324.045 297.404-.396 2.113h-3.633v7.924h-2.443v-10.037z"/><path d="m324.705 302.423c0-3.236 1.916-5.218 4.689-5.218 2.774 0 4.689 1.915 4.689 5.218 0 3.302-1.915 5.218-4.689 5.218-2.773 0-4.689-1.916-4.689-5.218zm2.51 0c0 1.915.925 3.104 2.245 3.104 1.321 0 2.246-1.189 2.246-3.104 0-1.916-.925-3.104-2.246-3.104-1.32 0-2.245 1.188-2.245 3.104z"/><path d="m349.604 304.668c0 1.717-1.123 2.773-3.435 2.773h-4.557v-10.037h4.161c1.915 0 3.368.661 3.368 2.444 0 1.056-.594 1.848-1.717 2.245v.066c1.321.33 2.18 1.188 2.18 2.509zm-5.548-5.151v1.783h1.255c.858 0 1.387-.264 1.387-.858 0-.66-.595-.859-1.387-.859h-1.255zm0 3.698v2.113h1.585c.925 0 1.453-.33 1.453-1.056 0-.727-.528-.991-1.453-.991h-1.585z"/><path d="m351.321 302.423c0-3.236 1.915-5.218 4.689-5.218s4.689 1.915 4.689 5.218c0 3.302-1.915 5.218-4.689 5.218s-4.689-1.916-4.689-5.218zm2.509 0c0 1.915.925 3.104 2.246 3.104s2.245-1.189 2.245-3.104c0-1.916-.924-3.104-2.245-3.104s-2.246 1.188-2.246 3.104z"/><path d="m367.964 302.159c1.321.396 2.113 1.188 2.113 2.509 0 1.783-1.519 2.972-4.293 2.972-1.188 0-2.641-.264-3.434-.594l.793-1.916c.66.265 1.783.463 2.641.463 1.123 0 1.916-.397 1.916-1.123 0-.66-.595-1.123-1.916-1.123h-1.254v-1.915h1.254c.859 0 1.519-.264 1.519-1.057 0-.594-.462-.99-1.453-.99-.726 0-1.717.132-2.575.396l-.793-1.915c.925-.396 2.576-.595 3.5-.595 2.246 0 3.699.859 3.699 2.642 0 .991-.528 1.849-1.717 2.246z"/><path d="m374.7 298.328c.66-.66 1.519-1.057 2.576-1.057 2.84 0 4.094 2.18 4.094 5.218s-1.32 5.217-4.292 5.217c-.859 0-1.651-.132-2.312-.33v4.095l-2.443.396v-14.331h1.849l.396.858h.132zm4.161 4.095c0-1.849-.727-3.104-2.246-3.104-.66 0-1.321.396-1.915.99v4.69c.528.33 1.255.528 1.981.528 1.387 0 2.18-1.123 2.18-3.104z"/><path d="m388.635 300.904c0-.991-.462-1.519-1.717-1.519-.858 0-1.717.198-2.642.528l-.726-1.981c1.189-.462 2.377-.661 3.632-.661 3.038 0 3.897 1.585 3.897 3.699v3.83c0 .462.264.727.726.727h.198v1.915c-.264.132-.924.198-1.386.198-.859 0-1.453-.33-1.784-.991h-.066c-.726.727-1.519.991-2.641.991-1.916 0-3.104-.925-3.104-2.972 0-1.915 1.519-2.972 3.764-2.972h1.849zm0 3.632v-1.123h-1.783c-.925 0-1.387.463-1.387 1.123s.462.991 1.057.991c.792 0 1.585-.331 2.113-.991z"/><path d="m401.184 307.046c-.859.396-1.85.595-2.84.595-3.236 0-5.02-2.312-5.02-5.218s1.652-5.218 4.888-5.218c.924 0 1.981.198 2.84.528l-.793 1.916c-.594-.264-1.321-.396-1.915-.396-1.453 0-2.51 1.254-2.51 3.104 0 1.849 1.057 3.104 2.51 3.104.66 0 1.453-.132 2.047-.396z"/><path d="m401.976 297.404h8.652l-.397 2.113h-2.773v7.924h-2.444v-7.924h-3.104v-2.113z"/><path d="m417.1 300.904c0-.991-.462-1.519-1.717-1.519-.859 0-1.717.198-2.642.528l-.726-1.981c1.188-.462 2.377-.661 3.632-.661 3.038 0 3.896 1.585 3.896 3.699v3.83c0 .462.265.727.727.727h.198v1.915c-.264.132-.925.198-1.387.198-.858 0-1.453-.33-1.783-.991h-.066c-.727.727-1.519.991-2.642.991-1.915 0-3.104-.925-3.104-2.972 0-1.915 1.519-2.972 3.765-2.972h1.849zm0 3.632v-1.123h-1.783c-.925 0-1.387.463-1.387 1.123s.462.991 1.056.991c.793 0 1.586-.331 2.114-.991z"/><path d="m249.68 321.84-.66 3.633h-1.585l1.783-10.303h3.236c1.849 0 2.906.991 2.906 2.84 0 2.245-1.717 3.83-4.095 3.83zm.925-5.283-.661 3.83h1.651c1.255 0 2.18-.99 2.18-2.443 0-.925-.528-1.453-1.453-1.453h-1.717z"/><path d="m260.511 319.398c-.198-.067-.396-.133-.726-.133-.859 0-1.519.859-1.849 1.85l-.793 4.358h-1.519l1.321-7.528h1.057l.066 1.188h.066c.528-.792 1.122-1.321 2.179-1.321.33 0 .661.067.925.133z"/><path d="m261.172 319.199.528-1.255h2.576l-1.321 7.529h-1.519l1.056-6.208h-1.32zm2.707-4.359c.529 0 .925.396.925.924 0 .529-.396.925-.925.925-.528 0-.924-.396-.924-.925 0-.528.462-.924.924-.924z"/><path d="m269.493 317.812c1.915 0 2.84 1.189 2.84 2.972 0 2.576-1.585 4.821-4.227 4.821-1.849 0-2.84-.991-2.84-2.972 0-2.575 1.585-4.821 4.227-4.821zm-1.123 6.472c1.387 0 2.444-1.519 2.444-3.434 0-1.188-.528-1.783-1.519-1.783-1.387 0-2.444 1.519-2.444 3.434 0 1.189.529 1.783 1.519 1.783z"/><path d="m278.145 319.398c-.198-.067-.396-.133-.727-.133-.858 0-1.519.859-1.849 1.85l-.792 4.358h-1.519l1.32-7.528h1.123l.066 1.188h.066c.529-.792 1.123-1.321 2.18-1.321.33 0 .66.067.924.133z"/><path d="m278.871 319.199.529-1.255h2.575l-1.321 7.529h-1.519l1.123-6.208h-1.387zm2.708-4.359c.528 0 .925.396.925.924 0 .529-.397.925-.925.925s-.925-.396-.925-.925c0-.528.397-.924.925-.924z"/><path d="m284.881 316.094 1.585-.264-.396 2.113h2.245l-.528 1.255h-1.981l-.727 4.095v.264c0 .528.331.726.859.726.396 0 .66-.066 1.123-.198l.132 1.189c-.595.198-1.123.264-1.651.264-1.189 0-1.982-.462-1.982-1.717 0-.198 0-.396.066-.66l.727-4.029h-1.255l.198-1.255h1.255z"/><path d="m288.051 327.19c.198.132.463.198.793.198s.726-.198 1.057-.858l.528-1.057h-.528l-1.321-7.53h1.519l.99 5.945h.066l2.906-5.945h1.651l-4.491 8.983c-.726 1.453-1.651 1.783-2.443 1.783-.529 0-.925-.132-1.255-.264z"/><path d="m304.496 323.095c0 1.52-1.387 2.444-3.236 2.444-.925 0-1.783-.198-2.378-.528l.727-1.189c.528.264 1.123.396 1.849.396.66 0 1.519-.33 1.519-1.056 0-.661-.66-.859-1.387-1.123-.726-.264-1.783-.925-1.783-2.114 0-1.519 1.255-2.245 2.906-2.245.858 0 1.717.198 2.377.528l-.66 1.123c-.528-.198-1.123-.396-1.783-.396-.661 0-1.321.264-1.321.924 0 .595.66.859 1.189 1.057.924.462 1.981 1.057 1.981 2.179z"/><path d="m305.949 322.633c0-2.575 1.519-4.821 4.227-4.821 1.453 0 2.443.661 2.443 1.982 0 1.518-1.32 2.641-5.085 2.641 0 1.189.396 1.915 1.717 1.915.661 0 1.189-.198 1.783-.462l.463 1.123c-.793.396-1.651.594-2.576.594-2.047 0-2.972-1.189-2.972-2.972zm1.717-1.519c2.84 0 3.368-.594 3.368-1.254 0-.529-.462-.793-1.056-.793-1.057 0-1.982.859-2.312 2.047z"/><path d="m320.479 318.34-1.255 7.066h-.991l-.132-.792h-.066c-.594.594-1.321.925-2.245.925-1.652 0-2.312-1.189-2.312-2.972 0-2.576 1.585-4.821 4.227-4.821 1.057.066 1.915.264 2.774.594zm-5.482 4.161c0 1.122.396 1.783 1.255 1.783.726 0 1.321-.396 1.849-1.057l.66-3.896c-.396-.132-.792-.264-1.386-.264-1.387 0-2.378 1.519-2.378 3.434z"/><path d="m323.318 316.094 1.585-.264-.396 2.113h2.246l-.529 1.255h-1.981l-.727 4.095v.264c0 .528.331.726.859.726.396 0 .66-.066 1.123-.198l.132 1.189c-.595.198-1.123.264-1.651.264-1.189 0-1.981-.462-1.981-1.717 0-.198-.001-.396.066-.66l.726-4.029h-1.255l.198-1.255h1.255z"/><path d="m331.97 323.095c0 1.52-1.387 2.444-3.236 2.444-.925 0-1.783-.198-2.378-.528l.727-1.189c.528.264 1.123.396 1.849.396.661 0 1.519-.33 1.519-1.056 0-.661-.66-.859-1.387-1.123-.726-.264-1.783-.925-1.783-2.114 0-1.519 1.255-2.245 2.906-2.245.859 0 1.717.198 2.378.528l-.661 1.123c-.528-.198-1.123-.396-1.783-.396-.661 0-1.321.264-1.321.924 0 .595.66.859 1.189 1.057.924.462 1.981 1.057 1.981 2.179z"/><path d="m342.339 317.944-.528 1.255h-1.52l-1.254 7.133c-.331 1.717-1.321 2.312-2.576 2.312-.594 0-1.189-.199-1.651-.463l.594-1.123c.397.199.661.331 1.123.331.528 0 .859-.265.991-1.057l1.255-7.133h-1.255l.198-1.255h1.255l.198-.991c.33-1.783 1.387-2.576 2.84-2.576.726 0 1.188.132 1.717.396l-.727 1.123c-.264-.132-.594-.264-1.056-.264-.661 0-1.123.396-1.255 1.255l-.198.991h1.849z"/><path d="m346.368 317.812c1.915 0 2.839 1.189 2.839 2.972 0 2.576-1.585 4.821-4.226 4.821-1.85 0-2.84-.991-2.84-2.972.066-2.575 1.585-4.821 4.227-4.821zm-1.123 6.472c1.387 0 2.443-1.519 2.443-3.434 0-1.188-.528-1.783-1.519-1.783-1.387 0-2.443 1.519-2.443 3.434 0 1.189.528 1.783 1.519 1.783z"/><path d="m355.085 319.398c-.198-.067-.396-.133-.726-.133-.859 0-1.519.859-1.849 1.85l-.793 4.358h-1.519l1.321-7.528h1.123l.066 1.188h.066c.528-.792 1.122-1.321 2.179-1.321.33 0 .661.067.925.133z"/><path d="m364.596 323.095c0 1.52-1.387 2.444-3.237 2.444-.924 0-1.783-.198-2.377-.528l.726-1.189c.529.264 1.123.396 1.85.396.66 0 1.519-.33 1.519-1.056 0-.661-.661-.859-1.387-1.123-.727-.264-1.783-.925-1.783-2.114 0-1.519 1.254-2.245 2.905-2.245.859 0 1.718.198 2.378.528l-.66 1.123c-.529-.198-1.123-.396-1.784-.396-.66 0-1.32.264-1.32.924 0 .595.66.859 1.188 1.057.925.462 1.982 1.057 1.982 2.179z"/><path d="m366.048 322.633c0-2.575 1.519-4.821 4.227-4.821 1.453 0 2.444.661 2.444 1.982 0 1.518-1.321 2.641-5.085 2.641 0 1.189.396 1.915 1.717 1.915.66 0 1.188-.198 1.783-.462l.462 1.123c-.792.396-1.651.594-2.576.594-2.047 0-2.972-1.189-2.972-2.972zm1.718-1.519c2.839 0 3.368-.594 3.368-1.254 0-.529-.463-.793-1.057-.793-1.123 0-1.981.859-2.311 2.047z"/><path d="m374.832 325.473h-1.519l1.321-7.528h1.057l.132.792h.066c.726-.66 1.453-.925 2.245-.925 1.387 0 2.048.661 2.048 2.048 0 .264 0 .66-.066.99l-.793 4.689h-1.519l.793-4.557c.066-.264.066-.462.066-.66 0-.792-.33-1.123-1.057-1.123-.594 0-1.321.463-1.849 1.057z"/><path d="m381.371 319.199.528-1.255h2.576l-1.321 7.529h-1.519l1.123-6.208h-1.387zm2.773-4.359c.529 0 .925.396.925.924 0 .529-.396.925-.925.925-.528 0-.924-.396-.924-.925 0-.528.396-.924.924-.924z"/><path d="m389.692 317.812c1.915 0 2.84 1.189 2.84 2.972 0 2.576-1.585 4.821-4.227 4.821-1.849 0-2.84-.991-2.84-2.972.066-2.575 1.585-4.821 4.227-4.821zm-1.123 6.472c1.387 0 2.444-1.519 2.444-3.434 0-1.188-.529-1.783-1.519-1.783-1.387 0-2.444 1.519-2.444 3.434 0 1.189.528 1.783 1.519 1.783z"/><path d="m398.41 319.398c-.198-.067-.397-.133-.727-.133-.858 0-1.519.859-1.849 1.85l-.793 4.358h-1.519l1.321-7.528h1.123l.066 1.188h.066c.529-.792 1.123-1.321 2.18-1.321.33 0 .66.067.924.133z"/><path d="m402.901 322.633c0-2.707 1.717-4.821 4.359-4.821.792 0 1.453.133 2.047.397l-.661 1.188c-.462-.198-.99-.33-1.585-.33-1.386 0-2.509 1.453-2.509 3.434 0 1.189.66 1.783 1.651 1.783.528 0 1.189-.132 1.717-.33l.33 1.189c-.66.264-1.519.462-2.311.462-1.982 0-3.038-1.189-3.038-2.972z"/><path d="m409.769 319.199.529-1.255h2.575l-1.321 7.529h-1.519l1.057-6.208h-1.321zm2.708-4.359c.528 0 .925.396.925.924 0 .529-.397.925-.925.925s-.925-.396-.925-.925c0-.528.463-.924.925-.924z"/><path d="m415.779 316.094 1.585-.264-.396 2.113h2.245l-.528 1.255h-1.981l-.727 4.095v.264c0 .528.33.726.859.726.396 0 .66-.066 1.123-.198l.132 1.189c-.595.198-1.123.264-1.651.264-1.189 0-1.982-.462-1.982-1.717 0-.198 0-.396.066-.66l.727-4.029h-1.255l.198-1.255h1.255z"/><path d="m419.411 319.199.529-1.255h2.576l-1.321 7.529h-1.519l1.122-6.208h-1.387zm2.774-4.359c.529 0 .925.396.925.924 0 .529-.396.925-.925.925-.528 0-.924-.396-.924-.925 0-.528.396-.924.924-.924z"/><path d="m424.365 317.943h5.547l-.198 1.189-4.755 4.954v.066h4.029l-.529 1.255h-5.613l.198-1.189 4.755-4.954v-.066h-3.632z"/><path d="m430.309 322.633c0-2.575 1.519-4.821 4.226-4.821 1.453 0 2.444.661 2.444 1.982 0 1.518-1.321 2.641-5.085 2.641 0 1.189.396 1.915 1.717 1.915.66 0 1.189-.198 1.783-.462l.462 1.123c-.792.396-1.651.594-2.575.594-2.048 0-2.972-1.189-2.972-2.972zm1.717-1.519c2.84 0 3.368-.594 3.368-1.254 0-.529-.462-.793-1.123-.793-1.056 0-1.915.859-2.245 2.047z"/><path d="m439.092 325.473h-1.519l1.321-7.528h1.123l.132.792h.066c.727-.66 1.453-.925 2.246-.925 1.387 0 2.047.661 2.047 2.048 0 .264 0 .66-.066.99l-.793 4.689h-1.519l.793-4.557c.066-.264.066-.462.066-.66 0-.792-.33-1.123-1.057-1.123-.594 0-1.321.463-1.849 1.057z"/><path d="m450.65 323.095c0 1.52-1.387 2.444-3.236 2.444-.925 0-1.783-.198-2.378-.528l.727-1.189c.528.264 1.122.396 1.849.396.66 0 1.519-.33 1.519-1.056 0-.661-.66-.859-1.387-1.123-.726-.264-1.783-.925-1.783-2.114 0-1.519 1.255-2.245 2.906-2.245.858 0 1.717.198 2.377.528l-.66 1.123c-.528-.198-1.123-.396-1.783-.396-.661 0-1.321.264-1.321.924 0 .595.66.859 1.189 1.057.924.462 1.981 1.057 1.981 2.179z"/><path d="m316.912 249.984-.066-31.239c-6.736-.33-14.926 1.255-24.04 4.293-2.641.858-5.613.132-7.528-2.114-11.228-13.34-13.341-29.983-11.624-46.759.396-6.406 8.718-8.982 12.614-3.698 11.294 12.68 29.059 12.548 44.051 12.35l.595 24.899c16.841 7.264 20.605 25.625 20.407 42.268h-13.935c.132-12.351-2.18-20.606-6.406-25.427l-.066 25.427zm-3.698-13.011-44.777 13.011-22.323-77.602 13.473-3.83 18.426 64.128 31.304-9.114zm-31.767-99.528c7.133-1.981 14.596 2.179 16.577 9.246 1.981 7.133-2.179 14.53-9.378 16.511-7.133 1.981-14.596-2.179-16.577-9.246-1.981-7.133 2.245-14.53 9.378-16.511zm35.399 67.365v-7.992c-13.935-1.056-20.407-2.047-29.455-6.802.66 6.472 2.378 12.746 5.878 18.228 8.519-2.378 16.445-3.698 23.577-3.434z"/></g><path clip-rule="evenodd" d="m743.29 356.304h-206.98c-13.143 0-18.162-5.084-18.162-18.157v-206.99c0-13.139 5.085-18.157 18.162-18.157h206.98c13.142 0 18.161 5.084 18.161 18.157v206.924c.067 13.139-5.019 18.223-18.161 18.223z" fill="#fff" fill-rule="evenodd"/><path d="m546.745 278.064-2.444 7.13h-2.576l-2.377-7.13h-.066l-.793 8.979h-2.51l1.255-13.732h2.84l2.972 8.846h.066l2.972-8.846h2.774l1.255 13.732h-2.51z" fill="#25aeec"/><path d="m559.623 284.469.859 1.915c-.991.462-2.18.858-3.435.858-2.972 0-4.953-1.915-4.953-5.217 0-3.301 1.783-5.216 4.623-5.216 2.642 0 4.227 1.65 4.227 4.424 0 .264-.066.991-.132 1.519h-6.274c.264 1.519 1.321 2.377 2.641 2.377.793 0 1.784-.33 2.444-.66zm-.991-3.566c0-1.123-.726-1.981-1.981-1.981-1.057 0-1.915.66-2.113 1.981z" fill="#25aeec"/><path d="m570.454 286.648c-.858.396-1.849.594-2.84.594-3.236 0-4.953-2.311-4.953-5.217 0-2.905 1.651-5.216 4.887-5.216.925 0 1.982.198 2.84.528l-.792 1.915c-.595-.264-1.321-.396-1.916-.396-1.453 0-2.509 1.254-2.509 3.103s1.056 3.104 2.509 3.104c.661 0 1.453-.132 2.048-.396z" fill="#25aeec"/><path d="m571.247 277.008h8.651l-.396 2.113h-2.774v7.922h-2.443v-7.922h-3.104v-2.113z" fill="#25aeec"/><path d="m580.757 282.025c0-3.235 1.915-5.216 4.689-5.216s4.689 1.915 4.689 5.216c0 3.236-1.915 5.217-4.689 5.217-2.774-.066-4.689-1.981-4.689-5.217zm2.443 0c0 1.915.925 3.104 2.246 3.104s2.245-1.189 2.245-3.104-.924-3.103-2.245-3.103-2.246 1.122-2.246 3.103z" fill="#25aeec"/><path d="m597.466 284.931c.991-1.717 1.255-3.433 1.255-6.801v-1.122h6.868v7.923h1.585l-.396 4.622h-2.047v-2.509h-6.209v2.509h-2.047l-.396-4.622zm3.632-5.81c0 2.245-.198 4.291-.99 5.81h3.104v-5.81z" fill="#25aeec"/><path d="m612.788 279.187c0 5.215-1.189 7.856-3.434 7.856-.529 0-.991-.132-1.387-.33l.594-1.915c.132.066.264.132.462.132.793 0 1.387-1.32 1.387-6.668v-1.254h7.001v10.035h-2.444v-7.922h-2.245v.066z" fill="#25aeec"/><path d="m621.902 283.148c-1.189-.462-1.849-1.519-1.849-2.971 0-1.915 1.32-3.169 3.5-3.169h4.161v10.035h-2.444v-3.565h-.991l-2.179 3.565h-2.708zm1.849-1.783h1.519v-2.244h-1.519c-.726 0-1.189.462-1.189 1.122s.463 1.122 1.189 1.122z" fill="#25aeec"/><path d="m543.575 306.255c-.859.396-1.85.594-2.84.594-3.237 0-4.954-2.311-4.954-5.215 0-2.905 1.652-5.216 4.888-5.216.924 0 1.981.198 2.84.528l-.793 1.915c-.594-.264-1.321-.396-1.915-.396-1.453 0-2.51 1.254-2.51 3.103 0 1.848 1.057 3.103 2.51 3.103.66 0 1.453-.133 2.047-.397z" fill="#25aeec"/><path d="m544.763 301.634c0-3.235 1.916-5.216 4.689-5.216 2.774 0 4.689 1.915 4.689 5.216 0 3.235-1.915 5.215-4.689 5.215-2.773 0-4.689-1.98-4.689-5.215zm2.51 0c0 1.914.925 3.103 2.245 3.103 1.321 0 2.246-1.189 2.246-3.103 0-1.915-.925-3.103-2.246-3.103-1.32 0-2.245 1.188-2.245 3.103z" fill="#25aeec"/><path d="m558.302 298.399c.793-.858 1.783-1.452 3.038-1.452 2.444 0 4.227 1.65 4.227 4.951 0 3.235-2.047 4.952-4.821 4.952-3.236 0-4.689-2.443-4.689-6.404 0-6.14 1.783-7.46 5.019-7.79 1.453-.132 2.245-.33 3.302-.726l.793 1.914c-1.123.594-2.51.858-3.831.99-2.113.132-3.104 1.057-3.038 3.565zm.198 2.047c0 2.839.793 4.291 2.246 4.291 1.321 0 2.377-.924 2.377-2.839 0-1.914-.924-2.838-2.113-2.838-.859-.066-1.849.396-2.51 1.386z" fill="#25aeec"/><path d="m572.964 300.049c0-.99-.462-1.518-1.717-1.518-.859 0-1.717.198-2.642.528l-.727-1.981c1.189-.462 2.378-.66 3.633-.66 3.038 0 3.896 1.585 3.896 3.697v3.83c0 .462.265.726.727.726h.198v1.914c-.264.132-.925.198-1.387.198-.858 0-1.453-.33-1.783-.99h-.066c-.727.726-1.519.99-2.642.99-1.915 0-3.104-.924-3.104-2.971 0-1.914 1.519-2.971 3.765-2.971h1.849zm0 3.697v-1.122h-1.783c-.925 0-1.387.462-1.387 1.122 0 .661.462.991 1.056.991.859 0 1.585-.396 2.114-.991z" fill="#25aeec"/><path d="m581.616 302.56h-.859v4.093h-2.444v-10.036h2.444v3.83h.859l2.311-3.83h2.444l-2.906 4.82 3.104 5.15-2.51.198z" fill="#25aeec"/><path d="m594.494 300.644-4.095 6.008h-2.245v-10.035h2.443v6.008h.066l4.029-6.008h2.246v10.035h-2.444z" fill="#25aeec"/><path d="m599.513 302.096v-2.178h5.548l-.396 2.178z" fill="#25aeec"/><path d="m615.562 306.652h-2.444v-7.922h-3.17v7.922h-2.444v-10.035h8.058z" fill="#25aeec"/><path d="m617.939 301.634c0-3.235 1.915-5.216 4.689-5.216s4.689 1.915 4.689 5.216c0 3.235-1.915 5.215-4.689 5.215s-4.689-1.98-4.689-5.215zm2.444 0c0 1.914.924 3.103 2.245 3.103s2.246-1.189 2.246-3.103c0-1.915-.925-3.103-2.246-3.103s-2.245 1.188-2.245 3.103z" fill="#25aeec"/><path d="m637.686 303.813c0 1.717-1.123 2.773-3.434 2.773h-4.557v-10.035h4.161c1.915 0 3.368.66 3.368 2.443 0 1.056-.595 1.848-1.717 2.244v.066c1.321.397 2.179 1.189 2.179 2.509zm-5.547-5.083v1.782h1.254c.859 0 1.387-.264 1.387-.858 0-.66-.594-.858-1.387-.858h-1.254zm0 3.697v2.112h1.585c.924 0 1.452-.33 1.452-1.056s-.528-.99-1.452-.99h-1.585z" fill="#25aeec"/><path d="m639.469 301.634c0-3.235 1.916-5.216 4.689-5.216 2.774 0 4.69 1.915 4.69 5.216 0 3.235-1.916 5.215-4.69 5.215-2.773 0-4.689-1.98-4.689-5.215zm2.444 0c0 1.914.925 3.103 2.245 3.103 1.321 0 2.246-1.189 2.246-3.103 0-1.915-.925-3.103-2.246-3.103-1.32 0-2.245 1.188-2.245 3.103z" fill="#25aeec"/><path d="m650.895 304.54c.99-1.716 1.255-3.433 1.255-6.8v-1.123h6.868v7.923h1.585l-.396 4.622h-2.047v-2.509h-6.208v2.509h-2.048l-.396-4.622zm3.566-5.81c0 2.245-.198 4.292-.99 5.81h3.104v-5.81z" fill="#25aeec"/><path d="m666.217 300.182c2.179 0 3.566 1.189 3.566 3.236s-1.387 3.169-3.566 3.169h-3.897v-10.036h2.444v3.565h1.453zm-1.519 2.047v2.311h1.321c.792 0 1.321-.462 1.321-1.188 0-.661-.463-1.189-1.321-1.189h-1.321zm8.718 4.424h-2.444v-10.036h2.444z" fill="#25aeec"/><path d="m678.633 297.474c.66-.66 1.519-1.056 2.576-1.056 2.84 0 4.094 2.179 4.094 5.216s-1.32 5.216-4.292 5.216c-.859 0-1.651-.132-2.312-.33v4.093l-2.443.396v-14.327h1.849l.396.858h.132zm4.227 4.16c0-1.849-.727-3.103-2.246-3.103-.66 0-1.32.396-1.915.99v4.688c.528.33 1.255.528 1.981.528 1.387 0 2.18-1.122 2.18-3.103z" fill="#25aeec"/><path d="m689.2 302.757c-1.189-.462-1.849-1.518-1.849-2.971 0-1.914 1.321-3.169 3.5-3.169h4.161v10.035h-2.444v-3.565h-.99l-2.18 3.565h-2.708zm1.849-1.782h1.519v-2.245h-1.519c-.726 0-1.189.462-1.189 1.122s.463 1.123 1.189 1.123z" fill="#25aeec"/><path d="m540.338 318.669c1.123.528 2.51 1.386 2.51 2.905 0 2.047-1.585 3.169-4.029 3.169-1.32 0-2.245-.33-3.17-.924l.793-1.321c.726.529 1.519.793 2.642.793 1.32 0 2.179-.529 2.179-1.651 0-.924-.793-1.32-1.849-1.783-1.123-.528-2.312-1.32-2.312-2.773 0-1.914 1.321-2.971 3.633-2.971 1.188 0 2.179.264 2.906.793l-.925 1.188c-.661-.396-1.387-.594-2.312-.594-1.056 0-1.783.528-1.783 1.386.066.991.991 1.453 1.717 1.783z" fill="#25aeec"/><path d="m543.971 321.839c0-2.576 1.519-4.821 4.226-4.821 1.453 0 2.444.66 2.444 1.981 0 1.519-1.321 2.642-5.085 2.642 0 1.188.396 1.915 1.717 1.915.66 0 1.189-.198 1.783-.463l.462 1.123c-.792.396-1.651.595-2.575.595-2.048 0-2.972-1.189-2.972-2.972zm1.717-1.519c2.84 0 3.368-.595 3.368-1.255 0-.528-.462-.793-1.123-.793-.99 0-1.915.859-2.245 2.048z" fill="#25aeec"/><path d="m558.5 317.547-1.255 7.063h-.99l-.132-.792h-.066c-.595.594-1.321.924-2.246.924-1.651 0-2.311-1.188-2.311-2.97 0-2.575 1.585-4.819 4.227-4.819 1.056 0 1.915.264 2.773.594zm-5.481 4.159c0 1.122.396 1.782 1.254 1.782.727 0 1.321-.396 1.85-1.056l.66-3.895c-.396-.132-.792-.264-1.387-.264-1.387 0-2.377 1.519-2.377 3.433z" fill="#25aeec"/><path d="m561.34 315.301 1.585-.264-.396 2.113h2.245l-.528 1.254h-1.981l-.727 4.094v.264c0 .528.33.726.859.726.396 0 .66-.066 1.122-.198l.133 1.188c-.595.198-1.123.264-1.651.264-1.189 0-1.982-.462-1.982-1.716 0-.198 0-.396.066-.66l.727-4.028h-1.255l.198-1.254h1.255z" fill="#25aeec"/><path d="m573.888 317.151-.528 1.254h-1.519l-1.255 7.13c-.33 1.717-1.321 2.311-2.575 2.311-.595 0-1.255-.198-1.652-.462l.595-1.123c.396.198.66.33 1.123.33.528 0 .858-.264.99-1.056l1.255-7.13h-1.255l.198-1.254h1.255l.198-.99c.331-1.783 1.387-2.575 2.84-2.575.727 0 1.189.132 1.717.396l-.726 1.122c-.264-.132-.595-.264-1.057-.264-.66 0-1.123.396-1.255 1.255l-.198.99h1.849z" fill="#25aeec"/><path d="m577.917 316.953c1.915 0 2.84 1.188 2.84 2.971 0 2.574-1.585 4.818-4.227 4.818-1.849 0-2.84-.99-2.84-2.97.066-2.575 1.585-4.819 4.227-4.819zm-1.123 6.535c1.387 0 2.444-1.518 2.444-3.432 0-1.189-.529-1.783-1.519-1.783-1.387 0-2.444 1.519-2.444 3.433 0 1.188.529 1.782 1.519 1.782z" fill="#25aeec"/><path d="m586.635 318.538c-.199-.066-.397-.132-.727-.132-.858 0-1.519.858-1.849 1.848l-.793 4.358h-1.519l1.321-7.527h1.057l.066 1.189h.066c.528-.793 1.123-1.321 2.18-1.321.33 0 .66.066.924.132z" fill="#25aeec"/><path d="m595.55 324.875.199-.925h-.066c-.661.594-1.321.859-2.114.859-1.651 0-2.443-.991-2.443-2.972 0-2.575 1.651-4.819 4.292-4.819 1.057 0 1.982.198 2.972.594l-1.32 7.395c-.331 1.98-1.718 2.905-3.831 2.905-.991 0-1.783-.198-2.576-.594l.661-1.255c.594.33 1.255.594 2.047.594 1.255-.066 1.981-.528 2.179-1.782zm-2.839-3.17c0 1.189.462 1.783 1.453 1.783.594 0 1.32-.396 1.915-1.056l.66-3.962c-.462-.198-.924-.264-1.519-.264-1.453.066-2.509 1.585-2.509 3.499z" fill="#25aeec"/><path d="m601.164 321.705c-.066.264-.066.462-.066.66 0 .793.396 1.123 1.123 1.123.594 0 1.519-.462 1.981-1.057l.925-5.347h1.519l-1.321 7.526h-.991l-.132-.792h-.066c-.726.66-1.651.924-2.509.924-1.387 0-2.114-.66-2.114-2.047 0-.264 0-.66.066-.99l.793-4.687h1.519z" fill="#25aeec"/><path d="m607.636 318.404.529-1.254h2.575l-1.32 7.527h-1.519l1.122-6.207h-1.387zm2.708-4.357c.529 0 .925.396.925.924s-.396.925-.925.925c-.528 0-.924-.397-.924-.925s.396-.924.924-.924z" fill="#25aeec"/><path d="m615.958 316.953c.66 0 1.189.132 1.585.33l.594-3.433 1.585-.264-1.915 11.024h-.99l-.133-.792h-.066c-.66.594-1.387.924-2.377.924-1.519 0-2.444-.99-2.444-2.97-.066-2.575 1.519-4.819 4.161-4.819zm.726 5.479.661-3.697c-.396-.33-.925-.528-1.585-.528-1.387 0-2.444 1.518-2.444 3.433 0 1.188.529 1.782 1.519 1.782.727.066 1.255-.33 1.849-.99z" fill="#25aeec"/><path d="m620.119 321.839c0-2.576 1.519-4.821 4.226-4.821 1.453 0 2.444.66 2.444 1.981 0 1.519-1.321 2.642-5.085 2.642 0 1.188.396 1.915 1.717 1.915.66 0 1.189-.198 1.783-.463l.462 1.123c-.792.396-1.651.595-2.575.595-2.048 0-2.972-1.189-2.972-2.972zm1.717-1.519c2.84 0 3.368-.595 3.368-1.255 0-.528-.462-.793-1.057-.793-1.056 0-1.981.859-2.311 2.048z" fill="#25aeec"/><path d="m627.78 321.047.264-1.322h3.962l-.528 1.322z" fill="#25aeec"/><path d="m637.422 316.953c.661 0 1.189.132 1.585.33l.595-3.433 1.585-.264-1.916 11.024h-.99l-.132-.792h-.066c-.661.594-1.387.924-2.378.924-1.519 0-2.444-.99-2.444-2.97-.066-2.575 1.519-4.819 4.161-4.819zm.727 5.479.66-3.697c-.396-.33-.925-.528-1.585-.528-1.387 0-2.444 1.518-2.444 3.433 0 1.188.529 1.782 1.519 1.782.727.066 1.321-.33 1.85-.99z" fill="#25aeec"/><path d="m645.81 316.953c1.915 0 2.839 1.188 2.839 2.971 0 2.574-1.585 4.818-4.226 4.818-1.85 0-2.84-.99-2.84-2.97 0-2.575 1.585-4.819 4.227-4.819zm-1.123 6.535c1.387 0 2.443-1.518 2.443-3.432 0-1.189-.528-1.783-1.519-1.783-1.387 0-2.443 1.519-2.443 3.433 0 1.188.528 1.782 1.519 1.782z" fill="#25aeec"/><path d="m654.263 324.875.198-.925h-.066c-.66.594-1.321.859-2.113.859-1.651 0-2.444-.991-2.444-2.972 0-2.575 1.651-4.819 4.293-4.819 1.057 0 1.981.198 2.972.594l-1.321 7.395c-.33 1.98-1.717 2.905-3.83 2.905-.991 0-1.784-.198-2.576-.594l.66-1.255c.595.33 1.255.594 2.048.594 1.254-.066 1.981-.528 2.179-1.782zm-2.84-3.17c0 1.189.462 1.783 1.453 1.783.594 0 1.321-.396 1.915-1.056l.661-3.962c-.462-.198-.925-.264-1.519-.264-1.453.066-2.51 1.585-2.51 3.499z" fill="#25aeec"/><path d="m600.809 233.912-10.866 8.721 21.746 27.082 10.867-8.721z" fill="#fff"/><path d="m562.595 191.637c-21.993-9.574-31.833-26.477-31.833-54.867h13.935c0 22.976 6.538 34.795 23.445 42.058z" fill="#25aeec"/><path d="m617.477 256.736c-14.86 0-23.776-8.913-23.776-23.769v-28.325l-19.416-8.121 5.415-12.875 28.003 11.753v37.568c0 7.263 2.575 9.838 9.84 9.838v13.931z" fill="#25aeec"/><path d="m568.935 194.411 27.606-65.763 7.463 18.356" fill="#25aeec"/><path d="m590.003 256.739h-53.958v-21.393c0-21.524 8.388-34.069 26.418-39.483 4.821-1.452 7.529-3.961 9.642-8.847l19.152-45.293 47.486 19.873-2.378 6.273c-5.944 15.648-19.945 21.656-36.654 15.714l-.264-.066-3.5-1.387 5.217-12.941 3.368 1.387c3.17 1.122 10.171 3.565 15.322-1.717l-21.134-8.847-13.737 32.55c-3.698 8.781-9.576 14.064-18.426 16.771-12.02 3.631-16.511 10.762-16.511 26.212v7.46h25.361c-2.51-10.432-10.765-10.432-13.803-10.432v-13.931c17.568 0 28.465 12.017 28.465 31.296v6.801z" fill="#25aeec"/><path clip-rule="evenodd" d="m743.29 644.852h-206.98c-13.143 0-18.162-5.085-18.162-18.162v-206.983c0-13.143 5.085-18.162 18.162-18.162h206.98c13.143 0 18.162 5.085 18.162 18.162v206.983c0 13.143-5.019 18.162-18.162 18.162z" fill="#fff" fill-rule="evenodd"/><path d="m652.81 513.819.133 31.437h-116.501l.132-31.437-.132-13.275c12.152 0 23.775-4.227 33.55-11.161 7.199 6.472 24.766 26.616 24.766 26.616s17.502-20.144 24.7-26.616c9.775 6.934 21.332 11.161 33.55 11.161z" fill="#25aeec"/><path d="m560.746 557.08c-.066-.264-7.595-26.417-13.671-65.119l6.868-1.057c6.076 38.24 13.407 64.063 13.473 64.261z" fill="#fff"/><path d="m546.678 566.589-2.443 7.132h-2.576l-2.378-7.132h-.065l-.793 8.981h-2.51l1.255-13.736h2.84l2.972 8.849h.066l2.972-8.849h2.774l1.255 13.736h-2.51z" fill="#25aeec"/><path d="m559.623 572.995.858 1.916c-.99.462-2.179.858-3.434.858-2.972 0-4.953-1.915-4.953-5.217 0-3.303 1.783-5.218 4.623-5.218 2.642 0 4.227 1.651 4.227 4.425 0 .264-.066.991-.132 1.519h-6.274c.264 1.519 1.32 2.378 2.641 2.378.727 0 1.717-.264 2.444-.661zm-.991-3.566c0-1.123-.726-1.981-1.981-1.981-1.057 0-1.915.66-2.113 1.981z" fill="#25aeec"/><path d="m570.454 575.175c-.859.396-1.849.594-2.84.594-3.236 0-4.953-2.311-4.953-5.217s1.651-5.218 4.887-5.218c.925 0 1.981.198 2.84.528l-.793 1.916c-.594-.264-1.321-.397-1.915-.397-1.453 0-2.51 1.255-2.51 3.105 0 1.849 1.057 3.104 2.51 3.104.661 0 1.453-.132 2.048-.396z" fill="#25aeec"/><path d="m571.247 565.533h8.651l-.396 2.113h-2.774v7.924h-2.444v-7.924h-3.104v-2.113z" fill="#25aeec"/><path d="m580.691 570.552c0-3.237 1.915-5.218 4.689-5.218s4.689 1.915 4.689 5.218c0 3.302-1.915 5.217-4.689 5.217s-4.689-1.981-4.689-5.217zm2.509 0c0 1.915.925 3.104 2.246 3.104s2.245-1.189 2.245-3.104c0-1.916-.924-3.104-2.245-3.104s-2.246 1.188-2.246 3.104z" fill="#25aeec"/><path d="m600.9 571.476h-.859v4.093h-2.443v-10.036h2.443v3.83h.859l2.312-3.83h2.443l-2.906 4.82 3.104 5.15-2.509.198z" fill="#25aeec"/><path d="m606.646 570.552c0-3.237 1.915-5.218 4.689-5.218s4.689 1.915 4.689 5.218c0 3.302-1.915 5.217-4.689 5.217s-4.689-1.981-4.689-5.217zm2.509 0c0 1.915.925 3.104 2.246 3.104s2.245-1.189 2.245-3.104c0-1.916-.924-3.104-2.245-3.104s-2.246 1.188-2.246 3.104z" fill="#25aeec"/><path d="m626.657 575.57h-2.444v-4.094h-3.368v4.094h-2.443v-10.037h2.443v3.83h3.368v-3.83h2.444z" fill="#25aeec"/><path d="m629.497 573.458c.99-1.717 1.255-3.434 1.255-6.802v-1.123h6.868v7.925h1.585l-.396 4.622h-2.047v-2.509h-6.209v2.509h-2.047l-.396-4.622zm3.566-5.812c0 2.246-.198 4.293-.991 5.812h3.104v-5.812z" fill="#25aeec"/><path d="m646.404 565.533h2.576l-3.831 11.953c-.66 1.981-1.915 2.377-2.972 2.377-.726 0-1.387-.198-1.849-.396l.66-1.981c.265.132.727.264 1.057.264s.793-.132.991-.858l.396-1.321h-.66l-3.369-10.038h2.642l2.246 7h.066z" fill="#25aeec"/><path d="m653.801 571.476h-.859v4.093h-2.443v-10.036h2.443v3.83h.859l2.311-3.83h2.444l-2.906 4.82 3.104 5.15-2.51.198z" fill="#25aeec"/><path d="m659.216 565.533h8.652l-.396 2.113h-2.774v7.924h-2.444v-7.924h-3.104v-2.113z" fill="#25aeec"/><path d="m668.661 570.552c0-3.237 1.915-5.218 4.689-5.218 2.773 0 4.689 1.915 4.689 5.218 0 3.302-1.916 5.217-4.689 5.217-2.774 0-4.689-1.981-4.689-5.217zm2.443 0c0 1.915.925 3.104 2.246 3.104s2.245-1.189 2.245-3.104c0-1.916-.924-3.104-2.245-3.104-1.255 0-2.246 1.188-2.246 3.104z" fill="#25aeec"/><path d="m682.728 566.391c.66-.661 1.519-1.057 2.576-1.057 2.839 0 4.094 2.179 4.094 5.217s-1.321 5.218-4.293 5.218c-.858 0-1.651-.132-2.311-.33v4.094l-2.444.397v-14.332h1.85l.396.859h.132zm4.227 4.16c0-1.849-.727-3.104-2.246-3.104-.66 0-1.321.397-1.915.991v4.689c.528.33 1.255.528 1.981.528 1.387 0 2.18-1.122 2.18-3.104z" fill="#25aeec"/><path d="m696.729 569.032c0-.991-.462-1.52-1.717-1.52-.859 0-1.717.198-2.642.529l-.726-1.982c1.188-.462 2.377-.661 3.632-.661 3.038 0 3.897 1.586 3.897 3.7v3.831c0 .462.264.727.726.727h.198v1.915c-.264.132-.924.199-1.387.199-.858 0-1.453-.331-1.783-.991h-.066c-.726.726-1.519.991-2.642.991-1.915 0-3.104-.925-3.104-2.973 0-1.916 1.519-2.973 3.765-2.973h1.849zm0 3.633v-1.123h-1.783c-.925 0-1.387.462-1.387 1.123 0 .66.462.991 1.057.991.792 0 1.585-.397 2.113-.991z" fill="#25aeec"/><path d="m538.357 589.242-.727 4.293h-1.585l1.784-10.303h5.877l-.528 1.387h-4.029l-.528 3.17h4.029l-.265 1.387h-4.028z" fill="#25aeec"/><path d="m550.641 586.468-1.255 7.068h-.991l-.132-.793h-.066c-.594.595-1.321.925-2.245.925-1.651 0-2.312-1.189-2.312-2.973 0-2.576 1.585-4.822 4.227-4.822.991 0 1.915.264 2.774.595zm-5.482 4.161c0 1.123.397 1.784 1.255 1.784.727 0 1.321-.396 1.849-1.057l.661-3.898c-.396-.132-.793-.264-1.387-.264-1.387 0-2.378 1.52-2.378 3.435z" fill="#25aeec"/><path d="m556.189 587.458c-.198-.066-.397-.132-.727-.132-.858 0-1.519.859-1.849 1.85l-.793 4.359h-1.519l1.321-7.53h1.057l.066 1.189h.066c.528-.793 1.123-1.321 2.179-1.321.331 0 .661.066.925.132z" fill="#25aeec"/><path d="m556.915 590.761c0-2.576 1.519-4.822 4.227-4.822 1.453 0 2.443.661 2.443 1.982 0 1.519-1.32 2.642-5.085 2.642 0 1.189.396 1.915 1.717 1.915.661 0 1.189-.198 1.783-.462l.463 1.123c-.793.396-1.652.594-2.576.594-2.047 0-2.972-1.189-2.972-2.972zm1.717-1.519c2.84 0 3.368-.595 3.368-1.255 0-.528-.462-.793-1.056-.793-1.123 0-1.982.859-2.312 2.048z" fill="#25aeec"/><path d="m568.209 590.761c0-2.708 1.717-4.822 4.358-4.822.793 0 1.453.133 2.048.397l-.661 1.189c-.462-.199-.99-.331-1.585-.331-1.387 0-2.509 1.453-2.509 3.435 0 1.189.66 1.783 1.651 1.783.528 0 1.189-.132 1.717-.33l.33 1.189c-.66.264-1.519.462-2.311.462-1.982 0-3.038-1.189-3.038-2.972z" fill="#25aeec"/><path d="m578.974 585.873c1.915 0 2.839 1.189 2.839 2.973 0 2.576-1.585 4.822-4.226 4.822-1.85 0-2.84-.991-2.84-2.973 0-2.576 1.585-4.822 4.227-4.822zm-1.123 6.54c1.387 0 2.443-1.519 2.443-3.435 0-1.189-.528-1.784-1.519-1.784-1.386 0-2.443 1.52-2.443 3.435 0 1.189.528 1.784 1.519 1.784z" fill="#25aeec"/><path d="m585.908 593.467c-.528.199-.858.199-1.255.199-1.056 0-1.585-.463-1.585-1.453 0-.199 0-.397.066-.661l1.519-8.784 1.585-.264-1.585 9.114v.264c0 .397.198.529.529.529.264 0 .396-.066.66-.132z" fill="#25aeec"/><path d="m590.003 593.467c-.528.199-.859.199-1.255.199-1.057 0-1.585-.463-1.585-1.453 0-.199 0-.397.066-.661l1.519-8.784 1.585-.264-1.585 9.114v.264c0 .397.198.529.528.529.265 0 .397-.066.661-.132z" fill="#25aeec"/><path d="m591.192 590.761c0-2.576 1.519-4.822 4.226-4.822 1.453 0 2.444.661 2.444 1.982 0 1.519-1.321 2.642-5.085 2.642 0 1.189.396 1.915 1.717 1.915.66 0 1.189-.198 1.783-.462l.462 1.123c-.792.396-1.651.594-2.575.594-2.048 0-2.972-1.189-2.972-2.972zm1.717-1.519c2.839 0 3.368-.595 3.368-1.255 0-.528-.462-.793-1.057-.793-1.123 0-1.981.859-2.311 2.048z" fill="#25aeec"/><path d="m598.655 590.761c0-2.708 1.717-4.822 4.358-4.822.793 0 1.453.133 2.048.397l-.661 1.189c-.462-.199-.99-.331-1.585-.331-1.387 0-2.509 1.453-2.509 3.435 0 1.189.66 1.783 1.651 1.783.528 0 1.188-.132 1.717-.33l.33 1.189c-.66.264-1.519.462-2.311.462-1.982 0-3.038-1.189-3.038-2.972z" fill="#25aeec"/><path d="m607.438 584.221 1.585-.264-.396 2.114h2.246l-.529 1.254h-1.981l-.727 4.095v.265c0 .528.331.726.859.726.396 0 .66-.066 1.123-.198l.132 1.255c-.595.198-1.123.264-1.651.264-1.189 0-1.982-.462-1.982-1.717 0-.198 0-.396.066-.661l.727-4.029h-1.255l.198-1.254h1.255z" fill="#25aeec"/><path d="m615.231 585.873c1.916 0 2.84 1.189 2.84 2.973 0 2.576-1.585 4.822-4.226 4.822-1.85 0-2.84-.991-2.84-2.973 0-2.576 1.585-4.822 4.226-4.822zm-1.122 6.54c1.387 0 2.443-1.519 2.443-3.435 0-1.189-.528-1.784-1.519-1.784-1.387 0-2.443 1.52-2.443 3.435 0 1.189.528 1.784 1.519 1.784z" fill="#25aeec"/><path d="m623.883 587.458c-.198-.066-.396-.132-.726-.132-.859 0-1.519.859-1.85 1.85l-.792 4.359h-1.519l1.321-7.53h1.123l.066 1.189h.066c.528-.793 1.122-1.321 2.179-1.321.33 0 .66.066.925.132z" fill="#25aeec"/><path d="m625.732 586.47-.264-.463c.528-.264.991-.66 1.123-1.254-.396-.066-.727-.331-.727-.793 0-.528.397-.858.859-.858.528 0 .858.396.858.99.067 1.123-.792 1.981-1.849 2.378z" fill="#25aeec"/><path d="m632.667 591.224c0 1.519-1.387 2.444-3.236 2.444-.925 0-1.783-.198-2.378-.528l.727-1.189c.528.264 1.122.396 1.849.396.66 0 1.519-.33 1.519-1.057 0-.66-.66-.858-1.387-1.122-.726-.265-1.783-.925-1.783-2.114 0-1.519 1.255-2.245 2.906-2.245.858 0 1.717.198 2.377.528l-.66 1.123c-.528-.198-1.123-.397-1.783-.397-.661 0-1.321.265-1.321.925 0 .595.66.859 1.189 1.057.924.462 1.981 1.057 1.981 2.179z" fill="#25aeec"/><path d="m642.97 591.224c0 1.519-1.387 2.444-3.236 2.444-.925 0-1.784-.198-2.378-.528l.726-1.189c.529.264 1.123.396 1.85.396.66 0 1.519-.33 1.519-1.057 0-.66-.661-.858-1.387-1.122-.727-.265-1.783-.925-1.783-2.114 0-1.519 1.254-2.245 2.905-2.245.859 0 1.718.198 2.378.528l-.66 1.123c-.529-.198-1.123-.397-1.784-.397-.66 0-1.321.265-1.321.925 0 .595.661.859 1.189 1.057.925.462 1.982 1.057 1.982 2.179z" fill="#25aeec"/><path d="m644.357 590.761c0-2.576 1.519-4.822 4.226-4.822 1.453 0 2.444.661 2.444 1.982 0 1.519-1.321 2.642-5.085 2.642 0 1.189.396 1.915 1.717 1.915.66 0 1.189-.198 1.783-.462l.462 1.123c-.792.396-1.651.594-2.575.594-1.982 0-2.972-1.189-2.972-2.972zm1.783-1.519c2.84 0 3.368-.595 3.368-1.255 0-.528-.462-.793-1.123-.793-1.056 0-1.915.859-2.245 2.048z" fill="#25aeec"/><path d="m658.886 586.468-1.255 7.068h-.99l-.132-.793h-.066c-.595.595-1.321.925-2.246.925-1.651 0-2.311-1.189-2.311-2.973 0-2.576 1.585-4.822 4.226-4.822 1.057 0 1.982.264 2.774.595zm-5.481 4.161c0 1.123.396 1.784 1.254 1.784.727 0 1.321-.396 1.85-1.057l.66-3.898c-.396-.132-.792-.264-1.387-.264-1.321 0-2.377 1.52-2.377 3.435z" fill="#25aeec"/><path d="m661.792 584.221 1.585-.264-.396 2.114h2.245l-.528 1.254h-1.981l-.727 4.095v.265c0 .528.33.726.859.726.396 0 .66-.066 1.122-.198l.133 1.255c-.595.198-1.123.264-1.652.264-1.188 0-1.981-.462-1.981-1.717 0-.198 0-.396.066-.661l.727-4.029h-1.255l.198-1.254h1.255z" fill="#25aeec"/><path d="m620.317 451.344c-1.057 19.681-11.492 35.663-25.691 35.663s-24.436-15.982-25.691-35.663c-1.651-25.89 8.454-35.664 25.691-35.664s27.276 7.661 25.691 35.664z" fill="#25aeec"/><path clip-rule="evenodd" d="m1031.84 356.307h-206.985c-13.143 0-18.162-5.085-18.162-18.162v-206.983c0-13.143 5.085-18.162 18.162-18.162h206.985c13.14 0 18.16 5.085 18.16 18.162v206.983c0 13.143-5.02 18.162-18.16 18.162z" fill="#fff" fill-rule="evenodd"/><path d="m835.224 278.044-2.444 7.133h-2.576l-2.377-7.133h-.066l-.793 8.983h-2.509l1.254-13.738h2.84l2.972 8.85h.066l2.972-8.85h2.84l1.255 13.738h-2.51z" fill="#25aeec"/><path d="m848.168 284.453.859 1.915c-.991.462-2.179.859-3.434.859-2.972 0-4.954-1.916-4.954-5.218 0-3.303 1.784-5.218 4.624-5.218 2.641 0 4.226 1.651 4.226 4.425 0 .264-.066.991-.132 1.519h-6.274c.264 1.519 1.321 2.378 2.642 2.378.792 0 1.717-.264 2.443-.66zm-.99-3.567c0-1.123-.727-1.981-1.982-1.981-1.056 0-1.915.66-2.113 1.981z" fill="#25aeec"/><path d="m859 286.632c-.859.396-1.85.595-2.84.595-3.236 0-4.954-2.312-4.954-5.218s1.652-5.218 4.888-5.218c.924 0 1.981.198 2.84.528l-.793 1.916c-.594-.264-1.321-.397-1.915-.397-1.453 0-2.51 1.255-2.51 3.105 0 1.849 1.057 3.104 2.51 3.104.66 0 1.453-.132 2.047-.396z" fill="#25aeec"/><path d="m859.792 276.988h8.652l-.396 2.114h-2.774v7.924h-2.444v-7.924h-3.104v-2.114z" fill="#25aeec"/><path d="m874.85 280.489c0-.991-.462-1.52-1.717-1.52-.858 0-1.717.198-2.642.529l-.726-1.982c1.189-.462 2.378-.661 3.632-.661 3.038 0 3.897 1.586 3.897 3.7v3.831c0 .462.264.727.726.727h.199v1.915c-.265.132-.925.199-1.387.199-.859 0-1.453-.331-1.784-.991h-.066c-.726.726-1.519.991-2.641.991-1.916 0-3.104-.925-3.104-2.973 0-1.916 1.519-2.973 3.764-2.973h1.849zm0 3.633v-1.123h-1.783c-.924 0-1.387.462-1.387 1.123 0 .66.463.991 1.057.991.859 0 1.585-.397 2.113-.991z" fill="#25aeec"/><path d="m885.153 284.914c.991-1.718 1.255-3.435 1.255-6.803v-1.123h6.869v7.926h1.585l-.396 4.623h-2.048v-2.51h-6.208v2.51h-2.047l-.397-4.623zm3.633-5.812c0 2.245-.198 4.293-.991 5.812h3.104v-5.812z" fill="#25aeec"/><path d="m900.476 279.234c0 5.216-1.189 7.858-3.435 7.858-.528 0-.99-.132-1.387-.33l.595-1.915c.132.066.264.132.462.132.793 0 1.387-1.321 1.387-6.67v-1.254h7.001v10.037h-2.444v-7.924h-2.245v.066z" fill="#25aeec"/><path d="m909.59 283.13c-1.189-.462-1.849-1.519-1.849-2.972 0-1.915 1.32-3.17 3.5-3.17h4.161v10.038h-2.444v-3.566h-.991l-2.179 3.566h-2.708zm1.849-1.783h1.519v-2.245h-1.519c-.726 0-1.189.462-1.189 1.122 0 .661.463 1.123 1.189 1.123z" fill="#25aeec"/><path d="m832.978 306.642h-2.443v-7.925h-3.17v7.925h-2.444v-10.038h8.057z" fill="#25aeec"/><path d="m840.838 300.104c0-.99-.463-1.518-1.718-1.518-.858 0-1.717.198-2.641.528l-.727-1.981c1.189-.462 2.378-.66 3.633-.66 3.038 0 3.896 1.584 3.896 3.698v3.829c0 .463.264.727.727.727h.198v1.915c-.264.132-.925.198-1.387.198-.859 0-1.453-.33-1.783-.991h-.066c-.727.727-1.519.991-2.642.991-1.915 0-3.104-.925-3.104-2.972 0-1.915 1.519-2.971 3.764-2.971h1.85zm0 3.698v-1.122h-1.784c-.924 0-1.386.462-1.386 1.122 0 .661.462.991 1.056.991.793-.066 1.585-.396 2.114-.991z" fill="#25aeec"/><path d="m853.386 306.313c-.859.396-1.849.594-2.84.594-3.236 0-5.019-2.311-5.019-5.217s1.651-5.217 4.887-5.217c.925 0 1.981.198 2.84.528l-.793 1.915c-.594-.264-1.321-.396-1.915-.396-1.453 0-2.51 1.255-2.51 3.104s1.057 3.104 2.51 3.104c.66 0 1.453-.132 2.047-.397z" fill="#25aeec"/><path d="m862.434 306.313c-.858.396-1.849.594-2.84.594-3.236 0-5.019-2.311-5.019-5.217s1.651-5.217 4.887-5.217c.925 0 1.981.198 2.84.528l-.793 1.915c-.594-.264-1.32-.396-1.915-.396-1.453 0-2.51 1.255-2.51 3.104s1.057 3.104 2.51 3.104c.661 0 1.453-.132 2.048-.397z" fill="#25aeec"/><path d="m869.303 300.104c0-.99-.463-1.518-1.717-1.518-.859 0-1.718.198-2.642.528l-.727-1.981c1.189-.462 2.378-.66 3.633-.66 3.038 0 3.896 1.584 3.896 3.698v3.829c0 .463.265.727.727.727h.198v1.915c-.264.132-.925.198-1.387.198-.859 0-1.453-.33-1.783-.991h-.066c-.727.727-1.519.991-2.642.991-1.915 0-3.104-.925-3.104-2.972 0-1.915 1.519-2.971 3.765-2.971h1.849zm0 3.698v-1.122h-1.783c-.925 0-1.387.462-1.387 1.122 0 .661.462.991 1.056.991.793-.066 1.585-.396 2.114-.991z" fill="#25aeec"/><path d="m881.719 302.548h-.462v4.16h-2.378v-4.16h-.462l-2.378 4.16h-2.708l3.237-5.151-3.038-4.821h2.509l2.312 3.831h.528v-3.831h2.378v3.831h.528l2.312-3.831h2.509l-3.038 4.821 3.236 5.151-2.575.198z" fill="#25aeec"/><path d="m894.796 300.632-4.095 6.01h-2.245v-10.038h2.443v6.009h.066l4.029-6.009h2.246v10.038h-2.444z" fill="#25aeec"/><path d="m902.457 297.529c.66-.66 1.519-1.056 2.576-1.056 2.84 0 4.094 2.179 4.094 5.217s-1.321 5.217-4.292 5.217c-.859 0-1.652-.132-2.312-.33v4.095l-2.444.396v-14.331h1.85l.396.858h.132zm4.227 4.095c0-1.849-.727-3.104-2.246-3.104-.66 0-1.321.396-1.915.991v4.689c.528.33 1.255.528 1.981.528 1.387 0 2.18-1.123 2.18-3.104z" fill="#25aeec"/><path d="m910.977 301.622c0-3.236 1.915-5.218 4.689-5.218s4.689 1.916 4.689 5.218c0 3.236-1.915 5.218-4.689 5.218s-4.689-1.916-4.689-5.218zm2.443 0c0 1.915.925 3.104 2.246 3.104s2.245-1.189 2.245-3.104-.924-3.104-2.245-3.104-2.246 1.189-2.246 3.104z" fill="#25aeec"/><path d="m930.724 303.869c0 1.718-1.123 2.84-3.434 2.84h-4.557v-10.039h4.16c1.916 0 3.369.66 3.369 2.444 0 1.057-.595 1.849-1.717 2.245v.066c1.32.265 2.179 1.123 2.179 2.444zm-5.548-5.152v1.784h1.255c.859 0 1.387-.264 1.387-.859 0-.66-.594-.858-1.387-.858h-1.255zm0 3.765v2.114h1.585c.925 0 1.453-.33 1.453-1.057 0-.726-.528-.991-1.453-.991h-1.585z" fill="#25aeec"/><path d="m945.386 306.313c-.859.396-1.849.594-2.84.594-3.236 0-5.02-2.311-5.02-5.217s1.652-5.217 4.888-5.217c.924 0 1.981.198 2.84.528l-.793 1.915c-.594-.264-1.321-.396-1.915-.396-1.453 0-2.51 1.255-2.51 3.104s1.057 3.104 2.51 3.104c.66 0 1.453-.132 2.047-.397z" fill="#25aeec"/><path d="m952.32 304.529c.991-1.717 1.255-3.434 1.255-6.803v-1.122h6.869v7.925h1.585l-.396 4.623h-2.048v-2.51h-6.208v2.51h-2.047l-.396-4.623zm3.633-5.812c0 2.245-.198 4.293-.991 5.812h3.104v-5.812z" fill="#25aeec"/><path d="m970.615 304.133.858 1.915c-.99.463-2.179.859-3.434.859-2.972 0-4.953-1.915-4.953-5.217s1.783-5.217 4.623-5.217c2.642 0 4.227 1.651 4.227 4.424 0 .264-.066.991-.132 1.519h-6.275c.265 1.519 1.321 2.378 2.642 2.378.793-.066 1.783-.331 2.444-.661zm-.925-3.632c0-1.123-.726-1.981-1.981-1.981-1.057 0-1.915.66-2.114 1.981z" fill="#25aeec"/><path d="m973.058 296.67h8.652l-.396 2.114h-2.774v7.925h-2.443v-7.925h-3.105v-2.114z" fill="#25aeec"/><path d="m987.588 300.236c2.18 0 3.566 1.189 3.566 3.236s-1.386 3.17-3.566 3.17h-4.227v-10.038h2.444v3.566h1.783zm-1.717 1.981v2.311h1.585c.793 0 1.321-.462 1.321-1.188 0-.727-.462-1.189-1.321-1.189h-1.585z" fill="#25aeec"/><path d="m1001.26 300.698h-.07l-1.714 4.293h-2.113l-1.783-4.293h-.066l-.463 5.944h-2.443l.99-10.038h2.576l2.245 5.349h.067l2.244-5.349h2.58l.99 10.038h-2.45z" fill="#25aeec"/><path d="m1012.82 300.632-4.1 6.01h-2.24v-10.038h2.44v6.009h.07l4.03-6.009h2.24v10.038h-2.44z" fill="#25aeec"/><path d="m826.77 321.039-.66 3.633h-1.585l1.783-10.303h3.236c1.849 0 2.906.991 2.906 2.84 0 2.245-1.717 3.83-4.095 3.83zm.925-5.283-.661 3.831h1.651c1.255 0 2.18-.991 2.18-2.444 0-.925-.528-1.453-1.453-1.453h-1.717z" fill="#25aeec"/><path d="m837.601 318.597c-.198-.066-.396-.132-.726-.132-.859 0-1.519.859-1.849 1.849l-.793 4.36h-1.519l1.321-7.53h1.123l.066 1.189h.066c.528-.793 1.123-1.321 2.179-1.321.331 0 .661.066.925.132z" fill="#25aeec"/><path d="m838.262 318.398.528-1.255h2.576l-1.321 7.529h-1.519l1.123-6.208h-1.387zm2.708-4.359c.528 0 .924.396.924.925 0 .528-.396.924-.924.924-.529 0-.925-.396-.925-.924 0-.529.396-.925.925-.925z" fill="#25aeec"/><path d="m846.583 317.012c1.916 0 2.84 1.188 2.84 2.971 0 2.576-1.585 4.821-4.227 4.821-1.849 0-2.839-.99-2.839-2.972 0-2.575 1.585-4.82 4.226-4.82zm-1.122 6.537c1.387 0 2.443-1.518 2.443-3.434 0-1.188-.528-1.783-1.519-1.783-1.387 0-2.443 1.519-2.443 3.434 0 1.123.528 1.783 1.519 1.783z" fill="#25aeec"/><path d="m855.235 318.597c-.198-.066-.396-.132-.726-.132-.859 0-1.519.859-1.85 1.849l-.792 4.36h-1.519l1.321-7.53h1.056l.067 1.189h.066c.528-.793 1.122-1.321 2.179-1.321.33 0 .66.066.925.132z" fill="#25aeec"/><path d="m855.962 318.398.528-1.255h2.576l-1.321 7.529h-1.519l1.057-6.208h-1.321zm2.708-4.359c.528 0 .924.396.924.925 0 .528-.396.924-.924.924-.529 0-.925-.396-.925-.924 0-.529.396-.925.925-.925z" fill="#25aeec"/><path d="m861.972 315.293 1.585-.264-.396 2.114h2.245l-.528 1.254h-1.982l-.726 4.095v.264c0 .528.33.726.858.726.397 0 .661-.066 1.123-.198l.132 1.255c-.594.198-1.123.264-1.651.264-1.189 0-1.981-.462-1.981-1.717 0-.198 0-.396.066-.66l.726-4.029h-1.254l.198-1.254h1.254z" fill="#25aeec"/><path d="m865.142 326.391c.198.132.462.198.792.198.331 0 .727-.198 1.057-.859l.528-1.122h-.528l-1.321-7.53h1.519l.991 5.944h.066l2.906-5.944h1.651l-4.491 8.983c-.727 1.453-1.651 1.783-2.444 1.783-.528 0-.924-.132-1.254-.264z" fill="#25aeec"/><path d="m881.587 322.362c0 1.519-1.387 2.444-3.236 2.444-.925 0-1.783-.199-2.378-.529l.727-1.188c.528.264 1.122.396 1.849.396.66 0 1.519-.33 1.519-1.057 0-.66-.66-.858-1.387-1.122-.726-.265-1.783-.925-1.783-2.114 0-1.518 1.255-2.245 2.906-2.245.858 0 1.717.198 2.377.529l-.66 1.122c-.528-.198-1.123-.396-1.783-.396-.661 0-1.321.264-1.321.924 0 .595.66.859 1.189 1.057.924.396 1.981.991 1.981 2.179z" fill="#25aeec"/><path d="m883.04 321.832c0-2.575 1.519-4.82 4.227-4.82 1.453 0 2.443.66 2.443 1.981 0 1.519-1.32 2.641-5.085 2.641 0 1.189.396 1.915 1.717 1.915.661 0 1.189-.198 1.783-.462l.463 1.123c-.793.396-1.651.594-2.576.594-2.047 0-2.972-1.189-2.972-2.972zm1.717-1.518c2.84 0 3.368-.595 3.368-1.255 0-.528-.462-.793-1.122-.793-1.057 0-1.916.925-2.246 2.048z" fill="#25aeec"/><path d="m897.57 317.541-1.255 7.065h-.991l-.132-.792h-.066c-.594.594-1.321.924-2.245.924-1.652 0-2.312-1.188-2.312-2.971 0-2.575 1.585-4.82 4.227-4.82 1.057.066 1.915.33 2.774.594zm-5.482 4.16c0 1.123.396 1.783 1.255 1.783.726 0 1.321-.396 1.849-1.057l.661-3.895c-.397-.132-.793-.264-1.387-.264-1.387 0-2.378 1.518-2.378 3.433z" fill="#25aeec"/><path d="m900.41 315.293 1.585-.264-.397 2.114h2.246l-.528 1.254h-1.982l-.726 4.095v.264c0 .528.33.726.858.726.397 0 .661-.066 1.123-.198l.132 1.255c-.594.198-1.123.264-1.651.264-1.189 0-1.981-.462-1.981-1.717 0-.198 0-.396.066-.66l.726-4.029h-1.255l.199-1.254h1.254z" fill="#25aeec"/><path d="m909.061 322.362c0 1.519-1.387 2.444-3.236 2.444-.924 0-1.783-.199-2.377-.529l.726-1.188c.528.264 1.123.396 1.849.396.661 0 1.519-.33 1.519-1.057 0-.66-.66-.858-1.387-1.122-.726-.265-1.783-.925-1.783-2.114 0-1.518 1.255-2.245 2.906-2.245.859 0 1.717.198 2.378.529l-.661 1.122c-.528-.198-1.122-.396-1.783-.396-.66 0-1.321.264-1.321.924 0 .595.661.859 1.189 1.057.925.396 1.981.991 1.981 2.179z" fill="#25aeec"/><path d="m919.43 317.143-.528 1.255h-1.519l-1.255 7.133c-.33 1.717-1.321 2.312-2.576 2.312-.594 0-1.254-.198-1.651-.463l.595-1.122c.396.198.66.33 1.122.33.529 0 .859-.264.991-1.057l1.255-7.133h-1.255l.198-1.255h1.255l.198-.991c.33-1.783 1.387-2.576 2.84-2.576.727 0 1.189.132 1.717.396l-.726 1.123c-.264-.132-.595-.264-1.057-.264-.66 0-1.123.396-1.255 1.255l-.198.991h1.849z" fill="#25aeec"/><path d="m923.459 317.012c1.915 0 2.84 1.188 2.84 2.971 0 2.576-1.585 4.821-4.227 4.821-1.849 0-2.84-.99-2.84-2.972 0-2.575 1.585-4.82 4.227-4.82zm-1.123 6.537c1.387 0 2.444-1.518 2.444-3.434 0-1.188-.528-1.783-1.519-1.783-1.387 0-2.444 1.519-2.444 3.434 0 1.123.529 1.783 1.519 1.783z" fill="#25aeec"/><path d="m932.111 318.597c-.198-.066-.396-.132-.727-.132-.858 0-1.519.859-1.849 1.849l-.792 4.36h-1.519l1.321-7.53h1.056l.066 1.189h.066c.529-.793 1.123-1.321 2.18-1.321.33 0 .66.066.924.132z" fill="#25aeec"/><path d="m831.856 335.173c0 2.642-1.586 4.822-4.227 4.822-.595 0-1.057-.132-1.585-.396l-.529 3.17-1.585.264 1.915-10.766h1.057l.132.792h.066c.529-.528 1.123-.924 2.114-.924 1.717.066 2.642 1.057 2.642 3.038zm-1.586.066c0-1.189-.528-1.783-1.519-1.783-.594 0-1.254.396-1.783.925l-.66 3.764c.396.331.924.529 1.585.529 1.453.066 2.377-1.519 2.377-3.435z" fill="#25aeec"/><path d="m840.045 332.729-1.255 7.066h-.99l-.133-.792h-.066c-.594.594-1.32.924-2.245.924-1.651 0-2.312-1.188-2.312-2.971 0-2.576 1.585-4.821 4.227-4.821 1.057.066 1.982.33 2.774.594zm-5.482 4.16c0 1.123.397 1.784 1.255 1.784.727 0 1.321-.397 1.849-1.057l.661-3.896c-.396-.132-.793-.264-1.387-.264-1.321 0-2.378 1.518-2.378 3.433z" fill="#25aeec"/><path d="m846.055 337.55c0 1.519-1.387 2.444-3.236 2.444-.925 0-1.783-.198-2.378-.528l.727-1.189c.528.264 1.123.396 1.849.396.66 0 1.519-.33 1.519-1.056 0-.661-.66-.859-1.387-1.123-.726-.264-1.783-.925-1.783-2.114 0-1.519 1.255-2.245 2.906-2.245.858 0 1.717.198 2.377.528l-.66 1.123c-.528-.198-1.123-.396-1.783-.396-.661 0-1.321.264-1.321.924 0 .595.66.859 1.189 1.057.924.396 1.981.991 1.981 2.179z" fill="#25aeec"/><path d="m852.527 337.55c0 1.519-1.386 2.444-3.236 2.444-.924 0-1.783-.198-2.377-.528l.726-1.189c.529.264 1.123.396 1.849.396.661 0 1.519-.33 1.519-1.056 0-.661-.66-.859-1.386-1.123-.727-.264-1.784-.925-1.784-2.114 0-1.519 1.255-2.245 2.906-2.245.859 0 1.717.198 2.378.528l-.661 1.123c-.528-.198-1.122-.396-1.783-.396-.66 0-1.321.264-1.321.924 0 .595.661.859 1.189 1.057.925.396 1.981.991 1.981 2.179z" fill="#25aeec"/><path d="m853.98 337.022c0-2.576 1.52-4.821 4.227-4.821 1.453 0 2.444.661 2.444 1.981 0 1.519-1.321 2.642-5.085 2.642 0 1.188.396 1.915 1.717 1.915.66 0 1.188-.198 1.783-.462l.462 1.122c-.792.397-1.651.595-2.576.595-2.047 0-2.972-1.189-2.972-2.972zm1.718-1.519c2.84 0 3.368-.594 3.368-1.255 0-.528-.462-.792-1.123-.792-1.057 0-1.915.924-2.245 2.047z" fill="#25aeec"/><path d="m862.764 339.862h-1.519l1.321-7.529h1.123l.132.793h.066c.727-.661 1.453-.925 2.246-.925 1.387 0 2.047.661 2.047 2.047 0 .265 0 .661-.066.991l-.793 4.689h-1.519l.793-4.557c.066-.264.066-.462.066-.66 0-.793-.33-1.123-1.057-1.123-.594 0-1.321.462-1.849 1.057z" fill="#25aeec"/><path d="m873.794 340.061.198-.924h-.066c-.661.594-1.321.858-2.114.858-1.651 0-2.443-.991-2.443-2.972 0-2.576 1.651-4.822 4.293-4.822 1.056 0 1.981.198 2.972.595l-1.321 7.397c-.33 1.982-1.717 2.907-3.831 2.907-.99 0-1.783-.199-2.576-.595l.661-1.255c.594.33 1.255.595 2.047.595 1.189-.066 1.916-.529 2.18-1.784zm-2.906-3.17c0 1.189.462 1.783 1.453 1.783.594 0 1.321-.396 1.915-1.057l.661-3.963c-.463-.198-.925-.264-1.519-.264-1.453.066-2.51 1.585-2.51 3.501z" fill="#25aeec"/><path d="m877.558 337.022c0-2.576 1.519-4.821 4.227-4.821 1.453 0 2.444.661 2.444 1.981 0 1.519-1.321 2.642-5.086 2.642 0 1.188.397 1.915 1.717 1.915.661 0 1.189-.198 1.784-.462l.462 1.122c-.793.397-1.651.595-2.576.595-2.047 0-2.972-1.189-2.972-2.972zm1.717-1.519c2.84 0 3.369-.594 3.369-1.255 0-.528-.463-.792-1.057-.792-1.123 0-1.981.924-2.312 2.047z" fill="#25aeec"/><path d="m889.644 333.786c-.198-.066-.396-.132-.726-.132-.859 0-1.519.859-1.849 1.85l-.793 4.359h-1.519l1.321-7.53h1.057l.066 1.189h.066c.528-.792 1.122-1.321 2.179-1.321.33 0 .661.066.925.132z" fill="#25aeec"/><path d="m895.39 337.55c0 1.519-1.387 2.444-3.236 2.444-.925 0-1.783-.198-2.378-.528l.727-1.189c.528.264 1.123.396 1.849.396.661 0 1.519-.33 1.519-1.056 0-.661-.66-.859-1.387-1.123-.726-.264-1.783-.925-1.783-2.114 0-1.519 1.255-2.245 2.906-2.245.859 0 1.717.198 2.378.528l-.661 1.123c-.528-.198-1.123-.396-1.783-.396s-1.321.264-1.321.924c0 .595.661.859 1.189 1.057.924.396 1.981.991 1.981 2.179z" fill="#25aeec"/><path d="m911.109 332.334-3.236 7.529h-1.916l-.264-5.416h-.066l-2.047 5.416h-1.916l-.858-7.529h1.387l.66 5.812h.066l2.114-5.812h1.651l.33 5.812h.066l2.444-5.812z" fill="#25aeec"/><path d="m911.109 333.587.528-1.254h2.576l-1.321 7.528h-1.519l1.057-6.208h-1.321zm2.708-4.358c.528 0 .924.396.924.924s-.396.925-.924.925c-.529 0-.925-.397-.925-.925s.462-.924.925-.924z" fill="#25aeec"/><path d="m917.119 330.485 1.585-.264-.396 2.113h2.245l-.528 1.255h-1.981l-.727 4.094v.264c0 .529.33.727.859.727.396 0 .66-.066 1.122-.198l.132 1.254c-.594.198-1.122.264-1.651.264-1.188 0-1.981-.462-1.981-1.717 0-.198 0-.396.066-.66l.727-4.028h-1.255l.198-1.255h1.255z" fill="#25aeec"/><path d="m922.997 334.513-.925 5.35h-1.519l1.915-10.765 1.585-.264-.792 4.359h.066c.66-.595 1.387-.925 2.179-.925 1.387 0 2.048.66 2.048 1.981 0 .264 0 .595-.066.991l-.793 4.689h-1.519l.793-4.557c.066-.264.066-.462.066-.66 0-.793-.33-1.189-1.057-1.189-.726-.066-1.519.462-1.981.99z" fill="#25aeec"/><path d="m932.507 337.022c0-2.708 1.717-4.821 4.359-4.821.793 0 1.453.132 2.047.396l-.66 1.189c-.462-.198-.991-.33-1.585-.33-1.387 0-2.51 1.453-2.51 3.434 0 1.189.661 1.783 1.651 1.783.529 0 1.189-.132 1.717-.33l.331 1.188c-.661.265-1.519.463-2.312.463-1.981 0-3.038-1.189-3.038-2.972z" fill="#25aeec"/><path d="m941.621 334.513-.924 5.35h-1.519l1.915-10.765 1.585-.264-.793 4.359h.066c.661-.595 1.387-.925 2.18-.925 1.387 0 2.047.66 2.047 1.981 0 .264 0 .595-.066.991l-.792 4.689h-1.519l.792-4.557c.066-.264.066-.462.066-.66 0-.793-.33-1.189-1.056-1.189-.727-.066-1.519.462-1.982.99z" fill="#25aeec"/><path d="m947.235 333.587.528-1.254h2.576l-1.321 7.528h-1.519l1.057-6.208h-1.321zm2.774-4.358c.528 0 .925.396.925.924s-.397.925-.925.925-.925-.397-.925-.925.397-.924.925-.924z" fill="#25aeec"/><path d="m954.302 339.796c-.529.198-.859.198-1.255.198-1.057 0-1.585-.462-1.585-1.452 0-.199 0-.397.066-.661l1.519-8.783 1.585-.264-1.585 9.113v.264c0 .397.198.529.528.529.265 0 .397-.066.661-.132z" fill="#25aeec"/><path d="m959.651 332.202c.661 0 1.189.132 1.585.33l.595-3.434 1.585-.264-1.915 11.028h-.991l-.132-.792h-.066c-.661.594-1.387.924-2.378.924-1.519 0-2.443-.99-2.443-2.971 0-2.576 1.519-4.821 4.16-4.821zm.727 5.481.66-3.698c-.396-.33-.924-.528-1.585-.528-1.387 0-2.443 1.519-2.443 3.434 0 1.188.528 1.783 1.519 1.783.726.066 1.32-.331 1.849-.991z" fill="#25aeec"/><path d="m968.501 333.786c-.198-.066-.396-.132-.726-.132-.859 0-1.519.859-1.849 1.85l-.793 4.359h-1.519l1.321-7.53h1.057l.066 1.189h.066c.528-.792 1.122-1.321 2.179-1.321.33 0 .661.066.925.132z" fill="#25aeec"/><path d="m969.162 337.022c0-2.576 1.519-4.821 4.227-4.821 1.453 0 2.443.661 2.443 1.981 0 1.519-1.321 2.642-5.085 2.642 0 1.188.396 1.915 1.717 1.915.66 0 1.189-.198 1.783-.462l.462 1.122c-.792.397-1.651.595-2.575.595-1.982 0-2.972-1.189-2.972-2.972zm1.783-1.519c2.84 0 3.368-.594 3.368-1.255 0-.528-.462-.792-1.123-.792-1.056 0-1.915.924-2.245 2.047z" fill="#25aeec"/><path d="m977.946 339.862h-1.519l1.321-7.529h1.122l.132.793h.066c.727-.661 1.453-.925 2.246-.925 1.387 0 2.047.661 2.047 2.047 0 .265 0 .661-.066.991l-.792 4.689h-1.519l.792-4.557c.066-.264.066-.462.066-.66 0-.793-.33-1.123-1.056-1.123-.595 0-1.321.462-1.85 1.057z" fill="#25aeec"/><path d="m927.554 220.058c-5.878-14.2-16.908-21.861-32.296-22.455v-13.936c21.068.595 37.183 11.624 45.241 31.041zm-39.495 16.114-44.778 13.011-22.323-77.602 13.473-3.83 18.427 64.128 31.305-9.114zm7.133-69.676c12.416.132 23.512-2.311 32.626-11.227l9.775 9.972c-11.756 11.558-26.286 15.388-42.401 15.256zm2.312-29.852c7.132-1.981 14.595 2.18 16.577 9.246 1.981 7.133-2.18 14.53-9.378 16.511-7.133 1.982-14.596-2.179-16.578-9.246-1.981-7.133 2.246-14.529 9.379-16.511zm-41.146 0c7.133-1.981 14.596 2.18 16.577 9.246 1.981 7.133-2.179 14.53-9.378 16.511-7.133 1.982-14.596-2.179-16.577-9.246-1.982-7.133 2.179-14.529 9.378-16.511zm33.551 60.893c-9.775-.265-19.219-1.784-27.475-7.265.727 6.076 2.444 12.02 5.746 17.237 15.454-4.491 28.795-5.019 39.032.264 11.756 6.076 18.757 19.153 18.955 41.41h-14.002c-.198-16.313-4.292-25.361-11.359-28.993-7.529-3.897-19.087-2.576-33.088 2.047-2.642.859-5.614.132-7.529-2.113-11.228-13.341-13.341-29.984-11.624-46.759.396-6.407 8.718-8.982 12.614-3.699 8.058 10.897 15.587 13.473 28.796 13.869v14.002z" fill="#25aeec"/><path clip-rule="evenodd" d="m453.145 645.3h-206.983c-13.143 0-18.162-5.086-18.162-18.163v-206.983c0-13.142 5.085-18.162 18.162-18.162h206.983c13.142 0 18.162 5.086 18.162 18.162v206.983c.066 13.143-5.02 18.163-18.162 18.163z" fill="#fff" fill-rule="evenodd"/><path d="m256.597 567.037-2.444 7.133h-2.575l-2.378-7.133h-.066l-.793 8.982h-2.509l1.254-13.738h2.774l2.972 8.851h.066l2.972-8.851h2.774l1.255 13.738h-2.51z" fill="#25aeec"/><path d="m269.476 573.445.858 1.915c-.991.462-2.179.859-3.434.859-2.972 0-4.953-1.916-4.953-5.218s1.783-5.218 4.623-5.218c2.641 0 4.226 1.651 4.226 4.425 0 .265-.066.991-.132 1.519h-6.274c.264 1.52 1.321 2.378 2.642 2.378.792 0 1.783-.33 2.444-.66zm-.991-3.567c0-1.123-.727-1.981-1.981-1.981-1.057 0-1.916.66-2.114 1.981z" fill="#25aeec"/><path d="m280.307 575.624c-.859.397-1.849.595-2.84.595-3.236 0-5.019-2.312-5.019-5.218s1.651-5.218 4.887-5.218c.924 0 1.981.198 2.84.529l-.793 1.915c-.594-.264-1.321-.396-1.915-.396-1.453 0-2.51 1.255-2.51 3.104s1.057 3.104 2.51 3.104c.66 0 1.453-.132 2.047-.396z" fill="#25aeec"/><path d="m281.099 565.98h8.652l-.396 2.114h-2.774v7.925h-2.444v-7.925h-3.104v-2.114z" fill="#25aeec"/><path d="m296.223 569.415c0-.99-.462-1.519-1.717-1.519-.858 0-1.717.198-2.641.529l-.727-1.981c1.189-.463 2.378-.661 3.633-.661 3.038 0 3.896 1.585 3.896 3.698v3.83c0 .462.264.726.727.726h.198v1.915c-.264.132-.925.198-1.387.198-.859 0-1.453-.33-1.783-.99h-.066c-.727.726-1.519.99-2.642.99-1.915 0-3.104-.924-3.104-2.971 0-1.915 1.519-2.972 3.764-2.972h1.849zm0 3.698v-1.123h-1.783c-.924 0-1.387.463-1.387 1.123s.463.99 1.057.99c.793 0 1.585-.396 2.113-.99z" fill="#25aeec"/><path d="m306.46 573.906c.991-1.717 1.255-3.435 1.255-6.803v-1.123h6.869v7.926h1.585l-.396 4.623h-2.048v-2.51h-6.208v2.51h-2.047l-.397-4.623zm3.633-5.812c0 2.245-.198 4.293-.991 5.812h3.104v-5.812z" fill="#25aeec"/><path d="m321.783 568.226c0 5.217-1.189 7.859-3.435 7.859-.528 0-.99-.132-1.387-.33l.595-1.915c.132.066.264.132.462.132.793 0 1.387-1.321 1.387-6.67v-1.255h7.001v10.038h-2.444v-7.925h-2.246v.066z" fill="#25aeec"/><path d="m330.963 572.122c-1.189-.462-1.85-1.519-1.85-2.972 0-1.915 1.321-3.17 3.501-3.17h4.161v10.039h-2.444v-3.567h-.991l-2.179 3.567h-2.708zm1.783-1.783h1.519v-2.245h-1.519c-.727 0-1.189.462-1.189 1.122 0 .661.462 1.123 1.189 1.123z" fill="#25aeec"/><path d="m247.945 587.378c.793-.858 1.783-1.452 3.038-1.452 2.444 0 4.227 1.651 4.227 4.953 0 3.236-2.047 4.953-4.821 4.953-3.236 0-4.689-2.444-4.689-6.406 0-6.142 1.783-7.463 5.019-7.793 1.453-.132 2.245-.33 3.302-.727l.793 1.916c-1.123.594-2.51.858-3.831.99-2.113.132-3.104 1.057-3.038 3.566zm.198 2.048c0 2.84.793 4.293 2.246 4.293 1.321 0 2.377-.925 2.377-2.84s-.924-2.84-2.113-2.84c-.859 0-1.849.396-2.51 1.387z" fill="#25aeec"/><path d="m264.72 593.058.859 1.915c-.991.463-2.179.859-3.434.859-2.972 0-4.954-1.915-4.954-5.218 0-3.302 1.784-5.218 4.624-5.218 2.641 0 4.226 1.652 4.226 4.426 0 .264-.066.99-.132 1.519h-6.34c.264 1.519 1.321 2.377 2.642 2.377.792 0 1.783-.264 2.509-.66zm-.99-3.567c0-1.122-.727-1.981-1.982-1.981-1.056 0-1.915.66-2.113 1.981z" fill="#25aeec"/><path d="m270.598 586.521c.661-.66 1.519-1.056 2.576-1.056 2.84 0 4.095 2.179 4.095 5.217 0 3.037-1.321 5.216-4.293 5.216-.859 0-1.651-.132-2.312-.33v4.094l-2.443.397v-14.33h1.849l.396.858h.132zm4.227 4.095c0-1.849-.726-3.104-2.245-3.104-.661 0-1.321.396-1.916.99v4.689c.529.33 1.255.528 1.982.528 1.387 0 2.179-1.122 2.179-3.103z" fill="#25aeec"/><path d="m286.647 593.058.859 1.915c-.991.463-2.18.859-3.435.859-2.972 0-4.953-1.915-4.953-5.218 0-3.302 1.783-5.218 4.623-5.218 2.642 0 4.227 1.652 4.227 4.426 0 .264-.066.99-.132 1.519h-6.274c.264 1.519 1.32 2.377 2.641 2.377.793 0 1.784-.264 2.444-.66zm-.925-3.567c0-1.122-.726-1.981-1.981-1.981-1.057 0-1.915.66-2.113 1.981z" fill="#25aeec"/><path d="m298.403 589.69h-.066l-1.717 4.293h-2.114l-1.783-4.293h-.132l-.462 5.944h-2.444l.991-10.038h2.575l2.246 5.349h.066l2.246-5.349h2.575l.991 10.038h-2.444z" fill="#25aeec"/><path d="m310.621 593.058.859 1.915c-.991.463-2.18.859-3.435.859-2.972 0-4.953-1.915-4.953-5.218 0-3.302 1.783-5.218 4.623-5.218 2.642 0 4.227 1.652 4.227 4.426 0 .264-.066.99-.132 1.519h-6.274c.264 1.519 1.32 2.377 2.641 2.377.793 0 1.783-.264 2.444-.66zm-.925-3.567c0-1.122-.726-1.981-1.981-1.981-1.057 0-1.915.66-2.113 1.981z" fill="#25aeec"/><path d="m322.443 595.634h-2.444v-4.095h-3.368v4.095h-2.443v-10.038h2.443v3.83h3.368v-3.83h2.444z" fill="#25aeec"/><path d="m333.67 595.634h-2.443v-4.095h-3.368v4.095h-2.444v-10.038h2.444v3.83h3.368v-3.83h2.443z" fill="#25aeec"/><path d="m340.539 589.228c2.18 0 3.567 1.189 3.567 3.236s-1.387 3.17-3.567 3.17h-3.896v-10.038h2.443v3.566h1.453zm-1.519 1.981v2.312h1.321c.793 0 1.321-.463 1.321-1.189 0-.727-.462-1.189-1.321-1.189h-1.321zm8.652 4.425h-2.444v-10.038h2.444z" fill="#25aeec"/><path d="m354.276 592.266-2.113 3.368h-2.642l3.368-5.151-3.17-4.887h2.642l1.849 3.17h.066l1.85-3.17h2.707l-3.17 4.887 3.368 5.151-2.509.199z" fill="#25aeec"/><path d="m248.077 610.032-.66 3.632h-1.585l1.783-10.303h3.236c1.849 0 2.906.991 2.906 2.84 0 2.246-1.717 3.831-4.095 3.831zm.925-5.284-.661 3.831h1.651c1.255 0 2.18-.991 2.18-2.444 0-.924-.528-1.453-1.453-1.453h-1.717z" fill="#25aeec"/><path d="m258.909 607.589c-.198-.066-.397-.132-.727-.132-.858 0-1.519.858-1.849 1.849l-.793 4.359h-1.519l1.321-7.529h1.057l.066 1.189h.066c.528-.793 1.123-1.321 2.18-1.321.33 0 .66.066.924.132z" fill="#25aeec"/><path d="m259.569 607.39.528-1.255h2.576l-1.321 7.529h-1.519l1.057-6.208h-1.321zm2.708-4.359c.528 0 .924.397.924.925s-.396.924-.924.924c-.529 0-.925-.396-.925-.924s.462-.925.925-.925z" fill="#25aeec"/><path d="m267.89 606.004c1.916 0 2.84 1.188 2.84 2.971 0 2.575-1.585 4.82-4.227 4.82-1.849 0-2.839-.99-2.839-2.971 0-2.575 1.585-4.82 4.226-4.82zm-1.122 6.47c1.387 0 2.443-1.518 2.443-3.433 0-1.188-.528-1.783-1.519-1.783-1.387 0-2.443 1.519-2.443 3.434 0 1.188.528 1.782 1.519 1.782z" fill="#25aeec"/><path d="m276.542 607.589c-.198-.066-.396-.132-.726-.132-.859 0-1.519.858-1.85 1.849l-.792 4.359h-1.519l1.321-7.529h1.123l.066 1.189h.066c.528-.793 1.122-1.321 2.179-1.321.33 0 .661.066.925.132z" fill="#25aeec"/><path d="m277.269 607.39.528-1.255h2.576l-1.321 7.529h-1.519l1.123-6.208h-1.387zm2.708-4.359c.528 0 .924.397.924.925s-.396.924-.924.924c-.529 0-.925-.396-.925-.924s.396-.925.925-.925z" fill="#25aeec"/><path d="m283.279 604.286 1.585-.265-.396 2.114h2.245l-.528 1.254h-1.982l-.726 4.095v.264c0 .528.33.726.859.726.396 0 .66-.066 1.122-.198l.132 1.255c-.594.198-1.122.264-1.651.264-1.189 0-1.981-.462-1.981-1.717 0-.198 0-.396.066-.66l.726-4.029h-1.254l.198-1.254h1.255z" fill="#25aeec"/><path d="m286.449 615.381c.198.132.462.198.792.198.331 0 .727-.198 1.057-.858l.528-1.123h-.528l-1.321-7.53h1.519l.991 5.945h.066l2.906-5.945h1.651l-4.491 8.983c-.726 1.453-1.651 1.783-2.444 1.783-.528 0-.924-.132-1.254-.264z" fill="#25aeec"/><path d="m302.894 611.287c0 1.519-1.387 2.444-3.236 2.444-.925 0-1.783-.199-2.378-.529l.727-1.189c.528.265 1.123.397 1.849.397.66 0 1.519-.331 1.519-1.057 0-.661-.66-.859-1.387-1.123-.726-.264-1.783-.924-1.783-2.113 0-1.519 1.255-2.246 2.906-2.246.858 0 1.717.198 2.377.528l-.66 1.123c-.528-.198-1.123-.396-1.783-.396-.661 0-1.321.264-1.321.925 0 .594.66.858 1.189 1.056.924.463 1.981 1.057 1.981 2.18z" fill="#25aeec"/><path d="m304.347 610.824c0-2.575 1.519-4.82 4.227-4.82 1.453 0 2.443.66 2.443 1.981 0 1.518-1.321 2.641-5.085 2.641 0 1.188.396 1.914 1.717 1.914.66 0 1.189-.198 1.783-.462l.463 1.123c-.793.396-1.652.594-2.576.594-2.048 0-2.972-1.189-2.972-2.971zm1.717-1.519c2.84 0 3.368-.594 3.368-1.254 0-.529-.462-.793-1.056-.793-1.057 0-1.982.859-2.312 2.047z" fill="#25aeec"/><path d="m318.877 606.532-1.255 7.066h-.991l-.132-.793h-.132c-.595.595-1.321.925-2.246.925-1.651 0-2.311-1.189-2.311-2.972 0-2.575 1.585-4.82 4.227-4.82 1.122.066 1.981.264 2.84.594zm-5.482 4.16c0 1.123.396 1.783 1.255 1.783.726 0 1.321-.396 1.849-1.056l.66-3.897c-.396-.132-.792-.264-1.387-.264-1.386 0-2.377 1.519-2.377 3.434z" fill="#25aeec"/><path d="m321.716 604.286 1.585-.265-.396 2.114h2.246l-.529 1.254h-1.981l-.726 4.095v.264c0 .528.33.726.858.726.396 0 .661-.066 1.123-.198l.132 1.255c-.594.198-1.123.264-1.651.264-1.189 0-1.981-.462-1.981-1.717 0-.198 0-.396.066-.66l.726-4.029h-1.255l.198-1.254h1.255z" fill="#25aeec"/><path d="m330.368 611.287c0 1.519-1.387 2.444-3.236 2.444-.925 0-1.783-.199-2.377-.529l.726-1.189c.528.265 1.123.397 1.849.397.661 0 1.519-.331 1.519-1.057 0-.661-.66-.859-1.387-1.123-.726-.264-1.783-.924-1.783-2.113 0-1.519 1.255-2.246 2.906-2.246.859 0 1.717.198 2.378.528l-.661 1.123c-.528-.198-1.122-.396-1.783-.396-.66 0-1.321.264-1.321.925 0 .594.661.858 1.189 1.056.925.463 1.981 1.057 1.981 2.18z" fill="#25aeec"/><path d="m340.737 606.135-.528 1.255h-1.519l-1.255 7.133c-.33 1.718-1.321 2.312-2.576 2.312-.594 0-1.188-.198-1.651-.462l.595-1.123c.396.198.66.33 1.122.33.529 0 .859-.264.991-1.057l1.255-7.133h-1.255l.198-1.255h1.255l.198-.991c.33-1.783 1.387-2.576 2.84-2.576.727 0 1.189.132 1.717.397l-.726 1.122c-.264-.132-.595-.264-1.057-.264-.66 0-1.123.397-1.255 1.255l-.198.991h1.849z" fill="#25aeec"/><path d="m344.766 606.004c1.915 0 2.84 1.188 2.84 2.971 0 2.575-1.585 4.82-4.227 4.82-1.849 0-2.84-.99-2.84-2.971 0-2.575 1.585-4.82 4.227-4.82zm-1.123 6.47c1.387 0 2.444-1.518 2.444-3.433 0-1.188-.529-1.783-1.519-1.783-1.387 0-2.444 1.519-2.444 3.434 0 1.188.528 1.782 1.519 1.782z" fill="#25aeec"/><path d="m353.484 607.589c-.198-.066-.397-.132-.727-.132-.858 0-1.519.858-1.849 1.849l-.793 4.359h-1.519l1.321-7.529h1.123l.066 1.189h.066c.529-.793 1.123-1.321 2.18-1.321.33 0 .66.066.924.132z" fill="#25aeec"/><path d="m253.163 624.099c0 2.641-1.585 4.821-4.227 4.821-.595 0-1.057-.132-1.585-.396l-.529 3.17-1.585.264 1.916-10.765h1.056l.132.792h.066c.529-.528 1.123-.924 2.114-.924 1.717.132 2.642 1.122 2.642 3.038zm-1.585.132c0-1.189-.529-1.784-1.519-1.784-.595 0-1.255.397-1.784.925l-.66 3.765c.396.33.925.528 1.585.528 1.453 0 2.378-1.519 2.378-3.434z" fill="#25aeec"/><path d="m258.975 622.779c-.199-.066-.397-.132-.727-.132-.859 0-1.519.858-1.849 1.849l-.793 4.359h-1.519l1.321-7.53h1.057l.066 1.189h.066c.528-.792 1.123-1.321 2.179-1.321.331 0 .661.066.925.132z" fill="#25aeec"/><path d="m259.635 626.014c0-2.575 1.519-4.821 4.227-4.821 1.453 0 2.444.661 2.444 1.981 0 1.519-1.321 2.642-5.086 2.642 0 1.189.396 1.915 1.717 1.915.661 0 1.189-.198 1.783-.462l.463 1.122c-.793.397-1.651.595-2.576.595-1.981 0-2.972-1.189-2.972-2.972zm1.783-1.519c2.84 0 3.368-.594 3.368-1.254 0-.529-.462-.793-1.122-.793-1.057 0-1.916.859-2.246 2.047z" fill="#25aeec"/><path d="m271.589 629.053.198-.924h-.066c-.66.594-1.321.858-2.113.858-1.651 0-2.444-.99-2.444-2.972 0-2.576 1.651-4.822 4.293-4.822 1.057 0 1.981.199 2.972.595l-1.321 7.398c-.33 1.981-1.717 2.906-3.831 2.906-.99 0-1.783-.198-2.575-.595l.66-1.255c.594.331 1.255.595 2.047.595 1.189-.066 1.982-.529 2.18-1.784zm-2.906-3.17c0 1.189.462 1.783 1.453 1.783.594 0 1.321-.396 1.915-1.056l.661-3.964c-.463-.198-.925-.264-1.519-.264-1.387.066-2.51 1.586-2.51 3.501z" fill="#25aeec"/><path d="m276.674 628.854h-1.519l1.321-7.529h1.123l.132.793h.066c.727-.66 1.453-.925 2.246-.925 1.386 0 2.047.661 2.047 2.048 0 .264 0 .66-.066.99l-.793 4.689h-1.519l.793-4.557c.066-.264.066-.462.066-.66 0-.793-.33-1.123-1.057-1.123-.594 0-1.321.462-1.849 1.057z" fill="#25aeec"/><path d="m290.279 621.723-1.254 7.065h-.991l-.132-.792h-.066c-.595.594-1.321.924-2.246.924-1.651 0-2.311-1.189-2.311-2.971 0-2.575 1.585-4.82 4.227-4.82 1.056.066 1.981.264 2.773.594zm-5.415 4.16c0 1.122.396 1.782 1.255 1.782.726 0 1.321-.396 1.849-1.056l.66-3.895c-.396-.133-.792-.265-1.387-.265-1.386 0-2.377 1.519-2.377 3.434z" fill="#25aeec"/><path d="m292.591 628.854h-1.519l1.321-7.529h1.057l.132.793h.066c.726-.66 1.453-.925 2.245-.925 1.387 0 2.048.661 2.048 2.048 0 .264 0 .66-.066.99l-.793 4.689h-1.519l.793-4.557c.066-.264.066-.462.066-.66 0-.793-.331-1.123-1.057-1.123-.594 0-1.321.462-1.849 1.057z" fill="#25aeec"/><path d="m301.045 619.477 1.585-.264-.397 2.113h2.246l-.528 1.255h-1.982l-.726 4.094v.264c0 .529.33.727.858.727.397 0 .661-.066 1.123-.198l.132 1.255c-.594.198-1.123.264-1.651.264-1.189 0-1.981-.463-1.981-1.717 0-.198 0-.397.066-.661l.726-4.028h-1.321l.199-1.255h1.254z" fill="#25aeec"/><path d="m318.943 621.324-3.236 7.53h-1.916l-.264-5.416h-.066l-2.047 5.416h-1.916l-.858-7.53h1.387l.66 5.812h.066l2.114-5.812h1.651l.33 5.812h.066l2.444-5.812z" fill="#25aeec"/><path d="m323.103 621.193c1.916 0 2.84 1.189 2.84 2.972 0 2.576-1.585 4.821-4.227 4.821-1.849 0-2.839-.991-2.839-2.972 0-2.575 1.585-4.821 4.226-4.821zm-1.188 6.472c1.387 0 2.443-1.519 2.443-3.434 0-1.189-.528-1.783-1.519-1.783-1.387 0-2.443 1.519-2.443 3.434.066 1.189.594 1.783 1.519 1.783z" fill="#25aeec"/><path d="m337.699 623.176c0 .264 0 .595-.066.925l-.793 4.689h-1.519l.793-4.623c.066-.264.066-.462.066-.661 0-.792-.33-1.122-1.057-1.122-.462 0-1.056.33-1.519.726l-.99 5.614h-1.519l.792-4.623c.066-.264.066-.462.066-.661 0-.726-.33-1.056-.924-1.056-.529 0-1.189.462-1.652 1.056l-.924 5.35h-1.519l1.321-7.529h1.122l.133.792h.066c.726-.66 1.321-.924 2.113-.924.925 0 1.519.264 1.717.924.727-.594 1.519-.924 2.312-.924 1.321.066 1.981.726 1.981 2.047z" fill="#25aeec"/><path d="m338.888 626.014c0-2.575 1.519-4.821 4.227-4.821 1.453 0 2.444.661 2.444 1.981 0 1.519-1.321 2.642-5.086 2.642 0 1.189.396 1.915 1.717 1.915.661 0 1.189-.198 1.783-.462l.463 1.122c-.793.397-1.651.595-2.576.595-1.981 0-2.972-1.189-2.972-2.972zm1.783-1.519c2.84 0 3.369-.594 3.369-1.254 0-.529-.463-.793-1.123-.793-1.057 0-1.916.859-2.246 2.047z" fill="#25aeec"/><path d="m347.672 628.854h-1.519l1.321-7.529h1.123l.132.793h.066c.726-.66 1.453-.925 2.245-.925 1.387 0 2.048.661 2.048 2.048 0 .264 0 .66-.066.99l-.793 4.689h-1.519l.793-4.557c.066-.264.066-.462.066-.66 0-.793-.331-1.123-1.057-1.123-.595 0-1.321.462-1.849 1.057z" fill="#25aeec"/><path d="m284.864 463.147c-.066 2.84-.726 4.887-.264 8.256 13.341-2.84 27.21.858 31.767 21.464 25.229 1.519 33.352 22.389 33.617 45.307h-14.134c-.33-32.296-16.379-36.721-44.183-27.012-2.444.924-5.35.396-7.331-1.585-12.086-11.955-16.049-31.24-13.275-47.619 1.321-8.057 14.001-6.67 13.803 1.189zm26.946 62.016-44.778 13.011-22.323-77.603 13.473-3.83 18.427 64.129 31.305-9.114zm-31.767-97.152c7.133-1.981 14.596 2.18 16.577 9.247 1.981 7.133-2.179 14.53-9.378 16.511-7.133 1.981-14.596-2.18-16.577-9.246-1.982-7.133 2.245-14.53 9.378-16.512z" fill="#25aeec"/><path clip-rule="evenodd" d="m1031.84 645.655h-206.99c-13.073 0-18.157-5.084-18.157-18.157v-206.993c0-13.073 5.084-18.157 18.157-18.157h206.99c13.14 0 18.16 5.084 18.16 18.157v206.993c0 13.073-5.08 18.157-18.16 18.157z" fill="#fff" fill-rule="evenodd"/><path d="m835.282 567.414-2.443 7.13h-2.575l-2.311-7.13h-.066l-.792 8.979h-2.575l1.254-13.733h2.839l2.971 8.847h.066l2.972-8.847h2.773l1.254 13.733h-2.509z" fill="#25aeec"/><path d="m848.157 573.817.859 1.915c-.991.462-2.179.858-3.434.858-2.971 0-4.952-1.915-4.952-5.216s1.783-5.216 4.622-5.216c2.641 0 4.226 1.651 4.226 4.424 0 .264-.066.99-.132 1.518h-6.273c.264 1.519 1.321 2.377 2.641 2.377.793 0 1.783-.33 2.443-.66zm-.924-3.565c0-1.123-.726-1.981-1.981-1.981-1.056 0-1.915.66-2.113 1.981z" fill="#25aeec"/><path d="m859.051 575.996c-.858.396-1.848.594-2.839.594-3.235 0-5.018-2.311-5.018-5.216s1.651-5.216 4.886-5.216c.925 0 1.981.198 2.839.528l-.792 1.915c-.594-.264-1.321-.396-1.915-.396-1.452 0-2.509 1.254-2.509 3.103s1.057 3.103 2.509 3.103c.661 0 1.453-.132 2.047-.396z" fill="#25aeec"/><path d="m859.844 566.355h8.649l-.396 2.114h-2.773v7.924h-2.443v-7.924h-3.103v-2.114z" fill="#25aeec"/><path d="m869.286 571.374c0-3.235 1.914-5.216 4.688-5.216 2.773 0 4.687 1.915 4.687 5.216 0 3.235-1.914 5.216-4.687 5.216-2.774 0-4.688-1.981-4.688-5.216zm2.443 0c0 1.915.924 3.103 2.245 3.103 1.32 0 2.244-1.188 2.244-3.103s-.924-3.103-2.244-3.103c-1.321 0-2.245 1.122-2.245 3.103z" fill="#25aeec"/><path d="m886.056 574.279c.991-1.717 1.255-3.434 1.255-6.801v-1.123h6.866v7.924h1.585l-.396 4.621h-2.047v-2.509h-6.206v2.509h-2.047l-.396-4.621zm3.566-5.811c0 2.245-.198 4.292-.991 5.811h3.104v-5.811z" fill="#25aeec"/><path d="m901.308 568.535c0 5.216-1.188 7.858-3.433 7.858-.528 0-.99-.132-1.387-.331l.595-1.915c.132.066.264.132.462.132.792 0 1.386-1.32 1.386-6.669v-1.255h6.999v10.038h-2.443v-7.924h-2.245v.066z" fill="#25aeec"/><path d="m910.486 572.497c-1.188-.463-1.849-1.519-1.849-2.972 0-1.915 1.321-3.17 3.5-3.17h4.16v10.038h-2.443v-3.566h-.991l-2.179 3.566h-2.707zm1.783-1.783h1.519v-2.245h-1.519c-.726 0-1.189.462-1.189 1.122s.463 1.123 1.189 1.123z" fill="#25aeec"/><path d="m927.587 572.232h-.859v4.093h-2.442v-10.034h2.442v3.829h.859l2.311-3.829h2.443l-2.905 4.819 3.103 5.149-2.509.198z" fill="#25aeec"/><path d="m933.397 571.374c0-3.235 1.915-5.216 4.688-5.216s4.688 1.915 4.688 5.216c0 3.235-1.915 5.216-4.688 5.216-2.773-.066-4.688-1.981-4.688-5.216zm2.443 0c0 1.915.925 3.103 2.245 3.103 1.321 0 2.245-1.188 2.245-3.103s-.924-3.103-2.245-3.103c-1.32 0-2.245 1.122-2.245 3.103z" fill="#25aeec"/><path d="m948.451 568.535c0 5.216-1.188 7.858-3.433 7.858-.528 0-.99-.132-1.387-.331l.595-1.915c.132.066.264.132.462.132.792 0 1.386-1.32 1.386-6.669v-1.255h6.999v10.038h-2.443v-7.924h-2.245v.066z" fill="#25aeec"/><path d="m957.629 572.497c-1.188-.463-1.849-1.519-1.849-2.972 0-1.915 1.321-3.17 3.5-3.17h4.159v10.038h-2.443v-3.566h-.99l-2.179 3.566h-2.707zm1.783-1.783h1.518v-2.245h-1.518c-.727 0-1.189.462-1.189 1.122s.462 1.123 1.189 1.123z" fill="#25aeec"/><path d="m973.607 575.996c-.858.396-1.848.594-2.839.594-3.235 0-5.018-2.311-5.018-5.216s1.651-5.216 4.886-5.216c.924 0 1.981.198 2.839.528l-.792 1.915c-.594-.264-1.321-.396-1.915-.396-1.452 0-2.509 1.254-2.509 3.103s1.057 3.103 2.509 3.103c.66 0 1.453-.132 2.047-.396z" fill="#25aeec"/><path d="m978.823 572.232h-.858v4.093h-2.443v-10.034h2.443v3.829h.858l2.311-3.829h2.443l-2.905 4.819 3.103 5.149-2.509.198z" fill="#25aeec"/><path d="m991.765 570.384-4.094 6.009h-2.245v-10.038h2.443v6.01h.066l4.028-6.01h2.245v10.038h-2.443z" fill="#25aeec"/><path d="m826.831 590.72-.661 3.632h-1.584l1.782-10.301h3.236c1.848 0 2.905.99 2.905 2.839 0 2.245-1.717 3.83-4.094 3.83zm.924-5.283-.66 3.83h1.65c1.255 0 2.179-.99 2.179-2.443 0-.924-.528-1.453-1.452-1.453h-1.717z" fill="#25aeec"/><path d="m835.81 594.285c-.528.198-.858.198-1.254.198-1.057 0-1.585-.462-1.585-1.453 0-.198 0-.396.066-.66l1.519-8.782 1.584-.264-1.584 9.112v.264c0 .396.198.528.528.528.264 0 .396-.066.66-.132z" fill="#25aeec"/><path d="m844.063 587.286-1.254 7.065h-.99l-.133-.792h-.066c-.594.594-1.32.924-2.244.924-1.651 0-2.311-1.189-2.311-2.971 0-2.576 1.584-4.821 4.225-4.821 1.057 0 1.915.265 2.773.595zm-5.48 4.16c0 1.122.396 1.782 1.255 1.782.726 0 1.32-.396 1.848-1.056l.661-3.896c-.396-.132-.793-.264-1.387-.264-1.386 0-2.377 1.453-2.377 3.434z" fill="#25aeec"/><path d="m845.054 591.512c0-2.708 1.717-4.821 4.358-4.821.792 0 1.452.132 2.046.397l-.66 1.188c-.462-.198-.99-.33-1.584-.33-1.387 0-2.51 1.453-2.51 3.434 0 1.188.661 1.782 1.651 1.782.528 0 1.189-.132 1.717-.33l.33 1.189c-.66.264-1.519.462-2.311.462-1.981 0-3.037-1.122-3.037-2.971z" fill="#25aeec"/><path d="m851.59 591.512c0-2.576 1.519-4.821 4.226-4.821 1.453 0 2.443.661 2.443 1.981 0 1.519-1.32 2.642-5.084 2.642 0 1.188.396 1.914 1.717 1.914.66 0 1.188-.198 1.782-.462l.463 1.123c-.793.396-1.651.594-2.575.594-1.981 0-2.972-1.122-2.972-2.971zm1.783-1.519c2.839 0 3.368-.594 3.368-1.255 0-.528-.463-.792-1.057-.792-1.122.066-1.981.924-2.311 2.047z" fill="#25aeec"/><path d="m868.031 586.823-.528 1.255h-1.519l-1.254 7.13c-.33 1.717-1.321 2.311-2.575 2.311-.594 0-1.255-.198-1.651-.462l.594-1.122c.396.198.661.33 1.123.33.528 0 .858-.264.99-1.057l1.255-7.13h-1.255l.198-1.255h1.255l.198-.99c.33-1.783 1.386-2.575 2.839-2.575.726 0 1.188.132 1.717.396l-.727 1.122c-.264-.132-.594-.264-1.056-.264-.66 0-1.123.396-1.255 1.255l-.198.99h1.849z" fill="#25aeec"/><path d="m872.059 586.691c1.914 0 2.839 1.189 2.839 2.972 0 2.575-1.585 4.82-4.226 4.82-1.849 0-2.839-.99-2.839-2.971 0-2.576 1.585-4.821 4.226-4.821zm-1.189 6.537c1.387 0 2.443-1.518 2.443-3.433 0-1.189-.528-1.783-1.519-1.783-1.386 0-2.443 1.519-2.443 3.434.067 1.188.595 1.782 1.519 1.782z" fill="#25aeec"/><path d="m880.708 588.276c-.198-.066-.396-.132-.726-.132-.859 0-1.519.859-1.849 1.849l-.792 4.359h-1.519l1.321-7.529h1.056l.066 1.189h.066c.528-.792 1.123-1.321 2.179-1.321.33 0 .66.066.924.132z" fill="#25aeec"/><path d="m890.282 592.039c0 1.519-1.387 2.443-3.235 2.443-.925 0-1.783-.198-2.377-.528l.726-1.188c.528.264 1.122.396 1.849.396.66 0 1.518-.33 1.518-1.057 0-.66-.66-.858-1.386-1.122-.727-.264-1.783-.925-1.783-2.113 0-1.519 1.255-2.245 2.905-2.245.859 0 1.717.198 2.377.528l-.66 1.123c-.528-.198-1.123-.396-1.783-.396s-1.32.264-1.32.924c0 .594.66.858 1.188 1.056.925.463 1.981.991 1.981 2.179z" fill="#25aeec"/><path d="m893.583 584.975 1.585-.264-.396 2.113h2.245l-.529 1.255h-1.98l-.727 4.094v.264c0 .529.33.727.859.727.396 0 .66-.066 1.122-.198l.132 1.254c-.594.198-1.122.264-1.65.264-1.189 0-1.981-.462-1.981-1.717 0-.198 0-.396.066-.66l.726-4.028h-1.254l.198-1.255h1.254z" fill="#25aeec"/><path d="m901.837 588.276c-.198-.066-.397-.132-.727-.132-.858 0-1.518.859-1.848 1.849l-.793 4.359h-1.518l1.32-7.529h1.123l.066 1.189h.066c.528-.792 1.122-1.321 2.179-1.321.33 0 .66.066.924.132z" fill="#25aeec"/><path d="m906.722 586.691c1.915 0 2.84 1.189 2.84 2.972 0 2.575-1.585 4.82-4.226 4.82-1.849 0-2.839-.99-2.839-2.971.066-2.576 1.584-4.821 4.225-4.821zm-1.122 6.537c1.386 0 2.443-1.518 2.443-3.433 0-1.189-.528-1.783-1.519-1.783-1.386 0-2.443 1.519-2.443 3.434 0 1.188.529 1.782 1.519 1.782z" fill="#25aeec"/><path d="m913.655 594.285c-.528.198-.858.198-1.254.198-1.057 0-1.585-.462-1.585-1.453 0-.198 0-.396.066-.66l1.519-8.782 1.584-.264-1.584 9.112v.264c0 .396.198.528.528.528.264 0 .396-.066.66-.132z" fill="#25aeec"/><path d="m917.749 594.285c-.528.198-.858.198-1.255.198-1.056 0-1.584-.462-1.584-1.453 0-.198 0-.396.066-.66l1.518-8.782 1.585-.264-1.585 9.112v.264c0 .396.199.528.529.528.264 0 .396-.066.66-.132z" fill="#25aeec"/><path d="m918.938 591.512c0-2.576 1.518-4.821 4.225-4.821 1.453 0 2.443.661 2.443 1.981 0 1.519-1.32 2.642-5.084 2.642 0 1.188.396 1.914 1.717 1.914.66 0 1.188-.198 1.783-.462l.462 1.123c-.793.396-1.651.594-2.575.594-2.047 0-2.971-1.122-2.971-2.971zm1.716-1.519c2.839 0 3.368-.594 3.368-1.255 0-.528-.463-.792-1.123-.792-1.056.066-1.915.924-2.245 2.047z" fill="#25aeec"/><path d="m931.02 588.276c-.198-.066-.396-.132-.726-.132-.858 0-1.519.859-1.849 1.849l-.792 4.359h-1.453l1.321-7.529h1.122l.066 1.189h.066c.528-.792 1.123-1.321 2.179-1.321.33 0 .66.066.925.132z" fill="#25aeec"/><path d="m936.765 592.039c0 1.519-1.387 2.443-3.236 2.443-.924 0-1.782-.198-2.377-.528l.727-1.188c.528.264 1.122.396 1.848.396.661 0 1.519-.33 1.519-1.057 0-.66-.66-.858-1.387-1.122-.726-.264-1.782-.925-1.782-2.113 0-1.519 1.254-2.245 2.905-2.245.858 0 1.716.198 2.377.528l-.661 1.123c-.528-.198-1.122-.396-1.782-.396s-1.321.264-1.321.924c0 .594.661.858 1.189 1.056.924.463 1.981.991 1.981 2.179z" fill="#25aeec"/><path d="m873.181 491.945c-12.017-3.434-19.676-11.687-23.241-24.43-17.959 21.723-12.017 53.679-4.754 78.439h-13.8c-9.772-34.994-13.337-72.562 18.818-97.652 3.763-3.301 11.026-.462 11.29 6.14 1.651 17.959 7.329 23.902 25.421 27.335-.529 7.593 1.782 14.393 7.196 19.873 4.556 4.556 10.829 7.329 17.762 7.329 13.865 0 25.156-11.224 25.156-25.155 0-13.866-11.225-25.156-25.156-25.156-4.886 0-9.508 1.32-13.602 3.961l-7.395-11.422c6.207-4.027 13.602-6.206 20.997-6.206 21.458 0 38.889 17.43 38.889 38.889 0 21.458-17.431 38.889-38.889 38.889-10.763 0-20.469-4.358-27.533-11.423-5.018-5.018-9.442-12.214-11.159-19.411zm-4.886-72.892c7.395 0 13.403 5.942 13.403 13.337s-6.008 13.337-13.403 13.337-13.403-5.942-13.403-13.337 6.008-13.337 13.403-13.337zm-26.939 85.899 10.565-8.848c12.941 15.516 19.081 29.778 21.128 49.85h-13.866c-1.914-16.705-6.998-28.061-17.827-41.002zm91.183 22.712c5.084 0 9.178 4.094 9.178 9.178s-4.094 9.178-9.178 9.178-9.178-4.094-9.178-9.178 4.094-9.178 9.178-9.178zm-41.333 0c5.084 0 9.178 4.094 9.178 9.178s-4.094 9.178-9.178 9.178-9.177-4.094-9.177-9.178 4.093-9.178 9.177-9.178z" fill="#25aeec"/></svg>