<svg viewBox="0 0 811.06 911.63" xmlns="http://www.w3.org/2000/svg"><g fill="#fff"><path d="m405.58 0c-117.9 0-218.1 61-271.58 154.1h422.5v68.1h-451.5a327.65 327.65 0 0 0 -12.8 91.1c0 176.5 136.9 313.4 313.4 313.4s313.3-136.9 313.3-313.4-136.82-313.3-313.32-313.3zm150.9 347.4h-230.7s-.1 7.3 0 16.2c.7 33.5 10.7 40.8 43.6 40.8h187.1v68.2h-185.8c-85.3 0-122.1-28.2-122.1-115.4v-78h307.9z"/><path d="m162 695.21v70.07h-15.51v-70.07h-24.36v-13.92h64.19l-2.4 13.92z"/><path d="m198.07 709.37a22.69 22.69 0 0 1 15.84-6.48c17.27 0 25.07 13.32 25.07 31.8s-7.91 31.79-26.16 31.79a45.32 45.32 0 0 1 -14-2.16v25l-14.88 2.4v-87.63h11.28l2.4 5.28zm25.8 25.32c0-11.16-4.57-19-13.57-19-4.07 0-8.15 2.28-11.51 6v28.71a23.28 23.28 0 0 0 12 3.24c8.04 0 13.08-6.96 13.08-18.95z"/><path d="m283.48 725.21c0-5.88-3-9.48-10.32-9.48a48.56 48.56 0 0 0 -16.31 3.27l-4.44-12a61.06 61.06 0 0 1 22.19-4.08c18.72 0 23.76 9.84 23.76 22.55v23.28c0 3 1.68 4.32 4.32 4.32h1.32v11.64a28 28 0 0 1 -8.52 1.2c-5.4 0-8.88-2-10.8-5.88h-.48c-4.32 4.32-9.12 5.88-16.08 5.88-11.64 0-19-5.76-19-18.24 0-11.76 9.35-18.36 22.91-18.36h11.4zm0 22.43v-7h-10.92c-5.52 0-8.63 2.76-8.63 6.72s3 6.24 6.59 6.24a17.42 17.42 0 0 0 12.96-5.96z"/><path d="m366.25 765.28h-14.88v-25.08h-20.52v25.08h-14.85v-61.19h14.87v23.27h20.52v-23.27h14.88z"/><path d="m427.86 763a43.27 43.27 0 0 1 -17.39 3.48c-19.8 0-30.48-14.16-30.48-31.79s10.08-31.8 29.88-31.8a47.21 47.21 0 0 1 17.39 3.36l-4.79 11.75a31.26 31.26 0 0 0 -11.88-2.28c-8.88 0-15.48 7.68-15.48 19s6.48 18.95 15.36 18.95a35.1 35.1 0 0 0 12.6-2.4z"/><path d="m489.16 765.28h-14.87v-48.35h-19.56v48.35h-14.88v-61.19h49.31z"/><path d="m502.9 734.69c0-19.92 11.77-31.8 28.8-31.8s28.8 11.88 28.8 31.8-11.76 31.79-28.8 31.79-28.8-11.88-28.8-31.79zm15.12 0c0 11.87 5.76 18.95 13.68 18.95s13.68-7.08 13.68-18.95-5.76-19-13.68-19-13.7 7.12-13.7 19z"/><path d="m588.4 709.37a22.67 22.67 0 0 1 15.83-6.48c17.28 0 25.08 13.32 25.08 31.8s-7.92 31.79-26.16 31.79a45.39 45.39 0 0 1 -14-2.16v25l-14.87 2.4v-87.63h11.28l2.39 5.28zm25.8 25.32c0-11.16-4.57-19-13.57-19-4.07 0-8.15 2.28-11.52 6v28.71a23.31 23.31 0 0 0 12 3.24c8.05 0 13.09-6.96 13.09-18.95z"/><path d="m635.89 704.09h53l-2.4 12.84h-17v48.35h-14.76v-48.35h-18.84z"/><path d="m0 885.24v-84h48.71l-2.4 13.92h-30.95v19.67h27.36v13.92h-27.36v22.56h33.35v13.92z"/><path d="m83.09 860.16h-5.28v25.08h-14.88v-61.19h14.88v23.27h5.4l14.16-23.27h15.11l-17.87 29.51 19.08 31.68-15.24 1.2z"/><path d="m154.07 845.16c0-5.88-3-9.48-10.32-9.48a48.66 48.66 0 0 0 -16.32 3.24l-4.44-12a61.15 61.15 0 0 1 22.2-4.08c18.71 0 23.75 9.84 23.75 22.56v23.28c0 3 1.69 4.32 4.32 4.32h1.32v11.64a27.88 27.88 0 0 1 -8.51 1.2c-5.41 0-8.88-2-10.8-5.88h-.48c-4.32 4.32-9.12 5.88-16.08 5.88-11.64 0-19-5.76-19-18.24 0-11.76 9.35-18.36 22.91-18.36h11.4zm0 22.44v-7h-10.92c-5.52 0-8.64 2.76-8.64 6.72s3 6.24 6.6 6.24a17.42 17.42 0 0 0 12.96-5.96z"/><path d="m179.37 824.05h53l-2.37 12.83h-17v48.36h-14.8v-48.36h-18.83z"/><path d="m283.5 869.64 5.16 11.64a47.31 47.31 0 0 1 -21.12 5.16c-18 0-30.36-11.76-30.36-31.8s10.8-31.8 28.08-31.8c16 0 25.92 10 25.92 27.12a80.76 80.76 0 0 1 -.72 9.24h-38.16c1.56 9.36 8.05 14.4 16 14.4a36.33 36.33 0 0 0 15.2-3.96zm-5.88-21.84c0-7-4.32-12.12-12.12-12.12-6.35 0-11.51 4.2-13 12.12z"/><path d="m319.72 829.33a22.7 22.7 0 0 1 15.84-6.49c17.28 0 25.07 13.32 25.07 31.8s-7.91 31.8-26.15 31.8a45.39 45.39 0 0 1 -14-2.16v25l-14.88 2.4v-87.63h11.28l2.4 5.28zm25.8 25.31c0-11.16-4.56-19-13.56-19-4.08 0-8.16 2.28-11.52 6v28.67a23.28 23.28 0 0 0 12 3.24c8.04.05 13.08-6.91 13.08-18.91z"/><path d="m413.65 848.52h-.36l-24.72 36.72h-13.57v-61.19h14.87v36.71h.37l24.76-36.71h13.56v61.19h-14.91z"/><path d="m496.78 885.24h-14.88v-25.08h-20.51v25.08h-14.88v-61.19h14.88v23.27h20.51v-23.27h14.88z"/><path d="m525.44 834.73c4.92-5.16 10.8-8.88 18.72-8.88 15 0 25.91 9.95 25.91 30.35 0 19.92-12.47 30.24-29.51 30.24-19.8 0-28.8-14.76-28.8-39.24 0-37.55 10.8-45.71 30.6-47.51 9-.84 13.8-1.92 20-4.44l4.81 11.52a64.18 64.18 0 0 1 -23.4 6c-12.6 1-18.72 6.6-18.72 22zm1.2 12.71c.12 17.52 4.8 26.16 13.92 26.16 8 0 14.4-5.64 14.4-17.4s-5.76-17.52-13-17.52a18.79 18.79 0 0 0 -15.32 8.76z"/><path d="m618.45 824.05h15.84l-23.52 72.95c-3.84 12-11.64 14.64-18.23 14.64a30.89 30.89 0 0 1 -11.17-2.4l4.09-12a18.46 18.46 0 0 0 6.35 1.56c1.93 0 4.68-1 6-5.4l2.4-8.16h-4.21l-20.5-61.19h16.07l13.56 43h.48z"/><path d="m657.43 829.33a22.7 22.7 0 0 1 15.84-6.49c17.28 0 25.08 13.32 25.08 31.8s-7.92 31.8-26.16 31.8a45.39 45.39 0 0 1 -14-2.16v25l-14.88 2.4v-87.63h11.28l2.4 5.28zm25.8 25.31c0-11.16-4.56-19-13.56-19-4.08 0-8.16 2.28-11.52 6v28.67a23.28 23.28 0 0 0 12 3.24c8.04.05 13.08-6.91 13.08-18.91z"/><path d="m751.45 824.05-2.45 12.83h-22v48.36h-14.91v-61.19z"/><path d="m790.55 845.16c0-5.88-3-9.48-10.32-9.48a48.66 48.66 0 0 0 -16.32 3.24l-4.44-12a61.15 61.15 0 0 1 22.2-4.08c18.72 0 23.75 9.84 23.75 22.56v23.28c0 3 1.68 4.32 4.32 4.32h1.32v11.64a27.88 27.88 0 0 1 -8.51 1.2c-5.41 0-8.88-2-10.8-5.88h-.48c-4.33 4.32-9.12 5.88-16.08 5.88-11.64 0-19-5.76-19-18.24 0-11.76 9.36-18.36 22.92-18.36h11.4zm0 22.44v-7h-10.92c-5.52 0-8.64 2.76-8.64 6.72s3 6.24 6.6 6.24a17.42 17.42 0 0 0 12.96-5.96z"/></g></svg>