<svg fill="none" height="871" viewBox="0 0 872 871" width="872" xmlns="http://www.w3.org/2000/svg"><path d="m0 0h872v871h-872z" fill="#000"/><path clip-rule="evenodd" d="m252.928 269.212h-185.6435c-11.7248 0-16.2845-4.56-16.2845-16.284v-185.6435c0-11.7248 4.5597-16.2845 16.2845-16.2845h185.6435c11.784 0 16.284 4.5597 16.284 16.2845v185.6435c0 11.724-4.56 16.284-16.284 16.284z" fill="#fff" fill-rule="evenodd" opacity=".15"/><path d="m145.272 166.651c-12.376-3.494-20.192-12.021-23.923-25.108-18.416 22.325-12.376 55.19-4.915 80.653h-14.153c-10.0663-35.945-13.6785-74.613 19.305-100.372 3.849-3.375 11.31-.474 11.606 6.336 1.718 18.476 7.521 24.575 26.115 28.069-.533 7.757 1.835 14.804 7.402 20.37 4.678 4.678 11.132 7.58 18.238 7.58 14.272 0 25.819-11.547 25.819-25.818 0-14.272-11.547-25.819-25.819-25.819-4.974 0-9.77 1.362-13.975 4.086l-7.639-11.902c6.396-4.086 13.975-6.336 21.614-6.336 22.088 0 39.971 17.883 39.971 39.971 0 22.087-17.883 39.971-39.971 39.971-11.014 0-21.021-4.501-28.246-11.725-5.152-5.152-9.711-12.554-11.429-19.956zm-5.033-74.9088c7.58 0 13.797 6.1585 13.797 13.6788 0 7.521-6.158 13.679-13.797 13.679-7.58 0-13.797-6.158-13.797-13.679 0-7.5203 6.158-13.6788 13.797-13.6788zm-27.713 88.2918 10.836-9.06c13.324 15.929 19.601 30.614 21.733 51.222h-14.212c-2.013-17.232-7.224-28.839-18.357-42.162zm93.68 23.272c5.211 0 9.415 4.204 9.415 9.415s-4.204 9.415-9.415 9.415-9.415-4.204-9.415-9.415c0-5.152 4.204-9.415 9.415-9.415zm-42.458 0c5.211 0 9.415 4.204 9.415 9.415s-4.204 9.415-9.415 9.415-9.415-4.204-9.415-9.415c0-5.152 4.204-9.415 9.415-9.415z" fill="#fff"/><path clip-rule="evenodd" d="m343.289 269.212h185.634c11.787 0 16.289-4.56 16.289-16.284v-185.6435c0-11.7841-4.561-16.2845-16.289-16.2845h-185.634c-11.787 0-16.289 4.5597-16.289 16.2845v185.6435c0 11.724 4.502 16.284 16.289 16.284z" fill="#fff" fill-rule="evenodd" opacity=".15"/><path d="m470.698 154.097 4.62 10.244c1.954-.414 4.027-.592 6.101-.592 8.766 0 16.703 3.553 22.508 9.297 5.745 5.744 9.299 13.679 9.299 22.502 0 8.764-3.554 16.699-9.299 22.502-5.746 5.744-13.683 9.297-22.508 9.297-8.767 0-16.704-3.553-22.509-9.297-5.686-5.684-9.181-13.442-9.299-22.087h12.557c.119 5.152 2.251 9.83 5.627 13.205 3.495 3.494 8.293 5.626 13.624 5.626 5.33 0 10.128-2.132 13.623-5.626s5.627-8.29 5.627-13.62c0-5.329-2.132-10.126-5.627-13.619-3.495-3.494-8.293-5.626-13.623-5.626-.237 0-.474 0-.711 0l7.7 16.995-11.491 5.033-20.198-44.708c-4.739-1.125-10.07-2.783-13.801-5.862l-7.819 79.527h-13.742l4.561-50.393h-4.739l-23.219 50.216v.177c-8.766 0-16.703-3.553-22.508-9.297-5.746-5.744-9.3-13.679-9.3-22.502 0-8.764 3.554-16.699 9.3-22.502 5.745-5.744 13.683-9.297 22.508-9.297v12.554c-5.331 0-10.129 2.132-13.623 5.625-3.495 3.494-5.627 8.291-5.627 13.62 0 5.33 2.132 10.126 5.627 13.62 1.599 1.599 3.494 2.901 5.568 3.849l20.494-45.537 3.317-34.227c-11.195 4.263-15.164 13.797-15.341 25.403l-13.683-.177c.356-24.575 16.23-41.807 41.226-41.333 7.937.177 13.683 3.138 18.125 10.659 7.226 12.257 16.289 16.758 29.912 10.599l5.627 12.495c-3.08 1.599-6.041 2.606-8.884 3.257zm-40.278-67.9212c7.404 0 13.386 5.9808 13.386 13.3236 0 7.3426-5.982 13.3236-13.386 13.3236-7.405 0-13.387-5.981-13.387-13.3236 0-7.402 5.982-13.3236 13.387-13.3236z" fill="#fff"/><path clip-rule="evenodd" d="m804.982 269.212h-185.693c-11.787 0-16.289-4.56-16.289-16.284v-185.6435c0-11.7841 4.561-16.2845 16.289-16.2845h185.634c11.787 0 16.289 4.5597 16.289 16.2845v185.6435c.059 11.724-4.502 16.284-16.23 16.284z" fill="#fff" fill-rule="evenodd" opacity=".15"/><path d="m725.018 118.683c8.342 0 15.105-6.761 15.105-15.1 0-8.34-6.763-15.1006-15.105-15.1006-8.341 0-15.104 6.7606-15.104 15.1006 0 8.339 6.763 15.1 15.104 15.1z" fill="#fff"/><path d="m721.227 226.754h-14.334c0-22.561-2.369-33.812-10.069-48.202l12.616-6.81c8.944 16.64 11.787 29.964 11.787 55.012z" fill="#fff"/><path d="m662.291 226.755-8.825-11.31c19.546-15.218 23.693-30.674 23.989-50.689.355-24.101 8.885-38.964 26.062-45.478 2.014-.77 4.265-.592 6.101.474 1.836 1.065 3.139 2.901 3.495 5.033 3.139 18.475 11.135 24.101 34.354 24.101v14.33c-26.003 0-39.981-7.757-46.142-26.351-5.094 4.382-9.299 12.317-9.536 28.128-.355 27.891-8.944 45.774-29.498 61.762z" fill="#fff"/><path d="m754.634 148.768h-14.334v77.336h14.334z" fill="#fff"/><path clip-rule="evenodd" d="m252.923 545.212h-185.6341c-11.7873 0-16.2889-4.56-16.2889-16.284v-185.644c0-11.784 4.5609-16.284 16.2889-16.284h185.6341c11.787 0 16.289 4.56 16.289 16.284v185.644c.059 11.724-4.502 16.284-16.289 16.284z" fill="#e8e8e8" fill-rule="evenodd" opacity=".15"/><g fill="#fff"><path d="m139.019 432.82-15.104 3.908c-2.606-9.948-1.895-18.475 1.007-25.344 7.7-18.535 33.051-24.101 48.274-13.205 3.317 2.605 3.909 7.402 1.422 10.777-6.871 10.363-11.136 20.903-11.254 33.457 11.787-1.184 23.219 1.599 32.459 9.297 13.149 10.955 17.71 28.305 17.355 44.827l-15.637-.296c.237-11.547-2.547-24.812-11.788-32.51-7.878-6.573-17.947-7.165-27.424-4.5-4.68 1.302-9.477-1.718-10.07-6.573-1.895-15.574.889-30.26 8.411-43.998-15.518-2.487-21.205 10.54-17.651 24.16zm44.484-69.342c7.996 2.25 12.675 10.54 10.484 18.475-2.251 7.995-10.544 12.613-18.54 10.363s-12.676-10.54-10.484-18.475c2.251-7.935 10.543-12.554 18.54-10.363zm-73.567 63.065 8.767 12.969c-5.983 3.849-10.366 9.829-12.321 16.758-4.383 15.633 4.739 31.917 20.376 36.299 17 4.738 34.355-6.454 37.02-23.745l15.401 2.664c-4.265 26.352-30.623 43.406-56.626 36.122-23.9894-6.691-38.0275-31.562-31.275-55.545 3.0208-10.481 9.655-19.541 18.658-25.522z"/><path clip-rule="evenodd" d="m529.163 544.53h-185.855c-11.801 0-16.308-4.566-16.308-16.308v-185.914c0-11.801 4.566-16.308 16.308-16.308h185.855c11.801 0 16.308 4.566 16.308 16.308v185.914c0 11.742-4.566 16.308-16.308 16.308z" fill-rule="evenodd" opacity=".15"/><path clip-rule="evenodd" d="m388.735 417.209c5.989 1.482 11.326 5.041 15.003 9.963 7.71-3.499 15.004-3.499 22.417.533 5.04-7.057 13.165-11.267 21.942-11.267 14.885 0 26.923 12.098 26.923 26.923 0 14.885-12.098 26.924-26.923 26.924-14.885 0-26.924-12.039-26.924-26.924-2.906-2.194-8.361-2.668-11.979 0 0 14.885-12.098 26.924-26.923 26.924-14.885 0-26.924-12.098-26.924-26.924 0-6.76 2.491-12.928 6.583-17.672l19.095-24.373c14.174-18.147 43.173-8.243 42.639 16.249l-15.952-.297c.237-9.192-9.37-12.276-14.115-6.167zm75.729-3.025 10.082-12.868c14.173-18.147 43.172-8.243 42.638 16.249l-15.952-.297c.237-9.192-9.37-12.276-14.114-6.167l-10.082 12.868z" fill-rule="evenodd"/><path clip-rule="evenodd" d="m805.216 544.588h-185.903c-11.805 0-16.313-4.568-16.313-16.313v-185.962c0-11.805 4.568-16.313 16.313-16.313h185.903c11.804 0 16.312 4.568 16.312 16.313v185.962c0 11.745-4.508 16.313-16.312 16.313z" fill-rule="evenodd" opacity=".15"/><path d="m751.236 455.314c-2.195 3.619-4.39 6.288-6.288 8.601-4.093 4.924-7.356 8.839-9.194 23.075-1.187 9.372-6.288 17.795-14 23.134-5.516 3.796-11.982 5.873-18.744 5.873-2.551 0-5.161-.297-7.652-.89l-1.72-.415 4.626-15.067.772.178c4.804 1.127 9.728.237 13.821-2.61 4.033-2.788 6.762-7.237 7.355-12.16 2.373-18.745 7.593-25.033 12.694-31.143 1.721-2.076 3.322-4.033 4.864-6.584 9.61-16.134 10.025-39.091-7.77-51.785-14.83-10.618-35.295-8.541-47.692 4.805-6.169 6.644-9.55 15.126-9.728 23.965h-15.72c.178-12.754 5.042-25.033 13.94-34.642 17.736-19.101 47.099-22.126 68.335-6.94 22.481 16.075 27.583 46.624 12.101 72.605z"/><path d="m786.409 360.009-11.41-11.573-29.821 29.398 11.409 11.574z"/><path d="m691.14 453.984-11.41-11.574-51.871 51.136 11.41 11.574z"/><path d="m731.721 424.232c-.178-11.389-9.195-21.236-20.524-22.482-13.288-1.72-25.685 9.135-25.863 22.482h15.719l.119-.653c.415-3.322 3.44-6.05 6.94-6.228 3.974-.297 7.889 3.144 8.008 7.177.237 4.627-3.796 8.246-8.364 7.83v15.72c12.931.593 24.558-10.737 23.965-23.846z"/><path clip-rule="evenodd" d="m251.89 820.091h-184.6892c-11.7235 0-16.2008-4.537-16.2008-16.201v-184.689c0-11.724 4.5362-16.201 16.2008-16.201h184.6302c11.723 0 16.201 4.536 16.201 16.201v184.689c.059 11.664-4.478 16.201-16.142 16.201z" fill-rule="evenodd" opacity=".15"/><path d="m75.7437 768.427c-3.6525 0-5.1843-2.768-5.1843-6.303s1.5318-6.304 5.1843-6.304c3.6526 0 5.1843 2.769 5.1843 6.304s-1.5317 6.303-5.1843 6.303zm0-10.604c-2.003 0-2.8278 1.886-2.8278 4.301s.8837 4.3 2.8278 4.3 2.8278-1.885 2.8278-4.3-.8248-4.301-2.8278-4.301z"/><path d="m89.6472 767.899c-.7659.353-1.6496.53-2.5332.53-2.8867 0-4.4184-2.062-4.4184-4.654s1.4727-4.654 4.3594-4.654c.8248 0 1.7674.177 2.5332.471l-.7069 1.709c-.5302-.236-1.1783-.354-1.7085-.354-1.2961 0-2.2386 1.12-2.2386 2.769 0 1.65.9425 2.769 2.2386 2.769.5891 0 1.2961-.118 1.8263-.353z"/><path d="m90.3539 759.297h7.7174l-.3534 1.885h-2.4743v7.07h-2.1798v-7.07h-2.7689v-1.885z"/><path d="m98.7781 763.775c0-2.887 1.7079-4.654 4.1829-4.654 2.474 0 4.183 1.709 4.183 4.654 0 2.887-1.709 4.654-4.183 4.654-2.475 0-4.1829-1.767-4.1829-4.654zm2.2389 0c0 1.709.824 2.769 2.003 2.769 1.178 0 2.003-1.06 2.003-2.769 0-1.708-.825-2.769-2.003-2.769-1.179 0-2.003 1.061-2.003 2.769z"/><path d="m111.385 760.064c.589-.589 1.355-.943 2.298-.943 2.533 0 3.652 1.944 3.652 4.654s-1.178 4.654-3.829 4.654c-.766 0-1.473-.118-2.062-.294v3.652l-2.18.354v-12.784h1.65l.353.766h.118zm3.77 3.711c0-1.649-.647-2.769-2.002-2.769-.59 0-1.179.354-1.709.884v4.183c.471.294 1.119.471 1.768.471 1.178 0 1.943-1.002 1.943-2.769z"/><path d="m118.926 763.775c0-2.887 1.709-4.654 4.183-4.654s4.183 1.709 4.183 4.654c0 2.887-1.709 4.654-4.183 4.654s-4.183-1.767-4.183-4.654zm2.18 0c0 1.709.825 2.769 2.003 2.769s2.003-1.06 2.003-2.769c0-1.708-.825-2.769-2.003-2.769s-2.003 1.061-2.003 2.769z"/><path d="m135.481 764.54h-.413v3.711h-2.121v-3.711h-.412l-2.121 3.711h-2.415l2.887-4.595-2.71-4.301h2.238l2.062 3.417h.471v-3.417h2.121v3.417h.472l2.061-3.417h2.239l-2.71 4.301 2.887 4.595-2.298.177z"/><path d="m148.854 768.252h-2.18v-3.653h-3.005v3.653h-2.179v-8.955h2.179v3.417h3.005v-3.417h2.18z"/><path d="m150.974 763.775c0-2.887 1.708-4.654 4.183-4.654 2.474 0 4.182 1.709 4.182 4.654 0 2.887-1.708 4.654-4.182 4.654-2.475 0-4.183-1.767-4.183-4.654zm2.18 0c0 1.709.824 2.769 2.003 2.769 1.178 0 2.003-1.06 2.003-2.769 0-1.708-.825-2.769-2.003-2.769-1.179 0-2.003 1.061-2.003 2.769z"/><path d="m162.992 765.952c.707 0 1.237.589 1.237 1.237 0 .707-.589 1.238-1.237 1.238s-1.237-.59-1.237-1.238c-.059-.707.53-1.237 1.237-1.237zm.707-1.237h-1.532l-.353-5.42v-3.299h2.239v3.299z"/><path d="m74.2116 780.446h-.8837v5.302h-2.2385v-12.254h2.2385v4.89h.8837l3.1813-4.89h2.5333l-3.8293 5.774 4.1826 6.48-2.5332.177z"/><path d="m83.7555 777.616c.5892-.589 1.355-.942 2.2975-.942 2.5333 0 3.6526 1.944 3.6526 4.654s-1.1783 4.654-3.8293 4.654c-.7659 0-1.4728-.118-2.0619-.295v3.653l-2.1798.353v-12.901h1.6496l.3534.766h.1179zm3.7703 3.653c0-1.65-.6479-2.769-2.0029-2.769-.5891 0-1.1783.354-1.7085.884v4.183c.4713.294 1.1193.471 1.7673.471 1.2372 0 1.9441-1.002 1.9441-2.769z"/><path d="m96.7165 776.793h2.2975l-3.4169 10.663c-.5891 1.767-1.7084 2.121-2.651 2.121-.6481 0-1.2372-.177-1.6496-.354l.5891-1.767c.2357.118.6481.236.9427.236.2945 0 .7069-.118.8837-.766l.3535-1.178h-.5891l-3.0046-8.955h2.3565l2.0029 6.245h.059z"/><path d="m99.3081 776.793h7.7179l-.354 1.885h-2.474v7.07h-2.18v-7.07h-2.7689v-1.885z"/><path d="m107.732 781.269c0-2.886 1.709-4.654 4.183-4.654s4.183 1.709 4.183 4.654c0 2.887-1.709 4.654-4.183 4.654s-4.183-1.708-4.183-4.654zm2.18 0c0 1.709.825 2.769 2.003 2.769s2.003-1.06 2.003-2.769c0-1.708-.825-2.769-2.003-2.769s-2.003 1.061-2.003 2.769z"/><path d="m123.875 780.388-3.653 5.361h-2.003v-8.954h2.18v5.361h.059l3.594-5.361h2.003v8.954h-2.18zm1.237-6.657c-.648 1.179-1.708 1.827-3.004 1.827s-2.298-.648-3.005-1.827l1.355-.883c.353.766.943 1.178 1.65 1.178s1.296-.412 1.649-1.178z"/><path d="m140.429 785.748h-2.179v-7.07h-2.828v7.07h-2.18v-8.955h7.187z"/><path d="m142.549 781.269c0-2.886 1.709-4.654 4.183-4.654 2.475 0 4.183 1.709 4.183 4.654 0 2.887-1.708 4.654-4.183 4.654-2.474 0-4.183-1.708-4.183-4.654zm2.18 0c0 1.709.825 2.769 2.003 2.769s2.003-1.06 2.003-2.769c0-1.708-.825-2.769-2.003-2.769s-2.003 1.061-2.003 2.769z"/><path d="m152.742 783.862c.883-1.531 1.119-3.063 1.119-6.068v-1.001h6.127v7.069h1.414l-.354 4.124h-1.826v-2.238h-5.538v2.238h-1.826l-.353-4.124zm3.181-5.184c0 2.003-.177 3.829-.884 5.184h2.769v-5.184z"/><path d="m167.411 780.033c1.944 0 3.181 1.061 3.181 2.887s-1.237 2.828-3.181 2.828h-3.771v-7.07h-2.297l.353-1.885h4.124v3.181h1.591zm-1.532 1.767v2.062h1.414c.707 0 1.178-.412 1.178-1.06 0-.589-.412-1.06-1.178-1.06h-1.414z"/><path d="m178.604 783.449.766 1.709c-.884.412-1.944.766-3.064.766-2.651 0-4.418-1.709-4.418-4.655 0-2.945 1.591-4.654 4.124-4.654 2.356 0 3.77 1.473 3.77 3.948 0 .235-.059.883-.118 1.355h-5.596c.235 1.354 1.178 2.12 2.356 2.12.707 0 1.591-.235 2.18-.589zm-4.536-10.486c.707 0 1.237.589 1.237 1.237s-.589 1.237-1.237 1.237c-.707 0-1.237-.53-1.237-1.237s.53-1.237 1.237-1.237zm3.652 7.305c0-1.002-.648-1.767-1.767-1.767-.943 0-1.709.589-1.885 1.767zm0-7.305c.707 0 1.237.589 1.237 1.237s-.589 1.237-1.237 1.237-1.237-.53-1.237-1.237.53-1.237 1.237-1.237z"/><path d="m189.032 780.446h-.059l-1.532 3.829h-1.885l-1.591-3.829h-.059l-.412 5.302h-2.18l.884-8.955h2.298l2.002 4.772h.059l2.003-4.772h2.298l.884 8.955h-2.18z"/><path d="m75.9792 800.592h-1.3549l-.8248-5.597h-.0589l-1.8263 6.775h-1.4138l2.4743-9.19h1.7084l.8836 6.068h.059l3.0044-6.068h1.7674l-.7658 9.19h-1.4139l.5891-6.775h-.0588z"/><path d="m81.2227 796.232.4713-1.119h2.2975l-1.1782 6.716h-1.3551l1.0015-5.538h-1.237zm2.4742-3.888c.4713 0 .8247.353.8247.825 0 .471-.3534.824-.8247.824s-.8247-.353-.8247-.824c0-.472.3534-.825.8247-.825z"/><path d="m86.0534 801.83h-1.355l1.1782-6.716h.9427l.1177.707h.059c.6481-.589 1.296-.825 2.003-.825 1.2371 0 1.8263.589 1.8263 1.826 0 .236-.0001.589-.059.884l-.7069 4.183h-1.355l.7069-4.065c.0589-.236.059-.413.059-.589 0-.707-.2946-1.002-.9427-1.002-.5302 0-1.1782.413-1.6495.943z"/><path d="m95.7144 794.997c.5891 0 1.0605.118 1.414.294l.5301-3.063 1.414-.236-1.7085 9.838h-.8837l-.1178-.706h-.059c-.5891.53-1.237.824-2.1207.824-1.355 0-2.1797-.883-2.1797-2.651-.0589-2.297 1.2959-4.3 3.7113-4.3zm.5891 4.83.5891-3.299c-.3534-.294-.8247-.471-1.4138-.471-1.2371 0-2.1797 1.355-2.1797 3.064 0 1.06.4713 1.59 1.355 1.59.648.059 1.1781-.235 1.6494-.884z"/><path d="m104.551 793.466 1.414-.236-.353 1.886h2.003l-.471 1.119h-1.768l-.648 3.653v.235c0 .471.295.648.766.648.354 0 .589-.059 1.002-.177l.117 1.061c-.53.177-1.001.236-1.472.236-1.061 0-1.768-.413-1.768-1.532 0-.177 0-.354.059-.589l.648-3.594h-1.119l.177-1.119h1.119z"/><path d="m109.736 797.059-.825 4.771h-1.355l1.709-9.602 1.414-.236-.707 3.888h.059c.589-.53 1.237-.824 1.944-.824 1.237 0 1.826.589 1.826 1.767 0 .236 0 .53-.059.884l-.707 4.182h-1.355l.707-4.065c.059-.235.059-.412.059-.589 0-.707-.294-1.06-.943-1.06-.648-.059-1.296.353-1.767.884z"/><path d="m114.803 799.297c0-2.298 1.355-4.301 3.77-4.301 1.296 0 2.18.589 2.18 1.767 0 1.355-1.179 2.357-4.537 2.357 0 1.06.354 1.708 1.532 1.708.589 0 1.061-.176 1.591-.412l.412 1.001c-.707.354-1.473.531-2.297.531-1.827 0-2.651-1.061-2.651-2.651zm1.531-1.355c2.533 0 3.005-.531 3.005-1.12 0-.471-.413-.707-1.002-.707-.883 0-1.708.766-2.003 1.827z"/><path d="m129.354 799.71c0 1.355-1.238 2.179-2.887 2.179-.825 0-1.591-.176-2.121-.471l.648-1.06c.471.235 1.002.353 1.65.353.589 0 1.355-.294 1.355-.942 0-.59-.589-.766-1.237-1.002-.649-.236-1.591-.825-1.591-1.885 0-1.355 1.119-2.003 2.592-2.003.766 0 1.532.177 2.121.471l-.589 1.002c-.472-.177-1.002-.354-1.591-.354s-1.178.236-1.178.825c0 .53.589.766 1.06.943.825.412 1.768.942 1.768 1.944z"/><path d="m132.358 793.466 1.414-.236-.354 1.886h2.004l-.472 1.119h-1.767l-.648 3.653v.235c0 .471.294.648.766.648.353 0 .589-.059 1.001-.177l.118 1.061c-.53.177-1.001.236-1.473.236-1.06 0-1.767-.413-1.767-1.532 0-.177 0-.354.059-.589l.648-3.594h-1.12l.177-1.119h1.12z"/><path d="m135.598 799.297c0-2.298 1.355-4.301 3.77-4.301 1.296 0 2.18.589 2.18 1.767 0 1.355-1.178 2.357-4.536 2.357 0 1.06.353 1.708 1.531 1.708.59 0 1.061-.176 1.591-.412l.412 1.001c-.706.354-1.472.531-2.297.531-1.826 0-2.651-1.061-2.651-2.651zm1.532-1.355c2.533 0 3.004-.531 3.004-1.12 0-.471-.412-.707-.943-.707-1.001 0-1.767.766-2.061 1.827z"/><path d="m142.255 799.297c0-2.298 1.355-4.301 3.771-4.301 1.296 0 2.18.589 2.18 1.767 0 1.355-1.179 2.357-4.537 2.357 0 1.06.354 1.708 1.532 1.708.589 0 1.061-.176 1.591-.412l.412 1.001c-.707.354-1.473.531-2.298.531-1.826 0-2.651-1.061-2.651-2.651zm1.532-1.355c2.533 0 3.005-.531 3.005-1.12 0-.471-.413-.707-.943-.707-1.001 0-1.767.766-2.062 1.827z"/><path d="m155.275 797.589c0 2.356-1.414 4.3-3.771 4.3-.53 0-.942-.117-1.414-.353l-.471 2.828-1.414.235 1.708-9.602h1.002l.118.707h.059c.471-.472 1.001-.825 1.885-.825 1.473.118 2.298 1.001 2.298 2.71zm-1.414.118c0-1.061-.472-1.591-1.355-1.591-.531 0-1.12.354-1.591.825l-.589 3.358c.353.294.825.471 1.414.471 1.296 0 2.121-1.355 2.121-3.063z"/><path d="m165.997 795.468-1.12 6.303h-.883l-.118-.707h-.059c-.53.531-1.178.825-2.003.825-1.473 0-2.062-1.06-2.062-2.651 0-2.297 1.414-4.3 3.77-4.3.943.058 1.768.235 2.475.53zm-4.89 3.711c0 1.002.353 1.591 1.119 1.591.648 0 1.179-.354 1.65-.943l.589-3.476c-.353-.117-.707-.235-1.237-.235-1.178 0-2.121 1.355-2.121 3.063z"/><path d="m171.358 799.71c0 1.355-1.237 2.179-2.887 2.179-.825 0-1.59-.176-2.121-.471l.648-1.06c.472.235 1.002.353 1.65.353.589 0 1.355-.294 1.355-.942 0-.59-.589-.766-1.237-1.002s-1.591-.825-1.591-1.885c0-1.355 1.12-2.003 2.592-2.003.766 0 1.532.177 2.121.471l-.589 1.002c-.471-.177-1.001-.354-1.591-.354-.589 0-1.178.236-1.178.825 0 .53.589.766 1.061.943.824.412 1.767.942 1.767 1.944z"/><path d="m172.654 799.297c0-2.416 1.532-4.301 3.888-4.301.707 0 1.296.118 1.826.354l-.589 1.06c-.412-.177-.883-.295-1.414-.295-1.237 0-2.238 1.296-2.238 3.064 0 1.06.589 1.59 1.473 1.59.471 0 1.06-.117 1.531-.294l.295 1.06c-.589.236-1.355.413-2.062.413-1.767 0-2.71-1.061-2.71-2.651z"/><path d="m178.486 799.297c0-2.298 1.356-4.301 3.771-4.301 1.296 0 2.18.589 2.18 1.767 0 1.355-1.179 2.357-4.537 2.357 0 1.06.354 1.708 1.532 1.708.589 0 1.061-.176 1.591-.412l.412 1.001c-.707.354-1.473.531-2.298.531-1.767 0-2.651-1.061-2.651-2.651zm1.591-1.355c2.533 0 3.005-.531 3.005-1.12 0-.471-.413-.707-1.002-.707-.942 0-1.708.766-2.003 1.827z"/><path d="m186.322 801.83h-1.355l1.178-6.716h.943l.117.707h.059c.648-.589 1.296-.825 2.003-.825 1.238 0 1.827.589 1.827 1.826 0 .236 0 .589-.059.884l-.707 4.183h-1.355l.707-4.065c.059-.236.059-.413.059-.589 0-.707-.295-1.002-.943-1.002-.53 0-1.178.413-1.649.943z"/><path d="m193.921 793.466 1.414-.236-.354 1.886h2.003l-.471 1.119h-1.767l-.648 3.653v.235c0 .471.294.648.766.648.353 0 .589-.059 1.001-.177l.118 1.061c-.53.177-1.002.236-1.473.236-1.06 0-1.767-.413-1.767-1.532 0-.177 0-.354.059-.589l.648-3.594h-1.12l.177-1.119h1.12z"/><path d="m174.853 710.16-93.984 23.627 2.3699 9.427 93.9831-23.627z"/><path d="m94.4182 664.33c-3.7704-14.61.9427-22.858 5.5378-27.159 7.423-6.951 21.562-9.131 28.396-4.006l-4.183 7.6c-7.423-1.649-12.372-1.355-17.144 3.122-3.829 3.594-5.714 10.251-3.711 18.204z"/><path d="m106.731 717.582c-18.0859 0-32.9907-14.551-33.3442-32.696-.1178-6.244 1.4728-12.371 4.654-17.732 1.4139-2.357 3.0635-4.477 4.9487-6.422l7.1873 7.129c-1.355 1.355-2.5332 2.886-3.4758 4.477-2.2387 3.712-3.358 8.012-3.2402 12.313.2357 12.843 10.8986 23.034 23.7412 22.799 11.37-.236 20.855-8.543 22.505-19.854l10.015 1.473c-2.357 16.142-15.965 28.16-32.343 28.455-.177.058-.412.058-.648.058z"/><path d="m144.553 638.875c6.181 0 11.193-5.012 11.193-11.193 0-6.182-5.012-11.194-11.193-11.194-6.182 0-11.194 5.012-11.194 11.194 0 6.181 5.012 11.193 11.194 11.193z"/><path d="m153.919 700.911 9.839-2.475c-3.594-14.139-10.192-23.034-19.736-27.629-8.66-4.124-15.729-4.89-21.679-3.417-.589.117-1.061-.354-1.002-.943 1.002-6.657 3.417-14.728 9.249-23.388 2.121-3.122 2.298-3.77.648-6.539l-.412-.648c-1.355-2.357-3.358-3.24-3.77-3.417-4.242-1.591-2.475-.354-3.476.53-8.307 7.835-10.722 18.498-12.725 26.098-.059.177-4.124 15.671-.884 20.501 1.532 2.298 4.478 3.005 6.893 1.709.118-.059 12.312-6.363 22.799-1.355 6.598 3.122 11.37 10.192 14.256 20.973z"/><path clip-rule="evenodd" d="m528.923 820.212h-185.634c-11.787 0-16.289-4.56-16.289-16.284v-185.644c0-11.784 4.561-16.284 16.289-16.284h185.634c11.787 0 16.289 4.56 16.289 16.284v185.644c.059 11.724-4.502 16.284-16.289 16.284z" fill-rule="evenodd" opacity=".15"/><path d="m343.051 768.159v-12.317h9.063v12.317h-2.251v-10.304h-4.561v10.304z"/><path d="m354.424 763.659c0-2.902 1.718-4.679 4.206-4.679 2.487 0 4.205 1.718 4.205 4.679 0 2.901-1.718 4.678-4.205 4.678-2.488 0-4.206-1.777-4.206-4.678zm2.192 0c0 1.717.829 2.783 2.014 2.783 1.184 0 2.013-1.066 2.013-2.783 0-1.718-.829-2.784-2.013-2.784-1.185 0-2.014 1.007-2.014 2.784z"/><path d="m371.069 764.43h-.415v3.73h-2.132v-3.73h-.415l-2.132 3.73h-2.429l2.903-4.618-2.725-4.323h2.251l2.073 3.434h.474v-3.434h2.132v3.434h.474l2.073-3.434h2.251l-2.725 4.323 2.903 4.618-2.31.178z"/><path d="m381.493 762.237c0-.888-.414-1.362-1.54-1.362-.77 0-1.54.178-2.369.474l-.652-1.776c1.066-.415 2.133-.593 3.258-.593 2.725 0 3.495 1.422 3.495 3.317v3.434c0 .415.237.652.651.652h.178v1.717c-.237.118-.829.177-1.244.177-.77 0-1.303-.296-1.599-.888h-.059c-.652.652-1.363.888-2.37.888-1.717 0-2.784-.829-2.784-2.664 0-1.718 1.363-2.665 3.377-2.665h1.658zm0 3.316v-1.006h-1.599c-.829 0-1.244.414-1.244 1.006 0 .593.415.889.948.889.71 0 1.421-.356 1.895-.889z"/><path d="m389.371 761.173c0 4.678-1.066 7.047-3.08 7.047-.474 0-.889-.119-1.244-.296l.533-1.718c.119.059.237.119.415.119.711 0 1.244-1.185 1.244-5.981v-1.125h6.278v9.001h-2.191v-7.106h-2.014v.059z"/><path d="m401.218 759.158h2.31l-3.435 10.718c-.593 1.777-1.718 2.132-2.666 2.132-.651 0-1.244-.178-1.658-.355l.592-1.777c.237.119.652.237.948.237s.711-.118.888-.77l.356-1.184h-.593l-3.02-9.001h2.369l2.014 6.277h.059z"/><path d="m410.517 762.771-3.672 5.389h-2.014v-9.001h2.192v5.389h.059l3.613-5.389h2.014v9.001h-2.192zm1.244-6.691c-.651 1.184-1.717 1.835-3.021 1.835-1.303 0-2.31-.651-3.02-1.835l1.362-.889c.355.77.948 1.185 1.658 1.185.711 0 1.304-.415 1.659-1.185z"/><path d="m421.831 767.804c-.77.355-1.659.533-2.547.533-2.903 0-4.443-2.073-4.443-4.678 0-2.606 1.481-4.679 4.384-4.679.829 0 1.777.178 2.547.474l-.711 1.717c-.533-.236-1.185-.355-1.718-.355-1.303 0-2.251 1.125-2.251 2.783s.948 2.784 2.251 2.784c.592 0 1.303-.119 1.836-.356z"/><path d="m422.541 759.158h7.76l-.356 1.895h-2.487v7.106h-2.192v-7.106h-2.784v-1.895z"/><path d="m436.106 762.237c0-.888-.415-1.362-1.54-1.362-.771 0-1.541.178-2.37.474l-.651-1.776c1.066-.415 2.132-.593 3.257-.593 2.725 0 3.495 1.422 3.495 3.317v3.434c0 .415.237.652.652.652h.177v1.717c-.237.118-.829.177-1.243.177-.77 0-1.304-.296-1.6-.888h-.059c-.652.652-1.362.888-2.369.888-1.718 0-2.784-.829-2.784-2.664 0-1.718 1.362-2.665 3.376-2.665h1.659zm0 3.316v-1.006h-1.6c-.829 0-1.244.414-1.244 1.006 0 .593.415.889.948.889.711 0 1.363-.356 1.896-.889z"/><path d="m441.199 768.221c-.533-.178-.888-.592-.888-1.184 0-.711.474-1.244 1.244-1.244.888 0 1.244.711 1.244 1.421 0 1.421-.77 2.724-2.014 3.375l-.592-.71c.592-.355.947-.948 1.006-1.658z"/><path d="m350.278 785.747h-2.191v-3.671h-3.021v3.671h-2.192v-9.001h2.192v3.435h3.021v-3.435h2.191z"/><path d="m357.326 779.886c0-.888-.414-1.362-1.54-1.362-.77 0-1.54.177-2.369.474l-.652-1.777c1.067-.414 2.133-.592 3.258-.592 2.725 0 3.495 1.421 3.495 3.316v3.435c0 .414.237.651.651.651h.178v1.717c-.237.119-.829.178-1.244.178-.77 0-1.303-.296-1.599-.888h-.059c-.652.651-1.363.888-2.369.888-1.718 0-2.784-.829-2.784-2.665 0-1.717 1.362-2.665 3.376-2.665h1.658zm0 3.257v-1.007h-1.599c-.829 0-1.244.415-1.244 1.007s.415.888.948.888c.711 0 1.422-.355 1.895-.888z"/><path d="m361.947 783.852c.889-1.54 1.126-3.079 1.126-6.099v-1.007h6.16v7.106h1.421l-.355 4.145h-1.836v-2.25h-5.568v2.25h-1.836l-.356-4.145zm3.258-5.211c0 2.013-.178 3.849-.889 5.211h2.784v-5.211z"/><path d="m378.354 783.437.77 1.718c-.889.414-1.955.77-3.08.77-2.666 0-4.443-1.718-4.443-4.679 0-2.96 1.6-4.678 4.147-4.678 2.369 0 3.791 1.481 3.791 3.968 0 .237-.06.888-.119 1.362h-5.627c.237 1.362 1.185 2.132 2.369 2.132.711 0 1.6-.237 2.192-.593zm-.829-3.197c0-1.007-.652-1.777-1.777-1.777-.948 0-1.718.592-1.896 1.777z"/><path d="m389.016 785.747h-2.192v-3.671h-3.021v3.671h-2.191v-9.001h2.191v3.435h3.021v-3.435h2.192z"/><path d="m395.413 779.944c1.954 0 3.198 1.066 3.198 2.902s-1.244 2.842-3.198 2.842h-3.791v-9h2.192v3.197h1.599zm-1.599 1.836v2.073h1.421c.711 0 1.185-.415 1.185-1.066 0-.592-.415-1.066-1.185-1.066h-1.421z"/><path d="m398.434 776.746h7.76l-.356 1.895h-2.488v7.106h-2.191v-7.106h-2.784v-1.895z"/><path d="m413.716 783.437.77 1.718c-.888.414-1.955.77-3.08.77-2.666 0-4.442-1.718-4.442-4.679 0-2.96 1.599-4.678 4.146-4.678 2.369 0 3.791 1.481 3.791 3.968 0 .237-.059.888-.119 1.362h-5.627c.237 1.362 1.185 2.132 2.369 2.132.711 0 1.6-.237 2.192-.593zm-.888-3.197c0-1.007-.652-1.777-1.777-1.777-.948 0-1.718.592-1.896 1.777z"/><path d="m428.761 780.417h-.06l-1.54 3.85h-1.895l-1.599-3.85h-.06l-.414 5.33h-2.192l.889-9.001h2.31l2.014 4.797h.059l2.014-4.797h2.31l.888 9.001h-2.191z"/><path d="m437.941 779.886c0-.888-.414-1.362-1.539-1.362-.77 0-1.541.177-2.37.474l-.651-1.777c1.066-.414 2.132-.592 3.257-.592 2.725 0 3.495 1.421 3.495 3.316v3.435c0 .414.237.651.652.651h.177v1.717c-.237.119-.829.178-1.244.178-.77 0-1.303-.296-1.599-.888h-.059c-.652.651-1.362.888-2.369.888-1.718 0-2.784-.829-2.784-2.665 0-1.717 1.362-2.665 3.376-2.665h1.658zm0 3.257v-1.007h-1.599c-.829 0-1.244.415-1.244 1.007s.415.888.948.888c.711 0 1.422-.355 1.895-.888z"/><path d="m449.196 785.392c-.77.355-1.659.533-2.547.533-2.903 0-4.443-2.073-4.443-4.679 0-2.605 1.481-4.678 4.383-4.678.83 0 1.777.178 2.547.474l-.71 1.717c-.534-.236-1.185-.355-1.718-.355-1.303 0-2.251 1.125-2.251 2.783s.948 2.783 2.251 2.783c.592 0 1.303-.118 1.836-.355z"/><path d="m453.934 782.076h-.77v3.671h-2.191v-9.001h2.191v3.435h.77l2.074-3.435h2.191l-2.606 4.323 2.784 4.619-2.251.177z"/><path d="m464.774 776.746h2.31l-3.436 10.718c-.592 1.777-1.717 2.132-2.665 2.132-.652 0-1.244-.178-1.659-.355l.593-1.777c.237.119.651.237.947.237s.711-.118.889-.77l.355-1.184h-.592l-3.021-9.001h2.369l2.014 6.277h.059z"/><path d="m344.592 798.657-.592 3.257h-1.422l1.599-9.238h2.903c1.658 0 2.606.888 2.606 2.546 0 2.013-1.54 3.435-3.673 3.435zm.829-4.738-.592 3.435h1.481c1.125 0 1.954-.888 1.954-2.191 0-.829-.474-1.303-1.303-1.303h-1.54z"/><path d="m352.647 801.795c-.474.177-.77.177-1.125.177-.948 0-1.422-.414-1.422-1.302 0-.178 0-.356.059-.593l1.363-7.875 1.421-.237-1.421 8.172v.237c0 .355.177.473.473.473.237 0 .356-.059.593-.118z"/><path d="m353.772 799.368c0-2.31 1.363-4.323 3.791-4.323 1.303 0 2.192.592 2.192 1.776 0 1.362-1.185 2.369-4.561 2.369 0 1.066.355 1.717 1.54 1.717.592 0 1.066-.177 1.599-.414l.415 1.006c-.711.356-1.481.533-2.31.533-1.836 0-2.666-1.065-2.666-2.664zm1.54-1.362c2.547 0 3.021-.533 3.021-1.125 0-.474-.414-.711-.947-.711-1.007 0-1.777.77-2.074 1.836z"/><path d="m366.745 795.517-1.126 6.336h-.888l-.119-.71h-.059c-.533.533-1.185.829-2.014.829-1.481 0-2.073-1.066-2.073-2.665 0-2.309 1.422-4.323 3.791-4.323.948.06 1.777.237 2.488.533zm-4.917 3.731c0 1.007.356 1.599 1.126 1.599.651 0 1.184-.355 1.658-.948l.593-3.493c-.356-.119-.711-.237-1.244-.237-1.185 0-2.133 1.362-2.133 3.079z"/><path d="m372.135 799.782c0 1.362-1.244 2.191-2.902 2.191-.83 0-1.6-.178-2.133-.474l.652-1.066c.474.237 1.007.355 1.658.355.593 0 1.363-.296 1.363-.947 0-.592-.593-.77-1.244-1.007-.652-.237-1.6-.829-1.6-1.895 0-1.362 1.126-2.013 2.607-2.013.77 0 1.54.177 2.132.474l-.592 1.006c-.474-.177-1.007-.355-1.6-.355-.592 0-1.184.237-1.184.829 0 .533.592.77 1.066.947.829.415 1.777.948 1.777 1.955z"/><path d="m373.438 799.368c0-2.31 1.362-4.323 3.791-4.323 1.303 0 2.191.592 2.191 1.776 0 1.362-1.184 2.369-4.56 2.369 0 1.066.355 1.717 1.54 1.717.592 0 1.066-.177 1.599-.414l.415 1.006c-.711.356-1.481.533-2.31.533-1.837 0-2.666-1.065-2.666-2.664zm1.54-1.362c2.547 0 3.021-.533 3.021-1.125 0-.474-.415-.711-.948-.711-1.007 0-1.777.77-2.073 1.836z"/><path d="m392.925 795.162-2.902 6.751h-1.718l-.237-4.856h-.059l-1.837 4.856h-1.717l-.77-6.751h1.244l.592 5.211h.059l1.896-5.211h1.48l.297 5.211h.059l2.191-5.211z"/><path d="m392.866 799.368c0-2.31 1.363-4.323 3.791-4.323 1.303 0 2.192.592 2.192 1.776 0 1.362-1.185 2.369-4.561 2.369 0 1.066.355 1.717 1.54 1.717.592 0 1.066-.177 1.599-.414l.415 1.006c-.711.356-1.481.533-2.31.533-1.836 0-2.666-1.065-2.666-2.664zm1.54-1.362c2.547 0 3.021-.533 3.021-1.125 0-.474-.414-.711-.947-.711-.948 0-1.777.77-2.074 1.836z"/><path d="m405.897 795.517-1.125 6.336h-.889l-.118-.71h-.06c-.533.533-1.184.829-2.013.829-1.481 0-2.074-1.066-2.074-2.665 0-2.309 1.422-4.323 3.791-4.323.948.06 1.718.237 2.488.533zm-4.916 3.731c0 1.007.355 1.599 1.125 1.599.652 0 1.185-.355 1.659-.948l.592-3.493c-.355-.119-.711-.237-1.244-.237-1.244 0-2.132 1.362-2.132 3.079z"/><path d="m410.932 796.406c-.178-.06-.356-.119-.652-.119-.77 0-1.362.77-1.658 1.658l-.711 3.908h-1.363l1.185-6.75h.948l.059 1.066h.059c.474-.711 1.007-1.185 1.955-1.185.296 0 .592.06.829.119z"/><path d="m421.297 795.517-1.125 6.336h-.889l-.118-.71h-.06c-.533.533-1.184.829-2.013.829-1.481 0-2.074-1.066-2.074-2.665 0-2.309 1.422-4.323 3.791-4.323.948.06 1.718.237 2.488.533zm-4.916 3.731c0 1.007.355 1.599 1.125 1.599.652 0 1.185-.355 1.659-.948l.592-3.493c-.355-.119-.711-.237-1.244-.237-1.244 0-2.132 1.362-2.132 3.079z"/><path d="m430.183 795.163-.474 1.125h-1.363l-1.125 6.395c-.296 1.54-1.185 2.073-2.31 2.073-.533 0-1.125-.178-1.481-.415l.533-1.007c.356.178.593.296 1.007.296.474 0 .77-.236.889-.947l1.125-6.395h-1.125l.177-1.125h1.126l.177-.889c.297-1.599 1.244-2.309 2.548-2.309.651 0 1.066.118 1.539.355l-.651 1.007c-.237-.119-.533-.237-.948-.237-.592 0-1.007.355-1.125 1.125l-.178.888h1.659z"/><path d="m436.342 795.517-1.125 6.336h-.889l-.118-.71h-.059c-.533.533-1.185.829-2.014.829-1.481 0-2.073-1.066-2.073-2.665 0-2.309 1.421-4.323 3.791-4.323.947.06 1.717.237 2.487.533zm-4.916 3.731c0 1.007.355 1.599 1.125 1.599.652 0 1.185-.355 1.659-.948l.592-3.493c-.355-.119-.711-.237-1.244-.237-1.243 0-2.132 1.362-2.132 3.079z"/><path d="m437.171 799.368c0-2.428 1.54-4.323 3.91-4.323.711 0 1.303.118 1.836.355l-.592 1.066c-.415-.178-.889-.296-1.422-.296-1.244 0-2.251 1.303-2.251 3.079 0 1.066.593 1.599 1.481 1.599.474 0 1.066-.118 1.54-.296l.296 1.066c-.592.237-1.362.414-2.073.414-1.718 0-2.725-1.065-2.725-2.664z"/><path d="m443.095 799.368c0-2.31 1.362-4.323 3.791-4.323 1.303 0 2.191.592 2.191 1.776 0 1.362-1.184 2.369-4.56 2.369 0 1.066.355 1.717 1.54 1.717.592 0 1.066-.177 1.599-.414l.415 1.006c-.711.356-1.481.533-2.311.533-1.836 0-2.665-1.065-2.665-2.664zm1.54-1.362c2.547 0 3.021-.533 3.021-1.125 0-.474-.415-.711-.948-.711-.948 0-1.777.77-2.073 1.836z"/><path d="m462.76 796.821c0 .237 0 .533-.059.829l-.711 4.204h-1.362l.71-4.145c.06-.237.06-.415.06-.592 0-.711-.297-1.007-.948-1.007-.415 0-.948.296-1.363.651l-.888 5.034h-1.362l.711-4.145c.059-.237.059-.415.059-.592 0-.652-.296-1.007-.83-1.007-.473 0-1.066.414-1.48.947l-.83 4.797h-1.362l1.185-6.751h.947l.119.711h.059c.652-.592 1.185-.829 1.896-.829.829 0 1.362.237 1.54.829.651-.533 1.362-.829 2.073-.829 1.244.118 1.836.71 1.836 1.895z"/><path d="m470.105 795.517-1.126 6.336h-.888l-.119-.71h-.059c-.533.533-1.184.829-2.014.829-1.481 0-2.073-1.066-2.073-2.665 0-2.309 1.422-4.323 3.791-4.323.948.06 1.777.237 2.488.533zm-4.916 3.731c0 1.007.355 1.599 1.125 1.599.652 0 1.185-.355 1.658-.948l.593-3.493c-.356-.119-.711-.237-1.244-.237-1.185 0-2.132 1.362-2.132 3.079z"/><path d="m475.495 799.782c0 1.362-1.244 2.191-2.902 2.191-.829 0-1.599-.178-2.132-.474l.651-1.066c.474.237 1.007.355 1.659.355.592 0 1.362-.296 1.362-.947 0-.592-.593-.77-1.244-1.007-.652-.237-1.599-.829-1.599-1.895 0-1.362 1.125-2.013 2.606-2.013.77 0 1.54.177 2.132.474l-.592 1.006c-.474-.177-1.007-.355-1.599-.355-.593 0-1.185.237-1.185.829 0 .533.592.77 1.066.947.83.415 1.777.948 1.777 1.955z"/><path d="m481.655 795.162h1.422l-2.725 3.316c.296 1.362 1.007 2.428 1.895 3.435l-1.48.118c-.711-.888-1.244-1.895-1.541-3.02h-.769l-.534 2.902h-1.362l1.718-9.653 1.421-.237-1.007 5.863h.711z"/><path d="m429.354 721.201c-16.585 0-33.17-4.974-47.327-14.863l-8.529-5.981 1.658-3.672c5.035-11.132 5.035-23.923 0-35.115l-1.718-3.731 3.436-2.309c15.578-10.54 33.703-16.048 52.48-16.048 18.776 0 36.961 5.567 52.479 16.048l3.495 2.369-1.836 3.79c-5.331 11.073-5.331 23.804 0 34.878l1.836 3.731-8.648 6.04c-14.156 9.889-30.741 14.863-47.326 14.863zm-43.773-24.279 2.014 1.421c24.937 17.469 58.462 17.469 83.458 0l1.955-1.362c-4.384-11.488-4.443-24.041-.059-35.529-13.15-7.995-28.136-12.199-43.595-12.199-15.519 0-30.505 4.204-43.714 12.258 4.087 11.429 4.087 23.923-.059 35.411z"/><path d="m379.302 704.443c-29.616-19.778-35.421-34.938-35.065-44.235.236-6.573 3.672-12.198 9.358-15.396 5.094-2.842 10.425-3.494 15.341-1.836 10.07 3.435 15.223 14.923 15.815 16.167l-9.003 3.849c-1.066-2.428-4.916-9.12-9.951-10.778-2.31-.77-4.739-.414-7.404 1.066-1.54.888-4.205 3.02-4.383 7.225-.178 4.5 2.488 16.935 30.682 35.707z"/><path d="m479.345 704.502-5.449-8.112c28.254-18.831 30.86-31.326 30.682-35.767-.178-4.264-2.843-6.395-4.383-7.224-2.665-1.481-5.094-1.836-7.404-1.066-5.035 1.717-8.885 8.408-9.951 10.836l-9.003-3.849c.533-1.302 5.745-12.79 15.815-16.225 4.975-1.658 10.247-1.066 15.341 1.836 5.686 3.197 9.122 8.823 9.358 15.396.356 9.178-5.39 24.397-35.006 44.175z"/><path clip-rule="evenodd" d="m804.923 820.212h-185.634c-11.787 0-16.289-4.56-16.289-16.284v-185.644c0-11.784 4.561-16.284 16.289-16.284h185.634c11.787 0 16.289 4.56 16.289 16.284v185.644c0 11.724-4.561 16.284-16.289 16.284z" fill-rule="evenodd" opacity=".15"/><path d="m621.718 757.857v2.842h1.54c2.547 0 4.264 1.244 4.264 3.731 0 2.546-1.717 3.731-4.264 3.731h-3.791v-12.317h7.226l-.355 2.013zm0 4.856v3.375h1.421c1.422 0 2.014-.71 2.014-1.717 0-1.066-.592-1.717-2.073-1.717h-1.362z"/><path d="m634.334 759.16h2.31l-3.435 10.718c-.593 1.777-1.718 2.132-2.666 2.132-.651 0-1.244-.178-1.658-.355l.592-1.777c.237.119.652.237.948.237s.711-.118.888-.77l.356-1.184h-.593l-3.021-9.001h2.37l2.014 6.277h.059z"/><path d="m637.533 766.266c.888-1.54 1.125-3.079 1.125-6.099v-1.007h6.16v7.106h1.422l-.355 4.145h-1.837v-2.25h-5.567v2.25h-1.837l-.355-4.145zm3.198-5.211c0 2.013-.177 3.849-.888 5.211h2.784v-5.211z"/><path d="m651.512 762.358c1.954 0 3.198 1.066 3.198 2.902s-1.244 2.842-3.198 2.842h-3.791v-9h2.192v3.197h1.599zm-1.599 1.836v2.073h1.421c.711 0 1.185-.415 1.185-1.066 0-.652-.415-1.066-1.185-1.066h-1.421z"/><path d="m654.532 759.16h7.76l-.356 1.895h-2.488v7.106h-2.191v-7.106h-2.784v-1.895z"/><path d="m669.814 765.852.77 1.717c-.888.414-1.954.77-3.08.77-2.665 0-4.442-1.718-4.442-4.678 0-2.961 1.599-4.679 4.146-4.679 2.369 0 3.791 1.481 3.791 3.968 0 .237-.059.888-.119 1.362h-5.627c.237 1.362 1.185 2.132 2.37 2.132.71 0 1.54-.296 2.191-.592zm-.888-3.198c0-1.007-.652-1.777-1.777-1.777-.948 0-1.718.592-1.896 1.777z"/><path d="m679.706 759.93c.593-.592 1.363-.948 2.31-.948 2.547 0 3.673 1.955 3.673 4.679 0 2.723-1.185 4.678-3.85 4.678-.77 0-1.481-.119-2.073-.296v3.671l-2.192.355v-12.85h1.659l.355.77h.118zm3.791 3.731c0-1.659-.651-2.784-2.014-2.784-.592 0-1.184.356-1.717.889v4.204c.473.296 1.125.474 1.777.474 1.184 0 1.954-1.007 1.954-2.783z"/><path d="m689.184 764.667c-1.067-.414-1.659-1.362-1.659-2.664 0-1.718 1.185-2.843 3.139-2.843h3.732v9.001h-2.192v-3.198h-.888l-1.955 3.198h-2.428zm1.658-1.599h1.362v-2.013h-1.362c-.652 0-1.066.415-1.066 1.007s.414 1.006 1.066 1.006z"/><path d="m696.883 766.266c.889-1.54 1.126-3.079 1.126-6.099v-1.007h6.16v7.106h1.421l-.355 4.145h-1.836v-2.25h-5.568v2.25h-1.836l-.356-4.145zm3.258-5.211c0 2.013-.178 3.849-.888 5.211h2.783v-5.211z"/><path d="m706.479 763.661c0-2.902 1.718-4.679 4.205-4.679 2.488 0 4.206 1.718 4.206 4.679 0 2.96-1.718 4.678-4.206 4.678-2.487 0-4.205-1.777-4.205-4.678zm2.251 0c0 1.717.829 2.783 2.014 2.783 1.184 0 2.014-1.066 2.014-2.783 0-1.718-.83-2.784-2.014-2.784-1.185 0-2.014 1.007-2.014 2.784z"/><path d="m724.308 762.832h-.059l-1.54 3.849h-1.896l-1.599-3.849h-.059l-.415 5.329h-2.191l.888-9.001h2.31l2.014 4.797h.059l2.014-4.797h2.31l.889 9.001h-2.192z"/><path d="m732.542 759.16h7.759l-.355 1.895h-2.488v7.106h-2.192v-7.106h-2.784v-1.895z"/><path d="m741.071 763.661c0-2.902 1.718-4.679 4.206-4.679 2.487 0 4.205 1.718 4.205 4.679 0 2.96-1.718 4.678-4.205 4.678-2.488 0-4.206-1.777-4.206-4.678zm2.192 0c0 1.717.829 2.783 2.014 2.783 1.184 0 2.014-1.066 2.014-2.783 0-1.718-.83-2.784-2.014-2.784-1.185 0-2.014 1.007-2.014 2.784z"/><path d="m754.576 761.173c0 4.678-1.066 7.047-3.08 7.047-.474 0-.889-.119-1.244-.296l.533-1.718c.119.059.237.119.415.119.711 0 1.244-1.185 1.244-5.981v-1.125h6.278v9.001h-2.191v-7.106h-2.014v.059z"/><path d="m765.178 762.358c1.955 0 3.199 1.066 3.199 2.902s-1.244 2.842-3.199 2.842h-3.791v-9h2.192v3.197h1.599zm-1.599 1.836v2.073h1.422c.71 0 1.184-.415 1.184-1.066 0-.652-.414-1.066-1.184-1.066h-1.422z"/><path d="m773.116 764.431h-.77v3.671h-2.192v-9h2.192v3.434h.77l2.073-3.434h2.192l-2.607 4.322 2.784 4.619-2.251.178z"/><path d="m778.328 763.661c0-2.902 1.717-4.679 4.205-4.679s4.206 1.718 4.206 4.679c0 2.96-1.718 4.678-4.206 4.678s-4.205-1.777-4.205-4.678zm2.191 0c0 1.717.83 2.783 2.014 2.783 1.185 0 2.014-1.066 2.014-2.783 0-1.718-.829-2.784-2.014-2.784-1.184 0-2.014 1.007-2.014 2.784z"/><path d="m625.805 785.394c-.77.355-1.659.532-2.547.532-2.903 0-4.443-2.072-4.443-4.678 0-2.605 1.481-4.678 4.383-4.678.83 0 1.777.178 2.547.474l-.71 1.717c-.534-.237-1.185-.355-1.718-.355-1.303 0-2.251 1.125-2.251 2.783s.948 2.783 2.251 2.783c.592 0 1.303-.118 1.836-.355z"/><path d="m633.682 778.346c.711-.77 1.6-1.303 2.725-1.303 2.192 0 3.791 1.481 3.791 4.442 0 2.901-1.836 4.441-4.324 4.441-2.902 0-4.205-2.191-4.205-5.744 0-5.507 1.599-6.692 4.501-6.988 1.303-.118 2.014-.296 2.962-.651l.711 1.717c-1.007.533-2.251.77-3.436.888-1.895.119-2.784.948-2.725 3.198zm.178 1.836c0 2.546.711 3.849 2.014 3.849 1.185 0 2.132-.829 2.132-2.546 0-1.718-.829-2.547-1.895-2.547-.77 0-1.659.356-2.251 1.244z"/><path d="m645.411 778.763c0 4.678-1.066 7.046-3.08 7.046-.474 0-.889-.118-1.244-.296l.533-1.717c.118.059.237.119.414.119.711 0 1.244-1.185 1.244-5.981v-1.125h6.279v9h-2.192v-7.105h-2.013v.059z"/><path d="m657.908 780.358-3.672 5.389h-2.014v-9.001h2.192v5.389h.059l3.613-5.389h2.014v9.001h-2.192z"/><path d="m667.089 780.953c1.185.355 1.896 1.066 1.896 2.25 0 1.599-1.363 2.665-3.85 2.665-1.067 0-2.37-.237-3.08-.533l.71-1.717c.593.237 1.6.414 2.37.414 1.007 0 1.717-.355 1.717-1.006 0-.593-.533-1.007-1.717-1.007h-1.126v-1.777h1.126c.77 0 1.362-.237 1.362-.947 0-.533-.415-.888-1.303-.888-.652 0-1.54.118-2.31.355l-.711-1.717c.829-.356 2.31-.533 3.139-.533 2.014 0 3.317.77 3.317 2.368 0 1.007-.474 1.777-1.54 2.073z"/><path d="m673.961 782.076h-.77v3.671h-2.192v-9.001h2.192v3.435h.77l2.073-3.435h2.191l-2.606 4.323 2.784 4.619-2.251.177z"/><path d="m685.57 780.358-3.673 5.389h-2.014v-9.001h2.192v5.389h.059l3.614-5.389h2.013v9.001h-2.191z"/><path d="m697.653 780.417h-.059l-1.54 3.85h-1.896l-1.599-3.85h-.059l-.415 5.33h-2.191l.888-9.001h2.31l2.014 4.797h.059l2.014-4.797h2.31l.889 9.001h-2.192z"/><path d="m708.019 780.358-3.672 5.389h-2.014v-9.001h2.191v5.389h.06l3.613-5.389h2.014v9.001h-2.192z"/><path d="m720.576 778.763c0 4.678-1.066 7.046-3.08 7.046-.474 0-.889-.118-1.244-.296l.533-1.717c.119.059.237.119.415.119.71 0 1.244-1.185 1.244-5.981v-1.125h6.278v9h-2.191v-7.105h-2.014v.059z"/><path d="m731.061 782.077h-1.422v3.672h-2.191v-9.001h2.191v3.435h1.481c.355-2.251 1.777-3.613 3.969-3.613 2.487 0 4.027 1.718 4.027 4.678 0 2.961-1.54 4.678-4.027 4.678-2.37 0-3.791-1.421-4.028-3.849zm2.132-.829c0 1.718.652 2.784 1.777 2.784 1.126 0 1.777-1.066 1.777-2.784 0-1.717-.651-2.783-1.777-2.783-1.125 0-1.777 1.066-1.777 2.783z"/><path d="m740.834 783.852c.889-1.54 1.126-3.079 1.126-6.099v-1.007h6.16v7.106h1.421l-.355 4.145h-1.836v-2.25h-5.568v2.25h-1.836l-.356-4.145zm3.258-5.211c0 2.013-.178 3.849-.888 5.211h2.783v-5.211z"/><path d="m754.813 779.944c1.955 0 3.199 1.066 3.199 2.902s-1.244 2.842-3.199 2.842h-3.791v-9h2.192v3.197h1.599zm-1.54 1.836v2.073h1.421c.711 0 1.185-.415 1.185-1.066 0-.652-.415-1.066-1.185-1.066h-1.421z"/><path d="m767.074 780.417h-.059l-1.541 3.85h-1.895l-1.599-3.85h-.06l-.414 5.33h-2.192l.889-9.001h2.31l2.014 4.797h.059l2.014-4.797h2.31l.889 9.001h-2.192z"/><path d="m777.44 780.358-3.673 5.389h-2.013v-9.001h2.191v5.389h.059l3.613-5.389h2.014v9.001h-2.191z"/><path d="m620.948 798.657-.593 3.257h-1.421l1.599-9.238h2.902c1.659 0 2.607.888 2.607 2.546 0 2.013-1.54 3.435-3.673 3.435zm.888-4.738-.592 3.435h1.481c1.125 0 1.954-.888 1.954-2.191 0-.829-.474-1.303-1.303-1.303h-1.54z"/><path d="m629.062 801.795c-.474.177-.77.177-1.125.177-.948 0-1.422-.414-1.422-1.302 0-.178 0-.356.059-.593l1.363-7.875 1.421-.237-1.421 8.172v.237c0 .355.177.473.474.473.236 0 .355-.059.592-.118z"/><path d="m630.128 799.37c0-2.31 1.363-4.323 3.791-4.323 1.303 0 2.192.592 2.192 1.776 0 1.362-1.185 2.369-4.561 2.369 0 1.066.355 1.717 1.54 1.717.592 0 1.066-.177 1.599-.414l.415 1.006c-.711.356-1.481.533-2.31.533-1.777 0-2.666-1.066-2.666-2.664zm1.6-1.362c2.547 0 3.021-.533 3.021-1.125 0-.474-.415-.711-1.007-.711-.948 0-1.718.77-2.014 1.836z"/><path d="m643.16 795.517-1.126 6.336h-.888l-.119-.71h-.059c-.533.533-1.184.829-2.014.829-1.48 0-2.073-1.066-2.073-2.665 0-2.309 1.422-4.323 3.791-4.323.948.06 1.718.237 2.488.533zm-4.916 3.731c0 1.007.355 1.599 1.125 1.599.652 0 1.185-.355 1.658-.948l.593-3.493c-.356-.119-.711-.237-1.244-.237-1.244 0-2.132 1.362-2.132 3.079z"/><path d="m648.55 799.783c0 1.362-1.244 2.191-2.903 2.191-.829 0-1.599-.177-2.132-.473l.651-1.066c.474.237 1.007.355 1.659.355.592 0 1.362-.296 1.362-.947 0-.592-.592-.77-1.244-1.007-.651-.237-1.599-.829-1.599-1.895 0-1.362 1.125-2.013 2.606-2.013.77 0 1.54.177 2.133.473l-.593 1.007c-.474-.178-1.007-.355-1.599-.355s-1.185.237-1.185.829c0 .533.593.77 1.067.947.829.415 1.777.948 1.777 1.954z"/><path d="m649.794 799.37c0-2.31 1.362-4.323 3.791-4.323 1.303 0 2.191.592 2.191 1.776 0 1.362-1.184 2.369-4.561 2.369 0 1.066.356 1.717 1.541 1.717.592 0 1.066-.177 1.599-.414l.414 1.006c-.71.356-1.48.533-2.31.533-1.777 0-2.665-1.066-2.665-2.664zm1.599-1.362c2.547 0 3.021-.533 3.021-1.125 0-.474-.415-.711-1.007-.711-.948 0-1.718.77-2.014 1.836z"/><path d="m656.309 801.144c0-.533.356-.888.889-.888s.888.355.888.888c0 1.244-.829 2.132-1.954 2.546l-.237-.473c.533-.296 1.066-.711 1.184-1.244-.414 0-.77-.355-.77-.829z"/><path d="m669.34 797.652c0 2.368-1.421 4.322-3.791 4.322-.533 0-.947-.118-1.421-.355l-.474 2.843-1.422.236 1.718-9.652h.948l.118.711h.059c.474-.474 1.007-.829 1.896-.829 1.54.118 2.369 1.006 2.369 2.724zm-1.421.118c0-1.066-.474-1.599-1.363-1.599-.533 0-1.125.356-1.599.829l-.592 3.376c.355.296.829.473 1.421.473 1.303 0 2.133-1.421 2.133-3.079z"/><path d="m674.612 796.406c-.178-.06-.355-.119-.652-.119-.77 0-1.362.77-1.658 1.658l-.711 3.908h-1.362l1.185-6.75h.947l.06 1.066h.059c.474-.711 1.007-1.185 1.954-1.185.297 0 .593.06.83.119z"/><path d="m681.542 795.517-1.125 6.336h-.889l-.118-.71h-.059c-.533.533-1.185.829-2.014.829-1.481 0-2.073-1.066-2.073-2.665 0-2.309 1.421-4.323 3.79-4.323.948.06 1.718.237 2.488.533zm-4.916 3.731c0 1.007.355 1.599 1.125 1.599.652 0 1.185-.355 1.659-.948l.592-3.493c-.355-.119-.711-.237-1.244-.237-1.244 0-2.132 1.362-2.132 3.079z"/><path d="m682.372 799.37c0-2.428 1.539-4.323 3.909-4.323.711 0 1.303.118 1.836.355l-.592 1.066c-.415-.178-.889-.296-1.422-.296-1.244 0-2.251 1.303-2.251 3.079 0 1.066.593 1.599 1.481 1.599.474 0 1.066-.118 1.54-.296l.296 1.066c-.592.237-1.362.414-2.073.414-1.777 0-2.724-1.066-2.724-2.664z"/><path d="m690.249 793.506 1.422-.236-.356 1.894h2.014l-.473 1.126h-1.777l-.652 3.671v.237c0 .474.296.651.77.651.355 0 .592-.059 1.007-.177l.118 1.125c-.533.177-1.007.237-1.48.237-1.067 0-1.777-.415-1.777-1.54 0-.178 0-.355.059-.592l.652-3.612h-1.126l.178-1.126h1.125z"/><path d="m693.507 796.291.474-1.125h2.31l-1.185 6.751h-1.362l.948-5.567h-1.185zm2.429-3.908c.473 0 .829.355.829.829s-.356.829-.829.829c-.474 0-.83-.355-.83-.829s.415-.829.83-.829z"/><path d="m701.741 799.783c0 1.362-1.244 2.191-2.903 2.191-.829 0-1.599-.177-2.132-.473l.651-1.066c.474.237 1.007.355 1.659.355.592 0 1.362-.296 1.362-.947 0-.592-.592-.77-1.244-1.007-.651-.237-1.599-.829-1.599-1.895 0-1.362 1.126-2.013 2.606-2.013.77 0 1.54.177 2.133.473l-.593 1.007c-.474-.178-1.007-.355-1.599-.355s-1.185.237-1.185.829c0 .533.593.77 1.067.947.77.415 1.777.948 1.777 1.954z"/><path d="m702.984 799.37c0-2.31 1.363-4.323 3.791-4.323 1.303 0 2.192.592 2.192 1.776 0 1.362-1.185 2.369-4.561 2.369 0 1.066.355 1.717 1.54 1.717.592 0 1.066-.177 1.599-.414l.415 1.006c-.711.356-1.481.533-2.31.533-1.836 0-2.666-1.066-2.666-2.664zm1.54-1.362c2.547 0 3.021-.533 3.021-1.125 0-.474-.414-.711-1.007-.711-.888 0-1.658.77-2.014 1.836z"/><path d="m717.615 799.783c0 1.362-1.244 2.191-2.902 2.191-.83 0-1.6-.177-2.133-.473l.652-1.066c.474.237 1.007.355 1.658.355.593 0 1.363-.296 1.363-.947 0-.592-.593-.77-1.244-1.007-.652-.237-1.599-.829-1.599-1.895 0-1.362 1.125-2.013 2.606-2.013.77 0 1.54.177 2.132.473l-.592 1.007c-.474-.178-1.007-.355-1.599-.355-.593 0-1.185.237-1.185.829 0 .533.592.77 1.066.947.829.415 1.777.948 1.777 1.954z"/><path d="m722.709 795.047c1.718 0 2.547 1.066 2.547 2.665 0 2.309-1.422 4.322-3.791 4.322-1.658 0-2.547-.888-2.547-2.664 0-2.369 1.422-4.323 3.791-4.323zm-1.066 5.803c1.244 0 2.191-1.362 2.191-3.079 0-1.066-.473-1.599-1.362-1.599-1.244 0-2.191 1.362-2.191 3.079.059 1.066.533 1.599 1.362 1.599z"/><path d="m726.322 799.37c0-2.428 1.54-4.323 3.909-4.323.711 0 1.303.118 1.836.355l-.592 1.066c-.415-.178-.889-.296-1.422-.296-1.243 0-2.25 1.303-2.25 3.079 0 1.066.592 1.599 1.48 1.599.474 0 1.066-.118 1.54-.296l.296 1.066c-.592.237-1.362.414-2.073.414-1.777 0-2.724-1.066-2.724-2.664z"/><path d="m732.482 796.291.474-1.125h2.31l-1.184 6.751h-1.363l1.007-5.567h-1.244zm2.429-3.908c.474 0 .829.355.829.829s-.355.829-.829.829-.829-.355-.829-.829.414-.829.829-.829z"/><path d="m742.492 795.517-1.125 6.336h-.889l-.118-.71h-.06c-.533.533-1.184.829-2.013.829-1.481 0-2.074-1.066-2.074-2.665 0-2.309 1.422-4.323 3.791-4.323.948.06 1.718.237 2.488.533zm-4.916 3.731c0 1.007.355 1.599 1.125 1.599.652 0 1.185-.355 1.659-.948l.592-3.493c-.355-.119-.711-.237-1.244-.237-1.244 0-2.132 1.362-2.132 3.079z"/><path d="m745.927 801.795c-.473.177-.769.177-1.125.177-.948 0-1.421-.414-1.421-1.302 0-.178 0-.356.059-.593l1.362-7.875 1.422-.237-1.422 8.172v.237c0 .355.178.473.474.473.237 0 .355-.059.592-.118z"/><path d="m754.22 795.045c.593 0 1.066.119 1.422.297l.533-3.08 1.422-.237-1.718 9.89h-.889l-.118-.711h-.059c-.593.533-1.244.829-2.133.829-1.362 0-2.191-.888-2.191-2.665-.06-2.368 1.362-4.323 3.731-4.323zm.652 4.856.592-3.316c-.355-.296-.829-.474-1.421-.474-1.244 0-2.192 1.362-2.192 3.08 0 1.065.474 1.598 1.362 1.598.652.06 1.185-.296 1.659-.888z"/><path d="m757.952 796.291.474-1.125h2.31l-1.185 6.751h-1.362l1.007-5.567h-1.244zm2.488-3.908c.474 0 .829.355.829.829s-.355.829-.829.829-.829-.355-.829-.829.355-.829.829-.829z"/><path d="m766.185 799.783c0 1.362-1.244 2.191-2.902 2.191-.83 0-1.6-.177-2.133-.473l.652-1.066c.474.237 1.007.355 1.658.355.593 0 1.362-.296 1.362-.947 0-.592-.592-.77-1.243-1.007-.652-.237-1.6-.829-1.6-1.895 0-1.362 1.126-2.013 2.607-2.013.77 0 1.54.177 2.132.473l-.592 1.007c-.474-.178-1.007-.355-1.6-.355-.592 0-1.184.237-1.184.829 0 .533.592.77 1.066.947.829.415 1.777.948 1.777 1.954z"/><path d="m769.206 793.506 1.422-.236-.356 1.894h2.014l-.474 1.126h-1.777l-.651 3.671v.237c0 .474.296.651.77.651.355 0 .592-.059 1.007-.177l.118 1.125c-.533.177-1.007.237-1.481.237-1.066 0-1.777-.415-1.777-1.54 0-.178 0-.355.059-.592l.652-3.612h-1.125l.177-1.126h1.126z"/><path d="m778.743 795.517-1.126 6.336h-.888l-.118-.71h-.06c-.533.533-1.184.829-2.014.829-1.48 0-2.073-1.066-2.073-2.665 0-2.309 1.422-4.323 3.791-4.323.948.06 1.718.237 2.488.533zm-4.916 3.731c0 1.007.355 1.599 1.125 1.599.651 0 1.185-.355 1.659-.948l.592-3.493c-.356-.119-.711-.237-1.244-.237-1.244 0-2.132 1.362-2.132 3.079z"/><path d="m780.757 801.853h-1.363l1.185-6.75h1.007l.118.71h.06c.651-.592 1.303-.829 2.013-.829 1.244 0 1.837.593 1.837 1.836 0 .237 0 .592-.06.888l-.71 4.205h-1.363l.711-4.086c.059-.237.059-.415.059-.592 0-.711-.296-1.007-.947-1.007-.533 0-1.185.414-1.659.947z"/><path d="m786.68 799.37c0-2.428 1.54-4.323 3.909-4.323.711 0 1.303.118 1.836.355l-.592 1.066c-.415-.178-.888-.296-1.421-.296-1.244 0-2.251 1.303-2.251 3.079 0 1.066.592 1.599 1.481 1.599.473 0 1.066-.118 1.539-.296l.297 1.066c-.593.237-1.363.414-2.074.414-1.777 0-2.724-1.066-2.724-2.664z"/><path d="m792.84 796.291.474-1.125h2.31l-1.185 6.751h-1.362l1.007-5.567h-1.244zm2.428-3.908c.474 0 .83.355.83.829s-.356.829-.83.829c-.473 0-.829-.355-.829-.829s.415-.829.829-.829z"/><path d="m797.697 801.853h-1.363l1.185-6.75h.948l.118.71h.059c.652-.592 1.304-.829 2.014-.829 1.244 0 1.837.593 1.837 1.836 0 .237 0 .592-.06.888l-.71 4.205h-1.363l.711-4.086c.059-.237.059-.415.059-.592 0-.711-.296-1.007-.947-1.007-.534 0-1.185.414-1.659.947z"/><path d="m807.589 802.094.178-.829h-.059c-.593.533-1.185.769-1.896.769-1.481 0-2.192-.888-2.192-2.664 0-2.31 1.481-4.323 3.85-4.323.948 0 1.777.178 2.666.533l-1.185 6.632c-.296 1.777-1.54 2.606-3.435 2.606-.889 0-1.599-.178-2.31-.533l.592-1.125c.533.296 1.126.532 1.837.532 1.066-.059 1.776-.473 1.954-1.598zm-2.606-2.843c0 1.066.414 1.599 1.303 1.599.533 0 1.185-.355 1.718-.947l.592-3.553c-.414-.178-.829-.237-1.362-.237-1.244.059-2.251 1.421-2.251 3.138z"/><path d="m642.034 620.594c-5.568 0-10.01 4.441-10.01 10.007 0 5.507 4.501 10.008 10.01 10.008 5.568 0 10.01-4.441 10.01-10.008 0-5.507-4.501-10.007-10.01-10.007zm-2.902 69.52h4.62v38.313h10.306v-73.843c13.505 1.184 20.613-8.705 21.798-21.081l-10.129-.651c-1.185 15.337-9.655 11.606-23.93 11.606-21.501 0-32.637 17.706-26.418 39.32l8.53-1.718c-1.896-10.363-1.066-18.653 5.805-23.39v21.022c-.06 12.435-1.718 30.851-9.478 44.234l9.004 5.211c6.93-11.961 9.181-25.344 9.892-39.023z"/><path d="m692.441 673.592v15.751h-3.258v-12.672h-2.725l.474-3.079z"/><path d="m696.172 689.461c-.651-.178-1.184-.829-1.184-1.599 0-1.007.77-1.717 1.718-1.717 1.066 0 1.717.829 1.717 1.835 0 1.954-.947 3.553-2.665 4.56l-.889-1.007c.711-.651 1.244-1.303 1.303-2.072z"/><path d="m704.821 681.823c-1.836 0-3.495.533-3.495.533v-8.764h8.826l-.474 3.079h-5.153v2.309c.296-.059.533-.059.77-.059 2.902 0 5.39 1.777 5.39 5.33 0 3.434-2.725 5.329-5.568 5.329-1.955 0-3.495-.533-4.798-1.303l1.659-2.664c.829.533 1.777.947 2.961.947 1.185 0 2.37-.829 2.37-2.309.118-1.777-1.066-2.428-2.488-2.428z"/><path d="m722.353 683.126h.059l2.311-5.271h3.731v11.429h-3.258v-6.218h-.059l-1.658 3.909h-2.073l-1.659-3.909h-.059v6.218h-3.258v-11.429h3.732z"/><path d="m678.047 685.969-2.191 2.191-6.753-6.751 6.753-6.751 2.191 2.191-4.62 4.56z"/><path d="m742.729 681.467-4.62-4.559 2.192-2.191 6.752 6.75-6.752 6.751-2.192-2.191z"/><path d="m784.37 620.475c-5.568 0-10.129 4.5-10.129 10.066 0 5.567 4.502 10.067 10.129 10.067s10.129-4.5 10.129-10.067c0-5.566-4.502-10.066-10.129-10.066zm-9.655 49.919c0 10.008-.829 11.843-2.843 17.883-4.739 14.331-5.686 25.345-5.746 40.149h10.485c.059-14.982.71-23.627 5.686-38.135h2.843v38.135h10.07v-72.185c.888.652 1.658 1.421 2.25 2.31 4.739 6.75 3.85 17.883 2.073 25.463l8.648 2.191c2.488-10.482 3.554-23.746-2.961-33.043-9.063-12.968-32.697-12.968-41.759 0-6.516 9.297-5.449 22.561-2.962 33.043l8.648-2.191c-1.777-7.521-2.665-18.713 2.073-25.463.889-1.244 2.014-2.251 3.317-3.08v.119z"/></g></svg>