<?xml version="1.0" encoding="UTF-8"?><svg id="a" xmlns="http://www.w3.org/2000/svg" viewBox="0 0 774.539 145"><defs><style>.b{fill:#fff;stroke-width:0px;}</style></defs><path class="b" d="m40.077,85.998h-2.783V3.061H0v139.155h34.511L111.881,58.167h2.783v84.05h37.294V3.061h-33.954L40.077,85.998Zm211.795-51.209c17.812,0,25.883,8.906,25.883,21.152h38.129c0-32.006-19.482-55.94-60.672-55.94-51.209,0-91.286,41.468-91.286,89.338,0,34.789,21.43,55.662,60.393,55.662,39.52,0,70.134-25.605,81.545-58.445h-39.798c-5.566,12.524-19.482,22.543-40.077,22.543-15.585,0-23.935-9.184-23.935-23.935,0-26.718,22.543-50.374,49.818-50.374h0Zm426.094,72.917v-35.624h38.964c12.802,0,19.76,8.071,19.76,17.812s-6.958,17.812-19.76,17.812h-38.964Zm-203.167-70.134h59.837v2.783l-57.054,99.079v2.783h43.138l60.115-104.645h51.766V3.061h-157.802v34.511Zm-147.505,104.645h135.537v-34.511h-98.244V37.572h98.244V3.061h-135.537v139.155Zm390.47,0c36.737,0,56.775-24.213,56.775-52.322s-20.038-52.322-56.775-52.322h-39.798V3.061h-37.294v139.155h77.092Zm-254.933-80.432c-6.958-7.514-15.307-8.906-23.378-8.906-15.307,0-25.605,8.628-39.798,8.628-7.514,0-13.637-1.113-20.038-7.514h-2.783v29.501c6.958,7.514,15.307,8.906,23.378,8.906,15.307,0,25.605-8.628,39.798-8.628,7.514,0,13.637,1.113,20.038,7.514h2.783v-29.501Z"/></svg>