<svg xmlns="http://www.w3.org/2000/svg" xmlns:xlink="http://www.w3.org/1999/xlink" viewBox="0 0 1400 1400"><defs><style>.a{fill:none;}.b{clip-path:url(#a);}.c{fill:#ffd400;}.d{opacity:0.9;}.e{opacity:0.7;}.f{opacity:0.6;}.g{opacity:0.5;}.h{opacity:0.4;}.i{opacity:0.8;}</style><clipPath id="a"><rect class="a" width="1400" height="1400"/></clipPath></defs><g class="b"><rect width="1400" height="1400"/><path class="c" d="M189.61,756.325,165.926,758.4l-4.386-57.3,16.448-1.44c16.667-23.607,22.368-66.874,22.368-117.317v-12.72l94.081-8.231V689.472l20.833-1.823-4.387,58.066L287.2,747.787V715.546l-97.589,8.539Zm76.756-64.4V589.287l-38.6,3.377v4.825c0,38.162-7.676,76.776-19.079,99.485Z"/><path class="c" d="M406.721,637.978l-.658.058L360.887,709.1l-24.78,2.168V599.416l27.193-2.379v67.111l.658-.057,45.174-71.064,24.782-2.169V702.71l-27.193,2.38Z"/><path class="c" d="M520.761,635.677v.659c14.911,2.2,23.9,10.629,23.9,25.322,0,20.178-16.667,35.016-48.026,37.76-12.94,1.132-29.166-.082-38.6-3.425l8.554-22.459c7.456,2.2,19.737,3.316,29.385,2.472,12.283-1.074,21.054-6.446,21.054-14.342,0-7.677-6.8-12.126-21.272-10.859l-14.037,1.227V630.32l13.818-1.209c9.43-.825,16.665-4.748,16.665-13.082,0-6.8-5.482-10.266-16.007-9.345a100.409,100.409,0,0,0-28.51,7.1l-8.552-20.963c10.307-5.069,28.728-8.876,39.256-9.8,25-2.186,41.445,6.024,41.445,25.545C539.838,620.631,534.138,630.779,520.761,635.677Z"/><path class="c" d="M624.928,612.747c0-10.748-5.483-16.846-18.86-15.676-9.431.825-19.518,3.9-29.826,8.531l-8.113-21.221a118.143,118.143,0,0,1,40.57-11.008c34.212-2.993,43.421,14.187,43.421,37.434v42.546c0,5.484,3.07,7.628,7.895,7.206l2.413-.211v21.274c-3.29,1.6-10.089,3.075-15.571,3.555-9.869.863-16.229-2.308-19.737-9.019l-.878.076c-7.895,8.586-16.665,12.2-29.385,13.317-21.272,1.861-34.651-7.494-34.651-30.305,0-21.493,17.106-35.051,41.889-37.22l20.833-1.823Zm0,41.011v-12.72l-19.956,1.746c-10.089.883-15.791,6.427-15.791,13.663,0,7.458,5.482,10.926,12.062,10.35C610.234,666.011,619.006,661.076,624.928,653.758Z"/><path class="c" d="M754.971,607.51l-.657.057-45.175,71.064L684.357,680.8V568.948l27.193-2.379v67.112l.657-.058,45.176-71.064,24.783-2.168V672.243l-27.2,2.379Zm15.571-84.482c-8.334,15.641-21.272,24.449-37.282,25.849s-28.946-5.361-37.279-19.326l16.665-12.425c4.606,9.247,11.623,13.9,20.614,13.11s16.01-6.446,20.615-16.717Z"/><path class="c" d="M906.95,661.325l-27.2,2.379V617.866l-37.5,3.281v45.838l-27.195,2.379V557.512l27.195-2.379v42.548l37.5-3.281V551.853l27.2-2.379Z"/><path class="c" d="M510.865,738.566l-4.386,23.85-40.351,3.529v88.386l-27.193,2.379V744.858Z"/><path class="c" d="M518.545,793.819c0-36.407,21.49-60,52.631-62.724s52.633,17.108,52.633,53.514-21.491,60-52.633,62.726S518.545,830.227,518.545,793.819Zm27.632-2.418c0,21.713,10.526,33.732,25,32.466s25-15.128,25-36.841-10.527-33.729-25-32.463S546.177,769.69,546.177,791.4Z"/><path class="c" d="M676.005,733.768a45.57,45.57,0,0,1,28.947-14.377c31.579-2.763,45.834,20.336,45.834,54.109s-14.473,59.387-47.808,62.3a80.578,80.578,0,0,1-25.658-1.7v45.619l-27.193,6.766v-160.1l20.614-1.8,4.386,9.265Zm47.149,42.15c0-20.4-8.334-33.923-24.78-32.483-7.458.652-14.913,5.47-21.054,12.808v52.416a40.22,40.22,0,0,0,21.931,4C713.945,811.376,723.154,797.851,723.154,775.918Z"/><path class="c" d="M770.527,771.773c0-36.406,21.49-60,52.63-62.724s52.633,17.109,52.633,53.515-21.49,60-52.633,62.726S770.527,808.181,770.527,771.773Zm27.632-2.418c0,21.713,10.525,33.733,25,32.466s25-15.127,25-36.839-10.525-33.731-25-32.465S798.159,747.645,798.159,769.355Z"/><path class="c" d="M898.382,793.048c10.965-20.48,14.035-39.61,14.035-77.333V703.434l76.753-6.715v88.386l17.766-1.554-4.387,51.7-22.808,2V809.4l-69.08,6.044v27.854l-22.806,2-4.387-50.936Zm40.132-68.431c0,24.785-2.193,48.224-11.185,65.9l34.65-3.032v-64.92Z"/><path class="c" d="M1017.906,750.13c0-36.407,21.493-60,52.631-62.724s52.632,17.108,52.632,53.514-21.492,60-52.632,62.726S1017.906,786.538,1017.906,750.13Zm27.632-2.417c0,21.713,10.526,33.732,25,32.465s25-15.127,25-36.84-10.528-33.73-25-32.464S1045.538,726,1045.538,747.713Z"/><path class="c" d="M1238.526,755.392c0,19.3-12.72,32.476-38.16,34.7l-50.879,4.451V682.693l46.493-4.067c21.492-1.881,37.939,4.137,37.939,24.314,0,12.063-6.578,21.192-19.078,26.452v.659C1229.312,732.294,1238.526,740.7,1238.526,755.392Zm-61.844-51.612v19.739l14.034-1.228c9.871-.863,15.571-4.213,15.571-11.23,0-7.238-6.8-9.276-15.571-8.509Zm0,41.452V768.7l17.763-1.554c10.307-.9,16.449-5.168,16.449-13.5s-6.142-10.869-16.449-9.966Z"/><g class="d"><path class="c" d="M1037.993,231.326l-9.692-7.555,17.693-25.822,5.679,4.427c12.608-4.308,24.8-16.506,40.4-36.532l5.3-6.791,33.92,26.443L1093.013,234.6l6.815,5.312-20.722,23.461-9.691-7.555,9.978-12.8-31.423-24.5Zm43.814-5.457,29.047-37.267-11.887-9.268-1.492,1.916c-11.81,15.15-23.033,25.02-33.688,30.57Z"/><path class="c" d="M1163.642,253.92l-.205-.2L1109.7,270.232l-9.162-9.166,54.655-54.634,10.045,10.049L1130.107,251.6l.2.2,53.732-16.516,9.163,9.166-54.656,54.635-10.045-10.05Z"/><path class="c" d="M1200.937,310.613c3.563,7.108,2.857,15.417-5.333,21.967-12.331,9.859-26.111,5.883-34.746-4.914a36.173,36.173,0,0,1-7.957-20.557l14.457-2.957a26.457,26.457,0,0,0,5.226,14.137c4.2,5.248,10.085,6.072,14.483,2.556,4.743-3.792,5.11-8.635-.046-15.083l-5.158-6.449,10.866-8.688,5.155,6.449c3.477,4.349,8.72,5.072,12.773,1.832,2.932-2.344,4.45-6.631.373-11.73a30.471,30.471,0,0,0-10.98-8.429l6.834-12.842a38.378,38.378,0,0,1,16.172,12.269c7.495,9.373,9.76,21.574-.758,29.986-6.985,5.585-14.331,6.3-21.017,2.178Z"/><path class="c" d="M1217.3,377.779l-10.574-16.371-15.4,5.26-8.073-12.5,76.578-23.864,7.657,11.854-53.245,59.993-8.073-12.5Zm28.546-29.867-.209-.322-24.6,8.917,6.615,10.242Z"/><path class="c" d="M1282.756,427.246l-.128-.26-56.191-1.628-5.729-11.624,69.321-34.168,6.281,12.745-44.563,21.964.127.258,56.191,1.629,5.729,11.625-69.32,34.168-6.281-12.744Zm41.988-24.442-2.5,10.653c-8.148-.8-13.751-3.926-17.358-11.245s-2.673-13.665,1.656-20.615l9.974,4.5c-2.632,3.651-4.216,7.429-2.222,11.475S1320.246,402.666,1324.744,402.8Z"/><path class="c" d="M1301.562,478.023l7.349,21.026,28.137-9.834,4.687,13.412-72.95,25.5-4.685-13.413L1294.737,504l-7.346-21.025-30.639,10.709-4.687-13.413,72.95-25.5,4.685,13.413Z"/><path class="c" d="M1344.844,580.231l-61.237,11.291-2.576-13.972,76-14.015,7.135,38.709-15.113.834Z"/><path class="c" d="M1290.376,650.821c-1.667-20.381,14.377-30.071,37.266-31.94s40.292,5.09,41.957,25.471-14.379,30.07-37.266,31.939S1292.042,671.2,1290.376,650.821Zm64.259-5.248c-.791-9.664-11.391-13.325-25.805-12.147s-24.28,6.509-23.49,16.173,11.39,13.325,25.805,12.148S1355.425,655.236,1354.635,645.573Z"/><path class="c" d="M1352.55,737.05a24.01,24.01,0,0,0,3.785-11.987c.27-9.02-9.272-14.974-24.278-15.426s-24.888,4.914-25.157,13.84a23.871,23.871,0,0,0,3.8,13.271l-13.42,5.551a35.234,35.234,0,0,1-5.362-20.043c.62-20.631,17.632-28.09,40.585-27.4s39.486,9.162,38.866,29.793a36.827,36.827,0,0,1-5.526,18.562Z"/><path class="c" d="M1328.509,783.523l-.037.287,34.885,15.891-2.03,15.518L1303.7,787.637c-9.112-4.388-16.444-10.479-15.249-19.617a17.666,17.666,0,0,1,5.327-10.923l11.644,8.01a5.82,5.82,0,0,0-1.92,3.622c-.212,1.619.646,3.571,4.728,5.557l4.083,1.986.546-4.188,55.705-12.174-2.068,15.8Z"/><path class="c" d="M1266.591,812.148l2.81-11.96,30.856,5.277-1.646,7.008c9.188,9.652,25.364,15.623,50.085,21.429l8.384,1.97-9.835,41.866L1286.624,863.5l-1.976,8.41-29.977-9.014,2.808-11.962,15.8,3.712,9.112-38.783Zm23.281,37.518,46,10.807,3.446-14.672-2.364-.555c-18.7-4.393-32.36-10.462-41.86-17.82Z"/><path class="c" d="M1269.6,916.5l6.63-18.325-13.507-9.07,5.063-13.993,65.358,46.5-4.8,13.27-79.99-6.063,5.063-13.992Zm41.057,4.64.13-.362L1288.8,906.6l-4.149,11.465Z"/><path class="c" d="M1259.934,965.2l-23.424-11.406,6.22-12.775,69.48,33.836-10.047,20.627c-5.591,11.48-17.934,16.148-32.821,8.9s-18.824-19.846-13.234-31.324Zm9.968,13.824c-2.06,4.23-.085,9.248,5.871,12.149s11.125,1.361,13.186-2.868l3.53-7.25-19.056-9.281Z"/><path class="c" d="M1246.333,1058.751a23.987,23.987,0,0,0,9.28-8.482c4.752-7.672-.525-17.6-13.291-25.507s-24.009-8.2-28.709-.615a23.849,23.849,0,0,0-3.358,13.39l-14.4-1.914a35.223,35.223,0,0,1,5.4-20.034c10.869-17.548,29.332-15.487,48.855-3.4s29.6,27.7,18.727,45.248a36.844,36.844,0,0,1-14.082,13.3Z"/><path class="c" d="M1215.621,1104.955l-49.335-37.985,8.669-11.257,49.335,37.985,11.6-15.061,11.894,9.16-31.92,41.455-10.724-10.682Z"/><path class="c" d="M1145.687,1092.188l56.1,53.148-15.117,15.961c-8.25,8.712-18.144,11.771-27.92,2.508-7.373-6.986-7.831-14.692-4.968-20.443l-.322-.3c-7.492,4.539-15.676,4.189-23.451-3.175-11.461-10.859-8.485-22.188.558-31.736Zm9.23,38.1,5.545-5.854-12.984-12.3-5.612,5.925c-4.158,4.39-3.823,9.334.024,12.979S1150.691,1134.746,1154.917,1130.286Zm15.484,3.562-5.547,5.853c-3.234,3.415-2.079,7.815.805,10.549,3.046,2.885,7.342,3.648,10.84-.045l5.282-5.576Z"/><path class="c" d="M1089.193,1168.544l14.794-12.687-7.291-14.546,11.3-9.687,33.987,72.665-10.711,9.186-66.636-44.666,11.295-9.687Zm33.45,24.257.291-.25-12.158-23.172-9.255,7.936Z"/><path class="c" d="M1062.137,1227.936c-3.246,2.228-8.2.945-10.765-2.788s-1.977-8.819,1.268-11.046,8.2-.944,10.763,2.787S1065.382,1225.708,1062.137,1227.936Z"/><path class="c" d="M987.414,1200.812l10.867-5.736,16.281,26.736-6.368,3.36c-1.248,13.267,4.87,29.387,16.722,51.844l4.019,7.615L990.9,1304.7l-29.06-55.068-7.642,4.033-12.884-28.529,10.868-5.735,7.574,14.354,35.234-18.594ZM974.4,1243l22.055,41.79,13.328-7.034-1.133-2.149c-8.966-16.988-13.357-31.274-14.043-43.27Z"/><path class="c" d="M915.208,1306.082l.27-.1,7.043-55.774,12.125-4.582,27.321,72.292-13.291,5.023-17.564-46.473-.27.1-7.043,55.774-12.124,4.581-27.322-72.292,13.292-5.023Z"/><path class="c" d="M848.161,1316.708c-7.944.313-15.222-3.757-17.808-13.921-3.9-15.3,5.412-26.211,18.808-29.621a36.163,36.163,0,0,1,22.008,1.232l-3.272,14.389a26.448,26.448,0,0,0-15.033-1.072c-6.511,1.658-9.69,6.681-8.3,12.139,1.5,5.883,5.757,8.216,13.758,6.179l8-2.036,3.433,13.48-8,2.037c-5.4,1.373-8.219,5.851-6.938,10.879.926,3.637,4.206,6.789,10.532,5.179a30.485,30.485,0,0,0,12.207-6.525l8.878,11.523a38.389,38.389,0,0,1-17.846,9.67c-11.629,2.96-23.678-.01-27-13.061-2.206-8.665.176-15.652,6.686-20.043Z"/><path class="c" d="M780.2,1303.869l19.281-2.856,1.58-16.195,14.72-2.179-9.952,79.6-13.96,2.069-32.594-73.3,14.719-2.182Zm15.385,38.346.38-.057,2.058-26.086-12.063,1.787Z"/><path class="c" d="M708.086,1342.972l.288-.009,24.742-50.477,12.954-.4,2.409,77.243-14.2.444-1.548-49.657-.288.009L707.7,1370.6l-12.952.4-2.41-77.242,14.2-.443Zm4.868,48.337-8.66-6.688c4.1-7.087,9.266-10.892,17.422-11.148s13.546,3.223,18.081,10.041l-8.227,7.215c-2.235-3.908-5.018-6.914-9.527-6.773S714.942,1387.271,712.954,1391.309Z"/><path class="c" d="M654.123,1339.107l-22.185-1.973-2.64,29.69-14.153-1.258,6.849-76.976,14.152,1.258-2.876,32.33,22.184,1.974,2.877-32.33,14.151,1.258-6.848,76.977-14.153-1.259Z"/><path class="c" d="M572.129,1279.876,552.393,1354.6l-48.731-12.87,19.736-74.719,13.739,3.627-15.9,60.2,21.256,5.613,15.9-60.2Z"/><path class="c" d="M481.762,1279.729l9.416-24.3,13.248,5.132L476.5,1332.625l-21.395-8.289c-11.906-4.613-17.585-16.524-11.6-31.965s18.207-20.413,30.112-15.8Zm-12.944,11.085c-4.387-1.7-9.223.688-11.618,6.865s-.428,11.2,3.958,12.9l7.519,2.914,7.66-19.763Z"/><path class="c" d="M426.657,1225.408c18.138,9.444,17.8,28.187,7.192,48.556s-25.762,31.4-43.9,21.953-17.8-28.187-7.192-48.556S408.521,1215.965,426.657,1225.408ZM396.884,1282.6c8.6,4.477,17.344-2.546,24.022-15.374s7.418-24.02-1.181-28.5-17.344,2.544-24.024,15.374S388.283,1278.121,396.884,1282.6Z"/><path class="c" d="M386.112,1204.227l-43.8,63.662-11.705-8.053,35.293-51.294-18.742-12.9-35.294,51.293-11.7-8.052,35.294-51.293-7.118-4.9,19.292-24.65,10.123,6.965-9.2,13.369Z"/><path class="c" d="M326.413,1161.284l-50.563,58.445-30.2-26.13,11.276-10.1,18.729,16.2,9.679-11.187L268.784,1174.2l9.823-11.354,16.551,14.321,11.414-13.192-20.18-17.461,9.823-11.356Z"/><path class="c" d="M212.86,1135.553a23.977,23.977,0,0,0,5.82,11.141c6.2,6.558,17.15,4,28.062-6.312s14.084-21.1,7.952-27.591a23.858,23.858,0,0,0-12.084-6.677l5.542-13.426a35.221,35.221,0,0,1,17.982,10.347c14.177,15,7.453,32.318-9.238,48.092s-34.359,21.508-48.537,6.51a36.838,36.838,0,0,1-9.245-17.018Z"/><path class="c" d="M171.654,1084.568a24,24,0,0,0,4.682,11.668c5.515,7.143,16.666,5.691,28.551-3.484s16.113-19.594,10.658-26.66a23.873,23.873,0,0,0-11.358-7.849l6.85-12.807a35.238,35.238,0,0,1,16.861,12.089c12.613,16.338,4.2,32.9-13.977,46.931s-36.329,17.977-48.941,1.638a36.831,36.831,0,0,1-7.507-17.855Z"/><path class="c" d="M194.4,1008.411c10.669,17.445.711,33.327-18.878,45.308s-38.262,13.613-48.931-3.832-.711-33.326,18.879-45.309S183.732,990.967,194.4,1008.411Zm-55,33.642c5.061,8.271,16.173,6.763,28.511-.782s18.742-16.753,13.682-25.025-16.172-6.765-28.508.781S134.343,1033.781,139.4,1042.053Z"/><path class="c" d="M170.708,969.123l-70.061,32.625-9.28-19.93c-5.066-10.877-4.271-21.2,7.939-26.888,9.207-4.288,16.542-1.879,20.836,2.9l.4-.185c-1.465-8.638,1.87-16.122,11.578-20.643,14.313-6.665,23.754.27,29.306,12.193Zm-47.83,7.658-3.4-7.31c-1.987-4.264-6.5-4.809-10.106-3.131-3.8,1.771-6.093,5.485-3.944,10.1l3.242,6.962Zm9.008-13.09,3.4,7.312,16.214-7.552-3.445-7.4c-2.553-5.484-7.275-6.993-12.079-4.754S129.292,958.122,131.886,963.691Z"/><path class="c" d="M93.618,906.105c-1.269-3.725,1.305-8.152,5.589-9.611s9.025.473,10.3,4.2-1.3,8.153-5.588,9.613S94.889,909.832,93.618,906.105Z"/><path class="c" d="M139.929,841.512l2.575,12.013-30.147,8.43-1.509-7.039c-12.433-4.8-29.608-3.271-54.436,2.053l-8.42,1.8-9.016-42.049,60.883-13.057-1.812-8.447L129,790.547l2.577,12.014-15.869,3.4,8.353,38.952Zm-37.092-23.953-46.2,9.909L59.8,842.2l2.375-.509c18.783-4.029,33.724-4.385,45.457-1.8Z"/><path class="c" d="M58.2,743.488l.027.286,51.764,21.912,1.122,12.912-76.99,6.681-1.227-14.156,49.492-4.3-.025-.287-51.766-21.91-1.119-12.912,76.987-6.682,1.228,14.155Z"/><path class="c" d="M66.1,676.109c1.844-7.734,7.73-13.64,18.216-13.386,15.784.382,23.778,12.293,23.443,26.113a36.163,36.163,0,0,1-7.131,20.858l-12.971-7.036a26.46,26.46,0,0,0,5.092-14.185c.162-6.719-3.816-11.137-9.446-11.274-6.071-.147-9.468,3.323-9.667,11.578l-.2,8.253-13.908-.338.2-8.253c.135-5.568-3.414-9.494-8.6-9.621-3.753-.089-7.674,2.215-7.832,8.742a30.463,30.463,0,0,0,2.986,13.516l-13.495,5.435a38.371,38.371,0,0,1-4.489-19.8c.29-12,6.4-22.8,19.871-22.469,8.938.217,15.022,4.4,17.492,11.853Z"/><path class="c" d="M96.743,614.1,94.33,633.441l15.178,5.862-1.843,14.765L33.646,623.154l1.748-14,79.344-11.762L112.9,612.154ZM55.681,618.65l-.048.381L80.213,628l1.51-12.1Z"/><path class="c" d="M30.465,525.928l8.761-6.557c5.732,5.848,8.018,11.84,6.082,19.768S38.58,551.33,30.8,553.877l-4.753-9.857c4.362-1.11,8-2.987,9.073-7.37S33.824,528.922,30.465,525.928Zm47.88,8.234-.068.281,42.022,37.34-3.074,12.59L42.148,566.037l3.371-13.8,48.263,11.787.07-.279L51.829,526.4l3.074-12.59,75.076,18.336-3.371,13.8Z"/><path class="c" d="M96.562,483.15l7.88-20.834-27.88-10.545,5.028-13.289,72.283,27.338-5.028,13.291-30.358-11.482L110.6,488.462l30.361,11.482-5.028,13.29L63.652,485.9l5.029-13.29Z"/><path class="c" d="M175.972,420.18l-66.806-38.842,11.052-19.006c6.032-10.373,14.958-15.621,26.6-8.852,8.781,5.1,10.993,12.5,9.527,18.754l.381.222c6.251-6.138,14.3-7.679,23.555-2.3,13.648,7.936,13.351,19.646,6.739,31.015Zm-33.616-34.869,4.055-6.971c2.364-4.067.232-8.084-3.2-10.082-3.627-2.109-7.983-1.864-10.54,2.534l-3.861,6.64Zm15.89-.09-4.055,6.97,15.461,8.99,4.1-7.054c3.04-5.229,1.581-9.965-3-12.628S161.334,379.908,158.246,385.221Z"/><path class="c" d="M191.876,319.932c5.915-5.315,14.116-6.827,22.6-.657,12.766,9.289,12.571,23.631,4.436,34.811a36.17,36.17,0,0,1-17.726,13.1l-6.67-13.164a26.483,26.483,0,0,0,12.257-8.773c3.953-5.435,3.191-11.331-1.362-14.644-4.91-3.573-9.679-2.649-14.536,4.027l-4.857,6.677-11.249-8.185,4.857-6.676c3.276-4.5,2.59-9.752-1.6-12.805-3.037-2.208-7.574-2.541-11.414,2.739a30.469,30.469,0,0,0-5.23,12.816L147.183,326a38.388,38.388,0,0,1,7.562-18.838c7.061-9.7,18.232-15.111,29.123-7.186,7.232,5.261,9.859,12.16,7.652,19.7Z"/><path class="c" d="M252.358,286.406l-13,14.516,9.136,13.465-9.928,11.084L195.338,257.9l9.413-10.511,71.922,35.537-9.927,11.084Zm-36.343-19.658-.256.286,15.094,21.376,8.133-9.082Z"/><path class="c" d="M282.765,210.223l-.215.191,13.279,54.624-9.695,8.6-51.269-57.821,10.629-9.428,32.959,37.172.216-.192-13.281-54.624,9.7-8.6,51.27,57.82-10.629,9.428Z"/><path class="c" d="M368.075,195.576l-10.9,7.36-27.5-22.2-.24.16L351.079,219.3l-11.777,7.95-38.067-67.544,12.175-8.218,36.926,29.82.238-.162-13.848-45.4,12.175-8.218L397.312,188.1l-11.777,7.949-27.529-34.43-.239.16Z"/><path class="c" d="M435.812,169.529c-18.3,9.137-33.264-2.143-43.525-22.685S382,107.557,400.3,98.421s33.265,2.143,43.524,22.686S454.105,160.394,435.812,169.529Zm-28.807-57.677c-8.674,4.332-8.124,15.534-1.662,28.471S420.429,160.43,429.1,156.1s8.124-15.534,1.662-28.471S415.68,107.521,407.005,111.852Z"/><path class="c" d="M485.327,163.427l-11.563,4.158-12.378-28.75,6.775-2.437c3.093-12.96-.71-29.777-9.3-53.671l-2.914-8.1,40.473-14.551,21.069,58.592,8.13-2.924,8.765,30.049-11.564,4.158-5.491-15.271-37.491,13.48Zm18.79-39.956L488.129,79.008l-14.184,5.1.823,2.286c6.5,18.076,8.847,32.836,7.848,44.808Z"/><path class="c" d="M544.138,126.7,526.275,51.51l38.858-9.233,1.6,15.051-24.1,5.727,3.419,14.392,21.3-5.06L570.822,87l-21.3,5.06,4.032,16.97,25.966-6.17L583,117.463Z"/><path class="c" d="M633.963,59.84l-.286.035L613.59,112.381l-12.864,1.571-9.368-76.716,14.1-1.721,6.02,49.317.287-.035,20.086-52.506L644.72,30.72l9.367,76.716-14.1,1.722Zm-9.209-47.7,9.227,5.88c-3.446,7.428-8.244,11.684-16.343,12.673s-13.782-1.987-18.913-8.368l7.543-7.927c2.578,3.689,5.62,6.431,10.1,5.884S623.138,16.338,624.754,12.137Z"/><path class="c" d="M712.267,46.261a24,24,0,0,0-12.122-3.328c-9.025.07-14.613,9.829-14.494,24.842s5.859,24.683,14.786,24.614a23.881,23.881,0,0,0,13.12-4.3l6.055,13.2a35.235,35.235,0,0,1-19.824,6.116c-20.641.16-28.739-16.556-28.922-39.517s7.655-39.8,28.3-39.965a36.832,36.832,0,0,1,18.758,4.822Z"/><path class="c" d="M767.664,47.545l-5.734,62-14.148-1.31,5.734-62-18.927-1.752,1.382-14.949,52.1,4.821-3.294,14.773Z"/><path class="c" d="M794.27,113.461l14.9-75.832,21.573,4.236c11.776,2.314,19.652,9.036,17.056,22.252-1.96,9.967-8.227,14.475-14.617,15.132l-.085.433c7.842,3.9,11.926,11.006,9.862,21.514-3.045,15.492-14.21,19.036-27.116,16.5Zm27.255-28.176-7.913-1.555-3.449,17.551,8.009,1.573c5.934,1.166,9.933-1.762,10.956-6.961S827.554,86.471,821.525,85.285ZM816.251,70.3l7.914,1.554c4.616.907,7.716-2.422,8.482-6.323.809-4.116-.843-8.154-5.835-9.134l-7.538-1.48Z"/><path class="c" d="M908.2,91.018l-.274-.087-40.171,39.321-12.347-3.943,23.508-73.618,13.535,4.324L877.341,104.34l.275.088,40.17-39.323,12.347,3.944-23.508,73.619-13.535-4.324Z"/><path class="c" d="M956.525,133.543l-22.794,20.5-14.271-6.416,25.32-21.9c-4.722-6.117-5.931-15.135-1.449-25.1,6.338-14.1,18.938-18.477,29.532-13.716l20.314,9.131-31.69,70.485-12.959-5.825,11.5-25.576ZM967.5,100.95c-3.853-1.731-8.637.717-10.991,5.953s-.965,10.339,2.888,12.072l6.566,2.951,8.1-18.024Z"/><path class="c" d="M1022.251,146.23c3.4,1.983,4.357,7.013,2.078,10.924s-7.129,5.556-10.529,3.574-4.358-7.014-2.078-10.923S1018.851,144.248,1022.251,146.23Z"/></g><g class="e"><path class="c" d="M292,521.23l26.3,11.267-2.957,6.9-26.3-11.266-3.955,9.23-6.341-2.716,10.887-25.41,5.941,3.649Z"/><path class="c" d="M330.971,507.306c-5,9.576-13.878,9.917-23.229,5.033S293.6,499.975,298.6,490.4s13.877-9.919,23.23-5.034S335.973,497.729,330.971,507.306Zm-26.255-13.714c-2.372,4.54.706,8.838,6.6,11.914s11.173,3.146,13.545-1.394-.706-8.838-6.6-11.915S307.087,489.051,304.716,493.592Z"/><path class="c" d="M327.523,468.28l6.346-9.909-11.533-7.385,4.048-6.323,29.9,19.147-4.048,6.322-12.558-8.042L333.333,472l12.559,8.042-4.048,6.321-29.9-19.144,4.047-6.323Z"/><path class="c" d="M366,426.372l-1.774,2.153,11.507,9.485-4.453,5.4-27.4-22.582,4.452-5.4,10.567,8.711,1.839-2.232-5.5-14.855,5.227-6.341,6.568,18.824,21.507,2.938-4.9,6.742Z"/><path class="c" d="M401.073,410.129c-7.511,7.765-16.119,5.577-23.7-1.757s-10.057-15.864-2.547-23.629,16.119-5.578,23.7,1.757S408.583,402.364,401.073,410.129Zm-21.29-20.592c-3.561,3.682-1.828,8.676,2.947,13.294s9.824,6.185,13.385,2.5,1.827-8.674-2.948-13.293S383.344,385.855,379.783,389.537Z"/><path class="c" d="M429.849,376.289l-5.294,4.5-14.229-8.276-.115.1,11.646,16.6-5.718,4.861L395.65,364.886l5.912-5.028,19.109,11.119.116-.1-7.9-20.648,5.912-5.026,25.512,24.914-5.72,4.862-14.507-14.164-.115.1Z"/><path class="c" d="M465.153,349.787l-5.736,3.92-13.279-9.723-.125.086,9.84,17.725-6.2,4.234-17.308-31.171,6.406-4.379,17.832,13.062.126-.087-5.69-21.358,6.407-4.378,22.753,27.451-6.2,4.234L461.045,333.8l-.125.087Z"/><path class="c" d="M487.8,319.524l.133-.073L484.9,301.858l7.216-4.032,4.441,29.471c.691,4.668.151,9.211-4.1,11.585a10.278,10.278,0,0,1-6.179,1.42l.147-6.705a3.351,3.351,0,0,0,2.091-.414c.753-.421,1.347-1.333,1.046-3.431l-.3-2.1-1.948,1.088L466.4,312.2l7.349-4.106Z"/><path class="c" d="M512.037,303.474l10.7-4.889-5.689-12.459,6.829-3.117,14.75,32.3-6.829,3.118-6.2-13.567-10.7,4.889,6.2,13.566-6.829,3.118-14.749-32.3,6.829-3.118Z"/><path class="c" d="M559.94,283.11l-.143.051-5.543,26.144-6.46,2.272-11.776-33.5,7.082-2.489,7.571,21.535.143-.05,5.542-26.145,6.461-2.272,11.777,33.5-7.083,2.491Z"/><path class="c" d="M589.868,282.48l-2.7.7,3.735,14.436-6.776,1.755L575.231,265l6.777-1.753,3.431,13.259,2.8-.725,4.279-15.254,7.956-2.059-5.748,19.094L610.4,292.572l-7.926,2.574Z"/><path class="c" d="M631.387,281.418l-10.138,1.8-.783,7.5-7.741,1.371,5-36.94,7.341-1.3,17.377,32.976L634.7,288.2Zm-8.214-17.292-.2.034-1,12.076,6.342-1.123Z"/><path class="c" d="M648.756,286.025l-3.2-35.365,7.476-.677,2.575,28.5,11.975-1.083-2.576-28.5,7.477-.675,2.575,28.5,4.547-.412.284,14.39-6.467.584-.672-7.427Z"/><path class="c" d="M707.746,260.247h-.152l-13.94,22.8-6.846-.014.065-35.5,7.506.014-.041,22.822h.152l13.938-22.8,6.847.014-.064,35.5-7.507-.014Z"/><path class="c" d="M748,262.793l-.151-.014L731.865,284.2l-6.816-.642,3.336-35.348,7.473.7-2.144,22.724.151.014,15.982-21.418,6.816.644-3.336,35.349-7.473-.706Z"/><path class="c" d="M784.937,267.184a3.855,3.855,0,1,1-4.529,3.037A3.919,3.919,0,0,1,784.937,267.184Z"/><path class="c" d="M834.374,276.272a14.147,14.147,0,0,0-5.685-3.317c-4.574-1.35-8.708,2.085-10.661,8.7s-.345,11.745,4.179,13.08a13.949,13.949,0,0,0,7.212.118l1.294,6.73a20.645,20.645,0,0,1-10.847-.346c-10.461-3.087-12.316-11.674-9.331-21.794s9.208-16.324,19.669-13.236a21.765,21.765,0,0,1,8.841,4.988Z"/><path class="c" d="M849.009,311.245c-10.081-3.882-11.429-12.662-7.638-22.508s10.68-15.454,20.761-11.571,11.43,12.662,7.639,22.508S859.092,315.128,849.009,311.245ZM859.653,283.6c-4.78-1.842-8.7,1.7-11.088,7.9s-1.858,11.459,2.923,13.3,8.7-1.705,11.088-7.907S864.434,285.443,859.653,283.6Z"/><path class="c" d="M871.028,319.631l15.687-31.853,6.734,3.316L880.811,316.76l10.784,5.311,12.639-25.665,6.735,3.317L898.33,325.388l4.095,2.015-7.252,12.43-5.824-2.869,3.294-6.689Z"/><path class="c" d="M934.8,328.324l-.13-.079L910.9,340.467l-5.841-3.573,18.524-30.29,6.4,3.917-11.908,19.472.13.079,23.765-12.221,5.84,3.573-18.523,30.289-6.4-3.917Z"/><path class="c" d="M955.207,361.374l-8.3-6.1-5.971,4.614-6.335-4.657,30.181-21.879,6.009,4.416-11.872,35.336-6.335-4.656Zm6.848-17.881-.164-.12-9.432,7.609,5.19,3.815Z"/><path class="c" d="M990.208,362.188c-12.665,14.6-21.366,19.671-27,14.785a10.721,10.721,0,0,1-2.485-3.1l5.4-3.978a2.413,2.413,0,0,0,.677.924c2.49,2.16,8.163-2.52,21.26-17.615l1-1.148,16.664,14.46-23.269,26.817-5.67-4.921,18.748-21.606Z"/><path class="c" d="M1013.912,393.6c5.156,5.242,5.966,11.345.8,16.431s-11.225,4.21-16.416-1.069l-8.605-8.75L1015,375.317l5.263,5.353-9.691,9.529Zm-8.187,1.366-5.858,5.762,3.129,3.18c2.383,2.423,4.752,2.156,6.342.591,1.7-1.671,1.933-3.893-.52-6.388Z"/><path class="c" d="M1033.089,414.645l7.537,9.038,10.52-8.773,4.807,5.766-27.27,22.744-4.809-5.768,11.454-9.551-7.537-9.039-11.455,9.552-4.808-5.765,27.271-22.744,4.809,5.767Z"/><path class="c" d="M1058.719,447.441c4.148,6.072,3.867,12.222-2.12,16.314s-11.792,2.161-15.97-3.952l-5.895-8.626,29.311-20.031,4.235,6.2-11.221,7.669Zm-7.272,1.406-6.783,4.635,1.487,2.178c1.918,2.8,4.3,2.961,6.14,1.7,1.967-1.344,2.59-3.489.615-6.379Zm31.2,9.516-29.312,20.031-4.234-6.2,29.31-20.03Z"/><path class="c" d="M1058.3,486.948l30.967-17.375,10.326,18.4-6.512,2.491-6.4-11.414-5.928,3.326,5.658,10.087-6.015,3.376-5.661-10.087-6.989,3.923,6.9,12.3-6.017,3.376Z"/><path class="c" d="M1112.67,535.4a14.154,14.154,0,0,0-1.035-6.5c-1.854-4.393-7.131-5.416-13.487-2.734s-9.3,7.175-7.471,11.522a13.969,13.969,0,0,0,4.477,5.653l-4.386,5.264a20.666,20.666,0,0,1-6.605-8.61c-4.239-10.048,1.228-16.925,10.948-21.025s18.462-3.22,22.7,6.829a21.747,21.747,0,0,1,1.743,10Z"/><path class="c" d="M1091.333,556.722l33.651-11.339,6.739,20-6.862,1.242-4.179-12.4-6.442,2.171,3.694,10.96-6.538,2.2-3.694-10.961-7.6,2.559,4.5,13.365-6.537,2.2Z"/><path class="c" d="M1131.806,591.774l-27.7,7.152-1.877-7.27,27.7-7.15-2.51-9.724,6.679-1.723,6.909,26.764-6.932.743Z"/><path class="c" d="M1134.049,631.646l-.027-.149-24.863-9.8-1.167-6.747,34.988-6.055,1.281,7.4-22.492,3.894.025.149,24.863,9.8,1.168,6.749-34.988,6.055-1.28-7.4Z"/><path class="c" d="M1098.339,859.95l-9.495-10.825,3.061-7.648,10.144,12.064c2.882-2.712,7.105-3.744,11.752-1.884,6.568,2.63,8.566,8.929,6.293,14.607l-4.358,10.886L1082.889,864l2.78-6.944,11.919,4.77Zm15.2,4.181c.826-2.065-.3-4.421-2.738-5.4s-4.834-.029-5.66,2.037l-1.41,3.519,8.4,3.361Z"/><path class="c" d="M1088.472,895.951c-2.49,3.339-6.255,5.033-10.563,2.911-6.484-3.192-7.16-10.4-3.944-16.929a21.075,21.075,0,0,1,7.612-8.592l3.833,5.832a15.377,15.377,0,0,0-5.278,5.8c-1.564,3.175-.891,6.042,1.422,7.18,2.494,1.229,4.68.222,6.6-3.678l1.921-3.9,5.714,2.815-1.921,3.9c-1.295,2.631-.692,5.182,1.44,6.232,1.541.759,3.686.408,5.2-2.676a18.025,18.025,0,0,0,1.767-7.02l6.826-.017a22.638,22.638,0,0,1-2.538,10.3c-2.792,5.667-7.741,9.654-13.273,6.929a7.959,7.959,0,0,1-4.644-8.992Z"/><path class="c" d="M1077.105,949.2l-30.193-18.436,3.9-6.384L1081,942.815Zm.134-26.211c-3.819,6.256-9.522,8.517-15.69,4.75s-6.789-9.83-2.944-16.127l5.426-8.884,30.194,18.435-3.9,6.384-11.559-7.059Zm-4.253-6.03L1066,912.691l-1.37,2.244c-1.765,2.89-.933,5.115.965,6.274,2.028,1.237,4.231.925,6.05-2.051Z"/><path class="c" d="M1046.433,956.736l1.664-2.227-11.906-8.9,4.176-5.589,28.348,21.183-4.176,5.587-10.934-8.17-1.724,2.309,6.182,14.528-4.9,6.56-7.434-18.427-21.55-1.9,4.557-6.944Z"/><path class="c" d="M1012.288,997.359l1.925-2.006-10.729-10.287,4.828-5.035,25.543,24.49-4.828,5.036-9.852-9.448-1.994,2.081,4.36,15.175-5.668,5.911-5.124-19.2L989.6,999.553l5.372-6.334Z"/><path class="c" d="M975.135,1011.847c8.069-7.13,16.453-4.284,23.415,3.6s8.754,16.551.684,23.68-16.453,4.282-23.415-3.6S967.066,1018.977,975.135,1011.847Zm19.547,22.124c3.827-3.381,2.494-8.478-1.891-13.441s-9.277-6.913-13.1-3.532-2.494,8.478,1.891,13.44S990.856,1037.35,994.682,1033.971Z"/><path class="c" d="M942.677,1044.092l5.625-4.038,13.456,9.38.123-.089-10.215-17.431,6.076-4.364,17.97,30.656-6.282,4.511-18.071-12.6-.123.089,6.164,21.149-6.282,4.51-23.306-26.823,6.077-4.363,13.253,15.251.123-.09Z"/><path class="c" d="M904.137,1068.266l6.029-3.406,12.358,10.785.132-.075-8.262-18.437,6.514-3.677,14.535,32.425-6.734,3.8-16.6-14.486-.133.075,3.832,21.693-6.733,3.8-20.257-29.194,6.514-3.677,11.519,16.6.132-.075Z"/><path class="c" d="M877.656,1097.03l-.138.063,1.457,17.735-7.522,3.365-1.8-29.652c-.274-4.695.664-9.157,5.094-11.141a10.249,10.249,0,0,1,6.26-.862l-.738,6.644a3.341,3.341,0,0,0-2.114.226c-.785.351-1.455,1.205-1.341,3.314l.113,2.108,2.03-.908,19.31,18.274-7.659,3.429Z"/><path class="c" d="M850.715,1111.367l-11.07,3.873,4.508,12.883-7.061,2.473L825.4,1097.2l7.062-2.471,4.909,14.028,11.069-3.874-4.909-14.027,7.062-2.472,11.688,33.4-7.061,2.472Z"/><path class="c" d="M799.811,1127.582l.146-.036,7.943-25.416,6.621-1.648,8.547,34.33-7.257,1.807-5.5-22.069-.147.036L802.225,1140l-6.621,1.649-8.547-34.332,7.258-1.805Z"/><path class="c" d="M768.549,1125.684l2.746-.435-2.319-14.679,6.89-1.089,5.523,34.953-6.891,1.088-2.131-13.482-2.845.45-5.71,14.721-8.087,1.278,7.535-18.387-14.108-16.4,8.111-1.793Z"/><path class="c" d="M725.771,1122.831l10.231-.763,1.529-7.362,7.813-.582-8.658,36.124-7.411.553-13.921-34.442,7.812-.582Zm6.408,17.97.2-.014,2.206-11.873-6.4.478Z"/><path class="c" d="M707.49,1116.554l-.519,35.374-7.48-.11.419-28.5-11.976-.175-.419,28.5-7.479-.11.419-28.5-4.549-.066,1.221-14.287,6.469.095-.11,7.428Z"/><path class="c" d="M644.812,1135.745l.151.017,16.272-21.079,6.782.752-3.9,35.166-7.435-.826,2.507-22.606-.15-.016-16.273,21.078-6.782-.752,3.9-35.165,7.434.824Z"/><path class="c" d="M603.626,1128.526l.148.033,18.214-19.429,6.679,1.4-7.245,34.632-7.322-1.53,4.658-22.265-.149-.03L600.4,1140.761l-6.679-1.4,7.244-34.632,7.322,1.532Z"/><path class="c" d="M564.567,1119.152a3.842,3.842,0,1,1,4.839-2.472A3.906,3.906,0,0,1,564.567,1119.152Z"/><path class="c" d="M513.151,1103.055l.139.061L535.2,1087.98l6.232,2.779-14.4,32.314-6.833-3.046,9.26-20.773-.138-.062-21.909,15.136-6.232-2.779,14.4-32.314,6.832,3.045Z"/><path class="c" d="M473.943,1087.951a14.088,14.088,0,0,0,4.809,4.458c4.155,2.3,8.92-.139,12.253-6.15s2.882-11.348-1.23-13.627a13.911,13.911,0,0,0-6.986-1.678l.2-6.823a20.582,20.582,0,0,1,10.473,2.685c9.5,5.27,9.446,14.023,4.349,23.217s-12.492,13.878-22,8.608a21.661,21.661,0,0,1-7.515-6.769Z"/><path class="c" d="M444.639,1069.352a14.073,14.073,0,0,0,4.455,4.812c3.965,2.615,8.9.545,12.688-5.194s3.742-11.094-.181-13.681a13.911,13.911,0,0,0-6.839-2.208l.723-6.789a20.589,20.589,0,0,1,10.238,3.481c9.071,5.982,8.344,14.706,2.556,23.482s-13.518,12.881-22.591,6.9a21.676,21.676,0,0,1-6.975-7.324Z"/><path class="c" d="M423.51,1055.058c11.888-15.145,20.3-20.621,26.142-16.035a10.685,10.685,0,0,1,2.625,2.96l-5.178,4.223a2.437,2.437,0,0,0-.719-.886c-2.584-2.028-8,2.908-20.3,18.571l-.937,1.192-17.292-13.575,21.844-27.826,5.884,4.619-17.6,22.42Z"/><path class="c" d="M420.723,1015.914,396.7,1041.9l-15.443-14.274,5.409-4.363,9.578,8.853,4.6-4.974-8.463-7.823,4.666-5.048,8.464,7.822,5.422-5.865-10.32-9.54,4.666-5.048Z"/><path class="c" d="M400.9,986.694l4.36,4.781-9.889,10.385-2.554-2.8c-6.36.6-12.9,5.058-21.489,12.891l-2.913,2.657L353.16,997.875l21.064-19.209-3.066-3.361,11.251-8.891,4.36,4.78-5.491,5.007,14.134,15.5Zm-21.637-2.5-15.986,14.577,5.347,5.864.822-.75c6.5-5.926,12.453-9.372,17.922-10.8Z"/><path class="c" d="M363.59,953.4c6.488,8.589,3.01,16.728-5.379,23.064s-17.168,7.457-23.656-1.131-3.009-16.728,5.379-23.064S357.1,944.805,363.59,953.4Zm-23.551,17.789c3.076,4.074,8.259,3.135,13.542-.854s7.6-8.721,4.524-12.793-8.258-3.136-13.541.856S336.963,967.111,340.039,971.184Z"/><path class="c" d="M348.332,932.99l-29.993,18.77-6.14-9.813c-3.351-5.355-3.9-10.617,1.326-13.887a7.842,7.842,0,0,1,10.046.808l.171-.107c-1.459-4.333-.561-8.236,3.595-10.837,6.127-3.833,11.182-.616,14.854,5.254Zm-21.781,5.4-2.253-3.6a3.515,3.515,0,0,0-5.027-1.266c-1.627,1.018-2.371,2.974-.95,5.245l2.146,3.428Zm3.06-6.924,2.252,3.6,6.942-4.342-2.28-3.644c-1.689-2.7-4.042-3.313-6.1-2.026S327.9,928.726,329.611,931.469Z"/><path class="c" d="M316.862,892.947l4.724,9.107,7.37-1.489,3.606,6.954-36.614,6.242-3.422-6.595,26.19-26.34,3.607,6.953Zm-14,12.957.093.18,11.782-2.64-2.955-5.7Z"/><path class="c" d="M292.35,874.646l-4.469-10.84-12.616,5.2-2.851-6.916,32.709-13.484,2.85,6.916-13.738,5.664,4.47,10.84,13.736-5.663,2.852,6.916-32.709,13.484-2.852-6.916Z"/><path class="c" d="M273.238,824.271l.045.146,25.806,6.556,2,6.522-33.817,10.391-2.2-7.151,21.739-6.679-.044-.145-25.806-6.557-2-6.521,33.815-10.392,2.2,7.151Z"/><path class="c" d="M274.961,790.288l13.879,3.838,1.639,8.073-15.1-4.517c-.921,3.849-3.886,7.029-8.789,8.025-6.936,1.407-12.062-2.762-13.278-8.755l-2.333-11.492,34.674-7.036,1.489,7.33-12.582,2.553Zm-15,4.851c.442,2.179,2.677,3.531,5.252,3.008s4.057-2.628,3.614-4.808l-.754-3.714-8.866,1.8Z"/></g><g class="f"><path class="c" d="M395.893,553.029l-3.035,5.8-12.916-5.6,1.778-3.4c-2.64-5.765-8.933-10.324-19.045-15.61l-3.429-1.793,10.618-20.3,24.8,12.963,2.134-4.079,11.968,7.411-3.034,5.8-6.463-3.378-9.836,18.8Zm-4.74-21.231-18.817-9.837-3.722,7.114.967.507c7.649,4,12.811,8.369,15.931,13Z"/><path class="c" d="M400.209,487.717l-.085.127,10.6,24.127-3.877,5.713-28.731-19.5,4.25-6.261,18.471,12.533.085-.127-10.6-24.127,3.877-5.713,28.732,19.5-4.251,6.263Z"/><path class="c" d="M425.346,462.077c3.238-2.687,7.287-3.489,10.89-.452,5.425,4.571,4.248,11.739-.5,17.371a21.837,21.837,0,0,1-9.494,6.647l-2.208-6.542a15.938,15.938,0,0,0,6.543-4.453c2.307-2.738,2.386-5.679.452-7.31-2.086-1.758-4.443-1.27-7.278,2.094L420.92,472.8l-4.779-4.027,2.834-3.365c1.911-2.268,1.977-4.887.194-6.389-1.289-1.087-3.44-1.229-5.683,1.431a18.7,18.7,0,0,0-3.474,6.434l-6.57-1.522a23.555,23.555,0,0,1,5.05-9.456c4.12-4.887,9.888-7.651,14.516-3.753,3.073,2.59,3.813,6.023,2.185,9.8Z"/><path class="c" d="M457.18,444.975l-7.413,7.269,3.469,6.533-5.66,5.551-16.137-32.816,5.369-5.264,32.5,16.772-5.66,5.55Zm-16.3-9.313-.147.144,5.8,10.366,4.637-4.548Z"/><path class="c" d="M462.789,391.543l5.469-.33A11.778,11.778,0,0,1,453.4,402.928l1.6-5.242c1.988.706,3.973.911,5.859-.579S463.012,393.643,462.789,391.543Zm14.888,16-.119.1,2.818,26.209-5.42,4.273-21.5-27.273,5.941-4.686,13.821,17.533.122-.095-2.82-26.207,5.421-4.276,21.5,27.274-5.941,4.685Z"/><path class="c" d="M501.654,392.008l10.085-6.254-7.058-11.381,6.432-3.99,18.3,29.509-6.434,3.989-7.686-12.394-10.083,6.253,7.685,12.394-6.433,3.989-18.3-29.509,6.434-3.989Z"/><path class="c" d="M531.726,383l-2.925-5.8,13.338-6.721,2.01,6.263Z"/><path class="c" d="M563.525,367.416l-2.608,1.053,5.467,13.523-6.544,2.645-13.014-32.2,6.543-2.644,5.02,12.418,2.7-1.092,2.424-15.428,7.681-3.105-3.426,19.363,17.436,12.431-7.59,3.6Z"/><path class="c" d="M603.311,369.445c-10.457,3.061-16.847-2.927-19.746-12.832s-.745-18.392,9.712-21.453,16.846,2.928,19.744,12.832S613.768,366.386,603.311,369.445Zm-8.139-27.808c-4.958,1.451-5.969,6.554-4.145,12.793s5.43,9.99,10.388,8.539,5.97-6.555,4.145-12.793S600.131,340.186,595.172,341.637Z"/><path class="c" d="M630.1,369.512l-6.446,1.146-3.467-13.642,3.777-.672c2.95-5.614,2.71-13.381.712-24.614L624,327.921l22.56-4.011,4.9,27.545,4.532-.806,1.452,14L651,365.8l-1.278-7.179-20.9,3.715Zm13.9-16.732-3.72-20.9-7.906,1.406.191,1.073c1.513,8.5,1.208,15.254-.55,20.555Z"/><path class="c" d="M682.452,332.639a3.773,3.773,0,1,1-3.7,3.953A3.894,3.894,0,0,1,682.452,332.639Z"/><path class="c" d="M715.893,362.545l-6.526-.525.112-14.078,3.823.308c4.278-4.682,6.019-12.257,6.937-23.631l.312-3.857,22.839,1.84-2.253,27.89,4.588.37-2.151,13.913-6.525-.525.586-7.27-21.155-1.705Zm17.7-12.66L735.3,328.72l-8-.646-.088,1.088c-.695,8.606-2.7,15.063-5.75,19.745Z"/><path class="c" d="M777.725,341.051l-.151-.03-18.1,19.163-6.772-1.347,6.772-34.062,7.424,1.477-4.353,21.9.151.032,18.1-19.163,6.773,1.346L780.8,364.426l-7.424-1.478Z"/><path class="c" d="M811.11,354.213c3.737,1.935,6.052,5.351,4.661,9.854-2.1,6.777-9.159,8.488-16.194,6.31a21.817,21.817,0,0,1-9.817-6.152l5.164-4.582a15.934,15.934,0,0,0,6.649,4.289c3.419,1.058,6.159-.015,6.908-2.432.806-2.606-.56-4.588-4.762-5.889l-4.2-1.3,1.847-5.972,4.2,1.3c2.833.877,5.272-.082,5.961-2.311.5-1.611-.209-3.647-3.531-4.676a18.763,18.763,0,0,0-7.279-.695l-1.156-6.641a23.5,23.5,0,0,1,10.674.967c6.106,1.889,10.9,6.125,9.108,11.906-1.188,3.839-4.061,5.859-8.174,5.832Z"/><path class="c" d="M839.3,376.854l-9.591-3.983-4.657,5.748-7.323-3.041,23.9-27.676,6.944,2.885-2.738,36.463-7.323-3.041Zm2.2-18.638-.189-.078-7.277,9.385,6,2.493Z"/><path class="c" d="M881.771,381.031l-.135-.074-22.994,12.881-6.062-3.309,16.634-30.478,6.644,3.627-10.692,19.593.135.073,23-12.881,6.061,3.308-16.633,30.48-6.645-3.626Zm8.861-19.972,2.454,4.9a11.781,11.781,0,0,1-16.612-9.064l5.447-.588c.132,2.106.725,4.011,2.834,5.164S888.789,362.087,890.632,361.059Z"/><path class="c" d="M905.488,396.961l9.711,6.812,7.694-10.965,6.195,4.346-19.947,28.432-6.195-4.348,8.378-11.94-9.713-6.814-8.378,11.941-6.194-4.347,19.947-28.432,6.2,4.348Z"/><path class="c" d="M925.559,421.059l4.19-4.967,11.415,9.631-4.973,4.308Z"/><path class="c" d="M968.688,443.029A14.612,14.612,0,0,0,965.2,437.4c-3.408-3.391-8.625-2.424-13.383,2.36s-5.7,10.007-2.325,13.36a14.4,14.4,0,0,0,6.3,3.605l-1.949,6.458a21.342,21.342,0,0,1-9.395-5.567c-7.794-7.755-5.486-16.093,1.79-23.41s15.6-9.67,23.4-1.916a22.513,22.513,0,0,1,5.5,8.616Z"/><path class="c" d="M988.823,473.471l-.1-.119-26.164,3.191-4.351-5.361,26.961-21.889,4.769,5.877L972.61,469.242l.1.119,26.163-3.191,4.352,5.36-26.959,21.89-4.772-5.877Z"/><path class="c" d="M1016.444,505.055a14.613,14.613,0,0,0-2.222-6.241c-2.62-4.031-7.926-4.182-13.585-.5s-7.675,8.585-5.082,12.573a14.394,14.394,0,0,0,5.4,4.847l-3.266,5.9a21.327,21.327,0,0,1-8.016-7.417c-5.993-9.219-1.983-16.888,6.672-22.51s17.292-6.174,23.285,3.047a22.469,22.469,0,0,1,3.561,9.578Z"/><path class="c" d="M1031.539,530.062l-24.79,12.973-3.511-6.707,24.79-12.972-4.7-8.971,5.978-3.129,12.929,24.693-6.453,2.223Z"/><path class="c" d="M1014.505,558.974l32.107-13.231,8.11,19.669-6.627,1.625-5.031-12.2-6.146,2.533,4.445,10.779-6.237,2.572-4.446-10.781-7.246,2.987,5.42,13.144-6.239,2.571Z"/><path class="c" d="M1036.314,606.521l-1.939-6.731,13.056-9.513-.043-.147-19.495,3.652-2.1-7.271,34.288-6.429,2.166,7.519-17.537,12.773.043.147L1066.4,602l2.168,7.517-32.446,12.815-2.1-7.271,18.448-7.288-.043-.149Z"/><path class="c" d="M1047.6,647.059l-1.715-10.239-7.344-.9-1.308-7.818,36.144,5.562,1.242,7.414-32.361,17.035-1.309-7.817Zm16.965-8.027-.032-.2-11.819-1.184,1.073,6.407Z"/><path class="c" d="M1001.9,866.08l29.767,17.881-13.824,23.018L988.077,889.1l3.9-6.49,23.982,14.408,6.031-10.039L998,872.568Z"/><path class="c" d="M986.7,911.159l-9.364-7.024,4.541-6.057,27.776,20.836-7.333,9.779c-4.081,5.443-10.4,7.094-16.356,2.63s-6.138-11-2.057-16.44Zm2.82,7.486c-1.5,2-1.242,4.63,1.139,6.417s4.975,1.3,6.479-.7l2.578-3.437-7.618-5.715Z"/><path class="c" d="M952.644,933.27c7.388-8,15.948-6.157,23.528.842s10.106,15.386,2.717,23.389-15.948,6.156-23.53-.844S945.254,941.271,952.644,933.27Zm21.288,19.654c3.5-3.795,1.744-8.692-3.033-13.1s-9.795-5.773-13.3-1.978-1.744,8.691,3.031,13.1S970.429,956.719,973.932,952.924Z"/><path class="c" d="M923.257,968.146l5.343-4.533,14.029,8,.118-.1-11.328-16.282,5.77-4.895,19.927,28.632-5.966,5.061-18.841-10.751-.118.1,7.536,20.345-5.967,5.061-25-24.33,5.771-4.9L928.749,983.4l.117-.1Z"/><path class="c" d="M892.234,1027.063l-18.863-29.155,6.356-4.111,18.862,29.154Zm11.843-23.5c-6.226,4.029-12.358,3.683-16.212-2.273s-1.7-11.663,4.572-15.719l8.845-5.723,18.863,29.155-6.356,4.111-7.222-11.162Zm-1.12-7.192-4.365-6.747-2.233,1.443c-2.877,1.863-3.125,4.209-1.94,6.041,1.268,1.959,3.386,2.6,6.349.68Z"/><path class="c" d="M860.162,1012.57l-7.079,3.334L865,1041.215l-6.847,3.224-11.919-25.31-7.08,3.334,11.92,25.31L844.228,1051l-14.794-31.414,34.7-16.342,14.794,31.414-6.848,3.225Z"/><path class="c" d="M818.405,1052.924c-5.909-17.951-5.715-27.832,1.426-30.184a11.135,11.135,0,0,1,3.958-.571l.592,6.541a2.53,2.53,0,0,0-1.146.116c-3.158,1.04-2.106,8.162,4,26.725l.464,1.414-21.132,6.957-10.856-32.981,7.19-2.367,8.747,26.574Z"/><path class="c" d="M785.118,1033.759l7.628,33.873-20.754,4.673-.485-6.807,12.872-2.9-1.46-6.484-11.374,2.561-1.482-6.581,11.374-2.562-1.721-7.645-13.868,3.122-1.483-6.58Z"/><path class="c" d="M749.656,1062.338l-11.777,1.437,1.62,13.3-7.514.917-4.2-34.475,7.515-.917,1.764,14.48,11.778-1.437-1.764-14.481,7.513-.917,4.2,34.476-7.514.918Z"/><path class="c" d="M709.619,1065.645l-11.866.13.149,13.395-7.569.084-.385-34.725,7.569-.083.161,14.583,11.865-.132-.162-14.584,7.569-.084.386,34.724-7.569.084Z"/><path class="c" d="M642.387,1075.127l3.75-34.52,7.526.819-3.751,34.518Zm24.011-10.764c-7.372-.8-11.914-4.935-11.146-11.988s6.037-10.121,13.461-9.314l10.475,1.138-3.75,34.519-7.526-.818,1.436-13.216Zm3.668-6.287.869-7.988-2.645-.287c-3.407-.371-5.08,1.294-5.315,3.463-.252,2.318.99,4.15,4.5,4.531Z"/><path class="c" d="M609.93,1055.59l.149.035,18.732-18.54,6.722,1.574-7.914,33.809-7.369-1.726,5.088-21.734-.151-.035-18.731,18.541-6.723-1.575,7.913-33.808,7.371,1.725Zm-3.221,21.611-3.669-4.068a11.78,11.78,0,0,1,18.425,4.312l-5.094,2.018c-.689-2-1.767-3.674-4.107-4.222S608.212,1075.719,606.709,1077.2Z"/><path class="c" d="M581.45,1015.785l6.049,2.5-4.421,13.364-3.545-1.465c-5.506,3.146-9.484,9.822-13.846,20.366l-1.478,3.576-21.172-8.754,10.693-25.856-4.251-1.76,6.309-12.583,6.05,2.5-2.787,6.74,19.611,8.109Zm-20.725,6.624-8.115,19.622,7.42,3.068.417-1.009c3.3-7.977,7.191-13.508,11.526-17.03Z"/><path class="c" d="M516.117,1017.442l.134.075,23.06-12.76,6.042,3.339-16.794,30.394-6.624-3.662,10.8-19.538-.134-.075-23.059,12.762-6.043-3.34,16.795-30.395,6.624,3.661Z"/><path class="c" d="M488.448,994.9c-2.977-2.977-4.149-6.934-1.46-10.8,4.049-5.824,11.3-5.319,17.343-1.114a21.826,21.826,0,0,1,7.5,8.837l-6.307,2.8a15.933,15.933,0,0,0-5.04-6.1c-2.941-2.044-5.876-1.851-7.321.226-1.557,2.24-.852,4.543,2.759,7.053l3.61,2.512-3.567,5.132-3.611-2.511c-2.436-1.694-5.05-1.517-6.381.4-.963,1.386-.9,3.54,1.951,5.527a18.779,18.779,0,0,0,6.728,2.865l-.906,6.679a23.479,23.479,0,0,1-9.883-4.152c-5.248-3.648-8.535-9.136-5.08-14.105,2.293-3.3,5.643-4.354,9.556-3.083Z"/><path class="c" d="M468.562,964.867l7.93,6.7,6.182-4.063,6.054,5.119-31.169,19.124-5.744-4.854,13.672-33.918,6.054,5.118Zm-7.752,17.092.157.133,9.781-6.738-4.961-4.194Z"/><path class="c" d="M414.972,964.393l-.841-5.414a11.779,11.779,0,0,1,13.053,13.7l-5.369-1.1c.518-2.046.536-4.042-1.123-5.781S417.041,963.975,414.972,964.393Zm14.536-16.321.105.112,25.83-5.254,4.763,5-25.145,23.955L429.84,966.4,446.005,951l-.106-.111-25.831,5.253-4.762-5,25.145-23.955,5.222,5.48Z"/><path class="c" d="M411.884,925.748l-7.169-9.457-10.676,8.09-4.572-6.032,27.678-20.972,4.573,6.031-11.625,8.809,7.167,9.457,11.625-8.809,4.574,6.032-27.68,20.972-4.573-6.032Z"/><path class="c" d="M381.8,883.832a3.771,3.771,0,1,1,5.208,1.48A3.892,3.892,0,0,1,381.8,883.832Z"/><path class="c" d="M383.9,847.984,352,861.7l-4.626-10.758c-2.526-5.875-2.328-11.192,3.234-13.582a7.746,7.746,0,0,1,9.695,2.457l.182-.077c-.821-4.547.6-8.275,5.023-10.174,6.517-2.8,11,1.227,13.769,7.663Zm-22.021,1.784-1.7-3.948a3.506,3.506,0,0,0-4.731-2.086c-1.731.745-2.731,2.566-1.66,5.055l1.615,3.76Zm3.955-6.376,1.7,3.946,7.383-3.173-1.717-3.993c-1.272-2.961-3.484-3.959-5.672-3.018S364.541,840.385,365.834,843.392Z"/><path class="c" d="M371.007,816.5l-33.049,10.671-6.538-20.246,6.734-1.1,4.056,12.557,6.325-2.043-3.582-11.1,6.42-2.072,3.584,11.1,7.46-2.409-4.369-13.531,6.42-2.072Z"/><path class="c" d="M332.809,785.012l6.728-1.512-.864-3.842c-1.625-7.234.628-12.824,7.548-14.38s11.384,2.474,13.021,9.759l2.523,11.226-33.878,7.612-4.71-20.955,6.806-.482Zm13.068-2.936,7.646-1.719-.8-3.543c-.751-3.341-2.771-4.409-4.9-3.929-2.226.5-3.51,2.256-2.736,5.7Z"/></g><g class="g"><path class="c" d="M448.091,536.811l5.9-8.775-9.7-6.53,3.766-5.6,25.143,16.93-3.767,5.6-10.56-7.111-5.9,8.774,10.559,7.11-3.765,5.6-25.143-16.929,3.766-5.6Z"/><path class="c" d="M484.276,509.608l-6,7.039,3.5,5.442-4.585,5.374L460.75,500.02l4.349-5.1,29.686,11.911-4.585,5.374Zm-14.949-6.763-.118.137,5.805,8.61,3.757-4.4Z"/><path class="c" d="M499.582,502.064l-20.81-22.036,7.59-7.165c4.143-3.912,8.625-5.406,12.252-1.565a6.789,6.789,0,0,1,.814,8.761l.118.126c3.541-2.093,7.061-2.081,9.945.971,4.251,4.5,2.221,9.455-2.319,13.742Zm-7.971-17.6,2.784-2.628a3.093,3.093,0,0,0,.341-4.551c-1.13-1.2-2.939-1.453-4.695.206l-2.651,2.5Zm6.47,1.274-2.784,2.629,4.816,5.1,2.817-2.66c2.088-1.972,2.267-4.106.84-5.617S500.2,483.733,498.081,485.736Z"/><path class="c" d="M525.114,454.888l-.11.081,1.641,23.086-4.933,3.679-18.125-24.292,5.407-4.034,11.652,15.616.11-.081-1.641-23.087,4.934-3.68,18.125,24.293-5.408,4.033Z"/><path class="c" d="M543.962,436.751l12.474,21-5.8,3.445-15.482-26.064,16.073-9.544,2.222,5.53Z"/><path class="c" d="M579.187,438.73l-8.333,4.024,1.01,6.391-6.362,3.072-3.985-31.741,6.034-2.914,22.373,22.862-6.362,3.072Zm-10.958-12.214-.165.08,1.846,10.218,5.213-2.517Z"/><path class="c" d="M596.107,437.931l-9.881-28.658,6.379-2.2,7.961,23.09,10.215-3.52-7.961-23.09,6.379-2.2,7.961,23.091,3.879-1.338,3.133,11.883-5.517,1.9-2.075-6.02Z"/><path class="c" d="M644.03,404.12l-.134.028-8.244,21.628-6.023,1.257-6.192-29.675,6.6-1.378,3.98,19.077.133-.028L642.4,393.4l6.024-1.256,6.191,29.674-6.6,1.379Z"/><path class="c" d="M673.719,408.631l-4.84,11.5-7.4.685,5.574-12.476a9.148,9.148,0,0,1-6.3-8.2c-.56-6.038,3.692-10.042,9.185-10.551l10.533-.976,2.8,30.186-6.719.623-1.016-10.954Zm-2.828-13.221a3.686,3.686,0,0,0-3.227,4.213,3.649,3.649,0,0,0,3.941,3.506l3.406-.316L674.3,395.1Z"/><path class="c" d="M710.607,399.77a3.295,3.295,0,1,1-3.577,3.168A3.436,3.436,0,0,1,710.607,399.77Z"/><path class="c" d="M738.226,427.27l-5.747-1.016,1.236-12.228,3.366.594c4.173-3.7,6.329-10.141,8.062-19.95l.587-3.327,20.112,3.553-4.25,24.053,4.04.713-3.03,11.911-5.747-1.014,1.109-6.27L739.334,421Zm16.722-9.494,3.226-18.255-7.049-1.244-.166.938c-1.311,7.422-3.615,12.864-6.695,16.674Z"/><path class="c" d="M794.922,414.229l-.131-.041-17.715,14.9L771.2,427.26l9-28.947,6.444,2-5.788,18.609.131.041,17.715-14.9,5.877,1.829-9,28.947-6.443-2Z"/><path class="c" d="M823.356,429.18c3.117,2.083,4.836,5.3,3.177,9.065-2.5,5.667-8.894,6.4-14.9,3.752a19.771,19.771,0,0,1-8.087-6.4l5-3.43a14.4,14.4,0,0,0,5.465,4.441c2.919,1.287,5.442.647,6.333-1.374.96-2.178-.06-4.047-3.647-5.628l-3.587-1.58,2.2-4.993,3.587,1.58c2.418,1.066,4.664.493,5.484-1.368.594-1.348.162-3.2-2.674-4.443a16.99,16.99,0,0,0-6.363-1.384l-.391-5.9a21.289,21.289,0,0,1,9.337,1.983c5.214,2.3,9.043,6.491,6.912,11.325-1.414,3.21-4.143,4.657-7.774,4.193Z"/><path class="c" d="M846.057,452.106l-8.041-4.582-4.69,4.455-6.139-3.5L851.068,427.2l5.822,3.317-6.136,31.387-6.14-3.5Zm3.843-15.949-.158-.09-7.369,7.313,5.03,2.866Z"/><path class="c" d="M883,461.036l-.11-.082-21.616,8.28-4.956-3.649,17.978-24.4,5.433,4-11.556,15.686.109.081,21.616-8.28,4.956,3.65-17.978,24.4-5.433-4Zm9.989-16.25,1.613,4.575a10.633,10.633,0,0,1-13.582-10l4.847.182c-.117,1.85.192,3.584,1.918,4.855S891.255,445.446,892.987,444.786Z"/><path class="c" d="M902.105,478.185l7.685,7.264,8.031-8.5,4.9,4.633L901.9,503.618l-4.9-4.635,8.745-9.254-7.684-7.263-8.745,9.254-4.9-4.635,20.819-22.032,4.9,4.634Z"/><path class="c" d="M948.135,522.594a13.27,13.27,0,0,0-2.4-5.389c-2.588-3.414-7.251-3.255-11.944.3s-6.106,8-3.545,11.384a13.059,13.059,0,0,0,5.085,3.981l-2.434,5.393a19.335,19.335,0,0,1-7.564-6.107c-5.922-7.811-2.962-14.8,4.216-20.246s14.71-6.405,20.632,1.405A20.418,20.418,0,0,1,954,521.58Z"/><path class="c" d="M947.969,546.519l-8.745,5.287-3.492-5.774,25.941-15.679,5.637,9.321c3.137,5.187,2.457,10.924-3.1,14.285s-10.956,1.3-14.093-3.891Zm7.021.229a4.161,4.161,0,0,0,7.114-4.3l-1.98-3.275-7.115,4.3Z"/><path class="c" d="M950.487,571.494,977.9,558.549,986,575.7l-5.715,1.691-5.02-10.635-5.248,2.477,4.437,9.4-5.326,2.515-4.437-9.4-6.187,2.923,5.409,11.458-5.326,2.515Z"/><path class="c" d="M956.994,601.661l-1.878-5.523,11.312-4.808,1.1,3.236c5.257,1.872,11.936.661,21.368-2.545l3.2-1.087,6.572,19.333-23.127,7.862,1.32,3.884-11.9,3.081-1.878-5.523,6.028-2.05-6.089-17.909Zm16.374,10.081,17.55-5.967-2.3-6.775-.9.307c-7.136,2.425-13.015,3.028-17.837,2.164Z"/><path class="c" d="M993.143,636.1c1.275,6.486-.973,11.436-7.049,12.63s-10.023-2.49-11.307-9.019l-1.812-9.215,29.744-5.849,1.3,6.621-11.388,2.238Zm15.294,17.622-29.745,5.848-1.3-6.619,29.743-5.849Zm-21.5-19.1-6.883,1.353.458,2.328c.589,3,2.416,3.983,4.285,3.615,2-.392,3.2-1.929,2.589-5.015Z"/><path class="c" d="M940.957,887.669l-19.246-15.034,4.152-5.32,23.887,18.662-11.5,14.732-4.08-4.345Z"/><path class="c" d="M915.52,895.846l-7.491-6.955,4.592-4.945,22.214,20.63-7.414,7.986c-4.126,4.442-9.831,5.366-14.591.945s-4.26-10.179-.135-14.621Zm1.709,6.813a4.162,4.162,0,0,0,6.092,5.659l2.607-2.806-6.093-5.658Z"/><path class="c" d="M888.633,916.568l6.879-6.19-2.755-5.853,5.252-4.726L910.7,929.161l-4.981,4.483-27.873-15.7,5.252-4.724Zm13.935,8.666.136-.121-4.627-9.3-4.3,3.871Z"/><path class="c" d="M862.009,933.4l-2.313-3.245,5.421-3.859,2.312,3.244a16.2,16.2,0,0,1,2.338-1.983c6.162-4.39,12.237-2.071,16.334,3.678,4.146,5.819,4.354,12.317-1.808,16.7a15.918,15.918,0,0,1-2.663,1.526l2.337,3.28-5.42,3.861-2.338-3.28a15.327,15.327,0,0,1-2.312,2.019c-6.163,4.389-12.237,2.069-16.383-3.749-4.1-5.748-4.306-12.246,1.857-16.636A15.644,15.644,0,0,1,862.009,933.4Zm11.006,15.13-7.49-10.51a9.908,9.908,0,0,0-2.155,1.217c-2.711,1.93-2.412,5.333-.225,8.4s5.306,4.461,8.016,2.531A12.528,12.528,0,0,0,873.015,948.533Zm-2.366-14.158,7.49,10.509a12.753,12.753,0,0,0,2.155-1.216c2.71-1.93,2.412-5.334.226-8.4s-5.307-4.461-8.017-2.531A9.826,9.826,0,0,0,870.649,934.375Z"/><path class="c" d="M836.852,967.581l.12-.065,1.779-23.077,5.421-2.912,14.347,26.7-5.943,3.193-9.222-17.163-.122.065L841.453,977.4l-5.421,2.914-14.346-26.7,5.943-3.193Z"/><path class="c" d="M801.635,962.007l4.26,10.563a20.482,20.482,0,0,1,4.306-2.484c6.258-2.524,10.656-1.124,12.957,4.58l3.936,9.76-6.258,2.523-3.936-9.76c-.89-2.209-2.8-2.324-4.919-1.471a18.342,18.342,0,0,0-3.883,2.315l4.874,12.088-6.257,2.525-11.337-28.115Z"/><path class="c" d="M788.262,966.924,796.823,996l-18.192,5.357-.789-5.906,11.283-3.323-1.64-5.568-9.97,2.937-1.663-5.649,9.97-2.937-1.932-6.563-12.158,3.579-1.663-5.65Z"/><path class="c" d="M750.125,1000.429a13.254,13.254,0,0,0,5.9.218c4.206-.818,6.118-5.074,4.992-10.856s-4.493-9.007-8.656-8.2a13.068,13.068,0,0,0-5.815,2.809l-3.768-4.559a19.326,19.326,0,0,1,8.816-4.1c9.621-1.874,14.593,3.864,16.314,12.7s-.735,16.028-10.355,17.9a20.427,20.427,0,0,1-9.1-.213Z"/><path class="c" d="M729.448,992.185l2.5-.238-1.2-12.676,6.263-.594,2.862,30.181-6.263.594-1.1-11.64-2.586.245-6.021,12.317-7.352.7,7.885-15.365-11.7-14.726,7.4-1.137Z"/><path class="c" d="M689.923,1000.332l.138,0L702.791,981l6.153.075-.376,30.314-6.746-.082.241-19.489h-.135L689.2,1011.151l-6.153-.074.377-30.313,6.745.082Z"/><path class="c" d="M654.923,997.15l.136.018,14.9-17.718,6.1.792-3.909,30.063-6.69-.869,2.513-19.326-.137-.017-14.9,17.718-6.1-.792,3.907-30.063,6.691.869Zm-.868,19.059-3.627-3.222a10.633,10.633,0,0,1,16.726,2.17l-4.329,2.191c-.8-1.676-1.9-3.042-4.028-3.319A5.074,5.074,0,0,0,654.055,1016.209Z"/><path class="c" d="M630.465,965.907l5.59,1.676-2.646,12-3.275-.982c-4.574,3.2-7.462,9.336-10.322,18.878l-.97,3.236-19.564-5.865,7.014-23.4-3.931-1.177,4.393-11.478,5.589,1.675-1.827,6.1,18.121,5.432Zm-17.711,7.486-5.321,17.754,6.855,2.055.274-.912c2.163-7.218,5.084-12.355,8.585-15.781Z"/><path class="c" d="M575,973.364l.126.055,19.206-12.913,5.646,2.447-12.052,27.816-6.19-2.684,7.748-17.881-.126-.055-19.206,12.913-5.645-2.446L576.559,952.8l6.189,2.683Z"/><path class="c" d="M550.555,956.765c-2.9-2.38-4.292-5.751-2.272-9.335,3.043-5.395,9.483-5.492,15.2-2.27a19.765,19.765,0,0,1,7.419,7.166l-5.311,2.922a14.409,14.409,0,0,0-5-4.956c-2.779-1.568-5.354-1.18-6.438.744-1.171,2.074-.34,4.035,3.076,5.961l3.414,1.925-2.681,4.753-3.414-1.925c-2.3-1.3-4.594-.95-5.594.823-.723,1.283-.474,3.163,2.226,4.686a16.994,16.994,0,0,0,6.2,2l-.191,5.908a21.344,21.344,0,0,1-9.1-2.892c-4.964-2.8-8.362-7.35-5.768-11.953,1.724-3.054,4.583-4.227,8.151-3.408Z"/><path class="c" d="M532.239,933.193l7.6,5.282,5.069-4.019,5.8,4.031-25.682,19.067-5.5-3.825,8.914-30.718,5.8,4.032Zm-5.252,15.546.15.105,7.992-6.628-4.754-3.3Z"/><path class="c" d="M486.9,938.155l-1.238-4.689a10.632,10.632,0,0,1,12.731,11.061l-4.818-.572c.266-1.835.1-3.587-1.519-4.991S488.677,937.637,486.9,938.155Zm11.265-15.394.1.09,22.209-6.515,4.645,4.036-19.883,22.877-5.092-4.424,12.782-14.707-.1-.091-22.21,6.516-4.644-4.037,19.882-22.877,5.092,4.426Z"/><path class="c" d="M482.3,906.047l-7.147-7.8-8.618,7.9-4.558-4.974L484.319,880.7l4.56,4.975-9.385,8.6,7.147,7.8,9.383-8.6,4.559,4.975L478.239,918.92l-4.558-4.975Z"/></g><g class="h"><path class="c" d="M829.112,890.1l6.855-4.846-1.857-5.566,5.235-3.7,8.3,27.8-4.965,3.508-23.428-17.109,5.233-3.7Zm11.626,9.29.136-.1-3.176-8.866-4.289,3.031Z"/><path class="c" d="M814.284,903.544l-4.451-8.132,5.367-2.936,13.2,24.119-8.67,4.742c-4.824,2.64-10,1.8-12.827-3.371s-.749-9.978,4.075-12.616ZM813.8,909.9a3.776,3.776,0,0,0,3.622,6.617l3.047-1.666-3.622-6.617Z"/><path class="c" d="M790.634,905.1l6.418-2.661-2.407,16.432,12.177,9.28L800.4,930.81l-7.5-6.541-.114.047-.71,9.947-6.419,2.661,2.035-15.173-13.333-9.9,6.078-2.946,8.962,7.253.116-.047Z"/><path class="c" d="M758.456,934.755l.12-.034,6.27-20.039,5.385-1.472,7.251,26.529-5.9,1.614-4.66-17.055-.12.032-6.27,20.042-5.385,1.471-7.251-26.531L753.8,917.7Z"/><path class="c" d="M732.416,944.2l-3.167-21.93,6.058-.874,3.167,21.93,8.1-1.17.765,5.289-22.307,3.22.055-5.407Z"/><path class="c" d="M716.4,923.7l.976,27.484-17.193.606.637-5.368,10.663-.376-.187-5.262-9.423.332-.188-5.339,9.421-.333-.219-6.2-11.49.4-.189-5.338Z"/><path class="c" d="M683.679,935.1l2.267.172.875-11.513,5.691.431-2.081,27.415-5.692-.431.8-10.574-2.352-.179-7.276,10.085L669.233,950l9.413-12.523-8.2-14.96,6.793.121Z"/><path class="c" d="M650.936,941.373l4.125-21.77,6.011,1.137-4.124,21.77,8.044,1.523-.994,5.25-22.143-4.191,1.808-5.1Z"/><path class="c" d="M629.831,928.067l-.119-.036-8.43,11.067-6.449-1.963,14.486-18.175c2.3-2.872,5.235-4.977,9.034-3.819a8.7,8.7,0,0,1,4.346,2.76l-3.956,3.477a2.827,2.827,0,0,0-1.433-.97c-.673-.205-1.539-.057-2.58,1.227l-1.04,1.284,1.741.53,2.388,20.686-6.567-2Z"/><path class="c" d="M610,915.415l3.669-8.512,5.62,2.423L608.4,934.574l-9.076-3.913c-5.05-2.178-7.573-6.774-5.239-12.183s7.4-6.731,12.454-4.553Zm-5.3,3.53a3.774,3.774,0,0,0-2.985,6.924l3.19,1.376,2.985-6.925Z"/><path class="c" d="M583.524,898.132l7.311,4.124,4.236-4.06,5.583,3.148-21.58,19.4-5.294-2.988,5.446-28.5,5.582,3.149ZM580.1,912.619l.144.081,6.656-6.665-4.574-2.58Z"/><path class="c" d="M547.279,516.566l.1-.079-4.65-13.114,5.17-4.323,7.287,22.072c1.144,3.5,1.3,7.107-1.744,9.652a8.681,8.681,0,0,1-4.688,2.127L548,527.688a2.826,2.826,0,0,0,1.6-.669c.539-.452.89-1.256.383-2.831l-.506-1.574-1.4,1.167-18.618-9.321,5.267-4.4Z"/><path class="c" d="M569.729,506.189l5.087,7.749L569.7,517.3l-15.088-22.985,8.262-5.424c4.6-3.019,9.823-2.6,13.057,2.331s1.543,9.885-3.055,12.905Zm-.027-6.372a3.774,3.774,0,0,0-4.138-6.3l-2.9,1.906,4.138,6.305Z"/><path class="c" d="M587.58,480.705l2.449,4.88,2.846-1.428c5.36-2.688,10.161-2.066,12.681,2.954s.2,9.259-5.193,11.967l-8.316,4.174-12.333-24.576,15.524-7.79,1.658,5.145Zm4.757,9.48,2.784,5.546,2.624-1.316c2.477-1.243,2.932-3.01,2.157-4.554-.811-1.615-2.426-2.255-4.977-.975Z"/><path class="c" d="M626.165,482.221l-7.895,2.846.311,5.861-6.029,2.173-.616-29.011,5.717-2.063,18.04,22.731-6.028,2.173Zm-8.74-12.05-.156.055.707,9.392,4.939-1.78Z"/><path class="c" d="M643.647,465.433l9.37-2.054-2.272-10.358,5.979-1.311,5.889,26.855-5.977,1.31L654.161,468.6l-9.37,2.052,2.474,11.28-5.978,1.31-5.89-26.854,5.979-1.31Z"/><path class="c" d="M686.806,458.343l-.125.011-9.952,18.484-5.566.424-2.093-27.417,6.1-.465,1.346,17.625.123-.009,9.952-18.484,5.565-.425,2.094,27.417-6.1.466Z"/><path class="c" d="M720.706,455.169a12.02,12.02,0,0,0-5.136-1.493c-3.881-.208-6.5,3.114-6.786,8.45s1.967,8.918,5.807,9.123a11.816,11.816,0,0,0,5.735-1.189l2.308,4.844a17.506,17.506,0,0,1-8.658,1.663c-8.877-.473-11.985-6.621-11.549-14.781s4.18-13.939,13.056-13.466a18.5,18.5,0,0,1,7.956,2.2Z"/><path class="c" d="M744.317,457.577l-3.7,21.849-6.033-1.02,3.694-21.848-8.072-1.366.891-5.269,22.219,3.758-1.707,5.13Z"/><path class="c" d="M775.854,470.16l-.117-.037-15.982,13.616-5.34-1.625,8-26.309,5.854,1.781L763.127,474.5l.118.035,15.981-13.616,5.34,1.625-8,26.31-5.854-1.781Z"/><path class="c" d="M796.66,484.854l-2.069-.946-4.8,10.51-5.191-2.371,11.42-25.02,5.192,2.37-4.4,9.651,2.143.979,10.311-6.954,6.093,2.782L802.2,484.361l2.525,16.875-6.332-2.46Z"/><path class="c" d="M823.923,506.3l-7.149-4.4-4.386,3.895-5.457-3.36,22.3-18.561,5.176,3.186-6.525,28.27-5.458-3.359Zm3.974-14.344-.141-.086-6.9,6.405,4.471,2.753Z"/></g><g class="i"><path class="c" d="M1171.45,849.8c4.7-14.729,17.864-17.156,33.255-12.248s24.718,14.51,20.02,29.238-17.866,17.156-33.255,12.248S1166.752,864.528,1171.45,849.8Zm43.211,13.78c2.228-6.982-3.617-12.427-13.308-15.519s-17.612-2.037-19.839,4.948,3.616,12.428,13.308,15.519S1212.433,870.565,1214.661,863.581Z"/><path class="c" d="M1178.927,913.075c-3.395,4.94-8.913,7.543-15.69,4.626-10.2-4.392-12.05-14.83-7.916-24.43a28.806,28.806,0,0,1,10.566-12.759l6.48,8.322a21.029,21.029,0,0,0-7.344,8.614c-2.009,4.667-.662,8.8,2.976,10.369,3.924,1.689,7.126.143,9.6-5.59l2.468-5.735,8.988,3.87-2.468,5.735c-1.664,3.867-.459,7.547,2.894,8.99,2.424,1.043,5.639.452,7.591-4.081a24.456,24.456,0,0,0,1.878-10.256l10.355-.285a30.77,30.77,0,0,1-2.675,15.05c-3.588,8.334-10.642,14.307-19.344,10.56-5.777-2.486-8.567-7.008-8.069-12.878Z"/><path class="c" d="M1142.956,922.3l47.861,25.793L1176.5,974.675l-8.61-6.288,8.883-16.49-9.163-4.937-7.849,14.571-9.3-5.01,7.849-14.572-10.8-5.821-9.571,17.767-9.3-5.012Z"/><path class="c" d="M1150.358,996.537c-24.624-16.41-34.2-28.373-28.279-37.253a14.5,14.5,0,0,1,4-4.048l7.17,7.308a3.243,3.243,0,0,0-1.209,1.114c-2.616,3.926,5.659,11.534,31.123,28.5l1.938,1.292-17.511,26.276-45.239-30.149,5.957-8.94,36.452,24.292Z"/><path class="c" d="M1093.519,1001.33l42.213,34.256-19.024,23.445-7.288-7.782,11.8-14.541-8.081-6.558L1102.711,1043l-8.2-6.655,10.428-12.851-9.529-7.73-12.714,15.667-8.2-6.656Z"/><path class="c" d="M1082.043,1065.814l-11.83,11.984,14.924,14.728-7.546,7.646-38.692-38.186,7.546-7.644,16.251,16.037,11.829-11.984-16.251-16.039,7.547-7.644,38.692,38.184-7.547,7.646Z"/><path class="c" d="M1027.957,1071.729l34.782,41.779-23.2,19.322-5.641-9.046,14.39-11.983-6.657-8-12.718,10.589-6.758-8.118,12.718-10.589-7.85-9.43-15.508,12.913-6.757-8.116Z"/><path class="c" d="M1004.184,1132.778l-13.93,9.458,11.777,17.349-8.886,6.033-30.534-44.978,8.886-6.035,12.824,18.892,13.931-9.458-12.824-18.892,8.886-6.033,30.534,44.979-8.887,6.033Z"/><path class="c" d="M940.145,1173.042l.191-.1,1.226-40.192,8.662-4.584,25.434,48.051-9.494,5.024-16.352-30.888-.192.1-1.225,40.193-8.662,4.584L914.3,1147.178l9.5-5.025Z"/><path class="c" d="M900.908,1153.111l20.54,50.336-27.955,11.41-2.645-10.328,17.337-7.076-3.933-9.637-15.321,6.254-3.992-9.779,15.323-6.254-4.637-11.361-18.681,7.626-3.99-9.781Z"/><path class="c" d="M845.285,1208.837a5.916,5.916,0,1,1,3.679-7.192A5.817,5.817,0,0,1,845.285,1208.837Z"/><path class="c" d="M790.814,1175.733l9.177-1.459,4.883,21.48-5.377.853c-4.216,8.614-3.9,20.753-1.1,38.4l.95,5.981-32.115,5.105-6.876-43.261-6.452,1.026-2.016-21.936,9.175-1.457,1.792,11.275,29.75-4.727Zm-19.848,25.409,5.219,32.829,11.254-1.789-.268-1.688c-2.121-13.345-1.664-23.877.857-32.063Z"/><path class="c" d="M723.945,1194.223c15.441-.763,22.33,10.716,23.128,26.851s-4.925,28.239-20.365,29-22.329-10.716-23.127-26.852S708.505,1194.986,723.945,1194.223Zm2.242,45.3c7.321-.362,10.371-7.745,9.868-17.908s-4.266-17.207-11.587-16.847-10.371,7.747-9.868,17.909S718.865,1239.889,726.187,1239.527Z"/><path class="c" d="M658.367,1236.342a19.158,19.158,0,0,0,9.009,2.879c6.813.354,11.444-6.248,11.993-16.8s-3.375-17.6-10.116-17.946a19.013,19.013,0,0,0-10.085,2.43l-4.011-9.54a28.07,28.07,0,0,1,15.223-3.408c15.586.81,20.99,12.912,20.152,29.044s-7.467,27.609-23.052,26.8a29.47,29.47,0,0,1-13.954-4.225Z"/><path class="c" d="M617.86,1233.147l6.251-43.354,10.634,1.533-6.252,43.355,14.226,2.051-1.509,10.455-39.153-5.646L605,1231.293Z"/><path class="c" d="M578.719,1209.951l-.212-.05L564.3,1233.036l-11.516-2.728,24.471-38.105c3.889-6.022,8.939-10.653,15.722-9.046a14,14,0,0,1,7.848,4.652l-6.774,7.5a4.594,4.594,0,0,0-2.592-1.652c-1.2-.285-2.722.154-4.479,2.85l-1.758,2.7,3.107.736,5.5,40.093-11.725-2.776Z"/><path class="c" d="M557.562,1175.049l-17.62,51.431-36.048-12.348,17.62-51.433,10.162,3.483-14.2,41.438,15.724,5.387,14.2-41.44Z"/><path class="c" d="M484.187,1183.007l-15.264-7.111-8.853,19.009-9.737-4.536,22.951-49.28,9.737,4.535-9.639,20.7,15.264,7.111,9.639-20.7,9.737,4.537-22.951,49.28-9.737-4.536Z"/><path class="c" d="M391.8,1156.133l28.437-46.331,9.157,5.619-28.437,46.331Zm38.356-.881c-8.969-5.506-12.007-14.02-6.2-23.484s14.714-10.652,23.747-5.109l12.744,7.821-28.437,46.332-9.157-5.621,10.888-17.737Zm9.032-6.668,6.582-10.722-3.217-1.973c-4.146-2.544-7.443-1.2-9.23,1.716-1.91,3.111-1.559,6.423,2.709,9.043Z"/><path class="c" d="M344.273,1138.666l-1.988-7.8c5.594-1.82,10.316-1.36,15.162,2.46s6.394,8.3,5.93,14.169l-8.045-.113c.477-3.183.227-6.15-2.453-8.262S347.258,1137.459,344.273,1138.666Zm19.11-28.349.172.135,37.254-15.132,7.7,6.068-33.655,42.693-8.436-6.651,21.634-27.446-.171-.135-37.254,15.133-7.695-6.068,33.653-42.694,8.437,6.652Z"/><path class="c" d="M354.659,1039.983l6.308,6.822-15.153,15.986-3.7-4c-9.5,1.275-19.427,8.274-32.542,20.4l-4.448,4.113-22.077-23.872,32.162-29.737-4.436-4.8,17.123-13.854,6.309,6.82-8.383,7.752,20.451,22.113Zm-32.153-2.4L298.1,1060.15l7.737,8.368,1.253-1.161c9.923-9.173,18.936-14.64,27.144-17.088Z"/><path class="c" d="M266.644,1006.651l.127.175,39.939-4.691,5.808,7.892-43.793,32.213-6.366-8.651,28.153-20.709-.129-.175-39.939,4.691-5.806-7.892,43.792-32.213,6.366,8.651Z"/><path class="c" d="M245.126,961.361c-1.988-5.654-.838-11.645,5.514-15.4,9.56-5.651,19.08-.991,24.4,8.008a28.771,28.771,0,0,1,4.076,16.056l-10.541.33a21.025,21.025,0,0,0-2.628-11.011c-2.585-4.374-6.72-5.726-10.13-3.709-3.676,2.174-4.318,5.671-1.141,11.046l3.176,5.373-8.425,4.98-3.175-5.374c-2.142-3.625-5.826-4.82-8.968-2.963-2.273,1.344-3.691,4.289-1.179,8.538a24.418,24.418,0,0,0,7.176,7.564l-5.876,8.531A30.764,30.764,0,0,1,226.824,982.3c-4.615-7.812-5.281-17.029,2.876-21.851,5.415-3.2,10.71-2.79,15.158,1.074Z"/><path class="c" d="M238.924,910.776l6.312,13.315,11.311-2.069,4.818,10.166-56.091,8.6-4.57-9.642,42.162-37.977,4.82,10.166Zm-22.437,18.667.125.262,18.109-3.683-3.949-8.329Z"/><path class="c" d="M165.11,881.572l2.487-7.652c5.7,1.449,9.446,4.359,11.5,10.176s.968,10.435-2.557,15.144l-6.74-4.392c2.1-2.437,3.477-5.077,2.342-8.294S168.279,882.146,165.11,881.572Zm31.3-13.755.073.205,39.575,7.107,3.262,9.238L188.064,902.48l-3.578-10.127,32.951-11.645-.073-.2L177.789,873.4l-3.263-9.238,51.257-18.113,3.578,10.128Z"/><path class="c" d="M186.757,829.3l-3.878-16.386-20.4,4.826L160,807.288l52.9-12.514,2.474,10.454-22.219,5.255,3.878,16.386,22.219-5.256,2.475,10.453-52.9,12.515-2.473-10.454Z"/><path class="c" d="M198.041,503.071c27.144,10.845,38.835,20.458,34.925,30.245a14.328,14.328,0,0,1-3.046,4.728l-8.42-5.6a3.225,3.225,0,0,0,.941-1.322c1.73-4.328-7.819-10-35.887-21.212l-2.139-.853,11.571-28.961,49.869,19.925-3.936,9.854-40.181-16.056Z"/><path class="c" d="M252.339,462.106,245.7,475.057l8.42,7.622-5.073,9.886-40.455-38.8,4.81-9.375,55.118,10.221-5.073,9.887Zm-28.121-6.366-.131.255,13.773,11.98,4.157-8.1Z"/><path class="c" d="M250.6,420.937l8.986-14-17.43-11.192,5.733-8.93,45.19,29.018-5.733,8.93-18.98-12.189-8.986,14,18.979,12.188-5.732,8.929-45.192-29.018,5.735-8.929Z"/><path class="c" d="M312.237,408.775l-5.736,7.164-17.844-12.455,3.363-4.195c-2.642-9.1-10.938-17.763-24.709-28.795l-4.671-3.741,20.079-25.068,33.772,27.049,4.034-5.036,16.05,14.693-5.736,7.163-8.8-7.051-18.6,23.224Zm-2.379-31.758-25.629-20.528-7.036,8.786,1.317,1.055c10.419,8.346,17.084,16.346,20.68,24Z"/><path class="c" d="M334.335,349.206l7.839-7.673L311.9,310.617l7.584-7.422,30.269,30.916,7.84-7.673-30.271-30.917,7.583-7.421,37.57,38.371L334.05,364.082l-37.568-38.369,7.582-7.423Z"/><path class="c" d="M394.446,295.3l-11.487,8.937,4.417,10.465-8.772,6.824-20.3-52.252,8.319-6.472,45.653,32.528-8.771,6.824ZM371.64,277.658l-.227.177,7.431,16.674,7.187-5.591Z"/><path class="c" d="M439.476,271.369l3.723,6-8.891,5.522-3.724-6a22.812,22.812,0,0,1-3.838,2.925c-10.109,6.279-19.979,1.119-26.576-9.506-6.679-10.755-6.927-21.891,3.184-28.169a22.618,22.618,0,0,1,4.363-2.078L403.954,234l8.892-5.523,3.763,6.062a21.545,21.545,0,0,1,3.8-2.99c10.11-6.279,19.981-1.118,26.657,9.636,6.6,10.625,6.845,21.76-3.264,28.04A21.961,21.961,0,0,1,439.476,271.369ZM425.4,268.006l-12.06-19.424a18.05,18.05,0,0,0-3.532,1.651c-4.446,2.762-4.008,8.631-.487,14.3s8.587,8.667,13.033,5.905A13.906,13.906,0,0,0,425.4,268.006Zm-3.656-24.644,12.061,19.425a13.91,13.91,0,0,0,3.532-1.652c4.446-2.76,4.007-8.63.486-14.3s-8.588-8.666-13.033-5.905A17.636,17.636,0,0,0,421.748,243.362Z"/><path class="c" d="M466.884,213.706l19.034,38.861-9.529,4.669-19.035-38.861-12.749,6.247-4.587-9.371,35.088-17.193,3.3,10Z"/><path class="c" d="M504.408,208.5l15.556-5.891-7.336-19.371,9.924-3.757L541.568,229.7l-9.922,3.758-7.988-21.09L508.1,218.26l7.987,21.091-9.923,3.758L487.15,192.894l9.923-3.76Z"/><path class="c" d="M573.931,208.991l-14.043,3.829.049,11.358L549.214,227.1l1.372-56.037,10.169-2.772,29.62,47.587L579.652,218.8Zm-14.263-25.056-.276.076.44,18.249,8.786-2.4Z"/><path class="c" d="M611.026,192.307l-5.671,20.81-11.5,2.06,6.656-22.624c-5.457-1.595-9.933-6.249-11.273-13.726-1.891-10.572,4.114-18.116,12.655-19.644l16.375-2.931,9.465,52.86-10.445,1.869L613.85,191.8Zm-6.664-22.969c-3.105.557-5.061,3.869-4.358,7.8s3.674,6.279,6.78,5.723l5.293-.947-2.42-13.517Z"/><path class="c" d="M684.7,193.224l-14.54.649-2.446,11.092-11.1.5L670.253,151.1l10.53-.47,18.449,52.932-11.1.5Zm-8.413-27.578-.287.014-3.575,17.9,9.1-.407Z"/><path class="c" d="M718.781,186.234l-.836,18.084-10.6-.488,2.478-53.639,17.118.789c9.526.439,16.4,7.052,15.868,18.546s-7.986,17.448-17.511,17.009Zm6.5-10.144c3.51.162,6.36-2.471,6.572-7.069s-2.383-7.481-5.892-7.643l-6.017-.277-.679,14.711Z"/><path class="c" d="M755.228,207.045l-11.943-1.579,18.287-25.674-9.838-27.38,11.942,1.578L769,172.262l.214.027,9.955-16.25,11.942,1.578L774.509,181.5l11,29.545-11.688-.772L766.957,189.4l-.212-.028Z"/><path class="c" d="M829.692,185.625l-.21-.05L802.472,214.7l-9.424-2.213L805.314,160.2l10.332,2.427-7.885,33.612.209.049,27.01-29.123,9.424,2.213-12.266,52.287-10.332-2.426Z"/><path class="c" d="M877.293,190.88l-13.881,40.984-10.051-3.4,13.881-40.983L853.8,182.926l3.348-9.883,37.011,12.529L889.449,195Z"/><path class="c" d="M884.5,239.609l21.439-49.233,27.347,11.9-5.48,8.993-16.96-7.382-4.1,9.424,14.987,6.526-4.166,9.564-14.987-6.524-4.84,11.113,18.276,7.955-4.166,9.566Z"/><path class="c" d="M945.4,243.471l-3.464-1.885L931.148,261.4l-8.69-4.729L948.133,209.5l8.69,4.729-9.9,18.195,3.59,1.952L970.3,221.56l10.2,5.55-25.171,15.652L956.15,275l-10.695-4.945Z"/><path class="c" d="M1002.809,254.062,978.853,290.1l-8.837-5.874,23.956-36.037-11.823-7.858,5.778-8.689,32.539,21.63-6.971,7.9Z"/><path class="c" d="M1026.768,290.4l.168.134,22.418-14.715,9.149,7.274-37.879,23.789c-6,3.752-12.466,5.77-17.853,1.486a13.836,13.836,0,0,1-5.064-7.456l9.2-3.856a4.551,4.551,0,0,0,1.624,2.566c.955.758,2.5,1,5.2-.668l2.705-1.672-2.469-1.963,11.922-38.153,9.316,7.407Z"/><path class="c" d="M1050.187,323.908l-12.454,13.142-7.7-7.3,36.938-38.982,12.437,11.786c6.92,6.559,7.8,16.057-.119,24.411s-17.444,7.988-24.366,1.429Zm11.547-3.431c2.55,2.416,6.427,2.286,9.593-1.056s3.089-7.22.539-9.636l-4.372-4.142-10.131,10.691Z"/><path class="c" d="M1082.9,368.006l-9.692-10.86-10.143,5.113-7.4-8.292,50.761-23.776,7.019,7.864L1084.077,385.8l-7.4-8.292Zm16.06-23.944-.191-.213-16.133,8.537,6.062,6.794Z"/><path class="c" d="M1120.739,386.661a5.843,5.843,0,1,1-7.928-.892A5.747,5.747,0,0,1,1120.739,386.661Z"/><path class="c" d="M1156.019,412.651l-9.073,5.6,2.9,4.7c5.463,8.844,4.614,17.543-4.719,23.31s-17.52,2.729-23.02-6.176l-8.478-13.726,45.688-28.219,15.825,25.619-9.63,4.262ZM1138.4,423.536l-10.312,6.37,2.676,4.331c2.523,4.087,5.9,4.445,8.773,2.671,3-1.854,4.1-4.892,1.5-9.1Z"/><path class="c" d="M1156.566,464.381l-16.178,8.126-4.763-9.482,47.986-24.106,7.691,15.312c4.28,8.522,1.878,17.753-8.4,22.919s-19.123,1.582-23.4-6.939Zm12.027.7c1.577,3.141,5.267,4.335,9.38,2.269s5.359-5.741,3.781-8.88l-2.7-5.382-13.16,6.611Z"/><path class="c" d="M1154.737,502.438l49.88-19.9,11.057,27.7-10.223,2.535-6.857-17.182-9.549,3.81,6.059,15.184-9.69,3.867-6.06-15.184-11.258,4.492,7.387,18.513-9.691,3.868Z"/><path class="c" d="M1204.412,541.972l4.721,15.949L1229,552.04l3.012,10.175-51.5,15.246-3.012-10.175,21.629-6.4-4.72-15.95-21.629,6.4-3.011-10.175,51.5-15.245,3.01,10.175Z"/><path class="c" d="M1173.354,596.594l-1.676-9.024,21.084-5.373.981,5.286c8.613,3.945,20.594,3.324,37.942.1l5.883-1.092,5.866,31.582-42.542,7.9,1.178,6.344-21.607,2.554-1.676-9.023,11.087-2.059-5.433-29.256Zm25.6,18.946,32.283-5.992-2.055-11.069-1.661.308c-13.124,2.438-23.536,2.255-31.683-.024Z"/></g><path class="c" d="M1420.82,1342.836l-77.984-69.557,13.037-14.617,96.79,86.329-36.119,40.494-17.042-18.748Z"/><path class="c" d="M1286.053,1328.661c20.631-19.211,48.252-6.448,74.517,21.755s37.032,56.66,16.4,75.871-48.252,6.447-74.517-21.756S1265.42,1347.872,1286.053,1328.661Zm73.744,79.186c9.783-9.11,2.592-25.958-13.951-43.721s-32.838-26.134-42.62-17.024-2.592,25.958,13.95,43.72S1350.014,1416.955,1359.8,1407.847Z"/><path class="c" d="M1260.1,1482.311c6.886-.321,12.228-2.029,16.771-5.456,9.934-7.492,6.35-25.211-8.822-45.33s-31.225-28.434-41.052-21.022c-4.966,3.745-8.376,9.334-10.235,16.539l-19.94-12.811c2.641-10.346,7.819-18.427,15.848-24.484,22.718-17.135,48.445-1.264,71.65,29.506s31.393,59.869,8.675,77c-7.4,5.579-15.4,8.368-25.624,8.884Z"/><path class="c" d="M140.906,1389.894l21.135,16.585,20.624-17.5,16.138,12.662L95.419,1485.38l-15.3-12.01,56.74-120.333,16.137,12.663Zm-31.22,61.227.416.326,32.771-28.687-13.223-10.375Z"/><path class="c" d="M-25.214,1426.063l-.2-16.488c12.411-4.2,21.89-3.5,29.947,4.349s9,17.308,5.125,29.825l-16.487.232c2.569-6.808,3.535-13.111-.92-17.452S-18.474,1423.318-25.214,1426.063Zm53.442-61.489.284.278,84.153-34.41,12.8,12.469-90.5,92.892-14.028-13.67,58.181-59.716-.284-.277-84.154,34.41-12.8-12.47,90.5-92.892,14.029,13.669Z"/><path class="c" d="M-18.031,1308.486l-19.445-23.763L-76.192,1316.4l-12.4-15.159,100.375-82.138,12.405,15.16-42.158,34.5,19.446,23.763,42.157-34.5,12.405,15.159-100.376,82.138-12.4-15.158Z"/><path class="c" d="M-39.585,136.039c8.616-6.956,21.32-7.917,35.462,2.565,21.285,15.778,22.835,37.025,11.487,52.334A44.006,44.006,0,0,1-18.824,207.6l-12.2-20.573c7.486-1.7,14.438-6.1,18.141-11.1,5.518-7.443,3.556-16.31-4.036-21.936-8.187-6.069-15.567-5.445-22.345,3.7l-6.777,9.144-18.755-13.9,6.776-9.144c4.572-6.167,2.812-14.061-4.184-19.246-5.062-3.752-12.241-4.956-17.6,2.273a36.116,36.116,0,0,0-6.567,18.2l-22.738-6.973a45.614,45.614,0,0,1,9.456-26.761c9.85-13.289,26.722-19.561,44.882-6.1,12.057,8.937,17.083,19.581,14.588,30.416Z"/><path class="c" d="M49.109,95.846,31.134,115.815l16.06,21.76L33.47,152.821-43.09,44.01l13.017-14.46L86.157,94.294,72.432,109.541ZM-9.871,60.559l-.355.392,26.41,34.638L27.429,83.1Z"/><path class="c" d="M25.407-73.337l16.462.944c3.336,12.673,1.981,22.082-6.408,29.578S17.569-35.029,5.352-39.766L6.26-56.229c6.614,3.034,12.835,4.432,17.473.288S27.679-66.423,25.407-73.337ZM83.054-15.77l-.3.265,28.508,86.334L97.94,82.733,11.529-13.98,26.136-27.03,81.687,35.144l.3-.267L53.476-51.457,66.8-63.361,153.21,33.353,138.6,46.4Z"/><path class="c" d="M143.317-58.848l25.07-17.723-28.879-40.847L155.5-128.726l74.873,105.9L214.38-11.519,182.934-56,157.863-38.272,189.31,6.206,173.317,17.512,98.445-88.388l15.992-11.306Z"/><path class="c" d="M1182.18-14.181l75.735-105.285,44.69,32.15-16.863,18.909-27.717-19.939-14.5,20.155,24.493,17.621-14.712,20.455-24.5-17.62-17.094,23.764,29.865,21.484L1226.87,17.969Z"/><path class="c" d="M1341.439,6.163l-.3-.264-82.53,38.147-13.342-11.884,86.259-96.856,14.626,13.027L1290.705,10.6l.3.263,82.53-38.145L1386.873-15.4l-86.26,96.856-14.625-13.028Zm50.637-63.823.935,16.463c-12.211,4.756-21.712,4.48-30.113-3s-9.769-16.889-6.453-29.568l16.46-.97c-2.262,6.918-2.945,13.257,1.7,17.394S1385.467-54.615,1392.076-57.66Z"/><path class="c" d="M1429,71.9c-.938-6.83-3.122-12-6.944-16.212-8.356-9.217-25.68-4.052-44.352,12.873s-25.506,33.658-17.239,42.777c4.177,4.609,10.051,7.5,17.394,8.7l-10.963,21.012c-10.541-1.7-19.057-6.125-25.813-13.576-19.111-21.082-5.622-48.135,22.934-74.018s56.8-36.659,75.91-15.578c6.222,6.864,9.723,14.587,11.154,24.721Z"/><path class="c" d="M1478.993,129.1l-83.733,62.52-11.717-15.695,83.732-62.52-15.677-21,20.191-15.075,43.151,57.8-21.774,12.954Z"/><path class="c" d="M391.315,1412.067l.29.119,48.906-43.377,13.035,5.386-34.921,84.482-14.291-5.9,22.45-54.31-.29-.12-48.906,43.378-13.035-5.386,34.921-84.481,14.291,5.9Z"/><path class="c" d="M309.25,1384.681a24.58,24.58,0,0,0,9.672,9.8c8.647,4.656,19.521-2.543,27.94-18.181s8.439-28.682-.116-33.287a24.558,24.558,0,0,0-14.955-2.416l1.726-16.87a36.178,36.178,0,0,1,22.383,4.041c19.778,10.647,18,32.239,5.129,56.158s-29.92,37.288-49.7,26.641a37.618,37.618,0,0,1-15.153-14.833Z"/><path class="c" d="M249.027,1346.627a24.567,24.567,0,0,0,8.753,10.631c8.194,5.412,19.671-.78,29.458-15.6s10.977-27.806,2.87-33.16a24.56,24.56,0,0,0-14.677-3.747l3.232-16.646a36.193,36.193,0,0,1,21.93,6.034c18.742,12.378,15.038,33.718.069,56.384s-33.142,34.452-51.885,22.075a37.653,37.653,0,0,1-13.76-16.132Z"/><path class="c" d="M205.582,1317.319c31.3-38.677,51.946-53.558,63.883-43.9a18.3,18.3,0,0,1,5.1,6.482l-12.953,11.191a4.174,4.174,0,0,0-1.377-1.953c-5.278-4.272-18.976,8.667-51.347,48.666l-2.464,3.046L171.1,1312.266l57.511-71.065,12.019,9.728-46.338,57.257Z"/><path class="c" d="M212.358,1226.428l-63.966,65.3-31.049-30.409,13.921-11.225,19.255,18.86,12.246-12.5-17.017-16.667,12.428-12.686,17.016,16.666,14.439-14.741-20.749-20.321,12.428-12.687Z"/><path class="c" d="M178.208,1164.392l8.567,10.269-27.037,25.278-5.02-6.017c-15.214,2.351-32.228,13.554-55.29,32.794l-7.821,6.524L61.622,1197.3l56.551-47.18-6.024-7.222,29.715-22.069,8.567,10.269-14.739,12.3,27.777,33.294Zm-50.129-2.4-42.915,35.8,10.509,12.6,2.2-1.842c17.447-14.554,32.724-23.355,46.131-27.463Z"/><path class="c" d="M103.64,1096.372c12.315,18.534.812,37.089-21.814,52.118s-44.188,18.445-56.5-.09-.811-37.088,21.814-52.119S91.325,1077.837,103.64,1096.372Zm-63.524,42.2c5.839,8.789,18.673,6.157,32.923-3.309s21.648-20.276,15.808-29.065-18.674-6.157-32.923,3.308S34.276,1129.784,40.116,1138.573Z"/><path class="c" d="M76.055,1054.714-4.87,1097.229-16,1076.051c-6.074-11.561-5.323-23.047,8.781-30.457,10.636-5.587,19.2-3.6,24.279,1.288l.462-.243c-1.847-9.414,1.906-17.994,13.12-23.886,16.532-8.685,27.626-1.888,34.283,10.783Zm-55.492,12.867-4.081-7.769c-2.38-4.531-7.642-4.716-11.8-2.53-4.393,2.309-6.993,6.625-4.418,11.527l3.886,7.4Zm10.254-15.3,4.082,7.769,18.728-9.841-4.129-7.86c-3.061-5.827-8.577-7.059-14.126-4.144S27.708,1046.364,30.817,1052.283Z"/><path class="c" d="M15.549,970.568l8.057,19.619,18.9-3.131,6.152,14.98-93.456,13.077-5.834-14.207,75.674-56.375L31.2,959.512Zm-40,27.723.159.386,30.328-5.564L.99,980.838Z"/><path class="c" d="M-37.856,931.872l-6.9-23.236-33.8,10.038-4.4-14.824L4.673,877.828l4.4,14.822-36.8,10.93,6.9,23.236,36.8-10.93,4.4,14.824-87.628,26.022-4.4-14.824Z"/><path class="c" d="M7.048,611.834l-2.128,13.2L-31.9,621.22l1.247-7.736c-11.76-9.937-31.379-15.426-61.034-20.205l-10.058-1.621,7.448-46.207,72.72,11.718,1.5-9.281,36.156,7.941-2.127,13.2-18.954-3.053-6.9,42.8Zm-31.087-39.4-55.185-8.893-2.609,16.193,2.837.457c22.434,3.617,39.1,9.37,51,16.789Z"/><path class="c" d="M9.436,510.92c-5.9,21.457-27.448,24.959-53.64,17.761S-87.128,507.459-81.23,486s27.447-24.959,53.639-17.761S15.334,489.465,9.436,510.92ZM-64.1,490.709c-2.8,10.174,7.612,18.127,24.109,22.66s29.509,3.019,32.305-7.156-7.613-18.127-24.11-22.66S-61.308,480.535-64.1,490.709Z"/><path class="c" d="M-28.185,397.9a24.574,24.574,0,0,0-8.523,10.818c-3.543,9.159,4.952,19.055,21.517,25.461s29.505,4.8,33.01-4.261a24.563,24.563,0,0,0,.534-15.139l16.952-.388A36.194,36.194,0,0,1,34.082,437.1c-8.1,20.951-29.744,21.878-55.077,12.081s-40.719-25.047-32.616-46A37.615,37.615,0,0,1-40.782,386.3Z"/><path class="c" d="M-5.3,342.188l65.992,32.7-6.865,13.855-65.993-32.7-9.186,18.537L-37.266,366.7l25.284-51.022L3,325.431Z"/><path class="c" d="M47.98,299.414l.165-.268-30.6-33.062,8.891-14.522,49.97,55.945c7.891,8.872,13.131,18.573,7.9,27.126a18.234,18.234,0,0,1-10.444,8.305L64.814,329.2a6.034,6.034,0,0,0,3.63-2.677c.928-1.515.85-3.889-2.675-7.885l-3.526-4-2.4,3.921-65.1-15.231L3.8,288.537Z"/><path class="c" d="M111.575,289.047,38.642,233.932l33.065-43.755,72.934,55.115-9.323,12.334L76.556,213.219,62.133,232.306,120.9,276.712Z"/><path class="c" d="M128.255,179l16.587-17.672-25.708-24.131,10.581-11.272,66.651,62.559-10.581,11.273-27.993-26.274-16.587,17.671L169.2,217.424,158.616,228.7,91.965,166.138l10.582-11.274Z"/><path class="c" d="M191.8,116.4c11.577-9.77,25.47-9.021,37.514,5.251s10.527,28.028-1.131,37.866l-16.448,13.881-58.956-69.868,11.818-9.971L187.166,120.3Zm12.88-56.666L263.632,129.6l-11.817,9.971L192.859,69.7Zm-6.226,73.949L212.1,149.847l4.152-3.5c5.35-4.514,4.549-10.161.843-14.553-3.958-4.69-9.058-6.2-14.567-1.549Z"/><path class="c" d="M250.032-1.638l12.2,1.817c.6,9.457-1.833,16.216-9.251,21.1s-14.586,4.443-23.037.157L233.1,9.507c4.5,2.663,8.959,4.108,13.06,1.408S250.7,3.553,250.032-1.638Zm34.577,45.873-.261.173,8.4,64.824-11.78,7.754L230.705,40.635l12.915-8.5,32.313,49.083.262-.172-8.4-64.823,11.781-7.756,50.265,76.354-12.915,8.5Z"/><path class="c" d="M391.959,73.114,379.766,78.6,362.691,45.756l7.145-3.215c1.828-15.286-4.385-34.688-16.711-62.078l-4.181-9.29,42.679-19.2,30.229,67.167,8.573-3.859,13.262,34.56-12.193,5.487-7.879-17.506L384.081,55.608Zm15.794-47.635L384.812-25.492l-14.957,6.73,1.18,2.621c9.326,20.722,13.692,37.8,14.044,51.823Z"/><path class="c" d="M474.609-42.619l-.3.1L465.1,22.189l-13.423,4.327L423.628-60.493l14.715-4.741L456.372-9.3l.3-.094,9.215-64.713,13.423-4.327L507.354,8.572l-14.716,4.742Z"/><path class="c" d="M548.1-50.369c8.685.125,16.554,5.37,19.177,17.5,3.949,18.252-6.439,30.519-21.144,33.7a37.225,37.225,0,0,1-24.019-2.819l3.863-16.735a27.268,27.268,0,0,0,16.4,2.2c7.148-1.546,10.722-7.264,9.312-13.773-1.517-7.02-6.124-10.031-14.906-8.131L528-36.534l-3.48-16.082,8.783-1.9c5.922-1.282,9.1-6.378,7.8-12.376-.939-4.34-4.458-8.254-11.4-6.752a31.064,31.064,0,0,0-13.468,6.922l-9.467-14.117a39.134,39.134,0,0,1,19.691-10.273c12.765-2.763,25.868,1.483,29.237,17.054,2.236,10.339-.507,18.414-7.706,23.179Z"/><path class="c" d="M916.456-3.471,896.1-9.434,886.742,7.284,871.2,2.73l48.164-81.149L934.1-74.1l-3.25,94.309-15.54-4.553ZM919.8-52.027l-.4-.118L904.8-24.986l12.732,3.731Z"/><path class="c" d="M944.553,25.349l33.968-84.87,22.211,8.892c12.123,4.854,19.008,14.08,13.087,28.872-4.465,11.154-12.274,15.2-19.3,14.778l-.2.486c7.516,5.963,10.23,14.927,5.522,26.686C992.9,37.531,980.05,39.561,966.763,34.241ZM980.545-2.162,972.4-5.422l-7.861,19.641,8.243,3.3c6.111,2.446,11.107-.2,13.436-6.015S986.752.324,980.545-2.162Zm-2.129-18.3,8.146,3.262c4.752,1.9,8.875-1.37,10.623-5.735,1.844-4.608,1.02-9.579-4.12-11.636l-7.758-3.108Z"/><path class="c" d="M1064.729-1.75l-33.345,65.671-13.788-7L1050.941-8.75,1032.5-18.114l8.041-15.837,50.77,25.776-9.9,14.89Z"/><path class="c" d="M1082.215,94.692c-18.82-11.875-15.915-33.511-1.42-56.483s32.774-34.907,51.594-23.032,15.916,33.511,1.421,56.483S1101.036,106.567,1082.215,94.692Zm40.7-64.5c-8.925-5.631-19.558,2.021-28.686,16.488s-11.458,27.358-2.534,32.989,19.558-2.02,28.688-16.486S1131.836,35.826,1122.912,30.2Z"/><path class="c" d="M1164.759,137.982l-11.126-9L1170,90.818l-.244-.2-35.7,37.972-12.02-9.727,62.781-66.789,12.424,10.056-21.986,51.251.244.2,45.537-32.193,12.425,10.054-52.223,75.331-12.019-9.725,29.689-42.833-.244-.2Z"/><path class="c" d="M1231.814,191.1l-14.894-15.1-16.3,10.067-11.374-11.527L1270.754,127l10.786,10.934L1232.9,218.8l-11.374-11.526Zm26.5-40.823-.294-.3-25.949,16.651,9.319,9.445Z"/><path class="c" d="M1314.122,201.39l-56.7,47.006-9.867-11.9,56.7-47.008-13.2-15.924,13.673-11.334,36.335,43.832-15,9.725Z"/><path class="c" d="M1352.191,279.025l-.174-.26-64.747,8.959-7.857-11.714,75.915-50.92,8.613,12.843-48.8,32.733.173.261,64.749-8.959,7.855,11.714L1312,324.6l-8.612-12.842Z"/><path class="c" d="M1379.8,347.617c2.252,8.391-.645,17.393-11.592,23.228-16.479,8.785-31.117,2.143-38.193-11.134a37.212,37.212,0,0,1-3.849-23.876l17.153-.856a27.266,27.266,0,0,0,2.368,16.378c3.439,6.455,9.915,8.331,15.792,5.2,6.338-3.378,7.977-8.632,3.751-16.562L1361,332.064l14.521-7.739,4.225,7.929c2.851,5.348,8.619,7.009,14.035,4.122,3.918-2.089,6.724-6.544,3.381-12.814a31.048,31.048,0,0,0-10.337-11.065l11-12.964a39.143,39.143,0,0,1,15.26,16.137c6.143,11.523,5.637,25.291-8.422,32.785-9.335,4.975-17.852,4.542-24.4-1.083Z"/><path class="c" d="M1382.175,423.735l-8.218-19.551-18.875,3.289-6.275-14.929,93.336-13.856,5.951,14.158-75.2,57-6.275-14.928Zm39.77-28.055-.161-.386-30.278,5.817,5.141,12.232Z"/><path class="c" d="M1377.712,463.515l87.472-26.544,4.489,14.8L1399.2,473.154l7.191,23.692,70.476-21.387,4.49,14.8-70.476,21.388,2.729,9-35.97,8.731-3.883-12.8L1392.122,511Z"/><path class="c" d="M1465.469,571.785l-.058-.307-63.028-17.337-2.592-13.863,89.861-16.8,2.841,15.2-57.767,10.8.057.308,63.029,17.337,2.591,13.863-89.861,16.8-2.842-15.2Z"/><path class="c" d="M1384.55,915.387l86.244,30.314-7.932,22.57c-4.329,12.319-13.252,19.591-28.283,14.308-11.335-3.985-15.714-11.613-15.592-18.657l-.492-.174c-5.636,7.764-14.474,10.857-26.425,6.657-17.619-6.193-20.2-18.946-15.451-32.448Zm29.026,34.785,2.91-8.278-19.96-7.017-2.944,8.378c-2.182,6.208.672,11.087,6.586,13.166S1411.36,956.479,1413.576,950.172Zm18.188-2.909-2.91,8.278c-1.7,4.829,1.75,8.81,6.185,10.368,4.682,1.646,9.613.611,11.448-4.612l2.772-7.885Z"/><path class="c" d="M1392.115,1027.206c-5.305,6.877-14.22,10.032-25.5,4.863-16.976-7.779-20.57-23.445-14.3-37.12a37.24,37.24,0,0,1,16.656-17.536l11.08,13.122a27.267,27.267,0,0,0-11.59,11.813c-3.046,6.647-.613,12.933,5.441,15.707,6.53,2.992,11.7,1.11,15.445-7.058l3.744-8.166,14.958,6.854-3.743,8.168c-2.525,5.507-.349,11.1,5.231,13.659,4.036,1.847,9.279,1.378,12.239-5.079a31.047,31.047,0,0,0,2.533-14.929l16.975.885a39.145,39.145,0,0,1-3.58,21.917c-5.44,11.871-16.694,19.814-31.179,13.177-9.615-4.406-14.434-11.441-13.932-20.059Z"/><path class="c" d="M1333.072,1075.252l10.549-18.4-14.07-13.005,8.054-14.047,67.662,65.773-7.639,13.322-90.941-25.171,8.055-14.048Zm46.433,14.582.208-.362-23-20.534-6.6,11.509Z"/><path class="c" d="M1321.283,1165.128l.183-.254-30.95-57.574,8.243-11.444,74.171,53.428-9.037,12.545-47.681-34.347-.184.256,30.951,57.574-8.245,11.444-74.169-53.428,9.037-12.547Z"/><path class="c" d="M1231.635,1199.288l9.686-10.537,37.054,18.733.213-.23-35.649-38.017,10.465-11.383,62.7,66.858-10.817,11.767-49.766-25.167-.212.231,29.261,47.473-10.817,11.767-71.894-56.858,10.465-11.383,40.879,32.324.212-.23Z"/><path class="c" d="M1166.027,1243.632c16.887-14.493,36.711-5.354,54.4,15.258s23.719,41.59,6.834,56.085-36.712,5.352-54.4-15.258S1149.141,1258.126,1166.027,1243.632ZM1215.7,1301.5c8.008-6.873,3.825-19.286-7.317-32.267s-22.777-19-30.785-12.124-3.824,19.285,7.318,32.266S1207.689,1308.371,1215.7,1301.5Z"/><path class="c" d="M1114.5,1262.283l11.018-7.58,22.669,29.263-6.456,4.44c.935,15.367,10.515,33.346,27.54,58.09l5.774,8.393-38.561,26.529-41.748-60.678-7.746,5.328-19.226-31.63,11.016-7.581,10.882,15.816,35.719-24.576Zm-7.025,49.693,31.681,46.045,13.513-9.3-1.628-2.367c-12.88-18.72-20.229-34.747-23.081-48.477Z"/><path class="c" d="M1063.712,1318.664l43.971,80.142-38.1,20.9-6.711-16.575,23.629-12.965-8.417-15.342-20.882,11.458-8.543-15.57,20.882-11.457-9.925-18.091-25.461,13.972-8.543-15.571Z"/><path class="c" d="M991.308,1419.383l.289-.122,3.4-65.277,12.984-5.509,35.708,84.147-14.234,6.04-22.955-54.1-.289.123-3.4,65.275-12.984,5.511-35.707-84.148,14.234-6.04Zm25.76,51.344-11.677-3.983c1.114-9.409,4.72-15.62,12.895-19.09s15.148-1.746,22.69,3.992l-5.25,11.164c-3.953-3.429-8.074-5.654-12.593-3.735S1017.347,1465.5,1017.068,1470.727Z"/><path class="c" d="M914.209,1458.666a24.555,24.555,0,0,0,13.771-.018c9.383-2.9,11.88-15.7,6.637-32.665s-14.523-26.128-23.806-23.261a24.557,24.557,0,0,0-12.209,8.966l-10.815-13.06a36.17,36.17,0,0,1,18.58-13.121c21.46-6.629,35.605,9.777,43.623,35.727s5.592,47.478-15.869,54.106a37.615,37.615,0,0,1-21.2.4Z"/><rect x="-3.403" y="549.29" width="28.259" height="83.466"/><rect x="-15.647" y="320.114" width="28.259" height="23.337"/><rect x="523.195" y="-6.791" width="32.908" height="13.583"/><rect class="c" x="1395.298" y="462.93" width="4.702" height="17.395"/><rect x="1389.636" y="532.185" width="10.364" height="25.065"/><rect x="1389.636" y="1354.306" width="10.364" height="25.065"/></g></svg>