<svg height="2000" width="2000" xmlns="http://www.w3.org/2000/svg"><g fill="#ffd400"><path d="m490.52 890.33-14.47-3 1.56-7.53 41.17 8.51-2.78 13.47c-1.62 7.82-7.36 12.76-16.18 10.94s-12.14-8.64-10.52-16.46zm19.88 4.1-13.06-2.69-1.2 5.82c-.74 3.59 1.17 6.5 5.29 7.35s7-1.06 7.77-4.65zM469.83 920.83l41.69 5.33-3.09 24.19-6.76-2.08 2-15.37-9.77-1.24-1.74 13.58-6.91-.89 1.75-13.58-11.2-1.43-2.12 16.56-6.91-.89zM456.3 963l.28-6.48 15.83-.53-.19 4.5c5.86 4.82 17.5 6.88 31.3 7.46l3.48.15-1.1 25.74-35-1.49-.24 5.7-15.73-1.87.27-6.48 8.82.38 1.13-26.7zm14.89 21.67 28.08 1.19.45-10.56h-1.32c-10.44-.44-20.73-3-26.54-6.36zM474.09 1030.56l-.61-13.32-9.3-2.33-.38-8.1 42.64 12.1.32 7-41.34 16-.37-8.1zm6.26-11.59.43 9.24 15-5.2v-.24zM486.17 1062.84l-.38-3-18.11 2.33-1-7.62 41.69-5.37 1 7.63-16.67 2.19.39 3.1 18.07 8.64 1.1 8.52-21.4-10.51-20.14 17.12-1.7-8.5zM473.09 1098.94l41-9.07 1.66 7.5-34.24 7.57 3.39 15.36 34.25-7.56 1.66 7.5-34.25 7.57 1.23 5.57-15.68 2.24-1.4-6.34 8.62-1.9zM518.78 1163.21l-.06-.17-32.12-9.78-1.87-6.15 40.2-12.28 2.24 7.35-26.7 8.16v.17l32.18 9.77 1.87 6.14-40.2 12.28-2.24-7.35zM506.51 1210.35c-4.89-11.5 1.8-20 13-24.77s21.94-3.64 26.82 7.85-1.8 20-13 24.76-21.93 3.65-26.82-7.84zm33.38-14.19c-2.68-6.3-9.74-6.5-17.31-3.28s-12.34 8.44-9.66 14.74 9.74 6.5 17.32 3.28 12.33-8.44 9.65-14.74zM546.63 1235.16l7.44 13.87 14.81-8 3.64 6.77-37 19.89-3.63-6.77 16.08-8.64-7.44-13.86-16.09 8.63-3.63-6.77 37-19.88 3.63 6.77zM569.61 1275.06l8.67 13.13 14-9.26 4.24 6.41-35.08 23.16-4.24-6.41 15.24-10.09-8.67-13.13-15.21 10.13-4.23-6.42 35.08-23.16 4.23 6.42zM591.19 1332.26l-8.28-10.45-8.92 3.54-5-6.35 41.68-15.1 4.36 5.51-24.22 37.12-5-6.35zm-1.69-13.06 5.74 7.24 9.16-13-.15-.19zM620.31 1355.42l-17.82 4.12-6-6.42 18.88-4.21c-2-4.62-1.12-10 3.45-14.28 6-5.6 13.59-4.61 18.54.71l9.13 9.8-30.78 28.64-5.23-5.62 11.6-10.81zm3.22-6.77 3.68 4 9-8.35-3.68-4c-2.17-2.33-5.75-2.21-8.25.13s-2.92 5.89-.75 8.22zM642.9 1399.88l27.1-32.17 23.67 19.91-27.06 32.17-5.88-5 22.53-26.79-11.9-10-22.58 26.84zM693 1439.88c-10.24-7.14-9.1-17.91-2.17-27.86s16.65-14.75 26.89-7.61 9.11 17.92 2.18 27.87-16.7 14.72-26.9 7.6zm20.74-29.75c-5.62-3.92-11.7-.33-16.41 6.42s-6 13.7-.34 17.62 11.7.32 16.4-6.42 5.92-13.75.3-17.62zM743.59 1422.13l21.41 12.36-21 36.39-6.7-3.88 17.57-30.36-8.32-4.81c-10.89 18.82-20.21 29.17-28.37 24.45a11 11 0 0 1-3.32-2.89l4.56-5a5.67 5.67 0 0 0 1.48 1.28c3.48 2 9.24-4.23 21.93-26.16zM793.87 1464.34l-.16-.08-28.71 17.37-5.83-2.71 17.73-38.12 7 3.24-11.78 25.32.16.08L801 1452l5.83 2.71-17.73 38.12-7-3.25zM831.69 1471.66l-12.06 32.93-7.28-2.66 12.07-32.93-11.42-4.2 2.4-6.54 30.17 11-3.53 6.13zM875.09 1492.51h-.17l-25.42 21.94-6.2-1.69 11.08-40.55 7.42 2-7.37 26.94h.18l25.43-22 6.2 1.69-11.08 40.55-7.42-2zM905.67 1509l-3-.54-3.25 18-7.56-1.37 7.48-41.37 7.56 1.37-3 16.54 3.07.56 13.7-14.61 8.45 1.53-16.49 17.22 10.24 24.37-8.61-1zM955.75 1524.94l-13.27-1.29-3.64 8.87-8.07-.78 18.07-40.48 7 .68 9.91 43.2-8.07-.78zm-10.58-7.85 9.21.9-3-15.62h-.24zM1000.08 1506.88a4.27 4.27 0 1 1-4.26 4.28 4.29 4.29 0 0 1 4.26-4.28zM1051 1517.57l-7.58 16.65-8.72.84 8.15-17.56c-4.88-1.22-8.64-5.2-9.24-11.42-.78-8.19 4.61-13.59 11.84-14.28l13.33-1.28 4 41.85-7.65.73-1.51-15.78zm-3.42-6.67 5.38-.52-1.16-12.19-5.38.51c-3.17.31-5.25 3.22-4.92 6.63s2.91 5.87 6.07 5.57zM1085.77 1510.24l-5.15.89-1.11-6.39 5.09-.88c3.91-.68 6-3.24 5.48-6.38s-3.46-4.82-7.3-4.15a19.84 19.84 0 0 0-8.14 3.35l-4.13-5.55a25.7 25.7 0 0 1 11.37-4.72c7.4-1.28 14.39.74 15.64 7.95 1 5.45-1.74 9.27-5.36 10.93v.17c5.41.23 9.27 2.85 10.27 8.58 1.46 8.47-4.79 13.51-13.31 15a24 24 0 0 1-13.28-1.36l2.51-6.65a18.34 18.34 0 0 0 9.58 1.15c4.44-.77 7.29-3.64 6.65-7.31-.64-3.87-4.02-5.46-8.81-4.63zM1115.87 1480.16l4.22 15.78 3.94-1.06c8.41-2.24 15.14.37 17.36 8.67s-2.26 13.9-10.73 16.16l-11.37 3-10.85-40.61zm6 22.51 3 11.37 3.6-1c4.7-1.26 6.08-4.24 5.21-7.49-.92-3.42-3.49-5.15-8.31-3.87zm23.69-30.45 10.85 40.61-7.42 2-10.85-40.61zM1176.56 1486.53l-2.82 1 6.31 17.13-7.22 2.65-14.51-39.44 7.21-2.65 5.81 15.77 2.93-1.07 4.39-19.54 8.06-3-5.48 23.19 21.18 15.82-7.91 3.55zM1233.54 1462l-2.67 1.37 8.3 16.26-6.84 3.49-19.12-37.44 6.84-3.49 7.65 15 2.78-1.42 2-19.92 7.64-3.9-2.67 23.68 22.92 13.18-7.43 4.47zM1282.68 1456c-10.62 6.57-20 1.25-26.44-9.06s-6.93-21.13 3.69-27.7 20.06-1.26 26.44 9.06 6.93 21.16-3.69 27.7zm-19.08-30.84c-5.82 3.6-4.95 10.61-.62 17.61s10.21 10.91 16 7.31 4.94-10.62.61-17.61-10.17-10.88-16-7.28zM1318.49 1396.57l-.14.11 7.62 21.78-6.24 4.79-19.1-13-.15.11 14.71 23.31-6.1 4.68-22.49-35.73 6.81-5.23 23.6 16 .14-.11-9.3-26.92 6.81-5.23 28.69 31-6.1 4.68zM1359.07 1360.21l-.13.12 9.92 20.83-5.68 5.43-20.39-10.83-.13.12 17.12 21.59-5.56 5.31-26.2-33.1 6.21-5.93 25.17 13.33.13-.13-12.14-25.76 6.21-5.93 31.85 27.71-5.56 5.31zM1377.94 1318l5.37-6.15 16.72 31.07c2.64 4.93 3.93 10.11.14 14.46a10.73 10.73 0 0 1-6 3.69l-2.07-6.67a4.25 4.25 0 0 0 2.63-1.37c.79-.91.83-2.7-.6-5.54l-1-2-1.58 1.81-30.74-9.6 5.76-6.61 22.41 7.28.12-.14zM1406.42 1309.26l9.32-12.67-13.54-10 4.55-6.19 33.86 24.91-4.55 6.19-14.71-10.82-9.32 12.68 14.7 10.81-4.55 6.2-33.86-24.91 4.55-6.2zM1439.47 1254.88l-.09.15 14.19 30.43-3.32 5.51-36-21.71 4-6.58 23.92 14.42.09-.16-14.26-30.46 3.32-5.5 36 21.7-4 6.58zM1463.68 1230l-1.32 2.7 16.4 8-3.38 6.9-37.76-18.48 3.38-6.91 15.1 7.39 1.38-2.8-10.32-17.16 3.77-7.71 12.07 20.55 26.24-3.2-3.26 8zM1492.69 1186.17l-4.88 12.41 7.54 5.93-3 7.55-34-28.45 2.57-6.54 44.27 2.29-3 7.54zm-10.45 8 3.39-8.61-15.85-1.38-.09.22zM1509.39 1167.12l-40.32-11.9 2.18-7.37 33.63 9.92 4.46-15.09-33.64-9.92 2.18-7.37 33.63 9.92 1.62-5.47 14.81 5.62-1.84 6.22-8.47-2.5zM1500.36 1088.46v.17l23.75 23.74-1.23 6.31-41.26-8.07 1.48-7.55 27.4 5.36v-.17l-23.81-23.75 1.23-6.31 41.26 8.07-1.48 7.54zM1506.5 1041.07v.18l25.88 21.4-.64 6.39-41.83-4.15.76-7.65 27.79 2.76v-.18l-25.94-21.4.63-6.39 41.83 4.14-.76 7.65zM1506.87 997.49a4.26 4.26 0 1 1 4.28 4.24 4.26 4.26 0 0 1-4.28-4.24zM1498 946.73l34.9-3.49.77 7.71-34.9 3.49 1.21 12.13-6.93.69-3.2-32 7.05.5zM1528 905.25c2.22 12.29-6.19 19.12-18.12 21.27s-22.2-1.3-24.42-13.59 6.19-19.12 18.12-21.27 22.24 1.34 24.42 13.59zm-35.69 6.44c1.22 6.74 8.06 8.49 16.16 7s13.89-5.5 12.68-12.23-8.06-8.49-16.16-7-13.85 5.54-12.64 12.23zM1494.41 872.17l-4.18-15.17-16.23 4.47-2-7.41 40.53-11.18 2 7.41-17.6 4.86 4.19 15.17 17.6-4.86 2 7.41-40.52 11.18-2-7.41zM1479.21 804.41l1.15 2.77 16.87-7 2.93 7.11-38.85 16-2.93-7.11 15.54-6.42-1.19-2.88-19.73-3.63-3.28-7.93 23.39 4.56 15-21.78 3.85 7.76zM1477.25 754.94c5.7 11.12-.37 20.09-11.17 25.62s-21.62 5.2-27.31-5.91.37-20.1 11.17-25.63 21.62-5.2 27.31 5.92zM1445 771.47c3.12 6.09 10.18 5.79 17.5 2s11.7-9.3 8.58-15.39-10.18-5.79-17.5-2-11.73 9.3-8.58 15.39zM1420.9 714.44l.09.15 22.33-5.83 4.27 6.61-14.48 18 .1.15 24.43-12.76 4.17 6.46-37.44 19.52-4.66-7.22 17.82-22.22-.1-.16-27.59 7.09-4.66-7.21 33.21-26.08 4.17 6.46zM1387.94 671.06l.11.14 21.57-8.21 5 6.11-12.45 19.45.12.14 22.9-15.33 4.84 6-35.11 23.44-5.41-6.67 15.32-24-.11-.14L1378 682l-5.41-6.67 30.19-29.5 4.84 6zM1347.38 648.82l-5.7-5.84 32.32-14.17c5.12-2.23 10.4-3.1 14.43 1a10.77 10.77 0 0 1 3.19 6.28l-6.81 1.54a4.3 4.3 0 0 0-1.16-2.74c-.84-.86-2.62-1-5.56.15l-2.1.86 1.68 1.72-12 29.88-6.13-6.27 9.06-21.77-.12-.12zM1341 619.75l-11.89-10.31-11 12.7-5.8-5 27.55-31.75 5.8 5-12 13.79 11.88 10.32 12-13.79 5.81 5-27.56 31.75-5.8-5zM1289.42 582.44l.14.11 31.44-11.71 5.22 3.74-24.51 34.15-6.24-4.48 16.28-22.69-.15-.1-31.5 11.76-5.22-3.75 24.51-34.15 6.25 4.49zM1266.51 556.31l2.58 1.54 9.31-15.71 6.62 3.93-21.45 36.15-6.57-3.92 8.58-14.46-2.69-1.6-17.93 8.92-7.38-4.38 21.42-10.39-1.1-26.39 7.74 3.9zM1225.18 523.89l12 5.85 6.51-7 7.29 3.56-31.09 31.6-6.31-3.09 5.83-43.94 7.29 3.56zm7.16 11.05-8.31-4.06-2.65 15.68.22.11zM1207.5 505.71l-15.1 39.23-7.17-2.76 12.6-32.73-14.69-5.65-12.59 32.73-7.18-2.76L1176 501l-5.32-2 6.79-14.31 6 2.33-3.17 8.24zM1128.38 508.39l.17.05 25.58-21.76 6.18 1.74-11.31 40.47-7.4-2.08 7.55-26.88h-.15l-25.59 21.82-6.21-1.75 11.36-40.47 7.4 2.08zM1081.67 498.47h.17l23.41-24.06 6.33 1.15-7.51 41.35-7.57-1.37 5-27.47h-.18l-23.42 24.13-6.32-1.15 7.51-41.36 7.56 1.38zM1038.25 494.57a4.26 4.26 0 1 1 4.58-3.92 4.24 4.24 0 0 1-4.58 3.92zM974.12 467.11a21.48 21.48 0 0 1 11.64-3.48c12.49-.25 18.2 9.12 18.45 21.25s-5.09 21.72-17.58 22a21.79 21.79 0 0 1-11-2.49l2.94-6.24a17.57 17.57 0 0 0 8 1.76c6.84-.14 10-6.63 9.79-14.85s-3.53-14.58-10.38-14.45a17.13 17.13 0 0 0-8.54 2.58zM945.11 466.3c12.43-1.3 18.6 7.61 19.89 19.7s-3 22-15.39 23.34-18.6-7.62-19.85-19.68 2.93-22.08 15.35-23.36zm3.74 36.08c6.81-.71 9.08-7.4 8.23-15.59s-4.44-14.27-11.25-13.57-9.08 7.41-8.23 15.59 4.4 14.27 11.25 13.57zM912.2 471.1l8.2 41.23-7.54 1.5-6.86-34.4-15.43 3.07 6.84 34.4-7.54 1.5-6.82-34.4-5.59 1.11-1.9-15.72 6.36-1.27 1.72 8.66zM846.77 515.63h.17l10-32.05 6.15-1.83 12 40.28-7.36 2.19-8-26.76-.18.05-10 32.11-6.16 1.84-12-40.29 7.37-2.19zM800.1 512.71l12.4-4.89-.8-9.56 7.54-3 2.35 44.26-6.54 2.58-28.49-34 7.54-3zm13 2.17-8.61 3.4 9.79 12.53.23-.08zM790.12 552.87 768 563.8l-18.62-37.7 6.89-3.4 15.54 31.45 8.61-4.26c-9.63-19.49-13.08-33-4.62-37.17a10.82 10.82 0 0 1 4.24-1.16l1.64 6.56a6 6 0 0 0-1.89.53c-3.6 1.78-1.6 10 9.62 32.76zM749.61 574.27l-8.41-14-5.35 3.22c-7.47 4.48-14.66 3.82-19.08-3.55s-1.67-14 5.85-18.49l12-7.17 21.63 36zm-12-20-6.06-10.09-5 3c-4.17 2.51-4.67 5.75-2.94 8.63s4.78 4 9 1.44zM707.49 581.26l-12.76 9.21 9.83 13.63-6.23 4.5-24.59-34.09L680 570l10.68 14.81 12.76-9.21-10.68-14.8 6.24-4.5 24.59 34.09-6.24 4.5zM658.91 642.28l-27.82-31.5 5.76-5.09 27.82 31.51zm23-20.34-10.81-12.25-3.1 2.71c-6.52 5.76-13.71 6.42-19.39 0s-4.16-13.4 2.39-19.25l8.83-7.79 27.82 31.51zm-15.42-17.47-7.79-8.82-2.79 2.46c-3.65 3.22-3.56 6.5-1.33 9s5.42 3.06 9.16-.23zM618.93 623l30.55 28.89-16.76 17.72-4.23-5.61 10.64-11.26-7.13-6.82-9.41 10-5.06-4.79 9.41-10-8.21-7.76-11.47 12.14-5.06-4.79zM564.25 692.32a21.49 21.49 0 0 1 4.43-11.32c7.48-10 18.39-8.73 28.1-1.46s14 17.39 6.51 27.38a21.77 21.77 0 0 1-8.75 7.18l-3.12-6.16a17.57 17.57 0 0 0 6.29-5.19c4.1-5.48.9-11.93-5.68-16.86s-13.67-6.19-17.78-.71a17 17 0 0 0-3.22 8.31zM554.29 702.34l35.47 22.57-13.09 20.58-5.23-4.76 8.32-13.07-8.31-5.29-7.35 11.55-5.88-3.74 7.35-11.55-9.57-6.06-9 14.09-5.88-3.74zM556.91 766.68 526 750.11l3.67-6.83 30.9 16.58 5.77-10.75 6.14 3.3-15.19 28.31-5.57-4.35zM530.17 806.69l.08-.16-18.15-28.26 2.55-5.89 38.59 16.68-3 7L524.56 785l-.08.17 18.2 28.27-2.55 5.9-38.58-16.68 3.05-7zM516.53 848.06a4.26 4.26 0 1 1-2.78-5.35 4.26 4.26 0 0 1 2.78 5.35z"/></g></svg>