<svg height="2000" width="2000" xmlns="http://www.w3.org/2000/svg"><g fill="#ffd400"><path d="m226.68 736.63 3.6-11.77 29.33 6.59-2.5 8.17c8.47 11.65 28.85 21 53.92 28.66l6.32 1.93-14.3 46.79-63.65-19.47-3.17 10.35-28-11 3.6-11.77 16 4.91 14.84-48.5zm17 46.91 51 15.61 5.87-19.15-2.4-.74c-19-5.8-36.65-15.38-45.7-24.35zM261.31 887.52l.06-.33L215.46 843l2.11-12 78.57 13.84-2.53 14.37-52.19-9.21-.06.34 46 44.22-2.12 12-78.57-13.84 2.53-14.37zM237 947.39l.64-9.9 12.28.79-.63 9.78c-.48 7.51 3.31 12.55 9.34 12.93 6.26.4 10.44-4.24 10.91-11.63a37.49 37.49 0 0 0-2.6-16.5L279 927.7a48.87 48.87 0 0 1 3.66 23.07C281.79 965 275 977 261.09 976.11c-10.47-.67-16.32-7.33-17.79-14.73h-.3c-2.8 9.87-9.35 15.84-20.39 15.14-16.26-1-22.8-14.83-21.75-31.21a45.64 45.64 0 0 1 8.38-23.9l11.13 7.59a34.91 34.91 0 0 0-6.37 17.16c-.54 8.53 3.49 15.07 10.54 15.52 7.46.46 11.85-5.08 12.46-14.29zM218.48 1040.68l-.91-25.29-17.57-4.61-.56-15.37 80.7 23.76.49 13.33-78.82 29.5-.56-15.38zm12.1-21.88.64 17.54 28.62-9.59v-.46zM263.84 1128v-.33l-57.59-27.29-1.82-12.06 78.9-11.88 2.17 14.42-52.41 7.9.05.33 57.71 27.27 1.81 12.06-78.89 11.89-2.17-14.43zm41.25-2.41c-8.41-3.8-12.42-9.77-13.76-18.67s.73-15.79 7.65-21.9l7.78 8c-5 3.52-6.48 8.24-5.85 12.41s3.56 8.34 9.24 10.13zM271 1185.74l7.89 28.8 30.78-8.43 3.85 14.07-76.95 21.07-3.85-14.07 33.42-9.15-7.89-28.8-33.42 9.15-3.83-14.07 77-21.07 3.85 14.07zM328.88 1296.53 268 1323.46l-5.9-13.34 73-32.28 18.44 41.69-13 3.27zM303.26 1396.28c-11.69-20.62-.91-38.13 19.12-49.48s40.58-11.61 52.27 9 .92 38.13-19.11 49.49-40.54 11.62-52.28-9.01zm59.89-34c-6.41-11.3-19.77-10.14-33.35-2.44s-21.44 18.57-15 29.87 19.77 10.15 33.35 2.45 21.41-18.52 15-29.83zM373.09 1490.58c-7.53-3.41-12.74-7.1-18-14.39-13.9-19.2-5.47-38.26 13.18-51.76s39.38-15.57 53.29 3.63a41.17 41.17 0 0 1 8.07 19.9l-12.91 2.18a33.42 33.42 0 0 0-5.87-14.32c-7.62-10.53-21.11-8.36-33.76.8s-18.91 21.29-11.29 31.82A32.36 32.36 0 0 0 379 1479zM473.14 1492.19l10.3 11.58-62.52 24c-9.91 3.78-20 5-27.26-3.21a20.39 20.39 0 0 1-5.5-12.19l13-2.3a8.05 8.05 0 0 0 2 5.28c1.51 1.7 4.87 2.22 10.56.21l4-1.45-3-3.41 25.47-55.58 11 12.43-19 40.45.22.25zM426.7 1583.16l-9-8.34 18.65-23.58 6.28 5.79c14.17-2.58 31.42-16.91 49.2-36.18l4.48-4.85 35.94 33.15-45.14 48.92 8 7.34-22 20.49-9-8.35 11.36-12.31-37.28-34.39zm49.65 5 36.17-39.16-14.74-13.6-1.7 1.85c-13.45 14.57-29.75 26.36-41.76 30.63zM548.33 1640l-20.42-15-14.53 11-12.38-9 68.64-48.63 10.76 7.87-25.59 80.14-12.42-9.09zm-9.69-23 14.17 10.36L563 1598.9l-.37-.27zM603.26 1663.19l-14.15 24.2-12.59-7.39 40.26-68.87 22.53 13.17c13.09 7.65 18.5 21 9.87 35.73s-22.89 16.59-36 8.94zm19.44-33.26-12.76 21.84 9.74 5.7c6 3.51 12.39 1.83 16.42-5.06s2.35-13.28-3.66-16.78zM695.85 1736.17c-8.23.73-14.58.08-22.76-3.68-21.55-9.89-23.56-30.63-14-51.55s26.65-32.92 48.19-23a41.28 41.28 0 0 1 16.82 13.37l-10.18 8.24a33.53 33.53 0 0 0-12.15-9.59c-11.81-5.42-22.49 3.09-29 17.28s-6 27.84 5.8 33.26a32.24 32.24 0 0 0 16.72 2.66zM770 1697.67l-21.61 63-13.91-4.78 21.62-63-21.89-7.52 4.3-12.5 57.67 19.8-6.45 11.77zM794.85 1774.92l18.15-77.69 24.3 5.68c13.88 3.25 23.12 10.79 20 24.33-2.39 10.21-9.82 14.45-17.36 14.67l-.11.45c9.22 4.61 14 12.28 11.47 23-3.72 15.87-16.91 18.75-32.12 15.19zm31.56-28.32-9.43-2.21-4.91 21 9.44 2.2c8.21 1.92 14-1 15.48-7.15 1.66-7.12-2.36-11.92-10.58-13.84zm7.13-31-9.32-2.18-4.39 18.76 9.33 2.18c6.77 1.59 11.31-1.33 12.64-7s-1.48-10.17-8.26-11.76zM914.19 1779.37l-25.09-3.21-7.41 16.64-15.26-2L903 1715l13.23 1.68 16.35 82.52-15.26-2zm-19.62-15.49 17.43 2.22-4.81-29.8h-.46zM999.91 1751a8.09 8.09 0 1 1-8.09 8.09 8.09 8.09 0 0 1 8.09-8.09zM1082.81 1814.44l-12.2 1.64-6.25-29.4 8.47-1.14c7.06-12.57 7-35 3.54-61l-.88-6.55 48.46-6.51 8.86 66 10.74-1.44 1.73 30-12.2 1.64-2.23-16.61-50.27 6.76zm35.55-35-7.11-52.86-19.88 2.67.34 2.48c2.64 19.66 1.31 39.73-3.06 51.7zM1205.48 1720.14l-.33.09-21.15 60.11-11.81 3.07-20-77.23 14.12-3.66 13.31 51.3.33-.09 21-60.23 11.81-3.06 20 77.23-14.12 3.66zM1270 1717.47l-9.28 3.53-4.36-11.51 9.16-3.48c7-2.67 10-8.21 7.9-13.86-2.22-5.86-8.18-7.74-15.11-5.11a37.48 37.48 0 0 0-13.94 9.2l-9.71-8.87a48.82 48.82 0 0 1 19.49-12.89c13.32-5.06 27.08-3.82 32 9.18 3.72 9.8.09 17.88-6 22.29l.12.32c10.14-1.54 18.29 2 22.22 12.28 5.79 15.24-4 26.9-19.39 32.73a45.57 45.57 0 0 1-25.23 2.26l2.26-13.29a34.93 34.93 0 0 0 18.27-1.33c8-3 12.28-9.42 9.77-16-2.67-7.06-9.53-8.72-18.17-5.45zM1362.6 1695.68 1340 1707l3.1 18-13.76 6.87-11.8-83.29 11.93-6L1389 1702l-13.77 6.87zm-24.93-2 15.71-7.85-20.59-22.07-.41.2zM1423.29 1618.16l-.29.19-.9 63.72-10.22 6.66-43.57-66.83 12.22-8 28.94 44.4.29-.19.84-63.82 10.22-6.66 43.57 66.84-12.22 8zm-19.29-36.52c0 9.23-3.73 15.36-11.27 20.28s-14.67 5.88-23.1 2.13l4.09-10.42c5.28 3.09 10.18 2.47 13.71.17s6.11-6.7 5.38-12.62zM1472.79 1587.56l22.88-19.19-20.51-24.45 11.18-9.37 51.27 61.13-11.18 9.37-22.26-26.55-22.88 19.19 22.26 26.55-11.18 9.38-51.27-61.14 11.18-9.37zM1590.65 1543.05l-60.65-51.78 38.09-44.65 60.69 51.78-9.47 11.1-50.63-43.2-19.16 22.45 50.63 43.2zM1634.22 1443.33l23.17 15.79-8.22 12.05-65.93-44.93 14.7-21.57c8.54-12.52 22.21-17 36.34-7.37s15 24 6.42 36.51zm-31.84-21.7 20.91 14.25 6.35-9.32c3.92-5.75 2.69-12.24-3.9-16.74s-13.09-3.26-17 2.49zM1708.17 1378.42c-11.18 20.91-31.74 21.16-52 10.3s-31.5-28.1-20.32-49 31.74-21.15 52-10.3 31.5 28.1 20.32 49zm-60.7-32.46c-6.13 11.45 2 22.13 15.76 29.49s27.15 8.2 33.28-3.26-2-22.14-15.76-29.5-27.16-8.19-33.28 3.31zM1736.06 1319.57l-74.36-29 5.3-13.57 62 24.14 10.83-27.82-62-24.15 5.29-13.6 62 24.15 3.93-10.09 27.11 13-4.47 11.47-15.61-6.08zM1768.85 1228.81l-77.06-20.66 12-44.7 12.18 5.63-7.62 28.4 18 4.84 6.74-25.1 12.76 3.43-6.73 25.1 20.7 5.55 8.21-30.61 12.77 3.43zM1791 1100.59c2.89 7.75 3.94 14 2.48 22.93-3.83 23.39-23.3 30.83-46 27.1s-38.79-17-35-40.38a41.23 41.23 0 0 1 8.44-19.75l10.64 7.63a33.55 33.55 0 0 0-6 14.26c-2.1 12.82 8.94 20.87 24.34 23.39s28.44-1.57 30.55-14.39a32.3 32.3 0 0 0-1.87-16.82zM1797 1022.37c3.64 7.43 5.31 13.59 4.74 22.57-1.5 23.66-20.13 33-43.11 31.53s-40.28-13.06-38.79-36.72a41.23 41.23 0 0 1 6.44-20.49l11.35 6.54a33.36 33.36 0 0 0-4.59 14.79c-.82 13 11 19.88 26.54 20.87s28.14-4.39 29-17.35a32.46 32.46 0 0 0-3.52-16.56zM1802.08 965.84c1.06 23.69-16.49 34.39-39.5 35.42s-41.43-8.08-42.48-31.77 16.5-34.39 39.5-35.41 41.4 8.08 42.48 31.76zm-68.77 3.06c.57 13 13 18 28.61 17.33s27.53-6.82 26.95-19.8-13-18-28.6-17.32-27.54 6.81-26.96 19.79zM1795.88 901.73l-78.83 12.34-3.86-24.67c-2.2-14.07 1.33-25.47 15.06-27.62 10.36-1.62 17.08 3.68 20.12 10.58l.45-.07c.81-10.28 6.13-17.57 17.06-19.28 16.1-2.52 23.73 8.63 26.14 24.06zm-69.5-13.58 1.48 9.46 19-3-1.48-9.46c-1.07-6.87-5.48-10-11.23-9.09s-8.84 5.22-7.77 12.09zm31.4-5 1.5 9.57 21.28-3.33-1.5-9.57c-1.3-8.33-6.24-12.64-12.43-11.67-7.21 1.1-10.15 6.64-8.85 15zM1722.14 793.87a8.09 8.09 0 1 1 10 5.56 8.09 8.09 0 0 1-10-5.56zM1760.36 696.7l4.93 11.28-26.55 14.1-3.43-7.83c-14-3.32-35.56 2.87-59.58 13.37l-6.06 2.65-19.59-44.8 61-26.67-4.33-9.92 28.37-9.92 4.94 11.27-15.36 6.77 20.3 46.42zm-43.45-24.53L1668 693.54l8 18.38 2.29-1c18.17-7.94 37.84-12.19 50.55-11.28zM1635.77 604.71l.18.3 63.62 3.62 6.22 10.49-68.63 40.69-7.44-12.56 45.59-27-.17-.29-63.73-3.57-6.22-10.49 68.64-40.69 7.44 12.55zM1615.25 543.47l6 7.93-9.84 7.4-5.89-7.83c-4.53-6-10.69-7.37-15.51-3.74-5 3.77-5.16 10-.71 15.94A37.66 37.66 0 0 0 1602 574l-5.81 11.79a48.68 48.68 0 0 1-17.81-15.13c-8.57-11.38-11.22-24.94-.1-33.3 8.37-6.31 17.15-5.07 23.09-.41l.27-.2c-4.3-9.32-3.22-18.12 5.61-24.77 13-9.8 27-3.6 36.84 9.51a45.52 45.52 0 0 1 9.2 23.61l-13.4 1.52a34.82 34.82 0 0 0-6.37-17.18c-5.14-6.83-12.46-9.16-18.11-4.91-6.02 4.52-5.71 11.57-.16 18.94zM1568.55 460.64l17.16 18.6 16.38-8 10.43 11.31-76.73 34.51-9-9.8 40.55-73.71 10.44 11.31zm5.07 24.48-11.9-12.9-15.49 25.92.31.33zM1447.53 452.56c8.86-2.59 15.78-.67 22.6 5.21s9.72 12.46 8.46 21.6l-11.15-1c1.5-5.93-.45-10.47-3.64-13.23s-8.13-4-13.62-1.66zm29.73-28.69.26.22L1539 407.3l9.23 8-52.13 60.4-11-9.53 34.58-40.17-.26-.23-61.55 16.89-9.23-8 52.13-60.39 11 9.53zM1434.19 384.78l-24.76-16.69-17.84 26.46-12.1-8.16 44.6-66.15 12.1 8.16-19.37 28.73 24.76 16.69 19.42-28.73 12.09 8.16-44.6 66.14-12.09-8.15zM1359.26 284.12l-33.53 72.39-22.65-10.51c-12.92-6-20.44-15.24-14.6-27.86 4.41-9.51 12.54-12.15 20-10.85l.19-.41c-8.09-6.39-11.2-14.86-6.55-24.89 6.84-14.79 20.35-14.94 34.52-8.38zm-49.9 50.24 8.69 4 8.1-17.48-8.69-4c-6.31-2.92-11.35-1-13.79 4.29s-.61 10.27 5.69 13.19zm13.26-28.9 8.79 4.07 9.06-19.55-8.79-4.07c-7.66-3.54-14-1.82-16.61 3.87-3.07 6.62-.07 12.14 7.55 15.68zM1254.49 278.11l9.37 3.25-4 11.63-9.26-3.21c-7.11-2.46-13-.15-15 5.55-2.06 5.93 1.31 11.19 8.31 13.62a37.56 37.56 0 0 0 16.59 1.89l1.76 13a48.8 48.8 0 0 1-23.22-2.61c-13.46-4.67-23.22-14.44-18.67-27.58 3.43-9.91 11.41-13.78 18.93-13.22l.12-.33c-8.77-5.33-12.79-13.23-9.17-23.68 5.34-15.4 20.36-18 35.87-12.66a45.45 45.45 0 0 1 20.88 14.47l-10.32 8.77a34.86 34.86 0 0 0-14.87-10.7c-8.07-2.8-15.45-.65-17.77 6-2.46 7.12 1.73 12.79 10.45 15.81zM1169.51 235.43l24.62 5.85 9.13-15.75 15 3.56-44.4 71.45-13-3.09-7.49-83.79 15 3.56zm17.87 17.49-17.08-4.06 1.62 30.14.44.1zM1073.2 255.92h.34l41.59-48.29 12.11 1.45-9.47 79.22-14.49-1.73 6.3-52.63h-.34l-41.61 48.41-12.11-1.45 9.48-79.22 14.48 1.73zM971 252.18h.34l13.16-41.77 14.93-.18 14.3 41.42h.34l4.15-52.14 14.58-.18-6.42 79.86-16.29.2-17.73-51.07H992l-16.46 51.49-16.3.2-8.4-79.68 14.59-.18zM888.77 206.62c23.48-3.33 35.82 13.11 39.06 35.9s-4 42-27.52 45.35-35.82-13.1-39-35.9 3.99-41.97 27.46-45.35zm9.68 68.16c12.87-1.83 16.68-14.69 14.49-30.15s-9.44-26.74-22.31-24.92-16.63 14.69-14.48 30.15 9.44 26.75 22.3 24.92zM819.61 203.07l11.91-3.07 9.78 28.43-8.3 2.12c-5.47 13.32-2.73 35.58 3.89 60.94l1.66 6.4-47.31 12.34-16.8-64.41-10.44 2.74-5.37-29.56 11.91-3.11 4.23 16.21 49.07-12.8zm-31 39.07L802 293.75l19.41-5.06-.63-2.43c-5-19.19-6.12-39.27-3.24-51.69zM735.5 244.75l28.41 74.56-43.24 16.48-2.57-13.17 27.47-10.47-6.65-17.47-24.29 9.26-4.71-12.36 24.29-9.25-7.63-20L697 273.59l-4.71-12.36zM644.33 342.84l.31-.16 7.51-63.28 10.85-5.56 36.4 71-13 6.65-24.18-47.15-.3.15-7.46 63.39-10.85 5.56-36.41-71 13-6.66zm15.43 38.33c.93-9.19 5.3-14.89 13.31-19s15.2-4.33 23.2.27l-5.15 9.95c-4.93-3.62-9.87-3.52-13.62-1.6s-6.77 6-6.66 12zM536.44 353.68c3.71-7.4 7.61-12.45 15.11-17.43 19.75-13.12 38.45-3.93 51.19 15.25s14 40-5.77 53.1a41.19 41.19 0 0 1-20.22 7.27l-1.65-13a33.38 33.38 0 0 0 14.55-5.29c10.82-7.19 9.2-20.76.56-33.76s-20.52-19.76-31.34-12.57a32.28 32.28 0 0 0-11.06 12.82zM530.19 437 488 385.54l11.37-9.32 42.2 51.47L559.45 413l8.38 10.23-47.15 38.65-6.62-11.67zM451.41 417.56l56.53 56.3-17.61 17.69c-10.06 10.09-21.33 14-31.19 4.17-7.42-7.4-7.12-15.94-3.34-22.48l-.33-.32c-8.77 5.42-17.8 5.44-25.63-2.37-11.55-11.5-7.06-24.24 4-35.3zm7.5 41.73 6.84-6.86-15.27-15.2-6.83 6.86c-5.95 6-6.5 12.51-2.06 16.93 5.17 5.15 11.41 4.25 17.32-1.73zm22.61 22.36 6.76-6.78-13.65-13.59-6.76 6.78c-4.9 4.93-4.81 10.33-.69 14.43s9.43 4.09 14.34-.84zM405 548.48l.22-.27-19.31-60.74 7.58-9.55L456 527.53 446.91 539l-41.51-33-.22.27 19.4 60.81-7.58 9.55L354.51 527l9.07-11.43zM346.49 593.68 330.23 563l8.85-14.08L356 581.5c7.5-5.93 17.84-7 27.88-.66 13.22 8.31 15.09 22.68 7.76 34.35l-13.52 21.52-67.56-42.44 7.76-12.35 25.48 16zm14 2.59L355 605l19.69 12.37 5.46-8.69c3.21-5.11 1.23-11.61-4.27-15.06s-12.2-2.46-15.41 2.65zM321.54 682.18a8.09 8.09 0 1 1-3.89-10.76 8.08 8.08 0 0 1 3.89 10.76z"/></g></svg>