<svg height="2000" width="2000" xmlns="http://www.w3.org/2000/svg"><g fill="#fff"><path d="m424 1286-8.81-18.53-14.59 2.24-5.36-11.27 67.76-8.24 4.64 9.76-49.14 47.3-5.4-11.26zm2-20.17 6.11 12.85 18.23-16.33-.16-.34zM454.25 1323.62l-19.43 11.81-6.15-10.11 55.29-33.6 11 18.09c6.38 10.5 5.1 22.09-6.75 29.29s-22.72 3-29.11-7.5zm26.69-16.22-17.53 10.65 4.75 7.82c2.93 4.82 8.13 6.09 13.66 2.73s6.8-8.57 3.87-13.38zM493.11 1379.79l-.17-.22-27 3.7-8.19-11 38.54-4.48 14.37-32.8 8.19 11-10.78 22.15.22.29 24.29-4.09 8.2 11-35.52 4.53-15.18 35.71-8.66-10zM561.54 1430.53l-.19-.2-51 8.36-6.77-7.21 47.14-44.31 8.1 8.62-31.31 29.44.19.2 51.06-8.42 6.78 7.2-47.15 44.31-8.1-8.62zM612.08 1462 577 1503l-9.06-7.75 35.11-41-14.27-12.25 7-8.14 37.55 32.16L625 1473zM607.72 1527.75l36.88-53.14 30.82 21.39-7.63 7.75-19.59-13.59-8.64 12.45 17.31 12-6.11 8.8-17.31-12-9.91 14.27 21.11 14.65-6.11 8.81zM687.53 1546.21l-4-2.28-13.85 24.45-10.3-5.83 31.9-56.3 10.29 5.83-12.76 22.52 4.19 2.4 27.32-14.27 11.5 6.51-32.7 16.65 2.49 40.6-12-5.75zM763.34 1555.25l-21.77 49.39-10.91-4.81 21.77-49.39-17.17-7.57 4.33-9.81 45.24 19.94-6 9.07zM828.91 1567.91l11.94 3.93-34.07 42.3c-5.41 6.68-12 11.62-20.42 8.84a16.46 16.46 0 0 1-8.82-6.31l8.21-6.92a6.6 6.6 0 0 0 3.52 2.91c1.76.57 4.32-.43 7.5-4.15l2.24-2.67-3.51-1.16-4.78-49.35 12.82 4.22 3.09 36.15.26.08zM855.26 1618.29l-5 22.19-11.54-2.57 14.07-63.15 20.65 4.6c12 2.68 19.48 11.63 16.46 25.16s-13.58 18.47-25.58 15.8zm6.79-30.49-4.46 20 8.93 2c5.5 1.23 10-1.64 11.43-8s-1.46-10.84-7-12.06zM930.48 1639.93l-20.36-2.55-6 13.5-12.38-1.55 29.5-61.5 10.73 1.34 13.42 66.88-12.39-1.55zm-16-12.53 14.13 1.77-4-24.15h-.37zM999.89 1616.8a6.57 6.57 0 1 1-6.57 6.57 6.59 6.59 0 0 1 6.57-6.57zM1058.62 1590.46l37.69-4.73 8 64.2-11.74 1.47-6.71-53.56-14.68 1.84c4.17 33.2 2.37 54.57-12 56.37a16.82 16.82 0 0 1-6.77-.45l.94-10.37a8.91 8.91 0 0 0 3 .19c6.15-.77 7.4-13.79 2.55-52.49zM1158.07 1624.22l-20 4.68-.91 14.74-12.15 2.85 6.28-67.93 10.53-2.47 35.83 58-12.14 2.85zm-19.31-6.2 13.86-3.25-12.11-21.28-.36.09zM1196.18 1587.49l22.84-8.07-8.62-24.42 11.15-4 21.55 61-11.16 4-9.35-26.5-22.84 8.07 9.36 26.49L1198 1628l-21.55-61 11.15-3.94zM1278.66 1611.67l-9 4.41-12.39-21 6.22-3.06c2.18-11.48-3.62-28.71-13-47.78l-2.37-4.81 35.58-17.51 23.83 48.42 7.88-3.87 9.07 22.62-9 4.41-6-12.19-36.9 18.16zm18.29-36.09-19.1-38.81-14.6 7.18.9 1.83c7.1 14.43 11.26 30.2 11 40.53zM1344.16 1549.12l13.64-9.19-30.16-44.76 9.81-6.61 30.16 44.76 13.64-9.2-30.16-44.75 9.81-6.61 36.15 53.64-56.71 38.22-36.15-53.62 9.81-6.62zM1433.07 1477.23l-15.42 13.54 6.14 13.43-9.37 8.23-26.42-62.87 8.12-7.14 58.94 34.34-9.38 8.23zm-20 3.62 10.7-9.39-20.7-13.06-.28.24zM1488.55 1431.42l6.39 5.75-7.78 8.66-6.46-5.81a30.54 30.54 0 0 1-4 5.58c-10.25 11.41-23.6 9-34.81-1.09s-15.17-23.21-4.91-34.62a30.56 30.56 0 0 1 5.12-4.59l-6.46-5.81 7.78-8.66 6.47 5.81a29.29 29.29 0 0 1 4-5.58c10.26-11.41 23.6-9 34.95 1.21s15 23.09 4.78 34.5a36.61 36.61 0 0 1-5.07 4.65zm-15.48 1.75-23.37-21a23.63 23.63 0 0 0-4 3.74c-5.32 5.91-2.56 13.49 4.18 19.54s14.56 8 19.88 2.09a24.75 24.75 0 0 0 3.31-4.37zm-15.59-29.67 23.37 21a22.87 22.87 0 0 0 4-3.74c5.32-5.91 2.56-13.49-4.18-19.55s-14.56-8-19.87-2.08a23.11 23.11 0 0 0-3.32 4.37zM1495.34 1346.47l44.35 30.77-6.8 9.8-44.34-30.77-10.7 15.41-8.81-6.11 28.19-40.63 7.76 7.63zM1533.53 1315.65l12-21.05-22.5-12.79 5.85-10.28 56.24 32-5.84 10.29-24.43-13.89-12 21.06 24.42 13.88-5.84 10.28-56.25-32 5.85-10.29zM1596.44 1244.77l-8.12 18.84 11.31 9.51-4.94 11.45-50.85-45.46 4.28-9.93 68 5.74-4.93 11.46zM1580 1256.6l5.63-13.07-24.3-2.93-.15.34zM1606.11 1187.47l19 20.73-4 12.87-20-22.09c-4.66 6.19-12.57 9.12-21.73 6.24-12.08-3.81-16.5-14.69-13.14-25.36l6.19-19.66 61.71 19.44-3.56 11.28-23.27-7.33zm-11.5.83 2.5-7.93-18-5.66-2.5 7.93c-1.47 4.67 1.42 9.36 6.44 10.94s10.09-.58 11.56-5.28zM1638.61 1089l-3.15 20.27 13.32 6.37-1.91 12.33-60.61-31.3 1.66-10.68 67.25-11.45-1.92 12.33zm-13 15.56 2.19-14.06-24.26 3.24-.06.37zM1634.81 1040.91l22.71 1.18-.62 11.81-64.6-3.37 1.1-21.13c.64-12.28 8.23-21.13 22.07-20.41s20.47 10.32 19.83 22.59zm-31.19-1.63 20.49 1.07.47-9.14c.3-5.63-3.29-9.61-9.75-10s-10.44 3.25-10.74 8.88zM1634.35 972.61v.28l24.39 12.17.59 13.67-34.36-18-30.35 19L1594 986l21.4-12.21v-.37l-22.4-10.31-.59-13.66 31.88 16.29L1657 944.8l1.5 13.17zM1606.51 892.14v.27l46.79 21.92 1.52 9.77-63.93 9.9-1.81-11.69 42.46-6.59v-.27l-46.89-21.91-1.52-9.77 63.93-9.92 1.82 11.69zM1582.62 837.57l52.13-14 3.08 11.52-52.13 14 4.85 18.12-10.35 2.79-12.79-47.76 10.83-1zM1623.4 786.22l-60.62 22.6-13.11-35.16 10.69-2 8.33 22.34 14.2-5.3-7.36-19.7 10-3.75 7.36 19.75 16.28-6.07-9-24.08 10-3.74zM1567.89 725.51l2 4.15 25.23-12.39 5.21 10.62-58.07 28.52-5.26-10.62 23.23-11.41-2.12-4.31-30.6-3.61-5.82-11.87 36.38 4.69 20.93-34.94 6.69 11.54zM1510.35 675.29l45.82-28.54 6.3 10.12-45.81 28.54 9.92 15.92-9.1 5.67-26.14-42 10.07-4.1zM1463.33 627.88l-7.65-10 52-15.75c8.24-2.47 16.46-2.83 21.86 4.21a16.46 16.46 0 0 1 3.73 10.18l-10.69 1.09a6.55 6.55 0 0 0-1.26-4.38c-1.13-1.47-3.82-2.09-8.53-.8l-3.36.94 2.25 2.94-23.86 43.45-8.21-10.71 17.81-31.59-.16-.22zM1470 571.41l16.6-15.55 8.08 8.64-47.21 44.22-14.47-15.44c-8.4-9-9.53-20.58.59-30.06s21.63-7.6 30 1.37zm-22.8 21.35 15-14-6.26-6.67c-3.85-4.12-9.21-4.29-13.93.13s-4.89 9.78-1 13.89zM1420 511.12l15.37 13.59 12.55-7.78 9.35 8.26-59 34.16-8.1-7.16 26.63-62.8 9.35 8.26zm6.1 19.33-10.67-9.45-10.35 22.18.28.24zM1349.72 491.09a6.57 6.57 0 1 1 9.13-1.72 6.59 6.59 0 0 1-9.13 1.72zM1262.89 467.4l-11.13-5.83 40.51-36.16c6.44-5.71 13.74-9.5 21.6-5.39a16.49 16.49 0 0 1 7.67 7.67l-9.24 5.49a6.51 6.51 0 0 0-3-3.45c-1.64-.85-4.34-.28-8.08 2.87l-2.64 2.27 3.27 1.71-3.34 49.42-12-6.26 2.87-36.16-.25-.12zM1245.15 413.39l8.52-21.08 11 4.43-24.23 60-19.62-7.92c-11.4-4.6-17.3-14.66-12.11-27.52s16.42-16 27.82-11.39zm-11.69 29 7.68-19-8.48-3.43c-5.23-2.11-10.16 0-12.59 6s-.32 10.93 4.91 13zM1176.82 422l4.15-14.19-7.71-2.26c-12.87-3.76-19.68-12.39-16-25.08s14-16.31 27-12.53l19.07 5.58-18.15 62.09-36.37-10.61 4.78-9.77zm7.16-24.48 5-17-7.18-2.1c-7.19-2.1-11.36.63-12.78 5.5-1.53 5.24.52 9.4 7.88 11.55zM1108.43 365l20.17 3.73 6.75-13.12 12.27 2.27-33 59.67-10.63-2-9.53-67.55 12.27 2.28zm15.18 13.43-14-2.59 2.54 24.34.36.07zM1058.76 383.31l-24.15-1.77-1.89 25.81-11.8-.87 4.73-64.52 11.8.86-2.06 28 24.16 1.77 2-28 11.8.87-4.68 64.54-11.8-.87zM960.46 386h.28l26.91-44.12 9.88-.43 2.86 64.63-11.82.52-1.9-42.93h-.28l-26.91 44.21-9.88.44-2.86-64.64 11.82-.52zM877.4 357.39c5.24-4.18 9.83-6.58 17-7.69 19-3 29.64 10.17 32.5 28.62s-3.3 34.18-22.3 37.13a33.38 33.38 0 0 1-17.35-1.51l3.2-10.13a27.22 27.22 0 0 0 12.55 1.05c10.41-1.62 13.83-12.15 11.89-24.67s-8.39-21.52-18.8-19.9a26.22 26.22 0 0 0-12.5 5.68zM844.48 416.51l-13.43-52.27 11.55-3 13.4 52.31 18.17-4.67 2.67 10.38-47.84 12.3-.88-10.84zM771.32 429.08l.26-.1 11.91-50.28 9.25-3.48 22.76 60.56-11.07 4.16-15.12-40.23-.26.1-11.87 50.37-9.26 3.48-22.76-60.56 11.08-4.16zM717.92 437.08 722 435l-12.76-25 10.53-5.38 29.4 57.63-10.54 5.37-11.76-23.05-4.28 2.19-3.14 30.65-11.77 6 4.13-36.41-35.26-20.3 11.45-6.9zM641.37 465.58l17.21-11.18-4.14-14.17 10.46-6.8 17.12 66-9.02 5.89-53.39-42.47 10.47-6.8zm20.27-.71-11.94 7.76 18.6 15.91.31-.2zM603.28 528a6.56 6.56 0 1 1 .78-9.25 6.55 6.55 0 0 1-.78 9.25zM514.39 555.55c13-14.21 29.16-10.32 43 2.26s19.17 28.35 6.23 42.56-29.16 10.32-43-2.25-19.18-28.36-6.23-42.57zm41.26 37.6c7.1-7.79 2.84-17.8-6.52-26.32s-19.72-11.84-26.82-4.06-2.83 17.8 6.53 26.33 19.72 11.84 26.81 4.05zM495.8 624.31l4.79-6.46 8 6-4.75 6.38c-3.63 4.89-3.28 10 .65 12.91s9 1.72 12.56-3.1a30.59 30.59 0 0 0 5.51-12.37l10.5 1.82a39.65 39.65 0 0 1-7.68 17.32c-6.89 9.27-16.84 14.43-25.88 7.7-6.83-5.07-7.88-12.18-5.61-17.86l-.22-.17c-6.26 5.48-13.36 6.66-20.55 1.31-10.61-7.88-9-20.15-1-30.83a37 37 0 0 1 16.25-12.56l4.26 10.07a28.34 28.34 0 0 0-11.91 8.89c-4.13 5.56-4.27 11.79.33 15.21 4.88 3.6 10.28 1.74 14.75-4.26zM445.34 647l55.5 33.25-19.29 32.19-8.24-7.1 12.25-20.45-13-7.79-10.83 18.08-9.2-5.51 10.83-18.08-14.9-8.93-13.2 22-9.2-5.51zM470.11 734.32 454 768.72l-58.59-27.44 5-10.71 48.88 22.89 6.27-13.39c-30.29-14.19-47.41-27.11-41.26-40.25a16.78 16.78 0 0 1 4-5.47l8.26 6.32a8.8 8.8 0 0 0-1.75 2.44c-2.63 5.61 7.7 13.61 43 30.15zM385.34 766.59l61.08 21.3-12.36 35.43-9.51-5.32 7.85-22.51-14.31-5-6.94 19.9-10.15-3.48 7-19.91-16.41-5.72-8.46 24.26L373 802zM400.73 846.88l-5.51 23.58 25.2 5.89-2.7 11.52-63-14.73 2.69-11.52 27.36 6.4 5.52-23.58-27.36-6.39 2.69-11.52 63 14.73-2.69 11.52zM350.23 900.17l64.2 8-4.64 37.24-10.41-3.16 3-23.66-15-1.88-2.61 20.91L374 936.3l2.61-20.91-17.24-2.15-3.19 25.5-10.63-1.33zM382.12 975.47l-.46 24.21 25.87.49-.22 11.83-64.68-1.23.23-11.82 28.08.53.46-24.21-28.09-.53.23-11.83 64.68 1.22L408 976zM390.15 1073.45v-.27l-45.5-24.5-1-9.84 64.35-6.34 1.15 11.77-42.76 4.22v.27l45.61 24.49 1 9.84-64.38 6.34-1.16-11.78zM353.2 1116.56l63.34-13.17 7.64 36.73-10.87.38-4.86-23.35-14.84 3.09 4.29 20.63-10.49 2.18-4.29-20.63-17 3.54 5.24 25.16-10.5 2.18zM416.19 1196.65a6.56 6.56 0 1 1-8.31-4.14 6.56 6.56 0 0 1 8.31 4.14z"/></g></svg>