<svg height="2000" width="2000" xmlns="http://www.w3.org/2000/svg"><g fill="#ffd400"><path d="m1032.88 1329.61 2.76 27.37-6 .6-3.31-32.8 18.74-1.89-.39 5.53zM1060.26 1342l2.13 11.39-5.93 1.1-6-32.41 10.61-2c6.16-1.15 11.45 1.56 12.75 8.5s-2.67 11.38-8.83 12.53zm-2.92-15.66 1.92 10.29 4.59-.86c2.82-.53 4.36-2.78 3.76-6s-2.86-4.79-5.68-4.26zM1099.75 1337.2l-10.07 2.82-.15 7.52-6.13 1.71 1.76-34.73 5.31-1.48 19.48 28.8-6.13 1.71zm-10-2.74 7-2-6.62-10.58h-.13zM1135.2 1328.68l1.63 4.07-5.51 2.21-1.65-4.11a15.82 15.82 0 0 1-3.09 1.65c-7.26 2.91-12.82-1.2-15.68-8.33s-1.72-14 5.53-16.94a16 16 0 0 1 3.38-1l-1.65-4.11 5.51-2.21 1.65 4.11a15 15 0 0 1 3.09-1.65c7.26-2.91 12.82 1.2 15.71 8.41s1.69 13.94-5.56 16.86a18.67 18.67 0 0 1-3.36 1.04zm-7.47-2.68-6-14.87a13.09 13.09 0 0 0-2.67.82c-3.76 1.51-4.2 5.6-2.48 9.88s4.87 6.93 8.62 5.42a12.41 12.41 0 0 0 2.53-1.25zm-.47-17.08 6 14.86a11.28 11.28 0 0 0 2.67-.81c3.76-1.51 4.2-5.6 2.48-9.88s-4.86-6.93-8.62-5.42a12.41 12.41 0 0 0-2.53 1.25zM1168 1292.17l-.12.06-2.37 26.23-4.42 2.43-15.85-28.89 5.29-2.9 10.53 19.2.12-.07 2.36-26.27 4.41-2.42 15.86 28.91-5.29 2.9zM1208.12 1292.34l-7.45-10.82a19.35 19.35 0 0 1-4.19 4.14c-5.74 4-10.31 3.39-14.18-2.24l-6.23-9 5-3.42 6.22 9c1.88 2.72 4.15 2.53 6.51.9a15.4 15.4 0 0 0 3.8-3.88l-8.16-11.83 5-3.42 18.71 27.15zM1223.84 1280.63l-21.15-25.29 14.66-12.27 2.79 4.8-9.32 7.8 5 5.92 8.24-6.89 3.51 4.19-8.24 6.89 5.68 6.79 10-8.4 3.51 4.2zM1261.79 1242.88a16.91 16.91 0 0 1-4.68 8.3c-6.92 6.93-15.25 4.75-22-2s-8.94-15-2-22a17 17 0 0 1 7.59-4.6l1.74 5.12a13.71 13.71 0 0 0-5.44 3.3c-3.79 3.8-2 9.16 2.55 13.72s9.94 6.31 13.73 2.51a13.38 13.38 0 0 0 3.42-6.1zM1265.22 1220.17l-1.49 1.82 11 9.1-3.83 4.65-25.46-21 3.83-4.65 10.19 8.38 1.55-1.89-4.76-15 4.28-5.2 5.48 17.87 20.6 2.31-3.94 5.54zM1285.4 1179.77l-.08.11 10.13 24.31-2.78 4.21-27.51-18.18 3.33-5 18.27 12.08.08-.12-10.17-24.34 2.78-4.2 27.51 18.18-3.33 5zM1289.21 1137.8a10.28 10.28 0 0 1-7.71 15.11l-.68-4.58a5.09 5.09 0 0 0 4.28-8.39zm14.44 9.12-.07.12 12.79 23-2.29 4.49-29.37-15 2.74-5.37 19.51 10 .07-.13-12.83-23 2.29-4.49 29.37 15-2.74 5.37zM1344.79 1123.44l-1.58 4.84-12.07-2.94 1.09-3.36c-3.41-4.88-11.77-8.89-22.07-12.24l-2.6-.84 6.26-19.22 26.16 8.51 1.38-4.25 11.49 4.73-1.57 4.83-6.59-2.14-6.49 19.93zm-6.68-19.52-21-6.82-2.57 7.89 1 .32c7.79 2.53 15 6.62 18.71 10.4zM1331.84 1061v.14l18.43 18.81-1 4.93-32.28-6.66 1.22-5.9 21.44 4.42v-.14l-18.48-18.81 1-4.94 32.29 6.67-1.22 5.9zM1342.76 1036.75l-.43 4.07-5.06-.53.43-4c.32-3.09-1.16-5.23-3.64-5.49s-4.38 1.58-4.7 4.62a15.53 15.53 0 0 0 .8 6.86l-5.08 1.93a20.09 20.09 0 0 1-1.13-9.59c.61-5.85 3.63-10.7 9.34-10.1a7.53 7.53 0 0 1 7.1 6.37h.14c1.32-4 4.13-6.39 8.67-5.91 6.7.7 9.17 6.5 8.46 13.24a18.81 18.81 0 0 1-3.85 9.73l-4.49-3.31a14.4 14.4 0 0 0 2.91-7c.37-3.51-1.19-6.28-4.09-6.58-3.09-.32-4.98 1.94-5.38 5.69zM1352.13 998.77l-.14 10.45 7.18 2.27-.09 6.35-32.82-11.46.07-5.51 33.12-10.58-.09 6.36zm-5.44 8.78.1-7.25-12 3.37v.19zM1318.37 961.83a10.26 10.26 0 0 1 4 14 10.06 10.06 0 0 1-2.43 2.92l-3-3.52a5.09 5.09 0 0 0-.84-9.38zm17.07 0v.17l23.09 12.67.45 5-32.84 3-.54-6 21.81-2v-.14l-23.14-12.66-.45-5 32.83-3 .55 6zM1334 937.94l-2.46-12.09-12.92 2.62-1.2-5.91 32.31-6.55 1.2 5.91-14 2.84 2.45 12.1 14-2.85 1.2 5.91-32.31 6.55-1.2-5.91zM1321 893a3.34 3.34 0 1 1 4.23 2.12A3.34 3.34 0 0 1 1321 893zM1330.23 857.34l-29.81 14.08-10.37-21.93 29.81-14.09 2.58 5.45-24.87 11.76 5.21 11 24.87-11.76zM1300.22 824.08l9.93-6 3.1 5.17-28.27 17-5.55-9.25c-3.22-5.37-2.54-11.28 3.52-14.92s11.59-1.46 14.82 3.91zm-13.66 8.2 9-5.38-2.4-4c-1.48-2.46-4.13-3.12-7-1.43s-3.49 4.35-2 6.82zM1289 785.28c5.83 7.87 2.29 15.59-5.35 21.26s-16.07 6.8-21.9-1.07-2.29-15.59 5.35-21.26 16.04-6.8 21.9 1.07zm-22.86 16.94c3.2 4.31 8.62 3.16 13.8-.68s7.86-8.7 4.67-13-8.62-3.16-13.81.68-7.88 8.68-4.68 13zM1239.7 761.37l.09.11 16.4-7.67 4.22 4.5-8.61 15.93.09.1 17-13.31 4.13 4.39-26 20.36-4.62-4.9 10.6-19.67-.1-.1-20.28 9.38-4.61-4.91 21.91-24.82 4.13 4.39zM1195.93 738.08l21-25.43 4.65 3.83-21 25.44zm18.6 15.34 8.15-9.88-2.47-2c-5.27-4.34-6.67-9.83-2.38-15s9.9-4.9 15.2-.53l7.12 5.88-21 25.43zm11.62-14.09 5.88-7.13-2.26-1.85c-2.94-2.43-5.47-2-7.15.08s-1.7 4.58 1.32 7.07zM1197 705.33l-7.11-4.44-14.55 23.34-5.12-3.18 14.55-23.34-7.11-4.44-14.55 23.34-5.11-3.19 17.43-28 29.57 18.43-17.44 28-5.11-3.19zM1145.86 707.5l-17.54-8.19 14-29.87 5.46 2.55-11.63 24.92 6.82 3.19c7.22-15.45 13.79-24.18 20.49-21a8.51 8.51 0 0 1 2.79 2l-3.21 4.22a4.63 4.63 0 0 0-1.25-.9c-2.86-1.33-6.93 3.94-15.34 22zM1129.63 664.35l-11.07 31-18-6.42 2.72-4.83 11.44 4.08 2.6-7.27-10.12-3.61 1.84-5.15 10.11 3.61 3-8.34-12.34-4.4 1.84-5.15zM1088.75 671.83l-12-3-3.21 12.79-5.85-1.47 8-32 5.85 1.46-3.48 13.89 12 3 3.49-13.89 5.84 1.47-8 32-5.85-1.47zM1053.3 664.26l-12.22-1.71-1.83 13.06-6-.84 4.58-32.65 6 .83-2 14.18 12.22 1.72 2-14.18 6 .83-4.58 32.66-6-.84zM992.69 673l.8-33 6 .15-.8 33zm24.11.58.31-12.8-3.2-.08c-6.83-.17-11.31-3.62-11.15-10.35s4.76-10 11.63-9.8l9.23.22-.79 33zm.44-18.26.23-9.23-2.92-.07c-3.82-.1-5.51 1.84-5.58 4.48s1.49 4.65 5.4 4.75zM961.42 664.28h.14l12.58-23.13 5-.47 3.08 32.82-6 .57-2-21.81h-.14l-12.58 23.18-5 .47-3.08-32.82 6-.56zm0 17.08a10.26 10.26 0 0 1 16.88-1.59l-3.5 3a5.09 5.09 0 0 0-9.38.88zM919.55 642.12l4.93-1.26 4 11.76-3.42.88c-2.28 5.5-1.19 14.7 1.51 25.19l.68 2.65-19.57 5-6.84-26.64-4.34 1.11-2.17-12.23 4.93-1.26L901 654l20.3-5.21zm-12.88 16.1 5.48 21.35 8-2.06-.26-1c-2-7.94-2.47-16.24-1.26-21.37zM873.78 686.57h.13l6-25.65 4.71-1.79 11.73 30.81-5.63 2.15-7.8-20.47h-.13l-5.94 25.7-4.71 1.79-11.73-30.82 5.63-2.14zM847.46 690.42l3.67-1.84 2.28 4.55-3.63 1.81c-2.78 1.39-3.79 3.8-2.67 6s3.69 2.84 6.43 1.47a15.39 15.39 0 0 0 5.35-4.36l4.36 3.24a20.09 20.09 0 0 1-7.48 6.11c-5.26 2.64-11 2.7-13.54-2.43a7.53 7.53 0 0 1 1.55-9.42l-.06-.13c-4.11 1.06-7.61 0-9.65-4.12-3-6 .54-11.23 6.6-14.27A18.77 18.77 0 0 1 851 675l-.37 5.56a14.3 14.3 0 0 0-7.46 1.31c-3.16 1.58-4.65 4.38-3.35 7 1.35 2.85 4.23 3.25 7.64 1.55zM810.4 703l8.88-5.51-2-7.27 5.4-3.35 8 33.83-4.68 2.9-26.75-22.21 5.41-3.35zm10.33-.14-6.17 3.82 9.31 8.3.16-.1zM788.27 736.88l.11-.09-1.73-26.28 4-3.08 20.15 26.1-4.8 3.68-13.39-17.33-.11.08 1.76 26.32-4 3.08-20.15-26.09 4.77-3.69zm9.16 14.4a10.25 10.25 0 0 1 13.42-10.36l-1.35 4.43a5.09 5.09 0 0 0-7.45 5.76zM768.89 750.92l-8.9 8.56 9.15 9.5-4.34 4.18-22.87-23.76 4.34-4.18 9.93 10.32 8.9-8.56-9.93-10.31 4.34-4.19 22.87 23.76-4.38 4.18zM737.87 786a3.34 3.34 0 1 1-.48-4.7 3.35 3.35 0 0 1 .48 4.7zM703 797.23 730.77 815l-5.56 8.69c-3.17 5-7.38 7.53-12.22 4.43a7.32 7.32 0 0 1-3.33-8.79l-.16-.1c-3.07 3-6.71 3.76-10.56 1.3-5.67-3.63-5-9.17-1.5-14.61zm6.69 16.2 2.16-3.38-7.5-4.79-2.16 3.37c-1.88 2.94-1.52 5.62.66 7 2.54 1.64 5 .73 6.84-2.2zm11.1 7 2.13-3.33-6.7-4.29-2.14 3.33c-1.55 2.42-1 4.59 1 5.89s4.16.86 5.71-1.56zM685.27 826.2l29.28 15.14-8.78 17-4.42-3.34 5.58-10.8-6.86-3.54-4.93 9.53-4.85-2.5 4.93-9.54-7.87-4.07-6 11.63-4.85-2.51zM694.43 870.57l-7-2.85-1.55 3.79c-2.58 6.33-7.32 9.32-13.55 6.78s-7.53-8-4.93-14.33l3.83-9.37 30.51 12.47-7.3 17.87-4.7-2.94zm-12-4.91-8.37-3.43-1.44 3.54c-1.44 3.53-.28 5.78 2.12 6.76 2.57 1 4.79.23 6.27-3.39zM673.19 887.33l5 1.6-4.07 12.65-4.69-2.5zM646 906l1.15-5 12.28 1.89-.8 3.43c3.83 4.57 12.49 7.84 23 10.28l2.66.62-4.57 19.68-26.72-6.21-1 4.36-11.85-3.72 1.15-5L648 928l4.74-20.42zm8.34 18.85 21.47 5 1.88-8.08-1-.23c-8-1.85-15.55-5.3-19.54-8.74zM664.24 967.1v-.1l-20-17.15.59-5 32.74 3.85-.7 6-21.75-2.56v.14l20 17.16-.58 5-32.75-3.85.71-6zM655.47 992.17l.07-4.09 5.08.09-.07 4c0 3.11 1.61 5.12 4.1 5.17s4.23-2 4.29-5a15.58 15.58 0 0 0-1.39-6.76l4.89-2.36a20.16 20.16 0 0 1 2 9.45c-.1 5.89-2.69 11-8.43 10.88a7.56 7.56 0 0 1-7.63-5.74h-.14c-1 4.13-3.55 6.72-8.12 6.64-6.74-.12-9.7-5.68-9.58-12.47a18.69 18.69 0 0 1 3-10l4.75 2.91a14.48 14.48 0 0 0-2.29 7.22c-.06 3.53 1.73 6.15 4.65 6.21s4.75-2.32 4.82-6.15zM649.42 1030.84l-.77-10.43-7.35-1.63-.46-6.34 33.68 8.57.41 5.49-32.07 13.42-.47-6.34zm4.65-9.22.53 7.23 11.68-4.4v-.19zM669.26 1066.17v-.17l-24.11-10.6-.89-5 32.46-5.83 1.06 5.94-21.56 3.87v.14l24.16 10.59.89 5-32.46 5.89-1.06-5.93zm17-1.47a10.29 10.29 0 0 1-3-16.69l3.31 3.23a5.09 5.09 0 0 0 1.67 9.27zM672.78 1089.87l3.5 11.83 12.65-3.74 1.71 5.78-31.64 9.35-1.71-5.78 13.73-4.06-3.5-11.84-13.73 4.06-1.71-5.78 31.62-9.34 1.71 5.78zM689.65 1133.55a3.35 3.35 0 1 1-4.41-1.74 3.35 3.35 0 0 1 4.41 1.74zM712.51 1176l-.07-.12-26.29-1.6-2.55-4.35 28.43-16.7 3 5.2-18.88 11.09.07.13 26.33 1.57 2.55 4.35-28.43 16.7-3-5.2zM724 1197l7.35 9.9 10.59-7.86 3.59 4.84L719 1223.5l-3.59-4.85 11.49-8.53-7.35-9.91-11.5 8.54-3.59-4.84 26.47-19.65 3.6 4.84zM756.53 1224.73l-20.38 18.47-4.08-4.5 20.38-18.47-6.42-7.09 4-3.66 16.97 18.67-4.68 3zM749.84 1257.41l22.38-24.22 14 13-4.4 3.38-8.92-8.25-5.25 5.67 7.89 7.29-3.71 4L764 1251l-6 6.5 9.62 8.89-3.71 4zM785.35 1273l-7.06 9.19-4.79-3.67 20.09-26.15 8.55 6.57c5 3.82 6.5 9.56 2.2 15.17s-10.25 5.61-15.22 1.79zm9.69-12.62-6.37 8.29 3.7 2.84c2.28 1.75 5 1.39 7-1.22s1.65-5.32-.63-7.07zM817.54 1305l-2.28 3.74-5.07-3.08 2.3-3.79a16.09 16.09 0 0 1-3.17-1.49c-6.68-4.06-6.72-11-2.73-17.53s10.2-9.78 16.88-5.72a15.54 15.54 0 0 1 2.78 2.13l2.3-3.78 5.07 3.08-2.3 3.79a14.8 14.8 0 0 1 3.17 1.49c6.68 4.06 6.72 11 2.68 17.61s-10.15 9.71-16.82 5.64a19.14 19.14 0 0 1-2.81-2.09zm-2.33-7.59 8.32-13.68a11.73 11.73 0 0 0-2.25-1.65c-3.46-2.1-7 0-9.39 3.94s-2.63 8 .83 10.15a12.69 12.69 0 0 0 2.49 1.2zm13.39-10.6-8.32 13.68a11.73 11.73 0 0 0 2.25 1.65c3.46 2.1 7 0 9.4-3.93s2.63-8-.83-10.15a11.84 11.84 0 0 0-2.5-1.29zM839.05 1320.77l14-29.85 17.32 8.12-3.17 4.54-11-5.16-3.28 7 9.73 4.56-2.32 5-9.73-4.56-3.76 8 11.86 5.58-2.32 5zM894.2 1319.89h-.13l-21.13 15.72-4.75-1.68 11-31.09 5.69 2-7.28 20.65h.13l21.14-15.77 4.75 1.68-11 31.09-5.69-2zm7.12-15.51a10.27 10.27 0 0 1-16-5.64l4.45-1.28a5.09 5.09 0 0 0 8.88 3.13zM927.74 1349.42a16.81 16.81 0 0 1-9.53.32c-9.52-2.3-12-10.55-9.75-19.8s8.2-15.46 17.72-13.16a17.06 17.06 0 0 1 7.88 4.08l-3.47 4.15a13.92 13.92 0 0 0-5.69-2.92c-5.22-1.26-8.88 3-10.39 9.31s-.23 11.77 5 13a13.41 13.41 0 0 0 7-.25zM949.18 1321.86l-1.65 12.7 3.17.41c6.78.88 10.88 4.79 10 11.47s-5.78 9.41-12.6 8.52l-9.16-1.19 4.25-32.69zm-2.36 18.14-1.18 9.15 2.89.38c3.78.49 5.67-1.26 6-3.88s-1-4.78-4.87-5.28zm26.27-15-4.25 32.7-6-.78 4.25-32.69zM1000 1337.61a3.35 3.35 0 1 1-3.35 3.35 3.35 3.35 0 0 1 3.35-3.35z"/></g></svg>