<svg height="2000" width="2000" xmlns="http://www.w3.org/2000/svg"><g fill="#fff"><path d="m698.9 662 4.35-4.09 10.75 9.82-3 2.84c.77 6.94 7.11 15.77 15.82 25l2.18 2.33-17.25 16.25-22.12-23.49-3.82 3.6-9.15-11.33 4.34-4.09 5.57 5.91 17.89-16.86zm-4.11 23.83 17.73 18.83 7.07-6.67-.83-.89c-6.59-7-11.73-15.28-13.39-21.23zM677 733.42l.11-.12-8.21-29.78 3.85-4.48 29.33 25.2-4.61 5.36L678 712.86l-.11.13 8.25 29.81-3.85 4.48-29.29-25.2 4.61-5.36zM652 752l2.77-3.93 4.87 3.44-2.74 3.88c-2.1 3-1.81 6 .58 7.71s5.39.9 7.46-2a18.39 18.39 0 0 0 3.11-7.47l6.3.93A23.54 23.54 0 0 1 670 765c-4 5.64-9.84 8.87-15.35 5-4.15-2.93-4.88-7.16-3.61-10.59l-.14-.1c-3.65 3.37-7.88 4.17-12.25 1.09-6.46-4.56-5.66-11.91-1.08-18.41a22 22 0 0 1 9.53-7.74l2.69 6a16.91 16.91 0 0 0-7 5.49c-2.39 3.38-2.38 7.1.41 9.08 2.96 2.01 6.17.82 8.8-2.82zM620.56 785.35l6.18-10.6-6-6.45 3.76-6.45 26.89 30.65-3.25 5.59-39.92-8.32 3.75-6.44zm10.63-5.83-4.29 7.35 14.21 3.49.12-.2zM616.19 832.55l.07-.15-16.13-26.35 2.46-5.38 35.16 16.11-2.94 6.43-23.36-10.7-.07.15L627.56 839l-2.46 5.38-35.16-16.08 2.94-6.43zm17.37 10c-2.4-3.77-2.44-7.26-.63-11.23s4.49-6.21 8.92-6.85l1 5.33a6 6 0 0 0-4.6 10zM603.67 857.61l-4.67 13.7 14.65 5-2.29 6.7-36.6-12.49 2.28-6.69 15.9 5.42 4.67-13.7-15.89-5.42 2.28-6.69 36.6 12.48-2.28 6.69zM586.63 887.77l5.94 1.51-3.82 15.1-5.67-2.58zM579.16 924.6l.48-2.72-16.55-2.88 1.22-7 38.09 6.64-1.22 7L586 923l-.5 2.83 13.5 12.51-1.36 7.78-16-15.12-22.36 9.56.83-7.93zM556.51 964.35c.93-11.45 10-15.54 21.14-14.63s19.43 6.4 18.5 17.85-10 15.54-21.14 14.63-19.43-6.4-18.5-17.85zm33.25 2.7c.51-6.27-5.16-9.45-12.7-10.06s-13.66 1.6-14.17 7.88 5.17 9.45 12.71 10.07 13.65-1.61 14.16-7.89zM547.32 996.08l-.11-6 14.5-1.38.09 4.14c5.66 4.09 16.46 5.31 29.16 5.06l3.2-.06.47 23.7-32.26.63.1 5.25-14.55-.82-.11-6 8.12-.16-.48-24.58zm14.91 19 25.85-.51-.19-9.72h-1.21c-9.62.18-19.21-1.56-24.73-4.33zM585.6 1056.4a3.92 3.92 0 1 1-4.41-3.36 3.91 3.91 0 0 1 4.41 3.36zM558.51 1099.86l-1.49-5.78 13.8-4.69 1 4c6.45 2.68 17.24 1.39 29.54-1.78l3.11-.8 5.9 23-31.24 8 1.31 5.08-14.35 2.55-1.48-5.77 7.86-2-6.13-23.8zM577.4 1115l25-6.44-2.42-9.41-1.18.3c-9.3 2.39-19 2.9-25 1.48zM610.44 1153.56l-.06-.16-30-7.2-2.06-5.53 36.24-13.51 2.47 6.63-24.08 9 .06.15 30.09 7.19 2.07 5.53-36.24 13.51-2.47-6.63zM614.57 1184.39l-2.09-4.32 5.37-2.6 2.07 4.28c1.58 3.28 4.38 4.5 7 3.23s3.39-4.28 1.83-7.52a18.27 18.27 0 0 0-5-6.34l3.87-5.06a23.71 23.71 0 0 1 7 8.86c3 6.22 3 12.92-3.08 15.85-4.57 2.21-8.63.8-11-2l-.15.07c1.18 4.83-.16 8.92-5 11.25-7.11 3.44-13.16-.82-16.62-8a22 22 0 0 1-2.16-12.08l6.51.53a17 17 0 0 0 1.42 8.76c1.8 3.73 5.07 5.53 8.15 4 3.31-1.5 3.83-4.88 1.88-8.91zM628.51 1228l-6.26-10.54-8.56 2.13-3.81-6.41 39.84-8.64 3.3 5.56-26.64 30.9-3.81-6.41zm.06-12.12 4.35 7.32 9.94-10.73-.11-.19zM667.63 1254.73l-.1-.13-30.86 1.29-3.5-4.76 31.16-22.9 4.19 5.69-20.7 15.22.1.13 30.9-1.32 3.5 4.76-31.16 22.9-4.18-5.7zm17.15-10.34c-4.47.27-7.53-1.39-10.12-4.9s-3.24-6.94-1.66-11.12l5.16 1.69a6 6 0 0 0 6.54 8.91zM683.45 1277.86l9.73 10.72 11.45-10.39 4.76 5.23-28.65 26-4.75-5.24 12.44-11.28-9.72-10.72-12.44 11.28-4.75-5.24 28.64-26 4.75 5.24zM701.61 1307.42l4.2-4.47 11.36 10.65-5 3.72zM733.54 1352.88a19.7 19.7 0 0 1-10.26-4.44c-8.94-7.22-7.42-17.2-.41-25.89s16.44-12.28 25.38-5.07a19.89 19.89 0 0 1 6.31 8.28l-5.76 2.66a16.24 16.24 0 0 0-4.57-6c-4.9-4-10.93-1.23-15.69 4.66s-6.14 12.37-1.24 16.32a15.65 15.65 0 0 0 7.54 3.24zM776.53 1354.22l-.14-.09-28.48 11.95-4.94-3.25 21.24-32.31 5.91 3.88-14.12 21.47.14.09 28.51-12 4.94 3.25-21.25 32.31-5.9-3.88zM806.19 1397.38a19.69 19.69 0 0 1-10.92-2.38c-10.17-5.35-10.6-15.44-5.4-25.32s13.76-15.23 23.93-9.88a20 20 0 0 1 7.78 6.91l-5.14 3.73a16.29 16.29 0 0 0-5.63-5c-5.57-2.93-11 .91-14.49 7.61s-3.64 13.32 1.93 16.25a15.76 15.76 0 0 0 8 1.73zM842.93 1380.94l-12.52 29.73-6.57-2.76 12.52-29.73-10.36-4.36 2.49-5.9 27.23 11.47-3.5 5.48zM851.22 1418.63 863.7 1382l21.23 7.24-3.12 5.71-13.49-4.6-2.92 8.65 11.92 4.07-2.07 6.07-11.92-4.14-3.35 9.83 14.53 5-2.07 6.06zM920.91 1411.68h-.16L910 1429.92l-7.07-1.55-2.21-21.12h-.16l-7.67 24.16-6.89-1.51 11.79-37 7.71 1.69 2.77 26h.17l13.41-22.51 7.72 1.7-4.78 38.53-6.9-1.51zM958.58 1434l-12.19-1.35-3.45 8.13-7.41-.82 17.09-37 6.42.71 8.6 39.85-7.41-.81zm-9.64-7.34 8.46.93-2.58-14.4h-.22zM999.67 1418.23a3.93 3.93 0 1 1-3.93 3.93 4 4 0 0 1 3.93-3.93zM1039.06 1410.29l.92 8.79 4.78-.51c8-.84 13.7 2.39 14.52 10.25s-4 12.2-12.06 13l-11.81 1.25-4.06-38.45 22.52-2.38-.42 6.49zm1.59 15.16 1.12 10.55 4.45-.47c4.45-.47 6.13-2.93 5.81-6-.34-3.24-2.42-5.08-7-4.59zM1077.41 1423.78l2.59 13.34-6.94 1.35-7.37-38 12.42-2.41c7.21-1.4 13.45 1.73 15 9.86s-3 13.36-10.25 14.76zm-3.56-18.33 2.34 12 5.37-1c3.31-.64 5.1-3.29 4.36-7.09s-3.39-5.59-6.7-4.94zM1110.91 1430.4l-10.58-37.2 21.57-6.13.7 6.46-13.71 3.9 2.48 8.72 12.11-3.45 1.75 6.16-12.11 3.45 2.84 10 14.77-4.21 1.76 6.17zM1144.81 1395.48l13.5-5.22-5.58-14.43 6.6-2.54 13.94 36.06-6.6 2.55-6.05-15.66-13.5 5.22 6.06 15.66-6.6 2.55-13.94-36.07 6.59-2.55zM1194 1408.91l-5.32 2.71-7.58-12.44 3.69-1.88c1.21-6.88-2.4-17.13-8.17-28.45l-1.46-2.85 21.12-10.76 14.65 28.74 4.67-2.39 5.62 13.45-5.32 2.71-3.69-7.24-21.9 11.17zm10.63-21.72-11.74-23-8.67 4.41.56 1.08c4.36 8.57 7 18 6.9 24.14zM1231.51 1348.2a3.92 3.92 0 1 1-1.1 5.44 3.91 3.91 0 0 1 1.1-5.44zM1283.87 1330.83l-9.42 7.85 3.45 8.12-5.73 4.77-14.8-38 5-4.13 34.63 21.46-5.73 4.77zm-12 1.85 6.54-5.44-12.16-8.14-.17.15zM1291.18 1272.67c1 4.37-.18 7.66-3.24 10.77s-6.34 4.3-10.72 3.39l.86-5.35a6 6 0 0 0 7.75-7.87zm12.92 15.3-.11.12 6.15 30.27-4.15 4.21-27.54-27.15 5-5 18.29 18 .12-.12-6.2-30.31 4.15-4.21 27.54 27.15-5 5zM1346 1291.87l-3.71 4.67-12.06-8.19 2.58-3.24c-1.75-6.75-9.28-14.59-19.22-22.5l-2.51-2 14.76-18.53 25.24 20.09 3.27-4.11L1365 1268l-3.72 4.67-6.35-5.06-15.31 19.23zm.68-24.17-20.23-16.1-6 7.6 1 .76c7.52 6 13.79 13.45 16.28 19.1zM1366.36 1251.73l-32.4-21.11 12.25-18.79 4.76 4.42-7.78 12 7.59 4.94 6.88-10.55 5.37 3.5-6.88 10.55 8.7 5.67 8.39-12.87 5.37 3.5zM1369 1203.14l6.75-12.8-13.69-7.21 3.3-6.26 34.21 18-3.29 6.26-14.86-7.83-6.75 12.8 14.86 7.83-3.3 6.26-34.21-18 3.29-6.26zM1381.91 1154.69l29.81 12.33-2.72 6.59-29.81-12.34-4.29 10.37-5.92-2.45 11.3-27.32 5.5 3.48zM1402.48 1115.42v.16l19.49 24-1.72 5.65-37-11.28 2.06-6.77 24.57 7.5v-.16l-19.54-24 1.73-5.66 37 11.29-2.06 6.76zM1418.45 1087.64l-.56 2.71 16.45 3.36-1.41 6.93-37.93-7.74 1.42-6.93 15.15 3.1.58-2.82-13.15-12.89 1.58-7.74 15.49 15.51 22.63-8.9-1 7.9zM1434 1041.63l-1.35 12.19 8.12 3.46-.82 7.41-37-17.11.71-6.43 39.86-8.58-.82 7.41zm-7.35 9.63.94-8.45-14.4 2.57v.22zM1418.23 1000.49a3.93 3.93 0 1 1 3.93 3.93 3.93 3.93 0 0 1-3.93-3.93zM1419.35 960.08l-1.63-14.39-15.37 1.74-.79-7 38.42-4.35.79 7-16.68 1.92 1.63 14.39 16.68-1.89.8 7-38.43 4.35-.79-7zM1425.23 904l2.54 12 8.79.74 1.55 7.29-40.51-4.62-1.33-6.32 35.14-20.67 1.55 7.3zm-4 11.45-1.76-8.32-12.87 7v.22zM1428.22 880.85l-37 11.39-3.57-11.56c-2-6.6-1.13-12.31 5.31-14.29a8.57 8.57 0 0 1 10.38 3.67l.21-.06c-.32-5 1.72-8.85 6.84-10.43 7.55-2.33 12 2.49 14.21 9.72zm-34.28-1.69 1.37 4.44 8.92-2.75-1.37-4.44c-1-3.22-3.32-4.41-6-3.58s-3.86 3.11-2.92 6.33zm14.71-4.59 1.38 4.49 10-3.08-1.38-4.49c-1.21-3.9-3.88-5.62-6.78-4.73-3.4 1-4.42 3.9-3.22 7.81zM1383.19 831.19l.07.16 30.29 6 2.28 5.45-35.67 14.92-2.73-6.52 23.7-9.91-.06-.16-30.35-6-2.29-5.45 35.68-14.92 2.73 6.52zM1365.27 809.37l28.57-15 3.28 6.27-34.24 18-10.27-19.64 6.19-2zM1367.34 765.37l6.46 10.44 8.52-2.29 3.93 6.34-39.7 9.35-3.4-5.5 26.09-31.33 3.93 6.34zm.16 12.12-4.48-7.23-9.75 10.9.12.19zM1362.26 742.32l-30.75 23.45-4.29-5.63 25.66-19.56-8.78-11.51-25.65 19.56-4.29-5.62 25.66-19.56-3.19-4.18 12.23-7.93 3.62 4.75L1346 721zM1298.68 706.42l.11.12 30.47-5.06 4.06 4.29-28.12 26.55-4.85-5.14 18.65-17.64-.11-.12-30.51 5.1-4.06-4.29 28.12-26.55 4.85 5.14zM1281.48 675.19l15.92-5.45 6.07 5.31-16.89 5.63c2.27 4 2 9.07-1.8 13.4-5 5.69-12 5.5-17 1.1l-9.27-8.11L1284 658l5.33 4.65-9.6 11zm-2.31 6.5-3.74-3.27-7.43 8.48 3.74 3.27c2.21 1.93 5.47 1.48 7.54-.89s2.09-5.66-.12-7.59zM1240.36 657.74a3.92 3.92 0 1 1 5.47-1 3.92 3.92 0 0 1-5.47 1zM1226.9 608.31l5.25 2.83-5.94 13.31-3.65-2c-6.35 2.91-12.73 11.7-18.78 22.88l-1.52 2.82-20.85-11.27 15.35-28.39-4.62-2.49 7.88-12.26 5.25 2.84-3.86 7.15 21.59 11.69zm-23.9 3.58-12.3 22.74 8.55 4.63.58-1.07c4.57-8.46 10.82-16 16-19.39zM1152.24 609.92l.15.06 25.69-17.14 5.47 2.25-14.72 35.75-6.54-2.69 9.78-23.75-.15-.06-25.72 17.19-5.46-2.25 14.71-35.76 6.54 2.69zM1126.83 592l4.6 1.4-1.74 5.71-4.54-1.39c-3.49-1.06-6.29.16-7.15 3s.84 5.4 4.28 6.45a18.08 18.08 0 0 0 8.07.61l1.08 6.28a23.62 23.62 0 0 1-11.29-.84c-6.6-2-11.51-6.58-9.54-13 1.48-4.86 5.28-6.88 8.93-6.75v-.16c-4.34-2.42-6.43-6.18-4.87-11.3 2.31-7.56 9.54-9.11 17.14-6.78a22 22 0 0 1 10.35 6.62l-4.82 4.42a16.94 16.94 0 0 0-7.39-4.92c-4-1.2-7.5 0-8.5 3.25s1.11 6.08 5.39 7.4zM1085.37 572.53l12 2.59 4.27-7.73 7.29 1.57-20.8 35-6.32-1.37-4.49-40.52 7.29 1.57zm8.83 8.29-8.31-1.79 1.09 14.59h.22zM1039.16 583h.16l20-23.5 5.87.67-4.4 38.42-7-.81 2.92-25.52h-.17l-20 23.56-5.87-.68 4.39-38.41 7 .8zm-4.08 19.6c2.84-3.45 6.14-4.58 10.47-4.08s7.3 2.33 9.28 6.34l-4.74 2.63a6 6 0 0 0-11-1.26zM1011.42 578.91l-14.42-.14-.16 15.46-7.07-.07.39-38.66 7.07.07-.23 16.79 14.47.14.17-16.79 7.07.07-.39 38.67-7.07-.07zM929.78 563.45a19.75 19.75 0 0 1 10.31-4.34c11.4-1.46 17.55 6.54 19 17.61s-2.5 20.38-13.9 21.85a19.94 19.94 0 0 1-10.34-1.18l2.06-6a16.3 16.3 0 0 0 7.46.82c6.25-.8 8.45-7 7.49-14.56s-4.69-13-10.93-12.18a15.7 15.7 0 0 0-7.56 3.2zM912.46 578.21l-2.91-13.27 6.9-1.52 8.29 37.78-12.36 2.7c-7.18 1.58-13.49-1.39-15.26-9.49s2.71-13.43 9.89-15zm4 18.24-2.63-12-5.34 1.17c-3.29.72-5 3.42-4.19 7.2s3.52 5.5 6.81 4.78zM878.81 572.4l11.46 36.92-21.42 6.68-.84-6.45 13.61-4.22-2.69-8.65-12 3.73-1.9-6.12 12-3.73-3.03-9.95-14.66 4.55-1.9-6.12zM838 577.38l5.5-2.29 6.61 13-3.82 1.6c-1.73 6.76 1.08 17.26 6 29l1.23 3-21.87 9.12L819.24 601l-4.84 2-4.57-13.84 5.51-2.29 3.12 7.49 22.69-9.45zm-12.26 20.85 9.94 23.86 9-3.74-.46-1.12c-3.7-8.87-5.59-18.44-5-24.59zM788.06 653.71l-18.72-33.83 6.18-3.42 18.73 33.83zM812.81 640l-7.28-13.14-3.28 1.82c-7 3.88-13.6 3-17.43-3.87s-1.08-12.91 6-16.82l9.48-5.24 18.7 33.84zm-10.38-18.75-5.25-9.47-3 1.66c-3.92 2.17-4.48 5.13-3 7.84s4.27 3.82 8.28 1.6zM754.59 661.44a3.92 3.92 0 1 1 .88-5.48 3.91 3.91 0 0 1-.88 5.48z"/></g></svg>