<svg height="2000" width="2000" xmlns="http://www.w3.org/2000/svg"><g fill="#fff"><path d="M1600.78 261.91c8.82 1.77 15.24 4.4 22.62 10.84 19.44 17 15.16 39.21-1.3 58.08s-37.93 26.17-57.37 9.17a44.77 44.77 0 0 1-13.43-19.11l13.16-5.47a36.39 36.39 0 0 0 9.72 13.75c10.66 9.28 24.42 3.69 35.58-9.11s14.84-27.2 4.19-36.49a35.17 35.17 0 0 0-16.62-7.92zM1511.91 278.94l42.48-58.63 13 9.38-42.48 58.64 20.38 14.76-8.43 11.65-53.72-38.92 10.45-10.19zM1482.08 209.11l15.58-26.21 13.64 8.1-44.3 74.59-24.4-14.51c-14.17-8.43-20-23-10.45-39s25-17.85 39.21-9.42zm-21.42 36 14.07-23.65-10.55-6.28c-6.5-3.86-13.47-2.09-17.9 5.37s-2.67 14.42 3.83 18.29zM1395.84 149.88l24.79 12 13.37-14.65 15.07 7.28-63.84 65.54-13.06-6.3 11.6-90.75 15.07 7.27zm14.9 22.74-17.19-8.3-5.31 32.4.45.22zM1308.71 171.45l25.82-67.65 14.94 5.71-25.82 67.64 23.52 9-5.17 13.41-62-23.65 7.44-12.55zM1285.58 86.81l-23.75 83.47-48.41-13.77 6.32-13.16 30.76 8.76 5.57-19.56-27.19-7.74 3.93-13.83 27.19 7.74 6.38-22.42-33.15-9.43 3.94-13.87zM1175.92 133.62l13.75-71.08 15.58 3-16.48 85.21-48.69-9.42 5.17-13.65zM1077.21 104.13h.37l44.62-53 13.19 1.42-9.3 86.28-15.78-1.7 6.18-57.31h-.37L1071.49 133l-13.19-1.42 9.3-86.28 15.78 1.7zM1002.13 76.11l19.09-32.59 18.1.13L1018.85 78c9.77 3.54 16.65 12.52 16.55 25.41-.12 17-12.35 26.94-27.35 26.83l-27.64-.24.64-86.78 15.87.12-.24 32.73zm5.6 14.42-11.16-.08-.19 25.29 11.16.08c6.57 0 11.45-5.49 11.5-12.56s-4.74-12.68-11.31-12.73zM906.56 106.4a8.8 8.8 0 1 1 7.84-9.67 8.8 8.8 0 0 1-7.84 9.67zM781.61 127.62l.37-.08 24.83-64.73 12.93-3 19.41 84.59-15.46 3.6-12.9-56.19-.36.09-24.81 64.84-12.93 3-19.41-84.59 15.47-3.55zM665.48 109.11c6-6.73 11.47-11 20.74-14.1 24.43-8.28 41.52 6.61 49.56 30.33s3.52 45.93-20.9 54.21a44.68 44.68 0 0 1-23.28 2l1.89-14.12a36.42 36.42 0 0 0 16.77-1.5c13.39-4.53 15.47-19.25 10-35.33s-16-26.51-29.44-22a35.2 35.2 0 0 0-15.2 10.4zM587.72 142.4c5.34-7.24 10.45-11.94 19.41-15.89 23.6-10.41 41.94 2.9 52 25.81s7.59 45.44-16 55.85a44.66 44.66 0 0 1-23 4.06l.63-14.24a36.4 36.4 0 0 0 16.57-3c12.93-5.71 13.7-20.55 6.84-36.09s-18.34-25-31.27-19.26a35.25 35.25 0 0 0-14.22 11.69zM593.85 230.68l-44.45 24.91L507 179.9l13.84-7.76 35.4 63.15 17.3-9.7C551.57 186.44 543 159 560 149.47a22.39 22.39 0 0 1 8.63-2.85L572.7 160a12 12 0 0 0-3.82 1.29c-7.24 4.06-2.23 20.86 23.35 66.5zM476.76 199 526 270.47 484.56 299l-6.12-13.25 26.34-18.15-11.54-16.7-23.24 16-8.16-11.84 23.27-16-13.23-19.2-28.38 19.56-8.16-11.84zM392.42 237.31l10.22-8.64L425.58 252l-7.1 6c.89 15.65 14 36.19 32.43 58l4.64 5.5-40.62 34.33-46.73-55.37-9 7.61-19.15-26.51 10.23-8.64L362 286.84l42.14-35.61zm-12.1 52.91 37.45 44.32 16.66-14.09-1.76-2.08c-13.92-16.48-24.45-35.66-27.45-49.19zM307 338.81c17.82-18.64 39.43-12.9 57.53 4.4s24.82 38.64 7 57.28-39.43 12.9-57.53-4.4-24.8-38.63-7-57.28zm54.13 51.74c9.77-10.21 4.37-23.77-7.9-35.51s-26.07-16.51-35.83-6.29-4.38 23.78 7.9 35.51 26.09 16.51 35.85 6.29zM261.66 391.16l68.44 53.35-16.69 21.42c-9.53 12.22-21.19 17.91-33.12 8.61-9-7-9.79-16.28-6.58-23.84l-.39-.3c-8.76 7-18.5 8.21-28 .82-14-10.9-10.81-25.25-.37-38.65zm13.58 44.07 6.48-8.31-18.48-14.4-6.48 8.31c-5.64 7.23-5.37 14.35 0 18.55 6.24 4.88 12.84 3.09 18.48-4.15zm27.36 21.17 6.4-8.21-16.52-12.88-6.41 8.21c-4.64 6-3.84 11.78 1.15 15.67s10.78 3.18 15.38-2.79zM202.72 506.19 217.56 483l-12.9-15 9-14.1 57.46 71.21-7.82 12.22L174.58 515l9-14.09zm24.37-12.07-10.3 16.08 31.54 9.14.27-.42zM200.3 576.86l-14.65 29 31 15.66-7.16 14.16L132 596.51l7.16-14.16 33.63 17 14.66-29-33.63-17L161 539.2l77.44 39.16-7.16 14.17zM152.45 699.61l.13-.35-40.22-56.46 4.64-12.41 81.23 30.55-5.59 14.85-54-20.29-.13.35 40.35 56.5-4.67 12.41L93 694.21l5.59-14.85zM106.58 765.27 79.8 738.64l4.65-17.49 28.11 28.4c5.88-8.58 16.29-13 28.75-9.67 16.41 4.37 23 18.69 19.13 33.19l-7.11 26.72-83.87-22.33 4.08-15.33 31.63 8.42zm15.36-1.81-2.87 10.79 24.44 6.5 2.88-10.75c1.68-6.35-2.46-12.46-9.29-14.28s-13.47 1.39-15.16 7.74zM111.88 865.35a8.8 8.8 0 1 1-7.4-10 8.83 8.83 0 0 1 7.4 10zM26.49 942.27l.41-13.38 32.67-1.48-.28 9.29c12.22 9.81 36.29 13.77 64.79 14.65l7.19.22-1.63 53.16-72.37-2.22-.37 11.77-32.51-3.48.41-13.38L43 998l1.69-55.15zm31.26 44.37 58 1.79.67-21.81-2.73-.09c-21.56-.66-42.87-5.66-54.94-12.48zM44.93 1073.69c-2-25.71 16.73-38 41.7-39.88s45.33 7.34 47.3 33.06-16.74 38-41.7 39.87-45.33-7.34-47.3-33.05zm74.66-5.72c-1.08-14.1-14.77-19.14-31.71-17.84s-29.7 8.37-28.61 22.46S74 1091.73 91 1090.43s29.7-8.37 28.62-22.43zM69.14 1198.23c-5.77-6.91-9.13-13-10.85-22.62-4.54-25.39 12.74-40.06 37.39-44.47s46 3.37 50.48 28.76a44.76 44.76 0 0 1-1.5 23.32l-13.68-4a36.51 36.51 0 0 0 1-16.81c-2.49-13.91-16.73-18.17-33.45-15.18s-28.6 11.91-26.11 25.83a35.21 35.21 0 0 0 8 16.58zM149.1 1240.58l-69.83 19.13-4.22-15.43 69.83-19.12-6.65-24.28 13.87-3.8 17.52 64-14.52 1.4zM191 1319.81l5.87 15.8-72.87-.31c-11.54-.08-22.23-2.86-26.37-14a22.23 22.23 0 0 1-.77-14.53l14.14 2.82c-.7 2.37-.88 4-.11 6.12.87 2.32 4.07 4.18 10.63 4.38l4.67.12-1.73-4.65 47.74-46.3 6.3 17-35.3 33.48.13.35zM125.45 1388.7l78-37.93 27.9 57.43-78 37.92-6.94-14.27 65.12-31.64-14-28.88-65.15 31.67zM223.7 1464.25l17.17 27.57 29.47-18.35 8.39 13.47-73.66 45.88-8.39-13.47 32-19.93-17.18-27.57-32 19.93-8.39-13.47 73.67-45.88 8.39 13.47zM304.13 1522.18l-26.41 21 5.24 6.61c11.17 14.08 11.74 29-2.15 40s-28.18 7.16-39.42-7l-15.11-19 68-53.93zm-37.68 29.9-19 15.1 4.78 6c6.24 7.87 13 8 18.45 3.72 5.74-4.55 6.9-10.86.51-18.92zm77.13 19.83-68 53.93-9.86-12.43 68-53.93zM378.57 1650l-.26-.27-68 13.42-9.39-9.37 61.28-61.44 11.24 11.2-40.71 40.82.26.26 68.09-13.5 9.4 9.37-61.29 61.44-11.19-11.26zm34.5-28.8c-9.81 2.11-17.18-.51-24.12-7.42s-9.57-14.28-7.48-24.1l12 2c-2.09 6.32-.33 11.4 2.91 14.64s8.51 5 14.65 2.87zM403.94 1772l-10.83-7.87 17.16-27.84 7.53 5.47c15-4.59 31.8-22.25 48.57-45.32l4.22-5.82 43 31.27-42.59 58.57 9.53 6.93-21.18 24.91-10.83-7.87 10.72-14.74-44.63-32.43zm54.28-.87 34.11-46.93-17.66-12.83-1.6 2.2c-12.68 17.46-28.8 32.25-41.23 38.39zM570.84 1790.33l-.32-.18-62.08 30.85-11.53-6.56 42.94-75.44 13.79 7.85-28.52 50.15.32.19 62.14-31 11.52 6.57-42.93 75.42-13.79-7.86zM622.67 1837.36l-9.86-4.37 5.44-12.24 9.74 4.33c7.48 3.32 14 1.36 16.72-4.65 2.77-6.23-.4-12.25-7.76-15.52a40.88 40.88 0 0 0-17.81-3.57l-.71-14.29a53 53 0 0 1 24.92 5c14.17 6.29 23.85 17.78 17.71 31.61-4.63 10.42-13.63 13.88-21.74 12.59l-.15.34c9 6.58 12.64 15.52 7.76 26.51-7.2 16.2-23.72 17.67-40 10.43A49.73 49.73 0 0 1 585.7 1856l11.94-8.54a37.78 37.78 0 0 0 15.13 13c8.5 3.78 16.69 2.13 19.81-4.9 3.28-7.56-.73-14.12-9.91-18.2zM710.12 1891.72l-26.06-8.86-11.51 16.14-15.84-5.39 55.4-72.82 13.74 4.67-.48 91.5-15.84-5.39zM692.56 1871l18.08 6.15 1.33-32.81-.47-.16zM816.06 1880.09l-.36-.09-50.59 47.4-12.92-3 19.44-84.58 15.47 3.55-12.92 56.19.36.08 50.62-47.52 12.93 3-19.45 84.58-15.46-3.56zm14-42.71c-7.2 7-14.84 8.68-24.39 6.48s-15.68-7-19.11-16.48l11.25-4.66c1.57 6.46 5.75 9.84 10.22 10.87s9.86-.28 14-5.32zM877 1896.15l32.25 3.87 4.14-34.47 15.76 1.9-10.35 86.17-15.75-1.9 4.49-37.42-32.25-3.87-4.5 37.42L855 1946l10.35-86.17 15.75 1.89zM1000.05 1898.41a8.81 8.81 0 1 1-8.81 8.81 8.84 8.84 0 0 1 8.81-8.81zM1119.8 1930.13l-27.34 3.11-3.53 19.5-16.63 1.89 19-89.51 14.41-1.64 38.64 83-16.64 1.89zm-24.74-11.28 19-2.16-12.8-30.24-.49.06zM1171.25 1941.61l-18-84.91 26.57-5.62c15.16-3.2 27.74 0 30.87 14.76 2.36 11.16-3 18.76-10.33 22.46l.1.49c11.22.29 19.44 5.64 21.93 17.41 3.67 17.34-8 26.27-24.62 29.79zm10.73-76.28-10.19 2.16 4.34 20.5 10.19-2.16c7.4-1.56 10.53-6.54 9.22-12.72s-6.16-9.34-13.54-7.78zm7.28 33.82-10.31 2.18 4.85 22.92 10.31-2.18c9-1.9 13.36-7.51 12-14.18-1.69-7.77-7.87-10.64-16.85-8.74zM1265.52 1843.43l21.18 69.23-15.3 4.68-21.17-69.23-24.07 7.36-4.2-13.75 63.42-19.4 1.84 14.48zM1362.46 1886.54c-23.86 9.78-41.27-4.26-50.77-27.43s-6.94-45.39 16.92-55.16 41.27 4.25 50.77 27.42 6.94 45.39-16.92 55.17zm-28.4-69.29c-13.07 5.36-13.66 19.94-7.22 35.66s17.09 25.68 30.17 20.32 13.66-19.94 7.22-35.65-17.09-25.69-30.17-20.33zM1455.35 1776.43l-.33.18 8.87 46.8-14.22 7.85-35-32.34-.33.18 22.85 52.1-13.89 7.68-34.93-79.88 15.51-8.58 43.26 39.83.33-.18-10.71-57.82 15.51-8.57 49 72-13.88 7.68zM1551.94 1757.91l-22.48 15.87 6.27 18.79-13.67 9.65-26.34-87.63 11.85-8.37 73.75 54.18-13.68 9.65zm-27.12 2 15.6-11-25.76-20.37-.4.29zM1575.33 1671.33l46.57 55.43-12.24 10.29-46.58-55.43-19.27 16.19-9.25-11 50.78-42.66 7.35 12.6zM1656.82 1614.17l-.26.27 14.16 67.86-9.26 9.5-62.12-60.61 11.08-11.36 41.27 40.26.26-.26-14.26-67.95 9.27-9.5 62.12 60.61-11.08 11.36zM1715.42 1576l-6.73 8.43-10.46-8.36 6.65-8.33c5.11-6.39 4.87-13.25-.26-17.35-5.33-4.25-11.95-2.72-17 3.57a40.72 40.72 0 0 0-8 16.33l-14-2.93a53.12 53.12 0 0 1 11.12-22.86c9.68-12.1 23.24-18.56 35.06-9.12 8.91 7.12 10 16.7 6.68 24.22l.29.23c8.65-7 18.21-8.3 27.6-.79 13.85 11.07 11.1 27.43 0 41.37a49.51 49.51 0 0 1-22.37 16.09l-5.24-13.71a37.81 37.81 0 0 0 16.38-11.35c5.8-7.27 6.28-15.61.28-20.41-6.42-5.14-13.73-2.9-20 4.97zM1790.17 1505.1l-15.17 23 12.69 15.21-9.22 14-56.43-72 8-12.1 88.4 23.61-9.22 14zm-24.53 11.73 10.52-15.94-31.4-9.59-.28.42zM1832.5 1472.58l-77-40.1 7.33-14.07 64.21 33.45 15-28.8-64.21-33.46 7.33-14.07 64.21 33.45 5.44-10.44 27.78 17.26-6.19 11.88-16.16-8.42zM1844.51 1308.86l-.14.35 39.67 56.85-4.8 12.37-80.92-31.36 5.74-14.8 53.75 20.83.13-.34-39.77-56.9 4.79-12.37 80.92 31.36-5.73 14.79zM1891 1243.63l26.52 26.9-4.83 17.44-27.83-28.67c-6 8.51-16.41 12.82-28.84 9.38-16.36-4.53-22.8-18.92-18.8-33.37l7.38-26.65 83.64 23.15-4.24 15.3-31.54-8.73zm-15.38 1.66 3-10.75-24.38-6.75-3 10.75c-1.76 6.34 2.33 12.49 9.14 14.37s13.53-1.28 15.28-7.62zM1886.72 1143.52a8.8 8.8 0 1 1 7.28 10.1 8.8 8.8 0 0 1-7.28-10.1zM1957 1039.35c-1.09 25.77-21.12 35.72-46.14 34.66s-44.14-12.66-43-38.42 21.11-35.72 46.13-34.66 44.11 12.66 43.01 38.42zm-74.83-3.16c-.59 14.13 12.41 20.76 29.38 21.47s30.48-4.79 31.07-18.91-12.4-20.75-29.37-21.47-30.46 4.79-31.06 18.91zM1883.32 958.5l19.81-1.12-.61-10.77c-1-18 6.84-30.44 24.54-31.44s26.94 10.39 27.94 28.47l1.51 26.61-86.65 4.91-2.86-50.75 14.5 1.66zm34.17-1.93 23.76-1.35-.57-10c-.56-10-5.88-14.07-12.69-13.68-7.31.41-11.65 4.88-11.06 15.15zM1857.89 854.82l-2.45-16.68 71.2 15.46c11.27 2.47 21.14 7.41 22.87 19.19a22.19 22.19 0 0 1-2.27 14.37l-13.24-5.7c1.18-2.18 1.7-3.76 1.38-6-.37-2.46-3.11-4.94-9.48-6.51l-4.55-1.08.72 4.91-56.32 35.35-2.64-17.9 41.5-25.41v-.37zM1926.73 762.35l-33.61 8.18a51.48 51.48 0 0 1 6.26 14.17c4.35 17.83-1.34 28.53-18.81 32.78l-28.06 6.84-3.76-15.42 28.07-6.83c8.43-2.06 10.09-7.82 8.3-15.17a40.09 40.09 0 0 0-6-13l-36.73 9-3.76-15.42 84.31-20.54zM1912.75 712.72l-82.08 28.19-16.35-47.61 14.41-2.33 10.39 30.26 19.23-6.61-9.18-26.73 13.6-4.68L1872 710l22-7.57-11.2-32.6 13.6-4.67zM1830.27 640.91l-13.45-29.57-31.6 14.38-6.57-14.45 79-35.93 6.57 14.44-34.3 15.61 13.45 29.61 34.3-15.6 6.57 14.44-79 35.94-6.57-14.45zM1764.52 526.8l.18.32 69.21 4 6.75 11.41-74.66 44.2-8.08-13.66 49.62-29.35-.19-.32-69.35-3.94-6.72-11.46 74.7-44.18 8.07 13.65zM1785.59 453.91l-70 51.28-29.74-40.61 13.06-6.5 18.9 25.8 16.41-12-16.7-22.81 11.6-8.49 16.7 22.8 18.81-13.77-20.37-27.81 11.6-8.49zM1662.33 393.14a8.81 8.81 0 1 1 12.45.53 8.83 8.83 0 0 1-12.45-.53z"/></g></svg>