<svg height="2000" width="2000" xmlns="http://www.w3.org/2000/svg"><clipPath id="a"><circle cx="1000" cy="1000" r="287.01"/></clipPath><g clip-path="url(#a)"><circle cx="1000" cy="1000" r="287.01"/><path d="m747.4 1130.43 278.74-278.74-81.13-81.13L747.4 968.17z" fill="#00a0e3"/><path d="M1055.48 1198c0-110 89.14-199.09 199.1-199.09S1453.67 1088 1453.67 1198s-89.14 199.1-199.09 199.1-199.1-89.16-199.1-199.1zm199.1-115.38a91.22 91.22 0 1 0 .06 0z" fill="#05b506" fill-rule="evenodd"/><path d="M1062 1092.28c0-8.8-6.84-11.23-15.15-11.23h-12.1v22.46h12.1c8.32 0 15.15-2.94 15.15-11.23zm77.2 7.26h44.44V1134c-6.25 11.64-20.4 20.72-41.63 20.72-12.49 0-22.48-3.33-27.89-7.49-20.06 12.19-55.06 9.66-67.45-24.13h-11.91v10h8.17v20h-45.79v-20h11.39v-52h-16.39v34.52c0 25.79-18.32 39.93-42 39.93-20.81 0-42-12.47-42-39.93v-34.52h-8.74v-20.39H946v20.39h-10v35.78c0 10.39 7.91 16.21 15.4 16.21s14.57-5.4 14.57-16.21v-35.78h-12.1v-20.39h98.25c24.63 0 37.06 13.44 37.06 30.53a31.61 31.61 0 0 1-16.81 27.38c4.72 13.83 19.07 16.56 26 9.9-3.33-6.65-4.58-14.14-4.58-21.63 0-24.68 15.35-47.83 47-47.83 18.3 0 29.34 5.21 38.13 12.55v21.57h-23.31l-.1-9.62c-3.59-2.22-7.79-3.25-13.06-3.25-13.79 0-22.07 9.81-22.07 26.17 0 15 8.75 26.13 22.07 26.54 7.09 0 12.53-1.51 17.9-6.16v-7.71h-21.15zM876 1124.31a9.33 9.33 0 0 0-9.5-9.16h-12.56V1133H866c6.25 0 10-4.54 10-8.69zm-22.06-27.46H861c5.83 0 8.74-3.74 8.74-7.9s-2.91-7.9-8.74-7.9h-7.08zm48.29 28.7c0 13.73-10 27.46-29.52 27.46H817.3v-20h9.58v-52h-9.58v-20.39h48.9c18.87 0 28.12 12.06 28.12 25 0 5.83-2.08 11.65-7.08 17.06 10.82 5 15 13.73 15 22.87zm234.38-153.07h11.21v33.22l-37.09-52.78h-39.58v19.55H1082v52h-10.86v20.38H1119v-20.38h-10.79v-32l36.25 52.37H1174v-72.37h10v-19.55h-47.46v19.55zm-40.67-128.13v30.17h19.6v-10.06h11.12v51.87h-9.54v20.12h46.62v-20.12h-10.06v-51.87h11.12v10.06h20.13v-30.17zm-196 170h-20.66v10.59h-25.42v-16.44h23.84v-20.11h-23.84V973h25.42v10.59h20.66v-30.7H817.3V973h10.07v51.87H817.3V1045h82.64zM945.47 995h12.4c8.31 0 15.13-3 15.13-11.27 0-8.79-6.84-11.23-15.15-11.23h-12.4zm7.91 49.91h-45.8v-20.41h10.83v-52h-10.83v-19.56h56.33c24.63 0 37 13.44 37 30.52a31.63 31.63 0 0 1-16.65 27.31c1.66 10 10.33 13.73 21.08 13.73h17.21v-52H1008v-19.56h55.37v19.56h-14.57v52h14.58v20.38h-59.15c-26.81 0-39.51-10.4-45.75-30h-13v9.57h7.9zm92.69-155.51h16.43l-8.5-22.3zm-92.93 47.11h-45.56v-20.15h11.13v-51.87h-11.13v-20.11h46.62v20.11h-9v15.88h9.53c12.19 0 19.6-5.82 19.6-15.88h-8v-20.11h44v20.11H999.2c0 13.77-9.53 25.41-19.07 30.71 2.65 14.29 10.83 21.17 28.84 20.11l20.13-50.81h-6.89v-20.12h51.91l27.55 72h9.53v20.12h-46.62v-20.12h7.42l-2.12-6.88h-30.73l-2.12 6.88h8.48v20.12h-18.3c-31.79 0-36 0-47.6-4.76-11.13-4.77-19.6-16.41-23.84-31.23h-10.6v15.87h8zm-53.2 0H817.3v-20.15h10.07v-51.87H817.3v-20.11h82.64v30.7h-20.66v-10.59h-25.42v15.36h23.84V900h-23.84v16.41h25.42v-10.63h20.66z" fill="#fff"/></g></svg>