<svg fill="none" height="801" viewBox="0 0 3000 801" width="3000" xmlns="http://www.w3.org/2000/svg"><path d="m0 0h3000v801h-3000z" fill="#000"/><g fill="#ffd400"><path d="m267.209 183.774-53.113 4.18v68.077l-52.007 4.093v-68.077l-53.114 4.18v188.693l53.114-4.18v-73.627l52.007-4.093v73.627l53.113-4.18z"/><path d="m413.027 346.561c6.639 9.097 16.229 15.002 35.409 13.493 10.328-.813 23.606-5.558 29.876-10.121v-39.219l-4.057.319c-8.114.639-13.278-3.024-13.278-12.274v-64.377c0-39.219-17.336-68.193-74.876-63.665-23.606 1.858-46.843 7.387-70.08 17.725l16.229 42.751c15.86-7.168 34.302-11.949 49.425-13.139 17.705-1.394 26.188 6.448 26.188 19.768v11.099l-32.089 2.526c-41.68 3.28-69.712 26.575-69.712 62.464 0 38.478 26.188 55.287 61.966 52.471 19.18-1.51 33.565-10.041 43.523-19.705zm-57.909-37.251c0-9.989 8.115-17.658 20.656-18.645l32.089-2.525v19.239c-9.221 8.865-22.131 14.691-33.934 15.62-11.065.871-18.811-4.069-18.811-13.689z"/><path d="m670.195 226.425c24.344-1.916 42.786 6.993 42.786 30.672s-18.073 35.091-38.728 36.716c-19.549 1.539-35.778-3.104-49.057-10.938l-26.925 45.407c21.024 11.665 46.105 18.201 78.563 15.646 46.844-3.686 91.105-34.549 91.105-91.527 0-45.508-28.032-64.761-59.015-70.092v-1.48l47.581-59.242v-46.6186l-142.374 11.2051-7.377 50.8985 92.949-7.315v1.48l-49.794 63.486v33.299z"/><path d="m991.205 185.992c0-87.6866-37.253-130.2629-94.055-125.7925-56.802 4.4705-94.055 52.9105-94.055 140.5975 0 87.686 37.253 130.262 94.055 125.792s94.055-52.911 94.055-140.597zm-133.153 10.479c0-58.457 17.705-84.27 39.098-85.953 21.393-1.684 39.098 21.342 39.098 79.799 0 58.458-17.705 84.27-39.098 85.954s-39.098-21.342-39.098-79.8z"/><path d="m1075.01 308.892 47.95-3.774 191.79-274.0848-47.21 3.7157zm114.71-208.82c0-39.9588-27.3-60.7498-62.34-57.9921-35.04 2.7578-62.33 27.845-62.33 67.8031 0 39.959 27.29 60.75 62.33 57.992s62.34-27.845 62.34-67.803zm135.36 129.94c0-39.958-27.29-60.749-62.33-57.991s-62.34 27.845-62.34 67.803c0 39.959 27.3 60.75 62.34 57.992s62.33-27.845 62.33-67.804zm-197.7-156.1133c14.02-1.1031 24.34 9.1836 24.34 29.1633 0 19.979-10.32 31.891-24.34 32.994-14.01 1.103-24.34-9.183-24.34-29.163 0-19.9789 10.33-31.8912 24.34-32.9943zm135.37 129.9413c14.01-1.104 24.34 9.183 24.34 29.162 0 19.98-10.33 31.892-24.34 32.995-14.02 1.103-24.35-9.184-24.35-29.163s10.33-31.891 24.35-32.994z"/><path d="m627.876 670.793c-14.385 1.132-26.557-1.24-37.253-4.838l-17.336 44.653c15.86 5.781 37.622 8.509 58.646 6.854 54.589-4.296 92.212-41.666 92.212-105.303 0-63.638-37.623-95.086-92.212-90.789-17.704 1.393-40.941 6.552-56.802 14.46l17.336 41.924c11.434-4.97 23.237-8.119 35.409-9.077 16.967-1.335 32.827 7.036 39.098 26.522l-63.442 4.993v38.848l64.548-5.08c-5.533 23.005-22.131 35.411-40.204 36.833z"/><path d="m902.487 694.319c4.795.363 11.803.921 19.917.282 57.171-4.499 75.982-49.638 75.982-104.026 0-54.387-18.811-96.565-75.982-92.066-8.114.639-15.122 2.3-19.917 3.418v-86.947l-53.114 11.58v79.547c-4.795-.363-11.803-.921-19.917-.283-57.171 4.5-75.983 49.639-75.983 104.026 0 54.388 18.812 96.566 75.983 92.067 8.114-.639 15.122-2.3 19.917-3.418v79.547l53.114-11.58zm13.278-46.183c-5.901.464-10.696.102-14.754-.689v-98.416c4.058-1.429 8.853-2.547 14.754-3.011 21.024-1.655 29.139 18.796 29.139 48.765 0 29.968-8.115 51.696-29.139 53.351zm-79.67 6.27c-21.024 1.655-29.139-18.796-29.139-48.765s8.115-51.696 29.139-53.351c5.901-.464 10.696-.102 14.753.689v98.416c-4.426 1.458-8.852 2.547-14.753 3.011z"/><path d="m1176.96 672.718c4.79.362 11.8.921 19.92.282 57.17-4.5 75.98-49.638 75.98-104.026s-18.81-96.566-75.98-92.066c-8.12.638-15.13 2.3-19.92 3.417v-86.946l-53.11 11.58v79.546c-4.8-.362-11.81-.921-19.92-.282-57.17 4.499-75.98 49.638-75.98 104.026s18.81 96.566 75.98 92.066c8.11-.638 15.12-2.3 19.92-3.417v79.547l53.11-11.58zm13.28-46.184c-5.9.465-10.7.102-14.76-.688v-98.417c4.06-1.429 8.86-2.546 14.76-3.011 21.02-1.654 29.14 18.796 29.14 48.765s-8.12 51.697-29.14 53.351zm-79.67 6.271c-21.03 1.654-29.14-18.796-29.14-48.765s8.11-51.697 29.14-53.351c5.9-.465 10.69-.102 14.75.688v98.416c-4.43 1.459-8.85 2.547-14.75 3.012z"/><path d="m1468.03 573.593c2.95-12.812 4.06-26.958 4.06-40.648 0-45.878-29.51-75.375-80.78-71.34-54.59 4.297-88.89 41.405-88.89 105.043 0 63.637 41.31 94.794 95.9 90.498 23.97-1.887 48.69-10.491 66.76-21.163l-19.18-41.039c-12.17 7.248-29.51 13.792-43.89 14.924-21.4 1.683-38.36-8.081-44.27-27.596zm-111.39-32.302c3.32-19.87 16.97-31.304 35.41-32.755 20.65-1.626 31.72 9.343 31.72 27.472z"/><path d="m1668.7 443.475-52.75 4.151-40.2 73.091-9.96.784v-69.927l-53.12 4.18v188.692l53.12-4.18v-75.477l9.96-.784 42.05 75.868 54.58-7.996-54.95-93.351z"/><path d="m1676.05 489.884 56.06-4.412v141.704l52.75-4.151v-141.704l50.53-3.977 7.37-47.569-166.71 13.121z"/><path d="m1915.72 612.726 69.71-106.863v101.376l53.12-4.18v-188.692l-45.37 3.57-69.71 107.233v-101.746l-53.12 4.18v188.692z"/><path d="m2203.68 489.797c19.18-5.579 32.09-21.395 32.09-43.224 0-30.339-22.5-45.957-62.34-42.822l-83.36 6.56v188.693l89.27-7.025c42.78-3.367 64.17-25.4 64.17-59.439 0-22.939-14.38-37.716-39.83-41.263zm-30.62 24.979c10.33-.813 16.6 5.723 16.6 14.233 0 8.509-6.27 15.662-16.6 16.475l-29.87 2.352v-30.709zm8.86-52.125c0 7.77-5.54 13.755-13.28 14.364l-25.45 2.003v-26.639l25.45-2.003c7.74-.609 13.28 4.505 13.28 12.275z"/><path d="m2442.46 382.578-53.12 4.18v68.078l-52 4.093v-68.077l-53.12 4.18v188.692l53.12-4.18v-73.627l52-4.093v73.627l53.12-4.18z"/><path d="m2648.77 480.667c2.95-12.812 4.05-26.958 4.05-40.648 0-45.878-29.51-75.374-80.77-71.339-54.59 4.296-88.9 41.404-88.9 105.042 0 63.637 41.31 94.795 95.9 90.498 23.98-1.887 48.69-10.491 66.76-21.163l-19.18-41.039c-12.17 7.248-29.5 13.792-43.89 14.924-21.39 1.684-38.36-8.081-44.26-27.595zm-111.4-32.302c3.32-19.87 16.97-31.304 35.41-32.755 20.66-1.626 31.72 9.343 31.72 27.472z"/><path d="m2847.96 464.99c2.95-12.811 4.05-26.958 4.05-40.647 0-45.879-29.5-75.375-80.77-71.34-54.59 4.296-88.9 41.405-88.9 105.042s41.32 94.795 95.9 90.499c23.98-1.887 48.69-10.492 66.77-21.164l-19.18-41.039c-12.18 7.248-29.51 13.792-43.9 14.924-21.39 1.684-38.36-8.08-44.26-27.595zm-111.4-32.301c3.32-19.871 16.97-31.304 35.41-32.756 20.66-1.626 31.72 9.343 31.72 27.472z"/></g></svg>