<svg fill="none" height="1413" viewBox="0 0 1541 1413" width="1541" xmlns="http://www.w3.org/2000/svg" xmlns:xlink="http://www.w3.org/1999/xlink"><clipPath id="a"><path d="m.316101.027344h1539.81v1412.29h-1539.81z"/></clipPath><clipPath id="b"><path d="m.316101 33.7266h1539.81v1344.89h-1539.81z"/></clipPath><g clip-path="url(#a)"><g clip-path="url(#b)" fill="#fff"><path d="m210.839 1145.22v-134.41h84.367v32.26h-49.069v102.15z"/><path d="m312.617 1148.06-11.238-32.41c4.432-1.27 8.073-2.69 11.08-4.27 3.008-1.58 5.54-3.8 7.44-6.49 1.899-2.68 3.482-6.32 4.59-10.91 1.108-4.58 1.899-10.28 2.216-17.39.475-7.12.633-15.81.633-26.09v-39.54h103.836v134.42h-35.298v-102.16h-35.139v5.54c0 13.76-.475 25.61-1.425 35.89s-2.374 18.98-4.59 26.25c-2.058 7.28-5.065 13.44-8.706 18.35-3.641 4.9-8.231 8.85-13.771 11.86-5.54 3-12.188 5.37-19.786 6.95z"/><path d="m446.686 1145.22 49.702-134.41h41.471l49.861 134.41h-39.889l-8.547-25.62h-45.428l-8.39 25.62zm54.926-55.03h29.758l-14.721-42.38-14.879 42.38z"/><path d="m646.127 1148.06c-11.238 0-21.526-1.26-30.549-3.79-9.18-2.53-17.411-6.49-24.693-11.55l15.038-27.51c4.59 3.95 10.13 6.96 16.462 9.17 6.331 2.21 12.979 3.32 19.627 3.32 4.907 0 9.181-.63 12.821-1.9 3.641-1.26 6.49-3 8.389-5.06 1.9-2.05 3.008-4.74 3.008-7.74 0-4.27-1.741-7.44-5.065-9.65s-8.389-3.16-15.354-3.16h-27.542v-26.73h24.851c3.957 0 7.44-.47 10.289-1.42s4.907-2.37 6.489-4.11c1.425-1.74 2.216-3.96 2.216-6.49s-.791-4.58-2.216-6.32c-1.424-1.74-3.64-3-6.806-3.8-3.007-.79-6.964-1.26-11.713-1.26-5.698 0-11.555.95-17.253 3-5.699 2.06-10.447 4.75-14.246 8.07l-15.829-25.78c6.332-5.37 14.088-9.64 23.268-12.65 9.181-3 18.836-4.58 29.125-4.58s19.469 1.42 27.067 4.27c7.598 2.84 13.454 6.95 17.412 12.17 4.115 5.38 6.173 11.7 6.173 18.98 0 3.79-.792 7.59-2.216 11.07-1.425 3.48-3.641 6.8-6.332 9.64-2.691 2.85-5.856 5.38-9.339 7.28 7.44 2.69 13.297 6.8 17.412 12.33 4.115 5.54 6.173 12.18 6.173 20.08 0 8.7-2.374 16.45-7.123 23.09-4.748 6.64-11.396 11.86-19.944 15.5-8.547 3.63-18.519 5.69-29.916 5.69z"/><path d="m789.377 1148.06c-10.447 0-20.103-1.74-28.808-5.37-8.706-3.48-16.462-8.54-22.952-14.87-6.49-6.32-11.555-13.75-15.037-22.29s-5.224-17.71-5.224-27.68c0-9.96 1.742-19.29 5.224-27.83s8.547-15.97 15.037-22.29c6.49-6.33 14.088-11.23 22.952-14.87 8.864-3.48 18.361-5.22 28.808-5.22s20.102 1.74 28.808 5.38 16.462 8.54 22.952 15.02c6.489 6.33 11.555 13.92 15.195 22.3 3.641 8.38 5.382 17.55 5.382 27.36 0 9.8-1.741 19.13-5.382 27.67-3.64 8.54-8.706 15.97-15.195 22.3-6.49 6.32-14.088 11.22-22.952 14.86-8.706 3.48-18.361 5.38-28.808 5.38zm0-33.2c5.065 0 9.814-.79 14.087-2.53 4.274-1.74 7.915-4.27 11.08-7.44 3.166-3.16 5.54-7.11 7.282-11.7 1.741-4.58 2.532-9.64 2.532-15.34 0-7.59-1.583-14.07-4.59-19.6-3.008-5.54-7.123-9.81-12.505-12.81-5.382-3.01-11.396-4.59-18.203-4.59-5.065 0-9.814.79-14.087 2.53-4.274 1.74-8.073 4.27-11.08 7.43-3.166 3.17-5.54 7.12-7.281 11.71-1.742 4.58-2.533 9.64-2.533 15.33 0 7.59 1.583 14.08 4.59 19.61 3.008 5.54 7.123 9.81 12.347 12.81 5.223 3.01 11.238 4.59 18.044 4.59z"/><path d="m883.874 1145.22v-134.41h54.134c13.929 0 25.168 2.84 33.399 8.54 8.23 5.69 12.504 14.23 12.504 25.61 0 3.96-.791 7.59-2.374 11.07-1.583 3.32-3.799 6.33-6.49 8.86s-5.856 4.74-9.339 6.48c7.123 2.53 12.98 6.8 17.254 12.81 4.273 6.01 6.489 12.97 6.489 21.03 0 8.07-2.057 15.34-6.173 21.19-4.115 6.01-9.972 10.6-17.411 13.76-7.598 3.32-16.462 4.9-26.909 4.9h-54.926zm35.298-80.17h14.087c3.324 0 6.332-.64 8.706-1.74 2.375-1.11 4.274-2.85 5.54-5.06 1.267-2.22 1.9-4.75 1.9-7.91 0-4.58-1.425-8.06-4.274-10.44-2.849-2.37-7.123-3.63-12.505-3.63h-13.612v28.78zm0 54.39h14.879c6.015 0 10.763-1.26 13.771-3.95 3.166-2.53 4.748-6.32 4.748-11.38s-1.424-8.54-4.273-11.23-7.123-4.11-12.663-4.11h-16.304v30.67z"/><path d="m239.647 1375.77v-117.81h-38.621v-16.6h95.13v16.6h-38.622v117.81h-18.045z"/><path d="m320.057 1375.77v-134.41h47.011c9.497 0 17.728 1.58 24.851 4.9 7.123 3.16 12.821 7.91 16.937 13.92 4.115 6.01 6.173 13.28 6.173 21.66s-1.9 15.97-5.698 21.82c-3.799 6.01-9.339 10.44-16.462 13.6s-15.829 4.59-26.117 4.59h-28.492v53.92h-18.045zm18.045-69.74h29.124c9.339 0 16.62-2.05 21.844-6 5.223-3.96 7.756-9.97 7.756-17.87 0-7.91-2.691-13.92-7.914-18.35-5.224-4.42-12.505-6.48-21.527-6.48h-29.283z"/><path d="m424.843 1375.77 53.026-134.41h18.678l54.608 134.41h-20.419l-13.296-33.68h-59.99l-12.821 33.68zm37.672-49.5h49.544l-25.326-62.61z"/><path d="m571.733 1375.77v-134.41h18.044v54.71h69.172v-54.71h18.044v134.41h-18.044v-63.25h-69.172v63.25z"/><path d="m774.34 1378.61c-13.93 0-26.118-2.84-36.565-8.69s-18.519-13.92-24.218-24.51c-5.698-10.6-8.547-22.77-8.547-37.01 0-10.12 1.741-19.6 5.065-28.14s8.231-15.97 14.404-22.3c6.173-6.32 13.613-11.07 22.002-14.55s17.728-5.21 27.859-5.21c10.13 0 18.677 1.26 26.117 3.79 7.439 2.53 13.771 6.01 19.152 10.6l-9.655 14.7c-4.432-3.95-9.497-6.8-15.196-8.7-5.698-1.89-12.029-2.84-19.152-2.84-7.915 0-15.037 1.26-21.369 3.63-6.49 2.38-11.871 6.01-16.462 10.6-4.59 4.59-7.914 10.12-10.447 16.6-2.374 6.49-3.64 13.76-3.64 21.82 0 11.07 2.216 20.56 6.49 28.47 4.273 7.9 10.446 13.91 18.361 18.03 7.914 4.11 17.411 6.16 28.175 6.16 6.964 0 13.771-1.1 20.102-3.16 6.49-2.06 12.505-5.53 18.203-10.28l8.389 15.34c-6.648 5.22-13.929 9.01-22.16 11.7-8.231 2.53-17.253 3.95-27.225 3.95z"/><path d="m847.468 1375.77v-134.41h105.419v134.41h-18.045v-117.81h-69.171v117.81h-18.045z"/><path d="m1051.18 1378.61c-10.13 0-19.31-1.73-28.01-5.37-8.55-3.48-15.99-8.54-22.32-14.87-6.334-6.32-11.241-13.75-14.881-22.29-3.641-8.54-5.224-17.71-5.224-27.68 0-9.96 1.741-19.29 5.224-27.83 3.482-8.53 8.389-15.97 14.881-22.29 6.33-6.33 13.77-11.23 22.32-14.87 8.54-3.48 17.88-5.21 28.01-5.21s19.16 1.73 27.7 5.37c8.55 3.64 15.99 8.54 22.48 15.02 6.33 6.33 11.4 13.92 14.88 22.3s5.38 17.55 5.38 27.36c0 9.8-1.74 19.13-5.38 27.67s-8.55 15.97-14.88 22.3c-6.33 6.32-13.93 11.22-22.48 14.86-8.54 3.48-17.73 5.38-27.7 5.38zm0-17.23c7.13 0 13.93-1.27 20.11-3.8 6.33-2.53 11.71-6.01 16.46-10.75s8.39-10.28 11.08-16.76 3.95-13.76 3.95-21.67c0-10.59-2.37-19.92-6.96-27.83-4.59-7.9-10.76-14.07-18.52-18.5-7.76-4.42-16.46-6.64-26.12-6.64-7.28 0-13.93 1.27-20.26 3.8-6.17 2.53-11.71 6.01-16.46 10.75-4.75 4.59-8.39 10.28-11.08 16.76s-3.957 13.76-3.957 21.82c0 10.6 2.217 19.93 6.807 27.83 4.59 7.91 10.76 14.08 18.52 18.51 7.75 4.42 16.62 6.64 26.12 6.64z"/><path d="m1149.32 1375.77v-134.41h47.01c9.5 0 17.73 1.58 24.85 4.9 7.13 3.16 12.82 7.91 16.94 13.92 4.11 6.01 6.17 13.28 6.17 21.66s-1.9 15.97-5.7 21.82c-3.79 6.01-9.33 10.44-16.46 13.6-7.12 3.16-15.83 4.59-26.12 4.59h-28.49v53.92h-18.04zm18.05-69.74h29.12c9.34 0 16.62-2.05 21.84-6 5.23-3.96 7.76-9.97 7.76-17.87 0-7.91-2.69-13.92-7.91-18.35-5.23-4.42-12.51-6.48-21.53-6.48h-29.28z"/><path d="m1295.74 1375.77v-117.81h-38.63v-16.6h95.13v16.6h-38.62v117.81h-18.04z"/><path d="m1270.88 605.207c-135.65 135.517-316.096 210.313-508.097 210.313-192.002 0-372.449-74.638-508.1-210.313l-44.795 44.751c147.681 147.535 343.956 228.813 552.895 228.813 208.938 0 405.217-81.278 552.897-228.813z"/><path d="m1339.74 583.699h-263.71v63.252h200.39v200.192h63.32z"/><path d="m264.022 395.844h-63.315v200.034h-200.390899v63.252h263.705899z"/><path d="m777.502 33.7227c-200.232 0-400.465 76.0603-552.895 228.3393l44.795 44.751c135.81-135.517 316.257-210.1547 508.1-210.1547 191.844 0 372.288 74.6377 508.098 210.3127l44.8-44.751c-152.43-152.437-352.665-228.4973-552.898-228.4973z"/><path d="m264.021 65.0312h-63.315v263.2858h263.706v-63.252h-200.391z"/><path d="m1540.13 252.891h-263.71v263.444h63.32v-200.192h200.39z"/><path d="m762.783 704.827c-137.867 0-250.092-112.114-250.092-249.845s112.225-249.845 250.092-249.845c137.868 0 250.097 112.114 250.097 249.845s-112.229 249.845-250.097 249.845zm0-436.597c-103.044 0-186.778 83.651-186.778 186.594 0 102.942 83.734 186.593 186.778 186.593 103.045 0 186.779-83.651 186.779-186.593 0-102.943-83.734-186.594-186.779-186.594z"/></g></g></svg>