<svg viewBox="0 0 1960.6073 1960.6075" xmlns="http://www.w3.org/2000/svg" xmlns:xlink="http://www.w3.org/1999/xlink"><clipPath id="a"><circle cx="980.3037" cy="980.3038" r="287.0139"/></clipPath><path d="m.0001 0h1960.6072v1960.6072h-1960.6072z"/><circle cx="980.3037" cy="980.3036" fill="none" r="1500"/><path d="m1317.2037 90.29c8.9277-1.1065 15.8506-.6319 24.8877 3.145 23.792 9.9438 26.7607 32.4155 17.1045 55.521-9.6582 23.1055-27.7344 36.78-51.5264 26.8359a44.7927 44.7927 0 0 1 -18.7822-13.8965l10.7578-9.3427a36.3874 36.3874 0 0 0 13.57 9.9707c13.04 5.45 24.3311-4.2071 30.8819-19.878 6.5488-15.6709 5.4873-30.4912-7.5528-35.9414a35.132 35.132 0 0 0 -18.2695-2.2607z" fill="#fff"/><path d="m1238.2613 134.52 21.7871-69.0488 15.253 4.8135-21.7881 69.0488 24.0019 7.5733-4.3281 13.7148-63.2559-19.959 6.6924-12.9687z" fill="#fff"/><path d="m1187.9 77.6816 6.5127-29.793 15.5019 3.3887-18.5312 84.7763-27.7334-6.0625c-16.1084-3.52-26.1807-15.4931-22.21-33.6591s18.1211-24.8448 34.2276-21.3243zm-8.9482 40.9345 5.8769-26.8857-11.9887-2.6211c-7.3877-1.6147-13.4385 2.2656-15.2911 10.7432s2.0264 14.5283 9.4151 16.1435z" fill="#fff"/><path d="m1087.3736 48.7153 27.295 3.5219 8.0839-18.082 16.5977 2.1416-39.874 82.3525-14.3858-1.8554-17.666-89.7774 16.5977 2.1416zm21.3223 16.8754-18.9346-2.4428 5.1924 32.4194.4922.0635z" fill="#fff"/><path d="m1011.5143 96.704 3.1308-72.3379 15.9785.6914-3.13 72.3379 25.1436 1.0884-.6211 14.3682-66.2676-2.8682 3.0987-14.2612z" fill="#fff"/><path d="m962.8375 23.7 3.8252 86.6992-50.2852 2.22 1.8425-14.4777 31.9551-1.41-.8972-20.3115-28.2379 1.2459-.6347-14.3671 28.24-1.2466-1.0283-23.2847-34.4307 1.52-.6349-14.3675z" fill="#fff"/><path d="m873.5748 102.749-9.4092-71.789 15.7344-2.0626 11.2783 86.0488-49.1709 6.4444.59-14.5821z" fill="#fff"/><path d="m770.6 105.9374.3643-.0781 25.5839-64.4228 12.9618-2.8155 18.4238 84.8-15.5065 3.369-12.2373-56.3321-.3632.0791-25.56 64.543-12.9619 2.8164-18.4225-84.8008 15.5059-3.3681z" fill="#fff"/><path d="m690.5143 103.0634 7.8164-36.9492 17.2158-5.5889-8.5781 39.0205c10.3877.2774 19.748 6.6231 23.7285 18.8867 5.2441 16.1543-3.21 29.4571-17.4776 34.0889l-26.2959 8.5371-26.7968-82.54 15.0918-4.9 10.1074 31.13zm9.8642 11.917-10.6123 3.4453 7.8106 24.0547 10.6123-3.4453c6.249-2.0293 9.125-8.8281 6.9423-15.5493s-8.5014-10.5347-14.7529-8.5058z" fill="#fff"/><path d="m609.401 161.9921a8.8027 8.8027 0 1 1 4.3877-11.65 8.8365 8.8365 0 0 1 -4.3877 11.65z" fill="#fff"/><path d="m497.5523 221.581.3184-.1934 3.124-69.2529 11.3311-6.8994 45.1328 74.13-13.5557 8.2519-29.98-49.2422-.3174.1934-3.0606 69.3584-11.331 6.8994-45.1319-74.1289 13.5547-8.2529z" fill="#fff"/><path d="m381.5123 240.6991c3.5332-8.2744 7.4238-14.02 15.2324-19.9326 20.56-15.5683 41.4795-6.8369 56.5977 13.1289 15.12 19.9663 17.8515 42.47-2.707 58.0381a44.8 44.8 0 0 1 -21.4571 9.249l-2.6679-13.998a36.3929 36.3929 0 0 0 15.4423-6.7168c11.2676-8.5332 8.5967-23.15-1.6572-36.6924s-23.6006-20.0753-34.8682-11.5429a35.1552 35.1552 0 0 0 -11.1416 14.6576z" fill="#fff"/><path d="m318.2486 296.8368c2.7842-8.5537 6.15-14.622 13.4034-21.2041 19.0947-17.33 40.705-10.49 57.5361 8.0547 16.8291 18.545 21.5469 40.7158 2.4531 58.0459a44.811 44.811 0 0 1 -20.5512 11.1153l-3.9-13.7051a36.3889 36.3889 0 0 0 14.7852-8.0606c10.4658-9.498 6.5088-23.82-4.9072-36.3974-11.4131-12.5781-25.2862-17.9019-35.751-8.4033a35.1376 35.1376 0 0 0 -9.7959 15.5859z" fill="#fff"/><path d="m351.943 378.6669-34.303 37.6758-64.167-58.4233 10.6827-11.7339 53.5343 48.7422 13.3545-14.667c-33.1855-30.2129-49.9873-53.56-36.8838-67.9517a22.6573 22.6573 0 0 1 7.293-5.4316l8.08 11.38a11.9157 11.9157 0 0 0 -3.2207 2.4331c-5.5918 6.1421 4.4707 20.5015 43.1553 55.7222z" fill="#fff"/><path d="m230.818 385.6376 69.2978 52.2344-30.2958 40.1919-9.99-10.6362 19.2519-25.54-16.2363-12.2383-17.0127 22.57-11.4844-8.6553 17.0137-22.5713-18.6113-14.0283-20.7442 27.52-11.4837-8.6555z" fill="#fff"/><path d="m162.9156 448.5722 6.9746-11.43 29.125 14.8672-4.8437 7.9365c5.7822 14.5659 24.7392 29.91 49.081 44.7627l6.1387 3.7451-27.7041 45.4014-61.8057-37.7119-6.1337 10.0537-26.542-19.1006 6.9736-11.43 15.5566 9.4932 28.7364-47.0947zm5.2324 54.0249 49.5284 30.2212 11.3662-18.6265-2.3281-1.42c-18.4151-11.2363-34.4639-26.1118-41.5831-38.0083z" fill="#fff"/><path d="m113.9469 571.8525c11.0185-23.3145 33.3369-24.6968 55.9785-13.9971s35.7441 28.8213 24.7266 52.1357-33.336 24.6963-55.9795 13.9971c-22.6416-10.7002-35.7425-28.8213-24.7256-52.1357zm67.7021 31.9941c6.0391-12.7783-3.3594-23.9385-18.7148-31.1953s-29.9463-7.4321-35.9844 5.3457 3.3594 23.9385 18.7158 31.1953 29.9453 7.4321 35.9834-5.3457z" fill="#fff"/><path d="m87.4176 635.8837 81.7939 29.0108-9.0752 25.59c-5.18 14.6064-14.4511 23.6836-28.707 18.627-10.75-3.8116-14.43-12.3526-13.7637-20.5352l-.4677-.166c-6.1006 9.4121-14.9659 13.6348-26.3 9.6152-16.71-5.9267-18.2353-20.5429-12.5566-36.5517zm26.8105 37.5288 3.5244-9.9321-22.0849-7.833-3.5225 9.9326c-3.0674 8.6475-.5674 15.3223 5.8594 17.6016 7.4785 2.6518 13.1582-1.1216 16.2236-9.7691zm32.6426 11.4458 3.4824-9.8154-19.748-7.0039-3.48 9.8154c-2.5283 7.1284.0772 12.3936 6.0361 14.5069s11.1822-.375 13.7095-7.503z" fill="#fff"/><path d="m67.8492 763.6034 6.7578-26.68-16.9883-10.1842 4.1084-16.2246 77.0059 49.4254-3.56 14.0605-91.2486 6.8195 4.1074-16.2246zm19.3028-19.1543-4.6875 18.5069 32.8085-1.2832.1221-.4805z" fill="#fff"/><path d="m87.8707 831.4179-4.7529 32.1321 34.3408 5.0791-2.3223 15.6983-85.85-12.6992 2.3223-15.6973 37.2832 5.5146 4.7529-32.1323-37.2842-5.5151 2.3227-15.6981 85.8506 12.6983-2.3223 15.6987z" fill="#fff"/><path d="m81.2369 962.9941.0156-.3711-56.0009-40.8614.51-13.2568 86.7227 3.3316-.6094 15.8579-57.6084-2.2129-.0146.3711 56.124 40.8672-.5088 13.2558-86.7236-3.331.6084-15.8579z" fill="#fff"/><path d="m58.4469 1039.7875-33.8213-16.811-1.1065-18.0674 35.6377 18.0664c2.8662-9.9892 11.3526-17.4643 24.2227-18.2519 16.9551-1.0371 27.7207 10.4765 28.6367 25.4506l1.6895 27.5972-86.627 5.3018-.97-15.8408 32.6709-1.9991zm14.0058-6.5708.6827 11.1377 25.2451-1.5449-.6817-11.1377c-.4013-6.5586-6.2656-11.0439-13.3193-10.6123s-12.3281 5.5981-11.9268 12.1572z" fill="#fff"/><path d="m95.0807 1133.0654a8.8016 8.8016 0 1 1 -10.1641-7.1866 8.8353 8.8353 0 0 1 10.1641 7.1866z" fill="#fff"/><path d="m38.36 1233.0165-3.837-12.8281 30.5293-11.72 2.6641 8.9092c14.6973 5.4394 38.7842 1.6005 66.1045-6.57l6.89-2.06 15.24 50.958-69.37 20.7471 3.374 11.2842-31.95 6.9677-3.8359-12.8291 17.4609-5.2217-15.8076-52.8583zm43.6738 32.2315 55.5908-16.626-6.2519-20.9063-2.6133.7823c-20.669 6.1806-42.4619 8.1689-56.0684 5.51z" fill="#fff"/><path d="m97.3766 1351.9335c-9.9952-23.7724 3.8828-41.3076 26.97-51.0146s45.3262-7.3545 55.32 16.4189-3.8828 41.3086-26.9707 51.0137-45.3252 7.3555-55.3193-16.418zm69.0322-29.0224c-5.4776-13.0293-20.0615-13.4883-35.7207-6.9043-15.6563 6.582-25.5322 17.3232-20.0537 30.3525s20.0615 13.4883 35.7187 6.9053c15.6592-6.5821 25.5332-17.3233 20.0557-30.3535z" fill="#fff"/><path d="m159.6559 1462.4081c-7.6534-4.7285-12.7539-9.4345-17.4346-18.039-12.3223-22.6534-.5654-42.0332 21.4346-54s44.6572-11.3086 56.98 11.3447a44.81 44.81 0 0 1 5.94 22.5957l-14.2383.5479a36.3788 36.3788 0 0 0 -4.336-16.2715c-6.7529-12.4151-21.6054-11.958-36.5263-3.8418s-23.375 20.3369-16.62 32.7529a35.1294 35.1294 0 0 0 12.8281 13.2041z" fill="#fff"/><path d="m248.93 1477.3769-60.2178 40.2021-8.88-13.3008 60.2168-40.2021-13.9736-20.9316 11.9609-7.9854 36.8281 55.1641-13.3369 5.9228z" fill="#fff"/><path d="m313.6568 1539.3281 10.5625 13.1416-69.2236 22.7138c-10.9707 3.5674-21.9863 4.3086-29.4414-4.9678a22.24 22.24 0 0 1 -5.3164-13.541l14.3037-1.7939c.083 2.4775.4355 4.1035 1.833 5.8428 1.5527 1.9326 5.1758 2.68 11.4649.8066l4.4687-1.3652-3.1064-3.8653 30.67-59.0068 11.3388 14.1084-22.9228 42.918.2334.29z" fill="#fff"/><path d="m273.2652 1625.3769 62.0869-60.6309 44.6065 45.6768-62.085 60.6318-11.0879-11.3535 51.7969-50.583-22.4326-22.9727-51.7979 50.584z" fill="#fff"/><path d="m390.357 1666.0292 25.002 20.7364 22.16-26.72 12.2159 10.13-55.4024 66.8008-12.2148-10.1309 24.06-29.01-25.0013-20.7355-24.0606 29.01-12.2148-10.13 55.4013-66.8008 12.2149 10.1309z" fill="#fff"/><path d="m484.9732 1695.5927-18.4472 28.2273 7.0566 4.6123c15.0469 9.834 20.2988 23.78 10.6 38.6211s-24.4765 15.6963-39.6269 5.795l-20.3408-13.293 47.4751-72.6434zm-26.3144 40.2656-13.294 20.34 6.4356 4.206c8.4043 5.4932 14.8867 3.5078 18.6836-2.3037 4.001-6.123 3.1181-12.4756-5.4951-18.1045zm79.4482-5.54-47.4756 72.6435-13.2841-8.6816 47.4765-72.6436z" fill="#fff"/><path d="m595.9137 1793.2822-.334-.167-60.291 34.205-11.8692-5.9209 38.7412-77.6533 14.2 7.084-25.7363 51.584.333.166 60.3467-34.3164 11.8691 5.9219-38.7412 77.6533-14.2-7.084zm23.64-38.2207c-8.6455 5.1084-16.4629 4.9492-25.2256.5761-8.7646-4.372-13.5927-10.5215-14.7109-20.501l12.0293-1.8955c.0059 6.6534 3.2812 10.92 7.3848 12.9678 4.1054 2.0479 9.6494 2.042 14.8027-1.8984z" fill="#fff"/><path d="m658.5426 1901.0449-12.7637-4.0489 7.4941-31.83 8.8643 2.8116c12.7666-9.0879 23.1484-31.1573 31.7695-58.3389l2.1729-6.8535 50.6982 16.0791-21.8886 69.0157 11.2275 3.5615-12.2217 30.3311-12.7637-4.0488 5.5088-17.3711-52.5879-16.68zm51.22-17.962 17.542-55.3076-20.8-6.5967-.8242 2.6c-6.5215 20.5625-17.1436 39.6963-26.9981 49.4463z" fill="#fff"/><path d="m822.6773 1865.7616-.3662-.0722-49.1552 48.8789-13.01-2.5859 16.9209-85.1192 15.5654 3.0938-11.24 56.5439.3633.0723 49.18-49.001 13.0107 2.5859-16.9209 85.1192-15.5645-3.0938z" fill="#fff"/><path d="m886.7076 1894.0185-10.7353-1.042 1.2929-13.3262 10.6123 1.0293c8.1446.79 13.7579-3.1494 14.3926-9.6894.6582-6.7862-4.2412-11.4971-12.2617-12.2745a40.7739 40.7739 0 0 0 -18.0283 2.2354l-5.1836-13.332a53.088 53.088 0 0 1 25.2178-3.1582c15.4248 1.497 28.24 9.3418 26.7793 24.3965-1.1016 11.3525-8.5459 17.48-16.6475 18.8115l-.0361.37c10.6318 3.3984 16.8955 10.7324 15.7334 22.7021-1.712 17.6446-16.9268 24.2647-34.6973 22.5411a49.554 49.554 0 0 1 -25.6865-9.9659l8.625-11.8681a37.9026 37.9026 0 0 0 18.4511 7.5195c9.2549.8984 16.5088-3.2559 17.251-10.9062.791-8.1435-5.084-13.0732-15.0791-14.0429z" fill="#fff"/><path d="m986.8941 1917.9726-27.5224-.1777-5.8262 18.9306-16.7373-.1084 29.5732-86.5937 14.504.0937 28.4492 86.97-16.7373-.1084zm-23.2177-14.1592 19.0927.1221-9.0937-31.5489-.4961-.0029z" fill="#fff"/><path d="m1083.7457 1873.4726-.37.0361-33.0283 60.95-13.2061 1.2627-8.2646-86.3945 15.7978-1.5108 5.49 57.3907.37-.0362 33.0185-61.0732 13.2051-1.2637 8.2627 86.3945-15.7969 1.5118zm-.1875-44.9444c-4.6279 8.9122-11.3457 12.918-21.0947 13.85-9.75.9336-17.1045-1.7266-23.3369-9.6l9.2-7.9794c3.5293 5.6406 8.5664 7.5253 13.1328 7.0888s9.2685-3.3779 11.5517-9.45z" fill="#fff"/><path d="m1146.5514 1869.4833 31.8242-6.5107-6.958-34.0108 15.5478-3.1806 17.3955 85.0254-15.5478 3.1806-7.5547-36.9248-31.8232 6.5108 7.5546 36.9258-15.5478 3.1806-17.3955-85.0254 15.5469-3.1806z" fill="#fff"/><path d="m1264.0953 1832.747a8.803 8.803 0 1 1 -5.583 11.1279 8.8379 8.8379 0 0 1 5.583-11.1279z" fill="#fff"/><path d="m1387.734 1825.0116-24.9639 11.5928 2.8174 19.6055-15.1816 7.05-10.2383-90.9326 13.1572-6.1094 62.8633 66.4951-15.1807 7.0488zm-27.041-2.89 17.3174-8.041-21.6963-24.6465-.4493.209z" fill="#fff"/><path d="m1440.1344 1819.6728-43.8535-74.8887 23.43-13.72c13.3721-7.8311 26.3106-8.7988 33.9541 4.2539 5.7637 9.8418 3.0743 18.7441-2.708 24.5723l.251.4277c10.73-3.2666 20.23-.7842 26.3067 9.5937 8.9589 15.2989.706 27.458-13.95 36.0411zm-13.9053-75.76-8.9873 5.2627 10.5879 18.08 8.9863-5.2627c6.5254-3.8213 7.9268-9.5264 4.7315-14.9824s-8.793-6.9187-15.3184-3.0974zm17.585 29.7861-9.0938 5.3243 11.8408 20.2207 9.0938-5.3252c7.917-4.6358 10.3056-11.3516 6.8594-17.2354-4.0088-6.8465-10.7843-7.6199-18.7002-2.9842z" fill="#fff"/><path d="m1498.6041 1696.72 41.9639 59.0009-13.0313 9.27-41.9658-59.001-20.5078 14.5869-8.336-11.72 54.0508-38.4424 6.3145 13.1562z" fill="#fff"/><path d="m1604.2008 1707.01c-19.5518 16.8135-40.501 8.9941-56.8291-9.9922s-20.9229-40.8711-1.3721-57.6846 40.501-8.9951 56.8291 9.9922 20.9229 40.8708 1.3721 57.6846zm-48.8242-56.7734c-10.7159 9.2158-6.6719 23.2334 4.4023 36.1113s24.3291 18.9736 35.0459 9.7578c10.7148-9.2148 6.6709-23.2324-4.4033-36.1094s-24.3291-18.9749-35.0449-9.76z" fill="#fff"/><path d="m1657.5553 1573.1962-.253.2744 23.1934 41.6035-11.0059 11.9415-43.4394-19.6329-.251.2735 38.1318 42.2217-10.7539 11.6689-58.3535-64.7324 12.0137-13.0371 53.626 24.1308.2519-.2734-28.4218-51.48 12.0126-13.0371 69.2764 52.8828-10.7539 11.669z" fill="#fff"/><path d="m1743.3551 1525.1152-16.3223 22.16 11.8906 15.8418-9.9257 13.4756-52.6719-74.8271 8.6035-11.6788 87.08 28.11-9.9258 13.4766zm-25.1026 10.457 11.3233-15.3721-30.87-11.1894-.293.4z" fill="#fff"/><path d="m1738.19 1435.5849 61.6983 37.8769-8.3672 13.6289-61.6982-37.8779-13.1661 21.4473-12.2558-7.5235 34.6992-56.5224 10.958 9.6367z" fill="#fff"/><path d="m1797.4557 1355.6171-.1621.335 34.874 59.9072-5.7891 11.9356-78.08-37.876 6.9258-14.2774 51.8672 25.16.1621-.335-34.9863-59.9609 5.789-11.9356 78.0821 37.875-6.9268 14.2784z" fill="#fff"/><path d="m1840.9869 1300.8476-3.7269 10.1224-12.5665-4.626 3.6846-10.0059c2.8272-7.68.4375-14.1084-5.7285-16.3789-6.3994-2.3555-12.1973 1.1914-14.9824 8.7539a40.7938 40.7938 0 0 0 -2.4014 18.0088l-14.2119 1.6377a53.0915 53.0915 0 0 1 3.332-25.1973c5.3545-14.5439 16.1905-24.956 30.3848-19.73 10.7031 3.9415 14.7471 12.6963 13.9824 20.8711l.35.128c5.9815-9.4248 14.6621-13.627 25.9483-9.4717 16.6377 6.126 19.1894 22.5225 13.02 39.2773a49.5534 49.5534 0 0 1 -16.1485 22.3291l-9.2968-11.3506a37.9158 37.9158 0 0 0 11.9492-15.9482c3.2129-8.7256 1.03-16.7959-6.1826-19.4512-7.6792-2.8279-13.9361 1.6067-17.4058 11.0315z" fill="#fff"/><path d="m1889.5309 1209.995-7.1348 26.5811 16.8389 10.4248-4.3389 16.1641-76.29-50.5176 3.76-14.0088 91.335-5.5166-4.34 16.1641zm-19.5723 18.877 4.9492-18.4385-32.8223.8155-.1279.4785z" fill="#fff"/><path d="m1919.4254 1165.7743-85.69-13.7382 2.5127-15.67 71.4892 11.462 5.1426-32.0723-71.49-11.4619 2.5117-15.669 71.49 11.4619 1.8652-11.6289 31.8018 7.6094-2.1191 13.2217-17.9952-2.8858z" fill="#fff"/><path d="m1879.1061 1006.6386-.0186.3711 55.5889 41.417-.6426 13.2505-86.6817-4.1958.7666-15.8511 57.5821 2.7876.0185-.3711-55.7109-41.4238.64-13.249 86.6827 4.1962-.7676 15.85z" fill="#fff"/><path d="m1902.6549 930.0527 33.6523 17.1435.9278 18.0767-35.4561-18.4165c-2.9648 9.96-11.5244 17.3506-24.4 18.0117-16.9629.8691-27.6142-10.75-28.3838-25.7315l-1.416-27.61 86.6709-4.4466.8135 15.8477-32.6885 1.6772zm-14.0713 6.4326-.57-11.1436-25.2588 1.2959.5713 11.1436c.3369 6.562 6.1562 11.1054 13.2129 10.7431 7.0583-.3623 12.3815-5.477 12.0446-12.039z" fill="#fff"/><path d="m1866.9322 836.4316a8.8025 8.8025 0 1 1 10.0938 7.2861 8.8363 8.8363 0 0 1 -10.0938-7.2861z" fill="#fff"/><path d="m1900.7184 715.4013c7.1074 24.7871-8.7481 40.5542-32.8213 47.457s-45.8731 1.9336-52.9815-22.8535 8.7481-40.5537 32.8213-47.456c24.0713-6.9034 45.8731-1.9346 52.9815 22.8525zm-71.9786 20.64c3.8965 13.586 18.3213 15.7686 34.6475 11.087s27.4023-14.1773 23.5068-27.7627-18.3212-15.7676-34.6464-11.086c-16.3272 4.6813-27.4034 14.1764-23.5077 27.7613z" fill="#fff"/><path d="m1805.2643 661.957 18.4375-7.32-3.98-10.0249c-6.6338-16.709-3.12-31.0429 13.3574-37.584s28.8213 1.3633 35.5 18.1875l9.8369 24.7745-80.6631 32.0234-18.7558-47.2456 14.2822-3.0024zm31.8046-12.626 22.1241-8.7832-3.7051-9.334c-3.7051-9.334-10.0313-11.4912-16.3682-8.9751-6.7988 2.6987-9.5068 8.3091-5.71 17.8735z" fill="#fff"/><path d="m1748.39 571.6132-7.5986-15.0517 72.4375-7.8174c11.4727-1.208 22.4023.3584 27.7656 10.9829a22.2451 22.2451 0 0 1 2.3838 14.3515l-14.3652-1.22c.4336-2.4414.4267-4.1045-.5781-6.0967-1.1172-2.2138-4.5059-3.6982-11.0459-3.1738l-4.6563.4063 2.2354 4.4267-42.2764 51.3374-8.1551-16.1584 31.3506-37.2129-.168-.332z" fill="#fff"/><path d="m1784.4869 462.14-29.2978 18.3838a51.395 51.395 0 0 1 10.416 11.4677c9.7519 15.5411 7.7353 27.49-7.4912 37.045l-24.4688 15.3535-8.4336-13.4414 24.4668-15.3545c7.3526-4.6123 7.1045-10.6035 3.086-17.01a40.1847 40.1847 0 0 0 -9.7569-10.417l-32.0293 20.0977-8.4345-13.4414 73.51-46.126z" fill="#fff"/><path d="m1755.5553 419.4618-68.9756 52.669-30.5488-40.0059 12.9355-6.7568 19.4121 25.4219 16.16-12.3394-17.1543-22.4663 11.43-8.7285 17.1552 22.4668 18.5254-14.1455-20.9189-27.3936 11.4306-8.7275z" fill="#fff"/><path d="m1654.608 377.3837-22.0986-23.8056-25.44 23.6171-10.7959-11.63 63.6016-59.042 10.7959 11.63-27.6221 25.6412 22.1 23.8051 27.62-25.6416 10.7959 11.63-63.6013 59.0421-10.7969-11.63z" fill="#fff"/><path d="m1556.1773 289.8935.2793.2441 66.9307-18.0644 10.0147 8.7-56.9131 65.522-11.9805-10.4073 37.8057-43.5254-.2813-.2441-67.01 18.1582-10.0156-8.7 56.9141-65.5215 11.9805 10.4067z" fill="#fff"/><path d="m1553.152 214.07-50.2276 70.7657-41.0439-29.1319 10.3457-10.292 26.083 18.5127 11.7666-16.58-23.05-16.3593 8.3232-11.7271 23.05 16.36 13.49-19.0059-28.1036-19.9482 8.3233-11.7266z" fill="#fff"/><path d="m1417.0035 195.3491a8.8029 8.8029 0 1 1 11.9746-3.4029 8.8376 8.8376 0 0 1 -11.9746 3.4029z" fill="#fff"/><circle cx="980.3037" cy="980.3036" fill="none" r="1500"/><path d="m356.3785 453.0019 7.6475-9.6436 24.9033 16.835-5.3106 6.6973c3.6387 13.9384 19.212 30.0683 39.752 46.3535l5.18 4.1074-30.376 38.3125-52.1533-41.3516-6.7266 8.4834-22.0713-20.4072 7.6465-9.6455 13.128 10.4092 31.5084-39.7423zm-1.2939 49.8789 41.7954 33.1377 12.46-15.7178-1.9648-1.5566c-15.5381-12.3213-28.5108-27.6973-33.67-39.35z" fill="#ffd400"/><path d="m333.5758 606.1327.1777-.2929-26.626-57.8985 6.3516-10.41 68.1074 41.5508-7.5976 12.4531-45.2432-27.6006-.1777.292 26.7236 57.958-6.3516 10.41-68.1074-41.55 7.5977-12.4542z" fill="#ffd400"/><path d="m289.0855 652.995 4.2012-8.9814 11.1494 5.2148-4.1523 8.879c-3.1865 6.8134-1.4981 12.8876 3.9736 15.4472 5.6778 2.6553 11.2647-.1426 14.4033-6.8525a37.5024 37.5024 0 0 0 3.6006-16.3086l13.1446-.3945a48.8087 48.8087 0 0 1 -5.0108 22.82c-6.0361 12.9052-16.7705 21.6-29.3652 15.708-9.499-4.4424-12.5215-12.7764-11.1865-20.2041l-.31-.1446c-6.21 8.168-14.4893 11.3409-24.5039 6.6573-14.7637-6.9043-15.8242-22.1211-8.8711-36.9893a45.5516 45.5516 0 0 1 16.5277-19.1963l7.6328 11.1192a34.8655 34.8655 0 0 0 -12.1845 13.68c-3.6211 7.7432-2.25 15.3028 4.15 18.2969 6.8138 3.1864 12.89-.3878 16.8011-8.7511z" fill="#ffd400"/><path d="m237.816 733.1425 8.37-23.8769-14.7216-10.7168 5.09-14.52 66.4656 51.559-4.41 12.584-84.1114-1.2227 5.09-14.5205zm19.2422-15.9609-5.8057 16.5644 30.1465 1.51.15-.4307z" fill="#ffd400"/><path d="m248.1822 831.02.0762-.332-43.6709-46.4092 2.7061-11.8906 77.789 17.707-3.2383 14.2248-51.6728-11.7627-.0762.3331 43.7813 46.4335-2.7066 11.8909-77.7881-17.7061 3.2383-14.2246zm39.2813 12.8c-6.4434-6.61-8.002-13.6259-6.003-22.4062s6.44-14.4307 15.1094-17.5986l4.3106 10.331c-5.9414 1.4522-9.0391 5.3067-9.9746 9.418s.2744 9.0625 4.916 12.8076z" fill="#ffd400"/><path d="m233.8326 887.3456-3.165 29.6934 31.7324 3.381-1.5459 14.5068-79.332-8.4541 1.5468-14.5069 34.4522 3.6719 3.165-29.6924-34.4531-3.6718 1.5459-14.5069 79.332 8.4551-1.5459 14.5068z" fill="#ffd400"/><path d="m247.275 1011.6074-66.498 2.8652-.628-14.5752 79.7071-3.4346 1.9619 45.5459-13.3067-1.708z" fill="#ffd400"/><path d="m187.0318 1095.1366c-3.3623-23.4677 13.0577-35.8378 35.8477-39.1025s42.0225 3.9981 45.3848 27.4649-13.0577 35.8359-35.8477 39.1005-42.0234-3.9961-45.3848-27.4629zm68.1455-9.7626c-1.8437-12.8624-14.707-16.6612-30.164-14.4463s-26.7363 9.4716-24.8946 22.333c1.8438 12.8633 14.7071 16.6611 30.1631 14.4463s26.7373-9.4717 24.8955-22.333z" fill="#ffd400"/><path d="m217.6441 1208.4091c-5.7714-5.9238-9.27-11.2568-11.5263-19.9726-5.94-22.9493 8.8642-37.6133 31.1523-43.3829s42.3477-.1308 48.2881 22.8184a41.18 41.18 0 0 1 .2617 21.4766l-12.8213-2.6856a33.4368 33.4368 0 0 0 -.2392-15.4775c-3.2559-12.5781-16.6035-15.4805-31.72-11.5674s-25.38 12.9268-22.123 25.5049a32.2944 32.2944 0 0 0 8.4971 14.6347z" fill="#ffd400"/><path d="m310.2115 1246.4072 5.3633 14.5429-66.9775-.4463c-10.6045-.0976-20.4219-2.6718-24.208-12.9375a20.4459 20.4459 0 0 1 -.6739-13.3574l12.9922 2.6192a8.03 8.03 0 0 0 -.1113 5.6289c.7891 2.1386 3.7275 3.85 9.7558 4.0556l4.2959.1162-1.5781-4.2773 43.9863-42.4609 5.7579 15.6113-32.53 30.7041.1182.3213z" fill="#ffd400"/><path d="m233.8043 1314.204-5.38-11.0722 25.9649-15.1514 3.7363 7.6885c14.1406 2.76 35.4258-4.2891 59.0039-15.7471l5.9473-2.8887 21.37 43.9785-59.8682 29.0938 4.7315 9.7383-27.9581 11.0508-5.38-11.0713 15.07-7.3223-22.169-45.62zm44.3975 22.7784 47.9775-23.3135-8.7676-18.043-2.2558 1.0957c-17.8379 8.669-37.3159 13.6984-50.0559 13.2984z" fill="#ffd400"/><path d="m326.3014 1411.5175-13.5614-21.3613-17.5322 4.92-8.2461-12.99 81.65-20.2432 7.1475 11.2588-53.0635 65.2754-8.2461-12.99zm-.6114-24.9932 9.4073 14.8194 19.8593-22.7324-.2431-.3848z" fill="#ffd400"/><path d="m368.983 1453.0907-22.0039 17.3741-9.04-11.4492 62.6132-49.4375 16.1729 20.4834c9.3935 11.8964 9.5684 26.2792-3.8486 36.873s-27.3672 7.0879-36.7608-4.8086zm30.2334-23.871-19.8574 15.6787 6.9922 8.8564c4.3086 5.4561 10.8711 6.2276 17.1318 1.2832s7.0332-11.5058 2.7256-16.9629z" fill="#ffd400"/><path d="m428.566 1554.82c-7.9365-2.3222-13.6045-5.248-19.8535-11.73-16.45-17.0684-10.7617-37.1143 5.8135-53.0918 16.5761-15.9756 36.8174-20.9219 53.2676-3.8545a41.1776 41.1776 0 0 1 10.7812 18.5771l-12.4853 3.961a33.4482 33.4482 0 0 0 -7.8135-13.3633c-9.0166-9.3545-22.0684-5.3223-33.31 5.5117-11.2422 10.8359-15.7519 23.73-6.7353 33.084a32.3111 32.3111 0 0 0 14.5927 8.5713z" fill="#ffd400"/><path d="m511.652 1546.03-43.0938 50.7305-11.2061-9.5186 43.0938-50.7314-17.6338-14.98 8.56-10.0762 46.4736 39.4775-10.2969 8.6016z" fill="#ffd400"/><path d="m506.6383 1627.039 45.2549-65.7031 20.5556 14.1582c11.7334 8.081 17.5821 18.4765 9.6944 29.9277-5.9473 8.6348-14.4073 9.8662-21.5127 7.3242l-.2588.375c6.9023 7.6612 8.5371 16.5371 2.2676 25.6416-9.2452 13.4219-22.586 11.291-35.4454 2.4336zm39.7109-14.8565-7.9775-5.496-12.22 17.74 7.9785 5.4941c6.9453 4.7852 13.4677 4.1563 17.0234-1.0058 4.138-6.0057 2.1419-11.9491-4.8044-16.7323zm17.9444-26.2529-7.8848-5.43-10.9258 15.8614 7.8838 5.4306c5.7256 3.9444 11.0215 2.8858 14.3184-1.9013s2.333-10.0163-3.3916-13.9603z" fill="#ffd400"/><path d="m616.1344 1674.7089-22.2032-12.1338-12.9638 12.7862-13.501-7.3789 61.6641-57.2188 11.7011 6.3945-14.8574 82.8008-13.5019-7.38zm-12.626-21.5781 15.4023 8.417 6.3819-29.502-.4-.2187z" fill="#ffd400"/><path d="m706.2906 1679.5722a8.0928 8.0928 0 1 1 -10.4883 4.581 8.1237 8.1237 0 0 1 10.4883-4.581z" fill="#ffd400"/><path d="m760.3014 1768.87-11.9571-2.9248 4.9082-29.6582 8.3037 2.03c11.1485-9.124 19.3086-30.0068 25.5362-55.4707l1.57-6.4219 47.4951 11.6172-15.8144 64.6553 10.5175 2.5723-9.3359 28.5761-11.957-2.9248 3.98-16.2744-49.2656-12.0508zm45.8711-19.6386 12.6728-51.8125-19.4844-4.7657-.5957 2.4346c-4.7119 19.2647-13.2715 37.47-21.71 47.0205z" fill="#ffd400"/><path d="m908.9635 1725.8173-.3389-.041-41.62 48.2686-12.1094-1.4542 9.5205-79.2216 14.4854 1.7412-6.3233 52.625.3389.041 41.6338-48.3818 12.1094 1.456-9.52 79.22-14.4854-1.7412z" fill="#ffd400"/><path d="m970.0123 1746.8827-9.915-.1035.1269-12.3086 9.8018.1016c7.5215.0791 12.3506-3.9756 12.4131-10.0156.0654-6.2686-4.795-10.1944-12.2032-10.2715a37.5093 37.5093 0 0 0 -16.3359 3.4795l-5.8037-11.8a48.7928 48.7928 0 0 1 22.8467-4.8936c14.2461.1485 26.6054 6.3174 26.4619 20.2207-.1094 10.4854-6.4424 16.6895-13.7569 18.5508l-.0029.3418c10.0069 2.2686 16.3252 8.49 16.211 19.5449-.169 16.2969-13.58 23.5674-29.9913 23.3975a45.5445 45.5445 0 0 1 -24.3193-7.0918l6.959-11.5537a34.8416 34.8416 0 0 0 17.4971 5.4248c8.5468.0888 14.8613-4.29 14.9355-11.3574.0772-7.5213-5.6934-11.5702-14.9248-11.6659z" fill="#ffd400"/><path d="m1064.1334 1760.3613-25.2012 2.2705-3.6572 17.8388-15.3252 1.3809 19.4043-81.8594 13.2822-1.1953 33.7227 77.0723-15.3252 1.3808zm-22.4971-10.9053 17.4824-1.5752-11.1123-28.0674-.4541.041z" fill="#ffd400"/><path d="m1148.95 1710.32-.335.0694-24.082 59.0029-11.9424 2.4766-16.1982-78.1211 14.2851-2.9619 10.7608 51.8955.3349-.07 24.06-59.1153 11.94-2.4746 16.1993 78.12-14.2852 2.9619zm-4.6709-41.0517c-3.3369 8.6074-9.0742 12.9385-17.89 14.7676-8.8174 1.8281-15.8038.1338-22.2872-6.4366l7.6084-8.2129c3.7891 4.8018 8.5821 6.02 12.711 5.1631s8.1308-4.0136 9.6094-9.791z" fill="#ffd400"/><path d="m1206.21 1699.8876 28.3047-9.5185-10.1719-30.2491 13.8281-4.65 25.43 75.625-13.8281 4.6494-11.044-32.8418-28.3047 9.5176 11.043 32.8427-13.8281 4.6494-25.43-75.624 13.8291-4.6494z" fill="#ffd400"/><path d="m1332.152 1701.455-37.6133-70.3564 51.7617-27.6729 37.6133 70.3565-12.8653 6.8779-31.38-58.6973-26.0323 13.917 31.3809 58.6973z" fill="#ffd400"/><path d="m1409.0943 1624.495 15.8135 23.1553-12.0488 8.2266-44.9951-65.8858 21.5547-14.7207c12.5185-8.5488 26.8808-7.73 36.5224 6.39s5.1787 27.7949-7.34 36.3428zm-21.7256-31.8134 14.27 20.8945 9.3183-6.3633c5.7413-3.9219 6.9649-10.416 2.4659-17.0039-4.5-6.59-10.9942-7.8125-16.7354-3.8916z" fill="#ffd400"/><path d="m1501.6559 1591.0165c-18.0362 15.3877-37.2686 8.1231-52.212-9.3906-14.9433-17.5166-19.0888-37.6533-1.0527-53.04 18.0352-15.3887 37.2686-8.1241 52.2119 9.3906s19.0879 37.6535 1.0528 53.04zm-44.6836-52.374c-9.8848 8.4346-6.2178 21.3369 3.917 33.2178 10.1357 11.8789 22.3 17.5322 32.1855 9.0986s6.2178-21.3369-3.918-33.2178c-10.1347-11.8779-22.2998-17.5322-32.1845-9.0986z" fill="#ffd400"/><path d="m1549.0641 1546.4159-58.668-54.0722 9.8877-10.7266 48.9453 45.11 20.2393-21.958-48.9463-45.1123 9.8877-10.7276 48.9463 45.1123 7.3388-7.9619 20.4971 21.9922-8.3428 9.0508-12.32-11.3545z" fill="#ffd400"/><path d="m1612.7311 1473.8525-64.2071-47.3535 27.4649-37.24 9.2871 9.6817-17.4531 23.664 15.0429 11.0957 15.4238-20.914 10.64 7.8466-15.4238 20.9141 17.2441 12.7168 18.8066-25.499 10.64 7.8476z" fill="#ffd400"/><path d="m1680.1354 1362.5458c-.1387 8.27-1.46 14.5117-6.0577 22.253-12.1064 20.3818-32.9433 20.2011-52.7382 8.4443s-29.9219-29.9688-17.8155-50.3506a41.1821 41.1821 0 0 1 15.0606-15.3135l7.124 10.9932a33.4331 33.4331 0 0 0 -10.8174 11.0723c-6.6357 11.1709.7061 22.69 14.1318 30.663 13.4249 7.9747 27.0518 8.91 33.6875-2.26a32.3108 32.3108 0 0 0 4.4034-16.3408z" fill="#ffd400"/><path d="m1714.2242 1291.8935c.6807 8.2422-.0146 14.584-3.8232 22.7422-10.0274 21.48-30.7793 23.3662-51.6406 13.6279s-32.7442-26.8564-22.7168-48.3369a41.1965 41.1965 0 0 1 13.4687-16.73l8.1787 10.2334a33.4433 33.4433 0 0 0 -9.668 12.0889c-5.4951 11.7734 2.9522 22.5088 17.1006 29.1123s27.8018 6.1855 33.2979-5.5869a32.3249 32.3249 0 0 0 2.7627-16.6983z" fill="#ffd400"/><path d="m1739.5865 1241.1591c-7.6592 22.4365-27.9062 26.0029-49.6953 18.5645s-35.6289-22.6416-27.97-45.0791 27.9072-26.001 49.6963-18.5625 35.6292 22.6406 27.969 45.0771zm-65.1523-22.2422c-4.1973 12.2979 5.539 21.5225 20.3174 26.5674s28.124 3.7 32.3232-8.5967c4.1973-12.2969-5.54-21.5224-20.3174-26.5674-14.7783-5.0468-28.124-3.7002-32.3232 8.5967z" fill="#ffd400"/><path d="m1757.21 1179.1659-77.8911-17.2659 5.4024-24.3691c3.082-13.9082 10.52-23.2344 24.0947-20.2246 10.2373 2.2685 14.5557 9.6455 14.8682 17.1875l.4453.1c4.5078-9.2754 12.1191-14.126 22.9131-11.7324 15.9121 3.5273 18.9482 16.69 15.5693 31.9355zm-59.7539-37.9941-2.0723 9.3467 18.8047 4.167 2.0723-9.3457c1.5048-6.7891-1.4649-11.2979-7.1387-12.5567-5.6762-1.2578-10.1616 1.6006-11.6664 8.3887zm31.0693 6.7695-2.0967 9.458 21.0313 4.6622 2.0957-9.459c1.8261-8.2334-1.2061-14.042-7.3262-15.3994-7.1215-1.5782-11.8795 2.5039-13.7045 10.7382z" fill="#ffd400"/><path d="m1727.8951 1051.84a8.0919 8.0919 0 1 1 7.2861 8.8232 8.1227 8.1227 0 0 1 -7.2861-8.8232z" fill="#ffd400"/><path d="m1798.9254 975.3476.4775 12.2988-29.8642 3.4424-.3321-8.542c-11.8388-8.208-34.163-10.3066-60.3584-9.29l-6.6054.2568-1.8985-48.8594 66.5127-2.583-.42-10.8193 30.041 1.1142.4785 12.3-16.7421.65 1.9687 50.6807zm-31.502-38.6992-53.3007 2.0713.7783 20.0449 2.5058-.0987c19.8164-.7685 39.6748 2.4512 51.18 7.9356z" fill="#ffd400"/><path d="m1716.4859 844.2431.0557.3389 57.92 26.5859 1.9629 12.0371-78.7451 12.8408-2.3486-14.3994 52.31-8.53-.0547-.3369-58.0332-26.5683-1.9638-12.0362 78.7461-12.8418 2.3486 14.3995z" fill="#ffd400"/><path d="m1719.7115 779.707 2.6621 9.5527-11.8574 3.3057-2.6328-9.4424c-2.0195-7.2461-7.2578-10.7559-13.0772-9.1338-6.039 1.6836-8.456 7.4463-6.4658 14.582a37.4978 37.4978 0 0 0 7.8907 14.7217l-9.7168 8.8623a48.808 48.808 0 0 1 -11.0635-20.582c-3.8262-13.7256-1.3428-27.3135 12.0517-31.05 10.1016-2.8155 17.8233 1.539 21.6485 8.0468l.33-.0918c-.6075-10.2441 3.6074-18.0459 14.2578-21.0146 15.7-4.3779 26.4179 6.4785 30.8261 22.2891a45.5621 45.5621 0 0 1 -.0371 25.333l-13.0351-3.4649a34.8577 34.8577 0 0 0 .3359-18.3164c-2.2959-8.2344-8.2617-13.0791-15.0683-11.1816-7.247 2.0207-9.5283 8.6906-7.0488 17.5842z" fill="#ffd400"/><path d="m1706.4479 685.5419 9.1923 23.5752 18.1534-1.4512 5.59 14.336-84.0273 4.1367-4.8448-12.4238 64.6475-53.836 5.5908 14.3369zm-4.2149 24.6436-6.3779-16.3535-23.8682 18.4814.166.4248z" fill="#ffd400"/><path d="m1596.7057 633.8681c9.1943.82 14.9472 5.1318 19.1464 13.0957s4.5088 15.1465-.0068 23.1973l-10-5.0342c3.5635-4.9727 3.4053-9.9141 1.4385-13.6445-1.9668-3.7286-6.11-6.6993-12.07-6.5186zm38.1484-15.8643.1592.3018 63.3642 6.7842 5.6895 10.7871-70.57 37.2148-6.8047-12.9043 46.8779-24.7207-.1592-.3027-63.4658-6.7324-5.6885-10.7871 70.5694-37.2149 6.8056 12.9043z" fill="#ffd400"/><path d="m1609.0084 565.8935-16.9619-24.5735-26.2627 18.127-8.2871-12.0059 65.6572-45.3183 8.2871 12.0058-28.5137 19.6817 16.962 24.5742 28.5136-19.6816 8.2871 12.0071-65.6582 45.3174-8.2861-12.0059z" fill="#ffd400"/><path d="m1575.9908 444.87-57.63 55.1719-17.2608-18.0283c-9.8525-10.292-13.4746-21.6562-3.4307-31.2725 7.5742-7.2509 16.1075-6.7431 22.5518-2.8144l.3291-.3154c-5.207-8.9-5.01-17.9239 2.9756-25.5684 11.7724-11.2725 24.4043-6.4824 35.2031 4.7969zm-64.789 28.5762 6.6211 6.916 13.913-13.32-6.6211-6.917c-4.8076-5.0215-10.208-5.0586-14.4062-1.0381s-4.3145 9.3367.4932 14.3591zm22.8906-22.0732 6.6992 6.998 15.5605-14.8965-6.7-6.999c-5.8331-6.0908-12.3467-6.7969-16.8741-2.4619-5.2696 5.0439-4.518 11.2676 1.3144 17.3594z" fill="#ffd400"/><path d="m1480.6119 401.0273 7.54 6.4394-7.9942 9.3584-7.4531-6.3642c-5.72-4.8858-12.0244-4.875-15.9473-.2813-4.0713 4.7656-2.8613 10.8955 2.7725 15.7061a37.4743 37.4743 0 0 0 14.7607 7.8125l-3.1181 12.7744a48.8121 48.8121 0 0 1 -20.6621-10.9033c-10.8331-9.253-16.3565-21.9141-7.3262-32.4864 6.81-7.9726 15.6465-8.6689 22.4521-5.4043l.2217-.26c-6.22-8.16-7.0762-16.9844.1035-25.3916 10.585-12.3926 25.5362-9.3653 38.0156 1.2929a45.5526 45.5526 0 0 1 14.1036 21.0411l-12.75 4.3974a34.85 34.85 0 0 0 -9.94-15.3857c-6.5-5.5508-14.1533-6.2422-18.7422-.8692-4.8851 5.7191-3.056 12.5277 3.9635 18.5238z" fill="#ffd400"/><path d="m1417.0807 330.31 20.7841 14.4307 14.252-11.334 12.64 8.7754-67.4111 50.3252-10.9541-7.6055 23.5957-80.7471 12.6387 8.7764zm10.2558 22.8-14.4189-10.0107-9.4893 28.6552.374.2608z" fill="#ffd400"/><path d="m1319.902 314.2343.3017.1631 56.3389-29.7891 10.7461 5.7657-37.7207 70.306-12.8555-6.8984 25.0575-46.7026-.3017-.1621-56.3926 29.89-10.7471-5.7666 37.7227-70.3037 12.8545 6.8964z" fill="#ffd400"/><path d="m1226.09 273.4677.3193.12 27.49-34.084 13.9678 5.2735-1.7939 43.7881.32.122 22.8768-47.0373 13.6485 5.1533-35.1133 72.0215-15.2471-5.7588 2.123-54.0195-.3193-.1211-34.1113 41.9414-15.2471-5.7568 21.2529-77.2529 13.6475 5.1523z" fill="#ffd400"/><path d="m1166.1627 201.0615c23.0693 5.46 28.5713 25.2666 23.2695 47.6709s-19.0986 37.6435-42.1679 32.1835-28.5713-25.2675-23.2686-47.67c5.3027-22.4042 19.0986-37.6444 42.167-32.1844zm-15.8535 66.9892c12.6435 2.9932 20.8867-7.5889 24.4824-22.7842 3.5967-15.1933.9707-28.3466-11.6729-31.34s-20.8876 7.5889-24.4833 22.7842-.9698 28.3468 11.6738 31.34z" fill="#ffd400"/><path d="m1103.0641 172.52 12.2236 1.4532-1.2744 30.0351-8.4873-1.0078c-9.961 10.4082-15.5264 32.1279-18.6192 58.1592l-.78 6.5644-48.5537-5.7695 7.8544-66.0967-10.7519-1.2773 5.8008-29.4971 12.2236 1.4535-1.9775 16.6368 50.3652 5.9853zm-43.1495 25.06-6.2949 52.9668 19.919 2.3682.2968-2.4893c2.34-19.6943 8.628-38.8037 15.8448-49.3086z" fill="#ffd400"/><path d="m1009.5426 180.6562-.7461 79.7812-46.2725-.4316 2.4033-13.1992 29.4043.2744.1758-18.6914-25.9863-.2432.123-13.2207 25.9864.2422.2-21.4258-31.6846-.2969.124-13.2207z" fill="#ffd400"/><path d="m888.8736 238.7245.3409-.0332 30.08-56.1816 12.1328-1.2217 7.9971 79.3779-14.5146 1.462-5.3125-52.7295-.34.0341-30.0683 56.294-12.1338 1.2226-7.996-79.3791 14.5146-1.4619zm.3828 41.3145c4.2129-8.2139 10.3682-11.9268 19.3262-12.83 8.959-.9014 15.7305 1.5088 21.4971 8.7168l-8.4209 7.3789c-3.2695-5.17-7.9092-6.8779-12.1045-6.457-4.1963.4238-8.5039 3.1494-10.5752 8.7422z" fill="#ffd400"/><path d="m784.4693 209.4638c6.1494-5.5293 11.62-8.8135 20.4209-10.7178 23.1719-5.0156 37.2315 10.3682 42.1016 32.8721s-1.5693 42.3232-24.7412 47.3379a41.203 41.203 0 0 1 -21.4717-.6l3.1982-12.7051a33.44 33.44 0 0 0 15.4766.3818c12.7-2.749 16.1358-15.9707 12.833-31.2324s-11.8994-25.8808-24.6-23.1308a32.2949 32.2949 0 0 0 -14.9658 7.9033z" fill="#ffd400"/><path d="m748.2408 284.7714-20.5107-63.32 13.9873-4.53 20.51 63.3194 22.01-7.1289 4.0742 12.5771-58.0078 18.79-1.9053-13.28z" fill="#ffd400"/><path d="m681.9908 237.9267 32.0928 73.0439-22.8525 10.0394c-13.043 5.7305-24.961 5.24-30.5538-7.49-4.2177-9.5987-.8173-17.4434 5.0821-22.15l-.1836-.418c-10.1455 1.8438-18.5567-1.4326-23.0029-11.5547-6.5567-14.9209 2.27-25.1474 16.5664-31.4287zm-8.2431 41.5918 8.87-3.8975-8.6651-19.7217-8.87 3.8975c-7.7207 3.3926-10.6162 9.27-8.0947 15.01 2.9346 6.6775 9.0381 8.1043 16.7598 4.7117zm12.8955 29.0664 8.7656-3.8516-7.7481-17.6347-8.7656 3.8515c-6.3642 2.7969-8.25 7.8565-5.9111 13.1787s7.2949 7.253 13.6592 4.4561z" fill="#ffd400"/><path d="m591.0035 342.9072.2949-.1719 4.17-63.5889 10.5429-6.1289 40.09 68.9756-12.6123 7.331-26.6309-45.82-.2959.1719-4.1122 63.6882-10.543 6.1279-40.09-68.9746 12.6133-7.33z" fill="#ffd400"/><path d="m520.05 363.6366-3.9512-34.4941 13.3819-9.8906 3.8906 36.5234c9.1377-2.7861 19.1474.02 26.1924 9.5537 9.28 12.5567 5.7841 26.6182-5.3057 34.8155l-20.44 15.1055-47.416-64.16 11.7324-8.67 17.8828 24.1962zm12.0732 7.5157-8.249 6.0967 13.8184 18.6982 8.249-6.0967c4.8584-3.59 5.3848-10.3564 1.5244-15.581-3.8619-5.2246-10.484-6.7061-15.3424-3.1172z" fill="#ffd400"/><path d="m464.54 436.9384a8.0918 8.0918 0 1 1 .31-11.4394 8.1215 8.1215 0 0 1 -.31 11.4394z" fill="#ffd400"/><circle cx="980.3037" cy="980.3036" fill="none" r="1500"/><path d="m503.88 1412.2255-13.5166-15.4336-13.4375 6.1172-8.2188-9.3848 62.9121-26.3515 7.1231 8.1338-34.417 58.8877-8.2207-9.3858zm-3.5908-19.95 9.3769 10.7071 13.0918-20.68-.2431-.2774z" fill="#fff"/><path d="m543.232 1440.2411-15.4834 16.6475-8.6631-8.0557 44.0586-47.372 15.4981 14.4131c9 8.371 10.9209 19.875 1.48 30.0273-9.4405 10.15-21.0537 9.0674-30.0547.6963zm21.2735-22.874-13.9727 15.0235 6.6992 6.23c4.128 3.84 9.4834 3.6465 13.89-1.0908s4.2119-10.0928.083-13.9326z" fill="#fff"/><path d="m595.9117 1483.7206-.2187-.1689-24.9864 10.91-10.8632-8.3105 35.872-14.8 4.9014-35.4649 10.8652 8.3106-4.3525 24.249.2939.2246 22.2637-10.5478 10.8643 8.3105-32.9434 14.0147-4.8935 38.4951-11.06-7.2949z" fill="#fff"/><path d="m675.568 1513.9267-.2383-.1426-46.8008 21.918-8.4789-5.0921 33.31-55.4649 10.1425 6.0909-22.1279 36.8447.2383.1426 46.8486-21.9971 8.4785 5.0918-33.31 55.4648-10.1426-6.0918z" fill="#fff"/><path d="m732.7711 1530.4755-22.625 48.9971-10.8232-4.9981 22.6259-48.997-17.0322-7.8653 4.4941-9.7314 44.8868 20.7275-6.1729 8.9571z" fill="#fff"/><path d="m746.4547 1594.9169 21.0312-61.1758 35.4815 12.1983-5.2334 9.5371-22.5469-7.752-4.9277 14.333 19.9248 6.8506-3.4842 10.1368-19.9248-6.8506-5.6484 16.4306 24.2939 8.3526-3.4853 10.1377z" fill="#fff"/><path d="m828.2779 1590.9579-4.4892-1.0976-6.6758 27.2929-11.4922-2.8105 15.3721-62.8477 11.4922 2.8116-6.1495 25.1386 4.669 1.1416 22.3994-21.164 12.8379 3.1406-26.93 24.9082 13.4443 38.3994-13.1494-2.2636z" fill="#fff"/><path d="m903.69 1579.0263-7.5068 53.4521-11.8076-1.6591 7.5068-53.4512-18.5791-2.6084 1.49-10.6172 48.9668 6.877-3.3213 10.3593z" fill="#fff"/><path d="m970.2594 1573.372 12.5595.5332-21.2724 49.9756c-3.3887 7.9043-8.3828 14.4453-17.249 14.0693a16.5832 16.5832 0 0 1 -10.2051-3.6709l6.0215-8.9023a6.5148 6.5148 0 0 0 4.1777 1.8418c1.8467.0781 4.0439-1.586 6.083-6.0322l1.4307-3.1768-3.6944-.1572-18.0195-46.1866 13.4815.5733 12.8056 33.9385.2764.0117z" fill="#fff"/><path d="m1009.2936 1614.6806 1.28 22.7-11.8105.666-3.6455-64.5928 21.1318-1.1914c12.2725-.6933 21.9 5.8916 22.6807 19.7334s-8.0459 21.4668-20.3174 22.1592zm-1.76-31.1895 1.1543 20.4854 9.1357-.5147c5.6289-.3183 9.1983-4.3144 8.835-10.7734s-4.3613-10.0293-9.9893-9.7119z" fill="#fff"/><path d="m1087.59 1615.0341-20.2823 3.084-2.0771 14.6191-12.333 1.875 11.6513-67.206 10.69-1.626 31.1064 60.7031-12.333 1.876zm-18.7461-7.7129 14.07-2.1387-10.3828-22.165-.3643.0557z" fill="#fff"/><path d="m1148.0641 1573.8984a6.5619 6.5619 0 1 1 -4.5362 8.0966 6.5868 6.5868 0 0 1 4.5362-8.0966z" fill="#fff"/><path d="m1197.44 1532.5556 34.9864-14.8018 25.209 59.585-10.8956 4.6094-21.0322-49.711-13.6191 5.7628c13.0371 30.8145 17.126 51.8653 3.7627 57.52a16.8991 16.8991 0 0 1 -6.6338 1.4013l-1.918-10.2275a8.8876 8.8876 0 0 0 2.94-.6426c5.7022-2.4131 3.3711-15.2764-11.8271-51.1973z" fill="#fff"/><path d="m1302.318 1537.98-17.9473 9.9453 3.1357 14.43-10.914 6.0478-12.44-67.0742 9.458-5.2412 50.2763 46.1084-10.914 6.0479zm-20.26-.7139 12.4492-6.8984-17.4424-17.1738-.3232.1787z" fill="#fff"/><path d="m1328.9957 1492.2626 19.7744-13.9765-14.9365-21.1338 9.6611-6.8282 37.3418 52.834-9.6611 6.8282-16.2168-22.9454-19.7744 13.9766 16.2158 22.9453-9.66 6.8281-37.3418-52.8339 9.6612-6.8282z" fill="#fff"/><path d="m1414.92 1493.1113-7.4179 6.6787-17.6377-16.8291 5.1513-4.6377c-1.0244-11.6367-11.2968-26.64-25.52-42.4385l-3.5869-3.9834 29.4687-26.5273 36.1123 40.1132 6.5254-5.874 14.89 19.3018-7.419 6.6787-9.09-10.0977-30.5664 27.5186zm7.7784-39.7081-28.94-32.1464-12.0888 10.8828 1.3613 1.5107c10.7588 11.9522 19.0527 26 21.6025 36.0156z" fill="#fff"/><path d="m1460.9332 1415.0956 10.623-12.5576-41.1992-34.86 7.6407-9.03 41.2 34.86 10.625-12.5576-41.2-34.86 7.6406-9.03 49.3838 41.7852-44.1719 52.205-49.3838-41.7841 7.6406-9.03z" fill="#fff"/><path d="m1526.9264 1321.7294-11.15 17.2227 9.5595 11.2529-6.7812 10.4727-42.5508-53.3125 5.877-9.0762 66.0576 17.0059-6.7813 10.4736zm-18.209 8.9092 7.7344-11.9473-23.4707-6.9394-.2.3105z" fill="#fff"/><path d="m1567.8668 1262.5243 7.7148 3.7911-5.1357 10.4511-7.7979-3.831a30.962 30.962 0 0 1 -2.3525 6.4648c-6.7656 13.7705-20.2725 15.0635-33.7939 8.42-13.6875-6.7246-20.919-18.207-14.1524-31.9775a30.4 30.4 0 0 1 3.6787-5.8125l-7.7968-3.8311 5.1347-10.4521 7.7979 3.8311a29.69 29.69 0 0 1 2.3515-6.4639c6.7657-13.7705 20.2735-15.0635 33.961-8.3389 13.5215 6.6436 20.7519 18.126 13.9863 31.8965a36.6951 36.6951 0 0 1 -3.5957 5.8524zm-14.4268 5.8877-28.2041-13.8584a23.9981 23.9981 0 0 0 -2.8193 4.6914c-3.5049 7.1338 1.2109 13.6729 9.34 17.668 8.1309 3.9932 16.1885 3.73 19.6944-3.4033a24.025 24.025 0 0 0 1.989-5.0977zm-23.0683-24.3105 28.2041 13.8574a23.0083 23.0083 0 0 0 2.8193-4.6894c3.5049-7.1338-1.2119-13.6739-9.3408-17.668s-16.1885-3.73-19.6934 3.4023a22.99 22.99 0 0 0 -1.9892 5.0977z" fill="#fff"/><path d="m1551.28 1178.9286 51.0459 17.544-3.875 11.2754-51.0469-17.544-6.0977 17.7432-10.1406-3.4844 16.0733-46.7637 9.5381 5.2334z" fill="#fff"/><path d="m1579.6334 1138.8837 5.7812-23.5117-25.1279-6.1777 2.8233-11.4864 62.8183 15.4434-2.8232 11.4863-27.2813-6.706-5.78 23.5117 27.2822 6.706-2.8252 11.4873-62.8174-15.4433 2.8242-11.4863z" fill="#fff"/><path d="m1620.8824 1053.5585-2.6826 20.3389 13.4609 6.0644-1.6318 12.3682-61.3047-29.8994 1.4151-10.72 66.9619-12.9776-1.6328 12.3682zm-12.625 15.8584 1.8613-14.1094-24.1777 3.8018-.0488.3662z" fill="#fff"/><path d="m1614.5963 995.7822 23.9736 14.7617-.3994 13.4873-25.2363-15.8164c-2.8018 7.2207-9.6074 12.1982-19.2139 11.914-12.6562-.374-19.8711-9.6484-19.541-20.8261l.6084-20.6006 64.666 1.9111-.3486 11.8242-24.3887-.7207zm-10.8418 3.9316.2461-8.3135-18.8457-.5576-.2461 8.3145c-.1445 4.8964 3.9062 8.622 9.1709 8.7773 5.2666.1562 9.5303-3.3245 9.6748-8.2207z" fill="#fff"/><path d="m1619.0816 892.2314 2.4864 20.3662 14.5527 2.5068 1.5107 12.3848-66.8388-13.627-1.3106-10.7343 61.5987-29.3077 1.5107 12.3858zm-8.26 18.5127-1.7256-14.128-22.4629 9.7256.0449.3672z" fill="#fff"/><path d="m1602.3268 846.9443 22.1689-5.042 2.623 11.5351-63.081 14.3457-4.6934-20.6367c-2.7246-11.9853 2.1641-22.5752 15.6827-25.6494 13.5166-3.0732 22.5058 4.36 25.2314 16.3457zm-30.4581 6.9267 20.0049-4.55-2.0283-8.9209c-1.251-5.4971-5.7851-8.3525-12.0928-6.9179s-9.163 5.97-7.913 11.4667z" fill="#fff"/><path d="m1583.3062 781.3808.086.2637 26.7871 5.0761 4.2871 12.99-37.9727-8.0039-24.0449 26.5273-4.2871-12.99 17.2666-17.5733-.1152-.3515-24.3369-3.8418-4.2862-12.99 35.11 7.001 25.748-29.0342 5.02 12.2608z" fill="#fff"/><path d="m1534.6275 711.5146.1143.2519 50.9961 8.3594 4.1182 8.9912-58.8194 26.9395-4.9258-10.7549 39.0733-17.8955-.1162-.252-51.08-8.3213-4.1182-8.9912 58.8194-26.9394 4.9257 10.7558z" fill="#fff"/><path d="m1496.7828 665.51 46.3711-27.6182 6.1006 10.2432-46.3711 27.6182 9.6006 16.1191-9.21 5.4854-25.3017-42.48 10.1562-3.8985z" fill="#fff"/><path d="m1522.0357 604.9706-52.1816 38.2442-22.1816-30.2657 9.7392-4.8466 14.0967 19.2324 12.2256-8.96-12.457-16.9961 8.6474-6.3379 12.4561 16.9961 14.0156-10.2714-15.19-20.7227 8.6474-6.3379z" fill="#fff"/><path d="m1452.0816 561.6318 3.087 3.4375 20.9-18.7784 7.9073 8.8-48.125 43.2393-7.9073-8.8 19.25-17.2949-3.2119-3.5752-30.4306 4.8525-8.833-9.832 36.2841-5.39 10.544-39.2939 9.582 9.2822z" fill="#fff"/><path d="m1383.0709 528.9892 36.3213-39.9238 8.8174 8.0224-36.32 39.9238 13.8789 12.626-7.2159 7.93-36.5742-33.2734 8.5821-6.6856z" fill="#fff"/><path d="m1324.9127 496.163-10.0732-7.5166 45.73-29.2988c7.2539-4.62 15.0664-7.209 22.1768-1.9024a16.5735 16.5735 0 0 1 6.3613 8.7823l-9.99 3.9619a6.5165 6.5165 0 0 0 -2.4121-3.876c-1.4815-1.105-4.2354-.9687-8.4248 1.5547l-2.9717 1.8193 2.9629 2.21-11.1387 48.3081-10.8145-8.07 8.5469-35.251-.2226-.166z" fill="#fff"/><path d="m1315.9244 440.0282 11.7334-19.4746 10.1328 6.105-33.3867 55.4155-18.1279-10.9218c-10.5283-6.3448-14.7715-17.21-7.6182-29.084s18.7432-13.2 29.2715-6.8574zm-16.1211 26.7579 10.5889-17.5747-7.8369-4.7222c-4.8291-2.9092-10.03-1.6187-13.3682 3.9224-3.34 5.5424-2.0488 10.7436 2.7793 13.6523z" fill="#fff"/><path d="m1251.4605 395.61 18.4942 8.8877 9.957-10.9048 11.2461 5.4048-47.5156 48.9453-9.7471-4.6826 8.5293-67.6817 11.2471 5.4043zm11.1377 16.9394-12.8291-6.165-3.92 24.1621.334.16z" fill="#fff"/><path d="m1178.3736 395.4531a6.5622 6.5622 0 1 1 8.3164-4.1172 6.5883 6.5883 0 0 1 -8.3164 4.1172z" fill="#fff"/><path d="m1088.3639 396.2958-12.3037-2.5771 29.1513-45.8311c4.6358-7.2451 10.6328-12.8818 19.3174-11.0615a16.5729 16.5729 0 0 1 9.4688 5.2891l-7.3965 7.7993a6.5039 6.5039 0 0 0 -3.82-2.5c-1.8086-.3794-4.25.9038-6.9873 4.9575l-1.93 2.9 3.6181.7578 10.2334 48.5122-13.208-2.7681-7.0888-35.5756-.2715-.0572z" fill="#fff"/><path d="m1056.609 349.1464 2.4521-22.6006 11.76 1.2754-6.9756 64.3106-21.0391-2.2818c-12.22-1.3252-20.6386-9.396-19.1445-23.1772s11.4492-19.8584 23.668-18.5327zm-3.3672 31.0527 2.2109-20.3955-9.0947-.9863c-5.6045-.6079-9.78 2.75-10.4766 9.1812-.6982 6.4311 2.6612 10.6064 8.2637 11.2148z" fill="#fff"/><path d="m993.1881 375.99.13-14.7881-8.041-.07c-13.4024-.1167-22.3116-6.5723-22.1963-19.7886s9.0439-19.5166 22.538-19.3994l19.8711.1738-.5644 64.6963-37.8936-.3311 1.9414-10.7046zm.2226-25.5088.1553-17.7451-7.4873-.0655c-7.4863-.0654-10.7539 3.6958-10.7978 8.7788-.0479 5.4532 3.0654 8.9 10.7363 8.9668z" fill="#fff"/><path d="m911.859 339.749 20.4287-1.8941 2.9268-14.4722 12.4238-1.1513-15.5606 66.41-10.7666.9981-27.5039-62.417 12.4229-1.1519zm18.2646 8.7939-14.1709 1.314 9.0684 22.7329.3672-.0342z" fill="#fff"/><path d="m869.03 370.9257-23.72 4.8692 5.2031 25.3505-11.5879 2.3785-13.01-63.3746 11.5879-2.3789 5.65 27.5235 23.7207-4.87-5.65-27.5229 11.5889-2.3789 13.0088 63.3745-11.5889 2.3789z" fill="#fff"/><path d="m775.2154 400.3017.2627-.0869 13.8838-49.7783 9.3877-3.11 20.35 61.4131-11.2309 3.7204-13.5175-40.796-.2637.0879-13.8545 49.8652-9.3867 3.1113-20.35-61.4135 11.2295-3.7212z" fill="#fff"/><path d="m687.4879 395.3383c3.9082-5.45 7.67-9.0024 14.3076-12.0425 17.4785-8.0049 31.2891 1.731 39.0635 18.7046s6.124 33.7905-11.3535 41.7954a33.4 33.4 0 0 1 -17.1094 3.2617l.3223-10.6176a27.1206 27.1206 0 0 0 12.3222-2.3911c9.5791-4.3877 10-15.4571 4.7276-26.9683s-13.93-18.4243-23.5078-14.0376a26.2034 26.2034 0 0 0 -10.4766 8.8643z" fill="#fff"/><path d="m671.8844 461.207-27.1563-46.647 10.3037-5.9985 27.1563 46.6469 16.2139-9.44 5.3955 9.2656-42.7334 24.878-3.7969-10.1953z" fill="#fff"/><path d="m604.8971 493.2089.2236-.165-2.2266-51.626 7.961-5.8657 38.375 52.0786-9.5215 7.0176-25.4932-34.5952-.2236.1645 2.28 51.7-7.96 5.8662-38.376-52.0791 9.5225-7.0176z" fill="#fff"/><path d="m555.735 515.4091 3.39-3.1406-19.0937-20.6094 8.6777-8.0391 43.9648 47.4541-8.6777 8.0391-17.585-18.9814-3.5263 3.2666 5.3164 30.3486-9.6953 8.9814-5.9414-36.1933-39.4463-9.9414 9.1338-9.7217z" fill="#fff"/><path d="m489.8209 563.6757 13.5107-15.4375-7.84-12.5107 8.2168-9.3877 34.4365 58.8759-7.1211 8.1358-62.9207-26.3315 8.2168-9.3877zm19.3-6.1953-9.373 10.708 22.2285 10.2441.2441-.2783z" fill="#fff"/><path d="m470.1354 634.1572a6.5612 6.5612 0 1 1 -1.7618-9.11 6.5871 6.5871 0 0 1 1.7618 9.11z" fill="#fff"/><path d="m392.1051 684.8134c8.5937-17.1963 25.251-17.8623 41.9511-9.5176s26.1709 22.0655 17.5772 39.2627-25.25 17.8623-41.9512 9.5176-26.1689-22.0654-17.5771-39.2627zm49.9375 24.9522c4.71-9.4249-2.1123-17.8965-13.44-23.5557s-22.1972-6.0293-26.9072 3.3955 2.1133 17.8975 13.44 23.5566 22.1982 6.0293 26.9072-3.3964z" fill="#fff"/><path d="m392.9166 756.0585 2.8594-7.5146 9.3281 3.55-2.8252 7.4287c-2.1689 5.7-.4414 10.5117 4.1377 12.2529 4.751 1.8076 9.1006-.7881 11.2373-6.4033a30.4168 30.4168 0 0 0 1.9356-13.4033l10.6054-1.1065a39.5715 39.5715 0 0 1 -2.6855 18.7549c-4.1084 10.7969-12.2686 18.47-22.8076 14.46-7.9463-3.0235-10.89-9.5821-10.2549-15.669l-.26-.0986c-4.5332 6.9766-11.0371 10.0391-19.416 6.8506-12.3525-4.6992-14.1211-16.9424-9.3887-29.3809a36.9486 36.9486 0 0 1 12.2158-16.5127l6.8389 8.5352a28.2575 28.2575 0 0 0 -9.0342 11.791c-2.4658 6.4785-.9043 12.5107 4.4512 14.5479 5.7014 2.1692 10.4006-1.0852 13.0627-8.0823z" fill="#fff"/><path d="m350.54 791.6269 62.4493 16.8916-9.7989 36.22-9.8652-4.584 6.2256-23.0166-14.63-3.957-5.5029 20.34-10.3479-2.7993 5.502-20.3408-16.772-4.5361-6.709 24.8007-10.3486-2.8z" fill="#fff"/><path d="m398.151 868.8876-6.1416 37.4844-63.8418-10.4609 1.9121-11.6739 53.2627 8.7276 2.3916-14.5928c-33.0156-5.4092-53.002-13.18-50.6563-27.499a16.8761 16.8761 0 0 1 2.3535-6.3574l9.6739 3.833a8.8874 8.8874 0 0 0 -1.0254 2.8291c-1.002 6.11 11.1211 11 49.6094 17.3056z" fill="#fff"/><path d="m325.3561 923.0048 64.5732 3.87-2.2441 37.4522-10.59-2.4864 1.4268-23.8-15.13-.9062-1.2608 21.0322-10.6992-.6416 1.2588-21.0322-17.3418-1.04-1.5361 25.6455-10.7012-.6416z" fill="#fff"/><path d="m362.0289 996.0771 1.1152 24.19 25.8516-1.19.5439 11.8183-64.6308 2.9756-.544-11.8174 28.0674-1.2929-1.1122-24.1907-28.0683 1.293-.544-11.8183 64.6309-2.9756.5439 11.8183z" fill="#fff"/><path d="m327.9342 1061.1337 63.956-9.7705 5.667 37.0947-10.8769-.208-3.6016-23.5732-14.9844 2.289 3.1836 20.8321-10.5986 1.6191-3.1836-20.831-17.1768 2.624 3.8809 25.3994-10.5986 1.6191z" fill="#fff"/><path d="m379.107 1124.8827 6.1446 23.419 25.0293-6.5684 3.0029 11.4424-62.5723 16.4209-3.0019-11.4424 27.1738-7.1308-6.1465-23.42-27.1738 7.1309-3.0039-11.44 62.5732-16.4219 3.002 11.4414z" fill="#fff"/><path d="m413.5123 1216.999-.1006-.2579-50.4512-11.1806-3.6113-9.2051 60.2227-23.6279 4.3213 11.0117-40.0059 15.6953.1016.2588 50.5361 11.1455 3.6123 9.2061-60.2236 23.6289-4.32-11.0127z" fill="#fff"/><path d="m389.6861 1268.5458 57.3623-29.9238 17.3565 33.27-10.3613 3.3193-11.03-21.1416-13.4375 7.0108 9.7461 18.6836-9.5059 4.959-9.7471-18.6836-15.4052 8.0371 11.8838 22.78-9.5059 4.9589z" fill="#fff"/><path d="m472.0729 1328.4384a6.5612 6.5612 0 1 1 -9.1192-1.7148 6.5868 6.5868 0 0 1 9.1192 1.7148z" fill="#fff"/><circle cx="980.3037" cy="980.3036" fill="none" r="1500"/><g fill="#ffd400"><path d="m574.6676 653.1723-11.5776-9.1777 4.7753-6.0245 32.9447 26.1153-8.543 10.7783c-4.9629 6.26-12.3174 8.0947-19.377 2.4971-7.0605-5.5957-6.9531-13.1758-1.9912-19.4346zm15.9082 12.61-10.4492-8.2823-3.6934 4.6592c-2.2754 2.8711-1.875 6.33 1.4189 8.9424s6.754 2.2119 9.03-.66z"/><path d="m542.4625 671.1 34.8408 23.5244-13.6433 20.2071-5.1016-4.8946 8.67-12.84-8.1621-5.5127-7.6621 11.3477-5.7734-3.8975 7.6621-11.3486-9.3574-6.3164-9.3418 13.8359-5.7737-3.8973z"/><path d="m511.4215 702.6635 3.16-5.6621 14.377 6.6465-2.1953 3.9336c3.0722 6.94 12.5361 14.0107 24.5976 20.74l3.0411 1.6982-12.5547 22.4952-30.6231-17.09-2.78 4.9824-13.205-8.746 3.16-5.6622 7.708 4.3008 13.0235-23.334zm3.5488 26.05 24.541 13.6963 5.15-9.2305-1.1543-.6435c-9.124-5.0918-17.1709-11.9893-20.8418-17.6133z"/><path d="m496.9078 771.019 5.4422-12.169-7.2578-6.2715 3.31-7.4 32.6289 29.99-2.8681 6.4131-44.1055-4.34 3.31-7.3994zm10.8027-7.5342-3.7763 8.44 15.7607 2.1172.0977-.2187z"/><path d="m493.17 805.28.9971-2.832-17.22-6.0664 2.5547-7.251 39.6513 13.9688-2.5537 7.2509-15.8613-5.5879-1.0381 2.946 12.249 15.84-2.8535 8.1015-14.38-19.0117-25.6915 6.2318 2.3067-8.3575z"/><path d="m465.2437 831.6313 40.74 10.3652-1.8955 7.45-33.9893-8.6484-3.8808 15.249 33.99 8.6494-1.8955 7.4492-33.9893-8.6484-1.4072 5.5293-15.0107-5.06 1.6-6.2851 8.5547 2.1767z"/><path d="m477.1324 909.5883.0313-.1787-24.2871-23.1865 1.0888-6.3321 41.4287 7.1221-1.3027 7.5752-27.5195-4.7314-.0313.1787 24.3457 23.1963-1.0879 6.333-41.4284-7.1231 1.3018-7.5752z"/><path d="m444.9723 946.1664c.8076-12.4638 10.6132-17.0654 22.7187-16.2812s21.2373 6.6123 20.43 19.0771-10.6143 17.0655-22.72 16.2823c-12.1045-.7852-21.2354-6.6133-20.4287-19.0782zm36.1972 2.3457c.4424-6.832-5.78-10.1845-13.99-10.7168-8.21-.53-14.8125 1.99-15.2559 8.8223-.4414 6.832 5.7793 10.1826 13.99 10.7158 8.21.5313 14.8126-1.9892 15.2564-8.8213z"/><path d="m469.6344 986.3783.41 15.7286 16.81-.4385.2 7.6846-42.0225 1.0966-.2011-7.6845 18.2509-.4756-.4121-15.73-18.25.4775-.2-7.6845 42.0235-1.0967.2 7.6836z"/><path d="m472.2105 1032.353 1.834 15.625 16.6992-1.959.8965 7.6338-41.748 4.9013-.8965-7.6338 18.1309-2.1289-1.835-15.6259-18.1309 2.1279-.8964-7.6338 41.749-4.9023.8965 7.6347z"/><path d="m465.7516 1093.143-2.6934-13.0557-9.5576-.8506-1.6377-7.94 44.0107 5.2705 1.419 6.8809-38.3321 22.2568-1.6376-7.9414zm4.3652-12.4287 1.8682 9.0576 14.0293-7.4932-.0479-.2343z"/><path d="m481.3375 1126.9291-17.7715-4.3408-2.4463-8.4189 18.7627 4.74c.291-5.0244 3.5039-9.46 9.502-11.2031 7.8994-2.2969 14.2129 1.997 16.2412 8.9756l3.7373 12.8584-40.3662 11.7314-2.1455-7.3818 15.2246-4.4239zm5.918-4.5957 1.51 5.1885 11.7637-3.4189-1.5088-5.1895c-.8887-3.0566-4.1377-4.5508-7.4248-3.5957s-5.2278 3.958-4.3401 7.0156z"/><path d="m481.5074 1176.8012 38.6406-16.5612 12.1836 28.4282-38.64 16.5605-3.0283-7.0664 32.2373-13.8144-6.128-14.2974-32.2363 13.8169z"/><path d="m508.2145 1235.0429c-5.9385-10.9883-.0762-20.0938 10.5937-25.8613s21.502-5.6836 27.44 5.3047.0762 20.0937-10.5947 25.8613-21.5006 5.6836-27.439-5.3047zm31.9062-17.2441c-3.2549-6.0235-10.3066-5.5547-17.543-1.6446-7.2363 3.9121-11.49 9.5567-8.2353 15.5782s10.3056 5.5546 17.543 1.6425c7.2373-3.9101 11.4902-9.5549 8.2353-15.5761z"/><path d="m561.4254 1241.9745 13.5176 20.6485-35.168 23.0234-4.21-6.43 29.34-19.209-5.2627-8.039c-18.1856 11.9082-31.17 16.9609-36.334 9.0742a10.9737 10.9737 0 0 1 -1.6641-4.0781l6.3155-2.4121a5.7793 5.7793 0 0 0 .7509 1.8047c2.2032 3.3652 10.1563.3847 31.3584-13.4961z"/><path d="m587.3375 1302.287-.1113-.1425-33.48 2.5761-3.9844-5.041 32.9824-26.0644 4.7657 6.0312-21.9099 17.3145.1113.1406 33.5264-2.6133 3.9844 5.041-32.9815 26.0645-4.7656-6.0313z"/><path d="m617.8238 1325.84-25.5908 23.9824-5.2978-5.6543 25.5918-23.9824-8.3379-8.8946 5.0839-4.7636 21.9707 23.4433-5.9042 3.8868z"/><path d="m647.2008 1363.9843-.1338-.1211-32.5713 8.1563-4.7734-4.3008 28.1406-31.2266 5.71 5.1465-18.6929 20.7422.1338.1211 32.6113-8.1992 4.7734 4.2988-28.1411 31.2285-5.71-5.1465z"/><path d="m667.0914 1392.4628-2.3994-1.8066-10.9854 14.584-6.1406-4.625 25.2959-33.5821 6.1406 4.627-10.1191 13.4316 2.4951 1.8789 18.8018-6.8925 6.86 5.1679-22.4677 7.9649-1.82 26.375-7.2705-4.7227z"/><path d="m704.651 1429.2363-11.27-7.1231-7.2451 6.2891-6.8535-4.33 34.3428-28.0254 5.9394 3.7539-10.5849 43.043-6.8535-4.3321zm-5.917-11.77 7.8174 4.9434 4.3437-15.3027-.2031-.127z"/><path d="m752.3844 1433.0624a4.2628 4.2628 0 1 1 -5.7246 1.8907 4.28 4.28 0 0 1 5.7246-1.8907z"/><path d="m793.0182 1465.5019-14.2569 11.4629-8.17-3.18 15.1768-12.0078c-3.8116-3.2871-5.377-8.5371-3.1114-14.3574 2.9834-7.6661 10.2315-10.0625 17.003-7.4278l12.48 4.8574-15.247 39.17-7.1631-2.7871 5.75-14.7735zm-.0479-7.4942 5.0371 1.961 4.4424-11.418-5.0361-1.959c-2.9668-1.1543-6.1289.5157-7.37 3.7032-1.2414 3.1914-.0402 6.5585 2.9263 7.7128z"/><path d="m827.38 1474.6-4.9981-1.5175 1.8858-6.2051 4.94 1.5019c3.792 1.15 6.833-.1836 7.7588-3.2285.959-3.16-.917-5.8652-4.6514-6.998a19.7434 19.7434 0 0 0 -8.7744-.6582l-1.1894-6.8262a25.6881 25.6881 0 0 1 12.2754.9062c7.1816 2.1817 12.5185 7.1309 10.3886 14.1387-1.6054 5.2852-5.7246 7.4863-9.6992 7.3457l-.0517.1719c4.7236 2.627 6.998 6.707 5.3056 12.2793-2.497 8.2168-10.3535 9.9082-18.6269 7.3945a24.0019 24.0019 0 0 1 -11.2461-7.1816l5.2265-4.8145a18.3756 18.3756 0 0 0 8.0459 5.3321c4.3077 1.3086 8.1494.0273 9.2315-3.5332 1.1522-3.7935-1.1681-6.6939-5.8209-8.1075z"/><path d="m867.818 1461.287-3.335 15.99 3.9981.832c8.5234 1.7793 13.3544 7.1426 11.6005 15.5488-1.7519 8.4043-8.2656 11.4-16.8476 9.6114l-11.5215-2.4024 8.5811-41.1484zm-4.7569 22.8086-2.4033 11.5215 3.6455.76c4.7617.9941 7.333-1.0469 8.02-4.3379.7227-3.4688-.7978-6.1777-5.6767-7.1953zm34.8526-16.5312-8.58 41.1484-7.5234-1.57 8.58-41.1465z"/><path d="m919.1285 1494.2812-2.9824-.3438-2.0781 18.1348-7.6358-.8731 4.7852-41.76 7.6357.875-1.914 16.7051 3.1025.3535 12.7109-15.4649 8.53.9766-15.3262 18.25 11.795 23.6523-8.6592-.3886z"/><path d="m981.0992 1497.9706-3.0039.0157.1016 18.2578-7.6875.0429-.2305-42.039 7.6875-.043.0918 16.8145 3.123-.0176 10.7774-16.875 8.5889-.0469-13.044 19.9512 14.5352 22.082-8.6446.6484z"/><path d="m1027.6539 1514.7714c-12.4434 1.0957-18.48-7.9-19.541-19.9824-1.0625-12.084 3.3105-21.9922 15.7519-23.0859s18.4786 7.8984 19.5411 19.9824c1.0625 12.082-3.3096 21.9922-15.752 23.0859zm-3.1787-36.1289c-6.8193.6-9.1885 7.2578-8.4668 15.4531.72 8.1934 4.2148 14.3379 11.0342 13.7383s9.1875-7.2578 8.4668-15.4551c-.7207-8.1933-4.2149-14.3359-11.0342-13.7363z"/><path d="m1086.358 1477.7909-.1768.0332-2.9882 22.879-7.7285 1.4687-11.2305-20.1777-.1778.0351 2.6465 27.4317-7.5517 1.4355-4.0127-42.0273 8.4365-1.6035 13.8936 24.8691.1777-.0352 3.8047-28.23 8.4355-1.6035 11.6836 40.57-7.5517 1.4336z"/><path d="m1138.9586 1463.5741-.1719.0528-.51 23.0644-7.5254 2.2911-13.333-18.85-.1729.0528 5.5811 26.9844-7.3526 2.2382-8.51-41.3437 8.2148-2.502 16.4853 23.2246.1719-.0527.7461-28.4707 8.2149-2.502 15.9755 39.0723-7.3525 2.2383z"/><path d="m1174.8424 1434.3613 7.5615-3.084.959 35.2734c.1367 5.5859-1.043 10.8008-6.3828 12.9766a10.7541 10.7541 0 0 1 -7.02.5937l1.1465-6.8886a4.2329 4.2329 0 0 0 2.9668-.0411c1.1123-.4531 1.959-2.0312 1.961-5.2089l-.0137-2.2637-2.2256.9062-23.1406-22.4043 8.1172-3.3086 16.747 16.5821.167-.0684z"/><path d="m1204.1646 1439.3691 14.0274-7.125-7.6133-14.99 6.8525-3.4785 19.0333 37.4766-6.8526 3.4805-8.2656-16.2754-14.0283 7.123 8.2656 16.2774-6.8525 3.4785-19.0332-37.4766 6.8544-3.4824z"/><path d="m1258.152 1405.6738-.1524.0976-1.0185 33.5606-5.4375 3.4218-22.3877-35.5781 6.5068-4.0937 14.8711 23.6347.1514-.0957.9873-33.6113 5.4375-3.4238 22.3877 35.58-6.5059 4.0938z"/><path d="m1290.985 1394.3046-2.3936 1.8145 11.0322 14.5468-6.125 4.6446-25.4013-33.4961 6.125-4.6445 10.16 13.3984 2.4883-1.8867-1.499-19.9668 6.8418-5.1895 1.5322 23.7852 24.874 8.9472-6.5283 5.7051z"/><path d="m1336.5875 1368.2538-9.9375 8.8887 4.0684 8.6914-6.042 5.4043-17.5564-40.6992 5.2364-4.6856 38.5029 21.961-6.042 5.4062zm-12.94 2.4707 6.8926-6.166-13.5273-8.3652-.1787.16z"/><path d="m1360.0943 1358.7363-30.6543-28.7657 5.2608-5.6054 25.5732 23.998 10.7656-11.4726-25.5732-23.9981 5.26-5.6055 25.5742 23.9981 3.9043-4.16 10.6943 11.6817-4.4375 4.73-6.4365-6.039z"/><path d="m1387.4234 1284.42-.1113.1425 10.5332 31.8848-3.9394 5.0781-33.2159-25.77 4.712-6.0742 22.0644 17.1191.1113-.1426-10.58-31.9218 3.9384-5.0782 33.2159 25.77-4.711 6.0722z"/><path d="m1414.1988 1244.8827-.0967.15 13.4874 30.75-3.4434 5.4258-35.4912-22.5234 4.1181-6.4883 23.5782 14.959.0957-.15-13.5391-30.7813 3.4434-5.4257 35.4922 22.5214-4.1192 6.4922z"/><path d="m1434.1383 1206.123a4.2638 4.2638 0 1 1 1.92 5.7168 4.277 4.277 0 0 1 -1.92-5.7168z"/><path d="m1449.07 1156.811 32.7393 12.5839-2.7793 7.2325-32.7393-12.585-4.374 11.38-6.5029-2.499 11.5273-29.9922 6.0733 3.6211z"/><path d="m1494.55 1133.2494c-3.544 11.9766-14.125 14.2911-25.7539 10.8487-11.6309-3.4424-19.2451-11.1436-15.7012-23.1192 3.5459-11.9775 14.127-14.2929 25.7559-10.8506 11.6312 3.4434 19.2455 11.1456 15.6992 23.1211zm-34.7754-10.2949c-1.9434 6.5645 3.3818 11.209 11.2715 13.544 7.8867 2.3349 14.8828 1.3379 16.8262-5.2266s-3.3829-11.208-11.2715-13.5439c-7.8863-2.335-14.8824-1.338-16.8258 5.2265z"/><path d="m1479.3941 1088.6 3.086-15.4287-16.4873-3.2988 1.5088-7.5371 41.2207 8.2461-1.5078 7.5371-17.9024-3.58-3.0869 15.4277 17.9014 3.5821-1.5069 7.5381-41.2217-8.2471 1.5079-7.5371z"/><path d="m1496.3111 1021.1928-.2246 2.9941 18.2022 1.3663-.5742 7.665-41.917-3.1465.5752-7.6641 16.7666 1.2579.2343-3.1133-15.9541-12.0967.6426-8.5615 18.8359 14.6 23.1749-12.7139-.0479 8.669z"/><path d="m1516.8092 976.1576c.0849 12.4913-9.3682 17.78-21.5 17.8633-12.1309.0811-21.6533-5.0791-21.7393-17.5693-.084-12.4912 9.3692-17.7813 21.5-17.8633s21.6543 5.0781 21.7393 17.5693zm-36.2725.2461c.0459 6.8457 6.4922 9.7452 14.7188 9.6905 8.2275-.0576 14.6328-3.043 14.5869-9.89s-6.4922-9.7441-14.72-9.6885-14.6324 3.0423-14.5857 9.888z"/><path d="m1484.7008 914.6371.0195.1787 22.5635 4.835.8369 7.8223-21.0234 9.5576.02.1807 27.5586-.4122.8174 7.6436-42.2168.59-.9131-8.538 25.9131-11.833-.0186-.18-27.831-6.0821-.9141-8.539 41.3867-8.3545.8174 7.6435z"/><path d="m1474.7848 861.0649.0381.1758 22.95 2.372 1.6739 7.6856-19.8668 11.7675.04.1768 27.3487-3.3818 1.6367 7.51-41.9 5.14-1.83-8.39 24.4844-14.5566-.0381-.1748-28.32-3.0469-1.8291-8.39 40.2383-12.7657 1.6377 7.51z"/><path d="m1448.56 822.9623-2.4649-7.7881 35.2432 1.8877c5.5791.3135 10.6845 1.91 12.4248 7.4063a10.774 10.774 0 0 1 .0234 7.0478l-6.7734-1.6982a4.2306 4.2306 0 0 0 .1972-2.96c-.3623-1.1455-1.8671-2.1181-5.0361-2.3759l-2.2568-.1661.7256 2.29-24.2022 21.2646-2.6455-8.36 17.8809-15.3594-.0547-.1719z"/><path d="m1455.9166 794.1137-5.9736-14.5537-15.5537 6.3848-2.919-7.11 38.8828-15.9619 2.918 7.1113-16.8867 6.9307 5.9756 14.5537 16.8857-6.9316 2.918 7.11-38.8819 15.9619-2.9189-7.1113z"/><path d="m1426.6568 737.6.083.1592 33.3721 3.7012 2.9746 5.6943-37.2539 19.4678-3.56-6.8125 24.7481-12.9326-.084-.1592-33.4238-3.6729-2.9766-5.6943 37.2559-19.4678 3.56 6.8116z"/><path d="m1417.9488 703.9594 1.6172 2.5313 15.3828-9.8331 4.1387 6.4776-35.4219 22.64-4.14-6.4785 14.1689-9.0547-1.6816-2.6318-20.0215-.1035-4.625-7.2354 23.832.376 10.9116-24.0773 5.163 6.9628z"/><path d="m1395.609 656.3949 8.0644 10.6133 8.9844-3.3584 4.9043 6.4541-41.9668 14.24-4.25-5.5938 24.9668-36.6142 4.9033 6.4541zm1.4258 13.0928-5.5938-7.3623-9.4189 12.8125.1455.19z"/><path d="m1388.0309 632.2436-31.1348 28.2431-5.165-5.6933 25.9765-23.5635-10.5713-11.6533-25.9763 23.5634-5.1641-5.6944 25.9756-23.5634-3.833-4.2247 12.5058-9.7216 4.3575 4.8037-6.5381 5.9306z"/><path d="m1316.1607 599.0424.1329.1211 32.6289-7.93 4.7431 4.335-28.3584 31.03-5.6748-5.1856 18.8376-20.6129-.1328-.12-32.668 7.9727-4.7441-4.335 28.3584-31.03 5.6748 5.1846z"/><path d="m1278.8863 569.1479.1436.1094 31.7363-10.961 5.1289 3.8692-25.3135 33.5566-6.1367-4.6289 16.8155-22.291-.1436-.1084-31.7715 11.0088-5.1308-3.8692 25.3144-33.5576 6.1367 4.6289z"/><path d="m1241.8883 546.1518a4.2627 4.2627 0 1 1 5.8525-1.4492 4.2784 4.2784 0 0 1 -5.8525 1.4492z"/><path d="m1196.943 492.7573a21.4564 21.4564 0 0 1 11.9629 2.1308c11.2646 5.3945 12.1494 16.3369 6.9111 27.2774s-14.3174 17.11-25.583 11.7177a21.7036 21.7036 0 0 1 -8.7442-7.1826l5.4336-4.2568a17.6264 17.6264 0 0 0 6.3184 5.1562c6.1738 2.9571 11.874-1.4384 15.4258-8.8584 3.5537-7.4189 3.4033-14.6142-2.77-17.57a17.0131 17.0131 0 0 0 -8.7832-1.542z"/><path d="m1171.4254 478.9916c11.6777 4.4414 13.1885 15.167 8.876 26.5069s-12.5674 18.3515-24.2432 13.9131c-11.6777-4.4405-13.1885-15.167-8.877-26.5059 4.3125-11.3408 12.5688-18.3535 24.2442-13.9141zm-12.8926 33.9063c6.4 2.4336 11.4346-2.5264 14.3584-10.2168s2.458-14.7442-3.94-17.1768c-6.4-2.4336-11.4356 2.5264-14.36 10.2188-2.9246 7.6894-2.4578 14.7422 3.9416 17.1748z"/><path d="m1139.8482 468.4711-11.2275 40.5108-7.4072-2.0537 9.3672-33.7969-15.1621-4.2022-9.3686 33.7979-7.4072-2.0537 9.3681-33.7979-5.499-1.5234 5.377-14.8985 6.249 1.7315-2.3574 8.5078z"/><path d="m1061.3746 478.8.1768.0313 23.35-24.125 6.3232 1.1318-7.4043 41.374-7.5654-1.3545 4.9189-27.4834-.1777-.0312-23.3594 24.1826-6.3242-1.1318 7.4043-41.3731 7.5664 1.3535z"/><path d="m1021.0055 455.2074 13.2773 1.2081 3.583-8.9014 8.0742.7334-17.8017 40.5947-6.9981-.6357-10.1884-43.1407 8.0742.7344zm10.6289 7.7813-9.211-.8379 3.1045 15.6.2393.0225z"/><path d="m994.0309 486.5785-24.6827-.1953.3321-42.039 7.6865.0615-.2768 35.0713 9.6084.0762c.1719-21.7393 3.1621-35.3506 12.5908-35.2754a10.9732 10.9732 0 0 1 4.3174.874l-1.4941 6.5957a5.7208 5.7208 0 0 0 -1.918-.375c-4.0234-.0322-5.9512 8.2412-6.15 33.584z"/><path d="m948.1969 487.4672-1.2051-16.29-6.2285.4609c-8.6836.6426-14.8086-3.1807-15.4424-11.7451s4.8008-13.2412 13.5459-13.8887l13.8945-1.0273 3.1016 41.923zm-1.7188-23.2383-.8691-11.7373-5.8692.4336c-4.8515.3584-6.7617 3.0293-6.5127 6.3828.2608 3.5342 2.47 5.7188 7.4415 5.3516z"/><path d="m907.4332 474.767-15.5352 2.4815 2.65 16.6025-7.5908 1.2109-6.625-41.5078 7.5889-1.2119 2.8789 18.0278 15.5351-2.4815-2.8769-18.0254 7.59-1.2109 6.626 41.5088-7.5908 1.2109z"/><path d="m836.6236 507.41-10.6709-40.6563 7.4336-1.9511 10.6719 40.6562zm29.7364-7.8047-4.1465-15.7978-3.9492 1.0361c-8.4209 2.21-15.1377-.4346-17.3174-8.7393s2.3135-13.8925 10.7929-16.1172l11.3838-2.9892 10.6709 40.6562zm-5.9151-22.5361-2.9873-11.3828-3.6006.9453c-4.705 1.2353-6.0976 4.207-5.2431 7.46.8984 3.4268 3.4677 5.1739 8.289 3.9092z"/><path d="m809.6012 472.2 14.2812 39.54-22.9336 8.2832-1.2373-6.961 14.5733-5.2636-3.3457-9.2637-12.8791 4.652-2.3663-6.5527 12.878-4.6514-3.835-10.62-15.7031 5.6719-2.3662-6.5527z"/><path d="m729.5836 509.516a21.4619 21.4619 0 0 1 9.0391-8.1181c11.1826-5.5615 20.3535.4746 25.7558 11.334 5.4 10.86 4.6787 21.8144-6.5039 27.3769a21.6969 21.6969 0 0 1 -11.043 2.4727l-.0117-6.9a17.6292 17.6292 0 0 0 7.9531-1.81c6.129-3.0478 6.1719-10.2451 2.5079-17.61s-9.4278-11.6739-15.5567-8.626a17.0247 17.0247 0 0 0 -6.6191 5.9736z"/><path d="m716.193 513.9741 21.5254 36.1132-20.9473 12.4844-2.5352-6.6 13.3106-7.9326-5.042-8.4619-11.7637 7.0117-3.5674-5.9854 11.7637-7.0107-5.7812-9.6992-14.3418 8.5488-3.5674-5.9854z"/><path d="m689.566 572.63-20.1445-28.7119 6.3418-4.45 20.1445 28.7109 9.9805-7.0019 4.001 5.7031-26.3018 18.4541-3.0176-6.3926z"/><path d="m647.6871 596.3305.1387-.1143-3.4912-33.3962 4.9306-4.12 26.9561 32.2559-5.8984 4.9287-17.9063-21.4268-.1377.1153 3.5293 33.4424-4.9307 4.12-26.956-32.2559 5.8984-4.9287z"/><path d="m616.8961 627.1391a4.2641 4.2641 0 1 1 -.0811-6.03 4.2787 4.2787 0 0 1 .0811 6.03z"/></g><circle cx="980.3037" cy="980.3036" fill="none" r="1500"/><g fill="#fff"><path d="m604.3424 728.23 3.1855-5.0449 12.8741 6.8213-2.211 3.5034c2.4766 6.5283 10.8194 13.4931 21.5635 20.2754l2.709 1.71-12.65 20.04-27.28-17.2207-2.8008 4.4375-11.6972-8.69 3.1855-5.0449 6.8672 4.3345 13.1218-20.7862zm1.9648 24.105 21.8623 13.8 5.1885-8.2212-1.0273-.6485c-8.127-5.1313-15.1768-11.8676-18.2676-17.2163z"/><path d="m600.9049 802.8525.0732-.1485-15.3818-26.784 2.6113-5.3027 34.69 17.0811-3.1231 6.3427-23.0445-11.3459-.0733.1485 15.4307 26.8081-2.61 5.3027-34.69-17.081 3.1231-6.3428z"/><path d="m581.3268 827.07 1.7031-4.4936 5.5771 2.1142-1.6826 4.4424c-1.291 3.4087-.2539 6.2827 2.4834 7.32 2.8408 1.0762 5.4385-.479 6.7109-3.8364a18.1737 18.1737 0 0 0 1.1465-8.0122l6.3379-.67a23.6556 23.6556 0 0 1 -1.5918 11.2109c-2.4453 6.4566-7.3174 11.0489-13.6181 8.6612-4.752-1.8013-6.5166-5.7188-6.1416-9.357l-.1553-.0586c-2.7031 4.1734-6.5889 6.0088-11.5986 4.11-7.3868-2.7993-8.4532-10.1143-5.6348-17.5523a22.0732 22.0732 0 0 1 7.2871-9.8784l4.0937 5.0952a16.8852 16.8852 0 0 0 -5.39 7.0538c-1.4678 3.874-.53 7.478 2.6719 8.6919 3.4096 1.292 6.2152-.6568 7.8012-4.8411z"/><path d="m559.2633 867.204 3.3379-11.8022-7.4424-4.7456 2.0293-7.1768 33.6963 22.9634-1.7588 6.22-40.7315 1.9172 2.0284-7.1767zm8.834-8.2954-2.3145 8.187 14.63-.1689.0615-.2124z"/><path d="m566.81 914.0038.0293-.1635-22.1942-21.4873 1.042-5.8194 38.0684 6.8194-1.2471 6.9609-25.2881-4.53-.0293.1631 22.249 21.4976-1.0429 5.8188-38.0684-6.8188 1.2481-6.9615zm19.3105 5.3111c-3.2686-3.0552-4.1826-6.418-3.4121-10.7144s2.793-7.1333 6.9189-8.8638l2.32 4.9063a5.9731 5.9731 0 0 0 -1.9473 10.8765z"/><path d="m560.9361 941.4394-1.1054 14.4316 15.4228 1.1817-.539 7.0507-38.5586-2.9534.54-7.0507 16.7451 1.2827 1.1055-14.4317-16.7442-1.2827.5391-7.0508 38.5576 2.9532-.54 7.0508z"/><path d="m551.97 974.8583 6.1318-.0254.0665 15.5787-6.1377-1.0787z"/><path d="m553.9293 1012.3862-.2207-2.7535-16.74 1.334-.5616-7.0483 38.5469-3.0718.5615 7.0483-15.4179 1.2291.2275 2.8632 16.2129 8.7383.6269 7.8745-19.1875-10.6069-19.2666 14.835-1.1816-7.8858z"/><path d="m541.9254 1056.5746c-1.9609-11.3232 5.82-17.5478 16.8164-19.4521s20.417 1.3437 22.3779 12.6665-5.8213 17.5478-16.8174 19.4517-20.4169-1.3438-22.3769-12.6661zm32.88-5.6923c-1.0752-6.2061-7.3614-7.8643-14.8194-6.5743-7.458 1.2915-12.82 4.9678-11.747 11.1729 1.0752 6.2056 7.3613 7.8652 14.8193 6.5742s12.8217-4.9673 11.747-11.1728z"/><path d="m540.943 1089.5488-1.6016-5.7476 13.6992-4.9653 1.1123 3.9912c6.502 2.5464 17.2657 1.0376 29.5059-2.3736l3.0869-.86 6.3633 22.831-31.08 8.6622 1.4092 5.0556-14.292 2.8364-1.6035-5.7475 7.8242-2.18-6.6006-23.6826zm19.1875 14.7255 24.9072-6.9414-2.6113-9.3662-1.1709.3257c-9.2608 2.5806-18.9864 3.2847-25.0254 1.9854z"/><path d="m593.066 1138.4008a3.923 3.923 0 1 1 -5.1152-2.1465 3.9383 3.9383 0 0 1 5.1152 2.1465z"/><path d="m577.6773 1187.2519-2.8818-5.2246 12.1865-7.9839 2.001 3.6279c6.9141.9805 17.04-2.9643 28.1641-9.1011l2.8047-1.5478 11.4472 20.75-28.247 15.582 2.5351 4.5947-13.2549 6.05-2.8818-5.2237 7.1094-3.9219-11.8731-21.5235zm22.0586 9.9111 22.6377-12.4863-4.6972-8.5132-1.0645.5869c-8.415 4.6421-17.7168 7.5659-23.8926 7.6929z"/><path d="m641.3687 1226.2909-.0957-.1357-30.8876.5264-3.3819-4.85 31.7217-22.1231 4.0459 5.8008-21.0723 14.6953.0948.1367 30.9326-.5566 3.3818 4.8476-31.7217 22.1231-4.0449-5.8008z"/><path d="m653.06 1255.1181-3.1065-3.667 4.5527-3.8574 3.0723 3.625c2.3565 2.7832 5.374 3.2676 7.6074 1.376 2.3194-1.9639 2.2159-4.9913-.1045-7.7315a18.1785 18.1785 0 0 0 -6.455-4.8848l2.4853-5.871a23.6652 23.6652 0 0 1 9.0381 6.8242c4.4639 5.2705 6.1221 11.7578.98 16.1142-3.8789 3.2852-8.1611 2.9307-11.1631.8389l-.1269.1074c2.3408 4.3887 2.0654 8.6778-2.0245 12.1406-6.0283 5.1055-12.9463 2.4952-18.0879-3.5752a22.081 22.081 0 0 1 -5.1123-11.163l6.4414-1.1133a16.9045 16.9045 0 0 0 3.5616 8.1347c2.6777 3.1612 6.2861 4.087 8.8984 1.8731 2.7829-2.3565 2.4362-5.7559-.4565-9.1709z"/><path d="m677.4518 1293.872-8.6963-8.6455-7.76 4.2031-5.2881-5.2578 36.4238-18.3086 4.584 4.5567-18.0927 36.5322-5.2891-5.2569zm-2.9639-11.7471 6.0322 5.9961 6.9522-12.8711-.1553-.1543z"/><path d="m722.0309 1310.0156-.128-.1055-29.5634 8.9551-4.5782-3.7383 24.4561-29.9551 5.4785 4.4727-16.2459 19.8984.1279.1045 29.5977-8.9971 4.5791 3.7383-24.457 29.9541-5.4776-4.4717zm14.0244-14.295c-4.2578 1.3721-7.6407.5352-11.02-2.2246-3.3819-2.76-4.877-5.9062-4.3838-10.3535l5.415.3555a5.9737 5.9737 0 0 0 8.5586 6.9883z"/><path d="m743.0943 1328.4335 12.0928 7.9531 8.501-12.9238 5.9082 3.8858-21.251 32.31-5.9072-3.8867 9.2275-14.0312-12.0927-7.9532-9.2276 14.0313-5.9082-3.8848 21.249-32.3105 5.9082 3.8867z"/><path d="m768.0572 1352.5214 2.9463-5.3769 13.6631 7.4824-3.916 4.8476z"/><path d="m810.32 1388.5761a19.7383 19.7383 0 0 1 -11.041-1.7412c-10.46-4.7549-11.4756-14.8027-6.8594-24.9619s12.8545-16.002 23.3155-11.2481a19.9789 19.9789 0 0 1 8.1757 6.4453l-4.92 4.0147a16.2067 16.2067 0 0 0 -5.9072-4.626c-5.7324-2.6055-10.8945 1.541-14.0254 8.4317-3.1309 6.8886-2.86 13.5058 2.873 16.1093a15.6537 15.6537 0 0 0 8.1045 1.2578z"/><path d="m852.3248 1379.1581-.1562-.0527-24.6016 18.68-5.5928-1.9121 12.5088-36.5918 6.69 2.2871-8.3086 24.3066.1573.0547 24.6172-18.7324 5.5937 1.9121-12.5088 36.5918-6.6914-2.2871z"/><path d="m891.7818 1413.5331a19.7531 19.7531 0 0 1 -11.17.4239c-11.1826-2.6455-14.1191-12.3106-11.5508-23.17s9.5235-18.1836 20.7061-15.539a19.9794 19.9794 0 0 1 9.2656 4.7461l-4.0517 4.8886a16.225 16.225 0 0 0 -6.6885-3.3984c-6.13-1.4492-10.3926 3.6172-12.1348 10.9814-1.7412 7.3663-.1992 13.8047 5.9287 15.254a15.643 15.643 0 0 0 8.1963-.3321z"/><path d="m923.2545 1388.4462-4.707 31.917-7.0508-1.04 4.708-31.917-11.0947-1.6362.9355-6.34 29.2393 4.3125-2.0284 6.18z"/><path d="m940.6842 1422.874 2.9531-38.5577 22.3643 1.7129-1.5909 6.3047-14.2119-1.0879-.6914 9.0332 12.5586.9629-.49 6.3887-12.5576-.9619-.794 10.3554 15.3135 1.1729-.4893 6.39z"/><path d="m1006.443 1398.748-.1651.0058-5.8906 20.3887-7.2305.2637-7.4121-19.9043-.166.0058-1.3994 25.3106-7.0654.2568 2.18-38.7685 7.8935-.2881 9.1846 24.5381.165-.0059 7.376-25.1416 7.8926-.2871 4.9944 38.508-7.0654.2578z"/><path d="m1048.4811 1410.9374-12.1377 1.74-1.3164 8.7265-7.3819 1.0567 7.31-40.1075 6.3974-.916 18.2793 36.44-7.3818 1.0576zm-11.1651-4.705 8.4209-1.2061-6.0908-13.3-.2188.03z"/><path d="m1084.3746 1385.4218a3.9222 3.9222 0 1 1 -2.8232 4.7754 3.938 3.938 0 0 1 2.8232-4.7754z"/><path d="m1120.53 1367.8915 3.0947 8.28 4.502-1.6836c7.5029-2.8047 13.8574-1.1094 16.623 6.291s-.8672 12.8272-8.4238 15.65l-11.125 4.1582-13.5371-36.2226 21.2158-7.93 1.208 6.3886zm5.3379 14.2823 3.7129 9.9355 4.1914-1.5664c4.1914-1.5664 5.2109-4.3652 4.1465-7.2109-1.1416-3.0528-3.6163-4.3106-7.9112-2.7051z"/><path d="m1161.0055 1371.3984 5.8379 12.2715-6.3848 3.0371-16.6133-34.92 11.4258-5.4355c6.6348-3.1563 13.45-1.6875 17.0107 5.7949 3.56 7.4844.3975 13.6983-6.2373 16.8555zm-8.0205-16.8633 5.2675 11.0762 4.9395-2.35c3.043-1.4472 4.1162-4.4667 2.4551-7.9589s-4.68-4.5645-7.7237-3.1162z"/><path d="m1195.1 1369.4433-19.53-33.375 19.3565-11.3262 2.2841 6.0879-12.3007 7.1992 4.5752 7.8184 10.87-6.3613 3.2373 5.5312-10.8711 6.36 5.2451 8.9638 13.2549-7.7568 3.2363 5.53z"/><path d="m1219.2066 1327.1718 11.77-8.4219-9.001-12.5781 5.75-4.1152 22.5029 31.4453-5.75 4.1152-9.7734-13.6562-11.7686 8.4218 9.7725 13.6573-5.75 4.1142-22.5039-31.4453 5.751-4.1152z"/><path d="m1270.1549 1327.913-4.4707 3.95-10.4483-10.1553 3.1045-2.7431c-.5478-6.961-6.6045-15.9844-15.0175-25.5059l-2.1211-2.4023 17.76-15.6914 21.3614 24.1757 3.9326-3.4746 8.792 11.6192-4.4707 3.9492-5.377-6.084-18.4219 16.2774zm4.8691-23.69-17.1191-19.3731-7.2862 6.4375.8047.91c6.3643 7.2031 11.2442 15.6455 12.7129 21.6465z"/><path d="m1291.36 1259.748a3.9225 3.9225 0 1 1 .2939 5.539 3.939 3.939 0 0 1 -.2939-5.539z"/><path d="m1337.734 1229.8632-7.169 9.9483 5.3711 7.0029-4.3593 6.05-23.8145-33.0928 3.7783-5.2422 38.9278 12.1182-4.36 6.05zm-11.1348 4.7754 4.9727-6.9014-13.8047-4.8408-.13.18z"/><path d="m1330.29 1171.7143c2.0293 3.9883 1.7374 7.4609-.4531 11.2358s-5.0615 5.749-9.5312 5.9658l-.5049-5.4043a5.9724 5.9724 0 0 0 5.5469-9.5551zm16.334 11.5884-.084.1445 13.5186 27.7754-2.9678 5.1133-33.4463-19.4141 3.55-6.1162 22.2178 12.8955.082-.1426-13.5634-27.8037 2.9668-5.1128 33.4472 19.4136-3.55 6.1162z"/><path d="m1388.2174 1176.5805-2.4336 5.4468-13.7149-4.916 1.6895-3.7823c-3.3809-6.1084-12.63-11.813-24.23-16.9941l-2.9248-1.3062 9.6641-21.6367 29.4541 13.1568 2.1387-4.7915 12.8154 6.9335-2.4336 5.4473-7.4141-3.312-10.0244 22.4429zm-5.3809-23.5767-23.6025-10.5429-3.9639 8.8764 1.1094.4961c8.7754 3.919 16.7129 9.5821 20.5322 14.4346z"/><path d="m1397.87 1132.6728-36.6445-12.3511 7.1631-21.2534 5.72 3.0937-4.5518 13.5054 8.586 2.8945 4.0224-11.9355 6.0723 2.0469-4.0234 11.9345 9.8418 3.3174 4.9043-14.5527 6.0732 2.0469z"/><path d="m1388.2916 1084.933 3.3359-14.0854-15.0527-3.5645 1.6289-6.8813 37.6328 8.9111-1.63 6.8819-16.3427-3.87-3.336 14.085 16.3438 3.87-1.63 6.8814-37.6328-8.9117 1.63-6.8813z"/><path d="m1388.7018 1034.82 31.9462 4.5039-.9951 7.0572-31.9472-4.5044-1.5655 11.105-6.3457-.8951 4.126-29.2666 6.1914 1.9888z"/><path d="m1398.82 991.662-.0078.1651 24.8535 18.3442-.2588 5.9053-38.6347-1.6953.3105-7.0645 25.6631 1.126.0078-.1655-24.9082-18.3457.26-5.9058 38.6338 1.6958-.3106 7.0645z"/><path d="m1407.3434 960.7358.14 2.7588 16.7725-.8487.3574 7.0615-38.6182 1.9542-.3574-7.0616 15.4473-.7817-.1455-2.8687-15.9532-9.2041-.3994-7.8886 18.8731 11.1572 19.6865-14.27.9541 7.9165z"/><path d="m1410.8844 912.3486 1.7324 12.1411 8.7256 1.3218 1.0547 7.3833-40.1094-7.335-.9131-6.3984 36.458-18.2608 1.0528 7.3833zm-4.7129 11.1635-1.2015-8.4221-13.3076 6.084.0322.2187z"/><path d="m1385.3844 876.4423a3.9226 3.9226 0 1 1 4.7724 2.8262 3.9369 3.9369 0 0 1 -4.7724-2.8262z"/><path d="m1376.3766 837.0234-5.1651-13.52-14.4492 5.52-2.5234-6.6055 36.1211-13.8 2.5234 6.6055-15.6865 5.9931 5.166 13.52 15.6855-5.9932 2.5245 6.605-36.1221 13.8-2.5235-6.605z"/><path d="m1368.067 781.2348 5.457 10.9809 8.6992-1.4858 3.3174 6.6777-40.3769 5.6333-2.876-5.7876 28.873-28.7822 3.3184 6.6778zm-.9678 12.0771-3.7861-7.6176-10.72 9.9541.0976.1972z"/><path d="m1365.1676 758.0556-32.9365 20.2627-6.3389-10.3042c-3.6192-5.8818-4.1748-11.6362 1.5644-15.168a8.5747 8.5747 0 0 1 10.9737.9683l.1884-.1157c-1.56-4.7491-.5449-9.0049 4.02-11.8125 6.7285-4.1392 12.2236-.5811 16.19 5.8652zm-33.6143 6.93 2.4307 3.9526 7.9512-4.8916-2.4317-3.9526c-1.7646-2.87-4.32-3.439-6.72-1.9629s-2.9968 3.9846-1.2302 6.8542zm13.0977-8.1231 2.4609 4 8.8926-5.4712-2.4609-4c-2.1407-3.4819-5.1563-4.4814-7.7442-2.8891-3.0117 1.8527-3.2894 4.8778-1.1484 8.36z"/><path d="m1309.1705 721.2118.1.1319 30.8408-1.7422 3.5694 4.7114-30.8223 23.354-4.2695-5.6362 20.4736-15.5137-.1-.1318-30.8838 1.7759-3.57-4.7115 30.8223-23.354 4.2705 5.6358z"/><path d="m1286.3922 704.59 23.9248-21.645 4.7441 5.2441-28.6767 25.9443-14.8262-16.3877 5.4932-3.48z"/><path d="m1277.4205 661.4653 8.8525 8.4912 7.6856-4.3408 5.3828 5.163-36.1045 18.9605-4.664-4.4751 17.4433-36.86 5.3828 5.1631zm3.1738 11.6963-6.14-5.8907-6.7246 12.9966.16.1528z"/><path d="m1266.7115 640.38-23.915 30.3828-5.5557-4.373 19.9522-25.3477-11.3721-8.9517-19.9522 25.3482-5.5556-4.3731 19.9521-25.3481-4.122-3.2456 9.8535-10.7324 4.6875 3.69-5.0225 6.38z"/><path d="m1196.1764 621.4911.14.0884 28.24-12.5088 5.002 3.1494-20.6006 32.7222-5.9844-3.7666 13.6856-21.7373-.14-.0879-28.2705 12.5547-5.0009-3.1484 20.6005-32.7227 5.9825 3.7666z"/><path d="m1171.7271 595.5556 14.0528-9.2564 7.2051 3.6236-14.9434 9.6733c3.2051 3.3423 4.1807 8.2852 1.6006 13.4175-3.4 6.7607-10.2461 8.3257-16.2168 5.3228l-11.0049-5.5337 17.3711-34.5435 6.3164 3.1763-6.5518 13.0278zm-.6084 6.8657-4.44-2.2339-5.0625 10.0674 4.4414 2.2334c2.6153 1.3154 5.6563.0625 7.07-2.75s.6064-6.0019-2.0089-7.3169z"/><path d="m1127.5543 588.9169a3.9217 3.9217 0 1 1 5.05-2.2905 3.936 3.936 0 0 1 -5.05 2.2905z"/><path d="m1102.1715 544.4145 5.792 1.437-2.4268 14.3677-4.0215-.9981c-5.4189 4.4043-9.4072 14.5147-12.4668 26.8467l-.7714 3.11-23.003-5.7071 7.77-31.3134-5.0938-1.2637 4.5713-13.8355 5.791 1.4366-1.956 7.8823 23.86 5.9194zm-22.2637 9.4453-6.2266 25.0937 9.4375 2.3414.2911-1.18c2.3154-9.33 6.4931-18.14 10.5986-22.7564z"/><path d="m1030.277 564.6122.165.023 20.5986-23.0127 5.8535.814-5.3242 38.2973-7.0029-.9736 3.5371-25.44-.1641-.023-20.6064 23.0674-5.8535-.814 5.3242-38.2973 7.0029.9736z"/><path d="m1001.2057 553.6005 4.8017.211-.2617 5.96-4.7461-.208c-3.6426-.16-6.0469 1.7251-6.1767 4.65-.1329 3.0351 2.1582 5.0161 5.746 5.1733a18.17 18.17 0 0 0 7.97-1.42l2.62 5.811a23.6614 23.6614 0 0 1 -11.1475 1.9991c-6.8984-.3028-12.7861-3.4917-12.4912-10.2251.2236-5.0777 3.3926-7.98 6.9649-8.7632l.0078-.1655c-4.8116-1.2618-7.77-4.378-7.5352-9.731.3467-7.8926 6.9619-11.1968 14.9092-10.8477a22.0722 22.0722 0 0 1 11.6641 3.83l-3.5577 5.4839a16.8882 16.8882 0 0 0 -8.3877-2.9111c-4.1406-.1821-7.27 1.8369-7.42 5.2588-.1601 3.644 2.5703 5.6987 7.0401 5.8945z"/><path d="m956.234 545.1108 12.2529-.49 2.2012-8.5468 7.4512-.2979-11.3693 39.153-6.459.2583-14.4619-38.1191 7.4522-.2984zm10.626 5.8217-8.4991.34 4.7 13.854.22-.0088z"/><path d="m914.0631 566.811.164-.0235 13.5342-27.7627 5.8535-.8154 5.334 38.2974-7.0029.9756-3.543-25.44-.164.023-13.5274 27.8174-5.8535.8154-5.334-38.2982 7.003-.9751zm.9443 20.0014c1.8906-4.0551 4.8028-5.9673 9.125-6.5688s7.6465.4409 10.5713 3.8262l-3.9424 3.728a5.9728 5.9728 0 0 0 -10.9424 1.5239z"/><path d="m886.1783 569.7548-14.05 3.4712 3.71 15.0161-6.8643 1.6958-9.2754-37.5395 6.8653-1.6958 4.0273 16.3027 14.0508-3.4712-4.0283-16.3027 6.8652-1.6958 9.2734 37.5395-6.8632 1.6958z"/><path d="m803.31 575.15a19.7392 19.7392 0 0 1 8.8955-6.77c10.6689-4.2666 18.6308 1.9512 22.7734 12.3135 4.1445 10.3623 2.665 20.3545-8.0049 24.6216a19.9645 19.9645 0 0 1 -10.31 1.4453l.502-6.33a16.2153 16.2153 0 0 0 7.4277-1.0659c5.8487-2.3389 6.4239-8.9356 3.6143-15.9629-2.8115-7.0283-7.7754-11.4092-13.624-9.0713a15.6606 15.6606 0 0 0 -6.5147 4.9853z"/><path d="m790.1773 593.7856-6.1328-12.1284 6.3116-3.191 17.4492 34.5118-11.29 5.7085c-6.5576 3.3154-13.4072 2.0122-17.1465-5.3833s-.7275-13.6846 5.8292-17zm8.4258 16.664-5.5342-10.9448-4.8808 2.4678c-3.0078 1.521-4.0069 4.564-2.2627 8.0151 1.7461 3.4512 4.79 4.4507 7.7959 2.93z"/><path d="m756.1432 596.5575 20.3173 32.897-19.08 11.7852-2.4268-6.0323 12.124-7.4892-4.76-7.707-10.7149 6.6181-3.3672-5.4516 10.7159-6.6182-5.4581-8.835-13.0654 8.0694-3.3662-5.4517z"/><path d="m717.901 611.5678 4.7588-3.5962 9.6386 10.9253-3.3047 2.4976c.0137 6.9824 5.3614 16.4423 13.02 26.5791l1.9316 2.5566-18.9072 14.2852-19.4463-25.7388-4.1875 3.1631-7.876-12.2573 4.76-3.5962 4.8945 6.479 19.6133-14.8184zm-6.669 23.2461 15.584 20.6261 7.7569-5.86-.7325-.97c-5.7939-7.669-10.0117-16.459-11.0175-22.5537z"/><path d="m688.5748 697.956-26.5791-28.0845 5.1348-4.86 26.58 28.0844zm20.542-19.4409-10.3291-10.9126-2.7266 2.5815c-5.8183 5.5059-12.4062 6.34-17.8349.603-5.4307-5.7373-4.2754-12.2309 1.583-17.7749l7.8633-7.4414 26.58 28.084zm-14.7324-15.5669-7.4424-7.8638-2.4873 2.3545c-3.251 3.0752-3.06 6.0893-.9346 8.3364 2.2412 2.3672 5.0869 2.6406 8.417-.5107z"/><path d="m658.0953 713.7914a3.9213 3.9213 0 1 1 -.5156-5.5224 3.9366 3.9366 0 0 1 .5156 5.5224z"/></g><circle cx="980.3037" cy="980.3036" fill="none" r="1500"/><path d="m834.9654 1278.0087-12.0381 24.7344-5.4218-2.6377 14.43-29.6484 16.9414 8.2461-3.2373 4.5z" fill="#ffd400"/><path d="m851.7711 1302.8964-4.1816 10.8067-5.6231-2.1758 11.8984-30.752 10.0616 3.8926c5.8427 2.2607 8.9277 7.3437 6.3779 13.9336s-8.252 8.2725-14.0957 6.0117zm5.7461-14.85-3.7735 9.7529 4.35 1.6827c2.68 1.0371 5.1777-.0665 6.3671-3.1426s.086-5.5733-2.5937-6.6094z" fill="#ffd400"/><path d="m887.859 1319.621-10.0469-2.9033-4.084 6.3232-6.1094-1.7666 19.7461-28.6191 5.295 1.53 1.4336 34.74-6.1094-1.7656zm-7.0313-7.5722 6.9688 2.0136-.0713-12.4765-.1807-.0528z" fill="#ffd400"/><path d="m922.4937 1331.0038-.748 4.3164-5.85-1.0127.7578-4.3632a15.8115 15.8115 0 0 1 -3.5-.2246c-7.7051-1.335-10.2734-7.7569-8.9619-15.3223 1.3271-7.6592 5.9072-12.8408 13.6123-11.5049a15.4422 15.4422 0 0 1 3.3691.9668l.7569-4.3633 5.8486 1.0137-.7559 4.3623a15.1927 15.1927 0 0 1 3.4981.2246c7.7051 1.335 10.2734 7.7568 8.9473 15.415-1.3125 7.5665-5.8926 12.7481-13.5957 11.4122a18.4882 18.4882 0 0 1 -3.3786-.92zm-4.9472-6.2119 2.7344-15.7812a12.22 12.22 0 0 0 -2.6983-.7061c-3.9912-.6924-6.5146 2.5518-7.3027 7.1006s.4951 8.4522 4.4873 9.1445a12.2551 12.2551 0 0 0 2.7793.2422zm8.584-14.7676-2.7364 15.7813a11.7394 11.7394 0 0 0 2.6973.707c3.9932.6924 6.5156-2.5527 7.3027-7.1006.7891-4.5488-.4941-8.4531-4.4863-9.1445a11.74 11.74 0 0 0 -2.7773-.2432z" fill="#ffd400"/><path d="m969.6383 1317.1952-.1406-.0078-15.8077 21.0655-5.0322-.2618 1.7061-32.9248 6.0205.3116-1.1328 21.872.1406.0078 15.8086-21.1123 5.0332.2608-1.707 32.9258-6.0206-.3116z" fill="#ffd400"/><path d="m1003.63 1338.4277-.6553-13.125a19.536 19.536 0 0 1 -5.7344 1.3232c-6.9628.3477-10.55-2.5391-10.8886-9.36l-.5469-10.9629 6.0215-.3.5469 10.9619c.164 3.2929 2.1953 4.3232 5.0664 4.18a15.2416 15.2416 0 0 0 5.2636-1.3l-.7168-14.3487 6.0235-.3008 1.6426 32.9317z" fill="#ffd400"/><path d="m1023.1559 1336.7265-4.7012-32.6328 18.9287-2.7256-.1533 5.542-12.0274 1.7324 1.1 7.6455 10.63-1.5312.7783 5.4082-10.6289 1.53 1.2618 8.7647 12.96-1.8662.7783 5.4082z" fill="#ffd400"/><path d="m1075.2867 1324.5585a16.8506 16.8506 0 0 1 -8.3476 4.6c-9.5313 2.2647-15.4668-3.9726-17.668-13.2285s.2949-17.498 9.8262-19.7637a17.0262 17.0262 0 0 1 8.875.0684l-1.2149 5.2754a13.8257 13.8257 0 0 0 -6.3965-.0283c-5.2246 1.2412-6.5332 6.7334-5.041 13.0107s5.1319 10.5918 10.3555 9.35a13.3591 13.3591 0 0 0 6.1172-3.39z" fill="#ffd400"/><path d="m1090.1393 1307.0488-2.2276.76 4.6211 13.5508-5.7051 1.9463-10.6425-31.2031 5.705-1.9463 4.2578 12.4814 2.3165-.79 3.8115-15.2334 6.374-2.1738-4.7285 18.0839 16.3086 12.8-6.2676 2.6348z" fill="#ffd400"/><path d="m1128.5465 1283.2822-.1289.0595-4.16 26.0078-4.5742 2.1153-13.8457-29.9248 5.4707-2.5323 9.1992 19.8789.127-.0585 4.1416-26.0508 4.5752-2.1162 13.8447 29.9257-5.4717 2.5313z" fill="#ffd400"/><path d="m1161.3375 1264.9335-.12.0733-1.2276 26.31-4.3086 2.6143-17.1064-28.1914 5.1553-3.127 11.3633 18.7266.1211-.0733 1.2031-26.3515 4.3086-2.6143 17.1054 28.1914-5.1562 3.1279zm-7.4922-15.3457a10.27 10.27 0 0 1 -14.498 8.7969l1.8281-4.25a5.0936 5.0936 0 0 0 8.0547-4.8877z" fill="#ffd400"/><path d="m1208.6783 1266.5859-3.8828 3.2871-8.7256-8.8457 2.6973-2.2832c-.3438-5.9444-5.3447-13.7461-12.3457-22.0137l-1.7656-2.0859 15.4218-13.06 17.7774 20.9941 3.415-2.8916 7.2871 10.0635-3.8818 3.2881-4.4746-5.2852-15.9981 13.5469zm4.5762-20.1094-14.2481-16.8242-6.3261 5.3574.67.791c5.2969 6.2549 9.3037 13.5391 10.4482 18.6817z" fill="#ffd400"/><path d="m1230.484 1206.6659-.0977.1026 5.792 25.6885-3.46 3.6621-23.9629-22.6416 4.1406-4.3819 15.918 15.041.0976-.1025-5.8262-25.7207 3.461-3.6621 23.9609 22.6416-4.1406 4.3809z" fill="#ffd400"/><path d="m1252.524 1191.7724-2.5049 3.2422-4.0254-3.1084 2.4766-3.2051c1.9-2.46 1.7676-5.0615-.209-6.5879-2.0488-1.583-4.5547-.959-6.4248 1.4629a15.52 15.52 0 0 0 -2.9248 6.251l-5.334-1.0283a20.1636 20.1636 0 0 1 4.08-8.7481c3.5977-4.6582 8.7109-7.1953 13.2578-3.6836a7.5328 7.5328 0 0 1 2.6856 9.1572l.1123.086c3.2412-2.7324 6.8652-3.2647 10.4814-.4727 5.3281 4.1162 4.3828 10.3487.2383 15.7149a18.8265 18.8265 0 0 1 -8.3975 6.248l-2.0732-5.1728a14.3851 14.3851 0 0 0 6.1465-4.4151c2.1592-2.7949 2.289-5.9668-.0215-7.751-2.4589-1.9016-5.2323-1.0078-7.5634 2.0108z" fill="#ffd400"/><path d="m1280.4586 1164.39-5.6152 8.8213 4.915 5.6982-3.415 5.3643-21.8946-27.0049 2.959-4.6494 33.7344 8.4082-3.416 5.3652zm-9.2461 4.6113 3.8965-6.1191-11.99-3.4444-.1015.1592z" fill="#ffd400"/><path d="m1271.1578 1115.22a10.2691 10.2691 0 0 1 -7.5762 15.1689l-.7187-4.5713a5.093 5.093 0 0 0 4.21-8.4267zm14.5176 8.9873-.0645.1269 12.9854 22.9121-2.252 4.5078-29.4951-14.7324 2.6934-5.3926 19.5937 9.7862.0625-.126-13.0254-22.9336 2.25-4.5078 29.4961 14.7314-2.6933 5.3936z" fill="#ffd400"/><path d="m1297.0074 1103.1152 4.27-11.5762-12.3721-4.5635 2.0869-5.6562 30.93 11.4091-2.086 5.6553-13.4316-4.9541-4.2715 11.5762 13.4317 4.9551-2.085 5.6552-30.9307-11.4091 2.087-5.6553z" fill="#ffd400"/><path d="m1309.6187 1058.0126a3.3446 3.3446 0 1 1 2.4834 4.0264 3.3583 3.3583 0 0 1 -2.4834-4.0264z" fill="#ffd400"/><path d="m1336.1832 1032.53-32.7656-3.6865 2.7119-24.1074 32.7666 3.6875-.6738 5.9921-27.3379-3.0761-1.3633 12.123 27.3359 3.0762z" fill="#ffd400"/><path d="m1328.1246 988.5009 11.5859.1475-.0761 6.0293-32.9727-.418.1377-10.7871c.0791-6.2647 3.7666-10.93 10.8311-10.84 7.0664.09 10.6328 4.8467 10.5537 11.1114zm-15.9219-.2021 10.4571.1328.0586-4.6631c.0371-2.874-1.87-4.8291-5.168-4.87s-5.252 1.8642-5.2891 4.7373z" fill="#ffd400"/><path d="m1338.9605 949.5449c.8243 9.7617-6.246 14.4716-15.7265 15.2724s-17.24-2.6553-18.0645-12.417 6.2461-14.4707 15.7246-15.2715c9.4805-.8007 17.2403 2.6543 18.0664 12.4161zm-28.3476 2.3955c.4531 5.35 5.668 7.2255 12.0976 6.6826s11.2579-3.2676 10.8057-8.6172-5.6689-7.2256-12.0976-6.6836c-6.4307.5449-11.2569 3.2678-10.8057 8.6178z" fill="#ffd400"/><path d="m1309.607 903.34.0284.1386 17.9755 2.0977 1.2334 6.0449-15.7041 9.0235.0293.1386 21.4844-2.3681 1.207 5.9072-32.916 3.5957-1.3476-6.5986 19.3535-11.1631-.0274-.1377-22.1816-2.6807-1.3467-6.6 31.69-9.5957 1.2051 5.9063z" fill="#ffd400"/><path d="m1284.6168 860.5175 31.2129-10.6094 1.94 5.7071-31.2129 10.6093zm7.7617 22.83 12.127-4.1231-1.0293-3.0322c-2.1992-6.4648-.502-11.8662 5.873-14.0342s10.9961 1.0371 13.21 7.5469l2.9717 8.74-31.2129 10.6094zm17.3008-5.8809 8.7383-2.9707-.9395-2.7646c-1.2285-3.6123-3.6308-4.5362-6.1289-3.6865-2.63.8935-3.8535 3-2.5957 6.7011z" fill="#ffd400"/><path d="m1302.7262 833.205-3.7207-7.5127-24.6465 12.209-2.6758-5.4023 24.6465-12.2081-3.7207-7.5117-24.6465 12.208-2.6758-5.4023 29.542-14.6328 15.47 31.23-29.541 14.6328-2.6758-5.4024z" fill="#ffd400"/><path d="m1258.1041 808.1845-10.6162-16.1875 27.5723-18.0781 3.3046 5.041-23.0019 15.083 4.1328 6.3018c14.2578-9.35 24.4385-13.3213 28.4932-7.1377a8.601 8.601 0 0 1 1.3076 3.1972l-4.9531 1.8965a4.496 4.496 0 0 0 -.59-1.416c-1.7305-2.6387-7.9658-.2959-24.5869 10.6035z" fill="#ffd400"/><path d="m1266.9625 762.9169-25.7451 20.5947-11.9453-14.9316 4.8545-2.6777 7.59 9.4883 6.0322-4.8243-6.708-8.3857 4.2676-3.4141 6.708 8.3858 6.9131-5.5313-8.1787-10.2236 4.2666-3.4131z" fill="#ffd400"/><path d="m1228.2691 747.8163-8.6035-8.8457-9.4531 9.1944-4.2031-4.3213 23.6308-22.9844 4.2032 4.32-10.2618 9.9824 8.6026 8.8448 10.2627-9.9825 4.2031 4.3213-23.6309 22.9854-4.2031-4.3213z" fill="#ffd400"/><path d="m1202.0719 722.7216-9.4961-7.8838-8.4238 10.1485-4.64-3.8516 21.0615-25.37 4.6407 3.8506-9.1485 11.0185 9.4961 7.8828 9.1465-11.0175 4.6406 3.8505-21.0625 25.3711-4.64-3.8515z" fill="#ffd400"/><path d="m1145.9391 698.3281 18.0029-27.6172 5.05 3.291-18.002 27.6181zm20.2 13.1669 6.9951-10.7314-2.6826-1.748c-5.72-3.7295-7.7217-9.0254-4.044-14.667s9.291-5.9746 15.0527-2.22l7.7325 5.0411-18.0039 27.6171zm9.9785-15.3076 5.041-7.7334-2.4463-1.5947c-3.1953-2.083-5.6563-1.3252-7.0977.8838-1.5175 2.3271-1.1777 4.74 2.0977 6.875z" fill="#ffd400"/><path d="m1123.92 674.4618.125.0635 22.8692-13.0605 4.5146 2.2363-14.6338 29.543-5.4-2.6758 9.72-19.625-.126-.0625-22.8887 13.1016-4.5156-2.2364 14.6328-29.542 5.4023 2.6748zm-8.9414 14.5459a10.2694 10.2694 0 0 1 15.1953 7.5254l-4.5693.7344a5.0922 5.0922 0 0 0 -8.44-4.1816z" fill="#ffd400"/><path d="m1099.9215 633.5917 4.8555 1.5137-2.7852 12.1055-3.3731-1.0508c-4.8339 3.4765-8.7343 11.88-11.957 22.2217l-.8125 2.6084-19.291-6.0127 8.1855-26.2588-4.2734-1.3311 4.5859-11.5449 4.8555 1.5127-2.0605 6.61 20.01 6.2354zm-19.4238 6.9209-6.5577 21.043 7.9131 2.4668.3086-.9893c2.4395-7.8242 6.4356-15.1113 10.1621-18.8349z" fill="#ffd400"/><path d="m1037.6168 647.3466.1387.0274 18.5547-18.6924 4.9511.9492-6.22 32.3818-5.9209-1.1377 4.1309-21.51-.1407-.0264-18.5625 18.7383-4.9492-.95 6.2188-32.3809 5.92 1.1367z" fill="#ffd400"/><path d="m1013.2164 636.7851 4.082.3633-.4541 5.0664-4.0341-.3594c-3.0957-.2773-5.2168 1.2353-5.4375 3.7217-.2315 2.58 1.6425 4.3554 4.6933 4.6279a15.5034 15.5034 0 0 0 6.84-.9023l2.0087 5.0488a20.1566 20.1566 0 0 1 -9.57 1.2734c-5.8632-.5234-10.7548-3.4668-10.2431-9.1894a7.5325 7.5325 0 0 1 6.27-7.1944l.0117-.1406c-4.0488-1.26-6.4482-4.0273-6.041-8.5781.5977-6.707 6.3574-9.2666 13.1123-8.6631a18.8267 18.8267 0 0 1 9.7881 3.7109l-3.2427 4.5332a14.3944 14.3944 0 0 0 -7.0312-2.8027c-3.5176-.3144-6.2618 1.2852-6.5215 4.1934-.2758 3.0959 1.9693 4.9511 5.7691 5.291z" fill="#ffd400"/><path d="m975.1148 627.9824 10.4571-.0157 2.1543-7.21 6.3593-.0088-10.9726 32.9863-5.51.0078-11.07-32.9531 6.3584-.01zm8.8633 5.3085-7.2539.0108 3.5508 11.958h.1885z" fill="#ffd400"/><path d="m938.4645 645.1943.1406-.0147 12.3437-23.26 5.0117-.5235 3.4239 32.7881-5.9961.626-2.2735-21.78-.1406.0147-12.34 23.3056-5.0117.5235-3.4239-32.7872 5.9961-.6259zm.2187 17.07a10.2688 10.2688 0 0 1 16.8633-1.7608l-3.47 3.0616a5.0924 5.0924 0 0 0 -9.3682.9775z" fill="#ffd400"/><path d="m914.5611 646.956-12.0625 2.6064 2.7842 12.8907-5.8926 1.2734-6.9619-32.2285 5.8936-1.2735 3.0234 13.9971 12.0625-2.6064-3.0234-13.9961 5.8926-1.2725 6.9628 32.2275-5.8925 1.2735z" fill="#ffd400"/><path d="m869.774 660.4824a3.3438 3.3438 0 1 1 2.0655-4.254 3.3566 3.3566 0 0 1 -2.0655 4.254z" fill="#ffd400"/><path d="m834.1988 651.7128 14.2891 29.7188-9.2988 4.4707c-5.3067 2.5508-10.2364 2.5166-12.7266-2.6631a7.3086 7.3086 0 0 1 1.7871-9.2217l-.082-.17c-4.1641.9043-7.6856-.33-9.666-4.4483-2.918-6.0712.583-10.42 6.4-13.2158zm-2.8183 17.2972 3.6093-1.7354-3.8574-8.0244-3.6094 1.7354c-3.1406 1.5107-4.2539 3.9795-3.1308 6.3144 1.3057 2.7175 3.8478 3.22 6.9883 1.71zm5.7382 11.8242 3.5665-1.7148-3.4493-7.1739-3.5664 1.7139c-2.59 1.2451-3.2968 3.3623-2.2558 5.5274s3.1152 2.8922 5.705 1.6471z" fill="#ffd400"/><path d="m803.89 667.0341 16.9532 28.2725-16.3985 9.833-2.0019-5.169 10.4218-6.249-3.9716-6.623-9.208 5.52-2.8106-4.6846 9.209-5.5225-4.5527-7.5927-11.2286 6.7334-2.8086-4.6856z" fill="#ffd400"/><path d="m788.3551 709.5966-4.4356-6.0918-3.3125 2.4111c-5.5195 4.02-11.125 4.0811-15.0888-1.3623-3.9639-5.4453-2.2217-10.7334 3.3369-14.78l8.1855-5.959 19.4033 26.65-15.6084 11.3644-2.455-4.97zm-7.65-10.5088-5.3223-7.31-3.084 2.2452c-3.0839 2.2461-3.2793 4.7763-1.7548 6.8711 1.6357 2.2451 3.956 2.7119 7.1162.4111z" fill="#ffd400"/><path d="m761.482 712.6874 3.3926 3.9785-10.1074 8.6211-2.6748-4.59z" fill="#ffd400"/><path d="m728.482 714.2568 3.5821-3.61 9.455 8.0547-2.4863 2.5078c.8545 5.8906 6.5117 13.2285 14.2012 20.8574l1.9394 1.9239-14.23 14.3418-19.5254-19.3711-3.15 3.1757-8.1289-9.3925 3.582-3.6114 4.9141 4.877 14.7617-14.877zm-2.8183 20.4248 15.6463 15.5234 5.8378-5.8838-.7363-.73c-5.8164-5.7715-10.4394-12.6806-12.0234-17.7031z" fill="#ffd400"/><path d="m711.9361 775.8378.0889-.11-7.9893-25.0948 3.1319-3.9472 25.8291 20.4892-3.7471 4.7237-17.1582-13.6117-.0859.1094 8.0234 25.125-3.1309 3.9473-25.83-20.4893 3.7461-4.7226z" fill="#ffd400"/><path d="m691.2691 792.5859 2.2168-3.4483 4.2793 2.75-2.1894 3.4082c-1.6817 2.6153-1.3242 5.1963.7773 6.5459 2.1787 1.4 4.6211.5625 6.2754-2.0136a15.4823 15.4823 0 0 0 2.3731-6.4825l5.4062.5625a20.16 20.16 0 0 1 -3.3086 9.0723c-3.1836 4.9531-8.0586 7.9238-12.8945 4.8164a7.5357 7.5357 0 0 1 -3.4688-8.8906l-.1191-.0772c-2.9932 3.0039-6.5586 3.8477-10.4023 1.378-5.668-3.6416-5.2637-9.9327-1.5977-15.64a18.83 18.83 0 0 1 7.8262-6.9531l2.5136 4.9756a14.4079 14.4079 0 0 0 -5.7431 4.9316c-1.9092 2.9717-1.7647 6.1445.6933 7.7227 2.6143 1.6819 5.3018.5511 7.3623-2.6579z" fill="#ffd400"/><path d="m665.8 822.2988 4.8281-9.2735-5.3906-5.249 2.9355-5.64 24.1524 25-2.5449 4.8868-34.33-5.4493 2.9355-5.64zm8.8086-5.3946-3.35 6.4326 12.2422 2.3916.0879-.1679z" fill="#ffd400"/><path d="m664.109 862.7909.0508-.1318-14.9356-21.6924 1.8477-4.6875 30.6738 12.1-2.2129 5.6094-20.3769-8.0386-.0508.1319 14.9814 21.708-1.8486 4.6884-30.6719-12.1004 2.2119-5.6084zm15.248 7.6856a10.2686 10.2686 0 0 1 6.2217-15.7734l1.1143 4.49a5.0934 5.0934 0 0 0 -3.4571 8.7637z" fill="#ffd400"/><path d="m654.6617 884.79-3.24 11.9072 12.7246 3.4629-1.582 5.8174-31.8137-8.6575 1.583-5.8173 13.8164 3.76 3.24-11.9072-13.8164-3.76 1.583-5.8164 31.8135 8.6573-1.583 5.8164z" fill="#ffd400"/><path d="m646.0484 930.7958a3.3447 3.3447 0 1 1 -2.8261-3.7939 3.3575 3.3575 0 0 1 2.8261 3.7939z" fill="#ffd400"/><path d="m643.1871 978.9159.0039-.1406-21.521-15.1816.1133-5.0391 32.9629.7393-.1348 6.0273-21.8964-.4912-.004.1406 21.5674 15.1836-.1123 5.0391-32.9629-.7383.1348-6.0283z" fill="#ffd400"/><path d="m641.902 1002.8046 1.0488 12.2949 13.1387-1.1211.5126 6.0069-32.8486 2.8-.5117-6.0059 14.2656-1.2168-1.0478-12.2949-14.2666 1.2168-.5118-6.0068 32.85-2.8.5117 6.0068z" fill="#ffd400"/><path d="m655.0133 1043.52-27.0469 4.9941-1.1035-5.9746 27.0469-4.9941-1.7354-9.4014 5.3721-.9922 4.5742 24.7773-5.543.0655z" fill="#ffd400"/><path d="m632.148 1067.831 31.7637-8.8438 5.13 18.4239-5.5166.5576-3.26-11.7071-7.4414 2.0723 2.8809 10.3457-5.2656 1.4658-2.8789-10.3466-8.5313 2.375 3.5117 12.6152-5.2636 1.4658z" fill="#ffd400"/><path d="m654.1754 1099.7363-10.8359 4.1074-2.1368-5.6387 30.8321-11.6875 3.8242 10.0869c2.2207 5.8584.499 11.5479-6.1084 14.0528s-11.667-.6143-13.8877-6.4727zm14.8877-5.6446-9.7783 3.708 1.6523 4.36c1.0195 2.6865 3.51 3.8076 6.5938 2.6387 3.082-1.168 4.205-3.6592 3.1855-6.3457z" fill="#ffd400"/><path d="m664.7379 1143.8378-3.9043 1.9854-2.6914-5.2881 3.9453-2.0078a15.8419 15.8419 0 0 1 -1.916-2.9356c-3.5459-6.9668.0566-12.8691 6.8984-16.3506 6.9258-3.5254 13.8174-2.9629 17.3633 4.0049a15.4839 15.4839 0 0 1 1.2441 3.2774l3.9454-2.0078 2.6914 5.288-3.9454 2.0079a15.1547 15.1547 0 0 1 1.9161 2.9355c3.5468 6.9678-.0547 12.8691-6.9815 16.3945-6.8408 3.4805-13.7334 2.919-17.2793-4.0488a18.504 18.504 0 0 1 -1.2861-3.2549zm2.01-7.6816 14.2714-7.2627a12.3542 12.3542 0 0 0 -1.0507-2.583c-1.8379-3.6094-5.9454-3.6856-10.0586-1.5928s-6.4688 5.459-4.6328 9.0693a12.2594 12.2594 0 0 0 1.4705 2.3692zm16.9619-1.9727-14.27 7.2617a11.7178 11.7178 0 0 0 1.05 2.583c1.8369 3.61 5.9443 3.6856 10.0576 1.5928 4.1152-2.0937 6.47-5.459 4.6328-9.0683a11.603 11.603 0 0 0 -1.4702-2.3692z" fill="#ffd400"/><path d="m674.7193 1168.5917 27.6006-18.0342 10.461 16.0088-5.0889 2.2-6.6475-10.1728-6.4668 4.2246 5.8731 8.9912-4.5723 2.9873-5.875-8.9893-7.4121 4.8438 7.1621 10.9619-4.5742 2.9883z" fill="#ffd400"/><path d="m722.1 1196.8417-.0889-.1093-26.2343 2.2695-3.1612-3.9229 25.669-20.6865 3.7832 4.6943-17.0518 13.7413.0879.11 26.27-2.3 3.1631 3.9238-25.6709 20.6856-3.7813-4.6944zm14.2139-9.457a10.269 10.269 0 0 1 -10.6387-13.2012l4.4551 1.249a5.0919 5.0919 0 0 0 5.91 7.334z" fill="#ffd400"/><path d="m735.1051 1239.5917a16.833 16.833 0 0 1 -8.2666-4.7392c-6.8906-6.9639-4.6475-15.2774 2.1142-21.97 6.7637-6.6914 15.1006-8.8447 21.9912-1.8808a17.0276 17.0276 0 0 1 4.5557 7.6172l-5.1387 1.7041a13.8356 13.8356 0 0 0 -3.3007-5.48c-3.7774-3.8155-9.1485-2.08-13.7344 2.459s-6.3809 9.8906-2.6035 13.707a13.3617 13.3617 0 0 0 6.0761 3.4629z" fill="#ffd400"/><path d="m767.8375 1227.412-8.082 9.9395 2.4843 2.0205c5.2979 4.3086 6.7325 9.7842 2.4844 15.0088-4.25 5.2256-9.8662 4.9668-15.2012.6289l-7.1621-5.8232 20.7989-25.5772zm-11.5283 14.178-5.8252 7.1621 2.2666 1.8418c2.959 2.4062 5.4853 1.9121 7.1514-.1348 1.7519-2.1553 1.6679-4.5908-1.3653-7.0566zm30.2353 1.0351-20.7988 25.5782-4.6768-3.8038 20.8-25.5771z" fill="#ffd400"/><path d="m802.8219 1267.5468a3.3439 3.3439 0 1 1 -4.6035 1.082 3.3572 3.3572 0 0 1 4.6035-1.082z" fill="#ffd400"/><g clip-path="url(#a)"><circle cx="980.3037" cy="980.3038" r="287.0139"/><path d="m727.699 1110.735 278.743-278.743-81.133-81.132-197.61 197.61z" fill="#00b4ff"/><path d="m1035.7876 1178.2855c0-109.9564 89.1373-199.0938 199.0938-199.0938s199.0938 89.1374 199.0938 199.0938-89.1373 199.0938-199.0938 199.0938-199.0938-89.1372-199.0938-199.0938zm199.0938-115.3813a115.3814 115.3814 0 1 0 115.3813 115.3813 115.3814 115.3814 0 0 0 -115.3813-115.3813z" fill="#00b400" fill-rule="evenodd"/><path d="m1042.3107 1072.5828c0-8.7948-6.8415-11.2334-15.15-11.2334h-12.0959v22.467h12.0959c8.3085 0 15.15-2.9383 15.15-11.2336zm77.2032 7.2626h44.4361v34.4133c-6.248 11.6466-20.3977 20.7214-41.6289 20.7214-12.4894 0-22.4783-3.3314-27.8861-7.4823-20.0576 12.1862-55.0585 9.6544-67.4478-24.1327h-11.9159v9.9808h8.175v19.9685h-45.7963v-19.9685h11.3958v-51.9965h-16.3969v34.5267c0 25.785-18.3172 39.93-42.0491 39.93-20.8111 0-42.0423-12.4728-42.0423-39.93v-34.5267h-8.7419v-20.3816h46.63v20.3816h-9.9956v35.7793c0 10.394 7.9151 16.2172 15.4033 16.2172 7.495 0 14.57-5.4035 14.57-16.2172v-35.7793h-12.076v-20.3816h98.2479c24.632 0 37.0546 13.4322 37.0546 30.5223a31.596 31.596 0 0 1 -16.81 27.3842c4.721 13.832 19.0707 16.5571 25.9655 9.9009-3.3274-6.6561-4.5809-14.1451-4.5809-21.6341 0-24.6791 15.35-47.8323 47.0367-47.8323 18.304 0 29.34 5.21 38.135 12.5527v21.5742h-23.3117l-.1-9.6211c-3.5941-2.2254-7.7883-3.2514-13.0562-3.2514-13.7964 0-22.0714 9.8076-22.0714 26.1714 0 14.9714 8.7486 26.125 22.0714 26.5381 7.0816 0 12.5295-1.5125 17.8972-6.1565v-7.7089h-21.1246v-19.5619zm-263.2167 24.7656a9.33 9.33 0 0 0 -9.5754-9.1547h-12.4894v17.89h12.076c6.2416-.0004 9.9888-4.5777 9.9888-8.7353zm-22.0648-27.4575h7.0816c5.8279 0 8.7419-3.7444 8.7419-7.902s-2.914-7.9021-8.7419-7.9021h-7.0816zm48.2905 28.7034c0 13.7254-10.0289 27.4575-29.52 27.4575h-55.405v-19.9685h9.5754v-51.9965h-9.5754v-20.3816h48.8972c18.864 0 28.1194 12.06 28.1194 24.9589 0 5.8233-2.0805 11.6466-7.0815 17.0568 10.8289 4.9905 14.9899 13.7254 14.9899 22.8734zm234.3838-153.078h11.2091v33.2274l-37.088-52.7827h-39.5819v19.5487h10.8557v51.9966h-10.8557v20.3811h47.8771v-20.3814h-10.7891v-31.9813l36.2546 52.363h29.56v-72.3714h10.0289v-19.5489h-47.4635v19.5487zm-40.6754-128.1259v30.1692h19.5976v-10.0541h11.1224v51.87h-9.5354v20.115h46.6167v-20.115h-10.0621v-51.87h11.1223v10.0541h20.131v-30.1692zm-195.9956 169.975h-20.6578v10.5873h-25.4255v-16.41h23.8385v-20.1153h-23.8385v-15.351h25.4255v10.5873h20.6578v-30.7027h-82.6378v20.115h10.0621v51.87h-10.0621v20.115h82.6378zm45.5232-19.3888h12.4093c8.3085 0 15.15-2.9316 15.15-11.2334 0-8.7949-6.8414-11.2335-15.15-11.2335h-12.4093zm7.915 49.9179h-45.7966v-20.3816h10.8291v-51.9966h-10.8291v-19.5553h56.3255c24.632 0 37.0547 13.4388 37.0547 30.5223a31.6031 31.6031 0 0 1 -16.6569 27.3041c1.66 9.9809 10.3355 13.7321 21.0845 13.7321h17.2038v-52.0032h-14.5766v-19.5553h55.372v19.5553h-14.5765v51.9966h14.5765v20.3816h-59.1461c-26.8124 0-39.5152-10.4008-45.75-29.9561h-13.0293v9.5679h7.9083v20.3882zm92.6934-155.5171h16.4235l-8.4752-22.2337zm-92.9335 47.1128h-45.5565v-20.115h11.1227v-51.87h-11.1227v-20.1148h46.6168v20.1151h-9.002v15.8775h9.5354c12.1826 0 19.5976-5.8234 19.5976-15.8775h-7.9484v-20.1151h43.97v20.1151h-11.1296c0 13.7654-9.5353 25.4053-19.0707 30.7022 2.6472 14.2917 10.8223 21.1744 28.8328 20.1151l20.131-50.8107h-6.8881v-20.1217h51.9112l27.546 71.9851h9.5354v20.115h-46.6168v-20.115h7.415l-2.12-6.8827h-30.7266l-2.12 6.8827h8.4751v20.115h-18.2973c-31.7868 0-35.9477 0-47.6035-4.7639-11.1224-4.7639-19.5976-16.41-23.8385-31.2286h-10.5966v15.8775h7.9483zm-53.1981 0h-82.6378v-20.115h10.0621v-51.87h-10.0621v-20.1148h82.6378v30.7023h-20.6578v-10.5872h-25.4255v15.3511h23.8385v20.115h-23.8385v16.41h25.4255v-10.5866h20.6578z" fill="#fff"/></g></svg>