<svg fill="none" height="520" viewBox="0 0 520 520" width="520" xmlns="http://www.w3.org/2000/svg"><path d="m520 260c0 143.609-116.391 260-260 260s-260-116.391-260-260 116.391-260 260-260 260 116.391 260 260z" fill="#1769ff"/><g fill="#fff"><path d="m384.82 171.844h-84.906v19.703h84.906z"/><path d="m232.07 251.164c6.602-3.352 11.578-7.109 14.93-11.172 5.992-7.211 9.039-16.859 9.039-28.742 0-11.578-2.945-21.531-8.937-29.859-9.954-13.508-26.813-20.516-50.68-20.821h-94.453v195.508h88.054c9.954 0 19.094-.914 27.625-2.641 8.43-1.726 15.844-5.078 22.04-9.851 5.585-4.164 10.156-9.242 13.812-15.336 5.789-9.242 8.734-19.602 8.734-31.18 0-11.273-2.539-20.82-7.617-28.64-5.078-7.821-12.594-13.61-22.547-17.266zm-48.648-56.57c9.344 0 17.062 1.015 23.055 3.047 7.007 2.945 10.461 8.937 10.461 18.078 0 8.226-2.641 13.914-7.922 17.164-5.282 3.25-12.188 4.875-20.719 4.875h-47.531v-43.164zm24.68 124.109c-4.672 2.336-11.274 3.453-19.805 3.453h-47.43v-52.101h48.141c8.43.101 14.93 1.218 19.5 3.351 8.328 3.758 12.492 10.766 12.492 20.922 0 11.984-4.266 20.109-12.898 24.375z"/><path d="m415.391 265.789c-1.727-11.375-5.586-21.328-11.477-29.859-6.601-9.75-14.93-16.86-24.984-21.43-10.055-4.57-21.43-6.805-34.024-6.805-21.226 0-38.39 6.703-51.695 20.008-13.305 13.406-19.906 32.602-19.906 57.586 0 26.711 7.312 46.008 22.039 57.891 14.726 11.882 31.687 17.773 50.883 17.773 23.257 0 41.437-7.008 54.437-21.125 8.328-8.836 13-17.57 14.016-26.101h-38.594c-2.234 4.265-4.875 7.515-7.82 9.953-5.383 4.367-12.391 6.601-21.024 6.601-8.125 0-15.031-1.828-20.82-5.484-9.547-5.789-14.524-16.047-15.133-30.469h105.32c.204-12.391-.203-21.937-1.218-28.539zm-103.086 3.758c1.32-9.445 4.672-16.86 10.054-22.344 5.383-5.484 12.899-8.226 22.547-8.226 8.938 0 16.352 2.64 22.446 7.82 5.992 5.18 9.343 12.797 10.054 22.851z"/></g></svg>