<svg xmlns="http://www.w3.org/2000/svg" viewBox="0 0 510 250.67"><defs><style>.a{fill:#fff;}</style></defs><path class="a" d="M259.611,42.311H254.43L253.471,29.7h3.6c3.646-4.846,4.893-14.2,4.893-25.234V1.679h20.58V29.7H287.1l-.961,12.616h-5.18V35.259H259.611ZM276.4,29.7V7.244h-8.444V8.3c0,8.347-1.679,16.646-4.173,21.4Z"/><path class="a" d="M289.494,23.026c0-7.963,4.7-12.712,11.514-12.712s11.513,4.749,11.513,12.712-4.7,12.713-11.513,12.713S289.494,30.99,289.494,23.026Zm6.045,0c0,4.75,2.3,7.58,5.469,7.58s5.468-2.83,5.468-7.58-2.3-7.579-5.468-7.579S295.539,18.277,295.539,23.026Z"/><path class="a" d="M338.374,35.259h-5.948V25.233h-8.2V35.259h-5.948V10.794h5.948V20.1h8.2V10.794h5.948Z"/><path class="a" d="M357.608,19.237c0-2.351-1.2-3.79-4.125-3.79a19.476,19.476,0,0,0-6.525,1.3l-1.775-4.8a24.458,24.458,0,0,1,8.875-1.631c7.484,0,9.5,3.934,9.5,9.019v9.306a1.546,1.546,0,0,0,1.728,1.727h.528v4.653a11.175,11.175,0,0,1-3.406.48c-2.159,0-3.55-.816-4.318-2.351H357.9c-1.727,1.728-3.646,2.351-6.428,2.351-4.653,0-7.58-2.3-7.58-7.292,0-4.7,3.742-7.339,9.163-7.339h4.557Zm0,8.97V25.425h-4.365c-2.206,0-3.454,1.1-3.454,2.686a2.429,2.429,0,0,0,2.638,2.5A6.962,6.962,0,0,0,357.608,28.207Z"/><path class="a" d="M367.727,10.794h21.2l-.959,5.133H381.16V35.259h-5.9V15.927h-7.532Z"/><path class="a" d="M408.453,20.58h-.144l-9.883,14.679h-5.42V10.794h5.948V25.473h.145l9.882-14.679h5.42V35.259h-5.948Z"/><path class="a" d="M427.255,12.9a9.074,9.074,0,0,1,6.333-2.59c6.907,0,10.025,5.325,10.025,12.712s-3.165,12.713-10.457,12.713a18.171,18.171,0,0,1-5.613-.863v9.977l-5.948.96V10.794H426.1l.96,2.11ZM437.57,23.026c0-4.461-1.823-7.579-5.421-7.579a6.442,6.442,0,0,0-4.606,2.4V29.311a9.3,9.3,0,0,0,4.8,1.3C435.554,30.606,437.57,27.824,437.57,23.026Z"/><path class="a" d="M462.7,10.794h6.333l-9.4,29.167c-1.535,4.8-4.653,5.852-7.292,5.852a12.318,12.318,0,0,1-4.461-.96l1.631-4.8a7.328,7.328,0,0,0,2.542.624c.768,0,1.871-.384,2.4-2.159l.959-3.262h-1.678l-8.2-24.465h6.428l5.421,17.173h.192Z"/><path class="a" d="M488.078,20.58h-.143l-9.883,14.679h-5.42V10.794h5.948V25.473h.144l9.882-14.679h5.42V35.259h-5.948ZM491.484,2.4A8.963,8.963,0,0,1,483.33,7.34,9.051,9.051,0,0,1,475.174,2.4L478.82,0c1.007,2.111,2.542,3.262,4.51,3.262s3.5-1.1,4.508-3.262Z"/><path class="a" d="M502.131,35.547a3.392,3.392,0,0,1,1.1-6.62c2.4,0,3.358,1.919,3.358,3.933a10.306,10.306,0,0,1-5.517,9.211L499.54,40.2A6.415,6.415,0,0,0,502.131,35.547Z"/><path class="a" d="M272.516,70.917h-.144L262.49,85.6h-5.421V61.131h5.948V75.81h.144l9.883-14.679h5.42V85.6h-5.948Z"/><path class="a" d="M305.757,85.6h-5.948V75.57h-8.2V85.6h-5.948V61.131h5.948v9.306h8.2V61.131h5.948Z"/><path class="a" d="M332.426,78.736c0,4.222-2.782,6.86-8.347,6.86H312.95V61.131h10.17c4.7,0,8.3,1.631,8.3,6.044,0,2.638-1.439,4.509-4.174,5.421v.144C330.412,73.507,332.426,75.522,332.426,78.736ZM318.9,66.264v4.317h3.071c2.158,0,3.405-.624,3.405-2.159,0-1.583-1.487-2.158-3.405-2.158Zm0,9.066v5.133h3.886c2.255,0,3.6-.815,3.6-2.638s-1.343-2.5-3.6-2.5Z"/><path class="a" d="M355.257,79.36l2.063,4.653a18.9,18.9,0,0,1-8.442,2.063c-7.2,0-12.137-4.7-12.137-12.713,0-8.059,4.317-12.712,11.225-12.712,6.38,0,10.362,3.981,10.362,10.841a32.257,32.257,0,0,1-.288,3.694H342.785c.624,3.742,3.214,5.757,6.381,5.757A14.524,14.524,0,0,0,355.257,79.36Zm-2.35-8.731a4.531,4.531,0,0,0-4.845-4.845c-2.542,0-4.605,1.679-5.181,4.845Z"/><path class="a" d="M381.783,84.685a17.314,17.314,0,0,1-6.955,1.391c-7.915,0-12.185-5.661-12.185-12.713s4.03-12.712,11.945-12.712a18.908,18.908,0,0,1,6.956,1.343l-1.919,4.7a12.491,12.491,0,0,0-4.749-.911c-3.55,0-6.188,3.07-6.188,7.579s2.59,7.58,6.14,7.58a14.013,14.013,0,0,0,5.037-.96Z"/><path class="a" d="M383.7,61.131h21.2l-.959,5.133h-6.812V85.6h-5.9V66.264H383.7Z"/><path class="a" d="M424.426,70.917h-.143L414.4,85.6h-5.42V61.131h5.948V75.81h.144l9.882-14.679h5.42V85.6h-5.948Z"/><path class="a" d="M443.228,63.241a9.07,9.07,0,0,1,6.333-2.59c6.907,0,10.025,5.325,10.025,12.712s-3.166,12.713-10.458,12.713a18.164,18.164,0,0,1-5.612-.863V95.19l-5.948.96V61.131h4.508l.961,2.11Zm10.314,10.122c0-4.461-1.823-7.579-5.421-7.579a6.437,6.437,0,0,0-4.6,2.4V79.648a9.31,9.31,0,0,0,4.8,1.3C451.527,80.943,453.542,78.161,453.542,73.363Z"/><path class="a" d="M478.678,61.131h6.332l-9.4,29.167c-1.535,4.8-4.653,5.852-7.292,5.852a12.313,12.313,0,0,1-4.46-.96l1.63-4.8a7.339,7.339,0,0,0,2.543.624c.768,0,1.87-.384,2.4-2.159l.96-3.262h-1.679l-8.2-24.465h6.428L473.353,78.3h.191Z"/><path class="a" d="M504.052,70.917h-.144L494.025,85.6h-5.42V61.131h5.948V75.81h.145l9.882-14.679H510V85.6h-5.948Zm3.406-18.181a9.2,9.2,0,0,1-16.31,0l3.646-2.4c1.007,2.111,2.542,3.262,4.509,3.262s3.5-1.1,4.509-3.262Z"/><path class="a" d="M185.76,146.667l-.2-4.459c31.353-1.405,52.924-13.867,65.945-38.1l3.933,2.114C241.609,131.958,218.817,145.187,185.76,146.667Z"/><path class="a" d="M120.85,207.093a44.248,44.248,0,0,1-62.821,0l10.552-10.61a29.388,29.388,0,0,0,41.717,0Zm-6.535-41.588a10,10,0,1,1-9.95,10A9.977,9.977,0,0,1,114.315,165.505Zm-49.752,0a10,10,0,1,1-9.949,10A9.978,9.978,0,0,1,64.563,165.505Zm41.585-63.262a75.136,75.136,0,0,1,57.041,61.1,27.444,27.444,0,0,1-10.517,52.216,74.494,74.494,0,0,1-126.466,0,27.445,27.445,0,0,1-10.518-52.216,75.172,75.172,0,0,1,26.364-45.92l9.424,11.552C36.287,141.512,31.215,155.9,29.367,174.805c-7.7.225-14.442,3.962-14.442,13.346.7,12.216,12.033,14.213,19.411,11.485,11.978,22.091,29.161,36.027,55.1,36.027,26.026,0,43.2-14.075,55.1-36.027,8.236,2.986,19.412,1.035,19.412-11.485,0-9.542-6.6-13.848-14.443-13.346-1.841-28.421-17.42-51.148-46.495-57.9-9.156-2.127-20.562-2.521-26.133,6.735-6.206,10.313-.3,21.578,12.353,21.226,7.285-.2,8.46-10.418.58-10.261l-.292-14.948c27.481-.554,27.088,39.407.121,40.157-24.7.687-37.736-23.631-25.53-43.913C73.188,101.142,90.429,98.623,106.148,102.243Z"/></svg>