<svg fill="none" height="520" viewBox="0 0 510 520" width="510" xmlns="http://www.w3.org/2000/svg" xmlns:xlink="http://www.w3.org/1999/xlink"><linearGradient id="a"><stop offset="0" stop-color="#ffd521"/><stop offset=".05" stop-color="#ffd521"/><stop offset=".501" stop-color="#f50000"/><stop offset=".95" stop-color="#b900b4"/><stop offset="1" stop-color="#b900b4"/></linearGradient><linearGradient id="b" gradientUnits="userSpaceOnUse" x1="4.59965" x2="467.522" xlink:href="#a" y1="509.726" y2="46.8063"/><linearGradient id="c" gradientUnits="userSpaceOnUse" x1="4.60038" x2="467.902" xlink:href="#a" y1="510.362" y2="47.0601"/><linearGradient id="d" gradientUnits="userSpaceOnUse" x1="4.72033" x2="467.91" xlink:href="#a" y1="510.375" y2="47.1843"/><path d="m421.733 123.89c0-16.951-13.736-30.6361-30.623-30.6361s-30.636 13.6851-30.636 30.6361c0 16.887 13.749 30.573 30.636 30.573s30.623-13.686 30.623-30.573z" fill="url(#b)"/><path d="m462.539 363.029c-1.134 24.865-5.293 38.375-8.746 47.347-4.637 11.897-10.169 20.403-19.142 29.325-8.872 8.923-17.379 14.443-29.275 19.029-8.973 3.505-22.533 7.675-47.397 8.86-26.88 1.185-34.845 1.437-103.011 1.437-68.102 0-76.13-.252-103.01-1.437-24.864-1.185-38.361-5.355-47.335-8.86-11.9588-4.586-20.4021-10.106-29.3244-19.029-8.9859-8.922-14.5176-17.428-19.092-29.325-3.4542-8.972-7.6749-22.482-8.7471-47.347-1.3098-26.88-1.5499-34.97-1.5499-102.997 0-68.166.2401-76.194 1.5499-103.074 1.0722-24.864 5.2929-38.361 8.7471-47.41 4.5744-11.8837 10.1061-20.34 19.092-29.2624 8.9223-8.9093 17.3656-14.4423 29.3244-19.079 8.974-3.5165 22.471-7.6249 47.335-8.8094 26.88-1.1851 34.908-1.4876 103.01-1.4876 68.166 0 76.131.3025 103.011 1.4882 24.864 1.1839 38.424 5.2923 47.397 8.8088 11.896 4.6367 20.403 10.1697 29.275 19.079 8.973 8.9224 14.505 17.3787 19.142 29.2624 3.453 9.049 7.612 22.546 8.746 47.41 1.248 26.88 1.55 34.908 1.55 103.074 0 68.027-.302 76.117-1.55 102.997zm45.911-208.163c-1.248-27.171-5.533-45.734-11.897-61.9021-6.477-16.7737-15.161-30.9889-29.376-45.2041-14.151-14.1522-28.367-22.8357-45.141-29.3883-16.231-6.3015-34.732-10.63711-61.915-11.82095-27.183-1.31106-35.866-1.55055-105.153-1.55055-69.223.00065-77.969.23949-105.152 1.55055-27.121 1.18384-45.609 5.51945-61.9157 11.82095-16.7101 6.5526-30.9253 15.2361-45.0775 29.3883-14.2152 14.2152-22.8987 28.4304-29.439 45.2041-6.30216 16.1681-10.5858 34.7311-11.89686 61.9021-1.184489 27.183-1.48694 35.879-1.48694 105.166 0 69.224.302451 77.906 1.48629 105.089 1.31106 27.121 5.596 45.671 11.89681 61.915 6.541 16.711 15.2245 30.99 29.4397 45.141 14.1522 14.152 28.3674 22.899 45.0775 29.44 16.3067 6.3 34.7947 10.586 61.9157 11.833 27.183 1.247 35.929 1.55 105.152 1.55 69.287 0 77.97-.303 105.153-1.55s45.684-5.533 61.915-11.833c16.774-6.541 30.99-15.288 45.141-29.44 14.215-14.151 22.899-28.43 29.376-45.141 6.364-16.244 10.649-34.794 11.897-61.915 1.248-27.183 1.55-35.865 1.55-105.089 0-69.287-.302-77.983-1.55-105.166z" fill="url(#c)"/><path d="m254.968 344.959c-46.918 0-84.989-38.009-84.989-84.927 0-46.994 38.071-85.052 84.989-85.052 46.931 0 85.053 38.058 85.053 85.052 0 46.918-38.122 84.927-85.053 84.927zm0-215.952c-72.324 0-130.899 58.7-130.899 131.025 0 72.262 58.575 130.9 130.899 130.9s130.963-58.638 130.963-130.9c0-72.325-58.639-131.025-130.963-131.025z" fill="url(#d)"/></svg>