<svg width="520" height="520" viewBox="0 0 520 520" fill="none" xmlns="http://www.w3.org/2000/svg">
<path d="M260 520C403.594 520 520 403.594 520 260C520 116.406 403.594 0 260 0C116.406 0 0 116.406 0 260C0 403.594 116.406 520 260 520Z" fill="url(#paint0_linear_553_53)"/>
<path fill-rule="evenodd" clip-rule="evenodd" d="M117.691 257.255C193.486 224.233 244.028 202.462 269.317 191.944C341.522 161.911 356.525 156.694 366.304 156.522C368.455 156.484 373.264 157.017 376.379 159.545C379.01 161.679 379.733 164.562 380.08 166.586C380.426 168.609 380.857 173.219 380.514 176.821C376.602 217.933 359.671 317.702 351.058 363.748C347.413 383.232 340.237 389.765 333.289 390.404C318.19 391.793 306.725 380.426 292.101 370.84C269.218 355.839 256.29 346.502 234.078 331.864C208.408 314.948 225.049 305.65 239.678 290.456C243.507 286.479 310.032 225.969 311.319 220.48C311.48 219.794 311.63 217.235 310.11 215.883C308.589 214.532 306.346 214.994 304.726 215.362C302.431 215.883 265.875 240.045 195.057 287.849C184.681 294.975 175.282 298.446 166.861 298.264C157.578 298.064 139.72 293.015 126.445 288.7C110.163 283.407 97.2216 280.609 98.3484 271.62C98.9354 266.938 105.383 262.15 117.691 257.255Z" fill="white"/>
<defs>
<linearGradient id="paint0_linear_553_53" x1="260" y1="0" x2="260" y2="516.143" gradientUnits="userSpaceOnUse">
<stop stop-color="#2AABEE"/>
<stop offset="1" stop-color="#229ED9"/>
</linearGradient>
</defs>
</svg>
