<svg fill="none" height="520" viewBox="0 0 500 520" width="500" xmlns="http://www.w3.org/2000/svg"><path d="m0 250c0-113.135 0-169.7083 35.1458-204.8542 35.1459-35.1458 91.7292-35.1458 204.8542-35.1458h20c113.135 0 169.708 0 204.854 35.1458 35.146 35.1459 35.146 91.7292 35.146 204.8542v20c0 113.135 0 169.708-35.146 204.854s-91.729 35.146-204.854 35.146h-20c-113.135 0-169.7083 0-204.8542-35.146-35.1458-35.146-35.1458-91.729-35.1458-204.854z" fill="#07f"/><path d="m266.042 370.208c-113.959 0-178.9587-78.125-181.667-208.125h57.083c1.875 95.417 43.959 135.834 77.292 144.167v-144.167h53.75v82.292c32.917-3.542 67.5-41.042 79.167-82.292h53.75c-8.959 50.834-46.459 88.334-73.125 103.75 26.666 12.5 69.375 45.209 85.625 104.375h-59.167c-12.708-39.583-44.375-70.208-86.25-74.375v74.375z" fill="#fff"/></svg>