<svg fill="none" height="520" viewBox="0 0 643 520" width="643" xmlns="http://www.w3.org/2000/svg"><path d="m628.647 105.185c-7.399-27.6408-29.121-49.362-56.761-56.761-50.101-13.424-250.877-13.424-250.877-13.424s-200.776 0-250.8244 13.4232c-27.6404 7.3998-49.3616 29.121-56.7606 56.7618-13.424 50.048-13.424 154.532-13.424 154.532s0 104.483 13.4232 154.532c7.3998 27.641 29.121 49.362 56.7614 56.761 50.0484 13.423 250.8244 13.424 250.8244 13.424s200.776-.001 250.824-13.424c27.64-7.399 49.362-29.12 56.761-56.761 13.424-50.049 13.424-154.532 13.424-154.532s0-104.484-13.371-154.532z" fill="#e70000"/><path d="m256.795 356.008 166.847-96.292-166.847-96.293z" fill="#fefefe"/></svg>