<svg fill="none" height="520" viewBox="0 0 520 520" width="520" xmlns="http://www.w3.org/2000/svg"><path d="m206.96 318.24c-40.04-39.52-99.84-46.8-206.44-47.84 5.2 136.76 116.48 247 254.28 249.6-1.56-104-8.84-162.24-47.84-201.76zm111.28 0c-39 39.52-46.28 97.76-47.84 201.24 135.2-5.2 243.88-113.88 249.08-249.08-103.48 1.56-161.72 8.84-201.24 47.84zm-111.8-111.8c40.04-39.52 46.8-99.32 48.36-206.44-139.36 3.12-251.68 115.44-254.8 254.8 107.12-1.56 166.92-8.32 206.44-48.36zm111.8 0c39.52 39.52 97.76 46.8 201.76 48.36-2.6-137.8-112.32-249.08-249.6-254.28 1.04 106.6 8.32 166.4 47.84 205.92z" fill="#fff"/></svg>