<svg xmlns="http://www.w3.org/2000/svg" viewBox="0 0 694 586.003"><defs><style>.a{fill:#fff;}</style></defs><path class="a" d="M430,447h19c17,0,31,5,31,23,0,17-14,23-31,23H430Zm19,83c44,0,80-16,80-60,0-45-35-61-80-61H292.183v38h13.25l-21,50-31.5-50h14.5V409h-93v38h21.5l62.5,92c-5,7-16,10-28,6l-1-21h-39v52c12,6,30,10,45,10,32,0,60-8,86-60l38-79H379v99H359v37h92V545H430V530Zm59-288V204H445l-57,99V242h13V204H323v38h14v99H323v38h63l57-97v59H430v38h78V341H493V242Zm108,0h13v30H581V242h14V204H517v38h14v99H517v38h78V341H581V309h48v32H616v38h78V341H679V242h15V204H616ZM255,341H231V328h16c45,0,74-24,74-63,0-38-30-61-74-61H164v39h17v98H164v38h91Zm-24-99h9c19,0,29,8,29,24s-10,24-29,24h-9ZM538,409v39h19v98H538v37h93V546H607V448h45v19h38V409ZM98,472.5H69V447h46v15h41V409H0v38H18v98H0v38H98c40,0,73-13.25,73-55.25S140,472.5,98,472.5M97,545H69V508.5H97c14,0,26,3.25,26,18.25S112,545,97,545M536.859,136l-52-136h-98V38h13l-38,96c-34,2-49.43-11-54.43-38,18-10,36-32,36-58h21V0h-83V38h15c0,19-14,30-37,30h-18V38h17V0h-88V38h21v98h-21v38h86V136h-15V106h20c8,28,24,50,45,59,22,9,29.87,9,89.87,9h34.56V136h-16l4-13h58l4,13h-14v38h88V136Zm-105-51,15-42,16,42ZM156,116H117v20H69V105h45V67H69V38h48V58h39V0H0V38H19v98H0v38H156ZM526,0V57h37V38h21v98H566v38h88V136H635V38h21V57h38V0ZM156,321H117v20H69V310h45V272H69V242h48v20h39V204H0v38H19v99H0v38H156Z"/></svg>