<svg xmlns="http://www.w3.org/2000/svg" viewBox="0 0 1569.333 587.85"><defs><style>.a{fill:#fff;}</style></defs><path class="a" d="M1031.333,174h-156V136h19V38h-19V0h156V58h-39V38h-48V67h45v38h-45v31h48V116h39Zm100.43,0h-86V136h21V38h-21V0h88V38h-17V68h18c23,0,37-11,37-30h-15V0h83V38h-21c0,26-18,48-36,58,5,27,20.433,40,54.433,38l38-96h-13V0h98l52,136h18v38h-88V136h14l-4-13h-58l-4,13h16v38h-34.567c-60,0-67.866,0-89.866-9-21-9-37-31-45-59h-20v30h15Zm175.431-89h31l-16-42ZM1132.211,378.81h-86.448V340.3H1066.2V242.06h-20.438V205.12h106.322c46.5,0,69.95,25.384,69.95,57.66,0,18.86-10.218,39.79-31.438,51.58,3.139,18.859,19.51,25.939,39.8,25.939h32.474V242.06H1235.36V205.12h104.532v36.94h-27.511V340.3h27.511V378.81H1228.245c-50.619,0-74.59-19.65-86.369-56.591h-24.6V340.3h14.93Zm-14.93-94.31h23.424c15.681,0,28.6-5.54,28.6-21.22,0-16.61-12.921-21.22-28.6-21.22h-23.424Zm-85.948,36.623h-39v20h-48v-31h45v-38h-45v-29h48v20h39v-58h-156v38h19v98h-19v38h156ZM1401.333,0V57h37V38h21v98h-18v38h88V136h-19V38h21V57h38V0Zm76.78,242.056h21.157v62.776l-70.011-99.713h-74.725V242.06h20.5V340.3h-20.5v38.51h90.378V340.3h-20.369V279.879l68.439,98.927h55.8V242.06h18.926V205.123h-89.592ZM1035.655,531.269c0,25.935-18.93,51.868-55.726,51.868h-104.6V545.415h18.075V447.177H875.333V408.67h92.308c35.605,0,53.084,22.791,53.084,47.153,0,11-3.931,22.006-13.362,32.223,20.433,9.43,28.292,25.933,28.292,43.223m-91.164-54.226h13.362c11,0,16.5-7.075,16.5-14.932s-5.5-14.934-16.5-14.934H944.491Zm41.654,51.869a17.617,17.617,0,0,0-18.076-17.29H944.491v33.793h22.791c11.788,0,18.863-8.645,18.863-16.5m496.889-46.792h83.884v65.016c-11.79,22-38.51,39.144-78.59,39.144-23.58,0-42.438-6.29-52.648-14.14-37.867,23.02-103.94,18.239-127.32-45.591h-22.5V545.41h15.428v37.73h-86.449V545.41h21.511V447.18h-30.942v65.23c0,48.719-34.58,75.44-79.38,75.44-39.29,0-79.37-23.57-79.37-75.44V447.18h-16.5V408.671h88.022V447.18h-18.87v67.59c0,19.64,14.938,30.64,29.08,30.64s27.51-10.21,27.51-30.64V447.18h-22.79V408.671h185.468c46.5,0,69.95,25.378,69.95,57.659,0,18.95-10.31,39.98-31.73,51.73,8.911,26.132,36,31.277,49.012,18.71-6.282-12.57-8.642-26.721-8.642-40.87,0-46.623,28.972-90.37,88.8-90.37,34.549,0,55.387,9.846,71.99,23.721V470h-44.01l-.185-18.178c-6.782-4.207-14.7-6.146-24.645-6.146-26.04,0-41.66,18.527-41.66,49.44,0,28.29,16.51,49.357,41.66,50.136,13.362,0,23.656-2.853,33.79-11.627V519.06h-39.874ZM1337.3,468.4c0-16.61-12.92-21.22-28.6-21.22H1285.86v42.44H1308.7c15.68,0,28.6-5.54,28.6-21.22"/><path class="a" d="M430,447h19c17,0,31,5,31,23,0,17-14,23-31,23H430Zm19,83c44,0,80-16,80-60,0-45-35-61-80-61H292.183v38h13.25l-21,50-31.5-50h14.5V409h-93v38h21.5l62.5,92c-5,7-16,10-28,6l-1-21h-39v52c12,6,30,10,45,10,32,0,60-8,86-60l38-79H379v99H359v37h92V545H430V530Zm59-288V204H445l-57,99V242h13V204H323v38h14v99H323v38h63l57-97v59H430v38h78V341H493V242Zm108,0h13v30H581V242h14V204H517v38h14v99H517v38h78V341H581V309h48v32H616v38h78V341H679V242h15V204H616ZM255,341H231V328h16c45,0,74-24,74-63,0-38-30-61-74-61H164v39h17v98H164v38h91Zm-24-99h9c19,0,29,8,29,24s-10,24-29,24h-9ZM538,409v39h19v98H538v37h93V546H607V448h45v19h38V409ZM98,472.5H69V447h46v15h41V409H0v38H18v98H0v38H98c40,0,73-13.25,73-55.25S140,472.5,98,472.5M97,545H69V508.5H97c14,0,26,3.25,26,18.25S112,545,97,545M536.859,136l-52-136h-98V38h13l-38,96c-34,2-49.43-11-54.43-38,18-10,36-32,36-58h21V0h-83V38h15c0,19-14,30-37,30h-18V38h17V0h-88V38h21v98h-21v38h86V136h-15V106h20c8,28,24,50,45,59,22,9,29.87,9,89.87,9h34.56V136h-16l4-13h58l4,13h-14v38h88V136Zm-105-51,15-42,16,42ZM156,116H117v20H69V105h45V67H69V38h48V58h39V0H0V38H19v98H0v38H156ZM526,0V57h37V38h21v98H566v38h88V136H635V38h21V57h38V0ZM156,321H117v20H69V310h45V272H69V242h48v20h39V204H0v38H19v99H0v38H156Z"/></svg>