<svg viewBox="0 0 1569.321 588.341" xmlns="http://www.w3.org/2000/svg"><g fill="#fff"><path d="m258 136.496h-15v-97.999h17v-38h-87.999v38h21v97.999h-21v38h85.999z"/><path d="m511.439 242.498v-37.999h-63l-56.999 98.999v-61h13v-37.999h-78v19.101 18.857l14 .041v98.999h-14v38h63l56.999-96.999v58.999h-13v38h78v-38h-15v-98.999z"/><path d="m529.439.5v57h36.999v-19h21v97.999h-18v38h88v-38h-19v-97.999h21v19h37.999v-57z"/><path d="m537.996 448.496 19 .001v97.999h-19v37h92.999v-37h-24v-97.999h45v19h38v-58h-151.999z"/><path d="m619.438 242.498h13v30h-48v-30h14v-37.999h-77.999v37.999h14v98.999h-14v38h77.999v-38h-14v-31.999h48v31.999h-13v38h77.999v-38h-15v-98.999h15v-37.999h-77.999z"/><path d="m1131.754 136.495h-15v-98h16.998v-37.999h-87.997v37.999h21v98h-21v37.999h85.999z"/><path d="m1478.1 242.554h21.158v62.776l-70.01-99.713h-74.724v36.937h20.497v98.235h-20.497v38.51h90.377v-38.51h-20.369v-60.417l68.438 98.927h55.796v-136.745h18.927v-36.937h-89.593z"/><path d="m1401.322.5v56.999h37v-19h21v98h-18v37.999h87.999v-37.999h-19v-98h21v19h38v-56.999z"/><path d="m1412.183 136.5-52-136h-98v38h13l-38 96c-34 2-49.432-11-54.432-38 18-10 36-32 36-58h21v-38h-83v38h15c0 19-14 30-37 30h-6.958v38h8.958c8 28 24 50 45 59 22 9 29.866 9 89.865 9h34.567v-38h-16l4-13h40.7l-9.622-38h-18.082l15-42 34 93h-14v38h85.408v-38z"/><path d="m1339.882 242.554v-36.94h-104.532v36.94h27.511v98.238h-32.473c-20.29 0-36.661-7.08-39.8-25.939 21.219-11.79 31.437-32.72 31.437-51.58 0-32.275-23.448-57.659-69.949-57.659h-106.321v36.94h20.438v98.238h-20.438v38.508h86.445v-38.508h-14.931v-98.238h23.431c15.681 0 28.6 4.61 28.6 21.22 0 15.679-12.921 21.219-28.6 21.219h-10.343v37.719h11.514c11.779 36.941 35.75 56.591 86.368 56.591h111.647v-38.511h-27.511v-98.238z"/><path d="m1007.354 488.538c9.432-10.217 13.363-21.22 13.363-32.223 0-24.362-17.479-47.151-53.084-47.151h-92.307v38.5h18.074v98.237h-18.074v37.722h69.158v-135.954h13.361c11 0 16.5 7.075 16.5 14.934s-5.5 14.932-16.5 14.932h-.279v34.579h10.5a17.617 17.617 0 0 1 18.075 17.29c0 7.857-7.075 16.5-18.863 16.5h-9.708v37.722h22.355c36.8 0 55.726-25.933 55.726-51.867-.004-17.288-7.863-33.791-28.297-43.221z"/><path d="m1488.207 482.612v36.94h34.693v14.569c-10.133 8.773-20.428 11.626-33.789 11.626-25.15-.778-41.66-21.845-41.66-50.135 0-30.913 15.62-49.44 41.66-49.44 9.941 0 17.862 1.939 24.644 6.146l.185 12.993h44.01v-35.568c-16.6-13.875-37.441-23.721-71.989-23.721-59.828 0-88.8 43.747-88.8 90.37 0 14.149 2.36 28.3 8.642 40.869-13.008 12.567-40.1 7.422-49.012-18.709 21.42-11.75 31.731-32.78 31.731-51.73 0-32.281-23.451-57.658-69.95-57.658h-181.586v38.508h18.9v67.59c0 20.43-13.362 30.64-27.51 30.64s-29.08-11-29.08-30.64v-67.59h18.87v-38.508h-88.016v38.508h16.5v65.228c0 51.869 40.079 75.439 79.369 75.439 44.8 0 79.38-26.721 79.38-75.439v-65.23h30.941v98.23h-17.918v37.73h82.856l.01-37.73h-15.438v-98.23h22.838c15.68 0 28.6 4.61 28.6 21.22 0 15.68-12.92 21.22-28.6 21.22h-9.756v36.929h9.418c23.378 63.829 89.452 68.61 127.319 45.59 10.21 7.85 29.068 14.14 52.648 14.14 40.079 0 66.8-17.144 78.589-39.143v-65.014z"/><path d="m449 530.5c44 0 80-16 80-60 0-45-35-61-80-61h-156.819v38h13.249l-21 50-31.5-50h14.5v-38h-93v38h21.5l62.5 92c-5 7-16 10-28 6l-1-21h-39v52c12 6 30 10 45 10 32 0 60-8 86-60l38-79h19.57v99h-20v37h92v-38h-21v-98h19c17 0 31 5 31 23 0 17-14 23-31 23h-5.917v37z"/><path d="m98 473h-29v-25.5h46v12h41v-50h-156v38h18v98h-18v38h69v-74.5h28c14 0 26 3.25 26 18.25s-11 18.25-26 18.25h-14.918v38h15.918c40 0 73-13.25 73-55.25s-31-55.25-73-55.25z"/><path d="m324.44 265.5c0-38-30-61-74-61h-83v39h17v98h-17v38h91v-38h-24v-99h9c19 0 29 8 29 24 0 14.807-8.581 22.748-24.917 23.852v38.148h2.918c45 0 73.999-24 73.999-63z"/><path d="m541.358 136.5-52-136h-98v38h13l-38.181 96.457-3.21.285c-33.5.842-48.992-11.869-53.969-38.743 18-10 36-32 36-58h21v-37.999h-82.998v38h15c0 19-14 30-37 30h-6.193v38h8.193c7.579 27.236 24 50 45 59 16.751 6.852 25.355 8.485 54.969 8.875v.007h3.392c9.191.116 20.369.118 34.439.118h34.56v-38h-16l4-13 40.882.063-9.8-38.063h-18.083l15-42 34 93h-14v38h88v-38z"/><path d="m155.999 119.666-38.999-.17-.001 17.285h-48v-31.178h38.686v-38.218h-38.686v-29.167h48l.001 17.277 38.999-.162v-55.333h-155.999v38.218h19v98.563h-19v38.218h155.999z"/><path d="m155.999 324.165-38.999-.171-.001 17.285h-48v-31.178h38.686v-38.218h-38.686v-29.166h48l.001 17.277 38.999-.163v-55.332h-155.999v38.218h19v98.562h-19v38.218h155.999z"/><path d="m1031.332 324.603-38.999-.169-.001 17.18h-47.999v-31h38.685v-38h-38.685v-29h47.999l.001 17.173 38.999-.162v-55.011h-155.999v38h19v98h-19v38h155.999z"/><path d="m1031.332 119.488-38.999-.169-.001 17.18h-47.999v-31h38.685v-38h-38.685v-29h47.999l.001 17.173 38.999-.161v-55.012h-155.999v38h19v98h-19v38h155.999z"/></g></svg>