<svg viewBox="0 0 1572.949 587.853" xmlns="http://www.w3.org/2000/svg"><g fill="#fff"><path d="m236.653 106.014h10.453v-38.005h-10.453v-30.004h17.002v-38.005h-88.012v38.005h21.003v98.014h-21.003v38.005h86.012v-38.005h-15.002z"/><path d="m338.667 38.005h21v-38.005h-83.009v38.005h15c0 18.437-13.207 29.31-35 29.943v38.081c8 28 24 49.994 45 58.993 14.033 5.741 22.379 7.815 42.112 8.568v-38.39c-24.8-3.182-36.819-16.014-41.111-39.188 18.005-10 36.008-32.003 36.008-58.007z"/><path d="m529.515 0v57.008h37.005v-19.003h21.003v98.014h-18.002v38.005h88.012v-38.005h-19.003v-98.014h21.003v19.003h38.005v-57.008z"/><path d="m545.423 409.059v39.005h19.003v98.014h-19.003v37.005h93.013v-37.005h-24.003v-98.014h45.006v19.003h38.005v-58.008z"/><path d="m156.022 462.066v-53.007h-58.106v38.005h17.1v15.002z"/><path d="m88.362 545.078h-19.352v-36.506h19.352v-36.005h-19.352v-25.503h19.352v-38.005h-88.362v38.005h18.003v98.013h-18.003v38.005h88.362z"/><path d="m98.014 472.567h-.1v36.019c13.609.142 25.1 3.562 25.1 18.239 0 14.7-10.568 18.106-25.1 18.239v38.018h.1c40.005 0 73.009-13.251 73.009-55.257s-31.004-55.258-73.009-55.258z"/><path d="m232.585 328.048h14.225v-38.248c-1.666.149-3.39.247-5.224.247h-9v-48.011h9c1.834 0 3.558.1 5.224.247v-38.252h-81.235v39h17v98.013h-17v38.006h91.013v-38.001h-24z"/><path d="m256.364 204.283v39.977c9.363 3.384 14.226 10.636 14.226 21.779s-4.863 18.4-14.226 21.779v39.975c40.539-2.631 66.233-26.046 66.233-62.754.003-35.721-26.509-58.184-66.233-60.756z"/><path d="m465.517 409.172v38.134c14.131 1.18 24.917 6.962 24.917 22.761 0 14.921-10.786 21.366-24.917 22.721v37.17c41.187-1.446 73.923-17.934 73.923-59.891 0-42.952-31.891-59.476-73.923-60.895z"/><path d="m440.427 530.075h15.536v-37.005h-15.536v-46.006h15.536v-38.005h-79.885v38.005h13.342v99.014h-20.003v37.004h92.013v-38.005h-21.003z"/><path d="m584.523 309.045h19.726v-37.005h-19.726v-30.004h14.001v-38.005h-78.01v38.005h14.002v99.013h-14.002v38.006h78.01v-38.006h-14.001z"/><path d="m697.538 242.036v-38.005h-78.011v38.005h13.002v30.004h-18.726v37.005h18.726v32.004h-13.002v38.006h78.011v-38.006h-15.002v-99.013z"/><path d="m88.362 341.049h-19.352v-31.004h45.006v-38.005h-45.006v-30.004h19.352v-38.005h-88.362v38.005h19.003v99.013h-19.003v38.006h88.362z"/><path d="m97.916 204.031v38.005h19.1v20.003h39.006v-58.008z"/><path d="m117.016 341.049h-19.1v38.006h58.106v-58.008h-39.006z"/><path d="m424.715 123.017h48.145l-14-38.006h-21.143l10.393-29.1v-55.911h-55.4v38.005h13l-38.8 98.014h-13.583v37.887h14.38c9.193.116 20.372.118 34.445.118h34.564v-38h-16z"/><path d="m542.731 136.019-52.007-136.019h-33.061v55.985l11.058 29.026 14.002 38.006 4 13.002h-14.001v38.005h87.06v-38.005z"/><path d="m88.362 136.022h-19.352v-31.005h46.091v-38.005h-46.091v-29.004h19.352v-38.005h-88.362v38.005h19.003v98.014h-19.003v38.005h88.362z"/><path d="m117.016 136.022h-19.1v38.005h58.106v-58.008h-39.006z"/><path d="m97.916.003v38.005h19.1v20.003h39.006v-58.008z"/><path d="m252.309 532.751a59.136 59.136 0 0 0 3.725-4.634c9.059-12.67 15.5-24.83 18.5-31.985l.941-2.165 2.071-4.93-26.443-41.973h14.5v-38h-93.003v38h21.5z"/><path d="m290.361 409.059v38h13.252l-21 50.007-.9 2.073c-5.952 14.722-17.905 33.988-27.117 42.23a17.2 17.2 0 0 1 -1.596 1.336c-.036.028-.074.064-.109.091v-.015c-5.762 4.211-14.7 5.492-24.29 2.3l-1-21h-39v52.008c12 6 30 10 45.006 10 32 0 60.008-8 86.012-60.008l38-79.011h8.881v-38z"/><path d="m391.009 303.044v-21.56-39.448h13.002v-38.005h-78.011v24.003 6.653 7.349h7.349 6.653v99.013h-14.002v38.006h63.009l24.727-42.08v-73.404l-18.687 32.457z"/><path d="m511.026 242.036v-38.005h-63.009l-24.727 42.947v73.739l22.727-38.676v59.008h-13.002v38.006h78.011v-38.006h-15.003v-99.013z"/><path d="m1117.3 322.245h14.88v-37.722h-14.88v-42.444h14.88v-36.943h-86.403v36.943h20.44v98.248h-20.44v38.514h86.456v-38.514h-14.933z"/><path d="m1345.117 242.079v-36.943h-104.541v36.943h27.513v98.248h-25.303v38.514h102.331v-38.514h-27.514v-98.248z"/><path d="m1233.233 340.327h-2.806c-20.292 0-36.664-7.081-39.8-25.942 21.221-11.791 31.441-32.722 31.441-51.584 0-32.279-23.452-57.665-69.956-57.665h-10.376v36.964c15.222.2 27.6 4.951 27.6 21.2 0 15.342-12.377 20.962-27.6 21.2v37.745h.166c11.78 36.944 35.753 56.6 86.376 56.6h4.958z"/><path d="m1519.187 470.043h44.013v-40.757c-15.118-12.634-33.784-21.9-63.077-23.464v40.157a41.751 41.751 0 0 1 18.877 5.884z"/><path d="m1488.271 482.16v36.94h39.877v14.57c-8.622 7.465-17.379 10.62-28.024 11.4v41.077c36.44-1.768 60.9-18.194 72.038-38.971v-65.016z"/><path d="m1116.783 106.009h10.453v-38.003h-10.453v-30.003h17.002v-38.003h-88.008v38.003h21.002v98.009h-21.002v38.003h86.007v-38.003h-15.001z"/><path d="m1218.792 38h21v-38h-83.007v38h15c0 18.436-13.206 29.308-35 29.942v38.078c8 28 24 49.992 45 58.991 14.032 5.74 22.377 7.814 42.109 8.567v-38.384c-24.8-3.182-36.817-16.013-41.109-39.186 18.005-10.001 36.007-32.003 36.007-58.008z"/><path d="m1404.445 0v57.005h37.004v-19.002h21.001v98.009h-18.001v38.003h88.007v-38.003h-19.001v-98.009h21.001v19.002h38.004v-57.005z"/><path d="m1302.243 123.01h48.143l-14-38h-21.14l10.393-29.1v-55.91h-55.4v38h13l-38.794 98.009h-10.995v37.891h11.786c9.193.116 20.371.118 34.443.118h34.563v-38h-16z"/><path d="m1420.253 136.012-52.004-136.012h-33.059v55.982l11.057 29.025 14.001 38.003 4 13.002h-14.001v38.003h84.463v-38.003z"/><path d="m963.564 136.014h-19.225v-31.003h45.004v-38.003h-45.004v-29.002h19.225v-38.003h-88.231v38.003h19.001v98.008h-19.001v38.003h88.231z"/><path d="m973.117.003v38.003h19.226v20.001h39.003v-58.004z"/><path d="m992.343 136.014h-19.226v38.003h58.229v-58.005h-39.003z"/><path d="m963.564 341.151h-19.225v-31.003h45.004v-38.003h-45.004v-29.003h19.225v-38.003h-88.231v38.003h19.001v98.009h-19.001v38.003h88.231z"/><path d="m973.117 205.139v38.003h19.226v20.002h39.003v-58.005z"/><path d="m992.343 341.151h-19.226v38.003h58.229v-58.005h-39.003z"/><path d="m954.654 545.46h-10.157v-33.796h10.157v-34.582h-10.157v-29.868h10.157v-38.51h-79.321v38.51h18.076v98.246h-18.076v37.725h79.321z"/><path d="m1007.373 488.086c9.433-10.218 13.364-21.222 13.364-32.226 0-24.363-17.48-47.156-53.088-47.156h-3.441v39.454a14.713 14.713 0 0 1 0 27.98v35.526h3.869a17.619 17.619 0 0 1 18.077 17.292c0 7.858-7.076 16.5-18.864 16.5h-3.082v37.725h15.73c36.8 0 55.731-25.935 55.731-51.872 0-17.288-7.86-33.792-28.296-43.223z"/><path d="m1490.57 445.888v-40.31c-59.4.312-88.172 43.9-88.172 90.363 0 14.15 2.36 28.3 8.642 40.873a23.487 23.487 0 0 1 -12.409 6.12v41.757a90.259 90.259 0 0 0 42.282-12.5c9.773 7.514 27.481 13.584 49.657 14.091v-41.293c-23-2.681-37.878-22.987-37.878-49.828 0-29.379 14.127-47.537 37.878-49.273z"/><path d="m1362.024 518.1c21.422-11.751 31.733-32.783 31.733-51.735 0-32.283-23.452-57.664-69.956-57.664h-10.219v38.512h.338c15.681 0 28.6 4.611 28.6 21.222 0 15.682-12.922 21.222-28.6 21.222h-.338v36.932c14.443 39.433 45.18 56.311 75.495 58.042v-41.705c-10.941-1.843-21.963-9.896-27.053-24.826z"/><path d="m1291.08 545.455v-18.863h12.949v-36.932h-12.949v-42.444h12.949v-38.512h-75.539v38.512h13.076v98.239h-21.513v37.733h86.456v-37.733z"/><path d="m1136.91 408.7v38.512h19.014v67.6c0 18.135-10.531 28.2-22.792 30.237v42.605c41.31-2.689 72.3-29.082 72.3-75.2v-65.238h13.5v-38.516z"/><path d="m1123.578 545.013c-12.514-2.191-24.249-12.793-24.249-30.2v-67.6h18.871v-38.513h-88.03v38.512h16.5v65.236c0 50.788 38.419 74.431 76.9 75.4z"/><path d="m1429.775 279.901 31.803 45.971v-82.154l-27.087-38.579h-74.731v36.94h20.5v98.245h-20.5v38.513h90.386v-38.513h-20.371z"/><path d="m1483.349 205.139v36.94h21.159v62.783l-33.377-47.538v82.357l27.089 39.156h55.801v-136.758h18.928v-36.94z"/></g></svg>